<?xml version="1.0" encoding="UTF-8" standalone="no"?>
<!-- Created with Inkscape (http://www.inkscape.org/) -->

<svg
   xmlns:dc="http://purl.org/dc/elements/1.1/"
   xmlns:cc="http://creativecommons.org/ns#"
   xmlns:rdf="http://www.w3.org/1999/02/22-rdf-syntax-ns#"
   xmlns:svg="http://www.w3.org/2000/svg"
   xmlns="http://www.w3.org/2000/svg"
   xmlns:sodipodi="http://sodipodi.sourceforge.net/DTD/sodipodi-0.dtd"
   xmlns:inkscape="http://www.inkscape.org/namespaces/inkscape"
   width="299.75049"
   height="207.42682"
   id="svg3530"
   version="1.1"
   inkscape:version="0.47 r22583"
   sodipodi:docname="New document 3">
  <defs
     id="defs3532">
    <inkscape:perspective
       sodipodi:type="inkscape:persp3d"
       inkscape:vp_x="0 : 526.18109 : 1"
       inkscape:vp_y="0 : 1000 : 0"
       inkscape:vp_z="744.09448 : 526.18109 : 1"
       inkscape:persp3d-origin="372.04724 : 350.78739 : 1"
       id="perspective3538" />
    <inkscape:perspective
       id="perspective3505"
       inkscape:persp3d-origin="0.5 : 0.33333333 : 1"
       inkscape:vp_z="1 : 0.5 : 1"
       inkscape:vp_y="0 : 1000 : 0"
       inkscape:vp_x="0 : 0.5 : 1"
       sodipodi:type="inkscape:persp3d" />
  </defs>
  <sodipodi:namedview
     id="base"
     pagecolor="#ffffff"
     bordercolor="#666666"
     borderopacity="1.0"
     inkscape:pageopacity="0.0"
     inkscape:pageshadow="2"
     inkscape:zoom="1.4"
     inkscape:cx="156.21171"
     inkscape:cy="54.038435"
     inkscape:document-units="px"
     inkscape:current-layer="layer1"
     showgrid="false"
     inkscape:window-width="1280"
     inkscape:window-height="750"
     inkscape:window-x="-8"
     inkscape:window-y="-8"
     inkscape:window-maximized="1" />
  <metadata
     id="metadata3535">
    <rdf:RDF>
      <cc:Work
         rdf:about="">
        <dc:format>image/svg+xml</dc:format>
        <dc:type
           rdf:resource="http://purl.org/dc/dcmitype/StillImage" />
        <dc:title></dc:title>
      </cc:Work>
    </rdf:RDF>
  </metadata>
  <g
     inkscape:label="Layer 1"
     inkscape:groupmode="layer"
     id="layer1"
     transform="translate(-144.05334,-268.36713)">
    <g
       transform="matrix(4.8279806,0,0,-4.8279806,-122.37684,1444.5717)"
       id="g3475">
      <path
         id="path262"
         style="fill:#bfa161;fill-opacity:1;fill-rule:evenodd;stroke:none"
         d="m 90.0255,225.3594 c -0.7268,-0.5139 -1.6821,-0.591 -2.4222,-0.2571 0,0 -0.2018,0.0771 -0.39,0.2826 -0.1619,0.1931 -4.2526,4.599 -4.2526,4.599 l -0.0133,0.013 c 1.2651,-0.2185 2.651,0.3594 3.3642,1.4128 0.7129,1.002 0.6865,2.4279 0.0136,3.4299 -0.8073,1.0919 -2.382,1.4514 -3.7007,1.2847 -2.2875,-0.3084 -3.9294,-2.2482 -4.4402,-4.2781 -0.5252,-2.3119 -0.1482,-4.4957 0.673,-6.5511 0.1879,-0.4368 0.4439,-0.8864 0.7534,-1.2714 -2.4091,1.0015 -4.5351,2.8514 -5.6517,5.3309 -1.2381,2.6719 -1.2112,6.0503 0.2557,8.7607 1.1571,2.0937 3.2023,4.0335 5.7322,4.8558 2.6507,1.0403 6.2167,0.822 8.8005,-0.5652 3.1351,-1.4902 5.5034,-5.203 5.5168,-8.517 0.1077,-3.4299 -1.4806,-6.5384 -4.2387,-8.5295" />
      <path
         id="path264"
         style="fill:#bfa161;fill-opacity:1;fill-rule:evenodd;stroke:none"
         d="m 81.2251,224.0617 c -1.1705,1.2079 -2.1127,2.7749 -1.3992,4.4062 0.6321,1.2461 1.1973,2.518 1.4666,3.9569 0.1075,-1.5032 1.0633,-2.8392 1.5203,-4.2781 0.1749,-0.6936 0.1887,-1.413 -0.0939,-2.1322 -0.3095,-0.7835 -0.8076,-1.4513 -1.3997,-2.0551 l -0.0941,0.1023 z" />
      <path
         id="path266"
         style="fill:#1f1917;fill-opacity:1;fill-rule:evenodd;stroke:none"
         d="m 66.4605,210.4872 -3.1161,0 c -0.6905,1.0341 -1.3141,1.9275 -1.8743,2.6799 -0.557,0.7523 -1.161,1.5287 -1.813,2.3286 l -1.1835,0 0,-3.5067 c 0,-0.1809 0.0307,-0.3402 0.0893,-0.4785 0.0584,-0.1352 0.1865,-0.2421 0.3841,-0.3135 0.0975,-0.0374 0.2676,-0.0717 0.5125,-0.1012 0.2449,-0.0318 0.4513,-0.0505 0.6211,-0.0556 l 0,-0.553 -4.896,0 0,0.553 c 0.131,0.0108 0.3206,0.0289 0.5683,0.0556 0.2478,0.0238 0.4204,0.0587 0.5179,0.1012 0.1619,0.0666 0.2812,0.1647 0.3538,0.2948 0.0748,0.1307 0.1114,0.2953 0.1114,0.4972 l 0,7.992 c 0,0.1834 -0.0278,0.3427 -0.0839,0.4836 -0.0524,0.1411 -0.1809,0.2474 -0.3813,0.3194 -0.1363,0.0477 -0.3143,0.0899 -0.5317,0.1276 -0.2177,0.0397 -0.4011,0.0635 -0.5545,0.0743 l 0,0.553 5.3444,0 c 0.4901,0 0.9494,-0.0482 1.3785,-0.1437 0.4283,-0.0958 0.8187,-0.2498 1.1671,-0.4623 0.3367,-0.2078 0.6071,-0.4791 0.8075,-0.8139 0.2007,-0.335 0.3033,-0.739 0.3033,-1.2124 0,-0.4254 -0.0694,-0.803 -0.206,-1.1296 -0.1367,-0.3271 -0.3371,-0.6091 -0.6015,-0.8481 -0.245,-0.2231 -0.5406,-0.4178 -0.8828,-0.5797 -0.3424,-0.1649 -0.7214,-0.3033 -1.1332,-0.4172 0.5706,-0.7231 1.044,-1.3295 1.423,-1.8241 0.3787,-0.4916 0.8404,-1.0925 1.392,-1.7969 0.2396,-0.3138 0.4539,-0.5423 0.6495,-0.6911 0.1919,-0.1463 0.3838,-0.269 0.5734,-0.3617 0.142,-0.0666 0.3172,-0.1199 0.5315,-0.1568 0.2118,-0.0348 0.3875,-0.0561 0.5292,-0.0612 l 0,-0.553 z m -4.2913,8.2417 c 0,0.6698 -0.2007,1.1988 -0.6041,1.5922 -0.4011,0.3909 -0.9723,0.5874 -1.7045,0.5874 l -1.387,0 0,-4.7427 1.0695,0 c 0.749,0 1.376,0.2285 1.8738,0.6888 0.5017,0.4595 0.7523,1.0846 0.7523,1.8743 z m 11.6742,-6.4341 c -0.3368,-0.6142 -0.7883,-1.1007 -1.353,-1.4649 -0.5658,-0.364 -1.2172,-0.5448 -1.95,-0.5448 -0.6491,0 -1.214,0.1091 -1.7013,0.3271 -0.4876,0.2177 -0.8887,0.5131 -1.203,0.8878 -0.3147,0.3725 -0.5517,0.811 -0.7073,1.3082 -0.1536,0.4997 -0.231,1.0261 -0.231,1.5817 0,0.4972 0.0833,0.9862 0.2475,1.4678 0.1669,0.4808 0.4096,0.9116 0.7327,1.2971 0.309,0.3671 0.6931,0.665 1.1526,0.8907 0.4595,0.2262 0.9751,0.3399 1.546,0.3399 0.5873,0 1.0913,-0.0874 1.5092,-0.2657 0.4203,-0.1751 0.7605,-0.4172 1.0196,-0.7228 0.25,-0.2928 0.4365,-0.6355 0.5593,-1.029 0.1227,-0.3962 0.1839,-0.8243 0.1839,-1.2841 l 0,-0.5159 -5.3274,0 c 0,-0.5023 0.0499,-0.9598 0.1499,-1.3688 0.1001,-0.4122 0.2594,-0.771 0.4791,-1.0851 0.2118,-0.3002 0.4876,-0.5369 0.8303,-0.7124 0.3424,-0.1726 0.752,-0.2607 1.2254,-0.2607 0.4841,0 0.9023,0.1094 1.2526,0.3245 0.3487,0.2152 0.688,0.6035 1.014,1.1648 l 0.5709,-0.3354 z m -1.8017,2.9274 c 0,0.2922 -0.025,0.6032 -0.078,0.9357 -0.053,0.3322 -0.1341,0.6086 -0.2477,0.832 -0.1259,0.2392 -0.298,0.4334 -0.5157,0.585 -0.2165,0.1514 -0.4983,0.226 -0.8407,0.226 -0.5709,0 -1.0443,-0.226 -1.4233,-0.6806 -0.3784,-0.4547 -0.5819,-1.0874 -0.6151,-1.8981 l 3.7205,0 z m 6.3496,-4.735 -3.7885,0 0,0.4952 c 0.121,0.0105 0.25,0.0232 0.3875,0.036 0.1372,0.0102 0.2497,0.0312 0.3387,0.0564 0.1477,0.0437 0.2577,0.1236 0.3305,0.2361 0.0726,0.1131 0.1128,0.2597 0.1103,0.4391 l -0.1236,8.2015 c -0.0011,0.0927 -0.0436,0.3603 -0.0947,0.5448 -0.0232,0.0836 -0.0482,0.1508 -0.072,0.1766 -0.0252,0.0275 -0.0337,0.0556 -0.0689,0.0856 -0.136,0.1162 0.0329,-0.0451 -0.0941,0.0627 -0.0839,0.0714 0.0346,0.0269 -0.2171,0.0765 -0.2497,0.0493 -0.6676,-0.0609 -0.8209,-0.0507 l -0.0136,0.5405 2.825,0.1469 0.1344,-0.1097 0.011,-9.5848 c 0,-0.1746 0.0335,-0.3178 0.1021,-0.4312 0.068,-0.1122 0.1777,-0.2004 0.3308,-0.2593 0.1153,-0.0514 0.2281,-0.0874 0.341,-0.1129 0.1134,-0.0258 0.242,-0.0436 0.3821,-0.0541 l 0,-0.4952 z m 4.8682,0 -3.8574,0 0,0.5091 c 0.1245,0.01 0.2509,0.0207 0.3835,0.0314 0.133,0.0103 0.2458,0.0312 0.3425,0.0633 0.1522,0.0447 0.2656,0.1264 0.337,0.2423 0.0717,0.116 0.1108,0.2665 0.1108,0.451 l 0,4.703 c 0,0.1658 -0.0416,0.3163 -0.119,0.4535 -0.0774,0.1369 -0.188,0.2503 -0.3288,0.3424 -0.1018,0.0633 -0.2484,0.116 -0.4442,0.1582 -0.1936,0.0448 -0.3702,0.0712 -0.5332,0.0819 l 0,0.5006 2.8168,0.1715 0.1131,-0.1083 0,-6.2107 c 0,-0.1794 0.0357,-0.3293 0.1077,-0.4481 0.0717,-0.1162 0.1879,-0.2052 0.3452,-0.2611 0.1185,-0.0476 0.2348,-0.0842 0.3479,-0.1131 0.1131,-0.0264 0.2372,-0.0479 0.3781,-0.0578 l 0,-0.5091 z m -1.0188,10.7107 c 0,-0.2925 -0.0995,-0.5482 -0.3038,-0.7671 -0.2016,-0.2185 -0.4499,-0.3294 -0.7484,-0.3294 -0.2733,0 -0.5136,0.1052 -0.7152,0.3136 -0.2015,0.2083 -0.3039,0.4484 -0.3039,0.7146 0,0.2846 0.1024,0.5298 0.3039,0.7407 0.2016,0.2109 0.4419,0.3163 0.7152,0.3163 0.3095,0 0.5607,-0.0975 0.7566,-0.2956 0.1961,-0.1999 0.2956,-0.4292 0.2956,-0.6931 z m 9.6236,-10.5698 c -0.2562,-0.0876 -0.479,-0.1593 -0.6709,-0.2152 -0.195,-0.0533 -0.4122,-0.0825 -0.6571,-0.0825 -0.4263,0 -0.7631,0.0958 -1.0168,0.2843 -0.2534,0.1914 -0.4147,0.468 -0.4847,0.8295 l -0.0499,0 c -0.3535,-0.3719 -0.7325,-0.6591 -1.1392,-0.8561 -0.404,-0.1964 -0.8912,-0.2951 -1.4619,-0.2951 -0.6043,0 -1.1001,0.1758 -1.4898,0.529 -0.3901,0.3537 -0.5851,0.816 -0.5851,1.3852 0,0.2977 0.0448,0.561 0.1309,0.7949 0.0891,0.2338 0.2175,0.4442 0.3929,0.6327 0.1364,0.1542 0.3144,0.2925 0.5375,0.415 0.2225,0.1219 0.4342,0.2205 0.6293,0.2925 0.2449,0.0873 0.7407,0.2523 1.4873,0.4918 0.7492,0.2393 1.2532,0.4249 1.5148,0.5607 l 0,0.771 c 0,0.0666 -0.0139,0.1968 -0.0447,0.3881 -0.0307,0.1913 -0.0944,0.375 -0.192,0.5451 -0.1088,0.1939 -0.2622,0.3614 -0.4626,0.5023 -0.1973,0.144 -0.4787,0.2154 -0.8436,0.2154 -0.2505,0 -0.4818,-0.0397 -0.6964,-0.1221 -0.2143,-0.08 -0.3674,-0.1647 -0.4536,-0.2529 0,-0.1037 0.025,-0.2548 0.0783,-0.4595 0.0521,-0.2021 0.0776,-0.3883 0.0776,-0.5613 0,-0.1805 -0.0864,-0.3455 -0.2562,-0.4969 -0.1727,-0.1519 -0.4093,-0.2262 -0.7158,-0.2262 -0.2701,0 -0.4705,0.093 -0.5986,0.2764 -0.1285,0.1837 -0.192,0.3912 -0.192,0.6197 0,0.2395 0.0891,0.4677 0.2645,0.6859 0.1783,0.2177 0.4062,0.4122 0.6908,0.5823 0.2447,0.1462 0.5397,0.2684 0.8878,0.3722 0.3481,0.1009 0.688,0.1511 1.0197,0.1511 0.4566,0 0.8549,-0.0318 1.1976,-0.0899 0.3393,-0.0587 0.646,-0.1888 0.9241,-0.3858 0.2786,-0.1913 0.4875,-0.4516 0.6324,-0.7812 0.1446,-0.3303 0.2174,-0.7555 0.2174,-1.2736 0,-0.7444 -0.0085,-1.4015 -0.0255,-1.9752 -0.0164,-0.5746 -0.0247,-1.2019 -0.0247,-1.8825 0,-0.2021 0.0358,-0.3617 0.1112,-0.481 0.0725,-0.1199 0.1865,-0.2209 0.337,-0.3059 0.0836,-0.0451 0.212,-0.072 0.3869,-0.0771 0.1783,-0.005 0.3595,-0.008 0.5431,-0.008 l 0,-0.4972 z m -2.8459,4.1128 c -0.4624,-0.1302 -0.8691,-0.2577 -1.2172,-0.3827 -0.3481,-0.1253 -0.6713,-0.2792 -0.9689,-0.468 -0.2733,-0.1758 -0.4876,-0.3858 -0.6466,-0.6273 -0.1559,-0.2396 -0.2367,-0.5267 -0.2367,-0.8589 0,-0.4306 0.1202,-0.7495 0.3566,-0.9516 0.2373,-0.2021 0.5377,-0.3033 0.8994,-0.3033 0.3875,0 0.7271,0.0904 1.0222,0.2684 0.2928,0.1783 0.5403,0.3906 0.7407,0.6355 l 0.0505,2.6879 z m 12.5291,-4.2537 -3.9404,0 0,0.5131 c 0.125,0.0104 0.2641,0.0212 0.4118,0.0317 0.1508,0.0108 0.2727,0.032 0.3734,0.0638 0.1502,0.0451 0.2644,0.1278 0.337,0.2446 0.0748,0.1171 0.1114,0.2685 0.1114,0.4547 l 0,3.9506 c 0,0.5451 -0.1364,0.9649 -0.4042,1.2603 -0.2699,0.2951 -0.5987,0.4439 -0.9828,0.4439 -0.2894,0 -0.5539,-0.0425 -0.794,-0.1275 -0.2364,-0.0851 -0.451,-0.1914 -0.6347,-0.3164 -0.1783,-0.1196 -0.3231,-0.2474 -0.4291,-0.3858 -0.1055,-0.138 -0.1834,-0.2472 -0.2308,-0.3294 l 0,-4.4183 c 0,-0.1755 0.036,-0.322 0.1143,-0.4363 0.0754,-0.1139 0.189,-0.2021 0.3424,-0.2633 0.1142,-0.0533 0.2364,-0.0902 0.3702,-0.1171 0.1338,-0.0261 0.2704,-0.0451 0.4124,-0.0555 l 0,-0.5131 -3.9407,0 0,0.5131 c 0.125,0.0104 0.2534,0.0212 0.3869,0.0317 0.1338,0.0108 0.2484,0.032 0.3481,0.0638 0.1506,0.0451 0.2645,0.1278 0.3374,0.2446 0.0754,0.1171 0.1114,0.2685 0.1114,0.4547 l 0,4.7432 c 0,0.178 -0.0394,0.3402 -0.1199,0.4864 -0.078,0.1488 -0.1894,0.2707 -0.3289,0.364 -0.1029,0.0612 -0.2256,0.1063 -0.3676,0.1358 -0.1417,0.0292 -0.2948,0.0476 -0.4567,0.0584 l 0,0.5048 2.6762,0.1729 0.1145,-0.1088 0,-1.082 0.0389,0 c 0.1309,0.1222 0.2953,0.2738 0.4898,0.4465 0.1953,0.1729 0.3821,0.3166 0.5547,0.4251 0.2033,0.1251 0.4428,0.2291 0.7183,0.3116 0.2787,0.0822 0.5905,0.1247 0.9389,0.1247 0.771,0 1.3447,-0.231 1.7178,-0.6885 0.3733,-0.4601 0.5567,-1.0715 0.5567,-1.8343 l 0,-3.996 c 0,-0.1832 0.034,-0.3297 0.1009,-0.4414 0.0638,-0.1117 0.1752,-0.1993 0.3339,-0.2605 0.1307,-0.053 0.2421,-0.0879 0.3371,-0.1086 0.0949,-0.0212 0.2284,-0.0377 0.3954,-0.0481 l 0,-0.5131 z m 4.7092,-0.2021 c -1.1642,0 -2.0747,0.3696 -2.7346,1.106 -0.6576,0.7362 -0.9859,1.7255 -0.9859,2.9671 0,0.5394 0.0893,1.0445 0.2645,1.5151 0.1786,0.4705 0.4343,0.896 0.7716,1.2815 0.32,0.3671 0.7237,0.665 1.2084,0.8907 0.4819,0.2262 1.0108,0.3399 1.5817,0.3399 0.7883,0 1.4318,-0.1806 1.9245,-0.542 0.496,-0.3614 0.7438,-0.8535 0.7438,-1.4755 0,-0.2605 -0.0644,-0.4889 -0.1953,-0.6888 -0.1307,-0.2015 -0.3456,-0.3005 -0.6463,-0.3005 -0.3201,0 -0.5678,0.0777 -0.7461,0.2345 -0.1755,0.1539 -0.2645,0.3294 -0.2645,0.521 0,0.2338 0.0335,0.4731 0.0975,0.7205 0.0669,0.2469 0.1029,0.4275 0.1137,0.5423 -0.0969,0.1593 -0.2418,0.2682 -0.4365,0.3215 -0.1922,0.0561 -0.4011,0.0825 -0.6245,0.0825 -0.2582,0 -0.5088,-0.0533 -0.7458,-0.1596 -0.2367,-0.1063 -0.4652,-0.3033 -0.688,-0.5874 -0.2032,-0.2608 -0.3645,-0.6117 -0.4904,-1.0528 -0.1247,-0.4416 -0.1893,-0.9677 -0.1893,-1.5794 0,-0.9675 0.2256,-1.7544 0.6743,-2.3658 0.4479,-0.6092 1.0389,-0.915 1.7655,-0.915 0.5289,0 0.9717,0.1227 1.3286,0.367 0.3537,0.2447 0.6845,0.6092 0.9887,1.0982 l 0.5233,-0.3271 c -0.3592,-0.614 -0.8326,-1.0982 -1.4202,-1.457 -0.5879,-0.3589 -1.1948,-0.5369 -1.8187,-0.5369 z m 11.014,2.0097 c -0.3367,-0.6142 -0.7877,-1.1007 -1.353,-1.4649 -0.5655,-0.364 -1.2172,-0.5448 -1.9494,-0.5448 -0.6491,0 -1.2143,0.1091 -1.7016,0.3271 -0.4876,0.2177 -0.8887,0.5131 -1.2036,0.8878 -0.3141,0.3725 -0.5508,0.811 -0.7069,1.3082 -0.1531,0.4997 -0.2316,1.0261 -0.2316,1.5817 0,0.4972 0.0836,0.9862 0.2483,1.4678 0.1669,0.4808 0.4096,0.9116 0.7322,1.2971 0.3095,0.3671 0.6933,0.665 1.1531,0.8907 0.4595,0.2262 0.9748,0.3399 1.5455,0.3399 0.5879,0 1.0916,-0.0874 1.5091,-0.2657 0.421,-0.1751 0.7608,-0.4172 1.0196,-0.7228 0.2506,-0.2928 0.4371,-0.6355 0.5596,-1.029 0.1227,-0.3962 0.184,-0.8243 0.184,-1.2841 l 0,-0.5159 -5.3277,0 c 0,-0.5023 0.0501,-0.9598 0.1505,-1.3688 0.1,-0.4122 0.2593,-0.771 0.4793,-1.0851 0.2118,-0.3002 0.4873,-0.5369 0.8294,-0.7124 0.3425,-0.1726 0.7521,-0.2607 1.2254,-0.2607 0.4851,0 0.9026,0.1094 1.2535,0.3245 0.3478,0.2152 0.688,0.6035 1.0137,1.1648 l 0.5706,-0.3354 z m -1.8017,2.9274 c 0,0.2922 -0.0249,0.6032 -0.0779,0.9357 -0.0531,0.3322 -0.1338,0.6086 -0.2475,0.832 -0.1259,0.2392 -0.2982,0.4334 -0.5151,0.585 -0.2177,0.1514 -0.4986,0.226 -0.8413,0.226 -0.5712,0 -1.0443,-0.226 -1.4233,-0.6806 -0.379,-0.4547 -0.5819,-1.0874 -0.6156,-1.8981 l 3.7207,0 z" />
      <path
         id="path268"
         style="fill:#1f1917;fill-opacity:1;fill-rule:nonzero;stroke:none"
         d="m 57.4543,200.7493 -2.2666,0 0,0.2282 c 0.0644,0.005 0.1559,0.0111 0.2772,0.0196 0.1208,0.008 0.2056,0.0209 0.2552,0.0385 0.0771,0.0272 0.134,0.0655 0.1706,0.1137 0.0349,0.0482 0.0522,0.1154 0.0522,0.2007 l 0,3.3001 c 0,0.0742 -0.0122,0.1372 -0.0389,0.1873 -0.0255,0.0505 -0.0873,0.0922 -0.1839,0.127 -0.0715,0.0253 -0.1596,0.0494 -0.2673,0.0723 -0.108,0.0219 -0.1959,0.0352 -0.2651,0.0397 l 0,0.2276 2.2666,0 0,-0.2276 c -0.074,-0.002 -0.161,-0.0102 -0.2631,-0.0244 -0.1014,-0.013 -0.1899,-0.0317 -0.2661,-0.0527 -0.0893,-0.0261 -0.15,-0.0675 -0.18,-0.1247 -0.0315,-0.0581 -0.046,-0.1228 -0.046,-0.1928 l 0,-3.2969 c 0,-0.0698 0.0165,-0.1324 0.0508,-0.1874 0.0337,-0.0547 0.0932,-0.0984 0.1752,-0.1301 0.0496,-0.0179 0.1309,-0.036 0.2435,-0.0562 0.1114,-0.0206 0.2066,-0.0314 0.2857,-0.0337 l 0,-0.2282 z" />
      <path
         id="path270"
         style="fill:#1f1917;fill-opacity:1;fill-rule:nonzero;stroke:none"
         d="m 62.0271,200.7493 -1.7118,0 0,0.2118 c 0.0544,0.004 0.1148,0.009 0.1789,0.0133 0.0655,0.004 0.1187,0.013 0.1621,0.0261 0.0658,0.0187 0.1151,0.0524 0.1466,0.1006 0.0328,0.0482 0.0487,0.1108 0.0487,0.1874 l 0,1.6285 c 0,0.2245 -0.0595,0.3974 -0.1754,0.519 -0.1177,0.1216 -0.2603,0.1831 -0.4272,0.1831 -0.1262,0 -0.2413,-0.0176 -0.345,-0.0527 -0.1029,-0.0349 -0.1962,-0.0788 -0.2761,-0.1304 -0.0771,-0.0493 -0.1403,-0.1018 -0.1859,-0.159 -0.046,-0.0567 -0.0803,-0.1018 -0.1004,-0.1355 l 0,-1.821 c 0,-0.0726 0.0153,-0.1329 0.0493,-0.18 0.0326,-0.0471 0.0822,-0.0831 0.1488,-0.1083 0.0497,-0.0218 0.1027,-0.0374 0.1608,-0.0482 0.0584,-0.0107 0.1176,-0.0187 0.1794,-0.0229 l 0,-0.2118 -1.7121,0 0,0.2118 c 0.0544,0.004 0.11,0.009 0.1681,0.0133 0.0581,0.004 0.1077,0.013 0.1513,0.0261 0.0652,0.0187 0.1151,0.0524 0.146,0.1006 0.0332,0.0482 0.0488,0.1108 0.0488,0.1874 l 0,1.9547 c 0,0.0735 -0.017,0.1404 -0.0522,0.2007 -0.0337,0.0613 -0.0822,0.1114 -0.1426,0.1497 -0.0447,0.0255 -0.098,0.0442 -0.1598,0.0561 -0.0618,0.0119 -0.1284,0.0199 -0.1982,0.0241 l 0,0.2084 1.1625,0.0708 0.0499,-0.0447 0,-0.4459 0.0164,0 c 0.057,0.0504 0.1285,0.1128 0.2135,0.1839 0.0845,0.0715 0.1653,0.1304 0.2404,0.1755 0.0881,0.0513 0.1924,0.0944 0.3124,0.1281 0.121,0.0338 0.2565,0.0513 0.4076,0.0513 0.335,0 0.5845,-0.0952 0.7463,-0.2834 0.1625,-0.1897 0.2424,-0.442 0.2424,-0.756 l 0,-1.6467 c 0,-0.076 0.0145,-0.136 0.0434,-0.182 0.028,-0.0462 0.0762,-0.0825 0.1451,-0.1074 0.057,-0.0221 0.1052,-0.036 0.1466,-0.0448 0.0411,-0.009 0.0992,-0.0156 0.1714,-0.0198 l 0,-0.2118 z" />
      <path
         id="path272"
         style="fill:#1f1917;fill-opacity:1;fill-rule:nonzero;stroke:none"
         d="m 66.4605,200.8074 -1.2194,-0.0708 -0.0533,0.045 0,0.2957 -0.0281,0.006 c -0.1233,-0.125 -0.2744,-0.2259 -0.4561,-0.3056 -0.1803,-0.0793 -0.3665,-0.1187 -0.5578,-0.1187 -0.1985,0 -0.3907,0.0408 -0.576,0.121 -0.1849,0.0797 -0.347,0.1928 -0.4839,0.3385 -0.1389,0.1479 -0.2506,0.3251 -0.3314,0.5323 -0.0813,0.2081 -0.1222,0.4371 -0.1222,0.6871 0,0.2288 0.0434,0.4456 0.1304,0.6517 0.0885,0.205 0.2081,0.3844 0.362,0.5392 0.144,0.1437 0.3206,0.2576 0.5301,0.3438 0.2092,0.0856 0.4221,0.1281 0.6401,0.1281 0.1632,0 0.3228,-0.0187 0.4804,-0.0558 0.1571,-0.0383 0.2926,-0.0853 0.4051,-0.1434 l 0,1.1009 c 0,0.0902 -0.0159,0.1724 -0.0496,0.2455 -0.0326,0.0748 -0.0788,0.1307 -0.138,0.169 -0.0664,0.0405 -0.1548,0.0697 -0.2674,0.0887 -0.1122,0.0176 -0.2335,0.0303 -0.3631,0.0394 l 0,0.1993 1.4281,0.0734 0.053,-0.0482 0,-4.2684 c 0,-0.0757 0.0156,-0.1392 0.0485,-0.1919 0.0312,-0.0516 0.0785,-0.0964 0.1403,-0.1324 0.0448,-0.0267 0.1089,-0.0417 0.1948,-0.0482 0.085,-0.006 0.1621,-0.0111 0.2335,-0.0133 l 0,-0.2084 z m -1.2801,0.5559 0,1.8513 c -0.0181,0.0559 -0.0496,0.1154 -0.0918,0.1797 -0.0426,0.0647 -0.0958,0.1228 -0.1599,0.1766 -0.0678,0.0536 -0.1488,0.0987 -0.241,0.1335 -0.0918,0.0349 -0.1995,0.0525 -0.3217,0.0525 -0.1426,0 -0.2735,-0.0326 -0.3917,-0.0995 -0.1199,-0.0655 -0.2251,-0.1613 -0.3169,-0.2852 -0.0888,-0.1202 -0.1577,-0.2724 -0.2084,-0.4575 -0.0507,-0.1854 -0.0762,-0.39 -0.0762,-0.6148 0,-0.1797 0.0195,-0.343 0.0569,-0.4899 0.0374,-0.1468 0.1015,-0.2829 0.1911,-0.4084 0.0836,-0.1208 0.1888,-0.2169 0.3183,-0.2894 0.1281,-0.0723 0.2806,-0.1097 0.4587,-0.1097 0.1885,0 0.3458,0.0382 0.4694,0.1131 0.1247,0.0742 0.2287,0.1576 0.3132,0.2477" />
      <path
         id="path274"
         style="fill:#1f1917;fill-opacity:1;fill-rule:nonzero;stroke:none"
         d="m 70.723,200.8074 -1.1387,-0.0708 -0.053,0.045 0,0.402 -0.0207,0 c -0.0567,-0.0539 -0.1207,-0.1117 -0.1925,-0.1724 -0.0697,-0.0612 -0.1522,-0.1162 -0.244,-0.1655 -0.1066,-0.0578 -0.2095,-0.1018 -0.3084,-0.1312 -0.0998,-0.0304 -0.2401,-0.0448 -0.4213,-0.0448 -0.3101,0 -0.5456,0.0907 -0.7078,0.2735 -0.161,0.1834 -0.2423,0.4493 -0.2423,0.798 l 0,1.5154 c 0,0.0768 -0.0165,0.1411 -0.0482,0.1936 -0.0315,0.0527 -0.0785,0.0986 -0.1403,0.1372 -0.0426,0.0249 -0.0956,0.0436 -0.1585,0.0555 -0.0643,0.0122 -0.1321,0.0199 -0.2021,0.0244 l 0,0.2092 1.1653,0.0765 0.0533,-0.0447 0,-2.1989 c 0,-0.2293 0.0567,-0.4011 0.1704,-0.5173 0.1139,-0.1148 0.2494,-0.1729 0.4079,-0.1729 0.1292,0 0.2455,0.0187 0.3469,0.055 0.1015,0.0357 0.1866,0.0785 0.2554,0.1278 0.0641,0.0448 0.1197,0.093 0.1684,0.1423 0.0485,0.0505 0.0859,0.0978 0.1111,0.1403 l 0,1.7946 c 0,0.0703 -0.0153,0.1327 -0.0496,0.1874 -0.0323,0.055 -0.0785,0.1009 -0.1377,0.1392 -0.0423,0.0264 -0.1052,0.0417 -0.19,0.0471 -0.0836,0.005 -0.1777,0.01 -0.282,0.0144 l 0,0.2092 1.2694,0.0765 0.0532,-0.0447 0,-2.5135 c 0,-0.0732 0.0171,-0.1347 0.0494,-0.1863 0.0337,-0.0513 0.0802,-0.0952 0.1391,-0.1312 0.0426,-0.0244 0.0933,-0.0394 0.1514,-0.0473 0.0593,-0.006 0.1245,-0.012 0.1959,-0.0142 l 0,-0.2084 z" />
      <path
         id="path276"
         style="fill:#1f1917;fill-opacity:1;fill-rule:nonzero;stroke:none"
         d="m 73.6342,202.2999 c 0.0964,-0.0766 0.1718,-0.1653 0.2239,-0.2662 0.0519,-0.1009 0.0771,-0.2237 0.0771,-0.3694 0,-0.2933 -0.1207,-0.5323 -0.3628,-0.7188 -0.2418,-0.1863 -0.5565,-0.2792 -0.9411,-0.2792 -0.2036,0 -0.3912,0.0326 -0.5619,0.0997 -0.1717,0.0658 -0.2939,0.127 -0.3679,0.1829 l -0.0697,-0.2092 -0.2662,0 -0.0354,1.1012 0.2446,0 c 0.0193,-0.0833 0.0592,-0.1808 0.1208,-0.2914 0.0606,-0.1119 0.1357,-0.2128 0.2228,-0.3027 0.0921,-0.0941 0.2032,-0.1726 0.3316,-0.2375 0.1296,-0.0638 0.2736,-0.0964 0.4343,-0.0964 0.2276,0 0.4014,0.047 0.525,0.14 0.1224,0.0933 0.1836,0.2259 0.1836,0.4003 0,0.0895 -0.0189,0.1661 -0.0575,0.2321 -0.0403,0.0658 -0.0969,0.1225 -0.1721,0.1721 -0.0788,0.049 -0.1743,0.093 -0.288,0.1326 -0.1136,0.0392 -0.2392,0.0786 -0.3787,0.1168 -0.1114,0.0312 -0.2347,0.0715 -0.3705,0.1242 -0.1363,0.0524 -0.2525,0.1137 -0.3492,0.1851 -0.104,0.0743 -0.1891,0.1664 -0.2554,0.2747 -0.0666,0.11 -0.0989,0.2378 -0.0989,0.3858 0,0.2588 0.1063,0.4787 0.3192,0.6587 0.2128,0.1798 0.4972,0.2693 0.8543,0.2693 0.1367,0 0.2767,-0.0164 0.4198,-0.0482 0.1429,-0.0328 0.2588,-0.0714 0.3495,-0.1162 l 0.0808,0.1678 0.256,0 0.053,-1.0179 -0.2446,0 c -0.0496,0.2268 -0.1573,0.4108 -0.3217,0.553 -0.1633,0.1429 -0.3643,0.2138 -0.6001,0.2138 -0.1939,0 -0.3462,-0.0437 -0.4576,-0.1313 -0.1114,-0.0876 -0.1672,-0.1939 -0.1672,-0.3177 0,-0.0964 0.0184,-0.1766 0.0558,-0.2413 0.0366,-0.0632 0.091,-0.1182 0.1647,-0.1629 0.0715,-0.0428 0.1596,-0.0831 0.2673,-0.1208 0.1078,-0.0371 0.241,-0.0797 0.3997,-0.1267 0.1559,-0.0451 0.3022,-0.0978 0.44,-0.1571 0.1394,-0.06 0.2531,-0.1269 0.3427,-0.1992" />
      <path
         id="path278"
         style="fill:#1f1917;fill-opacity:1;fill-rule:nonzero;stroke:none"
         d="m 76.7982,200.8877 c -0.1542,-0.0579 -0.2993,-0.1061 -0.4357,-0.1457 -0.1383,-0.0397 -0.305,-0.0601 -0.5034,-0.0601 -0.2928,0 -0.4995,0.0674 -0.6182,0.2015 -0.12,0.1335 -0.1792,0.322 -0.1792,0.5664 l 0,2.1438 -0.6316,0 0,0.3081 0.6449,0 0,0.9851 0.6463,0 0,-0.9851 1.0029,0 0,-0.3081 -0.9969,0 0,-1.7694 c 0,-0.1324 0.0059,-0.2432 0.0167,-0.3319 0.0096,-0.0885 0.0354,-0.1664 0.0763,-0.2322 0.0374,-0.0626 0.0943,-0.1097 0.1695,-0.1411 0.0759,-0.0321 0.1777,-0.0482 0.305,-0.0482 0.0592,0 0.146,0.004 0.2599,0.0141 0.1151,0.01 0.1959,0.0219 0.2435,0.0375 l 0,-0.2347 z" />
      <path
         id="path280"
         style="fill:#1f1917;fill-opacity:1;fill-rule:nonzero;stroke:none"
         d="m 79.9968,203.5071 c 0,-0.1094 -0.03,-0.2057 -0.0881,-0.2914 -0.0596,-0.0844 -0.15,-0.1258 -0.2736,-0.1258 -0.1321,0 -0.2336,0.0306 -0.3024,0.093 -0.0703,0.0615 -0.1052,0.1304 -0.1052,0.2049 0,0.0471 0.0048,0.0902 0.0122,0.1281 0.0082,0.0394 0.0167,0.0777 0.0227,0.1163 -0.1103,0 -0.2407,-0.0403 -0.3895,-0.1216 -0.1488,-0.082 -0.275,-0.1973 -0.379,-0.3473 l 0,-1.8428 c 0,-0.0748 0.0159,-0.1358 0.0476,-0.1823 0.0326,-0.047 0.0822,-0.083 0.1511,-0.106 0.0592,-0.0218 0.1352,-0.0374 0.2288,-0.0482 0.0932,-0.0107 0.174,-0.0187 0.2417,-0.0229 l 0,-0.2118 -1.8428,0 0,0.2118 c 0.0545,0.004 0.11,0.009 0.1684,0.0133 0.0579,0.004 0.1077,0.013 0.1511,0.0261 0.0655,0.0187 0.1148,0.0524 0.1466,0.1006 0.0326,0.0482 0.0484,0.1108 0.0484,0.1874 l 0,1.9547 c 0,0.0669 -0.0173,0.1313 -0.0518,0.1962 -0.0343,0.0646 -0.0828,0.1159 -0.1432,0.1542 -0.0448,0.0255 -0.0981,0.0442 -0.1599,0.0561 -0.0612,0.0119 -0.1278,0.0199 -0.1981,0.0241 l 0,0.2084 1.1628,0.0708 0.0493,-0.0447 0,-0.4459 0.017,0 c 0.1465,0.1732 0.3098,0.3047 0.4901,0.3943 0.1792,0.0898 0.3439,0.1349 0.4927,0.1349 0.1488,0 0.2698,-0.0439 0.3631,-0.1315 0.0927,-0.0876 0.14,-0.2061 0.14,-0.353" />
      <path
         id="path282"
         style="fill:#1f1917;fill-opacity:1;fill-rule:nonzero;stroke:none"
         d="m 82.1673,200.7493 -1.6903,0 0,0.2118 c 0.0544,0.004 0.11,0.009 0.1681,0.0133 0.0584,0.004 0.1077,0.013 0.15,0.0261 0.0669,0.0187 0.1165,0.0524 0.1476,0.1006 0.0318,0.0482 0.0485,0.1108 0.0485,0.1874 l 0,1.9547 c 0,0.0689 -0.0181,0.1313 -0.0519,0.1885 -0.034,0.057 -0.0822,0.1041 -0.1442,0.1426 -0.0445,0.0261 -0.1089,0.0482 -0.1945,0.0658 -0.085,0.0181 -0.1621,0.0295 -0.2339,0.0337 l 0,0.2084 1.2345,0.0708 0.0494,-0.0447 0,-2.5813 c 0,-0.0745 0.0161,-0.1372 0.047,-0.1865 0.0318,-0.0482 0.0825,-0.0853 0.1514,-0.1083 0.0521,-0.0198 0.1029,-0.0351 0.1525,-0.047 0.0496,-0.0108 0.104,-0.0199 0.1658,-0.0241 l 0,-0.2118 z m -0.4462,4.4518 c 0,-0.1213 -0.0436,-0.2279 -0.1332,-0.3186 -0.0884,-0.091 -0.1973,-0.1372 -0.328,-0.1372 -0.1196,0 -0.2248,0.044 -0.3135,0.1304 -0.0881,0.0865 -0.1329,0.1863 -0.1329,0.2971 0,0.1179 0.0448,0.22 0.1329,0.3075 0.0887,0.0879 0.1939,0.1319 0.3135,0.1319 0.1355,0 0.2458,-0.0409 0.3314,-0.1231 0.0862,-0.083 0.1298,-0.1783 0.1298,-0.288" />
      <path
         id="path284"
         style="fill:#1f1917;fill-opacity:1;fill-rule:nonzero;stroke:none"
         d="m 85.8767,201.4946 c -0.1462,-0.2532 -0.3421,-0.4539 -0.5876,-0.6035 -0.246,-0.1503 -0.5292,-0.2248 -0.847,-0.2248 -0.282,0 -0.5278,0.0448 -0.7395,0.1346 -0.2118,0.0902 -0.3858,0.2115 -0.523,0.3662 -0.1364,0.1534 -0.2393,0.3343 -0.307,0.5392 -0.0666,0.2055 -0.1004,0.4226 -0.1004,0.6514 0,0.2052 0.036,0.4068 0.1077,0.6052 0.0723,0.1984 0.1775,0.3756 0.3181,0.5343 0.1343,0.1514 0.3013,0.2741 0.5009,0.3674 0.1998,0.093 0.4237,0.14 0.6718,0.14 0.2551,0 0.4742,-0.036 0.6559,-0.1094 0.1823,-0.0723 0.33,-0.1721 0.4425,-0.2982 0.1089,-0.1202 0.1902,-0.2616 0.2435,-0.4241 0.0533,-0.1629 0.0797,-0.3395 0.0797,-0.5292 l 0,-0.2123 -2.3148,0 c 0,-0.2072 0.0218,-0.3954 0.0655,-0.5644 0.0433,-0.1698 0.1122,-0.3175 0.208,-0.447 0.0921,-0.1239 0.2115,-0.2214 0.3606,-0.2934 0.1488,-0.0714 0.3268,-0.1074 0.5326,-0.1074 0.2104,0 0.3918,0.0448 0.544,0.1335 0.1516,0.0887 0.2993,0.2489 0.4408,0.4799 l 0.2477,-0.138 z m -0.7829,1.2064 c 0,0.1202 -0.0108,0.2486 -0.0335,0.3855 -0.0232,0.1369 -0.0581,0.2511 -0.1077,0.3433 -0.0544,0.0983 -0.1295,0.1783 -0.2239,0.2409 -0.0941,0.0624 -0.2166,0.093 -0.3654,0.093 -0.248,0 -0.4541,-0.093 -0.6182,-0.2806 -0.1644,-0.1871 -0.2532,-0.4482 -0.2676,-0.7821 l 1.6163,0 z" />
      <path
         id="path286"
         style="fill:#1f1917;fill-opacity:1;fill-rule:nonzero;stroke:none"
         d="m 88.7635,202.2999 c 0.097,-0.0766 0.1721,-0.1653 0.224,-0.2662 0.0521,-0.1009 0.0776,-0.2237 0.0776,-0.3694 0,-0.2933 -0.121,-0.5323 -0.3631,-0.7188 -0.2418,-0.1863 -0.5564,-0.2792 -0.9414,-0.2792 -0.2029,0 -0.3909,0.0326 -0.5615,0.0997 -0.1715,0.0658 -0.294,0.127 -0.3677,0.1829 l -0.07,-0.2092 -0.2662,0 -0.0354,1.1012 0.2446,0 c 0.019,-0.0833 0.0596,-0.1808 0.1211,-0.2914 0.0606,-0.1119 0.1352,-0.2128 0.2225,-0.3027 0.0921,-0.0941 0.203,-0.1726 0.3314,-0.2375 0.1295,-0.0638 0.2735,-0.0964 0.4345,-0.0964 0.2276,0 0.4017,0.047 0.525,0.14 0.1225,0.0933 0.184,0.2259 0.184,0.4003 0,0.0895 -0.0193,0.1661 -0.0581,0.2321 -0.04,0.0658 -0.0967,0.1225 -0.1718,0.1721 -0.0788,0.049 -0.1744,0.093 -0.288,0.1326 -0.1137,0.0392 -0.2396,0.0786 -0.3784,0.1168 -0.1115,0.0312 -0.235,0.0715 -0.3705,0.1242 -0.137,0.0524 -0.2529,0.1137 -0.3498,0.1851 -0.1041,0.0743 -0.1885,0.1664 -0.2552,0.2747 -0.0666,0.11 -0.0992,0.2378 -0.0992,0.3858 0,0.2588 0.1063,0.4787 0.3195,0.6587 0.2129,0.1798 0.4972,0.2693 0.8541,0.2693 0.1366,0 0.2772,-0.0164 0.4201,-0.0482 0.1426,-0.0328 0.2588,-0.0714 0.3495,-0.1162 l 0.0811,0.1678 0.2554,0 0.0533,-1.0179 -0.2447,0 c -0.0496,0.2268 -0.1573,0.4108 -0.322,0.553 -0.163,0.1429 -0.3642,0.2138 -0.5998,0.2138 -0.1939,0 -0.3464,-0.0437 -0.4575,-0.1313 -0.1114,-0.0876 -0.167,-0.1939 -0.167,-0.3177 0,-0.0964 0.0182,-0.1766 0.0556,-0.2413 0.0365,-0.0632 0.091,-0.1182 0.1647,-0.1629 0.0714,-0.0428 0.1596,-0.0831 0.2673,-0.1208 0.1077,-0.0371 0.2409,-0.0797 0.3994,-0.1267 0.1562,-0.0451 0.3024,-0.0978 0.4405,-0.1571 0.1392,-0.06 0.2528,-0.1269 0.3421,-0.1992" />
      <path
         id="path288"
         style="fill:#1f1917;fill-opacity:1;fill-rule:nonzero;stroke:none"
         d="m 95.4754,202.1037 -0.1063,-1.3544 -3.9311,0 0,0.2282 c 0.0567,0.005 0.1389,0.0122 0.2466,0.023 0.1077,0.01 0.1829,0.0244 0.2251,0.0414 0.0703,0.0277 0.1222,0.068 0.1536,0.1218 0.0326,0.0539 0.0482,0.1214 0.0482,0.205 l 0,3.2615 c 0,0.0726 -0.013,0.1369 -0.0411,0.1928 -0.0263,0.0561 -0.0808,0.1009 -0.1607,0.1346 -0.0547,0.0255 -0.1307,0.0505 -0.2288,0.076 -0.098,0.0238 -0.1791,0.0383 -0.2429,0.0428 l 0,0.2276 2.1232,0 0,-0.2276 c -0.0664,-0.002 -0.1511,-0.0122 -0.2563,-0.032 -0.1054,-0.0196 -0.1817,-0.0363 -0.2287,-0.0513 -0.0811,-0.0255 -0.1355,-0.0692 -0.1659,-0.1318 -0.0289,-0.0621 -0.0436,-0.1279 -0.0436,-0.1993 l 0,-3.0589 c 0,-0.1411 0.0073,-0.2508 0.0232,-0.3288 0.0153,-0.078 0.0508,-0.138 0.1077,-0.182 0.0545,-0.0383 0.1353,-0.0632 0.243,-0.0743 0.1077,-0.0121 0.2576,-0.0175 0.4515,-0.0175 0.0882,0 0.1789,8e-4 0.2736,0.005 0.0944,0.005 0.1837,0.0133 0.2698,0.0263 0.0819,0.0131 0.1585,0.0306 0.2285,0.0527 0.0692,0.023 0.121,0.0514 0.1534,0.0857 0.0969,0.0983 0.2094,0.2474 0.339,0.4467 0.1284,0.2004 0.218,0.3625 0.2676,0.4864 l 0.2514,0 z" />
      <path
         id="path290"
         style="fill:#1f1917;fill-opacity:1;fill-rule:nonzero;stroke:none"
         d="m 97.6,200.7493 -1.69,0 0,0.2118 c 0.0541,0.004 0.1099,0.009 0.168,0.0133 0.0582,0.004 0.1078,0.013 0.15,0.0261 0.0666,0.0187 0.1159,0.0524 0.1474,0.1006 0.0317,0.0482 0.0482,0.1108 0.0482,0.1874 l 0,1.9547 c 0,0.0689 -0.0176,0.1313 -0.0519,0.1885 -0.0334,0.057 -0.0822,0.1041 -0.1437,0.1426 -0.0448,0.0261 -0.1089,0.0482 -0.195,0.0658 -0.0848,0.0181 -0.1622,0.0295 -0.2336,0.0337 l 0,0.2084 1.2345,0.0708 0.0496,-0.0447 0,-2.5813 c 0,-0.0745 0.0156,-0.1372 0.0471,-0.1865 0.0314,-0.0482 0.0822,-0.0853 0.151,-0.1083 0.0522,-0.0198 0.1029,-0.0351 0.1523,-0.047 0.0498,-0.0108 0.1043,-0.0199 0.1661,-0.0241 l 0,-0.2118 z m -0.4465,4.4518 c 0,-0.1213 -0.0436,-0.2279 -0.1332,-0.3186 -0.0882,-0.091 -0.197,-0.1372 -0.3277,-0.1372 -0.1202,0 -0.2254,0.044 -0.3135,0.1304 -0.0882,0.0865 -0.133,0.1863 -0.133,0.2971 0,0.1179 0.0448,0.22 0.133,0.3075 0.0881,0.0879 0.1933,0.1319 0.3135,0.1319 0.1355,0 0.2455,-0.0409 0.3314,-0.1231 0.0859,-0.083 0.1295,-0.1783 0.1295,-0.288" />
      <path
         id="path292"
         style="fill:#1f1917;fill-opacity:1;fill-rule:nonzero;stroke:none"
         d="m 104.1917,200.7493 -1.7048,0 0,0.2118 c 0.0544,0.004 0.1088,0.009 0.1644,0.0133 0.0558,0.004 0.1052,0.013 0.1477,0.0261 0.0666,0.0187 0.1148,0.0524 0.1465,0.1006 0.0324,0.0482 0.0485,0.1108 0.0485,0.1874 l 0,1.6336 c 0,0.2236 -0.0558,0.3946 -0.1681,0.5162 -0.1128,0.1204 -0.2531,0.1808 -0.4201,0.1808 -0.1162,0 -0.225,-0.0164 -0.3265,-0.0482 -0.1015,-0.0317 -0.195,-0.0771 -0.2798,-0.1349 -0.0689,-0.0471 -0.1256,-0.0975 -0.1715,-0.1519 -0.0476,-0.0553 -0.0814,-0.1001 -0.1057,-0.1372 l 0,-1.8264 c 0,-0.0748 0.0147,-0.1358 0.0425,-0.1842 0.0289,-0.0482 0.0774,-0.0857 0.1454,-0.1106 0.0544,-0.0198 0.104,-0.0343 0.1474,-0.0437 0.0434,-0.009 0.1004,-0.0167 0.1721,-0.0209 l 0,-0.2118 -1.6699,0 0,0.2118 c 0.0544,0.004 0.1077,0.009 0.1584,0.0133 0.0508,0.004 0.0967,0.013 0.1392,0.0261 0.0666,0.0187 0.1148,0.0524 0.1477,0.1006 0.0312,0.0482 0.0473,0.1108 0.0473,0.1874 l 0,1.6336 c 0,0.2236 -0.0558,0.3946 -0.1686,0.5162 -0.1123,0.1204 -0.2515,0.1808 -0.4195,0.1808 -0.1166,0 -0.2243,-0.0164 -0.3257,-0.0493 -0.1015,-0.034 -0.1959,-0.0788 -0.281,-0.1369 -0.0686,-0.0471 -0.1253,-0.0995 -0.1726,-0.159 -0.047,-0.0593 -0.0836,-0.1029 -0.1066,-0.1324 l 0,-1.8145 c 0,-0.0725 0.0156,-0.1338 0.0499,-0.1831 0.0323,-0.0493 0.0817,-0.0865 0.1488,-0.1117 0.0494,-0.0218 0.1001,-0.0374 0.152,-0.0482 0.0521,-0.0107 0.1105,-0.0187 0.1735,-0.0229 l 0,-0.2118 -1.6977,0 0,0.2118 c 0.0544,0.004 0.11,0.009 0.1681,0.0133 0.0578,0.004 0.1077,0.013 0.1513,0.0261 0.0652,0.0187 0.1148,0.0524 0.1466,0.1006 0.0323,0.0482 0.0482,0.1108 0.0482,0.1874 l 0,1.9681 c 0,0.0686 -0.0173,0.1301 -0.0522,0.1851 -0.0337,0.0533 -0.0822,0.1003 -0.1426,0.1392 -0.0447,0.0249 -0.1003,0.0459 -0.1669,0.062 -0.0669,0.0165 -0.1347,0.0267 -0.2058,0.0309 l 0,0.2084 1.1698,0.0708 0.0499,-0.0447 0,-0.4527 0.0238,0 c 0.0596,0.0538 0.1321,0.1165 0.2169,0.1896 0.0848,0.0726 0.1644,0.1315 0.2373,0.1766 0.083,0.0513 0.1862,0.0944 0.3109,0.1281 0.1233,0.0338 0.2574,0.0513 0.4017,0.0513 0.2273,0 0.4221,-0.0558 0.5853,-0.1655 0.1622,-0.1103 0.2795,-0.2432 0.3513,-0.3997 0.0844,0.0757 0.1595,0.1414 0.225,0.1973 0.0638,0.0567 0.15,0.1171 0.2563,0.182 0.0896,0.0558 0.1961,0.1009 0.3172,0.1346 0.1221,0.0338 0.2576,0.0513 0.4065,0.0513 0.2953,0 0.5286,-0.0873 0.7018,-0.263 0.1718,-0.1763 0.2588,-0.4456 0.2588,-0.8096 l 0,-1.6081 c 0,-0.0748 0.0133,-0.1358 0.0423,-0.1842 0.028,-0.0482 0.0762,-0.0857 0.1454,-0.1106 0.0547,-0.0198 0.1077,-0.0343 0.161,-0.0437 0.0533,-0.009 0.1134,-0.0167 0.1789,-0.0209 l 0,-0.2118 z" />
      <path
         id="path294"
         style="fill:#1f1917;fill-opacity:1;fill-rule:nonzero;stroke:none"
         d="m 106.4721,200.7493 -1.6903,0 0,0.2118 c 0.0547,0.004 0.1103,0.009 0.1684,0.0133 0.0581,0.004 0.1077,0.013 0.15,0.0261 0.0666,0.0187 0.1162,0.0524 0.1474,0.1006 0.0317,0.0482 0.0487,0.1108 0.0487,0.1874 l 0,1.9547 c 0,0.0689 -0.0181,0.1313 -0.0524,0.1885 -0.0338,0.057 -0.0819,0.1041 -0.1437,0.1426 -0.0448,0.0261 -0.1089,0.0482 -0.1948,0.0658 -0.0847,0.0181 -0.1618,0.0295 -0.2336,0.0337 l 0,0.2084 1.2342,0.0708 0.0497,-0.0447 0,-2.5813 c 0,-0.0745 0.0158,-0.1372 0.047,-0.1865 0.0318,-0.0482 0.0825,-0.0853 0.1514,-0.1083 0.0519,-0.0198 0.1026,-0.0351 0.1528,-0.047 0.0493,-0.0108 0.1037,-0.0199 0.1652,-0.0241 l 0,-0.2118 z m -0.4461,4.4518 c 0,-0.1213 -0.0434,-0.2279 -0.1336,-0.3186 -0.0878,-0.091 -0.1967,-0.1372 -0.3276,-0.1372 -0.1197,0 -0.2248,0.044 -0.3133,0.1304 -0.0884,0.0865 -0.1329,0.1863 -0.1329,0.2971 0,0.1179 0.0445,0.22 0.1329,0.3075 0.0885,0.0879 0.1936,0.1319 0.3133,0.1319 0.1357,0 0.2457,-0.0409 0.3316,-0.1231 0.0862,-0.083 0.1296,-0.1783 0.1296,-0.288" />
      <path
         id="path296"
         style="fill:#1f1917;fill-opacity:1;fill-rule:nonzero;stroke:none"
         d="m 109.2356,200.8877 c -0.1536,-0.0579 -0.2985,-0.1061 -0.4354,-0.1457 -0.138,-0.0397 -0.3053,-0.0601 -0.5034,-0.0601 -0.2928,0 -0.4998,0.0674 -0.6182,0.2015 -0.1197,0.1335 -0.1792,0.322 -0.1792,0.5664 l 0,2.1438 -0.6316,0 0,0.3081 0.6449,0 0,0.9851 0.646,0 0,-0.9851 1.0032,0 0,-0.3081 -0.9969,0 0,-1.7694 c 0,-0.1324 0.006,-0.2432 0.0167,-0.3319 0.01,-0.0885 0.0352,-0.1664 0.0765,-0.2322 0.0375,-0.0626 0.0944,-0.1097 0.169,-0.1411 0.0765,-0.0321 0.178,-0.0482 0.3053,-0.0482 0.0592,0 0.1462,0.004 0.2599,0.0141 0.1151,0.01 0.1962,0.0219 0.2432,0.0375 l 0,-0.2347 z" />
      <path
         id="path298"
         style="fill:#1f1917;fill-opacity:1;fill-rule:nonzero;stroke:none"
         d="m 112.8631,201.4946 c -0.1465,-0.2532 -0.3424,-0.4539 -0.5882,-0.6035 -0.2455,-0.1503 -0.5286,-0.2248 -0.847,-0.2248 -0.282,0 -0.5272,0.0448 -0.739,0.1346 -0.212,0.0902 -0.3863,0.2115 -0.5229,0.3662 -0.137,0.1534 -0.2399,0.3343 -0.3076,0.5392 -0.0663,0.2055 -0.1001,0.4226 -0.1001,0.6514 0,0.2052 0.0363,0.4068 0.1075,0.6052 0.0728,0.1984 0.178,0.3756 0.3183,0.5343 0.1344,0.1514 0.3016,0.2741 0.5012,0.3674 0.1992,0.093 0.4232,0.14 0.6712,0.14 0.2554,0 0.4742,-0.036 0.6559,-0.1094 0.1829,-0.0723 0.3306,-0.1721 0.4428,-0.2982 0.1091,-0.1202 0.1897,-0.2616 0.2432,-0.4241 0.0533,-0.1629 0.08,-0.3395 0.08,-0.5292 l 0,-0.2123 -2.3151,0 c 0,-0.2072 0.0224,-0.3954 0.0658,-0.5644 0.0436,-0.1698 0.1125,-0.3175 0.208,-0.447 0.0919,-0.1239 0.2118,-0.2214 0.3603,-0.2934 0.1488,-0.0714 0.3269,-0.1074 0.5326,-0.1074 0.2104,0 0.3924,0.0448 0.5446,0.1335 0.1511,0.0887 0.2988,0.2489 0.4405,0.4799 l 0.248,-0.138 z m -0.7829,1.2064 c 0,0.1202 -0.0108,0.2486 -0.034,0.3855 -0.0227,0.1369 -0.0581,0.2511 -0.1077,0.3433 -0.0545,0.0983 -0.1293,0.1783 -0.2237,0.2409 -0.0944,0.0624 -0.2166,0.093 -0.3654,0.093 -0.2483,0 -0.4538,-0.093 -0.6185,-0.2806 -0.1644,-0.1871 -0.2526,-0.4482 -0.2676,-0.7821 l 1.6169,0 z" />
      <path
         id="path300"
         style="fill:#1f1917;fill-opacity:1;fill-rule:nonzero;stroke:none"
         d="m 117.2707,200.8074 -1.2197,-0.0708 -0.0533,0.045 0,0.2957 -0.0275,0.006 c -0.1236,-0.125 -0.2747,-0.2259 -0.4564,-0.3056 -0.1803,-0.0793 -0.3665,-0.1187 -0.5576,-0.1187 -0.1987,0 -0.3909,0.0408 -0.5763,0.121 -0.1851,0.0797 -0.3469,0.1928 -0.4836,0.3385 -0.1394,0.1479 -0.2508,0.3251 -0.3316,0.5323 -0.0814,0.2081 -0.1222,0.4371 -0.1222,0.6871 0,0.2288 0.0434,0.4456 0.1307,0.6517 0.0882,0.205 0.2081,0.3844 0.3617,0.5392 0.1437,0.1437 0.3206,0.2576 0.5298,0.3438 0.2095,0.0856 0.4224,0.1281 0.6403,0.1281 0.1633,0 0.3229,-0.0187 0.4802,-0.0558 0.1574,-0.0383 0.2928,-0.0853 0.4051,-0.1434 l 0,1.1009 c 0,0.0902 -0.0156,0.1724 -0.0493,0.2455 -0.0326,0.0748 -0.0785,0.1307 -0.1378,0.169 -0.0666,0.0405 -0.1548,0.0697 -0.2676,0.0887 -0.1125,0.0176 -0.2336,0.0303 -0.3628,0.0394 l 0,0.1993 1.4275,0.0734 0.0533,-0.0482 0,-4.2684 c 0,-0.0757 0.0156,-0.1392 0.0488,-0.1919 0.0309,-0.0516 0.0782,-0.0964 0.1397,-0.1324 0.0448,-0.0267 0.1091,-0.0417 0.1953,-0.0482 0.0845,-0.006 0.1622,-0.0111 0.2333,-0.0133 l 0,-0.2084 z m -1.2804,0.5559 0,1.8513 c -0.0176,0.0559 -0.0493,0.1154 -0.0916,0.1797 -0.0425,0.0647 -0.0955,0.1228 -0.1598,0.1766 -0.0678,0.0536 -0.1489,0.0987 -0.241,0.1335 -0.0918,0.0349 -0.1995,0.0525 -0.3217,0.0525 -0.1429,0 -0.2733,-0.0326 -0.3918,-0.0995 -0.1201,-0.0655 -0.2253,-0.1613 -0.3172,-0.2852 -0.0884,-0.1202 -0.1573,-0.2724 -0.208,-0.4575 -0.0508,-0.1854 -0.0766,-0.39 -0.0766,-0.6148 0,-0.1797 0.0196,-0.343 0.0573,-0.4899 0.0371,-0.1468 0.1015,-0.2829 0.1908,-0.4084 0.0839,-0.1208 0.189,-0.2169 0.3183,-0.2894 0.1284,-0.0723 0.2809,-0.1097 0.4587,-0.1097 0.1885,0 0.3461,0.0382 0.4694,0.1131 0.1247,0.0742 0.229,0.1576 0.3132,0.2477" />
    </g>
  </g>
</svg>
