<svg height="332.607906" viewBox="0 0 207 229" width="300.654308" xmlns="http://www.w3.org/2000/svg"><g fill="#0f0e9a" transform="matrix(2.8259216 0 0 -2.8259216 -136.786006 2258.363223)"><path d="m0 0c.63 0 1.713.204 2.565 1.569-.487 1.083-.834 3.271-.884 4.067-.251 4.075 1.319 7.908 3.038 8.013 1.259.076 2.267-1.116 2.383-3.047.309-5.077-1.381-7.197-2.227-9.024.143-.709 1.344-1.916 2.479-1.916.419 0 .926.21 1.053.38-.085.292-.17.671-.17 1.219 0 2.942 1.892 5.422 3.531 5.422 1.303 0 2.059-1.723 2.059-2.86 0-1.343-1.135-2.438-2.815-3.489.295-.292.839-.505 1.303-.505 2.397 0 3.652 2.901 4.581 5.55.168.506.463 1.22 1.05 1.22 1.01 0 1.431-6.641 3.108-6.641.716 0 1.304 1.472 1.304 2.604 0 .841-.294.925-.294 2.145 0 1.343.715 2.477 1.683 2.477.588 0 .8-.585.8-1.299 0-2.69-1.935-7.692-4.79-7.692-2.147 0-1.979 3.698-2.735 3.698-.844 0-2.021-3.741-6.178-3.741-.676 0-1.388.336-1.975 1.01-1.008-.674-1.851-.967-2.818-.967-1.553 0-2.226 1.597-2.856 1.597-.758 0-1.596-1.64-4.12-1.64-2.017 0-2.354 2.688-3.066 2.688-.632 0-1.598-2.688-2.648-2.688-1.768 0-2.143 4.665-3.7 4.665-1.219 0-5.07-4.738-6.115-4.63-.421.044-.597.359-.553.779.059.581.559 2.137.763 2.874.34 1.278.652 2.679.826 3.126.173.45.64.772 1.014.737.189-.018.246-.37.304-.66.212-1.039.509-2.099.843-2.099.59 0 2.54 3.741 3.674 3.741 1.389 0 1.556-5.885 3.445-5.885.632 0 1.096.755 1.515 1.682.043 1.558.462 3.78 1.723 3.78.884 0 1.305-1.973.672-3.698 0-2.058 1.344-2.562 2.228-2.562m33.621 5.042c-.521-2.16-2.1-5.338-4.456-5.338-.545 0-1.513.211-1.513.758 0 .589 3.701.67 3.701 3.488 0 1.049-.966 2.522-2.396 2.522-1.891 0-3.736-2.061-3.736-4.919 0-2.562 1.592-3.403 3.188-3.403 2.776 0 4.456 2.272 5.338 4.162.422-1.261.671-4.162 1.725-4.162.419 0 .715.211 1.221 1.344 1.256 2.818 2.476 6.053 4.159 6.053.629 0 .252-1.136 1.765-1.136.713 0 1.215.588 1.215 1.264 0 .967-.881 1.721-2.225 1.721-3.95 0-4.789-5.926-5.42-5.926-1.052 0-.715 4.749-1.473 4.749-.673 0-1.003-.802-1.093-1.177m-27.88 4.426c-.073 1.174-.357 1.704-.988 1.662-.837-.051-1.224-2.685-1.053-5.452.109-1.806.378-2.084.628-2.067.463.027 1.574 3.254 1.413 5.857m-6.835 2.468c-.059.673-.587 1.133-1.302 1.133-.798 0-1.549-.837-1.469-1.889.051-.692.46-1.263 1.262-1.263.922 0 1.594 1.051 1.509 2.019m13.073-8.573c0 .713-.38 1.301-.839 1.301-.382 0-1.262-.418-1.262-1.764 0-1.054.375-1.554.546-1.768 1.217.379 1.555 1.39 1.555 2.231m16.43 1.425c.884 0 1.137-1.046.927-1.678-.212-.63-.967-1.347-2.144-1.557-.253.632-.379 3.235 1.217 3.235m-48.392 2.984c-.121.382-.47 1.241-.566 1.875-.21 1.404.524 2.329 1.198 2.541.757.211 1.052-.168 1.344-1.052.379-1.344.421-3.108.294-5.63-.166-3.447-1.89-7.608-6.176-7.522-3.7.081-5.337 2.478-5.507 6.134-.08 1.723.042 3.445.757 5.883.378 1.304.716 1.768 1.891 2.019.924.168.841-.797.631-1.936-.461-2.521-.674-3.738-.504-6.597.165-3.025 1.555-4.203 3.068-4.203 2.269-.043 3.277 1.848 3.699 4.582.334 2.184.083 3.235-.129 3.906" transform="translate(77.8214 720.1417)"/><path d="m0 0c.291-2.118 3.5-4.973 4.37-4.906.581.05.804 2.766.804 4.906 0 1.226.067 2.186-.58 2.41-1.027-2.075-3.723-2.499-4.594-2.41m.178.937c2.317 0 4.438 1.851 4.438 3.479 0 .759-.358 1.383-1.272 1.494.156-.201.223-.357.223-.713 0-1.227-1.87-2.588-3.901-2.588-.737 0-.96-.512-.96-.78 0-.625.603-.892 1.472-.892m-.49 2.52c-.312 0-.759 0-1.005.49-.201.402-.134 1.049-.513 1.339.379-.111.781-.111 1.094-.111 1.005 0 1.965.691 2.701.691.486 0 .642-.313.642-.624 0-.983-1.981-1.785-2.919-1.785" transform="translate(107.4074 782.5911)"/><path d="m0 0c.757 0 .601 4.639 1.828 4.639.29 0 .379-.29.379-.647 0-1.048-.513-2.587-.513-3.434 0-.424.111-.558.312-.558.536 0 1.472 5.108 2.387 5.108.29 0 .423-.29.423-.581 0-1.07-1.36-4.147-1.36-5.017 0-.133.045-.245.156-.245.558 0 1.673 2.408 2.029 3.612.201.625.469.96.714.96.223 0 .424-.246.424-.759 0-1.204-1.116-4.036-2.096-5.933-.758-1.471-1.94-3.589-1.94-4.771 0-.602.11-1.226.981-1.985-1.428.089-2.008.223-2.542 1.338-2.386-4.75 4.393-4.282 2.073-8.496-.424.757-3.769 1.538-3.769 5.954 0 3.813 3.345 6.043 3.345 7.627 0 .311-.11.579-.401.825-.736.625-.759 1.136-1.337 1.136-.425 0-.938-.98-.403-1.85.179-.29.335-.468.335-.736 0-.624-.982-2.296-1.672-2.296-.691 0-1.226 1.715-1.226 4.482 0 2.453.557 4.928 1.248 4.928.201 0 .268-.134.268-.312 0-.29-.089-.87-.089-1.85 0-1.049.245-1.139.446-1.139" transform="translate(57.2107 768.5641)"/><path d="m0 0c.938 0 1.717.692 1.717 2.229v2.276c0 .869.067 1.85.648 2.542-.067-.29-.067-.603-.067-.892 0-1.918 1.07-3.234 1.07-5.085 0-.69-.201-1.07-.735-1.07-.514 0-.469.469-.581.469-.089 0-.223-.29-.223-.603 0-.468.335-1.204 1.271-1.204.804 0 1.45.736 1.45 1.561 0 2.006-1.561 4.237-1.561 6.377 0 .938.245 1.562.446 2.053 0-4.439 3.769-7.672 3.769-9.522 0-.424-.312-.759-.78-.759-.514 0-.759.402-.759.715 0 .156-.023.2-.089.2-.133 0-.535-.446-.535-1.027 0-.735.601-1.628 1.717-1.628 1.27 0 1.962 1.072 1.962 2.03 0 2.341-4.572 5.887-4.572 9.678 0 .647.111 1.695.58 2.498-2.944-1.895-3.857-4.416-3.857-6.624 0-1.918-.067-2.875-1.048-2.875-.514 0-.647.467-.826.467-.134 0-.201-.401-.201-.512 0-.825.603-1.294 1.204-1.294" transform="translate(62.8963 762.0309)"/><path d="m0 0c.982 0 1.719.446 1.719.714 0 .088-.134.156-.425.156-.29 0-.87.022-1.964.2-.938.157-1.652.513-1.92.513-.089 0-.134-.044-.134-.111 0-.58 1.072-1.472 2.724-1.472m-4.861 2.832c.283.19 1.539-.111 3.165.692.2.111.401.156.579.156.782 0 .58-.892 1.296-.892.557 0 1.272.469 1.696.469.665 0 1.624-2.097 1.624-3.078 0-1.138-1.713-1.829-3.745-1.829-2.963 0-4.75 2.586-4.75 4.259 0 .134.068.179.135.223" transform="translate(101.5443 784.3086)"/><path d="m0 0c-.735-.179-1.918-1.337-1.918-3.168 0-2.185 2.342-5.553 6.2-5.553 3.255 0 4.058 2.252 4.058 3.77 0 3.368-2.073 5.732-4.771 5.732-1.472 0-2.788-1.072-2.788-2.654 0-1.473 1.115-3.68 3.769-3.68 1.249 0 1.984.892 1.984 1.917 0 1.004-.914 2.386-2.252 2.386-.402 0-.691-.266-.691-.69 0-.535.736-1.071 1.65-1.071.223 0 .401.044.491.089.044-.067.067-.179.067-.268 0-.513-.492-.826-1.249-.826-1.137 0-2.231.848-2.231 2.188 0 .801.692 1.381 1.695 1.381 1.985 0 3.167-1.761 3.167-3.524 0-1.582-.869-2.498-2.653-2.498-3.569 0-5.308 3.212-4.528 6.469" transform="translate(63.365 753.6239)"/><path d="m0 0c0-.491.402-.892.892-.892.491 0 .892.401.892.892s-.401.893-.892.893c-.49 0-.892-.402-.892-.893m1.729-4.457c1.069 0 1.014.089 1.349.089.334 0 .357-.201.357-.335 0-.491-1.094-1.094-3.033-1.094-1.138 0-1.829.603-2.03 1.272-1.114-.713-2.809-1.36-4.482-1.36-4.571 0-5.731 1.986-7.158 2.631-1.094.491-2.766-.469-5.107 2.141.312-.067.736-.09 1.071-.09 2.05 0 3.143 1.003 3.143 2.61 0 .201-.022.421-.045.621.625-.245 2.053-1.314 2.387-3.208.045-.224.959-.424 1.538-.424.804 0 1.83.335 1.985 1.649 2.677.223 4.484 1.806 4.863 3.815.958-.313 2.05-1.183 2.318-1.63.379.134.825.201 1.338.201.713 0 1.517-.134 2.475-.425.045.291.09.648.536.648.669 0 .49-.736.713-1.158.112-.223.671-.357.671-.803 0-.425-.359-.581-.581-.581-.09 0-.201.022-.269.044-.445-.156-.467-3.366-2.341-3.366-1.382 0-2.653 1.137-3.211 2.563-.157.424-.49.692-.803.692-.356 0-.557-.067-.98-.536-1.204-1.314-3.212-2.451-5.687-2.451-.759 0-1.36.067-1.517.067-.089 0-.089-.022-.089-.044 0-.157.758-.76 2.409-.76 3.924 0 4.884 2.209 5.508 2.209.089 0 .356 0 .512-.357.914-2.139 2.911-2.63 4.16-2.63" transform="translate(87.0924 745.0145)"/><path d="m0 0c-.468 0-3.059-3.457-4.727-3.457-.402 0-.736.759-.736 1.336 0 .313.199.536.915.692 3.834.871 2.986 3.748 6.262 3.748 1.806 0 3.815-1.227 3.815-3.993 0-2.944-4.19-6.6-4.815-6.6-.514 0-1.071.735-1.071 1.226 0 .155.067.357.513.535 2.138.849 3.364 2.81 3.364 3.815 0 .223-.111.443-.402.443-.378 0-2.002-3.7-3.81-3.7-1.25 0-2.522 1.136-2.522 1.672 0 .892 3.615 2.542 3.615 3.792 0 .469-.222.491-.401.491m2.405 1.382c-.312 0-.646-.246-.646-.849 0-.667.513-1.091.803-1.225.156-.089.402-.179.645-.179.648 0 1.161.179 1.161.715 0 .689-1.004 1.538-1.963 1.538" transform="translate(102.3477 754.7618)"/><path d="m0 0c0-.491.402-.893.893-.893.49 0 .891.402.891.893 0 .49-.401.892-.891.892-.491 0-.893-.402-.893-.892m-1.159 2.007c0-.49.401-.892.891-.892.491 0 .893.402.893.892s-.402.892-.893.892c-.49 0-.891-.402-.891-.892m-.803-6.11c-.514-.134-1.583-.759-1.583-1.873 0-.803.623-1.316 1.405-1.316.401 0 .691.089.869.223-.624.602-.847 1.271-.847 1.939 0 .469.067.759.156 1.027m-5.463-.313c-.022-.112-.022-.223-.022-.334 0-1.048.557-1.628 1.293-1.628.556 0 1.204.335 1.783 1.071-.245-.044-.535-.066-.803-.066-.824 0-1.716.221-2.251.957m-.781-1.984c0-1.695.513-2.498 1.427-2.498.714 0 1.673.513 2.809 1.494-.869-.201-1.538-.334-2.14-.334-.803 0-1.426.312-2.096 1.338m5.776 8.92c.111.357.2.802.2 1.293 0 1.07-.491 2.699-2.007 2.699-.869 0-1.495-.691-1.495-1.517 0-1.762 1.762-2.475 3.302-2.475m-1.897-5.62c-.735 0-1.538.914-1.538 1.739 0 .446.334 1.004.58 1.004.089 0 .134-.067.156-.224.134-1.092.847-1.717 1.517-2.028.067-.045.111-.067.111-.112 0-.156-.424-.379-.826-.379m2.053 2.721c.154-.21.58-.469.58-.625 0-.312-.179-.714-.536-.714-.781 0-1.405 1.182-1.405 1.852 0 .423.246.467.579.467.157 0 .223-.022.335-.089.201-.111.201-.557.447-.891m-5.24-2.766c-.042-.069-.067-.156-.067-.246 0-.2.223-.423.423-.423.179 0 .29.044.379.044.535 0 1.137-.378 2.007-.378.512 0 1.115.156 1.873.534 1.605.804 2.231 2.788 2.231 3.123 0 .424-.341.369-.626.759-.284.388-.175.733-.356.914-.104.104-.423.111-.826.156-.134.015-.312.022-.49.022-.736 0-1.608-.09-2.587-.714-1.935-1.234-1.65-3.278-1.961-3.791m7.403.892c-.491-.579-1.004-1.561-1.004-2.564 0-1.204.737-2.207 1.874-2.207 1.092 0 1.605.936 1.605 1.894 0 1.494-1.36 2.543-2.475 2.877m-4.772 4.282s-.648-.49-1.45-.49c-.958 0-1.717.713-1.717 1.716 0 .692.357 1.405 1.182 1.762-.022-.134-.022-.245-.022-.379 0-1.271.713-2.23 2.007-2.609" transform="translate(63.0973 781.9675)"/><path d="m0 0c0-.514.425-.938.932-.938.514 0 .938.424.938.938 0 .512-.424.935-.938.935-.507 0-.932-.423-.932-.935m.067-2.81c0-.581.469-1.049 1.045-1.049.58 0 1.049.468 1.049 1.049 0 .579-.469 1.047-1.049 1.047-.576 0-1.045-.468-1.045-1.047m-3.213-1.896c0-.847.691-1.539 1.54-1.539.847 0 1.54.692 1.54 1.539s-.693 1.539-1.54 1.539c-.849 0-1.54-.692-1.54-1.539m.825 3.144c0-.491.401-.892.893-.892.491 0 .892.401.892.892 0 .49-.401.892-.892.892-.492 0-.893-.402-.893-.892m-2.92-1.784c0-.491.402-.891.888-.891.492 0 .894.4.894.891s-.402.892-.894.892c-.486 0-.888-.401-.888-.892m2.295 5.217c0-.78.647-1.426 1.428-1.426.782 0 1.429.646 1.429 1.426 0 .782-.647 1.428-1.429 1.428-.781 0-1.428-.646-1.428-1.428m1.674 2.744c0-.468.379-.847.848-.847.469 0 .849.379.849.847s-.38.848-.849.848-.848-.38-.848-.848m-4.035-2.141c0-.469.379-.848.843-.848.469 0 .848.379.848.848 0 .468-.379.847-.848.847-.464 0-.843-.379-.843-.847m-.112-2.898c0-.759.603-1.361 1.356-1.361.759 0 1.363.602 1.363 1.361 0 .757-.604 1.359-1.363 1.359-.753 0-1.356-.602-1.356-1.359m-2.811-1.428c0-.692.579-1.27 1.271-1.27.691 0 1.272.578 1.272 1.27 0 .691-.581 1.271-1.272 1.271-.692 0-1.271-.58-1.271-1.271m.758 3.144c0-.49.402-.892.891-.892.492 0 .894.402.894.892s-.402.892-.894.892c-.489 0-.891-.402-.891-.892m7.829-6.868c0 .446.402.825.843.825.492 0 .871-.379.871-.825 0-.513-.379-.87-.871-.87-.441 0-.843.357-.843.87" transform="translate(97.5309 776.594)"/><path d="m0 0c.112 0 .246-.066.246-.469 0-.49-.223-1.136-1.022-1.649-.558-.379-1.317-.692-2.433-.712.178.534.312 1.092.312 1.625 0 .179-.021.313-.044.513h.291c1.762 0 2.522.692 2.65.692m.179 2.208c.181.153.223.401.223.647v.513c0 .647-.977 1.025-2.317 1.025-1.629 0-2.499-.734-2.499-1.047v-1.027c0-.424.982-.848 2.187-.848.96 0 1.831.245 2.406.737m1.16-.246c-.58-.447-1.936-1.448-4.191-1.448-1.205 0-1.741.379-1.92.379-.223 0-.469-.223-.714-.514-.53-.625-1.222-1.785-1.222-3.055 0-.892.692-1.781 1.981-1.781 4.174 0 7.294 2.608 7.294 4.725 0 1.203-.713 1.694-1.228 1.694" transform="translate(98.4633 745.3718)"/><path d="m0 0c0-.557.179-1.204.737-1.204.468 0 .87.713.87 1.494 0 .892-.156 1.584-.156 1.941 0 .155.067.222.156.222.335-.022.648-.936 1.005-.936.402 0 1 .736 1.245.736.067 0 .089-.089.089-.111 0-.335-.513-1.072-.513-1.361 0-.245 1.294-.29 1.294-.513 0-.335-1.356-.335-2.003-.625-.625-.267-1.005-.602-1.005-1.048s.446-.534 1.072-.534c1.49 0 2.538.802 2.872.802.067 0 .111-.045.111-.112 0-.223-.758-.958-.758-1.293 0-.379 1.384-.824 1.362-1.047-.022-.067-.112-.089-.268-.089-.246 0-.625.066-.916.066-.178 0-.334-.022-.402-.111-.154-.179.045-1.36-.265-1.36-.291 0-1.05 2.63-2.763 2.63-.246 0-.424-.2-.424-.535 0-.891.87-1.917 1.696-2.408.374-.245 1-.491 1-.625 0-.266-1.424-.022-1.424-.467 0-.402.179-1.005.179-1.361 0-.112-.023-.245-.157-.245-.267 0-.915 1.226-1.228 1.226-.267 0-.847-.735-1.094-.735-.066 0-.11.067-.11.132 0 .514.825 1.673.825 2.811 0 .535-.067 1.695-.715 1.695-.535 0-1.138-.847-1.406-1.695-.156-.49-.044-2.386-.401-2.386-.335 0-.246 1.271-.693 1.271-.329 0-1.043-.602-1.289-.602-.044 0-.089.023-.089.067 0 .267.647 1.137.647 1.316 0 .334-1.473.378-1.473.646 0 .156.58.268 1.116.357 1.134.201 2.808 1.026 2.808 2.184 0 1.294-1.251 1.852-2.071 2.388-.425.267-.893.489-.893.668s.536.179.759.179c.334 0 .665.022.665.289 0 .202-.046.602-.046.914 0 .224.023.403.113.403.334 0 .803-1.093 1.026-1.093.357 0 .848.892 1.184.892.11 0 .155-.068.155-.268 0-.825-.424-1.761-.424-2.565m-10.637 6.534c.246-1.895 2.79-.936 2.79-3.233 0-.335-.089-.826-.089-1.248 0-.492.044-.916.419-.916.379 0 .469.268.469.625 0 .358-.09.803-.09 1.048 0 .781.558.959.893.959.849 0 1.496-.87 2.768-.87-.29-1.427-3.237-1.047-3.237-2.609 0-.781.782-.958 1.295-.958.469 0 .626.067.626.467 0 .224-.046.469-.046.625 0 .09.068.179.18.179.491 0 2.896-1.829 2.896-2.387 0-.512-2.54-1.025-3.276-1.025-.223 0-.268.156-.268.245 0 .156.379.625.379.892 0 .2-.334.334-1.228.334-.424 0-.736-.044-.736-.38 0-.601.982-1.337.982-1.894 0-.446-.268-.714-.982-.714-.603 0-1.513.469-1.513 1.249 0 .624.643 1.248.643 1.627 0 .112-.085.291-.353.291-.826 0-1.049-2.185-3.972-2.43.469.423.87.891.87 1.849 0 .469-.111.849-.111 1.361 0 .669.312 1.004.758 1.004.825 0 1.226-1.159 1.763-1.159.291 0 .603.266.603.668 0 1.695-3.258 1.45-3.258 3.836 0 .647.222 1.449.825 2.564" transform="translate(100.5839 766.0889)"/><path d="m0 0c0-.312.223-.558.536-.558.357 0 .581.313.581.67 0 .467-.425 1.115-.827 1.115-.179 0-.111-.268-.157-.558-.022-.222-.133-.49-.133-.669m-1.16 2.966c2.343-.446 3.615-2.208 3.615-3.858 0-1.138-.714-2.184-1.964-2.184-1.138 0-1.959.779-1.959 2.029 0 .936.731 1.917.731 2.876 0 .379-.111.758-.423 1.137m-2.964-3.792c.222-.221.29-.445.29-.668 0-.335-.156-.692-.156-1.071 0-.534.401-1.003.98-1.003.626 0 1.051.492 1.051 1.069 0 .848-.873 1.673-2.165 1.673m7.383 1.427c.156-.243.223-.489.223-.712 0-.625-.424-1.204-.424-1.852 0-.736.558-1.337 1.402-1.337.915 0 1.54.735 1.54 1.605 0 1.182-1.071 2.185-2.741 2.296m-6.848 1.184c1.027-.134 1.273-.491 1.273-.782 0-.49-.447-.645-.872-.645-.312 0-.669.066-1.048.066-.491 0-.981-.111-1.383-.58.29-.045.714-.245.714-.692 0-1.293-3.591-.222-3.591-3.546 0-1.761 1.829-3.68 4.594-3.68 1.429 0 2.344.469 2.344 1.005 0 .423-.758.134-.758.491 0 .156.267.447.267.692 0 .109-.089.31-.267.31-.403 0-1.161-.645-2.701-.645-1.204 0-2.386.69-2.386 1.627 0 .2.089.313.223.313s.312-.09.468-.09c.135 0 .157.09.157.335s0 .937.423.937c.424 0 1.227-1.562 4.307-1.562 1.022 0 3.008.201 3.745.87-.023-2.453-1.942-5.686-5.955-5.686-4.17 0-6.401 3.346-6.401 6.423 0 3.412 2.787 6.51 6.602 6.51.98 0 1.807-.333 1.807-.757 0-.581-1.45-.224-1.562-.914" transform="translate(94.183 758.1284)"/><path d="m0 0c1.472 0 2.14-1.271 2.14-2.698 0-.624-.177-1.539-.467-1.539s-.246.513-.29.982c-.045.601-.156.735-.357.735-.38 0-.624-.891-.624-1.717 0-.512.089-1.093.49-1.093.223 0 .424.112.557.246-.089-1.026-.848-1.919-1.918-1.919-1.962 0-2.698 2.298-2.921 3.636-1.182-1.249-2.274-2.164-4.237-2.164-1.828 0-2.654 1.338-2.654 2.609 0 .38.134 1.361.603 1.361.557 0 .067-1.828 1.159-1.828.268 0 .758.223 1.026.958.156.447.246.914.246 1.316 0 .603-.134.981-.579.981-.38 0-.849-.289-1.005-.445.536 1.606 1.829 2.431 3.255 2.431 1.763 0 2.699-1.562 2.699-3.301 0-.245-.023-.513-.067-.758.758 1.249 1.807 2.207 2.944 2.207m-1.718-2.631c0 .379-.089.468-.178.468-.223 0-.468-.268-.825-.87.045-.803.179-1.16.402-1.16.244 0 .601.782.601 1.562m-3.055-.914c.245 0 .558.268 1.138.914.045.29.045.558.045.892 0 .446-.179.937-.446.937-.67 0-1.004-1.785-1.004-2.254 0-.266.133-.489.267-.489m3.636-1.986c.557 0 1.181 2.142 1.181 3.48 0 .29-.044.602-.178.602-.469 0-1.249-2.208-1.249-3.412 0-.469.112-.67.246-.67m-5.463 1.227c.758 0 1.626 4.103 1.626 4.795 0 .179-.066.313-.222.313-.691 0-1.65-3.903-1.65-4.773 0-.157.045-.335.246-.335" transform="translate(76.1656 785.3788)"/><path d="m0 0c-.959 0-1.003-1.161-1.003-3.501-.713 1.538-1.895 3.188-3.278 3.188-.936 0-1.293-.625-1.293-1.716 0-.224.022-.559.067-.758.111.378.469.534.914.534.959 0 2.119-.735 2.877-1.739-.87.156-1.718.312-2.431.312-.446 0-.848-.045-1.182-.201-.647-.289-1.517-1.248-1.517-2.698 0-.223.023-.468.068-.736.78 1.74 2.854 2.52 4.192 2.52.268 0 .468-.022.624-.044-.691-.624-.847-1.718-.892-2.453-.022-.357-.156-.38-.401-.38 0-.735.58-1.829.58-2.386 0-.2-.112-.379-.223-.424 0-.981.981-1.695.981-2.319 0-.156-.045-.29-.112-.357.067-.402 1.146-1.077 1.286-1.415.171-.411.364-.481.476-.481.379 0 .98.447.98.848 0 .134-.111.29-.199.357-.424.312-.648.981-.826 1.427-.157 0-.359.066-.429.328-.122.462-.128 1.322-.307 1.836-.29.066-.424.178-.424.779 0 .291.179 1.428.179 1.83-.134 0-.312.089-.312.357 0 .713.714 1.271.914 2.185 1.272-.936 1.583-1.895 1.583-2.743 0-.445-.067-.87-.156-1.272.937.469 2.342 1.16 2.342 2.565 0 .826-.379 1.74-2.899 2.097.78.29 1.762.445 2.587.445 1.427 0 2.252-.445 2.43-1.448.29.445.514.959.514 1.426 0 1.094-.916 1.807-2.075 1.807-1.36 0-2.564-.713-3.858-1.584.581 1.204.981 1.918 1.695 1.918.112 0 .224-.023.335-.045-.268.981-1.271 1.941-1.807 1.941" transform="translate(71.9949 779.3808)"/><path d="m0 0c1.116 0 2.008-1.45 2.008-3.145 0-1.805-.848-3.768-2.36-5.105-.023 3.009-3.707 2.05-3.707 4.236 0 .936.67 1.561 1.474 1.561.715 0 1.272-.201 1.674-.603-.402.379-.603.915-.603 1.427 0 .849.536 1.629 1.514 1.629" transform="translate(109.5688 763.3025)"/><path d="m0 0c-.179.29-.844.445-1.156.445-.983 0-1.652-.691-1.786-1.316-.089.224-.157.491-.157.759 0 .981.67 2.185 2.3 2.185 1.424 0 1.981-.758 2.183-.758.222 0 .446.224.625.224.245 0 .245-.38.245-.648 0-.891-.401-2.43-1.406-2.988-.179.38-.536.803-1.112 1.07-.156.067-.223.201-.223.335 0 .245.223.558.487.692m-3.366-1.628c.58-.558 1.092-.803 1.717-.803.247 0 .537.066.694.066.2 0 .334-.088.334-.244 0-.246-.223-.647-.491-.871.268-.111.558-.156.871-.156 1.267 0 2.718.804 2.718 2.81.268-.356.425-1.093.425-1.427 0-2.431-1.786-3.367-3.433-3.367-1.072 0-1.608.357-1.743.357-.422 0-.4-.848-.69-.826-.514.089-.981 1.227-.981 2.431 0 .714.178 1.472.579 2.03" transform="translate(93.0228 786.1155)"/><path d="m0 0c0 .134-.669.268-1.583.268-1.449 0-1.249-1.205-2.363-1.205-1.16 0-.871 1.25-2.343 1.25-.892 0-1.716-.157-1.716-.357 0-.268 1.048-.157 1.048-.893 0-.78-2.252-1.004-2.252-1.472 0-.155.177-.222.4-.222.491 0 1.271.222 1.829.222.313 0 .603-.066.603-.356 0-.558-1.205-1.562-1.205-2.008 0-.134.111-.179.223-.179.446 0 1.204 1.138 1.918 1.138 1.182 0 .402-2.52 1.048-2.52.67 0 .38 2.476 1.338 2.476.782 0 1.361-1.717 1.896-1.717.134 0 .246.111.246.268 0 .467-.67 1.427-.67 2.051 0 .379.268.558.625.558.512 0 1.204-.312 1.582-.312.134 0 .268.044.268.2 0 .535-1.984 1.115-1.984 1.806 0 .692 1.092.692 1.092 1.004m5.241-2.275c0-.401 1.405-1.271 2.052-1.271.378 0 .49.513.49 1.049 0 .668-.289.69-.87.69-.735 0-1.672-.201-1.672-.468m2.32-4.415c0 1.338-3.619 3.768-3.658 4.816-.004.096.048.191.129.277.62.653 3.194 1.13 3.194 1.687 0 .289-.536.289-.804.289-2.073 0-5.106-.758-5.106-1.494 0-.759 2.72-2.61 2.72-3.524 0-.246-.156-.335-.402-.335-.757 0-2.408.915-3.188.915-.357 0-.491-.245-.491-.602 0-1.071 1.271-3.1 1.271-3.701 0-.067-.022-.156-.111-.156-.402 0-2.296 2.229-2.966 2.229-.245 0-.267-.334-.267-.825v-.758c0-.513-.023-.825-.267-.825-.58 0-.849 1.628-1.405 1.628-.58 0-.692-2.899-1.249-2.899-.647 0-.089 3.189-.714 3.189-.691 0-1.472-2.119-1.963-2.119-.178 0-.222.179-.222.335 0 .646.378 1.694.378 2.318 0 .313-.089.491-.356.491-.692 0-2.209-1.115-2.788-1.115-.089 0-.2.045-.2.134 0 .535 2.43 2.23 2.43 2.988 0 .737-3.346.245-3.346 1.093 0 .713 2.388 1.45 2.388 2.185 0 .648-2.833.937-3.925.937-1.317 0-2.029-.155-2.029-.535 0-.58 2.988-.759 2.988-1.271 0-.491-3.1-1.806-3.1-2.564 0-.67 4.37-.045 4.37-.737 0-.758-3.812-4.035-3.812-5.128 0-.246.179-.357.423-.357 1.16 0 4.169 2.207 4.995 2.207.29 0 .313-.356.313-.668 0-.581-.201-1.472-.201-2.119 0-.513.134-.87.579-.87.826 0 1.584 1.405 2.141 1.405.713 0 .291-4.125 1.361-4.125.914 0 1.293 4.46 1.872 4.46.581 0 1.05-1.294 1.584-1.294.669 0 .357 2.252 1.071 2.252.78 0 3.009-2.676 4.014-2.676.311 0 .422.246.422.559 0 1.181-1.649 3.856-1.649 4.704 0 .223.066.29.311.29.871 0 3.413-1.204 4.617-1.204.402 0 .648.223.648.513m-20.362 1.293c0-.446-1.694-1.939-2.295-1.939-.223 0-.29.267-.29.512 0 .445.2 1.07.446 1.271.289.268.958.4 1.471.4.311 0 .668-.065.668-.244m16.391-2.297c0-.78 2.788-4.593 3.323-4.593.447 0 .78.78.78 1.45 0 .177-.044.355-.132.49-.402.557-3.234 2.787-3.859 2.787-.068 0-.112-.067-.112-.134" transform="translate(70.5679 798.6702)"/><path d="m0 0c0-.311.245-.556.558-.556.312 0 .558.245.558.556 0 .313-.246.558-.558.558-.313 0-.558-.245-.558-.558m-3.634-4.928c0 1.584-3.788 1.985-3.788 2.342 0 .289 2.116.781 3.208.803-1.672 2.14-4.056 1.917-4.056 2.296 0 .224 1.785.67 3.433.67 1.382 0 2.676-.312 2.676-1.36 0-.581-.468-1.183-.468-2.075 0-.491.244-.914.893-.914.692 0 .848.736.848 1.517 0 .646-.112 1.137-.112 1.449 0 .937.643 1.561 1.558 1.561.759 0 .937-.334 2.053-.334-.603-.357-.825-1.005-.825-1.316 0-.937.603-1.584.603-3.502 0-3.522-3.3-4.771-7.338-4.771-1.111 0-2.294.089-3.455.267-.178.022-.223.067-.223.178 0 .291 1.585.447 1.585 1.873 0 .558-.179 1.093-.179 1.294 0 .111.089.178.179.178.335 0 1.005-1.293 2.25-1.293.332 0 1.158.112 1.158 1.137m3.767 2.252c0-1.984-1.445-3.501-4.058-3.924.291-.022.559-.022.827-.022 3.053 0 4.169 1.382 4.169 2.541 0 .647-.357 1.227-.938 1.405" transform="translate(109.9702 797.7327)"/><path d="m0 0c.357 1.115.804 1.896 1.535 3.1-.731.378-2.673 1.182-2.673 2.498 0 1.538 1.919 2.742 2.316 2.742.178 0 .223-.156.223-.446 0-.802-.379-2.096-.379-2.787 0-.624.402-1.227.759-1.227.379 0 1.428 1.338 1.428 2.654 0 2.365-2.076 3.078-2.718 3.078-.603 0-1.696-.981-4.262-.981-4.793 0-5.887 4.748-5.887 6.823 0 .089.022.112.044.112.112 0 .581-.581 2.098-.581.781 0 1.495.201 2.634.201 2.672 0 3.855-1.852 5.507-4.214.999-.624 3.388-1.628 3.388-4.46 0-2.498-2.657-3.881-3.299-6.556 1.022.11 1.625 1.94 2.673 1.94.536 0 .782-.424.782-1.094 0-.98-.558-2.453-1.63-3.367.023.09.023.201.023.335 0 .624-.245 1.515-.96 1.515-1.111 0-1.469-1.203-2.093-2.206-.647 2.273-1.518 4.326-3.078 5.575-1.58 1.271-4.304.58-4.304 2.899 0 .625.402 1.516.402 2.23 0 .245-.045.468-.179.647 2.143-.804 1.384-2.23 2.701-3.702.821-.937 3.096-1.829 4.414-5.687.021.112.044.401.044.602 0 3.301-4.369 6.535-4.748 7.873 2.538-.29 2.984-.915 4.19-4.26.245-.692 1.049-2.409 1.049-3.256m-.58 10.816c0 .468-1.184.512-1.295 1.828-.023.201-.089.557-.335.557-.402 0-.09-1.226-.536-1.226-1.025 0-1.359 2.007-1.739 2.007-.09 0-.196-.067-.196-.335 0-.245.045-.402.045-.69 0-.291-.067-.491-.335-.491-.603 0-1.138 1.404-1.652 1.404-.112 0-.223-.067-.223-.178 0-.268.446-.758.446-1.004 0-.535-1.45-.245-1.45-.691 0-.201.2-.267.468-.267.469 0 1.206.2 1.585.2.223 0 .558-.045.558-.334 0-.312-.803-.713-.803-1.003 0-.134.134-.2.245-.2.603 0 1.669 1.047 2.428 1.047.133 0 .467-.067.467-.268 0-.289-.757-.801-.757-1.225 0-.112.067-.246.201-.246.399 0 .935 1.048 1.694 1.048.291 0 .715-.112.938-.112.179 0 .246.112.246.179" transform="translate(108.5688 766.3125)"/><path d="m0 0c.358 0 .425-.871.493-1.383.044-.268.089-.29.201-.29.268 0 .691 1.026.977 1.026.423 0 1.562-1.182 3.459-1.182 2.697 0 5.241 1.896 5.241 5.24 0 3.233-2.277 5.129-5.42 5.129-1.494 0-2.589-.736-3.169-.736-.352-.022-.888.869-1.156.869-.111 0-.223-.222-.223-.601 0-.246 0-1.026-.268-1.026-.537 0-2.61 1.538-2.61.981 0-.513 1.382-2.074 1.382-2.475 0-.402-1.36-.781-1.36-1.049 0-.49 1.45-.579 1.45-1.204 0-.624-1.517-1.115-1.517-1.584 0-.378 1.517-.111 1.517-.579s-1.115-2.029-1.115-2.474c0-.112.022-.112.111-.112.423 0 1.694 1.45 2.007 1.45m.649 3.656c0 .245-.872.713-.872.981 0 .044.044.067.112.067.246 0 .67-.09 1.005-.09.291 0 .335 1.249.554 1.249.155 0 .423-1.182.67-1.182.289 0 .824.335 1.048.335.045 0 .089-.022.089-.067 0-.156-.558-.757-.558-.936 0-.201 1.25-.446 1.25-.625 0-.223-1.272-.201-1.272-.402 0-.155.469-.78.469-.98 0-.045-.023-.068-.067-.068-.179 0-.871.313-1.072.313-.245 0-.642-.914-.843-.914-.067 0-.111.089-.111.201l-.046.892c0 .089-.043.178-.155.178-.268 0-.782.023-.939.023-.112 0-.156.022-.156.066 0 .179.894.803.894.959m4.347-4.237c-1.562 0-2.589.78-2.589 1.182 0 .201.134.334.313.334.491 0 1.562-.757 1.919-.757.089 0 .156.044.156.178 0 .402-.379 1.07-.379 1.404 0 .089.067.156.201.156.602 0 1.496-.246 1.965-.246.155 0 .199.09.199.179 0 .491-1.45 1.45-1.45 1.74 0 .268 1.803.67 1.803 1.092 0 .447-2.451.135-2.451.558 0 .313.469.848.469 1.093 0 .112-.089.156-.245.156-.201 0-1.272-.424-1.718-.424-.224 0-.492.045-.492.357 0 .514.871 1.071 2.232 1.071 2.205 0 3.523-1.517 3.523-4.059 0-3.211-2.251-4.014-3.456-4.014" transform="translate(91.3742 790.4869)"/><path d="m0 0c0-.201-.067-.425-.246-.647-.244.446-.936.67-1.249.669-2.296 0-1.427-3.323-3.88-3.323-1.025 0-1.115.134-1.494.134-.156 0-.245-.067-.245-.201 0-.581.825-2.007 3.122-2.007s4.505 1.404 4.505 3.146c0 .289-.067.599-.201.912.089.134.313.223.514.223.356 0 .557-.402.891-.402.358 0 .625.268.625.625 0 .29-.156.491-.424.626.179.133.312.357.312.602 0 .379-.267.734-.714.734-.201 0-.334-.067-.49-.221-.044.4-.267.779-.691.779-.335 0-.581-.245-.581-.625 0-.354.246-.645.246-1.024" transform="translate(81.2725 751.3269)"/><path d="m0 0c-.669 0-1.673.714-1.673 1.116 0 .335.313.514.557.514.558 0 1.561-.692 1.561-1.272 0-.157-.112-.358-.445-.358m-6.222 4.995c1.784-.444 2.676-1.403 2.854-2.542.179-1.091.402-1.984.825-2.43.558-.626 1.65-1.181 2.61-1.181.803 0 1.448.265 1.448 1.002 0 .803-1.092 2.609-2.698 2.609-.155 0-.356-.023-.579-.023-.201 0-.491.045-.67.201-.356.313-.467 1.986-1.137 2.989-.735 1.115-1.538 1.428-2.63 1.428-.78 0-1.651-.424-1.651-1.049 0-.379.201-.646 1.628-1.004" transform="translate(75.2738 750.4785)"/><path d="m0 0c0 1.003-2.075 1.025-2.075 2.542 0 .38.246 1.026.737 1.718.201-1.16.669-1.762 1.673-2.142 1.984-.735 2.252-1.85 2.252-3.033 0-2.008-1.405-4.505-5.017-4.505-2.9 0-4.974 2.587-4.974 4.772 0 .603.156 1.272.535 1.272.335 0 .447-.267.713-.535 1.005-1.004 2.097-1.271 3.681-1.271 1.427 0 2.475.579 2.475 1.182m.089-1.606c-.765-.35-1.07-.29-1.07-1.072 0-.289-.067-.667-.067-.868 0-.267.045-.424.356-.424.804 0 2.075 1.36 2.075 2.52 0 .313-.179.445-.38.445-.179 0-.378-.356-.914-.601m-7.114 11.261c0 1.428 3.39 2.186 3.39 3.948 0 .29-.111.802-.312 1.182 1.182-.647 2.051-1.741 2.051-2.632 0-1.539-1.605-2.252-1.605-3.212 0-1.115 1.717-1.293 1.717-2.676 0-1.136-1.629-2.452-1.629-3.924 0-1.137.804-2.073 2.03-2.229-.401-.09-.758-.157-1.137-.157-2.253 0-4.572 1.85-4.572 4.059 0 1.093.469 2.05 1.182 2.742.625-.535 1.249-.892 1.65-.892.357 0 .514.178.514.446 0 .826-3.279 1.583-3.279 3.345" transform="translate(80.2467 758.1957)"/><path d="m0 0c.094-.762.804-1.339 1.606-1.25.289.032.558.112.737.223.178-.713.777-1.172 1.586-1.066.821.107 1.38.754 1.291 1.58-.024.222-.067.357-.134.513 0 0 .109.011.191.027.805.152 1.348.798 1.281 1.579-.089.802-.809 1.398-1.56 1.306-.29-.036-.559-.146-.738-.303-.201.668-.83 1.25-1.689 1.107-.775-.128-1.288-.786-1.21-1.62.012-.135.044-.29.111-.445 0 0-.131-.02-.221-.033-.651-.097-1.357-.752-1.251-1.618m4.167.877c.055-.466-.278-.886-.744-.941-.465-.054-.887.28-.94.745-.055.466.278.888.744.942.466.055.887-.279.94-.746" transform="translate(60.2869 756.8351)"/></g></svg>