<?xml version="1.0" encoding="UTF-8" standalone="no"?>
<svg
   xmlns:dc="http://purl.org/dc/elements/1.1/"
   xmlns:cc="http://creativecommons.org/ns#"
   xmlns:rdf="http://www.w3.org/1999/02/22-rdf-syntax-ns#"
   xmlns:svg="http://www.w3.org/2000/svg"
   xmlns="http://www.w3.org/2000/svg"
   xmlns:sodipodi="http://sodipodi.sourceforge.net/DTD/sodipodi-0.dtd"
   xmlns:inkscape="http://www.inkscape.org/namespaces/inkscape"
   width="700"
   height="700"
   version="1.1"
   id="svg3801"
   sodipodi:docname="3.5_Mongolian_road_sign.svg"
   inkscape:version="0.92.3 (2405546, 2018-03-11)">
  <metadata
     id="metadata3807">
    <rdf:RDF>
      <cc:Work
         rdf:about="">
        <dc:format>image/svg+xml</dc:format>
        <dc:type
           rdf:resource="http://purl.org/dc/dcmitype/StillImage" />
      </cc:Work>
    </rdf:RDF>
  </metadata>
  <defs
     id="defs3805" />
  <sodipodi:namedview
     pagecolor="#ffffff"
     bordercolor="#666666"
     borderopacity="1"
     objecttolerance="10"
     gridtolerance="10"
     guidetolerance="10"
     inkscape:pageopacity="0"
     inkscape:pageshadow="2"
     inkscape:window-width="1920"
     inkscape:window-height="1017"
     id="namedview3803"
     showgrid="true"
     inkscape:zoom="0.95571428"
     inkscape:cx="350"
     inkscape:cy="335.63815"
     inkscape:window-x="-8"
     inkscape:window-y="-8"
     inkscape:window-maximized="1"
     inkscape:current-layer="svg3801">
    <inkscape:grid
       type="xygrid"
       id="grid1405" />
  </sodipodi:namedview>
  <path
     style="opacity:1;fill:#ffffff;fill-opacity:1;stroke:none"
     d="M 205.0252,352.36218 0,557.38746 l 0,289.94945 205.02521,205.02529 289.94937,0 L 700,847.33704 700,557.38751 494.97478,352.36218 z"
     transform="translate(0,-352.36218)"
     id="path3795" />
  <path
     style="fill:none;stroke:#000000;stroke-width:2;stroke-linecap:butt;stroke-linejoin:miter;stroke-opacity:1;opacity:1;stroke-miterlimit:4;stroke-dasharray:none"
     d="M 1,494.56083 1,205.43974 205.4393,1.0000026 l 289.12127,0 L 699,205.43951 699,494.5606 494.56066,699 205.43967,699 z"
     id="path3797" />
  <path
     style="fill:#ff0000;fill-opacity:1;stroke:none"
     d="M 213.3125,20 20,213.3125 v 273.375 L 213.3125,680 h 273.375 L 680,486.6875 V 213.3125 L 486.6875,20 Z"
     id="path3799"
     inkscape:connector-curvature="0"
     sodipodi:nodetypes="ccccccccc" />
  <path
     style="fill:#ffffff;stroke-width:0.46760267;fill-opacity:1"
     d="m 92.820489,442.11098 c -18.332292,-1.87913 -37.000186,-9.08869 -51.861966,-20.02937 -2.16236,-1.59185 -2.848335,-2.35687 -2.627956,-2.93103 0.163954,-0.42734 4.111563,-5.86942 8.772445,-12.09359 l 8.474296,-11.3166 3.624302,3.354 c 9.141939,8.46018 21.813108,13.82132 36.150883,15.29524 13.117327,1.34847 23.246717,-1.48083 30.201617,-8.43564 6.02442,-6.02442 8.20821,-14.28668 6.2771,-23.74914 -1.91881,-9.40231 -7.59381,-16.11121 -16.36935,-19.35149 -2.53081,-0.93452 -3.8411,-1.03832 -15.27659,-1.21077 l -12.508402,-0.18864 v -6.19913 c 0,-3.40946 -0.136497,-9.04545 -0.303309,-12.52431 l -0.30339,-6.32523 11.876551,-0.24371 c 12.75744,-0.26178 14.89282,-0.59916 19.06572,-3.01217 6.44939,-3.72951 11.28105,-11.67943 11.28105,-18.56132 0,-7.90641 -5.1041,-16.36152 -11.96892,-19.82687 -4.99039,-2.51909 -8.01165,-3.09691 -16.08725,-3.07654 -10.724103,0.027 -18.904378,1.81243 -27.505965,6.00318 -5.300671,2.58254 -7.909819,4.33075 -11.387943,7.63016 l -2.6547,2.51834 -2.981498,-4.59787 C 46.685666,287.78399 43.616,282.92806 43.775987,282.78256 c 1.415199,-1.28719 9.099323,-5.75404 14.219534,-8.26605 24.842224,-12.18765 52.889899,-14.07742 72.143219,-4.8608 5.74681,2.75105 8.94878,4.91666 13.12358,8.87592 4.20195,3.98513 6.90103,7.6923 9.38811,12.89461 3.20157,6.69676 3.93372,10.2338 3.96174,19.13823 0.0206,6.64869 -0.12087,8.21877 -1.02508,11.35595 -2.16886,7.52493 -6.38351,14.06019 -12.11804,18.79029 -3.28178,2.707 -9.7249,6.28324 -13.1435,7.29534 l -2.00738,0.59427 4.62795,1.51418 c 15.42665,5.04727 25.1191,15.01502 28.69905,29.51421 1.38266,5.59962 1.48034,15.69092 0.19839,20.48163 -5.27473,19.7121 -22.34703,35.37 -44.00627,40.36037 -7.25312,1.67113 -17.90303,2.36941 -25.016801,1.64027 z m 171.376381,0.0412 c -16.88811,-2.41686 -27.52841,-7.35493 -37.66147,-17.47791 -15.51942,-15.50434 -24.29583,-41.35338 -24.29583,-71.55835 0,-43.85175 17.78582,-76.05254 47.46161,-85.92827 7.09655,-2.36163 12.5388,-3.15004 21.74351,-3.15004 9.20479,0 14.64704,0.78841 21.74359,3.15004 21.16784,7.04441 36.47428,25.34544 43.30648,51.77919 3.57677,13.83842 4.89967,30.2716 3.67517,45.65434 -3.37686,42.42179 -23.13633,70.06091 -54.66323,76.46133 -4.31488,0.87596 -17.89867,1.55781 -21.30983,1.06967 z m 16.36611,-28.7376 c 6.01736,-1.8481 9.40763,-3.97134 14.4957,-9.07846 8.01259,-8.04274 12.53745,-17.84725 15.33023,-33.2174 0.8808,-4.84793 1.01952,-7.29693 1.01952,-18.00274 0,-10.70581 -0.13872,-13.15475 -1.01952,-18.00269 -2.79278,-15.37014 -7.31764,-25.17464 -15.33023,-33.21737 -7.40327,-7.43102 -13.89583,-10.24895 -23.61399,-10.24895 -9.71809,0 -16.21064,2.81793 -23.6139,10.24895 -8.0126,8.04273 -12.53754,17.84723 -15.33025,33.21737 -0.88087,4.84794 -1.01952,7.29688 -1.01952,18.00269 0,10.70581 0.13865,13.15481 1.01952,18.00274 2.78811,15.34461 7.30408,25.13855 15.33159,33.25001 4.12006,4.16324 5.20631,4.98048 9.11821,6.86007 2.44249,1.17356 5.59827,2.35878 7.01274,2.63383 1.4145,0.27506 2.99261,0.59749 3.50701,0.71645 2.13912,0.4948 9.95275,-0.20014 13.09289,-1.1645 z m 311.65719,28.53738 c -23.82571,-3.31337 -40.59201,-16.34523 -50.97989,-39.62512 -3.88396,-8.70396 -6.51993,-18.60273 -8.24836,-30.97433 -1.14625,-8.20487 -1.14625,-28.26815 0,-36.47302 2.3179,-16.59095 6.4259,-29.24901 13.10058,-40.367 9.57889,-15.95564 22.89032,-25.46114 41.16912,-29.39837 6.36486,-1.37097 20.34283,-1.48716 26.64319,-0.22151 18.34735,3.68575 31.68054,13.47121 41.81247,30.68685 2.88461,4.90142 7.28558,14.4954 6.85181,14.93708 -0.15197,0.15476 -6.52121,2.61917 -14.15366,5.47644 -11.85489,4.43794 -13.92448,5.08529 -14.20168,4.44224 -0.1784,-0.41407 -1.09752,-2.75182 -2.0426,-5.19501 -4.82135,-12.46532 -12.15059,-19.97656 -22.18204,-22.73279 -2.19007,-0.60173 -4.67288,-0.83011 -8.88452,-0.81724 -4.96577,0.0151 -6.38422,0.19579 -9.43,1.20084 -16.68346,5.50528 -27.51914,22.73625 -30.28916,48.16579 -0.63534,5.83194 -0.63534,18.28645 0,24.11836 2.77002,25.42955 13.6057,42.6605 30.28916,48.16584 3.04578,1.005 4.46423,1.1857 9.43,1.20086 4.21164,0.0127 6.69445,-0.21555 8.88452,-0.81724 10.03145,-2.75628 17.36069,-10.26748 22.18204,-22.7328 0.94508,-2.4432 1.8642,-4.78094 2.0426,-5.19504 0.2772,-0.64304 2.34679,0.008 14.20168,4.44224 7.63245,2.85723 14.00169,5.32172 14.15366,5.47646 0.43377,0.44163 -3.9672,10.03567 -6.85181,14.93709 -9.92655,16.8667 -23.01737,26.67493 -40.58456,30.40772 -5.0949,1.0826 -17.94391,1.58265 -22.91255,0.89166 z m -203.8748,-88.83571 v -85.1037 h 53.3143 53.31415 l -0.12436,12.7422 -0.12444,12.74214 -38.2265,0.11963 -38.2265,0.11967 v 72.24185 72.24185 h -14.96329 -14.96336 z"
     id="path920"
     inkscape:connector-curvature="0"
     sodipodi:nodetypes="ccccccccccscsccccsccscccccccscccccsccccccssscsscccsccsccscsssccccsccssssssccccccccccccccccsccccccccccccccc" />
</svg>
