<?xml version="1.0" encoding="UTF-8"?>
<svg width="182.27mm" height="128.15mm" viewBox="0 0 182.27 128.15" xmlns="http://www.w3.org/2000/svg">
<g transform="translate(-13.474 -28.251)" stroke-linecap="round" stroke-linejoin="round">
<path transform="scale(1 -1)" d="m13.474-156.4h182.27v128.15h-182.27z" fill="#01a0c7" stroke-width="9.8449"/>
<g fill="#fff" stroke-width=".1">
<path d="m19.061 54.761c35.868 3.1468 60.066-5.2079 92.787-12.03 30.938-6.4504 47.187-7.7258 78.005 12.844-30.317-5.7802-45.268-1.8359-87.346 6.478-16.412 3.2427-28.902 7.2383-40.506 7.8988-14.859 0.84578-34.623-7.1502-42.94-15.191z"/>
<path d="m19.736 126.47c35.151 6.819 60.066-2.6746 92.787-9.4966 30.938-6.4504 41.899-10.369 78.005 13.731-27.15-6.7935-56.089-2.1735-86.966 6.5414-5.8052 1.6384-26.481 6.2522-40.886 6.2522-12.784 0-34.623-8.9868-42.94-17.028z"/>
<path d="m145.12 62.372c-14.734-0.02059-29.38 3.8948-44.885 6.9463-32.087 6.3153-50.427 13.032-80.501 5.3676 5.6077 10.779 24.406 18.932 42.116 17.923 0.79516-0.04526 1.5974-0.09995 2.405-0.16071l5.1186 11.375c-12.381 2.3069-24.622 3.1825-50.315 1.4934 9.1544 8.1192 32.198 16.2 49.909 15.192 11.604-0.66048 16.631-2.1304 34.234-6.0348 45.886-10.178 57.229-12.24 86.65-7.3551-13.82-14.321-29.934-17.804-46.703-17.023l-5.1981-11.552c22.084-4.1735 30.851-3.646 52.576 0.49609-15.852-12.692-30.673-16.648-45.407-16.669zm-26.293 20.131 4.5258 10.058c-7.9832 1.4601-15.97 3.2964-23.792 4.8359-4.1141 0.80972-7.7644 1.5857-11.127 2.3229l-4.4602-9.9126c5.9683-1.0686 12.509-2.4147 19.904-4.038 5.5702-1.2227 10.378-2.2755 14.949-3.266z"/>
</g>
</g>
</svg>
