<?xml version="1.0" encoding="UTF-8" standalone="no"?>
<!-- Created with Inkscape (http://www.inkscape.org/) -->

<svg
   xmlns:dc="http://purl.org/dc/elements/1.1/"
   xmlns:cc="http://creativecommons.org/ns#"
   xmlns:rdf="http://www.w3.org/1999/02/22-rdf-syntax-ns#"
   xmlns:svg="http://www.w3.org/2000/svg"
   xmlns="http://www.w3.org/2000/svg"
   xmlns:xlink="http://www.w3.org/1999/xlink"
   xmlns:sodipodi="http://sodipodi.sourceforge.net/DTD/sodipodi-0.dtd"
   xmlns:inkscape="http://www.inkscape.org/namespaces/inkscape"
   version="1.1"
   id="svg2"
   width="324"
   height="216"
   viewBox="0 0 324 216"
   sodipodi:docname="Flag of Kagoshima Prefecture (symbol).svg"
   inkscape:version="0.92.3 (2405546, 2018-03-11)">
  <metadata
     id="metadata8">
    <rdf:RDF>
      <cc:Work
         rdf:about="">
        <dc:format>image/svg+xml</dc:format>
        <dc:type
           rdf:resource="http://purl.org/dc/dcmitype/StillImage" />
        <dc:title></dc:title>
      </cc:Work>
    </rdf:RDF>
  </metadata>
  <defs
     id="defs6">
    <linearGradient
       id="linearGradient4145">
      <stop
         style="stop-color:#302888;stop-opacity:1"
         offset="0"
         id="stop4147" />
      <stop
         style="stop-color:#20c0ff;stop-opacity:1"
         offset="1"
         id="stop4149" />
    </linearGradient>
    <linearGradient
       xlink:href="#linearGradient4145"
       id="linearGradient4151"
       x1="3918.32"
       y1="3921.44"
       x2="3918.32"
       y2="3605.59"
       gradientUnits="userSpaceOnUse"
       gradientTransform="matrix(0.95080832,0,0,0.94372768,-354.66173,269.97033)" />
    <linearGradient
       inkscape:collect="always"
       xlink:href="#linearGradient4145"
       id="linearGradient1119"
       gradientUnits="userSpaceOnUse"
       x1="3918.32"
       y1="3921.44"
       x2="3918.32"
       y2="3605.59"
       gradientTransform="matrix(0.95080832,0,0,0.94372768,-354.66173,269.97033)" />
    <linearGradient
       inkscape:collect="always"
       xlink:href="#linearGradient4145"
       id="linearGradient1121"
       gradientUnits="userSpaceOnUse"
       x1="3918.32"
       y1="3921.44"
       x2="3918.32"
       y2="3605.59"
       gradientTransform="matrix(0.95080832,0,0,0.94372768,-354.66173,269.97033)" />
    <linearGradient
       inkscape:collect="always"
       xlink:href="#linearGradient4145"
       id="linearGradient1123"
       gradientUnits="userSpaceOnUse"
       x1="3918.32"
       y1="3921.44"
       x2="3918.32"
       y2="3605.59"
       gradientTransform="matrix(0.95080832,0,0,0.94372768,-354.66173,269.97033)" />
    <linearGradient
       inkscape:collect="always"
       xlink:href="#linearGradient4145"
       id="linearGradient1125"
       gradientUnits="userSpaceOnUse"
       x1="3918.32"
       y1="3921.44"
       x2="3918.32"
       y2="3605.59"
       gradientTransform="matrix(0.95080832,0,0,0.94372768,-354.66173,269.97033)" />
  </defs>
  <sodipodi:namedview
     pagecolor="#ffffff"
     bordercolor="#666666"
     borderopacity="1"
     objecttolerance="10"
     gridtolerance="10"
     guidetolerance="10"
     inkscape:pageopacity="0"
     inkscape:pageshadow="2"
     inkscape:window-width="1920"
     inkscape:window-height="1017"
     id="namedview4"
     showgrid="false"
     inkscape:zoom="1.7530864"
     inkscape:cx="155.43339"
     inkscape:cy="108.7636"
     inkscape:window-x="-8"
     inkscape:window-y="-8"
     inkscape:window-maximized="1"
     inkscape:current-layer="svg2" />
  <g
     id="layer1"
     transform="matrix(1.0799999,0,0,1.08,-4059.6653,-4019.1551)"
     style="stroke-width:0.92592597">
    <rect
       id="rect4172"
       width="300.00006"
       height="200"
       x="3758.95"
       y="3721.4399"
       style="fill:#ffffff;stroke-width:0.92592597" />
    <g
       id="g4137"
       transform="matrix(0.4316526,0,0,0.43489117,2215.751,2184.7189)"
       style="fill:url(#linearGradient4151);stroke-width:0.94726133">
      <path
         style="fill:url(#linearGradient1119);stroke-width:0.94726133"
         id="path4224"
         d="m 4071.47,3623.48 c -47.35,34.34 -83.68,3.16 -100.89,-17.89 l -62.09,38.03 c 44.79,45.78 114.42,51.16 162.97,-20.14 z"
         inkscape:connector-curvature="0" />
      <path
         style="fill:url(#linearGradient1121);stroke-width:0.94726133"
         id="path4226"
         d="m 4040.75,3661.05 c -63.2,58.74 -126.11,29.81 -159.16,-0.97 l -62.09,38.03 c 51.02,46.42 148.51,67.59 221.26,-37.06 z"
         inkscape:connector-curvature="0" />
      <path
         style="fill:url(#linearGradient1123);stroke-width:0.94726133"
         id="path4228"
         d="m 4012.61,3883.93 c -30.97,-17.7 -70.83,-58.12 -119.26,-88.08 -34.63,-21.43 -80.52,-28.15 -134.4,1.21 42.98,-0.3 91.11,38.44 129.55,68.71 31.89,25.11 65.38,49.04 85.06,53.88 16.48,4.05 21.13,0.78 26.94,-5.45 5.55,-5.95 23.31,-28.15 23.31,-28.15 0,0 -5.55,1.11 -11.2,-2.12 z"
         inkscape:connector-curvature="0" />
      <path
         style="fill:url(#linearGradient1125);stroke-width:0.94726133"
         id="path4230"
         d="m 3967.21,3745.9 c -51.46,-19.07 -107.76,6.96 -138.94,21.49 52.67,-10.29 97.16,9.38 119.56,24.21 22.92,15.18 81.42,59.83 85.96,63.46 4.54,3.63 10.8,3.43 14.73,-1.51 l 29.16,-36.53 c -12.62,-13.52 -60.72,-52.69 -110.48,-71.13 z"
         inkscape:connector-curvature="0" />
    </g>
  </g>
</svg>
