<?xml version="1.0" encoding="UTF-8" standalone="no"?>
<!-- Created with Inkscape (http://www.inkscape.org/) -->

<svg
   xmlns:dc="http://purl.org/dc/elements/1.1/"
   xmlns:cc="http://creativecommons.org/ns#"
   xmlns:rdf="http://www.w3.org/1999/02/22-rdf-syntax-ns#"
   xmlns:svg="http://www.w3.org/2000/svg"
   xmlns="http://www.w3.org/2000/svg"
   xmlns:sodipodi="http://sodipodi.sourceforge.net/DTD/sodipodi-0.dtd"
   xmlns:inkscape="http://www.inkscape.org/namespaces/inkscape"
   version="1.1"
   width="100%"
   height="100%"
   viewBox="0 0 208.17 53.150623"
   id="svg2"
   inkscape:version="0.48.2 r9819"
   sodipodi:docname="AJAX3.svg">
  <sodipodi:namedview
     pagecolor="#ffffff"
     bordercolor="#666666"
     borderopacity="1"
     objecttolerance="10"
     gridtolerance="10"
     guidetolerance="10"
     inkscape:pageopacity="0"
     inkscape:pageshadow="2"
     inkscape:window-width="1280"
     inkscape:window-height="1004"
     id="namedview317"
     showgrid="false"
     inkscape:zoom="3.6430141"
     inkscape:cx="66.765883"
     inkscape:cy="-8.2244219"
     inkscape:window-x="-8"
     inkscape:window-y="-8"
     inkscape:window-maximized="1"
     inkscape:current-layer="svg2"
     fit-margin-top="0"
     fit-margin-left="0"
     fit-margin-right="0"
     fit-margin-bottom="0"
     showguides="true"
     inkscape:guide-bbox="true" />
  <metadata
     id="metadata8">
    <rdf:RDF>
      <cc:Work
         rdf:about="">
        <dc:format>image/svg+xml</dc:format>
        <dc:type
           rdf:resource="http://purl.org/dc/dcmitype/StillImage" />
        <dc:title></dc:title>
      </cc:Work>
    </rdf:RDF>
  </metadata>
  <defs
     id="defs6">
    <clipPath
       id="clipPath220">
      <path
         d="m 0,0 595.276,0 0,841.89 L 0,841.89 0,0 z"
         id="path222"
         inkscape:connector-curvature="0" />
    </clipPath>
    <clipPath
       id="clipPath244">
      <path
         d="m 0,0 595.276,0 0,841.89 L 0,841.89 0,0 z"
         id="path246"
         inkscape:connector-curvature="0" />
    </clipPath>
    <clipPath
       id="clipPath504">
      <path
         d="m 440.788,528.662 58.15,0 0,63.886 -58.15,0 0,-63.886 z"
         id="path506"
         inkscape:connector-curvature="0" />
    </clipPath>
    <clipPath
       id="clipPath564">
      <path
         d="m 167.953,459.481 62.363,0 0,36.85 -62.363,0 0,-36.85 z"
         id="path566"
         inkscape:connector-curvature="0" />
    </clipPath>
    <clipPath
       id="clipPath682">
      <path
         d="m 167.953,459.481 62.363,0 0,36.85 -62.363,0 0,-36.85 z"
         id="path684"
         inkscape:connector-curvature="0" />
    </clipPath>
    <clipPath
       id="clipPath732">
      <path
         d="m 435.827,468.507 62.362,0 0,36.851 -62.362,0 0,-36.851 z"
         id="path734"
         inkscape:connector-curvature="0" />
    </clipPath>
    <clipPath
       id="clipPath860">
      <path
         d="m 34.016,406.772 62.363,0 0,36.85 -62.363,0 0,-36.85 z"
         id="path862"
         inkscape:connector-curvature="0" />
    </clipPath>
    <clipPath
       id="clipPath1118">
      <path
         d="m 167.953,406.772 62.363,0 0,36.85 -62.363,0 0,-36.85 z"
         id="path1120"
         inkscape:connector-curvature="0" />
    </clipPath>
    <clipPath
       id="clipPath1168">
      <path
         d="m 167.953,406.772 62.363,0 0,36.85 -62.363,0 0,-36.85 z"
         id="path1170"
         inkscape:connector-curvature="0" />
    </clipPath>
    <clipPath
       id="clipPath2652">
      <path
         d="m 301.89,406.772 62.362,0 0,36.85 -62.362,0 0,-36.85 z"
         id="path2654"
         inkscape:connector-curvature="0" />
    </clipPath>
    <clipPath
       id="clipPath3618">
      <path
         d="m 435.827,406.772 62.362,0 0,36.85 -62.362,0 0,-36.85 z"
         id="path3620"
         inkscape:connector-curvature="0" />
    </clipPath>
    <clipPath
       id="clipPath3780">
      <path
         d="m 0,0 595.276,0 0,841.89 L 0,841.89 0,0 z"
         id="path3782"
         inkscape:connector-curvature="0" />
    </clipPath>
    <clipPath
       id="clipPath3800">
      <path
         d="m 0,0 595.276,0 0,841.89 L 0,841.89 0,0 z"
         id="path3802"
         inkscape:connector-curvature="0" />
    </clipPath>
    <clipPath
       id="clipPath3820">
      <path
         d="m 0,0 595.276,0 0,841.89 L 0,841.89 0,0 z"
         id="path3822"
         inkscape:connector-curvature="0" />
    </clipPath>
    <clipPath
       id="clipPath3840">
      <path
         d="m 0,0 595.276,0 0,841.89 L 0,841.89 0,0 z"
         id="path3842"
         inkscape:connector-curvature="0" />
    </clipPath>
    <clipPath
       id="clipPath3860">
      <path
         d="m 0,0 595.276,0 0,841.89 L 0,841.89 0,0 z"
         id="path3862"
         inkscape:connector-curvature="0" />
    </clipPath>
    <clipPath
       id="clipPath3880">
      <path
         d="m 0,0 595.276,0 0,841.89 L 0,841.89 0,0 z"
         id="path3882"
         inkscape:connector-curvature="0" />
    </clipPath>
    <clipPath
       id="clipPath3930">
      <path
         d="m 167.953,335.039 62.363,0 0,39.685 -62.363,0 0,-39.685 z"
         id="path3932"
         inkscape:connector-curvature="0" />
    </clipPath>
    <clipPath
       id="clipPath3966">
      <path
         d="m 301.89,335.039 62.362,0 0,39.685 -62.362,0 0,-39.685 z"
         id="path3968"
         inkscape:connector-curvature="0" />
    </clipPath>
    <clipPath
       id="clipPath4000">
      <path
         d="m 34.016,285.165 62.363,0 0,39.686 -62.363,0 0,-39.686 z"
         id="path4002"
         inkscape:connector-curvature="0" />
    </clipPath>
    <clipPath
       id="clipPath4298">
      <path
         d="m 167.953,285.165 62.363,0 0,39.686 -62.363,0 0,-39.686 z"
         id="path4300"
         inkscape:connector-curvature="0" />
    </clipPath>
    <clipPath
       id="clipPath4334">
      <path
         d="m 167.953,285.165 62.363,0 0,39.686 -62.363,0 0,-39.686 z"
         id="path4336"
         inkscape:connector-curvature="0" />
    </clipPath>
    <clipPath
       id="clipPath4620">
      <path
         d="m 301.89,285.165 62.362,0 0,39.686 -62.362,0 0,-39.686 z"
         id="path4622"
         inkscape:connector-curvature="0" />
    </clipPath>
    <clipPath
       id="clipPath4632">
      <path
         d="m 301.89,285.165 62.362,0 0,39.686 -62.362,0 0,-39.686 z"
         id="path4634"
         inkscape:connector-curvature="0" />
    </clipPath>
    <clipPath
       id="clipPath4930">
      <path
         d="m 435.827,285.165 62.362,0 0,39.686 -62.362,0 0,-39.686 z"
         id="path4932"
         inkscape:connector-curvature="0" />
    </clipPath>
    <clipPath
       id="clipPath5206">
      <path
         d="m 0,0 595.276,0 0,841.89 L 0,841.89 0,0 z"
         id="path5208"
         inkscape:connector-curvature="0" />
    </clipPath>
    <clipPath
       id="clipPath5226">
      <path
         d="m 0,0 595.276,0 0,841.89 L 0,841.89 0,0 z"
         id="path5228"
         inkscape:connector-curvature="0" />
    </clipPath>
    <clipPath
       id="clipPath5246">
      <path
         d="m 0,0 595.276,0 0,841.89 L 0,841.89 0,0 z"
         id="path5248"
         inkscape:connector-curvature="0" />
    </clipPath>
    <clipPath
       id="clipPath5266">
      <path
         d="m 0,0 595.276,0 0,841.89 L 0,841.89 0,0 z"
         id="path5268"
         inkscape:connector-curvature="0" />
    </clipPath>
    <clipPath
       id="clipPath5286">
      <path
         d="m 0,0 595.276,0 0,841.89 L 0,841.89 0,0 z"
         id="path5288"
         inkscape:connector-curvature="0" />
    </clipPath>
    <clipPath
       id="clipPath5306">
      <path
         d="m 0,0 595.276,0 0,841.89 L 0,841.89 0,0 z"
         id="path5308"
         inkscape:connector-curvature="0" />
    </clipPath>
    <clipPath
       id="clipPath5326">
      <path
         d="m 0,0 595.276,0 0,841.89 L 0,841.89 0,0 z"
         id="path5328"
         inkscape:connector-curvature="0" />
    </clipPath>
    <clipPath
       id="clipPath5346">
      <path
         d="m 0,0 595.276,0 0,841.89 L 0,841.89 0,0 z"
         id="path5348"
         inkscape:connector-curvature="0" />
    </clipPath>
    <clipPath
       id="clipPath5408">
      <path
         d="m 34.016,163.292 62.363,0 0,39.685 -62.363,0 0,-39.685 z"
         id="path5410"
         inkscape:connector-curvature="0" />
    </clipPath>
    <clipPath
       id="clipPath5718">
      <path
         d="m 167.953,163.292 62.363,0 0,39.685 -62.363,0 0,-39.685 z"
         id="path5720"
         inkscape:connector-curvature="0" />
    </clipPath>
    <clipPath
       id="clipPath5826">
      <path
         d="m 301.89,163.292 62.362,0 0,39.685 -62.362,0 0,-39.685 z"
         id="path5828"
         inkscape:connector-curvature="0" />
    </clipPath>
    <clipPath
       id="clipPath7160">
      <path
         d="m 435.827,163.292 62.362,0 0,39.685 -62.362,0 0,-39.685 z"
         id="path7162"
         inkscape:connector-curvature="0" />
    </clipPath>
    <clipPath
       id="clipPath7504">
      <path
         d="m 0,0 595.276,0 0,841.89 L 0,841.89 0,0 z"
         id="path7506"
         inkscape:connector-curvature="0" />
    </clipPath>
    <clipPath
       id="clipPath7524">
      <path
         d="m 0,0 595.276,0 0,841.89 L 0,841.89 0,0 z"
         id="path7526"
         inkscape:connector-curvature="0" />
    </clipPath>
    <clipPath
       id="clipPath7544">
      <path
         d="m 0,0 595.276,0 0,841.89 L 0,841.89 0,0 z"
         id="path7546"
         inkscape:connector-curvature="0" />
    </clipPath>
    <clipPath
       id="clipPath7564">
      <path
         d="m 0,0 595.276,0 0,841.89 L 0,841.89 0,0 z"
         id="path7566"
         inkscape:connector-curvature="0" />
    </clipPath>
    <clipPath
       id="clipPath7584">
      <path
         d="m 0,0 595.276,0 0,841.89 L 0,841.89 0,0 z"
         id="path7586"
         inkscape:connector-curvature="0" />
    </clipPath>
    <clipPath
       id="clipPath7604">
      <path
         d="m 0,0 595.276,0 0,841.89 L 0,841.89 0,0 z"
         id="path7606"
         inkscape:connector-curvature="0" />
    </clipPath>
    <clipPath
       id="clipPath7624">
      <path
         d="m 0,0 595.276,0 0,841.89 L 0,841.89 0,0 z"
         id="path7626"
         inkscape:connector-curvature="0" />
    </clipPath>
    <clipPath
       id="clipPath7644">
      <path
         d="m 0,0 595.276,0 0,841.89 L 0,841.89 0,0 z"
         id="path7646"
         inkscape:connector-curvature="0" />
    </clipPath>
    <clipPath
       id="clipPath7690">
      <path
         d="m 34.016,91.559 62.363,0 0,39.686 -62.363,0 0,-39.686 z"
         id="path7692"
         inkscape:connector-curvature="0" />
    </clipPath>
    <clipPath
       id="clipPath7714">
      <path
         d="m 435.827,91.559 62.362,0 0,39.686 -62.362,0 0,-39.686 z"
         id="path7716"
         inkscape:connector-curvature="0" />
    </clipPath>
    <clipPath
       id="clipPath7728">
      <path
         d="m 34.016,41.685 62.363,0 0,39.685 -62.363,0 0,-39.685 z"
         id="path7730"
         inkscape:connector-curvature="0" />
    </clipPath>
    <clipPath
       id="clipPath7740">
      <path
         d="m 34.016,41.685 62.363,0 0,39.685 -62.363,0 0,-39.685 z"
         id="path7742"
         inkscape:connector-curvature="0" />
    </clipPath>
    <clipPath
       id="clipPath7802">
      <path
         d="m 167.953,41.685 62.363,0 0,39.685 -62.363,0 0,-39.685 z"
         id="path7804"
         inkscape:connector-curvature="0" />
    </clipPath>
    <clipPath
       id="clipPath8374">
      <path
         d="m 301.89,41.685 62.362,0 0,39.685 -62.362,0 0,-39.685 z"
         id="path8376"
         inkscape:connector-curvature="0" />
    </clipPath>
    <clipPath
       id="clipPath8668">
      <path
         d="m 435.827,41.685 62.362,0 0,39.685 -62.362,0 0,-39.685 z"
         id="path8670"
         inkscape:connector-curvature="0" />
    </clipPath>
    <clipPath
       id="clipPath8680">
      <path
         d="m 435.827,41.685 62.362,0 0,39.685 -62.362,0 0,-39.685 z"
         id="path8682"
         inkscape:connector-curvature="0" />
    </clipPath>
    <clipPath
       id="clipPath8928">
      <path
         d="m 0,0 595.276,0 0,841.89 L 0,841.89 0,0 z"
         id="path8930"
         inkscape:connector-curvature="0" />
    </clipPath>
    <clipPath
       id="clipPath8948">
      <path
         d="m 0,0 595.276,0 0,841.89 L 0,841.89 0,0 z"
         id="path8950"
         inkscape:connector-curvature="0" />
    </clipPath>
    <clipPath
       id="clipPath8968">
      <path
         d="m 0,0 595.276,0 0,841.89 L 0,841.89 0,0 z"
         id="path8970"
         inkscape:connector-curvature="0" />
    </clipPath>
    <clipPath
       id="clipPath8988">
      <path
         d="m 0,0 595.276,0 0,841.89 L 0,841.89 0,0 z"
         id="path8990"
         inkscape:connector-curvature="0" />
    </clipPath>
    <clipPath
       id="clipPath9008">
      <path
         d="m 0,0 595.276,0 0,841.89 L 0,841.89 0,0 z"
         id="path9010"
         inkscape:connector-curvature="0" />
    </clipPath>
    <clipPath
       id="clipPath9028">
      <path
         d="m 0,0 595.276,0 0,841.89 L 0,841.89 0,0 z"
         id="path9030"
         inkscape:connector-curvature="0" />
    </clipPath>
    <clipPath
       id="clipPath9048">
      <path
         d="m 0,0 595.276,0 0,841.89 L 0,841.89 0,0 z"
         id="path9050"
         inkscape:connector-curvature="0" />
    </clipPath>
    <clipPath
       id="clipPath9068">
      <path
         d="m 0,0 595.276,0 0,841.89 L 0,841.89 0,0 z"
         id="path9070"
         inkscape:connector-curvature="0" />
    </clipPath>
    <clipPath
       id="clipPath9088">
      <path
         d="m 0,0 595.276,0 0,841.89 L 0,841.89 0,0 z"
         id="path9090"
         inkscape:connector-curvature="0" />
    </clipPath>
    <clipPath
       id="clipPath9104">
      <path
         d="m 0,0 595.276,0 0,841.89 L 0,841.89 0,0 z"
         id="path9106"
         inkscape:connector-curvature="0" />
    </clipPath>
    <clipPath
       id="clipPath9132">
      <path
         d="m 0,0 595.276,0 0,841.89 L 0,841.89 0,0 z"
         id="path9134"
         inkscape:connector-curvature="0" />
    </clipPath>
    <clipPath
       id="clipPath9142">
      <path
         d="m 0,841.89 595.276,0 L 595.276,0 0,0 0,841.89 z"
         id="path9144"
         inkscape:connector-curvature="0" />
    </clipPath>
    <clipPath
       id="clipPath9160">
      <path
         d="m 0,0 595.276,0 0,841.89 L 0,841.89 0,0 z"
         id="path9162"
         inkscape:connector-curvature="0" />
    </clipPath>
    <clipPath
       id="clipPath9170">
      <path
         d="m 0,841.89 595.276,0 L 595.276,0 0,0 0,841.89 z"
         id="path9172"
         inkscape:connector-curvature="0" />
    </clipPath>
    <clipPath
       id="clipPath9190">
      <path
         d="m 0,841.89 595.276,0 L 595.276,0 0,0 0,841.89 z"
         id="path9192"
         inkscape:connector-curvature="0" />
    </clipPath>
    <clipPath
       id="clipPath7160-4">
      <path
         d="m 435.827,163.292 62.362,0 0,39.685 -62.362,0 0,-39.685 z"
         id="path7162-0"
         inkscape:connector-curvature="0" />
    </clipPath>
  </defs>
  <g
     id="g3141"
     transform="translate(-4.0698316,56.209797)"
     style="fill:#ffdb00;fill-opacity:1;stroke:none" />
  <path
     inkscape:connector-curvature="0"
     style="fill:#ffdb00;fill-rule:nonzero;stroke:none"
     d="M 0,4.4299244 C 0,1.9836369 1.9836375,-5.6586735e-7 4.429925,-5.6586735e-7 l 199.310075,0 c 2.44625,0 4.43,1.98363746586735 4.43,4.42992496586735 l 0,44.2919496 c 0,2.446375 -1.98375,4.42875 -4.43,4.42875 l -199.310075,0 C 1.9836375,53.150624 0,51.168249 0,48.721874 L 0,4.4299244 z"
     id="path11" />
  <path
     inkscape:connector-curvature="0"
     style="fill:#000000;fill-rule:nonzero;stroke:none"
     d="m 0.88622751,4.4299304 c 0,-1.9567875 1.58569999,-3.54369997 3.54369999,-3.54369997 l 199.3100525,0 c 1.9575,0 3.54375,1.58691247 3.54375,3.54369997 l 0,44.2919246 c 0,1.956875 -1.58625,3.54375 -3.54375,3.54375 l -199.3100525,0 c -1.958,0 -3.54369999,-1.586875 -3.54369999,-3.54375 l 0,-44.2919246 z"
     id="path13" />
  <path
     inkscape:connector-curvature="0"
     style="fill:#ffdb00;fill-rule:nonzero;stroke:none"
     d="m 2.6574775,4.4287044 c 0,-0.979 0.79345,-1.77245 1.7712375,-1.77245 l 199.311265,0 c 0.98,0 1.7725,0.79345 1.7725,1.77245 l 0,44.2919246 c 0,0.977875 -0.7925,1.77125 -1.7725,1.77125 l -199.311265,0 c -0.9777875,0 -1.7712375,-0.793375 -1.7712375,-1.77125 l 0,-44.2919246 z"
     id="path15" />
  <path
     inkscape:connector-curvature="0"
     style="fill:#000000;fill-rule:nonzero;stroke:none"
     d="m 142.39482,35.273393 c 1.25875,1.7005 2.8975,3.020125 4.9175,3.95875 1.84125,0.8325 3.7375,1.248875 5.68625,1.248875 2.4625,0 4.78375,-0.725125 6.9625,-2.17775 2.46375,-1.66625 3.69375,-3.72075 3.69375,-6.165875 0,-1.50625 -0.43375,-2.994375 -1.30125,-4.46525 -0.78,-1.328125 -1.58625,-2.143625 -2.41875,-2.443875 0.70875,-0.40775 1.26625,-1.134 1.67375,-2.179 0.4075,-0.992375 0.6125,-2.091 0.6125,-3.295875 0,-1.9665 -1.02875,-3.641375 -3.08375,-5.023125 -1.82375,-1.239001 -3.73875,-1.859126 -5.74,-1.859126 -2.2325,0 -4.08375,0.327125 -5.55375,0.982625 -1.3825,0.620125 -2.86125,1.745626 -4.4375,3.375251 l 3.4275,3.02975 c 1.94875,-1.824875 3.96,-2.73675 6.0325,-2.73675 1.11625,0 2.09,0.17575 2.92375,0.531 1.18625,0.495625 1.78,1.311 1.78,2.445 0,0.726375 -0.28375,1.328125 -0.85125,1.806625 -0.5475,0.46025 -1.1775,0.691 -1.88625,0.691 l -1.96625,0 0,4.650875 1.96625,0 c 1.045,0 1.99375,0.42475 2.84375,1.275625 0.85,0.8325 1.275,1.824875 1.275,2.976 0,1.311125 -0.69875,2.338875 -2.09875,3.082375 -1.15125,0.603 -2.43625,0.9045 -3.85375,0.9045 -1.82375,0 -3.26875,-0.328375 -4.33125,-0.983875 -0.28375,-0.177 -1.16125,-0.94725 -2.63125,-2.312 l -3.64125,2.68425 z"
     id="path17" />
  <path
     inkscape:connector-curvature="0"
     style="fill:#000000;fill-rule:nonzero;stroke:none"
     d="m 172.07857,13.402142 -0.82375,12.569501 4.6775,1.381875 c 0.46,-0.441875 1.36375,-0.805625 2.71125,-1.088875 1.0975,-0.23075 2.07125,-0.3455 2.9225,-0.3455 1.4175,0 2.63875,0.362625 3.66875,1.088875 1.23875,0.869125 1.85875,2.091125 1.85875,3.66825 0,1.434375 -0.4875,2.65625 -1.46125,3.667 -0.97375,0.992375 -2.1975,1.496625 -3.6675,1.514875 -1.50625,0.01713 -3.18875,-0.1685 -5.05,-0.559125 -1.93125,-0.4065 -3.4275,-0.91175 -4.49,-1.513625 l -1.9675,4.0125 c 3.2775,1.7895 7.22,2.683125 11.82625,2.683125 2.605,0 4.83625,-0.98275 6.6975,-2.94925 1.8075,-1.94825 2.71125,-4.233375 2.71125,-6.8555 0,-2.392625 -0.94,-4.544625 -2.8175,-6.4575 -1.8775,-1.932375 -4.00375,-2.898 -6.37875,-2.898 -1.98375,0 -4.15375,0.328375 -6.51125,0.983875 l 0.34625,-4.331 13.15375,0 0,-4.571501 -17.40625,0 z"
     id="path19" />
  <path
     inkscape:connector-curvature="0"
     style="fill:#000000;fill-rule:nonzero;stroke:none"
     d="m 35.426101,48.844004 -15.50175,0 -15.5017485,-22.146 15.5017485,-22.1459996 15.50175,0 -15.50175,22.1459996 15.50175,22.146 z"
     id="path21" />
  <path
     inkscape:connector-curvature="0"
     style="fill:#000000;fill-rule:nonzero;stroke:none"
     d="m 66.430689,48.844004 -15.503,0 -15.501626,-22.146 15.501626,-22.1459996 15.503,0 -15.503,22.1459996 15.503,22.146 z"
     id="path23" />
  <path
     inkscape:connector-curvature="0"
     style="fill:#000000;fill-rule:nonzero;stroke:none"
     d="m 97.434064,48.844004 -15.50175,0 -15.501625,-22.146 15.501625,-22.1459996 15.50175,0 -15.50175,22.1459996 15.50175,22.146 z"
     id="path25" />
  <path
     inkscape:connector-curvature="0"
     style="fill:#000000;fill-rule:nonzero;stroke:none"
     d="m 128.43857,48.844004 -15.50275,0 -15.501756,-22.146 15.501756,-22.1459996 15.50275,0 -15.50275,22.1459996 15.50275,22.146 z"
     id="path27" />
</svg>
