<?xml version="1.0" encoding="UTF-8" standalone="no"?>
<!-- Created with Inkscape (http://www.inkscape.org/) -->

<svg
   xmlns:dc="http://purl.org/dc/elements/1.1/"
   xmlns:cc="http://creativecommons.org/ns#"
   xmlns:rdf="http://www.w3.org/1999/02/22-rdf-syntax-ns#"
   xmlns:svg="http://www.w3.org/2000/svg"
   xmlns="http://www.w3.org/2000/svg"
   xmlns:sodipodi="http://sodipodi.sourceforge.net/DTD/sodipodi-0.dtd"
   xmlns:inkscape="http://www.inkscape.org/namespaces/inkscape"
   width="212.5975"
   height="141.7325"
   id="svg2"
   sodipodi:version="0.32"
   inkscape:version="0.48.2 r9819"
   version="1.0"
   sodipodi:docname="AJAX2.svg"
   inkscape:output_extension="org.inkscape.output.svg.inkscape">
  <defs
     id="defs4">
    <inkscape:perspective
       sodipodi:type="inkscape:persp3d"
       inkscape:vp_x="0 : 300.5 : 1"
       inkscape:vp_y="0 : 1000 : 0"
       inkscape:vp_z="601 : 300.5 : 1"
       inkscape:persp3d-origin="300.5 : 200.33333 : 1"
       id="perspective3380" />
    <inkscape:perspective
       id="perspective3990"
       inkscape:persp3d-origin="375 : 250 : 1"
       inkscape:vp_z="750 : 375 : 1"
       inkscape:vp_y="0 : 1000 : 0"
       inkscape:vp_x="0 : 375 : 1"
       sodipodi:type="inkscape:persp3d" />
  </defs>
  <sodipodi:namedview
     id="base"
     pagecolor="#ffffff"
     bordercolor="#666666"
     borderopacity="1.0"
     gridtolerance="10000"
     guidetolerance="10"
     objecttolerance="10"
     inkscape:pageopacity="0.0"
     inkscape:pageshadow="2"
     inkscape:zoom="3.6392429"
     inkscape:cx="120.47077"
     inkscape:cy="35.319362"
     inkscape:document-units="px"
     inkscape:current-layer="layer1"
     width="601px"
     height="601px"
     inkscape:window-width="1280"
     inkscape:window-height="1004"
     inkscape:window-x="-8"
     inkscape:window-y="-8"
     showgrid="false"
     fit-margin-top="0"
     fit-margin-left="0"
     fit-margin-right="0"
     fit-margin-bottom="0"
     inkscape:window-maximized="1" />
  <metadata
     id="metadata7">
    <rdf:RDF>
      <cc:Work
         rdf:about="">
        <dc:format>image/svg+xml</dc:format>
        <dc:type
           rdf:resource="http://purl.org/dc/dcmitype/StillImage" />
        <dc:title></dc:title>
      </cc:Work>
    </rdf:RDF>
  </metadata>
  <g
     inkscape:label="Layer 1"
     inkscape:groupmode="layer"
     id="layer1"
     transform="translate(-3.0061336,-457.32105)">
    <rect
       style="color:#000000;fill:#000000;fill-opacity:1;fill-rule:nonzero;stroke:none;stroke-width:0.8735441;marker:none;visibility:visible;display:inline;overflow:visible"
       id="rect3653"
       width="0"
       height="27.202072"
       x="578.73834"
       y="298.1684"
       rx="249.48199"
       ry="27.202072" />
    <path
       inkscape:connector-curvature="0"
       style="fill:#ffdb00;fill-rule:nonzero;stroke:none"
       d="m 3.0061337,471.49468 c 0,-7.82842 6.3452125,-14.17363 14.1723743,-14.17363 l 184.251382,0 c 7.82875,0 14.17375,6.34521 14.17375,14.17363 l 0,113.38512 c 0,7.82875 -6.345,14.17375 -14.17375,14.17375 l -184.251382,0 c -7.8271618,0 -14.1723744,-6.345 -14.1723744,-14.17375 l 0,-113.38512 z"
       id="path11" />
    <path
       inkscape:connector-curvature="0"
       style="fill:#000000;fill-rule:nonzero;stroke:none"
       d="m 5.8406049,471.49462 c 0,-6.2622 5.0756871,-11.3391 11.3378621,-11.3391 l 184.250893,0 c 6.2625,0 11.34,5.0769 11.34,11.3391 l 0,113.38515 c 0,6.262 -5.0775,11.33825 -11.34,11.33825 l -184.250892,0 c -6.262176,0 -11.3378631,-5.07625 -11.3378631,-11.33825 l 0,-113.38515 z"
       id="path13" />
    <path
       inkscape:connector-curvature="0"
       style="fill:#ffdb00;fill-rule:nonzero;stroke:none"
       d="m 10.446317,471.49463 c 0,-3.71825 3.013913,-6.73218 6.73215,-6.73218 l 184.251603,0 c 3.71875,0 6.73375,3.01393 6.73375,6.73218 l 0,113.38507 c 0,3.71875 -3.015,6.734 -6.73375,6.734 l -184.251603,0 c -3.718237,0 -6.73215,-3.01525 -6.73215,-6.734 l 0,-113.38507 z"
       id="path15" />
    <path
       style="fill:#000000;fill-rule:evenodd;stroke:none"
       d="m 83.651883,509.77835 0,28.1335 -26.64675,0 26.64675,-28.1335 z m 0.28325,-17.008 -43.015125,45.63837 0,10.91188 42.731875,0 0,14.31512 12.047125,0 0,-14.31512 10.345502,0 0,-11.40875 -10.345502,0 0,-45.1415 -11.763875,0 z"
       id="path17"
       inkscape:connector-curvature="0" />
    <path
       style="fill:#000000;fill-rule:nonzero;stroke:none"
       d="m 125.46101,492.77035 -2.19613,33.51925 12.47188,3.68525 c 1.22875,-1.18037 3.63749,-2.14963 7.22874,-2.90525 2.92875,-0.614 5.52625,-0.92163 7.79625,-0.92163 3.77875,0 7.0375,0.96926 9.77875,2.90525 3.30625,2.31575 4.96125,5.575 4.96125,9.78026 0,3.827 -1.29875,7.08625 -3.89875,9.77912 -2.5975,2.6465 -5.8575,3.99287 -9.77875,4.03925 -4.01625,0.0476 -8.505,-0.44913 -13.465,-1.488 -5.14999,-1.08637 -9.14124,-2.43287 -11.97662,-4.03925 l -5.243,10.70063 c 8.73963,4.77175 19.25087,7.15699 31.53462,7.15699 6.94625,0 12.8975,-2.62087 17.8575,-7.86624 4.81875,-5.1965 7.22875,-11.29025 7.22875,-18.2825 0,-6.37813 -2.50375,-12.11913 -7.5125,-17.22038 -5.00625,-5.15012 -10.67625,-7.72462 -17.0075,-7.72462 -5.29,0 -11.0775,0.87399 -17.36249,2.62199 l 0.9225,-11.55149 35.07749,0 0,-12.18863 -46.41699,0 z"
       id="path19"
       inkscape:connector-curvature="0" />
  </g>
</svg>
