<?xml version="1.0" encoding="UTF-8" standalone="no"?>
<!-- Created with Inkscape (http://www.inkscape.org/) -->

<svg
   xmlns:dc="http://purl.org/dc/elements/1.1/"
   xmlns:cc="http://creativecommons.org/ns#"
   xmlns:rdf="http://www.w3.org/1999/02/22-rdf-syntax-ns#"
   xmlns:svg="http://www.w3.org/2000/svg"
   xmlns="http://www.w3.org/2000/svg"
   xmlns:sodipodi="http://sodipodi.sourceforge.net/DTD/sodipodi-0.dtd"
   xmlns:inkscape="http://www.inkscape.org/namespaces/inkscape"
   width="798.79602mm"
   height="705.97998mm"
   viewBox="0 0 798.79604 705.97998"
   version="1.1"
   id="svg29"
   inkscape:version="0.92.4 (5da689c313, 2019-01-14)"
   sodipodi:docname="New_Zealand_road_sign_R2-2.svg">
  <defs
     id="defs23" />
  <sodipodi:namedview
     id="base"
     pagecolor="#ffffff"
     bordercolor="#666666"
     borderopacity="1.0"
     inkscape:pageopacity="0.0"
     inkscape:pageshadow="2"
     inkscape:zoom="0.21461796"
     inkscape:cx="2278.4982"
     inkscape:cy="1091.2164"
     inkscape:document-units="mm"
     inkscape:current-layer="layer1"
     showgrid="false"
     inkscape:window-width="1920"
     inkscape:window-height="1057"
     inkscape:window-x="-8"
     inkscape:window-y="-8"
     inkscape:window-maximized="1" />
  <metadata
     id="metadata26">
    <rdf:RDF>
      <cc:Work
         rdf:about="">
        <dc:format>image/svg+xml</dc:format>
        <dc:type
           rdf:resource="http://purl.org/dc/dcmitype/StillImage" />
        <dc:title></dc:title>
      </cc:Work>
    </rdf:RDF>
  </metadata>
  <g
     inkscape:label="Layer 1"
     inkscape:groupmode="layer"
     id="layer1"
     transform="translate(0,408.98008)">
    <path
       style="opacity:1;fill:none;fill-opacity:1;fill-rule:nonzero;stroke:#000000;stroke-width:104;stroke-linecap:square;stroke-linejoin:round;stroke-miterlimit:10;stroke-dasharray:none;stroke-dashoffset:0;stroke-opacity:1"
       d="m 399.39789,244.00518 346.4018,-599.98538 -692.803495,-10e-5 z"
       id="rect172"
       inkscape:connector-curvature="0"
       sodipodi:nodetypes="cccc" />
    <path
       sodipodi:nodetypes="cccc"
       inkscape:connector-curvature="0"
       id="path186"
       d="M 52.996495,-355.9803 399.39799,244.00493 745.79969,-355.9802 Z"
       style="opacity:1;fill:none;fill-opacity:1;fill-rule:nonzero;stroke:#ffffff;stroke-width:100;stroke-linecap:square;stroke-linejoin:round;stroke-miterlimit:10;stroke-dasharray:none;stroke-dashoffset:0;stroke-opacity:1" />
    <path
       style="opacity:1;fill:none;fill-opacity:1;fill-rule:nonzero;stroke:#c0121e;stroke-width:80;stroke-linecap:square;stroke-linejoin:round;stroke-miterlimit:10;stroke-dasharray:none;stroke-dashoffset:0;stroke-opacity:1"
       d="M 52.997295,-355.9803 399.39809,244.00371 745.79919,-355.9802 Z"
       id="path188"
       inkscape:connector-curvature="0"
       sodipodi:nodetypes="cccc" />
    <path
       style="opacity:1;fill:#ffffff;fill-opacity:1;fill-rule:nonzero;stroke:none;stroke-width:80;stroke-linecap:square;stroke-linejoin:round;stroke-miterlimit:10;stroke-dasharray:none;stroke-dashoffset:0;stroke-opacity:1"
       d="m 702.49809,-330.9799 -606.200095,-4e-4 303.099595,524.98488 z"
       id="rect1014"
       inkscape:connector-curvature="0"
       sodipodi:nodetypes="cccc" />
    <path
       inkscape:connector-curvature="0"
       id="path44"
       style="fill:#c0121e;fill-opacity:1;fill-rule:nonzero;stroke:none;stroke-width:0.35222748"
       d="m 309.898,-85.980303 11.2017,100 h 11.6984 l 8.6987,-54.81134 9.7984,54.81134 h 11.0016 l 10.7012,-100 h -12.4025 l -5.4951,48.697 -8.7987,-48.697 h -10.0072 l -8.1996,48.4893 -5.6014,-48.4893 H 309.898 v 0" />
    <path
       inkscape:connector-curvature="0"
       id="path46"
       style="fill:#c0121e;fill-opacity:1;fill-rule:evenodd;stroke:none;stroke-width:0.35223657"
       d="m 400.301,-23.585833 5.6926,-29.30073 6.6015,29.30073 z m -20.403,37.60553 h 12.8013 l 4.6991,-25.20773 h 17.2045 l 5.5974,25.20773 h 12.7977 l -21.0898,-100 h -12.516 l -19.4942,100 v 0" />
    <path
       inkscape:connector-curvature="0"
       id="path48"
       style="fill:#c0121e;fill-opacity:1;fill-rule:nonzero;stroke:none;stroke-width:0.35224819"
       d="m 435.798,-85.980303 21.00331,54.49754 v 45.50246 h 12.2067 v -45.50246 l 19.89,-54.49754 h -13.2952 l -12.8021,35.288 -13.70041,-35.288 H 435.798 v 0" />
    <path
       inkscape:connector-curvature="0"
       id="path36-3"
       style="fill:#c0121e;fill-opacity:1;fill-rule:nonzero;stroke:none;stroke-width:0.35237673"
       d="m 303.0669,-246.17372 h 18.1311 c 0,-9.00732 -3.2882,-16.64022 -9.8811,-22.8953 -6.5048,-6.34319 -14.2609,-9.51128 -23.2692,-9.51128 -14.2622,0 -24.2257,7.75986 -29.8979,23.27239 -3.8361,10.34649 -5.7518,24.85478 -5.7518,43.5425 0,16.68257 1.9985,30.19356 6.0024,40.53994 5.9213,15.09328 15.8076,22.64517 29.6473,22.64517 6.9259,0 13.1376,-1.71266 18.6445,-5.13089 5.0017,-3.08348 8.6285,-7.00567 10.8804,-11.75956 2.2529,-4.8385 3.3777,-12.0133 3.3777,-21.52108 v -24.77358 h -32.023 v 18.01464 h 15.0081 v 14.14171 c 0,3.50283 -1.747,6.67443 -5.2525,9.50429 -3.4217,2.84024 -6.9629,4.25692 -10.6352,4.25692 -11.8425,0 -17.7621,-14.26507 -17.7621,-42.78832 v -7.50963 c 0,-29.69658 5.9196,-44.54322 17.7621,-44.54322 4.5873,0 8.2198,1.29331 10.8872,3.87993 2.7515,2.50201 4.132,6.0472 4.132,10.63537 v 0" />
    <path
       inkscape:connector-curvature="0"
       id="path38-5"
       style="fill:#c0121e;fill-opacity:1;fill-rule:nonzero;stroke:none;stroke-width:0.35207742"
       d="m 347.598,-150.9803 h 17.5 v -125 h -17.5 v 125 0" />
    <path
       inkscape:connector-curvature="0"
       id="path40-4"
       style="fill:#c0121e;fill-opacity:1;fill-rule:nonzero;stroke:none;stroke-width:0.35206473"
       d="m 417.38341,-150.9803 h 14.5157 l 30.7389,-125 h -18.0012 l -19.7368,79.87252 -20.24741,-79.87252 H 386.398 l 30.98541,125 v 0" />
    <path
       inkscape:connector-curvature="0"
       id="path42-8"
       style="fill:#c0121e;fill-opacity:1;fill-rule:nonzero;stroke:none;stroke-width:0.35208786"
       d="m 483.89801,-275.9803 v 125 h 62.5 v -17.62432 h -45.3697 v -41.24766 h 26.6162 v -17.12793 h -26.6162 v -31.37577 h 43.3802 v -17.62432 h -60.5105 v 0" />
  </g>
</svg>
