<?xml version="1.0" encoding="UTF-8" standalone="no"?>
<svg
   xmlns:dc="http://purl.org/dc/elements/1.1/"
   xmlns:cc="http://creativecommons.org/ns#"
   xmlns:rdf="http://www.w3.org/1999/02/22-rdf-syntax-ns#"
   xmlns:svg="http://www.w3.org/2000/svg"
   xmlns="http://www.w3.org/2000/svg"
   version="1.1"
   id="svg18121"
   viewBox="0 0 300 377.05268"
   height="377.05267"
   width="300">
  <defs
     id="defs18123" />
  <metadata
     id="metadata18126">
    <rdf:RDF>
      <cc:Work
         rdf:about="">
        <dc:format>image/svg+xml</dc:format>
        <dc:type
           rdf:resource="http://purl.org/dc/dcmitype/StillImage" />
        <dc:title></dc:title>
      </cc:Work>
    </rdf:RDF>
  </metadata>
  <g
     transform="translate(-648.63768,-300.1389)"
     id="layer1">
    <g
       transform="matrix(9.8369314,0,0,-9.8369314,879.45594,648.29208)"
       id="g16048">
      <path
         id="path16050"
         style="fill:#231f20;fill-opacity:1;fill-rule:nonzero;stroke:none"
         d="m 0,0 -0.328,0 0,1.778 0.353,0 c 0.653,0 0.877,-0.353 0.877,-0.91 C 0.902,0.316 0.647,0 0,0 m 1.112,-0.464 c 0.272,0.097 0.5,0.272 0.65,0.471 0.187,0.251 0.252,0.537 0.252,0.872 0,0.505 -0.174,1.514 -1.63,1.514 l -2.085,0 0,-0.145 c 0.143,0 0.258,-0.062 0.258,-0.211 l 0,-4.41 c 0,-0.135 -0.136,-0.194 -0.258,-0.196 l 0,-0.146 1.662,0 0,0.146 c -0.127,0 -0.289,0.073 -0.292,0.226 l 0,1.734 0.409,-0.005 0.938,-2.101 1.347,0 0,0.146 c -0.179,0 -0.29,0.076 -0.336,0.196 l -0.915,1.909" />
    </g>
    <g
       transform="matrix(9.8369314,0,0,-9.8369314,754.40202,649.48825)"
       id="g16052">
      <path
         id="path16054"
         style="fill:#231f20;fill-opacity:1;fill-rule:nonzero;stroke:none"
         d="m 0,0 -0.374,0 0,1.899 0.382,0 C 0.619,1.899 0.861,1.522 0.861,0.972 0.861,0.332 0.625,0 0,0 m -1.745,2.515 0,-0.145 c 0.091,0 0.259,-0.03 0.259,-0.212 l 0,-4.409 c 0,-0.152 -0.171,-0.196 -0.259,-0.196 l 0,-0.146 1.666,0 0,0.146 c -0.088,0 -0.295,0.073 -0.295,0.24 l 0,1.6 0.346,0 c 1.285,0 2.021,0.44 2.021,1.552 0,1.008 -0.567,1.57 -1.652,1.57 l -2.086,0" />
    </g>
    <g
       transform="matrix(9.8369314,0,0,-9.8369314,795.16524,649.48825)"
       id="g16056">
      <path
         id="path16058"
         style="fill:#231f20;fill-opacity:1;fill-rule:nonzero;stroke:none"
         d="m 0,0 -0.375,0 0,1.899 0.383,0 C 0.62,1.899 0.861,1.522 0.861,0.972 0.861,0.332 0.625,0 0,0 m -1.746,2.515 0,-0.145 c 0.092,0 0.26,-0.03 0.26,-0.212 l 0,-4.409 c 0,-0.152 -0.171,-0.196 -0.26,-0.196 l 0,-0.146 1.666,0 0,0.146 c -0.088,0 -0.295,0.073 -0.295,0.24 l 0,1.6 0.346,0 c 1.285,0 2.02,0.44 2.02,1.552 0,1.008 -0.565,1.57 -1.651,1.57 l -2.086,0" />
    </g>
    <g
       transform="matrix(9.8369314,0,0,-9.8369314,703.63456,654.68608)"
       id="g16060">
      <path
         id="path16062"
         style="fill:#231f20;fill-opacity:1;fill-rule:nonzero;stroke:none"
         d="M 0,0 0.547,1.827 1.074,0 0,0 Z m -0.186,-0.623 1.422,0 C 1.331,-0.95 1.399,-1.178 1.488,-1.468 1.571,-1.729 1.595,-1.919 1.374,-1.919 l 0,-0.148 1.671,0 0,0.148 c -0.177,0.013 -0.271,0.302 -0.374,0.586 l -1.355,4.375 -1.542,0 0,-0.144 c 0.17,-0.014 0.284,-0.03 0.219,-0.265 L -1.14,-1.04 -1.326,-1.559 c -0.08,-0.206 -0.142,-0.333 -0.385,-0.364 l 0,-0.144 1.405,0 0,0.145 c -0.207,0.036 -0.222,0.161 -0.188,0.256 l 0.308,1.043" />
    </g>
    <g
       transform="matrix(9.8369314,0,0,-9.8369314,819.95431,649.77942)"
       id="g16064">
      <path
         id="path16066"
         style="fill:#231f20;fill-opacity:1;fill-rule:nonzero;stroke:none"
         d="m 0,0 0,-0.005 c 0,-1.051 0.097,-1.566 0.422,-1.993 0.275,-0.361 0.658,-0.684 1.467,-0.684 0.809,0 1.191,0.323 1.467,0.684 0.323,0.427 0.422,0.942 0.422,1.993 l 0,0.005 0,0.004 C 3.778,1.055 3.679,1.572 3.356,1.999 3.08,2.361 2.698,2.682 1.889,2.682 1.08,2.682 0.697,2.361 0.422,1.999 0.097,1.572 0,1.055 0,0.004 L 0,0 Z m 1.188,0.023 c 0,0.737 0.027,1.223 0.133,1.516 C 1.417,1.812 1.628,1.944 1.889,1.944 2.15,1.944 2.36,1.812 2.457,1.539 2.561,1.246 2.589,0.76 2.589,0.023 2.589,-0.715 2.561,-1.2 2.457,-1.492 2.36,-1.767 2.15,-1.904 1.889,-1.904 1.628,-1.904 1.417,-1.767 1.321,-1.492 1.215,-1.2 1.188,-0.715 1.188,0.023" />
    </g>
    <g
       transform="matrix(9.8369314,0,0,-9.8369314,905.99992,649.77942)"
       id="g16068">
      <path
         id="path16070"
         style="fill:#231f20;fill-opacity:1;fill-rule:nonzero;stroke:none"
         d="m 0,0 0,-0.005 c 0,-1.051 0.097,-1.566 0.421,-1.993 0.275,-0.361 0.66,-0.684 1.467,-0.684 0.81,0 1.191,0.323 1.468,0.684 0.323,0.427 0.421,0.942 0.421,1.993 l 0,0.005 0,0.004 C 3.777,1.055 3.679,1.572 3.356,1.999 3.079,2.361 2.698,2.682 1.888,2.682 1.081,2.682 0.696,2.361 0.421,1.999 0.097,1.572 0,1.055 0,0.004 L 0,0 Z m 1.187,0.023 c 0,0.737 0.028,1.223 0.133,1.516 0.098,0.273 0.309,0.405 0.569,0.405 0.261,0 0.47,-0.132 0.569,-0.405 C 2.561,1.246 2.59,0.76 2.59,0.023 2.59,-0.715 2.561,-1.2 2.458,-1.492 2.359,-1.767 2.15,-1.904 1.889,-1.904 1.629,-1.904 1.418,-1.767 1.32,-1.492 1.215,-1.2 1.187,-0.715 1.187,0.023" />
    </g>
    <g
       transform="matrix(9.8369314,0,0,-9.8369314,686.5508,662.03624)"
       id="g16072">
      <path
         id="path16074"
         style="fill:#231f20;fill-opacity:1;fill-rule:nonzero;stroke:none"
         d="m 0,0 c 0,-0.341 -0.087,-0.705 -0.399,-0.999 -0.328,-0.307 -0.777,-0.44 -1.328,-0.44 -0.768,0 -1.18,0.202 -1.572,0.498 l 0,1.155 0.157,0 c 0.251,-0.657 0.786,-1.05 1.288,-1.05 0.339,0 0.666,0.179 0.686,0.655 0.016,0.365 -0.226,0.657 -0.51,0.86 -0.316,0.226 -0.448,0.316 -0.788,0.559 -0.305,0.216 -0.824,0.709 -0.765,1.414 0.084,1.012 1.017,1.282 1.719,1.27 0.371,-0.007 0.834,-0.069 1.22,-0.303 l 0,-1.015 -0.142,0 c -0.204,0.609 -0.657,0.744 -1.01,0.744 -0.426,0 -0.75,-0.306 -0.664,-0.722 C -2.055,2.364 -1.77,2.165 -1.504,1.953 -1.314,1.812 -1.078,1.635 -0.785,1.416 -0.515,1.213 0,0.782 0,0" />
    </g>
    <g
       transform="matrix(9.8369314,0,0,-9.8369314,798.62784,301.1389)"
       id="g16076">
      <path
         id="path16078"
         style="fill:#feca0a;fill-opacity:1;fill-rule:nonzero;stroke:none"
         d="m 0,0 3.575,-11.004 11.573,0 -9.361,-6.8 3.573,-11.004 -9.36,6.801 -9.361,-6.801 3.575,11.004 -9.36,6.8 11.571,0 L 0,0 Z" />
    </g>
  </g>
</svg>
