<?xml version="1.0" encoding="UTF-8" standalone="no"?>
<!-- Created with Inkscape (http://www.inkscape.org/) -->
<svg
   xmlns:svg="http://www.w3.org/2000/svg"
   xmlns="http://www.w3.org/2000/svg"
   version="1.0"
   width="177.21249"
   height="177.21249"
   id="svg2"
   xml:space="preserve"><defs
     id="defs5"><clipPath
       id="clipPath19"><path
         d="M 0,0 L 1417.67,0 L 1417.67,1417.67 L 0,1417.67 L 0,0 z"
         id="path21" /></clipPath></defs><g
     transform="matrix(1.25,0,0,-1.25,0,177.2125)"
     id="g11"><g
       transform="scale(0.1,0.1)"
       id="g13"><g
         id="g15"><g
           clip-path="url(#clipPath19)"
           id="g17"><path
             d="M 1.07422,1.07422 L 1416.5942,1.07422 L 1416.5942,1416.5942 L 1.07422,1416.5942 L 1.07422,1.07422 z"
             id="path23"
             style="fill:#0046ac;fill-opacity:1;fill-rule:nonzero;stroke:none" /><path
             d="M 1.07422,1.07422 L 1416.5942,1.07422 L 1416.5942,1416.5942 L 1.07422,1416.5942 L 1.07422,1.07422 z"
             id="path25"
             style="fill:none;stroke:#0046ac;stroke-width:2.1500001;stroke-linecap:butt;stroke-linejoin:miter;stroke-miterlimit:4;stroke-dasharray:none;stroke-opacity:1" /><path
             d="M 1348.91,1416.59 L 68.75,1416.59 C 31.3086,1416.59 1.07031,1386.35 1.07031,1348.92 L 1.07031,68.7578 C 1.07031,31.3164 31.3086,1.07422 68.75,1.07422 L 1348.91,1.07422 C 1386.35,1.07422 1416.59,31.3164 1416.59,68.7578 L 1416.59,1348.92 C 1416.59,1386.35 1386.35,1416.59 1348.91,1416.59"
             id="path27"
             style="fill:#ffffff;fill-opacity:1;fill-rule:nonzero;stroke:none" /><path
             d="M 1348.91,1416.59 L 68.75,1416.59 L 68.75,1416.59 C 31.3086,1416.59 1.07031,1386.35 1.07031,1348.92 L 1.07031,68.7578 C 1.07031,31.3164 31.3086,1.07422 68.75,1.07422 L 1348.91,1.07422 C 1386.35,1.07422 1416.59,31.3164 1416.59,68.7578 L 1416.59,1348.92 C 1416.59,1386.35 1386.35,1416.59 1348.91,1416.59 L 1348.91,1416.59 z"
             id="path29"
             style="fill:none;stroke:#0046ac;stroke-width:2.1500001;stroke-linecap:butt;stroke-linejoin:miter;stroke-miterlimit:4;stroke-dasharray:none;stroke-opacity:1" /><path
             d="M 1348.91,1382.77 L 68.75,1382.77 C 50.0391,1382.77 34.9102,1367.64 34.9102,1348.92 L 34.9102,68.7578 C 34.9102,50.0352 50.0391,34.918 68.75,34.918 L 1348.91,34.918 C 1367.63,34.918 1382.75,50.0352 1382.75,68.7578 L 1382.75,1348.92 C 1382.75,1367.64 1367.63,1382.77 1348.91,1382.77"
             id="path31"
             style="fill:#0046ac;fill-opacity:1;fill-rule:nonzero;stroke:none" /><path
             d="M 1348.91,1382.77 L 68.75,1382.77 L 68.75,1382.77 C 50.0391,1382.77 34.9102,1367.64 34.9102,1348.92 L 34.9102,68.7578 C 34.9102,50.0352 50.0391,34.918 68.75,34.918 L 1348.91,34.918 C 1367.63,34.918 1382.75,50.0352 1382.75,68.7578 L 1382.75,1348.92 C 1382.75,1367.64 1367.63,1382.77 1348.91,1382.77 L 1348.91,1382.77 z"
             id="path33"
             style="fill:none;stroke:#ffffff;stroke-width:2.1500001;stroke-linecap:butt;stroke-linejoin:miter;stroke-miterlimit:4;stroke-dasharray:none;stroke-opacity:1" /><path
             d="M 456.109,812.516 L 705.23,215.637 L 955.789,816.117 L 955.789,214.918 L 1123.55,214.918 L 1123.55,1205.64 L 935.641,1205.64 L 705.23,653.395 L 474.109,1205.64 L 287.629,1205.64 L 287.629,214.918 L 456.109,214.918 L 456.109,812.516"
             id="path35"
             style="fill:#ffffff;fill-opacity:1;fill-rule:nonzero;stroke:none" /><path
             d="M 456.109,812.516 L 705.23,215.637 L 955.789,816.117 L 955.789,214.918 L 1123.55,214.918 L 1123.55,1205.64 L 935.641,1205.64 L 705.23,653.395 L 474.109,1205.64 L 287.629,1205.64 L 287.629,214.918 L 456.109,214.918 L 456.109,812.516 z"
             id="path37"
             style="fill:none;stroke:#ffffff;stroke-width:2.1500001;stroke-linecap:butt;stroke-linejoin:miter;stroke-miterlimit:4;stroke-dasharray:none;stroke-opacity:1" /></g></g></g></g></svg>