<?xml version="1.0" encoding="UTF-8" standalone="no"?>
<svg xmlns:dc="http://purl.org/dc/elements/1.1/" xmlns:cc="http://creativecommons.org/ns#" xmlns:rdf="http://www.w3.org/1999/02/22-rdf-syntax-ns#" xmlns:svg="http://www.w3.org/2000/svg" xmlns="http://www.w3.org/2000/svg" xmlns:sodipodi="http://sodipodi.sourceforge.net/DTD/sodipodi-0.dtd" xmlns:inkscape="http://www.inkscape.org/namespaces/inkscape" xml:space="preserve" width="101.16502" height="140.42401" style="fill-rule:evenodd" viewBox="0 0 28.551012 39.630779" id="svg2" version="1.1" inkscape:version="0.48.2 r9819" sodipodi:docname="Chile PE-9.svg"><metadata id="metadata25"><rdf:RDF><cc:Work rdf:about=""><dc:format>image/svg+xml</dc:format><dc:type rdf:resource="http://purl.org/dc/dcmitype/StillImage"/><dc:title/></cc:Work></rdf:RDF></metadata><sodipodi:namedview pagecolor="#ffffff" bordercolor="#666666" borderopacity="1" objecttolerance="10" gridtolerance="10" guidetolerance="10" inkscape:pageopacity="0" inkscape:pageshadow="2" inkscape:window-width="1280" inkscape:window-height="1004" id="namedview23" showgrid="false" fit-margin-top="0" fit-margin-left="0" fit-margin-right="0" fit-margin-bottom="0" inkscape:zoom="4.572726" inkscape:cx="36.693668" inkscape:cy="59.80444" inkscape:window-x="-8" inkscape:window-y="-8" inkscape:window-maximized="1" inkscape:current-layer="Layer_x0020_1"/>
 <defs id="defs4">
  <style type="text/css" id="style6">
   
    .fil0 {fill:red}
    .fil1 {fill:white}
    .fil2 {fill:white;fill-rule:nonzero}
   
  </style>
 </defs>
 <g id="Layer_x0020_1" style="stroke:none" transform="translate(91.168772,-33.65821)">
  <metadata id="CorelCorpID_0Corel-Layer"/>
  
  
  
  
  
 <path inkscape:connector-curvature="0" d="m -77.886336,61.787302 -12.867217,-12.864041 -0.237419,-0.296334 -0.118533,-0.325967 -0.05927,-0.3556 0.05927,-0.385586 0.118533,-0.325966 0.237419,-0.296334 12.867217,-12.864042 0.296334,-0.207786 0.325966,-0.148166 0.355953,-0.05927 0.385586,0.05927 0.325967,0.148166 0.296333,0.207786 12.867217,12.864042 0.207786,0.296334 0.148167,0.325966 0.05927,0.385586 -0.05927,0.3556 -0.148167,0.325967 -0.207786,0.296334 -12.867217,12.864041 -0.296333,0.237067 -0.325967,0.118533 -0.385586,0.05927 -0.355953,-0.05927 -0.325966,-0.118533 -0.296334,-0.237067" style="fill:#f57a2b;fill-opacity:1;fill-rule:nonzero;stroke:none" id="path18350"/><path inkscape:connector-curvature="0" d="m -75.484977,56.185191 -0.05927,-0.385233 -0.148167,-0.325967 -0.207786,-0.296686 -0.296333,-0.20708 -0.325967,-0.14852 -0.385586,-0.05927 -0.355953,0.05927 -0.325966,0.14852 -0.296334,0.20708 -0.207786,0.296686 -0.148166,0.325967 -0.05927,0.385233 0.05927,0.355953 0.148166,0.325967 0.207786,0.296333 0.296334,0.207433 0.325966,0.148167 0.355953,0.05962 0.385586,-0.05962 0.325967,-0.148167 0.296333,-0.207433 0.207786,-0.296333 0.148167,-0.325967 0.05927,-0.355953" style="fill:#000000;fill-opacity:1;fill-rule:evenodd;stroke:none" id="path18352"/><path inkscape:connector-curvature="0" d="m -89.5086,64.189438 0,7.676797 0.05927,0.385586 0.148519,0.325614 0.207434,0.296686 0.296333,0.207433 0.326319,0.148167 0.385234,0.05927 22.384456,0 0.3556,-0.05927 0.355953,-0.148167 0.296333,-0.207433 0.207433,-0.296686 0.14852,-0.325614 0.02963,-0.385586 0,-7.676797 -0.02963,-0.385587 -0.14852,-0.325966 -0.207433,-0.296334 -0.296333,-0.207433 -0.355953,-0.148519 -0.3556,-0.05891 -22.384456,0 -0.385234,0.05891 -0.326319,0.148519 -0.296333,0.207433 -0.207434,0.296334 -0.148519,0.325966 -0.05927,0.385587" style="fill:#f57a2b;fill-opacity:1;fill-rule:evenodd;stroke:none" id="path18354"/><path inkscape:connector-curvature="0" d="m -75.514611,40.594177 0,-0.3556 -0.0889,-0.3556 -0.207433,-0.296686 -0.237419,-0.237067 -0.325967,-0.1778 -0.355953,-0.0889 -0.3556,0 -0.326319,0.0889 -0.325967,0.1778 -0.237067,0.237067 -0.207786,0.296686 -0.0889,0.3556 -0.02963,0.3556 0.533753,11.174589 0.02963,0.267053 0.148167,0.237067 0.1778,0.207433 0.237419,0.118533 0.2667,0.02963 0.296333,-0.02963 0.23742,-0.118533 0.1778,-0.207433 0.118533,-0.237067 0.05927,-0.267053 0.504119,-11.174589" style="fill:#000000;fill-opacity:1;fill-rule:nonzero;stroke:none" id="path18356"/><path inkscape:connector-curvature="0" d="m -77.649269,61.550236 0.2667,0.1778 0.326319,0.118533 0.325967,0 0.296686,-0.118533 0.2667,-0.1778 12.896851,-12.864042 0.1778,-0.2667 0.118533,-0.32632 0,-0.325966 -0.118533,-0.325967 -0.1778,-0.2667 -12.896851,-12.864042 -0.2667,-0.178153 -0.296686,-0.118533 -0.325967,0 -0.326319,0.118533 -0.2667,0.178153 -12.867217,12.864042 -0.1778,0.2667 -0.118533,0.325967 0,0.325966 0.118533,0.32632 0.1778,0.2667 12.867217,12.864042 z m 0.504119,-0.503767 0.148167,0.0889 0.1778,0 0.1778,-0.0889 12.867217,-12.864042 0.0889,-0.148519 0,-0.207434 -0.0889,-0.148166 -12.867217,-12.864042 -0.1778,-0.0889 -0.1778,0 -0.148167,0.0889 -12.867216,12.864042 -0.0889,0.148166 0,0.207434 0.0889,0.148519 12.867216,12.864042" style="fill:#000000;fill-opacity:1;fill-rule:evenodd;stroke:none" id="path18358"/><path inkscape:connector-curvature="0" d="m -89.152647,71.866235 0.05927,0.325967 0.148166,0.296686 0.23742,0.236714 0.296333,0.148519 0.325967,0.05927 22.384456,0 0.325966,-0.05927 0.296687,-0.148519 0.237066,-0.236714 0.148167,-0.296686 0.05927,-0.325967 0,-7.676797 -0.05927,-0.32632 -0.148167,-0.296333 -0.237066,-0.237067 -0.296687,-0.148167 -0.325966,-0.05962 -22.384456,0 -0.325967,0.05962 -0.296333,0.148167 -0.23742,0.237067 -0.148166,0.296333 -0.05927,0.32632 0,7.676797 z m 0.711553,0 0.02963,0.1778 0.148167,0.148167 0.1778,0.02963 22.384456,0 0.1778,-0.02963 0.118533,-0.148167 0.05927,-0.1778 0,-7.676797 -0.05927,-0.178153 -0.118533,-0.148167 -0.1778,-0.02963 -22.384456,0 -0.1778,0.02963 -0.148167,0.148167 -0.02963,0.178153 0,7.676797" style="fill:#000000;fill-opacity:1;fill-rule:evenodd;stroke:none" id="path18360"/><path inkscape:connector-curvature="0" d="m -85.683783,68.24991 -0.919339,0 0,1.689805 -0.592667,0 0,-3.823758 1.512006,0 0.325967,0.02963 0.296686,0.1778 0.237066,0.23742 0.148167,0.296333 0.05927,0.325967 -0.05927,0.325967 -0.148167,0.296333 -0.237066,0.237419 -0.296686,0.177448 -0.325967,0.02963 z m 9.665053,0.681919 0.118533,0.3556 0.178153,0.296334 0.2667,0.237066 0.325967,0.148167 0.355953,0.05962 0.385586,-0.05962 0.3556,-0.177447 0.296333,-0.296334 0.178153,-0.355952 0.05927,-0.385234 0,-0.7112 -1.334205,0 0,0.592667 0.741186,0 0,0.118533 -0.05927,0.237067 -0.118533,0.207433 -0.207786,0.148167 -0.237067,0.05927 -0.237066,-0.02963 -0.23742,-0.0889 -0.148167,-0.207433 -0.0889,-0.237067 -0.05927,-0.8001 0.05927,-0.830439 0.118534,-0.266347 0.207786,-0.207786 0.2667,-0.0889 0.237067,0 0.207786,0.118533 0.148166,0.148167 0.0889,0.1778 0.59302,-0.1778 -0.207786,-0.385233 -0.296334,-0.2667 -0.385586,-0.1778 -0.414866,-0.02963 -0.41522,0.0889 -0.3556,0.237067 -0.237419,0.325967 -0.148167,0.415219 -0.05927,0.918986 0.05927,0.889 z m 5.366456,-0.741186 0.652286,1.778353 -0.622653,0 -0.652286,-1.6891 -0.711553,0 0,1.6891 -0.593019,0 0,-3.853039 1.452738,0 0.355953,0.05927 0.325967,0.1778 0.237067,0.2667 0.118886,0.326319 0.02963,0.384881 -0.08925,0.326319 -0.207433,0.296334 -0.296333,0.237066 z m 2.697691,1.837972 0.41522,-0.0889 0.355953,-0.1778 0.2667,-0.296686 0.1778,-0.3556 0.118533,-0.7112 0,-0.741186 -0.118533,-0.7112 -0.1778,-0.355953 -0.2667,-0.296333 -0.355953,-0.1778 -0.41522,-0.0889 -0.385233,0.0889 -0.355953,0.1778 -0.2667,0.296333 -0.1778,0.355953 -0.148166,0.7112 0,0.741186 0.148166,0.7112 0.1778,0.3556 0.2667,0.296686 0.355953,0.1778 0.385233,0.0889 z m -17.7292,-2.371372 0.237067,-0.05927 0.1778,-0.1778 0.05927,-0.237067 -0.05927,-0.237067 -0.1778,-0.178153 -0.237067,-0.05927 -0.919339,0 0,0.948619 0.919339,0 z m 14.557022,0.02963 0.237067,-0.05927 0.178153,-0.1778 0.05927,-0.23742 -0.05927,-0.237066 -0.178153,-0.1778 -0.237067,-0.0889 -0.859719,0 0,0.978253 0.859719,0 z m -12.570883,-1.57092 2.253544,0 0,0.592667 -1.630891,0 0,0.948619 1.126772,0 0,0.592667 -1.126772,0 0,1.096786 1.719791,0 0,0.593019 -2.342444,0 0,-3.823758 z m 3.053997,0 0.59302,0 0,3.230739 1.749072,0 0,0.593019 -2.342092,0 0,-3.823758 z m 3.024011,0 0.622653,0 0,3.823758 -0.622653,0 0,-3.823758 z m 9.042753,2.845506 0.148167,0.237066 0.207433,0.148167 0.2667,0.05927 0.267053,-0.05927 0.237067,-0.148167 0.118533,-0.237066 0.118886,-0.6223 0,-0.622653 -0.118886,-0.622653 -0.118533,-0.236714 -0.237067,-0.148519 -0.267053,-0.05927 -0.2667,0.05927 -0.207433,0.148519 -0.148167,0.236714 -0.118886,0.622653 0,0.622653 0.118886,0.6223" style="fill:#000000;fill-opacity:1;fill-rule:evenodd;stroke:none" id="path18362"/></g>
</svg>