<?xml version="1.0" encoding="UTF-8" standalone="no"?>
<!DOCTYPE svg PUBLIC "-//W3C//DTD SVG 1.0//EN" "http://www.w3.org/TR/2001/REC-SVG-20010904/DTD/svg10.dtd">
<svg
   xmlns:svg="http://www.w3.org/2000/svg"
   xmlns="http://www.w3.org/2000/svg"
   version="1.0"
   width="551.25201"
   height="558.57001"
   viewBox="0 0 551.252 558.57"
   id="A"
   xml:space="preserve"><defs
   id="defs10" />
<path
   d="M 348.94512,165.84163 L 348.94512,237.90479 L 282.50908,238.19245 L 282.50908,127.16136 L 348.94512,165.84163 z M 153.75983,238.98477 L 92.306624,239.21271 L 92.306624,373.66896 L 154.01166,373.66896 L 154.01166,404.42406 L 124.89407,389.89158 L 18.035026,473.82558 L 174.8836,545.43187 L 282.62853,468.32713 L 282.55786,373.41614 L 349.01679,373.43903 L 349.01679,467.65525 L 461.48575,544.96205 L 537.98797,426.88967 L 475.80117,385.29594 L 475.80117,104.40808 L 328.85654,11.212113 L 153.75983,90.175211 L 153.75983,238.98477 L 153.75983,238.98477 z"
   id="path3"
   style="fill:none;stroke:#ffffff;stroke-width:17.61720085;stroke-miterlimit:3.86400008" />
<path
   d="M 153.939,90.3076 L 328.62761,11.236002 L 475.56129,104.09653 L 475.56129,385.41838 L 538.10742,426.78318 L 461.44793,544.91827 L 348.84758,467.83743 L 348.84758,373.46691 L 282.65341,373.46691 L 282.65341,468.14798 L 175.08765,545.37316 L 17.866808,473.65838 L 124.83435,389.71243 L 153.939,404.5694 L 153.939,373.46592 L 92.331509,373.46592 L 92.331509,239.2376 L 153.94,239.2376 L 153.94,90.3076 M 282.74996,127.22208 L 282.74996,238.32584 L 348.84758,238.32584 L 348.84758,165.68536 L 282.74996,127.22208 z"
   id="path5"
   style="fill:#df091d" />
<path
   d="M 201.20618,302.15426 C 203.57019,304.08629 205.81475,305.88792 208.03443,307.54323 L 208.15487,306.70313 L 213.73591,306.70313 L 213.73591,311.67304 C 215.60821,312.9929 217.45562,314.09677 219.19652,315.23847 L 219.23235,306.70412 L 224.8134,306.70412 L 224.89701,318.99501 C 239.49214,328.39235 247.94084,333.7196 247.14853,348.92395 C 245.79383,367.4648 224.72879,373.21309 224.87213,373.1046 L 224.8124,385.88521 L 219.23136,385.88521 L 219.23136,336.42005 C 217.57506,335.30423 215.76349,334.10481 213.81853,332.89344 L 213.73492,385.88521 L 208.15387,385.88521 L 208.14193,380.47435 C 199.90822,384.49268 197.09928,388.62249 192.0219,395.60505 C 188.84169,375.26556 197.16,370.32053 208.17677,364.52446 L 208.15387,329.42356 C 195.63509,321.48942 179.79177,310.45967 168.13797,292.67232 C 154.44266,286.76676 141.70788,278.65346 131.00167,269.15957 L 304.61528,269.19441 C 281.80138,291.71179 251.8417,302.95853 216.21837,302.93364 C 211.05837,302.93464 206.25869,302.82714 201.20618,302.15426 M 162.00549,257.5535 L 119.5768,257.51667 C 121.05194,259.22175 123.28556,261.55093 124.87019,263.24406 L 310.70994,263.18235 C 312.29556,261.39465 314.19075,259.37802 315.66688,257.48084 L 180.70453,257.51568 C 180.70453,226.44106 198.00009,208.72538 221.11759,208.60593 C 241.54459,209.27781 249.75541,221.43731 260.55717,242.50144 C 262.10497,245.52638 263.94143,244.64946 262.63352,241.32491 C 261.79243,239.22466 258.14439,230.72715 259.22437,228.74635 L 260.9165,228.40892 C 262.45236,229.33462 265.8615,237.23093 266.5931,239.18783 C 269.86986,249.70198 280.8289,224.70015 257.15898,204.54779 C 247.49691,196.96303 235.99838,190.37365 220.78016,190.42143 C 194.28039,190.42242 161.9806,206.03886 162.00549,257.5535 M 246.52642,404.88195 L 186.81511,404.84512 C 185.43354,406.53825 184.17439,408.44539 183.21386,410.34058 L 250.34367,410.37741 C 249.27464,408.26523 248.21855,406.78908 246.52642,404.88195 M 192.81521,399.24215 L 240.70549,399.26504 C 234.25947,394.51412 225.37877,391.11491 216.28008,391.11491 C 206.88279,391.11591 199.27317,393.86513 192.81521,399.24215 M 261.1096,223.09262 C 260.01669,221.19743 260.2934,218.97674 261.7337,218.13665 C 263.18595,217.3075 265.25035,218.17248 266.35421,220.06768 C 267.44713,221.97681 267.17042,224.19649 265.71817,225.03659 C 264.27787,225.87768 262.20152,225.00175 261.1096,223.09262 M 175.4848,257.80433 L 167.88614,257.80433 C 167.88614,257.80433 165.46142,216.13196 197.54421,200.7564 C 229.7594,186.26872 252.64696,207.946 252.64696,207.946 L 247.94184,213.99489 C 247.94184,213.99489 228.85859,194.13119 200.90459,208.0535 C 173.4204,222.42174 175.4848,257.80433 175.4848,257.80433 M 208.17876,370.5007 C 207.25505,370.97848 200.29343,374.47224 197.96526,380.16081 C 197.96526,380.16081 203.44975,376.48887 208.14392,374.60264 L 208.21559,374.60264 L 208.17876,370.5007 M 224.82634,355.14106 C 224.82634,355.14106 231.22359,351.80258 228.34298,344.81007 C 227.62134,343.41654 226.47069,342.0479 224.90995,340.65736 L 224.82634,355.14106 M 191.05041,300.15057 C 186.46673,299.14126 181.91689,297.85723 177.50043,296.34426 C 208.17776,332.19468 230.41933,328.72779 234.20074,345.5984 C 235.06373,350.44688 234.1032,356.77149 225.04233,361.48758 L 224.87412,367.20103 C 224.87412,367.20103 237.59695,363.74409 241.04193,351.35864 C 245.37478,328.71485 221.90891,329.51912 191.05041,300.15057"
   id="path7"
   style="fill:#ffffff" />
</svg>