<?xml version="1.0" encoding="UTF-8" standalone="no"?>
<svg id="Nederlands_verkeersbord_K8" width="700" height="440" viewBox="0 0 700 440" xmlns="http://www.w3.org/2000/svg" version="1.1">

<rect id="achtervlak_wit" width="700" height="440" fill="#f7fbf5"/>

<path id="bord1_bies_rood" fill="#c1121c"
     d="M 36,6 C 19.431456,6 6,19.43145 6,36 l 0,148 c 0,16.56854 13.43146,30 30,30 l 628,0 c 16.56854,0 30,-13.43146 30,-30 L 694,36 C 694,19.43145 680.56854,6 664,6 L 36,6 z m 0,10 628,0 c 11.04569,0 20,8.954305 20,20 l 0,148 c 0,11.04569 -8.95431,20 -20,20 L 36,204 C 24.954305,204 16,195.04569 16,184 L 16,36 C 16,24.954305 24.954305,16 36,16" />
	 
<path id="bord2_bies_rood" fill="#c1121c"
     d="M 36,226 C 19.431456,226 6,239.43145 6,256 l 0,148 c 0,16.56854 13.43146,30 30,30 l 628,0 c 16.56854,0 30,-13.43146 30,-30 l 0,-148 c 0,-16.56855 -13.43146,-30 -30,-30 l -628,0 z m 0,10 628,0 c 11.04569,0 20,8.95431 20,20 l 0,148 c 0,11.04569 -8.95431,20 -20,20 l -628,0 c -11.045695,0 -20,-8.95431 -20,-20 l 0,-148 c 0,-11.04569 8.954305,-20 20,-20" />
	 
<path id="bord1_Esbeek_rood" fill="#c1121c"
     d="m 264.25,26.21875 -7.53125,4.1875 0,56.875 7.53125,0 0,-12.96875 6.0625,-8.78125 6.84375,21.75 8.21875,0 -9.46875,-29.9375 9.71875,-14.09375 -10.15625,0 -11.21875,16.3125 0,-33.34375 z M 140.625,26.3125 133,30.40625 l 0,56.875 7.625,0 0,-2 c 2.04964,1.71621 4.33238,2.5625 6.8125,2.5625 2.9105,0 5.48509,-0.98851 7.75,-2.96875 2.26485,-1.98023 4.02016,-4.67452 5.25,-8.09375 1.22976,-3.41919 1.84371,-7.28517 1.84375,-11.5625 -4e-5,-4.25089 -0.61399,-8.08076 -1.84375,-11.5 -1.22984,-3.41918 -2.9749,-6.09542 -5.25,-8.0625 -2.27516,-1.96698 -4.85999,-2.96871 -7.75,-2.96875 -2.48012,4e-5 -4.76286,0.87759 -6.8125,2.59375 l 0,-18.96875 z m -94.71875,1.78125 0,59.1875 33.5625,0 0,-9.75 -26,0 0,-17.1875 14.65625,0 0,-9.8125 -14.65625,0 0,-12.71875 25.0625,0 0,-9.71875 -32.625,0 z M 187.125,42.6875 c -2.89004,4e-5 -5.48513,1.00177 -7.75,2.96875 -2.26489,1.96708 -4.00996,4.65652 -5.25,8.0625 -1.24007,3.40603 -1.84375,7.22271 -1.84375,11.5 0,3.1948 0.34511,6.17839 1.0625,8.9375 0.71738,2.75914 1.7302,5.15931 3.0625,7.21875 1.33227,2.05945 2.91553,3.65912 4.75,4.78125 1.83443,1.12214 3.83708,1.6875 5.96875,1.6875 2.3981,0 4.60604,-0.57021 6.625,-1.71875 2.01889,-1.14854 3.83974,-2.84948 5.5,-5.09375 l -5.71875,-5.75 c -0.79939,1.21457 -1.67192,2.09693 -2.625,2.625 -0.95312,0.52806 -2.20301,0.78127 -3.78125,0.78125 -1.8652,2e-5 -3.3732,-0.99336 -4.53125,-3 -1.15808,-2.00663 -1.88981,-4.5816 -2.15625,-7.75 l 21.46875,0 c 0.0409,-0.60725 0.0625,-1.53059 0.0625,-2.71875 -3e-5,-4.25089 -0.61398,-8.08076 -1.84375,-11.5 -1.22984,-3.41918 -2.9749,-6.09542 -5.25,-8.0625 -2.27515,-1.96698 -4.85998,-2.96871 -7.75,-2.96875 z m 40.21875,0 c -2.89005,4e-5 -5.48513,1.00177 -7.75,2.96875 -2.26488,1.96708 -4.00996,4.65652 -5.25,8.0625 -1.24005,3.40603 -1.87501,7.22271 -1.875,11.5 -1e-5,3.1948 0.37636,6.17839 1.09375,8.9375 0.71738,2.75914 1.73022,5.15931 3.0625,7.21875 1.33228,2.05945 2.91554,3.65912 4.75,4.78125 1.83444,1.12214 3.83707,1.6875 5.96875,1.6875 2.39808,0 4.60606,-0.57021 6.625,-1.71875 2.01889,-1.14854 3.83974,-2.84948 5.5,-5.09375 l -5.71875,-5.75 c -0.79939,1.21457 -1.67193,2.09693 -2.625,2.625 -0.95312,0.52806 -2.20303,0.78127 -3.78125,0.78125 -1.86521,2e-5 -3.3732,-0.99336 -4.53125,-3 -1.15807,-2.00663 -1.88981,-4.5816 -2.15625,-7.75 l 21.46875,0 c 0.0409,-0.60725 0.0625,-1.53059 0.0625,-2.71875 -3e-5,-4.25089 -0.61398,-8.08076 -1.84375,-11.5 -1.22982,-3.41918 -2.9749,-6.09542 -5.25,-8.0625 -2.27516,-1.96698 -4.85999,-2.96871 -7.75,-2.96875 z m -122.96875,0.25 c -2.17267,5e-5 -4.20807,0.5522 -6.09375,1.6875 -1.885706,1.13538 -3.372186,2.70246 -4.46875,4.65625 -1.09658,1.95387 -1.625006,4.03701 -1.625,6.28125 -6e-6,5.17504 2.46654,8.97233 7.40625,11.375 3.21796,1.53141 5.56622,2.61633 7.0625,3.25 1.39375,0.63368 2.45984,1.27259 3.1875,1.90625 0.72761,0.63369 1.09372,1.52093 1.09375,2.65625 -3e-5,1.00333 -0.45167,1.85933 -1.3125,2.625 -0.86089,0.76571 -1.84146,1.15625 -2.96875,1.15625 -1.49628,0 -2.84296,-0.14706 -4.0625,-0.4375 -1.21957,-0.29043 -2.37118,-0.68583 -3.40625,-1.1875 -1.035094,-0.50164 -1.961898,-1.04411 -2.8125,-1.625 C 95.524378,74.7004 94.673352,74.0976 93.8125,73.4375 l -3.59375,8.65625 c 1.557742,1.24094 3.205522,2.29815 4.9375,3.15625 1.73196,0.85811 3.552297,1.50185 5.46875,1.9375 1.91642,0.43565 3.96309,0.65625 6.15625,0.65625 2.17263,0 4.20803,-0.55217 6.09375,-1.6875 1.88566,-1.13534 3.37214,-2.70241 4.46875,-4.65625 1.09654,-1.95382 1.65621,-4.03697 1.65625,-6.28125 -4e-5,-2.19145 -0.30163,-4.01655 -0.90625,-5.46875 -0.60469,-1.45216 -1.52997,-2.67931 -2.71875,-3.65625 -1.18884,-0.97689 -2.76185,-1.92447 -4.75,-2.875 -2.6236,-1.26733 -4.69126,-2.24131 -6.1875,-2.875 -1.3733,-0.58085 -2.41839,-1.16559 -3.15625,-1.8125 -0.7379,-0.64685 -1.12502,-1.64857 -1.125,-2.96875 -2e-5,-1.02969 0.41987,-1.89888 1.25,-2.625 0.8301,-0.72605 1.84242,-1.09371 3.03125,-1.09375 2.25461,4e-5 4.15022,0.37739 5.6875,1.15625 1.53722,0.77893 3.29203,1.93741 5.21875,3.46875 l 3.34375,-7.9375 c -1.57828,-1.34652 -3.032,-2.42661 -4.34375,-3.21875 -1.31182,-0.79204 -2.74453,-1.38516 -4.3125,-1.78125 -1.56802,-0.396 -3.46313,-0.5937 -5.65625,-0.59375 z M 187.125,52 c 1.72171,3e-5 3.1114,0.71732 4.1875,2.15625 1.07605,1.43902 1.80879,3.43408 2.21875,5.96875 l -12.78125,0 c 0.94283,-5.41262 3.07503,-8.12497 6.375,-8.125 z m 40.21875,0 c 1.7217,3e-5 3.11139,0.71732 4.1875,2.15625 1.07605,1.43902 1.80881,3.43408 2.21875,5.96875 l -12.78125,0 c 0.94284,-5.41262 3.07501,-8.12497 6.375,-8.125 z m -81.0625,0.90625 c 1.51673,3e-5 2.8414,0.51961 3.96875,1.5625 1.12729,1.04296 1.99932,2.49557 2.59375,4.34375 0.59438,1.84825 0.87497,3.97718 0.875,6.40625 -3e-5,2.45551 -0.28062,4.63859 -0.875,6.5 -0.59443,1.86144 -1.44546,3.30084 -2.5625,4.34375 -1.11709,1.04293 -2.46277,1.56252 -4,1.5625 -2.45962,2e-5 -4.34448,-1.23683 -5.65625,-3.71875 l 0,-17.28125 c 1.29127,-2.48187 3.17614,-3.71872 5.65625,-3.71875" />
	 
<path id="bord1_2km" fill="#c1121c"
     d="m 337.06536,59.712184 c 1.5086,-1.689252 3.03292,-3.05006 4.57297,-4.082429 1.54001,-1.032305 3.02243,-1.850131 4.44725,-2.453479 1.42477,-0.60328 2.93337,-1.17978 4.52582,-1.729502 1.59238,-0.54965 2.57717,-0.945156 2.95435,-1.186518 1.17333,-0.72394 2.0743,-1.642318 2.70292,-2.755136 0.62855,-1.11274 0.94284,-2.339478 0.94288,-3.680219 -4e-5,-1.206585 -0.26719,-2.305956 -0.80145,-3.29812 -0.53433,-0.99207 -1.31482,-1.850116 -2.34148,-2.574142 -1.02673,-0.723928 -2.24723,-1.287021 -3.66152,-1.68928 -1.41434,-0.402159 -3.02248,-0.603263 -4.82439,-0.603315 -1.71816,5.2e-5 -3.38915,0.315115 -5.01297,0.945193 -1.62387,0.630179 -3.08009,1.401079 -4.36868,2.312705 -1.28861,0.911724 -2.25244,1.662514 -2.8915,2.252374 -0.63906,0.589954 -1.09479,1.032384 -1.36716,1.327293 l -4.7144,-6.918006 c 0.41905,-0.670298 1.2886,-1.689228 2.60863,-3.056794 1.32002,-1.367457 3.3734,-2.734969 6.16014,-4.102539 2.78672,-1.367453 6.10774,-2.051209 9.96309,-2.05127 5.07057,6.1e-5 8.98874,1.09273 11.75456,3.27801 2.76574,2.185394 4.59911,4.665685 5.50012,7.440879 0.90093,2.775294 1.35142,5.315915 1.35146,7.621873 -4e-5,1.528438 -0.26719,3.170792 -0.80144,4.927069 -0.53434,1.756351 -1.31484,3.405409 -2.34149,4.947179 -1.02672,1.541835 -2.25247,2.889235 -3.67722,4.042207 -0.60767,0.509494 -1.61865,1.012256 -3.03293,1.508286 -1.41435,0.496086 -2.80248,0.978737 -4.16438,1.447955 -1.36196,0.46927 -2.65057,0.992142 -3.8658,1.568618 -1.21529,0.576525 -2.23151,1.240169 -3.04865,1.990938 -2.66103,2.520533 -4.50488,4.960604 -5.53156,7.320217 -1.0267,2.359642 -1.62385,4.075735 -1.79147,5.148284 l 28.25494,0 0,9.371485 -37.14942,0 c -1e-5,-2.198744 0.20951,-4.732662 0.62858,-7.601763 0.41905,-2.869085 1.34097,-6.093463 2.76578,-9.673143 1.42478,-3.579645 3.50959,-6.911279 6.25442,-9.99491" />
	 
<path id="bord1_Reusel" fill="#c1121c"
     d="m 272.28125,115.21875 -7.5625,4.125 0,56.78125 7.5625,0 0,-60.90625 z M 45.90625,117 l 0,59.125 7.59375,0 0,-23.25 12.75,0 8.46875,23.25 8.34375,0 L 74,151.34375 c 2.488508,-1.45033 4.509293,-3.65831 6.03125,-6.625 1.521879,-2.96662 2.281197,-6.25248 2.28125,-9.8125 -5.3e-5,-2.39965 -0.363686,-4.70429 -1.09375,-6.90625 -0.730153,-2.20186 -1.724919,-4.115 -3,-5.75 -1.27516,-1.63491 -2.782746,-2.90755 -4.5,-3.84375 -1.717333,-0.93609 -3.503481,-1.40619 -5.375,-1.40625 l -22.4375,0 z m 7.59375,9.8125 14.78125,0 c 1.768686,5e-5 3.255694,0.77477 4.5,2.34375 1.244237,1.56907 1.874956,3.4822 1.875,5.75 -4.4e-5,2.21514 -0.620479,4.14144 -1.875,5.75 -1.254582,1.60861 -2.751883,2.40629 -4.5,2.40625 l -14.78125,0 0,-16.25 z m 56,4.78125 c -2.89988,5e-5 -5.50868,0.97295 -7.78125,2.9375 -2.272608,1.96462 -4.005739,4.66078 -5.25,8.0625 -1.244278,3.4018 -1.875,7.22805 -1.875,11.5 0,3.19082 0.342668,6.18182 1.0625,8.9375 0.719822,2.75569 1.756921,5.16188 3.09375,7.21875 1.33681,2.05688 2.94054,3.62927 4.78125,4.75 1.84069,1.12073 3.82982,1.6875 5.96875,1.6875 2.40626,0 4.59918,-0.57165 6.625,-1.71875 2.02577,-1.1471 3.89659,-2.85228 5.5625,-5.09375 l -5.75,-5.71875 c -0.80212,1.21303 -1.66868,2.06635 -2.625,2.59375 -0.95636,0.52741 -2.22889,0.8125 -3.8125,0.8125 -1.87156,0 -3.40051,-1.0271 -4.5625,-3.03125 -1.16203,-2.00413 -1.88891,-4.58556 -2.15625,-7.75 l 21.53125,0 c 0.0411,-0.6065 0.0625,-1.50082 0.0625,-2.6875 -3e-5,-4.24558 -0.60979,-8.05378 -1.84375,-11.46875 -1.23401,-3.4149 -2.99841,-6.12913 -5.28125,-8.09375 -2.28291,-1.96455 -4.85015,-2.93745 -7.75,-2.9375 z m 125.71875,0 c -2.89989,5e-5 -5.47741,0.97295 -7.75,2.9375 -2.2726,1.96462 -4.03698,4.66078 -5.28125,8.0625 -1.24427,3.4018 -1.84376,7.22805 -1.84375,11.5 -1e-5,3.19082 0.34267,6.18182 1.0625,8.9375 0.71981,2.75569 1.75691,5.16188 3.09375,7.21875 1.33681,2.05688 2.90928,3.62927 4.75,4.75 1.84068,1.12073 3.82982,1.6875 5.96875,1.6875 2.40625,0 4.63043,-0.57165 6.65625,-1.71875 2.02576,-1.1471 3.86534,-2.85228 5.53125,-5.09375 l -5.71875,-5.71875 c -0.80212,1.21303 -1.69993,2.06635 -2.65625,2.59375 -0.95637,0.52741 -2.22891,0.8125 -3.8125,0.8125 -1.87158,0 -3.36926,-1.0271 -4.53125,-3.03125 -1.16202,-2.00413 -1.88889,-4.58556 -2.15625,-7.75 l 21.53125,0 c 0.0411,-0.6065 0.0625,-1.50082 0.0625,-2.6875 -4e-5,-4.24558 -0.60979,-8.05378 -1.84375,-11.46875 -1.23402,-3.4149 -2.9984,-6.12913 -5.28125,-8.09375 -2.2829,-1.96455 -4.88141,-2.93745 -7.78125,-2.9375 z m -40.375,0.25 c -1.87606,0.12405 -3.65691,0.69536 -5.3125,1.6875 -1.89212,1.13396 -3.36846,2.67365 -4.46875,4.625 -1.10032,1.95144 -1.65626,4.03981 -1.65625,6.28125 -1e-5,5.16859 2.48098,8.97533 7.4375,11.375 3.22892,1.52949 5.59237,2.58589 7.09375,3.21875 1.39849,0.63291 2.45736,1.27339 3.1875,1.90625 0.73008,0.63291 1.09372,1.52234 1.09375,2.65625 -3e-5,1.00209 -0.41749,1.89152 -1.28125,2.65625 -0.86382,0.76475 -1.86887,1.15626 -3,1.15625 -1.50138,1e-5 -2.87007,-0.14742 -4.09375,-0.4375 -1.22372,-0.29006 -2.36766,-0.68646 -3.40625,-1.1875 -1.03862,-0.50103 -1.95901,-1.04485 -2.8125,-1.625 -0.85353,-0.58013 -1.72997,-1.21574 -2.59375,-1.875 l -3.59375,8.65625 c 1.56305,1.23941 3.19964,2.29922 4.9375,3.15625 1.73787,0.85703 3.57703,1.50239 5.5,1.9375 1.92295,0.43511 3.98687,0.65625 6.1875,0.65625 2.18002,0 4.20161,-0.55358 6.09375,-1.6875 1.89209,-1.13392 3.39966,-2.70485 4.5,-4.65625 1.10027,-1.9514 1.65622,-4.03978 1.65625,-6.28125 -3e-5,-2.18872 -0.29957,-3.98711 -0.90625,-5.4375 -0.60675,-1.45033 -1.52593,-2.68054 -2.71875,-3.65625 -1.19287,-0.97568 -2.78633,-1.92565 -4.78125,-2.875 -2.63253,-1.26573 -4.68618,-2.21083 -6.1875,-2.84375 -1.37797,-0.58012 -2.44712,-1.19765 -3.1875,-1.84375 -0.74041,-0.64605 -1.09376,-1.65021 -1.09375,-2.96875 -1e-5,-1.02841 0.41703,-1.89979 1.25,-2.625 0.83292,-0.72515 1.83838,-1.09371 3.03125,-1.09375 2.26229,4e-5 4.145,0.40961 5.6875,1.1875 1.54246,0.77795 3.28549,1.90805 5.21875,3.4375 l 3.375,-7.9375 c -1.58364,-1.34483 -3.02753,-2.39635 -4.34375,-3.1875 -1.31628,-0.79106 -2.77044,-1.38566 -4.34375,-1.78125 -1.57336,-0.39552 -3.45565,-0.59371 -5.65625,-0.59375 -0.27251,0 -0.54449,-0.0177 -0.8125,0 z m -55.875,0.3125 0,28.34375 c -1e-5,2.95349 0.58759,5.65941 1.71875,8.125 1.13116,2.46562 2.65021,4.42464 4.59375,5.875 1.94352,1.45036 4.07153,2.1875 6.375,2.1875 3.64023,0 6.70962,-1.68224 9.21875,-5.03125 l 0,4.46875 7.59375,0 0,-43.96875 -7.59375,0 0,25.28125 c -3e-5,1.66134 -0.29997,3.16489 -0.9375,4.5625 -0.63758,1.39763 -1.50377,2.52628 -2.59375,3.34375 -1.09006,0.81749 -2.2981,1.21876 -3.59375,1.21875 -1.31628,1e-5 -2.50375,-0.41933 -3.59375,-1.25 -1.09004,-0.83065 -1.96649,-1.92805 -2.59375,-3.3125 -0.62729,-1.38442 -0.93751,-2.90116 -0.9375,-4.5625 l 0,-25.28125 -7.65625,0 z M 109.5,140.875 c 1.72757,5e-5 3.10773,0.71911 4.1875,2.15625 1.07971,1.43721 1.83865,3.43723 2.25,5.96875 l -12.84375,0 c 0.94604,-5.40587 3.09505,-8.12495 6.40625,-8.125 z m 125.71875,0 c 1.72756,5e-5 3.13899,0.71911 4.21875,2.15625 1.07971,1.43721 1.83865,3.43723 2.25,5.96875 l -12.84375,0 c 0.94605,-5.40587 3.06378,-8.12495 6.375,-8.125" />

<path id="bord1_12km" fill="#c1121c"
     d="m 345.96875,115.21875 c -3.85596,7e-5 -7.18159,0.69125 -9.96875,2.0625 -2.78719,1.37137 -4.86727,2.72251 -6.1875,4.09375 -1.32025,1.37136 -2.17463,2.42159 -2.59375,3.09375 l 4.71875,6.9375 c 0.27243,-0.29573 0.73582,-0.75216 1.375,-1.34375 0.63915,-0.59149 1.58618,-1.33574 2.875,-2.25 1.2888,-0.91415 2.75088,-1.71183 4.375,-2.34375 1.62409,-0.63182 3.28157,-0.93745 5,-0.9375 1.80222,5e-5 3.42918,0.22173 4.84375,0.625 1.41452,0.40338 2.62936,0.96158 3.65625,1.6875 1.02682,0.72604 1.80933,1.56769 2.34375,2.5625 0.53435,0.99492 0.81246,2.10257 0.8125,3.3125 -4e-5,1.34446 -0.3401,2.57168 -0.96875,3.6875 -0.62871,1.11591 -1.51399,2.05531 -2.6875,2.78125 -0.37724,0.24203 -1.3761,0.63632 -2.96875,1.1875 -1.5927,0.55125 -3.07499,1.1138 -4.5,1.71875 -1.42504,0.60502 -2.92848,1.43358 -4.46875,2.46875 -1.54029,1.03523 -3.05367,2.39981 -4.5625,4.09375 -2.74528,3.09217 -4.82499,6.4417 -6.25,10.03125 -1.42503,3.58961 -2.36213,6.81047 -2.78125,9.6875 -0.41913,2.87706 -0.625,5.42017 -0.625,7.625 l 37.15625,0 0,-9.40625 -28.25,0 c 0.16763,-1.07552 0.75437,-2.79006 1.78125,-5.15625 1.02683,-2.36616 2.86979,-4.81624 5.53125,-7.34375 0.81727,-0.75285 1.84701,-1.42187 3.0625,-2 1.21544,-0.57807 2.48157,-1.09193 3.84375,-1.5625 1.36213,-0.47051 2.77293,-0.9713 4.1875,-1.46875 1.41452,-0.49741 2.4235,-0.9891 3.03125,-1.5 1.42499,-1.15617 2.62936,-2.51638 3.65625,-4.0625 1.02682,-1.54603 1.80933,-3.17628 2.34375,-4.9375 0.53434,-1.76114 0.81246,-3.40482 0.8125,-4.9375 -4e-5,-2.31235 -0.44267,-4.87326 -1.34375,-7.65625 -0.90116,-2.78288 -2.73383,-5.2773 -5.5,-7.46875 -2.76626,-2.19134 -6.67862,-3.28118 -11.75,-3.28125 z m -34.34375,0.875 c -0.25968,0.50762 -0.67167,1.23468 -1.25,2.15625 -0.57834,0.92169 -1.22935,1.66689 -1.9375,2.28125 -0.68458,0.53433 -1.51622,1.00105 -2.53125,1.375 -1.01504,0.37404 -1.79318,0.61649 -2.3125,0.75 l 0,7.625 7.34375,0 0,45.71875 8.09375,0 0,-59.90625 -7.40625,0" />
	 
<path id="bord1_richtingpijl" fill="#c1121c"
     d="m 611.5,24.499944 c 1.26605,0 2.37882,0.654379 3.02062,1.6425 l 32.31,46.670629 0.0281,0.0394 c 0.40337,0.5816 0.64128,1.28614 0.64128,2.04751 0,1.98822 -1.61177,3.6 -3.6,3.6 -0.28293,0 -0.55713,-0.0339 -0.82125,-0.0956 L 620.5,73.100003 621.94,105.5 l -20.88,0 1.44,-32.399997 -22.57875,5.30437 c -0.26412,0.0617 -0.53832,0.0956 -0.82125,0.0956 -1.98823,0 -3.6,-1.61178 -3.6,-3.6 0,-0.76137 0.23791,-1.46591 0.64125,-2.0475 l 32.4,-46.799999 c 0.64993,-0.93716 1.7319,-1.5525 2.95875,-1.5525" />
	 
<path id="bord1_fiets" fill="#c1121c"
     d="m 616.84792,120.733 0,3.32918 5.77291,0 c 0.723,0 1.38419,0.44416 1.62917,1.13334 l 1.98333,5.52503 -27.87291,0 -1.59375,-3.32918 4.95833,0 c 0.90823,-0.006 1.62917,-0.74569 1.62917,-1.6646 0,-0.91889 -0.72094,-1.65892 -1.62917,-1.66459 l -12.75,0 0,3.32919 4.14375,0 2.37292,4.99378 -4.60417,9.70423 c -1.70865,-0.60185 -3.53965,-0.95626 -5.45417,-0.95626 -9.07588,0 -16.43333,7.35751 -16.43333,16.43345 0,9.07593 7.35745,16.43343 16.43333,16.43343 8.58092,0 15.61964,-6.59343 16.3625,-14.98135 l 7.33125,0 c 0.48997,0 0.98776,-0.23029 1.31042,-0.60208 l 18.275,-20.82513 1.84167,5.13544 c -5.56229,2.63357 -9.42084,8.27664 -9.42084,14.83969 0,9.07593 7.35746,16.43343 16.43334,16.43343 C 646.64255,174 654,166.6425 654,157.56657 c 0,-9.07594 -7.35745,-16.43345 -16.43333,-16.43345 -1.35484,0 -2.67176,0.18669 -3.93125,0.49584 l -6.26875,-17.46053 c -0.74093,-2.06449 -2.6831,-3.43543 -4.85209,-3.43543 l -5.66666,0 z m -16.89375,13.31674 27.48333,0 -17.85,20.3293 -9.63333,-20.3293 z m -2.62084,2.16044 9.20834,19.44387 -4.78125,0 c -0.60409,-5.17402 -3.63313,-9.62351 -7.89792,-12.18341 l 3.47083,-7.26046 z m -11.9,8.32296 c 1.38911,0 2.71123,0.23502 3.96667,0.63751 l -5.45417,11.51049 c -0.23901,0.50781 -0.19253,1.08076 0.1062,1.55834 0.29577,0.47456 0.82257,0.77917 1.38125,0.77917 l 12.9625,0 c -0.71663,6.52062 -6.25105,11.58133 -12.9625,11.58133 -7.19811,0 -13.03334,-5.83526 -13.03334,-13.03341 0,-7.19816 5.83523,-13.03343 13.03334,-13.03343 z m 52.13334,0 c 7.19811,0 13.03333,5.83527 13.03333,13.03343 0,7.19815 -5.83522,13.03341 -13.03333,13.03341 -7.19811,0 -13.03334,-5.83526 -13.03334,-13.03341 0,-5.08562 2.94137,-9.46902 7.18959,-11.61675 l 4.28541,11.97091 c 0.31669,0.85542 1.27652,1.27062 2.125,0.95625 0.83534,-0.31056 1.23985,-1.23948 0.95625,-2.08959 l -4.28541,-11.97091 c 0.89284,-0.19327 1.8118,-0.28334 2.7625,-0.28334 z m -45.15625,2.01876 c 3.13112,1.98737 5.35206,5.27526 5.91458,9.10215 l -10.23542,0 4.32084,-9.10215" />
	 
<path id="bord2_richtingpijl" fill="#c1121c"
     d="m 48,285 c 0,1.26605 0.65438,2.37882 1.642499,3.02062 l 46.670601,32.31 0.0394,0.0281 C 96.9341,320.76209 97.638629,321 98.399999,321 100.38822,321 102,319.38823 102,317.4 c 0,-0.28293 -0.0339,-0.55713 -0.0956,-0.82125 L 96.60002,294 129,295.44 129,274.56 96.60002,276 101.9044,253.42125 C 101.9661,253.15713 102,252.88293 102,252.6 c 0,-1.98823 -1.61178,-3.6 -3.600001,-3.6 -0.76137,0 -1.465899,0.23791 -2.047499,0.64125 l -46.799971,32.4 C 48.61537,282.69118 48.00003,283.77315 48.00003,285" />
	 
<path id="bord2_fiets" fill="#c1121c"
     d="m 83.152081,340.73333 0,3.32917 -5.772916,0 c -0.723,0 -1.384185,0.44417 -1.629167,1.13333 l -1.983333,5.525 27.872915,0 1.59374,-3.32916 -4.95832,0 c -0.908229,-0.006 -1.629169,-0.74569 -1.629169,-1.66459 0,-0.91889 0.72094,-1.65891 1.629169,-1.66458 l 12.75,0 0,3.32917 -4.14376,0 -2.37292,4.99375 4.60418,9.70416 c 1.70865,-0.60185 3.53965,-0.95625 5.45417,-0.95625 9.07588,0 16.43333,7.35746 16.43333,16.43334 C 131,386.64254 123.64255,394 114.56667,394 c -8.58094,0 -15.61964,-6.5934 -16.36251,-14.98125 l -7.331245,0 c -0.489963,0 -0.987757,-0.23029 -1.310417,-0.60208 l -18.275001,-20.825 -1.841666,5.13541 c 5.562286,2.63355 9.420834,8.27659 9.420834,14.83959 C 78.866665,386.64254 71.509211,394 62.433333,394 53.357452,394 46,386.64254 46,377.56667 c 0,-9.07588 7.357452,-16.43334 16.433333,-16.43334 1.354832,0 2.671755,0.18669 3.931251,0.49584 l 6.268748,-17.46042 c 0.740927,-2.06448 2.683098,-3.43542 4.852083,-3.43542 l 5.666666,0 z m 16.893749,13.31667 -27.483332,0 17.85,20.32917 9.633332,-20.32917 z m 2.62082,2.16042 -9.208319,19.44375 4.781249,0 c 0.60409,-5.174 3.63313,-9.62345 7.89791,-12.18334 l -3.47084,-7.26041 z m 11.90002,8.32291 c -1.38911,0 -2.71123,0.23501 -3.96667,0.6375 l 5.45417,11.51042 c 0.239,0.50781 0.19253,1.08075 -0.1062,1.55833 -0.29578,0.47456 -0.82257,0.77917 -1.38125,0.77917 l -12.9625,0 c 0.71663,6.52055 6.25104,11.58125 12.9625,11.58125 7.19811,0 13.03333,-5.83523 13.03333,-13.03333 0,-7.19812 -5.83522,-13.03334 -13.03333,-13.03334 z m -52.133337,0 c -7.198117,0 -13.033333,5.83522 -13.033333,13.03334 0,7.1981 5.835216,13.03333 13.033333,13.03333 7.198104,0 13.033332,-5.83523 13.033332,-13.03333 0,-5.08559 -2.941363,-9.46896 -7.189583,-11.61667 l -4.285416,11.97083 c -0.316686,0.85542 -1.276518,1.27061 -2.124999,0.95625 -0.835335,-0.31057 -1.239845,-1.23948 -0.956251,-2.08958 l 4.285418,-11.97083 c -0.892841,-0.19328 -1.811803,-0.28334 -2.762501,-0.28334 z m 45.156237,2.01875 c -3.13113,1.98734 -5.35205,5.27521 -5.91457,9.10209 l 10.23542,0 -4.32085,-9.10209" />
	 
<path id="bord2_Esbeek_groen" fill="#008754"
     d="m 400.84375,246.1875 -8.4375,4.1875 -12.09375,56.875 7.5625,0 2.75,-12.96875 7.9375,-8.78125 2.28125,21.75 8.21875,0 -3.125,-29.9375 12.75,-14.09375 -10.1875,0 -14.75,16.3125 7.09375,-33.34375 z m -124.125,0.0937 -8.53125,4.09375 -12.09375,56.875 7.65625,0 0.4375,-2 c 1.69288,1.71621 3.79132,2.5625 6.28125,2.5625 2.92202,0 5.71137,-0.98851 8.40625,-2.96875 2.69484,-1.98023 5.03834,-4.67453 7,-8.09375 1.96158,-3.4192 3.40306,-7.28517 4.3125,-11.5625 0.90375,-4.25088 1.10141,-8.08076 0.59375,-11.5 -0.50775,-3.41917 -1.69662,-6.09542 -3.5625,-8.0625 -1.86596,-1.967 -4.25481,-2.96871 -7.15625,-2.96875 -2.48994,4e-5 -4.95236,0.87759 -7.375,2.59375 l 4.03125,-18.96875 z m -95.46875,1.7813 -12.59375,59.1875 33.71875,0 2.0625,-9.75 -26.125,0 3.65625,-17.1875 14.71875,0 2.09375,-9.8125 -14.71875,0 2.71875,-12.71875 25.15625,0 2.0625,-9.71875 -32.75,0 z m 138.65625,14.59375 c -2.90149,4e-5 -5.68296,1.00175 -8.375,2.96875 -2.69207,1.96708 -5.0309,4.65654 -7,8.0625 -1.96911,3.40605 -3.4031,7.22271 -4.3125,11.5 -0.67924,3.19481 -0.97736,6.17838 -0.84375,8.9375 0.13361,2.75913 0.66279,5.15931 1.5625,7.21875 0.89968,2.05946 2.14685,3.65912 3.75,4.78125 1.60311,1.12213 3.48489,1.6875 5.625,1.6875 2.40758,0 4.72887,-0.57021 7,-1.71875 2.27107,-1.14854 4.48101,-2.84948 6.625,-5.09375 l -4.5,-5.75 c -1.06079,1.21455 -2.14964,2.09695 -3.21875,2.625 -1.06916,0.52808 -2.38429,0.78125 -3.96875,0.78125 -1.8726,0 -3.17026,-0.99335 -3.90625,-3 -0.73603,-2.00663 -0.90613,-4.58161 -0.5,-7.75 l 21.5625,0 c 0.1702,-0.60726 0.37235,-1.53058 0.625,-2.71875 0.90375,-4.25088 1.10142,-8.08076 0.59375,-11.5 -0.50775,-3.41917 -1.69663,-6.09542 -3.5625,-8.0625 -1.86597,-1.967 -4.25481,-2.96871 -7.15625,-2.96875 z m 40.375,0 c -2.9015,4e-5 -5.68296,1.00175 -8.375,2.96875 -2.69208,1.96708 -5.03091,4.65654 -7,8.0625 -1.96912,3.40605 -3.40311,7.22271 -4.3125,11.5 -0.67926,3.19481 -0.97736,6.17838 -0.84375,8.9375 0.13359,2.75913 0.66279,5.15931 1.5625,7.21875 0.89969,2.05946 2.14685,3.65912 3.75,4.78125 1.60312,1.12213 3.48489,1.6875 5.625,1.6875 2.40758,0 4.72888,-0.57021 7,-1.71875 2.27108,-1.14854 4.48102,-2.84948 6.625,-5.09375 l -4.5,-5.75 c -1.06079,1.21455 -2.14963,2.09695 -3.21875,2.625 -1.06916,0.52808 -2.38428,0.78125 -3.96875,0.78125 -1.8726,0 -3.17025,-0.99335 -3.90625,-3 -0.73603,-2.00663 -0.90614,-4.58161 -0.5,-7.75 l 21.53125,0 c 0.1702,-0.60726 0.4036,-1.53058 0.65625,-2.71875 0.90375,-4.25088 1.10142,-8.08076 0.59375,-11.5 -0.50775,-3.41917 -1.69661,-6.09542 -3.5625,-8.0625 -1.86595,-1.967 -4.25481,-2.96871 -7.15625,-2.96875 z m -123.5,0.25 c -2.18126,4e-5 -4.33423,0.55221 -6.46875,1.6875 -2.13456,1.13537 -3.95245,2.70246 -5.46875,4.65625 -1.51633,1.95387 -2.52286,4.03702 -3,6.28125 -1.10027,5.17505 0.58282,8.97233 5.03125,11.375 2.90511,1.5314 5.03877,2.61635 6.40625,3.25 1.26454,0.6337 2.18544,1.2726 2.78125,1.90625 0.5958,0.6337 0.7726,1.48968 0.53125,2.625 -0.21335,1.00334 -0.81671,1.89057 -1.84375,2.65625 -1.02708,0.76571 -2.11824,1.15626 -3.25,1.15625 -1.5022,10e-6 -2.83739,-0.14706 -4,-0.4375 -1.16264,-0.29042 -2.1925,-0.68583 -3.125,-1.1875 -0.93253,-0.50166 -1.76953,-1.04412 -2.5,-1.625 -0.73049,-0.58085 -1.46358,-1.18367 -2.1875,-1.84375 l -5.4375,8.65625 c 1.30006,1.24095 2.72486,2.29815 4.28125,3.15625 1.55637,0.85811 3.23109,1.50185 5.0625,1.9375 1.83139,0.43565 3.86066,0.65625 6.0625,0.65625 2.18122,0 4.33418,-0.58341 6.46875,-1.71875 2.1345,-1.13533 3.9524,-2.67116 5.46875,-4.625 1.51628,-1.95383 2.52281,-4.03698 3,-6.28125 0.46589,-2.19145 0.54826,-4.01656 0.25,-5.46875 -0.29833,-1.45215 -0.95172,-2.67932 -1.9375,-3.65625 -0.98584,-0.9769 -2.36232,-1.92447 -4.15625,-2.875 -2.36453,-1.26732 -4.22632,-2.24129 -5.59375,-2.875 -1.25523,-0.58084 -2.178,-1.1656 -2.78125,-1.8125 -0.60329,-0.64686 -0.7807,-1.64856 -0.5,-2.96875 0.21891,-1.02969 0.82471,-1.89888 1.8125,-2.625 0.98775,-0.72605 2.08772,-1.09371 3.28125,-1.09375 2.26354,4e-5 4.09099,0.37738 5.46875,1.15625 1.3777,0.77892 2.85999,1.93739 4.46875,3.46875 l 5.0625,-7.9375 c -1.29823,-1.34652 -2.53897,-2.42662 -3.6875,-3.21875 -1.1486,-0.79206 -2.44753,-1.38516 -3.9375,-1.78125 -1.49002,-0.39601 -3.3607,-0.59371 -5.5625,-0.59375 z m 81.15625,9.0625 c 1.72851,4e-5 2.97557,0.71732 3.75,2.15625 0.77436,1.439 1.09607,3.43407 0.96875,5.96875 l -12.84375,0 c 2.09734,-5.41262 4.81195,-8.12496 8.125,-8.125 z m 40.375,0 c 1.72849,4e-5 2.97558,0.71732 3.75,2.15625 0.77436,1.439 1.09607,3.43407 0.96875,5.96875 l -12.84375,0 c 2.09734,-5.41262 4.81194,-8.12496 8.125,-8.125 z M 276.75,272.875 c 1.52273,4e-5 2.74618,0.51961 3.65625,1.5625 0.91001,1.04296 1.45241,2.49556 1.65625,4.34375 0.20377,1.84825 0.0477,3.97718 -0.46875,6.40625 -0.52209,2.45552 -1.28877,4.63859 -2.28125,6.5 -0.99255,1.86143 -2.1568,3.30084 -3.5,4.34375 -1.34326,1.04293 -2.76919,1.56252 -4.3125,1.5625 -2.46935,2e-5 -4.11697,-1.23683 -4.90625,-3.71875 l 3.6875,-17.28125 c 1.82405,-2.48187 3.97881,-3.71871 6.46875,-3.71875" />
	 
<path id="bord2_3km_groen" fill="#008754"
     d="m 626.47342,261.10682 -3.83662,-6.5294 c 1.0665,-1.39719 3.13693,-3.14373 6.21131,-5.23964 3.07433,-2.0958 7.04781,-3.14372 11.92044,-3.14378 3.56893,6e-5 6.36868,0.95394 8.39931,2.86164 2.03052,1.90783 3.34424,4.17162 3.94117,6.79139 0.59683,2.61987 0.6667,5.00456 0.20959,7.15411 -0.71857,3.27818 -1.62437,5.80396 -2.71741,7.57733 -1.09313,1.77345 -1.93474,2.94229 -2.52487,3.50653 0.17367,0.18812 0.43951,0.57102 0.79755,1.14868 0.35793,0.57775 0.73856,1.45102 1.14185,2.61983 0.40319,1.16887 0.65771,2.66016 0.76358,4.47384 0.10575,1.81375 -0.0699,3.79541 -0.52702,5.94498 -0.66864,3.1438 -2.14038,6.2204 -4.41522,9.22982 -2.27496,3.00945 -5.09234,5.45461 -8.45221,7.3355 -3.35993,1.8809 -6.87778,2.82135 -10.55357,2.82135 -3.95366,0 -7.11599,-1.00763 -9.487,-3.02287 -2.37104,-2.01524 -4.00619,-4.02377 -4.90545,-6.02559 -0.89929,-2.00179 -1.44625,-3.49979 -1.64085,-4.49399 l 7.18123,-4.67538 c 0.18339,0.6449 0.64409,1.61894 1.38207,2.92211 0.73797,1.3032 2.00381,2.58624 3.79756,3.84912 1.79372,1.26289 4.06901,1.89434 6.8259,1.89434 1.62417,0 3.18337,-0.32244 4.6776,-0.96732 1.49418,-0.64487 2.81752,-1.49127 3.97006,-2.53922 1.15246,-1.04791 2.08952,-2.16301 2.81116,-3.34531 0.72155,-1.18225 1.20234,-2.33766 1.44239,-3.46621 0.71426,-3.35873 0.20872,-5.62924 -1.51662,-6.81154 -1.72542,-1.18225 -3.80626,-1.77339 -6.24253,-1.77341 -0.49157,2e-5 -0.91793,0.0202 -1.27909,0.0604 -0.36122,0.0404 -0.60877,0.0739 -0.74269,0.10077 l 2.0229,-9.51195 c 1.58142,3e-5 3.0101,-0.0604 4.28607,-0.18138 1.27588,-0.12087 2.2288,-0.35599 2.85877,-0.70534 1.68451,-0.88667 2.83823,-2.79444 3.46113,-5.7233 0.20568,-0.96727 0.15644,-2.04207 -0.14774,-3.22439 -0.30425,-1.18223 -1.078,-2.21672 -2.32123,-3.10348 -1.24333,-0.88665 -3.02969,-1.33001 -5.35909,-1.33006 -2.62867,5e-5 -4.97704,0.69195 -7.04509,2.0757 -2.06812,1.38385 -3.53056,2.53254 -4.38733,3.44607" />
	 
<path id="bord2_Middelbeers_rood" fill="#c1121c"
     d="m 286.82125,335.218 -7.492,4.11434 0,14.76944 c -2.05428,-1.66152 -4.2898,-2.49669 -6.68641,-2.49674 -2.85987,5e-5 -5.40084,0.98908 -7.62627,2.95389 -2.22545,1.96491 -3.94741,4.63746 -5.15579,8.05286 -1.2084,3.41546 -1.79915,7.25287 -1.79915,11.49907 0,4.2726 0.59075,8.1188 1.79915,11.53423 1.20838,3.41543 2.94712,6.10998 5.18264,8.08802 2.2355,1.97805 4.75969,2.95389 7.59942,2.95389 2.4369,0 4.67241,-0.85276 6.68641,-2.56707 l 0,2.03959 7.492,0 0,-60.94152 z m 42.1593,0 -7.492,4.11434 0,14.76944 c -2.05428,-1.66152 -4.26294,-2.49669 -6.65956,-2.49674 -2.85987,5e-5 -5.40084,0.98908 -7.62627,2.95389 -2.22546,1.96491 -3.9474,4.63746 -5.15579,8.05286 -1.20838,3.41546 -1.82601,7.25287 -1.826,11.49907 -1e-5,4.2726 0.61762,8.1188 1.826,11.53423 1.20839,3.41543 2.92027,6.10998 5.15579,8.08802 2.23551,1.97805 4.78654,2.95389 7.62627,2.95389 2.43689,0 4.64555,-0.85276 6.65956,-2.56707 l 0,2.03959 7.492,0 0,-60.94152 z m 64.28622,0 -7.38459,4.11434 0,56.82718 7.38459,0 0,-60.94152 z m 24.86593,0 -7.492,4.11434 0,56.82718 7.492,0 0,-2.03959 c 2.01397,1.71431 4.24948,2.56707 6.68641,2.56707 2.85983,0 5.40079,-0.97584 7.62627,-2.95389 2.22541,-1.97804 3.94737,-4.67259 5.15579,-8.08802 1.20835,-3.41543 1.79912,-7.26163 1.79916,-11.53423 -4e-5,-4.2462 -0.59081,-8.08361 -1.79916,-11.49907 -1.20842,-3.4154 -2.94716,-6.08795 -5.18264,-8.05286 -2.23555,-1.96481 -4.75973,-2.95384 -7.59942,-2.95389 -2.43693,5e-5 -4.67244,0.85281 -6.68641,2.56707 l 0,-18.95411 z m -243.2887,1.79343 0,59.14809 7.492,0 0,-36.95876 13.6145,36.53678 13.6145,-36.53678 0,36.95876 7.4383,0 0,-59.14809 -7.4383,0 -13.6145,36.46645 -13.6145,-36.46645 -7.492,0 z m 65.49461,0.52748 c -0.78546,7e-5 -1.49371,0.27259 -2.14825,0.77364 -0.65455,0.50117 -1.16476,1.1693 -1.55747,2.03959 -0.39275,0.87039 -0.59078,1.81106 -0.59077,2.81322 -1e-5,1.52975 0.39943,2.85285 1.23524,3.97369 0.8358,1.12094 1.85285,1.68798 3.06125,1.68793 1.16809,5e-5 2.17173,-0.56699 3.00754,-1.68793 0.83579,-1.12084 1.26208,-2.44394 1.26209,-3.97369 -1e-5,-1.00216 -0.18126,-1.94283 -0.56391,-2.81322 -0.38267,-0.87029 -0.90295,-1.53842 -1.55748,-2.03959 -0.65456,-0.50105 -1.38294,-0.77357 -2.14824,-0.77364 z m 307.76289,13.89031 c -1.7119,4e-5 -3.25931,0.47477 -4.61872,1.37145 -1.35946,0.89675 -2.63833,2.17149 -3.86684,3.83302 l 0,-4.466 -7.41145,0 0,43.99183 7.41145,0 0,-25.28387 c -10e-6,-2.53188 0.68809,-4.69015 2.06768,-6.47042 1.37955,-1.78021 3.02767,-2.67254 4.94096,-2.67257 2.2355,3e-5 3.8601,0.99346 4.88726,3.02422 l 2.20195,-10.90125 c -0.70491,-0.79118 -1.49708,-1.3846 -2.36307,-1.79344 -0.86604,-0.40875 -1.94015,-0.63293 -3.24922,-0.63297 z m -191.11321,0.17582 c -2.83972,5e-5 -5.37399,0.98908 -7.59941,2.95389 -2.22547,1.96491 -3.93734,4.65066 -5.15579,8.05286 -1.21847,3.40227 -1.82601,7.22651 -1.82601,11.49907 0,3.19126 0.34238,6.17593 1.04727,8.93199 0.70489,2.7561 1.7253,5.15173 3.0344,7.20889 1.30907,2.05718 2.84305,3.62643 4.64557,4.74732 1.8025,1.12089 3.75942,1.68794 5.85397,1.68794 2.35634,0 4.54149,-0.57583 6.52529,-1.7231 1.98374,-1.14727 3.76612,-2.82202 5.39747,-5.06381 l -5.61229,-5.73195 c -0.78548,1.21321 -1.64141,2.07477 -2.57789,2.60224 -0.93653,0.52749 -2.18183,0.77364 -3.73258,0.77363 -1.83274,10e-6 -3.31972,-0.98461 -4.45761,-2.98905 -1.13791,-2.00441 -1.83273,-4.60664 -2.09454,-7.77154 l 21.07966,0 c 0.0402,-0.60657 0.0537,-1.48572 0.0537,-2.67256 -3e-5,-4.2462 -0.5908,-8.08361 -1.79915,-11.49907 -1.20843,-3.4154 -2.9203,-6.08795 -5.15579,-8.05286 -2.23554,-1.96481 -4.78657,-2.95384 -7.62627,-2.95389 z m 106.82146,0 c -2.83972,5e-5 -5.37398,0.98908 -7.59941,2.95389 -2.22546,1.96491 -3.93734,4.65066 -5.15579,8.05286 -1.21846,3.40227 -1.82601,7.22651 -1.82601,11.49907 0,3.19126 0.34238,6.17593 1.04727,8.93199 0.70489,2.7561 1.7253,5.15173 3.0344,7.20889 1.30907,2.05718 2.84305,3.62643 4.64558,4.74732 1.8025,1.12089 3.75941,1.68794 5.85396,1.68794 2.35635,0 4.5415,-0.57583 6.5253,-1.7231 1.98374,-1.14727 3.76611,-2.82202 5.39746,-5.06381 l -5.61229,-5.73195 c -0.78547,1.21321 -1.64141,2.07477 -2.57789,2.60224 -0.93652,0.52749 -2.18183,0.77364 -3.73258,0.77363 -1.83273,10e-6 -3.31972,-0.98461 -4.4576,-2.98905 -1.13792,-2.00441 -1.83274,-4.60664 -2.09454,-7.77154 l 21.07965,0 c 0.0402,-0.60657 0.0537,-1.48572 0.0537,-2.67256 -4e-5,-4.2462 -0.59081,-8.08361 -1.79916,-11.49907 -1.20842,-3.4154 -2.9203,-6.08795 -5.15579,-8.05286 -2.23554,-1.96481 -4.78657,-2.95384 -7.62627,-2.95389 z m 39.52771,0 c -2.83973,5e-5 -5.37398,0.98908 -7.59942,2.95389 -2.22545,1.96491 -3.96419,4.65066 -5.18264,8.05286 -1.21846,3.40227 -1.82602,7.22651 -1.82601,11.49907 -1e-5,3.19126 0.36923,6.17593 1.07412,8.93199 0.70489,2.7561 1.69846,5.15173 3.00755,7.20889 1.30908,2.05718 2.86991,3.62643 4.67243,4.74732 1.8025,1.12089 3.75941,1.68794 5.85397,1.68794 2.35633,0 4.51464,-0.57583 6.49844,-1.7231 1.98374,-1.14727 3.79296,-2.82202 5.42431,-5.06381 l -5.61229,-5.73195 c -0.78547,1.21321 -1.64142,2.07477 -2.57789,2.60224 -0.93652,0.52749 -2.18183,0.77364 -3.73257,0.77363 -1.83274,10e-6 -3.31973,-0.98461 -4.45761,-2.98905 -1.13791,-2.00441 -1.85959,-4.60664 -2.12139,-7.77154 l 21.1065,0 c 0.0402,-0.60657 0.0537,-1.48572 0.0537,-2.67256 -4e-5,-4.2462 -0.61766,-8.08361 -1.82601,-11.49907 -1.20842,-3.4154 -2.9203,-6.08795 -5.15579,-8.05286 -2.23554,-1.96481 -4.75973,-2.95384 -7.59941,-2.95389 z m 70.35501,0.24616 c -2.13483,5e-5 -4.13539,0.5539 -5.98823,1.68794 -1.85287,1.13412 -3.32643,2.69019 -4.40391,4.64182 -1.07748,1.95172 -1.61118,4.01768 -1.61118,6.25943 0,5.16934 2.42348,8.95839 7.27718,11.3584 3.16193,1.52971 5.48472,2.63743 6.95494,3.27038 1.36948,0.63299 2.39997,1.26596 3.11496,1.89893 0.71493,0.63298 1.07409,1.50333 1.07412,2.6374 -3e-5,1.00221 -0.41625,1.87256 -1.2621,2.6374 -0.84589,0.76485 -1.81931,1.16046 -2.92698,1.16045 -1.47022,1e-5 -2.8028,-0.13186 -4.0011,-0.42198 -1.19833,-0.2901 -2.31274,-0.69451 -3.32978,-1.19562 -1.01708,-0.50109 -1.93007,-1.03737 -2.76587,-1.61761 -0.83581,-0.58022 -1.67832,-1.2044 -2.52419,-1.86376 l -3.5446,8.65067 c 1.53062,1.23959 3.15858,2.30774 4.8604,3.16488 1.70181,0.85716 3.48753,1.49892 5.37062,1.93409 1.88305,0.43518 3.88696,0.63298 6.04193,0.63298 2.1348,0 4.13535,-0.55386 5.98824,-1.68794 1.85283,-1.13408 3.32639,-2.69014 4.4039,-4.64182 1.07744,-1.95167 1.61115,-4.05279 1.61118,-6.29459 -3e-5,-2.18903 -0.29206,-4.00004 -0.88615,-5.45063 -0.59415,-1.45055 -1.49038,-2.64618 -2.65845,-3.62203 -1.16813,-0.97582 -2.7189,-1.93407 -4.67244,-2.88356 -2.57791,-1.26593 -4.59861,-2.21539 -6.06879,-2.84839 -1.34938,-0.5802 -2.38993,-1.21756 -3.11495,-1.86376 -0.72504,-0.64613 -1.07414,-1.63515 -1.07412,-2.95389 -2e-5,-1.02855 0.3927,-1.87692 1.20838,-2.60223 0.81565,-0.72525 1.81256,-1.0901 2.98069,-1.09013 2.21536,3e-5 4.07494,0.38245 5.58544,1.16046 1.51046,0.77806 3.20891,1.91654 5.10208,3.4462 l 3.30293,-7.94737 c -1.5508,-1.34503 -2.98072,-2.40878 -4.26964,-3.20004 -1.28897,-0.79118 -2.70211,-1.39778 -4.24278,-1.79343 -1.54072,-0.39556 -3.37679,-0.5626 -5.53173,-0.56265 z m -337.11329,0.31649 0,43.99183 7.492,0 0,-43.99183 -7.492,0 z m 120.40911,8.721 c 1.69173,4e-5 3.07801,0.70773 4.13537,2.14509 1.05732,1.43741 1.77228,3.44623 2.1751,5.9781 l -12.56723,0 c 0.92642,-5.40663 3.01424,-8.12315 6.25676,-8.12319 z m 106.82146,0 c 1.69173,4e-5 3.07802,0.70773 4.13538,2.14509 1.05731,1.43741 1.77227,3.44623 2.17509,5.9781 l -12.56723,0 c 0.92642,-5.40663 3.01425,-8.12315 6.25676,-8.12319 z m 39.52771,0 c 1.69171,4e-5 3.05115,0.70773 4.10851,2.14509 1.05732,1.43741 1.79914,3.44623 2.20195,5.9781 l -12.56723,0 c 0.92642,-5.40663 3.01424,-8.12315 6.25677,-8.12319 z m -229.51309,0.9143 c 2.37648,3e-5 4.21591,1.24841 5.50488,3.72753 l 0,17.23101 c -1.30911,2.47916 -3.14855,3.72752 -5.50488,3.72752 -2.29596,0 -4.08839,-1.12968 -5.39746,-3.41103 -1.3091,-2.28134 -1.98714,-5.27478 -1.98713,-8.96716 -10e-6,-3.69234 0.67803,-6.67698 1.98713,-8.932 1.30907,-2.25493 3.1015,-3.37584 5.39746,-3.37587 z m 42.1593,0 c 2.37648,3e-5 4.21591,1.24841 5.50488,3.72753 l 0,17.23101 c -1.30912,2.47916 -3.14855,3.72752 -5.50488,3.72752 -2.29595,0 -4.08839,-1.12968 -5.39746,-3.41103 -1.3091,-2.28134 -1.96029,-5.27478 -1.96028,-8.96716 -10e-6,-3.69234 0.65118,-6.67698 1.96028,-8.932 1.30907,-2.25493 3.10151,-3.37584 5.39746,-3.37587 z m 107.70762,0 c 1.49032,3e-5 2.78598,0.50554 3.89369,1.54728 1.10766,1.0418 1.96697,2.51434 2.55104,4.3605 0.58403,1.8462 0.85926,3.9737 0.8593,6.40009 -4e-5,2.45279 -0.27527,4.61107 -0.8593,6.47042 -0.58407,1.85937 -1.4266,3.31874 -2.52419,4.3605 -1.09764,1.04178 -2.41008,1.54727 -3.92054,1.54727 -2.4168,0 -4.26966,-1.24836 -5.55859,-3.72752 l 0,-17.23101 c 1.2688,-2.47912 3.12165,-3.7275 5.55859,-3.72753" />
	 
<path id="bord2_8km_rood" fill="#c1121c"
     d="m 635.38709,396.676 c -4.29061,0 -7.84537,-1.03183 -10.66429,-3.0955 -2.81894,-2.06367 -4.87614,-4.6736 -6.1716,-7.82982 -1.29547,-3.15618 -1.9432,-6.36633 -1.9432,-9.63045 0,-3.72268 0.69436,-6.85865 2.08311,-9.40791 1.38873,-2.54921 2.53911,-4.29592 3.45112,-5.24011 -0.6011,-0.70134 -1.35247,-1.95572 -2.2541,-3.76316 -0.90166,-1.80736 -1.35248,-3.898 -1.35247,-6.27194 -10e-6,-2.37385 0.47672,-4.7882 1.43019,-7.24308 0.95346,-2.45477 2.67902,-4.56564 5.17669,-6.33263 2.49764,-1.76687 5.91249,-2.65034 10.24455,-2.6504 4.33201,6e-5 7.74687,0.88353 10.24455,2.6504 2.49763,1.76699 4.22837,3.87786 5.19223,6.33263 0.96379,2.45488 1.4457,4.86923 1.44575,7.24308 -5e-5,2.37394 -0.46123,4.46458 -1.38356,6.27194 -0.92242,1.80744 -1.69451,3.06182 -2.31629,3.76316 0.93269,0.94419 2.08825,2.67741 3.46667,5.19964 1.37832,2.52229 2.06752,5.67175 2.06756,9.44838 -4e-5,3.26412 -0.64778,6.48102 -1.9432,9.65069 -1.29551,3.16969 -3.34753,5.77963 -6.15606,7.82981 -2.8086,2.05018 -6.34782,3.07527 -10.61765,3.07527 z m 0,-9.50907 c 2.77745,1e-5 5.0212,-0.58672 6.73124,-1.76019 1.70999,-1.17345 2.91736,-2.54248 3.62214,-4.1071 0.70469,-1.56461 1.05706,-2.98084 1.05709,-4.24874 -3e-5,-1.75342 -0.32649,-3.43942 -0.97937,-5.05801 -0.65295,-1.61854 -1.82923,-2.98758 -3.52885,-4.10711 -1.69968,-1.11948 -3.97971,-1.67924 -6.84007,-1.67927 -2.83968,3e-5 -5.13006,0.55979 -6.87115,1.67927 -1.74113,1.11953 -2.9485,2.50205 -3.62213,4.14756 -0.67366,1.64557 -1.01048,3.31808 -1.01046,5.01756 -2e-5,1.2679 0.35235,2.68413 1.0571,4.24874 0.70472,1.56462 1.91209,2.93365 3.62212,4.1071 1.71,1.17347 3.96411,1.7602 6.76234,1.76019 z m 0,-30.10531 c 2.42509,5e-5 4.35274,-0.35739 5.78297,-1.0723 1.43016,-0.71482 2.39398,-1.53085 2.89148,-2.44807 0.49742,-0.91715 0.74615,-1.78038 0.74619,-2.58971 -4e-5,-1.40271 -0.70995,-2.77848 -2.12975,-4.12734 -1.41987,-1.34875 -3.85016,-2.02316 -7.29089,-2.0232 -3.46151,4e-5 -5.89698,0.67445 -7.30643,2.0232 -1.40949,1.34886 -2.11422,2.72463 -2.11421,4.12734 -10e-6,1.42977 0.68399,2.80555 2.05202,4.12735 1.368,1.32186 3.8242,1.98278 7.36862,1.98273" />
	 
</svg>