<?xml version="1.0" encoding="UTF-8" standalone="no"?>
<!-- Created with Inkscape (http://www.inkscape.org/) -->
<svg
   xmlns:dc="http://purl.org/dc/elements/1.1/"
   xmlns:cc="http://web.resource.org/cc/"
   xmlns:rdf="http://www.w3.org/1999/02/22-rdf-syntax-ns#"
   xmlns:svg="http://www.w3.org/2000/svg"
   xmlns="http://www.w3.org/2000/svg"
   xmlns:sodipodi="http://sodipodi.sourceforge.net/DTD/sodipodi-0.dtd"
   xmlns:inkscape="http://www.inkscape.org/namespaces/inkscape"
   version="1.0"
   width="601"
   height="601"
   viewBox="0 0 600 599.99902"
   id="Layer_1"
   xml:space="preserve"
   sodipodi:version="0.32"
   inkscape:version="0.45"
   sodipodi:docname="I-79.svg"
   sodipodi:docbase="C:\Documents and Settings\ltljltlj\Desktop\Signs\Interstate Shields"
   inkscape:output_extension="org.inkscape.output.svg.inkscape"
   sodipodi:modified="true"><metadata
   id="metadata36"><rdf:RDF><cc:Work
       rdf:about=""><dc:format>image/svg+xml</dc:format><dc:type
         rdf:resource="http://purl.org/dc/dcmitype/StillImage" /></cc:Work></rdf:RDF></metadata><sodipodi:namedview
   inkscape:window-height="968"
   inkscape:window-width="1280"
   inkscape:pageshadow="2"
   inkscape:pageopacity="0.0"
   guidetolerance="10.0"
   gridtolerance="10.0"
   objecttolerance="10.0"
   borderopacity="1.0"
   bordercolor="#666666"
   pagecolor="#ffffff"
   id="base"
   width="601px"
   height="601px"
   inkscape:zoom="1.2845255"
   inkscape:cx="300.49997"
   inkscape:cy="299.49944"
   inkscape:window-x="-4"
   inkscape:window-y="-4"
   inkscape:current-layer="Layer_1" /><defs
   id="defs1659">
	
	
	
	
</defs>
<g
   transform="matrix(0.9983361,0,0,0.9983377,0.4991681,0.4986859)"
   style="fill:#ffffff;fill-opacity:1;stroke:#000000;stroke-width:0.99999928;stroke-miterlimit:4;stroke-dasharray:none;stroke-opacity:1"
   id="g1600">
		<path
   id="path1602"
   style="fill:#ffffff;fill-opacity:1;stroke:#000000;stroke-width:0.99999928;stroke-miterlimit:4;stroke-dasharray:none;stroke-opacity:1"
   d="M 80.75293,0 C 115.42871,10.583496 152.23779,16.276856 190.37695,16.276856 C 228.51563,16.276856 265.32422,10.583496 300,0.0004883 C 334.67578,10.583496 371.48438,16.276856 409.62305,16.276856 C 447.76172,16.276856 484.57129,10.583496 519.24707,0 C 569.8125,63.908203 600,144.67822 600,232.5 C 600,413.92383 471.16992,565.25391 300,599.99902 C 128.83008,565.25391 0,413.92383 0,232.5 C 0,144.67822 30.187988,63.907715 80.75293,0 z " />
		
			<path
   id="path1604"
   style="fill:#ffffff;fill-opacity:1;stroke:#000000;stroke-width:0.99999928;stroke-linecap:round;stroke-linejoin:round;stroke-miterlimit:4;stroke-dasharray:none;stroke-opacity:1"
   d="M 80.75293,0 C 115.42871,10.583496 152.23779,16.276856 190.37695,16.276856 C 228.51563,16.276856 265.32422,10.583496 300,0.0004883 C 334.67578,10.583496 371.48438,16.276856 409.62305,16.276856 C 447.76172,16.276856 484.57129,10.583496 519.24707,0 C 569.8125,63.908203 600,144.67822 600,232.5 C 600,413.92383 471.16992,565.25391 300,599.99902 C 128.83008,565.25391 0,413.92383 0,232.5 C 0,144.67822 30.187988,63.907715 80.75293,0 z " />
	</g><g
   style="fill:#003f87;fill-opacity:1;stroke:none;stroke-opacity:1"
   transform="matrix(1.0070935,0,0,1.0102847,-2.1280324,-3.66885)"
   id="g1606">
		<path
   id="path1608"
   style="fill:#003f87;fill-opacity:1;stroke:none;stroke-opacity:1"
   d="M 15,232.5 C 15,200.521 19.169434,169.51611 26.994629,139.99902 L 573.00586,139.99902 C 580.83008,169.51611 585,200.521 585,232.5 C 585,405.60547 462.82617,550.17188 300,584.67676 C 137.17432,550.17188 15,405.60547 15,232.5 z " />
	</g><g
   style="fill:#af1e2d;fill-opacity:1;stroke:none;stroke-opacity:1"
   transform="matrix(1.0125461,0,0,1.0271486,-3.7638021,-3.1017482)"
   id="g1610">
		<path
   id="path1612"
   style="fill:#af1e2d;fill-opacity:1;stroke:none;stroke-opacity:1"
   d="M 31.324219,124.99902 C 43.579102,85.77832 62.362793,49.44043 86.402832,17.259766 C 119.50439,26.392578 154.37061,31.272461 190.37695,31.272461 C 228.4375,31.272461 265.22461,25.820801 300,15.654785 C 334.77539,25.820801 371.5625,31.272461 409.62305,31.272461 C 445.62891,31.272461 480.49609,26.392578 513.59766,17.259766 C 537.63672,49.44043 556.4209,85.77832 568.67578,124.99902 L 31.324219,124.99902 L 31.324219,124.99902 z " />
	</g>




<path
   style="font-size:373.12530518px;font-style:normal;font-variant:normal;font-weight:normal;font-stretch:normal;text-align:center;line-height:125%;writing-mode:lr-tb;text-anchor:middle;fill:#ffffff;fill-opacity:1;font-family:Roadgeek 2005 Series D"
   d="M 271.89838,360.67824 C 271.89819,372.09934 269.59999,382.90081 265.00377,393.08268 C 260.40717,403.26462 254.19842,412.20555 246.37749,419.90543 C 238.55621,427.60536 229.55475,433.68911 219.37307,438.15672 C 209.1911,442.62434 198.38972,444.85814 186.9689,444.85814 C 175.54031,444.85814 164.73513,442.62434 154.55338,438.15672 C 144.37148,433.68911 135.37001,427.60536 127.54897,419.90543 C 119.72781,412.20555 113.52096,403.26462 108.92837,393.08268 C 104.33572,382.90081 102.03941,372.09934 102.03944,360.67824 C 102.03941,348.75711 104.5214,338.01627 109.48541,328.4557 C 114.44934,318.89534 121.52773,310.3902 130.72061,302.94026 C 118.54935,290.02639 112.46374,274.87667 112.46378,257.49107 C 112.46374,247.80574 114.45124,238.67915 118.42624,230.11129 C 122.40115,221.54383 127.8028,213.96898 134.63116,207.38669 C 141.4594,200.80486 149.34302,195.65139 158.28204,191.92623 C 167.2209,188.20157 176.78318,186.33912 186.9689,186.33886 C 196.90433,186.33912 206.46471,188.20157 215.65008,191.92623 C 224.8352,195.65139 232.84387,200.80486 239.67612,207.38669 C 246.50805,213.96898 251.9722,221.54383 256.06861,230.11129 C 260.16465,238.67915 262.21276,247.80574 262.21295,257.49107 C 262.21276,266.18396 260.53601,274.31773 257.18265,281.89244 C 253.82897,289.46747 249.04877,296.4834 242.84207,302.94026 C 252.52733,310.3902 259.7914,319.0185 264.6343,328.82515 C 269.47683,338.63203 271.89819,349.24972 271.89838,360.67824 L 271.89838,360.67824 z M 221.982,256.37701 C 221.98185,248.1771 218.56771,241.15927 211.73954,235.32351 C 204.91109,229.48815 196.65424,226.57038 186.9689,226.57016 C 177.28337,226.57038 169.02651,229.48815 162.19828,235.32351 C 155.36989,241.15927 151.95575,248.1771 151.95582,256.37701 C 151.95575,263.827 155.36989,270.22148 162.19828,275.56048 C 169.02651,280.89979 177.28337,283.56938 186.9689,283.56922 C 196.65424,283.56938 204.91109,280.89979 211.73954,275.56048 C 218.56771,270.22148 221.98185,263.827 221.982,256.37701 L 221.982,256.37701 z M 232.40636,361.41717 C 232.4062,356.20313 231.16519,351.29975 228.68336,346.70699 C 226.20124,342.11443 222.91213,338.14131 218.81605,334.78767 C 214.71967,331.43421 209.93948,328.76464 204.47546,326.77891 C 199.01116,324.79342 193.17565,323.80062 186.9689,323.8005 C 180.76194,323.80062 174.98896,324.79342 169.64993,326.77891 C 164.31074,328.76464 159.59118,331.43421 155.49123,334.78767 C 151.39114,338.14131 148.16266,342.11443 145.80579,346.70699 C 143.44878,351.29975 142.27031,356.20313 142.27038,361.41717 C 142.27031,367.38163 143.44878,372.97089 145.80579,378.18494 C 148.16266,383.39911 151.39114,387.99176 155.49123,391.96294 C 159.59118,395.93418 164.31074,399.03765 169.64993,401.27331 C 174.98896,403.50905 180.76194,404.6269 186.9689,404.62686 C 193.17565,404.6269 199.07369,403.50905 204.66303,401.27331 C 210.2521,399.03765 215.09482,395.93418 219.19118,391.96294 C 223.28726,387.99176 226.51385,383.39911 228.87094,378.18494 C 231.22772,372.97089 232.4062,367.38163 232.40636,361.41717 L 232.40636,361.41717 z M 497.96017,315.96797 C 497.95997,335.8393 495.60114,354.83898 490.88368,372.96703 C 486.16581,391.09522 479.46066,405.74853 470.7682,416.92701 C 456.86132,435.54777 436.74776,444.85814 410.42745,444.85814 C 392.79198,444.85814 378.26384,441.25829 366.84297,434.05857 C 355.42198,426.85886 345.98664,415.5591 338.53694,400.15924 C 333.32284,389.48097 329.10156,376.50633 325.87312,361.23528 C 322.64461,345.96437 321.03038,330.87529 321.0304,315.96797 C 321.03038,295.36175 323.45173,276.24272 328.29448,258.61082 C 333.13717,240.97927 339.7798,226.20281 348.22238,214.28136 C 355.67208,204.84618 364.55039,197.83025 374.85733,193.23354 C 385.16414,188.63735 397.51723,186.33912 411.91665,186.33886 C 427.80883,186.33912 441.34228,189.94089 452.51705,197.14414 C 463.69152,204.34788 473.2538,215.64575 481.20391,231.03777 C 486.41779,242.21649 490.51401,255.25555 493.4926,270.155 C 496.47079,285.05479 497.95997,300.32576 497.96017,315.96797 L 497.96017,315.96797 z M 458.47952,315.96797 C 458.47935,301.81876 457.23836,288.72096 454.75652,276.67454 C 452.27438,264.62844 448.54761,254.38401 443.57621,245.9412 C 439.60488,239.4844 435.0748,234.76668 429.98591,231.78806 C 424.89675,228.80986 418.62736,227.07056 411.17773,226.57016 C 401.4922,226.07777 393.421,228.31346 386.96414,233.27727 C 380.5071,238.24149 375.16798,246.31275 370.94679,257.49107 C 367.71823,264.94106 365.29688,273.9426 363.68271,284.4957 C 362.0684,295.04913 361.26129,305.53987 361.26135,315.96797 C 361.26129,329.38229 362.50227,342.29821 364.98433,354.71574 C 367.46624,367.13343 371.18923,377.31346 376.15328,385.25582 C 380.13196,391.71289 384.85152,396.55563 390.31198,399.7841 C 395.77225,403.01263 402.4774,404.6269 410.42745,404.62686 C 419.61259,404.6269 427.24801,402.14489 433.33375,397.18084 C 439.41921,392.21686 444.57265,384.14561 448.79407,372.96703 C 450.0368,369.7386 451.2797,365.82801 452.52273,361.23528 C 453.76547,356.64269 454.82078,351.79994 455.6887,346.70699 C 456.55629,341.61424 457.23836,336.46076 457.73491,331.24653 C 458.23115,326.03254 458.47935,320.93968 458.47952,315.96797 L 458.47952,315.96797 z "
   id="text5085" />
<path
   style="font-size:93.21589661px;font-style:normal;font-variant:normal;font-weight:normal;font-stretch:normal;text-align:center;line-height:125%;writing-mode:lr-tb;text-anchor:middle;fill:#ffffff;fill-opacity:1;font-family:Roadgeek 2005 Series C"
   d="M 108.86859,112.81165 L 108.86859,50.416161 L 117.60967,50.416161 L 117.60967,112.81165 L 108.86859,112.81165 z M 159.56965,112.81165 L 140.31942,70.997717 L 140.31942,112.81165 L 131.39104,112.81165 L 131.39104,50.416161 L 140.31942,50.416161 L 157.42977,87.853449 L 157.42977,50.416161 L 166.35816,50.416161 L 166.35816,112.81165 L 159.56965,112.81165 z M 195.41654,58.706192 L 195.41654,112.81165 L 186.39735,112.81165 L 186.39735,58.706192 L 175.05098,58.706192 L 175.05098,50.416161 L 206.7629,50.416161 L 206.7629,58.706192 L 195.41654,58.706192 z M 215.30532,112.81165 L 215.30532,50.416161 L 244.59927,50.416161 L 244.59927,59.172274 L 224.2337,59.172274 L 224.2337,74.908269 L 237.16084,74.908269 L 237.16084,83.476813 L 224.2337,83.476813 L 224.2337,104.05837 L 247.01726,104.05837 L 247.01726,112.81165 L 215.30532,112.81165 z M 283.20473,112.81165 L 274.92624,83.476813 L 266.37247,83.476813 L 266.37247,112.81165 L 257.4441,112.81165 L 257.4441,50.416161 L 276.04442,50.416161 C 278.46238,50.416224 280.67885,50.819784 282.69389,51.62684 C 284.70884,52.434021 286.44475,53.551862 287.90163,54.980368 C 289.35844,56.408988 290.47425,58.162956 291.24907,60.242277 C 292.02379,62.321703 292.41119,64.60333 292.41123,67.087165 C 292.41119,70.812085 291.66716,73.978511 290.17914,76.586455 C 288.69102,79.19447 286.45894,81.056433 283.48285,82.172347 L 292.41123,112.81165 L 283.20473,112.81165 z M 283.67015,67.087165 C 283.67012,64.665853 282.92609,62.741367 281.43805,61.313699 C 279.94996,59.886136 277.99694,59.172328 275.579,59.172274 L 266.37247,59.172274 L 266.37247,74.908269 L 275.579,74.908269 C 278.18236,74.908307 280.18173,74.240918 281.57712,72.906101 C 282.97244,71.571363 283.67012,69.631721 283.67015,67.087165 L 283.67015,67.087165 z M 334.56419,95.768339 C 334.56416,98.31476 334.11481,100.6897 333.21614,102.89316 C 332.31739,105.09665 331.07766,107.00549 329.49693,108.61973 C 327.91613,110.23398 326.08704,111.52233 324.00964,112.48482 C 321.93219,113.4473 319.68449,113.92853 317.26652,113.92853 C 314.53824,113.92853 312.08951,113.40088 309.92033,112.34556 C 307.75114,111.29024 305.92252,109.86263 304.43447,108.0627 C 302.9464,106.26279 301.79937,104.18295 300.99337,101.82315 C 300.18737,99.463388 299.78437,97.011244 299.78438,94.466716 L 308.52546,94.466716 C 308.52544,95.770251 308.69573,97.058136 309.0363,98.330376 C 309.37684,99.602646 309.90376,100.75127 310.61707,101.77627 C 311.33035,102.80129 312.22952,103.62404 313.3146,104.24452 C 314.39964,104.86503 315.71694,105.17527 317.26652,105.17526 C 318.44523,105.17527 319.57711,104.92707 320.66221,104.43067 C 321.74724,103.93429 322.67716,103.25127 323.45197,102.38161 C 324.22672,101.51197 324.84634,100.50307 325.31087,99.354907 C 325.77533,98.206766 326.00757,97.011244 326.0076,95.768339 C 326.00757,93.968443 325.63579,92.37031 324.89226,90.973934 C 324.14867,89.577602 322.84697,88.165144 320.98716,86.736554 C 320.67685,86.425859 320.55292,86.254867 320.61538,86.223579 C 320.6778,86.192343 320.49191,86.021825 320.05771,85.712023 C 319.62347,85.402277 318.70868,84.796937 317.31335,83.896004 C 315.91798,82.995129 313.63953,81.459044 310.478,79.287747 C 307.93703,77.548497 306.03083,75.514594 304.75942,73.186035 C 303.48797,70.857556 302.85226,68.296942 302.85226,65.504186 C 302.85226,63.268552 303.25526,61.173074 304.06128,59.217745 C 304.86725,57.262525 305.99866,55.539819 307.45551,54.049621 C 308.91235,52.559541 310.60192,51.395283 312.52421,50.556838 C 314.44647,49.718521 316.52295,49.29933 318.75365,49.299267 C 320.98618,49.29933 323.04799,49.70289 324.93908,50.509945 C 326.83013,51.317127 328.47286,52.434967 329.86729,53.863473 C 331.26166,55.292095 332.37747,56.999643 333.21474,58.986126 C 334.0519,60.972715 334.50173,63.1454 334.56419,65.504186 L 326.0076,65.504186 C 325.88459,63.331075 325.14102,61.592738 323.77692,60.289169 C 322.41275,58.985706 320.73833,58.333948 318.75365,58.333894 C 316.70836,58.333948 314.97291,59.016967 313.54731,60.382954 C 312.12167,61.749046 311.40886,63.456122 311.40887,65.504186 C 311.40886,67.055948 311.81186,68.359465 312.61787,69.41474 C 313.42384,70.4701 314.97339,71.649518 317.26652,72.952995 C 323.28119,76.429707 327.6678,79.968432 330.42638,83.569177 C 333.1849,87.16998 334.56416,91.236364 334.56419,95.768339 L 334.56419,95.768339 z M 360.52064,58.706192 L 360.52064,112.81165 L 351.50144,112.81165 L 351.50144,58.706192 L 340.15508,58.706192 L 340.15508,50.416161 L 371.867,50.416161 L 371.867,58.706192 L 360.52064,58.706192 z M 406.44816,112.81165 L 402.07763,95.768339 L 388.68506,95.768339 L 384.59548,112.81165 L 375.57345,112.81165 L 391.10305,50.416161 L 399.84695,50.416161 L 415.37654,112.81165 L 406.44816,112.81165 z M 395.2891,69.042441 L 390.91856,87.015068 L 399.84695,87.015068 L 395.2891,69.042441 z M 439.53084,58.706192 L 439.53084,112.81165 L 430.51165,112.81165 L 430.51165,58.706192 L 419.16529,58.706192 L 419.16529,50.416161 L 450.87721,50.416161 L 450.87721,58.706192 L 439.53084,58.706192 z M 459.41964,112.81165 L 459.41964,50.416161 L 488.71358,50.416161 L 488.71358,59.172274 L 468.34802,59.172274 L 468.34802,74.908269 L 481.27515,74.908269 L 481.27515,83.476813 L 468.34802,83.476813 L 468.34802,104.05837 L 491.13157,104.05837 L 491.13157,112.81165 L 459.41964,112.81165 z "
   id="text6060" />
</svg>