<?xml version="1.0" encoding="UTF-8" standalone="no"?>
<svg
   xmlns:dc="http://purl.org/dc/elements/1.1/"
   xmlns:cc="http://creativecommons.org/ns#"
   xmlns:rdf="http://www.w3.org/1999/02/22-rdf-syntax-ns#"
   xmlns:svg="http://www.w3.org/2000/svg"
   xmlns="http://www.w3.org/2000/svg"
   width="513.04523mm"
   height="103.34129mm"
   viewBox="0 0 1817.8767 366.16994"
   id="svg4203"
   version="1.1">
  <defs
     id="defs4205">
    <clipPath
       id="clipPath7599"
       clipPathUnits="userSpaceOnUse">
      <path
         id="path7601"
         d="m 2008,1955 1055,0 0,-265 -1055,0 0,265 z" />
    </clipPath>
    <clipPath
       id="clipPath4371"
       clipPathUnits="userSpaceOnUse">
      <path
         id="path4373"
         d="m 1277,1955 731,0 0,-265 -731,0 0,265 z" />
    </clipPath>
    <clipPath
       id="clipPath23298"
       clipPathUnits="userSpaceOnUse">
      <path
         style="clip-rule:evenodd"
         id="path23300"
         d="m 1105,5594 1596,0 0,-299 -798,0 -798,0 0,299 z" />
    </clipPath>
  </defs>
  <metadata
     id="metadata4208">
    <rdf:RDF>
      <cc:Work
         rdf:about="">
        <dc:format>image/svg+xml</dc:format>
        <dc:type
           rdf:resource="http://purl.org/dc/dcmitype/StillImage" />
        <dc:title></dc:title>
      </cc:Work>
    </rdf:RDF>
  </metadata>
  <g
     id="text13341"
     style="font-style:normal;font-variant:normal;font-weight:normal;font-stretch:normal;font-size:168.23991394px;line-height:100%;font-family:'Transport Heavy';-inkscape-font-specification:'Transport Heavy,';text-align:start;letter-spacing:0px;word-spacing:0px;writing-mode:lr-tb;text-anchor:start;fill:#ffffff;fill-opacity:1;stroke:none;stroke-width:1px;stroke-linecap:butt;stroke-linejoin:miter;stroke-opacity:1"
     transform="matrix(1.0362439,0,0,0.9650238,1154.5373,-1722.1176)" />
  <path
     id="path24104"
     d="M 1817.8768,183.08491 1817.8768,0 908.93835,0 -6.1035161e-5,0 l 0,183.08491 0,183.08505 908.938411035161,0 908.93845,0 0,-183.08505 z m -336.1331,90.35753 -90.1194,-90.31847 90.0413,-90.35747 90.0414,-90.35749 91.254,0 91.2541,0 -90.0294,90.33797 -90.0293,90.33793 90.0293,90.33801 90.0294,90.338 -91.176,0 -91.176,0 -90.1194,-90.31848 z m -453.8689,0 -90.11937,-90.31847 90.04137,-90.35747 90.0413,-90.35749 91.2541,0 91.254,0 -90.0293,90.33797 -90.0294,90.33793 90.0294,90.33801 90.0293,90.338 -91.176,0 -91.176,0 -90.1194,-90.31848 z m -453.86886,0 -90.1194,-90.31847 90.0414,-90.35747 90.0413,-90.35749 91.2541,0 91.25402,0 -90.02932,90.33797 -90.0293,90.33793 90.0293,90.33801 90.02932,90.338 -91.17602,0 -91.1759,0 -90.1195,-90.31848 z m -453.8689,0 -90.119401,-90.31847 90.041301,-90.35747 90.0414,-90.35749 91.2541,0 91.254,0 -90.0293,90.33797 -90.0294,90.33793 90.0294,90.33801 90.0293,90.338 -91.1759,0 -91.176,0 -90.1195,-90.31848 z"
     style="fill:#f02b30;fill-opacity:1" />
</svg>
