<?xml version="1.0" encoding="UTF-8" standalone="no"?>
<svg
   xmlns:dc="http://purl.org/dc/elements/1.1/"
   xmlns:cc="http://creativecommons.org/ns#"
   xmlns:rdf="http://www.w3.org/1999/02/22-rdf-syntax-ns#"
   xmlns:svg="http://www.w3.org/2000/svg"
   xmlns="http://www.w3.org/2000/svg"
   xmlns:sodipodi="http://sodipodi.sourceforge.net/DTD/sodipodi-0.dtd"
   xmlns:inkscape="http://www.inkscape.org/namespaces/inkscape"
   version="1.1"
   id="svg10"
   width="189.55312"
   height="189.55304"
   viewBox="0 0 189.55311 189.55304"
   sodipodi:docname="Estonia road sign 3026-30.svg"
   inkscape:version="1.0 (4035a4fb49, 2020-05-01)">
  <metadata
     id="metadata16">
    <rdf:RDF>
      <cc:Work
         rdf:about="">
        <dc:format>image/svg+xml</dc:format>
        <dc:type
           rdf:resource="http://purl.org/dc/dcmitype/StillImage" />
        <dc:title></dc:title>
      </cc:Work>
    </rdf:RDF>
  </metadata>
  <defs
     id="defs14" />
  <sodipodi:namedview
     inkscape:guide-bbox="true"
     showguides="true"
     inkscape:document-rotation="0"
     pagecolor="#ffffff"
     bordercolor="#666666"
     borderopacity="1"
     objecttolerance="10"
     gridtolerance="10"
     guidetolerance="10"
     inkscape:pageopacity="0"
     inkscape:pageshadow="2"
     inkscape:window-width="1920"
     inkscape:window-height="1001"
     id="namedview12"
     showgrid="false"
     inkscape:zoom="1"
     inkscape:cx="469.215"
     inkscape:cy="52.248679"
     inkscape:window-x="-9"
     inkscape:window-y="-9"
     inkscape:window-maximized="1"
     inkscape:current-layer="g18">
    <sodipodi:guide
       id="guide1785"
       orientation="0,-1"
       position="330.49999,64.80304" />
  </sodipodi:namedview>
  <g
     inkscape:groupmode="layer"
     inkscape:label="Image"
     id="g18"
     transform="translate(-3.5265645,-11.73198)">
    <g
       id="g2780"
       transform="matrix(0,0.99998577,-0.99998577,0,205.20845,6.6097681)"
       style="opacity:1;fill:#000000">
      <g
         style="fill:#000000"
         id="g2790" />
    </g>
    <path
       d="M 192.92956,106.50844 A 94.626451,94.626451 0 0 1 98.303035,201.1349 94.626451,94.626451 0 0 1 3.6765645,106.50844 94.626451,94.626451 0 0 1 98.303035,11.88198 94.626451,94.626451 0 0 1 192.92956,106.50844"
       style="opacity:1;fill:#ef2b2f;fill-opacity:1;stroke:none;stroke-width:0.3;stroke-miterlimit:4;stroke-dasharray:none;stroke-opacity:1"
       id="path18019-5-9" />
    <path
       d="M 174.86273,106.50844 A 76.559605,76.559605 0 0 1 98.303035,183.06806 76.559605,76.559605 0 0 1 21.743445,106.50844 76.559605,76.559605 0 0 1 98.303035,29.948842 76.559605,76.559605 0 0 1 174.86273,106.50844"
       style="opacity:1;fill:#ffffff;fill-opacity:1;stroke-width:1.49337"
       id="circle18021-2-7" />
    <g
       style="font-style:normal;font-weight:normal;font-size:113.81px;line-height:1.25;font-family:sans-serif;letter-spacing:1.85486px;opacity:1;fill:#000000;fill-opacity:1;stroke:none;stroke-width:2.84525"
       id="text880"
       aria-label="30">
      <path
         id="path4021"
         style="font-style:normal;font-variant:normal;font-weight:bold;font-stretch:condensed;font-family:Arial;-inkscape-font-specification:'Arial Bold Condensed';letter-spacing:1.85486px;fill:#000000;fill-opacity:1;stroke-width:2.84525"
         d="m 50.865566,125.44953 12.392397,-1.83386 q 0.500141,5.77942 3.167563,8.83584 2.667422,3.05642 6.279556,3.05642 3.945561,0 6.668554,-3.61213 2.722993,-3.61214 2.722993,-10.00284 0,-5.94612 -2.61185,-9.33597 -2.611851,-3.38985 -6.335127,-3.38985 -2.445137,0 -5.834985,1.167 l 1.389282,-12.725829 q 4.945845,0.111143 7.835552,-2.667422 2.834135,-2.778564 2.834135,-7.835551 0,-4.223418 -2.056137,-6.612984 -2.056138,-2.389565 -5.279273,-2.389565 -3.223134,0 -5.6127,2.778564 -2.333994,2.722993 -2.778564,8.113408 L 51.810277,86.549625 q 1.833853,-11.169829 7.168697,-16.226816 5.334843,-5.056988 13.448251,-5.056988 9.113691,0 14.448535,6.501841 5.390415,6.501841 5.390415,14.392964 0,5.334843 -2.445137,9.613832 -2.389565,4.278992 -7.224267,7.502122 5.6127,1.50043 9.113691,6.61299 3.556563,5.11255 3.556563,12.78139 0,11.16983 -6.668555,18.50524 -6.612983,7.27984 -15.782246,7.27984 -8.780263,0 -14.893105,-6.16841 -6.05727,-6.16842 -7.057553,-16.8381 z" />
      <path
         id="path4023"
         style="font-style:normal;font-variant:normal;font-weight:bold;font-stretch:condensed;font-family:Arial;-inkscape-font-specification:'Arial Bold Condensed';letter-spacing:1.85486px;fill:#000000;fill-opacity:1;stroke-width:2.84525"
         d="m 126.85252,65.265821 q 9.72498,0 15.72668,9.280406 6.00169,9.224833 6.00169,32.342493 0,23.06208 -6.00169,32.34249 -6.0017,9.22483 -15.67111,9.22483 -9.72497,0 -15.72667,-9.16926 -6.0017,-9.16927 -6.0017,-32.56478 0,-22.95094 6.0017,-32.175773 6.0017,-9.280406 15.6711,-9.280406 z m 0,12.948111 q -3.77885,0 -6.05727,5.001415 -2.22285,5.001416 -2.22285,23.673373 0,18.67195 2.22285,23.67336 2.27842,4.94585 6.05727,4.94585 3.83442,0 6.05727,-5.00142 2.22285,-5.00141 2.22285,-23.61779 0,-18.671957 -2.22285,-23.673373 -2.22285,-5.001415 -6.05727,-5.001415 z" />
    </g>
  </g>
</svg>
