<svg height="180.642129" viewBox="0 0 25.134042 8.2361534" width="553.580719" xmlns="http://www.w3.org/2000/svg" xmlns:xlink="http://www.w3.org/1999/xlink"><symbol id="a" overflow="visible"/><symbol id="b" overflow="visible"/><symbol id="c" overflow="visible"/><symbol id="d" overflow="visible"/><symbol id="e" overflow="visible"/><symbol id="f" overflow="visible"/><symbol id="g" overflow="visible"/><symbol id="h" overflow="visible"/><symbol id="i" overflow="visible"/><g transform="translate(-926.93374 -364.32307)"><g transform="matrix(.35277777 0 0 .35277777 1.664673 .652193)"><use fill="#073859" height="100%" width="100%" x="71.138298" xlink:href="#a" y="96.321404"/><use fill="#073859" height="100%" width="100%" x="129.8183" xlink:href="#a" y="96.321404"/><use fill="#073859" height="100%" width="100%" x="159.1463" xlink:href="#a" y="96.321404"/><use fill="#073859" height="100%" width="100%" x="141.81662" xlink:href="#a" y="123.45964"/><use fill="#073859" height="100%" width="100%" x="183.12062" xlink:href="#a" y="123.45964"/><use fill="#0fb0dc" height="100%" width="100%" x="141.8183" xlink:href="#b" y="157.78156"/></g><use fill="#fff" height="100%" transform="matrix(.35277779 0 0 .35277779 23.037533 23.410285)" width="100%" x="123.9363" xlink:href="#c" y="386.39661"/><use fill="#009c7d" height="100%" transform="matrix(.35277778 0 0 .35277778 271.01807 240.82177)" width="100%" x="186.1642" xlink:href="#d" y="753.54327"/><use fill="#009c7d" height="100%" transform="matrix(.35277778 0 0 .35277778 271.01807 240.82177)" width="100%" x="224.3082" xlink:href="#d" y="753.54327"/><use fill="#009c7d" height="100%" transform="matrix(.35277778 0 0 .35277778 271.01807 240.82177)" width="100%" x="108.1002" xlink:href="#d" y="775.9433"/><use fill="#009c7d" height="100%" transform="matrix(.35277778 0 0 .35277778 271.01807 240.82177)" width="100%" x="176.3082" xlink:href="#d" y="775.9433"/><use fill="#009c7d" height="100%" transform="matrix(.35277778 0 0 .35277778 271.01807 240.82177)" width="100%" x="229.4442" xlink:href="#d" y="775.9433"/><use fill="#fff" height="100%" transform="matrix(.35277776 0 0 .35277776 639.89779 337.78477)" width="100%" x="476.539" xlink:href="#e" y="465.8103"/><use fill="#4c5757" height="100%" transform="matrix(.35277778 0 0 .35277778 713.81792 339.40658)" width="100%" x="552.75769" xlink:href="#f" y="754.40802"/><use fill="#fff" height="100%" transform="matrix(.35277778 0 0 .35277778 724.22761 336.38612)" width="100%" x="365.3136" xlink:href="#g" y="761.56128"/><use height="100%" transform="matrix(.35277779 0 0 .35277779 750.84845 400.72766)" width="100%" x="95.2547" xlink:href="#h" y="460.0199"/><use height="100%" transform="matrix(.35277779 0 0 .35277779 750.84845 400.72766)" width="100%" x="102.7297" xlink:href="#h" y="460.0199"/><path d="m927.06603 372.42693h7.16993v-2.08911l-1.99402-2.47771-5.17591 1.55856zm0 0" fill="#ee2621"/><path d="m934.84506 372.42693 17.09043-.001v-7.97057l-17.09043.001zm9.64489-1.31327h-.41617v-2.55902h.41617zm3.49608-2.55902v.31971h.01c.12265-.27423.34038-.37069.63941-.37069.23289 0 .50161.0965.59807.32935.14194-.27285.37483-.32935.60772-.32935.26871 0 .69866.0606.69866.66421v1.94579h-.41479v-1.77354c0-.25769-.0717-.49609-.40514-.49609-.1571 0-.20257.004-.31419.0965-.12127.1006-.14194.35416-.14194.45062v1.72255h-.41617v-1.77354c0-.25769-.0703-.49609-.40514-.49609-.12678 0-.29903.0758-.35967.17226-.0758.12678-.0965.27836-.0965.37482v1.72255h-.41479v-2.02709c0-.17777-.011-.35416-.0262-.53193zm-2.81258 0h.41617v1.77354c0 .30868.14194.51676.43546.51676.22324 0 .50161-.16674.50161-.59255v-1.69775h.41616v2.0271c0 .17776.01.35415.0248.53192h-.44097v-.30868h-.0152c-.13642.23289-.38034.35967-.64906.35967-.4451 0-.68901-.22324-.68901-.6587zm-1.12447-1.09967h.46715v.44648h-.46715zm-2.00643 1.09967v.32935h.0207c.16261-.28801.35416-.38033.68351-.38033.54708 0 .68489.32935.68489.83646v1.77354h-.41617v-1.77354c0-.27285-.0965-.49609-.45062-.49609-.45613 0-.52228.40514-.52228.75517v1.51446h-.41479v-2.02709c0-.17777-.011-.35416-.0262-.53193zm-2.01194 0h.41617v.38585h.01c.17226-.39136.38585-.43683.791-.43683v.43132c-.0358-.006-.0758-.011-.11162-.0152-.0358-.006-.0703-.011-.11162-.011-.46165 0-.5774.35002-.5774.69453v1.51033h-.41617zm-1.46347-.051c.72898 0 .91226.401.91226 1.24712v.21773h-1.44005c0 .71382.19293.85576.51676.85576.28388 0 .43133-.22737.44649-.48645h.45613c-.005.56776-.35553.82683-.89159.82683-.54295 0-.9729-.16261-.9729-1.2926 0-.74966.0854-1.36839.9729-1.36839m-2.90629-1.04869h2.20349v.40514h-.86817v3.25355h-.46577v-3.25355h-.86955zm0 0" fill="#7a7578"/><path d="m938.5258 368.81785c-.26321 0-.48094.12678-.48645.83647h.99908c0-.74414-.20809-.83647-.51263-.83647" fill="#7a7578"/><path d="m927.06603 368.89777 2.73127-2.85391 4.43866 2.49838v-4.08588h-7.16993zm0 0" fill="#f8a628"/><use fill="#fff" height="100%" transform="matrix(.3527778 0 0 .3527778 771.96231 337.7045)" width="100%" x="269.05109" xlink:href="#i" y="336.9043"/></g></svg>