<?xml version="1.0" encoding="UTF-8"?><svg xmlns="http://www.w3.org/2000/svg" viewBox="0 0 76.75 28.57"><defs><style>.d{fill:#662b1f;}</style></defs><g id="a"/><g id="b"><g id="c"><g><polygon class="d" points="38.37 0 0 15.35 76.75 15.35 38.37 0"/><polygon class="d" points="26.17 21.51 28.68 21.51 28.68 28.35 30.96 28.35 30.96 21.51 33.47 21.51 33.47 19.23 26.17 19.23 26.17 21.51"/><polygon class="d" points="34.38 19.23 34.38 28.35 36.66 28.35 36.66 28.35 40.77 28.35 40.77 26.07 36.66 26.07 36.66 24.93 40.49 24.93 40.49 22.65 36.66 22.65 36.66 21.51 40.77 21.51 40.77 19.23 36.66 19.23 34.38 19.23"/><polygon class="d" points="15.69 22.65 12.95 22.65 12.95 19.23 10.67 19.23 10.67 28.35 12.95 28.35 12.95 24.93 15.69 24.93 15.69 28.35 17.97 28.35 17.97 19.23 15.69 19.23 15.69 22.65"/><rect class="d" x="58.41" y="19.23" width="2.28" height="9.12"/><path class="d" d="M65.57,22.76c-1.03-.29-1.54-.43-1.59-.79-.08-.57,.58-.75,1.11-.75,1.33,0,2.17,.69,2.29,.78l1.19-1.94c-.15-.11-1.49-1.05-3.44-1.05-1.09,0-2.11,.33-2.76,1.07-.63,.73-.81,1.52-.76,2.2,.08,1.02,.64,1.96,2.83,2.53,.88,.23,1.64,.36,1.67,.9,0,.08,.05,.75-1.26,.65-1.24-.09-2.18-.77-2.18-.77l-1.3,1.87c.16,.12,1.71,1.14,3.82,1.14h0c.94,0,1.76-.25,2.38-.72,.6-.46,.98-1.1,1.07-1.8,.29-2.36-2.28-3.06-3.08-3.29Z"/><polygon class="d" points="22.12 18.54 22.75 17.61 23.39 18.54 25.26 18.54 25.26 18.54 23.71 16.26 23.67 16.26 21.84 16.26 21.8 16.26 20.25 18.54 20.25 18.54 22.12 18.54"/><path class="d" d="M23.64,19.23h-2.3l-2.92,9.12h2.3l.53-1.64h3.02l.53,1.64h2.3l-2.92-9.12h-.53Zm-1.69,5.29l.81-2.53,.81,2.53h-1.62Z"/><polygon class="d" points="75.74 21.51 75.74 19.23 71.64 19.23 69.36 19.23 69.36 28.35 71.64 28.35 71.64 28.35 75.74 28.35 75.74 26.07 71.64 26.07 71.64 24.93 75.47 24.93 75.47 22.65 71.64 22.65 71.64 21.51 75.74 21.51"/><polygon class="d" points="73.24 18.54 74.79 16.26 72.58 16.26 71.03 18.54 71.03 18.54 73.24 18.54"/><path class="d" d="M54.51,19.23h-2.3l-2.92,9.12h2.3l.53-1.64h3.02l.53,1.64h2.3l-2.92-9.12h-.53Zm-1.69,5.29l.81-2.53,.81,2.53h-1.62Z"/><path class="d" d="M48.66,22.35c0-1.72-1.39-3.12-3.12-3.12h-3.77v9.12h2.28v-2.87h.83l1.58,2.87h2.6l-1.85-3.37c.87-.56,1.44-1.52,1.44-2.63Zm-4.61-.84h1.49c.46,0,.84,.38,.84,.84s-.37,.84-.84,.84h-1.49v-1.69Z"/><path class="d" d="M5.29,21.28c.97,0,1.82,.56,2.23,1.37h2.42c-.51-2.09-2.4-3.65-4.65-3.65-2.64,0-4.79,2.14-4.79,4.79s2.14,4.79,4.79,4.79c2.25,0,4.14-1.55,4.65-3.65h-2.42c-.42,.81-1.26,1.37-2.23,1.37-1.39,0-2.51-1.12-2.51-2.51s1.12-2.51,2.51-2.51Z"/></g></g></g></svg>