<?xml version="1.0" encoding="UTF-8" standalone="no"?>
<svg
   xmlns:dc="http://purl.org/dc/elements/1.1/"
   xmlns:cc="http://creativecommons.org/ns#"
   xmlns:rdf="http://www.w3.org/1999/02/22-rdf-syntax-ns#"
   xmlns:svg="http://www.w3.org/2000/svg"
   xmlns="http://www.w3.org/2000/svg"
   xmlns:sodipodi="http://sodipodi.sourceforge.net/DTD/sodipodi-0.dtd"
   xmlns:inkscape="http://www.inkscape.org/namespaces/inkscape"
   width="602.60004"
   height="529.64307"
   viewBox="-50 -30 60.259997 52.964293"
   id="svg2"
   version="1.1"
   inkscape:version="0.48.4 r9939"
   sodipodi:docname="Ajax.svg">
  <metadata
     id="metadata14">
    <rdf:RDF>
      <cc:Work
         rdf:about="">
        <dc:format>image/svg+xml</dc:format>
        <dc:type
           rdf:resource="http://purl.org/dc/dcmitype/StillImage" />
        <dc:title></dc:title>
      </cc:Work>
    </rdf:RDF>
  </metadata>
  <defs
     id="defs12" />
  <sodipodi:namedview
     pagecolor="#ffffff"
     bordercolor="#666666"
     borderopacity="1"
     objecttolerance="10"
     gridtolerance="10"
     guidetolerance="10"
     inkscape:pageopacity="0"
     inkscape:pageshadow="2"
     inkscape:window-width="1280"
     inkscape:window-height="1001"
     id="namedview10"
     showgrid="false"
     fit-margin-top="1.3"
     fit-margin-left="1.3"
     fit-margin-right="1.3"
     fit-margin-bottom="1.3"
     inkscape:zoom="0.37266185"
     inkscape:cx="231.79551"
     inkscape:cy="248.51821"
     inkscape:window-x="-8"
     inkscape:window-y="-8"
     inkscape:window-maximized="1"
     inkscape:current-layer="svg2"
     showguides="true"
     inkscape:guide-bbox="true" />
  <path
     style="font-size:medium;font-style:normal;font-variant:normal;font-weight:normal;font-stretch:normal;text-indent:0;text-align:start;text-decoration:none;line-height:normal;letter-spacing:normal;word-spacing:normal;text-transform:none;direction:ltr;block-progression:tb;writing-mode:lr-tb;text-anchor:start;baseline-shift:baseline;color:#000000;fill:#ffffff;fill-opacity:1;fill-rule:nonzero;stroke:#000000;stroke-width:0.19999997000000000;marker:none;visibility:visible;display:inline;overflow:visible;enable-background:accumulate;font-family:Sans;-inkscape-font-specification:Sans;stroke-opacity:1"
     d="m -47.142483,-29.870004 c -0.97434,0 -1.87551,0.52511 -2.36256,1.36878 -0.48658,0.84263 -0.48664,1.87938 0,2.72195 l 27.275613,47.244793 c 0.486528,0.84253 1.385101,1.36878 2.359428,1.36878 0.974325,0 1.872898,-0.52625 2.359426,-1.36878 L 9.7650361,-25.779274 c 0.4866429,-0.84257 0.4865839,-1.87932 0,-2.72195 -0.487044,-0.84367 -1.3882126,-1.36878 -2.3625516,-1.36878 z"
     id="path3976"
     inkscape:connector-curvature="0"
     sodipodi:nodetypes="scccscccss" />
  <path
     sodipodi:nodetypes="scccscccssccscccccccccccccccccccccsc"
     inkscape:connector-curvature="0"
     id="path3996"
     d="m 7.4182965,-29.363902 c 0.789232,0 1.521115,0.42279 1.9156806,1.10628 0.394688,0.68349 0.394705,1.52292 0,2.20631 L -17.957447,21.221941 c -0.39466,0.68344 -1.12337,1.10628 -1.912555,1.10628 -0.789186,0 -1.517896,-0.42284 -1.912556,-1.10628 l -27.291425,-47.273253 c -0.3947,-0.68339 -0.39468,-1.52282 0,-2.20631 0.39457,-0.68349 1.12645,-1.10628 1.91569,-1.10628 z m -10.244048,6.84082 -34.0885015,0 c -0.77237,-0.006 -1.40316,0.6246 -1.40316,1.39692 0,0.0712 0.008,0.14108 0.0187,0.20938 -3e-5,0.002 -4e-5,0.004 0,0.006 7e-4,0.0471 0.014,0.10732 0.0438,0.1875 3e-4,0.001 -3e-4,0.002 0,0.003 8e-4,0.002 0.002,0.007 0.003,0.009 0.0767,0.14111 0.15243,0.27167 0.22501,0.39376 0.002,0.003 0.20588,0.35248 0.2125,0.36564 l 16.294231,28.2226939 c 0.154932,0.27182 0.270491,0.46729 0.35626,0.62189 0.02788,0.04807 0.05644,0.09417 0.08438,0.14376 0.254148,0.45095 0.7254,0.70437 1.20941,0.70627 0.484009,-0.0019 0.955261,-0.25532 1.209409,-0.70627 0.02794,-0.04959 0.0565,-0.09569 0.08438,-0.14376 0.08577,-0.1546 0.201328,-0.35007 0.35626,-0.62189 L -1.9258265,-19.951882 c 0.0066,-0.0132 0.209995,-0.36237 0.212506,-0.36564 0.07258,-0.12209 0.148363,-0.25265 0.225007,-0.39376 8e-4,-0.002 0.0023,-0.007 0.0031,-0.009 3e-4,-10e-4 -3e-4,-0.002 0,-0.003 0.02975,-0.0802 0.04304,-0.14039 0.04375,-0.1875 3.8e-5,-0.002 2.9e-5,-0.004 0,-0.006 0.01026,-0.0683 0.01875,-0.13822 0.01875,-0.20938 0,-0.77232 -0.630791,-1.40317 -1.403165,-1.39692 z"
     style="font-size:medium;font-style:normal;font-variant:normal;font-weight:normal;font-stretch:normal;text-indent:0;text-align:start;text-decoration:none;line-height:normal;letter-spacing:normal;word-spacing:normal;text-transform:none;direction:ltr;block-progression:tb;writing-mode:lr-tb;text-anchor:start;baseline-shift:baseline;color:#000000;fill:#c31926;fill-opacity:1;stroke:none;stroke-width:4;marker:none;visibility:visible;display:inline;overflow:visible;enable-background:accumulate;font-family:Sans;-inkscape-font-specification:Sans" />
  <path
     sodipodi:nodetypes="ccccccc"
     inkscape:connector-curvature="0"
     id="path4009"
     d="m -27.753644,-16.467025 0,1.1164 1.481167,0 0.125272,-0.0037 1.182735,0.02211 0,-1.134825 z"
     style="fill:#000000;fill-opacity:1;fill-rule:evenodd;stroke:none" />
  <path
     id="path4011"
     d="m -23.059378,-12.649569 c 0,-2.208746 0,-4.418956 0,-6.629165 0.430307,0 0.862801,0 1.293108,0 0,2.210209 0,4.420419 0,6.629165 -0.430307,0 -0.862801,0 -1.293108,0"
     style="fill:#000000;fill-opacity:1;fill-rule:evenodd;stroke:none"
     inkscape:connector-curvature="0" />
  <path
     id="path4013"
     d="m -18.314712,-12.634827 c -0.747029,-2.211675 -1.539917,-4.416026 -2.289132,-6.629165 0.46744,0 0.934879,0 1.402319,0 0.530782,1.637138 1.092147,3.269879 1.622929,4.907017 0.513309,-1.637138 1.057191,-3.269879 1.568313,-4.907017 0.458714,0 0.91522,0 1.373933,0 -0.751402,2.213139 -1.5443,4.41749 -2.295692,6.629165 -0.46089,0 -0.92178,0 -1.38267,0"
     style="fill:#000000;fill-opacity:1;fill-rule:evenodd;stroke:none"
     inkscape:connector-curvature="0" />
  <path
     inkscape:connector-curvature="0"
     id="path4015"
     d="m -13.352432,-19.27842 0,6.628433 4.0824305,0 0,-1.1164 -2.7854825,0 0,-1.805413 2.5349385,0 0,-1.11641 -2.5349385,0 0,-1.470117 2.7854825,0 0,-1.120093 -4.0824305,0 z"
     style="fill:#000000;fill-opacity:1;fill-rule:evenodd;stroke:none" />
  <path
     sodipodi:nodetypes="scccscscsccscscscsccccs"
     inkscape:connector-curvature="0"
     id="path4017"
     d="m -27.837128,-19.470006 c -0.491985,0 -0.933864,0.08278 -1.308006,0.261593 -0.283199,0.133381 -0.547533,0.328681 -0.781117,0.596897 -0.235645,0.268216 -0.433048,0.570039 -0.567402,0.910072 -0.183969,0.457278 -0.276346,1.025821 -0.276346,1.698553 0,1.053811 0.2708,1.878045 0.795859,2.483365 0.52711,0.605309 1.250492,0.902706 2.151744,0.902706 0.888874,0 1.609892,-0.296685 2.137023,-0.906389 0.527109,-0.60532 0.795849,-1.437757 0.795849,-2.509156 0,-0.145654 0.0026,-0.297878 -0.0073,-0.434775 l -1.27484,0.02949 c 0.01131,0.130786 0.01842,0.227086 0.01842,0.372133 0,0.769472 -0.164069,1.341101 -0.467932,1.728029 -0.310067,0.385473 -0.717,0.578472 -1.204832,0.578472 -0.487832,0 -0.894336,-0.192287 -1.208515,-0.582155 -0.312129,-0.386928 -0.475308,-0.955512 -0.475308,-1.705931 0,-0.765067 0.156232,-1.332218 0.464249,-1.713295 0.303863,-0.378139 0.7152,-0.56373 1.219574,-0.56373 0.504363,0 0.91409,0.183373 1.215881,0.560047 0.02337,0.02947 0.04471,0.06039 0.06633,0.09211 l 0.946912,-0.777434 c -0.02986,-0.03844 -0.06043,-0.07375 -0.09211,-0.11053 -0.529181,-0.609714 -1.253014,-0.910072 -2.148082,-0.910072 z"
     style="fill:#000000;fill-opacity:1;fill-rule:evenodd;stroke:none" />
  <path
     id="path4019"
     d="m -26.479813,-5.2300111 c -0.37302,-1.747049 -0.76718,-3.49178 -1.14019,-5.2399999 0.32903,0 0.65805,0 0.98708,0 0.23618,1.2002399 0.48539,2.3993099 0.71994,3.5995409 0.28667,-1.200231 0.58963,-2.398151 0.874679,-3.5995409 0.38278,0 0.76555,0 1.14832,0 0.27364,1.2210899 0.56357,2.4398499 0.83722,3.6597809 0.23944,-1.219931 0.49354,-2.438691 0.73297,-3.6597809 0.32414,0 0.64827,0 0.97241,0 -0.37952,1.7482199 -0.78184,3.4929509 -1.15973,5.2399999 -0.34205,0 -0.6841,0 -1.02453,0 -0.3111,-1.306809 -0.64013,-2.61131 -0.95287,-3.91696 -0.30947,1.30565 -0.63849,2.610151 -0.947969,3.91696 -0.34858,0 -0.69876,0 -1.04733,0"
     style="fill:#000000;fill-opacity:1;fill-rule:evenodd;stroke:none"
     inkscape:connector-curvature="0" />
  <path
     id="path4021"
     d="m -16.376454,-5.2300111 c -0.34372,0 -0.68585,0 -1.02957,0 -0.1343,-0.39737 -0.27498,-0.79242 -0.40927,-1.190959 -0.6251,0 -1.2502,0 -1.87531,0 -0.1279,0.398539 -0.26059,0.793589 -0.38849,1.190959 -0.33412,0 -0.66826,0 -1.00399,0 0.59792,-1.748209 1.22941,-3.49063 1.82734,-5.2399999 0.33413,0 0.66666,0 1.0024,0 0.6139,1.7493699 1.26298,3.4906309 1.87689,5.2399999 z m -1.74421,-2.072589 c -0.21102,-0.648781 -0.43485,-1.295231 -0.64588,-1.945161 -0.20783,0.64993 -0.42685,1.29638 -0.63308,1.945161 0.42686,0 0.85371,0 1.27896,0 z"
     style="fill:#000000;fill-opacity:1;fill-rule:evenodd;stroke:none"
     inkscape:connector-curvature="0" />
  <path
     id="path4023"
     d="m -14.734064,-5.2300111 c 0,-0.73566 0,-1.470159 0,-2.20582 -0.60775,-1.01371 -1.24831,-2.019309 -1.85605,-3.0341799 0.40056,0 0.7994,0 1.19995,0 0.39021,0.6928009 0.80114,1.3809599 1.19307,2.0737599 0.38157,-0.6928 0.78386,-1.380959 1.167149,-2.0737599 0.39365,0 0.78558,0 1.17752,0 -0.60948,1.0171909 -1.25176,2.0250999 -1.861239,3.0422899 0,0.732181 0,1.46437 0,2.19771 -0.34013,0 -0.68026,0 -1.0204,0"
     style="fill:#000000;fill-opacity:1;fill-rule:evenodd;stroke:none"
     inkscape:connector-curvature="0" />
</svg>
