<?xml version="1.0" encoding="UTF-8" standalone="no"?>
<svg
   xmlns:dc="http://purl.org/dc/elements/1.1/"
   xmlns:cc="http://creativecommons.org/ns#"
   xmlns:rdf="http://www.w3.org/1999/02/22-rdf-syntax-ns#"
   xmlns:svg="http://www.w3.org/2000/svg"
   xmlns="http://www.w3.org/2000/svg"
   width="201.10001"
   height="63.700001"
   viewBox="0 0 53.207708 16.853959"
   version="1.1"
   id="svg8">
  <path
     id="path4783"
     d="M 10.345208,2.0108316 13.731875,7.8581232 14.12875,7.1702065 11.138958,2.0108316 Z M 4.92125,6.6145815 c -0.1322917,0 -0.2645834,-0.026458 -0.396875,-0.052917 L 9.4985416,15.187081 10.16,14.049373 5.715,6.4293732 C 5.476875,6.5352065 5.2122916,6.6145815 4.92125,6.6145815 m 0,-3.6512499 c 0.15875,0 0.2910416,0.026458 0.4497916,0.052917 L 4.7889583,2.0108316 H 3.571875 l 0.635,1.0847916 C 4.4185416,3.0162482 4.6566666,2.9633316 4.92125,2.9633316 m -1.825625,1.825625 v -0.15875 L 1.5875,2.0108316 H 0.1322917 l 8.4931249,14.7108334 0.7408333,-1.27 L 4.1804166,6.4558315 C 3.5189583,6.1647899 3.095625,5.5297899 3.095625,4.7889566 M 6.9585416,2.0108316 12.038542,10.794998 12.54125,9.9218732 7.9639583,2.0108316 Z m 5.0800004,0 2.54,4.3920833 L 14.9225,5.7943732 12.752917,2.0108316 Z M 6.0060416,6.2441649 10.31875,13.731873 10.927292,12.699998 6.6410416,5.2916649 c -0.079375,0.3704166 -0.3175,0.714375 -0.635,0.9525 M 8.6518749,2.0108316 12.885208,9.3397898 13.335,8.5460398 9.5514582,2.0108316 Z m 5.0800001,0 1.693333,2.936875 0.291042,-0.5291667 -1.375833,-2.4077083 z m 2.196042,0 H 15.425208 L 16.271875,3.4660399 16.51,3.0162482 Z m -10.6627087,0 0.7672917,1.349375 c 0.3439583,0.2910416 0.6085416,0.6879166 0.6614583,1.1641666 l 4.4714587,7.7522918 0.555625,-0.9525 L 6.3764583,2.0108316 Z M 3.9158333,3.2543732 3.2014583,2.0108316 H 1.8785417 L 3.175,4.2333316 C 3.3072917,3.8364566 3.571875,3.4924982 3.9158333,3.2543732"
     class="st1"
     style="fill:#00aae7;stroke-width:0.264583" />
  <path
     id="path4781"
     style="fill:#005bab;stroke-width:0.264583"
     d="m 16.51,3.0427066 1.11125,1.905 0.608541,-1.0054167 -1.137708,-1.9314583 z M 15.425208,2.0108316 14.340417,0.13228995 h -1.084792 l 1.084792,1.87854165 z m 0.291042,2.4077083 1.11125,1.9314583 0.555625,-0.9525 -1.11125,-1.9314583 z M 14.9225,5.7943732 16.03375,7.7258315 16.536458,6.8791649 15.425208,4.9477066 Z M 13.731875,2.0108316 12.647083,0.13228995 H 11.641667 L 12.726458,2.0108316 Z M 14.12875,7.1702065 15.24,9.1016648 15.689792,8.3343732 14.578542,6.4029149 Z M 12.038542,2.0108316 10.95375,0.13228995 h -0.899583 l 1.084791,1.87854165 z m -1.693334,0 -1.0847914,-1.87854165 h -0.79375 L 9.5514582,2.0108316 Z M 13.335,8.5460398 14.44625,10.477498 14.843125,9.7895815 13.731875,7.8581232 Z M 8.6518749,2.0108316 7.5670833,0.13228995 H 6.8791666 L 7.9374999,2.0108316 Z M 12.514792,9.9483315 13.6525,11.853331 13.996458,11.271248 12.885208,9.3397898 Z M 6.9585416,2.0108316 5.87375,0.13228995 H 5.2652083 L 6.35,2.0108316 Z m 4.7625004,9.3133334 1.11125,1.931458 0.3175,-0.529167 -1.11125,-1.931458 z M 5.2652083,2.0108316 4.1804166,0.13228995 H 3.6777083 L 4.7625,2.0108316 Z m 5.6620837,10.6891664 1.11125,1.931458 0.264583,-0.449791 -1.11125,-1.931459 z M 3.175,2.0108316 H 3.571875 L 2.4870833,0.13228995 h -0.396875 z m 6.958542,12.0649994 1.11125,1.931459 0.211666,-0.343959 -1.11125,-1.931458 z M 20.425833,0.13228995 H 18.018125 L 19.20875,2.1960399 Z m -3.995208,0 L 18.415,3.5718732 19.05,2.4870816 17.700625,0.13228995 Z M 17.092083,2.0108316 16.007291,0.13228995 h -1.164166 l 1.084792,1.87854165 z" />
  <path
     id="path4785"
     d="m 24.870833,7.7522899 c 0,1.0318749 -0.846667,1.9314583 -1.905,1.9314583 -0.926042,0 -1.984375,-0.4497917 -1.984375,-1.984375 V 3.1220816 c 0,-1.0847917 0.79375,-1.9314583 1.957917,-1.9314583 1.11125,0 1.931458,0.8466666 1.931458,1.9843749 v 0.47625 h -1.190625 v -0.396875 c 0,-0.4762499 -0.291042,-0.8731249 -0.740833,-0.8731249 -0.608542,0 -0.740834,0.4233333 -0.740834,0.9789583 v 4.2862499 c 0,0.47625 0.185209,0.8466667 0.740834,0.8466667 0.3175,0 0.740833,-0.1852084 0.740833,-0.8466667 V 7.2231232 h 1.190625 z m 1.084792,-6.50875 h 1.190625 v 3.5983333 h 1.481666 V 1.2435399 H 29.845 V 9.6043732 H 28.627916 V 5.9002065 H 27.14625 v 3.7041667 h -1.190625 z m 5.265208,0 h 1.190625 v 8.3608333 h -1.190625 z m 3.730625,4.841875 -1.666875,-4.841875 h 1.27 l 0.978958,3.33375 H 35.56 l 0.9525,-3.33375 h 1.27 l -1.640417,4.841875 v 3.5189583 h -1.190625 z m 3.466042,-2.8575 c 0,-1.349375 1.031875,-2.0372916 2.010833,-2.0372916 0.978958,0 2.010833,0.6879166 2.010833,2.0372916 v 4.4185416 c 0,1.349375 -1.031875,2.0372917 -2.010833,2.0372917 -0.978958,0 -2.010833,-0.6879167 -2.010833,-2.0372917 z m 1.217083,4.4185416 c 0,0.5820833 0.370417,0.8466667 0.820208,0.8466667 0.449792,0 0.820209,-0.2645834 0.820209,-0.8466667 V 3.2279149 c 0,-0.5820833 -0.370417,-0.8466666 -0.820209,-0.8466666 -0.449791,0 -0.820208,0.2645833 -0.820208,0.8466666 z m 4.101041,-6.4029166 h 1.772709 c 1.349375,0 2.090208,0.8202084 2.090208,2.1695833 v 3.9158333 c 0,1.5610417 -0.79375,2.301875 -2.196042,2.301875 h -1.666875 z m 1.190625,7.2495833 h 0.555625 c 0.661459,0 0.926042,-0.3175 0.926042,-1.031875 v -4.048125 c 0,-0.6614583 -0.211667,-1.0318749 -0.926042,-1.0318749 h -0.555625 z m 5.265209,-7.2495833 h 1.005416 l 1.878542,8.3608333 H 51.884791 L 51.540833,7.8052065 h -1.666875 l -0.343959,1.7991667 h -1.190625 z m 0.502708,2.4077083 -0.608542,3.0427083 h 1.190625 z M 23.283333,14.366873 c 0,0.608542 -0.502708,1.164167 -1.137708,1.164167 C 21.59,15.53104 20.955,15.266456 20.955,14.340415 v -2.725209 c 0,-0.661458 0.47625,-1.137708 1.164166,-1.137708 0.661459,0 1.137709,0.502708 1.137709,1.190625 v 0.291042 H 22.5425 V 11.72104 c 0,-0.291042 -0.15875,-0.529167 -0.449792,-0.529167 -0.370417,0 -0.449792,0.238125 -0.449792,0.582083 v 2.54 c 0,0.291042 0.105834,0.502709 0.423334,0.502709 0.185208,0 0.449791,-0.105834 0.449791,-0.502709 v -0.238125 h 0.714375 v 0.291042 z m 0.740833,-2.69875 c 0,-0.820208 0.608542,-1.217083 1.190625,-1.217083 0.582084,0 1.190625,0.396875 1.190625,1.217083 v 2.645833 c 0,0.820209 -0.608541,1.217084 -1.190625,1.217084 -0.582083,0 -1.190625,-0.396875 -1.190625,-1.217084 z m 0.714375,2.645833 c 0,0.343959 0.211667,0.502709 0.47625,0.502709 0.264584,0 0.47625,-0.15875 0.47625,-0.502709 v -2.645833 c 0,-0.343958 -0.211666,-0.502708 -0.47625,-0.502708 -0.264583,0 -0.47625,0.15875 -0.47625,0.502708 z m 5.794375,-3.81 h 1.084792 c 0.396875,0 0.687917,0.07937 0.926042,0.343959 0.238125,0.264583 0.3175,0.582083 0.3175,1.164166 0,0.423334 -0.02646,0.740834 -0.211667,1.005417 -0.185208,0.3175 -0.502708,0.529167 -1.031875,0.529167 h -0.370417 v 1.931458 h -0.714375 z m 0.714375,2.354792 h 0.343959 c 0.582083,0 0.582083,-0.343958 0.582083,-0.846667 0,-0.47625 0,-0.846666 -0.555625,-0.846666 h -0.370417 z m 2.301875,-1.190625 c 0,-0.820208 0.608542,-1.217083 1.190625,-1.217083 0.582084,0 1.190625,0.396875 1.190625,1.217083 v 2.645833 c 0,0.820209 -0.608541,1.217084 -1.190625,1.217084 -0.582083,0 -1.190625,-0.396875 -1.190625,-1.217084 z m 0.714375,2.645833 c 0,0.343959 0.211667,0.502709 0.47625,0.502709 0.264584,0 0.47625,-0.15875 0.47625,-0.502709 v -2.645833 c 0,-0.343958 -0.211666,-0.502708 -0.47625,-0.502708 -0.264583,0 -0.47625,0.15875 -0.47625,0.502708 z m 6.535209,-3.81 h 0.608541 l 1.11125,5.000625 H 41.804166 L 41.5925,14.41979 h -0.978959 l -0.211666,1.084791 H 39.6875 Z m 0.291041,1.42875 -0.370416,1.799167 h 0.714375 z m 2.2225,-0.767291 h -0.820208 v -0.661459 h 2.38125 v 0.661459 h -0.846667 v 4.312708 h -0.714375 z m 2.169583,-0.661459 h 0.714375 v 5.000625 h -0.714375 z m 1.640417,1.164167 c 0,-0.820208 0.608542,-1.217083 1.190625,-1.217083 0.582083,0 1.190625,0.396875 1.190625,1.217083 v 2.645833 c 0,0.820209 -0.608542,1.217084 -1.190625,1.217084 -0.582083,0 -1.190625,-0.396875 -1.190625,-1.217084 z m 0.714375,2.645833 c 0,0.343959 0.211667,0.502709 0.47625,0.502709 0.264583,0 0.47625,-0.15875 0.47625,-0.502709 v -2.645833 c 0,-0.343958 -0.211667,-0.502708 -0.47625,-0.502708 -0.264583,0 -0.47625,0.15875 -0.47625,0.502708 z m 2.566458,-3.81 h 0.687917 l 1.084792,2.989792 h 0.02646 v -2.989792 h 0.714375 v 4.974167 H 52.228751 L 51.14396,12.488331 H 51.1175 v 2.989792 H 50.403124 Z M 29.845,15.478123 29.104166,13.30854 c 0.105834,-0.07938 0.211667,-0.185209 0.291042,-0.3175 0.15875,-0.264584 0.211667,-0.555625 0.211667,-1.005417 0,-0.608542 -0.07937,-0.899583 -0.3175,-1.164167 -0.238125,-0.264583 -0.529167,-0.343958 -0.926042,-0.343958 h -1.084792 v 5.000625 h 0.714375 v -1.957917 h 0.47625 l 0.608542,1.957917 z m -1.852084,-4.312708 h 0.370417 c 0.555625,0 0.555625,0.396875 0.555625,0.846666 0,0.502709 0,0.846667 -0.582083,0.846667 H 27.992916 Z M 39.37,15.478123 38.629166,13.30854 c 0.105834,-0.07938 0.211667,-0.185209 0.291042,-0.3175 0.15875,-0.264584 0.211667,-0.555625 0.211667,-1.005417 0,-0.608542 -0.07937,-0.899583 -0.3175,-1.164167 -0.238125,-0.264583 -0.529167,-0.343958 -0.926042,-0.343958 h -1.084792 v 5.000625 h 0.714375 v -1.957917 h 0.47625 l 0.608542,1.957917 z m -1.852084,-4.312708 h 0.370417 c 0.555625,0 0.555625,0.396875 0.555625,0.846666 0,0.502709 0,0.846667 -0.582083,0.846667 h -0.343959 z"
     class="st2"
     style="fill:#231815;stroke-width:0.264583" />
  <defs
     id="defs2" />
  <metadata
     id="metadata663">
    <rdf:RDF>
      <cc:Work
         rdf:about="">
        <dc:title></dc:title>
      </cc:Work>
    </rdf:RDF>
  </metadata>
</svg>
