<?xml version="1.0" encoding="UTF-8"?>
<!DOCTYPE svg PUBLIC "-//W3C//DTD SVG 1.1//EN" "http://www.w3.org/Graphics/SVG/1.1/DTD/svg11.dtd">
<svg version="1.2" width="47.6mm" height="13.5mm" viewBox="0 0 4760 1350" preserveAspectRatio="xMidYMid" fill-rule="evenodd" stroke-width="28.222" stroke-linejoin="round" xmlns="http://www.w3.org/2000/svg" xmlns:ooo="http://xml.openoffice.org/svg/export" xmlns:xlink="http://www.w3.org/1999/xlink" xmlns:presentation="http://sun.com/xmlns/staroffice/presentation" xmlns:smil="http://www.w3.org/2001/SMIL20/" xmlns:anim="urn:oasis:names:tc:opendocument:xmlns:animation:1.0" xml:space="preserve">
 <defs class="ClipPathGroup">
  <clipPath id="presentation_clip_path" clipPathUnits="userSpaceOnUse">
   <rect x="0" y="0" width="4760" height="1350"/>
  </clipPath>
  <clipPath id="presentation_clip_path_shrink" clipPathUnits="userSpaceOnUse">
   <rect x="4" y="1" width="4751" height="1348"/>
  </clipPath>
 </defs>
 <defs class="TextShapeIndex">
  <g ooo:slide="id1" ooo:id-list="id3 id4 id5 id6 id7 id8 id9 id10 id11 id12 id13 id14"/>
 </defs>
 <defs class="EmbeddedBulletChars">
  <g id="bullet-char-template-57356" transform="scale(0.00048828125,-0.00048828125)">
   <path d="M 580,1141 L 1163,571 580,0 -4,571 580,1141 Z"/>
  </g>
  <g id="bullet-char-template-57354" transform="scale(0.00048828125,-0.00048828125)">
   <path d="M 8,1128 L 1137,1128 1137,0 8,0 8,1128 Z"/>
  </g>
  <g id="bullet-char-template-10146" transform="scale(0.00048828125,-0.00048828125)">
   <path d="M 174,0 L 602,739 174,1481 1456,739 174,0 Z M 1358,739 L 309,1346 659,739 1358,739 Z"/>
  </g>
  <g id="bullet-char-template-10132" transform="scale(0.00048828125,-0.00048828125)">
   <path d="M 2015,739 L 1276,0 717,0 1260,543 174,543 174,936 1260,936 717,1481 1274,1481 2015,739 Z"/>
  </g>
  <g id="bullet-char-template-10007" transform="scale(0.00048828125,-0.00048828125)">
   <path d="M 0,-2 C -7,14 -16,27 -25,37 L 356,567 C 262,823 215,952 215,954 215,979 228,992 255,992 264,992 276,990 289,987 310,991 331,999 354,1012 L 381,999 492,748 772,1049 836,1024 860,1049 C 881,1039 901,1025 922,1006 886,937 835,863 770,784 769,783 710,716 594,584 L 774,223 C 774,196 753,168 711,139 L 727,119 C 717,90 699,76 672,76 641,76 570,178 457,381 L 164,-76 C 142,-110 111,-127 72,-127 30,-127 9,-110 8,-76 1,-67 -2,-52 -2,-32 -2,-23 -1,-13 0,-2 Z"/>
  </g>
  <g id="bullet-char-template-10004" transform="scale(0.00048828125,-0.00048828125)">
   <path d="M 285,-33 C 182,-33 111,30 74,156 52,228 41,333 41,471 41,549 55,616 82,672 116,743 169,778 240,778 293,778 328,747 346,684 L 369,508 C 377,444 397,411 428,410 L 1163,1116 C 1174,1127 1196,1133 1229,1133 1271,1133 1292,1118 1292,1087 L 1292,965 C 1292,929 1282,901 1262,881 L 442,47 C 390,-6 338,-33 285,-33 Z"/>
  </g>
  <g id="bullet-char-template-9679" transform="scale(0.00048828125,-0.00048828125)">
   <path d="M 813,0 C 632,0 489,54 383,161 276,268 223,411 223,592 223,773 276,916 383,1023 489,1130 632,1184 813,1184 992,1184 1136,1130 1245,1023 1353,916 1407,772 1407,592 1407,412 1353,268 1245,161 1136,54 992,0 813,0 Z"/>
  </g>
  <g id="bullet-char-template-8226" transform="scale(0.00048828125,-0.00048828125)">
   <path d="M 346,457 C 273,457 209,483 155,535 101,586 74,649 74,723 74,796 101,859 155,911 209,963 273,989 346,989 419,989 480,963 531,910 582,859 608,796 608,723 608,648 583,586 532,535 482,483 420,457 346,457 Z"/>
  </g>
  <g id="bullet-char-template-8211" transform="scale(0.00048828125,-0.00048828125)">
   <path d="M -4,459 L 1135,459 1135,606 -4,606 -4,459 Z"/>
  </g>
  <g id="bullet-char-template-61548" transform="scale(0.00048828125,-0.00048828125)">
   <path d="M 173,740 C 173,903 231,1043 346,1159 462,1274 601,1332 765,1332 928,1332 1067,1274 1183,1159 1299,1043 1357,903 1357,740 1357,577 1299,437 1183,322 1067,206 928,148 765,148 601,148 462,206 346,322 231,437 173,577 173,740 Z"/>
  </g>
 </defs>
 <g>
  <g id="id2" class="Master_Slide">
   <g id="bg-id2" class="Background"/>
   <g id="bo-id2" class="BackgroundObjects"/>
  </g>
 </g>
 <g class="SlideGroup">
  <g>
   <g id="container-id1">
    <g id="id1" class="Slide" clip-path="url(#presentation_clip_path)">
     <g class="Page">
      <g class="Group">
       <g class="Group">
        <g class="com.sun.star.drawing.PolyPolygonShape">
         <g id="id3">
          <rect class="BoundingBox" stroke="none" fill="none" x="-1" y="-1" width="4763" height="1353"/>
          <path fill="rgb(0,0,255)" stroke="none" d="M 306,1350 L 4454,1350 4484,1349 4514,1344 4542,1338 4571,1327 4598,1314 4623,1299 4647,1281 4670,1261 4691,1239 4709,1215 4724,1189 4736,1162 4746,1135 4754,1105 4758,1077 4760,1047 4760,303 4758,273 4754,245 4746,215 4736,188 4724,161 4709,135 4691,111 4670,89 4647,69 4623,51 4598,36 4571,23 4542,12 4514,6 4484,2 4454,0 306,0 276,2 246,6 216,12 189,23 162,36 137,51 111,69 90,89 69,111 51,135 36,161 23,188 14,215 6,245 2,273 0,303 0,1047 2,1077 6,1105 14,1135 23,1162 36,1189 51,1215 69,1239 90,1261 111,1281 137,1299 162,1314 189,1327 216,1338 246,1344 276,1349 306,1350 Z"/>
         </g>
        </g>
        <g class="com.sun.star.drawing.PolyPolygonShape">
         <g id="id4">
          <rect class="BoundingBox" stroke="none" fill="none" x="405" y="410" width="303" height="565"/>
          <path fill="rgb(255,255,255)" stroke="none" d="M 405,974 L 485,974 485,725 519,725 618,974 706,974 606,725 616,721 621,719 626,717 630,715 634,713 638,711 642,709 645,706 648,703 652,701 655,698 658,694 661,691 664,687 667,683 670,679 674,674 677,669 679,663 682,658 685,653 687,647 689,641 691,636 693,630 694,625 696,619 697,614 697,609 698,604 698,599 698,540 697,527 695,514 692,502 688,490 683,478 677,468 670,458 662,448 653,440 644,432 639,429 634,426 629,423 623,420 618,418 612,416 601,413 588,411 576,410 405,410 405,974 Z M 485,652 L 485,483 565,483 571,483 576,484 579,485 581,486 584,486 586,487 589,488 591,490 593,491 595,493 597,494 599,496 603,500 606,504 609,508 612,513 614,518 616,523 617,529 618,534 618,540 618,599 618,602 618,604 617,607 617,609 616,612 616,615 615,617 614,620 613,622 612,624 610,627 609,629 608,631 606,633 605,636 603,638 601,640 599,641 597,643 595,645 592,646 590,647 588,648 586,649 583,650 581,650 578,651 575,651 572,652 568,652 560,652 485,652 Z"/>
         </g>
        </g>
        <g class="com.sun.star.drawing.PolyPolygonShape">
         <g id="id5">
          <rect class="BoundingBox" stroke="none" fill="none" x="768" y="410" width="291" height="574"/>
          <path fill="rgb(255,255,255)" stroke="none" d="M 1058,410 L 978,410 978,841 978,848 977,855 975,861 973,868 970,874 967,879 963,885 959,890 954,894 952,896 949,898 947,900 944,902 941,903 938,905 935,906 932,907 926,909 919,910 913,910 906,910 899,909 893,907 890,906 887,905 885,903 882,902 879,900 877,899 872,895 867,890 863,885 859,880 856,874 853,868 851,862 849,855 848,848 848,841 848,410 768,410 768,837 769,852 771,867 774,882 779,895 784,908 788,914 791,920 795,925 799,931 808,941 813,946 818,951 824,955 829,959 835,963 841,966 847,969 853,972 867,976 881,980 895,982 911,983 926,982 941,980 955,976 969,972 975,969 982,966 988,962 994,959 1005,950 1016,941 1025,930 1030,925 1034,919 1037,913 1041,907 1044,901 1047,894 1051,881 1055,867 1057,852 1058,837 1058,410 Z"/>
         </g>
        </g>
        <g class="com.sun.star.drawing.PolyPolygonShape">
         <g id="id6">
          <rect class="BoundingBox" stroke="none" fill="none" x="1150" y="410" width="267" height="565"/>
          <path fill="rgb(255,255,255)" stroke="none" d="M 1150,974 L 1415,974 1415,901 1230,901 1230,725 1353,725 1353,652 1230,652 1230,483 1415,483 1415,410 1150,410 1150,974 Z"/>
         </g>
        </g>
        <g class="com.sun.star.drawing.PolyPolygonShape">
         <g id="id7">
          <rect class="BoundingBox" stroke="none" fill="none" x="1785" y="401" width="291" height="583"/>
          <path fill="rgb(255,255,255)" stroke="none" d="M 1785,813 L 1785,835 1786,850 1789,865 1792,879 1797,893 1803,905 1810,917 1819,929 1828,940 1839,949 1850,958 1862,965 1868,968 1875,971 1888,976 1902,980 1916,982 1931,983 1946,982 1961,980 1974,976 1987,971 1993,969 1999,966 2011,958 2022,950 2033,940 2042,930 2051,919 2058,907 2064,894 2068,881 2072,868 2074,853 2075,839 2074,824 2073,811 2070,798 2066,786 2060,774 2054,762 2047,751 2038,741 1889,577 1887,575 1885,573 1883,570 1882,568 1880,566 1879,564 1878,561 1877,559 1876,556 1875,554 1874,551 1874,548 1873,546 1873,543 1873,541 1873,538 1873,532 1874,526 1876,521 1878,516 1880,511 1883,507 1886,502 1890,498 1894,494 1898,491 1903,488 1908,486 1913,484 1918,482 1924,481 1930,481 1935,481 1941,482 1946,483 1951,485 1953,486 1955,487 1958,488 1960,489 1962,490 1964,492 1968,495 1971,499 1974,503 1977,508 1980,513 1983,518 1985,524 1987,530 1988,537 2066,537 2064,522 2061,508 2058,495 2053,482 2047,470 2041,459 2033,449 2024,439 2015,430 2010,427 2005,423 2000,420 1994,416 1989,414 1983,411 1971,407 1958,404 1945,402 1931,401 1917,402 1903,404 1890,407 1878,412 1866,417 1854,424 1844,432 1834,441 1825,451 1816,462 1813,467 1810,473 1807,479 1804,485 1799,498 1796,511 1794,524 1793,539 1793,545 1794,552 1794,558 1795,564 1797,570 1798,577 1800,583 1802,589 1805,594 1807,600 1810,606 1814,611 1817,617 1821,622 1825,627 1829,632 1978,794 1980,796 1982,798 1984,801 1986,803 1987,806 1989,808 1990,811 1991,813 1992,816 1993,819 1994,822 1994,824 1995,827 1995,830 1995,833 1995,836 1995,843 1994,850 1992,856 1990,863 1988,868 1984,874 1981,879 1977,884 1972,888 1970,890 1967,892 1965,894 1962,895 1959,897 1956,898 1954,899 1951,900 1945,902 1938,903 1931,903 1924,903 1918,902 1911,900 1908,899 1905,898 1902,897 1899,895 1897,893 1894,892 1891,890 1889,888 1884,883 1880,878 1876,873 1873,867 1870,862 1868,855 1867,849 1866,842 1865,834 1865,813 1785,813 Z"/>
         </g>
        </g>
        <g class="com.sun.star.drawing.PolyPolygonShape">
         <g id="id8">
          <rect class="BoundingBox" stroke="none" fill="none" x="2140" y="401" width="291" height="583"/>
          <path fill="rgb(255,255,255)" stroke="none" d="M 2348,836 L 2347,845 2346,853 2345,860 2343,867 2340,874 2337,880 2336,883 2334,885 2332,888 2330,890 2328,893 2325,895 2323,897 2321,899 2318,901 2315,902 2313,904 2310,905 2307,906 2304,907 2301,908 2297,909 2291,910 2283,910 2277,910 2270,909 2264,907 2261,906 2258,905 2256,904 2253,902 2250,901 2248,899 2245,897 2243,895 2238,891 2234,886 2231,881 2227,876 2225,870 2223,864 2221,858 2220,851 2220,844 2220,541 2220,534 2221,527 2223,521 2225,515 2227,509 2231,503 2234,498 2238,493 2243,489 2245,487 2248,485 2250,483 2253,482 2256,480 2258,479 2261,478 2264,477 2270,475 2277,474 2283,474 2290,474 2296,475 2303,477 2306,478 2308,479 2311,481 2314,482 2317,484 2319,485 2324,489 2329,494 2333,499 2337,504 2340,509 2343,515 2345,521 2346,527 2347,534 2348,541 2348,550 2430,550 2429,538 2429,532 2428,526 2428,520 2427,515 2426,510 2424,505 2423,500 2421,496 2419,491 2417,486 2415,481 2412,477 2409,472 2406,467 2400,460 2395,453 2388,446 2382,440 2375,434 2368,428 2360,423 2352,419 2344,415 2336,411 2327,408 2319,406 2310,404 2301,402 2292,401 2283,401 2269,402 2254,404 2241,408 2234,410 2228,413 2222,416 2216,419 2210,422 2204,426 2193,435 2182,445 2173,456 2164,467 2157,479 2151,492 2147,506 2143,520 2141,535 2140,550 2140,836 2141,852 2143,867 2146,881 2151,894 2157,907 2160,913 2164,919 2172,930 2181,941 2191,950 2197,955 2202,959 2208,962 2214,966 2220,969 2226,972 2233,974 2239,976 2253,980 2267,982 2283,983 2298,982 2312,980 2326,976 2340,972 2352,966 2365,959 2376,951 2387,942 2396,932 2405,921 2409,915 2412,909 2415,903 2418,897 2421,891 2423,884 2426,871 2429,857 2430,842 2430,836 2348,836 Z"/>
         </g>
        </g>
        <g class="com.sun.star.drawing.PolyPolygonShape">
         <g id="id9">
          <rect class="BoundingBox" stroke="none" fill="none" x="2508" y="401" width="291" height="583"/>
          <path fill="rgb(255,255,255)" stroke="none" d="M 2508,836 L 2509,852 2511,867 2514,882 2519,895 2524,908 2528,914 2531,920 2535,925 2539,931 2548,941 2553,946 2558,951 2564,955 2569,959 2575,963 2581,966 2587,969 2593,972 2607,976 2621,980 2635,982 2651,983 2666,982 2681,980 2695,976 2709,971 2715,969 2721,965 2727,962 2733,958 2745,950 2755,940 2765,930 2773,918 2777,912 2781,906 2784,900 2787,894 2791,880 2795,866 2797,852 2798,836 2798,547 2798,541 2797,536 2797,531 2796,526 2795,520 2794,515 2792,510 2791,504 2789,499 2787,494 2784,488 2782,483 2779,478 2776,473 2773,468 2769,463 2764,455 2758,449 2752,442 2746,436 2740,431 2733,426 2726,421 2719,417 2712,413 2704,410 2696,407 2688,405 2679,403 2671,402 2662,401 2653,401 2637,402 2622,404 2609,408 2595,412 2589,415 2583,418 2577,421 2571,425 2565,429 2560,433 2549,443 2540,453 2536,459 2532,464 2528,470 2525,476 2522,483 2519,489 2515,502 2511,516 2509,531 2508,547 2508,836 Z M 2718,847 L 2718,854 2717,860 2715,866 2714,869 2713,872 2712,875 2710,877 2709,880 2707,882 2703,887 2699,892 2694,896 2689,900 2684,903 2678,905 2672,907 2666,909 2659,910 2653,910 2646,910 2639,909 2633,907 2627,905 2621,903 2618,902 2616,900 2613,898 2611,896 2606,892 2604,890 2602,888 2600,886 2598,883 2597,881 2595,878 2594,875 2593,873 2592,870 2591,867 2589,861 2588,854 2588,847 2588,538 2588,532 2589,525 2591,519 2593,513 2594,510 2596,508 2597,505 2599,502 2603,497 2607,493 2612,488 2617,485 2622,482 2628,479 2634,477 2640,475 2647,474 2653,474 2660,474 2666,475 2672,477 2678,479 2684,482 2689,485 2694,489 2699,493 2703,498 2707,503 2710,508 2713,514 2715,519 2717,525 2718,532 2718,538 2718,847 Z"/>
         </g>
        </g>
        <g class="com.sun.star.drawing.PolyPolygonShape">
         <g id="id10">
          <rect class="BoundingBox" stroke="none" fill="none" x="2886" y="410" width="243" height="565"/>
          <path fill="rgb(255,255,255)" stroke="none" d="M 2886,974 L 3128,974 3128,901 2966,901 2966,410 2886,410 2886,974 Z"/>
         </g>
        </g>
        <g class="com.sun.star.drawing.PolyPolygonShape">
         <g id="id11">
          <rect class="BoundingBox" stroke="none" fill="none" x="3176" y="410" width="341" height="565"/>
          <path fill="rgb(255,255,255)" stroke="none" d="M 3274,910 L 3415,910 3431,974 3515,974 3392,410 3300,410 3177,974 3260,974 3274,910 Z M 3400,837 L 3290,837 3344,579 3400,837 Z"/>
         </g>
        </g>
        <g class="com.sun.star.drawing.PolyPolygonShape">
         <g id="id12">
          <rect class="BoundingBox" stroke="none" fill="none" x="3576" y="410" width="81" height="565"/>
          <path fill="rgb(255,255,255)" stroke="none" d="M 3576,974 L 3656,974 3656,410 3576,410 3576,974 Z"/>
         </g>
        </g>
        <g class="com.sun.star.drawing.PolyPolygonShape">
         <g id="id13">
          <rect class="BoundingBox" stroke="none" fill="none" x="3749" y="410" width="303" height="565"/>
          <path fill="rgb(255,255,255)" stroke="none" d="M 3749,974 L 3829,974 3829,725 3863,725 3962,974 4050,974 3950,725 3960,721 3965,719 3970,717 3974,715 3978,713 3982,711 3986,709 3989,706 3992,703 3996,701 3999,698 4002,694 4005,691 4008,687 4011,683 4014,679 4018,674 4021,669 4023,663 4026,658 4029,653 4031,647 4033,641 4035,636 4037,630 4038,625 4040,619 4041,614 4041,609 4042,604 4042,599 4042,540 4041,527 4039,514 4036,502 4032,490 4027,478 4021,468 4014,458 4006,448 3997,440 3988,432 3983,429 3978,426 3973,423 3967,420 3962,418 3956,416 3945,413 3932,411 3920,410 3749,410 3749,974 Z M 3829,652 L 3829,483 3909,483 3915,483 3920,484 3923,485 3925,486 3928,486 3930,487 3933,488 3935,490 3937,491 3939,493 3941,494 3943,496 3947,500 3950,504 3953,508 3956,513 3958,518 3960,523 3961,529 3962,534 3962,540 3962,599 3962,602 3962,604 3961,607 3961,609 3960,612 3960,615 3959,617 3958,620 3957,622 3956,624 3954,627 3953,629 3952,631 3950,633 3949,636 3947,638 3945,640 3943,641 3941,643 3939,645 3936,646 3934,647 3932,648 3930,649 3927,650 3925,650 3922,651 3919,651 3916,652 3912,652 3904,652 3829,652 Z"/>
         </g>
        </g>
        <g class="com.sun.star.drawing.PolyPolygonShape">
         <g id="id14">
          <rect class="BoundingBox" stroke="none" fill="none" x="4113" y="410" width="267" height="565"/>
          <path fill="rgb(255,255,255)" stroke="none" d="M 4113,974 L 4378,974 4378,901 4193,901 4193,725 4316,725 4316,652 4193,652 4193,483 4378,483 4378,410 4113,410 4113,974 Z"/>
         </g>
        </g>
       </g>
      </g>
     </g>
    </g>
   </g>
  </g>
 </g>
</svg>