<?xml version="1.0" encoding="utf-8"?>
<!-- Generator: Adobe Illustrator 19.2.1, SVG Export Plug-In . SVG Version: 6.00 Build 0)  -->
<svg version="1.1" id="レイヤー_1" xmlns="http://www.w3.org/2000/svg" xmlns:xlink="http://www.w3.org/1999/xlink" x="0px"
	 y="0px" viewBox="0 0 86 37.9" style="enable-background:new 0 0 86 37.9;" xml:space="preserve">
<style type="text/css">
	.st0{fill:#D2171F;}
</style>
<g>
	<path class="st0" d="M37.5,26.9c-1.9-1.4-4.4-2-6.6-2c-2.2,0.2-3.2,1.9-3.2,1.9c-1-1.9-2.9-2.9-6-2.8c-4.9,0-9.8,2.3-13.7,2.3
		c-3.7,0-6.4-2.3-6.4-6.6c0.2-7.3,6.3-13.9,11-16.9c2.6-1.7,4.9-2.2,6.3-2c1,0.1,2.3,1.3,1.5,3.2c-1.2,2.6-2.8,2.4-2.7,1.1
		c0-0.8,0.5-1.3,1-1.6c0.2-0.1,0.7-0.2,0.9-0.2C19.8,2.9,20,1.5,18.1,2c-1.9,0.5-4.2,2.3-6.4,4.8c-2.2,2.4-5.6,7-6.4,11.8
		c-0.4,2.3-0.2,6.3,5.1,6.3c4.4-0.1,11-3,17-2.9c2.3,0,4.3,0.7,5.9,1.7C35,24.5,36.8,25.9,37.5,26.9 M38.9,13.6h0.9
		c0,0-4.6,6.7-7.1,6.4c-1.4-0.1-1-2-1-2s-2,2.5-3.8,1.9c-1.7-0.4-0.6-3.2-0.6-3.2c-0.2,0.1-3.8,4.2-6.5,3.2
		c-2.6-1.1-1.3-4.6-0.7-5.5c0.4-0.9,0.9-1.7,0.9-1.7s-0.4,0.1-0.7,0.1c-0.2,0.1-0.6,0.2-0.6,0.2s-1.3,2-2.1,3.1
		c-0.8,1-4.1,4.6-6,3.8c-2-0.7-1.4-3.4-0.4-5.6c1.8-3.5,6-7.9,8.6-7.2c2.5,0.7,0.4,4.8,0.4,4.8s0.5,0.1,1.7-0.7
		c1.8-1.2,4.1-4.5,6.6-4.1c1.2,0.1,2.2,1.3,0.7,3.7c-0.4,0.8-1.3,1.4-1.9,0.8c-0.4-0.5-0.1-1.2,0.4-1.7C28.2,9.1,29,9.2,29,9.2
		s0.4-0.9-0.7-0.9c-0.8,0-3,2-4.2,4c-1.1,1.9-2.9,5-1.1,5.8c1.6,0.6,4.5-3,5.9-4.8c1.3-1.9,4.5-6.1,7-6.3c0.9,0,1.5,0.8,1.5,0.8
		l0.3-0.5h2.6c0,0-4.9,8.3-5.3,8.9c-0.3,0.5-0.7,1.6,0.4,1C36.6,16.6,38.9,13.6,38.9,13.6z M18.6,12.7c-0.1,0-0.7-0.2-1.3-0.6
		c-0.6-0.4-0.9-1.1-1-1.1c0-0.1,0-0.1-0.1,0c0,0-0.1,0.2-1,1.6c-1,1.4-2.3,4.3-1.1,4.7c0.8,0.3,2.3-1.1,3-2.1
		c0.7-0.9,1.5-2.3,1.6-2.3C18.7,12.7,18.7,12.7,18.6,12.7z M19.7,8.3C19,7.8,17.2,9,17.2,10.3c0,1.3,1.6,1.6,1.8,1.6
		c0,0,0.2,0.1,0.2-0.1c0.1-0.1,0.3-0.5,0.5-1.1C20,10.1,20.3,8.8,19.7,8.3z M33,15.2c1.1-1.4,4-6.6,4-6.6s-0.1-0.4-0.4-0.4
		c-0.4,0-1.1,0.1-2.5,1.8c-1.3,1.7-2.3,3.1-3.1,4.5c-0.8,1.5-1.2,2.5-0.8,2.9c0.2,0.1,0.4,0.1,0.5,0c0.3-0.1,0.7-0.4,1.3-1
		C32.3,16.1,32.6,15.7,33,15.2z M44.8,7.3h-2.5l-1.4,2.4h2.5L44.8,7.3z M81.5,3.2c-1.8,1.2-4.3,2.3-6.8,2c-0.6,0.6-1.3,1.4-1.9,2.2
		c4.3,0.8,7.9-1.8,10-4.1c1.2-1.4,1.8-2.6,1.8-2.6S83.4,2,81.5,3.2z M74.2,22.7c-0.3,0.5-0.8,1.6,0.4,1c1.4-0.8,3.5-4,3.5-4H79
		c0,0-1.2,1.9-2.8,3.7c-1.4,1.7-3.2,3.1-4.4,2.9c-1.4-0.1-1-2-1-2s-2.1,2.2-3.5,2c-1.9-0.2-1.4-2.6-1.4-2.6s-2.2,2.7-3.6,2.6
		c-2.3-0.1-1.8-3-1.1-5c0.4-1.1,0.7-2,0.7-2s-0.2,0.1-0.8,0.2c-0.2,0.1-0.7,0.1-0.7,0.1s-0.9,1.7-1.7,2.7c-0.7,1.1-4.1,4.6-6,4
		c-1.8-0.7-1.2-3.5-0.2-5.6c1.5-3.3,5.8-7.9,8.3-7.3c2.6,0.7,0.1,5.4,0.1,5.4c0.1,0,0.2,0.1,0.5,0c0.5-0.1,0.9-0.3,0.9-0.3
		s2.6-5.5,5.5-9c2.9-3.6,8.5-9.7,10.7-8.2c0.5,0.4,0.3,1.6-0.4,3.2c-0.3,0.1-0.7,0.2-1,0.2c0.5-0.9,0.8-1.7,0.9-2.2
		c0.3-1.9-3.9,2-7,6.2c-3,4.2-4.9,8-4.9,8s0.6-0.4,1.6-1.1c1-0.8,2.4-2,3.9-3.7c1-1.1,2.2-2.3,3.2-3.8c0.4-0.1,0.7-0.1,1-0.2
		c-1.2,1.7-2.5,3.3-3.6,4.3c-1.2,1.3-2.5,2.6-3.7,3.6c-1.8,1.5-3.2,2.4-3.2,2.4s-2.6,5.4-1.2,5.8c0.8,0.2,2.6-2.4,2.6-2.4
		s2.2-3.4,3.5-4.9c1.8-2.1,3.3-3.2,4.9-3.4c0.9,0,1.4,1,1.4,1l0.5-0.7h2.6C79.6,13.6,74.6,22,74.2,22.7z M59.5,19.3
		c0,0-0.6-0.2-1.2-0.8c-0.6-0.4-0.9-1-0.9-1.1c0,0-0.1,0-0.1,0.1c0,0-0.2,0.1-1.1,1.5c-1,1.4-2.4,4.3-1.1,4.7
		c0.8,0.3,2.2-1.1,2.9-2.1c0.8-0.9,1.4-2,1.4-2.1C59.6,19.4,59.6,19.3,59.5,19.3z M60.8,17c0.2-0.6,0.5-1.8-0.1-2.3
		c-0.7-0.5-2.5,0.7-2.5,2c0,1.3,1.2,1.8,1.5,1.9c0.2,0,0.3,0,0.4-0.1C60.2,18.4,60.7,17.6,60.8,17z M75.8,15.2
		c0.1-0.1,0.1-0.2,0.1-0.2s0-0.4-0.4-0.4c-0.4,0-1,0.1-2.4,1.7c-1.4,1.6-2.3,3-3.1,4.4c-0.8,1.5-1.1,2.6-0.7,2.9
		c0.1,0.1,0.3,0.1,0.5,0.1c0.3-0.1,0.7-0.4,1.2-1.1c0.3-0.3,0.5-0.8,0.9-1.2C73,20.2,75.4,16.1,75.8,15.2z M81.5,3.2
		c-1.8,1.2-4.3,2.3-6.8,2c-0.6,0.6-1.3,1.4-1.9,2.2c4.3,0.8,7.9-1.8,10-4.1c1.2-1.4,1.8-2.6,1.8-2.6S83.4,2,81.5,3.2z M69.5,6.3
		c-1.9-1.1-3.4-2.3-4.9-3.1c-1.5-0.7-2.4-1-3.6-0.9c-0.2,0-0.5,0.2-0.5,0.2s0.7,2-1.8,5.6c-2.4,3.5-4.7,3.5-5.3,2.5
		c-0.7-1,0.2-3.1,1.6-5C56.5,3.6,59.2,2,59.2,2s-0.8-0.5-2.9,0.7c-2,1.1-5.5,3.9-8.7,8.4c-3.2,4.6-3.8,7.1-4.3,9.1
		c-0.5,2,0,4.1,2.2,4.1s4.7-3.3,5.4-4.4c1.3-2.2,2.2-5.5,0.4-5.1c-0.9,0.2-1.6,1.2-2.1,2.2c-0.4,1-0.7,1.9-0.7,1.9s-0.7,0.3-1.7,1.1
		c-1,0.8-1.7,1.5-1.7,1.5s0-1.6,1.3-4.1s3.6-3.8,4.9-3.9c1.2-0.1,2.7,1,1.4,4.6c-1.4,3.7-5.2,8.3-9.2,8.3c-3.7,0.1-6.1-4.7-1-13
		C48.2,4,54.9,1.1,57.1,0.8c2.2-0.3,2.9,0.7,2.9,0.7s1.8-0.9,4.1-0.7c2.6,0.2,4.7,2,7.4,3.4C70.9,4.9,70.1,5.6,69.5,6.3z M59.6,2.6
		c0,0-1.5,0.7-3.3,2.7c-1.9,2-2.9,4.2-2.1,4.8c0.3,0.2,1,0.3,2.3-0.8c1-0.9,1.9-2,2.6-3.7C59.9,3.7,59.6,2.8,59.6,2.6z"/>
	<path class="st0" d="M2,32c0-0.4,0.1-0.8-0.5-0.8v-0.2h2c0.9,0,1.8,0.2,1.8,1.2c0,0.7-0.5,1-0.9,1.1v0.1c0.5,0.1,1.2,0.4,1.2,1.3
		C5.6,36,4,36,3.4,36H2V32 M3.3,33.2h0.3c0.3,0,0.6-0.2,0.6-0.8c0-0.5-0.2-0.7-0.6-0.7c-0.2,0-0.3,0-0.3,0.4V33.2z M3.3,35.2
		c0,0.2,0.1,0.2,0.4,0.2c0.5,0,0.7-0.3,0.7-1c0-0.6-0.3-0.8-0.7-0.8H3.3V35.2z"/>
	<path class="st0" d="M6.7,33.5C6.7,32,7.2,31,8.9,31c1.6,0,2.1,1,2.1,2.6s-0.5,2.5-2.1,2.5C7.3,36.1,6.7,35.1,6.7,33.5 M8.9,35.5
		c0.7,0,0.7-1.1,0.7-2c0-0.9,0-2-0.7-2c-0.8,0-0.8,1.1-0.8,2C8,34.4,8.1,35.5,8.9,35.5z"/>
	<path class="st0" d="M13.1,31.6h-0.4c-0.7,0-0.7,0.3-0.7,0.5h-0.2l0.1-1h3.9v1.1h-0.2c0-0.5-0.2-0.6-0.7-0.6h-0.4V36h-1.3V31.6"/>
	<path class="st0" d="M17.8,31.6h-0.4c-0.6,0-0.7,0.3-0.7,0.5h-0.2v-1h3.9v1.1h-0.1c0-0.5-0.2-0.6-0.8-0.6h-0.4V36h-1.4V31.6"/>
	<path class="st0" d="M21.8,32.1c0-0.5,0-0.8-0.4-0.8v-0.2H23v3.8c0,0.5,0,0.5,0.5,0.5h0.2c0.5,0,0.8,0.1,0.9-0.5h0.2L24.8,36h-3.1
		V32.1"/>
	<path class="st0" d="M26,32c0-0.4,0.1-0.7-0.4-0.8v-0.2H29v1.1h-0.2c0-0.6-0.4-0.6-0.8-0.6h-0.2c-0.4,0-0.5,0-0.5,0.4v1.3h0.6
		c0.5,0,0.5-0.3,0.6-0.5h0.2v1.6h-0.2c0-0.5-0.2-0.6-0.6-0.6h-0.6v1.4c0,0.4,0.1,0.4,0.5,0.4h0.4c0.5,0,0.7,0,0.7-0.5h0.2V36H26V32"
		/>
	<path class="st0" d="M39.4,34.9c0-1-0.6-1.3-1.2-1.6c-0.6-0.4-1.3-0.6-1.3-1.1c0-0.4,0.4-0.5,0.8-0.5c0.4,0,1,0.1,1.3,0.4v-0.8
		c-0.2,0-0.7-0.2-1.3-0.2c-1.2,0-1.9,0.8-1.9,1.6c0,0.8,0.4,1.1,1.3,1.7c0.6,0.4,1.1,0.5,1.1,1.1c0,0.6-0.6,0.8-1.3,0.8
		c-1.9,0-3.3-1.7-3.4-2.7c0.5-0.2,0.8-0.5,0.8-1.1c0-1.3-1.2-1.3-1.9-1.3h-2.2v0.2c0.3,0,0.4,0.1,0.4,0.7v4H32v-2.3h0.1
		c0.8,1.9,2.5,2.8,4.7,2.8C38.9,36.5,39.4,35.6,39.4,34.9 M32.3,33.2H32v-1c0-0.5,0-0.6,0.3-0.6c0.4,0,0.7,0.2,0.7,0.9
		C32.9,33.2,32.6,33.2,32.3,33.2z"/>
	<path class="st0" d="M50.6,32c0-0.4,0-0.8-0.4-0.8v-0.2h2.2c1,0,1.7,0.4,1.7,1.4c0,1.5-1.2,1.6-2.2,1.6V36h-1.3V32 M51.9,33.5h0.2
		c0.4,0,0.8-0.1,0.8-0.9c0-0.8-0.3-1-0.7-1c-0.3,0-0.3,0.1-0.3,0.4V33.5z"/>
	<path class="st0" d="M59.9,32c0-0.6-0.1-0.8-0.4-0.8v-0.2H61l2.2,3.1v-3.1H64V36h-1.1l-2.3-3.1V36h-0.7V32"/>
	<path class="st0" d="M70.1,32c0-0.6-0.1-0.8-0.4-0.8v-0.2h1.5l2.2,3.1v-3.1h0.8V36h-1.1l-2.2-3.1V36h-0.8V32"/>
	<path class="st0" d="M48.2,36h1.3l-1.7-4.9h-1.4v0.2c0.1,0,0.3,0.1,0.2,0.5c-0.1,0.1-1.5,4.3-1.5,4.3h0.7l0.4-1.1h1.5L48.2,36
		 M46.4,34.1l0.5-1.6l0.5,1.6H46.4z"/>
	<path class="st0" d="M57.5,36h1.4l-1.8-4.9h-1.4v0.2c0.1,0,0.3,0.1,0.2,0.5c0,0.1-1.5,4.3-1.5,4.3h0.8l0.4-1.1h1.5L57.5,36
		 M55.8,34.1l0.5-1.6l0.5,1.6H55.8z"/>
	<path class="st0" d="M67.1,31.9c0-0.7-0.3-0.7-0.4-0.7v-0.2h1.7V36h-1.3V31.9"/>
	<path class="st0" d="M79,35.8c-0.2,0.1-0.8,0.3-1.5,0.3c-1.4,0-2.1-1-2.1-2.6c0-1.4,0.4-2.4,2.1-2.4c1.1,0,1.5,0.4,1.6,1.1h-1
		c-0.1-0.2-0.2-0.6-0.6-0.6c-0.7,0-0.8,1-0.8,1.7c0,0.7,0,2.2,1,2.2c0.4,0,1-0.2,1.3-0.5V35.8"/>
	<path class="st0" d="M79.7,35.5c0-0.2,0.3-0.5,0.5-0.5c0.3,0,0.5,0.3,0.5,0.5c0,0.3-0.2,0.5-0.5,0.5C80,36.1,79.7,35.8,79.7,35.5"
		/>
	<path class="st0" d="M41.9,37.2c0.7-0.5,0.7-1.4,0.7-2.3V32c0-0.4,0.1-0.8-0.4-0.8v-0.2h1.7V35C43.9,36.6,42.8,37.1,41.9,37.2
		L41.9,37.2"/>
</g>
</svg>
