<?xml version="1.0" encoding="UTF-8" standalone="no"?>
<!-- Created with Inkscape (http://www.inkscape.org/) -->

<svg
   xmlns:dc="http://purl.org/dc/elements/1.1/"
   xmlns:cc="http://creativecommons.org/ns#"
   xmlns:rdf="http://www.w3.org/1999/02/22-rdf-syntax-ns#"
   xmlns:svg="http://www.w3.org/2000/svg"
   xmlns="http://www.w3.org/2000/svg"
   xmlns:sodipodi="http://sodipodi.sourceforge.net/DTD/sodipodi-0.dtd"
   xmlns:inkscape="http://www.inkscape.org/namespaces/inkscape"
   width="1000.4"
   height="1000.4003"
   id="svg2"
   sodipodi:version="0.32"
   inkscape:version="0.48.4 r9939"
   version="1.0"
   sodipodi:docname="Ajax.svg"
   inkscape:output_extension="org.inkscape.output.svg.inkscape">
  <defs
     id="defs4">
    <inkscape:perspective
       sodipodi:type="inkscape:persp3d"
       inkscape:vp_x="0 : 300.5 : 1"
       inkscape:vp_y="0 : 1000 : 0"
       inkscape:vp_z="601 : 300.5 : 1"
       inkscape:persp3d-origin="300.5 : 200.33333 : 1"
       id="perspective3380" />
    <inkscape:perspective
       id="perspective3990"
       inkscape:persp3d-origin="375 : 250 : 1"
       inkscape:vp_z="750 : 375 : 1"
       inkscape:vp_y="0 : 1000 : 0"
       inkscape:vp_x="0 : 375 : 1"
       sodipodi:type="inkscape:persp3d" />
  </defs>
  <sodipodi:namedview
     id="base"
     pagecolor="#ffffff"
     bordercolor="#666666"
     borderopacity="1.0"
     gridtolerance="10000"
     guidetolerance="10"
     objecttolerance="10"
     inkscape:pageopacity="0.0"
     inkscape:pageshadow="2"
     inkscape:zoom="0.44192573"
     inkscape:cx="445.28516"
     inkscape:cy="518.71725"
     inkscape:document-units="px"
     inkscape:current-layer="layer1"
     width="601px"
     height="601px"
     inkscape:window-width="1280"
     inkscape:window-height="1001"
     inkscape:window-x="-8"
     inkscape:window-y="-8"
     showgrid="false"
     fit-margin-top="0.2"
     fit-margin-left="0.2"
     fit-margin-right="0.2"
     fit-margin-bottom="0.2"
     inkscape:window-maximized="1"
     showguides="true"
     inkscape:guide-bbox="true" />
  <metadata
     id="metadata7">
    <rdf:RDF>
      <cc:Work
         rdf:about="">
        <dc:format>image/svg+xml</dc:format>
        <dc:type
           rdf:resource="http://purl.org/dc/dcmitype/StillImage" />
        <dc:title />
      </cc:Work>
    </rdf:RDF>
  </metadata>
  <g
     inkscape:label="Layer 1"
     inkscape:groupmode="layer"
     id="layer1"
     transform="translate(1402.1878,1871.318)">
    <rect
       style="color:#000000;fill:#000000;fill-opacity:1;fill-rule:nonzero;stroke:none;stroke-width:0.8735441;marker:none;visibility:visible;display:inline;overflow:visible"
       id="rect3653"
       width="0"
       height="27.202072"
       x="578.73834"
       y="298.1684"
       rx="249.48199"
       ry="27.202072" />
    <path
       style="fill:#d71920;fill-opacity:1;stroke:none"
       d="m -694.8811,-1871.1179 292.8933,292.8932 -1.2e-4,414.2135 -292.89306,292.89347 -414.21352,-3.3e-4 -292.8933,-292.89314 2e-4,-414.2136 292.8931,-292.8932 z"
       id="path3032"
       inkscape:connector-curvature="0" />
    <path
       inkscape:connector-curvature="0"
       id="path3046"
       d="m -701.50851,-1855.1179 283.52071,283.5206 -1.2e-4,400.9587 -283.52048,283.52084 -400.9587,-3.2e-4 -283.5207,-283.52052 2e-4,-400.9588 283.5205,-283.5206 z"
       style="fill:#ffffff;fill-opacity:1;stroke:none" />
    <path
       style="fill:#d71920;fill-opacity:1;stroke:none"
       d="m -708.55014,-1838.1179 273.56234,273.5622 -1.1e-4,386.8755 -273.56213,273.56244 -386.87546,-3e-4 -273.5623,-273.56214 2e-4,-386.8756 273.5621,-273.5622 z"
       id="path3048"
       inkscape:connector-curvature="0" />
    <path
       d="m -1239.7384,-1377.8869 v -63.4526 h 35.665 c 27.8428,0 39.576,8.7522 39.576,29.8118 0,9.6 0,33.6408 -33.5862,33.6408 h -41.6548 m 0,36.8954 h 51.5282 c 57.901,0 68.6496,-48.957 68.6496,-68.649 0,-42.3928 -25.1624,-68.9224 -66.817,-68.9224 h -98.3522 v 214.9452 h 44.9914 v -77.3738 z"
       id="path7"
       inkscape:connector-curvature="0"
       style="fill:#ffffff;stroke:none" />
    <path
       d="m -1029.6598,-1430.1531 h 0.547 l 26.6394,85.059 h -54.8102 l 27.6238,-85.059 m -39.576,122.228 h 79.371 l 13.7846,44.3074 h 48.7658 l -75.7334,-214.9452 h -51.7744 l -76.6906,214.9452 h 47.3164 l 14.9606,-44.3074 z"
       id="path9"
       inkscape:connector-curvature="0"
       style="fill:#ffffff;stroke:none" />
    <path
       d="m -854.535,-1383.6579 v -57.709 h 55.9044 c 26.2838,0 31.4256,16.6838 31.4256,28.1708 0,21.3332 -11.3778,29.5382 -34.735,29.5382 h -52.595 m -44.0068,120.0402 h 44.0068 v -83.9652 h 46.3044 c 33.176,0 34.9538,11.5144 34.9538,40.7518 0,22.2084 1.8052,33.0936 4.841,43.2134 h 49.7232 v -5.7436 c -9.6274,-3.583 -9.6274,-11.2136 -9.6274,-42.6936 0,-39.9314 -9.6274,-46.468 -27.2958,-54.427 21.306,-7.111 33.3402,-27.6238 33.3402,-51.4184 0,-18.3246 -10.53,-60.7174 -67.747,-60.7174 h -108.6086 v 214.9726 h 0.11 z"
       id="path11"
       inkscape:connector-curvature="0"
       style="fill:#ffffff;stroke:none" />
    <path
       style="fill:#ffffff;stroke:none"
       d="m -524.30572,-1440.5463 -114.10608,0 0,45.4016 104.83428,0 0,38.0166 -104.83428,0 0,55.521 119.16588,0 0,37.9894 -163.20008,0 0,-214.9452 158.14028,0 0,38.0166"
       id="polyline13"
       inkscape:connector-curvature="0" />
  </g>
</svg>
