<?xml version="1.0" encoding="UTF-8" standalone="no"?>
<!-- Generator: Adobe Illustrator 12.0.1, SVG Export Plug-In  -->

<svg
   xmlns:dc="http://purl.org/dc/elements/1.1/"
   xmlns:cc="http://creativecommons.org/ns#"
   xmlns:rdf="http://www.w3.org/1999/02/22-rdf-syntax-ns#"
   xmlns:svg="http://www.w3.org/2000/svg"
   xmlns="http://www.w3.org/2000/svg"
   xmlns:sodipodi="http://sodipodi.sourceforge.net/DTD/sodipodi-0.dtd"
   xmlns:inkscape="http://www.inkscape.org/namespaces/inkscape"
   version="1.1"
   width="287.99905"
   height="287.99969"
   viewBox="-1 0 287.99906 287.9997"
   enable-background="new -1 0 292 291"
   xml:space="preserve"
   id="svg2"
   inkscape:version="0.48.2 r9819"
   sodipodi:docname="AJAX1.svg"><metadata
   id="metadata24"><rdf:RDF><cc:Work
       rdf:about=""><dc:format>image/svg+xml</dc:format><dc:type
         rdf:resource="http://purl.org/dc/dcmitype/StillImage" /><dc:title /></cc:Work></rdf:RDF></metadata><sodipodi:namedview
   pagecolor="#ffffff"
   bordercolor="#666666"
   borderopacity="1"
   objecttolerance="10"
   gridtolerance="10"
   guidetolerance="10"
   inkscape:pageopacity="0"
   inkscape:pageshadow="2"
   inkscape:window-width="1280"
   inkscape:window-height="1004"
   id="namedview22"
   showgrid="false"
   fit-margin-top="0"
   fit-margin-left="0"
   fit-margin-right="0"
   fit-margin-bottom="0"
   inkscape:zoom="1.6219931"
   inkscape:cx="187.96049"
   inkscape:cy="103.53898"
   inkscape:window-x="-8"
   inkscape:window-y="-8"
   inkscape:window-maximized="1"
   inkscape:current-layer="svg2" />
<defs
   id="defs4">
</defs>
<path
   d="m 152.32805,284.13696 130.773,-130.798 c 2.469,-2.449 3.898,-5.852 3.898,-9.336 0,-3.48 -1.43,-6.879 -3.898,-9.34 L 152.32805,3.8670524 c -2.469,-2.465 -5.855,-3.87700007 -9.355,-3.867000075974 C 139.50005,0.01605233 136.10205,1.4120524 133.64105,3.8670524 L 2.867,134.66296 c -2.45299897,2.437 -3.867,5.875 -3.867,9.34 0,3.461 1.41400103,6.899 3.867,9.336 l 130.77305,130.798 c 3.172,3.172 7.945,4.523 12.313,3.555 2.52,-0.57 4.391,-1.961 6.375,-3.555 z"
   id="path6"
   inkscape:connector-curvature="0"
   style="fill:#ffd520;stroke:none" />
<path
   d="m 152.32805,284.13696 130.773,-130.798 c 2.469,-2.449 3.898,-5.852 3.898,-9.336 0,-3.48 -1.43,-6.879 -3.898,-9.34 L 152.32805,3.8670524 c -2.469,-2.465 -5.855,-3.87700007 -9.355,-3.867000075974 C 139.50005,0.01605233 136.10205,1.4120524 133.64105,3.8670524 L 2.867,134.66296 c -2.45299897,2.437 -3.867,5.875 -3.867,9.34 0,3.461 1.41400103,6.899 3.867,9.336 l 130.77305,130.798 c 3.172,3.172 7.945,4.523 12.313,3.555 2.52,-0.57 4.391,-1.961 6.375,-3.555 z"
   id="path8"
   style="fill:none;stroke:none"
   inkscape:connector-curvature="0" />
<path
   clip-rule="evenodd"
   d="M 136.25805,281.51896 5.477002,150.72996 c -1.77,-1.781 -2.781,-4.219 -2.781,-6.727 0,-2.508 1.012,-4.942 2.781,-6.723 L 136.25805,6.4670524 c 1.766,-1.756 4.234,-2.756 6.727,-2.756 2.488,0 4.961,1 6.719,2.756 l 130.812,130.8129076 c 1.75,1.766 2.758,4.231 2.758,6.723 0,2.493 -1.008,4.961 -2.758,6.727 l -130.813,130.789 c -1.781,1.773 -4.211,2.782 -6.719,2.782 -2.511,0 -4.945,-1.009 -6.726,-2.782"
   id="path10"
   style="fill:#000000;fill-rule:evenodd;stroke:none"
   inkscape:connector-curvature="0" />
<path
   clip-rule="evenodd"
   d="m 139.91405,277.87096 c 0.797,0.805 1.945,1.273 3.07,1.273 1.109,0 2.289,-0.469 3.086,-1.273 l 130.781,-130.797 c 0.797,-0.797 1.266,-1.945 1.266,-3.071 0,-1.109 -0.469,-2.285 -1.266,-3.086 L 146.07005,10.124055 c -0.813,-0.7970026 -1.953,-1.2440026 -3.086,-1.2440026 -1.133,0.008 -2.258,0.447 -3.07,1.2440026 L 9.117002,140.91696 c -0.793,0.801 -1.266,1.977 -1.266,3.086 0,1.125 0.473,2.274 1.266,3.071 l 130.797048,130.797"
   id="path12"
   inkscape:connector-curvature="0"
   style="fill:#ffd520;fill-rule:evenodd;stroke:none" />

<polygon
   points="200.801,206.885 168.102,239.552 121.914,239.552 89.25,206.885 89.25,160.661 121.914,127.982 168.102,127.982 200.801,160.661 "
   id="polygon16"
   style="fill:none;stroke:none"
   transform="matrix(1.1719259,0,0,1.1719259,-411.44095,87.291815)" />


<path
   inkscape:connector-curvature="0"
   style="opacity:0.93999999;fill:#ffffff;fill-rule:evenodd;stroke:#cc0000;stroke-width:1;stroke-opacity:1"
   id="_166636688-1"
   class="fil0"
   d="m 111.47124,67.814913 c -0.309,0.309 -44.348722,44.351967 -44.657731,44.660967 0,0.43676 0,62.68674 0,63.12348 0.309009,0.30799 44.348731,44.27755 44.658351,44.58534 0.43612,0 62.63136,0 63.06649,0 0.31001,-0.30799 44.33758,-44.27755 44.64597,-44.58534 0,-0.43674 0,-62.68672 0,-63.12348 -0.30799,-0.309 -44.33596,-44.351967 -44.64597,-44.660967 -0.43735,0 -62.62995,0 -63.06711,0 z" /><path
   style="fill:#cc0000;fill-opacity:1;fill-rule:evenodd;stroke:none"
   d="m 173.11741,216.88138 -60.29884,0 -42.701326,-42.68368 0,-60.39212 42.701326,-42.686947 60.29884,0 42.76257,42.686947 0,60.39212 z"
   id="_166636544"
   inkscape:connector-curvature="0" /><path
   inkscape:connector-curvature="0"
   style="fill:#ffffff;fill-rule:evenodd;stroke:none"
   id="_166636424"
   class="fil3"
   d="m 74.892509,162.88571 0,-37.77074 12.23278,0 c 4.6344,0 7.6595,0.19347 9.06653,0.5716 2.16354,0.56305 3.983861,1.79421 5.443661,3.6937 1.45978,1.89946 2.18968,4.35296 2.18968,7.3519 0,2.32161 -0.42211,4.27384 -1.26633,5.84796 -0.84421,1.58291 -1.90827,2.82285 -3.209781,3.72861 -1.2927,0.89719 -2.61201,1.49519 -3.94869,1.78541 -1.82034,0.36057 -4.4585,0.5452 -7.91452,0.5452 l -4.96877,0 0,14.24636 z m 7.62456,-31.37733 0,10.7112 4.1683,0 c 3.00774,0 5.02156,-0.19347 6.03284,-0.58919 1.01131,-0.39574 1.80274,-1.0113 2.38315,-1.85551 0.57161,-0.84422 0.86181,-1.82034 0.86181,-2.93717 0,-1.37208 -0.40453,-2.50649 -1.21356,-3.40348 -0.80025,-0.88816 -1.82913,-1.45098 -3.06029,-1.67082 -0.91456,-0.17589 -2.74368,-0.25503 -5.48761,-0.25503 z m 57.715781,31.37733 -8.3017,0 -3.29794,-8.58307 -15.09935,0 -3.11304,8.58307 -8.09062,0 14.71242,-37.77074 8.06425,0 z m -14.04434,-14.94108 -5.20599,-14.01793 -5.10069,14.01793 z m 18.1071,14.94108 0,-37.77074 16.05815,0 c 4.03638,0 6.965,0.34295 8.79413,1.02035 1.82912,0.67713 3.2977,1.88186 4.39693,3.61428 1.09925,1.74119 1.64446,3.71983 1.64446,5.95347 0,2.83187 -0.83542,5.17984 -2.49746,7.02655 -1.66205,1.83793 -4.1595,3.00751 -7.47502,3.48238 1.65346,0.96757 3.0165,2.02284 4.08936,3.17485 1.07287,1.152 2.51507,3.19218 4.3354,6.12935 l 4.61704,7.36951 -9.11952,0 -5.51399,-8.22251 c -1.96105,-2.93717 -3.29772,-4.78389 -4.01882,-5.54895 -0.7211,-0.76508 -1.48618,-1.28394 -2.29522,-1.57413 -0.80902,-0.28141 -2.08438,-0.42211 -3.84316,-0.42211 l -1.53894,0 0,15.7677 z m 7.63334,-21.80054 5.63712,0 c 3.65827,0 5.94468,-0.1495 6.85924,-0.4573 0.90579,-0.30777 1.6181,-0.84418 2.13694,-1.60047 0.51027,-0.75627 0.77409,-1.69723 0.77409,-2.83187 0,-1.27512 -0.34296,-2.2952 -1.02033,-3.07786 -0.67713,-0.78267 -1.63567,-1.27512 -2.87559,-1.48619 -0.61558,-0.0792 -2.4711,-0.12314 -5.56656,-0.12314 l -5.94491,0 0,9.57681 z m 30.45398,21.80054 0,-37.77074 28.72158,0 0,6.39341 -21.09705,0 0,8.37201 18.96014,0 0,6.358 -18.96014,0 0,10.28032 21.09705,0 0,6.367 z"
   sodipodi:nodetypes="ccscsscccscccccsscsccsccccccccccccccccsccsccsccccscsccccsccsccscccccccccccccccc" /></svg>