<?xml version="1.0" encoding="UTF-8"?>
<!DOCTYPE svg PUBLIC "-//W3C//DTD SVG 1.1//EN" "http://www.w3.org/Graphics/SVG/1.1/DTD/svg11.dtd">
<!-- Creator: CorelDRAW -->
<svg xmlns="http://www.w3.org/2000/svg" xml:space="preserve" width="52.917mm" height="31.044mm" style="shape-rendering:geometricPrecision; text-rendering:geometricPrecision; image-rendering:optimizeQuality; fill-rule:evenodd; clip-rule:evenodd"
viewBox="0 0 52.917 31.044"
 xmlns:xlink="http://www.w3.org/1999/xlink">
 <defs>
  <style type="text/css">
   <![CDATA[
    .fil0 {fill:#0066CC}
    .fil2 {fill:#FBFDFF}
    .fil1 {fill:white}
    .fil3 {fill:white;fill-rule:nonzero}
   ]]>
  </style>
 </defs>
 <g id="Layer_x0020_1">
  <metadata id="CorelCorpID_0Corel-Layer"/>
  <path id="_106778472" class="fil0" d="M2.6524 0l47.6122 0c1.4646,0.0001 2.6524,1.1634 2.6524,2.5979l0 25.8482c0,1.4344 -1.1878,2.5977 -2.6524,2.5977l-47.6122 0.0002c-1.4645,-0.0002 -2.6523,-1.1635 -2.6523,-2.598l-0.0001 -25.8481c0.0001,-1.4345 1.1879,-2.5978 2.6525,-2.5978l-0.0001 -0.0001z"/>
  <path id="_106779024" class="fil1" d="M3.9224 1.411l45.0722 0c1.3865,0.0001 2.5109,1.0576 2.5109,2.3617l0 23.4986c0,1.304 -1.1244,2.3615 -2.5109,2.3615l-45.0722 0.0002c-1.3864,-0.0002 -2.5108,-1.0577 -2.5108,-2.3618l-0.0001 -23.4985c0.0001,-1.3041 1.1245,-2.3616 2.511,-2.3616l-0.0001 -0.0001zm-0.0415 14.111l0 0zm0 0l0 0zm0 0l0 -8.9949c0,-0.3157 0.2428,-0.5523 0.7284,-0.7102l21.3636 -3.2902c0,-0.0159 0.1619,-0.0237 0.4856,-0.0237 0.3237,0 0.4856,0.0078 0.4856,0.0237l21.3636 3.2902c0.4856,0.1579 0.7282,0.3946 0.7282,0.7102l0 17.9898c0,0.3157 -0.2426,0.5523 -0.7282,0.7102l-21.3636 3.2902c0,0.0159 -0.1619,0.0237 -0.4856,0.0237 -0.3237,0 -0.4856,-0.0078 -0.4856,-0.0237l-21.3636 -3.2902c-0.4856,-0.1579 -0.7284,-0.3946 -0.7284,-0.7102m0 -8.9949l0 0 0 0z"/>
  <path id="_106777272" class="fil2" d="M11.55 23.8689l3.5867 0c2.7204,0 4.4834,-2.0907 4.4834,-4.7822 0,-1.9794 -0.7716,-3.1867 -2.0923,-3.8855 0.6944,-1.0369 1.1955,-1.1368 1.1955,-2.9888l0 -0.2989c0,-2.2864 -1.0502,-2.9876 -2.3922,-3.8716l-4.7811 -0.3128 0 16.1398zm2.0924 -9.8632l0.8966 0c1.2785,0 1.7934,-0.5148 1.7934,-1.7933l0 -0.2989c0,-0.6996 -0.4961,-1.1955 -1.1957,-1.1955l-1.4943 0 0 3.2877zm0 7.1732l1.1954 0c1.2791,0 2.3912,-0.9213 2.3912,-2.0922 0,-2.0632 -1.4969,-2.391 -3.5866,-2.391l0 4.4832z"/>
  <path id="_106778328" class="fil3" d="M33.438 19.6542l2.217 0c0,0.7038 0.1741,1.2486 0.5185,1.6344 0.3403,0.3898 0.7603,0.5827 1.256,0.5827 0.4956,0 0.9156,-0.1929 1.2598,-0.5827 0.3405,-0.3858 0.5146,-0.8588 0.5146,-1.4111l0 -1.3318 0 -1.7062c-0.5903,0.416 -1.2826,0.6279 -2.0734,0.6431 -1.0329,0 -1.9067,-0.3594 -2.6218,-1.0746 -0.7112,-0.7187 -1.0707,-1.5889 -1.0707,-2.6142l0 -2.0846c0,-1.0935 0.3897,-2.0317 1.1729,-2.8111 0.7794,-0.7794 1.7176,-1.169 2.8186,-1.169 1.1009,0 2.043,0.3896 2.8223,1.169 0.7794,0.7794 1.1692,1.7176 1.1692,2.8111l0 3.8325 0 4.3244c0,1.1086 -0.386,2.0507 -1.1578,2.8338 -0.7718,0.7794 -1.7176,1.169 -2.8337,1.169 -1.1162,0 -2.0583,-0.3896 -2.83,-1.169 -0.7718,-0.7831 -1.1615,-1.797 -1.1615,-3.0456l0 -0.0001zm5.7659 -6.1632l0 -1.7707c0,-0.5561 -0.1741,-1.0252 -0.522,-1.4149 -0.3482,-0.386 -0.7644,-0.5826 -1.2524,-0.5826 -0.4881,0 -0.9043,0.1966 -1.2523,0.5826 -0.3481,0.3896 -0.5223,0.8588 -0.5223,1.4149l0 1.7707c0,0.5563 0.1742,1.0253 0.5185,1.4151 0.3404,0.3858 0.7604,0.5827 1.256,0.5827 0.4956,0 0.9156,-0.1969 1.2598,-0.5827 0.3406,-0.3898 0.5146,-0.8588 0.5146,-1.4151l0.0001 0z"/>
 </g>
</svg>
