<?xml version="1.0" encoding="UTF-8" standalone="no"?>
<!DOCTYPE svg PUBLIC "-//W3C//DTD SVG 1.1//EN" "http://www.w3.org/Graphics/SVG/1.1/DTD/svg11.dtd">
<svg width="100%" height="100%" viewBox="0 0 119 43" version="1.1" xmlns="http://www.w3.org/2000/svg" xmlns:xlink="http://www.w3.org/1999/xlink" xml:space="preserve" xmlns:serif="http://www.serif.com/" style="fill-rule:evenodd;clip-rule:evenodd;stroke-linejoin:round;stroke-miterlimit:1.41421;">
    <g transform="matrix(1,0,0,1,-49,-475)">
        <path d="M76.324,481.332C76.052,480.468 75.365,478.567 74.734,477.934C73.794,476.99 72.305,476.846 69.595,476.846C67.674,476.846 66.404,477.554 65.715,478.363C65.149,479.018 64.886,480.127 64.591,481.08L61.382,490.714L65.971,490.728L68.086,484.361L70.202,490.759L74.796,490.759L73.126,485.717C73.051,485.462 72.829,484.781 72.6,484.387C72.374,483.984 72.058,483.907 71.936,483.881C71.874,483.869 72.932,483.874 73.887,483.881C74.772,483.883 75.666,483.888 75.851,483.869C76.508,483.792 76.942,483.271 76.324,481.332ZM71.114,483.66C70.061,483.665 68.323,483.66 68.323,483.66L70.374,477.506C70.374,477.506 71.706,481.44 71.947,482.167C72.214,482.974 72.024,483.653 71.114,483.66Z" style="fill:rgb(210,50,82);fill-rule:nonzero;"/>
        <path d="M88.224,497.7C88.963,497.174 90.561,495.934 90.966,495.139C91.572,493.951 91.254,492.49 90.418,489.917C89.821,488.086 88.751,487.099 87.771,486.691C86.972,486.36 85.842,486.451 84.838,486.463L74.685,486.386L76.093,490.759L82.799,490.802C82.799,490.8 77.371,494.794 77.371,494.794L78.789,499.162L83.068,496.015C83.286,495.864 83.865,495.442 84.17,495.101C84.48,494.762 84.456,494.436 84.449,494.311C84.441,494.246 84.761,495.257 85.052,496.166C85.32,497.016 85.587,497.858 85.667,498.034C85.943,498.636 86.574,498.883 88.224,497.7ZM84.402,493.464C84.071,492.466 83.537,490.814 83.537,490.814L90.027,490.855C90.027,490.855 86.694,493.342 86.078,493.793C85.397,494.297 84.689,494.328 84.402,493.464Z" style="fill:rgb(210,50,82);fill-rule:nonzero;"/>
        <path d="M76.336,514.075C77.064,514.615 78.739,515.75 79.62,515.892C80.934,516.098 82.226,515.347 84.418,513.754C85.976,512.623 86.579,511.301 86.665,510.24C86.736,509.376 86.295,508.327 85.976,507.386L82.908,497.702L79.19,500.39L81.219,506.784L75.744,502.853L72.034,505.55L76.346,508.654C76.56,508.812 77.136,509.225 77.553,509.417C77.97,509.606 78.273,509.486 78.389,509.434C78.45,509.41 77.586,510.029 76.812,510.583C76.092,511.099 75.37,511.618 75.229,511.745C74.741,512.196 74.702,512.87 76.336,514.075ZM79.185,509.134C80.029,508.507 81.438,507.49 81.438,507.49L83.4,513.674C83.4,513.674 80.006,511.272 79.386,510.823C78.694,510.334 78.45,509.674 79.185,509.134Z" style="fill:rgb(210,50,82);fill-rule:nonzero;"/>
        <path d="M57.089,507.83C56.798,508.69 56.235,510.629 56.376,511.512C56.585,512.83 57.698,513.823 59.891,515.412C61.449,516.55 62.894,516.715 63.927,516.468C64.771,516.271 65.631,515.527 66.431,514.932L74.691,509.023L70.983,506.316L65.531,510.223L67.579,503.796L63.864,501.103L62.251,506.162C62.162,506.414 61.947,507.094 61.896,507.552C61.842,508.006 62.055,508.255 62.135,508.349C62.178,508.397 61.326,507.77 60.558,507.202C59.843,506.681 59.127,506.15 58.959,506.057C58.383,505.733 57.731,505.901 57.089,507.83ZM62.67,509.009C63.525,509.623 64.926,510.648 64.926,510.648L59.655,514.423C59.655,514.423 60.889,510.451 61.117,509.729C61.377,508.92 61.928,508.476 62.67,509.009Z" style="fill:rgb(210,50,82);fill-rule:nonzero;"/>
        <path d="M57.081,487.594C56.174,487.584 54.153,487.649 53.359,488.054C52.17,488.662 51.569,490.03 50.731,492.605C50.135,494.434 50.423,495.859 50.976,496.764C51.427,497.508 52.397,498.096 53.216,498.672L61.386,504.698L62.818,500.342L57.416,496.361C57.413,496.37 64.153,496.325 64.153,496.325L65.57,491.959L60.258,491.986C59.994,491.978 59.277,491.986 58.832,492.077C58.383,492.17 58.213,492.446 58.148,492.552C58.116,492.612 58.447,491.604 58.746,490.699C59.026,489.857 59.307,489.012 59.346,488.83C59.475,488.177 59.113,487.61 57.081,487.594ZM57.683,493.267C57.365,494.27 56.824,495.922 56.824,495.922L51.602,492.067C51.602,492.067 55.759,492.017 56.522,492.012C57.372,492.005 57.96,492.396 57.683,493.267Z" style="fill:rgb(210,50,82);fill-rule:nonzero;"/>
        <path d="M100.224,493.027L101.604,493.027C102.298,493.027 102.744,493.32 102.632,493.946C102.521,494.558 101.993,494.777 101.075,494.777L99.906,494.777L100.224,493.027ZM100.464,496.718C101.842,496.718 101.974,497.098 101.767,498.257C101.629,499.037 101.602,499.601 101.64,499.8L104.642,499.8L104.692,499.526C104.339,499.526 104.446,499.138 104.657,497.986C104.976,496.205 104.438,495.979 103.543,495.636C104.651,495.358 105.275,494.496 105.454,493.481C105.767,491.76 104.917,490.966 101.902,490.966L97.631,490.966L96.037,499.8L98.998,499.8L99.557,496.718" style="fill:rgb(0,85,131);fill-rule:nonzero;"/>
        <path d="M105.996,499.798L107.592,490.966L114.966,490.966L114.593,493.027L110.184,493.027L109.955,494.29L113.686,494.29L113.316,496.351L109.585,496.351L109.334,497.736L113.918,497.736L113.548,499.798" style="fill:rgb(0,85,131);fill-rule:nonzero;"/>
        <path d="M118.661,494.988L119.015,493.027L119.856,493.027C120.484,493.027 121.417,493.14 121.271,493.956C121.134,494.719 120.587,494.988 119.894,494.988L118.661,494.988ZM117.793,499.798L118.287,497.052L119.784,497.052C122.382,497.052 123.757,495.85 124.101,493.946C124.431,492.13 123.384,490.966 120.781,490.966L116.423,490.966L114.827,499.798" style="fill:rgb(0,85,131);fill-rule:nonzero;"/>
        <path d="M125.657,490.966L128.618,490.966L127.666,496.255C127.505,497.124 127.55,497.87 128.767,497.87C129.834,497.87 130.268,497.208 130.441,496.255L131.393,490.966L134.361,490.966L133.458,495.96C132.945,498.792 131.379,500.028 128.378,500.028C125.576,500.028 124.206,498.989 124.756,495.946" style="fill:rgb(0,85,131);fill-rule:nonzero;"/>
        <path d="M139.124,496.106C140.062,496.106 140.745,496.154 140.606,496.925C140.484,497.594 139.908,497.736 139.179,497.736L137.885,497.736L138.181,496.106L139.124,496.106ZM139.776,493.027C140.408,493.027 140.981,493.042 140.858,493.726C140.764,494.242 140.289,494.496 139.702,494.496L138.473,494.496L138.737,493.027L139.776,493.027ZM138.957,499.798C141.306,499.798 142.979,499.114 143.333,497.138C143.505,496.178 143.124,495.358 142.192,495.11C142.833,494.755 143.556,494.093 143.718,493.186C144.035,491.431 142.502,490.966 140.46,490.966L136.144,490.966L134.552,499.798" style="fill:rgb(0,85,131);fill-rule:nonzero;"/>
        <path d="M144.372,499.798L145.969,490.966L148.932,490.966L147.709,497.736L151.777,497.736L151.405,499.798" style="fill:rgb(0,85,131);fill-rule:nonzero;"/>
        <path d="M152.752,499.798L154.345,490.966L157.309,490.966L155.715,499.798L152.752,499.798Z" style="fill:rgb(0,85,131);fill-rule:nonzero;"/>
        <path d="M164.186,494.338C164.269,493.416 163.768,492.89 162.843,492.89C161.798,492.89 161.013,493.762 160.703,495.47C160.48,496.706 160.546,497.87 162.055,497.87C163.006,497.87 163.579,497.22 163.843,496.375L166.695,496.375C166.018,498.658 164.103,500.028 161.712,500.028C158.725,500.028 157.238,498.24 157.761,495.372C158.274,492.506 160.581,490.728 163.104,490.728C165.867,490.728 167.171,492.067 167.004,494.338" style="fill:rgb(0,85,131);fill-rule:nonzero;"/>
        <path d="M113.094,506.021C113.037,506.328 113.068,506.904 114.087,506.904C114.642,506.904 115.287,506.777 115.416,506.194C115.507,505.769 115.114,505.654 114.547,505.517L113.976,505.375C113.112,505.171 112.283,504.972 112.541,503.767C112.674,503.153 113.247,502.075 115.069,502.075C116.788,502.075 117.009,503.177 116.871,503.849L115.746,503.849C115.766,503.606 115.799,503.026 114.774,503.026C114.329,503.026 113.762,503.186 113.655,503.683C113.562,504.11 113.904,504.202 114.126,504.252L115.423,504.586C116.149,504.768 116.785,505.075 116.572,506.057C116.211,507.708 114.461,507.854 113.968,507.854C111.922,507.854 111.818,506.695 111.966,506.021" style="fill:rgb(0,85,131);fill-rule:nonzero;"/>
        <path d="M122.211,503.194L119.232,503.194L118.979,504.348L121.717,504.348L121.506,505.315L118.773,505.315L118.463,506.734L121.572,506.734L121.361,507.708L117.102,507.708L118.294,502.226L122.42,502.226" style="fill:rgb(0,85,131);fill-rule:nonzero;"/>
        <path d="M124.131,504.636L124.452,503.17L125.912,503.17C126.6,503.17 126.643,503.594 126.577,503.887C126.459,504.432 126.115,504.636 125.507,504.636L124.131,504.636ZM122.315,507.708L123.463,507.708L123.931,505.562L125.141,505.562C126.011,505.562 125.993,505.85 125.829,506.599C125.707,507.163 125.695,507.444 125.716,507.708L127.012,507.708L127.045,507.562C126.815,507.466 126.859,507.271 127.031,506.47C127.254,505.442 127.039,505.277 126.623,505.082C127.217,504.898 127.645,504.377 127.774,503.772C127.875,503.297 127.837,502.226 126.343,502.226L123.508,502.226" style="fill:rgb(0,85,131);fill-rule:nonzero;"/>
        <path d="M132.013,502.226L133.236,502.226L130.133,507.708L129.012,507.708L128.315,502.226L129.575,502.226L129.874,506.378L129.89,506.378" style="fill:rgb(0,85,131);fill-rule:nonzero;"/>
        <path d="M133.861,507.708L132.687,507.708L133.88,502.226L135.054,502.226L133.861,507.708Z" style="fill:rgb(0,85,131);fill-rule:nonzero;"/>
        <path d="M139.339,504.019C139.314,503.688 139.27,503.074 138.303,503.074C137.739,503.074 136.829,503.436 136.491,504.986C136.278,505.973 136.485,506.858 137.477,506.858C138.125,506.858 138.658,506.496 138.941,505.829L140.116,505.829C139.624,507.019 138.645,507.854 137.238,507.854C135.743,507.854 134.885,506.868 135.298,504.972C135.716,503.057 137.064,502.078 138.508,502.078C140.188,502.078 140.624,503.208 140.509,504.019" style="fill:rgb(0,85,131);fill-rule:nonzero;"/>
        <path d="M145.706,503.194L142.728,503.194L142.477,504.348L145.215,504.348L145.003,505.315L142.267,505.315L141.955,506.734L145.068,506.734L144.856,507.708L140.601,507.708L141.792,502.226L145.917,502.226" style="fill:rgb(0,85,131);fill-rule:nonzero;"/>
        <path d="M147.014,506.021C146.956,506.328 146.987,506.904 148.007,506.904C148.563,506.904 149.212,506.777 149.334,506.194C149.429,505.769 149.032,505.654 148.472,505.517L147.894,505.375C147.033,505.171 146.205,504.972 146.465,503.767C146.6,503.153 147.167,502.075 148.988,502.075C150.707,502.075 150.931,503.177 150.794,503.849L149.667,503.849C149.688,503.606 149.72,503.026 148.698,503.026C148.251,503.026 147.684,503.186 147.576,503.683C147.487,504.11 147.825,504.202 148.048,504.252L149.344,504.586C150.068,504.768 150.707,505.075 150.495,506.057C150.131,507.708 148.382,507.854 147.89,507.854C145.842,507.854 145.743,506.695 145.889,506.021" style="fill:rgb(0,85,131);fill-rule:nonzero;"/>
    </g>
</svg>
