<svg version="1.1" xmlns="http://www.w3.org/2000/svg" viewBox="0 0 273 535" role="img" aria-label="ダイヤマーク（横断歩道予告）">
<path fill="#FDFDFD" stroke="none"
	d="
M160.031586,69.983994
	C192.510925,134.972382 224.793915,199.642609 257.228577,264.236694
	C259.085693,267.935211 259.005981,270.741669 257.178467,274.385803
	C217.096268,354.311523 177.138260,434.299530 137.146698,514.270691
	C136.572769,515.418335 135.874268,516.503784 134.753830,518.453735
	C133.529083,516.352966 132.580811,514.916321 131.816254,513.387817
	C91.813744,433.416840 51.838348,353.432312 11.792562,273.483002
	C10.322888,270.548889 10.223661,268.206390 11.753323,265.153412
	C51.733124,185.359177 91.597343,105.507050 131.495438,25.671877
	C132.347733,23.966455 133.364075,22.343014 134.864914,19.689352
	C143.534042,37.011433 151.701126,53.330353 160.031586,69.983994
M122.048256,154.595428
	C104.765778,191.174637 87.516922,227.769821 70.142418,264.305267
	C68.612495,267.522400 68.965012,270.101379 70.427666,273.184875
	C91.045250,316.649750 111.553757,360.166382 132.105087,403.662689
	C132.772034,405.074249 133.612503,406.403778 134.743073,408.439606
	C135.836182,406.378632 136.564484,405.128387 137.180984,403.825226
	C157.970383,359.881744 178.718140,315.918457 199.597839,272.017944
	C201.019760,269.028320 200.366058,266.790863 199.102432,264.119324
	C181.236740,226.348618 163.455856,188.537781 145.627136,150.749542
	C142.199081,143.483704 138.653992,136.273087 134.640854,127.954948
	C130.155151,137.421082 126.249237,145.663712 122.048256,154.595428
z"/>
</svg>
