<?xml version="1.0" encoding="UTF-8" standalone="no"?>
<!-- Created with Inkscape (http://www.inkscape.org/) -->

<svg
   xmlns:dc="http://purl.org/dc/elements/1.1/"
   xmlns:cc="http://creativecommons.org/ns#"
   xmlns:rdf="http://www.w3.org/1999/02/22-rdf-syntax-ns#"
   xmlns:svg="http://www.w3.org/2000/svg"
   xmlns="http://www.w3.org/2000/svg"
   xmlns:sodipodi="http://sodipodi.sourceforge.net/DTD/sodipodi-0.dtd"
   xmlns:inkscape="http://www.inkscape.org/namespaces/inkscape"
   width="1010.4"
   height="1010.4002"
   id="svg2"
   sodipodi:version="0.32"
   inkscape:version="0.48.4 r9939"
   version="1.0"
   sodipodi:docname="Ajax.svg"
   inkscape:output_extension="org.inkscape.output.svg.inkscape">
  <defs
     id="defs4">
    <inkscape:perspective
       sodipodi:type="inkscape:persp3d"
       inkscape:vp_x="0 : 300.5 : 1"
       inkscape:vp_y="0 : 1000 : 0"
       inkscape:vp_z="601 : 300.5 : 1"
       inkscape:persp3d-origin="300.5 : 200.33333 : 1"
       id="perspective3380" />
    <inkscape:perspective
       id="perspective3990"
       inkscape:persp3d-origin="375 : 250 : 1"
       inkscape:vp_z="750 : 375 : 1"
       inkscape:vp_y="0 : 1000 : 0"
       inkscape:vp_x="0 : 375 : 1"
       sodipodi:type="inkscape:persp3d" />
  </defs>
  <sodipodi:namedview
     id="base"
     pagecolor="#ffffff"
     bordercolor="#666666"
     borderopacity="1.0"
     gridtolerance="10000"
     guidetolerance="10"
     objecttolerance="10"
     inkscape:pageopacity="0.0"
     inkscape:pageshadow="2"
     inkscape:zoom="0.44192573"
     inkscape:cx="556.25569"
     inkscape:cy="431.13697"
     inkscape:document-units="px"
     inkscape:current-layer="layer1"
     width="601px"
     height="601px"
     inkscape:window-width="1280"
     inkscape:window-height="1001"
     inkscape:window-x="-8"
     inkscape:window-y="-8"
     showgrid="false"
     fit-margin-top="0.2"
     fit-margin-left="0.2"
     fit-margin-right="0.2"
     fit-margin-bottom="0.2"
     inkscape:window-maximized="1"
     showguides="true"
     inkscape:guide-bbox="true" />
  <metadata
     id="metadata7">
    <rdf:RDF>
      <cc:Work
         rdf:about="">
        <dc:format>image/svg+xml</dc:format>
        <dc:type
           rdf:resource="http://purl.org/dc/dcmitype/StillImage" />
        <dc:title></dc:title>
      </cc:Work>
    </rdf:RDF>
  </metadata>
  <g
     inkscape:label="Layer 1"
     inkscape:groupmode="layer"
     id="layer1"
     transform="translate(1515.529,3241.075)">
    <rect
       style="color:#000000;fill:#000000;fill-opacity:1;fill-rule:nonzero;stroke:none;stroke-width:0.8735441;marker:none;visibility:visible;display:inline;overflow:visible"
       id="rect3653"
       width="0"
       height="27.202072"
       x="578.73834"
       y="298.1684"
       rx="249.48199"
       ry="27.202072" />
    <path
       inkscape:connector-curvature="0"
       id="path3940"
       d="m -1219.5067,-2230.8749 -295.8223,-295.8221 10e-5,-418.3556 295.822,-295.8224 418.35567,3e-4 295.82223,295.8221 -2e-4,418.3558 -295.82203,295.822 z"
       style="fill:#000000;fill-opacity:1;stroke:none" />
    <path
       inkscape:connector-curvature="0"
       id="path3942"
       d="m -1217.4357,-2235.875 -292.8933,-292.8932 10e-5,-414.2135 292.8931,-292.8935 414.21349,3e-4 292.8933,292.8932 -2e-4,414.2136 -292.8931,292.8932 z"
       style="fill:#ffffff;fill-opacity:1;stroke:none" />
    <path
       style="fill:#ef2c30;fill-opacity:1;stroke:none"
       d="m -1203.7253,-2268.975 -273.5037,-273.5036 10e-5,-386.7926 273.5036,-273.5039 386.79252,4e-4 273.50378,273.5035 -2e-4,386.7927 -273.50358,273.5036 z"
       id="path3944"
       inkscape:connector-curvature="0" />
    <path
       inkscape:connector-curvature="0"
       d="m -762.55838,-2869.2242 154.8979,0 0,41.1349 -113.0913,0 0,65.8184 78.8188,0 0,41.8198 -78.8188,0 0,76.1054 120.6386,0 0,41.8198 -162.4452,0 0,-266.6983"
       style="fill:#ffffff;fill-opacity:1;fill-rule:evenodd;stroke:none"
       id="path3059" />
    <path
       inkscape:connector-curvature="0"
       d="m -1300.5914,-2869.2242 -119.9536,0 104.8722,0 14.3833,1.3698 13.7117,4.1096 13.0267,6.8624 11.6568,9.6021 8.904,10.9587 6.8492,13.0267 4.1227,14.3966 1.3699,14.4097 -1.3699,14.3965 -4.1227,14.3966 -6.8492,12.3417 -9.6021,11.6569 -10.9587,8.904 -13.0267,6.8624 -13.7117,4.7944 -14.3833,1.3699 -63.0656,0 0,117.2403 -41.8066,0 0,-266.6983 119.9536,0 z m -15.0814,107.6382 8.219,-1.3698 8.2323,-3.4247 6.8492,-4.8076 4.7945,-6.8492 3.4246,-8.2322 1.3698,-8.2191 -1.3698,-8.2323 -3.4246,-8.2322 -4.7945,-6.8492 -6.8492,-5.4926 -8.2323,-3.4246 -8.219,-1.3698 -63.0656,0 0,66.5033 63.0656,0"
       style="fill:#ffffff;fill-opacity:1;fill-rule:evenodd;stroke:none"
       id="path3061" />
    <path
       inkscape:connector-curvature="0"
       d="m -984.63138,-2869.2242 100.7627,0 13.6985,1.3698 13.7116,4.1096 13.0267,6.1775 10.9587,8.9171 9.6021,10.9588 6.8492,12.3418 4.1096,13.7116 2.0679,14.3965 -0.6849,14.3966 -4.1227,14.4097 -6.1643,12.3418 -8.2191,11.6568 -10.9719,10.2739 -11.6569,7.5473 46.6143,124.0895 -44.5595,0 -43.8614,-117.2403 -49.3539,0 0,117.2403 -41.8067,0 0,-266.6983 z m 100.7627,107.6382 8.2191,-1.3698 8.219,-3.4247 6.1775,-4.8076 5.4794,-6.8492 3.4246,-8.2322 0.6849,-8.2191 -0.6849,-8.2323 -3.4246,-8.2322 -5.4794,-6.8492 -6.1775,-5.4926 -8.219,-3.4246 -8.2191,-1.3698 -58.956,0 0,66.5033 58.956,0"
       style="fill:#ffffff;fill-opacity:1;fill-rule:evenodd;stroke:none"
       id="path3063" />
    <path
       inkscape:connector-curvature="0"
       d="m -1102.5171,-2718.3964 -27.41,-78.147 -26.7383,78.147 54.1483,0 z m -45.9161,-150.8278 37.6971,0 92.5172,266.6983 -43.8614,0 -26.0402,-74.7356 -83.6264,0 -25.3553,74.7356 -44.5463,0 93.2153,-266.6983"
       style="fill:#ffffff;fill-opacity:1;fill-rule:evenodd;stroke:none"
       id="path3065" />
  </g>
</svg>
