<?xml version="1.0" encoding="UTF-8" standalone="no"?>
<!-- Created with Inkscape (http://www.inkscape.org/) -->

<svg
   xmlns:dc="http://purl.org/dc/elements/1.1/"
   xmlns:cc="http://creativecommons.org/ns#"
   xmlns:rdf="http://www.w3.org/1999/02/22-rdf-syntax-ns#"
   xmlns:svg="http://www.w3.org/2000/svg"
   xmlns="http://www.w3.org/2000/svg"
   xmlns:sodipodi="http://sodipodi.sourceforge.net/DTD/sodipodi-0.dtd"
   xmlns:inkscape="http://www.inkscape.org/namespaces/inkscape"
   version="1.1"
   width="101.0475"
   height="101.015"
   id="svg2"
   xml:space="preserve"
   inkscape:version="0.48.2 r9819"
   sodipodi:docname="AJAX1.svg"><sodipodi:namedview
     pagecolor="#ffffff"
     bordercolor="#666666"
     borderopacity="1"
     objecttolerance="10"
     gridtolerance="10"
     guidetolerance="10"
     inkscape:pageopacity="0"
     inkscape:pageshadow="2"
     inkscape:window-width="1280"
     inkscape:window-height="1004"
     id="namedview19"
     showgrid="false"
     inkscape:zoom="5.7374441"
     inkscape:cx="57.652581"
     inkscape:cy="54.895553"
     inkscape:window-x="-8"
     inkscape:window-y="-8"
     inkscape:window-maximized="1"
     inkscape:current-layer="svg2"
     fit-margin-top="0"
     fit-margin-left="0"
     fit-margin-right="0"
     fit-margin-bottom="0" /><defs
     id="defs20" /><metadata
     id="metadata8"><rdf:RDF><cc:Work
         rdf:about=""><dc:format>image/svg+xml</dc:format><dc:type
           rdf:resource="http://purl.org/dc/dcmitype/StillImage" /><dc:title></dc:title></cc:Work></rdf:RDF></metadata><path
     inkscape:connector-curvature="0"
     d="m 99.68125,54.02125 0.73625,-1.04875 0.525,-1.15375 0.105,-1.2575 -0.105,-1.26 -0.525,-1.25875 L 99.68125,46.99375 53.99,1.46875 53.045,0.73375 51.78375,0.21 50.52375,0 49.2625,0.21 l -1.26,0.52375 -0.945,0.735 L 1.4699999,46.99375 0.63,48.0425 0.105,49.30125 0,50.56125 0.105,51.81875 0.63,52.9725 1.4699999,54.02125 47.0575,99.5475 l 0.945,0.83875 1.26,0.525 1.26125,0.10375 1.26,-0.10375 1.26125,-0.525 0.945,-0.83875 45.69125,-45.52625"
     style="fill:#fde012;fill-opacity:1;fill-rule:nonzero;stroke:none"
     id="path3023" /><path
     inkscape:connector-curvature="0"
     d="M 49.68375,96.925 4.0962499,51.4 l -0.315,-0.525 0,-0.62875 0.315,-0.63 45.5875001,-45.525 0.525,-0.315 0.63,0 0.525,0.315 45.6925,45.525 0.315,0.63 0,0.62875 -0.315,0.525 -45.6925,45.525 -0.525,0.315 -0.63,0 -0.525,-0.315 z m -1.78625,1.7825 0.945,0.735 1.15625,0.31375 1.155,0 1.05,-0.31375 0.94625,-0.735 45.58625,-45.525 0.735,-0.94375 0.315,-1.15375 0,-1.15375 -0.315,-1.04875 -0.735,-0.945 L 53.15,2.3075 52.20375,1.67875 l -1.05,-0.315 -1.155,0 -1.15625,0.315 -0.945,0.62875 -45.5862501,45.63 -0.73625,0.945 -0.315,1.04875 0,1.15375 0.315,1.15375 0.73625,0.94375 45.5862501,45.525"
     style="fill:#000000;fill-opacity:1;fill-rule:evenodd;stroke:none"
     id="path3025" /><path
     inkscape:connector-curvature="0"
     d="m 31.66625,34.33 -3.25625,0 0,-4.61625 1.26125,-0.105 1.155,-0.52375 1.05,-0.73375 0.84125,-0.945 4.72625,0 0,37.13375 -5.7775,0 0,-30.21"
     style="fill:#000000;fill-opacity:1;fill-rule:evenodd;stroke:none"
     id="path3027" /><path
     inkscape:connector-curvature="0"
     d="m 47.1075,78.80625 0.525,1.04875 1.05,0.83875 1.26125,0.21 1.26,-0.21 1.05125,-0.83875 0.63,-1.04875 0.315,-1.78375 0,-1.78375 -0.315,-1.67875 -0.63,-1.15375 -1.05125,-0.83875 -1.26,-0.21 -1.26125,0.31625 -1.05,0.7325 -0.525,1.15375 -0.42,1.67875 0,1.78375 0.42,1.78375 z m 1.365,-0.42 0.52625,0.83875 0.945,0.315 0.945,-0.315 0.525,-0.83875 0.315,-1.46875 0,-1.57375 -0.315,-1.4675 -0.525,-0.735 -0.945,-0.315 -0.945,0.315 -0.52625,0.735 -0.315,2.3075 0.315,2.2025 z M 55.3,71.4625 l 1.36625,0 3.36125,6.19 0,-6.19 1.47,0 0,9.33625 -1.365,0 -3.36125,-6.18875 0,6.18875 -1.47125,0 0,-9.33625 z m -13.865,1.46875 -2.1,0 0,-1.46875 5.67125,0 0,1.46875 -2.1,0 0,7.8675 -1.47125,0 0,-7.8675"
     style="fill:#000000;fill-opacity:1;fill-rule:evenodd;stroke:none"
     id="path3029" /><path
     inkscape:connector-curvature="0"
     d="m 47.8425,56.4625 0.84,2.09875 1.15625,1.7825 1.47,1.67875 1.78625,1.36375 1.995,0.94375 2.10125,0.63 2.20625,0.20875 2.205,-0.20875 2.20625,-0.63 1.89125,-0.94375 1.785,-1.36375 1.575,-1.57375 1.15625,-1.8875 0.84,-2.09875 0.945,-4.195 0.42125,-4.19625 0,-4.19625 -0.42125,-4.30125 -0.945,-4.09 -0.84,-2.0975 L 69.06,31.4975 67.485,29.92375 65.7,28.56 l -1.89125,-0.94375 -2.20625,-0.63 -2.205,-0.21 -2.20625,0.21 -2.10125,0.63 -1.995,0.94375 -1.78625,1.36375 -1.47,1.57375 -1.15625,1.88875 -0.84,2.0975 -0.945,4.09 -0.525,4.30125 0,4.19625 0.525,4.19625 0.945,4.195 z m 5.5675,-1.57375 0.63,1.46875 1.05,1.25875 1.26125,0.945 1.47,0.62875 1.57625,0.21 1.575,-0.21 1.47125,-0.62875 1.365,-0.945 0.945,-1.25875 0.63,-1.46875 0.84125,-3.56625 0.42,-3.56625 0,-3.56625 -0.42,-3.67125 -0.84125,-3.46125 -0.63,-1.46875 -0.945,-1.25875 -1.365,-0.94375 -1.47125,-0.63 -1.575,-0.21 -1.57625,0.21 -1.47,0.63 L 55.09,34.33 l -1.05,1.25875 -0.63,1.46875 -0.84,3.46125 -0.315,3.67125 0,3.56625 0.315,3.56625 0.84,3.56625"
     style="fill:#000000;fill-opacity:1;fill-rule:evenodd;stroke:none"
     id="path3031" /></svg>