<?xml version="1.0" encoding="UTF-8" standalone="no"?>
<svg
   xmlns:dc="http://purl.org/dc/elements/1.1/"
   xmlns:cc="http://creativecommons.org/ns#"
   xmlns:rdf="http://www.w3.org/1999/02/22-rdf-syntax-ns#"
   xmlns:svg="http://www.w3.org/2000/svg"
   xmlns="http://www.w3.org/2000/svg"
   version="1.1"
   id="Layer_1"
   x="0px"
   y="0px"
   width="551.2px"
   height="501.2px"
   viewBox="0 0 551.2 501.2"
   style="enable-background:new 0 0 551.20000000000004547 501.19999999999998863"
   xml:space="preserve"><metadata
   id="metadata1138"><rdf:RDF><cc:Work
       rdf:about=""><dc:format>image/svg+xml</dc:format><dc:type
         rdf:resource="http://purl.org/dc/dcmitype/StillImage" /><dc:title></dc:title></cc:Work></rdf:RDF></metadata><defs
   id="defs1136" />
<style
   type="text/css"
   id="style1097">
	.st0{fill:#006854;}
	.st1{fill:#FFFFFF;}
	.st2{font-family:'Roadgeek2005SeriesD';}
	.st3{font-size:261.1204px;}
	.st4{font-size:90.27px;}
</style>
<g
   id="g4823">
	<g
   id="g4829"
   transform="matrix(0,0.12,-0.12,0,385.68,224.04)">
	</g>
	<g
   id="g4833"
   transform="matrix(0,0.12,-0.12,0,385.68,224.04)">
	</g>
	<g
   id="g4837"
   transform="matrix(0,0.12,-0.12,0,774,18.00003)">
	</g>
	<g
   id="g4841"
   transform="matrix(0,0.12,-0.12,0,774,18.00003)">
	</g>
	<g
   id="g4845"
   transform="matrix(0,0.12,-0.12,0,774,18.00003)">
	</g>
	<g
   id="g4849"
   transform="matrix(0,0.12,-0.12,0,774,18.00003)">
	</g>
	<g
   id="g4853"
   transform="matrix(0,0.12,-0.12,0,774,18.00003)">
	</g>
	<g
   id="g4857"
   transform="matrix(0,0.12,-0.12,0,774,18.00003)">
	</g>
	<g
   id="g4861"
   transform="matrix(0,0.12,-0.12,0,774,18.00003)">
	</g>
	<g
   id="g4865"
   transform="matrix(0,0.12,-0.12,0,774,18.00003)">
	</g>
	<g
   id="g4869"
   transform="matrix(0,0.12,-0.12,0,450.12,188.64)">
	</g>
	<g
   id="g4873"
   transform="matrix(0,0.12,-0.12,0,450.12,188.64)">
	</g>
	<g
   id="g4877"
   transform="matrix(0,0.12,-0.12,0,597.6,265.68)">
	</g>
	<g
   id="g4881"
   transform="matrix(0,0.12,-0.12,0,597.6,265.68)">
	</g>
	<g
   id="g4885"
   transform="matrix(0,0.12,-0.12,0,774,18.00003)">
		<path
   style="fill:#003f87"
   id="path4887"
   class="st0"
   d="M-144.6,5783.4l36.8-61.4l31.6-61.4l29.8-64.9l22.8-66.7l21.1-66.7l14-70.2l10.5-68.4l7-70.2    l1.8-70.2l-3.5-71.9l-7-70.2L8,4972.9l-15.8-68.4l-21.3-67.1c-154-443-154-924.6,0-1367.6l21.3-67.1L8,3334.3l12.3-68.4l7-70.2    l3.5-71.9l-1.8-70.2l-7-70.2L11.5,2915l-14-70.2l-21.1-66.7l-22.8-66.7l-29.8-64.9l-31.6-61.4l-36.8-61.4l751-661.9    c336.2,300.8,823.9,361.9,1224.1,153.4c110.5-57.1,228.3-99.2,350.1-124.6c729.5-151.7,1443.9,316.6,1595.7,1045.7l38.7,496.2    l8.8,107l15.8,107l22.8,105.3l29.8,103.5l36.8,101.8l42.1,100l50.9,96.5l-50.9,96.5l-42.1,98.2l-36.8,101.8l-29.8,103.5    l-22.8,105.3l-15.8,107l-8.8,108.8l-38.7,494.4c-25.5,121.6-67.6,239.3-125.2,349.7c-345.1,660.4-1160.1,916-1820.6,571.5    c-400.1-208.5-887.9-147.4-1224.1,154.3L-144.6,5783.4z" />
	</g>
	<g
   id="g4889"
   transform="matrix(0,0.12,-0.12,0,774,18.00003)">
	</g>
	<g
   id="g4893"
   transform="matrix(0,0.12,-0.12,0,774,18.00003)">
	</g>
	<g
   id="g4897"
   transform="matrix(0,0.12,-0.12,0,774,18.00003)">
	</g>
	<g
   id="g4901"
   transform="matrix(0,0.12,-0.12,0,321.36,188.64)">
	</g>
	<g
   id="g4905"
   transform="matrix(0,0.12,-0.12,0,321.36,188.64)">
	</g>
	<g
   id="g4909"
   transform="matrix(0,0.12,-0.12,0,173.88,265.68)">
	</g>
	<g
   id="g4913"
   transform="matrix(0,0.12,-0.12,0,173.88,265.68)">
	</g>
	<g
   id="g4917"
   transform="matrix(0,0.12,-0.12,0,774,18.00003)">
	</g>
	<g
   id="g4921"
   transform="matrix(0,0.12,-0.12,0,774,18.00003)">
	</g>
	<g
   id="g4925"
   transform="matrix(0,0.12,-0.12,0,774,18.00003)">
	</g>
	<g
   id="g4929"
   transform="matrix(0,0.12,-0.12,0,774,18.00003)">
	</g>
</g>

<path
   class="st1"
   d="M537.1,280.4c-2.9-13.2-7.5-26-13.7-38.1c-24.2-46.5-20.6-102.1,9.4-145.1l4.5-6.4l-67.8-76.8l-14.8,6.7  l-8.1,3.1l-8,2.5l-8.2,2l-8.6,1.6l-8.5,1.2l-8.6,0.6h-8.4l-8.7-0.6l-8.5-1l-8.5-1.6l-8.2-2l-8.3-2.6c-25.3-8.8-51.8-13.3-78.6-13.3  c-26.8,0-53.2,4.5-78.6,13.3l-8.3,2.6l-8.2,2l-8.5,1.6l-8.5,1l-8.7,0.6h-8.4l-8.6-0.6l-8.5-1.2l-8.6-1.6l-8.2-2l-8-2.5l-8.1-3.1  l-14.8-6.7L14,90.7l4.5,6.4c30.1,43,33.7,98.6,9.5,145.1c-38.7,74.3-9.9,166.2,64.3,205c12,6.3,24.8,10.9,38.1,13.8l0.7,0.2  l58.5,4.5l12.2,1l12.1,1.6l11.8,2.4l11.6,3l11.5,3.8l11.5,4.5l15.2,6.7l15.4-6.7l11.4-4.5l11.4-3.8l11.8-3l11.6-2.4l12-1.6l12.3-1  l58.6-4.5l0.7-0.1C502.7,443.3,554.8,362.2,537.1,280.4z M26.7,91.4l57.6-65.3l8.3,3.8l8.6,3.4l8.6,2.7l8.8,2.1l9.1,1.7l9.1,1.3  l9.3,0.6h9.1l9.3-0.6l9.1-1.1l9.1-1.7l8.8-2.1l8.8-2.8c48.8-17,102-17,150.8,0l8.8,2.8l8.8,2.1l9.1,1.7l9.1,1.1l9.3,0.6h9.1l9.3-0.6  l9.1-1.3l9.1-1.7l8.8-2.1l8.6-2.7l8.6-3.4l8.3-3.8l57.7,65.3c-20.4,29.3-29.4,64.2-26.5,98.6H53.4C56.2,155.6,47.2,120.7,26.7,91.4z   M418.7,451.3l-57.9,4.5l-12.6,1.1l-12.6,1.7l-12.2,2.5l-12.4,3.2l-12,4l-11.8,4.6l-11.6,5.1l-11.4-5.1l-12-4.6l-12-4l-12.2-3.2  l-12.4-2.5l-12.6-1.7l-12.4-1.1l-57.9-4.5c-12.4-2.7-24.4-7.1-35.6-12.9c-69.5-36.3-96.3-122-60.1-191.5  c7.8-14.9,12.8-30.8,15.3-46.9h447c2.4,16.1,7.5,32,15.3,46.9c5.8,11.3,10.2,23.2,12.8,35.6C543.9,359.1,495.3,434.7,418.7,451.3z"
   id="path1129" />

<g
   style="font-weight:bold;font-size:83.33329999999999416px;font-family:RutaCL;-inkscape-font-specification:'RutaCL Bold';text-anchor:middle;fill:#ffffff;stroke-width:2.0833"
   id="text1146"
   aria-label="V REGIÓN"><path
     id="path1751"
     d="m 121.1,80 h 11.4 L 113,140 H 100.5 L 81.04,80 h 12.25 l 13.91,46.9 h 0.3 z" /><path
     id="path1753"
     d="m 169.5,80 h 24.3 q 4,0 7.1,1.25 3.1,1.25 5.3,3.58 2.2,2.25 3.2,5.5 1.2,3.17 1.2,7.09 0,4.38 -1.7,7.48 -1.5,3.2 -3.5,5.2 -2.2,2.4 -5,4 l 12,25.9 h -12 l -10.5,-24.3 h -9.7 V 140 h -10.7 z m 10.7,26.2 h 11.6 q 3.8,0 5.7,-2.3 1.9,-2.2 1.9,-6.4 0,-4 -1.9,-6 -1.9,-2 -5.3,-2 h -12 z" /><path
     id="path1755"
     d="m 224.1,80 h 35.4 v 9.5 h -24.8 v 15 h 20.7 l -0.8,9.5 h -19.9 v 16.5 h 24.8 v 9.5 h -35.4 z" /><path
     id="path1757"
     d="m 292.6,109.7 h 21.5 v 26.8 q -2.3,1.3 -5.2,2.3 -2.5,0.9 -6,1.5 -3.4,0.7 -7.5,0.7 -4.9,0 -9.5,-1.7 -4.5,-1.6 -8,-5.3 -3.4,-3.7 -5.5,-9.5 -2,-5.8 -2,-14.2 0,-8.7 2.1,-14.63 2.2,-6 5.8,-9.67 3.6,-3.75 8,-5.33 4.5,-1.67 9.1,-1.67 4,0 7.1,1.17 3.3,1.08 5.6,2.58 2.8,1.75 4.8,3.92 l -5.6,6.75 q -1.4,-1.42 -3.1,-2.59 -1.5,-0.91 -3.8,-1.75 -2.1,-0.83 -4.9,-0.83 -3.1,0 -5.7,1.25 -2.6,1.17 -4.4,3.83 -1.9,2.67 -3,6.87 -1,4.1 -1,10.1 0,6.3 1.1,10.5 1.1,4.1 2.9,6.6 2,2.5 4.5,3.5 2.7,1 5.9,1 1.5,0 2.9,-0.1 1.4,-0.2 2.6,-0.5 1.3,-0.2 2.5,-0.5 v -12.3 h -10.4 z" /><path
     id="path1759"
     d="M 333.5,132.2 V 87.83 h -7.7 V 80 h 25.8 v 7.83 h -7.5 v 44.37 h 7.5 v 7.8 h -25.8 v -7.8 z" /><path
     id="path1761"
     d="m 385.4,141 q -4.9,0 -9.2,-1.7 -4.3,-1.6 -7.5,-5.3 -3.1,-3.7 -5,-9.5 -1.7,-5.9 -1.7,-14.3 0,-8.7 1.9,-14.62 1.9,-6 5.2,-9.66 3.2,-3.67 7.4,-5.25 4.2,-1.67 8.9,-1.67 4.6,0 8.8,1.67 4.3,1.58 7.5,5.25 3.3,3.66 5.2,9.66 1.9,5.92 1.9,14.62 0,8.4 -1.8,14.3 -1.8,5.8 -4.9,9.5 -3.2,3.7 -7.5,5.3 -4.3,1.7 -9.2,1.7 z m 0,-8.9 q 2.6,0 4.8,-1.1 2.3,-1.1 4,-3.6 1.6,-2.6 2.5,-6.7 1,-4.3 1,-10.5 0,-6.5 -1,-10.78 -1,-4.25 -2.8,-6.75 -1.7,-2.59 -3.9,-3.59 -2.2,-1.08 -4.6,-1.08 -2.4,0 -4.7,1.08 -2.2,1 -3.9,3.59 -1.6,2.5 -2.6,6.75 -1,4.28 -1,10.78 0,6.2 0.9,10.5 0.9,4.1 2.6,6.7 1.6,2.5 3.8,3.6 2.2,1.1 4.9,1.1 z m -8.2,-56.85 -0.9,-7.25 21.2,-4 0.8,9.08 z" /><path
     id="path1763"
     d="M 431.9,102.1 V 140 H 421.3 V 80 h 11.4 l 21,40.2 V 80 h 10.6 v 60 h -11.4 z" /></g><g
   style="font-weight:bold;font-size:243.05600000000001160px;font-family:RutaCL;-inkscape-font-specification:'RutaCL Bold';text-anchor:middle;fill:#ffffff;stroke-width:6.0764"
   id="text1162"
   aria-label="68"><path
     id="path1766"
     d="m 202.4,264.1 q -10.7,0 -17.7,5.1 -7.1,4.8 -11.5,12.6 -4.3,7.5 -6.5,16.5 -2,9 -2.5,17 4.2,-3.1 10,-5.8 4.9,-2.2 10.9,-3.9 6.4,-1.9 13.9,-1.9 10.7,0 19.7,3.1 9.2,3 16,9.3 6.8,6.3 10.5,16.3 3.9,9.7 3.9,23.3 0,14.3 -4.9,25.8 -4.6,11.4 -12.6,19.6 -8.1,8.1 -18.5,12.4 -10.5,4.4 -21.6,4.4 -11.7,0 -22.6,-4.4 -10.7,-4.6 -19,-14.5 -8,-10.3 -12.9,-26 -4.8,-16.1 -4.8,-38.9 0,-22.9 5.3,-40.9 5.4,-18 15.1,-30.4 9.7,-12.6 23.1,-19.2 13.6,-6.5 30.1,-6.5 7.8,0 14.6,1.7 7,1.4 12.1,3.4 3.2,1.2 5.9,2.4 2.6,1.2 5.3,2.4 l -9.9,26.1 q -3.9,-2.7 -8.3,-4.4 -4.1,-1.7 -10,-3.2 -5.8,-1.4 -13.1,-1.4 z m -10.7,65.1 q -5.8,0 -10.9,1.5 -5.1,1.2 -9,2.9 -4.2,1.7 -8.3,4.4 0,28.6 7.8,41.8 7.8,12.8 20.2,12.8 11.9,0 19.2,-9 7.3,-8.9 7.3,-23.8 0,-16 -7.8,-23.3 -7.6,-7.3 -18.5,-7.3 z" /><path
     id="path1768"
     d="m 355.9,237.1 q 9.5,0 19.2,2.4 9.8,2.4 17.5,8 8.1,5.6 12.9,14.9 4.9,9.2 4.9,22.8 0,11.9 -7.1,21.6 -6.8,9.8 -18.4,14.6 13.3,5.4 21.6,14.8 8.3,9.5 8.3,25.8 0,13.4 -4.9,23.8 -4.6,10.5 -12.6,17.5 -8.1,7.1 -18.8,11 -10.7,3.6 -22.6,3.6 -11.9,0 -22.6,-3.6 -10.7,-3.7 -18.7,-10.7 -8,-7.1 -12.9,-17.5 -4.6,-10.5 -4.6,-24.1 0,-8 2.2,-14.3 2.4,-6.3 6.6,-11.2 4.1,-5.1 9.4,-8.8 5.4,-3.6 11.7,-6.3 -11.7,-4.8 -18.7,-14.6 -6.8,-9.7 -6.8,-21.6 0,-13.6 4.9,-22.8 4.8,-9.3 12.6,-14.9 8,-5.6 17.7,-8 9.8,-2.4 19.2,-2.4 z m 0,155.1 q 12.4,0 20,-8.3 7.7,-8.5 7.7,-21.6 0,-14.9 -7.7,-21.9 -7.8,-7.3 -20,-7.3 -11.9,0 -19.9,7.5 -7.8,7.3 -7.8,21.7 0,13.1 7.6,21.6 7.7,8.3 20.1,8.3 z m 0,-82.7 q 11.5,0 17.5,-7 6.1,-7.1 6.1,-17.5 0,-5.9 -1.9,-10.2 -2,-4.4 -5.4,-7.1 -3.1,-2.9 -7.5,-4.4 -4.1,-1.4 -8.8,-1.4 -4.6,0 -9,1.4 -4.1,1.5 -7.5,4.4 -3.1,2.7 -5.1,7.1 -1.9,4.3 -1.9,10.2 0,10.4 6,17.5 6.1,7 17.5,7 z" /></g></svg>
