<svg xmlns="http://www.w3.org/2000/svg" width="181.185" height="56.042" viewBox="0 0 181.185 56.042"><g transform="translate(-320.401 -22.345)"><path d="M360.991,41.588c-.6.271-1.416-.066-1.287-.779.472-2.59,3.346-9.7,6.765-12.5a3.947,3.947,0,0,1,4.87-.51c1.029.783,1.515,1.846.961,3.931-.924,3.5-7.943,8.318-11.309,9.853" fill="#008a32"/><path d="M360.551,42.278a1.523,1.523,0,0,1-1.166-.513,1.274,1.274,0,0,1-.268-1.063,28.072,28.072,0,0,1,2.329-6.328,20.657,20.657,0,0,1,4.625-6.511,4.544,4.544,0,0,1,5.588-.569l.042.029c1.374,1.045,1.737,2.451,1.176,4.559s-3,4.421-4.942,5.98a35.592,35.592,0,0,1-6.7,4.268A1.681,1.681,0,0,1,360.551,42.278Zm8.677-14.5a3.334,3.334,0,0,0-2.342.953q-.019.018-.039.035a19.051,19.051,0,0,0-4.33,6.13,27.25,27.25,0,0,0-2.226,6.015c-.011.06,0,.076.009.084a.352.352,0,0,0,.25.084.476.476,0,0,0,.195-.04,34.581,34.581,0,0,0,6.443-4.113c2.553-2.045,4.163-3.946,4.534-5.353.5-1.874.073-2.674-.725-3.288A3.342,3.342,0,0,0,369.228,27.783Z" fill="#1a1311"/><path d="M351.739,38.179c-.927.234-1.474.024-1.4-.951.114-1.519,3.556-10.192,7.114-12.572a3.915,3.915,0,0,1,4.5-.249c1.249.9,1.408,2.115.973,3.844-.948,3.774-9.89,9.6-11.186,9.928" fill="#008a32"/><path d="M351.136,38.863a1.355,1.355,0,0,1-1.041-.406,1.623,1.623,0,0,1-.351-1.274A25.005,25.005,0,0,1,352.07,31c1.171-2.357,2.993-5.451,5.032-6.826a4.512,4.512,0,0,1,5.167-.272l.033.022c1.747,1.259,1.561,3.052,1.2,4.474-.554,2.2-3.391,4.793-5.674,6.58a27.486,27.486,0,0,1-5.944,3.781A3.072,3.072,0,0,1,351.136,38.863Zm-.165-1.218a.382.382,0,0,0,.165.024,1.944,1.944,0,0,0,.457-.069,28.78,28.78,0,0,0,5.5-3.564c3.019-2.363,4.885-4.469,5.252-5.931.408-1.623.2-2.523-.727-3.2a3.318,3.318,0,0,0-3.8.221l-.038.028c-1.426.954-3.076,3.219-4.646,6.378a25.415,25.415,0,0,0-2.2,5.742.686.686,0,0,0,.036.373Z" fill="#1a1311"/><path d="M356.606,41.663a3.835,3.835,0,0,1,3.9,3.769c0,.042,0,.083,0,.125a3.919,3.919,0,1,1-3.944-3.894h.044" fill="#dc000c"/><path d="M356.672,41.065a4.431,4.431,0,0,1,4.43,4.356c0,.045,0,.092,0,.14a4.521,4.521,0,0,1-4.487,4.536h-.03a4.516,4.516,0,0,1-.028-9.032h.114Zm-.086,7.839h.022a3.326,3.326,0,0,0,3.3-3.343c0-.006,0-.012,0-.018,0-.033,0-.065,0-.1a3.254,3.254,0,0,0-3.293-3.186h-.054a3.322,3.322,0,0,0,.024,6.644Z" fill="#1a1311"/><path d="M347.492,38.089A3.86,3.86,0,1,1,343.5,42.1v-.034a3.889,3.889,0,0,1,3.8-3.973c.064,0,.128,0,.192,0" fill="#dc000c"/><path d="M347.38,37.49l.128,0a4.456,4.456,0,0,1-.052,8.911l-.132,0a4.426,4.426,0,0,1-4.422-4.292v-.034a4.493,4.493,0,0,1,4.385-4.588Zm-.055,7.72.1,0h.013a3.262,3.262,0,0,0,.041-6.523l-.1,0h-.07a3.3,3.3,0,0,0-3.214,3.363v.029A3.216,3.216,0,0,0,347.324,45.211Z" fill="#1a1311"/><path d="M482.216,54.206a.743.743,0,0,1,1.14-.66,25.456,25.456,0,0,0,8.47,2.1A30.465,30.465,0,0,0,499.9,54.9c.823-.172,1.156.208,1.074.619a24.655,24.655,0,0,0-.966,4.758,14.949,14.949,0,0,0,.3,3.891c.123.513-.294.859-.862.751-1.011-.2-3.324-2.131-8.275-2.587a13.557,13.557,0,0,0-8.053,1.431c-.668.255-1.163-.006-1.126-.642s.39-3.484.412-4.534a32.926,32.926,0,0,0-.187-4.384" fill="#dc000c"/><path d="M482.956,52.833a1.344,1.344,0,0,1,.676.182,24.787,24.787,0,0,0,8.228,2.035c.409.017.823.025,1.232.025a29.92,29.92,0,0,0,6.678-.756l.011,0a2.451,2.451,0,0,1,.5-.055,1.334,1.334,0,0,1,1.062.445,1.115,1.115,0,0,1,.221.931.6.6,0,0,1-.015.059,24.11,24.11,0,0,0-.941,4.628,14.357,14.357,0,0,0,.287,3.714,1.192,1.192,0,0,1-.211,1.03,1.293,1.293,0,0,1-1.031.468,1.69,1.69,0,0,1-.315-.03A5.93,5.93,0,0,1,498,64.95a18.021,18.021,0,0,0-6.88-2.023l-.023,0a12.964,12.964,0,0,0-7.7,1.368.593.593,0,0,1-.064.029,1.929,1.929,0,0,1-.686.136,1.245,1.245,0,0,1-.921-.373,1.289,1.289,0,0,1-.328-1c.014-.248.07-.77.139-1.43.109-1.031.258-2.444.272-3.082a32.415,32.415,0,0,0-.188-4.3c0-.013,0-.026,0-.039a1.34,1.34,0,0,1,1.28-1.4Zm10.136,3.436c-.428,0-.863-.009-1.291-.027h-.017a25.978,25.978,0,0,1-8.669-2.149.6.6,0,0,1-.078-.042.151.151,0,0,0-.081-.023h-.006a.146.146,0,0,0-.137.14A33.606,33.606,0,0,1,483,58.6c-.014.687-.161,2.07-.278,3.181-.065.619-.122,1.154-.135,1.374a.352.352,0,0,0,.006.1.54.54,0,0,0,.281-.042,14.158,14.158,0,0,1,8.362-1.477,19.106,19.106,0,0,1,7.291,2.142,5.919,5.919,0,0,0,1.034.453.483.483,0,0,0,.087.008.25.25,0,0,0,.082-.012.213.213,0,0,0,0-.023l0-.016a15.552,15.552,0,0,1-.312-4.046c0-.01,0-.019,0-.029a25.312,25.312,0,0,1,.953-4.755.608.608,0,0,0-.091-.006,1.254,1.254,0,0,0-.249.029A31.117,31.117,0,0,1,493.092,56.269Z" fill="#1a1311"/><path d="M459.591,44.931c-.186-.531.186-.984.807-.893a28.754,28.754,0,0,0,6.937.94,26,26,0,0,0,6.4-.358.591.591,0,0,1,.744.786,38.43,38.43,0,0,0-2,3.522c-.035.086,0,.312.321.23,1.39-.364,3.367-1.516,3.918-1.669.435-.119.948.141.814.685a10.991,10.991,0,0,0-.393,3.724,23.038,23.038,0,0,0,.686,3.588c.033.673-.365.97-.977.783a19.788,19.788,0,0,0-5.386-.845c-.084.008-.156.029-.157.147,0,.15.052,2.062.085,2.355.011.11.013.157.319.157A16.186,16.186,0,0,0,478.4,57.1c1.095-.429,1.4.186,1.411.547a36.175,36.175,0,0,0,.006,4.06,10.07,10.07,0,0,0,1.4,4.374c.341.528-.279,1.413-.868.984a14.083,14.083,0,0,0-7.994-2.509c-.276-.006-.21.14-.2.252a30.9,30.9,0,0,0,1.165,4.245,27.184,27.184,0,0,0,2.049,4.6c.307.57-.149,1.345-1.1.9s-1.74-1.176-6.228-1.615a34.051,34.051,0,0,0-5.908.365c-.63.114-1.2-.368-.922-.977a28.948,28.948,0,0,0,1.87-6.565c.014-.1.124-.3-.249-.2a26.082,26.082,0,0,0-4.573,2.821.681.681,0,0,1-1.144-.525,24.14,24.14,0,0,0-.226-5.068c-.249-1.6-1.023-3.574-1.174-4.3a.643.643,0,0,1,.4-.816.653.653,0,0,1,.248-.033,43.312,43.312,0,0,0,6.822.275c.1-.025.108-.029.121-.176a11.057,11.057,0,0,0-.075-2.3c-.047-.186-.123-.2-.3-.176a34.038,34.038,0,0,0-4.3,1.074c-.576.25-1.018-.056-1.05-.424-.043-.474-.433-2.5-.619-3.346-.522-2.364-1.043-3.285-1.2-4.347-.1-.618.264-.781.771-.772a44.981,44.981,0,0,0,5.019,1.924c.384.123.441.038.353-.2a22.9,22.9,0,0,0-2.325-4.245" fill="#dc000c"/><path d="M460.242,43.429a1.679,1.679,0,0,1,.243.018.594.594,0,0,1,.065.013,28.181,28.181,0,0,0,6.793.92h.033c.57.039,1.148.058,1.719.058a25.456,25.456,0,0,0,4.494-.4,1.188,1.188,0,0,1,1.44,1.6.6.6,0,0,1-.047.089c-.534.835-1.039,1.7-1.507,2.574.634-.25,1.313-.581,1.855-.845a9.069,9.069,0,0,1,1.228-.543,1.406,1.406,0,0,1,.372-.05,1.237,1.237,0,0,1,.988.455,1.141,1.141,0,0,1,.194,1l-.005.02a10.37,10.37,0,0,0-.373,3.509,22.508,22.508,0,0,0,.667,3.482.6.6,0,0,1,.021.129,1.43,1.43,0,0,1-.353,1.1l-.047.046.169-.062a2.439,2.439,0,0,1,.875-.186,1.294,1.294,0,0,1,1.345,1.272q0,.025,0,.051a35.708,35.708,0,0,0,.006,3.986,9.522,9.522,0,0,0,1.312,4.1,1.313,1.313,0,0,1,.011,1.329,1.238,1.238,0,0,1-1.064.68,1.143,1.143,0,0,1-.668-.223,13.421,13.421,0,0,0-7.166-2.39,30.417,30.417,0,0,0,1.045,3.692l0,.007a26.654,26.654,0,0,0,2,4.5l.005.009a1.34,1.34,0,0,1-.013,1.316,1.23,1.23,0,0,1-1.086.6,1.842,1.842,0,0,1-.779-.188c-.148-.069-.286-.141-.432-.218-.787-.412-1.865-.976-5.579-1.341-.274-.007-.552-.01-.825-.01a33.558,33.558,0,0,0-4.95.368,1.643,1.643,0,0,1-.282.025,1.421,1.421,0,0,1-1.214-.625,1.246,1.246,0,0,1-.07-1.2,28.394,28.394,0,0,0,1.687-5.617,25.55,25.55,0,0,0-3.709,2.37,1.278,1.278,0,0,1-2.123-1.007v-.013a23.59,23.59,0,0,0-.22-4.943,21.675,21.675,0,0,0-.8-3.027c-.163-.512-.293-.92-.356-1.208a1.24,1.24,0,0,1,1.262-1.6l.036,0a42.88,42.88,0,0,0,5.079.3c.4,0,.811-.006,1.217-.017a10.5,10.5,0,0,0-.044-1.417,33.6,33.6,0,0,0-3.848.981,1.605,1.605,0,0,1-.615.128,1.2,1.2,0,0,1-1.237-1.06c-.039-.427-.418-2.407-.607-3.27a26.206,26.206,0,0,0-.765-2.739,9.867,9.867,0,0,1-.442-1.645,1.24,1.24,0,0,1,.237-1.044,1.383,1.383,0,0,1,1.135-.416.6.6,0,0,1,.236.053,44.534,44.534,0,0,0,4.2,1.654,22.231,22.231,0,0,0-1.886-3.289.6.6,0,0,1-.073-.143,1.276,1.276,0,0,1,.14-1.175A1.289,1.289,0,0,1,460.242,43.429Zm.043,1.2-.043,0a.174.174,0,0,0-.1.022.1.1,0,0,0,0,.031,23.436,23.436,0,0,1,2.32,4.269l.009.022a.8.8,0,0,1-.05.765.71.71,0,0,1-.6.3,1.462,1.462,0,0,1-.449-.085,45.753,45.753,0,0,1-4.96-1.893c-.027,0-.049,0-.066.008,0,.018,0,.041.008.07v.008a8.891,8.891,0,0,0,.4,1.451,27.252,27.252,0,0,1,.8,2.854c.18.82.567,2.817.627,3.385a.159.159,0,0,0,.051.007.433.433,0,0,0,.17-.042.594.594,0,0,1,.056-.021,34.762,34.762,0,0,1,4.375-1.093l.026,0a1.351,1.351,0,0,1,.186-.014.767.767,0,0,1,.773.636.6.6,0,0,1,.013.065,11.674,11.674,0,0,1,.079,2.424v.01a.709.709,0,0,1-.571.7.6.6,0,0,1-.122.017c-.562.022-1.132.033-1.695.033a44.078,44.078,0,0,1-5.193-.308l-.014,0a.046.046,0,0,0-.027.059.6.6,0,0,1,.019.07c.048.229.179.642.332,1.121a22.92,22.92,0,0,1,.848,3.209,24.8,24.8,0,0,1,.233,5.186.082.082,0,0,0,.022.056.083.083,0,0,0,.062.027.08.08,0,0,0,.056-.022q.021-.019.043-.036a26.728,26.728,0,0,1,4.678-2.886.6.6,0,0,1,.1-.039,1.236,1.236,0,0,1,.319-.048.694.694,0,0,1,.564.261.741.741,0,0,1,.111.656l0,.008a29.577,29.577,0,0,1-1.908,6.694l-.008.018c-.01.021-.024.06-.016.072a.263.263,0,0,0,.209.077.447.447,0,0,0,.079-.007l.018,0a34.757,34.757,0,0,1,5.134-.382c.291,0,.586,0,.877.011l.043,0c3.964.388,5.163,1.016,6.038,1.474.134.07.261.137.384.194a.667.667,0,0,0,.273.076c.012,0,.053,0,.061-.015a.15.15,0,0,0-.011-.134,27.849,27.849,0,0,1-2.089-4.692,31.61,31.61,0,0,1-1.186-4.323.59.59,0,0,1-.009-.059l0-.015a.763.763,0,0,1,.154-.633.784.784,0,0,1,.626-.258h.023a14.614,14.614,0,0,1,8.305,2.6.218.218,0,0,0,.048-.155l-.01-.016a10.722,10.722,0,0,1-1.483-4.633v-.013a36.906,36.906,0,0,1-.008-4.094c-.01-.1-.081-.1-.15-.1a1.261,1.261,0,0,0-.445.105l-.01,0a16.725,16.725,0,0,1-5.851,1.053c-.356,0-.716-.012-1.071-.034a.779.779,0,0,1-.893-.692c-.037-.332-.088-2.279-.088-2.417,0,0,0,0,0-.005a.73.73,0,0,1,.7-.736.6.6,0,0,1,.067,0,20.386,20.386,0,0,1,5.548.871.476.476,0,0,0,.186.028.438.438,0,0,0,.023-.153,23.7,23.7,0,0,1-.684-3.61c0-.009,0-.017,0-.026a11.558,11.558,0,0,1,.4-3.879.219.219,0,0,0-.069.007,10.873,10.873,0,0,0-1.023.466,17.462,17.462,0,0,1-2.9,1.205,1.116,1.116,0,0,1-.277.037.78.78,0,0,1-.749-1.07q.009-.021.019-.042a39.174,39.174,0,0,1,1.963-3.47.551.551,0,0,1-.066.016,26.651,26.651,0,0,1-4.747.427c-.592,0-1.192-.02-1.783-.06A29.374,29.374,0,0,1,460.285,44.625Zm16.776,12.291a1.836,1.836,0,0,1-.387-.076,19.186,19.186,0,0,0-4.761-.805c.012.432.031,1.062.049,1.465.266.014.534.02.8.02A15.533,15.533,0,0,0,477.061,56.916Z" fill="#1a1311"/><path d="M427.407,62.968a.67.67,0,0,1,.56-1.072,22.649,22.649,0,0,0,12.8-2.6,25.049,25.049,0,0,0,9.161-8.939.685.685,0,0,1,1.273.348,11.175,11.175,0,0,0,1.3,5.893,11.731,11.731,0,0,0,2.472,3.723c.536.642.2,1.181-.322,1.221-4.465.374-6.336,1.3-10.636,3.423-4.12,2.034-7.7,5.617-10.772,8.65a.652.652,0,0,1-1.146-.486,10.12,10.12,0,0,0-1.156-5.331,18.679,18.679,0,0,0-3.529-4.825" fill="#dc000c"/><path d="M432.746,74.442a1.25,1.25,0,0,1-1.245-1.358,9.522,9.522,0,0,0-1.088-5.007l0-.008a18.057,18.057,0,0,0-3.421-4.676.593.593,0,0,1-.058-.067,1.267,1.267,0,0,1,.252-1.774,1.274,1.274,0,0,1,.809-.253l.031,0c.671.062,1.354.093,2.028.093a22.125,22.125,0,0,0,10.429-2.622,24.494,24.494,0,0,0,8.937-8.723,1.282,1.282,0,0,1,2.382.652q0,.018,0,.036a10.575,10.575,0,0,0,1.23,5.578q.014.025.025.052A11.085,11.085,0,0,0,455.4,59.9l.033.036a1.419,1.419,0,0,1,.319,1.472,1.226,1.226,0,0,1-1.054.727c-4.342.364-6.116,1.24-10.4,3.355l-.016.008c-3.94,1.945-7.376,5.339-10.407,8.332l-.194.191A1.246,1.246,0,0,1,432.746,74.442Zm-1.275-6.919a10.716,10.716,0,0,1,1.222,5.641q0,.012,0,.023a.055.055,0,0,0,.055.061.052.052,0,0,0,.041-.019q.017-.02.036-.039l.21-.207c3.1-3.058,6.6-6.523,10.718-8.554l.016-.008c4.3-2.123,6.262-3.092,10.835-3.475a.171.171,0,0,0,.046-.009.524.524,0,0,0-.118-.218,12.272,12.272,0,0,1-2.568-3.866A11.769,11.769,0,0,1,450.6,50.7a.089.089,0,0,0-.043-.066.083.083,0,0,0-.044-.013.089.089,0,0,0-.076.043,25.692,25.692,0,0,1-9.38,9.153l-.011.006a23.323,23.323,0,0,1-11,2.767c-.7,0-1.413-.032-2.113-.1a.077.077,0,0,0-.04.015.069.069,0,0,0-.027.047.072.072,0,0,0,0,.035A19.246,19.246,0,0,1,431.471,67.523Z" fill="#1a1311"/><path d="M428.853,51.564a.631.631,0,0,1-.3-1.2,23.215,23.215,0,0,0,3.882-3.3,27.208,27.208,0,0,0,2.686-3.925.7.7,0,0,1,1.317.169,23.872,23.872,0,0,0,2.623,5.212,15.09,15.09,0,0,0,4.9,4.227A.714.714,0,0,1,443.833,54a12.372,12.372,0,0,0-3.439,1.7,19.933,19.933,0,0,0-3.127,2.878.721.721,0,0,1-1.018-.075.709.709,0,0,1-.155-.3,8.989,8.989,0,0,0-2.7-4.6,8.362,8.362,0,0,0-4.548-2.052" fill="#dc000c"/><path d="M436.8,59.36a1.321,1.321,0,0,1-1.282-1.005v-.005A8.357,8.357,0,0,0,433,54.057a7.732,7.732,0,0,0-4.174-1.9,1.228,1.228,0,0,1-.572-2.313,22.654,22.654,0,0,0,3.737-3.179,26.682,26.682,0,0,0,2.606-3.809,1.305,1.305,0,0,1,1.159-.714,1.286,1.286,0,0,1,.563.129,1.307,1.307,0,0,1,.7.866,23.292,23.292,0,0,0,2.536,5.033,14.393,14.393,0,0,0,4.7,4.047l.047.028a1.311,1.311,0,0,1-.235,2.308l-.044.016a11.761,11.761,0,0,0-3.268,1.619,19.373,19.373,0,0,0-3.028,2.788.6.6,0,0,1-.058.058A1.318,1.318,0,0,1,436.8,59.36Zm-.121-1.286a.113.113,0,0,0,.024.046.126.126,0,0,0,.1.046.122.122,0,0,0,.061-.016,20.569,20.569,0,0,1,3.182-2.92l.01-.007a12.954,12.954,0,0,1,3.573-1.777.119.119,0,0,0,.042-.039.117.117,0,0,0-.021-.152,15.579,15.579,0,0,1-5.06-4.376l-.019-.026a24.487,24.487,0,0,1-2.689-5.342.594.594,0,0,1-.023-.085.1.1,0,0,0-.057-.074.1.1,0,0,0-.043-.01.1.1,0,0,0-.094.058l-.017.033a27.879,27.879,0,0,1-2.745,4.011l-.027.031a23.85,23.85,0,0,1-3.982,3.385.6.6,0,0,1-.078.044.035.035,0,0,0-.019.033.034.034,0,0,0,.033.032.619.619,0,0,1,.1,0,8.923,8.923,0,0,1,4.865,2.2l.006,0A9.546,9.546,0,0,1,436.674,58.074Z" fill="#1a1311"/><path d="M427.079,40.661a3.4,3.4,0,0,0-3.351,3.448l0,.1a3.374,3.374,0,1,0,3.348-3.547" fill="#dc000c"/><path d="M427.1,40.064A3.971,3.971,0,0,1,427.3,48c-.069,0-.138.005-.207.005a3.968,3.968,0,0,1-3.963-3.767s0-.008,0-.013l0-.1v-.009a4,4,0,0,1,3.939-4.054Zm0,6.748c.048,0,.1,0,.146,0a2.777,2.777,0,0,0-.141-5.55h-.019a2.8,2.8,0,0,0-2.758,2.838l0,.087A2.774,2.774,0,0,0,427.1,46.812Z" fill="#1a1311"/><path d="M419.161,38.413a3.326,3.326,0,0,1,3.423,3.228c0,.091,0,.181,0,.272a3.521,3.521,0,0,1-3.519,3.171,3.255,3.255,0,0,1-3.2-3.309v-.012a3.317,3.317,0,0,1,3.286-3.346h.014" fill="#dc000c"/><path d="M419.261,37.815a3.923,3.923,0,0,1,3.92,3.809c0,.107,0,.213,0,.322q0,.013,0,.026a4.1,4.1,0,0,1-4.1,3.709h-.026a3.856,3.856,0,0,1-3.787-3.911v0a3.913,3.913,0,0,1,3.873-3.95h.123Zm2.725,4.053c0-.069,0-.137,0-.206a2.716,2.716,0,0,0-2.727-2.652h-.113a2.719,2.719,0,0,0-2.689,2.747s0,0,0,.006v.012s0,.007,0,.01a2.661,2.661,0,0,0,2.609,2.7h.009A2.914,2.914,0,0,0,421.986,41.867Z" fill="#1a1311"/><path d="M404.7,42.384a.714.714,0,0,1,.214-.987.724.724,0,0,1,.361-.113,46.612,46.612,0,0,0,8.188-1.251c.661-.193,1.059.25.973.748-.372,2.284.031,3.343,2.076,5.07.45.382.594.565.514.9a13.02,13.02,0,0,0-.328,2.931.147.147,0,0,0,.174.113.142.142,0,0,0,.08-.046c.409-.555,7.2-3.8,9.977,1.666,2.282,4.512-2.932,9.82-8.069,8.044-.1-.036-.226-.07-.2.1s2.916,7.507,4.825,10.019c.146.2.289,1.122-.434,1.122a35.233,35.233,0,0,0-15.4,2.893.678.678,0,0,1-.948-.846,27.281,27.281,0,0,0,2.6-16.509,39.039,39.039,0,0,0-4.6-13.858" fill="#dc000c"/><path d="M413.767,39.39a1.263,1.263,0,0,1,.987.441,1.285,1.285,0,0,1,.272,1.047c-.342,2.1.008,2.943,1.872,4.517a1.447,1.447,0,0,1,.71,1.491,12.428,12.428,0,0,0-.282,1.9,9.656,9.656,0,0,1,1.032-.449,10.189,10.189,0,0,1,3.448-.651,6,6,0,0,1,5.657,3.454,5.8,5.8,0,0,1-.329,5.764,7.418,7.418,0,0,1-2.591,2.51,7.2,7.2,0,0,1-3.607.989,6.877,6.877,0,0,1-1.369-.138c.817,2.05,2.935,7.027,4.395,8.947l.007.009a1.581,1.581,0,0,1,.093,1.479,1.086,1.086,0,0,1-1.009.592h-.023c-.443-.017-.892-.026-1.335-.026a34.434,34.434,0,0,0-13.786,2.862,1.275,1.275,0,0,1-1.76-1.6q.01-.027.024-.053a26.531,26.531,0,0,0,2.538-16.148l0-.014a38.286,38.286,0,0,0-4.52-13.628,1.311,1.311,0,0,1,1.057-2,46.136,46.136,0,0,0,8.066-1.232A1.675,1.675,0,0,1,413.767,39.39Zm2.68,7.221a2.3,2.3,0,0,0-.32-.3c-2.178-1.839-2.689-3.1-2.279-5.621v-.006a.108.108,0,0,0-.008-.079.116.116,0,0,0-.074-.016.5.5,0,0,0-.136.022l-.025.007a47.338,47.338,0,0,1-8.293,1.267.161.161,0,0,0-.077.02.116.116,0,0,0-.033.162l.019.032a39.472,39.472,0,0,1,4.667,14.059,27.878,27.878,0,0,1-2.634,16.825.081.081,0,0,0,.08.1.077.077,0,0,0,.037-.009l.041-.02a35.621,35.621,0,0,1,14.279-2.969c.436,0,.878.008,1.314.024a.629.629,0,0,0-.023-.2,36.573,36.573,0,0,1-3.162-5.971c-.781-1.756-1.713-4.038-1.751-4.283a.711.711,0,0,1,.153-.586.673.673,0,0,1,.513-.231.952.952,0,0,1,.323.063,5.741,5.741,0,0,0,1.876.317,6.222,6.222,0,0,0,5.181-2.93,4.634,4.634,0,0,0,.281-4.6,4.814,4.814,0,0,0-4.592-2.8,8.735,8.735,0,0,0-4.392,1.244l-.011.013a.744.744,0,0,1-1.287-.335.6.6,0,0,1-.013-.124,13.629,13.629,0,0,1,.343-3.065V46.61Z" fill="#1a1311"/><path d="M393.739,50.09a.783.783,0,0,1,.751-1.2,59.157,59.157,0,0,0,9.4-1.236.7.7,0,0,1,.864,1.01c-.489.855-.943,3.673-1.126,6.218-.187,2.607-.928,8.273-2.323,11.462a20.507,20.507,0,0,1-8.539,9.778.862.862,0,0,1-.823.037,62.723,62.723,0,0,0-10.18-3.174c-.487-.088-.741-1,.1-1.4,1.7-.807,8.539-3.036,11.384-8.464s.879-12.235.486-13.036" fill="#dc000c"/><path d="M404.155,47a1.3,1.3,0,0,1,1.115,1.961,21.525,21.525,0,0,0-1.046,5.959c-.185,2.579-.918,8.333-2.37,11.654a21.1,21.1,0,0,1-8.783,10.056,1.459,1.459,0,0,1-1.369.07,62.3,62.3,0,0,0-10.058-3.135,1.186,1.186,0,0,1-.915-1.04,1.423,1.423,0,0,1,.878-1.484c.234-.111.542-.24.932-.4,2.533-1.061,7.805-3.268,10.18-7.8a15,15,0,0,0,1.394-7.929,17.008,17.008,0,0,0-.9-4.54,1.38,1.38,0,0,1,1.289-2.083,58.733,58.733,0,0,0,9.219-1.212A1.29,1.29,0,0,1,404.155,47ZM392.321,75.649a.265.265,0,0,0,.137-.038l.006,0a20.034,20.034,0,0,0,8.29-9.493l0-.009c1.287-2.942,2.065-8.349,2.275-11.265.173-2.406.623-5.458,1.2-6.472l.007-.013a.1.1,0,0,0,.007-.092.1.1,0,0,0-.135-.057.6.6,0,0,1-.1.031,59.933,59.933,0,0,1-9.495,1.248.6.6,0,0,1-.1,0,.19.19,0,0,0-.124.028.187.187,0,0,0-.055.257.6.6,0,0,1,.033.059,17.447,17.447,0,0,1,1.028,5,16.183,16.183,0,0,1-1.527,8.572,15.408,15.408,0,0,1-5.43,5.636A33.016,33.016,0,0,1,383,71.744c-.361.151-.672.281-.881.381-.068.032-.186.1-.206.2a.148.148,0,0,0,.008.086,63.5,63.5,0,0,1,10.247,3.2l.036.016A.264.264,0,0,0,392.321,75.649Z" fill="#1a1311"/><path d="M380.817,48.4c-.066-.221-.063-.94.639-.955a53.109,53.109,0,0,0,11.03-.861c1.146-.234,1.121.691.9.955-.165.191-3.018,2.326-2.752,7.94a13.273,13.273,0,0,0,1.686,5.992c.338.876.345,1.314-.657,1.405a32.234,32.234,0,0,0-9.577,2.458.679.679,0,0,1-.93-.9c.516-1.23,2.677-3.8,2.023-8.389-.583-4.083-1.911-6.091-2.361-7.642" fill="#dc000c"/><path d="M392.824,45.953a1.215,1.215,0,0,1,1.165.672,1.274,1.274,0,0,1-.145,1.3l-.006.007a1.549,1.549,0,0,1-.13.128c-1.748,1.6-2.627,4.229-2.478,7.394v.006a12.735,12.735,0,0,0,1.61,5.723.6.6,0,0,1,.036.077,1.812,1.812,0,0,1,.083,1.613,1.549,1.549,0,0,1-1.243.6,31.591,31.591,0,0,0-9.375,2.4,1.276,1.276,0,0,1-1.73-1.687c.109-.255.268-.542.452-.874a10.621,10.621,0,0,0,1.523-7.184,22.24,22.24,0,0,0-1.73-5.95,15.33,15.33,0,0,1-.615-1.613,1.5,1.5,0,0,1,.206-1.228,1.225,1.225,0,0,1,.994-.491h.029c.461.012.928.018,1.39.018A52.664,52.664,0,0,0,392.373,46,2.3,2.3,0,0,1,392.824,45.953Zm.085,1.2a.436.436,0,0,0-.085-.007,1.118,1.118,0,0,0-.219.025l-.011,0a53.863,53.863,0,0,1-9.733.889c-.466,0-.938-.006-1.4-.018a.223.223,0,0,0-.048.007.384.384,0,0,0-.019.187,14.675,14.675,0,0,0,.568,1.48,23.3,23.3,0,0,1,1.811,6.245,11.691,11.691,0,0,1-1.662,7.933c-.171.307-.318.573-.4.771l-.016.035a.082.082,0,0,0,.074.118.078.078,0,0,0,.038-.01l.048-.023a32.791,32.791,0,0,1,9.754-2.5,1.444,1.444,0,0,0,.321-.057,2.327,2.327,0,0,0-.148-.5,13.937,13.937,0,0,1-1.74-6.22c-.166-3.524.851-6.481,2.863-8.327l.007-.006A.193.193,0,0,0,392.909,47.154Z" fill="#1a1311"/><path d="M372.364,43.259a.684.684,0,0,1,1.249.027,15.553,15.553,0,0,0,5.941,8.137s1.152.676.177,1.35c0,0-3.726,1.4-5.862,2.506,0,0-3.952,1.927-5.131,3.7a2.169,2.169,0,0,0,.228,3.059c.035.031.072.061.11.089a12.971,12.971,0,0,0,4.849,2.436,46.865,46.865,0,0,0,5.605,1.366.685.685,0,0,1,.1,1.263,10.755,10.755,0,0,0-3.907,2.52s-3.7,3.1-4.338,6.925c-.063.447-.783,1.092-1.4.022,0,0-3.889-8.3-7.448-12.565,0,0-1.425-1.612-1.8-2.1a3.768,3.768,0,0,1-.673-2.623,2.919,2.919,0,0,1,1.575-2.1,29.25,29.25,0,0,0,6.816-7.191,60.145,60.145,0,0,0,3.907-6.831" fill="#dc000c"/><path d="M372.982,42.27a1.283,1.283,0,0,1,1.181.785q.011.027.02.054a15.028,15.028,0,0,0,5.7,7.813,1.665,1.665,0,0,1,.84,1.226,1.28,1.28,0,0,1-.649,1.116.6.6,0,0,1-.129.068c-.037.014-3.718,1.4-5.8,2.477l-.013.006c-1.059.517-4,2.152-4.9,3.494a.6.6,0,0,1-.045.059,1.572,1.572,0,0,0,.165,2.217l.006.005c.022.02.045.038.068.055l.019.015a12.3,12.3,0,0,0,4.626,2.324l.026.008a46.442,46.442,0,0,0,5.534,1.349.6.6,0,0,1,.078.019,1.282,1.282,0,0,1,.188,2.363.6.6,0,0,1-.063.028,10.225,10.225,0,0,0-3.69,2.38q-.02.02-.041.038c-.035.029-3.536,3.006-4.132,6.56a1.319,1.319,0,0,1-1.245,1.11,1.464,1.464,0,0,1-1.262-.882q-.013-.022-.023-.045c-.039-.082-3.894-8.272-7.36-12.429-.113-.128-1.446-1.638-1.82-2.125l-.013-.017a4.359,4.359,0,0,1-.78-3.038q0-.018.005-.036a3.531,3.531,0,0,1,1.846-2.5,28.576,28.576,0,0,0,6.636-7.013A59.877,59.877,0,0,0,371.826,43,1.286,1.286,0,0,1,372.982,42.27Zm.073,1.234a.089.089,0,0,0-.036-.032.086.086,0,0,0-.115.041l0,.008a61.078,61.078,0,0,1-3.948,6.889A29.769,29.769,0,0,1,362,57.749a.6.6,0,0,1-.092.057,2.332,2.332,0,0,0-1.25,1.653,3.167,3.167,0,0,0,.562,2.18c.369.477,1.753,2.044,1.767,2.06l.011.013c3.505,4.2,7.238,12.073,7.519,12.669a.749.749,0,0,0,.215.257.221.221,0,0,0,.066-.089l0-.01c.648-3.883,4.176-6.971,4.521-7.266a11.429,11.429,0,0,1,4.057-2.623.088.088,0,0,0,.029-.042.088.088,0,0,0-.037-.1,47.646,47.646,0,0,1-5.605-1.369,13.483,13.483,0,0,1-5.05-2.538c-.047-.035-.093-.073-.138-.112a2.765,2.765,0,0,1-.312-3.87c1.263-1.857,5.1-3.754,5.339-3.872,2-1.034,5.284-2.29,5.843-2.5a.519.519,0,0,0,.07-.065.949.949,0,0,0-.262-.24l-.04-.026A16.228,16.228,0,0,1,373.056,43.5Z" fill="#1a1311"/><path d="M347.682,65.291s-.613-.9.36-1.216c0,0,.854-.1,1.752-.252,0,0,4.51-.9,5.709-1.2a5.986,5.986,0,0,1,3.4.543A7.493,7.493,0,0,1,362.8,67.12a7.664,7.664,0,0,1,.552,4.06s-.165,3.345-4.57,5.56a26.327,26.327,0,0,1-2.859,1.018A.814.814,0,0,1,355,77.4a12.144,12.144,0,0,0-2.692-4.311.658.658,0,0,1,.384-1.107,4.723,4.723,0,0,1,.723-.05,8.058,8.058,0,0,0,3.625-.958,1.1,1.1,0,0,0,.045-2.007,3.068,3.068,0,0,0-1.828-.387,5.829,5.829,0,0,0-3.61,1.559s-1.32,1.105-1.71,1.509c0,0-.942.418-1-.568,0,0,.135-3.615-1.258-5.8" fill="#dc000c"/><path d="M356.3,61.973a6.624,6.624,0,0,1,2.854.651,8.057,8.057,0,0,1,4.194,4.265,8.256,8.256,0,0,1,.6,4.351c-.028.383-.406,3.776-4.9,6.033l-.036.017a27.036,27.036,0,0,1-2.924,1.041,1.411,1.411,0,0,1-1.593-.614.6.6,0,0,1-.053-.11,11.472,11.472,0,0,0-2.56-4.1,1.255,1.255,0,0,1,.731-2.113,5.322,5.322,0,0,1,.767-.056h.032a7.5,7.5,0,0,0,3.348-.887l.051-.024a.5.5,0,0,0,.021-.918l-.039-.021a2.484,2.484,0,0,0-1.472-.312l-.022,0a5.244,5.244,0,0,0-3.24,1.4l-.025.022c-.36.3-1.362,1.153-1.664,1.466a.6.6,0,0,1-.187.131,1.75,1.75,0,0,1-.661.139,1.155,1.155,0,0,1-1.177-1.218.6.6,0,0,1,0-.071c0-.121.1-3.45-1.16-5.429a1.57,1.57,0,0,1-.224-1.3,1.3,1.3,0,0,1,.9-.808.6.6,0,0,1,.115-.025c.008,0,.845-.1,1.713-.246.222-.044,4.525-.905,5.672-1.192a.6.6,0,0,1,.065-.013A6.6,6.6,0,0,1,356.3,61.973ZM358.528,76.2a8.164,8.164,0,0,0,3.628-3.288,4.728,4.728,0,0,0,.6-1.763c0-.017,0-.031,0-.048a7.066,7.066,0,0,0-.509-3.744,6.871,6.871,0,0,0-3.585-3.643l-.02-.009a5.436,5.436,0,0,0-3.029-.493c-1.245.308-5.52,1.161-5.7,1.2l-.017,0c-.768.13-1.493.221-1.715.248a.362.362,0,0,0-.091.049.6.6,0,0,0,.087.246l.01.015a9.462,9.462,0,0,1,1.241,3.962c.076.632.1,1.184.11,1.537.007.3.008.486,0,.608a.568.568,0,0,0,.009.065.515.515,0,0,0,.071-.012c.469-.454,1.5-1.323,1.636-1.434a6.441,6.441,0,0,1,3.957-1.707c.118-.012.238-.017.357-.017a3.67,3.67,0,0,1,1.8.471,1.7,1.7,0,0,1-.063,3.074,8.7,8.7,0,0,1-3.871,1.017h-.052a4.141,4.141,0,0,0-.6.044.063.063,0,0,0-.037.017.058.058,0,0,0-.019.043.059.059,0,0,0,.017.044,12.653,12.653,0,0,1,2.794,4.444.218.218,0,0,0,.22.062A25.822,25.822,0,0,0,358.528,76.2Z" fill="#1a1311"/><path d="M322.052,42.557a.754.754,0,0,1,.808-.066s3.531,2.812,10.021,2.563a32.632,32.632,0,0,0,8.344-1.321c1.023-.33,1.194.78.823,1.049a24.864,24.864,0,0,0-2.622,2.125s-2.946,2.394-5.344,7.915a22.667,22.667,0,0,0-1.674,6.693s-.2,2.718.951,3.693c0,0,.621.877,2.6.334a4.9,4.9,0,0,0,3.447-3.6,12.011,12.011,0,0,0-.148-5.445,30.346,30.346,0,0,0-1.875-5.343s-.521-1.449.925-1.05a7.287,7.287,0,0,0,3.1,1.224s5.719.823,8.366.125a31.445,31.445,0,0,0,3.819-1.275s1.273-.4,1,.823a15.06,15.06,0,0,0-1.7,5.547s.019,3.388.523,4.447c0,0,.474,1.543-1.273.846,0,0-6.016-2.82-6.791-3.172,0,0-.126,0-.126.1s1.273,4.9.027,8.716a10.617,10.617,0,0,1-6.271,7.3,12.788,12.788,0,0,1-7.639.171,9.571,9.571,0,0,1-6.27-7.318A18.093,18.093,0,0,1,326.7,57s2.2-4.165,2.373-4.543c0,0,.073-.2-.174-.128a23.567,23.567,0,0,0-4.446,3.571c-.266.318-1.308.589-1.206-.544.035-.351.7-2.418-.652-9.629,0,0-.636-2.292-.685-2.443a.763.763,0,0,1,.153-.72" fill="#dc000c"/><path d="M322.508,41.807a1.355,1.355,0,0,1,.631.157.6.6,0,0,1,.093.061,10.373,10.373,0,0,0,2.272,1.225,17.362,17.362,0,0,0,6.568,1.224c.26,0,.524-.005.787-.015h.007a32.048,32.048,0,0,0,8.185-1.295,1.739,1.739,0,0,1,.526-.087,1.251,1.251,0,0,1,.823,2.19l-.007,0a24.359,24.359,0,0,0-2.559,2.074l-.03.026a14.191,14.191,0,0,0-1.893,2.068,2.328,2.328,0,0,1,.552.09.6.6,0,0,1,.182.085,6.725,6.725,0,0,0,2.846,1.124,43.988,43.988,0,0,0,5.33.4,11.619,11.619,0,0,0,2.8-.261,30.956,30.956,0,0,0,3.746-1.251l.046-.017a2.157,2.157,0,0,1,.6-.09,1.174,1.174,0,0,1,.968.416,1.363,1.363,0,0,1,.192,1.2.6.6,0,0,1-.056.151,14.4,14.4,0,0,0-1.624,5.295,15.454,15.454,0,0,0,.465,4.161.6.6,0,0,1,.032.081,1.64,1.64,0,0,1-.147,1.361,1.13,1.13,0,0,1-.941.438,2.676,2.676,0,0,1-.978-.223l-.032-.014c-.049-.023-3.991-1.871-5.879-2.75a16.857,16.857,0,0,1-.183,8.017,11.249,11.249,0,0,1-6.618,7.688l-.036.014a13.385,13.385,0,0,1-8,.179l-.03-.01a10.184,10.184,0,0,1-6.661-7.774l0-.018a18.61,18.61,0,0,1,1.677-10.987l.009-.017c.449-.85,1.02-1.935,1.49-2.831a22.982,22.982,0,0,0-2.769,2.414,1.529,1.529,0,0,1-1.1.47,1.117,1.117,0,0,1-.839-.353,1.405,1.405,0,0,1-.305-1.119V55.3c.006-.058.017-.117.032-.2.348-1.885.122-4.992-.672-9.235-.242-.873-.633-2.275-.671-2.395a1.368,1.368,0,0,1,.26-1.3.6.6,0,0,1,.092-.087A1.358,1.358,0,0,1,322.508,41.807Zm.044,1.2a.159.159,0,0,0-.078,0,.168.168,0,0,0,0,.1c.05.154.585,2.081.692,2.466q.007.025.012.05c.825,4.4,1.053,7.664.677,9.7-.007.038-.016.084-.018.1a.825.825,0,0,0,0,.16.418.418,0,0,0,.161-.067l.024-.026a24.187,24.187,0,0,1,4.559-3.661.6.6,0,0,1,.148-.066.917.917,0,0,1,.259-.039.679.679,0,0,1,.567.287.719.719,0,0,1,.076.659q-.008.022-.018.044c-.174.38-2.136,4.1-2.383,4.565a17.423,17.423,0,0,0-1.567,10.268,8.988,8.988,0,0,0,5.862,6.847,12.191,12.191,0,0,0,7.249-.161,10.051,10.051,0,0,0,5.9-6.882q.005-.022.012-.044a16.364,16.364,0,0,0-.012-8.256,1.156,1.156,0,0,1-.044-.274.7.7,0,0,1,.723-.7.6.6,0,0,1,.247.053c.757.344,6.363,2.971,6.781,3.167a1.633,1.633,0,0,0,.5.132.993.993,0,0,0-.025-.225,17.211,17.211,0,0,1-.557-4.648.6.6,0,0,1,0-.065,15.582,15.582,0,0,1,1.72-5.688.774.774,0,0,0,.01-.087h-.018a1,1,0,0,0-.229.031,32.155,32.155,0,0,1-3.861,1.287,12.735,12.735,0,0,1-3.1.3,44.358,44.358,0,0,1-5.5-.412,7.929,7.929,0,0,1-3.264-1.262,1.007,1.007,0,0,0-.171-.025,1.159,1.159,0,0,0,.05.3,31.027,31.027,0,0,1,1.9,5.417,12.677,12.677,0,0,1,.155,5.713l0,.017a5.5,5.5,0,0,1-3.867,4.039,5.109,5.109,0,0,1-1.344.2,2.369,2.369,0,0,1-1.839-.688c-1.3-1.159-1.142-3.851-1.12-4.157V61.46a23.232,23.232,0,0,1,1.718-6.869l0-.007a22.559,22.559,0,0,1,5.5-8.127,25.561,25.561,0,0,1,2.6-2.112.156.156,0,0,0-.019-.073.386.386,0,0,0-.2.028l-.014,0a33.243,33.243,0,0,1-8.494,1.345c-.276.011-.555.016-.829.016A16.268,16.268,0,0,1,322.552,43.007Zm16.266,18.807a11.475,11.475,0,0,0-.142-5.166l0-.007a29.828,29.828,0,0,0-1.838-5.238q-.011-.023-.019-.047a2.182,2.182,0,0,1-.075-.266,27.574,27.574,0,0,0-2.11,3.967A22.038,22.038,0,0,0,333,61.564c-.044.632,0,2.558.742,3.189a.33.33,0,0,1,.095.1,1.3,1.3,0,0,0,.932.271,3.919,3.919,0,0,0,1.024-.156A4.3,4.3,0,0,0,338.818,61.814Z" fill="#1a1311"/><path d="M360.12,40.723c-.6.271-1.416-.064-1.287-.777.473-2.592,3.346-9.7,6.766-12.5a3.946,3.946,0,0,1,4.869-.51c1.029.783,1.516,1.848.961,3.931-.924,3.5-7.943,8.318-11.309,9.853" fill="#008a32"/><path d="M359.678,41.414a1.522,1.522,0,0,1-1.165-.512,1.273,1.273,0,0,1-.268-1.062,28.089,28.089,0,0,1,2.33-6.329A20.652,20.652,0,0,1,365.2,27a4.543,4.543,0,0,1,5.587-.569l.042.029c1.375,1.046,1.738,2.453,1.176,4.56s-3,4.415-4.942,5.974a35.776,35.776,0,0,1-6.7,4.271A1.684,1.684,0,0,1,359.678,41.414Zm8.678-14.494a3.331,3.331,0,0,0-2.341.953q-.019.018-.039.035a19.044,19.044,0,0,0-4.331,6.129,27.268,27.268,0,0,0-2.226,6.016c-.011.059,0,.075.009.083a.351.351,0,0,0,.249.083.479.479,0,0,0,.2-.041,34.771,34.771,0,0,0,6.443-4.116c2.553-2.045,4.164-3.944,4.534-5.348.5-1.873.073-2.673-.725-3.288A3.342,3.342,0,0,0,368.357,26.92Z" fill="#1a1311"/><path d="M350.869,37.309c-.928.235-1.476.025-1.4-.95.114-1.519,3.556-10.193,7.114-12.574a3.918,3.918,0,0,1,4.5-.25c1.249.9,1.41,2.118.973,3.846-.948,3.775-9.89,9.6-11.185,9.928" fill="#008a32"/><path d="M350.264,37.994a1.353,1.353,0,0,1-1.041-.407,1.62,1.62,0,0,1-.349-1.275A25.024,25.024,0,0,1,351.2,30.13c1.171-2.357,2.993-5.452,5.032-6.828a4.515,4.515,0,0,1,5.167-.274l.033.022c1.751,1.261,1.562,3.055,1.2,4.477-.554,2.2-3.393,4.793-5.677,6.58a27.567,27.567,0,0,1-5.941,3.78A3.073,3.073,0,0,1,350.264,37.994Zm-.164-1.217a.389.389,0,0,0,.164.023,1.945,1.945,0,0,0,.459-.07,28.871,28.871,0,0,0,5.5-3.564c3.021-2.363,4.887-4.47,5.255-5.931.41-1.622.207-2.523-.727-3.2a3.321,3.321,0,0,0-3.8.222l-.038.028c-1.426.954-3.076,3.22-4.646,6.38a25.421,25.421,0,0,0-2.2,5.743.69.69,0,0,0,.035.373Z" fill="#1a1311"/><path d="M355.736,40.793a3.835,3.835,0,0,1,3.9,3.769c0,.042,0,.083,0,.125a3.92,3.92,0,1,1-3.946-3.894h.046" fill="#dc000c"/><path d="M355.8,40.2a4.431,4.431,0,0,1,4.43,4.356c0,.045,0,.092,0,.14a4.517,4.517,0,0,1-4.487,4.538h-.03a4.517,4.517,0,0,1-.03-9.034h.116Zm-.086,7.841h.022a3.323,3.323,0,0,0,3.3-3.345q0-.009,0-.018c0-.032,0-.064,0-.1a3.254,3.254,0,0,0-3.293-3.186h-.056a3.323,3.323,0,0,0,.026,6.646Z" fill="#1a1311"/><path d="M346.621,37.22a3.859,3.859,0,1,1-3.993,4V41.19a3.887,3.887,0,0,1,3.8-3.971c.064,0,.128,0,.192,0" fill="#dc000c"/><path d="M346.509,36.621l.128,0a4.455,4.455,0,0,1-.052,8.909,4.426,4.426,0,0,1-4.553-4.29v-.035a4.484,4.484,0,0,1,4.386-4.585Zm-.055,7.718.1,0h.013a3.261,3.261,0,0,0,.041-6.521l-.1,0h-.07a3.29,3.29,0,0,0-3.214,3.361v.03A3.216,3.216,0,0,0,346.453,44.34Z" fill="#1a1311"/><path d="M481.347,53.336a.74.74,0,0,1,1.137-.658,25.516,25.516,0,0,0,8.471,2.1,30.509,30.509,0,0,0,8.077-.744c.825-.173,1.155.209,1.074.618a24.653,24.653,0,0,0-.966,4.758,14.991,14.991,0,0,0,.3,3.891c.123.513-.293.861-.861.751-1.011-.2-3.324-2.131-8.276-2.587a13.548,13.548,0,0,0-8.052,1.431c-.669.257-1.164-.006-1.126-.64s.39-3.484.411-4.534a33.467,33.467,0,0,0-.186-4.386" fill="#dc000c"/><path d="M482.086,51.965a1.336,1.336,0,0,1,.674.182,24.848,24.848,0,0,0,8.229,2.035c.409.017.823.025,1.232.025a29.969,29.969,0,0,0,6.678-.755l.011,0a2.452,2.452,0,0,1,.5-.055,1.332,1.332,0,0,1,1.06.444,1.115,1.115,0,0,1,.222.93.6.6,0,0,1-.015.06,24.106,24.106,0,0,0-.941,4.629,14.4,14.4,0,0,0,.287,3.715,1.193,1.193,0,0,1-.211,1.031,1.289,1.289,0,0,1-1.027.467,1.681,1.681,0,0,1-.319-.031,5.936,5.936,0,0,1-1.336-.556,18.023,18.023,0,0,0-6.881-2.023l-.023,0a12.949,12.949,0,0,0-7.7,1.368.6.6,0,0,1-.063.028,1.926,1.926,0,0,1-.689.137,1.244,1.244,0,0,1-.921-.374,1.286,1.286,0,0,1-.327-1c.015-.243.068-.752.136-1.4.11-1.042.261-2.469.274-3.113a32.986,32.986,0,0,0-.186-4.309q0-.018,0-.037a1.338,1.338,0,0,1,1.274-1.4ZM492.221,55.4c-.428,0-.863-.009-1.291-.027h-.018a26.039,26.039,0,0,1-8.669-2.149.6.6,0,0,1-.08-.043.142.142,0,0,0-.077-.023h-.007a.143.143,0,0,0-.136.138,34.184,34.184,0,0,1,.19,4.438c-.014.694-.161,2.091-.28,3.214-.064.6-.119,1.127-.132,1.343a.35.35,0,0,0,.006.1.542.542,0,0,0,.281-.043,14.142,14.142,0,0,1,8.361-1.478,19.107,19.107,0,0,1,7.292,2.142,5.919,5.919,0,0,0,1.034.453.479.479,0,0,0,.089.009.244.244,0,0,0,.08-.011.208.208,0,0,0,0-.024l0-.016a15.594,15.594,0,0,1-.312-4.046c0-.01,0-.019,0-.029a25.311,25.311,0,0,1,.953-4.755.606.606,0,0,0-.09-.006,1.256,1.256,0,0,0-.25.029A31.164,31.164,0,0,1,492.221,55.4Z" fill="#1a1311"/><path d="M458.722,44.062c-.186-.532.185-.985.805-.892a28.97,28.97,0,0,0,6.938.941,26,26,0,0,0,6.4-.359.59.59,0,0,1,.744.784,38.893,38.893,0,0,0-2,3.522c-.036.087,0,.312.321.229,1.39-.364,3.367-1.516,3.918-1.668.437-.12.948.141.815.684a11.043,11.043,0,0,0-.393,3.724,23.042,23.042,0,0,0,.686,3.588c.031.675-.365.97-.975.783a19.846,19.846,0,0,0-5.388-.844c-.083.008-.154.028-.158.148,0,.148.052,2.061.087,2.353.011.11.012.158.318.158a16.185,16.185,0,0,0,6.694-.981c1.1-.429,1.4.186,1.411.549a36.157,36.157,0,0,0,.006,4.059,10.057,10.057,0,0,0,1.4,4.374c.342.528-.278,1.414-.867.984a14.1,14.1,0,0,0-8-2.509c-.275-.006-.207.141-.192.252a30.368,30.368,0,0,0,1.164,4.243,26.96,26.96,0,0,0,2.05,4.6c.306.571-.15,1.345-1.1.9s-1.74-1.175-6.227-1.614a33.951,33.951,0,0,0-5.908.363c-.63.114-1.2-.366-.922-.975a28.829,28.829,0,0,0,1.87-6.565c.014-.1.126-.3-.249-.2a26.134,26.134,0,0,0-4.572,2.821.681.681,0,0,1-1.146-.525,24.007,24.007,0,0,0-.225-5.068c-.25-1.6-1.023-3.574-1.176-4.3a.645.645,0,0,1,.649-.849,43.433,43.433,0,0,0,6.822.276c.1-.027.11-.028.121-.175a11.2,11.2,0,0,0-.073-2.3c-.048-.186-.126-.2-.3-.174a33.822,33.822,0,0,0-4.3,1.073c-.576.252-1.018-.054-1.05-.425-.043-.474-.432-2.5-.62-3.346-.523-2.362-1.042-3.283-1.2-4.347-.1-.617.264-.78.771-.772a44.784,44.784,0,0,0,5.019,1.924c.386.123.441.038.352-.2a22.786,22.786,0,0,0-2.323-4.243" fill="#dc000c"/><path d="M459.368,42.561a1.672,1.672,0,0,1,.247.019.593.593,0,0,1,.063.013,28.4,28.4,0,0,0,6.8.922h.032c.568.038,1.145.058,1.714.058a25.48,25.48,0,0,0,4.5-.4,1.187,1.187,0,0,1,1.442,1.593.6.6,0,0,1-.048.092c-.533.835-1.038,1.7-1.506,2.572.633-.25,1.31-.579,1.85-.842a9.036,9.036,0,0,1,1.233-.545,1.406,1.406,0,0,1,.372-.05,1.236,1.236,0,0,1,.987.454,1.141,1.141,0,0,1,.194,1l-.005.02a10.42,10.42,0,0,0-.373,3.51,22.513,22.513,0,0,0,.667,3.482.6.6,0,0,1,.021.131,1.434,1.434,0,0,1-.355,1.1l-.046.045.171-.062a2.438,2.438,0,0,1,.875-.185,1.3,1.3,0,0,1,1.345,1.274q0,.025,0,.051a35.7,35.7,0,0,0,.006,3.985,9.51,9.51,0,0,0,1.312,4.1,1.313,1.313,0,0,1,.013,1.329,1.237,1.237,0,0,1-1.063.68,1.143,1.143,0,0,1-.669-.224,13.443,13.443,0,0,0-7.164-2.389,29.882,29.882,0,0,0,1.044,3.689l0,.008a26.427,26.427,0,0,0,2,4.5l.006.011a1.341,1.341,0,0,1-.015,1.316,1.23,1.23,0,0,1-1.085.6,1.84,1.84,0,0,1-.779-.189c-.147-.069-.284-.141-.43-.217-.787-.412-1.864-.976-5.581-1.341-.28-.007-.563-.011-.842-.011a33.444,33.444,0,0,0-4.933.367,1.646,1.646,0,0,1-.282.025,1.42,1.42,0,0,1-1.213-.624,1.245,1.245,0,0,1-.07-1.2,28.285,28.285,0,0,0,1.687-5.616,25.59,25.59,0,0,0-3.707,2.369A1.278,1.278,0,0,1,456,67.891a1.292,1.292,0,0,1-.345-.925s0-.009,0-.014a23.461,23.461,0,0,0-.219-4.942,22.139,22.139,0,0,0-.809-3.037c-.162-.508-.291-.913-.354-1.2a1.242,1.242,0,0,1,1.262-1.6l.035,0a42.971,42.971,0,0,0,5.09.3c.4,0,.8-.006,1.206-.017a10.629,10.629,0,0,0-.043-1.414,33.37,33.37,0,0,0-3.846.98,1.6,1.6,0,0,1-.617.129,1.2,1.2,0,0,1-1.236-1.063c-.037-.407-.4-2.354-.608-3.268a26.438,26.438,0,0,0-.765-2.736,9.953,9.953,0,0,1-.442-1.648,1.239,1.239,0,0,1,.237-1.044,1.385,1.385,0,0,1,1.134-.417.6.6,0,0,1,.237.053,44.417,44.417,0,0,0,4.2,1.654,22.2,22.2,0,0,0-1.888-3.29.6.6,0,0,1-.073-.143,1.24,1.24,0,0,1,1.21-1.7Zm.044,1.2-.044,0a.169.169,0,0,0-.1.02.106.106,0,0,0,0,.032,23.427,23.427,0,0,1,2.322,4.27l.008.02a.8.8,0,0,1-.048.766.709.709,0,0,1-.6.3,1.47,1.47,0,0,1-.449-.084,45.54,45.54,0,0,1-4.96-1.893c-.027,0-.049,0-.067.008,0,.018,0,.041.008.069v.008a8.97,8.97,0,0,0,.4,1.457,27.486,27.486,0,0,1,.8,2.849c.175.788.568,2.814.628,3.388a.156.156,0,0,0,.05.007.431.431,0,0,0,.17-.042.594.594,0,0,1,.057-.022,34.535,34.535,0,0,1,4.376-1.092l.018,0a1.292,1.292,0,0,1,.2-.017.766.766,0,0,1,.771.632.593.593,0,0,1,.014.069,11.813,11.813,0,0,1,.077,2.423.708.708,0,0,1-.557.708.63.63,0,0,1-.136.021c-.559.021-1.125.032-1.684.032a44.172,44.172,0,0,1-5.2-.309l-.009,0a.047.047,0,0,0-.029.024.044.044,0,0,0,0,.035.6.6,0,0,1,.019.068c.048.228.179.638.33,1.113a23.03,23.03,0,0,1,.851,3.218,24.662,24.662,0,0,1,.232,5.187.089.089,0,0,0,.024.06.084.084,0,0,0,.117,0q.021-.02.044-.038a26.787,26.787,0,0,1,4.676-2.885.6.6,0,0,1,.106-.039,1.242,1.242,0,0,1,.319-.047.694.694,0,0,1,.565.262.739.739,0,0,1,.109.656l0,.008a29.467,29.467,0,0,1-1.908,6.694l-.008.018c-.013.028-.022.061-.016.071a.268.268,0,0,0,.209.076.45.45,0,0,0,.08-.007l.018,0a34.641,34.641,0,0,1,5.118-.381c.3,0,.6,0,.894.012l.043,0c3.965.388,5.164,1.016,6.039,1.474.134.07.26.136.383.194a.666.666,0,0,0,.272.076c.012,0,.053,0,.061-.015a.151.151,0,0,0-.011-.135,27.624,27.624,0,0,1-2.09-4.691,31.071,31.071,0,0,1-1.185-4.322q0-.018-.006-.036l0-.013a.762.762,0,0,1,.139-.649.779.779,0,0,1,.631-.267h.022a14.637,14.637,0,0,1,8.312,2.6.218.218,0,0,0,.047-.154l-.01-.017a10.711,10.711,0,0,1-1.483-4.634v-.013a36.908,36.908,0,0,1-.008-4.093c-.01-.1-.078-.1-.15-.1a1.26,1.26,0,0,0-.445.105l-.01,0a16.725,16.725,0,0,1-5.851,1.053c-.356,0-.716-.012-1.071-.034a.778.778,0,0,1-.892-.692c-.04-.359-.09-2.277-.09-2.416q0-.01,0-.02a.729.729,0,0,1,.7-.722.6.6,0,0,1,.068,0,20.442,20.442,0,0,1,5.55.869.483.483,0,0,0,.184.029.448.448,0,0,0,.023-.154,23.707,23.707,0,0,1-.684-3.609q0-.013,0-.026a11.611,11.611,0,0,1,.4-3.878.22.22,0,0,0-.069.007,10.781,10.781,0,0,0-1.027.467,17.457,17.457,0,0,1-2.9,1.2,1.113,1.113,0,0,1-.278.038.779.779,0,0,1-.746-1.072q.008-.02.018-.039a39.655,39.655,0,0,1,1.961-3.467.546.546,0,0,1-.065.016,26.677,26.677,0,0,1-4.752.428c-.591,0-1.189-.02-1.779-.06A29.6,29.6,0,0,1,459.413,43.757Zm16.782,12.288a1.832,1.832,0,0,1-.388-.076,19.242,19.242,0,0,0-4.763-.8c.012.432.032,1.064.05,1.465.266.014.534.02.8.02A15.533,15.533,0,0,0,476.194,56.045Z" fill="#1a1311"/><path d="M426.537,62.1a.67.67,0,0,1,.561-1.072,22.631,22.631,0,0,0,12.8-2.6,25.039,25.039,0,0,0,9.163-8.939.685.685,0,0,1,1.274.348,11.184,11.184,0,0,0,1.3,5.893,11.753,11.753,0,0,0,2.47,3.723c.537.642.2,1.18-.323,1.221-4.465.373-6.334,1.3-10.636,3.423-4.12,2.034-7.7,5.619-10.771,8.65a.652.652,0,0,1-1.146-.486,10.14,10.14,0,0,0-1.156-5.329,18.719,18.719,0,0,0-3.531-4.827" fill="#dc000c"/><path d="M431.878,73.572a1.249,1.249,0,0,1-1.245-1.358,9.542,9.542,0,0,0-1.088-5.005l0-.008a18.09,18.09,0,0,0-3.423-4.678.6.6,0,0,1-.058-.067,1.267,1.267,0,0,1,1.062-2.027l.032,0c.673.062,1.356.094,2.031.094A22.1,22.1,0,0,0,439.61,57.9a24.483,24.483,0,0,0,8.939-8.723,1.282,1.282,0,0,1,2.383.652q0,.018,0,.036a10.584,10.584,0,0,0,1.231,5.578q.013.025.024.052a11.11,11.11,0,0,0,2.345,3.534l.032.036a1.418,1.418,0,0,1,.32,1.47,1.229,1.229,0,0,1-1.055.729c-4.338.362-6.108,1.236-10.386,3.347l-.033.016c-3.934,1.942-7.365,5.33-10.393,8.319l-.207.2A1.246,1.246,0,0,1,431.878,73.572ZM430.6,66.655a10.736,10.736,0,0,1,1.222,5.638q0,.012,0,.024a.055.055,0,0,0,.055.061.052.052,0,0,0,.041-.019q.017-.02.036-.039l.223-.22c3.092-3.053,6.6-6.513,10.7-8.54l.033-.016c4.292-2.118,6.251-3.085,10.818-3.466a.168.168,0,0,0,.047-.01.525.525,0,0,0-.119-.217,12.3,12.3,0,0,1-2.566-3.867,11.777,11.777,0,0,1-1.357-6.156.089.089,0,0,0-.042-.067.086.086,0,0,0-.045-.012.088.088,0,0,0-.076.043,25.681,25.681,0,0,1-9.383,9.154l-.011.006a23.3,23.3,0,0,1-11,2.768c-.7,0-1.416-.033-2.117-.1a.068.068,0,0,0-.038.013.074.074,0,0,0-.026.084A19.281,19.281,0,0,1,430.6,66.655Z" fill="#1a1311"/><path d="M427.983,50.693a.631.631,0,0,1-.3-1.2,23.263,23.263,0,0,0,3.882-3.3,27.358,27.358,0,0,0,2.688-3.925.7.7,0,0,1,1.315.169,23.783,23.783,0,0,0,2.623,5.212,15.09,15.09,0,0,0,4.9,4.227.713.713,0,0,1,.2.988.706.706,0,0,1-.329.269,12.376,12.376,0,0,0-3.442,1.705,20.066,20.066,0,0,0-3.126,2.878.72.72,0,0,1-1.016-.072.712.712,0,0,1-.155-.3,9,9,0,0,0-2.7-4.6,8.349,8.349,0,0,0-4.548-2.053" fill="#dc000c"/><path d="M435.926,58.489a1.316,1.316,0,0,1-1.28-1V57.48a8.362,8.362,0,0,0-2.518-4.292,7.717,7.717,0,0,0-4.175-1.9,1.228,1.228,0,0,1-.572-2.313,22.705,22.705,0,0,0,3.737-3.179,26.836,26.836,0,0,0,2.609-3.811,1.3,1.3,0,0,1,2.417.282,23.2,23.2,0,0,0,2.536,5.034,14.393,14.393,0,0,0,4.7,4.047l.045.027a1.312,1.312,0,0,1,.373,1.815,1.294,1.294,0,0,1-.606.495l-.043.015a11.76,11.76,0,0,0-3.271,1.619,19.5,19.5,0,0,0-3.028,2.788.6.6,0,0,1-.057.056A1.315,1.315,0,0,1,435.926,58.489Zm-.119-1.284a.115.115,0,0,0,.024.047.124.124,0,0,0,.1.044.117.117,0,0,0,.06-.016,20.7,20.7,0,0,1,3.181-2.921l.011-.008a12.952,12.952,0,0,1,3.577-1.777.108.108,0,0,0,.039-.036.117.117,0,0,0-.02-.154,15.578,15.578,0,0,1-5.061-4.376l-.019-.026a24.4,24.4,0,0,1-2.689-5.343.594.594,0,0,1-.023-.083.1.1,0,0,0-.1-.083.1.1,0,0,0-.093.058l-.016.03a28.032,28.032,0,0,1-2.747,4.011L432,46.6a23.9,23.9,0,0,1-3.982,3.385.6.6,0,0,1-.078.045.035.035,0,0,0-.019.033.034.034,0,0,0,.033.032.619.619,0,0,1,.1,0,8.906,8.906,0,0,1,4.868,2.2l.005,0A9.552,9.552,0,0,1,435.807,57.2Z" fill="#1a1311"/><path d="M426.21,39.792a3.4,3.4,0,0,0-3.352,3.448l0,.1a3.374,3.374,0,1,0,3.349-3.546" fill="#dc000c"/><path d="M426.231,39.195a3.971,3.971,0,0,1,.2,7.937c-.068,0-.137.005-.205.005a3.968,3.968,0,0,1-3.963-3.769s0-.008,0-.012l0-.1s0-.007,0-.01A4,4,0,0,1,426.2,39.2Zm0,6.749c.048,0,.1,0,.144,0a2.777,2.777,0,0,0-.142-5.551h-.017a2.806,2.806,0,0,0-2.759,2.838l0,.086A2.775,2.775,0,0,0,426.228,45.943Z" fill="#1a1311"/><path d="M418.291,37.544a3.327,3.327,0,0,1,3.424,3.227c0,.089,0,.178,0,.266a3.524,3.524,0,0,1-3.52,3.172,3.256,3.256,0,0,1-3.2-3.313v-.008a3.314,3.314,0,0,1,3.283-3.345h.017" fill="#dc000c"/><path d="M418.391,36.946a3.924,3.924,0,0,1,3.921,3.808c0,.106,0,.209,0,.311q0,.016,0,.032a4.108,4.108,0,0,1-4.1,3.709h-.024a3.858,3.858,0,0,1-3.787-3.915h0a3.916,3.916,0,0,1,3.875-3.943h.12Zm2.726,4.048c0-.069,0-.14,0-.209a2.716,2.716,0,0,0-2.81-2.644h-.03a2.72,2.72,0,0,0-2.69,2.741s0,0,0,.006V40.9s0,.007,0,.01a2.663,2.663,0,0,0,2.609,2.706h.008A2.917,2.917,0,0,0,421.116,40.994Z" fill="#1a1311"/><path d="M403.83,41.515a.715.715,0,0,1,.576-1.1,46.331,46.331,0,0,0,8.188-1.249c.661-.195,1.059.249.975.748-.373,2.283.031,3.342,2.076,5.07.448.381.592.565.511.9a13.182,13.182,0,0,0-.327,2.929.147.147,0,0,0,.255.068c.408-.553,7.2-3.8,9.974,1.668,2.283,4.512-2.931,9.818-8.07,8.043-.1-.036-.225-.071-.2.1s2.917,7.509,4.825,10.021c.147.195.291,1.12-.434,1.12a35.24,35.24,0,0,0-15.4,2.893.678.678,0,0,1-.948-.846,27.269,27.269,0,0,0,2.6-16.508,38.993,38.993,0,0,0-4.6-13.858" fill="#dc000c"/><path d="M412.9,38.522a1.262,1.262,0,0,1,.984.439,1.29,1.29,0,0,1,.275,1.052c-.342,2.095.008,2.939,1.873,4.515a1.444,1.444,0,0,1,.707,1.491,12.623,12.623,0,0,0-.281,1.9,9.669,9.669,0,0,1,1.032-.449,10.189,10.189,0,0,1,3.447-.651,6,6,0,0,1,5.655,3.455,5.8,5.8,0,0,1-.328,5.762,7.415,7.415,0,0,1-2.591,2.51,7.2,7.2,0,0,1-3.608.989,6.883,6.883,0,0,1-1.371-.138c.814,2.046,2.928,7.017,4.4,8.95a1.564,1.564,0,0,1,.1,1.477,1.086,1.086,0,0,1-1.014.6h-.023c-.443-.017-.893-.026-1.337-.026a34.441,34.441,0,0,0-13.79,2.862,1.275,1.275,0,0,1-1.759-1.6q.01-.026.023-.05a26.518,26.518,0,0,0,2.538-16.147l0-.014a38.227,38.227,0,0,0-4.514-13.632,1.312,1.312,0,0,1,1.059-2,45.855,45.855,0,0,0,8.065-1.23A1.67,1.67,0,0,1,412.9,38.522Zm2.677,7.22a2.27,2.27,0,0,0-.318-.3c-2.179-1.841-2.69-3.1-2.278-5.621a.116.116,0,0,0-.009-.086.114.114,0,0,0-.072-.016.5.5,0,0,0-.136.023l-.027.007a47.058,47.058,0,0,1-8.293,1.265.154.154,0,0,0-.074.019.12.12,0,0,0-.035.165l.017.029a39.417,39.417,0,0,1,4.66,14.062,27.866,27.866,0,0,1-2.634,16.825.081.081,0,0,0,.008.052.082.082,0,0,0,.072.044.077.077,0,0,0,.037-.009l.041-.02a35.627,35.627,0,0,1,14.283-2.969c.437,0,.879.008,1.316.024a.619.619,0,0,0-.023-.193c-1.887-2.513-4.858-9.868-4.915-10.263a.7.7,0,0,1,.155-.584.664.664,0,0,1,.511-.229.94.94,0,0,1,.323.063,5.747,5.747,0,0,0,1.877.317,6.223,6.223,0,0,0,5.183-2.93,4.632,4.632,0,0,0,.28-4.6,4.81,4.81,0,0,0-4.59-2.8,8.743,8.743,0,0,0-4.392,1.244l0,0a.748.748,0,0,1-.411.247l-.018,0a.745.745,0,0,1-.868-.586.6.6,0,0,1-.012-.116,13.8,13.8,0,0,1,.342-3.062l0-.008Z" fill="#1a1311"/><path d="M392.869,49.22a.783.783,0,0,1,.751-1.2,59.157,59.157,0,0,0,9.4-1.236.7.7,0,0,1,.862,1.009c-.487.855-.942,3.673-1.126,6.219-.187,2.607-.928,8.274-2.322,11.462a20.5,20.5,0,0,1-8.539,9.778.866.866,0,0,1-.825.037,62.921,62.921,0,0,0-10.18-3.174c-.486-.089-.741-1,.1-1.4,1.7-.808,8.539-3.036,11.386-8.465s.877-12.235.486-13.036" fill="#dc000c"/><path d="M403.281,46.136a1.3,1.3,0,0,1,1.117,1.957,21.6,21.6,0,0,0-1.047,5.962c-.185,2.579-.918,8.333-2.368,11.654A21.1,21.1,0,0,1,392.2,75.766a1.463,1.463,0,0,1-1.369.07A62.5,62.5,0,0,0,380.77,72.7a1.188,1.188,0,0,1-.914-1.042,1.423,1.423,0,0,1,.878-1.482c.235-.112.544-.241.936-.405,2.533-1.061,7.8-3.269,10.178-7.8a14.99,14.99,0,0,0,1.394-7.929,17.078,17.078,0,0,0-.9-4.539,1.38,1.38,0,0,1,1.289-2.083,58.735,58.735,0,0,0,9.22-1.212A1.291,1.291,0,0,1,403.281,46.136ZM391.448,74.779a.269.269,0,0,0,.139-.039l.006,0a20.027,20.027,0,0,0,8.29-9.493l0-.009c1.286-2.941,2.064-8.349,2.274-11.266.174-2.405.624-5.456,1.2-6.472l.007-.012a.1.1,0,0,0,.007-.09.1.1,0,0,0-.135-.058.6.6,0,0,1-.1.03,59.933,59.933,0,0,1-9.495,1.248.6.6,0,0,1-.1,0,.19.19,0,0,0-.124.028.187.187,0,0,0-.055.257.6.6,0,0,1,.034.06,17.514,17.514,0,0,1,1.027,5,16.173,16.173,0,0,1-1.527,8.572,15.413,15.413,0,0,1-5.428,5.634,33.033,33.033,0,0,1-5.346,2.71c-.362.152-.675.283-.884.382-.068.033-.186.1-.206.2a.147.147,0,0,0,.009.086,63.7,63.7,0,0,1,10.246,3.2l.035.016A.269.269,0,0,0,391.448,74.779Z" fill="#1a1311"/><path d="M379.947,47.534c-.067-.22-.064-.94.637-.955a53.109,53.109,0,0,0,11.03-.861c1.147-.232,1.122.691.9.957-.165.187-3.016,2.323-2.751,7.939a13.3,13.3,0,0,0,1.684,5.994c.338.876.345,1.312-.657,1.4a32.258,32.258,0,0,0-9.58,2.461.679.679,0,0,1-.931-.9c.516-1.231,2.677-3.8,2.023-8.39-.583-4.083-1.91-6.091-2.359-7.642" fill="#dc000c"/><path d="M391.951,45.084a1.217,1.217,0,0,1,1.167.672,1.276,1.276,0,0,1-.145,1.3l-.011.012a1.556,1.556,0,0,1-.123.119c-1.749,1.594-2.63,4.221-2.48,7.4v.006a12.757,12.757,0,0,0,1.608,5.725.6.6,0,0,1,.036.077A1.812,1.812,0,0,1,392.087,62a1.551,1.551,0,0,1-1.242.6,31.615,31.615,0,0,0-9.379,2.406,1.276,1.276,0,0,1-1.731-1.687c.109-.256.268-.543.453-.874a10.622,10.622,0,0,0,1.523-7.184,22.16,22.16,0,0,0-1.726-5.961,15.371,15.371,0,0,1-.611-1.6,1.5,1.5,0,0,1,.2-1.229,1.223,1.223,0,0,1,.995-.493h.029c.461.012.929.018,1.39.018a52.663,52.663,0,0,0,9.512-.869A2.308,2.308,0,0,1,391.951,45.084Zm.087,1.2a.438.438,0,0,0-.087-.007,1.127,1.127,0,0,0-.219.025l-.01,0a53.86,53.86,0,0,1-9.733.89c-.466,0-.938-.006-1.4-.018a.222.222,0,0,0-.046.006.382.382,0,0,0-.019.185h0a14.568,14.568,0,0,0,.566,1.476,23.215,23.215,0,0,1,1.807,6.256,11.691,11.691,0,0,1-1.661,7.932c-.171.308-.319.574-.4.773q-.008.018-.017.036a.079.079,0,0,0,0,.073.083.083,0,0,0,.073.046.078.078,0,0,0,.038-.01l.049-.024a32.814,32.814,0,0,1,9.757-2.507,1.443,1.443,0,0,0,.321-.058,2.331,2.331,0,0,0-.148-.5,13.958,13.958,0,0,1-1.738-6.222c-.166-3.536.852-6.5,2.868-8.333h0A.176.176,0,0,0,392.038,46.285Z" fill="#1a1311"/><path d="M371.494,42.389a.683.683,0,0,1,1.248.027,15.549,15.549,0,0,0,5.943,8.137s1.151.676.175,1.351c0,0-3.724,1.4-5.862,2.5,0,0-3.951,1.927-5.131,3.7a2.17,2.17,0,0,0,.228,3.06q.054.046.111.09a12.945,12.945,0,0,0,4.849,2.434,46.451,46.451,0,0,0,5.6,1.366.685.685,0,0,1,.1,1.263,10.777,10.777,0,0,0-3.906,2.52s-3.7,3.1-4.339,6.926c-.061.445-.783,1.091-1.4.021,0,0-3.888-8.3-7.449-12.563,0,0-1.425-1.612-1.8-2.1a3.761,3.761,0,0,1-.673-2.622,2.919,2.919,0,0,1,1.575-2.1,29.219,29.219,0,0,0,6.816-7.192,60.164,60.164,0,0,0,3.909-6.831" fill="#dc000c"/><path d="M372.112,41.4a1.281,1.281,0,0,1,1.181.787q.011.026.019.053a15.024,15.024,0,0,0,5.7,7.813,1.664,1.664,0,0,1,.838,1.226A1.282,1.282,0,0,1,379.2,52.4a.6.6,0,0,1-.129.068c-.037.014-3.717,1.4-5.8,2.472l-.011.006c-1.059.517-4,2.152-4.9,3.494a.6.6,0,0,1-.045.059,1.573,1.573,0,0,0,.165,2.218c.027.023.055.046.084.068l.012.009a12.268,12.268,0,0,0,4.625,2.322l.027.008a46.028,46.028,0,0,0,5.528,1.348.6.6,0,0,1,.078.019,1.282,1.282,0,0,1,.188,2.363.591.591,0,0,1-.063.028,10.249,10.249,0,0,0-3.69,2.38q-.02.02-.041.038c-.035.029-3.535,3.006-4.132,6.56a1.315,1.315,0,0,1-1.245,1.11,1.464,1.464,0,0,1-1.263-.882q-.013-.022-.023-.045c-.039-.082-3.893-8.272-7.361-12.427-.112-.127-1.446-1.637-1.82-2.125l-.013-.017a4.348,4.348,0,0,1-.78-3.038q0-.018.005-.036a3.531,3.531,0,0,1,1.846-2.5,28.549,28.549,0,0,0,6.636-7.014,59.805,59.805,0,0,0,3.874-6.746A1.287,1.287,0,0,1,372.112,41.4Zm.072,1.233a.088.088,0,0,0-.072-.039.086.086,0,0,0-.078.05l0,.008a61.006,61.006,0,0,1-3.954,6.886,29.741,29.741,0,0,1-6.956,7.34.6.6,0,0,1-.092.057,2.331,2.331,0,0,0-1.25,1.653,3.157,3.157,0,0,0,.562,2.179c.368.477,1.753,2.044,1.767,2.06l.011.013c3.507,4.2,7.239,12.07,7.52,12.668a.743.743,0,0,0,.215.258.217.217,0,0,0,.065-.087l0-.012c.649-3.884,4.177-6.972,4.522-7.267a11.453,11.453,0,0,1,4.056-2.623.088.088,0,0,0,.029-.042.086.086,0,0,0-.005-.067.087.087,0,0,0-.032-.035,47.235,47.235,0,0,1-5.6-1.369,13.454,13.454,0,0,1-5.054-2.539c-.045-.034-.089-.071-.132-.107a2.767,2.767,0,0,1-.315-3.874c1.264-1.858,5.1-3.756,5.34-3.872,2-1.028,5.283-2.284,5.843-2.5a.52.52,0,0,0,.071-.066.943.943,0,0,0-.261-.24l-.04-.025A16.223,16.223,0,0,1,372.184,42.633Z" fill="#1a1311"/><path d="M346.812,64.421s-.615-.9.359-1.215c0,0,.855-.1,1.752-.254,0,0,4.512-.9,5.71-1.2a5.978,5.978,0,0,1,3.4.543,7.493,7.493,0,0,1,3.9,3.952,7.68,7.68,0,0,1,.55,4.062s-.165,3.343-4.569,5.559a26.547,26.547,0,0,1-2.859,1.019.813.813,0,0,1-.916-.346,12.139,12.139,0,0,0-2.694-4.312.658.658,0,0,1,.386-1.107,4.705,4.705,0,0,1,.721-.049,8.083,8.083,0,0,0,3.625-.958,1.1,1.1,0,0,0,.045-2.007,3.068,3.068,0,0,0-1.828-.387,5.832,5.832,0,0,0-3.61,1.558s-1.32,1.105-1.708,1.509c0,0-.943.419-1-.567,0,0,.136-3.615-1.257-5.8" fill="#dc000c"/><path d="M355.43,61.1a6.611,6.611,0,0,1,2.852.651,8.057,8.057,0,0,1,4.2,4.262,8.276,8.276,0,0,1,.594,4.354c-.028.382-.406,3.774-4.895,6.032l-.036.017a27.254,27.254,0,0,1-2.923,1.042,1.41,1.41,0,0,1-1.589-.6.6.6,0,0,1-.057-.116,11.465,11.465,0,0,0-2.562-4.1,1.255,1.255,0,0,1,.036-1.776,1.265,1.265,0,0,1,.7-.337,5.3,5.3,0,0,1,.763-.055h.034a7.522,7.522,0,0,0,3.349-.887l.05-.024a.5.5,0,0,0,.021-.918l-.04-.021a2.484,2.484,0,0,0-1.472-.312l-.022,0a5.249,5.249,0,0,0-3.241,1.4l-.024.021c-.36.3-1.361,1.153-1.661,1.465a.6.6,0,0,1-.188.132,1.752,1.752,0,0,1-.662.14,1.166,1.166,0,0,1-1.176-1.218h0c0-.032,0-.06,0-.083.01-.828-.045-3.663-1.167-5.425a1.568,1.568,0,0,1-.225-1.3,1.3,1.3,0,0,1,.9-.808.6.6,0,0,1,.111-.025c.008,0,.848-.1,1.717-.249.231-.046,4.528-.905,5.672-1.192a.6.6,0,0,1,.066-.013A6.613,6.613,0,0,1,355.43,61.1Zm2.233,14.224a8.167,8.167,0,0,0,3.627-3.288,4.725,4.725,0,0,0,.6-1.762c0-.017,0-.03,0-.047a7.085,7.085,0,0,0-.507-3.746,6.87,6.87,0,0,0-3.591-3.64l-.021-.01a5.426,5.426,0,0,0-3.029-.493c-1.244.308-5.521,1.161-5.7,1.2l-.019,0c-.768.128-1.494.222-1.712.249a.369.369,0,0,0-.092.048.6.6,0,0,0,.088.245l.01.015c1.3,2.04,1.369,5.175,1.358,6.088V70.2a.61.61,0,0,0,.01.078.519.519,0,0,0,.07-.012c.468-.454,1.5-1.323,1.635-1.435a6.446,6.446,0,0,1,3.957-1.706c.118-.012.238-.017.357-.017a3.67,3.67,0,0,1,1.8.471,1.7,1.7,0,0,1-.063,3.074,8.722,8.722,0,0,1-3.87,1.017h-.055a4.115,4.115,0,0,0-.594.043.069.069,0,0,0-.039.017.059.059,0,0,0-.019.043.059.059,0,0,0,.017.043,12.645,12.645,0,0,1,2.795,4.441.217.217,0,0,0,.216.057A26.057,26.057,0,0,0,357.663,75.326Z" fill="#1a1311"/><path d="M321.181,41.692a.753.753,0,0,1,.808-.067s3.531,2.814,10.022,2.563a32.624,32.624,0,0,0,8.342-1.321c1.023-.33,1.194.78.823,1.048a24.864,24.864,0,0,0-2.622,2.125s-2.946,2.394-5.344,7.915a22.685,22.685,0,0,0-1.674,6.691s-.2,2.719.951,3.694c0,0,.621.877,2.6.336a4.9,4.9,0,0,0,3.447-3.6,12,12,0,0,0-.149-5.443,30.356,30.356,0,0,0-1.875-5.344s-.52-1.449.925-1.05a7.3,7.3,0,0,0,3.1,1.225s5.721.822,8.366.125a31.515,31.515,0,0,0,3.82-1.275s1.272-.4,1,.822a15.036,15.036,0,0,0-1.7,5.547s.02,3.388.523,4.447c0,0,.474,1.542-1.273.846,0,0-6.015-2.82-6.791-3.172,0,0-.126,0-.126.1s1.273,4.9.027,8.717a10.617,10.617,0,0,1-6.271,7.3,12.772,12.772,0,0,1-7.639.171,9.568,9.568,0,0,1-6.27-7.316,18.094,18.094,0,0,1,1.623-10.636s2.2-4.167,2.373-4.545c0,0,.073-.2-.174-.128a23.567,23.567,0,0,0-4.446,3.571c-.266.318-1.308.591-1.206-.544.036-.349.7-2.418-.653-9.628,0,0-.636-2.293-.684-2.445a.755.755,0,0,1,.152-.719" fill="#dc000c"/><path d="M321.637,40.941a1.354,1.354,0,0,1,.631.156.6.6,0,0,1,.093.061,10.365,10.365,0,0,0,2.27,1.225,17.344,17.344,0,0,0,6.564,1.224c.261,0,.528-.005.792-.015h.007a32.041,32.041,0,0,0,8.183-1.295,1.74,1.74,0,0,1,.526-.087,1.206,1.206,0,0,1,1.183.854,1.194,1.194,0,0,1-.361,1.336l-.006,0a24.35,24.35,0,0,0-2.559,2.074l-.03.026a14.2,14.2,0,0,0-1.894,2.07,2.325,2.325,0,0,1,.553.09.6.6,0,0,1,.181.085,6.74,6.74,0,0,0,2.847,1.125,44.078,44.078,0,0,0,5.331.4,11.623,11.623,0,0,0,2.8-.261,31.029,31.029,0,0,0,3.747-1.251l.046-.016a2.156,2.156,0,0,1,.6-.09,1.174,1.174,0,0,1,.968.416,1.362,1.362,0,0,1,.192,1.2.6.6,0,0,1-.056.152,14.368,14.368,0,0,0-1.624,5.295,15.493,15.493,0,0,0,.465,4.162.593.593,0,0,1,.031.081,1.639,1.639,0,0,1-.147,1.361,1.13,1.13,0,0,1-.941.438,2.678,2.678,0,0,1-.977-.223l-.032-.014c-.049-.023-3.991-1.871-5.879-2.75a16.863,16.863,0,0,1-.183,8.018,11.249,11.249,0,0,1-6.618,7.688l-.036.014a13.369,13.369,0,0,1-8,.179l-.03-.01a10.183,10.183,0,0,1-6.661-7.772l0-.018a18.611,18.611,0,0,1,1.677-10.987l.009-.017c.449-.85,1.021-1.937,1.49-2.834a22.982,22.982,0,0,0-2.769,2.415,1.53,1.53,0,0,1-1.1.471,1.116,1.116,0,0,1-.838-.352,1.407,1.407,0,0,1-.305-1.12v-.008c.006-.057.017-.115.032-.2.352-1.881.126-4.988-.673-9.236-.243-.875-.633-2.276-.671-2.4a1.361,1.361,0,0,1,.264-1.3.6.6,0,0,1,.089-.084A1.356,1.356,0,0,1,321.637,40.941Zm.043,1.2a.143.143,0,0,0-.08,0,.161.161,0,0,0,0,.1l0,0c.049.154.583,2.081.69,2.465q.007.024.011.049c.83,4.406,1.058,7.67.678,9.7-.007.036-.015.081-.018.1a.83.83,0,0,0,0,.159.419.419,0,0,0,.161-.067l.024-.026a24.189,24.189,0,0,1,4.559-3.661.6.6,0,0,1,.148-.066.917.917,0,0,1,.259-.039.679.679,0,0,1,.567.287.719.719,0,0,1,.076.659q-.008.022-.018.044c-.174.38-2.137,4.1-2.383,4.567a17.422,17.422,0,0,0-1.567,10.267,8.987,8.987,0,0,0,5.862,6.845,12.175,12.175,0,0,0,7.248-.161,10.052,10.052,0,0,0,5.9-6.882q.005-.022.012-.044a16.368,16.368,0,0,0-.012-8.257,1.155,1.155,0,0,1-.044-.274.7.7,0,0,1,.723-.7.6.6,0,0,1,.247.053c.758.344,6.362,2.971,6.781,3.167a1.632,1.632,0,0,0,.5.131.991.991,0,0,0-.025-.225,17.25,17.25,0,0,1-.557-4.648.6.6,0,0,1,0-.065,15.556,15.556,0,0,1,1.72-5.687.772.772,0,0,0,.009-.086h-.018a1,1,0,0,0-.229.031,32.228,32.228,0,0,1-3.862,1.287,12.739,12.739,0,0,1-3.1.3,44.443,44.443,0,0,1-5.5-.411,7.946,7.946,0,0,1-3.264-1.263,1.006,1.006,0,0,0-.171-.025,1.158,1.158,0,0,0,.05.3,31.029,31.029,0,0,1,1.9,5.418,12.668,12.668,0,0,1,.155,5.71l0,.017a5.5,5.5,0,0,1-3.867,4.039,5.115,5.115,0,0,1-1.341.2,2.372,2.372,0,0,1-1.842-.689c-1.3-1.159-1.142-3.852-1.12-4.158v-.011a23.258,23.258,0,0,1,1.718-6.867l0-.007a22.559,22.559,0,0,1,5.5-8.127,25.556,25.556,0,0,1,2.6-2.112.155.155,0,0,0-.019-.072.386.386,0,0,0-.2.028l-.014,0a33.236,33.236,0,0,1-8.492,1.345c-.278.011-.559.016-.834.016A16.254,16.254,0,0,1,321.681,42.141Zm16.265,18.807a11.468,11.468,0,0,0-.143-5.164l0-.007a29.835,29.835,0,0,0-1.838-5.239q-.011-.023-.019-.048a2.185,2.185,0,0,1-.075-.266,27.573,27.573,0,0,0-2.109,3.965,22.063,22.063,0,0,0-1.628,6.505c-.044.633,0,2.559.742,3.19a.33.33,0,0,1,.095.1,1.3,1.3,0,0,0,.934.272,3.924,3.924,0,0,0,1.022-.155A4.3,4.3,0,0,0,337.946,60.948Z" fill="#1a1311"/><path d="M360.12,40.723c-.6.271-1.416-.064-1.287-.777.473-2.592,3.346-9.7,6.766-12.5a3.946,3.946,0,0,1,4.869-.51c1.029.783,1.516,1.848.961,3.931-.924,3.5-7.943,8.318-11.309,9.853" fill="#008132"/><path d="M350.869,37.309c-.928.235-1.476.025-1.4-.95.114-1.519,3.556-10.193,7.114-12.574a3.918,3.918,0,0,1,4.5-.25c1.249.9,1.41,2.118.973,3.846-.948,3.775-9.89,9.6-11.185,9.928" fill="#008132"/><path d="M355.736,40.793a3.835,3.835,0,0,1,3.9,3.769c0,.042,0,.083,0,.125a3.92,3.92,0,1,1-3.946-3.894h.046" fill="#dc000c"/><path d="M346.621,37.22a3.859,3.859,0,1,1-3.993,4V41.19a3.887,3.887,0,0,1,3.8-3.971c.064,0,.128,0,.192,0" fill="#dc000c"/><path d="M481.347,53.336a.74.74,0,0,1,1.137-.658,25.516,25.516,0,0,0,8.471,2.1,30.509,30.509,0,0,0,8.077-.744c.825-.173,1.155.209,1.074.618a24.653,24.653,0,0,0-.966,4.758,14.991,14.991,0,0,0,.3,3.891c.123.513-.293.861-.861.751-1.011-.2-3.324-2.131-8.276-2.587a13.548,13.548,0,0,0-8.052,1.431c-.669.257-1.164-.006-1.126-.64s.39-3.484.411-4.534a33.467,33.467,0,0,0-.186-4.386" fill="#ffc400"/><path d="M458.722,44.062c-.186-.532.185-.985.805-.892a28.97,28.97,0,0,0,6.938.941,26,26,0,0,0,6.4-.359.59.59,0,0,1,.744.784,38.893,38.893,0,0,0-2,3.522c-.036.087,0,.312.321.229,1.39-.364,3.367-1.516,3.918-1.668.437-.12.948.141.815.684a11.043,11.043,0,0,0-.393,3.724,23.042,23.042,0,0,0,.686,3.588c.031.675-.365.97-.975.783a19.846,19.846,0,0,0-5.388-.844c-.083.008-.154.028-.158.148,0,.148.052,2.061.087,2.353.011.11.012.158.318.158a16.185,16.185,0,0,0,6.694-.981c1.1-.429,1.4.186,1.411.549a36.157,36.157,0,0,0,.006,4.059,10.057,10.057,0,0,0,1.4,4.374c.342.528-.278,1.414-.867.984a14.1,14.1,0,0,0-8-2.509c-.275-.006-.207.141-.192.252a30.368,30.368,0,0,0,1.164,4.243,26.96,26.96,0,0,0,2.05,4.6c.306.571-.15,1.345-1.1.9s-1.74-1.175-6.227-1.614a33.951,33.951,0,0,0-5.908.363c-.63.114-1.2-.366-.922-.975a28.829,28.829,0,0,0,1.87-6.565c.014-.1.126-.3-.249-.2a26.134,26.134,0,0,0-4.572,2.821.681.681,0,0,1-1.146-.525,24.007,24.007,0,0,0-.225-5.068c-.25-1.6-1.023-3.574-1.176-4.3a.645.645,0,0,1,.649-.849,43.433,43.433,0,0,0,6.822.276c.1-.027.11-.028.121-.175a11.2,11.2,0,0,0-.073-2.3c-.048-.186-.126-.2-.3-.174a33.822,33.822,0,0,0-4.3,1.073c-.576.252-1.018-.054-1.05-.425-.043-.474-.432-2.5-.62-3.346-.523-2.362-1.042-3.283-1.2-4.347-.1-.617.264-.78.771-.772a44.784,44.784,0,0,0,5.019,1.924c.386.123.441.038.352-.2a22.786,22.786,0,0,0-2.323-4.243" fill="#ffc400"/><path d="M426.537,62.1a.67.67,0,0,1,.561-1.072,22.631,22.631,0,0,0,12.8-2.6,25.039,25.039,0,0,0,9.163-8.939.685.685,0,0,1,1.274.348,11.184,11.184,0,0,0,1.3,5.893,11.753,11.753,0,0,0,2.47,3.723c.537.642.2,1.18-.323,1.221-4.465.373-6.334,1.3-10.636,3.423-4.12,2.034-7.7,5.619-10.771,8.65a.652.652,0,0,1-1.146-.486,10.14,10.14,0,0,0-1.156-5.329,18.719,18.719,0,0,0-3.531-4.827" fill="#ffc400"/><path d="M427.983,50.693a.631.631,0,0,1-.3-1.2,23.263,23.263,0,0,0,3.882-3.3,27.358,27.358,0,0,0,2.688-3.925.7.7,0,0,1,1.315.169,23.783,23.783,0,0,0,2.623,5.212,15.09,15.09,0,0,0,4.9,4.227.713.713,0,0,1,.2.988.706.706,0,0,1-.329.269,12.376,12.376,0,0,0-3.442,1.705,20.066,20.066,0,0,0-3.126,2.878.72.72,0,0,1-1.016-.072.712.712,0,0,1-.155-.3,9,9,0,0,0-2.7-4.6,8.349,8.349,0,0,0-4.548-2.053" fill="#ffc400"/><path d="M426.21,39.792a3.4,3.4,0,0,0-3.352,3.448l0,.1a3.374,3.374,0,1,0,3.349-3.546" fill="#ffc400"/><path d="M418.291,37.544a3.327,3.327,0,0,1,3.424,3.227c0,.089,0,.178,0,.266a3.524,3.524,0,0,1-3.52,3.172,3.256,3.256,0,0,1-3.2-3.313v-.008a3.314,3.314,0,0,1,3.283-3.345h.017" fill="#ffc400"/><path d="M403.83,41.515a.715.715,0,0,1,.576-1.1,46.331,46.331,0,0,0,8.188-1.249c.661-.195,1.059.249.975.748-.373,2.283.031,3.342,2.076,5.07.448.381.592.565.511.9a13.182,13.182,0,0,0-.327,2.929.147.147,0,0,0,.255.068c.408-.553,7.2-3.8,9.974,1.668,2.283,4.512-2.931,9.818-8.07,8.043-.1-.036-.225-.071-.2.1s2.917,7.509,4.825,10.021c.147.195.291,1.12-.434,1.12a35.24,35.24,0,0,0-15.4,2.893.678.678,0,0,1-.948-.846,27.269,27.269,0,0,0,2.6-16.508,38.993,38.993,0,0,0-4.6-13.858" fill="#ffc400"/><path d="M392.869,49.22a.783.783,0,0,1,.751-1.2,59.157,59.157,0,0,0,9.4-1.236.7.7,0,0,1,.862,1.009c-.487.855-.942,3.673-1.126,6.219-.187,2.607-.928,8.274-2.322,11.462a20.5,20.5,0,0,1-8.539,9.778.866.866,0,0,1-.825.037,62.921,62.921,0,0,0-10.18-3.174c-.486-.089-.741-1,.1-1.4,1.7-.808,8.539-3.036,11.386-8.465s.877-12.235.486-13.036" fill="#ffc400"/><path d="M379.947,47.534c-.067-.22-.064-.94.637-.955a53.109,53.109,0,0,0,11.03-.861c1.147-.232,1.122.691.9.957-.165.187-3.016,2.323-2.751,7.939a13.3,13.3,0,0,0,1.684,5.994c.338.876.345,1.312-.657,1.4a32.258,32.258,0,0,0-9.58,2.461.679.679,0,0,1-.931-.9c.516-1.231,2.677-3.8,2.023-8.39-.583-4.083-1.91-6.091-2.359-7.642" fill="#ffc400"/><path d="M371.494,42.389a.683.683,0,0,1,1.248.027,15.549,15.549,0,0,0,5.943,8.137s1.151.676.175,1.351c0,0-3.724,1.4-5.862,2.5,0,0-3.951,1.927-5.131,3.7a2.17,2.17,0,0,0,.228,3.06q.054.046.111.09a12.945,12.945,0,0,0,4.849,2.434,46.451,46.451,0,0,0,5.6,1.366.685.685,0,0,1,.1,1.263,10.777,10.777,0,0,0-3.906,2.52s-3.7,3.1-4.339,6.926c-.061.445-.783,1.091-1.4.021,0,0-3.888-8.3-7.449-12.563,0,0-1.425-1.612-1.8-2.1a3.761,3.761,0,0,1-.673-2.622,2.919,2.919,0,0,1,1.575-2.1,29.219,29.219,0,0,0,6.816-7.192,60.164,60.164,0,0,0,3.909-6.831" fill="#ffc400"/><path d="M346.812,64.421s-.615-.9.359-1.215c0,0,.855-.1,1.752-.254,0,0,4.512-.9,5.71-1.2a5.978,5.978,0,0,1,3.4.543,7.493,7.493,0,0,1,3.9,3.952,7.68,7.68,0,0,1,.55,4.062s-.165,3.343-4.569,5.559a26.547,26.547,0,0,1-2.859,1.019.813.813,0,0,1-.916-.346,12.139,12.139,0,0,0-2.694-4.312.658.658,0,0,1,.386-1.107,4.705,4.705,0,0,1,.721-.049,8.083,8.083,0,0,0,3.625-.958,1.1,1.1,0,0,0,.045-2.007,3.068,3.068,0,0,0-1.828-.387,5.832,5.832,0,0,0-3.61,1.558s-1.32,1.105-1.708,1.509c0,0-.943.419-1-.567,0,0,.136-3.615-1.257-5.8" fill="#ffc400"/><path d="M321.181,41.692a.753.753,0,0,1,.808-.067s3.531,2.814,10.022,2.563a32.624,32.624,0,0,0,8.342-1.321c1.023-.33,1.194.78.823,1.048a24.864,24.864,0,0,0-2.622,2.125s-2.946,2.394-5.344,7.915a22.685,22.685,0,0,0-1.674,6.691s-.2,2.719.951,3.694c0,0,.621.877,2.6.336a4.9,4.9,0,0,0,3.447-3.6,12,12,0,0,0-.149-5.443,30.356,30.356,0,0,0-1.875-5.344s-.52-1.449.925-1.05a7.3,7.3,0,0,0,3.1,1.225s5.721.822,8.366.125a31.515,31.515,0,0,0,3.82-1.275s1.272-.4,1,.822a15.036,15.036,0,0,0-1.7,5.547s.02,3.388.523,4.447c0,0,.474,1.542-1.273.846,0,0-6.015-2.82-6.791-3.172,0,0-.126,0-.126.1s1.273,4.9.027,8.717a10.617,10.617,0,0,1-6.271,7.3,12.772,12.772,0,0,1-7.639.171,9.568,9.568,0,0,1-6.27-7.316,18.094,18.094,0,0,1,1.623-10.636s2.2-4.167,2.373-4.545c0,0,.073-.2-.174-.128a23.567,23.567,0,0,0-4.446,3.571c-.266.318-1.308.591-1.206-.544.036-.349.7-2.418-.653-9.628,0,0-.636-2.293-.684-2.445a.755.755,0,0,1,.152-.719" fill="#ffc400"/><path d="M496.632,48.571h0a4.005,4.005,0,1,1,4.007-4A4.009,4.009,0,0,1,496.63,48.571Zm0-6.476a2.471,2.471,0,0,0,0,4.941h0a2.471,2.471,0,0,0,0-4.941Z" fill="#1a1311"/><path d="M495.89,43.377h1.183a.913.913,0,0,1,.4.07.537.537,0,0,1,.276.525.561.561,0,0,1-.2.492A.973.973,0,0,1,497,44.6H495.89Zm0,3.165V45.005h1.1a1.039,1.039,0,0,1,.438.069.506.506,0,0,1,.259.469l.029.6a2.218,2.218,0,0,0,.026.282.51.51,0,0,0,.039.12h.6v-.083a.285.285,0,0,1-.156-.216,1.261,1.261,0,0,1-.033-.3l-.018-.483a.84.84,0,0,0-.119-.453.784.784,0,0,0-.316-.223.866.866,0,0,0,.5-.855.851.851,0,0,0-.5-.849,1.711,1.711,0,0,0-.675-.117H495.4v3.582Z" fill="#dc000c"/><path d="M497.116,42.368a2.3,2.3,0,0,1,.841.159l.027.011a1.61,1.61,0,0,1,.628,2.244,1.435,1.435,0,0,1,.16.674l.017.467q0,.014,0,.028a.68.68,0,0,0,0,.078.6.6,0,0,1,.185.432v.083a.6.6,0,0,1-.6.6h-.6a.6.6,0,0,1-.54-.341,1.1,1.1,0,0,1-.085-.261l0-.019a2.82,2.82,0,0,1-.033-.353l-.027-.565a.425.425,0,0,0-.066,0h-.539v.94a.6.6,0,0,1-.59.6l-.49.006a.6.6,0,0,1-.6-.6V42.966a.6.6,0,0,1,.6-.6h1.716Zm.036,1.606a.317.317,0,0,0-.049,0h-.616V44h.564a.387.387,0,0,0,.1-.013C497.152,43.985,497.152,43.98,497.152,43.975Z" fill="#1a1311"/><path d="M496.632,48.02h0a3.455,3.455,0,1,1,3.456-3.454A3.458,3.458,0,0,1,496.63,48.02Zm0-6.476a3.021,3.021,0,0,0,0,6.042h0a3.021,3.021,0,0,0,0-6.042Z" fill="#ffc400"/><path d="M495.89,43.377h1.183a.913.913,0,0,1,.4.07.537.537,0,0,1,.276.525.561.561,0,0,1-.2.492A.973.973,0,0,1,497,44.6H495.89Zm0,3.165V45.005h1.1a1.039,1.039,0,0,1,.438.069.506.506,0,0,1,.259.469l.029.6a2.218,2.218,0,0,0,.026.282.51.51,0,0,0,.039.12h.6v-.083a.285.285,0,0,1-.156-.216,1.261,1.261,0,0,1-.033-.3l-.018-.483a.84.84,0,0,0-.119-.453.784.784,0,0,0-.316-.223.866.866,0,0,0,.5-.855.851.851,0,0,0-.5-.849,1.711,1.711,0,0,0-.675-.117H495.4v3.582Z" fill="#ffc400"/><path d="M380.959,27.054s-2.065,3.685-4.137,5.022l2.184,1.759s3.586-3.426,4.332-5Z" fill="#1a1311"/><path d="M386.131,26.8l-2.143,1.623a31.14,31.14,0,0,1,3.555,4.458l2.349-1.767a21.282,21.282,0,0,0-3.76-4.314" fill="#1a1311"/><path d="M407.073,27.054s-2.064,3.685-4.129,5.022l2.182,1.759s3.574-3.426,4.338-5Z" fill="#1a1311"/><path d="M412.006,26.8l-2.149,1.623a31.456,31.456,0,0,1,3.562,4.458l2.356-1.767a21.412,21.412,0,0,0-3.769-4.314" fill="#1a1311"/><path d="M392.557,25.357l-1.92,1.834s2.218,2.464,2.373,2.808l2.114-1.951a21.266,21.266,0,0,0-2.566-2.691" fill="#1a1311"/><path d="M399.947,26.832s-4.657,4.639-9.113,6.73l1.87,2.211s5.934-3.612,8.594-6.511Z" fill="#1a1311"/><path d="M412.156,25.718l.907-.822a12.186,12.186,0,0,1,1.438,1.489l-.933.924a20.678,20.678,0,0,0-1.412-1.591" fill="#1a1311"/><path d="M414.485,24.021a5.593,5.593,0,0,1,1.455,1.423l-1.013.888a16.053,16.053,0,0,0-1.327-1.457c-.2-.085.885-.855.885-.855" fill="#1a1311"/><path d="M417.316,29.023s9.251-.582,11.2-.207l.054,2.811s-8.028-.309-11.1.327Z" fill="#1a1311"/><path d="M431.151,30.843a14.67,14.67,0,0,0,3.453-6.309l2.68.756-.333.8a7.327,7.327,0,0,0,2.242-.583l-.429-.858,1.164-.615,1.006,1.746-.567.447,1.07,1.147s-3.45,7.177-7.759,9.73l-2.1-1.8a21.349,21.349,0,0,0,6.319-6.985l-2.091.186s-1.986,3.36-2.524,3.6Z" fill="#1a1311"/><path d="M440.445,24.057l1.038-.549a6.2,6.2,0,0,1,1.043,1.816l-1.182.615a15.386,15.386,0,0,0-.9-1.882" fill="#1a1311"/><path d="M444.181,25.888v8.53l1.237,1.269s6.547-3.462,8.414-5.467l-.9-2.753s-3.84,3.493-6.051,4.384V25.857Z" fill="#1a1311"/><path d="M456.41,26.5s6.57-.408,7.264-.51l1.471,1.354-2.074,2.926,3.389,2.895L464.7,35.359a37.06,37.06,0,0,0-3.373-3.1,55.787,55.787,0,0,1-4.329,3.664l-1.909-1.8a18.2,18.2,0,0,0,5.79-5.4l-4.416.328Z" fill="#1a1311"/><path d="M468.814,24.9h2.833v4.761l.84-1.128s2.939,1.8,3.342,2.122l-1.467,2.229-2.715-1.956v5.638h-2.833Z" fill="#1a1311"/><path d="M478.74,25.252s5.269-.066,6.658-.526l.159,2.5a62.471,62.471,0,0,1-6.667.5Z" fill="#1a1311"/><path d="M477.567,28.543s7.1-.221,8.334-.531l1.329,1.425s-2.52,5.311-6.9,7.6L478.419,35a13.69,13.69,0,0,0,5.1-4.368l-5.813.432Z" fill="#1a1311"/><path d="M490.766,25.563l-1.989,1.9a18.891,18.891,0,0,1,2.407,2.74l2.1-1.95Z" fill="#1a1311"/><path d="M488.949,33.783s6.222-3.306,9.112-6.681l1.413,2.331s-6.37,5.772-8.572,6.576Z" fill="#1a1311"/></g></svg>