<?xml version="1.0" encoding="UTF-8" standalone="no"?>
<svg
   id="b"
   viewBox="0 0 196.07957 30.235001"
   version="1.1"
   sodipodi:docname="岩手銀行.svg"
   width="196.07957"
   height="30.235001"
   inkscape:version="1.1 (c68e22c387, 2021-05-23)"
   xmlns:inkscape="http://www.inkscape.org/namespaces/inkscape"
   xmlns:sodipodi="http://sodipodi.sourceforge.net/DTD/sodipodi-0.dtd"
   xmlns="http://www.w3.org/2000/svg"
   xmlns:svg="http://www.w3.org/2000/svg">
  <sodipodi:namedview
     id="namedview66"
     pagecolor="#ffffff"
     bordercolor="#666666"
     borderopacity="1.0"
     inkscape:pageshadow="2"
     inkscape:pageopacity="0.0"
     inkscape:pagecheckerboard="0"
     showgrid="false"
     fit-margin-top="0"
     fit-margin-left="0"
     fit-margin-right="0"
     fit-margin-bottom="0"
     inkscape:zoom="3.1160813"
     inkscape:cx="81.83355"
     inkscape:cy="-68.194625"
     inkscape:window-width="1920"
     inkscape:window-height="1057"
     inkscape:window-x="-8"
     inkscape:window-y="-8"
     inkscape:window-maximized="1"
     inkscape:current-layer="b" />
  <defs
     id="defs4">
    <style
       id="style2">.r{fill:#009844;}.s{fill:#37465a;}</style>
  </defs>
  <path
     id="d"
     class="r"
     d="m 19.36377,11.925 c -1.30005,1.242 -3.41699,1.242 -4.78296,1.242 -1.5459,0 -3.4939,-0.429 -4.284909,-1.242 l -2.5419902,8.3 c -0.29639,0.63202 -0.02441,1.38469 0.60767,1.68113 0.20483,0.09613 0.43188,0.13545 0.65723,0.11387 H 20.69288 c 0.69165,0.06698 1.3064,-0.43932 1.37354,-1.13086 0.02197,-0.22718 -0.01831,-0.45607 -0.11646,-0.66214 l -2.58618,-8.302 z" />
  <path
     id="e"
     class="r"
     d="m 168.5896,11.044 c 1.48608,0 3.55688,-1.442 6.52393,-4.544 0.49585,-0.46202 0.79663,-1.09579 0.84106,-1.772 0.002,-0.46975 -0.18408,-0.92077 -0.51611,-1.253 -0.35083,-0.34695 -0.82568,-0.53922 -1.31909,-0.534 -0.90991,0 -1.69189,0.712 -2.77295,1.7 -0.51611,0.471 -1.1001,1.005 -1.81812,1.575 -0.32202,0.254 -0.62598,0.477 -0.9209,0.694 -1.07104,0.784 -1.91602,1.4 -1.91602,2.437 4.9e-4,0.4306 0.17285,0.84319 0.479,1.146 0.38086,0.36537 0.8916,0.56369 1.41919,0.551 z m 8.08203,-0.953 c -0.36865,-0.36248 -0.86499,-0.56542 -1.38208,-0.565 -0.95093,0 -1.67603,0.8 -2.67896,1.9 -0.34497,0.38 -0.73608,0.808 -1.17993,1.252 -1.06006,1.05 -2.05811,1.872 -2.85889,2.531 -1.4751,1.213 -2.448,2.015 -2.448,3.076 0.001,0.45646 0.18506,0.89345 0.51001,1.214 0.37891,0.3702 0.88843,0.57609 1.41797,0.573 0.92114,-0.10083 1.78491,-0.49647 2.46289,-1.128 v 6.79 c 0.0146,0.40149 0.18848,0.78066 0.48291,1.054 0.44727,0.43316 1.04541,0.67556 1.66797,0.676 1.05078,0.0687 1.97607,-0.68593 2.12012,-1.729 V 15.062 c 1.48291,-1.53 2.3999,-2.7 2.3999,-3.743 -0.001,-0.45989 -0.18628,-0.9002 -0.51392,-1.223 v -0.005 z" />
  <path
     id="f"
     class="r"
     d="m 181.15186,6.738 c -0.39429,-0.0086 -0.7688,-0.17463 -1.04004,-0.461 -0.34863,-0.35355 -0.54395,-0.83041 -0.54297,-1.327 -4.9e-4,-0.49622 0.19458,-0.97264 0.54297,-1.326 0.271,-0.28665 0.64551,-0.45299 1.04004,-0.462 h 11.45508 c 0.39453,0.0091 0.7688,0.17545 1.04004,0.462 0.3479,0.3536 0.54297,0.82987 0.54297,1.326 0.0295,0.92137 -0.66479,1.70579 -1.58301,1.788 z" />
  <path
     id="g"
     class="r"
     d="m 195.51782,10.995 c -0.30811,-0.31855 -0.729,-0.50317 -1.17212,-0.514 h -15.01001 c -0.44189,0.01383 -0.86084,0.20097 -1.16602,0.521 -0.36255,0.35876 -0.5686,0.84604 -0.57397,1.356 0.008,0.49696 0.21118,0.97083 0.56494,1.32 0.30762,0.3226 0.72949,0.51149 1.17505,0.526 h 8.3999 v 9.14 c 0.003,0.09521 -0.0327,0.18759 -0.1001,0.255 -0.15039,0.11963 -0.34058,0.17755 -0.53198,0.162 -0.70264,-0.0224 -1.40039,-0.12643 -2.0791,-0.31 -0.55298,-0.129 -0.054,-0.121 -0.53394,-0.121 -0.55591,-0.0274 -1.09937,0.17011 -1.50806,0.548 -0.32275,0.33038 -0.49756,0.77738 -0.48511,1.239 -7.3e-4,0.49185 0.20166,0.9622 0.55908,1.3 0.82007,0.82 1.19995,0.73 3.50708,1.128 3.03003,0.52 5.12207,-0.629 5.12207,-3.7 v -9.64 h 2.65405 c 0.97852,-0.05426 1.74316,-0.86507 1.73999,-1.845 -9.8e-4,-0.51107 -0.20264,-1.00131 -0.56177,-1.365 z" />
  <path
     id="h"
     class="r"
     d="m 66.92079,7.174 c 0.69995,0 0.8689,-0.18 0.8689,-0.9 V 4.187 c 0.09595,-0.91347 0.88965,-1.59241 1.80688,-1.546 0.9248,-0.04793 1.72925,0.62698 1.84302,1.546 v 2.987 c 0,3.022 -0.72998,3.28 -3.75391,3.28 H 48.32069 c -2.573,0 -3.6499,-0.725 -3.6499,-3.28 V 4.26 c 0.09009,-0.92194 0.8811,-1.61525 1.80688,-1.584 0.91211,-0.02823 1.68164,0.67317 1.73804,1.584 v 2.014 c 0,0.72 0.27808,0.9 0.97412,0.9 h 6.91895 V 4.09 C 56.23451,3.14849 57.07387,2.46929 58.02089,2.543 58.96791,2.46929 59.80727,3.1485 59.933,4.09 v 3.083 z" />
  <path
     id="i"
     class="r"
     d="M 71.2079,11.7 H 44.808 c -0.87769,0.13486 -1.50366,0.92252 -1.43701,1.808 -0.0647,0.89181 0.55615,1.6878 1.43701,1.842 h 0.84009 c 0.14868,1.97823 0.04395,3.96737 -0.31201,5.919 -0.48169,0.99303 -1.04272,1.94548 -1.67798,2.848 l -0.18604,0.271 c -0.53491,0.80407 -0.31787,1.8895 0.48511,2.426 0.80347,0.53606 1.8894,0.31922 2.42554,-0.48433 2.4e-4,-2.3e-4 2.4e-4,-4.5e-4 4.9e-4,-6.7e-4 l 0.15991,-0.234 c 0.73901,-1.05364 1.39185,-2.16525 1.9519,-3.324 0.70996,-1.492 0.72705,-5.11 0.65503,-7.422 h 22.05688 c 0.87183,-0.16112 1.47803,-0.95887 1.3999,-1.842 0.07837,-0.87556 -0.53174,-1.66341 -1.39893,-1.80699 z" />
  <path
     id="j"
     class="r"
     d="m 70.49184,17.68 c -0.6106,-0.61345 -1.44141,-0.95729 -2.30688,-0.955 H 53.86099 c -1.79956,0.0017 -3.2583,1.45947 -3.26099,3.259 v 4.069 c -0.0022,0.86533 0.3418,1.6956 0.95508,2.306 0.61011,0.61367 1.44043,0.95788 2.30591,0.956 h 14.32397 c 0.86572,0.0019 1.69629,-0.34228 2.30688,-0.956 0.61328,-0.61044 0.95679,-1.44077 0.9541,-2.306 V 19.98 c 9.8e-4,-0.86312 -0.34253,-1.69096 -0.9541,-2.3 z m -2.90991,5.548 c 4.9e-4,0.29879 -0.24121,0.54145 -0.54004,0.542 H 55.09194 c -0.29883,0 -0.54102,-0.2422 -0.54102,-0.54099 v -2.73502 c -4.9e-4,-0.29879 0.24121,-0.54145 0.54004,-0.542 h 11.95703 c 0.29883,0 0.54102,0.2422 0.54102,0.54099 v 0.001 l -0.0071,2.734 z" />
  <path
     id="k"
     class="r"
     d="m 111.49987,15.81 h -11.18701 v -2.594 h 8.48901 c 0.69189,0 1.41504,-0.856 1.41504,-1.9 0,-1.044 -0.7229,-1.935 -1.41504,-1.935 h -8.48901 V 6.953 c 1.85107,-0.312 3.84106,-0.7 5.16797,-1.012 L 108.14978,5.3 c 0.97949,-0.24482 1.57495,-1.23728 1.33008,-2.21673 V 3.083 c -0.24487,-0.98 -1.23779,-1.57593 -2.21777,-1.33105 -2.4e-4,2e-5 -2.4e-4,3e-5 -2.4e-4,5e-5 v 0 l -2.6311,0.632 c -2.14893,0.511 -6.31104,1.239 -8.24707,1.444 -1.55298,0.163 -7.46899,0.048 -9.61694,-0.01 -1.00952,-0.0274 -1.8501,0.76853 -1.87793,1.778 -0.02808,1.00974 0.76782,1.85099 1.77759,1.87899 2.4e-4,0 2.4e-4,0 4.9e-4,10e-6 0.78711,0.02 7.20605,0.2 9.54102,0.012 v 1.895 h -9.56396 c -0.90894,0.18214 -1.54224,1.00997 -1.47998,1.935 -0.0498,0.9139 0.58179,1.72469 1.47998,1.9 h 9.56396 V 15.81 H 84.45083 c -0.94214,0.16853 -1.60767,1.0178 -1.5459,1.973 -0.0625,0.96334 0.59888,1.82372 1.5459,2.011 h 11.75708 v 1.109 c -0.01001,0.07495 -0.01562,0.15041 -0.01709,0.226 v 0 c 0,0.186 -0.02002,1.831 0,2.358 v 0.207 c -0.89917,-0.23545 -1.77979,-0.53625 -2.63501,-0.9 -0.94385,-0.35409 -1.99609,0.12223 -2.35303,1.065 -0.35718,0.94439 0.11816,1.99955 1.06201,2.358 1.36304,0.516 3.84595,1.352 5.15894,1.15 1.31299,-0.202 2.65991,-1.239 2.74292,-3.534 l 0.0391,0.03 V 19.79 h 11.29297 c 0.75806,0 1.48096,-0.931 1.48096,-2.011 0.0986,-0.94263 -0.54688,-1.80164 -1.47974,-1.969 z" />
  <path
     id="l"
     class="r"
     d="m 153.01178,23.912 c -0.98584,-1.04645 -1.91455,-2.14538 -2.78198,-3.292 0.948,-1.005 1.84399,-2.13 2.09204,-2.445 0.5957,-0.75907 0.46313,-1.85724 -0.2959,-2.45284 -0.001,-0.0011 -0.003,-0.0021 -0.004,-0.0032 -0.7605,-0.59544 -1.85986,-0.46154 -2.45532,0.29905 -2.4e-4,3.2e-4 -4.9e-4,6.3e-4 -7.3e-4,9.5e-4 -0.45801,0.583 -1.00903,1.238 -1.521,1.808 -0.45703,-0.6 -0.91211,-1.2 -1.3501,-1.778 v 0 c -0.58008,-0.77222 -1.67627,-0.92842 -2.44897,-0.349 -0.77173,0.58011 -0.92749,1.67585 -0.3479,2.448 v 0 c 0.51807,0.69 1,1.321 1.44312,1.905 -0.60693,0.395 -1.34497,0.87 -2.1001,1.355 v -6.874 h 7.36108 c 1.04541,5.8e-4 1.89355,-0.84648 1.89404,-1.89196 V 5.43 c 4.9e-4,-1.04548 -0.84644,-1.89345 -1.89209,-1.894 h -9.28589 c -1.04541,-4e-5 -1.89307,0.84746 -1.89307,1.89293 V 23.857 l -0.36206,0.232 c -0.81274,0.51991 -1.05029,1.60026 -0.53027,2.41305 4.9e-4,6.5e-4 7.3e-4,0.0013 0.001,0.002 0.5188,0.81286 1.59814,1.05127 2.41113,0.53251 0.001,-8.4e-4 0.003,-0.0017 0.004,-0.0025 0.21704,-0.137 4.37012,-2.8 6.54102,-4.211 3.0481,3.84 3.59302,4.06 3.94995,4.2 0.89722,0.35719 1.91406,-0.07888 2.27393,-0.975 0.31519,-0.78799 0.0193,-1.68862 -0.7019,-2.136 z M 142.93781,6.336 c -4.9e-4,-0.24868 0.2002,-0.45088 0.44897,-0.452 h 5.5 c 0.24902,4e-5 0.45093,0.20199 0.45093,0.45107 V 6.945 c 0,0.24853 -0.20142,0.45 -0.44995,0.45 -2.4e-4,0 -7.3e-4,0 -9.8e-4,0 h -5.5 c -0.24805,-5.6e-4 -0.44897,-0.20187 -0.44897,-0.45 z m 0,4.491 c 0,-0.24829 0.20068,-0.44988 0.44897,-0.451 h 5.5 c 0.24902,4e-5 0.45093,0.20195 0.45093,0.451 v 0.609 c 4.9e-4,0.24908 -0.20093,0.45145 -0.44995,0.452 -2.4e-4,0 -7.3e-4,0 -9.8e-4,0 h -5.5 c -0.24878,-0.0011 -0.44946,-0.20332 -0.44897,-0.452 z" />
  <path
     id="m"
     class="r"
     d="m 125.42804,21.93 v 0 c 0.49561,0.72363 1.48389,0.90856 2.20752,0.41304 4.9e-4,-3.5e-4 9.8e-4,-7e-4 0.001,-10e-4 0.72412,-0.49561 0.90967,-1.48449 0.41406,-2.20873 -4.9e-4,-4.2e-4 -7.3e-4,-8.5e-4 -9.8e-4,-0.0013 l -1.13501,-1.657 c -0.49585,-0.72403 -1.48486,-0.90897 -2.20898,-0.41306 v 6e-5 c -0.72461,0.49612 -0.90967,1.48568 -0.41357,2.21023 2.4e-4,2.6e-4 2.4e-4,5.1e-4 4.9e-4,7.7e-4 v 0 l 1.13501,1.657 z" />
  <path
     id="n"
     class="r"
     d="m 137.9837,6.241 v 0 c -5.86499,-3.575 -6.89111,-3.575 -7.33008,-3.575 -0.51611,0 -0.85596,0 -6.72705,3.44 -0.83325,0.48732 -1.11401,1.55795 -0.62646,2.39132 4.9e-4,8.9e-4 9.8e-4,0.0018 10e-4,0.0027 0.36768,0.62598 1.08447,0.95891 1.80005,0.836 -0.17578,0.26125 -0.26953,0.5691 -0.26904,0.884 10e-4,0.87809 0.71289,1.58949 1.59106,1.59 h 2.69995 v 1.908 h -3.73608 c -0.87769,-6e-5 -1.58911,0.71131 -1.58911,1.58889 v 0.0011 c -4.9e-4,0.87758 0.71045,1.58945 1.58789,1.59 h 3.7373 v 6.136 l -4.28589,0.984 v 0 c -0.94141,0.21582 -1.52979,1.15403 -1.31396,2.09556 2.4e-4,0.0015 7.3e-4,0.003 9.8e-4,0.0044 0.21582,0.94207 1.15479,1.53071 2.09668,1.31477 10e-4,-2.6e-4 0.002,-5.1e-4 0.003,-7.7e-4 l 10.73193,-2.464 c 0.94141,-0.21582 1.52979,-1.15403 1.31396,-2.09556 -2.4e-4,-0.0015 -7.3e-4,-0.003 -9.8e-4,-0.0044 -0.21582,-0.94153 -1.15405,-1.52985 -2.09546,-1.31405 -0.002,3.5e-4 -0.003,7e-4 -0.005,0.001 v 0 l -0.66406,0.152 1.146,-1.562 v 0 c 0.51831,-0.7069 0.3667,-1.69991 -0.33887,-2.22001 -0.70776,-0.5197 -1.70288,-0.36718 -2.22266,0.34065 0,1.1e-4 -2.4e-4,2.3e-4 -2.4e-4,3.5e-4 l -0.86401,1.178 v -2.547 h 3.57593 c 0.87817,5.9e-4 1.59058,-0.7108 1.59106,-1.58894 v -0.0011 c 0,-0.87813 -0.71191,-1.59 -1.59009,-1.59 h -3.5769 v -1.908 h 2.2251 c 0.87817,5e-5 1.59009,-0.71178 1.59009,-1.58991 v -9e-5 c -2.4e-4,-0.40598 -0.15674,-0.79631 -0.43701,-1.09 l 0.16211,0.1 v 0 c 0.82397,0.49957 1.89697,0.23895 2.3999,-0.583 0.50342,-0.82436 0.24341,-1.90078 -0.58105,-2.40425 -4.9e-4,-2.5e-4 -7.3e-4,-5e-4 -0.001,-7.6e-4 z m -3.13599,2.387 h -8.30005 c 1.677,-0.971 3.42603,-1.955 4.23096,-2.365 1.54126,0.73124 3.04321,1.54234 4.5,2.43 -0.13989,-0.04223 -0.28491,-0.06511 -0.43091,-0.068 z" />
  <path
     id="o"
     class="r"
     d="m 24.3938,3.312 c 0.01392,0.2 0.03101,0.4 0.03101,0.6 0.0022,1.59989 -0.39722,3.17473 -1.16211,4.58 1.53589,1.8803 2.37354,4.23418 2.37109,6.662 0,5.83043 -4.72656,10.55693 -10.55688,10.557 C 9.2470808,25.7098 4.5214908,20.98382 4.5210008,15.154 c 4.9e-4,-2.27028 0.73755,-4.47914 2.1001,-6.295 -0.90479,-1.49154 -1.38354,-3.20251 -1.38403,-4.947 0,-0.058 0.00708,-0.116 0.00806,-0.175 C 1.9143108,6.59489 -0.00145917,10.76526 8.3388699e-7,15.154 8.3388699e-7,23.48265 6.7514708,30.2345 15.08008,30.235 c 8.3291,2e-5 15.08154,-6.75182 15.08203,-15.081 C 30.1626,10.5297 28.03516,6.16238 24.3938,3.312 Z" />
  <path
     id="p"
     class="r"
     d="m 24.3938,3.312 c 0.01392,0.2 0.03101,0.4 0.03101,0.6 0.0022,1.59989 -0.39722,3.17473 -1.16211,4.58 1.53589,1.8803 2.37354,4.23418 2.37109,6.662 0,5.83043 -4.72656,10.55693 -10.55688,10.557 C 9.2470808,25.7098 4.5214908,20.98382 4.5210008,15.154 c 4.9e-4,-2.27028 0.73755,-4.47914 2.1001,-6.295 -0.90479,-1.49154 -1.38354,-3.20251 -1.38403,-4.947 0,-0.058 0.00708,-0.116 0.00806,-0.175 C 1.9143108,6.59489 -0.00145917,10.76526 8.3388699e-7,15.154 8.3388699e-7,23.48265 6.7514708,30.2345 15.08008,30.235 c 8.3291,2e-5 15.08154,-6.75182 15.08203,-15.081 C 30.1626,10.5297 28.03516,6.16238 24.3938,3.312 Z" />
  <path
     id="q"
     class="r"
     d="M 23.01685,2.321 C 21.14112,1.17472 19.03858,0.45061 16.85474,0.199 c 1.30249,0.72652 2.11108,2.09963 2.11499,3.591 9.8e-4,1.10175 -0.43872,2.15812 -1.22095,2.934 L 15.94873,1.367 c 0,0 -0.18604,-1.367 -1.17896,-1.367 -0.99292,0 -1.17993,1.491 -1.17993,1.491 L 11.94775,6.755 C 11.14428,5.97776 10.690671,4.90781 10.690671,3.79 c 9.8e-4,-1.41612 0.727539,-2.73295 1.925049,-3.489 -1.777339,0.29267 -3.4875492,0.90236 -5.0490692,1.8 -0.34595,0.2 -0.66406,0.429 -0.98804,0.651 -0.05762,0.38472 -0.08789,0.77301 -0.09106,1.162 0,4.60826 3.7358402,8.344 8.3439892,8.344 h 9.8e-4 c 4.60767,5.5e-4 8.34351,-3.73429 8.34399,-8.34201 v -0.002 c -0.0022,-0.53488 -0.05566,-1.06832 -0.15967,-1.593 z" />
</svg>
