<?xml version="1.0" encoding="UTF-8" standalone="no"?>
<svg
   id="背景"
   viewBox="0 0 215.55999 45.939998"
   version="1.1"
   sodipodi:docname="yakuodo.svg"
   width="215.56"
   height="45.939999"
   inkscape:version="1.1 (c68e22c387, 2021-05-23)"
   xmlns:inkscape="http://www.inkscape.org/namespaces/inkscape"
   xmlns:sodipodi="http://sodipodi.sourceforge.net/DTD/sodipodi-0.dtd"
   xmlns="http://www.w3.org/2000/svg"
   xmlns:svg="http://www.w3.org/2000/svg"
   xmlns:rdf="http://www.w3.org/1999/02/22-rdf-syntax-ns#"
   xmlns:cc="http://creativecommons.org/ns#"
   xmlns:dc="http://purl.org/dc/elements/1.1/">
  <sodipodi:namedview
     id="namedview43"
     pagecolor="#ffffff"
     bordercolor="#666666"
     borderopacity="1.0"
     inkscape:pageshadow="2"
     inkscape:pageopacity="0.0"
     inkscape:pagecheckerboard="0"
     showgrid="false"
     fit-margin-top="0"
     fit-margin-left="0"
     fit-margin-right="0"
     fit-margin-bottom="0"
     inkscape:zoom="2.7772727"
     inkscape:cx="101.53846"
     inkscape:cy="71.11293"
     inkscape:window-width="1920"
     inkscape:window-height="1057"
     inkscape:window-x="-8"
     inkscape:window-y="-8"
     inkscape:window-maximized="1"
     inkscape:current-layer="背景" />
  <defs
     id="defs4">
    <style
       id="style2">.cls-1,.cls-2,.cls-5{fill:#fff;}.cls-2,.cls-5{stroke:#fff;}.cls-2{stroke-width:1.06px;}.cls-3{fill:#4652a1;}.cls-4{fill:#f6aa00;}.cls-5{stroke-linecap:round;stroke-linejoin:round;stroke-width:3.17px;}.cls-6{fill:#231815;}</style>
  </defs>
  <title
     id="title6">yakuodo</title>
  <polygon
     class="cls-3"
     points="71.88,82.97 2.34,82.97 2.34,37.03 71.88,37.03 "
     id="polygon12"
     transform="translate(-2.34,-37.03)" />
  <path
     class="cls-1"
     d="m 49.44,19.510003 h -3.87 v 0.33 h 0.83 v 6.26 h -0.83 v 0.33 h 3.87 a 3.47,3.47 0 0 0 0,-6.92 z m 1.29,5 c 0,1 -0.51,1.6 -1.29,1.6 h -1.38 v -6.27 h 1.38 c 0.78,0 1.29,0.6 1.29,1.6 v 3.06 z m -14.65,-4.67 h -0.9 v 4.67 c 0,1 -0.36,2 -2.48,2 -2.12,0 -2.7,-0.78 -2.7,-1.61 v -5.06 h -0.83 v -0.33 h 3.32 v 0.33 h -0.83 v 5.06 c 0,0.91 0.56,1.31 1.41,1.31 a 1.66,1.66 0 0 0 1.78,-1.7 v -4.67 H 34 v -0.33 h 2.08 z m -22.71,-0.33 v 0.33 h -0.49 c -0.28,0 -0.48,0.32 -0.51,0.36 l -1.57,2.82 v 3.08 h 1 v 0.33 H 8.2400002 v -0.33 h 0.9000004 v -3.08 l -2.0000004,-3.18 h -0.78 v -0.33 h 3.5300004 v 0.33 H 8.8900002 l 1.7699998,2.79 1.31,-2.36 v 0 c 0.23,-0.43 -0.15,-0.42 -0.15,-0.42 h -0.77 v -0.33 z m 5.91,6.59 -2.55,-6.67 h -0.39 l -2.46,6.3 v 0 c 0,0 -0.22,0.36 -0.51,0.36 h -0.34 v 0.33 h 2.07 v -0.33 h -0.71 a 0.2,0.2 0 0 1 -0.2,-0.3 l 0.52,-1.33 h 2.15 l 0.63,1.63 h -0.83 v 0.33 h 3.3 v -0.33 z m -4.44,-2 0.95,-2.46 0.94,2.46 z m 8.65,-4.3 v 6.26 h 0.83 v 0.33 H 21 v -0.33 h 0.83 v -6.22 H 21 v -0.33 h 3.32 v 0.33 z m 5.17,6.3 v 0.33 h -3.72 v -0.33 h 0.9 l -2.35,-3.35 2.69,-2.66 v 0 c 0.18,-0.19 -0.17,-0.23 -0.17,-0.23 h -0.65 v -0.33 h 2.48 v 0.33 h -0.59 a 1.27,1.27 0 0 0 -0.61,0.19 l -1.81,1.79 3,4.28 z m 15.56,-3.13 a 3.56,3.56 0 1 1 -3.56,-3.54 3.54,3.54 0 0 1 3.56,3.54 z m -2,-1.79 a 1.56,1.56 0 0 0 -3.11,0 v 3.58 a 1.56,1.56 0 0 0 3.11,0 z m 19.23,1.79 a 3.57,3.57 0 1 1 -3.56,-3.54 3.55,3.55 0 0 1 3.56,3.54 z m -2,-1.79 a 1.56,1.56 0 0 0 -3.11,0 v 3.58 a 1.56,1.56 0 0 0 3.11,0 z"
     id="path14" />
  <polygon
     class="cls-1"
     points="64.8,74.55 8.07,74.55 8.07,45.45 64.8,45.45 "
     id="polygon16"
     transform="translate(-2.34,-37.03)" />
  <polygon
     class="cls-4"
     points="36.22,73.64 63.67,73.64 63.67,46.36 36.22,46.36 "
     id="polygon18"
     transform="translate(-2.34,-37.03)" />
  <polygon
     class="cls-3"
     points="8.79,73.64 36.24,73.64 36.24,46.36 8.79,46.36 "
     id="polygon20"
     transform="translate(-2.34,-37.03)" />
  <path
     class="cls-1"
     d="m 23.49,13.320003 v 0.92 h 1.56 c 1.22,0 1.33,0.5 1,1.19 l -3.53,6.62 -4.86,-7.81 h 2.45 v -0.92 h -9.8 v 0.92 h 1.88 l 5.61,9.12 v 8.34 h -2.29 v 0.92 h 9.8 v -0.92 h -2.33 v -8.54 l 3.83,-7.19 v 0 a 2.81,2.81 0 0 1 2.19,-1.72 h 0.79 v -0.92 z"
     id="path22" />
  <path
     class="cls-1"
     d="m 45.98,20.970003 a 44.29,44.29 0 0 1 -1.14,-5.59 c -0.09,-1.67 0.3,-3.29 2.67,-3.44 2.37,-0.15 2.82,2.26 2.72,3 a 36.79,36.79 0 0 1 -1,6.09 c 0,0 4.89,-3 6.72,-3.44 1.83,-0.44 3.16,0.3 3.56,2.26 0.4,1.96 -1.19,2.95 -3.76,3.29 -2.57,0.34 -6,0.44 -6,0.44 a 41.92,41.92 0 0 1 4.64,3.74 c 2.57,2.35 2.86,4.51 0.59,6 -1.76,1.14 -3.26,-0.25 -4.35,-2.06 a 37.48,37.48 0 0 1 -2.91,-6.19 28.17,28.17 0 0 1 -2.06,5.27 c -1.28,2.36 -2.17,4.32 -4.64,3.39 -2.21,-0.83 -2.55,-3.09 -0.39,-5.44 a 26.61,26.61 0 0 1 5.13,-4.58 39.12,39.12 0 0 1 -7.1,-0.61 c -2.67,-0.64 -3.56,-2.48 -2.32,-4.54 a 2.55,2.55 0 0 1 2.91,-0.89 37.62,37.62 0 0 1 6.73,3.3 z"
     id="path24" />
  <path
     class="cls-6"
     d="m 117.49,7.970003 h -8.66 v 2.2 h -6.26 v -2.2 h -14.2 v 2.2 h -6.26 v -2.2 h -8.85 v -5.5 h 8.85 v -1.5 h 6.26 v 1.46 h 14.2 v -1.46 h 6.26 v 1.46 h 8.66 z m -34.46,5 -9.77,-2.82 v 7 l 9.77,2.75 v -7 z m -9.77,11.1 v 6.41 c 4.57,0 9.77,-2.75 9.77,-2.75 v -6.41 c 0,0 -5.2,2.75 -9.77,2.75 z m 34.47,-4.21 9.76,-2.75 v -6.6 l -9.76,2.75 z m 0,1.46 v 6.41 l 9.76,2.75 v -6.78 z m 9.76,16.12 h -8.71 l 8.66,7.53 h -8.29 l -8.66,-7.51 h -2 v 7.51 h -7 v -7.53 h -1.27 l -8.66,7.53 h -8.3 l 8.67,-7.51 h -8.67 v -5.49 h 18.25 v -1.49 h -6.08 a 0.93,0.93 0 0 1 -0.93,-0.92 v -15.75 a 0.92,0.92 0 0 1 0.93,-0.91 h 6.63 l 0.92,-2.75 h 6.680004 l -1.000004,2.75 h 6.27 a 0.92,0.92 0 0 1 0.93,0.91 v 15.75 a 0.93,0.93 0 0 1 -0.93,0.92 h -6.45 v 1.49 h 19 v 5.49 z m -27.46,-18.13 h 10.32 v -1.83 H 90.03 Z m 10.32,6.22 v -2.19 H 90.03 v 2.19 z"
     id="path34" />
  <polygon
     class="cls-6"
     points="150.42,56.89 150.42,44.43 167.2,44.43 168.67,38.57 124.44,38.57 125.92,44.43 142.69,44.43 142.69,56.89 127.2,56.89 127.2,62.56 142.69,62.56 142.69,76.49 125.73,76.49 123.52,81.98 169.59,81.98 167.38,76.49 150.42,76.49 150.42,62.56 165.91,62.56 165.91,56.89 "
     id="polygon36"
     transform="translate(-2.34,-37.03)" />
  <path
     class="cls-6"
     d="m 196.55,39.460003 v -3.49 h 15.11 l -1.84,-5.5 h -13.27 v -3.3 h 6.64 a 3.31,3.31 0 0 0 3.31,-3.29 v -11 h -28.19 v 11 a 3.31,3.31 0 0 0 3.35,3.3 h 6.63 v 3.3 h -13.48 l -1.85,5.49 h 15.3 v 3.48 h -16 l -1.88,5.52 h 43.5 l -1.84,-5.49 z m -11.24,-21.15 h 14.74 v 3.29 h -14.74 z"
     id="path38" />
  <path
     class="cls-6"
     d="m 212.22,5.020003 h -4.24 l 2.58,-4 h -8.11 l -2.21,4 h -3.32 v -4.05 h -8.26 v 4 h -3.69 l -2.21,-4 h -8.1 l 2.58,4 h -8.11 v 13.42 h 7 v -7.88 h 32.43 v 7.88 h 7 v -10.07 a 3.31,3.31 0 0 0 -3.31,-3.3 z"
     id="path40" />
  <metadata
     id="metadata860">
    <rdf:RDF>
      <cc:Work
         rdf:about="">
        <dc:title>yakuodo</dc:title>
      </cc:Work>
    </rdf:RDF>
  </metadata>
</svg>
