<svg xmlns="http://www.w3.org/2000/svg" width="900" height="1260" viewBox="0 0 900 1260"><defs><style>.a { fill: rgb(0, 149, 57); }.b, .c { fill: rgb(255, 255, 255); }.c { stroke: rgb(255, 255, 255); stroke-miterlimit: 10; }.d { fill: rgb(0, 113, 253); }</style></defs><rect class="a" width="900" height="1260"/><path class="b" d="M815,10H85A75.00176,75.00176,0,0,0,10,85V1175a75.00176,75.00176,0,0,0,75,75H815a74.64435,74.64435,0,0,0,43.63-14,73.17812,73.17812,0,0,0,6.25-5A74.799,74.799,0,0,0,890,1175V85A75.00176,75.00176,0,0,0,815,10Zm55,1165a55.05858,55.05858,0,0,1-55,55H556V1102H870Zm0-78H551v133H85a55.05862,55.05862,0,0,1-55-55V85A55.05858,55.05858,0,0,1,85,30H815a55.05854,55.05854,0,0,1,55,55Z"/><g><path class="b" d="M303.62354,135.794h11.85253q.05933.64159.06006.937a13.49293,13.49293,0,0,1-2.88769,8.03857q-6.07837,8.53272-18.47119,8.53174-10.04883,0-16.06446-6.06592a15.68114,15.68114,0,0,1-4.87353-11.4414V101.71631a15.48324,15.48324,0,0,1,5.23486-11.63867,21.8613,21.8613,0,0,1,15.76318-6.06592,23.85316,23.85316,0,0,1,13.89844,4.29053q7.4004,5.12988,7.34033,13.41406H303.62354v-1.085a7.18445,7.18445,0,0,0-2.166-5.07959,9.44119,9.44119,0,0,0-7.16016-2.90967,10.25551,10.25551,0,0,0-6.07666,1.874,7.2546,7.2546,0,0,0-3.249,6.11524v36.05029a6.96889,6.96889,0,0,0,2.166,5.17822,9.82466,9.82466,0,0,0,7.15966,2.76172,9.29029,9.29029,0,0,0,7.46094-3.25488A8.5971,8.5971,0,0,0,303.62354,135.794Z"/><path class="b" d="M332.103,138.605V117.74414a12.52914,12.52914,0,0,1,2.88818-8.03857,17.02217,17.02217,0,0,1,6.31738-4.73438,20.211,20.211,0,0,1,8.36329-1.72607q8.48291,0,13.65722,5.27685a12.81111,12.81111,0,0,1,3.9707,9.22217V138.605a13.059,13.059,0,0,1-2.88769,8.33447q-5.11377,6.36182-15.16162,6.36182-8.72462,0-13.71778-5.52344A13.31811,13.31811,0,0,1,332.103,138.605Zm24.60791.937V116.75781a5.07791,5.07791,0,0,0-2.34619-4.29052,8.16313,8.16313,0,0,0-4.81348-1.52881,7.361,7.361,0,0,0-4.272,1.28222,5.31935,5.31935,0,0,0-2.58692,4.53711V139.542a5.32079,5.32079,0,0,0,1.80518,3.94531,7.27916,7.27916,0,0,0,5.29443,2.12061,7.052,7.052,0,0,0,5.4751-2.31787A5.2535,5.2535,0,0,0,356.71094,139.542Z"/><path class="b" d="M408.89551,152.31494h-.90235v-2.26855a16.69651,16.69651,0,0,1-10.10742,3.25488,15.6303,15.6303,0,0,1-10.04785-3.20557,11.05623,11.05623,0,0,1-4.45215-9.0249V115.27832a10.95469,10.95469,0,0,1,3.12793-7.69336q4.09131-4.33887,11.31153-4.33984a18.83513,18.83513,0,0,1,10.168,3.20556V84.99805H418.582v19.2334h.90332v2.022a18.29309,18.29309,0,0,1,9.92676-3.0083,15.37742,15.37742,0,0,1,11.97363,4.981,10.72365,10.72365,0,0,1,2.707,7.44678v25.59522a10.27029,10.27029,0,0,1-3.00781,7.39746q-4.45312,4.58642-11.97363,4.58642a19.16562,19.16562,0,0,1-9.626-2.811v21.40332H408.89551Zm-.90235-12.625V116.65918a4.75712,4.75712,0,0,0-1.80468-3.94531,7.97415,7.97415,0,0,0-5.11426-1.77539,7.6916,7.6916,0,0,0-5.5957,2.16992,4.7023,4.7023,0,0,0-1.50391,3.55078v23.03076a5.28127,5.28127,0,0,0,1.68457,3.94531,7.51869,7.51869,0,0,0,5.35449,1.97266,7.01632,7.01632,0,0,0,5.71582-2.46582A5.27208,5.27208,0,0,0,407.99316,139.68994Zm25.51075,0V117.05371a5.52154,5.52154,0,0,0-2.10645-4.38916,8.0336,8.0336,0,0,0-10.95019.937,5.36423,5.36423,0,0,0-.96192,3.45215v22.63623a5.36526,5.36526,0,0,0,2.8877,4.73438,7.51953,7.51953,0,0,0,4.09082,1.13427,7.19713,7.19713,0,0,0,6.13769-2.811A5.17552,5.17552,0,0,0,433.50391,139.68994Z"/><path class="b" d="M459.99805,152.31494V104.23145h10.58984v27.124l13.71777-27.124h10.58887v48.08349H484.30566v-27.124l-13.71777,27.124Z"/><path class="b" d="M536.61035,130.813l-12.99609,21.50195H511.40039l15.46289-21.55127,1.083-.04931a17.25462,17.25462,0,0,1-9.50586-3.20557,12.22915,12.22915,0,0,1-5.35449-10.30713q0-6.41016,5.77539-10.2085a19.19094,19.19094,0,0,1,10.89062-2.86035h19.73438v48.18213H538.89648V130.8623Zm2.22656-7.74268.05957-11.24414q-11.61182.09961-13.17578,1.43018a5.4423,5.4423,0,0,0-2.0459,4.33984,5.03308,5.03308,0,0,0,1.56446,3.748,6.39978,6.39978,0,0,0,4.51269,1.72607Z"/></g><g><path class="c" d="M270.63965,231.147h11.73242v2.51514a7.36013,7.36013,0,0,0,1.86523,5.03027,10.79008,10.79008,0,0,0,14.55958.54248,7.07277,7.07277,0,0,0,2.34667-5.32617,6.5508,6.5508,0,0,0-2.40625-5.07959L277.07715,209.645a14.46233,14.46233,0,0,1-5.29395-11.09619q0-7.79151,7.2793-12.625a22.93536,22.93536,0,0,1,12.876-3.79737q9.62549,0,15.583,6.6084a15.81018,15.81018,0,0,1,4.09082,9.6167H300.24121a8.15342,8.15342,0,0,0-8.4834-6.6084A8.73765,8.73765,0,0,0,285.501,194.209a5.65012,5.65012,0,0,0-1.98536,4.29053,6.04957,6.04957,0,0,0,2.28614,4.63574l21.65918,19.43067a15.013,15.013,0,0,1,5.415,11.58935,14.79978,14.79978,0,0,1-6.13672,12.08252,23.10442,23.10442,0,0,1-14.80078,5.17823,24.60345,24.60345,0,0,1-12.876-3.64942q-8.42432-5.03027-8.42285-13.95654Z"/><path class="c" d="M326.83008,236.71973V215.85889a12.53136,12.53136,0,0,1,2.88769-8.03858,17.02607,17.02607,0,0,1,6.31739-4.73437,20.211,20.211,0,0,1,8.36328-1.72608q8.48291,0,13.6582,5.27686a12.815,12.815,0,0,1,3.9707,9.22217v20.86084a13.05994,13.05994,0,0,1-2.88867,8.33447q-5.1123,6.36182-15.16113,6.36182-8.72461,0-13.71777-5.52344A13.31585,13.31585,0,0,1,326.83008,236.71973Zm24.60742.937V214.87256a5.07859,5.07859,0,0,0-2.3457-4.29053,8.1632,8.1632,0,0,0-4.81348-1.52881,7.3625,7.3625,0,0,0-4.27246,1.28223,5.32042,5.32042,0,0,0-2.58691,4.53711v22.78418a5.31956,5.31956,0,0,0,1.80566,3.94531,7.2773,7.2773,0,0,0,5.29394,2.12061,7.05306,7.05306,0,0,0,5.47559-2.31787A5.25518,5.25518,0,0,0,351.4375,237.65674Z"/><path class="c" d="M392.8877,210.33545v40.09424H382.29785V210.33545h-5.29394v-7.69336h5.29394V192.63086a8.3282,8.3282,0,0,1,1.32422-4.981,10.71309,10.71309,0,0,1,9.26563-4.53711H403.416v7.69336H396.919a3.69863,3.69863,0,0,0-3.30957,1.77539,4.50462,4.50462,0,0,0-.72168,2.46582v7.59473h5.23437v7.69336Z"/><path class="c" d="M415.92578,250.42969v-48.0835h10.58984v48.0835Zm.48145-57.7002v-7.69336H425.793v7.69336Z"/><path class="c" d="M479.51758,250.42969H468.92773v-1.13428a32.80942,32.80942,0,0,1-9.20507,1.13428,19.17779,19.17779,0,0,1-10.88965-2.86035q-5.77589-3.79687-5.77637-10.2085a12.23037,12.23037,0,0,1,5.35449-10.30713,17.58245,17.58245,0,0,1,10.77051-3.25488h3.36914a6.6034,6.6034,0,0,0,4.51171-1.57813,4.69851,4.69851,0,0,0,1.50489-2.21924,15.29221,15.29221,0,0,0,.36035-4.04394v-1.03564a5.1045,5.1045,0,0,0-1.624-3.79737,7.39852,7.39852,0,0,0-5.415-2.07129,6.73045,6.73045,0,0,0-5.83594,2.76172,5.32623,5.32623,0,0,0-1.083,3.10694v1.03564H444.37988a14.65959,14.65959,0,0,1,3.06934-8.38379,16.984,16.984,0,0,1,5.83594-4.38916,20.083,20.083,0,0,1,8.48339-1.82471,20.40168,20.40168,0,0,1,11.43165,3.35352,13.75446,13.75446,0,0,1,5.8955,7.00293,15.05971,15.05971,0,0,1,.42188,4.24121Zm-10.58985-20.1211a21.09728,21.09728,0,0,1-6.498,1.1836h-2.707a6.40573,6.40573,0,0,0-4.5127,1.72607,5.03824,5.03824,0,0,0-1.56445,3.74805,5.43957,5.43957,0,0,0,2.0459,4.33984q1.68456,1.43115,5.5957,1.43018a8.85333,8.85333,0,0,0,5.71582-1.57813,5.08693,5.08693,0,0,0,1.9248-4.04394Z"/></g><g><g><rect class="d" x="227.5" y="582.5" width="543" height="460" rx="67.5"/><path class="b" d="M703,590a60.068,60.068,0,0,1,60,60V975a60.068,60.068,0,0,1-60,60H295a60.068,60.068,0,0,1-60-60V650a60.068,60.068,0,0,1,60-60H703m0-15H295a75,75,0,0,0-75,75V975a75,75,0,0,0,75,75H703a75,75,0,0,0,75-75V650a75,75,0,0,0-75-75Z"/></g><g><path class="b" d="M283.71191,662.11035h17.749v1.57813a.64141.64141,0,0,1,.24023.0498q7.04,2.02294,10.28906,7.10156a13.04213,13.04213,0,0,1,2.22559,7.05176v7.00293a14.23174,14.23174,0,0,1-4.51172,10.84961q-5.2954,4.73438-13.83887,4.68555H271.97949V633.1123h38.74707V641.792H283.71191Zm0,9.37012V691.75h10.71q4.21,0,6.377-2.417a6.3035,6.3035,0,0,0,1.68457-4.43848V677.8916a5.68479,5.68479,0,0,0-2.04492-4.38867,9.25721,9.25721,0,0,0-6.25782-2.02246Z"/><path class="b" d="M329.89453,686.71973V665.8584a12.53,12.53,0,0,1,2.8877-8.03809,17.02611,17.02611,0,0,1,6.31738-4.73437,20.21127,20.21127,0,0,1,8.36328-1.72656q8.4829,0,13.65723,5.27734a12.81,12.81,0,0,1,3.9707,9.22168v20.86133a13.05765,13.05765,0,0,1-2.8877,8.334q-5.11376,6.36182-15.16113,6.36231-8.7246,0-13.71777-5.52344A13.31585,13.31585,0,0,1,329.89453,686.71973Zm24.60742.93652V664.87207a5.07775,5.07775,0,0,0-2.3457-4.29,8.16367,8.16367,0,0,0-4.81348-1.5293,7.36252,7.36252,0,0,0-4.27246,1.28223,5.32042,5.32042,0,0,0-2.58691,4.53711v22.78418a5.31956,5.31956,0,0,0,1.80566,3.94531,7.27773,7.27773,0,0,0,5.29395,2.1211,7.05339,7.05339,0,0,0,5.47558-2.31836A5.25514,5.25514,0,0,0,354.502,687.65625Z"/><path class="b" d="M415.666,652.3457v8.67969H403.0918v39.4043H392.44238v-39.4043H380.22852V652.3457Z"/><path class="b" d="M440.9707,677.793v8.67969a6.91177,6.91177,0,0,0,1.86524,5.17871,7.52649,7.52649,0,0,0,5.415,2.07129,6.64221,6.64221,0,0,0,4.63281-1.57813,6.85259,6.85259,0,0,0,2.10547-5.32617v-.3457h10.58886q-.12011,2.17089-.24023,3.35351-.60206,4.34034-5.23437,7.8418A19.66782,19.66782,0,0,1,447.9502,701.416q-8.9048,0-14.01856-5.67188a13.41094,13.41094,0,0,1-3.5498-9.27148V666.10547a12.72719,12.72719,0,0,1,4.21093-9.37012,18.21205,18.21205,0,0,1,13.23731-5.22754,20.99243,20.99243,0,0,1,11.07031,3.05762,12.77394,12.77394,0,0,1,6.67773,11.54V677.793Zm14.01856-7.69336v-4.98047a5.24443,5.24443,0,0,0-1.44434-3.55078,6.93928,6.93928,0,0,0-5.53515-2.36719,7.56322,7.56322,0,0,0-4.75293,1.57813,5.41418,5.41418,0,0,0-2.28614,4.33984v4.98047Z"/><path class="b" d="M499.84863,652.24707a19.18981,19.18981,0,0,1,10.88965,2.86035q5.77589,3.79834,5.77637,10.209a12.23071,12.23071,0,0,1-5.35449,10.30664,9.921,9.921,0,0,1-1.083.69043q.54051.3457,1.083.74023a12.23193,12.23193,0,0,1,5.35449,10.30664q0,6.41163-5.77637,10.209a19.18218,19.18218,0,0,1-10.88965,2.86035H480.11426V652.24707Zm0,18.9375a6.40436,6.40436,0,0,0,4.5127-1.72559,5.04035,5.04035,0,0,0,1.56445-3.748,5.44522,5.44522,0,0,0-2.0459-4.33985q-1.56591-1.33154-13.17676-1.43066l.06055,11.24414Zm-9.085,10.30762-.06055,11.24414q11.61183-.09814,13.17676-1.43067a5.44249,5.44249,0,0,0,2.0459-4.33984,5.0419,5.0419,0,0,0-1.56445-3.74805,6.40865,6.40865,0,0,0-4.5127-1.72558Z"/><path class="b" d="M531.4707,652.3457h29.06055v8.67969h-18.0498v39.4043H531.4707Z"/><path class="b" d="M587.58105,698.55566V719.959H576.99121V652.3457h10.58984v2.02246a18.29371,18.29371,0,0,1,9.92676-3.00878,15.37779,15.37779,0,0,1,11.97364,4.98144,10.72245,10.72245,0,0,1,2.707,7.44629v25.5957a10.27026,10.27026,0,0,1-3.00782,7.39746q-4.45312,4.58643-11.97363,4.58594A19.16476,19.16476,0,0,1,587.58105,698.55566Zm14.01856-10.751V665.168a5.5206,5.5206,0,0,0-2.10645-4.38867,8.03279,8.03279,0,0,0-10.95019.93652,5.36429,5.36429,0,0,0-.96192,3.45215v22.63672a5.36525,5.36525,0,0,0,2.8877,4.73437,7.51915,7.51915,0,0,0,4.09082,1.13379,7.1968,7.1968,0,0,0,6.1377-2.81055A5.1755,5.1755,0,0,0,601.59961,687.80469Z"/><path class="b" d="M662.64258,700.42969H652.05273v-1.13477a32.8081,32.8081,0,0,1-9.20507,1.13477,19.17779,19.17779,0,0,1-10.88965-2.86035q-5.77588-3.79687-5.77637-10.209a12.22952,12.22952,0,0,1,5.35449-10.30664,17.58245,17.58245,0,0,1,10.77051-3.25488h3.36914a6.6034,6.6034,0,0,0,4.51171-1.57813,4.69967,4.69967,0,0,0,1.50489-2.21972,15.29235,15.29235,0,0,0,.36035-4.04395v-1.03515a5.10556,5.10556,0,0,0-1.624-3.79786,7.39852,7.39852,0,0,0-5.415-2.07129,6.73045,6.73045,0,0,0-5.83594,2.76172,5.32762,5.32762,0,0,0-1.083,3.10743V665.957H627.50488a14.65961,14.65961,0,0,1,3.06934-8.38379,16.98284,16.98284,0,0,1,5.83594-4.38867,20.0834,20.0834,0,0,1,8.48339-1.82519,20.40167,20.40167,0,0,1,11.43165,3.35351,13.75446,13.75446,0,0,1,5.8955,7.00293,15.05976,15.05976,0,0,1,.42188,4.24121Zm-10.58985-20.1211a21.09728,21.09728,0,0,1-6.498,1.1836h-2.707a6.40531,6.40531,0,0,0-4.5127,1.72558,5.03824,5.03824,0,0,0-1.56445,3.74805,5.43957,5.43957,0,0,0,2.0459,4.33984q1.68456,1.43116,5.5957,1.43067a8.85333,8.85333,0,0,0,5.71582-1.57813,5.08693,5.08693,0,0,0,1.9248-4.04394Z"/><path class="b" d="M686.02246,700.42969v10.35644h-9.86719V692.292H679.584l10.9502-39.94629h11.91309L713.57812,692.292h4.57227v18.49414H708.2832V700.42969Zm4.03027-8.1377h12.81543l-6.49707-22.78418Z"/></g><g><path class="b" d="M270.95117,796.68945v-67.3164h23.10352a21.08657,21.08657,0,0,1,13.417,4.33984,13.7079,13.7079,0,0,1,5.71582,11.19434v6.85547a11.27974,11.27974,0,0,1-3.4292,7.93945,16.8503,16.8503,0,0,1-4.03125,2.81152,16.474,16.474,0,0,1,4.99365,2.66309,11.34891,11.34891,0,0,1,3.66992,8.77832v7.64355q.05934,7.20117-6.91894,11.78711a21.37812,21.37812,0,0,1-11.85254,3.30371Zm11.73242-38.21972h9.4458q4.81275,0,7.4004-2.61426a5.74661,5.74661,0,0,0,1.92529-4.09277v-6.85547a5.76573,5.76573,0,0,0-2.34619-4.58594,9.46049,9.46049,0,0,0-6.25733-2.26856h-10.168Zm0,29.54h11.9126a8.39369,8.39369,0,0,0,5.53516-1.67676,6.13047,6.13047,0,0,0,2.52734-4.73438v-7.64355a6.0464,6.0464,0,0,0-1.92529-4.48828,7.70248,7.70248,0,0,0-5.71582-2.31739h-12.334Z"/><path class="b" d="M328.98584,782.97949V762.11914a12.53044,12.53044,0,0,1,2.88818-8.03906,17.02231,17.02231,0,0,1,6.31739-4.73438,20.21067,20.21067,0,0,1,8.36328-1.72558q8.48291,0,13.65722,5.27636a12.81215,12.81215,0,0,1,3.97071,9.22266v20.86035a13.06033,13.06033,0,0,1-2.8877,8.335q-5.11377,6.36182-15.16162,6.36133-8.72462,0-13.71777-5.52344A13.31812,13.31812,0,0,1,328.98584,782.97949Zm24.60791.9375V761.13281a5.07872,5.07872,0,0,0-2.34619-4.291,8.16266,8.16266,0,0,0-4.81348-1.52832,7.361,7.361,0,0,0-4.272,1.28222,5.31934,5.31934,0,0,0-2.58691,4.53711V783.917a5.32078,5.32078,0,0,0,1.80517,3.94531,7.27875,7.27875,0,0,0,5.29443,2.12012,7.05158,7.05158,0,0,0,5.4751-2.31738A5.2535,5.2535,0,0,0,353.59375,783.917Z"/><path class="b" d="M393.58008,756.69434v29.78711a2.33589,2.33589,0,0,0,.78222,1.92285,5.07577,5.07577,0,0,0,2.82715.59179h5.71582v7.69336h-9.32519a12.33587,12.33587,0,0,1-7.6416-2.26855,6.77412,6.77412,0,0,1-2.94825-5.42481V756.69434h-5.29394V749.001h5.29394V735.044l10.58985-5.27637V749.001H404.1084v7.69336Z"/><path class="b" d="M427.54785,774.05371v8.67969a6.9094,6.9094,0,0,0,1.86524,5.17773,7.52648,7.52648,0,0,0,5.415,2.07129,6.64226,6.64226,0,0,0,4.63282-1.57812,6.85259,6.85259,0,0,0,2.10547-5.32618v-.34472h10.58886q-.1201,2.17089-.24023,3.35351-.60205,4.34034-5.23438,7.84082a19.66774,19.66774,0,0,1-12.15332,3.74805q-8.90478,0-14.01855-5.6709a13.411,13.411,0,0,1-3.54981-9.27148V762.36523a12.72716,12.72716,0,0,1,4.21094-9.37011,18.212,18.212,0,0,1,13.23731-5.22754,20.99243,20.99243,0,0,1,11.07031,3.05762,12.77391,12.77391,0,0,1,6.67773,11.54v11.68848Zm14.01856-7.69336v-4.98144a5.24447,5.24447,0,0,0-1.44434-3.55079,6.93931,6.93931,0,0,0-5.53516-2.36718,7.56325,7.56325,0,0,0-4.75293,1.57812,5.41422,5.41422,0,0,0-2.28613,4.33985v4.98144Z"/><path class="b" d="M502.49023,748.60645l-13.17675,48.083H477.40039l-13.417-48.083h10.64941l8.84473,30.92089,8.54394-30.92089Z"/><path class="b" d="M549.81543,748.60645v53.40917a12.86236,12.86236,0,0,1-3.06836,8.877,16.8352,16.8352,0,0,1-6.4375,4.43847,21.066,21.066,0,0,1-8.0625,1.57813,19.54489,19.54489,0,0,1-11.97266-3.74805,12.25449,12.25449,0,0,1-2.707-2.76172l8.543-3.99414q1.50292,2.811,5.5957,2.81055,4.57179,0,6.61817-2.90918a5.4373,5.4373,0,0,0,.90234-3.20605v-9.46875a17.50409,17.50409,0,0,1-9.80664,3.05761,15.74313,15.74313,0,0,1-11.6123-4.63574,10.50069,10.50069,0,0,1-2.94824-4.88183,16.31629,16.31629,0,0,1-.24024-3.20606v-24.3623a10.31921,10.31921,0,0,1,2.707-6.95313,14.70561,14.70561,0,0,1,11.55176-5.03027,17.587,17.587,0,0,1,10.34863,3.30371v-2.31738ZM525.208,761.37891V782.4375a6.0381,6.0381,0,0,0,1.44433,3.99414,6.83155,6.83155,0,0,0,5.65528,2.56445,6.99585,6.99585,0,0,0,4.27148-1.33105,6.28789,6.28789,0,0,0,2.64746-5.22754V761.37891a5.16049,5.16049,0,0,0-1.5039-3.84668,7.73131,7.73131,0,0,0-5.59571-2.21875,6.89025,6.89025,0,0,0-5.89648,2.76172A5.67226,5.67226,0,0,0,525.208,761.37891Z"/><path class="b" d="M566.27539,796.68945V748.90234h10.58984v2.36719a20.04032,20.04032,0,0,1,4.99317-1.92383,38.59935,38.59935,0,0,1,7.34082-.44336h3.48926v7.69336h-3.54981a26.01984,26.01984,0,0,0-5.5957.39453,9.077,9.077,0,0,0-5.47461,3.55079,6.05381,6.05381,0,0,0-1.20313,3.5996v32.54883Z"/><path class="b" d="M640.01465,796.68945H629.4248v-1.13379a32.81074,32.81074,0,0,1-9.20507,1.13379,19.17772,19.17772,0,0,1-10.88965-2.86035q-5.77588-3.79687-5.77637-10.208a12.23121,12.23121,0,0,1,5.35449-10.30761,17.58239,17.58239,0,0,1,10.77051-3.25489h3.36914a6.60349,6.60349,0,0,0,4.51172-1.57812,4.69751,4.69751,0,0,0,1.50488-2.21875,15.29235,15.29235,0,0,0,.36035-4.04395v-1.03613a5.10342,5.10342,0,0,0-1.624-3.79687,7.39852,7.39852,0,0,0-5.415-2.07129,6.73045,6.73045,0,0,0-5.83594,2.76172,5.32481,5.32481,0,0,0-1.083,3.10644v1.03613H604.877a14.65961,14.65961,0,0,1,3.06934-8.38379,16.98523,16.98523,0,0,1,5.83594-4.38964,20.08263,20.08263,0,0,1,8.48339-1.82422,20.40167,20.40167,0,0,1,11.43165,3.35351,13.7545,13.7545,0,0,1,5.8955,7.00293,15.05976,15.05976,0,0,1,.42188,4.24121ZM629.4248,776.56836a21.09754,21.09754,0,0,1-6.498,1.18359h-2.707a6.40613,6.40613,0,0,0-4.5127,1.72657,5.03822,5.03822,0,0,0-1.56445,3.748,5.43958,5.43958,0,0,0,2.0459,4.33985q1.68456,1.43115,5.5957,1.42968A8.85339,8.85339,0,0,0,627.5,787.418a5.087,5.087,0,0,0,1.9248-4.04395Z"/><path class="b" d="M690.4082,796.68945H679.81934V794.4209a16.69651,16.69651,0,0,1-10.10743,3.25488,15.63006,15.63006,0,0,1-10.04785-3.20508,11.05712,11.05712,0,0,1-4.45215-9.02539v-25.792a10.95473,10.95473,0,0,1,3.12793-7.69336q4.09131-4.33887,11.31153-4.33984a18.83444,18.83444,0,0,1,10.168,3.20508V729.37305H690.4082Zm-10.58886-12.625V761.03418a4.75713,4.75713,0,0,0-1.80469-3.94531,7.97413,7.97413,0,0,0-5.11426-1.77539,7.69162,7.69162,0,0,0-5.5957,2.16992,4.70227,4.70227,0,0,0-1.50391,3.55078v23.03027a5.28131,5.28131,0,0,0,1.68457,3.94532,7.51869,7.51869,0,0,0,5.35449,1.97265,7.01631,7.01631,0,0,0,5.71582-2.46582A5.27209,5.27209,0,0,0,679.81934,784.06445Z"/></g><g><path class="b" d="M270.375,900.69043V833.37305h23.10352a21.08657,21.08657,0,0,1,13.417,4.33984,13.70965,13.70965,0,0,1,5.71582,11.19531v6.8545a11.28187,11.28187,0,0,1-3.4292,7.94042,16.84864,16.84864,0,0,1-4.03125,2.81055,16.47416,16.47416,0,0,1,4.99365,2.66309,11.34894,11.34894,0,0,1,3.66992,8.77832v7.64453q.05932,7.20117-6.91894,11.78613a21.37889,21.37889,0,0,1-11.85254,3.30469Zm11.73242-38.2207h9.4458q4.81275,0,7.40039-2.61328a5.74861,5.74861,0,0,0,1.9253-4.09375v-6.8545a5.76748,5.76748,0,0,0-2.3462-4.58691,9.46045,9.46045,0,0,0-6.25732-2.26856h-10.168Zm0,29.541H294.02a8.39366,8.39366,0,0,0,5.53516-1.67676,6.13045,6.13045,0,0,0,2.52734-4.73437v-7.64453a6.0443,6.0443,0,0,0-1.92529-4.48731,7.7033,7.7033,0,0,0-5.71582-2.31836h-12.334Z"/><path class="b" d="M328.169,900.69043v-48.084H338.7583v27.124l13.71826-27.124h10.58887v48.084H352.47656v-27.124l-13.71826,27.124Z"/><path class="b" d="M387.76953,900.69043v10.35645h-9.86719V892.55273h3.42871l10.9502-39.94628h11.91309l11.13086,39.94628h4.57226v18.49415h-9.86719V900.69043Zm4.03027-8.1377h12.81543l-6.49707-22.78418Z"/><path class="b" d="M433.58984,900.69043v-48.084h10.58985v27.124l13.71777-27.124h10.58887v48.084H457.89746v-27.124l-13.71777,27.124Z"/><path class="b" d="M509.07422,872.38281V852.60645h10.58887v48.084H509.07422V880.7666H495.35645v19.92383H484.7666v-48.084h10.58985v19.77636Z"/></g><g><path class="b" d="M318.72852,930.74316l-17.14747,67.31641h-14.5l-17.6289-67.31641h12.39453l12.4541,47.98438,12.39453-47.98438Z"/><path class="b" d="M331.69922,998.05957v-48.083h10.58887v48.083Zm.481-57.70019V932.666h9.38623v7.69336Z"/><path class="b" d="M393.22363,998.05957H382.63477V995.791a16.69651,16.69651,0,0,1-10.10743,3.25488,15.63,15.63,0,0,1-10.04785-3.20508,11.05715,11.05715,0,0,1-4.45215-9.02539v-25.792a10.95473,10.95473,0,0,1,3.12793-7.69336q4.09131-4.33887,11.31153-4.33985a18.83447,18.83447,0,0,1,10.168,3.20508V930.74316h10.58886Zm-10.58886-12.625V962.4043a4.75716,4.75716,0,0,0-1.80469-3.94532,7.97421,7.97421,0,0,0-5.11426-1.77539,7.69163,7.69163,0,0,0-5.5957,2.16993,4.70227,4.70227,0,0,0-1.50391,3.55078v23.03027a5.28127,5.28127,0,0,0,1.68457,3.94531,7.51869,7.51869,0,0,0,5.35449,1.97266,7.01631,7.01631,0,0,0,5.71582-2.46582A5.27211,5.27211,0,0,0,382.63477,985.43457Z"/><path class="b" d="M410.7666,998.05957v-48.083h10.58985v48.083Zm.48145-57.70019V932.666h9.38574v7.69336Z"/><path class="b" d="M438.83984,998.05957v-48.083h10.58985v2.16992a17.036,17.036,0,0,1,9.86719-3.15625,15.28436,15.28436,0,0,1,11.31054,4.33985,10.52512,10.52512,0,0,1,3.42969,7.64355v37.08594H463.44824V962.50293a4.97966,4.97966,0,0,0-1.5039-3.69922,7.38415,7.38415,0,0,0-5.47559-2.12012,7.26275,7.26275,0,0,0-5.71582,2.36719,5.13241,5.13241,0,0,0-1.32324,3.45215v35.55664Z"/></g></g><g><g><rect class="a" x="110" y="135" width="110" height="74" rx="10"/><path class="b" d="M210,139a6.0068,6.0068,0,0,1,6,6v54a6.0068,6.0068,0,0,1-6,6H120a6.0068,6.0068,0,0,1-6-6V145a6.0068,6.0068,0,0,1,6-6h90m0-4H120a10,10,0,0,0-10,10v54a10,10,0,0,0,10,10h90a10,10,0,0,0,10-10V145a10,10,0,0,0-10-10Z"/></g><g><path class="b" d="M141.17505,189.05957l-1.31641,4.91895h-7.78271l11.53857-43.32227h8.59619l11.57715,43.32227H155.928l-1.47168-4.91895Zm11.81006-5.58594L147.79663,163.669l-5.07275,19.80468Z"/><path class="b" d="M180.11255,188.39258h17.81152v5.58594H171.51636v-5.58594l17.26953-25.3584a4.953,4.953,0,0,0,.9292-2.88867,3.98114,3.98114,0,0,0-1.04541-2.72949,5.85461,5.85461,0,0,0-4.53028-1.8086,5.69322,5.69322,0,0,0-3.79492,1.26953,5.17562,5.17562,0,0,0-2.05224,4.15723v.8252h-7.5503v-.8252a9.44794,9.44794,0,0,1,2.63282-6.53809,13.21958,13.21958,0,0,1,4.60791-3.20507,15.28213,15.28213,0,0,1,6.11767-1.26954,14.50226,14.50226,0,0,1,7.20215,1.84082,11.49823,11.49823,0,0,1,4.53027,4.34766,9.29921,9.29921,0,0,1,1.3169,4.76074,9.48778,9.48778,0,0,1-1.85889,5.49121Z"/></g></g><g><g><rect class="d" x="624" y="404" width="126" height="126" rx="6"/><path class="b" d="M744,400H630a10.00362,10.00362,0,0,0-10,10V524a10.00362,10.00362,0,0,0,10,10H744a10.00362,10.00362,0,0,0,10-10V410A10.00362,10.00362,0,0,0,744,400Zm6,124a6.00475,6.00475,0,0,1-6,6H630a6.00475,6.00475,0,0,1-6-6V469H750ZM624,465V410a6.00475,6.00475,0,0,1,6-6H744a6.00475,6.00475,0,0,1,6,6v55Z"/></g><path class="b" d="M694.69434,413.37891v43.32324h-7.55079V423.63086h-4.41406v-3.68164l4.41406-6.57031Z"/><g><path class="b" d="M634.73633,521.72363V478.40088h24.93652v5.58594H642.28711V496.936h11.5V502.522h-11.5V516.1377h17.38574v5.58593Z"/><path class="b" d="M695.73145,483.98682H684.19336v2.8247h-7.55078v-8.41064h27.18164v5.58594l-19.63086,37.73681h-7.7832Z"/><path class="b" d="M731.72559,501.2207a31.64366,31.64366,0,0,1-3.0586,1.14258,13.69973,13.69973,0,0,1-3.91113.50781q-6.27246,0-9.835-3.55468a8.93533,8.93533,0,0,1-2.82617-6.50635v-3.68164a9.83911,9.83911,0,0,1,3.21386-7.36328,14.39441,14.39441,0,0,1,10.416-3.999,15.22745,15.22745,0,0,1,8.90527,2.63428,10.01758,10.01758,0,0,1,4.64649,8.728v21.96289a9.8419,9.8419,0,0,1-1.89746,6.062,11.90379,11.90379,0,0,1-4.64649,3.6499,16.367,16.367,0,0,1-7.00781,1.55518,15.048,15.048,0,0,1-8.63477-2.53906q-4.9951-3.33252-4.99511-8.728v-1.71387h7.55078v2.44385a4.30988,4.30988,0,0,0,1.39355,3.11035,6.171,6.171,0,0,0,4.64649,1.84082,6.36436,6.36436,0,0,0,5.11133-2.12646,4.177,4.177,0,0,0,.92871-2.82471Zm0-8.41064v-4.22119a4.795,4.795,0,0,0-1.084-3.17383,6.08256,6.08256,0,0,0-4.917-2.063,6.33469,6.33469,0,0,0-4.80176,1.9043,4.62634,4.62634,0,0,0-1.27734,3.33252v4.22119a4.621,4.621,0,0,0,1.27734,3.07861,6.08138,6.08138,0,0,0,4.87891,2.03125,6.66662,6.66662,0,0,0,3.5625-.95215A4.62228,4.62228,0,0,0,731.72559,492.81006Z"/></g></g><g><path class="b" d="M642.85059,1138.0791v16.61426a28.14583,28.14583,0,0,1,10.10351-2.07031,23.34744,23.34744,0,0,1,12.06055,3.15722q7.82813,4.55567,7.83008,13.40528v12.88769a15.83112,15.83112,0,0,1-4.4209,11.49024,23.70418,23.70418,0,0,1-9.15528,5.69336,26.08069,26.08069,0,0,1-8.46191,1.39746,24.99287,24.99287,0,0,1-13.82812-3.98535q-8.46242-5.38185-8.46192-14.59571v-2.58789h12.31348v2.58789a9.702,9.702,0,0,0,1.76855,5.95215q2.58839,3.52,8.27149,3.51953a10.49015,10.49015,0,0,0,7.83008-2.95019,6.75468,6.75468,0,0,0,1.83105-4.86524v-14.54394a6.50692,6.50692,0,0,0-2.8418-5.33106,11.36413,11.36413,0,0,0-7.00879-2.17383q-5.36718,0-7.83007,3.15723H630.53711v-35.86816h40.60254v9.10937Z"/><path class="b" d="M691.12988,1182.28027v-35.91992a15.52831,15.52831,0,0,1,3.41016-9.9375,21.56606,21.56606,0,0,1,8.39844-6.21094,25.96066,25.96066,0,0,1,10.6709-2.27734,24.20039,24.20039,0,0,1,14.52343,4.50293q7.32422,5.332,7.32422,13.92285v35.91992a16.02541,16.02541,0,0,1-4.35644,11.17969q-6.56837,7.19532-17.87012,7.19434-10.103,0-16.7334-6.15918A16.09831,16.09831,0,0,1,691.12988,1182.28027Zm32.01465,0v-37.00683a7.6954,7.6954,0,0,0-2.90527-5.84864,9.73267,9.73267,0,0,0-6.75586-2.38085,10.3689,10.3689,0,0,0-8.52442,3.72656,6.90624,6.90624,0,0,0-1.51562,4.50293v38.042a7.11161,7.11161,0,0,0,2.14648,4.96875,10.08081,10.08081,0,0,0,7.83008,3.26074,9.4429,9.4429,0,0,0,8.01953-3.6748A8.788,8.788,0,0,0,723.14453,1182.28027Z"/><path class="b" d="M755.57422,1182.28027v-35.91992a15.52831,15.52831,0,0,1,3.41016-9.9375,21.5661,21.5661,0,0,1,8.39843-6.21094,25.96066,25.96066,0,0,1,10.6709-2.27734,24.20039,24.20039,0,0,1,14.52344,4.50293q7.32422,5.332,7.32422,13.92285v35.91992a16.02538,16.02538,0,0,1-4.35645,11.17969q-6.56835,7.19532-17.87012,7.19434-10.103,0-16.73339-6.15918A16.09827,16.09827,0,0,1,755.57422,1182.28027Zm32.01465,0v-37.00683a7.69537,7.69537,0,0,0-2.90528-5.84864,9.73263,9.73263,0,0,0-6.75586-2.38085,10.36888,10.36888,0,0,0-8.52441,3.72656,6.90624,6.90624,0,0,0-1.51562,4.50293v38.042a7.11161,7.11161,0,0,0,2.14648,4.96875,10.08081,10.08081,0,0,0,7.83008,3.26074,9.4429,9.4429,0,0,0,8.01953-3.6748A8.788,8.788,0,0,0,787.58887,1182.28027Z"/></g><path class="b" d="M569.00067,459.80392a6,6,0,0,1,0,10.39216L495.49,512.64a4.32683,4.32683,0,0,1-6.46-4.23l3.21-28.91H282c-40.8,0-68.57,17.05-84.92,52.13A155.83436,155.83436,0,0,0,186,566.18V1055H146V374.22l-40.21,4.47A5.99835,5.99835,0,0,1,99.93,369.73l60.87382-105.43967a6,6,0,0,1,10.39238,0L232.07,369.73a5.99831,5.99831,0,0,1-5.86,8.96L186,374.22V494.2c22.25-28.7,54.94-43.7,96-43.7H492.24l-3.21-28.91a4.32683,4.32683,0,0,1,6.46-4.23Z"/></svg>