<?xml version="1.0" encoding="UTF-8"?>
<svg width="139.3" height="79.73" version="1.1" viewBox="0 0 139.3 79.73" xml:space="preserve" xmlns="http://www.w3.org/2000/svg"><g transform="matrix(1.333 0 0 -1.333 .0553 79.73)"><g transform="translate(104.3,49.75)"><path d="m0 0c0 5.479-4.445 9.921-9.924 9.921h-84.326c-5.48 0-9.95-4.442-9.95-9.921v-39.69c0-5.48 4.46-9.93 9.95-9.92h84.329c5.48 0 9.921 4.45 9.921 9.92v39.69" fill="#fff"/></g><g transform="translate(104.3,49.75)"><path d="m0 0c0 5.479-4.445 9.921-9.924 9.921h-84.326c-5.48 0-9.95-4.442-9.95-9.921v-39.69c0-5.48 4.46-9.93 9.95-9.92h84.329c5.48 0 9.921 4.45 9.921 9.92v39.69" fill="none" stroke="#231f20" stroke-linejoin="round" stroke-width=".283"/></g><g transform="translate(52.19,57.34)"><path d="m0 0-42.94-6.778c-2.41-0.378-4.19-2.455-4.19-4.902v-31.2c0-2.45 1.78-4.53 4.19-4.9l42.94-6.78 42.94 6.78c2.41 0.38 4.18 2.45 4.18 4.9v31.2c0 2.443-1.77 4.52-4.18 4.902l-42.94 6.778" fill="#ef2c30"/></g><g transform="translate(42.72,12.68)"><path d="m0 0h18.95v4.424h-13.032l1.293 1.393c1.544 1.693 3.029 3.435 4.429 5.223 1.34 1.74 2.53 3.53 3.58 5.28 1.04 1.74 1.84 3.43 2.44 5.12 0.59 1.64 0.89 3.23 0.89 4.72 0 1.25-0.2 2.39-0.55 3.49-0.39 1.09-0.99 2.04-1.74 2.88-0.79 0.8-1.79 1.45-2.93 1.94-1.19 0.45-2.59 0.7-4.179 0.7-1.642 0-3.182-0.2-4.525-0.55-1.393-0.39-2.686-0.89-3.831-1.49l0.548-5.08c0.795 0.65 1.789 1.3 2.934 1.85 1.144 0.54 2.437 0.84 3.881 0.84 1.537 0 2.782-0.5 3.632-1.54 0.84-1.04 1.29-2.34 1.29-3.98 0-1.14-0.25-2.39-0.75-3.73-0.54-1.35-1.24-2.79-2.18-4.23-0.948-1.49-2.043-3.03-3.285-4.67-1.296-1.65-2.685-3.338-4.23-5.08l-2.635-3.035v-4.475" fill="#fff"/></g></g></svg>
