<?xml version="1.0" encoding="UTF-8" standalone="no"?>
<svg
   xmlns:dc="http://purl.org/dc/elements/1.1/"
   xmlns:cc="http://creativecommons.org/ns#"
   xmlns:rdf="http://www.w3.org/1999/02/22-rdf-syntax-ns#"
   xmlns:svg="http://www.w3.org/2000/svg"
   xmlns="http://www.w3.org/2000/svg"
   viewBox="0 0 192.75999 47.240002"
   height="47.240002"
   width="192.75999"
   xml:space="preserve"
   id="svg2"
   version="1.1"><metadata
     id="metadata8"><rdf:RDF><cc:Work
         rdf:about=""><dc:format>image/svg+xml</dc:format><dc:type
           rdf:resource="http://purl.org/dc/dcmitype/StillImage" /></cc:Work></rdf:RDF></metadata><defs
     id="defs6" /><g
     transform="matrix(1.3333333,0,0,-1.3333333,0,47.24)"
     id="g10"><g
       transform="scale(0.1)"
       id="g12"><path
         id="path14"
         style="fill:#231f20;fill-opacity:1;fill-rule:nonzero;stroke:none"
         d="m 0,0 h 1133.86 l 311.8,177.082 -311.8,177.262 H 0 V 0" /><path
         id="path16"
         style="fill:#f6842a;fill-opacity:1;fill-rule:nonzero;stroke:none"
         d="M 21.2422,21.2773 H 1128.2 L 1289.74,177.117 1128.2,333.07 H 21.2422 V 21.2773" /><path
         id="path18"
         style="fill:#231f20;fill-opacity:1;fill-rule:nonzero;stroke:none"
         d="m 178.273,92.1563 h 95.793 V 117.43 H 208.98 V 290.555 H 178.273 V 92.1563" /><path
         id="path20"
         style="fill:#231f20;fill-opacity:1;fill-rule:nonzero;stroke:none"
         d="m 369.43,92.1563 h 27.867 v 0 c -0.289,4.25 -0.578,8.7887 -0.867,13.6447 -0.254,4.543 -0.254,9.367 -0.254,14.183 v 117.977 h -29.59 v -85.539 c 0,-11.375 -2.266,-20.484 -6.512,-27.285 -4.289,-6.844 -11.379,-10.262 -20.777,-10.262 -7.664,0 -13.067,2.555 -16.774,7.668 -3.671,5.148 -5.687,13.391 -5.687,24.73 v 90.688 h -29.555 v -97.492 c 0,-15.332 3.418,-27.578 10.223,-36.68 6.836,-9.0702 17.637,-13.6132 32.434,-13.6132 9.937,0 17.894,2.2344 23.871,7.0976 5.687,4.5316 10.222,10.2146 13.929,17.0236 h 0.578 l 1.114,-22.1407 v 0" /><path
         id="path22"
         style="fill:#231f20;fill-opacity:1;fill-rule:nonzero;stroke:none"
         d="m 439.273,65.7305 -1.695,-27.5782 v 0 c 4.824,-1.9726 11.633,-3.9531 20.16,-5.9648 8.532,-1.9805 17.356,-3.1367 26.172,-3.1367 21.602,0 37.801,5.9765 48.602,17.6367 10.801,11.6719 16.199,28.4414 16.199,50.0117 V 213.227 c 0,4.285 0.289,8.242 0.578,12.531 0.285,4.242 0.285,8.242 0.574,12.203 h -27.289 v 0 c 0,-0.832 0,-2.563 0,-4.539 -0.289,-1.981 -0.289,-4.246 -0.578,-6.551 -0.285,-2.266 -0.285,-4.25 -0.285,-6.226 -0.289,-2.016 -0.289,-3.711 -0.289,-4.575 h -0.863 v 0 c -3.672,6.551 -8.496,12.239 -14.469,17.067 -5.977,4.57 -13.36,6.84 -22.465,6.84 -8.82,0 -16.777,-1.731 -23.332,-5.403 -6.512,-3.711 -12.203,-8.535 -16.484,-15.082 -4.246,-6.519 -7.672,-14.512 -9.649,-23.586 -2.269,-9.394 -3.422,-19.617 -3.422,-30.996 0,-13.64 1.442,-25.019 4.575,-34.379 2.808,-9.394 6.515,-17.062 11.339,-22.75 4.856,-5.976 10.258,-9.9685 16.2,-12.5271 5.976,-2.5586 12.242,-3.9258 18.5,-3.9258 9.937,0 17.898,2.2344 23.875,7.0586 5.976,4.5743 10.793,10.2543 14.503,17.3553 h 0.579 V 97.5586 c 0,-5.9375 -0.579,-11.9141 -1.731,-17.3164 -1.406,-5.3984 -3.418,-9.9688 -6.262,-13.9336 -3.097,-3.9961 -7.089,-7.1289 -12.203,-9.6758 -5.113,-2.2773 -11.664,-3.3906 -19.332,-3.3906 -7.957,0 -15.625,1.4062 -23.328,3.9648 -7.668,2.8438 -13.644,5.6836 -18.18,8.5235 v 0" /><path
         id="path24"
         style="fill:#231f20;fill-opacity:1;fill-rule:nonzero;stroke:none"
         d="m 667.617,92.1563 h 26.715 v 0 c -0.289,2.5625 -0.832,6.2304 -1.117,10.5117 -0.289,4.246 -0.578,8.789 -0.578,13.648 v 69.622 c 0,9.683 -0.864,17.64 -2.84,23.906 -1.984,6.226 -5.113,11.375 -8.82,15.625 -3.133,3.707 -8.247,7.09 -15.047,10.219 -6.844,2.847 -15.66,4.289 -26.75,4.289 -9.36,0 -17.602,-1.153 -24.731,-3.426 -7.094,-2.266 -13.648,-4.824 -19.043,-7.953 v 0 l 2.266,-25.305 v 0 c 3.707,3.703 9.105,7.09 16.199,10.223 6.844,2.839 14.219,4.281 22.461,4.281 10.516,0 17.93,-2.84 22.469,-8.531 2.265,-2.844 3.992,-5.973 4.824,-9.399 0.863,-3.672 1.152,-7.664 1.152,-12.199 v -5.98 h -10.515 v 0 c -23.617,0 -41.797,-3.993 -54.035,-11.665 -12.168,-7.953 -18.43,-20.441 -18.43,-37.507 0,-6.84 1.152,-12.821 3.418,-18.219 2.265,-5.402 5.367,-9.649 9.359,-13.352 3.672,-3.6716 8.242,-6.2262 13.356,-7.9567 5.113,-1.9414 10.511,-2.8125 16.488,-2.8125 10.801,0 19.332,2.2344 25.852,6.8047 6.261,4.2495 11.371,9.3595 15.082,15.0505 h 0.578 v 0 c 0,-0.832 0,-2.265 0.246,-4.25 0,-1.98 0,-3.992 0.289,-5.976 0.289,-1.9808 0.289,-3.9925 0.578,-5.68 0.285,-1.9844 0.285,-3.1367 0.574,-3.9687 v 0" /><path
         id="path26"
         style="fill:#231f20;fill-opacity:1;fill-rule:nonzero;stroke:none"
         d="m 733.684,92.1563 h 29.55 v 86.4027 c 0,11.379 2.266,20.484 7.09,26.996 4.578,6.554 11.375,9.687 20.781,9.687 7.665,0 13.067,-2.558 16.766,-7.668 3.43,-5.148 5.117,-13.39 5.117,-24.73 V 92.1563 h 29.551 v 97.4917 c 0,15.332 -3.418,27.575 -10.223,36.68 -6.836,9.07 -17.636,13.649 -32.394,13.649 -8.535,0 -15.945,-2.016 -22.469,-6.266 -6.555,-4.246 -11.66,-10.227 -15.371,-17.891 h -0.539 v 0 c 0,0.825 0,2.555 0,4.535 -0.293,1.981 -0.293,4.25 -0.574,6.516 -0.293,2.305 -0.293,4.57 -0.293,6.551 -0.285,1.976 -0.285,3.707 -0.285,4.539 h -27.86 v 0 c 0.282,-4.25 0.574,-8.785 0.86,-13.356 0.293,-4.824 0.293,-9.648 0.293,-14.472 V 92.1563" /><path
         id="path28"
         style="fill:#231f20;fill-opacity:1;fill-rule:nonzero;stroke:none"
         d="m 893.047,107.781 c 5.402,-5.976 11.926,-10.5076 19.621,-13.3552 7.383,-2.8047 15.34,-4.25 23.875,-4.25 8.527,0 16.484,1.4453 24.152,4.25 7.383,2.8476 13.934,7.3792 19.336,13.3552 5.399,5.981 9.93,13.645 13.067,23.004 3.132,9.395 4.824,21.059 4.824,34.414 v 0 c 0,13.071 -1.692,24.449 -4.824,33.844 -3.137,9.359 -7.668,17.312 -13.067,23.293 -5.402,5.973 -11.953,10.512 -19.336,13.352 -7.668,2.847 -15.625,4.289 -24.152,4.289 -8.535,0 -16.492,-1.442 -23.875,-4.289 -7.695,-2.84 -14.219,-7.379 -19.621,-13.352 -5.399,-5.981 -9.969,-13.934 -13.094,-23.293 -3.098,-9.395 -4.824,-20.773 -4.824,-33.844 0,-13.355 1.726,-25.019 4.824,-34.414 3.125,-9.359 7.695,-17.023 13.094,-23.004 v 0" /><path
         id="path30"
         style="fill:#f6842a;fill-opacity:1;fill-rule:nonzero;stroke:none"
         d="m 468.285,126.539 c -4.855,8.242 -7.414,21.313 -7.414,39.238 0,16.778 2.27,29.274 6.84,38.09 4.246,8.531 11.629,12.778 21.891,13.067 9.648,0 17.062,-4.25 22.461,-12.778 5.109,-8.535 7.667,-21.312 7.667,-38.093 v 0 c 0,-17.637 -2.558,-30.708 -7.414,-39.239 -4.824,-8.816 -12.781,-13.062 -23.867,-13.062 -8.531,0 -15.34,4.246 -20.164,12.777 v 0" /><path
         id="path32"
         style="fill:#f6842a;fill-opacity:1;fill-rule:nonzero;stroke:none"
         d="m 664.777,163.512 v -13.106 c 0,-11.629 -2.558,-21.019 -7.672,-28.117 -5.394,-7.414 -13.066,-11.09 -23.613,-11.09 -7.668,0 -13.355,2.27 -17.316,6.516 -3.996,4.289 -5.977,10.23 -5.977,17.351 0,9.653 3.672,16.778 11.379,21.606 7.664,4.82 18.754,7.094 33.262,7.094 1.691,0 3.383,0 5.398,0 1.981,0 3.672,0 4.539,-0.254 v 0" /><path
         id="path34"
         style="fill:#f6842a;fill-opacity:1;fill-rule:nonzero;stroke:none"
         d="m 912.668,127.402 c -2.59,4.825 -4.277,10.227 -5.148,16.778 -1.114,6.511 -1.688,13.355 -1.688,21.019 0,7.672 0.574,14.512 1.688,21.028 0.871,6.55 2.558,11.953 5.148,16.777 2.559,4.57 5.652,8.242 9.648,10.801 3.711,2.55 8.536,3.992 14.227,3.992 5.684,0 10.508,-1.442 14.504,-3.992 3.672,-2.559 6.805,-6.231 9.363,-10.801 2.551,-4.824 4.278,-10.227 5.403,-16.777 0.859,-6.516 1.433,-13.356 1.433,-21.028 v 0 c 0,-7.664 -0.574,-14.508 -1.433,-21.019 -1.125,-6.551 -2.852,-11.953 -5.403,-16.778 -2.558,-4.859 -5.691,-8.535 -9.363,-11.086 -3.996,-2.554 -8.82,-4.003 -14.504,-4.003 -5.691,0 -10.516,1.449 -14.227,4.003 -3.996,2.551 -7.089,6.227 -9.648,11.086 v 0" /></g></g></svg>