<?xml version="1.0" encoding="UTF-8" standalone="no"?>
<svg
   xmlns:dc="http://purl.org/dc/elements/1.1/"
   xmlns:cc="http://creativecommons.org/ns#"
   xmlns:rdf="http://www.w3.org/1999/02/22-rdf-syntax-ns#"
   xmlns:svg="http://www.w3.org/2000/svg"
   xmlns="http://www.w3.org/2000/svg"
   viewBox="0 0 94.866669 132.66667"
   height="132.66667"
   width="94.866669"
   xml:space="preserve"
   id="svg2"
   version="1.1"><metadata
     id="metadata8"><rdf:RDF><cc:Work
         rdf:about=""><dc:format>image/svg+xml</dc:format><dc:type
           rdf:resource="http://purl.org/dc/dcmitype/StillImage" /></cc:Work></rdf:RDF></metadata><defs
     id="defs6" /><g
     transform="matrix(1.3333333,0,0,-1.3333333,0,132.66667)"
     id="g10"><g
       transform="scale(0.1)"
       id="g12"><path
         id="path14"
         style="fill:#ffffff;fill-opacity:1;fill-rule:nonzero;stroke:none"
         d="m 1.41797,1.41797 h 708.66 v 992.121 h -708.66 z" /><path
         id="path16"
         style="fill:none;stroke:#231f20;stroke-width:2.83500004;stroke-linecap:butt;stroke-linejoin:miter;stroke-miterlimit:4;stroke-dasharray:none;stroke-opacity:1"
         d="M 1.41797,1.41797 H 710.078 V 993.539 H 1.41797 V 1.41797" /><path
         id="path18"
         style="fill:#231f20;fill-opacity:1;fill-rule:nonzero;stroke:none"
         d="M 15.5859,43.9375 V 951.023 c 0,7.825 2.7696,14.504 8.3047,20.04 5.5391,5.539 12.2188,8.308 20.0391,8.308 H 667.559 v 0 c 7.824,0 14.504,-2.769 20.039,-8.308 5.539,-5.536 8.3,-12.215 8.3,-20.04 V 43.9375 c 0,-7.8242 -2.761,-14.5039 -8.3,-20.0391 -5.535,-5.539 -12.215,-8.3007 -20.039,-8.3007 H 43.9297 v 0 c -7.8203,0 -14.5,2.7617 -20.0391,8.3007 -5.5351,5.5352 -8.3047,12.2149 -8.3047,20.0391 v 0" /><path
         id="path20"
         style="fill:#ffffff;fill-opacity:1;fill-rule:nonzero;stroke:none"
         d="M 29.7617,43.9375 V 951.023 c 0,3.915 1.3867,7.25 4.1563,10.016 2.7656,2.774 6.1054,4.156 10.0117,4.156 H 667.559 v 0 c 3.906,0 7.246,-1.382 10.019,-4.156 2.766,-2.766 4.152,-6.101 4.152,-10.016 V 43.9375 c 0,-3.9102 -1.386,-7.25 -4.152,-10.0195 -2.773,-2.7657 -6.113,-4.1524 -10.019,-4.1524 H 43.9297 v 0 c -3.9063,0 -7.2461,1.3867 -10.0117,4.1524 -2.7696,2.7695 -4.1563,6.1093 -4.1563,10.0195 v 0" /><path
         id="path22"
         style="fill:#231f20;fill-opacity:1;fill-rule:nonzero;stroke:none"
         d="m 195.207,816.387 h 58.566 v 12.636 H 212.41 l 40.649,73.618 v 12.925 H 196.5 V 902.93 h 38.52 l -39.813,-72.649 v -13.894" /><path
         id="path24"
         style="fill:#231f20;fill-opacity:1;fill-rule:nonzero;stroke:none"
         d="m 273.539,828.012 c 3.418,-4.246 7.418,-7.375 12.098,-9.5 4.535,-2.235 9.539,-3.242 14.793,-3.242 5.547,0 10.66,1.007 15.336,3.093 4.679,2.125 8.679,5.262 12.097,9.508 3.383,4.141 6.082,9.543 8.098,15.945 1.836,6.375 2.848,14.039 2.848,22.715 v 0 c 0,8.391 -1.012,15.66 -2.848,21.891 -2.016,6.266 -4.715,11.519 -8.098,15.808 -3.418,4.102 -7.418,7.375 -11.949,9.5 -4.684,2.125 -9.648,3.129 -14.941,3.129 -5.547,0 -10.512,-1.004 -15.196,-3.129 -4.679,-2.125 -8.82,-5.253 -12.238,-9.394 -3.383,-4.246 -6.082,-9.648 -7.957,-16.059 -1.977,-6.375 -2.988,-14.074 -2.988,-22.714 0,-8.391 1.011,-15.661 2.988,-21.891 1.875,-6.258 4.574,-11.52 7.957,-15.66 v 0" /><path
         id="path26"
         style="fill:#231f20;fill-opacity:1;fill-rule:nonzero;stroke:none"
         d="m 354.898,816.387 h 14.184 v 79.304 h 0.293 l 35.098,-79.304 h 18.644 v 99.179 h -14.219 v -79.882 h -0.285 l -35.105,79.882 h -18.61 v -99.179" /><path
         id="path28"
         style="fill:#231f20;fill-opacity:1;fill-rule:nonzero;stroke:none"
         d="m 433.957,816.387 h 15.371 l 7.527,24.84 h 35.958 l 7.531,-24.84 h 15.906 l -32.254,99.179 h -16.777 l -33.262,-99.179 v 0" /><path
         id="path30"
         style="fill:#ffffff;fill-opacity:1;fill-rule:nonzero;stroke:none"
         d="m 284.23,837.555 c -3.847,6.804 -5.683,16.199 -5.683,28.008 0,7.234 0.535,13.355 1.836,18.324 1.144,4.965 2.699,9.105 4.824,12.203 1.977,2.988 4.422,5.293 7.121,6.699 2.703,1.293 5.692,1.977 8.645,1.977 7.129,0 12.527,-3.383 16.343,-10.223 3.704,-6.805 5.539,-16.203 5.539,-28.012 v 0 c 0,-7.234 -0.535,-13.351 -1.687,-18.324 -1.262,-4.965 -2.848,-9.105 -4.824,-12.094 -2.125,-3.129 -4.535,-5.398 -7.27,-6.66 -2.703,-1.441 -5.656,-2.125 -8.644,-2.125 -7.129,0 -12.528,3.387 -16.2,10.227 v 0" /><path
         id="path32"
         style="fill:#ffffff;fill-opacity:1;fill-rule:nonzero;stroke:none"
         d="m 460.559,853.609 14.617,47.918 h 0.285 l 13.789,-47.918 h -28.691 v 0" /><path
         id="path34"
         style="fill:#ee2c30;fill-opacity:1;fill-rule:nonzero;stroke:none"
         d="m 556.223,697.922 c 110.703,-110.699 110.703,-290.18 0,-400.879 -110.703,-110.703 -290.184,-110.703 -400.887,0 -110.6954,110.699 -110.6954,290.18 0,400.879 110.703,110.703 290.184,110.703 400.887,0 v 0" /><path
         id="path36"
         style="fill:#ffffff;fill-opacity:1;fill-rule:nonzero;stroke:none"
         d="M 243.695,649.707 508.008,385.391 v 0 c 9.336,12.629 16.992,26.257 22.941,40.964 9.219,22.739 13.828,46.45 13.828,71.165 0,24.699 -4.582,48.41 -13.828,71.164 -9.523,23.468 -23.351,44.304 -41.515,62.445 -18.145,18.144 -38.973,31.992 -62.45,41.523 -22.754,9.239 -46.464,13.848 -71.183,13.848 -24.696,-0.023 -48.406,-4.637 -71.16,-13.824 -14.688,-5.977 -28.348,-13.61 -40.946,-22.969 v 0" /><path
         id="path38"
         style="fill:#ffffff;fill-opacity:1;fill-rule:nonzero;stroke:none"
         d="m 467.949,345.273 -264.312,264.34 v 0 c -9.36,-12.621 -16.992,-26.254 -22.969,-40.965 -9.188,-22.73 -13.82,-46.464 -13.82,-71.136 0,-24.723 4.609,-48.457 13.847,-71.184 9.504,-23.476 23.352,-44.305 41.496,-62.449 18.172,-18.164 38.977,-31.992 62.473,-41.543 22.754,-9.223 46.441,-13.828 71.16,-13.828 24.723,0 48.434,4.637 71.16,13.828 14.715,5.977 28.348,13.633 40.965,22.937 v 0" /><path
         id="path40"
         style="fill:#1a67bb;fill-opacity:1;fill-rule:nonzero;stroke:none"
         d="m 252.445,648.957 c 10.715,7.352 22.16,13.492 34.336,18.43 22.051,8.937 45.059,13.41 69.032,13.414 23.945,0.012 46.953,-4.469 69.042,-13.426 22.782,-9.25 42.977,-22.672 60.575,-40.27 17.597,-17.597 31.027,-37.796 40.285,-60.589 8.945,-22.028 13.406,-45.036 13.406,-69.032 0,-23.945 -4.461,-46.957 -13.406,-69.027 -4.934,-12.156 -11.074,-23.602 -18.43,-34.348 v 0 l -254.84,254.848 v 0" /><path
         id="path42"
         style="fill:#1a67bb;fill-opacity:1;fill-rule:nonzero;stroke:none"
         d="m 459.172,346.035 c -10.742,-7.363 -22.188,-13.496 -34.348,-18.43 -22.07,-8.941 -45.078,-13.417 -69.027,-13.417 -23.988,0 -46.996,4.476 -69.024,13.417 -22.796,9.258 -42.992,22.688 -60.597,40.286 -17.598,17.597 -31.016,37.793 -40.262,60.578 -8.965,22.082 -13.441,45.094 -13.434,69.035 0.012,23.976 4.477,46.984 13.418,69.035 4.934,12.176 11.079,23.621 18.43,34.336 v 0 l 254.844,-254.84 v 0" /><path
         id="path44"
         style="fill:#231f20;fill-opacity:1;fill-rule:nonzero;stroke:none"
         d="m 146.352,94.082 c 1.367,-2.625 3.164,-4.6484 5.363,-6.1211 2.164,-1.4375 4.789,-2.1601 7.957,-2.1601 3.164,0 5.832,0.7226 8.027,2.2656 2.196,1.4453 3.996,3.4961 5.364,6.082 1.367,2.6016 2.339,5.6954 2.914,9.1836 0.578,3.492 0.902,7.313 0.902,11.453 v 0 c 0,4.141 -0.324,7.949 -0.902,11.516 -0.575,3.496 -1.547,6.59 -2.914,9.179 -1.368,2.594 -3.168,4.649 -5.364,6.192 -2.195,1.441 -4.863,2.195 -8.027,2.195 -3.168,0 -5.867,-0.754 -8.067,-2.195 -2.195,-1.543 -3.886,-3.598 -5.253,-6.192 -1.407,-2.589 -2.375,-5.683 -2.954,-9.179 -0.543,-3.567 -0.863,-7.375 -0.863,-11.516 0,-4.14 0.32,-7.961 0.863,-11.453 0.579,-3.5664 1.547,-6.6601 2.954,-9.25 v 0" /><path
         id="path46"
         style="fill:#231f20;fill-opacity:1;fill-rule:nonzero;stroke:none"
         d="m 181.449,86.457 h 9.578 l 17.207,48.777 v 7.879 h -30.996 v -7.195 h 22.719 L 181.449,86.457 v 0" /><path
         id="path48"
         style="fill:#231f20;fill-opacity:1;fill-rule:nonzero;stroke:none"
         d="m 212.594,86.457 h 8.746 v 9.7813 h -8.746 V 86.457" /><path
         id="path50"
         style="fill:#231f20;fill-opacity:1;fill-rule:nonzero;stroke:none"
         d="m 232.172,94.082 c 1.375,-2.625 3.172,-4.6484 5.367,-6.1211 2.16,-1.4375 4.789,-2.1601 7.953,-2.1601 3.168,0 5.836,0.7226 8.028,2.2656 2.199,1.4453 4,3.4961 5.367,6.082 1.367,2.6016 2.34,5.6954 2.914,9.1836 0.578,3.492 0.906,7.313 0.906,11.453 v 0 c 0,4.141 -0.328,7.949 -0.906,11.516 -0.574,3.496 -1.547,6.59 -2.914,9.179 -1.367,2.594 -3.168,4.649 -5.367,6.192 -2.192,1.441 -4.86,2.195 -8.028,2.195 -3.164,0 -5.863,-0.754 -8.058,-2.195 -2.2,-1.543 -3.887,-3.598 -5.262,-6.192 -1.399,-2.589 -2.371,-5.683 -2.949,-9.179 -0.539,-3.567 -0.864,-7.375 -0.864,-11.516 0,-4.14 0.325,-7.961 0.864,-11.453 0.578,-3.5664 1.55,-6.6601 2.949,-9.25 v 0" /><path
         id="path52"
         style="fill:#231f20;fill-opacity:1;fill-rule:nonzero;stroke:none"
         d="m 272.027,94.082 c 1.368,-2.625 3.168,-4.6484 5.368,-6.1211 2.156,-1.4375 4.785,-2.1601 7.953,-2.1601 3.168,0 5.828,0.7226 8.027,2.2656 2.195,1.4453 4,3.4961 5.367,6.082 1.367,2.6016 2.336,5.6954 2.914,9.1836 0.574,3.492 0.899,7.313 0.899,11.453 v 0 c 0,4.141 -0.325,7.949 -0.899,11.516 -0.578,3.496 -1.547,6.59 -2.914,9.179 -1.367,2.594 -3.172,4.649 -5.367,6.192 -2.199,1.441 -4.859,2.195 -8.027,2.195 -3.168,0 -5.871,-0.754 -8.067,-2.195 -2.191,-1.543 -3.886,-3.598 -5.254,-6.192 -1.402,-2.589 -2.379,-5.683 -2.953,-9.179 -0.539,-3.567 -0.859,-7.375 -0.859,-11.516 0,-4.14 0.32,-7.961 0.859,-11.453 0.574,-3.5664 1.551,-6.6601 2.953,-9.25 v 0" /><path
         id="path54"
         style="fill:#231f20;fill-opacity:1;fill-rule:nonzero;stroke:none"
         d="m 322.172,105.852 h 18.183 v 7.058 h -18.183 v -7.058" /><path
         id="path56"
         style="fill:#231f20;fill-opacity:1;fill-rule:nonzero;stroke:none"
         d="m 368.828,86.457 h 8.606 v 56.656 h -7.524 l -12.672,-11.519 4.219,-6.086 7.371,7.558 V 86.457" /><path
         id="path58"
         style="fill:#231f20;fill-opacity:1;fill-rule:nonzero;stroke:none"
         d="m 386.035,87.5664 c 1.125,-0.3984 2.492,-0.7891 4.219,-1.1875 1.691,-0.3945 3.566,-0.5781 5.754,-0.5781 4.004,0 7.312,0.7226 10.086,2.2656 2.656,1.5156 4.933,3.6445 6.66,6.4141 1.691,2.7656 2.91,6.0855 3.633,9.9725 0.754,3.809 1.152,8.137 1.152,12.852 v 0 c 0,3.886 -0.32,7.453 -0.898,10.722 -0.575,3.243 -1.551,6.082 -2.918,8.43 -1.368,2.371 -3.164,4.141 -5.364,5.438 -2.265,1.328 -5.039,1.972 -8.347,1.972 -5.039,0 -9.043,-1.648 -12.032,-4.89 -3.019,-3.247 -4.464,-7.883 -4.464,-13.789 0,-2.7 0.402,-5.11 1.125,-7.305 0.711,-2.199 1.726,-4.145 3.093,-5.695 1.289,-1.543 2.844,-2.774 4.719,-3.672 1.758,-0.899 3.809,-1.368 6.004,-1.368 2.668,0 4.934,0.579 6.738,1.77 1.692,1.148 3.098,2.691 4.063,4.566 v 0 l 0.148,-0.066 v 0 c -0.078,-2.52 -0.324,-5.039 -0.793,-7.488 -0.508,-2.524 -1.297,-4.719 -2.383,-6.6605 -1.113,-1.9453 -2.585,-3.4961 -4.277,-4.7187 -1.726,-1.2188 -3.926,-1.875 -6.445,-1.875 -1.836,0 -3.563,0.2539 -5.117,0.832 -1.543,0.4688 -2.84,1.043 -3.887,1.6211 v 0 l -0.469,-7.5625 v 0" /><path
         id="path60"
         style="fill:#231f20;fill-opacity:1;fill-rule:nonzero;stroke:none"
         d="m 424.375,86.457 h 8.75 v 9.7813 h -8.75 V 86.457" /><path
         id="path62"
         style="fill:#231f20;fill-opacity:1;fill-rule:nonzero;stroke:none"
         d="m 443.965,94.082 c 1.367,-2.625 3.164,-4.6484 5.363,-6.1211 2.156,-1.4375 4.785,-2.1601 7.957,-2.1601 3.164,0 5.832,0.7226 8.028,2.2656 2.199,1.4453 3.996,3.4961 5.363,6.082 1.367,2.6016 2.344,5.6954 2.918,9.1836 0.578,3.492 0.898,7.313 0.898,11.453 v 0 c 0,4.141 -0.32,7.949 -0.898,11.516 -0.574,3.496 -1.551,6.59 -2.918,9.179 -1.367,2.594 -3.164,4.649 -5.363,6.192 -2.196,1.441 -4.864,2.195 -8.028,2.195 -3.172,0 -5.867,-0.754 -8.066,-2.195 -2.196,-1.543 -3.887,-3.598 -5.254,-6.192 -1.406,-2.589 -2.383,-5.683 -2.957,-9.179 -0.539,-3.567 -0.86,-7.375 -0.86,-11.516 0,-4.14 0.321,-7.961 0.86,-11.453 0.574,-3.5664 1.551,-6.6601 2.957,-9.25 v 0" /><path
         id="path64"
         style="fill:#231f20;fill-opacity:1;fill-rule:nonzero;stroke:none"
         d="m 483.82,94.082 c 1.368,-2.625 3.164,-4.6484 5.36,-6.1211 2.16,-1.4375 4.785,-2.1601 7.961,-2.1601 3.164,0 5.828,0.7226 8.027,2.2656 2.195,1.4453 3.992,3.4961 5.359,6.082 1.368,2.6016 2.344,5.6954 2.922,9.1836 0.574,3.492 0.899,7.313 0.899,11.453 v 0 c 0,4.141 -0.325,7.949 -0.899,11.516 -0.578,3.496 -1.554,6.59 -2.922,9.179 -1.367,2.594 -3.164,4.649 -5.359,6.192 -2.199,1.441 -4.863,2.195 -8.027,2.195 -3.176,0 -5.871,-0.754 -8.067,-2.195 -2.199,-1.543 -3.886,-3.598 -5.254,-6.192 -1.41,-2.589 -2.382,-5.683 -2.961,-9.179 -0.535,-3.567 -0.859,-7.375 -0.859,-11.516 0,-4.14 0.324,-7.961 0.859,-11.453 0.579,-3.5664 1.551,-6.6601 2.961,-9.25 v 0" /><path
         id="path66"
         style="fill:#231f20;fill-opacity:1;fill-rule:nonzero;stroke:none"
         d="m 537.813,86.457 h 8.429 v 24.656 c 0,3.274 0.645,5.867 2.051,7.735 1.297,1.875 3.242,2.734 5.906,2.734 2.188,0 3.742,-0.715 4.785,-2.156 1.008,-1.477 1.477,-3.852 1.477,-7.09 V 86.457 h 8.457 v 27.82 c 0,4.395 -0.969,7.879 -2.949,10.481 -1.946,2.625 -5,3.926 -9.25,3.926 -2.742,0 -4.934,-0.657 -6.485,-1.875 -1.621,-1.301 -2.918,-2.707 -3.816,-4.25 h -0.176 v 24.804 h -8.429 V 86.457" /><path
         id="path68"
         style="fill:#ffffff;fill-opacity:1;fill-rule:nonzero;stroke:none"
         d="m 153.012,98.3672 c -1.227,3.8128 -1.875,9.3598 -1.875,16.4178 0,7.051 0.648,12.598 1.875,16.485 1.187,3.886 3.492,5.832 6.66,5.832 3.238,0 5.508,-1.946 6.73,-5.762 1.227,-3.891 1.875,-9.426 1.875,-16.555 v 0 c 0,-7.058 -0.648,-12.605 -1.875,-16.4178 -1.293,-3.8867 -3.566,-5.8281 -6.73,-5.8281 -3.168,0 -5.473,1.9414 -6.66,5.8281 v 0" /><path
         id="path70"
         style="fill:#ffffff;fill-opacity:1;fill-rule:nonzero;stroke:none"
         d="m 238.832,98.3672 c -1.219,3.8128 -1.867,9.3598 -1.867,16.4178 0,7.051 0.648,12.598 1.867,16.485 1.191,3.886 3.496,5.832 6.66,5.832 3.242,0 5.508,-1.946 6.735,-5.762 1.226,-3.891 1.871,-9.426 1.871,-16.555 v 0 c 0,-7.058 -0.645,-12.605 -1.871,-16.4178 -1.293,-3.8867 -3.567,-5.8281 -6.735,-5.8281 -3.164,0 -5.469,1.9414 -6.66,5.8281 v 0" /><path
         id="path72"
         style="fill:#ffffff;fill-opacity:1;fill-rule:nonzero;stroke:none"
         d="m 278.688,98.3672 c -1.227,3.8128 -1.872,9.3598 -1.872,16.4178 0,7.051 0.645,12.598 1.872,16.485 1.187,3.886 3.492,5.832 6.66,5.832 3.242,0 5.507,-1.946 6.734,-5.762 1.219,-3.891 1.867,-9.426 1.867,-16.555 v 0 c 0,-7.058 -0.648,-12.605 -1.867,-16.4178 -1.301,-3.8867 -3.566,-5.8281 -6.734,-5.8281 -3.168,0 -5.473,1.9414 -6.66,5.8281 v 0" /><path
         id="path74"
         style="fill:#ffffff;fill-opacity:1;fill-rule:nonzero;stroke:none"
         d="m 396.582,115.039 c -1.074,0.535 -1.863,1.438 -2.519,2.52 -0.645,1.035 -1.153,2.265 -1.473,3.632 -0.324,1.368 -0.469,2.774 -0.469,4.317 0,1.621 0.145,3.176 0.469,4.543 0.32,1.367 0.828,2.691 1.551,3.738 0.644,1.047 1.476,1.875 2.519,2.449 0.969,0.539 2.199,0.864 3.567,0.864 1.406,0 2.625,-0.325 3.671,-0.864 1.043,-0.574 1.875,-1.402 2.52,-2.449 0.645,-1.047 1.113,-2.371 1.434,-3.738 0.324,-1.367 0.507,-2.922 0.507,-4.543 v 0 c 0,-1.543 -0.183,-3.02 -0.507,-4.383 -0.321,-1.379 -0.789,-2.602 -1.434,-3.676 -0.723,-1.043 -1.555,-1.949 -2.598,-2.527 -1.074,-0.535 -2.187,-0.859 -3.593,-0.859 -1.368,0 -2.598,0.324 -3.645,0.976 v 0" /><path
         id="path76"
         style="fill:#ffffff;fill-opacity:1;fill-rule:nonzero;stroke:none"
         d="m 450.625,98.3672 c -1.23,3.8128 -1.875,9.3598 -1.875,16.4178 0,7.051 0.645,12.598 1.875,16.485 1.184,3.886 3.488,5.832 6.66,5.832 3.242,0 5.508,-1.946 6.731,-5.762 1.218,-3.891 1.875,-9.426 1.875,-16.555 v 0 c 0,-7.058 -0.657,-12.605 -1.875,-16.4178 -1.301,-3.8867 -3.567,-5.8281 -6.731,-5.8281 -3.172,0 -5.476,1.9414 -6.66,5.8281 v 0" /><path
         id="path78"
         style="fill:#ffffff;fill-opacity:1;fill-rule:nonzero;stroke:none"
         d="m 490.48,98.3672 c -1.23,3.8128 -1.875,9.3598 -1.875,16.4178 0,7.051 0.645,12.598 1.875,16.485 1.18,3.886 3.485,5.832 6.661,5.832 3.23,0 5.507,-1.946 6.726,-5.762 1.223,-3.891 1.875,-9.426 1.875,-16.555 v 0 c 0,-7.058 -0.652,-12.605 -1.875,-16.4178 -1.297,-3.8867 -3.562,-5.8281 -6.726,-5.8281 -3.176,0 -5.481,1.9414 -6.661,5.8281 v 0" /></g></g></svg>