<?xml version="1.0" encoding="UTF-8" standalone="no"?>
<svg
   xmlns:dc="http://purl.org/dc/elements/1.1/"
   xmlns:cc="http://creativecommons.org/ns#"
   xmlns:rdf="http://www.w3.org/1999/02/22-rdf-syntax-ns#"
   xmlns:svg="http://www.w3.org/2000/svg"
   xmlns="http://www.w3.org/2000/svg"
   viewBox="0 0 94.866669 132.66667"
   height="132.66667"
   width="94.866669"
   xml:space="preserve"
   id="svg2"
   version="1.1"><metadata
     id="metadata8"><rdf:RDF><cc:Work
         rdf:about=""><dc:format>image/svg+xml</dc:format><dc:type
           rdf:resource="http://purl.org/dc/dcmitype/StillImage" /></cc:Work></rdf:RDF></metadata><defs
     id="defs6" /><g
     transform="matrix(1.3333333,0,0,-1.3333333,0,132.66667)"
     id="g10"><g
       transform="scale(0.1)"
       id="g12"><path
         id="path14"
         style="fill:#ffffff;fill-opacity:1;fill-rule:nonzero;stroke:none"
         d="m 1.41797,1.41797 h 708.66 v 992.121 h -708.66 z" /><path
         id="path16"
         style="fill:none;stroke:#231f20;stroke-width:2.83500004;stroke-linecap:butt;stroke-linejoin:miter;stroke-miterlimit:4;stroke-dasharray:none;stroke-opacity:1"
         d="M 1.41797,1.41797 H 710.078 V 993.539 H 1.41797 V 1.41797" /><path
         id="path18"
         style="fill:#231f20;fill-opacity:1;fill-rule:nonzero;stroke:none"
         d="M 15.5859,43.9375 V 951.023 c 0,7.825 2.7696,14.504 8.3047,20.04 5.5391,5.539 12.2188,8.308 20.0391,8.308 H 667.559 v 0 c 7.824,0 14.504,-2.769 20.039,-8.308 5.539,-5.536 8.3,-12.215 8.3,-20.04 V 43.9375 c 0,-7.8242 -2.761,-14.5039 -8.3,-20.0391 -5.535,-5.539 -12.215,-8.3007 -20.039,-8.3007 H 43.9297 v 0 c -7.8203,0 -14.5,2.7617 -20.0391,8.3007 -5.5351,5.5352 -8.3047,12.2149 -8.3047,20.0391 v 0" /><path
         id="path20"
         style="fill:#ffffff;fill-opacity:1;fill-rule:nonzero;stroke:none"
         d="M 29.7617,43.9375 V 951.023 c 0,3.915 1.3867,7.25 4.1563,10.016 2.7656,2.774 6.1054,4.156 10.0117,4.156 H 667.559 v 0 c 3.906,0 7.246,-1.382 10.019,-4.156 2.766,-2.766 4.152,-6.101 4.152,-10.016 V 43.9375 c 0,-3.9102 -1.386,-7.25 -4.152,-10.0195 -2.773,-2.7657 -6.113,-4.1524 -10.019,-4.1524 H 43.9297 v 0 c -3.9063,0 -7.2461,1.3867 -10.0117,4.1524 -2.7696,2.7695 -4.1563,6.1093 -4.1563,10.0195 v 0" /><path
         id="path22"
         style="fill:#231f20;fill-opacity:1;fill-rule:nonzero;stroke:none"
         d="m 206.074,816.387 h 58.574 v 12.636 h -41.367 l 40.645,73.618 v 12.925 h -56.59 V 902.93 h 38.519 l -39.781,-72.649 v -13.894" /><path
         id="path24"
         style="fill:#231f20;fill-opacity:1;fill-rule:nonzero;stroke:none"
         d="m 284.41,828.012 c 3.422,-4.246 7.383,-7.375 12.098,-9.5 4.539,-2.235 9.504,-3.242 14.758,-3.242 5.547,0 10.66,1.007 15.375,3.093 4.679,2.125 8.636,5.262 12.054,9.508 3.426,4.141 6.125,9.543 8.102,15.945 1.875,6.375 2.848,14.039 2.848,22.715 v 0 c 0,8.391 -0.973,15.66 -2.848,21.891 -1.977,6.266 -4.676,11.519 -8.102,15.808 -3.418,4.102 -7.375,7.375 -11.914,9.5 -4.715,2.125 -9.679,3.129 -14.941,3.129 -5.539,0 -10.508,-1.004 -15.223,-3.129 -4.683,-2.125 -8.785,-5.253 -12.207,-9.394 -3.418,-4.246 -6.117,-9.648 -7.953,-16.059 -1.984,-6.375 -2.988,-14.074 -2.988,-22.714 0,-8.391 1.004,-15.661 2.988,-21.891 1.836,-6.258 4.535,-11.52 7.953,-15.66 v 0" /><path
         id="path26"
         style="fill:#231f20;fill-opacity:1;fill-rule:nonzero;stroke:none"
         d="m 365.734,816.387 h 14.219 v 79.304 h 0.293 l 35.098,-79.304 h 18.613 v 99.179 h -14.219 v -79.882 h -0.293 l -35.097,79.882 h -18.614 v -99.179" /><path
         id="path28"
         style="fill:#231f20;fill-opacity:1;fill-rule:nonzero;stroke:none"
         d="m 454.66,816.387 h 50.723 v 12.636 h -35.391 v 32.254 h 32.149 v 12.672 h -32.149 v 28.981 h 33.836 v 12.636 H 454.66 v -99.179" /><path
         id="path30"
         style="fill:#ffffff;fill-opacity:1;fill-rule:nonzero;stroke:none"
         d="m 295.07,837.555 c -3.855,6.804 -5.691,16.199 -5.691,28.008 0,7.234 0.578,13.355 1.836,18.324 1.152,4.965 2.703,9.105 4.859,12.203 1.985,2.988 4.395,5.293 7.094,6.699 2.695,1.293 5.684,1.977 8.672,1.977 7.098,0 12.496,-3.383 16.348,-10.223 3.707,-6.805 5.542,-16.203 5.542,-28.012 v 0 c 0,-7.234 -0.574,-13.351 -1.687,-18.324 -1.301,-4.965 -2.848,-9.105 -4.863,-12.094 -2.125,-3.129 -4.539,-5.398 -7.239,-6.66 -2.699,-1.441 -5.687,-2.125 -8.675,-2.125 -7.09,0 -12.493,3.387 -16.196,10.227 v 0" /><path
         id="path32"
         style="fill:#ee2c30;fill-opacity:1;fill-rule:nonzero;stroke:none"
         d="M 355.762,780.961 C 199.234,780.961 72.3008,654.027 72.3008,497.5 c 0,-156.531 126.9332,-283.469 283.4612,-283.469 156.535,0 283.468,126.938 283.468,283.469 0,156.527 -126.933,283.461 -283.468,283.461 v 0" /><path
         id="path34"
         style="fill:#ffffff;fill-opacity:1;fill-rule:nonzero;stroke:none"
         d="m 355.777,686.488 c -104.355,0 -188.98,-84.629 -188.98,-188.976 0,-104.36 84.625,-188.977 188.98,-188.977 104.352,0 188.981,84.617 188.981,188.977 0,104.347 -84.629,188.976 -188.981,188.976 v 0" /><path
         id="path36"
         style="fill:#231f20;fill-opacity:1;fill-rule:nonzero;stroke:none"
         d="m 275.375,557.797 -19.766,18.902 v 0 c 0.469,1.008 1.153,2.481 1.696,3.457 3.847,6.91 10.761,11.84 18.031,14.938 6.48,2.738 13.43,4.031 20.484,3.851 8.391,-0.25 16.598,-2.593 23.727,-7.019 7.344,-4.539 13.246,-11.051 16.957,-18.863 3.023,-6.333 4.43,-13.282 4.355,-20.305 -0.105,-8.028 -2.125,-15.945 -6.121,-22.895 -1.55,-2.668 -3.347,-5.152 -5.398,-7.418 -1.836,-2.015 -3.891,-3.851 -6.121,-5.472 -2.125,-1.547 -5.469,-3.493 -7.813,-4.785 2.344,-1.012 5.727,-2.559 7.852,-3.961 2.125,-1.368 4.101,-3.059 5.902,-4.895 2.375,-2.34 4.535,-5.223 6.442,-7.957 3.421,-5.004 6.41,-10.512 8.32,-16.199 1.976,-5.797 2.84,-11.988 2.808,-18.145 -0.074,-7.269 -1.406,-14.398 -4.074,-21.168 -2.265,-5.906 -5.574,-11.418 -9.683,-16.269 -5.18,-6.121 -11.59,-11.055 -18.86,-14.551 -7.453,-3.563 -15.554,-5.574 -23.836,-5.789 -6.839,-0.254 -13.605,0.723 -20.086,2.801 -7.054,2.304 -15.23,6.992 -21.531,10.91 -0.5,0.359 -1.762,1.148 -2.301,1.512 v 0 l 13.106,24.265 10.941,-7.058 v 0 c 2.231,-1.395 4.574,-2.696 7.055,-3.704 1.801,-0.757 3.672,-1.257 5.656,-1.55 3.418,-0.535 7.02,-0.282 10.438,0.429 6.3,1.407 12.062,4.571 16.558,9.145 4.789,4.863 8.102,11.125 8.785,17.93 0.575,6.3 -1.261,12.671 -4.39,18.179 -3.492,6.157 -8.496,11.27 -14.762,14.653 -2.699,1.515 -5.976,2.808 -8.926,3.781 -3.382,1.117 -7.054,2.156 -10.55,2.734 -0.719,0.145 -1.762,0.324 -2.481,0.469 v 0 l -0.039,29.199 v 0 c 0.828,0.031 1.98,0.141 2.848,0.176 3.523,0.289 7.054,0.863 10.511,1.691 3.993,0.942 8.496,2.414 11.805,4.86 3.098,2.199 5.508,5.262 7.238,8.605 2.016,3.852 3.203,8.207 2.914,12.602 -0.289,4.609 -2.089,9.215 -5.613,12.308 -2.519,2.164 -5.871,3.422 -9.18,3.961 -4.429,0.684 -9.109,0.289 -13.035,-1.836 -3.347,-1.836 -6.082,-5 -8.066,-8.277 -0.574,-0.937 -1.293,-2.269 -1.797,-3.242 v 0" /><path
         id="path38"
         style="fill:#231f20;fill-opacity:1;fill-rule:nonzero;stroke:none"
         d="m 413.848,598.688 c 4.062,0 8.261,-0.833 12.148,-2.012 8.535,-2.571 15.82,-8.606 21.203,-15.684 4.676,-6.172 8.114,-13.597 10.547,-20.957 2.363,-7.074 3.992,-14.433 5.098,-21.82 1.113,-7.567 1.699,-15.442 1.98,-23.113 0.274,-8.848 0.176,-17.727 -0.418,-26.579 -0.586,-8.289 -1.593,-16.511 -3.086,-24.668 -1.699,-9.332 -4.132,-18.8 -7.597,-27.617 -3.125,-7.945 -7.676,-16.55 -13.957,-22.312 -7.012,-6.453 -16.106,-10.235 -25.645,-10.547 -8.984,-0.34 -17.898,2.394 -24.98,7.976 -7.637,6.008 -12.95,16.067 -16.309,25.2 -3.23,8.703 -5.449,17.968 -6.914,27.168 -1.277,8.011 -2.109,16.613 -2.703,24.699 -0.559,7.98 -0.938,16.933 -0.586,24.945 0.34,8.192 1.426,16.692 2.812,24.778 1.25,7.109 2.879,14.605 5.067,21.507 2.324,7.395 5.652,14.993 10.305,21.203 5.546,7.426 13.183,13.563 22.097,16.063 3.477,0.973 7.324,1.77 10.938,1.77 v 0" /><path
         id="path40"
         style="fill:#ffffff;fill-opacity:1;fill-rule:nonzero;stroke:none"
         d="m 414.043,570.559 c 2.18,0.066 4.336,-0.418 6.242,-1.457 1.875,-0.973 3.399,-2.747 4.551,-4.477 1.875,-2.914 3.191,-7.043 4.051,-10.41 1.496,-5.723 2.648,-11.586 3.547,-17.453 0.898,-6.035 1.562,-12.176 1.972,-18.285 0.418,-6.282 0.664,-12.559 0.625,-18.836 -0.031,-7.082 -0.343,-14.192 -0.968,-21.274 -0.625,-7.113 -1.629,-14.5 -3.153,-21.437 -1.086,-4.825 -2.5,-9.719 -4.375,-14.297 -0.976,-2.36 -2.226,-4.86 -3.711,-6.942 -1.008,-1.382 -2.258,-2.742 -3.722,-3.711 -1.551,-1.003 -3.399,-1.628 -5.301,-1.738 -2.227,-0.137 -4.516,0.383 -6.36,1.672 -1.316,0.899 -2.531,2.395 -3.425,3.738 -1.426,2.161 -2.637,4.516 -3.645,6.946 -1.875,4.476 -3.164,9.609 -4.062,14.367 -1.25,6.762 -2.079,14.914 -2.637,21.75 -0.527,6.734 -1.004,14.539 -1.004,21.269 0,6.211 0.379,12.528 1.004,18.739 0.625,6.14 1.523,12.316 2.598,18.422 0.976,5.55 2.187,11.378 3.683,16.796 0.965,3.536 2.457,7.77 4.512,10.75 1.18,1.707 2.703,3.407 4.539,4.375 1.531,0.797 3.262,1.387 5.039,1.493 v 0" /></g></g></svg>