<?xml version="1.0" encoding="UTF-8" standalone="no"?>
<!-- Created with Inkscape (http://www.inkscape.org/) -->
<svg
   xmlns:svg="http://www.w3.org/2000/svg"
   xmlns="http://www.w3.org/2000/svg"
   version="1.0"
   width="255.5"
   height="354.75"
   id="svg2"
   xml:space="preserve"><defs
     id="defs5"><clipPath
       id="clipPath19"><path
         d="M 0,0 L 2043.34,0 L 2043.34,2837.51 L 0,2837.51 L 0,0 z"
         id="path21" /></clipPath></defs><g
     transform="matrix(1.25,0,0,-1.25,0,354.75)"
     id="g11"><g
       transform="scale(0.1,0.1)"
       id="g13"><g
         id="g15"><g
           clip-path="url(#clipPath19)"
           id="g17"><path
             d="M 1.07422,1.07031 L 2042.2742,1.07031 L 2042.2742,2836.4403 L 1.07422,2836.4403 L 1.07422,1.07031 z"
             id="path23"
             style="fill:#ffffff;fill-opacity:1;fill-rule:nonzero;stroke:none" /><path
             d="M 1.07422,1.07031 L 2042.2742,1.07031 L 2042.2742,2836.4403 L 1.07422,2836.4403 L 1.07422,1.07031 z"
             id="path25"
             style="fill:none;stroke:#000000;stroke-width:2.1500001;stroke-linecap:butt;stroke-linejoin:miter;stroke-miterlimit:4;stroke-dasharray:none;stroke-opacity:1" /><path
             d="M 1.07422,1.07031 L 2042.2742,1.07031 L 2042.2742,2836.4403 L 1.07422,2836.4403 L 1.07422,1.07031 z"
             id="path27"
             style="fill:#ffffff;fill-opacity:1;fill-rule:nonzero;stroke:none" /><path
             d="M 1.07422,1.07031 L 2042.2742,1.07031 L 2042.2742,2836.4403 L 1.07422,2836.4403 L 1.07422,1.07031 z"
             id="path29"
             style="fill:none;stroke:#000000;stroke-width:2.1500001;stroke-linecap:butt;stroke-linejoin:miter;stroke-miterlimit:4;stroke-dasharray:none;stroke-opacity:1" /><path
             d="M 2019.95,2722.68 L 2019.95,114.828 C 2019.95,63.7188 1980.35,24.1211 1929.23,24.1211 L 114.84,24.1211 C 63.7188,24.1211 24.1094,63.7188 24.1094,114.828 L 24.1094,2722.68 C 24.1094,2773.8 63.7109,2813.4 114.84,2813.4 L 1929.23,2813.4 C 1980.35,2813.4 2019.95,2773.8 2019.95,2722.68"
             id="path31"
             style="fill:#000000;fill-opacity:1;fill-rule:nonzero;stroke:none" /><path
             d="M 2019.95,2722.68 L 2019.95,114.828 C 2019.95,63.7188 1980.35,24.1211 1929.23,24.1211 L 114.84,24.1211 C 63.7188,24.1211 24.1094,63.7188 24.1094,114.828 L 24.1094,2722.68 C 24.1094,2773.8 63.7109,2813.4 114.84,2813.4 L 1929.23,2813.4 C 1980.35,2813.4 2019.95,2773.8 2019.95,2722.68 z"
             id="path33"
             style="fill:none;stroke:#000000;stroke-width:2.1500001;stroke-linecap:butt;stroke-linejoin:miter;stroke-miterlimit:4;stroke-dasharray:none;stroke-opacity:1" /><path
             d="M 69.4688,2722.68 C 69.4688,2748.6 88.9102,2768.04 114.828,2768.04 L 1929.22,2768.04 C 1954.42,2768.04 1974.58,2748.6 1974.58,2722.68 L 1974.58,114.828 C 1974.58,88.918 1954.42,69.4688 1929.22,69.4688 L 114.828,69.4688 C 88.8984,69.4688 69.4688,88.918 69.4688,114.828 L 69.4688,2722.68"
             id="path35"
             style="fill:#ffffff;fill-opacity:1;fill-rule:nonzero;stroke:none" /><path
             d="M 69.4688,2722.68 C 69.4688,2748.6 88.9102,2768.04 114.828,2768.04 L 1929.22,2768.04 C 1954.42,2768.04 1974.58,2748.6 1974.58,2722.68 L 1974.58,114.828 C 1974.58,88.918 1954.42,69.4688 1929.22,69.4688 L 114.828,69.4688 C 88.8984,69.4688 69.4688,88.918 69.4688,114.828 L 69.4688,2722.68 z"
             id="path37"
             style="fill:none;stroke:#000000;stroke-width:2.1500001;stroke-linecap:butt;stroke-linejoin:miter;stroke-miterlimit:4;stroke-dasharray:none;stroke-opacity:1" /><path
             d="M 1727.63,2768.04 L 1929.23,2768.04"
             id="path39"
             style="fill:#ffffff;fill-opacity:1;fill-rule:nonzero;stroke:none" /><path
             d="M 1727.63,2768.04 L 1929.23,2768.04"
             id="path41"
             style="fill:none;stroke:#000000;stroke-width:2.1500001;stroke-linecap:butt;stroke-linejoin:miter;stroke-miterlimit:4;stroke-dasharray:none;stroke-opacity:1" /><path
             d="M 1872.35,1035.71 C 1872.35,1500.84 1489.32,1883.88 1022.03,1883.88 C 556.91,1883.88 173.871,1500.84 173.871,1035.71 C 173.871,568.43 556.91,185.398 1022.03,185.398 C 1489.32,185.398 1872.35,568.43 1872.35,1035.71"
             id="path43"
             style="fill:#a8a29a;fill-opacity:1;fill-rule:nonzero;stroke:none" /><path
             d="M 1872.35,1035.71 C 1872.35,1500.84 1489.32,1883.88 1022.03,1883.88 C 556.91,1883.88 173.871,1500.84 173.871,1035.71 C 173.871,568.43 556.91,185.398 1022.03,185.398 C 1489.32,185.398 1872.35,568.43 1872.35,1035.71 z"
             id="path45"
             style="fill:none;stroke:#a8a29a;stroke-width:2.1500001;stroke-linecap:butt;stroke-linejoin:miter;stroke-miterlimit:4;stroke-dasharray:none;stroke-opacity:1" /><path
             d="M 1393.55,2170.43 L 1393.55,2408.03 C 1393.55,2479.31 1339.56,2533.31 1268.27,2533.31 C 1237.31,2533.31 1206.35,2521.8 1180.43,2501.63 L 1180.43,2524.67 L 1106.99,2524.67 L 1106.99,2170.43 L 1180.43,2170.43 L 1180.43,2394.35 C 1180.43,2487.95 1319.39,2487.95 1319.39,2394.35 L 1319.39,2170.43 L 1393.55,2170.43"
             id="path47"
             style="fill:#a8a29a;fill-opacity:1;fill-rule:nonzero;stroke:none" /><path
             d="M 1393.55,2170.43 L 1393.55,2408.03 C 1393.55,2479.31 1339.56,2533.31 1268.27,2533.31 L 1268.27,2533.31 C 1237.31,2533.31 1206.35,2521.8 1180.43,2501.63 L 1180.43,2524.67 L 1106.99,2524.67 L 1106.99,2170.43 L 1180.43,2170.43 L 1180.43,2394.35 C 1180.43,2487.95 1319.39,2487.95 1319.39,2394.35 L 1319.39,2170.43 L 1393.55,2170.43 z"
             id="path49"
             style="fill:none;stroke:#a8a29a;stroke-width:2.1500001;stroke-linecap:butt;stroke-linejoin:miter;stroke-miterlimit:4;stroke-dasharray:none;stroke-opacity:1" /><path
             d="M 542.512,2170.43 C 451.789,2144.51 352.43,2164.67 281.871,2223.72 L 330.109,2283.48 C 366.828,2255.39 415.07,2238.11 463.309,2238.11 C 477.711,2238.11 494.27,2238.11 508.672,2243.87 C 536.75,2249.63 559.789,2274.83 559.789,2306.51 C 559.789,2331.71 542.512,2354.75 520.191,2365.55 C 505.789,2371.32 491.391,2374.19 477.711,2377.07 L 429.469,2391.47 C 406.43,2397.23 384.109,2405.15 363.949,2419.55 C 276.109,2473.55 281.871,2603.87 375.469,2652.11 C 386.988,2654.99 397.789,2660.75 409.309,2663.63 C 471.949,2683.07 539.629,2677.31 596.512,2646.35 C 610.91,2640.59 621.711,2631.95 633.219,2624.03 L 582.102,2561.39 C 568.422,2572.91 551.141,2581.56 533.859,2586.59 C 517.301,2592.35 500.02,2595.23 482.738,2595.23 C 463.301,2595.23 443.141,2592.35 423.699,2584.43 C 400.66,2578.67 384.102,2555.63 384.102,2530.43 C 384.102,2510.27 397.781,2490.83 415.059,2482.19 C 426.578,2476.43 437.379,2470.67 448.898,2467.79 L 497.141,2456.27 C 520.18,2450.51 539.621,2442.59 559.781,2433.95 C 610.91,2410.91 641.859,2359.79 641.859,2306.51 C 641.859,2243.87 602.262,2186.99 542.5,2170.43"
             id="path51"
             style="fill:#a8a29a;fill-opacity:1;fill-rule:nonzero;stroke:none" /><path
             d="M 542.512,2170.43 C 451.789,2144.51 352.43,2164.67 281.871,2223.72 L 330.109,2283.48 C 366.828,2255.39 415.07,2238.11 463.309,2238.11 C 477.711,2238.11 494.27,2238.11 508.672,2243.87 C 536.75,2249.63 559.789,2274.83 559.789,2306.51 C 559.789,2331.71 542.512,2354.75 520.191,2365.55 C 505.789,2371.32 491.391,2374.19 477.711,2377.07 L 429.469,2391.47 C 406.43,2397.23 384.109,2405.15 363.949,2419.55 C 276.109,2473.55 281.871,2603.87 375.469,2652.11 C 386.988,2654.99 397.789,2660.75 409.309,2663.63 C 471.949,2683.07 539.629,2677.31 596.512,2646.35 C 610.91,2640.59 621.711,2631.95 633.219,2624.03 L 582.102,2561.39 C 568.422,2572.91 551.141,2581.56 533.859,2586.59 C 517.301,2592.35 500.02,2595.23 482.738,2595.23 C 463.301,2595.23 443.141,2592.35 423.699,2584.43 C 400.66,2578.67 384.102,2555.63 384.102,2530.43 C 384.102,2510.27 397.781,2490.83 415.059,2482.19 C 426.578,2476.43 437.379,2470.67 448.898,2467.79 L 497.141,2456.27 C 520.18,2450.51 539.621,2442.59 559.781,2433.95 C 610.91,2410.91 641.859,2359.79 641.859,2306.51 C 641.859,2243.87 602.262,2186.99 542.5,2170.43 L 542.512,2170.43 z"
             id="path53"
             style="fill:none;stroke:#a8a29a;stroke-width:2.1500001;stroke-linecap:butt;stroke-linejoin:miter;stroke-miterlimit:4;stroke-dasharray:none;stroke-opacity:1" /><path
             d="M 732.59,2419.55 C 726.828,2394.35 723.949,2371.32 723.949,2346.11 C 723.949,2323.07 726.828,2297.87 732.59,2274.83 C 749.871,2207.15 808.91,2158.91 877.309,2158.91 C 947.871,2158.91 1007.63,2207.14 1024.92,2274.83 C 1029.95,2297.87 1032.83,2323.07 1032.83,2346.11 C 1032.83,2371.32 1029.95,2394.35 1024.92,2419.55 C 1007.63,2485.07 947.871,2533.31 877.309,2533.31 C 808.91,2533.31 749.871,2485.07 732.59,2419.55"
             id="path55"
             style="fill:#a8a29a;fill-opacity:1;fill-rule:nonzero;stroke:none" /><path
             d="M 732.59,2419.55 C 726.828,2394.35 723.949,2371.32 723.949,2346.11 C 723.949,2323.07 726.828,2297.87 732.59,2274.83 C 749.871,2207.15 808.91,2158.91 877.309,2158.91 C 947.871,2158.91 1007.63,2207.14 1024.92,2274.83 C 1029.95,2297.87 1032.83,2323.07 1032.83,2346.11 C 1032.83,2371.32 1029.95,2394.35 1024.92,2419.55 C 1007.63,2485.07 947.871,2533.31 877.309,2533.31 C 808.91,2533.31 749.871,2485.07 732.59,2419.55 z"
             id="path57"
             style="fill:none;stroke:#a8a29a;stroke-width:2.1500001;stroke-linecap:butt;stroke-linejoin:miter;stroke-miterlimit:4;stroke-dasharray:none;stroke-opacity:1" /><path
             d="M 1617.47,2158.92 C 1551.95,2158.92 1492.19,2204.28 1475.63,2266.2 C 1461.23,2317.32 1461.23,2374.2 1475.63,2425.32 C 1515.23,2570.04 1718.99,2570.04 1756.43,2425.32 C 1764.35,2400.12 1767.23,2374.2 1767.23,2346.12 C 1767.23,2340.36 1767.23,2337.48 1767.23,2331.72 L 1540.43,2331.72 C 1540.43,2311.57 1543.31,2295 1549.08,2277.72 C 1560.59,2249.64 1585.79,2229.48 1617.47,2229.48 C 1651.31,2229.48 1679.39,2246.76 1696.67,2277.72 L 1759.32,2246.76 C 1730.51,2192.77 1676.51,2158.92 1617.47,2158.92"
             id="path59"
             style="fill:#a8a29a;fill-opacity:1;fill-rule:nonzero;stroke:none" /><path
             d="M 1617.47,2158.92 C 1551.95,2158.92 1492.19,2204.28 1475.63,2266.2 C 1461.23,2317.32 1461.23,2374.2 1475.63,2425.32 C 1515.23,2570.04 1718.99,2570.04 1756.43,2425.32 C 1764.35,2400.12 1767.23,2374.2 1767.23,2346.12 C 1767.23,2340.36 1767.23,2337.48 1767.23,2331.72 L 1540.43,2331.72 C 1540.43,2311.57 1543.31,2295 1549.08,2277.72 C 1560.59,2249.64 1585.79,2229.48 1617.47,2229.48 C 1651.31,2229.48 1679.39,2246.76 1696.67,2277.72 L 1759.32,2246.76 C 1730.51,2192.77 1676.51,2158.92 1617.47,2158.92 z"
             id="path61"
             style="fill:none;stroke:#a8a29a;stroke-width:2.1500001;stroke-linecap:butt;stroke-linejoin:miter;stroke-miterlimit:4;stroke-dasharray:none;stroke-opacity:1" /><path
             d="M 806.031,2410.91 C 800.988,2388.59 798.109,2368.43 798.109,2346.11 C 798.109,2323.07 800.988,2303.63 806.031,2283.48 C 817.551,2249.63 846.352,2229.47 877.309,2229.47 C 911.148,2229.47 939.23,2249.63 947.871,2283.48 C 956.512,2303.63 959.391,2325.95 959.391,2346.11 C 959.391,2368.43 956.512,2388.59 947.871,2410.91 C 939.23,2442.59 911.148,2464.91 877.309,2464.91 C 846.352,2464.91 817.551,2442.59 806.031,2410.91"
             id="path63"
             style="fill:#ffffff;fill-opacity:1;fill-rule:nonzero;stroke:none" /><path
             d="M 806.031,2410.91 C 800.988,2388.59 798.109,2368.43 798.109,2346.11 C 798.109,2323.07 800.988,2303.63 806.031,2283.48 C 817.551,2249.63 846.352,2229.47 877.309,2229.47 C 911.148,2229.47 939.23,2249.63 947.871,2283.48 C 956.512,2303.63 959.391,2325.95 959.391,2346.11 C 959.391,2368.43 956.512,2388.59 947.871,2410.91 C 939.23,2442.59 911.148,2464.91 877.309,2464.91 C 846.352,2464.91 817.551,2442.59 806.031,2410.91 z"
             id="path65"
             style="fill:none;stroke:#ffffff;stroke-width:2.1500001;stroke-linecap:butt;stroke-linejoin:miter;stroke-miterlimit:4;stroke-dasharray:none;stroke-opacity:1" /><path
             d="M 1549.08,2413.79 C 1549.08,2408.03 1546.19,2400.11 1543.31,2391.47 L 1688.03,2391.47 C 1688.03,2400.11 1685.15,2408.03 1682.27,2413.79 C 1673.63,2445.47 1645.55,2464.91 1617.47,2464.91 C 1585.79,2464.91 1560.59,2445.47 1549.08,2416.67 L 1549.08,2413.79"
             id="path67"
             style="fill:#ffffff;fill-opacity:1;fill-rule:nonzero;stroke:none" /><path
             d="M 1549.08,2413.79 C 1549.08,2408.03 1546.19,2400.11 1543.31,2391.47 L 1688.03,2391.47 C 1688.03,2400.11 1685.15,2408.03 1682.27,2413.79 C 1673.63,2445.47 1645.55,2464.91 1617.47,2464.91 C 1585.79,2464.91 1560.59,2445.47 1549.08,2416.67 L 1549.08,2413.79 z"
             id="path69"
             style="fill:none;stroke:#ffffff;stroke-width:2.1500001;stroke-linecap:butt;stroke-linejoin:miter;stroke-miterlimit:4;stroke-dasharray:none;stroke-opacity:1" /><path
             d="M 1659.95,1035.71 C 1659.95,1387.79 1373.39,1670.75 1022.03,1670.75 C 672.828,1670.75 386.988,1387.79 386.988,1035.71 C 386.988,684.359 672.828,397.789 1022.03,397.789 C 1373.39,397.789 1659.95,684.359 1659.95,1035.71"
             id="path71"
             style="fill:#ffffff;fill-opacity:1;fill-rule:nonzero;stroke:none" /><path
             d="M 1659.95,1035.71 C 1659.95,1387.79 1373.39,1670.75 1022.03,1670.75 C 672.828,1670.75 386.988,1387.79 386.988,1035.71 C 386.988,684.359 672.828,397.789 1022.03,397.789 C 1373.39,397.789 1659.95,684.359 1659.95,1035.71 z"
             id="path73"
             style="fill:none;stroke:#a8a29a;stroke-width:2.1500001;stroke-linecap:butt;stroke-linejoin:miter;stroke-miterlimit:4;stroke-dasharray:none;stroke-opacity:1" /><path
             d="M 755.629,777.949 L 749.871,777.949 C 701.629,786.59 662.031,826.199 659.148,877.309 L 500.039,862.922 C 505.801,803.148 533.879,749.871 576.359,709.559 C 624.602,672.828 678.602,653.391 735.48,647.641 L 763.559,647.641 C 769.32,647.641 772.199,647.641 777.961,647.641 C 860.039,647.641 939.238,690.109 982.441,760.672 C 1001.88,792.352 1010.53,829.07 1010.53,865.801 C 1010.53,950.75 959.41,1024.91 880.199,1055.87 C 947.879,1086.84 990.359,1158.12 990.359,1231.56 C 990.359,1248.83 987.48,1265.41 982.441,1282.68 C 973.801,1313.63 956.52,1342.43 934.211,1364.76 C 893.879,1401.47 846.359,1424.51 795.238,1430.27 C 777.961,1433.15 763.559,1433.15 747,1433.15 C 693,1433.15 641.879,1415.87 596.52,1384.92 C 548.27,1353.24 517.32,1302.83 511.559,1243.08 L 656.281,1228.67 C 664.199,1274.03 701.641,1307.88 747,1307.88 C 755.641,1307.88 766.441,1307.88 777.961,1305 C 820.441,1294.2 846.359,1254.59 846.359,1212.11 C 846.359,1163.88 811.801,1123.55 763.559,1115.63 C 752.762,1112.75 738.359,1112.75 726.84,1109.87 L 726.84,998.988 L 747,998.988 C 755.641,998.988 766.441,996.109 775.078,993.23 C 795.238,987.48 811.801,976.68 829.078,965.16 C 840.602,953.629 851.398,939.23 860.039,925.559 C 868.68,911.148 871.559,896.75 871.559,883.078 C 871.559,865.801 865.801,851.398 860.039,837.719 C 854.281,826.199 846.359,817.551 837.719,808.922 C 831.961,801 826.199,795.23 817.559,792.352 C 806.039,783.719 792.359,780.84 780.828,780.84 C 772.191,777.949 763.551,777.949 755.629,777.949"
             id="path75"
             style="fill:#a8a29a;fill-opacity:1;fill-rule:nonzero;stroke:none" /><path
             d="M 755.629,777.949 L 749.871,777.949 C 701.629,786.59 662.031,826.199 659.148,877.309 L 500.039,862.922 C 505.801,803.148 533.879,749.871 576.359,709.559 C 624.602,672.828 678.602,653.391 735.48,647.641 L 763.559,647.641 C 769.32,647.641 772.199,647.641 777.961,647.641 C 860.039,647.641 939.238,690.109 982.441,760.672 C 1001.88,792.352 1010.53,829.07 1010.53,865.801 C 1010.53,950.75 959.41,1024.91 880.199,1055.87 C 947.879,1086.84 990.359,1158.12 990.359,1231.56 C 990.359,1248.83 987.48,1265.41 982.441,1282.68 C 973.801,1313.63 956.52,1342.43 934.211,1364.76 C 893.879,1401.47 846.359,1424.51 795.238,1430.27 C 777.961,1433.15 763.559,1433.15 747,1433.15 C 693,1433.15 641.879,1415.87 596.52,1384.92 C 548.27,1353.24 517.32,1302.83 511.559,1243.08 L 656.281,1228.67 C 664.199,1274.03 701.641,1307.88 747,1307.88 C 755.641,1307.88 766.441,1307.88 777.961,1305 C 820.441,1294.2 846.359,1254.59 846.359,1212.11 C 846.359,1163.88 811.801,1123.55 763.559,1115.63 C 752.762,1112.75 738.359,1112.75 726.84,1109.87 L 726.84,998.988 L 747,998.988 C 755.641,998.988 766.441,996.109 775.078,993.23 C 795.238,987.48 811.801,976.68 829.078,965.16 C 840.602,953.629 851.398,939.23 860.039,925.559 C 868.68,911.148 871.559,896.75 871.559,883.078 C 871.559,865.801 865.801,851.398 860.039,837.719 C 854.281,826.199 846.359,817.551 837.719,808.922 C 831.961,801 826.199,795.23 817.559,792.352 C 806.039,783.719 792.359,780.84 780.828,780.84 C 772.191,777.949 763.551,777.949 755.629,777.949 z"
             id="path77"
             style="fill:none;stroke:#a8a29a;stroke-width:2.1500001;stroke-linecap:butt;stroke-linejoin:miter;stroke-miterlimit:4;stroke-dasharray:none;stroke-opacity:1" /><path
             d="M 1307.87,644.762 C 1342.43,644.762 1373.39,653.391 1401.47,669.961 C 1433.15,687.238 1461.23,709.559 1484.27,738.352 C 1500.83,763.551 1515.23,786.59 1526.75,814.672 C 1534.68,831.949 1540.43,851.398 1543.31,871.551 C 1554.83,922.68 1560.59,973.789 1560.59,1024.91 C 1560.59,1058.76 1557.71,1089.72 1551.95,1123.55 C 1549.08,1166.75 1540.43,1206.35 1526.75,1245.95 C 1515.23,1274.03 1500.83,1302.83 1481.39,1328.03 C 1458.35,1358.99 1430.28,1384.92 1395.71,1404.36 C 1370.51,1418.76 1339.56,1427.39 1307.87,1430.27 C 1276.91,1427.39 1248.83,1418.76 1220.04,1404.36 C 1186.19,1387.79 1158.11,1358.99 1135.07,1328.03 C 1118.51,1302.83 1104.11,1274.03 1092.59,1245.95 C 1078.19,1206.35 1070.28,1166.75 1064.51,1126.44 C 1061.63,1092.59 1058.75,1058.76 1058.75,1024.91 C 1058.75,973.789 1064.51,919.801 1073.15,871.551 C 1076.03,851.398 1083.95,831.949 1092.59,814.672 C 1104.11,786.59 1118.51,760.672 1135.07,738.352 C 1158.11,709.559 1183.31,687.238 1214.27,669.961 C 1243.07,653.391 1276.91,644.762 1307.87,644.762"
             id="path79"
             style="fill:#a8a29a;fill-opacity:1;fill-rule:nonzero;stroke:none" /><path
             d="M 1307.87,644.762 C 1342.43,644.762 1373.39,653.391 1401.47,669.961 C 1433.15,687.238 1461.23,709.559 1484.27,738.352 C 1500.83,763.551 1515.23,786.59 1526.75,814.672 C 1534.68,831.949 1540.43,851.398 1543.31,871.551 C 1554.83,922.68 1560.59,973.789 1560.59,1024.91 C 1560.59,1058.76 1557.71,1089.72 1551.95,1123.55 C 1549.08,1166.75 1540.43,1206.35 1526.75,1245.95 C 1515.23,1274.03 1500.83,1302.83 1481.39,1328.03 C 1458.35,1358.99 1430.28,1384.92 1395.71,1404.36 C 1370.51,1418.76 1339.56,1427.39 1307.87,1430.27 C 1276.91,1427.39 1248.83,1418.76 1220.04,1404.36 C 1186.19,1387.79 1158.11,1358.99 1135.07,1328.03 C 1118.51,1302.83 1104.11,1274.03 1092.59,1245.95 C 1078.19,1206.35 1070.28,1166.75 1064.51,1126.44 C 1061.63,1092.59 1058.75,1058.76 1058.75,1024.91 C 1058.75,973.789 1064.51,919.801 1073.15,871.551 C 1076.03,851.398 1083.95,831.949 1092.59,814.672 C 1104.11,786.59 1118.51,760.672 1135.07,738.352 C 1158.11,709.559 1183.31,687.238 1214.27,669.961 C 1243.07,653.391 1276.91,644.762 1307.87,644.762 z"
             id="path81"
             style="fill:none;stroke:#a8a29a;stroke-width:2.1500001;stroke-linecap:butt;stroke-linejoin:miter;stroke-miterlimit:4;stroke-dasharray:none;stroke-opacity:1" /><path
             d="M 1353.23,1265.41 L 1358.99,1259.63 L 1364.75,1251.71 L 1370.51,1243.08 L 1373.39,1234.44 L 1379.15,1222.92 L 1382.03,1214.27 L 1387.79,1203.49 L 1390.67,1194.83 L 1393.55,1183.32 L 1395.71,1171.81 L 1398.59,1163.88 L 1401.47,1152.35 L 1401.47,1143.72 L 1404.35,1132.19 L 1407.23,1123.55 L 1407.23,1106.99 L 1410.11,1098.35 L 1410.11,1070.27 L 1412.99,1061.64 L 1412.99,987.48 L 1410.11,982.43 L 1410.11,953.629 L 1407.23,947.879 L 1407.23,928.43 L 1404.35,925.559 L 1404.35,911.148 L 1401.47,905.398 L 1401.47,902.512 L 1398.59,896.75 L 1398.59,888.828 L 1395.71,883.078 L 1395.71,877.309 L 1393.55,874.43 L 1393.55,868.672 L 1390.67,862.922 L 1387.79,860.031 L 1387.79,854.27 L 1384.92,851.398 L 1384.92,846.352 L 1382.03,843.48 L 1382.03,840.602 L 1379.15,834.828 L 1376.27,831.949 L 1376.27,829.07 L 1373.39,826.199 L 1370.51,823.32 L 1367.63,817.551 L 1364.75,814.672 L 1361.87,811.789 L 1358.99,808.922 L 1356.11,806.039 L 1353.23,801 L 1350.35,798.121 L 1348.19,795.23 L 1345.31,792.352 L 1339.56,792.352 L 1336.67,789.469 L 1333.79,786.59 L 1330.91,786.59 L 1328.03,783.719 L 1322.27,783.719 L 1319.39,780.84 L 1297.07,780.84 L 1294.2,783.719 L 1288.43,783.719 L 1285.55,786.59 L 1282.67,786.59 L 1279.8,789.469 L 1276.91,792.352 L 1274.03,792.352 L 1268.27,795.23 L 1265.4,798.121 L 1262.51,801 L 1259.63,806.039 L 1257.47,808.922 L 1254.59,811.789 L 1251.71,814.672 L 1248.83,817.551 L 1245.95,823.32 L 1243.07,826.199 L 1240.19,829.07 L 1240.19,831.949 L 1237.31,834.828 L 1237.31,840.602 L 1234.44,843.48 L 1231.55,846.352 L 1231.55,851.398 L 1228.67,854.27 L 1228.67,860.031 L 1225.79,862.922 L 1225.79,868.672 L 1222.91,874.43 L 1222.91,877.309 L 1220.04,883.078 L 1220.04,888.828 L 1217.15,891.711 L 1217.15,896.75 L 1214.27,902.512 L 1214.27,911.148 L 1212.11,916.91 L 1212.11,928.43 L 1209.23,931.309 L 1209.23,953.629 L 1206.35,956.512 L 1206.35,993.23 L 1203.47,996.109 L 1203.47,1050.11 L 1206.35,1055.87 L 1206.35,1098.35 L 1209.23,1106.99 L 1209.23,1115.63 L 1212.11,1123.55 L 1212.11,1132.19 L 1214.27,1143.72 L 1214.27,1152.35 L 1217.15,1163.88 L 1220.04,1171.81 L 1222.91,1183.32 L 1225.79,1194.83 L 1228.67,1203.49 L 1234.44,1214.27 L 1237.31,1222.92 L 1243.07,1234.44 L 1248.83,1243.08 L 1251.71,1251.71 L 1257.47,1259.63 L 1262.51,1265.41 L 1268.27,1271.15 L 1274.03,1276.91 L 1279.8,1282.68 L 1285.55,1285.56 L 1291.31,1288.43 L 1297.07,1291.32 L 1302.83,1291.32 L 1307.87,1294.2 L 1313.63,1291.32 L 1319.39,1291.32 L 1325.16,1288.43 L 1330.91,1285.56 L 1336.67,1282.68 L 1342.43,1276.91 L 1348.19,1271.15 L 1353.23,1265.41"
             id="path83"
             style="fill:#ffffff;fill-opacity:1;fill-rule:nonzero;stroke:none" /><path
             d="M 1353.23,1265.41 L 1358.99,1259.63 L 1364.75,1251.71 L 1370.51,1243.08 L 1373.39,1234.44 L 1379.15,1222.92 L 1382.03,1214.27 L 1387.79,1203.49 L 1390.67,1194.83 L 1393.55,1183.32 L 1395.71,1171.81 L 1398.59,1163.88 L 1401.47,1152.35 L 1401.47,1143.72 L 1404.35,1132.19 L 1407.23,1123.55 L 1407.23,1106.99 L 1410.11,1098.35 L 1410.11,1070.27 L 1412.99,1061.64 L 1412.99,987.48 L 1410.11,982.43 L 1410.11,953.629 L 1407.23,947.879 L 1407.23,928.43 L 1404.35,925.559 L 1404.35,911.148 L 1401.47,905.398 L 1401.47,902.512 L 1398.59,896.75 L 1398.59,888.828 L 1395.71,883.078 L 1395.71,877.309 L 1393.55,874.43 L 1393.55,868.672 L 1390.67,862.922 L 1387.79,860.031 L 1387.79,854.27 L 1384.92,851.398 L 1384.92,846.352 L 1382.03,843.48 L 1382.03,840.602 L 1379.15,834.828 L 1376.27,831.949 L 1376.27,829.07 L 1373.39,826.199 L 1370.51,823.32 L 1367.63,817.551 L 1364.75,814.672 L 1361.87,811.789 L 1358.99,808.922 L 1356.11,806.039 L 1353.23,801 L 1350.35,798.121 L 1348.19,795.23 L 1345.31,792.352 L 1339.56,792.352 L 1336.67,789.469 L 1333.79,786.59 L 1330.91,786.59 L 1328.03,783.719 L 1322.27,783.719 L 1319.39,780.84 L 1316.51,780.84 L 1313.63,780.84 L 1310.75,780.84 L 1307.87,780.84 L 1304.99,780.84 L 1302.83,780.84 L 1299.95,780.84 L 1297.07,780.84 L 1294.2,783.719 L 1288.43,783.719 L 1285.55,786.59 L 1282.67,786.59 L 1279.8,789.469 L 1276.91,792.352 L 1274.03,792.352 L 1268.27,795.23 L 1265.4,798.121 L 1262.51,801 L 1259.63,806.039 L 1257.47,808.922 L 1254.59,811.789 L 1251.71,814.672 L 1248.83,817.551 L 1245.95,823.32 L 1243.07,826.199 L 1240.19,829.07 L 1240.19,831.949 L 1237.31,834.828 L 1237.31,840.602 L 1234.44,843.48 L 1231.55,846.352 L 1231.55,851.398 L 1228.67,854.27 L 1228.67,860.031 L 1225.79,862.922 L 1225.79,868.672 L 1222.91,874.43 L 1222.91,877.309 L 1220.04,883.078 L 1220.04,888.828 L 1217.15,891.711 L 1217.15,896.75 L 1214.27,902.512 L 1214.27,911.148 L 1212.11,916.91 L 1212.11,928.43 L 1209.23,931.309 L 1209.23,953.629 L 1206.35,956.512 L 1206.35,993.23 L 1203.47,996.109 L 1203.47,1050.11 L 1206.35,1055.87 L 1206.35,1098.35 L 1209.23,1106.99 L 1209.23,1115.63 L 1212.11,1123.55 L 1212.11,1132.19 L 1214.27,1143.72 L 1214.27,1152.35 L 1217.15,1163.88 L 1220.04,1171.81 L 1222.91,1183.32 L 1225.79,1194.83 L 1228.67,1203.49 L 1234.44,1214.27 L 1237.31,1222.92 L 1243.07,1234.44 L 1248.83,1243.08 L 1251.71,1251.71 L 1257.47,1259.63 L 1262.51,1265.41 L 1268.27,1271.15 L 1274.03,1276.91 L 1279.8,1282.68 L 1285.55,1285.56 L 1291.31,1288.43 L 1297.07,1291.32 L 1302.83,1291.32 L 1307.87,1294.2 L 1313.63,1291.32 L 1319.39,1291.32 L 1325.16,1288.43 L 1330.91,1285.56 L 1336.67,1282.68 L 1342.43,1276.91 L 1348.19,1271.15 L 1353.23,1265.41 z"
             id="path85"
             style="fill:none;stroke:#a8a29a;stroke-width:2.1500001;stroke-linecap:butt;stroke-linejoin:miter;stroke-miterlimit:4;stroke-dasharray:none;stroke-opacity:1" /><path
             d="M 1974.59,2382.84 L 298.43,69.4688 L 245.148,69.4688 L 1974.59,2456.27 L 1974.59,2382.83"
             id="path87"
             style="fill:#000000;fill-opacity:1;fill-rule:nonzero;stroke:none" /><path
             d="M 1974.59,2382.84 L 298.43,69.4688 L 245.148,69.4688 L 1974.59,2456.27 L 1974.59,2382.83 L 1974.59,2382.84 z"
             id="path89"
             style="fill:none;stroke:#000000;stroke-width:2.1500001;stroke-linecap:butt;stroke-linejoin:miter;stroke-miterlimit:4;stroke-dasharray:none;stroke-opacity:1" /><path
             d="M 114.84,69.4688 C 106.199,69.4688 100.43,71.6406 91.8008,74.5117 L 1974.6,2672.28 L 1974.6,2600.99 L 140.051,69.4688 L 114.852,69.4688"
             id="path91"
             style="fill:#000000;fill-opacity:1;fill-rule:nonzero;stroke:none" /><path
             d="M 114.84,69.4688 C 106.199,69.4688 100.43,71.6406 91.8008,74.5117 L 1974.6,2672.28 L 1974.6,2600.99 L 140.051,69.4688 L 114.852,69.4688 L 114.84,69.4688 z"
             id="path93"
             style="fill:none;stroke:#000000;stroke-width:2.1500001;stroke-linecap:butt;stroke-linejoin:miter;stroke-miterlimit:4;stroke-dasharray:none;stroke-opacity:1" /><path
             d="M 1937.87,2768.04 L 69.4688,188.289 L 69.4688,258.84 L 1886.75,2768.05 L 1929.23,2768.05 C 1932.11,2768.05 1934.99,2768.05 1937.87,2768.05"
             id="path95"
             style="fill:#000000;fill-opacity:1;fill-rule:nonzero;stroke:none" /><path
             d="M 1937.87,2768.04 L 69.4688,188.289 L 69.4688,258.84 L 1886.75,2768.05 L 1929.23,2768.05 C 1932.11,2768.05 1934.99,2768.05 1937.87,2768.05 L 1937.87,2768.04 z"
             id="path97"
             style="fill:none;stroke:#000000;stroke-width:2.1500001;stroke-linecap:butt;stroke-linejoin:miter;stroke-miterlimit:4;stroke-dasharray:none;stroke-opacity:1" /><path
             d="M 1781.63,2768.04 L 69.4688,406.449 L 69.4688,477.73 L 1727.63,2768.05 L 1781.63,2768.05"
             id="path99"
             style="fill:#000000;fill-opacity:1;fill-rule:nonzero;stroke:none" /><path
             d="M 1781.63,2768.04 L 69.4688,406.449 L 69.4688,477.73 L 1727.63,2768.05 L 1781.63,2768.05 L 1781.63,2768.04 z"
             id="path101"
             style="fill:none;stroke:#000000;stroke-width:2.1500001;stroke-linecap:butt;stroke-linejoin:miter;stroke-miterlimit:4;stroke-dasharray:none;stroke-opacity:1" /></g></g></g></g></svg>