<?xml version="1.0" encoding="UTF-8" standalone="no"?>
<!-- Created with Inkscape (http://www.inkscape.org/) -->

<svg
   xmlns:dc="http://purl.org/dc/elements/1.1/"
   xmlns:cc="http://creativecommons.org/ns#"
   xmlns:rdf="http://www.w3.org/1999/02/22-rdf-syntax-ns#"
   xmlns:svg="http://www.w3.org/2000/svg"
   xmlns="http://www.w3.org/2000/svg"
   xmlns:sodipodi="http://sodipodi.sourceforge.net/DTD/sodipodi-0.dtd"
   xmlns:inkscape="http://www.inkscape.org/namespaces/inkscape"
   width="1010.4"
   height="1010.4002"
   id="svg2"
   sodipodi:version="0.32"
   inkscape:version="0.48.4 r9939"
   version="1.0"
   sodipodi:docname="Ajax.svg"
   inkscape:output_extension="org.inkscape.output.svg.inkscape">
  <defs
     id="defs4">
    <inkscape:perspective
       sodipodi:type="inkscape:persp3d"
       inkscape:vp_x="0 : 300.5 : 1"
       inkscape:vp_y="0 : 1000 : 0"
       inkscape:vp_z="601 : 300.5 : 1"
       inkscape:persp3d-origin="300.5 : 200.33333 : 1"
       id="perspective3380" />
    <inkscape:perspective
       id="perspective3990"
       inkscape:persp3d-origin="375 : 250 : 1"
       inkscape:vp_z="750 : 375 : 1"
       inkscape:vp_y="0 : 1000 : 0"
       inkscape:vp_x="0 : 375 : 1"
       sodipodi:type="inkscape:persp3d" />
  </defs>
  <sodipodi:namedview
     id="base"
     pagecolor="#ffffff"
     bordercolor="#666666"
     borderopacity="1.0"
     gridtolerance="10000"
     guidetolerance="10"
     objecttolerance="10"
     inkscape:pageopacity="0.0"
     inkscape:pageshadow="2"
     inkscape:zoom="0.44192573"
     inkscape:cx="482.47738"
     inkscape:cy="479.21742"
     inkscape:document-units="px"
     inkscape:current-layer="layer1"
     width="601px"
     height="601px"
     inkscape:window-width="1280"
     inkscape:window-height="1001"
     inkscape:window-x="-8"
     inkscape:window-y="-8"
     showgrid="false"
     fit-margin-top="0.2"
     fit-margin-left="0.2"
     fit-margin-right="0.2"
     fit-margin-bottom="0.2"
     inkscape:window-maximized="1"
     showguides="true"
     inkscape:guide-bbox="true" />
  <metadata
     id="metadata7">
    <rdf:RDF>
      <cc:Work
         rdf:about="">
        <dc:format>image/svg+xml</dc:format>
        <dc:type
           rdf:resource="http://purl.org/dc/dcmitype/StillImage" />
        <dc:title></dc:title>
      </cc:Work>
    </rdf:RDF>
  </metadata>
  <g
     inkscape:label="Layer 1"
     inkscape:groupmode="layer"
     id="layer1"
     transform="translate(1515.529,3241.075)">
    <rect
       style="color:#000000;fill:#000000;fill-opacity:1;fill-rule:nonzero;stroke:none;stroke-width:0.8735441;marker:none;visibility:visible;display:inline;overflow:visible"
       id="rect3653"
       width="0"
       height="27.202072"
       x="578.73834"
       y="298.1684"
       rx="249.48199"
       ry="27.202072" />
    <path
       inkscape:connector-curvature="0"
       id="path3940"
       d="m -1219.5067,-2230.8749 -295.8223,-295.8221 10e-5,-418.3556 295.822,-295.8224 418.35567,3e-4 295.82223,295.8221 -2e-4,418.3558 -295.82203,295.822 z"
       style="fill:#000000;fill-opacity:1;stroke:none" />
    <path
       inkscape:connector-curvature="0"
       id="path3942"
       d="m -1217.4357,-2235.875 -292.8933,-292.8932 10e-5,-414.2135 292.8931,-292.8935 414.21349,3e-4 292.8933,292.8932 -2e-4,414.2136 -292.8931,292.8932 z"
       style="fill:#ffffff;fill-opacity:1;stroke:none" />
    <path
       style="fill:#c0111e;fill-opacity:1;stroke:none"
       d="m -1208.2816,-2257.975 -279.9474,-279.9472 10e-5,-395.9053 279.9472,-279.9476 395.90527,4e-4 279.94743,279.9472 -2e-4,395.9054 -279.94723,279.9472 z"
       id="path3944"
       inkscape:connector-curvature="0" />
    <path
       inkscape:connector-curvature="0"
       id="text3287"
       nodetypes="csssssssccssssssssscscsssssssssccssssscscc"
       d="m -1187.5648,-2521.5674 c 0,8.0905 -1.585,15.6334 -4.7576,22.6355 -3.1724,6.9997 -7.5486,13.0632 -13.1286,18.1926 -5.5799,5.1273 -12.0354,9.2219 -19.369,12.2792 -7.3324,3.0572 -15.2674,4.5852 -23.8023,4.5852 -9.6305,0 -18.2736,-1.6753 -25.9305,-5.0272 -7.658,-3.3532 -14.1111,-7.8885 -19.3641,-13.6064 -5.2521,-5.7189 -9.3015,-12.3253 -12.1473,-19.8228 -2.8457,-7.4967 -4.2668,-15.2853 -4.2668,-23.3699 l 30.8544,0 c 0,4.1421 0.6012,8.2343 1.8036,12.2742 1.2024,4.0411 3.062,7.6915 5.5798,10.9472 2.5179,3.2556 5.6927,5.8697 9.5225,7.8409 3.8296,1.9713 8.4803,2.9574 13.9496,2.9574 4.161,0 8.1558,-0.7878 11.9866,-2.3657 3.8298,-1.5767 7.1127,-3.7452 9.8481,-6.5089 2.734,-2.7638 4.9215,-5.9672 6.5612,-9.6176 1.6397,-3.6454 2.4595,-7.4441 2.4595,-11.3937 0,-5.7177 -1.3129,-10.7937 -3.9377,-15.2292 -2.6247,-4.4358 -7.2194,-8.9237 -13.7845,-13.4614 -1.0956,-0.9874 -8.043,-6.1621 -12.968,-9.0245 -4.9252,-2.8612 -12.9681,-7.7423 -24.128,-14.6388 -8.9685,-5.5252 -15.6974,-11.9867 -20.1853,-19.3832 -4.488,-7.398 -6.7325,-15.5324 -6.7313,-24.4048 0,-7.1031 1.4211,-13.7596 4.267,-19.9715 2.8446,-6.212 6.8382,-11.6837 11.9807,-16.4175 5.1414,-4.7338 11.1061,-8.4329 17.892,-11.0957 6.7849,-2.6627 14.1149,-3.9948 21.9891,-3.9948 7.8802,0 15.1582,1.2821 21.8335,3.8463 6.6754,2.5642 12.4738,6.1145 17.3956,10.6536 4.9215,4.5379 8.8616,9.9631 11.8155,16.2737 2.955,6.3106 4.5437,13.213 4.7635,20.7071 l -30.2021,0 c -0.4336,-6.9046 -3.0595,-12.4264 -7.8742,-16.5674 -4.8158,-4.1409 -10.7261,-6.2119 -17.7318,-6.2119 -7.2195,0 -13.3446,2.1708 -18.3779,6.5102 -5.0322,4.3393 -7.5489,9.7625 -7.5489,16.2691 0,4.9299 1.4235,9.0707 4.2682,12.4227 2.8458,3.3519 8.3151,7.1009 16.4092,11.2406 21.2311,11.0444 36.7145,22.286 46.4521,33.7251 9.7361,11.4376 14.6042,24.356 14.6042,38.7523 l 0,0 z"
       style="fill:#ffffff;stroke:none" />
    <path
       inkscape:connector-curvature="0"
       id="text3293"
       d="m -1084.9137,-2639.3063 0,171.8834 -31.8003,0 0,-171.8834 -40.0048,0 0,-26.3368 111.811,0 0,26.3368 -40.0059,0 z"
       style="fill:#ffffff;stroke:none" />
    <path
       inkscape:connector-curvature="0"
       id="text3299"
       d="m -890.28437,-2566.8252 c 0,15.1865 -0.93032,28.1037 -2.79707,38.7547 -1.86426,10.65 -5.10335,20.7095 -9.71719,30.1771 -5.48244,11.8322 -12.33843,20.4623 -20.56558,25.8853 -8.22486,5.4217 -18.59082,8.1332 -31.0979,8.1332 -13.16665,0 -23.86293,-2.7115 -32.09019,-8.1332 -8.22835,-5.423 -15.0855,-14.0531 -20.5692,-25.8853 -4.6066,-9.6661 -7.8421,-19.7767 -9.7065,-30.3268 -1.8654,-10.5512 -2.797,-23.4185 -2.797,-38.605 0,-14.987 0.9328,-27.8541 2.797,-38.6052 1.8644,-10.7497 5.0999,-20.859 9.7065,-30.3256 5.7047,-11.8334 12.67117,-20.3635 20.90072,-25.5917 8.23085,-5.227 18.81423,-7.8411 31.75976,-7.8411 12.72111,0 23.14173,2.6141 31.25957,7.8411 8.11905,5.2282 14.92158,13.9568 20.40402,26.187 2.19697,4.9287 4.11835,9.8588 5.76639,14.7887 1.64571,4.9297 2.96223,10.1057 3.9508,15.5286 0.98737,5.423 1.70268,11.2418 2.14002,17.4573 0.43724,6.2119 0.65585,13.0668 0.65585,20.5609 l 0,0 z m -30.28048,0 c 0,-5.5253 -0.16516,-10.5562 -0.49069,-15.0904 -0.32793,-4.5341 -0.76636,-8.7262 -1.31532,-12.5724 -0.55013,-3.845 -1.26313,-7.543 -2.1412,-11.0909 -0.87568,-3.548 -1.86425,-7.0983 -2.95984,-10.6487 -2.85412,-8.8783 -6.41996,-15.2901 -10.69749,-19.2349 -4.27993,-3.9448 -9.71011,-5.9173 -16.29043,-5.9173 -13.60737,0 -22.93011,8.1856 -27.97173,24.5569 -2.63899,7.494 -4.45107,15.0368 -5.43487,22.6296 -0.98507,7.5939 -1.47577,16.9117 -1.47577,27.9562 0,5.3257 0.16397,10.2104 0.49189,14.6483 0.33032,4.4391 0.76766,8.5824 1.31662,12.4286 0.54894,3.8452 1.26184,7.6416 2.13751,11.388 0.87698,3.7465 1.86435,7.5926 2.96462,11.5351 5.04162,16.3701 14.36436,24.5568 27.97173,24.5568 6.58032,0 12.0105,-1.9736 16.29043,-5.9172 4.27753,-3.946 7.84337,-10.1592 10.69749,-18.6396 1.31061,-3.9425 2.40849,-7.7388 3.28777,-11.3854 0.88046,-3.6466 1.59346,-7.4442 2.1412,-11.3903 0.54297,-3.9448 0.92685,-8.1369 1.14896,-12.576 0.21862,-4.4403 0.32912,-9.5175 0.32912,-15.2364 l 0,0 z"
       style="fill:#ffffff;stroke:none" />
    <path
       inkscape:connector-curvature="0"
       id="text3305"
       d="m -710.327,-2610.0181 c 0,18.1418 -4.95365,31.9452 -14.85625,41.4129 -9.90379,9.4689 -24.10528,14.2027 -42.60574,14.2027 l -33.95681,0 0,86.9796 -31.34865,0 0,-198.219 65.30546,0 c 8.48976,0 16.27018,1.332 23.346,3.9948 7.07341,2.6639 13.16782,6.4117 18.28424,11.2453 5.11401,4.8337 9.03281,10.7021 11.75259,17.6056 2.72108,6.9038 4.07916,14.4964 4.07916,22.7781 l 0,0 z m -30.68919,0 c 0,-8.2817 -2.61167,-14.9868 -7.8351,-20.1152 -5.22453,-5.1272 -12.08291,-7.6926 -20.57277,-7.6926 l -32.32174,0 0,56.2121 32.32174,0 c 9.14103,0 16.16449,-2.4667 21.05997,-7.4001 4.8978,-4.9323 7.3479,-11.9322 7.3479,-21.0042 l 0,0 z"
       style="fill:#ffffff;stroke:none" />
    <path
       inkscape:connector-curvature="0"
       d="m -1331.9746,-2820.9835 60.6633,0 c -1.158,-1.6393 -2.1552,-3.5622 -2.9939,-5.7662 -0.8387,-2.2053 -1.5333,-4.4665 -2.0837,-6.7849 -0.5492,-2.3172 -0.9543,-4.6499 -1.2152,-6.9969 -0.2609,-2.3458 -0.3908,-4.5081 -0.3908,-6.487 0,-6.7849 0.9984,-13.1301 2.9939,-19.0381 1.9956,-5.908 4.9466,-11.0523 8.8519,-15.4342 3.9053,-4.3818 8.7804,-7.844 14.6229,-10.3887 5.8436,-2.5436 12.6416,-3.816 20.395,-3.816 8.3313,0 15.4628,1.3856 21.3923,4.1555 5.9294,2.7699 10.8045,6.5156 14.6228,11.237 3.8184,4.7202 6.6097,10.191 8.3742,16.4087 1.7644,6.219 2.6472,12.8061 2.6472,19.7589 0,8.0286 -1.2295,14.8838 -3.6885,20.5654 -2.459,5.6817 -5.8151,10.303 -10.0671,13.8652 -4.252,3.5622 -9.2128,6.1772 -14.8837,7.844 -5.6698,1.6679 -11.7446,2.5018 -18.2244,2.5018 l -101.0186,0 0,-21.6245 0,0 z m 78.2813,-25.6955 c 0,2.3184 0.1298,4.6499 0.3907,6.9969 0.261,2.347 0.6362,4.65 1.1283,6.9112 0.4908,2.2612 1.0984,4.3961 1.8216,6.4024 0.7231,2.0075 1.519,3.8029 2.3863,5.3862 l 17.9646,0 c 3.5301,0 6.6396,-0.5933 9.3297,-1.7811 2.6901,-1.1878 4.9465,-2.8128 6.7693,-4.8763 1.8228,-2.0634 3.1977,-4.551 4.1222,-7.4627 0.9257,-2.9117 1.3891,-6.0641 1.3891,-9.4571 0,-3.561 -0.3622,-7.1089 -1.0853,-10.6425 -0.7232,-3.5336 -1.967,-6.6991 -3.7314,-9.4976 -1.7644,-2.7985 -4.1078,-5.0598 -7.0291,-6.7849 -2.9224,-1.7239 -6.5525,-2.5864 -10.8915,-2.5864 -3.4716,0 -6.6109,0.6362 -9.4166,1.9085 -2.8056,1.2712 -5.1789,3.0952 -7.116,5.4696 -1.9384,2.3744 -3.4288,5.2432 -4.47,8.6077 -1.0425,3.3632 -1.5619,7.166 -1.5619,11.4061 z"
       id="path249"
       style="fill:#ffffff;stroke:none" />
    <path
       inkscape:connector-curvature="0"
       d="m -1022.1218,-2990.7788 0,100.473 c 7.0827,-3.4597 13.7032,-5.1896 19.8637,-5.1896 6.9088,0 13.1992,1.0353 18.87009,3.1047 5.6709,2.0706 10.6652,5.1467 14.9839,9.2307 4.3175,4.084 7.6998,9.1879 10.1469,15.3139 2.447,6.126 3.6706,13.2159 3.6706,21.2695 0,7.9405 -1.1509,14.86 -3.4538,20.7584 -2.3029,5.8985 -5.5851,10.8046 -9.8455,14.7182 -4.2603,3.9137 -9.4273,6.8492 -15.5021,8.8054 -6.07479,1.9574 -12.85369,2.9356 -20.33779,2.9356 -7.2543,0 -13.5304,-1.1485 -18.8273,-3.4455 -5.2968,-2.2969 -9.6727,-5.4314 -13.1265,-9.4011 -3.4549,-3.9708 -6.0164,-8.5921 -7.6867,-13.8675 -1.6703,-5.2742 -2.5042,-10.9177 -2.5042,-16.9294 l 0,-147.7774 23.7487,0 0,0 z m 18.2232,116.9794 c -3.972,0 -7.3984,0.411 -10.2767,1.2343 -2.8796,0.822 -5.528,2.0563 -7.9453,3.7004 l 0,21.0145 c 0,3.517 0.3181,6.8766 0.9507,10.0814 0.6338,3.2048 1.7275,6.0546 3.2822,8.5505 1.5536,2.4959 3.6266,4.4807 6.2178,5.9556 2.59,1.4749 5.8437,2.2112 9.7585,2.2112 3.3394,0 6.4334,-0.4539 9.2844,-1.3617 2.8497,-0.9079 5.3111,-2.3828 7.38409,-4.4236 2.0729,-2.0408 3.6992,-4.6797 4.8798,-7.9119 1.1807,-3.2333 1.7704,-7.1744 1.7704,-11.8255 0,-4.0268 -0.4897,-7.7141 -1.4678,-11.0607 -0.9781,-3.3465 -2.4899,-6.2106 -4.5343,-8.5921 -2.0432,-2.3828 -4.66419,-4.2401 -7.85949,-5.5721 -3.1964,-1.3343 -7.0112,-2.0003 -11.4443,-2.0003 z"
       id="path251"
       style="fill:#ffffff;stroke:none" />
    <path
       inkscape:connector-curvature="0"
       d="m -930.91291,-2799.359 0,-28.3391 c 0,-6.3595 0.2442,-12.7357 0.7303,-19.1286 0.4896,-6.3917 1.376,-12.5166 2.6603,-18.3721 1.2855,-5.8568 3.0475,-11.3038 5.2837,-16.3421 2.2351,-5.0383 5.1265,-9.4154 8.6744,-13.13 3.5467,-3.7159 7.813,-6.6443 12.7989,-8.7852 4.9883,-2.1421 10.8462,-3.2119 17.5822,-3.2119 5.4482,0 10.2529,0.8661 14.4204,2.5972 4.1614,1.7322 7.813,4.0625 10.9475,6.9909 3.1368,2.9284 5.7948,6.3131 7.9797,10.154 2.185,3.8422 3.9971,7.9048 5.4375,12.1866 1.4379,4.2817 2.5817,8.6267 3.4299,13.0347 0.8495,4.4081 1.4785,8.6422 1.8895,12.7048 0.4134,4.0626 0.6696,7.8094 0.7708,11.2418 0.1037,3.4323 0.1537,6.2809 0.1537,8.548 l 0,7.2734 72.1529,0 0.7935,22.5764 -94.1504,0 0,-22.5764 c 0,-5.1634 -0.091,-10.2327 -0.2704,-15.2079 -0.1811,-4.9739 -0.5528,-9.6822 -1.1187,-14.1225 -0.5659,-4.4402 -1.3999,-8.5492 -2.5055,-12.3271 -1.1044,-3.7778 -2.5709,-7.0374 -4.3949,-9.7763 -1.8252,-2.7402 -4.0745,-4.8811 -6.7479,-6.4239 -2.6735,-1.5428 -5.883,-2.3148 -9.6382,-2.3148 -5.192,0 -9.4571,1.4951 -12.8013,4.4867 -3.3418,2.9915 -5.9616,6.9909 -7.863,11.997 -1.9026,5.0062 -3.2131,10.7998 -3.9351,17.3809 -0.7184,6.5812 -1.0782,13.4923 -1.0782,20.7346 l 0,28.1485 -21.2016,0 0,0 z"
       id="path253"
       style="fill:#ffffff;stroke:none" />
    <path
       inkscape:connector-curvature="0"
       d="m -1140.9064,-2985.5629 -12.2508,0 c -3.8029,0 -7.3412,0.1131 -10.6151,0.3431 -3.2727,0.2275 -6.0939,0.8792 -8.4635,1.955 -2.3697,1.0746 -4.2401,2.7044 -5.6114,4.887 -1.3712,2.1838 -2.0575,5.2301 -2.0575,9.139 0,3.4538 0.5457,6.2559 1.637,8.4075 1.0913,2.1492 2.696,3.8112 4.8155,4.9847 2.1194,1.1735 4.7226,1.955 7.8082,2.3458 3.0857,0.392 6.655,0.5873 10.7081,0.5873 l 14.4012,0 0,57.2477 -12.5308,0 0,-45.714 -7.5747,-0.098 c -1.9336,0 -4.084,-0.1132 -6.4537,-0.3419 -2.3684,-0.2288 -4.738,-0.6517 -7.1065,-1.2712 -2.3696,-0.6195 -4.6761,-1.5476 -6.9207,-2.7854 -2.2445,-1.2391 -4.2234,-2.8522 -5.9377,-4.8394 -1.7132,-1.9872 -3.1012,-4.464 -4.1615,-7.4294 -1.0603,-2.9641 -1.5893,-6.5001 -1.5893,-10.6055 0,-6.0605 1.0282,-10.9964 3.0857,-14.8088 2.0575,-3.8123 4.8631,-6.7765 8.4158,-8.8947 3.5527,-2.1183 7.7463,-3.5515 12.5785,-4.3009 4.8322,-0.7493 10.0218,-1.1234 15.5712,-1.1234 l 12.2508,0 0,12.3152 0,0 z"
       id="path255"
       style="fill:#ffffff;stroke:none" />
    <path
       inkscape:connector-curvature="0"
       d="m -1113.2738,-2995.1463 0,53.9464 c 2.4924,-1.8145 4.7894,-3.0904 6.8897,-3.8279 2.1016,-0.7374 4.3485,-1.1056 6.7432,-1.1056 3.1273,0 6.0962,0.5111 8.9055,1.5309 2.8092,1.021 5.2777,2.5948 7.4031,4.7214 2.1255,2.1278 3.8232,4.8072 5.0943,8.0406 1.2712,3.2334 1.9062,7.0612 1.9062,11.486 0,4.14 -0.6231,7.8416 -1.8692,11.1023 -1.2462,3.262 -2.932,6.0272 -5.0574,8.2956 -2.1254,2.2683 -4.5808,3.9982 -7.3662,5.1896 -2.7854,1.1913 -5.6924,1.787 -8.722,1.787 -3.3716,0 -6.499,-0.4968 -9.3821,-1.4892 -2.8831,-0.9924 -5.3873,-2.509 -7.5128,-4.551 -2.1254,-2.042 -3.7873,-4.5939 -4.9846,-7.657 -1.1974,-3.063 -1.7954,-6.6645 -1.7954,-10.8045 l 0,-76.6622 9.7477,0 0,0 z m 0,75.8962 c 0,2.6091 0.3539,4.8643 1.0628,6.7634 0.7088,1.899 1.6857,3.4597 2.9319,4.6797 1.2462,1.2188 2.7116,2.1266 4.3974,2.7223 1.6857,0.5956 3.5062,0.8935 5.46,0.8935 4.2508,0 7.4758,-1.4177 9.6751,-4.2532 2.1993,-2.8355 3.2989,-6.7217 3.2989,-11.6564 0,-2.3815 -0.2323,-4.5653 -0.6957,-6.5513 -0.4647,-1.9848 -1.2462,-3.673 -2.3459,-5.0621 -1.0996,-1.3892 -2.5292,-2.4817 -4.2877,-3.2751 -1.7585,-0.7935 -3.9577,-1.1914 -6.5966,-1.1914 -2.8831,0 -5.3624,0.4396 -7.4401,1.3189 -2.0778,0.8792 -3.897,2.1123 -5.4601,3.7004 l 0,11.9113 z"
       id="path257"
       style="fill:#ffffff;stroke:none" />
    <path
       inkscape:connector-curvature="0"
       d="m -688.68131,-2899.8296 -21.8461,0 c -17.0378,0 -29.7807,-4.4176 -38.2323,-13.254 -8.4492,-8.8364 -12.6738,-22.8397 -12.6738,-42.0101 0,-9.2319 1.0818,-17.1783 3.2465,-23.8464 2.1624,-6.6657 5.3576,-12.1496 9.5822,-16.4493 4.227,-4.2996 9.4821,-7.4555 15.7678,-9.4666 6.2845,-2.0122 13.584,-3.0189 21.8974,-3.0189 l 22.2583,0 -0.1024,16.8043 -23.0828,0 c -4.7405,0 -9.1891,0.4527 -13.3457,1.3617 -4.1555,0.9066 -7.7642,2.6615 -10.8189,5.2658 -3.057,2.6032 -5.4624,6.2524 -7.2137,10.9463 -1.7525,4.694 -2.627,10.8284 -2.627,18.4019 0,8.4409 1.0294,15.1864 3.0904,20.2355 2.0611,5.049 4.8429,8.915 8.3468,11.5967 3.5038,2.6818 7.5568,4.4379 12.1603,5.2659 4.6022,0.828 9.4809,1.2426 14.6324,1.2426 l 18.9606,0 0,16.9246 z"
       id="path261"
       style="fill:#ffffff;stroke:none" />
  </g>
</svg>
