<?xml version="1.0" encoding="UTF-8" standalone="no"?>
<svg
   xmlns:dc="http://purl.org/dc/elements/1.1/"
   xmlns:cc="http://creativecommons.org/ns#"
   xmlns:rdf="http://www.w3.org/1999/02/22-rdf-syntax-ns#"
   xmlns:svg="http://www.w3.org/2000/svg"
   xmlns="http://www.w3.org/2000/svg"
   xmlns:sodipodi="http://sodipodi.sourceforge.net/DTD/sodipodi-0.dtd"
   xmlns:inkscape="http://www.inkscape.org/namespaces/inkscape"
   width="1000"
   height="1000"
   viewBox="-50 -30 99.999999 100"
   id="svg2"
   version="1.1"
   inkscape:version="0.48.2 r9819"
   sodipodi:docname="AJAX1.svg">
  <metadata
     id="metadata14">
    <rdf:RDF>
      <cc:Work
         rdf:about="">
        <dc:format>image/svg+xml</dc:format>
        <dc:type
           rdf:resource="http://purl.org/dc/dcmitype/StillImage" />
      </cc:Work>
    </rdf:RDF>
  </metadata>
  <defs
     id="defs12" />
  <sodipodi:namedview
     pagecolor="#ffffff"
     bordercolor="#666666"
     borderopacity="1"
     objecttolerance="10"
     gridtolerance="10"
     guidetolerance="10"
     inkscape:pageopacity="0"
     inkscape:pageshadow="2"
     inkscape:window-width="1280"
     inkscape:window-height="1004"
     id="namedview10"
     showgrid="false"
     fit-margin-top="0"
     fit-margin-left="0"
     fit-margin-right="0"
     fit-margin-bottom="0"
     inkscape:zoom="0.45537677"
     inkscape:cx="166.79818"
     inkscape:cy="423.23458"
     inkscape:window-x="-8"
     inkscape:window-y="-8"
     inkscape:window-maximized="1"
     inkscape:current-layer="svg2" />
  <path
     inkscape:connector-curvature="0"
     id="path3124"
     d="M -9e-6,-30 C 27.614238,-30 49.999997,-7.614258 49.999997,19.999987 49.999997,47.614231 27.614238,70 -9e-6,70 -27.614239,70 -50,47.614231 -50,19.999987 -50,-7.614258 -27.614239,-30 -9e-6,-30 z"
     style="fill:#d40000;fill-opacity:1;stroke:none"
     sodipodi:nodetypes="sssss" />
  <path
     inkscape:connector-curvature="0"
     id="path3124-1"
     d="m -1e-5,-20.000002 C 22.091387,-20.000002 40,-2.091409 40,19.999987 40,42.091382 22.091387,59.999999 -1.1e-5,59.999999 -22.091392,59.999999 -40,42.091382 -40,19.999987 -40,-2.091409 -22.091392,-20.000002 -10e-6,-20.000002 z"
     style="fill:#ffffff;fill-opacity:1;stroke:none"
     sodipodi:nodetypes="sssss" />
  <path
     style="font-size:147.01713562px;font-style:normal;font-variant:normal;font-weight:normal;font-stretch:normal;line-height:125%;letter-spacing:0px;word-spacing:0px;fill:#000000;stroke:none;font-family:Transport"
     d="m -16.202973,41.517785 1.596004,0 0,7.110749 0.130817,-0.126058 0.104658,-0.157567 0.156977,-0.189086 0.05233,-0.03151 c 0.01744,-0.03676 0.03488,-0.05777 0.05233,-0.06303 l 0.287802,-0.378163 0.07849,-0.126057 0.261634,-0.283625 c 0.0436,-0.07352 0.08721,-0.135232 0.130816,-0.185146 0.0436,-0.04989 0.08721,-0.09322 0.130817,-0.129998 l 0.156984,-0.189076 c 0.05669,-0.09978 0.117734,-0.173315 0.183147,-0.220595 l 0.156984,-0.189087 0.05233,-0.09454 0.07849,-0.06303 0.05233,-0.09454 0.05233,-0.06303 0.07849,-0.06303 0.02616,-0.06303 c 0.07849,-0.126046 0.156976,-0.231087 0.235473,-0.315133 l 0.05233,-0.03151 c 0.03488,-0.05251 0.06649,-0.09978 0.09484,-0.141807 0.02834,-0.04201 0.05777,-0.07878 0.0883,-0.110298 h 2.093045 l -0.02616,0.06303 -0.05233,0.06303 -0.05233,0.03151 -0.02616,0.06303 -0.052329,0.03151 c -0.03489,0.05253 -0.06651,0.0998 -0.09484,0.141807 -0.02835,0.04203 -0.05779,0.07879 -0.0883,0.110298 l -0.130816,0.126057 -0.07849,0.157567 -0.05233,0.03151 c -0.01745,0.03678 -0.03489,0.05778 -0.05233,0.06303 -0.135181,0.204847 -0.266008,0.362413 -0.39246,0.4727 -0.01745,0.03678 -0.03489,0.05778 -0.05233,0.06303 -0.06105,0.0998 -0.122106,0.185146 -0.183144,0.256044 -0.06105,0.07091 -0.122107,0.132632 -0.183145,0.185147 l -0.07849,0.126057 -0.183145,0.189076 -0.07849,0.126058 -0.130818,0.157566 -0.104656,0.09454 -0.05233,0.09454 -0.07849,0.06303 -0.02616,0.06303 -0.07849,0.06303 -0.130818,0.157566 -0.02616,0.06303 -0.05233,0.03151 c -0.04361,0.07354 -0.08722,0.135255 -0.130817,0.185147 -0.04361,0.0499 -0.08722,0.09323 -0.130816,0.129998 l 0.07849,0.220595 0.104657,0.189087 0.07849,0.09454 0.02616,0.06303 c 0.06104,0.0998 0.104647,0.183841 0.130815,0.252116 l 0.07849,0.09454 0.02616,0.09454 c 0.01744,0.01576 0.02616,0.03152 0.02616,0.04727 v 0.01576 c 0.130817,0.173326 0.218025,0.330893 0.261632,0.4727 0.130807,0.173326 0.218025,0.330893 0.261634,0.4727 l 0.104657,0.126057 0.05233,0.157567 0.104657,0.126058 c 0.06976,0.147063 0.139539,0.273121 0.209314,0.378162 l 0.07849,0.126057 0.07849,0.157567 0.07849,0.126058 0.05233,0.126058 0.07849,0.126057 0.418619,0.756325 0.02616,0.09454 0.05233,0.03151 0.05233,0.09454 c 0.08284,0.147064 0.154789,0.283624 0.2158475,0.409682 0.06104,0.126058 0.11119,0.241602 0.150442,0.346653 h -1.7267575 l -0.07849,-0.189086 c -0.0087,-0.0105 -0.01527,-0.01969 -0.01962,-0.02757 -0.0044,-0.0079 -0.0065,-0.01707 -0.0065,-0.02758 v -0.0079 c -0.135179,-0.189075 -0.231117,-0.346653 -0.2878,-0.4727 l -0.07849,-0.126058 -0.07849,-0.157566 c -0.04361,-0.07353 -0.07959,-0.141807 -0.107928,-0.204836 -0.02835,-0.06302 -0.05342,-0.120801 -0.07522,-0.173326 l -0.07849,-0.09454 -0.07849,-0.126058 -0.05233,-0.126058 -0.07849,-0.126058 -0.07849,-0.157566 c -0.113377,-0.173316 -0.191877,-0.32038 -0.235475,-0.441191 l -0.07849,-0.126058 c -0.06977,-0.09454 -0.113377,-0.178573 -0.130817,-0.252104 l -0.07849,-0.09454 -0.104659,-0.220595 -0.209304,-0.378162 c -0.0087,-0.0105 -0.01527,-0.01969 -0.01962,-0.02757 -0.0044,-0.0079 -0.0065,-0.01706 -0.0065,-0.02757 v -0.0079 c -0.04361,-0.05777 -0.08285,-0.112921 -0.117733,-0.165447 -0.03489,-0.05252 -0.06541,-0.102414 -0.09157,-0.149686 -0.01745,0.03677 -0.03489,0.05778 -0.05233,0.06303 l -0.05233,0.126058 -0.235474,0.252105 c -0.01745,0.03677 -0.03489,0.05778 -0.05233,0.06303 l -0.02616,0.06303 -0.156985,0.157567 c -0.09594,0.189086 -0.209314,0.33615 -0.340131,0.441191 v 2.74164 h -1.596005 z"
     id="path16"
     inkscape:connector-curvature="0" />
  <path
     style="font-size:147.01713562px;font-style:normal;font-variant:normal;font-weight:normal;font-stretch:normal;line-height:125%;letter-spacing:0px;word-spacing:0px;fill:#000000;stroke:none;font-family:Transport"
     d="m -3.434751,46.2337 c 0.610475,-0.709044 1.260239,-1.063577 1.949175,-1.063588 0.165696,10e-6 0.331392,0.02102 0.497107,0.06303 0.165696,0.04203 0.335757,0.10243 0.510191,0.181207 0.5101835,0.257372 0.9026335,0.635535 1.1773235,1.134476 l 0.02616,0.06303 0.05233,0.189087 0.02616,0.06303 0.156986,0.598757 c 0.0087,0.120812 0.01525,0.233733 0.01962,0.338773 0.0043,0.105054 0.0065,0.202224 0.0065,0.291505 v 5.798479 H -0.583054 v -5.357298 l -0.05228,-0.535729 c -0.0567,-0.115544 -0.09158,-0.231087 -0.104657,-0.346653 -0.257287,-0.498963 -0.562529,-0.748445 -0.915725,-0.748445 -0.213678,9e-6 -0.449152,0.09192 -0.70642,0.275745 -0.257278,0.231109 -0.440423,0.493717 -0.549436,0.787844 l -0.05233,0.378162 v 5.546386 h -1.596004 v -5.577884 l -0.02616,-0.283624 -0.05233,-0.126058 v -0.09454 c -0.04361,-0.08403 -0.08068,-0.161496 -0.111199,-0.232415 -0.03053,-0.0709 -0.05451,-0.14049 -0.07195,-0.208776 -0.244194,-0.278367 -0.514556,-0.425431 -0.811069,-0.441191 -0.57124,0.09455 -0.981148,0.420185 -1.229715,0.97692 l -0.05233,0.220595 -0.02616,0.346654 c 0.01308,0.04203 0.0218,0.0801 0.02616,0.114237 0.0043,0.03415 0.0065,0.0696 0.0065,0.106359 -2e-6,0.04202 -0.0022,0.07354 -0.0065,0.09454 v 5.105195 h -1.622156 v -8.603225 h 1.622156 v 0.630278 c 0.484023,-0.435923 0.989895,-0.688039 1.517463,-0.756325 h 0.02616 c 0.845948,1.1e-5 1.491312,0.357168 1.936145,1.071469 z"
     id="path18"
     inkscape:connector-curvature="0" />
  <path
     style="font-size:147.01713562px;font-style:normal;font-variant:normal;font-weight:normal;font-stretch:normal;line-height:125%;letter-spacing:0px;word-spacing:0px;fill:#000000;stroke:none;font-family:Transport"
     d="m 11.247843,41.58144 1.596005,0 0,4.463602 c 0.57124,-0.619753 1.188257,-0.92964 1.851042,-0.929651 0.09593,10e-6 0.19295,0.0066 0.291073,0.0197 0.09811,0.01314 0.195137,0.03284 0.291074,0.05909 0.91135,0.278379 1.504431,0.908656 1.779149,1.890866 l 0.02616,0.220595 c 0.01744,0.05778 0.02616,0.120812 0.02616,0.189076 v 6.460266 h -1.596005 v -5.609382 l -0.05233,-0.252104 v -0.09454 l -0.07849,-0.220596 c -0.06977,-0.126047 -0.113377,-0.231087 -0.130817,-0.315133 -0.231118,-0.246848 -0.466592,-0.414917 -0.706421,-0.50422 -0.745665,0.01576 -1.277642,0.404436 -1.596005,1.165973 v 0.09454 c -0.02181,0.07354 -0.04252,0.140501 -0.06214,0.200896 -0.01962,0.06041 -0.0338,0.119495 -0.04252,0.177267 v 5.357288 h -1.59599 z"
     id="path20"
     inkscape:connector-curvature="0" />
  <rect
     transform="matrix(0.91146023,0.41138819,-0.41138819,0.91146023,0,0)"
     height="16"
     width="1.5998"
     y="32.980896"
     x="24.059319"
     id="rect22"
     style="fill:#000000;fill-rule:nonzero;stroke:none" />
  <path
     d="m 14.01537,-3.275202 c -4.9793005,0 -8.9875005,3.9286 -8.9875005,8.8062 v 20.728 c 0,4.8777 4.0082,8.8031 8.9875005,8.8031 4.979299,0 8.9875,-3.9255 8.9875,-8.8031 v -20.728 c 0,-4.8777 -4.008201,-8.8062 -8.9875,-8.8062 z m 0.06562,4.9188 c 2.088699,0 3.771899,1.4525 3.771899,3.2562 v 21.372 c 0,1.8037 -1.6832,3.2562 -3.7719,3.2562 -2.088699,0 -3.7688,-1.4525 -3.7688,-3.2562 v -21.372 c 0,-1.8037 1.6801,-3.2562 3.7688,-3.2562 z"
     id="path12"
     inkscape:connector-curvature="0"
     style="fill:#000000;fill-rule:nonzero;stroke:none" />
  <path
     d="m -13.788631,-3.128202 c -4.775998,0 -8.621899,3.2995 -8.621899,7.4 v 5.5219 c 0,2.1054 1.014,3.9985 2.646899,5.3438 -1.6323,1.5372 -2.646899,3.7008 -2.646899,6.1062 v 5.3969 c 0,4.6858 3.845799,8.4594 8.621899,8.4594 4.776001,0 8.6188,-3.7736 8.6188,-8.4594 v -5.3969 c 0,-2.4054 -1.0146,-4.569 -2.646899,-6.1062 1.6329,-1.3453 2.646899,-3.2383 2.646899,-5.3438 v -5.5219 c 0,-4.1005 -3.842699,-7.4 -8.6188,-7.4 z m 0.04375,4.8875 c 2.070501,0 3.737499,1.5322 3.737499,3.4375 v 4.7781 c 0,1.9053 -1.666999,3.4406 -3.737499,3.4406 -2.070501,0 -3.737499,-1.5353 -3.737499,-3.4406 v -4.7781 c 0,-1.9053 1.666999,-3.4375 3.7375,-3.4375 z m 0,15.434 c 2.070501,0 3.737499,1.5353 3.737499,3.4406 v 5.9938 c 0,1.9053 -1.666999,3.4375 -3.737499,3.4375 -2.070501,0 -3.737499,-1.5322 -3.737499,-3.4375 v -5.9938 c 0,-1.9053 1.666999,-3.4406 3.7375,-3.4406 z"
     id="path24"
     inkscape:connector-curvature="0"
     style="fill:#000000;fill-rule:nonzero;stroke:none" />
</svg>
