<?xml version="1.0" encoding="UTF-8"?>
<svg xmlns="http://www.w3.org/2000/svg" xmlns:xlink="http://www.w3.org/1999/xlink" width="900.000000mm" height="600.000000mm" viewBox="0 0 9000 6000" version="1.1">
<g id="surface86">
<path style="fill-rule:evenodd;fill:rgb(94.509804%,94.117647%,91.764706%);fill-opacity:1;stroke-width:0.3;stroke-linecap:butt;stroke-linejoin:miter;stroke:rgb(16.470588%,16.078431%,16.470588%);stroke-opacity:1;stroke-miterlimit:3;" d="M -410 -300 C -420.608594 -300 -430.782812 -295.785547 -438.284375 -288.284375 C -445.785547 -280.782812 -450 -270.608594 -450 -260 L -450 260 C -450 270.608594 -445.785547 280.782812 -438.284375 288.284375 C -430.782812 295.785547 -420.608594 300 -410 300 L 410 300 C 420.608594 300 430.782813 295.785547 438.284375 288.284375 C 445.785547 280.782812 450 270.608594 450 260 L 450 -260 C 450 -270.608594 445.785547 -280.782812 438.284375 -288.284375 C 430.782813 -295.785547 420.608594 -300 410 -300 L -410 -300 " transform="matrix(10,0,0,-10,4500,3000)"/>
<path style=" stroke:none;fill-rule:evenodd;fill:rgb(0%,35.686275%,54.901961%);fill-opacity:1;" d="M 400 5850 C 261.929688 5850 150 5738.070312 150 5600 L 150 400 C 150 261.929688 261.929688 150 400 150 L 8600 150 C 8738.070312 150 8850 261.929688 8850 400 L 8850 5600 C 8850 5738.070312 8738.070312 5850 8600 5850 L 400 5850 "/>
<path style=" stroke:none;fill-rule:evenodd;fill:rgb(94.509804%,94.117647%,91.764706%);fill-opacity:1;" d="M 1935 3615.445312 L 1935 5460 C 1757.832031 5460 1614.207031 5316.375 1614.207031 5139.207031 L 1614.207031 4016.4375 L 812.226562 5299.601562 C 718.433594 5240.980469 661.453125 5138.179688 661.453125 5027.570312 C 661.453125 4967.449219 678.351562 4908.535156 710.214844 4857.550781 L 1293.414062 3924.433594 L 1293.414062 3615.445312 L 1935 3615.445312 M 1935 3535.246094 L 1293.414062 3535.246094 L 1293.414062 2930.28125 L 865.1875 3615.445312 C 783.121094 3564.152344 733.261719 3474.199219 733.261719 3377.417969 C 733.261719 3324.8125 748.046875 3273.261719 775.929688 3228.652344 L 1342.175781 2322.652344 C 1400.796875 2228.859375 1503.601562 2171.882812 1614.207031 2171.882812 C 1791.375 2171.882812 1935 2315.503906 1935 2492.671875 L 1935 2853.5625 L 2536.484375 3214.457031 C 2485.757812 3299 2394.390625 3350.734375 2295.792969 3350.734375 C 2244.917969 3350.734375 2195 3336.90625 2151.378906 3310.730469 L 1935 3180.90625 L 1935 3535.246094 M 2135.496094 1730.792969 C 2135.496094 1553.625 1991.871094 1410 1814.703125 1410 C 1637.535156 1410 1493.910156 1553.625 1493.910156 1730.792969 C 1493.910156 1907.960938 1637.535156 2051.585938 1814.703125 2051.585938 C 1991.871094 2051.585938 2135.496094 1907.960938 2135.496094 1730.792969 "/>
<path style=" stroke:none;fill-rule:evenodd;fill:rgb(94.509804%,94.117647%,91.764706%);fill-opacity:1;" d="M 3817.84375 5227.328125 C 3817.84375 5098.828125 3713.671875 4994.65625 3585.171875 4994.65625 C 3456.671875 4994.65625 3352.5 5098.828125 3352.5 5227.328125 C 3352.5 5355.828125 3456.671875 5460 3585.171875 5460 C 3713.671875 5460 3817.84375 5355.828125 3817.84375 5227.328125 M 4934.660156 4250.113281 L 4641.945312 4492.964844 C 4612.714844 4517.214844 4575.929688 4530.488281 4537.949219 4530.488281 C 4494.753906 4530.488281 4453.328125 4513.328125 4422.785156 4482.785156 L 4938.765625 3966.800781 C 4981.65625 3984.871094 5027.722656 3994.175781 5074.261719 3994.175781 C 5142.699219 3994.175781 5209.628906 3974.054688 5266.71875 3936.316406 L 5611.03125 4012.648438 C 5624.722656 4015.683594 5636.3125 4024.726562 5642.582031 4037.265625 L 5818.808594 4389.714844 C 5796.191406 4401.023438 5771.253906 4406.910156 5745.96875 4406.910156 C 5684.28125 4406.910156 5627.882812 4372.054688 5600.296875 4316.878906 L 5516.335938 4157.046875 L 5353.464844 4157.046875 L 5493.066406 4715.453125 L 5807.785156 4739.183594 C 5892.742188 4745.589844 5958.410156 4816.390625 5958.410156 4901.589844 L 5424.902344 4901.589844 C 5409.34375 4901.589844 5394.816406 4893.816406 5386.183594 4880.871094 L 5306.933594 4761.988281 L 5144.0625 4808.523438 L 5144.0625 5297.292969 C 5144.0625 5384.429688 5075.476562 5456.132812 4988.421875 5460 L 4934.660156 4250.113281 M 5306.933594 3645.171875 C 5306.933594 3516.671875 5202.761719 3412.5 5074.261719 3412.5 C 4945.761719 3412.5 4841.589844 3516.671875 4841.589844 3645.171875 C 4841.589844 3773.671875 4945.761719 3877.84375 5074.261719 3877.84375 C 5202.761719 3877.84375 5306.933594 3773.671875 5306.933594 3645.171875 "/>
<path style=" stroke:none;fill-rule:evenodd;fill:rgb(94.509804%,94.117647%,91.764706%);fill-opacity:1;" d="M 3105 1455 C 3105 1425.789062 3114.472656 1397.367188 3132 1374 L 3159 1338 C 3177.898438 1312.800781 3193.792969 1285.488281 3206.359375 1256.605469 L 3384.34375 847.609375 C 3402.210938 806.554688 3442.722656 780 3487.5 780 L 4612.5 780 C 4657.277344 780 4697.789062 806.554688 4715.65625 847.609375 L 4893.640625 1256.605469 C 4906.207031 1285.488281 4922.101562 1312.800781 4941 1338 L 4968 1374 C 4985.527344 1397.367188 4995 1425.789062 4995 1455 L 4995 1747.5 C 4995 1809.632812 4944.632812 1860 4882.5 1860 L 3217.5 1860 C 3155.367188 1860 3105 1809.632812 3105 1747.5 L 3105 1455 M 3318.75 1275 L 3473.4375 919.542969 C 3480.582031 903.121094 3496.789062 892.5 3514.699219 892.5 L 4585.304688 892.5 C 4603.214844 892.5 4619.417969 903.121094 4626.566406 919.542969 L 4781.25 1275 L 3318.75 1275 M 3487.5 1522.5 C 3487.5 1447.941406 3427.058594 1387.5 3352.5 1387.5 C 3277.941406 1387.5 3217.5 1447.941406 3217.5 1522.5 C 3217.5 1597.058594 3277.941406 1657.5 3352.5 1657.5 C 3427.058594 1657.5 3487.5 1597.058594 3487.5 1522.5 M 4882.5 1522.5 C 4882.5 1447.941406 4822.058594 1387.5 4747.5 1387.5 C 4672.941406 1387.5 4612.5 1447.941406 4612.5 1522.5 C 4612.5 1597.058594 4672.941406 1657.5 4747.5 1657.5 C 4822.058594 1657.5 4882.5 1597.058594 4882.5 1522.5 M 3217.5 1905 L 3487.5 1905 L 3487.5 2152.5 C 3487.5 2189.777344 3457.277344 2220 3420 2220 L 3285 2220 C 3247.722656 2220 3217.5 2189.777344 3217.5 2152.5 L 3217.5 1905 M 4612.5 1905 L 4882.5 1905 L 4882.5 2152.5 C 4882.5 2189.777344 4852.277344 2220 4815 2220 L 4680 2220 C 4642.722656 2220 4612.5 2189.777344 4612.5 2152.5 L 4612.5 1905 "/>
<path style=" stroke:none;fill-rule:evenodd;fill:rgb(94.509804%,94.117647%,91.764706%);fill-opacity:1;" d="M 6466.152344 3110 L 6466.152344 1413.847656 L 6030 1413.847656 L 6805.382812 906.863281 L 6805.382812 638.460938 L 7047.691406 638.460938 L 7047.691406 748.433594 L 7290 590 L 8550 1413.847656 L 8113.847656 1413.847656 L 8113.847656 3110 L 6466.152344 3110 M 6611.539062 2964.617188 L 6611.539062 1292.691406 L 7290 735.382812 L 7968.460938 1292.691406 L 7968.460938 2964.617188 L 7483.847656 2964.617188 L 7483.847656 2237.691406 L 7096.152344 2237.691406 L 7096.152344 2964.617188 L 6611.539062 2964.617188 M 6805.382812 1898.460938 L 6805.382812 1413.847656 L 7193.078125 1413.847656 L 7193.078125 1898.460938 L 6805.382812 1898.460938 M 7386.921875 1898.460938 L 7386.921875 1413.847656 L 7774.617188 1413.847656 L 7774.617188 1898.460938 L 7386.921875 1898.460938 "/>
<path style=" stroke:none;fill-rule:evenodd;fill:rgb(94.509804%,94.117647%,91.764706%);fill-opacity:1;" d="M 8100 5100 L 6436.984375 3897.347656 C 5898.75 3508.109375 5580 2884.226562 5580 2220 L 5782.5 2220 C 5782.5 2819.25 6070.070312 3382.097656 6555.648438 3733.257812 L 8100 4856.480469 L 8100 5100 "/>
</g>
</svg>
