<?xml version="1.0" encoding="utf-8"?>
<!-- Generator: Adobe Illustrator 16.0.0, SVG Export Plug-In . SVG Version: 6.00 Build 0)  -->
<!DOCTYPE svg PUBLIC "-//W3C//DTD SVG 1.1//EN" "http://www.w3.org/Graphics/SVG/1.1/DTD/svg11.dtd">
<svg version="1.1"
	 id="svg4523" xmlns:dc="http://purl.org/dc/elements/1.1/" xmlns:cc="http://creativecommons.org/ns#" xmlns:rdf="http://www.w3.org/1999/02/22-rdf-syntax-ns#" xmlns:svg="http://www.w3.org/2000/svg"
	 xmlns="http://www.w3.org/2000/svg" xmlns:xlink="http://www.w3.org/1999/xlink" x="0px" y="0px" width="450.5px" height="600.5px"
	 viewBox="0 0 450.5 600.5" enable-background="new 0 0 450.5 600.5" xml:space="preserve">
<path id="rect4531" fill="#EAC40A" stroke="#000000" stroke-width="0.5" d="M12.25,0.264h426c6.627,0,12,5.373,12,12v576
	c0,6.628-5.373,12-12,12h-426c-6.627,0-12-5.372-12-12v-576C0.25,5.637,5.623,0.264,12.25,0.264z"/>
<path id="path3994" stroke="#000000" stroke-width="1.0015" stroke-linecap="round" stroke-linejoin="round" d="M225.515,13.735
	c-15.775,7.728-30.94,12.222-48.229,12.068L13.062,25.835v358.66c0.006,13.513,3.058,27.17,7.914,39.729
	c27.285,56.979,69.948,104.548,123.845,137.464c23.632,16.347,51.678,25.104,80.414,25.104s56.804-8.765,80.477-25.136
	c53.938-32.94,97.058-80.451,124.344-137.464c4.857-12.593,7.375-26.524,7.384-40.01l-0.031-358.349H273.184
	C255.885,26.013,241.29,21.463,225.515,13.735z M225.515,25.118c15.555,6.921,32.294,10.49,48.728,10.478l153.413,0.031
	l0.031,348.899c0,13.261-2.905,26.552-8.038,38.763c-27.311,55.374-70.305,101.03-123.503,132.35
	c-21.174,13.586-45.774,20.801-70.911,20.801c-25.137,0-49.727-7.211-70.88-20.801c-53.178-31.323-95.657-76.967-122.973-132.318
	c-5.139-12.188-8.578-25.545-8.568-38.825V35.596h153.444C193.266,35.607,209.96,32.039,225.515,25.118L225.515,25.118z"/>
<g enable-background="new    ">
	<path d="M191.969,412.649V462.5h-31.343v-49.851H61.521v-18.806L160.625,262.5h31.343v121.492h19.104v28.657H191.969z
		 M160.625,308.769l-57.015,75.224h57.015V308.769z"/>
	<path d="M321.815,466.082c-14.925,0-27.267-2.887-37.015-8.656c-9.753-5.77-17.812-14.823-24.18-27.165
		c-4.58-8.955-8.162-19.402-10.746-31.343c-2.588-11.94-3.881-24.179-3.881-36.717c0-15.919,1.987-31.143,5.971-45.671
		c3.979-14.524,9.449-26.27,16.418-35.225c5.97-7.359,13.181-12.934,21.642-16.716c8.456-3.778,18.358-5.672,29.701-5.672
		c15.122,0,27.612,3.283,37.463,9.851s18.157,16.917,24.925,31.045l-29.552,12.537c-2.789-4.179-5.326-7.658-7.612-10.447
		c-2.289-2.785-4.678-4.973-7.164-6.567c-2.49-1.591-5.177-2.687-8.06-3.284c-2.887-0.597-6.222-0.896-10-0.896
		c-8.162,0-14.977,1.895-20.448,5.672c-5.475,3.783-9.901,10.149-13.283,19.104c-2.588,5.971-4.529,13.036-5.82,21.194
		c-1.297,8.162-1.94,16.521-1.94,25.074c0,10.947,1.091,21.446,3.284,31.493c2.188,10.051,5.27,18.26,9.253,24.627
		c3.582,5.177,7.761,9.058,12.538,11.642c4.775,2.589,10.643,3.881,17.611,3.881c6.764,0,12.635-1.838,17.611-5.522
		c4.973-3.681,9.45-9.6,13.434-17.762l30.148,11.344C370.174,451.357,350.07,466.082,321.815,466.082z"/>
</g>
<g id="text5063">
	<path id="path5103" d="M188.292,187l-38.209-67.761V187h-15.821V87h15.821l36.418,63.881V87h15.821v100H188.292"/>
	<path id="path5105" d="M300.418,187v-43.582H264V187h-15.821V87H264v40.298h36.418V87h15.82v100H300.418"/>
</g>
</svg>
