<?xml version="1.0" encoding="UTF-8" standalone="no"?>
<svg
   width="700pt"
   height="700pt"
   viewBox="0 0 700 700"
   version="1.1"
   id="svg1181"
   sodipodi:docname="TWHW4.svg"
   inkscape:version="1.2 (dc2aedaf03, 2022-05-15)"
   xmlns:inkscape="http://www.inkscape.org/namespaces/inkscape"
   xmlns:sodipodi="http://sodipodi.sourceforge.net/DTD/sodipodi-0.dtd"
   xmlns="http://www.w3.org/2000/svg"
   xmlns:svg="http://www.w3.org/2000/svg">
  <defs
     id="defs1185" />
  <sodipodi:namedview
     id="namedview1183"
     pagecolor="#ffffff"
     bordercolor="#000000"
     borderopacity="0.25"
     inkscape:showpageshadow="2"
     inkscape:pageopacity="0.0"
     inkscape:pagecheckerboard="0"
     inkscape:deskcolor="#d1d1d1"
     inkscape:document-units="pt"
     showgrid="false"
     inkscape:zoom="0.44839286"
     inkscape:cx="-576.50338"
     inkscape:cy="399.2035"
     inkscape:window-width="1920"
     inkscape:window-height="1017"
     inkscape:window-x="-8"
     inkscape:window-y="-8"
     inkscape:window-maximized="1"
     inkscape:current-layer="svg1181" />
  <path
     fill="#ffffff"
     stroke="#ffffff"
     stroke-width="0.09375"
     opacity="1.00"
     d=" M 318.6 17.6 C 324.0 16.3 329.6 16.3 335.0 15.0 C 344.3 15.0 353.6 14.8 362.8 15.1 C 365.4 16.3 368.2 15.9 370.9 16.0 C 377.9 17.4 384.9 18.4 391.8 20.2 C 403.3 23.6 415.0 26.8 425.7 32.3 C 437.9 38.1 449.0 46.0 459.4 54.6 C 463.7 57.2 466.3 61.8 470.6 64.4 C 473.8 66.3 475.1 69.9 477.7 72.3 C 480.0 74.6 482.7 76.7 484.4 79.6 C 495.5 92.9 505.0 107.6 511.3 123.7 C 513.2 128.1 514.0 132.8 516.1 137.1 C 519.8 137.1 523.7 136.4 527.2 137.9 C 530.9 138.4 534.8 137.3 538.4 138.6 C 553.9 140.3 569.1 144.6 583.6 150.4 C 588.2 152.4 592.5 155.1 597.3 156.7 C 603.0 160.0 608.5 163.5 614.2 166.8 C 619.1 170.1 623.7 174.0 628.6 177.4 C 632.2 180.1 634.7 184.1 638.6 186.4 C 640.8 187.8 642.4 190.0 643.8 192.2 C 646.4 195.2 649.6 197.7 652.2 200.8 C 655.8 205.9 659.7 210.7 663.2 215.8 C 665.9 220.4 668.6 225.0 671.6 229.4 C 673.6 235.1 676.9 240.2 679.3 245.7 C 684.9 258.9 688.3 273.0 690.9 287.1 C 691.1 289.2 690.8 291.4 691.6 293.4 C 692.8 297.9 691.0 302.8 692.9 307.2 C 693.1 313.0 693.1 318.9 692.9 324.8 C 691.7 327.4 692.0 330.2 692.0 333.0 C 689.2 353.0 683.1 372.7 673.7 390.7 C 672.0 394.0 670.4 397.4 668.6 400.6 C 664.8 405.9 662.0 411.8 657.8 416.9 C 654.6 421.3 651.2 425.6 647.8 429.8 C 641.7 435.4 636.5 441.9 629.8 446.8 C 626.7 449.5 623.2 451.7 620.0 454.2 C 620.0 455.8 619.9 457.3 620.1 458.8 C 622.9 467.5 625.1 476.5 626.4 485.6 C 627.5 488.7 626.4 492.1 627.9 495.2 C 628.2 504.1 627.9 513.1 628.0 522.0 C 626.3 543.5 620.9 564.9 611.4 584.4 C 610.3 588.6 607.5 591.9 605.7 595.7 C 599.1 607.4 591.1 618.2 582.3 628.3 C 576.4 633.7 571.3 640.1 564.8 644.8 C 559.7 648.8 554.9 653.1 549.2 656.2 C 538.8 663.8 527.0 669.3 515.1 674.1 C 508.8 675.9 502.9 679.1 496.4 680.4 C 490.3 682.7 483.8 683.3 477.4 684.4 C 473.7 685.8 469.5 684.2 465.8 685.9 C 458.9 686.1 452.0 686.1 445.2 685.9 C 440.9 684.0 436.1 686.0 431.8 684.2 C 427.7 684.1 423.8 683.0 419.8 682.2 C 413.1 681.6 406.8 679.2 400.4 677.6 C 382.7 672.2 365.9 664.0 351.2 652.7 C 349.2 650.9 346.6 652.5 344.8 653.8 C 321.5 670.4 293.8 681.1 265.4 684.4 C 261.0 685.9 256.1 684.0 251.8 685.9 C 246.2 685.9 240.4 686.6 234.9 685.0 C 231.8 684.8 228.5 685.4 225.4 684.6 C 222.9 683.6 220.1 684.4 217.6 683.4 C 207.5 682.1 197.6 679.2 187.9 676.1 C 173.5 670.6 159.3 664.1 146.7 655.3 C 140.7 651.3 135.4 646.6 129.8 642.3 C 124.4 636.9 119.1 631.6 113.7 626.2 C 107.1 617.9 99.8 609.9 94.4 600.6 C 87.9 590.4 83.2 579.2 79.1 567.9 C 75.5 555.2 71.6 542.4 70.8 529.2 C 68.9 524.6 71.1 519.4 69.1 514.8 C 69.1 510.2 68.3 505.3 69.9 500.8 C 70.5 496.8 69.3 492.5 70.6 488.6 C 71.8 479.0 73.7 469.3 77.1 460.2 C 78.0 458.3 78.1 456.3 78.0 454.3 C 74.2 450.6 69.9 447.6 65.8 444.3 C 60.2 438.8 54.8 433.2 49.2 427.8 C 25.7 401.8 10.8 368.1 6.6 333.4 C 5.2 329.7 6.8 325.5 5.1 321.8 C 4.9 315.6 4.9 309.4 5.1 303.2 C 6.9 299.2 5.1 294.7 6.6 290.6 C 10.0 264.2 19.6 238.5 34.3 216.3 C 38.2 211.5 40.8 205.7 45.2 201.1 C 47.6 197.0 51.9 194.5 54.4 190.4 C 55.9 187.9 58.4 186.4 60.7 184.7 C 71.1 174.0 84.0 166.2 96.8 158.8 C 102.6 155.2 109.0 152.9 115.1 150.1 C 130.9 143.5 147.7 138.6 164.8 137.9 C 170.3 136.1 176.2 137.3 181.9 137.0 C 184.4 130.8 186.6 124.5 189.3 118.3 C 197.5 101.1 207.8 84.7 221.2 71.2 C 223.5 67.6 226.7 64.7 229.8 61.8 C 233.0 60.1 235.0 57.0 238.0 55.0 C 261.2 36.1 289.0 22.6 318.6 17.6 M 287.0 59.9 C 244.4 80.8 211.9 123.1 206.6 170.7 C 204.1 170.5 201.7 170.2 199.2 169.8 C 170.1 165.9 140.0 171.4 114.0 185.0 C 87.7 198.7 65.7 220.8 52.3 247.3 C 40.0 272.5 34.0 301.1 37.4 329.0 C 43.3 376.9 73.9 422.0 118.2 442.1 C 116.7 446.1 114.6 449.9 112.8 453.7 C 102.1 478.8 98.4 507.0 103.1 533.9 C 107.1 559.3 118.3 583.5 134.8 603.1 C 151.3 622.8 173.3 637.8 197.3 646.8 C 237.4 660.7 283.5 655.6 319.8 633.8 C 330.7 627.5 340.2 619.1 349.0 610.3 C 350.8 610.7 351.9 612.6 353.3 613.7 C 368.0 628.4 386.2 639.4 405.8 646.3 C 434.1 656.3 465.6 657.1 494.4 648.5 C 523.2 640.0 548.9 622.0 567.6 598.6 C 601.5 554.8 607.4 490.6 580.1 442.2 C 607.0 429.0 630.0 407.6 644.1 381.1 C 659.4 353.3 664.8 320.4 659.7 289.1 C 654.6 259.7 641.1 231.4 619.5 210.4 C 589.4 180.9 546.1 164.5 504.0 169.0 C 499.8 169.3 495.8 170.6 491.7 170.6 C 487.2 136.6 470.0 104.4 444.1 81.9 C 423.6 63.9 397.9 51.8 371.0 47.8 C 342.6 43.7 312.8 47.3 287.0 59.9 Z"
     id="path1171" />
  <path
     fill="#007a36"
     stroke="#007a36"
     stroke-width="0.09375"
     opacity="1.00"
     d=" M 287.0 59.9 C 312.8 47.3 342.6 43.7 371.0 47.8 C 397.9 51.8 423.6 63.9 444.1 81.9 C 470.0 104.4 487.2 136.6 491.7 170.6 C 495.8 170.6 499.8 169.3 504.0 169.0 C 546.1 164.5 589.4 180.9 619.5 210.4 C 641.1 231.4 654.6 259.7 659.7 289.1 C 664.8 320.4 659.4 353.3 644.1 381.1 C 630.0 407.6 607.0 429.0 580.1 442.2 C 607.4 490.6 601.5 554.8 567.6 598.6 C 548.9 622.0 523.2 640.0 494.4 648.5 C 465.6 657.1 434.1 656.3 405.8 646.3 C 386.2 639.4 368.0 628.4 353.3 613.7 C 351.9 612.6 350.8 610.7 349.0 610.3 C 340.2 619.1 330.7 627.5 319.8 633.8 C 283.5 655.6 237.4 660.7 197.3 646.8 C 173.3 637.8 151.3 622.8 134.8 603.1 C 118.3 583.5 107.1 559.3 103.1 533.9 C 98.4 507.0 102.1 478.8 112.8 453.7 C 114.6 449.9 116.7 446.1 118.2 442.1 C 73.9 422.0 43.3 376.9 37.4 329.0 C 34.0 301.1 40.0 272.5 52.3 247.3 C 65.7 220.8 87.7 198.7 114.0 185.0 C 140.0 171.4 170.1 165.9 199.2 169.8 C 201.7 170.2 204.1 170.5 206.6 170.7 C 211.9 123.1 244.4 80.8 287.0 59.9 M 336.0 79.0 C 314.6 81.6 293.9 90.4 277.4 104.4 C 261.6 117.6 249.5 135.3 243.1 154.9 C 236.1 175.1 235.6 197.4 240.9 218.0 C 235.9 215.8 231.5 212.5 226.4 210.6 C 190.6 193.9 146.0 198.8 114.4 222.4 C 98.1 234.3 85.3 250.9 77.5 269.5 C 63.7 301.7 66.7 340.3 84.9 370.1 C 95.0 387.2 110.0 401.1 127.3 410.8 C 141.8 418.3 157.8 423.3 174.1 424.1 C 170.5 427.6 166.6 430.7 163.3 434.4 C 148.7 450.0 138.7 469.9 135.0 491.0 C 131.0 513.0 133.9 536.3 143.3 556.7 C 158.1 590.3 190.7 615.3 227.0 620.9 C 263.5 627.2 302.4 613.6 327.3 586.3 C 336.4 576.1 344.1 564.5 349.1 551.7 C 350.9 554.2 351.8 557.1 353.1 559.9 C 361.1 576.2 373.1 590.5 387.9 601.2 C 405.3 613.7 426.5 621.3 448.0 622.2 C 480.5 624.0 513.4 610.4 535.4 586.4 C 562.9 557.2 572.6 512.5 559.1 474.7 C 554.2 458.8 544.8 444.6 533.4 432.6 C 530.7 429.5 527.4 427.2 524.7 424.1 C 530.3 423.4 535.9 422.9 541.4 421.6 C 576.8 414.3 607.5 388.5 621.0 355.0 C 635.8 320.0 630.8 277.4 608.2 246.8 C 595.6 229.4 577.9 215.8 557.9 208.1 C 540.6 201.4 521.6 199.4 503.2 201.4 C 487.0 203.8 471.3 209.6 457.3 218.0 C 464.2 191.9 461.2 163.3 448.7 139.3 C 437.6 117.2 418.8 99.1 396.3 88.7 C 377.6 80.0 356.5 76.5 336.0 79.0 Z"
     id="path1173" />
  <path
     fill="#ffffff"
     stroke="#ffffff"
     stroke-width="0.09375"
     opacity="1.00"
     d=" M 331.2 360.2 C 345.1 346.4 358.9 332.4 373.0 318.7 C 373.2 344.4 373.2 370.1 373.0 395.8 C 347.3 395.7 321.6 395.7 295.8 395.8 C 307.2 383.5 319.4 372.1 331.2 360.2 Z"
     id="path1179" />
  <path
     fill="#ffffff"
     stroke="#ffffff"
     stroke-width="0.09375"
     opacity="1"
     d="m 315.42449,83.442753 c 29.30004,-9.5 62.50004,-6 89.10004,9.3 27.6,15.399997 47.8,43.299997 54.1,74.199997 2.6,11.9 3,24.2 1.6,36.3 -0.2,4.9 -2,9.5 -2.4,14.4 14.2,-8.3 29.9,-14.2 46.2,-16.4 19,-1.7 38.6,0.3 56.3,7.8 32.1,12.9 57.3,41.7 65.7,75.4 5.2,20.2 4.7,41.9 -1.7,61.8 -11.5,37.2 -43.9,66.9 -82,75.1 -5.6,1.3 -11.4,1.9 -17.2,2.4 0.3,0.8 0.7,1.5 1.4,2.1 11.4,9.80003 20.6,22.10003 27.5,35.40008 5.8,12.6 9.7,26.1 10.9,39.9 1.5,20.1 -2.2,40.7 -11.3,58.7 -8.2,17.2 -21.3,32.1 -37.1,42.9 -18,12.2 -39.6,19.2 -61.4,19.5 -17.7,0.1 -35.5,-3.6 -51.3,-11.7 -22.5,-11 -41,-29.9 -51.4,-52.6 -1,-2.1 -1.7,-4.3 -3.2,-6.1 -5,11.8 -11.7,22.8 -20.10004,32.4 -20.2,23.1 -50.3,37.3 -81,37.9 -21.2,0.6 -42.70005,-5 -60.80005,-16.1 -31.6,-18.7 -52.5,-54 -53.8,-90.7 -1.6,-33.3 12.6,-67.00005 37.9,-88.70008 0.9,-0.8 1.5,-1.6 1.9,-2.6 -16.4,-1.2 -32.6,-6.1 -47.1,-14 -12.8,-7.6 -24.7,-17.2 -33.799988,-29.2 -14.5,-18.6 -22.8,-42 -23.4,-65.6 -0.9,-31.1 11.9,-62.2 34.499988,-83.7 11.4,-10.9 25.3,-19.4 40.3,-24.6 29.3,-10.5 63,-7.8 90.30005,7.3 2.3,1.4 4.6,2.7 7,3.8 -5.5,-20.7 -4.9,-43.2 2.2,-63.5 10.8,-33.5 38.6,-60.699997 72.1,-71.099997"
     id="path6-8"
     sodipodi:nodetypes="ccccccccccccccccccccccccccccccccccc" />
  <path
     fill="#000000"
     stroke="#000000"
     stroke-width="0.09375"
     opacity="1.00"
     d=" M 373.4 254.3 C 388.8 254.2 404.2 254.3 419.6 254.3 C 419.4 284.2 419.5 314.1 419.5 344.0 C 419.7 361.3 419.2 378.6 419.7 395.9 C 431.6 395.6 443.5 395.8 455.3 395.8 C 455.4 410.5 455.4 425.3 455.3 440.0 C 443.4 440.1 431.4 439.8 419.4 440.1 C 419.6 457.6 419.5 475.0 419.5 492.5 C 404.0 492.5 388.5 492.6 373.1 492.4 C 373.2 474.9 373.1 457.5 373.1 440.0 C 326.7 440.0 280.2 440.0 233.8 440.0 C 233.7 425.7 233.7 411.3 233.8 397.0 C 233.6 395.6 234.9 394.7 235.7 393.7 C 279.6 349.2 323.4 304.7 367.2 260.2 C 369.3 258.3 371.0 255.9 373.4 254.3 M 331.2 360.2 C 319.4 372.1 307.2 383.5 295.8 395.8 C 321.6 395.7 347.3 395.7 373.0 395.8 C 373.2 370.1 373.2 344.4 373.0 318.7 C 358.9 332.4 345.1 346.4 331.2 360.2 Z"
     id="path1177" />
</svg>
