<?xml version="1.0" encoding="UTF-8" standalone="no"?>
<!-- Created with Inkscape (http://www.inkscape.org/) -->

<svg
   xmlns:dc="http://purl.org/dc/elements/1.1/"
   xmlns:cc="http://creativecommons.org/ns#"
   xmlns:rdf="http://www.w3.org/1999/02/22-rdf-syntax-ns#"
   xmlns:svg="http://www.w3.org/2000/svg"
   xmlns="http://www.w3.org/2000/svg"
   xmlns:sodipodi="http://sodipodi.sourceforge.net/DTD/sodipodi-0.dtd"
   xmlns:inkscape="http://www.inkscape.org/namespaces/inkscape"
   width="605mm"
   height="605mm"
   viewBox="0 0 605 605"
   version="1.1"
   id="svg837"
   inkscape:version="0.92.2 (5c3e80d, 2017-08-06)"
   sodipodi:docname="11.svg">
  <defs
     id="defs831" />
  <sodipodi:namedview
     id="base"
     pagecolor="#ffffff"
     bordercolor="#666666"
     borderopacity="1.0"
     inkscape:pageopacity="0.0"
     inkscape:pageshadow="2"
     inkscape:zoom="0.24748737"
     inkscape:cx="927.73453"
     inkscape:cy="1129.6"
     inkscape:document-units="mm"
     inkscape:current-layer="layer1"
     showgrid="false"
     inkscape:window-width="1920"
     inkscape:window-height="1057"
     inkscape:window-x="-8"
     inkscape:window-y="-8"
     inkscape:window-maximized="1" />
  <metadata
     id="metadata834">
    <rdf:RDF>
      <cc:Work
         rdf:about="">
        <dc:format>image/svg+xml</dc:format>
        <dc:type
           rdf:resource="http://purl.org/dc/dcmitype/StillImage" />
        <dc:title></dc:title>
      </cc:Work>
    </rdf:RDF>
  </metadata>
  <g
     inkscape:label="Layer 1"
     inkscape:groupmode="layer"
     id="layer1"
     transform="translate(0,308)">
    <path
       inkscape:connector-curvature="0"
       d="M 604.49964,-130.592 604.5,119.5925 427.592,296.49964 177.40751,296.5 0.5,119.5925 V -130.59199 L 177.40714,-307.49965 427.59249,-307.5 Z"
       id="use15"
       style="fill:#000000;stroke:none;stroke-width:0.60399991"
       sodipodi:nodetypes="ccccccccc" />
    <path
       style="fill:#ffffff;stroke:none;stroke-width:0.5999999"
       id="path1403"
       d="M 602.50002,-129.76407 V 118.76406 L 426.76402,294.5 H 178.23592 L 2.5,118.76406 v -248.52813 l 175.73592,-175.73594 h 248.5281 z"
       inkscape:connector-curvature="0" />
    <path
       inkscape:connector-curvature="0"
       d="M 582.50002,-121.4798 V 110.47979 L 418.47982,274.5 H 186.52022 L 22.5,110.47979 V -121.4798 l 164.02022,-164.02021 h 231.9596 z"
       id="path1405"
       style="fill:#ff0000;fill-opacity:1;stroke:none;stroke-width:0.55999988" />
    <rect
       style="display:inline;opacity:1;fill:#ffffff;fill-opacity:1;fill-rule:nonzero;stroke:none;stroke-width:0.06518111;stroke-linecap:butt;stroke-linejoin:round;stroke-miterlimit:10;stroke-dasharray:none;stroke-opacity:1;paint-order:normal"
       id="rect8658"
       width="101.00001"
       height="250"
       x="306.5"
       y="-130.50002"
       rx="50.500004"
       ry="50.500004" />
    <rect
       ry="20.5"
       rx="20.5"
       y="-103.70002"
       x="336.5"
       height="196.39999"
       width="41"
       id="rect8671"
       style="display:inline;opacity:1;fill:#ff0000;fill-opacity:1;fill-rule:nonzero;stroke:none;stroke-width:0.03680897;stroke-linecap:butt;stroke-linejoin:round;stroke-miterlimit:10;stroke-dasharray:none;stroke-opacity:1;paint-order:normal" />
    <path
       style="display:inline;opacity:1;fill:#ffffff;fill-opacity:1;fill-rule:nonzero;stroke:none;stroke-width:0.05455766;stroke-linecap:butt;stroke-linejoin:round;stroke-miterlimit:10;stroke-dasharray:none;stroke-opacity:1;paint-order:normal"
       d="m 256.69982,119.5 v -223.19983 h 31.80013 v -26.79991 H 194.5 v 26.79991 h 31.80013 V 119.5 Z"
       id="rect8745"
       inkscape:connector-curvature="0"
       sodipodi:nodetypes="ccccccccc" />
    <path
       style="display:inline;opacity:1;fill:#ffffff;fill-opacity:1;fill-rule:nonzero;stroke:none;stroke-width:0.12090369;stroke-linecap:butt;stroke-linejoin:round;stroke-miterlimit:10;stroke-dasharray:none;stroke-opacity:1;paint-order:normal"
       d="m 425.5,119.5 v -108.400124 -26.79991 -87.999796 -26.79991 h 29.89998 22.09996 c 23.822,0 42.99995,19.17796 42.99995,42.999963 v 55.599693 c 0,23.8219997 -19.17795,42.99996 -42.99995,42.99996 H 455.39998 V 119.5 Z m 29.89998,-135.200034 h 17.99995 c 9.52881,0 17.19998,-8.11712 17.19998,-18.19992 v -51.599943 c 0,-10.0828 -7.67117,-18.199933 -17.19998,-18.199933 h -17.99995 z"
       id="rect8818"
       inkscape:connector-curvature="0" />
    <path
       style="display:inline;opacity:1;fill:#ffffff;fill-opacity:1;fill-rule:nonzero;stroke:none;stroke-width:0.06220924;stroke-linecap:butt;stroke-linejoin:round;stroke-miterlimit:10;stroke-dasharray:none;stroke-opacity:1;paint-order:normal"
       d="m 130.5003,-130.49974 c -25.484,0 -46.0003,20.51578 -46.0003,45.999783 v 27.554393 c 0,7.74705 2.384,15.30695 6.8275,21.65294 l 53.7704,76.79376 c 0.7504,1.18722 1.4049,2.75654 1.4019,4.4452 v 31.15367 c 1e-4,8.864 -7.136,16.00005 -16,16.00005 -8.864,0 -15.9996,-7.13605 -15.9996,-16.00005 V 44.500436 H 84.5 v 28.99979 C 84.5,98.98423 105.0158,119.5 130.4998,119.5 c 25.484,0 46.00027,-20.51577 46.00027,-45.999774 v -27.5544 c 0,-7.74705 -2.38396,-15.30644 -6.82749,-21.65242 l -53.77038,-76.79428 c -0.7504,-1.18722 -1.405,-2.75604 -1.402,-4.44469 v -31.154173 c 0,-8.864 7.1361,-16.000063 16.0001,-16.000063 8.864,0 15.9995,7.136063 15.9995,16.000063 v 32.600073 h 30.00027 v -29.000293 c 0,-25.484003 -20.51577,-45.999783 -45.99977,-45.999783 z"
       id="rect840"
       inkscape:connector-curvature="0" />
  </g>
</svg>
