<?xml version="1.0" encoding="UTF-8" standalone="no"?>
<!-- Created with Inkscape (http://www.inkscape.org/) -->

<svg
   xmlns:dc="http://purl.org/dc/elements/1.1/"
   xmlns:cc="http://creativecommons.org/ns#"
   xmlns:rdf="http://www.w3.org/1999/02/22-rdf-syntax-ns#"
   xmlns:svg="http://www.w3.org/2000/svg"
   xmlns="http://www.w3.org/2000/svg"
   xmlns:sodipodi="http://sodipodi.sourceforge.net/DTD/sodipodi-0.dtd"
   xmlns:inkscape="http://www.inkscape.org/namespaces/inkscape"
   width="606mm"
   height="606mm"
   viewBox="0 0 606 605.99998"
   version="1.1"
   id="svg823"
   inkscape:version="0.92.2 (5c3e80d, 2017-08-06)"
   sodipodi:docname="Singapore Template 2.svg">
  <defs
     id="defs817" />
  <sodipodi:namedview
     id="base"
     pagecolor="#ffffff"
     bordercolor="#666666"
     borderopacity="1.0"
     inkscape:pageopacity="0.0"
     inkscape:pageshadow="2"
     inkscape:zoom="0.12374369"
     inkscape:cx="2257.1771"
     inkscape:cy="1120.0013"
     inkscape:document-units="mm"
     inkscape:current-layer="layer1"
     showgrid="false"
     inkscape:window-width="1920"
     inkscape:window-height="1057"
     inkscape:window-x="-8"
     inkscape:window-y="-8"
     inkscape:window-maximized="1"
     inkscape:snap-global="false" />
  <metadata
     id="metadata820">
    <rdf:RDF>
      <cc:Work
         rdf:about="">
        <dc:format>image/svg+xml</dc:format>
        <dc:type
           rdf:resource="http://purl.org/dc/dcmitype/StillImage" />
        <dc:title></dc:title>
      </cc:Work>
    </rdf:RDF>
  </metadata>
  <g
     inkscape:label="Layer 1"
     inkscape:groupmode="layer"
     id="layer1"
     transform="translate(0,309)">
    <rect
       style="opacity:1;fill:#000000;fill-opacity:1;fill-rule:nonzero;stroke:none;stroke-width:0.0664286;stroke-linecap:square;stroke-linejoin:round;stroke-miterlimit:10;stroke-dasharray:none;stroke-opacity:1;paint-order:stroke fill markers"
       id="rect1368"
       width="604"
       height="604"
       x="1"
       y="-308"
       rx="52"
       ry="52" />
    <rect
       ry="50"
       rx="50"
       y="-306"
       x="3"
       height="600"
       width="600"
       id="rect1370"
       style="opacity:1;fill:#ffffff;fill-opacity:1;fill-rule:nonzero;stroke:none;stroke-width:0.06598867;stroke-linecap:square;stroke-linejoin:round;stroke-miterlimit:10;stroke-dasharray:none;stroke-opacity:1;paint-order:stroke fill markers" />
    <rect
       style="opacity:1;fill:#0046aa;fill-opacity:1;fill-rule:nonzero;stroke:none;stroke-width:0;stroke-linecap:square;stroke-linejoin:miter;stroke-miterlimit:10;stroke-dasharray:none;stroke-opacity:1;paint-order:fill markers stroke"
       id="rect826"
       width="570"
       height="570"
       x="18"
       y="-291"
       rx="35"
       ry="35" />
    <path
       style="opacity:1;fill:#ffffff;fill-opacity:1;fill-rule:nonzero;stroke:none;stroke-width:2;stroke-linecap:square;stroke-linejoin:round;stroke-miterlimit:4;stroke-dasharray:none;stroke-opacity:1;paint-order:markers stroke fill"
       d="M 303,-254 563,196 H 43 Z"
       id="rect815"
       inkscape:connector-curvature="0"
       sodipodi:nodetypes="cccc" />
    <path
       inkscape:connector-curvature="0"
       id="path8185"
       style="fill:#000000;fill-opacity:1;fill-rule:nonzero;stroke:none;stroke-width:4.14720964"
       d="m 331.63157,-57.004515 c -0.41459,-2.075607 0.82917,-3.736079 2.48598,-4.151224 1.65728,-0.415375 3.72893,0 4.55748,1.660581 5.38622,9.962779 14.08707,18.265216 24.44515,24.076901 10.77232,6.226701 22.78774,9.132598 35.21743,9.547753 l 0.82916,0.415366 7.87216,9.132618 -0.41458,1.245316 c 1.65739,1.660461 4.14325,1.660461 6.21489,0.83075 1.65728,-0.83075 2.9003,-2.905767 2.48596,-4.981374 -1.24304,-7.472146 -5.3862,-14.529267 -12.01536,-19.510652 -22.78782,-5.811685 -41.43243,-21.171113 -50.13314,-41.09679 -4.55751,-14.114002 -9.11512,-28.22811 -12.844,-42.75724 -2.48601,-8.71748 -11.6011,-14.94431 -21.95914,-14.94431 -2.48597,0.41539 -4.55762,-0.83076 -5.80054,-2.90578 -1.24293,-1.66058 -0.82914,-4.15121 0.82918,-5.81167 5.80054,-9.13261 7.87216,-19.9258 6.21488,-30.30373 -3.72889,-6.22682 -11.18673,-9.96289 -19.05889,-9.54774 -7.87217,0.41538 -14.50129,4.98138 -17.81595,11.62336 -2.90022,10.37791 0.41456,21.58612 8.28649,29.88857 2.07164,1.66046 2.48599,4.56624 1.24294,6.64185 -11.18673,0.83076 -21.95911,4.98151 -30.24553,12.45366 -8.2865,7.05699 -13.25834,16.60474 -14.50137,26.982669 -2.48588,9.962898 -7.87206,18.680361 -15.3299,26.152507 -3.31467,13.283822 -0.41458,26.982798 8.2864,38.191003 1.24305,4.151104 1.65729,7.887172 2.48598,12.038396 -2.48598,4.981504 -4.14326,10.378033 -4.97184,16.1897181 0.4146,1.245316 1.6573,2.4906421 3.31456,3.3209228 1.65728,0.8307506 3.31457,0.8307506 4.5575,0.4153853 3.31466,-2.4907621 6.21488,-5.3965396 9.1151,-7.8872922 3.31466,-2.490762 8.28653,-2.490762 12.01543,0.4153757 -1.24293,2.4907522 -2.48598,4.9813943 -3.7289,7.4721465 C 245.03889,38.889312 221.00815,77.49534 192.00545,112.78043 l 3.31456,7.05711 39.36072,18.68042 4.97198,-2.07563 v -2.49089 l -4.97186,-9.54772 -10.35801,-14.11403 v -2.07563 l 23.20203,-23.661799 46.40419,-62.267803 c 1.24305,-1.660472 3.31455,-2.905908 6.21491,-2.905908 2.48596,0 4.55747,1.245436 5.80051,2.905908 20.71619,29.058265 31.07422,62.682929 30.24566,96.722682 l 2.90019,17.43504 7.87217,6.64189 49.71879,-18.68035 2.07158,-2.07561 c -8.28651,-4.56628 -17.81582,-7.47215 -27.34523,-8.30236 -0.82919,-1.66044 -1.24311,-3.32103 -1.65732,-5.39652 -0.4146,-1.66059 -1.24302,-3.32103 -1.65742,-4.98149 L 360.63509,35.983305 C 355.66323,20.623986 349.03413,5.679693 340.33328,-8.0192738 l -1.24295,-0.8307606 -4.97181,-19.0954956 -2.48599,-29.058276 m -67.94897,-19.095516 c 4.55749,8.717473 7.45781,17.8502 8.70074,27.812969 1.24293,9.547743 0.41458,19.095496 -2.07163,28.228114 -0.82917,0.830761 -2.48598,1.660452 -4.14325,1.660452 -1.65729,-0.415376 -2.90022,-0.830751 -3.72891,-2.075607 -9.94368,-16.604744 -11.18671,-36.945567 -2.90023,-54.380612 0,-0.830751 0.82919,-1.660451 1.6573,-1.660451 0.82915,-0.415396 1.65727,0 2.48598,0.415375" />
    <rect
       style="opacity:1;fill:#000000;fill-opacity:1;fill-rule:nonzero;stroke:none;stroke-width:46.94377899;stroke-linecap:square;stroke-linejoin:miter;stroke-miterlimit:1.41400003;stroke-dasharray:none;stroke-opacity:1;paint-order:markers stroke fill"
       id="rect8248"
       width="35.273697"
       height="7.0547385"
       x="79.599998"
       y="159.54526" />
    <rect
       y="159.54526"
       x="138.3895"
       height="7.0547385"
       width="35.273697"
       id="rect8398"
       style="opacity:1;fill:#000000;fill-opacity:1;fill-rule:nonzero;stroke:none;stroke-width:46.94377899;stroke-linecap:square;stroke-linejoin:miter;stroke-miterlimit:1.41400003;stroke-dasharray:none;stroke-opacity:1;paint-order:markers stroke fill" />
    <rect
       y="159.54526"
       x="197.179"
       height="7.0547385"
       width="35.273697"
       id="rect8400"
       style="opacity:1;fill:#000000;fill-opacity:1;fill-rule:nonzero;stroke:none;stroke-width:46.94377899;stroke-linecap:square;stroke-linejoin:miter;stroke-miterlimit:1.41400003;stroke-dasharray:none;stroke-opacity:1;paint-order:markers stroke fill" />
    <rect
       style="opacity:1;fill:#000000;fill-opacity:1;fill-rule:nonzero;stroke:none;stroke-width:46.94377899;stroke-linecap:square;stroke-linejoin:miter;stroke-miterlimit:1.41400003;stroke-dasharray:none;stroke-opacity:1;paint-order:markers stroke fill"
       id="rect8402"
       width="35.273697"
       height="7.0547385"
       x="255.96843"
       y="159.54526" />
    <rect
       y="159.54526"
       x="314.7579"
       height="7.0547385"
       width="35.273697"
       id="rect8404"
       style="opacity:1;fill:#000000;fill-opacity:1;fill-rule:nonzero;stroke:none;stroke-width:46.94377899;stroke-linecap:square;stroke-linejoin:miter;stroke-miterlimit:1.41400003;stroke-dasharray:none;stroke-opacity:1;paint-order:markers stroke fill" />
    <rect
       style="opacity:1;fill:#000000;fill-opacity:1;fill-rule:nonzero;stroke:none;stroke-width:46.94377899;stroke-linecap:square;stroke-linejoin:miter;stroke-miterlimit:1.41400003;stroke-dasharray:none;stroke-opacity:1;paint-order:markers stroke fill"
       id="rect8406"
       width="35.273697"
       height="7.0547385"
       x="373.5473"
       y="159.54526" />
    <rect
       style="opacity:1;fill:#000000;fill-opacity:1;fill-rule:nonzero;stroke:none;stroke-width:46.94377899;stroke-linecap:square;stroke-linejoin:miter;stroke-miterlimit:1.41400003;stroke-dasharray:none;stroke-opacity:1;paint-order:markers stroke fill"
       id="rect8408"
       width="35.273697"
       height="7.0547385"
       x="432.33682"
       y="159.54526" />
    <rect
       y="159.54526"
       x="491.12628"
       height="7.0547385"
       width="35.273697"
       id="rect8410"
       style="opacity:1;fill:#000000;fill-opacity:1;fill-rule:nonzero;stroke:none;stroke-width:46.94377899;stroke-linecap:square;stroke-linejoin:miter;stroke-miterlimit:1.41400003;stroke-dasharray:none;stroke-opacity:1;paint-order:markers stroke fill" />
    <rect
       style="opacity:1;fill:#000000;fill-opacity:1;fill-rule:nonzero;stroke:none;stroke-width:46.94377899;stroke-linecap:square;stroke-linejoin:miter;stroke-miterlimit:1.41400003;stroke-dasharray:none;stroke-opacity:1;paint-order:markers stroke fill"
       id="rect8412"
       width="35.273697"
       height="7.0547385"
       x="138.3895"
       y="90.173531" />
    <rect
       y="90.173531"
       x="197.17891"
       height="7.0547385"
       width="35.273697"
       id="rect8414"
       style="opacity:1;fill:#000000;fill-opacity:1;fill-rule:nonzero;stroke:none;stroke-width:46.94377899;stroke-linecap:square;stroke-linejoin:miter;stroke-miterlimit:1.41400003;stroke-dasharray:none;stroke-opacity:1;paint-order:markers stroke fill" />
    <rect
       style="opacity:1;fill:#000000;fill-opacity:1;fill-rule:nonzero;stroke:none;stroke-width:46.94377899;stroke-linecap:square;stroke-linejoin:miter;stroke-miterlimit:1.41400003;stroke-dasharray:none;stroke-opacity:1;paint-order:markers stroke fill"
       id="rect8416"
       width="35.273697"
       height="7.0547385"
       x="255.96843"
       y="90.173531" />
    <rect
       y="90.173531"
       x="314.7579"
       height="7.0547385"
       width="35.273697"
       id="rect8418"
       style="opacity:1;fill:#000000;fill-opacity:1;fill-rule:nonzero;stroke:none;stroke-width:46.94377899;stroke-linecap:square;stroke-linejoin:miter;stroke-miterlimit:1.41400003;stroke-dasharray:none;stroke-opacity:1;paint-order:markers stroke fill" />
    <rect
       y="90.173531"
       x="373.54733"
       height="7.0547385"
       width="35.273697"
       id="rect8420"
       style="opacity:1;fill:#000000;fill-opacity:1;fill-rule:nonzero;stroke:none;stroke-width:46.94377899;stroke-linecap:square;stroke-linejoin:miter;stroke-miterlimit:1.41400003;stroke-dasharray:none;stroke-opacity:1;paint-order:markers stroke fill" />
    <rect
       style="opacity:1;fill:#000000;fill-opacity:1;fill-rule:nonzero;stroke:none;stroke-width:46.94377899;stroke-linecap:square;stroke-linejoin:miter;stroke-miterlimit:1.41400003;stroke-dasharray:none;stroke-opacity:1;paint-order:markers stroke fill"
       id="rect8422"
       width="35.273697"
       height="7.0547385"
       x="432.33685"
       y="90.173531" />
  </g>
</svg>
