<?xml version="1.0" encoding="UTF-8" standalone="no"?>
<svg
   xmlns:dc="http://purl.org/dc/elements/1.1/"
   xmlns:cc="http://creativecommons.org/ns#"
   xmlns:rdf="http://www.w3.org/1999/02/22-rdf-syntax-ns#"
   xmlns:svg="http://www.w3.org/2000/svg"
   xmlns="http://www.w3.org/2000/svg"
   xmlns:sodipodi="http://sodipodi.sourceforge.net/DTD/sodipodi-0.dtd"
   xmlns:inkscape="http://www.inkscape.org/namespaces/inkscape"
   inkscape:version="1.0 (4035a4fb49, 2020-05-01)"
   sodipodi:docname="Schild C10 NA.svg"
   id="svg3852"
   height="849"
   width="849"
   version="1.1">
  <sodipodi:namedview
     inkscape:current-layer="svg3852"
     inkscape:window-maximized="1"
     inkscape:window-y="-8"
     inkscape:window-x="1912"
     inkscape:cy="424.5"
     inkscape:cx="424.5"
     inkscape:zoom="1.0011779"
     showgrid="false"
     id="namedview20"
     inkscape:window-height="1017"
     inkscape:window-width="1920"
     inkscape:pageshadow="2"
     inkscape:pageopacity="0"
     guidetolerance="10"
     gridtolerance="10"
     objecttolerance="10"
     borderopacity="1"
     bordercolor="#666666"
     pagecolor="#ffffff"
     inkscape:document-rotation="0" />
  <metadata
     id="metadata5159">
    <rdf:RDF>
      <cc:Work
         rdf:about="">
        <dc:format>image/svg+xml</dc:format>
        <dc:type
           rdf:resource="http://purl.org/dc/dcmitype/StillImage" />
        <dc:title />
        <cc:license
           rdf:resource="" />
      </cc:Work>
    </rdf:RDF>
  </metadata>
  <defs
     id="defs3854" />
  <path
     style="fill:#007b30;fill-opacity:1;stroke:none"
     id="background"
     d="M 0,424.5 424.5,0 849,424.5 424.5,849 z" />
  <path
     style="fill:none;stroke:#ffffff;stroke-width:20;stroke-linecap:butt;stroke-linejoin:miter;stroke-miterlimit:4;stroke-opacity:1;stroke-dasharray:none"
     id="border"
     d="M 15.5,424.5 424.5,15.5 833.5,424.5 424.5,833.5 z" />
  <g
     aria-label="C"
     id="text30"
     style="font-size:154.775px;line-height:1.25;font-family:'DIN 1451 Mittelschrift';-inkscape-font-specification:'DIN 1451 Mittelschrift';fill:#ffe200;stroke-width:3.86937">
    <path
       d="m 445.88742,212.33487 h 17.60868 q -3.24967,15.41704 -13.90557,23.57901 -10.65589,8.08639 -24.78818,8.08639 -12.99868,0 -21.84081,-6.19705 -8.76655,-6.27262 -12.62081,-13.5277 -2.72066,-4.83672 -3.77869,-10.58032 -1.05803,-5.7436 -1.05803,-25.61949 0,-19.87589 1.05803,-25.6195 1.05803,-5.7436 3.77869,-10.58032 3.85426,-7.1795 12.62081,-13.5277 Q 411.80367,132 424.80235,132 q 15.64376,0 25.84621,9.67344 10.27803,9.59786 12.84754,22.97441 h -17.60868 q -2.04049,-6.34819 -7.63295,-11.10934 -5.51688,-4.76114 -13.45212,-4.76114 -5.89475,0 -10.20246,2.41836 -4.3077,2.41836 -6.80163,5.59245 -3.24967,4.23213 -4.45885,9.29557 -1.13361,5.06344 -1.13361,21.99196 0,17.00409 1.13361,22.06753 1.20918,5.06344 4.45885,9.14442 2.49393,3.32524 6.80163,5.7436 4.30771,2.34279 10.20246,2.34279 13.90556,0 21.08507,-15.03918 z"
       style="stroke-width:3.86937"
       id="path12" />
  </g>
  <g
     style="font-size:386.937px;line-height:1.25;font-family:'DIN 1451 Mittelschrift';-inkscape-font-specification:'DIN 1451 Mittelschrift';fill:#ffe200;stroke-width:9.67341"
     id="text38"
     aria-label="10">
    <path
       id="path13"
       style="stroke-width:9.67341"
       d="M 325.59278,562.30035 V 328.21102 L 286.29449,356.929 v -41.94337 l 39.29829,-28.52905 h 39.67616 v 275.84377 z" />
    <path
       id="path15"
       style="stroke-width:9.67341"
       d="m 523.21784,482.57017 v -116.9502 q 0,-19.83808 -10.76925,-30.98519 -10.58031,-11.14711 -27.96224,-11.14711 -17.57087,0 -28.15118,11.14711 -10.58031,11.14711 -10.58031,30.98519 v 116.9502 q 0,20.02701 10.58031,31.17412 10.58031,10.95818 28.15118,10.95818 17.38193,0 27.96224,-10.95818 10.76925,-11.14711 10.76925,-31.17412 z m -116.9502,2.26721 V 363.35276 q 0,-37.97575 23.80569,-58.56957 23.8057,-20.78275 54.41302,-20.78275 30.41839,0 54.22408,20.78275 23.99463,20.59382 23.99463,58.56957 v 121.48462 q 0,37.97575 -23.99463,58.56956 -23.80569,20.59382 -54.22408,20.59382 -30.60732,0 -54.41302,-20.59382 -23.80569,-20.59381 -23.80569,-58.56956 z" />
  </g>
</svg>
