<?xml version="1.0" encoding="UTF-8" standalone="no"?>
<!-- Created with Inkscape (http://www.inkscape.org/) -->

<svg
   xmlns:dc="http://purl.org/dc/elements/1.1/"
   xmlns:cc="http://creativecommons.org/ns#"
   xmlns:rdf="http://www.w3.org/1999/02/22-rdf-syntax-ns#"
   xmlns:svg="http://www.w3.org/2000/svg"
   xmlns="http://www.w3.org/2000/svg"
   xmlns:sodipodi="http://sodipodi.sourceforge.net/DTD/sodipodi-0.dtd"
   xmlns:inkscape="http://www.inkscape.org/namespaces/inkscape"
   version="1.1"
   width="722.38"
   height="602"
   id="svg2"
   sodipodi:docname="NAM_road_B13_orig.svg"
   inkscape:version="0.92.4 (5da689c313, 2019-01-14)">
  <sodipodi:namedview
     pagecolor="#ffffff"
     bordercolor="#666666"
     borderopacity="1"
     objecttolerance="10"
     gridtolerance="10"
     guidetolerance="10"
     inkscape:pageopacity="0"
     inkscape:pageshadow="2"
     inkscape:window-width="1366"
     inkscape:window-height="715"
     id="namedview10"
     showgrid="false"
     inkscape:zoom="0.5544093"
     inkscape:cx="159.93455"
     inkscape:cy="261.77607"
     inkscape:window-x="-8"
     inkscape:window-y="-8"
     inkscape:window-maximized="1"
     inkscape:current-layer="svg2" />
  <metadata
     id="metadata10">
    <rdf:RDF>
      <cc:Work
         rdf:about="">
        <dc:format>image/svg+xml</dc:format>
        <dc:type
           rdf:resource="http://purl.org/dc/dcmitype/StillImage" />
        <dc:title />
      </cc:Work>
    </rdf:RDF>
  </metadata>
  <defs
     id="defs4" />
  <path
     d="M 0,240.592 361.19,0 722.38,240.592 601.911,602 120.469,602 z"
     id="background"
     style="fill:#007b30;stroke:none;fill-opacity:1" />
  <path
     d="M 13.092,245.084 361.19,13.019 709.288,245.084 593.982,591 128.398,591 z"
     id="border"
     style="fill:none;stroke:#ffffff;stroke-width:20;stroke-linejoin:miter" />
  <g
     aria-label="B"
     transform="scale(1.000002,0.99999803)"
     style="font-style:normal;font-variant:normal;font-weight:normal;font-stretch:normal;font-size:157.4306488px;line-height:1.25;font-family:'DIN 1451 Mittelschrift';-inkscape-font-specification:'DIN 1451 Mittelschrift';letter-spacing:0px;word-spacing:0px;fill:#ffe200;fill-opacity:1;stroke:none;stroke-width:1.00061846"
     id="text3725">
    <path
       d="M 320.79538,206.00042 V 94.000202 h 43.4318 q 16.3734,0 24.75227,8.455748 8.45575,8.37888 8.45575,21.60059 0,6.91834 -3.3823,13.29859 -3.3823,6.38024 -13.14484,10.76186 v 0.30748 q 9.22445,2.15237 13.75981,9.76254 4.53535,7.53331 4.53535,16.06592 0,14.52852 -9.30132,23.13801 -9.22445,8.60948 -21.8312,8.60948 z m 43.12431,-49.73517 h -26.13594 v 33.74612 h 26.13594 q 9.45507,0 13.83668,-5.07345 4.45849,-5.15031 4.45849,-11.76117 0,-6.61086 -4.45849,-11.76118 -4.38161,-5.15032 -13.83668,-5.15032 z m -1.53741,-47.19844 h -24.59853 v 32.13184 h 24.59853 q 9.14759,0 13.60607,-4.6891 4.45849,-4.68909 4.45849,-11.37682 0,-6.45712 -4.45849,-11.22309 -4.45848,-4.84283 -13.60607,-4.84283 z"
       style="fill:#ffe200;fill-opacity:1;stroke-width:1.00061846"
       id="path16" />
  </g>
  <g
     aria-label="13"
     style="font-style:normal;font-variant:normal;font-weight:normal;font-stretch:normal;font-size:382.790802px;line-height:1.25;font-family:'DIN 1451 Mittelschrift';-inkscape-font-specification:'DIN 1451 Mittelschrift';letter-spacing:0px;word-spacing:0px;fill:#ffe200;fill-opacity:1;stroke:none;stroke-width:9.56976986"
     id="text4542">
    <path
       d="M 265.3021,530.31801 V 298.73705 l -38.8772,28.41026 v -41.49393 l 38.8772,-28.22334 h 39.25101 v 272.88797 z"
       style="fill:#ffe200;fill-opacity:1;stroke-width:9.56976986"
       id="path17" />
    <path
       d="m 398.0079,406.58388 v -34.39137 h 13.45749 q 19.43859,0 30.65317,-10.84075 11.40148,-11.02767 11.40148,-27.84953 0,-16.63495 -11.7753,-28.03643 -11.7753,-11.40149 -28.03644,-11.40149 -12.33603,0 -23.36369,8.22402 -11.02767,8.22403 -14.20513,24.67207 h -39.0641 q 2.24291,-28.78408 24.11133,-50.27868 21.86842,-21.68151 51.02632,-21.68151 36.44736,0 58.31578,24.11134 22.05533,23.92442 22.05533,53.64304 0,15.70041 -6.16801,30.65317 -6.16802,14.76586 -22.98988,25.60662 17.19568,11.02766 24.67206,27.10188 7.47638,16.07423 7.47638,32.52227 0,38.12955 -23.92442,60.74561 -23.92443,22.61606 -58.68961,22.61606 -27.66261,0 -49.90485,-17.75641 -22.05533,-17.94332 -27.47571,-52.14777 h 39.0641 q 5.42038,14.01822 14.57895,22.61606 9.15857,8.41093 25.98043,8.41093 16.26113,0 28.78407,-11.40149 12.52294,-11.58839 12.52294,-31.77462 0,-20.37315 -12.52294,-31.77463 -12.33603,-11.58839 -29.53171,-11.58839 z"
       style="fill:#ffe200;fill-opacity:1;stroke-width:9.56976986"
       id="path19" />
  </g>
</svg>
