<?xml version="1.0" encoding="UTF-8" standalone="no"?>
<svg
   xmlns:dc="http://purl.org/dc/elements/1.1/"
   xmlns:cc="http://creativecommons.org/ns#"
   xmlns:rdf="http://www.w3.org/1999/02/22-rdf-syntax-ns#"
   xmlns:svg="http://www.w3.org/2000/svg"
   xmlns="http://www.w3.org/2000/svg"
   viewBox="0 0 879.16595 871.91425"
   height="871.91425"
   width="879.16595"
   xml:space="preserve"
   version="1.1"
   id="svg4529"><metadata
     id="metadata4535"><rdf:RDF><cc:Work
         rdf:about=""><dc:format>image/svg+xml</dc:format><dc:type
           rdf:resource="http://purl.org/dc/dcmitype/StillImage" /><dc:title></dc:title></cc:Work></rdf:RDF></metadata><defs
     id="defs4533" /><g
     transform="matrix(1.25,0,0,-1.25,0,871.91422)"
     id="g4537"><g
       id="g4539"><g
         transform="matrix(1,0,0,-1,0,697.53137)"
         id="g4541"><path
           id="path4543"
           style="fill:#ffffff;fill-opacity:1;fill-rule:nonzero;stroke:#373535;stroke-width:1.60000002;stroke-linecap:butt;stroke-linejoin:miter;stroke-miterlimit:4;stroke-dasharray:none;stroke-opacity:1"
           d="m 702.531,644.098 c 0,29.242 -23.39,52.632 -58.476,52.632 l -584.778,0 c -29.238,0 -58.476,-23.39 -58.476,-52.632 l 0,-590.664 C 0.801,24.191 30.039,0.801 59.277,0.801 l 584.778,0 c 35.086,0 58.476,23.39 58.476,52.633 l 0,590.664 z" /></g><path
         id="path4545"
         style="fill:#c1121c;fill-opacity:1;fill-rule:nonzero;stroke:none"
         d="M 351.668,0.801 0.801,345.84 l 350.867,350.891 292.387,0 c 17.543,0 30.914,-4.844 42.609,-15.649 L 351.668,345.84 683.523,13.961 C 677.895,10.242 671.516,6.098 664.609,3.93 655.664,1.121 646.516,0.832 644.055,0.801" /><g
         transform="matrix(1,0,0,-1,0,697.53137)"
         id="g4547"><path
           id="path4549"
           style="fill:none;stroke:#373535;stroke-width:1.60000002;stroke-linecap:butt;stroke-linejoin:miter;stroke-miterlimit:4;stroke-dasharray:none;stroke-opacity:1"
           d="m 702.531,644.098 c 0,29.242 -23.39,52.632 -58.476,52.632 l -584.778,0 c -29.238,0 -58.476,-23.39 -58.476,-52.632 l 0,-590.664 C 0.801,24.191 30.039,0.801 59.277,0.801 l 584.778,0 c 35.086,0 58.476,23.39 58.476,52.633 l 0,590.664 z" /></g></g></g></svg>