<?xml version="1.0" encoding="UTF-8" standalone="no"?>
<svg
   xmlns:dc="http://purl.org/dc/elements/1.1/"
   xmlns:cc="http://creativecommons.org/ns#"
   xmlns:rdf="http://www.w3.org/1999/02/22-rdf-syntax-ns#"
   xmlns:svg="http://www.w3.org/2000/svg"
   xmlns="http://www.w3.org/2000/svg"
   viewBox="0 0 850.0069 350"
   height="350"
   width="850.0069"
   xml:space="preserve"
   version="1.1"
   id="svg4855"><metadata
     id="metadata4861"><rdf:RDF><cc:Work
         rdf:about=""><dc:format>image/svg+xml</dc:format><dc:type
           rdf:resource="http://purl.org/dc/dcmitype/StillImage" /><dc:title></dc:title></cc:Work></rdf:RDF></metadata><defs
     id="defs4859" /><g
     transform="matrix(1.25,0,0,-1.25,0,350)"
     id="g4863"><g
       id="g4865"><path
         id="path4867"
         style="fill:#f0c900;fill-opacity:1;fill-rule:evenodd;stroke:none"
         d="M 140,280 C 62.68,280 0,217.32 0,140 0,62.68 62.68,0 140,0 c 40.16,0 76.363,16.914 101.895,44 l 438.109,0 0,192 -438.113,0 C 216.359,263.086 180.156,280 140,280 Z" /><path
         id="path4869"
         style="fill:#008754;fill-opacity:1;fill-rule:nonzero;stroke:none"
         d="M 93.602,200 92,80 l 28,0 1.602,46 38.398,0 0,-46 28,0 0,120 -28,0 0,-46 -38.398,0 -0.004,46 -27.996,0 z" /><path
         id="path4871"
         style="fill:#008754;fill-opacity:1;fill-rule:evenodd;stroke:none"
         d="m 140.145,272.164 c -71.559,0 -131.981,-57.891 -131.981,-132 0,-74.105 60.422,-132 131.981,-132 38.523,0 73.82,16.785 98.207,43.836 l 433.652,0 0,176 -433.352,0 c -24.394,27.246 -59.828,44.164 -98.507,44.164 z M 140,236.801 c 31.508,-0.047 60.805,-15.406 78.812,-40.801 l 421.114,0 0,-112 -421.047,0 C 200.867,58.594 171.539,43.227 140,43.199 c -53.461,0 -96.801,43.34 -96.801,96.801 0,53.461 43.34,96.801 96.801,96.801 z" /></g></g></svg>