<?xml version="1.0" encoding="UTF-8"?>
<svg xmlns="http://www.w3.org/2000/svg" width="700" height="700" viewBox="0 0 7 7">
<path d="M0,0H7V7H0" fill="#fff"/>
<path d="M0,2V4L3,7H5M5,0H3L7,4V2" fill="#742c64"/>
<path d="M1,0H3L7,4V6M1,5H0V7H3" fill="#eb7711"/>
<path d="M1,0H2V2H4V4H6V6H7V5H5V3H3V1H1M0,6H1V7H0" fill="#fcdd09"/>
<path d="M0,1V2L5,7H6V6H5V5H4V4H3V3H2V2H1V1M5,0H7V2" fill="#078930"/>
<path d="M0,2H1V4H3V6H5V7H4V5H2V3H0M5,0H6V2H7V1H5" fill="#0f47af"/>
<path d="M3,0H4V2H6V4H7V3H5V1H3M0,4H1V6H3V7H2V5H0" fill="#da121a"/>
</svg>