<?xml version="1.0" encoding="utf-8"?>
<!-- Generator: Adobe Illustrator 11.0, SVG Export Plug-In  -->
<!DOCTYPE svg PUBLIC "-//W3C//DTD SVG 1.0//EN"    "http://www.w3.org/TR/2001/REC-SVG-20010904/DTD/svg10.dtd" [
	<!ENTITY ns_flows "http://ns.adobe.com/Flows/1.0/">
	<!ENTITY ns_svg "http://www.w3.org/2000/svg">
	<!ENTITY ns_xlink "http://www.w3.org/1999/xlink">
]>
<svg  xmlns="&ns_svg;" xmlns:xlink="&ns_xlink;" xmlns:a="http://ns.adobe.com/AdobeSVGViewerExtensions/3.0/"
	 width="543" height="299" viewBox="-0.964 -0.012 543 299" xml:space="preserve">
	<defs>
	</defs>
	<g>
		<rect x="0.108" y="198.828" fill="#0C479D" stroke="#000000" stroke-width="0.216" width="541.296" height="99.36"/> 
		<path fill="#FFFFFF" stroke="#000000" stroke-width="0.216" d="M0.108,207.612v81.864c0-0.072,0,0,0,0
			c0,4.824,3.888,8.712,8.784,8.712l0,0H532.62c4.896,0,8.784-3.888,8.784-8.712v-81.864c0-4.824-3.888-8.784-8.784-8.784H8.892l0,0
			C3.996,198.828,0.108,202.788,0.108,207.612L0.108,207.612z"/>
		<path fill="#0C479D" d="M3.996,207.612v81.864l0,0c0,2.664,2.16,4.824,4.896,4.824l0,0H532.62c2.736,0,4.896-2.16,4.896-4.824
			v-81.864c0-2.664-2.16-4.896-4.896-4.896H8.892l0,0C6.156,202.716,3.996,204.948,3.996,207.612L3.996,207.612z"/>
		<rect x="0.108" y="99.468" fill="#0C479D" stroke="#000000" stroke-width="0.216" width="541.296" height="99.36"/> 
		<path fill="#FFFFFF" stroke="#000000" stroke-width="0.216" d="M0.108,108.252v81.792l0,0c0,4.896,3.888,8.784,8.784,8.784l0,0
			H532.62c4.896,0,8.784-3.888,8.784-8.784v-81.792c0-4.896-3.888-8.784-8.784-8.784H8.892l0,0
			C3.996,99.468,0.108,103.356,0.108,108.252L0.108,108.252z"/>
		<path fill="#0C479D" d="M3.996,108.252v81.792l0,0c0,2.736,2.16,4.896,4.896,4.896l0,0H532.62c2.736,0,4.896-2.16,4.896-4.896
			v-81.792c0-2.736-2.16-4.896-4.896-4.896H8.892l0,0C6.156,103.356,3.996,105.516,3.996,108.252L3.996,108.252z"/>
		<path fill="#FFFFFF" d="M118.188,183.276h131.544c4.824,0,8.784-3.96,8.784-8.784v-50.688c0-4.824-3.96-8.784-8.784-8.784H118.188
			l0,0c-4.824,0-8.784,3.96-8.784,8.784l0,0v50.688l0,0C109.404,179.316,113.364,183.276,118.188,183.276L118.188,183.276z"/>
		<path fill="#0C479D" d="M118.188,179.316h131.544c2.664,0,4.824-2.16,4.824-4.824v-50.688c0-2.664-2.16-4.824-4.824-4.824H118.188
			l0,0c-2.664,0-4.896,2.16-4.896,4.824l0,0v50.688l0,0C113.292,177.156,115.524,179.316,118.188,179.316L118.188,179.316z"/>
		<rect x="0.108" y="0.108" fill="#0C479D" stroke="#000000" stroke-width="0.216" width="541.296" height="99.36"/> 
		<path fill="#FFFFFF" stroke="#000000" stroke-width="0.216" d="M0.108,8.82v81.864l0,0c0,4.824,3.888,8.784,8.784,8.784l0,0
			H532.62c4.896,0,8.784-3.96,8.784-8.784V8.82c0-4.824-3.888-8.712-8.784-8.712H8.892l0,0C3.996,0.108,0.108,3.996,0.108,8.82
			v0.072V8.82z"/>
		<path fill="#0C479D" d="M3.996,8.82v81.864l0,0c0,2.664,2.16,4.896,4.896,4.896l0,0H532.62c2.736,0,4.896-2.232,4.896-4.896V8.82
			c0-2.664-2.16-4.824-4.896-4.824H8.892l0,0C6.156,3.996,3.996,6.156,3.996,8.82c0,0,0,0,0,0.072V8.82z"/>
		<path fill="#FFFFFF" d="M118.188,83.844h79.92c4.824,0,8.712-3.888,8.712-8.712V24.444c0-4.824-3.888-8.784-8.712-8.784h-79.92
			l0,0c-4.824,0-8.784,3.96-8.784,8.784l0,0v50.688c0-0.072,0-0.072,0,0C109.404,79.956,113.364,83.844,118.188,83.844
			L118.188,83.844z"/>
		<path fill="#0C479D" d="M118.188,79.956h79.92c2.664,0,4.824-2.16,4.824-4.824V24.444c0-2.664-2.16-4.896-4.824-4.896h-79.92l0,0
			c-2.664,0-4.896,2.232-4.896,4.896l0,0v50.688c0-0.072,0,0,0,0C113.292,77.796,115.524,79.956,118.188,79.956L118.188,79.956z"/>
		<polygon fill="#FFFFFF" points="428.22,231.948 438.732,265.068 432.396,265.068 430.452,259.02 416.988,259.02 415.044,265.068 
			408.708,265.068 419.22,231.948 "/>
		<polygon fill="#0C479D" points="418.86,253.044 423.684,237.78 428.508,253.044 "/>
		<polygon fill="#FFFFFF" points="378.108,244.836 388.476,231.948 396.252,231.948 385.74,245.052 396.612,265.068 
			389.772,265.068 381.636,250.092 378.108,254.484 378.108,265.068 372.06,265.068 372.06,231.948 378.108,231.948 
			378.108,244.836 "/>
		<path fill="#FFFFFF" d="M358.02,235.116c-2.52-2.16-5.832-3.384-9.216-3.384c-0.504,0-0.936,0-1.44,0.072
			c-4.536,0.72-8.496,3.384-10.728,7.416c-1.44,2.736-2.16,5.76-2.16,8.856c0,0.144,0,0.36,0,0.504c0,0.072,0,0.144,0,0.288
			c0,3.312,0.792,6.552,2.376,9.432c2.16,4.032,6.192,6.624,10.656,6.984c0.504,0.072,0.936,0.072,1.44,0.072
			c3.312,0,6.552-1.152,9.144-3.384l-3.96-4.536c-1.656,1.44-3.888,2.088-6.048,1.872c-2.52-0.216-4.752-1.656-5.976-3.888
			c-1.08-2.088-1.656-4.464-1.584-6.912c-0.072-2.232,0.432-4.464,1.44-6.408c1.296-2.304,3.6-3.888,6.12-4.32
			c2.232-0.144,4.392,0.504,6.048,1.944L358.02,235.116z"/>
		<polygon fill="#FFFFFF" points="311.868,231.948 322.38,265.068 316.044,265.068 314.1,259.02 300.636,259.02 298.692,265.068 
			292.356,265.068 302.94,231.948 "/>
		<polygon fill="#0C479D" points="302.58,253.044 307.404,237.78 312.228,253.044 "/>
		<path fill="#FFFFFF" d="M256.716,231.948h13.032c5.328,0,9.576,4.32,9.576,9.576c0,2.16-0.72,4.32-2.16,6.048
			c2.088,1.872,3.312,4.608,3.312,7.416c0,5.544-4.536,10.08-10.08,10.08h-13.68v-19.44V231.948z"/>
		<path fill="#0C479D" d="M270.396,259.02c2.232,0,4.032-1.8,4.032-4.032c0-1.656-1.008-3.096-2.52-3.744
			c-0.576-0.144-1.152-0.216-1.728-0.216h-7.416v7.992H270.396z"/>
		<path fill="#0C479D" d="M262.764,245.052h6.984c1.944,0,3.528-1.584,3.528-3.528c0-1.944-1.584-3.528-3.456-3.528h-7.056V245.052z
			"/>
		<path fill="#FFFFFF" d="M226.476,243.324l8.856,2.592c2.664,0.72,4.896,2.448,6.264,4.824c0.792,1.368,1.224,2.952,1.224,4.608
			c0,1.584-0.432,3.168-1.224,4.536c-1.584,3.024-4.608,5.04-7.992,5.256c-5.616,0.936-11.304-1.008-15.192-5.184l4.392-4.104
			c2.088,2.232,5.04,3.528,8.064,3.528c0.72,0,1.368-0.072,2.088-0.216c1.44,0,2.736-0.864,3.384-2.232
			c0.288-0.432,0.432-1.008,0.432-1.584c0-0.576-0.144-1.08-0.432-1.512c-0.576-1.08-1.512-1.8-2.664-2.16l-8.712-2.52
			c-5.688-1.584-7.92-8.424-4.32-13.032l0,0c1.728-2.232,4.248-3.744,7.056-4.176c5.112-0.936,10.368,0.504,14.328,3.888
			l-3.96,4.608c-2.016-1.8-4.608-2.736-7.272-2.736c-0.72,0-1.368,0.072-2.088,0.216c-1.296,0.144-2.448,0.864-3.312,1.944l0,0
			c0-0.072,0-0.072,0-0.072l0,0c0,0,0,0,0,0.072c-0.288,0.36-0.432,0.864-0.432,1.368c0,0.936,0.648,1.8,1.584,2.088H226.476z"/>
		<path fill="#FFFFFF" d="M206.244,265.068h-6.768l-7.056-13.392h-3.672v13.392H182.7v-17.496v-15.624h12.816
			c5.472,0,9.864,4.464,9.864,9.864c0,4.104-2.592,7.776-6.408,9.216L206.244,265.068L206.244,265.068z"/>
		<path fill="#0C479D" d="M188.748,245.628v-7.632h6.768c2.16,0,3.816,1.728,3.816,3.816c0,2.088-1.656,3.816-3.816,3.816H188.748z"
			/>
		<path fill="#FFFFFF" d="M144.468,235.836c-3.024,3.528-4.68,7.992-4.68,12.6v0.072c0,0.072,0,0.072,0,0.144
			c0,4.608,1.656,9.072,4.68,12.528c2.52,2.736,6.048,4.32,9.72,4.32c0,0,0,0,0.072,0l0,0c3.744,0,7.272-1.584,9.72-4.32
			c3.024-3.528,4.68-7.992,4.68-12.528c0-0.072,0-0.072,0-0.072c0-0.072,0-0.144,0-0.144c0-4.608-1.656-9.072-4.68-12.528
			c-2.448-2.808-5.976-4.32-9.72-4.32l0,0c-0.072,0-0.072,0-0.072,0C150.516,231.588,146.988,233.1,144.468,235.836z"/>
		<path fill="#0C479D" d="M149.004,257.22c1.368,1.44,3.24,2.232,5.184,2.232c0,0,0,0,0.072,0l0,0c2.016,0,3.888-0.864,5.184-2.304
			c2.088-2.376,3.168-5.4,3.168-8.496c0-0.072,0-0.072,0-0.072c0-0.072,0-0.144,0-0.144c0-3.168-1.08-6.192-3.168-8.568
			c-1.296-1.44-3.168-2.232-5.184-2.232l0,0c-0.072,0-0.072,0-0.072,0c-1.944,0-3.816,0.792-5.184,2.232
			c-2.016,2.376-3.168,5.4-3.168,8.568v0.072c0,0.072,0,0.072,0,0.144C145.836,251.748,146.988,254.772,149.004,257.22z"/>
		<polygon fill="#FFFFFF" points="109.404,231.948 127.548,231.948 127.548,237.996 115.452,237.996 115.452,244.62 125.604,244.62 
			125.604,250.668 115.452,250.668 115.452,265.068 109.404,265.068 109.404,245.628 "/>
		<path fill="#FFFFFF" d="M66.708,220.5c-0.792-0.792-1.872-1.224-2.952-1.224c-2.304,0-4.104,1.872-4.104,4.176l0,0v13.392h-13.68
			c0.072,0,0,0,0,0c-11.808,0-21.384,9.576-21.384,21.456l0,0v19.44h11.664V258.3c0-5.4,4.32-9.792,9.72-9.792c0,0,0,0,0.072,0
			h13.608V261.9l0,0c0,2.304,1.8,4.176,4.104,4.176c1.08,0,2.16-0.432,2.952-1.224l22.176-22.176L66.708,220.5z"/>
		<path fill="#FFFFFF" d="M502.812,143.964l8.856,2.52c2.664,0.792,4.896,2.52,6.192,4.896c0.864,1.368,1.296,2.952,1.296,4.608
			c0,1.584-0.432,3.168-1.296,4.536c-1.512,3.024-4.536,5.04-7.92,5.256c-5.688,0.936-11.376-1.08-15.192-5.256l4.392-4.104
			c2.088,2.304,4.968,3.528,8.064,3.528c0.648,0,1.368-0.072,2.016-0.144c1.44-0.072,2.808-0.936,3.384-2.232
			c0.36-0.504,0.504-1.008,0.504-1.584s-0.144-1.08-0.432-1.584c-0.576-1.008-1.512-1.8-2.664-2.088l-8.784-2.52
			c-5.616-1.584-7.92-8.424-4.248-13.032l0,0c1.728-2.232,4.248-3.744,7.056-4.176c5.112-0.936,10.368,0.504,14.328,3.888
			l-3.96,4.536c-2.016-1.728-4.68-2.664-7.344-2.664c-0.648,0-1.368,0.072-2.016,0.144c-1.296,0.216-2.52,0.936-3.312,1.944l0,0l0,0
			l0,0l0,0c-0.288,0.432-0.504,0.864-0.504,1.368C501.228,142.812,501.876,143.676,502.812,143.964z"/>
		<polygon fill="#FFFFFF" points="460.98,159.66 459.108,165.708 452.772,165.708 463.284,132.588 472.212,132.588 482.796,165.708 
			476.388,165.708 474.516,159.66 "/>
		<polygon fill="#0C479D" points="462.924,153.612 467.748,138.42 472.572,153.612 "/>
		<path fill="#FFFFFF" d="M476.172,130.644c2.448,0,4.464-2.016,4.464-4.464c0-2.52-2.016-4.536-4.464-4.536l0,0
			c-2.52,0-4.536,2.016-4.536,4.536C471.636,128.628,473.652,130.644,476.172,130.644L476.172,130.644z"/>
		<path fill="#FFFFFF" d="M459.396,130.644c2.448,0,4.464-2.016,4.464-4.464c0-2.52-2.016-4.536-4.464-4.536l0,0
			c-2.52,0-4.464,2.016-4.464,4.536C454.932,128.628,456.876,130.644,459.396,130.644L459.396,130.644z"/>
		<polygon fill="#FFFFFF" points="413.604,132.588 420.444,132.588 433.26,154.62 433.26,132.588 439.308,132.588 439.308,165.708 
			432.756,165.708 419.652,143.244 419.652,165.708 413.604,165.708 "/>
		<polygon fill="#FFFFFF" points="391.356,146.196 391.356,159.66 401.868,159.66 401.868,165.708 385.308,165.708 385.308,146.196 
			385.308,132.588 391.356,132.588 "/>
		<polygon fill="#FFFFFF" points="363.132,146.196 363.132,159.66 373.644,159.66 373.644,165.708 357.084,165.708 357.084,146.196 
			357.084,132.588 363.132,132.588 "/>
		<path fill="#FFFFFF" d="M318.924,136.476c-3.024,3.528-4.68,7.992-4.68,12.6v0.072v0.072c0,4.608,1.656,9.072,4.68,12.6
			c2.448,2.736,5.976,4.248,9.648,4.248h0.072c0,0,0,0,0.072,0c3.672,0,7.2-1.512,9.648-4.248c3.024-3.528,4.68-7.992,4.68-12.6
			c0,0,0,0,0-0.072c0-0.072,0-0.072,0-0.072c0-4.608-1.656-9.072-4.68-12.6c-2.448-2.736-5.976-4.248-9.648-4.248
			c-0.072,0-0.072,0-0.072,0h-0.072C324.9,132.228,321.372,133.74,318.924,136.476z"/>
		<path fill="#0C479D" d="M323.388,157.788c1.368,1.44,3.24,2.304,5.184,2.304h0.072c0,0,0,0,0.072,0
			c1.944,0,3.816-0.864,5.112-2.304c2.088-2.376,3.168-5.4,3.168-8.568c0,0,0,0,0-0.072c0-0.072,0-0.072,0-0.072
			c0-3.168-1.08-6.192-3.168-8.568c-1.296-1.44-3.168-2.304-5.112-2.304c-0.072,0-0.072,0-0.072,0h-0.072
			c-1.944,0-3.816,0.864-5.184,2.304c-2.016,2.376-3.168,5.4-3.168,8.568v0.072v0.072
			C320.22,152.388,321.372,155.412,323.388,157.788z"/>
		<path fill="#FFFFFF" d="M277.74,132.588h13.104c5.256,0,9.576,4.248,9.576,9.576c0,2.16-0.792,4.32-2.16,5.976
			c2.088,1.944,3.24,4.68,3.24,7.488c0,5.544-4.464,10.08-10.08,10.08h-13.68v-19.512V132.588z"/>
		<path fill="#0C479D" d="M291.42,159.66c2.232,0,4.032-1.8,4.032-4.032c0-1.656-0.936-3.096-2.448-3.744
			c-0.576-0.144-1.152-0.216-1.8-0.216h-7.416v7.992H291.42z"/>
		<path fill="#0C479D" d="M283.788,145.62h7.056c1.944,0,3.528-1.584,3.528-3.456c0-1.944-1.584-3.528-3.528-3.528h-7.056V145.62z"
			/>
		<path fill="#FFFFFF" d="M216.9,159.66c0.792-1.224,1.872-2.304,3.096-3.096l8.208-4.68c2.016-1.224,3.6-3.096,4.464-5.256
			c0.432-1.224,0.576-2.448,0.576-3.744c0-1.224-0.144-2.448-0.576-3.672c-1.152-2.952-3.456-5.184-6.408-6.264
			c-1.584-0.36-3.168-0.576-4.752-0.576c-1.8,0-3.672,0.288-5.4,0.792c-4.104,1.368-6.84,5.256-6.84,9.576c0,0.144,0,0.216,0,0.36
			h6.048c-0.072-1.944,1.08-3.672,2.952-4.248c2.016-0.648,4.176-0.648,6.192,0c1.224,0.36,2.16,1.296,2.592,2.52
			c0.144,0.504,0.216,1.008,0.216,1.512c0,0.576-0.072,1.08-0.216,1.584c-0.36,0.864-1.008,1.656-1.8,2.16l-8.208,4.68
			c-4.824,2.88-7.776,8.064-7.776,13.752c0,0.216,0,0.432,0,0.648h23.976v-6.048H216.9z"/>
		<polygon fill="#FFFFFF" points="184.788,148.356 188.892,138.636 172.26,138.636 172.26,132.588 195.66,132.588 195.66,138.06 
			190.404,150.732 184.14,165.708 177.588,165.708 184.788,148.356 "/>
		<path fill="#FFFFFF" d="M142.236,159.66c0.792-1.224,1.872-2.304,3.168-3.096l8.136-4.68c2.016-1.224,3.6-3.096,4.536-5.256
			c0.36-1.224,0.576-2.448,0.576-3.744c0-1.224-0.216-2.448-0.576-3.672c-1.152-2.952-3.528-5.184-6.48-6.264
			c-1.512-0.36-3.096-0.576-4.752-0.576c-1.8,0-3.6,0.288-5.328,0.792c-4.104,1.368-6.84,5.256-6.84,9.576c0,0.144,0,0.216,0,0.36
			h6.048c-0.144-1.944,1.08-3.672,2.88-4.248c2.088-0.648,4.248-0.648,6.264,0c1.152,0.36,2.088,1.296,2.52,2.52
			c0.216,0.504,0.288,1.008,0.288,1.512c0,0.576-0.072,1.08-0.288,1.584c-0.36,0.864-0.936,1.656-1.728,2.16l-8.208,4.68
			c-4.824,2.88-7.848,8.064-7.848,13.752c0,0.216,0.072,0.432,0.072,0.648h23.976v-6.048H142.236z"/>
		<path fill="#FFFFFF" d="M46.692,121.14c2.664-2.592,7.128-0.792,7.128,2.88v13.464h13.608c11.808,0,21.456,9.576,21.456,21.384
			v19.512H77.148v-19.512c0-5.328-4.32-9.72-9.72-9.72H53.82v13.392c0,2.304-1.872,4.176-4.176,4.176
			c-1.08,0-2.16-0.432-2.952-1.224l-22.104-22.176L46.692,121.14z"/>
		<polygon fill="#FFFFFF" points="377.892,33.228 396.036,33.228 396.036,39.276 383.94,39.276 383.94,45.9 394.092,45.9 
			394.092,51.948 383.94,51.948 383.94,60.3 396.036,60.3 396.036,66.348 377.892,66.348 377.892,46.836 "/>
		<polygon fill="#FFFFFF" points="355.716,46.836 355.716,60.3 366.228,60.3 366.228,66.348 349.668,66.348 349.668,46.836 
			349.668,33.228 355.716,33.228 "/>
		<polygon fill="#FFFFFF" points="336.42,33.228 325.908,66.348 316.908,66.348 306.396,33.228 312.732,33.228 321.444,60.516 
			330.084,33.228 "/>
		<polygon fill="#FFFFFF" points="273.348,60.3 271.476,66.348 265.14,66.348 275.652,33.228 284.58,33.228 295.092,66.348 
			288.756,66.348 286.884,60.3 "/>
		<polygon fill="#0C479D" points="275.292,54.252 280.116,39.06 284.94,54.252 "/>
		<path fill="#FFFFFF" d="M288.468,31.284c2.52,0,4.536-2.016,4.536-4.536c0-2.448-2.016-4.464-4.536-4.464l0,0
			c-2.448,0-4.464,2.016-4.464,4.464C284.004,29.268,286.02,31.284,288.468,31.284L288.468,31.284z"/>
		<path fill="#FFFFFF" d="M271.764,31.284c2.448,0,4.464-2.016,4.464-4.536c0-2.448-2.016-4.464-4.464-4.464l0,0
			c-2.52,0-4.536,2.016-4.536,4.464C267.228,29.268,269.244,31.284,271.764,31.284L271.764,31.284z"/>
		<path fill="#FFFFFF" d="M245.916,41.94l4.32-4.248c-2.736-3.096-6.624-4.896-10.728-4.896c-0.072,0-0.144,0-0.216,0h-0.072
			c-3.672,0-7.2,1.584-9.648,4.32c-3.024,3.456-4.68,7.92-4.68,12.528c0,0.072,0,0.072,0,0.144c0,0,0,0,0,0.072
			c0,4.608,1.656,9.072,4.68,12.6c2.448,2.736,5.976,4.248,9.648,4.248h0.072c0.216,0,0.432,0,0.576,0
			c6.912,0,12.672-5.256,13.248-12.096V48.42h-13.824v6.048h7.776c-0.432,3.384-3.168,5.976-6.624,6.192
			c-0.36,0.072-0.792,0.072-1.152,0c-2.088,0.072-4.104-0.864-5.472-2.52c-1.872-2.376-2.952-5.328-2.88-8.424
			c-0.072-3.024,1.008-5.976,2.88-8.352c1.368-1.584,3.384-2.52,5.472-2.52C241.884,38.772,244.332,39.924,245.916,41.94z"/>
		<path fill="#FFFFFF" d="M177.084,66.708c-3.744,0-7.272-1.512-9.72-4.248c-3.096-3.528-4.752-8.064-4.68-12.672
			c-0.072-4.68,1.584-9.144,4.68-12.672c2.448-2.736,5.976-4.32,9.72-4.32c3.744,0,7.272,1.584,9.72,4.32
			c3.024,3.528,4.68,7.992,4.68,12.528c0,0.072,0,0.072,0,0.072c0,0.072,0,0.144,0,0.144c0,4.608-1.656,9.072-4.68,12.528
			C184.356,65.196,180.828,66.708,177.084,66.708z"/>
		<path fill="#0C479D" d="M177.084,60.66c-2.016,0.072-3.888-0.792-5.256-2.232c-2.016-2.376-3.168-5.472-3.168-8.64
			s1.152-6.264,3.168-8.712c1.368-1.44,3.24-2.232,5.256-2.232c1.944,0,3.888,0.792,5.184,2.304c2.088,2.376,3.168,5.4,3.168,8.496
			c0,0.072,0,0.072,0,0.072c0,0.072,0,0.144,0,0.144c0,3.168-1.08,6.192-3.168,8.568C180.972,59.868,179.028,60.66,177.084,60.66z"
			/>
		<path fill="#FFFFFF" d="M146.412,48.348c0.792,0.504,1.44,1.152,1.944,1.944c1.08,1.656,1.584,3.528,1.584,5.544
			c0,1.8-0.432,3.6-1.368,5.184c-1.656,2.664-4.464,4.608-7.56,5.256c-2.448,0.432-4.968,0.432-7.416,0
			c-3.168-0.648-5.904-2.52-7.632-5.256c-1.872-3.384-1.8-7.488,0.216-10.728c0.504-0.792,1.152-1.44,1.944-1.944
			c-1.224-1.584-1.944-3.456-1.944-5.472c-0.216-3.528,1.728-6.912,4.896-8.568c3.96-1.872,8.496-1.8,12.456,0
			c3.024,1.512,4.896,4.608,4.896,7.992c0,0.216,0,0.36-0.072,0.576C148.356,44.82,147.636,46.764,146.412,48.348z"/>
		<path fill="#0C479D" d="M134.964,51.66h4.68c0.432,0,0.936,0.072,1.368,0.216c0.936,0.288,1.728,0.864,2.304,1.728
			c0.432,0.648,0.648,1.44,0.648,2.232c0,0.648-0.144,1.296-0.432,1.872c-0.936,1.368-2.448,2.376-4.104,2.736
			c-1.44,0.216-2.88,0.216-4.248,0c-1.728-0.36-3.168-1.296-4.104-2.736c-0.72-1.296-0.648-2.88,0.144-4.104
			c0.576-0.864,1.44-1.44,2.376-1.8C134.028,51.732,134.46,51.66,134.964,51.66z"/>
		<path fill="#0C479D" d="M134.748,45.396h4.896c0,0,0.072,0,0.144,0c1.512,0,2.736-1.224,2.736-2.736c0-0.072,0-0.144,0-0.216
			c0-1.224-0.648-2.304-1.728-2.88c-1.08-0.504-2.304-0.792-3.528-0.792s-2.376,0.288-3.456,0.792c-1.152,0.576-1.8,1.656-1.8,2.88
			c0,0.072,0,0.144,0,0.216c0,0.072,0,0.072,0,0.072c0,1.512,1.224,2.664,2.664,2.664C134.748,45.396,134.748,45.396,134.748,45.396
			z"/>
		<path fill="#FFFFFF" d="M78.876,42.732L56.7,20.556L34.524,42.732c-0.792,0.72-1.224,1.8-1.224,2.88
			c0,2.304,1.872,4.176,4.176,4.176l0,0h13.392V79.02h11.664V49.788h13.392c2.304,0,4.176-1.872,4.176-4.176
			C80.1,44.532,79.668,43.524,78.876,42.732z"/>
	</g>
</svg>
