<?xml version="1.0" encoding="utf-8"?>
<!-- Generator: Adobe Illustrator 15.0.0, SVG Export Plug-In . SVG Version: 6.00 Build 0)  -->
<!DOCTYPE svg PUBLIC "-//W3C//DTD SVG 1.1//EN" "http://www.w3.org/Graphics/SVG/1.1/DTD/svg11.dtd">
<svg version="1.1" id="Vrstva_1" xmlns="http://www.w3.org/2000/svg" xmlns:xlink="http://www.w3.org/1999/xlink" x="0px" y="0px"
	 width="800px" height="800px" viewBox="0 0 800 800" enable-background="new 0 0 800 800" xml:space="preserve">
<path fill-rule="evenodd" clip-rule="evenodd" d="M534.201,772.349c-117.281,39.84-233.804,31.58-350.331-42.102
	c-29.316-18.792-61.645-46.608-87.956-77.433C8.707,542.303-7.078,431.792,13.218,321.28
	c16.54-73.671,48.113-148.096,130.059-221.023C253.033,10.047,362.795-6.491,472.553,11.552
	c75.18,15.034,150.359,46.608,224.03,126.296c92.473,109.762,109.767,218.769,93.973,328.531
	c-15.04,78.188-45.854,157.12-133.056,233.799C616.897,735.509,575.549,757.31,534.201,772.349"/>
<path fill-rule="evenodd" clip-rule="evenodd" fill="#FFFFFF" d="M531.947,764.834c-118.779,39.84-236.812,31.569-354.837-47.363
	c-38.345-26.317-81.947-72.172-105.25-111.266C0.442,487.425-4.07,368.644,43.293,249.862
	c20.296-48.112,51.121-96.98,104.495-144.344C256.047,17.562,363.549,1.023,471.799,19.066
	c72.926,15.035,146.606,45.105,218.778,124.042c90.954,107.503,108.247,214.257,92.464,321.76
	c-14.276,76.679-45.11,154.112-130.059,230.047C612.389,729.492,571.786,750.549,531.947,764.834"/>
<path fill-rule="evenodd" clip-rule="evenodd" fill="#DC0000" d="M537.953,746.786c47.373-18.792,94.728-47.363,140.592-97.725
	c87.957-103.006,104.496-205.992,90.211-308.989c-13.531-74.426-42.856-148.851-124.044-221.772
	C537.21,29.589,429.705,14.555,321.449,35.601C255.292,50.64,187.627,80.71,122.226,151.378
	C34.265,254.37,17.725,357.366,32.011,461.117c13.531,73.66,42.852,148.096,124.043,221.022
	c108.258,88.7,215.761,103.74,323.269,82.694C498.859,760.317,518.416,754.301,537.953,746.786"/>
<path fill-rule="evenodd" clip-rule="evenodd" fill="#FFFFFF" d="M494.354,661.084c38.339-13.531,76.679-35.331,114.273-77.434
	c72.173-86.457,81.195-173.659,58.642-260.866c-13.531-43.606-36.088-88.711-84.959-132.313
	c-87.202-71.422-174.404-79.692-261.611-55.632c-43.606,13.531-88.711,36.085-131.562,85.703
	c-69.919,87.207-78.188,174.414-53.379,261.621c13.537,43.601,36.84,87.956,86.457,130.803
	c87.957,69.174,175.164,77.433,262.372,51.881C487.593,663.337,491.355,662.583,494.354,661.084"/>
<g>
	<path d="M222.144,530.052V319.676l-28.54,25.464v-39.478l28.54-24.78h35.718v249.17H222.144z"/>
	<path d="M351.171,530.052V319.676l-28.54,25.464v-39.478l28.54-24.78h35.719v249.17H351.171z"/>
	<path d="M594.361,460.667c0,21.648-7.066,39.136-21.191,52.466c-13.561,12.646-30.535,18.97-50.928,18.97
		c-20.396,0-37.314-6.323-50.758-18.97c-14.014-13.33-21.02-30.817-21.02-52.466V350.096c0-21.646,7.006-39.077,21.02-52.295
		c13.443-12.646,30.361-18.97,50.758-18.97c20.393,0,37.367,6.323,50.928,18.97c14.125,13.33,21.191,30.762,21.191,52.295V460.667z
		 M558.643,351.121c0-27.002-12.133-40.503-36.4-40.503c-24.041,0-36.061,13.501-36.061,40.503v108.521
		c0,27.117,12.02,40.674,36.061,40.674c24.268,0,36.4-13.557,36.4-40.674V351.121z"/>
</g>
</svg>
