<svg width="900" height="900" viewBox="0 0 900 900" fill="none" xmlns="http://www.w3.org/2000/svg">
<rect x="5" y="5" width="890" height="890" fill="white" stroke="black" stroke-width="10"/>
<path d="M450 813C610.163 813 740 683.163 740 523C740 362.837 610.163 233 450 233C289.837 233 160 362.837 160 523C160 683.163 289.837 813 450 813Z" fill="#0C479D" stroke="#CC0000" stroke-width="75"/>
<path d="M693.882 726.535L245.628 278.281L206.374 317.535L654.628 765.789L693.882 726.535Z" fill="#CC0000"/>
<path d="M261.602 154H244.727V65.6172H199.375V154H182.57V51.2031H261.602V154ZM335.371 154H277.222V51.2031H335.371V65.4062H294.027V93.3906H332.769V107.453H294.027V139.727H335.371V154ZM414.202 82.2812C414.202 93.0156 410.687 101.242 403.655 106.961C396.624 112.68 386.616 115.539 373.632 115.539H362.944V154H346.14V51.2031H375.741C388.585 51.2031 398.194 53.8281 404.569 59.0781C410.991 64.3281 414.202 72.0625 414.202 82.2812ZM362.944 101.406H371.874C380.499 101.406 386.827 99.9062 390.858 96.9062C394.89 93.9062 396.905 89.2188 396.905 82.8438C396.905 76.9375 395.101 72.5312 391.491 69.625C387.882 66.7188 382.257 65.2656 374.616 65.2656H362.944V101.406ZM423.213 154V51.2031H440.018V154H423.213ZM546.975 102.461C546.975 119.195 542.779 132.203 534.389 141.484C526.045 150.766 514.209 155.406 498.881 155.406C483.365 155.406 471.436 150.812 463.092 141.625C454.795 132.391 450.647 119.289 450.647 102.32C450.647 85.3516 454.818 72.3203 463.162 63.2266C471.553 54.1328 483.506 49.5859 499.022 49.5859C514.303 49.5859 526.115 54.2031 534.459 63.4375C542.803 72.6719 546.975 85.6797 546.975 102.461ZM468.506 102.461C468.506 115.117 471.061 124.727 476.17 131.289C481.279 137.805 488.85 141.062 498.881 141.062C508.865 141.062 516.389 137.828 521.451 131.359C526.561 124.891 529.115 115.258 529.115 102.461C529.115 89.8516 526.584 80.2891 521.522 73.7734C516.506 67.2578 509.006 64 499.022 64C488.943 64 481.326 67.2578 476.17 73.7734C471.061 80.2891 468.506 89.8516 468.506 102.461ZM633.259 154H613.923L588.189 111.953L562.244 154H544.244L578.345 100.703L546.423 51.2031H565.127L588.892 90.0859L612.658 51.2031H630.798L598.666 100.984L633.259 154ZM716.661 154H699.786V107.664H652.396V154H635.591V51.2031H652.396V93.25H699.786V51.2031H716.661V154Z" fill="black"/>
</svg>
