<?xml version="1.0" encoding="UTF-8" standalone="no"?>
<!-- Created with Inkscape (http://www.inkscape.org/) -->
<svg
   xmlns:svg="http://www.w3.org/2000/svg"
   xmlns="http://www.w3.org/2000/svg"
   version="1.0"
   width="255.60001"
   height="354.86249"
   id="svg2"
   xml:space="preserve"><defs
     id="defs5"><clipPath
       id="clipPath19"><path
         d="M 0,0 L 2044.79,0 L 2044.79,2838.94 L 0,2838.94 L 0,0 z"
         id="path21" /></clipPath></defs><g
     transform="matrix(1.25,0,0,-1.25,0,354.8625)"
     id="g11"><g
       transform="scale(0.1,0.1)"
       id="g13"><g
         id="g15"><g
           clip-path="url(#clipPath19)"
           id="g17"><path
             d="M 1.07422,1.07422 L 2043.7142,1.07422 L 2043.7142,2837.8642 L 1.07422,2837.8642 L 1.07422,1.07422 z"
             id="path23"
             style="fill:#ffffff;fill-opacity:1;fill-rule:nonzero;stroke:none" /><path
             d="M 1.07422,1.07422 L 2043.7142,1.07422 L 2043.7142,2837.8642 L 1.07422,2837.8642 L 1.07422,1.07422 z"
             id="path25"
             style="fill:none;stroke:#000000;stroke-width:2.1500001;stroke-linecap:butt;stroke-linejoin:miter;stroke-miterlimit:4;stroke-dasharray:none;stroke-opacity:1" /><path
             d="M 1.07422,1.07422 L 2043.7142,1.07422 L 2043.7142,2837.8642 L 1.07422,2837.8642 L 1.07422,1.07422 z"
             id="path27"
             style="fill:#ffffff;fill-opacity:1;fill-rule:nonzero;stroke:none" /><path
             d="M 1.07422,1.07422 L 2043.7142,1.07422 L 2043.7142,2837.8642 L 1.07422,2837.8642 L 1.07422,1.07422 z"
             id="path29"
             style="fill:none;stroke:#000000;stroke-width:2.1500001;stroke-linecap:butt;stroke-linejoin:miter;stroke-miterlimit:4;stroke-dasharray:none;stroke-opacity:1" /><path
             d="M 2020.67,2724.11 L 2020.67,114.832 C 2020.67,63.7109 1981.07,24.1133 1929.95,24.1133 L 114.84,24.1133 C 63.7188,24.1133 24.1094,63.7109 24.1094,114.832 L 24.1094,2724.11 C 24.1094,2775.23 63.7109,2814.83 114.84,2814.83 L 1929.95,2814.83 C 1981.07,2814.83 2020.67,2775.23 2020.67,2724.11"
             id="path31"
             style="fill:#000000;fill-opacity:1;fill-rule:nonzero;stroke:none" /><path
             d="M 2020.67,2724.11 L 2020.67,114.832 C 2020.67,63.7109 1981.07,24.1133 1929.95,24.1133 L 114.84,24.1133 C 63.7188,24.1133 24.1094,63.7109 24.1094,114.832 L 24.1094,2724.11 C 24.1094,2775.23 63.7109,2814.83 114.84,2814.83 L 1929.95,2814.83 C 1981.07,2814.83 2020.67,2775.23 2020.67,2724.11 z"
             id="path33"
             style="fill:none;stroke:#000000;stroke-width:2.1500001;stroke-linecap:butt;stroke-linejoin:miter;stroke-miterlimit:4;stroke-dasharray:none;stroke-opacity:1" /><path
             d="M 69.4688,2724.11 C 69.4688,2750.03 88.9102,2769.47 114.828,2769.47 L 1929.94,2769.47 C 1955.86,2769.47 1975.3,2750.03 1975.3,2724.11 L 1975.3,114.832 C 1975.3,88.9141 1955.86,69.4609 1929.94,69.4609 L 114.828,69.4609 C 88.8984,69.4609 69.4688,88.9141 69.4688,114.832 L 69.4688,2724.11"
             id="path35"
             style="fill:#ffffff;fill-opacity:1;fill-rule:nonzero;stroke:none" /><path
             d="M 69.4688,2724.11 C 69.4688,2750.03 88.9102,2769.47 114.828,2769.47 L 1929.94,2769.47 C 1955.86,2769.47 1975.3,2750.03 1975.3,2724.11 L 1975.3,114.832 C 1975.3,88.9141 1955.86,69.4609 1929.94,69.4609 L 114.828,69.4609 C 88.8984,69.4609 69.4688,88.9141 69.4688,114.832 L 69.4688,2724.11 z"
             id="path37"
             style="fill:none;stroke:#000000;stroke-width:2.1500001;stroke-linecap:butt;stroke-linejoin:miter;stroke-miterlimit:4;stroke-dasharray:none;stroke-opacity:1" /><path
             d="M 1873.07,1036.43 C 1873.07,1501.55 1490.75,1884.59 1022.03,1884.59 C 556.91,1884.59 173.871,1501.55 173.871,1036.43 C 173.871,568.422 556.91,185.391 1022.03,185.391 C 1490.75,185.391 1873.07,568.422 1873.07,1036.43"
             id="path39"
             style="fill:#e23828;fill-opacity:1;fill-rule:nonzero;stroke:none" /><path
             d="M 1873.07,1036.43 C 1873.07,1501.55 1490.75,1884.59 1022.03,1884.59 C 556.91,1884.59 173.871,1501.55 173.871,1036.43 C 173.871,568.422 556.91,185.391 1022.03,185.391 C 1490.75,185.391 1873.07,568.422 1873.07,1036.43 z"
             id="path41"
             style="fill:none;stroke:#e23828;stroke-width:2.1500001;stroke-linecap:butt;stroke-linejoin:miter;stroke-miterlimit:4;stroke-dasharray:none;stroke-opacity:1" /><path
             d="M 1618.19,2159.63 C 1552.67,2159.63 1492.91,2204.99 1476.35,2267.63 C 1461.95,2318.75 1461.95,2375.63 1476.35,2426.75 C 1515.95,2571.47 1720.43,2571.47 1757.15,2426.75 C 1765.79,2400.83 1768.67,2375.63 1768.67,2346.83 C 1768.67,2341.8 1768.67,2338.91 1768.67,2333.15 L 1541.15,2333.15 C 1541.15,2313 1544.03,2295.71 1549.8,2279.15 C 1561.31,2250.35 1586.51,2230.91 1618.19,2230.91 C 1652.03,2230.91 1680.11,2247.47 1697.39,2279.15 L 1760.03,2247.47 C 1731.23,2194.19 1677.95,2159.63 1618.19,2159.63"
             id="path43"
             style="fill:#000000;fill-opacity:1;fill-rule:nonzero;stroke:none" /><path
             d="M 1618.19,2159.63 C 1552.67,2159.63 1492.91,2204.99 1476.35,2267.63 C 1461.95,2318.75 1461.95,2375.63 1476.35,2426.75 C 1515.95,2571.47 1720.43,2571.47 1757.15,2426.75 C 1765.79,2400.83 1768.67,2375.63 1768.67,2346.83 C 1768.67,2341.8 1768.67,2338.91 1768.67,2333.15 L 1541.15,2333.15 C 1541.15,2313 1544.03,2295.71 1549.8,2279.15 C 1561.31,2250.35 1586.51,2230.91 1618.19,2230.91 C 1652.03,2230.91 1680.11,2247.47 1697.39,2279.15 L 1760.03,2247.47 C 1731.23,2194.19 1677.95,2159.63 1618.19,2159.63 z"
             id="path45"
             style="fill:none;stroke:#000000;stroke-width:2.1500001;stroke-linecap:butt;stroke-linejoin:miter;stroke-miterlimit:4;stroke-dasharray:none;stroke-opacity:1" /><path
             d="M 1549.8,2415.23 C 1549.8,2409.47 1546.91,2400.83 1544.03,2392.19 L 1688.75,2392.19 C 1688.75,2400.83 1685.87,2409.47 1682.99,2415.23 C 1675.07,2446.19 1646.27,2466.35 1618.19,2466.35 C 1586.51,2466.35 1561.31,2446.19 1549.8,2418.11 L 1549.8,2415.23"
             id="path47"
             style="fill:#ffffff;fill-opacity:1;fill-rule:nonzero;stroke:none" /><path
             d="M 1549.8,2415.23 C 1549.8,2409.47 1546.91,2400.83 1544.03,2392.19 L 1688.75,2392.19 C 1688.75,2400.83 1685.87,2409.47 1682.99,2415.23 C 1675.07,2446.19 1646.27,2466.35 1618.19,2466.35 C 1586.51,2466.35 1561.31,2446.19 1549.8,2418.11 L 1549.8,2415.23 z"
             id="path49"
             style="fill:none;stroke:#000000;stroke-width:2.1500001;stroke-linecap:butt;stroke-linejoin:miter;stroke-miterlimit:4;stroke-dasharray:none;stroke-opacity:1" /><path
             d="M 733.309,2420.99 C 727.551,2395.07 724.672,2372.76 724.672,2346.83 C 724.672,2324.51 727.551,2298.59 733.309,2276.27 C 749.871,2207.87 809.629,2159.63 877.309,2159.63 C 948.59,2159.63 1008.35,2207.87 1024.92,2276.27 C 1030.67,2298.59 1033.55,2324.51 1033.55,2346.83 C 1033.55,2372.76 1030.67,2395.07 1024.92,2420.99 C 1008.35,2485.79 948.59,2534.03 877.309,2534.03 C 809.629,2534.03 749.871,2485.79 733.309,2420.99"
             id="path51"
             style="fill:#000000;fill-opacity:1;fill-rule:nonzero;stroke:none" /><path
             d="M 733.309,2420.99 C 727.551,2395.07 724.672,2372.76 724.672,2346.83 C 724.672,2324.51 727.551,2298.59 733.309,2276.27 C 749.871,2207.87 809.629,2159.63 877.309,2159.63 C 948.59,2159.63 1008.35,2207.87 1024.92,2276.27 C 1030.67,2298.59 1033.55,2324.51 1033.55,2346.83 C 1033.55,2372.76 1030.67,2395.07 1024.92,2420.99 C 1008.35,2485.79 948.59,2534.03 877.309,2534.03 C 809.629,2534.03 749.871,2485.79 733.309,2420.99 z"
             id="path53"
             style="fill:none;stroke:#000000;stroke-width:2.1500001;stroke-linecap:butt;stroke-linejoin:miter;stroke-miterlimit:4;stroke-dasharray:none;stroke-opacity:1" /><path
             d="M 806.75,2412.35 C 800.988,2389.31 798.109,2369.87 798.109,2346.83 C 798.109,2324.51 800.988,2304.35 806.75,2284.91 C 818.27,2250.35 846.352,2230.91 877.309,2230.91 C 911.871,2230.91 939.949,2250.35 948.59,2284.91 C 957.23,2304.35 960.109,2327.39 960.109,2346.83 C 960.109,2369.87 957.23,2389.31 948.59,2412.35 C 939.949,2443.31 911.871,2466.35 877.309,2466.35 C 846.352,2466.35 818.27,2443.31 806.75,2412.35"
             id="path55"
             style="fill:#ffffff;fill-opacity:1;fill-rule:nonzero;stroke:none" /><path
             d="M 806.75,2412.35 C 800.988,2389.31 798.109,2369.87 798.109,2346.83 C 798.109,2324.51 800.988,2304.35 806.75,2284.91 C 818.27,2250.35 846.352,2230.91 877.309,2230.91 C 911.871,2230.91 939.949,2250.35 948.59,2284.91 C 957.23,2304.35 960.109,2327.39 960.109,2346.83 C 960.109,2369.87 957.23,2389.31 948.59,2412.35 C 939.949,2443.31 911.871,2466.35 877.309,2466.35 C 846.352,2466.35 818.27,2443.31 806.75,2412.35 z"
             id="path57"
             style="fill:none;stroke:#000000;stroke-width:2.1500001;stroke-linecap:butt;stroke-linejoin:miter;stroke-miterlimit:4;stroke-dasharray:none;stroke-opacity:1" /><path
             d="M 543.23,2171.15 C 451.789,2145.95 353.148,2165.39 281.871,2225.15 L 330.109,2284.91 C 366.828,2256.11 415.07,2239.55 463.309,2239.55 C 477.711,2239.55 494.988,2239.55 508.672,2245.31 C 537.469,2250.35 559.789,2276.27 559.789,2307.23 C 559.789,2333.15 543.23,2355.47 520.191,2366.99 C 505.789,2372.76 492.109,2375.63 477.711,2378.51 L 429.469,2392.19 C 406.43,2397.95 384.109,2406.59 363.949,2420.99 C 276.109,2474.99 281.871,2605.31 375.469,2653.55 C 386.988,2656.43 398.512,2662.19 409.309,2665.07 C 471.949,2684.51 540.352,2678.75 596.512,2647.79 C 610.91,2642.04 622.43,2633.39 633.941,2625.47 L 582.82,2562.83 C 568.422,2574.35 551.141,2582.28 534.578,2588.03 C 517.301,2593.79 500.031,2596.67 483.461,2596.67 C 463.301,2596.67 443.859,2593.79 423.699,2585.15 C 401.379,2579.39 384.102,2557.07 384.102,2531.15 C 384.102,2511.71 398.5,2491.56 415.059,2483.63 C 426.578,2477.87 438.102,2472.11 449.621,2469.23 L 497.859,2457.71 C 520.18,2451.94 540.34,2443.31 559.781,2435.39 C 610.91,2412.35 641.859,2361.23 641.859,2307.23 C 641.859,2245.31 602.262,2188.43 543.219,2171.15"
             id="path59"
             style="fill:#000000;fill-opacity:1;fill-rule:nonzero;stroke:none" /><path
             d="M 543.23,2171.15 C 451.789,2145.95 353.148,2165.39 281.871,2225.15 L 330.109,2284.91 C 366.828,2256.11 415.07,2239.55 463.309,2239.55 C 477.711,2239.55 494.988,2239.55 508.672,2245.31 C 537.469,2250.35 559.789,2276.27 559.789,2307.23 C 559.789,2333.15 543.23,2355.47 520.191,2366.99 C 505.789,2372.76 492.109,2375.63 477.711,2378.51 L 429.469,2392.19 C 406.43,2397.95 384.109,2406.59 363.949,2420.99 C 276.109,2474.99 281.871,2605.31 375.469,2653.55 C 386.988,2656.43 398.512,2662.19 409.309,2665.07 C 471.949,2684.51 540.352,2678.75 596.512,2647.79 C 610.91,2642.04 622.43,2633.39 633.941,2625.47 L 582.82,2562.83 C 568.422,2574.35 551.141,2582.28 534.578,2588.03 C 517.301,2593.79 500.031,2596.67 483.461,2596.67 C 463.301,2596.67 443.859,2593.79 423.699,2585.15 C 401.379,2579.39 384.102,2557.07 384.102,2531.15 C 384.102,2511.71 398.5,2491.56 415.059,2483.63 C 426.578,2477.87 438.102,2472.11 449.621,2469.23 L 497.859,2457.71 C 520.18,2451.94 540.34,2443.31 559.781,2435.39 C 610.91,2412.35 641.859,2361.23 641.859,2307.23 C 641.859,2245.31 602.262,2188.43 543.219,2171.15 L 543.23,2171.15 z"
             id="path61"
             style="fill:none;stroke:#000000;stroke-width:2.1500001;stroke-linecap:butt;stroke-linejoin:miter;stroke-miterlimit:4;stroke-dasharray:none;stroke-opacity:1" /><path
             d="M 1394.27,2171.15 L 1394.27,2409.47 C 1394.27,2480.75 1340.28,2534.03 1268.99,2534.03 C 1238.03,2534.03 1207.07,2523.23 1181.15,2503.07 L 1181.15,2526.11 L 1107.71,2526.11 L 1107.71,2171.15 L 1181.15,2171.15 L 1181.15,2395.07 C 1181.15,2488.67 1320.11,2488.67 1320.11,2395.07 L 1320.11,2171.15 L 1394.27,2171.15"
             id="path63"
             style="fill:#000000;fill-opacity:1;fill-rule:nonzero;stroke:none" /><path
             d="M 1394.27,2171.15 L 1394.27,2409.47 C 1394.27,2480.75 1340.28,2534.03 1268.99,2534.03 L 1268.99,2534.03 C 1238.03,2534.03 1207.07,2523.23 1181.15,2503.07 L 1181.15,2526.11 L 1107.71,2526.11 L 1107.71,2171.15 L 1181.15,2171.15 L 1181.15,2395.07 C 1181.15,2488.67 1320.11,2488.67 1320.11,2395.07 L 1320.11,2171.15 L 1394.27,2171.15 z"
             id="path65"
             style="fill:none;stroke:#000000;stroke-width:2.1500001;stroke-linecap:butt;stroke-linejoin:miter;stroke-miterlimit:4;stroke-dasharray:none;stroke-opacity:1" /><path
             d="M 1660.67,1036.43 C 1660.67,1388.51 1374.11,1672.18 1022.03,1672.18 C 673.551,1672.18 386.988,1388.51 386.988,1036.43 C 386.988,685.07 673.551,398.512 1022.03,398.512 C 1374.11,398.512 1660.67,685.07 1660.67,1036.43"
             id="path67"
             style="fill:#ffffff;fill-opacity:1;fill-rule:nonzero;stroke:none" /><path
             d="M 1660.67,1036.43 C 1660.67,1388.51 1374.11,1672.18 1022.03,1672.18 C 673.551,1672.18 386.988,1388.51 386.988,1036.43 C 386.988,685.07 673.551,398.512 1022.03,398.512 C 1374.11,398.512 1660.67,685.07 1660.67,1036.43 z"
             id="path69"
             style="fill:none;stroke:#ffffff;stroke-width:2.1500001;stroke-linecap:butt;stroke-linejoin:miter;stroke-miterlimit:4;stroke-dasharray:none;stroke-opacity:1" /><path
             d="M 1308.59,644.754 C 1343.15,644.754 1374.11,653.391 1402.19,670.672 C 1433.87,687.23 1461.95,710.273 1484.99,738.352 C 1501.55,764.262 1515.95,786.582 1527.47,815.391 C 1536.11,831.953 1541.15,852.113 1544.03,872.273 C 1555.55,923.391 1561.31,973.793 1561.31,1024.9 C 1561.31,1059.46 1558.43,1090.43 1552.67,1124.26 C 1549.8,1166.75 1541.15,1207.07 1527.47,1246.67 C 1515.95,1274.75 1501.55,1302.82 1482.11,1328.75 C 1459.08,1359.71 1430.99,1385.63 1396.43,1405.07 C 1371.23,1419.46 1340.28,1428.11 1308.59,1430.99 C 1277.63,1428.11 1249.56,1419.46 1220.76,1405.07 C 1186.91,1388.51 1158.83,1359.71 1135.79,1328.75 C 1118.51,1302.82 1104.83,1274.75 1093.31,1246.67 C 1078.91,1207.07 1070.28,1166.75 1065.23,1127.15 C 1062.35,1093.31 1059.47,1059.46 1059.47,1024.9 C 1059.47,973.793 1065.23,920.504 1073.15,872.273 C 1076.03,852.113 1084.68,831.953 1093.31,815.391 C 1104.83,786.582 1118.51,761.391 1135.79,738.352 C 1158.83,710.273 1184.03,687.23 1214.99,670.672 C 1243.79,653.391 1277.63,644.754 1308.59,644.754"
             id="path71"
             style="fill:#000000;fill-opacity:1;fill-rule:nonzero;stroke:none" /><path
             d="M 1308.59,644.754 C 1343.15,644.754 1374.11,653.391 1402.19,670.672 C 1433.87,687.23 1461.95,710.273 1484.99,738.352 C 1501.55,764.262 1515.95,786.582 1527.47,815.391 C 1536.11,831.953 1541.15,852.113 1544.03,872.273 C 1555.55,923.391 1561.31,973.793 1561.31,1024.9 C 1561.31,1059.46 1558.43,1090.43 1552.67,1124.26 C 1549.8,1166.75 1541.15,1207.07 1527.47,1246.67 C 1515.95,1274.75 1501.55,1302.82 1482.11,1328.75 C 1459.08,1359.71 1430.99,1385.63 1396.43,1405.07 C 1371.23,1419.46 1340.28,1428.11 1308.59,1430.99 C 1277.63,1428.11 1249.56,1419.46 1220.76,1405.07 C 1186.91,1388.51 1158.83,1359.71 1135.79,1328.75 C 1118.51,1302.82 1104.83,1274.75 1093.31,1246.67 C 1078.91,1207.07 1070.28,1166.75 1065.23,1127.15 C 1062.35,1093.31 1059.47,1059.46 1059.47,1024.9 C 1059.47,973.793 1065.23,920.504 1073.15,872.273 C 1076.03,852.113 1084.68,831.953 1093.31,815.391 C 1104.83,786.582 1118.51,761.391 1135.79,738.352 C 1158.83,710.273 1184.03,687.23 1214.99,670.672 C 1243.79,653.391 1277.63,644.754 1308.59,644.754 z"
             id="path73"
             style="fill:none;stroke:#000000;stroke-width:2.1500001;stroke-linecap:butt;stroke-linejoin:miter;stroke-miterlimit:4;stroke-dasharray:none;stroke-opacity:1" /><path
             d="M 755.629,778.664 L 749.871,778.664 C 701.629,786.582 662.031,826.914 659.148,877.312 L 500.039,863.633 C 505.801,803.863 534.59,749.871 577.078,710.273 C 625.32,673.551 679.32,653.391 735.48,647.633 L 764.281,647.633 C 770.039,647.633 772.922,647.633 778.68,647.633 C 860.762,647.633 939.961,690.102 982.441,761.391 C 1002.6,792.352 1011.24,829.062 1011.24,866.512 C 1011.24,951.473 960.121,1024.9 880.199,1056.58 C 948.602,1087.55 991.078,1158.83 991.078,1232.28 C 991.078,1249.55 988.199,1266.11 982.441,1283.39 C 973.801,1314.35 957.238,1343.15 934.211,1365.47 C 894.602,1402.18 846.359,1425.23 795.238,1430.99 C 778.68,1433.87 764.281,1433.87 747,1433.87 C 693,1433.87 641.879,1416.58 596.52,1385.63 C 548.27,1353.96 517.32,1302.82 511.559,1243.79 L 656.281,1229.39 C 664.922,1274.75 701.641,1308.59 747,1308.59 C 755.641,1308.59 767.16,1308.59 778.68,1305.71 C 821.16,1294.91 846.359,1254.59 846.359,1212.11 C 846.359,1163.87 812.52,1124.26 764.281,1115.63 C 752.762,1112.75 738.359,1112.75 727.559,1110.59 L 727.559,999.711 L 747,999.711 C 755.641,999.711 767.16,996.832 775.801,993.953 C 795.238,988.191 812.52,976.672 829.078,965.871 C 840.602,954.352 852.121,939.953 860.762,925.551 C 869.398,911.871 872.281,897.473 872.281,883.07 C 872.281,866.512 866.531,852.113 860.762,837.711 C 854.988,826.914 846.359,818.273 837.719,809.633 C 831.961,800.992 826.922,795.23 818.281,792.352 C 806.762,783.711 792.371,781.543 781.57,781.543 C 772.93,778.664 764.289,778.664 755.641,778.664"
             id="path75"
             style="fill:#000000;fill-opacity:1;fill-rule:nonzero;stroke:none" /><path
             d="M 755.629,778.664 L 749.871,778.664 C 701.629,786.582 662.031,826.914 659.148,877.312 L 500.039,863.633 C 505.801,803.863 534.59,749.871 577.078,710.273 C 625.32,673.551 679.32,653.391 735.48,647.633 L 764.281,647.633 C 770.039,647.633 772.922,647.633 778.68,647.633 C 860.762,647.633 939.961,690.102 982.441,761.391 C 1002.6,792.352 1011.24,829.062 1011.24,866.512 C 1011.24,951.473 960.121,1024.9 880.199,1056.58 C 948.602,1087.55 991.078,1158.83 991.078,1232.28 C 991.078,1249.55 988.199,1266.11 982.441,1283.39 C 973.801,1314.35 957.238,1343.15 934.211,1365.47 C 894.602,1402.18 846.359,1425.23 795.238,1430.99 C 778.68,1433.87 764.281,1433.87 747,1433.87 C 693,1433.87 641.879,1416.58 596.52,1385.63 C 548.27,1353.96 517.32,1302.82 511.559,1243.79 L 656.281,1229.39 C 664.922,1274.75 701.641,1308.59 747,1308.59 C 755.641,1308.59 767.16,1308.59 778.68,1305.71 C 821.16,1294.91 846.359,1254.59 846.359,1212.11 C 846.359,1163.87 812.52,1124.26 764.281,1115.63 C 752.762,1112.75 738.359,1112.75 727.559,1110.59 L 727.559,999.711 L 747,999.711 C 755.641,999.711 767.16,996.832 775.801,993.953 C 795.238,988.191 812.52,976.672 829.078,965.871 C 840.602,954.352 852.121,939.953 860.762,925.551 C 869.398,911.871 872.281,897.473 872.281,883.07 C 872.281,866.512 866.531,852.113 860.762,837.711 C 854.988,826.914 846.359,818.273 837.719,809.633 C 831.961,800.992 826.922,795.23 818.281,792.352 C 806.762,783.711 792.371,781.543 781.57,781.543 C 772.93,778.664 764.289,778.664 755.641,778.664 L 755.629,778.664 z"
             id="path77"
             style="fill:none;stroke:#000000;stroke-width:2.1500001;stroke-linecap:butt;stroke-linejoin:miter;stroke-miterlimit:4;stroke-dasharray:none;stroke-opacity:1" /><path
             d="M 1353.95,1266.11 L 1359.71,1260.34 L 1365.47,1252.42 L 1371.23,1243.79 L 1374.11,1235.16 L 1379.87,1223.63 L 1382.75,1214.99 L 1388.51,1204.2 L 1391.39,1195.55 L 1394.27,1184.03 L 1396.43,1172.52 L 1399.32,1163.87 L 1402.19,1153.07 L 1402.19,1144.43 L 1405.07,1132.91 L 1407.95,1124.26 L 1407.95,1107.71 L 1410.83,1099.06 L 1410.83,1070.27 L 1413.71,1062.35 L 1413.71,988.191 L 1410.83,982.422 L 1410.83,954.352 L 1407.95,948.594 L 1407.95,928.422 L 1405.07,925.551 L 1405.07,911.871 L 1402.19,906.113 L 1402.19,903.223 L 1399.32,897.473 L 1399.32,888.832 L 1396.43,883.07 L 1396.43,877.312 L 1394.27,875.152 L 1394.27,869.391 L 1391.39,863.633 L 1388.51,860.742 L 1388.51,854.992 L 1385.63,852.113 L 1385.63,846.344 L 1382.75,843.473 L 1382.75,840.594 L 1379.87,834.832 L 1376.99,831.953 L 1376.99,829.062 L 1374.11,826.914 L 1371.23,824.031 L 1368.35,818.273 L 1365.47,815.391 L 1362.59,812.512 L 1359.71,809.633 L 1356.83,806.754 L 1353.95,800.992 L 1351.07,798.113 L 1348.91,795.23 L 1346.03,792.352 L 1340.28,792.352 L 1337.39,789.461 L 1334.51,786.582 L 1331.63,786.582 L 1328.75,783.711 L 1322.99,783.711 L 1320.11,781.543 L 1297.79,781.543 L 1294.92,783.711 L 1289.15,783.711 L 1286.27,786.582 L 1283.39,786.582 L 1280.52,789.461 L 1277.63,792.352 L 1274.75,792.352 L 1268.99,795.23 L 1266.11,798.113 L 1263.23,800.992 L 1260.35,806.754 L 1257.47,809.633 L 1254.59,812.512 L 1252.43,815.391 L 1249.56,818.273 L 1246.67,824.031 L 1243.79,826.914 L 1240.91,829.062 L 1240.91,831.953 L 1238.03,834.832 L 1238.03,840.594 L 1235.16,843.473 L 1232.27,846.344 L 1232.27,852.113 L 1229.39,854.992 L 1229.39,860.742 L 1226.51,863.633 L 1226.51,869.391 L 1223.63,875.152 L 1223.63,877.312 L 1220.76,883.07 L 1220.76,888.832 L 1217.87,891.711 L 1217.87,897.473 L 1214.99,903.223 L 1214.99,911.871 L 1212.11,917.633 L 1212.11,928.422 L 1209.23,931.312 L 1209.23,954.352 L 1207.07,957.23 L 1207.07,993.953 L 1204.2,996.832 L 1204.2,1050.83 L 1207.07,1056.58 L 1207.07,1099.06 L 1209.23,1107.71 L 1209.23,1115.63 L 1212.11,1124.26 L 1212.11,1132.91 L 1214.99,1144.43 L 1214.99,1153.07 L 1217.87,1163.87 L 1220.76,1172.52 L 1223.63,1184.03 L 1226.51,1195.55 L 1229.39,1204.2 L 1235.16,1214.99 L 1238.03,1223.63 L 1243.79,1235.16 L 1249.56,1243.79 L 1252.43,1252.42 L 1257.47,1260.34 L 1263.23,1266.11 L 1268.99,1271.87 L 1274.75,1277.63 L 1280.52,1283.39 L 1286.27,1286.27 L 1292.03,1289.15 L 1297.79,1292.04 L 1302.83,1292.04 L 1308.59,1294.91 L 1314.35,1292.04 L 1320.11,1292.04 L 1325.87,1289.15 L 1331.63,1286.27 L 1337.39,1283.39 L 1343.15,1277.63 L 1348.91,1271.87 L 1353.95,1266.11"
             id="path79"
             style="fill:#ffffff;fill-opacity:1;fill-rule:nonzero;stroke:none" /><path
             d="M 1353.95,1266.11 L 1359.71,1260.34 L 1365.47,1252.42 L 1371.23,1243.79 L 1374.11,1235.16 L 1379.87,1223.63 L 1382.75,1214.99 L 1388.51,1204.2 L 1391.39,1195.55 L 1394.27,1184.03 L 1396.43,1172.52 L 1399.32,1163.87 L 1402.19,1153.07 L 1402.19,1144.43 L 1405.07,1132.91 L 1407.95,1124.26 L 1407.95,1107.71 L 1410.83,1099.06 L 1410.83,1070.27 L 1413.71,1062.35 L 1413.71,988.191 L 1410.83,982.422 L 1410.83,954.352 L 1407.95,948.594 L 1407.95,928.422 L 1405.07,925.551 L 1405.07,911.871 L 1402.19,906.113 L 1402.19,903.223 L 1399.32,897.473 L 1399.32,888.832 L 1396.43,883.07 L 1396.43,877.312 L 1394.27,875.152 L 1394.27,869.391 L 1391.39,863.633 L 1388.51,860.742 L 1388.51,854.992 L 1385.63,852.113 L 1385.63,846.344 L 1382.75,843.473 L 1382.75,840.594 L 1379.87,834.832 L 1376.99,831.953 L 1376.99,829.062 L 1374.11,826.914 L 1371.23,824.031 L 1368.35,818.273 L 1365.47,815.391 L 1362.59,812.512 L 1359.71,809.633 L 1356.83,806.754 L 1353.95,800.992 L 1351.07,798.113 L 1348.91,795.23 L 1346.03,792.352 L 1340.28,792.352 L 1337.39,789.461 L 1334.51,786.582 L 1331.63,786.582 L 1328.75,783.711 L 1322.99,783.711 L 1320.11,781.543 L 1317.23,781.543 L 1314.35,781.543 L 1311.47,781.543 L 1308.59,781.543 L 1305.71,781.543 L 1302.83,781.543 L 1300.67,781.543 L 1297.79,781.543 L 1294.92,783.711 L 1289.15,783.711 L 1286.27,786.582 L 1283.39,786.582 L 1280.52,789.461 L 1277.63,792.352 L 1274.75,792.352 L 1268.99,795.23 L 1266.11,798.113 L 1263.23,800.992 L 1260.35,806.754 L 1257.47,809.633 L 1254.59,812.512 L 1252.43,815.391 L 1249.56,818.273 L 1246.67,824.031 L 1243.79,826.914 L 1240.91,829.062 L 1240.91,831.953 L 1238.03,834.832 L 1238.03,840.594 L 1235.16,843.473 L 1232.27,846.344 L 1232.27,852.113 L 1229.39,854.992 L 1229.39,860.742 L 1226.51,863.633 L 1226.51,869.391 L 1223.63,875.152 L 1223.63,877.312 L 1220.76,883.07 L 1220.76,888.832 L 1217.87,891.711 L 1217.87,897.473 L 1214.99,903.223 L 1214.99,911.871 L 1212.11,917.633 L 1212.11,928.422 L 1209.23,931.312 L 1209.23,954.352 L 1207.07,957.23 L 1207.07,993.953 L 1204.2,996.832 L 1204.2,1050.83 L 1207.07,1056.58 L 1207.07,1099.06 L 1209.23,1107.71 L 1209.23,1115.63 L 1212.11,1124.26 L 1212.11,1132.91 L 1214.99,1144.43 L 1214.99,1153.07 L 1217.87,1163.87 L 1220.76,1172.52 L 1223.63,1184.03 L 1226.51,1195.55 L 1229.39,1204.2 L 1235.16,1214.99 L 1238.03,1223.63 L 1243.79,1235.16 L 1249.56,1243.79 L 1252.43,1252.42 L 1257.47,1260.34 L 1263.23,1266.11 L 1268.99,1271.87 L 1274.75,1277.63 L 1280.52,1283.39 L 1286.27,1286.27 L 1292.03,1289.15 L 1297.79,1292.04 L 1302.83,1292.04 L 1308.59,1294.91 L 1314.35,1292.04 L 1320.11,1292.04 L 1325.87,1289.15 L 1331.63,1286.27 L 1337.39,1283.39 L 1343.15,1277.63 L 1348.91,1271.87 L 1353.95,1266.11 z"
             id="path81"
             style="fill:none;stroke:#000000;stroke-width:2.1500001;stroke-linecap:butt;stroke-linejoin:miter;stroke-miterlimit:4;stroke-dasharray:none;stroke-opacity:1" /></g></g></g></g></svg>