<?xml version="1.0" encoding="UTF-8" standalone="no"?>
<svg
   xmlns:dc="http://purl.org/dc/elements/1.1/"
   xmlns:cc="http://creativecommons.org/ns#"
   xmlns:rdf="http://www.w3.org/1999/02/22-rdf-syntax-ns#"
   xmlns:svg="http://www.w3.org/2000/svg"
   xmlns="http://www.w3.org/2000/svg"
   xmlns:sodipodi="http://sodipodi.sourceforge.net/DTD/sodipodi-0.dtd"
   xmlns:inkscape="http://www.inkscape.org/namespaces/inkscape"
   width="186.71947mm"
   height="109.42265mm"
   viewBox="0 0 186.71947 109.42265"
   version="1.1"
   id="svg972"
   inkscape:version="1.0 (4035a4fb49, 2020-05-01)"
   sodipodi:docname="Bangladesh_road_sign_C28.svg">
  <defs
     id="defs966">
    <pattern
       y="0"
       x="0"
       height="6"
       width="6"
       patternUnits="userSpaceOnUse"
       id="EMFhbasepattern" />
  </defs>
  <sodipodi:namedview
     id="base"
     pagecolor="#ffffff"
     bordercolor="#666666"
     borderopacity="1.0"
     inkscape:pageopacity="0.0"
     inkscape:pageshadow="2"
     inkscape:zoom="0.35"
     inkscape:cx="349.8156"
     inkscape:cy="546.29205"
     inkscape:document-units="mm"
     inkscape:current-layer="g13383"
     inkscape:document-rotation="0"
     showgrid="false"
     inkscape:window-width="1920"
     inkscape:window-height="1001"
     inkscape:window-x="-9"
     inkscape:window-y="-9"
     inkscape:window-maximized="1" />
  <metadata
     id="metadata969">
    <rdf:RDF>
      <cc:Work
         rdf:about="">
        <dc:format>image/svg+xml</dc:format>
        <dc:type
           rdf:resource="http://purl.org/dc/dcmitype/StillImage" />
        <dc:title></dc:title>
      </cc:Work>
    </rdf:RDF>
  </metadata>
  <g
     inkscape:label="Layer 1"
     inkscape:groupmode="layer"
     id="layer1"
     transform="translate(171.34944,46.714524)">
    <g
       inkscape:groupmode="layer"
       id="g13383"
       transform="matrix(0.52633234,0,0,0.52633234,-520.18134,228.8955)"
       style="opacity:1;stroke-width:0.670257">
      <path
         style="color:#000000;font-style:normal;font-variant:normal;font-weight:normal;font-stretch:normal;font-size:medium;line-height:normal;font-family:sans-serif;font-variant-ligatures:normal;font-variant-position:normal;font-variant-caps:normal;font-variant-numeric:normal;font-variant-alternates:normal;font-variant-east-asian:normal;font-feature-settings:normal;font-variation-settings:normal;text-indent:0;text-align:start;text-decoration:none;text-decoration-line:none;text-decoration-style:solid;text-decoration-color:#000000;letter-spacing:normal;word-spacing:normal;text-transform:none;writing-mode:lr-tb;direction:ltr;text-orientation:mixed;dominant-baseline:auto;baseline-shift:baseline;text-anchor:start;white-space:normal;shape-padding:0;shape-margin:0;inline-size:0;clip-rule:nonzero;display:inline;overflow:visible;visibility:visible;isolation:auto;mix-blend-mode:normal;color-interpolation:sRGB;color-interpolation-filters:linearRGB;solid-color:#000000;solid-opacity:1;vector-effect:none;fill:#ffffff;fill-opacity:1;fill-rule:evenodd;stroke:none;stroke-width:0.503697;stroke-linecap:square;stroke-linejoin:miter;stroke-miterlimit:4;stroke-dasharray:none;stroke-dashoffset:0;stroke-opacity:1;paint-order:fill markers stroke;color-rendering:auto;image-rendering:auto;shape-rendering:auto;text-rendering:auto;enable-background:accumulate;stop-color:#000000;stop-opacity:1"
         d="m 672.98039,-523.26709 h 334.31421 c 5.4541,0 9.8449,4.39085 9.8449,9.84495 v 187.4562 c 0,5.4541 -4.3908,9.84495 -9.8449,9.84495 H 672.98039 c -5.4541,0 -9.84495,-4.39085 -9.84495,-9.84495 v -187.4562 c 0,-5.4541 4.39085,-9.84495 9.84495,-9.84495 z"
         id="path13385" />
      <path
         style="color:#000000;font-style:normal;font-variant:normal;font-weight:normal;font-stretch:normal;font-size:medium;line-height:normal;font-family:sans-serif;font-variant-ligatures:normal;font-variant-position:normal;font-variant-caps:normal;font-variant-numeric:normal;font-variant-alternates:normal;font-variant-east-asian:normal;font-feature-settings:normal;font-variation-settings:normal;text-indent:0;text-align:start;text-decoration:none;text-decoration-line:none;text-decoration-style:solid;text-decoration-color:#000000;letter-spacing:normal;word-spacing:normal;text-transform:none;writing-mode:lr-tb;direction:ltr;text-orientation:mixed;dominant-baseline:auto;baseline-shift:baseline;text-anchor:start;white-space:normal;shape-padding:0;shape-margin:0;inline-size:0;clip-rule:nonzero;display:inline;overflow:visible;visibility:visible;isolation:auto;mix-blend-mode:normal;color-interpolation:sRGB;color-interpolation-filters:linearRGB;solid-color:#000000;solid-opacity:1;vector-effect:none;fill:#000000;fill-opacity:1;fill-rule:evenodd;stroke:none;stroke-width:0.503697;stroke-linecap:square;stroke-linejoin:miter;stroke-miterlimit:4;stroke-dasharray:none;stroke-dashoffset:0;stroke-opacity:1;paint-order:fill markers stroke;color-rendering:auto;image-rendering:auto;shape-rendering:auto;text-rendering:auto;enable-background:accumulate;stop-color:#000000;stop-opacity:1"
         d="m 672.98047,-523.64258 c -5.65577,0 -10.2207,4.56494 -10.2207,10.2207 v 187.45508 c 0,5.65577 4.56493,10.22071 10.2207,10.22071 h 334.31443 c 5.6558,0 10.2207,-4.56494 10.2207,-10.22071 v -187.45508 c 0,-5.65576 -4.5649,-10.2207 -10.2207,-10.2207 z m 0,0.75196 h 334.31443 c 5.2525,0 9.4688,4.21631 9.4688,9.46874 v 187.45508 c 0,5.25244 -4.2163,9.47071 -9.4688,9.47071 H 672.98047 c -5.25244,0 -9.46875,-4.21827 -9.46875,-9.47071 v -187.45508 c 0,-5.25243 4.21631,-9.46874 9.46875,-9.46874 z"
         id="path13387" />
    </g>
    <path
       id="rect12633"
       style="fill:#007b33;fill-opacity:1;fill-rule:evenodd;stroke:none;stroke-width:0.265112;stroke-linecap:square;stroke-miterlimit:4;stroke-dasharray:none;stroke-opacity:1;paint-order:fill markers stroke"
       d="M -166.11233,-44.253713 H 10.101069 c 1.578992,0 2.850192,1.271185 2.850192,2.850207 v 98.875711 c 0,1.579015 -1.2712,2.850208 -2.850192,2.850208 H -166.11233 c -1.57902,0 -2.85021,-1.271193 -2.85021,-2.850208 v -98.875711 c 0,-1.579022 1.27119,-2.850207 2.85021,-2.850207 z" />
    <g
       style="stroke-width:0.670257"
       transform="matrix(0.52633234,0,0,-0.52633234,-240.13678,233.5798)"
       id="g2938">
      <g
         aria-label="TANGAIL N4"
         transform="scale(1,-1)"
         id="text12778"
         style="font-size:21.7708px;line-height:109.02%;font-family:'Highway Gothic Expanded';-inkscape-font-specification:'Highway Gothic Expanded, Normal';text-align:end;text-anchor:end;fill:#ffffff;fill-opacity:1;stroke-width:0.50269">
        <path
           id="path12798"
           style="font-style:normal;font-variant:normal;font-weight:normal;font-stretch:normal;font-family:'Transport Heavy';-inkscape-font-specification:'Transport Heavy, ';fill:#ffffff;fill-opacity:1;stroke-width:0.50269"
           d="m 464.85017,-354.52085 h 0.12756 0.85042 0.17009 0.12756 0.76538 0.55278 0.17008 0.72286 0.12756 0.51026 v 10.41767 h 0.55277 0.17008 0.72286 0.12757 0.51025 v 2.97648 q -0.0425,0.0744 -0.12756,0.085 h -0.46774 -0.2126 -0.12756 -0.17009 -0.12756 -0.85042 v 2.76387 h -0.55278 -0.17008 -0.76538 -0.17009 -0.17008 -0.17009 -0.72285 -0.12757 -0.51025 v -0.46773 -0.21261 -0.55277 -0.17009 -0.72285 -0.12757 -0.51025 h -0.34017 -0.59529 -0.12757 -0.2126 -0.12757 -0.17008 -0.12756 -0.85043 -0.72285 -0.12757 -0.51025 -0.55278 -0.17008 -0.72286 -0.12756 -0.51025 -0.46774 -0.2126 -0.55278 -0.17008 -0.12756 -0.17009 -0.12756 -0.17009 -0.76538 v -0.085 -0.085 -0.085 -0.085 -0.085 -0.085 -0.085 -0.085 -0.085 -0.085 -0.085 -0.085 -0.085 -0.12756 0.0425 -0.085 0.0425 -0.0851 0.0425 -0.085 0.0425 -0.085 0.0425 -0.085 0.0425 -0.085 0.0425 -0.085 0.0425 -0.085 0.0425 -0.085 0.0425 -0.085 0.0425 -0.085 0.0425 -0.0851 0.0425 -0.085 0.0425 -0.085 0.0425 -0.085 0.0425 -0.085 0.0425 -0.085 0.0425 -0.085 0.0425 -0.085 0.0425 -0.085 0.0425 -0.085 0.0425 -0.0851 0.0425 -0.085 0.0425 -0.085 0.0425 -0.085 0.0425 -0.085 0.0425 -0.085 0.0425 -0.085 0.0425 -0.085 0.0425 -0.0851 0.0425 -0.0851 0.0425 -0.085 0.0425 -0.085 0.0425 -0.085 0.0425 -0.085 0.0425 -0.085 0.0425 -0.085 0.0425 -0.085 0.0425 -0.0851 0.0425 -0.085 0.0425 -0.085 0.0425 -0.085 0.0425 -0.085 0.0425 -0.085 0.0425 -0.0425 l 0.17009,-0.21261 0.59529,-0.76538 0.17009,-0.25512 0.085,-0.12757 0.12756,-0.17008 0.12757,-0.085 0.085,-0.17009 0.085,-0.12756 0.12756,-0.12756 q 0.0425,-0.0744 0.085,-0.085 l 0.085,-0.12756 0.0425,-0.12756 0.12756,-0.085 q 0.38269,-0.66971 0.76538,-1.02051 l 0.17009,-0.29765 0.2126,-0.2126 0.0425,-0.12757 0.0851,-0.085 0.42521,-0.59529 0.12756,-0.0851 q 0.38269,-0.6697 0.76538,-1.0205 0.25513,-0.4571 0.51025,-0.72286 l 0.12757,-0.17009 0.085,-0.12756 0.0425,-0.085 q 0.23387,-0.2445 0.34017,-0.42521 l 0.38269,-0.46773 0.085,-0.12757 0.38269,-0.55277 0.085,-0.12757 q 0.27639,-0.29764 0.42521,-0.51025 0.0425,-0.0744 0.0851,-0.085 l 0.0425,-0.12756 0.12756,-0.0851 0.17008,-0.29764 0.42522,-0.55278 z m 0.72286,3.78438 -0.17009,0.29765 -0.25512,0.25512 -0.17009,0.29765 q -0.14882,0.1382 -0.2126,0.25513 l -0.17009,0.25512 q -0.14882,0.1382 -0.2126,0.25513 l -0.17009,0.21261 q -0.13819,0.20197 -0.25512,0.34017 -0.0425,0.0744 -0.085,0.085 l -0.0425,0.085 -0.085,0.12756 -0.0425,0.085 -0.085,0.0425 -0.0425,0.085 q -0.0425,0.0744 -0.0851,0.085 l -0.0425,0.085 -0.0425,0.0851 -0.085,0.0425 -0.29765,0.46773 -0.085,0.085 -0.29765,0.38269 -0.12756,0.12756 -0.12756,0.21261 -0.12757,0.12756 q -0.2126,0.37206 -0.38269,0.5953 l -0.25512,0.25512 -0.0425,0.12757 -0.12757,0.12756 q -0.0425,0.0744 -0.085,0.085 l -0.0425,0.12757 -0.12756,0.085 -0.17009,0.29765 -0.42521,0.55277 h 0.29765 0.25512 0.29765 0.25513 0.2126 0.25513 0.17009 0.76538 0.46773 0.17008 0.17009 0.17008 0.17008 0.72286 0.12757 0.51025 v -0.29765 -0.85042 -0.25513 -0.12756 -0.17008 -0.12757 -0.2126 -0.12757 -0.17008 -0.12756 -0.85043 -0.17008 -0.17008 -0.12757 -0.76538 -0.55277 -0.17009 -0.72285 -0.12757 -0.51025 h -0.0425 0.0425 z m -25.72526,-3.8269 h 0.59529 0.21261 0.17008 0.76538 0.17009 0.17008 0.17009 0.72285 0.12757 0.51025 l 0.17008,0.29765 0.17009,0.25513 0.17008,0.25512 0.17009,0.25513 0.17008,0.25513 0.12757,0.12756 0.0425,0.12756 q 0.0532,0.0425 0.0425,0.085 0.30828,0.32954 0.42521,0.63782 0.30828,0.32954 0.42521,0.63782 l 0.17008,0.2126 0.17009,0.25513 q 0.11693,0.19134 0.2126,0.29765 l 0.0425,0.12756 q 0.15945,0.17008 0.2126,0.34017 0.42521,0.47836 0.5953,0.89294 l 0.17008,0.25513 q 0.0532,0.0425 0.0425,0.085 0.31891,0.36143 0.46773,0.63782 l 0.17009,0.25512 0.12756,0.25513 0.17009,0.25513 0.17008,0.17008 0.12756,0.21261 0.085,0.2126 q 0.27638,0.27639 0.38268,0.55278 l 0.12757,0.17008 0.085,0.17008 0.12756,0.12757 q 0.20198,0.29765 0.29765,0.51025 l 0.12756,0.12756 0.085,0.12757 0.0425,0.12756 0.085,0.0425 q 0.13819,0.30828 0.29765,0.46773 l 0.0425,0.12757 q 0.0532,0.0425 0.0425,0.085 0.39332,0.43584 0.55277,0.8079 l 0.0425,-0.29765 v -0.29765 -0.34016 -0.17009 -0.76538 -0.46773 -0.17008 -0.17009 -0.17008 -0.17009 -0.72286 -0.12756 -0.51025 -0.25513 -0.72286 -0.12756 -0.51025 -0.55278 -0.17008 -0.72286 -0.12756 -0.51026 -0.46773 -0.21261 -0.55277 -0.17008 -0.72286 -0.12757 -0.51025 h 0.55277 0.17008 0.76538 0.17009 0.17008 0.17009 0.72286 0.12756 0.51025 v 16.24306 h -0.12756 -0.51025 -0.42522 -0.29764 -0.25513 -0.21261 -0.17008 -0.17008 -0.17009 -0.12756 -0.12757 -0.12756 -0.085 0.085 -0.085 -0.34017 -0.12756 -0.55278 l -0.0425,-0.085 q -0.14882,-0.19135 -0.2126,-0.34017 -0.0532,-0.0425 -0.0425,-0.085 -0.39332,-0.43585 -0.55278,-0.80791 -0.0532,-0.0425 -0.0425,-0.085 l -0.17008,-0.25512 q -0.22324,-0.25513 -0.34017,-0.51026 l -0.21261,-0.25512 -0.17008,-0.29765 -0.17009,-0.29765 q -0.28701,-0.31891 -0.42521,-0.59529 l -0.085,-0.0851 q -0.17008,-0.37206 -0.38269,-0.59529 l -0.0425,-0.085 -0.085,-0.12757 -0.38269,-0.59529 q -0.14883,-0.19135 -0.21261,-0.34017 -0.0531,-0.0425 -0.0425,-0.085 l -0.085,-0.0425 -0.17009,-0.29765 -0.0425,-0.085 q -0.14882,-0.19135 -0.2126,-0.34017 -0.0957,-0.10631 -0.12757,-0.21261 l -0.17008,-0.17008 -0.17008,-0.25513 -0.0851,-0.2126 -0.085,-0.0425 -0.17008,-0.29764 -0.38269,-0.55278 -0.085,-0.17008 -0.085,-0.17009 -0.12756,-0.12756 -0.085,-0.12756 -0.0425,-0.12757 q -0.21261,-0.23386 -0.34017,-0.42521 l -0.085,-0.17008 q -0.18071,-0.2445 -0.25512,-0.42521 -0.0744,-0.0425 -0.085,-0.085 l -0.085,-0.085 -0.0425,-0.085 -0.17008,-0.29765 -0.38269,-0.55277 v 10.8854 h -0.55278 -0.17008 -0.76538 -0.17008 -0.17009 -0.17008 -0.72286 -0.12756 -0.51026 v -0.12756 -0.17009 -0.12756 -0.17009 -0.76538 -0.34016 -0.34017 -0.12757 -0.85042 -0.17008 -0.21261 -0.17008 -0.21261 -0.55277 -0.17009 -0.72286 -0.12756 -0.51025 -0.17009 -0.2126 -0.55278 -0.17008 -0.72286 -0.12756 -0.51026 -0.29764 -0.34017 -0.34017 -0.34017 -0.12756 -0.12757 -1.31815 -0.29765 -0.25512 -0.29765 -0.25513 -0.2126 -0.25513 -0.17008 -0.76538 -0.46774 -0.17008 -0.17009 -0.17008 -0.17008 -0.72286 -0.12757 -0.51025 z m 22.06844,-24.63759 h 0.17009 0.76538 0.17008 0.17009 0.17008 0.72286 0.12756 0.51025 v 13.01145 h 0.12757 0.12756 0.12756 0.55278 0.72286 0.12756 0.51025 0.55278 0.17008 0.72286 0.12756 0.51026 0.46773 0.2126 0.55278 0.17008 0.72286 0.12757 0.51025 v 3.23161 h -0.29765 -0.25513 -0.29764 -0.85043 -0.34016 -0.34017 -0.34017 -0.34017 -0.85042 -0.12757 -0.12756 -1.31815 -0.29765 -0.25513 -0.29764 -0.25513 -0.21261 -0.25512 -0.17009 -0.76538 -0.46773 -0.17008 -0.17009 -0.17008 -0.17009 -0.72286 -0.12756 -0.51025 v -0.12757 -0.17008 -0.12756 -0.17009 -0.76538 -0.34017 -0.34016 -0.12757 -0.85042 -0.17008 -0.21261 -0.17008 -0.21261 -0.55277 -0.17009 -0.72286 -0.12756 -0.51025 -0.17009 -0.2126 -0.55278 -0.17008 -0.72286 -0.12756 -0.51026 -0.29764 -0.34017 -0.34017 -0.34017 -0.12756 -0.12757 -1.31815 -0.29765 -0.25513 -0.29764 -0.25513 -0.2126 -0.25513 -0.17009 -0.76538 -0.46773 -0.17008 -0.17009 -0.17008 -0.17009 -0.72285 -0.12757 -0.51025 z m -8.41917,0.0425 h 0.17008 0.76538 0.17008 0.17009 0.17008 0.72286 0.12756 0.51026 v 16.24306 h -0.55278 -0.17008 -0.76538 -0.17008 -0.17009 -0.17008 -0.72286 -0.12757 -0.51025 v -0.12756 -0.17009 -0.12756 -0.17009 -0.76538 -0.34017 -0.34016 -0.12757 -0.85042 -0.17008 -0.21261 -0.17008 -0.21261 -0.55277 -0.17009 -0.72286 -0.12756 -0.51025 -0.17009 -0.2126 -0.55278 -0.17008 -0.72286 -0.12756 -0.51026 -0.29764 -0.34017 -0.34017 -0.34017 -0.12756 -0.12757 -1.31815 -0.29765 -0.25512 -0.29765 -0.25513 -0.2126 -0.25513 -0.17008 -0.76538 -0.46774 -0.17008 -0.17009 -0.17008 -0.17008 -0.72286 -0.12757 -0.51025 z m -13.13902,-0.0425 h 0.55277 1.31816 0.59529 0.12756 0.21261 0.12756 0.17009 0.12756 0.85042 v 0.12756 q 0.18072,0.38269 0.25513,0.68034 l 0.085,0.29765 0.0425,0.17008 q 0.0425,0.0638 0.0425,0.12757 0.0425,0.0638 0.0425,0.12756 0.0425,0.0638 0.0425,0.12756 0.1063,0.17009 0.12756,0.34017 l 0.25513,0.68034 v 0.12756 q 0.20197,0.39332 0.25512,0.72286 0.20198,0.46773 0.25513,0.8079 0.0638,0.12756 0.085,0.25513 l 0.085,0.17008 q 0.0638,0.21261 0.12757,0.34017 v 0.12756 q 0.0425,0.0638 0.0425,0.12757 0.1063,0.17008 0.12756,0.34017 l 0.25513,0.68033 0.0425,0.17009 0.0425,0.085 0.085,0.38269 0.085,0.17008 0.0851,0.21261 0.0425,0.12756 0.0425,0.17009 0.085,0.25512 q 0.0638,0.21261 0.12756,0.34017 v 0.12757 q 0.0425,0.0638 0.0425,0.12756 0.1063,0.17008 0.12756,0.34017 l 0.25513,0.68034 0.0425,0.25512 0.12756,0.25513 0.085,0.25513 v 0.12756 l 0.085,0.12756 0.0425,0.17009 0.0425,0.2126 q 0.32953,0.75475 0.42521,1.27563 0.0425,0.0638 0.0425,0.12757 0.32954,0.75475 0.42521,1.27563 l 0.085,0.12756 0.0425,0.17009 0.0425,0.17008 0.0425,0.12757 0.0425,0.17008 q 0.0425,0.0638 0.0425,0.12756 0.0425,0.0638 0.0425,0.12757 0.0425,0.0638 0.0425,0.12756 l 0.085,0.12756 v 0.12757 q 0.0425,0.0638 0.0425,0.12756 0.1063,0.17008 0.12757,0.34017 0.13819,0.31891 0.17008,0.51025 l 0.085,0.25513 h -0.25512 -0.17009 -0.76538 -0.46773 -0.17009 -0.17008 -0.17008 -0.17009 -0.72286 -0.12756 -0.51025 l -0.0851,-0.25513 v -0.17008 l -0.085,-0.12757 v -0.12756 q -0.12756,-0.23386 -0.12756,-0.42521 l -0.085,-0.12756 v -0.12757 l -0.0425,-0.17008 -0.12757,-0.29765 -0.29765,-1.06303 h -0.76537 -0.85043 -0.29764 -0.25513 -0.21261 -0.25512 -0.17009 -0.76538 -0.46773 -0.17008 -0.17009 -0.17008 -0.17009 -0.72285 -0.12757 -0.51025 l -0.0425,0.21261 -0.0425,0.21261 -0.0851,0.17008 q -0.0531,0.23387 -0.12756,0.42521 l -0.0425,0.21261 -0.0425,0.085 -0.12756,0.42521 -0.0425,0.17008 -0.0425,0.12757 q -0.0744,0.22323 -0.12756,0.34017 l -0.12756,0.51025 h -0.17009 -0.17008 -0.12757 -0.85042 -0.12756 -0.76538 -0.12756 -1.31816 l 0.085,-0.34017 0.12757,-0.42521 0.0425,-0.12756 0.0425,-0.12757 0.0425,-0.12756 0.0425,-0.085 0.21261,-0.68034 0.0425,-0.12756 0.0425,-0.12757 0.0425,-0.17008 0.085,-0.17009 0.12757,-0.46773 0.0425,-0.12756 0.0425,-0.12756 0.0425,-0.12757 0.0425,-0.085 q 0.12756,-0.48899 0.25513,-0.76538 l 0.085,-0.29765 0.0425,-0.085 q 0.12756,-0.48899 0.25513,-0.76538 0.0532,-0.2126 0.12756,-0.34017 l 0.085,-0.34017 0.12757,-0.29764 0.085,-0.34017 0.0425,-0.0851 q 0.12756,-0.48899 0.25513,-0.76537 l 0.085,-0.34017 0.34017,-0.93547 0.085,-0.29765 0.0425,-0.12756 0.0425,-0.12756 q 0.12756,-0.40395 0.25513,-0.68034 l 0.085,-0.25513 0.0425,-0.12756 v -0.12756 l 0.0425,-0.12757 0.29765,-0.76538 0.0425,-0.25512 0.085,-0.21261 0.0851,-0.17008 q 0.085,-0.40395 0.2126,-0.68034 l 0.0425,-0.2126 0.0425,-0.12757 0.0425,-0.085 q 0.12757,-0.48899 0.25513,-0.76538 l 0.0425,-0.17008 0.0425,-0.17009 q 0.11694,-0.24449 0.17009,-0.46773 l 0.12756,-0.42521 0.0425,-0.12756 0.34017,-0.97799 z m 1.82841,3.74186 -0.12757,0.46773 -0.0425,0.085 -0.2126,0.76538 -0.25513,0.72286 -0.0425,0.085 -0.25513,0.93546 -0.0425,0.17009 -0.25513,0.72286 -0.085,0.2126 q -0.0425,0.34017 -0.17008,0.5953 -0.0319,0.24449 -0.12757,0.46773 l -0.0425,0.17008 q -0.085,0.25513 -0.17008,0.42522 l -0.25513,0.93546 h 0.12756 0.17009 0.17008 0.17009 0.17008 0.72286 0.12756 0.51026 0.17008 0.46773 0.21261 0.12756 0.17009 0.12756 0.85042 l -0.085,-0.34017 -0.25513,-0.8079 -0.2126,-0.72286 q -0.15946,-0.40395 -0.21261,-0.68034 l -0.0425,-0.085 q -0.085,-0.30828 -0.17008,-0.51025 l -0.0425,-0.17009 -0.0425,-0.17008 -0.085,-0.21261 -0.0425,-0.25512 -0.0425,-0.17009 -0.085,-0.12756 -0.0425,-0.25513 -0.0425,-0.17008 q -0.0638,-0.12756 -0.085,-0.25513 l -0.0425,-0.17008 q -0.15945,-0.31891 -0.2126,-0.5953 l -0.0425,-0.12756 -0.0425,-0.085 -0.0851,-0.38269 -0.0425,-0.12757 -0.2126,-0.55277 z m -17.15726,-4.12455 q 5.27261,-0.21261 7.35614,4.08203 l -0.2126,0.085 -0.17009,0.085 q -0.29764,0.18071 -0.55277,0.25513 l -0.17008,0.085 q -0.25513,0.15945 -0.46774,0.2126 l -0.085,0.0851 -0.51025,0.2126 -0.12756,0.0425 -0.25513,0.17009 q -0.34017,0.12756 -0.55278,0.25512 -1.04176,-2.04101 -3.06151,-2.29614 -2.27488,-0.20197 -3.57178,1.4032 l -0.085,0.085 -0.29765,0.38269 q -1.14807,2.90207 -0.38269,5.57027 0.91421,3.43357 4.54976,3.06151 2.32803,-0.58466 2.89144,-2.67882 0.11693,-0.55278 0.085,-0.93547 h -0.55278 -1.31815 -0.5953 -0.12756 -0.2126 -0.12757 -0.17008 -0.12757 -0.85042 v -0.17008 -0.72286 -0.46773 -0.17009 -0.72286 -0.12756 -0.51025 h 0.17009 0.76538 0.72286 0.12756 0.51025 0.55278 0.17008 0.72286 0.12756 0.51026 0.46773 0.2126 0.55278 0.17008 0.72286 0.12756 0.51026 v 9.39716 h -0.21261 -0.17008 -0.72286 -0.46773 -0.17009 -0.72286 -0.12756 -0.51025 v -0.12756 -0.17009 -0.76538 q -1.80715,1.6158 -3.99699,1.4032 l -0.085,0.0425 q -1.38193,-0.0213 -2.4237,-0.51025 -4.01824,-1.70085 -4.71984,-5.99548 -0.76538,-4.3903 1.53076,-7.56875 2.11542,-2.78513 5.35766,-2.97648 z m -25.66148,0.34017 h 0.59529 0.21261 0.17008 0.76538 0.17009 0.17008 0.17008 0.72286 0.12757 0.51025 l 0.17008,0.29765 0.17009,0.25512 0.17008,0.25513 0.17009,0.25513 0.17008,0.25512 0.12756,0.12757 0.0425,0.12756 q 0.0531,0.0425 0.0425,0.085 0.30827,0.32954 0.42521,0.63782 0.30828,0.32954 0.42521,0.63781 l 0.17008,0.21261 0.17009,0.25513 q 0.11693,0.19134 0.2126,0.29764 l 0.0425,0.12757 q 0.15946,0.17008 0.21261,0.34017 0.42521,0.47836 0.59529,0.89294 l 0.17009,0.25513 q 0.0532,0.0425 0.0425,0.085 0.31891,0.36143 0.46773,0.63781 l 0.17009,0.25513 0.12756,0.25513 0.17008,0.25512 0.17009,0.17009 0.12756,0.2126 0.085,0.21261 q 0.27639,0.27639 0.38269,0.55277 l 0.12757,0.17009 0.085,0.17008 0.12756,0.12757 q 0.20198,0.29764 0.29765,0.51025 l 0.12756,0.12756 0.0851,0.12756 0.0425,0.12757 0.085,0.0425 q 0.13819,0.30828 0.29765,0.46773 l 0.0425,0.12756 q 0.0531,0.0425 0.0425,0.085 0.39332,0.43584 0.55277,0.8079 l 0.0425,-0.29765 v -0.29765 -0.34017 -0.17008 -0.76538 -0.46773 -0.17009 -0.17008 -0.17009 -0.17008 -0.72286 -0.12756 -0.51025 -0.25513 -0.72286 -0.12756 -0.51026 -0.55277 -0.17009 -0.72285 -0.12757 -0.51025 -0.46773 -0.21261 -0.55277 -0.17009 -0.72285 -0.12757 -0.51025 h 0.55278 0.17008 0.76538 0.17009 0.17008 0.17009 0.72285 0.12757 0.51025 v 16.24306 h -0.12756 -0.51026 -0.42521 -0.29764 -0.25513 -0.21261 -0.17008 -0.17009 -0.17008 -0.12756 -0.12757 -0.12756 -0.085 0.085 -0.085 -0.34017 -0.12756 -0.55278 l -0.0425,-0.085 q -0.14882,-0.19134 -0.2126,-0.34016 -0.0532,-0.0425 -0.0425,-0.085 -0.39332,-0.43584 -0.55277,-0.8079 -0.0532,-0.0425 -0.0425,-0.085 l -0.17009,-0.25513 q -0.22323,-0.25512 -0.34016,-0.51025 l -0.21261,-0.25513 -0.17008,-0.29764 -0.17009,-0.29765 q -0.28702,-0.31891 -0.42521,-0.5953 l -0.085,-0.085 q -0.17009,-0.37206 -0.38269,-0.59529 l -0.0425,-0.0851 -0.085,-0.12756 -0.38269,-0.59529 q -0.14883,-0.19135 -0.21261,-0.34017 -0.0531,-0.0425 -0.0425,-0.085 l -0.085,-0.0425 -0.17009,-0.29764 -0.0425,-0.085 q -0.14882,-0.19134 -0.2126,-0.34017 -0.0957,-0.1063 -0.12757,-0.2126 l -0.17008,-0.17009 -0.17009,-0.25512 -0.085,-0.21261 -0.085,-0.0425 -0.17008,-0.29765 -0.38269,-0.55277 -0.085,-0.17008 -0.085,-0.17009 -0.12756,-0.12756 -0.085,-0.12757 -0.0425,-0.12756 q -0.2126,-0.23386 -0.34016,-0.42521 l -0.0851,-0.17008 q -0.18071,-0.2445 -0.25512,-0.42521 -0.0744,-0.0425 -0.0851,-0.0851 l -0.085,-0.085 -0.0425,-0.085 -0.17008,-0.29765 -0.38269,-0.55277 v 10.8854 h -0.55278 -0.17008 -0.76538 -0.17009 -0.17008 -0.17008 -0.72286 -0.12757 -0.51025 v -0.12757 -0.17008 -0.12756 -0.17009 -0.76538 -0.34017 -0.34017 -0.12756 -0.85042 -0.17009 -0.2126 -0.17009 -0.2126 -0.55278 -0.17008 -0.72286 -0.12756 -0.51025 -0.17009 -0.2126 -0.55278 -0.17008 -0.72286 -0.12756 -0.51026 -0.29765 -0.34016 -0.34017 -0.34017 -0.12756 -0.12757 -1.31815 -0.29765 -0.25513 -0.29764 -0.25513 -0.21261 -0.25512 -0.17009 -0.76538 -0.46773 -0.17008 -0.17009 -0.17008 -0.17009 -0.72285 -0.12757 -0.51025 z m -12.79885,0.0425 h 0.55277 1.31816 0.59529 0.12757 0.2126 0.12756 0.17009 0.12756 0.85042 v 0.12756 q 0.18072,0.38269 0.25513,0.68034 l 0.085,0.29765 0.0425,0.17008 q 0.0425,0.0638 0.0425,0.12757 0.0425,0.0638 0.0425,0.12756 0.0425,0.0638 0.0425,0.12756 0.1063,0.17009 0.12756,0.34017 l 0.25513,0.68034 v 0.12756 q 0.20197,0.39332 0.25512,0.72286 0.20198,0.46773 0.25513,0.8079 0.0638,0.12756 0.085,0.25513 l 0.085,0.17008 q 0.0638,0.21261 0.12757,0.34017 v 0.12756 q 0.0425,0.0638 0.0425,0.12757 0.1063,0.17008 0.12756,0.34017 l 0.25513,0.68033 0.0425,0.17009 0.0425,0.085 0.085,0.38269 0.085,0.17008 0.0851,0.21261 0.0425,0.12756 0.0425,0.17009 0.085,0.25512 q 0.0638,0.21261 0.12756,0.34017 v 0.12757 q 0.0425,0.0638 0.0425,0.12756 0.1063,0.17008 0.12756,0.34017 l 0.25513,0.68034 0.0425,0.25512 0.12756,0.25513 0.085,0.25513 v 0.12756 l 0.085,0.12756 0.0425,0.17009 0.0425,0.2126 q 0.32953,0.75475 0.42521,1.27563 0.0425,0.0638 0.0425,0.12757 0.32954,0.75475 0.42521,1.27563 l 0.085,0.12756 0.0425,0.17009 0.0425,0.17008 0.0425,0.12757 0.0425,0.17008 q 0.0425,0.0638 0.0425,0.12756 0.0425,0.0638 0.0425,0.12757 0.0425,0.0638 0.0425,0.12756 l 0.085,0.12756 v 0.12757 q 0.0425,0.0638 0.0425,0.12756 0.10631,0.17008 0.12757,0.34017 0.13819,0.31891 0.17008,0.51025 l 0.085,0.25513 h -0.25512 -0.17009 -0.76538 -0.46773 -0.17008 -0.17009 -0.17008 -0.17009 -0.72286 -0.12756 -0.51025 l -0.0851,-0.25513 v -0.17008 l -0.085,-0.12757 v -0.12756 q -0.12756,-0.23386 -0.12756,-0.42521 l -0.085,-0.12756 v -0.12757 l -0.0425,-0.17008 -0.12757,-0.29765 -0.29764,-1.06303 h -0.76538 -0.85043 -0.29764 -0.25513 -0.21261 -0.25512 -0.17009 -0.76538 -0.46773 -0.17008 -0.17009 -0.17008 -0.17009 -0.72285 -0.12757 -0.51025 l -0.0425,0.21261 -0.0425,0.21261 -0.0851,0.17008 q -0.0532,0.23387 -0.12756,0.42521 l -0.0425,0.21261 -0.0425,0.085 -0.12756,0.42521 -0.0425,0.17008 -0.0425,0.12757 q -0.0744,0.22323 -0.12756,0.34017 l -0.12756,0.51025 h -0.17009 -0.17008 -0.12757 -0.85042 -0.12756 -0.76538 -0.12756 -1.31816 l 0.0851,-0.34017 0.12756,-0.42521 0.0425,-0.12756 0.0425,-0.12757 0.0425,-0.12756 0.0425,-0.085 0.21261,-0.68034 0.0425,-0.12756 0.0425,-0.12757 0.0425,-0.17008 0.085,-0.17009 0.12757,-0.46773 0.0425,-0.12756 0.0425,-0.12756 0.0425,-0.12757 0.0425,-0.085 q 0.12756,-0.48899 0.25513,-0.76538 l 0.085,-0.29765 0.0425,-0.085 q 0.12756,-0.48899 0.25513,-0.76538 0.0532,-0.2126 0.12756,-0.34017 l 0.085,-0.34017 0.12757,-0.29764 0.085,-0.34017 0.0425,-0.0851 q 0.12756,-0.48899 0.25513,-0.76537 l 0.085,-0.34017 0.34017,-0.93547 0.085,-0.29765 0.0425,-0.12756 0.0425,-0.12756 q 0.12756,-0.40395 0.25513,-0.68034 l 0.085,-0.25513 0.0425,-0.12756 v -0.12756 l 0.0425,-0.12757 0.29765,-0.76538 0.0425,-0.25512 0.085,-0.21261 0.0851,-0.17008 q 0.085,-0.40395 0.2126,-0.68034 l 0.0425,-0.2126 0.0425,-0.12757 0.0425,-0.085 q 0.12757,-0.48899 0.25513,-0.76538 l 0.0425,-0.17008 0.0425,-0.17009 q 0.11694,-0.24449 0.17009,-0.46773 l 0.12756,-0.42521 0.0425,-0.12756 0.34017,-0.97799 z m 1.82841,3.74186 -0.12757,0.46773 -0.0425,0.085 -0.2126,0.76538 -0.25513,0.72286 -0.0425,0.085 -0.25513,0.93546 -0.0425,0.17009 -0.25513,0.72286 -0.085,0.2126 q -0.0425,0.34017 -0.17008,0.5953 -0.0319,0.24449 -0.12757,0.46773 l -0.0425,0.17008 q -0.085,0.25513 -0.17008,0.42522 l -0.25513,0.93546 h 0.12757 0.17008 0.17008 0.17009 0.17008 0.72286 0.12756 0.51026 0.17008 0.46773 0.21261 0.12756 0.17009 0.12756 0.85042 l -0.085,-0.34017 -0.25513,-0.8079 -0.2126,-0.72286 q -0.15946,-0.40395 -0.21261,-0.68034 l -0.0425,-0.085 q -0.085,-0.30828 -0.17008,-0.51025 l -0.0425,-0.17009 -0.0425,-0.17008 -0.085,-0.21261 -0.0425,-0.25512 -0.0425,-0.17009 -0.085,-0.12756 -0.0425,-0.25513 -0.0425,-0.17008 q -0.0638,-0.12756 -0.0851,-0.25513 l -0.0425,-0.17008 q -0.15945,-0.31891 -0.2126,-0.5953 l -0.0425,-0.12756 -0.0425,-0.085 -0.0851,-0.38269 -0.0425,-0.12757 -0.2126,-0.55277 z m -21.04795,-3.78438 h 0.17009 0.12756 0.17009 0.76538 0.17008 0.76538 0.25513 0.29764 0.85043 0.34016 0.34017 0.34017 0.34017 0.85042 0.12757 0.12756 1.31815 0.29765 0.25513 0.29764 0.25513 0.21261 0.25512 0.17009 0.76538 0.46773 0.17008 0.17009 0.17008 0.17009 0.72286 0.12756 0.51025 v 3.2316 h -0.25512 -0.12757 -0.85042 -0.55277 -0.17009 -0.76538 -0.17008 -0.17009 -0.17008 -0.72286 -0.12756 -0.51026 v 13.05398 h -0.55277 -0.17008 -0.76538 -0.17009 -0.17008 -0.17009 -0.72286 -0.12756 -0.51025 v -0.29765 -0.12756 -0.21261 -0.12756 -0.17009 -0.12756 -0.85042 -0.17009 -0.76538 -0.25512 -0.29765 -0.85042 -0.34017 -0.34017 -0.34017 -0.34017 -0.85042 -0.12756 -0.12757 -1.31815 -0.29765 -0.25512 -0.29765 -0.25513 -0.2126 -0.25513 -0.17008 -0.76538 -0.46774 -0.17008 -0.17008 -0.17009 -0.17008 -0.72286 -0.12756 -0.51026 h -0.25513 -0.12756 -0.85042 -0.55278 -0.17008 -0.76538 -0.17009 -0.17008 -0.17009 -0.72285 -0.12757 -0.51025 v -0.85042 -0.21261 -0.12756 -0.17008 -0.17009 -0.17008 -0.17009 -0.72285 -0.12757 -0.51025 z" />
      </g>
    </g>
    <g
       aria-label="GAZIPUR"
       transform="matrix(0.52633234,0,0,0.52633234,-520.18134,228.8955)"
       id="text12642"
       style="font-size:22.7721px;line-height:84.42%;font-family:'Highway Gothic Expanded';-inkscape-font-specification:'Highway Gothic Expanded, Normal';text-align:end;text-anchor:end;fill:#ffffff;fill-opacity:1;stroke-width:0.502693">
      <path
         id="path12671"
         style="font-style:normal;font-variant:normal;font-weight:normal;font-stretch:normal;font-family:'Transport Heavy';-inkscape-font-specification:'Transport Heavy, ';fill:#ffffff;fill-opacity:1;stroke-width:0.502693"
         d="m 771.89151,-370.10967 h 0.35582 0.88953 0.13343 0.13343 1.37878 0.31134 0.13343 0.5782 0.7561 0.17791 0.17791 0.80058 0.62267 0.13343 0.13343 0.13343 0.31134 0.17791 0.13343 0.13343 q 0.32245,0.0556 0.53372,0.0445 l 0.53372,0.089 0.0889,0.0445 h 0.13343 l 0.089,0.0445 0.66715,0.22238 q 2.04593,1.07856 2.71308,2.97995 1.31207,4.69229 -3.0689,6.71599 l 0.089,0.0445 q 0.21126,0.43365 0.40029,0.71163 l 0.13343,0.26686 q 0.0889,0.14455 0.13343,0.26686 l 0.17791,0.26686 q 0.26686,0.40029 0.40029,0.71163 0.26686,0.33358 0.35581,0.62268 0.27798,0.35581 0.40029,0.62267 0.15567,0.25574 0.22239,0.44477 l 0.0889,0.13343 0.089,0.17791 0.13343,0.13343 0.31134,0.57819 q 0.14455,0.23351 0.22238,0.40029 l 0.089,0.13343 0.0445,0.089 0.089,0.0889 0.0445,0.13343 q 0.41141,0.61156 0.57819,1.06744 h -0.31133 -0.62268 -0.13343 -0.80058 -0.5782 -0.17791 -0.7561 -0.13343 -0.53372 l -0.0445,-0.089 -0.089,-0.0889 -0.0445,-0.089 -0.31134,-0.53372 -0.0445,-0.13343 q -0.21127,-0.25574 -0.26686,-0.48924 -0.26686,-0.27798 -0.35582,-0.5782 -0.26686,-0.33358 -0.35581,-0.62267 l -0.13343,-0.17791 -0.13343,-0.26686 -0.089,-0.17791 q -0.27798,-0.33357 -0.40029,-0.5782 -0.15567,-0.34469 -0.31133,-0.57819 l -0.0445,-0.13344 q -0.25574,-0.27798 -0.35581,-0.57819 l -0.089,-0.13343 -0.0445,-0.13343 -0.089,-0.0445 -0.13343,-0.31134 q -0.0556,-0.0445 -0.0445,-0.0889 -0.33357,-0.43365 -0.48924,-0.80058 h -0.17791 -0.48924 -0.22239 -0.13343 -0.1779 -0.13343 -0.88954 v 6.62703 h -0.5782 -0.1779 -0.80058 -0.17791 -0.17791 -0.17791 -0.7561 -0.13343 -0.53372 v -0.1779 -0.80058 -0.35582 -0.35581 -0.13343 -0.17791 -0.80058 -0.13343 -0.88954 -0.35581 -0.17791 -0.80058 -0.13343 -0.13343 -1.37878 -0.31134 -0.13343 -0.1779 -0.80059 -0.62267 -0.13343 -0.22238 -0.13344 -0.1779 -0.13343 -0.88954 -0.7561 -0.13343 -0.53372 -0.5782 -0.17791 -0.7561 -0.13343 -0.53373 -0.48924 -0.22238 -0.5782 -0.17791 -0.7561 -0.13343 -0.53372 z m 3.15785,7.20523 h 0.22239 0.31133 0.62268 0.13343 0.80058 0.5782 0.1779 0.75611 0.13343 0.53372 l 0.53372,-0.13343 q 1.32319,-0.82282 1.1564,-2.22384 -0.32246,-1.00072 -1.1564,-1.46773 h -0.13343 l -0.089,-0.0445 -0.5782,-0.13343 h -0.22238 -0.62268 -0.22238 -0.17791 -0.80058 -0.17791 -0.1779 -0.17791 -0.75611 -0.13343 -0.53372 z m -21.8492,-7.0718 h 0.22238 0.17791 0.7561 0.48925 0.1779 0.75611 0.35581 0.31134 l 0.0445,10.71889 0.26686,0.97849 q 1.12303,1.9681 3.15785,2.09041 2.19048,-0.16679 3.20232,-1.9125 v -0.13343 q 0.33358,-0.67827 0.35582,-1.3343 0.0667,-0.51149 0.0445,-0.88954 v -0.35581 -0.35582 -0.62267 -0.13343 -0.22238 -0.13343 -0.17791 -0.13343 -0.88954 -0.7561 -0.13343 -0.53372 -0.5782 -0.17791 -0.7561 -0.13343 -0.53372 -0.48925 -0.22238 -0.5782 -0.17791 -0.7561 -0.13343 -0.53372 h 0.17791 0.17791 0.13343 0.80058 0.5782 0.1779 0.75611 0.13343 0.53372 v 10.94128 q -0.0445,0.21126 -0.0445,0.35581 l -0.0445,0.089 q -0.0556,0.58931 -0.17791,0.97848 -1.02297,2.79092 -3.33576,4.04739 -2.84651,1.48997 -5.60407,0.53372 -5.54847,-2.11265 -4.84796,-8.89535 v -0.62268 -0.48924 -0.22238 -0.13343 -0.17791 -0.13343 -0.88954 -0.26686 -0.31133 -0.26686 -0.31134 -0.5782 -1.37878 -0.62267 -0.13343 -0.22239 -0.13343 -0.17791 -0.13343 -0.88953 z m -16.35634,-0.13343 h 0.35582 0.13343 0.13343 1.37878 0.31133 0.26687 0.31133 0.26686 0.22239 0.26686 0.1779 0.80059 0.48924 0.17791 0.1779 0.17791 0.17791 0.7561 0.13343 0.53372 0.13344 l 0.0889,0.0445 h 0.13343 l 0.31134,0.0445 0.13343,0.0445 0.62267,0.13343 q 4.1697,2.00145 3.51367,6.3157 -1.48998,5.1037 -6.80495,4.44767 h -0.17791 -0.48924 -0.22238 -0.13343 -0.17791 -0.13343 -0.88954 v 5.95989 h -0.57819 -0.17791 -0.80058 -0.17791 -0.17791 -0.1779 -0.75611 -0.13343 -0.53372 v -0.13343 -0.17791 -0.13343 -0.17791 -0.80058 -0.35581 -0.35582 -0.13343 -0.88953 -0.17791 -0.22238 -0.17791 -0.22238 -0.5782 -0.17791 -0.7561 -0.13343 -0.53373 -0.1779 -0.22239 -0.57819 -0.17791 -0.75611 -0.13343 -0.53372 -0.31133 -0.35582 -0.35581 -0.35582 -0.13343 -0.13343 -1.37878 -0.31133 -0.26686 -0.31134 -0.26686 -0.22239 -0.26686 -0.1779 -0.80059 -0.48924 -0.17791 -0.1779 -0.17791 -0.17791 -0.7561 -0.13343 -0.53372 z m 3.15785,7.82791 h 0.17791 0.17791 0.1779 0.48925 0.48924 0.80058 0.13343 0.13344 0.1779 0.80058 0.17791 q 0.27798,-0.1112 0.48925,-0.13344 1.8569,-1.10079 1.24534,-3.02441 -0.41141,-0.95626 -1.28982,-1.33431 h -0.13343 q -0.68939,-0.20014 -1.24535,-0.13343 h -0.22238 -0.17791 -0.22239 -0.57819 -0.17791 -0.75611 -0.13343 -0.53372 z m -11.78634,-7.73896 h 0.17791 0.80058 0.17791 0.17791 0.1779 0.75611 0.13343 0.53372 v 16.99012 h -0.5782 -0.17791 -0.80058 -0.1779 -0.17791 -0.17791 -0.7561 -0.13343 -0.53373 v -0.13343 -0.17791 -0.13343 -0.1779 -0.80059 -0.35581 -0.35581 -0.13343 -0.88954 -0.17791 -0.22238 -0.17791 -0.22238 -0.5782 -0.17791 -0.7561 -0.13343 -0.53372 -0.17791 -0.22238 -0.5782 -0.17791 -0.7561 -0.13343 -0.53372 -0.31134 -0.35582 -0.35581 -0.35581 -0.13343 -0.13343 -1.37878 -0.31134 -0.26686 -0.31134 -0.26686 -0.22238 -0.26686 -0.17791 -0.80058 -0.48925 -0.1779 -0.17791 -0.17791 -0.1779 -0.75611 -0.13343 -0.53372 z m -16.32297,0 h 0.88954 0.26686 0.31133 0.88954 0.35581 0.35582 0.35581 0.35582 0.88953 0.13343 0.13343 1.37878 0.31134 0.26686 0.31134 0.26686 0.22238 0.26686 0.17791 0.80058 0.48924 0.17791 0.17791 0.17791 0.1779 0.75611 0.13343 0.53372 v 3.55814 l -0.22238,0.22238 -0.17791,0.22239 -0.17791,0.31133 -0.17791,0.22239 -0.22238,0.26686 q -0.0445,0.0778 -0.089,0.0889 l -0.0445,0.13343 -0.0889,0.0445 -0.0445,0.13343 -0.13343,0.089 q -0.22238,0.42253 -0.53372,0.71163 l -0.17791,0.31134 q -0.15567,0.14455 -0.22238,0.26686 l -0.22239,0.26686 -0.1779,0.26686 -0.22239,0.26686 q -0.24462,0.36693 -0.44476,0.5782 l -0.089,0.17791 -0.0889,0.0889 -0.089,0.13343 -0.35581,0.40029 -0.0445,0.089 -0.0445,0.089 q -0.17791,0.18902 -0.26686,0.35581 l -0.22239,0.22239 -0.13343,0.1779 -0.13343,0.22239 -0.13343,0.1779 -0.17791,0.22239 -0.13343,0.1779 -0.26686,0.35582 q -0.15566,0.20014 -0.26686,0.31134 l -0.13343,0.22238 -0.13343,0.13343 -0.089,0.17791 -0.17791,0.1779 -0.0889,0.13343 q -0.15567,0.24463 -0.31134,0.40029 l -0.0889,0.17791 -0.089,0.0445 -0.0445,0.13343 -0.089,0.0445 -0.0445,0.089 -0.44477,0.5782 h 0.35581 0.17791 0.80058 0.75611 0.13343 0.53372 0.5782 0.1779 0.75611 0.13343 0.53372 0.48924 0.22239 0.5782 0.1779 0.75611 0.13343 0.53372 v 3.15785 q 0.0667,0.31133 -0.17791,0.35581 h -0.31133 -0.31134 -0.31134 -0.13343 -0.13343 -0.5782 -0.13343 -0.22238 -0.13343 -0.17791 -0.13343 -0.88953 -0.35582 -0.62267 -0.13343 -0.22239 -0.13343 -0.1779 -0.13344 -0.88953 -0.75611 -0.13343 -0.53372 -0.1779 -0.13343 -0.88954 -0.17791 -0.13343 -0.80058 -0.5782 -0.1779 -0.75611 -0.13343 -0.53372 v -0.13343 -0.5782 -0.7561 -0.48925 -0.1779 -0.75611 -0.13343 -0.53372 l 0.22238,-0.22238 0.17791,-0.31134 0.13343,-0.17791 0.089,-0.13343 0.089,-0.0445 0.0445,-0.13344 0.0889,-0.089 0.0889,-0.0889 q 0.25574,-0.38917 0.48925,-0.62268 l 0.1779,-0.31133 0.089,-0.0445 q 0.27798,-0.44477 0.53372,-0.71163 l 0.0889,-0.17791 0.089,-0.089 0.0889,-0.13343 0.089,-0.089 q 0.0445,-0.0778 0.089,-0.089 l 0.53372,-0.7561 0.22238,-0.22239 0.0445,-0.13343 0.13343,-0.089 0.0445,-0.089 0.1779,-0.26686 0.48925,-0.62268 0.1779,-0.26686 0.13343,-0.17791 0.44477,-0.53372 0.0445,-0.13343 0.0889,-0.0445 0.0445,-0.089 0.35581,-0.48924 q 0.17791,-0.18903 0.26686,-0.35582 0.20015,-0.2335 0.31134,-0.40029 l 0.0889,-0.13343 0.13343,-0.1779 0.13343,-0.089 0.0445,-0.13343 0.089,-0.089 0.089,-0.13343 0.0445,-0.089 0.089,-0.0445 0.0889,-0.17791 0.089,-0.089 0.0445,-0.089 0.089,-0.0445 q 0.16678,-0.31134 0.31133,-0.48925 h -0.31133 -0.62268 -0.13343 -0.22238 -0.13343 -0.17791 -0.13343 -0.88954 -0.57819 -0.31134 -0.62268 -0.13343 -0.80058 -0.5782 -0.1779 -0.75611 -0.13343 -0.53372 v -0.57819 -0.17791 -0.80058 -0.17791 -0.17791 -0.1779 -0.75611 -0.13343 -0.53372 z m -11.78634,-0.0445 h 0.5782 1.37878 0.62267 0.13343 0.22239 0.13343 0.1779 0.13343 0.88954 v 0.13343 q 0.18903,0.40029 0.26686,0.71163 l 0.0889,0.31134 0.0445,0.17791 q 0.0445,0.0667 0.0445,0.13343 0.0445,0.0667 0.0445,0.13343 0.0445,0.0667 0.0445,0.13343 0.11119,0.1779 0.13343,0.35581 l 0.26686,0.71163 v 0.13343 q 0.21127,0.41141 0.26686,0.7561 0.21127,0.48925 0.26686,0.84506 0.0667,0.13343 0.089,0.26686 l 0.0889,0.17791 q 0.0667,0.22238 0.13343,0.35581 v 0.13343 q 0.0445,0.0667 0.0445,0.13343 0.11119,0.17791 0.13343,0.35582 l 0.26686,0.71163 0.0445,0.1779 0.0445,0.089 0.0889,0.40029 0.089,0.1779 0.0889,0.22239 0.0445,0.13343 0.0445,0.17791 0.089,0.26686 q 0.0667,0.22238 0.13343,0.35581 v 0.13343 q 0.0445,0.0667 0.0445,0.13343 0.11119,0.17791 0.13343,0.35581 l 0.26686,0.71163 0.0445,0.26686 0.13343,0.26686 0.089,0.26686 v 0.13343 l 0.0889,0.13344 0.0445,0.1779 0.0445,0.22239 q 0.3447,0.78946 0.44477,1.3343 0.0445,0.0667 0.0445,0.13343 0.34469,0.78946 0.44477,1.3343 l 0.0889,0.13343 0.0445,0.17791 0.0445,0.17791 0.0445,0.13343 0.0445,0.1779 q 0.0445,0.0667 0.0445,0.13343 0.0445,0.0667 0.0445,0.13343 0.0445,0.0667 0.0445,0.13343 l 0.0889,0.13343 v 0.13343 q 0.0445,0.0667 0.0445,0.13344 0.11119,0.1779 0.13343,0.35581 0.14455,0.33357 0.1779,0.53372 l 0.089,0.26686 h -0.26686 -0.17791 -0.80058 -0.48925 -0.1779 -0.17791 -0.17791 -0.1779 -0.75611 -0.13343 -0.53372 l -0.0889,-0.26686 v -0.17791 l -0.089,-0.13343 v -0.13343 q -0.13343,-0.24462 -0.13343,-0.44476 l -0.089,-0.13344 v -0.13343 l -0.0445,-0.1779 -0.13343,-0.31134 -0.31134,-1.11192 h -0.80058 -0.88953 -0.31134 -0.26686 -0.22238 -0.26686 -0.17791 -0.80058 -0.48925 -0.1779 -0.17791 -0.17791 -0.17791 -0.7561 -0.13343 -0.53372 l -0.0445,0.22239 -0.0445,0.22238 -0.0889,0.17791 q -0.0556,0.24462 -0.13343,0.44476 l -0.0445,0.22239 -0.0445,0.089 -0.13343,0.44477 -0.0445,0.17791 -0.0445,0.13343 q -0.0778,0.2335 -0.13343,0.35581 l -0.13343,0.53372 h -0.1779 -0.17791 -0.13343 -0.88954 -0.13343 -0.80058 -0.13343 -1.37878 l 0.089,-0.35581 0.13343,-0.44477 0.0445,-0.13343 0.0445,-0.13343 0.0445,-0.13343 0.0445,-0.089 0.22239,-0.71162 0.0445,-0.13343 0.0445,-0.13343 0.0445,-0.17791 0.0889,-0.17791 0.13343,-0.48924 0.0445,-0.13343 0.0445,-0.13343 0.0445,-0.13343 0.0445,-0.089 q 0.13343,-0.51148 0.26686,-0.80058 l 0.0889,-0.31134 0.0445,-0.089 q 0.13343,-0.51148 0.26686,-0.80058 0.0556,-0.22238 0.13343,-0.35581 l 0.0889,-0.35582 0.13343,-0.31134 0.089,-0.35581 0.0445,-0.089 q 0.13343,-0.51149 0.26686,-0.80059 l 0.089,-0.35581 0.35581,-0.97849 0.089,-0.31134 0.0445,-0.13343 0.0445,-0.13343 q 0.13343,-0.42253 0.26686,-0.71162 l 0.0889,-0.26686 0.0445,-0.13343 v -0.13344 l 0.0445,-0.13343 0.31133,-0.80058 0.0445,-0.26686 0.0889,-0.22238 0.089,-0.17791 q 0.0889,-0.42253 0.22238,-0.71163 l 0.0445,-0.22238 0.0445,-0.13343 0.0445,-0.089 q 0.13343,-0.51149 0.26686,-0.80059 l 0.0445,-0.1779 0.0445,-0.17791 q 0.12232,-0.25574 0.17791,-0.48924 l 0.13343,-0.44477 0.0445,-0.13343 0.35581,-1.02297 z m 1.9125,3.91396 -0.13343,0.48924 -0.0445,0.0889 -0.22238,0.80059 -0.26686,0.7561 -0.0445,0.089 -0.26686,0.97848 -0.0445,0.17791 -0.26686,0.75611 -0.089,0.22238 q -0.0445,0.35581 -0.17791,0.62267 -0.0333,0.25575 -0.13343,0.48925 l -0.0445,0.17791 q -0.089,0.26686 -0.17791,0.44476 l -0.26686,0.97849 h 0.13343 0.17791 0.1779 0.17791 0.17791 0.7561 0.13343 0.53372 0.17791 0.48925 0.22238 0.13343 0.17791 0.13343 0.88953 l -0.089,-0.35581 -0.26686,-0.84506 -0.22239,-0.75611 q -0.16678,-0.42252 -0.22238,-0.71162 l -0.0445,-0.089 q -0.089,-0.32245 -0.1779,-0.53372 l -0.0445,-0.17791 -0.0445,-0.1779 -0.0889,-0.22239 -0.0445,-0.26686 -0.0445,-0.1779 -0.089,-0.13343 -0.0445,-0.26686 -0.0445,-0.17791 q -0.0667,-0.13343 -0.0889,-0.26686 l -0.0445,-0.17791 q -0.16679,-0.33358 -0.22238,-0.62267 l -0.0445,-0.13343 -0.0445,-0.089 -0.0889,-0.40029 -0.0445,-0.13343 -0.22238,-0.5782 z m -17.94637,-4.31425 q 5.51512,-0.22238 7.69448,4.26977 l -0.22238,0.089 -0.17791,0.089 q -0.31134,0.18902 -0.5782,0.26686 l -0.17791,0.089 q -0.26686,0.16679 -0.48924,0.22239 l -0.0889,0.089 -0.53373,0.22238 -0.13343,0.0445 -0.26686,0.17791 q -0.35581,0.13343 -0.57819,0.26686 -1.08968,-2.13489 -3.20233,-2.40175 -2.37951,-0.21126 -3.73605,1.46773 l -0.089,0.089 -0.31134,0.40029 q -1.20087,3.03554 -0.40029,5.82645 0.95625,3.5915 4.75901,3.20233 2.43511,-0.61155 3.02442,-2.80203 0.12231,-0.5782 0.089,-0.97849 h -0.5782 -1.37878 -0.62268 -0.13343 -0.22238 -0.13343 -0.17791 -0.13343 -0.88953 v -0.17791 -0.75611 -0.48924 -0.17791 -0.7561 -0.13343 -0.53372 h 0.1779 0.80059 0.7561 0.13343 0.53372 0.5782 0.17791 0.7561 0.13343 0.53372 0.48925 0.22238 0.5782 0.17791 0.7561 0.13343 0.53372 v 9.82936 h -0.22238 -0.17791 -0.7561 -0.48925 -0.1779 -0.75611 -0.13343 -0.53372 v -0.13343 -0.17791 -0.80058 q -1.89026,1.69012 -4.18082,1.46773 l -0.0889,0.0445 q -1.44549,-0.0222 -2.53517,-0.53372 -4.20306,-1.77907 -4.93693,-6.27122 -0.80058,-4.59223 1.60117,-7.91687 2.21272,-2.91322 5.60407,-3.11337 z m 83.58774,-57.76822 h -3.22908 v 17.45837 l -1.31293,-1.17098 -1.63229,-2.83876 q -0.28387,-0.63873 -1.34841,-1.63229 -0.85163,-0.81615 -1.73874,-1.31293 -1.41938,-0.78066 -2.0581,-0.99356 -1.06454,-0.35485 -2.44843,-0.35485 l -2.62585,-3.37103 q 0.31936,-0.2129 2.20003,-1.5968 1.10002,-0.81614 2.16456,-1.31293 0.10645,-0.0355 3.05167,-1.5968 1.66777,-0.88711 2.98069,-1.27744 h -10.36147 l -2.5194,-2.5194 h 16.35836 z m -8.65821,14.6551 q -0.60324,0.95808 -1.66778,0.95808 -0.88711,0 -1.5968,-0.60324 -0.6742,-0.63872 -0.6742,-1.49035 0,-0.56775 0.35484,-1.06453 0.67421,-0.9226 1.73874,-0.9226 0.85163,0 1.52584,0.56775 0.6742,0.56776 0.6742,1.41938 0,0.56776 -0.35484,1.13551 z m 2.94521,-3.15812 v -7.80659 q -1.66777,0.49678 -3.40651,1.41938 -0.63872,0.31936 -1.31293,0.78066 -0.14194,0.10645 -1.10002,0.74517 1.02905,0.4613 1.95165,1.02905 0.95808,0.56775 1.77422,1.34841 0.81615,0.78066 1.24196,1.31293 0.4613,0.49678 0.85163,1.17099 z m -9.89851,11.24858 q 0.071,0.071 -0.10646,0.4613 -0.14193,0.39033 -0.42581,0.39033 -0.21291,0 -0.49678,-0.31936 -0.49679,-0.70969 -1.88068,-1.88068 -0.99357,-0.85162 -1.34841,-1.1355 -0.35485,-0.39033 -0.56775,-0.63872 -0.2484,-0.21291 -0.49679,-0.42582 -0.88711,0.78066 -1.34841,1.10002 -1.10002,0.78066 -2.0581,0.78066 -1.20647,0 -1.70326,-0.17742 -0.53226,-0.17742 -1.17098,-0.67421 -0.63872,-0.49678 -0.78066,-1.45486 -0.0355,-0.28388 -0.0355,-0.42581 0,-0.95809 0.81615,-1.8452 0.31936,-0.28387 0.56775,-0.4613 0.60323,-0.39033 1.10002,-0.49678 0.49678,-0.10645 1.06453,-0.10645 0.74518,0 1.45487,0.28387 0.42581,0.17743 1.17099,0.63872 -0.071,-0.17742 -0.071,-0.24839 -0.17743,-0.63872 -0.17743,-1.17099 -0.0355,-0.2129 -0.0355,-0.6742 0,-0.28388 0.0355,-0.42582 0.2484,-0.35484 1.27745,0.60324 1.02905,0.9226 1.02905,1.91616 0.0355,0.39033 -0.071,0.78066 -0.14194,0.35485 -0.0355,0.42582 l 0.78066,0.60323 0.9226,0.81615 q 0.53227,0.4613 1.10002,1.1355 0.4613,0.56775 0.88711,1.27744 0.4613,0.74518 0.60324,1.34841 z m -7.5582,-4.64847 q -0.17742,-0.2129 -0.42581,-0.31936 -0.28388,-0.071 -0.60324,-0.071 h -0.35485 q -0.63872,0 -0.95808,0.17742 -0.35484,0.17742 -0.24839,0.56775 0.10645,0.24839 0.35485,0.28388 0.2129,0.071 0.74517,0.071 0.70969,-0.10645 1.1355,-0.28387 0.42582,-0.17742 0.35485,-0.42582 z m 7.24826,-18.09709 h -3.1936 l -0.0355,17.03256 q -0.56775,-0.39033 -1.70325,-1.3839 -0.31936,-0.28387 -0.9226,-0.85162 l 0.0355,-10.14857 q -0.39033,-0.56775 -0.70969,-0.85163 -0.31936,-0.31936 -0.70969,-0.56775 l -5.9614,5.67752 -3.26457,-1.17099 1.88067,-1.88068 q 0.28388,-0.21291 0.28388,-0.81614 0,-0.49678 -0.24839,-0.85163 -0.21291,-0.39033 -0.63872,-0.39033 -0.4613,0 -0.63872,0.10645 -0.4613,0.28388 -1.49035,0.49679 -0.39033,0.071 -1.02905,-0.28388 -0.88712,-0.4613 -0.88712,-1.27744 0,-0.53227 0.39033,-1.1355 1.20648,-1.88068 2.44843,-2.7678 1.73874,-1.24195 4.32911,-1.24195 2.09359,0 3.97427,1.80971 2.16455,2.09358 3.30006,5.18073 -0.10646,-0.81614 -0.17743,-1.66777 -0.28387,-1.91616 -0.60323,-3.61942 -0.10646,-0.49678 -0.14194,-1.77422 -0.0355,-1.31293 -0.0355,-1.49035 0,-0.53227 0,-0.88711 0,-0.35485 0.0355,-0.63872 l 1.66777,1.1355 0.0355,0.31936 q 0,0.74517 0.39032,1.06453 0.0355,0.0355 0.60324,0.2484 0.17742,0.071 0.31936,0.071 0.17742,0 0.28388,0.0355 z m -9.33242,1.24196 q -0.10645,-0.14194 -0.39033,-0.31936 -0.24839,-0.17743 -0.35484,-0.2484 -0.49679,-0.35484 -1.41938,-0.35484 -0.9226,0 -1.66778,0.28388 -1.1355,0.31936 -1.77422,1.34841 0.95808,0 1.49035,0.70969 0.24839,0.28387 0.4613,0.85162 0.24839,0.53227 0.24839,0.99357 z m -10.27664,-1.24196 h -4.04524 l -0.0355,17.81322 -2.44843,-2.37746 0.0355,-15.43576 h -2.87424 l -2.5194,-2.5194 h 5.28719 l -0.17742,-0.9226 q -0.071,-0.4613 -0.49679,-1.17099 -0.39032,-0.74517 -0.78065,-1.24195 -0.95809,-1.20648 -1.98714,-1.59681 -0.63872,-0.31936 -1.31292,-0.56775 -0.67421,-0.28387 -1.20648,-0.39033 -0.74517,-0.2129 -1.49034,-0.31936 -0.74518,-0.14194 -1.70326,-0.14194 -0.49678,0 -0.9226,0.0355 -0.42581,0.0355 -1.1355,0.10645 -0.74518,0.071 -1.34841,0.31936 -0.63872,0.21291 -1.3839,0.70969 l 0.60324,0.0355 q 0.071,0 1.27744,0.39033 0.88711,0.28387 1.77423,0.42581 0.85162,0.10645 1.88067,0.28388 1.02905,0.14193 2.12907,0.56775 0.74518,0.28387 1.20648,0.60324 0.42581,0.31936 0.70969,0.92259 0.28387,0.60324 0.42581,1.13551 0.14194,0.53226 0.14194,1.02905 0,0.39033 -0.0355,0.63872 h -3.1936 q 1.52583,-1.02905 1.52583,-1.56132 0,-0.21291 -0.14194,-0.39033 -0.17742,-0.21291 -0.63872,-0.35484 -0.49678,-0.14194 -1.73874,-0.14194 h -0.42581 -0.78066 q -1.66777,0 -2.62585,-0.17743 -0.99357,-0.17742 -2.34198,-0.99356 -0.70969,-0.39033 -1.02905,-0.99357 -0.35485,-0.60323 -0.35485,-1.24195 0,-1.27745 0.74518,-1.77423 0.31936,-0.31936 0.63872,-0.63872 1.02905,-0.81614 4.29362,-1.20647 0.35485,-0.0355 0.63873,-0.0355 0.24839,-0.0355 0.46129,-0.0355 1.02905,0 2.12907,0.24839 1.06454,0.21291 2.55489,0.63872 0.63872,0.17742 1.41938,0.63872 0.74517,0.4613 1.56132,1.06454 1.10002,0.85162 2.09358,2.48391 0.81615,1.34841 1.06454,2.27101 l 0.39033,1.34841 h 1.66777 z m -8.09712,-0.0355 h -10.5389 q -0.39033,0.14194 -0.6742,0.39033 -0.2484,0.21291 -0.2484,0.42582 0,0.56775 1.41938,1.02905 1.41938,0.42581 2.37747,0.31936 0.63872,0 1.56131,-0.28388 0.95808,-0.28387 1.77423,-0.56775 l 3.05167,3.08715 q -0.88712,0.78066 -1.77423,2.27101 -1.1355,1.91616 -1.1355,3.47748 -0.10646,0.99357 -0.14194,1.27744 -0.0355,0.2484 -0.0355,0.88712 0,1.88068 1.31293,4.75492 0.0355,0.071 -0.10645,0.10645 -0.14194,0.0355 -0.42582,0.0355 -0.53226,0 -1.1355,-0.10646 -0.60324,-0.10645 -0.67421,-0.24839 l -0.31936,-1.06453 q -0.56775,-1.70326 -0.88711,-3.22909 -0.28388,-1.52584 -0.28388,-2.87425 0,-1.06453 0.31936,-2.44843 0.31937,-1.38389 0.67421,-2.34197 -0.071,-0.0355 -0.35484,-0.0355 h -0.56776 q -1.49035,0 -3.22909,-0.63872 -1.70325,-0.67421 -2.41294,-1.49035 l -0.99357,-1.27744 q -0.071,0.0355 -0.14194,0.10645 -0.2129,0.28388 -0.42581,0.56775 -0.53227,0.67421 -1.06454,1.34842 -0.49678,0.6742 -0.70969,1.38389 -0.10645,0.49678 0.17743,0.81614 0.28387,0.31937 0.81614,0.31937 0.10645,0 0.53227,-0.071 0.42581,-0.071 1.1355,-0.4613 0.88711,-0.49679 1.10002,-0.56775 0.35485,-0.17743 0.70969,-0.31936 0.39033,-0.17743 0.60324,0 0.17742,-0.0355 0.63872,0.42581 0.28388,0.28388 0.60324,0.70969 1.49034,1.70326 1.49034,3.76136 0,0.63872 -0.071,0.99356 -0.2484,1.31293 -1.02905,2.34198 -0.74518,1.02905 -1.73875,1.49035 -0.95808,0.4613 -2.20003,0.4613 -1.56132,0 -3.01619,-0.78066 -1.45486,-0.78066 -2.59037,-2.27101 -0.81614,-0.95808 -1.27744,-2.0581 -0.4613,-1.13551 -0.78066,-2.44843 -0.10645,-0.42582 -0.53226,-3.54845 -0.0355,-0.4613 -0.21291,-1.27744 0.21291,-0.42582 0.35484,-0.78066 0.31936,-0.70969 0.42582,-0.74518 l 0.63872,0.49679 q 0.10645,0.10645 0.49678,2.09358 0.24839,1.20647 0.28388,1.41938 0.31936,1.20647 0.88711,2.44843 0.70969,1.63229 1.31293,2.0581 0.92259,0.95808 1.66777,1.34841 0.78066,0.35485 1.88068,0.35485 0.39033,0.0355 0.53226,0.0355 1.17099,0 2.16456,-0.56775 1.02905,-0.56775 1.02905,-1.41938 0,-0.31936 -0.21291,-0.70969 -0.14194,-0.53227 -0.6742,-0.31936 -0.74518,0.31936 -1.56132,0.56775 -0.78066,0.21291 -1.45487,0.21291 -0.95808,0 -1.88067,-0.4613 -1.10002,-0.70969 -1.80971,-1.88068 -0.67421,-1.20647 -0.67421,-2.48391 0,-0.24839 0,-0.60324 0.0355,-0.35484 0.28388,-0.85163 0.31936,-0.95808 0.95808,-1.66777 0.21291,-0.21291 0.70969,-0.60323 0.14194,-0.10646 0.42581,-0.31937 h -6.67108 l -2.37747,-2.48391 h 22.28427 z m -21.84459,-0.10645 h -3.51297 v 18.02613 l -2.41295,-2.41295 v -11.53246 l -0.17742,-2.37746 q -0.39033,-0.74518 -0.85163,-1.10002 -0.6742,-0.53227 -1.77422,-0.53227 -0.35485,0 -0.56775,0.0355 l -2.62586,-2.48391 h 3.61942 q 0.53227,0 1.20648,0.42581 0.6742,0.39033 1.20647,1.20648 0.42581,0.63872 0.85163,1.84519 0.24839,0.81614 0.53226,1.63229 0.071,-0.24839 -0.10645,-1.10002 -0.17742,-0.85163 -1.06453,-3.72587 -0.21291,-0.81615 -0.21291,-1.56132 0,-0.88711 0.10645,-1.45487 0,-0.10645 0.10646,-0.28387 l 1.06453,0.74517 0.9226,2.27101 h 1.27744 z m -8.15479,0.14194 h -3.6549 v 17.77773 l -2.73231,-2.62585 v -4.89686 q 0,-0.74517 0.0355,-1.98713 0.0355,-1.27744 0.0355,-1.98713 0,-0.81615 -0.10645,-1.17099 -0.24839,-0.53227 -0.42582,-1.06454 -0.39033,-0.99356 -0.74517,-1.45486 -0.35485,-0.4613 -1.3839,-1.45487 -0.39033,-0.35484 -1.24195,-0.53226 -0.81615,-0.21291 -1.20648,-0.14194 -1.02905,0.14194 -1.56131,0.39033 -0.78066,0.39033 -1.34842,1.34841 0.63873,-0.14194 1.45487,-0.14194 1.02905,0 1.88068,0.42581 0.88711,0.42582 1.34841,1.06454 0.4613,0.63872 0.35484,1.49035 0,0.85163 -0.35484,1.5968 -0.10645,0.24839 -0.81614,1.31293 -0.49679,0.78066 -0.85163,1.24196 -0.70969,0.78065 -1.52584,1.73874 l -2.59036,-2.66134 q 0.88711,-0.63872 1.06453,-0.81615 0.21291,-0.2129 1.20647,-1.24195 0.81615,-0.70969 1.17099,-1.06454 0.70969,-0.70969 0.39033,-1.02905 -0.35484,-0.39033 -0.85163,-0.39033 -0.53226,0 -1.70325,0.74518 -1.17099,0.70969 -1.70326,0.70969 -0.31936,0 -0.60324,-0.17743 -0.78065,-0.46129 -1.17098,-1.10002 -0.35485,-0.63872 -0.35485,-1.34841 0,-1.20647 0.9226,-2.5194 0.74517,-1.06453 1.5968,-1.52583 0.4613,-0.24839 0.67421,-0.31936 0.24839,-0.10645 0.63872,-0.24839 0.42581,-0.14194 0.88711,-0.21291 0.49678,-0.071 0.95808,-0.071 1.31293,0 2.48392,0.42582 1.17098,0.42581 1.80971,0.99356 1.02905,0.9226 1.88067,2.55489 0.42582,0.81614 0.99357,2.23552 -0.28388,-1.02905 -0.39033,-1.66777 -0.42581,-1.95165 -0.53227,-3.22909 -0.10645,-1.27744 -0.10645,-2.87425 0,-0.70969 0,-1.17098 0,-0.4613 0.0355,-0.81615 l 1.98714,1.56132 q -0.21291,0.42581 -0.21291,0.9226 0,0.53226 0.35484,0.78066 0.21291,0.071 0.53227,0.14193 0.31936,0.0355 0.53227,0.0355 0.31936,0 0.4613,-0.071 z" />
    </g>
    <g
       aria-label="DHAKA   N3"
       transform="matrix(0.52633234,0,0,0.52633234,-520.18134,228.8955)"
       id="text12681"
       style="font-size:22.0091px;line-height:84.42%;font-family:'Highway Gothic Expanded';-inkscape-font-specification:'Highway Gothic Expanded, Normal';text-align:end;text-anchor:end;stroke-width:0.502692">
      <path
         id="path12710"
         style="font-style:normal;font-variant:normal;font-weight:normal;font-stretch:normal;font-family:'Transport Heavy';-inkscape-font-specification:'Transport Heavy, ';fill:#ffffff;fill-opacity:1;stroke-width:0.502692"
         d="m 990.49633,-501.66896 q 4.58881,-0.15045 6.10408,3.5249 0.47286,1.44004 0.12896,2.70815 -0.3009,1.57975 -1.67647,2.10634 2.375,1.11765 1.93439,3.99774 -0.10746,2.97682 -2.45023,4.25567 -0.45136,0.29016 -0.81674,0.38688 -7.9955,1.56901 -9.37107,-4.98644 0.0215,-0.11821 0.12896,-0.12896 l 0.25792,-0.043 h 0.17195 q 0.13971,-0.043 0.25792,-0.043 0.0645,-0.043 0.12896,-0.043 h 0.12896 q 0.41912,-0.11821 0.73077,-0.12896 l 0.12896,-0.043 h 0.21493 q 0.77376,-0.20419 1.2896,-0.21494 0.49434,2.42874 2.75113,2.79413 2.99831,0.18269 3.09503,-2.36426 -0.11821,-1.09616 -0.98869,-1.5905 h -0.12896 l -0.086,-0.043 -0.38688,-0.086 h -0.17194 l -0.21494,-0.043 h -0.17194 -0.12896 -0.17195 l -0.086,-0.043 h -0.17195 -0.12896 -0.3009 -0.17195 l -0.77376,-0.086 v -0.12896 -0.77376 -0.55882 -0.17195 -0.73077 -0.12896 -0.51584 q 1.95589,0.0322 3.35295,-0.68778 0.20419,-0.24717 0.38688,-0.38688 0.72003,-2.38575 -2.02037,-2.70815 -3.10577,-0.11821 -3.4819,2.40725 -0.39763,-0.0215 -0.68779,-0.086 h -0.25792 q -0.58032,-0.11821 -0.9457,-0.12896 l -0.17195,-0.043 h -0.17194 l -0.12896,-0.043 h -0.12896 l -0.94571,-0.12896 q 1.23587,-4.793 6.14708,-5.07241 z m -24.11544,0.34389 h 0.60181 0.21493 0.17195 0.77376 0.17194 0.17195 0.17195 0.73077 0.12896 0.51583 l 0.17195,0.30091 0.17195,0.25792 0.17194,0.25792 0.17195,0.25792 0.17194,0.25792 0.12896,0.12895 0.043,0.12896 q 0.0537,0.043 0.043,0.086 0.31165,0.33314 0.42986,0.6448 0.31165,0.33314 0.42987,0.64479 l 0.17194,0.21494 0.17195,0.25791 q 0.11821,0.19344 0.21493,0.30091 l 0.043,0.12896 q 0.1612,0.17195 0.21493,0.34389 0.42987,0.4836 0.60181,0.90272 l 0.17195,0.25792 q 0.0537,0.043 0.043,0.086 0.32239,0.36539 0.47285,0.6448 l 0.17194,0.25792 0.12896,0.25792 0.17195,0.25792 0.17195,0.17194 0.12895,0.21494 0.086,0.21493 q 0.27941,0.27941 0.38688,0.55882 l 0.12896,0.17195 0.086,0.17194 0.12896,0.12896 q 0.20418,0.30091 0.3009,0.51584 l 0.12896,0.12896 0.086,0.12896 0.043,0.12896 0.086,0.043 q 0.1397,0.31165 0.3009,0.47285 l 0.043,0.12896 q 0.0537,0.043 0.043,0.086 0.39762,0.44061 0.55882,0.81675 l 0.043,-0.30091 v -0.3009 -0.3439 -0.17194 -0.77376 -0.47285 -0.17195 -0.17194 -0.17195 -0.17195 -0.73077 -0.12896 -0.51584 -0.25791 -0.73078 -0.12896 -0.51583 -0.55883 -0.17194 -0.73078 -0.12895 -0.51584 -0.47285 -0.21494 -0.55882 -0.17195 -0.73077 -0.12896 -0.51584 h 0.55882 0.17195 0.77375 0.17195 0.17195 0.17194 0.73077 0.12896 0.51584 v 16.42085 h -0.12896 -0.51584 -0.42986 -0.30091 -0.25792 -0.21493 -0.17194 -0.17195 -0.17195 -0.12896 -0.12896 -0.12896 -0.086 0.086 -0.086 -0.34389 -0.12896 -0.55883 l -0.043,-0.086 q -0.15045,-0.19344 -0.21493,-0.34389 -0.0537,-0.043 -0.043,-0.086 -0.39763,-0.44062 -0.55883,-0.81675 -0.0537,-0.043 -0.043,-0.086 l -0.17195,-0.25792 q -0.22568,-0.25792 -0.34389,-0.51584 l -0.21493,-0.25792 -0.17195,-0.3009 -0.17195,-0.30091 q -0.29015,-0.3224 -0.42986,-0.60181 l -0.086,-0.086 q -0.17195,-0.37613 -0.38688,-0.60181 l -0.043,-0.086 -0.086,-0.12896 -0.38688,-0.60181 q -0.15045,-0.19344 -0.21493,-0.34389 -0.0537,-0.043 -0.043,-0.086 l -0.086,-0.043 -0.17195,-0.30091 -0.043,-0.086 q -0.15045,-0.19344 -0.21493,-0.34389 -0.0967,-0.10747 -0.12896,-0.21493 l -0.17194,-0.17195 -0.17195,-0.25792 -0.086,-0.21493 -0.086,-0.043 -0.17194,-0.3009 -0.38688,-0.55883 -0.086,-0.17194 -0.086,-0.17195 -0.12896,-0.12896 -0.086,-0.12896 -0.043,-0.12896 q -0.21493,-0.23642 -0.34389,-0.42986 l -0.086,-0.17195 q -0.18269,-0.24717 -0.25792,-0.42987 -0.0752,-0.043 -0.086,-0.086 l -0.086,-0.086 -0.043,-0.086 -0.17195,-0.30091 -0.38688,-0.55883 v 11.00455 h -0.55882 -0.17195 -0.77376 -0.17194 -0.17195 -0.17194 -0.73078 -0.12895 -0.51584 v -0.12895 -0.17195 -0.12896 -0.17195 -0.77375 -0.3439 -0.34389 -0.12896 -0.85973 -0.17194 -0.21494 -0.17194 -0.21494 -0.55882 -0.17195 -0.73077 -0.12896 -0.51584 -0.17194 -0.21493 -0.55883 -0.17195 -0.73077 -0.12896 -0.51583 -0.30091 -0.34389 -0.34389 -0.3439 -0.12896 -0.12896 -1.33258 -0.3009 -0.25792 -0.30091 -0.25792 -0.21493 -0.25792 -0.17194 -0.77376 -0.47285 -0.17195 -0.17195 -0.17194 -0.17195 -0.73077 -0.12896 -0.51584 z m -32.28289,0.043 h 0.55883 1.33258 0.60181 0.12896 0.21494 0.12895 0.17195 0.12896 0.85973 v 0.12896 q 0.18269,0.38688 0.25792,0.68778 l 0.086,0.30091 0.043,0.17195 q 0.043,0.0645 0.043,0.12895 0.043,0.0645 0.043,0.12896 0.043,0.0645 0.043,0.12896 0.10747,0.17195 0.12896,0.3439 l 0.25792,0.68778 v 0.12896 q 0.20418,0.39763 0.25792,0.73077 0.20418,0.47285 0.25792,0.81674 0.0645,0.12896 0.086,0.25792 l 0.086,0.17195 q 0.0645,0.21493 0.12896,0.34389 v 0.12896 q 0.043,0.0645 0.043,0.12896 0.10746,0.17195 0.12896,0.34389 l 0.25792,0.68779 0.043,0.17194 0.043,0.086 0.086,0.38688 0.086,0.17194 0.086,0.21493 0.043,0.12896 0.043,0.17195 0.086,0.25792 q 0.0645,0.21493 0.12895,0.34389 v 0.12896 q 0.043,0.0645 0.043,0.12896 0.10747,0.17195 0.12896,0.34389 l 0.25792,0.68779 0.043,0.25792 0.12896,0.25792 0.086,0.25791 v 0.12896 l 0.086,0.12896 0.043,0.17195 0.043,0.21493 q 0.33314,0.76301 0.42986,1.2896 0.043,0.0645 0.043,0.12896 0.33314,0.76301 0.42986,1.28959 l 0.086,0.12896 0.043,0.17195 0.043,0.17195 0.043,0.12895 0.043,0.17195 q 0.043,0.0645 0.043,0.12896 0.043,0.0645 0.043,0.12896 0.043,0.0645 0.043,0.12896 l 0.086,0.12896 v 0.12896 q 0.043,0.0645 0.043,0.12896 0.10747,0.17194 0.12896,0.34389 0.13971,0.3224 0.17195,0.51584 l 0.086,0.25792 h -0.25792 -0.17195 -0.77375 -0.47286 -0.17194 -0.17195 -0.17194 -0.17195 -0.73077 -0.12896 -0.51584 l -0.086,-0.25792 v -0.17195 l -0.086,-0.12896 v -0.12896 q -0.12896,-0.23642 -0.12896,-0.42986 l -0.086,-0.12896 v -0.12896 l -0.043,-0.17195 -0.12896,-0.3009 -0.30091,-1.07467 h -0.77376 -0.85973 -0.3009 -0.25792 -0.21493 -0.25792 -0.17195 -0.77376 -0.47285 -0.17194 -0.17195 -0.17195 -0.17194 -0.73077 -0.12896 -0.51584 l -0.043,0.21494 -0.043,0.21493 -0.086,0.17195 q -0.0537,0.23642 -0.12896,0.42986 l -0.043,0.21493 -0.043,0.086 -0.12896,0.42986 -0.043,0.17195 -0.043,0.12896 q -0.0752,0.22568 -0.12896,0.34389 l -0.12896,0.51584 h -0.17195 -0.17194 -0.12896 -0.85973 -0.12896 -0.77376 -0.12896 -1.33258 l 0.086,-0.34389 0.12896,-0.42987 0.043,-0.12896 0.043,-0.12896 0.043,-0.12896 0.043,-0.086 0.21493,-0.68779 0.043,-0.12896 0.043,-0.12895 0.043,-0.17195 0.086,-0.17195 0.12896,-0.47285 0.043,-0.12896 0.043,-0.12896 0.043,-0.12896 0.043,-0.086 q 0.12896,-0.49435 0.25792,-0.77376 l 0.086,-0.3009 0.043,-0.086 q 0.12895,-0.49434 0.25791,-0.77375 0.0537,-0.21494 0.12896,-0.3439 l 0.086,-0.34389 0.12896,-0.3009 0.086,-0.3439 0.043,-0.086 q 0.12896,-0.49434 0.25792,-0.77376 l 0.086,-0.34389 0.34389,-0.9457 0.086,-0.30091 0.043,-0.12896 0.043,-0.12896 q 0.12896,-0.40837 0.25792,-0.68778 l 0.086,-0.25792 0.043,-0.12896 v -0.12896 l 0.043,-0.12896 0.30091,-0.77376 0.043,-0.25792 0.086,-0.21493 0.086,-0.17194 q 0.086,-0.40838 0.21493,-0.68779 l 0.043,-0.21493 0.043,-0.12896 0.043,-0.086 q 0.12896,-0.49435 0.25792,-0.77376 l 0.043,-0.17195 0.043,-0.17194 q 0.11822,-0.24718 0.17195,-0.47286 l 0.12896,-0.42986 0.043,-0.12896 0.34389,-0.98869 z m 1.84843,3.78281 -0.12896,0.47286 -0.043,0.086 -0.21493,0.77376 -0.25792,0.73077 -0.043,0.086 -0.25792,0.9457 -0.043,0.17195 -0.25791,0.73077 -0.086,0.21493 q -0.043,0.34389 -0.17194,0.60181 -0.0322,0.24718 -0.12896,0.47286 l -0.043,0.17194 q -0.086,0.25792 -0.17195,0.42987 l -0.25791,0.9457 h 0.12895 0.17195 0.17195 0.17194 0.17195 0.73077 0.12896 0.51584 0.17194 0.47286 0.21493 0.12896 0.17194 0.12896 0.85973 l -0.086,-0.34389 -0.25792,-0.81675 -0.21493,-0.73077 q -0.1612,-0.40837 -0.21493,-0.68778 l -0.043,-0.086 q -0.086,-0.31166 -0.17195,-0.51584 l -0.043,-0.17195 -0.043,-0.17194 -0.086,-0.21494 -0.043,-0.25792 -0.043,-0.17194 -0.086,-0.12896 -0.043,-0.25792 -0.043,-0.17195 q -0.0645,-0.12896 -0.086,-0.25792 l -0.043,-0.17194 q -0.1612,-0.3224 -0.21493,-0.60181 l -0.043,-0.12896 -0.043,-0.086 -0.086,-0.38687 -0.043,-0.12896 -0.21493,-0.55883 z m -21.36431,-3.73982 h 0.17195 0.77376 0.17194 0.17195 0.17194 0.73078 0.12895 0.51584 v 5.58824 l 0.25792,-0.21493 0.043,-0.12896 0.3009,-0.25792 q 0.043,-0.0752 0.086,-0.086 l 0.043,-0.086 0.55883,-0.6448 0.21493,-0.17195 0.12896,-0.21493 0.086,-0.086 0.086,-0.086 0.086,-0.086 0.086,-0.086 0.086,-0.12896 0.086,-0.043 0.55882,-0.6448 0.17195,-0.12896 0.12896,-0.17194 0.12896,-0.17195 0.17195,-0.12896 0.12895,-0.17194 q 0.043,-0.0752 0.086,-0.086 l 0.12896,-0.12896 0.043,-0.086 q 0.15046,-0.19344 0.30091,-0.3009 0.29016,-0.41912 0.60181,-0.6448 0.25792,-0.37613 0.47285,-0.60181 h 0.21494 0.12895 0.85974 0.55882 0.17195 0.77375 0.17195 0.17195 0.17194 0.73077 0.12896 0.51584 l -0.086,0.12896 -0.086,0.12896 -0.12896,0.12895 -0.086,0.086 q -0.21493,0.25792 -0.38688,0.38688 -0.12896,0.19344 -0.25792,0.3009 l -0.043,0.086 -0.086,0.043 q -0.31165,0.41912 -0.55882,0.6448 l -0.21493,0.21493 -0.55883,0.6448 -0.17194,0.17195 -0.12896,0.17194 -0.21494,0.17195 -0.086,0.17194 -0.12896,0.12896 -0.47285,0.51584 -0.17195,0.17195 -0.12896,0.17194 -0.17194,0.12896 -0.086,0.12896 q -0.16119,0.22568 -0.34389,0.3439 -0.043,0.0752 -0.086,0.086 l -0.043,0.12896 -0.12896,0.12896 -0.086,0.086 -0.086,0.086 -0.086,0.086 -0.086,0.12896 -0.68778,0.68778 q 0.0645,0.18269 0.17194,0.30091 l 0.12896,0.3009 0.17195,0.25792 q 0.0967,0.10747 0.12896,0.21493 0.12896,0.10747 0.21493,0.25792 l 0.043,0.12896 q 0.27941,0.35464 0.42986,0.6448 l 0.17195,0.25792 0.043,0.12896 0.086,0.043 0.38688,0.68778 0.086,0.086 0.17195,0.30091 q 0.18269,0.24717 0.25792,0.42986 l 0.17194,0.21494 0.77376,1.24661 q 0.24717,0.33314 0.34389,0.60181 0.0752,0.043 0.086,0.086 l 0.38688,0.55883 0.30091,0.51583 0.12896,0.17195 0.086,0.21493 q 0.0645,0.0537 0.086,0.12896 l 0.086,0.12896 q 0.26866,0.33315 0.38688,0.60181 l 0.17194,0.30091 0.086,0.043 0.043,0.12896 q 0.0537,0.043 0.043,0.086 0.37613,0.41912 0.51584,0.85973 h -0.60182 -0.55882 -0.17195 -0.77375 -0.17195 -0.17195 -0.17194 -0.73077 -0.12896 -0.51584 l -0.12896,-0.25792 q -0.0645,-0.0537 -0.086,-0.12896 -0.0752,-0.043 -0.086,-0.086 l -0.043,-0.12896 q -0.0645,-0.0537 -0.086,-0.12896 -0.17194,-0.1612 -0.21493,-0.3439 -0.0752,-0.043 -0.086,-0.086 l -0.043,-0.086 -0.34389,-0.47285 -0.043,-0.12896 -0.47285,-0.73077 q -0.086,-0.13971 -0.12896,-0.25792 -0.0752,-0.043 -0.086,-0.086 l -0.38688,-0.55882 -0.12896,-0.25792 -0.12896,-0.17195 -0.043,-0.12896 q -0.27941,-0.32239 -0.38687,-0.60181 l -0.12896,-0.12896 -0.30091,-0.55882 q -0.0645,-0.0537 -0.086,-0.12896 l -0.21493,-0.25792 -0.086,-0.12896 -0.043,-0.17195 -0.086,-0.043 -0.043,-0.12896 -0.17195,-0.30091 q -0.27941,-0.3009 -0.38688,-0.60181 l -0.17194,-0.12896 -0.086,0.17195 -0.12896,0.086 -0.086,0.12896 -0.086,0.086 -0.086,0.12896 -0.12896,0.086 -0.043,0.086 q -0.23643,0.22568 -0.34389,0.38688 l -0.3439,0.34389 v 5.71721 h -0.55882 -0.17195 -0.77376 -0.17194 -0.17195 -0.17194 -0.73077 -0.12896 -0.51584 v -0.12896 -0.17195 -0.12896 -0.17194 -0.77376 -0.34389 -0.3439 -0.12895 -0.85974 -0.17194 -0.21493 -0.17195 -0.21493 -0.55883 -0.17194 -0.73077 -0.12896 -0.51584 -0.17195 -0.21493 -0.55883 -0.17194 -0.73077 -0.12896 -0.51584 -0.30091 -0.34389 -0.34389 -0.34389 -0.12896 -0.12896 -1.33258 -0.30091 -0.25792 -0.3009 -0.25792 -0.21494 -0.25792 -0.17194 -0.77376 -0.47285 -0.17195 -0.17194 -0.17195 -0.17195 -0.73077 -0.12896 -0.51583 z m -13.19686,-0.043 h 0.55882 1.33259 0.60181 0.12896 0.21493 0.12896 0.17195 0.12895 0.85974 v 0.12896 q 0.18269,0.38688 0.25791,0.68778 l 0.086,0.30091 0.043,0.17195 q 0.043,0.0645 0.043,0.12895 0.043,0.0645 0.043,0.12896 0.043,0.0645 0.043,0.12896 0.10747,0.17195 0.12896,0.3439 l 0.25792,0.68778 v 0.12896 q 0.20419,0.39763 0.25792,0.73077 0.20419,0.47285 0.25792,0.81674 0.0645,0.12896 0.086,0.25792 l 0.086,0.17195 q 0.0645,0.21493 0.12896,0.34389 v 0.12896 q 0.043,0.0645 0.043,0.12896 0.10747,0.17195 0.12896,0.34389 l 0.25792,0.68779 0.043,0.17194 0.043,0.086 0.086,0.38688 0.086,0.17194 0.086,0.21493 0.043,0.12896 0.043,0.17195 0.086,0.25792 q 0.0645,0.21493 0.12896,0.34389 v 0.12896 q 0.043,0.0645 0.043,0.12896 0.10746,0.17195 0.12896,0.34389 l 0.25791,0.68779 0.043,0.25792 0.12896,0.25792 0.086,0.25791 v 0.12896 l 0.086,0.12896 0.043,0.17195 0.043,0.21493 q 0.33315,0.76301 0.42986,1.2896 0.043,0.0645 0.043,0.12896 0.33315,0.76301 0.42987,1.28959 l 0.086,0.12896 0.043,0.17195 0.043,0.17195 0.043,0.12895 0.043,0.17195 q 0.043,0.0645 0.043,0.12896 0.043,0.0645 0.043,0.12896 0.043,0.0645 0.043,0.12896 l 0.086,0.12896 v 0.12896 q 0.043,0.0645 0.043,0.12896 0.10747,0.17194 0.12896,0.34389 0.13971,0.3224 0.17195,0.51584 l 0.086,0.25792 h -0.25792 -0.17194 -0.77376 -0.47285 -0.17195 -0.17194 -0.17195 -0.17195 -0.73077 -0.12896 -0.51583 l -0.086,-0.25792 v -0.17195 l -0.086,-0.12896 v -0.12896 q -0.12896,-0.23642 -0.12896,-0.42986 l -0.086,-0.12896 v -0.12896 l -0.043,-0.17195 -0.12896,-0.3009 -0.3009,-1.07467 h -0.77376 -0.85973 -0.30091 -0.25792 -0.21493 -0.25792 -0.17194 -0.77376 -0.47285 -0.17195 -0.17195 -0.17194 -0.17195 -0.73077 -0.12896 -0.51584 l -0.043,0.21494 -0.043,0.21493 -0.086,0.17195 q -0.0537,0.23642 -0.12896,0.42986 l -0.043,0.21493 -0.043,0.086 -0.12896,0.42986 -0.043,0.17195 -0.043,0.12896 q -0.0752,0.22568 -0.12896,0.34389 l -0.12896,0.51584 h -0.17194 -0.17195 -0.12896 -0.85973 -0.12896 -0.77376 -0.12896 -1.33258 l 0.086,-0.34389 0.12896,-0.42987 0.043,-0.12896 0.043,-0.12896 0.043,-0.12896 0.043,-0.086 0.21493,-0.68779 0.043,-0.12896 0.043,-0.12895 0.043,-0.17195 0.086,-0.17195 0.12895,-0.47285 0.043,-0.12896 0.043,-0.12896 0.043,-0.12896 0.043,-0.086 q 0.12896,-0.49435 0.25792,-0.77376 l 0.086,-0.3009 0.043,-0.086 q 0.12896,-0.49434 0.25792,-0.77375 0.0537,-0.21494 0.12896,-0.3439 l 0.086,-0.34389 0.12896,-0.3009 0.086,-0.3439 0.043,-0.086 q 0.12896,-0.49434 0.25792,-0.77376 l 0.086,-0.34389 0.34389,-0.9457 0.086,-0.30091 0.043,-0.12896 0.043,-0.12896 q 0.12896,-0.40837 0.25792,-0.68778 l 0.086,-0.25792 0.043,-0.12896 v -0.12896 l 0.043,-0.12896 0.3009,-0.77376 0.043,-0.25792 0.086,-0.21493 0.086,-0.17194 q 0.086,-0.40838 0.21494,-0.68779 l 0.043,-0.21493 0.043,-0.12896 0.043,-0.086 q 0.12896,-0.49435 0.25792,-0.77376 l 0.043,-0.17195 0.043,-0.17194 q 0.11821,-0.24718 0.17194,-0.47286 l 0.12896,-0.42986 0.043,-0.12896 0.34389,-0.98869 z m 1.84842,3.78281 -0.12896,0.47286 -0.043,0.086 -0.21493,0.77376 -0.25792,0.73077 -0.043,0.086 -0.25791,0.9457 -0.043,0.17195 -0.25792,0.73077 -0.086,0.21493 q -0.043,0.34389 -0.17195,0.60181 -0.0322,0.24718 -0.12896,0.47286 l -0.043,0.17194 q -0.086,0.25792 -0.17194,0.42987 l -0.25792,0.9457 h 0.12896 0.17195 0.17194 0.17195 0.17194 0.73077 0.12896 0.51584 0.17195 0.47285 0.21493 0.12896 0.17195 0.12896 0.85973 l -0.086,-0.34389 -0.25792,-0.81675 -0.21494,-0.73077 q -0.1612,-0.40837 -0.21493,-0.68778 l -0.043,-0.086 q -0.086,-0.31166 -0.17194,-0.51584 l -0.043,-0.17195 -0.043,-0.17194 -0.086,-0.21494 -0.043,-0.25792 -0.043,-0.17194 -0.086,-0.12896 -0.043,-0.25792 -0.043,-0.17195 q -0.0645,-0.12896 -0.086,-0.25792 l -0.043,-0.17194 q -0.1612,-0.3224 -0.21493,-0.60181 l -0.043,-0.12896 -0.043,-0.086 -0.086,-0.38687 -0.043,-0.12896 -0.21493,-0.55883 z m -23.55661,-3.73982 h 0.17194 0.77376 0.17195 0.17194 0.17195 0.73077 0.12896 0.51584 v 6.23304 h 0.47285 0.17195 0.12895 0.21494 0.12896 0.17194 0.12896 0.85973 0.85973 0.21494 0.73077 0.17194 0.21494 0.55882 0.17195 0.73077 0.12896 0.51584 v -0.3009 -0.25792 -0.30091 -0.85973 -0.3009 -0.25792 -0.21494 -0.25792 -0.17194 -0.77376 -0.47285 -0.17195 -0.17194 -0.17195 -0.17195 -0.73077 -0.12896 -0.51583 h 0.55882 0.17195 0.77375 0.17195 0.17195 0.17194 0.73077 0.3439 0.3009 v 16.42085 h -0.55882 -0.17195 -0.77376 -0.17194 -0.17195 -0.17195 -0.73077 -0.12896 -0.51583 v -0.30091 -0.12896 -0.12896 -1.33258 -0.3009 -0.25792 -0.30091 -0.25792 -0.21493 -0.25792 -0.17195 -0.77375 -0.47286 -0.17194 -0.17195 -0.17194 -0.17195 -0.73077 -0.12896 -0.51584 h -0.25792 -0.30091 -0.25792 -0.73077 -0.25792 -0.21493 -0.25792 -0.17195 -0.77375 -0.47286 -0.17194 -0.17195 -0.17194 -0.17195 -0.73077 -0.12896 -0.51584 -0.12896 -0.12896 -0.55882 v 6.96382 h -0.55883 -0.17194 -0.77376 -0.17195 -0.17194 -0.17195 -0.73077 -0.12896 -0.51584 v -0.12896 -0.17195 -0.12896 -0.17194 -0.77376 -0.34389 -0.3439 -0.12895 -0.85974 -0.17194 -0.21493 -0.17195 -0.21493 -0.55883 -0.17194 -0.73077 -0.12896 -0.51584 -0.17195 -0.21493 -0.55883 -0.17194 -0.73077 -0.12896 -0.51584 -0.30091 -0.34389 -0.34389 -0.34389 -0.12896 -0.12896 -1.33258 -0.30091 -0.25792 -0.3009 -0.25792 -0.21494 -0.25792 -0.17194 -0.77376 -0.47285 -0.17195 -0.17194 -0.17195 -0.17195 -0.73077 -0.12896 -0.51583 z m -17.8824,-0.043 h 0.21493 0.17195 0.21493 0.17195 0.21493 0.55883 0.17194 0.73077 0.12896 0.51584 0.17195 0.17194 0.55883 0.17195 0.17194 0.42987 0.47285 0.12896 0.47285 0.34389 0.21493 l 0.12896,0.043 h 0.17195 0.17195 l 0.086,0.043 0.68778,0.086 q 6.5447,2.16007 5.67422,9.50002 -1.31108,7.60861 -10.23079,6.79187 h -0.17194 -0.21494 -0.17194 -0.21494 -0.17194 -0.21493 -0.55883 -0.17195 -0.73077 -0.12896 -0.51583 v -0.17195 -0.77376 -0.34389 -0.34389 -0.12896 -0.17195 -0.77375 -0.12896 -0.85973 -0.3439 -0.17194 -0.77376 -0.12896 -0.12896 -1.33258 -0.30091 -0.12896 -0.17194 -0.77376 -0.60181 -0.12896 -0.21493 -0.12896 -0.17195 -0.12896 -0.85973 -0.73077 -0.12896 -0.51584 -0.55882 -0.17195 -0.73077 -0.12896 -0.51584 -0.47285 -0.21493 -0.55883 -0.17194 -0.73077 -0.12896 -0.51584 z m 3.18101,13.11089 h 0.60181 0.12896 0.34389 0.12896 0.12896 0.55882 0.17195 0.12896 0.85973 l 0.3009,-0.043 q 0.39763,-0.043 0.68779,-0.17194 l 0.25792,-0.043 q 2.83711,-1.57975 2.5362,-4.94345 -0.41912,-4.98644 -5.24435,-4.55657 h -0.12896 -0.12896 -1.33258 z m -40.99028,-14.9335 h -4.26789 v 21.89988 l -2.93148,-2.93148 v -14.01075 l -0.21555,-2.88837 q -0.47421,-0.90531 -1.03464,-1.33641 -0.81909,-0.64665 -2.1555,-0.64665 -0.4311,0 -0.68976,0.0431 l -3.19014,-3.0177 h 4.39722 q 0.64665,0 1.46574,0.51732 0.81909,0.47421 1.46574,1.46574 0.51732,0.77598 1.03464,2.24172 0.30177,0.99153 0.64665,1.98306 0.0862,-0.30177 -0.12933,-1.33641 -0.21555,-1.03464 -1.2933,-4.52655 -0.25866,-0.99153 -0.25866,-1.89684 0,-1.07775 0.12933,-1.76751 0,-0.12933 0.12933,-0.34488 l 1.2933,0.90531 1.12086,2.75904 h 1.55196 z m -9.73411,0.17244 h -10.43262 v 0.56043 q 2.19861,0 4.7421,1.98306 3.31947,2.5866 3.31947,6.63894 0,1.85373 -1.16397,2.97459 -1.16397,1.12086 -2.75904,1.12086 -1.63818,0 -2.62971,-1.25019 -0.64665,-0.77598 -0.64665,-1.55196 0,-0.90531 0.73287,-1.76751 0.21555,-0.25866 0.77598,-0.68976 0.25866,-0.0862 0.64665,-0.12933 0.4311,-0.0862 0.81909,-0.0862 0.94842,0 1.68129,0.47421 0.25866,0.17244 0.73287,0.64665 -0.30177,-0.64665 -0.56043,-1.33641 -0.64665,-0.99153 -1.63818,-1.93995 -0.60354,-0.60354 -1.55196,-1.03464 -1.25019,-0.56043 -2.54349,-0.56043 v 16.8129 l -1.55196,-1.50885 q -0.12933,-0.4311 -0.17244,-0.64665 -0.21555,-0.73287 -0.51732,-1.20708 -1.07775,-1.68129 -2.19861,-2.93148 -1.07775,-1.2933 -2.1555,-1.98306 -1.42263,-0.81909 -2.54349,-1.16397 -1.07775,-0.38799 -2.71593,-0.56043 l -3.36258,-3.8799 q 1.25019,-0.94842 2.24172,-1.59507 1.03464,-0.64665 2.1555,-1.25019 2.28483,-1.33641 3.92301,-2.02617 1.63818,-0.73287 4.00923,-1.46574 v -0.64665 h -12.84678 l -3.14703,-3.06081 h 26.34021 z m -13.45032,13.10544 v -8.83755 q -1.46574,0.51732 -2.19861,0.8622 -0.73287,0.30177 -2.11239,1.12086 -0.56043,0.30177 -1.16397,0.77598 -0.60354,0.4311 -0.94842,0.68976 0.90531,0.38799 1.76751,0.90531 0.8622,0.51732 1.46574,0.94842 0.81909,0.64665 1.63818,1.55196 0.8622,0.90531 1.55196,1.98306 z m -12.01084,-13.27788 h -4.26789 v 21.89988 l -2.93148,-2.93148 v -14.01075 l -0.21555,-2.88837 q -0.47421,-0.90531 -1.03464,-1.33641 -0.81909,-0.64665 -2.1555,-0.64665 -0.4311,0 -0.68976,0.0431 l -3.19014,-3.0177 h 4.39722 q 0.64665,0 1.46574,0.51732 0.81909,0.47421 1.46574,1.46574 0.51732,0.77598 1.03464,2.24172 0.30177,0.99153 0.64665,1.98306 0.0862,-0.30177 -0.12933,-1.33641 -0.21555,-1.03464 -1.2933,-4.52655 -0.25866,-0.99153 -0.25866,-1.89684 0,-1.07775 0.12933,-1.76751 0,-0.12933 0.12933,-0.34488 l 1.2933,0.90531 1.12086,2.75904 h 1.55196 z m -9.6782,0.17244 h -13.57965 v 13.53654 q 0,1.12086 0.8622,1.12086 0.64665,0 1.68129,-0.77598 1.25019,-0.94842 2.80215,-2.84526 0.38799,-0.47421 0.51732,-0.8622 0.17244,-0.38799 0.30177,-1.07775 -1.37952,0 -2.28483,-0.64665 -1.07775,-0.77598 -1.07775,-2.06928 0,-0.17244 0.0862,-0.68976 0.30177,-1.42263 1.16397,-1.93995 0.8622,-0.56043 1.93995,-0.56043 0.30177,0 0.60354,0.0862 0.34488,0.0431 0.81909,0.12933 0.51732,0.0431 1.03464,0.47421 0.56043,0.4311 1.16397,1.59507 0.21555,0.56043 0.30177,0.90531 0.34488,1.12086 0.34488,1.68129 -0.21555,2.28483 -0.68976,3.49191 -0.4311,1.20708 -1.76751,2.67282 -1.76751,1.93995 -3.75057,3.0177 -0.64665,0.34488 -1.59507,0.68976 -0.77598,0.12933 -1.20708,0.12933 -0.73287,0 -1.59507,-0.60354 -0.64665,-0.38799 -1.25019,-1.12086 -0.8622,-1.03464 -1.16397,-2.28483 -0.0862,-0.64665 -0.12933,-1.42263 -0.0431,-0.81909 -0.0431,-1.55196 v -11.07927 h -2.80215 l -3.06081,-3.06081 h 19.31328 z m -32.00244,7.84602 q 0.0862,0.38799 0.0862,0.81909 0,0.38799 0,0.77598 0,1.7244 -0.4311,3.4488 -0.25866,0.99153 -0.56043,1.7244 -1.12086,2.1555 -3.23325,3.49191 -2.11239,1.2933 -4.52655,1.2933 -4.05234,0 -7.88913,-5.00076 -2.93148,-3.79368 -3.62124,-6.81138 -0.17244,-0.81909 -0.64665,-2.71593 -0.47421,-1.89684 -0.64665,-3.27636 l 2.80215,1.12086 q 0.25866,1.68129 0.56043,2.71593 0.64665,2.1555 2.02617,4.39722 0.81909,1.33641 2.06928,2.5866 1.89684,1.89684 3.66435,2.1555 0.73287,0.12933 1.33641,0.12933 2.62971,0 4.48344,-1.89684 1.68129,-1.7244 1.68129,-3.70746 0,-2.24172 -0.56043,-3.4488 -0.68976,-1.50885 -3.10392,-2.37105 0.38799,0.8622 0.38799,1.63818 0,0.81909 -0.56043,1.76751 -0.56043,0.94842 -1.55196,1.55196 -0.94842,0.60354 -2.06928,0.60354 -0.90531,0 -1.68129,-0.34488 -0.77598,-0.38799 -1.46574,-1.16397 -0.64665,-0.81909 -0.94842,-1.55196 -0.25866,-0.77598 -0.25866,-1.55196 0,-0.99153 0.34488,-1.89684 0.4311,-0.81909 0.4311,-0.8622 1.03464,-1.46574 2.02617,-1.98306 1.03464,-0.51732 2.84526,-0.51732 1.93995,-0.21555 4.48344,1.42263 3.70746,2.37105 4.52655,7.45803 z m -20.19973,-7.84602 h -4.35411 v 21.89988 l -1.68129,-2.02617 q 0.0431,-0.17244 0.0431,-0.60354 0,-1.68129 -0.81909,-4.13856 -0.77598,-2.45727 -1.76751,-4.39722 -0.60354,-1.16397 -2.11239,-2.32794 -1.76751,-1.37952 -3.27636,-1.37952 -0.0431,0.17244 -0.0431,0.34488 1.42263,1.2933 1.42263,2.50038 0,0.68976 -0.30177,1.33641 -0.77598,1.55196 -3.0177,1.55196 -0.56043,0 -1.16397,-0.12933 -1.2933,-0.17244 -2.02617,-0.77598 -0.94842,-0.77598 -1.20708,-2.41416 -0.0862,-0.60354 -0.0862,-0.90531 0,-2.19861 1.63818,-3.57813 1.68129,-1.42263 3.96612,-1.42263 2.1555,0 3.96612,1.25019 1.20708,0.81909 2.19861,2.32794 1.25019,1.89684 1.25019,2.32794 v -9.44109 H 705.0961 l -3.0177,-3.06081 h 21.72744 z m -24.44472,21.1239 -1.81062,-1.59507 q -0.17244,-0.17244 -0.47421,-1.33641 -0.30177,-1.20708 -0.8622,-1.76751 -0.51732,-0.60354 -1.33641,-0.8622 -0.81909,-0.25866 -1.7244,-0.25866 -0.94842,0 -3.31947,0.34488 -2.37105,0.34488 -3.62124,0.34488 -2.45727,-0.21555 -4.13856,-1.2933 -1.42263,-0.90531 -2.06928,-2.24172 -0.4311,-0.68976 -0.73287,-1.76751 -0.30177,-1.12086 -0.30177,-2.50038 0,-1.42263 0.4311,-2.84526 0.17244,-0.47421 1.16397,-1.59507 0.34488,-0.38799 1.03464,-1.12086 l 1.03464,1.03464 q -0.30177,0.38799 -0.68976,1.03464 -0.38799,0.64665 -0.38799,0.8622 -0.0862,0.47421 -0.17244,1.16397 -0.0862,0.64665 -0.0862,0.8622 0,0.99153 0.30177,1.85373 0.30177,0.8622 1.07775,1.59507 0.51732,0.51732 1.85373,0.8622 1.33641,0.30177 2.37105,0.30177 0.25866,-0.0431 0.38799,-0.0431 1.89684,-0.25866 3.23325,-0.25866 2.50038,0 4.09545,0.77598 1.37952,0.94842 1.68129,1.12086 v -14.09697 q 0,-0.25866 -0.25866,-0.21555 -0.21555,0.0431 -1.37952,0.51732 -1.33641,0.64665 -2.67282,1.81062 -0.47421,0.34488 -0.99153,1.16397 -0.51732,0.77598 -0.73287,1.55196 0.17244,-0.0431 0.34488,-0.0431 0.17244,0 0.25866,0 1.20708,0 1.76751,1.03464 0.21555,0.4311 0.30177,0.81909 0.0862,0.38799 0.0862,0.77598 0,1.16397 -0.90531,1.98306 -0.68976,0.64665 -1.16397,0.73287 -0.4311,0.0431 -0.77598,0.0862 -0.34488,0 -0.51732,0 -1.93995,0 -2.97459,-1.12086 -0.99153,-1.16397 -0.99153,-3.10392 -0.0862,-0.68976 0.68976,-2.54349 0.81909,-1.85373 1.55196,-2.5866 0.60354,-0.56043 0.94842,-0.8622 1.03464,-0.90531 1.7244,-1.42263 0.4311,-0.30177 1.07775,-0.64665 0.68976,-0.34488 1.25019,-0.47421 0.60354,-0.17244 1.16397,-0.30177 0.56043,-0.12933 1.20708,-0.12933 0.25866,0 0.51732,0.0862 0.25866,0.0862 0.68976,0.25866 0.47421,0.17244 0.90531,0.56043 0.47421,0.38799 0.81909,0.73287 0.51732,0.51732 0.68976,0.73287 0.4311,0.51732 0.4311,1.16397 z" />
    </g>
    <path
       d="m -81.541554,-16.904385 -4.959006,4.959041 V 2.3026279 c 0,0.7146694 -0.469223,1.3449936 -1.160675,1.554306 -6.593765,2.132589 -11.587986,7.5523231 -13.164605,14.2884071 -0.17467,0.734079 -0.83473,1.281971 -1.59354,1.281971 h -27.04176 l -3.31553,3.288179 3.31553,3.288182 h 27.04176 c 0.75881,0 1.41887,0.519273 1.59354,1.253427 0.22296,0.952432 0.52088,1.875474 0.875267,2.769676 0.01388,0.03564 0.02981,0.0703 0.044,0.105841 0.139171,0.345275 0.285854,0.686232 0.443584,1.021539 0.04674,0.09999 0.09793,0.197067 0.146272,0.296114 0.127698,0.260033 0.257376,0.518333 0.396013,0.771798 0.09735,0.178963 0.200623,0.353747 0.303246,0.529205 0.100708,0.171304 0.19994,0.343395 0.305631,0.511358 0.145138,0.231769 0.297617,0.457598 0.451905,0.682611 0.07452,0.108257 0.146913,0.217974 0.223571,0.324651 0.194418,0.27173 0.397776,0.535785 0.605311,0.796778 0.04337,0.05431 0.08452,0.110271 0.128428,0.164104 0.243959,0.300231 0.497936,0.591457 0.75872,0.876463 0.01373,0.01496 0.02668,0.03036 0.04042,0.04521 2.339145,2.540622 5.328585,4.461694 8.708614,5.50607 0.529269,0.278377 0.894285,0.853279 0.894285,1.469861 v 13.42504 h 1.65182 v 0.01179 h 6.629885 v -0.01179 h 1.636343 v -13.42504 c 0,-0.711288 0.465703,-1.367866 1.148784,-1.568576 l 0.269941,-0.120118 c 1.154334,-0.400401 2.274353,-0.893602 3.346464,-1.485331 l 0.19503,-0.0868 -4.13728,-7.159074 c -1.760341,0.993004 -3.75016,1.526953 -5.774818,1.526953 -6.370624,0 -11.534197,-5.164839 -11.534197,-11.535382 0,-6.37038 5.163573,-11.535382 11.534197,-11.535382 6.370604,0 11.535372,5.165002 11.535387,11.535382 0,2.031368 -0.536496,4.026951 -1.544797,5.79623 l 7.161436,4.149165 0.06296,-0.1439 c 0.662343,-1.167242 1.199973,-2.393878 1.611382,-3.660403 2.69e-4,-3.94e-4 0.0015,-0.0016 0.0015,-0.0028 0.238282,-0.671046 0.835591,-1.152339 1.557866,-1.152339 0.009,0 0.01865,1.54e-4 0.0273,0 h 25.300941 l 4.95904,-4.959068 -4.95904,-4.960218 h -25.300949 -0.0273 c -0.595667,0 -1.155363,-0.325008 -1.444909,-0.828878 -1.85335,-6.084953 -6.568901,-11.0505481 -12.839931,-13.0884928 -0.679277,-0.2028297 -1.148784,-0.8324975 -1.148784,-1.5471669 V -11.945658 Z"
       style="fill:#ffffff;fill-opacity:1;stroke:none;stroke-width:0.1875;stroke-linecap:round;stroke-linejoin:round;stroke-miterlimit:10;stroke-dasharray:none;stroke-opacity:1"
       id="path64-5"
       sodipodi:nodetypes="ccsccscccscccccccccccccccsccccccscccccsssscccccscccccsccccc" />
    <path
       id="path12759-4"
       style="font-style:normal;font-variant:normal;font-weight:bold;font-stretch:normal;font-size:41.9447px;line-height:65.42%;font-family:SulekhaT;-inkscape-font-specification:'SulekhaT Bold';text-align:end;text-anchor:end;fill:#ffffff;fill-opacity:1;stroke-width:0.264584"
       d="m 7.0794508,24.363446 q 0,1.434994 -1.324612,2.362224 -1.19214,0.838921 -2.892086,0.993458 -1.92063696,0 -3.17905096,-1.059693 -1.12592604,-0.949305 -1.12592604,-2.119377 0,-0.309073 0.08832,-0.551919 0.353223,-0.993462 1.12594204,-1.545381 0.176574,-0.132456 0.99344,-0.507765 -0.949293,-0.41946 -1.412936,-1.081768 -0.46358404,-0.662306 -0.46358404,-1.479152 0,-1.346683 1.10381604,-2.384294 1.12592696,-1.037615 2.91415196,-1.192154 1.655784,0 2.737548,0.92723 1.015507,0.860995 1.015507,1.986915 0,0.220767 -0.02208,0.331152 -0.132487,0.662306 -0.640218,1.302534 -0.485709,0.618154 -1.015506,0.905152 0.860969,0.35323 1.412876,1.015536 0.684395,0.838922 0.684395,2.097302 z m -2.163529,-5.607523 q -0.08832,-0.596072 -0.772704,-1.103841 -0.684395,-0.507767 -1.523312,-0.507767 -0.419437,0 -0.772659,0.154538 -0.353223,0.132457 -0.684395,0.463612 -0.30906096,0.331152 -0.30906096,0.860995 0,0.287004 0.110406,0.507771 0.26489796,0.529848 1.03760196,0.927226 0.772719,0.397382 1.567474,0.529845 0.507761,-0.220764 0.838918,-0.794769 0.154538,-0.242841 0.507761,-1.03761 z m 0.154523,6.004905 q 0,-0.860995 -1.103816,-1.589535 -1.103876,-0.750613 -1.47915,-0.573998 -1.08178,0.485691 -1.50126096,1.081767 -0.264898,0.353234 -0.242847,0.993457 -0.06624,0.44154 0.33117196,0.861 0.331156,0.35323 0.861028,0.529845 0.573959,0.154536 0.971344,0.154536 0.706491,0 1.390826,-0.375309 0.331171,-0.198688 0.574018,-0.596074 0.154538,-0.264921 0.198686,-0.485689 z m -6.856209,-7.06459 h -2.229803 v 11.215036 l -0.860986,-1.03761 q 0.02208,-0.08831 0.02208,-0.309073 0,-0.861004 -0.419437,-2.119377 -0.397385,-1.258382 -0.90519,-2.251839 -0.309061,-0.59608 -1.081765,-1.192155 -0.905131,-0.706459 -1.677835,-0.706459 -0.02208,0.08831 -0.02208,0.176614 0.728542,0.662306 0.728542,1.280456 0,0.353235 -0.154523,0.684385 -0.397385,0.794769 -1.545363,0.794769 -0.2870088,0 -0.5960698,-0.06623 -0.662343,-0.08831 -1.037617,-0.397379 -0.485695,-0.397385 -0.618182,-1.236303 -0.04416,-0.309077 -0.04416,-0.463613 0,-1.12592 0.838918,-1.832379 0.860968,-0.728542 2.0310718,-0.728542 1.103876,0 2.031058,0.640233 0.618181,0.41946 1.125927,1.192146 0.640232,0.971383 0.640232,1.192155 v -4.83483 h -7.3956608 l -1.545363,-1.567461 h 11.1267248 z m -12.5182968,10.817654 -0.927227,-0.816839 q -0.08832,-0.08831 -0.242862,-0.684384 -0.154523,-0.618155 -0.441532,-0.905154 -0.264899,-0.309075 -0.684335,-0.441538 -0.419496,-0.132457 -0.88308,-0.132457 -0.485709,0 -1.69996,0.176612 -1.214237,0.176617 -1.854469,0.176617 -1.258354,-0.110375 -2.119382,-0.662306 -0.728497,-0.463613 -1.059669,-1.147997 -0.220751,-0.353231 -0.375334,-0.905152 -0.154522,-0.573998 -0.154522,-1.280457 0,-0.728537 0.220796,-1.45707 0.08832,-0.242846 0.59607,-0.816843 0.176589,-0.198694 0.529857,-0.574001 l 0.529812,0.529848 q -0.154538,0.19869 -0.353223,0.529845 -0.1987,0.331151 -0.1987,0.441534 -0.04416,0.242843 -0.08833,0.596076 -0.04416,0.331151 -0.04416,0.441535 0,0.50777 0.154538,0.949308 0.154582,0.441535 0.551968,0.816842 0.264898,0.264926 0.949293,0.441536 0.684379,0.154541 1.214191,0.154541 0.132487,-0.02207 0.198685,-0.02207 0.971404,-0.132456 1.655799,-0.132456 1.280464,0 2.09733,0.397386 0.706446,0.485692 0.860969,0.573997 v -7.219131 q 0,-0.132457 -0.132487,-0.110391 -0.110405,0.02207 -0.70649,0.264924 -0.684395,0.331155 -1.368789,0.927227 -0.242847,0.176614 -0.507746,0.596076 -0.264898,0.397385 -0.375334,0.794767 0.08833,-0.02207 0.176649,-0.02207 0.08832,0 0.132487,0 0.618121,0 0.90513,0.529845 0.110406,0.220767 0.154538,0.41946 0.04416,0.198689 0.04416,0.397379 0,0.596079 -0.463598,1.015539 -0.353268,0.331151 -0.59607,0.375304 -0.220796,0.02207 -0.39737,0.04416 -0.176649,0 -0.264958,0 -0.993456,0 -1.523312,-0.573996 -0.507761,-0.596076 -0.507761,-1.589533 -0.04416,-0.353235 0.353223,-1.302538 0.419496,-0.949302 0.79477,-1.324609 0.309105,-0.286999 0.485694,-0.44154 0.529857,-0.463609 0.88308,-0.728533 0.220751,-0.154536 0.551908,-0.331155 0.353223,-0.176614 0.640232,-0.242841 0.309121,-0.08831 0.59607,-0.154546 0.28701,-0.06623 0.618181,-0.06623 0.132487,0 0.264899,0.04416 0.132487,0.04416 0.353283,0.132457 0.242802,0.08831 0.463583,0.286999 0.242862,0.19869 0.419436,0.375304 0.264959,0.264919 0.353283,0.375307 0.220736,0.264921 0.220736,0.596076 z M 8.9607748,1.3604635 H 6.7972898 V 12.354737 L 5.2077648,10.963892 V 5.0693783 q 0,-0.1766189 -0.154582,-0.4415353 Q 4.9206958,4.3629191 4.7441218,4.2525345 4.5675328,4.1200778 4.4792228,4.0759201 4.1480518,3.9213838 3.8610418,3.9213838 q -0.242847,0 -0.397385,0.3090726 -0.132486,0.286999 -0.08832,0.6181498 l 0.110405,0.684384 -1.148038,0.3973837 q 0.132487,-0.264921 0.132487,-0.4415354 0,-0.1545363 -0.04416,-0.2207721 -0.02208,-0.08831 -0.06624,-0.1103906 -0.30907,-0.5960746 -0.529866,-0.7947642 -0.309061,-0.2649238 -1.05965396,-0.4194601 -0.132486,-0.044162 -0.441547,-0.044162 -0.574019,0 -1.08178,0.3532333 -0.48569404,0.3532259 -0.61816604,0.9493005 -0.04416,0.2649209 -0.04416,0.3532303 0,0.4194604 0.242862,0.6843842 0.24284704,0.2649239 0.61816604,0.3973791 -0.08832,-0.2428428 -0.08832,-0.4856885 0,-0.5298434 0.419436,-0.9051474 0.419481,-0.3753085 0.971389,-0.3753085 0.90514596,0 1.32462696,1.0376101 0.353223,0.8389219 0.220736,1.1700771 -0.264898,0.5960716 -0.772644,0.8609955 -0.507805,0.2649239 -1.12594196,0.2649239 -0.59607,0 -1.081764,-0.1324567 -0.46360504,-0.132457 -0.66229004,-0.2869992 -0.794815,-0.4194602 -1.170089,-1.1259194 -0.375334,-0.7064592 -0.375334,-1.5674549 0,-0.3311582 0.06624,-0.7064666 0.242847,-1.0817632 0.949293,-1.7440691 0.706445,-0.662306 1.58952504,-0.662306 0.618166,0 1.015551,0.1545438 0.41943696,0.1324567 0.99345496,0.5519154 0.110406,0.08831 0.176589,0.1766174 0,0.022111 0.02208,0.066228 0,-0.1545378 0.618181,-0.5077622 0.618121,-0.3753084 0.971344,-0.3753084 0.838917,0 1.214251,0.3753084 0.176634,0.2649164 0.375334,0.5298403 0.08832,0.3090801 0.110405,0.3753069 0.02208,-0.044162 0.04416,-0.088309 V 1.3604575 h -8.433372 l -1.699889,-1.56745467 h 12.142216 z m -11.947676,0 h -5.67377 q 0.08832,0.198694 0.154538,0.286999 0.242847,0.286999 0.662328,0.2428457 1.147993,0.3973866 1.810277,1.3687696 0.574019,0.8609955 0.574019,1.8323786 -0.02208,0.1986881 -0.02208,0.2869975 -0.110406,0.9713802 -0.750608,1.7219912 -0.750593,0.9051562 -2.16353,1.3687667 l -0.04416,0.04416 q 0.110406,0.154544 0.949293,0.706459 1.037618,0.662306 1.258414,0.8610032 l 2.428445,2.318066 0.08833,1.545381 -0.794818,-0.772695 q -0.750616,-0.750609 -1.567437,-1.346681 -0.816867,-0.618149 -1.942793,-1.236307 -1.103816,-0.6181492 -2.0310578,-0.9934582 -1.08178,-0.441535 -2.340133,-0.728533 l -1.721997,-3.4881424 q 0.971389,0.6181528 1.920682,0.9051518 0.949293,0.2649239 1.766174,0.2649239 0.264898,0 0.375274,-0.022066 0.9272418,-0.088309 1.3908248,-0.3532258 0.59613,-0.3311582 1.368774,-1.2804633 0.06624,-0.1324568 0.06624,-0.3311508 0,-0.3753084 -0.242803,-0.6623059 -0.220792,-0.2869992 -0.551963,-0.4415355 -0.331112,-0.1766145 -0.507746,-0.1766145 -0.1987,0.044162 -0.353223,0.066228 0,0.4856945 -0.264914,0.8830766 -0.264943,0.375304 -0.70649,0.662303 -0.6402318,0.3973865 -1.3908398,0.3973865 -0.529857,0 -0.905131,-0.2207677 -0.375319,-0.2428457 -0.463643,-0.6181542 -0.08833,-0.3753039 -0.08833,-0.5739965 0,-0.4856915 0.331112,-0.8830736 0.1987,-0.2428457 0.79477,-0.7285373 0.264958,-0.198694 1.037603,-0.4415353 0.331171,-0.088309 0.353282,-0.1545363 0.06624,-0.08831 -0.06624,-0.1545438 -0.242845,-0.1545359 -0.573957,-0.1545359 h -3.26742 l -1.567414,-1.54538097 h 7.7710218 q 0.574019,0 0.905146,-0.1545364 0.331157,-0.1545363 0.198685,-0.3311507 0,-0.39739853 -0.331112,-0.57400243 -0.331171,-0.1987 -0.816866,-0.1987 -0.1987,0 -0.309076,0.022081 -0.70643,0.022081 -1.170074,0.044162 -0.463598,0 -1.0155058,0.066243 -1.589525,0 -2.318082,-0.1986851 -0.706491,-0.2207811 -1.214251,-0.6623134 -0.507746,-0.4415324 -0.68438,-0.8389175 -0.1987,-0.4194661 -0.1987,-0.8609985 0,-0.397385 0.132487,-0.6843796 0.110405,-0.3090756 0.264898,-0.4856945 0.04416,-0.1324865 0.264958,-0.198685 0.198685,-0.066243 0.397385,-0.022081 0.220737,0.1545378 0.309061,0.397385 -0.264913,0.3973702 -0.331172,0.5298418 -0.1987,0.3090756 -0.1987,0.375304 0,0.044162 0.132487,0.088324 0.132487,0.022081 0.198685,0.1766189 0.08832,0.1324866 0.419436,0.3090607 0.353283,0.1545378 0.507806,0.1545378 0.154538,0.044162 0.397385,0.044162 0.154523,0 0.59607,-0.022081 0.441547,-0.044162 0.706446,-0.044162 0.353223,0 1.1259268,-0.044162 0.79477,-0.066243 1.147978,-0.066243 0.50776,0 1.037617,0.1324865 0.529857,0.1324866 0.905191,0.3753189 0.39737,0.2207662 0.750593,0.6181513 0.353223,0.375304 0.551923,0.8609985 0.198685,0.48569304 0.198685,1.17007853 h 0.816821 z M -13.8622,1.272154 h -2.185596 V 12.487193 L -17.548997,10.98597 V 3.8109918 L -17.659402,2.331842 q -0.242907,-0.4636134 -0.529857,-0.684384 -0.419481,-0.3311508 -1.103876,-0.3311508 -0.220751,0 -0.353222,0.022111 l -1.633688,-1.54537957 h 2.251869 q 0.331112,0 0.750593,0.2649194 0.419436,0.2428503 0.750608,0.7506124 0.264958,0.39738657 0.529856,1.14799747 0.154538,0.5077697 0.331172,1.0155318 0.04416,-0.1545363 -0.06624,-0.6843766 -0.110406,-0.5298432 -0.662284,-2.31807007 -0.132486,-0.5077651 -0.132486,-0.97138303 0,-0.5519244 0.06624,-0.9051472 0,-0.066243 0.06624,-0.1766189 l 0.662284,0.4636134 0.574019,1.41292133 h 0.79477 z m -5.073534,0.088309 h -2.273905 V 12.420967 L -22.90954,10.787282 V 7.7406774 q 0,-0.4636164 0.02208,-1.2363025 0.02208,-0.7947686 0.02208,-1.2363085 0,-0.5077697 -0.06624,-0.7285329 -0.154524,-0.3311507 -0.2649,-0.6623059 -0.242847,-0.6181498 -0.463643,-0.9051517 -0.220751,-0.286999 -0.860984,-0.9051533 -0.242847,-0.2207676 -0.772704,-0.3311507 -0.50776,-0.1324567 -0.750607,-0.088309 -0.640233,0.088309 -0.971345,0.2428457 -0.485694,0.2428503 -0.838917,0.8389204 0.397385,-0.088309 0.905131,-0.088309 0.640232,0 1.170089,0.2649238 0.551908,0.2649239 0.838917,0.662306 0.286965,0.3973865 0.220751,0.9272298 0,0.5298403 -0.220751,0.9934582 -0.06624,0.1545359 -0.507805,0.816839 -0.309061,0.4856945 -0.529797,0.7726935 -0.441548,0.4856871 -0.949353,1.0817662 l -1.611577,-1.6557627 q 0.551908,-0.3973865 0.662284,-0.5077711 0.132486,-0.1324567 0.750608,-0.7726892 0.507805,-0.4415353 0.728542,-0.6623059 0.441547,-0.4415353 0.242862,-0.6402249 -0.220751,-0.2428502 -0.529872,-0.2428502 -0.331112,0 -1.059654,0.4636134 -0.728556,0.4415398 -1.059728,0.4415398 -0.198685,0 -0.375274,-0.1103906 -0.485695,-0.286999 -0.728542,-0.6843766 -0.220751,-0.3973865 -0.220751,-0.8389218 0,-0.7506154 0.573974,-1.5674547 0.463643,-0.66231047 0.993455,-0.94930797 0.286995,-0.1545378 0.419481,-0.198694 0.154523,-0.066228 0.397385,-0.1545363 0.264899,-0.08831 0.551908,-0.1324567 0.309061,-0.044162 0.596071,-0.044162 0.816866,0 1.545363,0.2649239 0.728542,0.2649164 1.125927,0.6181497 0.640232,0.57399797 1.170089,1.58953277 0.264913,0.5077711 0.618136,1.3908403 -0.176589,-0.6402234 -0.242862,-1.03761 -0.264899,-1.2142288 -0.331112,-2.00899737 -0.06624,-0.7947612 -0.06624,-1.78822833 0,-0.4415323 0,-0.7285269 0,-0.2869945 0.02208,-0.5077756 l 1.236302,0.9713891 q -0.132486,0.2649134 -0.132486,0.57399647 0,0.33115076 0.220751,0.48568706 0.132486,0.044162 0.331171,0.088309 0.198686,0.022066 0.331157,0.022066 0.1987,0 0.286965,-0.044162 z m -13.146769,3.4439899 q -0.331127,0.3532304 -0.750608,0.5298493 -0.397385,0.1766099 -0.794756,0.1766099 -1.015521,0 -1.854438,-0.9051517 -0.816866,-0.9272268 -0.816866,-2.008993 0,-0.4856885 0.176633,-0.8830706 0.1987,-0.4194602 0.618137,-0.77269347 0.728541,-0.5739965 1.567459,-0.5739965 1.037617,0 1.810276,0.81684217 0.794815,0.7947687 0.794815,1.8323786 0,0.9713831 -0.750652,1.7882253 z m 2.715452,8.5878981 q -0.816822,-0.750617 -1.611577,-1.501228 -0.662343,-0.573998 -1.832372,-1.434993 -0.750668,-0.5298482 -1.479165,-1.0817662 -0.59607,-0.419461 -1.633673,-1.0376103 l 0.110406,-2.8920712 q 0.816806,0.6623061 1.412876,1.1921508 0.618181,0.5298478 1.346723,1.236307 0.706446,0.6402237 2.251809,2.4063749 0.507806,0.596076 1.435003,1.677843 z M -33.495395,3.7226868 Q -32.811,3.2369997 -32.811,2.8396177 q 0,-0.2649254 -0.309121,-0.4194617 -0.28695,-0.1766145 -0.706446,-0.1766145 -0.441532,0 -0.728541,0.2207677 -0.419437,0.3532289 -0.419437,1.0376144 0,0.286999 0.110406,0.4636134 0.132486,0.1545363 0.39737,0.1545363 0.132487,0 0.353223,-0.066228 0.242847,-0.066229 0.618181,-0.3311511 z m -3.43537,-2.4505283 h -2.185596 V 12.487198 l -1.50126,-1.501223 V 3.8109962 l -0.110406,-1.4791497 q -0.242847,-0.4636134 -0.529857,-0.684384 -0.419436,-0.3311508 -1.103815,-0.3311508 -0.220796,0 -0.353223,0.022111 l -1.633688,-1.54537957 h 2.251809 q 0.331172,0 0.750608,0.2649194 0.419481,0.2428502 0.750653,0.7506124 0.264898,0.39738657 0.529797,1.14799747 0.154582,0.5077696 0.331171,1.0155318 0.04416,-0.1545363 -0.06624,-0.6843766 -0.110405,-0.5298433 -0.662328,-2.31807007 -0.132487,-0.5077652 -0.132487,-0.97138303 0,-0.5519289 0.06624,-0.9051517 0,-0.066243 0.06624,-0.1766189 l 0.662329,0.4636134 0.573974,1.41292583 h 0.794815 z m -4.938317,0.088309 h -7.660633 v 7.0204418 q 0,0.2869995 0.132487,0.4636105 0.154583,0.176618 0.485695,0.176618 0.419481,0 0.993455,-0.397382 0.684394,-0.4856952 1.47912,-1.4570708 0.397385,-0.4856961 0.507805,-1.0376144 -0.68435,0 -1.148008,-0.3311508 -0.551908,-0.3973867 -0.551908,-1.037619 0,-0.17661 0.06624,-0.4194527 0.198686,-0.7064592 0.640173,-0.9713831 0.463614,-0.2869975 1.015521,-0.2869975 0.110406,0 0.220796,0 0.132487,0.044162 0.353223,0.088309 0.220752,0.022066 0.529812,0.286999 0.331172,0.2428458 0.59607,0.662306 0.264959,0.4194602 0.309121,0.6181497 0.06624,0.1766189 0.06624,0.7726891 0,1.0376145 -0.220751,1.5674593 -0.198686,0.5298447 -0.971389,1.5012272 -0.971404,1.214225 -2.27389,1.7882212 -0.419496,0.176619 -1.08178,0.331155 -0.154523,0.02207 -0.30906,0.04416 -0.154523,0 -0.220796,0 -0.331112,0 -0.77266,-0.286998 -0.286994,-0.198694 -0.59607,-0.5960762 -0.441532,-0.551923 -0.640217,-1.170073 -0.110406,-0.3311531 -0.110406,-0.7064571 V 7.1004645 1.3604873 h -0.883079 l -1.567415,-1.56745467 h 8.10218 q 0.02208,-0.044162 0.06624,-0.1766189 0.04416,-0.1324567 0.04416,-0.1986895 0,-0.39738656 -0.353223,-0.57400843 -0.331171,-0.1986851 -0.816866,-0.1986851 -0.19867,0 -0.286935,0.022081 -0.70649,0.022081 -1.170089,0.044162 -0.463583,0 -0.883079,0.044162 -0.397385,0.044162 -0.618122,0.066243 -0.198744,0 -0.331171,0 -0.816866,0 -1.501261,-0.1987 -0.662283,-0.2207661 -1.19214,-0.6622985 -0.529797,-0.4636134 -0.706446,-0.8609984 -0.198685,-0.4194662 -0.198685,-0.8609985 0,-0.375304 0.132487,-0.6623134 0.110405,-0.3090757 0.264913,-0.4856796 0.04416,-0.1324866 0.264899,-0.1987 0.198685,-0.066243 0.375318,-0.022081 0.242863,0.1104054 0.331172,0.397385 -0.353208,0.4194513 -0.353208,0.6843796 0,0.1545378 0.132487,0.4636134 0.04416,0.1324866 0.264958,0.2649284 0.220751,0.1104055 0.50776,0.1986851 0.309061,0.066243 0.507746,0.066243 0.04416,0 0.441548,-0.044162 0.39737,-0.044162 0.927226,-0.044162 0.353223,0 1.125942,-0.044162 0.794755,-0.066243 1.147978,-0.066243 0.507761,0 1.037588,0.1324866 0.529856,0.1324865 0.905131,0.3753039 0.397385,0.2207811 0.750608,0.6181662 0.353267,0.3753039 0.551967,0.8609835 0.08832,0.1987 0.110405,0.46362689 0.02208,0.24284584 0.02208,0.59607464 h 0.463599 z" />
  </g>
</svg>
