<?xml version="1.0" encoding="UTF-8"?>
<svg width="410mm" height="340mm" version="1.1" viewBox="0 0 410 340" xmlns="http://www.w3.org/2000/svg">
	<path d="m35 5h340c16.6 0 30 13.38 30 30v270c0 16.6-13.4 30-30 30h-340c-16.62 0-30-13.4-30-30v-270c0-16.62 13.38-30 30-30z" fill="#00703c" fill-rule="evenodd" stroke="#f2f2f2" stroke-dashoffset="34.899" stroke-width="10" style="paint-order:fill markers stroke"/>
	<g fill="#f2f2f2" stroke-width="3.204" aria-label="N2">
		<path d="m202.7 303.9v-100h-21v71.2l-46.9-71.2h-26.4v100h21v-70l47.9 70z"/>
		<path d="m306.3 303.9v-18h-36.7l19.6-14.8c13.5-10.2 19.1-20.4 19.1-34.9 0-21.3-14.7-34.7-37.9-34.7-13.2 0-22.2 3.6-29.7 11.9-5.7 6.3-8.9 14.2-8.9 22.8 0 1 0.2 3.1 0.5 5.5h21c0.4-7 1.2-10.8 2.8-13.8 2.6-4.6 8.1-7.5 14.6-7.5 9.6 0 15.8 6.3 15.8 15.9 0 8.4-4.2 15.3-13.1 21.9l-38 27.7v18z"/>
	</g>
	<g fill="#f2f2f2" stroke-width=".26465" aria-label="Gb2">
		<path d="m147.8 171.5-5.7-5.5q-1.1-0.9-2-5-2.3-9.4-4.8-12.4-3.5-3.7-7.8-5-4.4-1.6-10.1-1.6-5 0-17.41 1.8-12.36 1.8-19.46 1.8-12.59-1.1-20.83-6.6-6.87-4.6-10.31-11.9-2.29-3.9-3.89-9.9-1.37-6.2-1.37-13.3 0-5.45 0.23-7.97 0.45-2.52 1.83-7.33 0.68-2.06 4.12-8.7 1.6-2.97 3.43-5.95l4.58 4.81q-1.6 2.52-2.97 5.04-2.07 3.89-2.07 5.26 0 0.92-0.22 2.29-0.92 5.73-0.92 9.15 0 6.2 1.6 11.5 1.61 5.2 6.18 9.6 3.44 3.4 12.37 5.5 9.16 2 13.96 1.3 9.62-1.6 17.65-1.6 12.6 0 20.8 3.9 5.7 4.6 11.5 9.2v-83.35q0-2.52-3.5-2.52-1.8 0-4.1 0.69-2.3 0.68-5 2.06-2.8 1.14-6.4 3.89-3.7 2.52-7.6 6.18-4.1 3.21-7.1 8.02-2.74 4.8-3.88 10.99 3.48-0.69 5.98-0.69 2 0 4.1 0.69 2.1 0.68 3.9 4.8 1.8 3.9 1.8 7.56 0 5.48-3.9 9.38-3 2.8-5.9 3.4-4.1 0.5-5.75 0.5-9.39 0-14.43-6-5.95-7.05-4.58-15.52 2.52-16.26 13.97-29.54 3.66-4.35 11.19-10.3 12.9-6.18 15.8-7.1 3.2-1.14 7.8-1.14 4.1 0 8.7 3.66 1.8 1.6 5.3 5.04 5.2 5.26 5.2 9.15z"/>
		<path d="m274 54.49h-19.9v119.51l-4.4-5.7q0.3-0.9 0.3-3.5 0-9.3-4.4-23.1-4.1-13.7-9.6-25.4-3.4-6.9-12.1-14-10.3-8.2-18.6-8.2-0.4 1.14-0.9 2.06 6.4 8.24 6.4 14.44 0 4.1-1.8 8.5-3.4 7.3-13.7 7.3-2.8 0-6-0.7-5.9-0.7-9.6-3.9-4.4-3.9-5.7-12.1-0.5-3.2-0.5-4.8 0-11.49 8-18.81 8.3-7.56 19.7-7.56 4.8 0 9.9 1.6 5 1.6 9.6 5.04 6.8 5.04 13 14.42 9 13.71 9 16.01v-61.11h-78.1l-11.5-11.45h109z"/>
		<path d="m379.6 189.3q-9.1-9.6-17.1-16-7.8-6.2-20-13.7-16.4-10.3-26.3-14.9-12.4-5.7-27.5-8.5l-11.2-38.9q0.5 1.84 1.6 3.2 1.2 1.4 3.7 3.4 6.8 5.5 21 10.6 12 4.1 18.8 4.8 6.9 0.9 16-3.5 10.1-5 10.1-11.9 0-1.6-1.1-4.31-6-12.59-19.9-19.69-11-4.8-21.8-9.61-10.5-5.5-10.5-14.89 0-3.66 1.3-8.47 1.9-1.6 3-2.29 3.7-2.29 7.1-2.29 1.4 0 2.8 0.46 1.3 0.23 3.4 0.46 5.3 1.83 6.2 11.22 6.2 1.83 13.7 6.64 6.2 4.12 13.3 10.3 12.8 11.22 12.8 27.71 0 1.86-0.4 5.06-1.4 10-5.3 15.3-1.8 2.5-11.4 10.3-2.1 1.6-6 3t-8.5 2.7q6.7 3.9 17.7 12.2 5 3.9 10.7 8.2 5.7 4.1 10.6 8.7 5.9 5.7 10.5 10.1z"/>
	</g>
</svg>
