<?xml version="1.0" encoding="UTF-8" standalone="no"?>
<svg
   xmlns:dc="http://purl.org/dc/elements/1.1/"
   xmlns:cc="http://creativecommons.org/ns#"
   xmlns:rdf="http://www.w3.org/1999/02/22-rdf-syntax-ns#"
   xmlns:svg="http://www.w3.org/2000/svg"
   xmlns="http://www.w3.org/2000/svg"
   viewBox="0 0 1750.0021 450"
   height="450"
   width="1750.0021"
   xml:space="preserve"
   version="1.1"
   id="svg8950"><metadata
     id="metadata8956"><rdf:RDF><cc:Work
         rdf:about=""><dc:format>image/svg+xml</dc:format><dc:type
           rdf:resource="http://purl.org/dc/dcmitype/StillImage" /><dc:title></dc:title></cc:Work></rdf:RDF></metadata><defs
     id="defs8954" /><g
     transform="matrix(1.25,0,0,-1.25,0,450)"
     id="g8958"><g
       id="g8960"><path
         id="path8962"
         style="fill:#f0c900;fill-opacity:1;fill-rule:evenodd;stroke:none"
         d="m 303.777,360 c -22.574,0 -44.98,-6.008 -64.664,-17.379 L 21.324,216.902 C 8.18,209.305 0,195.164 0,179.898 0,164.805 8.18,150.711 21.324,143.07 L 239.113,17.313 C 258.797,5.93 281.039,0 303.777,0 L 1351.145,0 C 1378.129,0 1400,21.871 1400,48.855 l 0,262.29 c 0,26.984 -21.871,48.855 -48.855,48.855 l -1047.368,0 z" /><path
         id="path8964"
         style="fill:#000000;fill-opacity:1;fill-rule:evenodd;stroke:none"
         d="m 1348,347.938 c 22.09,0 40,-17.911 40,-40 L 1388,52 c 0,-22.09 -17.91,-40 -40,-40 L 303.715,12 c -20.227,0 -40.289,5.273 -57.883,15.301 L 28.93,152.598 c -13.2,7.683 -16.856,16.117 -16.856,27.293 0,11.312 3.512,19.707 16.696,27.386 l 216.66,125.192 c 17.593,10.129 37.496,15.469 57.722,15.469 l 1044.848,0 z" /><path
         id="path8966"
         style="fill:#f0c900;fill-opacity:1;fill-rule:evenodd;stroke:none"
         d="m 1343.988,327.934 c 13.254,0 24.012,-10.746 24.012,-24 l 0,-247.832 C 1368,42.844 1357.242,32 1343.988,32 L 303.715,32 c -17.27,0 -34.445,4.844 -49.41,13.563 L 39.527,169.531 c -4.363,2.473 -7.437,5.43 -7.437,10.36 0,5.101 2.996,8.066 7.355,10.547 L 254.387,314.52 c 14.965,8.589 32.058,13.414 49.328,13.414 l 1040.273,0 z" /><path
         id="path8968"
         style="fill:#000000;fill-opacity:1;fill-rule:evenodd;stroke:none"
         d="m 1250.922,174.57 c 2.883,3.328 6.976,5.301 11.375,5.301 4.707,0 9.105,-2.121 11.828,-5.91 3.039,3.789 7.738,5.91 12.598,5.91 8.941,0 16.218,-7.285 16.218,-16.223 l 0,-27.609 -8.636,0 0,26.543 c 0,4.856 -3.793,8.648 -8.649,8.648 -4.855,0 -8.648,-3.792 -8.648,-8.648 l 0,-26.543 -8.789,0 0,26.543 c 0,4.856 -3.793,8.648 -8.653,8.648 -4.703,0 -8.644,-3.792 -8.644,-8.648 l 0,-26.543 -8.649,0 0,43.379 8.649,0 m -54.156,17.293 8.656,0 0,-37.918 16.832,20.625 10.16,0 -14.559,-16.836 16.833,-26.543 -10.77,0 -11.523,20.024 -6.973,-7.583 0,-12.441 -8.656,0 0,60.672 z" /><path
         id="path8970"
         style="fill:#000000;fill-opacity:1;fill-rule:nonzero;stroke:none"
         d="m 503.734,136.77 29.368,0 c 6.066,0 11.363,1.293 15.894,3.882 4.609,2.668 8.293,6.149 11.043,10.434 1.133,1.699 1.981,3.238 2.547,4.613 0.566,1.375 1.012,2.992 1.336,4.852 0.324,1.941 0.566,4.449 0.726,7.523 0.165,3.156 0.243,7.121 0.243,11.895 0,4.933 -0.039,8.734 -0.121,11.406 -0.079,2.75 -0.282,5.055 -0.606,6.914 -0.242,1.941 -0.687,3.68 -1.336,5.219 -0.566,1.535 -1.414,3.234 -2.547,5.097 -2.75,4.692 -6.39,8.29 -10.922,10.797 -4.527,2.508 -9.668,3.762 -15.41,3.762 l -30.215,0 0,-86.394 z m 13.106,74.019 15.652,0 c 3.641,0 6.633,-0.566 8.981,-1.699 2.347,-1.051 4.488,-2.914 6.429,-5.582 0.891,-1.215 1.578,-2.426 2.067,-3.641 0.566,-1.215 0.969,-2.668 1.211,-4.367 0.242,-1.617 0.406,-3.641 0.484,-6.066 0.082,-2.43 0.121,-5.746 0.121,-9.954 0,-4.285 -0.039,-7.644 -0.121,-10.07 -0.078,-2.426 -0.242,-4.367 -0.484,-5.824 -0.16,-1.375 -0.446,-2.59 -0.848,-3.641 -0.406,-0.972 -1.012,-2.062 -1.82,-3.277 -3.399,-5.016 -8.739,-7.523 -16.02,-7.523 l -15.652,0 0,61.644 z" /><path
         id="path8972"
         style="fill:#000000;fill-opacity:1;fill-rule:nonzero;stroke:none"
         d="m 576.16,167.59 c 0,-6.473 0.485,-11.367 1.457,-14.684 1.051,-3.234 2.789,-6.226 5.215,-8.976 2.023,-2.266 4.531,-4.168 7.523,-5.703 3.075,-1.457 6.797,-2.188 11.165,-2.188 4.371,0 8.05,0.731 11.043,2.188 3.074,1.535 5.621,3.437 7.644,5.703 2.426,2.75 4.125,5.742 5.098,8.976 1.05,3.317 1.578,8.211 1.578,14.684 0,6.39 -0.528,11.203 -1.578,14.441 -0.973,3.317 -2.672,6.348 -5.098,9.098 -2.023,2.266 -4.57,4.129 -7.644,5.582 -2.993,1.539 -6.672,2.309 -11.043,2.309 -4.368,0 -8.09,-0.77 -11.165,-2.309 -2.992,-1.453 -5.5,-3.316 -7.523,-5.582 -2.426,-2.75 -4.164,-5.781 -5.215,-9.098 -0.972,-3.238 -1.457,-8.051 -1.457,-14.441 z m 38.344,-0.121 c 0,-4.289 -0.203,-7.364 -0.606,-9.223 -0.406,-1.859 -1.214,-3.641 -2.425,-5.34 -0.973,-1.293 -2.348,-2.386 -4.129,-3.273 -1.778,-0.813 -3.719,-1.215 -5.824,-1.215 -2.02,0 -3.961,0.402 -5.825,1.215 -1.777,0.887 -3.152,1.98 -4.125,3.273 -1.215,1.699 -2.023,3.481 -2.425,5.34 -0.407,1.859 -0.61,4.977 -0.61,9.344 0,4.289 0.203,7.363 0.61,9.223 0.402,1.859 1.21,3.64 2.425,5.339 0.973,1.293 2.348,2.344 4.125,3.153 1.864,0.89 3.805,1.336 5.825,1.336 2.105,0 4.046,-0.446 5.824,-1.336 1.781,-0.809 3.156,-1.86 4.129,-3.153 1.211,-1.699 2.019,-3.48 2.425,-5.339 0.403,-1.86 0.606,-4.977 0.606,-9.344 z" /><path
         id="path8974"
         style="fill:#000000;fill-opacity:1;fill-rule:nonzero;stroke:none"
         d="m 639.867,136.77 12.375,0 0,37.007 c 0,4.207 1.172,7.403 3.52,9.586 2.343,2.184 5.176,3.278 8.492,3.278 1.539,0 2.914,-0.243 4.129,-0.727 1.211,-0.406 2.547,-1.176 4.004,-2.309 l 8.976,10.68 c -4.043,3.156 -8.332,4.735 -12.859,4.735 -6.797,0 -12.137,-2.43 -16.02,-7.282 l -0.242,0 0,6.551 -12.375,0 0,-61.519 z" /><path
         id="path8976"
         style="fill:#000000;fill-opacity:1;fill-rule:nonzero;stroke:none"
         d="m 687.758,198.289 -6.192,0 0,-9.465 6.192,0 0,-36.886 c 0,-4.774 1.375,-8.497 4.125,-11.165 2.75,-2.671 6.347,-4.003 10.797,-4.003 l 6.433,0 0,11.648 -4.613,0 c -2.91,0 -4.367,1.535 -4.367,4.609 l 0,35.797 8.98,0 0,9.465 -8.98,0 0,18.688 -12.375,0 0,-18.688 z" /><path
         id="path8978"
         style="fill:#000000;fill-opacity:1;fill-rule:nonzero;stroke:none"
         d="m 721.41,136.77 12.375,0 0,36.644 c 0,4.125 1.133,7.363 3.399,9.707 2.347,2.348 5.3,3.52 8.859,3.52 3.559,0 6.473,-1.172 8.738,-3.52 2.262,-2.344 3.395,-5.582 3.395,-9.707 l 0,-36.644 12.379,0 0,36.644 c 0,4.125 1.133,7.363 3.398,9.707 2.344,2.348 5.297,3.52 8.856,3.52 3.562,0 6.472,-1.172 8.738,-3.52 2.266,-2.344 3.398,-5.582 3.398,-9.707 l 0,-36.644 12.375,0 0,40.89 c 0,3.399 -0.605,6.434 -1.82,9.102 -1.133,2.672 -2.707,4.894 -4.73,6.676 -2.024,1.859 -4.247,3.234 -6.676,4.125 -2.426,0.968 -4.852,1.457 -7.281,1.457 -4.204,0 -7.887,-0.649 -11.04,-1.942 -3.074,-1.297 -5.867,-3.32 -8.375,-6.07 -2.585,2.672 -5.136,4.652 -7.644,5.949 -2.508,1.375 -5.742,2.063 -9.707,2.063 -6.797,0 -12.133,-2.43 -16.016,-7.282 l -0.246,0 0,6.551 -12.375,0 0,-61.519 z" /><path
         id="path8980"
         style="fill:#000000;fill-opacity:1;fill-rule:nonzero;stroke:none"
         d="m 824.012,157.398 c 0,-3.316 0.566,-6.351 1.699,-9.101 1.215,-2.672 2.832,-4.934 4.855,-6.797 2.024,-1.777 4.247,-3.152 6.672,-4.125 2.508,-0.891 4.977,-1.336 7.403,-1.336 6.714,0 12.015,2.43 15.898,7.281 l 0.242,0 0,-6.55 12.375,0 0,61.519 -12.375,0 0,-36.644 c 0,-4.125 -1.133,-7.364 -3.398,-9.707 -2.266,-2.348 -5.176,-3.52 -8.738,-3.52 -3.559,0 -6.512,1.172 -8.856,3.52 -2.266,2.343 -3.398,5.582 -3.398,9.707 l 0,36.644 -12.379,0 0,-40.891 z" /><path
         id="path8982"
         style="fill:#000000;fill-opacity:1;fill-rule:nonzero;stroke:none"
         d="m 889.188,136.77 12.378,0 0,36.644 c 0,4.125 1.133,7.363 3.399,9.707 2.344,2.348 5.297,3.52 8.855,3.52 3.559,0 6.473,-1.172 8.739,-3.52 2.265,-2.344 3.398,-5.582 3.398,-9.707 l 0,-36.644 12.375,0 0,40.89 c 0,3.399 -0.605,6.434 -1.82,9.102 -1.133,2.672 -2.711,4.894 -4.731,6.676 -2.023,1.859 -4.25,3.234 -6.676,4.125 -2.425,0.968 -4.851,1.457 -7.281,1.457 -6.793,0 -12.133,-2.43 -16.015,-7.282 l -0.243,0 0,6.551 -12.378,0 0,-61.519 z" /><path
         id="path8984"
         style="fill:#000000;fill-opacity:1;fill-rule:nonzero;stroke:none"
         d="m 991.129,136.77 12.379,0 0,86.394 -12.379,0 0,-31.426 c -2.508,2.344 -5.055,4.125 -7.645,5.34 -2.507,1.293 -5.257,1.942 -8.25,1.942 -3.558,0 -6.754,-0.731 -9.586,-2.188 -2.75,-1.453 -5.054,-3.394 -6.918,-5.824 -0.89,-1.133 -1.617,-2.305 -2.183,-3.516 -0.484,-1.133 -0.891,-2.551 -1.215,-4.25 -0.32,-1.699 -0.566,-3.762 -0.727,-6.187 -0.16,-2.426 -0.242,-5.582 -0.242,-9.465 0,-3.883 0.082,-7.078 0.242,-9.586 0.161,-2.508 0.364,-4.57 0.606,-6.188 0.324,-1.617 0.769,-3.035 1.336,-4.25 0.566,-1.211 1.293,-2.382 2.183,-3.515 1.864,-2.43 4.168,-4.371 6.918,-5.824 2.832,-1.457 6.028,-2.188 9.586,-2.188 3.075,0 5.985,0.649 8.739,1.941 2.75,1.297 5.136,3.036 7.156,5.219 l 0,-6.429 z m -12.133,49.871 c 2.75,0 4.934,-0.567 6.551,-1.7 1.699,-1.05 2.914,-2.464 3.641,-4.246 0.808,-1.781 1.335,-3.722 1.578,-5.824 0.242,-2.023 0.363,-4.449 0.363,-7.281 0,-2.832 -0.121,-5.297 -0.363,-7.402 -0.243,-2.102 -0.77,-4.043 -1.578,-5.825 -0.727,-1.781 -1.942,-3.234 -3.641,-4.367 -1.617,-1.051 -3.801,-1.578 -6.551,-1.578 -2.75,0 -4.976,0.527 -6.676,1.578 -1.699,1.051 -2.953,2.426 -3.761,4.125 -0.727,1.781 -1.211,3.723 -1.454,5.824 -0.246,2.102 -0.367,4.653 -0.367,7.645 0,2.914 0.121,5.422 0.367,7.523 0.243,2.102 0.727,4.043 1.454,5.825 0.808,1.781 2.062,3.156 3.761,4.125 1.7,1.05 3.926,1.578 6.676,1.578 z" /><path
         id="path8986"
         style="fill:#000000;fill-opacity:1;fill-rule:nonzero;stroke:none"
         d="m 1079.055,175.84 5.218,0 c 3.805,0 6.957,-1.254 9.465,-3.762 2.59,-2.426 3.883,-5.742 3.883,-9.949 0,-4.125 -1.293,-7.441 -3.883,-9.949 -2.508,-2.508 -5.582,-3.762 -9.222,-3.762 -3.317,0 -5.985,0.809 -8.008,2.426 -2.024,1.699 -3.641,4.168 -4.852,7.402 l -12.379,0 c 1.133,-6.957 3.965,-12.418 8.496,-16.383 4.61,-3.883 9.95,-5.824 16.016,-5.824 3.641,0 7.039,0.609 10.191,1.82 3.239,1.297 6.028,3.118 8.375,5.461 2.426,2.348 4.286,5.137 5.583,8.375 1.375,3.235 2.062,6.836 2.062,10.797 0,3.805 -0.852,7.363 -2.551,10.68 -1.617,3.316 -4.164,6.066 -7.644,8.25 3.316,2.183 5.664,4.773 7.039,7.766 1.457,3.074 2.183,6.433 2.183,10.074 0,3.152 -0.605,6.187 -1.82,9.101 -1.211,2.992 -2.953,5.66 -5.215,8.008 -2.265,2.344 -4.976,4.164 -8.133,5.461 -3.152,1.375 -6.593,2.063 -10.312,2.063 -2.992,0 -5.906,-0.61 -8.738,-1.821 -2.75,-1.215 -5.219,-2.871 -7.403,-4.976 -2.183,-2.102 -3.961,-4.571 -5.336,-7.403 -1.297,-2.75 -2.066,-5.621 -2.308,-8.613 l 12.379,0 c 0.648,3.395 2.101,5.984 4.367,7.766 2.265,1.777 4.773,2.668 7.523,2.668 3.481,0 6.43,-1.211 8.86,-3.641 2.507,-2.426 3.761,-5.379 3.761,-8.855 0,-3.563 -1.214,-6.516 -3.64,-8.86 -2.426,-2.265 -5.664,-3.398 -9.707,-3.398 l -4.25,0 0,-10.922 z" /><path
         id="path8988"
         style="fill:#000000;fill-opacity:1;fill-rule:nonzero;stroke:none"
         d="m 1122.07,176.449 11.649,0 c 1.457,2.508 3.074,4.328 4.851,5.461 1.782,1.133 3.883,1.695 6.313,1.695 4.773,0 8.047,-1.453 9.828,-4.367 1.777,-2.832 2.668,-6.914 2.668,-12.254 0,-2.832 -0.078,-5.218 -0.242,-7.16 -0.16,-1.859 -0.649,-3.679 -1.457,-5.461 -0.727,-1.781 -1.942,-3.234 -3.641,-4.367 -1.695,-1.051 -3.961,-1.578 -6.793,-1.578 -3.398,0 -6.148,0.891 -8.25,2.668 -2.105,1.781 -3.48,4.25 -4.129,7.402 l -12.375,0 c 0.403,-3.883 1.414,-7.281 3.031,-10.191 1.622,-2.832 3.602,-5.18 5.95,-7.039 2.343,-1.778 4.89,-3.113 7.644,-4.004 2.828,-0.809 5.703,-1.215 8.613,-1.215 3.965,0 7.563,0.891 10.801,2.672 3.235,1.777 5.864,3.965 7.887,6.551 1.941,2.508 3.316,5.218 4.125,8.133 0.809,2.91 1.215,7.117 1.215,12.617 0,6.797 -0.485,11.73 -1.457,14.804 -0.969,3.157 -2.75,6.11 -5.34,8.86 -1.699,1.859 -3.922,3.355 -6.672,4.488 -2.75,1.215 -5.664,1.82 -8.738,1.82 -5.258,0 -9.867,-1.578 -13.832,-4.734 l 0,19.539 34.34,0 0,12.375 -45.989,0 0,-46.715 z" /><path
         id="path8990"
         style="fill:#000000;fill-opacity:1;fill-rule:evenodd;stroke:none"
         d="m 458.629,140.516 0,78.804 c 0,9.5 -7.695,17.219 -17.281,17.219 l -162.442,0 c -9.414,0 -17.109,-7.719 -17.109,-17.219 l 0,-78.804 c 0,-9.411 7.695,-17.121 17.109,-17.121 l 162.442,0 c 9.586,0 17.281,7.71 17.281,17.121" /><path
         id="path8992"
         style="fill:#f0c900;fill-opacity:1;fill-rule:evenodd;stroke:none"
         d="m 451.102,140.516 0,78.804 c 0,5.442 -4.278,9.86 -9.754,9.86 l -162.442,0 c -5.472,0 -9.754,-4.418 -9.754,-9.86 l 0,-78.804 c 0,-5.309 4.282,-9.758 9.754,-9.758 l 162.442,0 c 5.476,0 9.754,4.449 9.754,9.758" /><path
         id="path8994"
         style="fill:#000000;fill-opacity:1;fill-rule:nonzero;stroke:none"
         d="m 360.164,144.855 10.063,0 0,70.227 -10.063,0 -9.961,-7.301 0,-10.652 9.961,7.301 0,-59.575 z" /></g></g></svg>