<?xml version="1.0" encoding="UTF-8" standalone="no"?>
<!-- Created with Inkscape (http://www.inkscape.org/) -->
<svg
   xmlns:svg="http://www.w3.org/2000/svg"
   xmlns="http://www.w3.org/2000/svg"
   version="1.0"
   width="3000"
   height="1500"
   id="svg22559">
  <defs
     id="defs22561" />
  <g
     transform="translate(-267.269,926.1963)"
     id="layer1">
    <path
       d="M 276.31713,475.10005 C 276.31713,524.61508 316.55015,564.75555 366.19325,564.75555 L 3168.3628,564.75555 C 3217.9878,564.75555 3258.2208,524.61508 3258.2208,475.10005 L 3258.2208,-827.51078 C 3258.2208,-877.02582 3217.9878,-917.14819 3168.3628,-917.14819 L 366.19325,-917.14819 C 316.55015,-917.14819 276.31713,-877.02582 276.31713,-827.51078 L 276.31713,475.10005 z "
       style="fill:white;fill-opacity:1;stroke:black;stroke-width:18.09625435;stroke-linecap:butt;stroke-linejoin:miter;stroke-miterlimit:4"
       id="path21155" />
    <path
       d="M 353.33827,487.91315 L 3181.1997,487.91315 L 3181.1997,-840.30579 L 353.33827,-840.30579 L 353.33827,487.91315 z "
       style="fill:#176fc1;fill-rule:nonzero;stroke:none"
       id="path21157" />
    <path
       d="M 2759.3784,-502.96655 C 2747.3394,-498.93079 2740.8484,-485.91862 2744.8736,-473.91991 C 2747.4301,-466.31892 2753.5765,-460.94393 2760.8109,-459.02559 L 2844.2141,-432.24114 L 2435.0846,201.33768 L 2550.0906,274.34339 L 2959.2382,-359.23543 L 3018.8897,-295.18803 C 3023.6763,-289.48728 3031.1645,-286.19352 3039.1421,-287.0984 C 3051.7615,-288.54621 3060.827,-299.91151 3059.3765,-312.50743 L 3062.6401,-647.96451 L 2759.3784,-502.96655"
       style="fill:white;fill-rule:nonzero;stroke:none"
       id="path21159" />
    <path
       d="M 1773.0981,31.889866 L 1773.0981,139.35341 L 1683.3308,139.35341 L 1683.3308,31.889866 L 1647.4311,31.889866 L 1647.4311,282.63209 L 1683.3308,282.63209 L 1683.3308,175.16855 L 1773.0981,175.16855 L 1773.0981,282.63209 L 1808.9978,282.63209 L 1808.9978,31.889866 L 1773.0981,31.889866"
       style="fill:white;fill-rule:nonzero;stroke:none"
       id="path21161" />
    <path
       d="M 1356.0998,67.705014 L 1356.0998,31.889866 L 1194.515,31.889866 L 1194.515,282.63209 L 1230.4328,282.63209 L 1230.4328,193.08517 L 1338.1499,193.08517 L 1338.1499,157.25193 L 1230.4328,157.25193 L 1230.4328,67.705014 L 1356.0998,67.705014"
       style="fill:white;fill-rule:nonzero;stroke:none"
       id="path21163" />
    <path
       d="M 2293.9155,31.889866 L 2150.2986,31.889866 L 2150.2986,67.705014 L 2204.1663,67.705014 L 2204.1663,282.63209 L 2240.066,282.63209 L 2240.066,67.705014 L 2293.9155,67.705014 L 2293.9155,31.889866"
       style="fill:white;fill-rule:nonzero;stroke:none"
       id="path21165" />
    <path
       d="M 590.4756,282.61399 L 627.80765,282.5959 L 556.04455,31.907964 L 520.12674,31.907964 L 448.36364,282.63209 L 485.69568,282.63209 L 495.9579,246.81694 L 580.23151,246.81694 L 590.4756,282.61399 z M 506.20201,211.0018 L 538.09471,99.629177 L 569.96928,211.0018 L 506.20201,211.0018"
       style="fill:white;fill-rule:nonzero;stroke:none"
       id="path21167" />
    <path
       d="M 818.27541,31.907964 L 818.27541,205.62681 C 818.27541,230.34814 798.18609,250.40027 773.4008,250.40027 C 748.61552,250.40027 728.50807,230.34814 728.50807,205.62681 L 728.50807,31.907964 L 692.60839,31.907964 L 692.60839,205.62681 C 692.60839,250.1288 728.78004,286.21542 773.4008,286.21542 C 818.02157,286.21542 854.19323,250.1288 854.19323,205.62681 L 854.19323,31.907964 L 818.27541,31.907964"
       style="fill:white;fill-rule:nonzero;stroke:none"
       id="path21169" />
    <path
       d="M 2087.4017,282.63209 L 2031.866,187.6016 C 2061.9999,175.89246 2083.3585,146.68294 2083.3585,112.47847 C 2083.3585,67.976477 2047.1868,31.889866 2002.566,31.889866 C 1986.1573,31.889866 1922.2269,31.889866 1922.2269,31.889866 L 1922.2269,282.63209 L 1958.1266,282.63209 L 1958.1266,192.48796 C 1958.1266,192.48796 1977.5088,192.9042 1993.4824,193.03089 L 2045.8451,282.63209 L 2087.4017,282.63209 z M 1958.1266,67.705014 C 1958.1266,67.705014 1987.1183,67.705014 2002.566,67.705014 C 2027.3695,67.705014 2047.4588,87.757152 2047.4588,112.47847 C 2047.4588,137.21789 2027.3695,157.25193 2002.566,157.25193 C 1979.9202,157.25193 1958.1266,157.25193 1958.1266,157.25193 L 1958.1266,67.705014"
       style="fill:white;fill-rule:nonzero;stroke:none"
       id="path21171" />
    <path
       d="M 939.89918,218.58469 C 942.87269,256.68013 977.88395,286.64976 1020.5465,286.64976 C 1065.1673,286.64976 1101.339,253.76643 1101.339,213.20971 C 1101.339,172.65298 1065.1673,139.78774 1020.5465,139.78774 C 995.76126,139.78774 975.67195,122.93889 975.67195,102.18094 C 975.67195,81.404895 995.76126,64.556032 1020.5465,64.556032 C 1041.5605,64.556032 1059.3109,76.880497 1064.1883,93.222628 L 1100.6863,93.222628 C 1095.7727,56.936943 1061.795,28.740884 1020.5465,28.740884 C 975.92578,28.740884 939.75413,61.62422 939.75413,102.18094 C 939.75413,142.71955 975.92578,175.6029 1020.5465,175.6029 C 1045.3319,175.6029 1065.4393,192.43366 1065.4393,213.20971 C 1065.4393,233.98575 1045.3319,250.81651 1020.5465,250.81651 C 997.91887,250.81651 979.20752,236.79088 976.10709,218.5485 L 939.89918,218.58469"
       style="fill:white;fill-rule:nonzero;stroke:none"
       id="path21173" />
    <path
       d="M 1546.9121,282.61399 L 1584.2441,282.5959 L 1512.481,31.907964 L 1476.5632,31.907964 L 1404.8001,282.63209 L 1442.1321,282.61399 L 1452.3762,246.81694 L 1536.6498,246.81694 L 1546.9121,282.61399 z M 1462.6384,211.0018 L 1494.513,99.629177 L 1526.4057,211.0018 L 1462.6384,211.0018"
       style="fill:white;fill-rule:nonzero;stroke:none"
       id="path21175" />
    <path
       d="M 838.54604,-312.85129 L 838.52791,-277.79624 C 838.52791,-259.73483 848.11928,-249.56398 863.76647,-249.56398 C 883.4569,-249.56398 888.00783,-262.03323 889.02316,-274.44818 L 940.51564,-274.44818 C 940.51564,-250.74033 932.93682,-232.62463 919.80986,-217.38645 C 906.17524,-201.56915 887.50015,-191.95933 863.76647,-191.95933 C 832.47211,-191.95933 808.75655,-208.33766 796.62681,-233.18566 C 789.5738,-247.86281 787.03543,-268.20451 787.03543,-291.35134 L 787.03543,-385.63983 C 787.03543,-408.78665 789.5738,-429.12835 796.62681,-443.8055 C 808.75655,-468.65351 832.47211,-485.01374 863.76647,-485.01374 C 911.2157,-485.01374 940.49751,-446.06771 940.49751,-395.81068 L 940.51564,-312.85129 L 838.54604,-312.85129 z M 838.52791,-361.93197 L 889.00503,-361.93197 L 889.00503,-394.67053 C 889.00503,-416.13428 879.41366,-427.42718 863.76647,-427.42718 C 848.11928,-427.42718 838.52791,-416.13428 838.52791,-394.67053 L 838.52791,-361.93197"
       style="fill:white;fill-rule:nonzero;stroke:none"
       id="path21177" />
    <path
       d="M 2227.1023,-596.22348 L 2278.5947,-596.22348 L 2278.5766,-470.35469 L 2279.5738,-470.35469 C 2278.359,-481.95524 2303.5069,-485.68335 2319.9156,-485.68335 C 2345.6618,-485.68335 2381.0719,-465.21497 2381.0719,-413.83588 L 2381.0719,-194.18533 L 2329.5795,-194.18533 L 2329.5795,-392.37214 C 2329.5795,-413.27486 2320.4958,-426.25083 2304.3409,-426.25083 C 2285.1582,-426.25083 2278.5947,-412.1347 2278.5947,-386.72568 L 2278.5947,-194.18533 L 2227.1023,-194.18533 L 2227.1023,-596.22348"
       style="fill:white;fill-rule:nonzero;stroke:none"
       id="path21179" />
    <path
       d="M 2417.5699,-599.60773 L 2469.0624,-599.60773 L 2469.0624,-278.32107 C 2469.0624,-256.85732 2474.6106,-250.64983 2494.3011,-248.38764 L 2494.3011,-194.18533 C 2446.8518,-194.18533 2417.5699,-207.74043 2417.5699,-274.37579 L 2417.5699,-599.60773"
       style="fill:white;fill-rule:nonzero;stroke:none"
       id="path21181" />
    <path
       d="M 1729.112,-480.47124 L 1780.5864,-480.47124 L 1780.5864,-452.80002 L 1781.6017,-452.80002 C 1792.2084,-470.86142 1806.3325,-483.85549 1830.0663,-483.85549 C 1852.2769,-483.85549 1866.9088,-469.17834 1875.9924,-455.06221 C 1888.6118,-470.86142 1902.2464,-483.85549 1929.5156,-483.85549 C 1955.2438,-483.85549 1985.5409,-465.21497 1985.5409,-413.83588 L 1985.5409,-194.18533 L 1934.0484,-194.18533 L 1934.0484,-392.37214 C 1934.0484,-413.27486 1924.9647,-426.25083 1908.8099,-426.25083 C 1889.6271,-426.25083 1883.0636,-412.1347 1883.0636,-386.72568 L 1883.0636,-194.18533 L 1831.5712,-194.18533 L 1831.5712,-392.37214 C 1831.5712,-413.27486 1822.4874,-426.25083 1806.3325,-426.25083 C 1787.1498,-426.25083 1780.5864,-412.1347 1780.5864,-386.72568 L 1780.5864,-194.18533 L 1729.112,-194.18533 L 1729.112,-480.47124"
       style="fill:white;fill-rule:nonzero;stroke:none"
       id="path21183" />
    <path
       d="M 1204.7954,-480.47124 L 1256.2696,-480.47124 L 1256.2515,-469.486 C 1277.4469,-490.38872 1294.6352,-483.85549 1324.4246,-483.85549 L 1324.4246,-422.86659 C 1319.3661,-425.12879 1314.3256,-426.25083 1308.7774,-426.25083 C 1287.0745,-426.25083 1256.2515,-430.53996 1256.2515,-383.66719 L 1256.2696,-194.18533 L 1204.7954,-194.18533 L 1204.7954,-480.47124"
       style="fill:white;fill-rule:nonzero;stroke:none"
       id="path21185" />
    <path
       d="M 672.24711,-195.99509 L 671.86635,-435.29964 L 646.13824,-435.29964 L 646.13824,-480.47124 L 671.86635,-480.47124 L 671.86635,-567.4121 L 723.32257,-594.73948 L 723.35883,-480.47124 L 755.16086,-480.47124 L 755.16086,-435.29964 L 723.35883,-435.29964 L 723.73958,-195.99509 L 672.24711,-195.99509"
       style="fill:white;fill-rule:nonzero;stroke:none"
       id="path21187" />
    <path
       d="M 2181.7925,-194.18533 L 2130.3,-194.18533 L 2130.3181,-212.10196 L 2129.3028,-212.10196 C 2117.9527,-197.55149 2114.7434,-192.82802 2091.0279,-192.82802 C 2072.1715,-192.82802 2027.5327,-217.7846 2027.8046,-276.43891 L 2027.8409,-480.47124 L 2079.3152,-480.47124 L 2079.3152,-282.26634 C 2079.3152,-261.38172 2088.417,-248.38764 2104.5538,-248.38764 C 2123.7365,-248.38764 2130.3,-262.50376 2130.3,-287.9128 L 2130.3,-480.47124 L 2181.7925,-480.47124 L 2181.7925,-194.18533"
       style="fill:white;fill-rule:nonzero;stroke:none"
       id="path21189" />
    <path
       d="M 2130.3,-596.22348 L 2181.7925,-596.22348 L 2181.7925,-538.63692 L 2130.3,-538.63692 L 2130.3,-596.22348 z "
       style="fill:white;fill-rule:nonzero;stroke:none"
       id="path21191" />
    <path
       d="M 1111.5468,-480.36266 L 1066.5453,-299.44097 L 1010.5563,-481.61139 L 959.6984,-481.5028 L 1044.0808,-209.17015 L 1011.8799,-79.73612 L 1064.6053,-79.826608 L 1164.2903,-480.47124 L 1111.5468,-480.36266"
       style="fill:white;fill-rule:nonzero;stroke:none"
       id="path21193" />
    <path
       d="M 528.39455,-371.39702 C 486.51158,-371.39702 444.13907,-404.00889 444.13907,-469.5041 L 444.13907,-502.22456 C 444.13907,-567.73786 488.5604,-600.47642 530.4615,-600.47642 C 572.34445,-600.47642 616.76578,-567.73786 616.76578,-502.22456 L 565.29143,-502.22456 C 565.29143,-529.89579 549.13658,-542.88986 530.4615,-542.88986 C 511.76827,-542.88986 495.61341,-529.89579 495.61341,-502.22456 L 495.61341,-469.5041 C 495.61341,-441.83287 509.71945,-429.05597 528.39455,-429.05597 L 531.47683,-428.62162 C 573.37793,-428.62162 616.25811,-396.28121 616.25811,-330.78601 L 616.25811,-286.33831 C 616.25811,-220.84309 571.83678,-188.10454 529.93568,-188.10454 C 488.0346,-188.10454 443.61327,-220.84309 443.61327,-286.33831 L 495.10575,-286.33831 C 495.10575,-258.68517 511.2606,-245.6911 529.93568,-245.6911 C 548.61078,-245.6911 564.76563,-258.68517 564.76563,-286.33831 L 564.76563,-330.78601 C 564.76563,-358.45724 548.61078,-371.43321 529.93568,-371.43321 L 528.39455,-371.39702"
       style="fill:white;fill-rule:nonzero;stroke:none"
       id="path21195" />
    <path
       d="M 1415.4249,-307.91064 L 1415.4249,-272.85559 C 1415.4249,-254.77609 1425.0163,-244.62333 1440.6635,-244.62333 C 1460.3358,-244.62333 1464.8867,-257.09259 1465.902,-269.50754 L 1517.3945,-269.50754 C 1517.3945,-245.79968 1509.8157,-227.68399 1496.6888,-212.42771 C 1483.0541,-196.62851 1464.379,-187.01868 1440.6635,-187.01868 C 1409.3691,-187.01868 1385.6355,-203.39701 1373.5238,-228.24501 C 1366.4527,-242.92217 1363.9324,-263.24577 1363.9324,-286.41069 L 1363.9324,-380.69918 C 1363.9324,-403.84601 1366.4527,-424.16961 1373.5238,-438.86486 C 1385.6355,-463.69477 1409.3691,-480.07309 1440.6635,-480.07309 C 1488.1127,-480.07309 1517.3945,-441.12706 1517.3945,-390.87003 L 1517.3945,-307.91064 L 1415.4249,-307.91064 z M 1415.4249,-356.99133 L 1465.902,-356.99133 L 1465.902,-389.72988 C 1465.902,-411.19363 1456.3107,-422.48654 1440.6635,-422.48654 C 1425.0163,-422.48654 1415.4249,-411.19363 1415.4249,-389.72988 L 1415.4249,-356.99133"
       style="fill:white;fill-rule:nonzero;stroke:none"
       id="path21197" />
    <path
       d="M 1562.8312,-480.47124 L 1614.3236,-480.47124 L 1614.2874,-469.486 C 1635.5009,-490.38872 1652.6892,-483.85549 1682.4786,-483.85549 L 1682.4786,-422.86659 C 1677.4201,-425.12879 1672.3796,-426.25083 1666.8133,-426.25083 C 1645.1103,-426.25083 1614.2874,-430.53996 1614.2874,-383.66719 L 1614.3236,-194.18533 L 1562.8312,-194.18533 L 1562.8312,-480.47124"
       style="fill:white;fill-rule:nonzero;stroke:none"
       id="path21199" />
    <path
       d="M 2027.8409,-596.22348 L 2079.3333,-596.22348 L 2079.3333,-538.63692 L 2027.8409,-538.63692 L 2027.8409,-596.22348 z "
       style="fill:white;fill-rule:nonzero;stroke:none"
       id="path21201" />
  </g>
</svg>
