<?xml version="1.0" encoding="UTF-8"?>
<!DOCTYPE svg PUBLIC "-//W3C//DTD SVG 1.1//EN" "http://www.w3.org/Graphics/SVG/1.1/DTD/svg11.dtd">
<svg version="1.2" width="25.03mm" height="25.02mm" viewBox="88148 24399 2503 2502" preserveAspectRatio="xMidYMid" fill-rule="evenodd" stroke-width="28.222" stroke-linejoin="round" xmlns="http://www.w3.org/2000/svg" xmlns:ooo="http://xml.openoffice.org/svg/export" xmlns:xlink="http://www.w3.org/1999/xlink" xmlns:presentation="http://sun.com/xmlns/staroffice/presentation" xmlns:smil="http://www.w3.org/2001/SMIL20/" xmlns:anim="urn:oasis:names:tc:opendocument:xmlns:animation:1.0" xml:space="preserve">
 <defs class="EmbeddedBulletChars">
  <g id="bullet-char-template-57356" transform="scale(0.00048828125,-0.00048828125)">
   <path d="M 580,1141 L 1163,571 580,0 -4,571 580,1141 Z"/>
  </g>
  <g id="bullet-char-template-57354" transform="scale(0.00048828125,-0.00048828125)">
   <path d="M 8,1128 L 1137,1128 1137,0 8,0 8,1128 Z"/>
  </g>
  <g id="bullet-char-template-10146" transform="scale(0.00048828125,-0.00048828125)">
   <path d="M 174,0 L 602,739 174,1481 1456,739 174,0 Z M 1358,739 L 309,1346 659,739 1358,739 Z"/>
  </g>
  <g id="bullet-char-template-10132" transform="scale(0.00048828125,-0.00048828125)">
   <path d="M 2015,739 L 1276,0 717,0 1260,543 174,543 174,936 1260,936 717,1481 1274,1481 2015,739 Z"/>
  </g>
  <g id="bullet-char-template-10007" transform="scale(0.00048828125,-0.00048828125)">
   <path d="M 0,-2 C -7,14 -16,27 -25,37 L 356,567 C 262,823 215,952 215,954 215,979 228,992 255,992 264,992 276,990 289,987 310,991 331,999 354,1012 L 381,999 492,748 772,1049 836,1024 860,1049 C 881,1039 901,1025 922,1006 886,937 835,863 770,784 769,783 710,716 594,584 L 774,223 C 774,196 753,168 711,139 L 727,119 C 717,90 699,76 672,76 641,76 570,178 457,381 L 164,-76 C 142,-110 111,-127 72,-127 30,-127 9,-110 8,-76 1,-67 -2,-52 -2,-32 -2,-23 -1,-13 0,-2 Z"/>
  </g>
  <g id="bullet-char-template-10004" transform="scale(0.00048828125,-0.00048828125)">
   <path d="M 285,-33 C 182,-33 111,30 74,156 52,228 41,333 41,471 41,549 55,616 82,672 116,743 169,778 240,778 293,778 328,747 346,684 L 369,508 C 377,444 397,411 428,410 L 1163,1116 C 1174,1127 1196,1133 1229,1133 1271,1133 1292,1118 1292,1087 L 1292,965 C 1292,929 1282,901 1262,881 L 442,47 C 390,-6 338,-33 285,-33 Z"/>
  </g>
  <g id="bullet-char-template-9679" transform="scale(0.00048828125,-0.00048828125)">
   <path d="M 813,0 C 632,0 489,54 383,161 276,268 223,411 223,592 223,773 276,916 383,1023 489,1130 632,1184 813,1184 992,1184 1136,1130 1245,1023 1353,916 1407,772 1407,592 1407,412 1353,268 1245,161 1136,54 992,0 813,0 Z"/>
  </g>
  <g id="bullet-char-template-8226" transform="scale(0.00048828125,-0.00048828125)">
   <path d="M 346,457 C 273,457 209,483 155,535 101,586 74,649 74,723 74,796 101,859 155,911 209,963 273,989 346,989 419,989 480,963 531,910 582,859 608,796 608,723 608,648 583,586 532,535 482,483 420,457 346,457 Z"/>
  </g>
  <g id="bullet-char-template-8211" transform="scale(0.00048828125,-0.00048828125)">
   <path d="M -4,459 L 1135,459 1135,606 -4,606 -4,459 Z"/>
  </g>
  <g id="bullet-char-template-61548" transform="scale(0.00048828125,-0.00048828125)">
   <path d="M 173,740 C 173,903 231,1043 346,1159 462,1274 601,1332 765,1332 928,1332 1067,1274 1183,1159 1299,1043 1357,903 1357,740 1357,577 1299,437 1183,322 1067,206 928,148 765,148 601,148 462,206 346,322 231,437 173,577 173,740 Z"/>
  </g>
 </defs>
 <g class="Page">
  <g class="com.sun.star.drawing.PolyPolygonShape">
   <g id="id3">
    <rect class="BoundingBox" stroke="none" fill="none" x="88148" y="24399" width="2503" height="2502"/>
    <path fill="rgb(255,0,0)" stroke="none" d="M 90650,25649 L 90650,25618 90648,25587 90647,25557 90644,25526 90640,25495 90636,25465 90631,25435 90626,25405 90619,25375 90612,25345 90605,25315 90596,25286 90587,25256 90577,25227 90566,25199 90555,25170 90543,25142 90530,25114 90516,25086 90502,25059 90487,25032 90472,25006 90456,24980 90439,24954 90422,24929 90404,24904 90385,24879 90366,24855 90346,24832 90326,24809 90305,24787 90284,24765 90262,24743 90239,24722 90216,24702 90193,24682 90169,24663 90144,24644 90120,24627 90094,24609 90068,24592 90042,24576 90016,24561 89989,24546 89962,24532 89934,24519 89906,24506 89878,24494 89850,24482 89821,24472 89792,24462 89762,24452 89733,24444 89703,24436 89673,24429 89643,24422 89613,24417 89583,24412 89553,24408 89522,24404 89492,24402 89461,24400 89430,24399 89400,24399 89369,24399 89338,24400 89308,24402 89277,24404 89246,24408 89216,24412 89186,24417 89156,24422 89126,24429 89096,24436 89066,24444 89037,24452 89007,24462 88978,24472 88950,24482 88921,24494 88893,24506 88865,24519 88837,24532 88810,24546 88783,24561 88757,24576 88731,24592 88705,24609 88680,24627 88655,24644 88630,24663 88606,24682 88583,24702 88560,24722 88537,24743 88515,24765 88494,24787 88473,24809 88453,24832 88433,24855 88414,24879 88395,24904 88377,24929 88360,24954 88342,24980 88326,25006 88311,25032 88296,25059 88282,25086 88268,25114 88255,25142 88243,25170 88232,25199 88221,25227 88211,25256 88202,25286 88194,25315 88186,25345 88179,25375 88172,25405 88167,25435 88162,25465 88158,25495 88154,25526 88152,25557 88150,25587 88148,25618 88148,25649 88148,25679 88150,25710 88152,25740 88154,25771 88158,25802 88162,25832 88167,25862 88172,25892 88179,25922 88186,25952 88194,25982 88202,26011 88211,26041 88221,26070 88232,26098 88243,26127 88255,26156 88268,26184 88282,26212 88296,26239 88311,26266 88326,26292 88342,26318 88360,26344 88377,26369 88395,26394 88414,26419 88433,26443 88453,26466 88473,26489 88494,26511 88515,26533 88537,26555 88560,26576 88583,26596 88606,26616 88630,26635 88655,26654 88680,26671 88705,26689 88731,26706 88757,26722 88783,26737 88810,26752 88837,26766 88865,26779 88893,26792 88921,26804 88950,26816 88978,26826 89007,26836 89037,26846 89066,26854 89096,26862 89126,26869 89156,26876 89186,26881 89216,26886 89246,26890 89277,26894 89308,26896 89338,26898 89369,26899 89399,26900 89430,26899 89461,26898 89492,26896 89522,26894 89553,26890 89583,26886 89613,26881 89643,26876 89673,26869 89703,26862 89733,26854 89762,26846 89792,26836 89821,26826 89850,26816 89878,26804 89906,26792 89934,26779 89962,26766 89989,26752 90016,26737 90042,26722 90068,26706 90094,26689 90120,26671 90144,26654 90169,26635 90193,26616 90216,26596 90239,26576 90262,26555 90284,26533 90305,26511 90326,26489 90346,26466 90366,26443 90385,26419 90404,26394 90422,26369 90439,26344 90456,26318 90472,26292 90487,26266 90502,26239 90516,26212 90530,26184 90543,26156 90555,26127 90566,26098 90577,26070 90587,26041 90596,26011 90605,25982 90612,25952 90619,25922 90626,25892 90631,25862 90636,25832 90640,25802 90644,25771 90647,25740 90648,25710 90650,25679 90650,25649 Z"/>
   </g>
  </g>
  <g class="com.sun.star.drawing.PolyPolygonShape">
   <g id="id4">
    <rect class="BoundingBox" stroke="none" fill="none" x="88495" y="24746" width="1809" height="1807"/>
    <path fill="rgb(255,255,255)" stroke="none" d="M 90303,25649 L 90302,25626 90302,25604 90300,25582 90298,25560 90296,25538 90293,25516 90289,25494 90285,25472 90281,25451 90275,25429 90270,25408 90264,25386 90257,25365 90250,25344 90242,25324 90234,25303 90225,25283 90216,25262 90206,25243 90196,25223 90185,25204 90174,25184 90162,25166 90150,25147 90138,25129 90125,25111 90111,25093 90097,25076 90082,25059 90068,25042 90052,25026 90037,25010 90021,24995 90005,24980 89988,24965 89971,24951 89954,24937 89936,24923 89918,24910 89900,24898 89882,24886 89863,24874 89844,24863 89824,24852 89805,24842 89785,24832 89764,24823 89744,24814 89724,24806 89703,24798 89682,24791 89661,24785 89639,24779 89618,24773 89596,24768 89575,24763 89553,24759 89531,24755 89509,24753 89487,24750 89465,24748 89443,24747 89421,24746 89398,24746 89376,24746 89354,24747 89332,24748 89310,24750 89288,24753 89266,24755 89244,24759 89222,24763 89201,24768 89179,24773 89158,24779 89136,24785 89115,24791 89094,24798 89073,24806 89053,24814 89033,24823 89012,24832 88993,24842 88973,24852 88953,24863 88934,24874 88915,24886 88897,24898 88879,24910 88861,24923 88843,24937 88826,24951 88809,24965 88792,24980 88776,24995 88760,25010 88744,25026 88729,25042 88715,25059 88701,25076 88687,25093 88673,25111 88660,25129 88648,25147 88636,25166 88624,25184 88613,25204 88602,25223 88592,25243 88582,25262 88573,25283 88564,25303 88556,25324 88548,25344 88541,25365 88534,25386 88528,25408 88523,25429 88517,25451 88513,25472 88509,25494 88505,25516 88502,25538 88500,25560 88498,25582 88497,25604 88496,25626 88495,25649 88496,25671 88497,25693 88498,25715 88500,25737 88502,25759 88505,25781 88509,25803 88513,25825 88517,25846 88523,25868 88528,25889 88534,25911 88541,25932 88548,25953 88556,25973 88564,25994 88573,26014 88582,26035 88592,26054 88602,26075 88613,26094 88624,26114 88636,26132 88648,26151 88660,26169 88673,26187 88687,26205 88701,26222 88715,26239 88729,26256 88744,26272 88760,26288 88776,26303 88792,26318 88809,26333 88826,26347 88843,26361 88861,26375 88879,26388 88897,26400 88915,26412 88934,26424 88953,26435 88973,26446 88993,26456 89012,26466 89033,26475 89053,26484 89073,26492 89094,26500 89115,26507 89136,26513 89158,26519 89179,26525 89201,26530 89222,26535 89244,26539 89266,26543 89288,26545 89310,26548 89332,26550 89354,26551 89376,26552 89398,26552 89421,26552 89443,26551 89465,26550 89487,26548 89509,26545 89531,26543 89553,26539 89575,26535 89596,26530 89618,26525 89639,26519 89661,26513 89682,26507 89703,26500 89724,26492 89744,26484 89764,26475 89785,26466 89805,26456 89824,26446 89844,26435 89863,26424 89882,26412 89900,26400 89918,26388 89936,26375 89954,26361 89971,26347 89988,26333 90005,26318 90021,26303 90037,26288 90052,26272 90068,26256 90082,26239 90097,26222 90111,26205 90125,26187 90138,26169 90150,26151 90162,26132 90174,26114 90185,26094 90196,26075 90206,26054 90216,26035 90225,26014 90234,25994 90242,25973 90250,25953 90257,25932 90264,25911 90270,25889 90275,25868 90281,25846 90285,25825 90289,25803 90293,25781 90296,25759 90298,25737 90300,25715 90302,25693 90302,25671 90303,25649 Z"/>
   </g>
  </g>
  <g class="Group">
   <g class="com.sun.star.drawing.ClosedBezierShape">
    <g id="id5">
     <rect class="BoundingBox" stroke="none" fill="none" x="88708" y="25214" width="598" height="888"/>
     <path fill="rgb(0,0,0)" stroke="none" d="M 88891,25359 L 89247,25359 89247,25214 88732,25214 88732,25709 88891,25709 C 88908,25687 88925,25670 88944,25659 88963,25649 88984,25644 89008,25644 89048,25645 89080,25658 89106,25683 89131,25708 89145,25740 89145,25778 L 89145,25818 C 89145,25858 89131,25891 89105,25916 89080,25942 89046,25955 89006,25956 88972,25956 88944,25947 88921,25930 88898,25913 88881,25889 88870,25857 L 88709,25857 C 88725,25933 88760,25992 88812,26035 88864,26078 88928,26100 89004,26101 89053,26101 89098,26091 89139,26071 89181,26052 89216,26024 89245,25989 89265,25962 89281,25934 89290,25903 89300,25873 89305,25838 89305,25799 89303,25709 89275,25637 89221,25583 89166,25528 89094,25500 89004,25499 88985,25499 88967,25500 88951,25503 88934,25506 88914,25511 88891,25519 L 88891,25359 Z"/>
    </g>
   </g>
   <g class="com.sun.star.drawing.ClosedBezierShape">
    <g id="id6">
     <rect class="BoundingBox" stroke="none" fill="none" x="89494" y="25197" width="597" height="905"/>
     <path fill="rgb(0,0,0)" stroke="none" d="M 89494,25798 C 89495,25857 89508,25908 89533,25954 89559,25999 89593,26035 89638,26061 89682,26087 89732,26100 89789,26101 89847,26100 89898,26087 89943,26061 89989,26034 90024,25999 90050,25953 90076,25908 90089,25856 90090,25798 L 90090,25498 C 90089,25440 90076,25389 90050,25344 90024,25299 89989,25263 89944,25237 89899,25211 89848,25198 89790,25197 89734,25198 89683,25211 89639,25238 89595,25264 89560,25300 89534,25345 89508,25390 89495,25441 89494,25498 L 89494,25798 Z M 89931,25819 C 89930,25859 89917,25891 89891,25916 89865,25942 89831,25955 89791,25956 89752,25955 89720,25942 89694,25916 89668,25890 89654,25858 89653,25819 L 89653,25476 C 89654,25439 89668,25407 89694,25382 89721,25356 89754,25343 89793,25342 89832,25343 89864,25356 89890,25382 89916,25407 89930,25439 89931,25476 L 89931,25819 Z"/>
    </g>
   </g>
  </g>
 </g>
</svg>