<?xml version="1.0" encoding="UTF-8" standalone="no"?>
<!-- Created with Inkscape (http://www.inkscape.org/) -->

<svg
   width="502"
   height="502"
   viewBox="0 0 502 502.00002"
   version="1.1"
   id="svg5"
   sodipodi:docname="drawing.svg"
   inkscape:version="1.2.2 (732a01da63, 2022-12-09)"
   xmlns:inkscape="http://www.inkscape.org/namespaces/inkscape"
   xmlns:sodipodi="http://sodipodi.sourceforge.net/DTD/sodipodi-0.dtd"
   xmlns="http://www.w3.org/2000/svg"
   xmlns:svg="http://www.w3.org/2000/svg">
  <sodipodi:namedview
     id="namedview7"
     pagecolor="#ffffff"
     bordercolor="#111111"
     borderopacity="1"
     inkscape:pageshadow="0"
     inkscape:pageopacity="0"
     inkscape:pagecheckerboard="true"
     inkscape:document-units="px"
     showgrid="false"
     units="px"
     inkscape:showpageshadow="0"
     inkscape:deskcolor="#d1d1d1"
     showborder="true"
     inkscape:zoom="1.18"
     inkscape:cx="391.94915"
     inkscape:cy="226.27119"
     inkscape:window-width="1920"
     inkscape:window-height="1057"
     inkscape:window-x="-8"
     inkscape:window-y="-8"
     inkscape:window-maximized="1"
     inkscape:current-layer="layer1" />
  <defs
     id="defs2" />
  <g
     inkscape:label="Lager 1"
     inkscape:groupmode="layer"
     id="layer1"
     transform="translate(0,-596)">
    <rect
       style="fill:#004182;fill-opacity:1;fill-rule:evenodd;stroke:none;stroke-width:2.24818"
       id="rect178"
       width="500"
       height="500"
       x="1"
       y="597"
       rx="40"
       ry="40" />
    <rect
       style="fill:#ffffff;fill-opacity:1;fill-rule:evenodd;stroke:none;stroke-width:2.11329"
       id="rect263"
       width="470"
       height="470"
       x="16"
       y="612"
       rx="25"
       ry="25" />
    <rect
       style="fill:#004182;fill-opacity:1;fill-rule:evenodd;stroke:none;stroke-width:1.9784"
       id="rect265"
       width="440"
       height="440"
       x="31"
       y="627"
       rx="10"
       ry="10" />
    <path
       id="rect2479"
       style="fill:#ffffff;fill-opacity:1;fill-rule:evenodd;stroke:none;stroke-width:4.8"
       d="m 251,677 196,340 H 55 Z"
       sodipodi:nodetypes="cccc" />
    <path
       d="m 240.09455,946.97804 h 23.58643 L 269.51133,1012 H 232.4886 l 1.01594,-16.50731 h 1.01587 V 985.3302 l 1.5194,-0.50371 z m 61.36891,0 h 12.67658 l 6.84629,26.41351 z M 326.05695,991.68396 331.38377,1012 H 294.1137 l -1.27208,-9.3936 12.93279,-2.5451 3.80735,-2.53616 0.50354,1.01629 z M 209.92692,998.54143 207.89511,1012 h -37.02274 l 17.24373,-65.02196 h 18.76313 l -5.83035,34.03979 c -0.75973,0.75993 -1.5194,1.26363 -2.27914,1.77622 -2.03181,1.51992 -4.06355,2.28873 -6.08655,3.55243 -2.79148,1.52875 -5.32683,3.56126 -5.83036,6.3537 -0.51214,1.77622 0,4.05614 1.00706,5.58495 1.52829,2.03247 4.31095,2.28877 7.35864,2.53617 z m -70.75047,-51.56339 h 29.16064 L 146.02274,1012 H 109 Z m 194.48646,0 h 29.16057 L 393,1012 h -37.02275"
       style="fill:#000000;fill-opacity:1;fill-rule:evenodd;stroke:none;stroke-width:8.83537"
       id="path5537"
       sodipodi:nodetypes="cccccccccccccccccccccccccccccccccccccccccc" />
    <path
       d="m 318.96332,979.48902 c 0.50354,2.03251 1.26327,4.06496 2.02301,5.84118 0.50352,1.27251 1.01587,2.2888 1.5194,3.56132 l -10.38863,4.31237 -0.76854,-2.03245 -7.09362,5.08118 -14.96453,2.79251 c -1.7756,0 -3.29508,0 -3.80742,-1.01629 -0.24713,-0.5037 -0.50353,-1.27252 -0.24713,-1.77622 0.24713,-1.77622 2.27914,-2.28874 3.79854,-3.30496 3.29502,-1.77622 5.32683,-4.31244 7.35864,-6.85747 l -1.77561,0.51232 -25.86557,-40.38467 -11.6607,-44.4497 -20.03521,38.09594 -4.56715,41.65725 -1.77561,0.51232 c -0.24714,2.27992 -0.24714,4.56866 -0.24714,6.85747 0,1.01622 0,2.02363 0,3.03985 l -10.90984,1.27252 v -2.03245 l -7.09355,3.04874 -17.49994,2.53615 c -1.77561,0 -3.0388,0 -3.79854,-1.00741 -0.51214,-0.51232 -0.51214,-1.52874 -0.51214,-2.28874 0.51214,-1.77622 2.27914,-2.54503 3.80735,-3.55244 2.53534,-1.27251 4.55828,-2.28874 6.33388,-3.81755 2.53535,-1.51992 5.07069,-3.55243 7.35864,-5.58495 l -3.04769,-0.25649 8.36569,-47.24214 23.58643,-50.80346 -2.27913,-50.03458 -16.99641,22.10114 -26.61642,21.07604 -2.03181,-3.55244 c -0.51215,1.27252 -0.75967,2.53615 -1.51941,3.30496 -1.52828,1.01629 -4.06355,0.76 -5.58302,-0.51232 -2.27914,-1.01622 -3.03881,-3.55243 -3.03881,-5.84117 -0.2564,-2.28881 0.24713,-4.32125 1.77561,-6.09747 0.50353,-0.76 1.5194,-1.52 2.27914,-2.27993 l -0.75974,-2.2888 24.84969,-17.77983 c 6.84623,-12.19494 13.69246,-24.63736 21.04228,-37.08852 0.51215,-0.76 1.01587,-1.52 1.52822,-2.03251 0.75972,-0.50371 1.51946,-1.01623 2.27913,-1.27252 3.03887,-1.51993 5.83035,-3.29615 8.6219,-4.05614 2.53527,-1.27252 5.57415,-1.52881 8.36563,-3.04874 1.27208,-0.76 2.53534,-2.03251 2.79154,-3.30503 0.50354,-1.01622 0,-2.27992 -0.2564,-3.55244 -1.26326,-0.25649 -2.53534,-0.51232 -4.31094,-0.75993 -1.26321,-0.51232 -2.53528,-0.76881 -3.03882,-1.5288 -0.75972,-0.76 -1.01594,-1.51993 -1.27207,-2.53622 l -0.2564,-5.33747 c -1.51941,-0.2565 -2.78267,-0.50371 -3.29501,-1.51993 -0.24713,-0.76881 0.2564,-2.03251 0.75966,-3.04874 0.51215,-1.27251 1.01594,-2.2888 1.52829,-3.56132 0.24712,-1.27251 0.50352,-2.79244 0.75973,-4.31237 -0.25641,0 -0.25641,0 -0.25641,0 -1.26326,0 -2.27913,-0.25649 -3.55121,-0.51232 -0.75973,0 -1.5194,-0.25649 -2.27914,-0.75993 -0.51214,-0.51232 -0.75973,-0.75999 -1.01587,-1.27251 0,-0.50371 0.25641,-1.27252 0.50353,-1.51999 0.76855,-0.76882 1.27208,-1.27252 2.03175,-1.78504 1.01594,-0.76 2.03181,-1.2637 3.29507,-1.77622 0.51215,-0.25649 1.01587,-0.25649 1.51941,-0.5037 l 2.28795,-6.85747 c 0.24713,-0.75993 0.24713,-1.27252 0.75973,-1.77622 0.50354,-0.51232 1.26326,-0.51232 2.27914,-0.76881 l 13.94866,-3.55244 c 1.51946,-0.25649 2.79154,-0.5037 3.80741,0.25649 0.50354,0.24721 0.75974,0.76 1.26327,1.01622 l 4.31088,6.85747 c 1.01594,0 2.03181,0.24721 3.03887,0.50371 0.76855,0 1.77561,0.25649 2.28795,0.75999 0.50353,0.25649 0.75974,0.76881 1.01594,1.27252 0,0.51232 -0.2564,1.27251 -0.51214,1.52874 -0.50353,0.76 -1.26319,1.2637 -2.02293,1.77622 -0.76855,0.5037 -1.27208,0.76 -2.03181,1.01629 l 0.2564,0.5037 c 0.2564,4.57748 0.75973,9.14621 0.50353,13.71487 -0.24713,2.80132 -0.75973,5.59377 -2.03181,8.12998 -1.00707,2.03245 -2.27914,4.06496 -3.79854,5.84118 0,1.52881 -0.2564,3.04873 0.2564,4.32125 0.75967,1.51993 2.53527,2.28874 4.31088,3.04874 2.78267,1.2637 5.31801,2.03251 8.1095,3.04873 3.80741,1.01622 8.11836,2.27992 11.41337,4.82496 0.50353,0.25649 1.01587,0.5037 1.51941,1.01622 0.51214,0.5037 1.01594,1.2637 1.51946,1.77622 7.8621,10.92242 15.21193,21.84485 22.57049,33.02357 l -3.80734,43.17718 -2.53535,-0.51232 c -0.24713,0.76881 -0.50354,1.7851 0,2.80132 0,0.5037 0.51214,1.01622 0.51214,1.77622 0.2564,1.27251 -1.01587,2.53622 -2.53527,3.55244 -2.28802,1.27251 -4.8233,1.01622 -7.10243,0 -2.79155,-1.51993 -4.81448,-4.06496 -5.58303,-6.85747 -0.24712,-1.51993 -0.24712,-3.04873 0,-4.56866 l -2.78267,-0.51232 4.31095,-32.51105 -15.46812,-18.53982 -2.79148,53.33961 12.93278,63.75833 27.38497,37.59223 -1.26327,0.5037"
       style="fill:#000000;fill-opacity:1;fill-rule:evenodd;stroke:none;stroke-width:8.83537"
       id="path5539" />
  </g>
</svg>
