<?xml version="1.0" encoding="UTF-8" standalone="no"?>
<!-- Created with Inkscape (http://www.inkscape.org/) -->

<svg
   xmlns:dc="http://purl.org/dc/elements/1.1/"
   xmlns:cc="http://creativecommons.org/ns#"
   xmlns:rdf="http://www.w3.org/1999/02/22-rdf-syntax-ns#"
   xmlns:svg="http://www.w3.org/2000/svg"
   xmlns="http://www.w3.org/2000/svg"
   version="1.1"
   width="538.58264"
   height="331.29919"
   id="svg3238">
  <defs
     id="defs3240" />
  <metadata
     id="metadata3243">
    <rdf:RDF>
      <cc:Work
         rdf:about="">
        <dc:format>image/svg+xml</dc:format>
        <dc:type
           rdf:resource="http://purl.org/dc/dcmitype/StillImage" />
        <dc:title></dc:title>
      </cc:Work>
    </rdf:RDF>
  </metadata>
  <g
     transform="translate(-163.48509,-377.76011)"
     id="layer1">
    <g
       transform="matrix(5.2311961,0,0,5.2311961,-2541.5322,-2241.4806)"
       id="g3357">
      <path
         d="m 577.58705,538.07781 0,-5.4775 -0.90875,0 0,5.4775 0.90875,0 z"
         id="path3069"
         style="fill:#000000;fill-opacity:1;fill-rule:nonzero;stroke:none" />
      <path
         d="m 581.2108,538.07781 0,-5.4775 -0.9075,0 0,5.4775 0.9075,0 z"
         id="path3071"
         style="fill:#000000;fill-opacity:1;fill-rule:nonzero;stroke:none" />
      <path
         d="m 580.9908,535.13531 0,-0.72 -4.20875,0 0,0.72 4.20875,0 z"
         id="path3073"
         style="fill:#000000;fill-opacity:1;fill-rule:nonzero;stroke:none" />
      <path
         d="m 560.6158,533.32031 0,-0.72 -4.7425,0 0,0.72 4.7425,0 z"
         id="path3075"
         style="fill:#000000;fill-opacity:1;fill-rule:nonzero;stroke:none" />
      <path
         d="m 558.7208,538.07781 0,-5.4775 -0.9075,0 0,5.4775 0.9075,0 z"
         id="path3077"
         style="fill:#000000;fill-opacity:1;fill-rule:nonzero;stroke:none" />
      <path
         d="m 563.0958,537.46031 0,0"
         id="path3079"
         style="fill:#000000;fill-opacity:1;fill-rule:nonzero;stroke:none" />
      <path
         d="m 563.10205,537.46031 c -0.24125,-0.005 -0.48,-0.0625 -0.6875,-0.16 -0.49875,-0.24625 -0.86625,-1.03875 -0.86625,-1.97 0,-0.9375 0.3725,-1.735 0.87625,-1.97375 0.215,-0.0987 0.45375,-0.155 0.70375,-0.155 0.22875,0 0.44875,0.0475 0.6475,0.13125 0.5325,0.205 0.9325,1.02625 0.9325,1.9975 0,0.955 -0.38625,1.76625 -0.905,1.98625 -0.20625,0.0925 -0.45875,0.14375 -0.69875,0.14375 l 0.0225,0.79875 c 0.82,-0.004 1.56125,-0.3825 1.985,-0.9575 0.3525,-0.52625 0.565,-1.21625 0.565,-1.97125 0,-0.6325 -0.14625,-1.21625 -0.39875,-1.69875 -0.3825,-0.725 -1.19875,-1.22375 -2.14625,-1.22375 -0.9475,0 -1.75875,0.49625 -2.1425,1.22375 -0.25375,0.4825 -0.3975,1.065 -0.3975,1.69875 0,0.75625 0.215,1.4525 0.56875,1.97875 0.4275,0.5725 1.1525,0.95 1.97125,0.95"
         id="path3081"
         style="fill:#000000;fill-opacity:1;fill-rule:nonzero;stroke:none" />
      <path
         d="m 573.3008,537.46031 0,0"
         id="path3083"
         style="fill:#000000;fill-opacity:1;fill-rule:nonzero;stroke:none" />
      <path
         d="m 573.30705,537.46031 c -0.24125,-0.005 -0.48,-0.0625 -0.685,-0.16 -0.50125,-0.24625 -0.8675,-1.03875 -0.8675,-1.97 0,-0.9375 0.37125,-1.735 0.87625,-1.97375 0.215,-0.0987 0.455,-0.155 0.70375,-0.155 0.22875,0 0.44875,0.0475 0.64625,0.13125 0.5325,0.205 0.93375,1.02625 0.93375,1.9975 0,0.955 -0.38625,1.76625 -0.90625,1.98625 -0.205,0.0925 -0.45875,0.14375 -0.69875,0.14375 l 0.025,0.79875 c 0.8175,-0.004 1.56,-0.3825 1.985,-0.9575 0.34875,-0.52625 0.56375,-1.21625 0.56375,-1.97125 0,-0.6325 -0.14625,-1.21625 -0.4,-1.69875 -0.38375,-0.725 -1.19875,-1.22375 -2.14375,-1.22375 -0.9475,0 -1.76,0.49625 -2.1425,1.22375 -0.25375,0.4825 -0.3975,1.065 -0.3975,1.69875 0,0.75625 0.21375,1.4525 0.5675,1.97875 0.42625,0.5725 1.1525,0.95 1.9725,0.95"
         id="path3085"
         style="fill:#000000;fill-opacity:1;fill-rule:nonzero;stroke:none" />
      <path
         d="m 566.8833,532.70781 c 0.44375,-0.23875 1.3675,-0.47375 3.1375,-0.045 l 0,0.81375 c -2.06625,-0.68875 -2.6375,-0.0237 -2.6375,-0.0237 -0.1575,0.12625 -0.25625,0.3 -0.25625,0.49125 0,0.28125 0.16375,0.46375 0.4625,0.57 0,0 1.4625,0.455 1.87375,0.6425 0.5575,0.2525 0.935,0.78375 0.935,1.425 0,0.67375 -0.41875,1.2475 -1.01,1.475 0,0 -0.815,0.42625 -3.10875,0.0263 l 0,-0.86375 c 1.57375,0.46 2.55,0.0775 2.55,0.0775 0.28625,-0.11625 0.4975,-0.38 0.4975,-0.69625 0,-0.085 -0.0187,-0.1825 -0.0437,-0.2675 -0.1175,-0.4375 -0.725,-0.59375 -0.725,-0.59375 -0.7825,-0.18875 -1.505,-0.4875 -1.505,-0.4875 -0.55125,-0.18125 -0.94625,-0.68625 -0.94625,-1.27875 0,-0.26375 0.11375,-0.56625 0.2475,-0.77375 0,0 0.21375,-0.33 0.52875,-0.49125"
         id="path3087"
         style="fill:#000000;fill-opacity:1;fill-rule:nonzero;stroke:none" />
      <path
         d="m 563.86205,511.01906 0,9.73375 9.695,0 0,-9.7025 -9.695,10e-4 0,-4.86875 c 0,-2.6525 2.145,-4.80375 4.7975,-4.80375 2.19125,0 4.04,1.4725 4.61625,3.47875 0.9325,3.06 3.38125,5.46375 6.47,6.33 2.04125,0.5525 3.5425,2.41875 3.5425,4.635 0,2.16875 -1.43125,3.99875 -3.40125,4.59625 -3.17125,0.835 -5.68375,3.28 -6.62125,6.40625 -0.5875,1.98875 -2.4275,3.44125 -4.60625,3.44125 -2.17,0 -4,-1.43875 -4.595,-3.415 -0.9125,-3.095 -3.36625,-5.5275 -6.4775,-6.405 -2.0175,-0.56875 -3.4975,-2.4225 -3.4975,-4.62375 0,-2.6525 2.15125,-4.80375 4.805,-4.80375 l 4.9675,0"
         id="path3089"
         style="fill:#df0024;fill-opacity:1;fill-rule:nonzero;stroke:none" />
      <path
         d="m 531.5658,550.82281 0,-1.32 -13.2525,0 0,1.32 13.2525,0 z"
         id="path3091"
         style="fill:#000000;fill-opacity:1;fill-rule:nonzero;stroke:none" />
      <path
         d="m 524.18705,563.08156 0,-14.74 1.55125,0 0,14.74 -1.55125,0 z"
         id="path3093"
         style="fill:#000000;fill-opacity:1;fill-rule:nonzero;stroke:none" />
      <path
         d="m 530.80705,553.18531 0,-1.3375 -11.70125,0 0,1.3375 11.70125,0 z"
         id="path3095"
         style="fill:#000000;fill-opacity:1;fill-rule:nonzero;stroke:none" />
      <path
         d="m 530.80705,555.66906 0,-1.3375 -11.70125,0 0,1.3375 11.70125,0 z"
         id="path3097"
         style="fill:#000000;fill-opacity:1;fill-rule:nonzero;stroke:none" />
      <path
         d="m 530.80705,558.18781 0,-1.3375 -11.70125,0 0,1.3375 11.70125,0 z"
         id="path3099"
         style="fill:#000000;fill-opacity:1;fill-rule:nonzero;stroke:none" />
      <path
         d="m 529.39705,558.19406 0,-6.34625 1.4825,0 0,6.34625 -1.4825,0 z"
         id="path3101"
         style="fill:#000000;fill-opacity:1;fill-rule:nonzero;stroke:none" />
      <path
         d="m 519.01455,558.19406 0,-6.34625 1.48,0 0,6.34625 -1.48,0 z"
         id="path3103"
         style="fill:#000000;fill-opacity:1;fill-rule:nonzero;stroke:none" />
      <path
         d="m 517.7708,561.52281 0.74,1.27 c 0,0 3.39875,-0.84875 6.265,-4.24125 l -1.325,-0.99125 c 0,0 -1.73375,2.66625 -5.68,3.9625"
         id="path3105"
         style="fill:#000000;fill-opacity:1;fill-rule:nonzero;stroke:none" />
      <path
         d="m 533.1308,550.08531 c 0,0 1.645,2.10625 3.21,6.04875 l 1.42875,-1.0325 c 0,0 -0.99625,-2.87625 -3.08625,-6.0825 l -1.5525,1.06625"
         id="path3107"
         style="fill:#000000;fill-opacity:1;fill-rule:nonzero;stroke:none" />
      <path
         d="m 536.8608,561.34156 c 0,0 7.2275,-1.995 8.115,-12.2875 l 1.75,0.49125 c 0,0 -0.7325,10.2075 -9.005,13.18625 l -0.86,-1.39"
         id="path3109"
         style="fill:#000000;fill-opacity:1;fill-rule:nonzero;stroke:none" />
      <path
         d="m 557.18705,556.34656 0,-1.79 -9.86875,0 0,1.79 9.86875,0 z"
         id="path3111"
         style="fill:#000000;fill-opacity:1;fill-rule:nonzero;stroke:none" />
      <path
         d="m 571.9433,552.19531 0,-1.3375 -6.5825,0 0,1.3375 6.5825,0 z"
         id="path3113"
         style="fill:#000000;fill-opacity:1;fill-rule:nonzero;stroke:none" />
      <path
         d="m 572.4383,555.96031 0,-1.3375 -8.83375,0 0,1.3375 8.83375,0 z"
         id="path3115"
         style="fill:#000000;fill-opacity:1;fill-rule:nonzero;stroke:none" />
      <path
         d="m 567.1983,563.13531 0,-14.67 1.49625,0 0,14.67 -1.49625,0 z"
         id="path3117"
         style="fill:#000000;fill-opacity:1;fill-rule:nonzero;stroke:none" />
      <path
         d="m 563.61955,552.19531 0,-1.3375 -5.2275,0 0,1.3375 5.2275,0 z"
         id="path3119"
         style="fill:#000000;fill-opacity:1;fill-rule:nonzero;stroke:none" />
      <path
         d="m 560.3208,563.34531 0,-14.88 1.49625,0 0,14.88 -1.49625,0 z"
         id="path3121"
         style="fill:#000000;fill-opacity:1;fill-rule:nonzero;stroke:none" />
      <path
         d="m 560.3333,552.22531 c 0,0 0.3075,2.43625 -2.225,5.86 l 0.89875,1.11 c 0,0 2.25125,-1.85 2.00375,-4.19375 l -0.6775,-2.77625"
         id="path3123"
         style="fill:#000000;fill-opacity:1;fill-rule:nonzero;stroke:none" />
      <path
         d="m 563.10455,557.63031 c 0,0 -0.95125,-1.51875 -1.84625,-2.05 l 0.555,-1.97125 c 0,0 1.7875,1.7625 2.5675,2.96875 l -1.27625,1.0525"
         id="path3125"
         style="fill:#000000;fill-opacity:1;fill-rule:nonzero;stroke:none" />
      <path
         d="m 566.4658,555.61781 c 0,0 -0.15375,2.84125 -3.9475,5.55375 l 0.72,0.99375 c 0,0 3.6325,-1.49 4.585,-6.3925 l -1.3575,-0.155"
         id="path3127"
         style="fill:#000000;fill-opacity:1;fill-rule:nonzero;stroke:none" />
      <path
         d="m 569.5608,555.64781 c 0,0 0.5175,3.11625 3.1975,5.45125 l -0.89375,1.0625 c 0,0 -3.205,-2.65875 -3.76125,-6.38875 l 1.4575,-0.125"
         id="path3129"
         style="fill:#000000;fill-opacity:1;fill-rule:nonzero;stroke:none" />
      <path
         d="m 566.1883,548.86531 -1.56125,0 c 0,0 0.37875,2.77375 -1.42875,4.255 l 0.95875,1.125 c 0,0 1.97375,-1.465 2.03125,-5.38"
         id="path3131"
         style="fill:#000000;fill-opacity:1;fill-rule:nonzero;stroke:none" />
      <path
         d="m 587.6708,552.34531 0,-1.40875 -13.5525,0 0,1.40875 13.5525,0 z"
         id="path3133"
         style="fill:#000000;fill-opacity:1;fill-rule:nonzero;stroke:none" />
      <path
         d="m 581.2883,555.99281 0,-1.375 -6.86,0 0,1.375 6.86,0 z"
         id="path3135"
         style="fill:#000000;fill-opacity:1;fill-rule:nonzero;stroke:none" />
      <path
         d="m 578.86205,561.84656 0,-6.1675 -1.69,0 0,6.1675 1.69,0 z"
         id="path3137"
         style="fill:#000000;fill-opacity:1;fill-rule:nonzero;stroke:none" />
      <path
         d="m 574.17955,561.27781 0,1.64875 c 0,0 4.125,0.03 7.9825,-1.72625 l 0,-1.56875 c 0,0 -2.43375,1.55375 -7.9825,1.64625"
         id="path3139"
         style="fill:#000000;fill-opacity:1;fill-rule:nonzero;stroke:none" />
      <path
         d="m 586.97205,560.03156 1.025,1.25625 c -0.68375,1.515 -1.565,1.71875 -1.565,1.71875 -0.96625,0.345 -1.7375,-0.3625 -1.7375,-0.3625 -2.77625,-2.135 -2.73,-10.81875 -2.73,-10.81875 l -0.0675,-3.47 1.59375,0 0.0312,3.56125 c -0.0625,7.46375 1.99,9.09125 1.99,9.09125 0,0 0.67375,0.72 1.46,-0.97625"
         id="path3141"
         style="fill:#000000;fill-opacity:1;fill-rule:nonzero;stroke:none" />
      <path
         d="m 584.5383,548.89156 c 0,0 0.925,0.9075 1.59375,2.255 l 1.30625,-0.925 c 0,0 -0.89625,-1.265 -1.635,-2.035 l -1.265,0.705"
         id="path3143"
         style="fill:#000000;fill-opacity:1;fill-rule:nonzero;stroke:none" />
      <path
         d="m 595.0633,548.46406 c -0.98625,2.22 -5.98875,3.76125 -5.98875,3.76125 l 0.55375,1.295 c 0,0 3.82375,-0.98625 6.59875,-3.7625 2.77375,2.77625 6.6,3.7625 6.6,3.7625 l 0.55375,-1.295 c 0,0 -5.0025,-1.54125 -5.98875,-3.76125 l -2.32875,0"
         id="path3145"
         style="fill:#000000;fill-opacity:1;fill-rule:nonzero;stroke:none" />
      <path
         d="m 600.31455,554.57781 0,-1.4075 -8.27875,0 0,1.4075 8.27875,0 z"
         id="path3147"
         style="fill:#000000;fill-opacity:1;fill-rule:nonzero;stroke:none" />
      <path
         d="m 603.0908,557.56531 0,-1.37375 -13.77,0 0,1.37375 13.77,0 z"
         id="path3149"
         style="fill:#000000;fill-opacity:1;fill-rule:nonzero;stroke:none" />
      <path
         d="m 592.49955,562.03156 2.59,-4.68625 -1.79125,0 -2.59125,4.68625 1.7925,0"
         id="path3151"
         style="fill:#000000;fill-opacity:1;fill-rule:nonzero;stroke:none" />
      <path
         d="m 589.99705,561.41531 0,1.56125 c 0,0 8.2025,0.35 10.6075,-1.31375 l -0.55375,-1.17125 c 0,0 -1.2325,1.17125 -10.05375,0.92375"
         id="path3153"
         style="fill:#000000;fill-opacity:1;fill-rule:nonzero;stroke:none" />
      <path
         d="m 600.33205,558.45531 -1.6075,0 c 0,0 0.955,1.17125 2.07375,4.87125 l 1.88625,0 c 0,0 -1.2425,-3.515 -2.3525,-4.87125"
         id="path3155"
         style="fill:#000000;fill-opacity:1;fill-rule:nonzero;stroke:none" />
      <path
         d="m 611.56955,551.08781 -6.675,0 0,1.35375 4.7775,0 c 0,0 -0.98625,3.79375 -4.9025,5.92 l 0.77,1.32625 c 0,0 5.18,-2.28 6.03,-8.6"
         id="path3157"
         style="fill:#000000;fill-opacity:1;fill-rule:nonzero;stroke:none" />
      <path
         d="m 614.6558,562.72906 0,-14.26375 1.49625,0 0,14.26375 -1.49625,0 z"
         id="path3159"
         style="fill:#000000;fill-opacity:1;fill-rule:nonzero;stroke:none" />
      <path
         d="m 607.62205,563.13531 0,-6.4075 1.49625,0 0,6.4075 -1.49625,0 z"
         id="path3161"
         style="fill:#000000;fill-opacity:1;fill-rule:nonzero;stroke:none" />
      <path
         d="m 607.62205,551.88031 0,-3.50125 1.49625,0 0,3.50125 -1.49625,0 z"
         id="path3163"
         style="fill:#000000;fill-opacity:1;fill-rule:nonzero;stroke:none" />
      <path
         d="m 608.8083,557.09906 c 0,0 2.00875,1.54 2.38,1.9725 l 0.88875,-0.98625 c 0,0 -1.85,-2.035 -2.52875,-2.405 l -0.74,1.41875"
         id="path3165"
         style="fill:#000000;fill-opacity:1;fill-rule:nonzero;stroke:none" />
      <path
         d="m 618.93955,553.74531 0,-1.37375 -6.9575,0 0,1.37375 6.9575,0 z"
         id="path3167"
         style="fill:#000000;fill-opacity:1;fill-rule:nonzero;stroke:none" />
      <path
         d="m 619.37205,563.05781 0,-1.37375 -8.80875,0 0,1.37375 8.80875,0 z"
         id="path3169"
         style="fill:#000000;fill-opacity:1;fill-rule:nonzero;stroke:none" />
      <path
         d="m 532.09205,561.52281 -0.74,1.27 c 0,0 -3.4,-0.84875 -6.2675,-4.24125 l 1.3275,-0.99125 c 0,0 1.73375,2.66625 5.68,3.9625"
         id="path3171"
         style="fill:#000000;fill-opacity:1;fill-rule:nonzero;stroke:none" />
      <path
         d="m 518.68205,542.57531 100.1575,0"
         id="path3173"
         style="fill:none;stroke:#000000;stroke-width:0.375;stroke-linecap:butt;stroke-linejoin:miter;stroke-miterlimit:4;stroke-opacity:1;stroke-dasharray:none" />
    </g>
  </g>
</svg>
