<?xml version="1.0" encoding="utf-8"?>
<!-- Generator: Adobe Illustrator 15.0.0, SVG Export Plug-In . SVG Version: 6.00 Build 0)  -->
<!DOCTYPE svg PUBLIC "-//W3C//DTD SVG 1.1//EN" "http://www.w3.org/Graphics/SVG/1.1/DTD/svg11.dtd">
<svg version="1.1" id="Vrstva_1" xmlns="http://www.w3.org/2000/svg" xmlns:xlink="http://www.w3.org/1999/xlink" x="0px" y="0px"
	 width="224.943px" height="109.5px" viewBox="0 0 224.943 109.5" enable-background="new 0 0 224.943 109.5" xml:space="preserve">
<g id="Layer_x0020_1">
	<path fill="#0066CC" d="M7.581,0h209.837c3.862,0,7.073,2.931,7.525,6.675v96.153c-0.452,3.745-3.663,6.671-7.525,6.671H7.581
		c-4.172,0-7.581-3.412-7.581-7.582V7.581C0,3.412,3.409,0,7.581,0L7.581,0z"/>
	<path fill="#0066CC" stroke="#FFFFFF" stroke-width="4" stroke-miterlimit="10" d="M13.137,5h198.726
		c4.431,0,8.057,3.624,8.057,8.059V96.44c0,4.432-3.626,8.057-8.057,8.057H13.137c-4.431,0-8.056-3.625-8.056-8.057V13.058
		C5.081,8.624,8.706,5,13.137,5z"/>
</g>
<g>
	<path fill="#FFFFFF" d="M15.373,89.726V19.077h11.704l11.359,48.601L50.14,19.077h11.458v70.649h-9.63V48.113l-9.729,41.613h-8.889
		l-9.284-39.181v39.181H15.373z"/>
	<path fill="#FFFFFF" d="M103.821,51.84v9.265H77.795V51.84H103.821z"/>
	<path fill="#FFFFFF" d="M130.688,28.186v16.614c2.798-1.38,5.432-2.07,7.901-2.07c2.502,0,4.881,0.569,7.136,1.708
		s4.091,2.709,5.507,4.71c1.942,2.691,2.914,6.073,2.914,10.145V72.18c0,4.624-1.153,8.454-3.457,11.49
		c-1.713,2.243-3.778,3.985-6.198,5.228s-4.947,1.863-7.58,1.863c-2.667,0-5.219-0.63-7.655-1.889
		c-2.437-1.26-4.511-3.011-6.223-5.254c-2.37-3.14-3.556-6.952-3.556-11.438v-2.588h9.63v2.588c0,2.381,0.461,4.365,1.383,5.952
		c1.35,2.347,3.507,3.52,6.47,3.52c2.568,0,4.609-0.983,6.124-2.95c0.954-1.276,1.432-2.898,1.432-4.865V59.293
		c0-1.553-0.428-2.95-1.283-4.192c-1.516-2.208-3.655-3.313-6.421-3.313c-2.799,0-4.84,1.053-6.123,3.157h-9.631V19.077h31.755
		v9.109H130.688z"/>
	<path fill="#FFFFFF" d="M167.28,89.726V35.983h10.417v25.653l19.519-25.653h12.339l-20.43,25.229l21.946,28.515H198.43
		l-20.732-27.879v27.879H167.28z"/>
</g>
</svg>
