<?xml version="1.0" encoding="UTF-8" standalone="no"?>
<!DOCTYPE svg PUBLIC "-//W3C//DTD SVG 1.0//EN" "http://www.w3.org/TR/2001/REC-SVG-20010904/DTD/svg10.dtd">
<!-- Created with Inkscape (http://www.inkscape.org/) -->
<svg
   xmlns:svg="http://www.w3.org/2000/svg"
   xmlns="http://www.w3.org/2000/svg"
   version="1.0"
   width="800"
   height="200"
   id="svg2">
  <defs
     id="defs4" />
  <g
     id="layer1">
    <path
       d="M 5.0258965,59.896769 L 37.02901,59.896769 L 37.02901,107.84773 L 77.288457,107.84773 L 77.288457,59.896769 L 109.52747,59.896769 L 109.52747,186.03805 L 77.288457,186.03805 L 77.288457,133.68077 L 37.02901,133.68077 L 37.02901,186.03805 L 5.0258965,186.03805 L 5.0258965,59.896769 z M 172.90464,121.84423 C 168.34396,121.84429 164.87106,123.84585 162.48594,127.84891 C 160.10074,131.85207 158.90816,137.74153 158.9082,145.51732 C 158.90816,152.9476 160.08764,158.54906 162.44663,162.32176 C 164.80554,166.0945 168.29154,167.98085 172.90464,167.98084 C 177.46523,167.98085 180.91192,166.0801 183.24472,162.27855 C 185.5774,158.47707 186.74376,152.89 186.74383,145.51732 C 186.74376,137.56874 185.60361,131.63608 183.32335,127.7193 C 181.04297,123.80265 177.57008,121.84429 172.90464,121.84423 L 172.90464,121.84423 z M 172.90464,100.41749 C 186.90103,100.41758 198.05362,104.43509 206.36245,112.47003 C 214.67111,120.50513 218.82548,131.29048 218.82558,144.82614 C 218.82548,158.30427 214.6449,169.10403 206.28381,177.22543 C 197.92257,185.34686 186.79619,189.40757 172.90464,189.40758 C 158.90816,189.40757 147.74246,185.37566 139.40753,177.31184 C 131.07256,169.24802 126.90508,158.41947 126.90508,144.82614 C 126.90508,131.29048 131.07256,120.50513 139.40753,112.47003 C 147.74246,104.43509 158.90816,100.41758 172.90464,100.41749 L 172.90464,100.41749 z M 317.03661,151.39239 L 256.96196,151.39239 C 257.74825,157.3827 259.6092,161.94739 262.54482,165.0865 C 265.48036,168.22565 269.35952,169.79522 274.18231,169.7952 C 277.06542,169.79522 279.60784,169.01763 281.80959,167.46245 C 284.01122,165.9073 285.71491,163.66095 286.92066,160.72339 L 315.22808,160.72339 C 312.50209,169.82401 307.43035,176.87986 300.01284,181.89093 C 292.59518,186.90202 283.43459,189.40757 272.53105,189.40758 C 259.63541,189.40757 249.1774,185.23166 241.15699,176.87985 C 233.13654,168.52804 229.12632,157.72828 229.12633,144.48054 C 229.12632,131.34808 233.20206,120.72112 241.35356,112.59963 C 249.50503,104.47829 260.18583,100.41758 273.39599,100.41749 C 287.02543,100.41758 297.73244,104.57909 305.51706,112.90203 C 313.30151,121.22511 317.19378,132.67285 317.19387,147.24528 C 317.19378,147.64851 317.16757,148.3109 317.11523,149.23244 C 317.06273,150.15405 317.03651,150.87405 317.03661,151.39239 L 317.03661,151.39239 z M 288.80781,133.50798 C 287.75932,128.09376 285.99012,124.04744 283.50017,121.36904 C 281.01011,118.69077 277.74689,117.3516 273.71052,117.35153 C 269.46436,117.3516 265.84731,118.79157 262.85934,121.67144 C 259.8713,124.55143 257.90551,128.49695 256.96196,133.50798 L 288.80781,133.50798 z M 414.69721,132.644 L 383.08725,132.5576 C 382.82509,129.04413 381.80288,126.27939 380.02062,124.26338 C 378.23824,122.24749 375.87929,121.23951 372.94376,121.23945 C 368.6976,121.23951 365.32954,123.39947 362.83958,127.7193 C 360.34954,132.03927 359.10455,137.91433 359.10457,145.34453 C 359.10455,152.19881 360.36265,157.68509 362.8789,161.80337 C 365.39507,165.9217 368.6976,167.98085 372.7865,167.98084 C 376.03656,167.98085 378.65761,166.80008 380.64968,164.43851 C 382.64161,162.07699 383.89972,158.64986 384.42399,154.15713 L 415.01174,154.15713 C 414.01564,164.87052 409.71712,173.42393 402.11613,179.81738 C 394.51499,186.21085 384.8433,189.40757 373.10103,189.40758 C 359.52391,189.40757 348.54169,185.27487 340.15433,177.00944 C 331.76694,168.74404 327.57325,158.01628 327.57326,144.82614 C 327.57325,131.69367 331.71452,121.00911 339.99707,112.77242 C 348.27959,104.53589 359.10455,100.41758 372.47197,100.41749 C 384.21425,100.41758 393.7811,103.23992 401.17255,108.88451 C 408.56385,114.52926 413.07206,122.44908 414.69721,132.644 L 414.69721,132.644 z M 429.55862,59.896769 L 459.36005,59.896769 L 458.57372,116.66034 C 461.14232,111.24614 464.5628,107.18543 468.83517,104.47821 C 473.10744,101.77115 478.28402,100.41758 484.36493,100.41749 C 493.17162,100.41758 499.90773,103.34071 504.57328,109.18691 C 509.23868,115.03325 511.57142,123.48586 511.57152,134.54476 L 511.57152,186.03805 L 481.77009,186.03805 L 481.77009,141.11102 C 481.77002,135.1784 480.93129,130.94489 479.25387,128.41049 C 477.57633,125.8762 474.82422,124.60903 470.99754,124.60898 C 467.43285,124.60903 464.52349,126.3082 462.26942,129.70646 C 460.01527,133.10484 458.88821,137.48234 458.88826,142.83898 L 458.88826,186.03805 L 429.55862,186.03805 L 429.55862,59.896769 z M 605.06466,126.94172 L 577.70081,126.94172 C 577.49107,123.19786 576.44265,120.40433 574.55554,118.5611 C 572.66834,116.71801 569.89001,115.79643 566.22058,115.79637 C 563.23254,115.79643 560.9129,116.44442 559.26167,117.74032 C 557.61037,119.03636 556.78473,120.86512 556.78477,123.2266 C 556.78473,125.6458 557.99042,127.58976 560.40183,129.05848 C 562.81316,130.5273 567.1117,131.83767 573.29744,132.9896 C 586.71719,135.40879 595.65498,138.50472 600.11085,142.27739 C 604.56657,146.05015 606.79447,151.68042 606.79455,159.16823 C 606.79447,168.44165 603.19052,175.79987 595.98269,181.24294 C 588.77471,186.68604 578.95886,189.40757 566.53511,189.40758 C 554.84516,189.40757 545.7501,187.11802 539.2499,182.53892 C 532.74966,177.95983 528.8705,171.09119 527.6124,161.93297 L 555.44803,161.93297 C 555.86737,165.56171 557.11238,168.32645 559.18304,170.22719 C 561.25364,172.12796 564.04506,173.07834 567.55732,173.07832 C 570.85981,173.07834 573.48086,172.28636 575.42049,170.70238 C 577.36002,169.11843 578.32981,166.97288 578.32987,164.26572 C 578.32981,162.19218 577.37312,160.49302 575.45981,159.16823 C 573.54638,157.84348 570.3618,156.7203 565.90606,155.7987 C 563.70433,155.33794 560.63769,154.79075 556.70614,154.15713 C 550.25831,153.12038 545.98599,152.14121 543.88917,151.2196 C 538.69946,148.80048 534.95135,145.89175 532.64483,142.49338 C 530.33829,139.0951 529.18503,134.80401 529.18504,129.62007 C 529.18503,120.63473 532.77588,113.49249 539.95758,108.19333 C 547.13926,102.89432 556.91579,100.24478 569.28722,100.2447 C 580.50528,100.24478 589.27272,102.60633 595.58953,107.32934 C 601.9062,112.05251 605.06457,118.58997 605.06466,126.94172 L 605.06466,126.94172 z M 629.91228,77.608387 L 659.71371,77.608387 L 659.71371,103.78702 L 677.24858,103.78702 L 677.24858,124.95457 L 659.71371,124.95457 L 659.71371,147.85007 C 659.71366,156.48992 660.26409,161.80339 661.36498,163.79053 C 662.46577,165.77771 664.53641,166.77129 667.57688,166.77126 C 668.52041,166.77129 669.64746,166.64168 670.95804,166.38247 C 672.26852,166.1233 673.73631,165.7633 675.36142,165.3025 L 675.36142,186.03805 C 671.84914,187.19002 668.31072,188.03961 664.74614,188.58679 C 661.18145,189.13398 657.5644,189.40757 653.89496,189.40758 C 644.35428,189.40757 637.972,187.52121 634.74813,183.7485 C 631.52421,179.97578 629.91226,172.18556 629.91228,160.3778 L 629.91228,124.95457 L 620.08331,124.95457 L 620.08331,103.78702 L 629.91228,103.78702 L 629.91228,77.608387 z"
       id="text3925"
       style="font-size:168.80334473px;font-style:normal;font-variant:normal;font-weight:bold;font-stretch:normal;text-align:start;line-height:100%;writing-mode:lr-tb;text-anchor:start;fill:#00349a;fill-opacity:1;stroke:none;stroke-width:1px;stroke-linecap:butt;stroke-linejoin:miter;stroke-opacity:1;font-family:Folio Bk BT;-inkscape-font-specification:Folio Bk BT Bold" />
    <path
       d="M 718.50222,8.4926412 L 797.66419,8.4926412 L 797.66419,87.654614 L 718.50222,87.654614 L 718.50222,8.4926412 z"
       id="rect3931"
       style="fill:#00349a;fill-opacity:1;fill-rule:nonzero;stroke:none;stroke-width:6;stroke-linecap:square;stroke-linejoin:miter;stroke-miterlimit:4;stroke-opacity:1" />
  </g>
</svg>
