<?xml version="1.0" encoding="UTF-8" standalone="no"?>
<!-- Created with Inkscape (http://www.inkscape.org/) -->
<svg
   xmlns:svg="http://www.w3.org/2000/svg"
   xmlns="http://www.w3.org/2000/svg"
   version="1.0"
   width="284.00223"
   height="284.00223"
   id="svg2">
  <defs
     id="defs5" />
  <image
     x="0"
     y="0"
     width="284.00223"
     height="284.00223"
     id="image11" />
  <path
     d="M 139.11635,283.884 C 138.79255,283.8308 137.84668,283.7827 137.01439,283.777 C 134.27266,283.7583 127.08886,283.1522 123.04408,282.5983 C 122.62315,282.5406 121.80954,282.4335 121.23606,282.36 C 119.74289,282.1686 116.86009,281.6566 113.50669,280.9874 C 109.8666,280.2608 104.2889,278.8489 100.90792,277.7982 C 99.968899,277.5063 98.882701,277.1728 98.494141,277.0567 C 92.292517,275.2054 80.486917,270.1293 74.060506,266.5509 C 73.187036,266.0645 72.207449,265.521 71.883649,265.3432 C 67.621886,263.0027 59.534521,257.6257 55.752512,254.6183 C 52.418581,251.9672 51.274225,251.036 49.612288,249.622 C 48.585728,248.7486 47.40047,247.7154 46.978382,247.326 C 46.556295,246.9366 45.682033,246.1415 45.035581,245.5592 C 40.932325,241.8628 34.209334,234.5017 30.248263,229.3683 C 25.004675,222.5728 20.813913,216.1614 16.894982,208.9394 C 16.008209,207.3052 13.740663,202.6714 12.636954,200.238 C 11.242254,197.163 10.939022,196.417 8.7072746,190.5711 C 7.7110496,187.9615 5.9743865,182.5645 5.2595028,179.8563 C 4.2090169,175.8768 3.9058975,174.6362 3.3030965,171.8496 C 2.8566585,169.7857 2.0191443,165.3893 1.8787818,164.3727 C 1.2831891,160.0592 1.0999418,158.5581 0.7001862,154.7175 C 0.56150313,153.3853 0.38647495,150.6772 0.29685468,148.477 C 0.2612417,147.6028 0.17259577,145.9338 0.099863732,144.7681 C 0.027131683,143.6024 -0.00072912434,141.9068 0.037950824,141.0003 C 0.29434816,134.9904 0.35399258,133.7497 0.46244992,132.1693 C 0.60291884,130.1226 1.0493757,125.6726 1.2952913,123.8682 C 1.3526585,123.4473 1.4585888,122.6526 1.5306919,122.1021 C 1.876088,119.4651 1.9009977,119.3123 2.4800755,116.2737 C 3.325169,111.8391 4.0198772,108.7581 5.0065696,105.0683 C 5.7381995,102.3324 7.12006,97.794997 7.7080616,96.197997 C 7.8630484,95.777097 8.3346333,94.478997 8.7560283,93.313397 C 9.5857133,91.018197 11.187578,86.949497 11.746026,85.718697 C 12.536129,83.977497 12.893884,83.179097 13.433442,81.953597 C 14.479534,79.577397 18.313471,72.249797 19.521802,70.317297 C 19.71199,70.013097 20.307538,69.048797 20.845245,68.174597 C 21.382949,67.300397 22.404942,65.684297 23.116338,64.583397 C 23.827734,63.482497 24.547292,62.367597 24.715355,62.105997 C 28.653547,55.974997 38.25813,44.726897 44.568299,38.855997 C 46.885561,36.700097 48.095117,35.610897 49.217634,34.669597 C 49.897614,34.099297 50.930832,33.226597 51.513672,32.730097 C 54.111293,30.517997 58.982519,26.818897 61.757533,24.950997 C 65.30505,22.563397 69.719648,19.844997 72.880857,18.101597 C 73.821874,17.582697 74.90971,16.980697 75.29827,16.763997 C 76.779767,15.937797 81.383779,13.644697 82.611246,13.121997 C 83.316592,12.821497 84.185114,12.441197 84.541294,12.276897 C 87.774435,10.785197 94.637456,8.1532973 98.140904,7.0615973 C 101.88999,5.8931973 102.82199,5.6162973 104.61691,5.1375973 C 108.98935,3.9714973 113.22698,2.9728973 115.39063,2.5984973 C 116.13537,2.4695973 117.22156,2.2795973 117.80441,2.1762973 C 118.72509,2.0129973 121.94831,1.5219973 124.33929,1.1804973 C 124.76023,1.1203973 125.66098,1.0144973 126.34097,0.94519727 C 127.02095,0.87579727 128.05416,0.76659727 128.63699,0.70259727 C 133.36133,0.18339727 141.68733,-0.036102734 147.41742,0.20749727 C 154.02838,0.48849727 157.67215,0.84609727 164.4905,1.8825973 C 168.02334,2.4195973 173.55021,3.5803973 177.38365,4.5903973 C 181.12953,5.5772973 181.33503,5.6363973 185.03711,6.7911973 C 185.55518,6.9528973 186.15793,7.1377973 186.37653,7.2021973 C 189.18423,8.0301973 195.2063,10.377997 200.79199,12.822597 C 210.67677,17.148597 224.69614,25.919097 232.42969,32.615097 C 232.85063,32.979597 233.72488,33.718497 234.37248,34.256997 C 237.80573,37.112297 243.6824,42.866197 247.89419,47.496097 C 253.34533,53.488397 260.56665,63.398297 264.24958,69.940797 C 264.37718,70.167497 264.52335,70.405997 264.57443,70.470697 C 264.65482,70.572597 265.67491,72.400397 266.84153,74.532897 C 267.03638,74.888997 267.23542,75.233397 267.28384,75.298197 C 267.70423,75.860397 270.96529,82.661097 272.11135,85.365497 C 274.88762,91.916697 275.72331,94.198697 277.93256,101.2612 C 278.81548,104.0836 280.88702,112.3904 281.27997,114.6841 C 281.35208,115.1051 281.56512,116.3237 281.75338,117.3922 C 282.14292,119.6031 282.12052,119.4603 282.58447,122.6908 C 282.77514,124.0184 282.99072,125.6874 283.06356,126.3998 C 283.13638,127.1121 283.24379,128.119 283.30225,128.6371 C 283.49852,130.3768 283.85679,136.8606 283.95935,140.5292 C 284.04045,143.431 283.67047,151.74 283.30136,155.3064 C 283.23768,155.9215 283.12822,156.9813 283.05813,157.6613 C 282.88597,159.3314 282.18776,164.1733 281.82717,166.1978 C 281.72334,166.7806 281.50562,167.9993 281.34334,168.906 C 280.67128,172.6607 278.83562,179.8686 277.35514,184.5661 C 276.42199,187.527 274.61995,192.6864 274.22965,193.5148 C 274.16862,193.6444 273.82076,194.4921 273.4566,195.3987 C 271.32242,200.7124 268.96694,205.615 265.93284,211.0588 C 265.46361,211.9007 264.90503,212.9073 264.69156,213.296 C 264.4781,213.6846 264.12912,214.2766 263.91607,214.6118 C 263.70303,214.9469 263.16334,215.8213 262.71678,216.5547 C 261.47971,218.5863 258.86806,222.5555 257.80836,224.0145 C 257.28781,224.7312 256.62345,225.6519 256.33204,226.0607 C 255.56789,227.1322 251.81507,231.9614 251.22972,232.6263 C 251.06842,232.8096 250.23503,233.7807 249.37776,234.7845 C 239.32517,246.5551 224.75726,258.4407 211.35324,265.8077 C 210.54374,266.2526 209.5635,266.7963 209.17495,267.0155 C 203.8997,269.9942 191.64976,275.202 185.56696,277.052 C 184.88698,277.2587 184.09221,277.5078 183.80078,277.6053 C 181.90722,278.2393 176.43281,279.6927 173.49806,280.3408 C 164.20081,282.394 156.79508,283.3664 147.29967,283.7809 C 143.37916,283.9521 139.80509,283.9972 139.11635,283.884 z"
     id="path5"
     style="fill:#e23828;fill-opacity:1" />
  <path
     d="M 148.35938,248.3157 C 151.14882,248.1275 157.0899,247.5539 157.39768,247.4431 C 157.47939,247.4137 158.22119,247.28 159.04613,247.1459 C 161.03031,246.8236 166.02747,245.8141 167.43415,245.4514 C 181.52346,241.8193 192.65218,236.6668 204.39504,228.3388 C 217.06807,219.351 228.94428,205.7075 236.14305,191.8663 C 238.77934,186.7976 240.55422,182.7577 242.45437,177.5013 C 243.07303,175.7899 244.31161,171.8031 244.77712,170.0245 C 244.90425,169.5387 245.19243,168.4526 245.41753,167.6107 C 246.30447,164.2935 247.28666,158.9958 247.73259,155.124 C 247.79934,154.5443 247.90767,153.6197 247.97332,153.0691 C 248.74439,146.6037 248.71974,136.8436 247.91567,130.2398 C 247.56181,127.3336 246.96168,123.4012 246.60187,121.6311 C 246.50316,121.1455 246.29307,120.1121 246.13502,119.3351 C 244.23616,109.9981 239.43977,97.560397 234.40823,88.925897 C 234.07845,88.359997 233.54992,87.453197 233.23373,86.910897 C 227.5703,77.195797 218.18882,66.528397 208.4096,58.683997 C 204.10187,55.228597 198.50387,51.453097 194.11502,49.043297 C 191.12489,47.401397 189.32249,46.495697 186.39117,45.161597 C 185.58168,44.793197 184.81339,44.442897 184.68387,44.382997 C 183.03895,43.622797 176.64776,41.177897 174.911,40.644397 C 169.56225,39.001297 163.64306,37.552597 159.89844,36.970097 C 159.02418,36.834097 158.04394,36.672997 157.72015,36.611997 C 157.15249,36.505197 155.83016,36.339397 152.71596,35.984897 C 136.41666,34.129097 117.23691,36.933297 101.49666,43.473697 C 88.139091,49.023997 76.813729,56.582597 66.69816,66.698097 C 64.341443,69.054797 63.507608,69.949397 61.034577,72.773797 C 59.606353,74.405097 57.258095,77.360597 56.173659,78.891697 C 55.69293,79.570497 55.105596,80.390697 54.868475,80.714597 C 53.441953,82.662497 50.346623,87.618997 48.949123,90.192997 C 48.720587,90.613897 48.258204,91.461797 47.9216,92.077097 C 42.812947,101.4143 38.63351,113.7718 36.970326,124.4571 C 36.834246,125.3313 36.675655,126.3115 36.617905,126.6353 C 36.560152,126.959 36.458464,127.7009 36.39193,128.2838 C 36.325396,128.8666 36.190402,130.0058 36.091942,130.8152 C 33.809037,149.5848 37.694189,171.4151 46.445335,188.9902 C 50.072016,196.2738 53.730923,202.0372 59.072671,208.8805 C 61.531309,212.0303 68.008425,218.8335 71.009305,221.4179 C 71.684474,221.9995 72.66077,222.8503 73.17885,223.3085 C 73.996812,224.032 76.249097,225.8339 77.851799,227.0469 C 81.003407,229.4325 87.048398,233.3389 90.369699,235.1363 C 97.597412,239.0478 103.13079,241.4307 109.93429,243.5612 C 112.86178,244.478 116.83688,245.564 118.32568,245.8537 C 118.62183,245.9114 119.62256,246.1195 120.54956,246.3163 C 121.47655,246.5132 122.53627,246.7245 122.90448,246.7858 C 123.27268,246.8472 124.50118,247.0569 125.63449,247.2518 C 126.76778,247.4466 128.27787,247.6615 128.99023,247.7291 C 129.70258,247.7968 130.7675,247.9043 131.35669,247.9682 C 136.34448,248.5084 143.37562,248.6521 148.35938,248.3157 z"
     id="path7"
     style="fill:#ffffff;fill-opacity:1" />
  <path
     d="M 123.51507,194.8007 C 114.02389,194.0372 105.96496,188.6719 99.376114,178.7303 C 88.044355,161.6321 88.109947,122.0644 99.498293,105.0289 C 113.58543,83.956597 136.37631,83.824597 150.36658,104.7346 C 159.25147,118.014 161.74219,144.3481 156.17432,166.1389 C 151.80905,183.223 137.34863,195.9136 123.51507,194.8007 z"
     id="path9"
     style="fill:#000000;fill-opacity:1" />
  <path
     d="M 127.1063,176.8932 C 132.18844,175.6605 135.65706,169.105 137.87403,156.5427 C 141.42046,136.4471 136.84734,111.6383 128.88895,107.7994 C 122.4604,104.6984 117.09385,108.7264 114.22574,118.8052 C 109.75104,134.5297 109.73211,149.2074 114.16621,164.9616 C 116.7947,174.3004 121.16871,178.3335 127.1063,176.8932 z"
     id="path11"
     style="fill:#ffffff;fill-opacity:1" />
  <path
     d="M 199.04883,194.8003 C 192.91368,194.2201 188.69137,192.5613 184.27407,188.9958 C 176.83466,182.9909 171.95741,175.6101 169.5503,166.714 C 166.33401,154.8274 165.63461,139.3175 167.72442,126.2232 C 169.2912,116.4059 171.25741,110.7012 175.009,105.0878 C 189.27641,83.739997 211.9171,83.766097 226.1485,105.1467 C 236.8338,121.1999 237.59302,158.8338 227.58716,176.4585 C 220.75754,188.4884 209.41205,195.7802 199.04883,194.8003 z"
     id="path13"
     style="fill:#000000;fill-opacity:1" />
  <path
     d="M 202.56695,176.901 C 207.71361,175.6523 211.00102,169.579 213.2999,157.0726 C 215.86772,143.1029 214.68168,126.9508 210.23921,115.3906 C 205.80568,103.8535 195.26173,103.8967 190.82463,115.4701 C 186.44241,126.9003 185.25215,143.6655 187.8501,157.3669 C 190.71438,172.4728 195.36665,178.648 202.56695,176.901 z"
     id="path15"
     style="fill:#ffffff;fill-opacity:1" />
  <path
     d="M 64.760045,153.6646 L 64.760045,114.9331 L 62.787808,116.0869 C 57.629551,119.1047 54.070003,121.1601 54.002166,121.1601 C 53.961075,121.1601 53.927456,117.268 53.927456,112.5107 L 53.927456,103.8613 L 59.903042,97.734697 L 65.878627,91.608097 L 74.150251,91.606997 L 82.421875,91.605997 L 82.421875,142.0011 L 82.421875,192.3962 L 73.59096,192.3962 L 64.760045,192.3962 L 64.760045,153.6646 z"
     id="path2384"
     style="fill:#000000;fill-opacity:1" />
</svg>
