<?xml version="1.0" encoding="UTF-8" standalone="no"?>
<svg
   xmlns:dc="http://purl.org/dc/elements/1.1/"
   xmlns:cc="http://creativecommons.org/ns#"
   xmlns:rdf="http://www.w3.org/1999/02/22-rdf-syntax-ns#"
   xmlns:svg="http://www.w3.org/2000/svg"
   xmlns="http://www.w3.org/2000/svg"
   xmlns:sodipodi="http://sodipodi.sourceforge.net/DTD/sodipodi-0.dtd"
   xmlns:inkscape="http://www.inkscape.org/namespaces/inkscape"
   width="605"
   height="605"
   fill-rule="evenodd"
   version="1.1"
   id="svg186"
   sodipodi:docname="UA_road_sign_3.29-50.svg"
   inkscape:version="1.0 (4035a4fb49, 2020-05-01)">
  <metadata
     id="metadata192">
    <rdf:RDF>
      <cc:Work
         rdf:about="">
        <dc:format>image/svg+xml</dc:format>
        <dc:type
           rdf:resource="http://purl.org/dc/dcmitype/StillImage" />
        <dc:title />
      </cc:Work>
    </rdf:RDF>
  </metadata>
  <defs
     id="defs190">
    <pattern
       y="0"
       x="0"
       height="6"
       width="6"
       patternUnits="userSpaceOnUse"
       id="EMFhbasepattern" />
  </defs>
  <sodipodi:namedview
     inkscape:document-rotation="0"
     pagecolor="#ffffff"
     bordercolor="#666666"
     borderopacity="1"
     objecttolerance="10"
     gridtolerance="10"
     guidetolerance="10"
     inkscape:pageopacity="0"
     inkscape:pageshadow="2"
     inkscape:window-width="1920"
     inkscape:window-height="1001"
     id="namedview188"
     showgrid="false"
     inkscape:zoom="0.68595041"
     inkscape:cx="198.89636"
     inkscape:cy="411.65651"
     inkscape:window-x="-9"
     inkscape:window-y="-9"
     inkscape:window-maximized="1"
     inkscape:current-layer="svg186" />
  <circle
     cx="302.5"
     cy="302.5"
     r="301.5"
     fill="#000"
     stroke="none"
     id="circle178" />
  <circle
     cx="302.5"
     cy="302.5"
     r="300"
     fill="#fff"
     stroke="none"
     id="circle180" />
  <circle
     cx="302.5"
     cy="302.5"
     r="290"
     fill="#da251d"
     stroke="none"
     id="circle182" />
  <circle
     cx="302.5"
     cy="302.5"
     r="240"
     fill="#fff"
     stroke="none"
     id="circle184" />
  <g
     style="font-style:normal;font-weight:normal;font-size:299.984px;line-height:1.25;font-family:sans-serif;fill:#000000;fill-opacity:1;stroke:none;stroke-width:7.4996"
     id="text283"
     aria-label="50">
    <path
       id="path296"
       style="font-style:normal;font-variant:normal;font-weight:800;font-stretch:normal;font-family:'Road UA';-inkscape-font-specification:'Road UA Ultra-Bold';stroke-width:7.4996"
       d="m 186.12964,316.89922 c 6.89963,-9.89947 16.49912,-15.59917 28.19849,-15.59917 18.899,0 30.89836,13.79927 30.89836,35.99808 0,22.19882 -12.59933,35.99809 -32.39828,35.99809 -15.89915,0 -28.19849,-9.29951 -31.7983,-25.19866 l -40.79783,7.79958 c 6.59965,34.79815 32.69826,54.89708 71.69618,54.89708 46.49752,0 76.19594,-28.49848 76.19594,-74.99601 0,-42.89771 -25.19866,-70.19625 -65.6965,-70.19625 -14.9992,0 -28.19849,3.89979 -36.59805,11.39939 l 1.79991,-41.69778 86.99536,0.29999 V 198.10555 H 151.93146 l -5.39971,115.19386 z" />
    <path
       id="path298"
       style="font-style:normal;font-variant:normal;font-weight:800;font-stretch:normal;font-family:'Road UA';-inkscape-font-specification:'Road UA Ultra-Bold';stroke-width:7.4996"
       d="m 317.17578,302.79997 c 0,72.59613 23.69874,107.99425 73.79607,107.99425 50.09732,0 73.79606,-35.39812 73.79606,-107.99425 0,-73.19609 -23.69874,-108.59421 -73.79606,-108.59421 -50.09733,0 -73.79607,35.39812 -73.79607,108.59421 z m 73.79607,-71.09621 c 20.09892,0 31.19833,25.49864 31.19833,71.09621 0,45.29759 -11.09941,70.49625 -31.19833,70.49625 -20.09893,0 -31.19834,-25.19866 -31.19834,-70.49625 0,-45.59757 11.09941,-71.09621 31.19834,-71.09621 z" />
  </g>
</svg>
