<?xml version="1.0" encoding="utf-8"?>
<!-- Generator: Adobe Illustrator 16.0.0, SVG Export Plug-In . SVG Version: 6.00 Build 0)  -->
<!DOCTYPE svg PUBLIC "-//W3C//DTD SVG 1.1//EN" "http://www.w3.org/Graphics/SVG/1.1/DTD/svg11.dtd">
<svg version="1.1" id="Capa_1" xmlns="http://www.w3.org/2000/svg" xmlns:xlink="http://www.w3.org/1999/xlink" x="0px" y="0px"
	 width="90.842px" height="45.367px" viewBox="0 0 90.842 45.367" enable-background="new 0 0 90.842 45.367" xml:space="preserve">
<polygon fill-rule="evenodd" clip-rule="evenodd" fill="#004994" points="45.419,0 90.842,22.684 45.419,45.367 0,22.684 "/>
<polygon fill-rule="evenodd" clip-rule="evenodd" fill="#FFFFFF" points="86.979,22.684 45.419,43.44 3.858,22.684 45.419,1.926 "/>
<path fill-rule="evenodd" clip-rule="evenodd" fill="#E30613" d="M75.534,19.843c3.505,1.614,3.675,4.008-0.147,5.803L51.278,37.664
	c-0.112,0.052-0.24,0.11-0.356,0.159c-3.418,1.584-7.13,1.646-10.823,0.05c-0.203-0.08-0.418-0.171-0.602-0.261L15.566,25.649
	c-3.898-1.895-3.893-4.039-0.127-5.873L39.676,7.69c3.953-1.849,7.902-1.789,11.545,0.003L75.534,19.843z M51.679,6.75
	l24.305,12.146c4.32,1.99,4.476,5.519-0.142,7.69l-24.1,12.011c-0.131,0.064-0.262,0.124-0.4,0.182
	c-3.697,1.712-7.687,1.772-11.648,0.061c-0.229-0.089-0.451-0.186-0.662-0.289L15.096,26.586c-4.613-2.249-4.741-5.506-0.125-7.753
	L39.206,6.75C43.446,4.76,47.737,4.808,51.679,6.75z"/>
<path fill-rule="evenodd" clip-rule="evenodd" fill="none" stroke="#000000" stroke-width="0.31" stroke-miterlimit="3.8637" d="
	M45.419,22.684"/>
<path fill-rule="evenodd" clip-rule="evenodd" fill="none" stroke="#000000" stroke-width="0.31" stroke-miterlimit="3.8637" d="
	M45.419,22.684"/>
<path fill-rule="evenodd" clip-rule="evenodd" fill="none" d="M75.534,19.843c3.505,1.614,3.675,4.008-0.147,5.803L51.278,37.664
	c-0.112,0.052-0.24,0.11-0.356,0.159c-3.418,1.584-7.13,1.646-10.823,0.05c-0.203-0.08-0.418-0.171-0.602-0.261L15.566,25.649
	c-3.898-1.895-3.893-4.039-0.127-5.873L39.676,7.69c3.953-1.849,7.902-1.789,11.545,0.003L75.534,19.843z"/>
<path fill-rule="evenodd" clip-rule="evenodd" fill="#E30613" d="M35.927,12.407l7.088-2.62c1.241-0.458,2.718-0.13,2.718,1.731
	v9.804c0,1.908-1.582,3.003-3.028,3.233c-0.817,0.132-2.112,0.23-2.112,0.23v6.844c0,1.161,1.242,1.534,1.242,1.534l-0.019,2.291
	L35.65,33.17l0.042-1.911c0,0,1.331,0.325,1.397-0.493v-1.027V16.93v-1.02c0-1.094-1.162-0.666-1.162-0.666V12.407z M40.551,13.936
	v6.963l1.145-0.08c0.785-0.13,1.584-0.736,1.584-1.739v-4.691c0-0.819-0.753-1.025-1.414-0.822L40.551,13.936z M20.264,18.205
	l4.942-1.828v1.75l-0.92,0.265l0.335,0.438l1.855,2.425l1.724-3.311l0.407-0.779l-0.852,0.24v-1.988l6.117-2.252l0.006,2.512
	c0,0-0.688,0.166-1.17,0.42c-0.379,0.202-0.761,0.918-0.761,0.918l-3.922,6.83v2.856v0.475c0,1.54,1.165,1.84,1.165,1.84v1.767
	l-5.371-1.993v-1.329c0,0,1.093,0.348,1.093-0.617v-0.54v-2.646l-3.583-4.015c0,0-0.136-0.166-0.414-0.236
	c-0.255-0.062-0.652,0.046-0.652,0.046V18.205z M52.491,14.371l-0.002,1.682l0.002,4.94l1.84,0.111
	c0.465,0.028,0.87-0.327,0.903-0.792l0.074-1.169l1.015,0.142v7.132l-1.015,0.144l-0.084-1.203
	c-0.032-0.466-0.427-0.822-0.893-0.792l-1.84,0.112c0,0-0.033,6.288,0.145,6.646c0.277,0.563,1.533,0.24,1.533,0.24v2.222
	l-6.566,2.415v-2.581c0,0,1.152-0.143,1.262-1.211c0.021-0.192,0.011-14.686,0.023-15.59c0.011-0.899,0.007-2.511,0.006-2.614
	c-0.016-1.006-1.291-1.203-1.291-1.203l0.031-3.513l10.943,4.052l0.029,3.506l-1.798-0.445c0,0,0.122-0.83-0.818-1.229
	C55.948,15.356,52.491,14.371,52.491,14.371z M59.96,14.056l8.334,3.087c1.208,0.507,2.028,2.019,2.052,3.467
	c0.011,0.61-0.131,1.189-0.388,1.693c-0.199,0.396-0.481,0.548-0.481,0.548s1.063,0.801,1.032,2.568
	c-0.033,1.812-0.861,2.581-1.345,2.807c-0.041,0.021-9.192,3.395-9.192,3.395v-2.449c0,0,1.018-0.208,1.018-1.244v-1.245v-8.171
	v-0.807c-0.002-1.028-1.03-1.221-1.03-1.221V14.056z M64.1,27.054c1.615-0.291,3.5-0.736,3.426-1.941
	c-0.047-0.766-1.811-1.059-3.426-0.767V27.054z M64.1,18.594v2.709c1.615,0.291,3.254,0,3.301-0.77
	C67.475,19.332,65.714,18.886,64.1,18.594z"/>
<g>
</g>
<g>
</g>
<g>
</g>
<g>
</g>
<g>
</g>
<g>
</g>
</svg>
