<?xml version="1.0" encoding="UTF-8" standalone="no"?>
<!-- Created with Inkscape (http://www.inkscape.org/) -->

<svg
   xmlns:dc="http://purl.org/dc/elements/1.1/"
   xmlns:cc="http://creativecommons.org/ns#"
   xmlns:rdf="http://www.w3.org/1999/02/22-rdf-syntax-ns#"
   xmlns:svg="http://www.w3.org/2000/svg"
   xmlns="http://www.w3.org/2000/svg"
   xmlns:sodipodi="http://sodipodi.sourceforge.net/DTD/sodipodi-0.dtd"
   xmlns:inkscape="http://www.inkscape.org/namespaces/inkscape"
   width="201.90077mm"
   height="120.19157mm"
   viewBox="0 0 201.90077 120.19157"
   version="1.1"
   id="svg8"
   inkscape:version="0.92.4 (5da689c313, 2019-01-14)"
   sodipodi:docname="Nepal road sign C27.svg">
  <defs
     id="defs2">
    <pattern
       y="0"
       x="0"
       height="6"
       width="6"
       patternUnits="userSpaceOnUse"
       id="EMFhbasepattern" />
    <pattern
       id="EMFhbasepattern-2"
       patternUnits="userSpaceOnUse"
       width="6"
       height="6"
       x="0"
       y="0" />
    <pattern
       y="0"
       x="0"
       height="6"
       width="6"
       patternUnits="userSpaceOnUse"
       id="EMFhbasepattern-1" />
  </defs>
  <sodipodi:namedview
     id="base"
     pagecolor="#ffffff"
     bordercolor="#666666"
     borderopacity="1.0"
     inkscape:pageopacity="0.0"
     inkscape:pageshadow="2"
     inkscape:zoom="0.98994949"
     inkscape:cx="376.07671"
     inkscape:cy="131.76865"
     inkscape:document-units="mm"
     inkscape:current-layer="layer1"
     showgrid="false"
     inkscape:window-width="1920"
     inkscape:window-height="1027"
     inkscape:window-x="-8"
     inkscape:window-y="-8"
     inkscape:window-maximized="1" />
  <metadata
     id="metadata5">
    <rdf:RDF>
      <cc:Work
         rdf:about="">
        <dc:format>image/svg+xml</dc:format>
        <dc:type
           rdf:resource="http://purl.org/dc/dcmitype/StillImage" />
        <dc:title></dc:title>
      </cc:Work>
    </rdf:RDF>
  </metadata>
  <g
     inkscape:label="Layer 1"
     inkscape:groupmode="layer"
     id="layer1"
     transform="translate(7.4832737,-61.114378)">
    <g
       transform="matrix(0.86865023,0,0,0.86865023,279.13465,4.0355478)"
       id="layer1-0"
       inkscape:label="Layer 1"
       style="fill:#000000">
      <g
         inkscape:label="Layer 1"
         id="layer1-7"
         transform="matrix(-1,0,0,1,2.6511695,49.893084)"
         style="fill:#000000">
        <g
           id="g5242"
           transform="matrix(4.1562749,0,0,4.1562749,-5.2136598,14.935583)"
           style="fill:#000000">
          <path
             id="path5196"
             d="m 35.444186,0.212 c -1.163846,0 -2.183222,0.61930342 -2.765145,1.6376686 -2.250703,4.8577443 -4.751064,9.2985154 -7.103454,14.2257934 -0.109111,0.254591 -0.218221,0.509183 -0.218221,0.800144 0,0.290962 0.10911,0.545553 0.218221,0.800144 2.187409,5.148128 4.704493,9.72026 7.213652,14.226804 0.581923,1.053725 1.601299,1.600288 2.801515,1.600288 h 42.452447 c 1.783149,0 3.236946,-1.455818 3.236946,-3.202597 V 3.4499567 C 81.280147,1.7041878 79.82635,0.212 78.043201,0.212 H 35.444186"
             stroke-miterlimit="10"
             inkscape:connector-curvature="0"
             style="clip-rule:evenodd;fill:#000000;fill-opacity:1;fill-rule:evenodd;stroke:none;stroke-width:0.42937025;stroke-miterlimit:10;stroke-opacity:1"
             sodipodi:nodetypes="cccsccsssssc" />
          <path
             id="path5198"
             d="m 35.205866,31.890179 c -0.578487,0 -1.084664,-0.362559 -1.373907,-0.831575 -2.74882,-4.702219 -6.951699,-14.079386 -6.951699,-14.079386 0,0 4.421359,-9.7589931 7.170178,-14.4612118 0.325399,-0.5061764 0.79542,-0.8315756 1.410063,-0.8315756 h 42.666405 c 0.866727,0 1.626996,0.7231092 1.626996,1.5908403 V 30.299339 c 0,0.831575 -0.760269,1.59084 -1.626996,1.59084 h -42.92104"
             inkscape:connector-curvature="0"
             style="clip-rule:evenodd;fill:#ffffff;fill-opacity:1;fill-rule:evenodd;stroke-width:1.00431836"
             sodipodi:nodetypes="ccccsssssc" />
          <path
             sodipodi:nodetypes="ccccccc"
             style="clip-rule:evenodd;fill:#000000;fill-opacity:1;fill-rule:evenodd"
             d="m 36.896388,3.4664039 -7.6,13.2899981 7.218048,13.414318 h 7.396175 l -7.6,-13.414318 7.6,-13.2899981 z"
             id="polygon5200"
             inkscape:connector-curvature="0" />
        </g>
      </g>
    </g>
    <g
       aria-label="gu/sf]6 
;@* "
       style="font-style:normal;font-variant:normal;font-weight:400;font-size:41.16837311px;line-height:130.29023409%;font-family:Milan;text-align:start;letter-spacing:0px;word-spacing:0px;text-anchor:start;fill:#000000;fill-opacity:1;stroke:none;stroke-width:0.34324852"
       id="text4632">
      <path
         d="m 24.3189,93.832081 -5.347064,0.0402 -0.371882,0.291475 q -0.442239,0.562849 -0.412086,1.397071 0.05025,1.397072 -1.527733,1.397072 -1.206104,0 -2.472514,-2.140836 -0.984986,-1.668445 -0.984986,-2.552922 0,-0.984985 0.824172,-1.397071 0.743764,-0.251272 0.864375,-0.251272 H 24.3189 v -3.73892 H 11.885971 l -1.72875,-3.256483 h 20.212304 l 1.72875,3.256483 H 27.987469 V 103.3 L 24.3189,100.82749 Z"
         style="font-style:normal;font-variant:normal;font-weight:400;font-size:41.16837311px;font-family:Milan;fill:#000000;stroke-width:0.34324852"
         id="path4649"
         inkscape:connector-curvature="0" />
      <path
         d="m 47.25499,83.620395 1.72875,3.256483 H 44.872934 V 103.3 l -3.668569,-2.47251 V 86.876878 h -3.497703 l -0.0402,9.055836 q -0.201017,0.864375 -0.904578,0.864375 -1.03524,0 -2.844397,-1.356868 -1.708649,-1.286512 -2.221243,-2.311701 L 31.53543,92.475214 q 0,-0.623155 0.653307,-1.03524 l 0.371882,-0.120611 h 1.527733 V 86.876878 H 30.37958 l -1.72875,-3.256483 z"
         style="font-style:normal;font-variant:normal;font-weight:400;font-size:41.16837311px;font-family:Milan;fill:#000000;stroke-width:0.34324852"
         id="path4651"
         inkscape:connector-curvature="0" />
      <path
         d="m 63.03486,86.876878 h -5.970218 v 5.930014 l -0.251272,0.653307 q -0.864375,1.60814 -2.713735,2.351904 l -0.864375,0.241221 4.693757,5.769196 -1.648343,1.47748 -5.930015,-7.538151 -0.944782,-1.356868 q -0.663357,-0.944782 -0.663357,-1.929767 0,-1.286512 1.15585,-1.48753 0.180916,-0.03015 0.35178,-0.03015 0.944782,0 1.49758,0.984985 h 0.542748 q 0.24122,0 0.572899,-0.251272 l 0.45229,-0.572899 0.12061,-0.331679 V 86.87688 h -6.171236 l -1.72875,-3.256483 H 61.30611 Z"
         style="font-style:normal;font-variant:normal;font-weight:400;font-size:41.16837311px;font-family:Milan;fill:#000000;stroke-width:0.34324852"
         id="path4653"
         inkscape:connector-curvature="0" />
      <path
         d="M 83.940673,86.876878 H 73.236494 v 4.070603 l 0.703561,-0.452289 q 0.763866,-0.492493 1.648343,-0.492493 2.090581,0 3.638416,2.060429 1.397071,1.859411 1.397071,3.738924 0,0.211069 -0.0201,0.412086 l -0.0402,0.502544 q -0.130662,1.628241 -1.155851,3.497708 -0.261322,0.49249 -0.733713,1.19605 l -0.170865,0.16081 -2.87455,-2.060426 0.733714,-1.105596 q 1.60814,-2.412209 1.60814,-4.653554 0,-0.995036 -0.703561,-0.995036 -1.477479,0 -3.578111,2.100632 l -0.452289,0.45229 V 103.3 l -3.618314,-2.47251 v -3.246433 l -0.703561,0.653306 q -0.984986,0.663358 -2.18104,0.663358 -2.562972,0 -4.372129,-1.698597 -1.849361,-1.728751 -1.849361,-4.271621 0,-1.819208 1.346817,-3.085618 1.316664,-1.236257 3.145923,-1.236257 2.18104,0 3.748976,1.477478 0.361831,0.291475 0.864375,0.944782 v -4.15101 H 59.4869 L 57.75815,83.620395 H 82.171719 Z M 69.61818,93.419996 68.954822,92.515417 Q 68.090447,91.530432 66.934597,91.27916 l -0.532696,-0.0402 q -1.236258,-0.100508 -2.41221,1.03524 -1.165901,1.135749 -1.165901,2.382057 l 0.12061,0.69351 q 0.120611,0.371882 0.623154,0.623154 0.321628,0.120611 1.105596,0.201018 2.432312,0 4.362079,-2.010175 z"
         style="font-style:normal;font-variant:normal;font-weight:400;font-size:41.16837311px;font-family:Milan;fill:#000000;stroke-width:0.34324852"
         id="path4655"
         inkscape:connector-curvature="0" />
      <path
         d="M 93.036715,86.876878 H 88.925908 V 103.3 l -3.668569,-2.47251 V 86.876878 h -2.382056 l -1.72875,-3.256483 h 10.161432 z"
         style="font-style:normal;font-variant:normal;font-weight:400;font-size:41.16837311px;font-family:Milan;fill:#000000;stroke-width:0.34324852"
         id="path4657"
         inkscape:connector-curvature="0" />
      <path
         d="m 88.40326,84.072684 h -1.356868 l -1.72875,-3.417296 -0.613103,-0.984986 q -0.623154,-0.984985 -1.648343,-1.567936 l -0.954833,-0.371882 -0.864375,-0.120611 h -0.201017 l -0.201018,0.0402 -0.864375,-3.578111 0.653307,-0.0402 q 1.437275,-0.09046 3.256483,1.356868 1.286511,1.286511 2.221242,3.4575 l 0.904579,2.100632 z"
         style="font-style:normal;font-variant:normal;font-weight:400;font-size:41.16837311px;font-family:Milan;fill:#000000;stroke-width:0.34324852"
         id="path4659"
         inkscape:connector-curvature="0" />
      <path
         d="m 109.02765,86.876878 h -5.34706 v 3.125821 q 0,1.487529 -2.02023,2.30165 l -5.306861,2.140836 q -1.03524,0.663357 -1.03524,1.819207 0,1.336766 1.206105,2.271498 1.1458,0.894527 2.502667,0.81412 l 0.653307,-0.0402 q 1.799102,-0.11056 3.748972,-1.407122 l 1.43728,-1.186003 1.72875,3.286635 -1.43728,0.99503 q -1.67849,1.1458 -3.5379,1.23626 l -0.90458,0.0402 q -2.995162,0.13067 -5.598338,-2.18104 -2.271497,-2.020218 -2.271497,-4.412325 0,-4.171112 4.532943,-5.427471 1.889564,-0.532696 2.341854,-0.864375 l 0.251271,-0.371883 V 86.876878 H 91.40847 l -1.72875,-3.256483 h 17.57898 z"
         style="font-style:normal;font-variant:normal;font-weight:400;font-size:41.16837311px;font-family:Milan;fill:#000000;stroke-width:0.34324852"
         id="path4661"
         inkscape:connector-curvature="0" />
      <path
         d="m 26.62055,125.22574 -0.984986,0.32162 -1.236257,0.21107 h -0.783968 q -0.201017,-0.0804 -0.281424,-0.0804 -1.165902,-0.21107 -1.939819,-0.90458 l -0.824171,-0.74377 -0.0402,0.12061 q -0.261322,0.43219 -1.025189,0.86438 -0.532696,0.44224 -1.316664,0.74376 l -0.331679,0.12061 4.693758,5.7692 -1.648343,1.47748 -5.930015,-7.53815 -0.944782,-1.35687 q -0.663358,-0.94478 -0.663358,-1.92977 0,-1.28651 1.155851,-1.48753 0.180915,-0.0301 0.35178,-0.0301 0.944782,0 1.49758,0.98499 l 0.412086,-0.0905 q 0.753815,-0.15076 0.824171,-0.69351 l 0.0402,-0.29148 v -3.99019 l -5.75915,-0.0402 -1.9800218,-3.21628 H 32.721429 l 1.809157,3.21628 h -4.241468 v 16.38293 l -3.668568,-2.47252 z m 0,-8.52314 h -5.306861 v 5.51793 l 0.45229,0.20101 q 0.643255,0.29148 1.316664,0.25128 l 0.623154,-0.0402 q 1.306613,-0.25127 2.341853,-0.95483 0.371882,-0.25127 0.5729,-0.73371 z"
         style="font-style:normal;font-variant:normal;font-weight:400;font-size:41.16837311px;font-family:Milan;fill:#000000;stroke-width:0.34324852"
         id="path4663"
         inkscape:connector-curvature="0" />
      <path
         d="m 48.440993,121.02095 q 0,3.28663 -2.512718,5.09579 -0.633205,0.46234 -2.552921,1.19605 l 4.321875,7.32709 -2.060429,1.23626 -4.61335,-8.03065 -0.5729,0.0905 q -1.517682,0 -2.633329,-1.19606 -0.703561,-0.75381 -0.703561,-2.22124 0,-2.8444 2.271497,-2.8444 0.693511,0 1.316665,0.98499 l 0.412085,0.99503 1.105596,-0.25127 q 2.432311,-0.78397 3.256483,-2.84439 0.281424,-1.02519 0.281424,-1.55789 0,-2.50267 -2.502667,-2.39211 l -0.954833,0.0402 q -0.23117,0.0101 -1.065392,0.29147 -2.010175,0.67341 -3.085618,1.52773 l -1.196054,0.94479 -2.552921,-3.4575 q 0.834222,-0.72367 1.688546,-1.19606 2.221243,-1.23625 4.814368,-1.23625 h 0.623154 l 0.69351,0.0804 q 2.683583,0.32163 4.472639,2.53282 1.748851,2.14084 1.748851,4.88473 z"
         style="font-style:normal;font-variant:normal;font-weight:400;font-size:41.16837311px;font-family:Milan;fill:#000000;stroke-width:0.34324852"
         id="path4665"
         inkscape:connector-curvature="0" />
      <path
         d="m 66.924548,128.58925 q -1.27646,1.47748 -2.3117,2.3117 -2.894652,2.3117 -5.266657,2.3117 -0.180916,0 -0.371883,-0.0101 l -1.567936,-0.12061 q -0.542747,-0.12061 -1.477478,-0.58295 -4.442486,-2.18104 -4.442486,-5.79935 0,-1.52773 0.5729,-2.51272 l 0.291475,-0.49249 9.337261,-10.62377 2.351904,3.86958 -8.191461,9.26691 -0.412086,0.77391 q -0.412086,0.78397 -0.412086,1.60814 0,1.68855 1.889564,1.68855 2.402159,0 4.94503,-2.51272 0.783968,-0.77392 2.432311,-2.83434 z"
         style="font-style:normal;font-variant:normal;font-weight:400;font-size:41.16837311px;font-family:Milan;fill:#000000;stroke-width:0.34324852"
         id="path4667"
         inkscape:connector-curvature="0" />
      <g
         aria-label="F28"
         style="font-style:normal;font-weight:normal;font-size:21.43855286px;line-height:1.25;font-family:sans-serif;letter-spacing:0px;word-spacing:0px;fill:#000000;fill-opacity:1;stroke:none;stroke-width:0.1839688"
         id="text4672">
        <path
           d="m 85.211756,117.72699 h 0.293105 0.125617 0.125616 0.544339 0.334977 0.58621 0.125617 0.209361 0.125616 0.167489 0.125617 0.837443 0.711827 0.125616 0.502467 0.544338 0.167489 0.711826 0.334978 0.293105 0.460594 0.209361 0.544338 0.167489 0.711827 0.125616 0.502466 v 3.18229 H 94.800484 93.96304 93.669935 93.37683 93.209341 92.99998 92.455642 92.288153 91.576326 91.45071 90.948244 90.780755 90.613266 90.48765 89.733951 89.189613 89.022124 88.310297 88.18468 87.682214 v 3.22415 h 0.293106 0.837443 0.251233 0.125617 0.167488 0.125617 0.209361 0.125616 0.167489 0.125616 0.837444 0.167489 0.167488 0.125617 0.753699 0.544338 0.167489 0.711827 0.125616 0.502466 v 3.0148 H 93.628063 93.502446 93.293086 93.167469 92.99998 92.874364 92.03692 91.492582 91.199477 90.613266 90.48765 89.733951 89.189613 89.022124 88.310297 88.18468 87.682214 v 6.6158 h -0.04187 0.04187 -0.08374 0.04187 -0.08374 0.04187 -0.08374 0.04187 -0.08374 0.04187 -0.08374 0.04187 -0.08374 0.04187 -0.08374 0.04187 -0.08374 0.04187 -0.08374 0.04187 -0.08374 0.04187 -0.08374 0.04187 -0.08374 0.04187 -0.08374 0.04187 -0.08374 0.04187 -0.08374 0.04187 -0.08374 0.04187 -0.08374 0.04187 -0.08374 0.04187 -0.08374 0.04187 -0.08374 0.04187 -0.08374 0.04187 -0.08374 0.04187 -0.08374 0.04187 -0.08374 0.04187 -0.08374 0.04187 -0.08374 0.04187 -0.08374 0.04187 -0.08374 0.04187 -0.08374 0.04187 -0.08374 0.04187 -0.08374 0.04187 -0.08374 0.04187 -0.08374 0.04187 -0.08374 0.04187 -0.08374 0.04187 -0.08374 0.04187 -0.08374 0.04187 -0.08374 0.04187 -0.08374 0.04187 -0.08374 0.04187 -0.08374 0.04187 -0.08374 0.04187 -0.08374 0.04187 -0.08374 0.04187 -0.08374 0.04187 -0.08374 0.04187 -0.08374 0.04187 -0.08374 0.04187 -0.08374 0.04187 -0.08374 0.04187 -0.08374 0.04187 -0.08374 0.04187 -0.08374 0.04187 -0.08374 0.04187 -0.08374 0.04187 -0.08374 0.04187 -0.08374 0.04187 -0.08374 0.04187 -0.08374 0.04187 -0.08374 0.04187 -0.08374 0.04187 -0.08374 0.04187 -0.08374 0.04187 -0.08374 0.04187 -0.08374 0.04187 -0.08374 0.04187 -0.08374 0.04187 -0.08374 0.04187 -0.08375 0.04187 -0.08374 0.04187 -0.08374 0.04187 -0.08374 0.04187 -0.08374 0.04187 -0.08374 0.04187 -0.08374 0.04187 -0.08374 0.04187 -0.08374 0.04187 -0.08374 0.04187 -0.04187 v -0.16748 -0.7537 -0.33498 -0.33498 -0.12561 -0.16749 -0.7537 -0.12562 -0.83744 -0.33498 -0.16749 -0.7537 -0.12561 -0.12562 -1.29804 -0.2931 -0.12562 -0.16749 -0.7537 -0.58621 -0.12561 -0.20937 -0.12561 -0.16749 -0.12562 -0.83744 -0.71183 -0.12561 -0.50247 -0.54434 -0.16749 -0.71182 -0.12562 -0.50247 -0.46059 -0.20936 -0.54434 -0.16749 -0.71182 -0.12562 -0.50247 z"
           style="font-style:normal;font-variant:normal;font-weight:normal;font-stretch:normal;font-family:'Transport Heavy';-inkscape-font-specification:'Transport Heavy, ';letter-spacing:-1.68010414px;stroke-width:0.1839688"
           id="path4817"
           inkscape:connector-curvature="0" />
        <path
           d="m 99.903671,117.47576 q 5.736489,-0.55481 6.741419,4.35471 0.43966,3.31837 -1.54927,5.56899 -0.0733,0.13609 -0.16749,0.20937 l -0.0419,0.0837 q -0.36638,0.47106 -0.66995,0.71183 -0.33498,0.43965 -0.7537,0.62808 l -0.0419,0.0837 q -0.49199,0.36639 -0.83744,0.54434 l -0.12562,0.12562 -0.16748,0.0837 -0.12562,0.0837 -0.12562,0.0837 -0.0837,0.0838 -0.12562,0.0419 q -0.0419,0.0733 -0.0837,0.0837 l -0.0837,0.0838 -0.2931,0.16749 q -0.25124,0.11514 -0.41872,0.25123 h 0.2931 0.12562 0.16749 0.12561 0.20936 0.12562 0.16749 0.12562 0.83744 0.16749 0.16749 0.12561 0.7537 0.54434 0.16749 0.71183 0.12561 0.50247 v 2.5542 q 0.0105,0.24077 -0.0838,0.46059 h -0.12561 -0.12562 -1.29804 -0.16749 -0.20936 -0.16748 -0.20937 -0.54433 -0.16749 -0.71183 -0.12562 -0.50246 -0.29311 -0.2931 -0.25124 -0.2931 -0.25123 -0.29311 -0.25123 -0.711829 -0.251233 -0.209361 -0.251233 -0.167489 -0.753699 -0.460594 -0.167488 -0.167489 -0.167489 -0.167488 -0.711827 -0.125617 -0.502466 v -0.20936 -0.16748 -0.20937 -0.16748 -0.20937 -0.54433 -0.16749 -0.71183 -0.12562 -0.50246 l 0.502466,-0.33498 0.167489,-0.0837 0.209361,-0.0838 0.209361,-0.16749 0.08374,-0.0419 q 0.188425,-0.14655 0.334977,-0.20936 l 0.167489,-0.12562 0.460594,-0.25123 0.125616,-0.12562 0.08374,-0.0837 0.08374,-0.0419 q 0.209361,-0.13609 0.334977,-0.25124 l 0.125617,-0.0419 q 0.05234,-0.0628 0.125617,-0.0837 0.408253,-0.36638 0.711826,-0.54434 l 0.167489,-0.12562 0.167489,-0.0837 0.08374,-0.0838 q 0.230297,-0.14655 0.37685,-0.2931 l 0.125616,-0.0837 0.125617,-0.0837 0.125611,-0.0419 0.12562,-0.12562 0.12562,-0.0419 0.0837,-0.12562 0.12562,-0.0419 0.0837,-0.0837 0.29311,-0.16749 q 0.35591,-0.36638 0.66995,-0.54434 l 0.0837,-0.12562 0.16749,-0.16749 0.79557,-0.75369 0.0419,-0.12562 0.20936,-0.33498 0.2931,-0.50246 q 0.35592,-1.18289 0.16749,-2.21923 l -0.41872,-0.7537 q -0.0733,-0.0419 -0.0837,-0.0837 l -0.0837,-0.0419 -0.0837,-0.12561 q -0.0733,-0.0419 -0.0837,-0.0837 -0.36638,-0.15702 -0.58621,-0.37685 -4.009255,-0.8165 -3.977851,3.22416 H 97.893807 97.140108 96.972619 96.805131 96.637642 96.512025 96.344537 96.21892 96.051431 95.297732 94.753394 q -0.136084,-5.79929 5.150277,-6.40644 z"
           style="font-style:normal;font-variant:normal;font-weight:normal;font-stretch:normal;font-family:'Transport Heavy';-inkscape-font-specification:'Transport Heavy, ';letter-spacing:-1.68010414px;stroke-width:0.1839688"
           id="path4819"
           inkscape:connector-curvature="0" />
        <path
           d="m 114.36529,117.43389 q 4.46985,-0.18843 5.98772,3.3079 1.0154,3.16135 -1.59114,4.64781 2.17735,1.17242 2.13548,3.43352 0.0733,2.45999 -1.63302,3.89411 -3.03573,2.05174 -6.49018,1.0468 -3.41258,-0.87931 -3.85224,-4.14534 -0.30358,-3.0462 2.13548,-4.14535 -2.4914,-1.66441 -1.71676,-4.3547 1.18289,-3.40212 5.02466,-3.68475 z m 0.20936,3.01479 q -1.26663,0.17796 -1.88425,1.13055 -0.47106,2.41812 1.968,2.59608 2.5542,0.14655 2.59607,-2.17736 -0.70136,-1.75863 -2.67982,-1.54927 z m -0.0837,6.53206 q -2.27157,0.24077 -2.21923,2.2611 0.36638,1.82144 2.2611,1.8005 3.18228,0.28264 3.0148,-2.5542 -0.73277,-1.70629 -3.05667,-1.5074 z"
           style="font-style:normal;font-variant:normal;font-weight:normal;font-stretch:normal;font-family:'Transport Heavy';-inkscape-font-specification:'Transport Heavy, ';letter-spacing:-1.68010414px;stroke-width:0.1839688"
           id="path4821"
           inkscape:connector-curvature="0" />
      </g>
      <g
         aria-label="Nagarkot"
         style="font-style:normal;font-weight:normal;font-size:21.86607933px;line-height:1.25;font-family:sans-serif;letter-spacing:0px;word-spacing:0px;fill:#000000;fill-opacity:1;stroke:none;stroke-width:0.18763751"
         id="text4676">
        <path
           d="m 11.66431,146.90196 h 0.597901 0.213535 0.170829 0.76873 0.170828 0.170829 0.170829 0.726022 0.128122 0.512486 l 0.170829,0.29895 0.170828,0.25624 0.170829,0.25624 0.170829,0.25625 0.170829,0.25624 0.128121,0.12812 0.04271,0.12812 q 0.05338,0.0427 0.04271,0.0854 0.309628,0.33098 0.427072,0.6406 0.309627,0.33098 0.427072,0.64061 l 0.170829,0.21354 0.170829,0.25624 q 0.117444,0.19218 0.213536,0.29895 l 0.04271,0.12812 q 0.160152,0.17083 0.213536,0.34166 0.427072,0.48046 0.5979,0.89685 l 0.170829,0.25624 q 0.05338,0.0427 0.04271,0.0854 0.320304,0.36301 0.469779,0.64061 l 0.170829,0.25624 0.128122,0.25624 0.170828,0.25625 0.170829,0.17082 0.128122,0.21354 0.08541,0.21354 q 0.277597,0.27759 0.384365,0.55519 l 0.128121,0.17083 0.08541,0.17083 0.128121,0.12812 q 0.202859,0.29895 0.29895,0.51248 l 0.128122,0.12813 0.08541,0.12812 0.04271,0.12812 0.08541,0.0427 q 0.138798,0.30962 0.29895,0.46978 l 0.04271,0.12812 q 0.05338,0.0427 0.04271,0.0854 0.395041,0.43775 0.555193,0.81144 l 0.04271,-0.29895 v -0.29895 -0.34166 -0.17083 -0.76873 -0.46978 -0.17083 -0.17082 -0.17083 -0.17083 -0.72602 -0.12813 -0.51248 -0.25625 -0.72602 -0.12812 -0.51249 -0.55519 -0.17083 -0.72602 -0.12812 -0.51249 -0.46978 -0.21353 -0.5552 -0.17082 -0.72603 -0.12812 -0.51248 h 0.555194 0.170828 0.76873 0.170829 0.170828 0.170829 0.726022 0.128122 0.512486 v 16.31414 H 25.757686 25.2452 24.818128 24.519178 24.262935 24.049399 23.87857 23.707741 23.536913 23.408791 23.28067 h -0.128122 -0.08541 0.08541 -0.08541 -0.341658 -0.128121 -0.555194 l -0.04271,-0.0854 q -0.149475,-0.19219 -0.213536,-0.34166 -0.05338,-0.0427 -0.04271,-0.0854 -0.395042,-0.43774 -0.555194,-0.81143 -0.05338,-0.0427 -0.04271,-0.0854 l -0.170828,-0.25624 q -0.224213,-0.25624 -0.341658,-0.51249 l -0.213536,-0.25624 -0.170829,-0.29895 -0.170828,-0.29895 q -0.288274,-0.3203 -0.427072,-0.5979 l -0.08542,-0.0854 q -0.170828,-0.37369 -0.384364,-0.59791 l -0.04271,-0.0854 -0.08542,-0.12812 -0.384365,-0.5979 q -0.149475,-0.19218 -0.213535,-0.34166 -0.05338,-0.0427 -0.04271,-0.0854 l -0.08541,-0.0427 -0.170829,-0.29895 -0.04271,-0.0854 q -0.149475,-0.19218 -0.213536,-0.34165 -0.09609,-0.10677 -0.128121,-0.21354 l -0.170829,-0.17083 -0.170829,-0.25624 -0.08541,-0.21354 -0.08542,-0.0427 -0.170828,-0.29895 -0.384365,-0.5552 -0.08541,-0.17083 -0.08542,-0.17083 -0.128121,-0.12812 -0.08541,-0.12812 -0.04271,-0.12812 q -0.213536,-0.23489 -0.341657,-0.42707 l -0.08541,-0.17083 Q 15.6681,153.575 15.593362,153.3935 q -0.07474,-0.0427 -0.08541,-0.0854 l -0.08541,-0.0854 -0.04271,-0.0854 -0.170829,-0.29895 -0.384364,-0.55519 V 163.2161 H 14.269448 14.09862 13.32989 13.159061 12.988233 12.817404 12.091382 11.96326 11.450774 v -0.12812 -0.17083 -0.12812 -0.17083 -0.76873 -0.34166 -0.34165 -0.12813 -0.85414 -0.17083 -0.21353 -0.17083 -0.21354 -0.55519 -0.17083 -0.72602 -0.12812 -0.51249 -0.17083 -0.21354 -0.55519 -0.17083 -0.72602 -0.12812 -0.51249 -0.29895 -0.34166 -0.34165 -0.34166 -0.12812 -0.12812 -1.32393 -0.29895 -0.25624 -0.29895 -0.25624 -0.21354 -0.25624 -0.17083 -0.76873 -0.46978 -0.17083 -0.17083 -0.17083 -0.17082 -0.72603 -0.12812 -0.51248 z"
           style="font-style:normal;font-variant:normal;font-weight:normal;font-stretch:normal;font-family:'Transport Heavy';-inkscape-font-specification:'Transport Heavy, ';letter-spacing:-1.00541639px;stroke-width:0.18763751"
           id="path4800"
           inkscape:connector-curvature="0" />
        <path
           d="m 32.738509,151.12997 q 2.925442,-0.19219 4.868619,1.45204 l 0.04271,0.0854 q 0.170828,0.21353 0.256243,0.42707 0.224212,0.33098 0.29895,0.5979 v 0.17083 q 0.128122,0.41639 0.128122,0.72602 v 4.1853 q -0.04271,1.05701 0.08541,1.751 0.523163,0.54451 1.195801,0.68331 l -0.08541,0.12812 -0.08541,0.21354 -0.08541,0.17083 -0.04271,0.12812 -0.04271,0.12812 -0.08541,0.12812 -0.170828,0.42708 -0.08542,0.12812 -0.04271,0.12812 -0.04271,0.12812 -0.04271,0.0854 -0.298951,0.64061 q -1.900469,0.0107 -2.861381,-1.1958 -1.825732,1.81506 -4.526962,0.89685 -2.487693,-0.68331 -2.904089,-3.03221 0.02135,-3.4486 3.245747,-4.01447 0.170828,-0.10677 0.341657,-0.12813 h 0.128122 q 0.06406,-0.0427 0.128121,-0.0427 l 0.128122,-0.0427 0.768729,-0.12812 0.341658,-0.0427 0.128121,-0.0427 0.726022,-0.0427 q 0.576547,-0.0854 0.939558,-0.0427 0.160152,-2.38093 -2.605138,-1.62287 l -0.128121,0.0427 -0.341658,0.0427 -0.29895,0.12812 -0.128122,0.0427 -0.427072,0.12812 q -0.33098,0.22421 -0.5979,0.29895 -0.363011,0.2776 -0.726022,0.38437 l -0.298951,-0.5552 -0.08541,-0.0427 -0.04271,-0.12813 -0.08542,-0.0854 -0.04271,-0.12812 q -0.277597,-0.32031 -0.384365,-0.5979 -0.170828,-0.16015 -0.213535,-0.34166 -0.277597,-0.26692 -0.341658,-0.55519 l 0.08541,-0.0427 0.128122,-0.0854 0.08541,-0.0427 q 0.288274,-0.19218 0.512487,-0.29895 0.170828,-0.11745 0.341657,-0.12812 l 0.08541,-0.0854 q 0.395042,-0.1815 0.683315,-0.25624 l 0.08542,-0.0854 h 0.128121 q 0.202859,-0.12812 0.341658,-0.17082 h 0.128121 q 0.288274,-0.14948 0.555194,-0.17083 0.587224,-0.24557 1.110387,-0.25625 z m 2.049945,7.04668 h -0.128121 q -0.256244,0.0747 -0.427072,0.0854 h -0.128122 q -0.06406,0.0427 -0.128121,0.0427 l -0.170829,0.0427 h -0.128122 l -0.170828,0.0427 -0.256244,0.0427 q -0.06406,0.0427 -0.128121,0.0427 l -0.170829,0.0427 -0.128121,0.0427 q -0.597901,0.14947 -0.939559,0.29895 -0.448425,0.5979 -0.256243,1.23851 1.06768,1.49475 3.074918,0.51248 l 0.341657,-0.51248 0.04271,-0.17083 v -0.17083 -0.12812 -0.21354 -0.12812 -0.17083 -0.12812 -0.85414 h -0.128121 z"
           style="font-style:normal;font-variant:normal;font-weight:normal;font-stretch:normal;font-family:'Transport Heavy';-inkscape-font-specification:'Transport Heavy, ';letter-spacing:-1.00541639px;stroke-width:0.18763751"
           id="path4802"
           inkscape:connector-curvature="0" />
        <path
           d="m 44.929614,151.42892 q 1.772348,-0.10677 3.074917,0.72602 0.07474,-0.3203 0.04271,-0.55519 h 0.726022 0.170828 0.213536 0.555194 0.170829 0.726022 0.128121 0.512487 v 11.23199 l -0.04271,0.12812 q -0.01068,0.54451 -0.170828,0.93956 -0.06406,0.29895 -0.128122,0.46977 l -0.08541,0.0854 q -0.384365,0.89685 -1.024973,1.45204 l -0.128121,0.0854 -0.128122,0.0427 q -0.106768,0.1388 -0.256243,0.21354 l -0.128122,0.0427 q -0.04271,0.0534 -0.08541,0.0427 l -0.08541,0.0854 -0.128122,0.0427 -0.512486,0.25624 q -4.441548,1.08903 -8.028951,-0.98227 l 0.04271,-0.17082 0.384365,-0.5979 0.04271,-0.12813 0.04271,-0.0854 0.04271,-0.0854 0.08542,-0.17082 0.08541,-0.12813 q 0.23489,-0.35233 0.341658,-0.5979 l 0.04271,-0.0854 0.08541,-0.0854 q 0.138798,-0.29895 0.256243,-0.46978 0.395042,0.13879 0.640608,0.34165 2.359572,1.04633 4.655083,0.5979 0.192183,-0.16015 0.384365,-0.21353 0.138798,-0.20286 0.29895,-0.29895 l 0.04271,-0.0854 0.170829,-0.29895 0.08541,-0.29895 v -0.76873 q -3.00018,1.28122 -5.46652,-0.21353 -2.274158,-1.4734 -2.391603,-4.05718 -0.234889,-5.73344 4.740498,-6.40608 z m 0.384365,2.86138 q -1.761672,0.49113 -1.879117,2.26348 -0.33098,1.77235 0.854144,2.81867 1.131741,0.67264 2.306188,0.34166 1.793702,-0.40572 1.452045,-3.67282 -0.576547,-1.94317 -2.73326,-1.75099 z"
           style="font-style:normal;font-variant:normal;font-weight:normal;font-stretch:normal;font-family:'Transport Heavy';-inkscape-font-specification:'Transport Heavy, ';letter-spacing:-1.00541639px;stroke-width:0.18763751"
           id="path4804"
           inkscape:connector-curvature="0" />
        <path
           d="m 57.163426,151.12997 q 2.925443,-0.19219 4.86862,1.45204 l 0.04271,0.0854 q 0.170829,0.21353 0.256243,0.42707 0.224213,0.33098 0.29895,0.5979 v 0.17083 q 0.128122,0.41639 0.128122,0.72602 v 4.1853 q -0.04271,1.05701 0.08541,1.751 0.523163,0.54451 1.195801,0.68331 l -0.08541,0.12812 -0.08541,0.21354 -0.08541,0.17083 -0.04271,0.12812 -0.04271,0.12812 -0.08541,0.12812 -0.170829,0.42708 -0.08542,0.12812 -0.04271,0.12812 -0.04271,0.12812 -0.04271,0.0854 -0.29895,0.64061 q -1.90047,0.0107 -2.861382,-1.1958 -1.825732,1.81506 -4.526962,0.89685 -2.487693,-0.68331 -2.904088,-3.03221 0.02135,-3.4486 3.245746,-4.01447 0.170829,-0.10677 0.341657,-0.12813 h 0.128122 q 0.06406,-0.0427 0.128121,-0.0427 l 0.128122,-0.0427 0.768729,-0.12812 0.341658,-0.0427 0.128121,-0.0427 0.726023,-0.0427 q 0.576547,-0.0854 0.939558,-0.0427 0.160152,-2.38093 -2.605139,-1.62287 l -0.128121,0.0427 -0.341658,0.0427 -0.29895,0.12812 -0.128122,0.0427 -0.427071,0.12812 q -0.330981,0.22421 -0.597901,0.29895 -0.363011,0.2776 -0.726022,0.38437 l -0.298951,-0.5552 -0.08541,-0.0427 -0.04271,-0.12813 -0.08541,-0.0854 -0.04271,-0.12812 q -0.277596,-0.32031 -0.384364,-0.5979 -0.170829,-0.16015 -0.213536,-0.34166 -0.277597,-0.26692 -0.341658,-0.55519 l 0.08541,-0.0427 0.128121,-0.0854 0.08541,-0.0427 q 0.288273,-0.19218 0.512486,-0.29895 0.170829,-0.11745 0.341657,-0.12812 l 0.08542,-0.0854 q 0.395041,-0.1815 0.683315,-0.25624 l 0.08541,-0.0854 h 0.128122 q 0.202859,-0.12812 0.341657,-0.17082 h 0.128122 q 0.288273,-0.14948 0.555193,-0.17083 0.587224,-0.24557 1.110387,-0.25625 z m 2.049945,7.04668 H 59.08525 q -0.256243,0.0747 -0.427072,0.0854 h -0.128122 q -0.06406,0.0427 -0.128121,0.0427 l -0.170829,0.0427 h -0.128121 l -0.170829,0.0427 -0.256243,0.0427 q -0.06406,0.0427 -0.128122,0.0427 l -0.170829,0.0427 -0.128121,0.0427 q -0.597901,0.14947 -0.939558,0.29895 -0.448426,0.5979 -0.256243,1.23851 1.067679,1.49475 3.074917,0.51248 l 0.341657,-0.51248 0.04271,-0.17083 v -0.17083 -0.12812 -0.21354 -0.12812 -0.17083 -0.12812 -0.85414 H 59.3842 Z"
           style="font-style:normal;font-variant:normal;font-weight:normal;font-stretch:normal;font-family:'Transport Heavy';-inkscape-font-specification:'Transport Heavy, ';letter-spacing:-1.00541639px;stroke-width:0.18763751"
           id="path4806"
           inkscape:connector-curvature="0" />
        <path
           d="m 71.062817,151.42892 h 0.128121 0.854144 v 3.07491 q -2.46634,-0.3203 -3.544696,1.58017 v 0.12812 q -0.192183,0.50181 -0.170829,0.98227 v 6.06442 H 67.603535 67.432706 67.21917 66.663977 66.493148 65.767126 65.639004 65.126518 v -0.12812 -0.21354 -0.12812 -0.17083 -0.12812 -0.85415 -0.29895 -0.85414 -0.34166 -0.34165 -0.34166 -0.34166 -0.85414 -0.12812 -0.12813 -1.32392 -0.29895 -0.25624 -0.29895 -0.25625 -0.21353 -0.25624 -0.17083 -0.76873 -0.46978 -0.17083 -0.17083 -0.17083 -0.17083 -0.72602 -0.12812 -0.51249 h 0.726022 0.170829 0.213536 0.555193 0.170829 0.726022 0.128122 0.512486 v 1.11039 q 1.13174,-1.14242 2.562431,-1.32392 z"
           style="font-style:normal;font-variant:normal;font-weight:normal;font-stretch:normal;font-family:'Transport Heavy';-inkscape-font-specification:'Transport Heavy, ';letter-spacing:-1.00541639px;stroke-width:0.18763751"
           id="path4808"
           inkscape:connector-curvature="0" />
        <path
           d="m 74.584363,146.98737 h 0.170829 0.213536 0.555194 0.170828 0.726022 0.341658 0.29895 v 8.66956 l 0.170829,-0.17083 0.170829,-0.17083 0.128121,-0.17083 0.08541,-0.0854 0.08541,-0.0427 q 0.160152,-0.21354 0.29895,-0.34166 l 0.08541,-0.0427 q 0.213536,-0.29895 0.469779,-0.46978 l 0.128121,-0.12812 q 0.213536,-0.29895 0.469779,-0.46978 0.138799,-0.20286 0.298951,-0.29895 0.138798,-0.20286 0.29895,-0.29895 l 0.04271,-0.0854 0.08541,-0.0427 q 0.160152,-0.21353 0.29895,-0.34165 l 0.128121,-0.0854 q 0.04271,-0.0747 0.08541,-0.0854 l 0.04271,-0.0854 0.08541,-0.0854 0.08541,-0.0427 0.04271,-0.0854 0.08541,-0.0427 q 0.160152,-0.21354 0.298951,-0.34166 h 0.256243 0.555193 0.170829 0.768729 0.469779 0.170829 0.170829 0.170829 0.170828 0.726022 0.341658 0.29895 l -0.170829,0.25625 -0.213535,0.17083 -0.170829,0.21353 -0.555194,0.55519 -0.08541,0.0427 q -0.213536,0.28828 -0.427072,0.42707 -0.213536,0.28828 -0.427072,0.42708 l -0.04271,0.0854 -0.08541,0.0854 -0.08541,0.0854 -0.08541,0.0427 q -0.04271,0.0747 -0.08541,0.0854 l -0.469779,0.51249 -0.427072,0.38436 -0.128122,0.17083 -0.128121,0.0854 -0.08541,0.12813 -0.128121,0.0854 q -0.138799,0.20286 -0.298951,0.29895 -0.29895,0.4164 -0.5979,0.64061 l 0.04271,0.12812 0.08541,0.0427 0.170829,0.29895 0.04271,0.0854 q 0.149475,0.19218 0.213536,0.34166 0.320304,0.42707 0.469779,0.72602 l 0.170829,0.25624 0.128122,0.25625 0.170828,0.17083 0.04271,0.0854 0.341658,0.5979 q 0.09609,0.10677 0.128121,0.21354 0.224213,0.25624 0.341658,0.46978 l 0.128122,0.21353 0.08541,0.12812 0.04271,0.0854 q 0.149475,0.20286 0.213536,0.34166 0.160152,0.19218 0.213536,0.38436 l 0.128122,0.12812 0.08541,0.12812 0.08541,0.17083 0.08541,0.0854 0.04271,0.12812 0.170829,0.29895 0.08541,0.0427 0.04271,0.12812 0.170829,0.29895 q 0.277597,0.29895 0.384365,0.5979 h -0.256244 -1.323922 -0.597901 -0.128122 -0.213535 -0.128122 -0.170829 -0.128121 -0.854144 l -0.427072,-0.64061 -0.08541,-0.21354 q -0.309627,-0.34165 -0.427072,-0.6406 l -0.170829,-0.21354 -0.08541,-0.21354 -0.170829,-0.21353 -0.08541,-0.17083 q -0.213536,-0.26692 -0.298951,-0.51249 l -0.128121,-0.17083 -0.256243,-0.34165 -0.08541,-0.12812 -0.04271,-0.12813 -0.08541,-0.12812 -0.08541,-0.0854 q -0.202859,-0.4164 -0.427072,-0.68332 l -0.213535,0.21354 q -0.149476,0.20286 -0.256244,0.29895 l -0.128121,0.12812 -0.08541,0.0854 -0.08542,0.0427 q -0.202859,0.28828 -0.427072,0.46978 v 3.24575 H 76.335358 76.164529 75.950993 75.3958 75.224971 74.498949 74.370828 73.858341 v -0.34166 -0.85414 -0.34166 -0.12812 -0.17083 -0.76873 -0.12812 -0.85415 -0.34165 -0.17083 -0.76873 -0.12812 -0.12812 -1.32393 -0.29895 -0.12812 -0.17083 -0.76873 -0.5979 -0.12812 -0.21354 -0.12812 -0.17083 -0.12812 -0.85414 -0.72602 -0.12812 -0.51249 -0.55519 -0.17083 -0.72603 -0.12812 -0.51248 -0.46978 -0.21354 -0.55519 -0.17083 -0.72602 -0.12812 -0.51249 z"
           style="font-style:normal;font-variant:normal;font-weight:normal;font-stretch:normal;font-family:'Transport Heavy';-inkscape-font-specification:'Transport Heavy, ';letter-spacing:-1.00541639px;stroke-width:0.18763751"
           id="path4810"
           inkscape:connector-curvature="0" />
        <path
           d="m 90.747238,151.12997 q 4.206658,-0.032 5.637349,3.50199 0.149475,0.19218 0.213536,0.38436 0.918204,3.71553 -0.896851,6.5342 -2.551754,2.93612 -6.064421,1.92182 -3.694171,-1.25986 -4.014475,-5.25298 -0.320304,-6.10713 5.124862,-7.08939 z m 0.170829,2.86138 q -2.327542,1.00362 -2.049945,3.5874 -0.06406,2.74394 2.263481,3.24575 2.797321,-0.19218 2.519724,-4.09989 -0.330981,-2.70123 -2.73326,-2.73326 z"
           style="font-style:normal;font-variant:normal;font-weight:normal;font-stretch:normal;font-family:'Transport Heavy';-inkscape-font-specification:'Transport Heavy, ';letter-spacing:-1.00541639px;stroke-width:0.18763751"
           id="path4812"
           inkscape:connector-curvature="0" />
        <path
           d="m 102.59668,146.94466 q 0.0854,0.0961 0.0854,0.21354 v 4.35613 h 0.17082 0.46978 0.21354 0.55519 0.17083 0.72602 0.34166 0.29895 v 2.69055 h -0.17083 -0.46978 -0.21353 -0.5552 -0.17082 -0.72603 -0.12812 -0.51248 v 5.80818 l 0.0854,0.25624 q 0.82211,0.83279 2.60514,0.17083 l 0.0427,0.17083 0.21353,0.68332 0.0427,0.12812 0.0427,0.34166 0.12812,0.29895 v 0.12812 q 0.0961,0.26692 0.12812,0.46978 l 0.12812,0.42707 q -2.65852,0.83279 -5.03945,0.34166 -0.72602,-0.36301 -1.153092,-0.85415 -0.309627,-0.55519 -0.427072,-0.93956 v -0.29895 q -0.07474,-0.23489 -0.04271,-0.42707 v -0.17083 -0.17082 -0.12813 -0.76873 -0.55519 -0.17083 -0.72602 -0.12812 -0.51249 -0.55519 -0.17083 -0.76873 -0.17083 -0.17083 -0.17083 -0.72602 -0.12812 -0.51249 H 99.26552 99.094692 98.923863 98.197841 98.069719 97.557233 v -0.21353 -0.17083 -0.21354 -0.55519 -0.17083 -0.72602 -0.12812 -0.51249 h 0.170829 0.170828 0.170829 0.726022 0.341658 0.29895 v -0.72602 -0.17083 -0.72602 -0.46978 -0.17083 -0.72602 -0.12812 -0.51249 l 0.170829,-0.0427 0.08541,-0.0427 0.384372,-0.0854 q 0.24556,-0.10677 0.42707,-0.12812 l 0.55519,-0.17083 0.21354,-0.0427 0.42707,-0.17082 q 0.54452,-0.10677 0.89685,-0.25625 z"
           style="font-style:normal;font-variant:normal;font-weight:normal;font-stretch:normal;font-family:'Transport Heavy';-inkscape-font-specification:'Transport Heavy, ';letter-spacing:-1.00541639px;stroke-width:0.18763751"
           id="path4814"
           inkscape:connector-curvature="0" />
      </g>
    </g>
  </g>
</svg>
