<?xml version="1.0" encoding="UTF-8" standalone="no"?>
<svg
   xmlns:dc="http://purl.org/dc/elements/1.1/"
   xmlns:cc="http://creativecommons.org/ns#"
   xmlns:rdf="http://www.w3.org/1999/02/22-rdf-syntax-ns#"
   xmlns:svg="http://www.w3.org/2000/svg"
   xmlns="http://www.w3.org/2000/svg"
   xmlns:sodipodi="http://sodipodi.sourceforge.net/DTD/sodipodi-0.dtd"
   xmlns:inkscape="http://www.inkscape.org/namespaces/inkscape"
   inkscape:version="1.0 (4035a4fb49, 2020-05-01)"
   sodipodi:docname="Nepal_road_sign_D3.svg"
   viewBox="0 0 500 335.06219"
   height="335.06219"
   width="500"
   id="svg833"
   version="1.1">
  <metadata
     id="metadata839">
    <rdf:RDF>
      <cc:Work
         rdf:about="">
        <dc:format>image/svg+xml</dc:format>
        <dc:type
           rdf:resource="http://purl.org/dc/dcmitype/StillImage" />
        <dc:title></dc:title>
      </cc:Work>
    </rdf:RDF>
  </metadata>
  <defs
     id="defs837">
    <pattern
       y="0"
       x="0"
       height="6"
       width="6"
       patternUnits="userSpaceOnUse"
       id="EMFhbasepattern" />
    <pattern
       id="EMFhbasepattern-2"
       patternUnits="userSpaceOnUse"
       width="6"
       height="6"
       x="0"
       y="0" />
    <pattern
       id="EMFhbasepattern-4"
       patternUnits="userSpaceOnUse"
       width="6"
       height="6"
       x="0"
       y="0" />
  </defs>
  <sodipodi:namedview
     inkscape:current-layer="g841"
     inkscape:window-maximized="1"
     inkscape:window-y="-9"
     inkscape:window-x="-9"
     inkscape:cy="186.84296"
     inkscape:cx="598.0408"
     inkscape:zoom="0.86979167"
     showgrid="false"
     id="namedview835"
     inkscape:window-height="1001"
     inkscape:window-width="1920"
     inkscape:pageshadow="2"
     inkscape:pageopacity="0"
     guidetolerance="10"
     gridtolerance="10"
     objecttolerance="10"
     borderopacity="1"
     bordercolor="#666666"
     pagecolor="#ffffff" />
  <g
     transform="translate(323.64559,-150.4621)"
     id="g841"
     inkscape:label="Image"
     inkscape:groupmode="layer">
    <g
       inkscape:label="Layer 1"
       id="layer1"
       transform="matrix(2.7797098,0,0,2.7797098,101.31133,44.046206)">
      <path
         style="fill:#000000;fill-opacity:1;stroke-width:2.18732;stroke-miterlimit:4;stroke-dasharray:none"
         d="M -135.23837,38.283096 H 9.3569455 c 9.7724435,0 17.6397895,7.867346 17.6397895,17.63979 v 85.258974 c 0,9.77244 -7.867346,17.63979 -17.6397895,17.63979 H -135.23837 c -9.77244,0 -17.63979,-7.86735 -17.63979,-17.63979 V 55.922886 c 0,-9.772444 7.86735,-17.63979 17.63979,-17.63979 z"
         id="rect858"
         inkscape:connector-curvature="0"
         sodipodi:nodetypes="sssssssss" />
      <path
         style="fill:#ffffff;fill-opacity:1;stroke-width:2.02611;stroke-miterlimit:4;stroke-dasharray:none"
         d="M -135.88518,44.163025 H 9.9651913 c 6.4716247,0 11.6816337,5.210009 11.6816337,11.681634 v 85.682681 c 0,6.47163 -5.210009,11.68164 -11.6816337,11.68164 H -135.88518 c -6.47163,0 -11.68164,-5.21001 -11.68164,-11.68164 V 55.844659 c 0,-6.471625 5.21001,-11.681634 11.68164,-11.681634 z"
         id="rect860"
         inkscape:connector-curvature="0"
         sodipodi:nodetypes="sssssssss" />
    </g>
    <g
       transform="matrix(0.59203492,0,0,0.59203492,-644.73834,61.383283)"
       style="font-style:normal;font-variant:normal;font-weight:400;font-size:267.704px;line-height:125%;font-family:Milan;text-align:start;letter-spacing:0px;word-spacing:0px;text-anchor:start;fill:#000000;fill-opacity:1;stroke:none;stroke-width:2.23202"
       id="text1028"
       aria-label="ljBfno ">
      <path
         id="path1054"
         style="font-style:normal;font-variant:normal;font-weight:400;font-size:267.704px;font-family:Milan;fill:#000000;stroke-width:2.23202"
         d="m 758.34149,279.64393 -3.9868,-7.18932 q -8.7579,-15.75114 -29.4762,-25.42404 -7.97361,-3.79073 -16.86222,-3.79073 -30.78335,0 -30.78335,32.67871 v 4.83645 l 0.58822,3.46394 h 28.10369 l 11.24148,21.17581 H 690.36977 V 412.18878 L 666.57966,396.11086 V 305.39475 H 651.0246 l -11.24148,-21.17581 h 28.62655 l -3.9868,-7.77753 q -4.05216,-7.71217 -4.05216,-18.43079 0,-14.57471 10.91469,-24.24761 10.45719,-9.21539 25.22796,-9.21539 15.22828,0 31.37157,9.86897 15.55507,9.54218 23.7901,22.74438 l 6.66646,10.71862 z" />
      <path
         id="path1056"
         style="font-style:normal;font-variant:normal;font-weight:400;font-size:267.704px;font-family:Milan;fill:#000000;stroke-width:2.23202"
         d="m 784.35374,348.20386 q -6.66645,-9.86897 -24.11689,-9.86897 -18.104,0 -27.51547,10.91469 -5.35931,6.27431 -5.35931,12.35256 l 0.52286,2.94108 1.30715,2.67965 q 2.94108,3.98681 12.09112,3.98681 7.18932,0 16.33936,-2.94109 1.50322,-0.26143 4.50966,-2.15679 7.64682,-4.77109 12.02577,-7.97361 8.10432,-6.01288 10.19575,-9.93433 z m -0.78428,-42.80911 h -77.64462 l -11.24148,-21.17581 h 128.23126 l 11.24148,21.17581 h -26.79654 v 106.79403 l -23.7901,-16.07792 v -23.00582 q -4.44431,5.75146 -7.77754,8.56182 -10.78397,9.08469 -23.52867,9.08469 -14.83614,0 -25.9469,-10.26112 -10.71862,-9.93433 -13.13684,-24.77046 l -0.32679,-4.83645 q -0.71893,-13.33292 10.71862,-23.00582 10.78397,-9.15004 24.37832,-9.15004 17.58115,0 28.62655,10.45719 3.39859,3.20252 4.83645,5.88217 l 2.1568,4.05216 z" />
      <path
         id="path1058"
         style="font-style:normal;font-variant:normal;font-weight:400;font-size:267.704px;font-family:Milan;fill:#000000;stroke-width:2.23202"
         d="m 971.34134,305.39475 h -26.73118 v 106.79403 l -23.59403,-16.07792 v -9.08469 q -19.28044,18.49615 -40.65232,18.49615 -13.52899,0 -26.27368,-9.41146 -13.65971,-9.99969 -13.65971,-23.26725 0,-10.19576 3.46395,-13.6597 -5.09788,-4.57502 -7.18932,-7.25467 -7.25467,-9.08469 -7.25467,-20.06473 0,-8.03897 7.77753,-12.54863 l 7.77753,-2.67965 h 30.26049 v -11.24148 h -52.22058 l -11.24148,-21.17581 h 148.296 z m -50.32521,54.83488 V 305.39475 H 898.7946 v 30.52192 h -46.01162 l -2.67966,1.04572 q -2.67965,1.04572 -2.94108,5.35931 -0.26143,4.24823 3.20251,7.25467 l 3.46395,2.09144 8.03896,-3.20252 q 8.69254,-3.46394 17.6465,-3.46394 18.49615,0 18.49615,13.92113 0,7.18932 -9.67289,7.18932 h -2.35287 q -29.34548,0 -29.34548,11.56826 0,0.71893 0.13071,1.56858 1.37251,8.56182 12.87541,8.56182 14.31328,0 31.56764,-9.60754 7.71217,-4.31359 13.39827,-10.71862 z" />
      <path
         id="path1060"
         style="font-style:normal;font-variant:normal;font-weight:400;font-size:267.704px;font-family:Milan;fill:#000000;stroke-width:2.23202"
         d="m 1033.3655,305.39475 h -26.7311 v 106.79403 l -23.8555,-16.07792 v -90.71611 h -15.48971 l -11.24148,-21.17581 h 66.07639 z" />
      <path
         id="path1062"
         style="font-style:normal;font-variant:normal;font-weight:400;font-size:267.704px;font-family:Milan;fill:#000000;stroke-width:2.23202"
         d="m 1120.7484,338.85775 q -0.915,0 -2.9411,-0.26143 -2.0914,-0.32679 -2.9411,0 -14.1825,4.77109 -24.3783,25.16261 l -2.3529,4.77109 -19.2804,-12.81005 5.0979,-8.03897 3.7254,-6.14359 -2.6797,-2.1568 q -3.4639,-2.15679 -7.7775,-2.15679 -10.7186,0 -15.8165,10.98004 -3.2025,6.92789 -3.2025,13.92113 0,5.2286 0.5882,6.99325 l 1.83,6.1436 q 4.8364,10.98004 15.0322,19.54187 l 9.3461,6.40502 -6.9932,8.82326 -5.3594,-4.24824 -12.0257,-10.71861 q -6.6665,-5.94753 -13.1369,-17.64651 -8.3004,-15.09756 -8.3004,-29.21477 0,-12.02576 7.9737,-20.84902 8.3003,-9.28075 20.1954,-8.62718 l 4.7711,0.32679 5.0979,1.56858 q 6.2743,1.96072 12.3525,8.03896 l 4.2483,5.35931 2.941,-2.67965 q 4.9672,-4.50966 12.614,-6.66646 l 6.405,-0.84965 q 5.8822,0 10.9801,2.1568 l 3.9868,2.15679 v -23.00581 l -98.4936,0.26143 -11.2415,-21.17581 149.0803,0.26143 11.2414,21.17581 h -26.7311 v 106.79403 l -23.8555,-16.07792 z" />
      <path
         id="path1064"
         style="font-style:normal;font-variant:normal;font-weight:400;font-size:267.704px;font-family:Milan;fill:#000000;stroke-width:2.23202"
         d="m 1239.5029,375.7847 -6.6665,3.20251 q -10.4572,3.46394 -19.019,3.46394 -33.0709,0 -43.332,-39.34517 l -3.2678,-12.28719 7.5161,-2.1568 16.8622,-6.40502 q 6.7318,-2.54894 6.7318,-8.03897 0,-6.40502 -2.1568,-9.08468 l -35.8812,0.26143 -11.2415,-21.17581 h 129.5384 l 11.2415,21.17581 h -26.7312 v 106.79403 l -23.8555,-16.07792 z m -0.2615,-70.38995 -32.8747,-0.26143 q 2.4835,3.0718 5.1632,9.2154 2.8104,6.53574 2.8104,10.06504 0,12.81006 -16.6008,18.95365 l -12.2872,4.57502 q 0.5228,2.94109 1.3725,3.98681 5.2939,9.41147 20.5876,9.41147 12.7447,0 24.3783,-7.51611 6.6665,-4.31359 7.7122,-8.56182 z" />
    </g>
    <g
       transform="matrix(0.59203492,0,0,0.59203492,-644.73834,61.383283)"
       style="font-style:normal;font-variant:normal;font-weight:400;font-size:142.71px;line-height:125%;font-family:'Transport Heavy';text-align:start;letter-spacing:0px;word-spacing:0px;text-anchor:start;fill:#000000;fill-opacity:1;stroke:none;stroke-width:2.23202"
       id="text1036"
       aria-label="School ">
      <path
         id="path1067"
         style="font-style:normal;font-variant:normal;font-weight:400;font-size:142.71px;font-family:'Transport Heavy';fill:#000000;stroke-width:2.23202"
         d="m 767.26974,496.41226 q 28.77892,-0.69683 46.82672,17.56002 l -0.55746,0.55746 -2.78731,2.22984 -0.55746,0.83619 -0.83619,0.8362 -1.11492,0.55746 -0.83619,0.83619 -0.83619,0.83619 -0.55746,0.83619 -1.11493,0.55746 q -0.97555,1.32397 -1.67238,1.95112 l -1.67238,1.11492 -0.27873,0.55746 -0.55746,0.27873 q -1.46334,1.81175 -2.78731,2.7873 -17.56002,-14.35462 -36.23496,-9.1981 -1.04524,0.97555 -2.22984,1.39365 -1.53302,1.6027 -2.78731,2.50857 l -0.27873,0.55747 -1.39365,3.34476 q 0.13936,5.57461 3.62349,8.91938 l 4.73842,1.67238 4.45969,0.83619 q 2.09048,0.69683 3.6235,0.83619 l 1.11492,0.27873 1.11492,0.27873 1.11492,0.27873 1.11492,0.27873 1.39366,0.55746 h 0.83619 l 1.11492,0.27874 1.39365,0.55746 1.11492,0.27873 h 0.8362 q 1.6027,0.62714 2.7873,0.83619 l 2.22984,0.55746 q 1.32397,0.62714 2.22985,0.83619 l 0.83619,0.27873 3.6235,1.39365 0.55746,0.55746 q 2.71762,1.25429 4.45968,2.78731 0.48778,0.27873 0.55747,0.55746 l 0.55746,0.27873 q 1.25428,0.90587 1.95111,1.67238 1.74207,1.32397 2.7873,2.50858 10.17367,14.14557 5.01715,29.2667 -5.50492,15.46954 -19.51113,20.34732 -43.55164,13.37907 -71.07627,-17.00256 l 0.83619,-1.11492 1.11492,-0.55746 q 0.48778,-0.62714 1.11492,-0.83619 1.11492,-1.46333 2.50858,-1.95111 0.48777,-0.62715 1.11492,-0.83619 0.48778,-0.62715 1.11492,-0.8362 l 0.55746,-0.83619 0.83619,-0.55746 0.55746,-0.55746 0.83619,-0.55746 0.8362,-0.27873 0.55746,-0.83619 0.55746,-0.27873 0.55746,-0.55746 0.55746,-0.27873 0.55746,-0.27873 3.90223,-3.34477 q 18.46589,18.11748 41.25211,13.10033 l 0.83619,-0.55746 0.83619,-0.27873 0.27873,-0.55746 4.18096,-2.78731 q 0.97556,-2.3692 1.95111,-3.90222 0.83619,-7.59541 -4.73842,-11.98541 l -1.11492,-0.27873 -0.83619,-0.55746 -1.11492,-0.27873 -2.22984,-0.55747 h -0.8362 l -1.11492,-0.27873 -0.55746,-0.27873 q -2.57826,-0.41809 -4.45969,-1.11492 h -0.83619 l -0.83619,-0.27873 -2.22984,-0.55746 q -3.48413,-0.4181 -5.85334,-1.39365 -27.24591,-3.55382 -30.1029,-28.43051 0.62715,-31.42686 37.07116,-35.39877 z" />
      <path
         id="path1069"
         style="font-style:normal;font-variant:normal;font-weight:400;font-size:142.71px;font-family:'Transport Heavy';fill:#000000;stroke-width:2.23202"
         d="m 863.36207,526.51515 q 28.8486,-0.27873 38.18608,25.08574 l -1.11493,0.55746 q -1.81174,0.4181 -3.06603,1.11493 l -1.11492,0.27873 -1.11493,0.27873 q -1.53301,0.83619 -3.06603,1.11492 -0.4181,0.27873 -0.83619,0.27873 -1.11492,0.69683 -2.22985,0.83619 l -1.95111,0.83619 q -3.06603,1.32397 -5.29588,1.67238 -4.25064,-13.30938 -17.00256,-13.37906 -13.72747,5.78366 -13.37906,19.78987 -1.46334,12.33382 5.85334,20.62605 7.10763,6.61985 15.05144,3.06604 7.59541,-4.25064 9.47684,-11.98541 h 0.83619 l 1.11492,0.55746 1.95112,0.55746 0.55746,0.55746 q 2.85699,0.62714 4.73842,1.67238 l 0.83619,0.27873 1.11492,0.27873 0.83619,0.27873 q 1.04524,0.62715 2.22985,0.83619 l 0.83619,0.27874 0.55746,0.55746 q 2.50857,0.55746 4.18096,1.39365 -11.56732,27.10654 -39.02227,24.52828 -29.82416,-5.50493 -32.33274,-35.95623 -1.81175,-39.37068 33.16893,-45.99053 z" />
      <path
         id="path1071"
         style="font-style:normal;font-variant:normal;font-weight:400;font-size:142.71px;font-family:'Transport Heavy';fill:#000000;stroke-width:2.23202"
         d="m 919.10817,499.47829 h 1.11492 1.39365 3.6235 1.11492 4.73842 0.83619 3.34476 v 35.39877 q 13.79716,-10.59175 28.70924,-5.01714 13.37907,5.85334 18.11749,18.39621 v 1.11492 q 1.74206,4.45969 1.67238,8.36191 v 48.22038 h -4.73842 -1.11492 -1.39365 -3.6235 -1.11492 -4.73842 -0.83619 -3.34477 v -1.95112 -0.83619 -0.83619 -8.64064 -0.8362 -0.83619 -3.62349 -1.39366 -1.67238 -0.83619 -5.57461 -1.67238 -0.83619 -1.11493 -0.83619 -1.39365 -3.06604 -3.06603 -1.11492 -0.83619 -1.95112 -0.83619 -0.83619 -0.83619 -1.95112 l -0.27873,-1.67238 q -0.90587,-1.88143 -1.11492,-3.34476 -5.36556,-7.45604 -13.93652,-6.13207 -6.41081,1.88143 -10.31303,6.4108 l -0.27873,1.11492 q -1.32397,2.57826 -1.67239,4.73842 v 46.26926 h -4.73841 -1.11493 -1.39365 -3.62349 -1.11493 -4.73841 -0.8362 -3.34476 v -0.83619 -1.11493 -0.83619 -1.11492 -5.01715 -2.22984 -2.22985 -0.83619 -5.57461 -1.11492 -1.39365 -1.11492 -1.39366 -3.62349 -1.11492 -4.73842 -0.83619 -3.34477 -1.11492 -1.39365 -3.6235 -1.11492 -4.73842 -0.83619 -3.34477 -1.95111 -2.22984 -2.22985 -2.22984 -0.83619 -0.8362 -8.64064 -1.95111 -1.67239 -1.95111 -1.67238 -1.39366 -1.67238 -1.11492 -5.01715 -3.06603 -1.11493 -1.11492 -1.11492 -1.11492 -4.73842 -0.83619 -3.34477 z" />
      <path
         id="path1073"
         style="font-style:normal;font-variant:normal;font-weight:400;font-size:142.71px;font-family:'Transport Heavy';fill:#000000;stroke-width:2.23202"
         d="m 1035.06,526.51515 q 27.455,-0.20905 36.7925,22.8559 0.9755,1.25429 1.3936,2.50857 5.9927,24.24956 -5.8533,42.64577 -16.6542,19.16272 -39.5798,12.54287 -24.1101,-8.22255 -26.2006,-34.28385 -2.0905,-39.85846 33.4476,-46.26926 z m 1.115,18.67494 q -15.1908,6.55017 -13.3791,23.41336 -0.4181,17.90844 14.7727,21.18352 18.2569,-1.25429 16.4451,-26.75813 -2.1601,-17.6297 -17.8387,-17.83875 z" />
      <path
         id="path1075"
         style="font-style:normal;font-variant:normal;font-weight:400;font-size:142.71px;font-family:'Transport Heavy';fill:#000000;stroke-width:2.23202"
         d="m 1122.024,526.51515 q 27.4549,-0.20905 36.7924,22.8559 0.9755,1.25429 1.3936,2.50857 5.9928,24.24956 -5.8533,42.64577 -16.6541,19.16272 -39.5797,12.54287 -24.1102,-8.22255 -26.2007,-34.28385 -2.0905,-39.85846 33.4477,-46.26926 z m 1.1149,18.67494 q -15.1908,6.55017 -13.3791,23.41336 -0.4181,17.90844 14.7727,21.18352 18.2569,-1.25429 16.4451,-26.75813 -2.1601,-17.6297 -17.8387,-17.83875 z" />
      <path
         id="path1077"
         style="font-style:normal;font-variant:normal;font-weight:400;font-size:142.71px;font-family:'Transport Heavy';fill:#000000;stroke-width:2.23202"
         d="m 1178.885,499.47829 h 1.3936 1.1149 1.3937 1.1149 1.3937 3.6235 1.1149 4.7384 2.2299 1.9511 v 84.73407 q 4.3203,5.08683 12.2641,2.22984 l 0.2787,1.11492 v 1.39366 q 0.3485,1.53301 0.2788,3.06603 0.4878,1.74207 0.5574,3.06604 l 0.2788,2.50857 v 1.11492 q 0.2787,0.4181 0.2787,0.8362 l 0.5575,5.57461 h -1.115 l -0.8362,0.27873 -1.1149,0.27873 -1.9511,0.27873 h -0.8362 q -3.1357,0.76651 -5.2959,0.83619 -18.6052,3.76286 -24.2495,-11.98541 -0.07,-1.39365 -0.2787,-2.22985 v -0.83619 -5.57461 -1.11492 -1.39365 -1.11492 -1.39366 -3.62349 -1.11492 -4.73842 -0.83619 -3.34477 -1.11492 -1.39365 -3.6235 -1.11492 -4.73842 -0.83619 -3.34477 -1.95111 -2.22984 -2.22985 -2.22984 -0.83619 -0.8362 -8.64064 -1.95111 -1.67239 -1.95111 -1.67238 -1.39366 -1.67238 -1.11492 -5.01715 -3.06603 -1.11493 -1.11492 -1.11492 -1.11492 -4.73842 -0.83619 -3.34477 z" />
    </g>
  </g>
</svg>
