<?xml version="1.0" encoding="UTF-8" standalone="no"?>
<!-- Created with Inkscape (http://www.inkscape.org/) -->
<svg
   xmlns:svg="http://www.w3.org/2000/svg"
   xmlns="http://www.w3.org/2000/svg"
   version="1.0"
   width="960"
   height="310"
   id="svg14547">
  <defs
     id="defs14549" />
  <g
     transform="translate(400.9924,-147.5206)"
     id="layer1">
    <path
       d="M -381.55289,457.52061 C -392.28447,457.52061 -400.99243,448.65252 -400.99243,437.70057 L -400.99243,167.34065 C -400.99243,156.39804 -392.28447,147.52061 -381.55289,147.52061 L 539.56803,147.52061 C 550.30877,147.52061 559.00757,156.39804 559.00757,167.34065 L 559.00757,437.70057 C 559.00757,448.65252 550.30877,457.52061 539.56803,457.52061 L -381.55289,457.52061"
       style="fill:#176fc1;fill-rule:nonzero;stroke:none"
       id="path11081" />
    <path
       d="M -151.10784,171.09721 C -143.73675,165.19138 -132.91361,166.32208 -126.93432,173.62027 C -123.16179,178.22719 -122.23697,184.19843 -123.92179,189.46882 L -133.30734,225.02528 L 488.14437,225.02528 L 488.14437,380.02528 L -133.3165,380.02528 L -123.93095,415.58174 C -122.23697,420.85213 -123.17095,426.82338 -126.94348,431.4303 C -132.91361,438.72848 -143.73675,439.85919 -151.117,433.95336 L -364.42083,302.52061 L -151.10784,171.09721"
       style="fill:white;fill-rule:nonzero;stroke:none"
       id="path11083" />
    <path
       d="M -2.95347,361.5976 L 12.79594,361.5976 L 12.79594,243.44362 L -2.95347,243.44362 L -2.95347,361.5976 z "
       style="fill:black;fill-rule:nonzero;stroke:none"
       id="path11085" />
    <path
       d="M 333.30566,243.44362 L 333.30566,294.08238 L 293.94128,294.08238 L 293.94128,243.44362 L 278.19187,243.44362 L 278.19187,361.5976 L 293.94128,361.5976 L 293.94128,310.95884 L 333.30566,310.95884 L 333.30566,361.5976 L 349.04592,361.5976 L 349.04592,243.44362 L 333.30566,243.44362"
       style="fill:black;fill-rule:nonzero;stroke:none"
       id="path11087" />
    <path
       d="M -14.94867,260.32944 L -14.94867,243.44362 L -85.81187,243.44362 L -85.81187,361.5976 L -14.94867,361.5976 L -14.94867,344.72113 L -70.06246,344.72113 L -70.06246,310.95884 L -22.82337,310.95884 L -22.82337,294.08238 L -70.06246,294.08238 L -70.06246,260.32944 L -14.94867,260.32944"
       style="fill:black;fill-rule:nonzero;stroke:none"
       id="path11089" />
    <path
       d="M 86.44276,243.44362 L 86.44276,324.90109 L 47.07839,243.44362 L 31.33813,243.44362 L 31.33813,361.5976 L 47.07839,361.5976 L 47.07839,280.09341 L 86.44276,361.5976 L 102.19218,361.5976 L 102.19218,243.44362 L 86.44276,243.44362"
       style="fill:black;fill-rule:nonzero;stroke:none"
       id="path11091" />
    <path
       d="M 254.96148,361.60694 L 271.33355,361.5976 L 239.86219,243.46231 L 224.11278,243.46231 L 192.64142,361.61629 L 209.01349,361.61629 L 213.5094,344.73982 L 250.46558,344.73982 L 254.96148,361.60694 z M 218.0053,327.86335 L 231.98749,275.3837 L 245.96967,327.86335 L 218.0053,327.86335"
       style="fill:black;fill-rule:nonzero;stroke:none"
       id="path11093" />
    <path
       d="M 176.08623,302.52061 C 182.63322,296.33444 186.76286,287.2888 186.76286,277.20591 C 186.76286,258.56329 172.66164,243.44362 155.27319,243.44362 L 115.90882,243.44362 L 115.90882,361.5976 L 155.27319,361.5976 C 172.66164,361.5976 186.76286,346.48727 186.76286,327.84466 C 186.76286,317.75242 182.63322,308.70678 176.08623,302.52061 z M 155.27319,344.72113 L 131.64907,344.72113 L 131.64907,310.95884 L 155.27319,310.95884 C 163.96284,310.95884 171.01345,318.51868 171.01345,327.84466 C 171.01345,337.16129 163.96284,344.72113 155.27319,344.72113 z M 155.27319,294.08238 L 131.64907,294.08238 L 131.64907,260.32944 L 155.27319,260.32944 C 163.96284,260.32944 171.01345,267.87993 171.01345,277.20591 C 171.01345,286.52254 163.96284,294.08238 155.27319,294.08238"
       style="fill:black;fill-rule:nonzero;stroke:none"
       id="path11095" />
    <path
       d="M 420.41274,243.44362 L 420.41274,324.90109 L 381.04836,243.44362 L 365.29895,243.44362 L 365.29895,361.5976 L 381.04836,361.5976 L 381.04836,280.09341 L 420.41274,361.5976 L 436.15299,361.5976 L 436.15299,243.44362 L 420.41274,243.44362"
       style="fill:black;fill-rule:nonzero;stroke:none"
       id="path11097" />
  </g>
</svg>
