<?xml version="1.0" encoding="UTF-8" standalone="no"?>
<!-- Created with Inkscape (http://www.inkscape.org/) -->
<svg
   xmlns:svg="http://www.w3.org/2000/svg"
   xmlns="http://www.w3.org/2000/svg"
   version="1.0"
   width="960"
   height="1200"
   id="svg3854">
  <defs
     id="defs3856" />
  <g
     transform="translate(-805.176,755.3785)"
     id="layer1">
    <path
       d="M 1715.6378,444.62147 C 1728.87,444.62147 1741.3028,439.80033 1750.6619,431.0604 C 1760.0209,422.32047 1765.176,410.69301 1765.176,398.33078 L 1765.176,-709.08784 C 1765.176,-721.45007 1760.0209,-733.07753 1750.6619,-741.81746 C 1741.3028,-750.55739 1728.87,-755.37853 1715.6378,-755.37853 L 854.71425,-755.37853 C 827.39516,-755.37853 805.176,-734.61153 805.176,-709.08784 L 805.176,398.33078 C 805.176,410.69301 810.33107,422.32047 819.69013,431.0604 C 829.04919,439.80033 841.482,444.62147 854.71425,444.62147 L 1715.6378,444.62147 z "
       style="fill:black;fill-rule:nonzero;stroke:none"
       id="path3872" />
    <path
       d="M 854.71425,434.29598 C 844.43169,434.29598 834.76938,430.55766 827.49164,423.76424 C 820.22769,416.97081 816.21666,407.93439 816.21666,398.33078 L 816.21666,-709.08784 C 816.21666,-718.69145 820.22769,-727.72787 827.49164,-734.5213 C 834.76938,-741.31472 844.43169,-745.05304 854.71425,-745.05304 L 1715.6378,-745.05304 C 1725.9203,-745.05304 1735.5826,-741.31472 1742.8604,-734.5213 C 1750.1243,-727.72787 1754.1353,-718.69145 1754.1353,-709.08784 L 1754.1353,398.33078 C 1754.1353,418.16965 1736.8645,434.29598 1715.6378,434.29598 L 854.71425,434.29598"
       style="fill:white;fill-rule:nonzero;stroke:none"
       id="path149" />
    <path
       d="M 906.52679,-328.73335 C 906.52679,-524.11846 1076.0513,-682.50712 1285.176,-682.50712 C 1494.3007,-682.50712 1663.8252,-524.11846 1663.8252,-328.73335 C 1663.8252,-133.34824 1494.3007,25.040419 1285.176,25.040419 C 1076.0513,25.040419 906.52679,-133.34824 906.52679,-328.73335 z M 1285.176,-66.406567 C 1440.2415,-66.406567 1565.9479,-183.8542 1565.9479,-328.73335 C 1565.9479,-473.6125 1440.2415,-591.06013 1285.176,-591.06013 C 1130.1105,-591.06013 1004.4041,-473.6125 1004.4041,-328.73335 C 1004.4041,-183.8542 1130.1105,-66.406567 1285.176,-66.406567"
       style="fill:#ee1c23;fill-rule:nonzero;stroke:none"
       id="path151" />
    <path
       d="M 1303.0533,-235.43009 C 1303.0533,-199.54224 1334.1905,-170.44782 1372.6054,-170.44782 C 1411.0065,-170.44782 1442.1574,-199.54224 1442.1574,-235.43009 L 1442.1574,-423.18388 C 1442.1574,-459.07173 1411.0065,-488.15326 1372.6054,-488.15326 C 1334.1905,-488.15326 1303.0533,-459.07173 1303.0533,-423.18388 L 1303.0533,-235.43009 z M 1395.7894,-235.43009 C 1395.7894,-223.46748 1385.4103,-213.77363 1372.6054,-213.77363 C 1359.8004,-213.77363 1349.4213,-223.46748 1349.4213,-235.43009 L 1349.4213,-423.18388 C 1349.4213,-435.1465 1359.8004,-444.84034 1372.6054,-444.84034 C 1385.4103,-444.84034 1395.7894,-435.1465 1395.7894,-423.18388 L 1395.7894,-235.43009"
       style="fill:black;fill-rule:nonzero;stroke:none"
       id="path153" />
    <path
       d="M 1253.7494,-324.90479 C 1251.0616,-329.09429 1243.5082,-331.78846 1243.5082,-331.78846 C 1243.5082,-331.78846 1248.7735,-334.04434 1252.3848,-337.66664 C 1257.9672,-343.24833 1257.2229,-349.66793 1257.2229,-349.66793 L 1257.2229,-423.18388 C 1257.2229,-459.07173 1226.0857,-488.15326 1187.6708,-488.15326 C 1149.2559,-488.15326 1118.1188,-459.07173 1118.1188,-423.18388 L 1164.4868,-423.18388 C 1164.4868,-435.1465 1174.8659,-444.84034 1187.6708,-444.84034 C 1200.4758,-444.84034 1210.8548,-435.1465 1210.8548,-423.18388 L 1210.8548,-358.7688 L 1210.7721,-358.7688 C 1210.7721,-354.78556 1207.3125,-351.54998 1203.0395,-351.54998 L 1203.0395,-351.53709 L 1164.2801,-351.53709 L 1164.2801,-311.03435 L 1203.3566,-311.03435 C 1207.4779,-310.87966 1210.7721,-307.73431 1210.7721,-303.84131 L 1210.8548,-303.84131 L 1210.8548,-235.43009 C 1210.8548,-223.46748 1200.4758,-213.77363 1187.6708,-213.77363 C 1174.8659,-213.77363 1164.4868,-223.46748 1164.4868,-235.43009 L 1118.1188,-235.43009 C 1118.1188,-199.54224 1149.2559,-170.44782 1187.6708,-170.44782 C 1226.0857,-170.44782 1257.2229,-199.54224 1257.2229,-235.43009 L 1257.2229,-310.64762 C 1257.2229,-310.64762 1257.8569,-318.52387 1253.7494,-324.90479"
       style="fill:black;fill-rule:nonzero;stroke:none"
       id="path155" />
    <path
       d="M 1511.1719,289.5973 L 1511.1719,312.55573 C 1511.1719,324.38944 1518.6839,331.04106 1530.9513,331.04106 C 1546.389,331.04106 1549.9589,322.86833 1550.7446,314.73426 L 1591.1167,314.73426 C 1591.1167,330.26762 1585.176,342.12711 1574.8797,352.11744 C 1564.1974,362.46871 1549.5592,368.74651 1530.9513,368.74651 C 1506.4165,368.74651 1487.8225,358.0343 1478.3256,341.76617 C 1472.7845,332.14967 1470.7997,318.83352 1470.7997,303.674 L 1470.7997,241.94019 C 1470.7997,226.78067 1472.7845,213.46453 1478.3256,203.84802 C 1487.8225,187.5799 1506.4165,176.86768 1530.9513,176.86768 C 1568.1533,176.86768 1591.1029,202.37848 1591.1029,235.27568 L 1591.1167,289.5973 L 1511.1719,289.5973 z M 1511.1719,257.46066 L 1550.7446,257.46066 L 1550.7446,236.02334 C 1550.7446,221.97242 1543.2187,214.57313 1530.9513,214.57313 C 1518.6839,214.57313 1511.1719,221.97242 1511.1719,236.02334 L 1511.1719,257.46066"
       style="fill:black;fill-rule:nonzero;stroke:none"
       id="path157" />
    <path
       d="M 1307.2022,179.94857 L 1347.5743,179.94857 L 1347.5606,189.1139 L 1348.3462,189.1139 C 1362.3366,176.08135 1362.2401,176.08135 1380.8342,176.08135 C 1401.0134,176.08135 1427.9052,189.9389 1427.9052,223.57087 L 1427.9052,367.40587 L 1387.5468,367.40587 L 1387.5468,237.62179 C 1387.5468,223.94471 1380.4207,215.4497 1367.7535,215.4497 C 1352.7156,215.4497 1347.5743,224.69237 1347.5743,241.32144 L 1347.5743,367.40587 L 1307.2022,367.40587 L 1307.2022,179.94857"
       style="fill:black;fill-rule:nonzero;stroke:none"
       id="path159" />
    <path
       d="M 1144.9555,241.84996 C 1144.9555,226.69044 1146.9403,213.37429 1152.4813,203.75779 C 1161.9782,187.50255 1181.9369,176.77745 1206.4717,176.77745 C 1231.0065,176.77745 1250.9789,187.48966 1260.4758,203.75779 C 1266.0168,213.37429 1267.9879,226.67754 1267.9879,241.83707 L 1267.9879,303.58376 C 1267.9879,318.74329 1266.0168,332.05943 1260.4758,341.66304 C 1250.9789,357.93117 1231.0065,368.65628 1206.4717,368.65628 C 1181.9369,368.65628 1161.9782,357.94406 1152.4813,341.67593 C 1146.9403,332.05943 1144.9555,318.74329 1144.9555,303.59666 L 1144.9555,241.84996 z M 1185.3276,309.50062 C 1185.3276,323.55154 1194.2043,330.95083 1206.4717,330.95083 C 1218.7391,330.95083 1227.6295,323.55154 1227.6295,309.50062 L 1227.6295,235.92021 C 1227.6295,221.88219 1218.7391,214.48289 1206.4717,214.48289 C 1194.2043,214.48289 1185.3276,221.88219 1185.3276,235.9331 L 1185.3276,309.50062"
       style="fill:black;fill-rule:nonzero;stroke:none"
       id="path161" />
    <path
       d="M 979.48337,334.39266 L 1070.5103,139.92279 L 991.64051,139.92279 L 991.64051,104.42166 L 1114.4386,104.42166 L 1114.4386,134.37977 L 1021.8266,332.17545 L 1118.5323,332.17545 L 1118.5323,367.67658 L 979.48337,367.67658 L 979.48337,334.39266"
       style="fill:black;fill-rule:nonzero;stroke:none"
       id="path163" />
  </g>
</svg>
