<?xml version="1.0" encoding="UTF-8" standalone="no"?>
<!-- Created with Inkscape (http://www.inkscape.org/) -->

<svg
   xmlns:dc="http://purl.org/dc/elements/1.1/"
   xmlns:cc="http://creativecommons.org/ns#"
   xmlns:rdf="http://www.w3.org/1999/02/22-rdf-syntax-ns#"
   xmlns:svg="http://www.w3.org/2000/svg"
   xmlns="http://www.w3.org/2000/svg"
   xmlns:sodipodi="http://sodipodi.sourceforge.net/DTD/sodipodi-0.dtd"
   xmlns:inkscape="http://www.inkscape.org/namespaces/inkscape"
   width="400"
   height="200"
   id="svg6446"
   version="1.1"
   inkscape:version="0.48.2 r9819"
   sodipodi:docname="Wegschild Montenegro A-1.svg">
  <defs
     id="defs6448" />
  <sodipodi:namedview
     id="base"
     pagecolor="#ffffff"
     bordercolor="#666666"
     borderopacity="1.0"
     inkscape:pageopacity="0.0"
     inkscape:pageshadow="2"
     inkscape:zoom="0.35"
     inkscape:cx="375"
     inkscape:cy="520"
     inkscape:document-units="px"
     inkscape:current-layer="layer1"
     showgrid="false"
     inkscape:window-width="667"
     inkscape:window-height="690"
     inkscape:window-x="683"
     inkscape:window-y="0"
     inkscape:window-maximized="0" />
  <metadata
     id="metadata6451">
    <rdf:RDF>
      <cc:Work
         rdf:about="">
        <dc:format>image/svg+xml</dc:format>
        <dc:type
           rdf:resource="http://purl.org/dc/dcmitype/StillImage" />
        <dc:title></dc:title>
      </cc:Work>
    </rdf:RDF>
  </metadata>
  <g
     inkscape:label="Layer 1"
     inkscape:groupmode="layer"
     id="layer1"
     transform="translate(0,-852.36218)">
    <g
       id="g5068"
       transform="translate(3145.6048,2234.1728)">
      <rect
         rx="14.852341"
         ry="14.700139"
         y="-1376.8853"
         x="-3140.6794"
         height="190.14931"
         width="390.14929"
         id="rect2985-9-3-1"
         style="fill:#009933;fill-opacity:1;fill-rule:evenodd;stroke:#ffffff;stroke-width:9.85069561;stroke-linecap:butt;stroke-linejoin:miter;stroke-opacity:1" />
      <g
         id="text2987-6-6-7"
         style="font-size:176.42498779px;font-style:normal;font-variant:normal;font-weight:normal;font-stretch:normal;line-height:125%;letter-spacing:0px;word-spacing:0px;fill:#ffffff;fill-opacity:1;stroke:none;font-family:Snv Becker;-inkscape-font-specification:Snv Becker">
        <path
           id="path4731"
           d="m -3062.2882,-1238.695 -4.8241,16.8845 -23.0007,0 34.458,-117.588 25.0682,0 34.5441,117.588 -22.7423,0 -4.9964,-16.8845 z m 5.6856,-19.5549 27.3941,0 -13.8693,-46.6906 z"
           inkscape:connector-curvature="0" />
        <path
           id="path4733"
           d="m -2916.7893,-1286.247 0,19.5549 -50.3948,0 0,-19.5549 z"
           inkscape:connector-curvature="0" />
        <path
           id="path4735"
           d="m -2848.5624,-1241.3655 47.4659,0 0,19.555 -78.0474,0 0,-19.555 49.6195,-49.1888 c 3.2735,-3.216 4.9102,-7.2361 4.9103,-12.0603 -1e-4,-5.1686 -1.3784,-9.4758 -4.135,-12.9217 -3.5032,-4.422 -7.9828,-6.6331 -13.4386,-6.6332 -5.3984,10e-5 -9.878,2.326 -13.4386,6.9778 -2.5269,3.2736 -3.7904,6.8342 -3.7904,10.6819 l 0,4.0489 -22.3115,0 c 0.3445,-10.2225 2.9576,-18.6073 7.8392,-25.1544 7.9827,-10.7967 18.4062,-16.1951 31.2706,-16.1953 11.8305,2e-4 21.5075,4.1351 29.0309,12.4049 7.0638,7.6958 10.5957,16.942 10.5958,27.7387 -10e-5,10.1652 -4.0776,19.2966 -12.2326,27.3941 z"
           inkscape:connector-curvature="0" />
      </g>
    </g>
  </g>
</svg>
