<?xml version="1.0" encoding="utf-8"?>
<!-- Generator: Adobe Illustrator 15.0.0, SVG Export Plug-In . SVG Version: 6.00 Build 0)  -->
<!DOCTYPE svg PUBLIC "-//W3C//DTD SVG 1.1//EN" "http://www.w3.org/Graphics/SVG/1.1/DTD/svg11.dtd">
<svg version="1.1" id="Vrstva_1" xmlns="http://www.w3.org/2000/svg" xmlns:xlink="http://www.w3.org/1999/xlink" x="0px" y="0px"
	 width="500px" height="250px" viewBox="0 0 500 250" enable-background="new 0 0 500 250" xml:space="preserve">
<rect x="3" y="4" fill="#FFFFFF" width="494" height="240"/>
<path id="path4573" fill="#CC0000" d="M59.763,229.939L485.18,52.116l0.39-26.61l-9.322-10.411l-36.122,5.207L15.596,196.727
	l-1.165,22.561l10.099,15.619L59.763,229.939z"/>
<path id="path1882" fill="none" stroke="#000000" stroke-width="7" d="M27.955,15.359l447.34-0.369
	c6.259,0,11.941,6.009,11.941,13.828l-0.055,186.987c0,9.034-3.871,17.404-13.775,17.404l-442.533-0.631
	c-15.788,0-16.969-5.347-16.969-22.354L14.047,33.58C14.047,25.479,15.405,15.359,27.955,15.359z"/>
<g>
	<path d="M127.403,112.009V40.026h17.073c3.882,0,7.187,1.547,9.915,4.641c2.816,3.2,4.224,7.19,4.224,11.971v7.33
		c0,3.094-0.845,5.925-2.534,8.49c-0.771,1.09-1.764,2.092-2.979,3.006c1.601,0.844,2.83,1.793,3.69,2.848
		c1.837,2.497,2.741,5.625,2.712,9.387v8.174c0.029,5.134-1.675,9.334-5.113,12.604c-2.608,2.392-5.528,3.567-8.759,3.533H127.403z
		 M136.073,71.14h6.98c2.371,0,4.194-0.931,5.469-2.795c0.948-1.371,1.423-2.829,1.423-4.377v-7.33c0-1.898-0.578-3.533-1.734-4.904
		c-1.333-1.617-2.875-2.426-4.624-2.426h-7.514V71.14z M136.073,102.728h8.803c1.689,0,3.104-0.65,4.246-1.951
		c1.141-1.3,1.712-2.935,1.712-4.904v-8.174c0-1.863-0.475-3.462-1.423-4.799c-1.127-1.652-2.534-2.479-4.224-2.479h-9.115V102.728z
		"/>
	<path d="M168.574,112.009V60.593h7.825v51.416H168.574z M168.93,50.31v-8.227h6.936v8.227H168.93z"/>
	<path d="M202.986,97.243h8.047c0,2.286-0.267,4.219-0.8,5.801c-0.86,2.566-2.119,4.712-3.779,6.434
		c-2.372,2.392-5.202,3.586-8.492,3.586c-2.194,0-4.231-0.58-6.113-1.74c-1.883-1.16-3.401-2.776-4.558-4.852
		c-1.511-2.671-2.267-5.748-2.267-9.229V75.042c0-3.797,0.978-7.101,2.934-9.914c2.579-3.726,5.869-5.59,9.871-5.59
		c3.29,0,6.209,1.231,8.759,3.691c2.638,2.603,4.12,6.539,4.446,11.813h-8.047v-1.107c0-1.722-0.489-3.146-1.467-4.271
		c-1.038-1.266-2.238-1.898-3.601-1.898c-1.778,0-3.187,0.932-4.224,2.795c-0.563,1.021-0.845,2.145-0.845,3.375v24.416
		c0,1.898,0.415,3.41,1.245,4.535c0.978,1.301,2.223,1.951,3.735,1.951c1.956,0,3.408-0.949,4.357-2.848
		c0.534-1.02,0.8-2.232,0.8-3.639V97.243z"/>
	<path d="M245.357,112.009h-7.825v-1.213c-1.897,0.81-4.165,1.213-6.803,1.213c-3.261,0-5.943-1.02-8.047-3.059
		c-2.846-2.707-4.268-6.346-4.268-10.916c0-4.535,1.318-8.208,3.957-11.021c2.193-2.32,4.846-3.48,7.958-3.48h2.49
		c1.333,0,2.445-0.562,3.334-1.688c0.592-0.772,0.963-1.563,1.111-2.373c0.178-0.809,0.267-2.249,0.267-4.324V74.04
		c0-1.582-0.4-2.935-1.201-4.061c-1.038-1.477-2.372-2.215-4.001-2.215c-1.897,0-3.334,0.984-4.313,2.953
		c-0.534,1.09-0.8,2.197-0.8,3.322v1.107h-7.825c0.178-3.586,0.934-6.573,2.268-8.965c1.185-2.074,2.719-3.699,4.602-4.878
		c1.882-1.178,3.875-1.767,5.98-1.767c4.327,0,7.87,2.057,10.626,6.17c1.363,2.039,2.164,4.132,2.401,6.275
		c0.059,0.493,0.089,1.548,0.089,3.164V112.009z M237.533,90.493c-1.779,0.844-3.379,1.266-4.802,1.266h-2.001
		c-1.305,0-2.416,0.615-3.334,1.846c-0.771,1.09-1.156,2.444-1.156,4.061c0,1.97,0.489,3.48,1.467,4.535s2.401,1.582,4.269,1.582
		c2.015,0,3.497-0.703,4.446-2.109c0.741-1.125,1.112-2.426,1.112-3.902V90.493z"/>
	<path d="M254.872,112.009V40.026h7.825v71.982H254.872z"/>
	<path d="M298.221,112.009h-7.824v-1.213c-1.897,0.81-4.165,1.213-6.803,1.213c-3.261,0-5.943-1.02-8.047-3.059
		c-2.846-2.707-4.269-6.346-4.269-10.916c0-4.535,1.318-8.208,3.957-11.021c2.192-2.32,4.847-3.48,7.958-3.48h2.49
		c1.334,0,2.445-0.562,3.334-1.688c0.593-0.772,0.963-1.563,1.111-2.373c0.179-0.809,0.268-2.249,0.268-4.324V74.04
		c0-1.582-0.4-2.935-1.201-4.061c-1.037-1.477-2.371-2.215-4.001-2.215c-1.897,0-3.335,0.984-4.313,2.953
		c-0.534,1.09-0.8,2.197-0.8,3.322v1.107h-7.826c0.178-3.586,0.934-6.573,2.268-8.965c1.186-2.074,2.719-3.699,4.602-4.878
		c1.883-1.178,3.875-1.767,5.98-1.767c4.327,0,7.869,2.057,10.626,6.17c1.363,2.039,2.163,4.132,2.401,6.275
		c0.059,0.493,0.088,1.548,0.088,3.164V112.009z M290.396,90.493c-1.779,0.844-3.379,1.266-4.802,1.266h-2.001
		c-1.305,0-2.416,0.615-3.334,1.846c-0.771,1.09-1.156,2.444-1.156,4.061c0,1.97,0.488,3.48,1.467,4.535s2.4,1.582,4.269,1.582
		c2.015,0,3.497-0.703,4.446-2.109c0.74-1.125,1.111-2.426,1.111-3.902V90.493z"/>
	<path d="M318.185,69.241v31.852c0,0.984,0.2,1.68,0.601,2.083c0.4,0.404,1.09,0.606,2.067,0.606h4.224v8.227h-6.892
		c-2.282,0-4.165-0.809-5.646-2.426c-1.452-1.652-2.179-3.586-2.179-5.801V69.241h-3.912v-8.227h3.912V46.091l7.825-5.643v20.566
		h7.78v8.227H318.185z"/>
	<path d="M359.311,60.593v51.416h-7.824v-2.215c-1.068,0.844-1.912,1.459-2.535,1.846c-1.541,0.949-3.156,1.424-4.846,1.424
		c-1.779,0-3.477-0.467-5.092-1.397s-2.896-2.188-3.846-3.771c-1.244-2.109-1.867-4.799-1.867-8.068V60.593h7.826v37.916
		c0,1.828,0.355,3.235,1.066,4.219c1.008,1.406,2.342,2.109,4.002,2.109c1.837,0,3.274-0.861,4.313-2.584
		c0.651-1.089,0.979-2.338,0.979-3.744V60.593H359.311z"/>
	<path d="M72.427,197.009v-71.982h10.538l10.226,49.518l10.538-49.518h10.315v71.982h-8.67V154.61l-8.759,42.398h-8.003
		l-8.359-39.92v39.92H72.427z"/>
	<path d="M149.611,197.009h-7.825v-1.213c-1.897,0.81-4.165,1.213-6.803,1.213c-3.261,0-5.943-1.02-8.047-3.059
		c-2.846-2.707-4.268-6.346-4.268-10.916c0-4.535,1.318-8.208,3.957-11.021c2.193-2.32,4.846-3.48,7.958-3.48h2.49
		c1.333,0,2.445-0.562,3.334-1.688c0.592-0.772,0.963-1.563,1.111-2.373c0.178-0.809,0.267-2.249,0.267-4.324v-1.107
		c0-1.582-0.4-2.935-1.201-4.061c-1.038-1.477-2.372-2.215-4.001-2.215c-1.897,0-3.334,0.984-4.313,2.953
		c-0.534,1.09-0.8,2.197-0.8,3.322v1.107h-7.825c0.178-3.586,0.934-6.573,2.268-8.965c1.185-2.074,2.719-3.699,4.602-4.878
		c1.882-1.178,3.875-1.767,5.98-1.767c4.327,0,7.87,2.057,10.626,6.17c1.363,2.039,2.164,4.132,2.401,6.275
		c0.059,0.493,0.089,1.548,0.089,3.164V197.009z M141.786,175.493c-1.779,0.844-3.379,1.266-4.802,1.266h-2.001
		c-1.305,0-2.416,0.615-3.334,1.846c-0.771,1.09-1.156,2.444-1.156,4.061c0,1.97,0.489,3.48,1.467,4.535s2.401,1.582,4.269,1.582
		c2.015,0,3.497-0.703,4.446-2.109c0.741-1.125,1.112-2.426,1.112-3.902V175.493z"/>
	<path d="M183.846,145.593v57.111c0,3.867-0.756,7.031-2.268,9.492c-1.215,2.004-2.779,3.577-4.69,4.72
		c-1.912,1.142-3.92,1.714-6.024,1.714c-3.409,0-6.358-1.337-8.848-4.008c-0.711-0.738-1.378-1.723-2.001-2.953l6.313-4.271
		c0.741,2.004,2.119,3.006,4.135,3.006c2.252,0,3.882-1.037,4.891-3.111c0.444-0.915,0.667-2.057,0.667-3.428v-10.125
		c-2.283,2.181-4.698,3.27-7.247,3.27c-3.438,0-6.299-1.652-8.581-4.957c-1.156-1.688-1.883-3.428-2.179-5.221
		c-0.119-0.772-0.178-1.916-0.178-3.428v-26.051c0-2.742,0.667-5.221,2-7.436c2.193-3.586,5.039-5.379,8.537-5.379
		c2.786,0,5.335,1.179,7.647,3.533v-2.479H183.846z M165.661,159.251v22.518c0,1.617,0.356,3.041,1.067,4.271
		c1.007,1.828,2.401,2.742,4.179,2.742c1.867,0,3.29-1.055,4.268-3.164c0.563-1.194,0.845-2.479,0.845-3.85v-22.518
		c0-1.688-0.371-3.059-1.111-4.113c-1.097-1.582-2.475-2.373-4.135-2.373c-1.927,0-3.379,0.984-4.357,2.953
		C165.913,156.772,165.661,157.951,165.661,159.251z"/>
	<path d="M219.637,145.224l-14.316,72.51h-8.226l4.001-20.83l-9.915-51.68h8.358l5.78,30.375l6.313-30.375H219.637z"/>
	<path d="M251.56,197.009h-7.825v-1.213c-1.897,0.81-4.165,1.213-6.803,1.213c-3.261,0-5.943-1.02-8.047-3.059
		c-2.846-2.707-4.268-6.346-4.268-10.916c0-4.535,1.318-8.208,3.957-11.021c2.193-2.32,4.846-3.48,7.958-3.48h2.49
		c1.333,0,2.445-0.562,3.334-1.688c0.592-0.772,0.963-1.563,1.111-2.373c0.178-0.809,0.267-2.249,0.267-4.324v-1.107
		c0-1.582-0.4-2.935-1.201-4.061c-1.038-1.477-2.372-2.215-4.001-2.215c-1.897,0-3.334,0.984-4.313,2.953
		c-0.534,1.09-0.8,2.197-0.8,3.322v1.107h-7.825c0.178-3.586,0.934-6.573,2.268-8.965c1.185-2.074,2.719-3.699,4.602-4.878
		c1.882-1.178,3.875-1.767,5.98-1.767c4.327,0,7.87,2.057,10.626,6.17c1.363,2.039,2.164,4.132,2.401,6.275
		c0.059,0.493,0.089,1.548,0.089,3.164V197.009z M243.735,175.493c-1.779,0.844-3.379,1.266-4.802,1.266h-2.001
		c-1.305,0-2.416,0.615-3.334,1.846c-0.771,1.09-1.156,2.444-1.156,4.061c0,1.97,0.489,3.48,1.467,4.535s2.401,1.582,4.269,1.582
		c2.015,0,3.497-0.703,4.446-2.109c0.741-1.125,1.112-2.426,1.112-3.902V175.493z"/>
	<path d="M261.074,197.009v-51.1h7.825v2.531c1.274-0.983,2.505-1.669,3.69-2.057c0.918-0.316,2.727-0.475,5.424-0.475h2.579v8.227
		h-2.623c-2.017,0-3.395,0.141-4.136,0.422c-1.808,0.668-3.156,1.934-4.045,3.797c-0.594,1.195-0.89,2.479-0.89,3.85v34.805H261.074
		z"/>
	<path d="M286.639,197.009v-71.982h7.826v22.939c2.489-2.285,4.994-3.428,7.514-3.428c3.557,0,6.342,1.548,8.358,4.641
		c1.541,2.392,2.312,5.134,2.312,8.227v27.58c0,3.902-1.097,7.119-3.289,9.65c-1.986,2.286-4.462,3.428-7.426,3.428
		c-2.786,0-5.275-1.16-7.469-3.48v2.426H286.639z M304.824,183.509v-24.627c0-1.722-0.505-3.146-1.512-4.271
		c-1.067-1.23-2.313-1.846-3.734-1.846c-1.69,0-3.084,0.791-4.18,2.373c-0.623,0.915-0.934,2.162-0.934,3.744v24.627
		c0,1.548,0.385,2.9,1.156,4.061c0.978,1.512,2.311,2.268,4.001,2.268c1.601,0,2.919-0.703,3.957-2.109
		C304.408,186.567,304.824,185.162,304.824,183.509z"/>
	<path d="M321.318,197.009v-51.416h7.826v51.416H321.318z M321.675,135.31v-8.227h6.936v8.227H321.675z"/>
	<path d="M339.059,197.009v-71.982h7.825v38.496l10.716-17.93h8.714l-14.405,24.416l14.405,27H357.6l-10.716-20.25v20.25H339.059z"
		/>
	<path d="M397.035,197.009h-7.824v-1.213c-1.897,0.81-4.165,1.213-6.803,1.213c-3.261,0-5.943-1.02-8.047-3.059
		c-2.846-2.707-4.269-6.346-4.269-10.916c0-4.535,1.318-8.208,3.957-11.021c2.192-2.32,4.847-3.48,7.958-3.48h2.49
		c1.334,0,2.445-0.562,3.334-1.688c0.593-0.772,0.963-1.563,1.111-2.373c0.179-0.809,0.268-2.249,0.268-4.324v-1.107
		c0-1.582-0.4-2.935-1.201-4.061c-1.037-1.477-2.371-2.215-4.001-2.215c-1.897,0-3.335,0.984-4.313,2.953
		c-0.534,1.09-0.8,2.197-0.8,3.322v1.107h-7.826c0.178-3.586,0.934-6.573,2.268-8.965c1.186-2.074,2.719-3.699,4.602-4.878
		c1.883-1.178,3.875-1.767,5.98-1.767c4.327,0,7.869,2.057,10.626,6.17c1.363,2.039,2.163,4.132,2.401,6.275
		c0.059,0.493,0.088,1.548,0.088,3.164V197.009z M389.211,175.493c-1.779,0.844-3.379,1.266-4.802,1.266h-2.001
		c-1.305,0-2.416,0.615-3.334,1.846c-0.771,1.09-1.156,2.444-1.156,4.061c0,1.97,0.488,3.48,1.467,4.535s2.4,1.582,4.269,1.582
		c2.015,0,3.497-0.703,4.446-2.109c0.74-1.125,1.111-2.426,1.111-3.902V175.493z"/>
	<path d="M406.551,197.009v-71.982h7.824v71.982H406.551z"/>
</g>
<g>
	<path d="M232.225,49.931l8.396-2.876l1.948,5.195l-10.344,3.804l-10.344-3.804l1.902-5.195L232.225,49.931z"/>
</g>
</svg>
