<?xml version="1.0" encoding="UTF-8" standalone="no"?>
<!-- Created with Inkscape (http://www.inkscape.org/) -->
<svg
   xmlns:svg="http://www.w3.org/2000/svg"
   xmlns="http://www.w3.org/2000/svg"
   version="1.0"
   width="427"
   height="82"
   id="svg2773">
  <defs
     id="defs2775" />
  <g
     id="layer1">
    <path
       d="M 426.485,81.48 L 426.485,0.52 L 0.515,0.52 L 0.515,81.48 L 426.485,81.48 z "
       style="fill:#00997c;fill-rule:evenodd;stroke:none"
       id="path5496" />
    <path
       d="M 426.485,81.48 L 426.485,0.52 L 0.515,0.52 L 0.515,81.48 L 426.485,81.48 z "
       style="fill:none;stroke:#00997c;stroke-width:0.071"
       id="path5498" />
    <path
       d="M 0.575,10.74 L 1.125,8.34 L 2.225,5.84 L 3.965,3.97 L 6.425,2.07 L 9.245,0.92 L 12.295,0.53 L 377.595,0.52 L 380.615,0.92 L 382.745,2.19 L 426.475,41 L 382.745,79.76 L 381.775,80.51 L 380.615,81.03 L 379.465,81.37 L 10.805,81.37 L 9.245,81.08 L 6.425,79.93 L 5.105,79.07 L 3.625,77.56 L 2.055,75.57 L 0.905,72.77 L 0.515,70.69 L 0.575,10.75"
       style="fill:#ffffff;fill-rule:evenodd;stroke:none"
       id="path5500" />
    <path
       d="M 5.575,12.29 L 5.975,10 L 7.125,8 L 8.975,6.45 L 11.145,5.7 L 12.295,5.58 L 374.065,5.58 L 376.365,5.99 L 378.375,7.14 L 379.925,8.96 L 380.385,10 L 380.795,12.29 L 380.795,69.66 L 380.385,72.01 L 379.235,74.02 L 377.455,75.51 L 375.215,76.31 L 12.295,76.42 L 9.995,76.03 L 7.985,74.82 L 6.285,72.56 L 5.565,69.66 L 5.565,12.29"
       style="fill:#00997c;fill-rule:evenodd;stroke:none"
       id="path5502" />
    <path
       d="M 25.125,61.87 L 25.125,21.01 L 31.245,21.01 L 31.245,37.37 L 45.595,37.37 L 45.595,21.01 L 51.715,21.01 L 51.715,61.87 L 45.595,61.87 L 45.595,43.48 L 31.245,43.48 L 31.245,61.87 L 25.125,61.87"
       style="fill:#ffffff;fill-rule:evenodd;stroke:none"
       id="path5504" />
    <path
       d="M 65.665,21.01 L 88.185,21.01 L 88.185,27.12 L 71.795,27.12 L 71.795,37.37 L 82.855,37.37 L 82.855,43.48 L 71.795,43.48 L 71.795,55.75 L 88.185,55.75 L 88.185,61.86 L 65.665,61.86 L 65.665,21"
       style="fill:#ffffff;fill-rule:evenodd;stroke:none"
       id="path5506" />
    <path
       d="M 99.245,21.01 L 105.425,21.01 L 105.425,55.76 L 119.715,55.76 L 119.715,61.87 L 99.245,61.87 L 99.245,21.01"
       style="fill:#ffffff;fill-rule:evenodd;stroke:none"
       id="path5508" />
    <path
       d="M 142.455,31.82 L 141.935,29.67 L 140.525,28.03 L 138.495,27.18 L 134.915,27.13 L 131.575,28.49 L 130.265,31.03 L 130.665,33.91 L 132.655,35.95 L 145.695,41.5 L 148.405,45.06 L 149.485,48.23 L 149.535,51.63 L 148.685,54.85 L 146.135,58.53 L 142.405,61.01 L 137.985,61.86 L 133.895,61.64 L 129.305,59.88 L 126.475,57.51 L 123.525,52.25 L 123.015,48.57 L 129.195,48.57 L 129.755,51.35 L 132.085,54.35 L 134.635,55.52 L 137.475,55.64 L 140.135,54.63 L 141.615,53.44 L 143.085,51.01 L 143.245,48.86 L 142.285,46.82 L 140.535,45.35 L 129.305,41.1 L 126.695,38.95 L 124.545,35.06 L 124.035,31.72 L 124.595,28.38 L 126.185,25.38 L 128.565,23.06 L 131.575,21.53 L 134.915,21.02 L 137.755,21.02 L 141.095,21.53 L 144.155,23.06 L 147.155,26.4 L 148.405,29.57 L 148.635,31.83 L 142.455,31.83"
       style="fill:#ffffff;fill-rule:evenodd;stroke:none"
       id="path5510" />
    <path
       d="M 166.035,61.87 L 166.035,21.01 L 159.855,21.01 L 159.855,61.87 L 166.035,61.87 z "
       style="fill:#ffffff;fill-rule:evenodd;stroke:none"
       id="path5512" />
    <path
       d="M 261.845,61.87 L 261.845,21.01 L 255.665,21.01 L 255.665,61.87 L 261.845,61.87 z "
       style="fill:#ffffff;fill-rule:evenodd;stroke:none"
       id="path5514" />
    <path
       d="M 179.935,61.87 L 179.935,21.01 L 186.115,21.01 L 200.465,48.57 L 200.465,21.01 L 206.585,21.01 L 206.585,61.87 L 200.465,61.87 L 186.115,34.25 L 186.115,61.87 L 179.935,61.87"
       style="fill:#ffffff;fill-rule:evenodd;stroke:none"
       id="path5516" />
    <path
       d="M 220.475,61.87 L 226.605,61.87 L 226.605,51.63 L 231.485,44.39 L 240.205,61.87 L 247.065,61.87 L 235.385,38.5 L 247.065,21.02 L 239.695,21.02 L 226.605,40.59 L 226.605,21.02 L 220.475,21.02 L 220.475,61.87"
       style="fill:#ffffff;fill-rule:evenodd;stroke:none"
       id="path5518" />
    <path
       d="M 293.345,61.82 L 293.345,30.29 L 288.815,31.14 L 288.185,26.9 L 289.885,25.82 L 291.305,24.42 L 292.495,22.78 L 293.235,20.91 L 299.475,20.91 L 299.475,61.83 L 293.345,61.83"
       style="fill:#ffffff;fill-rule:evenodd;stroke:none"
       id="path5520" />
    <path
       d="M 314.795,61.82 L 314.795,30.29 L 310.255,31.14 L 309.645,26.9 L 311.335,25.82 L 312.755,24.42 L 313.945,22.78 L 314.685,20.91 L 320.915,20.91 L 320.915,61.83 L 314.795,61.83"
       style="fill:#ffffff;fill-rule:evenodd;stroke:none"
       id="path5522" />
    <path
       d="M 347.335,44.27 L 346.145,47.61 L 344.555,50.78 L 342.625,53.78 L 336.225,61.87 L 343.985,61.87 L 345.515,59.95 L 346.995,58.02 L 349.435,54.35 L 350.395,52.65 L 352.095,49.14 L 352.775,47.28 L 353.855,43.55 L 354.645,34.6 L 354.595,31.38 L 354.075,28.45 L 352.665,25.89 L 350.225,23.34 L 347.165,21.65 L 343.705,21.03 L 340.245,21.43 L 337.065,22.94 L 335.265,24.42 L 333.845,26.28 L 332.765,28.38 L 332.205,30.64 L 332.085,33.87 L 332.375,36.25 L 333.165,38.51 L 334.415,40.6 L 336.045,42.35 L 339.115,44.22 L 342.625,45.01 L 345.005,44.89 L 347.335,44.27"
       style="fill:#ffffff;fill-rule:evenodd;stroke:none"
       id="path5524" />
    <path
       d="M 342.855,27.12 L 344.495,27.24 L 345.975,27.86 L 347.675,29.5 L 348.355,30.97 L 348.405,34.65 L 347.445,36.86 L 345.635,38.37 L 344.105,38.88 L 341.715,38.72 L 339.625,37.47 L 338.715,36.17 L 338.145,34.65 L 338.095,31.76 L 338.485,30.24 L 339.335,28.88 L 340.585,27.86 L 342.855,27.12"
       style="fill:#00997c;fill-rule:evenodd;stroke:none"
       id="path5526" />
  </g>
</svg>
