<?xml version="1.0" encoding="UTF-8" standalone="no"?>
<svg
   width="681"
   height="602.12"
   fill-rule="evenodd"
   version="1.1"
   id="svg12"
   sodipodi:docname="2222.svg"
   inkscape:version="1.1.1 (3bf5ae0d25, 2021-09-20)"
   xmlns:inkscape="http://www.inkscape.org/namespaces/inkscape"
   xmlns:sodipodi="http://sodipodi.sourceforge.net/DTD/sodipodi-0.dtd"
   xmlns="http://www.w3.org/2000/svg"
   xmlns:svg="http://www.w3.org/2000/svg">
  <defs
     id="defs16" />
  <sodipodi:namedview
     id="namedview14"
     pagecolor="#ffffff"
     bordercolor="#111111"
     borderopacity="1"
     inkscape:pageshadow="0"
     inkscape:pageopacity="0"
     inkscape:pagecheckerboard="1"
     showgrid="false"
     inkscape:zoom="1.1941141"
     inkscape:cx="505.39557"
     inkscape:cy="205.59174"
     inkscape:window-width="1920"
     inkscape:window-height="1057"
     inkscape:window-x="-8"
     inkscape:window-y="-8"
     inkscape:window-maximized="1"
     inkscape:current-layer="svg12" />
  <path
     d="M46.019,601.088 7.048,533.588 301.529,23.532 379.471,23.532 673.952,533.588 634.981,601.088"
     fill="#e31017"
     stroke="none"
     id="path2"
     style="fill:#ff3219;fill-opacity:1" />
  <circle
     cx="340.5"
     cy="46.032"
     r="45"
     fill="#e31017"
     stroke="none"
     id="circle4"
     style="fill:#ff3219;fill-opacity:1" />
  <circle
     cx="634.981"
     cy="556.088"
     r="45"
     fill="#e31017"
     stroke="none"
     id="circle6"
     style="fill:#ff3219;fill-opacity:1" />
  <circle
     cx="46.019"
     cy="556.088"
     r="45"
     fill="#e31017"
     stroke="none"
     id="circle8"
     style="fill:#ff3219;fill-opacity:1" />
  <path
     d="M72,541.088 340.5,76.032 609,541.088"
     fill="#fff"
     stroke="none"
     id="path10" />
  <path
     id="rect1122"
     style="fill:#000000;fill-rule:evenodd;stroke:none;stroke-width:3.19427"
     d="m 161.5,439.088 v 10 h 25 v -10 z m 74,0 v 10 h 25 v -10 z m 37,0 v 10 h 25 v -10 z m 37,0 v 10 h 25 v -10 z m 37,0 v 10 h 25 v -10 z m 74,0 v 10 h 25 v -10 z m 37,0 v 10 h 25 v -10 z m 37,0 v 10 h 25 v -10 z m -370,80 v 10 h 25 v -10 z m 37,0 v 10 h 25 v -10 z m 37,0 v 10 h 25 v -10 z m 37,0 v 10 h 25 v -10 z m 37,0 v 10 h 25 v -10 z m 37,0 v 10 h 25 v -10 z m 37,0 v 10 h 25 v -10 z m 37,0 v 10 h 25 v -10 z m 37,0 v 10 h 25 v -10 z m 37,0 v 10 h 25 v -10 z m 37,0 v 10 h 25 v -10 z m 37,0 v 10 h 25 v -10 z" />
  <path
     id="path16"
     style="fill:#000000;fill-opacity:1;fill-rule:evenodd;stroke:none;stroke-width:0.217117"
     d="m 352.8854,154.08822 c -14.92248,-0.0607 -27.03998,12.05844 -27.13986,26.9223 0.0998,6.29208 2.1752,12.02194 5.64475,16.50107 0.61226,0.79032 3.83116,6.09921 -3.25555,6.94813 -7.06718,0.75992 -27.49121,1.80392 -39.51518,14.32943 -24.52994,25.4896 -41.08873,55.68847 -45.16185,98.57136 -1.51982,0.60142 -6.34476,2.3685 -6.29548,7.59886 -0.0493,5.3845 9.92281,16.80548 24.09993,16.71862 3.40657,0.0867 8.17985,-2.12488 8.2515,-7.3813 -0.0716,-2.8247 -0.0734,-4.75523 -0.8702,-6.94813 -0.81203,-2.31012 -1.29277,-8.42218 -1.30145,-18.45517 0.008,-10.23276 9.9786,-33.06969 24.09993,-42.77266 0,0 11.50038,91.87156 -84.24194,178.03683 0,0 14.95649,27.23756 15.41525,28.22567 3.18642,6.30314 9.68805,8.4869 13.02798,9.11785 1.55131,0.34697 12.08332,1.47426 12.8085,1.52093 0.723,0.1135 4.26297,0.75577 4.3433,-1.73847 -0.0803,-2.65296 -1.06175,-3.23514 -1.9541,-3.69065 -2.58152,-1.53088 -5.96028,-2.89136 -7.59885,-9.3354 0,0 -4.19914,-15.92098 -4.3433,-18.02008 0,0 45.82049,-29.18406 79.24791,-99.22401 0,0 47.39062,54.52081 66.87258,148.07459 l 51.67488,-22.58093 c 0,0 1.94326,-1.13148 1.9541,-3.03799 -0.0114,-1.71155 -2.06376,-2.5579 -3.47502,-2.82431 -1.24192,-0.21625 -29.9503,-3.10923 -30.3954,-3.038 -0.2779,-0.0712 -1.72763,-0.31441 -1.73848,-1.73847 0.0114,-20.41491 -8.14486,-54.19656 -14.7626,-73.16807 -1.50897,-4.0536 -2.95852,-8.15537 -4.56085,-10.85632 -22.61931,-35.36409 -30.50352,-61.40227 -19.53908,-103.99857 0,0 20.5414,47.59356 75.33971,52.75879 0,0 1.77375,2.4348 4.77648,2.3892 7.00855,0.0456 9.30066,-18.71229 9.3354,-20.84438 -0.0347,-5.34761 -4.73956,-5.58611 -4.77647,-5.64475 -0.92927,0.0586 -2.8589,-0.12244 -4.55893,2.60675 0,0 -41.46303,-11.92634 -53.19389,-53.19388 -4.8808,-16.87219 -15.05572,-32.03769 -26.48912,-41.46928 -1.88892,-1.66963 -6.30452,-5.99504 5.8e-4,-8.90224 9.19275,-4.32933 15.36691,-13.72691 15.41467,-24.53502 -0.0477,-14.86386 -12.16525,-26.9831 -27.13985,-26.9223 z"
     sodipodi:nodetypes="cccccccccccccccccccccccccccccccccccccccc" />
</svg>
