<?xml version="1.0" encoding="UTF-8" standalone="no"?>
<!-- Created with Inkscape (http://www.inkscape.org/) -->
<svg
   xmlns:svg="http://www.w3.org/2000/svg"
   xmlns="http://www.w3.org/2000/svg"
   version="1.0"
   width="602.36218"
   height="268.7244"
   id="svg1878">
  <defs
     id="defs1880" />
  <g
     id="layer1">
    <g
       transform="matrix(3.543307e-5,0,0,3.543307e-5,-3.580221e-4,-7.444509e-3)"
       style="fill-rule:evenodd"
       id="Layer_x0020_1">
  
  <g
   id="_107438880">
   <path
   d="M 16178500,3238100 C 16087410,3238100 15993930,3204770 15940870,3177310 C 14862140,2615550 13638510,2283310 12450300,2283310 C 12301300,2283310 12191020,2289550 12052360,2303250 C 12276450,2659600 12662500,3177900 12927220,3495630 C 12995850,3578020 13016380,3627720 13016380,3707290 C 13016380,3845730 12870580,3979900 12715560,3979900 C 12612050,3979900 12550190,3939050 12454250,3826530 C 12132140,3448590 11648450,2778680 11419140,2398450 C 10291300,2598050 9034180,3264020 8291260,3852340 C 8206200,3920440 8147170,3948440 8061950,3948440 C 7904100,3948440 7766940,3812450 7766940,3657210 C 7766940,3567510 7800050,3499790 7916150,3403050 C 9050020,2459240 10811090,1713870 12306530,1713870 C 12899540,1713870 13471440,1796050 14024770,1931340 C 14360370,2013360 14858560,2180390 15282420,2365330 C 14170730,1693340 12776670,1079470 11895310,1079470 C 11670640,1079470 11532940,1154720 11532940,1306330 C 11532940,1395340 11582810,1514630 11656720,1634620 C 11480470,1652490 11248120,1688430 11072240,1735470 C 10980250,1567110 10916470,1387230 10916470,1194390 C 10916470,764350 11196550,500000 11760390,500000 C 13037980,500000 15184930,1690720 16256570,2560460 C 16379230,2660130 16500020,2783740 16500020,2928580 C 16500020,3071980 16375810,3238100 16178500,3238100 z "
   style="fill:#f25900"
   id="_107415760" />

   <path
   d="M 2294560,5771480 C 2294560,5694900 2341000,5647270 2412300,5647270 C 2483660,5647270 2528030,5694900 2528030,5771480 L 2528030,5900900 C 2590320,5773340 2728220,5647270 2852160,5647270 C 2932150,5647270 2970710,5694150 2970710,5756380 C 2970710,5817180 2937430,5862510 2834880,5891300 C 2621730,5950390 2528400,6069630 2528400,6298040 L 2528400,6959690 C 2528400,7036430 2483660,7083840 2412300,7083840 C 2341000,7083840 2294560,7036430 2294560,6959690 L 2294560,5771480 z M 7534400,5771480 C 7534400,5694900 7580690,5647270 7651990,5647270 C 7723290,5647270 7767660,5694900 7767660,5771480 L 7767660,5900900 C 7829950,5773340 7967860,5647270 8091850,5647270 C 8171790,5647270 8210560,5694150 8210560,5756380 C 8210560,5817180 8177230,5862510 8074510,5891300 C 7861360,5950390 7768250,6069630 7768250,6298040 L 7768250,6959690 C 7768250,7036430 7723290,7083840 7651990,7083840 C 7580690,7083840 7534400,7036430 7534400,6959690 L 7534400,5771480 z M 3636300,5647270 C 3864710,5647270 4011470,5739100 4011470,5821340 C 4011470,5870770 3974940,5920100 3919480,5920100 C 3834040,5920100 3793570,5851040 3636300,5851040 C 3371260,5851040 3235000,6088250 3235000,6365550 C 3235000,6666010 3388540,6880280 3636300,6880280 C 3809410,6880280 3847220,6808820 3928490,6808820 C 3981340,6808820 4013490,6844550 4013490,6899320 C 4013490,6952170 3969660,6995260 3890840,7031570 C 3822200,7063360 3731120,7083840 3636300,7083840 C 3238790,7083840 3000250,6785460 3000250,6365550 C 3000250,5954710 3241030,5647270 3636300,5647270 z M 4353840,6455310 C 4358160,6685050 4507000,6880280 4768470,6880280 C 5043160,6880280 5108280,6726430 5207410,6726430 C 5263250,6726430 5302230,6764030 5302230,6822900 C 5302230,6936760 5051270,7083840 4770760,7083840 C 4560590,7083840 4419860,7017280 4314690,6910790 C 4181320,6775490 4119030,6575510 4119030,6365550 C 4119030,5981960 4356660,5647270 4750070,5647270 C 5115950,5647270 5353370,5970500 5353370,6331320 C 5353370,6413180 5320100,6455310 5223940,6455310 L 4353840,6455310 z M 5119530,6281080 C 5119530,6080350 5005350,5851040 4749110,5851040 C 4497180,5851040 4362480,6048570 4353840,6281080 L 5119530,6281080 z M 5832160,6959690 C 5832160,7036430 5786830,7083840 5715530,7083840 C 5644230,7083840 5598520,7036430 5598520,6959690 L 5598520,5296210 C 5598520,5219470 5644230,5172060 5715530,5172060 C 5786830,5172060 5832160,5219470 5832160,5296210 L 5832160,6959690 z M 6682910,7084420 C 6311150,7084420 6063980,6788130 6063980,6365550 C 6063980,5943250 6311150,5646900 6682910,5646900 C 7054660,5646900 7301840,5943250 7301840,6365550 C 7301840,6788130 7054660,7084420 6682910,7084420 z M 6682910,6880280 C 6910730,6880280 7066870,6681470 7066870,6365550 C 7066870,6049690 6910730,5851040 6682910,5851040 C 6455090,5851040 6298730,6049690 6298730,6365550 C 6298730,6681470 6455090,6880280 6682910,6880280 z M 9832810,5744170 C 9702420,6192130 9488310,6928280 9470820,6988860 C 9451240,7055840 9410450,7083840 9346670,7083840 C 9282670,7083840 9243210,7060160 9222520,6988860 C 9204230,6926040 8979820,6154480 8850770,5711270 C 8829490,5638050 8809760,5551550 8794880,5478540 C 8785860,5550000 8774560,5633730 8761970,5711800 C 8695370,6130590 8591700,6783600 8562900,6967950 C 8550310,7049070 8509090,7083840 8441200,7083840 C 8377420,7083840 8336780,7040960 8336780,6973070 C 8336780,6946730 8342010,6912280 8349740,6867480 C 8349740,6867480 8584340,5456890 8603000,5348900 C 8623110,5233760 8682730,5172060 8780210,5172060 C 8866550,5172060 8935240,5222880 8962700,5318820 C 8979820,5378440 9168710,6041050 9288910,6459840 C 9310940,6537170 9333120,6628200 9350030,6710430 C 9366240,6629900 9386930,6542820 9408530,6467520 C 9528410,6048940 9721030,5378660 9738150,5318820 C 9765620,5222880 9826780,5172060 9913120,5172060 C 10004530,5172060 10071510,5231680 10090170,5348900 C 10107290,5457100 10343590,6867480 10343590,6867480 C 10351270,6912280 10356340,6946730 10356340,6973070 C 10356340,7040960 10315700,7083840 10252130,7083840 C 10184250,7083840 10143020,7049070 10130220,6967950 C 10102390,6788880 10003780,6167490 9937010,5748120 C 9923260,5662520 9910880,5565630 9900320,5476670 C 9883420,5554160 9860430,5649350 9832810,5744170 z M 10767610,5235470 C 10846800,5235470 10910210,5298660 10910210,5377910 C 10910210,5457260 10846800,5520670 10767610,5520670 C 10688410,5520670 10625010,5457260 10625010,5377910 C 10625010,5298660 10688410,5235470 10767610,5235470 z M 10884820,5771480 C 10884820,5694900 10838910,5647270 10767610,5647270 C 10696310,5647270 10650980,5694900 10650980,5771480 L 10650980,6959690 C 10650980,7036430 10696310,7083840 10767610,7083840 C 10838910,7083840 10884820,7036430 10884820,6959690 L 10884820,5771480 z M 11291190,5359460 C 11291190,5282880 11336730,5235470 11408030,5235470 C 11479120,5235470 11525030,5282880 11525030,5359460 L 11525030,5663270 L 11620220,5663270 C 11696800,5663270 11736320,5700710 11736320,5764120 C 11736320,5827520 11696800,5865330 11620220,5865330 L 11525030,5865330 L 11525030,6959690 C 11525030,7036430 11479120,7083840 11408030,7083840 C 11336730,7083840 11291190,7036430 11291190,6959690 L 11291190,5865330 L 11206500,5865330 C 11129970,5865330 11090240,5827520 11090240,5764120 C 11090240,5700710 11129970,5663270 11206500,5663270 L 11291190,5663270 L 11291190,5359460 z M 12028290,5359460 C 12028290,5282880 12074210,5235470 12145510,5235470 C 12216810,5235470 12262140,5282880 12262140,5359460 L 12262140,5663270 L 12357120,5663270 C 12433700,5663270 12473430,5700710 12473430,5764120 C 12473430,5827520 12433700,5865330 12357120,5865330 L 12262140,5865330 L 12262140,6959690 C 12262140,7036430 12216810,7083840 12145510,7083840 C 12074210,7083840 12028290,7036430 12028290,6959690 L 12028290,5865330 L 11943070,5865330 C 11866490,5865330 11826820,5827520 11826820,5764120 C 11826820,5700710 11866490,5663270 11943070,5663270 L 12028290,5663270 L 12028290,5359460 z M 2043430,6869940 C 1994480,6739010 1537880,5511660 1466950,5322400 C 1431220,5227360 1376660,5172060 1286540,5172060 C 1194170,5172060 1145060,5227360 1109170,5322400 C 1076800,5407400 579720,6739230 530070,6869940 C 508420,6927530 500000,6958350 500000,6983210 C 500000,7041710 550230,7083840 610760,7083840 C 673630,7083840 709740,7051310 729310,6996750 C 741150,6963850 805890,6782640 888280,6551620 L 1684640,6551620 C 1762550,6769680 1825000,6945020 1843610,6996750 C 1861470,7046030 1893840,7083840 1957250,7083840 C 2017990,7083840 2075000,7046770 2075000,6986250 C 2075000,6959310 2068820,6938040 2043430,6869940 z M 962040,6345080 C 1058930,6073580 1165000,5776540 1235770,5577890 C 1255500,5522540 1272990,5469900 1286750,5426230 C 1301420,5473480 1319500,5527440 1337150,5577520 C 1408080,5776330 1513830,6073050 1610880,6345080 L 962040,6345080 L 962040,6345080 z M 14382340,6959690 C 14382340,7036430 14336430,7083840 14265130,7083840 C 14193830,7083840 14148500,7036430 14148500,6959690 L 14148500,5296210 C 14148500,5219470 14193830,5172060 14265130,5172060 C 14336430,5172060 14382340,5219470 14382340,5296210 L 14382340,6959690 z M 13701130,5647270 C 13629820,5647270 13584500,5694900 13584500,5771480 L 13584500,5876640 C 13498100,5734570 13357960,5646900 13184530,5646900 C 12828560,5646900 12583790,5943250 12583790,6365550 C 12583790,6788130 12828560,7084420 13184530,7084420 C 13357960,7084420 13498100,6996750 13584500,6854740 L 13584500,6959690 C 13584500,7036430 13629820,7083840 13701130,7083840 C 13772430,7083840 13818340,7036430 13818340,6959690 L 13818340,5771480 C 13818340,5694900 13772430,5647270 13701130,5647270 z M 13202770,6880660 C 12974950,6880660 12818590,6681470 12818590,6365550 C 12818590,6049690 12974950,5850670 13202770,5850670 C 13430590,5850670 13586740,6049690 13586740,6365550 C 13586740,6681470 13430590,6880660 13202770,6880660 z "
   style="fill:black;fill-opacity:1"
   id="_107412376" />

  </g>

 </g>
  </g>
</svg>
