<?xml version="1.0"?>
<svg width="156.29614" height="75.769226" xmlns="http://www.w3.org/2000/svg" xmlns:svg="http://www.w3.org/2000/svg" version="1.1">
 <metadata id="metadata3009">image/svg+xml</metadata>

 <g class="layer">
  <title>Layer 1</title>
  <g id="layer1">
   <rect display="inline" fill="#ffffff" fill-rule="evenodd" height="74.77" id="rect3943" rx="5.52" ry="5.29" stroke="#000000" stroke-dashoffset="0" stroke-linecap="round" stroke-linejoin="round" stroke-miterlimit="4" width="155.3" x="0.5" y="0.5"/>
   <rect display="inline" fill="#00a600" fill-rule="evenodd" height="70.7" id="rect4455" rx="3.59" ry="3.39" width="150.97" x="2.77" y="2.62"/>
   <g fill="#ffffff" font-family="Drogowskaz" font-size="10px" font-style="normal" font-weight="normal" id="text4457" text-anchor="start">
    <path d="m26.35,58.56l7.06,0l0,-29.24l12.09,21.17l12.1,-21.17l0.5,29.24l6.55,0l0,-40.32l-8.06,0l-11.09,18.64l-11.09,-18.64l-8.06,0l0,40.32z" fill="#ffffff" id="path2864"/>
    <path d="m126.01,16.85c-5.27,0.21 -9.11,2.46 -11.53,6.75c-2.43,4.28 -3.63,9.3 -3.59,15.06c0.05,6.33 1.33,11.19 3.84,14.56c2.51,3.37 5.93,5.07 10.27,5.1c3.39,-0.11 6.31,-1.53 8.75,-4.28c2.45,-2.76 3.73,-6.2 3.85,-10.34c-0.08,-3.16 -0.77,-5.6 -2.07,-7.33c-1.31,-1.73 -2.79,-2.93 -4.43,-3.59c-1.64,-0.67 -3,-0.99 -4.09,-0.96c-1.78,0.06 -3.5,0.53 -5.15,1.41c-1.66,0.88 -3.1,1.85 -4.35,2.91c-0.05,-0.16 0.1,-1.34 0.45,-3.52c0.35,-2.19 1.2,-4.37 2.56,-6.56c1.35,-2.18 3.52,-3.36 6.49,-3.52c2.34,0.08 4.34,0.43 5.99,1.04c1.65,0.61 2.51,0.96 2.58,1.04l-1.01,-6.12c-0.1,-0.07 -1.03,-0.34 -2.77,-0.82c-1.74,-0.49 -3.67,-0.76 -5.79,-0.83zm0,20.81c1.09,0 2.18,0.5 3.27,1.51c1.09,1.01 1.68,2.52 1.77,4.53c-0.02,1.88 -0.62,3.67 -1.82,5.36c-1.2,1.69 -2.92,2.59 -5.17,2.71c-1.53,-0.11 -2.76,-0.9 -3.71,-2.35c-0.94,-1.46 -1.63,-2.92 -2.06,-4.37c-0.43,-1.46 -0.64,-2.24 -0.64,-2.35c0.13,-0.21 1.08,-1.05 2.86,-2.52c1.77,-1.47 3.6,-2.31 5.5,-2.52z" fill="#ffffff" id="path3296"/>
   </g>
   <path d="m76.99,20.76l2.67,5.97c1.38,-1.21 2.72,-2.09 4.03,-2.64c1.31,-0.55 2.94,-0.82 4.9,-0.81c1.31,0.03 2.46,0.47 3.46,1.32c1,0.85 1.52,1.92 1.58,3.21c-0.07,1.58 -0.95,3.09 -2.65,4.54c-1.7,1.45 -3.84,2.46 -6.43,3.02l0,5.55c0.52,-0.24 1.08,-0.39 1.69,-0.44c0.61,-0.06 1.22,-0.08 1.84,-0.07c3.17,0.14 5.17,0.91 6.02,2.31c0.85,1.39 1.22,2.59 1.11,3.6c-0.11,2.32 -0.99,4.02 -2.65,5.1c-1.65,1.07 -3.65,1.61 -5.99,1.59c-1.72,0.01 -3.52,-0.15 -5.4,-0.49c-1.88,-0.34 -3.46,-0.92 -4.75,-1.74l0.86,7.06c0.18,0.07 1.39,0.36 3.64,0.86c2.25,0.5 4.47,0.79 6.66,0.86c4.81,-0.16 8.47,-1.59 11,-4.28c2.54,-2.69 3.81,-5.63 3.83,-8.82c-0.07,-2.18 -0.73,-3.98 -1.98,-5.41c-1.24,-1.43 -2.63,-2.53 -4.15,-3.29c-1.53,-0.76 -2.75,-1.22 -3.66,-1.38c2.1,-0.29 3.95,-1.34 5.54,-3.15c1.6,-1.81 2.44,-4.12 2.52,-6.93c-0.13,-2.81 -1.3,-5.02 -3.51,-6.65c-2.2,-1.63 -4.63,-2.46 -7.29,-2.49c-2.14,0.05 -4.48,0.46 -7.01,1.23c-2.53,0.77 -4.49,1.56 -5.88,2.37z" fill="#ffffff" id="path2868-7"/>
  </g>
 </g>
</svg>