<?xml version="1.0" encoding="UTF-8" standalone="no"?>
<svg
   xmlns:dc="http://purl.org/dc/elements/1.1/"
   xmlns:cc="http://creativecommons.org/ns#"
   xmlns:rdf="http://www.w3.org/1999/02/22-rdf-syntax-ns#"
   xmlns:svg="http://www.w3.org/2000/svg"
   xmlns="http://www.w3.org/2000/svg"
   xmlns:sodipodi="http://sodipodi.sourceforge.net/DTD/sodipodi-0.dtd"
   xmlns:inkscape="http://www.inkscape.org/namespaces/inkscape"
   width="35.430649mm"
   height="41.978386mm"
   viewBox="0 0 35.430652 41.978384"
   version="1.1"
   id="svg13642"
   inkscape:version="1.0 (4035a4fb49, 2020-05-01)"
   sodipodi:docname="Moldova_road_sign_5.78.3.svg">
  <defs
     id="defs13636">
    <clipPath
       id="clip12">
      <path
         id="path1330"
         d="m 72,189 h 455 v 84.83984 H 72 Z m 0,0" />
    </clipPath>
    <pattern
       id="EMFhbasepattern"
       patternUnits="userSpaceOnUse"
       width="6"
       height="6"
       x="0"
       y="0" />
    <pattern
       id="EMFhbasepattern-8"
       patternUnits="userSpaceOnUse"
       width="6"
       height="6"
       x="0"
       y="0" />
    <pattern
       id="EMFhbasepattern-3"
       patternUnits="userSpaceOnUse"
       width="6"
       height="6"
       x="0"
       y="0" />
  </defs>
  <sodipodi:namedview
     id="base"
     pagecolor="#ffffff"
     bordercolor="#666666"
     borderopacity="1.0"
     inkscape:pageopacity="0.0"
     inkscape:pageshadow="2"
     inkscape:zoom="1.4"
     inkscape:cx="208.79079"
     inkscape:cy="-183.17047"
     inkscape:document-units="mm"
     inkscape:current-layer="text3990"
     inkscape:document-rotation="0"
     showgrid="false"
     inkscape:window-width="1920"
     inkscape:window-height="1001"
     inkscape:window-x="-9"
     inkscape:window-y="-9"
     inkscape:window-maximized="1" />
  <metadata
     id="metadata13639">
    <rdf:RDF>
      <cc:Work
         rdf:about="">
        <dc:format>image/svg+xml</dc:format>
        <dc:type
           rdf:resource="http://purl.org/dc/dcmitype/StillImage" />
        <dc:title></dc:title>
      </cc:Work>
    </rdf:RDF>
  </metadata>
  <g
     inkscape:label="Layer 1"
     inkscape:groupmode="layer"
     id="layer1"
     transform="translate(-266.82111,-129.86131)">
    <g
       aria-label="Mănăstirea Căpriana"
       id="text14858"
       style="font-size:4.69407px;line-height:92.02%;font-family:'Russian Road Sign';-inkscape-font-specification:'Russian Road Sign';text-align:center;text-anchor:middle;stroke-width:0.264583" />
    <g
       inkscape:groupmode="layer"
       style="font-size:2.58894px;line-height:89.02%;font-family:'Russian Road Sign';-inkscape-font-specification:'Russian Road Sign';text-align:center;letter-spacing:-0.119062px;text-anchor:middle;stroke-width:0.264583"
       id="text14866"
       aria-label="Mănăstirea
Căpriana" />
    <g
       inkscape:groupmode="layer"
       style="font-size:2.58894px;line-height:72.17%;font-family:'Russian Road Sign';-inkscape-font-specification:'Russian Road Sign';text-align:center;letter-spacing:-0.119062px;text-anchor:middle;stroke-width:0.264583"
       id="text2082"
       aria-label="Monumentul
Bataliei
de la Cahul">
      <g
         inkscape:groupmode="layer"
         style="opacity:1"
         transform="scale(1,-1)"
         id="g2289" />
      <g
         style="font-size:5.34378px;line-height:86.02%;font-family:'Russian Road Sign';-inkscape-font-specification:'Russian Road Sign';text-align:center;letter-spacing:-0.463019px;text-anchor:middle;opacity:1;stroke-width:0.0700042"
         id="text3990"
         aria-label="Vatra
10 km">
        <path
           style="color:#000000;font-style:normal;font-variant:normal;font-weight:normal;font-stretch:normal;font-size:medium;line-height:72.17%;font-family:'Russian Road Sign';-inkscape-font-specification:'Russian Road Sign';font-variant-ligatures:normal;font-variant-position:normal;font-variant-caps:normal;font-variant-numeric:normal;font-variant-alternates:normal;font-variant-east-asian:normal;font-feature-settings:normal;font-variation-settings:normal;text-indent:0;text-align:start;text-decoration:none;text-decoration-line:none;text-decoration-style:solid;text-decoration-color:#000000;letter-spacing:-0.119062px;word-spacing:normal;text-transform:none;writing-mode:lr-tb;direction:ltr;text-orientation:mixed;dominant-baseline:auto;baseline-shift:baseline;text-anchor:start;white-space:normal;shape-padding:0;shape-margin:0;inline-size:0;clip-rule:nonzero;display:inline;overflow:visible;visibility:visible;opacity:1;isolation:auto;mix-blend-mode:normal;color-interpolation:sRGB;color-interpolation-filters:linearRGB;solid-color:#000000;solid-opacity:1;vector-effect:none;fill-opacity:1;fill-rule:evenodd;stroke:none;stroke-width:0.0529167;stroke-linecap:square;stroke-linejoin:round;stroke-miterlimit:4;stroke-dasharray:none;stroke-dashoffset:0;stroke-opacity:1;paint-order:stroke fill markers;color-rendering:auto;image-rendering:auto;shape-rendering:auto;text-rendering:auto;enable-background:accumulate;stop-color:#000000;stop-opacity:1"
           d="m 266.95995,171.72602 a 0.026461,0.026461 0 0 1 -0.0254,-0.0254 v -6.93164 a 0.026461,0.026461 0 0 1 0.0254,-0.0254 h 18.43554 a 0.026461,0.026461 0 0 1 0.0274,0.0254 v 6.93164 a 0.026461,0.026461 0 0 1 -0.0274,0.0254 z m 0.0273,-0.0527 h 18.38281 v -6.87695 h -18.38277 z"
           id="path3844" />
        <path
           style="color:#000000;font-style:normal;font-variant:normal;font-weight:normal;font-stretch:normal;font-size:medium;line-height:72.17%;font-family:'Russian Road Sign';-inkscape-font-specification:'Russian Road Sign';font-variant-ligatures:normal;font-variant-position:normal;font-variant-caps:normal;font-variant-numeric:normal;font-variant-alternates:normal;font-variant-east-asian:normal;font-feature-settings:normal;font-variation-settings:normal;text-indent:0;text-align:start;text-decoration:none;text-decoration-line:none;text-decoration-style:solid;text-decoration-color:#000000;letter-spacing:-0.119062px;word-spacing:normal;text-transform:none;writing-mode:lr-tb;direction:ltr;text-orientation:mixed;dominant-baseline:auto;baseline-shift:baseline;text-anchor:start;white-space:normal;shape-padding:0;shape-margin:0;inline-size:0;clip-rule:nonzero;display:inline;overflow:visible;visibility:visible;opacity:1;isolation:auto;mix-blend-mode:normal;color-interpolation:sRGB;color-interpolation-filters:linearRGB;solid-color:#000000;solid-opacity:1;vector-effect:none;fill:#fff700;fill-opacity:1;fill-rule:evenodd;stroke:#333333;stroke-width:0.279167;stroke-linecap:square;stroke-linejoin:round;stroke-miterlimit:4;stroke-dasharray:none;stroke-dashoffset:0;stroke-opacity:1;paint-order:stroke fill markers;color-rendering:auto;image-rendering:auto;shape-rendering:auto;text-rendering:auto;enable-background:accumulate;stop-color:#000000;stop-opacity:1"
           d="m 266.96069,171.70011 h 18.43568 v -6.93015 h -18.43568 z"
           id="path3846" />
        <path
           id="path3848"
           d="m 288.12675,171.72602 c -0.0138,-5.3e-4 -0.0249,-0.0116 -0.0254,-0.0254 v -6.93164 c 5.3e-4,-0.0138 0.0116,-0.0249 0.0254,-0.0254 h 13.98457 c 0.0146,-5.3e-4 0.0268,0.0108 0.0274,0.0254 v 6.93164 c -5.3e-4,0.0146 -0.0128,0.0259 -0.0274,0.0254 z m 0.0273,-0.0527 h 13.93184 v -6.87695 h -13.9318 z"
           style="color:#000000;font-style:normal;font-variant:normal;font-weight:normal;font-stretch:normal;font-size:medium;line-height:72.17%;font-family:'Russian Road Sign';-inkscape-font-specification:'Russian Road Sign';font-variant-ligatures:normal;font-variant-position:normal;font-variant-caps:normal;font-variant-numeric:normal;font-variant-alternates:normal;font-variant-east-asian:normal;font-feature-settings:normal;font-variation-settings:normal;text-indent:0;text-align:start;text-decoration:none;text-decoration-line:none;text-decoration-style:solid;text-decoration-color:#000000;letter-spacing:-0.119062px;word-spacing:normal;text-transform:none;writing-mode:lr-tb;direction:ltr;text-orientation:mixed;dominant-baseline:auto;baseline-shift:baseline;text-anchor:start;white-space:normal;shape-padding:0;shape-margin:0;inline-size:0;clip-rule:nonzero;display:inline;overflow:visible;visibility:visible;opacity:1;isolation:auto;mix-blend-mode:normal;color-interpolation:sRGB;color-interpolation-filters:linearRGB;solid-color:#000000;solid-opacity:1;vector-effect:none;fill-opacity:1;fill-rule:evenodd;stroke:none;stroke-width:0.0529167;stroke-linecap:square;stroke-linejoin:round;stroke-miterlimit:4;stroke-dasharray:none;stroke-dashoffset:0;stroke-opacity:1;paint-order:stroke fill markers;color-rendering:auto;image-rendering:auto;shape-rendering:auto;text-rendering:auto;enable-background:accumulate;stop-color:#000000;stop-opacity:1"
           sodipodi:nodetypes="cccccccccccccc" />
        <path
           id="path3850"
           d="m 288.12749,171.70011 h 13.98468 v -6.93015 h -13.98468 z"
           style="color:#000000;font-style:normal;font-variant:normal;font-weight:normal;font-stretch:normal;font-size:medium;line-height:72.17%;font-family:'Russian Road Sign';-inkscape-font-specification:'Russian Road Sign';font-variant-ligatures:normal;font-variant-position:normal;font-variant-caps:normal;font-variant-numeric:normal;font-variant-alternates:normal;font-variant-east-asian:normal;font-feature-settings:normal;font-variation-settings:normal;text-indent:0;text-align:start;text-decoration:none;text-decoration-line:none;text-decoration-style:solid;text-decoration-color:#000000;letter-spacing:-0.119062px;word-spacing:normal;text-transform:none;writing-mode:lr-tb;direction:ltr;text-orientation:mixed;dominant-baseline:auto;baseline-shift:baseline;text-anchor:start;white-space:normal;shape-padding:0;shape-margin:0;inline-size:0;clip-rule:nonzero;display:inline;overflow:visible;visibility:visible;opacity:1;isolation:auto;mix-blend-mode:normal;color-interpolation:sRGB;color-interpolation-filters:linearRGB;solid-color:#000000;solid-opacity:1;vector-effect:none;fill:#fff700;fill-opacity:1;fill-rule:evenodd;stroke:#333333;stroke-width:0.279167;stroke-linecap:square;stroke-linejoin:round;stroke-miterlimit:4;stroke-dasharray:none;stroke-dashoffset:0;stroke-opacity:1;paint-order:stroke fill markers;color-rendering:auto;image-rendering:auto;shape-rendering:auto;text-rendering:auto;enable-background:accumulate;stop-color:#000000;stop-opacity:1"
           sodipodi:nodetypes="ccccc" />
        <path
           id="path3852"
           style="font-size:2.58894px;line-height:72.17%;font-family:'Russian Road Sign';-inkscape-font-specification:'Russian Road Sign';text-align:center;letter-spacing:-0.119062px;text-anchor:middle;opacity:1;fill:#fff700;fill-opacity:1;fill-rule:evenodd;stroke:#333333;stroke-width:0.279167;stroke-linecap:square;stroke-linejoin:round;stroke-miterlimit:4;stroke-dasharray:none;stroke-opacity:1;paint-order:stroke fill markers"
           d="m 268.1607,162.61832 -3.5e-4,-24.60516 c -6e-5,-4.43892 3.57358,-8.01227 8.0125,-8.01227 h 0.149 c 4.43893,0 8.0125,3.57335 8.0125,8.01227 l 3.5e-4,24.60516 z"
           sodipodi:nodetypes="csssscc" />
        <path
           id="path3854"
           style="font-size:2.58894px;line-height:72.17%;font-family:'Russian Road Sign';-inkscape-font-specification:'Russian Road Sign';text-align:center;letter-spacing:-0.119062px;text-anchor:middle;opacity:1;fill:#fff700;fill-opacity:1;fill-rule:evenodd;stroke:#333333;stroke-width:0.279167;stroke-linecap:square;stroke-linejoin:round;stroke-miterlimit:4;stroke-dasharray:none;stroke-opacity:1;paint-order:stroke fill markers"
           d="m 284.3347,162.61832 h -16.17399 l -1.20001,2.15164 h 18.43567 z"
           sodipodi:nodetypes="ccccc" />
        <path
           id="path3856"
           style="font-size:2.58894px;line-height:72.17%;font-family:'Russian Road Sign';-inkscape-font-specification:'Russian Road Sign';text-align:center;letter-spacing:-0.119062px;text-anchor:middle;opacity:1;fill:#ffffff;fill-rule:evenodd;stroke-width:0.0529167;stroke-linecap:square;stroke-linejoin:round;paint-order:stroke fill markers"
           d="m 268.1687,137.98409 h 16.1609 v 24.09598 h -16.1609 z"
           sodipodi:nodetypes="ccccc" />
        <path
           id="path3858"
           style="font-size:2.58894px;line-height:72.17%;font-family:'Russian Road Sign';-inkscape-font-specification:'Russian Road Sign';text-align:center;letter-spacing:-0.119062px;text-anchor:middle;opacity:1;fill:#000000;fill-rule:evenodd;stroke-width:0.0529167;stroke-linecap:square;stroke-linejoin:round;paint-order:stroke fill markers"
           d="m 268.1687,137.98412 h 16.1609 v -0.414 h -16.1609 z"
           sodipodi:nodetypes="ccccc" />
        <path
           id="path3860"
           style="font-size:2.58894px;line-height:72.17%;font-family:'Russian Road Sign';-inkscape-font-specification:'Russian Road Sign';text-align:center;letter-spacing:-0.119062px;text-anchor:middle;opacity:1;fill:#000000;fill-rule:evenodd;stroke-width:0.0529167;stroke-linecap:square;stroke-linejoin:round;paint-order:stroke fill markers"
           d="m 268.1687,162.49407 h 16.1609 v -0.414 h -16.1609 z"
           sodipodi:nodetypes="ccccc" />
        <path
           sodipodi:nodetypes="ccccc"
           d="m 289.3275,162.61832 -3.1e-4,-32.52943 h 11.72302 l 2.7e-4,32.52943 z"
           style="font-size:2.58894px;line-height:72.17%;font-family:'Russian Road Sign';-inkscape-font-specification:'Russian Road Sign';text-align:center;letter-spacing:-0.119062px;text-anchor:middle;opacity:1;fill:#fff700;fill-opacity:1;fill-rule:evenodd;stroke:#333333;stroke-width:0.279167;stroke-linecap:square;stroke-linejoin:round;stroke-miterlimit:4;stroke-dasharray:none;stroke-opacity:1;paint-order:stroke fill markers"
           id="path3862" />
        <path
           sodipodi:nodetypes="ccccc"
           d="m 301.0505,162.61832 h -11.72299 l -1.20001,2.15164 h 13.98467 z"
           style="font-size:2.58894px;line-height:72.17%;font-family:'Russian Road Sign';-inkscape-font-specification:'Russian Road Sign';text-align:center;letter-spacing:-0.119062px;text-anchor:middle;opacity:1;fill:#fff700;fill-opacity:1;fill-rule:evenodd;stroke:#333333;stroke-width:0.279167;stroke-linecap:square;stroke-linejoin:round;stroke-miterlimit:4;stroke-dasharray:none;stroke-opacity:1;paint-order:stroke fill markers"
           id="path3864" />
        <path
           id="path3866"
           style="font-size:2.58894px;line-height:72.17%;font-family:'Russian Road Sign';-inkscape-font-specification:'Russian Road Sign';text-align:center;letter-spacing:-0.119062px;text-anchor:middle;opacity:1;fill:#ffffff;fill-rule:evenodd;stroke-width:0.0529167;stroke-linecap:square;stroke-linejoin:round;paint-order:stroke fill markers"
           d="m 289.3437,137.98409 h 11.689 v 24.09598 h -11.689 z"
           sodipodi:nodetypes="ccccc" />
        <path
           id="path3868"
           style="font-size:2.58894px;line-height:72.17%;font-family:'Russian Road Sign';-inkscape-font-specification:'Russian Road Sign';text-align:center;letter-spacing:-0.119062px;text-anchor:middle;opacity:1;fill:#000000;fill-rule:evenodd;stroke-width:0.0529167;stroke-linecap:square;stroke-linejoin:round;paint-order:stroke fill markers"
           d="m 289.3437,137.98412 h 11.689 v -0.414 h -11.689 z"
           sodipodi:nodetypes="ccccc" />
        <path
           id="path3870"
           style="font-size:2.58894px;line-height:72.17%;font-family:'Russian Road Sign';-inkscape-font-specification:'Russian Road Sign';text-align:center;letter-spacing:-0.119062px;text-anchor:middle;opacity:1;fill:#000000;fill-rule:evenodd;stroke-width:0.0529167;stroke-linecap:square;stroke-linejoin:round;paint-order:stroke fill markers"
           d="m 289.3437,162.49407 h 11.689 v -0.414 h -11.689 z"
           sodipodi:nodetypes="ccccc" />
        <g
           aria-label="72"
           id="text3887"
           style="font-size:8.39924px;line-height:97.02%;font-family:'Russian Road Sign';-inkscape-font-specification:'Russian Road Sign';text-align:center;letter-spacing:-0.809625px;text-anchor:middle;opacity:1;stroke-width:0.0700042"
           transform="translate(19.628485,45.534614)">
          <path
             d="m 253.42953,87.019474 h 2.1754 c -0.64674,1.058304 -1.35227,2.528171 -1.58745,3.939243 h 0.88192 c 0.35277,-1.705045 0.94071,-2.939733 1.52866,-4.115627 v -0.587947 h -2.82214 z"
             style="stroke-width:0.0700042"
             id="path4182" />
          <path
             d="m 256.56939,86.901885 0.47035,0.529152 c 0.29398,-0.293974 0.58795,-0.613145 0.94072,-0.613145 0.41156,0 0.68034,0.319171 0.68034,0.613145 0,0.470357 -0.20998,0.705536 -0.49556,1.041505 -0.52915,0.629943 -1.0667,1.192692 -1.71344,1.780639 v 0.705536 h 2.82214 c 0.11759,-0.293973 0.17639,-0.587946 0.17639,-0.76433 h -1.94023 c 0.60475,-0.638343 1.1591,-1.150696 1.52866,-1.621054 0.30238,-0.369566 0.41157,-0.554349 0.41157,-1.142296 0,-0.705536 -0.70554,-1.234688 -1.35228,-1.234688 -0.70554,0 -1.1759,0.302372 -1.52866,0.705536 z"
             style="stroke-width:0.0700042"
             id="path4184" />
        </g>
        <path
           id="path4032"
           style="font-size:5.34378px;line-height:89.02%;font-family:'Russian Road Sign';-inkscape-font-specification:'Russian Road Sign';text-align:center;letter-spacing:-0.632354px;text-anchor:middle;opacity:1;stroke-width:0.0700042"
           d="m 280.94455,140.26901 c -0.18169,0 -0.32607,0.14973 -0.32607,0.32607 0,0.18169 0.14438,0.32608 0.32607,0.32608 0.17634,0 0.32608,-0.14439 0.32608,-0.32608 0,-0.17634 -0.14974,-0.32607 -0.32608,-0.32607 z m -11.57862,0.11782 v 2.99258 h 1.87017 v -0.44907 h -1.34669 v -2.54351 z m 8.65219,0 -0.44907,0.18707 v 0.71055 h -0.29921 v 0.41134 h 0.29921 v 1.19734 c 0,0.37407 0.29393,0.52349 0.67334,0.52349 0.0748,0 0.33685,-0.0375 0.44907,-0.0749 l -0.091,-0.41135 c -0.0588,0.0374 -0.19784,0.0801 -0.31006,0.0801 -0.005,0 -0.0109,1.4e-4 -0.0109,-0.005 -0.11222,0 -0.26148,-0.0746 -0.26148,-0.22427 v -1.08521 h 0.59841 v -0.41134 h -0.59841 z m -5.73144,0.82269 c -0.56108,0 -0.97255,0.44909 -0.97255,1.12241 0,0.67332 0.41147,1.12241 0.97255,1.12241 0.5611,0 0.97256,-0.44909 0.97256,-1.12241 0,-0.67332 -0.41146,-1.12241 -0.97256,-1.12241 z m 2.13527,0 c -0.37407,0 -0.52399,0.2992 -0.52399,0.2992 -0.0321,-0.0588 -0.0589,-0.13343 -0.0749,-0.22427 h -0.37363 v 2.99258 h 0.44856 v -1.08469 c 0,0.0374 0.22474,0.262 0.52399,0.262 0.22444,0 0.93483,-0.18725 0.93483,-1.12241 0,-0.89776 -0.56077,-1.12241 -0.93483,-1.12241 z m 1.86862,0 c -0.37406,0 -0.67285,0.14978 -0.85989,0.262 l 0.22427,0.36328 c 0.11222,-0.10153 0.33677,-0.25115 0.56121,-0.25115 0.26184,0 0.44855,0.18731 0.44855,0.33693 v 0.11214 c -0.29926,0.0748 -1.27176,0.0429 -1.27176,0.74828 0,0.44887 0.3741,0.67334 0.67335,0.67334 0.29925,0 0.52359,-0.1873 0.59841,-0.33693 0.0374,0.29925 0.18723,0.33693 0.44907,0.33693 l 0.18707,-0.37414 c -0.0748,0 -0.18707,-3e-5 -0.18707,-0.18707 v -0.93534 c 0,-0.37406 -0.33692,-0.74827 -0.82321,-0.74827 z m 6.0415,0 c -0.56109,0 -1.01028,0.44909 -1.01028,1.12241 0,0.67332 0.44919,1.12241 1.01028,1.12241 0.41681,0 0.75334,-0.23535 0.89762,-0.63614 l -0.4222,-0.16019 c -0.0802,0.27253 -0.25098,0.42219 -0.47542,0.42219 -0.29925,0 -0.524,-0.29939 -0.524,-0.74827 0,-0.44888 0.22475,-0.74828 0.524,-0.74828 0.22444,0 0.39526,0.14967 0.47542,0.4222 l 0.4222,-0.1602 c -0.14428,-0.40078 -0.48081,-0.63613 -0.89762,-0.63613 z m -2.36213,0.0377 c -0.37406,0 -0.62529,0.28318 -0.62529,0.28318 -0.0374,-0.0534 -0.0589,-0.14979 -0.0749,-0.24598 h -0.38447 v 2.09497 h 0.44855 v -1.34669 c 0.11222,-0.22444 0.30491,-0.41135 0.524,-0.41135 0.22444,0 0.2992,0.18699 0.2992,0.29921 v 1.45883 h 0.44856 v -1.49655 c 0,-0.37407 -0.22415,-0.63562 -0.63562,-0.63562 z m 0.75034,0.0372 v 2.09496 h 0.44855 v -2.09496 z m -8.4336,0.2992 c 0.29925,0 0.52349,0.2994 0.52349,0.74828 0,0.44888 -0.22424,0.74827 -0.52349,0.74827 -0.29924,0 -0.52399,-0.29939 -0.52399,-0.74827 0,-0.44888 0.22475,-0.74828 0.52399,-0.74828 z m 2.13527,0.0377 c 0.26184,0 0.48628,0.26168 0.48628,0.71056 0,0.44887 -0.22444,0.74827 -0.48628,0.74827 -0.19238,0 -0.41178,-0.11218 -0.52399,-0.29921 v -0.786 c 0.11221,-0.22444 0.31024,-0.37362 0.52399,-0.37362 z m 2.24276,0.74776 v 0.37414 c 0,0.0374 -0.26183,0.33693 -0.48627,0.33693 -0.0748,0 -0.29921,-0.0751 -0.29921,-0.33693 0,-0.33666 0.59844,-0.29933 0.78548,-0.37414 z m -4.33514,2.7373 c -0.44887,0 -0.74811,0.19257 -0.97255,0.44907 l 0.29921,0.33641 c 0.18703,-0.18703 0.37449,-0.39015 0.59893,-0.39015 0.26184,0 0.43253,0.20312 0.43253,0.39015 0,0.29926 -0.13353,0.44875 -0.31522,0.6625 -0.33666,0.40079 -0.67839,0.75919 -1.08986,1.13326 v 0.44855 h 1.79524 c 0.0748,-0.18703 0.11214,-0.37405 0.11214,-0.48627 h -1.23404 c 0.38476,-0.40613 0.73743,-0.73222 0.97256,-1.03147 0.19237,-0.23513 0.26148,-0.3525 0.26148,-0.72657 0,-0.44887 -0.44894,-0.78548 -0.86042,-0.78548 z m 2.32441,0.0372 -1.45882,1.9451 v 0.44907 h 1.4211 v 0.59841 h 0.524 v -0.59841 h 0.20309 l 0.17053,-0.44907 h -0.41135 v -1.9451 z m 1.77147,0 v 2.99258 h 0.44907 v -1.11672 l 0.6997,1.11672 h 0.5612 l -0.73742,-1.10587 0.7214,-0.98857 h -0.55035 l -0.69453,0.95084 v -1.84898 z m -1.80919,0.78548 v 1.15962 h -0.86041 z m 4.6855,0.0749 c -0.37407,0 -0.58756,0.28319 -0.58756,0.28319 -0.0374,-0.0534 -0.0589,-0.14927 -0.0749,-0.24546 h -0.38499 v 2.09444 h 0.44907 v -1.34669 c 0.11222,-0.22444 0.26717,-0.41134 0.48627,-0.41134 0.22444,0 0.262,0.18699 0.262,0.29921 v 1.45882 h 0.44855 v -1.34669 c 0.11222,-0.22444 0.26718,-0.41134 0.48628,-0.41134 0.22444,0 0.262,0.18699 0.262,0.29921 v 1.45882 h 0.44907 v -1.49603 c 0,-0.37406 -0.18746,-0.63614 -0.59894,-0.63614 -0.27787,0 -0.5608,0.1497 -0.63561,0.37414 -0.0748,-0.22444 -0.27265,-0.37414 -0.56121,-0.37414 z m -6.89932,6.02547 c -0.17224,0 -0.30902,0.14185 -0.30902,0.30903 0,0.17226 0.13678,0.30902 0.30902,0.30902 0.16719,0 0.30902,-0.13676 0.30902,-0.30902 0,-0.16718 -0.14183,-0.30903 -0.30902,-0.30903 z m 0.70022,0 c -0.17225,0 -0.30903,0.14185 -0.30903,0.30903 0,0.17226 0.13678,0.30902 0.30903,0.30902 0.16719,0 0.30902,-0.13676 0.30902,-0.30902 0,-0.16718 -0.14183,-0.30903 -0.30902,-0.30903 z m -3.44527,0.11162 0.81545,2.83704 h 0.63872 l 0.78032,-2.83704 h -0.53227 l -0.56741,2.12752 -0.5674,-2.12752 z m 4.85913,0.67438 c -0.513,0 -0.82269,0.36324 -0.82269,0.66249 0,0.22444 0.0907,0.51824 0.67852,0.61443 0.4275,0.0695 0.4811,0.17097 0.4811,0.28319 0,0.14962 -0.1871,0.27802 -0.37414,0.27802 -0.25649,0 -0.52393,-0.20321 -0.60409,-0.27802 l -0.29352,0.29921 c 0,0 0.33632,0.35295 0.93482,0.35295 0.49697,0 0.82321,-0.39012 0.82321,-0.68937 0,-0.33131 -0.17655,-0.48669 -0.66818,-0.61495 -0.26185,-0.0695 -0.51263,-0.0962 -0.51263,-0.28318 0,-0.10687 0.13349,-0.2403 0.39533,-0.2403 0.18704,0 0.42179,0.13912 0.49661,0.21394 l 0.26199,-0.2992 c 0,0 -0.29936,-0.29921 -0.79633,-0.29921 z m 1.91306,0.10542 c -0.53196,0 -0.92242,0.42566 -0.92242,1.06402 0,0.63835 0.39046,1.06401 0.92242,1.06401 0.53197,0 0.92191,-0.42566 0.92191,-1.06401 0,-0.63836 -0.38994,-1.06402 -0.92191,-1.06402 z m 1.9048,0 c -0.35464,0 -0.63813,0.14216 -0.81546,0.24856 l 0.21291,0.34417 c 0.10639,-0.0963 0.31897,-0.23771 0.53175,-0.23771 0.24825,0 0.42581,0.17698 0.42581,0.31884 v 0.10645 c -0.28372,0.0709 -1.20612,0.0407 -1.20612,0.70952 0,0.42556 0.35501,0.6382 0.63872,0.6382 0.28372,0 0.49646,-0.1775 0.5674,-0.31936 0.0355,0.28372 0.17706,0.31936 0.4253,0.31936 l 0.17725,-0.3545 c -0.0709,0 -0.17725,7e-5 -0.17725,-0.17725 v -0.88676 c 0,-0.35464 -0.31927,-0.70952 -0.78031,-0.70952 z m 3.41839,0 c -0.35464,0 -0.63864,0.14216 -0.81597,0.24856 l 0.21291,0.34417 c 0.10639,-0.0963 0.31897,-0.23771 0.53175,-0.23771 0.24826,0 0.42581,0.17698 0.42581,0.31884 v 0.10645 c -0.28371,0.0709 -1.20612,0.0407 -1.20612,0.70952 0,0.42556 0.35501,0.6382 0.63872,0.6382 0.28373,0 0.49647,-0.1775 0.5674,-0.31936 0.0355,0.28372 0.17705,0.31936 0.4253,0.31936 l 0.17725,-0.3545 c -0.0709,0 -0.17725,7e-5 -0.17725,-0.17725 v -0.88676 c 0,-0.35464 -0.31876,-0.70952 -0.7798,-0.70952 z m -1.26865,0.0357 c -0.35464,0 -0.55708,0.26871 -0.55708,0.26871 -0.0355,-0.0506 -0.0556,-0.14187 -0.0708,-0.23306 h -0.36484 v 1.98593 h 0.4253 v -1.27693 c 0.10639,-0.21278 0.25376,-0.31936 0.46147,-0.31936 0.1064,0 0.21277,4.3e-4 0.2837,0.0713 l 0.1416,-0.42582 c -0.0963,-0.0659 -0.17699,-0.0708 -0.31885,-0.0708 z m -8.29459,0.0357 v 1.98593 h 0.42582 v -1.98593 z m 0.70022,0 v 1.98593 h 0.42529 v -1.98593 z m 3.53983,0.28371 c 0.28371,0 0.49661,0.28342 0.49661,0.709 0,0.42557 -0.2129,0.70951 -0.49661,0.70951 -0.28371,0 -0.49661,-0.28394 -0.49661,-0.70951 0,-0.42558 0.2129,-0.709 0.49661,-0.709 z m 2.25981,0.74465 v 0.3545 c 0,0.0355 -0.24869,0.31936 -0.46147,0.31936 -0.0709,0 -0.2837,-0.0711 -0.2837,-0.31936 0,-0.31918 0.56784,-0.28356 0.74517,-0.3545 z m 3.41788,0 v 0.3545 c 0,0.0355 -0.24817,0.31936 -0.46095,0.31936 -0.0709,0 -0.2837,-0.0711 -0.2837,-0.31936 0,-0.31918 0.56733,-0.28356 0.74465,-0.3545 z m -7.60108,1.34876 c -0.16566,0 -0.29921,0.13406 -0.29921,0.29972 0,0.16566 0.13355,0.29921 0.29921,0.29921 0.0374,0 0.0801,-0.005 0.11213,-0.0217 v 0.0377 c 0,0.18704 -0.23512,0.33124 -0.23512,0.33124 l 0.0372,0.0904 c 0,0 0.40101,-0.22436 0.40101,-0.59842 0,-0.26185 -0.0858,-0.33656 -0.11782,-0.36328 -0.0534,-0.0428 -0.12259,-0.0749 -0.1974,-0.0749 z m -2.32131,1.34772 v 1.44436 l 0.33331,0.18551 c 0.074,-0.0371 0.22218,-0.2222 0.44442,-0.2222 0.33336,0 0.51883,0.29624 0.51883,0.55552 0,0.37041 -0.3703,0.55552 -0.66662,0.55552 -0.24341,0 -0.52394,-0.0266 -0.70384,-0.14831 l 0.0739,0.48162 c 0,0 0.37046,0.14831 0.70384,0.14831 0.70376,0 1.14824,-0.48171 1.14824,-1.07435 0,-0.59263 -0.48139,-0.92604 -0.88883,-0.92604 -0.16932,0 -0.37051,0.0374 -0.48162,0.18552 v -0.70384 h 1.07435 l 0.14779,-0.48162 z m 2.95589,0 v 2.96313 h 0.44442 v -1.10588 l 0.6935,1.10588 h 0.55552 l -0.73019,-1.09554 0.71417,-0.97876 h -0.54467 l -0.68833,0.94207 v -1.8309 z m 2.87218,0.85163 c -0.37039,0 -0.58239,0.2806 -0.58239,0.2806 -0.0371,-0.0529 -0.0581,-0.14815 -0.0739,-0.2434 h -0.38086 v 2.0743 h 0.44442 v -1.33326 c 0.11112,-0.22223 0.26467,-0.40772 0.48162,-0.40772 0.22224,0 0.25942,0.18551 0.25942,0.29662 v 1.44436 h 0.44442 v -1.33326 c 0.11111,-0.22223 0.26415,-0.40772 0.48111,-0.40772 0.22224,0 0.25941,0.18551 0.25941,0.29662 v 1.44436 h 0.44442 v -1.48157 c 0,-0.37039 -0.18528,-0.62993 -0.59273,-0.62993 -0.27516,0 -0.55534,0.14828 -0.62942,0.37052 -0.074,-0.22224 -0.26978,-0.37052 -0.55552,-0.37052 z" />
        <path
           style="font-size:2.58894px;line-height:72.17%;font-family:'Russian Road Sign';-inkscape-font-specification:'Russian Road Sign';text-align:center;letter-spacing:-0.119062px;text-anchor:middle;opacity:1;fill:#000000;stroke:none;stroke-width:0.0989999;stroke-miterlimit:4;stroke-dasharray:none;stroke-opacity:1"
           fill="#ffffff"
           d="m 295.30445,143.84362 h -5.00194 v 6.07173 c 0,0.73374 0.50295,1.37167 1.2163,1.5429 l 3.78564,1.17262 3.7407,-1.17262 c 0.71334,-0.17123 1.20421,-0.80926 1.21629,-1.5429 v -6.07173 z"
           id="path3366"
           sodipodi:nodetypes="ccscccscc" />
        <path
           style="font-size:2.58894px;line-height:72.17%;font-family:'Russian Road Sign';-inkscape-font-specification:'Russian Road Sign';text-align:center;letter-spacing:-0.119062px;text-anchor:middle;opacity:1;fill:#fff900;fill-opacity:1;stroke-width:0.198438"
           fill="#0a0a7c"
           d="m 295.30445,144.45385 h -4.39171 v 5.4615 c -0.0193,0.41289 0.22346,0.79318 0.60607,0.94952 l 3.78564,1.13844 3.59827,-1.13844 c 0.439,-0.10533 0.74023,-0.49815 0.7485,-0.94952 v -5.4615 z"
           id="path3368"
           sodipodi:nodetypes="ccccccscc" />
        <g
           transform="matrix(0.0858916,0,0,0.08589392,281.43498,131.98879)"
           style="font-style:normal;font-variant:normal;font-weight:500;font-size:72.7667px;line-height:125%;font-family:'Russian Road Sign';-inkscape-font-specification:'Russian Road Sign';text-align:end;letter-spacing:0px;word-spacing:0px;text-anchor:end;opacity:1;fill:#fdfdfd;fill-opacity:1;stroke:none;stroke-width:3.0804"
           id="text1090"
           aria-label="R13">
          <path
             id="path3578"
             style="text-align:end;text-anchor:end;fill:#000000;fill-opacity:1;stroke-width:1"
             d="m 400.73047,62.761719 -2.88086,3.070312 0.7793,1.015625 1.77148,-1.109375 v 10.251953 h 2.31445 V 62.761719 Z m -10.96289,0.109375 c -3.43835,0 -5.29102,2.947483 -5.29102,6.564453 0,3.616932 1.85267,6.5625 5.29102,6.5625 1.20563,0 1.96613,-0.647132 2.50195,-1.40625 l 0.46875,1.09375 h 1.875 v -6.25 h -4.5332 v 1.875 h 2.18945 c 0,1.094022 -0.15593,1.406116 -0.78125,2.03125 -0.46885,0.468888 -0.93928,0.625 -1.7207,0.625 -1.7192,0 -2.96875,-1.718072 -2.96875,-4.53125 0,-2.813216 1.24955,-4.533203 2.96875,-4.533203 1.16099,0 1.96474,0.624627 2.43359,2.1875 l 2.09961,-0.78125 c -0.78145,-2.031723 -2.16658,-3.4375 -4.5332,-3.4375 z"
             transform="matrix(3.0804332,0,0,3.08035,-1052.636,-30.86251)" />
        </g>
      </g>
      <g
         inkscape:groupmode="layer"
         transform="translate(111.24596,0.55103308)"
         style="font-size:5.34378px;line-height:89.02%;font-family:'Russian Road Sign';-inkscape-font-specification:'Russian Road Sign';text-align:center;letter-spacing:-0.632354px;text-anchor:middle;opacity:1;stroke-width:0.0700042"
         id="text3893"
         aria-label="Lopatnic
24 km" />
      <g
         transform="translate(197.30128,-3.4177169)"
         style="font-size:5.90731px;line-height:97.02%;font-family:'Russian Road Sign';-inkscape-font-specification:'Russian Road Sign';text-align:center;text-anchor:middle;opacity:1;stroke-width:0.070004"
         id="text4021"
         aria-label="G" />
      <g
         transform="translate(196.10161,-3.4177169)"
         style="font-size:5.34378px;line-height:0;font-family:'Russian Road Sign';-inkscape-font-specification:'Russian Road Sign';text-align:center;letter-spacing:-0.608542px;text-anchor:middle;opacity:1;stroke-width:0.0700042"
         id="text3899"
         aria-label="Viișoara
5 km" />
    </g>
  </g>
</svg>
