<?xml version="1.0" encoding="UTF-8" standalone="no"?>
<!-- Created with Inkscape (http://www.inkscape.org/) -->

<svg
   xmlns:dc="http://purl.org/dc/elements/1.1/"
   xmlns:cc="http://creativecommons.org/ns#"
   xmlns:rdf="http://www.w3.org/1999/02/22-rdf-syntax-ns#"
   xmlns:svg="http://www.w3.org/2000/svg"
   xmlns="http://www.w3.org/2000/svg"
   xmlns:sodipodi="http://sodipodi.sourceforge.net/DTD/sodipodi-0.dtd"
   xmlns:inkscape="http://www.inkscape.org/namespaces/inkscape"
   width="195mm"
   height="195.00308mm"
   viewBox="0 0 195 195.00308"
   version="1.1"
   id="svg3845"
   inkscape:version="0.92.3 (2405546, 2018-03-11)"
   sodipodi:docname="Latvia_road_sign_334.svg">
  <defs
     id="defs3839" />
  <sodipodi:namedview
     id="base"
     pagecolor="#ffffff"
     bordercolor="#666666"
     borderopacity="1.0"
     inkscape:pageopacity="0.0"
     inkscape:pageshadow="2"
     inkscape:zoom="0.35"
     inkscape:cx="690.27888"
     inkscape:cy="-183.22786"
     inkscape:document-units="mm"
     inkscape:current-layer="layer1"
     showgrid="false"
     inkscape:window-width="1920"
     inkscape:window-height="1027"
     inkscape:window-x="-8"
     inkscape:window-y="-8"
     inkscape:window-maximized="1" />
  <metadata
     id="metadata3842">
    <rdf:RDF>
      <cc:Work
         rdf:about="">
        <dc:format>image/svg+xml</dc:format>
        <dc:type
           rdf:resource="http://purl.org/dc/dcmitype/StillImage" />
        <dc:title></dc:title>
      </cc:Work>
    </rdf:RDF>
  </metadata>
  <g
     inkscape:label="Layer 1"
     inkscape:groupmode="layer"
     id="layer1"
     transform="translate(550.54784,737.07804)">
    <path
       d="m -453.04009,-736.30153 c 53.26234,0 96.71575,43.44724 96.71575,96.72507 0,53.27158 -43.45341,96.72499 -96.71575,96.72499 -53.27774,0 -96.73124,-43.45341 -96.73124,-96.72499 0,-53.27783 43.4535,-96.72507 96.73124,-96.72507 z"
       style="fill:#ffffff;fill-opacity:1;stroke:#211315;stroke-width:1.55301702;stroke-linecap:butt;stroke-linejoin:miter;stroke-miterlimit:22.9260006;stroke-dasharray:none;stroke-opacity:1"
       id="path7407"
       inkscape:connector-curvature="0" />
    <path
       d="m -453.04009,-731.13303 c 50.41716,0 91.55041,41.127 91.55041,91.55657 0,50.4264 -41.13325,91.55965 -91.55041,91.55965 -50.43265,0 -91.5659,-41.13325 -91.5659,-91.55965 0,-50.42957 41.13325,-91.55657 91.5659,-91.55657 z m -0.0528,24.28609 c 37.11707,0 67.37604,30.25898 67.37604,67.37297 0,37.1109 -30.25897,67.37604 -67.37604,67.37604 -37.10783,0 -67.37297,-30.26514 -67.37297,-67.37604 0,-37.11399 30.26514,-67.37297 67.37297,-67.37297"
       style="fill:#ed1a3a;fill-opacity:1;fill-rule:evenodd;stroke:none;stroke-width:3.10603404"
       id="path7401"
       inkscape:connector-curvature="0" />
    <path
       d="M -495.03054,-616.8279 H -483.15 v 3.71479 c 0,3.28312 2.66195,5.9419 5.9419,5.9419 3.28302,0 5.9418,-2.65878 5.9418,-5.9419 v -20.04944 c 0,-3.28303 -2.65878,-5.94181 -5.9418,-5.94181 -2.7147,0 -5.09077,1.84807 -5.75243,4.48818 l -10.58222,-0.0352 v -44.54984 h 34.16016 v 11.1289 H -483.15 v 22.38519 c 5.69651,-5.33615 14.62015,-5.05352 19.95629,0.64273 2.45065,2.60279 3.81112,6.05363 3.81112,9.65661 v 22.27646 c 0,9.8275 -7.97944,17.82243 -17.82551,17.82243 -9.82751,0 -17.82244,-7.99493 -17.82244,-17.82243 v -3.7148"
       style="fill:#000000;fill-opacity:1;fill-rule:evenodd;stroke:none;stroke-width:3.10603404"
       id="path7403"
       inkscape:connector-curvature="0" />
    <path
       d="m -447.50196,-613.11311 v -49.02252 c 0,-9.84608 7.97934,-17.82243 17.82551,-17.82243 9.84608,0 17.80377,7.97635 17.80377,17.82243 v 49.02252 c 0,9.82751 -7.95769,17.82244 -17.80377,17.82244 -9.84617,0 -17.82551,-7.99493 -17.82551,-17.82244 z m 11.88361,0 c 0,3.28312 2.65879,5.9419 5.9419,5.9419 3.28303,0 5.94181,-2.65878 5.94181,-5.9419 v -49.02252 c 0,-3.27994 -2.65878,-5.93873 -5.94181,-5.93873 -3.28311,0 -5.9419,2.65879 -5.9419,5.93873 v 49.02252"
       style="fill:#000000;fill-opacity:1;fill-rule:evenodd;stroke:none;stroke-width:3.10603404"
       id="path7405"
       inkscape:connector-curvature="0" />
  </g>
</svg>
