<?xml version="1.0" encoding="UTF-8" standalone="no"?>
<svg
   xmlns:dc="http://purl.org/dc/elements/1.1/"
   xmlns:cc="http://creativecommons.org/ns#"
   xmlns:rdf="http://www.w3.org/1999/02/22-rdf-syntax-ns#"
   xmlns:svg="http://www.w3.org/2000/svg"
   xmlns="http://www.w3.org/2000/svg"
   xmlns:sodipodi="http://sodipodi.sourceforge.net/DTD/sodipodi-0.dtd"
   xmlns:inkscape="http://www.inkscape.org/namespaces/inkscape"
   sodipodi:docname="Latvia_road_sign_535.svg"
   inkscape:version="1.0 (4035a4fb49, 2020-05-01)"
   id="svg6774"
   version="1.1"
   viewBox="0 0 158.74999 158.74996"
   height="158.74997mm"
   width="158.75mm">
  <defs
     id="defs6768" />
  <sodipodi:namedview
     inkscape:window-maximized="1"
     inkscape:window-y="-9"
     inkscape:window-x="-9"
     inkscape:window-height="1001"
     inkscape:window-width="1920"
     fit-margin-bottom="0"
     fit-margin-right="0"
     fit-margin-left="0"
     fit-margin-top="0"
     showgrid="false"
     inkscape:document-rotation="0"
     inkscape:current-layer="layer1"
     inkscape:document-units="mm"
     inkscape:cy="403.06869"
     inkscape:cx="969.20363"
     inkscape:zoom="0.40983509"
     inkscape:pageshadow="2"
     inkscape:pageopacity="0.0"
     borderopacity="1.0"
     bordercolor="#666666"
     pagecolor="#ffffff"
     id="base" />
  <metadata
     id="metadata6771">
    <rdf:RDF>
      <cc:Work
         rdf:about="">
        <dc:format>image/svg+xml</dc:format>
        <dc:type
           rdf:resource="http://purl.org/dc/dcmitype/StillImage" />
        <dc:title></dc:title>
      </cc:Work>
    </rdf:RDF>
  </metadata>
  <g
     transform="translate(464.57578,232.81762)"
     id="layer1"
     inkscape:groupmode="layer"
     inkscape:label="Layer 1">
    <g
       style="opacity:1;stroke-width:0.141406"
       transform="matrix(2.4947818,0,0,-2.4947818,-933.97481,1525.3701)"
       id="g7997">
      <path
         id="path7999"
         d="m 192.97656,704.49609 h 53.98828 c 2.51563,0 4.57032,-2.05859 4.57032,-4.57422 v -53.98828 c 0,-2.51562 -2.05469,-4.57031 -4.57032,-4.57031 h -53.98828 c -2.51562,0 -4.57422,2.05469 -4.57422,4.57031 v 53.98828 c 0,2.51563 2.0586,4.57422 4.57422,4.57422 z m 0,0"
         style="color:#000000;font-style:normal;font-variant:normal;font-weight:normal;font-stretch:normal;font-size:medium;line-height:normal;font-family:sans-serif;font-variant-ligatures:normal;font-variant-position:normal;font-variant-caps:normal;font-variant-numeric:normal;font-variant-alternates:normal;font-variant-east-asian:normal;font-feature-settings:normal;font-variation-settings:normal;text-indent:0;text-align:start;text-decoration:none;text-decoration-line:none;text-decoration-style:solid;text-decoration-color:#000000;letter-spacing:normal;word-spacing:normal;text-transform:none;writing-mode:lr-tb;direction:ltr;text-orientation:mixed;dominant-baseline:auto;baseline-shift:baseline;text-anchor:start;white-space:normal;shape-padding:0;shape-margin:0;inline-size:0;clip-rule:nonzero;display:inline;overflow:visible;visibility:visible;isolation:auto;mix-blend-mode:normal;color-interpolation:sRGB;color-interpolation-filters:linearRGB;solid-color:#000000;solid-opacity:1;vector-effect:none;fill:#ffffff;fill-opacity:1;fill-rule:nonzero;stroke:none;stroke-width:0.0707031;stroke-linecap:butt;stroke-linejoin:miter;stroke-miterlimit:22.926;stroke-dasharray:none;stroke-dashoffset:0;stroke-opacity:1;color-rendering:auto;image-rendering:auto;shape-rendering:auto;text-rendering:auto;enable-background:accumulate;stop-color:#000000;stop-opacity:1" />
      <path
         id="path8001"
         d="m 192.97656,641.11328 c -2.65175,0 -4.82422,2.1683 -4.82422,4.82031 v 53.98829 c 0,2.65201 2.17221,4.82421 4.82422,4.82421 h 53.98828 c 2.65202,0 4.82032,-2.17246 4.82032,-4.82421 v -53.98829 c 0,-2.65175 -2.16856,-4.82031 -4.82032,-4.82031 z m 0,0.5 h 53.98828 c 2.3795,0 4.32032,1.94082 4.32032,4.32031 v 53.98829 c 0,2.37949 -1.94108,4.32421 -4.32032,4.32421 h -53.98828 c -2.37924,0 -4.32422,-1.94498 -4.32422,-4.32421 v -53.98829 c 0,-2.37923 1.94473,-4.32031 4.32422,-4.32031 z"
         style="color:#000000;font-style:normal;font-variant:normal;font-weight:normal;font-stretch:normal;font-size:medium;line-height:normal;font-family:sans-serif;font-variant-ligatures:normal;font-variant-position:normal;font-variant-caps:normal;font-variant-numeric:normal;font-variant-alternates:normal;font-variant-east-asian:normal;font-feature-settings:normal;font-variation-settings:normal;text-indent:0;text-align:start;text-decoration:none;text-decoration-line:none;text-decoration-style:solid;text-decoration-color:#000000;letter-spacing:normal;word-spacing:normal;text-transform:none;writing-mode:lr-tb;direction:ltr;text-orientation:mixed;dominant-baseline:auto;baseline-shift:baseline;text-anchor:start;white-space:normal;shape-padding:0;shape-margin:0;inline-size:0;clip-rule:nonzero;display:inline;overflow:visible;visibility:visible;isolation:auto;mix-blend-mode:normal;color-interpolation:sRGB;color-interpolation-filters:linearRGB;solid-color:#000000;solid-opacity:1;vector-effect:none;fill:#000000;fill-opacity:1;fill-rule:nonzero;stroke:none;stroke-width:0.0707031;stroke-linecap:butt;stroke-linejoin:miter;stroke-miterlimit:22.926;stroke-dasharray:none;stroke-dashoffset:0;stroke-opacity:1;color-rendering:auto;image-rendering:auto;shape-rendering:auto;text-rendering:auto;enable-background:accumulate;stop-color:#000000;stop-opacity:1" />
    </g>
    <path
       id="path7209"
       d="m -317.08152,-227.0289 -136.26772,0.007 c -2.60201,0.0495 -5.38909,1.9101 -5.38909,5.66205 v 136.063137 c 0,2.329105 1.96852,5.447567 5.7692,5.447567 l 135.81937,-0.0071 c 3.42057,0 5.49636,-3.118533 5.4866,-5.613259 l 0.007,-135.887685 c 0.0495,-3.80061 -2.81635,-5.56454 -5.42811,-5.67174"
       style="fill:#263894;fill-opacity:1;fill-rule:evenodd;stroke:none;stroke-width:0.352777" />
    <path
       style="opacity:1;fill:#ffffff;fill-opacity:1;fill-rule:evenodd;stroke:none;stroke-width:0.352777"
       d="m -319.66972,-104.65971 h -130.83644 l 65.71747,-114.06856 65.11897,114.06856"
       id="path2094" />
    <path
       id="path2096"
       style="opacity:1;fill:#000000;fill-opacity:1;fill-rule:evenodd;stroke:none;stroke-width:0.352777"
       d="m -384.83774,-197.4275 c 3.6597,0.17657 5.41718,3.31638 5.27984,5.97524 -0.0498,2.65886 -2.45288,5.1719 -5.29821,5.30924 -3.10044,0.13742 -5.74954,-2.31674 -6.03406,-5.33872 -0.11747,-2.94344 2.28485,-6.25975 6.05243,-5.94576 z m 4.83833,12.39199 15.45312,10.23216 0.0214,12.53908 c -0.15664,1.56987 -1.43366,2.69817 -2.83671,2.76687 -1.69739,0.007 -2.81351,-0.99102 -3.06861,-2.70798 v -9.05482 l -5.37909,-3.53211 -1.63737,15.97187 -15.71798,18.53641 -6.99439,24.48949 c -0.69632,1.56987 -2.63928,2.92258 -5.06275,1.87282 -1.76609,-0.96154 -2.41486,-2.58047 -1.83594,-4.73901 l 7.8774,-26.64925 12.64944,-14.80557 -2.58282,-14.13594 -12.23378,14.36406 c -1.36368,1.36382 -3.06975,1.25467 -4.37469,0.19509 -1.03018,-0.78497 -1.33555,-2.74601 -0.42292,-3.99206 l 16.79608,-19.76159 z m 3.30399,28.00324 11.99093,38.38998 c 0.51975,1.81508 -0.13742,3.54315 -2.08984,4.72057 -1.13819,0.53969 -3.943,0.4806 -4.90455,-2.14879 l -10.50813,-34.53768 z m 13.44424,16.9911 7.43589,32.21239 h -12.41035 l -0.85361,-4.57341 c 4.71936,0.7063 6.34811,-3.16665 6.03412,-6.42408 l -5.27984,-21.2149 z m -39.84699,0 -5.94577,22.38122 c 0.11748,3.0612 1.93405,6.37751 6.83981,5.18051 l -0.88301,4.65066 h -13.66866 l 7.89947,-32.19032 z m 22.39966,0.0142 1.43494,32.16091 -13.06895,0.0214 1.87282,-32.18299 z m 35.95062,0.0427 13.1388,32.16091 h -13.12043 l -10.03715,-32.16091 z m -80.74994,0 9.12473,0.0356 -10.45666,32.1241 h -12.3257 z" />
  </g>
</svg>
