<?xml version="1.0" encoding="utf-8"?>
<!-- Generator: Adobe Illustrator 24.2.3, SVG Export Plug-In . SVG Version: 6.00 Build 0)  -->
<svg version="1.1"
	 id="svg4552" xmlns:cc="http://creativecommons.org/ns#" xmlns:dc="http://purl.org/dc/elements/1.1/" xmlns:inkscape="http://www.inkscape.org/namespaces/inkscape" xmlns:rdf="http://www.w3.org/1999/02/22-rdf-syntax-ns#" xmlns:sodipodi="http://sodipodi.sourceforge.net/DTD/sodipodi-0.dtd" xmlns:svg="http://www.w3.org/2000/svg"
	 xmlns="http://www.w3.org/2000/svg" xmlns:xlink="http://www.w3.org/1999/xlink" x="0px" y="0px" viewBox="0 0 340.2 340.7"
	 style="enable-background:new 0 0 340.2 340.7;" xml:space="preserve">
<style type="text/css">
	.st0{fill-rule:evenodd;clip-rule:evenodd;fill:#FFFF00;}
	.st1{fill-rule:evenodd;clip-rule:evenodd;}
</style>
<path id="path3895" inkscape:connector-curvature="0" class="st0" d="M165.3,16.2L16.2,165.6c-2.6,2.6-2.6,6.9,0,9.5l149.2,149.5
	c2.6,2.6,6.9,2.6,9.5,0l149.2-149.5c2.6-2.6,2.6-6.9,0-9.5L174.8,16.2C172.2,13.6,167.9,13.6,165.3,16.2L165.3,16.2z"/>
<path id="path3897" inkscape:connector-curvature="0" class="st1" d="M155.3,6.1L6.1,155.6c-8.2,8.2-8.2,21.5,0,29.6l149.2,149.4
	c8.2,8.2,21.5,8.2,29.6,0L334,185.2c8.2-8.1,8.2-21.5,0-29.6L184.9,6.1C176.8-2,163.4-2,155.3,6.1z M165.3,16.2L16.2,165.6
	c-2.6,2.6-2.6,6.9,0,9.5l149.2,149.5c2.6,2.6,6.9,2.6,9.5,0l149.2-149.5c2.6-2.6,2.6-6.9,0-9.5L174.8,16.2
	C172.2,13.6,167.9,13.6,165.3,16.2L165.3,16.2z"/>
<g>
	<path class="st1" d="M186,176.3l-15.7-28l6-20.7l6.4,8.3l29.7,9.7l4.5-6.4L189.5,121c-1.3-5.4-6.5-29.2-17.1-34.7
		c-10.4-6.9-49,21.5-49.2,21.7v41.4l8.3-1.4l3.3-33.1c3.2-0.6,6.3-1.3,9.5-1.9c-6.9,17.7-9.4,34.9-5.5,46.2l-16.7,68.3l11.3,8
		l24.3-63.2l11.3,12l15.6,47.6l14.9-5.5L186,176.3z"/>
	<path class="st1" d="M177.3,82.9c7.2,0,13-5.9,13-13c0-7.2-5.9-13.1-13-13.1c-7.2,0-13.1,5.9-13.1,13.1
		C164.2,77.1,170.1,82.9,177.3,82.9z"/>
	<polygon class="st1" points="201.1,216.1 204.3,228.8 195.3,232 203,273.9 206.1,273.9 229.7,249.8 218.2,216.1 	"/>
	<polygon class="st1" points="261.3,216.1 236,216.1 244.2,235.1 262,217.9 	"/>
	<polygon class="st1" points="149.5,216.1 145,273.9 179.3,273.9 175,216.1 	"/>
	<polygon class="st1" points="120.9,216.1 106.4,216.1 98.8,238.9 123.3,263.1 128,237.2 117.5,230.2 	"/>
	<polygon class="st1" points="85.3,225 88.6,216.1 76.2,216.1 	"/>
</g>
</svg>
