<?xml version="1.0" encoding="UTF-8" standalone="no"?>
<!-- Created with Inkscape (http://www.inkscape.org/) -->
<svg
   xmlns:svg="http://www.w3.org/2000/svg"
   xmlns="http://www.w3.org/2000/svg"
   version="1.0"
   width="438.875"
   height="418.5625"
   id="svg2"
   xml:space="preserve"><defs
     id="defs5"><clipPath
       id="clipPath19"><path
         d="M 0.496094,0.496094 L 3510.5,0.496094 L 3510.5,3348 L 0.496094,3348 L 0.496094,0.496094 z"
         id="path21" /></clipPath></defs><g
     transform="matrix(1.25,0,0,-1.25,0,418.5625)"
     id="g11"><g
       transform="scale(0.1,0.1)"
       id="g13"><g
         id="g15"><g
           clip-path="url(#clipPath19)"
           id="g17"><path
             d="M 1755.5,1675.5 L 0.496094,3348 L 0.496094,0.496094 L 1755.5,1675.5"
             id="path23"
             style="fill:#000000;fill-opacity:1;fill-rule:evenodd;stroke:none" /><path
             d="M 3510.5,1675.5 L 1755.5,0.496094 L 3510.5,0.496094 L 3510.5,1675.5"
             id="path25"
             style="fill:#000000;fill-opacity:1;fill-rule:evenodd;stroke:none" /><path
             d="M 3510.5,1675.5 L 3510.5,3348 L 1755.5,3348 L 3510.5,1675.5"
             id="path27"
             style="fill:#000000;fill-opacity:1;fill-rule:evenodd;stroke:none" /><path
             d="M 3510.5,3348 L 3510.5,0.496094"
             id="path29"
             style="fill:none;stroke:#000000;stroke-width:1;stroke-linecap:square;stroke-linejoin:miter;stroke-miterlimit:10;stroke-dasharray:none;stroke-opacity:1" /><path
             d="M 1755.5,3348 L 0.496094,3348 L 1755.5,1675.5 L 0.496094,0.496094 L 1755.5,0.496094 L 3510.5,1675.5 L 1755.5,3348"
             id="path31"
             style="fill:#efaa00;fill-opacity:1;fill-rule:evenodd;stroke:none" /></g></g></g></g></svg>