<?xml version="1.0" encoding="utf-8"?>
<!-- Generator: Adobe Illustrator 14.0.0, SVG Export Plug-In . SVG Version: 6.00 Build 43363)  -->
<!DOCTYPE svg PUBLIC "-//W3C//DTD SVG 1.1//EN" "http://www.w3.org/Graphics/SVG/1.1/DTD/svg11.dtd">
<svg version="1.1" id="Calque_1" xmlns="http://www.w3.org/2000/svg" xmlns:xlink="http://www.w3.org/1999/xlink" x="0px" y="0px"
	 width="77.15px" height="77.24px" viewBox="0 0 77.15 77.24" enable-background="new 0 0 77.15 77.24" xml:space="preserve">
<path fill="#0071B3" d="M5.781,0.076h65.621c3.139,0.03,5.674,2.565,5.674,5.704v65.771c0,3.079-2.535,5.614-5.614,5.614H5.751
	c-3.139,0-5.675-2.535-5.675-5.584V5.78c0-3.139,2.536-5.674,5.675-5.674L5.781,0.076z"/>
<path fill="none" stroke="#0071B3" stroke-width="0.151" stroke-miterlimit="3.863" d="M5.781,0.076h65.621
	c3.139,0.03,5.674,2.565,5.674,5.704v65.771c0,3.079-2.535,5.614-5.614,5.614H5.751c-3.139,0-5.675-2.535-5.675-5.584V5.78
	c0-3.139,2.536-5.674,5.675-5.674L5.781,0.076z"/>
<path fill="#0071B3" d="M5.751,2.762l65.65,0.03c1.629,0,2.987,1.358,2.987,2.988v65.801c0,1.629-1.358,2.988-2.987,2.988H5.751
	c-1.63,0-2.988-1.359-2.988-2.988V5.75C2.763,4.12,4.121,2.762,5.751,2.762z"/>
<path fill="none" stroke="#0071B3" stroke-width="0.151" stroke-miterlimit="3.863" d="M5.751,2.762l65.65,0.03
	c1.629,0,2.987,1.358,2.987,2.988v65.801c0,1.629-1.358,2.988-2.987,2.988H5.751c-1.63,0-2.988-1.359-2.988-2.988V5.75
	C2.763,4.12,4.121,2.762,5.751,2.762z"/>
<path fill-rule="evenodd" clip-rule="evenodd" fill="#FFFFFF" d="M6.445,41.458 M32.132,41.458H6.446v-5.584h25.686V41.458z"/>
<path fill="none" stroke="#FFFFFF" stroke-width="0.151" stroke-miterlimit="3.863" d="M6.445,41.458 M32.132,41.458H6.446v-5.584
	h25.686V41.458z"/>
<rect x="35.784" y="6.203" fill-rule="evenodd" clip-rule="evenodd" fill="#FFFFFF" width="5.584" height="25.687"/>
<rect x="35.784" y="6.203" fill="none" stroke="#FFFFFF" stroke-width="0.151" stroke-miterlimit="3.863" width="5.584" height="25.687"/>
<path fill="#FFFFFF" d="M62.104,34.304h8.541v8.542h-8.541c-10.625,0-19.258,8.633-19.258,19.258v8.542h-8.542v-8.542
	c0-15.364,12.466-27.83,27.829-27.83L62.104,34.304z"/>
<path fill="none" stroke="#FFFFFF" stroke-width="0.151" stroke-miterlimit="3.863" d="M62.104,34.304h8.541v8.542h-8.541
	c-10.625,0-19.258,8.633-19.258,19.258v8.542h-8.542v-8.542c0-15.364,12.466-27.83,27.829-27.83L62.104,34.304z"/>
</svg>
