<svg xmlns="http://www.w3.org/2000/svg" xmlns:xlink="http://www.w3.org/1999/xlink" viewBox="0 0 89.83 25.51"><defs><style>.cls-1,.cls-4,.cls-6{fill:none;}.cls-2{clip-path:url(#clip-path);}.cls-3{fill:blue;}.cls-3,.cls-5{fill-rule:evenodd;}.cls-4{stroke:blue;}.cls-4,.cls-6{stroke-linecap:round;stroke-miterlimit:10;stroke-width:0px;}.cls-5,.cls-7{fill:#fff;}.cls-6{stroke:#fff;}</style><clipPath id="clip-path" transform="translate(0 0)"><rect class="cls-1" width="89.83" height="25.51"/></clipPath></defs><g id="Laag_2" data-name="Laag 2"><g id="Laag_1-2" data-name="Laag 1"><g class="cls-2"><polygon class="cls-3" points="5.78 25.51 84.05 25.51 84.62 25.48 85.18 25.4 85.73 25.26 86.26 25.07 86.78 24.83 87.26 24.54 87.71 24.2 88.14 23.83 88.51 23.41 88.85 22.96 89.15 22.48 89.39 21.96 89.58 21.44 89.72 20.89 89.8 20.33 89.83 19.77 89.83 5.74 89.8 5.18 89.72 4.62 89.58 4.08 89.39 3.55 89.15 3.04 88.85 2.55 88.51 2.1 88.14 1.69 87.71 1.31 87.26 0.97 86.78 0.69 86.26 0.45 85.73 0.25 85.18 0.12 84.62 0.03 84.05 0 5.78 0 5.21 0.03 4.65 0.12 4.1 0.25 3.56 0.45 3.05 0.69 2.57 0.97 2.11 1.31 1.69 1.69 1.31 2.1 0.97 2.55 0.68 3.04 0.44 3.55 0.25 4.08 0.11 4.62 0.03 5.18 0 5.74 0 19.77 0.03 20.33 0.11 20.89 0.25 21.44 0.44 21.96 0.68 22.48 0.97 22.96 1.31 23.41 1.69 23.83 2.11 24.2 2.57 24.54 3.05 24.83 3.56 25.07 4.1 25.26 4.65 25.4 5.21 25.48 5.78 25.51"/><polygon class="cls-4" points="5.78 25.51 84.05 25.51 84.62 25.48 85.18 25.4 85.73 25.26 86.26 25.07 86.78 24.83 87.26 24.54 87.71 24.2 88.14 23.83 88.51 23.41 88.85 22.96 89.15 22.48 89.39 21.96 89.58 21.44 89.72 20.89 89.8 20.33 89.83 19.77 89.83 5.74 89.8 5.18 89.72 4.62 89.58 4.08 89.39 3.55 89.15 3.04 88.85 2.55 88.51 2.1 88.14 1.69 87.71 1.31 87.26 0.97 86.78 0.69 86.26 0.45 85.73 0.25 85.18 0.12 84.62 0.03 84.05 0 5.78 0 5.21 0.03 4.65 0.12 4.1 0.25 3.56 0.45 3.05 0.69 2.57 0.97 2.11 1.31 1.69 1.69 1.31 2.1 0.97 2.55 0.68 3.04 0.44 3.55 0.25 4.08 0.11 4.62 0.03 5.18 0 5.74 0 19.77 0.03 20.33 0.11 20.89 0.25 21.44 0.44 21.96 0.68 22.48 0.97 22.96 1.31 23.41 1.69 23.83 2.11 24.2 2.57 24.54 3.05 24.83 3.56 25.07 4.1 25.26 4.65 25.4 5.21 25.48 5.78 25.51"/><polygon class="cls-5" points="19.69 3.83 19.69 9.24 19.7 9.39 19.75 9.55 19.82 9.69 19.92 9.81 20.04 9.91 20.19 9.98 20.33 10.03 20.49 10.04 20.65 10.03 20.8 9.98 20.94 9.91 21.06 9.81 21.16 9.69 21.24 9.55 21.28 9.39 21.3 9.24 21.3 3.83 22.31 3.83 22.31 9.14 22.27 9.49 22.17 9.83 22 10.14 21.78 10.41 21.5 10.64 21.18 10.81 20.84 10.91 20.49 10.94 20.14 10.91 19.8 10.81 19.48 10.64 19.21 10.41 18.98 10.14 18.82 9.83 18.71 9.49 18.68 9.14 18.68 3.83 19.69 3.83"/><polygon class="cls-6" points="19.69 3.83 19.69 9.24 19.7 9.39 19.75 9.55 19.82 9.69 19.92 9.81 20.04 9.91 20.19 9.98 20.33 10.03 20.49 10.04 20.65 10.03 20.8 9.98 20.94 9.91 21.06 9.81 21.16 9.69 21.24 9.55 21.28 9.39 21.3 9.24 21.3 3.83 22.31 3.83 22.31 9.14 22.27 9.49 22.17 9.83 22 10.14 21.78 10.41 21.5 10.64 21.18 10.81 20.84 10.91 20.49 10.94 20.14 10.91 19.8 10.81 19.48 10.64 19.21 10.41 18.98 10.14 18.82 9.83 18.71 9.49 18.68 9.14 18.68 3.83 19.69 3.83"/><rect class="cls-7" x="23.65" y="3.83" width="1.01" height="7.01"/><rect class="cls-6" x="23.65" y="3.83" width="1.01" height="7.01"/><polygon class="cls-5" points="26.88 10.84 26.88 4.73 25.57 4.73 25.57 3.83 29.2 3.83 29.2 4.73 27.89 4.73 27.89 10.84 26.88 10.84"/><polygon class="cls-6" points="26.88 10.84 26.88 4.73 25.57 4.73 25.57 3.83 29.2 3.83 29.2 4.73 27.89 4.73 27.89 10.84 26.88 10.84"/><polygon class="cls-5" points="32.46 7.74 32.46 9.24 32.45 9.39 32.4 9.55 32.33 9.69 32.23 9.81 32.1 9.91 31.96 9.98 31.81 10.03 31.66 10.04 31.5 10.03 31.34 9.98 31.21 9.91 31.09 9.81 30.98 9.69 30.91 9.55 30.86 9.39 30.84 9.24 30.84 5.43 30.86 5.28 30.91 5.13 30.98 4.99 31.09 4.86 31.21 4.77 31.34 4.69 31.5 4.64 31.66 4.63 31.81 4.64 31.96 4.69 32.1 4.77 32.23 4.86 32.33 4.99 32.4 5.13 32.45 5.28 32.46 5.43 32.46 5.54 33.47 5.54 33.43 5.18 33.33 4.84 33.17 4.53 32.94 4.26 32.66 4.04 32.35 3.87 32.01 3.76 31.66 3.73 31.3 3.76 30.96 3.87 30.65 4.04 30.37 4.26 30.15 4.53 29.98 4.84 29.87 5.18 29.84 5.54 29.84 9.14 29.87 9.49 29.98 9.83 30.15 10.14 30.37 10.41 30.65 10.63 30.96 10.81 31.3 10.91 31.66 10.94 32.01 10.91 32.35 10.81 32.66 10.63 32.94 10.41 33.17 10.14 33.33 9.83 33.43 9.49 33.47 9.14 33.47 6.84 31.66 6.84 31.66 7.74 32.46 7.74"/><polygon class="cls-6" points="32.46 7.74 32.46 9.24 32.45 9.39 32.4 9.55 32.33 9.69 32.23 9.81 32.1 9.91 31.96 9.98 31.81 10.03 31.66 10.04 31.5 10.03 31.34 9.98 31.21 9.91 31.09 9.81 30.98 9.69 30.91 9.55 30.86 9.39 30.84 9.24 30.84 5.43 30.86 5.28 30.91 5.13 30.98 4.99 31.09 4.86 31.21 4.77 31.34 4.69 31.5 4.64 31.66 4.63 31.81 4.64 31.96 4.69 32.1 4.77 32.23 4.86 32.33 4.99 32.4 5.13 32.45 5.28 32.46 5.43 32.46 5.54 33.47 5.54 33.43 5.18 33.33 4.84 33.17 4.53 32.94 4.26 32.66 4.04 32.35 3.87 32.01 3.76 31.66 3.73 31.3 3.76 30.96 3.87 30.65 4.04 30.37 4.26 30.15 4.53 29.98 4.84 29.87 5.18 29.84 5.54 29.84 9.14 29.87 9.49 29.98 9.83 30.15 10.14 30.37 10.41 30.65 10.63 30.96 10.81 31.3 10.91 31.66 10.94 32.01 10.91 32.35 10.81 32.66 10.63 32.94 10.41 33.17 10.14 33.33 9.83 33.43 9.49 33.47 9.14 33.47 6.84 31.66 6.84 31.66 7.74 32.46 7.74"/><polygon class="cls-5" points="34.74 10.84 34.74 3.83 38.06 3.83 38.06 4.73 35.75 4.73 35.75 6.89 37.26 6.89 37.26 7.79 35.75 7.79 35.75 9.94 38.06 9.94 38.06 10.84 34.74 10.84"/><polygon class="cls-6" points="34.74 10.84 34.74 3.83 38.06 3.83 38.06 4.73 35.75 4.73 35.75 6.89 37.26 6.89 37.26 7.79 35.75 7.79 35.75 9.94 38.06 9.94 38.06 10.84 34.74 10.84"/><polygon class="cls-5" points="38.91 10.84 38.91 9.94 41.33 4.73 39.01 4.73 39.01 3.83 42.44 3.83 42.44 4.73 40.02 9.94 42.55 9.94 42.55 10.84 38.91 10.84"/><polygon class="cls-6" points="38.91 10.84 38.91 9.94 41.33 4.73 39.01 4.73 39.01 3.83 42.44 3.83 42.44 4.73 40.02 9.94 42.55 9.94 42.55 10.84 38.91 10.84"/><path class="cls-5" d="M43.53,9.14V5.53l0-.35.11-.34.17-.31.22-.27L44.34,4l.31-.17L45,3.76l.36,0,.35,0,.34.11.31.17.27.22.24.27.16.31.1.34,0,.35V9.14l0,.35-.1.34-.16.31-.24.27-.27.23L46,10.8l-.34.11-.35,0-.36,0-.34-.11-.31-.16-.28-.23-.22-.27-.17-.31-.11-.34Zm1,.1v-4l.05-.15L44.67,5l.11-.13.12-.09L45,4.69l.16-.05h.31l.15.05.14.08.13.09L46,5l.07.14,0,.15V9.39l0,.16L46,9.69l-.1.12-.13.1-.14.07-.15,0h-.31L45,10l-.13-.07-.12-.1-.11-.12-.07-.14-.05-.16Z" transform="translate(0 0)"/><path class="cls-6" d="M43.53,9.14V5.53l0-.35.11-.34.17-.31.22-.27L44.34,4l.31-.17L45,3.76l.36,0,.35,0,.34.11.31.17.27.22.24.27.16.31.1.34,0,.35V9.14l0,.35-.1.34-.16.31-.24.27-.27.23L46,10.8l-.34.11-.35,0-.36,0-.34-.11-.31-.16-.28-.23-.22-.27-.17-.31-.11-.34Zm1,.1v-4l.05-.15L44.67,5l.11-.13.12-.09L45,4.69l.16-.05h.31l.15.05.14.08.13.09L46,5l.07.14,0,.15V9.39l0,.16L46,9.69l-.1.12-.13.1-.14.07-.15,0h-.31L45,10l-.13-.07-.12-.1-.11-.12-.07-.14-.05-.16Z" transform="translate(0 0)"/><polygon class="cls-5" points="48.43 10.84 48.43 3.83 49.49 3.83 51.15 8.34 51.15 3.83 52.06 3.83 52.06 10.84 51 10.84 49.34 6.33 49.34 10.84 48.43 10.84"/><polygon class="cls-6" points="48.43 10.84 48.43 3.83 49.49 3.83 51.15 8.34 51.15 3.83 52.06 3.83 52.06 10.84 51 10.84 49.34 6.33 49.34 10.84 48.43 10.84"/><path class="cls-5" d="M53.47,10.84h2l.31,0,.3-.09.28-.15.25-.2.2-.24L57,9.85l.09-.3,0-.31V5.43l0-.31L57,4.82l-.15-.28-.2-.24-.25-.2L56.1,4l-.3-.09-.31,0h-2Zm1-.9h1l.14,0,.12-.07.1-.08L56,9.63,56,9.51l0-.13V5.29l0-.13L56,5l-.09-.11-.1-.08-.12-.07-.14,0h-1Z" transform="translate(0 0)"/><path class="cls-6" d="M53.47,10.84h2l.31,0,.3-.09.28-.15.25-.2.2-.24L57,9.85l.09-.3,0-.31V5.43l0-.31L57,4.82l-.15-.28-.2-.24-.25-.2L56.1,4l-.3-.09-.31,0h-2Zm1-.9h1l.14,0,.12-.07.1-.08L56,9.63,56,9.51l0-.13V5.29l0-.13L56,5l-.09-.11-.1-.08-.12-.07-.14,0h-1Z" transform="translate(0 0)"/><polygon class="cls-5" points="58.37 10.84 58.37 3.83 61.7 3.83 61.7 4.73 59.38 4.73 59.38 6.89 60.89 6.89 60.89 7.79 59.38 7.79 59.38 9.94 61.7 9.94 61.7 10.84 58.37 10.84"/><polygon class="cls-6" points="58.37 10.84 58.37 3.83 61.7 3.83 61.7 4.73 59.38 4.73 59.38 6.89 60.89 6.89 60.89 7.79 59.38 7.79 59.38 9.94 61.7 9.94 61.7 10.84 58.37 10.84"/><path class="cls-5" d="M62.76,10.84v-7h2l.32,0,.3.09.28.15.24.2.21.24.14.28.1.3,0,.31v.7l0,.28-.07.26-.12.26L66,7.15l-.2.2-.23.16-.24.12-.27.08,1.45,3.13H65.42L64,7.74h-.21v3.1Zm1-6.11h1l.13,0,.12.07.11.08.09.11.06.12,0,.13,0,.14v.7l0,.14,0,.13-.06.12-.09.11-.11.09-.12.06-.13,0-.14,0h-.9Z" transform="translate(0 0)"/><path class="cls-6" d="M62.76,10.84v-7h2l.32,0,.3.09.28.15.24.2.21.24.14.28.1.3,0,.31v.7l0,.28-.07.26-.12.26L66,7.15l-.2.2-.23.16-.24.12-.27.08,1.45,3.13H65.42L64,7.74h-.21v3.1Zm1-6.11h1l.13,0,.12.07.11.08.09.11.06.12,0,.13,0,.14v.7l0,.14,0,.13-.06.12-.09.11-.11.09-.12.06-.13,0-.14,0h-.9Z" transform="translate(0 0)"/><path class="cls-5" d="M67.51,10.84h2l.32,0,.3-.09.28-.15.24-.2.2-.24L71,9.85l.08-.3,0-.31V5.43l0-.31L71,4.82l-.16-.28-.2-.24-.24-.2L70.15,4l-.3-.09-.32,0h-2Zm1-.9h1l.13,0,.12-.07.11-.08L70,9.63l.07-.12,0-.13V5.29l0-.13L70,5l-.09-.11-.11-.08-.12-.07-.13,0h-1Z" transform="translate(0 0)"/><path class="cls-6" d="M67.51,10.84h2l.32,0,.3-.09.28-.15.24-.2.2-.24L71,9.85l.08-.3,0-.31V5.43l0-.31L71,4.82l-.16-.28-.2-.24-.24-.2L70.15,4l-.3-.09-.32,0h-2Zm1-.9h1l.13,0,.12-.07.11-.08L70,9.63l.07-.12,0-.13V5.29l0-.13L70,5l-.09-.11-.11-.08-.12-.07-.13,0h-1Z" transform="translate(0 0)"/><path class="cls-5" d="M4.4,21.68v-7h2l.31,0,.3.09.28.15.25.2.2.24.15.27L8,16l0,.31V17l0,.32-.09.3-.15.27-.2.25-.25.19L7,18.45l-.3.1-.31,0h-1v3.11Zm1-6.11h1l.14.05.12.06.11.09.09.1L7,16l0,.14v1l0,.13,0,.12-.09.11-.11.08-.12.07-.14,0h-1Z" transform="translate(0 0)"/><path class="cls-6" d="M4.4,21.68v-7h2l.31,0,.3.09.28.15.25.2.2.24.15.27L8,16l0,.31V17l0,.32-.09.3-.15.27-.2.25-.25.19L7,18.45l-.3.1-.31,0h-1v3.11Zm1-6.11h1l.14.05.12.06.11.09.09.1L7,16l0,.14v1l0,.13,0,.12-.09.11-.11.08-.12.07-.14,0h-1Z" transform="translate(0 0)"/><polygon class="cls-5" points="9.02 21.68 9.02 14.67 10.03 14.67 10.03 20.78 12.04 20.78 12.04 21.68 9.02 21.68"/><polygon class="cls-6" points="9.02 21.68 9.02 14.67 10.03 14.67 10.03 20.78 12.04 20.78 12.04 21.68 9.02 21.68"/><path class="cls-5" d="M12.82,21.68h1l.18-.8h1.81l.18.8h1l-1.56-7H14.38ZM14.23,20h1.41l-.7-3.17Z" transform="translate(0 0)"/><path class="cls-6" d="M12.82,21.68h1l.18-.8h1.81l.18.8h1l-1.56-7H14.38ZM14.23,20h1.41l-.7-3.17Z" transform="translate(0 0)"/><path class="cls-5" d="M17.9,21.68h1l.18-.8h1.81l.18.8h1l-1.57-7H19.46ZM19.31,20h1.41L20,16.81Z" transform="translate(0 0)"/><path class="cls-6" d="M17.9,21.68h1l.18-.8h1.81l.18.8h1l-1.57-7H19.46ZM19.31,20h1.41L20,16.81Z" transform="translate(0 0)"/><polygon class="cls-5" points="23.44 21.68 23.44 15.57 22.14 15.57 22.14 14.67 25.77 14.67 25.77 15.57 24.45 15.57 24.45 21.68 23.44 21.68"/><polygon class="cls-6" points="23.44 21.68 23.44 15.57 22.14 15.57 22.14 14.67 25.77 14.67 25.77 15.57 24.45 15.57 24.45 21.68 23.44 21.68"/><polygon class="cls-5" points="26.4 19.68 26.4 19.98 26.42 20.2 26.46 20.41 26.52 20.63 26.62 20.83 26.73 21.02 26.87 21.19 27.03 21.34 27.21 21.48 27.4 21.59 27.6 21.68 27.82 21.73 28.04 21.77 28.26 21.78 28.48 21.76 28.7 21.71 28.91 21.64 29.11 21.54 29.3 21.43 29.47 21.29 29.62 21.12 29.75 20.95 29.86 20.75 29.94 20.54 29.99 20.33 30.03 20.11 30.03 19.89 30 19.67 29.95 19.46 29.87 19.25 29.78 19.05 29.65 18.87 29.5 18.7 27.72 16.77 27.61 16.63 27.54 16.48 27.51 16.31 27.53 16.14 27.58 15.97 27.67 15.83 27.8 15.71 27.95 15.63 28.11 15.58 28.28 15.58 28.45 15.62 28.61 15.69 28.74 15.8 28.84 15.94 28.9 16.1 28.92 16.27 29.93 16.27 29.92 16.06 29.88 15.86 29.81 15.66 29.73 15.47 29.62 15.29 29.48 15.13 29.34 14.98 29.17 14.86 28.98 14.75 28.79 14.66 28.59 14.61 28.38 14.58 28.17 14.57 27.96 14.59 27.76 14.63 27.56 14.7 27.37 14.79 27.2 14.91 27.03 15.04 26.89 15.19 26.77 15.36 26.66 15.54 26.59 15.74 26.53 15.94 26.5 16.15 26.5 16.36 26.53 16.56 26.58 16.76 26.65 16.96 26.75 17.14 26.86 17.32 27 17.48 28.79 19.41 28.91 19.57 28.99 19.74 29.02 19.94 29.01 20.13 28.95 20.32 28.84 20.49 28.7 20.62 28.52 20.72 28.33 20.77 28.13 20.78 27.94 20.73 27.77 20.65 27.62 20.52 27.5 20.36 27.43 20.17 27.41 19.98 27.41 19.68 26.4 19.68"/><polygon class="cls-6" points="26.4 19.68 26.4 19.98 26.42 20.2 26.46 20.41 26.52 20.63 26.62 20.83 26.73 21.02 26.87 21.19 27.03 21.34 27.21 21.48 27.4 21.59 27.6 21.68 27.82 21.73 28.04 21.77 28.26 21.78 28.48 21.76 28.7 21.71 28.91 21.64 29.11 21.54 29.3 21.43 29.47 21.29 29.62 21.12 29.75 20.95 29.86 20.75 29.94 20.54 29.99 20.33 30.03 20.11 30.03 19.89 30 19.67 29.95 19.46 29.87 19.25 29.78 19.05 29.65 18.87 29.5 18.7 27.72 16.77 27.61 16.63 27.54 16.48 27.51 16.31 27.53 16.14 27.58 15.97 27.67 15.83 27.8 15.71 27.95 15.63 28.11 15.58 28.28 15.58 28.45 15.62 28.61 15.69 28.74 15.8 28.84 15.94 28.9 16.1 28.92 16.27 29.93 16.27 29.92 16.06 29.88 15.86 29.81 15.66 29.73 15.47 29.62 15.29 29.48 15.13 29.34 14.98 29.17 14.86 28.98 14.75 28.79 14.66 28.59 14.61 28.38 14.58 28.17 14.57 27.96 14.59 27.76 14.63 27.56 14.7 27.37 14.79 27.2 14.91 27.03 15.04 26.89 15.19 26.77 15.36 26.66 15.54 26.59 15.74 26.53 15.94 26.5 16.15 26.5 16.36 26.53 16.56 26.58 16.76 26.65 16.96 26.75 17.14 26.86 17.32 27 17.48 28.79 19.41 28.91 19.57 28.99 19.74 29.02 19.94 29.01 20.13 28.95 20.32 28.84 20.49 28.7 20.62 28.52 20.72 28.33 20.77 28.13 20.78 27.94 20.73 27.77 20.65 27.62 20.52 27.5 20.36 27.43 20.17 27.41 19.98 27.41 19.68 26.4 19.68"/><polygon class="cls-5" points="31.3 21.68 31.3 14.67 34.63 14.67 34.63 15.57 32.31 15.57 32.31 17.72 33.82 17.72 33.82 18.63 32.31 18.63 32.31 20.78 34.63 20.78 34.63 21.68 31.3 21.68"/><polygon class="cls-6" points="31.3 21.68 31.3 14.67 34.63 14.67 34.63 15.57 32.31 15.57 32.31 17.72 33.82 17.72 33.82 18.63 32.31 18.63 32.31 20.78 34.63 20.78 34.63 21.68 31.3 21.68"/><polygon class="cls-5" points="35.69 21.68 35.69 14.67 36.69 14.67 36.69 20.78 38.71 20.78 38.71 21.68 35.69 21.68"/><polygon class="cls-6" points="35.69 21.68 35.69 14.67 36.69 14.67 36.69 20.78 38.71 20.78 38.71 21.68 35.69 21.68"/><rect class="cls-7" x="39.63" y="14.67" width="1.01" height="7.01"/><rect class="cls-6" x="39.63" y="14.67" width="1.01" height="7.01"/><polygon class="cls-5" points="42.49 19.98 41.49 19.98 41.52 20.33 41.62 20.67 41.79 20.98 42.02 21.25 42.29 21.48 42.61 21.64 42.95 21.75 43.3 21.78 43.65 21.75 43.99 21.64 44.3 21.48 44.58 21.25 44.8 20.98 44.98 20.67 45.08 20.33 45.11 19.98 45.11 14.67 44.1 14.67 44.1 20.08 44.09 20.24 44.04 20.38 43.97 20.52 43.87 20.65 43.75 20.75 43.61 20.82 43.46 20.86 43.3 20.88 43.14 20.86 42.99 20.82 42.85 20.75 42.73 20.65 42.63 20.52 42.56 20.38 42.51 20.24 42.49 20.08 42.49 19.98"/><polygon class="cls-6" points="42.49 19.98 41.49 19.98 41.52 20.33 41.62 20.67 41.79 20.98 42.02 21.25 42.29 21.48 42.61 21.64 42.95 21.75 43.3 21.78 43.65 21.75 43.99 21.64 44.3 21.48 44.58 21.25 44.8 20.98 44.98 20.67 45.08 20.33 45.11 19.98 45.11 14.67 44.1 14.67 44.1 20.08 44.09 20.24 44.04 20.38 43.97 20.52 43.87 20.65 43.75 20.75 43.61 20.82 43.46 20.86 43.3 20.88 43.14 20.86 42.99 20.82 42.85 20.75 42.73 20.65 42.63 20.52 42.56 20.38 42.51 20.24 42.49 20.08 42.49 19.98"/><polygon class="cls-5" points="46.46 21.68 46.46 14.67 47.47 14.67 47.47 17.18 48.92 14.67 50.08 14.67 48.12 18.06 50.23 21.68 49.06 21.68 47.47 18.93 47.47 21.68 46.46 21.68"/><polygon class="cls-6" points="46.46 21.68 46.46 14.67 47.47 14.67 47.47 17.18 48.92 14.67 50.08 14.67 48.12 18.06 50.23 21.68 49.06 21.68 47.47 18.93 47.47 21.68 46.46 21.68"/><polygon class="cls-5" points="53.89 14.67 55.41 21.68 56.62 21.68 58.13 14.67 57.1 14.67 56.01 19.57 54.93 14.67 53.89 14.67"/><polygon class="cls-6" points="53.89 14.67 55.41 21.68 56.62 21.68 58.13 14.67 57.1 14.67 56.01 19.57 54.93 14.67 53.89 14.67"/><polygon class="cls-5" points="59.05 21.68 59.05 14.67 62.38 14.67 62.38 15.57 60.05 15.57 60.05 17.72 61.57 17.72 61.57 18.63 60.05 18.63 60.05 20.78 62.38 20.78 62.38 21.68 59.05 21.68"/><polygon class="cls-6" points="59.05 21.68 59.05 14.67 62.38 14.67 62.38 15.57 60.05 15.57 60.05 17.72 61.57 17.72 61.57 18.63 60.05 18.63 60.05 20.78 62.38 20.78 62.38 21.68 59.05 21.68"/><path class="cls-5" d="M63.43,21.68v-7h2l.31,0,.31.09.27.15.25.2.2.24.15.27L67,16l0,.31V17l0,.28-.07.27-.12.25-.16.22-.19.2-.23.16-.25.12-.27.08,1.45,3.13H66.09l-1.43-3.11h-.22v3.11Zm1-6.11h1l.14.05.12.06.11.09.08.1L66,16l0,.14,0,.13V17l0,.14,0,.13-.07.12-.08.11-.11.08-.12.07-.14,0h-1Z" transform="translate(0 0)"/><path class="cls-6" d="M63.43,21.68v-7h2l.31,0,.31.09.27.15.25.2.2.24.15.27L67,16l0,.31V17l0,.28-.07.27-.12.25-.16.22-.19.2-.23.16-.25.12-.27.08,1.45,3.13H66.09l-1.43-3.11h-.22v3.11Zm1-6.11h1l.14.05.12.06.11.09.08.1L66,16l0,.14,0,.13V17l0,.14,0,.13-.07.12-.08.11-.11.08-.12.07-.14,0h-1Z" transform="translate(0 0)"/><polygon class="cls-5" points="68.19 21.68 68.19 14.67 69.2 14.67 69.2 17.18 70.66 14.67 71.82 14.67 69.86 18.06 71.97 21.68 70.8 21.68 69.2 18.93 69.2 21.68 68.19 21.68"/><polygon class="cls-6" points="68.19 21.68 68.19 14.67 69.2 14.67 69.2 17.18 70.66 14.67 71.82 14.67 69.86 18.06 71.97 21.68 70.8 21.68 69.2 18.93 69.2 21.68 68.19 21.68"/><polygon class="cls-5" points="72.88 21.68 72.88 14.67 76.21 14.67 76.21 15.57 73.89 15.57 73.89 17.72 75.4 17.72 75.4 18.63 73.89 18.63 73.89 20.78 76.21 20.78 76.21 21.68 72.88 21.68"/><polygon class="cls-6" points="72.88 21.68 72.88 14.67 76.21 14.67 76.21 15.57 73.89 15.57 73.89 17.72 75.4 17.72 75.4 18.63 73.89 18.63 73.89 20.78 76.21 20.78 76.21 21.68 72.88 21.68"/><polygon class="cls-5" points="77.27 21.68 77.27 14.67 80.59 14.67 80.59 15.57 78.27 15.57 78.27 17.72 79.79 17.72 79.79 18.63 78.27 18.63 78.27 20.78 80.59 20.78 80.59 21.68 77.27 21.68"/><polygon class="cls-6" points="77.27 21.68 77.27 14.67 80.59 14.67 80.59 15.57 78.27 15.57 78.27 17.72 79.79 17.72 79.79 18.63 78.27 18.63 78.27 20.78 80.59 20.78 80.59 21.68 77.27 21.68"/><path class="cls-5" d="M81.65,21.68v-7h2l.31,0,.3.09.28.15.25.2.2.24.15.27.09.31,0,.31V17l0,.28-.07.27-.12.25-.16.22-.19.2-.23.16-.25.12-.27.08,1.46,3.13H84.31l-1.44-3.11h-.21v3.11Zm1-6.11h1l.14.05.12.06.1.09.09.1.07.12,0,.14v1l0,.13-.07.12-.09.11-.1.08-.12.07-.14,0h-1Z" transform="translate(0 0)"/><path class="cls-6" d="M81.65,21.68v-7h2l.31,0,.3.09.28.15.25.2.2.24.15.27.09.31,0,.31V17l0,.28-.07.27-.12.25-.16.22-.19.2-.23.16-.25.12-.27.08,1.46,3.13H84.31l-1.44-3.11h-.21v3.11Zm1-6.11h1l.14.05.12.06.1.09.09.1.07.12,0,.14v1l0,.13-.07.12-.09.11-.1.08-.12.07-.14,0h-1Z" transform="translate(0 0)"/><path class="cls-5" d="M81.65,21.68v-7h2l.31,0,.3.09.28.15.25.2.2.24.15.27.09.31,0,.31V17l0,.28-.07.27-.12.25-.16.22-.19.2-.23.16-.25.12-.27.08,1.46,3.13H84.31l-1.44-3.11h-.21v3.11Zm1-6.11h1l.14.05.12.06.1.09.09.1.07.12,0,.14v1l0,.13-.07.12-.09.11-.1.08-.12.07-.14,0h-1Z" transform="translate(0 0)"/><path class="cls-6" d="M81.65,21.68v-7h2l.31,0,.3.09.28.15.25.2.2.24.15.27.09.31,0,.31V17l0,.28-.07.27-.12.25-.16.22-.19.2-.23.16-.25.12-.27.08,1.46,3.13H84.31l-1.44-3.11h-.21v3.11Zm1-6.11h1l.14.05.12.06.1.09.09.1.07.12,0,.14v1l0,.13-.07.12-.09.11-.1.08-.12.07-.14,0h-1Z" transform="translate(0 0)"/></g></g></g></svg>