<?xml version="1.0" encoding="utf-8"?>
<!-- Generator: Adobe Illustrator 21.1.0, SVG Export Plug-In . SVG Version: 6.00 Build 0)  -->
<svg version="1.1" id="Layer_1" xmlns="http://www.w3.org/2000/svg" xmlns:xlink="http://www.w3.org/1999/xlink" x="0px" y="0px"
	 viewBox="0 0 596.7 134.5" style="enable-background:new 0 0 596.7 134.5;" xml:space="preserve">
<style type="text/css">
	.st0{clip-path:url(#SVGID_2_);}
	.st1{fill:url(#SVGID_3_);}
	.st2{fill:#0F0708;}
</style>
<g>
	<g>
		<defs>
			<path id="SVGID_1_" d="M0,6.5c0,0,15.6,9.9,24.4,26.3c5.6,10.4,6.9,19.7,7.8,22.7C49.6,55.8,57,63.7,67,81.7
				c2.2,3.9,4.5,8,6.7,11.8l0,0l0,0l0,0c-3.2-4.9-6.8-10.3-10-14.6c-7.2-9.8-16.5-19-30.8-19.3c-3.3-0.1-4.3-0.1-5.6-0.1
				s-3,0-8.2-0.1c15.4,8.6,16.6,29.9,26.4,43.7c9,12.7,16.9,23.3,39.7,27.7c3.2,0.6,10.8,1.8,14.3,1.6c-4.7-4-8.4-9.6-12.6-16.7
				c-4.4-8.3-8-17.1-10.8-26.1C71.9,75.9,67.6,59,65.4,50C61.1,31.8,53.8,15.1,32.3,8.6C25.8,6.7,13.4,6.4,6,6.4
				C2.4,6.4,0,6.5,0,6.5"/>
		</defs>
		<clipPath id="SVGID_2_">
			<use xlink:href="#SVGID_1_"  style="overflow:visible;"/>
		</clipPath>
		<g class="st0">
			
				<linearGradient id="SVGID_3_" gradientUnits="userSpaceOnUse" x1="-15.7329" y1="356.0266" x2="-14.7329" y2="356.0266" gradientTransform="matrix(22.7955 -106.379 106.379 22.7955 -37476.125 -9668.3613)">
				<stop  offset="0" style="stop-color:#4E9B47"/>
				<stop  offset="0.33" style="stop-color:#6CAD42"/>
				<stop  offset="1" style="stop-color:#A6CE39"/>
			</linearGradient>
			<polygon class="st1" points="-25.7,127.2 4.6,-14.1 125.8,11.9 95.5,153.2 			"/>
		</g>
	</g>
	<path class="st2" d="M107.9,6.5l-24,92.2c4.9,12.3,9.5,22.5,16.9,29.3l26.4-101l0.2-0.8c0.3-1.2,0.4-2.4,0.4-3.6
		C127.7,12.9,119.1,6.7,107.9,6.5"/>
	<path class="st2" d="M18.2,63.3L0.5,130.8h24.6l10.1-39C30.6,78.9,26,68.9,18.2,63.3"/>
	<path class="st2" d="M200.9,130.8h-17c-3.1,0-4.9-0.8-5.2-2.5c-0.4-1.7-0.1-4.1,0.7-7.3c-3.5,3.3-7.4,5.9-11.8,7.9
		c-5,2.4-11.2,3.6-18.7,3.6c-8.8,0-14.9-1.8-18.3-5.3c-3.3-3.5-4.9-8.1-4.6-13.8c0.2-3.1,0.6-6.2,1.2-9.3c0.7-3.3,1.4-6.6,2.3-9.8
		l13.4-51.5c1-0.2,2.1-0.4,3.1-0.5c1.9-0.2,3.8-0.3,5.7-0.3c2,0,3.9,0.2,5.8,0.6c1.8,0.3,3.4,1.1,4.9,2.2c1.4,1.1,2.4,2.7,2.8,4.5
		c0.5,2.5,0.3,5.1-0.5,7.5l-9.5,36.4c-0.7,2.9-1.3,5.4-1.7,7.7c-0.4,2-0.4,4-0.1,5.9c0.4,1.7,1.4,3.1,2.9,3.9c1.6,0.9,4,1.4,7.2,1.4
		c4.4,0.1,8.7-0.9,12.6-2.8c3.8-1.9,6.1-4.3,6.8-7.1l15.4-59.3c1-0.2,2.1-0.4,3.1-0.5c1.9-0.2,3.8-0.3,5.7-0.3c2,0,3.9,0.2,5.8,0.7
		c1.8,0.4,3.4,1.2,4.8,2.4c1.4,1.3,2.3,3,2.7,4.8c0.4,2.6,0.3,5.2-0.5,7.7L200.9,130.8z"/>
	<path class="st2" d="M226.6,117.4c-0.2-2.6-0.1-5.2,0.4-7.8c0.5-2.7,1-5.5,1.8-8.2l22.4-86.2l2.9-0.4c0.9-0.1,1.9-0.2,2.9-0.3
		c1-0.1,2-0.1,3-0.1c2,0,3.9,0.2,5.8,0.6c1.8,0.3,3.4,1.1,4.8,2.2c1.4,1.2,2.3,2.8,2.7,4.6c0.5,2.5,0.3,5.1-0.5,7.5l-3.4,13
		l26.2,0.1l-4.9,19l-26.2-0.1l-10.3,39.7c-2.3,8.7,0.2,13,7.3,13c1.8,0,3.5-0.3,5.2-0.8c1.6-0.5,3.2-1.1,4.8-1.8
		c1.3-0.6,2.6-1.3,3.8-2.1c1.1-0.7,1.8-1.3,2.3-1.7c1,2.3,1.8,4.7,2.5,7.1c0.5,1.8,0.5,3.7,0,5.6c-0.6,1.9-1.7,3.5-3.2,4.7
		c-2,1.7-4.2,3.2-6.6,4.3c-3,1.4-6.2,2.5-9.4,3.1c-3.7,0.8-7.5,1.2-11.3,1.2c-7.8,0-13.5-1.5-17-4.5
		C229,126.2,226.8,122,226.6,117.4"/>
	<path class="st2" d="M334.4,51.9c1.3-1.3,2.6-2.6,4-3.7c3.6-2.9,7.7-5.1,12.2-6.5c2.4-0.7,4.8-1.1,7.3-1.1c1.6,0,3.1,0.1,4.7,0.4
		c1.5,0.2,3,0.7,4.3,1.4c2.7,1.3,3.9,4.4,2.9,7.2c-1,3.3-2.5,6.4-4.5,9.3c-2,3.1-4.2,6.2-6.5,9.1c-1.5-1.6-3.3-3-5.3-4
		c-2.2-1-4.7-1.5-7.1-1.4c-3.8,0-7.5,1.1-10.6,3.3c-2.9,1.8-5,4.7-6,8L314.9,131h-25.4l22.9-87.9l2.3-0.4c0.8-0.1,1.7-0.2,2.7-0.3
		s2.2-0.1,3.6-0.1c3.4-0.1,6.8,0.7,9.8,2.3C333.3,46.2,334.7,49,334.4,51.9"/>
	<path class="st2" d="M385.7,132.3c-1.1,0.3-2.3,0.5-3.5,0.6c-1.8,0.1-3.7,0.2-5.6,0.2c-4.9,0-8.5-1-11.1-3.1
		c-2.5-2.1-3-6.2-1.4-12.4l19.4-74.3c1-0.2,2.1-0.4,3.1-0.5c1.9-0.2,3.8-0.3,5.7-0.3c2,0,3.9,0.2,5.8,0.6c1.8,0.3,3.4,1.1,4.9,2.2
		c1.4,1.1,2.4,2.7,2.8,4.5c0.5,2.5,0.3,5.1-0.5,7.5L385.7,132.3z M416.8,13.6c-1,3.9-3.3,7.3-6.5,9.6c-3,2.4-6.7,3.7-10.6,3.7
		c-3.9,0-6.8-1.2-8.8-3.7s-2.4-5.7-1.4-9.7c1-3.9,3.3-7.3,6.5-9.8c3-2.4,6.8-3.8,10.7-3.8c3.3-0.2,6.5,1.2,8.6,3.8
		C417.3,6.4,417.8,9.6,416.8,13.6"/>
	<path class="st2" d="M454.3,115.6c2.9,0,5.7-0.3,8.5-1c2.4-0.6,4.7-1.5,7-2.5c2-0.9,3.9-2,5.7-3.2c1.7-1.2,3.2-2.3,4.6-3.2
		c1.2,2.3,2.1,4.7,2.8,7.2c0.8,2.3,1,4.8,0.6,7.2c-0.7,2.7-2.9,5.2-6.6,7.4c-3.9,2.3-8.1,4-12.5,5.1c-5.7,1.5-11.6,2.2-17.5,2.1
		c-5.6,0-11.3-0.7-16.7-2.3c-5-1.3-9.6-4.1-13.1-7.8c-3.5-3.7-5.7-8.7-6.9-15c-1.1-6.3-0.4-14.2,2.1-23.7c1.8-7.2,4.8-14,8.9-20.2
		c3.7-5.4,8.2-10.1,13.4-14c4.8-3.6,10.2-6.3,15.9-8.1c5.3-1.7,10.8-2.5,16.4-2.6c7,0,12.6,1.1,16.9,3.3c4,1.9,7.3,5,9.6,8.8
		c2.1,3.8,3.3,8.2,3.4,12.6c0.1,5-0.5,10-1.8,14.9l-0.7,2.6c-0.3,1-0.6,2-0.9,3.2l-1,3.3c-0.3,0.9-0.6,1.7-0.9,2.5l-54.9-0.1
		c-1.3,6.8-0.6,12.5,1.9,17C440.9,113.2,446.2,115.5,454.3,115.6 M472.5,77.8c1.5-5.9,1.7-10.8,0.3-14.5c-1.3-3.7-5-5.6-11-5.6
		c-5.1-0.1-10,1.8-13.7,5.3c-3.9,3.5-6.7,8.4-8.3,14.8L472.5,77.8z"/>
	<path class="st2" d="M524.1,131.6l-25.6-0.1l22.9-87.9l2.3-0.4c0.8-0.1,1.7-0.2,2.7-0.3s2.2-0.1,3.6-0.1c3.4-0.1,6.8,0.6,9.8,2.1
		c2.6,1.4,3.7,3.9,3.5,7.5c3.5-3.3,7.4-5.9,11.8-7.9c5-2.4,11.2-3.6,18.7-3.6c8.8,0,14.9,1.8,18.3,5.3c3.3,3.5,4.9,8.1,4.6,13.8
		c-0.2,3.1-0.6,6.2-1.2,9.3c-0.7,3.3-1.4,6.6-2.3,9.8l-13.6,52.4l-25.4-0.1l13.3-51.3c0.7-2.7,1.3-5.3,1.7-7.6c0.4-2,0.4-4,0.1-6
		c-0.4-1.7-1.4-3.1-2.9-3.9c-1.6-0.9-4-1.4-7.2-1.4c-4.4-0.1-8.7,0.9-12.6,2.8c-3.8,1.9-6.1,4.3-6.8,7.1L524.1,131.6z"/>
</g>
</svg>
