<?xml version="1.0" encoding="UTF-8" standalone="no"?>
<!-- Created with Inkscape (http://www.inkscape.org/) -->

<svg
   xmlns:dc="http://purl.org/dc/elements/1.1/"
   xmlns:cc="http://creativecommons.org/ns#"
   xmlns:rdf="http://www.w3.org/1999/02/22-rdf-syntax-ns#"
   xmlns:svg="http://www.w3.org/2000/svg"
   xmlns="http://www.w3.org/2000/svg"
   xmlns:sodipodi="http://sodipodi.sourceforge.net/DTD/sodipodi-0.dtd"
   xmlns:inkscape="http://www.inkscape.org/namespaces/inkscape"
   width="195mm"
   height="195mm"
   viewBox="0 0 195 195"
   version="1.1"
   id="svg3845"
   inkscape:version="0.92.3 (2405546, 2018-03-11)"
   sodipodi:docname="Latvia_road_sign_402.svg">
  <defs
     id="defs3839" />
  <sodipodi:namedview
     id="base"
     pagecolor="#ffffff"
     bordercolor="#666666"
     borderopacity="1.0"
     inkscape:pageopacity="0.0"
     inkscape:pageshadow="2"
     inkscape:zoom="0.35"
     inkscape:cx="896.47293"
     inkscape:cy="215.32996"
     inkscape:document-units="mm"
     inkscape:current-layer="layer1"
     showgrid="false"
     inkscape:window-width="1600"
     inkscape:window-height="838"
     inkscape:window-x="-8"
     inkscape:window-y="-8"
     inkscape:window-maximized="1" />
  <metadata
     id="metadata3842">
    <rdf:RDF>
      <cc:Work
         rdf:about="">
        <dc:format>image/svg+xml</dc:format>
        <dc:type
           rdf:resource="http://purl.org/dc/dcmitype/StillImage" />
        <dc:title></dc:title>
      </cc:Work>
    </rdf:RDF>
  </metadata>
  <g
     inkscape:label="Layer 1"
     inkscape:groupmode="layer"
     id="layer1"
     transform="translate(25.011205,482.60376)">
    <path
       d="m 72.496544,-481.82725 c 53.262326,0 96.715736,43.44725 96.715736,96.72508 0,53.2685 -43.45341,96.72191 -96.715736,96.72191 -53.277742,0 -96.73124,-43.45341 -96.73124,-96.72191 0,-53.27783 43.453498,-96.72508 96.73124,-96.72508 z"
       style="fill:#ffffff;fill-opacity:1;stroke:#000000;stroke-width:1.55301702;stroke-linecap:butt;stroke-linejoin:miter;stroke-miterlimit:22.9260006;stroke-dasharray:none;stroke-opacity:1"
       id="path4393"
       inkscape:connector-curvature="0" />
    <path
       d="m 72.496544,-476.66191 c 50.417156,0 91.550396,41.127 91.550396,91.55974 0,50.42332 -41.13324,91.55657 -91.550396,91.55657 -50.432654,0 -91.5659,-41.13325 -91.5659,-91.55657 0,-50.43274 41.133246,-91.55974 91.5659,-91.55974"
       style="fill:#283996;fill-opacity:1;fill-rule:evenodd;stroke:none;stroke-width:3.10603404"
       id="path4389"
       inkscape:connector-curvature="0" />
    <path
       d="m 15.969851,-322.47211 v -38.76025 c 1.761165,-35.55788 21.524813,-56.53603 56.570183,-57.17893 h 17.49007 l -8.77765,-29.01966 68.997476,39.9125 -68.997476,39.68887 8.77765,-28.96066 h -17.49007 c -18.73872,0 -35.04537,16.33782 -35.04537,35.55788 v 38.76025 H 15.969851"
       style="fill:#ffffff;fill-opacity:1;fill-rule:evenodd;stroke:none;stroke-width:3.10603404"
       id="path4391"
       inkscape:connector-curvature="0" />
  </g>
</svg>
