<?xml version="1.0" encoding="UTF-8" standalone="no"?>
<!-- Created with Inkscape (http://www.inkscape.org/) -->
<svg
   xmlns:svg="http://www.w3.org/2000/svg"
   xmlns="http://www.w3.org/2000/svg"
   version="1.0"
   width="2500.0229"
   height="1599.9802"
   id="svg16658">
  <defs
     id="defs16660" />
  <g
     transform="translate(-931.815,815.2275)"
     id="layer1">
    <path
       d="M 3390.0126,780.35899 C 3410.6907,780.35899 3427.4443,763.65031 3427.4443,743.04543 L 3427.4443,-773.52045 C 3427.4443,-794.12534 3410.6907,-810.83383 3390.0126,-810.83383 L 973.65822,-810.83383 C 952.96244,-810.83383 936.20872,-794.12534 936.20872,-773.52045 L 936.20872,743.04543 C 936.20872,763.65031 952.96244,780.35899 973.65822,780.35899 L 3390.0126,780.35899 z "
       style="fill:white;fill-opacity:1;stroke:black;stroke-width:8.78735828;stroke-linecap:butt;stroke-linejoin:miter;stroke-miterlimit:4"
       id="path11669" />
    <path
       d="M 998.6128,718.17578 L 3365.0579,718.17578 L 3365.0579,-748.66811 L 998.6128,-748.66811 L 998.6128,718.17578 z "
       style="fill:#176fc1;fill-rule:nonzero;stroke:none"
       id="path11615" />
    <path
       d="M 1069.0418,-363.15992 L 2786.0866,-363.15992 L 2786.0866,-692.17154 L 1069.0418,-692.17154 L 1069.0418,-363.15992 z "
       style="fill:white;fill-rule:nonzero;stroke:none"
       id="path11617" />
    <path
       d="M 1955.3876,258.28628 L 1955.3876,161.89621 L 1937.578,161.89621 L 1920.4899,258.28628 L 1955.3876,258.28628"
       style="fill:white;fill-rule:nonzero;stroke:none"
       id="path11619" />
    <path
       d="M 1915.4039,287.05251 L 1886.0322,452.76925 L 1955.3876,452.76925 L 1955.3876,287.03484 L 1915.4039,287.05251"
       style="fill:white;fill-rule:nonzero;stroke:none"
       id="path11621" />
    <path
       d="M 2018.5485,287.05251 L 2047.9203,452.76925 L 1978.5472,452.76925 L 1978.5472,287.03484 L 2018.5485,287.05251"
       style="fill:white;fill-rule:nonzero;stroke:none"
       id="path11623" />
    <path
       d="M 1978.5472,258.28628 L 1978.5472,161.89621 L 1996.357,161.89621 L 2013.4451,258.28628 L 1978.5472,258.28628"
       style="fill:white;fill-rule:nonzero;stroke:none"
       id="path11625" />
    <path
       d="M 2098.1463,265.06104 L 2098.1463,276.89026 L 2084.0851,276.89026 L 2084.0851,316.64338 L 2053.1471,316.64338 L 2053.1471,276.89026 L 1880.7878,276.89026 L 1880.7878,316.64338 L 1849.8674,316.64338 L 1849.8674,276.89026 L 1835.8062,276.89026 L 1835.8062,265.06104 L 2098.1463,265.06104"
       style="fill:white;fill-rule:nonzero;stroke:none"
       id="path11627" />
    <path
       d="M 1926.9837,-657.68373 C 1910.8987,-657.68373 1848.3187,-657.68373 1848.3187,-657.68373 L 1848.3187,-412.51355 L 1883.4805,-412.51355 L 1883.4805,-500.07568 C 1883.4805,-500.07568 1910.8987,-500.07568 1926.9837,-500.07568 C 1970.6632,-500.07568 2006.0712,-535.35337 2006.0712,-578.87962 C 2006.0712,-622.40622 1970.6632,-657.68373 1926.9837,-657.68373 z M 1926.9837,-535.10738 C 1904.7921,-535.10738 1883.4805,-535.10738 1883.4805,-535.10738 L 1883.4805,-622.66951 C 1883.4805,-622.66951 1911.8669,-622.66951 1926.9837,-622.66951 C 1951.252,-622.66951 1970.9096,-603.06498 1970.9096,-578.87962 C 1970.9096,-554.69442 1951.252,-535.10738 1926.9837,-535.10738"
       style="fill:black;fill-rule:nonzero;stroke:none"
       id="path11629" />
    <path
       d="M 1480.3527,-471.97625 C 1483.2565,-434.71568 1517.5382,-405.42305 1559.2994,-405.42305 C 1602.9788,-405.42305 1638.3867,-437.57656 1638.3867,-477.22407 C 1638.3867,-516.87193 1602.9788,-549.02526 1559.2994,-549.02526 C 1535.0311,-549.02526 1515.3737,-565.48813 1515.3737,-585.79476 C 1515.3737,-606.10122 1535.0311,-622.56408 1559.2994,-622.56408 C 1579.8719,-622.56408 1597.2417,-610.52421 1602.0284,-594.55279 L 1637.7533,-594.55279 C 1632.9489,-630.02331 1599.6702,-657.59597 1559.2994,-657.59597 C 1515.6201,-657.59597 1480.212,-625.44263 1480.212,-585.79476 C 1480.212,-546.14708 1515.6201,-513.99356 1559.2994,-513.99356 C 1583.5677,-513.99356 1603.2427,-497.5307 1603.2427,-477.22407 C 1603.2427,-456.91761 1583.5677,-440.45493 1559.2994,-440.45493 C 1537.1605,-440.45493 1518.8406,-454.16197 1515.8136,-472.01139 L 1480.3527,-471.97625"
       style="fill:black;fill-rule:nonzero;stroke:none"
       id="path11631" />
    <path
       d="M 2165.1957,-519.13614 L 2165.1957,-519.13614 C 2165.1957,-557.81842 2133.7297,-589.18224 2094.9081,-589.18224 C 2056.0684,-589.18224 2024.6023,-557.81842 2024.6023,-519.13614 L 2024.6023,-477.10135 C 2024.6023,-438.41906 2056.0684,-407.05524 2094.9081,-407.05524 C 2133.7297,-407.05524 2165.1957,-438.41906 2165.1957,-477.10135 L 2165.1957,-519.13614 z M 2094.9081,-442.08713 C 2075.4971,-442.08713 2059.7465,-457.76011 2059.7465,-477.10135 L 2059.7465,-519.13614 C 2059.7465,-538.47737 2075.4971,-554.15036 2094.9081,-554.15036 C 2114.3193,-554.15036 2130.0524,-538.47737 2130.0524,-519.13614 L 2130.0524,-477.10135 C 2130.0524,-457.76011 2114.3193,-442.08713 2094.9081,-442.08713"
       style="fill:black;fill-rule:nonzero;stroke:none"
       id="path11633" />
    <path
       d="M 2633.4377,-591.13035 C 2621.2244,-591.13035 2609.011,-586.4967 2598.2759,-578.84448 L 2598.2759,-587.63763 L 2563.1318,-587.63763 L 2563.1318,-412.51355 L 2598.2759,-412.51355 L 2598.2759,-521.10173 C 2598.2759,-540.44278 2614.0088,-556.11594 2633.4377,-556.11594 C 2652.8488,-556.11594 2668.5816,-540.44278 2668.5816,-521.10173 L 2668.5816,-412.51355 L 2703.7258,-412.51355 L 2703.7258,-521.10173 C 2703.7258,-559.78401 2672.2597,-591.13035 2633.4377,-591.13035"
       style="fill:black;fill-rule:nonzero;stroke:none"
       id="path11635" />
    <path
       d="M 2459.9344,-590.49852 C 2421.0946,-590.49852 2389.6287,-559.13471 2389.6287,-520.45242 L 2389.6287,-478.41763 C 2389.6287,-439.73534 2421.0946,-408.37153 2459.9344,-408.37153 C 2490.0983,-408.37153 2515.8448,-427.32656 2525.8055,-453.93382 L 2485.0827,-453.9513 C 2478.6945,-447.44019 2469.7897,-443.4034 2459.9344,-443.4034 C 2440.5234,-443.4034 2424.7729,-459.07639 2424.7729,-478.41763 L 2424.7729,-481.92782 L 2530.2226,-481.92782 L 2530.2226,-520.45242 C 2530.2226,-559.13471 2498.7567,-590.49852 2459.9344,-590.49852 z M 2495.0786,-516.9597 L 2424.7729,-516.9597 L 2424.7729,-520.45242 C 2424.7729,-539.79348 2440.5234,-555.48413 2459.9344,-555.48413 C 2479.3455,-555.48413 2495.0786,-539.79348 2495.0786,-520.45242 L 2495.0786,-516.9597"
       style="fill:black;fill-rule:nonzero;stroke:none"
       id="path11637" />
    <path
       d="M 2237.0501,-447.49281 L 2237.0501,-447.49281 C 2233.1609,-447.49281 2230.0108,-450.61681 2230.0108,-454.49537 L 2230.0108,-657.63092 L 2194.8668,-657.63092 L 2194.8668,-454.49537 L 2194.9195,-454.47789 C 2194.9195,-431.31073 2213.7851,-412.51355 2237.0501,-412.51355 L 2247.5916,-412.51355 L 2247.5916,-447.49281 L 2237.0501,-447.49281"
       style="fill:black;fill-rule:nonzero;stroke:none"
       id="path11639" />
    <path
       d="M 1742.0593,-587.63763 L 1717.4566,-587.63763 L 1717.4566,-657.68373 L 1682.3126,-640.1677 L 1682.3126,-587.63763 L 1657.7099,-587.63763 L 1657.7099,-552.62323 L 1682.3126,-552.62323 L 1682.3126,-412.51355 L 1717.4566,-412.51355 L 1717.4566,-552.62323 L 1742.0593,-552.62323 L 1742.0593,-587.63763"
       style="fill:black;fill-rule:nonzero;stroke:none"
       id="path11641" />
    <path
       d="M 1770.3577,-447.54561 L 1805.5016,-447.54561 L 1805.5016,-412.51355 L 1770.3577,-412.51355 L 1770.3577,-447.54561 z "
       style="fill:black;fill-rule:nonzero;stroke:none"
       id="path11643" />
    <path
       d="M 2361.4535,-587.63763 L 2336.8333,-587.63763 L 2336.8333,-657.68373 L 2301.6894,-640.1677 L 2301.6894,-587.63763 L 2277.0867,-587.63763 L 2277.0867,-552.62323 L 2301.6894,-552.62323 L 2301.6894,-412.51355 L 2336.8333,-412.51355 L 2336.8333,-552.62323 L 2361.4535,-552.62323 L 2361.4535,-587.63763"
       style="fill:black;fill-rule:nonzero;stroke:none"
       id="path11645" />
    <path
       d="M 2041.7433,-639.9044 L 2076.8874,-639.9044 L 2076.8874,-604.87271 L 2041.7433,-604.87271 L 2041.7433,-639.9044 z "
       style="fill:black;fill-rule:nonzero;stroke:none"
       id="path11647" />
    <path
       d="M 2112.1898,-639.9044 L 2147.3332,-639.9044 L 2147.3332,-604.87271 L 2112.1898,-604.87271 L 2112.1898,-639.9044 z "
       style="fill:black;fill-rule:nonzero;stroke:none"
       id="path11649" />
    <path
       d="M 2538.5467,134.02494 L 2477.2866,381.79271 L 2420.8837,134.02494 L 2420.8837,134.00745 L 2370.288,134.00745 L 2313.8851,381.79271 L 2252.6246,134.00745 L 2202.0116,134.00745 L 2289.5463,473.47921 L 2338.2236,473.47921 L 2395.5769,237.90954 L 2452.948,473.49669 L 2501.6251,473.49669 L 2589.1599,134.00745 L 2538.5467,134.02494"
       style="fill:white;fill-rule:nonzero;stroke:none"
       id="path11651" />
    <path
       d="M 3047.6171,226.20306 C 3030.705,226.20306 3013.8105,232.62658 2998.9396,243.22764 L 2998.9396,231.04701 L 2950.2801,231.04701 L 2950.2801,473.49669 L 2998.9396,473.49669 L 2998.9396,323.1725 C 2998.9396,296.40719 3020.7266,274.69635 3047.6171,274.69635 C 3074.4899,274.69635 3096.2767,296.40719 3096.2767,323.1725 L 3096.2767,473.49669 L 3144.9365,473.49669 L 3144.9365,323.1725 C 3144.9365,269.62442 3101.3627,226.20306 3047.6171,226.20306"
       style="fill:white;fill-rule:nonzero;stroke:none"
       id="path11653" />
    <path
       d="M 2806.8175,225.5186 C 2753.0718,225.5186 2709.4981,268.93996 2709.4981,322.48805 L 2709.4981,380.6871 C 2709.4981,434.2352 2753.0718,477.65637 2806.8175,477.65637 C 2848.5962,477.65637 2884.2332,451.43531 2898.0302,414.59571 L 2841.645,414.56057 C 2832.7928,423.56422 2820.474,429.16291 2806.8175,429.16291 C 2779.9447,429.16291 2758.1578,407.45241 2758.1578,380.6871 L 2758.1578,375.8253 L 2904.1545,375.8253 L 2904.1545,322.48805 C 2904.1545,268.93996 2860.5807,225.5186 2806.8175,225.5186 z M 2855.4947,327.33202 L 2758.1578,327.33202 L 2758.1578,322.48805 C 2758.1578,295.70509 2779.9447,273.99441 2806.8175,273.99441 C 2833.6905,273.99441 2855.4947,295.70509 2855.4947,322.48805 L 2855.4947,327.33202"
       style="fill:white;fill-rule:nonzero;stroke:none"
       id="path11655" />
    <path
       d="M 2619.8516,182.55373 L 2668.5112,182.55373 L 2668.5112,134.06008 L 2619.8516,134.06008 L 2619.8516,182.55373 z "
       style="fill:white;fill-rule:nonzero;stroke:none"
       id="path11657" />
    <path
       d="M 2619.8516,473.49669 L 2668.5112,473.49669 L 2668.5112,231.04701 L 2619.8516,231.04701 L 2619.8516,473.49669 z "
       style="fill:white;fill-rule:nonzero;stroke:none"
       id="path11659" />
    <path
       d="M 1141.6882,-397.15648 L 1403.641,-397.15648 L 1403.641,-658.17499 L 1141.6882,-658.17499 L 1141.6882,-397.15648 z "
       style="fill:#176fc1;fill-rule:nonzero;stroke:none"
       id="path11661" />
    <path
       d="M 1264.2439,-627.6189 L 1231.6867,-593.42951 L 1231.6867,-550.92075 L 1264.2439,-584.89964 L 1264.2439,-421.14883 L 1293.8443,-421.14883 L 1293.8443,-627.6189 L 1264.2439,-627.6189"
       style="fill:white;fill-rule:nonzero;stroke:none"
       id="path11663" />
    <path
       d="M 1503.6707,268.06214 C 1495.4521,267.21983 1488.1136,273.15192 1487.2514,281.33072 C 1486.7233,286.50826 1488.9055,291.33473 1492.6716,294.38864 L 1531.1419,329.28012 L 1338.6148,453.4009 L 1338.6148,-69.830037 L 1403.0779,-53.068921 C 1408.8678,-51.243358 1415.4321,-52.243723 1420.5003,-56.333308 C 1428.5077,-62.792159 1429.7395,-74.516128 1423.2634,-82.501928 L 1278.8505,-313.49075 L 1134.4552,-82.501928 C 1127.979,-74.516128 1129.2109,-62.792159 1137.2182,-56.333308 C 1142.2865,-52.243723 1148.8507,-51.243358 1154.6407,-53.068921 L 1219.7548,-70.005385 L 1219.7548,651.92029 L 1338.6148,651.92029 L 1338.6148,568.35998 L 1584.2716,409.97971 L 1601.131,460.35101 C 1602.4156,465.00197 1605.9529,468.95116 1610.9157,470.54821 C 1618.7646,473.07553 1627.1943,468.79311 1629.7458,460.96536 L 1722.1202,263.67448 L 1503.6707,268.06214"
       style="fill:white;fill-rule:nonzero;stroke:none"
       id="path11665" />
    <path
       d="M 1810.6229,487.69553 L 2123.2065,487.69553 L 2123.2065,129.44428 L 1810.6229,129.44428 L 1810.6229,487.69553 z "
       style="fill:none;stroke:white;stroke-width:17.57471657;stroke-linecap:butt;stroke-linejoin:miter;stroke-miterlimit:4"
       id="path11667" />
  </g>
</svg>
