<?xml version="1.0" encoding="utf-8"?>
<!-- Generator: Adobe Illustrator 23.0.5, SVG Export Plug-In . SVG Version: 6.00 Build 0)  -->
<svg version="1.1" id="Layer_1" xmlns="http://www.w3.org/2000/svg" xmlns:xlink="http://www.w3.org/1999/xlink" x="0px" y="0px"
	 viewBox="0 0 7979.53 6377.95" style="enable-background:new 0 0 7979.53 6377.95;" xml:space="preserve">
<style type="text/css">
	.st0{fill:#FFFFFF;stroke:#000000;stroke-width:6;stroke-miterlimit:10;}
	.st1{fill:#016C54;}
	.st2{fill:#FFFFFF;}
	.st3{fill:#FFFEFF;}
</style>
<path class="st0" d="M7760.67,6370.87H218.85c-116.96,0-211.77-94.81-211.77-211.77V218.85C7.09,101.9,101.9,7.09,218.85,7.09
	h7541.82c116.96,0,211.77,94.81,211.77,211.77V6159.1C7972.44,6276.05,7877.63,6370.87,7760.67,6370.87z"/>
<path class="st1" d="M7731.85,6274.73H248.36c-78.27,0-141.72-63.45-141.72-141.72V251.09c0-78.27,63.45-141.72,141.72-141.72
	h7483.49c78.27,0,141.72,63.45,141.72,141.72v5881.92C7873.57,6211.28,7810.12,6274.73,7731.85,6274.73z"/>
<g>
	<path class="st2" d="M2675.94,705.63c30.1,0,56.04,10.67,77.81,31.96c21.3,21.77,31.96,47.94,31.96,78.5v408.49
		c51.41-43.07,103.51-65.53,156.31-67.39V776.5c0-19.46,6.95-36.13,20.84-50.03c13.89-13.89,30.79-20.84,50.71-20.84
		c19.45,0,36.13,6.95,50.02,20.84c13.89,13.9,20.84,30.57,20.84,50.03v384.88l7.64,1.38c33.35,6.03,60.2,22.47,80.59,49.33
		c20.38,27.33,28.71,57.9,25.01,91.7c-4.17,33.81-19.22,61.6-45.15,83.37c-25.94,21.77-55.82,31.71-89.62,29.87
		c-33.81-2.31-62.29-15.73-85.45-40.29c-23.62-24.55-35.43-53.72-35.43-87.53v-17.37c-32.42,5.56-67.86,22.01-106.29,49.33
		c-23.17,17.61-46.79,40.76-70.86,69.47c-14.83,17.15-31.5,25.95-50.02,26.4c-19.92,0-36.59-6.94-50.02-20.84
		c-13.9-13.89-20.84-30.57-20.84-50.02V921c-23.17-6.95-42.15-20.15-56.97-39.61c-14.36-19.45-21.53-41.21-21.53-65.3
		c0-30.57,10.65-56.73,31.95-78.5C2619.2,716.3,2645.37,705.63,2675.94,705.63z M3084.44,1310.04c6.01,0,11.12-2.09,15.28-6.25
		s6.25-9.03,6.25-14.59c0-6.02-2.09-11.12-6.25-15.28c-4.17-4.17-9.27-6.25-15.28-6.25V1310.04z"/>
	<path class="st2" d="M3313.7,1396.18c-13.9-13.89-20.84-30.57-20.84-50.02V848.75c0-39.83,23.38-73.64,70.16-101.43
		c46.78-27.78,103.52-41.68,170.21-41.68h17.37c66.23,0,122.97,13.9,170.21,41.68c46.77,27.79,70.17,61.6,70.17,101.43v497.42
		c0,19.45-6.95,36.13-20.84,50.02c-13.9,13.9-30.81,20.84-50.72,20.84c-19.45,0-36.13-6.94-50.02-20.84
		c-13.89-13.89-20.84-30.57-20.84-50.02V865.42c0-15.74-9.72-29.18-29.17-40.3c-19-11.57-42.15-17.36-69.48-17.36h-15.97
		c-27.34,0-50.72,5.79-70.17,17.36c-19,11.12-28.48,24.56-28.48,40.3v175.07c8.79-21.76,21.53-40.53,38.21-56.27
		c21.3-19.46,45.38-29.41,72.25-29.88c24.54,0,45.38,8.8,62.53,26.4c17.6,17.15,26.4,37.99,26.4,62.53c0,24.56-8.8,45.62-26.4,63.22
		c-17.14,17.14-37.98,25.7-62.53,25.7c-14.36,0-27.56-3.01-39.6-9.03c-15.28,2.77-27.33,8.58-36.13,17.37
		c-12.05,12.97-23.62,35.89-34.73,68.77v136.86c0,19.45-6.95,36.13-20.84,50.02c-13.9,13.9-30.81,20.84-50.72,20.84
		C3344.26,1417.02,3327.59,1410.08,3313.7,1396.18z"/>
	<path class="st2" d="M4321.73,1310.04c0,29.65-10.42,54.88-31.26,75.72c-20.84,20.84-45.85,31.26-75.03,31.26
		c-29.65,0-54.88-10.42-75.73-31.26c-20.84-20.84-31.26-46.08-31.26-75.72c0-22.23,6.71-42.6,20.15-61.13
		c12.96-18.52,30.1-31.5,51.41-38.91v-146.59c0-36.13-29.18-62.28-87.53-78.49c-64.85-14.35-130.38-16.21-196.61-5.56
		c-0.47-12.04-0.69-26.16-0.69-42.38c0.46-73.64,15.28-129.91,44.46-168.82c31.96-41.21,79.66-62.05,143.11-62.53
		c25.01,0,54.64,4.41,88.93,13.21c40.75,10.2,62.75,15.52,66,15.98c31.02,4.64,51.41-4.63,61.13-27.79
		c15.28,22.69,22.92,44.46,22.92,65.3c-1.86,24.1-11.12,42.85-27.79,56.28c-19.45,16.21-38.9,23.39-58.36,21.53
		c-6.95,0.47-28.95-5.78-66-18.75c-37.52-12.96-68.78-18.75-93.79-17.37c-38.45,2.78-59.52,25.02-63.22,66.7
		c66.7,0.93,121.58,6.94,164.65,18.06c95.87,25.48,144.03,73.88,144.5,145.2V1310.04z"/>
	<path class="st2" d="M4910.16,624.35c32.88,0,58.82,6.03,77.82,18.06c16.21,10.2,25.02,23.4,26.39,39.61v6.95
		c-1.84,22.69-15.98,41.22-42.37,55.57c-16.21,9.26-35.43,14.82-57.66,16.68h-1.39c41.68,32.89,63.68,76.19,66,129.91v455.04
		c0,19.45-6.94,36.13-20.84,50.02c-13.88,13.9-30.57,20.84-50.02,20.84c-19.92,0-36.82-6.94-50.7-20.84
		c-13.9-13.89-20.84-30.57-20.84-50.02v-7.65c-0.94-27.78-12.51-64.37-34.74-109.76c-26.41-53.72-59.74-100.5-100.03-140.33
		c-18.55-15.28-32.9-23.85-43.08-25.7c-2.78-0.46-5.33-0.46-7.65,0c-4.65,1.85-8.12,5.79-10.43,11.8
		c-1.84,4.17-2.76,9.97-2.76,17.37v109.77c23.16,6.94,41.9,20.15,56.27,39.6c14.35,19.45,21.53,41.23,21.53,65.31
		c0,30.57-10.67,56.73-31.96,78.49c-21.76,21.31-47.7,31.96-77.8,31.96c-30.57,0-56.74-10.65-78.5-31.96
		c-21.31-21.76-31.96-47.93-31.96-78.49v-220.93c0.46-17.6,4.17-34.73,11.11-51.41c10.65-26.4,28.24-46.77,52.81-61.13
		c14.8-8.34,30.78-13.66,47.94-15.98c8.33-1.39,17.35-1.62,27.08-0.7c28.72,1.39,59.29,10.66,91.72,27.79
		c44.92,24.09,81.74,57.9,110.46,101.42v-184.1c0-6.95-1.65-14.82-4.88-23.63c-7.86-20.84-21.08-37.97-39.59-51.41
		c-16.21-10.65-37.06-18.06-62.53-22.23c-25.02-4.17-51.64-3.93-79.9,0.7c-32.9,6.03-61.84,14.59-86.84,25.7
		c-10.2,5.11-19.45,10.42-27.78,15.98c-13.9,10.2-23.4,20.84-28.49,31.96c-4.63-11.57-7.41-20.15-8.34-25.7
		c-1.39-5.56-2.08-12.04-2.08-19.45c0-5.1,0.46-10.19,1.39-15.28c2.78-14.82,9.48-28.49,20.15-40.99
		c7.39-8.79,17.82-17.83,31.25-27.1c26.41-16.2,57.19-28.24,92.41-36.13c22.68-5.1,48.39-7.87,77.11-8.34h11.8
		c38.45,0.94,73.17,6.49,104.21,16.68l4.86-2.08c21.76-10.66,41-25.94,57.66-45.86C4915.02,652.14,4919.43,635.47,4910.16,624.35z"
		/>
	<path class="st2" d="M5461.08,1306.57c0,30.57-10.67,56.73-31.96,78.49c-21.77,21.31-47.94,31.96-78.5,31.96
		c-30.12,0-56.04-10.65-77.81-31.96c-21.31-21.76-31.96-47.93-31.96-78.49c0-24.08,7.18-45.86,21.54-65.31
		c14.35-19.45,33.11-32.88,56.27-40.29V860.55c0-6.48-2.77-14.12-8.33-22.92c-8.34-14.35-20.84-25.24-37.52-32.65
		c-18.06-8.79-39.6-13.43-64.61-13.89c-22.22-0.92-42.14,2.08-59.74,9.03c-22.69,9.72-41.46,22.69-56.27,38.91
		c-8.8,9.72-14.36,18.29-16.68,25.7c-4.17-0.92-9.27-4.86-15.28-11.81c-7.88-9.26-11.81-19.68-11.81-31.26
		c0.46-11.12,4.86-23.85,13.21-38.21c6.94-11.57,16.9-22.22,29.87-31.96c19.91-15.28,46.08-27.32,78.5-36.13
		c28.24-6.48,55.8-9.72,82.67-9.72c61.59,0.47,112.54,15.28,152.83,44.47c36.13,26.86,54.65,63.68,55.58,110.45V1306.57z"/>
	<path class="st2" d="M5991.83,1310.04c0,29.65-10.42,54.88-31.26,75.72c-20.84,20.84-45.85,31.26-75.02,31.26
		c-29.65,0-54.89-10.42-75.73-31.26c-20.84-20.84-31.26-46.08-31.26-75.72c0-22.23,6.71-42.6,20.15-61.13
		c12.96-18.52,30.11-31.5,51.41-38.91v-146.59c0-36.13-29.17-62.28-87.53-78.49c-64.85-14.35-130.37-16.21-196.6-5.56
		c-0.46-12.04-0.7-26.16-0.7-42.38c0.46-73.64,15.28-129.91,44.47-168.82c31.95-41.21,79.65-62.05,143.1-62.53
		c25.01,0,54.64,4.41,88.93,13.21c40.75,10.2,62.75,15.52,66,15.98c31.03,4.64,51.41-4.63,61.13-27.79
		c15.29,22.69,22.93,44.46,22.93,65.3c-1.85,24.1-11.12,42.85-27.79,56.28c-19.45,16.21-38.9,23.39-58.35,21.53
		c-6.95,0.47-28.95-5.78-66.01-18.75c-37.51-12.96-68.77-18.75-93.79-17.37c-38.45,2.78-59.52,25.02-63.21,66.7
		c66.69,0.93,121.57,6.94,164.65,18.06c95.87,25.48,144.03,73.88,144.5,145.2V1310.04z"/>
	<path class="st2" d="M6522.6,1310.04c0,29.65-10.42,54.88-31.26,75.72c-20.84,20.84-45.85,31.26-75.02,31.26
		c-29.65,0-54.89-10.42-75.73-31.26c-20.84-20.84-31.26-46.08-31.26-75.72c0-22.23,6.71-42.6,20.15-61.13
		c12.96-18.52,30.11-31.5,51.41-38.91v-146.59c0-36.13-29.17-62.28-87.53-78.49c-64.85-14.35-130.37-16.21-196.6-5.56
		c-0.46-12.04-0.7-26.16-0.7-42.38c0.46-73.64,15.28-129.91,44.47-168.82c31.96-41.21,79.65-62.05,143.11-62.53
		c25.01,0,54.64,4.41,88.93,13.21c40.75,10.2,62.75,15.52,66,15.98c31.03,4.64,51.41-4.63,61.13-27.79
		c15.29,22.69,22.93,44.46,22.93,65.3c-1.85,24.1-11.12,42.85-27.79,56.28c-19.45,16.21-38.9,23.39-58.35,21.53
		c-6.95,0.47-28.95-5.78-66.01-18.75c-37.51-12.96-68.77-18.75-93.79-17.37c-38.45,2.78-59.52,25.02-63.21,66.7
		c66.69,0.93,121.57,6.94,164.65,18.06c95.87,25.48,144.03,73.88,144.5,145.2V1310.04z"/>
	<path class="st2" d="M6717.12,1396.18c-13.89-13.89-20.84-30.57-20.84-50.02V848.75c0-39.83,23.38-73.64,70.17-101.43
		c46.77-27.78,103.51-41.68,170.2-41.68h17.37c66.22,0,122.96,13.9,170.2,41.68c46.77,27.79,70.16,61.6,70.16,101.43v497.42
		c0,19.45-6.94,36.13-20.84,50.02c-13.89,13.9-30.8,20.84-50.71,20.84c-19.45,0-36.13-6.94-50.02-20.84
		c-13.9-13.89-20.84-30.57-20.84-50.02V865.42c0-15.74-9.73-29.18-29.18-40.3c-18.99-11.57-42.14-17.36-69.47-17.36h-15.98
		c-27.33,0-50.71,5.79-70.17,17.36c-18.99,11.12-28.48,24.56-28.48,40.3v175.07c8.79-21.76,21.54-40.53,38.2-56.27
		c21.3-19.46,45.39-29.41,72.26-29.88c24.54,0,45.38,8.8,62.52,26.4c17.6,17.15,26.4,37.99,26.4,62.53c0,24.56-8.8,45.62-26.4,63.22
		c-17.14,17.14-37.98,25.7-62.52,25.7c-14.36,0-27.57-3.01-39.61-9.03c-15.28,2.77-27.33,8.58-36.13,17.37
		c-12.05,12.97-23.62,35.89-34.73,68.77v136.86c0,19.45-6.95,36.13-20.84,50.02c-13.89,13.9-30.81,20.84-50.71,20.84
		C6747.69,1417.02,6731.02,1410.08,6717.12,1396.18z"/>
	<path class="st2" d="M7275.68,371.48c-0.45,0.46-0.7,1.16-0.7,2.08c0,0.94-0.23,1.86-0.7,2.78v0.7c0,0.93,0,1.85,0,2.77
		c0,0.93,0,2.09,0,3.47c-0.92,3.72-1.62,7.42-2.08,11.12c-2.78,16.22-9.04,30.81-18.76,43.77c-5.56,6.95-11.8,12.5-18.75,16.68
		c-6.95,3.71-14.35,6.02-22.23,6.94c-6.01,0.94-11.8,1.39-17.36,1.39c-2.78,0-5.32,0-7.65,0c-8.33,0-16.43,0.7-24.31,2.09
		c-16.21,2.77-31.72,7.88-46.55,15.28c-7.4,3.71-13.66,8.57-18.76,14.59h-0.7c-0.45,0.93-0.92,1.74-1.38,2.43
		c-0.46,0.7-0.7,1.51-0.7,2.43c0,0.47,0.12,0.7,0.34,0.7c0.25,0,0.59,0,1.05,0c0.46,0,0.69-0.23,0.69-0.7c0.47,0,0.94,0,1.39,0
		c4.17-1.84,8.58-3.24,13.21-4.17c16.21-3.24,31.72-0.92,46.55,6.94c14.82,8.8,25.47,21.31,31.96,37.52
		c5.55,15.28,5.79,30.81,0.69,46.55c-6.01,16.21-16.21,28.95-30.57,38.21c-14.35,7.88-29.87,10.88-46.55,9.03
		c-16.68-0.92-32.41-5.09-47.24-12.5c-14.34-7.87-25.46-18.99-33.34-33.35c-7.87-14.35-12.26-29.87-13.21-46.55
		c-0.45-16.68,1.63-32.88,6.25-48.63c4.17-15.73,11.35-30.32,21.54-43.76c5.1-6.48,10.89-12.51,17.37-18.07
		c5.56-4.63,11.58-8.79,18.06-12.5c0.47-0.46,1.17-0.93,2.09-1.39c6.49-4.17,13.2-7.65,20.15-10.42c7.88-3.24,15.98-6.02,24.31-8.34
		c14.83-4.17,29.65-7.17,44.47-9.03c5.56-0.92,11.11-1.62,16.67-2.08c11.59-1.39,23.17-3.01,34.74-4.86
		C7242.8,380.28,7259.48,376.57,7275.68,371.48z"/>
</g>
<g>
	<path class="st2" d="M2664.87,2335.06l-202.48-295.24v295.24h-90.91v-461.4h90.91l190.77,282.19v-282.19h90.91v461.4H2664.87z"/>
	<path class="st2" d="M3076.02,2335.06v-10.98c-16.08,6.41-31.68,10.64-46.83,12.7c-15.15,2.06-29.16,3.09-42.01,3.09
		c-18.83,0-36.05-2.75-51.65-8.24c-15.61-5.49-29.16-13.27-40.63-23.34c-11.48-10.06-20.32-22.08-26.52-36.05
		c-6.2-13.96-9.3-29.18-9.3-45.66c0-17.39,3.55-33.41,10.68-48.06c7.11-14.64,16.87-27.35,29.27-38.11
		c12.4-10.75,27.09-19.23,44.08-25.41c16.98-6.18,35.35-9.27,55.1-9.27c9.64,0,21.58,0.92,35.81,2.75
		c14.23,1.84,28.24,5.27,42.01,10.3c-0.93-16.02-6.89-27.57-17.9-34.67c-11.02-7.09-25.03-10.64-42.01-10.64
		c-32.14,0-64.05,8.7-95.73,26.09l-33.75-72.78c12.4-6.4,23.99-11.9,34.78-16.48c10.78-4.57,21.35-8.24,31.68-10.98
		c10.33-2.75,20.54-4.81,30.65-6.18c10.09-1.37,20.89-2.06,32.37-2.06c46.37,0,82.53,11.33,108.47,33.99
		c25.94,22.66,38.91,57.57,38.91,104.71v205.29H3076.02z M3076.02,2199.8c-13.77-5.03-27.89-8.81-42.36-11.33
		c-14.46-2.51-26.29-3.78-35.47-3.78c-14.7,0-26.98,3.55-36.85,10.64c-9.88,7.1-14.81,15.91-14.81,26.43
		c0,10.53,5.96,19.69,17.91,27.46c11.93,7.79,25.93,11.67,42.01,11.67c9.64,0,20.32-1.14,32.02-3.43
		c11.71-2.29,24.21-7.09,37.53-14.42V2199.8z"/>
	<path class="st2" d="M3555.36,2102.3l93.66,232.76h-93.66l-61.3-155.17l-53.72,53.56v101.62h-92.29V1902.5l92.29-35.7v227.95
		l97.11-94.07h115.01L3555.36,2102.3z"/>
	<path class="st2" d="M4008.52,2335.06V2133.2c0-15.56-5.06-28.6-15.15-39.14c-10.1-10.52-22.73-15.79-37.88-15.79
		c-8.26,0-16.42,1.37-24.45,4.12c-8.04,2.75-15.27,6.52-21.69,11.33c-6.44,4.8-11.71,10.3-15.84,16.48
		c-4.13,6.18-6.2,12.7-6.2,19.57v205.29h-92.29V1902.5l92.29-35.7v150.37c19.28-10.52,35.58-17.73,48.9-21.63
		c13.31-3.88,27.77-5.84,43.39-5.84c16.53,0,32.03,2.98,46.49,8.93c14.46,5.95,27.2,13.97,38.22,24.03
		c11.02,10.07,19.63,21.97,25.83,35.7c6.2,13.73,9.3,28.39,9.3,43.94v232.76H4008.52z"/>
	<path class="st2" d="M4556.04,2167.53c0,24.27-4.37,46.92-13.08,67.97c-8.73,21.06-20.44,39.48-35.12,55.27
		c-14.7,15.79-31.57,28.15-50.62,37.08c-19.06,8.92-38.91,13.39-59.57,13.39c-21.12,0-41.1-4.46-59.92-13.39
		c-18.83-8.93-35.36-21.29-49.59-37.08c-14.24-15.79-25.48-34.21-33.75-55.27c-8.26-21.05-12.4-43.71-12.4-67.97
		c0-25.17,4.01-48.51,12.05-70.03c8.03-21.51,19.05-40.17,33.06-55.96c14-15.79,30.41-28.15,49.24-37.08
		c18.82-8.93,39.25-13.39,61.29-13.39c20.2,0,39.83,4.58,58.88,13.73c19.05,9.16,35.92,21.75,50.62,37.76
		c14.69,16.03,26.52,34.79,35.47,56.3C4551.56,2120.39,4556.04,2143.27,4556.04,2167.53z M4462.37,2167.53
		c0-12.36-1.84-24.03-5.51-35.02c-3.68-10.99-8.5-20.48-14.46-28.49c-5.97-8-12.86-14.3-20.66-18.88
		c-7.81-4.57-15.84-6.87-24.11-6.87c-9.19,0-17.56,2.3-25.14,6.87c-7.58,4.58-14.24,10.88-19.97,18.88
		c-5.75,8.01-10.22,17.51-13.43,28.49c-3.22,10.98-4.82,22.66-4.82,35.02c0,11.91,1.6,23.12,4.82,33.64
		c3.21,10.53,7.68,19.69,13.43,27.46c5.74,7.79,12.4,13.97,19.97,18.54c7.58,4.58,15.95,6.87,25.14,6.87
		c8.27,0,16.29-2.29,24.11-6.87c7.8-4.57,14.69-10.75,20.66-18.54c5.96-7.78,10.78-16.93,14.46-27.46
		C4460.53,2190.65,4462.37,2179.44,4462.37,2167.53z"/>
	<path class="st2" d="M4912.09,2335.06V2133.2c0-15.56-4.94-28.6-14.81-39.14c-9.88-10.52-23.76-15.79-41.67-15.79
		c-8.27,0-16.19,1.49-23.76,4.46c-7.57,2.98-14.46,6.98-20.66,12.02c-6.2,5.04-11.14,10.76-14.81,17.17
		c-3.68,6.42-5.51,13.04-5.51,19.91v203.23h-92.29v-335.75h92.29v17.85c15.6-9.61,30.75-16.36,45.46-20.26
		c14.69-3.88,29.84-5.84,45.45-5.84c17.44,0,33.51,2.86,48.21,8.58c14.69,5.73,27.43,13.63,38.22,23.69
		c10.78,10.07,19.28,22.09,25.48,36.05c6.2,13.97,9.3,28.95,9.3,44.97v230.7H4912.09z"/>
	<path class="st2" d="M5764.02,2199.8c0,24.27-5.97,47.03-17.91,68.32c-11.94,21.29-28.01,37.66-48.21,49.09
		c-13.77,8.24-31.68,14.65-53.72,19.23c-22.04,4.57-44.08,6.87-66.12,6.87c-26.17,0-51.43-3.55-75.76-10.64
		c-24.34-7.09-46.61-17.51-66.81-31.24c-7.35-4.12-14.12-8.69-20.32-13.73c-6.2-5.03-14.58-12.36-25.14-21.97l64.74-64.54
		c19.28,17.85,38.67,30.67,58.2,38.45c19.51,7.79,42.81,11.67,69.91,11.67c26.62,0,48.32-4.34,65.08-13.04
		c16.75-8.69,25.14-21.05,25.14-37.08c0-6.4-1.84-13.5-5.51-21.29c-3.68-7.78-8.73-13.73-15.15-17.85
		c-4.13-2.28-8.5-4.46-13.08-6.52c-4.6-2.06-10.22-4-16.87-5.84c-6.66-1.82-14.93-3.78-24.79-5.84c-9.88-2.06-22.38-4.46-37.54-7.21
		c-24.79-5.94-44.77-11.56-59.92-16.82c-15.15-5.26-27.55-11.09-37.19-17.51c-15.62-10.52-27.89-24.94-36.85-43.26
		c-8.95-18.3-13.43-37.08-13.43-56.3c0-23.34,5.62-45.08,16.87-65.23c11.25-20.14,27.2-36.15,47.87-48.06
		c12.85-7.78,27.09-13.5,42.7-17.17c15.6-3.66,33.75-5.49,54.41-5.49c26.17,0,51.07,2.98,74.73,8.93
		c23.64,5.95,45.11,14.88,64.39,26.78c5.05,3.21,9.3,6.07,12.74,8.58c3.44,2.52,8.83,6.76,16.19,12.7l-56.47,72.09
		c-18.83-13.73-37.19-23.35-55.1-28.84c-17.91-5.49-37.88-8.24-59.92-8.24c-21.13,0-37.77,3.67-49.93,10.98
		c-12.17,7.33-18.25,18.31-18.25,32.96c0,5.49,1.6,11.11,4.82,16.82c3.21,5.73,7.58,9.73,13.08,12.02c4.13,2.3,8.49,4.01,13.09,5.15
		c4.58,1.15,9.4,2.64,14.46,4.46l14.46,1.37l16.53,3.43l20.66,3.43c54.17,9.61,95.04,26.89,122.59,51.84
		C5750.24,2126.23,5764.02,2159.07,5764.02,2199.8z"/>
	<path class="st2" d="M6081.51,2335.06v-10.98c-16.08,6.41-31.68,10.64-46.83,12.7c-15.15,2.06-29.16,3.09-42.01,3.09
		c-18.83,0-36.05-2.75-51.65-8.24c-15.62-5.49-29.16-13.27-40.63-23.34c-11.48-10.06-20.32-22.08-26.52-36.05
		c-6.2-13.96-9.3-29.18-9.3-45.66c0-17.39,3.55-33.41,10.68-48.06c7.11-14.64,16.87-27.35,29.27-38.11
		c12.4-10.75,27.09-19.23,44.08-25.41c16.98-6.18,35.35-9.27,55.1-9.27c9.64,0,21.58,0.92,35.81,2.75
		c14.23,1.84,28.24,5.27,42.01,10.3c-0.93-16.02-6.89-27.57-17.9-34.67c-11.02-7.09-25.03-10.64-42.01-10.64
		c-32.14,0-64.05,8.7-95.73,26.09l-33.75-72.78c12.4-6.4,23.99-11.9,34.78-16.48c10.78-4.57,21.35-8.24,31.68-10.98
		c10.33-2.75,20.54-4.81,30.65-6.18c10.09-1.37,20.89-2.06,32.37-2.06c46.37,0,82.53,11.33,108.47,33.99
		c25.94,22.66,38.91,57.57,38.91,104.71v205.29H6081.51z M6081.51,2199.8c-13.77-5.03-27.89-8.81-42.36-11.33
		c-14.46-2.51-26.29-3.78-35.47-3.78c-14.7,0-26.98,3.55-36.85,10.64c-9.88,7.1-14.81,15.91-14.81,26.43
		c0,10.53,5.96,19.69,17.91,27.46c11.93,7.79,25.93,11.67,42.01,11.67c9.64,0,20.32-1.14,32.02-3.43
		c11.71-2.29,24.21-7.09,37.53-14.42V2199.8z"/>
	<path class="st2" d="M6673.79,2335.06h-88.84l-42.01-166.16l-53.72,166.16h-88.84l-97.11-335.75h93.66l47.52,159.98l46.83-159.98
		h100.55l39.94,157.92l45.46-157.92h95.73L6673.79,2335.06z"/>
	<path class="st2" d="M7080.81,2335.06v-10.98c-16.08,6.41-31.68,10.64-46.83,12.7c-15.15,2.06-29.16,3.09-42.01,3.09
		c-18.83,0-36.05-2.75-51.65-8.24c-15.62-5.49-29.16-13.27-40.63-23.34c-11.48-10.06-20.32-22.08-26.52-36.05
		c-6.2-13.96-9.3-29.18-9.3-45.66c0-17.39,3.55-33.41,10.68-48.06c7.11-14.64,16.87-27.35,29.27-38.11
		c12.4-10.75,27.09-19.23,44.08-25.41c16.98-6.18,35.35-9.27,55.1-9.27c9.64,0,21.58,0.92,35.81,2.75
		c14.23,1.84,28.24,5.27,42.01,10.3c-0.93-16.02-6.89-27.57-17.9-34.67c-11.02-7.09-25.03-10.64-42.01-10.64
		c-32.14,0-64.05,8.7-95.73,26.09l-33.75-72.78c12.4-6.4,23.99-11.9,34.78-16.48c10.78-4.57,21.35-8.24,31.68-10.98
		c10.33-2.75,20.54-4.81,30.65-6.18c10.09-1.37,20.89-2.06,32.37-2.06c46.37,0,82.53,11.33,108.47,33.99
		c25.94,22.66,38.91,57.57,38.91,104.71v205.29H7080.81z M7080.81,2199.8c-13.77-5.03-27.89-8.81-42.36-11.33
		c-14.46-2.51-26.29-3.78-35.47-3.78c-14.7,0-26.98,3.55-36.84,10.64c-9.88,7.1-14.81,15.91-14.81,26.43
		c0,10.53,5.96,19.69,17.91,27.46c11.93,7.79,25.93,11.67,42.01,11.67c9.64,0,20.32-1.14,32.02-3.43
		c11.71-2.29,24.21-7.09,37.53-14.42V2199.8z"/>
	<path class="st2" d="M7566.34,2335.06V2133.2c0-15.56-4.94-28.6-14.81-39.14c-9.88-10.52-23.76-15.79-41.67-15.79
		c-8.27,0-16.19,1.49-23.76,4.46c-7.57,2.98-14.46,6.98-20.66,12.02c-6.2,5.04-11.14,10.76-14.81,17.17
		c-3.68,6.42-5.51,13.04-5.51,19.91v203.23h-92.29v-335.75h92.29v17.85c15.6-9.61,30.75-16.36,45.46-20.26
		c14.69-3.88,29.84-5.84,45.45-5.84c17.44,0,33.51,2.86,48.21,8.58c14.69,5.73,27.43,13.63,38.22,23.69
		c10.78,10.07,19.28,22.09,25.48,36.05c6.2,13.97,9.3,28.95,9.3,44.97v230.7H7566.34z"/>
</g>
<g>
	<path class="st2" d="M828.84,4684c-3.56,14.88-9.77,30.09-18.65,45.63c-7.56,13.32-16.77,25.42-27.64,36.3
		c-10.88,10.89-22.98,20.31-36.3,28.31c-13.32,7.99-27.54,14.1-42.63,18.32c-15.1,4.22-30.64,6.33-46.62,6.33
		c-24.43,0-47.62-4.66-69.6-13.99c-21.98-9.33-41.41-21.98-58.28-37.96c-16.88-15.99-30.31-34.64-40.3-55.95
		c-9.99-21.31-14.99-43.96-14.99-67.94v-15.32V4363.3h87.92v264.42v12.65c0,11.99,2.66,23.43,7.99,34.3
		c5.33,10.89,12.32,20.43,20.98,28.64c8.66,8.22,18.65,14.65,29.97,19.32c11.32,4.66,22.98,6.99,34.97,6.99
		c16.42,0,31.86-4,46.29-11.99c14.42-7.99,25.64-19.09,33.64-33.3c2.22-4.43,4.1-8.43,5.66-11.99c1.55-3.55,2.66-7.43,3.33-11.65
		c0.67-4.22,1.1-8.88,1.33-13.99c0.22-5.1,0.33-11.43,0.33-18.98V4363.3h87.92v264.42C834.17,4650.37,832.39,4669.13,828.84,4684z"
		/>
	<path class="st2" d="M1085.93,4563.78v121.89c0,15.1,2.43,26.54,7.33,34.3c4.88,7.77,15.54,10.99,31.97,9.66
		c11.54-0.89,19.87-3.1,24.98-6.66c5.1-3.55,11.43-9.33,18.98-17.32l-23.31,92.58c-7.56,3.11-13.32,5.78-17.32,7.99
		c-4,2.23-7.66,4-10.99,5.33c-3.33,1.33-7.11,2.33-11.32,3c-4.23,0.66-10.32,1-18.32,1c-30.64,0-53.18-8.66-67.61-25.98
		c-14.44-17.32-21.65-41.96-21.65-73.93v-151.86H937.4v-77.26h61.28v-95.25l87.25-34.64v128.55h83.26v78.59H1085.93z"/>
	<path class="st2" d="M1518.2,4810.89v-195.82c0-15.09-4.89-27.74-14.65-37.96c-9.77-10.21-21.98-15.32-36.63-15.32
		c-7.99,0-15.88,1.33-23.64,4c-7.77,2.66-14.77,6.33-20.98,10.99c-6.22,4.66-11.32,9.99-15.32,15.98s-6,12.32-6,18.98v199.15h-89.25
		v-419.61l89.25-34.64v145.87c18.65-10.21,34.41-17.2,47.29-20.98c12.87-3.77,26.86-5.66,41.96-5.66c15.99,0,30.97,2.89,44.96,8.66
		c13.99,5.78,26.31,13.55,36.97,23.31c10.66,9.77,18.98,21.31,24.98,34.64c6,13.32,8.99,27.54,8.99,42.63v225.79H1518.2z"/>
	<path class="st2" d="M1953.8,4810.89v-10.65c-15.55,6.22-30.64,10.32-45.29,12.32c-14.65,2-28.2,3-40.63,3
		c-18.21,0-34.86-2.66-49.95-7.99c-15.1-5.33-28.2-12.87-39.3-22.64c-11.1-9.77-19.65-21.42-25.64-34.97
		c-6-13.54-8.99-28.31-8.99-44.29c0-16.87,3.43-32.41,10.32-46.62c6.88-14.21,16.32-26.53,28.31-36.97
		c11.99-10.43,26.2-18.65,42.63-24.65c16.42-5.99,34.19-8.99,53.29-8.99c9.32,0,20.87,0.89,34.64,2.66
		c13.76,1.78,27.31,5.11,40.63,9.99c-0.89-15.54-6.66-26.74-17.32-33.63c-10.66-6.88-24.21-10.32-40.63-10.32
		c-31.09,0-61.94,8.44-92.58,25.31l-32.64-70.6c11.99-6.21,23.2-11.54,33.64-15.99c10.43-4.43,20.65-7.99,30.64-10.66
		c9.99-2.66,19.87-4.66,29.64-6c9.76-1.33,20.2-2,31.3-2c44.84,0,79.81,10.99,104.9,32.97c25.08,21.98,37.63,55.84,37.63,101.57
		v199.15H1953.8z M1953.8,4679.68c-13.32-4.88-26.97-8.55-40.96-10.99c-13.99-2.44-25.42-3.67-34.3-3.67
		c-14.22,0-26.09,3.44-35.63,10.33c-9.55,6.89-14.32,15.43-14.32,25.64c0,10.22,5.77,19.1,17.32,26.64
		c11.54,7.56,25.08,11.32,40.63,11.32c9.32,0,19.65-1.1,30.97-3.33c11.32-2.22,23.42-6.88,36.3-13.99V4679.68z"/>
	<path class="st2" d="M2216.88,4810.89v-325.7h89.25v325.7H2216.88z M2304.8,4400.6c0,11.55-4.22,21.76-12.65,30.64
		c-8.44,8.89-18.88,13.32-31.3,13.32c-11.55,0-21.54-4.43-29.97-13.32c-8.44-8.88-12.65-19.09-12.65-30.64
		c0-12.87,4.21-23.42,12.65-31.64c8.43-8.21,18.42-12.32,29.97-12.32c12.43,0,22.86,4.11,31.3,12.32
		C2300.58,4377.18,2304.8,4387.72,2304.8,4400.6z"/>
	<path class="st2" d="M2858.95,4452.55v358.34h-85.92v-358.34h-123.89v-89.25h331.7v89.25H2858.95z"/>
	<path class="st2" d="M3295.21,4810.89v-195.82c0-15.09-4.89-27.74-14.65-37.96c-9.77-10.21-21.98-15.32-36.63-15.32
		c-7.99,0-15.88,1.33-23.64,4c-7.77,2.66-14.77,6.33-20.98,10.99c-6.22,4.66-11.32,9.99-15.32,15.98s-6,12.32-6,18.98v199.15h-89.25
		v-419.61l89.25-34.64v145.87c18.65-10.21,34.41-17.2,47.29-20.98c12.87-3.77,26.86-5.66,41.96-5.66c15.99,0,30.97,2.89,44.96,8.66
		c13.99,5.78,26.31,13.55,36.97,23.31c10.66,9.77,18.98,21.31,24.98,34.64c6,13.32,8.99,27.54,8.99,42.63v225.79H3295.21z"/>
	<path class="st2" d="M3730.81,4810.89v-10.65c-15.55,6.22-30.64,10.32-45.29,12.32c-14.65,2-28.2,3-40.63,3
		c-18.21,0-34.86-2.66-49.95-7.99c-15.1-5.33-28.2-12.87-39.3-22.64c-11.1-9.77-19.65-21.42-25.64-34.97
		c-6-13.54-8.99-28.31-8.99-44.29c0-16.87,3.43-32.41,10.32-46.62c6.88-14.21,16.32-26.53,28.31-36.97
		c11.99-10.43,26.2-18.65,42.63-24.65c16.42-5.99,34.19-8.99,53.29-8.99c9.32,0,20.87,0.89,34.64,2.66
		c13.76,1.78,27.31,5.11,40.63,9.99c-0.9-15.54-6.66-26.74-17.32-33.63c-10.66-6.88-24.21-10.32-40.63-10.32
		c-31.09,0-61.94,8.44-92.58,25.31l-32.64-70.6c11.99-6.21,23.2-11.54,33.64-15.99c10.43-4.43,20.65-7.99,30.64-10.66
		c9.99-2.66,19.87-4.66,29.64-6c9.76-1.33,20.2-2,31.3-2c44.84,0,79.81,10.99,104.9,32.97c25.08,21.98,37.63,55.84,37.63,101.57
		v199.15H3730.81z M3730.81,4679.68c-13.32-4.88-26.97-8.55-40.96-10.99c-13.99-2.44-25.42-3.67-34.3-3.67
		c-14.22,0-26.09,3.44-35.63,10.33c-9.55,6.89-14.32,15.43-14.32,25.64c0,10.22,5.77,19.1,17.32,26.64
		c11.54,7.56,25.08,11.32,40.63,11.32c9.32,0,19.65-1.1,30.97-3.33c11.32-2.22,23.42-6.88,36.3-13.99V4679.68z"/>
	<path class="st2" d="M4200.37,4810.89v-195.82c0-15.09-4.78-27.74-14.32-37.96c-9.55-10.21-22.98-15.32-40.3-15.32
		c-7.99,0-15.65,1.44-22.98,4.33c-7.33,2.89-13.99,6.77-19.98,11.65c-6,4.89-10.77,10.44-14.32,16.65
		c-3.56,6.23-5.33,12.65-5.33,19.32v197.15h-89.25v-325.7h89.25v17.32c15.09-9.33,29.74-15.87,43.96-19.65
		c14.2-3.77,28.86-5.66,43.96-5.66c16.87,0,32.41,2.78,46.62,8.33c14.21,5.56,26.53,13.22,36.97,22.98
		c10.43,9.77,18.65,21.43,24.65,34.97c6,13.55,8.99,28.09,8.99,43.62v223.79H4200.37z"/>
	<path class="st2" d="M4466.79,4810.89v-325.7h89.25v325.7H4466.79z M4554.7,4400.6c0,11.55-4.22,21.76-12.65,30.64
		c-8.44,8.89-18.88,13.32-31.3,13.32c-11.55,0-21.54-4.43-29.97-13.32c-8.44-8.88-12.65-19.09-12.65-30.64
		c0-12.87,4.21-23.42,12.65-31.64c8.43-8.21,18.42-12.32,29.97-12.32c12.43,0,22.86,4.11,31.3,12.32
		C4550.48,4377.18,4554.7,4387.72,4554.7,4400.6z"/>
</g>
<g>
	<path id="path18" class="st2" d="M879.47,3184.89c60.13,0,114.73,14.12,163.77,42.33c54.13,31.46,81.19,70.55,81.19,117.27v405.25
		c0,61.53-36.08,104.09-108.25,127.68c-37.47,12.03-80.74,18.04-129.76,18.04c-49.04,0-92.3-6.01-129.76-18.04
		c-72.17-23.59-108.25-66.15-108.25-127.68v-209.57c0-29.6,10.41-54.82,31.22-75.64c20.82-20.82,45.8-31.23,74.95-31.23
		c29.6,0,54.82,10.41,75.63,31.23c20.82,20.82,31.23,46.04,31.23,75.64c0,23.14-6.71,43.96-20.12,62.45
		c-12.95,18.04-29.84,30.77-50.65,38.16v95.07c0,8.79,3.92,17.59,11.79,26.36c15.72,17.59,43.72,26.37,83.97,26.37
		c39.78,0,67.77-8.78,83.96-26.37c7.86-8.78,11.8-17.57,11.8-26.36v-362.92c1.39-12.95-3.24-26.14-13.88-39.56
		c-20.82-26.83-59.92-40.25-117.27-40.25c-63.84,0-116.81,13.42-158.91,40.25c-20.82,13.42-35.39,26.6-43.72,39.56
		c-14.35-11.56-21.51-24.52-21.51-38.86c0-34.23,24.28-67.08,72.86-98.54C752.02,3201.78,811.92,3184.89,879.47,3184.89z"/>
	<path id="path20" class="st2" d="M1041.16,3966.04c23.13,0,42.79,8.33,58.98,24.99c16.2,16.19,24.28,35.84,24.28,58.98v118.66
		c0,14.81-5.08,27.53-15.27,38.17c-10.63,10.17-23.35,15.27-38.16,15.27c-14.34,0-26.83-5.09-37.47-15.27
		c-10.17-10.64-15.27-23.36-15.27-38.17v-38.85c-17.57-5.1-32.15-14.82-43.72-29.15c-11.1-15.27-16.65-32.16-16.65-50.65
		c0-23.14,8.1-42.79,24.28-58.98C998.37,3974.37,1018.03,3966.04,1041.16,3966.04z"/>
	<path id="path26" class="st2" d="M3081.14,3443.03c27.28,26.37,40.93,52.74,40.93,79.11v212.34c0,26.84-9.03,53.67-27.07,80.5
		c-36.07,53.67-99.47,80.5-190.12,80.5c-90.69,0-153.83-26.6-189.46-79.8c-18.04-26.83-27.07-53.44-27.07-79.8v-167.24
		c0-19.43,6.95-36.08,20.82-49.96c13.89-13.88,30.77-20.82,50.66-20.82c19.43,0,36.09,6.94,49.96,20.82
		c13.89,13.88,20.82,30.54,20.82,49.96v167.24c0,8.79,3.23,17.59,9.71,26.37c12.02,17.59,33.76,26.37,65.23,26.37
		c30.98,0,52.74-8.78,65.23-26.37c5.99-8.78,9.01-17.57,9.01-26.37v-195.69c0-17.11-4.15-30.07-12.49-38.86
		c-21.74-25.43-55.5-41.17-101.31-47.19c-81.43-10.17-144.1-7.63-188.05,7.63c0-119.36,24.28-200.08,72.85-242.18
		c26.38-23.13,64.55-34.7,114.51-34.7c28.2,0,63.14,4.63,104.78,13.88c45.81,10.64,68.94,15.96,69.41,15.96
		c18.49,1.39,33.76-2.31,45.79-11.1c3.23-2.31,7.64-8.55,13.18-18.74c3.7,3.71,8.34,11.8,13.89,24.29
		c6.48,14.81,9.71,26.6,9.71,35.39c0,31.92-15.26,56.68-45.81,74.25c-19.43,11.57-43.71,13.19-72.85,4.86
		c-73.11-21.74-118.9-31.92-137.4-30.54c-30.08,1.86-50.19,13.88-60.36,36.08c-5.11,11.57-7.42,23.14-6.95,34.7
		C2932.84,3363.92,3027.01,3390.29,3081.14,3443.03z"/>
	<path id="path28" class="st2" d="M3491.92,3337.55c-0.93-24.51-14.35-43.25-40.25-56.21c-17.12-8.33-38.4-12.25-63.84-11.8
		c-18.04,0-36.77,4.17-56.21,12.49c-14.35,6.02-27.75,15.27-40.25,27.76c-8.79,8.79-15.74,18.04-20.82,27.76
		c-0.93,3.24-1.39,5.1-1.39,5.55c-3.24-0.92-6.93-3.47-11.1-7.63c-9.71-9.71-14.57-21.27-14.57-34.7c0-19.88,8.09-38.16,24.29-54.82
		c8.32-9.72,18.5-18.27,30.53-25.68c37-23.59,81.19-35.39,132.54-35.39h12.49c51.35,0,95.3,13.19,131.84,39.56
		c39.32,28.69,58.99,66.39,58.99,113.11v487.14c0,19.43-6.94,36.08-20.82,49.96c-13.88,13.88-30.53,20.82-49.96,20.82
		c-19.9,0-36.78-6.94-50.66-20.82c-13.88-13.88-20.82-30.53-20.82-49.96V3337.55z"/>
	<path id="path30" class="st2" d="M3856.93,3184.67c30.06,0,55.97,10.65,77.72,31.92c21.27,21.75,31.92,47.88,31.92,78.42v408.03
		c51.35-43.02,103.39-65.46,156.13-67.31v-380.27c0-19.43,6.94-36.08,20.82-49.96c13.89-13.88,30.77-20.82,50.66-20.82
		c19.43,0,36.08,6.94,49.96,20.82c13.88,13.88,20.82,30.53,20.82,49.96v384.44l7.64,1.39c33.3,6.02,60.13,22.44,80.49,49.27
		c20.35,27.3,28.68,57.83,24.98,91.6c-4.16,33.77-19.2,61.53-45.1,83.27c-25.91,21.75-55.76,31.68-89.52,29.84
		c-33.77-2.31-62.22-15.72-85.35-40.25c-23.6-24.52-35.4-53.66-35.4-87.44v-17.35c-32.38,5.55-67.77,21.98-106.17,49.27
		c-23.14,17.59-46.73,40.72-70.78,69.39c-14.82,17.12-31.47,25.91-49.97,26.37c-19.9,0-36.54-6.94-49.96-20.82
		c-13.88-13.88-20.82-30.53-20.82-49.96v-424.68c-23.14-6.94-42.1-20.12-56.9-39.56c-14.35-19.43-21.51-41.17-21.51-65.23
		c0-30.54,10.63-56.67,31.92-78.42C3800.25,3195.32,3826.4,3184.67,3856.93,3184.67z M4264.96,3788.39c6,0,11.1-2.08,15.27-6.24
		c4.16-4.17,6.25-9.02,6.25-14.58c0-6.01-2.09-11.1-6.25-15.27c-4.16-4.16-9.26-6.24-15.27-6.24V3788.39z"/>
	<path id="path32" class="st2" d="M4198.34,2857.83c18.04,0,33.55,6.49,46.49,19.43c13.42,13.42,20.12,29.15,20.12,47.19v189.44
		c-92.52-22.66-166.77-37.92-222.75-45.8c-107.78-15.27-206.55-16.65-296.3-4.16c6.02-48.58,24.06-88.36,54.13-119.36
		c33.77-34.7,79.57-53.89,137.39-57.6c6.94-0.46,12.73-0.7,17.35-0.7c4.16,0,10.41,0.24,18.73,0.7
		c39.32,2.32,77.27,12.95,113.8,31.92c14.35,8.32,29.15,18.51,44.42,30.53v-24.98c0-18.04,6.48-33.77,19.43-47.19
		C4164.11,2864.32,4179.84,2857.83,4198.34,2857.83z M3952.69,2995.93c60.14,2.78,108.5,11.57,145.03,26.37
		c-24.51-20.35-50.88-35.15-79.1-44.41c-24.05-6.94-47.42-10.64-70.09-11.1c-46.26,0.94-79.56,12.03-99.93,33.31
		C3873.59,2995,3908.28,2993.61,3952.69,2995.93z"/>
	<path class="st2" d="M1622.38,2856.79c19.9,0,36.78,6.94,50.65,20.82c13.88,13.88,20.82,30.53,20.82,49.96
		c0,17.12-5.55,32.16-16.65,45.11c13.88,7.4,26.14,12.26,36.78,14.57c14.34,3.71,29.84,5.79,46.49,6.25
		c13.42,0.47,26.84-0.46,40.25-2.78c16.2-2.31,30.53-5.55,43.03-9.72c31.46-9.71,61.3-24.98,89.51-45.8
		c20.82-15.72,39.32-34,55.52-54.82c9.71-12.02,15.49-19.88,17.35-23.59c6.01,6.02,11.1,14.35,15.27,24.98
		c4.16,11.57,6.25,24.28,6.25,38.16c0,26.84-11.1,52.98-33.31,78.42c-23.59,26.84-54.82,46.96-93.68,60.37
		c-35.15,12.04-73.79,18.04-115.89,18.04c-74.48,0-132.3-12.72-173.48-38.16c-23.59-15.72-40.01-33.76-49.27-54.13
		c-6.94-16.66-10.41-35.62-10.41-56.9c0-19.43,6.94-36.08,20.82-49.96C1586.3,2863.73,1602.95,2856.79,1622.38,2856.79z"/>
	<path class="st2" d="M1374.31,3184.89c30.07,0,55.97,10.87,77.72,32.62c21.28,21.28,31.92,47.18,31.92,77.72v170.01l87.43-116.58
		c49.5-62.45,92.99-106.63,130.46-132.54c31.92-20.35,58.52-30.76,79.81-31.23c36.53,0.47,55.74,31.23,57.59,92.3v547.5
		c0,19.43-6.93,36.08-20.82,49.96c-13.42,13.88-30.07,20.82-49.96,20.82c-19.9,0-36.78-6.94-50.65-20.82
		c-13.43-13.88-20.12-30.53-20.12-49.96v-448.97c-0.47-3.23-1.86-5.55-4.16-6.94c-1.39-0.46-3.02-0.23-4.87,0.7
		c-0.93,0.47-2.08,1.39-3.47,2.78c-7.4,6.94-14.57,13.88-21.51,20.82c-46.73,47.19-88.13,102.7-124.21,166.54
		c-35.16,59.68-53.67,106.17-55.51,139.48v125.6c0,19.43-6.94,36.08-20.82,49.96c-13.42,13.88-30.08,20.82-49.96,20.82
		c-19.9,0-36.55-6.94-49.97-20.82c-13.88-13.88-20.82-30.53-20.82-49.96V3400.7c-23.59-7.39-42.57-20.82-56.9-40.25
		c-14.35-19.43-21.51-41.17-21.51-65.23c0-30.54,10.64-56.44,31.92-77.72C1317.63,3195.76,1343.77,3184.89,1374.31,3184.89z"/>
	<path id="circle43733" class="st2" d="M2439.42,3184.89c39.37,0,71.06,31.69,71.06,71.06v490.3c0,30.06-10.34,82.94-51.59,113.69
		c-46.24,34.4-125.97,35.53-168.69,35.53h-42.63c-42.72,0-122.45-1.13-168.69-35.53c-41.25-30.75-51.59-83.63-51.59-113.69v-143.53
		c0-12.78,5.48-45.37,21.03-62.82c0,0,12.73-17.82,50.02-30.62c-37.29-12.81-50.02-30.63-50.02-30.63
		c-15.56-17.45-21.03-50.03-21.03-62.81v-120.8c0-60.83,49.31-110.14,110.14-110.14c60.83,0,110.14,49.31,110.14,110.14
		c0,48.5-31.75,91.29-78.16,105.37v22.53c0.88,20.25,17.01,45.32,35.53,58.98c18.21,12.64,46.13,18.93,62.93,19.18
		c4.51,0.01,8.16,3.66,8.16,8.17c0,4.51-3.65,8.16-8.16,8.17c-16.8,0.24-44.71,6.55-62.93,19.19
		c-18.52,13.66-34.65,38.73-35.53,58.98v150.64c0,34.98,45.03,57.01,99.48,56.85c54.45,0.17,99.48-21.86,99.48-56.85v-490.3
		C2368.37,3216.58,2400.06,3184.89,2439.42,3184.89L2439.42,3184.89z"/>
</g>
<path class="st3" d="M7256.12,3507.34l-517.44-589.31l-517.44,589.31c-8.06,9.18-12.37,20.01-12.37,31.09v0.03
	c0,30.69,32.35,55.56,72.25,55.56h0.2c6.95,0,13.87-0.77,20.53-2.29l273.07-62.24v1356.64
	c-148.07-213.2-386.34-406.38-687.62-535.51c-96.09-41.19-193.21-73.54-289.64-97.39l85.44-189.44c2.07-4.59,3.49-9.44,4.22-14.41
	l0.02-0.14c4.19-28.52-14.8-54.55-42.43-58.14l-0.03,0c-9.98-1.3-20.18,0.52-29.29,5.2l-584.94,300.87l476.17,438.76
	c7.42,6.84,16.72,11.18,26.69,12.48l0.03,0c27.63,3.59,53.42-16.62,57.61-45.13l0.02-0.14c0.73-4.97,0.76-10,0.1-14.94l-23.29-172.5
	c50.04,16.63,100.05,35.57,149.78,56.88c525.54,225.26,859.37,645.35,857.08,1026.73h0.08v424.25h315.84V3526.82l284.77,64.91
	c6.66,1.52,13.58,2.29,20.53,2.29h0.2c39.9,0,72.25-24.88,72.25-55.56v-0.03C7268.49,3527.35,7264.19,3516.52,7256.12,3507.34z"/>
</svg>
