<?xml version="1.0" encoding="UTF-8" standalone="no"?>
<!-- Created with Inkscape (http://www.inkscape.org/) -->

<svg
   xmlns:dc="http://purl.org/dc/elements/1.1/"
   xmlns:cc="http://creativecommons.org/ns#"
   xmlns:rdf="http://www.w3.org/1999/02/22-rdf-syntax-ns#"
   xmlns:svg="http://www.w3.org/2000/svg"
   xmlns="http://www.w3.org/2000/svg"
   xmlns:sodipodi="http://sodipodi.sourceforge.net/DTD/sodipodi-0.dtd"
   xmlns:inkscape="http://www.inkscape.org/namespaces/inkscape"
   width="81.615997cm"
   height="72.343002cm"
   viewBox="0 0 816.15997 723.43001"
   version="1.1"
   id="svg97806"
   inkscape:version="0.92.2 (5c3e80d, 2017-08-06)"
   sodipodi:docname="99.svg">
  <defs
     id="defs97800" />
  <sodipodi:namedview
     id="base"
     pagecolor="#ffffff"
     bordercolor="#666666"
     borderopacity="1.0"
     inkscape:pageopacity="0.0"
     inkscape:pageshadow="2"
     inkscape:zoom="0.20234375"
     inkscape:cx="1781.857"
     inkscape:cy="1613.0632"
     inkscape:document-units="cm"
     inkscape:current-layer="layer1"
     showgrid="false"
     units="cm"
     fit-margin-top="0"
     fit-margin-left="0"
     fit-margin-right="0"
     fit-margin-bottom="0"
     inkscape:snap-global="false"
     inkscape:window-width="1920"
     inkscape:window-height="1057"
     inkscape:window-x="-8"
     inkscape:window-y="-8"
     inkscape:window-maximized="1" />
  <metadata
     id="metadata97803">
    <rdf:RDF>
      <cc:Work
         rdf:about="">
        <dc:format>image/svg+xml</dc:format>
        <dc:type
           rdf:resource="http://purl.org/dc/dcmitype/StillImage" />
        <dc:title></dc:title>
      </cc:Work>
    </rdf:RDF>
  </metadata>
  <g
     inkscape:label="Layer 1"
     inkscape:groupmode="layer"
     id="layer1"
     transform="translate(87.605118,584.53798)">
    <path
       style="fill:#af1e2d;fill-opacity:1;stroke:#af1e2d;stroke-width:120;stroke-linejoin:round;stroke-miterlimit:4;stroke-dasharray:none;stroke-opacity:1"
       d="m 320.47458,76.898031 346.0847,-599.436391 -692.168789,-2.9e-4 z"
       id="path225482"
       inkscape:connector-curvature="0"
       sodipodi:nodetypes="cccc" />
    <path
       style="fill:#ffffff;fill-opacity:1;stroke:#ffffff;stroke-width:30;stroke-linejoin:round;stroke-miterlimit:4;stroke-dasharray:none;stroke-opacity:1"
       d="M 320.47448,46.891431 640.57478,-507.53836 0.37479148,-507.53868 Z"
       id="path225484"
       inkscape:connector-curvature="0"
       sodipodi:nodetypes="cccc" />
    <path
       d="m 243.84489,-381.84309 2.0374,-0.50893 1.528,-1.7827 0.2551,-2.54658 -0.764,-2.29198 -2.0374,-1.27341 h -2.292 l -1.7826,1.27341 -1.0191,2.29198 0.2551,2.54658 1.528,1.7827 z"
       style="fill:#000000;stroke:none;stroke-width:0.12699999;stroke-linecap:round;stroke-linejoin:round;stroke-miterlimit:10;stroke-dasharray:none;stroke-opacity:1"
       id="path833"
       inkscape:connector-curvature="0" />
    <path
       d="m 140.47699,-302.9365 v 3.00337 l 0.5021,2.87821 0.7529,2.75311 1.1293,2.62794 1.5056,2.25253 1.7567,2.12737 2.1331,1.75194 2.384,1.37659 2.7604,1.0011 3.0114,0.62568 h 3.0114 l 2.7604,-0.25008 2.635,-0.75084 2.5095,-1.12627 2.2585,-1.50168 2.0076,-1.75195 1.7566,-2.00226 1.3803,-2.25253 1.1293,-2.37769 0.7528,-2.62794 0.3764,-2.75305 v -2.50285 l -0.3764,-2.37763 -0.6274,-2.12742 -0.7528,-2.00221 -1.1293,-2.00226 -1.2547,-1.75194 -1.5057,-1.62685 -1.5057,-1.37652 -1.7567,-1.25143 -1.8821,-1.0011 -2.0076,-0.75084 v -149.04221 l -0.2507,-3.25369 -0.3764,-3.25363 -0.6274,-3.00338 -0.7529,-2.8782 -1.0038,-2.75311 -1.2547,-2.62795 -1.3802,-2.37769 -1.5057,-2.25252 -1.7566,-2.12737 -1.7567,-2.00226 -2.0076,-1.87711 -4.1406,-3.12847 -4.6426,-2.50284 -5.019,-1.87712 -5.1444,-1.25136 -5.27,-0.62574 -5.39541,0.12533 -5.2699,0.75085 -5.2699,1.37652 -5.019,2.12743 -4.76799,2.87821 -2.133099,1.62684 -2.133,1.87711 -2.1331,2.0022 -1.8821,2.25253 -1.7567,2.37769 -1.63121,2.62795 -1.3802,2.75311 -1.3802,2.87821 -1.1292,3.12852 -0.8784,3.3788 -0.7528,3.50389 -0.2508,1.62684 v 4.00447 l 0.2508,2.50285 0.3764,2.50279 0.6274,2.25252 1.5057,4.12963 2.0076,3.62906 2.50941,3.12852 2.886,2.62795 3.1368,2.12737 3.513299,1.62684 3.51329,1.25143 3.6388,0.62568 3.7642,0.25008 3.5133,-0.12533 3.5132,-0.62574 3.3878,-1.12627 3.01141,-1.50168 2.635,-1.87711 2.2585,-2.37763 1.7567,-2.75311 1.2547,-3.12852 0.6274,-3.62906 v -1.8771 l -0.1256,-2.00226 -0.6274,-1.75196 -0.7529,-1.62684 -1.0038,-1.25136 -1.0037,-1.12627 -1.1293,-1.00116 -1.2548,-0.75084 -2.7604,-1.0011 -3.13691,-0.50075 h -1.6312 l -1.7566,0.25008 -1.6312,0.50076 -1.5057,0.87599 -1.3802,1.00111 -1.2547,1.37658 -1.0038,1.50168 -0.8783,1.62679 -0.3765,1.75201 -0.2507,2.0022 0.2507,2.00227 0.1257,0.50076 0.1257,0.12533 h -0.2508 l -0.3764,-0.25008 -1.7566,-0.75084 -1.3803,-1.00111 -1.3802,-1.25142 -1.0037,-1.37652 -0.87839,-1.50169 -0.7528,-1.62684 -0.7529,-3.75422 v -1.87709 l 0.3764,-3.87938 1.1293,-3.87931 0.75289,-1.75201 1.0037,-1.75194 1.2548,-1.62684 1.3802,-1.50169 1.5057,-1.25136 1.7567,-1.12627 1.8821,-1.00116 2.133,-0.62568 3.1369,-0.62569 3.3878,-0.25007 h 3.26231 l 3.2624,0.62574 3.0113,1.0011 2.7605,1.62684 1.2548,1.12626 1.1292,1.25137 1.0038,1.37658 0.8784,1.62679 0.7528,1.752 0.5021,2.00221 0.5021,2.25253 0.1257,2.50285 z"
       style="fill:#000000;stroke:none;stroke-width:0.08466668;stroke-linecap:round;stroke-linejoin:round;stroke-miterlimit:10;stroke-dasharray:none;stroke-opacity:1"
       id="path11155"
       inkscape:connector-curvature="0" />
    <path
       d="m 246.25799,-402.33552 1.8243,0.10154 1.8244,0.30405 1.6215,0.60811 1.6217,0.70947 1.4189,0.91215 1.3175,1.11484 1.2162,1.21622 1.1149,1.31757 0.8108,1.52027 0.7094,1.62158 0.5068,1.62163 0.3041,1.82432 0.1015,0.91216 v 0.81078 l -0.1015,1.21621 -0.4056,2.22973 -0.8108,2.22973 -1.1149,1.92564 -1.3175,1.82432 -1.723,1.52025 -0.9122,0.70947 -0.4055,0.30407 -0.1015,0.20253 0.1015,0.10154 0.9121,1.31757 1.8244,2.12838 0.7094,1.52025 0.3041,1.01349 0.2025,1.11488 0.2026,1.4189 0.1015,1.72294 0.1016,0.40557 v 73.88474 l -0.1016,0.30405 -0.1015,0.50675 -0.7095,2.12836 -1.2162,1.82432 -1.6216,1.52026 -1.9257,1.2162 -2.1283,0.70948 -2.2298,0.20254 -2.1283,-0.30405 -1.8244,-0.8108 -1.7229,-1.2162 -1.3176,-1.62164 -1.1148,-1.72294 -0.8109,-2.02699 -0.1015,-0.40556 -0.1015,-0.30407 v -69.93206 l -0.1016,-0.40556 -0.2025,-0.70942 -0.3041,-0.20255 h -0.304 l -0.5068,0.30406 h -0.1015 v 0.10154 l -0.2026,0.10154 -0.2025,0.30406 -2.027,2.33105 -3.6486,4.76347 -3.2432,5.06757 -2.8379,5.16889 -2.6351,5.37158 -2.1284,5.57431 -2.027,5.67564 -1.6216,5.67561 -1.4189,5.87837 -1.3175,5.87836 -1.9257,11.85805 -0.8108,5.87832 -0.1016,0.70947 v 0.50673 l -0.1015,0.30406 -0.1015,0.50679 -0.8109,2.12836 -1.3175,1.82432 -1.723,1.52025 -2.027,1.21622 -2.2297,0.70942 -2.2297,0.20254 -2.2297,-0.30405 -2.1284,-0.81083 -1.9257,-1.21623 -1.6216,-1.62157 -1.1149,-1.723 -0.6081,-2.027 v -82.90495 l -0.2025,-0.10153 -0.4056,-0.10154 -2.6351,-1.21622 -2.4324,-1.72294 -2.027,-2.12837 -1.6216,-2.53379 -1.0136,-2.83778 -0.304,-1.52027 -0.1016,-1.62163 v -1.72294 l 0.3041,-1.92569 0.4056,-1.72295 0.7094,-1.723 0.9122,-1.52025 1.0135,-1.52026 1.2162,-1.31753 1.4189,-1.1149 1.5203,-1.01347 1.6216,-0.81085 1.723,-0.60809 1.8243,-0.40556 1.8243,-0.10155 h 2.1284 l 2.027,0.40557 1.9256,0.60811 1.723,0.81078 1.5202,1.01353 1.419,1.31752 1.2162,1.41894 1.0135,1.52027 0.9121,1.72294 0.7095,1.82432 0.5067,1.92568 0.2026,1.92564 0.1015,2.02704 v 46.82409 l 0.3041,-0.91216 1.8243,-4.86484 1.9257,-4.56078 2.027,-4.35811 2.1284,-4.05405 2.1283,-3.64863 2.2298,-3.34458 2.2297,-2.93915 2.1283,-2.63511 2.2297,-2.22973 2.1284,-1.82431 2.1284,-1.31758 2.027,-0.91216 0.9122,-0.30406 h 0.2025 l -0.1015,-0.10153 -0.2026,-0.10154 -1.3176,-1.4189 -1.1148,-1.52026 -0.9121,-1.62164 -0.7095,-1.82431 -0.5068,-1.92568 -0.1015,-2.027 -0.1015,-0.50674 0.304,-2.73647 0.5067,-1.72299 0.6082,-1.62159 0.9121,-1.52026 1.0135,-1.41895 1.1149,-1.2162 1.3176,-1.11484 1.5202,-1.01353 1.5203,-0.70942 1.6216,-0.60811 1.8243,-0.40556 1.8243,-0.10153 z"
       style="fill:#000000;stroke:none;stroke-width:0.08466665;stroke-linecap:round;stroke-linejoin:round;stroke-miterlimit:10;stroke-dasharray:none;stroke-opacity:1"
       id="path17979"
       inkscape:connector-curvature="0" />
    <path
       d="m 221.45289,-447.53845 2.1111,0.22203 1.8888,0.55554 1.7778,0.99998 1.4444,1.33331 1.2222,1.66664 0.6667,1.33332 0.1112,0.11128 0.1113,0.33333 v 0.22204 l 0.1113,0.11128 v 0.11128 l 0.2221,0.7778 0.3333,1.66664 0.222,2.99994 -0.222,2.77775 -0.7778,2.77771 -1.1111,2.66662 -1.5555,3.11108 v 0.11128 l 0.1113,-0.11128 0.6666,-0.11128 1.1111,-0.22205 2.3333,-0.55552 4.7777,-1.55557 2.3333,-0.99999 2.2222,-1.22218 2.2222,-1.44444 2.1111,-1.66664 2.111,-1.88885 2,-2.11109 1.8889,-2.44437 0.8888,-1.33332 0.4446,-0.8889 0.2221,0.33332 0.3333,0.66666 1,2.77776 0.6667,2.66662 0.222,2.44442 v 2.22217 l -0.4446,2.1111 -0.7778,1.88884 -1,1.77776 -1.3333,1.66664 -1.5555,1.4444 -1.8888,1.33331 -2,1.11112 -2.2222,1.1111 -5.111,1.55553 -2.7778,0.55553 -2.9999,0.44461 -6.1111,0.55553 h -6.5554 l -6.6666,-0.55553 -1.7777,-0.22205 -0.7778,-0.11129 h -0.4446 l -0.1113,-0.11127 0.5556,-0.44462 1.7777,-2.11111 1.6667,-2.22216 1.3333,-2.33331 1,-2.44442 0.5555,-2.77775 0.1113,-1.44439 -0.8889,-0.55557 -1.6666,-0.99999 -1.5556,-1.44439 -1.111,-1.66664 -0.889,-1.8889 -0.3333,-2.11104 v -1.11111 l 0.1113,-1.33331 0.3333,-1.33332 0.4446,-1.22218 1.4445,-2.22222 2,-1.66664 2.3333,-1.22219 1.2221,-0.33332 1.4445,-0.11129 z"
       style="fill:#000000;stroke:none;stroke-width:0.08466665;stroke-linecap:round;stroke-linejoin:round;stroke-miterlimit:10;stroke-dasharray:none;stroke-opacity:1"
       id="path34212"
       inkscape:connector-curvature="0" />
    <path
       d="m 307.95399,-361.99589 v -23.87786 l -0.3049,-3.25149 -0.7112,-3.04824 -1.2193,-2.845 -1.7273,-2.43859 -2.1338,-2.13376 -1.2193,-0.81291 -1.3209,-0.71121 -1.4225,-0.60965 -1.5241,-0.4066 -1.6257,-0.30482 -1.7274,-0.10177 -3.0482,0.30482 -2.7435,0.91448 -2.6418,1.42255 -2.1337,1.82894 -1.829,2.13377 -1.4225,2.64179 -0.9144,2.74341 -0.3049,3.04825 0.2031,2.54021 0.6096,2.33697 1.0161,2.2354 1.2193,1.93051 1.6257,1.82895 1.829,1.52412 2.0321,1.11772 2.2354,0.91447 v 82.70892 l 0.3048,1.52411 0.7113,1.42255 1.0161,1.32087 1.3209,1.2193 1.5241,0.91447 1.6257,0.81289 1.6257,0.40659 1.6258,0.20307 2.0321,-0.10177 1.829,-0.4066 1.6257,-0.81284 1.3209,-1.0161 1.0161,-1.2193 0.8129,-1.52411 0.508,-1.6257 0.2031,-1.93058 v -7.62059 l 0.1017,-4.36917 v -6.40131 l 0.1018,-1.82894 v -3.75947 l 0.6096,-5.08042 1.1177,-5.38522 1.5241,-5.48683 1.9306,-5.69003 2.1338,-5.58846 2.4386,-5.38522 2.4386,-5.28363 2.5402,-4.87718 2.5401,-4.47074 2.4386,-3.96272 1.2193,-1.82894 1.1178,-1.52412 1.1176,-1.42254 1.0161,-1.2193 0.9145,-1.01605 0.8129,-0.71127 0.7112,-0.60965 0.7112,-0.30482 h 0.5081 l 0.4066,0.20305 0.3048,0.50808 0.2031,0.81284 v 82.40414 l 0.2031,1.52412 0.7112,1.52412 0.9145,1.42249 1.3209,1.32092 1.4225,1.01606 1.7273,0.91447 1.7274,0.50807 1.7273,0.20305 1.8289,-0.10176 1.7274,-0.50803 1.6257,-0.71128 1.4225,-1.11766 1.1177,-1.2193 0.9145,-1.42249 0.6096,-1.62575 0.2031,-1.72733 v -103.13216 l -0.2031,-1.72733 -0.6096,-1.52412 -1.0161,-1.32092 -1.2193,-1.11767 -1.4225,-0.91447 -1.5241,-0.8129 -1.7274,-0.50802 -1.8289,-0.30483 -1.0161,-0.10177 -1.1177,0.10177 -1.1177,0.30483 -1.2193,0.50802 -2.5402,1.42255 -2.7434,1.93052 -2.7434,2.54021 -2.9467,2.84504 -2.845,3.14982 -2.9466,3.45469 -5.4869,7.01095 -2.6417,3.55627 -2.337,3.35307 -2.1338,3.14986 -1.9306,2.84505 -1.5241,2.43859 -0.7112,1.01605 z"
       style="fill:#000000;stroke:none;stroke-width:0.08466667;stroke-linecap:round;stroke-linejoin:round;stroke-miterlimit:10;stroke-dasharray:none;stroke-opacity:1"
       id="path50764"
       inkscape:connector-curvature="0" />
    <path
       d="m 500.47479,-385.87452 -0.2031,-2.0322 -0.4066,-1.93054 -0.6096,-1.93058 -0.7113,-1.82895 -0.9145,-1.72733 -1.1177,-1.52414 -1.2193,-1.42255 -1.4225,-1.2193 -1.5242,-1.11768 -1.7273,-0.81285 -1.9306,-0.60966 -2.0321,-0.40659 -2.1338,-0.10177 -1.9306,0.20306 -1.7273,0.40659 -1.7274,0.60965 -1.6257,0.81291 -1.5241,1.01605 -1.4226,1.11773 -1.2193,1.32088 -1.0161,1.52413 -0.9144,1.52413 -0.7113,1.72738 -0.508,1.82896 -0.2031,1.82895 -0.1018,1.82896 0.2031,1.52412 0.3048,1.52413 1.0161,2.84502 1.6257,2.54023 2.1338,2.13378 2.5402,1.72733 2.8451,1.21931 0.4066,0.10176 0.3048,0.10177 v 58.72979 l -0.203,-0.40659 -0.9145,-2.13378 -1.9306,-3.96274 -1.9306,-3.75949 -1.9305,-3.35309 -1.9306,-3.14988 -1.8289,-2.84506 -1.9306,-2.54018 -1.9306,-2.33704 -1.9305,-2.13378 -1.829,-1.93053 -1.7273,-1.62575 -1.829,-1.52414 -1.6257,-1.2193 -1.6258,-1.11768 -1.5241,-1.0161 -1.5242,-0.71128 -1.3208,-0.71122 -1.2193,-0.50808 -2.2354,-0.71123 -1.6258,-0.30482 h -1.1177 l -0.4066,0.20305 1.2193,1.62576 1.2193,1.93052 1.2193,2.23541 1.2193,2.33699 1.321,2.54023 1.2193,2.74344 2.6418,5.89331 2.7434,6.29973 2.8451,6.50296 0.8128,1.52413 0.3049,0.81285 0.508,1.01611 1.8289,4.06431 3.5564,8.0271 1.7273,3.65792 1.829,3.55628 1.7273,3.35309 1.829,2.94668 1.9305,2.54019 1.9306,2.2354 2.1338,1.72733 2.2354,1.2193 2.4386,0.71128 1.3209,0.10177 h 1.0161 l 1.7273,-0.20305 1.7274,-0.30483 1.5241,-0.40659 1.3209,-0.60966 1.2193,-0.71127 1.1177,-0.81285 1.7274,-1.93059 1.3209,-2.03216 0.7112,-2.23541 0.1018,-0.50802 z"
       style="fill:#000000;stroke:none;stroke-width:0.08466665;stroke-linecap:round;stroke-linejoin:round;stroke-miterlimit:10;stroke-dasharray:none;stroke-opacity:1"
       id="path57712"
       inkscape:connector-curvature="0" />
    <path
       d="m 432.87259,-375.00265 v 82.8113 l -0.1018,1.93058 -0.508,1.93059 -0.9145,1.62571 -1.2193,1.42256 -1.4225,1.11768 -1.6258,0.91448 -1.7273,0.50803 -1.7274,0.20306 -1.8289,-0.10177 -1.7274,-0.60965 -1.6257,-0.81286 -1.5242,-1.11773 -1.2193,-1.32088 -1.0161,-1.62576 -0.7112,-1.82896 -0.3049,-1.93059 v -83.11613 l -0.3048,-3.25147 -0.8129,-2.84507 -1.4225,-2.54024 -1.8289,-2.03216 -2.1338,-1.62576 -2.5403,-1.21931 -2.7434,-0.71123 -2.8451,-0.30483 -3.0482,0.10177 -3.0483,0.71128 -2.9466,1.11768 -2.8451,1.62576 -2.7435,2.23542 -2.4386,2.64181 -2.1338,3.25147 -1.7273,3.75955 -0.9145,-1.93058 -0.508,-2.03217 -0.2031,-2.23541 0.1018,-2.33699 0.508,-2.33699 0.8129,-2.33704 1.2193,-2.33699 1.5241,-2.33699 1.829,-2.13379 2.1338,-1.93059 2.5402,-1.82896 2.8451,-1.62576 3.2515,-1.21931 3.5563,-1.01605 3.8611,-0.60966 4.166,-0.20306 3.0483,0.10177 2.845,0.4066 2.7435,0.71123 2.7434,0.91448 2.4386,1.11773 2.337,1.32089 2.2354,1.62576 2.0322,1.72733 1.7273,1.93059 1.6258,2.13379 1.3209,2.33699 1.1177,2.33704 0.9145,2.64181 0.6096,2.64182 0.3049,2.74344 z"
       style="fill:#000000;stroke:none;stroke-width:0.08466666;stroke-linecap:round;stroke-linejoin:round;stroke-miterlimit:10;stroke-dasharray:none;stroke-opacity:1"
       id="path61072"
       inkscape:connector-curvature="0" />
    <circle
       style="opacity:1;fill:#ffffff;fill-opacity:1;fill-rule:nonzero;stroke:none;stroke-width:24;stroke-miterlimit:4;stroke-dasharray:none;stroke-opacity:1"
       id="path74342"
       cx="246.23959"
       cy="-388.29868"
       r="3.5999999" />
  </g>
</svg>
