<?xml version="1.0" encoding="UTF-8" standalone="no"?>
<svg xmlns="http://www.w3.org/2000/svg" xmlns:xlink="http://www.w3.org/1999/xlink" id="SVGRoot" width="2190.428mm" height="1270.3668mm" version="1.1" viewBox="0 0 2190.428 1270.3668">
  <defs>
    <path id="path17644" d="M-2 710h501V-1H-2Z"/>
    <path id="path17650" d="M0 708.06h498V.06H0Z"/>
    <path id="path7" d="M0 0h212.597v269.292H0Z"/>
    <path id="path7-8" d="M0 0h170.079v113.386H0Z"/>
    <path id="path7-7" d="M0 0h287.009v159.449H0Z"/>
    <path id="path7-4" d="M0 0h170.079v170.079H0Z"/>
    <path id="path7-5" d="M0 0h340.157v226.771H0Z"/>
    <path id="path7-1" d="M0 0h255.119v170.079H0Z"/>
  </defs>
  <defs id="defs3921">
    <clipPath id="clipPath17642" clipPathUnits="userSpaceOnUse">
      <use xlink:href="#path17644"/>
    </clipPath>
    <clipPath id="clipPath17648" clipPathUnits="userSpaceOnUse">
      <use xlink:href="#path17650"/>
    </clipPath>
    <clipPath id="clipPath17798" clipPathUnits="userSpaceOnUse">
      <use xlink:href="#path17644" id="path17800"/>
    </clipPath>
    <clipPath id="clipPath17804" clipPathUnits="userSpaceOnUse">
      <use xlink:href="#path17650" id="path17806"/>
    </clipPath>
    <clipPath id="Clip0">
      <use xlink:href="#path7" transform="translate(.923828 .879883)"/>
    </clipPath>
    <clipPath id="Clip0-8">
      <use xlink:href="#path7-8" transform="translate(.0986328 .822266)"/>
    </clipPath>
    <clipPath id="Clip0-1">
      <use xlink:href="#path7-7" transform="translate(.396484 .267578)"/>
    </clipPath>
    <clipPath id="Clip0-9">
      <use xlink:href="#path7-4" transform="translate(.460938 .775391)"/>
    </clipPath>
    <clipPath id="Clip0-4">
      <use xlink:href="#path7-5" transform="translate(.921875 .25293)"/>
    </clipPath>
    <clipPath id="Clip0-5">
      <use xlink:href="#path7-1" transform="translate(.147461 .0595703)"/>
    </clipPath>
    <clipPath id="Clip0-0">
      <use xlink:href="#path7-8" id="path7-9" transform="translate(.0673828 .207031)"/>
    </clipPath>
    <clipPath id="clipPath17642-4" clipPathUnits="userSpaceOnUse">
      <use xlink:href="#path17644" id="path17644-2"/>
    </clipPath>
    <clipPath id="clipPath17648-6" clipPathUnits="userSpaceOnUse">
      <use xlink:href="#path17650" id="path17650-6"/>
    </clipPath>
    <clipPath id="clipPath17798-4" clipPathUnits="userSpaceOnUse">
      <use xlink:href="#path17644" id="path17800-1"/>
    </clipPath>
    <clipPath id="clipPath17804-9" clipPathUnits="userSpaceOnUse">
      <use xlink:href="#path17650" id="path17806-8"/>
    </clipPath>
    <clipPath id="Clip0-85">
      <use xlink:href="#path7" id="path7-82" transform="translate(.923828 .879883)"/>
    </clipPath>
    <clipPath id="Clip0-8-3">
      <use xlink:href="#path7-8" id="path7-8-6" transform="translate(.0986328 .822266)"/>
    </clipPath>
    <clipPath id="Clip0-1-8">
      <use xlink:href="#path7-7" id="path7-7-3" transform="translate(.396484 .267578)"/>
    </clipPath>
    <clipPath id="Clip0-9-1">
      <use xlink:href="#path7-4" id="path7-4-4" transform="translate(.460938 .775391)"/>
    </clipPath>
    <clipPath id="Clip0-4-2">
      <use xlink:href="#path7-5" id="path7-5-4" transform="translate(.921875 .25293)"/>
    </clipPath>
    <clipPath id="Clip0-5-3">
      <use xlink:href="#path7-1" id="path7-1-6" transform="translate(.147461 .0595703)"/>
    </clipPath>
    <clipPath id="Clip0-0-6">
      <use xlink:href="#path7-8" id="path7-9-2" transform="translate(.0673828 .207031)"/>
    </clipPath>
  </defs>
  <g id="layer1" transform="translate(-13.780307 -275.62911)">
    <g id="g17634" transform="matrix(11.21638 0 0 -11.21638 -40371.143 7819.0877)">
      <path id="path3747" fill="#fff" fill-opacity="1" fill-rule="nonzero" stroke="#000" stroke-dasharray="none" stroke-miterlimit="4" stroke-opacity="1" stroke-width=".44337922" d="M3608.5676 672.31799h179.218c4.303 0 7.813-3.509 7.813-7.814v-97.18862c0-4.301-3.51-7.814-7.813-7.814h-179.218c-4.305 0-7.814 3.513-7.814 7.814v97.18862c0 4.252 3.563 7.814 7.814 7.814"/>
      <path id="path3771" fill="#008a3d" fill-opacity="1" fill-rule="evenodd" stroke="#000" stroke-dasharray="none" stroke-miterlimit="4" stroke-opacity="1" stroke-width="2.52452278" d="M3787.7411 668.96576c2.524-.056 4.44-1.992 4.508-4.508l-.01-97.37394c-.183-2.374-2.103-4.221-4.5-4.234l-179.404.01c-2.375.158-4.225 2.117-4.235 4.498l.01 97.37394c.183 2.373 2.106 4.225 4.502 4.234h179.132"/>
    </g>
    <g id="g2496" transform="translate(193.45633 359.97775) scale(1.05737)">
      <path id="path16244" fill="#fff" fill-opacity="1" stroke-width=".68795538" d="M144.77708 510.49222c-2.55563.0527-4.9675.55494-6.80308 1.51834-3.273 1.7177-6.18179 4.64905-7.14558 7.20069-.9403 2.48962.0569 8.43947 1.80445 10.7614 1.2312 1.63616 1.82741 1.83443 5.42581 1.80321 3.09152-.0278 5.14631-.56059 8.73368-2.27082l4.69225-2.23718 2.18751 1.26708c3.41373 1.97522 6.66039 7.29828 6.66039 10.92128 0 2.26704-.26563 3.01787-1.06555 3.01787-1.49719 0-4.68692-1.73794-8.42339-4.58996-2.7766-2.11935-3.56727-2.39205-6.09745-2.10688-3.8523.43421-7.85672 3.44557-12.79165 9.62064l-3.95585 4.95005v33.99199l4.23785-2.18614c5.48559-2.82907 11.22899-3.0488 15.19693-.5818l2.57983 1.60431v23.86884c0 26.8384-.43822 24.4727 5.71599 30.84647l3.4518 3.57415-2.93583 3.80659c-5.70141 7.38988-11.96077 11.96086-19.53282 14.26702-3.93342 1.19798-5.95529 1.38108-12.38332 1.11927-9.43574-.38435-13.59549-1.94073-17.72281-6.62964-2.74938-3.12347-2.75667-3.14585-1.17836-3.74478 2.98797-1.13383 7.25941-.12241 10.65517 2.52338 3.50962 2.7343 6.39636 3.17005 11.29482 1.70244 6.17235-1.84922 7.43398-7.00637 2.8378-11.60253-6.222-6.222-19.54811-6.34946-26.29814-.25133-3.48667 3.15007-4.36114 5.98394-3.98128 12.90054.36829 6.70727 1.80907 9.8916 6.38372 14.10844 4.61411 4.25313 10.72508 6.68231 19.95871 7.93432 3.07746.41731 12.59932-.23611 16.14951-1.10854 13.48073-3.31242 30.28747-18.35061 30.28747-27.10032 0-1.6361-1.09295-3.11102-5.57864-7.52315-3.06857-3.01816-6.47393-6.69516-7.5676-8.17082l-1.98878-2.68196-.0302-28.62001c-.0285-15.7404-.29143-29.96737-.61009-31.6164-1.00968-5.22764-4.63211-8.79-9.9485-9.7832-2.70454-.50527-3.98236-.30219-8.5079 1.34768-2.92925 1.06793-5.9037 2.18837-6.6095 2.49117-1.10719.47497-1.2175.32474-.80224-1.10046.26474-.90858 1.15185-3.04581 1.97116-4.74851 1.78755-3.71429 3.23528-4.04577 10.89308-2.49921 5.14381 1.03883 10.59969.68894 13.50386-.86531 2.59939-1.3912 5.62294-5.64392 6.73564-9.4715 1.6728-5.75331 1.11858-19.24448-.98335-23.93197-2.33501-5.20647-4.55152-7.66484-8.76606-9.72678-2.84207-1.39043-6.36451-2.06556-9.65031-1.99803zm283.23871 26.47824c-.403 0-2.7439 1.23211-5.2027 2.73703-2.4587 1.50489-7.7418 4.30192-11.7396 6.21577l-7.268 3.48009-1.8609-1.31546c-3.4765-2.45657-12.8468-6.81948-18.7145-8.71362-4.5898-1.4816-7.1794-1.88843-12.0391-1.89323-11.4847-.0107-18.5139 4.17886-27.2616 16.2543l-5.4164 7.47748v20.63596l1.892-.48235c1.0405-.26517 4.2137-.63871 7.0515-.82907 4.1827-.28054 5.9021-.0667 9.0816 1.12733 4.6416 1.74314 10.8696 7.0182 10.8664 9.20276 0 3.9725-4.9288 8.01898-9.7522 8.01898-2.5968 0-3.8191-.72645-10.075-5.99007l-4.3507-3.66146-2.1848 1.78572c-1.2019.98207-3.9986 3.15439-6.2158 4.82644-5.9806 4.50983-9.4775 4.09003-15.999-1.92144-3.64-3.35531-3.8375-5.17115-1.0413-9.5803 1.6226-2.55845 2.7915-3.46225 6.5356-5.05352l4.5603-1.93758v-11.10267c0-10.15126-.1335-11.36307-1.5479-14.15148-.9279-1.82785-2.8526-3.97652-4.8049-5.36253-3.4666-2.46116-21.6474-9.25416-24.6053-9.19334-5.4939.11297-20.1294 5.83116-29.754 11.62535l-5.3316 3.21003v14.99796c0 8.24896.2712 14.99795.6034 14.99795.3321 0 1.7158-.46437 3.0744-1.03193 1.3582-.56758 4.4745-1.03191 6.925-1.03191 3.7035 0 4.7778.27779 6.3637 1.64193 2.5457 2.18978 2.0358 2.71505-7.35 7.59172-4.3342 2.25199-8.0769 4.68645-8.7244 5.67427-1.6326 2.49167-1.9304 8.3005-.6515 12.69895 2.0343 6.99838 6.2222 11.65142 11.7503 13.05504 3.0378.77133 10.5957.009 13.8074-1.39339 3.9378-1.71923 6.9347-5.42851 7.8563-9.72678 1.7998-8.39172-1.2586-13.03082-8.5913-13.03082-2.587 0-3.6678.40119-5.5614 2.06386-2.8323 2.48678-3.0876 2.50767-5.4981.43399-1.798-1.54657-1.8405-1.71513-.8157-3.26778.5942-.90037 3.6753-3.17398 6.8459-5.05216 3.1706-1.87818 7.0801-4.62619 8.6882-6.10697 2.6791-2.46703 2.9237-2.97577 2.9237-6.07871 0-5.39533-3.0524-9.6428-8.5993-11.96532-2.8026-1.17337-9.8503-1.55341-12.6024-.67991-2.169.68842-1.8498-.42247.9499-3.30542 4.0263-4.14559 8.6933-6.12835 15.2776-6.49122 7.3535-.40523 13.1096.75575 18.9764 3.8281 4.9729 2.60409 7.6226 5.60823 8.4074 9.53195.398 1.989.091 2.39957-4.7485 6.35417-2.8454 2.32508-6.2698 5.50835-7.6105 7.07439-7.3266 8.55946-5.6119 21.08378 4.3427 31.72522 7.8934 8.43782 9.1117 8.18948 23.478-4.77806l1.7534-1.58283 5.7334 4.20969c8.6787 6.37003 12.7819 8.34151 16.1817 7.7771 3.9089-.64889 5.8685-1.79472 9.1436-5.34774 6.4458-6.99306 9.4676-16.46645 8.9221-27.97372-.4468-9.41726-2.0685-13.84889-6.6312-18.11663-3.4563-3.23309-7.0527-4.67184-14.033-5.6138-3.1844-.42969-3.2798-.50524-2.3608-1.8892.5266-.79332 2.6312-2.38875 4.6771-3.54458 3.2833-1.85497 4.4976-2.13248 10.3503-2.36755 7.3895-.29679 11.9125.68157 18.4781 3.99606 8.0579 4.06807 15.8591 12.27383 15.8591 16.68155 0 4.57091-3.7099 8.44732-12.4166 12.97711-3.0879 1.60649-6.6657 3.91311-7.9506 5.12474-4.219 3.9791-3.0794 6.8002 7.2639 17.99031 4.2611 4.61017 8.2074 8.55816 8.7701 8.77411 1.4424.55351 6.4152-1.82503 8.4609-4.0471l1.7202-1.86772.1909-30.55219.1937-30.55085 1.7668-.44343c2.8543-.71639 13.3821.17964 17.1102 1.45655 7.9861 2.73518 17.0907 9.83795 20.0194 15.61737 1.9004 3.75049 2.1719 8.55773.6487 11.50311-1.1281 2.18196-6.2519 5.71425-10.4267 7.18726-4.3503 1.53492-9.4292 4.2786-10.8701 5.87317-1.5552 1.72076-1.6143 6.01723-.1228 8.86547 1.3468 2.57116 4.9324 5.89766 10.4968 9.74153 2.5861 1.78654 5.3205 4.21606 6.0772 5.39886 1.7338 2.70997 2.8544 2.72781 6.4844.098 4.93-3.5712 4.8681-3.09537 4.8562-36.9131 0-16.56609-.2381-30.45313-.516-30.85991-1.2138-1.77612-22.4722-14.73998-24.1712-14.73998zm-330.02918.46759-5.42839 4.31314c-2.98549 2.37248-5.81517 4.46213-6.28834 4.6437-.47316.18158-5.12043-1.75782-10.3274-4.30914l-9.46743-4.63831-2.22377 1.31007c-4.37583 2.57767-13.58681 10.31212-16.17366 13.58174l-2.6336 3.3296v20.55133l1.89188-.97416c4.8867-2.51385 11.34139-3.87717 18.30337-3.86706 11.36859.016 18.78207 2.41186 25.32402 8.18157 7.31404 6.45073 8.23513 16.33981 2.01011 21.57788-9.10473 7.66113-35.21589 3.46348-40.36226-6.48855-1.41667-2.73949-.78203-5.24412 1.47263-5.81001 3.00097-.75318 7.32908 1.46835 10.88368 5.5856 3.24038 3.75334 3.28013 3.77303 7.19399 3.77303 4.73678 0 6.64286-1.1493 8.42742-5.07904 2.90184-6.39008 1.05752-11.41207-5.56275-15.14578-3.40265-1.91903-4.33807-2.12668-9.28742-2.06656-6.14545.0747-9.23846 1.13243-13.01872 4.45158-5.16018 4.53068-6.93771 9.82323-5.85839 17.44475.86149 6.08308 2.55356 9.82833 6.26015 13.85585 4.88849 5.31178 10.10431 7.92457 18.44578 9.24172 4.85188.76612 14.3228.22448 19.57046-1.11928 9.26549-2.37271 18.91399-9.69385 22.2537-16.88582 3.44308-7.41464 3.38277-18.33706-.14055-25.21382-1.79396-3.50231-6.21485-8.03308-10.01964-10.26828-3.74323-2.19904-11.34581-4.27497-18.2966-4.99572-9.46931-.98192-29.28624 1.67779-32.54757 4.36824-.81572.67296-.88963.36569-.46894-1.95369.71691-3.95241 3.48586-9.73515 5.06699-10.58133 1.71658-.9187 3.91761-.29465 11.83496 3.35244 6.99329 3.22143 6.61422 3.27383 13.12757-1.81798 2.10462-1.64528 4.42648-2.98969 5.15968-2.9883.73319.001 4.27393 1.39248 7.86848 3.09176 3.59449 1.69927 7.30961 3.08949 8.25543 3.08908 5.49537-.002 11.13198-3.91958 14.04256-9.76035 2.25512-4.52524 2.35084-6.32895.30103-5.67834-.81397.25825-2.95807.46894-4.76466.46894-3.16944 0-5.28522-.88293-12.7176-5.31418zm103.64348.22032c-1.0454 0-16.46403 8.72485-20.14303 11.39831l-3.26766 2.37424v5.15295c0 4.88183.0801 5.15431 1.54789 5.16504.85134.005 2.78621.75 4.29977 1.65404 1.51337.90405 2.91893 1.67343 3.12389 1.70914.20479.0358 1.75179-1.34082 3.43722-3.05818 3.49308-3.55923 3.51247-3.52238-3.00576-5.93629-3.2778-1.21378-3.7959-1.60713-2.82856-2.14853.65154-.36454 2.76628-.63658 4.70026-.60466 2.82411.0464 5.01269.80821 11.11868 3.87112 4.1813 2.0974 7.9448 3.8133 8.3645 3.8133.4194 0 2.9865-1.85747 5.7039-4.12773 2.717-2.27023 5.2801-4.12774 5.6955-4.12774.4155 0 4.4114 1.71752 8.8791 3.816 6.998 3.28713 8.4799 3.75083 10.7048 3.34707 7.1554-1.29849 12.5036-6.75122 13.649-13.91363l.442-2.7666-3.136 1.12735c-4.1838 1.50443-8.1585.45718-13.9568-3.6803-2.3612-1.68511-4.4839-3.0649-4.7163-3.0649-.2324 0-2.0338 1.20433-4.0041 2.67524-1.9701 1.4709-4.9255 3.34896-6.5677 4.17342-3.6064 1.81048-4.5524 1.56739-13.3478-3.43038-3.3079-1.87955-6.3195-3.41828-6.6928-3.41828zm-185.89714.0221-5.01992 5.32089c-2.76098 2.92614-6.30148 6.24833-7.86714 7.38345L0 552.44867l.25411 22.35857c.23444 20.60983.37482 22.78898 1.79513 27.86217 2.76658 9.88203 7.37542 16.82198 12.08221 18.19185 3.17219.92322 4.57367.81129 7.70725-.61138 7.83166-3.55562 12.32683-18.9166 10.59613-36.21171-1.18581-11.84968-4.43511-16.37522-11.75705-16.37522-6.82586 0-10.71699 4.45437-10.5827 12.11449.11013 6.28256 2.18726 9.25172 7.30146 10.43757 1.66235.38546 1.99501.15745 2.88887-1.98191.87107-2.08471 1.32836-2.41858 3.32155-2.41858 3.25264 0 4.66635 1.2994 5.12338 4.70683.75595 5.63605-2.33431 8.3643-9.47282 8.3643-5.94873 0-9.0372-1.83869-11.49503-6.84326-1.82598-3.71795-1.87576-4.14248-1.87576-15.85925 0-12.98933.64257-16.46135 3.37798-18.25366 1.36612-.89513 2.1204-.85183 6.84998.38695 6.47845 1.69688 9.47477 1.13357 13.55085-2.5489 2.37482-2.14554 6.83521-9.82645 6.83521-11.77052 0-.45819-.89836-.46079-2.68732-.005-3.44207.87371-8.47505-.51644-14.0601-3.88453zm502.78774.0753c-1.6874 2.6707-6.4171 7.638-10.4481 10.97235l-5.1384 4.24999v29.26231l3.2046-.96476c4.2623-1.28263 11.5014-1.22207 16.0691.13415 4.1427 1.23027 8.2446 4.77443 8.2446 7.12277 0 3.91857-3.6214 7.64915-10.8609 11.19002-4.4049 2.15447-4.9837 2.25871-12.5295 2.25871-9.1709 0-12.2272-1.0218-17.4436-5.83016l-3.0998-2.85661 3.7046-5.43916c4.5721-6.71448 5.5913-10.04036 4.5134-14.72655-2.1302-9.26103-11.1697-13.04733-23.3785-9.79128-2.4211.64576-4.5028 1.07454-4.625.95267-.121-.1217.4089-1.49448 1.1787-3.05012.8912-1.80162 2.2461-3.23022 3.7326-3.93558 2.1825-1.03565 2.6796-1.01677 7.6695.29022 8.0661 2.1127 12.7162.70494 16.6763-5.05081 1.8387-2.67257 4.1923-7.5361 4.1923-8.6626 0-.26876-1.6809-.34909-3.7355-.1788-4.3076.35722-8.4967-.85973-13.4434-3.90335l-3.2933-2.02622-7.6508 7.52181-7.6509 7.52319v15.12155c0 8.31747.2325 15.11838.516 15.11219.2837-.005 2.3736-.45823 4.6438-1.0064 2.2703-.54818 6.0567-1.00769 8.414-1.02116 4.3378-.0249 9.8166 1.58853 9.8166 2.89153 0 1.315-5.1447 5.56471-8.7174 7.2007-1.957.89605-5.8192 2.10154-8.5836 2.6779-2.7643.57641-5.182 1.20234-5.3719 1.39206-.8735.87378 4.7567 9.92228 8.5405 13.72551 6.3062 6.33851 13.4729 9.95531 22.2982 11.25181 5.5224.81131 6.7719.81289 11.7852.0142 13.4229-2.14052 23.985-13.04794 27.9414-28.85516 2.8632-11.43922-1.9167-24.48259-10.2157-27.87562-3.704-1.51429-11.4635-1.53341-15.5975-.039-1.6671.60268-3.1749.95143-3.3511.7753-.8353-.83551 2.5599-5.65054 4.7554-6.74386 2.3197-1.15513 2.6224-1.14818 7.7448.19349 6.2233 1.62999 8.9115 1.33911 12.652-1.37054 2.3882-1.73001 6.1637-7.6606 7.3257-11.50578.4362-1.44392.3113-1.48679-3.2625-1.11795-4.4286.45707-7.592-.44574-13.0698-3.73133-2.198-1.31829-4.0663-2.28667-4.1521-2.15122zm-308.1782 24.27865c-7.6564-.0521-11.7898 1.11039-16.48955 3.61577-5.62792 3.00021-12.35147 10.07309-14.26303 15.00471-5.22886 13.48975 2.35938 35.92423 13.50635 39.93095 6.49083 2.33296 17.14783-2.85208 21.08893-10.26018 1.2151-2.28387 1.5128-3.99604 1.5197-8.74188 0-5.37957-.1761-6.20049-2.08-9.27934-3.5813-5.79275-9.292-7.77284-16.3322-5.66354-3.91853 1.17396-7.37816 4.61905-7.37816 7.34715 0 1.86863.51205 2.4911 3.76352 4.57113 2.07044 1.32435 4.09354 3.02369 4.49604 3.77572 1.1193 2.09142-.2658 4.1183-2.8151 4.1183-11.46558 0-11.25599-18.99286.274-24.87523 5.8762-2.9977 19.48-4.16736 27.6474-2.37694 6.9781 1.52969 20.9531 6.10614 20.5647 6.73446-.5645.91366-6.375 3.67841-10.5895 5.03874-4.579 1.47805-8.4145 3.35301-9.9039 4.84254-2.9212 2.92111.2769 8.95636 8.2298 15.53542 3.313 2.74047 5.5728 5.24597 6.549 7.2625 1.3373 2.76212 1.6767 3.03354 3.296 2.62955 2.2362-.5579 6.0142-3.27705 8.4935-6.11232l1.8729-2.14313.028-23.43212.029-23.43351-15.3072-1.82601c-12.1401-1.44805-20.2264-2.22239-26.1813-2.26274zm290.4917 22.09248c-.6944.0838-1.6949 1.03634-4.1466 3.46263l-4.0806 4.03771 1.9495 1.94965c1.0723 1.0723 3.1637 2.38298 4.6479 2.91173 4.044 1.44084 10.3311 1.27938 13.7012-.35206 2.8878-1.398 5.3582-4.12044 6.5248-7.18858.613-1.61189.5553-1.66671-1.0895-1.04132-4.5857 1.74342-13.1004.116-16.3392-3.12271-.4443-.44435-.751-.70726-1.1675-.65705zm-99.7939 5.9417c.6549.001.7645.97574.7645 3.31345 0 3.58226-.3753 4.02019-2.2076 2.57986-1.9561-1.5377-2.1417-3.72206-.419-4.92858.8792-.61597 1.469-.96558 1.8621-.96473zm46.8575 1.12331v4.19086c0 4.44297-.3241 4.77045-3.3027 3.33633-2.4165-1.16348-1.8382-4.53646 1.067-6.22655zm-204.2178.50385c.5339-.004.583.92816.583 4.06996 0 4.73513-.6022 5.48917-2.3686 2.9668-1.7381-2.48131-1.2559-5.52274 1.0734-6.76935.3016-.16137.5341-.26629.7122-.26739z"/>
      <g id="g22050" transform="translate(984.32445 763.92761) scale(.54158)">
        <g id="g2045" stroke="#000" stroke-opacity="1" transform="matrix(.99422 0 0 1 .91408162 .23655264)">
          <path id="path2047" fill="#fff" fill-rule="evenodd" stroke="none" stroke-opacity="1" d="M192 .003418c-14.86816 14.05127-34.92773 22.666504-57 22.666504-22.07324 0-42.131836-8.617676-57-22.669922L0 80.771484c19.416016 14.393067 32 37.479006 32 63.504396 0 16.48779-5.051758 31.79736-13.690918 44.46289C6.793457 205.58789 0 226.05078 0 248c0 57.78711 46.680176 104.66992 104.39014 104.99805 33.27832 0 63.58545 11.61133 87.60986 31.00195 24.02344-19.39062 54.33203-31.00195 87.60938-31.00195C337.31934 352.66992 384 305.78711 384 248c0-21.94922-6.79297-42.41211-18.30957-59.26123C357.05078 176.07324 352 160.76367 352 144.27588c0-26.02539 12.58398-49.111329 32-63.504396L306 0c-14.86816 14.052246-34.92773 22.669922-57 22.669922-22.07227 0-42.13281-8.615234-57-22.666504z"/>
        </g>
        <g id="g2051" stroke="none" stroke-opacity="1">
          <path id="path2053" fill-rule="evenodd" stroke="none" stroke-opacity="1" d="m303.87109 28.027344 50.36719 52.155761C339.74805 97.525391 331 119.88574 331 144.27588c0 20.84326 6.40527 40.26269 17.34766 56.3042C357.56543 214.06836 363 230.43164 363 248c0 46.22949-37.34375 83.73633-83.50977 83.99902-32.36914.02246-62.33203 9.61719-87.49023 26.06153-25.18896-16.46485-55.19531-26.0625-87.60986-26.0625C58.279785 331.67285 21 294.19043 21 248c0-17.56738 5.434082-33.93164 14.652344-47.41992C46.594238 184.53857 53 165.11914 53 144.27588c0-24.39063-8.748047-46.750489-23.238769-64.092774L80.12793 28.027344C96.056152 37.936523 114.87451 43.669922 135 43.669922c21.02832 0 40.62988-6.258789 57-17 16.36914 10.741211 35.97168 17 57 17 20.125 0 38.94336-5.733399 54.87109-15.642578zM249 31.669922c21.25488 0 40.83789-7.217773 56.41211-19.322266l65.40234 67.726563C353.70605 96.120117 343 118.94775 343 144.27588c0 18.35449 5.63086 35.42529 15.25781 49.5376C368.78906 209.22266 375 227.92773 375 248c0 52.83398-42.67969 95.69922-95.44141 95.99805-32.84277.01172-62.98242 10.65625-87.55859 28.65234-24.58936-18.00488-54.74756-28.65234-87.60986-28.65234C51.651367 343.67188 9 300.81641 9 248c0-20.07227 6.210938-38.77734 16.742188-54.18652C35.368164 179.70117 41 162.63037 41 144.27588c0-25.32813-10.706543-48.155763-27.81543-64.201661l65.403321-67.726563C94.162598 24.452148 113.74463 31.669922 135 31.669922c21.52197 0 41.33105-7.398926 57-19.780273 15.66992 12.381347 35.47754 19.780273 57 19.780273z"/>
        </g>
        <path id="rect68" fill="#fff" d="M247.36197 238.72392h70.674843v67.533745H247.36197z"/>
        <path id="rect70" fill="#fff" d="M203.38651 270.13498h74.601227v40.834354H203.38651z"/>
      </g>
      <path id="path858" fill="#fff" fill-opacity="1" fill-rule="nonzero" stroke="none" stroke-dasharray="none" stroke-dashoffset="0" stroke-linecap="round" stroke-linejoin="round" stroke-miterlimit="10" stroke-opacity="1" stroke-width="5.26314354" d="m611.34614 627.06134-48.57511 56.19538 48.15967 67.325 215.95507-.80759v.37979s-1.99966 189.3124-2.67857 219.0914h127.61675V748.04498l316.97835-2.18466 50.8787-59.42249-56.0318-65.09382-311.82525 2.59382V437.54745l-63.8083-63.79194-63.80843 63.79194 3.125 188.76678z" clip-rule="nonzero" color="#000" color-interpolation="sRGB" color-interpolation-filters="linearRGB" color-rendering="auto" display="inline" image-rendering="auto" opacity="1" overflow="visible" shape-rendering="auto" style="isolation:auto;mix-blend-mode:normal;solid-color:#000;solid-opacity:1" text-rendering="auto" visibility="visible"/>
      <path id="path1194" fill="#fff" fill-opacity="1" stroke-width=".81122428" d="M764.67504 201.73233c0-1.15838-4.3731-5.47669-16.42812-16.22231-6.96066-6.2046-10.34227-11.86748-10.34227-17.3193 0-2.93126.44295-3.79701 3.23173-6.31652 1.77746-1.60582 6.97944-4.79752 11.55995-7.09267 14.97871-7.50533 19.28037-11.93602 19.27909-19.85739-.002-11.05508-12.88491-25.32876-28.79103-31.89856-6.48053-2.67669-20.49469-3.411886-25.65778-1.34603-3.71314 1.48569-3.55895 1.51393-4.26163-.78014-.41676-1.360616 1.29374-3.129136 9.83673-10.170356 5.68765-4.68785 12.80782-10.45977 15.82255-12.8265l5.48135-4.30315 4.65895 2.61134c12.47232 6.99072 25.71595 15.20297 28.22792 17.50384l2.79583 2.56089v93.133786l-1.82526 3.59606c-1.92365 3.78991-7.49961 8.37511-11.36439 9.34511-1.65819.41618-2.22362.25901-2.22362-.6181zm6.86885-43.27971c.31129-2.49152.36154-4.73448.11167-4.98436-.24988-.24988-1.82922.069-3.50963.70854-4.09668 1.5592-4.40627 3.67406-.95913 6.55186 1.48496 1.23969 2.94543 2.25399 3.24551 2.25399.30007 0 .80028-2.03852 1.11158-4.53003zm62.34105 43.45557c-.97471-.38858-2.13714-1.38835-2.58316-2.22175-.73312-1.36984-7.29067-4.80047-17.14814-8.9712-9.28829-3.92989-13.20977-10.96571-14.87571-26.68962l-.44817-4.22998 3.00045-.49029c8.09502-1.32276 15.10203-2.90885 19.76166-4.47319 7.22054-2.42409 12.84846-4.91272 12.84846-5.68148 0-1.02448-8.91635-6.14104-13.21074-7.58087-5.43938-1.82372-10.98101-1.62173-17.17327.62593l-5.30985 1.92738v-37.96263l6.69259-4.30658c3.68094-2.368616 15.35968-9.526966 25.95277-15.907446l19.26016-11.60087 5.07656.9957c7.59151 1.48898 22.9921 6.73401 29.8489 10.16573 10.2686 5.13935 15.5114 10.00776 19.6415 18.239196 2.4752 4.93321 2.6372 5.77991 2.6372 13.79081 0 7.80484-.2008 8.93121-2.3471 13.16784-9.3721 18.50018-28.49848 23.95006-42.08426 11.99144-4.68109-4.12049-6.27465-7.56183-6.25235-13.50207.0202-5.49125 1.95424-10.39427 5.33591-13.52989 3.06822-2.84501 9.37929-4.25298 13.76725-3.07141 4.70425 1.26672 6.59535 3.66754 7.54725 9.58149 1.2597 7.82654 3.7173 11.60414 7.549 11.60414 2.8611 0 3.9103-2.26758 3.9103-8.4507 0-8.92147-7.607-14.81751-25.55357-19.80603-7.07251-1.96592-31.17293-1.8661-38.47522.15934-6.63391 1.84005-20.32671 8.74098-20.33891 10.25046-.002.22308 2.64417.2788 5.87993.1238 3.23577-.15499 7.89098.15668 10.34494.69263 5.63412 1.23046 13.27416 5.23076 15.86055 8.30452 1.89956 2.25747 1.98636 2.85443 1.98636 13.65558 0 6.21219.27379 11.30212.60842 11.31095 3.91375.10337 12.19651 1.93098 13.3074 2.93631.78462.7101 2.38386 4.1654 3.55381 7.67844 2.49022 7.47744 3.96032 8.90238 11.20905 10.86454 4.80372 1.30028 5.48704 1.30663 9.67264.0899 8.3346-2.42294 14.8469-9.06066 22.0468-22.47161l3.6615-6.82022.014 12.66606c.017 15.57632-.6807 19.53775-4.9786 28.28072-3.9021 7.93794-9.5296 14.05989-15.6941 17.07282-3.3516 1.63817-5.2538 1.97822-10.95146 1.95785-5.86025-.021-7.52374-.35016-11.08064-2.19292-4.94278-2.56078-9.18987-7.4576-12.02169-13.86082-1.84383-4.16929-2.04567-5.66363-2.04567-15.14838v-10.52279h-7.30101l-.008 15.21046c-.008 16.58036-.59788 20.18582-3.89882 23.7081-2.52864 2.69811-4.7028 3.43532-7.19794 2.44066zm.63191-36.4939c.20343-5.16311.16743-5.26508-1.75967-4.98515-4.52824.65777-5.92796 2.99864-3.97502 6.64774.68376 1.27759 4.90794 4.21015 5.38979 3.74175.0754-.0733.23069-2.50532.3449-5.40434zm138.969 36.50955c-13.8636-2.03278-27.8906-11.52141-37.419-25.31231-3.5978-5.20713-8.3357-14.71215-8.3357-16.72257 0-.38989 3.0954-1.31708 6.8785-2.06042 14.7269-2.89358 27.1928-8.26742 27.1928-11.72233 0-3.5749-7.8176-7.47401-14.9337-7.4483-4.5494.0165-13.2973 2.16601-16.4965 4.0536l-2.6411 1.55826.01-23.29534.01-23.295336 11.555-8.19666c11.1584-7.91523 21.8202-14.92323 22.7041-14.92323.2351 0 5.854 2.89992 12.4862 6.44427 15.7198 8.40075 23.0927 10.89889 30.71685 10.40768 9.7056-.62529 14.6432-4.74867 11.2223-9.37156-2.3355-3.15595-4.9691-4.19699-12.8966-5.09778-11.29205-1.28309-14.22335-3.66895-12.57085-10.23191 2.126-8.44292 8.5582-14.05375 16.11125-14.05375 9.0369 0 19.2617 6.56961 21.2247 13.63719 1.9115 6.8827.3083 16.22826-4.2551 24.80273-3.0235 5.68092-11.9657 15.028956-18.4739 19.312246-5.0196 3.30358-13.17225 6.33454-17.03865 6.33454-1.3924 0-7.3359-2.21777-13.208-4.92838-15.3825-7.10082-18.4374-8.05704-25.6081-8.0156-6.5029.0375-11.3149 1.30559-13.9274 3.66984-1.6358 1.48037-3.7863 7.31999-2.9891 8.11708.2501.25021 2.3521-.50648 4.6709-1.68152 15.0153-7.60887 37.1958 1.60427 39.4101 16.36982 1.3021 8.68325-1.2175 14.88148-9.5414 23.47268l-5.5922 5.7718 4.5137 4.12528c5.9703 5.45662 13.3868 9.03945 20.8553 10.07499 5.2985.73467 6.4054.63788 10.4718-.91558 11.31055-4.32082 21.98285-14.53769 30.17195-28.8844l2.3153-4.05612-.44 6.4898c-1.8933 27.92693-20.7255 52.09869-43.23945 55.49898-6.364.96115-6.8242.96373-12.9037.0723zm124.19665-.068c-21.519-2.90369-36.6782-14.49194-44.9499-34.36161-5.7956-13.92175-7.7095-35.87097-4.2614-48.86934 5.8499-22.052246 14.5764-38.991696 22.088-42.876046 3.2038-1.65681 8.359-1.48377 12.0608.40483 6.4591 3.29517 12.5171 13.12337 15.5975 25.304446 4.0122 15.86665-.6357 40.96497-9.1084 49.18457-3.2047 3.10884-5.2915 3.78339-9.8238 3.17547-4.6588-.62486-8.6892-4.21179-12.0237-10.70044-2.4612-4.78952-2.8389-6.29191-2.8361-11.28542 0-4.58839.3988-6.45212 1.9478-9.16043 2.9088-5.08555 4.9315-5.59035 12.2101-3.04735 6.6508 2.32366 10.2114 2.20177 12.5941-.43116 1.6837-1.86047 1.2884-4.17998-1.381-8.10266-6.1574-9.04822-15.562-8.33999-22.9752 1.73021-5.4868 7.45323-7.1508 12.56859-7.2134 22.1745-.048 7.38511.1605 8.54852 2.3281 12.9796 3.1683 6.47647 9.5416 12.58227 16.8672 16.15885 23.7771 11.60896 59.5731 7.78758 68.4433-7.30667 3.7928-6.45422 2.0299-12.61815-4.3376-15.16593-5.9046-2.36256-11.2661-2.43393-21.6884-.28865-5.3472 1.10064-10.0017 1.82847-10.3431 1.61742-.3415-.21106-.6209-10.33949-.6209-22.50764V98.358504l8.7206-8.14036c4.7964-4.4772 10.1573-9.93345 11.9132-12.125l3.1924-3.98464 5.7311 3.77477c9.9967 6.58446 18.2182 8.63569 24.3475 6.07468l2.7456-1.14718-1.4477 4.2075c-3.8304 11.13344-9.6945 18.148926-16.63 19.895286-5.0404 1.26919-7.188 1.14726-14.1368-.80258-9.4084-2.64002-14.3251-1.21233-17.6176 5.11584-1.8244 3.50657-1.3695 3.90403 2.5062 2.18962 4.9452-2.18752 16.0351-3.38891 21.5785-2.33765 12.8607 2.439 18.355 9.6525 20.3586 26.72888.9273 7.90391.9216 7.95691-1.7185 16.07203-1.4724 4.52553-2.4266 8.84264-2.1483 9.71941 1.1444 3.6058 12.5732 7.88854 23.391 8.76535 20.7146 1.67899 36.2678-7.48704 36.2913-21.38766.01-6.18281-3.3801-8.80922-13.856-10.73312-6.0423-1.10968-18.6745-.4454-23.4289 1.23202-1.7188.60644-3.3406.88709-3.6041.62367-.2635-.26343-.479-10.23307-.479-22.15477V98.268824l5.6886-4.65402c6.1943-5.0678 17.837-17.06989 17.837-18.38775 0-.45101 1.8034.47568 4.0077 2.05929 10.4223 7.48763 20.9363 10.45516 26.6233 7.51429l2.5403-1.31363-1.478 4.2958c-5.7111 16.599636-15.5818 23.407436-28.4484 19.620826-2.454-.72219-6.487-1.51019-8.9623-1.75111-4.0489-.39408-4.7641-.21625-7.1274 1.77229-2.6174 2.20241-5.4733 6.68381-4.7318 7.42523.2145.21452 1.5041-.18603 2.8656-.89012 3.3908-1.75346 14.1772-3.14922 19.3462-2.5034 5.3544.66898 13.2841 4.58317 16.1462 7.96993 5.4621 6.46332 8.136 17.89868 7.3926 31.61518-.7498 13.83362-5.1364 23.97493-14.9993 34.67659-6.4732 7.02381-12.5339 11.02743-21.2512 14.03816-5.7361 1.98115-8.2599 2.39897-14.6378 2.42338-8.9101.034-11.3518-.5522-25.2328-6.05912l-10.2251-4.05653-8.0275 3.76387c-4.4151 2.07014-9.9491 4.26942-12.2979 4.88729-5.8604 1.54168-16.4858 2.06158-23.3111 1.1406zm-451.44619-1.14857c-16.72037-3.3666-33.03123-15.51825-39.95939-29.7699-4.5562-9.37241-4.55605-9.2927-.0177-9.93124 5.86961-.82583 15.35332-3.52265 19.08791-5.42789 3.1752-1.61987 11.9657-9.26745 11.9657-10.40995 0-.29882-1.36894-1.21638-3.04209-2.03905-4.76111-2.34096-15.20777-2.55395-24.32814-.49599-4.12238.93019-7.68163 1.69124-7.90943 1.69124-.22782 0-.41421-10.53387-.41421-23.40861V97.507274l7.72217-6.69498c4.2472-3.68223 9.40555-8.83765 11.46301-11.45647 2.19241-2.79058 4.11676-4.53096 4.649-4.20456.49949.30632 2.45855 1.60123 4.35347 2.87758 7.98654 5.37947 18.48763 7.91324 24.74473 5.97057 2.93548-.91138 2.8783-.18922-.57716 7.28967-3.73825 8.09095-6.91006 11.916556-11.97096 14.438506-5.19517 2.58886-10.26499 2.7129-18.07817.44231-8.71601-2.53297-13.23779-.93878-16.72488 5.89646l-1.67454 3.28237 1.89998-.57331c8.84925-2.67019 11.63908-3.19262 17.3303-3.24528 5.79231-.0536 7.10585.23466 11.96153 2.6251 8.33899 4.10528 11.85532 9.77961 11.909 19.21772.0334 5.8724-2.04712 10.773-8.45735 19.92109l-4.40149 6.28139 4.42098 4.18118c11.52395 10.89887 30.45409 13.00084 46.20332 5.13033 13.46484-6.72891 18.31315-15.06266 12.56903-21.60486-3.09107-3.52053-6.37648-5.06921-14.17546-6.68208-5.06495-1.04746-7.40704-1.12604-12.62626-.42364-3.52431.4743-7.69579 1.4005-9.26997 2.05823l-2.86213 1.19589.0417-22.87571.0416-22.875676 5.67374-4.46174c5.85574-4.60486 13.7116-12.41191 16.66813-16.56455l1.68602-2.36815 5.78847 3.84818c9.68282 6.43712 18.29163 8.52179 23.68145 5.73462 2.17719-1.12588 2.39338-1.11836 2.39338.0832 0 2.60516-6.30869 14.5995-9.24681 17.580406-6.04411 6.13213-11.5097 7.37765-20.86051 4.75382-8.88292-2.49255-11.41993-2.29926-15.25109 1.16198-3.5547 3.21146-6.01068 8.29424-3.50406 7.25187 5.31296-2.2094 9.58346-3.03873 16.00789-3.10874 5.97812-.0651 8.03596.25473 11.35714 1.76543 10.0917 4.59038 15.53798 14.37496 17.01219 30.56339 1.27364 13.98607-8.54222 36.22018-20.67665 46.83508-10.91649 9.54949-27.84606 13.32734-44.60338 9.95331zm9.63919-35.59968c-3.69926-1.32194-8.08475-4.01523-10.02-6.15366-1.46491-1.6187-1.4085-1.73589 3.2348-6.71879 2.59915-2.78926 5.38828-5.7865 6.19809-6.66054 1.45495-1.5704 1.50368-1.55889 4.11958.97291 3.51307 3.40012 7.17624 4.83137 14.01921 5.4775 4.22577.39901 6.57116.20801 9.23795-.75224 1.96584-.70787 3.6848-1.17648 3.81992-1.04135.13512.13511-.59464 2.05552-1.62169 4.26757-2.26871 4.88634-7.40349 9.69451-11.59643 10.85882-4.21282 1.16984-13.80372 1.03185-17.39143-.25022zm515.6286-108.667196c-10.6198-3.48865-18.2527-13.21276-18.2527-23.2536 0-7.79516 4.8706-16.525644 10.8285-19.409766 9.5458-4.6210901 18.5426.475451 18.7166 10.602766.074 4.29941-1.5804 6.7313-5.7906 8.51336-3.7883 1.6034-6.1295 1.37619-11.1398-1.08107-5.0405-2.47206-6.3838-2.06983-3.958 1.18519 4.7786 6.41206 26.4307 7.8408 37.1576 2.45188 4.64-2.33099 6.0027-3.73624 6.5733-6.77839.3444-1.83545.052-3.43101-.9345-5.10116-1.4027-2.374437-3.2757-3.419878-11.0716-6.179326-4.0678-1.439809-7.9324-5.222037-7.9324-7.7630031 0-2.095643 4.2802-6.803575 7.6314-8.393753 5.8477-2.774906 12.8072-.74520698 16.644 4.853985 3.9574 5.7755921 5.2301 16.7621111 2.9389 25.3706071-2.941 11.04996-9.0247 18.79219-18.1086 23.04563-4.6437 2.17439-6.5414 2.58772-12.7563 2.7785-4.4508.13662-8.5676-.19201-10.5458-.84185z"/>
      <path id="path1220" fill="#fff" fill-opacity="1" stroke-width=".57224643" d="M1441.6617 703.74947c-3.5299-1.53749-11.5002-10.03632-10.1378-10.81003.241-.13687 2.1611-.81428 4.2669-1.50531 4.267-1.40031 10.1178-4.93425 11.5468-6.97445.9271-1.32375 1.2389-3.44348.6002-4.08209-.1832-.18332-1.6424.27325-3.2426 1.01457-2.6246 1.21605-3.0611 1.26931-4.4625.54461-4.8738-2.52031-6.0454-7.93007-2.6829-12.38787 6.1554-8.16055 18.7468-5.82859 20.1813 3.73763.4438 2.96017-1.7501 8.90302-4.7264 12.80211-3.6055 4.72365-.3986 5.86639 4.4295 1.57834l2.9065-2.58137 2.6921 2.06147c2.2896 1.75332 3.016 2.01854 4.8602 1.77442 4.2988-.56901 4.9093-2.85897 2.2059-8.27462-2.3361-4.6797-2.5656-6.11331-1.4955-9.33559 1.5188-4.57227 5.5252-6.59691 9.6465-4.87488 2.4852 1.03837 2.9575 2.98496 2.4203 9.97458-.5204 6.77113-1.6729 10.88487-4.9387 17.6304-3.6924 7.62656-6.7314 10.5131-11.069 10.5131-2.8135 0-3.0029-.10677-6.0909-3.43347-1.7529-1.88841-3.5004-3.43348-3.8835-3.43348-.383 0-1.5889 1.24247-2.6799 2.76104-2.8998 4.03623-6.2236 5.09666-10.3465 3.30089zm-17.9971-43.29276c-7.2463-3.30926-10.2181-9.92707-8.6225-19.20165 1.7827-10.36306 8.426-17.36086 18.2136-19.18499 12.8335-2.39189 21.7854 5.61157 23.3433 20.8703.4556 4.46327.9309 4.88274 4.3661 3.85352 2.9296-.87773 6.8973-4.90294 7.7988-7.91225.8266-2.75886.8796-7.17404.1178-9.82954-.3095-1.07865-.4807-2.04321-.3802-2.14348.1-.10025 1.7593.6058 3.6867 1.569 3.9993 1.99843 5.9994 4.1096 7.9844 8.4274 1.7171 3.73515 1.9166 9.7869.4264 12.9274-2.1468 4.52414-10.7191 10.09826-16.8205 10.93741-3.3326.45835-6.9689-.42615-8.8699-2.1577-.7658-.69738-2.6035-4.18132-4.084-7.74211-2.372-5.70519-2.9618-6.64481-4.9673-7.91082-5.2371-3.30585-16.8006-3.97906-21.719-1.26445-2.8317 1.56294-4.2322 3.69119-3.734 5.67476.5608 2.2339 1.6856 3.29597 3.9139 3.69608 2.0251.36364 2.1034.31182 2.7602-1.82381 1.7463-5.67845 2.8269-6.6158 7.7506-6.72228 3.1149-.0674 5.2457 1.39851 7.0413 4.84386 2.4618 4.72403.6149 10.2319-4.2149 12.56993-3.7792 1.82954-10.5742 2.08375-13.9909.52342zm-41.774-43.46033c-5.4062-2.51081-12.0188-11.57507-14.0038-19.19576-1.1089-4.2573-1.1205-12.01662-.027-17.80243 1.0799-5.71235 4.4813-12.64241 8.3014-16.9132l2.9266-3.272-1.9348-3.02271c-2.0993-3.27962-5.3441-6.41399-7.2739-7.02649-.6674-.21185-1.135-.59489-1.0389-.85117.096-.2563 3.8628-3.21874 8.3708-6.5832 4.5078-3.36448 10.0817-8.00279 12.3862-10.30735l4.1902-4.19014 3.0143 2.03003c6.3725 4.29142 13.2187 6.07163 17.5635 4.56697 1.3377-.46323 2.4321-.78392 2.4321-.71262 0 .61848-2.4037 6.87355-3.3665 8.76102-4.2222 8.27646-9.8847 10.13426-23.0798 7.57238-3.2371-.62853-6.3363-1.14354-6.887-1.1445-1.9796-.004-.9358 1.51553 2.6712 3.88694l3.6726 2.41464 3.6235-.85421c2.1593-.50904 6.4441-.85763 10.604-.86267 8.7049-.0109 13.8873 1.44185 20.464 5.73527 6.9108 4.51126 12.3266 10.66297 12.3266 14.00115 0 .49849-1.86 4.49422-4.1333 8.87941-4.0183 7.75187-4.1017 7.99648-3.0042 8.81738 3.9634 2.96433 15.955 5.35142 23.4465 4.66737 4.6102-.42096 10.3161-2.8138 12.6661-5.3117 3.5409-3.7641 4.7534-10.05243 2.4922-12.92696-3.4529-4.3896-16.3904-4.74499-25.8879-.71115-.9403.39934-1.0015-.57134-1.0015-15.89559V544.4242l5.3041-4.56283c5.2478-4.5144 9.0342-8.32299 10.8082-10.87118l.9155-1.31527 2.604 1.75738c3.6188 2.44227 8.3206 4.51476 11.9872 5.28386 2.5479.53442 3.5804.49284 5.7851-.23299 2.6533-.87346 2.6798-.86969 2.336.33063-.8982 3.13657-4.348 9.60509-6.2388 11.69796-4.3231 4.78507-8.8621 5.67735-17.5254 3.44524l-4.9112-1.26536-2.2419 1.15526c-1.9954 1.02826-5.4017 5.52948-4.7089 6.22242.1268.12726 1.6356-.14467 3.352-.60404 9.0844-2.43141 16.3219-1.29099 21.5314 3.39272 5.2277 4.70024 7.6266 11.11766 7.6266 20.40324 0 18.09286-11.674 33.49972-28.4402 37.5346-10.4691 2.51943-24.255-.0205-33.0846-6.0954-2.1527-1.4812-2.5479-2.01983-2.2319-3.04297.2112-.68379 2.4118-5.58466 4.8903-10.89085l4.5063-9.64761-1.5179-2.78903c-2.1779-4.00133-5.0765-6.69128-9.5306-8.84475-5.0509-2.44198-10.5576-3.34521-18.1322-2.97416-6.5568.32122-11.4116 1.67606-14.5309 4.05526-3.7927 2.89272-6.2737 10.11963-5.2846 15.39234.4989 2.65925 3.8807 6.46932 7.264 8.18374 2.2887 1.15981 3.6128 1.40718 7.518 1.40455 8.0818-.005 12.1638-2.01918 11.7856-5.81417-.2587-2.59665-1.7387-3.32109-4.0522-1.98335-6.8984 3.98917-8.3062 4.51567-10.9956 4.11238-3.7051-.55559-6.2833-2.94823-7.1728-6.65658-.3804-1.58537-.5285-3.69821-.3291-4.6952.5488-2.74394 3.1031-6.02744 6.0174-7.73533 2.2162-1.29872 3.2602-1.52686 6.907-1.50931 4.9535.0237 6.9055.83731 9.7307 4.05475 5.4484 6.20557 6.4756 16.40684 2.4747 24.57778-4.6331 9.46226-14.5957 14.50428-21.9288 11.09845zm123.6015.61424c-5.7216-1.74041-9.8196-6.57865-11.7662-13.89131-1.0556-3.96563-1.0461-9.79953.02-11.86024 1.2313-2.38116 5.2547-5.7076 11.4024-9.42704 6.6121-4.00053 6.8975-4.30276 5.9744-6.3287-1.723-3.78185-10.4041-5.2255-16.1429-2.68454-1.535.67969-2.8912 1.23578-3.0135 1.23578-.1233 0-.1541-6.87473-.071-15.27717l.1522-15.27717 8.8698-5.34592c4.8783-2.94026 11.4644-6.74812 14.6354-8.46191l5.7655-3.11595 4.6505.81762c7.7258 1.35832 18.1862 5.1608 25.0779 9.11612 10.5093 6.03163 12.7948 7.47777 12.8066 8.10332 0 .33103-3.4651 8.55329-7.714 18.27169-4.2489 9.71839-7.7254 17.98918-7.7254 18.37954 0 .89217 5.4909 5.85639 10.0143 9.05358 11.1172 7.85797 25.1183 8.10046 33.4435.5792 5.8606-5.2947 6.6276-12.62867 1.641-15.69294-5.6209-3.45407-13.9574-3.15541-23.4965.84179-.9405.39407-1.0009-.58636-.9922-16.09367l.018-16.51331 5.6456-4.40923c3.3035-2.58014 6.7731-5.90354 8.3637-8.01145 1.4952-1.98123 2.9315-3.54132 3.192-3.4669.2605.0745 1.8834 1.03719 3.6065 2.13945 6.3715 4.07586 12.5472 5.61024 16.7379 4.15872l2.371-.8212-1.0128 2.94385c-4.3246 12.56928-11.3279 16.73643-22.615 13.45626-4.6287-1.34514-6.9576-1.12377-9.3493.88864-1.5286 1.28628-3.4005 4.59858-2.8862 5.10734.1214.11983 2.0227-.39689 4.2257-1.14807 7.0782-2.41339 14.3125-1.6667 19.2857 1.99051 5.5744 4.09951 8.1468 10.8723 8.1682 21.50685.018 5.62628-.2282 7.64239-1.3268 11.15881-4.1992 13.44181-12.9482 23.04477-24.2474 26.61417-5.5525 1.75405-12.9128 2.39733-16.472 1.43961-5.5106-1.4829-15.9453-7.50619-24.3204-14.0386-7.5102-5.85793-7.2463-4.87715-3.2608-12.10978 4.9523-8.98716 13.2752-25.78321 13.2752-26.79011 0-1.55908-4.2008-5.57781-9.4421-9.03269-10.6959-7.05058-15.4983-8.71257-25.1789-8.71396-6.346-.001-7.1057.11838-10.0142 1.57153-1.7311.86488-3.7912 2.09283-4.578 2.72877l-1.4307 1.15626 2.9555-.36398c3.7879-.4665 9.9186.59066 13.8858 2.3945 10.8937 4.95298 14.5971 15.15111 8.4418 23.24611-1.0273 1.35085-4.3035 4.31279-7.2807 6.58208-5.911 4.50553-9.1325 7.68539-9.1325 9.01409 0 .46947.6451 1.27626 1.4335 1.79284 1.5781 1.03401 1.3566 1.14028 5.3856-2.58309 2.7062-2.50093 4.1462-2.8223 7.5447-1.68398 4.4052 1.47547 6.7842 5.46093 6.7842 11.36565 0 7.71728-4.3866 13.08499-12.3986 15.17188-3.4726.90449-7.537 1.0344-9.8977.31635z"/>
    </g>
    <g id="text13156" fill="#fff" fill-opacity="1" stroke="none" stroke-width="4.90926647" aria-label="MEAN CHEY" font-family="Helvetica" font-size="818.21112061" font-stretch="normal" font-style="normal" font-variant="normal" font-weight="700" letter-spacing="0" style="line-height:1.25;-inkscape-font-specification:'Helvetica Bold';font-variant-ligatures:normal;font-variant-caps:normal;font-variant-numeric:normal;font-feature-settings:normal;text-align:start" text-anchor="start" transform="translate(1079.7657 707.63089) scale(.14009)" word-spacing="0" writing-mode="lr-tb">
      <path id="path13166" fill="#fff" fill-opacity="1" stroke-width="4.90926647" d="M-1814.5979 32.212994V-553.47915h116.6591l138.6324 414.6988q19.1768 57.929991 27.9662 86.695225 9.9879-31.961372 31.1623-93.886525l140.2306-407.5075h104.2739V32.212994h-74.7097V-457.99455l-170.1943 490.207544h-69.9155l-169.3952-498.597404V32.212994Z" font-family="Helvetica" font-stretch="normal" font-style="normal" font-variant="normal" font-weight="400" style="-inkscape-font-specification:Helvetica"/>
      <path id="path13168" fill="#fff" fill-opacity="1" stroke-width="4.90926647" d="M-1128.2274 32.212994V-553.47915h423.4882v69.11647h-345.9819v179.3832h324.00845v68.71695h-324.00845v199.359057h359.56548v69.116467z" font-family="Helvetica" font-stretch="normal" font-style="normal" font-variant="normal" font-weight="400" style="-inkscape-font-specification:Helvetica"/>
      <path id="path13170" fill="#fff" fill-opacity="1" stroke-width="4.90926647" d="m-647.60822 32.212994 224.92816-585.692144h83.49908L-99.470691 32.212994h-88.293289l-68.31743-177.385614h-244.90402l-64.32226 177.385614zm168.99575-240.509324h198.56003l-61.12613-162.20396q-27.9662-73.91067-41.54978-121.45322-11.18648 56.33192-31.56185 111.86481z" font-family="Helvetica" font-stretch="normal" font-style="normal" font-variant="normal" font-weight="400" style="-inkscape-font-specification:Helvetica"/>
      <path id="path13172" fill="#fff" fill-opacity="1" stroke-width="4.90926647" d="M-37.545442 32.212994V-553.47915h79.503913L349.58668-93.634908V-553.47915h74.31018V32.212994h-79.50391L36.764748-428.03076V32.212994Z" font-family="Helvetica" font-stretch="normal" font-style="normal" font-variant="normal" font-weight="400" style="-inkscape-font-specification:Helvetica"/>
      <path id="path13174" fill="#fff" fill-opacity="1" stroke-width="4.90926647" d="m1199.3597-173.13882 77.5063 19.57634q-24.3705 95.484598-87.8937 145.8237587-63.1237 49.9396433-154.6132 49.9396433-94.68554 0-154.21359-38.3536459Q821.01697-34.905887 789.85463-108.01753q-30.76282-73.11163-30.76282-157.01024 0-91.48942 34.758-159.40734 35.1575-68.31743 99.47977-103.47494 64.72177-35.55703 142.22812-35.55703 87.8938 0 147.8213 44.74593 59.9276 44.74592 83.4991 125.8479l-76.3078 17.97827q-20.3753-63.92274-59.1285-93.0875-38.7532-29.16475-97.4822-29.16475-67.51839 0-113.06334 32.36089-45.14544 32.36089-63.52323 87.09474-18.37779 54.33433-18.37779 112.26432 0 74.7097 21.57393 130.64211 21.97344 55.532879 67.91791 83.099562 45.94448 27.566684 99.47982 27.566684 65.1212 0 110.2667-37.554612 45.1454-37.554612 61.1261-111.465284z" font-family="Helvetica" font-stretch="normal" font-style="normal" font-variant="normal" font-weight="400" style="-inkscape-font-specification:Helvetica"/>
      <path id="path13176" fill="#fff" fill-opacity="1" stroke-width="4.90926647" d="M1375.1473 32.212994V-553.47915h77.5063v240.50933h304.4321v-240.50933h77.5063V32.212994h-77.5063V-243.85336h-304.4321V32.212994Z" font-family="Helvetica" font-stretch="normal" font-style="normal" font-variant="normal" font-weight="400" style="-inkscape-font-specification:Helvetica"/>
      <path id="path13178" fill="#fff" fill-opacity="1" stroke-width="4.90926647" d="M1965.6336 32.212994V-553.47915h423.4882v69.11647H2043.14v179.3832h324.0084v68.71695H2043.14v199.359057h359.5654v69.116467z" font-family="Helvetica" font-stretch="normal" font-style="normal" font-variant="normal" font-weight="400" style="-inkscape-font-specification:Helvetica"/>
      <path id="path13180" fill="#fff" fill-opacity="1" stroke-width="4.90926647" d="M2675.5757 32.212994V-215.88716l-225.7272-337.59199h94.2861l115.4604 176.58658q31.9614 49.54013 59.5281 99.08026 26.3681-45.94448 63.9227-103.47495l113.4629-172.19189h90.2909L2753.082-215.88716V32.212994Z" font-family="Helvetica" font-stretch="normal" font-style="normal" font-variant="normal" font-weight="400" style="-inkscape-font-specification:Helvetica"/>
    </g>
    <g id="text13185" fill="#fff" fill-opacity="1" stroke="none" stroke-width=".26458332" aria-label="VIETNAM" font-family="Helvetica" font-size="44.09722137" font-stretch="normal" font-style="normal" font-variant="normal" font-weight="700" letter-spacing="0" style="line-height:1.25;-inkscape-font-specification:'Helvetica Bold';font-variant-ligatures:normal;font-variant-caps:normal;font-variant-numeric:normal;font-feature-settings:normal;text-align:start" text-anchor="start" transform="translate(-779.12202 619.04147) scale(2.58343)" word-spacing="0" writing-mode="lr-tb">
      <path id="path13187" fill="#fff" fill-opacity="1" stroke-width=".26458332" d="m400.93971 226.00911-12.23008-31.56569h4.52168l8.20364 22.93142q.99046 2.75608 1.65795 5.16764.73208-2.58382 1.70101-5.16764l8.52662-22.93142h4.2633l-12.35928 31.56569z" font-family="Helvetica" font-stretch="normal" font-style="normal" font-variant="normal" font-weight="400" style="-inkscape-font-specification:Helvetica"/>
      <path id="path13189" fill="#fff" fill-opacity="1" stroke-width=".26458332" d="M422.08399 226.00911v-31.56569h4.17718v31.56569z" font-family="Helvetica" font-stretch="normal" font-style="normal" font-variant="normal" font-weight="400" style="-inkscape-font-specification:Helvetica"/>
      <path id="path13191" fill="#fff" fill-opacity="1" stroke-width=".26458332" d="M433.68965 226.00911v-31.56569h22.82376v3.72501h-18.64658v9.6678h17.46233v3.70348h-17.46233v10.74439h19.37866v3.72501z" font-family="Helvetica" font-stretch="normal" font-style="normal" font-variant="normal" font-weight="400" style="-inkscape-font-specification:Helvetica"/>
      <path id="path13193" fill="#fff" fill-opacity="1" stroke-width=".26458332" d="M471.09047 226.00911v-27.84068h-10.39988v-3.72501h25.02v3.72501h-10.44294v27.84068z" font-family="Helvetica" font-stretch="normal" font-style="normal" font-variant="normal" font-weight="400" style="-inkscape-font-specification:Helvetica"/>
      <path id="path13195" fill="#fff" fill-opacity="1" stroke-width=".26458332" d="M489.9739 226.00911v-31.56569h4.28483l16.57953 24.78316v-24.78316h4.00492v31.56569h-4.28484l-16.57952-24.80469v24.80469z" font-family="Helvetica" font-stretch="normal" font-style="normal" font-variant="normal" font-weight="400" style="-inkscape-font-specification:Helvetica"/>
      <path id="path13197" fill="#fff" fill-opacity="1" stroke-width=".26458332" d="m518.41748 226.00911 12.12242-31.56569h4.50016l12.91911 31.56569h-4.75854l-3.68195-9.56014h-13.19902l-3.46662 9.56014zm9.10797-12.96217h10.70132l-3.29437-8.74193q-1.50723-3.98339-2.23931-6.54568-.60289 3.03599-1.70102 6.02891z" font-family="Helvetica" font-stretch="normal" font-style="normal" font-variant="normal" font-weight="400" style="-inkscape-font-specification:Helvetica"/>
      <path id="path13199" fill="#fff" fill-opacity="1" stroke-width=".26458332" d="M551.21048 226.00911v-31.56569h6.2873l7.47155 22.35006q1.03353 3.12212 1.50723 4.67241.53829-1.72255 1.67948-5.05998l7.55768-21.96249h5.61981v31.56569h-4.02645v-26.41958l-9.17257 26.41958h-3.76807l-9.12951-26.87174v26.87174z" font-family="Helvetica" font-stretch="normal" font-style="normal" font-variant="normal" font-weight="400" style="-inkscape-font-specification:Helvetica"/>
    </g>
    <g id="text13204" fill="#fff" fill-opacity="1" stroke="none" stroke-width=".26458332" aria-label="SNUOL" font-family="Helvetica" font-size="44.09722137" font-stretch="normal" font-style="normal" font-variant="normal" font-weight="700" letter-spacing="0" style="line-height:1.25;-inkscape-font-specification:'Helvetica Bold';font-variant-ligatures:normal;font-variant-caps:normal;font-variant-numeric:normal;font-feature-settings:normal;text-align:start" text-anchor="start" transform="translate(-952.62388 -3257.2795) scale(2.74056)" word-spacing="0" writing-mode="lr-tb">
      <path id="path13206" fill="#fff" fill-opacity="1" stroke-width=".26458332" d="m936.53995 1624.5672 3.94033-.3445q.27991 2.3685 1.29191 3.8973 1.03353 1.5072 3.18671 2.4546 2.15319.9259 4.84467.9259 2.39003 0 4.22024-.7106 1.83021-.7105 2.71301-1.9378.90434-1.2489.90434-2.713 0-1.4857-.86127-2.5839-.86128-1.1196-2.84221-1.8732-1.27038-.4953-5.61981-1.5288-4.34943-1.055-6.09351-1.9809-2.26085-1.1843-3.3805-2.9283-1.09813-1.7657-1.09813-3.9404 0-2.39 1.35651-4.4571 1.35651-2.0886 3.96186-3.1652 2.60535-1.0765 5.79207-1.0765 3.50969 0 6.17964 1.1411 2.69148 1.1197 4.13411 3.3159 1.44264 2.1963 1.55029 4.9739l-4.00492.3015q-.32298-2.993-2.19625-4.5217-1.85174-1.5288-5.49062-1.5288-3.7896 0-5.53368 1.3996-1.72255 1.378-1.72255 3.3374 0 1.701 1.22731 2.7991 1.20579 1.0982 6.2873 2.2609 5.10305 1.1412 6.99785 2.0025 2.75608 1.2703 4.06952 3.2297 1.31345 1.9379 1.31345 4.4787 0 2.5192-1.44264 4.7585-1.44263 2.2178-4.15564 3.4666-2.69149 1.2273-6.07199 1.2273-4.28483 0-7.19163-1.2488-2.88527-1.2489-4.54322-3.7466-1.63642-2.5192-1.72255-5.6844z" font-family="Helvetica" font-stretch="normal" font-style="normal" font-variant="normal" font-weight="400" style="-inkscape-font-specification:Helvetica"/>
      <path id="path13208" fill="#fff" fill-opacity="1" stroke-width=".26458332" d="M967.37356 1634.7087v-31.5656h4.28483l16.57952 24.7831v-24.7831h4.00493v31.5656H987.958l-16.57952-24.8046v24.8046z" font-family="Helvetica" font-stretch="normal" font-style="normal" font-variant="normal" font-weight="400" style="-inkscape-font-specification:Helvetica"/>
      <path id="path13210" fill="#fff" fill-opacity="1" stroke-width=".26458332" d="M1019.9974 1603.1431h4.1772v18.2374q0 4.7586-1.0766 7.5577-1.0766 2.7991-3.8973 4.5648-2.7991 1.744-7.3639 1.744-4.4355 0-7.2562-1.5287-2.8207-1.5288-4.0265-4.4141-1.20575-2.9068-1.20575-7.9237v-18.2374h4.17715v18.2159q0 4.1126.7536 6.072.7752 1.9378 2.6269 2.9929 1.8733 1.0551 4.5648 1.0551 4.6078 0 6.5672-2.0886 1.9594-2.0886 1.9594-8.0314z" font-family="Helvetica" font-stretch="normal" font-style="normal" font-variant="normal" font-weight="400" style="-inkscape-font-specification:Helvetica"/>
      <path id="path13212" fill="#fff" fill-opacity="1" stroke-width=".26458332" d="M1029.8805 1619.335q0-7.8591 4.2203-12.2947 4.2202-4.4571 10.8951-4.4571 4.3709 0 7.8806 2.0886 3.5097 2.0886 5.3399 5.8351 1.8518 3.7251 1.8518 8.4621 0 4.8016-1.9379 8.5912-1.9379 3.7896-5.4906 5.749-3.5528 1.9378-7.6654 1.9378-4.4571 0-7.9668-2.1531-3.5096-2.1532-5.3183-5.8782-1.8087-3.7251-1.8087-7.8807zm4.3064.065q0 5.7059 3.0575 9.0003 3.0791 3.2728 7.7084 3.2728 4.7155 0 7.7515-3.3159 3.0575-3.3159 3.0575-9.4094 0-3.8542-1.3135-6.7179-1.2919-2.8853-3.8111-4.4571-2.4977-1.5934-5.6198-1.5934-4.4356 0-7.6438 3.0576-3.1867 3.036-3.1867 10.163z" font-family="Helvetica" font-stretch="normal" font-style="normal" font-variant="normal" font-weight="400" style="-inkscape-font-specification:Helvetica"/>
      <path id="path13214" fill="#fff" fill-opacity="1" stroke-width=".26458332" d="M1065.2573 1634.7087v-31.5656h4.1772v27.8406h15.546v3.725z" font-family="Helvetica" font-stretch="normal" font-style="normal" font-variant="normal" font-weight="400" style="-inkscape-font-specification:Helvetica"/>
    </g>
    <g id="text13219" fill="#000" fill-opacity="1" stroke="none" stroke-width=".26458332" aria-label="76" font-family="Helvetica" font-size="44.09722137" font-stretch="normal" font-style="normal" font-variant="normal" font-weight="700" letter-spacing="0" style="line-height:1.25;-inkscape-font-specification:'Helvetica Bold';font-variant-ligatures:normal;font-variant-caps:normal;font-variant-numeric:normal;font-feature-settings:normal;text-align:start" text-anchor="start" transform="translate(-1883.2643 -1901.0341) scale(2.45093)" word-spacing="0" writing-mode="lr-tb">
      <path id="path13221" fill="#000" fill-opacity="1" stroke-width=".26458332" d="M1295.0549 1286.3554v-5.6198h20.6921v4.3925q-2.5623 2.5192-5.2107 7.2347-2.6484 4.7154-4.048 10.0338-1.378 5.2968-1.3565 9.474h-5.8351q.1507-6.5457 2.6915-13.3497 2.5623-6.8041 6.8256-12.1655z"/>
      <path id="path13223" fill="#000" fill-opacity="1" stroke-width=".26458332" d="m1340.0995 1288.0349-5.8566.6459q-.2153-1.8087-1.1197-2.6699-.9043-.8613-2.347-.8613-1.9163 0-3.2513 1.7225-1.3134 1.7226-1.6579 7.1701 2.2608-2.6699 5.6198-2.6699 3.7896 0 6.4811 2.8853 2.713 2.8852 2.713 7.45 0 4.8446-2.8422 7.773-2.8422 2.9283-7.2993 2.9283-4.7801 0-7.8591-3.7035-3.0791-3.725-3.0791-12.187 0-8.6773 3.2083-12.51 3.2082-3.8327 8.3328-3.8327 3.5958 0 5.9428 2.024 2.3685 2.0025 3.0144 5.8352zm-13.7158 13.199q0 2.9498 1.3566 4.5647 1.3565 1.5934 3.1005 1.5934 1.6795 0 2.7992-1.3135 1.1196-1.3134 1.1196-4.3063 0-3.0791-1.2057-4.5002-1.2058-1.4426-3.0145-1.4426-1.7441 0-2.9499 1.378-1.2058 1.3565-1.2058 4.0265z"/>
    </g>
  </g>
  <style id="style6895" type="text/css">
    .st1{fill:#00b288}.st2{display:none}.st0{fill:#fff}
  </style>
</svg>