<?xml version="1.0" encoding="UTF-8" standalone="no"?>
<svg
   xmlns:dc="http://purl.org/dc/elements/1.1/"
   xmlns:cc="http://creativecommons.org/ns#"
   xmlns:rdf="http://www.w3.org/1999/02/22-rdf-syntax-ns#"
   xmlns:svg="http://www.w3.org/2000/svg"
   xmlns="http://www.w3.org/2000/svg"
   viewBox="0 0 47.613335 40.053333"
   height="40.053333"
   width="47.613335"
   xml:space="preserve"
   id="svg2"
   version="1.1"><metadata
     id="metadata8"><rdf:RDF><cc:Work
         rdf:about=""><dc:format>image/svg+xml</dc:format><dc:type
           rdf:resource="http://purl.org/dc/dcmitype/StillImage" /></cc:Work></rdf:RDF></metadata><defs
     id="defs6" /><g
     transform="matrix(1.3333333,0,0,-1.3333333,0,40.053333)"
     id="g10"><g
       transform="scale(0.1)"
       id="g12"><path
         id="path14"
         style="fill:#ffffff;fill-opacity:1;fill-rule:nonzero;stroke:none"
         d="m 1.41797,1.41797 h 354.309 v 297.613 H 1.41797 Z" /><path
         id="path16"
         style="fill:none;stroke:#231f20;stroke-width:2.83500004;stroke-linecap:butt;stroke-linejoin:miter;stroke-miterlimit:4;stroke-dasharray:none;stroke-opacity:1"
         d="M 1.41797,1.41797 H 355.727 V 299.031 H 1.41797 V 1.41797" /><path
         id="path18"
         style="fill:#1a67bb;fill-opacity:1;fill-rule:nonzero;stroke:none"
         d="m 15.3867,15.4219 h 325.957 v 269.266 H 15.3867 Z" /><path
         id="path20"
         style="fill:#ffffff;fill-opacity:1;fill-rule:nonzero;stroke:none"
         d="M 80.0391,50.5273 H 188.324 V 75.793 h -74.441 l 7.379,7.957 v 0 c 8.816,9.6836 17.351,19.621 25.304,29.883 7.672,9.933 14.473,20.156 20.45,30.133 5.976,9.933 10.515,19.578 13.898,29.269 3.418,9.391 5.106,18.465 5.106,26.996 0,7.129 -1.114,13.645 -3.09,19.907 -2.305,6.265 -5.653,11.664 -9.938,16.488 -4.535,4.535 -10.222,8.246 -16.777,11.09 -6.801,2.554 -14.758,3.961 -23.867,3.961 -9.395,0 -18.176,-1.118 -25.883,-3.098 -7.9572,-2.305 -15.3361,-5.145 -21.8908,-8.531 v 0 l 3.1367,-29.016 v 0 c 4.5704,3.711 10.2227,7.383 16.7731,10.512 6.551,3.129 13.934,4.859 22.176,4.859 8.82,0 15.914,-2.844 20.738,-8.82 4.86,-5.977 7.418,-13.352 7.418,-22.754 0,-6.551 -1.441,-13.641 -4.289,-21.309 -3.129,-7.668 -7.089,-15.91 -12.488,-24.16 -5.402,-8.531 -11.668,-17.347 -18.758,-26.742 -7.414,-9.359 -15.375,-19.047 -24.1912,-28.9844 v 0 L 80.0391,76.0859 V 50.5273" /><path
         id="path22"
         style="fill:#ffffff;fill-opacity:1;fill-rule:nonzero;stroke:none"
         d="m 246.148,50.5273 h 30.125 V 248.922 h -26.425 l -44.344,-40.356 14.793,-21.316 25.851,26.426 V 50.5273" /></g></g></svg>