<?xml version="1.0" encoding="UTF-8" standalone="no"?>
<!DOCTYPE svg PUBLIC "-//W3C//DTD SVG 1.0//EN" "http://www.w3.org/TR/2001/REC-SVG-20010904/DTD/svg10.dtd">
<svg
   xmlns:svg="http://www.w3.org/2000/svg"
   xmlns="http://www.w3.org/2000/svg"
   version="1.0"
   width="230.66541"
   height="44.64159"
   id="svg1919">
  <defs
     id="defs1921" />
  <g
     transform="translate(-267.5244,-438.6129)"
     id="layer1">
    <g
       transform="matrix(1.249992,0,0,-1.249992,12.21576,991.9615)"
       style="font-style:normal;font-variant:normal;font-weight:normal;font-stretch:normal;letter-spacing:normal;word-spacing:normal;text-anchor:start;fill:none;fill-opacity:1;stroke:black;stroke-linecap:butt;stroke-linejoin:miter;stroke-miterlimit:10.43299961;stroke-dasharray:none;stroke-dashoffset:0;stroke-opacity:1"
       id="g10"
       xml:space="preserve">
<polygon
   points="357.46,407.11 388.64,424.82 357.46,442.54 204.39,442.54 204.39,407.11 357.46,407.11 "
   style="fill:white;fill-rule:nonzero;stroke:white;stroke-width:0;stroke-linejoin:round"
   id="polygon12" />
<polygon
   points="357.46,407.11 388.64,424.82 357.46,442.54 204.39,442.54 204.39,407.11 357.46,407.11 "
   style="stroke-width:0.28349999;stroke-linejoin:round"
   id="polygon14" />
<polygon
   points="356.9,409.23 373.05,424.82 356.9,440.41 206.52,440.41 206.52,409.23 356.9,409.23 "
   style="fill:#b00f0a;fill-rule:nonzero;stroke:#b00f0a;stroke-width:0"
   id="polygon16" />
<path
   d="M 221.07,426.49 L 220.89,426.54 L 220.79,426.56 L 220.7,426.58 L 220.6,426.6 L 220.5,426.62 L 220.41,426.64 L 220.31,426.66 L 220.21,426.67 L 220.11,426.68 L 220.01,426.7 L 219.92,426.7 L 219.82,426.71 L 219.72,426.72 L 219.62,426.72 L 219.52,426.72 C 216.25,426.72 213.6,424.07 213.6,420.81 C 213.6,417.55 216.25,414.9 219.52,414.9 C 222.4,414.9 224.81,416.98 225.32,419.71 L 225.32,419.71 L 226.61,419.72 L 226.61,419.72 C 226.93,419.72 227.32,419.72 227.62,419.84 C 227.95,419.95 228.23,420.18 228.46,420.43 L 228.46,420.43 L 235.73,427.7 L 236.15,426.4 L 236.15,426.4 C 233.9,425.55 232.25,423.42 232.25,420.88 C 232.25,417.62 234.9,414.96 238.17,414.96 C 241.43,414.96 244.09,417.62 244.09,420.88 C 244.09,424.15 241.43,426.8 238.17,426.8 C 237.84,426.8 237.55,426.76 237.24,426.71 L 237.24,426.71 L 235.46,432.95 L 235.46,432.95 C 235.34,433.38 235.17,433.88 234.88,434.18 C 234.53,434.54 233.96,434.76 233.3,434.76 L 233.3,434.76 L 231.12,434.76 L 231.12,433.61 L 232.86,433.61 L 232.86,433.61 C 233.2,433.61 233.64,433.61 233.87,433.41 C 234.1,433.2 234.18,432.94 234.27,432.63 L 234.27,432.63 L 234.66,431.36 L 224.21,431.36 L 223.84,432.44 L 225.5,432.84 L 225.5,433.61 L 221.79,433.61 L 221.79,432.44 L 222.68,432.44 L 223.07,431.36 L 221.07,426.49 z "
   style="fill:white;fill-rule:nonzero;stroke:white;stroke-width:0"
   id="path18" />
<polygon
   points="251.79,416.32 254.64,416.32 254.64,433.14 254.7,433.14 259.78,416.32 261.97,416.32 267.29,433.14 267.34,433.14 267.34,416.32 270.18,416.32 270.18,436.16 265.67,436.16 261.04,420.87 260.98,420.87 256.45,436.16 251.79,436.16 251.79,416.32 "
   style="fill:white;fill-rule:nonzero;stroke:white;stroke-width:0"
   id="polygon20" />
<path
   d="M 280.88,416.32 L 283.54,416.32 L 283.54,416.32 C 283.52,416.57 283.46,416.95 283.43,417.37 C 283.4,417.8 283.38,418.25 283.38,418.73 L 283.38,418.73 L 283.38,425.7 L 283.38,425.7 C 283.38,426.67 283.29,427.46 283.09,428.09 C 282.89,428.71 282.58,429.23 282.21,429.65 C 281.89,430.02 281.38,430.36 280.7,430.67 C 280.02,430.96 279.14,431.1 278.03,431.1 C 277.09,431.1 276.27,430.99 275.55,430.76 C 274.85,430.54 274.19,430.28 273.65,429.96 L 273.65,429.96 L 273.88,427.43 L 273.88,427.43 C 274.25,427.8 274.79,428.14 275.5,428.46 C 276.18,428.74 276.92,428.88 277.75,428.88 C 278.8,428.88 279.54,428.6 279.99,428.03 C 280.22,427.75 280.39,427.43 280.47,427.09 C 280.56,426.72 280.59,426.32 280.59,425.87 L 280.59,425.87 L 280.59,425.27 L 279.54,425.27 L 279.54,425.27 C 277.18,425.27 275.36,424.88 274.13,424.11 C 272.91,423.31 272.29,422.06 272.29,420.36 C 272.29,419.67 272.4,419.07 272.63,418.54 C 272.86,418 273.17,417.57 273.57,417.2 C 273.94,416.83 274.39,416.57 274.91,416.4 C 275.41,416.21 275.96,416.12 276.55,416.12 C 277.63,416.12 278.49,416.35 279.14,416.8 C 279.77,417.23 280.27,417.74 280.64,418.31 L 280.64,418.31 L 280.7,418.31 L 280.7,418.31 C 280.7,418.23 280.7,418.08 280.73,417.88 C 280.73,417.68 280.73,417.48 280.76,417.29 C 280.79,417.09 280.79,416.89 280.82,416.71 C 280.84,416.52 280.84,416.4 280.88,416.32 z "
   style="fill:white;fill-rule:nonzero;stroke:white;stroke-width:0"
   id="path22" />
<path
   d="M 286.18,416.32 L 289.13,416.32 L 289.13,424.16 L 289.13,424.16 C 289.13,424.9 289.22,425.53 289.39,426.07 C 289.55,426.61 289.79,427.04 290.07,427.38 C 290.36,427.69 290.7,427.95 291.07,428.12 C 291.44,428.26 291.8,428.34 292.23,428.34 C 292.4,428.34 292.57,428.34 292.71,428.32 C 292.86,428.29 293.03,428.26 293.17,428.23 L 293.17,428.23 L 293.17,431.07 L 293.17,431.07 C 293.11,431.07 293.05,431.07 293.03,431.1 C 293,431.1 292.94,431.1 292.88,431.1 C 292.34,431.1 291.86,431.04 291.44,430.9 C 291.01,430.76 290.66,430.56 290.36,430.3 C 290.04,430.05 289.76,429.77 289.53,429.45 C 289.3,429.14 289.1,428.8 288.96,428.43 L 288.96,428.43 L 288.91,428.43 L 288.91,428.43 C 288.91,428.54 288.91,428.71 288.91,428.94 C 288.88,429.17 288.88,429.43 288.85,429.68 C 288.82,429.94 288.82,430.16 288.82,430.39 C 288.79,430.62 288.79,430.79 288.79,430.9 L 288.79,430.9 L 286.06,430.9 L 286.06,430.9 C 286.09,430.48 286.12,430.02 286.15,429.57 C 286.18,429.08 286.18,428.6 286.18,428.12 L 286.18,428.12 L 286.18,416.32 z "
   style="fill:white;fill-rule:nonzero;stroke:white;stroke-width:0"
   id="path24" />
<path
   d="M 302.89,416.55 L 302.89,418.77 L 302.89,418.77 C 302.69,418.68 302.49,418.59 302.26,418.54 C 302.04,418.45 301.78,418.42 301.46,418.42 C 300.93,418.42 300.56,418.59 300.3,418.91 C 300.05,419.22 299.93,419.76 299.93,420.55 L 299.93,420.55 L 299.93,428.63 L 302.89,428.63 L 302.89,430.9 L 299.93,430.9 L 299.93,434.77 L 296.98,433.89 L 296.98,430.9 L 294.64,430.9 L 294.64,428.63 L 296.98,428.63 L 296.98,419.96 L 296.98,419.96 C 296.98,418.56 297.29,417.57 297.95,417 C 298.6,416.4 299.51,416.12 300.7,416.12 C 301.13,416.12 301.55,416.15 301.92,416.24 C 302.29,416.35 302.63,416.43 302.89,416.55 z "
   style="fill:white;fill-rule:nonzero;stroke:white;stroke-width:0"
   id="path26" />
<polygon
   points="305.02,416.32 307.98,416.32 307.98,430.9 305.02,430.9 305.02,416.32 "
   style="fill:white;fill-rule:nonzero;stroke:white;stroke-width:0"
   id="polygon28" />
<polygon
   points="304.94,433.83 308.07,433.83 308.07,436.98 304.94,436.98 304.94,433.83 "
   style="fill:white;fill-rule:nonzero;stroke:white;stroke-width:0"
   id="polygon30" />
<path
   d="M 311.02,413.68 L 310.85,410.92 L 310.85,410.92 C 311.33,410.72 312.01,410.52 312.87,410.32 C 313.72,410.12 314.6,410.01 315.48,410.01 C 317.64,410.01 319.26,410.61 320.34,411.77 C 321.43,412.94 321.96,414.62 321.96,416.77 L 321.96,416.77 L 321.96,428.43 L 321.96,428.43 C 321.96,428.86 321.99,429.25 322.02,429.68 C 322.05,430.11 322.05,430.5 322.08,430.9 L 322.08,430.9 L 319.35,430.9 L 319.35,430.9 C 319.35,430.82 319.35,430.64 319.35,430.45 C 319.32,430.25 319.32,430.02 319.29,429.79 C 319.26,429.57 319.26,429.37 319.26,429.17 C 319.23,428.97 319.23,428.8 319.23,428.71 L 319.23,428.71 L 319.15,428.71 L 319.15,428.71 C 318.78,429.37 318.3,429.94 317.7,430.42 C 317.11,430.88 316.37,431.1 315.45,431.1 C 314.57,431.1 313.78,430.93 313.12,430.56 C 312.47,430.19 311.9,429.71 311.47,429.05 C 311.05,428.4 310.71,427.6 310.51,426.7 C 310.28,425.76 310.17,424.73 310.17,423.6 C 310.17,422.23 310.31,421.09 310.62,420.16 C 310.91,419.22 311.27,418.45 311.76,417.88 C 312.24,417.29 312.79,416.89 313.38,416.63 C 313.98,416.38 314.6,416.24 315.23,416.24 C 316.22,416.24 317.02,416.46 317.61,416.95 C 318.21,417.4 318.7,417.97 319.07,418.68 L 319.07,418.68 L 319.12,418.68 L 319.12,416.86 L 319.12,416.86 C 319.12,416.27 319.07,415.67 318.95,415.13 C 318.81,414.59 318.61,414.13 318.33,413.73 C 318.02,413.34 317.61,413.02 317.11,412.77 C 316.59,412.54 315.94,412.43 315.17,412.43 C 314.38,412.43 313.61,412.57 312.84,412.82 C 312.07,413.11 311.47,413.39 311.02,413.68 z "
   style="fill:white;fill-rule:nonzero;stroke:white;stroke-width:0"
   id="path32" />
<path
   d="M 324.91,416.32 L 327.87,416.32 L 327.87,424.96 L 327.87,424.96 C 327.87,426.1 328.1,427.01 328.58,427.66 C 329.04,428.32 329.72,428.63 330.66,428.63 C 331.43,428.63 331.96,428.38 332.34,427.86 C 332.68,427.35 332.85,426.52 332.85,425.39 L 332.85,425.39 L 332.85,416.32 L 335.8,416.32 L 335.8,426.07 L 335.8,426.07 C 335.8,427.6 335.46,428.83 334.78,429.74 C 334.1,430.64 333.02,431.1 331.54,431.1 C 330.69,431.1 329.95,430.9 329.29,430.48 C 328.64,430.05 328.13,429.45 327.76,428.69 L 327.76,428.69 L 327.7,428.69 L 327.7,428.69 C 327.7,428.77 327.7,428.94 327.7,429.14 C 327.67,429.34 327.67,429.57 327.64,429.79 C 327.62,430.02 327.62,430.25 327.62,430.45 C 327.59,430.64 327.59,430.82 327.59,430.9 L 327.59,430.9 L 324.8,430.9 L 324.8,430.9 C 324.83,430.48 324.86,430.02 324.89,429.57 C 324.91,429.08 324.91,428.6 324.91,428.12 L 324.91,428.12 L 324.91,416.32 z "
   style="fill:white;fill-rule:nonzero;stroke:white;stroke-width:0"
   id="path34" />
<path
   d="M 338.52,412.71 L 338.38,410.29 L 338.38,410.29 C 338.63,410.21 338.92,410.15 339.26,410.1 C 339.57,410.04 339.95,410.01 340.31,410.01 C 341.37,410.01 342.22,410.29 342.82,410.86 C 343.41,411.46 343.87,412.31 344.18,413.45 L 344.18,413.45 L 349.35,430.9 L 346.45,430.9 L 343.56,419.45 L 343.5,419.45 L 340.4,430.9 L 337.33,430.9 L 342.05,416.15 L 341.62,414.42 L 341.62,414.42 C 341.42,413.65 341.2,413.14 340.94,412.86 C 340.66,412.57 340.29,412.43 339.86,412.43 C 339.61,412.43 339.35,412.46 339.15,412.51 C 338.92,412.57 338.72,412.63 338.52,412.71 z "
   style="fill:white;fill-rule:nonzero;stroke:white;stroke-width:0"
   id="path36" />
<path
   d="M 220.61,425.32 L 220.54,425.33 L 220.48,425.35 L 220.41,425.36 L 220.35,425.37 L 220.28,425.38 L 220.21,425.4 L 220.14,425.41 L 220.07,425.41 L 220.01,425.42 L 219.94,425.43 L 219.87,425.44 L 219.8,425.44 L 219.73,425.44 L 219.66,425.45 L 219.59,425.45 L 219.52,425.45 C 216.96,425.45 214.88,423.37 214.88,420.81 C 214.88,418.25 216.96,416.18 219.52,416.18 C 221.69,416.18 223.52,417.68 224.02,419.7 L 224.02,419.7 L 220.29,419.71 L 220.29,419.71 C 219.84,419.71 219.14,419.68 218.86,420.12 C 218.63,420.5 218.92,421.09 219.02,421.35 L 219.02,421.35 L 220.61,425.32 z "
   style="fill:#b00f0a;fill-rule:nonzero;stroke:#b00f0a;stroke-width:0"
   id="path38" />
<polygon
   points="224.58,430.26 227.55,421.16 235.32,429 234.96,430.26 224.58,430.26 "
   style="fill:#b00f0a;fill-rule:nonzero;stroke:#b00f0a;stroke-width:0"
   id="polygon40" />
<polygon
   points="222.17,426.11 222.35,426.02 222.52,425.92 222.69,425.82 222.86,425.71 223.02,425.59 223.18,425.47 223.33,425.34 223.48,425.21 223.62,425.08 223.76,424.94 223.9,424.79 224.03,424.64 224.16,424.49 224.28,424.33 224.39,424.17 224.5,424 224.61,423.83 224.71,423.66 224.8,423.48 224.89,423.3 224.97,423.11 225.04,422.93 225.11,422.74 225.17,422.54 225.23,422.35 225.28,422.15 225.32,421.94 225.36,421.74 225.39,421.53 225.41,421.33 225.42,421.11 225.43,420.9 225.43,420.9 226.44,420.9 223.6,429.5 222.17,426.11 "
   style="fill:#b00f0a;fill-rule:nonzero;stroke:#b00f0a;stroke-width:0"
   id="polygon42" />
<path
   d="M 236.46,425.18 L 236.3,425.12 L 236.14,425.04 L 235.99,424.97 L 235.84,424.88 L 235.7,424.79 L 235.55,424.7 L 235.41,424.6 L 235.28,424.5 L 235.15,424.39 L 235.02,424.28 L 234.9,424.16 L 234.78,424.04 L 234.67,423.91 L 234.56,423.78 L 234.46,423.65 L 234.36,423.51 L 234.26,423.37 L 234.17,423.22 L 234.09,423.07 L 234.01,422.92 L 233.94,422.76 L 233.87,422.61 L 233.81,422.45 L 233.75,422.28 L 233.7,422.11 L 233.66,421.95 L 233.62,421.77 L 233.59,421.6 L 233.57,421.42 L 233.55,421.24 L 233.54,421.06 L 233.54,420.88 C 233.54,418.32 235.61,416.25 238.17,416.25 C 240.73,416.25 242.81,418.32 242.81,420.88 C 242.81,423.44 240.73,425.51 238.17,425.51 C 237.98,425.51 237.79,425.5 237.6,425.48 L 237.6,425.48 L 238.85,421.04 L 238.85,421.04 C 238.91,420.82 238.96,420.4 238.48,420.27 C 238,420.13 237.77,420.46 237.7,420.7 L 237.7,420.7 L 236.46,425.18 z "
   style="fill:#b00f0a;fill-rule:nonzero;stroke:#b00f0a;stroke-width:0"
   id="path44" />
<path
   d="M 221.7,424.89 L 220.12,420.88 L 224.12,420.88 L 224.12,420.88 C 224.12,422.64 223.15,424.1 221.7,424.89 z "
   style="fill:#b00f0a;fill-rule:nonzero;stroke:#b00f0a;stroke-width:0"
   id="path46" />
<path
   d="M 280.59,423.46 L 280.59,422.14 L 280.59,422.14 C 280.59,420.98 280.33,420.04 279.82,419.33 C 279.28,418.59 278.52,418.23 277.46,418.23 C 276.7,418.23 276.12,418.45 275.73,418.88 C 275.33,419.3 275.13,419.9 275.13,420.61 C 275.13,421.57 275.5,422.29 276.27,422.77 C 277.04,423.25 278.14,423.48 279.59,423.48 C 279.77,423.48 279.93,423.48 280.14,423.48 C 280.33,423.48 280.5,423.48 280.59,423.46 z "
   style="fill:#b00f0a;fill-rule:nonzero;stroke:#b00f0a;stroke-width:0"
   id="path48" />
<path
   d="M 313.92,419.76 L 313.88,419.84 L 313.83,419.92 L 313.79,420 L 313.75,420.09 L 313.71,420.18 L 313.67,420.27 L 313.64,420.37 L 313.6,420.47 L 313.57,420.57 L 313.53,420.67 L 313.5,420.78 L 313.47,420.89 L 313.44,421 L 313.42,421.12 L 313.39,421.24 L 313.37,421.36 L 313.35,421.48 L 313.32,421.61 L 313.3,421.74 L 313.29,421.87 L 313.27,422.01 L 313.25,422.14 L 313.24,422.29 L 313.23,422.43 L 313.22,422.58 L 313.21,422.73 L 313.2,422.88 L 313.19,423.03 L 313.19,423.19 L 313.18,423.35 L 313.18,423.52 L 313.18,423.68 C 313.18,425.36 313.41,426.61 313.86,427.49 C 314.29,428.34 315.03,428.77 316.05,428.8 C 317.02,428.8 317.76,428.38 318.3,427.52 C 318.81,426.67 319.07,425.39 319.07,423.71 L 319.07,423.71 L 319.07,423.71 L 319.07,423.71 C 319.07,421.95 318.81,420.64 318.33,419.79 C 317.84,418.91 317.05,418.48 315.94,418.48 C 315.08,418.48 314.4,418.91 313.92,419.76 z "
   style="fill:#b00f0a;fill-rule:nonzero;stroke:#b00f0a;stroke-width:0"
   id="path50" />
</g>  </g>
</svg>
