<?xml version="1.0" encoding="UTF-8" standalone="no"?>
<!-- Created with Inkscape (http://www.inkscape.org/) -->

<svg
   width="605"
   height="605"
   viewBox="0 0 160.07291 160.07292"
   version="1.1"
   id="svg1741"
   inkscape:version="1.1.2 (b8e25be833, 2022-02-05)"
   sodipodi:docname="HR road sign C02-1.svg"
   xmlns:inkscape="http://www.inkscape.org/namespaces/inkscape"
   xmlns:sodipodi="http://sodipodi.sourceforge.net/DTD/sodipodi-0.dtd"
   xmlns="http://www.w3.org/2000/svg"
   xmlns:svg="http://www.w3.org/2000/svg">
  <sodipodi:namedview
     id="namedview1743"
     pagecolor="#ffffff"
     bordercolor="#666666"
     borderopacity="1.0"
     inkscape:pageshadow="2"
     inkscape:pageopacity="0.0"
     inkscape:pagecheckerboard="0"
     inkscape:document-units="mm"
     showgrid="false"
     units="px"
     inkscape:zoom="0.7198092"
     inkscape:cx="349.39815"
     inkscape:cy="349.39815"
     inkscape:window-width="1920"
     inkscape:window-height="1001"
     inkscape:window-x="-9"
     inkscape:window-y="-9"
     inkscape:window-maximized="1"
     inkscape:current-layer="svg1741"
     inkscape:snap-intersection-paths="false"
     inkscape:snap-smooth-nodes="false"
     inkscape:snap-bbox="true"
     inkscape:snap-bbox-edge-midpoints="false"
     inkscape:bbox-nodes="false"
     showguides="true"
     inkscape:guide-bbox="true" />
  <defs
     id="defs1738" />
  <rect
     id="rect67"
     ry="7.0114584"
     rx="7.0114584"
     y="0.26458332"
     x="0.26458332"
     height="159.54375"
     width="159.54375"
     style="stroke-width:0.264583"
     inkscape:label="rect20" />
  <rect
     id="rect69"
     ry="6.614583"
     rx="6.614583"
     fill="#ffffff"
     y="0.66145682"
     x="0.66144919"
     height="158.75"
     width="158.75"
     style="stroke-width:0.264583"
     inkscape:label="rect22" />
  <rect
     id="rect71"
     ry="5.0270834"
     rx="5.0270834"
     fill="#0f508c"
     y="2.2489583"
     x="2.2489583"
     height="155.575"
     width="155.575"
     style="stroke-width:0.264583"
     inkscape:label="rect24" />
  <path
     d="M 80.218481,19.656794 8.6759659,143.5726 H 151.76102 Z"
     style="fill:#ffffff;fill-opacity:1;fill-rule:evenodd;stroke:none;stroke-width:0.466564"
     id="path22"
     inkscape:label="tria26" />
  <path
     d="m 33.269076,111.33019 h 10.01201 l -11.7285,27.31035 h -14.01698 z"
     style="fill:#000000;fill-opacity:1;fill-rule:evenodd;stroke:none;stroke-width:0.466564"
     id="path38"
     inkscape:label="trap28" />
  <path
     d="m 54.676176,111.00178 h 5.6263 l -4.52941,9.66628 c -2.38415,6.38214 1.71649,9.24404 5.81666,10.08899 l -1.28772,7.88308 h -14.58947 z"
     style="fill:#000000;fill-opacity:1;fill-rule:evenodd;stroke:none;stroke-width:0.466564"
     id="path46"
     inkscape:label="trap30" />
  <path
     d="m 75.797222,110.9079 h 9.678416 l 1.478077,27.7326 H 74.366734 Z"
     style="fill:#000000;fill-opacity:1;fill-rule:evenodd;stroke:none;stroke-width:0.466564"
     id="path54"
     inkscape:label="trap32" />
  <path
     d="m 106.31073,111.00178 h -5.38836 l 4.29193,10.1823 c 2.38368,6.38214 -2.67015,8.49381 -5.530657,9.33829 l 1.001247,8.11776 h 14.58901 z"
     style="fill:#000000;fill-opacity:1;fill-rule:evenodd;stroke:none;stroke-width:0.466564"
     id="path50"
     inkscape:label="trap34" />
  <path
     d="m 127.52709,111.33019 h -10.012 l 11.72849,27.31035 h 14.01701 z"
     style="fill:#000000;fill-opacity:1;fill-rule:evenodd;stroke:none;stroke-width:0.466564"
     id="path42"
     inkscape:label="trap36" />
  <path
     d="m 81.330491,93.152838 c 4.738896,11.491482 9.007493,21.055592 13.759923,32.540072 0.965787,2.20452 3.548221,3.21323 5.749936,2.24931 2.20125,-0.96532 3.21043,-3.54776 2.23624,-5.75741 L 88.468462,86.563546 72.817088,86.633066 58.138966,122.18481 c -0.97465,2.20965 0.035,4.79209 2.23624,5.75741 2.20172,0.96392 4.78416,-0.0448 5.74995,-2.24931 4.75476,-11.49148 9.042017,-21.05932 13.78511,-32.559666 0.473096,-0.659257 0.946195,-0.651322 1.420225,0.0196"
     style="fill:#000000;fill-opacity:1;fill-rule:evenodd;stroke:none;stroke-width:0.466564"
     id="path26"
     inkscape:label="path38" />
  <path
     d="m 100.22966,81.089767 c -0.389107,3.196436 -4.981501,3.269686 -5.072481,-0.201089 l 0.624263,-8.271721 c -0.148833,-0.783363 -0.246345,-1.51587 -0.913535,-1.883987 -1.588182,-1.040908 -3.175436,-2.082279 -4.763158,-3.123187 -0.713844,-0.293936 -1.326441,-0.215553 -1.580719,0.75397 -0.01259,5.151337 -0.02519,11.608125 -0.03779,16.759465 l -15.739556,0.0013 0.03966,-12.033168 c 0.09191,-0.72784 -0.304202,-2.717739 -1.982898,-0.804823 -3.2137,3.662529 -6.42786,7.325527 -9.64156,10.988061 -3.28975,2.955687 -6.71853,-1.333444 -3.52443,-4.527544 L 74.859756,58.3857 c 2.159728,-1.882119 5.488665,-4.668909 10.902677,-2.233443 4.817748,3.265487 9.31123,6.639213 13.69694,10.337205 1.442607,1.411824 1.722547,2.888032 1.677297,4.381505 z"
     style="fill:#000000;fill-opacity:1;fill-rule:evenodd;stroke:none;stroke-width:0.466564"
     id="path30"
     inkscape:label="path40" />
  <ellipse
     style="fill:#000000;fill-opacity:1;stroke-width:3.87529;stroke-linecap:round"
     id="path2098"
     cx="77.68821"
     cy="46.993847"
     rx="6.5696936"
     ry="6.5695"
     inkscape:label="circ42" />
</svg>
