<?xml version="1.0" encoding="utf-8"?>
<!-- Generator: Adobe Illustrator 15.0.0, SVG Export Plug-In . SVG Version: 6.00 Build 0)  -->
<!DOCTYPE svg PUBLIC "-//W3C//DTD SVG 1.1//EN" "http://www.w3.org/Graphics/SVG/1.1/DTD/svg11.dtd">
<svg version="1.1" id="Vrstva_1" xmlns="http://www.w3.org/2000/svg" xmlns:xlink="http://www.w3.org/1999/xlink" x="0px" y="0px"
	 width="300px" height="300px" viewBox="0 0 300 300" enable-background="new 0 0 300 300" xml:space="preserve">
<path fill-rule="evenodd" clip-rule="evenodd" d="M30.97,297.467c-3.705,0-7.41-0.793-10.853-2.118
	c-3.439-1.587-6.616-3.704-9.262-6.351c-5.561-5.557-8.207-12.97-8.207-20.114V30.675c0-3.705,0.528-7.412,2.118-10.853
	c1.321-3.441,3.439-6.616,6.088-9.264c5.557-5.557,12.967-8.205,20.114-8.205h238.207c3.705,0,7.409,0.795,10.853,2.118
	c3.438,1.323,6.616,3.441,9.262,6.086c5.561,5.823,8.473,13.234,8.473,20.116v238.208c0,3.705-0.794,7.41-2.118,10.849
	c-1.587,3.443-3.705,6.62-6.354,9.266c-5.557,5.562-12.967,8.469-20.114,8.469"/>
<path fill-rule="evenodd" clip-rule="evenodd" fill="#FFFFFF" d="M30.97,294.821c-3.443,0-6.616-0.794-9.793-2.114
	c-3.177-1.063-6.088-3.181-8.468-5.561c-5.03-5.03-7.675-11.912-7.675-18.263V30.675c0-3.175,0.793-6.616,2.114-9.793
	c1.325-3.175,3.177-6.086,5.561-8.468c5.026-5.03,11.907-7.412,18.262-7.412h238.207c3.442,0,6.882,0.53,10.059,1.853
	c2.912,1.323,5.823,3.177,8.203,5.559c5.029,5.293,7.676,11.909,7.676,18.262v238.208c0,3.439-0.794,6.879-2.115,10.06
	c-1.059,2.907-3.177,5.822-5.561,8.203c-5.029,5.029-11.646,7.675-18.262,7.675"/>
<path fill-rule="evenodd" clip-rule="evenodd" fill="#291770" d="M30.97,289.526c-2.646,0-5.295-0.528-7.941-1.587
	c-2.38-1.059-4.764-2.384-6.616-4.498c-3.97-3.971-6.088-9.266-6.088-14.558V30.675c0-2.647,0.531-5.293,1.586-7.675
	c1.059-2.647,2.649-4.764,4.502-6.882c3.97-3.97,9.527-6.087,14.557-6.087h238.207c2.646,0,5.558,0.528,7.941,1.587
	c2.646,1.059,4.764,2.647,6.616,4.5c4.235,4.234,6.088,9.529,6.088,14.557v238.208c0,2.646-0.531,5.558-1.587,7.941
	c-1.059,2.38-2.384,4.76-4.501,6.616c-3.971,4.232-9.263,6.085-14.558,6.085"/>
<polyline fill-rule="evenodd" clip-rule="evenodd" fill="#FFFFFF" points="257.004,247.973 151.396,65.083 45.792,247.711 "/>
<polyline fill-rule="evenodd" clip-rule="evenodd" points="154.573,213.302 156.953,237.387 140.81,237.387 144.249,213.302 "/>
<polyline fill-rule="evenodd" clip-rule="evenodd" points="207.506,237.387 192.949,213.564 184.215,213.564 194.273,237.387 "/>
<path fill-rule="evenodd" clip-rule="evenodd" d="M103.489,237.387H90.522l14.291-23.822h8.734l-3.177,6.885
	c-1.321-0.266-2.911-0.531-4.764,2.118c-0.793,1.587-0.793,4.232,1.59,6.085"/>
<path fill-rule="evenodd" clip-rule="evenodd" d="M141.603,127.017c-1.853-1.323-2.646-4.764-3.177-7.941
	c-0.262-1.586-0.262-3.175,0-4.498l-4.764,0.529c0.797-1.325,0.266-2.383,2.911-3.177c2.912-3.971,5.295-3.705,7.413-4.234
	c1.321-0.266,4.233-0.266,6.616,0.529c2.384,1.059,2.911,2.116,2.911,3.441c0,0.793,0,1.323,0,3.705
	c-0.266,2.118-0.793,5.823-1.059,9.529c-1.324,0.793-1.587,3.705,1.853,5.557c0.793,0.529,1.853,1.059,5.295,4.764
	c3.174,3.441,8.469,10.323,13.764,17.469c2.911,5.822,6.351,11.646,8.996,17.733c-0.793,0.263-1.321,0.263-2.114,0.794
	c-0.797,2.118,3.967,4.236-0.266,6.619c-2.118,0.79-5.295,1.056-6.616-3.708c-0.266-1.059-0.266-2.114,0-3.177l-1.855,0.797
	l-4.499-11.647l-8.468-10.586l4.764,30.437l-2.118,0.527l4.236,23.029l19.586,14.822l-1.855,2.908l3.177,3.181l-7.144,8.469
	c-1.325,1.059-3.178,1.587-4.236,1.587c-3.442-0.263-1.853-4.765-0.531-6.882l-19.849-18.528l-5.557-20.646L133.4,207.741
	l-8.207,21.177l-2.646-1.059l-2.912,5.291c-3.97-2.118-8.207-3.971-11.911-6.085c-1.059-1.59-2.384-3.708,1.059-5.295
	c1.586-0.266,2.38,0,3.705,0.531c4.498-7.94,9.266-16.147,12.97-24.088l11.114-16.672h-1.321l3.439-26.999l-5.029,5.295
	l-15.616,11.646l-1.321-2.649c-0.266,0.531-1.853,2.915-2.912,2.649c-0.531,0-1.325,0-1.853,0c-1.59-0.797-1.325-1.06-2.118-2.384
	c0-2.646-1.59-3.439,2.118-6.351c0.528,0,1.321-0.266,2.118-0.266l-0.266-0.793l14.823-9.794c2.38-4.234,4.498-8.204,5.557-10.322
	c2.118-3.971,1.587-3.175,2.38-4.234c1.853-2.382,4.236-4.234,6.354-6.616c0.527-0.795,0.793-2.118,0.793-3.443"/>
<path fill-rule="evenodd" clip-rule="evenodd" d="M169.13,237.387h12.971l-1.325-4.236c-2.383,2.118-4.498,3.442-7.94,2.118
	c-2.38-1.853-1.587-5.026-0.266-7.409l-6.882-6.62"/>
<polyline fill-rule="evenodd" clip-rule="evenodd" points="133.4,213.564 128.898,237.387 115.666,237.387 117.252,233.416 
	120.43,234.741 123.076,229.711 125.987,230.505 132.341,213.564 "/>
</svg>
