<?xml version="1.0" encoding="UTF-8" standalone="no"?>
<!-- Generator: Adobe Illustrator 18.1.1, SVG Export Plug-In . SVG Version: 6.00 Build 0)  -->

<svg
   xmlns:dc="http://purl.org/dc/elements/1.1/"
   xmlns:cc="http://creativecommons.org/ns#"
   xmlns:rdf="http://www.w3.org/1999/02/22-rdf-syntax-ns#"
   xmlns:svg="http://www.w3.org/2000/svg"
   xmlns="http://www.w3.org/2000/svg"
   xmlns:sodipodi="http://sodipodi.sourceforge.net/DTD/sodipodi-0.dtd"
   xmlns:inkscape="http://www.inkscape.org/namespaces/inkscape"
   version="1.1"
   x="0px"
   y="0px"
   viewBox="0 0 276.001 309.29999"
   enable-background="new 0 0 466.7 600"
   xml:space="preserve"
   id="svg2"
   inkscape:version="0.92.2 (5c3e80d, 2017-08-06)"
   sodipodi:docname="E1_(Philippines).svg"
   width="276.00101"
   height="309.29999"><metadata
     id="metadata45"><rdf:RDF><cc:Work
         rdf:about=""><dc:format>image/svg+xml</dc:format><dc:type
           rdf:resource="http://purl.org/dc/dcmitype/StillImage" /><dc:title /></cc:Work></rdf:RDF></metadata><defs
     id="defs43" /><sodipodi:namedview
     pagecolor="#ffffff"
     bordercolor="#666666"
     borderopacity="1"
     objecttolerance="10"
     gridtolerance="10"
     guidetolerance="10"
     inkscape:pageopacity="0"
     inkscape:pageshadow="2"
     inkscape:window-width="1366"
     inkscape:window-height="705"
     id="namedview41"
     showgrid="false"
     inkscape:zoom="1"
     inkscape:cx="271.48861"
     inkscape:cy="161.61858"
     inkscape:window-x="-4"
     inkscape:window-y="-4"
     inkscape:window-maximized="1"
     inkscape:current-layer="g4556"><inkscape:grid
       type="xygrid"
       id="grid3401" /></sodipodi:namedview><g
     id="g12"
     transform="translate(-95.2,-60.3)"><g
       id="g3403"><g
         id="g4152"><g
           id="g54"><g
             style="font-style:normal;font-variant:normal;font-weight:normal;font-stretch:normal;font-size:293.75px;line-height:125%;font-family:'Roadgeek 2005 Series 1W';-inkscape-font-specification:'Roadgeek 2005 Series 1W, Normal';text-align:start;letter-spacing:15px;word-spacing:0px;writing-mode:lr-tb;text-anchor:start;fill:#000000;fill-opacity:1;stroke:none;stroke-width:1px;stroke-linecap:butt;stroke-linejoin:miter;stroke-opacity:1"
             id="text3383-9"><g
               id="g34"><g
                 id="g32"><g
                   id="g4556"><g
                     id="g4565"><g
                       style=""
                       id="g4151"><path
                         d="M 349.1,321.5 233.2,369.6 117.3,321.5 C 103.8,315.9 95.2,302.8 95.2,288.3 l 0,-192 c 0,-19.9 16.1,-36 36,-36 l 204,0 c 19.9,0 36,16.1 36,36 l 0,192 c 0.1,14.5 -8.7,27.6 -22.1,33.2 z"
                         id="path16"
                         inkscape:connector-curvature="0"
                         style="fill:#fedd00;fill-opacity:1" /><path
                         d="m 121.6,311.6 c -9.5,-4 -15.6,-13.1 -15.6,-23.3 l 0,-192 C 106,82.3 117.3,71 131.3,71 l 204,0 c 14,0 25.3,11.3 25.3,25.3 l 0,192 c 0,10.3 -6.1,19.5 -15.6,23.3 L 233.3,358 121.6,311.6 Z"
                         id="path18"
                         inkscape:connector-curvature="0" /><g
                         id="g35"><path
                           style="fill:#fedd00;fill-opacity:1"
                           inkscape:connector-curvature="0"
                           id="path20"
                           d="m 125.7,301.7 c -5.5,-2.3 -9.1,-7.6 -9.1,-13.6 l 0,-192 c 0,-8.1 6.5,-14.7 14.7,-14.7 l 204,0 c 8.1,0 14.7,6.5 14.7,14.7 l 0,192 c 0,6 -3.6,11.2 -9.1,13.6 L 233.3,346.4 125.7,301.7 Z" /></g></g><path
                       style="stroke-width:0.99538469px"
                       d="m 214.525,99.59999 v 24.73881 h -43.76875 v 56.17164 h 38.775 v 25.02985 h -38.775 v 64.32089 h 45.825 v 24.73881 H 145.2 v -195 z"
                       id="path4148"
                       inkscape:connector-curvature="0" /><path
                       d="M 291.06591,144.12984 272.3593,168.86865 260.2,146.4582 295.2749,99.59999 h 20.8111 v 195 h -25.02009 z"
                       style="font-style:normal;font-variant:normal;font-weight:normal;font-stretch:normal;font-size:50.79999924px;line-height:1.25;font-family:'Roadgeek 2005 Series 2b';-inkscape-font-specification:'Roadgeek 2005 Series 2b';letter-spacing:0px;word-spacing:0px;fill:#000000;fill-opacity:1;stroke:none;stroke-width:1.35872376"
                       id="path823"
                       inkscape:connector-curvature="0"
                       sodipodi:nodetypes="cccccccc" /></g></g></g></g></g></g></g></g></g><g
     id="AH26_3_"
     transform="translate(494,-264.69995)"><g
       id="g31"><path
         style="fill:#ffffff"
         inkscape:connector-curvature="0"
         id="path33"
         d="m 64.8,502 c 2,-8.7 4.3,-18.1 6.8,-28.5 2.5,-10.4 5.2,-22 8.1,-34.8 2.9,-12.8 6.3,-27.5 10,-44 l 20.8,0 31.5,134 -18.4,0 -7.2,-30.1 -32.4,0 -0.4,0.4 -6.7,29.9 -18.1,0 0,-1.1 c 2,-8.6 4,-17.1 6,-25.8 z m 22.7,-24.3 25.5,0 -13,-61.8 -12.5,61.8 z" /><path
         style="fill:#ffffff"
         inkscape:connector-curvature="0"
         id="path35"
         d="m 180.3,394.5 0,51.6 34.3,0 0,-51.6 17.2,0 0,134 -17.2,0 0,-59.6 -34.3,0 0,59.6 -16.9,0 0,-134 16.9,0 z" /><path
         style="fill:#ffffff"
         inkscape:connector-curvature="0"
         id="path37"
         d="m 253.9,508.4 c 0,-0.1 0.1,-0.4 0.3,-0.9 0.1,-0.4 0.4,-0.7 0.4,-0.7 l 11.9,-15.9 0.3,-1.1 c 0.4,-0.5 1.1,-1.3 2,-2.5 0.9,-1.2 1.9,-2.5 2.9,-3.9 1.1,-1.3 2,-2.7 3.1,-3.9 0.9,-1.2 1.6,-2 2,-2.7 2.1,-2.8 4.4,-6 6.8,-9.7 2.4,-3.6 4.7,-7.5 6.8,-11.6 2.1,-4 3.9,-8.3 5.2,-12.7 1.3,-4.4 2.1,-8.8 2.1,-13.2 0,-5.3 -1.1,-9.6 -3.2,-13.1 -2.1,-3.3 -5.3,-5.1 -9.3,-5.1 -2.9,0 -5.3,0.5 -7.5,1.7 -2.1,1.2 -4,2.5 -5.6,4.1 -1.6,1.6 -3.1,3.2 -4.3,4.9 -1.2,1.7 -2.5,3.1 -3.7,4.3 l -0.8,0 -7.6,-14 c -0.7,-0.7 -1.1,-1.3 -1.1,-2 4.3,-5.3 8.9,-9.7 13.9,-13.3 4.9,-3.5 10.9,-5.3 18,-5.3 9.1,0 16,3.2 20.8,9.5 4.9,6.4 7.3,15.3 7.3,26.9 0,4.7 -0.4,9.1 -1.2,13.1 -0.8,4 -1.9,7.9 -3.2,11.3 -1.3,3.6 -2.9,7.1 -4.8,10.4 -1.9,3.3 -3.7,6.8 -5.7,10.1 l -15.3,21.6 c -2,1.5 -4,3.6 -5.9,6.1 -1.9,2.7 -3.9,5.3 -5.7,7.9 l 42.1,0 0,19.3 -58.5,0 c -0.1,0 -0.3,-0.8 -0.7,-2.5 -0.3,-1.6 -0.7,-3.6 -0.9,-5.9 -0.3,-2.1 -0.5,-4.4 -0.8,-6.7 0,-1.6 -0.1,-3.3 -0.1,-4.5 z" /><path
         style="fill:#ffffff"
         inkscape:connector-curvature="0"
         id="path39"
         d="m 350.3,521.7 c -0.8,-2 -1.9,-3.9 -3.1,-5.3 -1.2,-1.6 -2.3,-3.5 -3.1,-5.6 -2.5,-6.7 -4.1,-13.6 -5.1,-20.8 -0.8,-7.2 -1.3,-14.4 -1.3,-21.7 0,-4 0.1,-9.1 0.3,-15.2 0.1,-6.1 0.8,-12.4 1.9,-19.1 1.1,-6.5 2.7,-12.7 4.8,-18.5 2.1,-5.8 5.2,-10.5 9.1,-14 3.3,-3.1 6.8,-5.2 10,-6.5 3.3,-1.2 6.9,-1.9 10.9,-1.9 0.8,0 1.9,0.1 3.1,0.3 1.2,0.1 2.4,0.4 3.5,0.7 1.2,0.1 2.3,0.4 3.3,0.5 1.1,0.3 1.9,0.3 2.3,0.3 l 9.7,5.6 c 0.3,0.4 0.4,0.8 0.4,1.1 l -5.6,15.9 c -0.3,0.3 -0.3,0.4 -0.4,0.4 0,0 -0.1,0.1 -0.3,0.1 -1.9,-1.3 -3.9,-2.7 -5.9,-3.9 -2,-1.2 -3.7,-1.9 -5.1,-1.9 l -9.2,0 c -0.4,0 -1.1,0.3 -2.1,0.9 -1.1,0.5 -1.9,1.1 -2.3,1.5 -2.7,2 -4.7,4.5 -6.1,7.7 -1.5,3.2 -2.7,6.5 -3.5,10.1 -0.8,3.6 -1.3,7.3 -1.6,11.2 -0.3,3.9 -0.4,7.6 -0.4,11.1 0.8,-0.8 1.7,-2 2.7,-3.6 1,-1.6 1.7,-2.7 2.3,-3.3 1.7,-2.3 4,-3.7 6.9,-4.5 2.9,-0.7 5.6,-1.1 8,-1.1 4.1,0 7.9,0.9 11.5,2.7 3.6,1.7 6.9,4.9 10.3,9.6 0.3,0.4 0.7,1.1 1.1,1.9 0.4,0.9 0.8,1.7 1.2,2.5 0.4,0.8 0.8,1.5 1.1,2.1 0.3,0.7 0.5,0.9 0.7,0.9 1.3,3.9 2.3,7.7 2.7,11.5 0.4,3.9 0.5,7.9 0.5,12.1 0,6.8 -0.7,13.1 -2,18.7 -1.3,5.7 -3.3,10.5 -5.9,14.5 -2.7,4.1 -6,7.2 -10,9.5 -4,2.3 -8.8,3.5 -14.3,3.5 -4.3,0 -7.9,-0.7 -11.2,-2.1 -3,-2 -6.4,-4.4 -9.8,-7.9 z m 5.8,-35.3 c 0,3.5 0.3,6.8 0.8,9.9 0.5,3.2 1.5,5.9 2.8,8.3 1.3,2.4 2.9,4.4 4.9,5.9 2,1.5 4.4,2.1 7.3,2.1 2.8,0 5.2,-0.8 7.2,-2.4 2,-1.6 3.6,-3.7 4.9,-6.3 1.2,-2.7 2.1,-5.5 2.7,-8.8 0.5,-3.2 0.8,-6.5 0.8,-9.7 0,-3.5 -0.3,-6.7 -0.8,-9.9 -0.5,-3.1 -1.5,-5.7 -2.7,-8.1 -1.2,-2.3 -2.8,-4.1 -4.8,-5.5 -2,-1.4 -4.3,-2 -7.1,-2 -2.9,0 -5.3,0.8 -7.5,2.3 -2,1.5 -3.7,3.3 -4.9,5.7 -1.2,2.4 -2.1,5.2 -2.8,8.4 -0.5,3.2 -0.8,6.6 -0.8,10.1 z" /></g></g></svg>