<?xml version="1.0" encoding="UTF-8"?>
<!DOCTYPE svg PUBLIC "-//W3C//DTD SVG 1.1//EN" "http://www.w3.org/Graphics/SVG/1.1/DTD/svg11.dtd">
<svg version="1.2" width="100.03mm" height="150.13mm" viewBox="27366 36499 10003 15013" preserveAspectRatio="xMidYMid" fill-rule="evenodd" stroke-width="28.222" stroke-linejoin="round" xmlns="http://www.w3.org/2000/svg" xmlns:ooo="http://xml.openoffice.org/svg/export" xmlns:xlink="http://www.w3.org/1999/xlink" xmlns:presentation="http://sun.com/xmlns/staroffice/presentation" xmlns:smil="http://www.w3.org/2001/SMIL20/" xmlns:anim="urn:oasis:names:tc:opendocument:xmlns:animation:1.0" xml:space="preserve">
 <defs class="EmbeddedBulletChars">
  <g id="bullet-char-template-57356" transform="scale(0.00048828125,-0.00048828125)">
   <path d="M 580,1141 L 1163,571 580,0 -4,571 580,1141 Z"/>
  </g>
  <g id="bullet-char-template-57354" transform="scale(0.00048828125,-0.00048828125)">
   <path d="M 8,1128 L 1137,1128 1137,0 8,0 8,1128 Z"/>
  </g>
  <g id="bullet-char-template-10146" transform="scale(0.00048828125,-0.00048828125)">
   <path d="M 174,0 L 602,739 174,1481 1456,739 174,0 Z M 1358,739 L 309,1346 659,739 1358,739 Z"/>
  </g>
  <g id="bullet-char-template-10132" transform="scale(0.00048828125,-0.00048828125)">
   <path d="M 2015,739 L 1276,0 717,0 1260,543 174,543 174,936 1260,936 717,1481 1274,1481 2015,739 Z"/>
  </g>
  <g id="bullet-char-template-10007" transform="scale(0.00048828125,-0.00048828125)">
   <path d="M 0,-2 C -7,14 -16,27 -25,37 L 356,567 C 262,823 215,952 215,954 215,979 228,992 255,992 264,992 276,990 289,987 310,991 331,999 354,1012 L 381,999 492,748 772,1049 836,1024 860,1049 C 881,1039 901,1025 922,1006 886,937 835,863 770,784 769,783 710,716 594,584 L 774,223 C 774,196 753,168 711,139 L 727,119 C 717,90 699,76 672,76 641,76 570,178 457,381 L 164,-76 C 142,-110 111,-127 72,-127 30,-127 9,-110 8,-76 1,-67 -2,-52 -2,-32 -2,-23 -1,-13 0,-2 Z"/>
  </g>
  <g id="bullet-char-template-10004" transform="scale(0.00048828125,-0.00048828125)">
   <path d="M 285,-33 C 182,-33 111,30 74,156 52,228 41,333 41,471 41,549 55,616 82,672 116,743 169,778 240,778 293,778 328,747 346,684 L 369,508 C 377,444 397,411 428,410 L 1163,1116 C 1174,1127 1196,1133 1229,1133 1271,1133 1292,1118 1292,1087 L 1292,965 C 1292,929 1282,901 1262,881 L 442,47 C 390,-6 338,-33 285,-33 Z"/>
  </g>
  <g id="bullet-char-template-9679" transform="scale(0.00048828125,-0.00048828125)">
   <path d="M 813,0 C 632,0 489,54 383,161 276,268 223,411 223,592 223,773 276,916 383,1023 489,1130 632,1184 813,1184 992,1184 1136,1130 1245,1023 1353,916 1407,772 1407,592 1407,412 1353,268 1245,161 1136,54 992,0 813,0 Z"/>
  </g>
  <g id="bullet-char-template-8226" transform="scale(0.00048828125,-0.00048828125)">
   <path d="M 346,457 C 273,457 209,483 155,535 101,586 74,649 74,723 74,796 101,859 155,911 209,963 273,989 346,989 419,989 480,963 531,910 582,859 608,796 608,723 608,648 583,586 532,535 482,483 420,457 346,457 Z"/>
  </g>
  <g id="bullet-char-template-8211" transform="scale(0.00048828125,-0.00048828125)">
   <path d="M -4,459 L 1135,459 1135,606 -4,606 -4,459 Z"/>
  </g>
  <g id="bullet-char-template-61548" transform="scale(0.00048828125,-0.00048828125)">
   <path d="M 173,740 C 173,903 231,1043 346,1159 462,1274 601,1332 765,1332 928,1332 1067,1274 1183,1159 1299,1043 1357,903 1357,740 1357,577 1299,437 1183,322 1067,206 928,148 765,148 601,148 462,206 346,322 231,437 173,577 173,740 Z"/>
  </g>
 </defs>
 <g class="Page">
  <g class="com.sun.star.drawing.PolyPolygonShape">
   <g id="id3">
    <rect class="BoundingBox" stroke="none" fill="none" x="27366" y="36499" width="10003" height="15013"/>
    <path fill="rgb(255,255,255)" stroke="none" d="M 28459,51510 L 36281,51510 36389,51504 36491,51492 36599,51468 36695,51432 36791,51384 36881,51330 36971,51264 37049,51198 37121,51114 37181,51030 37235,50940 37283,50844 37319,50741 37343,50639 37361,50531 37367,50429 37367,37581 37361,37473 37343,37371 37319,37269 37283,37166 37235,37070 37181,36980 37121,36890 37049,36812 36971,36740 36881,36680 36791,36626 36695,36578 36599,36542 36491,36518 36389,36500 36281,36500 28459,36500 28351,36500 28243,36518 28141,36542 28039,36578 27943,36626 27847,36680 27763,36740 27685,36812 27613,36890 27553,36980 27499,37070 27451,37166 27415,37269 27391,37371 27373,37473 27367,37581 27367,50429 27373,50531 27391,50639 27415,50741 27451,50844 27499,50940 27553,51030 27613,51114 27685,51198 27763,51264 27847,51330 27943,51384 28039,51432 28141,51468 28243,51492 28351,51504 28459,51510 Z"/>
    <path fill="none" stroke="rgb(0,0,0)" d="M 28459,51510 L 36281,51510 36389,51504 36491,51492 36599,51468 36695,51432 36791,51384 36881,51330 36971,51264 37049,51198 37121,51114 37181,51030 37235,50940 37283,50844 37319,50741 37343,50639 37361,50531 37367,50429 37367,37581 37361,37473 37343,37371 37319,37269 37283,37166 37235,37070 37181,36980 37121,36890 37049,36812 36971,36740 36881,36680 36791,36626 36695,36578 36599,36542 36491,36518 36389,36500 36281,36500 28459,36500 28351,36500 28243,36518 28141,36542 28039,36578 27943,36626 27847,36680 27763,36740 27685,36812 27613,36890 27553,36980 27499,37070 27451,37166 27415,37269 27391,37371 27373,37473 27367,37581 27367,50429 27373,50531 27391,50639 27415,50741 27451,50844 27499,50940 27553,51030 27613,51114 27685,51198 27763,51264 27847,51330 27943,51384 28039,51432 28141,51468 28243,51492 28351,51504 28459,51510 Z"/>
   </g>
  </g>
  <g class="com.sun.star.drawing.PolyPolygonShape">
   <g id="id4">
    <rect class="BoundingBox" stroke="none" fill="none" x="27618" y="36745" width="9499" height="14521"/>
    <path fill="rgb(0,0,0)" stroke="none" d="M 28453,51264 L 36281,51264 36365,51258 36443,51246 36527,51228 36599,51198 36677,51162 36743,51120 36809,51072 36869,51018 36923,50958 36977,50892 37019,50820 37055,50747 37079,50669 37097,50591 37109,50513 37115,50429 37115,37581 37109,37497 37097,37419 37079,37341 37055,37263 37019,37190 36977,37118 36923,37052 36869,36992 36809,36938 36743,36890 36677,36848 36599,36812 36527,36782 36443,36764 36365,36752 36281,36746 28453,36746 28369,36752 28285,36764 28207,36782 28129,36812 28057,36848 27985,36890 27925,36938 27859,36992 27805,37052 27757,37118 27715,37190 27679,37263 27655,37341 27631,37419 27619,37497 27619,37581 27619,50429 27619,50513 27631,50591 27655,50669 27679,50747 27715,50820 27757,50892 27805,50958 27859,51018 27925,51072 27985,51120 28057,51162 28129,51198 28207,51228 28285,51246 28369,51258 28453,51264 Z"/>
    <path fill="none" stroke="rgb(0,0,0)" d="M 28453,51264 L 36281,51264 36365,51258 36443,51246 36527,51228 36599,51198 36677,51162 36743,51120 36809,51072 36869,51018 36923,50958 36977,50892 37019,50820 37055,50747 37079,50669 37097,50591 37109,50513 37115,50429 37115,37581 37109,37497 37097,37419 37079,37341 37055,37263 37019,37190 36977,37118 36923,37052 36869,36992 36809,36938 36743,36890 36677,36848 36599,36812 36527,36782 36443,36764 36365,36752 36281,36746 28453,36746 28369,36752 28285,36764 28207,36782 28129,36812 28057,36848 27985,36890 27925,36938 27859,36992 27805,37052 27757,37118 27715,37190 27679,37263 27655,37341 27631,37419 27619,37497 27619,37581 27619,50429 27619,50513 27631,50591 27655,50669 27679,50747 27715,50820 27757,50892 27805,50958 27859,51018 27925,51072 27985,51120 28057,51162 28129,51198 28207,51228 28285,51246 28369,51258 28453,51264 Z"/>
   </g>
  </g>
  <g class="com.sun.star.drawing.PolyPolygonShape">
   <g id="id5">
    <rect class="BoundingBox" stroke="none" fill="none" x="27864" y="36997" width="9001" height="14017"/>
    <path fill="rgb(255,255,255)" stroke="none" d="M 28453,51012 L 36281,51012 36341,51012 36395,51000 36449,50988 36503,50970 36557,50946 36605,50916 36653,50880 36695,50844 36731,50796 36767,50753 36797,50705 36821,50651 36839,50597 36857,50543 36863,50483 36863,50429 36863,37581 36863,37521 36857,37467 36839,37413 36821,37359 36797,37305 36767,37257 36731,37208 36695,37166 36653,37130 36605,37094 36557,37064 36503,37040 36449,37022 36395,37010 36341,36998 36281,36998 28453,36998 28393,36998 28333,37010 28279,37022 28225,37040 28177,37064 28129,37094 28081,37130 28039,37166 27997,37208 27967,37257 27937,37305 27913,37359 27895,37413 27877,37467 27871,37521 27865,37581 27865,50429 27871,50483 27877,50543 27895,50597 27913,50651 27937,50705 27967,50753 27997,50796 28039,50844 28081,50880 28129,50916 28177,50946 28225,50970 28279,50988 28333,51000 28393,51012 28453,51012 Z"/>
    <path fill="none" stroke="rgb(255,255,255)" d="M 28453,51012 L 36281,51012 36341,51012 36395,51000 36449,50988 36503,50970 36557,50946 36605,50916 36653,50880 36695,50844 36731,50796 36767,50753 36797,50705 36821,50651 36839,50597 36857,50543 36863,50483 36863,50429 36863,37581 36863,37521 36857,37467 36839,37413 36821,37359 36797,37305 36767,37257 36731,37208 36695,37166 36653,37130 36605,37094 36557,37064 36503,37040 36449,37022 36395,37010 36341,36998 36281,36998 28453,36998 28393,36998 28333,37010 28279,37022 28225,37040 28177,37064 28129,37094 28081,37130 28039,37166 27997,37208 27967,37257 27937,37305 27913,37359 27895,37413 27877,37467 27871,37521 27865,37581 27865,50429 27871,50483 27877,50543 27895,50597 27913,50651 27937,50705 27967,50753 27997,50796 28039,50844 28081,50880 28129,50916 28177,50946 28225,50970 28279,50988 28333,51000 28393,51012 28453,51012 Z"/>
   </g>
  </g>
  <g class="com.sun.star.drawing.PolyPolygonShape">
   <g id="id6">
    <rect class="BoundingBox" stroke="none" fill="none" x="28614" y="40252" width="7500" height="7507"/>
    <path fill="rgb(255,0,0)" stroke="none" d="M 36112,43999 L 36112,43819 36094,43633 36076,43453 36040,43273 36004,43092 35956,42912 35896,42738 35830,42564 35758,42396 35674,42234 35584,42072 35482,41916 35380,41766 35266,41621 35146,41483 35020,41351 34888,41219 34744,41099 34600,40985 34450,40883 34294,40781 34138,40691 33970,40613 33802,40535 33634,40469 33459,40409 33279,40361 33099,40319 32919,40289 32739,40265 32553,40253 32367,40253 32187,40253 32001,40265 31821,40289 31635,40319 31455,40361 31275,40409 31100,40469 30932,40535 30764,40613 30596,40691 30440,40781 30284,40883 30134,40985 29984,41099 29846,41219 29714,41351 29588,41483 29468,41621 29354,41766 29246,41916 29150,42072 29060,42234 28976,42396 28904,42564 28838,42738 28778,42912 28730,43092 28688,43273 28658,43453 28634,43633 28622,43819 28615,43999 28622,44185 28634,44371 28658,44551 28688,44731 28730,44912 28778,45092 28838,45266 28904,45440 28976,45608 29060,45770 29150,45932 29246,46094 29354,46244 29468,46389 29588,46527 29714,46659 29846,46791 29984,46911 30134,47025 30284,47127 30440,47229 30596,47319 30764,47397 30932,47475 31100,47541 31275,47601 31455,47649 31635,47685 31821,47721 32001,47739 32187,47758 32367,47758 32553,47758 32739,47739 32919,47721 33099,47685 33279,47649 33459,47601 33634,47541 33802,47475 33970,47397 34138,47319 34294,47229 34450,47127 34600,47025 34744,46911 34888,46791 35020,46659 35146,46527 35266,46389 35380,46244 35482,46094 35584,45932 35674,45770 35758,45608 35830,45440 35896,45266 35956,45092 36004,44912 36040,44731 36076,44551 36094,44371 36112,44185 36112,43999 Z"/>
    <path fill="none" stroke="rgb(255,0,0)" d="M 36112,43999 L 36112,43819 36094,43633 36076,43453 36040,43273 36004,43092 35956,42912 35896,42738 35830,42564 35758,42396 35674,42234 35584,42072 35482,41916 35380,41766 35266,41621 35146,41483 35020,41351 34888,41219 34744,41099 34600,40985 34450,40883 34294,40781 34138,40691 33970,40613 33802,40535 33634,40469 33459,40409 33279,40361 33099,40319 32919,40289 32739,40265 32553,40253 32367,40253 32187,40253 32001,40265 31821,40289 31635,40319 31455,40361 31275,40409 31100,40469 30932,40535 30764,40613 30596,40691 30440,40781 30284,40883 30134,40985 29984,41099 29846,41219 29714,41351 29588,41483 29468,41621 29354,41766 29246,41916 29150,42072 29060,42234 28976,42396 28904,42564 28838,42738 28778,42912 28730,43092 28688,43273 28658,43453 28634,43633 28622,43819 28615,43999 28622,44185 28634,44371 28658,44551 28688,44731 28730,44912 28778,45092 28838,45266 28904,45440 28976,45608 29060,45770 29150,45932 29246,46094 29354,46244 29468,46389 29588,46527 29714,46659 29846,46791 29984,46911 30134,47025 30284,47127 30440,47229 30596,47319 30764,47397 30932,47475 31100,47541 31275,47601 31455,47649 31635,47685 31821,47721 32001,47739 32187,47758 32367,47758 32553,47758 32739,47739 32919,47721 33099,47685 33279,47649 33459,47601 33634,47541 33802,47475 33970,47397 34138,47319 34294,47229 34450,47127 34600,47025 34744,46911 34888,46791 35020,46659 35146,46527 35266,46389 35380,46244 35482,46094 35584,45932 35674,45770 35758,45608 35830,45440 35896,45266 35956,45092 36004,44912 36040,44731 36076,44551 36094,44371 36112,44185 36112,43999 Z"/>
   </g>
  </g>
  <g class="com.sun.star.drawing.PolyPolygonShape">
   <g id="id7">
    <rect class="BoundingBox" stroke="none" fill="none" x="29863" y="37832" width="1035" height="1510"/>
    <path fill="rgb(0,0,0)" stroke="none" d="M 29864,39340 L 30896,39340 30896,39088 30188,39088 30866,38085 30866,37833 29900,37833 29900,38085 30554,38085 29864,39088 29864,39340 Z"/>
    <path fill="none" stroke="rgb(0,0,0)" d="M 29864,39340 L 30896,39340 30896,39088 30188,39088 30866,38085 30866,37833 29900,37833 29900,38085 30554,38085 29864,39088 29864,39340 Z"/>
   </g>
  </g>
  <g class="com.sun.star.drawing.PolyPolygonShape">
   <g id="id8">
    <rect class="BoundingBox" stroke="none" fill="none" x="32534" y="37832" width="1035" height="1510"/>
    <path fill="rgb(0,0,0)" stroke="none" d="M 32535,39340 L 32787,39340 32787,38343 33249,39340 33567,39340 33567,37833 33321,37833 33321,38836 32859,37833 32535,37833 32535,39340 Z"/>
    <path fill="none" stroke="rgb(0,0,0)" d="M 32535,39340 L 32787,39340 32787,38343 33249,39340 33567,39340 33567,37833 33321,37833 33321,38836 32859,37833 32535,37833 32535,39340 Z"/>
   </g>
  </g>
  <g class="com.sun.star.drawing.PolyPolygonShape">
   <g id="id9">
    <rect class="BoundingBox" stroke="none" fill="none" x="31178" y="37802" width="1035" height="1570"/>
    <path fill="rgb(0,0,0)" stroke="none" d="M 31455,38295 L 31455,38878 31455,38926 31473,38968 31491,39010 31521,39046 31557,39076 31599,39100 31647,39112 31695,39118 31737,39112 31785,39100 31827,39076 31863,39046 31893,39010 31911,38968 31929,38926 31929,38878 31929,38295 31929,38247 31911,38199 31893,38157 31863,38121 31827,38091 31785,38067 31737,38055 31695,38049 31647,38055 31599,38067 31557,38091 31521,38121 31491,38157 31473,38199 31455,38247 31455,38295 Z M 31179,38319 L 31179,38854 31179,38902 31191,38956 31203,39004 31215,39052 31239,39094 31263,39142 31293,39178 31329,39220 31365,39250 31407,39280 31449,39310 31497,39328 31545,39346 31593,39358 31641,39364 31695,39370 31743,39364 31791,39358 31839,39346 31887,39328 31935,39310 31983,39280 32025,39250 32061,39220 32097,39178 32127,39142 32151,39094 32175,39052 32187,39004 32199,38956 32211,38902 32211,38854 32211,38319 32211,38271 32199,38217 32187,38163 32175,38121 32151,38073 32127,38031 32097,37989 32061,37953 32025,37917 31983,37887 31935,37863 31887,37839 31839,37821 31791,37809 31743,37803 31695,37803 31641,37803 31593,37809 31545,37821 31497,37839 31449,37863 31407,37887 31365,37917 31329,37953 31293,37989 31263,38031 31239,38073 31215,38121 31203,38163 31191,38217 31179,38271 31179,38319 Z"/>
    <path fill="none" stroke="rgb(0,0,0)" d="M 31455,38295 L 31455,38878 31455,38926 31473,38968 31491,39010 31521,39046 31557,39076 31599,39100 31647,39112 31695,39118 31737,39112 31785,39100 31827,39076 31863,39046 31893,39010 31911,38968 31929,38926 31929,38878 31929,38295 31929,38247 31911,38199 31893,38157 31863,38121 31827,38091 31785,38067 31737,38055 31695,38049 31647,38055 31599,38067 31557,38091 31521,38121 31491,38157 31473,38199 31455,38247 31455,38295 Z"/>
    <path fill="none" stroke="rgb(0,0,0)" d="M 31179,38319 L 31179,38854 31179,38902 31191,38956 31203,39004 31215,39052 31239,39094 31263,39142 31293,39178 31329,39220 31365,39250 31407,39280 31449,39310 31497,39328 31545,39346 31593,39358 31641,39364 31695,39370 31743,39364 31791,39358 31839,39346 31887,39328 31935,39310 31983,39280 32025,39250 32061,39220 32097,39178 32127,39142 32151,39094 32175,39052 32187,39004 32199,38956 32211,38902 32211,38854 32211,38319 32211,38271 32199,38217 32187,38163 32175,38121 32151,38073 32127,38031 32097,37989 32061,37953 32025,37917 31983,37887 31935,37863 31887,37839 31839,37821 31791,37809 31743,37803 31695,37803 31641,37803 31593,37809 31545,37821 31497,37839 31449,37863 31407,37887 31365,37917 31329,37953 31293,37989 31263,38031 31239,38073 31215,38121 31203,38163 31191,38217 31179,38271 31179,38319 Z"/>
   </g>
  </g>
  <g class="com.sun.star.drawing.PolyPolygonShape">
   <g id="id10">
    <rect class="BoundingBox" stroke="none" fill="none" x="33939" y="37832" width="927" height="1510"/>
    <path fill="rgb(0,0,0)" stroke="none" d="M 33940,39340 L 34864,39340 34864,39088 34216,39088 34216,38685 34648,38685 34648,38439 34216,38439 34216,38085 34864,38085 34864,37833 33940,37833 33940,39340 Z"/>
    <path fill="none" stroke="rgb(0,0,0)" d="M 33940,39340 L 34864,39340 34864,39088 34216,39088 34216,38685 34648,38685 34648,38439 34216,38439 34216,38085 34864,38085 34864,37833 33940,37833 33940,39340 Z"/>
   </g>
  </g>
  <g class="com.sun.star.drawing.PolyPolygonShape">
   <g id="id11">
    <rect class="BoundingBox" stroke="none" fill="none" x="29695" y="41326" width="5345" height="5359"/>
    <path fill="rgb(255,255,255)" stroke="none" d="M 35038,43999 L 35038,43873 35026,43741 35008,43609 34990,43483 34960,43351 34924,43224 34882,43104 34834,42978 34780,42858 34726,42744 34660,42630 34588,42516 34516,42408 34432,42306 34348,42204 34258,42114 34162,42018 34066,41934 33958,41856 33850,41778 33742,41711 33628,41645 33507,41585 33393,41531 33267,41483 33141,41441 33015,41405 32889,41381 32763,41357 32631,41339 32499,41333 32367,41327 32241,41333 32109,41339 31977,41357 31851,41381 31719,41405 31593,41441 31473,41483 31347,41531 31227,41585 31106,41645 30992,41711 30878,41778 30776,41856 30668,41934 30572,42018 30476,42114 30386,42204 30302,42306 30218,42408 30146,42516 30074,42630 30008,42744 29948,42858 29900,42978 29852,43104 29810,43224 29774,43351 29744,43483 29720,43609 29708,43741 29696,43873 29696,43999 29696,44131 29708,44263 29720,44395 29744,44527 29774,44659 29810,44786 29852,44906 29900,45032 29948,45152 30008,45266 30074,45380 30146,45494 30218,45602 30302,45704 30386,45800 30476,45896 30572,45986 30668,46076 30776,46154 30878,46232 30992,46299 31106,46365 31227,46425 31347,46479 31473,46527 31593,46569 31719,46599 31851,46629 31977,46653 32109,46671 32241,46677 32367,46683 32499,46677 32631,46671 32763,46653 32889,46629 33015,46599 33141,46569 33267,46527 33393,46479 33507,46425 33628,46365 33742,46299 33850,46232 33958,46154 34066,46076 34162,45986 34258,45896 34348,45800 34432,45704 34516,45602 34588,45494 34660,45380 34726,45266 34780,45152 34834,45032 34882,44906 34924,44786 34960,44659 34990,44527 35008,44395 35026,44263 35038,44131 35038,43999 Z"/>
    <path fill="none" stroke="rgb(255,255,255)" d="M 35038,43999 L 35038,43873 35026,43741 35008,43609 34990,43483 34960,43351 34924,43224 34882,43104 34834,42978 34780,42858 34726,42744 34660,42630 34588,42516 34516,42408 34432,42306 34348,42204 34258,42114 34162,42018 34066,41934 33958,41856 33850,41778 33742,41711 33628,41645 33507,41585 33393,41531 33267,41483 33141,41441 33015,41405 32889,41381 32763,41357 32631,41339 32499,41333 32367,41327 32241,41333 32109,41339 31977,41357 31851,41381 31719,41405 31593,41441 31473,41483 31347,41531 31227,41585 31106,41645 30992,41711 30878,41778 30776,41856 30668,41934 30572,42018 30476,42114 30386,42204 30302,42306 30218,42408 30146,42516 30074,42630 30008,42744 29948,42858 29900,42978 29852,43104 29810,43224 29774,43351 29744,43483 29720,43609 29708,43741 29696,43873 29696,43999 29696,44131 29708,44263 29720,44395 29744,44527 29774,44659 29810,44786 29852,44906 29900,45032 29948,45152 30008,45266 30074,45380 30146,45494 30218,45602 30302,45704 30386,45800 30476,45896 30572,45986 30668,46076 30776,46154 30878,46232 30992,46299 31106,46365 31227,46425 31347,46479 31473,46527 31593,46569 31719,46599 31851,46629 31977,46653 32109,46671 32241,46677 32367,46683 32499,46677 32631,46671 32763,46653 32889,46629 33015,46599 33141,46569 33267,46527 33393,46479 33507,46425 33628,46365 33742,46299 33850,46232 33958,46154 34066,46076 34162,45986 34258,45896 34348,45800 34432,45704 34516,45602 34588,45494 34660,45380 34726,45266 34780,45152 34834,45032 34882,44906 34924,44786 34960,44659 34990,44527 35008,44395 35026,44263 35038,44131 35038,43999 Z"/>
   </g>
  </g>
  <g class="com.sun.star.drawing.PolyPolygonShape">
   <g id="id12">
    <rect class="BoundingBox" stroke="none" fill="none" x="30349" y="42611" width="1816" height="2771"/>
    <path fill="rgb(0,0,0)" stroke="none" d="M 31052,44167 L 31052,43729 31299,43729 31359,43723 31419,43705 31485,43675 31533,43633 31575,43579 31605,43525 31623,43465 31629,43399 31623,43327 31605,43261 31575,43200 31533,43140 31479,43098 31413,43062 31347,43038 31281,43026 31209,43026 31143,43044 31076,43068 31022,43110 30968,43158 30932,43218 30902,43279 30884,43351 30404,43351 30404,43291 30410,43236 30422,43176 30440,43122 30458,43068 30482,43014 30512,42966 30548,42918 30578,42876 30620,42834 30662,42792 30710,42762 30758,42726 30806,42702 30860,42678 30914,42660 30998,42636 31082,42624 31167,42612 31257,42612 31341,42612 31425,42624 31515,42636 31599,42660 31647,42678 31695,42696 31743,42720 31785,42744 31827,42774 31863,42810 31905,42840 31935,42882 31971,42918 32001,42960 32025,43008 32049,43050 32067,43098 32079,43146 32097,43194 32103,43248 32109,43297 32109,43351 32109,43399 32103,43453 32097,43501 32079,43549 32067,43597 32043,43645 32025,43693 31995,43735 31971,43777 31935,43819 31899,43855 31863,43891 31827,43921 31785,43951 31827,43981 31869,44011 31911,44047 31947,44083 31983,44119 32019,44161 32049,44203 32073,44251 32097,44299 32121,44347 32133,44395 32145,44449 32157,44497 32163,44551 32163,44605 32163,44659 32157,44707 32145,44762 32133,44816 32115,44864 32097,44912 32073,44960 32043,45002 32013,45050 31983,45092 31947,45128 31905,45164 31863,45200 31821,45236 31779,45260 31731,45284 31683,45302 31581,45338 31473,45362 31359,45374 31257,45380 31149,45374 31040,45362 30938,45338 30836,45302 30782,45284 30728,45254 30686,45230 30638,45188 30596,45152 30554,45110 30518,45074 30482,45026 30452,44978 30428,44930 30404,44876 30386,44822 30368,44768 30356,44713 30350,44659 30350,44599 30848,44599 30854,44635 30872,44671 30890,44701 30908,44737 30932,44768 30956,44798 30986,44822 31016,44846 31046,44864 31082,44882 31119,44894 31155,44906 31191,44912 31227,44918 31269,44918 31305,44918 31341,44906 31377,44900 31413,44888 31449,44870 31491,44852 31521,44828 31551,44804 31575,44774 31599,44743 31617,44713 31635,44683 31653,44647 31665,44611 31671,44575 31677,44533 31683,44497 31677,44431 31653,44371 31623,44311 31587,44263 31533,44221 31479,44191 31407,44173 31347,44167 31052,44167 Z"/>
    <path fill="none" stroke="rgb(0,0,0)" d="M 31052,44167 L 31052,43729 31299,43729 31359,43723 31419,43705 31485,43675 31533,43633 31575,43579 31605,43525 31623,43465 31629,43399 31623,43327 31605,43261 31575,43200 31533,43140 31479,43098 31413,43062 31347,43038 31281,43026 31209,43026 31143,43044 31076,43068 31022,43110 30968,43158 30932,43218 30902,43279 30884,43351 30404,43351 30404,43291 30410,43236 30422,43176 30440,43122 30458,43068 30482,43014 30512,42966 30548,42918 30578,42876 30620,42834 30662,42792 30710,42762 30758,42726 30806,42702 30860,42678 30914,42660 30998,42636 31082,42624 31167,42612 31257,42612 31341,42612 31425,42624 31515,42636 31599,42660 31647,42678 31695,42696 31743,42720 31785,42744 31827,42774 31863,42810 31905,42840 31935,42882 31971,42918 32001,42960 32025,43008 32049,43050 32067,43098 32079,43146 32097,43194 32103,43248 32109,43297 32109,43351 32109,43399 32103,43453 32097,43501 32079,43549 32067,43597 32043,43645 32025,43693 31995,43735 31971,43777 31935,43819 31899,43855 31863,43891 31827,43921 31785,43951 31827,43981 31869,44011 31911,44047 31947,44083 31983,44119 32019,44161 32049,44203 32073,44251 32097,44299 32121,44347 32133,44395 32145,44449 32157,44497 32163,44551 32163,44605 32163,44659 32157,44707 32145,44762 32133,44816 32115,44864 32097,44912 32073,44960 32043,45002 32013,45050 31983,45092 31947,45128 31905,45164 31863,45200 31821,45236 31779,45260 31731,45284 31683,45302 31581,45338 31473,45362 31359,45374 31257,45380 31149,45374 31040,45362 30938,45338 30836,45302 30782,45284 30728,45254 30686,45230 30638,45188 30596,45152 30554,45110 30518,45074 30482,45026 30452,44978 30428,44930 30404,44876 30386,44822 30368,44768 30356,44713 30350,44659 30350,44599 30848,44599 30854,44635 30872,44671 30890,44701 30908,44737 30932,44768 30956,44798 30986,44822 31016,44846 31046,44864 31082,44882 31119,44894 31155,44906 31191,44912 31227,44918 31269,44918 31305,44918 31341,44906 31377,44900 31413,44888 31449,44870 31491,44852 31521,44828 31551,44804 31575,44774 31599,44743 31617,44713 31635,44683 31653,44647 31665,44611 31671,44575 31677,44533 31683,44497 31677,44431 31653,44371 31623,44311 31587,44263 31533,44221 31479,44191 31407,44173 31347,44167 31052,44167 Z"/>
   </g>
  </g>
  <g class="com.sun.star.drawing.PolyPolygonShape">
   <g id="id13">
    <rect class="BoundingBox" stroke="none" fill="none" x="32570" y="42629" width="1816" height="2753"/>
    <path fill="rgb(0,0,0)" stroke="none" d="M 33051,43489 L 33051,44521 33051,44563 33063,44599 33069,44641 33081,44677 33099,44719 33123,44756 33147,44786 33177,44816 33207,44846 33237,44870 33273,44888 33309,44906 33351,44924 33393,44930 33429,44936 33471,44942 33513,44936 33555,44930 33597,44924 33634,44906 33670,44888 33706,44870 33742,44846 33772,44816 33796,44786 33820,44756 33850,44719 33868,44677 33880,44641 33892,44599 33898,44563 33898,44521 33898,43489 33898,43447 33892,43411 33880,43369 33868,43333 33850,43291 33820,43255 33796,43224 33772,43194 33742,43164 33706,43140 33670,43116 33634,43104 33597,43086 33555,43074 33513,43068 33471,43068 33429,43068 33393,43074 33351,43086 33309,43104 33273,43116 33237,43140 33207,43164 33177,43194 33147,43224 33123,43255 33099,43291 33081,43333 33069,43369 33063,43411 33051,43447 33051,43489 Z M 32571,43537 L 32571,44473 32571,44563 32589,44653 32607,44737 32637,44822 32673,44900 32721,44978 32775,45050 32835,45116 32901,45176 32973,45230 33045,45272 33129,45308 33213,45338 33297,45362 33381,45374 33471,45380 33561,45374 33652,45362 33736,45338 33820,45308 33904,45272 33982,45230 34054,45176 34120,45116 34174,45050 34228,44978 34276,44900 34312,44822 34342,44737 34366,44653 34378,44563 34384,44473 34384,43537 34378,43447 34366,43357 34342,43273 34312,43188 34276,43110 34228,43032 34174,42960 34120,42894 34054,42834 33982,42780 33904,42738 33820,42696 33736,42666 33652,42648 33561,42636 33471,42630 33381,42636 33297,42648 33213,42666 33129,42696 33045,42738 32973,42780 32901,42834 32835,42894 32775,42960 32721,43032 32673,43110 32637,43188 32607,43273 32589,43357 32571,43447 32571,43537 Z"/>
    <path fill="none" stroke="rgb(0,0,0)" d="M 33051,43489 L 33051,44521 33051,44563 33063,44599 33069,44641 33081,44677 33099,44719 33123,44756 33147,44786 33177,44816 33207,44846 33237,44870 33273,44888 33309,44906 33351,44924 33393,44930 33429,44936 33471,44942 33513,44936 33555,44930 33597,44924 33634,44906 33670,44888 33706,44870 33742,44846 33772,44816 33796,44786 33820,44756 33850,44719 33868,44677 33880,44641 33892,44599 33898,44563 33898,44521 33898,43489 33898,43447 33892,43411 33880,43369 33868,43333 33850,43291 33820,43255 33796,43224 33772,43194 33742,43164 33706,43140 33670,43116 33634,43104 33597,43086 33555,43074 33513,43068 33471,43068 33429,43068 33393,43074 33351,43086 33309,43104 33273,43116 33237,43140 33207,43164 33177,43194 33147,43224 33123,43255 33099,43291 33081,43333 33069,43369 33063,43411 33051,43447 33051,43489 Z"/>
    <path fill="none" stroke="rgb(0,0,0)" d="M 32571,43537 L 32571,44473 32571,44563 32589,44653 32607,44737 32637,44822 32673,44900 32721,44978 32775,45050 32835,45116 32901,45176 32973,45230 33045,45272 33129,45308 33213,45338 33297,45362 33381,45374 33471,45380 33561,45374 33652,45362 33736,45338 33820,45308 33904,45272 33982,45230 34054,45176 34120,45116 34174,45050 34228,44978 34276,44900 34312,44822 34342,44737 34366,44653 34378,44563 34384,44473 34384,43537 34378,43447 34366,43357 34342,43273 34312,43188 34276,43110 34228,43032 34174,42960 34120,42894 34054,42834 33982,42780 33904,42738 33820,42696 33736,42666 33652,42648 33561,42636 33471,42630 33381,42636 33297,42648 33213,42666 33129,42696 33045,42738 32973,42780 32901,42834 32835,42894 32775,42960 32721,43032 32673,43110 32637,43188 32607,43273 32589,43357 32571,43447 32571,43537 Z"/>
   </g>
  </g>
  <g class="com.sun.star.drawing.PolyPolygonShape">
   <g id="id14">
    <rect class="BoundingBox" stroke="none" fill="none" x="32570" y="42629" width="1816" height="2753"/>
    <path fill="rgb(0,0,0)" stroke="none" d="M 33051,43489 L 33051,44521 33051,44563 33063,44599 33069,44641 33081,44677 33099,44719 33123,44756 33147,44786 33177,44816 33207,44846 33237,44870 33273,44888 33309,44906 33351,44924 33393,44930 33429,44936 33471,44942 33513,44936 33555,44930 33597,44924 33634,44906 33670,44888 33706,44870 33742,44846 33772,44816 33796,44786 33820,44756 33850,44719 33868,44677 33880,44641 33892,44599 33898,44563 33898,44521 33898,43489 33898,43447 33892,43411 33880,43369 33868,43333 33850,43291 33820,43255 33796,43224 33772,43194 33742,43164 33706,43140 33670,43116 33634,43104 33597,43086 33555,43074 33513,43068 33471,43068 33429,43068 33393,43074 33351,43086 33309,43104 33273,43116 33237,43140 33207,43164 33177,43194 33147,43224 33123,43255 33099,43291 33081,43333 33069,43369 33063,43411 33051,43447 33051,43489 Z M 32571,43537 L 32571,44473 32571,44563 32589,44653 32607,44737 32637,44822 32673,44900 32721,44978 32775,45050 32835,45116 32901,45176 32973,45230 33045,45272 33129,45308 33213,45338 33297,45362 33381,45374 33471,45380 33561,45374 33652,45362 33736,45338 33820,45308 33904,45272 33982,45230 34054,45176 34120,45116 34174,45050 34228,44978 34276,44900 34312,44822 34342,44737 34366,44653 34378,44563 34384,44473 34384,43537 34378,43447 34366,43357 34342,43273 34312,43188 34276,43110 34228,43032 34174,42960 34120,42894 34054,42834 33982,42780 33904,42738 33820,42696 33736,42666 33652,42648 33561,42636 33471,42630 33381,42636 33297,42648 33213,42666 33129,42696 33045,42738 32973,42780 32901,42834 32835,42894 32775,42960 32721,43032 32673,43110 32637,43188 32607,43273 32589,43357 32571,43447 32571,43537 Z"/>
    <path fill="none" stroke="rgb(0,0,0)" d="M 33051,43489 L 33051,44521 33051,44563 33063,44599 33069,44641 33081,44677 33099,44719 33123,44756 33147,44786 33177,44816 33207,44846 33237,44870 33273,44888 33309,44906 33351,44924 33393,44930 33429,44936 33471,44942 33513,44936 33555,44930 33597,44924 33634,44906 33670,44888 33706,44870 33742,44846 33772,44816 33796,44786 33820,44756 33850,44719 33868,44677 33880,44641 33892,44599 33898,44563 33898,44521 33898,43489 33898,43447 33892,43411 33880,43369 33868,43333 33850,43291 33820,43255 33796,43224 33772,43194 33742,43164 33706,43140 33670,43116 33634,43104 33597,43086 33555,43074 33513,43068 33471,43068 33429,43068 33393,43074 33351,43086 33309,43104 33273,43116 33237,43140 33207,43164 33177,43194 33147,43224 33123,43255 33099,43291 33081,43333 33069,43369 33063,43411 33051,43447 33051,43489 Z"/>
    <path fill="none" stroke="rgb(0,0,0)" d="M 32571,43537 L 32571,44473 32571,44563 32589,44653 32607,44737 32637,44822 32673,44900 32721,44978 32775,45050 32835,45116 32901,45176 32973,45230 33045,45272 33129,45308 33213,45338 33297,45362 33381,45374 33471,45380 33561,45374 33652,45362 33736,45338 33820,45308 33904,45272 33982,45230 34054,45176 34120,45116 34174,45050 34228,44978 34276,44900 34312,44822 34342,44737 34366,44653 34378,44563 34384,44473 34384,43537 34378,43447 34366,43357 34342,43273 34312,43188 34276,43110 34228,43032 34174,42960 34120,42894 34054,42834 33982,42780 33904,42738 33820,42696 33736,42666 33652,42648 33561,42636 33471,42630 33381,42636 33297,42648 33213,42666 33129,42696 33045,42738 32973,42780 32901,42834 32835,42894 32775,42960 32721,43032 32673,43110 32637,43188 32607,43273 32589,43357 32571,43447 32571,43537 Z"/>
   </g>
  </g>
 </g>
</svg>