<?xml version="1.0" encoding="UTF-8"?>
<!-- Created with Inkscape (http://www.inkscape.org/) -->
<svg width="64.65mm" height="32.153mm" version="1.1" viewBox="0 0 64.65 32.153" xml:space="preserve" xmlns="http://www.w3.org/2000/svg"><defs><clipPath id="clipPath15455"><path d="m0 697.32v-689.92h1174l6.191 689.92z"/></clipPath></defs><g transform="matrix(.33821 0 0 -.33821 -258.68 98.424)" clip-path="url(#clipPath15455)"><g transform="translate(887.81 205.96)"><path d="m0 0 3.313 3.3h-2.902l-2.869-2.963v6.177h-2.311v-11.673h2.311v2.71l0.898 0.895 2.247-3.605h2.691zm-69.18 0 3.312 3.3h-2.901l-2.869-2.963v6.177h-2.312v-11.673h2.312v2.71l0.898 0.895 2.247-3.605h2.691zm84.184 2.153-0.033 1.147h-2.263v-8.459h2.312v4.606c0 1.263 1.229 2.218 2.609 1.861v2.203c-1.049 0.049-2.004-0.206-2.625-1.358m-109.19-4.582v4.024h1.574v1.705l-1.574 1e-3v2.606h-2.312v-2.59l-1.148-0.017v-1.705h1.148v-4.33c0-1.836 1.016-2.637 2.771-2.637 0.413 0 0.898 0.074 1.232 0.206v1.801c-0.495-0.226-1.691-0.335-1.691 0.936m84.091-1.205c-1.295 0-2.099 1.049-2.099 2.672s0.804 2.672 2.099 2.672 2.098-1.049 2.098-2.672-0.803-2.672-2.098-2.672m0 7.148c-2.541 0-4.328-1.919-4.328-4.476s1.787-4.475 4.328-4.475 4.328 1.918 4.328 4.475-1.787 4.476-4.328 4.476m-8.805-1.804c0.836 0 1.377-0.442 1.623-1.361h2.262c-0.344 2.001-1.754 3.165-3.918 3.165-2.508 0-4.066-1.755-4.066-4.476s1.558-4.475 4.066-4.475c2.131 0 3.574 1.18 3.918 3.196h-2.262c-0.263-0.918-0.803-1.393-1.623-1.393-1.18 0-1.869 0.951-1.869 2.672s0.689 2.672 1.869 2.672m75.141-5.344c-1.294 0-2.098 1.049-2.098 2.672s0.804 2.672 2.098 2.672c1.296 0 2.099-1.049 2.099-2.672s-0.803-2.672-2.099-2.672m0 7.148c-2.54 0-4.327-1.919-4.327-4.476s1.787-4.475 4.327-4.475c2.542 0 4.329 1.918 4.329 4.475s-1.787 4.476-4.329 4.476m-10.031-6.982c-1.955 0-3.082 1.687-3.082 4.146 0 2.377 1.165 4.03 3.082 4.03 1.222 0 2.241-0.533 2.629-2.279h2.301c-0.513 3.02-2.411 4.377-4.988 4.377-3.268 0-5.45-2.358-5.45-6.128 0-3.787 2.219-6.244 5.45-6.244 2.605 0 4.479 1.4 4.988 4.457h-2.286c-0.361-1.818-1.34-2.359-2.644-2.359m15.24-1.691h2.471v2.459h-2.471zm-89.476 1.525c-1.295 0-2.099 1.049-2.099 2.672s0.804 2.672 2.099 2.672 2.098-1.049 2.098-2.672-0.803-2.672-2.098-2.672m0 7.148c-2.541 0-4.328-1.919-4.328-4.476s1.787-4.475 4.328-4.475 4.328 1.918 4.328 4.475-1.787 4.476-4.328 4.476m-10.031-6.982c-1.956 0-3.083 1.687-3.083 4.146 0 2.377 1.165 4.03 3.083 4.03 1.221 0 2.241-0.533 2.628-2.279h2.301c-0.513 3.02-2.41 4.377-4.988 4.377-3.268 0-5.45-2.358-5.45-6.128 0-3.787 2.22-6.244 5.45-6.244 2.605 0 4.479 1.4 4.988 4.457h-2.285c-0.362-1.818-1.341-2.359-2.644-2.359m-17.719 6.769-1.755-5.825-1.867 5.824h-2.542l3.378-8.829-0.981-2.84h2.205l4.018 11.67zm88.252-6.799c-0.969 0-1.523 0.553-1.523 1.338 0 0.611 0.302 1.208 1.067 1.794 0.589-0.716 1.276-1.532 2.109-2.523-0.478-0.37-1.033-0.609-1.653-0.609m0.386 7.921c0.477 0 1.04-0.345 1.04-0.96 0-0.348-0.207-0.823-1.345-1.479-0.434 0.587-0.72 1.07-0.72 1.479 0 0.554 0.518 0.96 1.025 0.96m5.164-3.984h-2.005c-0.065-0.515-0.291-1.188-0.65-1.831-0.645 0.722-1.207 1.36-1.719 1.981 1.703 0.969 2.14 1.977 2.14 2.874 0 1.446-1.23 2.603-2.983 2.603-1.676 0-2.897-1.117-2.897-2.578 0-0.82 0.309-1.503 0.988-2.436-1.233-0.81-2.183-1.865-2.183-3.366 0-1.83 1.327-3.06 3.403-3.06 1.326 0 2.38 0.423 3.211 1.054 0.225-0.269 0.457-0.546 0.701-0.839h2.669c-0.747 0.866-1.41 1.617-2.01 2.29 0.802 1.172 1.201 2.488 1.335 3.308m-87.165-4.073c-1.295 0-2.098 1.049-2.098 2.672s0.803 2.672 2.098 2.672 2.098-1.049 2.098-2.672-0.803-2.672-2.098-2.672m0 7.148c-2.541 0-4.328-1.919-4.328-4.476s1.787-4.475 4.328-4.475 4.328 1.918 4.328 4.475-1.787 4.476-4.328 4.476m-15.994-8.673h2.312v8.459h-2.312zm0 9.574h2.312v2.098h-2.312zm-12.699-5.639c0-1.262-0.672-2.066-1.656-2.066-0.819 0-1.229 0.557-1.229 1.443v5.147h-2.312v-5.672c0-1.836 1.016-3 2.771-3 1.082 0 1.885 0.443 2.442 1.361l0.033-1.148h2.263v8.459h-2.312zm-8.766 0.941-1.82 0.377c-0.606 0.132-0.95 0.469-0.95 0.911 0 0.541 0.492 0.902 1.262 0.902 0.869 0 1.492-0.402 1.607-1.139h2.082c-0.213 1.655-1.607 2.746-3.656 2.746-2.082 0-3.443-1.083-3.443-2.787 0-1.296 0.803-2.089 2.459-2.418l1.672-0.327c0.771-0.148 1.115-0.452 1.115-0.911 0-0.64-0.656-0.935-1.525-0.935-1.098 0-1.672 0.435-1.803 1.271h-2.115c0.213-1.803 1.525-2.878 3.836-2.878 2.279 0 3.755 1.034 3.755 2.82 0 1.03-0.787 2.024-2.476 2.368m109.94-1.498c0-1.246-0.836-1.919-1.934-1.919-0.853 0-1.328 0.454-1.328 1.06 0 0.558 0.293 0.923 1.098 1.109s2.164 0.372 2.164 0.372zm2.214 2.13c0 2.082-1.23 3.148-3.656 3.148-2.279 0-3.443-0.885-3.607-2.738h2.115c0.114 0.787 0.557 1.099 1.508 1.099 0.918 0 1.426-0.295 1.426-0.918v-0.623s-1.493-0.208-2.951-0.503c-1.666-0.338-2.574-1.257-2.574-2.601 0-1.541 1.148-2.617 2.935-2.617 1.115 0 2.033 0.409 2.607 1.098 0.027-0.362 0.092-0.596 0.18-0.853h2.344c-0.246 0.427-0.327 0.984-0.327 1.771zm-16.562-2.13c0-1.246-0.836-1.919-1.934-1.919-0.853 0-1.328 0.454-1.328 1.06 0 0.558 0.293 0.923 1.098 1.109 0.806 0.186 2.164 0.372 2.164 0.372zm2.214 2.13c0 2.082-1.23 3.148-3.656 3.148-2.279 0-3.443-0.885-3.607-2.738h2.115c0.114 0.787 0.557 1.099 1.508 1.099 0.918 0 1.426-0.295 1.426-0.918v-0.623s-1.493-0.208-2.951-0.503c-1.665-0.338-2.573-1.257-2.573-2.601 0-1.541 1.147-2.617 2.934-2.617 1.115 0 2.033 0.409 2.607 1.098 0.027-0.362 0.092-0.596 0.18-0.853h2.345c-0.247 0.427-0.328 0.984-0.328 1.771zm-111.83-2.13c0-1.246-0.836-1.919-1.934-1.919-0.853 0-1.328 0.454-1.328 1.06 0 0.558 0.293 0.923 1.098 1.109s2.164 0.372 2.164 0.372zm2.214 2.13c0 2.082-1.23 3.148-3.656 3.148-2.28 0-3.443-0.885-3.607-2.738h2.115c0.114 0.787 0.557 1.099 1.508 1.099 0.918 0 1.426-0.295 1.426-0.918v-0.623s-1.493-0.208-2.951-0.503c-1.666-0.338-2.574-1.257-2.574-2.601 0-1.541 1.148-2.617 2.935-2.617 1.114 0 2.033 0.409 2.607 1.098 0.027-0.362 0.092-0.596 0.18-0.853h2.344c-0.246 0.427-0.327 0.984-0.327 1.771zm-14.955-2.508-2.296 8.673h-3.688v-11.673h2.246v9.518l2.686-9.518h2.185l2.654 9.502v-9.502h2.262v11.673h-3.738z" fill="#231f20"/></g><g transform="translate(810.48 267.86)"><path d="m0 0c-10.091 4.243-16.841 9.434-16.841 12.976 0 0.82 0.64 1.691 1.823 1.691 4.81 0 10.824-8.258 15.018-14.667m88.372-14.384c-7.092-13.276-19.466-23.249-34.391-22.839-19.187 0-30.828 13.158-39.67 26.133 15.324-4.062 31.757-6.484 44.026-6.484 11.075 0 21.178 1.074 30.035 3.19m27.647 18.111c-1.2 1.357-3.229 1.512-4.686 0.301-3.407-2.836-7.239-5.789-12.176-8.217 0.531 1.583 1.07 3.128 1.489 4.83 0.499 1.861-0.265 3.729-2.157 4.167-1.843 0.493-3.81-0.858-4.164-2.712-0.681-2.934-1.606-5.914-2.828-9.107-23.355-7.221-57.73-4.113-82.029 3.797-7.921 13.18-15.287 24.082-25.199 24.082-4.192 0-7.603-3.41-7.603-7.602 0-10.232 15.516-17.561 28.555-21.913 11.301-17.75 24.383-35.306 48.76-35.069 27.068 0.263 38.526 22.487 42.445 31.584 7.008 2.589 12.889 6.035 19.057 11.166 1.389 1.065 1.718 3.355 0.536 4.693" fill="#231f20"/></g></g></svg>
