<svg id="Слой_1" data-name="Слой 1" xmlns="http://www.w3.org/2000/svg" width="600" height="600" viewBox="0 0 600 600">
  <defs>
    <style>
      .cls-1 {
        fill: #fff;
      }

      .cls-2 {
        fill: #055c9d;
      }
    </style>
  </defs>
  <g>
    <rect class="cls-1" x="0.5" y="0.5" width="599" height="599" rx="44.5"/>
    <path d="M555,1a44.0498,44.0498,0,0,1,44,44V555a44.04978,44.04978,0,0,1-44,44H45A44.0498,44.0498,0,0,1,1,555V45A44.04982,44.04982,0,0,1,45,1H555m0-1H45A45,45,0,0,0,0,45V555a45,45,0,0,0,45,45H555a45,45,0,0,0,45-45V45A45,45,0,0,0,555,0Z"/>
  </g>
  <rect class="cls-2" x="10" y="10" width="580" height="580" rx="35"/>
  <g>
    <path class="cls-1" d="M37.63834,452.25267,290.151,40.25415a11.00852,11.00852,0,0,1,18.76021-.01533l253.441,411.99851A11.00065,11.00065,0,0,1,552.97679,469H47.02315A11.00066,11.00066,0,0,1,37.63834,452.25267Z"/>
    <g>
      <g>
        <path d="M268.58714,267.55135V232.8046L219.885,274.50071a13.3846,13.3846,0,0,0,17.00708,20.0759Z"/>
        <path d="M267.041,139.37443a47.89762,47.89762,0,0,0-.77305,9.2658,56.032,56.032,0,0,0,.77305,9.2658,19.47207,19.47207,0,0,0,8.258,10.829c3.19513,1.89975,7.53832,3.05959,13.38733,2.29756,17.78014-2.31645,31.695-20.84806,31.695-31.65816s-2.29492-19.533-23.19148-21.6202c-4.731-.47255-12.49749-.83845-19.62552,4.262C269.42266,127.84213,267.50412,137.13208,267.041,139.37443Z"/>
        <path d="M193.60135,408.08268c-3.42977,8.98369,1.49107,18.91334,10.04964,21.6202a16.53214,16.53214,0,0,0,20.09929-10.03795q12.414-35.4273,24.828-70.85461a23.16515,23.16515,0,0,1,7.52553-10.53413l61.33513-48.33034a12.32617,12.32617,0,0,0,4.48861-9.92291l-2.31915-71.92715,31.57251,23.16915a15.43719,15.43719,0,0,1,6.30691,12.44524v34.65128c-.46914,7.81349,6.08625,13.72948,12.36879,13.12655a11.485,11.485,0,0,0,6.95744-3.0886c2.35141-2.41741,3.39443-6.13131,3.0922-10.03795V228.13418a15.43687,15.43687,0,0,0-6.13634-12.31826l-54.15055-40.89547a11.60455,11.60455,0,0,0-6.99349-2.34356s-5.48742.53-8.01745,1.61486a60.82289,60.82289,0,0,0-15.922,9.96739,88.83511,88.83511,0,0,0-9.02407,8.43923,7.57626,7.57626,0,0,0-1.79488,4.94848c.0386,26.39264.07715,54.14207.11571,80.44326a7.71826,7.71826,0,0,1-2.7852,5.67257L230.241,320.97782a34.74675,34.74675,0,0,0-10.4778,14.89954Z"/>
        <path d="M297.19,320.05756l24.73758-17.75945,66.76744,101.908a16.49692,16.49692,0,0,1,2.74687,10.4397c-.63014,7.15374-5.02147,13.3654-10.76256,15.0571-3.55662,1.048-7.49613,1.26042-11.02215-.58468a17.68232,17.68232,0,0,1-6.5712-6.15505Z"/>
      </g>
      <g>
        <polygon points="106.527 447 143.527 389 175.473 389 159.827 447 106.527 447"/>
        <polygon points="476.473 447 439.473 389 407.527 389 423.173 447 476.473 447"/>
        <polygon points="266 447 277 389 309 389 319 447 266 447"/>
      </g>
    </g>
  </g>
</svg>
