<?xml version="1.0" encoding="UTF-8" standalone="no"?>
<svg
   xmlns:dc="http://purl.org/dc/elements/1.1/"
   xmlns:cc="http://creativecommons.org/ns#"
   xmlns:rdf="http://www.w3.org/1999/02/22-rdf-syntax-ns#"
   xmlns:svg="http://www.w3.org/2000/svg"
   xmlns="http://www.w3.org/2000/svg"
   xmlns:sodipodi="http://sodipodi.sourceforge.net/DTD/sodipodi-0.dtd"
   xmlns:inkscape="http://www.inkscape.org/namespaces/inkscape"
   inkscape:version="1.0 (4035a4fb49, 2020-05-01)"
   sodipodi:docname="Malaysia road sign RP13.svg"
   viewBox="0 0 439.48355 586.00025"
   height="586.00024"
   width="439.48355"
   id="svg833"
   version="1.1">
  <metadata
     id="metadata839">
    <rdf:RDF>
      <cc:Work
         rdf:about="">
        <dc:format>image/svg+xml</dc:format>
        <dc:type
           rdf:resource="http://purl.org/dc/dcmitype/StillImage" />
        <dc:title></dc:title>
      </cc:Work>
    </rdf:RDF>
  </metadata>
  <defs
     id="defs837" />
  <sodipodi:namedview
     inkscape:current-layer="g841"
     inkscape:window-maximized="1"
     inkscape:window-y="-9"
     inkscape:window-x="-9"
     inkscape:cy="217.92178"
     inkscape:cx="187.13131"
     inkscape:zoom="1.5862125"
     showgrid="false"
     id="namedview835"
     inkscape:window-height="1001"
     inkscape:window-width="1920"
     inkscape:pageshadow="2"
     inkscape:pageopacity="0"
     guidetolerance="10"
     gridtolerance="10"
     objecttolerance="10"
     borderopacity="1"
     bordercolor="#666666"
     pagecolor="#ffffff" />
  <g
     transform="translate(740.30862,15.612776)"
     id="g841"
     inkscape:label="Image"
     inkscape:groupmode="layer">
    <g
       style="opacity:1;stroke-width:1.21694;stroke-miterlimit:4;stroke-dasharray:none"
       transform="matrix(0.62470238,0,0,0.62433045,-733.06233,-9.0855534)"
       id="g1531">
      <path
         sodipodi:nodetypes="ccccccc"
         id="path1533"
         d="M 18.042969,-8.8535156 C -1.0878997,-8.8502643 -13.043689,11.858637 -3.4804688,28.427734 L 318.22852,585.64453 c 9.56825,16.5648 33.47862,16.5648 43.04687,0 L 682.98633,28.427734 c 9.56322,-16.569098 -2.39257,-37.278 -21.52344,-37.2812496 z"
         style="color:#000000;font-style:normal;font-variant:normal;font-weight:normal;font-stretch:normal;font-size:medium;line-height:normal;font-family:sans-serif;font-variant-ligatures:normal;font-variant-position:normal;font-variant-caps:normal;font-variant-numeric:normal;font-variant-alternates:normal;font-variant-east-asian:normal;font-feature-settings:normal;font-variation-settings:normal;text-indent:0;text-align:start;text-decoration:none;text-decoration-line:none;text-decoration-style:solid;text-decoration-color:#000000;letter-spacing:normal;word-spacing:normal;text-transform:none;writing-mode:lr-tb;direction:ltr;text-orientation:mixed;dominant-baseline:auto;baseline-shift:baseline;text-anchor:start;white-space:normal;shape-padding:0;shape-margin:0;inline-size:0;clip-rule:evenodd;display:inline;overflow:visible;visibility:visible;isolation:auto;mix-blend-mode:normal;color-interpolation:sRGB;color-interpolation-filters:linearRGB;solid-color:#000000;solid-opacity:1;vector-effect:none;fill:#ffffff;fill-opacity:1;fill-rule:evenodd;stroke:#000000;stroke-width:3.20248;stroke-linecap:butt;stroke-linejoin:round;stroke-miterlimit:4;stroke-dasharray:none;stroke-dashoffset:0;stroke-opacity:1;paint-order:stroke fill markers;color-rendering:auto;image-rendering:optimizeQuality;shape-rendering:geometricPrecision;text-rendering:geometricPrecision;enable-background:accumulate;stop-color:#000000;stop-opacity:1" />
      <path
         transform="matrix(1.3146348,0,0,1.3157054,-14.107228,-20.126019)"
         d="M 24.455078,27.457031 269.16992,450.96875 513.88281,27.457031 Z m 123.603512,69.875 H 390.75 L 269.4043,307.33789 Z"
         style="color:#000000;font-style:normal;font-variant:normal;font-weight:normal;font-stretch:normal;font-size:medium;line-height:normal;font-family:sans-serif;font-variant-ligatures:normal;font-variant-position:normal;font-variant-caps:normal;font-variant-numeric:normal;font-variant-alternates:normal;font-variant-east-asian:normal;font-feature-settings:normal;font-variation-settings:normal;text-indent:0;text-align:start;text-decoration:none;text-decoration-line:none;text-decoration-style:solid;text-decoration-color:#000000;letter-spacing:normal;word-spacing:normal;text-transform:none;writing-mode:lr-tb;direction:ltr;text-orientation:mixed;dominant-baseline:auto;baseline-shift:baseline;text-anchor:start;white-space:normal;shape-padding:0;shape-margin:0;inline-size:0;clip-rule:evenodd;display:inline;overflow:visible;visibility:visible;isolation:auto;mix-blend-mode:normal;color-interpolation:sRGB;color-interpolation-filters:linearRGB;solid-color:#000000;solid-opacity:1;vector-effect:none;fill:#c0111e;fill-opacity:1;fill-rule:evenodd;stroke:none;stroke-width:0.925311;stroke-linecap:butt;stroke-linejoin:round;stroke-miterlimit:4;stroke-dasharray:none;stroke-dashoffset:0;stroke-opacity:1;paint-order:stroke fill markers;color-rendering:auto;image-rendering:optimizeQuality;shape-rendering:geometricPrecision;text-rendering:geometricPrecision;enable-background:accumulate;stop-color:#000000;stop-opacity:1"
         id="path1535" />
    </g>
    <g
       transform="matrix(0.82125549,0,0,0.82143494,-741.87515,-35.65084)"
       style="opacity:1;stroke-width:1.21751"
       id="g1545">
      <g
         style="opacity:1;stroke-width:1.21751"
         id="g1551">
        <path
           sodipodi:nodetypes="ccccc"
           id="path1553"
           d="M 3.125,499.28125 V 736.5625 H 535.82617 V 499.28125 Z"
           style="color:#000000;font-style:normal;font-variant:normal;font-weight:normal;font-stretch:normal;font-size:medium;line-height:normal;font-family:sans-serif;font-variant-ligatures:normal;font-variant-position:normal;font-variant-caps:normal;font-variant-numeric:normal;font-variant-alternates:normal;font-variant-east-asian:normal;font-feature-settings:normal;font-variation-settings:normal;text-indent:0;text-align:start;text-decoration:none;text-decoration-line:none;text-decoration-style:solid;text-decoration-color:#000000;letter-spacing:normal;word-spacing:normal;text-transform:none;writing-mode:lr-tb;direction:ltr;text-orientation:mixed;dominant-baseline:auto;baseline-shift:baseline;text-anchor:start;white-space:normal;shape-padding:0;shape-margin:0;inline-size:0;clip-rule:nonzero;display:inline;overflow:visible;visibility:visible;isolation:auto;mix-blend-mode:normal;color-interpolation:sRGB;color-interpolation-filters:linearRGB;solid-color:#000000;solid-opacity:1;vector-effect:none;fill:#ffffff;fill-opacity:1;fill-rule:evenodd;stroke:#000000;stroke-width:2.43503;stroke-linecap:square;stroke-linejoin:miter;stroke-miterlimit:4;stroke-dasharray:none;stroke-dashoffset:0;stroke-opacity:1;paint-order:stroke fill markers;color-rendering:auto;image-rendering:auto;shape-rendering:auto;text-rendering:auto;enable-background:accumulate;stop-color:#000000;stop-opacity:1" />
        <path
           d="m 10.873047,507.0293 v 15.875 205.91015 H 528.07812 V 507.0293 Z m 15.873047,15.875 H 512.20508 V 712.94141 H 26.746094 Z m 153.167966,23.37695 v 58.09766 h 25.38867 c 6.66194,0 11.77454,-1.76249 15.33789,-5.28711 3.13731,-3.13731 4.70704,-7.18486 4.70704,-12.14258 0,-6.15841 -2.14995,-10.80605 -6.44922,-13.94336 2.55632,-2.51759 3.83398,-6.04256 3.83398,-10.57422 0,-5.46124 -1.85983,-9.54656 -5.57812,-12.25781 -3.56336,-2.59506 -7.64869,-3.89258 -12.25782,-3.89258 z m 59.48438,0 v 58.09766 h 40.14648 V 593.33984 H 250.4375 v -12.78125 h 23.87891 V 569.51953 H 250.4375 v -12.20117 h 27.94531 v -11.03711 z m 54.88086,0 v 58.09766 h 11.03906 v -23.5293 h 11.61914 l 11.50391,23.5293 h 11.61914 l -12.19922,-24.28516 c 3.4859,-0.85211 6.40882,-2.94442 8.77148,-6.27539 2.2852,-3.17604 3.42774,-6.60364 3.42774,-10.2832 0,-4.88026 -1.68499,-8.96558 -5.05469,-12.25782 -3.3697,-3.33096 -7.49475,-4.99609 -12.375,-4.99609 z m 59.83398,0 v 58.09766 h 11.61914 v -58.09766 z m -163.16016,11.03711 h 13.94336 c 4.53167,0 6.79688,1.97705 6.79688,5.92773 0,1.93661 -0.63785,3.46661 -1.91602,4.58985 -1.27816,1.12323 -2.90552,1.68359 -4.88086,1.68359 h -13.94336 z m 114.25,0 h 17.42774 c 1.78168,0 3.29378,0.60204 4.5332,1.80273 1.23944,1.2007 1.85938,2.69098 1.85938,4.47266 0,1.78168 -0.61994,3.27196 -1.85938,4.47266 -1.23942,1.16196 -2.75152,1.74414 -4.5332,1.74414 h -17.42774 z m -114.25,23.24023 h 14.34961 c 6.04222,0 9.06446,2.13009 9.06446,6.39063 0,4.26054 -3.02224,6.39062 -9.06446,6.39062 h -14.34961 z m -81.36718,49.54883 v 58.09961 h 37.64648 v -11.03906 h -26.60937 v -47.06055 z m 61.73242,0 -20.74024,58.09961 h 11.61915 l 4.18359,-11.96875 h 21.66992 l 4.41602,11.96875 h 11.61914 l -21.55469,-58.09961 z m 44.30078,0 v 58.09961 h 37.64648 v -11.03906 h -26.60937 v -47.06055 z m 46.2793,0 v 35.49805 c 0,6.35207 2.40034,11.73687 7.20312,16.15234 4.6866,4.29927 10.26415,6.44922 16.73242,6.44922 6.50701,0 12.12429,-2.20953 16.84961,-6.625 4.72533,-4.41547 7.08789,-9.81818 7.08789,-16.20898 v -35.20703 h -11.03906 v 35.20703 c 0,3.29223 -1.29752,6.08198 -3.89258,8.36718 -2.59506,2.2852 -5.59742,3.42774 -9.00586,3.42774 -3.36969,0 -6.33234,-1.12464 -8.88867,-3.37109 -2.67252,-2.36267 -4.00781,-5.17033 -4.00781,-8.42383 v -35.26563 z m 78.34179,0 L 319.5,688.20703 h 11.61914 l 4.18359,-11.96875 h 21.66993 l 4.41601,11.96875 h 11.61914 l -21.55469,-58.09961 z m 41.62891,0 v 58.09961 h 11.03711 v -38.69531 l 28.99219,38.69531 h 11.03906 v -58.09961 h -11.03906 v 39.2168 l -28.99219,-39.2168 z m -204.79883,15.2793 c 4.29927,12.08444 6.66183,18.70913 7.08789,19.87109 h -13.94336 c 3.05984,-8.71474 5.34491,-15.33942 6.85547,-19.87109 z m 168.92188,0 c 4.29926,12.08444 6.66183,18.70913 7.08789,19.87109 h -13.94336 c 3.05984,-8.71474 5.34491,-15.33942 6.85547,-19.87109 z"
           style="color:#000000;font-style:normal;font-variant:normal;font-weight:normal;font-stretch:normal;font-size:medium;line-height:normal;font-family:sans-serif;font-variant-ligatures:normal;font-variant-position:normal;font-variant-caps:normal;font-variant-numeric:normal;font-variant-alternates:normal;font-variant-east-asian:normal;font-feature-settings:normal;font-variation-settings:normal;text-indent:0;text-align:start;text-decoration:none;text-decoration-line:none;text-decoration-style:solid;text-decoration-color:#000000;letter-spacing:normal;word-spacing:normal;text-transform:none;writing-mode:lr-tb;direction:ltr;text-orientation:mixed;dominant-baseline:auto;baseline-shift:baseline;text-anchor:start;white-space:normal;shape-padding:0;shape-margin:0;inline-size:0;clip-rule:nonzero;display:inline;overflow:visible;visibility:visible;isolation:auto;mix-blend-mode:normal;color-interpolation:sRGB;color-interpolation-filters:linearRGB;solid-color:#000000;solid-opacity:1;vector-effect:none;fill:#c0111e;fill-opacity:1;fill-rule:evenodd;stroke:none;stroke-width:18.8667;stroke-linecap:square;stroke-linejoin:miter;stroke-miterlimit:4;stroke-dasharray:none;stroke-dashoffset:0;stroke-opacity:1;paint-order:stroke fill markers;color-rendering:auto;image-rendering:auto;shape-rendering:auto;text-rendering:auto;enable-background:accumulate;stop-color:#000000;stop-opacity:1"
           id="path1555" />
      </g>
      <g
         style="font-size:87.1474px;line-height:0.96;font-family:'Singapore Road Signs';-inkscape-font-specification:'Singapore Road Signs';text-align:center;letter-spacing:-1.11px;text-anchor:middle;stroke-width:1.21751"
         id="text1560"
         aria-label="BERI
LALUAN" />
    </g>
  </g>
</svg>
