<?xml version="1.0" encoding="UTF-8" standalone="no"?>
<!-- Created with Inkscape (http://www.inkscape.org/) -->

<svg
   xmlns:dc="http://purl.org/dc/elements/1.1/"
   xmlns:cc="http://creativecommons.org/ns#"
   xmlns:rdf="http://www.w3.org/1999/02/22-rdf-syntax-ns#"
   xmlns:svg="http://www.w3.org/2000/svg"
   xmlns="http://www.w3.org/2000/svg"
   xmlns:sodipodi="http://sodipodi.sourceforge.net/DTD/sodipodi-0.dtd"
   xmlns:inkscape="http://www.inkscape.org/namespaces/inkscape"
   width="400"
   height="200"
   id="svg6446"
   version="1.1"
   inkscape:version="0.48.2 r9819"
   sodipodi:docname="Wegschild Montenegro M-1.svg">
  <defs
     id="defs6448" />
  <sodipodi:namedview
     id="base"
     pagecolor="#ffffff"
     bordercolor="#666666"
     borderopacity="1.0"
     inkscape:pageopacity="0.0"
     inkscape:pageshadow="2"
     inkscape:zoom="0.35"
     inkscape:cx="375"
     inkscape:cy="520"
     inkscape:document-units="px"
     inkscape:current-layer="layer1"
     showgrid="false"
     inkscape:window-width="667"
     inkscape:window-height="690"
     inkscape:window-x="683"
     inkscape:window-y="0"
     inkscape:window-maximized="0" />
  <metadata
     id="metadata6451">
    <rdf:RDF>
      <cc:Work
         rdf:about="">
        <dc:format>image/svg+xml</dc:format>
        <dc:type
           rdf:resource="http://purl.org/dc/dcmitype/StillImage" />
        <dc:title></dc:title>
      </cc:Work>
    </rdf:RDF>
  </metadata>
  <g
     inkscape:label="Layer 1"
     inkscape:groupmode="layer"
     id="layer1"
     transform="translate(0,-852.36218)">
    <g
       transform="translate(3145.6048,1557.3469)"
       id="g7912">
      <rect
         rx="14.852341"
         ry="14.700139"
         y="-700.05939"
         x="-3140.6794"
         height="190.14931"
         width="390.14929"
         id="rect2985-9-8"
         style="fill:#0066cc;fill-opacity:1;fill-rule:evenodd;stroke:#ffffff;stroke-width:9.85069561;stroke-linecap:butt;stroke-linejoin:miter;stroke-opacity:1" />
      <g
         transform="translate(0,16.938782)"
         id="text2987-6-2"
         style="font-size:176.42498779px;font-style:normal;font-variant:normal;font-weight:normal;font-stretch:normal;line-height:125%;letter-spacing:0px;word-spacing:0px;fill:#ffffff;fill-opacity:1;stroke:#ffffff;font-family:Snv Becker;-inkscape-font-specification:Snv Becker">
        <path
           style="fill:#ffffff;stroke:#ffffff"
           id="path4794"
           d="m -3099.2013,-561.92352 0,-117.58795 25.9297,0 26.3603,82.01006 25.1544,-82.01006 24.7236,0 0,117.58795 -21.5363,0 0,-62.71357 -19.2964,62.71357 -20.5887,0 -21.1917,-65.21178 0,65.21178 z"
           inkscape:connector-curvature="0" />
        <path
           style="fill:#ffffff;stroke:#ffffff"
           id="path4796"
           d="m -2907.7009,-626.35999 0,19.55491 -50.3949,0 0,-19.55491 z"
           inkscape:connector-curvature="0" />
        <path
           style="fill:#ffffff;stroke:#ffffff"
           id="path4798"
           d="m -2839.4741,-581.47844 47.4659,0 0,19.55492 -78.0474,0 0,-19.55492 49.6196,-49.1888 c 3.2734,-3.21601 4.9102,-7.23611 4.9102,-12.06031 0,-5.16861 -1.3784,-9.47586 -4.1349,-12.92175 -3.5033,-4.42201 -7.9829,-6.63306 -13.4387,-6.63316 -5.3984,10e-5 -9.878,2.32601 -13.4386,6.97774 -2.5269,3.2736 -3.7904,6.83426 -3.7904,10.68198 l 0,4.04882 -22.3115,0 c 0.3446,-10.22245 2.9576,-18.60723 7.8392,-25.15434 7.9827,-10.79673 18.4063,-16.19515 31.2706,-16.19527 11.8305,1.2e-4 21.5075,4.13508 29.0309,12.40489 7.0638,7.69572 10.5957,16.94194 10.5958,27.73869 -10e-5,10.16518 -4.0776,19.29654 -12.2326,27.39411 z"
           inkscape:connector-curvature="0" />
      </g>
    </g>
  </g>
</svg>
