<?xml version="1.0" encoding="utf-8"?>
<!-- Generator: Adobe Illustrator 19.0.0, SVG Export Plug-In . SVG Version: 6.00 Build 0)  -->
<svg version="1.1" id="レイヤー_1" xmlns="http://www.w3.org/2000/svg" xmlns:xlink="http://www.w3.org/1999/xlink" x="0px"
	 y="0px" viewBox="-329 199.4 300 162.6" style="enable-background:new -329 199.4 300 162.6;" xml:space="preserve">
<style type="text/css">
	.st0{fill:#E50012;}
</style>
<path class="st0" d="M-329,264.3h40.8V314c0,11.1,27.8,11.5,34.1,11.5c6.3,0,41.6-0.4,41.6-14.5V199.4H-61c27.1,0,32,38.7,32,48.6
	c0,9.5-4.5,52-29.7,52h-15.8l45.5,57.3h-51.1l-74-92.9h76.8c8.9,0,9.3-12.2,9.3-14.8s-0.4-13.4-8.9-13.4h-95.4v82.4
	c0,36.4-57.2,43.4-78.7,43.4c-29.7,0-78-10-78-40.8V264.3"/>
</svg>
