<svg version="1.1" xmlns="http://www.w3.org/2000/svg" viewBox="0 0 182 307" role="img" aria-label="ダイヤマーク（横断歩道予告）">
<path fill="#2b2b2b" stroke="none" d="
M94.057220,283.928680 
	C93.537315,284.799377 93.154381,285.332977 92.372536,286.422363 
	C88.076340,277.792023 83.865753,269.584839 79.975845,261.228363 
	C79.438904,260.074860 80.211845,258.056183 80.847145,256.649841 
	C95.895424,223.337463 110.946327,190.025803 126.206322,156.810272 
	C127.696976,153.565643 127.630753,151.161789 126.131660,148.038605 
	C116.703346,128.395889 107.539581,108.626228 98.120735,88.978897 
	C96.677124,85.967583 96.699020,83.499832 98.094406,80.533508 
	C102.041969,72.141762 105.728737,63.627354 109.952995,54.190006 
	C111.853874,57.771023 113.409340,60.555950 114.833389,63.406532 
	C129.025665,91.815979 143.139069,120.265129 157.452194,148.613480 
	C159.070312,151.818298 158.928955,154.240982 157.362961,157.356857 
	C136.233429,199.398270 115.229340,241.502716 94.057220,283.928680 
z"/>
<path fill="#2b2b2b" stroke="none" d="
M95.446106,24.677069 
	C97.249710,28.266201 98.455498,31.838562 100.546425,34.782188 
	C105.209305,41.346638 104.627983,47.267757 101.259773,54.504745 
	C86.596207,86.011139 72.545815,117.803619 58.426022,149.560364 
	C57.691521,151.212311 57.727348,153.789734 58.488388,155.434921 
	C67.707901,175.365280 77.047707,195.241623 86.585876,215.021271 
	C88.133575,218.230789 88.149979,220.801666 86.676033,223.934677 
	C82.592751,232.614014 78.768158,241.415054 74.550079,250.817200 
	C63.728817,229.151871 53.259350,208.174377 42.773849,187.204880 
	C37.639362,176.936646 32.361317,166.737396 27.433151,156.371475 
	C26.583742,154.584824 26.359964,151.720367 27.200569,150.024689 
	C48.552650,106.953445 70.084908,63.971523 91.594292,20.978302 
	C91.813171,20.540821 92.147644,20.161171 92.664246,19.412220 
	C93.599464,21.207197 94.424713,22.791092 95.446106,24.677069 
z"/>
</svg>
