<svg version="1.1" xmlns="http://www.w3.org/2000/svg" viewBox="0 0 311 541" role="img" aria-label="ダイヤマーク（横断歩道予告）">
<path fill="#2b2b2b" opacity="1.000000" stroke="none" 
	d="
M171.487854,492.577759 
	C167.158157,501.228821 162.996582,509.546875 158.342041,518.850220 
	C155.997009,514.427429 154.023560,510.875610 152.205826,507.245789 
	C146.316849,495.486359 140.589706,483.644257 134.559250,471.958344 
	C133.004791,468.946045 133.163254,466.517609 134.528442,463.562225 
	C162.028748,404.027832 189.105026,344.293396 217.188538,285.036133 
	C222.725357,273.353241 223.456146,264.349487 217.454102,252.447983 
	C199.394653,216.637680 182.847321,180.063553 165.853012,143.720581 
	C164.911774,141.707718 164.347015,138.698410 165.154053,136.816238 
	C172.633118,119.373764 180.448471,102.075424 188.189178,84.745499 
	C188.448761,84.164330 188.951843,83.691925 189.759201,82.607864 
	C194.886200,92.762047 199.852112,102.510254 204.742020,112.296417 
	C229.893600,162.632080 254.982193,212.999329 280.246277,263.278412 
	C282.288574,267.342896 282.637054,270.493195 280.484344,274.777466 
	C244.091034,347.207703 207.895370,419.737213 171.487854,492.577759 
z"/>
<path fill="#2b2b2b" opacity="1.000000" stroke="none" 
	d="
M159.241577,125.259720 
	C137.461014,171.524323 115.888702,217.469696 94.151138,263.336761 
	C92.414581,267.000946 92.342621,269.904419 94.091209,273.579559 
	C113.035385,313.396240 131.771881,353.311768 150.710464,393.131104 
	C152.284790,396.441193 152.492050,399.142914 150.963806,402.493500 
	C143.575562,418.691742 136.404541,434.988983 129.132385,451.240326 
	C128.550232,452.541229 127.784866,453.760193 126.641014,455.873932 
	C121.370979,445.428711 116.498390,435.843903 111.689247,426.227356 
	C86.673965,376.205658 61.743656,326.141205 36.562862,276.203003 
	C34.062923,271.245148 34.018089,267.383850 36.521282,262.402161 
	C75.971817,183.890854 115.226158,105.280960 154.537964,26.699905 
	C155.552017,24.672871 156.706497,22.716070 158.176041,20.031284 
	C159.329773,21.967283 160.132416,23.140432 160.763412,24.399586 
	C167.772934,38.386925 174.884689,52.326244 181.609726,66.449532 
	C182.640533,68.614319 182.713287,72.010994 181.772003,74.215874 
	C174.519623,91.203827 166.907806,108.038322 159.241577,125.259720 
z"/>
</svg>
