<svg version="1.1" xmlns="http://www.w3.org/2000/svg" viewBox="0 0 208 320" role="img" aria-label="ダイヤマーク（横断歩道予告）">
<path fill="#FDFDFD" stroke="none" d="M118.469383,242.870789 C113.627525,252.613892 108.785667,262.356995 103.884651,272.219177 C100.846718,270.537262 100.381653,268.085632 99.391472,266.083893 C85.958244,238.927673 72.597984,211.735352 59.209255,184.557098 C55.551502,177.132095 48.420040,174.873001 40.477097,178.617981 C40.115807,180.218323 41.015625,181.505783 41.671543,182.815369 C60.831333,221.068939 80.001328,259.317444 99.212616,297.545135 C100.142647,299.395782 100.617996,302.171234 103.193527,302.181244 C105.791191,302.191376 106.215042,299.402954 107.145866,297.549652 C120.969177,270.026886 134.757095,242.486313 148.540878,214.943695 C153.756088,204.522720 158.970566,194.101089 164.107697,183.641617 C165.003967,181.816803 166.665863,179.714432 163.925522,177.967117 C159.611099,175.216156 150.493698,177.968491 148.193878,182.635345 C138.406784,202.495636 128.606735,222.349548 118.469383,242.870789 M137.241699,108.132141 C126.373863,86.482582 115.506035,64.833015 104.689262,43.285175 C100.180969,44.616913 99.479218,47.801716 98.187416,50.369289 C83.290108,79.979073 68.455360,109.620338 53.606419,139.254456 C49.651360,147.147598 45.686512,155.035919 41.765724,162.946060 C40.693848,165.108551 39.546528,167.382858 43.128815,168.459244 C50.147118,170.568039 55.292995,168.364548 58.531734,161.782333 C72.356575,133.685577 86.157852,105.577217 100.012146,77.494995 C100.842094,75.812714 101.162567,73.581520 103.634392,73.052071 C105.561302,75.012192 106.463860,77.555130 107.625168,79.913933 C121.012459,107.105583 134.494064,134.252487 147.600494,161.579224 C150.099380,166.789383 152.936905,169.254257 158.924118,168.756607 C165.942474,168.173233 166.813370,167.382721 163.700653,161.100113 C155.049240,143.638489 146.302368,126.224167 137.241699,108.132141 z"/>
</svg>
