<svg version="1.1" xmlns="http://www.w3.org/2000/svg" viewBox="0 0 272 448" role="img" aria-label="ダイヤマーク（横断歩道予告）">
<path fill="#FDFDFD" stroke="none" d="M122.182304,60.590637 C95.220673,114.481613 68.320076,168.403351 41.193287,222.211075 C38.756527,227.044556 38.763630,230.867828 41.172062,235.650879 C72.322525,297.514313 103.297119,359.466339 134.345306,421.381348 C135.130798,422.947723 135.502167,424.916992 137.504257,425.637573 C139.196396,425.049805 139.455292,423.434937 140.101578,422.143066 C171.475342,359.433228 202.796997,296.697174 234.300858,234.052780 C236.274536,230.128174 236.066437,227.176163 234.177475,223.411362 C208.190414,171.618164 182.349365,119.751709 156.448730,67.915092 C151.759384,58.529984 147.053146,49.150681 142.148193,39.877930 C141.049850,37.801517 140.265839,34.745251 137.309570,34.640724 C134.137344,34.528557 133.729980,37.827374 132.633316,39.861042 C129.079102,46.452057 125.832634,53.209030 122.182304,60.590637 zM166.698456,149.438660 C178.986130,174.985367 191.068130,200.214310 203.276566,225.381927 C204.206833,227.299713 204.101395,228.675171 203.234070,230.474274 C182.410461,273.668488 161.640686,316.888672 140.838486,360.093201 C139.988022,361.859558 138.917130,363.519775 137.970276,365.191742 C135.471237,364.523254 135.203125,362.509308 134.454117,360.949188 C113.626671,317.567963 92.844406,274.165009 71.965019,230.808807 C70.906197,228.610153 70.882996,226.898773 71.921394,224.740738 C92.933533,181.072342 113.881668,137.373138 134.866135,93.691399 C135.424240,92.529655 136.244614,91.493904 137.694290,89.220924 C147.587418,109.770386 157.055969,129.437943 166.698456,149.438660 z"/>
</svg>
