<?xml version="1.0" encoding="UTF-8" standalone="no"?>
<!-- Created with Inkscape (http://www.inkscape.org/) -->

<svg
   xmlns:dc="http://purl.org/dc/elements/1.1/"
   xmlns:cc="http://creativecommons.org/ns#"
   xmlns:rdf="http://www.w3.org/1999/02/22-rdf-syntax-ns#"
   xmlns:svg="http://www.w3.org/2000/svg"
   xmlns="http://www.w3.org/2000/svg"
   xmlns:sodipodi="http://sodipodi.sourceforge.net/DTD/sodipodi-0.dtd"
   xmlns:inkscape="http://www.inkscape.org/namespaces/inkscape"
   width="91.599998cm"
   height="91.599998cm"
   viewBox="0 0 9159.9998 9159.9991"
   version="1.1"
   id="svg831"
   inkscape:version="0.92.2 (5c3e80d, 2017-08-06)"
   sodipodi:docname="99.svg">
  <defs
     id="defs825" />
  <sodipodi:namedview
     id="base"
     pagecolor="#ffffff"
     bordercolor="#666666"
     borderopacity="1.0"
     inkscape:pageopacity="0.0"
     inkscape:pageshadow="2"
     inkscape:zoom="0.098549056"
     inkscape:cx="1340.0351"
     inkscape:cy="163.51587"
     inkscape:document-units="cm"
     inkscape:current-layer="layer1"
     showgrid="false"
     units="cm"
     scale-x="1e-005"
     inkscape:window-width="1920"
     inkscape:window-height="1057"
     inkscape:window-x="-8"
     inkscape:window-y="-8"
     inkscape:window-maximized="1"
     fit-margin-top="0"
     fit-margin-left="0"
     fit-margin-right="0"
     fit-margin-bottom="0"
     inkscape:snap-global="false" />
  <metadata
     id="metadata828">
    <rdf:RDF>
      <cc:Work
         rdf:about="">
        <dc:format>image/svg+xml</dc:format>
        <dc:type
           rdf:resource="http://purl.org/dc/dcmitype/StillImage" />
        <dc:title></dc:title>
      </cc:Work>
    </rdf:RDF>
  </metadata>
  <g
     inkscape:label="Layer 1"
     inkscape:groupmode="layer"
     id="layer1"
     transform="translate(-1079.9998,9369.9864)">
    <path
       sodipodi:nodetypes="ccccccccc"
       inkscape:connector-curvature="0"
       id="path97769"
       d="M 1099.9998,-2901.1748 3771.1859,-229.98709 H 7548.8137 L 10220.001,-2901.1748 V -6678.7997 L 7548.8147,-9349.9869 H 3771.1879 l -2671.1871,2671.1862 z"
       style="fill:#000000;fill-opacity:1;stroke:none;stroke-width:9.00000095" />
    <path
       sodipodi:nodetypes="ccccccccc"
       inkscape:connector-curvature="0"
       id="path97771"
       d="M 7523.9597,-289.98729 10160,-2926.0258 V -6653.9477 L 7523.9597,-9289.9879 H 3796.0399 l -2636.0401,2636.0392 v 3727.9209 l 2636.0391,2636.03881 z"
       style="fill:#ffffff;fill-opacity:1;stroke:none;stroke-width:9" />
    <path
       style="fill:#af1e2d;fill-opacity:1;stroke:none;stroke-width:9"
       d="M 9560.0007,-6405.4187 7275.4337,-8689.9869 H 4044.5679 l -2284.5691,2284.5682 v 3230.8639 l 2284.5691,2284.56791 h 3230.8648 l 2284.567,-2284.56691 z"
       id="path97773"
       inkscape:connector-curvature="0"
       sodipodi:nodetypes="ccccccccc" />
    <path
       d="m 7402.5815,-3389.9743 -32.0064,-2.3713 -32.0074,-6.5198 -32.0063,-10.6681 -31.415,-14.2262 -29.6361,-17.1877 -28.4503,-20.7471 -26.08,-23.7064 -23.1163,-26.0822 -19.5592,-27.8569 -15.4108,-29.6349 -6.5208,-15.4129 -4.7406,-16.0032 -3.5571,-16.0032 -2.3704,-16.5944 v -4.1505 l -0.5933,-1.778 -1.778,-1797.1289 1.778,-44.4535 2.3714,-42.0853 4.1494,-40.8986 4.7406,-39.1194 5.9285,-37.3415 7.7043,-35.5634 8.2988,-33.7843 9.4835,-32.5986 10.6691,-31.4162 11.2614,-29.6349 13.0395,-27.857 13.6329,-26.6722 14.2251,-25.4877 15.4109,-23.7097 16.5965,-23.1162 17.1888,-21.3383 18.3746,-20.1504 18.9669,-18.969 20.1525,-17.7812 20.7449,-17.1888 21.3383,-15.4099 21.9305,-14.8184 23.1164,-13.6318 48.0105,-24.303 50.9743,-20.745 52.7512,-17.7811 55.1236,-14.2252 57.494,-11.8538 59.2721,-9.4844 61.05,-7.1132 62.2357,-5.334 64.0148,-4.1505 64.6061,-2.9626 65.7917,-1.1847 132.7702,-1.778 65.7917,1.1847 64.0137,2.3713 62.2358,2.9638 60.4577,5.334 58.6796,6.5187 56.9017,8.8911 54.5302,10.0779 52.7513,13.0384 50.9742,14.8185 48.0106,17.7823 46.2325,20.1536 43.8612,23.1152 40.8975,26.0789 38.527,29.636 36.1558,32.0063 33.1931,36.1569 30.8217,39.7138 14.2251,21.3372 13.0396,22.5229 13.0394,23.1162 11.8548,24.301 11.2614,24.8943 10.0769,26.6722 10.0757,27.2658 8.8911,28.4502 7.7055,29.6361 7.112,30.8216 6.5208,32.0074 5.9263,33.1909 4.7428,34.3789 1.778,17.7823 1.1846,8.891 v 1.778 h -0.5922 v 1884.2591 l -0.5924,4.1494 -2.9636,16.0042 -10.0768,30.8217 -13.0395,30.2294 -17.1889,28.4503 -19.5603,26.0789 -23.1162,24.3009 -24.8944,21.3372 -27.2645,18.3756 -29.0437,15.4098 -30.2283,11.856 -30.8218,7.7043 -31.4139,4.1493 h -32.0074 l -31.414,-3.556 -32.0074,-8.2976 -32.0063,-11.856 -30.8218,-16.0032 -29.0436,-18.9668 -27.2646,-21.3372 -24.8943,-24.8943 -21.3383,-26.6724 -17.7822,-29.0447 -7.7043,-14.8164 -5.9276,-15.4119 -4.7416,-16.0042 -4.1494,-16.0032 -2.3704,-16.5943 v -5.9286 l -0.5934,-1.778 -1.1856,-1858.1801 h -0.5924 l -0.5922,-1.778 v -8.2967 l -1.7792,-15.4129 -4.1482,-29.6349 -5.9274,-26.6724 -8.2978,-24.8942 -10.0768,-21.9316 -11.8538,-20.1516 -13.6328,-18.3745 -15.4109,-16.0043 -16.5966,-14.8185 -17.7812,-12.4472 -19.5602,-11.2604 -20.1526,-9.4844 -21.9305,-8.2967 -22.5229,-6.5219 -23.1163,-5.9252 -24.8942,-4.1506 -50.382,-6.5186 -53.3446,-3.556 -54.5303,-1.1878 -55.1225,0.5944 -110.8397,0.5934 -55.1226,1.778 -53.3457,4.1472 -25.4866,4.1494 -24.8942,4.7418 -23.7087,6.5219 -23.1163,8.2967 -21.9305,9.4844 -20.1526,12.4472 -18.9668,13.6318 -17.1889,16.5965 -16.0043,19.5603 -13.6317,21.9284 -12.4472,24.3041 -9.4845,28.4503 -8.2977,31.413 -5.334,34.3787 -2.9638,38.5261 -0.5933,20.7449 0.5933,21.9316 0.5924,22.5218 0.5934,11.857 0.5922,5.9252 -0.5922,1123.2075 h 0.5922 l 1.1858,-1.778 26.6723,-29.6383 41.4908,-50.9731 20.1526,-27.2657 19.5592,-27.8569 18.3745,-29.0448 18.3745,-30.8195 17.1889,-32.0074 16.0032,-33.1942 15.4108,-34.3755 13.6328,-36.1568 6.5198,-18.3757 3.556,-9.4813 0.5934,-4.1504 -1.778,-2.3714 -17.1888,-15.4098 -16.0044,-17.1879 -14.225,-17.7822 -13.6329,-18.969 -11.8549,-20.1504 -10.668,-20.747 -9.4835,-21.3383 -7.113,-22.5218 -6.5198,-22.5229 -4.1494,-23.7097 -2.9637,-24.3009 -1.1847,-24.3031 v -4.7405 l 0.5924,-5.9285 v -11.2604 l 2.3714,-21.9317 3.556,-21.3372 4.7418,-21.3382 5.9274,-20.1536 7.7054,-20.1505 8.2977,-19.5602 10.0769,-18.3746 11.2603,-17.7822 11.8548,-17.1878 13.0406,-16.5976 14.2252,-15.4098 14.8174,-14.8186 16.0042,-13.6317 16.5966,-12.447 17.7812,-11.8558 17.7811,-10.0758 18.9668,-9.4845 19.5604,-8.2967 20.7448,-7.113 20.746,-5.3341 21.3371,-4.1505 21.3383,-2.9626 22.524,-1.778 21.9305,0.5933 20.745,1.1847 20.7448,2.9626 20.1526,4.1505 19.5603,5.3341 18.9668,6.5186 18.3746,7.7064 17.7812,8.8912 17.1888,9.4845 16.5965,11.2593 30.8218,24.8941 27.858,28.4514 24.8942,31.4161 21.3383,34.3756 17.7812,37.3414 13.6328,39.1194 10.668,40.3074 1.7792,10.669 0.5922,5.334 0.5934,2.9627 0.5924,4.7406 1.778,18.9691 0.5934,20.1515 -0.5934,20.747 -1.778,21.3372 -2.9638,22.5229 -3.556,23.1163 -11.2625,48.6039 -14.8175,50.3798 -17.7811,52.7533 -21.3382,54.5304 -24.302,55.7159 -26.6724,56.3084 -29.0436,57.4939 -30.2283,57.4929 -32.5998,58.0885 -33.192,56.9005 -69.3489,112.6157 -35.5634,53.9391 -34.971,52.7511 -34.9701,50.9754 -34.3776,48.0106 -33.1921,45.6391 -31.414,42.0821 -30.2294,39.1194 -28.4503,35.5635 -13.0405,16.0031 -13.0395,15.413 -23.7086,27.8569 -21.9306,26.079 -21.3382,25.4876 -20.7449,23.7096 -18.9679,22.523 -18.3735,21.3371 -17.7823,19.5603 -17.1889,18.9658 -16.5965,17.7822 -16.0031,16.0032 -16.0032,15.413 -30.8217,26.6723 -30.2294,21.9284 -31.414,17.7823 -32.0064,13.6338 -17.1898,4.7407 -17.7812,4.1505 -18.3746,3.556 -18.9669,1.778 -20.1526,1.1846 h -12.447"
       style="fill:#ffffff;fill-opacity:1;stroke:none;stroke-width:1.48166645;stroke-linecap:round;stroke-linejoin:round;stroke-miterlimit:10;stroke-dasharray:none;stroke-opacity:1"
       id="path249097"
       inkscape:connector-curvature="0"
       sodipodi:nodetypes="ccccccccccccccccccccccccccccccccccccccccccccccccccccccccccccccccccccccccccccccccccccccccccccccccccccccccccccccccccccccccccccccccccccccccccccccccccccccccccccccccccccccccccccccccccccccccccccccccccccccccccccccccccccccccccccccccccccccccccccccccccccccccccccccccccccccccccccccccccccccccccccccccc" />
    <path
       d="m 6122.0778,-5940.4537 1.778,-16.0042 2.3704,-15.4097 9.4834,-30.2284 13.0405,-28.4514 16.5955,-27.2656 19.5602,-25.4855 23.1163,-23.7098 24.8943,-21.3371 27.2646,-18.3757 27.858,-15.4097 29.6371,-12.4472 30.2283,-8.8911 30.2282,-5.334 29.6361,-1.1847 30.2294,2.9627 29.636,6.5186 29.636,10.0779 27.858,13.0385 27.2646,16.5976 24.8943,18.9658 23.7086,21.3382 21.3382,23.7096 18.9669,25.4878 16.0042,27.2635 12.4471,29.0436 9.4835,29.6361 3.556,15.4119 0.5934,3.556 v 2034.2192 l -1.1857,30.2283 -1.7791,29.6349 -2.9626,27.8569 -4.1494,26.6734 -4.1494,26.0811 -5.9263,24.3008 -6.5209,23.7097 -7.112,22.5229 -8.2988,21.9317 -8.8901,20.1504 -9.4834,19.5591 -10.6692,18.3757 -11.2624,17.7822 -12.4461,16.5966 -26.6734,30.8195 -29.0437,27.2668 -32.5987,24.2998 -34.971,20.747 -37.3414,18.3735 -40.3051,16.0032 -42.0832,13.6339 -44.4535,11.2604 -46.8248,8.8911 -49.1963,7.7054 -50.382,5.9286 -52.7522,4.1471 -54.5293,3.556 -55.7159,1.778 -56.9017,1.1879 -58.6797,1.1846 h -227.0112 l -103.1343,-1.778 -103.7265,-4.7416 -51.5666,-4.1495 -50.9742,-5.3351 -49.7885,-7.7054 -49.1953,-8.8911 -48.0106,-11.8538 -46.2325,-13.6317 -44.4534,-16.5966 -42.6766,-18.9669 -40.3051,-22.5251 -38.5271,-25.4843 -35.5624,-29.0448 -16.5965,-16.0032 -16.0042,-16.5976 -14.8175,-17.7812 -14.8174,-18.9668 -13.633,-20.1526 -12.447,-20.7449 -11.8548,-21.9316 -11.2616,-23.1163 -10.0768,-24.3009 -8.89,-25.4876 -8.2988,-27.2637 -7.1121,-27.859 -5.9274,-29.0415 -5.3351,-30.8228 -3.556,-31.4129 -2.9637,-33.1942 -1.778,-34.97 -0.5923,-522.7801 1.778,-48.604 4.1494,-46.2325 6.5197,-43.86 10.6691,-40.8986 6.5198,-19.5592 7.7054,-18.9669 8.89,-18.3746 10.0768,-17.7822 11.8549,-17.1877 12.4471,-16.5966 14.2252,-15.4098 16.0032,-14.8196 17.1888,-14.2251 18.9669,-13.6318 20.746,-13.0405 21.9306,-11.8538 24.3008,-11.8558 26.6734,-10.6692 27.858,-10.0758 4.1483,-1.1846 1.778,-0.5934 h -0.5923 l -4.1494,-1.778 -41.4909,-14.8185 -32.0063,-13.6318 -30.2283,-15.4098 -29.0437,-16.5976 -27.2656,-17.7812 -24.8943,-18.9668 -21.9306,-20.1536 -19.5592,-21.9306 -16.5966,-23.1163 -13.0394,-24.301 -9.4845,-26.0788 -5.334,-26.6723 -1.1857,-7.1131 7.7054,-618.2086 4.1494,-30.8195 4.7417,-30.2294 5.9274,-29.6371 7.7055,-29.0416 8.2977,-27.8601 10.0757,-27.2635 11.2626,-26.0811 13.0394,-24.8943 14.2252,-23.7075 15.4108,-22.525 17.1889,-20.7449 18.9679,-20.1525 20.7449,-18.3725 21.9306,-16.5975 24.302,-14.8186 25.4866,-13.6318 27.8579,-11.2625 29.0438,-9.4824 31.414,-7.7065 33.7854,-5.334 34.97,-3.556 37.9337,-1.1847 27.2657,1.1847 26.6723,2.9626 26.08,4.1494 26.0789,6.5198 24.8954,8.2999 24.3008,9.4813 23.7097,11.2624 23.1152,12.4472 21.9316,13.6318 21.3372,15.413 20.7449,16.0031 18.968,17.7812 18.3734,18.3735 17.19,18.9679 16.5954,20.7449 14.8186,20.7438 13.6318,21.9317 12.4471,22.5229 11.2625,22.525 9.4834,23.7074 8.2978,23.7098 6.5197,24.3008 5.3351,24.303 3.5561,24.301 1.778,24.8943 v 24.8942 l -0.5924,23.7097 -2.3714,23.7064 -2.9626,22.5261 -3.5571,21.9285 -11.2614,42.0853 -14.8186,39.1195 -17.7812,36.1535 -21.9306,33.7854 -24.3018,30.8228 -27.8581,27.8569 -30.2283,24.8942 -32.5997,21.9318 -35.5634,19.5591 -37.3415,16.5977 -19.5602,7.113 -2.3704,0.5902 -1.1856,0.5934 v 13.0416 l -0.5924,11.2593 v 45.6402 l -0.5933,32.0074 v 24.8943 l -0.5923,8.2966 v 4.7418 l 0.5923,1.1868 0.5933,5.9252 1.778,7.7066 2.3704,8.891 3.5571,10.0747 4.7417,11.2626 5.9263,12.4471 6.5209,13.0414 7.7054,13.0373 8.8911,14.2251 9.4834,14.2263 11.2615,14.8185 12.4471,14.8185 13.6328,14.8165 14.8176,14.225 16.0031,14.2263 17.7823,13.6339 18.9668,13.0384 20.1525,12.4472 21.9306,11.2624 23.1164,10.6692 24.3019,9.4845 26.6723,8.2967 27.858,6.5187 29.0426,4.7437 31.4151,3.5561 7.7043,0.5912 h 8.8912 l 6.5197,0.5934 10.6691,2.3725 9.4834,3.556 7.1132,5.3352 4.7417,5.9252 3.556,6.5218 0.5934,7.7033 -1.1857,7.1121 -3.5572,6.5219 -5.9262,6.5197 -8.2988,4.7407 -10.6681,4.1494 -13.0405,2.3724 -31.4141,3.556 -29.636,4.1473 -27.2656,5.9285 -26.0789,6.5186 -24.302,7.1121 -23.1162,8.3009 -20.745,8.89 -20.1526,9.4824 -18.3745,10.6681 -16.5965,10.6692 -16.0032,11.2624 -14.2251,11.8538 -25.4878,25.4876 -21.3371,26.6734 -18.3746,27.2658 -14.8185,27.8568 -12.4472,27.8569 -10.0757,27.2668 -4.7418,13.6307 -2.3713,6.5219 -0.5923,1.779 v 622.3572 l 0.5923,8.2967 1.778,16.0043 2.9637,15.4097 5.3351,14.8186 6.5197,14.2252 7.7054,14.2251 9.4835,13.0416 10.6691,12.4471 11.8549,11.8527 13.6318,11.2625 14.225,10.6692 15.4109,9.4823 33.7854,18.3746 36.7491,15.4097 39.7118,12.4472 42.0831,10.0789 43.8623,7.1121 45.0468,4.1472 45.6392,1.778 46.2315,-1.778 45.0478,-4.1472 43.8612,-7.1121 42.6755,-10.6691 40.3051,-13.635 37.3414,-16.5943 17.7823,-9.4846 16.5955,-10.0747 16.0042,-11.2625 14.8174,-11.8537 13.6329,-13.0406 12.4471,-13.0415 11.2615,-14.8153 10.0768,-14.8196 8.2978,-16.5966 7.1131,-16.5944 5.334,-17.7823 4.1483,-18.3745 2.3714,-19.5603 0.5934,-10.0758 v -1935.8277"
       style="fill:#ffffff;fill-opacity:1;stroke:none;stroke-width:1.48166645;stroke-linecap:round;stroke-linejoin:round;stroke-miterlimit:10;stroke-dasharray:none;stroke-opacity:1"
       id="path261911"
       inkscape:connector-curvature="0"
       sodipodi:nodetypes="cccccccccccccccccccccccccccccccccccccccccccccccccccccccccccccccccccccccccccccccccccccccccccccccccccccccccccccccccccccccccccccccccccccccccccccccccccccccccccccccccccccccccccccccccccccccccccccccccccccccccccccccccccccccccccccccccccccccccccccccccccccccccccccccccccccccccccccccccccccccccccccccccccccccccccccccc" />
    <path
       d="m 3988.5084,-6189.9878 24.7888,0.5913 23.6095,1.7705 23.6084,4.1289 23.6095,4.7245 22.4282,6.4907 22.4281,7.0829 21.2477,8.8535 21.2489,10.0327 20.0664,11.215 19.4774,12.3955 18.8882,12.9856 17.7058,14.7539 17.1167,15.3473 16.5265,15.9353 15.3452,17.1157 14.1659,18.2981 12.9846,18.8861 12.3943,19.4773 11.2141,20.0685 10.0348,21.2479 8.2622,21.2478 7.6731,22.4281 6.4928,22.427 4.7212,23.6106 3.5421,23.6095 1.7705,24.1975 1.1802,24.1986 -0.5901,15.3474 -2.3606,31.2815 -4.7223,30.6925 -7.083,29.51 -9.4436,28.9219 -11.214,27.7396 -13.5747,26.5592 -15.3462,25.9691 -16.5255,24.2007 -18.8872,23.0194 -20.0675,21.2477 -21.838,20.0654 -23.0193,18.2981 -12.3943,8.8534 -5.9027,4.1322 -3.541,1.7704 -1.1803,1.1804 1.1803,1.1793 24.7887,23.6095 22.4293,24.7897 19.4773,26.5604 16.5255,27.7395 14.1659,28.9209 11.8042,30.1001 9.4436,31.2816 7.6731,31.2837 5.9015,32.4597 4.7224,32.4627 2.9508,33.052 2.9508,65.515 v 21.8391 1345.1153 43.0868 l -0.5891,2.3617 -4.7223,28.3308 -8.8535,27.7395 -11.8041,26.5603 -15.3464,25.38 -17.1167,23.6074 -20.0663,21.839 -21.8391,19.4773 -23.6084,17.7069 -25.38,15.3451 -26.5592,12.3944 -27.1504,9.4446 -27.7407,6.4918 -28.3307,2.9529 -28.3308,-0.5912 -28.9209,-4.1333 -28.921,-7.0818 -28.3306,-10.6239 -27.7407,-13.5747 -27.1493,-16.5266 -25.38,-18.296 -23.6085,-21.2477 -21.2489,-23.0183 -18.8861,-24.2008 -15.3462,-26.5602 -12.3944,-27.1483 -8.2633,-28.922 -2.9507,-14.7561 -0.5913,-7.083 -0.5901,-1.7704 v -1415.9428 -33.6422 h -0.5902 l -1.1802,1.1793 -2.3607,1.7705 -4.1311,3.542 -18.2971,14.7561 -68.4657,61.3828 -64.3347,62.5641 -60.7925,63.7434 -56.0714,64.9238 -52.5294,65.5149 -48.9884,66.1062 -45.4474,66.6931 -41.9055,66.6974 -38.3645,66.103 -35.4137,66.1062 -32.4619,65.5139 -28.9209,64.9237 -27.1505,63.7444 -23.6084,61.9732 -21.8379,60.7936 -18.8873,59.0232 -17.1167,57.2495 -14.756,54.8912 -12.9845,52.5315 -11.214,49.5785 -9.4437,46.6257 -7.6731,43.6781 -6.4928,40.7262 -4.7212,36.5918 -4.1323,32.464 -2.9507,28.9188 -0.5902,12.9856 -0.5901,2.3617 -0.5902,1.7705 -0.5902,3.542 -9.4435,24.7888 -11.8042,24.7897 -14.1659,23.0184 -16.5255,21.8368 -18.2971,20.0686 -19.4773,18.8861 -21.839,17.1177 -22.4281,14.754 -23.6085,12.3944 -24.7898,10.6239 -25.3789,7.6742 -25.9702,5.3125 -25.9701,2.3616 -27.7395,-1.1824 -28.9209,-4.1301 -28.3308,-8.2654 -28.921,-10.6239 -27.7404,-14.1648 -26.5604,-15.9364 -25.3799,-19.4773 -23.0183,-20.6566 -20.6576,-23.6095 -18.2971,-24.7899 -15.3451,-25.969 -11.2152,-27.7395 -7.672,-28.921 -2.3618,-14.7571 -0.5901,-3.541 v -37.1842 -1682.1312 -25.9691 l -0.5901,-1.1793 h -1.1803 l -9.4437,-3.542 -18.2969,-7.0829 -36.0028,-15.3473 -33.6433,-18.8861 -31.8717,-20.6566 -28.921,-23.6095 -27.1504,-25.969 -24.1986,-28.9221 -21.2478,-30.6925 -18.297,-33.6431 -15.3462,-36.592 -11.8043,-38.3645 -8.2632,-41.3163 -4.1322,-43.0869 -1.1803,-23.0182 0.5913,-23.0194 1.7704,-23.0183 2.9508,-23.0183 4.7212,-22.4281 5.9027,-22.4271 7.6731,-21.839 8.2633,-21.839 10.0337,-20.6577 11.214,-20.6566 12.3945,-20.0685 13.5746,-18.886 14.7561,-18.8894 15.3462,-17.7058 16.5255,-17.1156 17.7069,-15.9364 18.297,-15.3451 19.4773,-14.165 20.0675,-12.9855 20.6577,-12.3955 21.8379,-10.6239 22.4292,-10.0327 22.4281,-8.2643 23.6095,-7.083 24.1986,-5.9004 24.7888,-4.1323 24.7898,-2.9507 25.38,-1.1825 h 25.3789 l 25.38,1.7716 25.3798,2.9529 24.1987,4.7202 24.1986,5.3125 23.0193,7.0829 23.0183,8.2623 22.4281,9.4435 21.2488,10.0338 20.6578,11.8053 20.0674,12.9834 19.4774,13.5769 18.2969,14.7539 17.7059,15.9363 16.5265,16.5266 15.9364,17.7069 14.1648,18.2981 13.5758,19.4773 12.3944,20.0653 11.8042,21.2479 10.0337,21.839 8.8534,21.8391 7.083,23.6072 6.4917,23.6096 4.7224,24.1985 3.5409,24.7899 1.7716,25.38 0.589,6.4917 v 1137.9484 8.2621 l 0.5913,-1.1792 3.541,-9.4447 7.673,-19.4772 15.3452,-37.7755 33.0531,-75.5466 36.594,-73.7771 39.5438,-72.0088 43.0869,-70.8275 46.6277,-69.0559 50.1687,-66.6942 53.7097,-64.3344 57.2517,-61.3817 61.3827,-59.6113 31.8728,-28.3307 32.4619,-27.7417 33.6433,-27.1483 34.8224,-25.9723 36.0039,-25.3779 36.593,-24.7887 42.4967,-26.5603 1.1803,-0.5912 h -0.5902 v -0.5913 l -6.4928,-6.4906 -15.3451,-17.1156 -14.756,-17.7068 -13.5747,-18.8894 -12.9857,-19.4773 -11.2141,-20.6566 -10.0336,-21.2478 -9.4437,-21.2478 -7.6731,-22.4281 -6.4917,-23.0183 -5.3125,-23.6106 -3.5409,-23.6095 -2.3607,-24.7887 -1.1802,-24.7899 v -4.7212 l 0.5901,-5.9027 v -12.3943 l 2.3606,-24.1986 3.5409,-23.6095 4.7224,-23.6074 5.9015,-22.4302 7.6732,-22.4271 8.8534,-21.2479 9.4436,-21.2488 11.214,-20.0685 12.3945,-20.0653 12.9855,-18.8894 14.1648,-17.7058 15.3463,-17.1156 15.9353,-16.5277 17.1167,-15.3451 17.7068,-14.1648 18.8872,-13.5747 19.4774,-12.3944 20.0675,-11.2152 21.2478,-10.0327 21.2477,-8.8534 22.4282,-7.6741 22.4292,-5.9027 23.0183,-5.3125 24.1996,-3.5409 23.6084,-2.3585 24.7899,-0.5913 h 1.1803"
       style="fill:#ffffff;fill-opacity:1;stroke:none;stroke-width:1.48166645;stroke-linecap:round;stroke-linejoin:round;stroke-miterlimit:10;stroke-dasharray:none;stroke-opacity:1"
       id="path275137"
       inkscape:connector-curvature="0"
       sodipodi:nodetypes="cccccccccccccccccccccccccccccccccccccccccccccccccccccccccccccccccccccccccccccccccccccccccccccccccccccccccccccccccccccccccccccccccccccccccccccccccccccccccccccccccccccccccccccccccccccccccccccccccccccccccccccccccccccccccccccccccccccccccccccccccccccccccccccccccccccccccccccccccccccccccccccccccccccccccccc" />
    <path
       d="m 6110.5151,-2358.076 -39.2251,-12.8509 -37.1946,-16.2297 -34.4904,-20.2885 -32.4621,-22.992 -29.0808,-27.0524 -25.6981,-29.756 -22.3179,-33.1389 -18.9354,-36.5188 -14.2029,-38.5488 -10.1442,-41.9283 -3.3814,-22.3179 -2.7044,-22.994 -0.677,-22.995 0.677,-24.346 2.0282,-23.6689 4.0576,-23.6689 5.4107,-22.9949 6.7629,-22.9952 8.7922,-22.9916 10.1442,-21.6429 12.1725,-21.6397 12.8497,-20.2886 14.2018,-20.2884 15.5549,-18.9375 16.9072,-18.2595 17.5832,-16.905 18.9354,-16.2312 19.6125,-14.2017 20.9647,-13.5279 21.6417,-12.1735 22.3168,-10.818 22.994,-8.7934 24.346,-7.4381 24.3461,-6.0866 25.0232,-4.0574 25.6981,-2.0283 h 25.6994 l 25.6982,2.0283 25.0232,3.3802 25.0221,4.7358 23.67,6.7609 23.6701,8.1149 22.3178,10.1442 21.6407,10.8215 21.6407,12.8506 19.6126,13.5246 19.6125,15.5542 18.2592,16.2299 17.5844,17.5864 16.23,18.2593 14.8789,19.6113 13.5257,20.2885 12.8486,21.6399 11.4975,21.6428 10.1442,22.9918 8.7912,23.6721 7.44,24.3461 5.4096,25.021 4.0574,25.0231 1.3533,12.8509 0.6761,6.7608 v 1.3542 h 0.676 v 547.1132 l -0.676,2.0294 -0.6761,4.0575 -6.0868,33.1391 -10.1443,31.1068 -13.5256,29.759 -16.9072,27.7263 -19.6125,25.0234 -21.6409,22.3178 -24.346,19.6113 -27.0513,16.2303 -28.4036,12.8517 -30.434,8.116 -31.1089,4.7314 h -8.115 l -4.0576,0.6772 h -11.4974 l -24.3461,-2.0283 -31.109,-6.764 -29.0795,-10.1441 -27.0515,-14.2041 -25.0232,-17.582 -22.9939,-20.9656 -19.6125,-23.6691 -16.9061,-26.3754 -12.8496,-28.4036 -9.4682,-30.4328 -5.4109,-32.4621 -1.352,-16.23 z"
       style="fill:#ffffff;stroke:none;stroke-width:1.48166645;stroke-linecap:round;stroke-linejoin:round;stroke-miterlimit:10;stroke-dasharray:none;stroke-opacity:1"
       id="path287398"
       inkscape:connector-curvature="0" />
    <circle
       style="opacity:1;fill:#af1e2d;fill-opacity:1;fill-rule:nonzero;stroke:none;stroke-width:0.80000007;stroke-linecap:square;stroke-linejoin:miter;stroke-miterlimit:10;stroke-dasharray:none;stroke-opacity:1"
       id="path288083"
       cx="3987.5093"
       cy="-5787.2866"
       r="91.499992" />
  </g>
</svg>
