<svg xmlns="http://www.w3.org/2000/svg" width="900" height="600" viewBox="-150 -100 300 200" fill="#023491">
<path d="M-150-100h300v200H-150z"/>
<circle r="54" fill="none" stroke-width="12" stroke="#fff"/>
<path d="M-3-65h6V65h-6z"/>
<path d="M-48.78175 31A83.138439 83.138439 0 0 1 30-49.465474v11.15582A72 72 0 0 0-37.637205 31zM8-43.205829A100.987489 100.987489 0 0 1 50-3.942647v30.238044A89.525895 89.525895 0 0 0 0-34.325766zM-26.548074-10A48 48 0 0 0 38 32.367778v12.087495A59.487056 59.487056 0 0 1-36.745757 0zM-10-31.99344a83.65438 83.65438 0 0 1 52.669194 53.978432A81.966818 81.966818 0 0 1-15 32.582624V21.103015a70.712281 70.712281 0 0 0 43.851058-4.54418A72.709319 72.709319 0 0 0-15-22.119812zm40 52.411789A58.669919 58.669919 0 0 1-26.753593-20h11.363463A48 48 0 0 0 30 9.746565zM10-15.388188A54.656483 54.656483 0 0 0-17.44133 16h-12.43524A66.552437 66.552437 0 0 1 0-23.461602zM-13.550501 30A48 48 0 0 1 20-12.254231V.539895A35.991156 35.991156 0 0 0-1.497337 30z" fill="#fff"/>
</svg>
