<svg xmlns="http://www.w3.org/2000/svg" width="600" height="300">
<path fill="#d00" d="M0 0h600v300H0z"/>
<path fill="#093" d="M0 112.5h600v75H0z"/>
<path fill="gold" d="m75 14.8-1 2.8-2.3 7.5H60.9l2.4 1.8 6.3 4.5-2.4 7.4-1 3 2.5-1.9 6.3-4.5 6.3 4.5 2.5 1.8-1-2.9-2.4-7.4 6.3-4.5 2.5-1.8H78.4l-2.5-7.5zm0 6.4 1.7 5.2.2.6h6.2l-4.4 3.2-.6.5.2.7 1.7 5.2-4.4-3.3-.6-.4-.6.4-4.4 3.3 1.7-5.2.2-.7-.6-.5L67 27H73l.2-.6 1.7-5.2z"/>
<path fill="gold" d="M62.2 56 48.6 69l7.2 7.2 6.3-6.3 33.5 34c3.2 3.4 8.9-1.2 5.3-5.1-12.5-12.2-21.1-21-34-33.6l7.6-7.8z"/>
<path fill="gold" d="M61.7 92.3c24.3 22.6 63.7-18 13.4-47.5 37.4 41.6 1.5 54.3-11.6 41.5l-.6-.6-1.6 1.8c-1-1-2.6-1.2-3 .4-2-.1-3.2 1-3.7 3-3.7 2.5-7.7 4.6-10 8.5-1.3 4 1.3 5.8 4.2 5.5 4.8-2 6.3-6.4 8.9-10 1.8-.5 3.3-1.3 3.6-3"/>
</svg>