<?xml version="1.0" encoding="UTF-8" standalone="no"?>
<svg
   xmlns:dc="http://purl.org/dc/elements/1.1/"
   xmlns:cc="http://creativecommons.org/ns#"
   xmlns:rdf="http://www.w3.org/1999/02/22-rdf-syntax-ns#"
   xmlns:svg="http://www.w3.org/2000/svg"
   xmlns="http://www.w3.org/2000/svg"
   viewBox="0 0 2251 1676.5004"
   height="1676.5004"
   width="2251"
   xml:space="preserve"
   version="1.1"
   id="svg6649"><metadata
     id="metadata6655"><rdf:RDF><cc:Work
         rdf:about=""><dc:format>image/svg+xml</dc:format><dc:type
           rdf:resource="http://purl.org/dc/dcmitype/StillImage" /><dc:title></dc:title></cc:Work></rdf:RDF></metadata><defs
     id="defs6653" /><g
     transform="matrix(1.25,0,0,-1.25,0,1676.5004)"
     id="g6657"><g
       id="g6659"><path
         id="path6661"
         style="fill:#f0c900;fill-opacity:1;fill-rule:nonzero;stroke:none"
         d="m 72.398,480.001 c -39.765,0 -72,-32.234 -72,-72 l 0,-336 c 0,-39.766 32.235,-72 72,-72 l 1656,0 c 39.766,0 72,32.234 72,72 l 0,336 c 0,39.766 -32.234,72 -72,72 l -1656,0 z" /><path
         id="path6663"
         style="fill:#000000;fill-opacity:1;fill-rule:nonzero;stroke:none"
         d="m 72.398,460.001 c -28.718,0 -52,-23.281 -52,-52 l 0,-336 c 0,-28.719 23.282,-52 52,-52 l 1656,0 c 28.719,0 52,23.281 52,52 l 0,336 c 0,28.719 -23.281,52 -52,52 l -1656,0 z" /><path
         id="path6665"
         style="fill:#f0c900;fill-opacity:1;fill-rule:nonzero;stroke:none"
         d="m 72.398,432.001 c -13.253,0 -24,-10.746 -24,-24 l 0,-336 c 0,-13.254 10.747,-24 24,-24 l 1656,0 c 13.254,0 24,10.746 24,24 l 0,336 c 0,13.254 -10.746,24 -24,24 l -1656,0 z" /><path
         id="path6667"
         style="fill:#000000;fill-opacity:1;fill-rule:nonzero;stroke:none"
         d="m 302.324,239.985 0,-23.16 -134.804,0 92.804,-92.707 -58,0 -116,115.867 116,115.899 58,0 -92.804,-92.707 134.804,0" /><path
         id="path6669"
         style="fill:#000000;fill-opacity:1;fill-rule:nonzero;stroke:none"
         d="m 367.133,185.716 178.961,0 c 6.008,0 10.871,4.863 10.871,10.867 l 0,86.856 c 0,6.007 -4.863,10.839 -10.871,10.839 l -178.961,0 c -5.969,0 -10.836,-4.828 -10.836,-10.839 l 0,-86.856 c 0,-6.004 4.863,-10.867 10.836,-10.867 z m 0,-8.145 c -10.473,0 -18.988,8.512 -18.988,19.016 l 0,86.856 c 0,10.507 8.519,18.988 18.988,18.988 l 178.961,0 c 10.476,0 18.992,-8.481 18.992,-18.988 l 0,-86.856 c 0,-10.504 -8.516,-19.016 -18.992,-19.016" /><path
         id="path6671"
         style="fill:#000000;fill-opacity:1;fill-rule:nonzero;stroke:none"
         d="m 396.57,202.298 10.805,0 0,75.406 -10.805,0 -10.695,-7.84 0,-11.437 10.695,7.836 0,-63.965 z" /><path
         id="path6673"
         style="fill:#000000;fill-opacity:1;fill-rule:nonzero;stroke:none"
         d="m 456.52,224.009 c 0,-3.602 -0.954,-6.426 -2.86,-8.473 -1.906,-2.047 -4.484,-3.07 -7.734,-3.07 -3.246,0 -5.824,1.023 -7.731,3.07 -1.906,2.047 -2.859,4.871 -2.859,8.473 l 0,31.984 c 0,3.598 0.953,6.422 2.859,8.473 1.907,2.047 4.485,3.07 7.731,3.07 3.25,0 5.828,-1.023 7.734,-3.07 1.906,-2.051 2.86,-4.875 2.86,-8.473 l 0,-31.984 z m -31.985,-0.637 c 0,-3.387 0.563,-6.426 1.695,-9.109 1.2,-2.68 2.79,-4.977 4.766,-6.883 2.047,-1.906 4.34,-3.352 6.883,-4.34 2.543,-0.918 5.223,-1.379 8.047,-1.379 2.824,0 5.508,0.461 8.051,1.379 2.613,0.988 4.906,2.399 6.882,4.235 1.977,1.906 3.532,4.203 4.661,6.882 1.199,2.754 1.8,5.828 1.8,9.215 l 0,33.254 c 0,3.391 -0.566,6.426 -1.695,9.109 -1.129,2.684 -2.719,4.977 -4.766,6.883 -2.046,1.907 -4.339,3.321 -6.882,4.239 -2.543,0.988 -5.227,1.48 -8.051,1.48 -2.824,0 -5.539,-0.492 -8.153,-1.48 -2.543,-0.918 -4.8,-2.332 -6.777,-4.239 -1.976,-1.836 -3.566,-4.129 -4.766,-6.883 -1.132,-2.683 -1.695,-5.718 -1.695,-9.109 l 0,-33.254 z" /><path
         id="path6675"
         style="fill:#000000;fill-opacity:1;fill-rule:nonzero;stroke:none"
         d="m 479.066,213.525 31.454,0 0,-11.227 10.8,0 0,11.227 6.039,0 0,10.164 -6.039,0 0,21.711 -10.8,0 0,-21.711 -19.7,0 25.524,54.015 -12.074,0 -25.204,-54.015 0,-10.164 z" /><path
         id="path6677"
         style="fill:#000000;fill-opacity:1;fill-rule:nonzero;stroke:none"
         d="m 1582.414,275.271 0,57.156 11.406,0 0,-6.445 c 6.676,8.253 18.813,9.562 27.102,2.867 1.308,-1.051 2.453,-2.231 3.433,-3.598 7.465,9.184 20.969,10.547 30.122,3.051 4.953,-4.067 7.843,-10.164 7.843,-16.582 l 0,-36.442 -11.406,0 0,35.012 c 0,6.293 -5.117,11.406 -11.406,11.406 -6.324,0 -11.442,-5.117 -11.442,-11.406 l 0,-35.012 -11.402,0 0,35.012 c 0,6.293 -5.117,11.406 -11.406,11.406 -6.32,0 -11.442,-5.117 -11.442,-11.406 l 0,-35.012 -11.402,-0.007 z m -59.918,0 0,80 11.402,0 0,-49.973 22.118,27.129 13.562,0 -19.25,-22.141 22.11,-35.015 -14.293,0 -14.965,26.437 -9.282,-10.012 0,-16.425" /><path
         id="path6679"
         style="fill:#000000;fill-opacity:1;fill-rule:nonzero;stroke:none"
         d="m 619,272.068 70.977,0 0,15.91 -54.129,0 0,95.152 -16.848,0 0,-111.062 z" /><path
         id="path6681"
         style="fill:#000000;fill-opacity:1;fill-rule:nonzero;stroke:none"
         d="m 735.66,363.478 16.848,0 0,16.847 -16.848,0 0,-16.847 z m -27.453,0 16.848,0 0,16.847 -16.848,0 0,-16.847 z m -8.578,-64.891 c 0,-4.266 0.726,-8.164 2.184,-11.699 1.558,-3.434 3.636,-6.344 6.238,-8.738 2.601,-2.286 5.461,-4.055 8.578,-5.301 3.226,-1.145 6.398,-1.719 9.516,-1.719 8.632,0 15.445,3.121 20.437,9.359 l 0.309,0 0,-8.421 15.914,0 0,79.085 -15.914,0 0,-47.109 c 0,-5.301 -1.453,-9.461 -4.368,-12.476 -2.91,-3.016 -6.656,-4.524 -11.23,-4.524 -4.574,0 -8.371,1.508 -11.387,4.524 -2.91,3.015 -4.367,7.175 -4.367,12.476 l 0,47.109 -15.91,0 0,-52.566 z" /><path
         id="path6683"
         style="fill:#000000;fill-opacity:1;fill-rule:nonzero;stroke:none"
         d="m 780.211,272.068 15.91,0 0,8.269 c 2.602,-2.809 5.668,-5.047 9.203,-6.711 3.535,-1.664 7.281,-2.496 11.231,-2.496 4.578,0 8.633,0.938 12.168,2.809 3.64,1.871 6.656,4.367 9.047,7.488 1.144,1.457 2.027,2.91 2.652,4.367 0.726,1.563 1.301,3.434 1.715,5.617 0.519,2.184 0.832,4.836 0.937,7.953 0.207,3.227 0.313,7.332 0.313,12.325 0,4.992 -0.106,9.046 -0.313,12.168 -0.105,3.222 -0.363,5.875 -0.781,7.953 -0.414,2.187 -0.988,4.004 -1.715,5.461 -0.726,1.558 -1.664,3.066 -2.808,4.523 -2.391,3.121 -5.407,5.617 -9.047,7.488 -3.535,1.871 -7.59,2.809 -12.168,2.809 -3.848,0 -7.434,-0.832 -10.762,-2.496 -3.223,-1.559 -6.449,-3.848 -9.672,-6.863 l 0,40.398 -15.91,0 0,-111.062 z m 31.508,64.113 c 3.539,0 6.398,-0.676 8.582,-2.031 2.183,-1.247 3.742,-3.016 4.679,-5.301 1.04,-2.289 1.715,-4.785 2.028,-7.489 0.312,-2.703 0.469,-5.929 0.469,-9.671 0,-3.848 -0.157,-7.125 -0.469,-9.829 -0.313,-2.703 -0.988,-5.199 -2.028,-7.484 -0.937,-2.187 -2.496,-3.953 -4.679,-5.305 -2.184,-1.351 -5.043,-2.027 -8.582,-2.027 -3.535,0 -6.395,0.676 -8.578,2.027 -2.078,1.454 -3.641,3.329 -4.68,5.614 -0.938,2.394 -1.559,4.89 -1.871,7.488 -0.313,2.703 -0.469,5.875 -0.469,9.516 0,3.64 0.156,6.761 0.469,9.359 0.312,2.703 0.933,5.199 1.871,7.488 1.039,2.289 2.602,4.106 4.68,5.461 2.183,1.453 5.043,2.184 8.578,2.184 z" /><path
         id="path6685"
         style="fill:#000000;fill-opacity:1;fill-rule:nonzero;stroke:none"
         d="m 920.957,305.607 0,13.101 c 0,4.992 -0.887,9.516 -2.652,13.57 -1.664,4.161 -4.004,7.696 -7.02,10.61 -3.015,3.015 -6.5,5.301 -10.453,6.863 -3.949,1.559 -8.109,2.34 -12.477,2.34 -4.058,0 -8.007,-0.731 -11.855,-2.184 -3.848,-1.457 -7.332,-3.797 -10.453,-7.019 -3.121,-3.121 -5.617,-7.332 -7.488,-12.637 -1.871,-5.305 -2.805,-11.594 -2.805,-18.875 0,-7.797 0.984,-14.351 2.961,-19.652 2.082,-5.199 4.785,-9.309 8.113,-12.324 3.43,-3.016 7.176,-5.149 11.231,-6.395 4.16,-1.25 8.421,-1.875 12.789,-1.875 5.511,0 10.715,1.043 15.601,3.121 4.887,2.082 9.203,5.305 12.946,9.672 l -11.543,9.828 c -2.289,-2.394 -4.993,-4.266 -8.11,-5.617 -3.015,-1.352 -6.086,-2.027 -9.203,-2.027 -5.617,0 -10.191,1.664 -13.73,4.992 -3.43,3.429 -5.145,8.265 -5.145,14.508 l 49.293,0 z m -49.293,13.101 c 0.207,5.824 1.82,10.348 4.836,13.57 3.117,3.227 7.07,4.836 11.855,4.836 4.782,0 8.68,-1.609 11.7,-4.836 3.117,-3.222 4.781,-7.746 4.988,-13.57 l -33.379,0 z" /><path
         id="path6687"
         style="fill:#000000;fill-opacity:1;fill-rule:nonzero;stroke:none"
         d="m 982.531,295.31 c -2.082,-2.496 -4.523,-4.524 -7.332,-6.082 -2.703,-1.457 -5.617,-2.184 -8.734,-2.184 -6.656,0 -11.754,1.973 -15.289,5.926 -3.535,4.055 -5.301,10.242 -5.301,18.562 0,8.426 1.766,14.614 5.301,18.563 3.535,4.055 8.633,6.086 15.289,6.086 3.117,0 6.031,-0.781 8.734,-2.34 2.809,-1.457 5.25,-3.434 7.332,-5.93 l 11.699,10.453 c -3.64,4.262 -7.851,7.59 -12.636,9.981 -4.781,2.496 -10.035,3.746 -15.754,3.746 -4.68,0 -9.152,-0.781 -13.414,-2.34 -4.266,-1.562 -8.113,-4.004 -11.543,-7.332 -3.434,-3.223 -6.137,-7.437 -8.113,-12.637 -1.872,-5.199 -2.809,-11.281 -2.809,-18.25 0,-6.968 0.988,-13.05 2.965,-18.25 1.976,-5.097 4.629,-9.308 7.957,-12.636 3.328,-3.223 7.121,-5.614 11.387,-7.176 4.367,-1.559 8.89,-2.34 13.57,-2.34 5.719,0 10.973,1.199 15.754,3.59 4.785,2.496 8.996,5.875 12.636,10.14 l -11.699,10.45 z" /><path
         id="path6689"
         style="fill:#000000;fill-opacity:1;fill-rule:nonzero;stroke:none"
         d="m 1003.605,272.068 15.911,0 0,22.773 12.48,14.195 21.059,-36.968 19.965,0 -31.043,48.199 27.3,30.886 -19.031,0 -30.418,-37.125 -0.312,0 0,69.102 -15.911,0 0,-111.062 z" /><path
         id="path6691"
         style="fill:#000000;fill-opacity:1;fill-rule:nonzero;stroke:none"
         d="m 1339.438,288.603 46.328,0 0,-16.535 15.914,0 0,16.535 8.89,0 0,14.976 -8.89,0 0,31.977 -15.914,0 0,-31.977 -29.012,0 37.594,79.551 -17.785,0 -37.125,-79.551 0,-14.976 z" /><path
         id="path6693"
         style="fill:#000000;fill-opacity:1;fill-rule:nonzero;stroke:none"
         d="m 1468.75,304.044 c 0,-5.301 -1.402,-9.461 -4.211,-12.476 -2.809,-3.016 -6.605,-4.524 -11.387,-4.524 -4.785,0 -8.578,1.508 -11.386,4.524 -2.809,3.015 -4.211,7.175 -4.211,12.476 l 0,47.109 c 0,5.305 1.402,9.465 4.211,12.481 2.808,3.016 6.601,4.523 11.386,4.523 4.782,0 8.578,-1.507 11.387,-4.523 2.809,-3.016 4.211,-7.176 4.211,-12.481 l 0,-47.109 z m -47.109,-0.934 c 0,-4.992 0.832,-9.464 2.496,-13.414 1.769,-3.953 4.109,-7.332 7.019,-10.14 3.016,-2.809 6.399,-4.942 10.141,-6.395 3.742,-1.351 7.695,-2.031 11.855,-2.031 4.161,0 8.11,0.68 11.856,2.031 3.847,1.453 7.226,3.535 10.137,6.239 2.914,2.808 5.203,6.187 6.863,10.14 1.769,4.055 2.652,8.578 2.652,13.57 l 0,48.981 c 0,4.992 -0.832,9.461 -2.496,13.414 -1.664,3.953 -4.004,7.332 -7.019,10.141 -3.016,2.804 -6.395,4.886 -10.137,6.238 -3.746,1.457 -7.695,2.184 -11.856,2.184 -4.16,0 -8.164,-0.727 -12.011,-2.184 -3.743,-1.352 -7.071,-3.434 -9.985,-6.238 -2.91,-2.703 -5.25,-6.086 -7.019,-10.141 -1.664,-3.953 -2.496,-8.422 -2.496,-13.414 l 0,-48.981 z" /><path
         id="path6695"
         style="fill:#000000;fill-opacity:1;fill-rule:nonzero;stroke:none"
         d="m 658.777,142.185 22.621,0 0,-5.774 c 0,-6.863 -2.183,-12.531 -6.554,-17 -4.367,-4.367 -9.774,-6.551 -16.223,-6.551 -3.742,0 -7.07,0.727 -9.98,2.184 -2.914,1.559 -5.305,3.535 -7.176,5.926 -1.25,1.558 -2.238,2.965 -2.965,4.211 -0.625,1.351 -1.145,3.07 -1.559,5.148 -0.418,2.184 -0.73,4.992 -0.937,8.422 -0.102,3.434 -0.156,8.008 -0.156,13.731 0,5.718 0.105,10.293 0.312,13.726 0.207,3.535 0.469,6.289 0.781,8.266 0.414,2.082 0.934,3.797 1.559,5.148 0.727,1.352 1.715,2.809 2.965,4.367 1.871,2.391 4.262,4.317 7.176,5.774 2.91,1.558 6.238,2.34 9.98,2.34 5.098,0 9.57,-1.563 13.418,-4.68 3.848,-3.016 6.445,-6.813 7.797,-11.391 l 17.785,0 c -0.832,4.578 -2.394,8.84 -4.68,12.793 -2.183,4.055 -4.992,7.59 -8.425,10.606 -3.328,3.015 -7.227,5.355 -11.7,7.019 -4.367,1.664 -9.097,2.496 -14.195,2.496 -8.109,0 -15.18,-1.972 -21.211,-5.925 -6.035,-3.848 -10.558,-8.528 -13.574,-14.039 -1.039,-1.872 -1.871,-3.536 -2.496,-4.993 -0.52,-1.457 -0.985,-3.429 -1.402,-5.925 -0.313,-2.395 -0.571,-5.618 -0.782,-9.672 -0.101,-3.953 -0.156,-9.258 -0.156,-15.91 0,-6.657 0.055,-12.012 0.156,-16.071 0.211,-4.054 0.469,-7.277 0.782,-9.668 0.417,-2.289 0.882,-4.215 1.402,-5.773 0.625,-1.457 1.457,-3.121 2.496,-4.992 3.016,-5.512 7.539,-10.243 13.574,-14.196 6.031,-3.847 13.102,-5.769 21.211,-5.769 5.41,0 10.504,0.988 15.289,2.961 4.887,2.082 9.153,4.941 12.789,8.582 3.641,3.64 6.449,7.851 8.426,12.633 2.078,4.785 3.117,9.879 3.117,15.289 l 0,22.617 -39.465,0 0,-15.91 z" /><path
         id="path6697"
         style="fill:#000000;fill-opacity:1;fill-rule:nonzero;stroke:none"
         d="m 754.691,96.946 15.911,0 0,53.973 c 0,9.258 -2.914,15.91 -8.735,19.969 -5.722,4.055 -13.781,6.082 -24.179,6.082 -6.137,0 -11.387,-0.938 -15.754,-2.809 -4.368,-1.765 -8.008,-4.679 -10.922,-8.734 l 12.48,-9.516 c 1.457,2.289 3.278,3.848 5.461,4.68 2.184,0.937 5.356,1.402 9.516,1.402 5.82,0 9.98,-0.777 12.476,-2.34 2.496,-1.453 3.746,-4.054 3.746,-7.796 l 0,-8.27 -21.996,0 c -8.109,0 -14.453,-2.234 -19.031,-6.707 -4.469,-4.473 -6.707,-10.035 -6.707,-16.691 0,-7.071 2.496,-12.895 7.488,-17.469 4.993,-4.473 11.805,-6.707 20.434,-6.707 5.305,0 9.465,0.621 12.48,1.871 3.016,1.246 5.356,3.277 7.02,6.082 l 0.312,0 0,-7.02 z m 0,27.766 c 0,-5.926 -1.195,-9.723 -3.589,-11.387 -2.391,-1.558 -7.122,-2.34 -14.196,-2.34 -5.093,0 -8.89,0.938 -11.386,2.809 -2.391,1.871 -3.586,4.266 -3.586,7.176 0,3.015 1.144,5.355 3.429,7.019 2.289,1.664 5.719,2.496 10.297,2.496 l 19.031,0 0,-5.773 z" /><path
         id="path6699"
         style="fill:#000000;fill-opacity:1;fill-rule:nonzero;stroke:none"
         d="m 832.055,96.946 15.914,0 0,111.067 -15.914,0 0,-40.403 c -3.223,3.016 -6.496,5.305 -9.825,6.864 -3.226,1.664 -6.761,2.496 -10.609,2.496 -4.574,0 -8.683,-0.938 -12.324,-2.809 -3.535,-1.871 -6.496,-4.367 -8.891,-7.488 -1.144,-1.453 -2.078,-2.961 -2.808,-4.523 -0.621,-1.454 -1.141,-3.274 -1.559,-5.457 -0.414,-2.184 -0.726,-4.836 -0.934,-7.958 -0.21,-3.121 -0.312,-7.175 -0.312,-12.167 0,-4.989 0.102,-9.098 0.312,-12.321 0.208,-3.226 0.465,-5.875 0.778,-7.957 0.418,-2.078 0.988,-3.898 1.715,-5.461 0.73,-1.558 1.664,-3.066 2.808,-4.523 2.395,-3.117 5.356,-5.613 8.891,-7.485 3.641,-1.875 7.75,-2.808 12.324,-2.808 3.953,0 7.695,0.832 11.231,2.496 3.535,1.664 6.605,3.898 9.203,6.707 l 0,-8.27 z m -15.598,64.114 c 3.535,0 6.344,-0.727 8.422,-2.184 2.187,-1.351 3.746,-3.172 4.68,-5.461 1.043,-2.289 1.718,-4.781 2.031,-7.488 0.308,-2.598 0.465,-5.719 0.465,-9.359 0,-3.637 -0.157,-6.809 -0.465,-9.516 -0.313,-2.703 -0.988,-5.199 -2.031,-7.484 -0.934,-2.29 -2.493,-4.161 -4.68,-5.618 -2.078,-1.351 -4.887,-2.027 -8.422,-2.027 -3.535,0 -6.394,0.676 -8.578,2.027 -2.184,1.352 -3.797,3.121 -4.836,5.305 -0.938,2.285 -1.559,4.781 -1.871,7.488 -0.313,2.703 -0.469,5.977 -0.469,9.825 0,3.746 0.156,6.968 0.469,9.671 0.312,2.704 0.933,5.2 1.871,7.489 1.039,2.289 2.652,4.054 4.836,5.304 2.184,1.352 5.043,2.028 8.578,2.028 z" /><path
         id="path6701"
         style="fill:#000000;fill-opacity:1;fill-rule:nonzero;stroke:none"
         d="m 928.734,130.485 0,13.102 c 0,4.992 -0.882,9.516 -2.648,13.574 -1.664,4.157 -4.004,7.696 -7.02,10.606 -3.015,3.015 -6.5,5.304 -10.453,6.863 -3.953,1.559 -8.109,2.34 -12.48,2.34 -4.055,0 -8.004,-0.727 -11.852,-2.184 -3.847,-1.457 -7.332,-3.797 -10.453,-7.019 -3.121,-3.121 -5.617,-7.332 -7.488,-12.637 -1.871,-5.301 -2.809,-11.594 -2.809,-18.871 0,-7.801 0.989,-14.352 2.965,-19.656 2.082,-5.2 4.785,-9.309 8.113,-12.325 3.43,-3.015 7.176,-5.148 11.231,-6.394 4.16,-1.25 8.422,-1.871 12.789,-1.871 5.512,0 10.711,1.039 15.601,3.117 4.887,2.082 9.204,5.305 12.946,9.672 l -11.543,9.828 c -2.289,-2.391 -4.992,-4.262 -8.11,-5.617 -3.015,-1.352 -6.085,-2.028 -9.203,-2.028 -5.617,0 -10.191,1.665 -13.73,4.993 -3.43,3.433 -5.145,8.269 -5.145,14.507 l 49.289,0 z m -49.289,13.102 c 0.207,5.824 1.821,10.348 4.836,13.574 3.117,3.223 7.071,4.832 11.852,4.832 4.785,0 8.683,-1.609 11.699,-4.832 3.121,-3.226 4.785,-7.75 4.992,-13.574 l -33.379,0 z" /><path
         id="path6703"
         style="fill:#000000;fill-opacity:1;fill-rule:nonzero;stroke:none"
         d="m 942.227,96.946 15.91,0 0,8.27 c 2.601,-2.809 5.668,-5.043 9.203,-6.707 3.539,-1.664 7.281,-2.496 11.234,-2.496 4.574,0 8.629,0.933 12.164,2.808 3.641,1.872 6.657,4.368 9.047,7.485 1.145,1.457 2.031,2.914 2.653,4.367 0.73,1.562 1.3,3.434 1.718,5.617 0.52,2.184 0.832,4.836 0.934,7.957 0.207,3.223 0.312,7.332 0.312,12.321 0,4.992 -0.105,9.046 -0.312,12.167 -0.102,3.223 -0.363,5.875 -0.777,7.958 -0.418,2.183 -0.989,4.003 -1.719,5.457 -0.727,1.562 -1.664,3.07 -2.809,4.523 -2.39,3.121 -5.406,5.617 -9.047,7.488 -3.535,1.871 -7.59,2.809 -12.164,2.809 -3.847,0 -7.437,-0.832 -10.765,-2.496 -3.223,-1.559 -6.446,-3.848 -9.672,-6.864 l 0,40.403 -15.91,0 0,-111.067 z m 31.511,64.114 c 3.535,0 6.395,-0.676 8.578,-2.028 2.184,-1.25 3.743,-3.015 4.68,-5.304 1.039,-2.289 1.715,-4.785 2.027,-7.489 0.313,-2.703 0.469,-5.925 0.469,-9.671 0,-3.848 -0.156,-7.122 -0.469,-9.825 -0.312,-2.707 -0.988,-5.203 -2.027,-7.488 -0.937,-2.184 -2.496,-3.953 -4.68,-5.305 -2.183,-1.351 -5.043,-2.027 -8.578,-2.027 -3.539,0 -6.398,0.676 -8.582,2.027 -2.078,1.457 -3.636,3.328 -4.679,5.618 -0.934,2.39 -1.559,4.886 -1.872,7.484 -0.312,2.707 -0.468,5.879 -0.468,9.516 0,3.64 0.156,6.761 0.468,9.359 0.313,2.707 0.938,5.199 1.872,7.488 1.043,2.289 2.601,4.11 4.679,5.461 2.184,1.457 5.043,2.184 8.582,2.184 z" /><path
         id="path6705"
         style="fill:#000000;fill-opacity:1;fill-rule:nonzero;stroke:none"
         d="m 1016.867,123.466 c 0,-4.266 0.731,-8.164 2.184,-11.699 1.562,-3.434 3.64,-6.344 6.242,-8.735 2.598,-2.289 5.457,-4.058 8.578,-5.304 3.223,-1.145 6.395,-1.715 9.516,-1.715 8.633,0 15.441,3.117 20.433,9.359 l 0.313,0 0,-8.426 15.91,0 0,79.086 -15.91,0 0,-47.105 c 0,-5.305 -1.457,-9.465 -4.367,-12.481 -2.914,-3.015 -6.657,-4.523 -11.231,-4.523 -4.578,0 -8.371,1.508 -11.387,4.523 -2.914,3.016 -4.371,7.176 -4.371,12.481 l 0,47.105 -15.91,0 0,-52.566 z" /><path
         id="path6707"
         style="fill:#000000;fill-opacity:1;fill-rule:nonzero;stroke:none"
         d="m 1093.516,110.208 c 10.086,-9.465 21.683,-14.195 34.785,-14.195 9.465,0 17.262,2.183 23.398,6.551 6.239,4.367 9.36,10.296 9.36,17.781 0,6.762 -1.871,12.273 -5.614,16.535 -3.746,4.266 -9.515,6.656 -17.316,7.176 l -13.102,0.937 c -3.746,0.313 -6.449,1.145 -8.113,2.496 -1.559,1.352 -2.34,3.016 -2.34,4.993 0,2.91 1.039,5.199 3.121,6.863 2.184,1.765 5.668,2.648 10.45,2.648 4.058,0 7.75,-0.621 11.074,-1.871 3.328,-1.246 6.711,-3.066 10.14,-5.457 l 9.829,11.543 c -4.161,3.535 -8.735,6.188 -13.727,7.953 -4.992,1.871 -10.766,2.809 -17.316,2.809 -8.629,0 -15.704,-2.133 -21.215,-6.395 -5.512,-4.16 -8.266,-10.14 -8.266,-17.941 0,-6.551 2.078,-11.801 6.238,-15.754 4.266,-3.949 9.778,-6.187 16.536,-6.707 l 14.039,-1.246 c 3.015,-0.211 5.355,-0.938 7.019,-2.184 1.77,-1.144 2.652,-3.015 2.652,-5.617 0,-3.223 -1.457,-5.719 -4.367,-7.488 -2.808,-1.766 -6.551,-2.653 -11.23,-2.653 -5.199,0 -9.778,0.833 -13.727,2.497 -3.953,1.664 -7.699,4.211 -11.234,7.644 l -11.074,-10.918 z" /><path
         id="path6709"
         style="fill:#000000;fill-opacity:1;fill-rule:nonzero;stroke:none"
         d="m 1220.484,120.189 c -2.082,-2.496 -4.523,-4.524 -7.332,-6.082 -2.703,-1.457 -5.617,-2.184 -8.734,-2.184 -6.656,0 -11.754,1.977 -15.289,5.926 -3.535,4.058 -5.301,10.246 -5.301,18.562 0,8.426 1.766,14.614 5.301,18.563 3.535,4.058 8.633,6.086 15.289,6.086 3.117,0 6.031,-0.782 8.734,-2.34 2.809,-1.457 5.25,-3.434 7.332,-5.93 l 11.7,10.453 c -3.641,4.262 -7.852,7.59 -12.637,9.985 -4.781,2.496 -10.035,3.742 -15.754,3.742 -4.68,0 -9.152,-0.781 -13.414,-2.34 -4.266,-1.559 -8.113,-4.004 -11.543,-7.332 -3.434,-3.223 -6.137,-7.434 -8.113,-12.633 -1.871,-5.199 -2.809,-11.285 -2.809,-18.254 0,-6.965 0.988,-13.051 2.965,-18.25 1.976,-5.093 4.629,-9.304 7.957,-12.633 3.328,-3.226 7.121,-5.617 11.387,-7.175 4.367,-1.563 8.89,-2.34 13.57,-2.34 5.719,0 10.973,1.195 15.754,3.586 4.785,2.496 8.996,5.875 12.637,10.14 l -11.7,10.45 z" /><path
         id="path6711"
         style="fill:#000000;fill-opacity:1;fill-rule:nonzero;stroke:none"
         d="m 1241.559,96.946 15.91,0 0,47.11 c 0,5.304 1.457,9.465 4.367,12.48 3.016,3.016 6.812,4.524 11.387,4.524 4.578,0 8.32,-1.508 11.234,-4.524 2.91,-3.015 4.367,-7.176 4.367,-12.48 l 0,-47.11 15.91,0 0,52.571 c 0,4.367 -0.781,8.265 -2.339,11.699 -1.457,3.43 -3.485,6.289 -6.086,8.578 -2.598,2.391 -5.457,4.16 -8.579,5.305 -3.121,1.246 -6.238,1.871 -9.359,1.871 -8.734,0 -15.598,-3.121 -20.59,-9.36 l -0.312,0 0,40.403 -15.91,0 0,-111.067 z" /><path
         id="path6713"
         style="fill:#000000;fill-opacity:1;fill-rule:nonzero;stroke:none"
         d="m 1582.414,96.013 0,57.156 11.406,0 0,-6.445 c 6.676,8.254 18.813,9.562 27.102,2.863 1.308,-1.047 2.453,-2.227 3.433,-3.598 7.465,9.184 20.969,10.547 30.122,3.055 4.953,-4.07 7.843,-10.168 7.843,-16.586 l 0,-36.437 -11.406,0 0,35.011 c 0,6.293 -5.117,11.407 -11.406,11.407 -6.324,0 -11.442,-5.118 -11.442,-11.407 l 0,-35.011 -11.402,0 0,35.011 c 0,6.293 -5.117,11.407 -11.406,11.407 -6.32,0 -11.442,-5.118 -11.442,-11.407 l 0,-35.011 -11.402,-0.008 z m -59.918,0 0,80 11.402,0 0,-49.977 22.118,27.133 13.562,0 -19.25,-22.141 22.11,-35.015 -14.293,0 -14.965,26.433 -9.282,-10.011 0,-16.422" /><path
         id="path6715"
         style="fill:#000000;fill-opacity:1;fill-rule:nonzero;stroke:none"
         d="m 1383.828,96.946 15.91,0 0,111.067 -15.91,0 -15.754,-11.543 0,-16.848 15.754,11.543 0,-94.219 z" /><path
         id="path6717"
         style="fill:#000000;fill-opacity:1;fill-rule:nonzero;stroke:none"
         d="m 1423.516,147.954 14.972,0 c 1.871,3.227 3.953,5.567 6.239,7.02 2.289,1.457 4.992,2.187 8.113,2.187 6.137,0 10.348,-1.875 12.637,-5.617 2.285,-3.641 3.429,-8.891 3.429,-15.754 0,-3.64 -0.105,-6.707 -0.312,-9.203 -0.207,-2.394 -0.832,-4.734 -1.871,-7.019 -0.938,-2.29 -2.496,-4.161 -4.68,-5.618 -2.184,-1.351 -5.094,-2.027 -8.734,-2.027 -4.368,0 -7.907,1.145 -10.61,3.43 -2.703,2.289 -4.469,5.461 -5.301,9.515 l -15.914,0 c 0.524,-4.988 1.821,-9.359 3.903,-13.101 2.078,-3.641 4.625,-6.657 7.64,-9.047 3.016,-2.289 6.293,-4.004 9.828,-5.149 3.641,-1.039 7.333,-1.558 11.079,-1.558 5.093,0 9.722,1.144 13.882,3.43 4.157,2.289 7.539,5.097 10.137,8.425 2.496,3.223 4.266,6.707 5.305,10.45 1.039,3.746 1.558,9.152 1.558,16.222 0,8.735 -0.621,15.078 -1.871,19.031 -1.246,4.055 -3.535,7.852 -6.863,11.387 -2.184,2.395 -5.043,4.317 -8.578,5.774 -3.535,1.558 -7.281,2.339 -11.231,2.339 -6.761,0 -12.687,-2.027 -17.785,-6.086 l 0,25.118 44.145,0 0,15.91 -59.117,0 0,-60.059 z" /><path
         id="path6719"
         style="fill:#ffffff;fill-opacity:1;fill-rule:nonzero;stroke:none"
         d="M 72.398,909.802 C 32.852,909.802 0.801,877.751 0.801,838.2 l 0,-256 c 0,-39.55 32.051,-71.601 71.597,-71.601 l 1656,0 c 39.551,0 71.602,32.051 71.602,71.601 l 0,256 c 0,39.551 -32.051,71.602 -71.602,71.602 l -1656,0 z" /><path
         id="path6721"
         style="fill:#000000;fill-opacity:1;fill-rule:nonzero;stroke:none"
         d="m 72.398,890.2 c -28.718,0 -52,-23.281 -52,-52 l 0,-256 c 0,-28.718 23.282,-52 52,-52 l 1656,0 c 28.719,0 52,23.282 52,52 l 0,256 c 0,28.719 -23.281,52 -52,52 l -1656,0 z" /><path
         id="path6723"
         style="fill:#ffffff;fill-opacity:1;fill-rule:nonzero;stroke:none"
         d="m 72.398,862.2 c -13.253,0 -24,-10.746 -24,-24 l 0,-256 c 0,-13.254 10.747,-24 24,-24 l 1656,0 c 13.254,0 24,10.746 24,24 l 0,256 c 0,13.254 -10.746,24 -24,24 l -1656,0 z" /><path
         id="path6725"
         style="fill:#000000;fill-opacity:1;fill-rule:nonzero;stroke:none"
         d="m 370.035,655.134 16.848,0 0,69.262 0.312,0 23.243,-53.348 14.039,0 23.242,53.348 0.312,0 0,-69.262 16.848,0 0,111.066 -15.91,0 -31.199,-72.379 -31.821,72.379 -15.914,0 0,-111.066 z" /><path
         id="path6727"
         style="fill:#000000;fill-opacity:1;fill-rule:nonzero;stroke:none"
         d="m 543.348,688.673 0,13.102 c 0,4.992 -0.887,9.515 -2.653,13.574 -1.664,4.16 -4.004,7.695 -7.019,10.605 -3.016,3.016 -6.5,5.305 -10.453,6.864 -3.95,1.558 -8.11,2.339 -12.477,2.339 -4.058,0 -8.008,-0.726 -11.855,-2.183 -3.848,-1.457 -7.332,-3.797 -10.453,-7.02 -3.118,-3.121 -5.614,-7.332 -7.485,-12.636 -1.875,-5.301 -2.808,-11.594 -2.808,-18.872 0,-7.8 0.988,-14.351 2.96,-19.656 2.083,-5.199 4.786,-9.308 8.114,-12.324 3.433,-3.016 7.176,-5.148 11.23,-6.395 4.16,-1.246 8.426,-1.871 12.793,-1.871 5.512,0 10.711,1.039 15.598,3.118 4.887,2.082 9.203,5.304 12.945,9.671 l -11.543,9.829 c -2.285,-2.391 -4.988,-4.262 -8.109,-5.614 -3.016,-1.355 -6.086,-2.031 -9.203,-2.031 -5.617,0 -10.192,1.664 -13.727,4.992 -3.433,3.434 -5.148,8.27 -5.148,14.508 l 49.293,0 z m -49.293,13.102 c 0.207,5.824 1.82,10.347 4.836,13.574 3.117,3.222 7.07,4.836 11.855,4.836 4.781,0 8.684,-1.614 11.699,-4.836 3.118,-3.227 4.782,-7.75 4.993,-13.574 l -33.383,0 z" /><path
         id="path6729"
         style="fill:#000000;fill-opacity:1;fill-rule:nonzero;stroke:none"
         d="m 549.703,668.396 c 10.086,-9.465 21.68,-14.196 34.785,-14.196 9.461,0 17.262,2.184 23.399,6.551 6.238,4.367 9.359,10.297 9.359,17.781 0,6.762 -1.871,12.274 -5.617,16.536 -3.742,4.265 -9.516,6.656 -17.313,7.175 l -13.105,0.938 c -3.742,0.312 -6.445,1.144 -8.109,2.496 -1.563,1.351 -2.34,3.016 -2.34,4.992 0,2.91 1.039,5.199 3.117,6.863 2.184,1.766 5.668,2.653 10.453,2.653 4.055,0 7.746,-0.625 11.074,-1.875 3.328,-1.246 6.707,-3.067 10.141,-5.457 l 9.828,11.543 c -4.16,3.535 -8.738,6.187 -13.727,7.953 -4.992,1.875 -10.765,2.808 -17.316,2.808 -8.633,0 -15.703,-2.132 -21.215,-6.394 -5.512,-4.16 -8.265,-10.141 -8.265,-17.938 0,-6.554 2.078,-11.804 6.238,-15.757 4.262,-3.95 9.773,-6.188 16.535,-6.708 l 14.039,-1.246 c 3.016,-0.211 5.356,-0.937 7.02,-2.183 1.765,-1.145 2.652,-3.016 2.652,-5.617 0,-3.223 -1.457,-5.719 -4.367,-7.489 -2.809,-1.765 -6.555,-2.652 -11.235,-2.652 -5.199,0 -9.773,0.832 -13.726,2.496 -3.949,1.664 -7.695,4.215 -11.231,7.645 l -11.074,-10.918 z" /><path
         id="path6731"
         style="fill:#000000;fill-opacity:1;fill-rule:nonzero;stroke:none"
         d="m 623.051,668.396 c 10.086,-9.465 21.683,-14.196 34.785,-14.196 9.465,0 17.262,2.184 23.398,6.551 6.239,4.367 9.36,10.297 9.36,17.781 0,6.762 -1.871,12.274 -5.617,16.536 -3.743,4.265 -9.516,6.656 -17.313,7.175 l -13.105,0.938 c -3.743,0.312 -6.446,1.144 -8.11,2.496 -1.562,1.351 -2.34,3.016 -2.34,4.992 0,2.91 1.039,5.199 3.118,6.863 2.187,1.766 5.668,2.653 10.453,2.653 4.054,0 7.746,-0.625 11.074,-1.875 3.328,-1.246 6.707,-3.067 10.141,-5.457 l 9.828,11.543 c -4.16,3.535 -8.739,6.187 -13.727,7.953 -4.992,1.875 -10.766,2.808 -17.316,2.808 -8.633,0 -15.703,-2.132 -21.215,-6.394 -5.512,-4.16 -8.266,-10.141 -8.266,-17.938 0,-6.554 2.078,-11.804 6.239,-15.757 4.261,-3.95 9.773,-6.188 16.535,-6.708 l 14.039,-1.246 c 3.015,-0.211 5.355,-0.937 7.019,-2.183 1.766,-1.145 2.653,-3.016 2.653,-5.617 0,-3.223 -1.457,-5.719 -4.368,-7.489 -2.808,-1.765 -6.554,-2.652 -11.234,-2.652 -5.199,0 -9.773,0.832 -13.727,2.496 -3.949,1.664 -7.695,4.215 -11.23,7.645 l -11.074,-10.918 z" /><path
         id="path6733"
         style="fill:#000000;fill-opacity:1;fill-rule:nonzero;stroke:none"
         d="m 764.836,688.673 0,13.102 c 0,4.992 -0.883,9.515 -2.652,13.574 -1.664,4.16 -4.004,7.695 -7.02,10.605 -3.016,3.016 -6.5,5.305 -10.449,6.864 -3.953,1.558 -8.113,2.339 -12.481,2.339 -4.054,0 -8.007,-0.726 -11.855,-2.183 -3.848,-1.457 -7.332,-3.797 -10.449,-7.02 -3.121,-3.121 -5.617,-7.332 -7.489,-12.636 -1.871,-5.301 -2.808,-11.594 -2.808,-18.872 0,-7.8 0.988,-14.351 2.965,-19.656 2.078,-5.199 4.785,-9.308 8.109,-12.324 3.434,-3.016 7.176,-5.148 11.234,-6.395 4.157,-1.246 8.422,-1.871 12.789,-1.871 5.512,0 10.711,1.039 15.598,3.118 4.891,2.082 9.203,5.304 12.949,9.671 l -11.543,9.829 c -2.289,-2.391 -4.992,-4.262 -8.113,-5.614 -3.016,-1.355 -6.082,-2.031 -9.203,-2.031 -5.613,0 -10.191,1.664 -13.727,4.992 -3.429,3.434 -5.148,8.27 -5.148,14.508 l 49.293,0 z m -49.293,13.102 c 0.211,5.824 1.82,10.347 4.836,13.574 3.121,3.222 7.074,4.836 11.855,4.836 4.786,0 8.684,-1.614 11.7,-4.836 3.121,-3.227 4.785,-7.75 4.992,-13.574 l -33.383,0 z" /><path
         id="path6735"
         style="fill:#000000;fill-opacity:1;fill-rule:nonzero;stroke:none"
         d="m 194.309,602.2 -23.161,0 0,134.805 -92.707,-92.805 0,58 115.868,116 115.898,-116 0,-58 -92.707,92.805 0,-134.805" /><path
         id="path6737"
         style="fill:#000000;fill-opacity:1;fill-rule:nonzero;stroke:none"
         d="M 72.398,910.599 C 32.418,910.599 0,878.181 0,838.2 l 0,-256 c 0,-39.98 32.418,-72.398 72.398,-72.398 l 1656,0 c 39.985,0 72.403,32.418 72.403,72.398 l 0,256 c 0,39.981 -32.418,72.399 -72.403,72.399 l -1656,0 z m 0,-0.797 1656,0 c 39.551,0 71.602,-32.051 71.602,-71.602 l 0,-256 c 0,-39.55 -32.051,-71.601 -71.602,-71.601 l -1656,0 c -39.546,0 -71.597,32.051 -71.597,71.601 l 0,256 c 0,39.551 32.051,71.602 71.597,71.602 z" /><path
         id="path6739"
         style="fill:#ffffff;fill-opacity:1;fill-rule:nonzero;stroke:none"
         d="m 72.398,1340.4 c -39.546,0 -71.597,-32.051 -71.597,-71.598 l 0,-256 c 0,-39.551 32.051,-71.602 71.597,-71.602 l 1651.602,0 c 39.551,0 71.602,32.051 71.602,71.602 l 0,256 c 0,39.547 -32.051,71.598 -71.602,71.598 l -1651.602,0 z" /><path
         id="path6741"
         style="fill:#154889;fill-opacity:1;fill-rule:nonzero;stroke:none"
         d="m 76.801,1316.4 c -28.719,0 -52,-23.282 -52,-52 l 0,-247.2 c 0,-28.718 23.281,-52 52,-52 l 1647.199,0 c 28.719,0 52,23.282 52,52 l 0,247.2 c 0,28.718 -23.281,52 -52,52 l -1647.199,0 z" /><path
         id="path6743"
         style="fill:#000000;fill-opacity:1;fill-rule:nonzero;stroke:none"
         d="M 72.398,1341.2 C 32.418,1341.2 0,1308.782 0,1268.802 l 0,-256 C 0,972.818 32.418,940.4 72.398,940.4 l 1656,0 c 39.985,0 72.403,32.418 72.403,72.402 l 0,256 c 0,39.98 -32.418,72.398 -72.403,72.398 l -1656,0 z m 0,-0.8 1656,0 c 39.551,0 71.602,-32.051 71.602,-71.598 l 0,-256 c 0,-39.551 -32.051,-71.602 -71.602,-71.602 l -1656,0 c -39.546,0 -71.597,32.051 -71.597,71.602 l 0,256 c 0,39.547 32.051,71.598 71.597,71.598 z" /><path
         id="path6745"
         style="fill:#ffffff;fill-opacity:1;fill-rule:nonzero;stroke:none"
         d="m 194.309,1032.798 -23.161,0 0,134.809 -92.707,-92.809 0,58 115.868,116 115.898,-116 0,-58 -92.707,92.809 0,-134.809" /><path
         id="path6747"
         style="fill:#ffffff;fill-opacity:1;fill-rule:evenodd;stroke:none"
         d="m 753.348,1228.798 -10.125,0 2.218,-57.535 27.801,0 -19.894,57.535 z m -16.899,0 -10.14,0 -19.887,-57.535 27.832,0 2.195,57.535 z m 91.301,-64.309 -175.828,0 0,-6.773 18.574,0 0,-10.145 16.942,0 0,10.145 104.796,0 0,-10.145 16.918,0 0,10.145 18.598,0 0,6.773 z m -46.289,-16.918 -35.129,0 3.637,-94.773 64.261,0 -32.769,94.773 z m -48.148,0 -35.075,0 -32.773,-94.773 64.238,0 3.61,94.773 z" /><path
         id="path6749"
         style="fill:#ffffff;fill-opacity:1;fill-rule:nonzero;stroke:none"
         d="m 381.527,1209.735 c -6.343,0 -11.492,-5.14 -11.492,-11.488 l 0,-114.894 c 0,-6.348 5.149,-11.493 11.492,-11.493 l 206.813,0 c 6.344,0 11.488,5.145 11.488,11.493 l 0,114.894 c 0,6.348 -5.144,11.488 -11.488,11.488 l -206.813,0 z m 103.407,-5.421 c 13.312,-0.02 100.683,-15.551 100.683,-15.551 3.723,-0.543 6.5,-3.715 6.547,-7.477 l 0.004,0 0,-80.644 -0.004,0 c -0.047,-3.762 -2.824,-6.934 -6.547,-7.477 0,0 -87.371,-15.527 -100.683,-15.551 -13.793,-0.074 -100.688,15.551 -100.688,15.551 -3.723,0.543 -6.496,3.715 -6.547,7.477 l -0.004,0 0,80.644 0.004,0 c 0.051,3.762 2.824,6.934 6.547,7.477 0,0 86.895,15.625 100.688,15.551 z" /><path
         id="path6751"
         style="fill:#ffffff;fill-opacity:1;fill-rule:nonzero;stroke:none"
         d="m 420.102,1102.798 42.976,0 0,10.797 -28.789,0 24.238,30.379 c 3.036,3.742 4.551,8.152 4.551,13.234 0,2.961 -0.562,5.75 -1.695,8.36 -1.059,2.613 -2.61,4.906 -4.656,6.882 -1.977,2.047 -4.305,3.598 -6.985,4.657 -2.683,1.128 -5.574,1.691 -8.679,1.691 -2.754,0 -5.399,-0.563 -7.942,-1.691 -2.539,-1.059 -4.797,-2.575 -6.773,-4.551 -1.907,-1.977 -3.422,-4.305 -4.551,-6.988 -1.129,-2.61 -1.695,-5.434 -1.695,-8.469 l 10.796,0 c 0.286,3.32 1.45,5.965 3.497,7.941 2.043,1.977 4.55,2.965 7.515,2.965 3.102,0 5.61,-1.094 7.512,-3.281 1.906,-2.117 2.859,-4.59 2.859,-7.41 0,-1.27 -0.211,-2.508 -0.633,-3.707 -0.355,-1.2 -1.058,-2.469 -2.117,-3.809 l -29.429,-36.836 0,-10.164 z" /><path
         id="path6753"
         style="fill:#ffffff;fill-opacity:1;fill-rule:nonzero;stroke:none"
         d="m 468.844,1114.021 31.437,0 0,-11.223 10.797,0 0,11.223 6.031,0 0,10.16 -6.031,0 0,21.699 -10.797,0 0,-21.699 -19.687,0 25.508,53.984 -12.067,0 -25.191,-53.984 0,-10.16 z" /><path
         id="path6755"
         style="fill:#ffffff;fill-opacity:1;fill-rule:nonzero;stroke:none"
         d="m 538.965,1102.798 10.797,0 0,75.367 -10.797,0 -10.692,-7.832 0,-11.433 10.692,7.832 0,-63.934 z" /></g></g></svg>