<?xml version="1.0" encoding="UTF-8" standalone="no"?>
<!-- Created with Inkscape (http://www.inkscape.org/) -->

<svg
   xmlns:dc="http://purl.org/dc/elements/1.1/"
   xmlns:cc="http://creativecommons.org/ns#"
   xmlns:rdf="http://www.w3.org/1999/02/22-rdf-syntax-ns#"
   xmlns:svg="http://www.w3.org/2000/svg"
   xmlns="http://www.w3.org/2000/svg"
   xmlns:sodipodi="http://sodipodi.sourceforge.net/DTD/sodipodi-0.dtd"
   xmlns:inkscape="http://www.inkscape.org/namespaces/inkscape"
   width="195.00002mm"
   height="195.00317mm"
   viewBox="0 0 195.00002 195.00317"
   version="1.1"
   id="svg3845"
   inkscape:version="0.92.3 (2405546, 2018-03-11)"
   sodipodi:docname="Latvia_road_sign_314.svg">
  <defs
     id="defs3839" />
  <sodipodi:namedview
     id="base"
     pagecolor="#ffffff"
     bordercolor="#666666"
     borderopacity="1.0"
     inkscape:pageopacity="0.0"
     inkscape:pageshadow="2"
     inkscape:zoom="0.35"
     inkscape:cx="1599.9962"
     inkscape:cy="-439.53217"
     inkscape:document-units="mm"
     inkscape:current-layer="layer1"
     showgrid="false"
     inkscape:window-width="1920"
     inkscape:window-height="1027"
     inkscape:window-x="-8"
     inkscape:window-y="-8"
     inkscape:window-maximized="1" />
  <metadata
     id="metadata3842">
    <rdf:RDF>
      <cc:Work
         rdf:about="">
        <dc:format>image/svg+xml</dc:format>
        <dc:type
           rdf:resource="http://purl.org/dc/dcmitype/StillImage" />
        <dc:title></dc:title>
      </cc:Work>
    </rdf:RDF>
  </metadata>
  <g
     inkscape:label="Layer 1"
     inkscape:groupmode="layer"
     id="layer1"
     transform="translate(532.6697,441.72009)">
    <path
       d="m -435.16199,-440.94358 c 53.26236,0 96.71579,43.44727 96.71579,96.72512 0,53.27161 -43.45343,96.72504 -96.71579,96.72504 -53.27777,0 -96.7312,-43.45343 -96.7312,-96.72504 0,-53.27785 43.45343,-96.72512 96.7312,-96.72512 z"
       style="fill:#ffffff;fill-opacity:1;stroke:#000000;stroke-width:1.55301774;stroke-linecap:butt;stroke-linejoin:miter;stroke-miterlimit:22.9260006;stroke-dasharray:none;stroke-opacity:1"
       id="path4220"
       inkscape:connector-curvature="0" />
    <path
       d="m -435.16199,-435.77506 c 50.41718,0 91.55044,41.12384 91.55044,91.5566 0,50.42643 -41.13326,91.55661 -91.55044,91.55661 -50.43268,0 -91.56585,-41.13018 -91.56585,-91.55661 0,-50.43276 41.13317,-91.5566 91.56585,-91.5566 z m -0.0528,24.28609 c 37.11718,0 67.37617,30.25899 67.37617,67.373 0,37.10775 -30.25899,67.37608 -67.37617,67.37608 -37.10775,0 -67.37299,-30.26833 -67.37299,-67.37608 0,-37.11401 30.26524,-67.373 67.37299,-67.373"
       style="fill:#ed1a3a;fill-opacity:1;fill-rule:evenodd;stroke:none;stroke-width:3.10603547"
       id="path4218"
       inkscape:connector-curvature="0" />
  </g>
</svg>
