<?xml version="1.0" encoding="UTF-8" standalone="no"?>
<!-- Generator: Adobe Illustrator 18.1.1, SVG Export Plug-In . SVG Version: 6.00 Build 0)  -->

<svg
   xmlns:dc="http://purl.org/dc/elements/1.1/"
   xmlns:cc="http://creativecommons.org/ns#"
   xmlns:rdf="http://www.w3.org/1999/02/22-rdf-syntax-ns#"
   xmlns:svg="http://www.w3.org/2000/svg"
   xmlns="http://www.w3.org/2000/svg"
   xmlns:sodipodi="http://sodipodi.sourceforge.net/DTD/sodipodi-0.dtd"
   xmlns:inkscape="http://www.inkscape.org/namespaces/inkscape"
   version="1.1"
   x="0px"
   y="0px"
   viewBox="0 0 276.001 309.29999"
   enable-background="new 0 0 466.7 600"
   xml:space="preserve"
   id="svg2"
   inkscape:version="0.92.2 (5c3e80d, 2017-08-06)"
   sodipodi:docname="N1_(Philippines).svg"
   width="294.40106"
   height="329.91998"
   inkscape:export-filename="C:\Users\Shaun\Desktop\New Route Markers\N11_(Philippines).svg.png"
   inkscape:export-xdpi="105.27"
   inkscape:export-ydpi="105.27"><metadata
     id="metadata45"><rdf:RDF><cc:Work
         rdf:about=""><dc:format>image/svg+xml</dc:format><dc:type
           rdf:resource="http://purl.org/dc/dcmitype/StillImage" /><dc:title /></cc:Work></rdf:RDF></metadata><defs
     id="defs43"><pattern
       y="0"
       x="0"
       height="6"
       width="6"
       patternUnits="userSpaceOnUse"
       id="EMFhbasepattern" /></defs><sodipodi:namedview
     pagecolor="#ffffff"
     bordercolor="#666666"
     borderopacity="1"
     objecttolerance="10"
     gridtolerance="10"
     guidetolerance="10"
     inkscape:pageopacity="0"
     inkscape:pageshadow="2"
     inkscape:window-width="1366"
     inkscape:window-height="705"
     id="namedview41"
     showgrid="false"
     inkscape:zoom="0.70710678"
     inkscape:cx="245.33422"
     inkscape:cy="318.42679"
     inkscape:window-x="-4"
     inkscape:window-y="-4"
     inkscape:window-maximized="1"
     inkscape:current-layer="g43"><inkscape:grid
       type="xygrid"
       id="grid3401"
       originx="0"
       originy="0"
       spacingx="1"
       spacingy="1" /></sodipodi:namedview><g
     id="g12"
     transform="translate(-95.2,-60.3)"><g
       id="g3403"><g
         id="g37"><g
           id="g38"><g
             id="g43"><g
               id="g838"><g
                 id="g24"><g
                   id="g14"><path
                     style="fill:#ffffff;fill-opacity:1"
                     inkscape:connector-curvature="0"
                     id="path16"
                     d="M 349.1,321.5 233.2,369.6 117.3,321.5 C 103.8,315.9 95.2,302.8 95.2,288.3 v -192 c 0,-19.9 16.1,-36 36,-36 h 204 c 19.9,0 36,16.1 36,36 v 192 c 0.1,14.5 -8.7,27.6 -22.1,33.2 z" /><path
                     inkscape:connector-curvature="0"
                     id="path18"
                     d="M 121.6,311.6 C 112.1,307.6 106,298.5 106,288.3 V 96.3 C 106,82.3 117.3,71 131.3,71 h 204 c 14,0 25.3,11.3 25.3,25.3 v 192 c 0,10.3 -6.1,19.5 -15.6,23.3 L 233.3,358 Z" /><path
                     style="fill:#ffffff"
                     inkscape:connector-curvature="0"
                     id="path20"
                     d="m 125.7,301.7 c -5.5,-2.3 -9.1,-7.6 -9.1,-13.6 v -192 c 0,-8.1 6.5,-14.7 14.7,-14.7 h 204 c 8.1,0 14.7,6.5 14.7,14.7 v 192 c 0,6 -3.6,11.2 -9.1,13.6 l -107.6,44.7 z" /></g></g><g
                 id="text826"
                 style="font-style:normal;font-variant:normal;font-weight:normal;font-stretch:normal;font-size:175px;line-height:1.25;font-family:ClearviewHwy-1B;-inkscape-font-specification:'ClearviewHwy-1B, Normal';font-variant-ligatures:normal;font-variant-caps:normal;font-variant-numeric:normal;font-feature-settings:normal;text-align:start;letter-spacing:0px;word-spacing:0px;writing-mode:lr-tb;text-anchor:start;fill:#000000;fill-opacity:1;stroke:none;stroke-width:0.9375"
                 aria-label="1"><path
                   id="path828"
                   style="font-style:normal;font-variant:normal;font-weight:normal;font-stretch:normal;font-size:175px;font-family:ClearviewHwy-2B;-inkscape-font-specification:ClearviewHwy-2B;fill:#000000;fill-opacity:1;stroke-width:0.9375"
                   d="m 223.6,285.22498 0.35,-136.325 h -1.05 l -20.475,22.925 -13.475,-20.65 39.375,-41.65 H 251.6 v 175.7 z" /></g></g></g></g></g></g></g></svg>