<?xml version="1.0" encoding="UTF-8" standalone="no"?>
<!-- Created with Inkscape (http://www.inkscape.org/) -->

<svg
   xmlns:dc="http://purl.org/dc/elements/1.1/"
   xmlns:cc="http://creativecommons.org/ns#"
   xmlns:rdf="http://www.w3.org/1999/02/22-rdf-syntax-ns#"
   xmlns:svg="http://www.w3.org/2000/svg"
   xmlns="http://www.w3.org/2000/svg"
   xmlns:sodipodi="http://sodipodi.sourceforge.net/DTD/sodipodi-0.dtd"
   xmlns:inkscape="http://www.inkscape.org/namespaces/inkscape"
   width="2200"
   height="1470"
   id="svg2"
   version="1.1"
   inkscape:version="0.48.5 r10040"
   sodipodi:docname="PH G1-1.svg">
  <defs
     id="defs4" />
  <sodipodi:namedview
     id="base"
     pagecolor="#ffffff"
     bordercolor="#666666"
     borderopacity="1.0"
     inkscape:pageopacity="0.0"
     inkscape:pageshadow="2"
     inkscape:zoom="0.24748738"
     inkscape:cx="1193.3921"
     inkscape:cy="759.66407"
     inkscape:document-units="px"
     inkscape:current-layer="layer1"
     showgrid="false"
     fit-margin-top="0"
     fit-margin-left="0"
     fit-margin-right="0"
     fit-margin-bottom="0"
     inkscape:window-width="1024"
     inkscape:window-height="578"
     inkscape:window-x="-8"
     inkscape:window-y="-8"
     inkscape:window-maximized="1" />
  <metadata
     id="metadata7">
    <rdf:RDF>
      <cc:Work
         rdf:about="">
        <dc:format>image/svg+xml</dc:format>
        <dc:type
           rdf:resource="http://purl.org/dc/dcmitype/StillImage" />
        <dc:title></dc:title>
      </cc:Work>
    </rdf:RDF>
  </metadata>
  <g
     inkscape:label="Layer 1"
     inkscape:groupmode="layer"
     id="layer1"
     transform="translate(875.71423,336.20929)">
    <path
       transform="scale(-1,-1)"
       style="fill:#15a751;fill-opacity:1;fill-rule:nonzero;stroke:none"
       d="m -1224.2357,-1133.7907 1999.89985,0 c 55.42774,0 100.05008,44.6887 100.05008,100.199 l 0,1269.60202 c 0,55.51023 -44.62234,100.19897 -100.05008,100.19897 l -1999.89985,0 c -55.4277,0 -100.0501,-44.68874 -100.0501,-100.19897 l 0,-1269.60202 c 0,-55.5103 44.6224,-100.199 100.0501,-100.199 z"
       id="rect2992"
       inkscape:connector-curvature="0"
       sodipodi:nodetypes="sssssssss" />
    <path
       transform="scale(-1,-1)"
       style="fill:#ffffff;fill-opacity:1;fill-rule:nonzero;stroke:none"
       d="m -1224.1335,-1103.7907 1999.69544,0 c 38.86437,0 70.15229,31.3543 70.15229,70.3012 l 0,1269.39762 c 0,38.94685 -31.28792,70.30117 -70.15229,70.30117 l -1999.69544,0 c -38.8643,0 -70.1523,-31.35432 -70.1523,-70.30117 l 0,-1269.39762 c 0,-38.9469 31.288,-70.3012 70.1523,-70.3012 z"
       id="rect3769"
       inkscape:connector-curvature="0"
       sodipodi:nodetypes="sssssssss" />
    <path
       transform="scale(-1,-1)"
       style="fill:#15a751;fill-opacity:1;fill-rule:nonzero;stroke:none"
       d="m -1223.5567,-1073.7907 1998.54188,0 c 22.5639,0 40.72905,18.2315 40.72905,40.8779 l 0,1268.24416 c 0,22.64637 -18.16515,40.87793 -40.72905,40.87793 l -1998.54188,0 c -22.5639,0 -40.7291,-18.23156 -40.7291,-40.87793 l 0,-1268.24416 c 0,-22.6464 18.1652,-40.8779 40.7291,-40.8779 z"
       id="rect3771"
       inkscape:connector-curvature="0"
       sodipodi:nodetypes="sssssssss" />
    <rect
       style="fill:#ffffff;fill-opacity:1;fill-rule:nonzero;stroke:none"
       id="rect2999"
       width="2140"
       height="30"
       x="-845.71423"
       y="543.79071"
       rx="0"
       ry="0" />
    <path
       inkscape:connector-curvature="0"
       d="m 894.34787,868.88495 -0.0621,-33.98975 126.01293,8.98589 -16.7444,-72.73888 c -0.1364,-0.5812 -0.2205,-1.52261 -0.2203,-2.38162 0,-5.4955 4.4763,-9.96861 9.9753,-9.96987 2.4456,-0.007 4.8342,1.07928 6.7171,2.65804 l 120.14,99.3022 c 0,0 4.1084,4.82417 4.1193,7.86973 l -0.01,0.27791 c -0.014,3.18363 -4.1224,8.01042 -4.1224,8.01042 l -120.2675,99.27441 c -1.8028,1.6603 -4.2664,2.6726 -6.636,2.604 -5.4864,-0.012 -9.8902,-4.4129 -9.9708,-9.9655 0.071,-0.7883 0.082,-1.6615 0.1517,-2.312 l 16.9165,-72.74631 -126.01699,9.04232 0.008,-33.92094"
       style="fill:#ffffff;fill-opacity:1;fill-rule:evenodd;stroke:none"
       id="path7479" />
    <path
       id="path3012"
       style="fill:#ffffff;fill-opacity:1;fill-rule:evenodd;stroke:none"
       d="m -508.38595,373.69642 0.062,33.98972 -126.0129,-8.9859 16.7444,72.7389 c 0.1364,0.5812 0.2205,1.5226 0.2203,2.3816 0,5.4955 -4.4763,9.9687 -9.9753,9.9699 -2.4456,0.01 -4.8342,-1.0793 -6.7171,-2.658 l -120.14002,-99.30222 c 0,0 -4.1084,-4.8242 -4.1193,-7.8698 l 0.01,-0.2779 c 0.014,-3.1836 4.1224,-8.0104 4.1224,-8.0104 l 120.26752,-99.2744 c 1.8028,-1.6603 4.2664,-2.6726 6.636,-2.604 5.4864,0.012 9.8902,4.4129 9.9708,9.9655 -0.071,0.7883 -0.082,1.6615 -0.1517,2.312 l -16.9165,72.7463 126.017,-9.0423 -0.01,33.9209"
       inkscape:connector-curvature="0" />
    <rect
       ry="0"
       rx="0"
       y="143.79071"
       x="-845.71423"
       height="30"
       width="2140"
       id="rect3014"
       style="fill:#ffffff;fill-opacity:1;fill-rule:nonzero;stroke:none" />
    <path
       id="path3020"
       style="fill:#ffffff;fill-opacity:1;fill-rule:evenodd;stroke:none"
       d="m 1019.3799,33.72871 -33.98972,0.062 8.9859,-126.0129 -72.7389,16.7444 c -0.5812,0.1364 -1.5226,0.2205 -2.3816,0.2203 -5.4955,0 -9.9687,-4.4763 -9.9699,-9.9753 -0.01,-2.4456 1.0793,-4.8342 2.658,-6.7171 l 99.30222,-120.14002 c 0,0 4.8242,-4.1084 7.8698,-4.1193 l 0.2779,0.01 c 3.1836,0.014 8.0104,4.1224 8.0104,4.1224 l 99.2744,120.26752 c 1.6603,1.8028 2.6726,4.2664 2.604,6.636 -0.012,5.4864 -4.4129,9.8902 -9.9655,9.9708 -0.7883,-0.071 -1.6615,-0.082 -2.312,-0.1517 l -72.7463,-16.9165 9.0423,126.017 -33.9209,-0.01"
       inkscape:connector-curvature="0" />
    <path
       inkscape:connector-curvature="0"
       id="path3049"
       style="font-size:221.90725708px;font-style:normal;font-variant:normal;font-weight:normal;font-stretch:normal;text-align:center;line-height:125%;letter-spacing:0px;word-spacing:0px;writing-mode:lr-tb;text-anchor:middle;fill:#ffffff;fill-opacity:1;stroke:none;font-family:Roadgeek 2005 Blend E5WR;-inkscape-font-specification:Roadgeek 2005 Blend E5WR"
       d="m -614.31822,0.23330881 29.29138,0 0,-153.33593881 -29.29138,0 -40.3866,65.683701 -0.88762,0 -40.6085,-65.683701 -29.51329,0 0,153.33593881 29.51329,0 0,-103.40744881 0.66571,0 39.72089,62.798944 0.88761,0 40.1647,-63.242754 0.44381,0 z" />
    <path
       inkscape:connector-curvature="0"
       id="path3051"
       style="font-size:221.90725708px;font-style:normal;font-variant:normal;font-weight:normal;font-stretch:normal;text-align:center;line-height:125%;letter-spacing:0px;word-spacing:0px;writing-mode:lr-tb;text-anchor:middle;fill:#ffffff;fill-opacity:1;stroke:none;font-family:Roadgeek 2005 Blend E5WR;-inkscape-font-specification:Roadgeek 2005 Blend E5WR"
       d="m -447.22851,-62.343732 c 0.2218,13.036932 -1.77534,23.355475 -5.99142,30.95566 -4.21628,7.600249 -11.98293,11.483573 -23.29996,11.649985 -11.52061,-0.166407 -19.37972,-4.049731 -23.57735,-11.649985 -4.19774,-7.600189 -6.17639,-17.918732 -5.93594,-30.95566 -0.26818,-12.320242 1.65499,-22.296685 5.76952,-29.929358 4.11441,-7.632488 12.029,-11.56204 23.74377,-11.78867 11.60828,0.22663 19.45814,4.156188 23.5496,11.788674 4.09126,7.63267 6.00518,17.609112 5.74178,29.929354 z m 29.73519,0 c 0.009,-19.795641 -4.89128,-35.513855 -14.70117,-47.154688 -9.81014,-11.64061 -24.58526,-17.59504 -44.3254,-17.8633 -20.82671,0.42082 -35.98092,6.68037 -45.46267,18.77866 -9.48181,12.098513 -14.15105,27.511606 -14.00771,46.239328 -0.0601,19.610844 4.77554,35.310563 14.507,47.099206 9.73138,11.7886729 24.71916,17.8355628 44.96338,18.1406876 20.03139,-0.3189907 34.88973,-6.3936193 44.57504,-18.2239036 9.68507,-11.830254 14.50224,-27.502235 14.45153,-47.01599 z" />
    <path
       inkscape:connector-curvature="0"
       id="path3053"
       style="font-size:221.90725708px;font-style:normal;font-variant:normal;font-weight:normal;font-stretch:normal;text-align:center;line-height:125%;letter-spacing:0px;word-spacing:0px;writing-mode:lr-tb;text-anchor:middle;fill:#ffffff;fill-opacity:1;stroke:none;font-family:Roadgeek 2005 Blend E5WR;-inkscape-font-specification:Roadgeek 2005 Blend E5WR"
       d="m -294.24424,0.23330881 29.06948,0 0,-75.44749581 c 0.28187,-16.249782 -2.72309,-28.963043 -9.01487,-38.139823 -6.29203,-9.17655 -17.56291,-13.84578 -33.81268,-14.00771 -7.56795,-0.1062 -14.34527,1.04955 -20.33199,3.46726 -5.98686,2.41795 -11.04443,6.73584 -15.17271,12.95366 l -0.44381,0 -2.44095,-13.97997 -25.2971,0 0,125.15407881 29.29138,0 0,-75.89130481 c -0.0417,-9.292159 2.03869,-16.171188 6.24106,-20.637109 4.20225,-4.465725 10.77616,-6.684765 19.72175,-6.657135 9.95325,0.17578 16.23129,3.208473 18.83414,9.098083 2.60265,5.889798 3.72141,13.582476 3.3563,23.078058 z" />
    <path
       inkscape:connector-curvature="0"
       id="path3055"
       style="font-size:221.90725708px;font-style:normal;font-variant:normal;font-weight:normal;font-stretch:normal;text-align:center;line-height:125%;letter-spacing:0px;word-spacing:0px;writing-mode:lr-tb;text-anchor:middle;fill:#ffffff;fill-opacity:1;stroke:none;font-family:Roadgeek 2005 Blend E5WR;-inkscape-font-specification:Roadgeek 2005 Blend E5WR"
       d="m -130.83729,0.23330881 26.18472,0 0,-125.15407881 -29.06948,0 0,75.003684 c 0.16632,9.250678 -1.55343,16.323873 -5.15928,21.219604 -3.60604,4.895789 -10.09674,7.364474 -19.47211,7.406064 -9.92567,-0.138669 -16.09276,-3.356281 -18.50128,-9.652845 -2.40865,-6.296501 -3.41646,-14.839811 -3.02345,-25.629955 l 0,-68.346552 -29.29138,0 0,78.554155 c 0.0693,18.672359 3.64752,31.699983 10.73463,39.0829106 7.08702,7.38294307 17.26688,10.9241645 30.53959,10.6236748 8.46002,-0.069346 15.45,-1.594938 20.96996,-4.5767799 5.51979,-2.981839 10.06882,-7.0038516 13.64713,-12.0660505 l 0.44381,0 z" />
    <path
       inkscape:connector-curvature="0"
       id="path3057"
       style="font-size:221.90725708px;font-style:normal;font-variant:normal;font-weight:normal;font-stretch:normal;text-align:center;line-height:125%;letter-spacing:0px;word-spacing:0px;writing-mode:lr-tb;text-anchor:middle;fill:#ffffff;fill-opacity:1;stroke:none;font-family:Roadgeek 2005 Blend E5WR;-inkscape-font-specification:Roadgeek 2005 Blend E5WR"
       d="m 102.45914,0.23330881 29.06948,0 0,-76.55701781 c 0.14311,-16.591885 -3.25018,-29.231181 -10.17987,-37.917921 -6.93008,-8.68651 -18.25644,-13.05987 -33.979111,-13.12009 -7.831533,-0.10158 -14.747548,1.15588 -20.748064,3.77237 -6.000796,2.61675 -11.363479,7.20277 -16.088066,13.75808 -3.129894,-6.26406 -7.410795,-10.76687 -12.842715,-13.50844 -5.432143,-2.74132 -11.876611,-4.08199 -19.333423,-4.02201 -8.4324504,0.0371 -15.1450517,1.51647 -20.1378242,4.43809 -4.9929156,2.92186 -8.9317148,7.06407 -11.8164098,12.42664 l -0.443808,0 -2.219044,-14.42378 -25.962815,0 0,125.15407881 29.291381,0 0,-78.77606181 c 0.07853,-8.016208 2.140392,-14.118574 6.1855865,-18.307117 4.0450608,-4.18835 9.6019107,-6.29644 16.6705664,-6.32427 8.6079481,0.1203 14.1925351,2.82013 16.7537791,8.099506 2.561043,5.279566 3.707549,12.417485 3.439521,21.413778 l 0,73.89416481 29.291381,0 0,-78.77606181 c 0.07846,-8.113292 2.140321,-14.243396 6.185587,-18.390329 4.044988,-4.146738 9.601838,-6.227088 16.670566,-6.241058 8.510797,0.14804 14.067646,2.95882 16.670567,8.432366 2.602575,5.473731 3.776815,12.722601 3.522735,21.746631 z" />
    <path
       inkscape:connector-curvature="0"
       id="path3059"
       style="font-size:221.90725708px;font-style:normal;font-variant:normal;font-weight:normal;font-stretch:normal;text-align:center;line-height:125%;letter-spacing:0px;word-spacing:0px;writing-mode:lr-tb;text-anchor:middle;fill:#ffffff;fill-opacity:1;stroke:none;font-family:Roadgeek 2005 Blend E5WR;-inkscape-font-specification:Roadgeek 2005 Blend E5WR"
       d="m 262.60782,-71.885621 -55.91991,0 c 0.097,-10.813135 2.73215,-19.088312 7.90535,-24.825557 5.17309,-5.737052 12.30176,-8.631052 21.38603,-8.682012 9.84692,0.23126 16.78143,3.48585 20.80354,9.763798 4.02192,6.278135 5.96358,14.192718 5.82499,23.743771 z m 27.29424,9.09808 c -0.0417,-20.262565 -4.61851,-36.045501 -13.73033,-47.348859 -9.11206,-11.30313 -22.50952,-17.0449 -40.19244,-17.22532 -17.02198,-0.0369 -31.02043,5.30734 -41.99541,16.03259 -10.97505,10.72548 -16.65209,27.053929 -17.03116,48.985398 0.0693,20.096259 5.25634,35.934669 15.56105,47.515278 10.30464,11.5806391 25.31091,17.4888384 45.01885,17.7246156 8.24736,0.032359 16.10647,-0.9754567 23.57735,-3.0234491 7.47067,-2.0479917 14.99692,-5.3303237 22.57877,-9.8470061 l -9.7638,-21.0809184 c -6.11172,4.072895 -11.91821,7.022371 -17.41949,8.848437 -5.50147,1.82611 -11.30797,2.722973 -17.4195,2.690592 -11.04443,-0.04159 -19.19016,-2.898604 -24.43722,-8.571059 -5.24716,-5.672399 -7.90077,-13.910591 -7.96082,-24.714601 l 82.77034,0 c 0.11544,-2.080302 0.21715,-3.911013 0.30512,-5.492137 0.0877,-1.581007 0.13394,-3.078859 0.13869,-4.493561 z" />
    <path
       inkscape:connector-curvature="0"
       id="path3061"
       style="font-size:221.90725708px;font-style:normal;font-variant:normal;font-weight:normal;font-stretch:normal;text-align:center;line-height:125%;letter-spacing:0px;word-spacing:0px;writing-mode:lr-tb;text-anchor:middle;fill:#ffffff;fill-opacity:1;stroke:none;font-family:Roadgeek 2005 Blend E5WR;-inkscape-font-specification:Roadgeek 2005 Blend E5WR"
       d="m 411.35153,0.23330881 29.06947,0 0,-75.44749581 c 0.28187,-16.249782 -2.72308,-28.963043 -9.01486,-38.139823 -6.29204,-9.17655 -17.56292,-13.84578 -33.81268,-14.00771 -7.56795,-0.1062 -14.34528,1.04955 -20.332,3.46726 -5.98686,2.41795 -11.04442,6.73584 -15.17271,12.95366 l -0.44381,0 -2.44095,-13.97997 -25.2971,0 0,125.15407881 29.29138,0 0,-75.89130481 c -0.0417,-9.292159 2.03869,-16.171188 6.24107,-20.637109 4.20224,-4.465725 10.77615,-6.684765 19.72175,-6.657135 9.95324,0.17578 16.23128,3.208473 18.83413,9.098083 2.60265,5.889798 3.72142,13.582476 3.35631,23.078058 z" />
    <path
       inkscape:connector-curvature="0"
       id="path3063"
       style="font-size:221.90725708px;font-style:normal;font-variant:normal;font-weight:normal;font-stretch:normal;text-align:center;line-height:125%;letter-spacing:0px;word-spacing:0px;writing-mode:lr-tb;text-anchor:middle;fill:#ffffff;fill-opacity:1;stroke:none;font-family:Roadgeek 2005 Blend E5WR;-inkscape-font-specification:Roadgeek 2005 Blend E5WR"
       d="m 546.35471,0.45521321 0,-22.85615321 -6.87904,0 c -9.1906,0.184945 -14.94162,-0.68418 -17.25307,-2.607377 -2.31155,-1.923146 -3.29163,-6.009881 -2.94023,-12.260218 l 0,-61.911327 27.07234,0 0,-23.743768 -27.07234,0 0,-33.28566 -28.62567,0 0,33.28566 -19.74949,0 0,23.743768 19.08378,0 0,63.020849 c -0.39297,13.822814 1.94627,23.679057 7.01773,29.5687582 5.07141,5.8897152 15.23277,8.7559786 30.48411,8.5987988 2.94942,-0.00925 5.92664,-0.1571833 8.93166,-0.4438088 3.00488,-0.2866281 6.31495,-0.6564684 9.93022,-1.10952199 z" />
    <path
       inkscape:connector-curvature="0"
       id="path3065"
       style="font-size:221.90725708px;font-style:normal;font-variant:normal;font-weight:normal;font-stretch:normal;text-align:center;line-height:125%;letter-spacing:0px;word-spacing:0px;writing-mode:lr-tb;text-anchor:middle;fill:#ffffff;fill-opacity:1;stroke:none;font-family:Roadgeek 2005 Blend E5WR;-inkscape-font-specification:Roadgeek 2005 Blend E5WR"
       d="m 662.30779,-62.343732 c 0.2218,13.036932 -1.77534,23.355475 -5.99142,30.95566 -4.21628,7.600249 -11.98293,11.483573 -23.29996,11.649985 -11.52061,-0.166407 -19.37972,-4.049731 -23.57735,-11.649985 -4.19774,-7.600189 -6.17638,-17.918732 -5.93594,-30.95566 -0.26818,-12.320242 1.65499,-22.296685 5.76952,-29.929358 4.11441,-7.632488 12.029,-11.56204 23.74377,-11.78867 11.60828,0.22663 19.45814,4.156188 23.5496,11.788674 4.09126,7.63267 6.00518,17.609112 5.74178,29.929354 z m 29.73519,0 c 0.009,-19.795641 -4.89128,-35.513855 -14.70117,-47.154688 -9.81014,-11.64061 -24.58526,-17.59504 -44.3254,-17.8633 -20.82671,0.42082 -35.98092,6.68037 -45.46267,18.77866 -9.48181,12.098513 -14.15104,27.511606 -14.00771,46.239328 -0.0601,19.610844 4.77554,35.310563 14.507,47.099206 9.73139,11.7886729 24.71916,17.8355628 44.96338,18.1406876 20.03139,-0.3189907 34.88973,-6.3936193 44.57504,-18.2239036 9.68507,-11.830254 14.50224,-27.502235 14.45153,-47.01599 z" />
    <path
       inkscape:connector-curvature="0"
       id="path3036"
       style="font-size:203.04829407px;font-style:normal;font-variant:normal;font-weight:normal;font-stretch:normal;text-align:center;line-height:125%;letter-spacing:0px;word-spacing:0px;writing-mode:lr-tb;text-anchor:middle;fill:#ffffff;fill-opacity:1;stroke:none;font-family:Roadgeek 2005 Blend E5WR;-inkscape-font-specification:Roadgeek 2005 Blend E5WR"
       d="m -138.78529,456.35416 26.80203,0 0,-140.30457 -26.80203,0 -36.95432,60.10152 -0.81218,0 -37.15736,-60.10152 -27.00507,0 0,140.30457 27.00507,0 0,-94.61929 0.60914,0 36.34518,57.46193 0.81218,0 36.75127,-57.86802 0.40609,0 z" />
    <path
       inkscape:connector-curvature="0"
       id="path3038"
       style="font-size:203.04829407px;font-style:normal;font-variant:normal;font-weight:normal;font-stretch:normal;text-align:center;line-height:125%;letter-spacing:0px;word-spacing:0px;writing-mode:lr-tb;text-anchor:middle;fill:#ffffff;fill-opacity:1;stroke:none;font-family:Roadgeek 2005 Blend E5WR;-inkscape-font-specification:Roadgeek 2005 Blend E5WR"
       d="m 12.682834,398.68918 0,31.06599 c -4.0398532,3.29106 -8.2953474,5.8968 -12.76649513,7.81726 -4.47131297,1.92049 -9.28518337,2.90188 -14.44162587,2.94416 -5.368083,-0.0973 -9.352851,-1.78086 -11.954316,-5.05076 -2.601576,-3.26985 -3.895991,-7.54227 -3.883247,-12.81726 0.211764,-7.26323 2.653321,-12.6126 7.324679,-16.04813 4.671239,-3.43544 10.301365,-5.64136 16.8903946,-6.61779 6.58887638,-0.97631 12.8657404,-1.40747 18.8306104,-1.29347 z m 18.883249,59.28934 15.837563,-15.43147 c -3.189636,-1.80625 -5.389296,-3.77748 -6.598988,-5.91371 -1.209939,-2.13619 -1.785233,-5.17341 -1.725885,-9.11167 l 0,-45.68528 c 0.198696,-14.46269 -2.889288,-25.13104 -9.263961,-32.00508 -6.374898,-6.87383 -17.22937,-10.2833 -32.5634492,-10.22842 -9.1455898,0.004 -17.7581048,1.06188 -25.8375688,3.17259 -8.079573,2.11095 -16.184469,5.24969 -24.314714,9.41624 l 7.918781,19.28934 c 6.099787,-3.59128 12.52956,-6.40854 19.28934,-8.45178 6.759666,-2.04305 13.798576,-3.08366 21.1167507,-3.12182 6.5100646,-0.038 11.1039681,1.35797 13.781724,4.18782 2.6775723,2.83004 3.9719873,7.32242 3.8832503,13.47715 l 0,5.07614 c -9.9367901,-0.16536 -20.2269358,0.70698 -30.870468,2.61704 -10.643663,1.9102 -19.685455,5.85079 -27.125403,11.82177 -7.440024,5.9711 -11.322953,14.96526 -11.648797,26.98251 0.09727,10.6853 3.151409,19.11169 9.162437,25.27919 6.010958,6.16751 14.395044,9.31471 25.152283,9.44162 6.937328,-0.0338 13.5701471,-1.28596 19.8984762,-3.75634 6.3281682,-2.47039 12.1488052,-5.956 17.4619288,-10.45685 l 0.406091,0 c 1.150493,3.90864 3.113266,6.90356 5.888325,8.98477 2.77485,2.08122 6.158942,3.5533 10.152284,4.41624 z" />
    <path
       inkscape:connector-curvature="0"
       id="path3040"
       style="font-size:203.04829407px;font-style:normal;font-variant:normal;font-weight:normal;font-stretch:normal;text-align:center;line-height:125%;letter-spacing:0px;word-spacing:0px;writing-mode:lr-tb;text-anchor:middle;fill:#ffffff;fill-opacity:1;stroke:none;font-family:Roadgeek 2005 Blend E5WR;-inkscape-font-specification:Roadgeek 2005 Blend E5WR"
       d="m 170.34667,456.35416 26.59898,0 0,-69.03553 c 0.25791,-14.86879 -2.49166,-26.5016 -8.24873,-34.89848 -5.7573,-8.39668 -16.07032,-12.66909 -30.93908,-12.81726 -6.92479,-0.0972 -13.12613,0.96036 -18.60407,3.17259 -5.47806,2.21247 -10.1058,6.16339 -13.88324,11.85279 l -0.40609,0 -2.23351,-12.79188 -23.147204,0 0,114.51777 26.802034,0 0,-69.44163 c -0.0381,-8.50245 1.86542,-14.79686 5.71066,-18.88324 3.84511,-4.08621 9.86034,-6.11666 18.04568,-6.09137 9.10736,0.16084 14.85185,2.93579 17.2335,8.32487 2.38146,5.38925 3.40515,12.42816 3.07107,21.11675 z" />
    <path
       inkscape:connector-curvature="0"
       id="path3042"
       style="font-size:203.04829407px;font-style:normal;font-variant:normal;font-weight:normal;font-stretch:normal;text-align:center;line-height:125%;letter-spacing:0px;word-spacing:0px;writing-mode:lr-tb;text-anchor:middle;fill:#ffffff;fill-opacity:1;stroke:none;font-family:Roadgeek 2005 Blend E5WR;-inkscape-font-specification:Roadgeek 2005 Blend E5WR"
       d="m 276.82066,313.20695 c -0.0677,-4.42033 -1.55673,-7.9144 -4.467,-10.48224 -2.91037,-2.56752 -6.83592,-3.87885 -11.77665,-3.934 -5.02965,0.0552 -8.98057,1.36648 -11.8528,3.93401 -2.87227,2.56783 -4.33589,6.06191 -4.39086,10.48223 0.055,4.50098 1.5186,7.9866 4.39087,10.45685 2.87222,2.47052 6.82315,3.72264 11.85279,3.75635 4.94073,-0.0337 8.86628,-1.28583 11.77665,-3.75635 2.91027,-2.47025 4.39927,-5.95587 4.467,-10.45685 z m -29.84771,143.14721 27.00507,0 0,-114.51777 -27.00507,0 z" />
    <path
       inkscape:connector-curvature="0"
       id="path3044"
       style="font-size:203.04829407px;font-style:normal;font-variant:normal;font-weight:normal;font-stretch:normal;text-align:center;line-height:125%;letter-spacing:0px;word-spacing:0px;writing-mode:lr-tb;text-anchor:middle;fill:#ffffff;fill-opacity:1;stroke:none;font-family:Roadgeek 2005 Blend E5WR;-inkscape-font-specification:Roadgeek 2005 Blend E5WR"
       d="m 372.02151,456.35416 0,-21.11675 -7.91879,0 c -3.60412,0.16499 -6.14218,-0.26648 -7.61421,-1.29442 -1.47214,-1.0279 -2.1828,-3.64211 -2.13198,-7.84264 l 0,-121.82741 -26.80203,0 0,128.12183 c -0.1227,9.23013 1.79777,15.79527 5.76142,19.69543 3.96358,3.90016 10.70639,5.79526 20.22843,5.68528 3.3079,-0.008 6.59046,-0.14383 9.84771,-0.4061 3.25712,-0.26226 6.1336,-0.60067 8.62945,-1.01522 z" />
    <path
       inkscape:connector-curvature="0"
       id="path3046"
       style="font-size:203.04829407px;font-style:normal;font-variant:normal;font-weight:normal;font-stretch:normal;text-align:center;line-height:125%;letter-spacing:0px;word-spacing:0px;writing-mode:lr-tb;text-anchor:middle;fill:#ffffff;fill-opacity:1;stroke:none;font-family:Roadgeek 2005 Blend E5WR;-inkscape-font-specification:Roadgeek 2005 Blend E5WR"
       d="m 471.12783,398.68918 0,31.06599 c -4.03986,3.29106 -8.29535,5.8968 -12.7665,7.81726 -4.47131,1.92049 -9.28518,2.90188 -14.44162,2.94416 -5.36809,-0.0973 -9.35286,-1.78086 -11.95432,-5.05076 -2.60158,-3.26985 -3.89599,-7.54227 -3.88325,-12.81726 0.21177,-7.26323 2.65332,-12.6126 7.32468,-16.04813 4.67124,-3.43544 10.30137,-5.64136 16.8904,-6.61779 6.58887,-0.97631 12.86574,-1.40747 18.83061,-1.29347 z m 18.88324,59.28934 15.83757,-15.43147 c -3.18964,-1.80625 -5.3893,-3.77748 -6.59899,-5.91371 -1.20994,-2.13619 -1.78523,-5.17341 -1.72589,-9.11167 l 0,-45.68528 c 0.1987,-14.46269 -2.88928,-25.13104 -9.26396,-32.00508 -6.37489,-6.87383 -17.22937,-10.2833 -32.56345,-10.22842 -9.14559,0.004 -17.7581,1.06188 -25.83756,3.17259 -8.07958,2.11095 -16.18447,5.24969 -24.31472,9.41624 l 7.91878,19.28934 c 6.09979,-3.59128 12.52956,-6.40854 19.28934,-8.45178 6.75967,-2.04305 13.79858,-3.08366 21.11675,-3.12182 6.51007,-0.038 11.10397,1.35797 13.78173,4.18782 2.67757,2.83004 3.97199,7.32242 3.88325,13.47715 l 0,5.07614 c -9.93679,-0.16536 -20.22694,0.70698 -30.87047,2.61704 -10.64366,1.9102 -19.68545,5.85079 -27.1254,11.82177 -7.44003,5.9711 -11.32296,14.96526 -11.6488,26.98251 0.0973,10.6853 3.15141,19.11169 9.16244,25.27919 6.01096,6.16751 14.39504,9.31471 25.15228,9.44162 6.93733,-0.0338 13.57015,-1.28596 19.89848,-3.75634 6.32816,-2.47039 12.1488,-5.956 17.46192,-10.45685 l 0.4061,0 c 1.15049,3.90864 3.11326,6.90356 5.88832,8.98477 2.77485,2.08122 6.15894,3.5533 10.15228,4.41624 z" />
    <path
       inkscape:connector-curvature="0"
       id="path3021"
       style="font-size:223.03823853px;font-style:normal;font-variant:normal;font-weight:normal;font-stretch:normal;text-align:center;line-height:125%;letter-spacing:0px;word-spacing:0px;writing-mode:lr-tb;text-anchor:middle;fill:#ffffff;fill-opacity:1;stroke:none;font-family:Roadgeek 2005 Blend E5WR;-inkscape-font-specification:Roadgeek 2005 Blend E5WR"
       d="m -224.08329,800.31188 c -0.10698,11.52823 -2.68118,18.86051 -7.7226,21.99685 -5.04163,3.13652 -11.90925,4.50261 -20.60289,4.09828 l -23.19568,0 0,-51.0751 c 4.00063,-0.32977 7.82011,-0.5621 11.45844,-0.69698 3.63819,-0.13462 7.17887,-0.19967 10.62206,-0.19516 10.59409,-0.13461 18.17728,1.75189 22.74961,5.65952 4.57211,3.90789 6.80246,10.64541 6.69106,20.21259 z m 30.33281,-0.66911 c -0.42298,-18.73949 -6.32412,-31.722 -17.70343,-38.94756 -11.37957,-7.22526 -25.70029,-10.67301 -42.96219,-10.34326 -9.38615,0.0141 -18.54918,0.26501 -27.48912,0.75275 -8.94004,0.48804 -16.87638,1.12926 -23.80901,1.92368 l 0,153.00226 30.10977,0 0,-55.53581 28.9946,0 c 18.59546,-0.13934 32.08909,-4.6558 40.48091,-13.5494 8.39157,-8.89345 12.51772,-21.32766 12.37847,-37.30266 z" />
    <path
       inkscape:connector-curvature="0"
       id="path3023"
       style="font-size:223.03823853px;font-style:normal;font-variant:normal;font-weight:normal;font-stretch:normal;text-align:center;line-height:125%;letter-spacing:0px;word-spacing:0px;writing-mode:lr-tb;text-anchor:middle;fill:#ffffff;fill-opacity:1;stroke:none;font-family:Roadgeek 2005 Blend E5WR;-inkscape-font-specification:Roadgeek 2005 Blend E5WR"
       d="m -88.357452,842.6886 0,34.12441 c -4.437574,3.61505 -9.112019,6.47733 -14.023348,8.58685 -4.91151,2.10957 -10.1993,3.18757 -15.86339,3.23402 -5.89657,-0.10685 -10.27363,-1.95619 -13.13121,-5.548 -2.8577,-3.59177 -4.27955,-8.2848 -4.26555,-14.07911 0.23261,-7.97829 2.91454,-13.85431 8.04579,-17.62806 5.13112,-3.77365 11.31552,-6.19675 18.55324,-7.26931 7.23754,-1.07243 14.132361,-1.54603 20.684468,-1.4208 z m 20.742289,65.12632 17.396759,-16.95069 c -3.503653,-1.98407 -5.919868,-4.14937 -7.248653,-6.49591 -1.329056,-2.34649 -1.960988,-5.68273 -1.895797,-10.0087 l 0,-50.18296 c 0.218257,-15.88653 -3.173737,-27.60517 -10.175991,-35.15595 -7.002501,-7.55056 -18.925588,-11.29569 -35.769295,-11.23541 -10.04597,0.005 -19.50638,1.16642 -28.38126,3.48494 -8.875,2.31876 -17.77781,5.76651 -26.70848,10.34326 l 8.69838,21.18836 c 6.70031,-3.94485 13.76309,-7.03946 21.18836,-9.28386 7.42515,-2.24419 15.15704,-3.38724 23.19568,-3.42916 7.15098,-0.0417 12.197147,1.49166 15.138526,4.60011 2.941176,3.10865 4.363026,8.0433 4.265553,14.80397 l 0,5.57588 c -10.915059,-0.18165 -22.218259,0.77658 -33.909639,2.87468 -11.69153,2.09826 -21.62347,6.42679 -29.79588,12.98561 -8.17249,6.55895 -12.43769,16.43858 -12.79561,29.63893 0.10684,11.73726 3.46166,20.99321 10.06447,27.7679 6.60273,6.77469 15.81222,10.23174 27.6285,10.37114 7.62031,-0.0372 14.90612,-1.41256 21.85747,-4.12615 6.951172,-2.7136 13.344846,-6.54237 19.181042,-11.48632 l 0.446071,0 c 1.263758,4.29344 3.419764,7.58321 6.468026,9.86931 3.048032,2.28612 6.765285,3.90312 11.151768,4.85102 z" />
    <path
       inkscape:connector-curvature="0"
       id="path3025"
       style="font-size:223.03823853px;font-style:normal;font-variant:normal;font-weight:normal;font-stretch:normal;text-align:center;line-height:125%;letter-spacing:0px;word-spacing:0px;writing-mode:lr-tb;text-anchor:middle;fill:#ffffff;fill-opacity:1;stroke:none;font-family:Roadgeek 2005 Blend E5WR;-inkscape-font-specification:Roadgeek 2005 Blend E5WR"
       d="m 56.725779,906.25368 0,-22.97265 -6.914096,0 c -9.237447,0.18589 -15.017775,-0.68766 -17.341003,-2.62066 -2.323335,-1.93295 -3.308406,-6.04052 -2.955215,-12.32271 l 0,-62.22686 27.210314,0 0,-23.86479 -27.210314,0 0,-33.4553 -28.77156281,0 0,33.4553 -19.85014719,0 0,23.86479 19.18104109,0 0,63.34204 c -0.39497566,13.89326 1.95618811,23.79974 7.05349851,29.71946 5.0972534,5.91973 15.3104034,8.8006 30.6394784,8.64262 2.964451,-0.009 5.956839,-0.15798 8.977174,-0.44607 3.020199,-0.28809 6.34714,-0.65981 9.980832,-1.11517 z" />
    <path
       inkscape:connector-curvature="0"
       id="path3027"
       style="font-size:223.03823853px;font-style:normal;font-variant:normal;font-weight:normal;font-stretch:normal;text-align:center;line-height:125%;letter-spacing:0px;word-spacing:0px;writing-mode:lr-tb;text-anchor:middle;fill:#ffffff;fill-opacity:1;stroke:none;font-family:Roadgeek 2005 Blend E5WR;-inkscape-font-specification:Roadgeek 2005 Blend E5WR"
       d="m 169.25521,833.54415 -56.20491,0 c 0.0975,-10.86825 2.74608,-19.1856 7.94564,-24.95209 5.19946,-5.76629 12.36446,-8.67504 21.49503,-8.72626 9.89711,0.23244 16.86696,3.50362 20.90957,9.81356 4.04241,6.31013 5.99397,14.26505 5.85467,23.86479 z m 27.43335,9.14445 c -0.0419,-20.36584 -4.64204,-36.22922 -13.80031,-47.59018 -9.15849,-11.36074 -22.62424,-17.13178 -40.39728,-17.31312 -17.10873,-0.037 -31.17854,5.33439 -42.20945,16.11431 -11.03098,10.78014 -16.73696,27.19181 -17.117958,49.23506 0.06969,20.19868 5.283132,36.11781 15.640357,47.75744 10.357161,11.63966 25.439911,17.57798 45.248301,17.81495 8.28939,0.0325 16.18855,-0.98042 23.69751,-3.03885 7.50875,-2.05843 15.07336,-5.35749 22.69384,-9.8972 l -9.81355,-21.18836 c -6.14288,4.09366 -11.97896,7.05816 -17.50828,8.89354 -5.52951,1.83541 -11.3656,2.73685 -17.50827,2.7043 -11.10072,-0.0418 -19.28797,-2.91338 -24.56177,-8.61474 -5.27391,-5.70131 -7.94104,-13.98149 -8.0014,-24.84056 l 83.19219,0 c 0.11603,-2.09091 0.21826,-3.93095 0.30667,-5.52013 0.0882,-1.58907 0.13463,-3.09455 0.1394,-4.51646 z" />
    <path
       inkscape:connector-curvature="0"
       id="path3029"
       style="font-size:223.03823853px;font-style:normal;font-variant:normal;font-weight:normal;font-stretch:normal;text-align:center;line-height:125%;letter-spacing:0px;word-spacing:0px;writing-mode:lr-tb;text-anchor:middle;fill:#ffffff;fill-opacity:1;stroke:none;font-family:Roadgeek 2005 Blend E5WR;-inkscape-font-specification:Roadgeek 2005 Blend E5WR"
       d="m 307.3822,804.32651 7.36017,0 0,-26.54121 -7.80624,0 c -8.82392,-0.0231 -15.98892,1.47309 -21.49503,4.48859 -5.50626,3.01575 -9.93908,7.69019 -13.29848,14.02335 l -0.44607,0 -2.23036,-16.05855 -25.64907,0 0,125.79195 29.44067,0 0,-75.38595 c 0.13934,-10.65915 3.26183,-17.77769 9.36749,-21.35564 6.10551,-3.57776 14.35782,-5.23194 24.75692,-4.96254 z" />
    <path
       inkscape:connector-curvature="0"
       id="path3031"
       style="font-size:223.03823853px;font-style:normal;font-variant:normal;font-weight:normal;font-stretch:normal;text-align:center;line-height:125%;letter-spacing:0px;word-spacing:0px;writing-mode:lr-tb;text-anchor:middle;fill:#ffffff;fill-opacity:1;stroke:none;font-family:Roadgeek 2005 Blend E5WR;-inkscape-font-specification:Roadgeek 2005 Blend E5WR"
       d="m 421.1385,843.13467 c 0.22293,13.10337 -1.78438,23.47451 -6.02195,31.11343 -4.23777,7.63898 -12.044,11.5421 -23.41872,11.70936 -11.57932,-0.16726 -19.47848,-4.07037 -23.69751,-11.70936 -4.21913,-7.63893 -6.20786,-18.01006 -5.96619,-31.11343 -0.26954,-12.38304 1.66343,-22.41033 5.79892,-30.0819 4.13539,-7.67139 12.09031,-11.62097 23.86478,-11.84875 11.66745,0.22779 19.55732,4.17737 23.66963,11.84875 4.11211,7.67157 6.03579,17.69886 5.77104,30.0819 z m 29.88674,0 c 0.009,-19.89654 -4.9162,-35.69486 -14.77609,-47.39502 -9.86014,-11.69994 -24.71056,-17.68472 -44.55132,-17.95435 -20.93285,0.42297 -36.16429,6.71442 -45.69437,18.87438 -9.53014,12.16017 -14.22317,27.65182 -14.0791,46.47499 -0.0604,19.71079 4.79988,35.49052 14.58093,47.33925 9.78099,11.84876 24.84515,17.92646 45.19254,18.23314 20.13349,-0.32061 35.06756,-6.4262 44.80223,-18.31678 9.73444,-11.89055 14.57616,-27.6424 14.52518,-47.25561 z" />
    <path
       inkscape:connector-curvature="0"
       id="path3033"
       style="font-size:223.03823853px;font-style:normal;font-variant:normal;font-weight:normal;font-stretch:normal;text-align:center;line-height:125%;letter-spacing:0px;word-spacing:0px;writing-mode:lr-tb;text-anchor:middle;fill:#ffffff;fill-opacity:1;stroke:none;font-family:Roadgeek 2005 Blend E5WR;-inkscape-font-specification:Roadgeek 2005 Blend E5WR"
       d="m 582.03965,869.89891 c -0.49265,-12.69438 -4.74891,-21.82024 -12.76878,-27.37759 -8.02007,-5.55723 -16.84855,-9.66479 -26.48545,-12.32271 -7.4671,-2.20704 -13.77714,-4.65113 -18.93013,-7.33228 -5.15309,-2.68099 -7.83881,-6.40754 -8.05715,-11.17965 0.12076,-4.85092 2.16525,-8.30797 6.13347,-10.37115 3.96812,-2.06297 9.1351,-3.06663 15.50096,-3.01097 6.12411,0.0326 11.94161,0.91548 17.45252,2.64854 5.51074,1.73328 10.77066,4.12161 15.77975,7.16501 l 7.36017,-20.74229 c -6.7051,-3.4244 -13.64707,-5.88708 -20.82593,-7.38804 -7.17903,-1.50072 -14.51131,-2.23487 -21.99686,-2.20248 -14.85049,0.0698 -26.41115,3.16445 -34.682,9.28386 -8.27092,6.11964 -12.47142,14.84589 -12.6015,26.17877 0.45535,12.28096 4.56291,21.17448 12.32271,26.6806 7.75973,5.50624 16.43951,9.54876 26.03938,12.12755 7.39727,2.17465 13.79095,4.68379 19.18104,7.52744 5.38993,2.84375 8.21505,7.02566 8.47534,12.54574 -0.0326,5.42258 -1.75184,9.35357 -5.1577,11.793 -3.40601,2.43947 -8.30349,3.63828 -14.69245,3.59644 -7.17901,-0.065 -14.17673,-1.32889 -20.9932,-3.7916 -6.81655,-2.46266 -13.20094,-5.73384 -19.15316,-9.81355 l -10.48267,20.96532 c 7.72258,4.57687 15.86336,8.02462 24.42237,10.34326 8.55894,2.31864 17.36883,3.48028 26.4297,3.48493 15.25926,0.0558 27.00578,-3.06673 35.23959,-9.36748 8.23361,-6.30074 12.39693,-16.11428 12.48998,-29.44067 z" />
  </g>
</svg>
