<svg width="402" height="81" viewBox="0 0 402 81" fill="none" xmlns="http://www.w3.org/2000/svg">
<mask id="mask0_227_10988" style="mask-type:luminance" maskUnits="userSpaceOnUse" x="0" y="0" width="402" height="81">
<path d="M401.45 0.799805H0V80.7998H401.45V0.799805Z" fill="white"/>
</mask>
<g mask="url(#mask0_227_10988)">
<path fill-rule="evenodd" clip-rule="evenodd" d="M124.211 70.8346C124.541 71.8346 124.875 72.8286 125.206 73.8286C125.185 72.5518 125.241 71.2748 125.372 70.0046H117.241V70.8346H113.422V51.2406H116.743C117.073 50.2456 117.407 49.4156 117.573 48.7496L122.389 48.9186C122.055 49.5796 121.725 50.2456 121.225 51.2406H127.868V62.5316H117.411V63.5316H130.028V66.3566H117.411V67.3476H129.362C129.198 71.0046 129.032 73.8296 129.032 75.8166C128.698 78.9716 127.371 80.6326 125.211 80.6326H121.559C121.357 79.4553 121.08 78.2923 120.729 77.1506C121.729 77.1506 122.72 77.3116 123.884 77.3116C124.714 77.3116 125.377 76.6476 125.377 75.3206L123.884 75.6506C123.55 74.1556 123.054 72.8296 122.72 71.4986L124.211 70.8346ZM111.256 79.1346L114.247 79.6346C114.577 77.3046 114.911 74.6526 115.242 71.6586L112.751 71.3316C112.587 70.3316 112.587 69.1676 112.421 67.8406C111.591 68.1706 110.926 68.3406 110.261 68.6706V56.7196H112.752V53.0706H104.619V56.7196H106.611V69.8386C105.611 70.1736 104.45 70.5076 103.62 70.8386L104.95 74.6626C107.275 73.6626 109.766 72.6686 112.589 71.6686C112.089 74.4936 111.759 76.9846 111.259 79.1416M100.301 66.1866C101.428 66.7657 102.593 67.2669 103.788 67.6866C102.958 72.4996 102.461 76.8206 101.961 80.4756C100.466 79.9756 99.306 79.4756 98.143 79.1426C98.806 75.3246 99.636 71.0086 100.3 66.1916M100.466 57.7236C102.46 59.5486 103.787 60.8756 104.618 61.7056L101.464 64.6996C100.634 63.5356 99.305 62.2086 97.809 60.5476L100.466 57.7236ZM100.8 49.0846C102.108 50.2681 103.329 51.5452 104.452 52.9056L101.297 55.5656C100.634 54.8966 99.636 53.5716 97.976 51.5746L100.8 49.0846ZM118.734 71.4996L116.411 71.6656C116.577 73.988 116.577 76.3192 116.411 78.6416L119.068 78.4776C119.068 76.6476 118.902 74.1566 118.734 71.4996ZM123.884 57.8836H117.074V59.7096H123.884V57.8836ZM123.884 53.9016H117.074V55.7286H123.884V53.9016ZM119.564 71.6656C119.732 72.9996 120.064 74.6596 120.228 76.6476L122.555 76.3206C122.389 74.6596 122.055 72.9996 121.725 71.3386L119.564 71.6656ZM156.432 64.6956H159.42L159.92 59.5446C159.42 60.0446 158.92 60.5446 158.42 61.0446C157.597 59.8898 156.71 58.7811 155.765 57.7236C158.423 55.1281 160.614 52.0941 162.242 48.7546L166.724 49.2546C166.428 49.8833 166.096 50.4943 165.729 51.0846H180.511V54.5706H163.571C163.072 55.3273 162.517 56.0457 161.911 56.7196H178.517L178.351 64.5266H180.842V67.8476H178.187L178.018 72.3296H180.511V75.6506H178.02C178.105 76.8417 177.752 78.0229 177.027 78.9716C176.299 79.6507 175.361 80.0619 174.368 80.1376C173.207 80.3016 170.881 80.3016 167.395 80.4716C167.063 79.3076 166.729 78.1416 166.395 77.1506C168.389 77.1506 170.05 77.3116 171.214 77.3116C171.773 77.3464 172.333 77.2921 172.875 77.1506C173.375 76.9816 173.538 76.6506 173.705 75.8166H157.927L158.59 68.1776H155.933V64.6956H156.432ZM172.042 62.7016L169.883 64.6956H174.199V60.2096H168.387C169.656 60.9627 170.877 61.7957 172.042 62.7016ZM165.565 62.0346L167.556 60.2096H164.071L163.571 64.6946H169.053L165.565 62.0346ZM165.399 69.8346L167.392 68.0126H163.074L162.574 72.4916H168.552C167.578 71.5181 166.524 70.6292 165.399 69.8346ZM172.041 70.5036L170.047 72.4916H174.034L174.198 68.0126H168.386C169.216 68.5126 170.38 69.3396 172.041 70.5036ZM152.777 48.9196L149.956 51.9096C151.691 53.3196 153.354 54.8165 154.938 56.3946L157.927 53.0736C156.099 51.5736 154.438 50.0796 152.777 48.9216M151.777 57.3856L149.122 60.3766C151.613 62.7036 153.274 64.1946 153.938 64.8586L156.759 61.3766C155.098 60.0433 153.438 58.7129 151.777 57.3856ZM152.941 67.0186C151.941 71.5006 150.947 75.6526 149.786 79.1396C151.248 79.5065 152.689 79.9515 154.104 80.4726C155.099 76.1519 156.095 72.1659 157.093 68.5146C155.652 68.1897 154.257 67.6857 152.941 67.0146M212.728 69.5096L223.188 68.5146V48.9196H227.673V68.1776L231.991 67.8476L232.321 71.9996L227.503 72.4996V80.7996H223.021V72.8296L213.059 73.6596L212.728 69.5096ZM200.273 70.5096C200.858 72.1974 201.356 73.9139 201.766 75.6526C203.063 73.7428 204.228 71.7472 205.255 69.6796V80.6326H209.411V66.6836C210.241 67.5136 211.072 68.5136 212.234 69.8386L214.889 67.3476C213.639 65.9959 212.308 64.7216 210.903 63.5316L209.411 65.0226V62.2046H213.563V58.0526H209.411V54.0626C210.974 53.9498 212.527 53.7279 214.059 53.3986L212.898 49.5806C209.077 50.0806 205.091 50.5806 200.609 50.9076C200.938 52.1612 201.16 53.4404 201.273 54.7316L205.091 54.3976V58.0526H200.443V62.2046H204.925C203.939 65.251 202.359 68.072 200.277 70.5046M217.546 51.2376L214.889 53.8976C216.724 55.3687 218.445 56.9777 220.035 58.7106L223.026 55.7196C221.297 54.1095 219.467 52.6124 217.546 51.2376ZM216.385 59.3766L213.728 62.2016C215.59 63.5811 217.314 65.1377 218.876 66.8496L221.865 63.8616C220.191 62.1889 218.356 60.6865 216.385 59.3766ZM282.975 57.3766H275.175V60.8636H282.148V64.6876C280.834 67.8424 278.851 70.6744 276.336 72.9876C278.66 74.2373 281.109 75.2388 283.643 75.9756C282.643 77.8006 281.652 79.2966 280.984 80.2916C278.034 79.1643 275.244 77.6566 272.684 75.8066C269.896 77.7183 266.885 79.2816 263.718 80.4616C263.054 79.2976 262.223 77.8016 261.227 76.3096C263.949 75.4416 266.566 74.2706 269.027 72.8186C267.154 71.0738 265.483 69.1243 264.045 67.0066L267.698 64.8456C269.03 66.8966 270.654 68.7432 272.517 70.3276C274.417 68.8087 275.95 66.8796 276.999 64.6846H263.211V60.7096H270.353V57.2226H263.211V53.3986H270.353V48.7496H275.004V53.3976H282.804V57.3836L282.975 57.3766ZM252.087 54.5556V58.7096H255.739V64.3576L251.757 65.0186L252.257 69.6736L255.743 68.8436V74.6596C255.79 75.0737 255.671 75.4896 255.413 75.8166C255.072 76.0509 254.665 76.1681 254.252 76.1506C253.528 76.1719 252.804 76.1169 252.091 75.9866C252.591 77.8116 252.921 79.3076 253.252 80.3026C256.243 80.3026 258.234 79.9686 258.9 79.3076C259.62 78.4197 259.976 77.2911 259.895 76.1506V67.6826L262.721 67.0166C262.721 66.0216 262.721 64.6946 262.885 62.8646L260.064 63.5306V58.7096H262.711V54.5626H260.054V48.9196H255.902V54.5626L252.087 54.5556ZM321.004 48.5786C321.504 49.5736 322.165 50.7346 322.665 51.7306H333.129V54.5556H322.331V56.2166H331.961V58.8766H322.331V60.5376H331.961V63.1896H322.331V64.8506H333.456V67.6766H310.537V68.8406H306.221V59.5406C305.555 60.0406 305.06 60.7016 304.394 61.2016C303.915 59.6032 303.303 58.0475 302.566 56.5506C305.187 54.482 307.338 51.8798 308.876 48.9166L313.36 49.9076C313.037 50.6097 312.648 51.2794 312.198 51.9076H317.68C317.35 51.0776 316.85 50.2466 316.519 49.4166L321.004 48.5786ZM310.711 56.3926H318.184V54.7316H310.711V56.3926ZM310.711 60.5446H318.184V58.8836H310.711V60.5446ZM310.711 64.8576H318.184V63.1956H310.711V64.8576ZM316.689 68.5146V70.0096H303.564V73.1596H312.698C309.576 74.8654 306.218 76.0979 302.734 76.8166C303.566 77.9651 304.29 79.1887 304.895 80.4716C309.877 78.8106 313.695 76.8166 316.52 74.3256V80.6326H320.838V73.9906C324.115 77.0125 328.121 79.1311 332.463 80.1386C333.127 78.9726 333.788 77.8116 334.788 76.3206C331.301 75.7939 327.93 74.6705 324.824 72.9996H334.288V69.8396H320.838V68.3436H316.686L316.689 68.5146ZM355.711 80.6326V50.0766H384.771V80.4716H380.619V79.4716H359.696V80.4716H355.711V80.6326ZM380.621 53.3976H359.692V76.3196H380.619L380.621 53.3976ZM360.692 66.8526L361.022 68.8466C366.668 68.6776 372.15 68.5126 377.462 68.5126C377.84 68.7966 378.176 69.1315 378.462 69.5076L380.622 68.0166C379.792 67.1866 378.961 66.3556 377.965 65.5256H378.965V58.0526H371.981V57.0526H379.454V54.8926H371.981V54.0626H368.66V54.8926H361.187V57.0526H368.66V58.0526H361.687V66.3526H365.011V65.5226H368.663V66.8496L360.692 66.8526ZM360.692 69.6776V71.9996H363.847L362.683 72.9996C363.847 73.8296 365.008 74.6606 366.169 75.6516L368.329 73.6606C367.461 73.1651 366.629 72.6101 365.838 71.9996H373.477V72.3296C373.477 72.9986 372.977 73.3296 372.15 73.3296H369.159C369.49 74.4936 369.659 75.3236 369.825 75.8206C371.211 75.8671 372.599 75.8116 373.977 75.6546C375.968 75.4936 376.963 74.4936 376.963 72.8336V72.0036H379.789V69.8436H376.963V69.0096H373.642V69.8396H360.692V69.6776ZM375.638 66.6836C375.472 66.5176 375.303 66.3566 374.972 66.0226L376.133 65.3566H371.817V66.6836H375.638ZM375.472 62.5316H371.817V63.6956H375.472V62.5316ZM365.011 63.6956H368.663V62.5316H365.011V63.6956ZM375.475 59.8746H371.82V60.8746H375.475V59.8746ZM365.011 60.8746H368.663V59.8746H365.011V60.8746Z" fill="#0052A3"/>
<path d="M220.497 18.3008V28.2648C220.482 31.1034 221.592 33.8324 223.583 35.8552C225.575 37.8779 228.286 39.0297 231.125 39.0588H253.544V32.4168H232.291C232.158 32.4224 232.026 32.4004 231.902 32.3522C231.778 32.3039 231.665 32.2305 231.571 32.1364C231.477 32.0424 231.404 31.9299 231.356 31.806C231.307 31.6821 231.285 31.5496 231.291 31.4168V15.8098C231.291 15.1458 231.621 14.6458 232.291 14.6458H253.544V7.67275H231.125C229.724 7.65461 228.334 7.91713 227.036 8.44481C225.739 8.97249 224.56 9.75467 223.569 10.7452C222.579 11.7357 221.797 12.9146 221.269 14.2122C220.741 15.5099 220.479 16.9 220.497 18.3008Z" fill="#0052A3"/>
<path d="M218.007 7.50684H205.386L200.404 13.3178C199.765 13.9551 198.899 14.313 197.996 14.313C197.093 14.313 196.227 13.9551 195.588 13.3178L190.608 7.50684H178.153L189.774 20.7908C190.097 21.1089 190.35 21.4905 190.518 21.9115C190.686 22.3325 190.764 22.7838 190.748 23.2367C190.732 23.6897 190.623 24.1344 190.426 24.5427C190.229 24.951 189.95 25.3141 189.606 25.6088L178.153 39.0578H190.608L195.588 33.2458C196.267 32.668 197.137 32.3648 198.028 32.3955C198.919 32.4262 199.766 32.7887 200.404 33.4118L205.386 39.2238H218.007L206.382 25.7678C206.065 25.452 205.814 25.0767 205.642 24.6635C205.471 24.2503 205.382 23.8072 205.382 23.3598C205.382 22.9124 205.471 22.4694 205.642 22.0562C205.814 21.643 206.065 21.2677 206.382 20.9518L218.007 7.50684Z" fill="#0052A3"/>
<path d="M164.535 7.50665H155.568H147.929C141.452 7.50665 136.138 12.3246 136.138 18.3066V28.2666C136.138 34.2436 141.452 39.0606 147.929 39.0606H164.203C165.646 39.1032 167.083 38.8517 168.426 38.3215C169.768 37.7913 170.989 36.9936 172.014 35.9767C173.039 34.9598 173.846 33.7451 174.387 32.4064C174.928 31.0677 175.19 29.633 175.159 28.1896V18.1576C175.209 16.7477 174.969 15.3424 174.454 14.0291C173.938 12.7159 173.158 11.5227 172.161 10.5238C171.165 9.52488 169.974 8.74157 168.662 8.22252C167.35 7.70348 165.945 7.45981 164.535 7.50665ZM164.203 31.0796C164.175 31.3636 164.038 31.6258 163.822 31.8119C163.606 31.998 163.326 32.0939 163.041 32.0796H147.929C147.644 32.0946 147.364 31.999 147.147 31.8128C146.931 31.6265 146.795 31.3639 146.767 31.0796V15.4756C146.763 15.3221 146.791 15.1694 146.848 15.0268C146.905 14.8842 146.991 14.7547 147.099 14.6461C147.208 14.5375 147.338 14.452 147.48 14.3949C147.623 14.3377 147.775 14.3101 147.929 14.3136H163.205C163.871 14.3136 164.369 14.6476 164.369 15.3136L164.203 31.0796Z" fill="#0052A3"/>
<path d="M98.441 18.1348V39.2238H109.069V29.4238C109.049 29.0914 109.1 28.7584 109.218 28.447C109.336 28.1356 109.519 27.8529 109.755 27.6175C109.99 27.3822 110.273 27.1996 110.585 27.0819C110.897 26.9642 111.23 26.9141 111.562 26.9348H129.827V21.4558H110.062C109.778 21.4279 109.515 21.2913 109.328 21.0745C109.142 20.8576 109.047 20.5773 109.062 20.2918V15.6438C109.047 15.3584 109.142 15.078 109.328 14.8612C109.515 14.6444 109.778 14.5078 110.062 14.4798H131.486V7.50684H108.405C102.922 7.50684 98.441 12.1528 98.441 18.1348Z" fill="#0052A3"/>
<path d="M330.431 7.50684H302.2V39.0578H312.828V15.4748C312.823 15.3424 312.845 15.2103 312.894 15.0869C312.942 14.9636 313.016 14.8516 313.11 14.7581C313.204 14.6646 313.316 14.5916 313.44 14.5437C313.563 14.4958 313.696 14.4741 313.828 14.4798H329.438C329.697 14.4962 329.941 14.6062 330.125 14.7892C330.309 14.9723 330.42 15.2159 330.438 15.4748V39.0578H341.066V18.1348C340.963 15.3477 339.81 12.7027 337.837 10.7312C335.864 8.75966 333.218 7.60774 330.431 7.50684Z" fill="#0052A3"/>
<path d="M374.438 7.34082H346.207V38.8948H356.835V15.4768C356.852 15.2173 356.963 14.9729 357.147 14.789C357.331 14.6051 357.576 14.4942 357.835 14.4768H373.445C373.705 14.4937 373.949 14.6045 374.133 14.7885C374.317 14.9725 374.428 15.2172 374.445 15.4768V39.0588H385.073V17.9668C384.998 15.1707 383.853 12.5099 381.875 10.5329C379.896 8.55584 377.234 7.41332 374.438 7.34082Z" fill="#0052A3"/>
<path d="M286.572 7.50672H277.607H269.97C263.492 7.50672 258.176 12.3207 258.176 18.3007V28.2667C258.176 34.2447 263.492 39.0607 269.97 39.0607H286.246C287.689 39.1031 289.125 38.8515 290.468 38.3213C291.81 37.791 293.031 36.9931 294.055 35.9762C295.08 34.9592 295.887 33.7445 296.427 32.4059C296.967 31.0673 297.229 29.6328 297.197 28.1897V18.1577C297.248 16.7476 297.008 15.3422 296.492 14.0288C295.976 12.7154 295.196 11.5221 294.199 10.5232C293.203 9.5242 292.011 8.74091 290.699 8.22198C289.387 7.70306 287.982 7.45959 286.572 7.50672ZM285.242 14.3137C285.906 14.3137 286.403 14.6477 286.403 15.3137L286.29 31.0797C286.261 31.3633 286.125 31.625 285.909 31.811C285.693 31.997 285.414 32.0932 285.129 32.0797H277.603H269.966C269.682 32.0953 269.402 32.0005 269.186 31.8152C268.97 31.6298 268.833 31.3682 268.805 31.0847V15.4737C268.801 15.3201 268.828 15.1673 268.885 15.0246C268.942 14.8819 269.027 14.7522 269.136 14.6436C269.245 14.5349 269.374 14.4496 269.517 14.3927C269.66 14.3358 269.812 14.3086 269.966 14.3127L285.242 14.3137Z" fill="#0052A3"/>
<path d="M392.783 7.82362H396.519C397.04 7.80513 397.56 7.89679 398.043 8.09262C398.407 8.24942 398.713 8.51667 398.918 8.85667C399.122 9.19668 399.214 9.59226 399.182 9.98762C399.198 10.4028 399.092 10.8136 398.876 11.1686C398.66 11.4841 398.367 11.7386 398.024 11.9076C398.305 12.0068 398.554 12.1795 398.746 12.4076C398.936 12.7097 399.031 13.062 399.018 13.4186L399.058 14.4966C399.058 14.7258 399.083 14.9542 399.134 15.1776C399.151 15.2818 399.193 15.3805 399.255 15.4661C399.316 15.5516 399.397 15.6216 399.491 15.6706V15.8516H398.129C398.087 15.7667 398.057 15.6761 398.041 15.5826C398.009 15.373 397.989 15.1616 397.983 14.9496L397.918 13.6096C397.93 13.3964 397.881 13.1841 397.778 12.9972C397.674 12.8104 397.52 12.6566 397.333 12.5536C397.024 12.439 396.694 12.3893 396.365 12.4076H393.896V15.8516H392.783V7.82362ZM396.4 11.5016C396.825 11.5248 397.248 11.4181 397.611 11.1956C397.769 11.0623 397.891 10.8923 397.968 10.7005C398.045 10.5087 398.073 10.301 398.051 10.0956C398.075 9.86135 398.029 9.62515 397.919 9.417C397.809 9.20885 397.639 9.03817 397.432 8.92662C397.153 8.80589 396.851 8.74982 396.547 8.76262H393.897V11.5016H396.4Z" fill="#0052A3"/>
<path d="M395.649 17.6347C394.502 17.6347 393.381 17.2945 392.427 16.6572C391.473 16.0199 390.73 15.114 390.291 14.0542C389.852 12.9944 389.737 11.8282 389.961 10.7031C390.184 9.57806 390.737 8.5446 391.548 7.73345C392.359 6.92231 393.393 6.36991 394.518 6.14612C395.643 5.92232 396.809 6.03718 397.869 6.47617C398.929 6.91516 399.834 7.65856 400.472 8.61236C401.109 9.56617 401.449 10.6875 401.449 11.8347C401.448 13.3724 400.836 14.8468 399.749 15.9341C398.661 17.0215 397.187 17.6331 395.649 17.6347ZM395.649 6.45167C394.584 6.45147 393.543 6.76715 392.657 7.35879C391.771 7.95043 391.081 8.79144 390.673 9.77546C390.266 10.7595 390.159 11.8423 390.367 12.887C390.574 13.9317 391.087 14.8913 391.84 15.6444C392.594 16.3976 393.553 16.9105 394.598 17.1182C395.642 17.326 396.725 17.2193 397.709 16.8116C398.693 16.4039 399.534 15.7135 400.126 14.8278C400.718 13.9421 401.033 12.9008 401.033 11.8357C401.031 10.4083 400.463 9.03995 399.454 8.03065C398.445 7.02136 397.076 6.45352 395.649 6.45167Z" fill="#0052A3"/>
<path fill-rule="evenodd" clip-rule="evenodd" d="M44.505 7.7998V29.7188H29.724V7.7998H0.166L0 81.0328H29.56V58.9478H44.173L44.336 80.8668H73.9V7.7998H44.505ZM66.426 73.5598H51.809V58.7818C51.7042 56.9379 50.9137 55.1997 49.5927 53.9089C48.2718 52.6181 46.5159 51.868 44.67 51.8058H29.724C25.906 51.8058 22.251 55.1268 22.251 58.7818V73.7288H7.473V15.1048H22.251V37.0238H55.3C60.614 37.0238 66.426 43.0018 66.426 48.3158V73.5598Z" fill="#E73534"/>
<path d="M79.968 2.74374H84.042C84.6099 2.72588 85.1753 2.82528 85.703 3.03574C86.0998 3.20762 86.4328 3.49957 86.655 3.87053C86.8773 4.24148 86.9776 4.67278 86.942 5.10374C86.963 5.55594 86.8484 6.0041 86.613 6.39074C86.379 6.73599 86.0583 7.01361 85.683 7.19574C85.9903 7.30512 86.2629 7.49425 86.473 7.74374C86.6813 8.07191 86.7859 8.45525 86.773 8.84374L86.813 10.0187C86.8164 10.27 86.8449 10.5202 86.898 10.7657C86.9173 10.8789 86.9624 10.986 87.0299 11.0788C87.0974 11.1716 87.1854 11.2475 87.287 11.3007V11.4947H85.795C85.7482 11.4026 85.7146 11.3043 85.695 11.2027C85.6622 10.9737 85.6421 10.743 85.635 10.5117L85.563 9.05374C85.5776 8.82111 85.5255 8.58915 85.4128 8.38509C85.3002 8.18104 85.1316 8.01336 84.927 7.90174C84.5895 7.77767 84.2301 7.72391 83.871 7.74374H81.181V11.4957H79.968V2.74374ZM83.913 6.75374C84.3748 6.77829 84.833 6.6618 85.227 6.41974C85.4006 6.27538 85.5356 6.09015 85.6199 5.88069C85.7043 5.67124 85.7352 5.44412 85.71 5.21974C85.737 4.96369 85.687 4.7054 85.5664 4.47791C85.4458 4.25043 85.2601 4.06409 85.033 3.94274C84.7289 3.81011 84.3985 3.74888 84.067 3.76374H81.18V6.75374H83.913Z" fill="#E73534"/>
<path d="M83.095 13.4379C81.8451 13.4375 80.6234 13.0665 79.5843 12.3718C78.5453 11.6771 77.7355 10.6899 77.2575 9.53503C76.7794 8.38016 76.6546 7.10949 76.8987 5.88366C77.1427 4.65783 77.7448 3.5319 78.6288 2.64823C79.5127 1.76456 80.6388 1.16284 81.8647 0.919145C83.0907 0.675449 84.3613 0.800722 85.516 1.27913C86.6707 1.75753 87.6576 2.56758 88.352 3.60686C89.0464 4.64613 89.417 5.86796 89.417 7.11785C89.4151 8.7938 88.7484 10.4005 87.5631 11.5854C86.3779 12.7703 84.7709 13.4365 83.095 13.4379ZM83.095 1.24885C81.934 1.24885 80.799 1.59315 79.8337 2.2382C78.8683 2.88324 78.116 3.80007 77.6717 4.87273C77.2275 5.94539 77.1113 7.12571 77.3378 8.2644C77.5644 9.4031 78.1236 10.449 78.9446 11.2699C79.7657 12.0908 80.8117 12.6498 81.9504 12.8762C83.0891 13.1026 84.2694 12.9862 85.342 12.5417C86.4146 12.0973 87.3313 11.3448 87.9762 10.3793C88.6211 9.41388 88.9652 8.27887 88.965 7.11785C88.9629 5.56177 88.3437 4.07005 87.2433 2.96983C86.1429 1.86961 84.6511 1.25071 83.095 1.24885Z" fill="#E73534"/>
<path d="M66.605 73.8728H51.962V59.0608C51.8578 57.2123 51.0656 55.4697 49.7413 54.1759C48.417 52.8821 46.6564 52.1308 44.806 52.0698H29.831C26.006 52.0698 22.343 55.3978 22.343 59.0608V74.0378H7.53296V15.2998H22.342V37.2608H55.456C60.78 37.2608 66.604 43.2508 66.604 48.5738L66.605 73.8728Z" fill="white"/>
</g>
</svg>
