<svg xmlns="http://www.w3.org/2000/svg" width="1980" height="910"><defs><style>.a{fill:#fff}.b{fill:#0d69e1}</style></defs>
<title>5.21.2 Указатель направлений</title>
<rect class="a" x="1" y="1" width="1978" height="908" rx="39"/><path d="M1940 2a38.043 38.043 0 0 1 38 38v830a38.043 38.043 0 0 1-38 38H40a38.043 38.043 0 0 1-38-38V40A38.043 38.043 0 0 1 40 2h1900m0-2H40A40 40 0 0 0 0 40v830a40 40 0 0 0 40 40h1900a40 40 0 0 0 40-40V40a40 40 0 0 0-40-40z"/><path class="b" d="M15 300h1950v245H15zM1965 40v245H15V40a25 25 0 0 1 25-25h1900a25 25 0 0 1 25 25z"/><path class="a" d="M184.291 483.571v-44.166h88.333v-47.953h-88.333v-44.166L68.195 416.69l116.096 66.881zM102.91 161.881h44.166v88.333h47.953v-88.333h44.166L169.791 45.786 102.91 161.881z"/><path d="M1774.619 641.857v44.167h-88.333v47.952h88.333v44.167l116.095-69.405-116.095-66.881zM262.479 630.244h33.58v9.472h-23.247v38.745h-10.333zM352.269 654.353c0 15.498-9.47 25.83-22.386 25.83-12.915 0-22.386-10.332-22.386-25.83s9.47-25.83 22.386-25.83c12.915 0 22.386 10.331 22.386 25.83zm-34.44 0c0 10.332 5.166 17.22 12.054 17.22s12.054-6.888 12.054-17.22-5.166-17.22-12.054-17.22-12.054 6.888-12.054 17.22zM408.48 643.16l-9.717 3.69c-1.845-6.274-5.781-9.717-10.947-9.717-6.888 0-12.054 6.888-12.054 17.22s5.166 17.22 12.054 17.22c5.166 0 9.102-3.444 10.947-9.718l9.717 3.69c-3.32 9.226-11.07 14.638-20.664 14.638-12.915 0-23.247-10.332-23.247-25.83s10.332-25.83 23.247-25.83c9.594 0 17.343 5.412 20.664 14.636zM417.459 630.244h39.237v9.472h-14.391v38.745h-10.332v-38.745h-14.514zM472.562 679.076a7.503 7.503 0 1 1 7.502-7.503 7.506 7.506 0 0 1-7.502 7.503zM557.739 630.214h7.749l-12.054 20.664 12.054 20.664h-7.75l-12.053-20.664zm15.56.03h7.749l-12.054 20.664 12.054 20.665h-7.75l-12.053-20.665zM621.76 609.58c12.915 0 20.173 9.84 20.173 18.942 0 5.166-3.813 11.194-9.84 13.777 6.887 2.583 12.053 7.749 12.053 15.498 0 11.193-9.47 20.664-22.263 20.664H595.07v-68.88zm-14.637 28.045H620.9c5.166 0 8.61-3.69 8.61-8.856 0-6.028-4.305-8.857-8.61-8.857h-13.776zm0 30.504h14.637a10.332 10.332 0 1 0 0-20.664h-14.637zM668.5 656.075c.86-5.167.86-30.997.86-46.495h43.051v68.88h-12.054v-58.548h-18.942s0 25.83-.861 34.44c-2.46 24.109-23.247 25.83-23.247 25.83l-1.968-11.56s11.562-3.076 13.161-12.547zM764.316 609.58l22.386 68.88h-12.915l-4.305-13.775h-24.108l-4.305 13.776h-12.915l22.386-68.88zm1.722 44.773-8.61-29.275-8.61 29.275zM805.03 668.129c3.443-8.61 7.748-31.611 7.748-48.217V609.58h40.467v58.549h7.75v22.386h-10.333V678.46h-43.05v12.054H797.28v-22.386zm36.161 0v-48.217h-16.359c0 16.36-3.443 37.024-8.118 48.217zM874.154 609.58h12.054v47.356l24.97-47.356h12.915v68.88h-12.055v-47.355l-24.969 47.356h-12.915zM946.724 609.58h12.053l15.5 33.58 15.497-33.58h12.054l7.75 68.88h-12.916l-4.305-50.799-18.08 40.468-18.083-40.468-4.304 50.8h-12.915zM1024.46 609.58h12.054v47.356l24.97-47.356h12.914v68.88h-12.054v-47.355l-24.969 47.356h-12.915zM1115.972 609.58c16.36 0 22.385 12.915 22.385 22.387 0 9.47-6.026 22.386-22.385 22.386h-11.194v24.108h-12.053v-68.88zm-11.194 34.44h7.75c6.888 0 13.776-3.444 13.776-12.053 0-8.61-6.888-12.055-13.777-12.055h-7.749zM1173.043 650.908l-12.055 20.665h-7.749l12.055-20.665-12.055-20.664h7.75zm15.56-.03-12.054 20.664h-7.75l12.055-20.664-12.055-20.664h7.75z"/><g><path d="M302.085 759.575v34.44h-10.332v-33.578a6.721 6.721 0 0 0-6.888-6.89c-4.937 0-9.47 4.307-12.053 9.473v30.996h-10.333v-68.881h10.333v27.553s6.026-7.75 14.636-7.75c9.471 0 14.637 6.027 14.637 14.637zM358.296 769.907c0 15.498-9.47 25.83-22.386 25.83-12.915 0-22.387-10.332-22.387-25.83s9.472-25.83 22.387-25.83c12.915 0 22.386 10.332 22.386 25.83zm-34.44 0c0 10.332 5.166 17.22 12.054 17.22s12.054-6.888 12.054-17.22-5.166-17.22-12.054-17.22-12.054 6.888-12.054 17.22zM387.815 745.799h13.776v9.472h-13.776v24.968c0 3.445 3.446 5.09 6.027 5.166.105.003.21.005.317.005a15.888 15.888 0 0 0 7.064-1.726l2.09 9.47a51.53 51.53 0 0 1-10.331 1.723c-8.699 0-15.498-3.444-15.498-12.055v-27.551h-6.889v-9.472h6.889V729.44l10.332-4.305zM426.806 773.352c0 10.332 8.61 12.915 12.915 12.915s6.888-2.214 10.332-6.52l8.61 4.798a23.015 23.015 0 0 1-19.803 11.192c-12.792 0-23.493-10.086-23.493-25.338 0-7.749 1.353-13.407 4.92-17.712a23.872 23.872 0 0 1 17.712-8.61c12.054 0 22.386 11.193 22.386 24.109 0 2.583-1.107 5.166-2.583 5.166zm0-8.61h21.525c.615 0 .861-.862.861-1.722 0-5.043-6.027-10.332-11.193-10.332s-11.193 5.166-11.193 12.053zM487.322 725.135V781.1c0 3.444 1.722 4.304 4.305 4.304a18.781 18.781 0 0 0 5.166-.86l1.722 9.47a21.389 21.389 0 0 1-6.888.862h-5.166c-6.397 0-9.471-3.198-9.471-8.61v-61.132zM575.82 745.769h7.75l-12.054 20.664 12.053 20.664h-7.749l-12.054-20.664zm15.56.03h7.749l-12.054 20.664 12.054 20.665h-7.75l-12.053-20.665zM610.567 725.135h13.777l13.776 51.66 13.776-51.66h12.915l-18.942 68.88h-15.498zM680.554 725.135h12.053v58.549h30.997v10.332h-43.05zM772.065 725.135l22.386 68.88h-12.915l-4.305-13.776h-24.108l-4.305 13.777h-12.915l22.386-68.881zm1.722 44.772-8.61-29.274-8.61 29.274zM863.209 759.575c0 19.927-10.824 34.44-29.767 34.44h-23.247v-68.88h23.247c18.943 0 29.767 14.514 29.767 34.44zm-40.96-24.108v48.217h10.332c9.472 0 18.081-7.75 18.081-24.109s-8.61-24.108-18.081-24.108zM878.46 725.135h12.054v68.88H878.46zM907.98 725.135h13.776l18.942 31.857 18.942-31.857h13.776v68.88h-11.193l-.86-49.938-20.665 36.162-20.665-36.162v49.939H907.98zM990.882 725.135h12.054v68.88h-12.054zM1045.371 725.135c17.22 0 21.525 12.054 21.525 18.942 0 9.47-6.027 15.498-12.915 18.081 11.193 2.583 14.637 28.413 22.386 31.858h-14.637c-2.686-3.581-4.908-10.886-8.115-17.075-2.96-5.714-4.8-10.478-12.55-10.478h-6.887v27.553h-12.055v-68.881zm-11.193 30.996h7.749c6.887 0 12.915-2.951 12.915-10.332 0-7.38-6.028-10.332-12.915-10.332h-7.75zM1108.469 766.463l-12.055 20.665h-7.749l12.055-20.665-12.055-20.664h7.749zm15.56-.03-12.054 20.664h-7.75l12.054-20.664-12.054-20.664h7.75z"/></g><path d="M1620.67 669.72c8.61 0 18.45 6.151 18.45 15.622s-6.889 16.36-13.776 17.22c4.304.86 16.728 6.027 16.728 17.22 0 10.332-8.98 22.386-25.339 22.386-6.887 0-17.588-2.952-17.588-2.952l-1.477-12.054c4.183 2.83 11.686 3.814 17.344 3.814 7.749 0 14.636-3.445 14.76-11.44 0-2.952-.984-10.086-12.177-10.086-2.091 0-4.306 0-6.028.86v-9.47c8.61-1.722 15.498-7.75 15.498-12.915 0-4.305-4.304-7.75-8.61-7.75-6.888 0-10.332 1.723-15.252 5.905l-4.55-10.209c4.304-2.583 15.128-6.15 22.017-6.15z"/><path class="a" d="M1611.075 396.045v16.36c2.583-3.445 7.257-4.306 11.194-4.306a21.104 21.104 0 0 1 20.664 21.525c0 13.776-10.332 24.97-26.692 24.97-7.749 0-16.36-3.445-16.36-3.445l-1.72-11.193c4.18 2.83 10.7 3.444 16.359 3.444 6.887 0 15.498-4.304 15.498-12.915 0-6.027-4.305-12.915-12.055-12.915-5.166 0-8.61 4.305-10.332 5.166l-7.75-4.305v-33.58h39.607l-3.443 11.194z"/><g><path class="a" d="M341.285 383.991h12.054v28.413h11.808c1.722-17.096 10.824-30.134 27.798-30.134 18.943 0 28.045 16.236 28.045 36.162s-9.102 36.162-28.045 36.162c-17.589 0-26.691-13.899-27.921-31.858h-11.685v30.136h-12.054zm51.66 59.41c9.472 0 16.36-9.471 16.36-24.97s-6.889-24.968-16.36-24.968-16.359 9.47-16.359 24.969 6.888 24.97 16.36 24.97zM460.84 383.991c16.36 0 22.387 12.915 22.387 22.387 0 9.47-6.028 22.386-22.387 22.386h-11.193v24.108h-12.054v-68.88zm-11.193 34.44h7.749c6.888 0 13.776-3.444 13.776-12.053 0-8.61-6.888-12.055-13.776-12.055h-7.749zM502.414 383.991h12.054v26.692h14.637c17.22 0 21.525 11.193 21.525 19.803 0 8.61-6.027 22.386-23.247 22.386h-24.97zm24.108 58.549c7.749 0 12.054-3.444 12.054-10.332s-4.305-11.193-12.054-11.193h-12.054v21.525zM564.65 383.991h43.05v11.194h-30.996v16.359h24.97v10.332h-24.97v20.664h31.858v10.332H564.65zM653.578 383.991c12.915 0 20.172 9.841 20.172 18.943 0 5.166-3.813 11.193-9.84 13.776 6.888 2.583 12.054 7.749 12.054 15.498 0 11.193-9.471 20.664-22.263 20.664h-26.815v-68.88zm-14.638 28.045h13.777c5.166 0 8.61-3.69 8.61-8.856 0-6.028-4.306-8.857-8.61-8.857H638.94zm0 30.504h14.638a10.332 10.332 0 1 0 0-20.664H638.94zM689.124 423.598h24.108v11.193h-24.108zM728.977 383.991h49.938v68.881H766.86v-58.549h-25.83v58.55h-12.053zM850.255 418.432c0 19.926-9.103 36.162-28.045 36.162s-28.044-16.236-28.044-36.162 9.102-36.162 28.044-36.162 28.045 16.236 28.045 36.162zm-44.404 0c0 15.498 6.888 24.97 16.359 24.97 9.472 0 16.36-9.472 16.36-24.97s-6.888-24.97-16.36-24.97c-9.47 0-16.36 9.472-16.36 24.97zM874.115 430.486c.862-5.166.862-30.997.862-46.495h43.05v68.881h-12.054v-58.549H887.03s0 25.83-.861 34.44c-2.46 24.11-23.247 25.83-23.247 25.83l-1.969-11.56s11.563-3.076 13.161-12.547zM936.353 383.991h12.053v26.692h14.638c17.22 0 21.524 11.193 21.524 19.803 0 8.61-6.026 22.386-23.247 22.386h-24.968zm24.108 58.549c7.749 0 12.054-3.444 12.054-10.332s-4.305-11.193-12.054-11.193h-12.055v21.525zM1048.527 401.212l-11.562 4.305c-2.583-8.61-7.022-12.054-13.407-12.054-9.471 0-16.36 9.47-16.36 24.969s6.889 24.97 16.36 24.97c6.385 0 10.824-3.445 13.407-12.055l11.562 4.305c-4.305 11.193-11.883 18.942-24.97 18.942-18.942 0-28.043-16.19-28.043-36.162s9.101-36.162 28.044-36.162c13.086 0 20.664 7.749 24.97 18.942zM1062.549 383.991h12.054v25.707c.246.246.738.246 1.353.246 12.546 0 16.113-25.953 33.948-27.674l2.583 12.053c-6.641 0-8.364 3.69-12.053 8.61-3.322 4.305-8.734 12.054-12.055 12.054 8.61.862 11.193 7.258 15.498 14.638 5.043 8.733 9.472 18.573 15.498 23.247h-15.006c-2.214-4.305-9.102-15.498-13.407-23.247-3.075-5.412-6.027-8.61-11.193-8.61-1.722 0-5.167.369-5.167.369v31.488h-12.053zM1131.675 383.991h12.054v47.356l24.97-47.356h12.914v68.881h-12.054v-47.355l-24.97 47.355h-12.914zM1199.94 383.991h12.053v47.356l24.97-47.356h12.915v68.881h-12.055v-47.355l-24.969 47.355h-12.915zm14.636-22.386c0 5.166 3.445 9.471 10.332 9.471 6.889 0 10.332-4.305 10.332-9.47h7.75a17.957 17.957 0 0 1-18.082 17.22c-12.054 0-18.942-10.333-18.942-17.22z"/></g><g><path class="a" d="M1507.02 113.257c9.471 0 19.803 7.749 19.803 18.08 0 8.611-1.6 11.317-6.027 16.73-5.412 6.887-13.53 14.39-22.387 23.739h28.414a33.718 33.718 0 0 1-2.583 11.193h-41.329v-10.332a262.035 262.035 0 0 0 25.093-26.077c4.182-4.92 7.257-8.364 7.257-15.252 0-4.305-3.936-8.98-9.963-8.98-5.166 0-9.472 4.675-13.777 8.98l-6.887-7.75c5.166-5.903 12.053-10.331 22.386-10.331zM1562 112.273c8.61 0 18.45 6.15 18.45 15.621s-6.888 16.36-13.776 17.22c4.305.861 16.728 6.027 16.728 17.22 0 10.333-8.98 22.387-25.339 22.387-6.887 0-17.588-2.952-17.588-2.952l-1.477-12.055c4.183 2.83 11.686 3.813 17.344 3.813 7.749 0 14.637-3.443 14.76-11.439 0-2.952-.984-10.086-12.177-10.086-2.091 0-4.306 0-6.028.861v-9.47c8.61-1.723 15.499-7.75 15.499-12.916 0-4.305-4.305-7.749-8.61-7.749-6.889 0-10.333 1.722-15.253 5.904l-4.55-10.21c4.304-2.582 15.128-6.149 22.017-6.149zM1637.274 114.118v44.772h9.472l-3.936 10.333h-4.674v13.776h-12.054v-13.776h-32.719V158.89l33.58-44.772zm-30.996 44.772h19.804V132.2z"/></g><g><path class="a" d="M341.285 114.118h12.054v27.552h25.83v-27.552h12.054v68.88H379.17v-30.996h-25.83V183h-12.054zM409.55 114.118h12.054v47.355l24.969-47.355h12.915v68.88h-12.054v-47.355L422.464 183H409.55zM487.285 159.751c4.305-7.38 6.888-13.776 15.13-14.268-3.076-.369-8.734-7.872-11.686-12.423-3.444-5.166-5.412-8.241-12.054-8.241l3.444-11.562a18.465 18.465 0 0 1 11.193 4.305c8.856 7.749 11.932 22.878 21.157 22.878h.368a1.434 1.434 0 0 0 .862-.246v-26.076h12.053v26.076a1.434 1.434 0 0 0 .862.246h.368c9.226 0 12.3-15.129 21.157-22.878a18.465 18.465 0 0 1 11.193-4.305l3.444 11.562c-6.642 0-8.61 3.075-12.054 8.241-2.952 4.551-8.61 12.054-11.685 12.423 8.24.492 10.824 6.888 15.129 14.268 5.043 8.733 8.61 18.574 14.637 23.248h-15.498c-2.583-4.306-8.61-15.498-12.915-23.248-3.075-5.412-6.027-8.61-9.471-8.61-1.722 0-5.166.37-5.166.37v31.488h-12.054V151.51s-3.445-.369-5.166-.369c-3.445 0-6.397 3.198-9.471 8.61-4.306 7.75-10.332 18.942-12.915 23.248h-15.499c6.027-4.674 9.594-14.515 14.637-23.248zM583.962 114.118h12.055v27.552h25.83v-27.552h12.054v68.88h-12.054v-30.996h-25.83V183h-12.055zM652.227 114.118h12.054v47.355l24.97-47.355h12.915v68.88h-12.055v-47.355L665.143 183h-12.916zM720.492 114.118h12.054v47.355l24.97-47.355h12.915v68.88h-12.055v-47.355L733.407 183h-12.915zm14.637-22.386c0 5.166 3.444 9.47 10.332 9.47 6.889 0 10.332-4.304 10.332-9.47h7.749a17.957 17.957 0 0 1-18.081 17.22c-12.054 0-18.943-10.332-18.943-17.22zM846.198 114.118h12.054v27.552h25.83v-27.552h12.055v68.88h-12.055v-30.996h-25.83V183h-12.054zM967.477 148.558c0 19.926-9.103 36.163-28.045 36.163s-28.044-16.237-28.044-36.163 9.101-36.162 28.044-36.162 28.045 16.236 28.045 36.162zm-44.405 0c0 15.498 6.889 24.97 16.36 24.97s16.359-9.472 16.359-24.97-6.888-24.97-16.36-24.97c-9.47 0-16.359 9.472-16.359 24.97zM1009.419 114.118c12.915 0 20.172 9.84 20.172 18.942 0 5.166-3.814 11.193-9.84 13.776 6.888 2.583 12.054 7.75 12.054 15.498 0 11.193-9.471 20.664-22.263 20.664h-26.814v-68.88zm-14.638 28.044h13.777c5.166 0 8.61-3.69 8.61-8.856 0-6.027-4.306-8.856-8.61-8.856H994.78zm0 30.505h14.638a10.332 10.332 0 1 0 0-20.665h-14.638zM1047.548 114.118h43.05v10.332h-30.996V183h-12.054zM1157.633 148.558c0 19.926-9.103 36.163-28.045 36.163s-28.044-16.237-28.044-36.163 9.102-36.162 28.044-36.162 28.045 16.236 28.045 36.162zm-44.404 0c0 15.498 6.888 24.97 16.359 24.97 9.472 0 16.36-9.472 16.36-24.97s-6.888-24.97-16.36-24.97c-9.47 0-16.36 9.472-16.36 24.97zM1196.13 114.118c16.36 0 22.387 12.915 22.387 22.386s-6.027 22.386-22.386 22.386h-11.194V183h-12.053v-68.88zm-11.193 34.44h7.75c6.888 0 13.776-3.444 13.776-12.054s-6.888-12.054-13.776-12.054h-7.75zM1290.719 148.558c0 19.926-9.103 36.163-28.045 36.163s-28.044-16.237-28.044-36.163 9.101-36.162 28.044-36.162 28.045 16.236 28.045 36.162zm-44.405 0c0 15.498 6.89 24.97 16.36 24.97 9.472 0 16.36-9.472 16.36-24.97s-6.888-24.97-16.36-24.97c-9.47 0-16.36 9.472-16.36 24.97zM1308.553 172.667c3.443-8.61 7.749-31.612 7.749-48.217v-10.332h40.467v58.549h7.749v22.386h-10.332v-12.054h-43.05v12.054h-10.332v-22.386zm36.162 0V124.45h-16.36c0 16.36-3.443 37.023-8.118 48.216z"/></g><path d="M1965 545v325a25 25 0 0 1-25 25H40a25 25 0 0 1-25-25V545h15v325a10 10 0 0 0 10 10h1900a10 10 0 0 0 10-10V545z"/>
</svg>