<?xml version="1.0" encoding="utf-8"?>
<svg version="1.1" id="Layer_1" xmlns="http://www.w3.org/2000/svg" xmlns:xlink="http://www.w3.org/1999/xlink" x="0px" y="0px"
	 width="90px" height="34.4px" viewBox="0 0 90 34.4" style="enable-background:new 0 0 90 34.4;" xml:space="preserve">
<style type="text/css">
	.st0{fill:#e35302;}
</style>
<path id="XMLID_22_" class="st0" d="M90,10.8c0,6-4.8,10.8-10.8,10.8h-7.4v12.6h-8.5V0h15.8C85.2,0,90,4.9,90,10.8z M77.8,7.1h-5.9
	v7.1h5.9c1.9,0,3.4-1.7,3.4-3.5C81.2,8.8,79.7,7.1,77.8,7.1z M49.9,0v13.9H38.1V0h-8.5v34.3h8.5V21.7h11.8v12.6h8.5V0H49.9z
	 M26.3,25c0,5.7-5.1,9.3-10.5,9.3H0V0h15.3c5.6,0,10.2,4.1,10.2,9.2c0,4-1.9,6.2-4.5,7.8C24,18.3,26.3,20.2,26.3,25z M14.1,20.5H8.5
	v6.6h5.6c2.2,0,3.4-1.5,3.4-3.3C17.5,22,15.9,20.5,14.1,20.5z M13.3,7.1H8.5v7.1h4.8c2.2,0,3.4-1.7,3.4-3.5
	C16.7,8.8,15.5,7.1,13.3,7.1z"/>
</svg>
