<?xml version="1.0" encoding="utf-8"?>
<!-- Generator: Adobe Illustrator 25.0.0, SVG Export Plug-In . SVG Version: 6.00 Build 0)  -->
<svg version="1.1" id="レイヤー_1" xmlns="http://www.w3.org/2000/svg" xmlns:xlink="http://www.w3.org/1999/xlink" x="0px"
	 y="0px" width="192px" height="24px" viewBox="0 0 192 24" style="enable-background:new 0 0 192 24;" xml:space="preserve">
<style type="text/css">
	.st0{fill:#231815;}
	.st1{fill:#A1D2EA;}
</style>
<g>
	<g>
		<path class="st0" d="M41.339,0.861h-2.686c0,4.164-1.848,6.745-5.65,7.891l0.775,2.572c1.222-0.368,2.301-0.867,3.234-1.489V23.28
			h2.686V7.12C40.781,5.428,41.339,3.329,41.339,0.861z"/>
		<polygon class="st0" points="51.799,14.463 57.99,14.463 57.99,11.777 51.799,11.777 51.799,6.886 59.324,6.886 59.324,4.2 
			50.86,4.2 52.359,2.157 49.418,0 47.83,2.166 50.603,4.2 41.587,4.2 41.587,6.886 49.113,6.886 49.113,11.777 42.921,11.777 
			42.921,14.463 49.113,14.463 49.113,20.61 41.133,20.61 41.133,23.296 59.779,23.296 59.779,20.61 51.799,20.61 		"/>
		<path class="st0" d="M115.763,2.548v14.198c0,2.983-0.86,3.476-2.284,4.293l-0.081,0.047l1.338,2.329l0.08-0.046
			c1.703-0.977,3.633-2.084,3.633-6.623V7.643l19.731-0.031V2.53L115.763,2.548z M118.449,4.566h17.045v1.05h-17.045V4.566z"/>
		<path class="st0" d="M129.858,17.566v-0.947l7.069-0.004V11.57l-7.069-0.004V10.62l6.232,0.002l0.001-1.961l-15.15-0.004
			l-0.001,1.961l6.232,0.002v0.947l-7.069,0.004v5.045l7.069,0.004v0.947l-7.728,0.012v6.157h2.686v-4.208h5.042v1.041l-3.392-0.007
			l-0.004,1.961l7.734,0.015v0.508h1.591v-2.951h-1.591v0.481l-1.652-0.003v-1.046h5.006v2.389h-0.84v1.961l3.526-0.004v-6.296
			L129.858,17.566z M134.241,13.527v1.131h-4.383v-1.131H134.241z M122.788,14.658v-1.131h4.383v1.131H122.788z"/>
		<polygon class="st0" points="146.201,4.962 149.613,7.977 151.273,6.1 146.201,1.617 139.667,7.393 141.327,9.271 		"/>
		<polygon class="st0" points="147.17,20.551 147.17,14.196 150.268,14.196 150.268,11.69 147.17,11.69 147.17,10.508 
			149.338,10.508 149.338,8.002 142.874,8.002 142.874,10.508 144.664,10.508 144.664,11.69 141.526,11.69 141.526,14.196 
			144.664,14.196 144.664,20.812 141.203,21.173 141.463,23.666 149.944,22.781 149.684,20.288 		"/>
		<path class="st0" d="M154.285,6.721h10.245V4.215h-5.059V1.792h-2.506v2.423h-5.186V18.24c0,1.149-0.286,2.733-1.65,3.756
			L151.633,24c1.71-1.283,2.652-3.329,2.652-5.76V6.721z"/>
		<polygon class="st0" points="161.068,16.732 161.797,19.5 158.547,20.287 158.547,8.245 156.041,8.245 156.041,20.894 
			153.982,21.393 154.572,23.828 162.434,21.924 162.784,23.254 165.208,22.616 163.492,16.094 		"/>
		<rect x="141.529" y="15.747" class="st0" width="2.095" height="4.029"/>
		<rect x="148.163" y="15.747" class="st0" width="2.095" height="3.647"/>
		<polygon class="st0" points="188.706,6.7 188.706,20.535 181.012,20.535 181.012,2.673 178.325,2.673 178.325,20.535 
			170.631,20.535 170.631,6.52 167.945,6.52 167.945,23.221 191.392,23.221 191.392,6.7 		"/>
		<path class="st0" d="M70.087,0.861h-2.686V4.2h-5.184v2.686h5.184v4.639c0,6.585-2.959,7.347-5.184,7.347v2.686
			c2.536,0,4.508-0.872,5.863-2.591c0.96-1.218,1.576-2.86,1.847-4.896c1.27,1.667,3.039,3.555,5.21,5.218
			c-1.707,0.817-3.925,1.352-6.805,1.352v2.686c2.812,0,6.323-0.479,9.317-2.344c2.665,1.555,5.342,2.344,7.974,2.344v-2.686
			c-1.825,0-3.766-0.508-5.698-1.48c0.491-0.5,0.951-1.058,1.377-1.676c2.452-3.555,2.313-7.693,2.313-7.693H70.087V6.886h16.452
			V4.2H70.087V0.861z M77.53,17.713c-2.313-1.625-4.17-3.561-5.446-5.235h8.543C80.306,13.837,79.504,15.969,77.53,17.713z"/>
		<path class="st0" d="M100.541,0.439L99.81,0.913c-0.058,0.038-5.839,3.767-12.044,6.176l0.972,2.504
			c5.22-2.027,10.016-4.862,11.803-5.966c1.787,1.104,6.583,3.939,11.803,5.966l0.972-2.504c-6.205-2.409-11.987-6.138-12.044-6.176
			L100.541,0.439z"/>
		<polygon class="st0" points="107.532,17.456 104.876,17.058 104.359,20.504 101.892,20.504 101.892,15.082 109.681,15.082 
			109.681,12.396 101.892,12.396 101.892,10.272 107.524,10.272 107.524,7.586 93.575,7.586 93.575,10.272 99.206,10.272 
			99.206,12.396 91.418,12.396 91.418,15.082 99.206,15.082 99.206,20.504 96.745,20.504 96.222,17.021 93.566,17.419 
			94.029,20.504 89.724,20.504 89.724,23.19 111.374,23.19 111.374,20.504 107.075,20.504 		"/>
	</g>
	<path class="st1" d="M28.225,11.501l-4.98-3.636l-1.287,0.987l-2.693-2.072l1.383-1.063l-4.976-3.643l-1.258,0.966l-1.245-0.966
		L8.185,5.716l1.383,1.063L6.877,8.851L5.59,7.864l-4.982,3.636l1.419,1.093l-1.419,1.094l4.982,3.641l1.287-0.996l2.691,2.075
		l-1.383,1.068l4.983,3.637l1.245-0.964l1.258,0.964l4.976-3.637l-1.383-1.068l2.693-2.075l1.287,0.996l4.98-3.641l-1.417-1.094
		L28.225,11.501z M14.413,14.668l-2.684-2.074l2.684-2.075l2.692,2.075L14.413,14.668z"/>
</g>
<g>
</g>
<g>
</g>
<g>
</g>
<g>
</g>
<g>
</g>
<g>
</g>
<g>
</g>
<g>
</g>
<g>
</g>
<g>
</g>
<g>
</g>
<g>
</g>
<g>
</g>
<g>
</g>
<g>
</g>
</svg>
