<?xml version="1.0" encoding="UTF-8"?>
<svg xmlns="http://www.w3.org/2000/svg" xmlns:xlink="http://www.w3.org/1999/xlink" width="500" height="580" viewBox="0 0 500 580">
  <defs>
    <clipPath id="clip-path">
      <path d="M0-20V329.057C0,397.727,25.318,466.321,82,495l168,85,168-85c56.681-28.678,82-97.275,82-165.943V-20Z" fill="none"/>
    </clipPath>
  </defs>
  <title>Coat of Arms of Košice</title>
  <g id="coa_kosice">
    <g id="field">
      <path d="M0,0V329.057C0,397.727,25.318,466.321,82,495l168,85,168-85c56.681-28.678,82-97.275,82-165.943V0Z" fill="#0a66aa"/>
    </g>
    <g id="coa">
      <g clip-path="url(#clip-path)">
        <g stroke-width="3" stroke="#111" fill="#fdda2a" transform="rotate(14 216.825 441.893)">
          <rect x="51" y="425" width="405" height="32" fill="#cc3026"/>
          <rect x="-24" y="425" width="75" height="32"/>
          <rect id="bar" x="106" y="425" width="55" height="32"/>
          <use xlink:href="#bar" x="110"/>
          <use xlink:href="#bar" x="220"/>
        </g>
        <g id="fdl1" fill="#fdda2a" stroke="#111" stroke-linecap="round" stroke-linejoin="round" stroke-width="2">
          <path id="f1" d="M251.4,530.477c0-18.227-3.707-26.666-15.319-26.666a9.887,9.887,0,0,0-9.636,13.312c1.6,3.887,2.113,8.919-3.447,7.235,0,0,.981,6.119,7.2,6.119s5.724-7.186,5.4-9.768,2.379-6.292,6.051-4.941c4.38,1.613,4.595,6.276,5.536,14.709a15.312,15.312,0,0,1-5.479,13.41L255,554Z"/>
          <use xlink:href="#f1" transform="translate(510 0) scale(-1 1)"/>
          <path d="M265.612,499.929,255,490l-10.612,9.929s7.232,15.671,7.014,30.548a58.065,58.065,0,0,1-3.441,18.171L255,554l7.039-5.352a58.065,58.065,0,0,1-3.441-18.171C258.38,515.6,265.612,499.929,265.612,499.929Z"/>
          <line x1="255" y1="499.929" x2="255" y2="530.477"/>
          <path d="M263.4,526.477H246.6a4.022,4.022,0,0,0,0,8h16.8a4.022,4.022,0,0,0,0-8Z"/>
        </g>
        <use xlink:href="#fdl1" x="-95" y="-35"/>
        <use xlink:href="#fdl1" x="105" y="-107"/>
        <g fill="#cc3026" stroke="#111" stroke-width="3">
          <rect y="116" width="500" height="256" fill="#fafafa"/>
          <rect y="340" width="500" height="32"/>
          <rect y="276" width="500" height="32"/>
          <rect y="212" width="500" height="32"/>
          <rect y="148" width="500" height="32"/>
        </g>
        <g fill="#fdda2a" stroke="#111" stroke-width="2">
          <path d="M306.089,311.391c13.123,1.375,31.286,12.859,31.286,12.859s-6,.125-6.875,3.375c0,0-10.75-5.5-10.5,4.125,0,0-4,3.5,1,9.875a5.376,5.376,0,0,1,3.128-4.75s5.375,4.75,10.5-2.25,9.625-6.25,12.375-5.125,10.75,10.5,16.125,10.875,4.25-2.5,4.25-2.5,4,1,4,5,5.75-6.375-.875-9.25c0,0,.375-5.625-7.25-3.875,0,0-8.875-5-14.625-5,0,0,9.5,1,14,0s10.5,7.5,13,.125c0,0,2.75-2.594,6.375,3.078,0,0,1.25-8.328-3.5-8.578,0,0-3.125-7-9.875-1.625a15.267,15.267,0,0,0-9.5,1,23.415,23.415,0,0,1-10.25,1.875,20.8,20.8,0,0,0,10.844-3.031c2.656-1.75,7.656-.344,8.906-3.219,0,0,2.125-1.875,5.5-.25,0,0-.75-5.375-7.062-4,0,0-5.013-3.375-7.938,2.375,0,0-11.125,2.75-13,6.375s-8.5-2.125-12.5-4.25S317.75,303.375,310,303.25Z"/>
          <path d="M250,181.5v190h50s16.167-5.833,16.167-23.666c0,0-17.5,23.666-51.5,5.833,0,0,24.833,10,36.333-8.167,0,0-37.167,8.167-37.167-14.666s17.6-39.646,18-55.5c0,0,3.667,2.854-10.833,30.041,0,0,28.167-2.708,37,11.125,0,0,4.5-3.333,3.5-8.833,0,0,12.5,2.167,18.833-.167,0,0-25-16.333-33-29.666s-9-17.959-9-29.9,7-16.438,7,2.4,12.25,29.416,16.5,33.666,8.334,4.334,4.667-2.5-9.833-24.166-9.833-34.5,6.833-22.5,6.833,2,15.833,41.334,18.167,43.834,9.333,5.166,4.5-5.167-11.5-36.333-11.5-46.833,6.333-15,6.333-1.167S337.833,284.5,346.333,293s12.5,9.667,7.334-2.666S342.5,253.667,342.5,238.5s6.5-20,6.5-1.833,7.333,50,17,59.667,11,8.666,7-1.5-11.333-34.5-11.333-56.667,7.5-28.667,7.5-1.833,6.75,55.583,16.5,65.333S399,311.834,393.833,298.5s-13.649-52.915-3.666-92.166c7.333-28.834-2-50.5-21.5-50.5s-23.5,15-23.5,15,10.333-2.5,10.333,11.666-24.833,8.334-39.5,8.334S295.167,204.5,282,204.5s-3.167-22.5-3.167-22.5-12.5-17.833,5.334-20,24.833-5.833,23-9.666S303.5,142.167,286.5,142.5s-15.833,1.5-19,3.5-6.5,5.334-10.5,5.334c0,0-.833,3.166,4,4.833S250,170.334,250,181.5Z" fill="#fafafa" stroke-width="2.5"/>
          <path d="M316.25,161.375s8.133-9.376-2-11.75-13.875,8.625-23.75,8.625-18.875,5.5-18.875,14.375,6.625,9.25,9,9.25,16.375-5.375,24,1.25c0,0-.25-7.875-10.875-7.875s-13.875,3.625-16.25-1c0,0,6.125-5.625,32.5-2.625,0,0,0,3.375-2.75,4,0,0-.875,1.625,3.25,1s3.25-4.75,10.5-7S335.375,160.75,335.625,152a35.889,35.889,0,0,1-28.25,15.5c-19.125.625-23.625-.625-30.375,3.25,0,0,1.75-8,14.875-7.875s8.75-4.625,16.375-4.5S316.25,161.375,316.25,161.375Z"/>
          <path d="M304.283,130.646c-3.167-1.041-5,.334-5,.334-.438,1.536.52,4.236.52,4.236a2.5,2.5,0,0,1-5,0,2.5,2.5,0,1,1-4.824-.905h0l0,0a8.29,8.29,0,0,0,3.064-3.068s-1.97-3.557-4.755-3.441a11,11,0,0,0-3.137-5.434A11.01,11.01,0,0,0,282,127.8c-2.785-.116-4.754,3.441-4.754,3.441a8.293,8.293,0,0,0,3.063,3.068l0,0H280.3a2.475,2.475,0,0,1,.175.905,2.5,2.5,0,0,1-5,0,2.5,2.5,0,0,1-5,0s.959-2.7.521-4.236c0,0-1.833-1.375-5-.334,0,0-1.875-3.25-7.542-3.125,0,0,8.5,10.167,11.167,17.542,0,0,4.074-1.833,15.516-1.833s15.517,1.833,15.517,1.833c2.666-7.375,11.166-17.542,11.166-17.542C306.158,127.4,304.283,130.646,304.283,130.646Z" stroke-linejoin="round"/>
          <path d="M382.885,184.067a6,6,0,0,0-5.755-5.047,6,6,0,1,0-11.64,1.861,6,6,0,0,0,2.977,11.567,5.908,5.908,0,0,0,1.283-.359V194.5c0,11-57.926,28.5-119.75,28.5v11.25c67.417,0,128.25-23.083,128.25-38.416v-4.967A6,6,0,0,0,382.885,184.067Z"/>
          <path d="M280.083,152.112s3.965-.98,6.049-.563c0,0,1.451,4.7,5.285,4.7s4.5-1.154,5.5-4.237c0,0,5.166-.25,7.166.737C300.333,149,288.5,144.807,280.083,152.112Zm12.458,1.881a1.5,1.5,0,1,1,1.5-1.5A1.5,1.5,0,0,1,292.541,153.993Z" fill="#111" stroke="none"/>
        </g>
        <g id="fdl2" fill="#fdda2a" stroke="#111" stroke-linecap="round" stroke-linejoin="round" stroke-width="2.5">
          <path id="f2" d="M244.828,71.186c0-26.2-5.329-38.333-22.021-38.333-12.738,0-16.691,12.251-13.852,19.136,2.3,5.588,3.038,12.822-4.955,10.4,0,0,1.411,8.8,10.344,8.8s8.228-10.33,7.758-14.042,3.421-9.045,8.7-7.1c6.3,2.318,6.606,9.021,7.957,21.144a22.011,22.011,0,0,1-7.876,19.277L250,105Z" />
          <use xlink:href="#f2" transform="translate(500 0) scale(-1 1)"/>
          <path d="M265.255,27.273,250,13,234.745,27.273s10.4,22.527,10.083,43.913a83.482,83.482,0,0,1-4.946,26.12L250,105l10.118-7.694a83.482,83.482,0,0,1-4.946-26.12C254.858,49.8,265.255,27.273,265.255,27.273Z" />
          <line x1="250" y1="27.273" x2="250" y2="71.186" />
          <path d="M262.075,65.436h-24.15a5.782,5.782,0,0,0,0,11.5h24.15a5.782,5.782,0,0,0,0-11.5Z" />
        </g>
        <use xlink:href="#fdl2" x="-150"/>
        <use xlink:href="#fdl2" x="150"/>
      </g>
    </g>
    <g id="border">
      <path d="M494,6V329.057c0,35.006-6.639,68.02-19.2,95.471-13.831,30.229-33.853,52.138-59.508,65.118L250,573.276,84.709,489.646c-25.656-12.98-45.677-34.889-59.509-65.117C12.639,397.078,6,364.064,6,329.057V6H494m6-6H0V329.057C0,397.727,25.318,466.321,82,495l168,85,168-85c56.681-28.678,82-97.275,82-165.943V0Z" fill="#111"/>
    </g>
  </g>
</svg>
