<?xml version="1.0" encoding="UTF-8"?>
<svg xmlns="http://www.w3.org/2000/svg" width="500" height="580" viewBox="0 0 500 580">
  <title>Coat of Arms of Nitra</title>
  <g id="coa_nitra">
    <path id="field" d="M500,330V0H0V330C0,468.071,111.929,580,250,580S500,468.071,500,330Z" fill="#0a66aa"/>
    <g id="coa" fill="#fafafa" stroke="#111" stroke-width="4">
      <g>
        <path d="M128.011,35.916V511.685c0,7.086-14.911,7.087-14.911,0V35.916c0-6.629,14.911-6.48,14.911,0Z"/>
        <polygon points="128.012 48.001 402.383 48.001 339.755 108.985 402.383 174.034 128.011 174.034 128.012 48.001" fill="#cc3026"/>
        <path d="M302.453,98.3s-8.887,3.918-33.018,3.918c0-31.5,3.884-36.265,3.884-36.265,0-2.164-6.16-2.918-12.6-2.918s-12.6.754-12.6,2.918c0,0,3.885,4.767,3.885,36.265h-35.02c0-31.5,3.884-36.265,3.884-36.265,0-2.164-6.16-2.918-12.6-2.918s-12.6.754-12.6,2.918c0,0,3.885,4.767,3.885,36.265-24.131,0-33.019-4.918-33.019-4.918-1.658,0-2,7.222-2,13.714s.344,13.714,2,13.714c0,0,8.888-4.919,33.019-4.919,0,31.5-3.885,36.265-3.885,36.265,0,2.164,6.16,2.918,12.6,2.918s12.6-.754,12.6-2.918c0,0-3.884-4.766-3.884-36.265h35.02c0,31.5-3.885,36.265-3.885,36.265,0,2.164,6.16,2.918,12.6,2.918s12.6-.754,12.6-2.918c0,0-3.884-4.766-3.884-36.265,24.131,0,33.018,3.919,33.018,3.919,1.658,0,2-6.222,2-12.714S304.111,98.3,302.453,98.3Z" stroke-width="3"/>
      </g>
      <g>
        <polygon points="253.093 404.247 209.097 335.645 160.158 383.176 209.097 460.856 253.093 404.247"/>
        <path d="M140.781,352.972s-18.7-3.918-24.668-11.577l-.34-84.421,67.1,50.518Z"/>
        <path d="M102.341,268.321c2.113,1.455,19.38.527,22.729,3.467,8.669,7.606,13.763,28.351,18.776,37.934,2.914,5.572,9.43,12.853,16.312,12.557,19.755-.851,24.393-15.9,22.222-26.592-1.5-7.393-4.567-8.159-10.436-15.673-6.96-8.91-9.007-15.914-14.983-21.14-8.467-7.405-49.814-14.646-57.81-4.917-2.447,2.977-4.05,9.381,3.19,14.364Z"/>
        <polygon points="159.17 389.829 214.535 335.356 187.398 299.259 135.608 353.882 159.17 389.829"/>
        <path d="M93.9,310.967h29.879c7.507.943,9.916,15.154,0,17.632H92.907C80.966,328.168,79.136,310.974,93.9,310.967Z"/>
        <path d="M93.9,271.784h31.685c7.507.943,9.916,15.155,0,17.632H92.907C80.966,288.985,79.136,271.791,93.9,271.784Z"/>
        <path d="M89.878,291.376h35.806c8.483.943,11.206,15.154,0,17.632H88.759C75.265,308.577,73.2,291.383,89.878,291.376Z"/>
        <path d="M98.937,330.911h27.49c6.513.891,8.6,14.313,0,16.653H98.078C87.719,347.157,86.131,330.918,98.937,330.911Z"/>
        <polygon points="408.978 351.318 323.459 459.195 275.014 381.759 357.567 274.949 408.978 351.318"/>
        <path d="M418,373.925V226.552c-48.661-2.066-72.97,30.418-76.735,34.538L418,373.926Z"/>
        <line x1="347.186" y1="255.423" x2="417.875" y2="359.562"/>
        <path d="M261.694,390.2l-13.6-11.755-52.444,79.346s14.566,24.489,66.041,24.489,66.041-24.489,66.041-24.489l-52.444-79.346Z"/>
        <path d="M261.694,369.625,316.08,482.276s0,26.449-54.386,26.449-54.387-26.449-54.387-26.449Z"/>
      </g>
    </g>
    <path id="border" d="M497,330V3H3V330C3,466.414,113.586,577,250,577S497,466.414,497,330Z" fill="none" stroke="#111" stroke-width="6"/>
  </g>
</svg>
