<?xml version="1.0" encoding="UTF-8" standalone="no"?>
<!-- Created with Inkscape (http://www.inkscape.org/) -->

<svg
   xmlns:dc="http://purl.org/dc/elements/1.1/"
   xmlns:cc="http://creativecommons.org/ns#"
   xmlns:rdf="http://www.w3.org/1999/02/22-rdf-syntax-ns#"
   xmlns:svg="http://www.w3.org/2000/svg"
   xmlns="http://www.w3.org/2000/svg"
   version="1.1"
   width="600"
   height="600"
   viewBox="0 0 600 600"
   id="Layer_1"
   xml:space="preserve"
   style="overflow:visible"><metadata
     id="metadata20"><rdf:RDF><cc:Work
         rdf:about=""><dc:format>image/svg+xml</dc:format><dc:type
           rdf:resource="http://purl.org/dc/dcmitype/StillImage" /><dc:title></dc:title></cc:Work></rdf:RDF></metadata><defs
     id="defs18" /><path
     d="M 300,300"
     id="path7" /><path
     d="m 300,10.00293 c 23.56445,20.075195 54.11719,32.191406 87.5,32.191406 33.38281,0 63.93555,-12.119141 87.5,-32.194336 l 115,115 c -21.16211,30.08105 -33.58789,66.75391 -33.58789,106.32617 0,28.46387 6.42676,55.42481 17.91016,79.5127 C 584.24414,331.66406 590,355.39453 590,380 590,468.36719 518.36719,540 430,540 H 404.88672 C 362.54199,540 324.75098,559.49512 300,590 275.24854,559.49512 237.45801,540 195.11328,540 H 169.99951 C 81.632813,540 9.9995117,468.36719 9.9995117,380 c 0,-24.60547 5.7563473,-48.33594 15.6787113,-69.16113 11.482422,-24.08789 17.910156,-51.04883 17.910156,-79.5127 C 43.588379,191.75391 31.161621,155.08105 10,125 L 125,10 c 23.56445,20.075195 54.1167,32.194336 87.5,32.194336 33.38281,0 63.93555,-12.116211 87.5,-32.191406 z"
     id="path11"
     style="fill:#ffffff;fill-opacity:1;fill-rule:evenodd" /><g
     id="g3886"><path
       d="M 0,50 C 0,22.385742 22.385254,0 50,0 h 500 c 27.61426,0 50,22.385742 50,50 v 500 c 0,27.61523 -22.38574,50 -50,50 H 50 C 22.385254,600 0,577.61523 0,550 V 50 l 0,0 z"
       id="path5" /><path
       d="m 300,10.00293 c 23.56445,20.075195 54.11719,32.191406 87.5,32.191406 33.38281,0 63.93555,-12.119141 87.5,-32.194336 l 115,115 c -21.16211,30.08105 -33.58789,66.75391 -33.58789,106.32617 0,28.46387 6.42676,55.42481 17.91016,79.5127 C 584.24414,331.66406 590,355.39453 590,380 590,468.36719 518.36719,540 430,540 H 404.88672 C 362.54199,540 324.75098,559.49512 300,590 275.24854,559.49512 237.45801,540 195.11328,540 H 169.99951 C 81.632813,540 9.9995117,468.36719 9.9995117,380 c 0,-24.60547 5.7563473,-48.33594 15.6787113,-69.16113 11.482422,-24.08789 17.910156,-51.04883 17.910156,-79.5127 C 43.588379,191.75391 31.161621,155.08105 10,125 L 125,10 c 23.56445,20.075195 54.1167,32.194336 87.5,32.194336 33.38281,0 63.93555,-12.116211 87.5,-32.191406 z"
       id="path13"
       style="fill:#ffffff;fill-opacity:1;fill-rule:evenodd;stroke:#000000;stroke-linecap:round;stroke-linejoin:round;stroke-miterlimit:3.863693" /></g><g
     id="text1343"
     style="font-size:447.76119995px;font-style:normal;font-variant:normal;font-weight:normal;font-stretch:normal;text-align:center;line-height:125%;writing-mode:lr-tb;text-anchor:middle;font-family:Roadgeek 2005 Series D"><path
       d="m 264.9137,184.96268 c -2.68679,3.28383 -5.2241,6.26891 -7.61194,8.95523 -2.08976,2.68681 -4.17931,5.37337 -6.26865,8.0597 -1.79126,2.6868 -3.73155,5.52262 -5.8209,8.50746 -2.08975,2.9853 -4.32856,6.41813 -6.71642,10.29851 -13.43302,22.08975 -24.92554,45.37331 -34.47761,69.85075 -9.25389,24.47773 -16.41806,48.80607 -21.49254,72.98507 -0.89566,6.26873 -1.79118,12.38812 -2.68657,18.35821 -0.89566,5.67169 -1.64192,11.49258 -2.2388,17.46269 -0.29865,5.67167 -0.59715,11.64182 -0.89552,17.91045 -0.29865,5.97016 -0.4479,12.68657 -0.44776,20.14925 l -48.35821,0 c 0.29842,-17.31342 1.34319,-34.02982 3.13432,-50.14925 1.79096,-16.11934 4.32827,-31.94022 7.61194,-47.46269 3.58199,-15.52228 8.0596,-30.8954 13.43284,-46.11941 5.37302,-15.52222 11.79092,-31.19385 19.25373,-47.01492 5.07449,-11.34308 10.59688,-22.38785 16.56717,-33.13433 5.96999,-10.74603 11.64163,-20.29826 17.01492,-28.65672 l -143.283582,0 0,-47.46268 203.283582,0 0,47.46268 0,0"
       id="path4708" /><path
       d="m 528.56809,287.94776 c -2.4e-4,23.88072 -2.83606,46.71652 -8.50746,68.50746 -5.67187,21.79111 -13.73156,39.40303 -24.1791,52.83582 -16.71662,22.38807 -40.8957,33.58209 -72.53732,33.58209 -21.19415,0 -38.65681,-4.32835 -52.38806,-12.98507 -13.73141,-8.6567 -25.07469,-22.23878 -34.02985,-40.74627 -6.2687,-12.83576 -11.34332,-28.35813 -15.22388,-46.56716 -3.88063,-18.50735 -5.82093,-36.71629 -5.8209,-54.62687 -3e-5,-24.77595 2.83579,-47.761 8.50747,-68.95523 5.9701,-21.19379 14.02979,-38.95496 24.1791,-53.28358 8.95515,-11.343 19.55216,-19.7012 31.79105,-25.07463 12.5372,-5.67133 27.46256,-8.50715 44.77612,-8.50746 19.10432,3.1e-4 35.37296,4.32866 48.80597,12.98508 13.43263,8.657 24.92516,22.23907 34.47761,40.74627 6.26843,13.43307 11.1938,29.1047 14.77612,47.01492 3.58185,17.91064 5.37289,36.26883 5.37313,55.07463 m -47.46268,0 c -2e-4,-17.01476 -1.49273,-32.68639 -4.47762,-47.01493 -2.98526,-14.62665 -7.46287,-27.0147 -13.43283,-37.16418 -4.77629,-7.76095 -10.29868,-13.43259 -16.56717,-17.01492 -5.9703,-3.58184 -13.43298,-5.67139 -22.38806,-6.26866 -11.64191,-0.59676 -21.3434,2.08981 -29.10447,8.0597 -7.7613,5.9704 -14.1792,15.67188 -19.25374,29.10448 -3.88068,8.95544 -6.86575,19.85095 -8.95522,32.68657 -1.79112,12.53749 -2.68665,25.07479 -2.68657,37.61194 -8e-5,16.11954 1.49246,31.64191 4.47761,46.56716 2.98499,14.92547 7.4626,27.16426 13.43284,36.71642 4.77602,7.76126 10.44766,13.58214 17.01493,17.46269 6.56704,3.88064 14.62673,5.82094 24.1791,5.82089 11.04463,5e-5 20.1491,-2.98502 27.31343,-8.95522 7.46252,-5.97009 13.73117,-15.67157 18.80597,-29.10448 1.49236,-3.88051 2.98489,-8.50737 4.47762,-13.88059 1.49234,-5.67155 2.68637,-11.49244 3.58209,-17.46269 1.19383,-6.26854 2.08936,-12.53719 2.68656,-18.80597 0.59682,-6.26852 0.89533,-12.38792 0.89553,-18.35821"
       id="path4710" /></g></svg>