<?xml version="1.0" encoding="UTF-8" standalone="no"?>
<svg
   xmlns:dc="http://purl.org/dc/elements/1.1/"
   xmlns:cc="http://creativecommons.org/ns#"
   xmlns:rdf="http://www.w3.org/1999/02/22-rdf-syntax-ns#"
   xmlns:svg="http://www.w3.org/2000/svg"
   xmlns="http://www.w3.org/2000/svg"
   viewBox="0 0 113.21333 113.17333"
   height="113.17333"
   width="113.21333"
   xml:space="preserve"
   id="svg2"
   version="1.1"><metadata
     id="metadata8"><rdf:RDF><cc:Work
         rdf:about=""><dc:format>image/svg+xml</dc:format><dc:type
           rdf:resource="http://purl.org/dc/dcmitype/StillImage" /></cc:Work></rdf:RDF></metadata><defs
     id="defs6" /><g
     transform="matrix(1.3333333,0,0,-1.3333333,0,113.17333)"
     id="g10"><g
       transform="scale(0.1)"
       id="g12"><path
         id="path14"
         style="fill:#ee2c30;fill-opacity:1;fill-rule:nonzero;stroke:none"
         d="M 545.461,832.359 C 439.188,863.711 333.457,854.176 234.457,804.313 135.527,754.527 64.8594,675.289 26.6992,571.25 -11.4922,467.207 -8.86719,361.078 34.4023,259.059 77.6406,157.105 152.125,81.3945 253.395,36.5039 489.195,-67.9297 762.898,60.0508 833.891,307.945 898.152,532.297 769.379,766.512 545.461,832.359 v 0" /><path
         id="path16"
         style="fill:#ffffff;fill-opacity:1;fill-rule:nonzero;stroke:none"
         d="M 505.066,696.207 C 654.289,652.285 740.145,496.227 697.309,346.645 650.004,181.473 467.594,96.1211 310.414,165.781 242.953,195.66 193.313,246.098 164.438,314.066 c -28.801,68.039 -30.532,138.782 -5.114,208.079 25.449,69.335 72.539,122.148 138.492,155.375 65.954,33.195 136.442,39.566 207.25,18.687 v 0" /><path
         id="path18"
         style="fill:#ffffff;fill-opacity:1;fill-rule:nonzero;stroke:none"
         d="m 155.113,581.902 20.844,31.828 -10.586,6.95 -14.144,-21.637 -72.434,47.34 -6.6992,-10.192 83.0192,-54.289" /><path
         id="path20"
         style="fill:#ffffff;fill-opacity:1;fill-rule:nonzero;stroke:none"
         d="m 178.945,616.754 7.379,9.18 -56.773,45.722 -7.379,-9.144 56.773,-45.758" /><path
         id="path22"
         style="fill:#ffffff;fill-opacity:1;fill-rule:nonzero;stroke:none"
         d="m 110.547,671.434 7.773,9.687 -12.273,9.863 -7.7814,-9.644 12.2814,-9.906" /><path
         id="path24"
         style="fill:#ffffff;fill-opacity:1;fill-rule:nonzero;stroke:none"
         d="m 191.508,635.113 8.859,7.703 -29.269,33.657 v 0 c -3.532,4.074 -5.547,7.812 -6.231,11.164 -0.683,3.383 0.324,6.117 2.809,8.281 4.105,3.562 9.105,1.91 15.015,-4.863 v 0 l 31.497,-36.25 8.859,7.738 -29.234,33.664 v 0 c -3.563,4.066 -5.583,7.773 -6.262,11.156 -0.688,3.352 0.359,6.121 2.804,8.282 4.11,3.566 9.149,1.91 15.012,-4.86 v 0 l 31.504,-36.254 8.891,7.703 -31.324,36.036 v 0 c -5.614,6.449 -10.942,10.515 -15.84,12.062 -5.039,1.441 -9.68,0.434 -13.965,-3.277 -2.809,-2.446 -4.356,-5.293 -4.645,-8.563 -0.218,-3.387 0.184,-6.629 1.043,-9.832 -1.367,0.688 -2.808,1.336 -4.316,1.871 -1.442,0.469 -3.063,0.723 -4.645,0.864 -1.511,0.035 -3.093,-0.247 -4.683,-0.649 -1.582,-0.43 -3.129,-1.398 -4.571,-2.66 -2.738,-2.379 -4.171,-5.148 -4.5,-8.422 -0.214,-3.387 0.215,-6.773 1.622,-10.301 v 0 l -0.18,-0.144 v 0 c -0.289,0.328 -0.867,0.976 -1.582,1.836 -0.758,0.687 -1.481,1.511 -2.235,2.379 -0.863,0.789 -1.586,1.621 -2.269,2.375 -0.719,0.683 -1.258,1.328 -1.547,1.656 v 0 l -8.785,-7.629 v 0 c 1.367,-1.406 2.883,-2.988 4.465,-4.613 1.586,-1.621 3.168,-3.457 4.929,-5.473 v 0 l 38.774,-44.637 v 0" /><path
         id="path26"
         style="fill:#ffffff;fill-opacity:1;fill-rule:nonzero;stroke:none"
         d="m 255.016,685.836 10.004,6.121 -38.086,62.176 -10.008,-6.125 38.09,-62.172" /><path
         id="path28"
         style="fill:#ffffff;fill-opacity:1;fill-rule:nonzero;stroke:none"
         d="m 208.969,760.281 10.621,6.52 -8.246,13.461 -10.621,-6.512 8.246,-13.469" /><path
         id="path30"
         style="fill:#ffffff;fill-opacity:1;fill-rule:nonzero;stroke:none"
         d="m 298.105,710.715 -5.039,9.859 v 0 c -0.507,-0.715 -1.011,-1.472 -1.695,-2.121 -0.609,-0.793 -1.437,-1.367 -2.594,-1.945 -1.867,-0.938 -3.562,-0.863 -5.179,0.074 -1.621,0.898 -3.243,3.129 -5.043,6.695 v 0 l -18.285,35.965 10.472,5.328 -5.144,10.153 -10.477,-5.328 -8.75,17.242 -8.496,-9.254 6.77,-13.317 -8.282,-4.179 5.153,-10.153 8.281,4.176 19.617,-38.629 v 0 c 3.164,-6.222 6.516,-10.078 10.113,-11.441 3.672,-1.516 7.524,-1.082 11.774,1.078 1.512,0.758 2.953,1.652 4.066,2.699 1.043,1.117 2.09,2.125 2.738,3.098 v 0" /><path
         id="path32"
         style="fill:#ffffff;fill-opacity:1;fill-rule:nonzero;stroke:none"
         d="m 302.141,745.922 31.211,11.086 -1.657,4.68 v 0 c -2.125,6.05 -4.504,10.945 -7.023,15.011 -2.52,4.067 -5.184,7.203 -8.027,9.36 -2.774,2.199 -5.723,3.382 -8.641,3.851 -3.024,0.473 -6.047,0.149 -9.035,-0.937 -3.383,-1.184 -6.192,-3.094 -8.281,-5.793 -2.09,-2.735 -3.532,-6.086 -4.282,-9.825 -0.648,-3.851 -0.832,-8.14 -0.179,-12.89 0.574,-4.75 1.761,-9.789 3.632,-15.012 1.766,-4.93 3.926,-9.469 6.446,-13.394 2.484,-3.957 5.144,-7.055 8.246,-9.43 3.023,-2.414 6.332,-3.922 9.929,-4.606 3.641,-0.757 7.418,-0.363 11.379,1.079 3.383,1.187 6.336,2.699 8.676,4.496 2.34,1.91 4.141,3.636 5.617,5.187 v 0 l -4.718,11.485 v 0 c -0.899,-1.731 -2.297,-3.567 -4.028,-5.543 -1.765,-1.946 -4.215,-3.606 -7.418,-4.715 -5.109,-1.836 -9.324,-1.371 -12.851,1.472 -3.457,2.664 -6.516,7.45 -8.996,14.438 v 0" /><path
         id="path34"
         style="fill:#ffffff;fill-opacity:1;fill-rule:nonzero;stroke:none"
         d="m 467.629,766.117 32.687,-5.324 0.793,4.891 v 0 c 1.043,6.336 1.332,11.773 1.079,16.562 -0.215,4.75 -1.079,8.817 -2.485,12.059 -1.437,3.277 -3.418,5.722 -5.758,7.527 -2.449,1.867 -5.218,3.055 -8.355,3.559 -3.563,0.578 -6.945,0.254 -10.043,-1.114 -3.164,-1.367 -6.043,-3.636 -8.496,-6.554 -2.446,-3.02 -4.645,-6.731 -6.371,-11.196 -1.762,-4.429 -3.164,-9.433 -4.032,-14.902 -0.863,-5.184 -1.082,-10.191 -0.828,-14.832 0.254,-4.68 1.118,-8.68 2.735,-12.242 1.441,-3.559 3.601,-6.516 6.445,-8.821 2.809,-2.445 6.371,-3.882 10.48,-4.57 3.563,-0.574 6.833,-0.683 9.825,-0.215 2.918,0.578 5.332,1.188 7.34,1.836 v 0 l 1.48,12.313 v 0 c -1.652,-1.047 -3.777,-1.981 -6.191,-2.883 -2.559,-0.863 -5.473,-1.113 -8.825,-0.574 -5.359,0.863 -8.816,3.273 -10.546,7.488 -1.762,3.996 -2.122,9.684 -0.934,16.992 v 0" /><path
         id="path36"
         style="fill:#ffffff;fill-opacity:1;fill-rule:nonzero;stroke:none"
         d="m 502.477,727.02 11.195,-3.672 13.43,41.078 v 0 c 1.761,5.398 4.031,9.429 6.875,11.953 2.738,2.551 5.793,3.168 9.324,2.016 2.914,-0.938 4.57,-2.809 5.183,-5.692 0.465,-2.879 -0.179,-7.019 -1.941,-12.422 v 0 l -14.078,-43.051 11.125,-3.675 15.156,46.332 v 0 c 2.41,7.308 3.024,13.535 1.867,18.687 -1.183,5.149 -4.535,8.676 -10.109,10.512 -3.207,1.043 -6.34,1.008 -9.473,-0.219 -3.097,-1.222 -5.972,-3.418 -8.605,-6.621 v 0 l -0.176,0.074 v 0 c 0.109,0.43 0.395,1.219 0.684,2.157 0.214,1.007 0.578,2.05 0.828,3.168 0.254,1.156 0.609,2.195 0.894,3.171 0.184,0.969 0.438,1.797 0.578,2.192 v 0 l -10.507,3.422 v 0 c -0.543,-2.055 -1.153,-4.211 -1.766,-6.446 -0.648,-2.339 -1.402,-4.609 -2.16,-6.914 v 0 l -18.324,-56.05 v 0" /><path
         id="path38"
         style="fill:#ffffff;fill-opacity:1;fill-rule:nonzero;stroke:none"
         d="m 575.77,734.043 29.375,-15.266 2.304,4.426 v 0 c 2.957,5.688 4.934,10.727 6.196,15.375 1.257,4.606 1.726,8.711 1.406,12.238 -0.363,3.563 -1.477,6.52 -3.133,8.965 -1.766,2.52 -4.031,4.535 -6.805,5.977 -3.242,1.652 -6.554,2.41 -9.898,2.051 -3.457,-0.289 -6.914,-1.547 -10.117,-3.567 -3.278,-2.125 -6.52,-4.929 -9.575,-8.637 -3.062,-3.671 -5.941,-7.992 -8.496,-12.89 -2.414,-4.68 -4.179,-9.356 -5.367,-13.86 -1.226,-4.5 -1.687,-8.566 -1.262,-12.488 0.29,-3.816 1.411,-7.273 3.387,-10.371 1.906,-3.203 4.824,-5.687 8.528,-7.594 3.21,-1.66 6.304,-2.773 9.253,-3.273 2.954,-0.399 5.442,-0.543 7.598,-0.543 v 0 l 5.223,11.23 v 0 c -1.91,-0.468 -4.176,-0.718 -6.809,-0.828 -2.695,0 -5.543,0.649 -8.531,2.196 -4.824,2.484 -7.375,5.906 -7.703,10.406 -0.43,4.351 1.011,9.859 4.426,16.453 v 0" /><path
         id="path40"
         style="fill:#ffffff;fill-opacity:1;fill-rule:nonzero;stroke:none"
         d="m 596.438,685.66 9.539,-6.883 22.929,31.793 v 0 c 2.164,3.024 4.246,5.364 6.41,7.164 2.125,1.762 4.102,2.95 6.012,3.672 1.836,0.61 3.672,0.864 5.367,0.719 1.618,-0.289 3.055,-0.793 4.422,-1.797 0.578,-0.402 1.117,-0.797 1.481,-1.226 0.355,-0.469 0.824,-0.973 1.218,-1.442 v 0 l 8.325,11.559 v 0 c -0.184,0.14 -0.364,0.25 -0.364,0.429 -0.105,0.075 -0.289,0.18 -0.468,0.364 -1.727,1.222 -3.493,2.121 -5.254,2.515 -1.801,0.434 -3.496,0.434 -5.258,0.11 -1.731,-0.289 -3.492,-0.789 -5.113,-1.547 -1.657,-0.758 -3.309,-1.656 -4.86,-2.844 v 0 l -0.179,0.141 v 0 c 0.324,0.468 0.832,1.156 1.511,2.09 0.578,0.972 1.328,2.019 1.981,3.097 0.648,1.153 1.297,2.051 1.98,2.989 0.539,0.972 1.039,1.656 1.403,2.125 v 0 l -8.786,6.332 v 0 c -1.152,-1.762 -2.41,-3.672 -3.671,-5.618 -1.293,-2.015 -2.7,-3.992 -4.102,-5.933 v 0 L 596.438,685.66 v 0" /><path
         id="path42"
         style="fill:#ffffff;fill-opacity:1;fill-rule:nonzero;stroke:none"
         d="m 644.242,646.633 7.778,-7.199 v 0 c 0.793,1.004 1.871,2.484 3.277,4.14 1.367,1.656 2.808,3.383 4.465,5.149 v 0 l 23.652,25.558 v 0 c 3.309,3.567 5.723,6.696 7.27,9.543 1.546,2.84 2.379,5.539 2.738,8.094 0.355,2.238 0.035,4.824 -0.902,7.812 -1.043,2.922 -3.094,5.836 -6.332,8.825 -2.743,2.519 -5.547,4.316 -8.391,5.398 -2.848,1.113 -5.613,1.906 -8.246,2.235 v 0 l -7.953,-9.903 v 0 c 2.34,0.36 5.078,0.145 8.207,-0.609 2.953,-0.793 5.617,-2.274 8.027,-4.504 3.063,-2.844 4.25,-5.902 3.637,-9.215 -0.324,-1.621 -0.864,-3.242 -1.801,-4.715 -0.973,-1.582 -2.266,-3.133 -3.813,-4.824 v 0 l -2.015,-2.16 -3.063,2.808 v 0 c -6.914,6.407 -13.574,9.864 -19.726,10.332 -6.231,0.356 -12.352,-2.519 -18.145,-8.75 -2.34,-2.519 -4,-5.039 -5.187,-7.632 -1.188,-2.59 -1.688,-5.004 -1.762,-7.418 -0.18,-2.371 0.254,-4.535 1.152,-6.551 0.864,-2.051 2.125,-3.813 3.887,-5.434 3.168,-2.949 6.371,-4.465 9.828,-4.539 3.278,-0.105 6.481,0.399 9.504,1.477 v 0 l 0.18,-0.176 v 0 c -0.289,-0.328 -0.758,-0.828 -1.367,-1.621 -0.684,-0.758 -1.368,-1.477 -1.946,-2.27 -0.609,-0.828 -1.297,-1.55 -1.761,-2.23 -0.614,-0.828 -1.008,-1.223 -1.192,-1.621 v 0" /><path
         id="path44"
         style="fill:#ffffff;fill-opacity:1;fill-rule:nonzero;stroke:none"
         d="m 657.816,631.91 7.633,-9 81.289,68.942 -7.597,8.996 -81.325,-68.938" /><path
         id="path46"
         style="fill:#ffffff;fill-opacity:1;fill-rule:nonzero;stroke:none"
         d="m 704.438,625.215 18.542,-27.399 4.102,2.774 v 0 c 5.324,3.598 9.504,7.09 12.777,10.547 3.317,3.457 5.688,6.84 7.094,10.117 1.367,3.277 1.836,6.406 1.516,9.359 -0.328,3.059 -1.375,5.907 -3.137,8.496 -2.051,3.024 -4.609,5.254 -7.664,6.551 -3.203,1.371 -6.844,1.906 -10.621,1.66 -3.895,-0.289 -8.102,-1.191 -12.531,-2.988 -4.461,-1.805 -9.036,-4.215 -13.641,-7.312 -4.355,-2.954 -8.141,-6.192 -11.344,-9.575 -3.203,-3.382 -5.543,-6.765 -7.054,-10.371 -1.582,-3.523 -2.231,-7.09 -1.977,-10.761 0.18,-3.708 1.547,-7.27 3.887,-10.766 2.015,-2.949 4.211,-5.434 6.586,-7.27 2.41,-1.765 4.5,-3.062 6.371,-4.101 v 0 l 9.969,7.379 v 0 c -1.903,0.5 -4.028,1.367 -6.372,2.515 -2.371,1.262 -4.57,3.243 -6.437,6.012 -3.027,4.504 -3.672,8.719 -1.836,12.816 1.727,4.036 5.613,8.176 11.77,12.317 v 0" /><path
         id="path48"
         style="fill:#ffffff;fill-opacity:1;fill-rule:nonzero;stroke:none"
         d="m 429.797,730.66 c -1.152,-2.019 -2.703,-3.605 -4.719,-4.898 -2.015,-1.188 -4.574,-1.762 -7.633,-1.801 -3.168,-0.074 -6.191,0.574 -9.254,1.836 -3.093,1.367 -5.472,2.773 -7.308,4.141 v 0 l -0.43,-13.79 v 0 c 1.906,-0.972 4.645,-1.945 8.027,-2.882 3.418,-0.93 6.911,-1.434 10.368,-1.403 8.57,0.145 14.941,3.242 19.082,9.11 3.687,5.168 5.347,12.312 5.683,21.414 v 0 l -0.933,54.797 v 0 c -0.035,2.164 0.035,4.14 0.109,6.261 0.07,2.125 0.07,4.145 0.145,6.125 v 0 l -10.801,-0.179 v 0 c 0,-0.438 0,-1.301 0.035,-2.274 -0.105,-1.004 -0.074,-2.121 -0.18,-3.273 -0.07,-1.149 -0.07,-2.125 -0.07,-3.129 -0.109,-1.008 -0.109,-1.836 -0.109,-2.27 h -0.325 v 0 c -1.511,3.239 -3.457,6.086 -5.832,8.457 -2.375,2.235 -5.363,3.313 -8.964,3.278 -3.489,-0.075 -6.586,-0.969 -9.145,-2.84 -2.594,-1.91 -4.824,-4.356 -6.445,-7.672 -1.618,-3.238 -2.914,-7.27 -3.633,-11.809 -0.828,-4.75 -1.192,-9.863 -1.117,-15.55 0.109,-6.805 0.757,-12.489 2.09,-17.137 1.187,-4.711 2.699,-8.496 4.644,-11.305 1.977,-2.949 4.102,-4.933 6.512,-6.152 2.414,-1.262 4.898,-1.875 7.344,-1.836 3.96,0.035 7.058,1.187 9.402,3.633 2.305,2.343 4.172,5.183 5.613,8.75 h 0.215 l 0.16,-8.907 v 0 c -0.539,-2.699 -1.422,-6.718 -2.531,-8.695 v 0" /><path
         id="path50"
         style="fill:#ee2c30;fill-opacity:1;fill-rule:nonzero;stroke:none"
         d="m 298.789,755.426 c -2.156,6.336 -2.914,11.664 -2.379,15.73 0.617,3.996 2.594,6.66 5.762,7.774 6.59,2.343 12.242,-3.024 16.961,-16.27 v 0 l -20.344,-7.234 v 0" /><path
         id="path52"
         style="fill:#ee2c30;fill-opacity:1;fill-rule:nonzero;stroke:none"
         d="m 469.25,776.055 c 1.184,6.586 3.059,11.625 5.547,14.937 2.445,3.207 5.433,4.574 8.777,4.031 6.914,-1.113 9.254,-8.531 6.989,-22.425 v 0 l -21.313,3.457 v 0" /><path
         id="path54"
         style="fill:#ee2c30;fill-opacity:1;fill-rule:nonzero;stroke:none"
         d="m 580.414,743.004 c 3.203,5.867 6.52,10.082 9.902,12.457 3.348,2.269 6.586,2.629 9.61,1.082 6.23,-3.242 6.125,-11.016 -0.356,-23.512 v 0 l -19.156,9.973 v 0" /><path
         id="path56"
         style="fill:#ee2c30;fill-opacity:1;fill-rule:nonzero;stroke:none"
         d="m 667.68,673.598 -4.461,-4.825 v 0 c -3.961,-4.285 -7.887,-7.019 -11.813,-8.246 -4.066,-1.261 -7.558,-0.539 -10.652,2.305 -2.234,2.051 -3.098,4.465 -2.844,7.094 0.289,2.629 1.762,5.363 4.176,7.988 3.273,3.531 6.766,5.152 10.652,4.824 3.895,-0.32 7.887,-2.48 12.102,-6.371 0.504,-0.465 1.004,-0.933 1.582,-1.476 0.574,-0.536 1.078,-1.004 1.258,-1.293 v 0" /><path
         id="path58"
         style="fill:#ee2c30;fill-opacity:1;fill-rule:nonzero;stroke:none"
         d="m 712.789,630.863 c 5.613,3.672 10.512,5.762 14.613,6.266 4.075,0.359 7.094,-0.828 9.004,-3.637 3.922,-5.797 0.11,-12.597 -11.523,-20.484 v 0 l -12.094,17.855 v 0" /><path
         id="path60"
         style="fill:#ee2c30;fill-opacity:1;fill-rule:nonzero;stroke:none"
         d="m 411.469,753.336 c -1.942,4.141 -3.063,10.617 -3.203,19.586 -0.114,8.387 0.683,14.683 2.414,19.082 1.617,4.32 4.496,6.476 8.562,6.691 3.821,0.075 6.809,-2.015 8.965,-6.265 2.09,-4.207 3.203,-10.617 3.352,-19.008 v 0 c 0.14,-8.817 -0.832,-15.332 -2.668,-19.652 -1.797,-4.43 -4.895,-6.586 -9.286,-6.661 -3.382,-0.074 -6.121,2.016 -8.136,6.227 v 0" /><path
         id="path62"
         style="fill:#231f20;fill-opacity:1;fill-rule:nonzero;stroke:none"
         d="m 517.992,569.949 c -5.363,0 -11.09,-1.183 -16.234,-2.625 -13.285,-3.746 -24.625,-12.851 -32.871,-23.902 -6.91,-9.219 -11.84,-20.524 -15.297,-31.535 -3.277,-10.262 -5.692,-21.383 -7.559,-31.969 -2.054,-12.027 -3.636,-24.66 -4.179,-36.828 -0.504,-11.953 0.074,-25.238 0.902,-37.117 0.863,-12.024 2.086,-24.805 3.996,-36.719 2.195,-13.684 5.473,-27.469 10.297,-40.43 4.965,-13.535 12.887,-28.511 24.226,-37.437 10.508,-8.317 23.762,-12.387 37.118,-11.879 14.183,0.465 27.718,6.082 38.125,15.691 9.32,8.571 16.086,21.348 20.734,33.196 5.148,13.105 8.781,27.175 11.305,41.039 2.191,12.132 3.707,24.371 4.57,36.683 0.898,13.176 1.047,26.387 0.609,39.528 -0.394,11.41 -1.257,23.109 -2.914,34.378 -1.656,10.985 -4.066,21.926 -7.597,32.438 -3.598,10.941 -8.711,21.996 -15.66,31.176 -7.993,10.511 -18.829,19.511 -31.532,23.328 -5.761,1.726 -11.988,2.984 -18.039,2.984 v 0" /><path
         id="path64"
         style="fill:#231f20;fill-opacity:1;fill-rule:nonzero;stroke:none"
         d="M 404.77,567.035 H 268.906 V 417.133 l 39.961,-9.504 v 0 c 0.254,0.863 0.723,2.234 1.078,3.094 0.578,1.332 1.371,2.664 2.125,3.851 2.633,3.821 5.977,7.098 9.903,9.508 5.078,3.098 10.836,4.785 16.777,4.75 6.84,-0.07 13.57,-2.34 18.754,-6.695 4.644,-3.922 8.062,-9.973 10.367,-15.551 1.91,-4.645 3.457,-9.434 4.504,-14.402 1.293,-5.973 1.941,-12.094 1.941,-18.289 0.075,-5.719 -0.468,-11.516 -1.546,-17.133 -1.008,-5.614 -2.668,-11.301 -5.254,-16.414 -2.559,-5.153 -6.125,-9.903 -10.766,-13.36 -5.223,-3.812 -11.445,-5.937 -17.895,-6.086 -6.371,-0.105 -12.601,1.696 -17.886,5.188 -4.973,3.273 -8.899,7.738 -11.313,13.105 -0.679,1.473 -1.433,3.633 -1.976,5.11 v 0 L 268.906,333.07 v 0 c 0.328,-1.547 0.723,-3.777 1.153,-5.254 1.257,-4.714 3.82,-9.468 6.445,-13.535 4.215,-6.551 9.328,-12.742 15.305,-17.75 6.222,-5.218 13.461,-9.179 21.058,-12.023 8.891,-3.348 18.395,-5.149 27.899,-4.824 8.027,0.254 16.015,2.054 23.507,5.004 7.598,2.917 14.688,6.949 20.879,12.167 6.661,5.583 12.168,12.317 16.453,19.872 4.606,8.136 7.848,17.644 10.153,26.714 2.555,9.973 4.25,20.446 4.355,30.707 0.11,9.579 -1.3,19.657 -3.277,29.09 -1.941,9.325 -4.898,19.403 -9.324,27.86 -4.176,8.101 -9.789,15.336 -16.594,21.351 -6.773,6.047 -14.617,10.731 -23.074,13.934 -8.176,3.094 -16.887,4.715 -25.668,4.715 -8.317,0 -16.672,-1.442 -24.336,-4.754 -0.906,-0.43 -2.344,-1.039 -3.203,-1.438 v 63.469 h 94.133 v 38.66" /><path
         id="path66"
         style="fill:#ffffff;fill-opacity:1;fill-rule:nonzero;stroke:none"
         d="m 518.102,528.191 c 3.242,0.075 6.445,-0.648 9.253,-2.195 2.805,-1.441 5.071,-4.066 6.766,-6.66 2.774,-4.32 4.75,-10.441 6.051,-15.481 2.191,-8.496 3.922,-17.207 5.254,-25.917 1.332,-9.004 2.304,-18.11 2.914,-27.215 0.648,-9.328 1.012,-18.649 0.937,-28.008 -0.039,-10.512 -0.504,-21.098 -1.441,-31.613 -0.938,-10.579 -2.41,-21.594 -4.684,-31.891 -1.613,-7.164 -3.703,-14.438 -6.511,-21.277 -1.442,-3.493 -3.278,-7.204 -5.508,-10.297 -1.512,-2.09 -3.352,-4.067 -5.508,-5.543 -2.34,-1.481 -5.078,-2.41 -7.918,-2.559 -3.277,-0.215 -6.695,0.578 -9.437,2.485 -1.942,1.335 -3.743,3.527 -5.11,5.543 -2.086,3.203 -3.887,6.734 -5.402,10.332 -2.77,6.66 -4.676,14.293 -6.043,21.347 -1.836,10.082 -3.098,22.211 -3.895,32.367 -0.789,10.008 -1.507,21.598 -1.507,31.61 0,9.254 0.578,18.644 1.507,27.859 0.907,9.145 2.274,18.324 3.856,27.399 1.437,8.281 3.242,16.918 5.472,24.984 1.442,5.254 3.672,11.555 6.696,15.98 1.765,2.563 4.031,5.079 6.765,6.52 2.274,1.187 4.825,2.051 7.493,2.23 v 0" /></g></g></svg>