<?xml version="1.0" encoding="UTF-8" standalone="no"?>
<svg
   xmlns:dc="http://purl.org/dc/elements/1.1/"
   xmlns:cc="http://creativecommons.org/ns#"
   xmlns:rdf="http://www.w3.org/1999/02/22-rdf-syntax-ns#"
   xmlns:svg="http://www.w3.org/2000/svg"
   xmlns="http://www.w3.org/2000/svg"
   xmlns:sodipodi="http://sodipodi.sourceforge.net/DTD/sodipodi-0.dtd"
   xmlns:inkscape="http://www.inkscape.org/namespaces/inkscape"
   viewBox="0 0 600.66962 600.66999"
   height="600.66998"
   width="600.66962"
   xml:space="preserve"
   version="1.1"
   id="svg4129"
   sodipodi:docname="Luxembourg_road_signs_C,14 (50).svg"
   inkscape:version="1.0 (4035a4fb49, 2020-05-01)"><sodipodi:namedview
     id="namedview35"
     pagecolor="#ffffff"
     bordercolor="#666666"
     borderopacity="1.0"
     inkscape:pageshadow="2"
     inkscape:pageopacity="0.0"
     inkscape:pagecheckerboard="0"
     showgrid="false"
     inkscape:zoom="0.82987666"
     inkscape:cx="343.16675"
     inkscape:cy="164.37611"
     inkscape:window-width="1920"
     inkscape:window-height="1001"
     inkscape:window-x="-9"
     inkscape:window-y="-9"
     inkscape:window-maximized="1"
     inkscape:current-layer="svg4129"
     inkscape:document-rotation="0" /><metadata
     id="metadata4135"><rdf:RDF><cc:Work
         rdf:about=""><dc:format>image/svg+xml</dc:format><dc:type
           rdf:resource="http://purl.org/dc/dcmitype/StillImage" /><dc:title></dc:title></cc:Work></rdf:RDF></metadata><defs
     id="defs4133" /><path
     d="M 599.66964,300.33502 C 599.66964,465.65572 465.65548,599.67 300.33486,599.67 135.01424,599.67 1.0000018,465.65572 1.0000018,300.33502 1.0000018,135.01429 135.01424,1.0000018 300.33486,1.0000018 c 165.32062,0 299.33478,134.0142882 299.33478,299.3350182 z"
     style="display:inline;fill:#ffffff;fill-opacity:1;fill-rule:nonzero;stroke:#000000;stroke-width:2;stroke-miterlimit:4;stroke-dasharray:none;stroke-opacity:1"
     id="path13009" /><path
     d="m 300.33486,10.977846 c -159.33396,0 -289.357018,130.023154 -289.357018,289.357174 0,159.32872 130.023058,289.35714 289.357018,289.35714 159.32863,0 289.35697,-130.02842 289.35697,-289.35714 0,-159.33402 -130.02834,-289.357174 -289.35697,-289.357174 z m 0,80.223059 c 115.97694,0 209.13392,93.151725 209.13392,209.134115 0,115.97702 -93.15698,209.13408 -209.13392,209.13408 -115.98227,0 -209.133949,-93.15706 -209.133949,-209.13408 0,-115.98239 93.151679,-209.134115 209.133949,-209.134115 z"
     style="display:inline;fill:#c1121c;fill-opacity:1;fill-rule:nonzero;stroke:none;stroke-width:1.33037"
     id="path13013" /><path
     id="path5159"
     style="fill:#000000;fill-opacity:1;fill-rule:evenodd;stroke:none;stroke-width:23.9801"
     d="m 380.31406,190.01261 c -35.87669,0 -64.98529,28.94454 -64.98529,64.91497 v 101.44741 c 0,35.78285 29.1086,64.91498 64.98529,64.91498 35.9697,0 65.0204,-29.13213 65.0204,-64.91498 V 254.92758 c 0,-35.97043 -29.0507,-64.91497 -65.0204,-64.91497 z m 0,32.42232 c 17.8911,0 32.5277,14.60087 32.5277,32.49265 v 101.44741 c 0,17.89179 -14.6366,32.42233 -32.5277,32.42233 -17.8918,0 -32.38719,-14.53054 -32.38719,-32.42233 V 254.92758 c 0,-17.89178 14.49539,-32.49265 32.38719,-32.49265 z" /><path
     id="path5163"
     d="M 165.06437,313.6596 V 191.9791 h 121.9612 v 32.41064 h -91.3302 v 51.33221 c 25.4786,-20.23269 62.4796,-15.83065 82.7123,9.64848 8.1496,10.39739 12.6461,23.23049 12.6461,36.43877 v 34.56471 c 0,35.78285 -29.0383,64.91516 -64.915,64.91516 -33.5349,0 -61.6365,-25.47863 -64.8218,-58.82647 h 32.9726 c 3.2766,17.51715 20.2337,29.13285 37.9377,25.85434 15.3625,-2.99776 26.416,-16.39291 26.416,-31.94303 V 327.8977 c 0,-17.89178 -14.6134,-32.41045 -32.5045,-32.41045 -12.4585,0 -23.7927,7.11887 -29.3197,18.17235 h -31.7547"
     style="fill:#000000;fill-opacity:1;fill-rule:evenodd;stroke:none;stroke-width:23.9801" /></svg>
