<?xml version="1.0" encoding="UTF-8" standalone="no"?>
<!-- Created with Inkscape (http://www.inkscape.org/) -->

<svg
   xmlns:svg="http://www.w3.org/2000/svg"
   xmlns="http://www.w3.org/2000/svg"
   version="1.1"
   width="148.69415"
   height="99.75634"
   id="svg3739">
  <title
     id="title3007">N51</title>
  <defs
     id="defs3741" />
  <g
     transform="translate(-445.65292,-365.34116)"
     id="layer1">
    <g
       transform="translate(442.65292,362.34116)"
       id="g3627">
      <rect
         width="148.69415"
         height="99.75634"
         rx="11.191623"
         ry="11.191623"
         x="3"
         y="3"
         id="rect3629"
         style="fill:#c1121c;fill-opacity:1;stroke:none" />
      <g
         transform="scale(0.99089929,1.0091843)"
         id="text3633"
         style="font-size:111.41795349px;font-style:normal;font-variant:normal;font-weight:normal;font-stretch:normal;text-align:center;line-height:125%;writing-mode:lr-tb;text-anchor:middle;fill:#ffffff;fill-opacity:1;stroke:none;font-family:SnvDReg;-inkscape-font-specification:SnvDReg">
        <path
           d="m 49.151535,28.169113 0,13.604004 c 3.504855,-1.120068 6.720672,-1.680126 9.647461,-1.680176 4.552695,5e-5 8.698932,0.948535 12.438721,2.845459 3.739695,1.897018 6.765815,4.597943 9.078369,8.102783 2.673769,4.04691 4.010682,8.888702 4.010742,14.525391 -6e-5,6.467791 -1.6983,11.851575 -5.094727,16.151367 -2.42095,3.035162 -5.410938,5.392825 -8.96997,7.072998 -3.559125,1.680175 -7.380166,2.520263 -11.463135,2.520264 -6.178739,-1e-6 -11.616722,-1.896972 -16.313965,-5.690918 -4.588881,-3.685539 -7.551768,-8.726061 -8.888672,-15.121582 l 13.766602,0 c 0.903296,2.74611 2.339574,4.850845 4.308838,6.314209 1.969209,1.46339 4.381072,2.195079 7.235595,2.195068 4.119102,1.1e-5 7.352986,-1.625964 9.701661,-4.877929 1.445266,-1.987287 2.167922,-4.317851 2.167968,-6.9917 l 0,-3.306152 c -4.6e-5,-3.035127 -0.957565,-5.582488 -2.872558,-7.64209 -2.384807,-2.52926 -5.311562,-3.793908 -8.780274,-3.793945 -3.902374,3.7e-5 -7.22659,1.842809 -9.972656,5.52832 l -13.604004,0 0,-42.058593 43.901367,0 0,12.303222 z"
           id="path3003"
           style="font-size:111px;line-height:125%;fill:#ffffff;font-family:SnvDReg;-inkscape-font-specification:SnvDReg" />
        <path
           d="m 118.03874,15.865891 0,73.981933 -13.5498,0 0,-52.844238 -7.425296,0 0,-7.533692 7.425296,-13.604003 z"
           id="path3005"
           style="font-size:111px;line-height:125%;fill:#ffffff;font-family:SnvDReg;-inkscape-font-specification:SnvDReg" />
      </g>
    </g>
  </g>
</svg>
