<?xml version="1.0" encoding="UTF-8" standalone="no"?>
<!-- Created with Inkscape (http://www.inkscape.org/) -->

<svg
   xmlns:dc="http://purl.org/dc/elements/1.1/"
   xmlns:cc="http://creativecommons.org/ns#"
   xmlns:rdf="http://www.w3.org/1999/02/22-rdf-syntax-ns#"
   xmlns:svg="http://www.w3.org/2000/svg"
   xmlns="http://www.w3.org/2000/svg"
   xmlns:sodipodi="http://sodipodi.sourceforge.net/DTD/sodipodi-0.dtd"
   xmlns:inkscape="http://www.inkscape.org/namespaces/inkscape"
   width="85.276001cm"
   height="74.842003cm"
   viewBox="0 0 852.76001 748.42001"
   version="1.1"
   id="svg8"
   inkscape:version="0.92.2 (5c3e80d, 2017-08-06)"
   sodipodi:docname="Taiwan_road_sign_éµ-2.svg">
  <defs
     id="defs2" />
  <sodipodi:namedview
     id="base"
     pagecolor="#ffffff"
     bordercolor="#666666"
     borderopacity="1.0"
     inkscape:pageopacity="0.0"
     inkscape:pageshadow="2"
     inkscape:zoom="0.12197802"
     inkscape:cx="1736.608"
     inkscape:cy="1594.8861"
     inkscape:document-units="cm"
     inkscape:current-layer="layer1"
     showgrid="false"
     units="cm"
     showguides="true"
     fit-margin-top="0"
     fit-margin-left="0"
     fit-margin-right="0"
     fit-margin-bottom="0"
     inkscape:window-width="1920"
     inkscape:window-height="1057"
     inkscape:window-x="-8"
     inkscape:window-y="-8"
     inkscape:window-maximized="1" />
  <metadata
     id="metadata5">
    <rdf:RDF>
      <cc:Work
         rdf:about="">
        <dc:format>image/svg+xml</dc:format>
        <dc:type
           rdf:resource="http://purl.org/dc/dcmitype/StillImage" />
        <dc:title></dc:title>
      </cc:Work>
    </rdf:RDF>
  </metadata>
  <g
     inkscape:label="Layer 1"
     inkscape:groupmode="layer"
     id="layer1"
     transform="translate(-25.620033,451.41996)">
    <path
       sodipodi:nodetypes="cccc"
       inkscape:connector-curvature="0"
       id="path856"
       d="m 62.617472,259.99995 778.760278,8e-5 -389.37957,-674.42624 z"
       style="fill:#ffffff;fill-opacity:1;stroke:#e10c0a;stroke-width:70;stroke-linecap:round;stroke-linejoin:round;stroke-miterlimit:4;stroke-dasharray:none;stroke-opacity:1" />
    <path
       d="m 347.42347,-16.038662 c 11.8506,2.433268 17.7812,4.303085 17.7812,5.603926 0,1.3003917 -0.64796,2.3544443 -1.9488,3.1654305 -1.79084,1.3003917 -2.75994,3.0074838 -2.92313,5.114232 -1.45864,17.0490295 -3.24978,31.1011825 -5.35653,42.1407915 -1.3004,6.009421 -2.92313,12.177106 -4.87193,18.513196 -0.65243,1.464624 -1.22126,2.190959 -1.70649,2.190959 -5.19843,-1.622131 -9.6647,-2.759787 -13.39896,-3.407588 -1.3004,-0.326969 -1.9488,-1.054052 -1.9488,-2.196338 2.75979,-8.116328 5.11945,-16.964828 7.06287,-26.545332 2.27532,-9.417318 3.98181,-23.3061452 5.11946,-41.656155 0,-1.948802 0.72709,-2.923122 2.19111,-2.923122 m 25.33392,-48.961309 c 12.34044,0 18.51321,0.97492 18.51321,2.923063 0,2.275311 -0.81668,3.570914 -2.43851,3.897483 -1.45864,0.162736 -2.1911,1.790795 -2.1911,4.871904 V 160.31923 c 0,1.78545 -1.37952,2.6808 -4.13976,2.6808 h -9.74384 c -2.60182,0 -3.89759,-0.89579 -3.89759,-2.6808 V -62.076908 c 0,-1.948741 1.29592,-2.923063 3.89759,-2.923063 m 33.37127,47.012507 c 3.08108,7.468526 5.60409,14.3734435 7.55273,20.7043145 1.9488,5.5249537 3.65006,11.5345225 5.11423,18.0235005 0,0.652431 -4.95612,2.359523 -14.85807,5.11946 -0.48969,-4.224112 -1.62735,-9.338344 -3.41297,-15.347924 -1.78547,-6.9786723 -4.22396,-13.9625728 -7.30519,-20.946623 0,-0.974919 4.29786,-3.49195 12.90927,-7.552728 m 27.04041,101.088136 h 101.33044 c 1.78548,0 3.24442,0.406091 4.38207,1.216789 3.73428,3.576302 5.6041,5.767411 5.6041,6.578557 -5.35656,9.585732 -10.22847,17.049032 -14.61577,22.410652 -5.35639,6.65738 -10.96048,12.17725 -16.80671,16.56455 -1.79085,1.29592 -3.65528,2.51763 -5.60409,3.65528 5.51973,2.59661 12.01917,4.86669 19.48768,6.82058 8.9327,2.59136 20.462,5.03002 34.59315,7.30534 1.6169,0.32098 2.43341,0.64795 2.43341,0.97492 0,0.97491 -0.40609,1.86443 -1.21679,2.68095 -3.08644,2.43327 -6.00956,5.3564 -8.7695,8.76937 -1.13768,1.45864 -2.03301,2.1911 -2.68082,2.1911 -0.65243,0 -2.19111,-0.40609 -4.62961,-1.21679 -6.81549,-1.46461 -14.21027,-3.24977 -22.16326,-5.36176 -9.58588,-2.75994 -18.43422,-6.00957 -26.55071,-9.74384 -2.60182,-1.13766 -4.87176,-2.27531 -6.82056,-3.40774 -9.74385,4.5454 -20.38302,8.27966 -31.91232,11.20278 -7.79505,2.27531 -18.02351,4.46643 -30.69048,6.57842 -2.60182,0 -4.38728,-0.81668 -5.36176,-2.43344 -1.94864,-2.92312 -3.89744,-5.84624 -5.84624,-8.76936 -0.97493,-0.9794 -1.45865,-1.86981 -1.45865,-2.68081 0,-0.4897 0.56882,-0.81665 1.70649,-0.97492 7.79503,-0.97491 15.42675,-2.19095 22.89527,-3.65513 13.4781,-2.60198 24.75987,-5.9306 33.86112,-9.98615 -6.17814,-4.71397 -10.63919,-9.33834 -13.39897,-13.8836 -4.71397,-5.19858 -8.69053,-11.85597 -11.93495,-19.977528 h -15.8324 c -1.95401,0 -2.92311,-1.375035 -2.92311,-4.139751 v -7.552879 c 0,-2.106758 0.96895,-3.16544 2.92311,-3.16544 M 422.45106,22.936689 h 138.59932 c 2.59645,0 3.89744,0.97492 3.89744,2.923272 v 43.59958 c 0,1.948801 -1.3004,2.923122 -3.89744,2.923122 H 422.45106 c -2.43865,0 -3.65529,-0.97492 -3.65529,-2.923122 v -43.59958 c 0,-1.948801 1.21679,-2.923272 3.65529,-2.923272 M 459.47224,36.57812 H 436.32943 V 58.7466 h 23.14281 z m -17.53888,-95.489408 h 97.68054 c 2.5966,0 3.89745,0.97492 3.89745,2.923063 V 7.104288 c 0,1.9435741 -1.3004,2.923272 -3.89745,2.923272 h -97.68054 c -2.43327,0 -3.64992,-0.9793989 -3.64992,-2.923272 v -63.092513 c 0,-1.948742 1.2168,-2.923063 3.64992,-2.923063 m 13.64144,28.014705 h 70.15551 V -45.269996 H 455.5748 Z m 70.15551,13.88359 H 455.5748 v 13.3991221 h 70.15551 z M 466.29295,97.958892 c 1.62228,3.086468 3.32877,5.846248 5.11946,8.284898 3.5657,5.3564 8.19531,10.31266 13.88359,14.85791 1.62228,1.13766 3.24441,2.19112 4.87192,3.16559 3.40775,-1.9488 6.48883,-3.81339 9.25399,-5.60408 6.17291,-4.5454 11.20801,-9.65949 15.1056,-15.34254 1.45866,-1.62229 2.92313,-3.412972 4.38207,-5.361778 z M 503.56182,36.57812 H 476.03679 V 58.7466 h 27.52503 z m 43.60481,0 H 520.12622 V 58.7466 h 27.04041 z"
       style="fill:#000000;fill-opacity:1;fill-rule:nonzero;stroke:none;stroke-width:5.26692963"
       id="path1423"
       inkscape:connector-curvature="0" />
  </g>
</svg>
