<?xml version="1.0" encoding="UTF-8" standalone="no"?>
<!-- Created with Inkscape (http://www.inkscape.org/) -->
<!-- http://www.yonden.co.jp/english/ir/financial_info/ann_r/pdf/annual_e_2010.pdf -->
<svg
   xmlns:svg="http://www.w3.org/2000/svg"
   xmlns="http://www.w3.org/2000/svg"
   version="1.0"
   width="249.999"
   height="247.339">
  <path
     d="M 2.80592,207.672 L 2.80592,222.809 C 2.80592,232.174 8.43447,234.117 17.4201,234.117 C 17.5537,234.117 17.6428,234.117 17.7653,234.117 L 25.2477,234.117 C 29.5179,234.117 32.7747,233.159 35.1631,231.684 C 35.1019,237.34 34.5563,240.458 28.8999,241.248 L 2.80592,241.248 L 2.80592,247.166 L 24.5518,247.166 C 24.769,247.205 24.9749,247.339 25.2477,247.339 C 26.2332,247.339 27.3132,247.205 28.204,247.166 L 29.0781,247.166 C 40.1626,246.504 41.9497,242.367 41.9497,229.941 C 41.9497,229.256 41.9664,228.633 41.9497,228.031 L 41.9497,218.289 C 41.9664,217.771 41.9497,217.37 41.9497,216.897 C 41.9497,216.507 41.9664,216.017 41.9497,215.678 L 41.9497,207.672 L 34.9905,207.672 L 34.9905,221.941 C 34.4895,226.061 32.463,227.853 25.2477,227.853 L 18.4612,227.853 C 10.4387,227.853 9.7651,226.506 9.7651,222.809 L 9.7651,207.672 L 2.80592,207.672 z M 53.9528,207.672 C 49.0202,207.672 45.0785,211.602 45.0785,216.546 L 45.0785,238.292 C 45.0785,243.225 49.0202,247.166 53.9528,247.166 L 73.9617,247.166 C 78.8832,247.166 82.836,243.225 82.836,238.292 L 82.836,216.546 C 82.836,211.602 78.8832,207.672 73.9617,207.672 L 53.9528,207.672 z M 91.7103,207.672 C 90.1125,208.045 86.7164,209.587 86.3156,215.327 C 86.2877,215.722 86.3156,216.117 86.3156,216.546 L 86.3156,247.166 L 93.4473,247.166 L 93.4473,216.546 C 93.4473,213.562 95.3624,213.762 95.3624,213.762 C 96.5371,213.762 97.4502,215.505 97.4502,215.505 C 97.4502,215.505 106.502,237.88 107.538,240.558 C 108.596,243.253 110.026,247.339 117.804,247.339 C 125.593,247.339 125.459,242.234 125.459,238.643 C 125.459,235.052 125.459,207.672 125.459,207.672 L 119.023,207.672 C 119.023,207.672 119.023,229.395 119.023,237.073 C 119.023,243.458 115.499,240.781 115.194,240.035 C 114.87,239.305 105.778,217.259 103.885,212.543 C 101.993,207.817 96.2309,207.672 96.2309,207.672 L 92.5788,207.672 C 92.5788,207.672 92.2392,207.549 91.7103,207.672 z M 133.811,207.672 C 132.213,208.045 128.995,209.587 128.589,215.327 C 128.561,215.722 128.589,216.117 128.589,216.546 L 128.589,238.292 C 128.594,238.726 128.566,239.11 128.589,239.511 C 129.129,247.155 134.679,247.339 134.679,247.339 L 150.168,247.339 C 155.895,247.339 166.463,247.25 166.691,230.464 L 166.691,224.897 C 166.691,207.566 155.963,207.672 150.168,207.672 L 134.679,207.672 C 134.679,207.672 134.345,207.549 133.811,207.672 z M 180.085,207.672 C 169.915,207.672 169.998,218.806 169.998,218.806 L 169.998,236.032 C 170.008,236.906 170.382,247.166 180.085,247.166 L 204.097,247.166 L 204.097,241.426 L 180.609,241.426 C 179.786,241.315 177.13,240.569 177.13,236.032 L 177.13,230.114 L 203.056,230.114 L 203.056,224.201 L 177.13,224.201 L 177.13,218.806 C 177.13,213.484 180.96,213.412 180.96,213.412 L 204.097,213.412 L 204.097,207.672 L 180.085,207.672 z M 212.276,207.672 C 210.684,208.045 207.466,209.587 207.054,215.327 C 207.032,215.722 207.054,216.117 207.054,216.546 L 207.054,247.166 L 214.013,247.166 L 214.013,216.546 C 214.013,213.562 216.101,213.762 216.101,213.762 C 217.298,213.762 218.189,215.505 218.189,215.505 C 218.189,215.505 227.23,237.88 228.282,240.558 C 229.335,243.253 230.582,247.339 238.37,247.339 C 246.137,247.339 246.204,242.234 246.204,238.643 C 246.204,235.052 246.204,207.672 246.204,207.672 L 239.762,207.672 C 239.762,207.672 239.762,229.395 239.762,237.073 C 239.762,243.458 236.244,240.781 235.937,240.035 C 235.615,239.305 226.544,217.259 224.625,212.543 C 222.726,207.817 216.975,207.672 216.975,207.672 L 213.318,207.672 C 213.318,207.672 212.805,207.549 212.276,207.672 z M 56.0405,213.412 L 72.0465,213.412 C 74.524,213.412 76.4002,215.483 76.4002,217.938 L 76.4002,236.9 C 76.4002,239.372 74.524,241.426 72.0465,241.426 L 56.0405,241.426 C 53.5686,241.426 51.5199,239.372 51.5199,236.9 L 51.5199,217.938 C 51.5199,215.483 53.5686,213.412 56.0405,213.412 z M 137.641,213.412 L 150.168,213.412 C 159.905,213.412 159.91,224.897 159.91,224.897 C 159.905,224.897 159.999,225.075 160.083,225.248 L 160.083,229.768 C 159.999,229.913 159.91,229.941 159.91,229.941 C 159.905,229.941 159.905,241.426 150.168,241.426 L 137.641,241.426 C 137.636,241.426 135.548,241.265 135.548,238.292 L 135.548,216.546 C 135.548,213.562 137.641,213.412 137.641,213.412 z"
     style="fill:#231f20;fill-opacity:1;fill-rule:nonzero;stroke:none" />
  <path
     d="M 196.493,57.839 C 196.493,57.839 164.743,58.084 157.972,82.419 C 152.684,101.42 147.601,116.262 145.636,121.857 C 137.474,114.631 126.361,110.177 114.118,110.177 C 89.0547,110.177 68.7507,128.778 68.7507,151.732 C 68.7507,174.669 89.0547,193.28 114.118,193.28 C 139.167,193.28 159.487,174.669 159.487,151.732 C 159.487,141.187 155.189,131.572 148.13,124.246 L 204.404,123.889 C 204.404,123.889 231.305,125.999 239.784,99.449 C 248.23,72.876 250,57.839 250,57.839 L 196.493,57.839 M 86.3768,105.545 C 92.8516,85.236 95.4014,71.668 96.2365,66.407 L 147.99,66.056 C 147.99,66.056 174.919,68.138 183.371,41.599 C 191.833,15.054 193.581,0 193.581,0 L 140.102,0 C 140.102,0 113.728,0.251 106.959,24.591 C 101.692,43.497 96.6318,58.301 94.6498,63.935 L 46.3311,63.935 C 46.3311,63.935 19.9699,64.202 13.1945,88.531 C 6.43024,112.838 1.11022e-16,130.37 1.11022e-16,130.37 L 51.0077,130.008 C 51.0077,130.008 77.9145,132.096 86.3768,105.545"
     style="fill:#ed192e;fill-opacity:1;fill-rule:nonzero;stroke:none" />
</svg>
