<?xml version="1.0" encoding="UTF-8" standalone="no"?>
<svg
   xmlns:dc="http://purl.org/dc/elements/1.1/"
   xmlns:cc="http://creativecommons.org/ns#"
   xmlns:rdf="http://www.w3.org/1999/02/22-rdf-syntax-ns#"
   xmlns:svg="http://www.w3.org/2000/svg"
   xmlns="http://www.w3.org/2000/svg"
   xmlns:xlink="http://www.w3.org/1999/xlink"
   xmlns:sodipodi="http://sodipodi.sourceforge.net/DTD/sodipodi-0.dtd"
   xmlns:inkscape="http://www.inkscape.org/namespaces/inkscape"
   width="1010.4"
   height="1010.4"
   viewBox="-505.2 -505.2 1010.4 1010.4"
   id="svg2"
   version="1.1"
   inkscape:version="0.48.5 r10040"
   sodipodi:docname="Laos_stop_sign.svg">
  <sodipodi:namedview
     pagecolor="#ffffff"
     bordercolor="#666666"
     borderopacity="1"
     objecttolerance="10"
     gridtolerance="10"
     guidetolerance="10"
     inkscape:pageopacity="0"
     inkscape:pageshadow="2"
     inkscape:window-width="1600"
     inkscape:window-height="838"
     id="namedview21"
     showgrid="false"
     inkscape:zoom="0.35355339"
     inkscape:cx="522.96574"
     inkscape:cy="407.95744"
     inkscape:window-x="-8"
     inkscape:window-y="-8"
     inkscape:window-maximized="1"
     inkscape:current-layer="svg2" />
  <metadata
     id="metadata4">
    <rdf:RDF>
      <cc:Work
         rdf:about="">
        <dc:format>image/svg+xml</dc:format>
        <dc:type
           rdf:resource="http://purl.org/dc/dcmitype/StillImage" />
        <dc:title />
      </cc:Work>
    </rdf:RDF>
  </metadata>
  <defs
     id="defs6">
    <path
       id="Oct"
       d="M 500,-207.10678 500,207.10678 207.10678,500 -207.10678,500 -500,207.10678 -500,-207.10678 -207.10678,-500 l 414.21356,0 z"
       inkscape:connector-curvature="0" />
  </defs>
  <use
     xlink:href="#Oct"
     transform="matrix(1.01,0,0,1.01,-1.2207031e-5,-2.1035156e-5)"
     id="use9"
     x="0"
     y="0"
     width="100%"
     height="100%" />
  <use
     xlink:href="#Oct"
     style="fill:#ffffff"
     id="use11"
     transform="translate(-1.2207031e-5,-2.1035156e-5)"
     x="0"
     y="0"
     width="100%"
     height="100%" />
  <use
     xlink:href="#Oct"
     style="fill:#d20a0a;fill-opacity:1"
     transform="matrix(0.85,0,0,0.85,-1.2207031e-5,-2.1035156e-5)"
     id="use13"
     x="0"
     y="0"
     width="100%"
     height="100%" />
  <g
     id="g3849"
     transform="translate(-3.9999999,-7.9999998)">
    <path
       style="fill:#ffffff;fill-opacity:1;stroke:none"
       d="m 123.17186,-183.82165 c -50.602944,10.08088 -88.362391,28.50708 -88.299594,82.31914 l 0,197.4135 0.05854,0 c 0.293122,24.90664 27.183835,45.02926 60.332188,45.02926 33.330516,0 58.045546,-20.81282 58.045546,-45.90874 0,-20.194375 -14.73027,-41.047938 -39.40061,-42.742634 l 0,-153.791386 0.0586,0 c -0.0878,-17.45115 26.2338,-26.9327 53.1791,-27.14656 0.0386,2.7e-4 0.0786,-2.9e-4 0.11726,0 26.94574,0.21356 53.26692,9.94388 53.1791,27.14656 l 0,244.61215 79.03576,0 0,-244.61215 c 0.80889,-40.29986 -15.37498,-69.55878 -88.24097,-82.31914 -31.03429,-4.71993 -56.89869,-4.92842 -88.06486,0 z"
       id="path3044"
       inkscape:connector-curvature="0"
       sodipodi:nodetypes="ccccssccccccccccc" />
    <path
       inkscape:connector-curvature="0"
       id="path3046"
       d="m -62.918013,170.86776 c -27.068916,0 -47.140017,18.51729 -47.140017,40.86641 0,17.98407 11.977296,36.60151 32.012996,38.11071 l 0,59.04229 64.201894,0 0,-97.91522 -0.05854,0 c -0.238054,-22.18057 -22.095262,-40.10419 -49.016239,-40.10419 z"
       style="fill:#ffffff;fill-opacity:1;stroke:none" />
    <path
       inkscape:connector-curvature="0"
       id="path3823"
       d="m -32.883937,-289.44093 c -46.438446,0.46538 -56.121241,21.30409 -55.817537,82.67093 0.303685,61.36684 1.055374,158.677783 1.055374,257.335269 0.09024,17.397979 -26.935,27.223741 -54.6449,27.439712 -0.0398,3.01e-4 -0.0775,-2.62e-4 -0.11726,0 -27.7094,-0.216271 -54.79359,-9.790452 -54.70353,-27.439712 l -0.0587,0 0,-27.850137 c 0.0601,-0.547049 0.11166,-1.099333 0.11726,-1.524429 0.45989,-10.820064 11.03265,-17.8791345 20.228,-18.0586135 l 0,-0.05864 14.30618,0 0,-27.0879215 0,-10.846896 0,-27.087923 -14.30618,0 0,-0.05863 c -9.19535,-0.179479 -19.76794,-7.238549 -20.228,-18.058615 -0.006,-0.425095 -0.0571,-0.977379 -0.11726,-1.524428 l 0,-23.394116 c 25.36987,-1.71392 40.51462,-22.78806 40.51462,-43.21169 0,-25.3808 -18.11473,-45.10974 -59.68724,-46.43644 -34.07114,-1.08731 -61.7312,20.36757 -62.03251,45.55696 l -0.0586,0 0,88.710021 c 3.61752,12.803212 13.24614,28.325665 29.31593,33.185637 -15.92871,4.771678 -24.52414,13.064343 -29.31593,31.1335215 l 0,46.6123325 c -0.0645,54.422938 38.72405,73.061928 90.76213,83.257238 32.04996,4.98438 58.67181,4.7735 90.586235,0 74.932407,-12.90521 91.5939698,-42.499877 90.762129,-83.257238 0.5083054,-91.293211 -0.4823573,-187.545852 -0.3517912,-276.976952 0.1886164,-10.24686 4.6786915,-17.85924 25.9152842,-14.95112 l -47.433179,-48.07813 c -1.595312,-0.0289 -3.17644,-0.015 -4.69055,0 z"
       style="fill:#ffffff;fill-opacity:1;stroke:none" />
  </g>
</svg>
