<?xml version="1.0" encoding="UTF-8" standalone="no"?>
<!-- Created with Inkscape (http://www.inkscape.org/) -->

<svg
   xmlns:dc="http://purl.org/dc/elements/1.1/"
   xmlns:cc="http://creativecommons.org/ns#"
   xmlns:rdf="http://www.w3.org/1999/02/22-rdf-syntax-ns#"
   xmlns:svg="http://www.w3.org/2000/svg"
   xmlns="http://www.w3.org/2000/svg"
   xmlns:sodipodi="http://sodipodi.sourceforge.net/DTD/sodipodi-0.dtd"
   xmlns:inkscape="http://www.inkscape.org/namespaces/inkscape"
   width="61.400002mm"
   height="61.400002mm"
   viewBox="0 0 61.400002 61.400002"
   version="1.1"
   id="svg825"
   inkscape:version="0.92.2 (5c3e80d, 2017-08-06)"
   sodipodi:docname="11.svg">
  <defs
     id="defs819" />
  <sodipodi:namedview
     id="base"
     pagecolor="#ffffff"
     bordercolor="#666666"
     borderopacity="1.0"
     inkscape:pageopacity="0.0"
     inkscape:pageshadow="2"
     inkscape:zoom="2.2892582"
     inkscape:cx="146.43868"
     inkscape:cy="146.76984"
     inkscape:document-units="mm"
     inkscape:current-layer="layer1"
     showgrid="false"
     fit-margin-top="0"
     fit-margin-left="0"
     fit-margin-right="0"
     fit-margin-bottom="0"
     showborder="true"
     inkscape:window-width="1920"
     inkscape:window-height="1057"
     inkscape:window-x="-8"
     inkscape:window-y="-8"
     inkscape:window-maximized="1" />
  <metadata
     id="metadata822">
    <rdf:RDF>
      <cc:Work
         rdf:about="">
        <dc:format>image/svg+xml</dc:format>
        <dc:type
           rdf:resource="http://purl.org/dc/dcmitype/StillImage" />
        <dc:title></dc:title>
      </cc:Work>
    </rdf:RDF>
  </metadata>
  <g
     inkscape:label="Layer 1"
     inkscape:groupmode="layer"
     id="layer1"
     transform="translate(232.83333,-324.04641)">
    <rect
       style="opacity:1;fill:#000000;fill-opacity:1;fill-rule:nonzero;stroke:none;stroke-width:0.50057405;stroke-linecap:square;stroke-linejoin:round;stroke-miterlimit:4;stroke-dasharray:none;stroke-opacity:1;paint-order:stroke fill markers"
       id="rect1373"
       width="60.400002"
       height="60.400002"
       x="-232.33333"
       y="324.54642"
       rx="3.8"
       ry="3.8" />
    <rect
       y="324.7464"
       x="-232.13333"
       height="60"
       width="60"
       id="rect1375"
       style="opacity:1;fill:#ffffff;fill-opacity:1;fill-rule:nonzero;stroke:none;stroke-width:0.49725902;stroke-linecap:square;stroke-linejoin:round;stroke-miterlimit:4;stroke-dasharray:none;stroke-opacity:1;paint-order:stroke fill markers"
       rx="3.5999999"
       ry="3.5999999" />
    <rect
       style="opacity:1;fill:#003c82;fill-opacity:1;fill-rule:nonzero;stroke:none;stroke-width:0.47239608;stroke-linecap:square;stroke-linejoin:round;stroke-miterlimit:4;stroke-dasharray:none;stroke-opacity:1;paint-order:stroke fill markers"
       id="rect1385"
       width="57"
       height="57"
       x="-230.63333"
       y="326.2464"
       rx="2.0999999"
       ry="2.0999999" />
    <path
       inkscape:connector-curvature="0"
       id="path5410"
       style="fill:#ffffff;fill-opacity:1;fill-rule:nonzero;stroke:none;stroke-width:0.13198861"
       d="m -226.9333,374.94639 h 49.6 l -24.8,-43"
       sodipodi:nodetypes="ccc" />
    <path
       id="path1085"
       style="fill:#000000;fill-opacity:1;fill-rule:evenodd;stroke:none;stroke-width:0.10135993px;stroke-linecap:butt;stroke-linejoin:miter;stroke-opacity:1"
       d="m -222.98941,372.79118 h 5.56163 l 3.58724,-9.31572 h -4.31026 z"
       inkscape:connector-curvature="0"
       sodipodi:nodetypes="ccccc" />
    <path
       id="path1089"
       style="fill:#000000;fill-opacity:1;fill-rule:evenodd;stroke:none;stroke-width:0.10110254px;stroke-linecap:butt;stroke-linejoin:miter;stroke-opacity:1"
       d="m -199.31775,372.79118 h -5.63114 l 0.80643,-9.31572 h 4.01828 z"
       inkscape:connector-curvature="0"
       sodipodi:nodetypes="ccccc" />
    <path
       sodipodi:nodetypes="ccccc"
       inkscape:connector-curvature="0"
       d="m -213.99348,372.79118 h 5.51991 l 1.61287,-9.31572 h -4.1017 z"
       style="fill:#000000;fill-opacity:1;fill-rule:evenodd;stroke:none;stroke-width:0.10135993px;stroke-linecap:butt;stroke-linejoin:miter;stroke-opacity:1"
       id="path1121" />
    <path
       sodipodi:nodetypes="ccccc"
       inkscape:connector-curvature="0"
       d="m -181.27723,372.79118 h -5.56162 l -3.58725,-9.31572 h 4.31026 z"
       style="fill:#000000;fill-opacity:1;fill-rule:evenodd;stroke:none;stroke-width:0.10135993px;stroke-linecap:butt;stroke-linejoin:miter;stroke-opacity:1"
       id="path846" />
    <path
       id="path848"
       style="fill:#000000;fill-opacity:1;fill-rule:evenodd;stroke:none;stroke-width:0.10135993px;stroke-linecap:butt;stroke-linejoin:miter;stroke-opacity:1"
       d="m -190.27316,372.79118 h -5.51991 l -1.61287,-9.31572 h 4.1017 z"
       inkscape:connector-curvature="0"
       sodipodi:nodetypes="ccccc" />
    <path
       id="path962"
       d="m -206.25776,360.84791 c 0.0705,-0.18355 2.48959,-5.21929 2.55064,-5.64793 0.061,-0.41925 -0.44618,-3.94276 -0.52605,-4.01814 -0.0845,-0.0848 -3.75276,2.71329 -3.90307,2.7227 -0.15509,0 -0.3146,-0.18834 -0.39922,-0.18357 -0.0658,0.004 -0.48848,0.41922 -0.69984,0.51814 -0.0705,0.0375 -0.1503,0.0612 -0.2396,0.0658 -0.32891,0.0136 -0.61058,-0.28748 -0.62468,-0.66418 -0.0102,-0.22149 0.0845,-0.44752 0.16904,-0.54173 0.0893,-0.0944 0.2253,-0.21671 0.33334,-0.24508 0.10804,-0.0343 0.24881,-0.0375 0.32891,-0.0848 0.0705,-0.0375 0.0658,-0.36742 0.0658,-0.36742 0,0 3.19854,-2.29876 3.34418,-2.44478 0.15031,-0.14597 1.35269,-3.37279 1.57814,-3.60831 0.22086,-0.23074 1.1554,-1.14466 1.1554,-1.14466 l 0.0137,-0.39571 c 0,0 -0.83604,-0.26869 -0.89708,-0.40509 -0.0562,-0.14118 -0.53544,-1.80886 -0.53544,-1.80886 l -0.93938,-0.29193 -0.0375,-0.28271 1.16009,-0.52757 0.0239,-0.67359 c 0,0 0.91591,-0.47578 1.54059,-0.41924 0.61997,0.0612 1.23525,0.35799 1.24467,0.52286 0.003,0.16955 0.024,0.74898 0.024,0.74898 l 1.28222,0.5323 -0.0138,0.27791 -1.20711,0.70189 0.13156,1.8842 c 0,0 2.32494,1.06931 2.46114,1.22946 0.13156,0.16477 2.9237,3.37751 3.01296,3.54705 0.0798,0.16032 0.85481,4.42795 0.77024,4.42795 -0.0705,0.004 -0.37102,0.27312 -0.37102,0.27312 0,0 0.11282,0.89031 -0.10326,1.20591 -0.0102,0.017 -0.0239,0.0274 -0.0341,0.0376 -0.10805,0.19793 -0.30062,0.3343 -0.53545,0.34388 -0.35695,0.0136 -0.66694,-0.29193 -0.68105,-0.68777 0,-0.0896 0.0102,-0.17433 0.034,-0.25434 l 0.0422,-0.34387 -0.26312,-0.2403 c 0,0 -0.47909,-3.43401 -0.58709,-3.51407 -0.10805,-0.0752 -2.12525,-1.93134 -2.12525,-1.93134 l 0.76087,6.21327 c 0.0137,0.3343 -0.18779,0.62176 -0.46966,0.71127 l 3.51508,11.33363 c 0.0893,0.23073 0.0102,0.49931 -0.19734,0.61235 l -3.01068,1.52626 c -0.16904,0.0896 -0.37106,0.004 -0.45559,-0.18358 -0.0797,-0.18356 0.23962,-0.60764 0.17383,-0.52286 0.0422,-0.0612 0.18302,-0.24954 0.36166,-0.52287 0.24882,-0.38156 0.16428,-0.69244 -0.0518,-1.17764 0,0 -2.53345,-8.2058 -2.64149,-8.2058 -0.10805,0 -2.03401,3.52822 -2.14201,3.64597 l -0.0102,0.0102 -2.12301,5.94945 c -0.0893,0.23553 -0.26312,0.40981 -0.48844,0.37215 l -3.2596,-0.66892 c -0.19258,-0.0375 -0.3146,-0.23074 -0.28187,-0.4381 0.034,-0.2027 0.18779,-0.24508 0.39926,-0.30628 0.21131,-0.0612 0.28186,-0.0848 0.77965,-0.20714 0.47437,-0.0659 0.71861,-0.38156 0.83138,-0.81964 0,0 1.69084,-5.45482 1.76599,-5.63384"
       style="fill:none;fill-opacity:1;fill-rule:nonzero;stroke:#ffffff;stroke-width:1.11232471;stroke-linecap:round;stroke-linejoin:round;stroke-miterlimit:4;stroke-dasharray:none;stroke-opacity:1"
       inkscape:connector-curvature="0"
       sodipodi:nodetypes="cccccccccccccccccccccccccccccccccccccccccccccccccccscccccccccc" />
    <path
       sodipodi:nodetypes="cccccccccccccccccccccccccccccccccccccccccccccccccccscccccccccc"
       inkscape:connector-curvature="0"
       style="fill:#000000;fill-opacity:1;fill-rule:nonzero;stroke:none;stroke-width:0.0217062"
       d="m -206.25776,360.84791 c 0.0705,-0.18355 2.48959,-5.21929 2.55064,-5.64793 0.061,-0.41925 -0.44618,-3.94276 -0.52605,-4.01814 -0.0845,-0.0848 -3.75276,2.71329 -3.90307,2.7227 -0.15509,0 -0.3146,-0.18834 -0.39922,-0.18357 -0.0658,0.004 -0.48848,0.41922 -0.69984,0.51814 -0.0705,0.0375 -0.1503,0.0612 -0.2396,0.0658 -0.32891,0.0136 -0.61058,-0.28748 -0.62468,-0.66418 -0.0102,-0.22149 0.0845,-0.44752 0.16904,-0.54173 0.0893,-0.0944 0.2253,-0.21671 0.33334,-0.24508 0.10804,-0.0343 0.24881,-0.0375 0.32891,-0.0848 0.0705,-0.0375 0.0658,-0.36742 0.0658,-0.36742 0,0 3.19854,-2.29876 3.34418,-2.44478 0.15031,-0.14597 1.35269,-3.37279 1.57814,-3.60831 0.22086,-0.23074 1.1554,-1.14466 1.1554,-1.14466 l 0.0137,-0.39571 c 0,0 -0.83604,-0.26869 -0.89708,-0.40509 -0.0562,-0.14118 -0.53544,-1.80886 -0.53544,-1.80886 l -0.93938,-0.29193 -0.0375,-0.28271 1.16009,-0.52757 0.0239,-0.67359 c 0,0 0.91591,-0.47578 1.54059,-0.41924 0.61997,0.0612 1.23525,0.35799 1.24467,0.52286 0.003,0.16955 0.024,0.74898 0.024,0.74898 l 1.28222,0.5323 -0.0138,0.27791 -1.20711,0.70189 0.13156,1.8842 c 0,0 2.32494,1.06931 2.46114,1.22946 0.13156,0.16477 2.9237,3.37751 3.01296,3.54705 0.0798,0.16032 0.85481,4.42795 0.77024,4.42795 -0.0705,0.004 -0.37102,0.27312 -0.37102,0.27312 0,0 0.11282,0.89031 -0.10326,1.20591 -0.0102,0.017 -0.0239,0.0274 -0.0341,0.0376 -0.10805,0.19793 -0.30062,0.3343 -0.53545,0.34388 -0.35695,0.0136 -0.66694,-0.29193 -0.68105,-0.68777 0,-0.0896 0.0102,-0.17433 0.034,-0.25434 l 0.0422,-0.34387 -0.26312,-0.2403 c 0,0 -0.47909,-3.43401 -0.58709,-3.51407 -0.10805,-0.0752 -2.12525,-1.93134 -2.12525,-1.93134 l 0.76087,6.21327 c 0.0137,0.3343 -0.18779,0.62176 -0.46966,0.71127 l 3.51508,11.33363 c 0.0893,0.23073 0.0102,0.49931 -0.19734,0.61235 l -3.01068,1.52626 c -0.16904,0.0896 -0.37106,0.004 -0.45559,-0.18358 -0.0797,-0.18356 0.23962,-0.60764 0.17383,-0.52286 0.0422,-0.0612 0.18302,-0.24954 0.36166,-0.52287 0.24882,-0.38156 0.16428,-0.69244 -0.0518,-1.17764 0,0 -2.53345,-8.2058 -2.64149,-8.2058 -0.10805,0 -2.03401,3.52822 -2.14201,3.64597 l -0.0102,0.0102 -2.12301,5.94945 c -0.0893,0.23553 -0.26312,0.40981 -0.48844,0.37215 l -3.2596,-0.66892 c -0.19258,-0.0375 -0.3146,-0.23074 -0.28187,-0.4381 0.034,-0.2027 0.18779,-0.24508 0.39926,-0.30628 0.21131,-0.0612 0.28186,-0.0848 0.77965,-0.20714 0.47437,-0.0659 0.71861,-0.38156 0.83138,-0.81964 0,0 1.69084,-5.45482 1.76599,-5.63384"
       id="path856" />
  </g>
</svg>
