<svg xmlns="http://www.w3.org/2000/svg" width="1000.3995" height="1000.3998" viewBox="-50 -30 100.03992 100.04">
  <path d="M.01998 70.02c-27.61426 0-50-22.38576-50-50.00002 0-27.6142 22.38574-49.99998 50-49.99998 27.6142 0 49.99997 22.38577 49.99997 49.99998C50.01995 47.63424 27.6342 70.02.01998 70.02z" fill="#ce252c"/>
  <path d="M.01997 58.3535c-21.17102 0-38.3335-17.1625-38.3335-38.3335S-21.15106-18.3135.01997-18.3135c21.17096 0 38.33347 17.1625 38.33347 38.3335S21.19094 58.3535.01997 58.3535z" fill="#ffd100"/>
  <path d="M21.94682 1.72143c-2.22847 0-4.38846.7611-6.12392 2.15908-1.97942 1.5876-3.5611 3.6157-4.62237 5.9203-1.3394 3.2464-2.03176 6.722-2.0364 10.2335.0046 3.5118.697 6.9897 2.0364 10.236 1.06126 2.3044 2.64295 4.3303 4.62237 5.9178 1.73546 1.3981 3.89545 2.1591 6.12392 2.1591 2.22848 0 4.38846-.761 6.12392-2.1591 1.97943-1.5875 3.56112-3.6134 4.6224-5.9178 1.33938-3.2463 2.03175-6.7242 2.03638-10.236-.0046-3.5115-.697-6.9871-2.0364-10.2335-1.06126-2.3046-2.64295-4.3327-4.62238-5.9203-1.73546-1.3979-3.89544-2.159-6.12392-2.159zm0 6.10675c.8367 0 1.64582.28655 2.29647.8121 1.2122.97126 2.1882 2.20577 2.8534 3.6091 1.0031 2.4736 1.5214 5.1163 1.526 7.78493-.0046 2.6696-.523 5.3138-1.5261 7.7874-.6652 1.4034-1.6412 2.6356-2.8534 3.6067-.6507.5258-1.4598.8146-2.2965.8146s-1.6458-.2887-2.2965-.8145c-1.2122-.971-2.1882-2.2033-2.8534-3.6066-1.0031-2.4736-1.5215-5.1178-1.5261-7.7874.0046-2.6686.5229-5.3113 1.526-7.7849.6652-1.4033 1.6412-2.6378 2.8534-3.6091.65063-.5255 1.4598-.8121 2.2965-.8121zm-28.1013-6.1354c-2.23022 0-4.3919.76168-6.12872 2.16076-1.98097 1.58876-3.5639 3.61847-4.626 5.92492-1.34042 3.24888-2.03334 6.72723-2.03797 10.24153.0046 3.5145.69755 6.995 2.03798 10.2439 1.0621 2.3062 2.6451 4.3337 4.626 5.9224 1.7369 1.3991 3.8985 2.1607 6.1288 2.1607 2.2302 0 4.3919-.7617 6.1287-2.1608 1.981-1.5888 3.5639-3.6163 4.626-5.9225 1.3405-3.2489 2.0334-6.72947 2.038-10.244-.0046-3.5143-.6975-6.9927-2.038-10.24157C3.5382 7.4717 1.9553 5.442-.0257 3.85323c-1.7368-1.39903-3.8985-2.1607-6.1287-2.1607zm0 6.11153c.83734 0 1.6471.2868 2.29827.8128 1.2131.972 2.1899 2.2075 2.8556 3.6119C.0033 14.7045.522 17.3493.5267 20.02c-.0046 2.67163-.52338 5.31793-1.52727 7.79347-.66572 1.40442-1.64248 2.63767-2.85564 3.60945-.6512.5262-1.461.8152-2.2983.8152-.8374 0-1.6471-.289-2.2983-.8152-1.2132-.97178-2.19-2.20503-2.8557-3.60945-1.0039-2.47554-1.5227-5.12184-1.5273-7.79348.0046-2.6708.5233-5.3155 1.5272-7.7911.6657-1.4045 1.6425-2.6399 2.8556-3.6119.6512-.526 1.46092-.8128 2.2983-.8128z" opacity=".99"/>
  <path d="M-32.48965 7.01006v3.56666h2.76337V38.3533h6.11126V1.68667h-4.03437z"/>
</svg>
