<?xml version="1.0" encoding="UTF-8" standalone="no"?>
<svg
   xmlns:dc="http://purl.org/dc/elements/1.1/"
   xmlns:cc="http://creativecommons.org/ns#"
   xmlns:rdf="http://www.w3.org/1999/02/22-rdf-syntax-ns#"
   xmlns:svg="http://www.w3.org/2000/svg"
   xmlns="http://www.w3.org/2000/svg"
   xmlns:xlink="http://www.w3.org/1999/xlink"
   xmlns:sodipodi="http://sodipodi.sourceforge.net/DTD/sodipodi-0.dtd"
   xmlns:inkscape="http://www.inkscape.org/namespaces/inkscape"
   width="1010.4"
   height="1010.4"
   viewBox="-505.2 -505.2 1010.4 1010.4"
   id="svg2"
   version="1.1"
   inkscape:version="0.92.2 (5c3e80d, 2017-08-06)"
   sodipodi:docname="Cambodia_road_sign_R3-01.svg">
  <sodipodi:namedview
     pagecolor="#ffffff"
     bordercolor="#666666"
     borderopacity="1"
     objecttolerance="10"
     gridtolerance="10"
     guidetolerance="10"
     inkscape:pageopacity="0"
     inkscape:pageshadow="2"
     inkscape:window-width="1920"
     inkscape:window-height="1057"
     id="namedview21"
     showgrid="false"
     inkscape:zoom="0.66063814"
     inkscape:cx="472.40167"
     inkscape:cy="495.74598"
     inkscape:window-x="-8"
     inkscape:window-y="-8"
     inkscape:window-maximized="1"
     inkscape:current-layer="svg2"
     fit-margin-top="0"
     fit-margin-left="0"
     fit-margin-right="0"
     fit-margin-bottom="0" />
  <metadata
     id="metadata4">
    <rdf:RDF>
      <cc:Work
         rdf:about="">
        <dc:format>image/svg+xml</dc:format>
        <dc:type
           rdf:resource="http://purl.org/dc/dcmitype/StillImage" />
        <dc:title></dc:title>
      </cc:Work>
    </rdf:RDF>
  </metadata>
  <defs
     id="defs6">
    <path
       id="Oct"
       d="M 500,-207.10678 V 207.10678 L 207.10678,500 H -207.10678 L -500,207.10678 V -207.10678 L -207.10678,-500 h 414.21356 z"
       inkscape:connector-curvature="0" />
  </defs>
  <use
     xlink:href="#Oct"
     transform="matrix(1.01,0,0,1.01,0,-9.7242188e-5)"
     id="use9"
     x="0"
     y="0"
     width="100%"
     height="100%"
     style="stroke:none" />
  <use
     xlink:href="#Oct"
     style="fill:#ffffff;stroke:none"
     id="use11"
     transform="translate(0,-9.7242188e-5)"
     x="0"
     y="0"
     width="100%"
     height="100%" />
  <use
     xlink:href="#Oct"
     style="fill:#e10c0a;fill-opacity:1;stroke:none"
     transform="matrix(0.922,0,0,0.922,0,-9.7242188e-5)"
     id="use13"
     x="0"
     y="0"
     width="100%"
     height="100%" />
  <path
     d="m -139.89296,-255.56544 c 31.08984,16.27885 46.634054,25.90573 46.634054,28.85297 0,3.70473 -1.487554,5.55253 -4.445064,5.55253 -7.03328,0.37902 -11.65374,2.41134 -13.88147,6.10687 -12.57751,37.00163 -25.16482,68.0812 -37.74313,93.23857 v 375.15316 c 0,4.44394 -2.9666,6.66126 -8.88112,6.66126 h -22.20801 c -5.54503,0 -8.32724,-2.21732 -8.32724,-6.66126 V -55.775103 c -11.09916,15.909312 -25.17462,34.599502 -42.18819,56.05213437 -4.44577,0 -8.52144,-1.84778957 -12.21792,-5.55252757 -5.54503,-4.8042558 -11.29315,-9.6176488 -17.20837,-14.4218358 -2.58752,-2.22661 -3.89058,-4.453159 -3.89058,-6.661264 14.06576,-17.76633 28.32622,-36.632039 42.75237,-56.615702 18.87202,-25.526942 34.97072,-54.010372 48.2975,-85.459492 12.21793,-28.11383 21.83863,-55.67333 28.87111,-82.69699 0.73058,-2.94724 2.21803,-4.43466 4.43606,-4.43466 m 39.41638,255.84247137 h 355.29097 c 6.29361,0 9.43561,2.03259643 9.43561,6.09764923 V 99.613266 c 0,4.443874 -3.142,6.661214 -9.43561,6.661214 h -21.65353 c -6.2936,0 -9.4362,-2.21734 -9.4362,-6.661214 V 35.236931 H -68.832964 v 64.376335 c 0,4.443874 -3.151002,6.661214 -9.435607,6.661214 h -22.208009 c -5.92412,0 -8.88113,-2.21734 -8.88113,-6.661214 V 8.6012898 c 0,-5.5525978 2.95701,-8.32425843 8.88113,-8.32425843 M 63.842419,-260.00008 c 28.122527,0 42.188191,2.21731 42.188191,6.66118 0,5.18301 -1.66355,8.13947 -4.99055,8.87853 -3.696481,0.36932 -5.545023,4.07434 -5.545023,11.09592 v 20.53791 H 252.59636 c 4.79645,0 7.20858,2.77173 7.20858,8.32427 v 17.74782 c 0,5.93135 -2.41213,8.8786 -7.20858,8.8786 H -78.268571 c -4.445062,0 -6.663093,-2.94725 -6.663093,-8.8786 v -17.74782 c 0,-5.55254 2.218031,-8.32427 6.663093,-8.32427 H 54.960595 v -40.51236 c 0,-4.44387 2.957608,-6.66118 8.881824,-6.66118 m -97.704068,122.08226 H 197.08058 c 5.91512,0 8.88173,2.22661 8.88173,6.66126 v 88.794628 c 0,4.443942 -2.96661,6.661264 -8.88173,6.661264 H -33.861649 c -5.545028,0 -8.317542,-2.217322 -8.317542,-6.661264 v -88.794708 c 0,-4.43457 2.772514,-6.66118 8.317542,-6.66118 m 9.435607,213.112778 H 186.53591 c 4.43606,0 6.6541,3.141193 6.6541,9.432855 v 17.202797 c 0,6.30087 -2.21804,9.43285 -6.6541,9.43285 h -76.05954 v 106.00671 c 0,28.48343 -22.947486,42.72975 -68.832962,42.72975 H -4.4360623 c -2.9666077,0 -4.4360627,-3.52 -4.4360627,-10.5508 -0.748576,-8.50899 -3.706185,-18.50546 -8.890824,-29.96163 v -2.21732 c 19.6114916,2.94717 38.6678,4.43466 57.179326,4.43466 21.098945,0 31.643618,-6.47647 31.643618,-19.42011 v -91.02126 h -95.486037 c -4.815151,0 -7.217576,-3.13198 -7.217576,-9.43285 V 84.627813 c 0,-6.291662 2.402425,-9.432855 7.217576,-9.432855 M 166.55503,-104.05738 H -2.2090315 v 34.959819 H 166.55503 Z"
     style="fill:#ffffff;fill-opacity:1;fill-rule:nonzero;stroke:none;stroke-width:9.24031639"
     id="path2345"
     inkscape:connector-curvature="0" />
</svg>
