<?xml version="1.0" encoding="utf-8"?>
<!-- Generator: Adobe Illustrator 20.1.0, SVG Export Plug-In . SVG Version: 6.00 Build 0)  -->
<svg version="1.1" xmlns="http://www.w3.org/2000/svg" xmlns:xlink="http://www.w3.org/1999/xlink" x="0px" y="0px" width="680.3px"
	 height="552.8px" viewBox="0 0 680.3 552.8" style="enable-background:new 0 0 680.3 552.8;" xml:space="preserve">
<style type="text/css">
	.st0{fill:#FFFFFF;stroke:#000000;stroke-width:2;stroke-miterlimit:10;}
	.st1{fill:#28833E;}
	.st2{fill:#FFFFFF;}
	.st3{fill:#FFFFFF;stroke:#FFFFFF;}
	.st4{fill:#FFFFFF;stroke:#FFFFFF;stroke-width:0.8974;}
	.st5{fill:#040000;}
	.st6{fill:#FFFFFF;stroke:#FFFFFF;stroke-width:1.564177e-02;}
	.st7{fill:#11763A;stroke:#11763A;stroke-width:1.564177e-02;}
	.st8{fill:#040000;stroke:#040000;stroke-width:1.564177e-02;}
</style>
<g id="Background">
	<g id="XMLID_1_">
		<rect class="st0" width="680.3" height="552.8"/>
		<rect x="4.3" y="369.9" class="st1" width="671.8" height="178.6"/>
		<rect x="4.3" y="187.1" class="st1" width="671.8" height="178.6"/>
		<rect x="4.3" y="4.3" class="st1" width="671.8" height="178.6"/>
	</g>
</g>
<g id="Word">
	<g>
		<path class="st2" d="M299.6,148.8c0,4.6-0.7,8.3-2,11.1c-1.2,2.3-3.2,4.3-5.9,5.8c-2.7,1.5-5.5,2.3-8.5,2.3
			c-3.7,0-7.1-1.1-9.9-3.3c-2.9-2.2-5-5.1-6.2-8.9l8.2-2.2c0.6,1.8,1.6,3.2,3,4.3c1.4,1,3.1,1.6,5,1.6c1.5,0,3-0.4,4.3-1.1
			c1.4-0.8,2.3-1.7,2.7-2.8c0.6-1.2,0.9-3.1,0.9-5.8v-25.2h8.4V148.8z"/>
		<path class="st2" d="M322.6,167.2h-8.5v-31.2h8.5V167.2z M322.5,128c0,1.2-0.4,2.2-1.2,3c-0.8,0.8-1.8,1.2-3,1.2
			c-1.1,0-2.1-0.4-2.8-1.2c-0.8-0.8-1.2-1.8-1.2-3c0-1.2,0.4-2.2,1.2-3c0.8-0.8,1.7-1.2,2.8-1.2c1.2,0,2.2,0.4,3,1.2
			S322.5,126.8,322.5,128z"/>
		<path class="st2" d="M364.2,167.2h-8.1v-1c-2.5,1-5.2,1.5-8.3,1.5c-3.5,0-6.3-1-8.5-2.9c-2.2-1.9-3.3-4.5-3.3-7.5
			c0-3.2,1.2-5.9,3.7-8c2.5-2.1,5.6-3.2,9.2-3.2c2.3,0,4.7,0.4,7.2,1.2c-0.1-2.8-2-4.2-5.6-4.2c-3,0-6,0.8-8.8,2.4l-3.2-6.7
			c4.2-2.2,8.2-3.3,12-3.3c4.4,0,7.8,1.1,10.1,3.2c2.4,2.1,3.5,5.4,3.5,9.6V167.2z M356.1,158.7v-4c-2.6-0.9-5-1.3-7.2-1.3
			c-1.4,0-2.5,0.3-3.4,1c-0.9,0.7-1.4,1.5-1.4,2.4c0,1,0.5,1.8,1.6,2.5c1.1,0.7,2.4,1.1,3.9,1.1C351.9,160.4,354,159.8,356.1,158.7z
			"/>
		<path class="st2" d="M389.8,167.2h-8.5v-40.2l8.5-3.3V167.2z"/>
		<path class="st2" d="M415.4,167.2h-8.5v-31.2h8.5V167.2z M415.2,128c0,1.2-0.4,2.2-1.2,3c-0.8,0.8-1.8,1.2-3,1.2
			c-1.1,0-2.1-0.4-2.8-1.2c-0.8-0.8-1.2-1.8-1.2-3c0-1.2,0.4-2.2,1.2-3c0.8-0.8,1.7-1.2,2.8-1.2c1.2,0,2.2,0.4,3,1.2
			S415.2,126.8,415.2,128z"/>
	</g>
	<g>
		<path class="st3" d="M393,26.3h55.9c0.8,0,1.2,0.3,1.2,0.9V66c0,0.9-0.4,1.3-1.2,1.3h-3.3c-0.9,0-1.3-0.4-1.3-1.3v-1.6h-20.6v11.3
			h26.5c0.7,0,1.1,0.4,1.1,1.2v2.7c0,0.8-0.4,1.2-1.1,1.2h-26.5v11.3h34.1c0.7,0,1.1,0.5,1.1,1.4v2.7c0,0.9-0.4,1.3-1.1,1.3h-73.6
			c-0.7,0-1.1-0.4-1.1-1.3v-2.7c0-0.9,0.4-1.4,1.1-1.4h33.5V81h-25.2c-0.7,0-1-0.4-1-1.2V77c0-0.8,0.3-1.2,1-1.2h25.2V64.4h-19.9
			v1.9c0,0.7-0.4,1-1.3,1H393c-0.8,0-1.2-0.3-1.2-1V27.5C391.7,26.7,392.1,26.3,393,26.3z M397.6,42.4h19.9v-11h-19.9V42.4z
			 M397.6,59h19.9V47.8h-19.9V59z M423.6,31.5v11h20.6v-11H423.6z M423.6,47.8V59h20.6V47.8H423.6z"/>
	</g>
	<g>
		<path class="st3" d="M248.2,22.3c4.6,2.4,7,3.9,7,4.3c0,0.4-0.2,0.7-0.7,0.7c-0.9,0.1-1.6,0.4-1.9,0.9c-2.1,5.6-4.2,10.3-6.3,14.1
			v57.3c0,0.7-0.4,1.1-1.3,1.1h-3.3c-0.9,0-1.4-0.4-1.4-1.1V51.7c-2,2.7-4.7,6-8.2,10.1c-0.7,0-1.3-0.3-1.8-0.8
			c-0.8-0.7-1.7-1.4-2.6-2.2c-0.4-0.3-0.7-0.6-0.7-1c2.4-2.8,4.9-5.7,7.5-8.8c3.2-4,6-8.4,8.3-13.4c2.1-4.3,3.7-8.5,4.8-12.7
			C247.7,22.5,247.9,22.3,248.2,22.3z M257.5,73.6h18.3v-9.2c0-0.7,0.5-1.1,1.4-1.1c4.2,0,6.2,0.4,6.2,1.1c0,0.7-0.3,1.1-0.8,1.2
			c-0.5,0.1-0.7,0.6-0.7,1.7v6.3h18.8c0.7,0,1.1,0.5,1.1,1.4v2.6c0,0.9-0.4,1.4-1.1,1.4h-18.8v13.6h22.5c0.7,0,1.1,0.4,1.1,1.3v2.7
			c0,0.8-0.4,1.2-1.1,1.2h-51.7c-0.7,0-1.1-0.4-1.1-1.2V94c0-0.9,0.4-1.3,1.1-1.3h23.2V79h-18.3c-0.6,0-0.9-0.5-0.9-1.4v-2.6
			C256.6,74.1,256.9,73.6,257.5,73.6z M258.1,34.8h17.9v-10c0-0.7,0.5-1,1.4-1c4.2,0,6.2,0.3,6.2,1c0,0.8-0.3,1.2-0.8,1.3
			c-0.6,0.1-0.8,0.6-0.8,1.7v7h18.3c0.7,0,1,0.5,1,1.4v2.6c0,0.9-0.3,1.4-1,1.4H282v12.2H304c0.7,0,1,0.5,1,1.4v2.6
			c0,0.9-0.3,1.4-1,1.4h-50.4c-0.7,0-1-0.5-1-1.4v-2.6c0-0.9,0.3-1.4,1-1.4h22.5V40.2h-17.9c-0.6,0-0.9-0.5-0.9-1.4v-2.6
			C257.2,35.3,257.5,34.8,258.1,34.8z"/>
	</g>
	<g>
		<path class="st3" d="M384.7,275.2H457c0.7,0,1,0.5,1,1.4v2.7c0,0.9-0.3,1.3-1,1.3h-72.3c-0.7,0-1.1-0.4-1.1-1.3v-2.7
			C383.7,275.7,384,275.2,384.7,275.2z M387,209.3h68.1c0.7,0,1,0.4,1,1.2v2.7c0,0.8-0.3,1.2-1,1.2H387c-0.7,0-1-0.4-1-1.2v-2.7
			C386,209.7,386.3,209.3,387,209.3z M399.3,256.1c3,3.2,5.4,6.2,7.3,9c1.8,2.5,3.3,5.1,4.6,8c0,0.2-1.9,0.7-5.6,1.6
			c-0.6-1.8-1.7-4-3.5-6.6c-1.9-3-4.4-6-7.5-9C394.7,258.6,396.2,257.6,399.3,256.1z M396.9,223.9h48.6c0.8,0,1.2,0.3,1.2,0.9V249
			c0,0.7-0.4,1-1.2,1h-48.6c-0.8,0-1.2-0.3-1.2-1v-24.2C395.7,224.2,396.1,223.9,396.9,223.9z M440.8,244.8v-15.7h-39.2v15.7H440.8z
			 M441.5,255.4l5,2c0.9,0.4,1.3,0.8,1.3,1.3s-0.4,0.8-1.2,1c-0.9,0-1.5,0.4-1.8,1.1c-2.7,5.5-5.3,9.8-7.9,12.9
			c-0.7,0.6-1.2,0.9-1.5,0.9c-0.4,0-0.9-0.2-1.5-0.6c-1.2-0.6-2.4-1.1-3.4-1.6c-0.4-0.2-0.7-0.4-0.7-0.5c0-0.2,0.1-0.4,0.4-0.7
			c2.7-2.6,4.6-4.9,5.9-6.9c1.9-2.6,3.3-5.2,4.2-7.8C440.7,255.8,441.1,255.4,441.5,255.4z"/>
	</g>
	<g>
		<path class="st3" d="M268.4,205.9c4.3,0,6.4,0.3,6.4,0.9c0,0.8-0.3,1.2-0.8,1.2c-0.6,0.1-0.9,0.7-0.9,1.8v3.9h30.2
			c0.7,0,1,0.4,1,1.3v2.7c0,0.9-0.3,1.4-1,1.4h-63.8v19.5c0,9.4-0.4,16.9-1.1,22.4c-0.4,4.6-1.4,9.2-2.7,13.8
			c-0.7,2.8-1.8,5.5-3.2,8.1c-0.3,0-0.6-0.1-0.8-0.2c-0.9-0.9-2-1.7-3.1-2.3c-0.2-0.3-0.3-0.7-0.3-1.2c1.1-2.3,2-5.5,2.9-9.5
			c0.8-4.3,1.4-8.7,1.7-13.3c0.4-4.9,0.6-10.8,0.6-17.8v-23.6c0-0.9,0.5-1.3,1.4-1.3h32.2v-7C267.2,206.2,267.6,205.9,268.4,205.9z
			 M245.6,243c4.2,0.9,6.2,1.6,6.2,2.1c0,0.6-0.3,1-1,1.2c-0.6,0.7-0.9,1.6-0.9,2.6c-0.5,8.4-1.2,15.2-2,20.6
			c-0.5,2.9-1.1,5.9-1.7,9c-0.2,0.7-0.4,1.1-0.6,1.1c-1.9-0.6-3.5-1-5-1.2c-0.5-0.1-0.7-0.4-0.7-0.8c1.1-3.9,2.1-8.1,2.9-12.8
			c0.8-4.6,1.4-11.3,1.8-20.3C244.6,243.5,244.9,243,245.6,243z M243.2,231.7h10.4v-8.9c0-0.7,0.4-1.1,1.2-1.1
			c4.2,0,6.3,0.4,6.3,1.1c0,0.7-0.2,1.1-0.7,1.2c-0.6,0.1-0.8,0.6-0.8,1.7v6h8c0.6,0,0.9,0.5,0.9,1.4v2.6c0,0.9-0.3,1.4-0.9,1.4h-8
			v46.2c0,0.7-0.5,1-1.4,1h-3.3c-0.8,0-1.2-0.3-1.2-1v-46.2h-10.4c-0.6,0-0.9-0.5-0.9-1.4v-2.6C242.3,232.2,242.6,231.7,243.2,231.7
			z M264.2,243.8h3c0.6,0,0.9,0.4,0.9,1.3c-0.4,2.5-0.6,5-0.6,7.4c0,6.7,0.6,12.8,1.9,18.4c0,0.4-0.3,0.7-0.8,0.9
			c-2.7,0.3-4.1,0.5-4.4,0.5l-0.3-1.2c-0.7-8.3-1-17-1-26.1C262.9,244.2,263.3,243.8,264.2,243.8z M273.8,243l5.8,0.5
			c0.6,0,0.8,0.3,0.8,0.9c0,0.7-0.4,1.2-1.1,1.6c-0.2,0-0.2,0.2-0.2,0.7c0,6.2-0.1,11-0.4,14.4c-0.2,3.8-0.6,7-1,9.5
			c-0.5,2.7-1.2,5.1-2,7.2c-0.7,0-1.2-0.1-1.6-0.2c-1.1-0.6-2.2-1.2-3.2-1.8c-0.5-0.1-0.7-0.3-0.7-0.7c0-0.2,0-0.3,0.1-0.5
			c0.9-2,1.6-4.6,2.1-7.8c0.4-3,0.8-6.3,1-9.8c0.2-3,0.2-7.5,0.2-13.3C273.6,243.3,273.7,243,273.8,243z M272.1,231.7h10.3v-8.9
			c0-0.7,0.4-1.1,1.3-1.1c4.2,0,6.3,0.4,6.3,1.1c0,0.7-0.3,1.1-0.8,1.2c-0.5,0.1-0.7,0.6-0.7,1.7v6h12.9c0.7,0,1.1,0.5,1.1,1.4v2.6
			c0,0.9-0.4,1.4-1.1,1.4h-12.9v46.2c0,0.7-0.5,1-1.4,1h-3.3c-0.9,0-1.3-0.3-1.3-1v-46.2h-10.3c-0.6,0-0.9-0.5-0.9-1.4v-2.6
			C271.2,232.2,271.5,231.7,272.1,231.7z M292.6,243c3.9,0.3,5.8,0.8,5.8,1.4c0,0.3-0.4,0.7-1.1,1.2v25.9c0,0.7,0.2,1.1,0.7,1.1h3.2
			c0.8,0,1.6-3,2.3-9l5.1,3.1c-1.6,7.5-3.6,11.2-6,11.2h-6.7c-2.9,0-4.4-1.2-4.4-3.7v-30.1C291.7,243.4,292,243,292.6,243z"/>
	</g>
	<g>
		<path class="st2" d="M281.1,350.5h-8.4v-23.2l-11.4,23.2l-11.6-23.2v23.2h-8.4v-42.9h8.4l11.6,23.6l11.4-23.6h8.4V350.5z"/>
		<path class="st2" d="M320,350.5h-8.1v-1c-2.5,1-5.2,1.5-8.3,1.5c-3.5,0-6.3-1-8.5-2.9c-2.2-1.9-3.3-4.5-3.3-7.5
			c0-3.2,1.2-5.9,3.7-8c2.5-2.1,5.6-3.2,9.2-3.2c2.3,0,4.7,0.4,7.2,1.2c-0.1-2.8-2-4.2-5.6-4.2c-3,0-6,0.8-8.8,2.4l-3.2-6.7
			c4.2-2.2,8.2-3.3,12-3.3c4.4,0,7.8,1.1,10.1,3.2c2.4,2.1,3.5,5.4,3.5,9.6V350.5z M311.9,341.9v-4c-2.6-0.9-5-1.3-7.2-1.3
			c-1.4,0-2.5,0.3-3.4,1c-0.9,0.7-1.4,1.5-1.4,2.4c0,1,0.5,1.8,1.6,2.5c1.1,0.7,2.4,1.1,3.9,1.1C307.7,343.6,309.9,343,311.9,341.9z
			"/>
		<path class="st2" d="M361.5,350.5h-8V349c-1.4,1.3-3.7,1.9-6.9,1.9c-3.6,0-6.7-1.6-9.4-4.8c-2.7-3.2-4-7-4-11.3
			c0-4.3,1.3-8.1,4-11.3c2.7-3.2,5.9-4.8,9.5-4.8c2.8,0,5,0.7,6.7,2.1v-10.3l8-3.3V350.5z M353.6,339.9v-10.2c-1.1-2-3-3-5.6-3
			c-1.7,0-3.2,0.8-4.3,2.4c-1.2,1.6-1.8,3.5-1.8,5.7c0,2.2,0.6,4.2,1.8,5.7c1.2,1.6,2.7,2.4,4.5,2.4
			C350.7,342.9,352.5,341.9,353.6,339.9z"/>
		<path class="st2" d="M399.5,323.4c3,3.2,4.5,7,4.5,11.5c0,4.4-1.5,8.3-4.5,11.4c-3,3.2-6.4,4.8-10.2,4.8c-3.9,0-7.3-1.6-10.1-4.7
			c-2.9-3.1-4.3-7-4.3-11.4c0-4.6,1.4-8.5,4.2-11.6c2.8-3.1,6.2-4.7,10.3-4.7C393.1,318.6,396.5,320.2,399.5,323.4z M395.2,334.9
			c0-2.3-0.6-4.2-1.8-5.9c-1.2-1.6-2.6-2.4-4.2-2.4c-1.7,0-3.1,0.8-4.2,2.4c-1.1,1.6-1.7,3.6-1.7,5.9c0,2.2,0.6,4.1,1.7,5.7
			c1.1,1.6,2.5,2.4,4.2,2.4c1.6,0,3-0.8,4.2-2.4C394.6,339,395.2,337.1,395.2,334.9z"/>
		<path class="st2" d="M445.3,350.5h-8.1v-2c-1.5,1-2.8,1.7-3.9,2s-2.6,0.4-4.3,0.4c-3.7,0-6.6-1-8.7-3.1c-2.1-2.1-3.1-4.6-3.1-7.5
			v-21h8.5v18.1c0,1.5,0.5,2.8,1.4,3.8c0.9,1,2.2,1.5,3.8,1.5c1.5,0,2.9-0.5,4.1-1.5c1.2-1,1.8-2.2,1.8-3.5v-18.4h8.5V350.5z"/>
	</g>
	<g>
		<path class="st2" d="M641.3,110.4c0,7.6-2.9,13.8-8.7,18.6c-5.8,4.8-13.4,7.1-22.7,7.1c-5.2,0-10.5-1.1-15.8-3.2
			c-5.4-2.1-9.9-4.9-13.8-8.4c-2.4-2.4-4.4-4.6-5.8-6.6l13.3-9.2c5.6,7.3,13.3,11,22.9,11c4.4,0,7.9-0.9,10.5-2.6
			c2.6-1.7,3.9-4.1,3.9-7c0-2-0.6-3.9-1.8-5.8c-1.2-1.9-2.7-3.2-4.6-4.1c-2.3-1.1-4.9-1.7-8-1.7h-2.4V82h4.4c2.4,0,4-0.3,5-0.9
			c2.3-1.3,3.4-3.3,3.4-5.8c0-2.4-1.2-4.4-3.6-5.8c-2.4-1.5-5.6-2.2-9.7-2.2c-6.7,0-12.5,2.3-17.3,7l-11.9-10.8
			c8.5-8.5,18.4-12.7,29.8-12.7c8.6,0,15.5,2.2,20.9,6.7c5.4,4.5,8.1,10.2,8.1,17.3c0,6.2-2.1,11.5-6.4,15.7
			C637.9,96.3,641.3,103,641.3,110.4z"/>
	</g>
	<g>
		<path class="st2" d="M580,317.7h-15.6v-56.1h-7.6v-16.8c1.8-0.9,3.3-1.9,4.4-2.9c1.1-1,1.8-1.9,2.1-2.6c0.4-0.7,1.1-2.2,2.1-4.5
			H580V317.7z"/>
		<path class="st2" d="M662.7,276.3c0,13.1-2.9,23.5-8.7,31.2c-5.8,7.7-13.6,11.6-23.3,11.6c-5.6,0-10.5-1.2-14.8-3.6
			c-4.3-2.4-7.6-5.6-10.1-9.7c-2.5-4.1-4.4-8.6-5.6-13.6c-1.2-5-1.8-10.3-1.8-15.9c0-13,2.9-23.3,8.7-31
			c5.8-7.7,13.7-11.5,23.7-11.5c9.4,0,17.1,3.9,23.1,11.8C659.7,253.4,662.7,263.6,662.7,276.3z M647.6,276c0-17.2-5.7-25.8-17-25.8
			c-11.3,0-17,8.7-17,26c0,8.4,1.5,14.9,4.4,19.5c2.9,4.6,7.1,6.9,12.6,6.9c5.2,0,9.4-2.4,12.4-7.2
			C646.1,290.7,647.6,284.2,647.6,276z"/>
	</g>
	<g>
		<path class="st2" d="M580.8,501.5h-15.6v-56.1h-7.5v-16.8c1.8-0.9,3.3-1.9,4.3-2.9c1-1,1.7-1.8,2.1-2.6c0.4-0.7,1-2.2,2.1-4.5
			h14.6V501.5z"/>
		<path class="st2" d="M661.9,501.5h-62c0.5-7,1.5-12.8,3.1-17.4c3.3-10.4,9.1-18.6,17.4-24.6c2.5-1.8,5.9-3.7,10.4-5.8l3-1.4
			l2.6-0.8l2.7-1.2c4.7-2.2,7-4.8,7-7.9c0-2.4-1.4-4.4-4.2-6s-6.4-2.4-10.8-2.4c-3.9,0-7.4,0.6-10.4,1.9c-3,1.2-6.4,3.4-10,6.5
			l-10.7-12.2c4.5-3.7,8.2-6.2,11-7.5c6.1-3.5,12.9-5.2,20.6-5.2c10.3,0,18,2.7,23.3,8c4.1,4.1,6.1,9.6,6.1,16.2
			c0,12-7.2,20.7-21.5,26c-4.4,1.8-7.5,3.2-9.2,4.2c-1.7,1-3.6,2.7-5.6,4.8c-2.5,2.7-4.3,5.3-5.6,8h42.8V501.5z"/>
	</g>
	<g>
		<path class="st4" d="M192,388.4c3.4,0,5.1,0.3,5.1,0.9c0,0.8-0.2,1.2-0.7,1.2c-0.5,0.1-0.7,0.7-0.7,1.8v3.9h24.3
			c0.5,0,0.8,0.4,0.8,1.3v2.7c0,0.9-0.3,1.4-0.8,1.4h-51.3v19.5c0,9.4-0.3,16.9-0.9,22.4c-0.4,4.6-1.1,9.2-2.2,13.8
			c-0.6,2.8-1.4,5.5-2.5,8.1c-0.3,0-0.5-0.1-0.7-0.2c-0.8-0.9-1.6-1.7-2.5-2.3c-0.2-0.3-0.3-0.7-0.3-1.2c0.8-2.3,1.6-5.5,2.3-9.5
			c0.7-4.3,1.1-8.7,1.4-13.3c0.3-4.9,0.5-10.8,0.5-17.8v-23.6c0-0.9,0.4-1.3,1.1-1.3H191v-7C191,388.7,191.4,388.4,192,388.4z
			 M173.6,425.5c3.3,0.9,5,1.6,5,2.1c0,0.6-0.3,1-0.8,1.2c-0.4,0.7-0.7,1.6-0.7,2.6c-0.4,8.4-0.9,15.2-1.6,20.6
			c-0.4,2.9-0.9,5.9-1.4,9c-0.2,0.7-0.3,1.1-0.5,1.1c-1.5-0.6-2.9-1-4-1.2c-0.4-0.1-0.6-0.4-0.6-0.8c0.9-3.9,1.7-8.1,2.3-12.8
			c0.6-4.6,1.1-11.3,1.5-20.3C172.8,426,173.1,425.5,173.6,425.5z M171.7,414.2h8.4v-8.9c0-0.7,0.3-1.1,1-1.1c3.4,0,5.1,0.4,5.1,1.1
			c0,0.7-0.2,1.1-0.6,1.2c-0.4,0.1-0.7,0.6-0.7,1.7v6h6.4c0.5,0,0.7,0.5,0.7,1.4v2.6c0,0.9-0.2,1.4-0.7,1.4h-6.4v46.2
			c0,0.7-0.4,1-1.1,1h-2.7c-0.7,0-1-0.3-1-1v-46.2h-8.4c-0.5,0-0.7-0.5-0.7-1.4v-2.6C171,414.7,171.2,414.2,171.7,414.2z
			 M188.6,426.3h2.4c0.5,0,0.7,0.4,0.7,1.3c-0.3,2.5-0.5,5-0.5,7.4c0,6.7,0.5,12.8,1.5,18.4c0,0.4-0.2,0.7-0.7,0.9
			c-2.1,0.3-3.3,0.5-3.5,0.5l-0.3-1.2c-0.5-8.3-0.8-17-0.8-26.1C187.5,426.7,187.9,426.3,188.6,426.3z M196.4,425.5l4.7,0.5
			c0.4,0,0.7,0.3,0.7,0.9c0,0.7-0.3,1.2-0.9,1.6c-0.1,0-0.2,0.2-0.2,0.7c0,6.2-0.1,11-0.3,14.4c-0.2,3.8-0.4,7-0.8,9.5
			c-0.4,2.7-0.9,5.1-1.6,7.2c-0.6,0-1-0.1-1.3-0.2c-0.9-0.6-1.8-1.2-2.6-1.8c-0.4-0.1-0.6-0.3-0.6-0.7c0-0.2,0-0.3,0.1-0.5
			c0.7-2,1.3-4.6,1.7-7.8c0.4-3,0.6-6.3,0.8-9.8c0.1-3,0.2-7.5,0.2-13.3C196.2,425.8,196.2,425.5,196.4,425.5z M195,414.2h8.3v-8.9
			c0-0.7,0.4-1.1,1.1-1.1c3.4,0,5.1,0.4,5.1,1.1c0,0.7-0.2,1.1-0.7,1.2c-0.4,0.1-0.6,0.6-0.6,1.7v6h10.4c0.6,0,0.9,0.5,0.9,1.4v2.6
			c0,0.9-0.3,1.4-0.9,1.4h-10.4v46.2c0,0.7-0.4,1-1.1,1h-2.7c-0.7,0-1.1-0.3-1.1-1v-46.2H195c-0.5,0-0.7-0.5-0.7-1.4v-2.6
			C194.2,414.7,194.5,414.2,195,414.2z M211.5,425.5c3.1,0.3,4.7,0.8,4.7,1.4c0,0.3-0.3,0.7-0.9,1.2v25.9c0,0.7,0.2,1.1,0.6,1.1h2.6
			c0.7,0,1.3-3,1.9-9l4.1,3.1c-1.3,7.5-2.9,11.2-4.8,11.2h-5.4c-2.4,0-3.5-1.2-3.5-3.7v-30.1C210.7,425.9,211,425.5,211.5,425.5z"/>
	</g>
	<g>
		<path class="st4" d="M238.9,457.7h58.2c0.5,0,0.8,0.5,0.8,1.4v2.7c0,0.9-0.3,1.3-0.8,1.3h-58.2c-0.6,0-0.9-0.4-0.9-1.3v-2.7
			C238.1,458.2,238.4,457.7,238.9,457.7z M240.7,391.8h54.9c0.5,0,0.8,0.4,0.8,1.2v2.7c0,0.8-0.3,1.2-0.8,1.2h-54.9
			c-0.5,0-0.8-0.4-0.8-1.2V393C239.9,392.2,240.2,391.8,240.7,391.8z M250.7,438.6c2.4,3.2,4.4,6.2,5.9,9c1.5,2.5,2.7,5.1,3.7,8
			c0,0.2-1.5,0.7-4.5,1.6c-0.4-1.8-1.4-4-2.8-6.6c-1.5-3-3.5-6-6-9C247,441.1,248.2,440.1,250.7,438.6z M248.8,406.4h39.1
			c0.7,0,1,0.3,1,0.9v24.2c0,0.7-0.3,1-1,1h-39.1c-0.7,0-1-0.3-1-1v-24.2C247.8,406.7,248.1,406.4,248.8,406.4z M284.1,427.3v-15.7
			h-31.6v15.7H284.1z M284.7,437.9l4,2c0.7,0.4,1.1,0.8,1.1,1.3s-0.3,0.8-0.9,1c-0.8,0-1.2,0.4-1.5,1.1c-2.1,5.5-4.3,9.8-6.4,12.9
			c-0.5,0.6-0.9,0.9-1.2,0.9c-0.3,0-0.7-0.2-1.2-0.6c-1-0.6-1.9-1.1-2.7-1.6c-0.4-0.2-0.5-0.4-0.5-0.5c0-0.2,0.1-0.4,0.3-0.7
			c2.1-2.6,3.7-4.9,4.7-6.9c1.6-2.6,2.7-5.2,3.3-7.8C284,438.3,284.4,437.9,284.7,437.9z"/>
	</g>
	<g>
		<path class="st4" d="M343.2,389.7c3.6,0,5.3,0.3,5.3,1c0,0.8-0.2,1.2-0.7,1.3c-0.4,0.1-0.6,0.6-0.6,1.7v6h26.9
			c0.6,0,0.9,0.4,0.9,1.3v2.7c0,0.9-0.3,1.4-0.9,1.4h-58.8c-0.6,0-0.9-0.5-0.9-1.4V401c0-0.9,0.3-1.3,0.9-1.3h26.7v-9
			C342.1,390,342.5,389.7,343.2,389.7z M355.6,424.3c3.9,2.2,5.9,3.4,5.9,3.7c0,0.4-0.4,0.7-1.1,0.8c-0.7,0.1-1.1,0.7-1.3,1.8
			c-2.2,5.6-4.2,9.9-6,12.9c-1.5,2.6-3.2,4.9-5,7c1.4,1.1,2.8,1.9,4.2,2.6c3.8,1.9,8,3.4,12.5,4.4c3.1,0.9,6.5,1.4,10,1.4
			c0,0.4-0.2,0.9-0.5,1.4c-0.5,1.4-0.9,2.8-1.3,4.2c-0.1,0.7-0.2,1.1-0.5,1.1c-4.5-0.7-8.4-1.5-11.7-2.4c-3.7-1.2-7.2-2.7-10.2-4.3
			c-2.3-1.3-4.5-2.8-6.5-4.4c-1.1,0.9-2.3,1.7-3.5,2.6c-2.7,1.7-5.9,3.3-9.7,5c-3.6,1.5-7.5,2.8-11.8,3.9c-0.4,0-0.7-0.3-0.9-1
			c-0.6-1.2-1.3-2.5-2.3-3.9c-0.3-0.4-0.5-0.7-0.5-1.1c2.7,0,5.5-0.5,8.4-1.6c2.8-0.9,5.9-2.2,9.3-3.8c2.8-1.4,5-2.8,6.7-4.2
			c-2.2-2.3-4.1-4.8-5.7-7.3c-2.1-3.3-4.3-8.5-6.6-15.7c0-0.2,1.5-0.9,4.5-2.1c1.2,4.9,2.7,8.8,4.4,11.9c1.6,2.9,3.7,5.8,6.4,8.5
			c0.4,0.4,0.9,0.9,1.3,1.2c1.3-1.2,2.4-2.6,3.3-4.1c1.8-2.5,3.3-5.1,4.5-7.8C353.1,431.9,354.4,428.3,355.6,424.3z M333.1,408.3
			l3.9,3.8c0.4,0.4,0.5,0.9,0.5,1.2c0,0.3-0.2,0.4-0.7,0.4c-0.7,0.2-1.3,0.4-1.7,0.8c-1.8,2.8-3.8,5.3-5.8,7.5
			c-2.5,2.6-5.7,5.2-9.5,7.9c-0.6,0-1-0.3-1.1-0.8c-1-0.9-1.9-1.7-2.5-2.5c-0.4-0.2-0.5-0.4-0.5-0.7c0-0.2,0.1-0.4,0.4-0.6
			c1.8-0.7,3.3-1.5,4.4-2.6c2.6-1.9,4.8-4,6.7-6.4c1.6-1.9,3.4-4.4,5.3-7.3C332.7,408.5,332.9,408.3,333.1,408.3z M355,408.7
			c5.9,6.7,12.1,12.2,18.4,16.5c0,0.3-0.1,0.7-0.4,1.2c-1.3,2.6-2.1,3.9-2.3,3.9c-6.3-4.4-12.6-10.2-19-17.3c0-0.1,0.8-1.2,2.5-3.6
			C354.6,408.9,354.9,408.7,355,408.7z"/>
	</g>
	<g>
		<path class="st4" d="M393,412.3c2.6,1.4,4.7,2.7,6.4,3.9c1.9,1.4,3.6,2.8,4.9,4.1c0,0.1-0.1,0.3-0.4,0.7c-1.5,2.6-2.3,3.9-2.3,3.9
			c-2-2-4.2-3.8-6.5-5.4c-1.9-1.4-3.5-2.3-4.7-2.8c0-0.3,0.7-1.6,2.1-3.7C392.7,412.5,392.9,412.3,393,412.3z M405.3,430.3
			c0.2,0,0.4,0.2,0.5,0.7c1.1,3,1.7,4.7,1.7,4.9c0,0.4-0.1,0.9-0.3,1.3c-2.3,6.4-4.5,11.9-6.6,16.5c-1.2,2.5-2.5,5.4-4.1,8.5
			c-0.3,0.8-0.5,1.7-0.5,2.9c0,0.7-0.2,1.1-0.5,1.1c-0.4,0-1.8-1.8-4.4-5.4c-0.2-0.2-0.4-0.5-0.5-0.9c0-0.5,0.1-0.9,0.3-1.2
			c1.4-1.7,2.8-3.7,4.2-6.1c1.9-3.4,3.8-7.2,5.6-11.5c1.6-3.7,3-7.1,4.1-10.1C405,430.5,405.2,430.3,405.3,430.3z M396.5,390
			c2.5,1.5,4.6,2.9,6.2,4.1c1.9,1.5,3.5,3,4.8,4.3c0,0.1-0.1,0.3-0.3,0.7c-1.5,2.6-2.3,3.9-2.3,3.9c-2-2.1-4.1-4-6.4-5.7
			c-1.8-1.4-3.4-2.4-4.6-2.9c0-0.3,0.7-1.6,2.1-3.8C396.2,390.2,396.4,390,396.5,390z M414.7,430.3c3.9,0.7,5.9,1.1,5.9,1.2
			c0,0.6-0.2,0.9-0.7,0.9c-0.5,0.4-0.7,1.1-0.7,2.2v5.6c0,2.2-0.1,4.7-0.3,7.6c-0.2,2.9-0.8,5.5-1.6,7.9c-0.8,2.3-1.8,4.3-3.1,6.2
			c-0.9,1.5-2.3,3.2-4.3,5c-0.3,0-0.5-0.2-0.7-0.7c-0.7-0.9-1.4-1.7-2.2-2.4c-0.4-0.3-0.5-0.6-0.5-0.8c2-1.9,3.4-3.5,4.1-4.8
			c0.9-1.3,1.6-2.7,2.1-4.4c0.6-1.7,1-3.8,1.3-6.6c0.3-2.2,0.5-4.5,0.5-6.9v-8.9C414.5,430.6,414.6,430.3,414.7,430.3z M429.2,389
			c3.3,0,5,0.3,5,1c0,0.8-0.2,1.2-0.7,1.3c-0.4,0.1-0.7,0.6-0.7,1.7v6.1H451c0.6,0,0.9,0.4,0.9,1.2v2.7c0,0.8-0.3,1.2-0.9,1.2h-25
			c2.8,1.2,4.1,2,4.1,2.4c0,0.6-0.3,0.8-0.9,0.8c-0.7,0-1,0.2-1,0.7c-1.2,2.4-2.7,5.3-4.6,8.5c-0.6,1-1.2,1.9-1.9,2.8
			c6.6-0.8,13.1-1.7,19.6-2.7c-1.2-2.3-2.3-4.4-3.4-6.3c0-0.6,1-1.4,2.9-2.7c0.4,0,0.6,0.1,0.7,0.3c3.7,5.9,7.2,12.1,10.2,18.7
			c0,0.8-0.2,1.2-0.5,1.2c-1.6,1.4-2.9,2.1-3.9,2.1c-1.3-3-2.5-5.9-3.7-8.5c-8.6,1.4-18,2.7-28.4,3.9c-0.5,0-0.9,0.3-1.3,0.9
			c-0.2,0.7-0.5,1-1.1,1c-0.4,0-1.5-2.3-3.1-7c2.3-0.2,4.6-0.4,6.9-0.6c1.9-3.4,3.7-6.9,5.2-10.5c0.8-1.8,1.4-3.6,1.8-5.3h-12.9
			c-0.5,0-0.8-0.4-0.8-1.2v-2.7c0-0.8,0.3-1.2,0.8-1.2H428v-9C428,389.3,428.4,389,429.2,389z M426.8,430.6c3.4,0,5.1,0.3,5.1,0.9
			c0,0.8-0.2,1.2-0.7,1.2c-0.4,0.1-0.7,0.7-0.7,1.8v30.1c0,0.7-0.3,1.1-1,1.1h-2.7c-0.8,0-1.1-0.4-1.1-1.1v-33.2
			C425.6,430.9,426,430.6,426.8,430.6z M438,430.3c3.2,0.3,4.7,0.7,4.7,1.2c0,0.4-0.2,1-0.5,1.7v24.2c0,0.9,0.2,1.4,0.5,1.4h4.3
			c0.9,0,1.8-2.5,2.7-7.6l4.2,3.2c-1.5,6.7-3.3,10-5.6,10h-7.4c-2.3,0-3.5-1.3-3.5-4v-29.2C437.5,430.6,437.6,430.3,438,430.3z"/>
	</g>
	<g>
		<path class="st4" d="M468,426.9h12c0.8,0,1.3,0.3,1.3,1v22.2c0,1,0.1,2.2,0.2,3.7c0.8,2,2,3.7,3.5,5.2c1.8,1.4,4.5,2.1,8.1,2.1
			h18.5c1.6,0,4.4-0.2,8.3-0.7c3.6-0.4,6.4-0.9,8.2-1.4c0.3-0.1,0.6-0.1,0.9-0.1c0.3,0,0.5,0.2,0.5,0.7c-0.8,1.9-1.5,3.7-2.1,5.1
			c-0.1,1.2-0.5,1.8-1.3,1.8h-33c-4.7,0-8.5-1.4-11.4-4.2c-1.3-1.5-2.5-3.7-3.5-6.4c-2.2,2.5-4.1,4.8-5.8,6.9
			c-1,0.7-1.5,1.6-1.6,2.7c0,0.9-0.2,1.3-0.5,1.3c-0.2,0-0.5-0.2-0.9-0.7l-3.3-6.2c1-0.1,4-2.5,9-7.1c0.7-0.4,1.1-1.3,1.1-2.7v-17.9
			H468c-0.6,0-0.9-0.4-0.9-1.2v-2.7C467.1,427.4,467.4,426.9,468,426.9z M469.5,408.3c2.7,1.3,4.8,2.5,6.5,3.6c2,1.4,3.6,2.7,5,3.8
			c0,0.1-0.1,0.3-0.3,0.7c-1.3,2.4-2,3.7-2.1,3.7c-2.1-1.8-4.4-3.4-6.8-4.9c-2-1.2-3.6-2-4.9-2.4c0-0.3,0.7-1.6,2.1-3.7
			C469.2,408.5,469.4,408.3,469.5,408.3z M472,390c2.4,1.4,4.3,2.6,5.8,3.7c1.8,1.5,3.3,2.8,4.6,3.9c0,0.1-0.1,0.3-0.3,0.7
			c-1.3,2.4-2,3.7-2.1,3.7c-2-1.9-4.1-3.6-6.3-5.1c-1.8-1.2-3.3-2.1-4.5-2.6c0-0.3,0.7-1.6,2.1-3.8C471.6,390.2,471.8,390,472,390z
			 M493.7,388.8c2,2.3,3.5,4.5,4.7,6.5c0.9,1.4,1.7,2.9,2.3,4.4h9c1.4-1.8,2.5-3.3,3.1-4.6c1.2-1.9,2-3.8,2.5-5.8
			c0.2-0.5,0.4-0.7,0.6-0.7l4.1,2c0.6,0.4,0.9,0.8,0.9,1.3c0,0.3-0.2,0.6-0.7,0.7c-0.6,0-1,0.2-1.1,0.7c-1.1,2.5-2.2,4.7-3.3,6.4
			h8.3c0.6,0,0.9,0.4,0.9,1.3v2.7c0,0.9-0.3,1.4-0.9,1.4h-16.4c-1.2,2.7-2.4,5.2-3.8,7.6h16.5c0.7,0,1.1,0.3,1.1,1v42.7
			c0,0.7-0.4,1-1.1,1H518c-0.7,0-1-0.3-1-1v-2.7h-21.5v2.7c0,0.7-0.3,1-1,1h-2.7c-0.7,0-1.1-0.3-1.1-1v-42.7c0-0.7,0.4-1,1.1-1h7
			c1.1-1.6,2-3,2.5-4.1c0.6-1.1,1.2-2.2,1.7-3.6h-16.7c-0.5,0-0.7-0.5-0.7-1.4V401c0-0.9,0.2-1.3,0.7-1.3h9.2
			c-0.3-0.6-0.6-1.1-0.9-1.6c-1.2-2.1-2.8-4.2-4.8-6.3C489.9,391.3,491.1,390.3,493.7,388.8z M495.5,424.5h21.5v-7h-21.5V424.5z
			 M495.5,436.5h21.5v-7h-21.5V436.5z M495.5,448.9h21.5v-7.3h-21.5V448.9z"/>
	</g>
	<g>
		<path class="st2" d="M201,496.8h-28.6v7.6h16.9v8.6h-16.9v18.1h-10.3v-42.9h39V496.8z"/>
		<path class="st2" d="M254.3,531.1h-11l-7.2-16h-13.7v16h-10.3v-42.9h23.7c3.6,0,6.9,0.6,9.6,1.8c2.6,1.2,4.6,2.9,6.1,4.9
			c1.5,2,2.2,4.3,2.2,6.6c0,2.3-0.7,4.4-2,6.4c-1.3,2-3.2,3.7-5.6,4.9L254.3,531.1z M243.3,501.6c0-1.4-0.6-2.5-1.9-3.4
			s-2.9-1.4-4.8-1.4h-14.3v9.7h14.3c2,0,3.6-0.5,4.8-1.4C242.7,504.3,243.3,503.1,243.3,501.6z"/>
		<path class="st2" d="M304.3,531.1h-39v-42.9h38.3v8.6h-28v7h15.8v8.5h-15.8v10.2h28.6V531.1z"/>
		<path class="st2" d="M354.3,531.1h-39v-42.9h38.3v8.6h-27.9v7h15.8v8.5h-15.8v10.2h28.6V531.1z"/>
		<path class="st2" d="M415.8,488.3l-8.3,42.9h-11.1l-8.1-25.6l-9,25.6h-11.1l-8.3-42.9h10.4l4.6,23.1l7.4-23.1h11.1l7.4,23.1
			l4.4-23.1H415.8z"/>
		<path class="st2" d="M473.1,531.1h-11.3l-4.9-10h-20.7l-5,10H420l21.1-42.9H452L473.1,531.1z M452.7,512.6l-5.8-12l-6.4,12H452.7z
			"/>
		<path class="st2" d="M530.4,488.3l-21.1,25.5v17.4h-10.5v-17.4l-21.5-25.5h12.5l14.6,16.5l13.5-16.5H530.4z"/>
	</g>
</g>
<g id="Sign">
	<g>
		<g id="_x23_ffffffff_1_">
			<path class="st2" d="M18.4,36.8h113.4v113.4H18.4V36.8 M24.4,41.2c-1,0-1.7,0.9-1.6,1.8c0,33.8,0,67.7,0,101.5
				c-0.1,1,0.8,1.7,1.8,1.6c33.8,0,67.5,0,101.3,0c0.6,0,1.2-0.1,1.5-0.6c0.5-0.6,0.3-1.4,0.3-2.1c0-33.5,0-67,0-100.5
				c0.2-1.1-0.9-1.9-1.9-1.8C92.1,41.2,58.3,41.2,24.4,41.2z"/>
			<path class="st2" d="M25.7,44.1c33.1,0,66.1,0,99.2,0c0,33.1,0,66.1,0,99.2c-33.1,0-66.1,0-99.2,0
				C25.7,110.2,25.7,77.2,25.7,44.1 M93.7,79.9c-4.7,3.7-7.8,9.3-8.4,15.2c-0.3,3.8,0.1,7.9,2,11.3c1.2,2.1,3,3.8,5.2,4.7
				c3.8,1.7,8.1,2,12.1,1.2c3.1-0.6,6.2-2.2,8.1-4.8c1.7-2.3,2.2-5.4,1.6-8.2c-0.7-3.2-3-6.1-6-7.3c-4.6-1.9-9.8-2-14.6-0.6
				c1.2-2.4,2.8-4.6,5-6.1c2.9-2.2,6.7-2.9,10.3-2.8c0-2.4,0-4.8,0-7.3C103.5,75,98,76.5,93.7,79.9 M35.7,78.7
				c-0.7,0.6-1.4,1-2.2,1.4c0,2.5,0,4.9,0,7.4c1.2,0,2.4,0,3.6,0c0,8.2,0,16.4,0,24.6c2.4,0,4.9,0,7.3,0c0-12.1,0-24.2,0-36.3
				c-2.3,0-4.6,0-6.9,0C37,76.8,36.5,77.9,35.7,78.7 M50.2,75.9c0,2.4,0,4.8,0,7.1c6.5,0,13,0,19.5,0c-5.8,8.4-9.3,18.7-9.1,29
				c2.4,0,4.8,0,7.2,0c0.1-1.2,0.1-2.5,0.2-3.7c0.5-6.1,2.6-11.9,5.5-17.2c1.5-2.9,3.7-5.5,6-7.8c0-2.5,0-4.9,0-7.4
				C69.7,75.9,60,75.9,50.2,75.9z"/>
			<path class="st2" d="M97.5,97.9c2.6-0.4,5.3-0.5,7.7,0.6c1.3,0.6,2.4,2,2.1,3.5c-0.2,1.3-1.3,2.2-2.4,2.7
				c-1.9,0.8-3.9,0.8-5.9,0.7c-1.8-0.2-3.8-0.6-5.1-2c-0.9-0.9-0.9-2.5-0.1-3.5C94.7,98.7,96.1,98.2,97.5,97.9z"/>
		</g>
		<g id="_x23_000000ff_1_">
			<path class="st5" d="M24.4,41.2c33.8,0,67.6,0,101.5,0c1-0.1,2,0.7,1.9,1.8c0,33.5,0,67,0,100.5c0,0.7,0.1,1.5-0.3,2.1
				c-0.3,0.5-1,0.6-1.5,0.6c-33.8,0-67.5,0-101.3,0c-0.9,0.1-1.8-0.7-1.8-1.6c0-33.8,0-67.7,0-101.5C22.7,42.1,23.5,41.2,24.4,41.2
				 M25.7,44.1c0,33.1,0,66.1,0,99.2c33.1,0,66.1,0,99.2,0c0-33.1,0-66.1,0-99.2C91.8,44.1,58.8,44.1,25.7,44.1z"/>
			<path class="st5" d="M93.7,79.9c4.2-3.4,9.8-4.9,15.2-4.6c0,2.4,0,4.8,0,7.3c-3.6-0.2-7.3,0.6-10.3,2.8c-2.2,1.5-3.8,3.8-5,6.1
				c4.7-1.4,10-1.3,14.6,0.6c3,1.3,5.3,4.1,6,7.3c0.6,2.8,0.1,5.8-1.6,8.2c-1.9,2.6-4.9,4.2-8.1,4.8c-4,0.8-8.4,0.5-12.1-1.2
				c-2.2-1-4-2.7-5.2-4.7c-1.9-3.4-2.3-7.4-2-11.3C86,89.1,89.1,83.5,93.7,79.9 M97.5,97.9c-1.4,0.3-2.8,0.8-3.7,1.9
				c-0.8,1-0.8,2.5,0.1,3.5c1.3,1.4,3.3,1.8,5.1,2c2,0.1,4,0.1,5.9-0.7c1.1-0.5,2.2-1.4,2.4-2.7c0.3-1.5-0.8-2.9-2.1-3.5
				C102.8,97.4,100,97.6,97.5,97.9z"/>
			<path class="st5" d="M35.7,78.7c0.8-0.8,1.3-1.9,1.8-2.9c2.3,0,4.6,0,6.9,0c0,12.1,0,24.2,0,36.3c-2.4,0-4.9,0-7.3,0
				c0-8.2,0-16.4,0-24.6c-1.2,0-2.4,0-3.6,0c0-2.5,0-4.9,0-7.4C34.3,79.7,35.1,79.2,35.7,78.7z"/>
			<path class="st5" d="M50.2,75.9c9.8,0,19.5,0,29.3,0c0,2.5,0,4.9,0,7.4c-2.3,2.3-4.5,4.9-6,7.8c-2.9,5.3-5,11.1-5.5,17.2
				c-0.1,1.2-0.1,2.5-0.2,3.7c-2.4,0-4.8,0-7.2,0c-0.2-10.3,3.3-20.5,9.1-29c-6.5,0-13,0-19.5,0C50.2,80.7,50.2,78.3,50.2,75.9z"/>
		</g>
	</g>
	<g>
		<g id="_x23_ffffffff_2_">
			<path class="st2" d="M18.4,219.7h113.4v113.4H18.4V219.7 M24.4,224.1c-1,0-1.7,0.9-1.6,1.8c0,33.8,0,67.7,0,101.5
				c-0.1,1,0.8,1.7,1.8,1.6c33.8,0,67.5,0,101.3,0c0.6,0,1.2-0.1,1.5-0.6c0.5-0.6,0.3-1.4,0.3-2.1c0-33.5,0-67,0-100.5
				c0.2-1.1-0.9-1.9-1.9-1.8C92.1,224.1,58.3,224,24.4,224.1z"/>
			<path class="st2" d="M25.7,227c33.1,0,66.1,0,99.2,0c0,33.1,0,66.1,0,99.2c-33.1,0-66.1,0-99.2,0C25.7,293.1,25.7,260,25.7,227
				 M93.7,262.7c-4.7,3.7-7.8,9.3-8.4,15.2c-0.3,3.8,0.1,7.9,2,11.3c1.2,2.1,3,3.8,5.2,4.7c3.8,1.7,8.1,2,12.1,1.2
				c3.1-0.6,6.2-2.2,8.1-4.8c1.7-2.3,2.2-5.4,1.6-8.2c-0.7-3.2-3-6.1-6-7.3c-4.6-1.9-9.8-2-14.6-0.6c1.2-2.4,2.8-4.6,5-6.1
				c2.9-2.2,6.7-2.9,10.3-2.8c0-2.4,0-4.8,0-7.3C103.5,257.8,98,259.3,93.7,262.7 M35.7,261.5c-0.7,0.6-1.4,1-2.2,1.4
				c0,2.5,0,4.9,0,7.4c1.2,0,2.4,0,3.6,0c0,8.2,0,16.4,0,24.6c2.4,0,4.9,0,7.3,0c0-12.1,0-24.2,0-36.3c-2.3,0-4.6,0-6.9,0
				C37,259.6,36.5,260.7,35.7,261.5 M50.2,258.7c0,2.4,0,4.8,0,7.1c6.5,0,13,0,19.5,0c-5.8,8.4-9.3,18.7-9.1,29c2.4,0,4.8,0,7.2,0
				c0.1-1.2,0.1-2.5,0.2-3.7c0.5-6.1,2.6-11.9,5.5-17.2c1.5-2.9,3.7-5.5,6-7.8c0-2.5,0-4.9,0-7.4C69.7,258.7,60,258.7,50.2,258.7z"
				/>
			<path class="st2" d="M97.5,280.8c2.6-0.4,5.3-0.5,7.7,0.6c1.3,0.6,2.4,2,2.1,3.5c-0.2,1.3-1.3,2.2-2.4,2.7
				c-1.9,0.8-3.9,0.8-5.9,0.7c-1.8-0.2-3.8-0.6-5.1-2c-0.9-0.9-0.9-2.5-0.1-3.5C94.7,281.6,96.1,281.1,97.5,280.8z"/>
		</g>
		<g id="_x23_000000ff_2_">
			<path class="st5" d="M24.4,224.1c33.8,0,67.6,0,101.5,0c1-0.1,2,0.7,1.9,1.8c0,33.5,0,67,0,100.5c0,0.7,0.1,1.5-0.3,2.1
				c-0.3,0.5-1,0.6-1.5,0.6c-33.8,0-67.5,0-101.3,0c-0.9,0.1-1.8-0.7-1.8-1.6c0-33.8,0-67.7,0-101.5C22.7,224.9,23.5,224,24.4,224.1
				 M25.7,227c0,33.1,0,66.1,0,99.2c33.1,0,66.1,0,99.2,0c0-33.1,0-66.1,0-99.2C91.8,227,58.8,227,25.7,227z"/>
			<path class="st5" d="M93.7,262.7c4.2-3.4,9.8-4.9,15.2-4.6c0,2.4,0,4.8,0,7.3c-3.6-0.2-7.3,0.6-10.3,2.8c-2.2,1.5-3.8,3.8-5,6.1
				c4.7-1.4,10-1.3,14.6,0.6c3,1.3,5.3,4.1,6,7.3c0.6,2.8,0.1,5.8-1.6,8.2c-1.9,2.6-4.9,4.2-8.1,4.8c-4,0.8-8.4,0.5-12.1-1.2
				c-2.2-1-4-2.7-5.2-4.7c-1.9-3.4-2.3-7.4-2-11.3C86,272,89.1,266.4,93.7,262.7 M97.5,280.8c-1.4,0.3-2.8,0.8-3.7,1.9
				c-0.8,1-0.8,2.5,0.1,3.5c1.3,1.4,3.3,1.8,5.1,2c2,0.1,4,0.1,5.9-0.7c1.1-0.5,2.2-1.4,2.4-2.7c0.3-1.5-0.8-2.9-2.1-3.5
				C102.8,280.3,100,280.4,97.5,280.8z"/>
			<path class="st5" d="M35.7,261.5c0.8-0.8,1.3-1.9,1.8-2.9c2.3,0,4.6,0,6.9,0c0,12.1,0,24.2,0,36.3c-2.4,0-4.9,0-7.3,0
				c0-8.2,0-16.4,0-24.6c-1.2,0-2.4,0-3.6,0c0-2.5,0-4.9,0-7.4C34.3,262.5,35.1,262.1,35.7,261.5z"/>
			<path class="st5" d="M50.2,258.7c9.8,0,19.5,0,29.3,0c0,2.5,0,4.9,0,7.4c-2.3,2.3-4.5,4.9-6,7.8c-2.9,5.3-5,11.1-5.5,17.2
				c-0.1,1.2-0.1,2.5-0.2,3.7c-2.4,0-4.8,0-7.2,0c-0.2-10.3,3.3-20.5,9.1-29c-6.5,0-13,0-19.5,0C50.2,263.5,50.2,261.1,50.2,258.7z"
				/>
		</g>
	</g>
	<g>
		<path class="st6" d="M67.9,403.5c1.7-0.4,3.5-0.7,5.2-0.9c1.3,0,2.6,0,4,0c0.3,0,0.5,0.2,0.8,0.2c1.2,0,2.4,0.3,3.6,0.5
			c2.6,0.7,5.3,1.6,7.6,3c2.1,1.3,4,2.7,5.7,4.5c0.4,0.2,0.7,0.5,1,0.9c0.4,0.7,1.2,1.2,1.6,1.9c1.5,1.8,2.8,3.8,3.8,5.9
			c0.6,1.2,0.9,2.5,1.4,3.8c0.6,0,1.3-0.1,1.8,0.1c0.6,0.1,1.3-0.1,1.8,0.1c2.4,0.3,4.7,0.9,7,1.8c1,0.3,1.8,0.9,2.7,1.3
			c0.9,0.6,1.8,1.1,2.8,1.7c0.8,0.6,1.6,1.2,2.4,1.8c0.6,0.5,1,1.1,1.6,1.5c0.3,0.2,0.5,0.4,0.7,0.7c0.4,0.7,1.2,1.2,1.6,1.9
			c0.7,1,1.5,2,2.1,3.1c0.3,0.6,0.7,1.1,1,1.7c0.3,1,0.9,1.9,1.3,2.9c0.8,2.1,1.4,4.3,1.8,6.5c0.2,0.5,0,1.1,0.2,1.6
			c0.1,0.6,0,1.2,0,1.8c0.2,0.6,0.1,1.3,0.1,1.9c0,0.6,0.1,1.3-0.1,1.9c0,1.7-0.4,3.3-0.8,4.9c-0.7,2.6-1.8,5.1-3.1,7.5
			c-0.6,0.9-1.1,1.9-1.8,2.8c-0.5,0.7-1.1,1.5-1.6,2.2c-1,0.9-1.9,2-3,2.9c-0.5,0.5-1.1,0.8-1.6,1.3c0,0.2,0,0.4,0,0.6
			c0.5,1.9,1.1,3.9,1.2,5.9c0.1,0.3,0.2,0.6,0.1,0.9c0,1.6,0,3.1,0,4.7c-0.1,0.3-0.2,0.7-0.1,1c-0.4,3.1-1.3,6.1-2.6,8.9
			c-0.1,0.5-0.4,0.9-0.7,1.4c-1.1,2.2-2.6,4.2-4.1,6.1c-0.8,0.7-1.5,1.5-2.2,2.3c-0.8,0.7-1.6,1.4-2.5,2c-0.8,0.5-1.6,1.1-2.4,1.6
			c-1.6,0.8-3.1,1.6-4.8,2.2c-1.7,0.7-3.4,1.2-5.2,1.4c-0.7,0.3-1.4,0-2,0.3c-1.1,0-2.3,0-3.4,0c-0.7-0.3-1.4,0-2.1-0.3
			c-4.5-0.6-9-2.1-12.7-4.8c-0.4-0.3-0.9-0.9-1.4-0.5c-1.8,1.3-3.7,2.5-5.8,3.3c-2.4,1-5,1.8-7.6,2c-0.5,0.2-1.1,0.1-1.7,0.1
			c-0.9,0.3-1.9,0.2-2.8,0.2c-0.7-0.3-1.5,0-2.2-0.3c-3.4-0.4-6.7-1.4-9.7-3.1c-2.2-1-4.2-2.6-6-4.1c-0.8-0.9-1.6-1.7-2.5-2.5
			c-1.5-1.9-3.2-3.9-4.2-6.2c-1.5-2.9-2.3-6-2.9-9.2c-0.1-0.4,0-0.9-0.2-1.4c-0.2-0.7,0.1-1.5-0.2-2.2c0-0.8-0.1-1.6,0.1-2.4
			c0.1-0.7-0.1-1.4,0.1-2.1c0.2-1.6,0.5-3.2,1-4.7c0.1-0.4,0.3-0.7,0.2-1.1c-0.7-0.8-1.8-1.4-2.5-2.2c-1-1.1-2.2-2.1-3-3.3
			c-0.8-0.9-1.4-2-2.1-3c-2.2-3.6-3.6-7.7-4.1-11.9c-0.2-0.6,0-1.3-0.2-2c0-1.2-0.2-2.5,0.1-3.7c0-0.5-0.1-1.1,0.1-1.6
			c0.4-3.7,1.7-7.4,3.4-10.7c0.5-0.7,0.8-1.5,1.4-2.2c0.5-0.8,1-1.6,1.6-2.3c0.4-0.7,1.1-1.1,1.5-1.8c0.2-0.4,0.7-0.7,1-1
			c1.4-1.6,3.2-2.7,5-3.8c1-0.5,1.9-1.2,2.9-1.5c1.1-0.5,2.2-1,3.4-1.4c1.4-0.4,2.8-0.9,4.3-1c0.4-0.2,0.9-0.1,1.3-0.1
			c1-0.3,2-0.1,3-0.2c0.5-1.3,0.9-2.6,1.5-3.8c1-2.1,2.3-4.1,3.7-6c0.3-0.5,0.8-0.8,1.1-1.2c0.5-0.7,1.2-1.4,1.9-1.9
			c1.2-1.3,2.7-2.2,4.1-3.2C62.5,405.4,65.1,404.2,67.9,403.5 M69.9,408.4c-9.4,2.1-17.2,10.6-18.2,20.5c-2-0.3-4-0.5-6-0.3
			c-6.8,0.5-13.3,4.2-17.3,9.8c-2.3,3.1-3.7,6.7-4.3,10.5c-1.9,10.3,3.8,21.5,13.1,25.8c-0.2,0.6-0.5,1.2-0.8,1.9
			c-1.8,4.3-2.4,9.2-1.6,13.8c0.7,4.3,2.6,8.3,5.3,11.6c2.7,3.3,6.3,5.8,10.2,7.3c6.6,2.3,14.2,1.5,20.2-2.2c1.8-1.1,3.4-2.5,4.8-4
			c0.4,0.2,0.7,0.7,1.1,1c2.9,2.8,6.5,4.8,10.4,5.7c4.8,1.2,10.1,0.9,14.7-1.1c3.9-1.6,7.3-4.3,9.9-7.6c5.6-7.4,6.6-18.2,2.1-26.4
			c2.7-1.4,5.1-3.2,7.1-5.4c2-2.3,3.7-4.9,4.7-7.8c1.7-4.5,2-9.6,1-14.3c-1.1-4.4-3.2-8.6-6.4-11.7c-5.1-5.1-12.3-7.8-19.4-6.9
			c-0.5,0-1.1,0.3-1.6,0.2c-0.3-1.1-0.4-2.3-0.8-3.5c-2.1-7.6-8-13.8-15.3-16.3C78.6,407.6,74.1,407.5,69.9,408.4z"/>
		<path class="st7" d="M69.9,408.4c4.2-0.9,8.7-0.7,12.8,0.7c7.3,2.4,13.2,8.7,15.3,16.3c0.4,1.1,0.5,2.3,0.8,3.5
			c0.5,0.1,1.1-0.1,1.6-0.2c7.1-0.9,14.3,1.8,19.4,6.9c3.2,3.1,5.3,7.3,6.4,11.7c1.1,4.7,0.8,9.8-1,14.3c-1.1,2.9-2.7,5.5-4.7,7.8
			c-2,2.2-4.5,4-7.1,5.4c4.5,8.2,3.5,19-2.1,26.4c-2.6,3.3-6,6-9.9,7.6c-4.6,1.9-9.8,2.3-14.7,1.1c-3.9-1-7.5-3-10.4-5.7
			c-0.4-0.3-0.7-0.8-1.1-1c-1.4,1.5-3,2.9-4.8,4c-6,3.7-13.6,4.5-20.2,2.2c-3.9-1.5-7.5-4-10.2-7.3c-2.7-3.3-4.6-7.4-5.3-11.6
			c-0.8-4.6-0.2-9.5,1.6-13.8c0.3-0.6,0.6-1.2,0.8-1.9c-9.3-4.3-15-15.5-13.1-25.8c0.7-3.8,2.1-7.4,4.3-10.5
			c4-5.6,10.5-9.3,17.3-9.8c2-0.2,4.1,0,6,0.3C52.7,419,60.5,410.5,69.9,408.4 M70.2,413.9c-3.6,1-6.9,3.2-9.2,6.1
			c-3.8,4.6-5.2,11-3.7,16.8c-0.4-0.2-0.9-0.5-1.3-0.7c-2.1-1.1-4.4-1.9-6.8-2.1c-6.4-0.7-13.1,2.3-16.8,7.7
			c-3.2,4.5-4.3,10.5-2.9,15.9c1.3,5.3,5.1,9.8,9.9,12.2c2.2,1,4.5,1.7,6.8,1.8c-1.2,1.1-2.4,2.2-3.3,3.6
			c-3.8,5.3-4.5,12.6-1.9,18.6c1.3,3.2,3.6,5.9,6.3,7.9c5.2,3.8,12.4,4.5,18.2,1.7c4.3-2,7.8-5.7,9.5-10.2c0.2,0.3,0.3,0.5,0.4,0.8
			c2.3,5.5,7.5,9.7,13.2,10.8c3.7,0.8,7.6,0.3,11-1.3c2.9-1.3,5.5-3.4,7.3-6c3.6-4.9,4.6-11.6,2.6-17.3c-0.8-2.8-2.5-5.3-4.5-7.4
			c-0.4-0.4-0.8-0.7-1.2-1.2c0.9-0.1,1.8-0.2,2.7-0.4c5.8-1.2,10.9-5.6,13.1-11.3c2.4-5.9,1.6-13.1-2.1-18.3c-2.1-2.9-5-5.2-8.3-6.5
			c-2.9-1.1-6-1.5-9-1.1c-2.7,0.4-5.3,1.4-7.6,2.8c0.7-2.6,0.8-5.3,0.3-8c-0.7-4.3-2.9-8.3-6.2-11.1C82.6,413.7,76,412.2,70.2,413.9
			z"/>
		<path class="st6" d="M70.2,413.9c5.8-1.7,12.4-0.2,16.9,3.9c3.2,2.8,5.5,6.8,6.2,11.1c0.4,2.6,0.3,5.4-0.3,8
			c2.3-1.4,4.9-2.4,7.6-2.8c3-0.3,6.2,0,9,1.1c3.3,1.3,6.2,3.6,8.3,6.5c3.7,5.2,4.5,12.4,2.1,18.3c-2.2,5.7-7.3,10-13.1,11.3
			c-0.9,0.2-1.8,0.3-2.7,0.4c0.3,0.5,0.8,0.8,1.2,1.2c2,2.1,3.6,4.6,4.5,7.4c2,5.7,0.9,12.4-2.6,17.3c-1.9,2.6-4.4,4.7-7.3,6
			c-3.4,1.6-7.3,2-11,1.3c-5.8-1.1-10.9-5.3-13.2-10.8c-0.1-0.3-0.2-0.5-0.4-0.8c-1.7,4.5-5.2,8.3-9.5,10.2
			c-5.8,2.8-13,2.1-18.2-1.7c-2.8-2-5-4.7-6.3-7.9c-2.6-6-1.8-13.3,1.9-18.6c0.9-1.4,2.1-2.5,3.3-3.6c-2.4-0.1-4.7-0.8-6.8-1.8
			c-4.8-2.3-8.5-6.9-9.9-12.2c-1.4-5.4-0.4-11.4,2.9-15.9c3.7-5.4,10.4-8.5,16.8-7.7c2.4,0.2,4.7,1,6.8,2.1c0.4,0.2,0.8,0.5,1.3,0.7
			c-1.5-5.8-0.1-12.2,3.7-16.8C63.4,417.1,66.7,414.9,70.2,413.9 M72.2,441.6c-0.4,0.9-0.9,1.9-1.5,2.7c-0.7,0.9-1.8,1.5-2.8,2
			c0,2.7,0,5.5,0,8.2c1.3,0,2.6,0,3.8,0c0,9.1,0,18.2,0,27.3c1.2,0.1,2.4,0,3.6,0.1c1.5,0,2.9,0.1,4.4-0.1c0-4,0-8.1,0-12.1
			c0-9.3,0-18.7,0-28C77.2,441.6,74.7,441.6,72.2,441.6z"/>
		<path class="st8" d="M72.2,441.6c2.5-0.1,5-0.1,7.5,0c0,9.3,0,18.7,0,28c0,4.1,0,8.1,0,12.1c-1.4,0.1-2.9,0-4.4,0.1
			c-1.2,0-2.4,0.1-3.6-0.1c0-9.1,0-18.2,0-27.3c-1.3,0-2.5,0-3.8,0c-0.1-2.7,0-5.5,0-8.2c1-0.5,2.1-1.1,2.8-2
			C71.3,443.5,71.8,442.6,72.2,441.6z"/>
	</g>
	<g>
	</g>
	<g>
	</g>
	<g>
	</g>
	<g>
	</g>
	<g>
	</g>
	<g>
	</g>
</g>
</svg>
