<?xml version="1.0" encoding="UTF-8" standalone="no"?>
<svg
   xmlns:dc="http://purl.org/dc/elements/1.1/"
   xmlns:cc="http://creativecommons.org/ns#"
   xmlns:rdf="http://www.w3.org/1999/02/22-rdf-syntax-ns#"
   xmlns:svg="http://www.w3.org/2000/svg"
   xmlns="http://www.w3.org/2000/svg"
   id="svg839"
   version="1.1"
   height="400"
   width="850">
  <metadata
     id="metadata845">
    <rdf:RDF>
      <cc:Work
         rdf:about="">
        <dc:format>image/svg+xml</dc:format>
        <dc:type
           rdf:resource="http://purl.org/dc/dcmitype/StillImage" />
        <dc:title></dc:title>
      </cc:Work>
    </rdf:RDF>
  </metadata>
  <defs
     id="defs843" />
  <path
     d="m 50,0 h 750 c 28,0 50,22.3 50,50 v 300 c 0,28 -22,50 -50,50 H 50 C 22.3,400 0,378 0,350 V 50 C 0,22.3 22.3,0 50,0 Z"
     style="fill:#000080"
     id="rect833" />
  <path
     d="m 50,15 h 750 c 19,0 35,15.6 35,35 v 300 c 0,19 -16,35 -35,35 H 50 C 30.6,385 15,369 15,350 V 50 C 15,30.6 30.6,15 50,15 Z"
     style="fill:none;stroke:#ffffff;stroke-width:10px"
     id="rect835" />
  <g
     style="font-style:normal;font-weight:normal;font-size:375.092px;line-height:1.25;font-family:sans-serif;text-align:center;text-anchor:middle;fill:#ffffff;fill-opacity:1;stroke:none;stroke-width:9.377"
     id="text849"
     aria-label="AH12">
    <path
       id="path1644"
       style="font-style:normal;font-variant:normal;font-weight:normal;font-stretch:normal;font-family:SnvDReg;-inkscape-font-specification:SnvDReg;text-align:center;text-anchor:middle;fill:#ffffff;stroke-width:9.377"
       d="m 111,289 -10,36 H 52.2 L 125,75 h 54 l 73,250 h -48 l -11,-36 z m 12,-41 h 59 L 152,148 Z" />
    <path
       id="path1646"
       style="font-style:normal;font-variant:normal;font-weight:normal;font-stretch:normal;font-family:SnvDReg;-inkscape-font-specification:SnvDReg;text-align:center;text-anchor:middle;fill:#ffffff;stroke-width:9.377"
       d="M 286,325 V 75 h 46 v 100 h 80 V 75 h 45 V 325 H 412 V 216 h -80 v 109 z" />
    <path
       id="path1648"
       style="font-style:normal;font-variant:normal;font-weight:normal;font-stretch:normal;font-family:SnvDReg;-inkscape-font-specification:SnvDReg;text-align:center;text-anchor:middle;fill:#ffffff;stroke-width:9.377"
       d="M 575,75 V 325 H 529 V 146 h -25 v -25 l 25,-46 z" />
    <path
       id="path1650"
       style="font-style:normal;font-variant:normal;font-weight:normal;font-stretch:normal;font-family:SnvDReg;-inkscape-font-specification:SnvDReg;text-align:center;text-anchor:middle;fill:#ffffff;stroke-width:9.377"
       d="m 697,283 h 101 v 42 H 632 V 283 L 737,179 q 11,-10 11,-26 0,-16 -9,-27 -11,-14 -29,-14 -17,0 -28,14 -8,11 -8,23 v 9 h -48 q 2,-33 17,-54 26,-33.9 67,-33.9 37,0 61,26.3 23,24.6 23,58.6 0,33 -26,58 z" />
  </g>
</svg>
