<?xml version="1.0" encoding="UTF-8" standalone="no"?>
<svg xmlns="http://www.w3.org/2000/svg" version="1.0" width="200" height="34.602901">
<g style="fill:#3b3092;fill-rule:evenodd;" transform="matrix(1.5265872,0,0,1.5265872,-30.286466,-6.8180241)">
	<path d="M 32.220549,5.1457842 H 41.736799 L 32.725549,26.573284 H 23.155549"/>
	<path d="M 44.448049,5.1457842 H 53.219299 L 56.223049,15.005784 60.504299,5.1457842 H 69.355549 L 60.238049,26.600784 H 51.173049 L 48.223049,16.957034 44.128049,26.573284 H 35.330549"/>
	<path d="M 72.466799,5.1457842 L 63.348049,26.600784 H 71.854299 L 73.954299,21.750784 C 81.859299,22.577034 92.156799,23.184534 94.448049,13.759534 94.779299,12.213284 94.513049,9.7820342 93.571799,8.4782842 L 93.226799,7.9082842 92.801799,7.3932842 92.294299,6.8807842 91.736799,6.4732842 91.126799,6.0670342 90.408049,5.6882842 89.690549,5.3895342 88.891799,5.1457842 H 72.466799 z M 78.499299,11.024534 76.345549,15.980784 83.284299,16.034534 H 83.576799 L 84.108049,15.927034 84.348049,15.873284 84.559299,15.765784 84.799299,15.655784 85.011799,15.520784 C 85.388049,15.257034 86.043049,14.537034 86.075549,14.058284 86.556799,12.615784 85.823049,11.339534 84.294299,11.024534"/>
	<path d="M 100.11055,5.1457842 H 120.5793 L 118.0268,11.078284 H 106.5168 L 105.6918,13.028284 H 117.1768 L 114.62555,18.907034 H 103.24805 L 102.45055,20.938284 H 113.85305 L 111.35555,26.600784 H 91.073049"/>
	<path d="M 122.0143,5.1457842 H 130.8393 L 132.6218,9.1007842 137.03429,5.1457842 H 147.53429 L 135.62304,16.143284 140.14304,26.600784 H 131.13055 L 129.1918,22.022034 124.1943,26.600784 H 113.5618 L 126.2943,15.140784"/>
</g>
</svg>
