<?xml version="1.0" encoding="UTF-8"?>
<!DOCTYPE svg PUBLIC "-//W3C//DTD SVG 1.1//EN" "http://www.w3.org/Graphics/SVG/1.1/DTD/svg11.dtd">
<!-- Creator: CorelDRAW X8 -->
<svg xmlns="http://www.w3.org/2000/svg" xml:space="preserve" width="622px" height="425px" version="1.1" style="shape-rendering:geometricPrecision; text-rendering:geometricPrecision; image-rendering:optimizeQuality; fill-rule:evenodd; clip-rule:evenodd"
viewBox="0 0 622 425"
 xmlns:xlink="http://www.w3.org/1999/xlink"
 enable-background="new 0 0 228.527 164.614">
 <defs>
  <style type="text/css">
   <![CDATA[
    .fil0 {fill:#198FCE}
    .fil3 {fill:#1D95D3}
    .fil1 {fill:#EC2227}
    .fil2 {fill:white}
   ]]>
  </style>
 </defs>
 <g id="Слой_x0020_1">
  <metadata id="CorelCorpID_0Corel-Layer"/>
  <rect class="fil0" x="311" width="311" height="296"/>
  <rect class="fil1" width="311" height="296"/>
  <polygon class="fil2" points="155,0 192,113 311,113 215,183 252,296 155,226 59,296 96,183 0,113 119,113 "/>
  <path class="fil3" d="M87 425c32,0 60,0 60,0l0 -12 -11 0c-2,0 -4,0 -5,0 -2,-1 -3,-3 -2,-5 1,-4 4,-14 4,-14l37 0 5 12c1,2 0,4 -1,6 -2,1 -4,1 -6,1l-10 0 0 12 53 0 1 0 43 0 0 -12 -9 0c-3,0 -5,0 -6,-3 -1,-1 -1,-3 -1,-5l0 -62 0 0c10,27 21,55 30,82l14 0 31 -82 0 0 0 62c0,1 0,2 0,3 -1,4 -5,5 -8,5l-9 0 0 12 54 0 0 -12 -6 0c-1,0 -3,0 -4,0 -2,-1 -3,-3 -4,-5 0,-1 0,-2 0,-3 0,0 0,-61 0,-63 0,-1 0,-2 1,-3 1,-4 4,-5 7,-5l6 0 0 -12 -47 0c0,0 -16,43 -25,64 -8,-21 -16,-43 -24,-64l-52 0 0 12c0,0 6,0 9,0 2,0 4,0 5,0 2,1 3,2 4,3 1,2 1,3 1,4l0 64c0,2 0,3 -1,4 -1,2 -3,4 -5,4l-4 0 -1 0 -3 0c-3,0 -6,-1 -8,-5 -11,-28 -22,-58 -33,-86l-27 0c-10,28 -20,58 -31,86 -2,4 -5,5 -9,5 -3,0 -9,0 -9,0l-4 0 -1 0 -3 0c-4,0 -7,0 -7,0 -3,0 -4,0 -6,-1 -3,-2 -5,-4 -5,-7l0 -64 0 -3c1,-2 2,-5 4,-5 6,-1 12,1 16,5 7,6 8,15 8,24l12 0 0 -40 -105 0 0 40 12 0c0,-10 2,-18 8,-25 5,-4 12,-6 18,-5 3,2 4,4 4,6 0,1 0,2 0,2l0 65c0,3 -2,5 -4,7 -2,1 -3,1 -5,1 -6,0 -11,0 -11,0l0 12c18,0 42,0 64,0l1 0 0 0zm64 -84l0 0 14 38 -27 0 13 -38z"/>
  <path class="fil3" d="M615 413c-4,0 -7,-1 -8,-5 -11,-28 -22,-58 -33,-86l-27 0c-10,28 -20,58 -32,86 -2,4 -5,5 -9,5 -1,0 -3,0 -5,0l-16 0c0,0 -2,0 -3,0 -1,0 -3,-1 -4,-1 -2,-1 -3,-3 -3,-6 0,-1 0,-2 0,-3l0 -21c0,0 20,-26 29,-38 4,-5 8,-10 17,-10l0 -12 -49 0 0 12 6 0c4,0 7,1 8,3 1,1 1,2 1,4 0,1 -1,2 -2,3 -5,8 -8,11 -18,24 -12,-16 -18,-24 -18,-26 -1,-1 -2,-2 -1,-4 1,-3 4,-4 7,-4 3,0 8,0 8,0l0 -12 -110 0 0 12 4 0c2,0 3,0 4,0 3,1 4,3 5,4 1,2 1,2 1,4l0 63c0,1 0,3 0,4 -2,3 -5,4 -8,4l-6 0 0 12 54 0 0 -12 -8 0c-2,0 -3,0 -5,0 -1,-1 -2,-2 -3,-4 0,0 0,0 0,-1 -1,-1 -1,-2 -1,-3l0 -63c1,-2 1,-2 2,-4 1,-2 1,-2 3,-3 1,0 2,-1 4,-1l8 0c4,0 8,1 12,4 1,1 1,1 2,3 1,1 2,2 3,3l28 39 0 20c0,1 0,3 0,3 0,3 0,4 -2,6 -2,1 -5,1 -8,1 -4,0 -11,0 -11,0l0 12 59 0 63 0 0 -12 -11 0c-2,0 -3,0 -5,0 -1,-1 -3,-3 -2,-5 1,-4 5,-14 5,-14l37 0 4 12c1,2 1,4 -1,6 -1,1 -3,1 -5,1l-10 0 0 12 57 0 0 -12 -7 0zm-70 -34l13 -38 13 38 -26 0z"/>
  <polygon class="fil2" points="466,0 503,113 622,113 526,183 563,296 466,226 370,296 407,183 311,113 430,113 "/>
 </g>
</svg>
