<?xml version="1.0" encoding="UTF-8" standalone="no"?>
<!-- Created with Inkscape (http://www.inkscape.org/) -->

<svg
   xmlns:dc="http://purl.org/dc/elements/1.1/"
   xmlns:cc="http://creativecommons.org/ns#"
   xmlns:rdf="http://www.w3.org/1999/02/22-rdf-syntax-ns#"
   xmlns:svg="http://www.w3.org/2000/svg"
   xmlns="http://www.w3.org/2000/svg"
   xmlns:sodipodi="http://sodipodi.sourceforge.net/DTD/sodipodi-0.dtd"
   xmlns:inkscape="http://www.inkscape.org/namespaces/inkscape"
   width="679.69598"
   height="600.79999"
   viewBox="0 0 679.696 600.79994"
   id="svg4170"
   version="1.1"
   inkscape:version="0.91 r13725"
   sodipodi:docname="88.svg">
  <defs
     id="defs4172" />
  <sodipodi:namedview
     id="base"
     pagecolor="#ffffff"
     bordercolor="#666666"
     borderopacity="1.0"
     inkscape:pageopacity="0.0"
     inkscape:pageshadow="2"
     inkscape:zoom="0.34049102"
     inkscape:cx="486.20034"
     inkscape:cy="-13.003921"
     inkscape:document-units="px"
     inkscape:current-layer="layer1"
     showgrid="false"
     units="px"
     inkscape:window-width="1920"
     inkscape:window-height="1057"
     inkscape:window-x="-8"
     inkscape:window-y="-8"
     inkscape:window-maximized="1"
     fit-margin-top="0"
     fit-margin-left="0"
     fit-margin-right="0"
     fit-margin-bottom="0" />
  <metadata
     id="metadata4175">
    <rdf:RDF>
      <cc:Work
         rdf:about="">
        <dc:format>image/svg+xml</dc:format>
        <dc:type
           rdf:resource="http://purl.org/dc/dcmitype/StillImage" />
        <dc:title></dc:title>
      </cc:Work>
    </rdf:RDF>
  </metadata>
  <g
     inkscape:label="Layer 1"
     inkscape:groupmode="layer"
     id="layer1"
     transform="translate(-1786.1948,1512.414)">
    <path
       sodipodi:nodetypes="cccc"
       style="opacity:1;fill:none;fill-opacity:1;stroke:#ec1d24;stroke-width:90;stroke-linecap:butt;stroke-linejoin:round;stroke-miterlimit:4;stroke-dasharray:none;stroke-dashoffset:0;stroke-opacity:1"
       inkscape:transform-center-x="-0.00019827296"
       inkscape:transform-center-y="85.001303"
       d="m 2420.4944,-1467.014 -588.9029,10e-5 294.4515,510.00434 z"
       id="path4703"
       inkscape:connector-curvature="0" />
    <path
       style="opacity:1;fill:#ffffff;fill-opacity:1;stroke:none;stroke-width:90;stroke-linecap:butt;stroke-linejoin:round;stroke-miterlimit:4;stroke-dasharray:none;stroke-dashoffset:0;stroke-opacity:1"
       d="m 2394.5137,-1452.0144 -536.9416,0 268.471,465.00529 z"
       id="rect4766"
       inkscape:connector-curvature="0"
       sodipodi:nodetypes="cccc" />
    <path
       d="m 1940.5948,-1367.6173 0,-60.3 12.32,0 0,60.3 z"
       style="fill:#000000;fill-opacity:1;stroke:none;stroke-width:1.80383658;stroke-linecap:round;stroke-linejoin:round;stroke-miterlimit:10;stroke-dasharray:none;stroke-opacity:1"
       id="path6216"
       inkscape:connector-curvature="0"
       sodipodi:nodetypes="ccccc" />
    <path
       d="m 2094.6463,-1246.7173 0,-60.13 12.32,0 0,60.13 z"
       style="fill:#000000;fill-opacity:1;stroke:none;stroke-width:1.80383658;stroke-linecap:round;stroke-linejoin:round;stroke-miterlimit:10;stroke-dasharray:none;stroke-opacity:1"
       id="path6710"
       inkscape:connector-curvature="0"
       sodipodi:nodetypes="ccccc" />
    <path
       id="path8148"
       d="m 2052.6597,-1308.3435 c 0,0 18.1482,-0.111 24.2478,14.6325 l -11.2877,5.8529 c -3.1976,-8.7516 -12.9601,-8.7794 -12.9601,-8.7794 -10.2102,0.028 -16.1759,7.5496 -16.3048,20.0673 0.129,12.0358 6.0946,19.7308 15.8866,19.6492 8.1051,0.082 13.9841,-5.5378 13.7963,-13.3782 l 0,-0.8361 -15.0505,0 0,-10.4518 27.1745,0 0,34.6997 -11.706,0 0,-4.1807 c -5.8496,5.9869 -15.0504,5.853 -15.0504,5.853 -15.4408,0.1339 -27.9763,-13.4402 -28.0106,-31.7732 0.034,-17.634 11.0134,-31.4662 29.2649,-31.3552 z"
       style="fill:#000000;fill-rule:nonzero;stroke:none"
       inkscape:connector-curvature="0" />
    <path
       inkscape:connector-curvature="0"
       style="fill:#000000;fill-rule:nonzero;stroke:none"
       d="m 2031.0948,-1220.9441 12.55,0 10,41.49 8.416,-41.49 14.4815,10e-5 8.416,41.4899 10,-41.4899 12.55,0 -14.13,60.1299 -15.63,0 -8.4467,-41.188 -8.4468,41.1879 -15.63,0 z"
       id="path8162"
       sodipodi:nodetypes="cccccccccccccc" />
    <path
       sodipodi:nodetypes="cccccccccccccc"
       id="path8194"
       d="m 2189.876,-1427.7473 -13.1532,0 -9.3951,40.7128 -8.7688,-40.7128 -13.7796,10e-5 -8.7685,40.7127 -9.3952,-40.7127 -13.1531,0 15.0325,60.1299 14.4057,0 8.7685,-40.7128 8.7687,40.7127 14.4059,0 z"
       style="fill:#000000;fill-rule:nonzero;stroke:none"
       inkscape:connector-curvature="0" />
    <path
       inkscape:connector-curvature="0"
       style="fill:#000000;fill-rule:nonzero;stroke:none"
       d="m 2132.2482,-1220.9441 15.783,0 19.9806,60.13 -13.153,0 -3.0705,-10.6478 -23.2971,0 -3.0705,10.6478 -13.1532,0 z"
       id="path8196"
       sodipodi:nodetypes="ccccccccc" />
    <path
       inkscape:connector-curvature="0"
       style="fill:#ffffff;fill-rule:nonzero;stroke:none"
       d="m 2140.1703,-1207.726 -8.1424,25.6162 16.2237,0 z"
       id="path8198"
       sodipodi:nodetypes="cccc" />
    <path
       inkscape:connector-curvature="0"
       style="fill:#000000;fill-rule:nonzero;stroke:none"
       d="m 2186.1959,-1220.9441 11.2801,21.2956 11.8941,-21.2956 14.405,0 -20.0448,35.7005 0,24.4295 -11.8945,0 0,-24.4295 -20.0447,-35.7005 z"
       id="path8200"
       sodipodi:nodetypes="cccccccccc" />
    <path
       inkscape:connector-curvature="0"
       style="fill:#000000;fill-rule:nonzero;stroke:none"
       d="m 2144.6209,-1261.9558 -13.0676,-44.8915 -12.5552,0 17.1862,60.13 16.8857,0 17.8211,-60.13 -13.1791,0 z"
       id="path8266"
       sodipodi:nodetypes="cccccccc" />
    <path
       inkscape:connector-curvature="0"
       style="fill:#000000;fill-rule:nonzero;stroke:none"
       d="m 2220.3193,-1282.7783 0,11.118 -24.932,0 0,13.18 29.767,0 0,11.763 -42.12,0 0,-60.13 39.732,0 0,11.743 -27.379,0 0,12.326 z"
       id="path8286"
       sodipodi:nodetypes="ccccccccccccc" />
    <path
       sodipodi:nodetypes="ccccc"
       inkscape:connector-curvature="0"
       id="path8333"
       style="fill:#000000;fill-opacity:1;stroke:none;stroke-width:1.80383658;stroke-linecap:round;stroke-linejoin:round;stroke-miterlimit:10;stroke-dasharray:none;stroke-opacity:1"
       d="m 2087.3068,-1367.6173 0,-60.3 12.32,0 0,60.3 z" />
    <path
       d="m 2010.8169,-1379.6433 0,12.026 -38.655,0 0,-60.13 12.026,0 0,48.104 26.629,0"
       inkscape:connector-curvature="0"
       id="path16"
       style="fill:#000000;fill-opacity:1;stroke:none" />
    <path
       d="m 2072.8884,-1398.5327 c 0.019,18.2964 -13.0752,30.8705 -28.0791,30.9154 l -21.8393,0 0,-60.129 23.2574,0 c 15.297,-0.1267 26.6727,11.9313 26.661,29.2136"
       inkscape:connector-curvature="0"
       id="path40"
       style="fill:#000000;stroke:none" />
    <path
       d="m 2060.4088,-1398.5327 c -0.083,-14.7178 -10.0026,-17.625 -15.0322,-17.5849 l -9.927,0 0,36.3043 8.5088,0 c 10.1255,-0.08 16.3676,-6.3248 16.4504,-18.7194"
       inkscape:connector-curvature="0"
       id="path42"
       style="fill:#ffffff;stroke:none" />
    <path
       d="m 2225.7453,-1429.2441 c 0,0 22.3467,0.1365 26.162,18.1995 l -11.6592,5.6874 c -2.5309,-12.088 -14.5028,-12.2279 -14.5028,-12.2279 -12.4672,0.14 -15.2966,10.0004 -15.356,20.1903 0.059,12.3629 4.8605,19.2233 15.356,19.3371 0,0 12.3156,-0.1138 14.7872,-11.6592 l 11.9435,4.55 c -5.069,19.0882 -26.162,19.0527 -26.162,19.0527 -17.8394,0.035 -29.501,-12.9151 -29.5744,-31.565 0.074,-18.3086 11.5644,-31.4275 29.0057,-31.5649"
       inkscape:connector-curvature="0"
       id="path24"
       style="fill:#000000;stroke:none" />
    <path
       d="m 2304.2054,-1404.5 0,-23.2578 12.4797,0 0,60.13 -12.4797,0 0,-25.2433 -24.676,0 0,25.2433 -12.4799,0 0,-60.13 12.4799,0 0,23.2578 24.676,0"
       inkscape:connector-curvature="0"
       id="path26"
       style="fill:#000000;stroke:none" />
  </g>
</svg>
