<?xml version="1.0" encoding="UTF-8" standalone="no"?>
<svg xmlns="http://www.w3.org/2000/svg" width="1010.4" height="1010.4002" version="1.0">
  <path d="M714.3777 1010.2001 1010.2 714.378l-.0001-418.3556L714.3779.2 296.0222.2003.2 296.0224l.0002 418.3558 295.822 295.822z"/>
  <path fill="#fff" d="M712.3067 1005.2 1005.2 712.3068l-.0001-414.2135L712.3068 5.1998l-414.2135.0003L5.2 298.0933l.0002 414.2136 292.8931 292.8932z"/>
  <path fill="#ec1d24" d="M311.7621 38.2 38.2 311.762l.0001 386.8758L311.762 972.2001l386.87553-.0004L972.2 698.6379l-.00029-386.8759L698.63763 38.1999z"/>
  <path fill="#fff" d="M125.2526 452.2196c.066 13.3425 8.4651 23.7571 31.6615 28.5833l51.0103 11.4334c27.5756 5.5737 49.0754 27.7441 49.2513 57.6064-.1759 44.3775-34.1058 77.6331-86.1898 77.8346-41.2992-.2015-61.4542-11.2867-92.7859-44.4141l30.3423-25.5051c22.4893 24.7026 39.9544 33.1017 62.4436 32.9808 29.243.1209 47.7196-9.6194 47.9321-31.6616-.2125-14.2367-10.6271-26.6668-29.4628-30.7821l-47.4923-10.1141c-34.4466-7.2704-55.6093-34.813-55.4078-64.2025-.2015-42.4976 32.3835-69.3733 83.9911-69.4796 0 0 59.578.1064 82.2321 38.2577l-32.1013 24.1859c-17.4248-27.7368-55.4077-27.7038-55.4077-27.7038-26.5129-.033-39.9507 14.0755-40.0167 32.9808m270.0027-26.8244v197.0052h-39.1372V425.3952h-64.2026v-35.6193h167.5424v35.6193h-64.2026m205.34445-44.4248c-72.041.1429-110.31185 53.8837-110.35215 123.5611.04 77.12 42.00875 124.829 110.35215 124.8986 75.4271-.07 111.052-53.4916 111.2719-124.8986-.2199-71.3558-38.5309-123.4182-111.2719-123.5611zm0 36.9513c44.187.1576 70.0672 29.0253 69.9316 86.6098.1356 53.2676-18.3533 88.2239-69.9316 88.4072-49.5334-.1833-69.6806-32.4498-69.4717-88.4072-.2089-51.2009 17.9228-86.4522 69.4717-86.6098zm168.4544-29.4691v233.9551h40.4207l.4598-85.314h46.1891c52.3625.022 75.8783-41.9901 76.0762-74.7803-.1979-35.0659-20.385-74.0147-81.3848-73.8608h-81.761zm40.4207 35.6137h43.5557c23.8635-.1649 41.3363 14.9607 41.3403 38.7069 0 25.6334-15.4814 38.3863-41.8001 38.2471h-43.0959v-76.954z"/>
</svg>