<svg height="167.760879" viewBox="0 0 44.241553 12.386945" width="596.086528" xmlns="http://www.w3.org/2000/svg" xmlns:xlink="http://www.w3.org/1999/xlink"><clipPath id="a"><path d="m558.27344 15.265625h27v26.996094h-27zm0 0"/></clipPath><clipPath id="b"><path d="m570.02344 55.648438 28.63281-25.132813-25.13281-28.632812-28.63282 25.132812zm0 0"/></clipPath><radialGradient id="c" cx="0" cy="0" gradientTransform="matrix(.751532 -.659697 -.659697 -.751532 545.67779 50.395639)" gradientUnits="userSpaceOnUse" r="52.164215"><stop offset="0" stop-color="#73c52a"/><stop offset=".25" stop-color="#73c52a"/><stop offset=".273438" stop-color="#73c52a"/><stop offset=".292969" stop-color="#72c52b"/><stop offset=".296875" stop-color="#72c52b"/><stop offset=".300781" stop-color="#71c52b"/><stop offset=".304688" stop-color="#70c42b"/><stop offset=".308594" stop-color="#6fc42c"/><stop offset=".3125" stop-color="#6fc42c"/><stop offset=".316406" stop-color="#6ec42c"/><stop offset=".320313" stop-color="#6dc42c"/><stop offset=".324219" stop-color="#6dc32c"/><stop offset=".328125" stop-color="#6cc32d"/><stop offset=".332031" stop-color="#6bc32d"/><stop offset=".335938" stop-color="#6ac32d"/><stop offset=".339844" stop-color="#6ac32d"/><stop offset=".34375" stop-color="#69c22e"/><stop offset=".347656" stop-color="#68c22e"/><stop offset=".351563" stop-color="#68c22e"/><stop offset=".355469" stop-color="#67c22e"/><stop offset=".359375" stop-color="#66c12e"/><stop offset=".363281" stop-color="#65c12f"/><stop offset=".367188" stop-color="#65c12f"/><stop offset=".371094" stop-color="#64c12f"/><stop offset=".375" stop-color="#63c12f"/><stop offset=".378906" stop-color="#63c030"/><stop offset=".382813" stop-color="#62c030"/><stop offset=".386719" stop-color="#61c030"/><stop offset=".390625" stop-color="#60c030"/><stop offset=".394531" stop-color="#60c030"/><stop offset=".398438" stop-color="#5fbf31"/><stop offset=".402344" stop-color="#5ebf31"/><stop offset=".40625" stop-color="#5ebf31"/><stop offset=".410156" stop-color="#5dbf31"/><stop offset=".414063" stop-color="#5cbe32"/><stop offset=".417969" stop-color="#5bbe32"/><stop offset=".421875" stop-color="#5bbe32"/><stop offset=".425781" stop-color="#5abe32"/><stop offset=".429688" stop-color="#59be32"/><stop offset=".433594" stop-color="#58bd33"/><stop offset=".4375" stop-color="#58bd33"/><stop offset=".441406" stop-color="#56bd33"/><stop offset=".445313" stop-color="#55bc34"/><stop offset=".449219" stop-color="#54bb34"/><stop offset=".453125" stop-color="#52bb34"/><stop offset=".457031" stop-color="#51ba34"/><stop offset=".460938" stop-color="#50b935"/><stop offset=".464844" stop-color="#4eb935"/><stop offset=".46875" stop-color="#4db835"/><stop offset=".472656" stop-color="#4cb836"/><stop offset=".476563" stop-color="#4ab736"/><stop offset=".480469" stop-color="#49b636"/><stop offset=".484375" stop-color="#48b636"/><stop offset=".488281" stop-color="#46b537"/><stop offset=".492188" stop-color="#45b437"/><stop offset=".496094" stop-color="#44b437"/><stop offset=".5" stop-color="#42b338"/><stop offset=".503906" stop-color="#41b338"/><stop offset=".507813" stop-color="#40b238"/><stop offset=".511719" stop-color="#3fb138"/><stop offset=".515625" stop-color="#3db139"/><stop offset=".519531" stop-color="#3cb039"/><stop offset=".523438" stop-color="#3baf39"/><stop offset=".527344" stop-color="#39af3a"/><stop offset=".53125" stop-color="#38ae3a"/><stop offset=".535156" stop-color="#37ae3a"/><stop offset=".539063" stop-color="#36ad3a"/><stop offset=".542969" stop-color="#34ac3b"/><stop offset=".546875" stop-color="#33ac3b"/><stop offset=".550781" stop-color="#32ab3b"/><stop offset=".554688" stop-color="#31ab3b"/><stop offset=".558594" stop-color="#2faa3c"/><stop offset=".5625" stop-color="#2ea93c"/><stop offset=".566406" stop-color="#2da93c"/><stop offset=".570313" stop-color="#2ca83d"/><stop offset=".574219" stop-color="#2aa73d"/><stop offset=".578125" stop-color="#29a73d"/><stop offset=".582031" stop-color="#28a63d"/><stop offset=".585938" stop-color="#27a63e"/><stop offset=".589844" stop-color="#25a53e"/><stop offset=".59375" stop-color="#24a43e"/><stop offset=".597656" stop-color="#23a43e"/><stop offset=".601563" stop-color="#22a33f"/><stop offset=".605469" stop-color="#20a33f"/><stop offset=".609375" stop-color="#1fa23f"/><stop offset=".613281" stop-color="#1ea13f"/><stop offset=".617188" stop-color="#1da140"/><stop offset=".621094" stop-color="#1ca040"/><stop offset=".625" stop-color="#1aa040"/><stop offset=".628906" stop-color="#199f40"/><stop offset=".632813" stop-color="#189f41"/><stop offset=".636719" stop-color="#179e41"/><stop offset=".640625" stop-color="#169d41"/><stop offset=".644531" stop-color="#159d41"/><stop offset=".648438" stop-color="#139c42"/><stop offset=".652344" stop-color="#129c42"/><stop offset=".65625" stop-color="#119b42"/><stop offset=".660156" stop-color="#109a42"/><stop offset=".664063" stop-color="#0f9a42"/><stop offset=".667969" stop-color="#0e9943"/><stop offset=".671875" stop-color="#0c9943"/><stop offset=".675781" stop-color="#0b9843"/><stop offset=".679688" stop-color="#0a9843"/><stop offset=".683594" stop-color="#0b944d"/><stop offset=".6875" stop-color="#0e8c63"/><stop offset=".691406" stop-color="#12827b"/><stop offset=".695313" stop-color="#167791"/><stop offset=".699219" stop-color="#1a6aa4"/><stop offset=".703125" stop-color="#1c61b0"/><stop offset=".707031" stop-color="#1d5fb5"/><stop offset=".710938" stop-color="#1d60b6"/><stop offset=".714844" stop-color="#1c62b7"/><stop offset=".71875" stop-color="#1c63b8"/><stop offset=".722656" stop-color="#1c65b9"/><stop offset=".726563" stop-color="#1b66ba"/><stop offset=".730469" stop-color="#1b67bb"/><stop offset=".734375" stop-color="#1b69bc"/><stop offset=".738281" stop-color="#1a6abd"/><stop offset=".742188" stop-color="#1a6cbe"/><stop offset=".746094" stop-color="#1a6dbf"/><stop offset=".75" stop-color="#196fc0"/><stop offset=".753906" stop-color="#1970c1"/><stop offset=".757813" stop-color="#1971c2"/><stop offset=".761719" stop-color="#1873c3"/><stop offset=".765625" stop-color="#1874c4"/><stop offset=".769531" stop-color="#1876c5"/><stop offset=".773438" stop-color="#1777c6"/><stop offset=".777344" stop-color="#1778c7"/><stop offset=".78125" stop-color="#177ac8"/><stop offset=".785156" stop-color="#167bca"/><stop offset=".789063" stop-color="#167dcb"/><stop offset=".792969" stop-color="#167ecc"/><stop offset=".796875" stop-color="#1580cd"/><stop offset=".800781" stop-color="#1581ce"/><stop offset=".804688" stop-color="#1583cf"/><stop offset=".808594" stop-color="#1584d0"/><stop offset=".8125" stop-color="#1485d1"/><stop offset=".816406" stop-color="#1487d2"/><stop offset=".820313" stop-color="#1488d3"/><stop offset=".824219" stop-color="#138ad4"/><stop offset=".828125" stop-color="#138bd5"/><stop offset=".832031" stop-color="#138dd6"/><stop offset=".835938" stop-color="#128ed7"/><stop offset=".839844" stop-color="#1290d8"/><stop offset=".84375" stop-color="#1291d9"/><stop offset=".847656" stop-color="#1193da"/><stop offset=".851563" stop-color="#1194db"/><stop offset=".855469" stop-color="#1196dd"/><stop offset=".859375" stop-color="#1197de"/><stop offset=".863281" stop-color="#1099df"/><stop offset=".867188" stop-color="#109ae0"/><stop offset=".871094" stop-color="#109ce1"/><stop offset=".875" stop-color="#0f9de2"/><stop offset=".878906" stop-color="#0f9fe3"/><stop offset=".882813" stop-color="#0fa0e4"/><stop offset=".886719" stop-color="#0fa2e5"/><stop offset=".890625" stop-color="#0ea3e6"/><stop offset=".894531" stop-color="#0ea5e7"/><stop offset=".898438" stop-color="#0ea6e8"/><stop offset=".902344" stop-color="#0ea6e8"/><stop offset=".90625" stop-color="#0da7e9"/><stop offset=".910156" stop-color="#0da7e9"/><stop offset=".914063" stop-color="#0da7e9"/><stop offset=".917969" stop-color="#0da7e9"/><stop offset=".921875" stop-color="#0da8e9"/><stop offset=".925781" stop-color="#0da8ea"/><stop offset=".929688" stop-color="#0da8ea"/><stop offset=".933594" stop-color="#0da9ea"/><stop offset=".9375" stop-color="#0da9ea"/><stop offset=".941406" stop-color="#0da9eb"/><stop offset=".945313" stop-color="#0caaeb"/><stop offset=".949219" stop-color="#0caaeb"/><stop offset=".953125" stop-color="#0caaeb"/><stop offset=".957031" stop-color="#0cabeb"/><stop offset=".960938" stop-color="#0cabec"/><stop offset=".964844" stop-color="#0cabec"/><stop offset=".96875" stop-color="#0cabec"/><stop offset=".972656" stop-color="#0cacec"/><stop offset=".976563" stop-color="#0caced"/><stop offset=".980469" stop-color="#0caced"/><stop offset=".984375" stop-color="#0baded"/><stop offset=".988281" stop-color="#0baded"/><stop offset=".992188" stop-color="#0baded"/><stop offset=".996094" stop-color="#0baeee"/><stop offset="1" stop-color="#0baeee"/></radialGradient><symbol id="d" overflow="visible"/><g transform="matrix(1.2677368 0 0 1.2677368 -494.25741 -188.623479)"><g clip-path="url(#a)" transform="matrix(.35277778 0 0 .35277778 218.19608 143.50655)"><g clip-path="url(#b)"><path d="m570.02344 55.648438-25.13282-28.632813 28.63282-25.132812 25.13281 28.632812zm0 0" fill="url(#c)"/></g></g><path d="m391.25563 152.91442c.13918 0 .24804-.11438.24804-.25356 0-.13367-.11437-.24805-.24804-.24805-.13918 0-.25356.10887-.25356.24805 0 .14469.10886.25356.25356.25356" fill="#59595e"/><path d="m391.9791 155.37008c-.1447 0-.25356.10749-.25356.24805 0 .13918.10886.24804.25356.24804.13505 0 .24805-.11437.24805-.24804 0-.13505-.113-.24805-.24805-.24805" fill="#59595e"/><path d="m391.29697 154.57909h-.27423c-.39274 0-.55811-.15572-.55811-.51677 0-.30592.17088-.5016.4396-.5016s.39274.16536.39274.51125zm1.0542-.30042c0 .22187-.0827.30042-.31557.30042h-.26872v-.55811c0-.56362-.28938-.85852-.82682-.85852-.66146 0-.96187.46027-.96187.91502 0 .33073.10886.58429.30592.71796.22738.15021.41755.1819.85301.1819h.92466c.49058 0 .77033-.18604.77033-.68351v-1.13137h-.48094zm0 0" fill="#59595e"/><path d="m390.67685 152.91442c.13919 0 .24805-.11438.24805-.25356 0-.13367-.11438-.24805-.24805-.24805-.14056 0-.24804.10887-.24804.24805 0 .14469.10335.25356.24804.25356" fill="#59595e"/><path d="m394.71864 154.07748c0-.45475-.2949-.91502-.95636-.91502h-.37758v.39826h.41341c.26872 0 .43959.19568.43959.5016v.51677h-1.23472v.39825h1.71566zm0 0" fill="#59595e"/><path d="m392.55236 155.37008c-.13918 0-.24804.10749-.24804.24805 0 .13918.10886.24804.24804.24804.14056 0 .25356-.11437.25356-.24804 0-.13505-.113-.24805-.25356-.24805" fill="#59595e"/><path d="m411.18619 152.27776h-.46439v2.6982h.46439zm0 0" fill="#59595e"/><path d="m410.87614 155.37008v.44924c.1502.0262.25907.0358.36242.0358.6463 0 .96187-.2949.96187-.90399v-1.61231h-.48644v1.61782c0 .30455-.17088.49058-.4396.49058-.1695 0-.2949-.0413-.34037-.0565zm0 0" fill="#59595e"/><path d="m412.97489 152.56853h-.4644v2.40881h.4644zm0 0" fill="#59595e"/><path d="m405.65062 153.56072c.26872 0 .38722.16536.38722.51125v.50712h-.26871c-.39274 0-.55811-.15572-.55811-.51677 0-.30592.17088-.5016.4396-.5016m3.45198.51125c0-.34589.1254-.51125.39412-.51125s.43959.19568.43959.5016c0 .36105-.16536.51677-.55397.51677h-.27974zm-4.0721.72347c.22738.15021.41755.1819.853.1819h.15986c-.006.31006-.18053.4644-.51125.4644-.15021 0-.33073-.0207-.52779-.0882l-.0303-.01v.44924c.23703.0413.41755.062.58429.062.63528 0 .96049-.2949.97152-.87781h2.73403c.75378 0 1.15204-.19706 1.15204-.89986 0-.45475-.2949-.91502-.95498-.91502-.53882 0-.82821.2949-.82821.85852v.55811h-.42305c.062-.11851.0978-.26459.0978-.4396 0-.39825-.25356-.85851-.95636-.85851h-.062l.9095-1.00184h-.56361c-.34038.38172-.85301.93982-.91364.99632v.40377h.66145c.2012 0 .44373.0772.44373.43959 0 .33487-.1502.46027-.5581.46027h-.75517v-.55811c0-.56362-.28938-.85852-.82544-.85852-.66284 0-.96187.46027-.96187.91502 0 .33073.10886.58291.30454.71796" fill="#59595e"/><path d="m398.03144 154.54739c-.0661 0-.56775-.47542-.56775-.75378 0-.15572.29904-.23841.58291-.23841.27423 0 .55949.0827.55949.23841 0 .27285-.48094.75378-.57465.75378m-1.78869.0317h-.27285c-.39274 0-.55811-.15572-.55811-.51677 0-.30592.17088-.5016.4396-.5016.26734 0 .39136.16536.39136.51125zm6.03719.39687c.20257 0 .40927-.0455.52227-.113.15021-.0882.21773-.2384.22738-.31557.0152-.062.0207-.12402.0207-.25356v-2.01056h-.47955v1.9954c0 .22325-.0841.30042-.31557.30042h-.11438c-.0772 0-.15434-.0165-.24254-.0469.01-.062.0165-.12953.0165-.21222v-.98254h-.47129v.95223c0 .2067-.0937.2949-.30455.2949-.0785 0-.15571-.011-.2384-.0372.01-.0661.0152-.13367.0152-.23289v-.97703h-.46991v.95223c0 .18603-.0469.2632-.18052.28939h-.24391c-.0358 0-.11852.006-.11852-.0427v-1.1989h-.46991v1.24162h-.7965c.25907-.27423.41341-.56362.41341-.78549 0-.42443-.51125-.64216-1.01837-.64216-.50574 0-1.01837.21773-1.01837.64216 0 .29904.26872.62426.42443.78549h-.72346v-.55811c0-.56362-.2894-.85852-.82683-.85852-.66284 0-.95636.46027-.95636.91502 0 .33073.10198.58429.29903.71796.22738.1502.41893.18052.85301.18052h.15986c-.004.31006-.17502.46578-.51126.46578-.14883 0-.33073-.0207-.52778-.0882l-.0303-.01v.44924c.2384.0413.41893.062.58429.062.63527 0 .96187-.2949.97151-.87919h3.20532c.0923.011.18466.0165.27837.0165.18052 0 .31557-.0317.4451-.10336.1695.0661.37207.10336.56913.10336.18052 0 .32935-.0372.44373-.11438.15572.0675.34589.0978.56362.0978zm0 0" fill="#59595e"/><path d="m403.41819 154.97596h.4644v-2.6982h-.4644zm0 0" fill="#59595e"/><path d="m413.08927 152.14409h-.25907c-.10887-.006-.13505-.0262-.13505-.10886 0-.0923.0317-.113.14607-.113.0717 0 .12402.0152.20119.0717v-.22738l-.0358-.0152c-.0579-.0262-.10886-.0358-.17087-.0358-.2384 0-.37207.113-.37207.32522 0 .0469.01.0772.0207.10335h-.0882v.20671h.69315zm0 0" fill="#59595e"/><path d="m412.39336 158.03383c-.27836 0-.50161-.22738-.50161-.50161s.22325-.49609.50161-.49609c.27423 0 .49609.22186.49609.49609s-.22186.50161-.49609.50161m0-1.42214c-.50574 0-.92053.41341-.92053.92053s.41479.92053.92053.92053c.50712 0 .91502-.41341.91502-.92053s-.4079-.92053-.91502-.92053" fill="#59595e"/><path d="m409.02406 156.59102c-.2012 0-.4079.0413-.57327.10887-.13505-.0772-.26321-.10887-.44924-.10887-.23289 0-.47129.0317-.72898.11989l-.0469.0152v1.68948h.46027v-1.38493c.0923-.0317.16536-.0413.25769-.0413.22875 0 .2949.0717.2949.31005v1.11622h.46578v-1.14653c0-.10335-.005-.17088-.0207-.23289.0923-.0317.16536-.0469.24805-.0469.21635 0 .31419.0978.31419.31005v1.11622h.46026v-1.15204c0-.22738-.0358-.36243-.13918-.47543-.11438-.12402-.30454-.19706-.54294-.19706" fill="#59595e"/><path d="m410.86787 158.05174c-.30593 0-.48231-.19017-.48231-.52227 0-.34038.17776-.53606.48782-.53606.0634 0 .11714.007.1695.022 0 0 .0951.0276.17777.0923l.19568-.33349c-.10611-.0882-.23151-.12678-.27423-.1378-.11851-.0358-.2949-.0413-.2949-.0413-.55259 0-.92329.38309-.92329.9536 0 .54846.3514.90261.89711.90261 0 0 .36655.0165.61184-.21084l-.22875-.29352c-.12402.0786-.21084.10473-.33624.10473" fill="#59595e"/><path d="m404.87065 156.60756c-.65595 0-.9605.28939-.9605.90399v.904h.46991v-.90951c0-.31006.17639-.50161.45062-.50161.113 0 .2012.0207.26183.0372l.10887-.40928c-.18191-.0248-.33073-.0248-.33073-.0248" fill="#59595e"/><path d="m406.49673 157.51155c0-.34589-.13505-.51676-.40238-.51676-.27423 0-.45062.20119-.45062.50574 0 .36656.17639.52779.56913.52779h.28387zm.46027-.0524v.95636h-.63114c-.43409 0-.62563-.0303-.85301-.18053-.19568-.13367-.30455-.38723-.30455-.71796 0-.45475.30041-.91501.96187-.91501.53744 0 .82683.29903.82683.85714" fill="#59595e"/><path d="m403.17841 157.51155c0-.3514-.12402-.51676-.39825-.51676s-.44924.20119-.44924.50574c0 .36656.17501.52779.56776.52779h.27973zm.47543-.0524v.95636h-.62563c-.43408 0-.62563-.0303-.85301-.18053-.19568-.13367-.30454-.38723-.30454-.71796 0-.45475.29903-.91501.96187-.91501.53743 0 .82131.29903.82131.85714" fill="#59595e"/><path d="m393.80086 157.32138c-.28111-.0841-.39411-.13091-.39274-.2191 0-.0965.14332-.14883.31695-.14883.17364 0 .34038.04.46578.0799l.10749-.40101c-.18466-.0427-.41204-.0675-.56362-.0675-.49747 0-.76894.22462-.76894.56224 0 .16674.0482.39825.56913.54432.3073.0896.41892.1006.41892.2012 0 .11162-.19155.19155-.41341.19155-.22738 0-.46027-.0992-.60221-.16812v.43683c.16812.0689.38034.12127.59394.12127.54295 0 .86403-.23013.86403-.58567 0-.26871-.16399-.41616-.59532-.54708" fill="#59595e"/><path d="m397.73517 157.74444c0 .22186-.0868.30455-.32522.30455h-.0262c-.23702 0-.32521-.0827-.32521-.30455v-1.11759h-.46027v1.14791c0 .5333.30041.67799.7593.67799h.0786c.49058 0 .77445-.14056.77445-.67799v-1.14791h-.47542zm0 0" fill="#59595e"/><path d="m400.69795 155.97642c-.14056 0-.24943.10886-.24943.24804 0 .13919.10887.24805.24943.24805.13918 0 .24804-.10886.24804-.24805 0-.13504-.11437-.24804-.24804-.24804" fill="#59595e"/><path d="m400.47057 158.41555h.45476v-1.73633h-.45476zm0 0" fill="#59595e"/><path d="m395.88032 157.51155c0-.34589-.13504-.51676-.40376-.51676-.27423 0-.44924.20119-.44924.50574 0 .36656.17501.52779.56775.52779h.28525zm.45889-.0524v.95636h-.62976c-.43408 0-.62563-.0303-.85301-.18053-.19706-.13367-.30454-.38723-.30454-.71796 0-.45475.29903-.91501.96049-.91501.53881 0 .82682.29903.82682.85714" fill="#59595e"/><path d="m399.73057 157.51706c0-.37207-.10336-.52227-.36243-.52227-.27285 0-.44924.20119-.44924.50574 0 .36793.17088.52779.56362.52779h.24805zm.4451-1.57647v2.47496h-.57464c-.43408 0-.62563-.0303-.85163-.18053-.19706-.13505-.30592-.38723-.30592-.71796 0-.55397.37207-.9095.9095-.9095h.0469c.11851 0 .23288.0358.33073.0978v-.76481zm0 0" fill="#59595e"/><g fill="#fff"><path d="m420.397 152.88823c.113.0565.18742.17088.17364.26459-.0179.0951-.11851.1254-.23565.0689-.11713-.0579-.19155-.17501-.17363-.2701.0207-.0909.12265-.11851.23564-.0634"/><path d="m420.73324 151.05544c.091.0496.15572.13092.14883.18879-.011.0593-.0896.0675-.18603.0193-.0937-.0496-.15848-.13367-.14883-.19293.0124-.0565.0923-.0634.18603-.0152"/><path d="m420.76356 150.87354c.0772.0413.13091.10749.1254.15572-.008.0469-.0744.051-.15296.011-.0799-.0413-.13367-.11024-.12678-.15709.011-.0469.0772-.0496.15434-.01"/><path d="m420.7925 150.69164c.0717.0386.12127.1006.11713.14194-.008.0427-.0689.0455-.14193.008-.073-.04-.12403-.10198-.11714-.1447.01-.0413.0703-.0427.14194-.006"/><path d="m420.82006 150.51525c.0661.0358.113.0923.10887.12954-.007.0386-.0634.04-.13092.004-.0675-.0358-.11437-.0937-.10886-.13091.008-.0372.0648-.0372.13091-.003"/><path d="m420.84625 150.35264c.062.0331.10472.0841.10059.11852-.005.0331-.0565.0344-.11989 0-.062-.0331-.10611-.0854-.1006-.11989.007-.0317.0593-.0317.1199.001"/><path d="m420.87105 150.20519c.0565.0317.0965.0786.0937.10887-.005.0289-.0537.0289-.11161-.003-.0579-.0317-.0978-.0785-.0937-.10887.007-.0289.0537-.0276.11162.003"/><path d="m420.8931 150.06326c.0524.0289.0896.0661.0854.0978-.004.0317-.0469.0248-.1006-.004-.0524-.0289-.091-.0675-.0868-.0978.007-.0317.0496-.0248.10198.004"/><path d="m420.91515 149.91856c.0455.0262.0785.0579.0758.0841-.006.0262-.0413.0193-.0882-.006-.0455-.0248-.0785-.0579-.0758-.0854.006-.0248.0427-.0179.0882.007"/><path d="m420.93719 149.78351c.0414.0234.0717.0524.0689.0758-.004.0234-.0372.0179-.0786-.006-.0427-.0248-.073-.0537-.0703-.0772.004-.0234.0386-.0165.0799.007"/><path d="m420.95786 149.64984c.0358.0207.062.0441.0593.0648-.003.0207-.0317.0138-.0675-.007-.0358-.0207-.0634-.0455-.0606-.0648.004-.0207.0331-.0138.0689.007"/><path d="m420.97854 149.52444c.0317.0179.0537.0386.0524.0565-.003.0179-.0289.011-.0606-.007-.0317-.0179-.0551-.04-.0524-.0579.003-.0165.0289-.01.0606.008"/><path d="m420.27849 153.52902c-.0965-.0482-.15847-.14883-.14331-.23013.0165-.0799.10335-.10611.19843-.0606.0937.0469.15572.14469.14332.22599-.0152.0827-.1006.11025-.19844.0648"/><path d="m420.20408 153.92038c-.0951-.0469-.15572-.14745-.13918-.23151.0179-.0813.10197-.11024.19568-.0661.0923.0455.15296.14331.13918.226-.0165.0854-.1006.11575-.19568.0717"/><path d="m420.12415 154.32691c-.0923-.0441-.14882-.1447-.13367-.23014.0193-.0841.10198-.11437.19293-.073.0896.0455.14745.14331.13367.22737-.0165.0854-.0992.11852-.19293.0758"/><path d="m420.03734 154.77477c-.091-.0427-.14608-.14332-.12954-.23013.0193-.0854.10197-.11852.18879-.0785.0882.0427.14469.13918.12816.226-.0165.0868-.0978.12264-.18741.0827"/><path d="m419.94638 155.22125c-.0772-.0372-.1254-.1254-.11024-.20532.0179-.0786.0896-.11025.16674-.0758.0772.0358.12403.12403.11025.20257-.0165.0786-.0882.113-.16675.0786"/><path d="m419.83614 155.76282c-.0758-.0344-.11989-.12264-.10473-.20533.0193-.0785.0882-.11437.16399-.0813.073.0331.11851.11989.10335.20119-.0165.0813-.0868.11851-.16261.0854"/><path d="m419.7135 156.34849c-.0689-.0303-.10749-.11162-.091-.18879.0179-.0758.0813-.11162.14744-.0841.0661.0303.10474.11024.091.18603-.0165.0772-.0799.11438-.14745.0868"/><path d="m419.59085 156.93415c-.0579-.0248-.0896-.0965-.0744-.16674.0165-.0689.0717-.10335.12953-.0813.0565.0248.0882.0951.0744.16398-.0165.0689-.0717.10611-.12954.0841"/><path d="m420.79663 153.10872c.0882.0455.15021.1378.14056.2136-.011.0772-.0882.10059-.18052.0565-.0923-.0469-.15296-.14056-.14194-.21773.0138-.0744.0923-.0965.1819-.0524"/><path d="m421.19213 153.27408c.10887.0579.18604.17502.17777.2701-.01.0978-.10336.12954-.21635.073-.113-.0593-.19017-.17915-.18053-.27561.0152-.0951.10749-.12265.21911-.0675"/><path d="m423.92754 153.12939c-.0455-.0276-.0758-.0193-.0703.0207.005.0413.0455.0951.091.1254.0455.0276.0758.0193.0703-.0221-.007-.0413-.0469-.0951-.0909-.12402"/><path d="m423.60921 152.91166c-.0593-.0358-.10198-.0248-.0965.0262.007.051.0579.11989.11851.15848.0606.0358.10059.0248.0951-.0276-.007-.0524-.0579-.11989-.11713-.1571"/><path d="m422.72038 155.88133c-.0772-.0468-.13643-.0152-.13781.0772 0 .0923.0593.20257.13643.25218.0786.0496.13642.0138.13642-.0799-.001-.0923-.0592-.2012-.13504-.24943"/><path d="m422.34142 155.12892c-.0896-.051-.15986-.0165-.16537.0799-.001.0978.0662.21635.1571.2701.0896.0524.15985.0152.16261-.0841 0-.0978-.0675-.2136-.15434-.26597"/><path d="m421.94178 154.47849c-.0882-.0469-.15847-.0165-.16536.0717-.004.0882.0606.19706.15021.24805.0896.0482.15985.0152.16536-.0758.001-.0882-.0634-.1943-.15021-.24391"/><path d="m421.69649 151.81199c-.0799-.0413-.14331-.0331-.14882.0234-.003.0565.0565.13367.1378.17777.0813.0427.14469.0317.14745-.0248.001-.0565-.0579-.13229-.13643-.17639"/><path d="m423.32533 152.99434c-.062-.0358-.1061-.0248-.10335.0289.006.0537.0579.1254.12127.16399.062.0372.10611.0234.10197-.0303-.007-.0537-.0579-.1254-.11989-.16261"/><path d="m423.00425 152.80142c-.0661-.0386-.11438-.0262-.113.0289.004.0551.0593.12815.1254.16812.0675.0386.11438.0248.11163-.0303-.004-.0551-.0593-.12816-.12403-.16674"/><path d="m422.36209 152.69255c-.0772-.0427-.13643-.0289-.13781.0331.001.0634.062.14607.13918.19154.0799.0413.13781.0262.13781-.0372-.001-.0634-.062-.1447-.13918-.18742"/><path d="m422.68593 152.60574c-.073-.04-.12816-.0289-.12816.0303.003.0593.062.13919.1378.18328.0744.0413.12954.0262.12678-.0331-.004-.0606-.062-.1378-.13642-.18052"/><path d="m422.34831 152.41005c-.0827-.0441-.14745-.0317-.14883.0317 0 .0648.0661.15296.1502.19981.0854.0455.14883.0317.14745-.0344-.003-.0648-.0675-.1502-.14882-.19706"/><path d="m422.02033 152.49274c-.0854-.0455-.15434-.0303-.15847.0358-.001.0689.0648.15847.15158.2067.0882.0469.15572.0303.15848-.0386 0-.0675-.0661-.1571-.15159-.20395"/><path d="m421.56145 153.857c-.0909-.0469-.16675-.0193-.17501.0634-.007.0854.0593.1888.15158.23978.0909.0469.16536.0179.17363-.0675.004-.0854-.0606-.18741-.1502-.23564"/><path d="m421.58763 153.49871c-.0965-.051-.17777-.0248-.18741.062-.006.0882.0648.19706.16536.2508.0992.0524.17914.0234.18603-.0661.004-.0882-.0661-.1943-.16398-.24666"/><path d="m421.61243 153.15971c-.10611-.0537-.19292-.0289-.20257.0606-.005.091.0717.20671.17914.26596.10749.0551.19431.0276.2012-.0648.004-.0923-.073-.20532-.17777-.26182"/><path d="m421.63448 152.84414c-.10197-.0524-.18603-.0317-.19568.0524-.006.0841.0703.19431.17501.25081.10473.0537.18742.0303.19431-.0565.003-.0854-.073-.19155-.17364-.24667"/><path d="m421.64964 152.56991c-.0909-.0455-.16398-.0303-.17088.04-.004.073.062.16537.15297.21497.0923.0482.16398.0289.17087-.0427.001-.0717-.0648-.16399-.15296-.21222"/><path d="m421.66893 152.29154c-.0965-.051-.17501-.0358-.18327.0372-.004.0744.0689.17363.16674.22738.0992.0524.17776.0344.18327-.0413.001-.0744-.0703-.17088-.16674-.22325"/><path d="m421.68409 152.03798c-.0951-.0496-.17088-.0372-.17777.0317-.004.0689.0675.16398.16399.21635.0965.051.17225.0358.17639-.0358.001-.0689-.0689-.16123-.16261-.21222"/><path d="m421.07086 151.26077c-.0675-.0331-.12264-.0276-.12953.0138-.005.0427.0413.10335.10886.13918.0675.0345.12403.0289.12954-.0138.004-.0427-.0427-.10197-.10887-.13918"/><path d="m421.08327 151.06371c-.0606-.0317-.11163-.0276-.11714.008-.004.0386.0386.0923.1006.1254.0606.0331.11162.0276.11713-.01.003-.0372-.04-.0909-.10059-.12403"/><path d="m421.09429 150.8763c-.0537-.0276-.0978-.0248-.10197.006-.004.0317.0345.0786.0868.10749.0537.0276.0965.0248.10198-.007.003-.0317-.0345-.0772-.0868-.10611"/><path d="m421.10118 150.69578c-.0482-.0248-.0868-.0276-.091.003-.004.0317.0317.0689.0786.0951.0496.0248.0882.0276.0923-.003.003-.0317-.0331-.0689-.0799-.0951"/><path d="m421.11083 150.52765c-.0441-.0234-.0799-.0276-.0841 0-.003.0289.0303.0634.0744.0882.0441.0234.0799.0262.0841-.001.003-.0289-.0303-.0634-.0744-.0868"/><path d="m421.11909 150.35816c-.04-.0207-.0717-.0248-.0744-.001-.003.0248.0262.0537.0661.0758.0386.0221.0703.0248.073 0 .001-.0234-.0262-.0524-.0648-.0744"/><path d="m421.12598 150.20795c-.0372-.0193-.0661-.0234-.0689-.003-.003.0234.0248.0496.0606.0703.0372.0193.0661.0248.0689.001.001-.022-.0248-.0482-.0606-.0689"/><path d="m421.13288 150.05499c-.0331-.0179-.0579-.0234-.0606-.004-.001.0193.022.0427.0551.0606.0317.0179.0579.0221.0593.003.001-.0193-.022-.0413-.0537-.0593"/><path d="m420.71119 153.69714c.0717.0331.1323.0124.14057-.0482.008-.062-.0386-.13505-.10749-.17088-.0703-.0331-.12954-.0138-.14194.0469-.008.0606.0386.13505.10886.17225"/><path d="m420.65194 154.08851c.0675.0331.1254.011.13643-.051.007-.0606-.0372-.13229-.10336-.16674-.0675-.0317-.1254-.011-.13642.0496-.008.0606.0358.13367.10335.16813"/><path d="m420.55823 154.49089c.0675.0317.12403.008.13505-.0551.008-.0634-.0344-.13642-.0992-.1695-.0661-.0303-.12402-.007-.13642.0551-.01.0634.0345.13643.10059.1695"/><path d="m420.47279 154.92911c.062.0289.11714.004.12679-.0579.008-.0606-.0317-.13091-.0923-.16123-.062-.0289-.11576-.006-.12678.0565-.01.062.0303.13229.0923.16261"/><path d="m420.36944 155.36732c.0579.0262.11024.001.11989-.0593.008-.0606-.0276-.12816-.0841-.15572-.0579-.0262-.11024-.001-.12126.0579-.01.0606.0275.12953.0854.15709"/><path d="m420.24817 155.88822c.0551.0248.10336-.003.11438-.062.008-.0592-.0248-.12402-.0785-.14883-.0538-.0248-.10198.001-.11438.0593-.01.0606.0248.12678.0785.15158"/><path d="m422.01344 152.23367c-.0799-.0427-.14193-.0317-.14607.0289-.001.0606.0606.14194.14056.18742.0827.0413.14469.0289.14607-.0331 0-.0606-.0606-.14056-.14056-.18327"/><path d="m421.9969 152.78075c-.0716-.0372-.12953-.0234-.13229.0344-.001.0593.0524.13505.1254.17639.073.0386.12954.0234.1323-.0372 0-.0579-.0551-.13367-.12541-.17363"/><path d="m421.99001 153.06462c-.0813-.0441-.14745-.0262-.15158.0427-.003.0703.0593.15985.14332.20671.0841.0441.14745.0234.1502-.0469 0-.0689-.0606-.15847-.14194-.20257"/><path d="m421.95005 154.08024c-.0813-.0427-.14607-.0179-.15158.0592-.003.0772.0565.17226.1378.21773.0827.0441.14607.0179.15021-.0606.001-.0786-.0579-.17088-.13643-.21635"/><path d="m423.29915 152.71598c-.0675-.0386-.11575-.0276-.11162.0276.006.0565.062.13092.13092.17226.0689.04.11437.0276.11024-.0289-.007-.0565-.0634-.13092-.12954-.17088"/><path d="m422.31248 155.61675c-.0744-.0427-.13229-.011-.13781.073-.001.0868.0551.18741.12954.23288.0758.0427.13367.011.1378-.0758 0-.0868-.0551-.18603-.12953-.23013"/><path d="m422.72451 156.38707c-.0703-.0441-.12402-.011-.12678.0772 0 .0896.0551.19568.1254.24392.0717.0441.1254.011.12678-.0799-.001-.0909-.0551-.19568-.1254-.24116"/><path d="m421.90871 154.90293c-.0813-.0441-.14745-.0138-.15434.0717-.004.0868.0565.19017.13918.23703.0827.0441.14883.0124.15434-.0758.003-.0868-.0579-.18741-.13918-.23288"/><path d="m421.52837 154.27041c-.0813-.0413-.14745-.0152-.15709.0634-.006.0785.0524.17363.13366.2191.0827.0413.15021.0124.1571-.0675.004-.0785-.0537-.17088-.13367-.21497"/><path d="m421.15906 153.65442c-.0896-.0441-.16399-.0193-.17501.0593-.01.0813.0524.17914.14193.226.091.0455.16537.0179.17502-.0634.007-.0799-.0551-.17639-.14194-.22187"/><path d="m421.96383 153.73573c-.0744-.04-.13505-.0193-.13918.0496-.003.0689.0537.15572.12954.19843.0772.04.13504.0179.13918-.0524.001-.0689-.0537-.15434-.12954-.19568"/><path d="m421.70752 151.59563c-.0703-.0372-.12678-.0303-.12954.0165-.003.0469.0496.11438.12127.15296.0703.0372.1254.0289.12953-.0179 0-.0482-.0524-.113-.12126-.15159"/><path d="m422.98634 152.55199c-.0551-.0317-.0965-.022-.0937.0207.003.0441.0496.10473.10473.13781.0565.0317.0965.022.0937-.0234-.004-.0441-.0496-.10198-.10473-.13505"/><path d="m422.36484 153.29751c-.0634-.0344-.11162-.0193-.113.0358 0 .0551.0482.12678.11162.16261.0648.0344.113.0193.113-.0372-.001-.0551-.0496-.1254-.11162-.16123"/><path d="m422.33453 154.71276c-.0785-.0441-.13919-.0165-.14332.0634 0 .0827.0579.1819.13642.22875.0799.0441.14056.0165.14194-.0675 0-.0813-.0579-.17915-.13504-.22462"/><path d="m421.97761 153.405c-.0717-.0386-.13091-.0207-.13505.0441-.001.0648.0524.14745.12679.18741.073.04.13091.0207.13504-.0455 0-.0648-.0537-.14469-.12678-.18603"/><path d="m422.72727 153.82806c-.0703-.04-.12265-.0221-.12403.0455.001.0675.0579.15296.12954.19568.0717.0413.12402.0207.12264-.0482-.003-.0675-.0579-.15158-.12815-.19292"/><path d="m423.03181 157.24972c-.0565-.04-.0992-.011-.1006.0703.001.0813.0469.17639.10336.22049.0579.0413.0992.011.0992-.0717-.001-.0813-.0455-.17639-.10198-.21911"/><path d="m422.69833 152.89099c-.0661-.0372-.11438-.0248-.11438.0303.003.0551.0551.12678.11989.16536.0675.0372.11576.0234.113-.0317-.003-.0551-.0537-.12678-.11851-.16399"/><path d="m421.37817 151.42751c-.0634-.0331-.11576-.0276-.12127.0138-.004.0427.0441.10198.10749.13781.0648.0331.11713.0262.12127-.0165.001-.0413-.0441-.10059-.10749-.13505"/><path d="m422.02309 151.56256c-.0606-.0317-.10749-.0262-.10887.0138 0 .0413.0469.0992.10749.13229.062.0331.11024.0276.11024-.0138-.001-.0413-.0482-.0978-.10886-.13229"/><path d="m422.67628 152.37974c-.051-.0289-.0882-.0207-.0868.0179.001.0386.0427.0923.0937.12127.051.0276.0882.0193.0868-.0193-.003-.04-.0427-.0923-.0937-.11989"/><path d="m422.34968 153.62273c-.0648-.0358-.11437-.0193-.11713.04 0 .0593.0496.13367.11576.17226.0648.0358.11437.0179.11575-.0427-.001-.0593-.051-.13367-.11438-.1695"/><path d="m422.70797 153.50284c-.0565-.0317-.0978-.0179-.0978.0331.001.0496.0455.11576.10198.14883.0565.0317.0978.0165.0965-.0344-.003-.051-.0468-.11438-.1006-.14745"/><path d="m423.07316 154.04579c-.062-.0372-.10749-.0193-.10612.0427.003.062.0537.14056.11576.18052.0634.0372.10749.0193.10611-.0441-.004-.062-.0551-.14056-.11575-.17914"/><path d="m423.63264 153.20243c-.0482-.0289-.0799-.0193-.0758.0221.004.0427.0441.0992.0923.12953.0469.0289.0799.0193.0758-.0234-.005-.0427-.0469-.0978-.0923-.12815"/><path d="m422.02447 151.37239c-.0524-.0289-.0951-.0262-.0965.008.001.0344.0427.0854.0965.11576.0537.0289.0951.0234.0965-.011-.001-.0344-.0427-.0841-.0965-.113"/><path d="m422.02171 151.78167c-.0565-.0303-.1006-.0234-.10198.0152 0 .0386.0427.0923.0992.12402.0579.0303.1006.0248.10198-.0152-.001-.04-.0441-.0923-.0992-.12402"/><path d="m423.09244 156.72469c-.0648-.0441-.11299-.0124-.11437.073.003.0868.0537.19155.11851.2384.0661.0468.11438.0152.113-.0744-.003-.0868-.0537-.19017-.11714-.23703"/><path d="m421.71579 151.40409c-.0551-.0303-.0992-.0248-.10198.01-.001.0372.04.0882.0965.11989.0551.0289.1006.0234.10198-.0124.001-.0358-.0413-.0868-.0965-.11714"/><path d="m422.34831 152.9971c-.0551-.0289-.0979-.0179-.0979.0276 0 .0468.0427.10749.0979.13918.0551.0303.0978.0179.0978-.0289 0-.0469-.0427-.10611-.0978-.13781"/><path d="m422.34417 152.20611c-.0455-.0248-.0799-.0179-.0813.0152.001.0345.0372.0813.0841.10749.0469.0262.0813.0179.0813-.0165-.001-.0345-.0372-.0813-.0841-.10611"/><path d="m422.34004 154.34069c-.0537-.0317-.0978-.0138-.0992.0413-.001.0551.0413.12402.0965.15572.0565.0317.0992.0138.1006-.0427 0-.0551-.0427-.12265-.0978-.15434"/><path d="m422.73002 155.41969c-.062-.0386-.11162-.0138-.113.0593 0 .073.0496.16123.113.20257.0648.0386.113.0124.113-.062-.001-.073-.0496-.15986-.113-.19982"/><path d="m422.01758 152.03247c-.0427-.022-.0744-.0165-.0758.0138 0 .0303.0317.0717.073.0951.0427.0234.0758.0165.0772-.0138-.001-.0303-.0331-.0717-.0744-.0951"/><path d="m422.69833 156.90384c-.051-.0317-.0896-.007-.0923.0606 0 .0675.0386.14607.0896.18052.051.0317.0896.006.091-.062 0-.0675-.0386-.14607-.0882-.17914"/><path d="m423.02354 153.10045c-.0524-.0303-.091-.0193-.0896.0262.004.0455.0469.10473.0992.1378.0537.0303.091.0193.0882-.0276-.003-.0455-.0455-.10473-.0978-.13643"/><path d="m422.34142 151.55154c-.0482-.0262-.0841-.0234-.0841.008.001.0317.0386.0785.0868.10473.0496.0262.0854.0221.0841-.01-.001-.0317-.04-.0772-.0868-.10335"/><path d="m424.24035 153.34161c-.0386-.0248-.0634-.0179-.0592.0179.007.0358.04.0841.0786.11162.0386.0248.0634.0165.0579-.0207-.007-.0358-.04-.0841-.0772-.10886"/><path d="m423.42455 154.2773c-.0551-.0345-.0937-.0179-.091.0386.004.0579.0496.13092.10473.1695.0551.0345.0951.0179.091-.04-.004-.0593-.0496-.13229-.10473-.16812"/><path d="m423.25505 157.80921c-.0455-.0372-.0799-.011-.0799.0634.003.0758.04.16536.0854.20533.0469.04.0799.0124.0785-.0634-.003-.0758-.0386-.16537-.0841-.20533"/><path d="m422.29594 156.13076c-.0551-.0317-.0992-.006-.10335.0606-.001.0675.04.1447.0965.17915.0565.0331.0992.007.10197-.062.001-.0661-.04-.14332-.0951-.17777"/><path d="m423.058 153.73435c-.0386-.0234-.0675-.0138-.0661.0248.001.0372.0331.0854.073.11025.04.0234.0689.0124.0675-.0248-.003-.0386-.0345-.0868-.0744-.11024"/><path d="m422.3235 151.35586c-.0413-.0221-.0717-.0234-.0717.006.001.0289.0331.0648.0744.0868.0413.0234.0717.0234.0717-.006-.001-.0289-.0344-.0648-.0744-.0868"/><path d="m422.61564 151.53087c-.0345-.0193-.0592-.0193-.0579.006.003.0248.0289.0537.062.073.0331.0179.0593.0179.0579-.007-.003-.0234-.0289-.0538-.062-.0717"/><path d="m421.88804 155.42658c-.0496-.0276-.0909-.007-.0951.0482-.001.0551.0345.11851.0841.14745.0496.0262.0909.006.0937-.0496.003-.0551-.033-.11851-.0827-.14607"/><path d="m421.47876 154.7417c-.0496-.0234-.091-.006-.0951.0441-.004.0496.0303.10887.0799.13505.0496.0248.0909.007.0951-.0427.003-.051-.0317-.10886-.0799-.13642"/><path d="m421.0998 154.1078c-.0482-.0234-.0896-.007-.0965.0372-.004.0455.0289.1006.0772.12678.0496.0234.091.007.0965-.0386.004-.0455-.0289-.0992-.0772-.1254"/><path d="m422.59635 151.34483c-.0358-.0193-.062-.0207-.0606.004.003.0262.0317.0565.0675.0772.0358.0193.062.0207.0606-.006-.003-.0248-.0317-.0551-.0675-.0758"/><path d="m422.82649 151.35034c-.0317-.0165-.0537-.0179-.0537.004.003.0221.0276.0482.0579.0661.0317.0165.0551.0179.0537-.004-.003-.0221-.0276-.0482-.0579-.0662"/><path d="m423.77182 154.54326c-.0345-.0234-.0593-.0124-.0565.0262.004.0386.0331.0882.0675.113.0358.022.0593.0124.0565-.0276-.003-.0386-.0317-.0868-.0675-.11162"/><path d="m423.45074 154.63145c-.0427-.0276-.0758-.0138-.073.0344.003.0482.0386.10887.0841.13919.0441.0303.0758.0152.073-.0345-.003-.0482-.04-.10886-.0841-.13918"/><path d="m423.09244 154.40821c-.0413-.0262-.0717-.0138-.0717.0303.003.0427.0358.0965.0772.12264.0413.0262.0717.0124.0703-.0317-.003-.0427-.0358-.0965-.0758-.12127"/><path d="m422.72451 154.19048c-.0386-.0221-.0675-.011-.0675.0276 0 .0372.0303.0854.0689.10887.0386.0221.0661.01.0661-.0276 0-.0386-.0303-.0854-.0675-.10887"/><path d="m422.34831 153.97275c-.04-.022-.0703-.01-.0717.0262.001.0372.0303.0841.0703.10611.0386.0221.0689.011.0689-.0262s-.0289-.0841-.0675-.10611"/><path d="m423.79111 154.8795c-.0358-.0248-.0593-.0124-.0579.0289.004.04.0345.0923.0689.11851.0345.0248.0592.0124.0565-.0289-.003-.0413-.0317-.0937-.0675-.11851"/><path d="m424.14664 155.14822c-.0317-.0234-.0524-.0124-.0496.0262.004.0386.0303.0868.062.11162.0317.0248.0524.0138.0496-.0262-.004-.0386-.0317-.0882-.062-.11162"/><path d="m422.3359 151.75962c-.0386-.0221-.0689-.0207-.0689.008.001.0303.0317.0661.0717.0882.0386.0207.0689.0193.0689-.011-.001-.0289-.0317-.0648-.0717-.0854"/><path d="m419.98084 152.7022c-.0923-.0427-.17639-.0221-.19706.051-.0165.0744.0427.16674.13642.21221.0951.0441.17915.0207.19706-.0537.0138-.0744-.0441-.16399-.13642-.20946"/><path d="m419.57983 152.4762c-.11714-.0537-.22738-.0276-.25632.0606-.0248.0923.0469.20671.16675.26459.12126.0537.23151.0248.25631-.0675.022-.0909-.051-.20119-.16674-.25769"/><path d="m416.89127 149.63744c.0634.0221.0937.0606.073.0909-.0248.0289-.091.0358-.15572.0152-.0648-.0207-.0965-.0592-.073-.0909.0248-.0289.0923-.0358.15571-.0152"/><path d="m417.335 149.77525c.0744.0289.113.0785.0882.11713-.0262.0358-.10473.0427-.1819.0152-.0772-.0289-.11576-.0786-.0896-.11714.0276-.0358.10749-.0427.18328-.0152"/><path d="m417.16688 153.28511c.0703.0289.10473.0923.0799.15158-.0275.0579-.10336.0813-.17777.0551-.0717-.0289-.10611-.0951-.0785-.15296.0276-.0579.10473-.0799.17639-.0537"/><path d="m417.80216 152.96678c.0951.04.14607.12816.11575.20671-.0331.0772-.13367.10748-.23289.0689-.0992-.0413-.14883-.13229-.11575-.21084.0345-.0758.13505-.10335.23289-.0648"/><path d="m418.43881 152.78213c.10198.0455.1571.13918.13091.22048-.0317.0799-.13229.10887-.23702.0661-.10335-.0455-.15985-.14194-.12953-.22325.0331-.0785.13504-.10473.23564-.0634"/><path d="m419.63081 150.74676c.0854.0427.14056.11576.1254.16675-.0152.0524-.0951.0592-.18327.0179-.0882-.0441-.14332-.11713-.12678-.1695.0193-.0496.0978-.0551.18465-.0152"/><path d="m417.61337 150.13629c.0799.0317.12264.0868.0992.12954-.0276.0413-.10886.051-.19154.0221-.0813-.0317-.12403-.0882-.0992-.13092.0289-.0413.11162-.0496.19155-.0207"/><path d="m418.02402 150.29339c.0813.0331.12678.0937.10335.13918-.0248.0441-.10611.0537-.19017.0207-.0841-.0344-.12953-.0951-.10472-.14056.0248-.0441.10886-.0524.19154-.0193"/><path d="m418.70615 150.8446c.0896.0413.14056.113.11989.16812-.0234.0538-.11162.0648-.20257.0248-.0923-.0413-.14332-.113-.12127-.1695.0262-.051.11438-.062.20395-.0234"/><path d="m418.4209 150.44773c.0868.0386.13642.10611.11575.15709-.0248.0482-.11162.0579-.20257.0207-.0896-.04-.14056-.10748-.11575-.15847.0262-.0482.11437-.0565.20257-.0193"/><path d="m418.81639 150.61861c.0923.0427.14607.11575.12678.17087-.0234.0538-.11437.0634-.20946.0221-.0951-.0441-.15021-.11851-.12678-.17363.0262-.0524.11576-.0606.20946-.0193"/><path d="m419.09751 151.0141c.0965.0455.15434.1254.13505.18604-.0234.0606-.11575.0744-.21497.0289-.0992-.0469-.1571-.12816-.13505-.19017.0248-.0579.11851-.0689.21497-.0248"/><path d="m419.02999 152.62089c.0992.0469.1571.14056.13505.21911-.0248.0786-.12265.10473-.226.0606-.10198-.0469-.15985-.14332-.13505-.22187.0289-.0772.1254-.10059.226-.0579"/><path d="m419.13196 152.29154c.10749.051.17088.14883.14745.23014-.0262.0813-.12953.10748-.23977.0579-.11025-.051-.17364-.15296-.14883-.23426.0303-.0786.13367-.10198.24115-.0538"/><path d="m419.22429 151.98149c.11438.0551.18328.15847.15985.24253-.0262.0841-.1378.10886-.25631.0565-.11851-.0565-.18879-.16399-.16123-.24805.0303-.0813.14194-.10335.25769-.051"/><path d="m419.31662 151.6921c.11162.0524.17915.15158.1571.23013-.0248.0785-.13091.0992-.24667.0482-.11438-.0551-.1819-.1571-.1571-.23564.0289-.0772.13505-.0951.24667-.0427"/><path d="m419.39655 151.43992c.0965.0469.15709.13229.13918.19843-.022.0648-.11438.0813-.2136.0345-.10059-.0469-.15985-.13505-.13918-.2012.0234-.0634.11576-.0772.2136-.0317"/><path d="m419.4875 151.18498c.10473.0524.1695.14194.15158.21084-.022.0689-.12127.0813-.22875.0317-.10887-.0524-.17501-.14469-.15296-.21359.0262-.0661.12402-.0786.23013-.0289"/><path d="m419.56605 150.95347c.10197.051.16536.13642.14745.20119-.0207.0634-.11438.0744-.22049.0262-.10473-.051-.1695-.14056-.14883-.20533.0234-.0606.11851-.0703.22187-.022"/><path d="m420.37771 150.9011c.0675.0345.11438.0937.10611.13505-.01.0413-.0689.0469-.13918.0124-.0689-.0358-.11438-.0951-.10611-.1378.011-.04.0717-.0455.13918-.01"/><path d="m420.43283 150.71369c.0606.0331.10336.0854.0965.12265-.008.0358-.062.04-.12541.008-.0634-.0331-.1061-.0868-.0978-.12402.01-.0358.0634-.0386.12678-.007"/><path d="m420.4852 150.54006c.0537.0289.0909.0744.0841.10473-.007.0303-.0524.0317-.10749.004-.0551-.0289-.091-.0744-.0854-.10611.008-.0289.0551-.0303.10887-.003"/><path d="m420.53343 150.37194c.0482.0262.0827.0634.0772.0937-.007.0303-.0482.0276-.0965.001-.0496-.0262-.0841-.0634-.0772-.0937.007-.0303.0482-.0262.0965-.001"/><path d="m420.58028 150.22035c.0441.0248.0758.0579.0717.0854-.007.0276-.0441.0234-.091 0-.0455-.0248-.0772-.0593-.0717-.0854.008-.0276.0455-.0234.091 0"/><path d="m420.62162 150.07704c.04.0207.0675.0496.0634.0744-.005.0234-.0386.0193-.0785-.001-.04-.0234-.0689-.0524-.0634-.0758.006-.0234.0386-.0193.0785.003"/><path d="m420.65883 149.95439c.0358.0207.062.0469.0592.0689-.005.0207-.0358.0165-.073-.004-.0386-.0207-.0634-.0469-.0593-.0675.004-.022.0358-.0165.073.003"/><path d="m420.69604 149.83037c.0331.0179.0565.0413.0524.0606-.004.0179-.0303.0124-.0634-.004-.0317-.0193-.0565-.0413-.0524-.0606.004-.0179.0317-.0124.0634.004"/><path d="m419.84579 153.27133c-.073-.0344-.11713-.10749-.10335-.16812.0152-.0579.0813-.0758.15296-.0427.0717.0345.11575.10611.10473.16536-.0152.0606-.0813.0799-.15434.0455"/><path d="m419.76862 153.65442c-.0703-.0331-.113-.10473-.0992-.16398.0165-.0593.0786-.0799.14883-.0482.0675.0331.11024.10335.0978.1626-.0152.0593-.0786.0813-.14745.0496"/><path d="m419.6942 154.05957c-.0689-.0317-.11024-.10473-.0965-.16675.0165-.0606.0799-.0827.14883-.0524.0661.0317.10749.10335.0951.16536-.0152.0606-.0786.0854-.14745.0538"/><path d="m419.62668 154.49916c-.0648-.0289-.10198-.0992-.0882-.15985.0152-.0593.0758-.0841.14056-.0551.062.0289.0992.0978.0868.15847-.0138.0606-.0744.0854-.13918.0565"/><path d="m419.53848 154.97734c-.0606-.0276-.0951-.0951-.0813-.15572.0165-.0579.073-.0827.13229-.0565.0593.0276.0937.0937.0813.15296-.0152.0579-.0717.0841-.1323.0593"/><path d="m419.44478 155.52029c-.0565-.0248-.0868-.0896-.073-.14883.0152-.0579.0689-.0841.12541-.0606.0551.0248.0868.0882.0744.14745-.0152.0592-.0703.0854-.12678.062"/><path d="m419.19535 150.79499c.0882.0427.14194.11576.12541.17088-.0207.0524-.10474.0634-.19569.0207-.0923-.0427-.14607-.11713-.12678-.17225.0234-.0524.10749-.0606.19706-.0193"/><path d="m418.99554 151.27317c.0799.0372.12815.10611.11024.15848-.0193.0524-.0965.0648-.17914.0289-.0827-.0386-.13092-.10887-.11163-.16123.0221-.051.0992-.062.18053-.0262"/><path d="m418.90321 151.52535c.0923.0427.14469.12265.1254.18604-.0234.062-.113.0786-.20808.0372-.0951-.0441-.14883-.1254-.12678-.18879.0262-.0606.11575-.0744.20946-.0345"/><path d="m418.56421 152.4321c.091.0413.14194.12403.11851.19431-.0248.0703-.11713.0923-.21083.0537-.0937-.0413-.1447-.12678-.1199-.19706.0276-.0689.1199-.0896.21222-.051"/><path d="m417.74566 149.91856c.0854.0358.13091.0951.10473.13918-.0276.0441-.11576.051-.20257.0152-.0882-.0344-.13367-.0951-.10611-.13918.0303-.0427.11851-.0496.20395-.0152"/><path d="m417.63404 153.39397c.0896.0386.13504.12403.10473.19982-.0317.0772-.12678.10886-.21911.073-.0923-.0386-.13781-.12541-.10611-.20395.0344-.0744.12953-.10336.22049-.0689"/><path d="m416.99738 153.64891c.0909.0358.1323.12127.0992.19982-.0372.0786-.13642.113-.23151.0786-.0923-.0358-.13505-.12403-.0978-.20258.0386-.0772.1378-.10886.23013-.0758"/><path d="m418.29412 153.179c.0937.0413.14469.13091.11851.21084-.0303.0786-.1254.10887-.22324.0689-.0951-.0427-.14608-.13505-.11851-.21497.0317-.0758.12815-.10473.22324-.0648"/><path d="m418.90734 153.00399c.0882.04.13918.12678.11852.19981-.0248.073-.11163.1006-.20258.0606-.0923-.0413-.14331-.12954-.11988-.20395.0262-.0717.11299-.0965.20394-.0565"/><path d="m419.47372 152.83173c.0923.0441.1502.13505.13229.21084-.0221.0772-.11162.10336-.20808.0593-.0965-.0455-.15297-.1378-.13229-.21497.0234-.0744.11299-.0978.20808-.0551"/><path d="m418.67997 152.1124c.0841.04.13367.11575.11162.17777-.022.062-.10611.0813-.1943.0441-.0868-.0386-.13505-.11713-.113-.17914.0262-.0606.11024-.0786.19568-.0427"/><path d="m419.69558 150.54833c.0744.0386.12127.10059.11025.14469-.0138.0427-.0827.0482-.16123.011-.0758-.0386-.12403-.10197-.11025-.14607.0152-.0413.0854-.0455.16123-.01"/><path d="m418.14529 150.10322c.0675.0303.10335.0799.0854.11575-.0207.0358-.0896.04-.15848.011-.0689-.0303-.10473-.0799-.0854-.11713.022-.0345.0909-.0386.15847-.01"/><path d="m418.48291 151.36688c.073.0331.11575.0923.0965.14056-.0207.0482-.0937.0606-.16812.0303-.0758-.0344-.11713-.0951-.0978-.1447.0221-.0455.0965-.0579.1695-.0262"/><path d="m417.95512 152.5892c.0923.04.14194.12265.11438.1943-.0303.073-.12541.0978-.22187.0606-.0951-.04-.14331-.1254-.11437-.19844.0331-.0689.12815-.0937.22186-.0565"/><path d="m418.78608 151.8299c.0827.0372.13091.11024.11162.16812-.0234.0579-.10335.0744-.18741.0372-.0841-.0372-.1323-.11162-.11163-.1695.0248-.0565.10474-.0717.18742-.0358"/><path d="m417.9248 151.45507c.0854.0358.1323.10474.10749.16261-.0275.0565-.11575.073-.20395.0386-.0882-.0372-.13505-.10749-.10749-.16399.0289-.0551.11714-.0717.20395-.0372"/><path d="m416.44341 153.92176c.0648.0234.0923.0841.0648.14056-.0303.0565-.10335.0827-.1695.0606-.0648-.0248-.0923-.0854-.0634-.14332.0317-.0551.10473-.0799.16812-.0579"/><path d="m418.29825 150.68062c.0786.0344.12265.0951.10198.14193-.0221.0455-.1006.0551-.18053.0234-.0799-.0344-.12402-.0965-.10335-.14331.0248-.0441.10335-.0538.1819-.0221"/><path d="m420.04285 150.7316c.0661.0345.11024.091.10059.13092-.011.04-.0703.0441-.13918.011-.0675-.0344-.11162-.0923-.10059-.13229.011-.0386.0717-.0427.13918-.01"/><path d="m419.06582 150.06739c.051.0207.0841.0565.0786.0841-.008.0262-.0537.0331-.10473.0138-.0524-.0207-.0854-.0565-.0786-.0841.008-.0276.0537-.0331.10473-.0138"/><path d="m418.51736 150.25894c.0593.0262.0937.0717.0786.10473-.0165.0317-.0744.0372-.13505.011-.062-.0262-.0951-.073-.0799-.10473.0165-.0331.0758-.0372.13643-.011"/><path d="m418.35475 151.65489c.0758.0331.11851.0978.0978.15021-.0207.0496-.0978.0648-.17501.0331-.0772-.0331-.11989-.0992-.0978-.15021.0234-.051.0992-.0648.17501-.0331"/><path d="m418.05847 151.20014c.0661.0289.10473.0827.0854.1254-.0207.0427-.0896.0537-.15847.0276-.0689-.0303-.10611-.0841-.0854-.12678.0207-.0413.0896-.0524.15847-.0262"/><path d="m417.47281 151.29798c.0799.0303.11989.0923.0951.14194-.0275.051-.11024.0661-.19293.0372-.0799-.0317-.12264-.0937-.0965-.14469.0289-.0482.113-.0634.19431-.0344"/><path d="m417.1972 150.00676c.0634.022.0965.0648.0758.0965-.0234.0331-.0882.0413-.15296.0193-.0648-.0234-.0978-.0634-.0772-.0978.0234-.0303.0909-.0386.15434-.0179"/><path d="m419.15263 149.89376c.0551.0221.091.0593.0841.0882-.007.0289-.0565.0344-.11301.0124-.0551-.0221-.0909-.0606-.084-.0896.008-.0276.0579-.0331.11299-.011"/><path d="m419.34694 150.38847c.0675.0331.10886.0882.0965.1254-.0138.0386-.0772.0427-.14745.01-.0675-.0331-.10886-.0882-.0965-.12678.0165-.0372.0799-.04.14745-.008"/><path d="m419.42549 150.20106c.0592.0303.0978.0785.0882.11162-.01.0344-.0648.0358-.1254.006-.0593-.0289-.0978-.0785-.0882-.11299.0124-.0317.0661-.0331.12541-.004"/><path d="m418.58626 151.12297c.0634.0289.0992.0813.0841.12126-.0179.0414-.0799.051-.14469.0221-.0661-.0289-.10198-.0813-.0854-.12264.0179-.0386.0813-.0482.14607-.0207"/><path d="m418.90045 150.43946c.0524.0248.0841.0661.073.0965-.0138.0289-.0648.0331-.11851.008-.0524-.0248-.0841-.0661-.0717-.0965.0138-.0289.0648-.0331.11713-.008"/><path d="m418.09292 152.27225c.0661.0276.1006.0854.0827.13367-.0207.0482-.0882.0648-.15434.0372-.0675-.0289-.10197-.0868-.0827-.13505.022-.0482.0882-.0634.15434-.0358"/><path d="m419.25737 150.61309c.0469.0234.0758.0606.0675.0882-.011.0276-.0551.0303-.10335.01-.0469-.0234-.0758-.062-.0661-.0896.011-.0262.0551-.0289.10198-.008"/><path d="m419.74657 150.37331c.0524.0276.0868.0703.0799.1006-.008.0303-.0551.0331-.11025.007-.0524-.0289-.0868-.073-.0799-.10335.01-.0289.0565-.0317.11024-.004"/><path d="m417.88071 150.52765c.0648.0262.10059.0758.0827.113-.022.0358-.0882.0441-.15434.0193-.0675-.0276-.10336-.0758-.0827-.11438.0207-.0358.0882-.0441.15434-.0179"/><path d="m416.45168 149.49413c.0537.0165.0786.0468.0579.0716-.0207.0234-.0786.0289-.13367.0138-.0537-.0165-.0786-.0482-.0579-.0716.022-.0234.0813-.0303.13367-.0138"/><path d="m417.00841 151.13813c.0744.0262.11162.0799.0868.1254-.0275.0441-.10611.0592-.18328.0344-.0758-.0262-.11299-.0813-.0868-.12678.0289-.0441.10749-.0579.18328-.0331"/><path d="m416.28494 154.33793c.0593.0221.0827.0799.0551.13505-.0303.0551-.0978.0813-.15848.0606-.0606-.0234-.0827-.0827-.0537-.1378.0289-.0538.0978-.0786.1571-.0579"/><path d="m415.81916 154.58047c.0524.0179.073.0661.0469.11437-.0276.0469-.0896.0717-.14331.0538-.0537-.0179-.0744-.0689-.0468-.11576.0275-.0469.0896-.0703.14331-.0524"/><path d="m417.46867 153.80739c.0662.0289.1006.0937.0772.15571-.0262.0593-.0992.0868-.16812.0593-.0689-.0289-.10197-.0965-.0772-.1571.0276-.0593.0992-.0841.16812-.0579"/><path d="m416.83064 154.08024c.0675.0276.1006.0937.0772.15434-.0262.0606-.0978.0868-.16812.0606-.0675-.0289-.1006-.0965-.0758-.1571.0262-.0593.0992-.0841.16674-.0579"/><path d="m417.61474 151.04718c.051.0193.0772.0579.062.0882-.0179.0303-.0689.04-.11989.0207-.0524-.0207-.0786-.0593-.062-.0896.0165-.0303.0689-.0386.11988-.0193"/><path d="m418.92526 149.63331c.0441.0179.0717.0441.0648.0689-.008.022-.0469.0234-.0896.006-.0441-.0179-.0716-.0441-.0648-.0675.01-.0234.0482-.0234.0896-.007"/><path d="m418.14116 153.59655c.0579.0248.0882.0813.0703.13367-.0193.0496-.0786.0703-.13643.0469-.0593-.0262-.0896-.0841-.0703-.13505.0193-.0496.0786-.0689.13643-.0455"/><path d="m418.76954 153.38433c.0537.0248.0841.0786.0703.1254-.0152.0455-.0689.0648-.12402.0413-.0551-.0262-.0854-.0799-.0717-.12816.0165-.0455.0703-.062.1254-.0386"/><path d="m419.35107 153.25479c.0524.0234.0827.0744.0717.11851-.0124.0427-.062.0593-.11438.0358-.0524-.0234-.0827-.0772-.0703-.11989.0124-.0427.0606-.0579.113-.0344"/><path d="m416.50818 151.00859c.0496.0152.073.0496.0551.0786-.0193.0289-.073.0386-.12402.0234-.051-.0152-.0758-.0496-.0565-.0786.0193-.0289.0744-.04.1254-.0234"/><path d="m416.83753 151.37101c.0606.022.0909.0661.0689.10474-.0234.0372-.0868.051-.1502.0303-.0606-.0207-.091-.0661-.0689-.10335.0234-.0372.0896-.051.15021-.0317"/><path d="m417.31157 151.58185c.0537.0207.0799.062.0634.0978-.0193.0345-.0744.0455-.12953.0262-.0537-.0207-.0813-.062-.0634-.0978.0193-.0331.0758-.0455.12953-.0262"/><path d="m417.77873 151.76927c.0469.0193.0717.0579.0579.0909-.0152.0303-.0634.0413-.11162.0234-.0482-.0207-.073-.0593-.0579-.0923.0152-.0303.0634-.04.11162-.0221"/><path d="m418.22522 151.95806c.0455.0193.0703.0593.0579.0923-.0138.0317-.0606.0413-.10749.0221-.0468-.0193-.0716-.0593-.0592-.0923.0152-.0317.062-.0413.10887-.0221"/><path d="m419.23118 149.75044c.0413.0179.0703.0441.0648.0675-.007.0221-.0427.0234-.0854.007-.0413-.0165-.0703-.0427-.0634-.0675.007-.0221.0427-.0221.0841-.007"/><path d="m419.0107 149.49688c.0386.0152.0634.04.0565.0606-.006.0193-.0386.0207-.0758.004-.0372-.0152-.062-.04-.0565-.0606.007-.0207.0386-.0207.0758-.004"/><path d="m418.78057 149.27502c.0331.0138.0565.0344.0524.0537-.007.0179-.0358.0193-.0689.006-.0344-.0138-.0579-.0345-.0537-.0538.007-.0193.0358-.0193.0703-.006"/><path d="m419.48612 150.04948c.0427.022.0717.0551.0648.0813-.01.0262-.0469.0248-.0923.003-.0441-.0221-.073-.0551-.0661-.0827.01-.0248.0482-.0234.0937-.001"/><path d="m416.34419 151.22908c.0524.0165.0758.0524.0565.0827-.0207.0303-.0758.0427-.12816.0276-.0524-.0165-.0772-.0524-.0565-.0827s.0758-.0427.12815-.0276"/><path d="m415.88393 151.10367c.0482.0124.0703.0427.0524.0717-.022.0276-.0744.0386-.1254.0276-.0496-.0138-.0703-.0441-.051-.0717.0207-.0276.0744-.0386.12402-.0276"/><path d="m420.13518 151.16706c.0441.0221.073.0593.0661.0882-.005.0276-.0455.0317-.0896.011-.0441-.0234-.073-.062-.0675-.0896.008-.0276.0468-.0317.0909-.01m.36793.19154c.0386.0207.0634.0524.0593.0799-.005.0262-.0386.0289-.0772.01-.0386-.0207-.0648-.0537-.0606-.0799.007-.0276.04-.0289.0786-.01m.33762.17363c.0372.0193.0648.0524.0606.0799-.004.0276-.0358.0303-.0744.011-.0386-.0207-.0661-.0538-.062-.0813.005-.0276.0372-.0289.0758-.01m.33349.16674c.0427.0234.073.062.0689.0923-.003.0289-.0372.0331-.0813.0124-.0413-.0234-.073-.0634-.0689-.0923.004-.0289.0386-.0331.0813-.0124m-1.09968-.2825c.04.0207.0675.0551.0606.0827-.007.0289-.0427.0331-.0841.0124s-.0675-.0551-.062-.0841c.008-.0276.0455-.0317.0854-.011m1.08314.55122c.0386.0207.0661.0551.0648.0854-.004.0303-.0372.0345-.0758.0138-.04-.0207-.0675-.0565-.0648-.0868.004-.0289.0358-.0331.0758-.0124m-1.14377-.30455c.0413.0221.0689.0593.062.0882-.007.0289-.0455.0345-.0882.0152-.0414-.0221-.0689-.0593-.062-.0896.008-.0276.0455-.0331.0882-.0138m1.11345.56224c.04.022.0689.0606.0661.0909-.004.0289-.0386.0372-.0786.0165-.04-.022-.0689-.062-.0661-.0909.006-.0303.0386-.0358.0786-.0165m-1.1796-.29628c.0427.0207.0717.0606.0648.0909-.008.0303-.0482.0386-.0923.0179-.0427-.022-.0703-.062-.062-.0923.008-.0303.0469-.0372.0896-.0165m1.14653.57326c.0413.0221.0703.062.0675.0951-.004.0317-.04.04-.0813.0193-.0413-.0221-.0703-.0634-.0661-.0965.004-.0303.0386-.0386.0799-.0179m-1.13826-.20533c-.01.0358-.0551.0455-.10473.0221-.0496-.0248-.0813-.0717-.0717-.10887.01-.0344.0538-.0441.10336-.0207.0496.0234.0799.0703.073.10749m.339.1006c.0427.022.0717.0634.0661.0965-.008.0331-.0455.0413-.0896.0207-.0427-.0221-.0717-.0634-.0661-.0965.008-.0331.0469-.0413.0896-.0207m.37896.18879c.0413.0207.0703.0634.0661.0965-.006.0331-.0427.0427-.0854.0221-.0427-.0221-.073-.0661-.0675-.0978.007-.0331.0441-.0413.0868-.0207m.37345.18052c.0469.0248.0785.073.0758.11162-.005.0372-.0455.0482-.0937.0234-.0469-.0248-.0799-.073-.0758-.11024.005-.0386.0469-.0482.0937-.0248m-1.25402-1.83279c-.0138.0524.0317.12403.11025.17639-.0923-.0317-.17088-.0165-.19017.0441-.0138.0524.022.11989.0896.17777-.0799-.0152-.14194.006-.15985.0606-.0179.0648.0331.15021.12264.21084-.0978-.0303-.18052-.008-.20257.0606-.0165.0579.0165.12816.0799.18742-.0786-.01-.14056.0179-.15848.0786-.0193.0661.0207.14745.0978.21221-.091-.0152-.16398.0138-.18603.0841-.0262.0951.051.2136.17914.27561.10473.0482.2012.0386.24943-.0165.0124.0841.0827.17363.18603.22324.0882.0427.16812.04.21773.003.0276.0744.0923.14745.17777.19017.0882.0427.16536.04.2136.001.0276.0758.0923.1502.17776.19292.0882.0427.16537.04.20947-.003.0289.0786.0951.15572.18189.20119.12127.0606.22049.0303.23014-.0703.005-.0744-.0413-.16398-.11576-.23013.0799.0152.13643-.0165.14332-.0882.005-.0661-.0345-.14056-.0992-.20395.0703.008.11713-.0207.12402-.0827.006-.073-.0537-.16398-.14056-.22737.091.0303.1571.007.16399-.0634.004-.0606-.0386-.13229-.10611-.19155.0717.0138.11989-.008.12678-.0661.003-.0648-.0551-.14883-.13918-.20671.0785.0276.13504.011.14194-.0441.003-.0648-.0648-.15158-.1571-.20119-.0813-.0427-.14883-.0413-.17226.001-.0124-.0606-.073-.12953-.15296-.17225-.0772-.04-.14469-.04-.17363-.006-.0138-.0634-.0772-.13643-.16536-.18328-.0896-.0455-.16675-.0441-.19844-.003-.0124-.0579-.0703-.12265-.15021-.16399-.0965-.0482-.18052-.0455-.19706.0152.0138-.0606-.0551-.14195-.15158-.19294-.0992-.0482-.18741-.04-.20671.0193"/></g></g><use fill="#262326" height="100%" transform="matrix(.35277778 0 0 .35277778 113.14461 143.263901)" width="100%" x="109.08317" xlink:href="#d" y="551.44238"/></svg>