<?xml version="1.0" encoding="UTF-8" standalone="no"?>
<!-- Created with Inkscape (http://www.inkscape.org/) -->

<svg
   xmlns:dc="http://purl.org/dc/elements/1.1/"
   xmlns:cc="http://creativecommons.org/ns#"
   xmlns:rdf="http://www.w3.org/1999/02/22-rdf-syntax-ns#"
   xmlns:svg="http://www.w3.org/2000/svg"
   xmlns="http://www.w3.org/2000/svg"
   xmlns:sodipodi="http://sodipodi.sourceforge.net/DTD/sodipodi-0.dtd"
   xmlns:inkscape="http://www.inkscape.org/namespaces/inkscape"
   width="154.472cm"
   height="84.336998cm"
   viewBox="0 0 1544.72 843.36997"
   version="1.1"
   id="svg8"
   inkscape:version="0.92.2 (5c3e80d, 2017-08-06)"
   sodipodi:docname="66.svg">
  <defs
     id="defs2" />
  <sodipodi:namedview
     id="base"
     pagecolor="#ffffff"
     bordercolor="#666666"
     borderopacity="1.0"
     inkscape:pageopacity="0.0"
     inkscape:pageshadow="2"
     inkscape:zoom="0.0875"
     inkscape:cx="3420.3809"
     inkscape:cy="996.56728"
     inkscape:document-units="cm"
     inkscape:current-layer="layer1"
     showgrid="false"
     units="cm"
     fit-margin-top="0"
     fit-margin-left="0"
     fit-margin-right="0"
     fit-margin-bottom="0"
     showguides="false"
     inkscape:window-width="1920"
     inkscape:window-height="1057"
     inkscape:window-x="-8"
     inkscape:window-y="-8"
     inkscape:window-maximized="1" />
  <metadata
     id="metadata5">
    <rdf:RDF>
      <cc:Work
         rdf:about="">
        <dc:format>image/svg+xml</dc:format>
        <dc:type
           rdf:resource="http://purl.org/dc/dcmitype/StillImage" />
        <dc:title></dc:title>
      </cc:Work>
    </rdf:RDF>
  </metadata>
  <g
     inkscape:label="Layer 1"
     inkscape:groupmode="layer"
     id="layer1"
     transform="translate(-25,571.36996)">
    <path
       sodipodi:nodetypes="ccccccc"
       inkscape:connector-curvature="0"
       id="path3210"
       d="M 193.11572,-569.37346 1507.2619,43.4231 1567.7231,209.53882 1401.6075,270.00001 87.46114,-342.7965 27,-508.91211 Z"
       style="opacity:0.97000002;fill:#000000;fill-opacity:1;stroke:none;stroke-width:141.92835999;stroke-miterlimit:4;stroke-dasharray:none;stroke-opacity:1" />
    <path
       sodipodi:nodetypes="ccccccc"
       inkscape:connector-curvature="0"
       style="opacity:0.97000002;fill:#facd00;fill-opacity:1;stroke:none;stroke-width:125.06381989;stroke-miterlimit:4;stroke-dasharray:none;stroke-opacity:1"
       d="M 1487.3072,61.7024 191.93958,-542.33738 59.047,-493.96847 107.41597,-361.0759 1402.7835,242.96389 1535.6762,194.59506 Z"
       id="path3212" />
    <path
       sodipodi:nodetypes="ccccccc"
       inkscape:connector-curvature="0"
       id="path3214"
       d="m 87.461061,43.42311 1314.146339,-612.7965 166.1157,60.4612 -60.4611,166.11566 L 193.11562,270.00001 27,209.53881 Z"
       style="opacity:0.97000002;fill:#000000;fill-opacity:1;stroke:none;stroke-width:141.92835999;stroke-miterlimit:4;stroke-dasharray:none;stroke-opacity:1" />
    <path
       sodipodi:nodetypes="ccccccc"
       inkscape:connector-curvature="0"
       style="opacity:0.97000002;fill:#facd00;fill-opacity:1;stroke:none;stroke-width:125.06381989;stroke-miterlimit:4;stroke-dasharray:none;stroke-opacity:1"
       d="M 1402.7835,-542.3374 107.41588,61.70241 l -48.368969,132.8926 132.892579,48.3689 1295.36761,-604.03983 48.3691,-132.89256 z"
       id="path3216" />
    <path
       inkscape:connector-curvature="0"
       id="path3218"
       style="fill:#000000;fill-opacity:1;fill-rule:nonzero;stroke:none;stroke-width:6.2698369"
       d="m 270.45562,175.57371 20.20777,-9.4296 -26.6316,-57.2039 38.12139,-17.7796 -9.75023,-20.9095 -38.10859,17.786 -14.90631,-31.9903 60.68036,-28.3126 -9.55279,-20.5097004 -80.896,37.7388004 z" />
    <path
       inkscape:connector-curvature="0"
       id="path3220"
       style="fill:#000000;fill-opacity:1;fill-rule:nonzero;stroke:none;stroke-width:6.2698369"
       d="m 371.74661,128.31531 80.896,-37.7389 -9.92384,-21.3054 -60.80213,28.3697 -16.73903,-35.9206 38.36574,-17.9053 -9.72239,-20.8734 -38.36206,17.9066 -14.91457,-32.0080999 56.62991,-26.4136001 -9.55421,-20.51507 -76.72915,35.7958696 z" />
    <path
       inkscape:connector-curvature="0"
       id="path3222"
       style="fill:#000000;fill-opacity:1;fill-rule:nonzero;stroke:none;stroke-width:6.2698369"
       d="m 482.48342,-18.28219 c -0.5211,0.2452 -9.04141,4.2128 -25.57513,11.9368996 L 441.99996,-38.34703 468.64715,-50.77301 c 5.02839,-2.34497 10.0131,-2.92781 14.96618,-1.76101 4.97816,1.21042 8.58952,4.26402 10.89673,9.24236 2.45153,5.22893 2.34437,10.25731 -0.27016,15.07259 -2.42658,4.31993 -6.3391,7.63648 -11.75632,9.93748 m 56.70821,68.4622 22.55302,-10.5265 -51.4862,-50.1979 c 4.76515,-5.9378 7.58064,-12.77776 8.47111,-20.49599 0.91593,-7.73696 -0.26876,-15.04757 -3.46003,-21.90688 -5.044,-10.81689 -12.90908,-17.90742 -23.61768,-21.24918 -10.7653,-3.35475 -21.56187,-2.51502 -32.42768,2.55063 l -47.04572,22.11427 60.84944,130.58435 20.22063,-9.4224 -26.46889,-56.7935 24.77866,-11.5734004 z" />
    <path
       inkscape:connector-curvature="0"
       id="path3224"
       style="fill:#000000;fill-opacity:1;fill-rule:nonzero;stroke:none;stroke-width:6.2698369"
       d="m 591.59894,-69.19611 c -0.5211,0.2452 -9.04734,4.21333 -25.58115,11.93751 l -14.90208,-31.99546 26.63456,-12.43248 c 5.02855,-2.34465 10.01902,-2.92862 14.97886,-1.75536 4.97188,1.20335 8.58308,4.26369 10.89663,9.23575 2.44487,5.24164 2.33825,10.25743 -0.27649,15.07298 -2.43292,4.33211 -6.34541,7.62984 -11.75007,9.93692 M 648.29498,-0.72119044 670.85411,-11.25379 619.37423,-61.46462 c 4.7529,-5.92477 7.57458,-12.76471 8.46507,-20.48313 0.91578,-7.74297 -0.26874,-15.05368 -3.46632,-21.90689 -5.03418,-10.82187 -12.89665,-17.91342 -23.6117,-21.25551 -10.76504,-3.35467 -21.55554,-2.50855 -32.42137,2.56298 l -47.05595,22.09944 60.85319,130.59234 20.22046,-9.4355 -26.46171,-56.79706 24.77863,-11.56109 z" />
    <path
       inkscape:connector-curvature="0"
       id="path3226"
       style="fill:#000000;fill-opacity:1;fill-rule:nonzero;stroke:none;stroke-width:6.2698369"
       d="m 728.17456,-60.74573 c -9.46767,4.41375 -18.97901,1.81123 -28.57775,-7.80696 -6.55157,-6.58958 -12.53288,-15.66888 -17.91821,-27.24945 -5.31192,-11.39145 -8.41879,-21.7817 -9.27822,-31.12989 -1.31626,-13.78748 2.57135,-22.79089 11.70662,-27.05408 10.1949,-4.75837 20.04486,-2.783 29.6059,5.87599 6.7024,6.18862 12.86525,15.36151 18.50143,27.46244 5.64219,12.09499 8.82064,22.89171 9.54765,32.42167 0.94648,13.64967 -3.56814,22.80959 -13.58742,27.48028 m 25.29485,-68.55968 c -8.96525,-19.22368 -19.24095,-33.09279 -30.82737,-41.55759 -14.72118,-10.92881 -30.70291,-12.37134 -47.90137,-4.34667 -16.53375,7.71754 -25.19915,20.87768 -25.95224,39.44897 -0.69639,14.41455 3.17136,30.67834 11.60384,48.77343 8.75736,18.8039 18.92744,32.67912 30.48227,41.56381 15.01612,11.76883 31.08537,13.65669 48.2274,5.65695 16.53403,-7.71105 25.25574,-21.05956 26.1593,-40.03203 0.60249,-14.78418 -3.32196,-31.31783 -11.79183,-49.50687" />
    <path
       inkscape:connector-curvature="0"
       id="path3228"
       style="fill:#000000;fill-opacity:1;fill-rule:nonzero;stroke:none;stroke-width:6.2698369"
       d="m 857.66821,-139.59681 c 0.87108,11.56793 -3.85026,19.74353 -14.14557,24.55236 -10.07566,4.69615 -19.98216,2.60119 -29.76283,-6.29622 -7.11597,-6.43935 -13.44199,-15.57458 -18.94635,-27.39342 -3.78638,-8.10099 -6.43899,-16.25768 -7.92426,-24.45904 -1.93083,-10.75292 -1.22196,-19.02263 2.10737,-24.84107 2.42676,-4.1002 6.85948,-7.64266 13.31133,-10.65808 7.12272,-3.3291 15.76857,-1.72356 25.88793,4.79095 l 15.27401,-17.32316 c -15.69284,-14.18905 -33.3611,-16.71006 -52.94218,-7.56926 -16.96032,7.90542 -26.19622,21.09063 -27.79558,39.52414 -1.28592,14.99732 2.41899,31.77533 11.06431,50.34046 8.35083,17.90706 18.74576,31.38151 31.22254,40.44186 15.44222,11.11675 31.40523,12.82276 47.845,5.15559 20.61554,-9.6176 29.88908,-25.66806 27.78955,-48.08897 z" />
    <path
       inkscape:connector-curvature="0"
       id="path3230"
       style="fill:#000000;fill-opacity:1;fill-rule:nonzero;stroke:none;stroke-width:6.2698369"
       d="m 928.90199,-201.62813 -3.61005,-42.82952 29.82465,30.59819 z m -10.59934,-84.07913 -20.61572,9.61106 15.69441,151.66792 22.03885,-10.28792 -4.0363,-42.48465 40.9555,-19.1023 29.91861,30.40341 22.0448,-10.28849 z" />
    <path
       inkscape:connector-curvature="0"
       id="path3232"
       style="fill:#000000;fill-opacity:1;fill-rule:nonzero;stroke:none;stroke-width:6.2698369"
       d="m 1054.1512,-285.03781 c -0.5147,0.23781 -9.0351,4.21316 -25.5811,11.93751 l -14.9011,-31.99338 26.641,-12.43825 c 5.0098,-2.3383 10.0129,-2.92184 14.9598,-1.7557 4.9907,1.21048 8.5834,4.26397 10.9093,9.24243 2.4521,5.23493 2.3382,10.25722 -0.27,15.06621 -2.4453,4.33866 -6.358,7.64277 -11.7627,9.94338 m 56.6895,68.46275 22.5719,-10.52655 -51.4861,-50.19793 c 4.7651,-5.925 7.5744,-12.77779 8.4587,-20.49606 0.9219,-7.73663 -0.2629,-15.04111 -3.4477,-21.9005 -5.044,-10.81689 -12.9153,-17.90726 -23.624,-21.25543 -10.7527,-3.36103 -21.5494,-2.51495 -32.4278,2.56321 l -47.05071,22.09698 60.84951,130.5845 20.2209,-9.4225 -26.4629,-56.79944 24.7788,-11.57338 z" />
    <path
       inkscape:connector-curvature="0"
       id="path3234"
       style="fill:#000000;fill-opacity:1;fill-rule:nonzero;stroke:none;stroke-width:6.2698369"
       d="m 1163.2731,-335.94509 c -0.5329,0.24515 -9.0538,4.21302 -25.5811,11.93747 l -14.92,-31.99597 26.6472,-12.4324 c 5.0227,-2.3443 10.0257,-2.9278 14.9788,-1.76062 4.9656,1.21039 8.577,4.26988 10.8841,9.23572 2.4545,5.24009 2.3446,10.26385 -0.2707,15.0791 -2.433,4.32606 -6.3327,7.63021 -11.7375,9.93713 m 56.6895,68.46863 22.5528,-10.52649 -51.48,-50.21095 c 4.7591,-5.92456 7.581,-12.76479 8.4652,-20.48302 0.9102,-7.74331 -0.2572,-15.05375 -3.4603,-21.91305 -5.044,-10.8169 -12.8965,-17.90112 -23.6052,-21.25595 -10.7714,-3.35447 -21.5682,-2.50836 -32.4338,2.56328 l -47.0458,22.11428 60.852,130.58964 20.2203,-9.43553 -26.4751,-56.79979 24.7849,-11.56069 z" />
    <path
       inkscape:connector-curvature="0"
       id="path3236"
       style="fill:#000000;fill-opacity:1;fill-rule:nonzero;stroke:none;stroke-width:6.2698369"
       d="m 1262.8991,-287.51948 -60.8543,-130.5948 20.8789,-9.74265 60.8581,130.59579 z" />
    <path
       inkscape:connector-curvature="0"
       id="path3238"
       style="fill:#000000;fill-opacity:1;fill-rule:nonzero;stroke:none;stroke-width:6.2698369"
       d="m 1304.1679,-306.77891 80.9074,-37.74186 -8.8166,-18.93082 -60.7944,28.36621 -52.0562,-111.66104 -20.0889,9.37917 z" />
  </g>
</svg>
