<?xml version="1.0" encoding="UTF-8"?>
<svg xmlns="http://www.w3.org/2000/svg" viewBox="0 0 560 640" class="pref-muni-svg" role="img" aria-label="行政区分">
  <g class="pref-muni-svg__paths" fill="#eaf2fb" stroke="#5b7fa8" stroke-width="0.6" stroke-linejoin="round">
<path data-code="AL-09" data-name="Dibër" d="M339.73,267.11L337.30,276.66L330.79,279.89L330.24,283.95L325.86,276.73L325.77,270.14L301.70,273.05L292.46,279.23L280.66,275.08L272.61,267.08L263.68,269.59L255.72,262.11L246.80,247.39L230.18,233.23L225.15,220.31L226.65,204.20L233.64,207.10L241.09,204.65L247.38,209.12L251.51,204.76L260.97,205.12L265.04,198.92L279.98,192.87L281.22,186.87L273.55,178.97L285.44,171.68L288.01,164.40L292.58,171.21L305.63,164.94L311.46,180.66L317.47,179.33L320.49,175.19L340.00,175.65L341.58,186.27L333.71,198.57L339.05,229.38L334.80,234.14L324.94,236.75L326.17,248.35L331.08,254.17L332.22,260.27L339.73,267.11Z"><title>Dibër</title></path>
<path data-code="AL-07" data-name="Kukës" d="M344.11,169.78L340.15,172.19L340.00,175.65L320.49,175.19L317.47,179.33L311.46,180.66L305.63,164.94L300.22,165.63L295.41,170.57L289.71,169.99L288.01,164.40L296.37,154.53L297.37,144.96L295.34,139.88L282.86,131.52L277.92,132.90L281.12,126.61L280.54,121.95L293.57,107.21L292.44,103.72L255.77,89.30L242.90,91.77L235.45,97.38L229.31,95.73L226.09,63.84L222.88,56.50L229.07,46.52L241.31,38.72L252.87,37.82L261.83,28.09L276.84,38.05L287.62,56.58L285.77,62.05L289.83,66.65L292.77,77.32L307.67,77.74L333.77,99.82L341.34,117.98L341.78,128.26L349.12,151.70L343.39,164.21L344.11,169.78Z"><title>Kukës</title></path>
<path data-code="AL-06" data-name="Korçë" d="M348.83,332.66L357.63,334.94L365.25,363.70L371.19,371.64L375.12,372.51L386.24,366.23L404.83,372.30L406.44,391.50L402.80,399.10L414.48,414.49L417.29,425.08L413.69,443.89L405.02,450.91L401.73,459.70L397.85,462.38L386.64,459.88L381.84,467.13L375.83,470.16L375.80,482.46L370.53,494.65L364.68,499.88L364.26,512.98L358.64,520.47L359.64,529.86L356.65,538.03L351.63,540.73L337.83,524.78L333.02,510.83L335.99,502.73L331.20,501.52L327.94,491.90L329.00,481.40L324.48,473.44L327.46,467.05L322.74,462.27L323.06,450.56L320.51,445.86L322.76,436.98L313.31,432.23L301.41,407.22L325.04,398.99L328.74,391.98L315.15,366.11L318.99,364.14L323.64,351.12L338.75,344.30L348.49,346.03L348.83,332.66Z"><title>Korçë</title></path>
<path data-code="AL-03" data-name="Elbasan" d="M335.62,307.02L343.86,320.01L345.64,331.16L348.83,332.66L349.05,344.83L338.75,344.30L323.64,351.12L318.99,364.14L315.15,366.11L328.74,391.98L325.04,398.99L295.34,409.26L278.31,403.65L279.76,401.25L271.59,397.43L265.01,388.40L258.50,386.69L257.37,375.49L250.88,378.02L228.73,375.93L224.55,368.51L226.41,350.62L208.80,347.12L204.23,340.89L208.22,338.87L209.41,332.46L216.15,325.31L231.01,323.92L229.80,320.86L233.54,317.61L251.22,310.20L261.26,297.89L274.44,293.97L280.47,286.05L290.41,282.93L301.70,273.05L325.77,270.14L325.86,276.73L330.24,283.95L335.62,307.02Z"><title>Elbasan</title></path>
<path data-code="AL-05" data-name="Gjirokastër" d="M351.63,540.73L345.77,543.58L323.17,544.29L318.13,548.13L314.39,558.80L302.15,560.21L305.27,574.39L317.60,595.15L313.64,602.15L302.41,597.85L300.39,587.65L293.09,584.88L287.67,570.20L280.56,562.99L262.15,547.23L246.27,543.98L235.48,517.48L229.56,511.36L230.79,508.52L227.47,500.59L229.51,498.35L218.19,486.48L224.06,476.90L220.87,469.95L223.07,470.38L229.46,458.52L240.90,448.36L258.87,455.36L270.04,454.35L279.61,460.40L294.47,480.43L301.07,483.83L304.26,478.92L313.45,474.88L313.74,467.85L327.46,467.05L324.48,473.44L329.00,481.40L327.94,491.90L331.20,501.52L335.99,502.73L333.02,510.83L337.83,524.78L351.63,540.73Z"><title>Gjirokastër</title></path>
<path data-code="AL-12" data-name="Vlorë" d="M302.41,597.85L298.27,599.62L301.92,616.00L294.53,622.74L294.06,627.27L288.76,626.42L286.88,632.00L258.22,619.30L254.01,622.34L256.14,609.61L252.70,607.73L257.93,592.07L257.24,585.30L241.13,576.86L246.55,569.92L234.43,548.11L225.69,546.55L221.01,541.40L219.95,544.36L214.05,534.68L174.08,513.27L159.26,496.39L153.51,480.02L144.99,470.48L149.13,466.88L154.12,468.36L165.88,489.19L173.88,485.39L174.48,463.54L165.13,455.69L160.08,445.05L167.44,452.78L170.71,442.86L164.65,436.73L160.89,437.80L160.08,443.51L147.34,422.41L170.06,422.81L174.68,430.70L188.37,437.50L189.98,441.70L210.69,448.60L211.73,455.25L215.21,457.01L215.09,468.46L220.87,469.95L223.92,475.69L218.19,486.48L229.51,498.35L227.47,500.59L230.79,508.52L229.56,511.36L235.48,517.48L246.27,543.98L262.15,547.23L280.56,562.99L287.67,570.20L293.09,584.88L300.39,587.65L302.41,597.85Z"><title>Vlorë</title></path>
<path data-code="AL-10" data-name="Shkodër" d="M216.27,21.64L213.68,31.68L217.00,41.41L229.07,46.52L222.61,57.11L226.09,63.84L229.31,86.33L228.28,94.99L235.45,97.38L243.89,91.43L259.44,89.79L292.44,103.72L293.57,107.21L280.54,121.95L281.12,126.61L277.92,132.90L282.86,131.52L288.86,137.70L270.82,149.70L255.65,169.04L246.22,167.94L247.24,162.74L239.40,149.91L229.82,156.91L223.85,154.61L215.09,156.42L216.90,161.84L212.53,165.21L206.46,161.39L198.18,162.08L195.99,160.25L197.14,156.86L191.46,155.12L187.16,156.22L189.19,163.65L187.38,165.62L173.61,161.35L172.52,167.83L182.39,177.54L167.34,170.73L156.76,174.09L153.85,151.49L157.69,146.32L154.50,137.78L157.91,121.96L143.82,109.47L142.71,103.94L162.26,76.08L164.89,66.10L191.51,33.24L194.16,22.48L200.84,13.58L208.85,8.00L212.41,9.81L216.27,21.64Z"><title>Shkodër</title></path>
<path data-code="AL-04" data-name="Fier" d="M147.34,422.41L156.05,410.59L157.34,391.47L163.25,387.62L161.15,382.62L164.42,377.66L159.27,369.50L168.58,361.15L166.41,363.59L166.45,376.96L168.10,374.00L168.58,376.96L181.44,366.94L177.08,349.97L174.62,360.05L170.60,366.25L169.64,364.11L174.24,355.69L173.88,351.39L169.68,348.59L172.76,340.84L177.34,343.39L192.92,336.17L199.46,338.31L204.23,335.94L206.55,345.78L226.41,350.62L225.03,370.95L236.18,380.06L221.24,381.67L219.03,389.32L213.93,389.43L213.74,392.52L218.43,401.19L217.72,409.18L223.80,413.10L229.85,424.04L225.73,428.96L240.90,448.36L229.46,458.52L223.07,470.38L215.09,468.46L215.21,457.01L211.73,455.25L210.69,448.60L189.98,441.70L188.37,437.50L174.68,430.70L170.06,422.81L147.34,422.41Z"><title>Fier</title></path>
<path data-code="AL-11" data-name="Tiranë" d="M169.68,348.59L170.99,328.44L168.73,320.74L172.13,319.20L172.92,311.69L180.27,296.61L191.39,300.01L199.49,289.21L200.21,276.85L196.61,272.33L196.81,258.17L204.06,258.10L207.01,254.58L211.95,265.65L214.78,266.23L230.33,256.45L235.09,257.62L243.65,245.07L263.68,269.59L272.61,267.08L280.66,275.08L292.46,279.23L290.41,282.93L280.47,286.05L274.44,293.97L261.26,297.89L251.22,310.20L233.54,317.61L229.80,320.86L231.01,323.92L216.15,325.31L209.41,332.46L207.71,339.40L204.43,338.80L204.23,335.94L199.46,338.31L192.92,336.17L177.34,343.39L172.89,340.76L169.68,348.59Z"><title>Tiranë</title></path>
<path data-code="AL-02" data-name="Durrës" d="M180.27,296.61L175.92,287.08L165.15,283.75L164.42,271.28L161.15,264.93L166.68,267.45L169.24,264.58L168.58,259.27L176.11,254.04L180.37,244.25L179.99,240.82L168.58,229.35L186.58,229.83L191.97,232.90L200.12,229.46L208.70,235.22L221.24,228.45L241.86,244.99L235.09,257.62L230.33,256.45L214.78,266.23L211.95,265.65L207.01,254.58L204.06,258.10L196.81,258.17L196.61,272.33L200.21,276.85L199.49,289.21L191.39,300.01L180.27,296.61Z"><title>Durrës</title></path>
<path data-code="AL-08" data-name="Lezhë" d="M186.58,229.83L191.00,222.28L195.39,225.23L193.39,218.23L186.77,213.80L189.96,208.19L188.90,191.06L191.74,192.03L193.34,184.98L192.07,181.04L182.39,177.54L172.52,167.83L173.61,161.35L187.38,165.62L189.19,163.65L187.16,156.22L191.46,155.12L197.14,156.86L195.99,160.25L198.18,162.08L206.46,161.39L212.53,165.21L216.90,161.84L215.09,156.42L223.85,154.61L229.82,156.91L240.39,149.97L247.24,162.74L246.22,167.94L254.42,169.36L266.68,157.49L270.82,149.70L288.86,137.70L296.01,141.21L296.37,154.53L290.04,160.65L285.44,171.68L273.55,178.97L281.22,186.87L279.98,192.87L265.04,198.92L260.97,205.12L251.51,204.76L247.38,209.12L241.09,204.65L233.64,207.10L226.65,204.20L225.15,220.31L230.18,233.23L221.24,228.45L208.70,235.22L200.12,229.46L191.97,232.90L186.58,229.83Z"><title>Lezhë</title></path>
<path data-code="AL-01" data-name="Berat" d="M256.04,375.00L258.31,376.66L257.75,386.02L265.01,388.40L271.59,397.43L279.76,401.25L278.31,403.65L290.31,409.37L301.41,407.22L303.32,409.54L313.31,432.23L322.76,436.98L320.51,445.86L324.70,466.49L313.74,467.85L313.45,474.88L304.26,478.92L302.13,483.97L297.70,482.98L278.84,459.68L266.99,453.32L265.74,456.32L245.91,451.54L232.17,439.81L225.73,428.96L229.85,424.04L223.80,413.10L217.72,409.18L218.43,401.19L213.93,389.43L219.03,389.32L220.53,382.16L226.48,379.37L235.33,381.52L235.02,377.76L238.41,376.53L250.88,378.02L256.04,375.00Z"><title>Berat</title></path>
  </g>
</svg>
