<?xml version="1.0" encoding="UTF-8"?>
<svg xmlns="http://www.w3.org/2000/svg" viewBox="0 0 560 640" class="pref-muni-svg" role="img" aria-label="行政区分">
  <g class="pref-muni-svg__paths" fill="#eaf2fb" stroke="#5b7fa8" stroke-width="0.6" stroke-linejoin="round">
<path data-code="AT-3" data-name="Niederösterreich" d="M399.06,180.60L403.02,181.93L408.57,182.37L409.40,185.31L408.90,188.26L415.75,186.85L417.11,185.46L417.81,183.04L418.35,183.04L419.36,184.24L424.30,184.72L430.89,187.48L435.95,191.33L447.37,196.63L450.61,197.00L454.35,195.32L457.15,195.16L458.20,197.31L461.96,198.37L461.23,199.32L462.94,199.14L463.54,200.74L465.13,200.88L465.23,202.14L472.40,207.27L476.18,208.88L482.77,208.49L494.31,209.65L495.65,210.53L497.55,209.49L501.17,203.40L502.41,202.59L507.15,202.23L515.97,205.13L517.31,209.18L518.25,209.83L522.09,209.91L527.08,212.44L532.36,211.41L534.05,213.74L535.04,220.76L537.50,223.58L538.16,228.53L537.63,230.40L535.28,232.56L531.79,239.06L530.33,248.86L534.43,251.63L534.75,252.47L534.18,254.09L535.47,256.78L538.16,258.65L540.13,270.50L541.93,272.47L544.81,273.72L545.87,275.65L543.87,277.00L541.15,276.25L540.21,277.23L540.10,281.23L538.73,282.74L534.30,279.96L532.84,280.13L525.29,284.44L522.10,285.17L520.34,286.63L518.61,290.61L510.98,296.10L505.98,294.45L503.48,294.61L501.43,295.22L496.86,299.10L495.77,301.19L495.63,305.29L494.93,307.47L493.22,309.17L490.76,309.47L490.73,315.94L496.90,325.23L493.01,332.98L493.24,340.44L489.51,344.46L486.56,346.35L480.64,346.61L478.19,344.46L475.83,338.83L472.95,339.90L469.97,338.06L464.15,337.06L462.41,332.95L460.55,331.53L457.82,331.16L458.11,327.53L457.08,325.32L455.61,325.18L453.22,326.51L451.78,326.09L450.56,320.42L449.72,319.18L445.33,318.23L442.01,314.78L437.19,314.36L428.55,309.48L424.40,306.24L418.59,307.18L415.16,306.74L411.35,311.33L402.77,314.01L398.38,314.22L391.94,316.97L390.45,316.77L387.24,314.03L379.81,314.07L377.33,312.08L378.53,309.48L378.73,305.73L379.69,301.81L380.96,299.98L380.49,297.19L376.70,294.25L370.71,291.71L357.92,281.52L359.21,280.34L361.67,275.50L360.93,271.09L362.17,263.79L364.53,261.66L368.98,262.15L372.92,266.71L375.63,268.26L385.84,265.81L390.22,261.92L394.54,261.95L396.49,263.74L397.02,252.24L396.19,247.00L394.49,245.02L394.09,241.61L392.34,240.97L390.38,237.67L390.59,234.76L392.83,234.45L392.79,232.91L391.09,230.92L378.20,226.98L376.74,225.44L377.43,222.37L377.65,216.27L379.00,214.12L382.75,210.88L384.53,205.31L389.33,205.41L394.46,206.77L395.28,204.91L394.36,202.53L396.51,193.81L396.25,184.63L397.26,180.97L399.06,180.60ZM504.52,257.02L501.94,252.83L499.72,252.61L498.90,253.92L495.15,255.47L488.56,260.30L486.69,260.66L484.96,259.83L483.54,262.26L483.52,263.22L485.15,266.10L484.54,269.13L486.69,271.79L494.83,271.79L497.78,273.22L499.37,273.26L502.57,270.64L510.85,271.38L508.83,266.65L509.76,261.21L508.45,257.88L506.58,255.51L505.24,255.74L504.52,257.02Z"><title>Niederösterreich</title></path>
<path data-code="AT-4" data-name="Oberösterreich" d="M375.64,226.54L376.74,225.44L378.20,226.98L391.09,230.92L392.79,232.91L392.83,234.45L390.59,234.76L390.38,237.67L392.34,240.97L394.09,241.61L394.49,245.02L396.19,247.00L397.02,252.24L396.49,263.74L394.54,261.95L390.22,261.92L385.84,265.81L375.63,268.26L372.92,266.71L368.98,262.15L364.53,261.66L362.41,263.36L360.93,271.09L361.67,275.50L359.21,280.34L357.92,281.52L370.71,291.71L379.73,296.28L380.99,297.99L380.96,299.98L379.69,301.81L378.73,305.73L378.53,309.48L377.33,312.08L372.78,315.75L362.51,319.87L360.68,322.44L357.21,323.75L352.22,327.26L346.93,327.38L340.70,323.72L331.71,327.22L330.45,323.37L327.22,319.54L324.07,319.97L314.84,317.21L307.23,321.03L305.14,323.20L304.48,329.14L308.21,335.70L308.58,338.85L308.08,340.45L304.23,343.31L297.62,342.02L293.51,339.39L290.44,335.36L290.69,332.37L292.40,328.58L291.00,325.59L293.61,317.53L292.73,315.63L289.47,314.78L287.84,312.87L288.46,311.97L292.41,311.63L293.28,310.53L291.61,309.01L278.72,306.14L276.65,303.54L275.54,298.29L276.06,291.76L277.19,290.85L281.15,291.25L281.87,289.65L281.26,288.91L277.73,286.54L272.86,288.78L266.03,288.96L262.89,287.81L258.69,284.32L256.89,284.07L252.54,284.65L250.93,287.40L245.30,289.46L244.04,285.96L239.02,280.72L237.36,277.00L237.94,274.81L239.30,274.48L240.60,272.55L243.44,270.57L246.32,266.76L251.35,265.42L258.46,259.67L265.86,256.75L275.68,255.05L285.05,247.69L287.23,241.97L287.38,236.89L288.88,232.88L287.51,228.15L288.55,226.83L293.26,225.65L300.66,227.69L303.06,229.20L304.15,230.85L307.23,232.32L308.47,228.28L311.35,227.28L313.35,222.78L313.25,216.05L313.44,214.78L314.39,213.89L312.01,211.80L314.31,206.38L317.17,207.14L326.19,212.73L329.93,217.54L327.89,219.83L328.53,221.86L330.36,223.89L332.79,224.90L342.89,226.01L350.65,228.40L356.36,225.47L357.49,224.33L359.09,220.15L360.13,219.44L361.84,221.42L365.52,223.09L369.83,221.76L370.61,223.98L372.72,223.77L374.46,226.46L375.64,226.54Z"><title>Oberösterreich</title></path>
<path data-code="AT-1" data-name="Burgenland" d="M552.00,287.02L547.53,290.76L548.25,292.29L546.71,294.79L547.66,295.80L546.24,300.14L541.71,302.08L541.73,303.24L544.24,304.83L545.39,307.48L544.32,308.67L545.03,316.10L546.80,318.49L534.48,321.29L531.77,320.79L530.73,318.02L526.97,321.99L522.19,320.88L520.20,316.89L519.30,316.25L510.59,313.64L507.98,314.83L507.68,317.25L506.68,318.75L502.51,321.32L501.42,320.40L499.18,323.48L504.47,325.86L506.44,325.41L511.14,327.34L513.49,326.93L515.05,327.65L516.90,331.47L516.50,333.53L518.70,335.22L519.25,336.55L518.41,339.53L515.52,341.30L515.81,345.57L512.13,348.46L504.47,351.99L502.66,349.92L501.05,351.51L501.22,355.57L500.36,356.98L501.39,357.90L503.85,364.23L503.38,365.65L500.15,367.80L500.38,369.66L499.29,371.98L499.54,373.73L501.61,374.79L501.03,378.12L501.98,378.76L505.57,377.70L506.44,378.99L504.47,382.41L502.96,383.36L502.50,384.90L503.03,386.30L505.31,387.22L505.27,388.35L500.38,391.01L503.44,391.61L504.79,393.72L499.74,394.68L497.75,393.35L489.70,393.10L488.72,395.88L486.71,397.16L486.07,399.81L482.27,402.19L477.95,407.56L472.12,410.84L471.88,408.94L470.36,407.26L470.92,402.75L477.43,394.81L479.89,390.20L476.48,384.77L476.12,382.23L476.87,376.06L474.91,368.38L473.58,359.76L471.43,353.19L473.48,350.05L474.35,349.95L475.21,351.72L480.64,346.61L484.75,346.69L488.35,345.38L493.24,340.44L493.01,332.98L496.90,325.23L490.73,315.94L490.76,309.47L493.22,309.17L494.93,307.47L495.63,305.29L495.77,301.19L496.86,299.10L501.43,295.22L503.48,294.61L505.98,294.45L510.98,296.10L513.77,294.68L518.61,290.61L520.34,286.63L522.10,285.17L525.29,284.44L532.84,280.13L534.30,279.96L538.73,282.74L540.10,281.23L540.21,277.23L541.67,276.03L543.87,277.00L545.87,275.65L547.14,277.25L545.64,281.19L546.77,282.08L546.39,283.82L552.00,287.02Z"><title>Burgenland</title></path>
<path data-code="AT-8" data-name="Vorarlberg" d="M32.21,393.39L32.02,391.92L18.55,387.61L12.28,387.54L14.25,385.00L14.74,382.25L14.02,379.55L12.33,377.15L10.20,375.88L10.98,372.61L9.37,369.28L9.85,367.81L8.00,365.71L12.73,358.83L13.70,355.28L16.46,351.76L17.16,350.15L17.21,345.66L12.52,342.62L10.41,339.42L9.88,336.92L14.52,338.26L19.09,338.18L21.04,337.25L24.51,331.88L27.62,331.58L28.46,332.49L28.82,336.16L30.28,336.91L32.09,336.20L36.36,337.17L38.30,336.26L38.50,338.01L40.13,339.90L40.91,342.59L41.70,343.06L43.77,341.86L47.90,348.27L47.57,349.39L45.95,350.66L48.06,355.51L50.03,354.63L51.48,355.13L52.63,353.95L55.77,353.38L57.08,354.09L55.76,361.96L54.18,362.79L53.24,364.65L54.63,364.70L55.81,367.75L56.66,372.50L56.57,376.50L52.01,385.37L51.05,391.25L51.19,397.00L47.94,402.27L51.08,409.80L47.01,408.75L42.65,405.14L35.02,402.63L33.25,401.25L32.34,399.94L32.92,393.69L32.21,393.39Z"><title>Vorarlberg</title></path>
<path data-code="AT-7" data-name="Tirol" d="M51.57,409.82L51.08,409.80L47.94,402.27L51.19,397.00L51.05,391.25L52.01,385.37L56.57,376.50L56.66,372.50L55.81,367.75L54.63,364.70L59.22,364.13L63.97,361.54L66.65,358.51L68.66,354.63L71.51,353.19L72.70,351.59L74.39,347.07L74.08,343.48L72.08,341.32L72.89,336.11L71.70,332.84L72.77,332.42L74.76,332.18L75.07,333.17L74.50,335.68L76.57,337.10L80.45,337.41L83.79,333.96L94.93,337.56L96.41,339.13L103.39,337.33L105.79,339.00L102.89,341.31L103.38,342.15L107.05,343.87L110.61,347.73L110.85,348.93L110.29,350.16L112.01,352.18L119.45,352.29L127.30,348.11L128.83,348.74L128.67,351.62L130.38,351.82L131.94,351.10L135.28,347.42L140.86,346.42L141.47,345.37L141.20,344.58L139.54,343.83L142.91,339.93L147.90,340.31L152.79,339.13L154.09,337.68L155.50,333.12L157.73,331.08L171.99,332.60L174.24,330.07L180.23,328.84L197.18,329.44L199.22,326.82L199.55,325.15L199.43,322.32L197.40,318.77L202.08,315.99L200.73,319.82L201.83,321.62L205.75,320.44L209.87,321.33L213.88,320.05L215.05,320.28L216.52,324.02L219.22,326.42L221.69,326.96L224.98,325.56L226.82,328.76L231.46,332.56L231.38,335.26L233.22,340.70L227.51,350.54L225.34,351.91L220.59,352.74L217.43,358.23L212.82,359.58L207.30,358.29L196.82,362.72L193.63,362.87L191.65,363.90L191.81,366.04L190.64,373.71L191.18,375.97L193.92,379.66L194.30,385.21L185.87,389.27L180.78,389.52L177.63,390.62L172.14,394.28L168.91,394.80L165.89,396.68L162.25,394.42L156.02,393.52L150.88,394.80L147.13,392.81L142.80,396.69L135.86,394.91L125.92,397.39L120.03,402.84L117.35,411.14L117.25,413.17L115.85,414.16L113.26,418.03L108.55,417.51L104.24,418.56L101.65,416.85L98.86,417.20L95.99,415.73L93.72,416.19L93.29,415.26L95.55,412.69L94.86,411.62L88.31,408.00L79.79,410.18L76.84,409.84L74.52,407.93L74.35,405.67L75.24,402.07L74.85,400.28L68.79,393.96L66.32,395.25L64.52,397.34L63.28,399.77L63.24,401.75L58.92,401.69L56.52,407.67L51.57,409.82ZM218.30,427.92L213.69,426.40L211.22,424.17L209.24,418.45L203.99,415.97L204.47,409.85L203.82,407.53L198.72,406.27L197.08,404.25L193.85,403.22L194.90,402.16L194.90,401.19L192.73,394.30L193.48,392.45L197.80,390.00L199.32,387.91L199.34,386.46L207.67,382.45L213.11,377.73L220.66,377.09L226.00,378.28L230.01,381.69L230.22,383.72L231.74,385.33L237.89,387.41L238.49,388.25L237.32,392.36L237.50,395.10L239.30,398.15L242.35,401.04L243.91,406.70L252.64,418.21L252.18,419.30L251.35,419.26L248.05,417.03L236.46,420.17L235.38,424.80L232.69,430.39L223.84,430.42L220.45,428.30L218.30,427.92Z"><title>Tirol</title></path>
<path data-code="AT-5" data-name="Salzburg" d="M199.34,386.46L199.36,385.12L197.68,384.53L194.30,385.21L193.92,379.66L191.18,375.97L190.64,373.71L191.81,366.04L191.65,363.90L193.63,362.87L196.82,362.72L207.30,358.29L211.75,359.52L215.15,359.23L218.30,357.35L220.59,352.74L225.34,351.91L227.51,350.54L233.22,340.70L231.38,335.26L231.46,332.56L226.82,328.76L224.98,325.56L227.48,323.32L231.38,322.02L239.15,322.90L238.41,324.75L242.80,328.73L240.85,329.70L239.98,332.16L240.36,334.77L243.89,336.63L247.75,340.73L252.03,343.71L253.97,343.15L256.26,344.18L258.79,341.32L258.13,336.17L259.07,334.02L258.85,331.68L260.19,330.23L261.26,327.61L261.26,323.68L259.30,319.75L257.54,318.02L253.56,318.82L249.59,318.08L248.42,316.89L250.22,314.07L250.90,311.19L255.50,303.80L253.63,301.16L251.21,295.56L246.28,291.56L245.30,289.46L250.05,287.95L250.93,287.40L251.67,285.34L253.87,284.24L258.69,284.32L262.89,287.81L266.03,288.96L272.86,288.78L277.73,286.54L281.87,289.65L281.15,291.25L277.19,290.85L276.06,291.76L275.54,298.29L276.65,303.54L278.72,306.14L291.61,309.01L293.28,310.53L292.41,311.63L288.46,311.97L287.84,312.87L289.47,314.78L292.73,315.63L293.61,317.53L291.00,325.59L292.40,328.58L290.69,332.37L290.44,335.36L293.51,339.39L297.62,342.02L296.44,346.36L299.24,357.26L301.11,361.17L304.57,364.19L305.63,364.48L312.95,361.55L313.89,362.17L318.08,371.01L323.12,376.52L322.97,377.61L318.88,382.40L318.91,385.85L317.73,389.08L314.65,394.85L311.92,398.42L309.84,395.62L303.71,390.79L299.36,388.88L287.48,386.94L278.11,384.32L275.69,384.68L272.25,387.74L268.50,389.59L258.23,390.28L250.02,385.51L239.89,383.04L232.89,379.16L231.90,379.27L230.01,381.69L226.00,378.28L220.66,377.09L213.11,377.73L207.67,382.45L199.34,386.46Z"><title>Salzburg</title></path>
<path data-code="AT-2" data-name="Kärnten" d="M235.20,431.95L232.69,430.39L235.38,424.80L236.46,420.17L248.05,417.03L251.35,419.26L252.18,419.30L252.64,418.21L243.91,406.70L242.35,401.04L239.30,398.15L237.50,395.10L237.32,392.36L238.49,388.25L237.89,387.41L231.74,385.33L230.22,383.72L230.01,381.69L232.23,379.10L239.89,383.04L250.02,385.51L258.23,390.28L268.50,389.59L272.25,387.74L275.69,384.68L278.11,384.32L287.48,386.94L299.36,388.88L303.71,390.79L316.31,401.75L318.88,401.21L325.94,396.42L327.64,393.27L329.35,391.70L339.24,387.51L341.76,387.55L346.47,390.46L355.59,393.76L362.87,391.13L369.46,390.98L371.39,391.78L389.16,389.37L393.75,394.24L399.37,402.97L399.22,406.14L397.84,410.28L400.22,418.93L400.38,422.47L401.25,425.00L406.30,431.04L403.19,430.70L399.09,432.04L396.43,435.92L395.06,433.91L394.04,433.71L391.48,435.36L388.10,435.83L386.10,439.39L383.69,445.84L381.72,446.94L378.07,447.34L375.95,450.90L374.67,450.82L372.50,452.84L369.54,453.49L367.23,458.84L365.99,459.40L363.27,455.20L359.61,455.61L355.68,452.80L338.14,452.90L332.18,448.55L326.19,448.46L319.66,445.30L311.91,445.72L303.93,444.56L295.30,441.69L292.27,441.57L290.22,439.81L282.75,439.57L275.48,441.16L272.61,441.02L266.57,437.54L260.73,436.16L244.03,434.93L237.57,431.39L235.20,431.95Z"><title>Kärnten</title></path>
<path data-code="AT-6" data-name="Steiermark" d="M472.12,410.84L468.10,412.57L468.54,413.79L467.99,420.79L468.81,423.39L470.33,424.38L471.13,426.02L471.29,428.46L469.17,426.18L459.45,422.76L450.74,425.03L444.13,423.49L443.49,427.38L441.83,428.21L437.71,428.33L436.62,429.18L435.24,432.94L431.77,434.40L426.46,431.12L413.39,431.82L406.30,431.04L401.25,425.00L400.38,422.47L400.22,418.93L397.84,410.28L399.22,406.14L399.37,402.97L393.75,394.24L389.16,389.37L371.39,391.78L369.46,390.98L362.87,391.13L355.59,393.76L346.47,390.46L341.76,387.55L339.24,387.51L329.35,391.70L327.64,393.27L325.94,396.42L318.88,401.21L316.31,401.75L311.92,398.42L314.65,394.85L317.73,389.08L318.91,385.85L318.88,382.40L322.97,377.61L323.12,376.52L318.08,371.01L313.89,362.17L312.95,361.55L305.63,364.48L301.11,361.17L299.24,357.26L297.12,350.13L296.54,345.55L297.62,342.02L304.23,343.31L308.08,340.45L308.58,338.85L308.21,335.70L304.48,329.14L305.14,323.20L307.23,321.03L314.84,317.21L324.07,319.97L327.22,319.54L330.45,323.37L331.71,327.22L340.70,323.72L346.93,327.38L350.47,327.80L360.68,322.44L362.51,319.87L372.78,315.75L377.33,312.08L379.81,314.07L387.24,314.03L390.45,316.77L391.94,316.97L398.38,314.22L402.77,314.01L411.35,311.33L415.16,306.74L418.59,307.18L424.40,306.24L428.55,309.48L437.19,314.36L442.01,314.78L445.33,318.23L449.72,319.18L450.56,320.42L451.78,326.09L453.22,326.51L455.61,325.18L457.08,325.32L458.11,327.53L457.82,331.16L460.55,331.53L462.41,332.95L464.15,337.06L469.97,338.06L472.95,339.90L476.17,338.97L478.19,344.46L480.64,346.61L475.21,351.72L474.35,349.95L473.48,350.05L471.43,353.19L473.58,359.76L474.91,368.38L476.87,376.06L476.12,382.23L476.48,384.77L479.89,390.20L477.43,394.81L470.92,402.75L470.36,407.26L471.88,408.94L472.12,410.84Z"><title>Steiermark</title></path>
<path data-code="AT-9" data-name="Wien" d="M499.72,252.61L501.94,252.83L504.52,257.02L505.24,255.74L506.58,255.51L508.45,257.88L509.76,261.21L508.83,266.65L510.85,271.38L502.57,270.64L499.37,273.26L497.78,273.22L494.83,271.79L486.69,271.79L484.54,269.13L485.15,266.10L483.52,263.22L484.43,260.40L484.96,259.83L486.69,260.66L488.56,260.30L495.15,255.47L498.90,253.92L499.72,252.61Z"><title>Wien</title></path>
  </g>
</svg>
