<?xml version="1.0" encoding="UTF-8"?>
<svg xmlns="http://www.w3.org/2000/svg" viewBox="0 0 560 640" class="pref-muni-svg" role="img" aria-label="行政区分">
  <g class="pref-muni-svg__paths" fill="#eaf2fb" stroke="#5b7fa8" stroke-width="0.6" stroke-linejoin="round">
<path data-code="BD-B" data-name="Chittagong" d="M504.62,571.83L502.02,576.66L497.77,578.34L493.29,566.25L481.20,565.21L476.77,556.62L473.66,555.55L464.17,562.40L459.61,572.77L459.29,585.95L468.06,598.11L467.71,610.95L474.69,629.27L473.33,632.00L461.03,605.06L447.38,588.17L446.68,572.79L437.70,557.68L440.61,552.69L444.02,552.24L441.30,544.92L445.76,536.59L445.13,529.75L440.71,535.56L440.71,529.69L438.64,531.38L437.39,528.57L441.30,523.90L438.41,523.49L441.30,520.20L432.48,520.76L437.39,510.71L434.08,513.01L428.20,486.81L428.03,483.16L429.36,483.82L428.01,482.61L426.70,486.00L424.09,479.26L426.70,472.22L423.69,465.88L430.02,462.73L433.33,453.30L431.35,453.30L430.36,459.82L421.98,466.35L425.35,472.02L421.57,473.14L417.35,454.75L410.77,441.64L398.33,424.04L389.99,417.50L392.72,402.35L389.99,409.90L385.55,413.45L385.36,418.37L378.72,416.12L380.04,419.46L373.30,419.99L377.39,421.93L375.89,424.37L362.71,421.26L364.40,424.20L361.45,425.68L369.67,428.24L370.41,431.73L366.55,439.24L357.41,442.44L351.79,437.71L346.80,425.87L345.39,426.34L348.71,435.90L340.64,437.26L333.01,425.90L329.07,425.68L323.06,415.78L317.54,398.52L308.98,385.37L312.67,363.79L312.07,357.99L307.22,355.84L306.15,344.43L309.36,340.52L317.31,339.29L316.08,333.26L322.65,326.07L319.21,322.19L320.88,319.15L317.94,315.55L321.68,301.57L336.68,299.33L342.38,289.74L343.31,282.59L348.64,276.13L345.42,268.40L351.44,262.87L354.17,264.05L354.24,260.91L359.94,258.79L370.38,263.41L377.32,260.41L372.33,264.91L375.86,266.96L371.60,269.63L375.02,286.82L370.40,288.43L366.06,295.75L366.93,304.48L363.98,312.02L357.89,315.68L362.06,321.03L358.28,325.36L370.13,352.54L372.96,354.46L370.87,357.24L375.51,381.48L381.09,385.55L379.61,368.41L381.21,364.40L383.37,364.32L390.11,372.66L395.95,392.72L402.02,398.11L404.99,394.54L413.78,392.71L422.39,382.71L417.35,363.29L424.54,349.64L433.05,344.78L436.52,339.63L434.76,315.44L444.12,324.24L456.94,314.52L461.17,323.38L463.88,317.05L467.49,317.19L466.86,327.51L471.60,346.36L476.18,354.61L477.04,362.59L474.14,374.01L477.27,400.01L483.74,405.91L485.27,417.39L490.50,424.54L490.98,438.88L498.39,480.50L498.25,483.19L494.53,484.75L499.95,510.42L498.25,526.66L499.92,554.67L504.62,571.83ZM436.01,523.90L440.71,539.91L439.38,549.00L438.49,550.85L432.02,550.79L432.52,552.99L430.33,553.52L428.20,549.44L430.02,542.81L428.03,527.53L429.86,524.44L432.35,525.67L431.35,531.86L433.48,527.42L432.67,522.37L436.01,521.65L436.01,523.90ZM431.35,512.62L425.99,527.53L425.99,511.50L429.36,505.63L431.35,512.62ZM359.50,460.49L363.19,474.22L358.78,482.88L351.18,488.87L347.21,488.33L345.52,486.00L350.77,478.01L352.30,457.14L359.50,460.49ZM360.45,444.95L364.47,443.75L365.53,445.79L360.54,450.55L356.08,449.41L360.45,444.95ZM390.49,436.15L399.13,447.63L399.02,455.71L394.38,456.27L388.45,450.28L386.24,442.62L390.49,436.15Z"><title>Chittagong</title></path>
<path data-code="BD-G" data-name="Sylhet" d="M456.86,228.44L453.06,231.40L450.86,245.49L437.41,246.16L439.57,252.46L432.54,250.12L433.13,258.34L430.32,269.24L427.13,269.52L423.51,262.54L416.30,261.14L416.27,268.57L411.56,270.57L406.20,263.15L403.03,274.87L395.36,276.97L380.33,275.42L378.00,286.53L375.02,286.82L371.60,269.63L375.86,266.96L372.33,264.91L377.32,260.41L370.38,263.41L359.94,258.79L362.88,253.19L368.29,250.23L366.97,248.11L369.22,245.75L365.80,241.56L367.00,236.60L363.27,234.66L367.53,226.22L362.94,221.53L366.70,214.43L364.72,211.83L359.44,211.72L357.21,192.56L342.85,192.50L336.50,182.06L339.79,173.84L338.68,163.22L367.94,158.38L387.02,165.17L400.08,162.84L407.14,166.65L416.03,162.04L445.58,160.53L459.07,165.81L465.00,170.80L471.80,171.94L489.33,187.45L490.08,192.17L479.30,197.17L470.52,191.37L463.97,191.36L465.01,203.45L456.86,228.44Z"><title>Sylhet</title></path>
<path data-code="BD-C" data-name="Dhaka" d="M228.24,137.04L230.17,149.56L238.83,148.29L283.23,163.90L308.40,161.62L316.59,163.58L321.10,162.03L327.71,164.71L338.68,163.22L339.79,173.84L336.50,182.06L342.85,192.50L357.21,192.56L359.44,211.72L364.72,211.83L366.70,214.43L362.94,221.53L367.53,226.22L363.27,234.66L367.00,236.60L365.80,241.56L369.22,245.75L366.97,248.11L368.29,250.23L362.88,253.19L359.94,258.79L345.42,268.40L348.64,276.13L343.31,282.59L342.38,289.74L336.68,299.33L321.68,301.57L317.94,315.55L320.88,319.15L319.21,322.19L322.65,326.07L313.46,333.71L315.39,338.28L306.45,339.68L305.35,332.48L308.76,328.13L302.11,329.52L300.99,332.34L294.09,330.31L303.87,334.92L304.07,344.44L301.45,351.33L272.11,342.63L289.44,357.58L303.92,361.59L307.53,371.46L305.49,368.86L306.40,377.21L303.39,383.53L301.62,383.87L302.11,380.46L298.61,383.70L291.89,384.53L288.83,389.56L279.61,384.61L276.21,387.65L279.44,388.17L279.28,390.52L274.46,395.02L270.05,391.27L268.37,385.17L261.72,385.54L247.31,404.30L240.84,405.99L231.51,399.44L220.83,382.70L217.15,380.52L216.78,377.56L219.68,379.56L224.06,374.10L218.11,374.00L216.77,368.10L211.58,366.68L215.46,361.54L212.55,361.60L208.66,354.72L208.76,351.32L211.47,352.84L208.76,341.96L203.85,338.50L199.45,340.51L198.86,337.61L201.67,335.14L191.49,320.58L184.82,320.87L180.52,314.77L185.56,301.63L184.06,294.44L202.08,305.18L218.41,301.51L217.13,293.74L218.80,288.14L229.97,277.15L231.25,266.26L224.01,256.87L223.39,247.70L227.93,209.61L218.70,200.19L214.05,183.13L216.80,162.88L222.47,153.48L222.17,145.02L225.24,138.21L228.24,137.04ZM298.74,357.99L295.14,358.33L289.56,351.31L300.23,355.05L304.78,360.17L298.74,357.99Z"><title>Dhaka</title></path>
<path data-code="BD-F" data-name="Rangpur" d="M229.15,133.15L222.17,145.02L222.47,153.48L216.80,162.88L199.77,162.16L184.62,157.77L178.12,161.49L175.03,158.45L172.25,149.00L143.37,147.92L135.83,145.08L131.03,137.81L132.52,131.12L128.37,126.52L125.42,125.37L125.48,127.24L118.07,130.67L104.83,126.71L94.48,116.93L94.05,110.40L78.54,96.03L75.38,94.42L65.68,97.53L61.78,91.58L60.50,83.39L67.95,70.30L68.40,59.99L74.55,54.50L84.99,50.70L86.00,43.70L95.25,35.16L101.66,36.17L98.11,25.43L87.65,22.17L85.90,26.03L83.91,24.24L89.49,8.68L91.62,8.00L93.23,15.74L117.09,29.54L116.69,32.05L122.53,38.77L116.07,44.32L117.78,45.55L126.00,42.57L133.48,49.57L138.44,44.18L148.12,49.81L152.41,48.73L154.38,47.38L151.29,42.07L148.74,42.64L139.94,32.66L144.78,26.97L154.77,33.16L155.89,36.78L160.52,38.87L157.21,40.26L157.27,43.11L162.11,58.06L183.12,73.78L188.58,71.99L190.51,74.35L197.74,73.77L203.20,77.91L204.90,71.27L209.97,65.96L205.66,64.38L209.28,60.81L205.25,58.49L207.58,55.66L210.27,56.19L210.16,50.33L214.02,49.98L214.29,56.50L220.39,58.17L224.02,70.19L227.29,74.91L231.11,75.82L227.54,79.03L231.66,80.88L226.68,93.33L231.66,112.42L229.15,133.15Z"><title>Rangpur</title></path>
<path data-code="BD-E" data-name="Rajshahi" d="M124.40,265.87L126.18,262.31L124.99,255.53L119.57,250.56L117.46,250.10L114.97,254.78L99.50,252.52L63.96,232.82L61.22,222.32L55.38,217.46L58.44,205.84L66.97,196.33L64.44,188.70L72.95,185.63L76.87,192.50L83.76,193.81L93.54,177.54L96.18,159.68L107.66,161.69L114.95,159.41L129.53,162.73L132.73,158.92L143.14,162.00L141.73,159.74L148.80,150.63L148.12,147.69L172.25,149.00L175.03,158.45L178.12,161.49L184.62,157.77L199.77,162.16L216.80,162.88L214.05,183.13L216.56,195.49L227.93,209.61L224.98,226.35L224.01,256.87L231.48,268.37L228.33,280.08L218.80,288.14L217.13,293.74L218.41,301.51L204.57,305.68L181.80,293.46L166.03,293.07L157.16,286.39L156.93,281.01L147.53,268.81L143.80,267.79L133.48,273.36L127.01,270.36L124.40,265.87Z"><title>Rajshahi</title></path>
<path data-code="BD-D" data-name="Khulna" d="M156.39,484.62L157.93,479.82L151.40,468.08L150.36,450.49L147.69,442.35L143.51,440.20L146.28,436.29L141.58,419.74L145.12,408.35L140.15,405.00L134.84,394.78L136.05,384.24L146.62,370.69L133.27,366.94L128.70,368.68L121.01,365.42L119.97,361.07L128.16,340.30L123.23,342.50L105.93,324.38L109.44,301.40L116.78,299.85L122.72,293.97L121.49,286.52L123.77,281.94L118.82,277.24L119.21,269.63L124.40,265.87L127.01,270.36L133.48,273.36L146.62,268.27L154.10,275.89L157.16,286.39L161.84,290.71L168.68,293.56L184.06,294.44L185.56,301.63L180.81,315.73L184.82,320.87L191.49,320.58L201.67,335.14L198.86,337.61L199.45,340.51L203.85,338.50L208.76,341.96L211.47,352.84L208.76,351.32L208.66,354.72L212.55,361.60L215.46,361.54L211.58,366.68L216.77,368.10L218.11,374.00L224.06,374.10L219.68,379.56L216.78,377.56L217.15,380.52L220.83,382.70L231.51,399.44L244.08,410.54L239.15,416.75L240.79,419.93L236.52,423.45L240.95,425.60L238.21,427.92L243.46,435.44L242.51,443.53L245.78,448.49L240.03,456.80L235.41,453.95L236.14,462.07L232.08,469.97L235.26,488.65L232.81,490.91L228.05,490.34L232.98,494.81L236.14,510.71L226.99,516.58L225.00,514.68L219.48,516.45L214.83,514.41L213.44,506.36L210.71,512.23L218.66,521.26L215.50,524.86L208.43,523.90L209.45,528.24L207.60,530.18L205.53,528.85L201.80,518.29L205.41,510.71L206.08,495.09L209.45,486.38L205.68,476.87L211.44,462.73L203.92,476.61L206.86,486.38L202.34,500.03L202.75,488.96L196.78,467.07L196.78,487.51L198.57,483.87L200.92,489.81L198.21,495.86L201.26,502.41L200.36,508.06L195.70,513.36L195.82,521.63L190.04,528.42L186.46,525.67L188.15,508.90L184.77,501.35L185.13,509.82L179.82,518.65L178.13,517.30L179.17,524.13L177.13,530.39L179.45,532.59L172.81,536.22L170.40,533.17L171.98,529.27L168.77,518.42L165.55,521.04L160.69,517.96L156.39,484.62ZM161.77,521.65L164.03,523.17L163.40,527.97L155.53,520.37L154.96,507.22L161.77,521.65Z"><title>Khulna</title></path>
<path data-code="BD-A" data-name="Barisal" d="M291.54,386.97L300.29,403.20L294.09,404.52L290.18,413.39L287.45,414.02L288.61,416.82L284.00,417.55L290.10,420.54L292.67,418.88L295.42,421.93L297.63,433.47L292.43,436.89L290.76,445.99L293.72,437.28L296.90,436.15L302.21,438.69L306.76,448.95L304.78,448.16L307.91,458.41L307.43,464.97L302.03,476.81L296.51,479.64L290.43,490.34L285.45,487.51L288.77,477.29L286.12,467.80L285.78,476.23L287.92,479.50L277.78,500.10L275.28,512.13L267.59,519.16L263.76,519.19L256.81,516.43L260.05,505.63L254.28,513.97L250.14,513.01L251.07,504.40L263.73,486.38L268.79,485.32L270.73,477.29L267.79,484.29L262.19,486.64L252.87,499.58L247.41,498.38L251.21,492.06L251.92,484.47L255.39,480.99L246.09,493.67L246.09,499.84L244.64,501.11L241.39,498.65L235.79,469.23L248.75,446.35L245.78,448.49L242.63,444.05L243.92,437.03L238.21,427.92L240.95,425.60L236.52,423.45L240.79,419.93L239.15,416.75L244.08,410.54L240.84,405.99L247.31,404.30L261.72,385.54L268.37,385.17L270.05,391.27L274.46,395.02L279.52,390.01L276.21,387.65L278.17,385.23L282.76,385.36L288.83,389.56L291.54,386.97ZM305.49,499.84L306.76,504.91L296.74,513.01L299.46,511.50L297.41,509.26L298.53,504.91L305.49,499.84ZM280.08,504.91L286.12,498.38L279.17,514.99L280.08,504.91ZM290.10,494.03L295.05,500.87L288.18,508.97L286.12,504.91L288.18,494.34L290.10,494.03ZM300.72,491.86L294.81,494.69L296.70,488.18L307.43,480.99L302.21,495.89L297.28,498.47L296.74,495.85L300.72,491.86ZM339.36,476.64L340.81,483.03L338.15,486.00L337.27,481.41L339.36,476.64ZM342.73,478.68L343.36,470.88L344.81,473.44L342.73,478.68ZM340.44,474.33L338.91,473.69L342.73,459.82L344.48,466.33L340.44,474.33ZM308.03,453.30L306.27,450.80L311.83,458.10L310.03,465.62L308.03,453.30ZM310.74,453.30L311.32,447.07L312.67,451.79L310.74,453.30ZM324.65,445.81L330.92,452.25L329.09,479.49L323.12,490.35L310.74,499.04L314.08,487.51L308.65,495.52L306.46,493.73L314.68,458.31L310.74,440.18L302.11,434.38L304.71,416.85L311.04,414.79L324.65,445.81ZM310.52,408.22L313.73,412.57L305.24,411.97L299.46,416.72L298.44,422.82L292.09,416.91L293.81,406.54L305.37,404.75L310.52,408.22ZM312.67,397.20L309.36,397.20L312.67,400.90L309.65,400.57L306.04,396.55L298.74,397.20L297.18,394.79L304.78,388.51L312.67,397.20ZM297.41,384.88L293.43,391.40L292.09,385.54L297.41,384.88Z"><title>Barisal</title></path>
  </g>
</svg>
