<?xml version="1.0" encoding="UTF-8"?>
<svg xmlns="http://www.w3.org/2000/svg" viewBox="0 0 560 640" class="pref-muni-svg" role="img" aria-label="行政区分">
  <g class="pref-muni-svg__paths" fill="#eaf2fb" stroke="#5b7fa8" stroke-width="0.6" stroke-linejoin="round">
<path data-code="BY-HO" data-name="Gomel" d="M491.20,473.82L476.00,471.84L467.23,479.46L459.67,475.48L449.56,477.45L450.84,483.74L448.31,483.30L442.12,492.70L439.47,492.96L432.44,506.10L434.03,506.75L432.83,511.41L429.71,512.01L428.93,519.35L426.57,521.26L428.17,523.29L426.99,525.20L430.49,527.17L429.29,529.14L432.44,534.40L430.71,538.22L434.00,543.99L427.97,556.71L417.46,549.97L415.29,546.57L415.47,540.66L405.70,532.73L390.76,534.62L387.47,537.97L376.60,532.11L369.07,537.25L366.84,542.29L358.50,544.17L353.25,535.51L353.18,529.40L349.42,521.30L345.05,518.61L339.19,524.56L328.88,528.10L324.83,540.74L323.42,536.76L319.62,536.08L317.72,526.09L309.60,524.34L302.34,528.51L296.45,516.70L287.36,525.69L280.75,525.39L273.72,520.37L271.22,530.19L266.25,534.36L264.20,531.92L265.82,522.65L255.56,519.40L255.39,511.46L258.22,503.26L255.02,497.80L256.31,488.67L260.54,481.75L256.43,476.79L257.17,461.84L247.00,452.45L243.01,451.90L241.83,448.44L246.09,441.48L245.64,437.32L256.44,431.26L258.37,434.30L260.42,431.93L260.89,437.48L266.58,441.03L279.98,440.39L282.63,433.22L288.12,434.62L290.30,438.17L302.73,436.91L306.54,433.36L306.46,422.31L309.83,417.83L330.20,414.15L331.02,411.94L328.69,409.75L338.02,406.33L338.80,399.19L345.37,398.71L350.64,391.81L360.41,395.52L362.85,391.90L366.45,394.34L371.25,391.18L381.17,391.98L382.51,389.32L376.45,384.69L378.03,381.17L376.09,377.50L378.29,375.91L377.48,374.51L383.43,374.30L381.97,372.57L383.87,368.92L382.42,367.00L385.46,366.44L383.21,356.53L385.94,352.96L392.15,355.88L397.00,354.18L405.56,359.48L408.07,364.37L418.81,361.75L418.42,358.94L420.68,357.04L436.61,360.41L438.25,358.37L446.94,359.96L448.88,357.23L454.05,357.99L455.89,364.18L460.23,367.97L459.59,374.25L466.13,376.79L474.78,375.40L474.90,378.41L468.26,385.56L472.56,389.15L476.28,397.72L482.95,401.48L486.62,409.31L486.66,413.38L481.56,417.49L489.99,430.42L486.04,431.14L486.99,432.67L485.54,433.90L487.67,436.72L488.82,447.31L486.50,453.19L494.02,458.95L493.05,463.72L497.85,470.63L497.72,473.47L491.20,473.82Z"><title>Gomel</title></path>
<path data-code="BY-BR" data-name="Brest" d="M143.65,490.89L120.33,488.05L96.63,494.46L77.78,494.68L73.26,499.73L69.42,510.25L54.45,522.96L41.26,517.34L33.69,519.23L32.36,521.91L33.62,529.98L30.48,525.92L28.89,515.95L30.48,514.70L30.48,506.75L34.37,501.44L32.43,498.21L37.09,483.71L34.87,475.02L27.75,471.17L26.34,465.67L9.37,460.00L8.00,455.30L20.91,434.12L48.06,418.69L50.32,415.82L50.99,408.82L59.59,409.25L64.27,406.26L86.32,411.65L86.33,406.64L88.99,402.29L87.90,400.14L92.73,395.48L90.08,393.25L94.58,390.82L101.16,393.42L108.42,390.75L110.31,396.55L116.13,395.50L116.05,402.81L126.75,399.85L130.88,402.27L129.54,394.10L135.55,392.53L142.91,383.79L146.66,374.33L143.40,370.24L146.70,366.59L145.21,361.87L148.47,360.07L153.07,349.16L190.87,351.88L192.01,362.15L187.44,363.76L184.59,369.15L187.99,370.30L190.13,375.16L195.81,376.11L198.76,380.77L193.87,382.55L190.64,387.77L194.61,397.60L192.83,400.93L194.96,403.72L202.82,398.02L207.08,403.02L211.12,402.84L214.44,408.44L223.34,412.05L225.75,410.22L229.90,418.05L235.97,419.07L236.93,424.25L229.33,425.01L228.54,427.40L230.07,429.48L228.70,431.37L234.82,438.09L233.68,443.10L256.95,461.31L256.43,476.79L260.54,481.75L256.31,488.67L255.02,497.80L258.22,503.26L255.39,511.46L255.56,519.40L248.50,522.51L240.84,522.06L242.18,516.70L237.14,515.48L236.51,507.47L234.98,506.54L221.87,507.91L207.34,502.25L194.80,501.84L192.65,497.51L179.41,496.92L172.30,492.30L143.65,490.89Z"><title>Brest</title></path>
<path data-code="BY-VI" data-name="Vitebsk" d="M200.31,164.98L194.80,162.10L200.36,150.35L199.73,144.90L203.34,139.92L204.48,128.39L216.29,126.64L225.30,115.02L235.00,114.49L241.36,118.84L246.29,114.61L260.13,118.16L263.11,105.79L268.77,102.24L270.87,96.80L279.17,87.85L289.65,83.29L301.04,94.27L305.53,89.85L318.15,89.86L325.01,103.49L330.65,104.37L332.29,100.64L342.03,96.05L362.81,103.40L365.59,107.32L362.16,109.92L359.85,118.86L367.67,129.05L379.25,120.44L386.17,120.36L391.98,113.45L403.29,115.50L409.64,112.31L423.93,118.23L424.61,122.04L430.69,125.47L431.20,130.57L436.74,131.83L439.50,137.39L445.51,135.79L449.22,139.58L449.60,147.21L447.43,151.14L449.53,157.26L442.47,167.10L451.90,178.93L454.51,192.35L449.24,192.20L450.55,197.14L443.64,201.49L444.28,206.35L440.67,213.61L453.08,222.88L454.13,226.18L460.18,226.47L463.75,230.97L457.87,243.40L464.38,247.15L457.31,249.13L456.91,251.98L450.49,248.91L446.83,252.02L436.41,250.44L430.79,254.32L432.27,257.22L427.13,262.91L420.62,257.52L416.59,261.52L411.93,260.51L414.70,254.35L406.62,258.42L402.85,254.57L398.71,259.16L398.64,264.60L391.46,262.43L390.28,258.62L387.42,257.77L385.98,260.86L372.71,260.23L361.76,269.07L360.72,264.84L363.62,260.87L361.17,257.38L366.26,240.91L365.17,238.40L368.29,235.05L367.22,231.53L365.26,234.54L357.28,235.53L353.23,234.65L352.38,229.42L348.03,228.21L342.65,232.09L333.39,230.81L333.74,235.40L331.23,237.36L321.18,234.73L320.36,227.91L317.20,229.64L315.54,227.18L310.74,228.73L305.74,237.85L296.27,228.27L278.13,231.73L276.51,228.63L269.45,229.32L265.02,223.27L264.85,218.94L255.98,215.92L256.17,212.95L249.98,206.94L244.56,206.69L240.61,200.09L242.39,196.73L240.60,194.87L232.42,194.37L229.76,199.29L220.51,196.93L211.00,199.96L208.13,197.42L201.97,199.16L191.25,196.24L185.24,201.39L179.12,195.21L184.48,181.09L203.65,182.94L206.84,173.85L215.03,168.27L213.20,165.68L200.31,164.98Z"><title>Vitebsk</title></path>
<path data-code="BY-HR" data-name="Grodno" d="M168.35,200.08L179.12,195.21L183.54,197.47L184.78,201.25L189.25,200.02L187.43,201.53L189.02,208.50L200.13,218.62L203.03,229.30L207.98,230.15L208.29,235.02L206.39,235.82L206.09,239.44L202.74,238.43L204.15,246.70L196.13,263.94L192.56,267.57L175.57,271.64L173.75,277.25L179.59,278.31L180.55,287.24L188.42,285.25L190.40,290.30L194.07,290.89L193.30,295.39L182.27,303.16L181.63,306.59L187.08,310.18L184.09,312.45L184.36,317.20L188.67,319.22L189.43,323.62L196.44,327.29L198.71,333.75L197.51,338.51L200.50,338.93L201.76,348.01L184.97,353.22L152.61,349.49L148.47,360.07L145.21,361.87L146.70,366.59L143.40,370.24L146.50,372.89L146.12,376.10L142.75,384.08L135.55,392.53L129.54,394.10L131.59,400.89L130.53,402.42L126.75,399.85L116.05,402.81L116.13,395.50L110.31,396.55L108.42,390.75L101.16,393.42L94.58,390.82L90.08,393.25L92.73,395.48L87.90,400.14L88.99,402.29L86.33,406.64L86.32,411.65L64.27,406.26L59.59,409.25L50.99,408.82L50.47,386.46L47.51,380.41L49.46,372.33L44.16,363.63L32.22,328.15L26.22,296.60L34.28,300.55L65.18,294.71L70.16,300.95L77.04,301.64L93.50,291.35L95.70,294.20L101.44,293.13L102.30,288.84L100.08,281.82L102.31,277.82L116.57,278.04L121.39,273.85L124.22,266.05L133.53,266.91L138.63,262.00L144.02,268.51L141.04,269.43L142.60,271.94L140.14,273.88L141.86,276.83L154.62,276.69L157.27,267.45L152.11,259.88L144.59,261.60L142.66,257.46L147.36,250.18L148.40,241.86L154.64,236.07L152.82,226.98L153.55,217.00L156.81,213.29L157.05,207.10L162.03,200.45L168.35,200.08Z"><title>Grodno</title></path>
<path data-code="BY-MA" data-name="Mogilev" d="M464.38,247.15L470.41,257.34L472.68,268.70L483.03,276.91L496.15,281.70L498.11,286.09L501.04,285.62L501.91,294.40L496.60,310.49L503.92,312.19L517.18,309.33L537.43,318.96L538.92,322.53L533.87,325.83L534.57,330.93L543.99,340.20L551.08,342.50L552.00,354.73L537.04,358.05L538.43,360.50L535.27,367.29L517.82,379.15L499.54,376.14L497.26,369.00L487.99,366.68L477.90,367.71L475.74,369.44L474.78,375.40L466.13,376.79L459.38,374.02L460.23,367.97L455.89,364.18L453.66,357.75L435.26,360.39L424.63,356.42L418.42,358.94L418.81,361.75L408.07,364.37L405.56,359.48L397.00,354.18L392.15,355.88L385.94,352.96L383.21,356.53L385.46,366.44L382.42,367.00L383.87,368.92L381.97,372.57L383.43,374.30L377.48,374.51L378.29,375.91L376.09,377.50L378.03,381.17L376.45,384.69L382.51,389.32L381.17,391.98L371.25,391.18L366.45,394.34L362.85,391.90L360.41,395.52L350.64,391.81L345.37,398.71L338.80,399.19L338.02,406.33L328.69,409.75L331.02,411.94L330.20,414.15L321.48,416.98L310.05,417.72L299.96,409.49L311.15,393.98L309.16,390.53L311.43,385.48L313.98,385.44L313.13,372.63L307.33,373.65L305.00,367.98L301.47,370.12L296.37,368.40L290.03,364.07L288.41,359.42L303.76,361.21L308.93,358.60L303.93,352.73L306.16,349.11L306.24,341.92L309.20,337.77L316.10,335.78L314.50,334.50L317.81,333.04L318.49,327.90L332.77,330.20L334.25,336.41L337.38,337.00L337.24,331.48L343.64,330.32L343.77,325.47L346.18,322.89L352.25,324.04L364.80,316.75L363.05,314.68L367.72,310.36L360.80,307.88L363.15,305.70L360.64,305.32L362.22,303.03L360.55,301.82L359.56,291.06L364.28,285.03L363.13,281.81L366.63,272.86L363.89,268.51L367.85,263.98L372.71,260.23L385.98,260.86L387.79,257.76L391.46,262.43L398.64,264.60L398.71,259.16L402.48,254.74L406.62,258.42L414.70,254.35L411.93,260.51L416.59,261.52L420.62,257.52L426.72,262.99L432.15,257.50L430.79,254.32L436.41,250.44L446.83,252.02L450.49,248.91L456.91,251.98L457.31,249.13L464.38,247.15Z"><title>Mogilev</title></path>
<path data-code="BY-MI" data-name="Minsk" d="M232.42,194.37L241.11,195.14L242.39,196.73L240.61,200.09L244.56,206.69L249.98,206.94L256.17,212.95L255.98,215.92L264.85,218.94L266.64,226.22L272.68,230.26L276.51,228.63L278.13,231.73L296.27,228.27L306.78,237.91L310.74,228.73L315.54,227.18L317.20,229.64L320.36,227.91L321.18,234.73L331.23,237.36L333.74,235.40L333.39,230.81L342.65,232.09L348.03,228.21L352.38,229.42L353.52,234.74L367.92,232.47L361.17,257.38L363.60,261.28L360.52,267.26L366.63,272.86L363.13,281.81L364.28,285.03L359.53,291.72L360.55,301.82L362.22,303.03L360.64,305.32L363.13,305.34L360.80,307.88L367.72,310.36L363.05,314.68L364.80,316.75L352.25,324.04L346.18,322.89L343.77,325.47L343.64,330.32L337.24,331.48L337.38,337.00L334.25,336.41L332.77,330.20L318.49,327.90L317.81,333.04L314.50,334.50L316.10,335.78L309.20,337.77L306.24,341.92L306.16,349.11L303.93,352.73L308.93,358.60L303.76,361.21L288.41,359.42L290.03,364.07L296.37,368.40L301.47,370.12L305.00,367.98L307.33,373.65L313.13,372.63L313.98,385.44L311.43,385.48L309.16,390.53L311.15,393.98L299.96,409.49L310.05,417.72L306.46,422.31L306.54,433.36L302.73,436.91L290.30,438.17L288.12,434.62L282.63,433.22L279.98,440.39L266.58,441.03L260.89,437.48L260.42,431.93L258.37,434.30L256.44,431.26L245.64,437.32L246.09,441.48L241.83,448.44L233.68,443.10L234.82,438.09L228.70,431.37L230.07,429.48L228.54,427.40L229.33,425.01L236.93,424.25L235.97,419.07L229.90,418.05L225.75,410.22L223.34,412.05L214.44,408.44L211.12,402.84L207.08,403.02L202.82,398.02L194.96,403.72L192.63,400.41L194.61,397.60L190.64,387.77L193.87,382.55L198.76,380.77L184.61,368.75L187.44,363.76L192.01,362.15L190.87,351.88L201.76,348.01L200.50,338.93L197.51,338.51L198.71,333.75L196.44,327.29L189.43,323.62L188.67,319.22L184.36,317.20L184.09,312.45L187.08,310.18L181.63,306.59L182.27,303.16L193.30,295.39L194.07,290.89L190.40,290.30L188.42,285.25L180.55,287.24L179.59,278.31L173.75,277.25L175.57,271.64L192.56,267.57L196.13,263.94L204.15,246.70L202.74,238.43L205.78,239.69L208.30,234.61L207.88,229.78L202.81,228.87L200.13,218.62L189.02,208.50L187.43,201.53L191.25,196.24L201.97,199.16L208.13,197.42L211.00,199.96L220.51,196.93L225.44,199.53L230.68,198.93L232.42,194.37ZM269.70,309.59L273.69,306.70L270.56,299.72L273.98,289.14L267.00,291.78L255.03,289.14L249.62,291.06L248.34,294.19L248.19,306.46L258.02,311.51L269.70,309.59Z"><title>Minsk</title></path>
<path data-code="BY-HM" data-name="City of Minsk" d="M272.41,288.66L274.12,292.50L270.84,297.32L273.69,306.70L272.12,309.10L258.02,311.51L248.19,306.46L247.48,303.81L248.34,294.19L251.47,289.86L267.00,291.78L272.41,288.66Z"><title>City of Minsk</title></path>
  </g>
</svg>
