<?xml version="1.0" encoding="UTF-8"?>
<svg xmlns="http://www.w3.org/2000/svg" viewBox="0 0 560 640" class="pref-muni-svg" role="img" aria-label="行政区分">
  <g class="pref-muni-svg__paths" fill="#eaf2fb" stroke="#5b7fa8" stroke-width="0.6" stroke-linejoin="round">
<path data-code="BE-VWV" data-name="West Flanders" d="M26.19,249.74L21.93,248.80L17.17,242.38L18.57,237.45L15.78,227.71L20.69,221.11L20.23,216.70L12.97,207.81L10.15,193.73L8.00,188.64L16.21,184.81L35.37,170.45L93.15,134.90L124.86,124.79L126.08,133.33L125.39,144.01L127.39,149.59L132.01,154.21L127.34,157.11L129.75,162.87L126.33,165.27L130.17,166.52L133.46,172.31L128.39,181.85L122.21,185.84L138.19,197.13L135.13,199.31L139.35,206.51L135.65,211.97L138.07,215.22L133.71,217.18L140.51,220.56L137.67,220.51L139.81,222.63L135.49,223.15L136.60,225.70L134.70,227.56L135.86,230.61L139.13,228.61L141.33,229.52L142.45,233.69L139.13,237.08L147.87,244.58L146.04,246.87L149.30,251.32L148.95,252.93L133.80,264.14L126.84,272.52L121.15,269.45L121.35,266.41L118.35,262.14L112.35,263.04L106.54,259.73L98.51,263.58L93.77,257.11L90.11,256.00L78.88,259.51L77.56,251.32L75.36,249.89L67.14,253.20L69.90,257.61L64.57,259.80L63.96,261.85L59.94,262.64L57.93,260.79L53.24,263.37L56.70,274.64L45.41,269.47L42.80,267.28L39.35,259.96L34.10,254.95L32.01,250.50L26.19,249.74Z"><title>West Flanders</title></path>
<path data-code="BE-WHT" data-name="Hainaut" d="M59.55,275.40L56.70,274.64L53.24,263.37L57.93,260.79L59.94,262.64L63.96,261.85L64.57,259.80L69.90,257.61L67.14,253.20L75.36,249.89L77.56,251.32L78.88,259.51L68.23,263.85L59.55,275.40ZM126.50,321.32L117.86,317.40L113.79,313.07L112.84,303.47L107.97,284.56L109.94,280.85L108.33,275.56L107.21,273.51L102.21,271.31L98.51,263.58L106.54,259.73L112.35,263.04L118.35,262.14L121.35,266.41L121.15,269.45L126.84,272.52L133.80,264.14L140.13,259.45L145.29,261.59L150.92,259.92L151.85,266.90L161.18,267.07L165.13,269.81L170.88,258.70L174.93,256.44L176.41,259.42L182.52,256.83L184.90,263.79L190.55,263.14L192.44,265.00L200.40,263.25L201.89,267.08L200.90,270.76L201.58,273.24L206.59,276.92L215.14,277.16L217.99,274.89L220.68,275.76L223.99,274.03L224.98,275.54L226.99,271.79L232.60,273.13L230.02,273.89L229.46,276.75L229.62,284.95L231.00,288.86L236.75,289.40L242.75,282.68L245.48,286.27L244.76,290.91L252.30,292.82L251.52,297.45L256.11,298.41L259.66,303.93L263.83,303.51L263.43,309.16L266.96,305.20L274.97,304.34L276.44,305.88L282.81,305.83L283.10,312.45L287.75,310.02L287.58,312.09L289.66,313.02L298.16,309.41L295.64,320.36L300.70,319.08L299.60,321.14L301.35,323.53L299.46,328.72L297.55,329.06L298.92,330.62L297.58,331.98L303.70,335.66L301.59,340.30L299.34,340.98L302.26,344.41L298.84,350.12L299.73,358.45L290.18,360.02L287.60,356.69L283.67,357.05L280.79,362.06L272.96,360.95L271.81,365.10L269.27,364.98L267.45,368.31L262.71,368.63L257.10,372.78L264.58,379.03L268.28,375.94L273.28,378.15L271.57,385.27L272.71,388.45L267.56,392.45L272.97,401.97L271.13,405.76L271.25,414.65L271.87,418.28L274.15,419.09L275.28,430.63L279.41,439.14L277.10,444.78L255.92,438.88L245.12,440.46L235.31,435.59L236.43,435.69L234.81,428.75L236.11,424.47L246.37,416.68L242.21,401.79L234.48,401.59L238.93,382.82L245.15,376.42L245.48,374.11L242.87,371.11L239.70,369.45L237.94,370.21L238.04,373.15L237.00,374.19L234.41,372.96L230.54,364.60L217.19,353.67L202.02,357.83L194.16,353.41L182.13,353.16L179.08,355.18L173.92,363.84L168.96,359.16L166.50,331.15L161.41,324.27L155.12,322.04L146.00,321.98L144.25,320.68L145.84,316.42L142.89,314.64L136.12,318.65L126.50,321.32Z"><title>Hainaut</title></path>
<path data-code="BE-WNA" data-name="Namur" d="M334.11,398.20L332.52,397.53L331.87,394.22L328.07,395.99L313.01,411.41L311.81,415.34L312.82,419.31L311.74,426.40L309.44,432.45L302.03,434.43L282.35,444.33L277.10,444.78L279.41,439.14L275.28,430.63L274.15,419.09L271.87,418.28L271.25,414.65L271.13,405.76L272.97,401.97L267.56,392.45L272.71,388.45L271.57,385.27L273.28,378.15L268.28,375.94L264.58,379.03L257.10,372.78L262.71,368.63L267.45,368.31L269.27,364.98L271.81,365.10L272.96,360.95L280.79,362.06L283.67,357.05L287.60,356.69L290.18,360.02L299.73,358.45L298.84,350.12L302.26,344.41L299.34,340.98L301.59,340.30L303.70,335.66L297.58,331.98L298.92,330.62L297.55,329.06L299.46,328.72L301.35,323.53L299.60,321.14L300.70,319.08L295.64,320.36L298.16,309.41L297.65,305.64L302.54,303.41L307.68,305.24L310.85,304.53L309.21,297.62L310.77,294.97L316.08,297.73L316.73,295.28L320.38,294.27L321.27,298.73L326.96,296.50L328.54,298.86L328.72,295.60L343.86,291.60L344.00,290.23L347.75,290.56L350.98,286.21L355.46,287.23L354.97,292.57L361.83,299.09L365.45,309.75L362.80,311.75L370.68,312.19L372.79,317.42L378.08,316.19L376.17,318.04L377.16,321.55L379.95,321.14L379.24,323.07L380.81,325.72L385.59,323.80L388.64,326.89L391.25,332.80L389.05,337.16L390.79,340.02L397.79,341.93L397.63,346.03L399.59,348.76L407.33,343.53L413.33,345.58L414.57,348.45L411.61,352.43L413.61,355.06L405.94,360.82L407.02,361.97L408.78,359.42L412.05,359.19L413.50,362.73L413.36,366.09L399.50,376.66L396.47,374.87L393.32,377.02L393.68,379.63L389.61,379.37L386.99,381.22L392.42,384.27L390.89,386.47L392.59,386.48L392.38,388.75L397.39,394.64L396.08,398.64L392.06,399.95L395.65,403.33L394.94,405.71L391.15,405.33L384.32,408.68L371.09,409.61L368.10,408.56L367.27,402.34L365.19,410.87L366.42,412.14L364.93,415.89L360.32,420.75L357.66,419.86L356.67,423.30L353.99,423.23L357.43,426.63L359.25,433.87L366.75,433.41L368.05,436.41L372.17,438.57L371.65,443.51L374.71,446.61L367.62,449.48L364.02,452.93L366.38,455.32L355.79,463.05L355.19,464.98L356.39,469.24L354.57,469.78L353.45,475.10L341.56,477.95L336.60,475.72L336.63,467.42L334.60,462.66L338.06,454.08L338.18,449.27L335.98,445.19L329.29,442.40L327.41,439.29L333.45,422.04L333.52,415.81L336.18,409.90L338.56,411.37L339.83,399.01L338.53,397.28L334.11,398.20Z"><title>Namur</title></path>
<path data-code="BE-WLX" data-name="Luxembourg" d="M385.10,500.44L377.17,495.44L369.48,484.92L361.63,481.81L353.45,475.10L354.57,469.78L356.39,469.24L355.19,464.98L355.79,463.05L366.38,455.32L364.02,452.93L367.62,449.48L374.71,446.61L371.65,443.51L372.17,438.57L368.05,436.41L366.75,433.41L359.25,433.87L357.43,426.63L353.99,423.23L356.67,423.30L357.66,419.86L360.32,420.75L364.93,415.89L366.42,412.14L365.19,410.87L367.27,402.34L368.10,408.56L371.09,409.61L384.32,408.68L391.15,405.33L394.94,405.71L395.65,403.33L392.06,399.95L396.08,398.64L397.39,394.64L392.38,388.75L392.59,386.48L390.89,386.47L392.42,384.27L386.99,381.22L389.61,379.37L393.68,379.63L393.32,377.02L396.47,374.87L399.50,376.66L413.36,366.09L413.50,362.73L412.05,359.19L408.78,359.42L407.02,361.97L405.94,360.82L413.61,355.06L411.61,352.43L414.57,348.45L413.33,345.58L418.03,341.12L415.20,336.06L416.06,334.52L417.94,334.42L424.07,339.24L429.74,335.49L431.03,339.86L433.42,340.34L433.76,343.04L440.90,341.12L448.55,348.30L453.23,348.00L452.56,350.65L459.69,350.67L457.24,356.20L457.39,358.64L459.67,362.53L463.48,363.48L459.68,371.64L468.18,370.32L470.49,371.05L471.43,373.19L472.35,371.02L481.30,369.77L482.22,367.59L477.30,366.87L480.45,359.13L477.84,356.89L479.08,352.82L496.20,356.59L496.44,358.49L500.95,360.83L500.17,381.48L500.80,383.94L503.89,384.57L501.92,386.82L502.36,396.56L498.88,391.20L493.70,393.27L490.80,401.55L481.11,408.53L479.97,415.05L476.20,419.50L476.01,425.92L471.26,429.48L471.09,432.55L472.66,435.01L471.11,438.06L465.75,441.84L458.87,456.26L464.97,461.51L461.26,461.12L460.56,464.39L461.92,465.67L459.61,468.94L460.68,474.38L462.16,476.90L467.84,480.41L471.17,487.11L471.63,491.77L477.97,493.51L478.98,496.53L476.84,502.41L477.34,504.04L482.16,506.00L482.94,509.16L475.11,522.65L477.50,523.99L476.16,527.45L469.56,532.64L463.30,530.04L458.21,534.12L448.94,531.29L445.43,533.13L442.96,537.97L435.24,535.81L425.37,542.08L422.32,541.25L421.45,539.28L421.49,530.86L414.69,518.28L405.21,513.09L403.34,516.03L399.98,515.88L398.96,512.96L399.40,509.82L401.18,508.27L400.20,504.95L394.52,498.55L385.10,500.44Z"><title>Luxembourg</title></path>
<path data-code="BE-WLG" data-name="Liege" d="M504.57,397.09L502.36,396.56L501.92,386.82L503.89,384.57L500.80,383.94L500.17,381.48L500.95,360.83L496.44,358.49L496.20,356.59L479.08,352.82L477.84,356.89L480.45,359.13L477.30,366.87L482.22,367.59L481.30,369.77L472.35,371.02L471.43,373.19L470.49,371.05L468.18,370.32L459.68,371.64L463.48,363.48L459.67,362.53L457.39,358.64L457.24,356.20L459.69,350.67L452.56,350.65L453.23,348.00L448.55,348.30L440.90,341.12L433.76,343.04L433.42,340.34L431.03,339.86L429.74,335.49L424.07,339.24L417.94,334.42L416.06,334.52L415.20,336.06L418.03,341.12L413.33,345.58L407.33,343.53L399.59,348.76L397.63,346.03L397.79,341.93L390.79,340.02L389.05,337.16L391.25,332.80L388.64,326.89L385.59,323.80L380.81,325.72L379.24,323.07L379.95,321.14L377.16,321.55L376.17,318.04L378.08,316.19L372.79,317.42L370.68,312.19L362.80,311.75L365.45,309.75L361.83,299.09L354.97,292.57L355.46,287.23L358.17,282.17L358.03,275.59L360.26,274.00L356.79,269.04L360.16,267.23L360.62,263.13L364.07,265.15L364.00,269.09L366.32,272.09L381.60,275.27L383.40,273.07L381.84,269.43L390.24,270.50L391.26,268.39L392.28,270.91L396.83,268.12L401.32,270.58L402.01,268.07L404.81,265.57L411.32,263.37L413.23,264.20L414.98,268.56L421.92,269.72L423.03,265.79L425.81,268.80L428.07,268.26L431.88,264.95L431.61,261.33L443.84,257.70L450.75,250.77L456.82,253.45L455.12,261.16L459.22,262.94L461.39,261.60L463.86,264.26L467.48,263.29L473.46,271.20L483.15,271.70L486.43,266.68L483.77,263.29L498.40,263.58L498.30,265.21L500.65,266.43L500.75,272.77L510.56,271.66L521.86,287.49L519.98,288.70L521.63,291.89L524.54,293.41L534.28,293.65L534.60,294.98L532.01,299.71L524.40,305.30L521.81,309.38L524.16,312.35L523.24,315.07L526.02,315.68L524.90,317.59L528.37,322.09L535.20,320.25L546.69,323.27L544.76,326.60L545.94,330.84L548.70,333.80L546.80,348.33L551.71,356.91L552.00,360.01L550.23,361.90L539.49,362.59L537.16,366.44L537.49,370.68L525.89,376.16L521.31,380.60L519.85,382.52L521.73,384.64L522.43,389.66L520.54,392.45L516.51,393.43L515.47,397.75L517.40,400.28L515.71,403.30L513.61,402.35L512.83,396.45L511.01,394.67L504.57,397.09Z"><title>Liege</title></path>
<path data-code="BE-VOV" data-name="East Flanders" d="M131.83,153.76L139.61,155.77L146.29,154.74L146.60,147.26L148.15,145.69L161.59,143.60L185.12,151.58L185.85,159.27L189.71,162.50L206.42,162.29L233.52,147.61L240.52,142.18L246.08,134.69L247.99,126.39L250.76,128.92L252.88,135.17L260.02,143.76L259.85,146.68L257.47,150.84L260.47,160.37L259.24,161.15L262.66,166.02L263.75,170.40L261.34,178.73L247.20,181.10L242.42,185.90L244.45,195.97L243.42,198.34L246.69,200.51L249.46,198.24L250.66,199.62L247.37,210.26L244.13,211.73L239.56,210.16L237.41,214.60L239.34,223.63L236.07,225.92L229.61,223.20L230.86,227.49L227.12,230.26L229.16,232.06L229.02,234.40L222.43,243.93L226.04,244.60L227.29,247.86L225.24,254.10L218.60,258.65L216.62,256.80L214.20,259.82L210.55,256.95L208.81,257.93L207.00,261.88L209.75,267.09L205.18,268.26L201.89,267.08L200.40,263.25L192.44,265.00L190.55,263.14L184.90,263.79L182.52,256.83L176.41,259.42L174.93,256.44L170.88,258.70L165.13,269.81L161.18,267.07L151.85,266.90L150.92,259.92L145.29,261.59L140.13,259.45L148.95,252.93L149.30,251.32L146.04,246.87L147.87,244.58L139.13,237.08L142.45,233.69L141.33,229.52L139.13,228.61L135.86,230.61L134.70,227.56L136.60,225.70L135.49,223.15L139.81,222.63L137.67,220.51L140.51,220.56L133.71,217.18L138.07,215.22L135.65,211.97L139.35,206.51L135.13,199.31L138.19,197.13L122.21,185.84L128.39,181.85L133.46,172.31L130.17,166.52L126.33,165.27L129.75,162.87L127.34,157.11L131.83,153.76Z"><title>East Flanders</title></path>
<path data-code="BE-VAN" data-name="Antwerp" d="M324.62,97.92L331.60,100.61L333.06,102.50L333.36,105.84L331.86,112.39L332.88,116.25L326.72,113.42L325.13,113.65L324.33,116.32L337.20,117.92L345.26,121.08L351.87,116.84L357.33,108.92L359.63,102.79L361.81,102.24L366.43,105.53L369.20,110.73L367.13,117.97L366.64,122.78L367.54,124.94L372.40,130.24L375.28,138.51L385.78,139.63L388.26,142.74L388.34,150.64L391.73,151.04L390.03,152.43L388.49,160.91L394.23,166.24L394.69,175.21L391.15,178.32L386.59,176.99L383.39,181.61L376.31,181.98L370.61,189.16L359.30,191.40L359.29,194.44L355.22,200.08L353.27,197.76L350.62,197.92L341.38,203.44L339.65,202.59L332.30,205.61L330.49,204.40L328.08,199.17L323.47,202.66L320.35,202.00L314.84,208.12L316.44,204.61L312.65,202.56L302.35,205.30L300.51,209.82L293.84,207.16L291.28,209.53L286.51,205.91L283.95,209.76L280.80,206.56L272.22,208.64L271.54,205.34L268.90,204.53L270.25,201.17L265.85,204.09L264.93,203.65L265.88,202.07L258.92,198.97L250.66,199.62L249.46,198.24L246.69,200.51L243.42,198.34L244.45,195.97L242.89,184.93L247.20,181.10L261.34,178.73L263.11,175.27L263.40,168.82L259.24,161.15L260.47,160.37L257.47,150.84L263.43,142.35L257.57,139.45L256.69,130.37L253.58,126.08L272.10,130.29L274.79,128.89L275.49,125.06L270.36,117.17L271.68,111.61L269.97,109.77L277.35,105.53L289.10,102.11L292.01,104.28L290.36,112.93L293.06,114.83L305.69,115.24L309.05,113.47L319.97,100.28L324.62,97.92Z"><title>Antwerp</title></path>
<path data-code="BE-VLI" data-name="Limburg" d="M435.78,159.96L446.17,164.37L450.97,168.32L461.11,167.29L468.25,174.24L474.99,173.34L476.60,177.24L474.16,181.71L477.37,185.12L471.58,186.62L472.54,189.80L470.72,194.42L469.65,195.86L466.85,195.17L465.80,200.26L467.71,202.84L459.92,217.08L465.80,217.08L459.92,227.68L455.98,229.45L445.79,240.78L446.10,245.74L450.75,250.77L443.84,257.70L431.61,261.33L431.88,264.95L428.07,268.26L425.81,268.80L423.03,265.79L421.92,269.72L418.77,270.03L414.98,268.56L413.23,264.20L411.32,263.37L404.81,265.57L402.01,268.07L401.32,270.58L396.83,268.12L392.28,270.91L391.26,268.39L390.24,270.50L381.84,269.43L383.40,273.07L381.60,275.27L372.19,272.49L374.93,266.66L372.20,265.05L374.09,260.55L372.94,256.47L379.32,249.88L376.20,248.78L377.19,241.31L379.55,234.79L382.98,235.01L384.21,228.87L382.16,227.09L377.21,227.03L376.72,225.27L371.27,227.83L368.91,225.26L366.56,226.27L363.78,220.70L369.45,215.70L369.58,210.79L375.48,208.11L374.57,202.89L375.96,202.53L376.69,204.30L380.27,202.85L376.44,197.98L373.30,196.56L369.34,197.07L369.36,202.64L366.84,204.20L363.92,202.40L361.09,203.49L358.81,199.10L355.22,200.08L359.29,194.44L359.30,191.40L370.61,189.16L376.31,181.98L383.39,181.61L386.59,176.99L391.15,178.32L394.69,175.21L394.23,166.24L388.49,160.91L390.03,152.43L391.73,151.04L412.85,150.65L424.51,144.13L427.56,144.47L433.49,149.91L435.78,159.96ZM464.16,258.36L469.91,263.08L482.16,262.77L486.43,266.68L481.92,272.22L478.52,270.47L473.46,271.20L467.48,263.29L463.86,264.26L461.39,261.60L464.16,258.36Z"><title>Limburg</title></path>
<path data-code="BE-BRU" data-name="Brussels" d="M284.46,253.48L269.99,260.31L262.98,257.13L259.25,249.27L256.68,250.60L251.39,247.66L253.07,244.27L256.66,243.67L257.55,239.94L256.11,237.42L258.79,232.16L263.97,229.57L270.00,230.58L273.66,226.98L278.31,232.64L278.24,234.78L276.03,237.04L281.70,240.65L283.94,247.68L280.95,248.07L279.76,250.02L284.46,253.48Z"><title>Brussels</title></path>
<path data-code="BE-VBR" data-name="Flemish Brabant" d="M230.80,273.08L226.99,271.79L224.98,275.54L223.99,274.03L220.68,275.76L217.99,274.89L215.14,277.16L206.59,276.92L203.58,275.84L200.90,270.76L201.89,267.08L205.18,268.26L209.75,267.09L207.00,261.88L208.81,257.93L210.55,256.95L214.20,259.82L216.62,256.80L218.60,258.65L225.24,254.10L227.29,247.86L226.04,244.60L222.43,243.93L229.02,234.40L229.16,232.06L227.12,230.26L230.86,227.49L229.61,223.20L236.07,225.92L239.34,223.63L237.41,214.60L239.56,210.16L244.13,211.73L247.37,210.26L250.66,199.62L258.92,198.97L265.88,202.07L264.93,203.65L265.85,204.09L270.25,201.17L268.90,204.53L271.54,205.34L272.22,208.64L280.80,206.56L283.95,209.76L286.51,205.91L291.28,209.53L293.84,207.16L300.51,209.82L302.35,205.30L312.65,202.56L316.44,204.61L314.84,208.12L320.35,202.00L323.47,202.66L328.08,199.17L330.49,204.40L332.30,205.61L339.65,202.59L341.38,203.44L345.17,200.10L353.27,197.76L355.22,200.08L358.81,199.10L361.09,203.49L363.92,202.40L366.84,204.20L369.36,202.64L369.34,197.07L373.30,196.56L376.44,197.98L380.27,202.85L376.69,204.30L375.96,202.53L374.57,202.89L375.48,208.11L369.58,210.79L369.45,215.70L363.78,220.70L366.56,226.27L368.91,225.26L371.27,227.83L376.72,225.27L377.21,227.03L382.16,227.09L384.21,228.87L382.98,235.01L379.55,234.79L377.19,241.31L376.20,248.78L379.32,249.88L372.94,256.47L374.09,260.55L372.20,265.05L374.93,266.66L372.19,272.49L366.32,272.09L364.00,269.09L364.07,265.15L355.30,258.91L346.23,264.72L344.44,263.21L344.94,259.22L334.28,260.31L334.89,257.90L331.50,257.59L328.48,252.58L322.57,250.54L318.79,251.89L317.56,254.72L317.01,253.06L314.52,254.46L307.16,252.56L306.57,258.24L309.15,261.70L306.41,264.88L301.70,265.13L300.95,260.30L297.62,263.93L291.44,265.38L291.12,268.12L286.63,265.54L286.55,261.87L284.50,261.57L276.27,266.55L269.48,267.60L268.67,270.95L266.00,270.75L263.30,267.05L262.27,268.22L263.77,270.43L260.69,270.49L260.32,273.87L257.28,275.72L253.37,274.42L250.61,276.43L246.01,272.64L242.17,272.72L237.76,267.92L235.33,270.90L231.90,270.84L230.80,273.08ZM284.46,253.48L279.76,250.02L280.95,248.07L283.94,247.68L281.70,240.65L276.03,237.04L278.24,234.78L278.31,232.64L273.66,226.98L270.00,230.58L263.97,229.57L258.79,232.16L256.11,237.42L257.55,239.94L256.66,243.67L253.07,244.27L251.39,247.66L256.68,250.60L259.25,249.27L262.98,257.13L269.99,260.31L284.46,253.48Z"><title>Flemish Brabant</title></path>
<path data-code="BE-WBR" data-name="Walloon Brabant" d="M230.80,273.08L231.90,270.84L235.33,270.90L237.76,267.92L242.17,272.72L246.01,272.64L250.61,276.43L253.37,274.42L257.28,275.72L260.32,273.87L260.69,270.49L263.77,270.43L262.27,268.22L263.30,267.05L266.00,270.75L268.67,270.95L269.48,267.60L276.27,266.55L284.50,261.57L286.55,261.87L286.63,265.54L291.12,268.12L291.44,265.38L297.62,263.93L300.95,260.30L301.70,265.13L306.41,264.88L309.15,261.70L306.57,258.24L307.16,252.56L314.52,254.46L317.01,253.06L317.56,254.72L318.79,251.89L322.57,250.54L328.48,252.58L331.50,257.59L334.89,257.90L334.28,260.31L344.94,259.22L344.44,263.21L346.23,264.72L355.30,258.91L360.62,263.13L360.16,267.23L356.79,269.04L360.26,274.00L358.03,275.59L358.17,282.17L355.46,287.23L350.98,286.21L347.75,290.56L344.00,290.23L343.86,291.60L328.72,295.60L328.54,298.86L326.96,296.50L321.27,298.73L320.38,294.27L316.73,295.28L316.08,297.73L310.77,294.97L309.21,297.62L310.85,304.53L300.05,303.75L297.65,305.64L298.16,309.41L289.66,313.02L287.58,312.09L287.75,310.02L283.10,312.45L282.81,305.83L276.44,305.88L274.97,304.34L266.96,305.20L263.43,309.16L263.83,303.51L259.66,303.93L256.11,298.41L251.52,297.45L252.30,292.82L244.76,290.91L245.48,286.27L242.75,282.68L236.75,289.40L231.00,288.86L229.62,284.95L229.46,276.75L230.02,273.89L232.60,273.13L230.80,273.08Z"><title>Walloon Brabant</title></path>
  </g>
</svg>
