<?xml version="1.0" encoding="UTF-8"?>
<svg xmlns="http://www.w3.org/2000/svg" viewBox="0 0 560 640" class="pref-muni-svg" role="img" aria-label="行政区分">
  <g class="pref-muni-svg__paths" fill="#eaf2fb" stroke="#5b7fa8" stroke-width="0.6" stroke-linejoin="round">
<path data-code="BO-L" data-name="La Paz" d="M24.79,398.52L23.54,397.36L22.81,390.59L21.69,388.43L15.55,382.02L14.42,370.30L11.09,367.12L8.00,366.55L9.95,361.78L11.19,361.50L14.97,358.36L18.66,357.19L19.61,356.08L19.28,354.19L21.47,352.75L23.18,349.55L27.71,344.72L29.59,340.56L32.72,339.76L36.06,337.84L37.35,336.17L35.93,333.71L36.47,327.80L37.64,326.35L44.14,323.58L45.14,321.99L44.69,320.74L41.34,319.09L38.52,316.46L35.33,316.39L32.33,317.45L29.47,315.77L27.92,313.80L18.54,289.35L21.83,283.55L22.41,280.80L24.97,279.09L24.73,276.55L26.31,274.81L27.79,274.29L28.39,272.50L30.31,272.52L31.11,271.09L24.85,264.99L20.58,259.41L21.32,255.64L21.20,251.04L22.60,249.79L25.78,248.67L27.25,240.48L30.12,240.63L30.39,237.17L38.15,231.41L37.00,228.72L37.26,225.23L38.39,224.41L42.90,223.63L43.76,222.69L41.92,215.63L38.48,212.51L38.03,207.76L36.69,204.80L37.01,202.34L33.19,198.32L33.81,197.26L35.75,197.45L36.65,196.85L36.68,195.08L38.36,192.91L39.02,190.65L39.38,180.53L38.32,162.27L43.22,155.97L48.14,153.91L49.18,151.83L47.29,150.91L46.93,149.71L49.93,147.19L51.56,143.82L54.23,143.70L56.36,139.81L57.41,139.59L59.57,140.76L61.04,140.26L64.91,132.17L70.19,129.33L71.33,128.04L72.71,121.83L81.73,119.51L83.48,116.48L130.11,138.66L129.64,140.41L130.12,145.31L128.38,147.91L129.18,152.06L126.71,162.76L124.56,168.09L121.54,169.08L119.80,172.35L118.28,173.38L117.71,175.15L111.88,181.50L109.25,186.05L110.79,194.01L105.86,200.36L104.93,203.18L105.37,206.22L104.19,208.23L102.99,213.73L104.44,225.82L101.56,229.15L103.15,234.39L105.14,237.57L104.69,239.41L102.99,241.61L104.41,244.88L107.83,248.84L107.53,255.44L108.27,258.79L110.67,260.82L114.35,261.35L118.91,267.93L121.74,273.72L121.54,277.35L122.10,278.84L124.40,280.31L125.75,282.40L136.50,292.74L129.81,299.49L130.54,300.39L129.37,303.17L129.12,309.39L132.60,314.66L132.66,316.71L134.25,317.37L135.83,319.87L135.09,329.14L137.33,334.09L137.66,341.13L135.89,343.65L129.91,345.50L127.87,349.19L127.88,351.48L126.21,355.34L127.12,356.82L129.17,357.64L131.20,360.57L132.01,366.70L133.56,370.69L132.69,372.45L133.94,374.90L127.34,378.77L123.16,373.10L121.54,371.90L113.41,373.84L93.41,386.92L94.23,390.98L92.46,393.23L90.81,393.12L82.05,386.53L76.04,383.77L67.73,383.05L62.39,383.46L57.69,385.43L49.68,393.96L43.62,398.07L34.05,401.42L33.61,400.69L30.69,400.80L27.25,399.28L26.03,397.94L24.79,398.52Z"><title>La Paz</title></path>
<path data-code="BO-O" data-name="Oruro" d="M38.18,443.58L39.51,441.78L39.88,439.90L37.25,434.19L37.56,432.25L36.21,429.78L36.18,421.83L34.25,418.14L33.24,410.49L31.42,408.29L30.79,406.12L33.74,403.47L34.05,401.42L45.89,396.84L51.25,392.51L57.69,385.43L62.39,383.46L67.73,383.05L76.04,383.77L82.05,386.53L90.81,393.12L92.46,393.23L94.23,390.98L93.19,387.47L94.25,386.27L113.41,373.84L120.98,371.79L123.16,373.10L127.34,378.77L135.44,385.11L141.14,393.29L143.61,399.20L142.31,400.88L138.72,402.11L138.11,407.17L138.65,409.28L140.95,410.64L148.22,411.34L141.17,416.24L140.69,422.57L142.89,427.06L149.05,432.05L155.84,433.75L158.79,435.18L163.36,445.87L169.67,454.09L168.98,455.29L167.15,455.77L151.24,457.28L139.01,466.57L102.28,482.40L96.24,484.43L93.91,484.38L89.80,483.59L56.59,472.29L59.56,467.97L62.35,466.25L62.02,465.36L55.55,460.15L52.73,458.77L51.16,456.08L45.95,451.32L41.80,449.22L39.42,444.64L38.18,443.58Z"><title>Oruro</title></path>
<path data-code="BO-P" data-name="Potosí" d="M55.68,495.15L56.69,494.15L58.02,489.48L57.62,485.91L50.85,480.15L51.53,478.36L56.59,472.29L89.80,483.59L96.24,484.43L139.01,466.57L151.24,457.28L167.15,455.77L169.42,454.96L168.87,452.60L163.36,445.87L161.65,442.64L159.31,435.72L155.84,433.75L149.05,432.05L143.24,427.61L140.69,422.57L141.17,416.24L148.22,411.34L140.95,410.64L138.65,409.28L138.11,407.17L138.72,402.11L142.31,400.88L143.61,399.20L147.65,398.54L156.03,399.08L163.67,393.42L170.65,393.21L174.14,398.74L178.46,398.14L187.42,405.61L189.52,409.07L193.31,412.00L196.61,416.76L200.59,418.83L198.59,419.50L193.63,417.63L191.35,418.43L189.96,417.03L186.77,416.53L186.07,415.65L185.19,416.10L185.59,419.17L188.04,420.90L188.23,421.74L188.04,425.89L188.97,430.92L187.00,433.29L186.99,434.39L195.67,431.34L197.17,432.24L196.57,434.51L193.49,437.37L195.11,441.65L191.95,446.66L193.50,450.41L195.48,452.01L196.13,454.37L203.01,460.47L205.01,460.85L210.25,463.68L217.68,462.34L219.63,463.28L221.92,467.15L221.83,471.48L227.35,480.08L221.96,486.40L213.55,491.06L205.89,492.11L202.10,494.48L202.02,497.56L199.62,501.95L199.74,505.01L202.87,517.31L197.22,531.38L196.93,537.23L195.02,543.67L194.80,552.53L195.62,554.53L201.91,561.16L205.59,563.83L205.43,566.34L203.16,570.48L201.42,576.26L203.74,578.48L206.64,582.93L208.35,589.97L195.67,590.13L190.21,589.43L182.87,590.71L181.50,590.29L174.48,582.84L169.40,581.60L168.64,579.10L167.27,577.65L161.56,575.52L160.78,575.77L157.76,588.99L156.53,589.24L154.65,591.32L143.53,594.36L142.88,595.29L140.30,594.74L138.67,595.87L136.23,603.45L136.47,605.28L129.78,607.74L127.87,609.68L125.43,609.78L125.70,615.11L121.84,618.40L118.25,623.61L102.50,626.87L91.06,626.23L89.75,624.44L87.34,623.44L87.15,618.66L88.58,610.84L84.45,600.93L85.21,597.11L83.35,592.84L84.06,590.19L78.01,583.28L77.51,575.64L76.58,572.05L73.46,565.53L73.67,554.22L73.05,552.17L63.74,537.10L62.06,536.16L59.56,536.18L57.55,534.96L56.80,533.03L56.77,527.02L57.77,524.98L60.83,522.38L60.86,521.53L51.74,516.52L48.18,512.08L48.52,509.43L52.05,507.78L49.78,503.13L49.92,499.52L47.10,498.36L46.96,497.46L53.19,495.03L55.68,495.15Z"><title>Potosí</title></path>
<path data-code="BO-T" data-name="Tarija" d="M320.83,596.30L319.54,594.46L314.89,591.49L314.10,586.04L313.33,585.45L276.73,585.30L274.30,585.97L272.23,587.76L268.98,585.56L263.63,585.50L260.46,590.03L258.38,596.06L256.81,597.39L253.49,605.78L249.47,610.53L246.15,625.92L245.32,625.53L244.79,620.34L240.42,615.28L241.56,610.61L238.44,607.38L236.96,605.19L237.26,603.31L235.15,601.36L236.45,598.21L234.49,595.30L231.32,593.70L226.66,593.52L223.54,591.80L215.16,589.90L207.57,589.99L208.35,589.97L206.64,582.93L203.74,578.48L201.42,576.26L203.16,570.48L205.56,565.76L208.40,537.20L209.08,536.44L211.17,537.22L212.57,536.88L214.56,538.98L219.54,539.97L223.66,543.49L226.09,542.39L227.21,538.30L229.32,535.66L232.09,536.51L236.98,543.14L240.78,542.83L244.64,545.22L250.29,545.56L251.78,544.08L252.84,533.92L254.29,535.08L257.34,534.98L258.27,536.42L260.63,536.37L260.21,537.36L261.41,538.81L337.70,538.98L337.53,542.05L320.83,596.30Z"><title>Tarija</title></path>
<path data-code="BO-S" data-name="Santa Cruz" d="M534.43,491.59L532.83,493.63L530.00,493.73L523.56,499.20L521.10,500.18L521.85,492.55L520.36,484.21L480.48,459.60L438.72,459.91L360.83,476.06L352.31,497.35L340.44,514.40L292.49,514.58L291.73,514.29L288.81,509.11L286.73,511.24L284.41,512.04L282.84,513.90L276.17,513.42L273.72,492.69L272.90,490.79L271.01,458.66L272.19,448.12L271.78,447.38L266.33,447.28L265.26,448.66L264.85,452.05L263.90,453.62L261.84,454.16L259.93,453.52L257.77,446.05L255.29,443.98L252.09,443.24L250.81,439.82L247.77,437.43L246.41,433.77L246.39,431.15L245.48,430.13L247.58,427.06L247.18,422.82L241.92,419.16L240.78,416.16L240.98,414.76L238.88,410.77L234.38,404.95L232.06,399.85L228.97,395.46L229.89,393.43L235.49,387.80L242.57,377.33L242.98,374.35L245.52,372.70L250.64,372.48L251.01,369.87L250.03,367.60L243.90,361.27L238.21,357.95L234.28,354.10L231.78,352.97L227.58,348.44L225.78,342.30L224.64,340.60L227.17,335.10L225.95,333.99L225.88,332.54L228.41,329.52L230.24,324.10L229.60,322.68L230.51,320.93L229.45,320.86L230.51,319.02L230.45,314.56L231.15,312.19L229.90,309.34L229.95,305.31L228.08,303.11L229.27,302.60L230.51,303.11L229.27,300.89L231.03,300.78L231.34,299.76L291.09,302.72L288.08,301.66L286.48,300.04L285.58,296.22L283.01,292.40L277.43,289.40L275.36,287.21L274.56,283.71L271.44,281.44L266.75,274.10L262.89,264.23L263.56,261.55L263.32,252.47L262.30,248.06L279.81,242.54L367.97,190.90L369.85,192.35L371.97,192.82L373.96,192.61L378.91,190.29L383.33,191.71L387.77,191.50L389.12,189.86L392.31,188.93L392.57,191.29L393.43,192.22L399.02,193.04L403.24,195.42L409.90,200.74L412.76,201.94L413.36,202.92L417.93,204.42L418.99,209.01L421.74,213.03L420.30,217.38L417.89,219.25L418.30,226.74L421.55,230.39L423.91,238.55L422.54,239.02L425.99,243.07L426.97,264.13L426.74,264.68L413.04,264.85L428.02,282.47L430.98,317.02L431.84,319.01L507.45,322.09L509.38,321.50L510.66,319.68L512.58,319.73L513.26,324.67L511.96,326.99L512.90,328.69L512.30,330.38L507.85,335.46L506.76,338.47L507.98,345.79L507.39,347.92L510.06,358.27L510.38,364.19L511.18,365.57L517.85,368.48L519.08,370.69L521.39,371.57L527.72,376.23L530.69,377.21L535.45,376.90L537.06,377.94L537.72,384.63L540.46,387.38L540.08,388.86L541.69,391.49L541.61,392.32L540.21,392.46L548.19,408.14L552.00,409.72L551.95,410.74L548.88,410.78L547.49,411.51L537.88,441.90L540.13,442.44L540.85,448.13L537.58,448.81L522.62,479.97L522.96,481.27L534.43,491.59Z"><title>Santa Cruz</title></path>
<path data-code="BO-H" data-name="Chuquisaca" d="M340.44,514.40L337.46,519.44L337.70,538.98L261.41,538.81L260.21,537.36L260.63,536.37L258.27,536.42L257.34,534.98L254.29,535.08L252.84,533.92L251.78,544.08L250.29,545.56L244.64,545.22L240.78,542.83L236.98,543.14L232.09,536.51L229.58,535.71L228.66,535.98L227.21,538.30L226.09,542.39L223.66,543.49L219.54,539.97L214.56,538.98L212.57,536.88L211.17,537.22L209.08,536.44L208.29,537.49L205.59,563.83L201.91,561.16L195.62,554.53L194.80,552.53L195.02,543.67L196.93,537.23L197.22,531.38L202.87,517.31L199.74,505.01L199.62,501.95L202.02,497.56L202.10,494.48L205.89,492.11L213.55,491.06L221.96,486.40L227.35,480.08L221.83,471.48L221.92,467.15L219.63,463.28L217.68,462.34L210.25,463.68L205.01,460.85L203.01,460.47L196.13,454.37L195.48,452.01L193.50,450.41L191.95,446.66L195.11,441.65L193.49,437.37L196.57,434.51L197.17,432.24L195.67,431.34L186.99,434.39L187.00,433.29L188.97,430.92L188.04,425.89L188.23,421.74L188.04,420.90L185.59,419.17L185.19,416.10L186.07,415.65L186.77,416.53L189.96,417.03L191.35,418.43L193.63,417.63L198.59,419.50L200.73,419.24L201.04,420.60L202.42,420.60L202.98,422.62L204.91,424.24L205.75,428.24L209.05,428.11L212.49,430.08L213.62,429.53L214.96,426.37L217.64,424.29L224.27,422.12L226.24,423.82L230.11,424.70L235.03,430.58L238.63,430.56L242.19,427.93L244.16,427.90L246.39,431.15L246.41,433.77L248.09,437.99L250.81,439.82L252.09,443.24L255.29,443.98L257.77,446.05L260.34,453.89L262.65,454.10L264.33,453.21L265.26,448.66L266.33,447.28L271.78,447.38L272.19,448.12L271.01,458.66L272.90,490.79L273.72,492.69L276.17,513.42L282.84,513.90L284.41,512.04L286.73,511.24L288.81,509.11L291.73,514.29L292.49,514.58L340.44,514.40Z"><title>Chuquisaca</title></path>
<path data-code="BO-N" data-name="Pando" d="M196.34,13.13L198.32,13.45L199.55,14.56L200.90,18.23L202.73,20.63L201.05,26.48L203.37,37.61L201.45,42.61L199.79,43.43L198.47,46.21L195.37,46.88L192.60,50.60L186.98,54.03L186.02,54.55L182.12,54.20L182.49,58.98L181.03,60.58L177.89,61.59L176.02,59.58L174.97,59.70L174.05,61.42L176.53,63.53L176.16,65.71L170.96,64.67L166.67,67.05L167.25,67.87L169.10,67.55L169.46,68.30L167.45,73.06L166.06,72.97L165.65,73.61L164.91,78.20L163.85,79.14L161.77,78.99L162.05,82.56L159.70,86.25L159.54,87.33L160.64,88.99L160.12,89.86L157.70,90.45L157.35,92.38L152.90,93.07L149.32,95.00L146.30,94.64L141.20,95.33L140.68,99.42L139.34,101.56L139.59,104.90L138.97,105.79L135.95,106.31L134.22,108.26L131.11,108.61L132.38,111.41L131.87,112.46L130.56,113.56L128.20,113.89L128.03,114.83L128.62,116.75L129.88,116.81L131.48,119.32L132.36,123.92L131.47,127.97L131.82,131.27L130.49,134.32L131.12,136.77L130.11,138.66L83.48,116.48L81.73,119.51L72.71,121.83L71.33,128.04L70.19,129.33L64.91,132.17L61.04,140.26L59.57,140.76L57.41,139.59L56.36,139.81L54.23,143.70L51.56,143.82L11.96,72.24L15.29,72.38L20.06,71.43L33.84,72.93L37.85,74.53L42.89,75.21L46.43,74.20L48.52,75.01L47.03,78.41L47.71,80.98L54.85,79.68L58.40,77.31L63.21,76.48L65.44,74.68L69.23,73.48L77.31,61.17L80.35,58.98L88.43,58.60L93.19,61.18L94.71,60.77L96.36,56.36L100.82,51.31L106.02,49.01L108.24,45.72L111.61,45.30L111.83,43.15L112.47,42.81L118.66,43.18L120.13,41.42L124.02,39.94L131.23,32.33L137.12,27.66L142.05,25.46L142.83,23.72L148.57,22.61L152.19,22.71L162.98,18.75L166.21,18.99L167.60,17.99L170.16,19.10L173.84,17.38L177.61,17.87L178.88,16.77L180.11,17.99L180.91,15.60L181.62,17.26L184.41,16.67L184.27,18.44L185.79,18.22L188.03,19.96L190.03,20.44L193.29,15.65L196.34,13.13Z"><title>Pando</title></path>
<path data-code="BO-B" data-name="El Beni" d="M198.47,46.21L198.80,46.89L197.74,48.87L196.00,49.74L196.93,54.08L196.64,57.07L198.82,59.10L199.07,60.43L198.02,65.13L201.48,67.51L202.73,73.62L200.82,75.98L200.86,79.40L198.47,81.58L198.31,82.72L200.01,84.62L198.74,86.21L198.80,87.34L201.51,89.68L200.25,92.21L201.82,96.58L203.03,97.90L204.58,97.46L206.14,98.49L206.29,101.60L208.60,103.04L207.44,103.83L207.32,108.91L209.31,110.36L210.09,107.09L211.01,106.53L211.00,108.02L213.14,109.43L214.35,112.48L214.56,115.32L216.15,116.67L215.34,119.44L216.18,120.73L225.32,122.42L227.80,126.47L227.68,127.62L228.72,127.71L228.98,126.10L229.89,125.75L229.93,128.05L231.01,129.31L234.19,130.94L238.83,132.03L239.78,133.57L238.81,138.26L240.48,139.04L243.01,142.15L247.38,142.54L247.83,143.99L251.06,142.91L254.20,145.08L255.31,143.65L256.00,144.46L258.67,144.55L259.63,145.89L261.88,145.24L264.16,146.19L266.77,142.70L269.51,142.04L275.91,142.99L281.07,146.36L283.58,146.80L286.00,150.49L291.06,153.51L294.72,153.35L299.15,150.34L301.89,151.22L303.30,154.31L302.96,155.38L304.58,157.03L305.77,160.10L307.24,160.74L308.41,160.20L311.26,164.36L312.76,164.80L314.61,167.38L315.47,167.84L315.56,166.92L319.21,165.73L320.79,167.01L321.22,168.75L325.10,170.46L328.78,170.53L330.77,173.14L332.80,173.85L336.88,173.95L340.40,172.94L342.07,173.89L342.14,172.83L342.59,172.96L343.59,174.18L344.71,174.33L345.40,179.55L349.68,184.10L355.52,188.54L357.12,192.47L361.64,192.35L364.63,191.16L367.97,190.90L279.81,242.54L262.30,248.06L263.32,252.47L263.56,261.55L262.89,264.23L266.75,274.10L271.44,281.44L274.56,283.71L275.36,287.21L277.43,289.40L283.01,292.40L285.58,296.22L286.48,300.04L288.08,301.66L290.95,302.83L230.15,299.41L208.76,302.39L207.42,303.32L203.88,310.05L201.31,319.67L200.03,321.77L195.75,323.84L180.20,328.34L176.55,328.37L168.38,326.22L160.81,321.43L150.93,310.15L149.03,305.40L125.75,282.40L124.40,280.31L122.10,278.84L121.54,277.35L121.74,273.72L118.91,267.93L114.83,261.95L113.84,260.97L110.67,260.82L108.27,258.79L107.53,255.44L107.83,248.84L104.41,244.88L102.99,241.61L104.69,239.41L105.14,237.57L103.15,234.39L101.56,229.15L104.44,225.82L102.99,213.73L104.19,208.23L105.37,206.22L104.93,203.18L105.86,200.36L110.79,194.01L109.25,186.05L111.88,181.50L117.71,175.15L118.28,173.38L119.80,172.35L121.54,169.08L124.56,168.09L126.71,162.76L129.18,152.06L128.38,147.91L130.12,145.31L129.64,140.41L131.12,136.77L130.49,134.32L131.82,131.27L131.47,127.97L132.36,123.92L131.48,119.32L129.88,116.81L128.62,116.75L128.20,113.89L130.56,113.56L131.87,112.46L132.38,111.41L131.11,108.61L134.22,108.26L135.95,106.31L138.97,105.79L139.59,104.90L139.34,101.56L140.68,99.42L141.20,95.33L146.30,94.64L149.32,95.00L152.90,93.07L157.35,92.38L157.70,90.45L160.12,89.86L160.64,88.99L159.54,87.33L159.70,86.25L162.05,82.56L161.77,78.99L163.85,79.14L164.91,78.20L165.65,73.61L166.06,72.97L167.45,73.06L169.46,68.30L169.10,67.55L167.25,67.87L166.67,67.05L170.96,64.67L176.16,65.71L176.53,63.53L174.05,61.42L174.97,59.70L176.02,59.58L177.89,61.59L181.03,60.58L182.49,58.98L182.12,54.20L186.02,54.55L192.60,50.60L195.37,46.88L198.47,46.21Z"><title>El Beni</title></path>
<path data-code="BO-C" data-name="Cochabamba" d="M127.34,378.77L133.94,374.90L132.69,372.45L133.56,370.69L132.01,366.70L131.47,361.29L129.17,357.64L126.43,356.18L126.34,354.38L127.88,351.48L128.18,348.38L129.91,345.50L135.89,343.65L137.66,341.13L137.33,334.09L135.09,329.14L135.83,319.87L134.25,317.37L132.66,316.71L132.60,314.66L129.12,309.39L129.37,303.17L130.54,300.39L129.81,299.49L136.50,292.74L149.03,305.40L150.93,310.15L160.81,321.43L168.38,326.22L176.55,328.37L180.20,328.34L195.75,323.84L200.03,321.77L201.31,319.67L203.88,310.05L207.42,303.32L208.76,302.39L230.15,299.41L231.34,299.76L231.03,300.78L229.27,300.89L230.51,303.11L229.27,302.60L228.08,303.11L229.95,305.31L229.90,309.34L231.15,312.19L230.45,314.56L230.51,319.02L229.45,320.86L230.51,320.93L229.60,322.68L230.14,324.75L228.41,329.52L225.88,332.54L225.95,333.99L227.17,335.10L224.64,340.60L225.78,342.30L227.58,348.44L231.78,352.97L234.28,354.10L238.21,357.95L243.90,361.27L250.03,367.60L251.19,370.75L250.64,372.48L245.52,372.70L242.98,374.35L242.57,377.33L235.49,387.80L229.89,393.43L228.97,395.46L232.06,399.85L234.38,404.95L238.88,410.77L240.98,414.76L240.78,416.16L241.92,419.16L247.18,422.82L247.58,427.06L245.48,430.13L244.16,427.90L243.20,427.56L238.63,430.56L235.03,430.58L230.11,424.70L226.24,423.82L224.27,422.12L220.07,423.15L215.98,425.43L213.09,430.02L209.05,428.11L205.75,428.24L204.91,424.24L202.98,422.62L202.42,420.60L201.04,420.60L200.42,418.67L196.61,416.76L193.31,412.00L189.52,409.07L187.42,405.61L178.46,398.14L174.14,398.74L170.65,393.21L163.67,393.42L156.03,399.08L147.65,398.54L143.61,399.20L141.14,393.29L135.44,385.11L127.34,378.77Z"><title>Cochabamba</title></path>
  </g>
</svg>
