<?xml version="1.0" encoding="UTF-8"?>
<svg xmlns="http://www.w3.org/2000/svg" viewBox="0 0 560 640" class="pref-muni-svg" role="img" aria-label="行政区分">
  <g class="pref-muni-svg__paths" fill="#eaf2fb" stroke="#5b7fa8" stroke-width="0.6" stroke-linejoin="round">
<path data-code="CA-BC" data-name="British Columbia" d="M155.53,498.00L118.28,498.00L118.58,495.89L117.53,496.17L117.31,494.25L119.07,494.15L119.72,492.03L117.17,493.44L117.78,488.53L115.55,492.74L112.30,489.52L113.05,488.02L114.05,491.19L115.55,488.53L113.12,487.75L113.73,482.51L112.72,481.69L113.86,483.24L112.72,484.47L113.06,486.89L112.45,485.61L110.93,487.98L107.57,483.89L108.46,484.79L108.97,481.42L108.29,480.21L110.47,477.85L106.02,480.30L107.67,472.30L105.42,479.05L104.33,477.40L102.97,478.36L103.72,475.05L102.40,478.78L98.64,477.71L100.74,476.24L98.71,476.24L102.70,474.55L103.40,472.14L102.60,469.95L103.19,472.14L102.53,474.22L100.85,475.52L99.06,475.65L100.17,474.13L99.23,473.09L97.00,473.49L99.30,472.14L97.20,470.32L96.22,472.95L93.19,472.14L94.69,473.03L94.08,473.70L91.57,472.09L89.35,468.23L93.49,466.04L89.42,466.48L91.33,462.98L96.65,461.85L91.61,462.41L92.06,459.77L90.24,462.03L91.33,462.53L89.82,465.25L88.78,459.83L93.30,453.81L96.23,458.21L94.59,453.99L95.85,453.12L93.04,452.90L92.81,451.10L94.67,448.29L93.74,446.29L94.29,448.61L90.42,454.08L88.84,455.13L88.74,451.21L87.96,453.44L87.73,451.60L88.81,450.29L85.64,454.12L87.88,445.87L85.33,447.05L85.09,442.83L82.83,441.07L82.94,438.28L82.06,437.37L85.02,440.19L87.27,438.78L88.85,441.73L87.37,438.28L84.80,439.00L83.08,436.59L83.28,434.16L85.14,433.59L83.78,432.82L84.37,431.08L82.31,434.45L81.84,432.82L80.12,439.65L75.10,432.18L75.44,429.41L77.50,432.10L76.19,428.99L78.97,428.36L74.98,429.35L74.01,428.63L74.21,426.08L72.77,426.52L73.09,423.07L76.00,427.20L75.22,426.27L75.86,424.64L75.12,425.82L73.45,422.66L76.49,423.24L74.50,421.81L75.44,419.62L74.68,420.26L77.95,418.34L75.74,417.90L78.97,412.03L77.51,412.61L76.82,409.97L77.06,413.46L74.98,418.13L76.06,414.30L74.94,408.42L75.98,405.97L75.30,403.80L64.51,397.03L64.22,394.38L62.77,393.51L63.24,391.26L61.33,390.57L62.01,389.02L54.86,372.99L45.23,361.33L44.38,359.50L44.85,357.64L42.10,354.58L36.66,357.20L37.31,358.05L35.93,358.93L35.31,362.78L29.66,366.39L28.89,361.89L19.97,351.78L137.30,351.78L137.29,433.84L138.95,436.49L137.88,437.83L141.83,442.13L144.38,442.33L147.02,446.89L148.22,453.13L149.66,451.61L151.23,452.85L151.13,455.39L153.80,455.63L156.15,461.77L157.79,460.63L160.34,467.16L164.26,471.73L164.10,473.30L166.72,477.30L168.08,477.14L170.16,483.76L169.65,490.09L174.00,497.44L155.53,498.00ZM88.56,464.40L87.75,465.22L87.09,462.99L87.99,461.72L88.56,464.40ZM87.20,459.85L86.51,459.70L87.08,457.59L88.34,457.40L87.95,461.07L87.20,459.85ZM69.61,456.56L69.44,458.76L68.81,456.57L69.61,456.56ZM86.65,455.22L85.96,456.99L84.84,455.96L86.65,455.22ZM92.73,452.38L88.66,458.47L89.59,454.72L92.73,452.38ZM84.25,452.02L83.87,454.49L83.35,452.08L84.25,452.02ZM84.59,449.93L84.99,452.25L83.02,451.11L84.59,449.93ZM66.11,448.39L65.44,448.66L66.80,449.48L65.27,448.47L66.11,448.39ZM86.14,452.34L85.18,452.96L85.65,447.47L86.14,452.34ZM82.33,449.89L82.02,452.02L80.21,447.09L82.33,449.89ZM86.14,448.39L86.99,447.11L86.36,450.04L86.14,448.39ZM68.90,455.76L67.88,454.85L67.87,456.29L62.90,448.29L63.81,447.78L61.33,445.53L62.73,444.75L59.95,442.83L64.68,441.37L65.92,444.21L63.41,443.92L65.82,445.74L63.53,446.38L65.52,447.35L64.42,448.57L67.08,453.29L68.06,452.11L67.37,453.47L69.53,455.03L68.90,455.76ZM83.11,448.74L81.15,446.83L82.65,443.81L81.80,442.83L82.73,444.29L80.77,445.44L81.42,440.74L84.74,444.50L84.40,449.89L83.41,450.03L83.97,445.15L83.11,448.74ZM80.09,443.33L80.68,440.49L81.04,443.37L80.09,443.33ZM82.43,439.37L80.99,439.93L81.92,437.54L82.43,439.37ZM77.33,441.64L76.12,442.52L72.57,436.39L77.33,441.64ZM80.88,439.65L80.92,436.44L82.99,435.36L80.88,439.65ZM73.24,435.64L74.14,434.17L75.18,437.19L73.24,435.64ZM74.19,432.91L76.78,435.00L79.88,441.27L78.30,441.79L74.19,432.91ZM72.99,431.72L71.34,433.37L73.15,430.15L74.34,432.10L72.80,433.56L73.71,431.91L72.99,431.72ZM59.87,442.01L59.06,441.29L60.12,440.42L59.11,439.74L60.97,440.38L57.42,437.37L57.95,436.53L56.39,432.85L56.83,429.27L59.89,429.91L59.36,432.27L60.93,430.16L62.44,431.37L61.95,434.44L59.38,435.59L61.26,435.83L60.46,437.10L62.45,435.47L62.31,430.90L65.52,429.27L63.66,441.01L59.87,442.01ZM71.17,423.44L69.78,425.35L70.01,423.21L71.17,423.44ZM116.56,500.90L115.56,501.43L115.17,498.54L116.56,500.90ZM96.31,487.43L96.18,490.04L94.29,487.07L96.31,487.43ZM106.35,482.70L107.19,483.70L106.49,484.38L106.35,482.70ZM105.30,484.07L104.45,480.97L105.47,481.71L105.30,484.07ZM107.19,482.06L107.03,480.58L108.04,482.38L107.19,482.06ZM104.45,480.61L104.75,478.80L106.23,481.88L105.65,482.94L104.45,480.61ZM98.29,476.60L98.97,477.05L96.52,477.51L98.29,476.60ZM95.55,474.32L94.79,473.60L96.90,473.96L95.55,474.32ZM116.86,504.59L114.81,507.01L105.94,501.48L105.38,500.54L107.46,497.63L107.70,494.62L107.09,497.81L102.79,498.40L101.16,496.70L102.75,495.16L101.93,495.93L101.75,492.98L100.19,494.26L100.91,492.07L100.28,493.62L100.03,491.98L96.84,492.39L96.99,489.98L99.70,488.82L96.84,488.51L95.17,484.97L93.34,486.39L92.75,485.12L93.61,482.61L91.98,484.18L91.36,482.13L88.68,483.10L89.61,481.38L88.25,480.07L88.51,478.48L91.46,479.61L90.75,477.69L91.63,476.60L88.81,476.24L90.56,477.39L87.68,478.60L85.49,474.36L88.78,473.10L95.05,477.57L103.59,480.11L107.79,491.62L112.95,494.85L115.26,500.27L115.54,504.01L116.27,502.00L116.86,504.59Z"><title>British Columbia</title></path>
<path data-code="CA-AB" data-name="Alberta" d="M198.86,498.00L173.84,498.00L169.65,490.09L170.16,483.76L168.08,477.14L166.72,477.30L164.10,473.30L164.26,471.73L160.34,467.16L157.79,460.63L156.15,461.77L153.80,455.63L151.13,455.39L151.23,452.85L149.66,451.61L148.22,453.13L147.02,446.89L144.38,442.33L141.83,442.13L137.88,437.83L138.95,436.49L137.29,433.84L137.30,351.78L198.85,351.78L198.86,498.00Z"><title>Alberta</title></path>
<path data-code="CA-SK" data-name="Saskatchewan" d="M235.49,498.00L198.86,498.00L198.85,351.78L248.09,351.78L248.09,407.35L252.01,497.99L235.49,498.00Z"><title>Saskatchewan</title></path>
<path data-code="CA-MB" data-name="Manitoba" d="M277.48,497.99L252.01,497.99L248.09,407.35L248.09,351.78L292.40,351.78L293.28,360.30L292.46,363.82L291.19,364.37L292.39,364.23L292.75,367.28L294.65,368.74L296.08,367.64L295.11,375.39L296.25,368.00L302.54,368.46L307.04,386.92L305.98,390.99L304.22,392.77L315.62,388.12L328.44,393.58L290.24,447.14L290.19,497.88L277.48,497.99Z"><title>Manitoba</title></path>
<path data-code="CA-ON" data-name="Ontario" d="M325.05,511.25L317.34,510.06L316.58,508.07L312.27,510.54L309.22,506.57L307.36,508.22L306.63,505.43L303.77,503.05L298.84,504.32L293.10,500.84L292.18,493.79L290.19,492.93L290.24,447.14L328.79,393.48L334.40,399.03L336.62,404.88L347.17,409.40L351.95,413.55L350.17,418.21L352.41,414.29L359.33,413.86L361.60,416.43L360.66,414.53L369.65,416.63L369.97,420.40L368.47,426.63L370.43,433.98L370.50,440.93L369.35,445.20L374.42,454.02L371.93,455.48L374.21,454.87L379.86,461.88L380.87,466.59L377.28,470.86L381.15,466.80L386.47,472.09L386.10,518.46L387.02,523.31L391.40,533.14L397.93,535.30L402.02,540.53L403.11,539.26L404.31,543.52L409.12,545.89L416.49,542.31L418.03,543.42L417.51,546.82L418.32,548.10L412.63,552.84L407.22,560.27L402.96,569.29L391.21,569.40L388.60,571.43L390.23,578.52L389.55,580.22L382.00,586.02L375.66,588.11L367.10,595.27L364.63,592.90L364.07,590.26L364.56,586.83L367.97,582.64L370.31,569.94L367.83,546.59L361.13,540.75L362.20,537.64L359.11,536.91L358.22,530.75L355.41,531.62L353.49,525.82L332.14,507.21L325.05,511.25ZM386.47,471.79L385.07,468.73L386.47,465.13L386.47,471.79Z"><title>Ontario</title></path>
<path data-code="CA-QC" data-name="Québec" d="M424.44,550.97L416.06,551.04L423.41,545.37L425.64,537.09L431.59,530.76L441.78,524.32L448.49,511.29L456.12,502.65L465.87,496.27L472.37,494.36L478.23,496.26L481.05,500.90L478.56,499.45L480.84,504.19L474.09,511.01L470.34,508.18L461.30,513.32L459.77,511.21L455.06,512.13L454.87,517.34L450.84,520.60L450.90,518.91L449.68,518.45L445.02,528.39L443.34,534.93L443.46,538.77L439.58,547.91L438.96,546.41L436.86,547.19L435.81,550.85L424.44,550.97ZM386.47,472.09L387.62,474.96L386.47,471.79L386.22,463.95L388.10,462.85L390.61,469.15L390.40,465.97L391.58,464.86L389.43,461.12L393.32,454.75L390.60,447.99L391.58,446.29L389.77,444.39L390.32,441.20L388.97,438.01L390.15,437.24L388.71,435.36L390.28,433.91L388.84,432.00L389.80,431.23L387.87,430.27L389.39,429.08L387.32,428.90L387.91,428.09L386.82,427.36L386.44,423.63L384.96,422.72L397.17,414.57L403.94,404.35L404.95,399.42L404.86,390.10L403.16,382.66L399.09,375.53L392.31,369.87L392.94,368.97L392.35,365.63L393.88,366.06L395.17,362.28L397.83,359.72L396.35,359.50L397.49,357.78L397.19,355.63L400.06,357.54L398.63,355.17L400.19,354.45L399.37,352.86L400.82,350.98L398.08,350.90L399.47,349.99L397.41,346.41L399.43,344.52L396.88,343.24L398.84,340.61L394.62,341.25L397.72,335.75L397.15,332.46L399.05,331.33L395.89,329.01L394.88,321.27L399.08,317.33L410.65,321.59L408.79,323.04L412.28,321.00L417.02,323.77L415.80,322.38L422.48,318.81L428.89,323.67L427.86,327.40L431.33,326.79L432.79,329.51L430.90,330.96L433.03,329.05L435.34,330.35L433.43,332.78L435.33,333.05L433.85,333.79L435.39,336.43L444.12,337.34L444.14,340.07L445.59,341.02L447.92,337.44L448.88,341.16L446.12,344.80L447.36,350.76L438.70,350.90L447.77,353.58L447.18,355.72L448.05,356.44L446.62,358.21L447.34,359.95L446.58,360.85L449.80,361.86L447.89,362.81L449.12,363.82L448.13,364.09L448.45,366.46L447.13,367.83L445.91,364.27L446.29,367.37L443.51,368.10L445.56,368.00L446.22,370.43L448.90,366.80L452.62,366.11L454.86,367.41L456.21,371.09L455.20,376.71L448.95,381.40L454.81,377.84L457.34,370.65L458.23,374.24L456.59,377.25L458.99,372.12L459.15,379.32L460.04,375.29L465.91,371.74L467.34,367.01L470.04,370.10L469.37,373.93L470.76,370.65L469.03,368.00L470.95,366.88L469.80,366.17L473.88,364.46L471.43,362.96L471.30,361.47L472.82,361.64L472.41,360.06L473.65,361.32L472.40,358.54L475.95,360.00L473.31,358.19L472.49,355.35L473.86,353.80L475.95,354.91L474.43,353.35L476.11,348.35L478.73,347.75L476.81,348.28L478.32,350.22L476.44,351.15L477.98,352.89L476.45,357.05L477.68,359.13L479.85,358.36L478.72,362.47L480.21,364.97L477.36,364.20L476.57,365.93L485.18,368.27L481.64,369.46L481.52,371.02L483.11,372.05L479.37,377.36L480.64,377.75L481.67,381.43L484.57,382.23L483.45,384.14L482.80,393.25L481.23,395.49L482.76,399.08L480.96,399.26L482.76,402.03L481.94,403.99L485.42,404.61L482.99,406.07L484.04,409.92L483.44,412.07L486.13,413.04L484.10,414.61L485.63,414.85L484.43,419.50L483.15,418.99L482.60,421.10L483.67,422.89L482.63,423.49L479.59,421.00L477.28,421.68L475.22,418.77L471.66,421.99L464.95,413.70L465.96,420.80L465.38,421.65L460.86,417.36L463.01,422.44L461.89,425.05L460.47,423.58L458.92,425.82L459.60,428.97L458.56,431.03L461.55,437.24L464.22,439.25L463.56,443.68L461.17,443.37L461.68,446.52L463.16,446.43L464.37,449.26L467.46,444.74L467.92,449.94L467.20,449.44L467.54,453.28L466.74,453.60L467.39,456.16L467.94,453.96L469.74,457.25L472.77,456.75L473.77,460.45L477.26,461.18L478.74,463.47L480.29,461.50L479.78,458.49L481.05,456.29L480.98,449.08L484.39,446.61L485.83,449.40L481.51,451.76L483.55,453.77L484.22,457.38L483.12,457.14L483.61,458.05L524.47,458.05L524.48,465.77L520.87,464.95L515.11,467.65L515.09,469.32L512.73,471.13L512.73,474.51L512.24,472.82L510.17,477.44L505.80,481.79L501.69,481.07L496.05,483.29L496.93,482.13L489.95,480.42L466.81,481.05L467.02,482.52L465.78,482.16L462.73,486.86L461.22,493.39L457.05,493.99L454.97,497.05L454.65,495.26L447.07,509.19L438.49,505.27L446.70,509.55L445.49,514.19L442.08,518.56L440.45,523.24L436.81,527.89L433.50,528.57L426.64,534.95L424.02,540.87L420.58,544.41L418.11,543.57L420.69,546.32L418.32,548.10L417.51,546.82L418.03,543.42L416.49,542.31L409.52,545.80L406.03,544.74L404.15,543.31L403.11,539.26L401.88,540.45L399.10,536.22L391.56,533.28L389.89,530.67L386.10,518.46L386.47,472.09ZM450.60,363.32L448.99,365.55L449.05,363.20L450.60,363.32ZM423.53,541.60L422.98,545.08L420.61,545.12L423.53,541.60ZM496.34,517.20L494.53,520.70L495.59,521.27L494.25,521.48L494.77,518.98L498.12,516.01L496.34,517.20ZM480.04,487.39L478.86,486.37L481.19,485.28L487.40,487.49L496.40,495.89L492.79,496.99L487.59,494.80L480.04,487.39Z"><title>Québec</title></path>
<path data-code="CA-NB" data-name="New Brunswick" d="M462.46,548.66L460.64,547.49L460.88,543.09L458.57,541.56L458.53,523.38L455.87,519.67L451.91,521.93L450.84,520.60L454.87,517.34L455.06,512.13L456.68,511.21L459.77,511.21L461.30,513.32L467.32,510.18L471.10,512.74L471.94,516.20L475.69,513.18L477.89,514.74L476.10,520.55L473.59,523.30L477.08,523.38L476.75,528.76L477.61,528.62L477.67,533.40L478.57,532.84L478.56,534.77L483.41,536.22L478.96,541.45L477.30,536.59L478.48,539.60L478.06,541.41L471.22,547.78L468.86,546.88L469.63,544.86L468.48,546.60L469.32,547.60L466.98,549.97L462.46,548.66ZM464.39,554.66L465.12,553.92L465.44,556.08L464.12,556.26L464.39,554.66Z"><title>New Brunswick</title></path>
<path data-code="CA-YT" data-name="Yukon" d="M10.90,348.88L8.03,347.52L8.00,223.59L19.46,225.41L22.79,229.01L36.07,233.43L36.07,249.16L37.84,252.11L37.78,258.72L52.16,258.76L50.56,259.28L53.63,264.52L52.24,267.97L53.80,268.62L52.94,271.13L53.51,272.59L61.37,272.52L59.93,274.16L62.37,277.47L58.62,282.36L61.37,284.95L59.65,287.82L65.39,291.73L64.55,293.64L68.69,293.02L70.43,298.10L75.04,301.26L73.79,302.60L76.83,305.59L74.82,308.37L78.12,310.98L77.14,313.68L78.50,317.69L80.84,318.85L80.02,319.60L80.13,323.18L84.69,323.60L89.24,330.39L93.31,332.32L94.17,336.01L93.60,337.56L94.60,337.72L95.23,341.76L100.97,339.90L104.28,341.40L108.99,338.97L109.73,341.32L108.86,342.72L111.35,345.66L112.52,351.52L113.79,351.78L19.97,351.78L19.22,350.81L19.72,347.18L10.90,348.88ZM19.65,223.55L21.14,224.37L18.28,224.64L19.65,223.55Z"><title>Yukon</title></path>
<path data-code="CA-NU" data-name="Nunavut" d="M244.57,248.24L250.99,249.76L256.05,247.50L266.96,249.55L270.48,248.25L268.24,246.08L269.12,244.24L275.44,250.89L278.50,249.76L277.48,249.31L278.13,248.27L277.34,246.52L274.72,245.25L272.13,247.69L269.09,243.49L270.78,243.30L268.33,240.48L274.27,240.62L272.84,238.25L277.27,239.29L278.91,241.03L278.38,241.99L281.21,243.05L282.54,241.30L280.32,245.29L285.67,241.58L284.53,243.58L283.91,250.26L282.91,249.65L282.17,252.45L284.44,252.59L283.47,255.51L284.35,255.86L287.61,253.69L286.04,256.60L288.49,256.14L289.15,258.66L282.23,258.01L285.94,262.02L286.13,264.23L287.22,263.20L284.45,259.86L289.84,259.15L289.04,256.77L290.12,255.10L288.64,252.74L289.10,251.47L286.83,249.06L288.24,244.68L292.43,245.01L301.19,237.03L298.87,237.39L299.98,234.31L297.90,232.29L298.41,231.32L296.85,234.20L298.41,233.84L296.76,235.39L293.43,235.48L293.64,232.66L297.31,230.11L295.35,230.17L295.61,227.96L300.26,226.37L298.32,230.00L301.27,227.28L299.88,227.37L300.72,225.73L295.36,226.22L293.46,223.10L291.95,224.64L285.18,221.79L281.50,215.84L283.60,211.37L286.30,211.81L284.70,210.89L286.17,209.45L283.86,210.65L281.32,208.44L282.72,204.42L281.57,203.98L282.72,203.54L281.91,201.98L284.21,200.17L287.88,201.74L288.87,198.89L285.58,197.61L293.60,194.15L289.80,193.06L293.96,192.36L294.92,193.19L293.35,194.78L295.16,195.06L294.78,196.83L298.81,195.32L298.45,196.97L303.55,200.93L304.39,207.54L303.25,207.50L308.33,210.77L307.89,212.45L309.80,214.08L309.12,214.91L311.36,214.23L312.66,216.81L307.39,215.81L308.02,216.21L306.04,217.91L310.00,218.63L303.97,223.28L307.39,222.82L310.89,225.73L314.78,223.53L312.28,225.29L320.04,226.20L317.64,226.20L318.36,226.65L317.01,228.83L313.04,227.46L319.28,233.84L318.27,234.84L319.24,234.48L318.23,239.62L320.00,240.48L319.04,241.03L321.22,242.03L323.07,238.29L322.57,236.75L323.71,236.94L323.78,231.97L326.90,228.54L334.13,234.78L335.55,241.12L334.62,242.85L333.17,242.26L333.05,240.43L331.82,241.66L332.53,243.85L331.97,245.84L333.41,249.89L338.20,255.25L337.25,257.23L340.67,255.41L339.95,254.05L343.50,253.76L343.33,249.67L347.19,244.80L348.63,235.86L354.04,235.75L351.55,233.97L355.64,231.92L349.83,228.56L350.67,228.01L349.61,226.82L350.62,226.37L349.45,226.08L350.37,224.74L349.57,222.00L350.69,221.72L349.27,220.84L369.65,223.73L366.57,224.56L368.03,225.68L363.24,225.06L369.47,226.67L368.81,226.92L370.32,228.28L369.55,229.07L375.24,229.65L375.68,231.02L370.83,233.84L375.93,235.24L375.72,237.03L371.49,239.80L369.52,238.39L370.12,239.04L367.20,239.76L369.53,241.65L369.27,243.57L371.25,242.66L370.11,245.39L370.58,246.71L375.90,252.69L374.27,258.79L371.48,259.11L370.24,262.60L362.78,267.43L359.01,264.22L359.78,262.96L359.40,260.32L358.05,262.62L355.31,259.05L356.62,259.15L353.29,257.98L354.97,259.05L351.43,259.87L355.18,259.60L354.30,260.14L358.01,262.96L357.60,264.19L360.83,269.25L360.09,269.92L355.59,266.70L354.98,267.52L356.57,269.79L351.25,268.50L349.88,264.46L341.77,265.15L342.76,267.91L347.47,269.92L338.09,280.99L333.88,280.59L329.16,276.80L331.73,276.98L323.88,272.79L321.94,272.79L323.38,274.44L312.75,272.79L322.22,274.82L327.87,281.01L340.81,283.48L333.58,296.78L329.75,299.02L326.33,296.83L327.81,299.36L323.77,298.23L323.28,295.33L321.18,296.92L323.11,299.37L320.25,298.56L322.17,301.13L320.61,303.79L307.35,301.59L298.70,296.11L300.08,298.20L298.78,298.74L299.51,300.23L302.16,300.74L301.03,298.95L309.04,302.65L306.77,304.92L311.02,302.44L317.13,306.65L315.95,306.30L317.72,307.20L318.11,311.12L313.38,314.77L306.87,314.26L310.34,316.98L305.84,316.95L306.38,319.31L304.56,320.50L306.76,323.22L301.95,320.31L304.94,322.32L302.79,323.10L303.93,323.67L302.45,325.41L300.93,324.77L301.78,326.59L299.70,325.85L301.87,328.61L297.43,332.42L298.37,334.14L296.63,334.14L297.43,337.16L294.14,344.52L292.41,345.16L293.55,346.57L292.40,351.78L248.09,351.78L248.10,295.63L205.18,288.32L194.73,278.78L183.44,278.71L133.18,245.56L133.11,224.84L154.75,233.64L162.10,234.77L159.96,232.66L164.58,232.61L174.81,240.21L174.01,242.32L168.44,241.65L169.58,242.94L166.59,243.04L167.39,245.30L164.73,246.54L167.35,248.12L187.25,249.70L198.49,245.45L200.60,249.25L204.60,249.24L206.09,254.06L207.23,250.44L208.26,254.13L208.89,252.86L211.21,255.05L211.87,258.16L207.34,256.77L215.83,267.46L212.40,261.88L213.36,257.78L214.34,259.87L213.03,259.42L213.85,260.93L214.80,261.23L214.85,259.14L216.78,261.05L214.84,258.26L216.07,257.14L212.91,253.43L213.71,252.15L211.13,249.38L213.26,246.23L211.91,244.28L213.03,244.49L212.56,245.67L218.81,244.13L218.47,242.76L219.59,242.20L220.75,243.49L220.73,240.85L225.16,239.85L225.64,237.03L220.07,238.67L220.88,238.67L219.57,239.29L220.47,240.11L220.07,241.58L218.63,240.01L211.85,241.94L213.54,243.30L208.77,244.04L208.60,241.48L206.20,242.03L209.03,237.55L222.26,232.97L226.74,235.93L227.64,239.11L226.28,240.02L229.39,242.08L230.28,240.85L230.03,242.39L232.08,242.39L231.63,243.66L232.81,245.07L239.39,243.27L239.70,245.37L244.57,248.24ZM211.13,253.86L210.25,253.32L211.89,252.59L211.73,254.59L211.13,253.86ZM210.37,250.23L211.64,251.50L210.51,252.58L210.37,250.23ZM276.22,249.40L276.81,249.77L275.48,250.23L276.22,249.40ZM173.39,247.01L174.68,247.13L172.41,246.85L173.39,247.01ZM177.64,246.49L178.86,246.58L176.67,246.76L177.64,246.49ZM198.48,244.22L199.62,243.76L197.26,244.95L198.48,244.22ZM188.65,241.48L189.62,241.48L187.97,242.47L188.65,241.48ZM193.71,238.20L194.55,239.03L192.11,239.14L193.71,238.20ZM194.89,238.20L195.65,238.20L194.17,238.00L194.89,238.20ZM232.77,238.67L231.75,240.23L229.10,238.20L232.77,238.67ZM249.98,235.29L249.05,237.93L245.93,236.39L249.98,235.29ZM259.14,234.84L256.69,235.48L256.52,232.29L258.42,232.19L259.64,233.47L259.14,234.84ZM260.15,231.11L260.27,233.03L258.84,231.57L260.15,231.11ZM254.37,225.83L252.76,227.26L253.10,225.83L251.90,225.09L254.37,225.83ZM281.61,225.87L280.47,224.46L284.41,226.03L284.15,227.55L281.61,225.87ZM285.37,226.65L286.25,223.83L288.90,225.41L287.90,227.83L286.59,227.73L286.74,224.86L285.37,226.65ZM289.86,234.07L281.83,239.57L271.99,236.55L270.48,234.13L269.50,235.55L266.75,232.84L265.38,234.50L262.89,231.88L270.20,228.15L268.96,226.27L270.14,225.91L269.34,224.46L272.57,226.46L270.44,224.19L273.18,220.34L276.77,222.82L275.84,223.28L276.47,224.26L277.13,222.98L283.68,228.07L283.64,231.51L284.73,229.18L286.09,233.88L289.86,234.07ZM258.25,212.45L256.01,209.90L259.22,211.26L257.99,211.18L259.00,212.78L258.25,212.45ZM198.83,182.95L200.25,182.87L198.83,182.35L198.83,179.30L205.34,183.44L204.72,184.77L207.27,184.87L207.84,190.41L209.99,192.88L209.65,196.07L212.20,197.59L215.77,193.69L212.52,190.51L212.48,186.23L211.26,185.51L211.93,184.77L209.33,177.33L211.98,176.58L210.20,175.03L216.87,176.74L218.10,174.91L224.40,178.31L227.37,181.86L226.49,182.04L229.84,189.82L229.48,191.42L233.54,198.00L234.05,201.02L232.79,201.05L232.15,204.70L238.42,210.91L242.39,212.32L241.41,209.95L246.91,214.52L250.59,215.27L250.99,217.45L254.12,216.48L255.00,221.84L252.44,223.33L251.44,220.20L250.11,223.65L246.71,220.01L246.03,222.05L243.96,222.02L245.10,223.06L244.59,224.95L238.93,223.01L241.84,225.83L240.72,230.64L242.91,227.13L246.36,225.55L248.47,226.65L246.73,229.19L249.60,230.11L249.04,232.39L242.15,234.91L228.87,233.61L227.92,232.84L230.13,231.24L220.94,229.74L221.52,226.91L219.88,225.55L215.26,231.90L207.84,232.94L204.83,235.87L178.89,239.48L180.15,238.94L176.27,234.69L177.00,231.65L176.12,229.65L177.06,229.70L162.08,228.25L156.35,224.36L158.01,223.87L154.88,220.44L155.00,218.94L181.01,218.95L181.16,221.18L182.54,221.17L184.11,220.62L182.49,220.25L183.47,218.95L198.85,218.95L198.83,186.30L200.21,186.59L198.83,185.79L200.16,185.69L198.83,182.95ZM426.92,262.33L427.82,258.23L431.57,255.14L428.68,249.71L429.02,248.36L426.95,246.42L426.64,242.39L423.56,241.84L424.89,240.21L422.80,242.20L421.41,240.88L420.77,240.03L422.06,238.62L421.95,236.39L419.30,235.83L421.16,238.15L419.10,238.67L416.01,235.75L416.91,234.34L414.40,234.74L416.24,233.83L414.02,233.47L416.51,231.92L415.47,231.13L413.58,233.66L411.30,231.94L404.29,236.46L404.21,232.02L408.20,232.09L410.47,231.07L410.63,229.19L404.26,224.98L407.02,223.36L400.74,223.65L403.25,222.64L402.59,221.91L403.36,221.13L400.06,221.05L402.13,219.72L398.20,222.37L397.65,216.28L393.32,216.09L392.51,214.81L393.44,214.45L389.05,212.27L391.41,211.62L390.66,210.51L386.03,213.49L390.13,214.94L391.73,218.77L390.90,220.55L385.48,220.96L384.10,219.18L372.67,217.32L378.78,221.85L377.66,222.74L364.76,214.81L372.98,219.82L370.35,221.80L364.73,218.81L354.62,218.87L353.90,217.38L347.36,218.00L351.30,219.00L347.92,219.02L343.20,215.81L342.95,214.08L344.30,211.96L342.65,214.63L340.59,212.67L338.90,213.72L340.59,215.10L335.18,215.79L328.69,211.72L325.35,206.89L326.96,206.17L324.69,204.44L340.42,205.71L335.11,202.02L322.87,201.16L321.69,197.74L323.21,195.51L321.23,193.33L324.56,190.23L322.57,189.87L322.50,186.73L325.24,183.50L324.56,181.86L326.42,182.32L325.57,181.35L325.90,179.37L328.82,176.22L327.80,175.76L330.46,175.31L328.98,174.67L330.04,173.48L339.60,168.44L352.09,168.32L353.75,169.21L346.40,175.09L342.04,182.68L345.10,186.77L343.92,188.71L344.07,192.31L353.74,201.86L341.52,205.80L352.91,203.06L353.49,204.71L351.85,204.53L353.98,206.63L353.99,203.21L354.80,202.70L354.21,200.26L355.64,199.39L355.06,196.83L351.15,196.79L346.27,192.19L349.68,191.33L349.81,188.85L357.88,192.06L353.11,188.51L356.24,187.32L349.57,186.23L348.93,185.14L349.83,184.69L348.39,183.91L348.54,180.52L359.19,182.32L349.44,178.76L349.89,177.62L361.13,179.31L351.55,176.03L353.99,173.91L356.79,176.03L354.85,173.86L357.77,172.76L361.33,175.10L360.96,173.05L358.85,172.40L366.09,169.32L374.11,169.59L375.95,171.94L376.21,175.59L379.70,176.98L379.58,180.06L382.01,182.59L375.01,189.14L380.40,185.78L377.54,189.69L380.03,191.29L377.20,191.15L378.59,192.15L377.45,193.87L381.08,191.72L380.55,189.99L382.01,188.40L385.51,190.69L382.47,188.05L384.63,185.66L386.02,187.86L384.95,189.43L386.90,189.78L386.31,188.51L387.63,187.04L389.94,188.63L388.25,192.70L392.72,194.05L390.20,192.20L390.72,190.09L397.38,195.69L390.44,189.32L392.11,187.63L393.20,190.00L393.31,188.02L397.73,189.51L397.92,191.05L402.00,190.60L392.41,186.48L393.20,184.50L398.28,182.35L403.32,182.70L407.51,186.02L408.51,184.52L413.07,185.78L414.65,188.97L407.96,191.21L405.59,194.24L410.25,190.74L412.93,191.47L407.52,196.42L408.96,196.27L413.91,190.68L418.96,191.33L419.72,192.82L419.13,194.55L412.13,196.37L414.67,196.88L411.75,198.70L416.45,196.65L413.35,199.43L415.26,198.72L414.74,199.61L416.11,200.42L414.01,203.18L416.57,200.49L415.88,198.84L417.23,196.87L419.78,195.87L418.91,197.58L419.55,198.52L419.12,197.42L420.47,195.65L422.78,195.41L420.47,199.54L418.49,200.16L420.27,199.79L418.96,202.98L421.27,198.56L423.14,198.25L422.67,200.88L424.27,200.53L421.07,204.88L423.89,201.06L426.30,202.08L424.90,202.70L424.27,205.89L429.38,196.84L435.57,198.96L438.20,202.08L436.02,204.80L432.48,204.54L427.98,208.09L431.74,207.80L429.25,210.81L441.25,204.75L441.86,206.81L440.11,209.33L432.96,213.36L434.42,213.30L433.85,215.05L435.75,211.26L437.88,211.85L435.58,218.63L439.01,210.54L445.60,207.27L446.46,207.58L442.31,210.52L442.03,212.54L448.31,208.44L455.15,211.19L455.66,212.08L454.56,214.00L453.74,212.75L452.95,214.67L446.25,216.74L443.96,218.68L446.11,219.18L442.16,221.01L446.56,219.31L447.02,217.10L453.42,217.00L448.72,221.22L446.38,221.18L445.18,224.03L446.63,221.55L453.39,219.71L456.21,217.27L455.24,216.45L456.42,214.72L458.56,215.45L462.15,219.64L462.83,222.56L457.30,221.93L455.23,223.83L444.94,225.11L453.77,224.39L464.84,227.72L465.70,229.29L465.13,230.42L451.14,227.46L449.62,228.56L456.88,229.32L451.45,229.27L454.26,229.56L450.80,230.73L451.69,230.83L451.12,232.66L455.08,229.85L459.20,231.92L453.99,232.45L457.39,234.15L454.35,233.57L458.78,235.11L448.78,234.12L457.09,236.39L451.82,237.48L457.79,238.08L457.64,240.21L459.45,238.02L460.51,238.48L459.81,240.42L460.16,238.98L465.61,239.66L458.15,241.75L463.34,241.18L459.83,243.30L464.84,242.21L463.71,245.03L465.43,243.59L465.15,245.67L466.12,243.55L467.76,243.80L466.75,244.49L468.57,245.30L467.15,247.26L465.10,247.13L467.30,248.42L470.14,243.33L469.62,250.35L470.87,245.85L473.07,245.54L472.07,248.32L473.63,250.86L472.47,248.27L473.27,246.66L477.39,245.51L475.44,246.39L476.20,246.66L474.65,250.25L478.91,248.09L479.74,248.72L478.06,249.95L480.08,249.04L481.75,251.68L479.28,252.41L482.02,252.77L482.57,254.73L477.08,254.13L480.59,254.87L477.25,256.17L482.23,255.14L477.69,258.68L485.40,255.77L483.41,259.33L487.15,254.32L488.30,255.86L486.43,257.33L486.70,259.15L483.12,261.23L485.44,259.99L485.52,262.68L486.01,260.25L488.99,259.21L488.77,263.61L489.72,259.56L492.40,262.42L491.70,259.76L493.76,258.01L493.66,259.87L495.83,259.45L494.26,260.40L496.74,260.51L495.98,261.05L498.82,263.70L493.16,263.69L495.41,263.74L496.89,265.74L494.38,266.61L497.63,267.15L497.00,267.52L490.46,266.24L492.35,268.06L490.23,269.17L488.81,267.61L494.60,271.82L487.76,270.43L492.52,274.44L488.96,273.31L490.80,275.24L489.11,275.16L490.63,276.40L490.27,277.55L488.58,275.27L488.41,277.53L486.95,276.95L485.02,272.93L486.03,276.44L483.72,276.35L485.90,276.95L484.34,278.08L486.37,279.63L484.13,279.16L485.77,280.08L484.93,280.25L486.23,282.58L484.97,282.81L486.07,283.44L484.87,286.72L483.08,285.55L484.13,284.81L482.80,284.78L483.18,282.90L480.29,283.99L481.52,282.71L479.70,282.99L480.54,279.63L478.58,284.13L476.41,281.35L477.80,280.81L476.37,280.81L479.49,278.98L475.79,280.46L474.81,278.89L477.63,276.62L473.75,277.62L477.13,275.70L472.74,275.34L473.78,273.13L477.46,272.43L476.75,271.61L477.59,269.10L479.83,267.43L476.07,271.08L470.31,272.70L469.94,271.39L472.91,266.88L469.62,270.52L468.11,269.12L468.77,268.24L466.49,269.18L466.16,267.15L466.97,266.58L464.98,266.97L465.53,265.97L464.39,264.88L465.23,264.23L463.17,263.51L464.26,264.51L458.95,264.51L461.78,265.10L462.58,267.19L461.01,266.34L462.64,268.06L457.43,265.33L458.90,268.70L462.53,271.52L461.60,272.07L462.39,273.20L457.86,273.37L457.55,270.98L454.22,268.06L452.15,269.52L457.22,271.08L455.24,271.56L456.88,274.31L456.12,274.79L458.53,274.53L457.18,278.89L461.86,276.80L460.72,278.71L463.17,279.74L460.97,280.71L463.92,282.17L462.87,284.54L465.23,282.90L464.05,284.71L465.02,284.45L465.35,288.44L465.49,284.78L468.77,287.09L467.59,288.37L468.35,289.45L469.58,287.26L469.44,289.10L470.88,290.18L469.99,286.90L471.44,287.44L471.48,289.45L472.40,289.18L471.50,292.14L475.40,292.69L474.45,294.66L471.81,294.65L475.52,297.74L474.66,298.36L477.90,298.22L475.90,300.93L478.79,303.05L478.88,306.33L478.10,306.38L478.70,308.54L473.99,301.14L475.93,303.92L474.93,306.21L476.45,308.75L474.93,308.11L478.14,313.12L474.18,311.85L476.28,316.67L474.81,317.67L473.67,316.13L473.84,313.03L472.13,314.26L471.47,311.25L471.00,313.62L469.92,312.76L470.71,311.49L467.95,310.12L469.05,312.58L467.25,311.94L465.73,306.96L465.15,308.03L466.31,311.98L464.73,308.28L464.56,309.93L463.42,308.75L463.70,306.68L462.30,308.10L457.85,301.74L459.24,307.02L455.60,302.65L451.27,301.83L457.47,310.93L459.78,310.64L458.78,312.48L460.23,311.34L459.37,312.88L460.93,312.21L464.09,315.94L463.50,316.49L465.02,316.13L466.54,319.59L467.52,319.27L466.78,320.75L469.77,322.00L469.45,324.22L468.44,323.67L470.01,326.43L469.31,326.88L453.98,321.90L447.62,316.48L448.83,315.03L443.59,315.20L437.94,312.02L440.01,310.21L439.37,309.64L436.44,311.20L434.52,309.57L434.11,306.43L431.89,305.98L435.13,306.26L437.52,303.93L435.46,304.21L435.62,302.47L433.24,301.05L433.19,303.23L431.53,301.57L430.81,302.92L432.21,299.83L431.27,299.19L430.43,301.54L428.66,300.56L428.68,297.54L428.24,299.05L425.96,294.91L424.23,294.91L424.97,293.73L423.64,293.27L425.58,290.81L424.74,289.81L423.75,291.90L422.63,289.81L421.98,291.46L420.93,290.56L421.79,292.27L419.97,294.28L419.67,291.46L420.73,291.81L419.42,291.09L420.43,290.91L420.14,289.01L418.02,290.99L416.09,288.82L417.45,287.54L416.47,286.63L415.95,288.39L414.36,287.99L417.57,291.19L416.26,293.63L409.25,290.39L410.40,292.55L408.62,292.18L409.76,293.70L403.76,294.60L403.90,296.11L396.73,293.73L393.99,289.26L395.38,287.81L395.09,285.71L400.06,282.71L398.82,281.04L400.19,280.30L399.57,279.08L409.38,282.28L411.72,284.96L410.18,286.09L410.99,288.27L412.47,288.90L412.17,286.36L410.78,286.91L413.07,283.96L412.06,285.27L408.45,281.09L413.11,281.96L413.65,280.11L417.06,280.94L419.72,278.23L423.69,279.26L422.19,275.08L417.54,270.11L426.92,262.33ZM478.81,347.54L476.70,345.60L479.40,346.50L478.81,347.54ZM458.12,345.18L457.55,347.93L454.80,349.00L455.90,344.01L458.12,345.18ZM476.83,333.83L472.87,330.23L477.59,329.69L476.83,333.83ZM307.98,319.81L308.78,319.95L307.34,320.03L307.98,319.81ZM387.93,321.63L387.67,325.37L385.00,330.77L381.91,327.13L382.19,323.39L383.92,320.20L386.35,319.67L387.93,321.63ZM479.66,318.21L478.35,320.31L476.07,319.04L479.66,318.21ZM397.53,317.40L398.16,317.40L396.85,317.21L397.53,317.40ZM476.05,318.13L474.98,317.86L476.83,317.49L476.05,318.13ZM314.98,316.13L315.91,316.40L314.14,316.03L314.98,316.13ZM443.59,317.04L440.59,317.87L439.38,315.31L440.31,314.97L437.46,313.44L443.59,317.04ZM370.03,312.12L372.05,312.93L371.58,315.77L364.64,322.73L360.71,323.31L359.27,319.59L362.47,313.37L370.03,312.12ZM398.67,308.11L396.19,310.78L392.48,305.97L396.79,305.66L398.67,308.11ZM481.47,307.48L480.29,307.40L478.94,303.74L479.82,303.05L481.47,307.48ZM403.90,305.48L404.79,305.74L402.09,306.52L399.24,303.15L403.90,305.48ZM476.54,301.38L478.54,299.87L478.23,301.47L479.62,302.20L476.54,301.38ZM424.90,295.74L425.54,295.92L424.14,296.46L424.90,295.74ZM423.35,291.96L422.58,294.36L423.05,292.10L422.39,291.68L423.35,291.96ZM472.49,291.37L471.61,291.38L473.31,288.82L474.56,290.10L472.49,291.37ZM492.73,275.43L493.49,276.67L491.33,275.76L492.73,275.43ZM382.39,301.74L376.59,305.77L368.24,302.83L368.92,299.81L364.53,299.21L365.26,296.83L364.53,296.13L360.83,298.46L361.15,301.69L357.15,303.61L355.26,307.75L351.05,310.30L348.83,308.71L348.35,301.65L341.24,304.47L339.05,303.17L341.07,299.58L345.40,297.28L344.00,290.72L345.52,287.63L345.65,280.11L346.96,275.23L349.75,273.09L349.73,274.79L351.68,274.89L352.42,277.21L350.79,278.18L352.69,279.85L353.16,282.47L355.48,278.91L358.29,282.59L362.60,283.55L363.77,286.06L372.61,291.85L373.63,296.87L371.26,298.67L374.91,297.30L377.79,298.74L378.05,297.02L380.46,299.75L379.36,300.06L382.39,301.74ZM352.73,271.98L355.36,276.93L353.97,277.84L352.05,275.25L351.64,272.25L352.73,271.98ZM355.98,270.89L358.76,270.92L360.79,273.07L360.21,274.57L363.74,275.99L359.89,276.70L360.83,275.34L358.02,275.18L358.13,273.32L355.98,270.89ZM484.97,254.50L485.94,254.87L483.03,254.95L484.97,254.50ZM483.50,251.86L481.77,251.77L482.28,250.10L483.50,251.86ZM424.40,247.67L417.97,248.46L415.68,245.13L418.37,243.12L423.86,245.61L424.40,247.67ZM467.87,241.94L468.57,242.03L465.62,242.74L467.87,241.94ZM343.03,241.66L344.07,242.76L344.29,246.36L342.40,249.04L340.51,244.40L343.03,241.66ZM414.09,243.22L413.30,246.14L413.89,251.46L410.63,254.67L402.10,255.57L400.00,249.40L403.90,242.03L408.69,240.94L414.09,243.22ZM390.23,241.22L390.72,242.16L388.54,242.57L388.71,240.94L390.23,241.22ZM418.18,240.35L419.95,241.10L419.09,242.20L418.18,240.35ZM392.05,238.79L389.85,239.21L391.71,237.75L390.37,236.77L392.98,237.29L391.37,238.57L392.05,238.79ZM415.29,239.94L414.32,241.03L411.83,237.43L414.17,236.47L415.29,239.94ZM457.35,235.29L459.45,236.20L454.56,234.98L457.35,235.29ZM389.18,233.84L387.07,233.20L392.00,228.74L391.46,227.70L394.51,228.21L389.18,233.84ZM320.42,228.28L318.84,227.37L320.72,226.28L320.42,228.28ZM403.88,226.78L402.59,230.83L399.60,228.70L400.44,226.46L403.88,226.78ZM460.80,224.37L461.64,224.82L458.90,225.29L460.80,224.37ZM457.94,225.15L455.49,224.37L459.04,223.49L457.94,225.15ZM393.40,223.65L394.74,222.19L396.19,223.65L390.41,225.85L393.40,223.65ZM383.70,223.83L383.04,223.78L383.53,225.59L378.51,223.01L385.53,221.34L387.66,222.82L383.70,223.83ZM312.96,221.91L311.27,221.64L313.29,220.55L312.96,221.91ZM339.91,219.09L338.10,217.54L343.75,218.73L339.91,219.09ZM435.79,205.44L436.80,205.57L432.75,208.17L431.36,206.71L433.62,204.63L435.79,205.44ZM426.89,198.80L427.73,199.71L426.28,201.73L424.27,198.80L426.89,198.80ZM428.22,196.88L428.05,198.64L426.34,197.88L428.22,196.88ZM279.38,182.59L278.79,182.04L280.36,180.48L281.04,181.75L279.38,182.59ZM278.43,177.27L281.53,178.41L279.04,180.04L278.43,177.27ZM231.60,170.74L232.70,171.57L232.26,174.69L227.42,179.77L227.88,181.08L222.73,175.22L217.08,172.67L219.78,169.66L227.28,168.87L231.60,170.74ZM377.96,171.04L378.21,169.12L380.07,168.84L395.13,170.26L400.67,172.32L407.78,180.41L386.17,182.29L383.51,180.81L382.51,176.00L378.22,174.87L378.29,172.79L379.23,172.67L377.96,171.04ZM283.05,186.19L279.63,188.05L281.74,189.14L281.95,191.15L279.68,191.79L281.99,192.01L280.31,193.42L281.94,193.30L281.41,194.77L274.66,197.46L271.16,196.77L270.90,193.69L269.64,196.07L272.46,198.61L268.23,202.06L265.12,201.03L264.19,197.89L256.49,189.91L249.44,188.29L243.44,181.60L245.11,178.56L248.42,177.86L252.20,182.76L257.65,182.58L258.46,181.68L257.53,178.85L258.50,178.67L257.84,179.39L258.53,180.76L260.19,179.85L258.42,177.76L259.01,177.32L257.15,177.86L256.98,176.03L261.83,176.30L258.17,173.80L255.13,175.61L250.40,172.58L254.75,171.09L257.82,173.54L256.69,172.48L257.03,171.13L253.52,169.49L254.96,168.05L260.26,169.30L261.36,167.30L258.54,167.66L261.62,166.66L265.39,169.94L274.11,166.90L279.26,169.98L274.91,171.94L277.95,173.86L269.68,178.87L269.97,180.80L272.81,178.52L277.30,179.61L276.30,180.95L278.72,182.70L277.68,184.22L281.72,182.40L283.05,186.19ZM265.04,167.75L263.85,167.03L274.92,164.86L271.84,167.44L265.04,167.75ZM320.17,166.84L314.22,175.49L311.91,176.03L313.49,176.41L309.06,182.47L295.37,182.22L298.65,182.55L300.64,186.23L295.90,191.96L296.97,192.60L289.88,192.46L290.64,191.05L289.95,190.91L292.48,190.26L290.10,190.33L290.35,186.23L287.54,183.10L286.77,179.14L288.03,177.33L286.85,171.67L287.86,171.39L286.76,169.93L293.51,170.39L289.15,166.92L292.91,164.47L301.82,163.46L307.60,166.58L320.17,166.84ZM288.96,157.97L289.61,158.93L285.83,158.10L288.96,157.97ZM238.01,149.89L234.37,152.29L230.06,150.66L233.30,146.79L236.89,147.67L238.01,149.89ZM300.81,153.28L300.22,156.91L292.88,157.43L285.66,154.85L284.19,153.38L284.63,152.22L283.39,153.74L281.24,152.65L282.14,149.96L286.38,147.46L284.07,147.12L291.80,143.97L299.33,147.73L298.57,148.45L300.42,148.98L300.47,151.55L299.54,152.01L300.81,153.28ZM281.49,146.72L279.66,147.79L278.54,145.91L282.72,143.77L285.58,145.09L283.76,146.45L282.42,144.82L281.49,146.72ZM242.72,142.36L239.56,142.36L248.21,139.90L242.72,142.36ZM294.35,139.54L295.53,142.23L292.76,142.42L291.74,140.09L294.35,139.54ZM244.58,139.35L235.93,139.99L246.14,138.67L244.58,139.35ZM390.32,137.62L390.90,138.13L388.59,139.81L390.31,141.35L385.04,140.81L390.32,137.62ZM375.34,137.27L374.50,137.08L376.10,136.80L375.34,137.27ZM236.95,138.81L232.84,137.30L243.62,135.06L244.83,137.17L236.95,138.81ZM233.34,133.03L231.59,131.26L235.63,130.35L236.25,130.75L235.43,131.71L241.88,133.63L233.46,134.94L233.34,133.03ZM276.26,145.63L277.15,147.18L274.42,144.94L272.46,146.10L274.11,146.90L272.00,148.58L275.37,150.55L272.08,149.54L272.87,152.35L264.07,152.55L264.68,150.79L262.59,152.86L258.14,152.23L257.03,149.81L260.49,149.37L255.59,147.82L262.47,144.36L261.50,143.82L267.22,143.24L244.20,145.92L242.67,144.33L248.04,143.18L245.79,141.77L246.48,140.98L254.79,141.72L250.86,140.98L252.38,138.98L248.70,137.85L251.88,135.89L247.07,136.08L247.88,133.77L252.27,133.75L260.73,140.91L263.85,139.62L261.24,140.09L259.05,137.45L263.99,137.08L257.46,136.15L261.37,135.44L254.33,132.53L262.62,130.79L266.13,133.89L267.48,133.44L266.39,131.26L269.92,130.19L274.78,132.80L274.02,134.97L275.76,136.72L274.85,139.49L275.36,141.05L273.09,142.63L276.55,143.51L276.26,145.63ZM253.27,131.53L250.02,131.44L258.88,129.43L253.27,131.53ZM323.96,129.52L322.83,131.07L323.96,132.53L322.10,132.91L318.30,129.28L322.07,128.07L323.96,129.52ZM198.83,140.43L203.33,138.54L198.83,136.25L198.83,132.80L206.39,127.78L208.39,129.52L206.66,130.71L208.18,133.16L207.37,133.63L210.67,135.44L208.09,138.72L213.38,139.40L211.00,142.08L216.85,140.59L218.05,143.91L218.04,142.36L219.69,141.90L218.02,141.40L218.09,139.71L221.38,138.44L225.90,140.09L227.23,143.86L225.01,146.00L225.98,146.36L223.42,151.79L215.90,153.60L212.57,151.19L211.51,153.38L208.60,153.64L206.09,151.59L198.83,154.50L198.83,145.30L205.56,146.18L204.80,145.18L206.07,143.36L198.83,140.43ZM386.22,152.65L387.62,153.82L384.08,155.01L381.59,153.31L380.99,153.84L382.90,154.83L382.18,158.02L372.51,159.73L365.54,158.50L364.33,156.93L364.57,154.98L362.02,153.74L363.07,155.70L362.01,158.15L357.31,159.09L353.26,159.02L352.69,156.47L351.60,159.27L349.46,156.65L349.02,159.21L345.82,159.39L345.48,157.56L344.25,159.35L341.64,157.56L342.87,159.56L331.09,159.16L332.45,155.46L330.95,153.82L329.06,156.99L327.51,154.65L327.75,156.23L326.45,155.74L327.21,157.75L325.44,158.47L315.65,156.47L317.12,154.00L314.39,156.01L315.20,157.47L312.65,157.26L309.27,155.15L308.23,151.55L309.31,150.50L306.55,149.64L307.31,146.48L309.63,144.55L308.87,140.93L303.13,134.62L288.78,136.08L292.41,134.89L284.36,132.62L287.56,131.16L279.09,129.43L283.13,129.16L279.99,127.67L280.98,126.61L279.99,126.19L286.44,124.95L299.18,127.02L302.29,129.25L301.66,131.88L299.46,133.34L300.05,134.01L303.01,130.92L316.29,130.71L319.07,132.80L312.33,132.62L326.92,135.96L319.15,136.89L321.39,137.59L312.03,135.71L320.80,138.35L314.81,138.98L316.16,139.17L315.01,141.43L317.05,139.27L319.33,139.62L318.77,140.60L322.19,139.04L323.88,140.54L323.33,141.99L327.12,142.37L323.42,144.82L326.84,144.75L328.63,146.82L329.57,146.72L328.73,144.45L329.83,143.42L332.87,146.28L335.81,144.82L337.56,146.48L337.31,145.08L338.79,144.26L344.34,146.82L342.78,147.64L349.53,147.18L345.65,145.78L355.35,144.25L354.80,143.36L358.89,141.53L376.67,142.19L375.60,143.72L386.14,146.54L385.47,146.72L386.65,147.46L385.89,148.50L386.49,149.49L380.79,152.01L386.22,152.65ZM351.74,119.88L349.40,118.79L353.87,119.33L351.74,119.88ZM324.05,121.24L319.47,123.27L314.70,120.74L314.52,118.33L320.09,117.61L324.05,121.24ZM233.36,123.41L228.25,123.79L222.90,116.28L226.53,116.39L233.36,123.41ZM301.95,117.41L298.67,120.16L285.11,119.61L283.01,117.87L288.07,115.20L302.87,117.15L301.95,117.41ZM245.34,116.14L245.34,114.27L249.79,113.93L254.67,116.08L245.34,116.14ZM198.83,111.37L201.43,111.97L198.83,113.60L198.83,111.37ZM242.55,109.04L243.31,109.84L240.19,110.55L242.55,109.04ZM198.83,103.56L203.41,106.59L202.49,108.57L198.83,108.32L198.83,103.56ZM417.02,102.31L419.42,103.03L416.12,103.03L417.02,102.31ZM279.43,115.41L278.24,115.24L278.91,113.69L274.11,112.14L279.68,110.87L273.21,109.76L274.15,109.41L270.21,106.20L272.57,105.35L270.49,102.51L276.10,102.10L292.25,107.86L288.70,109.59L291.87,111.24L290.81,113.05L279.43,115.41ZM225.90,98.03L226.82,95.03L237.50,94.58L242.68,96.31L244.29,98.12L243.32,100.12L244.41,101.03L250.26,98.33L254.33,100.31L253.11,101.96L258.26,101.75L261.07,103.40L260.02,104.21L263.13,104.74L261.20,106.86L261.62,108.59L266.90,111.77L265.92,113.14L266.39,114.25L260.79,115.57L256.65,114.50L253.89,109.96L244.45,109.44L243.16,108.87L243.52,107.63L232.92,109.04L229.35,105.98L238.62,106.04L239.60,104.86L235.51,104.31L239.98,102.90L234.63,102.37L236.82,100.67L234.26,99.44L229.91,102.09L231.61,99.26L225.90,98.03ZM259.47,86.15L261.77,84.12L265.83,84.35L268.37,86.56L268.71,88.88L267.55,90.51L259.47,86.15ZM285.94,77.45L284.10,77.28L291.36,77.63L285.94,77.45ZM281.19,85.53L280.10,84.83L294.99,86.28L292.37,84.83L296.80,83.73L288.71,84.44L286.89,83.73L289.76,82.92L280.81,81.56L288.49,81.56L284.40,79.55L285.62,78.91L284.86,78.37L298.66,79.09L293.17,77.28L296.55,76.45L287.90,75.18L291.78,71.99L294.59,73.27L297.90,72.27L295.48,71.21L302.54,71.54L302.16,69.99L294.90,69.36L301.91,67.88L310.89,70.72L310.18,71.81L318.31,77.45L317.46,78.59L327.76,79.91L326.54,82.27L330.96,84.81L333.37,84.75L329.91,82.27L330.31,80.85L336.12,80.64L336.93,83.69L333.88,84.46L340.38,86.74L337.42,88.28L340.66,87.33L339.59,90.78L337.59,92.29L344.68,90.80L346.33,91.85L345.56,93.30L346.17,93.61L348.44,91.20L353.28,95.81L341.99,99.95L340.62,98.55L340.80,100.49L336.43,104.15L334.29,101.91L335.95,98.30L333.20,99.46L333.44,103.56L332.07,103.95L334.83,105.35L332.87,106.53L329.32,104.58L330.95,107.15L329.28,110.49L321.92,104.54L322.03,106.73L325.32,110.50L319.92,108.22L317.34,108.40L319.96,109.04L319.79,110.77L309.50,109.89L303.55,106.50L311.81,105.18L301.76,104.79L298.49,102.49L303.26,102.49L295.53,99.58L301.46,97.13L319.71,96.12L305.79,96.15L315.07,94.20L302.96,92.94L303.47,94.20L301.10,94.85L301.52,93.40L297.77,95.96L296.04,95.75L298.32,94.11L289.89,95.67L286.38,93.02L295.49,89.11L285.93,90.74L281.41,88.02L284.19,87.30L281.19,85.53ZM499.95,55.16L479.71,63.21L456.07,65.36L449.33,63.25L455.19,65.63L452.11,65.53L453.81,65.98L465.95,65.98L443.76,70.45L479.32,66.44L460.07,73.56L447.13,81.40L443.17,81.37L443.72,80.55L440.00,78.59L445.32,82.64L444.09,83.57L430.18,83.29L433.39,84.56L430.66,85.29L442.07,85.29L436.09,87.47L439.46,87.55L438.04,88.92L431.34,90.60L419.05,87.51L415.25,88.11L424.25,89.10L425.83,91.88L414.32,92.59L414.98,93.88L414.12,94.45L401.16,92.12L408.88,94.67L401.22,93.18L399.51,93.39L400.99,95.02L395.46,94.67L417.57,96.39L415.37,97.02L417.74,98.57L407.59,96.69L394.24,97.12L407.10,98.38L390.32,98.48L397.66,99.30L394.43,102.43L397.56,99.81L409.49,99.64L405.31,101.41L415.69,101.60L414.87,102.22L416.01,103.22L415.08,104.13L416.56,104.86L404.07,105.67L414.11,108.22L402.50,109.94L410.71,111.19L408.55,113.24L394.50,112.65L393.18,113.87L397.58,117.87L391.58,121.73L380.12,121.86L371.59,116.87L373.22,119.02L372.82,120.20L376.31,121.56L369.99,121.96L372.08,123.71L376.73,122.15L382.81,123.24L381.22,124.98L387.01,122.80L389.63,124.58L387.36,126.96L391.39,128.26L395.27,125.67L397.58,128.34L397.24,130.43L393.57,133.07L391.06,131.59L387.87,135.24L376.92,137.54L378.76,133.68L376.09,131.77L370.86,132.39L372.54,130.11L369.51,130.82L366.71,128.35L370.70,131.71L369.82,132.34L370.36,133.43L365.04,133.46L362.71,129.14L361.80,129.84L363.91,133.53L360.66,133.48L357.09,130.44L357.57,133.27L352.40,132.34L356.51,135.07L351.49,135.48L344.45,134.09L344.01,132.99L345.31,132.25L343.03,130.73L344.72,132.25L342.14,134.63L337.76,133.07L336.96,131.02L337.93,134.53L331.79,134.03L331.15,128.31L329.91,129.80L331.22,131.98L330.47,133.88L329.90,131.27L328.67,133.80L323.93,131.62L325.74,129.52L324.81,127.87L331.85,124.61L331.23,124.46L342.87,123.60L338.90,121.88L341.35,121.14L335.99,121.06L336.12,118.79L332.97,117.33L333.63,115.15L332.91,114.51L343.80,114.86L346.74,116.50L347.84,120.32L356.03,121.96L355.10,120.88L362.18,121.34L359.90,119.88L365.14,116.96L369.23,111.59L366.50,112.32L366.68,113.64L360.87,118.87L354.21,119.06L353.55,118.35L356.22,116.29L353.09,117.97L350.58,116.14L352.92,114.76L350.27,114.92L356.95,114.05L348.56,113.55L357.12,111.59L352.52,110.31L358.72,110.31L352.94,109.85L355.35,107.99L353.54,107.77L355.10,104.86L349.71,111.28L344.80,111.58L347.44,107.57L341.85,111.09L337.13,110.77L339.87,109.94L337.21,109.59L337.17,107.23L341.30,105.40L339.68,104.95L340.80,103.20L352.55,100.44L369.10,105.13L369.74,104.79L367.54,103.31L369.86,103.03L363.45,101.57L372.72,101.49L374.41,98.75L367.92,100.93L354.27,98.89L356.11,97.44L362.82,98.67L356.87,96.85L355.90,93.92L352.61,91.20L343.66,89.30L344.15,86.61L351.18,87.11L343.29,85.71L342.56,84.30L343.48,82.02L360.20,82.79L373.57,91.11L372.52,91.28L379.90,91.85L385.04,90.01L374.14,89.87L373.29,87.35L374.88,86.92L363.79,81.83L395.51,78.56L383.74,77.92L404.97,74.75L390.06,74.45L393.09,70.57L403.56,66.99L394.65,68.79L391.29,71.33L386.56,70.18L389.27,71.63L385.89,75.13L378.13,77.32L365.59,78.96L364.02,78.32L372.68,75.27L361.55,76.27L364.29,75.08L363.37,74.88L359.74,76.00L360.62,77.73L359.84,78.90L351.99,79.43L341.97,78.09L348.91,73.10L368.97,70.45L347.93,72.39L336.08,77.55L325.27,73.97L342.28,72.77L354.38,69.07L323.03,72.67L319.79,70.53L328.53,69.54L322.24,68.45L328.80,66.19L338.90,66.26L332.16,65.00L318.93,67.91L316.67,66.90L324.51,64.44L320.12,63.49L312.91,65.80L309.92,64.07L320.47,60.89L326.05,62.09L327.21,61.08L325.57,60.49L333.84,58.13L342.10,60.98L339.62,59.88L345.59,58.95L350.28,61.46L348.22,59.71L355.18,60.98L341.18,56.79L350.27,55.88L347.08,53.80L354.54,53.14L353.07,53.88L360.90,54.92L365.35,57.89L364.25,58.61L371.97,58.97L367.35,58.18L365.24,55.59L388.25,61.98L384.36,59.20L366.70,54.18L374.41,52.88L369.19,50.80L379.94,52.34L373.76,48.92L374.44,48.53L384.46,51.01L383.61,50.33L392.72,50.42L380.87,47.60L382.54,47.08L396.74,47.26L408.79,51.60L406.80,53.55L411.83,51.33L399.60,46.41L401.16,45.78L419.22,46.25L429.12,50.24L422.59,47.24L435.05,44.90L434.02,46.01L439.92,47.79L435.83,46.15L447.00,44.73L446.46,45.59L448.45,45.78L447.43,46.41L467.85,47.14L453.58,51.18L470.61,48.37L474.89,49.33L473.67,48.88L477.72,47.47L476.24,47.97L485.41,48.58L482.91,49.97L488.60,51.97L485.86,53.70L493.24,52.52L492.15,53.15L499.95,55.16ZM383.65,402.23L382.87,402.25L383.15,400.87L386.31,397.87L383.65,402.23ZM386.02,394.67L386.70,395.09L386.20,396.67L386.02,394.67ZM384.12,393.04L384.78,392.28L385.17,394.26L384.12,393.04ZM387.24,456.94L388.12,457.03L385.85,459.10L387.24,456.94ZM378.84,445.84L379.10,448.82L370.82,444.46L372.08,442.30L376.29,441.94L378.84,445.84ZM387.91,419.35L389.56,418.99L384.87,421.07L387.91,419.35ZM400.06,409.97L400.68,409.52L398.00,412.52L400.06,409.97ZM391.16,402.69L390.06,403.33L391.70,399.03L391.16,402.69ZM386.31,404.33L386.77,403.31L384.08,407.24L383.36,406.24L386.44,401.02L386.88,397.48L385.93,403.13L387.15,401.96L388.42,395.82L388.15,397.45L390.40,400.59L388.42,406.78L389.79,399.71L387.91,406.69L388.72,401.78L386.78,406.52L384.83,407.70L386.31,404.33ZM467.00,313.33L467.59,313.93L466.19,313.07L467.00,313.33ZM464.00,311.07L464.95,312.67L463.08,310.64L464.00,311.07ZM476.06,294.54L476.60,295.60L475.90,296.09L475.38,294.57L476.06,294.54ZM180.34,246.22L181.86,246.00L179.43,246.56L180.34,246.22ZM373.40,226.73L374.37,227.62L371.81,227.00L373.40,226.73Z"><title>Nunavut</title></path>
<path data-code="CA-NL" data-name="Newfoundland and Labrador" d="M478.73,347.75L479.66,348.53L477.34,348.62L479.66,349.52L476.94,351.98L479.68,350.06L478.81,353.08L480.88,351.35L480.38,354.91L482.49,356.36L481.26,358.18L481.96,356.78L482.84,356.95L482.12,358.34L483.68,358.16L481.63,359.92L483.79,360.18L483.08,361.82L484.15,360.18L484.93,360.77L484.29,362.18L485.82,361.36L485.44,363.47L481.76,364.83L487.35,364.24L486.07,364.64L487.17,366.10L486.15,366.91L488.07,366.43L488.69,368.37L487.88,368.92L489.12,369.25L485.44,371.38L486.07,372.20L484.51,374.29L486.54,372.11L487.63,372.29L487.17,373.47L490.88,372.01L488.73,375.50L490.41,375.87L486.07,378.56L491.47,375.93L491.13,377.57L492.44,377.94L490.16,379.21L493.45,378.64L495.01,383.16L491.03,385.04L494.93,386.11L495.52,386.76L494.24,388.41L498.26,390.44L498.35,392.22L494.90,394.37L496.24,396.68L491.22,394.49L493.77,393.74L490.71,394.32L496.09,397.27L493.41,398.87L496.74,401.14L493.83,400.95L498.35,401.96L497.67,404.14L499.03,404.33L497.37,404.78L502.14,407.24L500.82,408.51L502.92,407.31L502.43,410.70L503.50,407.52L504.57,407.81L503.39,410.01L504.76,411.15L503.66,413.52L505.43,412.52L502.39,418.26L506.49,414.53L504.80,417.89L508.00,413.79L508.26,415.52L506.85,416.64L510.14,416.31L507.11,421.61L511.80,415.03L510.43,418.49L512.61,416.05L513.31,420.22L522.94,423.65L520.74,425.17L522.51,425.36L521.19,426.39L509.21,430.81L516.65,428.45L509.86,433.77L505.81,434.36L506.52,435.36L505.79,437.73L501.34,433.67L500.96,435.28L506.23,438.01L504.09,440.01L505.83,441.11L507.96,438.37L507.37,437.62L512.65,435.28L513.76,432.18L520.20,430.54L516.96,430.25L516.75,428.70L522.22,428.82L524.63,433.82L521.71,436.92L523.14,436.99L522.77,439.00L525.20,435.10L528.29,434.27L526.77,435.64L531.37,437.46L529.63,437.41L532.38,440.24L532.81,442.83L530.23,444.39L532.47,446.88L530.25,447.18L532.76,449.75L528.17,450.11L533.42,452.16L532.58,453.55L530.03,452.11L533.04,454.12L533.19,456.56L524.80,465.77L524.47,458.05L483.61,458.05L483.12,457.14L484.22,457.38L483.55,453.77L481.51,451.76L485.83,449.40L484.39,446.61L480.98,449.08L481.05,456.29L479.78,458.49L480.29,461.50L478.74,463.47L477.26,461.18L473.77,460.45L472.77,456.75L469.74,457.25L467.94,453.96L467.39,456.16L466.74,453.60L467.54,453.28L467.22,446.84L467.92,446.79L467.08,444.28L464.96,449.03L461.68,446.52L461.17,443.37L463.56,443.68L464.22,439.25L461.55,437.24L458.56,431.03L459.60,428.97L458.92,425.82L460.47,423.58L461.89,425.05L463.01,422.44L461.03,417.13L465.38,421.65L465.96,420.80L464.95,413.70L471.66,421.99L475.22,418.77L477.28,421.68L479.59,421.00L482.63,423.49L483.67,422.89L482.60,421.10L483.15,418.99L484.43,419.50L485.63,414.85L484.10,414.61L486.13,413.04L483.44,412.07L484.04,409.92L482.99,406.07L485.42,404.61L481.94,403.99L482.76,402.03L480.96,399.26L482.76,399.08L481.23,395.49L482.80,393.25L483.45,384.14L484.57,382.23L481.67,381.43L480.64,377.75L479.37,377.36L483.11,372.05L481.52,371.02L481.64,369.46L485.18,368.27L476.57,365.93L477.36,364.20L480.21,364.97L478.72,362.47L479.85,358.36L477.68,359.13L476.45,357.05L477.98,352.89L476.44,351.15L478.32,350.22L476.81,348.28L478.73,347.75ZM546.22,508.65L545.91,510.09L543.98,508.41L546.22,508.65ZM541.86,490.25L541.90,488.24L543.69,489.07L541.86,490.25ZM552.00,517.47L549.30,528.91L547.53,527.93L546.30,529.53L546.27,521.75L542.40,526.74L543.58,520.25L544.74,518.84L543.06,512.83L541.92,512.46L541.07,518.47L539.77,519.56L540.99,516.37L539.47,519.47L538.40,518.89L535.86,525.54L532.85,526.40L531.37,524.86L539.26,515.56L536.86,516.47L537.79,514.01L536.60,516.71L534.77,514.91L534.90,517.80L533.72,519.16L533.47,517.22L531.76,518.66L532.81,516.65L530.25,517.93L533.53,515.46L531.78,515.71L532.60,511.74L530.88,515.17L530.32,513.28L530.14,516.09L529.35,514.47L529.18,516.28L526.38,517.42L516.75,515.84L517.33,514.47L511.88,517.01L510.28,512.55L517.26,504.26L511.17,504.90L514.20,500.81L513.04,503.00L514.54,503.63L516.49,496.08L519.65,498.27L518.10,496.21L519.86,495.45L518.45,495.95L519.39,494.62L517.75,494.67L517.53,492.97L518.93,490.43L520.78,491.75L519.26,488.87L522.91,476.56L524.14,476.30L522.65,475.20L525.55,472.42L524.54,471.05L525.70,471.09L526.82,467.09L531.91,462.99L532.03,464.75L534.92,463.85L533.74,467.22L530.70,466.41L532.89,470.23L530.75,475.04L530.26,472.95L530.63,475.73L528.17,479.42L525.68,487.89L526.44,488.21L525.98,490.61L530.53,482.51L530.07,485.61L531.50,484.07L534.54,485.11L531.24,487.90L530.23,490.26L532.26,488.71L530.44,492.20L534.20,491.34L533.90,493.08L535.13,491.17L534.66,493.17L535.47,493.71L535.47,490.80L536.57,490.71L535.05,497.27L536.90,493.08L537.19,494.84L538.43,492.46L538.53,494.24L540.67,490.64L540.58,494.34L543.28,491.50L546.68,494.08L546.08,497.21L542.34,500.90L544.52,500.04L543.44,501.27L543.98,502.82L544.57,501.21L546.00,502.19L542.55,505.99L544.45,504.87L544.45,506.29L545.67,503.92L545.93,505.74L549.24,501.84L549.81,503.81L545.78,508.93L544.02,508.03L544.14,510.05L545.63,510.37L544.12,510.90L545.97,510.46L544.84,514.17L544.00,513.14L546.31,517.30L548.01,510.96L550.19,508.91L550.72,509.78L548.12,517.04L548.92,518.93L551.12,513.82L552.00,517.47ZM500.41,404.33L499.04,403.59L500.20,402.78L500.41,404.33ZM496.60,393.67L498.39,392.50L496.87,394.67L498.11,394.66L498.08,396.64L496.60,393.67ZM496.70,386.11L494.93,385.67L496.29,384.49L495.39,385.85L496.70,386.11ZM494.74,381.07L493.66,380.49L494.74,379.48L494.74,381.07ZM481.52,354.45L482.23,355.08L480.75,355.17L481.52,354.45Z"><title>Newfoundland and Labrador</title></path>
<path data-code="CA-NS" data-name="Nova Scotia" d="M481.74,537.85L486.75,540.32L485.82,540.78L486.39,541.41L490.16,540.78L489.70,542.89L494.86,539.22L495.08,541.83L497.44,541.86L499.01,544.31L497.63,546.32L500.66,547.42L496.24,548.70L496.53,549.87L489.20,554.78L487.43,553.81L485.46,556.39L484.09,554.79L484.94,557.43L484.27,558.46L482.44,557.52L482.69,555.06L481.54,557.98L480.12,556.79L480.35,560.77L479.36,559.80L475.70,568.08L473.59,567.72L472.93,571.34L471.36,570.77L470.55,566.90L468.95,567.72L468.52,562.12L470.68,556.70L468.48,559.12L469.70,556.61L471.59,556.07L473.21,553.98L471.40,554.65L479.06,546.50L481.05,551.25L481.30,548.16L485.94,546.23L476.28,546.70L481.74,537.85ZM506.13,540.50L498.72,543.75L497.08,537.46L502.67,524.41L504.19,524.11L503.58,525.85L504.71,526.40L504.46,529.76L502.90,534.94L504.00,533.97L499.74,538.42L502.10,536.99L499.56,541.63L502.12,541.94L504.17,537.77L501.82,538.35L504.88,533.40L504.84,535.67L507.79,535.49L506.89,537.38L507.83,538.60L506.13,540.50Z"><title>Nova Scotia</title></path>
<path data-code="CA-NT" data-name="Northwest Territories" d="M186.83,214.63L188.56,214.81L184.56,214.22L186.83,214.63ZM160.30,211.62L161.15,211.81L158.87,212.00L160.30,211.62ZM155.41,211.36L156.51,211.62L153.89,211.36L155.41,211.36ZM36.07,233.43L44.05,236.75L41.86,234.29L42.87,234.38L38.78,232.93L41.77,231.84L39.01,229.29L42.41,230.93L39.70,228.38L43.94,228.74L43.22,226.73L44.01,225.86L48.19,226.34L47.46,225.42L48.63,223.78L48.16,222.57L52.65,224.91L49.20,230.19L57.00,226.46L57.97,223.46L61.38,223.14L59.57,223.28L60.06,222.37L62.58,223.10L67.08,219.46L68.43,221.28L70.24,217.54L76.16,217.94L77.75,215.37L79.40,217.34L69.95,224.72L63.53,225.11L60.37,230.11L60.08,228.38L58.69,228.83L57.94,232.47L56.66,231.28L54.25,234.33L57.76,236.30L54.89,234.29L60.46,234.82L61.01,234.02L58.60,234.22L59.27,233.20L58.06,231.47L65.19,226.92L63.98,226.55L66.96,226.46L66.42,227.77L68.04,225.54L67.45,228.02L68.60,227.01L68.09,224.46L68.74,227.32L68.80,223.99L68.85,227.92L69.91,225.08L69.27,227.73L70.20,227.11L69.43,229.50L70.03,230.38L69.93,228.56L73.41,223.01L82.60,219.27L80.83,221.18L82.26,223.17L86.14,219.45L85.98,217.23L91.04,216.00L86.96,213.91L88.04,211.08L93.37,215.59L96.05,222.04L98.86,225.26L103.76,228.00L105.97,226.20L102.68,226.65L105.80,225.73L103.82,224.10L104.24,223.01L107.62,222.74L104.79,221.46L108.80,219.14L105.25,218.91L110.11,218.27L108.04,217.36L109.26,216.81L110.44,218.01L109.35,219.36L110.19,220.82L109.56,222.46L112.47,223.18L109.47,226.82L110.07,227.37L116.48,226.74L119.13,221.10L132.33,223.95L133.11,224.84L133.18,245.56L183.44,278.71L194.73,278.78L205.18,288.32L248.10,295.63L248.09,351.78L112.52,351.52L111.35,345.66L108.86,342.72L109.73,341.32L108.99,338.97L104.28,341.40L100.97,339.90L95.23,341.76L94.60,337.72L93.60,337.56L94.17,336.01L93.31,332.32L89.24,330.39L84.69,323.60L80.13,323.18L80.02,319.60L80.84,318.85L78.50,317.69L77.14,313.68L78.12,310.98L74.82,308.37L76.83,305.59L73.79,302.60L75.04,301.26L70.43,298.10L68.69,293.02L64.55,293.64L65.39,291.73L59.65,287.82L61.37,284.95L58.62,282.36L62.37,277.47L59.93,274.16L61.37,272.52L53.51,272.59L52.94,271.13L53.80,268.62L52.24,267.97L53.63,264.52L50.56,259.28L52.16,258.76L37.78,258.72L37.84,252.11L36.07,249.16L36.07,233.43ZM86.61,210.17L87.54,210.81L85.93,211.72L86.61,210.17ZM198.83,182.35L194.21,179.31L198.83,179.30L198.83,182.35ZM156.65,223.63L153.04,219.09L171.10,214.77L189.96,215.10L174.30,209.44L164.62,211.26L151.47,210.51L147.02,205.80L167.73,198.70L148.61,200.64L147.71,199.43L151.63,198.25L149.80,197.41L151.49,196.79L143.14,197.34L143.12,193.25L148.96,189.10L146.11,186.04L153.49,180.20L170.64,174.00L174.49,177.24L174.35,181.64L170.87,184.84L177.26,183.05L176.33,184.24L177.68,183.28L176.67,182.06L177.98,180.28L180.29,178.89L191.35,182.77L190.92,184.87L187.24,187.50L188.64,187.61L188.06,189.64L190.88,186.13L190.38,187.68L192.53,188.60L192.17,186.96L194.52,184.70L198.83,186.30L198.85,218.95L183.47,218.95L182.49,220.25L184.08,220.69L181.16,221.18L181.01,218.95L155.00,218.94L154.88,220.44L158.01,223.87L156.65,223.63ZM166.08,172.35L142.45,184.02L141.36,187.78L135.73,188.92L136.33,190.68L134.63,192.86L134.94,196.48L133.39,199.14L126.83,199.45L120.08,204.50L117.26,203.94L112.28,196.37L104.96,192.98L106.77,192.83L101.12,192.87L103.82,186.87L106.81,184.82L105.89,183.96L106.86,183.05L105.82,180.86L109.75,179.99L107.38,177.90L114.07,168.93L111.36,167.43L108.03,161.19L127.57,158.44L140.26,162.75L138.74,165.35L140.50,162.82L142.57,163.04L142.29,165.92L145.14,162.89L153.20,162.73L166.08,172.35ZM131.16,140.18L131.95,140.36L131.20,142.40L129.34,142.44L131.16,140.18ZM150.93,140.63L145.83,145.85L140.94,144.55L145.79,140.29L152.92,138.08L150.93,140.63ZM198.83,136.25L196.49,135.26L196.49,133.53L198.83,132.80L198.83,136.25ZM198.83,154.50L188.65,159.16L179.03,160.45L171.52,156.74L181.63,152.74L189.09,152.45L193.20,149.45L184.41,150.92L182.36,148.82L181.27,151.08L174.93,151.77L176.41,150.00L174.60,150.10L175.38,148.24L178.40,146.90L173.80,146.23L173.03,149.55L170.45,148.78L172.36,150.12L171.52,151.64L167.72,152.98L166.46,150.10L163.97,150.57L164.77,152.01L163.67,152.93L160.35,151.74L161.65,150.83L159.84,151.00L160.34,149.73L157.20,150.91L151.53,149.09L154.52,146.15L161.66,146.10L168.06,143.26L154.23,144.45L156.47,142.06L169.14,140.86L157.39,140.09L159.08,139.54L157.60,138.72L158.04,137.66L160.92,136.55L170.13,137.08L162.37,135.44L169.92,132.34L173.25,133.16L174.46,136.72L183.92,136.99L183.31,137.65L188.22,140.36L185.15,141.72L189.87,141.36L189.03,141.72L191.15,145.61L198.83,145.30L198.83,154.50ZM169.08,129.16L175.18,127.32L177.60,128.98L169.08,129.16ZM141.50,136.60L139.04,134.80L140.05,137.62L138.50,137.72L140.46,139.59L134.91,141.82L134.29,141.29L134.91,139.62L131.97,136.59L131.07,137.41L131.43,139.81L129.30,140.44L125.93,138.65L120.49,139.54L122.02,137.90L120.65,137.72L121.96,137.35L121.26,136.94L118.58,138.08L122.51,133.89L127.99,133.30L129.99,130.11L135.03,128.44L142.45,121.66L155.52,122.08L154.65,121.34L157.94,120.79L154.82,119.88L159.42,118.50L165.66,121.88L159.46,124.15L163.57,126.66L159.67,126.88L162.58,129.98L155.72,131.92L156.17,134.53L154.93,135.40L149.25,133.80L151.23,128.89L150.44,128.32L146.55,129.71L147.73,131.88L143.79,132.31L146.11,134.67L143.68,137.45L141.50,136.60ZM176.16,114.46L176.84,115.15L172.38,116.50L167.35,113.22L172.22,111.62L176.16,114.46ZM198.83,113.60L193.29,114.64L198.19,115.66L198.60,117.41L197.40,119.27L186.60,121.60L179.37,119.13L178.90,118.24L179.83,117.69L178.40,115.24L190.99,111.49L198.83,111.37L198.83,113.60ZM198.83,108.32L178.32,108.22L196.23,102.51L198.83,103.56L198.83,108.32ZM40.62,225.48L41.30,226.28L39.79,225.84L40.62,225.48Z"><title>Northwest Territories</title></path>
<path data-code="CA-PE" data-name="Prince Edward Island" d="M494.29,531.58L490.77,534.57L491.51,537.41L489.69,538.40L487.44,534.88L488.39,533.50L486.72,535.81L484.45,534.87L483.62,532.48L481.18,532.23L481.56,529.22L479.44,528.68L482.02,523.57L481.43,527.39L483.03,529.61L482.40,531.39L494.29,531.58Z"><title>Prince Edward Island</title></path>
  </g>
</svg>
