<?xml version="1.0" encoding="UTF-8"?>
<svg xmlns="http://www.w3.org/2000/svg" viewBox="0 0 560 640" class="pref-muni-svg" role="img" aria-label="行政区分">
  <g class="pref-muni-svg__paths" fill="#eaf2fb" stroke="#5b7fa8" stroke-width="0.6" stroke-linejoin="round">
<path data-code="CN-XJ" data-name="Xinjiang" d="M46.02,324.81L45.29,324.10L41.58,324.36L37.25,323.07L34.35,321.30L34.05,319.64L30.75,320.69L30.08,318.81L28.39,317.87L29.40,316.04L29.07,313.49L27.94,311.49L26.16,310.29L24.22,310.63L23.17,308.37L21.27,307.66L19.25,308.61L18.54,307.42L16.31,307.35L14.89,306.20L17.90,304.32L18.55,305.24L19.42,305.05L21.84,303.19L19.42,301.01L20.07,299.17L18.52,295.72L18.90,291.53L14.28,289.27L12.59,289.27L11.89,290.79L10.89,290.80L9.14,288.69L8.65,287.03L9.97,286.08L8.00,283.36L8.22,280.72L10.05,280.42L10.79,279.25L9.87,277.01L11.11,274.43L14.78,273.50L17.76,271.03L19.16,271.08L18.49,270.05L18.92,269.05L22.11,269.82L25.04,267.72L26.31,269.72L26.45,271.46L31.45,269.82L32.21,270.84L34.80,267.96L35.04,266.27L36.93,263.54L47.73,263.26L50.17,260.72L50.26,259.55L52.92,257.85L62.61,254.03L63.45,252.69L66.91,252.34L67.24,250.10L66.13,245.64L67.06,243.76L69.73,243.07L68.13,241.43L71.91,240.10L70.57,238.16L71.19,236.70L67.87,229.43L68.02,223.60L69.23,222.77L67.03,221.81L64.78,222.05L63.59,220.84L65.77,219.43L72.45,218.40L79.66,215.97L82.20,218.20L84.82,217.24L87.44,218.43L88.26,215.22L85.23,213.94L91.41,198.47L91.73,195.58L99.59,198.12L106.33,198.01L107.11,198.74L107.01,199.87L111.33,197.38L113.76,197.27L115.36,194.82L113.91,187.74L115.71,182.92L123.24,181.07L124.90,179.01L125.24,177.65L124.53,176.39L125.86,174.73L130.67,175.11L134.37,174.07L134.87,176.24L133.67,177.32L136.53,179.09L135.50,180.28L135.85,180.80L140.48,182.55L141.31,184.69L145.30,186.94L149.72,186.52L151.58,188.79L154.19,188.18L154.53,189.54L156.86,190.61L157.96,194.45L160.13,197.68L161.66,198.44L163.11,202.60L161.76,205.50L162.71,208.57L160.11,211.53L159.58,214.37L161.56,217.74L163.19,217.40L167.44,219.01L173.53,219.68L179.12,219.36L185.15,220.32L188.72,223.38L190.99,223.51L195.58,226.99L198.59,227.96L201.80,227.68L201.10,230.58L203.02,231.23L206.04,239.03L210.10,242.95L210.41,244.78L207.63,246.78L207.55,252.57L205.95,254.31L198.78,255.03L194.53,257.27L189.47,262.55L185.61,268.21L183.02,269.51L179.95,269.48L179.72,273.64L178.38,276.17L180.04,280.79L179.90,283.96L165.30,288.44L159.66,289.18L157.18,291.28L155.21,291.72L157.70,296.66L157.55,298.94L163.41,302.29L165.50,306.29L165.34,307.40L161.14,308.43L159.93,310.05L160.55,312.08L162.75,313.04L163.68,317.76L161.38,318.51L159.33,317.35L155.16,317.11L154.06,315.73L153.31,317.69L150.93,317.67L139.55,313.57L122.44,316.11L120.10,317.29L117.78,321.16L115.80,321.13L114.40,322.34L113.26,321.29L110.65,321.31L101.98,325.41L92.62,325.10L91.28,324.16L91.15,322.33L89.98,321.95L86.33,322.02L82.66,326.04L79.12,326.94L74.40,325.27L73.56,326.32L69.17,325.11L67.29,323.75L66.42,326.76L64.98,328.60L65.19,329.65L63.82,330.42L64.50,332.86L63.02,335.79L60.24,335.35L55.57,336.79L52.97,334.74L49.70,333.66L47.07,326.59L47.46,324.15L46.02,324.81Z"><title>Xinjiang</title></path>
<path data-code="CN-XZ" data-name="Xizang" d="M55.23,347.25L54.01,345.43L53.56,339.65L55.75,338.13L55.57,336.79L56.29,336.30L60.24,335.35L63.02,335.79L64.50,332.86L63.82,330.42L65.19,329.65L64.98,328.60L66.42,326.76L67.29,323.75L69.17,325.11L73.56,326.32L74.40,325.27L79.12,326.94L82.66,326.04L86.33,322.02L89.98,321.95L91.15,322.33L91.28,324.16L92.62,325.10L101.98,325.41L110.65,321.31L113.26,321.29L114.40,322.34L115.80,321.13L117.78,321.16L120.10,317.29L122.44,316.11L138.47,313.64L143.46,314.49L150.93,317.67L148.77,318.70L149.45,320.06L151.95,320.56L151.04,323.84L151.46,324.60L149.27,325.70L148.94,327.08L149.98,328.74L149.96,330.11L151.82,330.31L152.24,331.23L151.26,332.56L152.41,336.59L150.55,339.70L153.57,344.57L155.22,345.34L156.51,348.25L160.67,349.97L163.82,348.70L164.27,347.82L165.98,347.81L167.51,350.61L171.37,353.15L173.32,352.93L173.55,354.29L180.45,354.33L180.87,355.31L182.22,355.15L184.88,356.83L187.00,356.19L190.35,357.22L194.84,355.08L197.59,357.46L197.98,358.96L201.79,360.69L202.04,362.27L201.41,362.97L202.59,365.25L207.71,365.61L208.87,367.57L208.78,363.88L209.89,363.50L211.29,365.10L213.95,365.97L213.72,362.81L218.32,361.64L218.51,359.70L219.51,359.39L219.26,356.98L221.66,357.59L222.42,356.50L226.77,358.56L228.97,362.64L228.73,364.52L232.81,369.56L231.77,370.92L230.72,369.97L230.31,371.58L233.49,376.44L233.00,377.13L234.34,385.35L233.72,388.25L234.81,392.94L233.66,393.27L233.91,394.91L233.10,395.82L233.06,397.35L232.51,397.37L231.91,395.38L230.69,395.79L230.98,398.15L230.18,399.01L230.67,401.50L230.07,402.88L228.92,403.83L227.61,402.48L225.97,404.79L220.91,400.46L220.03,403.10L218.93,403.98L217.08,402.35L215.75,402.74L213.53,401.58L210.44,402.22L209.84,401.75L210.15,401.11L212.43,398.05L211.23,395.45L210.42,394.99L208.89,396.04L208.71,394.20L210.41,392.57L209.25,392.75L207.82,391.34L204.89,391.66L204.64,393.00L203.28,392.70L202.60,394.64L201.53,394.99L196.27,393.57L194.70,391.92L191.93,393.77L192.46,395.13L189.30,397.10L188.73,398.88L184.44,399.00L183.30,399.75L182.13,401.63L182.32,402.63L177.62,404.91L177.26,405.74L178.13,406.52L177.66,407.35L174.28,408.72L173.71,407.85L171.16,409.39L165.27,405.37L163.15,406.78L159.73,405.38L158.02,405.58L159.02,403.81L156.38,403.50L155.80,402.44L153.05,402.91L149.89,404.89L144.71,411.53L144.65,413.92L142.76,412.57L143.60,408.09L143.28,406.43L141.43,405.21L137.03,406.95L137.06,407.90L134.55,407.38L133.57,408.48L130.39,408.52L130.35,407.96L128.50,408.28L124.26,405.21L123.14,405.23L122.00,407.36L120.02,406.34L119.60,404.65L118.83,405.53L119.22,407.17L118.04,407.63L115.49,402.69L114.76,403.61L110.10,403.03L110.75,399.84L109.81,399.36L107.65,400.42L104.44,398.32L102.27,396.05L102.49,395.11L101.23,392.58L99.67,392.22L97.22,393.70L96.19,393.38L93.08,388.58L92.11,389.04L91.32,388.11L90.08,388.15L87.46,385.26L84.01,383.78L83.43,380.80L79.21,379.84L78.28,380.82L77.19,380.32L76.86,382.69L75.67,384.33L74.62,384.23L73.53,381.62L70.16,379.37L66.45,378.28L66.91,376.46L66.25,375.71L65.41,375.81L63.37,373.87L61.10,374.12L59.53,373.18L57.13,368.63L56.58,368.38L55.26,370.48L53.69,370.06L53.29,367.85L54.35,366.78L53.03,364.99L53.69,362.86L51.14,359.95L50.49,356.46L53.62,355.56L53.93,357.40L55.45,358.67L56.63,358.40L56.96,357.28L58.81,355.97L59.90,356.60L61.48,354.47L58.92,351.56L60.01,348.74L56.83,348.34L55.23,347.25Z"><title>Xizang</title></path>
<path data-code="CN-NM" data-name="Inner Mongol" d="M384.28,190.33L381.26,187.85L380.72,185.42L383.26,184.20L383.26,181.04L385.29,178.44L391.12,166.85L401.37,170.30L408.56,165.41L412.53,165.06L414.53,163.89L414.89,161.17L412.94,160.60L416.14,156.82L416.33,154.98L418.31,153.15L418.50,151.57L419.86,150.30L421.51,146.69L426.37,143.94L427.54,141.67L426.18,139.15L427.05,137.01L424.65,135.95L421.32,136.48L420.91,134.61L428.13,128.98L432.69,128.43L435.18,129.57L436.53,131.98L431.01,136.63L436.90,140.00L438.56,139.85L440.25,137.58L442.86,139.82L445.09,140.31L444.03,141.69L445.17,144.87L444.71,146.13L446.27,149.02L448.08,150.51L452.83,151.77L454.84,150.51L459.48,150.85L460.32,150.02L463.55,149.90L466.22,147.18L469.41,148.37L474.48,154.15L471.79,156.63L472.14,159.05L470.19,160.12L468.94,162.71L467.43,163.75L468.01,164.23L466.74,165.44L467.04,168.55L466.20,168.68L467.46,171.07L467.09,173.41L466.29,174.36L463.96,173.93L463.50,174.62L460.92,180.72L460.82,185.45L459.93,184.90L458.27,181.03L452.43,186.26L449.84,187.51L449.13,188.90L443.43,192.01L442.00,194.20L443.51,196.40L447.94,200.08L448.96,200.45L450.77,198.94L451.65,199.84L452.75,199.58L450.77,202.28L447.38,202.20L447.20,204.35L448.73,206.40L448.14,207.49L445.53,207.78L444.65,211.97L442.09,209.39L440.53,210.86L438.50,209.09L436.58,208.65L436.72,209.93L435.28,211.66L437.86,212.25L438.23,213.98L440.26,215.87L440.34,217.33L438.45,218.80L438.77,223.01L440.87,225.95L440.87,228.36L448.29,225.07L448.37,226.41L450.49,229.10L450.16,230.30L451.98,234.21L450.41,236.48L453.49,237.86L452.81,240.78L449.62,241.75L447.82,244.07L445.19,244.68L441.89,243.35L441.95,245.49L438.80,244.80L435.94,247.69L434.41,246.84L432.91,247.15L429.63,249.96L428.73,249.46L425.02,251.13L424.69,252.44L421.46,255.98L418.84,251.30L419.16,250.53L417.38,250.08L416.27,248.38L413.91,250.54L415.05,251.83L414.37,255.16L415.19,258.64L413.77,260.69L410.02,259.49L406.02,260.15L405.61,257.44L404.17,255.45L405.52,255.07L405.29,252.03L403.93,252.39L403.70,250.79L402.73,250.28L403.04,248.51L401.06,246.02L399.21,246.66L398.64,245.91L397.60,247.69L394.85,247.49L392.93,248.37L392.39,249.33L392.95,252.02L392.13,252.86L390.37,253.55L388.39,252.61L385.54,254.93L383.97,253.44L379.16,255.78L379.18,256.93L378.28,257.26L375.05,256.97L375.53,254.38L374.76,251.09L372.14,251.29L369.31,254.61L368.94,257.28L366.61,259.10L367.14,261.83L365.67,262.66L368.62,266.51L367.50,267.61L367.92,269.15L362.24,271.10L359.12,270.23L355.92,272.78L353.01,271.50L351.94,272.15L348.10,278.74L344.60,278.56L343.61,280.76L341.51,281.46L340.93,281.00L341.78,279.35L340.73,279.41L337.51,282.94L336.24,281.56L334.76,282.17L332.72,280.86L333.22,282.57L328.78,285.52L327.66,287.89L326.37,288.34L323.18,291.98L322.35,294.29L323.09,295.79L322.27,297.51L321.46,296.72L320.92,297.25L320.59,300.18L314.02,300.60L313.25,298.97L308.65,297.58L307.87,295.89L306.44,295.09L303.47,294.97L300.28,293.43L304.83,285.48L303.28,283.46L302.98,281.55L298.78,282.46L298.57,283.99L297.08,284.36L294.68,290.35L294.74,293.70L293.92,294.99L294.55,296.62L294.31,298.67L292.91,299.53L289.40,299.63L286.71,301.60L282.53,301.87L280.52,303.26L275.45,299.08L273.21,298.27L272.86,296.63L272.87,295.50L274.12,295.01L273.32,292.08L277.18,289.56L280.24,285.26L278.85,280.95L273.54,281.72L269.11,284.33L264.02,283.04L259.02,284.74L260.80,286.97L259.02,289.04L254.47,288.29L253.51,285.55L252.09,285.65L250.53,284.32L249.94,281.21L247.24,281.05L244.70,278.17L240.62,276.20L237.67,275.99L241.99,272.26L244.42,268.30L244.42,266.88L243.17,265.00L235.24,265.49L232.29,266.69L230.29,268.65L227.03,268.87L227.80,264.88L224.50,262.37L221.91,259.15L223.58,256.89L217.75,244.08L238.06,246.52L242.88,245.29L256.30,246.81L258.17,247.65L260.82,250.69L270.07,252.66L275.56,255.36L282.76,254.13L282.80,256.48L286.97,257.26L288.99,255.53L302.93,249.57L315.46,247.73L320.97,248.34L327.09,247.78L335.29,244.28L340.33,238.27L348.87,234.09L348.03,231.43L345.40,229.04L344.10,226.51L347.13,220.16L349.09,218.86L353.13,219.06L356.12,221.27L363.73,222.64L368.04,220.21L370.97,217.58L372.00,215.56L382.08,214.80L386.55,212.00L387.27,210.97L386.93,209.82L390.09,205.62L392.28,204.57L396.93,204.89L397.43,202.54L398.98,202.19L401.02,203.10L405.22,200.88L409.23,201.38L410.35,200.41L412.27,201.56L417.77,202.32L419.79,200.93L419.69,198.95L417.94,196.09L414.23,193.28L414.48,192.61L412.91,192.05L412.46,190.58L409.65,189.54L407.03,186.98L400.75,186.94L397.14,190.69L392.35,188.22L387.21,188.37L384.28,190.33Z"><title>Inner Mongol</title></path>
<path data-code="CN-GS" data-name="Gansu" d="M210.41,244.78L217.75,244.08L223.58,256.89L221.91,259.15L224.50,262.37L227.80,264.88L227.03,268.87L230.29,268.65L232.29,266.69L235.24,265.49L240.66,264.68L243.30,265.12L244.42,266.88L244.42,268.30L241.99,272.26L237.67,275.99L240.62,276.20L244.70,278.17L247.24,281.05L249.94,281.21L250.53,284.32L252.09,285.65L253.51,285.55L254.47,288.29L259.02,289.04L260.80,286.97L259.02,284.74L264.02,283.04L269.11,284.33L273.54,281.72L278.85,280.95L280.24,285.26L277.18,289.56L273.32,292.08L274.12,295.01L272.87,295.50L273.16,298.15L275.45,299.08L280.52,303.26L284.69,303.13L283.97,305.01L285.92,305.20L286.89,306.89L288.80,307.90L290.05,309.82L289.16,310.96L291.19,315.93L290.05,319.41L291.04,321.24L293.66,321.75L293.37,322.44L294.58,324.12L296.78,324.29L295.19,325.07L297.67,325.01L299.46,326.68L300.46,325.09L299.79,323.50L300.64,323.39L299.99,321.71L302.58,322.11L304.20,320.96L303.60,319.86L304.44,319.40L304.45,317.62L303.43,316.27L300.51,315.62L299.93,313.05L300.51,310.88L301.87,309.79L301.21,308.34L301.82,305.60L302.74,305.33L304.27,306.39L307.16,306.51L307.55,308.57L312.88,310.28L314.26,312.01L315.83,312.00L320.07,314.54L319.89,318.57L318.25,319.98L319.35,325.32L318.37,326.53L313.63,327.10L311.59,326.05L310.97,327.12L312.48,329.56L311.43,330.06L306.87,330.73L304.23,328.56L300.47,329.21L300.93,331.52L298.92,334.11L302.09,336.30L302.13,337.66L300.51,337.59L301.32,339.01L299.86,341.34L300.92,345.31L296.15,344.74L294.68,345.95L293.56,347.62L295.43,349.03L295.13,351.65L293.14,352.73L290.88,352.57L291.09,354.28L289.60,355.43L288.20,355.95L284.05,355.25L280.97,353.27L280.89,352.34L282.01,351.11L280.82,348.40L281.74,347.98L279.86,346.11L279.59,344.47L274.14,343.74L274.23,342.52L271.45,342.90L270.66,338.90L268.64,337.23L265.75,338.76L266.17,339.55L262.04,341.16L264.81,346.39L259.21,350.15L258.96,348.77L259.85,346.86L259.49,345.50L258.70,344.85L258.54,345.68L257.17,345.93L256.15,343.76L253.14,344.31L252.78,342.16L251.16,341.29L249.77,338.82L249.91,337.47L251.05,336.28L256.69,338.23L258.57,339.78L261.89,337.38L262.44,336.52L261.86,335.08L258.34,332.79L259.69,332.22L259.92,330.87L263.85,327.64L262.83,326.36L263.17,324.93L265.28,323.66L266.77,323.79L266.75,320.33L269.20,320.40L269.41,318.67L268.78,317.82L269.77,316.19L267.80,314.99L267.37,313.11L265.84,311.19L266.56,309.84L264.61,308.08L265.42,305.79L260.88,302.49L260.21,299.53L258.44,301.83L252.07,297.01L248.39,295.46L247.45,293.61L245.67,293.10L243.98,291.28L243.47,292.29L244.14,294.34L240.95,292.60L234.57,285.98L231.90,284.90L230.30,286.22L227.83,285.38L225.55,287.81L219.27,283.99L216.17,283.53L215.27,292.76L207.64,289.17L201.05,283.65L198.32,283.98L194.98,282.40L190.70,282.08L179.90,283.96L180.04,280.79L178.38,276.17L179.72,273.64L179.95,269.48L183.02,269.51L185.61,268.21L189.47,262.55L194.53,257.27L198.78,255.03L205.95,254.31L207.55,252.57L207.72,246.58L210.41,244.78Z"><title>Gansu</title></path>
<path data-code="CN-YN" data-name="Yunnan" d="M259.35,468.06L257.97,466.83L256.21,469.53L258.78,476.33L258.17,476.93L257.99,479.67L258.95,480.62L258.35,481.63L256.23,480.54L253.80,481.08L252.36,474.78L248.26,478.05L245.77,477.38L244.18,478.41L243.50,477.15L244.00,476.01L242.29,475.28L242.22,471.72L235.12,470.54L237.02,466.78L236.58,464.04L237.51,462.01L238.62,462.05L238.22,460.62L236.81,459.82L235.76,460.62L232.58,459.28L232.86,456.78L231.89,455.40L232.56,454.55L232.00,452.92L230.85,452.50L230.80,450.70L232.64,448.67L230.15,449.44L225.88,449.16L221.61,451.95L220.64,450.90L222.45,448.65L221.81,445.53L220.62,445.46L220.79,442.33L222.86,441.11L222.27,438.58L223.17,436.69L224.14,437.02L225.34,435.87L226.19,432.59L227.72,433.18L229.37,430.18L231.08,429.80L229.80,427.16L231.22,426.40L230.66,425.53L231.66,421.46L230.99,411.01L228.59,409.84L228.35,411.25L227.57,411.46L225.90,406.67L225.97,404.79L227.61,402.48L228.92,403.83L230.07,402.88L230.67,401.50L230.18,399.01L230.98,398.15L230.59,396.04L231.87,395.36L232.51,397.37L233.35,397.13L233.75,393.18L234.81,392.94L235.28,401.56L237.28,404.84L237.16,400.67L240.18,397.09L241.36,399.74L244.07,402.77L244.17,403.78L242.98,404.51L243.37,405.89L245.29,407.86L245.58,409.30L246.57,408.06L248.61,407.74L251.43,413.24L251.70,415.28L253.12,415.19L252.98,417.05L255.16,420.25L256.08,419.82L255.29,422.07L257.35,424.28L256.81,425.92L258.42,426.39L259.18,427.94L261.52,427.39L265.57,424.17L266.58,425.89L269.31,424.31L269.93,422.21L268.54,418.17L268.43,414.15L269.01,412.73L270.49,412.82L273.43,409.00L274.44,406.56L273.34,405.90L273.46,404.90L274.50,403.70L275.84,404.00L277.24,402.80L276.49,400.54L276.98,399.04L282.25,399.52L280.53,400.66L280.70,402.71L282.02,403.74L282.25,405.16L281.23,406.12L282.69,407.62L286.21,407.51L287.36,405.43L289.71,406.36L289.23,407.95L289.84,409.42L288.92,413.01L282.89,413.85L281.52,412.44L279.86,414.37L277.77,412.97L274.72,416.58L276.34,417.83L275.77,419.37L276.79,422.32L278.55,422.66L279.41,421.25L281.25,421.39L282.02,420.44L284.33,424.13L281.78,428.94L281.76,430.83L280.96,431.02L282.16,433.80L283.17,433.79L283.34,435.11L285.33,436.54L282.60,442.96L283.37,445.41L284.52,446.67L284.85,445.16L288.03,445.59L288.76,448.67L289.72,449.46L289.84,448.85L291.40,449.81L292.55,448.72L294.96,450.00L296.28,449.05L297.87,451.88L297.28,452.38L297.20,455.42L296.14,456.09L294.70,455.57L291.84,459.46L289.81,457.23L288.99,458.46L286.14,459.36L285.41,460.31L285.63,462.08L284.67,463.15L283.23,463.05L281.33,464.69L280.41,464.08L280.45,463.17L279.08,463.54L277.95,466.66L275.17,463.45L273.89,465.84L272.27,463.55L269.49,467.50L264.68,463.79L262.46,467.72L260.48,467.31L259.35,468.06Z"><title>Yunnan</title></path>
<path data-code="CN-HL" data-name="Heilongjiang" d="M449.76,125.73L455.09,126.62L463.93,130.80L464.36,129.86L466.22,129.72L470.61,131.30L471.61,132.19L470.83,133.25L472.53,133.01L473.77,134.56L474.76,134.45L473.90,136.52L475.87,137.11L475.76,137.83L477.10,138.82L476.78,139.49L477.88,139.94L476.79,140.77L478.92,141.53L477.88,142.98L480.43,146.16L480.00,147.61L482.07,149.64L481.17,150.76L482.62,150.38L482.26,153.23L485.43,156.67L486.14,158.57L485.44,159.80L486.06,160.35L485.81,161.31L488.12,162.62L487.20,164.63L487.66,167.22L490.47,169.47L493.53,169.97L497.74,169.17L498.89,169.68L498.53,170.72L501.68,172.06L503.69,172.14L504.03,171.22L504.93,171.26L505.57,172.70L506.98,172.88L508.90,175.60L511.35,177.17L515.55,177.30L514.26,180.10L515.12,181.57L516.30,181.53L516.88,183.63L515.55,186.16L517.62,188.13L518.14,190.11L532.01,190.07L533.34,187.40L534.51,187.56L537.05,185.69L540.90,185.81L542.80,184.11L548.56,182.68L551.52,183.97L550.10,186.76L552.00,190.04L550.08,192.67L546.76,194.24L547.15,196.54L545.74,198.04L545.26,201.51L543.76,203.65L544.54,204.52L543.91,205.09L544.26,205.97L542.35,207.26L542.09,209.53L540.48,210.79L540.48,212.90L537.83,214.37L537.26,218.44L535.53,219.48L527.06,217.22L526.03,216.08L522.30,220.21L517.85,221.52L519.03,223.28L520.80,230.17L519.88,235.89L520.70,236.59L519.55,236.99L518.47,236.15L517.11,236.93L513.11,234.33L512.48,230.23L510.47,232.46L508.78,230.53L507.52,232.09L503.19,232.95L502.59,233.50L502.73,235.02L500.59,235.85L499.47,235.47L495.73,229.07L495.06,225.30L492.98,227.01L492.18,226.83L492.12,229.52L489.80,230.00L487.25,226.25L487.81,224.43L484.40,223.54L483.27,224.20L482.68,221.70L483.55,220.51L482.45,218.31L478.95,217.08L475.31,218.24L473.18,217.52L471.38,215.95L471.30,214.17L469.10,214.47L468.42,215.41L465.82,215.55L465.45,214.38L464.33,213.94L463.85,214.91L459.71,214.83L456.31,211.35L456.74,210.22L455.97,209.47L456.53,208.43L455.78,205.60L448.73,206.40L447.20,204.35L447.38,202.20L450.83,202.25L452.71,200.31L452.56,199.20L451.78,199.87L450.67,198.96L448.40,200.30L443.51,196.40L442.00,194.20L443.43,192.01L449.13,188.90L449.84,187.51L452.43,186.26L458.27,181.03L459.93,184.90L460.82,185.45L460.92,180.72L463.50,174.62L463.96,173.93L466.29,174.36L467.09,173.41L467.46,171.07L466.20,168.68L467.04,168.55L466.74,165.44L468.01,164.23L467.43,163.75L468.94,162.71L470.19,160.12L472.14,159.05L471.79,156.63L474.48,154.15L469.41,148.37L466.22,147.18L463.55,149.90L460.32,150.02L459.48,150.85L454.84,150.51L452.83,151.77L448.08,150.51L446.27,149.02L444.71,146.13L445.17,144.87L444.03,141.69L445.09,140.31L442.86,139.82L440.25,137.58L438.56,139.85L436.90,140.00L430.99,136.58L436.61,131.79L435.08,129.46L433.18,128.50L441.22,126.54L446.05,126.78L449.76,125.73Z"><title>Heilongjiang</title></path>
<path data-code="CN-JL" data-name="Jilin" d="M520.70,236.59L520.08,240.41L519.14,241.39L519.36,242.72L513.17,244.64L514.64,245.89L514.27,246.89L514.01,246.01L513.58,246.68L511.89,244.94L511.68,242.81L508.75,241.65L506.91,247.86L505.42,248.66L503.68,247.82L502.38,249.22L502.54,250.30L500.13,252.33L492.07,252.78L492.19,254.21L494.46,257.29L493.06,259.56L491.78,258.52L488.55,258.97L484.07,257.96L484.47,257.27L482.25,254.90L480.99,256.05L480.02,255.61L480.45,255.99L479.02,256.95L478.62,259.83L475.08,262.86L474.05,264.79L471.34,265.23L470.21,264.65L471.92,262.11L471.72,261.09L470.09,259.18L469.08,256.23L467.81,256.22L467.68,253.23L469.36,251.05L467.92,250.85L465.91,246.32L464.64,245.45L464.80,244.14L463.85,243.33L464.07,240.62L463.00,240.58L460.46,243.37L459.62,243.00L459.91,240.76L458.58,239.17L454.25,236.62L453.49,237.86L450.57,236.69L450.45,235.88L451.02,234.95L451.69,235.27L451.98,234.21L450.16,230.30L450.49,229.10L448.37,226.41L448.17,224.93L440.87,228.36L440.87,225.95L438.77,223.01L438.45,218.80L440.34,217.33L440.26,215.87L438.23,213.98L437.86,212.25L435.28,211.66L436.72,209.93L436.58,208.65L438.50,209.09L440.53,210.86L442.09,209.39L444.59,211.99L445.27,211.21L445.53,207.78L448.06,207.57L449.31,205.91L455.78,205.60L456.53,208.43L455.97,209.47L456.74,210.22L456.31,211.35L459.54,214.77L463.85,214.91L464.33,213.94L465.45,214.38L465.82,215.55L471.30,214.17L471.38,215.95L473.18,217.52L475.31,218.24L478.95,217.08L482.45,218.31L483.55,220.51L482.68,221.70L483.27,224.20L484.40,223.54L487.81,224.43L487.25,226.25L489.80,230.00L492.12,229.52L492.18,226.83L492.98,227.01L495.06,225.30L495.73,229.07L499.62,235.63L502.64,235.09L502.88,233.11L507.52,232.09L508.78,230.53L510.47,232.46L512.48,230.23L513.11,234.33L517.11,236.93L518.47,236.15L519.55,236.99L520.70,236.59Z"><title>Jilin</title></path>
<path data-code="CN-LN" data-name="Liaoning" d="M471.34,265.23L471.15,266.23L470.17,266.05L468.76,267.73L465.31,268.80L465.45,269.60L464.15,269.36L457.24,276.50L454.17,276.66L453.14,275.55L452.55,277.03L451.10,277.67L451.00,276.59L449.54,276.67L449.28,278.18L447.38,278.17L440.98,281.79L438.78,284.98L436.86,285.24L437.26,286.18L435.95,285.31L434.73,286.30L435.70,287.14L431.61,287.85L431.10,288.70L430.52,288.18L430.56,286.26L435.50,284.67L434.75,282.74L437.89,281.26L434.18,281.64L433.38,280.06L431.49,279.84L434.25,278.81L433.69,276.75L437.28,274.76L436.86,274.42L441.09,269.15L439.74,268.04L439.82,266.96L437.08,265.53L437.23,263.74L436.08,265.35L432.72,264.35L429.35,265.59L428.97,266.54L429.69,266.77L427.95,267.27L425.47,270.25L425.87,270.63L424.81,272.31L419.28,274.81L418.32,273.67L418.32,272.41L417.36,272.37L416.73,268.74L414.33,268.84L413.42,266.98L412.27,267.52L410.36,265.50L410.85,264.17L411.81,263.95L411.16,263.02L415.12,259.19L414.37,255.16L415.05,251.83L413.90,250.61L416.27,248.38L417.38,250.08L419.16,250.53L418.84,251.30L421.46,255.98L424.69,252.44L425.02,251.13L428.73,249.46L429.63,249.96L432.91,247.15L434.41,246.84L435.94,247.69L438.80,244.80L441.95,245.49L441.89,243.35L445.19,244.68L447.89,244.04L449.62,241.75L452.81,240.78L453.95,236.55L458.70,239.26L459.91,240.76L459.62,243.00L460.46,243.37L463.00,240.58L464.07,240.62L463.85,243.33L464.80,244.14L464.64,245.45L465.91,246.32L467.92,250.85L469.36,251.05L467.68,253.23L467.81,256.22L469.08,256.23L470.09,259.18L471.72,261.09L471.92,262.11L470.21,264.65L471.34,265.23ZM433.26,280.43L433.26,281.54L432.50,281.50L432.75,280.75L431.81,281.34L433.26,280.43Z"><title>Liaoning</title></path>
<path data-code="CN-GX" data-name="Guangxi" d="M293.12,460.77L292.11,460.59L291.89,459.08L294.70,455.57L296.14,456.09L297.20,455.42L297.28,452.38L297.87,451.94L297.50,450.56L296.22,449.02L294.96,450.00L292.55,448.72L291.18,449.86L289.84,448.85L289.61,449.42L288.76,448.67L288.03,445.59L284.85,445.16L284.35,446.61L282.77,443.93L283.09,442.14L284.80,443.34L287.31,441.52L288.88,439.20L296.28,443.23L297.87,441.16L297.48,439.73L304.87,436.63L304.76,434.46L305.68,433.50L307.16,433.17L309.20,436.89L310.69,435.86L311.01,437.04L312.76,437.67L314.86,436.71L315.08,435.00L316.49,433.38L317.63,433.71L319.21,435.88L318.94,434.39L320.06,432.69L320.64,432.62L320.77,433.57L322.81,433.65L323.18,431.43L321.70,432.16L321.63,431.53L323.54,430.46L325.38,431.22L326.97,427.81L328.14,427.74L328.63,429.43L329.53,429.39L329.73,428.06L331.30,426.18L332.22,426.68L331.97,427.92L333.87,428.56L336.44,425.85L336.68,424.51L339.49,425.30L340.10,424.04L343.00,425.49L342.30,428.69L342.73,429.66L344.80,429.46L343.41,431.34L343.08,434.58L340.51,437.64L340.62,440.00L342.91,437.72L344.02,437.82L344.67,439.08L344.41,442.84L345.16,443.22L346.50,441.71L349.42,442.08L348.78,443.32L349.91,446.41L348.27,447.78L348.58,450.32L347.59,452.02L346.41,452.01L346.10,453.83L344.73,454.58L343.83,457.40L344.24,460.59L343.69,462.25L342.28,463.97L341.03,464.16L340.84,465.18L338.34,465.90L337.68,466.97L338.54,469.17L337.74,469.17L337.00,470.47L334.64,470.13L335.01,473.36L331.38,473.69L330.88,475.77L329.41,476.08L329.37,478.00L328.56,477.49L328.80,476.36L328.19,476.89L327.83,474.86L326.91,475.91L327.87,476.81L327.50,477.80L323.22,478.40L323.99,476.58L322.14,476.45L321.49,475.68L322.10,474.78L321.01,474.22L321.39,475.02L320.82,475.23L321.55,476.13L320.51,476.58L320.33,475.01L319.66,475.15L319.91,474.25L319.17,475.07L319.54,473.43L318.98,472.75L318.26,473.80L317.96,473.13L318.13,475.53L318.91,475.75L318.07,477.03L317.35,476.89L318.07,475.83L316.92,475.23L316.41,477.22L315.76,477.70L315.72,476.15L313.81,477.18L314.60,477.87L313.62,478.46L312.21,476.09L308.09,476.62L307.42,475.31L305.02,474.30L305.07,473.02L301.91,472.56L301.99,469.77L300.78,467.41L301.23,465.69L302.15,465.86L303.12,463.47L300.43,462.07L298.37,462.84L297.27,461.52L294.80,462.29L293.12,460.77Z"><title>Guangxi</title></path>
<path data-code="CN-GD" data-name="Guangdong" d="M368.88,466.12L366.93,466.32L366.27,467.25L365.10,463.95L364.17,463.90L363.62,462.46L364.03,460.86L363.66,462.15L363.84,460.86L363.48,461.92L363.13,460.55L365.59,459.82L362.07,460.18L362.82,461.02L362.66,462.08L360.25,462.30L362.75,463.72L361.71,463.80L363.68,465.91L363.58,469.61L362.66,470.52L359.82,465.91L361.93,470.25L361.05,470.21L359.75,471.95L359.11,469.94L358.58,472.78L357.57,473.80L356.81,472.59L354.36,474.72L353.25,473.92L353.85,472.59L352.93,472.71L353.00,471.47L353.04,474.40L352.01,475.42L351.08,474.93L351.17,473.94L349.71,474.45L349.83,473.49L349.19,474.15L348.49,473.04L348.61,474.25L349.46,474.70L348.29,475.77L347.99,474.78L346.60,474.62L347.57,476.44L346.17,477.38L345.74,476.81L344.80,477.56L344.41,476.58L344.46,477.34L342.94,478.38L343.25,477.72L341.35,478.01L340.81,477.26L340.39,478.32L341.18,478.01L340.50,478.54L338.50,478.84L337.46,480.34L337.33,479.13L338.43,478.32L337.33,479.02L337.33,480.67L335.51,481.10L336.00,479.52L335.53,479.81L334.86,478.42L335.22,481.26L333.41,482.42L333.07,484.86L334.95,484.86L335.31,485.93L334.84,486.14L334.71,485.16L334.35,486.96L336.42,488.92L334.17,491.40L332.01,490.86L330.94,491.55L330.45,489.71L331.52,490.32L331.76,489.41L330.09,488.50L330.32,487.64L329.46,486.78L330.43,486.32L329.78,486.59L329.53,484.79L329.16,485.31L328.66,483.99L329.59,479.29L331.00,479.22L331.24,478.17L330.02,478.17L329.41,476.08L330.88,475.77L331.38,473.69L334.96,473.42L334.64,470.13L337.27,470.33L337.69,469.22L338.56,469.11L337.68,466.97L338.34,465.90L340.84,465.18L341.03,464.16L342.28,463.97L343.69,462.25L344.24,460.59L343.83,457.40L344.73,454.58L346.10,453.83L346.41,452.01L347.59,452.02L348.58,450.32L348.27,447.78L349.91,446.41L348.86,442.61L350.73,441.62L351.16,437.13L355.13,437.87L357.03,439.96L358.26,439.69L358.06,437.40L358.61,436.77L357.37,436.65L357.06,435.63L360.29,433.75L363.42,435.75L367.36,434.52L367.48,436.36L372.17,434.74L373.56,436.17L373.73,437.99L370.93,439.52L370.05,441.77L368.76,442.87L370.86,444.77L379.88,441.66L382.29,444.26L383.17,444.11L382.86,441.28L384.04,440.21L388.35,441.04L389.63,443.52L391.91,443.00L391.70,444.42L393.60,448.00L393.26,449.42L394.26,453.14L395.48,454.48L394.68,455.20L394.54,454.10L393.19,453.97L391.91,457.41L389.69,456.65L390.13,457.69L391.69,457.67L392.19,458.66L390.97,458.16L391.40,458.57L390.79,459.46L390.48,458.63L389.56,458.68L390.41,458.95L389.44,461.91L386.94,461.44L387.54,461.71L386.33,462.92L385.41,461.98L385.71,462.70L383.35,464.03L382.23,462.59L382.64,461.97L381.13,462.90L379.75,462.07L380.31,462.90L381.59,462.74L380.83,463.80L381.26,464.89L379.46,464.60L379.80,463.57L378.22,463.57L378.96,462.30L376.01,464.66L374.92,463.85L375.85,464.80L375.22,466.21L373.86,465.53L374.23,463.27L371.89,464.47L371.75,465.13L372.50,465.16L371.65,466.06L372.74,466.58L371.84,467.25L370.88,465.51L368.88,466.12ZM349.13,475.98L349.46,476.38L347.76,476.99L348.00,476.13L349.13,475.98ZM355.20,475.37L355.25,476.17L354.13,476.63L355.20,475.37ZM356.97,474.70L356.26,476.81L356.35,475.61L355.79,475.49L356.97,474.70ZM361.84,471.92L361.11,471.96L361.76,471.24L361.84,471.92ZM394.57,456.06L395.08,456.86L393.42,456.53L394.57,456.06ZM336.54,482.79L336.27,483.88L335.60,483.13L333.86,483.35L335.14,482.15L336.54,482.79ZM337.16,481.10L336.50,482.05L335.39,481.24L337.16,481.10ZM363.22,464.08L364.06,465.62L362.59,464.33L363.22,464.08Z"><title>Guangdong</title></path>
<path data-code="CN-HI" data-name="Hainan" d="M340.66,497.64L339.47,499.22L338.74,498.55L338.75,499.83L336.83,503.45L335.93,503.29L336.61,504.19L336.85,503.50L335.51,507.11L336.06,507.42L336.15,506.45L336.43,507.50L331.98,510.51L332.03,511.93L331.39,511.85L331.85,511.18L329.41,511.78L329.29,513.13L328.74,513.13L329.35,513.28L329.08,513.85L327.77,514.27L327.77,513.28L327.04,514.01L326.69,512.95L324.22,512.97L323.99,512.16L319.98,510.47L319.46,502.13L322.85,498.60L325.51,497.34L325.21,496.44L324.23,497.19L325.05,495.29L327.95,495.76L327.47,494.71L329.17,494.06L330.21,494.93L331.16,494.27L331.58,495.21L333.07,493.43L334.74,493.54L335.39,495.01L335.08,493.28L337.06,495.02L336.71,493.41L337.70,492.38L338.68,494.06L339.98,494.23L340.66,497.64Z"><title>Hainan</title></path>
<path data-code="CN-FJ" data-name="Fujian" d="M398.10,452.98L398.61,453.12L397.77,454.85L396.78,454.95L397.25,452.83L398.10,452.98ZM414.43,427.93L415.32,428.56L414.01,428.31L413.58,427.24L414.43,427.93ZM424.34,415.08L423.21,414.61L423.39,413.86L422.35,414.08L422.23,414.97L423.70,414.68L424.36,415.73L422.78,415.89L422.88,417.38L421.93,417.54L422.56,418.27L420.90,418.44L421.93,420.41L421.42,421.49L419.15,422.49L421.21,419.54L419.95,419.63L419.54,421.13L418.76,420.77L419.25,418.97L418.44,420.22L417.82,419.41L418.17,420.66L417.11,419.57L416.63,420.10L417.05,422.06L418.70,421.98L418.76,423.78L417.53,422.85L416.76,423.33L417.49,423.52L417.78,424.84L419.06,423.64L420.17,424.32L417.54,425.33L415.80,428.51L412.55,426.72L414.65,428.93L416.33,427.83L417.90,428.29L416.76,429.73L416.97,431.75L415.71,431.75L416.10,433.10L416.87,432.88L417.54,435.37L416.87,435.52L416.84,434.17L416.02,435.22L416.23,434.09L415.69,434.48L414.43,432.66L412.63,434.68L413.53,435.37L413.51,436.45L414.19,435.67L414.78,436.64L413.99,437.37L412.75,436.95L412.60,438.08L411.98,437.75L412.33,436.92L411.45,436.81L411.96,436.24L410.61,436.62L411.49,437.29L410.38,438.49L411.31,439.26L411.76,438.75L411.88,439.73L410.93,439.81L411.29,440.72L409.19,441.01L408.76,439.81L408.79,440.67L407.91,440.56L408.50,441.80L409.61,441.90L408.54,442.82L408.34,444.29L407.75,444.59L406.66,442.59L406.42,443.61L404.77,444.33L404.25,442.66L403.81,443.86L402.60,444.21L403.34,444.61L403.02,445.38L400.97,445.14L402.00,446.05L403.21,445.81L402.97,446.68L403.63,446.52L403.95,447.40L402.00,448.23L401.88,449.96L400.58,451.29L401.03,450.03L399.86,449.58L400.11,450.78L399.19,453.16L399.01,451.33L397.64,450.86L398.37,451.65L398.05,452.60L396.40,452.66L396.41,454.26L396.06,454.60L395.97,453.64L395.48,454.48L394.26,453.14L393.26,449.42L393.60,448.00L391.70,444.42L391.91,443.00L389.63,443.52L388.40,441.07L387.42,441.41L383.76,439.81L383.64,437.16L384.81,435.65L386.24,429.79L387.96,428.74L388.74,426.89L388.58,425.17L389.53,423.83L390.36,423.90L390.55,422.85L389.53,420.76L389.91,418.74L394.29,416.14L395.32,414.25L394.87,411.26L396.54,407.86L398.57,406.65L400.56,408.42L401.20,407.08L406.06,405.34L406.45,403.41L409.36,402.79L409.96,403.93L409.48,406.66L410.74,409.42L410.82,411.99L414.00,412.74L417.09,410.00L418.57,413.88L422.70,412.81L423.80,413.31L424.34,415.08ZM403.65,444.17L404.44,444.40L404.04,445.56L403.45,445.22L403.65,444.17ZM419.25,433.41L418.45,434.85L417.66,433.94L418.64,433.57L417.88,432.77L418.51,432.06L419.25,433.41Z"><title>Fujian</title></path>
<path data-code="CN-ZJ" data-name="Zhejiang" d="M431.78,404.83L431.99,405.43L430.85,405.92L430.58,404.88L431.56,403.96L431.78,404.83ZM440.52,380.98L440.20,381.76L439.05,381.22L440.52,380.98ZM431.95,376.83L429.31,378.46L428.01,381.07L424.87,379.99L423.98,381.42L422.91,381.15L421.92,382.24L423.05,381.37L424.03,381.68L424.62,380.37L426.14,380.33L427.14,381.87L426.23,383.08L427.66,383.69L426.36,383.03L427.30,381.94L428.55,382.56L431.77,380.60L433.33,381.20L435.93,384.85L439.55,385.48L435.62,389.22L433.45,389.64L433.82,391.11L435.83,389.48L436.73,390.02L437.02,389.51L436.13,389.42L436.59,388.80L438.14,388.88L437.60,389.64L438.14,390.47L437.52,392.12L438.32,392.57L437.89,393.24L436.49,393.55L436.98,391.90L436.50,391.28L435.95,393.40L435.31,393.39L435.20,392.03L435.10,393.33L434.61,392.05L433.14,393.63L433.57,393.93L433.08,394.23L435.03,394.15L434.24,395.17L435.64,395.21L435.59,396.33L433.88,396.18L435.46,397.31L435.03,398.29L432.63,398.56L430.77,397.09L432.17,398.44L431.80,398.96L434.04,399.16L435.03,403.24L433.14,403.02L432.44,404.75L431.51,403.75L431.86,402.35L431.01,402.15L430.66,403.02L429.73,403.03L430.62,403.79L429.20,406.51L426.00,405.91L425.59,405.13L425.85,406.08L428.04,406.85L428.34,407.66L427.04,409.49L426.26,408.97L426.62,410.11L425.92,411.09L426.64,412.23L426.26,413.18L425.47,412.92L424.78,415.35L423.74,413.23L422.70,412.81L418.57,413.88L417.09,410.00L414.00,412.74L410.82,411.99L410.74,409.42L409.48,406.66L409.95,403.84L409.36,402.79L406.80,403.20L406.61,398.74L402.91,394.16L403.29,392.37L409.26,387.38L410.78,384.61L410.66,380.86L413.83,381.14L415.21,380.38L413.88,378.31L414.92,376.95L415.73,377.31L417.53,371.70L419.81,371.63L421.76,374.07L424.51,374.53L424.98,376.04L426.89,374.74L426.77,373.70L429.23,373.34L429.37,375.35L430.34,375.19L431.95,376.83ZM438.02,394.08L437.41,394.60L437.23,393.78L438.02,394.08ZM439.67,387.35L439.85,388.21L438.69,387.37L439.36,386.73L439.67,387.35ZM441.92,385.70L441.92,386.25L441.30,384.92L442.02,384.94L441.92,385.70ZM441.31,384.15L441.01,385.15L438.57,384.45L438.07,382.86L441.31,384.15Z"><title>Zhejiang</title></path>
<path data-code="CN-SH" data-name="Shanghai" d="M432.54,368.06L435.96,370.35L438.05,374.82L434.34,375.46L431.95,376.83L430.34,375.19L429.37,375.35L429.37,373.53L428.31,371.95L430.07,371.76L431.11,368.49L432.54,368.06ZM437.01,366.77L438.20,368.20L437.08,368.62L434.59,367.63L431.07,364.84L432.38,364.34L437.01,366.77ZM436.29,369.34L436.32,369.92L434.70,368.60L436.29,369.34Z"><title>Shanghai</title></path>
<path data-code="CN-JS" data-name="Jiangsu" d="M419.55,361.09L419.74,361.66L418.76,361.13L419.01,360.23L418.09,359.48L418.96,359.44L419.55,361.09ZM414.21,328.70L413.43,329.54L413.43,332.63L415.65,332.33L417.48,334.66L422.90,337.09L424.91,344.36L428.58,351.34L428.00,354.81L432.97,358.24L433.24,359.72L432.72,359.93L433.45,361.21L436.82,362.99L437.78,365.47L435.51,365.50L432.05,363.67L430.53,364.70L429.31,364.51L427.82,362.22L426.25,361.62L421.78,363.09L420.54,362.29L419.21,359.19L417.17,358.58L417.81,359.26L417.11,360.31L418.73,360.29L418.59,361.08L420.67,363.01L422.66,363.47L424.79,362.19L427.29,362.71L427.95,364.35L427.12,364.51L430.79,365.93L432.54,368.06L431.11,368.49L430.07,371.76L428.31,371.95L428.57,373.47L426.72,373.74L426.89,374.74L424.98,376.04L424.51,374.53L421.76,374.07L419.81,371.63L416.83,371.98L414.94,371.33L414.78,370.29L409.93,370.91L409.38,369.78L410.18,369.08L410.52,366.63L408.82,366.31L405.94,362.99L407.34,360.30L408.74,359.73L408.75,357.43L407.80,356.02L410.81,355.93L412.43,357.57L413.49,355.95L413.08,353.42L411.66,351.91L410.45,351.80L409.23,354.43L405.49,353.94L404.68,349.36L403.54,349.85L402.22,348.91L403.85,346.18L404.11,343.20L400.40,343.50L400.59,341.88L399.57,340.50L395.35,339.52L394.09,338.64L393.48,336.24L392.28,336.21L388.39,333.50L389.22,330.66L392.32,329.96L393.64,331.17L395.55,335.58L396.93,334.06L398.79,335.44L400.77,334.77L400.96,333.37L402.19,333.08L403.51,333.48L404.30,336.14L405.87,335.92L406.95,333.04L409.46,332.50L410.53,329.14L414.21,328.70Z"><title>Jiangsu</title></path>
<path data-code="CN-SD" data-name="Shandong" d="M401.38,293.64L403.58,295.09L411.27,295.55L414.03,299.73L412.05,299.67L411.37,304.35L414.27,306.08L418.57,305.92L419.70,304.85L419.36,303.64L423.48,300.65L422.53,300.08L427.18,298.44L430.73,299.90L431.03,301.26L433.01,300.76L434.58,302.89L435.52,302.77L434.73,302.61L435.15,302.31L438.29,302.92L439.48,301.41L440.03,303.00L444.53,303.31L443.29,304.08L443.99,305.47L442.44,305.90L441.98,307.36L443.20,307.29L443.08,308.53L442.01,308.45L442.28,309.01L441.56,309.47L440.05,309.24L440.77,308.71L439.88,307.44L438.69,308.71L438.84,307.81L437.74,307.66L437.95,308.26L435.18,309.44L435.07,310.44L433.92,310.07L434.91,309.29L433.59,309.47L433.08,310.75L429.72,312.16L427.29,311.80L427.29,312.63L428.18,311.93L429.18,312.55L428.39,314.39L427.29,313.53L427.04,314.94L426.37,314.93L426.81,316.99L423.76,318.12L423.21,317.89L423.83,316.46L423.34,315.56L423.14,316.64L421.48,316.08L422.17,318.64L423.27,318.86L421.48,319.66L420.64,321.55L419.80,321.37L419.76,322.69L417.48,323.13L416.62,325.37L415.49,326.10L414.90,328.48L410.49,329.18L409.46,332.50L406.95,333.04L405.87,335.92L404.30,336.14L403.51,333.48L402.19,333.08L400.96,333.37L400.77,334.77L398.79,335.44L396.93,334.06L395.55,335.58L393.64,331.17L392.32,329.96L389.22,330.66L388.39,333.50L387.20,334.28L384.98,333.69L380.96,334.18L379.96,331.96L378.06,331.34L377.76,330.20L374.67,329.36L374.82,327.59L376.75,325.37L379.17,324.22L380.63,321.61L383.91,320.04L383.82,319.39L385.34,318.94L385.85,317.82L380.31,319.52L378.99,320.97L380.24,316.83L378.60,313.30L380.39,310.30L382.05,309.62L383.02,308.19L384.81,304.06L387.05,303.60L388.15,300.78L388.82,302.32L392.09,298.39L397.67,298.30L401.38,293.64Z"><title>Shandong</title></path>
<path data-code="CN-HE" data-name="Hebei" d="M398.76,289.80L401.38,293.64L400.64,295.21L398.99,296.08L397.61,298.33L391.99,298.44L388.82,302.32L388.15,300.78L387.05,303.60L384.83,304.04L383.02,308.19L382.05,309.62L380.39,310.30L378.60,313.30L380.20,316.07L379.25,317.66L377.83,316.56L375.53,317.95L374.74,316.94L372.23,317.09L367.90,315.59L367.15,314.63L364.77,314.66L363.11,313.26L362.27,310.61L365.21,309.04L365.06,306.33L368.20,300.24L365.39,294.94L363.15,293.85L363.11,290.72L365.69,287.72L365.06,286.39L365.94,284.85L369.63,284.74L370.86,283.62L372.06,279.81L370.83,278.41L370.70,276.23L367.76,275.49L366.58,274.35L367.21,273.22L367.79,273.71L368.13,272.50L371.79,271.00L369.87,270.64L368.62,266.51L365.67,262.66L367.14,261.83L366.61,259.10L368.94,257.28L369.31,254.61L371.90,251.44L374.41,250.76L375.46,253.51L375.05,256.97L378.28,257.26L379.18,256.93L379.16,255.78L383.97,253.44L385.54,254.93L388.39,252.61L390.37,253.55L392.13,252.86L392.95,252.02L392.39,249.33L392.93,248.37L394.85,247.49L397.60,247.69L398.64,245.91L399.21,246.66L401.06,246.02L403.04,248.51L402.73,250.28L403.70,250.79L403.93,252.39L405.29,252.03L405.52,255.07L404.17,255.45L405.61,257.44L406.02,260.15L410.02,259.49L413.84,260.18L413.17,261.75L411.16,263.02L411.81,263.95L410.85,264.17L410.38,265.56L412.27,267.52L413.42,266.98L414.33,268.84L416.73,268.74L417.36,272.37L418.32,272.41L418.32,273.67L419.28,274.81L416.48,275.86L416.44,276.70L414.99,277.43L413.57,279.39L414.22,279.33L414.20,281.43L410.92,284.26L411.45,283.52L410.60,283.29L405.72,285.30L402.91,283.24L402.89,281.88L401.72,280.98L401.98,279.56L399.49,279.29L398.67,277.40L398.40,274.74L400.80,275.05L400.65,274.03L396.49,271.40L395.57,269.21L398.25,267.40L393.56,266.78L390.75,263.19L389.07,264.76L388.16,264.50L389.20,266.26L387.05,266.27L385.39,268.06L382.62,268.56L384.53,271.68L379.92,274.82L381.17,276.85L380.06,277.19L380.34,278.73L382.87,280.05L386.78,279.30L388.69,280.81L390.06,279.08L392.09,279.03L392.38,283.26L393.13,284.21L391.22,285.71L391.47,287.80L396.20,290.45L398.76,289.80ZM408.45,284.82L407.10,286.36L407.08,285.17L407.80,285.61L408.45,284.82ZM396.06,273.65L395.25,275.15L396.27,276.30L395.57,276.76L395.44,278.76L392.82,278.11L393.30,276.84L392.01,275.92L391.84,274.46L396.06,273.65Z"><title>Hebei</title></path>
<path data-code="CN-TJ" data-name="Tianjin" d="M402.91,283.24L400.29,284.42L400.83,285.85L400.17,285.69L398.76,289.80L396.14,290.43L394.25,288.85L392.87,288.94L391.15,287.01L391.27,285.64L393.13,284.21L392.38,283.26L392.09,279.03L392.82,278.11L395.48,278.69L395.57,276.76L396.27,276.30L395.25,275.15L397.10,271.84L400.65,274.03L400.80,275.05L398.40,274.74L398.67,277.40L399.49,279.29L401.98,279.56L401.72,280.98L402.89,281.88L402.91,283.24Z"><title>Tianjin</title></path>
<path data-code="CN-BJ" data-name="Beijing" d="M397.10,271.84L396.61,273.52L391.84,274.46L392.01,275.92L393.30,276.84L392.82,278.11L392.09,279.03L388.99,279.80L388.89,280.79L386.78,279.30L382.87,280.05L380.26,278.58L380.06,277.19L381.17,276.85L379.92,274.82L384.53,271.68L382.62,268.56L385.39,268.06L387.05,266.27L389.20,266.26L388.16,264.50L389.07,264.76L390.53,263.19L393.56,266.78L398.25,267.40L395.58,269.04L397.10,271.84Z"><title>Beijing</title></path>
<path data-code="CN-SC" data-name="Sichuan" d="M318.49,360.30L317.10,360.63L317.59,361.49L316.20,362.97L318.48,365.67L314.22,370.92L313.26,374.84L312.33,375.65L311.41,374.66L309.23,375.74L309.24,377.73L305.28,383.78L302.58,383.87L300.94,380.69L298.22,382.00L297.21,380.66L294.61,379.63L292.14,382.49L293.86,384.19L293.58,385.81L290.68,387.80L289.85,389.90L291.27,391.94L293.46,392.10L294.27,396.09L296.10,395.68L298.30,396.66L299.50,400.09L298.89,401.20L295.88,398.08L295.13,399.68L293.25,400.01L292.71,400.98L293.00,402.74L294.90,403.53L295.13,404.68L297.63,404.74L299.12,408.25L292.96,409.90L291.47,408.74L289.84,409.42L289.23,407.95L289.71,406.36L287.70,405.40L286.21,407.51L283.54,408.04L281.42,406.48L281.28,405.86L282.24,405.39L282.08,403.86L280.65,402.57L280.57,400.45L282.25,399.52L278.07,399.64L277.12,398.96L276.49,400.54L277.24,402.80L275.84,404.00L274.50,403.70L273.46,404.90L273.34,405.90L274.44,406.56L273.43,409.00L270.49,412.82L269.01,412.73L268.43,414.15L268.54,418.17L269.93,422.21L269.31,424.31L266.58,425.89L265.57,424.17L261.52,427.39L259.18,427.94L258.42,426.39L256.81,425.92L257.35,424.28L255.29,422.07L256.08,419.82L255.16,420.25L252.98,417.05L253.12,415.19L251.70,415.28L251.43,413.24L248.61,407.74L246.57,408.06L245.58,409.30L245.29,407.86L243.37,405.89L242.98,404.51L244.17,403.78L244.07,402.77L241.36,399.74L240.23,397.13L237.16,400.67L237.39,404.98L235.28,401.56L234.81,392.93L233.72,388.25L234.34,385.35L233.00,377.13L233.49,376.44L230.31,371.58L230.72,369.97L231.77,370.92L232.81,369.56L228.73,364.52L228.97,362.64L226.77,358.56L221.95,356.32L219.53,354.11L219.26,352.62L220.50,351.40L220.45,349.44L222.61,347.14L220.58,346.32L219.48,344.67L219.30,342.43L221.91,340.46L222.73,342.06L225.25,340.96L228.76,342.10L230.76,344.19L232.70,349.75L235.62,351.31L236.41,352.73L240.05,354.30L241.63,351.22L244.02,353.26L244.00,355.36L246.28,354.14L247.08,354.97L247.72,356.29L246.88,357.37L247.46,358.04L248.73,354.97L250.93,355.60L253.15,354.91L253.74,353.49L252.76,352.00L253.26,349.82L255.59,348.90L257.35,350.09L258.09,348.55L257.57,347.29L258.70,344.85L259.85,346.74L258.96,348.77L259.24,350.17L264.81,346.39L262.04,341.16L266.17,339.55L265.75,338.76L268.64,337.23L270.66,338.90L271.45,342.90L274.23,342.52L274.14,343.74L279.59,344.47L279.86,346.11L281.74,347.98L280.82,348.40L282.01,351.11L280.82,353.06L283.52,355.05L288.20,355.95L291.02,354.37L290.54,353.17L291.17,352.40L292.66,354.76L296.83,352.88L296.63,354.72L298.13,355.97L302.53,354.33L305.34,354.59L305.70,356.83L307.27,357.59L308.92,356.62L309.08,357.98L310.85,358.20L313.71,360.84L316.12,359.56L318.49,360.30Z"><title>Sichuan</title></path>
<path data-code="CN-CQ" data-name="Chongqing" d="M312.21,375.66L313.43,374.54L314.22,370.92L318.52,365.54L316.20,363.04L317.59,361.49L317.34,360.45L318.49,360.30L323.28,363.12L325.48,365.66L328.64,365.56L329.29,367.29L331.39,367.92L332.98,369.81L332.37,375.26L330.52,374.67L326.28,378.01L322.46,377.75L320.40,378.72L319.77,378.10L317.27,380.03L318.72,381.34L318.66,385.80L317.48,386.19L317.80,387.23L318.44,387.47L319.58,386.10L320.07,387.73L321.79,388.56L322.07,391.56L325.32,395.06L325.28,398.46L324.67,399.47L325.31,400.08L324.16,401.59L323.53,404.25L320.43,404.00L320.85,401.69L320.22,401.05L319.58,401.34L319.92,402.72L319.23,402.62L319.03,399.71L316.76,398.62L317.23,397.65L316.49,394.55L312.55,395.59L311.91,393.79L309.32,392.71L308.70,393.88L309.43,395.36L308.96,396.66L307.39,397.54L306.15,396.51L305.13,396.71L303.65,397.89L303.54,399.53L302.27,401.07L301.03,400.72L301.68,399.25L300.45,397.24L300.32,400.48L298.75,398.99L298.12,396.53L296.10,395.68L294.27,396.09L293.46,392.10L291.27,391.94L289.80,389.79L290.68,387.80L293.58,385.81L293.86,384.19L292.12,382.58L293.68,381.38L294.33,379.67L297.21,380.66L298.22,382.00L300.94,380.69L302.58,383.87L305.15,383.82L309.24,377.73L309.50,375.40L311.41,374.66L312.21,375.66Z"><title>Chongqing</title></path>
<path data-code="CN-GZ" data-name="Guizhou" d="M309.40,392.69L311.91,393.79L312.55,395.59L316.52,394.56L317.23,397.65L316.82,398.81L319.03,399.71L319.29,402.69L319.94,402.66L319.66,401.20L320.83,401.63L320.43,404.00L323.53,404.25L324.23,401.43L325.08,400.82L325.13,402.83L325.97,403.65L325.54,407.60L326.71,410.86L320.89,416.31L321.82,417.25L323.63,415.87L324.09,416.49L326.17,415.68L327.26,416.75L326.73,418.47L327.36,419.17L325.28,420.52L326.40,421.77L325.37,424.62L326.40,425.43L326.84,427.89L325.45,431.14L324.26,430.41L324.01,431.09L323.54,430.46L322.12,430.95L321.58,432.07L323.15,431.39L323.15,433.33L320.77,433.57L320.64,432.62L320.06,432.69L318.94,434.39L319.21,435.88L317.63,433.71L316.49,433.38L315.08,435.00L314.86,436.71L312.66,437.69L311.01,437.04L310.69,435.86L309.20,436.89L307.16,433.17L305.68,433.50L304.76,434.46L304.87,436.63L297.48,439.73L297.87,441.16L296.28,443.23L288.88,439.20L285.79,442.64L284.80,443.34L283.91,442.78L283.16,441.34L285.33,436.54L283.34,435.11L283.17,433.79L282.16,433.80L280.96,431.02L281.76,430.83L281.78,428.94L284.33,424.13L282.02,420.44L281.25,421.39L279.41,421.25L278.55,422.66L276.79,422.32L275.77,419.37L276.34,417.83L274.74,416.43L277.63,413.01L279.86,414.37L281.52,412.44L282.84,413.84L285.99,413.97L288.96,412.97L290.48,408.96L291.82,408.82L292.96,409.90L298.64,408.61L299.17,408.18L298.79,406.47L297.71,404.81L295.13,404.68L294.90,403.53L293.00,402.74L292.71,400.98L293.25,400.01L295.13,399.68L295.88,398.08L298.99,401.20L299.50,400.09L300.44,400.43L300.33,397.21L301.68,399.25L301.03,400.72L302.59,401.07L303.65,397.89L305.13,396.71L306.15,396.51L307.39,397.54L308.96,396.66L309.43,395.36L308.70,393.88L309.40,392.69Z"><title>Guizhou</title></path>
<path data-code="CN-HN" data-name="Hunan" d="M325.08,400.82L325.31,399.95L324.67,399.47L325.28,398.46L325.32,395.06L324.62,394.25L326.66,389.46L328.87,388.80L329.74,387.33L332.60,386.77L335.02,388.22L336.93,386.93L335.88,385.45L336.13,383.91L337.89,384.15L338.47,383.34L342.76,384.07L344.09,385.25L347.28,385.25L351.36,388.01L351.97,389.50L353.47,388.33L355.37,388.46L357.34,386.70L357.79,387.79L358.47,386.91L357.54,388.80L357.78,390.12L358.65,389.70L358.95,390.54L363.60,385.74L363.10,387.79L364.13,387.97L364.84,390.50L363.52,392.62L364.60,394.60L365.23,394.02L366.38,394.67L366.41,395.88L368.41,397.30L367.75,400.18L369.33,402.10L367.15,405.58L364.75,406.77L363.32,411.03L363.77,413.43L365.92,413.55L365.05,416.28L366.30,417.77L366.05,421.12L368.03,422.08L366.58,426.45L369.16,426.34L367.41,427.91L366.38,431.17L367.09,432.91L366.60,434.38L365.55,435.47L363.42,435.75L360.87,433.62L357.15,435.53L357.37,436.65L358.61,436.77L358.06,437.40L358.26,439.69L357.26,439.93L355.81,439.30L355.13,437.87L351.20,437.10L350.70,441.66L346.50,441.71L345.16,443.22L344.36,442.73L344.79,441.44L344.26,437.95L342.91,437.72L340.77,440.16L340.16,439.02L340.51,437.64L343.08,434.58L343.41,431.34L344.80,429.46L343.04,429.85L342.36,429.09L342.98,425.45L340.10,424.04L339.49,425.30L336.80,424.47L336.44,425.85L333.87,428.56L331.97,427.92L332.22,426.68L331.03,426.16L329.67,428.17L329.72,429.24L328.80,429.54L328.23,427.82L326.84,427.89L326.40,425.43L325.37,424.62L326.42,421.98L325.29,420.43L327.36,419.17L326.73,418.47L327.24,416.69L326.17,415.68L324.09,416.49L323.63,415.87L321.92,417.23L320.90,416.38L326.71,410.86L325.54,407.60L325.97,403.65L325.13,402.83L325.08,400.82Z"><title>Hunan</title></path>
<path data-code="CN-NX" data-name="Ningxia" d="M302.98,281.55L303.28,283.46L304.83,285.48L300.28,293.43L303.47,294.97L306.44,295.09L307.87,295.89L308.65,297.58L310.88,298.69L307.76,301.24L307.11,304.23L307.90,305.89L307.53,306.84L301.82,305.60L301.21,308.34L301.87,309.79L300.51,310.88L299.93,312.99L300.32,315.27L303.47,316.30L304.50,317.72L304.44,319.40L303.60,319.86L304.20,320.96L302.77,322.07L299.96,321.75L300.64,323.39L299.78,323.61L300.46,325.09L299.11,326.72L297.67,325.01L295.19,325.07L296.78,324.29L294.58,324.12L293.37,322.44L293.66,321.75L291.00,321.21L290.00,318.87L291.09,317.40L291.17,315.77L289.15,310.86L290.05,309.82L285.92,305.20L283.84,304.86L284.69,303.13L281.50,303.19L282.53,301.87L286.71,301.60L289.40,299.63L292.91,299.53L294.31,298.67L294.55,296.62L293.92,294.99L294.74,293.70L294.68,290.35L297.08,284.36L298.57,283.99L298.78,282.46L302.98,281.55Z"><title>Ningxia</title></path>
<path data-code="CN-SN" data-name="Shaanxi" d="M325.77,365.70L323.82,363.50L318.01,359.65L314.46,359.93L313.80,360.87L310.85,358.20L309.08,357.98L308.92,356.62L306.79,357.50L305.61,356.73L305.46,354.63L302.53,354.33L298.13,355.97L296.63,354.72L296.95,352.94L292.66,354.76L291.64,352.51L293.14,352.73L295.13,351.65L295.43,349.03L293.56,347.38L296.03,344.79L297.61,345.32L299.71,344.72L300.50,345.53L301.07,344.92L299.86,341.34L301.32,339.01L300.51,337.59L302.13,337.66L302.09,336.30L298.92,334.11L300.93,331.52L300.47,329.21L304.23,328.56L306.87,330.73L311.43,330.06L312.48,329.56L310.97,327.12L311.59,326.05L313.63,327.10L318.37,326.53L319.35,325.32L318.25,319.92L319.89,318.57L319.62,315.84L320.14,314.63L315.83,312.00L314.26,312.01L312.88,310.28L307.50,308.53L307.90,305.89L307.11,304.23L307.81,301.11L310.84,298.23L313.25,298.97L314.23,300.65L320.59,300.18L320.92,297.25L321.46,296.72L322.27,297.51L323.09,295.79L322.35,294.29L323.18,291.98L326.37,288.34L327.66,287.89L328.78,285.52L333.22,282.57L332.68,280.90L334.76,282.17L336.24,281.56L337.42,282.96L339.68,280.08L341.70,279.27L340.93,281.00L342.58,282.38L341.62,284.90L340.33,285.92L339.65,290.74L336.12,294.79L336.25,297.11L338.28,299.20L338.69,301.43L337.34,303.00L337.59,304.49L334.99,307.39L335.03,310.06L335.60,310.59L335.14,311.01L336.11,312.81L335.65,317.01L337.19,322.99L334.66,327.37L333.78,331.72L334.70,335.72L335.91,336.60L335.53,337.65L337.17,338.73L336.95,341.84L340.28,344.92L340.70,347.38L338.32,350.44L336.47,348.79L333.76,349.78L328.65,348.59L326.89,349.42L329.48,350.57L329.74,352.58L332.52,353.24L333.20,355.52L331.79,356.44L328.63,355.89L327.93,356.53L327.10,358.66L328.77,361.71L328.06,365.35L325.77,365.70Z"><title>Shaanxi</title></path>
<path data-code="CN-QH" data-name="Qinghai" d="M179.80,283.96L190.70,282.08L194.98,282.40L198.32,283.98L201.05,283.65L207.64,289.17L215.27,292.76L216.17,283.53L219.27,283.99L225.55,287.81L227.83,285.38L230.30,286.22L231.90,284.90L234.57,285.98L240.95,292.60L244.14,294.34L243.47,292.29L243.98,291.28L245.67,293.10L247.45,293.61L248.39,295.46L252.07,297.01L258.44,301.83L260.21,299.53L260.88,302.49L265.42,305.79L264.61,308.08L266.56,309.84L265.84,311.19L267.37,313.11L267.80,314.99L269.77,316.19L268.78,317.82L269.41,318.67L269.20,320.40L266.75,320.33L266.77,323.79L265.28,323.66L263.17,324.93L262.83,326.36L263.85,327.64L259.92,330.87L259.69,332.22L258.34,332.79L261.86,335.08L262.44,336.52L261.89,337.38L258.57,339.78L256.69,338.23L251.05,336.28L249.91,337.47L249.77,338.82L251.16,341.29L252.78,342.16L253.14,344.31L256.15,343.76L257.08,345.88L258.54,345.68L257.57,347.29L258.09,348.55L257.35,350.09L255.59,348.90L253.26,349.82L252.76,352.00L253.74,353.49L253.15,354.91L250.93,355.60L248.73,354.97L247.46,358.04L246.88,357.37L247.72,356.29L247.08,354.97L246.28,354.14L244.00,355.36L244.02,353.26L241.63,351.22L240.05,354.30L236.41,352.73L235.62,351.31L232.70,349.75L230.76,344.19L228.89,342.18L225.25,340.96L222.73,342.06L221.76,340.51L219.39,342.03L219.48,344.67L220.69,346.42L222.59,347.22L220.45,349.44L220.50,351.40L219.26,352.62L219.88,354.78L222.30,356.87L221.66,357.59L219.26,356.98L219.51,359.39L218.51,359.70L218.48,361.36L217.46,362.25L213.72,362.81L213.95,365.97L211.29,365.10L209.89,363.50L208.91,363.76L208.41,364.70L209.20,365.74L208.87,367.57L207.71,365.61L202.59,365.25L201.41,362.97L202.04,362.27L201.79,360.69L197.98,358.96L197.59,357.46L194.84,355.08L190.35,357.22L187.00,356.19L184.88,356.83L182.22,355.15L180.87,355.31L180.45,354.33L173.55,354.29L173.32,352.93L171.37,353.15L167.51,350.61L165.98,347.81L164.27,347.82L163.82,348.70L160.67,349.97L156.36,348.14L155.22,345.34L153.57,344.57L150.59,339.88L152.41,336.59L151.26,332.56L152.24,331.23L151.82,330.31L149.96,330.11L149.98,328.74L148.94,327.08L149.27,325.70L151.46,324.60L151.04,323.84L151.95,320.56L149.45,320.06L148.77,318.70L150.17,317.77L153.31,317.69L153.98,315.73L155.16,317.11L159.33,317.35L161.38,318.51L163.68,317.76L162.75,313.04L160.55,312.08L159.93,310.05L161.14,308.43L165.58,306.82L163.41,302.29L157.55,298.94L157.70,296.66L155.13,291.87L158.05,290.77L159.66,289.18L165.30,288.44L179.80,283.96Z"><title>Qinghai</title></path>
<path data-code="CN-SX" data-name="Shanxi" d="M368.62,266.51L369.87,270.64L371.79,271.10L368.13,272.50L367.79,273.71L367.21,273.22L366.58,274.35L367.76,275.49L370.70,276.23L370.83,278.41L372.06,279.81L370.86,283.62L369.63,284.74L365.94,284.85L365.06,286.39L365.69,287.72L363.11,290.72L363.15,293.85L365.39,294.94L368.20,300.24L365.06,306.33L365.21,309.04L362.25,310.67L363.11,313.26L364.77,314.67L363.78,322.58L357.49,326.90L355.46,326.12L354.14,327.12L349.98,326.97L349.80,329.04L347.94,328.64L345.53,331.04L341.80,331.53L337.43,333.91L334.07,333.52L333.78,331.72L334.66,327.37L337.19,322.99L335.65,317.01L336.11,312.81L335.14,311.01L335.60,310.59L335.03,310.06L334.99,307.39L337.59,304.49L337.34,303.00L338.69,301.43L338.28,299.20L336.25,297.11L336.12,294.79L339.65,290.74L340.33,285.92L341.62,284.90L342.58,282.38L341.55,281.41L343.61,280.76L344.60,278.56L348.10,278.74L351.94,272.15L353.01,271.50L355.83,272.79L359.98,270.00L361.23,271.15L362.69,271.01L367.86,269.20L367.50,267.61L368.62,266.51Z"><title>Shanxi</title></path>
<path data-code="CN-JX" data-name="Jiangxi" d="M367.11,434.66L366.38,431.17L367.48,427.78L369.16,426.34L366.58,426.45L368.03,422.08L366.05,421.12L366.30,417.77L365.05,416.28L365.92,413.55L363.77,413.43L363.32,411.03L364.75,406.77L367.15,405.58L369.31,402.33L368.82,400.80L367.75,400.18L368.41,397.30L366.35,395.67L367.22,393.59L369.42,392.74L369.82,391.46L373.99,391.43L375.84,389.27L377.16,389.83L376.86,388.20L379.19,388.37L380.47,385.91L382.41,385.95L384.05,387.36L387.14,386.82L391.28,383.80L392.92,385.29L392.10,387.14L391.04,387.62L390.80,388.51L391.57,389.40L392.83,389.36L394.69,387.54L394.50,386.21L395.54,385.22L396.12,386.22L397.53,386.24L398.74,388.66L403.75,389.58L404.45,391.41L402.82,393.92L406.13,397.61L407.02,402.85L405.93,403.96L406.06,405.34L401.20,407.08L400.63,408.39L398.57,406.65L396.54,407.86L394.87,411.26L395.32,414.25L394.29,416.14L389.91,418.74L389.53,420.76L390.55,422.85L390.36,423.90L389.53,423.83L388.58,425.17L388.57,427.65L386.24,429.79L386.46,430.78L385.30,432.25L384.81,435.65L383.62,437.25L384.22,440.66L382.86,441.28L383.23,444.08L382.29,444.26L379.88,441.66L370.86,444.77L368.76,442.87L370.05,441.77L370.93,439.52L373.73,437.99L373.59,436.23L372.10,434.73L367.42,436.35L367.11,434.66Z"><title>Jiangxi</title></path>
<path data-code="CN-HA" data-name="Henan" d="M366.07,314.56L372.23,317.09L374.74,316.94L375.53,317.95L377.14,316.52L379.01,317.71L380.24,316.83L379.09,321.05L380.31,319.52L385.84,317.70L385.34,318.94L384.54,318.79L383.91,320.04L380.63,321.61L379.17,324.22L376.75,325.37L374.82,327.59L374.67,329.36L377.76,330.20L378.06,331.34L379.96,331.96L380.86,334.15L385.93,333.85L386.43,335.61L388.32,337.38L390.14,337.46L389.87,339.19L390.74,341.03L386.51,343.63L384.69,340.52L382.03,339.92L381.14,341.64L381.74,342.22L381.24,343.26L381.79,345.07L379.26,345.82L378.62,349.98L375.13,350.58L375.25,351.78L377.83,353.10L377.92,355.98L379.52,356.39L381.00,357.98L384.33,356.16L383.81,356.82L384.16,364.72L380.87,365.36L379.15,369.02L378.02,368.45L377.56,366.82L376.48,368.11L374.28,368.13L372.12,367.16L372.01,365.23L370.47,365.38L368.58,364.12L366.88,365.21L366.87,364.24L365.39,362.70L364.84,357.87L362.23,359.30L358.76,357.80L352.17,358.69L346.42,355.64L345.42,355.92L340.51,349.08L340.36,345.08L336.99,341.91L337.17,338.73L335.64,337.84L335.88,336.50L334.60,335.43L334.66,333.76L337.43,333.91L341.80,331.53L345.53,331.04L347.94,328.64L349.80,329.04L349.98,326.97L354.14,327.12L355.46,326.12L357.49,326.90L362.51,323.99L363.78,322.58L364.77,314.66L366.07,314.56Z"><title>Henan</title></path>
<path data-code="CN-HB" data-name="Hubei" d="M331.87,375.39L332.81,374.47L332.98,369.81L331.39,367.92L329.29,367.29L327.96,365.25L328.77,361.71L327.10,358.66L328.47,355.94L331.86,356.43L333.17,355.64L333.05,354.46L332.40,353.16L329.36,352.26L329.44,350.54L326.76,349.65L328.65,348.59L333.76,349.78L336.47,348.79L338.32,350.44L340.34,348.57L345.42,355.92L346.42,355.64L352.17,358.69L358.76,357.80L362.23,359.30L364.84,357.87L365.39,362.70L366.87,364.24L366.88,365.21L368.58,364.12L370.47,365.38L372.01,365.23L372.12,367.16L374.28,368.13L376.48,368.11L377.62,366.84L378.02,368.45L379.47,368.86L381.20,371.65L381.98,371.01L385.35,373.10L382.96,376.80L384.50,378.87L383.94,380.30L385.40,381.99L386.35,386.74L384.05,387.36L382.41,385.95L380.47,385.91L379.19,388.37L376.86,388.20L377.16,389.83L375.84,389.27L373.99,391.43L369.82,391.46L369.42,392.74L366.38,394.67L365.23,394.02L364.60,394.60L363.52,392.62L364.84,390.50L364.13,387.97L363.10,387.79L363.60,385.74L358.95,390.54L358.65,389.70L357.78,390.12L357.54,388.80L358.47,386.91L357.79,387.79L357.34,386.70L355.37,388.46L353.47,388.33L351.97,389.50L351.36,388.01L347.28,385.25L344.09,385.25L342.76,384.07L338.27,383.36L338.04,384.09L335.79,384.27L336.93,386.93L335.02,388.22L332.60,386.77L329.74,387.33L328.87,388.80L326.92,389.18L324.62,394.25L322.07,391.56L321.79,388.56L320.07,387.73L319.58,386.10L318.44,387.47L317.80,387.23L317.45,386.27L318.61,385.89L318.78,384.42L318.68,381.10L317.27,380.15L317.74,379.07L322.46,377.75L326.14,378.05L330.52,374.67L331.87,375.39Z"><title>Hubei</title></path>
<path data-code="CN-AH" data-name="Anhui" d="M417.32,371.99L415.73,377.31L414.92,376.95L413.88,378.31L415.21,380.38L413.83,381.14L410.66,380.86L410.75,384.69L409.26,387.38L406.29,390.39L404.38,390.92L402.85,389.14L398.74,388.66L397.53,386.24L396.12,386.22L395.54,385.22L394.50,386.21L394.69,387.54L392.83,389.36L391.57,389.40L390.81,388.37L392.86,385.09L390.82,383.86L389.60,385.58L386.35,386.74L385.40,381.99L383.94,380.30L384.50,378.87L382.96,376.80L385.35,373.10L381.98,371.01L381.20,371.65L379.47,369.42L380.87,365.36L384.16,364.72L383.81,356.82L384.33,356.16L381.00,357.98L379.52,356.39L377.92,355.98L377.83,353.10L375.25,351.78L375.13,350.58L378.62,349.98L379.26,345.82L381.79,345.07L381.24,343.26L381.74,342.22L381.14,341.64L382.03,339.92L384.69,340.52L386.44,343.61L390.66,341.56L389.87,339.19L390.14,337.46L388.47,337.48L386.40,335.52L386.38,334.30L388.84,333.50L390.36,335.09L393.48,336.24L394.23,338.81L399.57,340.50L400.59,341.88L400.40,343.50L404.28,343.41L403.85,346.18L402.22,348.91L403.54,349.85L404.68,349.36L405.49,353.94L409.23,354.43L410.45,351.80L411.66,351.91L413.08,353.42L413.49,355.95L412.43,357.57L410.81,355.93L407.80,356.02L408.75,357.43L408.74,359.73L407.34,360.30L405.94,362.99L408.82,366.31L410.52,366.63L410.18,369.08L409.38,369.78L409.97,370.95L414.78,370.29L415.01,371.38L417.32,371.99Z"><title>Anhui</title></path>
  </g>
</svg>
