<?xml version="1.0" encoding="UTF-8"?>
<svg xmlns="http://www.w3.org/2000/svg" viewBox="0 0 560 640" class="pref-muni-svg" role="img" aria-label="行政区分">
  <g class="pref-muni-svg__paths" fill="#eaf2fb" stroke="#5b7fa8" stroke-width="0.6" stroke-linejoin="round">
<path data-code="CR-A" data-name="Alajuela" d="M332.55,31.59L337.40,39.83L348.50,46.24L348.90,48.86L346.47,50.80L347.36,52.27L350.32,54.92L353.99,54.19L351.83,140.10L347.82,146.99L335.63,150.27L328.58,148.72L321.11,149.64L312.81,154.82L309.18,159.80L305.85,155.91L297.98,153.25L302.14,147.01L311.45,140.82L309.30,138.20L306.75,139.13L299.49,128.11L298.57,120.63L300.79,114.71L298.88,111.29L296.12,109.91L289.83,111.35L285.81,106.02L287.55,102.72L286.60,98.16L288.27,92.13L285.09,86.16L276.94,80.41L269.48,78.26L264.46,73.05L260.19,63.95L249.38,60.61L243.21,56.48L232.03,57.35L228.42,50.62L220.16,46.90L214.85,40.27L219.98,38.85L237.05,25.19L272.61,37.65L297.76,23.29L303.80,27.08L317.08,30.79L323.59,36.24L332.55,31.59Z"><title>Alajuela</title></path>
<path data-code="CR-G" data-name="Guanacaste" d="M197.88,8.00L207.54,14.30L237.05,25.19L215.11,41.02L221.40,47.84L228.42,50.62L232.03,57.35L243.21,56.48L249.38,60.61L260.19,63.95L265.42,74.38L269.48,78.26L276.94,80.41L285.09,86.16L288.27,92.13L286.60,98.16L287.55,102.72L285.81,106.02L281.20,104.33L276.25,108.49L277.59,111.40L275.92,117.34L276.77,120.29L271.34,124.51L271.36,128.39L264.39,123.39L241.71,121.94L237.26,117.88L237.88,115.20L235.99,112.89L231.33,109.65L235.13,114.15L238.06,126.93L236.85,129.35L246.14,136.65L242.50,135.97L244.53,138.45L242.80,142.90L233.92,145.23L229.80,148.28L231.23,150.01L239.11,151.65L241.54,155.98L243.84,156.81L242.52,164.81L237.82,170.73L233.09,167.09L230.23,161.61L226.64,159.58L214.99,155.42L211.69,156.98L205.75,154.01L190.72,151.52L189.38,145.45L177.62,130.62L171.18,115.26L169.70,108.90L171.58,105.50L167.83,101.67L172.67,95.43L174.52,96.17L178.61,91.56L174.95,84.14L177.91,81.08L180.16,82.30L186.79,80.41L189.20,75.70L190.93,75.92L194.20,72.51L191.97,69.93L187.53,74.42L186.79,73.60L189.75,70.68L188.21,70.68L190.82,66.18L190.56,55.24L188.93,53.32L181.76,51.14L179.48,52.25L175.62,48.84L176.43,47.35L172.67,47.35L160.08,42.12L169.70,39.12L167.48,36.88L174.21,36.88L176.43,41.36L177.86,37.86L185.65,38.86L187.00,32.84L181.81,28.48L184.75,26.30L186.84,27.87L190.32,26.64L186.61,22.14L194.26,9.50L197.88,8.00Z"><title>Guanacaste</title></path>
<path data-code="CR-L" data-name="Limón" d="M509.88,190.83L504.31,186.61L496.03,184.33L492.59,188.80L496.15,196.18L486.73,198.61L485.82,200.15L486.05,242.41L481.04,238.88L479.23,235.27L473.74,233.17L471.44,224.75L466.55,221.66L461.54,215.43L454.81,215.33L445.15,209.97L437.20,214.38L430.32,208.81L424.20,193.82L424.11,188.08L443.08,160.19L442.11,150.01L444.92,143.90L415.64,143.08L377.30,125.65L378.78,120.72L387.52,109.18L388.12,104.06L385.00,96.52L390.23,87.47L388.83,81.25L389.84,70.53L395.74,66.17L403.23,65.18L400.25,62.28L400.06,57.89L396.69,55.80L407.62,52.15L406.88,42.87L403.99,37.95L409.64,39.12L416.56,52.12L416.31,55.58L411.87,46.61L413.52,58.89L410.38,61.56L415.63,58.64L415.63,61.56L417.12,56.40L428.96,86.39L436.73,99.37L457.41,126.40L470.25,140.34L472.83,138.90L476.68,140.02L478.48,146.13L492.80,164.67L497.51,169.12L500.28,168.27L502.51,176.43L511.45,180.25L521.08,181.74L525.72,187.01L526.89,191.12L522.74,190.03L521.52,195.42L519.38,197.04L514.40,195.61L509.88,190.83Z"><title>Limón</title></path>
<path data-code="CR-P" data-name="Puntarenas" d="M486.05,242.41L486.07,243.62L490.31,242.25L492.24,245.18L506.69,252.99L509.92,258.75L505.11,263.30L492.66,268.80L491.60,270.21L492.96,272.73L487.85,276.87L488.25,280.05L494.43,287.87L496.64,294.03L495.94,308.75L493.55,311.72L484.54,315.66L473.85,323.82L479.98,330.70L482.97,330.36L485.60,332.48L491.81,348.52L490.59,355.91L489.12,354.75L490.30,348.21L482.91,335.48L463.14,319.26L469.45,310.78L464.62,303.34L464.57,301.72L468.39,299.67L462.40,298.85L459.44,293.68L460.92,292.12L462.88,296.48L466.10,294.37L460.92,289.87L453.45,291.37L451.39,288.36L444.91,286.35L444.57,282.39L442.00,279.74L437.91,278.66L437.27,279.94L434.88,279.33L433.79,281.36L428.74,281.11L426.74,283.82L428.22,283.14L435.62,295.18L442.72,297.36L447.01,301.17L448.34,300.35L447.53,305.65L449.16,307.90L449.54,315.72L448.34,318.44L445.91,318.53L438.21,315.44L436.43,313.96L439.45,314.70L435.62,312.39L435.62,313.96L429.37,311.21L417.10,310.96L402.98,296.23L399.62,294.78L399.29,291.37L403.35,285.39L407.85,284.13L411.20,279.33L409.84,277.59L411.47,275.63L417.12,273.35L413.59,272.50L410.26,275.10L409.84,274.05L416.31,266.95L412.68,262.13L417.12,263.56L411.20,259.82L414.09,253.83L410.68,245.32L400.66,234.34L396.33,233.56L396.58,230.73L394.19,228.32L388.49,226.01L379.97,217.85L351.72,206.56L352.88,204.54L348.50,199.20L345.79,198.27L348.82,200.51L346.00,200.01L341.53,197.38L321.45,192.51L313.09,193.03L310.88,189.62L309.39,189.29L310.06,190.85L304.25,186.81L303.08,183.67L299.76,181.74L299.25,178.74L297.55,178.81L297.55,174.26L302.31,167.20L302.30,164.31L292.39,153.24L294.15,149.06L291.49,146.87L291.56,144.20L278.84,144.20L285.64,141.95L273.73,138.90L261.17,127.87L254.42,125.43L255.25,123.50L264.39,123.39L271.36,128.39L271.34,124.51L276.77,120.29L275.92,117.34L277.59,111.40L276.25,108.49L281.20,104.33L285.81,106.02L289.83,111.35L296.95,110.03L300.75,114.30L298.57,120.63L299.49,128.11L306.75,139.13L309.30,138.20L311.45,140.82L302.14,147.01L297.98,153.25L305.85,155.91L312.20,164.29L311.80,166.94L306.95,168.46L308.04,175.29L313.71,187.53L324.67,188.55L328.26,184.60L328.06,181.22L333.06,180.40L355.32,182.83L356.15,187.76L362.89,189.68L362.98,194.21L369.98,201.78L377.08,206.52L381.67,206.73L387.79,216.16L389.75,223.28L396.70,226.60L399.34,224.38L401.96,224.89L408.37,234.96L418.46,241.45L423.97,242.88L427.21,239.78L428.21,231.15L424.25,228.27L425.40,222.46L430.58,213.88L432.95,211.39L437.44,214.35L445.15,209.97L454.81,215.33L461.54,215.43L466.55,221.66L471.44,224.75L473.74,233.17L479.23,235.27L481.04,238.88L486.05,242.41ZM244.53,138.45L261.11,146.61L267.06,146.44L272.32,150.25L270.25,153.03L272.99,156.24L269.96,158.48L277.36,159.29L268.55,166.78L267.06,170.45L261.86,168.62L261.08,170.08L263.23,173.09L255.89,177.25L250.71,189.29L237.82,170.73L242.52,164.81L243.84,156.81L241.54,155.98L239.11,151.65L231.23,150.01L229.80,148.28L233.92,145.23L242.80,142.90L244.53,138.45ZM248.44,129.76L252.13,131.41L245.47,132.23L241.10,127.67L250.71,128.49L246.95,129.24L248.44,129.76ZM35.13,631.90L33.11,632.00L38.86,627.31L38.76,629.86L35.13,631.90ZM382.30,282.31L385.28,281.53L384.31,283.15L382.30,282.31Z"><title>Puntarenas</title></path>
<path data-code="CR-H" data-name="Heredia" d="M386.32,61.49L388.94,58.66L396.69,55.80L400.06,57.89L400.25,62.28L403.23,65.18L395.74,66.17L389.84,70.53L388.83,81.25L390.23,87.47L385.00,96.52L388.12,104.06L387.23,109.98L380.46,118.77L376.45,119.19L373.17,122.76L363.35,123.97L369.96,135.94L368.06,142.55L354.69,146.53L349.41,145.26L351.83,140.10L353.12,123.22L353.99,54.19L362.80,56.88L370.09,54.07L379.05,62.24L386.32,61.49Z"><title>Heredia</title></path>
<path data-code="CR-SJ" data-name="San José" d="M361.96,144.93L368.06,142.55L370.07,136.75L363.35,123.97L373.17,122.76L376.45,119.19L380.46,118.77L377.30,125.65L379.07,131.29L384.63,136.76L385.38,143.88L381.01,146.64L371.09,148.21L368.05,153.84L370.81,155.17L362.56,166.76L372.37,166.03L380.47,176.43L387.77,178.22L391.15,184.27L396.75,184.88L401.22,188.26L402.08,191.32L410.25,187.70L426.72,198.91L430.32,208.81L432.95,211.39L425.31,222.75L424.27,228.57L427.70,229.95L428.40,233.06L427.21,239.78L424.45,242.67L418.21,241.34L408.37,234.96L401.96,224.89L399.34,224.38L396.70,226.60L390.50,223.95L387.79,216.16L381.67,206.73L377.08,206.52L369.98,201.78L362.98,194.21L362.89,189.68L356.15,187.76L355.32,182.83L333.06,180.40L328.06,181.22L328.26,184.60L324.67,188.55L314.06,187.77L312.27,185.90L306.95,168.46L312.02,166.66L311.68,163.28L308.22,160.59L312.81,154.82L321.11,149.64L328.58,148.72L335.63,150.27L349.41,145.26L354.69,146.53L361.96,144.93Z"><title>San José</title></path>
<path data-code="CR-C" data-name="Cartago" d="M380.60,146.74L385.38,143.88L384.92,137.72L379.07,131.29L377.30,125.65L415.64,143.08L444.92,143.90L442.11,150.01L443.08,160.19L424.11,188.08L424.20,193.82L426.72,198.91L410.25,187.70L402.08,191.32L401.22,188.26L396.75,184.88L391.15,184.27L387.77,178.22L380.47,176.43L372.37,166.03L362.84,167.23L363.63,163.73L370.81,155.17L368.05,153.84L371.09,148.21L380.60,146.74Z"><title>Cartago</title></path>
  </g>
</svg>
