<?xml version="1.0" encoding="UTF-8"?>
<svg xmlns="http://www.w3.org/2000/svg" viewBox="0 0 560 640" class="pref-muni-svg" role="img" aria-label="行政区分">
  <g class="pref-muni-svg__paths" fill="#eaf2fb" stroke="#5b7fa8" stroke-width="0.6" stroke-linejoin="round">
<path data-code="CZ-US" data-name="Ústecký" d="M188.56,165.28L191.56,166.24L193.99,168.62L200.05,167.82L201.67,165.63L203.34,169.21L206.51,170.43L209.09,173.33L209.19,176.42L207.16,181.23L208.08,181.95L213.50,180.16L213.94,181.57L211.55,189.65L207.89,191.08L207.07,195.01L206.15,196.44L204.20,196.84L199.99,192.56L198.98,192.44L197.77,198.19L196.12,200.17L195.89,202.64L193.51,205.19L192.04,208.95L190.25,210.53L194.75,225.79L200.49,230.46L201.11,233.32L200.03,234.63L199.20,238.94L194.52,242.20L191.66,241.69L192.64,248.16L190.96,251.42L185.39,252.17L181.98,254.42L179.35,253.45L173.01,254.52L167.53,253.26L163.19,253.60L162.23,254.42L161.38,258.59L158.23,259.14L151.11,264.52L148.08,263.78L140.41,267.75L135.69,267.85L130.63,271.46L124.98,273.93L122.69,277.98L118.91,281.64L112.19,285.31L107.84,284.04L102.23,278.39L104.28,275.02L101.00,267.75L101.42,265.90L100.99,256.95L100.04,253.42L98.29,252.16L91.56,251.04L88.53,247.55L83.27,246.95L79.19,243.94L82.09,240.89L83.14,233.54L95.25,232.99L98.39,229.46L101.07,222.39L105.28,224.02L106.96,223.17L108.27,219.85L112.05,216.62L115.13,219.99L118.42,220.49L122.46,216.52L122.07,214.76L124.48,212.40L124.80,210.72L123.87,208.80L127.16,206.84L149.54,204.73L153.37,202.35L153.12,199.76L154.20,197.65L156.68,197.71L159.60,194.95L165.67,194.89L178.21,189.24L181.54,185.31L190.75,185.21L193.11,183.24L193.60,180.14L188.48,178.06L186.42,176.07L186.50,174.76L187.31,174.05L182.04,172.46L184.07,167.60L186.00,165.68L188.56,165.28Z"><title>Ústecký</title></path>
<path data-code="CZ-LI" data-name="Liberecký" d="M211.82,188.59L212.21,189.53L215.01,190.30L219.24,193.22L223.97,193.94L226.05,192.71L228.09,187.92L232.71,187.18L241.90,187.85L241.83,181.61L243.17,178.98L243.08,175.36L240.55,172.60L240.21,171.19L243.07,169.29L243.67,167.69L245.20,169.07L249.28,169.94L252.04,172.64L252.94,172.46L253.93,169.54L255.91,169.29L257.05,173.02L261.63,173.09L263.78,174.13L265.07,176.18L263.72,180.98L263.96,182.75L266.51,188.37L270.80,191.25L271.76,193.59L271.50,197.24L272.01,198.27L273.15,198.63L275.56,195.46L278.91,195.19L285.38,197.41L289.19,206.33L288.74,213.20L290.94,217.86L290.53,223.26L293.39,230.00L293.46,232.33L292.11,233.51L285.94,232.43L281.95,229.76L279.43,230.82L278.71,236.34L277.36,237.56L275.01,236.22L271.01,231.86L267.50,230.46L265.85,230.79L262.37,234.67L261.40,234.82L256.40,230.84L253.88,230.80L251.02,228.26L249.46,223.06L246.84,223.50L243.79,220.74L239.46,219.72L235.66,220.10L229.37,227.94L219.55,234.07L210.93,236.04L210.01,235.79L208.90,233.23L201.11,233.32L200.49,230.46L194.75,225.79L190.25,210.53L192.04,208.95L193.51,205.19L195.89,202.64L196.12,200.17L197.77,198.19L198.98,192.44L199.99,192.56L204.20,196.84L205.55,196.85L207.07,195.01L207.89,191.08L211.04,190.38L211.82,188.59Z"><title>Liberecký</title></path>
<path data-code="CZ-KA" data-name="Karlovarský" d="M78.55,244.57L79.19,243.94L83.27,246.95L88.53,247.55L91.56,251.04L98.29,252.16L100.46,254.23L101.42,265.90L101.00,267.75L104.28,275.02L102.23,278.39L105.70,281.45L104.05,283.02L104.86,287.07L99.52,288.76L100.34,294.31L99.91,295.10L97.35,294.92L94.47,291.68L88.92,290.59L78.09,297.52L76.34,303.86L72.10,302.58L69.16,304.33L66.81,302.24L60.56,302.11L57.21,305.50L51.83,304.68L48.63,307.41L44.06,306.83L39.11,303.55L39.55,298.69L38.20,297.40L35.24,297.09L21.74,289.37L20.59,284.94L16.99,282.15L16.29,280.26L16.81,275.56L15.96,272.20L13.08,268.66L9.11,266.19L8.27,264.71L10.65,262.08L10.80,260.48L10.50,258.70L8.00,255.67L13.89,256.10L15.44,257.19L16.20,261.46L21.16,262.98L21.39,264.00L20.38,265.69L22.34,267.86L23.86,273.48L24.68,274.75L26.05,274.92L27.18,274.11L26.47,270.12L26.72,267.90L28.74,264.71L28.96,262.73L31.43,260.18L33.92,255.67L39.45,252.34L40.11,248.91L42.94,246.50L52.21,245.10L57.56,245.76L61.27,241.16L67.66,239.73L75.79,244.42L78.55,244.57Z"><title>Karlovarský</title></path>
<path data-code="CZ-PL" data-name="Plzeňský" d="M40.71,316.52L43.16,311.16L44.06,306.83L48.63,307.41L51.83,304.68L57.21,305.50L60.56,302.11L66.81,302.24L69.16,304.33L72.10,302.58L76.34,303.86L78.09,297.52L85.97,293.09L88.55,290.67L94.47,291.68L97.35,294.92L99.91,295.10L100.34,294.31L99.52,288.76L104.86,287.07L104.05,283.02L105.70,281.45L108.58,284.41L113.31,285.32L115.02,284.10L116.02,287.14L115.08,289.97L115.39,290.90L120.03,289.86L123.81,291.26L128.43,295.46L135.04,295.71L139.27,299.37L142.41,300.44L143.51,302.28L147.73,304.43L148.78,305.78L149.64,311.20L147.35,312.49L147.10,315.56L146.01,318.45L146.28,321.14L145.32,325.27L147.20,327.23L144.32,330.60L140.34,331.93L137.82,334.61L139.48,336.68L138.21,337.84L139.51,339.27L138.69,340.34L138.80,341.74L141.85,344.63L142.03,349.70L143.83,352.82L143.18,358.64L145.46,366.31L144.68,371.19L145.30,376.83L141.63,384.81L139.04,387.28L139.51,389.57L138.31,392.17L140.16,395.59L137.51,397.51L134.61,402.67L131.38,404.10L130.06,408.63L130.05,413.13L126.06,418.51L124.31,422.30L124.41,423.50L122.78,423.91L121.18,427.46L116.76,424.67L113.29,420.55L113.24,417.05L112.34,414.88L106.47,408.00L103.88,406.51L99.01,406.27L96.73,404.92L94.39,400.37L86.86,389.98L83.27,386.28L82.35,382.90L77.52,378.93L73.08,377.33L71.97,377.69L72.33,379.29L70.83,379.50L64.49,378.21L63.21,376.88L60.58,370.90L53.67,366.12L52.36,362.29L52.02,356.10L48.79,354.53L47.13,350.99L45.87,345.41L42.27,342.40L42.72,341.12L41.87,340.63L42.49,337.45L41.83,336.13L35.64,332.36L32.75,327.04L33.70,325.17L38.31,322.45L39.10,316.02L40.71,316.52Z"><title>Plzeňský</title></path>
<path data-code="CZ-JC" data-name="Jihočeský" d="M129.89,426.56L124.41,423.50L124.31,422.30L126.06,418.51L130.05,413.13L130.06,408.63L131.38,404.10L134.61,402.67L137.51,397.51L140.16,395.59L138.31,392.17L139.51,389.57L139.14,386.80L141.63,384.81L145.39,375.99L144.68,371.19L145.35,365.24L143.18,358.64L148.31,355.81L156.17,358.24L162.55,355.61L163.83,352.88L165.25,351.95L173.38,353.87L178.08,353.25L182.82,350.58L185.49,351.07L189.46,355.02L196.33,352.64L200.25,353.86L209.19,353.50L210.18,353.77L210.26,354.95L213.03,355.14L221.29,350.72L222.12,345.94L224.58,343.12L229.42,346.08L230.19,347.95L234.06,348.44L235.09,350.70L237.13,351.80L238.81,354.18L237.97,355.75L234.46,357.39L235.87,363.78L234.09,373.73L236.36,377.17L236.22,380.34L236.96,382.23L241.50,386.03L245.74,384.42L256.50,393.53L259.46,390.66L264.52,393.17L270.05,394.17L271.45,399.85L275.67,404.08L281.85,404.77L286.73,403.36L291.52,408.54L290.54,409.65L287.58,410.20L286.64,413.58L283.53,417.71L283.53,419.54L285.11,421.41L288.39,422.20L289.53,423.45L287.15,431.82L279.60,426.56L272.15,423.32L266.59,422.75L265.45,421.33L264.83,421.34L264.04,424.18L262.51,425.82L254.77,427.48L255.34,424.00L254.41,420.55L248.14,420.03L243.67,418.46L241.65,418.90L240.50,423.20L240.79,434.02L238.37,444.27L239.41,447.07L238.49,449.26L232.70,447.67L227.28,447.55L225.27,454.10L221.03,457.91L219.51,460.44L218.85,470.87L217.24,472.52L215.92,472.43L213.94,469.27L211.56,469.52L210.68,466.90L205.82,468.47L201.67,466.51L199.73,464.18L198.56,465.01L196.76,469.93L195.48,471.27L189.04,474.72L180.28,471.91L168.88,470.59L166.14,469.42L164.08,467.02L163.36,464.63L165.50,462.71L165.44,461.17L164.00,460.20L162.14,457.07L152.79,450.55L148.02,448.81L146.45,447.14L140.69,436.23L135.04,434.36L132.41,431.02L131.36,426.39L129.89,426.56Z"><title>Jihočeský</title></path>
<path data-code="CZ-KR" data-name="Královéhradecký" d="M285.38,197.41L295.01,200.73L298.43,203.76L307.12,202.36L312.13,210.96L320.46,209.32L322.59,212.31L323.73,215.72L323.55,217.20L322.23,218.53L322.39,219.70L325.81,219.08L330.80,214.32L334.20,214.66L337.97,217.15L339.32,216.84L341.48,212.78L342.52,212.56L348.07,213.28L350.54,214.66L357.39,221.82L358.12,224.20L355.59,225.22L355.33,229.90L352.22,233.52L347.00,233.52L345.17,236.16L340.84,238.70L341.38,240.46L339.78,240.10L339.15,242.08L339.90,244.31L342.52,244.77L343.56,247.98L344.97,249.53L347.08,248.60L351.51,248.84L352.27,253.38L353.71,255.27L359.08,257.82L364.47,266.54L366.91,269.07L368.70,275.68L370.87,279.08L362.35,276.35L361.36,277.60L360.43,281.40L352.10,285.35L349.75,289.56L341.45,290.81L339.04,292.19L331.41,286.50L328.57,282.82L323.31,281.43L322.43,276.29L319.76,275.30L315.64,275.73L310.06,280.97L309.07,280.10L307.76,275.58L307.03,274.99L303.03,276.16L301.09,280.94L300.19,281.60L295.87,279.10L292.22,279.81L289.08,278.27L286.30,279.14L281.40,283.72L276.34,282.11L276.53,281.24L275.16,278.89L272.06,275.78L274.11,272.08L271.26,260.23L270.06,259.41L260.14,259.35L258.22,254.69L253.02,252.03L252.85,248.91L255.11,243.38L253.17,233.29L253.88,230.80L255.11,230.39L261.90,234.87L265.85,230.79L267.50,230.46L271.01,231.86L275.01,236.22L277.36,237.56L278.71,236.34L279.43,230.82L281.95,229.76L285.94,232.43L293.15,233.02L293.39,230.00L290.53,223.26L290.94,217.86L288.74,213.20L289.19,206.33L285.38,197.41Z"><title>Královéhradecký</title></path>
<path data-code="CZ-OL" data-name="Olomoucký" d="M399.83,242.57L411.15,245.35L414.93,247.98L419.43,247.78L420.03,251.09L421.31,253.02L424.14,254.80L431.50,255.94L430.02,256.54L431.22,258.10L431.84,262.59L432.91,263.39L433.79,261.11L435.57,260.98L436.84,268.34L436.18,270.21L434.67,271.50L432.04,270.90L429.78,273.97L423.25,277.59L421.79,279.58L420.11,285.35L420.95,290.19L415.38,298.74L415.83,301.44L418.31,304.38L415.61,308.44L415.35,314.71L420.23,316.04L421.50,318.61L428.38,322.12L432.34,321.02L439.72,328.32L443.80,328.55L446.10,326.89L449.51,328.91L454.49,328.10L456.81,329.22L459.04,331.40L459.03,337.55L460.03,338.19L462.95,337.07L465.86,342.75L471.08,346.38L472.25,348.15L472.75,351.11L475.05,351.70L477.28,353.92L476.08,357.19L473.91,357.39L471.02,355.97L469.49,358.89L467.62,360.46L467.62,364.21L465.46,365.18L456.25,363.80L454.83,364.81L455.67,367.38L454.89,369.18L447.47,369.51L444.62,371.04L442.15,374.29L437.16,372.41L433.47,369.75L430.22,369.03L429.76,373.16L431.10,376.17L430.38,377.67L425.91,382.36L419.52,382.61L418.38,386.61L417.64,387.15L416.36,385.92L416.32,383.29L413.85,378.76L407.40,374.86L406.98,370.56L402.97,366.43L401.04,360.33L399.48,358.24L396.34,356.93L394.35,357.50L393.95,360.27L396.38,366.25L396.08,367.71L393.85,370.65L391.74,371.54L387.36,368.11L386.90,366.87L388.16,365.19L388.54,363.27L386.18,355.87L387.47,354.30L383.85,350.46L382.38,347.00L386.66,346.32L388.17,343.02L389.07,337.75L391.55,335.17L390.95,330.93L388.44,328.78L387.93,325.99L382.85,316.34L382.81,314.31L384.11,311.50L384.07,305.14L382.08,296.48L389.22,290.25L388.78,285.82L393.85,271.32L397.81,267.90L400.73,268.35L401.14,266.05L402.80,266.39L404.04,268.42L405.01,268.79L405.53,267.73L403.35,259.44L398.42,255.16L396.12,247.81L393.54,244.04L393.53,242.30L395.72,240.99L399.83,242.57Z"><title>Olomoucký</title></path>
<path data-code="CZ-PA" data-name="Pardubický" d="M370.87,279.08L377.02,283.38L380.28,283.14L384.55,278.48L387.86,273.23L389.66,271.69L393.85,271.32L388.78,285.82L389.22,290.25L382.08,296.48L384.07,305.14L384.11,311.50L382.81,314.31L382.85,316.34L387.93,325.99L388.44,328.78L390.95,330.93L391.55,335.17L389.07,337.75L388.17,343.02L387.36,343.87L380.57,341.34L369.20,340.63L368.09,341.47L367.84,343.33L366.87,344.43L355.39,345.19L347.69,341.53L345.03,338.25L340.95,335.34L336.96,333.65L332.27,333.52L330.60,331.32L323.89,328.45L318.52,333.31L312.47,332.41L310.10,328.33L306.71,326.26L305.74,323.70L304.19,322.51L296.95,318.73L290.35,318.98L285.87,312.81L282.39,310.49L283.98,300.53L277.43,295.27L272.24,292.80L270.74,290.73L274.97,289.02L274.74,284.17L276.34,282.11L281.40,283.72L286.30,279.14L289.08,278.27L292.22,279.81L295.87,279.10L300.19,281.60L301.09,280.94L303.03,276.16L307.03,274.99L307.76,275.58L309.07,280.10L310.06,280.97L316.40,275.36L321.99,275.96L322.67,276.76L323.31,281.43L328.57,282.82L331.41,286.50L339.04,292.19L341.45,290.81L349.75,289.56L352.10,285.35L360.43,281.40L361.36,277.60L362.35,276.35L370.87,279.08Z"><title>Pardubický</title></path>
<path data-code="CZ-MO" data-name="Moravskoslezský" d="M459.96,255.68L461.32,256.19L463.45,258.87L462.22,263.45L464.51,267.85L463.75,269.74L458.69,273.19L451.78,274.62L451.36,276.78L455.27,281.71L456.52,282.28L458.88,281.54L463.25,283.14L462.24,284.89L464.14,287.42L465.77,291.83L471.90,298.26L474.82,298.88L477.75,297.99L480.12,295.88L487.44,294.62L487.70,292.83L487.14,291.97L485.38,291.97L485.02,289.14L492.20,292.83L491.68,295.13L492.73,296.34L497.87,297.31L501.63,300.18L505.42,301.70L506.77,305.16L508.37,306.47L511.79,304.27L511.27,303.85L514.51,303.45L523.61,307.86L525.48,307.86L528.65,305.83L529.84,306.55L530.49,312.25L532.62,313.41L530.41,315.98L530.45,319.32L533.74,327.03L534.55,330.66L536.13,332.35L539.75,332.91L543.40,336.26L547.08,335.40L548.29,336.30L552.00,351.39L551.89,356.05L547.09,356.72L543.79,359.79L541.53,359.91L536.01,357.74L533.16,359.08L529.60,358.55L527.94,359.61L527.33,362.96L526.25,364.73L523.61,366.17L520.18,370.41L518.37,371.61L516.03,371.08L515.98,372.59L515.09,372.57L513.79,371.51L512.27,365.69L509.85,363.61L507.77,359.53L500.27,359.10L496.55,356.84L483.32,357.95L482.31,357.20L481.15,354.17L477.28,353.92L475.05,351.70L472.75,351.11L471.95,347.49L465.86,342.75L462.95,337.07L460.03,338.19L459.03,337.55L459.04,331.40L456.81,329.22L454.49,328.10L449.51,328.91L446.10,326.89L443.80,328.55L439.72,328.32L432.34,321.02L428.38,322.12L421.50,318.61L420.23,316.04L415.35,314.71L415.61,308.44L418.31,304.38L415.83,301.44L415.38,298.74L420.95,290.19L420.11,285.35L421.79,279.58L423.25,277.59L429.78,273.97L432.04,270.90L434.67,271.50L436.18,270.21L436.84,268.34L435.57,260.98L438.91,265.07L442.11,261.86L445.95,261.51L453.14,262.77L456.39,261.17L459.96,255.68Z"><title>Moravskoslezský</title></path>
<path data-code="CZ-JM" data-name="Jihomoravský" d="M300.00,437.77L287.15,431.82L289.83,423.32L291.81,423.26L294.39,426.51L298.08,422.95L302.58,425.36L308.40,419.97L313.97,418.92L315.09,416.04L317.00,415.65L319.68,412.69L322.75,415.20L325.16,415.10L327.45,413.70L333.00,414.63L336.50,410.95L342.17,409.10L344.48,405.68L343.72,401.21L345.87,397.25L343.38,393.02L344.16,389.35L346.49,388.02L345.63,384.62L346.15,382.20L348.01,379.77L355.35,374.82L353.67,367.52L353.02,360.16L353.64,358.89L356.05,358.45L356.73,356.78L356.24,353.92L353.82,351.16L355.39,345.19L366.87,344.43L368.51,340.93L373.50,340.62L380.57,341.34L387.36,343.87L386.23,346.80L383.18,346.32L382.38,347.00L383.85,350.46L387.47,354.30L386.18,355.87L388.54,363.27L388.16,365.19L386.90,366.87L387.36,368.11L391.74,371.54L393.85,370.65L396.08,367.71L396.38,366.25L393.95,360.27L394.35,357.50L396.34,356.93L399.48,358.24L401.04,360.33L402.97,366.43L406.98,370.56L407.40,374.86L412.21,377.16L415.36,381.04L416.43,384.91L414.87,388.41L414.76,390.26L416.56,395.02L420.04,398.10L420.58,400.01L419.08,401.84L416.90,402.66L413.20,407.20L413.66,408.92L415.74,410.06L422.12,409.06L422.67,415.54L431.78,418.84L432.76,422.43L435.61,423.66L438.44,426.52L442.22,425.05L446.44,426.13L448.17,430.35L453.05,432.05L454.44,433.39L456.33,439.41L447.40,443.00L444.46,442.53L440.82,439.29L434.47,442.18L425.28,437.41L421.41,436.38L417.81,437.17L413.49,440.39L412.28,443.90L408.35,447.86L406.37,451.31L402.31,463.34L400.11,466.67L399.91,469.04L397.13,465.72L396.02,457.47L394.11,454.72L388.15,455.94L382.52,452.96L378.18,452.86L377.12,452.10L375.61,447.33L365.66,443.92L360.31,444.35L358.91,445.30L354.83,452.47L352.68,453.69L351.17,452.65L338.15,451.29L330.71,451.74L326.44,449.85L318.35,443.82L318.23,442.34L316.44,442.16L315.76,440.29L313.84,440.49L314.66,439.38L310.42,438.13L309.23,435.60L300.00,437.77Z"><title>Jihomoravský</title></path>
<path data-code="CZ-ZL" data-name="Zlínský" d="M513.93,378.50L510.95,380.86L500.12,385.14L497.75,387.42L494.31,394.42L493.28,398.51L493.11,408.18L492.58,410.91L490.90,413.79L485.86,417.29L481.55,416.95L477.91,418.37L475.06,427.97L473.58,429.44L468.37,429.58L462.87,436.77L456.33,439.41L454.44,433.39L453.05,432.05L448.17,430.35L446.44,426.13L442.22,425.05L438.44,426.52L435.61,423.66L432.76,422.43L431.78,418.84L422.67,415.54L422.12,409.06L415.74,410.06L413.05,407.78L416.51,403.04L420.09,401.11L420.58,400.01L420.04,398.10L416.56,395.02L414.76,390.26L414.87,388.41L416.28,385.72L417.28,387.08L418.38,386.61L419.52,382.61L425.91,382.36L430.11,378.02L431.10,376.17L429.76,373.16L430.22,369.03L433.47,369.75L437.16,372.41L442.15,374.29L444.62,371.04L447.47,369.51L454.89,369.18L455.67,367.38L454.83,364.81L456.25,363.80L465.46,365.18L467.62,364.21L467.62,360.46L469.49,358.89L470.64,356.33L471.86,355.79L473.91,357.39L476.08,357.19L477.28,353.92L481.15,354.17L482.31,357.20L484.00,358.10L496.55,356.84L500.27,359.10L507.77,359.53L509.85,363.61L512.27,365.69L513.79,371.51L515.98,372.59L515.83,377.00L513.93,378.50Z"><title>Zlínský</title></path>
<path data-code="CZ-VY" data-name="Vysočina" d="M355.39,345.19L353.82,351.16L356.24,353.92L356.73,356.78L356.05,358.45L353.64,358.89L353.02,360.16L353.67,367.52L355.35,374.82L348.01,379.77L345.86,382.99L345.69,385.22L346.49,388.02L344.16,389.35L343.49,391.45L343.65,394.33L345.87,396.65L343.72,401.21L344.62,404.50L343.92,406.91L342.17,409.10L336.50,410.95L333.00,414.63L327.45,413.70L325.16,415.10L322.75,415.20L319.68,412.69L317.00,415.65L315.09,416.04L313.97,418.92L308.40,419.97L302.58,425.36L298.08,422.95L294.39,426.51L291.81,423.26L290.20,422.98L289.61,423.89L288.77,422.46L285.61,421.77L283.53,419.54L283.68,417.23L286.64,413.58L287.58,410.20L291.50,408.87L287.03,403.57L281.85,404.77L275.97,404.25L271.45,399.85L270.05,394.17L264.52,393.17L259.46,390.66L256.50,393.53L245.74,384.42L241.50,386.03L236.54,381.58L236.36,377.17L234.09,373.73L235.87,363.78L234.46,357.39L238.52,355.32L238.61,353.59L237.13,351.80L241.68,347.26L241.71,345.28L246.14,346.43L250.03,345.78L253.70,346.39L262.30,342.97L262.29,340.09L261.47,338.33L256.87,334.03L260.00,329.36L260.87,326.85L262.19,325.90L264.72,326.65L270.82,323.58L274.18,320.74L278.01,320.51L279.95,315.35L282.24,313.47L282.39,310.49L285.87,312.81L290.35,318.98L298.36,319.12L302.03,322.00L305.31,323.21L306.40,325.95L310.10,328.33L312.47,332.41L318.52,333.31L323.89,328.45L330.60,331.32L332.27,333.52L336.96,333.65L340.95,335.34L345.03,338.25L347.69,341.53L355.39,345.19Z"><title>Vysočina</title></path>
<path data-code="CZ-ST" data-name="Středočeský" d="M282.39,310.49L282.24,313.47L279.95,315.35L278.01,320.51L274.18,320.74L270.82,323.58L264.72,326.65L262.19,325.90L260.87,326.85L260.00,329.36L256.87,334.03L261.47,338.33L262.29,340.09L262.30,342.97L255.99,346.03L246.14,346.43L241.93,345.07L241.68,347.26L236.61,351.88L235.09,350.70L234.06,348.44L230.19,347.95L229.42,346.08L224.58,343.12L222.12,345.94L221.29,350.72L213.03,355.14L210.26,354.95L210.18,353.77L209.19,353.50L200.25,353.86L196.33,352.64L189.46,355.02L185.49,351.07L182.82,350.58L178.08,353.25L173.38,353.87L165.25,351.95L163.83,352.88L162.55,355.61L156.17,358.24L148.31,355.81L143.18,358.64L143.83,352.82L142.03,349.70L141.85,344.63L138.80,341.74L138.69,340.34L139.51,339.27L138.21,337.84L139.48,336.68L137.82,334.61L140.34,331.93L144.32,330.60L147.20,327.23L145.43,325.59L145.35,324.53L147.18,312.91L149.60,311.53L148.78,305.78L143.51,302.28L142.92,300.77L139.27,299.37L135.04,295.71L128.43,295.46L123.81,291.26L120.03,289.86L115.39,290.90L115.08,289.97L116.02,287.14L115.02,284.10L121.91,278.95L124.98,273.93L130.63,271.46L135.69,267.85L140.41,267.75L148.08,263.78L151.11,264.52L158.23,259.14L161.38,258.59L162.23,254.42L163.19,253.60L167.53,253.26L173.01,254.52L179.35,253.45L181.98,254.42L185.39,252.17L190.96,251.42L192.64,248.16L191.66,241.69L194.52,242.20L199.20,238.94L200.03,234.63L201.11,233.32L208.90,233.23L210.01,235.79L210.93,236.04L219.55,234.07L229.37,227.94L235.66,220.10L240.02,219.81L243.79,220.74L246.84,223.50L249.46,223.06L251.02,228.26L253.88,230.80L253.12,234.28L254.31,237.12L255.11,243.38L252.85,248.91L253.02,252.03L258.22,254.69L260.14,259.35L270.06,259.41L271.62,260.96L272.36,266.51L274.11,272.08L272.06,275.78L275.16,278.89L276.58,281.76L274.83,283.75L274.97,289.02L270.74,290.73L272.24,292.80L277.43,295.27L283.98,300.53L282.39,310.49ZM210.19,295.59L214.91,294.99L215.51,293.51L214.47,288.62L217.95,284.07L217.49,282.85L214.79,281.61L213.12,279.41L210.33,278.45L206.66,274.30L201.30,274.38L190.71,277.45L190.19,278.02L190.25,280.05L189.47,280.68L185.65,279.90L180.04,282.58L182.54,285.01L182.20,287.58L188.16,296.63L188.85,300.86L202.75,297.57L206.51,294.99L210.19,295.59Z"><title>Středočeský</title></path>
<path data-code="CZ-PR" data-name="Prague" d="M205.27,273.92L207.07,274.60L210.33,278.45L213.12,279.41L214.79,281.61L217.84,283.45L217.73,284.92L214.47,288.62L215.51,293.51L214.91,294.99L206.51,294.99L202.75,297.57L189.11,300.97L188.38,300.36L188.16,296.63L182.20,287.58L182.67,285.25L180.00,282.94L185.65,279.90L189.47,280.68L190.25,280.05L190.19,278.02L190.71,277.45L205.27,273.92Z"><title>Prague</title></path>
  </g>
</svg>
