<?xml version="1.0" encoding="UTF-8"?>
<svg xmlns="http://www.w3.org/2000/svg" viewBox="0 0 560 640" class="pref-muni-svg" role="img" aria-label="行政区分">
  <g class="pref-muni-svg__paths" fill="#eaf2fb" stroke="#5b7fa8" stroke-width="0.6" stroke-linejoin="round">
<path data-code="DK-83" data-name="Syddanmark" d="M102.20,508.04L95.21,507.45L92.77,501.29L70.36,494.71L51.60,494.93L52.68,487.78L50.07,477.34L53.23,462.14L44.11,460.73L43.63,467.23L39.16,471.50L36.91,469.70L36.03,466.25L36.91,456.00L38.35,453.28L46.44,455.52L43.22,458.35L43.46,459.90L53.81,460.98L51.23,447.70L50.65,441.78L51.65,437.05L49.39,422.60L46.34,418.38L34.73,416.35L24.59,402.68L26.28,400.52L21.31,400.21L19.09,403.34L21.61,407.14L19.44,409.03L25.08,412.82L25.81,415.22L24.81,415.60L15.59,407.76L8.00,404.56L13.70,385.34L14.66,379.64L14.20,369.62L29.05,369.47L37.05,374.06L43.32,368.26L42.95,365.85L44.57,364.92L53.64,365.68L60.38,369.99L64.12,368.39L63.70,365.15L65.69,359.81L68.51,358.39L72.29,358.75L78.76,365.84L81.40,365.54L88.39,359.59L94.07,350.67L96.98,350.03L106.65,353.99L112.50,360.71L118.65,371.55L124.06,371.96L123.85,376.28L130.23,379.72L129.83,382.48L120.90,381.54L120.37,383.51L128.52,385.00L134.67,393.40L143.58,393.82L132.68,403.01L132.25,406.19L124.57,409.03L120.90,408.08L120.31,410.65L116.15,412.82L124.20,411.94L128.65,414.41L127.78,419.51L122.99,421.40L124.62,426.13L124.08,429.92L127.50,433.13L126.68,436.61L132.52,446.15L130.52,453.22L121.69,453.92L115.25,458.95L117.22,462.14L112.95,463.17L117.95,464.54L120.90,468.75L117.58,472.75L111.24,475.38L112.85,477.37L122.46,473.56L128.84,479.23L134.11,481.21L136.59,494.36L132.60,494.62L131.99,496.34L135.15,499.09L135.26,503.28L133.23,503.30L131.46,500.12L125.81,499.23L126.68,497.28L124.81,493.97L127.42,492.58L125.17,489.90L122.99,490.58L119.84,497.28L112.94,502.20L111.44,506.86L107.44,505.58L102.20,508.04ZM189.56,494.45L194.83,501.07L184.41,504.01L171.15,488.97L169.44,483.69L177.11,488.78L181.80,494.88L185.02,495.05L184.83,491.61L187.70,498.23L190.39,497.95L189.56,494.45ZM155.73,483.96L159.82,497.05L151.27,499.60L145.16,495.39L147.21,494.32L154.20,497.28L147.01,492.62L140.56,494.27L137.96,492.09L136.20,483.10L143.09,487.75L141.96,485.40L142.68,484.69L138.41,480.56L139.36,478.29L129.73,477.66L131.46,473.56L127.52,474.37L126.20,472.54L133.00,469.19L138.93,469.40L143.52,475.02L151.84,478.49L155.73,483.96ZM220.77,474.51L223.89,463.75L226.88,458.47L228.61,459.30L224.93,476.39L219.44,489.27L211.98,514.86L208.34,517.22L205.46,507.76L201.19,502.96L204.26,502.28L207.62,496.10L210.70,496.34L210.19,493.41L207.50,493.41L208.59,490.08L220.77,474.51ZM37.39,432.75L35.48,433.54L31.68,427.96L29.26,421.40L29.52,416.44L32.13,415.73L32.42,419.84L36.38,421.40L35.37,426.12L37.39,432.75ZM206.22,471.68L201.47,471.92L196.35,476.46L178.96,471.76L172.91,467.81L170.67,467.61L170.04,471.68L165.78,467.81L159.93,467.81L166.88,461.18L163.56,455.13L157.88,455.52L155.13,453.26L154.42,456.65L157.10,460.86L156.83,463.17L153.73,462.89L153.27,451.11L148.02,448.94L145.90,445.48L146.78,441.78L145.97,432.28L139.62,430.41L137.74,427.93L142.52,425.19L138.31,423.29L140.94,423.29L134.60,419.91L131.99,415.73L138.38,420.05L140.37,419.51L129.89,411.95L135.97,405.25L141.54,404.65L142.52,408.08L146.23,410.15L173.15,396.74L175.83,396.74L176.40,399.57L177.49,399.16L177.50,395.28L178.57,394.99L194.85,406.73L191.49,406.93L192.32,412.08L187.20,417.06L188.47,419.37L191.20,419.24L192.72,416.16L201.81,412.38L198.56,408.08L202.17,407.49L200.66,400.52L202.23,402.41L201.77,395.71L203.24,395.63L209.13,404.39L212.08,413.09L205.54,416.93L198.90,416.72L197.56,419.31L200.66,419.51L200.80,416.94L208.66,419.63L216.27,430.94L219.17,440.39L216.29,437.98L214.44,440.83L217.70,450.94L215.25,463.38L211.41,470.63L206.22,471.68Z"><title>Syddanmark</title></path>
<path data-code="DK-82" data-name="Midtjylland" d="M14.20,369.62L10.74,343.56L12.27,345.31L15.57,359.60L14.66,365.90L15.59,368.18L27.47,360.22L30.98,354.71L25.29,344.07L24.41,334.81L22.43,331.63L12.20,326.75L11.05,342.97L8.98,338.77L8.87,325.60L10.97,313.69L10.10,265.76L14.44,249.09L17.15,243.59L18.58,246.83L16.24,253.50L18.63,254.36L20.23,258.22L24.24,259.37L23.13,260.04L23.66,264.84L24.96,265.04L24.71,262.00L30.89,261.11L40.34,266.73L44.28,262.00L47.00,272.76L50.65,276.27L57.18,274.98L59.45,264.14L55.32,260.65L53.23,255.39L57.78,254.23L62.75,245.85L71.34,244.00L65.48,242.13L68.24,236.32L74.34,230.97L78.90,231.68L82.62,229.64L85.92,231.36L87.04,236.28L91.33,244.04L84.96,248.69L85.27,250.98L82.33,254.36L81.52,258.08L82.42,263.81L84.96,262.10L85.99,257.58L89.74,257.28L87.11,256.25L89.74,250.58L89.27,253.69L99.05,254.50L99.53,257.61L97.05,262.00L102.15,268.64L106.52,265.61L104.77,262.95L100.40,264.46L102.89,249.46L111.32,253.74L113.18,250.60L113.12,247.28L115.35,247.46L116.50,248.72L116.02,252.02L118.16,254.40L128.43,255.96L125.87,261.29L129.87,260.39L133.68,264.73L140.44,265.26L161.03,255.59L169.75,246.11L176.71,246.64L180.62,244.69L182.43,252.32L181.09,256.25L171.38,264.84L170.79,274.16L168.99,277.13L172.24,276.27L173.17,265.38L180.32,258.62L181.90,259.64L183.01,264.83L191.08,270.02L218.24,268.17L229.18,280.05L226.43,285.86L225.13,295.89L213.09,310.39L211.79,320.74L206.67,319.26L204.88,316.05L207.68,314.97L207.87,311.37L203.31,309.25L197.19,317.46L199.08,326.54L194.83,327.91L192.72,322.76L195.36,320.86L194.13,318.58L186.36,319.31L182.19,314.16L187.94,311.33L191.69,314.12L192.72,312.19L191.50,308.26L193.76,303.68L188.98,300.79L185.92,300.84L180.83,309.91L174.78,315.79L171.83,321.66L175.33,331.93L172.67,339.78L176.25,339.67L174.31,344.04L173.77,353.95L168.99,359.62L170.22,362.80L168.89,365.16L166.50,364.55L162.70,358.42L144.63,362.62L146.57,364.80L158.38,367.89L156.19,374.59L159.46,376.81L156.30,378.65L155.25,383.51L153.44,382.36L138.83,387.20L134.11,385.31L129.83,382.48L130.23,379.72L128.95,377.72L123.85,376.28L124.06,371.96L118.65,371.55L108.59,355.75L96.98,350.03L94.07,350.67L88.39,359.59L81.40,365.54L78.76,365.84L72.29,358.75L68.51,358.39L65.69,359.81L63.70,365.15L64.12,368.39L60.38,369.99L53.64,365.68L44.57,364.92L42.95,365.85L43.32,368.26L37.05,374.06L29.05,369.47L14.20,369.62ZM197.98,360.65L199.59,354.38L194.58,348.88L194.83,345.44L196.79,342.41L199.59,350.92L203.29,353.09L202.76,358.77L204.09,360.67L206.45,358.74L203.29,363.49L202.23,373.03L199.74,375.39L194.96,371.41L194.29,366.33L194.73,363.52L197.98,360.65ZM271.44,245.85L272.10,243.09L282.01,241.12L276.74,247.82L273.86,248.18L271.44,245.85Z"><title>Midtjylland</title></path>
<path data-code="DK-81" data-name="Nordjylland" d="M102.89,249.46L100.17,244.69L93.10,248.47L90.79,246.79L95.21,242.97L96.45,238.71L91.53,232.19L91.33,228.83L93.99,222.64L90.31,218.35L94.75,209.91L99.34,206.49L100.02,204.09L111.45,200.31L122.99,204.09L121.94,206.62L124.62,207.86L130.87,198.27L136.44,195.58L148.36,195.58L139.10,188.96L132.64,195.21L129.80,192.73L122.53,196.87L115.84,196.97L96.67,203.37L86.58,195.58L86.45,198.34L81.04,201.24L77.50,199.81L70.17,205.59L66.22,203.21L63.24,207.86L53.05,210.26L48.54,218.35L47.53,224.50L44.57,228.83L38.54,232.17L38.55,240.88L37.39,243.01L41.18,243.01L41.29,245.87L35.57,244.90L32.13,246.79L39.28,248.69L45.86,246.79L45.86,251.61L47.54,254.77L42.80,258.83L43.80,260.04L40.09,258.10L34.95,250.20L27.81,246.20L23.94,236.40L19.44,234.51L20.95,242.60L19.61,244.67L18.87,235.37L21.50,225.39L35.33,203.14L48.30,186.68L61.10,189.18L71.17,186.05L76.25,181.40L95.54,184.16L109.53,180.79L121.95,170.06L138.54,140.10L152.30,121.82L170.08,120.46L181.88,113.84L196.41,100.71L200.80,99.70L204.88,101.66L196.67,106.93L190.35,116.39L188.03,124.70L196.99,143.43L194.74,149.52L196.41,170.92L189.30,178.10L186.57,183.69L181.62,202.28L173.33,204.68L154.44,190.85L149.22,195.58L155.00,192.08L169.68,204.52L179.04,206.06L176.40,209.85L175.35,216.47L177.63,234.30L181.11,242.82L170.57,244.90L166.14,242.13L150.65,251.02L139.89,252.56L143.39,254.12L154.96,250.58L159.69,246.79L163.61,247.06L166.46,243.23L169.75,246.11L161.03,255.59L140.44,265.26L133.68,264.73L129.87,260.39L125.87,261.29L128.43,255.96L118.16,254.40L116.02,252.02L116.50,248.72L115.35,247.46L113.12,247.28L113.18,250.60L111.32,253.74L102.89,249.46ZM64.33,239.15L60.12,243.01L59.72,245.40L51.42,248.25L45.86,240.17L40.34,239.93L43.31,235.79L42.70,232.61L50.29,230.26L52.22,227.80L48.54,226.95L51.17,222.12L50.90,218.34L63.39,216.10L67.53,208.82L69.30,209.95L72.27,206.93L70.70,210.79L71.79,214.49L70.08,221.02L69.12,222.12L67.53,218.35L65.39,220.33L66.59,228.64L68.59,230.64L66.44,231.68L67.53,232.61L64.33,239.15ZM242.92,157.68L245.94,157.96L247.10,161.77L237.08,163.36L239.21,166.45L238.97,168.69L234.17,175.74L231.78,176.29L228.23,171.33L220.77,167.05L227.83,161.52L242.92,157.68Z"><title>Nordjylland</title></path>
<path data-code="DK-85" data-name="Sjaælland" d="M297.11,517.69L294.16,521.00L297.20,522.41L296.91,525.40L294.45,528.33L291.01,529.51L279.01,526.76L268.52,532.34L246.42,517.65L234.30,513.71L231.88,510.10L232.39,507.76L238.86,506.80L240.29,503.90L233.40,496.34L234.44,491.76L237.65,487.75L249.81,485.94L258.07,491.77L260.39,497.04L277.80,506.73L276.10,501.62L282.54,499.09L282.01,492.55L292.64,503.90L291.54,504.85L292.67,507.31L297.37,511.98L297.11,517.69ZM341.20,476.39L350.49,480.25L351.58,486.51L335.90,486.11L325.06,496.34L317.91,493.41L320.54,488.77L319.00,486.89L322.69,485.00L322.69,482.07L326.94,483.96L331.16,482.07L331.72,477.34L328.52,474.51L328.39,472.17L330.63,471.68L334.89,475.97L341.20,476.39ZM336.74,396.88L328.19,404.95L324.31,413.09L326.38,420.37L330.12,423.78L337.48,425.19L342.56,430.23L344.89,440.39L339.30,445.23L323.13,449.12L318.38,454.13L316.67,461.00L315.27,460.24L314.95,455.39L310.17,457.39L312.64,461.18L322.04,462.79L322.26,467.36L318.18,470.39L321.63,477.34L321.55,479.97L311.58,485.00L302.12,479.23L300.01,488.77L302.76,491.38L303.73,490.58L303.16,488.77L305.79,487.75L310.89,494.70L316.48,494.68L322.16,502.96L314.22,510.09L306.01,522.93L306.65,540.14L305.12,540.30L298.95,527.70L299.07,524.83L302.12,519.11L299.47,518.00L300.01,514.30L294.32,507.58L293.12,502.10L289.74,498.14L289.15,490.90L286.79,488.77L290.48,485.00L293.93,487.75L300.01,483.10L296.85,476.39L288.13,471.68L283.26,471.39L279.43,467.81L295.74,473.56L287.27,463.17L293.93,461.91L294.16,460.24L288.11,459.15L286.79,457.33L288.59,454.46L287.27,451.74L282.01,455.52L264.57,449.86L255.07,451.74L256.65,453.63L252.07,452.81L250.34,447.02L252.59,447.92L254.02,445.12L250.60,446.15L250.57,442.02L243.73,435.11L246.60,432.75L242.92,431.81L240.29,434.63L238.71,430.94L248.46,424.67L244.58,411.09L238.18,409.54L238.77,406.67L242.58,405.41L243.18,400.82L238.72,393.78L226.54,388.15L238.71,389.19L228.88,380.30L222.35,377.75L234.49,379.64L244.50,376.81L241.34,378.61L246.80,383.62L248.76,382.48L245.55,379.64L246.60,378.61L251.39,379.64L260.01,374.65L260.91,368.72L258.81,364.52L262.66,366.17L266.13,363.49L268.76,364.07L270.90,360.31L271.30,354.83L268.75,350.25L255.42,346.59L252.96,342.61L262.83,347.40L278.16,350.15L291.18,346.21L292.07,347.41L288.90,353.09L289.30,355.46L286.79,354.99L287.27,353.09L283.07,354.99L288.35,365.57L287.27,368.30L283.70,367.85L278.80,371.14L280.08,372.59L288.90,370.19L290.75,376.81L283.18,378.53L283.60,380.50L289.49,379.37L293.19,385.34L292.07,389.19L297.82,379.22L303.25,378.41L306.93,380.70L302.12,389.19L305.89,388.50L309.13,383.85L312.15,387.20L309.76,386.37L309.92,387.96L313.69,390.04L316.37,379.64L314.91,372.74L317.75,372.76L321.98,376.94L327.58,377.96L326.65,379.74L328.94,381.98L321.22,387.74L322.16,394.44L336.74,396.88Z"><title>Sjaælland</title></path>
<path data-code="DK-84" data-name="Hovedstaden" d="M552.00,462.14L550.95,464.03L551.49,468.52L548.55,474.39L549.06,478.04L545.93,481.73L523.43,473.50L515.98,466.55L517.91,447.93L521.90,437.76L528.87,446.22L534.69,450.70L538.28,450.66L540.37,454.49L552.00,462.14ZM356.51,385.31L361.05,397.34L351.93,404.37L350.28,401.76L349.15,394.85L355.95,383.51L356.51,385.31ZM297.82,379.22L296.85,375.86L298.95,369.16L304.21,366.33L305.47,362.42L302.07,353.84L302.63,351.20L308.90,355.59L308.43,359.62L311.45,367.53L313.05,378.59L311.06,381.54L302.03,378.04L297.82,379.22ZM314.91,372.74L311.06,350.25L308.46,347.59L298.67,350.53L297.37,349.31L298.68,345.91L327.94,324.31L346.52,328.42L356.99,336.07L348.57,352.06L355.47,370.19L354.37,379.64L355.47,382.48L346.60,396.15L340.16,394.85L336.74,396.88L322.16,394.44L321.22,387.74L328.94,381.98L326.65,379.74L327.58,377.96L314.91,372.74Z"><title>Hovedstaden</title></path>
  </g>
</svg>
