<?xml version="1.0" encoding="UTF-8"?>
<svg xmlns="http://www.w3.org/2000/svg" viewBox="0 0 560 640" class="pref-muni-svg" role="img" aria-label="行政区分">
  <g class="pref-muni-svg__paths" fill="#eaf2fb" stroke="#5b7fa8" stroke-width="0.6" stroke-linejoin="round">
<path data-code="DO-15" data-name="Monte Cristi" d="M46.98,178.40L45.30,168.87L50.78,170.84L47.76,159.03L43.79,158.82L43.28,157.16L47.21,152.15L59.87,145.17L58.70,141.47L61.38,139.75L65.42,140.90L67.48,138.78L86.52,138.16L104.44,146.84L112.51,146.15L117.62,149.30L124.46,149.45L128.41,159.27L137.43,162.37L134.52,171.62L135.30,181.95L131.71,181.58L130.01,195.96L120.62,196.19L116.01,193.49L105.18,195.78L98.15,192.21L96.19,194.70L84.48,188.10L82.25,184.04L62.99,184.91L46.98,178.40Z"><title>Monte Cristi</title></path>
<path data-code="DO-05" data-name="Dajabón" d="M46.47,236.03L42.48,228.57L48.84,224.21L53.22,214.98L53.32,208.01L46.98,178.40L62.99,184.91L82.25,184.04L84.48,188.10L96.19,194.70L90.93,206.99L88.34,223.71L81.12,226.93L85.08,233.04L82.56,235.68L79.53,237.52L72.40,235.36L69.49,240.37L60.92,245.67L51.35,241.02L46.47,236.03Z"><title>Dajabón</title></path>
<path data-code="DO-07" data-name="La Estrelleta" d="M29.78,287.94L29.34,285.23L41.42,280.26L52.25,266.94L59.49,261.33L62.11,255.89L62.78,246.58L60.92,245.67L69.49,240.37L72.40,235.36L79.53,237.52L85.08,233.04L91.20,236.98L95.77,243.09L108.85,249.86L107.53,259.39L102.88,262.95L97.26,263.27L87.61,259.64L80.57,276.86L71.82,278.63L64.89,289.38L63.65,297.81L66.21,301.07L64.44,308.67L70.78,313.48L71.83,320.90L78.57,324.78L80.28,329.21L78.17,334.18L41.24,328.88L47.27,324.71L50.05,319.17L49.66,300.89L39.56,286.38L29.78,287.94Z"><title>La Estrelleta</title></path>
<path data-code="DO-10" data-name="Independencia" d="M40.22,329.51L78.17,334.18L68.64,337.02L67.93,338.74L65.51,347.52L69.66,361.14L95.84,372.98L101.56,374.45L107.22,372.22L114.29,372.66L118.13,379.88L122.25,383.30L127.56,382.93L122.66,389.49L114.87,391.59L107.42,389.05L100.87,390.46L105.36,407.96L98.22,407.39L95.52,410.30L94.88,414.52L86.23,406.79L75.71,403.33L50.58,390.01L52.41,386.85L50.73,385.17L35.10,377.03L30.41,371.20L22.43,368.51L21.55,365.63L23.63,360.08L8.00,342.29L16.03,339.20L27.14,341.26L32.86,339.29L40.22,329.51Z"><title>Independencia</title></path>
<path data-code="DO-16" data-name="Pedernales" d="M42.52,429.61L44.82,422.19L42.85,404.29L50.58,390.01L75.71,403.33L86.23,406.79L99.43,417.17L99.46,429.19L94.61,433.39L97.79,441.37L105.08,447.42L113.24,446.73L115.60,452.18L115.70,458.65L108.19,471.25L103.21,485.92L95.57,497.40L91.30,493.57L78.67,473.95L73.70,472.01L61.90,473.61L56.84,472.36L63.99,464.32L63.16,458.60L58.97,450.79L59.87,443.02L50.78,432.75L42.52,429.61ZM79.72,506.65L77.26,505.23L77.23,501.87L80.23,494.83L88.20,501.23L79.72,506.65Z"><title>Pedernales</title></path>
<path data-code="DO-11" data-name="La Altagracia" d="M502.43,409.31L512.07,409.79L516.05,418.90L506.56,415.70L496.84,417.83L491.64,416.44L487.94,413.08L484.27,405.04L502.43,409.31ZM484.53,282.82L491.24,285.23L514.73,308.93L547.92,333.27L552.00,339.52L551.19,345.64L535.35,368.78L533.22,379.89L524.22,381.51L513.53,376.08L511.09,377.72L512.26,383.20L505.76,400.59L503.26,402.82L488.21,402.91L487.88,397.19L479.36,382.29L475.01,377.24L467.39,372.74L474.65,354.80L474.49,349.93L464.80,337.46L461.23,328.62L461.82,325.23L469.05,322.63L476.62,316.60L479.67,307.76L475.66,300.08L477.55,289.72L484.53,282.82Z"><title>La Altagracia</title></path>
<path data-code="DO-08" data-name="El Seybo" d="M421.49,276.41L429.51,277.78L432.29,276.20L429.51,272.44L432.17,271.69L437.58,278.84L444.74,283.19L456.42,274.51L464.81,275.42L471.06,279.90L484.53,282.82L477.55,289.72L475.66,300.08L479.67,307.76L476.62,316.60L469.05,322.63L461.82,325.23L462.35,331.85L455.89,334.38L446.50,348.81L439.08,353.44L440.94,345.77L431.96,345.98L424.16,338.92L415.31,335.82L420.30,317.48L418.01,311.21L409.54,302.38L404.23,291.53L412.59,290.04L424.77,292.90L420.71,285.55L421.49,276.41Z"><title>El Seybo</title></path>
<path data-code="DO-30" data-name="Hato Mayor" d="M361.03,263.77L362.87,265.10L377.35,263.76L384.30,266.46L387.96,266.05L382.83,262.75L393.02,262.75L400.16,271.38L421.49,276.41L420.71,285.55L424.77,292.90L412.59,290.04L404.23,291.53L409.54,302.38L418.01,311.21L420.30,317.48L415.31,335.82L410.27,339.36L400.51,354.28L389.45,333.66L387.58,320.84L384.93,315.90L384.94,310.49L396.50,299.79L393.77,297.04L388.41,296.34L365.35,284.41L358.53,278.29L361.36,269.08L361.03,263.77Z"><title>Hato Mayor</title></path>
<path data-code="DO-20" data-name="Samaná" d="M338.78,232.36L347.39,234.47L365.68,230.87L374.76,226.34L381.36,228.56L388.15,227.72L389.44,229.86L392.09,228.56L403.19,233.89L407.58,228.01L418.61,222.98L419.63,224.78L416.31,232.92L422.59,233.99L428.50,231.77L429.38,235.19L421.11,248.37L415.30,251.04L403.70,248.91L390.99,249.88L382.52,246.28L361.56,244.53L359.16,260.38L361.36,269.08L358.53,278.29L341.10,266.01L344.00,263.23L346.53,255.86L352.78,251.68L352.77,247.46L343.83,245.33L336.61,248.77L335.62,245.10L338.78,232.36Z"><title>Samaná</title></path>
<path data-code="DO-14" data-name="María Trinidad Sánchez" d="M291.11,180.32L298.78,173.81L310.99,173.55L320.09,180.44L321.59,188.02L319.17,196.60L323.25,200.62L323.57,210.84L338.78,232.36L335.62,245.10L336.61,248.77L306.30,239.56L297.09,229.85L292.60,229.27L287.47,225.52L283.47,208.65L273.21,202.06L274.54,193.60L281.14,193.63L288.46,189.37L291.11,180.32Z"><title>María Trinidad Sánchez</title></path>
<path data-code="DO-09" data-name="Espaillat" d="M249.93,168.23L255.33,173.93L263.51,177.97L285.59,182.60L291.11,180.32L288.46,189.37L281.14,193.63L274.54,193.60L273.21,202.06L270.04,201.78L262.40,192.51L251.45,201.86L249.70,197.69L244.58,195.50L239.65,201.61L239.14,220.80L235.95,229.93L231.79,230.74L228.82,223.27L217.81,224.76L214.29,222.12L218.75,218.73L219.22,207.85L223.44,202.03L229.67,180.23L231.98,178.14L246.16,176.81L249.93,168.23Z"><title>Espaillat</title></path>
<path data-code="DO-18" data-name="Puerto Plata" d="M124.46,149.45L128.89,143.96L131.78,149.53L134.81,146.15L132.79,144.10L141.41,144.10L145.66,137.81L157.10,133.35L161.76,135.30L162.23,139.75L165.08,140.90L165.08,137.62L180.39,137.62L188.71,146.59L188.46,149.53L194.03,149.56L201.79,155.34L212.84,160.06L228.35,161.12L235.15,156.89L240.92,158.71L249.93,168.23L246.16,176.81L231.98,178.14L229.67,180.23L224.07,198.87L215.07,196.02L207.66,181.57L199.77,178.08L199.23,187.24L192.63,187.54L186.01,181.79L171.09,178.71L160.53,171.93L128.41,159.27L124.46,149.45Z"><title>Puerto Plata</title></path>
<path data-code="DO-04" data-name="Barahona" d="M162.31,394.83L156.51,388.76L144.82,388.23L141.96,395.95L148.20,413.56L127.05,449.60L120.89,453.66L117.65,459.67L115.70,458.65L115.60,452.18L113.24,446.73L105.08,447.42L97.79,441.37L94.61,433.39L99.46,429.19L99.43,417.17L94.88,414.52L95.52,410.30L98.22,407.39L105.36,407.96L100.87,390.46L107.42,389.05L114.87,391.59L122.66,389.49L127.56,382.93L130.59,373.77L147.86,361.56L152.14,353.67L156.55,359.93L157.01,364.90L149.49,372.72L152.32,377.39L163.23,380.48L164.52,391.09L162.31,394.83Z"><title>Barahona</title></path>
<path data-code="DO-02" data-name="Azua" d="M219.39,393.32L216.82,390.61L220.51,383.60L219.38,375.55L214.18,370.06L204.15,367.75L200.99,368.61L199.79,375.91L195.40,380.27L179.99,382.33L169.31,393.66L162.31,394.83L164.52,391.09L163.23,380.48L152.32,377.39L149.49,372.72L157.01,364.90L155.05,357.39L158.17,356.20L158.22,353.44L140.41,346.74L133.39,339.62L139.88,337.87L143.77,332.06L148.98,329.81L148.45,316.13L153.26,314.62L156.65,318.20L158.67,316.25L160.88,297.83L173.31,281.48L181.07,286.78L182.73,301.17L189.03,309.75L198.05,314.36L203.66,321.19L201.56,330.11L208.90,346.41L214.77,352.56L227.89,359.46L234.21,371.25L235.19,374.12L232.60,381.18L232.98,385.61L227.62,391.74L219.39,393.32Z"><title>Azua</title></path>
<path data-code="DO-17" data-name="Peravia" d="M278.35,399.19L270.55,400.78L265.17,398.57L246.26,398.65L237.00,403.13L223.31,403.86L220.73,401.57L223.87,398.65L223.45,396.96L219.39,393.32L227.62,391.74L232.98,385.61L232.60,381.18L235.19,374.12L234.21,371.25L238.20,365.31L245.43,363.18L252.32,357.15L269.99,368.16L269.71,371.92L265.88,374.14L265.15,378.18L276.81,392.67L278.35,399.19Z"><title>Peravia</title></path>
<path data-code="DO-21" data-name="San Cristóbal" d="M304.41,370.59L299.25,374.48L295.00,384.38L278.35,399.19L276.81,392.67L265.15,378.18L265.88,374.14L269.71,371.92L269.99,368.16L252.32,357.15L249.03,347.45L250.51,329.69L253.28,323.35L258.74,323.45L262.83,313.06L267.89,310.62L272.90,316.74L280.30,321.55L280.42,328.54L284.42,335.02L282.42,342.33L284.00,347.85L295.21,363.42L301.87,363.44L304.41,370.59Z"><title>San Cristóbal</title></path>
<path data-code="DO-32" data-name="Santo Domingo" d="M307.83,369.18L304.41,370.59L301.87,363.44L295.21,363.42L286.73,352.83L282.42,342.33L284.42,335.02L280.42,328.54L280.30,321.55L284.46,323.06L287.17,327.95L303.71,332.39L309.98,329.47L311.05,326.65L321.52,326.29L330.92,335.97L336.04,346.50L342.86,339.33L357.45,333.63L362.47,332.54L367.76,334.58L365.07,339.01L366.70,338.73L367.09,346.54L361.67,354.59L367.52,360.87L376.20,362.62L374.74,371.70L361.63,364.36L360.63,370.76L357.23,371.19L349.73,364.51L322.83,362.20L323.06,357.56L313.36,357.42L309.74,351.97L305.78,354.20L305.39,358.66L308.67,363.54L307.83,369.18Z"><title>Santo Domingo</title></path>
<path data-code="DO-01" data-name="Distrito Nacional" d="M322.83,362.20L307.83,369.18L308.67,363.54L305.39,358.66L305.78,354.20L309.74,351.97L313.36,357.42L323.06,357.56L322.83,362.20Z"><title>Distrito Nacional</title></path>
<path data-code="DO-23" data-name="San Pedro de Macorís" d="M440.16,373.95L425.40,369.92L417.86,365.43L409.18,367.22L406.22,365.43L403.13,368.31L375.16,371.99L376.20,362.62L367.52,360.87L361.67,354.59L367.09,346.54L365.92,336.61L376.19,319.72L384.94,310.49L389.45,333.66L400.51,354.28L410.27,339.36L415.31,335.82L424.16,338.92L431.96,345.98L440.94,345.77L434.79,361.51L440.16,373.95Z"><title>San Pedro de Macorís</title></path>
<path data-code="DO-12" data-name="La Romana" d="M467.39,372.74L458.05,370.51L450.93,373.45L440.16,373.95L434.79,361.51L439.08,353.44L446.50,348.81L455.89,334.38L462.35,331.85L467.66,342.66L474.49,349.93L474.65,354.80L467.39,372.74Z"><title>La Romana</title></path>
<path data-code="DO-27" data-name="Valverde" d="M135.30,181.95L134.52,171.62L137.43,162.37L160.53,171.93L171.09,178.71L177.31,179.54L174.19,189.52L170.41,190.01L166.74,187.42L168.19,193.37L172.52,195.75L171.36,204.53L174.73,207.07L174.14,209.84L167.64,209.88L161.54,207.26L156.70,211.23L146.12,206.64L135.24,204.68L130.01,195.96L131.71,181.58L135.30,181.95Z"><title>Valverde</title></path>
<path data-code="DO-26" data-name="Santiago Rodríguez" d="M98.15,192.21L105.18,195.78L116.01,193.49L120.62,196.19L127.45,195.09L130.01,195.96L135.24,204.68L146.12,206.64L143.86,212.39L147.08,215.32L136.07,219.78L130.50,219.64L121.63,228.34L120.72,237.88L123.69,243.47L123.12,253.12L115.25,253.04L95.77,243.09L81.12,226.93L88.34,223.71L92.75,200.39L98.15,192.21Z"><title>Santiago Rodríguez</title></path>
<path data-code="DO-13" data-name="La Vega" d="M214.29,222.12L222.47,225.22L228.82,223.27L231.79,230.74L235.95,229.93L241.10,240.15L245.23,244.16L251.27,244.58L256.05,251.97L263.98,257.66L251.20,263.56L247.03,268.39L245.93,264.35L242.39,262.25L237.89,266.18L230.85,268.10L227.77,273.85L227.64,284.51L218.80,291.78L217.47,302.58L226.14,312.77L224.02,319.70L214.79,330.03L201.56,330.11L203.66,321.19L198.05,314.36L189.03,309.75L182.73,301.17L181.07,286.78L173.31,281.48L169.61,275.64L169.17,268.85L187.54,260.15L195.29,254.27L197.09,250.08L204.15,250.66L204.78,240.85L202.45,236.77L194.36,232.77L195.41,229.60L214.29,222.12Z"><title>La Vega</title></path>
<path data-code="DO-19" data-name="Hermanas" d="M262.40,192.51L270.04,201.78L267.98,210.76L257.56,217.35L251.40,237.94L251.27,244.58L245.23,244.16L241.10,240.15L235.95,229.93L239.14,220.80L239.65,201.61L244.58,195.50L249.70,197.69L251.45,201.86L262.40,192.51Z"><title>Hermanas</title></path>
<path data-code="DO-06" data-name="Duarte" d="M271.64,201.76L283.47,208.65L287.47,225.52L292.60,229.27L297.09,229.85L306.30,239.56L336.61,248.77L343.83,245.33L352.77,247.46L352.78,251.68L346.53,255.86L344.00,263.23L341.10,266.01L323.49,266.58L320.76,273.70L316.78,273.56L318.64,265.09L311.83,261.94L302.51,261.56L291.84,257.16L265.63,255.39L263.42,256.83L256.05,251.97L251.27,244.58L251.40,237.94L257.56,217.35L267.98,210.76L270.04,201.78L271.64,201.76Z"><title>Duarte</title></path>
<path data-code="DO-25" data-name="Santiago" d="M224.07,198.87L219.22,207.85L218.75,218.73L195.41,229.60L194.36,232.77L202.45,236.77L204.78,240.85L204.15,250.66L197.09,250.08L195.29,254.27L187.54,260.15L169.17,268.85L169.61,275.64L161.95,273.21L154.95,275.68L148.28,273.60L138.89,266.84L137.18,260.65L123.12,253.12L123.69,243.47L120.72,237.88L121.63,228.34L123.71,225.50L130.50,219.64L136.07,219.78L147.08,215.32L143.86,212.39L146.12,206.64L156.70,211.23L161.54,207.26L167.64,209.88L174.14,209.84L174.73,207.07L171.36,204.53L172.52,195.75L168.19,193.37L166.74,187.42L170.41,190.01L174.19,189.52L177.31,179.54L186.01,181.79L192.63,187.54L199.23,187.24L199.77,178.08L207.66,181.57L215.07,196.02L224.07,198.87Z"><title>Santiago</title></path>
<path data-code="DO-03" data-name="Bahoruco" d="M101.56,374.45L69.66,361.14L65.51,347.52L68.64,337.02L78.17,334.18L99.07,341.60L106.27,342.16L112.86,338.95L128.02,336.58L140.41,346.74L158.22,353.44L158.17,356.20L155.05,357.39L152.14,353.67L147.86,361.56L130.59,373.77L127.56,382.93L122.25,383.30L118.13,379.88L114.29,372.66L107.22,372.22L101.56,374.45Z"><title>Bahoruco</title></path>
<path data-code="DO-22" data-name="San Juan" d="M97.26,263.27L102.88,262.95L107.53,259.39L108.85,249.86L115.25,253.04L123.12,253.12L137.18,260.65L138.89,266.84L148.28,273.60L154.95,275.68L161.95,273.21L172.06,278.13L173.31,281.48L172.07,284.82L168.98,286.36L168.39,289.38L162.68,293.92L160.88,297.83L158.67,316.25L156.65,318.20L153.26,314.62L148.45,316.13L148.98,329.81L143.77,332.06L139.88,337.87L133.39,339.62L128.02,336.58L112.86,338.95L106.27,342.16L99.07,341.60L78.17,334.18L80.28,329.21L78.57,324.78L71.83,320.90L70.78,313.48L64.44,308.67L66.21,301.07L63.65,297.81L64.89,289.38L71.82,278.63L80.57,276.86L87.61,259.64L97.26,263.27Z"><title>San Juan</title></path>
<path data-code="DO-28" data-name="Monseñor Nouel" d="M247.03,268.39L250.75,279.93L254.50,281.74L258.62,288.84L268.07,295.66L271.93,302.34L268.89,305.74L267.89,310.62L262.83,313.06L258.74,323.45L253.28,323.35L245.56,319.10L238.29,320.78L226.14,312.77L217.47,302.58L218.80,291.78L227.64,284.51L227.77,273.85L230.85,268.10L237.89,266.18L242.39,262.25L245.93,264.35L247.03,268.39Z"><title>Monseñor Nouel</title></path>
<path data-code="DO-24" data-name="Sánchez Ramírez" d="M271.93,302.34L268.07,295.66L258.62,288.84L254.50,281.74L250.75,279.93L247.03,268.39L251.20,263.56L265.63,255.39L291.84,257.16L318.64,265.09L312.02,293.73L307.88,296.94L300.12,294.03L298.30,296.76L292.58,295.72L285.85,299.20L271.93,302.34Z"><title>Sánchez Ramírez</title></path>
<path data-code="DO-31" data-name="San José de Ocoa" d="M226.14,312.77L238.29,320.78L245.56,319.10L253.28,323.35L250.51,329.69L249.03,347.45L252.32,357.15L245.43,363.18L238.20,365.31L234.21,371.25L227.89,359.46L214.77,352.56L208.90,346.41L201.56,330.11L214.79,330.03L224.02,319.70L226.14,312.77Z"><title>San José de Ocoa</title></path>
<path data-code="DO-29" data-name="Monte Plata" d="M267.89,310.62L268.89,305.74L271.93,302.34L285.85,299.20L292.58,295.72L298.30,296.76L300.12,294.03L307.88,296.94L312.02,293.73L316.78,273.56L320.76,273.70L323.49,266.58L331.41,265.64L341.10,266.01L365.35,284.41L388.41,296.34L393.77,297.04L396.50,299.79L390.65,303.63L376.19,319.72L367.76,334.58L362.47,332.54L357.45,333.63L342.86,339.33L336.04,346.50L330.92,335.97L321.52,326.29L311.05,326.65L309.98,329.47L303.71,332.39L291.88,329.70L287.17,327.95L284.46,323.06L272.90,316.74L267.89,310.62Z"><title>Monte Plata</title></path>
  </g>
</svg>
