<?xml version="1.0" encoding="UTF-8"?>
<svg xmlns="http://www.w3.org/2000/svg" viewBox="0 0 560 640" class="pref-muni-svg" role="img" aria-label="行政区分">
  <g class="pref-muni-svg__paths" fill="#eaf2fb" stroke="#5b7fa8" stroke-width="0.6" stroke-linejoin="round">
<path data-code="EC-E" data-name="Esmeraldas" d="M213.26,16.72L218.78,20.50L228.68,32.49L234.56,32.78L237.58,39.16L240.35,38.26L246.23,39.98L244.58,41.46L244.72,48.10L241.29,55.57L240.90,60.97L241.96,64.33L249.62,69.64L248.81,77.44L242.91,80.18L251.30,96.53L251.10,99.13L249.00,100.68L244.42,100.67L240.48,103.22L228.42,116.60L223.52,113.79L210.31,111.90L198.31,126.52L196.14,126.53L193.36,123.93L183.50,121.80L176.27,121.99L164.01,129.89L168.58,135.39L162.35,148.31L154.78,151.78L157.57,154.83L156.40,156.41L150.77,154.10L141.13,152.97L138.97,147.42L143.73,140.73L138.45,137.21L136.01,137.98L135.10,135.13L132.98,135.65L131.10,134.05L135.80,127.30L130.15,123.12L131.72,119.03L129.65,116.80L126.34,116.94L120.52,121.33L113.46,121.70L109.72,127.20L105.53,124.94L103.13,119.22L103.71,116.11L98.99,108.50L99.00,104.53L101.49,99.10L99.66,92.85L94.59,90.32L93.21,87.73L93.93,78.26L98.74,72.67L104.84,73.38L116.05,69.22L125.13,61.81L135.46,57.25L134.12,64.96L139.31,72.15L136.16,66.30L137.63,58.90L139.31,57.96L143.36,59.12L156.22,50.24L162.84,50.77L171.54,48.84L173.80,50.03L181.55,48.20L191.76,37.12L195.91,39.45L197.92,46.32L200.70,43.97L201.41,38.08L203.83,34.71L206.39,35.35L209.21,30.39L214.74,31.49L208.25,27.54L212.91,21.70L213.26,16.72ZM206.39,22.38L206.62,32.04L205.37,34.51L203.12,33.42L201.20,35.35L197.57,30.60L206.39,22.38Z"><title>Esmeraldas</title></path>
<path data-code="EC-C" data-name="Carchi" d="M246.23,39.98L258.35,52.34L267.67,55.74L283.87,66.92L298.89,69.40L300.30,73.39L305.50,75.54L319.12,72.35L321.93,74.56L322.54,81.33L324.54,84.29L330.72,88.56L336.90,89.53L331.64,92.90L322.28,91.59L321.96,93.63L324.12,96.64L312.35,109.51L310.78,116.78L308.69,119.16L291.16,107.59L278.90,104.11L275.34,90.39L266.89,78.72L257.31,71.44L250.89,70.26L241.96,64.33L241.29,55.57L244.72,48.10L244.58,41.46L246.23,39.98Z"><title>Carchi</title></path>
<path data-code="EC-U" data-name="Sucumbios" d="M337.35,89.47L341.23,90.44L344.37,110.87L347.87,115.21L365.79,120.24L374.21,118.04L377.47,118.86L381.06,122.93L390.35,124.68L396.31,129.09L404.27,128.17L410.25,129.75L410.01,126.01L411.17,125.57L420.36,127.36L426.13,131.36L439.28,128.85L440.94,127.74L440.15,113.87L444.95,113.40L451.05,108.25L458.27,113.41L466.50,114.36L468.07,118.59L474.29,117.48L483.83,132.50L496.45,142.27L502.47,144.82L514.42,144.27L529.65,155.43L546.71,161.76L542.27,165.30L535.51,165.41L532.98,167.09L522.65,162.99L514.78,161.72L512.88,163.81L515.10,168.72L518.92,168.88L527.78,175.00L530.79,185.63L535.22,193.32L540.70,196.01L546.01,201.38L547.79,201.16L549.20,204.58L549.14,211.28L546.84,212.25L546.12,209.88L537.37,208.32L535.47,204.91L522.36,202.73L519.34,198.29L518.02,198.74L511.83,194.51L507.57,195.37L502.99,191.46L495.15,192.78L489.95,190.60L484.24,191.49L485.22,204.55L479.84,203.76L471.98,198.90L469.64,193.28L453.51,193.39L440.73,199.71L439.12,197.40L432.08,196.27L425.16,189.81L420.83,191.67L412.15,183.87L407.12,175.47L393.01,159.09L390.39,157.87L378.34,161.30L371.41,159.51L366.69,160.22L358.55,156.15L352.34,164.08L350.06,164.97L343.27,163.44L343.50,157.38L341.53,153.90L329.86,161.11L324.98,159.32L313.88,158.75L312.00,156.10L311.99,150.20L305.76,148.31L304.00,144.71L293.98,140.42L306.67,126.36L305.08,124.15L310.78,116.78L311.54,110.78L324.12,96.64L321.96,93.63L322.28,91.59L331.64,92.90L337.35,89.47Z"><title>Sucumbios</title></path>
<path data-code="EC-D" data-name="Orellana" d="M548.30,212.17L545.72,214.55L545.44,221.99L549.67,239.53L552.00,242.95L540.58,243.44L535.15,237.81L534.57,238.64L518.75,297.24L516.72,292.49L507.25,287.73L505.88,288.68L503.06,283.94L495.02,281.93L493.97,279.42L490.58,278.06L490.75,276.70L488.76,278.48L484.00,278.22L478.86,274.98L474.01,274.14L473.34,271.78L469.35,271.49L464.68,273.38L456.25,272.35L452.59,275.07L445.61,272.44L445.20,270.51L435.71,269.45L431.23,263.47L430.87,253.74L428.02,250.65L423.38,250.16L407.74,255.01L403.06,254.23L399.37,260.55L379.97,254.60L378.26,249.52L381.23,244.66L379.44,242.38L381.86,238.76L374.54,236.78L367.68,232.66L366.79,230.34L368.64,225.74L374.10,220.42L373.58,218.31L369.76,219.71L365.55,223.65L361.27,230.16L338.30,240.65L332.01,240.82L330.80,239.34L335.55,230.85L335.10,225.17L338.55,216.75L331.15,205.99L326.78,202.96L331.98,198.34L333.38,194.79L343.12,199.48L347.26,199.13L351.72,191.75L354.31,191.60L354.86,188.15L359.56,185.61L361.33,179.44L360.81,174.87L357.24,169.60L357.10,157.20L358.55,156.15L366.69,160.22L371.41,159.51L378.34,161.30L391.68,158.24L407.12,175.47L412.15,183.87L420.83,191.67L425.16,189.81L432.08,196.27L439.12,197.40L440.73,199.71L453.51,193.39L469.64,193.28L471.98,198.90L479.84,203.76L485.22,204.55L484.24,191.49L489.95,190.60L495.15,192.78L502.99,191.46L507.57,195.37L511.83,194.51L518.02,198.74L519.34,198.29L522.36,202.73L535.47,204.91L537.37,208.32L546.12,209.88L546.56,212.05L548.30,212.17Z"><title>Orellana</title></path>
<path data-code="EC-Y" data-name="Pastaza" d="M518.75,297.24L470.74,352.03L420.51,390.50L411.04,394.20L401.12,389.77L392.95,390.75L389.11,389.61L383.65,384.81L382.00,380.37L373.68,369.42L349.12,354.42L318.42,342.01L314.42,335.27L306.41,331.69L299.28,308.67L296.04,307.49L290.36,308.67L283.82,293.42L279.04,288.73L274.97,287.86L280.21,279.46L280.24,267.75L296.66,266.86L300.87,268.11L302.29,265.94L307.09,266.67L319.83,260.07L333.80,258.57L343.35,254.01L350.17,253.26L363.27,248.10L380.40,246.77L378.26,249.52L379.97,254.60L397.68,260.61L399.37,260.55L403.06,254.23L407.74,255.01L423.38,250.16L428.02,250.65L430.87,253.74L431.23,263.47L435.71,269.45L445.20,270.51L445.61,272.44L452.59,275.07L456.25,272.35L464.68,273.38L469.35,271.49L473.34,271.78L474.01,274.14L478.86,274.98L484.00,278.22L488.76,278.48L490.75,276.70L490.58,278.06L493.97,279.42L495.02,281.93L503.06,283.94L505.88,288.68L507.25,287.73L516.72,292.49L518.75,297.24Z"><title>Pastaza</title></path>
<path data-code="EC-S" data-name="Morona Santiago" d="M416.33,393.03L303.63,433.09L296.71,439.14L287.20,451.88L281.33,457.10L277.26,464.35L272.73,468.23L276.67,476.99L275.80,478.92L269.91,481.72L267.01,472.55L259.79,470.19L257.18,472.45L257.78,475.93L255.85,483.82L230.51,484.76L226.83,488.52L213.87,485.48L209.93,480.80L209.03,476.31L211.31,470.63L202.88,464.38L203.01,461.09L228.03,442.55L229.49,434.80L237.59,418.87L234.89,413.86L237.93,407.73L251.56,398.91L250.96,396.50L246.79,393.38L243.21,394.97L241.69,398.51L239.44,397.54L239.55,392.88L241.53,392.81L245.09,387.51L245.94,375.72L236.66,369.22L239.97,366.90L241.33,362.52L244.38,359.71L244.12,351.86L249.27,346.98L245.15,336.59L252.11,326.19L249.03,316.91L249.10,312.23L257.40,304.30L257.05,296.76L262.37,291.40L270.64,291.16L274.97,287.86L279.04,288.73L284.64,294.80L290.36,308.67L296.04,307.49L299.28,308.67L307.24,332.83L314.42,335.27L318.42,342.01L349.12,354.42L373.68,369.42L385.93,387.52L392.95,390.75L401.12,389.77L411.04,394.20L416.33,393.03Z"><title>Morona Santiago</title></path>
<path data-code="EC-Z" data-name="Zamora Chinchipe" d="M255.85,483.82L253.35,489.94L253.51,497.98L251.15,498.88L251.73,508.44L245.99,513.95L244.39,523.36L238.33,526.20L236.96,537.53L227.01,558.87L227.88,565.90L231.27,569.06L228.20,574.54L227.08,581.48L210.96,589.49L206.68,593.44L203.86,598.45L206.53,607.50L205.53,609.37L198.99,610.35L196.27,618.46L191.13,623.28L187.34,620.34L168.62,618.57L165.06,613.20L161.58,611.37L159.96,607.87L154.76,604.35L153.80,600.61L165.95,585.34L167.20,576.42L169.72,573.49L172.08,573.06L177.85,575.44L182.46,572.30L186.46,566.50L187.49,547.50L182.58,541.17L184.36,531.13L184.01,523.15L185.93,517.11L178.94,502.80L182.76,500.83L183.60,497.69L187.52,493.86L190.98,492.29L192.79,478.68L191.96,472.80L202.88,464.38L211.31,470.63L209.03,476.31L209.93,480.80L213.87,485.48L226.83,488.52L230.51,484.76L255.85,483.82Z"><title>Zamora Chinchipe</title></path>
<path data-code="EC-L" data-name="Loja" d="M72.47,529.56L78.71,522.81L86.04,519.44L87.56,516.88L101.80,515.16L109.21,512.07L127.41,512.38L140.12,504.76L144.49,508.80L155.16,509.77L158.08,508.66L159.86,506.05L159.28,501.93L162.68,495.48L161.43,492.38L156.89,489.47L151.43,493.14L153.15,482.16L157.38,476.29L154.19,473.13L154.09,464.87L167.24,466.64L170.65,476.34L174.89,477.37L179.75,475.60L184.87,484.59L185.81,491.50L187.52,493.86L183.60,497.69L182.76,500.83L178.94,502.80L185.93,517.11L184.01,523.15L184.36,531.13L182.58,541.17L187.49,547.50L186.46,566.50L182.46,572.30L177.85,575.44L172.08,573.06L169.72,573.49L167.20,576.42L165.95,585.34L153.80,600.61L147.49,586.27L149.43,578.13L144.68,576.72L135.25,569.40L122.30,573.73L118.80,573.18L112.10,565.62L104.78,564.68L95.59,557.19L89.89,554.75L83.80,556.17L79.06,564.50L67.07,572.93L58.88,570.09L57.13,565.37L70.61,546.78L58.91,548.17L54.91,534.15L57.83,527.99L60.97,526.49L64.79,526.46L72.47,529.56Z"><title>Loja</title></path>
<path data-code="EC-O" data-name="El Oro" d="M87.56,516.88L85.33,514.72L81.80,504.52L82.73,493.44L81.92,489.70L79.57,488.37L80.48,482.38L77.53,479.69L78.10,474.13L71.03,471.03L71.00,468.69L74.22,464.19L73.52,469.39L76.14,464.19L78.71,466.76L90.33,464.83L97.45,453.21L99.56,453.60L99.33,460.34L100.34,459.75L107.49,452.58L109.35,444.87L112.88,438.28L125.61,440.09L137.08,446.13L140.67,449.22L141.21,453.24L137.68,461.38L134.33,464.10L139.31,465.05L149.37,463.46L154.09,464.87L154.19,473.13L157.38,476.29L153.15,482.16L151.27,492.23L151.87,493.79L156.89,489.47L162.05,493.14L162.49,496.97L159.28,501.93L158.81,507.92L155.16,509.77L144.49,508.80L140.12,504.76L127.41,512.38L109.21,512.07L101.80,515.16L87.56,516.88Z"><title>El Oro</title></path>
<path data-code="EC-G" data-name="Guayas" d="M97.45,402.27L101.72,402.41L112.22,407.42L111.81,408.82L103.54,415.00L90.76,435.97L83.92,437.21L78.07,435.74L78.42,419.03L83.27,408.11L97.45,402.27ZM112.88,438.28L114.85,434.52L114.26,430.75L118.64,415.83L124.11,401.96L128.81,395.78L127.07,386.03L122.88,385.17L118.18,375.38L118.15,359.62L115.44,355.04L116.07,350.06L120.17,347.41L125.13,340.37L118.94,344.00L118.64,346.49L114.90,346.99L113.25,350.81L112.32,357.29L115.97,367.86L114.50,386.19L112.86,391.04L109.36,394.50L103.23,397.13L97.10,394.22L96.60,392.67L100.67,389.31L102.92,385.09L105.45,384.81L108.37,386.79L109.70,385.46L109.07,383.47L108.65,385.45L105.16,382.88L99.85,384.50L102.24,373.67L105.16,372.59L107.78,368.81L101.89,370.62L95.93,382.97L86.61,395.11L81.28,399.06L77.69,396.84L76.78,397.55L76.78,400.99L80.11,405.72L79.05,408.62L76.89,408.33L59.07,398.05L52.03,389.75L64.45,379.11L77.07,374.52L81.26,368.11L83.01,350.28L75.96,341.53L58.10,333.42L54.54,324.92L61.93,324.44L65.83,316.02L72.11,310.46L74.89,311.45L82.28,309.85L81.83,304.04L77.88,301.81L76.44,299.21L82.20,298.44L85.38,296.29L84.12,291.03L85.03,286.37L90.77,283.23L91.39,277.22L99.01,271.37L104.61,256.94L105.42,258.80L108.94,259.24L116.90,254.11L130.15,233.77L146.74,230.50L148.51,232.66L147.03,241.99L144.31,244.55L142.50,250.56L133.77,256.55L132.58,259.60L127.70,263.19L126.77,267.93L117.44,283.36L115.26,294.64L116.28,305.43L125.76,311.36L136.05,331.11L147.89,329.09L151.77,330.25L162.06,337.09L170.25,350.03L174.99,354.42L181.00,355.14L183.98,353.69L184.91,359.07L179.08,365.02L163.97,368.44L157.98,372.64L157.15,379.59L148.77,386.50L151.08,388.63L156.00,386.68L157.72,391.24L132.19,417.60L130.96,422.24L131.79,429.97L126.71,436.23L125.61,440.09L112.88,438.28ZM120.05,385.63L124.47,390.90L119.20,395.61L118.77,399.75L114.63,401.04L114.20,398.90L120.05,385.63Z"><title>Guayas</title></path>
<path data-code="EC-SE" data-name="Santa Elena" d="M52.03,389.75L41.32,379.03L27.51,375.17L21.82,370.89L17.15,369.90L15.16,364.45L8.00,356.53L8.91,355.38L13.79,357.42L15.49,360.35L17.83,360.25L29.65,353.34L33.01,349.58L33.72,343.99L31.36,337.44L34.12,335.55L34.14,330.86L29.52,315.15L26.13,309.50L44.31,307.52L50.05,308.60L52.31,314.25L50.27,322.68L54.54,324.92L58.10,333.42L75.96,341.53L83.01,350.28L81.26,368.11L77.07,374.52L64.45,379.11L52.03,389.75Z"><title>Santa Elena</title></path>
<path data-code="EC-M" data-name="Manabi" d="M26.13,309.50L22.61,301.16L26.29,297.77L25.90,292.84L30.58,290.76L31.20,282.58L33.23,280.44L33.08,278.15L20.11,259.51L16.91,251.96L17.53,250.02L26.30,240.75L35.15,239.31L38.10,241.05L41.66,238.56L45.11,240.28L49.48,237.54L51.61,235.30L56.28,216.85L60.85,208.72L63.39,208.12L64.91,212.49L67.45,213.60L74.96,214.01L74.96,212.89L66.24,210.55L61.97,204.16L60.56,196.55L56.39,187.58L62.38,183.61L68.17,172.66L70.19,171.95L72.64,167.99L74.36,169.51L81.28,164.84L92.93,151.03L93.79,148.00L96.83,146.78L99.61,135.13L98.52,121.74L99.65,118.09L101.89,121.15L103.13,119.22L106.73,126.65L109.34,127.25L113.46,121.70L120.52,121.33L126.34,116.94L129.65,116.80L131.72,119.03L130.15,123.12L135.80,127.30L131.10,134.05L132.98,135.65L135.10,135.13L136.01,137.98L138.45,137.21L143.73,140.73L138.92,147.73L141.13,152.97L140.02,155.53L140.82,158.45L150.42,166.92L158.44,169.39L158.55,189.17L154.90,195.20L146.72,216.72L142.71,219.74L138.86,231.70L129.20,234.62L118.00,252.84L112.08,258.01L105.93,258.95L105.22,256.59L103.73,257.92L99.01,271.37L91.39,277.22L90.77,283.23L85.03,286.37L84.12,291.03L85.38,296.29L82.20,298.44L76.44,299.21L77.88,301.81L81.83,304.04L82.28,309.85L74.89,311.45L72.11,310.46L65.83,316.02L61.93,324.44L54.54,324.92L51.09,323.72L50.14,320.89L52.31,314.25L48.77,307.88L26.13,309.50Z"><title>Manabi</title></path>
<path data-code="EC-A" data-name="Azuay" d="M156.00,386.68L160.64,387.68L164.29,393.54L169.49,395.23L181.75,408.75L183.73,408.46L184.17,406.08L189.74,401.15L191.45,401.47L201.75,411.62L205.12,417.30L214.43,417.30L217.44,405.74L222.95,404.93L231.19,400.51L233.76,396.11L238.11,392.75L239.55,392.88L239.09,396.58L241.04,398.61L245.99,393.36L251.57,398.10L250.12,400.62L238.74,406.71L235.00,413.22L237.59,418.87L229.49,434.80L228.03,442.55L203.01,461.09L202.88,464.38L191.96,472.80L192.42,485.96L190.98,492.29L189.18,493.60L187.52,493.86L185.81,491.50L185.54,486.42L180.33,476.18L174.89,477.37L170.65,476.34L167.24,466.64L156.45,465.82L149.37,463.46L139.31,465.05L134.33,464.10L138.18,460.51L141.16,450.47L137.08,446.13L125.61,440.09L126.71,436.23L131.79,429.97L130.96,422.24L132.19,417.60L157.18,392.16L157.90,390.17L156.00,386.68Z"><title>Azuay</title></path>
<path data-code="EC-F" data-name="Cañar" d="M182.76,409.07L169.49,395.23L164.29,393.54L160.64,387.68L156.00,386.68L151.08,388.63L148.90,387.78L148.77,386.50L157.15,379.59L157.10,373.85L162.83,368.94L179.08,365.02L184.91,359.07L186.16,362.96L194.47,372.38L202.31,377.29L210.08,376.60L219.52,370.57L234.88,368.37L245.94,375.72L245.09,387.51L242.51,391.63L234.71,395.10L231.19,400.51L222.95,404.93L218.23,405.01L214.43,417.30L203.73,416.79L201.75,411.62L190.37,401.06L184.69,405.49L182.76,409.07Z"><title>Cañar</title></path>
<path data-code="EC-N" data-name="Napo" d="M254.38,242.37L260.00,251.43L258.74,261.25L263.74,258.99L270.36,258.97L274.67,263.13L279.94,264.68L280.46,278.03L277.26,285.73L272.23,290.45L262.37,291.40L257.96,295.33L256.50,292.21L246.04,287.26L242.72,290.98L232.91,291.89L225.49,290.79L215.96,285.73L208.36,289.01L203.96,281.85L209.72,262.58L219.07,258.20L229.01,258.83L237.11,255.47L239.16,251.53L247.20,253.37L250.34,249.98L251.70,244.68L254.38,242.37Z"><title>Napo</title></path>
<path data-code="EC-T" data-name="Tungurahua" d="M259.35,261.26L259.62,250.05L254.38,242.37L249.67,239.97L254.73,228.27L253.10,218.53L253.88,216.09L260.19,213.84L261.96,208.01L266.53,201.70L268.86,194.31L268.09,189.33L273.57,179.59L274.53,168.71L279.27,167.63L282.25,169.05L285.85,164.18L289.96,164.49L293.05,161.15L294.54,156.19L304.65,151.56L306.94,148.69L311.99,150.20L312.63,157.92L315.63,159.07L324.98,159.32L329.86,161.11L341.53,153.90L343.50,157.38L343.27,163.44L348.48,164.81L352.34,164.08L357.10,157.20L357.24,169.60L361.02,175.52L361.32,180.81L359.56,185.61L354.86,188.15L354.31,191.60L351.72,191.75L347.26,199.13L343.12,199.48L333.38,194.79L331.98,198.34L326.93,202.19L327.06,203.72L331.15,205.99L337.32,213.40L338.55,216.75L335.10,225.17L335.55,230.85L330.79,240.15L338.30,240.65L361.27,230.16L365.55,223.65L369.76,219.71L373.58,218.31L374.10,220.42L367.60,227.29L367.16,231.89L374.54,236.78L381.86,238.76L379.44,242.38L381.23,244.66L380.40,246.77L363.27,248.10L350.17,253.26L343.35,254.01L333.80,258.57L319.83,260.07L307.09,266.67L302.29,265.94L300.87,268.11L296.66,266.86L280.24,267.75L279.27,264.06L274.67,263.13L270.36,258.97L263.74,258.99L259.35,261.26Z"><title>Tungurahua</title></path>
<path data-code="EC-H" data-name="Chimborazo" d="M204.45,377.58L194.47,372.38L186.16,362.96L184.91,359.07L189.96,356.38L195.60,349.20L194.74,344.31L197.18,332.21L196.98,319.37L199.47,317.36L204.13,316.57L210.33,308.27L211.00,296.70L208.36,289.01L215.96,285.73L225.49,290.79L232.91,291.89L242.72,290.98L246.04,287.26L256.50,292.21L257.96,295.33L256.84,297.54L257.75,303.47L248.86,313.30L252.11,326.19L245.15,336.59L249.27,346.98L244.12,351.86L244.38,359.71L241.33,362.52L239.97,366.90L236.66,369.22L234.88,368.37L219.52,370.57L210.08,376.60L204.45,377.58Z"><title>Chimborazo</title></path>
<path data-code="EC-B" data-name="Bolivar" d="M209.72,262.58L203.96,281.85L211.00,296.70L210.33,308.27L204.13,316.57L199.47,317.36L196.98,319.37L197.18,332.21L194.74,344.31L195.60,349.20L189.96,356.38L184.91,359.07L183.98,353.69L181.00,355.14L174.99,354.42L177.81,346.02L170.85,334.71L172.83,332.66L175.56,323.24L173.43,318.72L173.59,315.07L168.99,307.87L164.80,305.87L169.64,300.87L172.08,300.92L173.62,296.70L167.18,289.84L167.14,279.60L169.66,277.27L165.41,273.19L161.60,276.47L160.84,274.56L166.31,266.99L184.18,260.50L189.42,260.37L198.00,265.49L201.73,264.94L205.90,261.94L209.72,262.58Z"><title>Bolivar</title></path>
<path data-code="EC-I" data-name="Imbabura" d="M308.69,119.16L305.08,124.15L306.67,126.36L296.34,136.51L283.89,133.08L272.18,139.01L267.23,138.31L261.07,133.95L256.83,136.01L257.27,131.20L254.83,128.89L231.84,131.46L218.01,129.17L201.69,131.81L197.72,130.15L196.14,126.53L198.76,126.19L206.32,115.30L210.31,111.90L223.52,113.79L228.42,116.60L240.48,103.22L244.42,100.67L250.64,99.81L251.30,96.53L242.91,80.18L248.81,77.44L249.62,69.64L257.31,71.44L266.89,78.72L275.34,90.39L278.90,104.11L291.16,107.59L308.69,119.16Z"><title>Imbabura</title></path>
<path data-code="EC-X" data-name="Cotopaxi" d="M253.88,216.09L254.41,230.06L249.67,239.97L254.38,242.37L251.70,244.68L248.36,252.83L244.88,253.54L239.16,251.53L237.11,255.47L229.01,258.83L217.27,258.58L209.72,262.58L205.90,261.94L200.11,265.43L195.75,264.87L189.42,260.37L186.85,260.13L175.08,264.58L170.74,264.86L166.76,257.18L169.80,237.70L180.15,225.61L188.98,203.63L192.70,206.75L198.01,201.72L194.10,196.45L196.89,191.09L203.99,184.35L209.39,191.72L213.18,200.22L220.47,205.55L224.04,213.11L233.07,208.79L235.72,210.19L239.24,208.48L245.13,208.56L253.88,216.09Z"><title>Cotopaxi</title></path>
<path data-code="EC-R" data-name="Los Rios" d="M170.74,264.86L166.31,266.99L160.61,275.73L162.37,276.11L165.41,273.19L169.66,277.27L167.14,279.60L167.18,289.84L173.62,296.70L172.08,300.92L169.64,300.87L164.80,305.87L168.99,307.87L173.59,315.07L173.43,318.72L175.56,323.24L172.83,332.66L170.85,334.71L177.81,346.02L174.99,354.42L170.25,350.03L162.06,337.09L151.77,330.25L147.89,329.09L136.05,331.11L125.76,311.36L116.05,304.53L116.66,299.76L115.26,294.64L117.44,283.36L126.77,267.93L127.41,263.59L132.58,259.60L133.77,256.55L142.50,250.56L144.31,244.55L147.03,241.99L147.94,231.24L138.86,231.70L141.97,221.35L146.44,217.26L152.00,202.86L164.97,203.85L163.54,206.01L164.48,210.24L163.22,213.40L164.15,215.92L167.40,217.18L169.89,216.81L177.82,210.91L184.77,203.97L188.98,203.63L181.53,223.11L170.65,236.33L168.57,240.99L166.76,257.18L170.74,264.86Z"><title>Los Rios</title></path>
<path data-code="EC-P" data-name="Pichincha" d="M306.94,148.69L304.65,151.56L294.54,156.19L293.05,161.15L289.96,164.49L285.85,164.18L282.25,169.05L278.53,167.63L273.97,169.36L272.94,181.80L268.09,189.33L268.86,194.31L266.53,201.70L261.96,208.01L260.19,213.84L253.88,216.09L247.74,209.60L241.63,208.35L235.72,210.19L233.07,208.79L224.65,213.41L220.47,205.55L213.18,200.22L204.52,184.17L207.38,179.70L219.30,178.51L221.09,171.95L216.32,166.58L204.40,158.82L187.70,159.42L187.11,151.66L168.03,151.07L162.92,147.28L168.58,135.39L164.01,129.89L176.27,121.99L178.79,121.68L193.36,123.93L197.72,130.15L201.69,131.81L218.01,129.17L231.84,131.46L254.83,128.89L257.27,131.20L256.83,136.01L261.07,133.95L269.87,139.15L274.74,138.45L283.89,133.08L296.34,136.51L293.98,140.84L304.00,144.71L306.94,148.69Z"><title>Pichincha</title></path>
<path data-code="EC-SD" data-name="Santo Domingo de los Tsáchilas" d="M204.52,184.17L196.89,191.09L194.10,196.45L198.01,201.72L195.26,203.09L193.66,206.35L191.32,206.51L188.98,203.63L186.28,203.15L169.89,216.81L165.09,216.53L163.22,213.40L164.48,210.24L163.54,206.01L164.97,203.85L152.00,202.86L158.87,187.77L158.44,169.39L150.42,166.92L140.82,158.45L140.38,153.81L143.04,152.85L150.77,154.10L156.40,156.41L157.57,154.83L154.78,151.78L161.07,149.58L162.92,147.28L168.03,151.07L187.11,151.66L187.70,159.42L204.40,158.82L216.32,166.58L221.09,171.95L219.30,178.51L207.38,179.70L204.52,184.17Z"><title>Santo Domingo de los Tsáchilas</title></path>
  </g>
</svg>
