<?xml version="1.0" encoding="UTF-8"?>
<svg xmlns="http://www.w3.org/2000/svg" viewBox="0 0 560 640" class="pref-muni-svg" role="img" aria-label="行政区分">
  <g class="pref-muni-svg__paths" fill="#eaf2fb" stroke="#5b7fa8" stroke-width="0.6" stroke-linejoin="round">
<path data-code="EE-84" data-name="Viljandi" d="M307.76,412.26L304.84,406.70L301.75,405.14L300.56,409.07L303.54,416.15L297.75,419.89L293.49,407.83L291.27,406.31L282.18,409.50L280.18,402.52L284.35,396.88L288.81,396.78L286.92,392.51L291.32,390.49L290.95,386.41L292.23,384.33L298.87,384.56L299.04,375.96L300.55,374.15L289.52,364.48L281.04,362.49L278.37,365.16L275.34,362.23L277.28,347.95L279.76,346.03L278.74,336.29L299.05,320.88L299.08,314.61L316.67,316.66L345.73,304.16L346.97,313.08L343.46,317.75L357.67,319.48L362.12,325.58L365.90,326.01L370.32,333.10L376.07,337.86L378.98,348.44L368.12,368.19L370.93,396.50L358.81,399.59L352.25,392.64L349.65,396.67L348.96,401.27L337.26,410.25L331.52,411.50L331.34,415.83L326.44,425.72L313.15,413.67L307.76,412.26Z"><title>Viljandi</title></path>
<path data-code="EE-67" data-name="Pärnu" d="M282.18,409.50L274.85,416.43L268.28,417.41L263.51,421.32L256.38,418.76L252.21,426.10L239.28,426.51L231.39,432.58L225.96,440.58L219.79,439.14L227.68,413.66L233.31,405.63L234.07,392.06L232.52,385.21L233.90,376.26L240.54,369.95L241.56,366.17L240.76,362.65L231.61,354.04L224.56,352.21L220.63,355.06L218.14,365.15L214.41,371.45L206.94,372.00L203.93,377.20L201.63,377.28L191.89,365.17L179.33,359.33L171.40,361.12L169.52,351.84L165.96,345.98L166.09,331.37L158.12,328.08L185.25,326.20L182.04,321.18L181.71,313.31L186.39,314.76L189.61,311.28L190.54,306.92L195.47,307.24L204.99,302.24L224.70,307.35L230.36,305.49L235.75,297.75L240.81,296.93L241.01,299.45L243.10,300.56L249.61,298.53L252.70,294.06L268.93,294.81L270.42,296.60L272.02,307.02L284.57,297.85L303.45,300.24L304.25,302.13L301.33,313.44L298.46,315.69L299.05,320.88L281.94,332.77L278.13,337.65L279.76,346.03L276.88,349.94L275.34,362.23L276.36,364.30L281.04,362.49L289.52,364.48L300.55,374.15L299.04,375.96L298.87,384.56L292.23,384.33L290.95,386.41L291.32,390.49L286.92,392.51L288.81,396.78L284.35,396.88L280.18,402.52L282.18,409.50ZM188.73,398.89L188.27,394.93L189.76,392.54L194.72,392.26L195.48,396.15L193.79,399.65L191.07,401.12L188.73,398.89Z"><title>Pärnu</title></path>
<path data-code="EE-82" data-name="Valga" d="M332.71,432.22L328.80,430.71L326.44,425.72L331.34,415.83L331.52,411.50L337.26,410.25L348.96,401.27L349.65,396.67L352.25,392.64L358.81,399.59L370.93,396.50L385.27,397.68L397.22,388.67L400.67,392.95L409.28,389.95L415.75,397.21L412.26,404.95L411.06,424.77L398.40,427.30L396.05,435.95L399.29,439.76L398.45,448.85L403.86,452.94L401.48,458.60L404.93,466.67L401.24,472.30L404.32,476.42L401.21,481.15L401.68,489.48L390.25,483.34L379.23,466.11L366.93,454.55L366.05,443.31L347.05,441.14L341.72,430.11L332.71,432.22Z"><title>Valga</title></path>
<path data-code="EE-86" data-name="Võru" d="M407.58,497.03L401.68,489.48L401.21,481.15L404.32,476.42L401.24,472.30L404.93,466.67L401.48,459.51L403.86,452.94L398.45,448.85L399.29,439.76L396.05,437.37L398.40,427.30L411.06,424.77L430.47,428.95L444.26,427.26L453.77,430.98L454.03,426.44L458.55,424.53L470.23,431.87L474.47,431.04L476.02,435.20L471.76,441.62L475.97,445.16L484.17,443.05L498.05,448.19L495.33,449.14L497.84,451.20L493.44,454.85L493.89,464.34L483.35,470.98L483.37,482.05L478.50,485.97L480.64,495.09L477.81,496.98L457.73,491.51L448.80,481.72L439.52,478.73L432.94,487.91L421.91,488.97L415.33,496.28L411.23,495.00L407.58,497.03Z"><title>Võru</title></path>
<path data-code="EE-44" data-name="Ida-Viru" d="M537.67,174.04L545.01,181.03L547.83,187.42L552.00,191.59L551.60,194.69L549.52,193.38L536.09,198.36L544.33,200.71L542.59,203.04L532.59,202.84L525.96,207.90L526.68,210.80L522.54,226.71L511.49,254.52L491.33,273.66L488.63,282.95L443.99,275.02L437.30,270.82L429.17,272.64L427.14,262.77L424.99,260.44L431.31,256.40L434.20,249.89L433.43,234.81L445.40,228.57L444.43,225.96L445.18,221.21L438.49,217.09L437.02,211.27L431.13,213.20L428.30,210.31L433.21,197.26L425.47,193.94L428.58,190.91L429.03,186.23L432.82,186.71L430.36,174.35L431.66,170.63L445.09,179.24L485.44,178.95L525.19,186.22L532.05,182.85L537.67,174.04Z"><title>Ida-Viru</title></path>
<path data-code="EE-65" data-name="Põlva" d="M494.90,385.53L504.40,402.98L504.49,416.80L507.70,418.80L508.23,422.77L507.35,430.89L516.72,435.44L518.85,440.31L517.78,442.52L498.05,448.19L484.17,443.05L477.93,445.52L471.76,441.62L476.02,435.20L474.47,431.04L470.23,431.87L458.55,424.53L454.03,426.44L453.77,430.98L444.26,427.26L430.47,428.95L411.06,424.77L412.26,404.95L414.04,399.11L419.48,393.89L419.27,388.81L424.60,386.25L426.46,388.26L434.35,386.47L439.81,377.65L450.16,379.24L453.33,374.30L458.37,376.41L461.42,374.20L471.29,376.10L474.87,381.93L494.90,385.53Z"><title>Põlva</title></path>
<path data-code="EE-78" data-name="Tartu" d="M487.14,300.93L497.93,352.55L492.72,364.98L491.76,373.35L494.90,385.53L474.87,381.93L471.29,376.10L453.33,374.30L450.16,379.24L439.81,377.65L434.35,386.47L426.46,388.26L424.60,386.25L419.27,388.81L419.48,393.89L415.75,397.21L409.28,389.95L400.67,392.95L397.22,388.67L385.27,397.68L370.93,396.50L368.12,368.19L378.96,349.66L376.07,337.86L383.45,336.42L394.12,329.52L397.30,332.36L400.09,329.72L408.32,328.62L417.66,331.72L421.69,325.07L426.52,327.14L434.31,325.24L438.61,313.46L451.58,318.52L451.59,311.19L458.21,306.40L487.14,300.93Z"><title>Tartu</title></path>
<path data-code="EE-49" data-name="Jõgeva" d="M488.63,282.95L485.57,293.46L487.14,300.93L458.21,306.40L451.59,311.19L451.58,318.52L438.61,313.46L434.31,325.24L426.52,327.14L421.69,325.07L417.66,331.72L408.32,328.62L400.09,329.72L397.30,332.36L394.12,329.52L383.45,336.42L376.07,337.86L370.32,333.10L365.90,326.01L362.12,325.58L358.73,320.15L343.33,316.75L346.97,313.08L345.73,304.16L350.75,294.71L361.00,290.41L362.82,283.32L374.55,280.25L374.78,274.86L377.96,271.73L390.03,266.98L399.94,272.00L403.49,270.43L403.93,266.31L408.04,263.25L412.61,264.45L424.99,260.44L427.14,262.77L429.17,272.64L437.30,270.82L443.99,275.02L488.63,282.95Z"><title>Jõgeva</title></path>
<path data-code="EE-57" data-name="Lääne" d="M158.12,328.08L156.01,321.67L152.17,326.36L150.61,323.47L152.33,318.29L150.58,303.04L154.77,300.90L153.34,298.73L153.60,294.68L158.01,296.25L167.64,294.07L176.67,297.44L175.21,289.67L182.82,290.70L175.10,285.89L172.83,288.46L171.28,286.38L159.62,286.90L144.73,291.83L147.91,285.93L153.01,282.80L147.66,275.51L144.13,268.19L144.10,264.91L145.95,262.39L158.01,260.82L161.71,256.62L161.18,250.67L155.89,244.52L160.57,251.33L157.65,252.36L155.31,257.97L147.46,254.44L142.93,248.99L145.32,248.99L145.20,243.97L149.98,238.69L152.33,241.15L152.43,232.66L148.28,218.34L152.97,215.34L157.49,216.01L164.67,210.76L173.62,219.30L176.11,224.28L185.72,231.61L195.45,230.69L203.43,235.63L204.04,240.44L206.23,243.65L201.50,251.52L202.53,255.71L200.83,258.96L209.50,279.97L205.77,282.80L207.34,286.98L199.59,294.08L206.53,296.14L204.99,302.24L195.47,307.24L190.54,306.92L189.61,311.28L186.39,314.76L181.71,313.31L182.04,321.18L185.25,326.20L158.12,328.08ZM139.13,248.43L141.33,251.96L140.91,256.39L133.57,257.97L127.09,255.83L121.94,258.29L117.73,249.61L119.21,246.50L122.54,245.65L139.13,248.43Z"><title>Lääne</title></path>
<path data-code="EE-37" data-name="Harju" d="M169.48,215.17L171.51,213.86L169.92,209.64L172.76,206.59L196.88,205.01L200.48,208.62L202.15,204.81L195.24,192.85L196.56,189.34L200.48,188.22L207.70,195.02L212.58,194.84L207.54,187.10L219.79,184.34L222.16,175.87L229.75,174.75L236.24,180.27L240.51,177.13L248.59,181.49L249.79,179.28L246.82,175.87L249.96,175.63L251.37,171.70L257.31,179.72L259.73,179.24L263.42,172.80L260.66,167.79L259.73,161.19L262.37,159.46L273.58,169.72L280.24,168.03L287.57,171.40L289.16,170.53L288.43,166.28L291.65,164.62L314.25,172.52L313.64,168.69L314.79,166.60L325.74,165.27L321.75,159.40L320.45,152.78L320.71,143.14L332.47,157.82L337.13,160.19L339.63,159.66L340.71,156.65L337.82,149.91L338.33,146.51L336.61,145.50L338.67,142.97L341.29,143.80L346.02,148.75L347.15,156.06L350.84,158.48L350.88,162.97L348.98,167.52L351.21,171.57L352.05,179.14L355.29,182.29L360.14,204.92L358.46,207.79L347.57,205.20L336.21,208.39L334.70,210.83L330.01,208.47L321.10,209.86L323.44,218.42L318.45,231.50L321.12,239.10L313.56,241.73L313.22,250.57L306.63,254.47L296.53,247.17L293.54,238.43L275.47,229.12L270.57,221.59L270.94,216.10L267.73,215.97L259.98,218.85L250.42,217.56L242.69,225.88L241.09,231.08L242.62,235.06L242.02,237.31L225.63,239.03L218.43,250.68L207.99,249.45L202.53,255.71L201.50,251.52L206.23,243.65L204.04,240.44L203.43,235.63L195.45,230.69L185.72,231.61L176.11,224.28L169.48,215.17ZM237.75,154.93L240.67,161.55L240.05,163.19L235.45,161.25L235.30,158.15L237.75,154.93Z"><title>Harju</title></path>
<path data-code="EE-59" data-name="Lääne-Viru" d="M350.84,158.48L354.21,154.47L354.80,149.47L360.06,155.49L361.81,155.06L361.76,151.10L363.83,148.97L367.92,150.80L372.60,156.98L388.78,156.70L407.43,164.48L414.87,161.19L424.94,164.24L431.66,170.63L430.41,175.06L432.46,181.02L432.82,186.71L429.03,186.23L428.58,190.91L425.47,193.94L433.21,197.26L428.30,210.31L431.13,213.20L437.02,211.27L438.49,217.09L445.18,221.21L444.43,225.96L445.40,228.57L433.43,234.81L434.20,249.89L430.71,257.02L413.98,264.13L408.04,263.25L403.93,266.31L403.49,270.43L399.94,272.00L391.74,266.58L377.96,271.73L378.87,263.55L376.37,256.27L368.31,245.82L358.64,242.59L359.60,236.37L365.78,227.57L366.41,223.83L361.11,221.03L361.39,217.99L357.76,211.97L360.06,204.00L355.29,182.29L352.05,179.14L351.21,171.57L348.98,167.52L350.88,162.97L350.84,158.48Z"><title>Lääne-Viru</title></path>
<path data-code="EE-74" data-name="Saare" d="M127.71,334.54L136.50,342.51L135.79,344.82L130.35,340.94L128.31,342.51L131.77,345.77L128.07,345.21L121.36,339.03L119.13,345.27L115.18,346.90L115.39,352.59L111.60,356.45L109.85,357.81L104.10,354.88L103.47,356.26L105.35,358.31L99.63,366.25L91.80,372.56L84.10,373.07L83.15,375.14L87.13,377.68L84.26,380.45L79.64,381.09L78.43,377.28L75.55,375.96L70.72,378.85L68.16,375.74L65.51,380.76L63.17,377.21L47.62,385.80L45.62,388.85L44.34,402.16L39.46,413.21L39.73,418.47L26.49,431.43L23.79,431.53L21.50,428.06L21.56,424.34L19.22,420.11L22.14,420.11L29.69,403.91L35.00,404.41L39.73,393.18L28.54,388.59L23.79,379.06L13.49,376.29L8.98,369.25L9.99,367.07L14.49,368.40L11.50,361.36L13.32,360.56L17.61,365.11L19.22,363.82L18.49,360.96L19.61,359.23L23.31,359.33L17.73,346.46L8.00,333.53L13.91,335.67L16.23,332.32L21.98,333.28L30.00,348.12L31.23,337.44L38.43,328.29L40.58,327.72L41.94,333.60L45.74,335.00L47.04,323.95L49.92,321.41L62.00,320.07L69.47,314.05L72.28,313.24L77.84,321.09L80.75,318.85L85.39,320.87L91.82,315.14L101.29,316.05L115.76,323.68L120.66,331.80L127.71,334.54ZM140.64,322.21L142.23,326.23L138.97,330.00L131.82,327.72L128.07,329.64L113.05,318.34L114.43,314.01L118.32,314.25L121.20,306.43L124.90,305.66L136.24,310.19L137.86,313.14L137.72,317.73L140.64,322.21ZM130.27,448.12L131.10,452.70L126.61,450.19L127.17,446.44L130.27,448.12Z"><title>Saare</title></path>
<path data-code="EE-39" data-name="Hiiu" d="M47.33,270.41L39.05,271.59L26.18,263.68L27.10,260.96L30.42,260.41L62.00,257.97L60.20,255.71L64.17,256.29L64.09,250.49L70.23,246.88L72.62,238.90L79.43,239.24L83.49,241.76L81.56,246.43L85.42,252.36L94.03,251.78L102.32,255.81L103.65,257.97L103.65,263.68L109.26,270.97L111.44,279.35L109.60,281.27L104.27,278.26L103.02,280.43L97.65,280.68L96.60,282.75L98.29,284.11L98.27,287.61L94.73,289.91L88.99,287.33L93.15,282.90L92.50,281.18L88.93,282.05L85.42,284.99L78.43,302.02L69.93,304.61L62.00,299.77L64.92,296.31L60.83,288.22L59.16,277.43L52.72,270.92L47.33,270.41Z"><title>Hiiu</title></path>
<path data-code="EE-70" data-name="Rapla" d="M204.99,302.24L206.53,296.14L199.59,294.08L207.34,286.98L205.77,282.80L209.58,278.70L201.19,261.36L202.53,255.71L207.99,249.45L218.43,250.68L225.63,239.03L242.02,237.31L242.62,235.06L241.09,231.08L242.69,225.88L250.42,217.56L259.98,218.85L270.94,216.10L270.57,221.59L275.47,229.12L293.54,238.43L296.53,247.17L306.63,254.47L303.62,258.12L304.96,260.37L304.96,265.50L299.57,273.00L302.93,277.19L302.31,279.18L300.37,283.68L296.33,286.61L298.28,292.54L296.30,298.24L284.57,297.85L272.02,307.02L270.42,296.60L266.84,294.27L252.70,294.06L249.61,298.53L243.10,300.56L238.53,296.49L233.09,300.14L230.36,305.49L224.70,307.35L204.99,302.24Z"><title>Rapla</title></path>
<path data-code="EE-51" data-name="Järva" d="M345.73,304.16L325.39,313.99L309.07,316.43L301.33,313.44L304.23,301.22L296.30,298.24L298.28,292.54L296.33,286.61L300.37,283.68L302.93,277.19L299.57,273.00L304.96,265.50L303.73,257.62L313.22,250.57L313.56,241.73L321.12,239.10L318.45,231.50L323.44,218.42L321.10,209.86L330.01,208.47L335.56,210.71L336.21,208.39L347.57,205.20L358.46,207.79L357.76,211.97L361.39,217.99L361.11,221.03L366.41,223.83L365.78,227.57L359.60,236.37L358.89,243.54L368.31,245.82L378.55,261.66L377.96,271.73L374.78,274.86L374.55,280.25L362.82,283.32L361.00,290.41L350.75,294.71L345.73,304.16Z"><title>Järva</title></path>
  </g>
</svg>
