<?xml version="1.0" encoding="UTF-8"?>
<svg xmlns="http://www.w3.org/2000/svg" viewBox="0 0 560 640" class="pref-muni-svg" role="img" aria-label="行政区分">
  <g class="pref-muni-svg__paths" fill="#eaf2fb" stroke="#5b7fa8" stroke-width="0.6" stroke-linejoin="round">
<path data-code="FI-10" data-name="Lapland" d="M325.59,8.00L333.33,19.00L338.84,21.32L339.44,24.60L358.15,32.39L363.65,45.15L360.68,50.47L350.97,61.01L350.33,67.87L353.59,71.73L339.59,79.56L340.46,81.54L347.78,81.59L349.66,83.39L347.47,89.93L340.54,102.88L346.80,123.05L363.29,129.77L371.54,144.92L380.77,153.29L378.37,164.10L368.16,176.87L357.35,195.53L356.10,200.60L357.07,204.88L363.07,214.45L365.32,221.24L368.28,225.93L368.84,229.54L359.13,230.31L346.77,227.04L346.26,230.56L343.29,233.44L343.14,236.92L345.66,240.59L348.70,241.28L347.99,243.25L348.66,244.79L347.33,247.47L344.69,248.62L345.34,251.31L348.50,253.20L348.50,254.55L346.41,256.27L339.05,255.61L338.71,257.65L342.27,263.43L339.91,266.21L334.02,267.64L322.97,266.18L319.69,258.62L317.54,260.37L314.36,258.74L305.90,270.95L299.20,273.73L282.36,272.89L281.60,271.50L281.72,267.40L280.82,267.12L271.40,271.23L261.77,271.85L254.17,280.62L248.14,276.53L243.42,277.97L243.21,274.60L241.05,273.02L240.19,270.18L242.65,263.13L244.32,261.15L241.93,262.54L239.38,268.21L236.44,269.84L232.15,266.58L232.31,269.09L231.33,269.26L227.43,258.97L226.52,252.83L223.17,246.01L218.91,243.24L217.33,236.56L217.07,227.90L222.97,221.54L223.25,210.14L226.12,206.84L215.23,185.69L216.10,181.99L215.79,179.17L219.20,177.38L220.50,174.47L219.62,173.94L219.97,169.45L212.55,168.01L211.37,165.47L212.46,161.25L214.52,159.30L212.74,150.17L212.66,142.42L216.65,139.45L217.32,137.21L210.13,131.08L208.16,125.34L204.53,126.77L204.26,120.97L201.99,116.54L195.33,110.18L182.32,105.24L176.37,105.19L172.43,99.64L167.74,98.44L167.22,96.54L160.70,92.43L159.23,88.66L156.63,88.23L150.62,81.32L146.33,79.79L145.87,77.82L147.07,76.49L146.48,74.56L139.06,71.17L142.18,67.04L150.60,71.16L152.79,68.06L149.63,62.37L151.30,58.82L156.84,55.66L165.21,56.88L175.11,72.65L184.08,84.17L185.05,90.84L189.20,90.00L196.44,93.10L202.11,92.79L205.35,96.61L219.19,90.69L220.54,85.56L224.19,84.56L234.58,91.10L243.10,93.69L249.33,100.33L250.53,97.40L255.18,94.81L255.62,87.70L256.95,84.78L262.94,80.45L267.93,81.04L272.26,73.79L271.09,69.78L271.63,65.17L270.75,60.12L272.02,54.37L274.36,50.84L273.43,47.98L274.60,45.71L274.60,41.71L277.62,37.68L276.53,33.71L277.65,31.47L282.62,29.88L291.27,17.13L299.78,16.34L305.85,18.55L311.30,16.87L312.35,15.70L311.89,14.49L317.78,11.15L319.04,8.81L325.59,8.00Z"><title>Lapland</title></path>
<path data-code="FI-14" data-name="Northern Ostrobothnia" d="M368.84,229.54L371.53,238.30L377.95,249.23L379.45,257.39L382.46,266.58L383.46,276.14L380.60,275.37L372.87,278.34L376.37,282.26L373.61,286.39L361.12,284.88L357.76,288.93L345.72,293.22L343.80,297.22L344.83,298.58L329.63,302.53L326.02,311.01L311.18,312.44L310.51,315.66L313.70,320.76L312.55,327.69L306.24,327.15L303.08,329.15L298.34,337.34L294.16,338.06L291.68,343.12L285.14,348.20L289.53,353.44L289.74,356.08L294.95,358.21L295.32,360.81L297.09,361.34L297.82,372.71L299.98,375.38L295.39,377.10L283.65,389.16L284.88,402.42L282.64,404.60L281.07,410.48L275.26,411.56L270.73,406.74L264.42,405.90L257.73,401.68L255.64,403.23L253.84,409.58L252.51,410.37L242.25,398.15L236.53,387.50L232.28,384.48L231.78,381.95L229.29,378.77L228.44,374.51L218.46,367.20L218.92,364.71L221.36,364.00L222.44,361.13L224.56,362.41L224.19,359.09L226.13,353.76L234.88,345.14L236.91,336.33L239.67,333.77L239.73,331.58L241.15,329.91L239.88,328.45L243.23,329.43L243.29,326.96L244.98,325.40L254.21,321.57L258.44,326.59L257.56,327.39L261.09,326.76L261.03,322.01L257.98,320.93L256.68,318.63L257.46,317.18L262.62,319.72L263.19,318.63L260.92,310.74L257.21,309.08L258.97,303.23L260.20,302.81L258.97,300.74L260.39,295.72L258.62,293.65L260.92,291.57L261.00,288.30L259.33,284.68L254.17,280.62L261.77,271.85L271.40,271.23L280.82,267.12L281.72,267.40L281.60,271.50L282.36,272.89L299.20,273.73L305.90,270.95L314.36,258.74L317.54,260.37L319.69,258.62L322.97,266.18L334.02,267.64L339.91,266.21L342.27,263.43L338.71,257.65L339.05,255.61L346.41,256.27L348.50,254.55L348.50,253.20L345.34,251.31L344.69,248.62L347.33,247.47L348.66,244.79L347.99,243.25L348.70,241.28L345.66,240.59L343.14,236.92L343.29,233.44L346.26,230.56L346.77,227.04L359.13,230.31L368.84,229.54ZM251.60,313.26L253.36,313.97L247.12,313.98L244.62,316.40L247.32,318.25L244.94,319.59L243.63,316.82L242.28,318.57L240.51,314.35L242.86,311.73L247.51,310.85L248.76,311.33L248.75,313.01L251.60,313.26Z"><title>Northern Ostrobothnia</title></path>
<path data-code="FI-05" data-name="Kainuu" d="M373.61,286.39L373.32,296.60L369.71,302.30L376.23,304.14L375.58,308.38L376.67,309.22L370.18,314.52L369.92,317.13L371.09,322.26L374.87,329.04L383.59,330.72L383.34,333.63L385.18,338.33L379.36,342.82L380.28,346.76L382.34,348.72L381.36,353.28L394.91,364.06L394.24,367.53L395.47,374.31L385.71,390.02L374.51,394.80L371.67,385.12L353.09,387.02L342.38,384.59L341.01,385.24L335.74,396.96L322.45,382.99L298.21,373.84L297.09,361.34L295.32,360.81L294.95,358.21L289.74,356.08L289.53,353.44L285.14,348.20L291.68,343.12L294.16,338.06L298.34,337.34L303.08,329.15L306.24,327.15L312.55,327.69L313.70,320.76L310.51,315.66L310.54,313.64L312.63,311.40L326.02,311.01L329.63,302.53L344.83,298.58L343.80,297.22L345.72,293.22L357.76,288.93L361.12,284.88L373.61,286.39Z"><title>Kainuu</title></path>
<path data-code="FI-13" data-name="North Karelia" d="M380.48,392.79L380.55,394.73L392.40,409.47L401.66,415.38L411.53,425.29L413.04,432.11L418.65,439.05L420.94,443.94L417.64,451.07L412.55,468.42L404.36,480.66L397.20,487.31L384.28,508.12L369.30,515.80L372.64,509.68L372.61,507.11L370.65,503.68L371.68,500.66L366.60,493.02L365.41,484.15L362.02,475.74L360.15,473.64L357.65,475.20L356.94,473.41L357.53,469.16L350.33,461.03L345.97,459.30L347.10,456.93L345.67,453.77L348.85,448.83L352.82,451.48L356.87,448.10L353.06,442.62L354.53,442.61L354.16,440.97L356.25,439.34L344.94,425.53L347.31,421.39L348.63,415.32L346.05,411.66L344.91,406.99L345.01,405.40L346.41,404.84L344.86,402.03L344.16,398.29L344.66,397.27L338.25,392.41L341.01,385.24L343.75,384.51L353.09,387.02L371.67,385.12L374.31,394.71L380.48,392.79Z"><title>North Karelia</title></path>
<path data-code="FI-02" data-name="South Karelia" d="M384.28,508.12L374.84,523.77L368.09,530.95L360.00,544.88L349.56,553.95L344.85,562.15L341.41,563.88L329.12,580.25L326.13,577.56L325.23,574.69L322.08,574.11L321.00,572.07L316.42,572.13L306.95,563.06L306.65,562.03L309.43,562.14L307.00,559.00L307.60,555.40L309.17,553.94L308.10,552.94L308.76,550.00L312.25,549.41L313.31,547.44L309.09,540.61L309.86,540.11L302.46,537.95L309.71,535.28L317.18,537.92L333.69,537.13L337.82,534.38L341.10,528.87L345.84,531.28L349.86,529.55L350.16,527.12L361.11,525.79L368.48,518.19L369.30,515.80L384.28,508.12Z"><title>South Karelia</title></path>
<path data-code="FI-09" data-name="Kymenlaakso" d="M329.12,580.25L324.07,587.01L322.31,585.73L322.67,589.88L321.77,590.94L319.66,590.71L321.08,589.08L319.55,588.92L318.93,590.24L319.48,591.99L316.36,589.39L315.44,589.88L316.32,592.82L309.26,589.50L311.20,588.67L308.73,586.60L308.80,585.07L307.85,586.14L308.44,588.82L307.85,589.50L304.67,587.39L303.22,590.97L301.50,591.12L302.30,593.45L301.07,591.78L297.96,592.82L298.04,591.09L295.58,595.11L293.41,593.10L291.77,594.31L289.75,591.01L291.34,589.29L292.45,584.68L294.69,583.77L296.91,585.73L296.36,583.37L294.49,581.01L291.77,584.66L290.42,584.19L286.49,579.83L284.95,574.91L283.07,574.71L282.16,571.05L279.92,570.13L281.62,564.70L278.62,562.56L278.71,560.80L280.39,560.71L281.04,558.32L278.86,553.29L280.87,550.63L285.26,550.41L289.50,543.65L293.86,542.65L294.63,547.08L299.97,542.61L301.82,549.42L308.76,550.00L308.10,552.94L309.17,553.94L307.60,555.40L307.00,559.00L309.43,562.14L306.65,562.03L306.95,563.06L316.42,572.13L321.00,572.07L322.08,574.11L325.23,574.69L326.13,577.56L329.12,580.25ZM293.02,593.49L294.32,594.68L291.65,597.63L290.58,596.11L293.02,593.49Z"><title>Kymenlaakso</title></path>
<path data-code="FI-18" data-name="Uusimaa" d="M291.77,584.66L289.51,589.74L290.03,593.65L286.33,597.80L283.84,593.22L283.42,593.98L284.56,596.19L281.19,596.56L275.39,591.12L278.27,594.29L277.83,597.01L280.30,600.21L278.55,602.41L277.67,598.26L276.40,598.99L273.45,596.19L275.39,598.67L274.51,602.00L275.72,605.73L271.18,601.14L270.96,602.65L273.63,604.48L270.71,605.61L268.50,602.41L269.04,600.73L268.50,599.88L269.91,599.88L268.99,598.47L265.32,600.75L265.80,602.87L264.71,605.67L261.08,605.73L259.85,604.07L260.04,605.35L255.79,606.52L256.84,609.05L254.38,609.05L252.52,611.65L251.71,610.75L252.43,608.51L251.74,607.70L250.50,611.92L247.78,611.90L248.39,609.71L246.79,609.05L247.32,610.75L243.52,612.73L243.28,614.49L240.28,611.16L241.39,612.90L239.93,615.32L241.68,614.49L240.80,616.15L241.33,616.98L237.49,621.11L236.74,621.17L237.97,617.81L234.07,620.79L235.49,616.15L234.25,616.03L232.52,618.22L230.10,618.02L230.25,619.46L226.26,620.00L226.04,618.31L220.85,623.28L215.03,622.00L211.32,623.28L214.19,618.87L214.33,616.15L208.67,625.32L206.37,626.84L205.99,628.68L206.74,630.30L197.39,632.00L206.63,625.36L208.84,618.82L206.02,624.90L205.13,623.67L203.12,625.30L203.13,622.20L206.90,618.22L201.18,617.93L200.03,615.94L200.81,614.15L203.21,614.88L208.26,609.31L210.39,610.91L216.79,608.60L215.52,604.92L218.92,601.23L220.70,595.19L220.33,593.30L218.28,593.16L222.54,589.50L222.45,586.81L223.80,584.31L222.94,582.92L223.36,581.19L230.98,582.95L233.33,586.26L234.79,584.05L236.24,584.38L236.68,586.38L239.53,586.68L241.79,580.48L254.54,580.11L254.17,578.18L256.46,576.64L253.31,576.81L255.79,573.70L254.57,570.79L256.76,570.16L260.25,574.59L263.97,572.48L265.25,577.81L266.49,578.73L274.64,576.01L281.98,578.24L283.04,577.13L283.07,574.71L284.95,574.91L286.49,579.83L291.77,584.66ZM267.79,606.15L266.45,604.95L266.75,602.62L269.39,605.73L268.15,608.22L267.31,607.54L267.79,606.15Z"><title>Uusimaa</title></path>
<path data-code="FI-19" data-name="Finland Proper" d="M200.81,614.15L201.45,613.24L200.92,612.41L199.48,614.90L197.04,611.54L196.85,609.47L202.34,599.05L200.21,602.00L198.75,601.40L193.47,606.16L188.03,608.22L191.20,603.69L186.09,605.73L186.34,604.53L190.68,597.81L190.59,596.37L188.51,597.99L186.44,597.80L186.97,596.19L182.02,597.37L177.12,592.54L175.73,593.96L172.02,588.48L170.49,589.29L171.27,591.58L168.99,591.58L170.41,582.41L165.80,586.14L165.28,590.50L163.13,590.71L163.79,589.93L162.09,586.14L163.66,586.14L159.28,585.35L159.44,583.65L160.86,583.65L157.86,579.50L160.07,579.27L159.63,576.56L160.86,576.18L158.74,574.89L159.63,574.48L157.23,570.32L156.96,568.06L159.79,567.39L157.86,565.76L159.79,565.76L156.45,556.18L159.56,556.97L161.47,559.61L164.23,558.84L164.82,557.05L166.95,559.91L169.73,557.66L173.27,561.47L174.66,566.00L178.41,566.78L180.85,564.42L188.98,563.26L188.28,561.66L189.20,560.68L195.14,560.04L196.16,554.29L200.46,558.05L203.42,557.91L207.88,563.07L207.14,566.32L203.83,567.68L205.73,570.21L204.45,573.22L206.24,575.65L212.55,575.25L218.41,580.44L223.36,581.19L222.94,582.92L223.80,584.31L222.45,586.81L222.54,589.50L218.28,593.16L220.33,593.30L220.70,595.19L218.92,601.23L215.52,604.92L216.79,608.60L210.39,610.91L208.26,609.31L203.21,614.88L200.81,614.15ZM185.03,617.43L185.12,615.46L186.09,616.60L185.91,620.79L184.37,621.09L183.50,616.80L184.06,615.73L185.03,617.43ZM161.55,612.41L163.47,610.28L165.61,611.16L164.55,614.43L162.01,614.72L161.18,613.66L163.13,613.24L161.55,612.41ZM167.91,609.05L171.62,609.92L169.14,611.16L170.04,611.54L168.93,613.15L166.68,613.24L167.91,609.05ZM157.86,607.80L160.32,609.47L158.56,610.75L155.73,609.05L157.86,607.80ZM176.03,607.80L174.75,612.29L172.85,609.92L176.03,607.80ZM179.90,608.22L182.03,605.73L181.45,608.73L179.90,608.22ZM196.24,605.94L197.46,603.28L199.14,602.83L195.98,608.90L196.32,613.89L193.32,617.81L194.03,618.68L193.31,620.34L192.08,620.79L191.38,618.68L189.97,621.58L189.32,619.60L189.80,617.81L186.61,620.79L186.71,615.11L185.38,613.66L189.97,612.00L185.21,611.54L186.05,607.18L186.80,606.98L186.53,609.47L196.24,605.94ZM177.26,601.58L183.26,603.24L180.06,605.25L179.18,603.53L176.58,604.25L177.26,601.58ZM184.50,601.12L182.57,601.12L184.77,599.05L186.80,601.12L183.98,602.83L184.50,601.12ZM174.45,600.34L171.97,600.75L169.21,597.90L169.16,596.50L170.55,595.73L169.32,593.65L169.57,592.26L172.76,594.90L173.24,596.56L171.80,596.56L174.22,598.39L173.57,599.50L174.45,600.34ZM167.46,591.35L166.32,592.37L168.44,588.67L167.46,591.35ZM156.98,591.35L155.21,590.33L154.66,586.60L156.98,591.35ZM158.91,586.60L161.18,588.67L160.16,591.99L158.04,588.22L157.22,588.70L157.36,586.75L158.91,586.60ZM156.45,586.14L154.27,583.16L155.73,581.54L156.45,586.14ZM155.57,567.01L153.97,566.55L156.45,566.18L156.80,564.52L155.03,562.82L155.72,561.78L158.40,564.07L156.95,567.12L155.57,567.01ZM197.36,616.52L198.37,616.66L196.97,620.27L196.43,618.94L197.27,617.72L196.53,617.26L197.36,616.52ZM199.17,613.90L198.89,615.49L196.29,615.64L197.47,613.40L199.17,613.90ZM174.30,612.74L174.83,613.18L172.71,613.06L174.30,612.74ZM182.58,608.97L184.44,608.77L182.75,610.66L183.19,611.61L181.94,611.53L182.58,608.97ZM173.40,603.53L171.30,602.10L173.84,601.83L173.40,603.53ZM157.47,597.33L157.91,599.25L156.34,598.11L157.47,597.33ZM164.22,605.14L164.90,605.28L163.27,606.88L164.22,605.14ZM155.45,568.77L155.54,570.15L153.56,568.56L155.45,568.77Z"><title>Finland Proper</title></path>
<path data-code="FI-17" data-name="Satakunta" d="M159.27,556.91L158.21,556.18L161.18,556.18L160.16,549.50L163.13,547.42L161.02,544.89L162.78,542.82L162.26,537.01L160.32,535.34L163.50,534.51L159.63,530.32L164.01,530.32L160.61,525.64L167.21,527.79L162.61,520.32L162.09,516.59L163.85,517.41L160.86,513.64L161.28,510.51L159.14,506.54L159.43,504.69L156.92,502.73L161.01,497.67L174.98,499.44L187.59,486.18L189.63,480.67L196.10,482.54L196.54,488.50L194.33,489.83L194.41,494.91L188.66,498.83L194.69,506.57L193.64,507.91L195.71,509.80L195.26,512.34L192.38,515.36L191.35,518.77L193.10,520.45L190.00,526.23L191.01,529.43L193.18,531.20L193.28,533.28L190.99,536.08L189.24,535.79L189.72,539.15L189.19,539.57L191.55,544.92L198.30,547.01L198.97,549.08L198.25,550.51L199.47,552.93L198.29,554.45L200.26,555.53L199.49,557.07L195.78,554.36L195.83,559.07L195.14,560.04L189.20,560.68L188.28,561.66L188.98,563.26L180.85,564.42L178.41,566.78L174.66,566.00L173.27,561.47L169.73,557.66L166.95,559.91L164.82,557.05L164.23,558.84L161.47,559.61L159.27,556.91ZM159.63,549.09L157.59,548.24L158.55,546.82L159.63,549.09Z"><title>Satakunta</title></path>
<path data-code="FI-12" data-name="Ostrobothnia" d="M156.92,502.73L154.85,499.94L156.21,491.64L156.80,492.39L157.16,489.07L158.65,487.20L157.86,484.92L158.40,482.81L156.80,484.92L157.49,477.41L155.73,477.79L155.73,474.05L154.04,477.16L154.33,478.66L153.43,474.92L153.97,473.63L152.20,474.46L152.74,470.77L151.76,471.05L151.74,468.88L152.74,466.95L152.03,465.33L154.15,463.63L151.50,461.14L150.44,462.80L150.51,461.32L150.80,457.78L152.90,455.29L151.69,451.53L153.48,451.45L155.03,446.16L157.95,446.76L160.69,441.18L160.20,435.73L161.51,433.86L166.49,436.57L163.17,432.44L163.50,430.72L162.17,430.51L161.73,428.65L162.98,427.40L161.66,426.52L161.76,425.00L167.88,426.08L168.44,425.70L166.86,424.49L171.80,422.38L171.45,427.40L174.10,429.51L173.38,426.99L175.15,423.66L179.02,424.08L181.67,419.89L183.01,420.96L184.14,418.68L179.81,412.66L179.43,410.35L180.87,409.67L184.86,412.80L181.50,406.98L183.20,406.40L183.10,408.23L185.00,410.44L187.32,402.60L188.57,403.25L187.32,400.34L188.03,398.23L189.60,398.27L189.68,395.46L191.90,395.51L193.42,400.06L194.43,400.07L197.74,395.32L195.96,394.08L198.35,393.02L197.66,390.59L198.27,389.47L200.01,391.93L200.03,390.33L201.20,390.37L206.60,394.45L213.22,391.58L219.17,397.59L214.32,399.60L213.02,397.61L211.69,401.28L214.86,402.20L215.15,404.37L216.74,405.86L218.48,415.02L213.30,409.12L209.29,408.55L204.31,415.88L199.97,415.74L199.13,417.61L193.47,416.59L191.35,419.04L191.88,420.15L189.40,421.75L189.49,427.07L191.64,426.75L191.88,429.88L190.79,433.28L188.68,433.91L187.34,436.50L185.55,440.86L184.66,446.85L180.90,451.93L174.29,451.46L168.53,447.24L167.50,451.93L168.61,457.48L163.98,462.49L164.53,465.94L162.47,475.98L166.40,477.63L166.30,482.64L168.36,485.68L166.15,487.14L166.79,489.33L165.56,490.37L165.41,497.78L161.01,497.67L156.92,502.73ZM159.63,423.21L159.79,426.16L158.10,425.68L155.03,429.06L153.62,426.57L152.55,427.14L150.80,420.72L155.03,421.14L153.79,424.49L156.15,425.37L156.89,422.90L159.63,423.21ZM156.96,420.72L154.66,418.23L158.40,416.98L156.96,420.72ZM175.19,418.63L176.08,419.85L175.71,421.06L173.95,421.20L175.19,418.63ZM178.23,422.93L176.56,422.03L176.30,418.85L179.55,419.39L180.47,417.62L180.86,419.55L179.89,421.61L177.46,420.94L178.60,421.56L178.23,422.93ZM173.41,418.06L174.42,414.83L176.99,414.90L173.41,418.06ZM195.32,390.82L195.86,391.02L195.17,393.34L193.56,394.41L192.06,391.80L195.32,390.82ZM154.13,441.49L152.54,441.06L152.12,438.17L153.80,438.56L154.13,441.49Z"><title>Ostrobothnia</title></path>
<path data-code="FI-07" data-name="Central Ostrobothnia" d="M200.03,390.33L200.03,388.64L203.68,386.39L204.26,384.49L210.42,382.82L210.97,382.00L209.82,380.67L210.09,374.49L215.83,375.73L215.04,370.89L216.09,371.13L218.46,367.20L228.44,374.51L229.29,378.77L231.78,381.95L232.28,384.48L236.53,387.50L242.25,398.15L252.51,410.37L246.19,416.81L246.61,421.45L245.57,422.24L244.98,429.89L239.62,428.54L235.36,430.97L230.61,429.00L231.81,427.61L227.13,422.23L220.08,418.95L218.27,415.08L216.74,405.86L215.15,404.37L214.86,402.20L211.69,401.28L212.71,397.78L214.32,399.60L219.17,397.59L218.69,396.35L213.22,391.58L206.60,394.45L200.03,390.33Z"><title>Central Ostrobothnia</title></path>
<path data-code="FI-15" data-name="Northern Savonia" d="M299.98,375.38L322.45,382.99L335.74,396.96L338.25,392.41L341.11,395.83L344.36,396.75L344.86,402.03L346.41,404.84L345.01,405.40L344.91,406.99L346.05,411.66L348.63,415.32L347.31,421.39L344.94,425.53L351.60,434.56L356.11,438.28L354.16,440.97L354.53,442.61L353.06,442.62L357.05,447.35L352.82,451.48L348.85,448.83L345.67,453.77L347.10,456.93L344.70,462.15L345.26,462.21L341.35,463.70L342.81,464.29L342.42,465.25L339.65,463.95L338.59,468.65L338.99,470.97L336.31,470.75L336.83,472.06L335.66,473.32L337.38,476.79L334.44,477.50L328.18,483.21L324.86,482.06L322.41,478.36L322.94,476.92L313.08,467.57L308.49,470.81L306.43,469.33L302.51,469.72L302.42,471.42L299.70,470.22L298.15,472.74L290.09,467.91L292.84,462.91L290.93,454.25L288.86,451.65L286.80,452.97L282.00,448.44L282.35,446.67L278.86,443.02L285.87,440.12L283.62,437.30L285.59,435.88L281.66,429.01L281.51,425.89L282.27,424.35L279.77,415.84L281.72,412.09L281.07,410.48L282.64,404.60L284.88,402.42L283.65,389.16L295.39,377.10L299.98,375.38Z"><title>Northern Savonia</title></path>
<path data-code="FI-04" data-name="Southern Savonia" d="M342.42,465.25L342.81,464.29L341.35,463.70L344.88,462.76L345.97,459.30L349.88,460.67L357.53,469.16L357.40,474.90L361.20,474.12L365.41,484.15L365.64,489.26L367.49,495.29L371.68,500.66L370.65,503.68L372.61,507.11L372.64,509.68L368.48,518.19L361.11,525.79L350.16,527.12L349.86,529.55L345.84,531.28L341.10,528.87L337.82,534.38L333.69,537.13L317.18,537.92L309.71,535.28L302.46,537.95L309.86,540.11L309.09,540.61L311.80,544.46L311.92,546.56L313.20,546.88L311.78,549.60L303.31,550.62L301.43,548.60L299.97,542.61L294.24,546.94L294.67,544.75L293.86,542.65L290.78,543.19L289.86,540.88L285.08,537.29L285.72,535.69L284.14,533.14L284.78,524.75L285.67,525.00L287.12,520.19L290.78,521.01L291.15,517.17L287.25,510.43L287.28,506.61L286.12,506.09L287.57,499.62L283.89,492.91L283.82,490.72L286.12,487.03L289.39,486.02L290.92,483.48L294.43,485.01L293.66,481.04L297.26,477.01L295.38,475.11L295.85,471.59L298.15,472.74L299.70,470.22L302.42,471.42L302.51,469.72L306.43,469.33L308.49,470.81L313.08,467.57L322.94,476.92L322.41,478.36L324.86,482.06L328.18,483.21L334.44,477.50L337.01,477.27L337.49,475.98L335.58,472.91L336.83,472.06L336.31,470.75L338.99,470.97L338.59,468.65L339.65,463.95L342.42,465.25Z"><title>Southern Savonia</title></path>
<path data-code="FI-08" data-name="Central Finland" d="M281.07,410.48L281.72,412.09L279.77,415.84L282.27,424.35L281.51,425.89L281.66,429.01L285.59,435.88L283.54,436.26L285.87,440.12L278.86,443.02L282.35,446.67L282.00,448.44L286.80,452.97L288.86,451.65L290.56,453.50L292.54,459.05L292.84,462.91L290.09,467.91L295.85,471.59L295.38,475.11L297.26,477.01L293.66,481.04L294.20,485.28L290.92,483.48L289.39,486.02L286.12,487.03L283.82,490.72L283.89,492.91L287.57,499.62L286.12,506.09L287.05,506.08L287.25,510.43L290.94,516.33L290.78,521.01L287.68,519.93L285.75,522.89L284.97,520.18L281.28,521.75L279.00,519.36L279.62,516.96L278.87,515.60L277.76,516.01L275.58,512.18L274.30,513.61L273.97,511.31L271.44,517.69L265.06,518.60L262.75,530.02L250.91,532.40L249.11,526.39L249.36,524.55L247.36,525.30L246.36,522.44L247.38,520.12L250.68,521.05L250.89,519.27L249.78,516.70L251.66,515.35L251.27,511.97L250.17,511.10L250.40,504.03L248.88,496.67L243.66,496.02L243.25,492.40L240.56,488.03L235.71,489.37L232.35,483.54L228.01,481.65L226.62,478.92L227.29,475.27L230.37,471.14L234.42,471.13L234.46,469.15L239.24,468.39L240.32,461.98L241.00,461.84L239.28,461.42L240.72,458.86L235.42,447.74L237.38,446.25L237.44,444.56L234.94,442.22L232.87,434.55L235.36,430.97L239.62,428.54L244.98,429.89L245.57,422.24L246.61,421.45L246.19,416.81L253.84,409.58L255.64,403.23L257.73,401.68L264.42,405.90L270.73,406.74L276.77,412.06L281.07,410.48Z"><title>Central Finland</title></path>
<path data-code="FI-03" data-name="Southern Ostrobothnia" d="M218.27,415.08L220.85,419.88L227.13,422.23L231.81,427.61L230.61,429.00L235.36,430.97L232.87,434.55L234.94,442.22L237.63,445.33L235.42,447.74L240.72,458.86L239.19,460.83L241.02,461.50L239.24,468.39L234.46,469.15L234.42,471.13L231.12,470.52L226.54,476.89L224.01,474.28L223.43,469.85L221.87,470.88L221.74,469.35L218.24,473.08L213.29,474.16L213.27,476.32L208.41,473.53L204.56,479.67L201.83,481.39L196.10,482.54L189.63,480.67L187.59,486.18L174.98,499.44L165.05,496.74L165.56,490.37L166.73,490.06L166.15,487.14L168.49,484.99L166.30,482.64L166.40,477.63L162.47,475.98L164.53,465.94L163.98,462.49L168.61,457.48L167.50,451.93L168.53,447.24L174.29,451.46L179.12,452.69L181.95,450.77L184.66,446.85L185.55,440.86L187.34,436.50L188.68,433.91L190.79,433.28L191.95,427.78L189.49,427.07L189.91,423.49L189.15,422.36L191.88,420.15L191.35,419.04L193.47,416.59L199.13,417.61L199.97,415.74L204.31,415.88L207.94,409.36L210.42,408.44L214.41,409.93L218.27,415.08Z"><title>Southern Ostrobothnia</title></path>
<path data-code="FI-11" data-name="Pirkanmaa" d="M226.54,476.89L227.40,481.03L232.35,483.54L234.58,488.39L236.72,489.62L239.67,487.30L243.25,492.40L243.66,496.02L248.88,496.67L250.40,504.03L250.17,511.10L251.27,511.97L251.66,515.35L249.78,516.70L250.89,519.27L250.68,521.05L247.38,520.12L246.36,522.44L247.36,525.30L249.36,524.55L249.11,526.39L250.69,532.11L248.16,531.54L249.66,540.24L248.71,542.56L246.07,543.50L244.98,540.96L243.73,543.15L240.20,541.84L233.21,545.41L233.28,548.64L229.63,552.21L220.31,555.68L220.77,558.11L222.88,558.18L221.52,559.85L222.21,563.10L218.47,559.41L212.06,560.92L212.35,562.01L207.35,558.67L205.35,559.84L200.15,557.89L199.42,556.35L200.29,555.04L198.29,554.45L199.47,552.93L198.25,550.51L198.97,549.08L198.30,547.01L191.55,544.92L189.26,540.10L189.24,535.79L190.99,536.08L193.28,533.28L193.18,531.20L191.01,529.43L190.00,526.23L193.10,520.45L191.35,518.77L192.38,515.36L195.26,512.34L195.71,509.80L193.64,507.91L194.69,506.57L188.66,498.83L194.41,494.91L194.33,489.83L196.54,488.50L196.10,482.54L204.56,479.67L208.41,473.53L213.27,476.32L213.29,474.16L218.24,473.08L221.74,469.35L221.87,470.88L223.43,469.85L224.01,474.28L226.54,476.89Z"><title>Pirkanmaa</title></path>
<path data-code="FI-06" data-name="Tavastia Proper" d="M246.73,543.57L249.66,540.24L249.74,542.10L256.60,545.24L258.48,548.83L257.96,552.50L259.17,553.57L259.15,555.23L257.15,559.19L258.32,561.26L256.01,564.10L253.94,569.69L255.79,573.70L253.40,577.08L256.46,576.64L254.17,578.18L254.54,580.11L241.79,580.48L239.53,586.68L236.68,586.38L236.24,584.38L234.79,584.05L233.33,586.26L230.98,582.95L218.41,580.44L212.55,575.25L207.15,576.36L204.81,574.20L204.45,573.22L205.73,570.21L203.92,569.19L204.33,566.51L207.14,566.32L206.87,565.03L207.86,563.71L205.35,559.84L207.35,558.67L212.35,562.01L212.06,560.92L218.47,559.41L222.21,563.10L221.52,559.85L222.88,558.18L220.77,558.11L220.31,555.68L229.63,552.21L233.28,548.64L233.21,545.41L239.34,542.16L243.73,543.15L244.98,540.96L246.73,543.57Z"><title>Tavastia Proper</title></path>
<path data-code="FI-16" data-name="Päijät-Häme" d="M285.75,522.89L284.22,529.30L284.83,530.74L284.14,533.14L285.72,535.69L285.08,537.29L289.86,540.88L290.78,543.19L288.92,544.08L285.26,550.41L280.87,550.63L278.86,553.29L281.04,558.32L280.39,560.71L278.71,560.80L278.62,562.56L281.62,564.70L279.67,569.68L282.16,571.05L283.31,576.04L281.98,578.24L274.64,576.01L266.49,578.73L265.25,577.81L263.97,572.48L260.25,574.59L257.10,570.35L254.17,570.70L255.42,565.38L258.32,561.26L257.15,559.19L259.15,555.23L259.17,553.57L257.96,552.50L258.48,548.83L256.60,545.24L249.74,542.10L249.29,535.00L248.16,531.54L262.75,530.02L265.06,518.60L271.44,517.69L273.97,511.31L274.30,513.61L275.58,512.18L277.76,516.01L279.20,516.10L279.52,520.22L281.28,521.75L285.35,520.31L285.75,522.89Z"><title>Päijät-Häme</title></path>
  </g>
</svg>
