<?xml version="1.0" encoding="UTF-8"?>
<svg xmlns="http://www.w3.org/2000/svg" viewBox="0 0 560 640" class="pref-muni-svg" role="img" aria-label="行政区分">
  <g class="pref-muni-svg__paths" fill="#eaf2fb" stroke="#5b7fa8" stroke-width="0.6" stroke-linejoin="round">
<path data-code="11" data-name="Île-de-France" d="M294.10,167.46L295.68,165.92L299.45,168.48L302.20,166.50L303.88,167.96L308.10,166.82L308.77,167.91L309.57,166.82L311.66,167.16L311.83,165.43L314.37,165.99L316.32,168.99L315.45,171.05L318.48,173.09L319.06,174.97L320.53,174.46L321.48,176.60L322.89,175.59L323.37,178.59L326.31,180.31L327.21,179.64L327.29,181.60L324.21,181.92L325.69,182.88L323.90,184.60L326.64,185.74L326.94,187.88L325.56,189.71L326.30,190.28L325.95,191.26L328.99,190.63L328.47,191.32L329.93,192.21L326.48,194.69L327.08,196.25L324.26,196.97L325.36,198.68L323.44,199.56L324.30,201.01L323.75,202.57L324.88,202.95L324.61,204.34L318.67,205.69L315.61,205.01L313.08,206.52L311.09,205.95L309.80,208.83L311.02,211.86L306.92,215.42L306.90,216.47L302.63,218.28L301.90,218.18L302.28,216.45L301.68,216.17L299.50,216.32L300.20,217.42L298.35,218.63L292.91,217.64L288.69,218.57L290.13,216.41L291.36,216.32L291.43,213.04L287.92,211.28L287.15,208.06L285.50,208.71L283.99,207.48L281.32,209.25L281.36,207.49L279.91,206.76L278.93,208.54L277.88,208.31L278.31,209.25L270.96,209.42L271.84,205.76L271.02,204.86L271.44,203.71L269.60,203.49L269.64,200.77L267.50,201.69L264.90,200.28L263.99,197.97L264.37,195.59L261.49,194.29L261.69,192.33L259.89,192.38L259.04,190.37L257.56,189.78L257.88,188.33L256.59,187.63L258.43,185.19L256.76,184.26L256.67,180.84L257.36,180.33L255.45,178.54L256.10,177.57L255.16,175.86L254.01,175.59L253.44,173.62L254.42,172.87L252.30,172.44L253.00,171.31L251.76,169.24L253.86,168.55L254.04,167.15L254.53,168.06L258.31,167.11L260.22,160.40L261.49,158.81L262.64,159.76L261.72,160.87L263.20,162.38L267.90,163.02L275.24,160.46L278.49,162.95L280.34,162.05L280.74,163.62L283.75,161.74L285.54,163.83L289.70,164.47L290.87,165.43L290.38,166.03L291.90,166.39L292.86,165.09L294.10,167.46Z"><title>Île-de-France</title></path>
<path data-code="24" data-name="Centre-Val de Loire" d="M304.62,250.87L306.74,255.20L304.69,261.49L308.63,264.76L310.30,271.81L309.97,275.06L312.04,277.14L311.57,279.82L312.19,281.11L311.11,283.65L311.43,288.00L310.28,289.77L306.05,289.89L303.58,293.31L300.32,293.81L298.69,292.38L298.24,293.79L295.32,295.31L295.51,296.92L293.24,297.23L294.20,297.62L293.28,299.61L294.46,300.36L295.01,302.61L292.11,304.41L285.56,304.61L284.20,307.08L283.38,306.94L282.65,309.72L275.54,310.33L268.89,308.48L266.32,309.43L264.35,307.85L262.91,308.13L263.37,309.36L262.15,311.33L260.54,309.84L258.43,311.42L257.79,309.57L255.45,311.16L254.55,309.40L250.66,313.63L248.41,310.80L246.86,311.06L246.45,312.36L241.98,312.09L243.11,309.09L240.86,308.20L240.64,305.12L238.62,303.44L236.09,303.54L235.78,301.83L231.93,300.01L231.31,298.58L232.19,297.40L231.64,295.83L232.57,295.15L232.03,293.38L228.39,290.02L227.61,286.67L224.30,283.88L223.86,280.08L219.24,278.37L220.44,280.99L210.21,282.38L209.03,279.29L209.81,278.82L209.53,275.89L204.73,275.47L205.67,273.82L205.01,272.59L201.24,272.37L200.21,270.12L201.14,263.52L203.68,260.23L203.43,259.36L205.02,258.32L203.92,257.38L206.38,251.86L206.60,250.54L205.38,249.87L206.90,247.79L206.82,246.03L212.24,248.30L213.12,247.77L211.71,245.52L212.40,244.31L214.88,245.58L215.40,244.17L220.32,242.72L221.13,241.61L220.27,241.89L219.74,240.54L221.45,238.48L224.23,237.69L223.81,236.80L226.90,233.81L226.36,230.62L227.47,229.91L228.28,231.18L228.36,228.83L229.64,228.29L228.53,225.79L229.39,223.60L227.75,223.22L227.61,221.48L229.43,221.33L229.62,220.15L228.37,219.93L229.36,219.70L229.70,218.09L232.15,217.78L227.67,215.15L228.96,213.94L227.31,210.71L228.10,209.71L226.20,209.17L227.30,207.00L232.14,205.18L234.37,201.62L232.86,199.77L234.04,197.19L228.56,192.59L228.18,189.65L231.19,186.67L236.50,186.24L237.62,184.59L239.48,185.24L239.73,182.99L243.49,184.66L247.44,184.50L249.11,183.42L248.61,180.62L252.37,178.43L251.82,175.75L252.69,174.94L255.16,175.86L256.10,177.57L255.45,178.54L257.36,180.33L256.67,180.84L256.76,184.26L258.43,185.19L256.59,187.63L257.88,188.33L257.56,189.78L259.04,190.37L259.89,192.38L261.69,192.33L261.49,194.29L264.37,195.59L263.99,197.97L264.90,200.28L267.50,201.69L269.64,200.77L269.60,203.49L271.44,203.71L271.24,209.79L278.31,209.25L277.88,208.31L278.93,208.54L279.73,206.78L281.36,207.49L281.32,209.25L284.37,207.40L285.50,208.71L287.15,208.06L287.92,211.28L291.43,213.04L291.36,216.32L290.13,216.41L288.69,218.57L292.91,217.64L298.35,218.63L300.20,217.42L299.50,216.32L301.68,216.17L302.28,216.45L301.90,218.18L307.53,216.39L310.34,218.08L309.84,219.02L310.56,219.01L311.12,221.34L313.85,223.55L312.94,224.10L314.01,226.77L311.12,229.99L309.61,230.27L309.19,232.31L310.43,233.22L309.72,234.07L310.19,236.57L303.78,238.17L303.67,240.36L304.77,240.17L306.54,242.24L307.56,244.17L306.90,246.65L308.39,248.25L303.53,249.56L304.62,250.87Z"><title>Centre-Val de Loire</title></path>
<path data-code="27" data-name="Bourgogne-Franche-Comté" d="M332.55,292.11L331.04,291.48L330.56,292.11L331.39,293.48L329.51,293.61L330.02,295.37L326.18,297.34L325.31,294.11L323.27,294.10L322.09,295.59L319.24,293.86L316.61,295.86L310.59,290.68L311.83,286.57L311.11,283.65L312.19,281.11L311.57,279.82L312.04,277.14L309.97,275.06L310.30,271.81L308.63,264.76L304.69,261.49L306.74,255.20L303.53,249.56L308.39,248.25L306.90,246.65L307.56,244.17L306.54,242.24L304.77,240.17L303.67,240.36L303.78,238.17L310.19,236.57L309.72,234.07L310.43,233.22L309.19,232.31L309.61,230.27L311.12,229.99L314.01,226.77L312.94,224.10L313.85,223.55L311.12,221.34L310.56,219.01L309.84,219.02L310.34,218.08L306.86,216.33L311.02,211.86L309.80,208.83L311.09,205.95L322.49,205.37L323.45,203.85L325.07,206.06L327.67,205.44L332.34,211.34L331.46,212.59L332.26,213.14L330.54,215.12L332.75,215.16L333.97,217.77L335.96,216.91L335.66,215.91L336.92,216.32L336.63,218.11L338.56,218.92L339.68,222.86L341.48,224.31L340.34,225.01L340.71,226.09L341.82,226.33L342.32,225.12L342.97,226.19L342.64,229.20L346.41,228.31L347.92,229.22L348.52,228.12L350.32,229.17L352.42,227.36L353.74,228.36L353.76,226.66L354.63,226.71L355.35,228.97L357.12,229.19L357.84,227.22L366.78,226.95L366.09,224.86L367.92,223.60L375.47,224.79L376.25,225.82L375.37,227.13L378.32,228.40L377.13,230.20L378.11,230.76L379.68,229.44L383.06,234.86L380.24,237.14L380.41,238.11L381.76,237.95L382.13,242.02L384.35,240.73L384.34,241.62L385.52,241.54L385.25,242.96L387.91,244.11L389.87,242.28L389.70,243.80L392.84,245.42L392.08,246.80L392.64,247.85L395.20,245.95L396.43,247.07L398.82,242.46L402.88,242.72L404.27,240.88L405.36,242.78L408.85,242.08L408.57,240.37L409.53,238.84L408.31,237.03L408.89,234.77L410.69,234.89L411.44,232.74L413.92,233.14L414.27,231.03L416.11,230.37L417.78,226.43L418.81,226.92L417.63,228.54L418.41,228.67L420.48,227.47L421.81,224.98L425.14,223.93L426.06,224.84L425.83,227.04L427.88,228.85L434.68,227.31L436.37,228.27L437.98,231.34L442.76,228.22L450.76,235.21L451.48,234.57L452.37,236.81L457.88,238.95L459.07,242.11L457.51,246.49L460.29,246.82L462.60,250.65L461.40,252.23L456.64,252.31L457.36,254.43L455.09,255.53L452.82,259.86L457.87,258.77L459.39,260.81L455.10,263.37L455.64,265.70L451.41,269.55L451.75,270.33L446.29,274.35L445.88,275.15L446.88,275.99L443.13,279.16L438.66,280.09L436.29,282.53L437.48,284.58L436.23,288.75L437.02,290.79L424.41,301.31L426.07,303.03L422.97,307.29L423.46,308.62L415.44,318.03L410.11,318.26L409.72,315.69L407.12,314.83L407.07,313.76L405.24,316.46L400.81,318.07L400.18,317.52L400.55,314.91L399.48,315.32L398.95,313.61L398.25,315.61L396.70,312.42L397.26,311.76L394.33,310.13L395.28,309.28L394.93,308.39L391.23,307.15L390.74,305.02L389.46,304.44L385.36,306.32L382.66,304.64L381.42,305.42L381.10,304.41L375.14,322.76L373.18,322.63L372.89,320.02L373.53,319.77L371.49,318.54L372.55,317.31L371.40,315.82L369.83,316.12L369.16,318.04L367.00,316.41L364.92,317.92L363.24,316.32L361.28,316.37L360.10,322.21L356.67,323.87L355.51,323.75L355.70,322.15L353.96,321.78L353.19,322.87L350.11,321.59L345.90,323.16L345.25,321.36L342.20,320.73L342.92,318.95L342.24,316.95L346.43,314.69L345.70,314.57L345.42,310.85L346.29,307.47L344.63,305.90L341.26,306.01L340.31,303.79L336.71,303.35L336.54,300.03L332.85,294.36L332.55,292.11Z"><title>Bourgogne-Franche-Comté</title></path>
<path data-code="28" data-name="Normandie" d="M156.79,152.69L158.53,150.85L163.17,150.54L170.28,153.05L183.55,153.90L189.88,156.64L195.00,155.78L203.03,150.16L210.83,148.48L210.79,147.65L202.72,146.94L200.69,144.43L204.31,134.99L205.85,133.51L219.83,126.10L239.21,121.58L248.92,114.75L251.86,114.53L252.07,116.20L260.34,122.59L264.28,130.87L263.01,130.86L260.76,134.55L261.60,135.27L262.76,134.15L263.08,135.20L261.10,137.27L261.94,138.44L260.91,139.56L261.94,140.22L260.80,140.69L262.93,142.91L261.75,144.76L264.48,144.78L261.66,149.97L262.64,150.01L261.90,150.64L263.40,152.13L263.83,156.14L264.94,157.09L264.50,158.53L263.32,157.15L261.48,157.57L259.58,164.66L257.94,167.43L254.53,168.06L254.04,167.15L253.86,168.55L251.79,168.85L253.00,171.31L252.67,173.06L254.42,172.87L253.44,173.62L254.15,174.20L253.69,174.99L251.82,175.75L252.68,177.18L252.29,178.55L248.61,180.62L249.11,183.42L243.49,184.66L239.73,182.99L239.48,185.24L237.62,184.59L236.50,186.24L231.19,186.67L228.29,189.48L228.56,192.59L234.04,197.19L232.86,199.77L234.37,201.74L231.87,205.41L226.68,207.99L226.20,209.17L228.10,209.71L227.31,210.71L228.96,213.94L226.38,215.57L223.50,211.58L221.91,211.25L221.62,212.66L218.07,211.86L216.36,208.66L212.87,208.07L212.38,202.48L209.36,199.51L203.62,200.75L204.07,201.63L200.84,203.33L200.48,204.90L198.14,203.96L196.35,205.14L196.33,200.98L192.79,200.80L191.85,197.90L192.88,196.98L190.53,195.03L189.25,194.83L188.18,198.07L186.38,197.24L185.16,199.33L183.61,197.91L179.37,197.98L177.81,199.90L174.13,201.46L173.57,199.22L171.17,199.92L171.76,201.20L170.10,201.88L169.44,200.32L168.15,200.88L166.91,198.49L162.87,197.54L161.07,199.04L153.56,196.21L151.51,196.31L150.87,198.00L147.16,200.81L143.09,199.03L141.44,195.77L142.02,194.90L141.34,193.18L140.09,191.70L148.20,191.45L146.43,190.14L147.30,188.28L144.72,190.19L142.53,188.44L141.63,186.15L140.09,185.40L139.96,181.26L138.48,180.59L139.58,179.80L140.75,175.24L140.87,177.26L140.61,170.29L142.51,170.63L140.49,169.75L139.90,171.69L139.06,169.72L138.69,166.07L139.72,164.67L138.51,160.01L140.18,159.86L138.47,158.99L138.07,160.48L136.11,156.63L136.89,156.64L134.90,154.32L136.26,153.95L134.60,154.33L132.09,151.68L133.14,151.74L131.28,151.81L129.83,144.77L128.41,143.56L130.17,140.88L129.76,137.87L126.18,135.63L126.13,133.35L129.70,133.28L130.77,134.79L138.45,137.29L143.20,135.95L143.71,134.43L151.37,134.51L152.76,139.29L151.81,138.94L151.15,141.19L150.26,140.52L149.88,142.89L154.89,149.65L154.65,152.20L156.79,152.69Z"><title>Normandie</title></path>
<path data-code="32" data-name="Hauts-de-France" d="M351.48,119.36L354.89,120.48L354.29,122.80L355.73,123.40L355.62,125.19L353.89,130.09L355.50,131.21L350.97,135.45L350.55,137.86L347.20,138.41L349.10,141.16L348.07,142.55L349.07,142.75L349.07,143.99L347.77,144.51L348.78,147.92L347.66,148.27L347.58,152.46L343.50,149.91L339.69,150.19L341.08,151.06L340.82,153.26L338.03,152.68L333.09,154.99L334.35,159.13L333.42,160.19L337.05,162.21L336.97,163.31L332.28,163.63L331.46,165.26L332.88,167.57L331.01,168.54L330.91,169.64L333.31,169.43L334.34,170.97L332.94,171.50L332.25,173.53L331.15,173.84L331.56,174.72L328.82,176.42L326.31,180.31L323.37,178.59L322.89,175.59L321.48,176.60L320.53,174.46L319.06,174.97L318.48,173.09L315.45,171.05L316.32,168.99L314.37,165.99L311.83,165.43L311.66,167.16L309.57,166.82L308.77,167.91L308.10,166.82L303.88,167.96L302.20,166.50L299.45,168.48L295.68,165.92L293.82,167.40L292.72,165.05L291.90,166.39L290.38,166.03L290.87,165.43L289.70,164.47L285.54,163.83L283.75,161.74L280.74,163.62L280.34,162.05L278.49,162.95L275.24,160.46L267.90,163.02L262.66,162.05L261.69,160.62L262.64,159.76L261.11,159.15L261.40,157.73L263.32,157.15L264.50,158.53L264.94,157.09L263.83,156.14L263.40,152.13L261.90,150.64L262.64,150.01L261.66,149.82L264.48,144.78L261.75,144.76L262.93,142.91L260.80,140.69L261.94,140.22L260.91,139.56L261.94,138.44L261.10,137.27L263.04,134.57L260.76,134.55L263.01,130.86L264.28,130.87L260.34,122.59L252.07,116.20L251.86,114.53L249.33,114.78L251.99,112.42L254.75,107.10L256.14,106.60L257.30,108.30L260.54,108.43L255.16,103.32L255.81,98.89L258.98,99.38L255.80,96.94L256.81,89.62L259.63,91.05L256.58,87.61L256.06,79.47L257.54,79.62L257.65,77.15L256.77,71.62L259.00,71.20L264.13,67.14L275.12,64.30L276.76,65.23L276.25,64.50L277.81,62.89L278.90,64.33L279.48,62.82L278.59,62.35L286.87,62.03L292.44,59.96L293.49,64.53L295.66,67.61L294.08,69.05L294.75,69.53L294.42,72.81L295.75,74.74L299.04,74.88L301.47,79.37L305.78,81.18L307.42,78.03L314.84,75.95L316.85,80.11L318.92,80.70L318.14,82.99L319.60,86.35L319.94,90.10L323.18,91.95L326.81,89.67L328.50,90.22L327.80,92.17L331.77,91.65L333.77,93.82L334.23,96.72L333.58,98.46L335.55,102.00L336.92,99.45L340.62,99.33L342.57,100.71L347.14,99.02L350.60,101.95L351.27,104.46L352.47,104.33L351.80,103.53L352.28,102.76L353.96,103.61L354.43,104.73L351.88,106.80L352.03,109.43L350.96,111.00L353.56,110.98L354.82,114.41L351.90,116.13L351.29,117.50L352.30,118.50L351.48,119.36Z"><title>Hauts-de-France</title></path>
<path data-code="44" data-name="Grand Est" d="M354.89,120.48L357.69,119.84L362.81,121.56L371.93,118.46L371.91,113.68L376.80,109.17L379.46,110.85L378.36,111.87L378.54,113.53L377.75,112.80L376.59,114.69L377.40,116.08L375.51,119.82L379.20,123.07L377.77,125.44L378.72,127.88L377.78,129.26L383.10,128.89L386.73,130.86L389.42,134.65L393.29,134.52L395.56,136.69L394.82,138.99L396.28,137.97L399.13,139.84L400.18,141.40L399.61,142.18L400.48,142.89L399.82,144.01L400.49,145.03L403.85,143.40L405.88,144.65L407.07,142.29L410.93,142.86L411.82,141.58L414.25,142.70L415.24,144.92L418.18,144.96L419.26,145.44L419.50,147.49L421.84,147.76L422.42,146.78L424.01,147.49L426.03,144.76L429.19,144.19L432.63,146.74L436.12,146.20L440.34,148.58L440.90,149.30L440.29,150.26L442.55,152.11L441.22,153.13L445.09,156.72L444.76,157.95L445.81,158.36L446.04,160.21L447.05,160.00L446.61,161.63L447.61,162.96L451.17,163.61L452.17,162.12L451.29,160.30L454.53,159.75L458.59,161.52L459.30,165.69L461.03,163.39L463.17,165.26L468.16,165.56L470.73,163.95L470.84,162.49L473.75,161.86L473.30,162.84L475.57,162.64L475.41,164.41L476.87,166.52L480.58,167.77L480.80,168.82L485.35,169.29L486.70,168.20L489.35,169.93L491.85,168.61L497.52,172.22L502.93,173.50L499.77,176.86L497.69,182.11L493.25,184.68L492.93,186.62L488.47,190.76L486.96,193.74L487.14,197.54L485.72,199.02L484.38,204.19L484.85,207.68L482.95,209.08L481.94,213.40L478.66,218.77L478.34,223.39L480.31,226.70L477.89,231.64L478.13,233.57L476.89,237.04L477.56,239.66L476.23,241.42L479.21,246.86L475.79,249.83L476.96,250.45L475.71,250.83L475.89,252.46L473.27,252.17L472.88,253.01L474.15,253.54L472.22,255.41L466.40,256.23L463.61,255.01L464.73,252.29L462.11,251.80L462.60,250.65L460.29,246.82L457.51,246.49L459.07,242.11L457.88,238.95L452.37,236.81L451.48,234.57L450.76,235.21L442.76,228.22L437.98,231.34L436.37,228.27L434.68,227.31L427.88,228.85L425.83,227.04L426.06,224.84L425.14,223.93L421.81,224.98L420.48,227.47L418.41,228.67L417.63,228.54L418.81,226.92L417.78,226.43L416.11,230.37L414.27,231.03L413.92,233.14L411.44,232.74L410.69,234.89L408.89,234.77L408.31,237.03L409.53,238.84L408.57,240.37L408.85,242.08L405.36,242.78L404.27,240.88L402.88,242.72L398.82,242.46L396.43,247.07L395.20,245.95L392.64,247.85L392.08,246.80L392.84,245.42L389.70,243.80L389.87,242.28L387.91,244.11L385.25,242.96L385.52,241.54L384.34,241.62L384.35,240.73L382.13,242.02L381.76,237.95L380.41,238.11L380.24,237.14L383.06,234.86L379.68,229.44L378.11,230.76L377.13,230.20L378.32,228.40L375.37,227.13L376.25,225.82L375.47,224.79L367.92,223.60L366.09,224.86L366.78,226.95L357.84,227.22L357.12,229.19L355.35,228.97L354.63,226.71L353.76,226.66L353.74,228.36L352.42,227.36L350.32,229.17L348.52,228.12L347.92,229.22L346.41,228.31L342.39,229.03L342.97,226.19L342.32,225.12L341.82,226.33L340.71,226.09L340.34,225.01L341.48,224.31L339.68,222.86L338.56,218.92L336.63,218.11L336.92,216.32L335.66,215.91L335.96,216.91L333.97,217.77L332.75,215.16L330.72,215.35L332.26,213.14L331.46,212.59L332.08,210.70L327.67,205.44L325.07,206.06L324.88,202.95L323.75,202.57L324.30,201.01L323.44,199.56L325.34,198.99L324.26,196.97L327.08,196.25L326.48,194.69L329.93,192.21L328.47,191.32L328.99,190.63L325.95,191.26L326.30,190.28L325.56,189.71L326.94,187.88L326.64,185.74L324.03,184.82L324.39,183.28L325.69,182.88L324.21,181.92L327.29,181.60L327.09,178.89L334.34,170.97L333.31,169.43L330.91,169.64L331.01,168.54L332.88,167.57L331.46,165.26L332.28,163.63L336.97,163.31L337.05,162.21L333.42,160.19L334.35,159.13L333.09,154.99L338.03,152.68L340.82,153.26L341.08,151.06L339.69,150.19L343.50,149.91L347.58,152.46L347.66,148.27L348.78,147.92L347.77,144.51L349.07,143.99L349.07,142.75L348.07,142.55L349.10,141.16L347.18,138.48L350.55,137.86L350.97,135.45L355.50,131.21L353.89,130.09L355.62,125.19L355.73,123.40L354.29,122.80L354.89,120.48Z"><title>Grand Est</title></path>
<path data-code="52" data-name="Pays de la Loire" d="M107.24,254.74L108.56,253.19L109.41,254.32L112.48,254.03L113.24,251.11L115.17,252.30L117.38,251.31L117.10,252.14L118.12,252.54L118.44,250.78L120.57,250.15L121.21,243.93L125.16,241.59L125.65,242.82L129.46,240.82L136.89,240.76L138.16,237.86L143.81,235.73L143.52,233.99L152.12,237.16L155.47,227.06L160.64,225.02L157.45,211.17L159.55,207.66L158.13,202.01L158.98,197.67L161.07,199.04L162.87,197.54L166.91,198.49L168.15,200.88L169.44,200.32L170.10,201.88L171.76,201.20L171.17,199.92L173.57,199.22L174.13,201.46L177.81,199.90L179.37,197.98L183.61,197.91L185.16,199.33L186.38,197.24L188.18,198.07L189.25,194.83L190.53,195.03L192.88,196.98L191.85,197.90L192.79,200.80L196.33,200.98L196.35,205.14L198.14,203.96L200.48,204.90L200.84,203.33L204.07,201.63L203.62,200.75L209.36,199.51L212.38,202.48L212.31,206.93L213.19,208.35L216.36,208.66L218.07,211.86L221.62,212.66L221.91,211.25L223.50,211.58L225.81,215.32L227.75,214.81L232.15,217.78L229.70,218.09L229.36,219.70L228.37,219.93L229.62,220.15L229.43,221.33L227.61,221.48L227.75,223.22L229.39,223.60L228.53,225.79L229.64,228.29L228.36,228.83L228.28,231.18L227.47,229.91L226.36,230.62L226.90,233.81L223.81,236.80L224.23,237.69L221.45,238.48L219.74,240.54L220.98,242.19L215.40,244.17L214.88,245.58L212.40,244.31L211.71,245.52L213.12,247.77L212.24,248.30L206.82,246.03L206.90,247.79L205.38,249.87L206.60,250.54L206.38,251.86L203.92,257.38L205.00,258.36L203.43,259.36L203.68,260.23L201.14,263.52L200.58,269.28L197.78,270.37L196.91,274.10L195.05,273.31L193.46,275.81L191.60,274.96L193.03,273.52L191.58,272.93L183.58,273.81L183.17,275.13L180.45,275.84L181.22,274.30L179.93,274.27L177.60,275.27L178.15,276.98L176.19,278.82L171.74,279.57L169.08,278.44L164.83,280.28L168.35,283.00L167.48,284.85L169.30,287.12L172.37,288.83L171.32,291.21L173.95,294.72L173.04,295.46L174.66,296.72L173.85,298.19L175.50,298.95L175.12,301.45L175.95,303.68L174.31,304.85L175.74,307.87L174.52,310.97L175.25,311.32L175.65,310.07L178.33,311.53L173.92,315.36L172.44,314.82L170.58,316.01L168.48,313.88L163.77,315.62L162.59,314.95L163.83,312.33L159.25,313.54L157.68,315.51L153.71,315.32L153.55,317.95L150.27,314.88L150.39,316.61L151.14,316.72L150.24,316.70L148.52,313.87L143.98,313.89L142.16,310.58L137.24,309.73L131.16,305.81L129.50,299.58L126.33,295.15L118.95,288.39L118.47,284.61L120.02,284.27L123.13,278.18L124.94,277.16L120.38,272.59L115.06,271.62L118.03,269.82L117.92,264.35L117.28,263.70L113.18,266.24L110.33,263.80L108.24,264.89L103.99,263.16L105.27,262.68L105.60,261.12L103.53,258.67L106.88,256.19L108.17,256.61L107.24,254.74ZM112.93,294.26L113.72,295.41L110.18,294.84L109.39,293.37L112.93,294.26ZM116.88,281.32L114.43,280.80L112.83,277.39L115.86,277.81L115.46,279.79L118.40,281.38L118.74,284.35L116.88,281.32Z"><title>Pays de la Loire</title></path>
<path data-code="53" data-name="Bretagne" d="M123.96,194.93L125.23,196.49L124.41,198.90L126.13,197.44L124.69,193.94L125.91,194.24L123.72,193.14L124.17,192.30L123.15,190.42L124.64,188.61L126.50,188.62L125.71,188.27L126.54,187.64L127.74,188.30L129.94,187.14L130.29,188.82L128.95,190.67L129.86,192.17L132.81,192.99L140.09,191.70L141.34,193.18L142.02,194.90L141.44,195.77L143.09,199.03L145.38,200.50L148.12,200.19L151.81,196.15L158.62,198.01L158.13,202.01L159.55,207.66L157.45,211.17L160.64,225.02L155.47,227.06L152.12,237.16L143.52,233.99L143.81,235.73L138.16,237.86L136.89,240.76L129.46,240.82L125.83,242.80L125.16,241.59L122.77,242.89L120.62,244.93L120.57,250.15L118.44,250.78L118.12,252.54L117.10,252.14L117.38,251.31L115.17,252.30L113.24,251.11L112.48,254.03L109.41,254.32L108.56,253.19L106.43,255.10L105.67,252.35L108.65,252.21L104.44,250.46L100.83,251.72L102.90,250.79L103.52,249.19L102.49,248.56L101.85,250.30L101.61,248.35L101.04,250.32L99.41,249.66L101.23,250.60L99.63,250.96L99.23,252.40L97.39,251.62L94.04,252.68L90.37,248.89L97.02,249.78L97.62,247.28L98.70,247.10L98.68,244.62L97.85,244.02L97.67,245.55L98.47,246.09L97.66,245.85L98.20,246.48L97.52,247.15L95.41,245.61L97.06,245.93L96.27,244.59L94.82,244.20L95.22,245.49L92.28,245.43L91.26,248.00L89.96,247.37L90.23,246.47L89.54,247.38L89.56,245.22L88.01,243.45L88.92,245.96L88.31,247.24L89.84,249.03L88.09,248.80L87.41,247.11L87.61,248.38L86.29,247.04L86.49,248.36L85.55,247.29L83.67,248.55L82.36,246.85L82.40,250.79L84.09,253.61L81.81,252.84L81.30,250.39L82.23,249.51L82.03,247.70L79.40,244.31L79.46,242.88L82.31,241.18L80.96,241.43L81.69,240.38L82.34,241.05L83.29,239.98L81.56,240.25L82.22,239.58L81.76,238.46L81.28,239.71L79.77,238.86L81.07,241.02L79.20,241.49L79.82,242.13L79.26,244.21L76.08,241.83L73.97,242.00L76.93,241.78L73.68,240.71L76.93,236.21L74.46,239.04L72.83,234.40L72.42,235.43L74.03,239.53L72.87,241.17L70.45,241.51L67.64,237.76L68.04,235.74L67.19,234.35L67.85,233.28L67.14,232.55L67.91,235.97L67.27,237.91L63.37,236.53L62.01,237.15L60.46,235.73L63.47,234.39L61.46,234.25L60.09,235.73L59.38,233.39L59.74,236.05L55.52,236.47L53.81,234.00L54.61,232.75L53.56,233.22L51.04,230.05L50.48,230.78L51.04,233.03L48.72,233.52L46.93,232.59L48.46,233.15L47.27,231.81L46.52,232.57L44.84,230.06L46.15,228.31L47.32,228.56L46.14,228.28L46.67,226.97L45.86,226.10L46.09,228.61L44.98,229.15L44.81,230.70L43.67,230.18L46.00,232.59L43.91,233.80L43.58,231.69L42.21,232.38L44.32,234.23L43.42,235.90L36.35,236.02L36.11,234.83L37.39,233.76L36.00,229.45L33.51,226.23L30.33,224.59L30.54,223.35L32.13,223.16L30.22,223.17L30.38,224.30L29.29,225.22L22.78,223.04L24.00,222.86L23.76,221.77L34.79,219.50L38.93,220.43L40.09,216.97L38.50,214.31L33.03,212.41L31.63,212.89L29.69,216.24L29.04,212.83L30.09,211.89L27.13,211.67L26.90,210.19L29.10,210.13L28.63,208.13L30.42,206.92L29.49,208.86L30.37,210.02L31.72,208.57L31.03,209.41L31.59,210.19L40.12,209.38L39.50,210.54L40.34,211.45L45.99,212.13L45.87,213.54L46.61,211.54L41.37,211.64L39.83,210.31L43.22,209.33L39.76,208.50L40.97,207.73L37.76,208.32L40.41,206.05L33.27,207.72L35.11,204.86L40.20,201.41L35.33,204.37L27.67,207.14L24.63,206.24L23.67,207.58L21.56,207.54L21.30,206.03L22.58,205.65L21.09,205.89L22.04,204.98L20.76,203.03L21.90,200.24L23.56,199.77L21.98,199.96L21.48,197.44L23.16,195.45L24.14,195.72L24.13,194.72L27.03,194.25L31.49,196.01L27.54,194.28L28.05,192.69L32.49,194.56L29.16,192.63L30.07,191.16L31.64,192.00L35.44,191.19L34.04,190.19L37.99,188.99L39.31,189.81L38.42,190.64L39.21,191.37L42.94,190.32L41.98,189.98L45.41,187.93L48.13,189.31L48.27,187.54L51.27,186.31L51.81,192.26L52.60,193.19L52.00,190.43L53.08,189.08L54.22,189.32L53.72,190.07L55.69,192.76L56.98,191.59L55.92,191.57L55.22,189.30L55.88,189.90L55.58,188.34L56.82,186.79L63.40,187.98L62.81,189.95L64.11,188.50L66.00,189.11L65.58,186.77L66.86,185.27L65.52,183.63L68.57,180.35L71.36,181.33L70.90,182.51L72.49,182.38L75.28,180.38L77.42,180.59L78.90,178.68L79.70,180.55L78.44,183.02L79.07,183.28L80.44,180.07L84.46,178.03L83.45,178.85L84.39,179.33L83.74,179.17L83.60,180.68L84.55,180.78L82.63,184.55L84.51,181.32L86.87,181.36L87.02,182.47L85.49,183.19L89.85,184.84L89.24,186.65L93.62,190.15L93.72,193.26L97.78,195.49L97.53,196.79L98.99,198.91L98.97,196.75L100.89,197.07L103.75,193.14L106.69,191.91L106.16,190.70L108.01,190.29L108.78,191.35L112.45,188.37L113.66,189.67L111.78,192.04L112.49,192.56L115.06,190.65L116.33,194.57L116.99,192.63L117.67,194.39L118.70,192.12L119.63,192.88L118.64,191.26L122.11,190.98L124.33,193.97L123.96,194.93ZM9.39,201.88L8.84,201.73L9.53,200.80L8.00,201.04L10.50,199.39L11.91,200.43L9.39,201.88ZM71.59,245.54L68.14,244.09L71.29,244.31L71.59,245.54ZM78.49,261.39L77.45,259.87L78.05,257.98L85.13,262.22L83.80,263.82L79.12,263.07L78.02,261.94L78.49,261.39Z"><title>Bretagne</title></path>
<path data-code="75" data-name="Nouvelle-Aquitaine" d="M250.60,313.63L254.55,309.40L255.45,311.16L257.79,309.57L258.43,311.42L260.54,309.84L262.15,311.33L263.37,309.36L262.91,308.13L264.35,307.85L266.32,309.43L271.46,308.59L275.54,310.33L281.49,309.40L282.65,309.72L282.86,311.73L284.51,311.95L284.75,312.73L283.45,313.25L284.14,314.61L285.75,315.59L286.54,314.45L287.84,316.98L290.04,317.17L291.71,322.17L292.96,322.93L292.62,327.60L294.55,330.42L294.79,333.99L293.10,334.58L292.29,336.41L292.79,336.89L290.46,339.48L288.66,339.34L288.20,341.10L286.61,341.44L288.70,345.14L291.60,347.64L291.50,351.43L290.29,351.34L289.31,353.80L291.37,356.12L290.29,363.33L291.78,364.75L289.89,365.90L285.22,363.61L285.92,365.03L285.56,367.70L279.25,373.82L279.70,376.09L280.83,376.93L278.86,378.41L278.71,381.30L275.77,382.71L277.46,385.36L277.18,386.47L271.93,386.99L270.37,388.24L268.87,386.86L264.89,389.87L262.97,389.04L263.02,388.07L258.55,383.91L255.41,384.16L255.13,383.21L250.38,385.38L251.61,390.17L250.50,390.53L251.59,392.25L248.78,393.95L248.71,395.79L246.28,396.61L246.93,399.59L243.55,402.60L240.67,403.32L240.91,405.08L238.74,407.51L239.06,408.62L234.55,410.08L235.84,412.14L236.28,415.98L237.37,416.32L237.61,418.95L233.11,420.77L232.27,418.64L231.40,418.77L230.40,422.62L233.42,424.49L232.57,424.90L231.76,429.03L229.80,429.36L231.14,430.00L231.32,431.83L227.41,431.48L227.80,433.28L226.24,433.46L225.57,435.94L222.75,437.91L220.20,434.96L218.79,436.27L215.24,436.25L214.60,437.66L209.44,439.68L206.79,437.98L205.25,438.42L204.06,440.66L202.92,439.10L200.29,441.26L201.07,443.67L200.41,444.72L197.35,442.96L198.48,441.68L196.89,440.07L194.71,442.98L191.60,442.52L189.78,443.94L189.40,444.88L191.36,446.32L190.50,446.82L191.13,449.36L189.82,449.46L190.13,452.56L191.04,453.27L188.95,454.83L189.27,457.66L187.82,458.30L187.88,459.63L189.08,459.75L189.26,461.49L194.65,461.54L194.75,463.60L195.79,463.38L196.40,466.38L197.57,467.44L195.80,467.90L196.35,470.25L195.74,470.74L198.14,468.89L198.02,472.74L199.32,474.18L196.52,476.60L197.60,478.23L196.40,481.08L195.49,480.80L195.72,483.22L193.87,483.05L192.82,485.84L191.06,486.55L191.51,489.89L188.67,490.66L188.62,491.97L187.60,492.38L187.81,496.25L186.12,497.17L186.73,500.56L184.04,503.35L181.82,503.62L179.68,501.91L177.25,504.44L175.89,501.65L171.14,498.26L171.19,495.62L170.36,494.43L163.30,495.20L156.98,491.42L155.96,492.27L155.15,490.83L149.78,489.03L151.22,486.36L148.45,487.67L148.13,491.19L144.89,490.22L143.71,488.06L145.87,485.86L147.09,482.55L146.84,478.87L141.41,476.94L140.32,477.30L139.88,479.33L138.69,479.22L138.13,476.33L134.21,476.88L133.92,475.02L132.09,473.90L132.03,472.46L136.43,471.94L138.85,469.67L144.63,458.34L149.88,430.07L151.79,414.74L151.59,410.14L154.00,404.04L155.96,403.93L155.70,404.96L161.09,404.52L158.66,401.96L159.84,402.16L159.32,401.44L155.02,397.69L152.61,402.13L152.17,405.87L151.52,405.38L155.22,369.67L155.44,360.23L157.85,355.62L161.63,354.40L160.40,352.40L153.47,348.43L152.68,348.72L153.97,349.67L152.71,349.48L152.24,343.89L156.27,342.76L154.92,339.92L157.02,339.73L158.49,336.80L157.53,335.18L158.84,334.89L156.73,332.05L158.89,332.51L159.27,331.61L157.49,327.19L155.93,326.52L156.48,325.44L154.81,324.82L155.27,323.89L152.28,323.50L157.11,318.23L156.65,314.99L158.43,315.22L159.25,313.54L163.83,312.33L162.59,314.95L166.68,315.24L167.15,314.00L168.62,313.89L168.52,314.81L171.51,316.03L172.41,314.83L174.23,315.25L178.33,311.53L175.65,310.07L175.25,311.32L174.52,310.97L175.74,307.87L174.40,304.29L175.72,304.05L175.94,302.89L175.12,301.45L175.50,298.95L173.85,298.19L174.66,296.72L173.04,295.46L173.95,294.72L171.32,291.21L172.37,288.83L169.30,287.12L167.48,284.85L168.35,283.00L164.83,280.28L169.08,278.44L171.74,279.57L176.19,278.82L178.15,276.98L177.60,275.27L179.93,274.27L181.22,274.30L180.45,275.84L183.17,275.13L183.58,273.81L191.58,272.93L193.03,273.52L191.60,274.96L193.46,275.81L195.05,273.31L196.91,274.10L197.78,270.37L200.05,269.68L201.24,272.37L205.01,272.59L205.67,273.82L204.73,275.47L209.53,275.89L209.81,278.82L209.03,279.29L210.21,282.38L220.44,280.99L219.24,278.37L223.86,280.08L224.30,283.88L227.61,286.67L228.39,290.02L232.03,293.38L232.57,295.15L231.64,295.83L232.19,297.40L231.31,298.58L232.12,300.29L235.78,301.83L236.09,303.54L238.62,303.44L240.64,305.12L240.86,308.20L243.11,309.09L241.98,312.09L246.45,312.36L246.86,311.06L248.41,310.80L250.60,313.63ZM194.41,473.52L195.03,474.72L193.95,474.92L194.15,476.00L195.45,476.27L195.83,473.71L194.78,472.70L194.41,473.52ZM194.41,479.71L195.30,478.17L194.10,476.09L193.03,478.15L194.41,479.71ZM143.42,320.97L145.94,319.90L144.97,320.96L148.09,321.18L151.79,323.46L149.32,324.45L144.14,321.39L141.46,321.38L140.39,319.16L142.91,318.50L143.66,319.73L142.17,320.06L143.42,320.97ZM151.96,340.45L151.23,338.53L146.94,334.75L145.96,329.65L149.56,332.53L152.43,333.07L152.57,336.11L154.29,338.27L153.53,340.21L153.99,341.33L152.85,342.71L151.96,340.45Z"><title>Nouvelle-Aquitaine</title></path>
<path data-code="76" data-name="Occitanie" d="M264.33,515.51L262.11,514.65L262.48,513.18L257.52,512.73L255.57,511.11L252.96,511.33L252.88,513.40L251.44,513.93L248.46,507.71L243.72,507.27L241.38,508.28L238.17,504.03L234.74,504.12L233.76,503.09L232.50,503.98L224.45,500.11L222.62,501.34L223.05,503.11L222.11,504.28L222.91,504.71L221.99,505.82L223.40,507.49L223.26,509.23L213.88,509.24L211.56,507.45L209.15,510.18L207.85,507.90L204.73,506.77L198.30,509.51L196.13,509.17L195.68,507.79L194.28,507.65L192.28,503.49L191.22,504.12L186.89,501.19L186.12,497.17L187.81,496.25L187.60,492.38L188.62,491.97L188.67,490.66L191.51,489.89L191.06,486.55L192.82,485.84L193.87,483.05L195.72,483.22L195.49,480.80L196.40,481.08L197.60,478.23L196.52,476.60L199.32,474.18L198.02,472.74L198.14,468.89L195.74,470.74L196.35,470.25L195.80,467.90L197.57,467.44L196.40,466.38L195.79,463.38L194.75,463.60L194.65,461.54L189.26,461.49L189.08,459.75L187.88,459.63L187.82,458.30L189.27,457.66L188.95,454.83L191.04,453.27L190.13,452.56L189.82,449.46L191.13,449.36L190.50,446.82L191.36,446.32L189.37,444.64L191.60,442.52L194.71,442.98L196.89,440.07L198.48,441.68L197.35,442.96L200.41,444.72L201.07,443.67L200.29,441.26L202.92,439.10L204.06,440.66L205.25,438.42L206.79,437.98L209.44,439.68L214.60,437.66L215.24,436.25L218.79,436.27L220.20,434.96L223.29,437.76L225.57,435.94L226.24,433.46L227.80,433.28L227.41,431.48L231.32,431.83L231.14,430.00L229.80,429.36L231.76,429.03L232.57,424.90L233.42,424.49L230.40,422.62L231.40,418.77L232.27,418.64L233.11,420.77L237.61,418.95L237.37,416.32L236.28,415.98L235.84,412.14L234.55,410.08L239.06,408.62L238.74,407.51L240.91,405.08L240.67,403.32L245.89,400.96L247.19,398.27L246.28,396.61L248.71,395.79L248.78,393.95L251.59,392.25L250.50,390.53L251.61,390.17L250.38,385.38L255.13,383.21L255.41,384.16L259.15,384.18L263.92,389.79L268.87,386.86L270.37,388.24L274.58,386.96L276.22,390.50L275.37,391.82L278.45,395.82L277.06,401.83L278.15,401.89L278.88,403.12L278.49,405.04L279.93,406.27L280.24,404.39L282.81,403.53L284.34,403.38L285.37,404.96L290.13,404.41L290.76,402.28L292.99,400.62L292.62,398.75L294.45,396.78L294.55,394.09L299.57,388.85L300.97,390.58L300.89,393.48L304.06,392.42L305.11,396.98L306.95,397.75L305.98,398.45L306.80,399.09L306.95,402.79L308.58,404.71L309.87,400.99L310.70,400.95L311.04,396.18L311.94,394.40L312.93,394.64L313.10,391.77L314.48,390.88L316.23,393.12L318.00,391.70L318.45,388.94L319.84,389.64L323.04,387.02L324.62,388.83L324.82,391.32L326.95,395.89L331.05,394.99L331.23,392.31L332.58,392.07L334.14,393.36L333.80,394.81L336.74,394.32L339.21,398.27L340.10,397.66L340.17,399.18L341.66,399.58L341.14,401.11L341.98,401.88L341.44,402.92L342.75,407.49L344.47,408.68L345.81,413.91L348.80,417.53L347.76,418.27L348.00,422.12L350.96,421.13L355.81,425.04L358.32,421.10L360.75,420.64L360.90,423.64L362.56,424.04L363.07,421.03L364.98,420.80L366.94,423.02L369.88,424.06L371.22,427.75L372.41,427.73L372.99,429.18L372.93,434.83L374.33,434.50L377.48,438.67L375.09,442.52L370.02,446.29L370.94,447.43L370.04,448.22L370.39,450.75L368.92,453.93L369.49,456.03L364.30,455.29L362.04,459.29L363.75,459.96L363.31,461.18L358.63,464.05L357.88,462.98L358.28,464.44L355.13,465.99L354.79,468.08L350.97,466.51L350.58,465.51L351.41,464.24L350.61,463.32L346.10,463.36L342.05,465.59L336.11,471.24L333.06,472.20L328.11,478.16L322.91,477.76L315.54,484.21L311.14,493.44L310.72,496.37L311.50,497.12L310.16,508.54L311.17,517.10L314.48,518.63L313.98,520.13L315.68,522.88L312.44,523.45L310.75,520.82L307.30,520.42L306.24,521.80L303.32,521.63L301.00,524.16L299.39,523.49L297.19,524.55L296.36,525.52L297.25,527.88L293.37,527.05L291.96,528.38L290.06,527.97L288.25,525.16L281.75,522.74L277.83,523.67L275.38,526.84L272.82,527.64L270.94,525.78L269.91,521.93L262.28,519.84L262.42,516.82L264.33,515.51ZM270.77,521.03L270.80,521.97L272.78,522.03L271.86,519.79L270.77,521.03ZM194.41,479.71L193.03,478.15L194.10,476.09L195.30,478.17L194.41,479.71ZM194.41,473.52L194.78,472.70L195.83,473.71L195.45,476.27L194.15,476.00L193.95,474.92L195.03,474.72L194.41,473.52Z"><title>Occitanie</title></path>
<path data-code="84" data-name="Auvergne-Rhône-Alpes" d="M375.14,322.76L381.10,304.41L381.42,305.42L382.66,304.64L385.36,306.32L389.46,304.44L390.74,305.02L391.23,307.15L394.93,308.39L395.28,309.28L394.33,310.13L397.26,311.76L396.70,312.42L398.25,315.61L398.95,313.61L399.48,315.32L400.55,314.91L400.18,317.52L400.81,318.07L405.24,316.46L407.07,313.76L407.12,314.83L409.72,315.69L410.11,318.26L414.84,318.22L416.92,317.02L422.40,309.94L426.20,311.93L426.58,312.60L424.07,316.97L424.88,318.78L419.35,320.70L418.94,321.67L420.11,322.42L418.70,325.36L422.21,324.11L425.32,324.64L431.18,320.18L431.74,318.50L430.15,318.97L429.07,317.35L431.58,312.59L433.04,312.41L434.68,314.01L439.27,310.55L450.09,311.12L448.85,313.47L452.28,317.25L450.02,321.28L449.76,324.79L453.59,325.58L452.69,329.65L454.99,328.82L457.68,332.35L458.96,336.36L455.12,340.40L452.82,340.28L452.38,341.62L450.59,340.97L450.20,346.91L451.97,349.03L453.68,349.28L454.14,350.84L457.32,351.47L456.48,354.29L457.30,358.72L459.31,359.23L459.07,360.38L461.10,360.64L461.52,362.51L464.11,363.91L463.38,366.41L461.40,368.21L462.38,372.03L459.95,374.47L459.04,373.62L456.02,374.58L455.33,376.57L453.28,376.77L453.31,378.39L451.66,378.90L448.70,377.16L443.60,379.86L439.17,379.87L438.06,380.67L438.28,382.71L433.79,381.95L433.82,380.30L432.66,379.13L428.85,379.79L429.33,381.87L428.43,382.21L427.83,385.04L432.25,385.75L432.23,388.22L433.56,388.85L433.38,393.54L430.96,392.44L429.53,393.63L425.20,392.95L422.37,395.56L420.87,394.51L418.41,396.16L419.55,397.41L418.47,398.56L413.88,398.56L412.93,401.31L414.01,402.26L412.53,404.25L407.02,404.37L407.22,406.49L405.38,410.14L407.87,412.35L406.58,412.39L405.91,414.08L400.24,412.49L400.46,415.24L401.71,415.81L398.76,416.48L399.67,418.27L399.26,419.36L401.46,421.13L406.47,421.29L405.77,422.80L406.89,423.21L407.21,424.91L408.68,424.92L408.68,428.79L407.08,430.07L408.53,430.45L408.36,431.37L406.63,431.15L406.94,430.24L405.82,429.00L404.60,429.14L404.69,431.07L401.87,433.02L397.46,430.89L397.50,428.44L396.42,427.72L389.13,426.96L388.72,424.46L389.48,422.36L387.27,424.37L385.51,422.72L376.86,426.99L376.04,422.94L374.47,421.80L370.34,421.56L370.29,424.74L364.90,420.79L363.07,421.03L362.56,424.04L361.06,423.80L360.63,420.63L357.01,422.26L355.81,425.04L350.96,421.13L348.17,422.23L347.76,418.27L348.80,417.53L345.81,413.91L344.47,408.68L342.75,407.49L341.44,402.92L341.98,401.88L341.14,401.11L341.66,399.58L340.17,399.18L340.10,397.66L339.21,398.27L336.74,394.32L333.80,394.81L334.14,393.36L332.58,392.07L331.23,392.31L331.05,394.99L326.95,395.89L324.82,391.32L324.62,388.83L323.03,387.01L319.84,389.64L318.45,388.94L318.00,391.70L316.23,393.12L314.48,390.88L313.10,391.77L312.93,394.64L311.94,394.40L311.04,396.18L310.70,400.95L309.87,400.99L308.58,404.71L306.95,402.79L306.80,399.09L305.98,398.45L306.95,397.75L305.11,396.98L304.06,392.42L300.89,393.48L300.97,390.58L299.57,388.85L295.31,392.85L294.45,396.78L292.62,398.75L292.99,400.62L290.76,402.28L289.57,404.81L285.37,404.96L284.34,403.38L282.81,403.53L280.24,404.39L279.93,406.27L278.49,405.04L278.88,403.12L278.15,401.89L277.06,401.83L278.45,395.82L275.37,391.82L276.22,390.50L274.58,386.96L277.30,386.23L275.77,382.71L278.71,381.30L278.86,378.41L280.83,376.93L279.70,376.09L279.25,373.82L285.56,367.70L285.92,365.03L285.22,363.61L289.89,365.90L291.61,365.23L290.29,363.33L291.37,356.12L289.31,353.80L290.29,351.34L291.50,351.43L291.60,347.64L288.70,345.14L286.61,341.44L288.20,341.10L288.66,339.34L290.46,339.48L292.79,336.89L292.29,336.41L293.10,334.58L294.88,333.70L294.22,332.75L294.55,330.42L292.62,327.60L292.96,322.93L291.71,322.17L291.29,319.37L289.64,316.80L287.84,316.98L286.75,314.55L285.75,315.59L283.39,313.90L284.75,312.73L282.86,311.73L282.73,308.17L285.77,304.50L292.11,304.41L295.01,302.61L294.46,300.36L293.28,299.61L294.20,297.62L293.24,297.23L295.51,296.92L295.32,295.31L298.24,293.79L298.34,292.65L299.34,292.21L300.32,293.81L303.58,293.31L306.05,289.89L309.90,289.42L311.73,292.33L316.61,295.86L319.24,293.86L322.09,295.59L324.87,294.03L326.02,295.29L325.62,296.79L327.09,297.40L328.29,295.64L330.02,295.37L329.54,293.57L331.39,293.48L330.56,292.11L331.38,291.44L336.05,298.70L336.71,303.35L340.31,303.79L341.26,306.01L344.63,305.90L346.29,307.47L345.42,310.85L345.70,314.57L346.43,314.69L342.46,316.56L342.50,320.96L345.25,321.36L345.90,323.16L350.11,321.59L353.19,322.87L353.96,321.78L355.70,322.15L355.51,323.75L356.67,323.87L360.10,322.21L361.28,316.37L363.24,316.32L364.92,317.92L367.00,316.41L369.16,318.04L369.83,316.12L371.40,315.82L372.55,317.31L371.49,318.54L373.53,319.77L372.89,320.02L373.18,322.63L375.14,322.76ZM379.31,419.69L378.44,420.74L379.40,421.12L379.26,422.93L382.79,423.54L384.16,419.91L385.94,418.85L382.18,416.12L380.26,417.39L379.31,419.69Z"><title>Auvergne-Rhône-Alpes</title></path>
<path data-code="93" data-name="Provence-Alpes-Côte d'Azur" d="M455.38,404.17L456.12,406.04L451.86,410.91L452.75,413.48L455.37,416.21L453.33,416.69L453.12,419.89L457.13,424.23L457.61,426.62L464.18,428.43L467.70,431.67L470.05,431.46L470.54,433.00L473.01,433.21L473.20,432.26L480.24,431.20L480.85,429.73L482.38,429.74L481.96,432.19L483.89,434.79L483.21,437.02L481.80,437.69L481.44,440.61L478.36,442.01L478.09,444.57L475.72,446.07L476.91,450.54L475.31,452.63L474.23,452.06L472.31,454.21L470.46,454.14L469.55,456.61L468.94,454.90L468.54,456.06L466.20,455.91L465.12,458.07L463.10,457.74L461.80,461.29L462.34,463.57L460.85,462.16L458.69,464.09L455.93,463.70L454.48,468.60L452.10,469.52L451.97,470.68L447.87,470.34L446.80,474.11L441.89,477.86L446.10,478.44L444.87,479.79L445.49,482.01L444.08,482.69L444.21,483.73L441.08,482.58L438.66,484.61L434.51,484.99L433.60,486.28L433.77,488.08L430.46,486.24L427.72,486.49L426.01,488.43L425.91,490.71L426.67,490.94L425.79,491.31L423.66,490.81L425.15,490.13L424.50,488.22L421.08,488.51L420.48,487.14L417.53,487.23L417.34,486.07L415.86,487.08L418.32,489.07L416.22,488.52L414.03,490.08L412.60,489.02L413.18,486.54L408.99,485.02L408.69,483.09L406.37,482.70L405.63,484.12L403.10,481.24L401.77,482.17L395.92,481.33L397.19,479.05L396.06,477.63L397.10,476.96L394.90,473.44L391.76,475.11L385.13,475.32L382.16,469.97L380.29,469.65L379.33,471.08L379.70,469.71L378.91,470.27L378.12,468.41L378.73,470.74L376.78,470.00L378.15,471.26L377.30,471.59L378.53,471.83L376.94,472.59L378.94,473.63L380.22,472.38L377.18,475.11L367.94,473.44L366.83,472.22L368.03,470.09L365.90,468.49L354.79,468.08L355.13,465.99L358.28,464.44L357.88,462.98L358.63,464.05L363.31,461.18L363.75,459.96L362.04,459.29L364.30,455.29L369.49,456.03L368.92,453.93L370.39,450.75L370.04,448.22L370.94,447.43L370.02,446.29L377.51,439.77L375.43,435.72L374.33,434.50L373.00,434.94L372.45,433.66L372.99,429.18L372.41,427.73L371.22,427.75L370.32,425.22L370.34,421.56L375.12,422.12L376.04,422.94L376.86,426.99L385.51,422.72L387.27,424.37L389.48,422.36L389.01,426.85L396.42,427.72L397.50,428.44L397.46,430.89L399.40,431.06L400.10,432.82L403.31,432.11L404.85,430.77L404.54,429.21L405.55,428.96L406.94,430.24L406.63,431.15L408.36,431.37L408.53,430.45L407.08,430.07L408.68,428.79L408.68,424.92L407.21,424.91L406.89,423.21L405.77,422.80L406.62,421.39L401.46,421.13L399.26,419.36L399.67,418.27L398.76,416.48L401.71,415.81L400.46,415.24L400.24,412.49L405.91,414.08L406.58,412.39L407.87,412.35L405.38,410.14L407.22,406.49L407.02,404.37L412.53,404.25L414.01,402.26L412.93,401.31L413.88,398.56L418.47,398.56L419.55,397.41L418.41,396.16L420.87,394.51L422.37,395.56L425.20,392.95L429.53,393.63L430.96,392.44L433.38,393.54L433.56,388.85L432.23,388.22L432.25,385.75L427.83,385.04L428.43,382.21L429.33,381.87L428.75,379.91L429.93,378.92L431.15,379.90L432.66,379.13L433.82,380.30L433.79,381.95L437.00,382.94L438.31,382.66L438.06,380.67L439.17,379.87L443.41,379.54L445.22,384.66L447.87,384.94L447.59,386.28L448.60,387.74L448.06,390.75L452.23,393.70L454.74,393.01L458.17,395.17L457.27,396.96L460.14,402.77L456.81,402.28L455.38,404.17ZM387.64,465.24L384.96,464.78L383.76,463.04L383.30,467.34L385.19,467.90L385.52,471.15L388.35,471.29L391.66,468.46L390.88,466.38L388.67,468.19L387.64,465.24ZM429.31,491.63L429.56,492.72L427.89,493.67L426.25,492.76L429.31,491.63ZM379.31,419.69L380.26,417.39L382.18,416.12L385.94,418.85L384.16,419.91L382.79,423.54L379.26,422.93L379.40,421.12L378.44,420.74L379.31,419.69Z"><title>Provence-Alpes-Côte d'Azur</title></path>
<path data-code="94" data-name="Corse" d="M546.20,553.76L546.35,561.51L545.09,563.38L545.57,565.12L544.24,565.54L544.43,566.71L542.69,566.08L541.70,567.75L544.93,568.06L541.39,571.40L541.96,573.81L539.28,577.58L541.12,576.78L540.92,577.56L539.45,580.04L534.88,578.72L535.84,576.07L533.90,575.91L534.27,574.15L532.85,575.26L531.16,573.73L528.35,573.53L526.79,571.67L525.42,571.89L525.88,570.42L523.25,569.40L524.00,569.03L522.95,568.01L523.70,565.85L526.59,565.07L528.11,562.73L524.38,561.49L523.27,562.29L522.98,560.03L520.47,561.08L520.37,560.14L518.68,560.09L521.24,558.29L520.61,556.84L522.84,556.29L523.33,555.23L522.09,554.48L523.47,554.20L523.14,552.42L524.00,551.74L522.14,549.76L520.92,551.11L516.75,551.80L517.37,549.68L516.21,548.10L518.83,547.45L518.72,545.54L521.93,543.46L520.22,540.19L518.69,540.78L516.95,539.00L515.76,539.27L515.97,538.08L514.98,538.37L516.26,537.19L515.07,537.02L515.95,536.62L515.82,535.18L514.27,533.51L519.94,531.84L518.74,530.02L516.57,529.67L517.55,528.43L517.05,527.49L514.94,528.42L514.40,526.55L516.80,525.54L516.73,523.92L518.61,523.90L518.29,522.54L519.46,521.15L518.33,520.82L518.93,518.72L520.95,518.09L520.54,515.34L523.20,516.42L524.08,515.66L524.00,513.96L528.74,511.67L531.86,511.89L535.92,507.06L539.49,506.84L541.95,510.11L542.94,509.34L544.10,506.43L543.95,503.53L542.76,501.59L543.90,499.89L543.20,498.22L544.69,496.72L543.90,493.07L546.85,492.08L548.46,493.43L548.02,494.74L549.55,503.08L547.82,510.16L551.02,516.88L552.00,535.67L551.66,540.62L546.74,548.27L546.20,553.76Z"><title>Corse</title></path>
  </g>
</svg>
