<?xml version="1.0" encoding="UTF-8"?>
<svg xmlns="http://www.w3.org/2000/svg" viewBox="0 0 560 640" class="pref-muni-svg" role="img" aria-label="行政区分">
  <g class="pref-muni-svg__paths" fill="#eaf2fb" stroke="#5b7fa8" stroke-width="0.6" stroke-linejoin="round">
<path data-code="GT-JU" data-name="Jutiapa" d="M345.62,562.78L343.70,564.87L335.75,560.65L327.77,563.09L308.46,577.94L305.17,583.93L297.11,590.99L296.12,597.70L298.28,606.81L279.06,598.76L280.38,590.16L272.34,567.23L275.63,565.90L282.04,570.35L290.39,572.35L295.46,565.30L301.16,562.71L304.75,555.73L303.69,545.25L294.74,537.11L285.75,533.57L290.56,521.49L300.49,519.26L304.56,508.21L313.12,508.10L319.33,502.55L327.08,507.79L328.92,501.27L336.47,496.14L340.07,495.58L343.69,498.81L355.03,492.94L354.07,487.97L359.52,488.59L365.87,495.49L376.52,495.23L379.64,498.61L377.57,506.53L379.66,509.70L373.55,515.51L371.69,511.39L367.78,512.66L368.86,519.50L365.85,523.03L371.22,526.56L375.83,536.54L360.45,540.92L353.49,545.21L345.00,558.52L345.62,562.78Z"><title>Jutiapa</title></path>
<path data-code="GT-CQ" data-name="Chiquimula" d="M397.84,510.74L393.92,507.86L393.08,509.26L392.90,506.54L388.45,510.29L379.66,509.70L377.57,506.53L379.64,498.61L377.37,495.54L366.37,495.64L361.22,489.18L352.17,487.97L357.49,471.39L356.57,462.38L355.35,459.74L347.20,459.57L350.40,453.74L350.71,447.30L356.11,442.55L366.63,447.27L375.85,447.87L388.69,440.00L394.63,442.21L403.50,439.94L408.04,441.88L416.25,436.18L419.26,436.88L421.14,440.86L415.30,449.93L427.19,469.62L425.04,487.46L413.51,488.62L403.06,500.63L398.67,502.32L397.84,510.74Z"><title>Chiquimula</title></path>
<path data-code="GT-PE" data-name="Petén" d="M426.34,102.71L426.55,142.70L414.82,301.35L398.33,300.45L393.15,307.70L377.46,310.39L376.36,302.37L356.27,303.99L345.56,297.78L339.65,300.61L331.12,300.49L326.80,293.46L319.61,292.07L315.24,286.21L313.49,288.88L308.98,286.81L305.26,288.30L282.27,280.90L251.05,277.03L252.85,273.17L250.00,274.21L249.47,271.82L252.74,269.08L251.01,266.54L253.98,265.31L249.16,261.66L249.60,257.08L252.85,255.03L249.48,251.84L251.01,250.15L253.77,251.20L252.85,247.28L255.61,247.80L251.45,244.92L256.88,241.67L257.67,239.41L256.54,237.60L254.70,238.65L255.05,236.66L260.23,236.64L258.20,229.35L247.26,227.73L244.30,222.49L239.55,223.63L238.09,219.38L226.01,220.35L228.85,216.93L223.97,213.85L225.92,205.06L221.40,205.79L223.18,201.63L221.33,196.58L212.20,183.38L203.40,177.72L203.86,175.11L187.36,170.77L180.63,165.43L182.48,162.01L178.28,161.68L177.36,165.43L169.00,160.71L159.32,144.33L153.29,143.86L145.40,131.78L141.39,130.33L138.65,122.50L127.11,121.14L126.02,117.80L116.62,114.37L118.21,111.98L177.51,112.41L177.65,35.17L181.53,33.19L425.02,33.43L426.34,102.71Z"><title>Petén</title></path>
<path data-code="GT-SM" data-name="San Marcos" d="M8.00,492.37L13.16,488.97L19.55,473.10L15.38,451.78L20.38,442.59L20.44,429.23L27.25,426.15L31.31,418.30L12.77,393.07L13.62,388.00L26.96,364.83L32.15,371.48L35.33,389.31L42.23,389.63L49.00,382.68L60.71,378.00L70.25,381.62L79.70,379.49L84.61,388.51L93.16,397.64L81.94,411.47L80.69,415.67L84.88,421.74L84.57,430.00L76.89,437.96L68.94,459.13L61.46,466.72L47.84,465.71L33.07,469.73L23.16,478.92L24.37,481.06L34.58,482.52L39.03,494.52L19.33,500.65L8.00,492.37Z"><title>San Marcos</title></path>
<path data-code="GT-HU" data-name="Huehuetenango" d="M26.96,364.83L76.44,279.66L177.13,278.41L148.04,336.48L135.42,342.85L131.67,355.21L138.26,370.19L140.80,372.58L151.51,374.34L152.22,387.61L135.49,389.77L116.18,396.53L111.95,405.93L106.31,406.75L102.24,400.01L93.16,397.64L84.61,388.51L79.70,379.49L70.25,381.62L60.71,378.00L49.00,382.68L42.23,389.63L35.33,389.31L32.15,371.48L26.96,364.83Z"><title>Huehuetenango</title></path>
<path data-code="GT-QC" data-name="Quiché" d="M177.13,278.41L252.59,277.93L252.07,284.74L248.14,286.72L237.99,286.72L236.15,288.55L229.52,285.76L231.45,282.80L227.76,283.84L225.85,281.87L216.60,285.76L216.18,290.99L213.84,289.60L208.38,292.47L212.07,295.35L208.38,303.98L211.75,304.33L212.57,306.74L207.88,310.78L201.00,323.24L206.54,325.16L204.61,326.20L207.38,329.08L205.05,331.97L206.07,333.31L223.15,336.75L226.06,341.18L224.99,345.47L230.89,354.79L223.99,361.77L225.07,364.21L216.21,366.54L216.60,373.27L223.61,377.66L244.87,380.94L247.02,382.17L246.91,385.03L238.41,398.81L218.11,398.47L194.58,392.58L193.73,407.80L203.83,420.94L215.99,428.62L215.33,432.34L222.70,442.14L196.30,436.82L179.51,437.27L173.10,440.37L169.20,450.43L162.38,452.25L159.65,455.74L158.41,452.39L160.40,448.24L155.31,446.16L153.34,441.98L147.41,437.80L148.02,432.93L139.34,422.85L144.73,415.00L140.77,406.53L133.16,398.17L135.49,389.77L152.22,387.61L151.51,374.34L140.80,372.58L136.64,368.03L131.53,356.03L135.42,342.85L148.04,336.48L177.13,278.41Z"><title>Quiché</title></path>
<path data-code="GT-AV" data-name="Alta Verapaz" d="M251.00,277.09L282.27,280.90L305.26,288.30L308.98,286.81L313.49,288.88L315.52,286.28L319.61,292.07L326.80,293.46L331.58,300.66L339.65,300.61L345.56,297.78L356.27,303.99L376.36,302.37L377.46,310.39L393.15,307.70L389.44,312.68L384.64,314.58L381.65,319.92L375.00,323.62L357.33,349.89L367.23,361.07L364.58,366.69L360.45,369.26L359.24,385.72L361.60,397.86L364.88,403.39L342.62,406.61L333.18,404.33L324.11,407.25L315.22,406.67L322.63,393.96L318.04,388.14L301.03,390.90L277.95,387.13L275.27,394.24L269.64,399.58L257.44,392.00L243.49,391.83L246.91,385.03L247.02,382.17L244.87,380.94L223.61,377.66L216.60,373.27L216.21,366.54L225.07,364.21L223.99,361.77L230.89,354.79L224.99,345.47L226.06,341.18L223.15,336.75L206.07,333.31L205.05,331.97L207.38,329.08L204.61,326.20L206.54,325.16L201.00,323.24L207.88,310.78L212.57,306.74L211.75,304.33L208.38,303.98L212.07,296.31L208.38,292.47L213.84,289.60L216.18,290.99L216.60,285.76L225.85,281.87L227.76,283.84L231.45,282.80L229.52,285.76L236.15,288.55L237.99,286.72L248.14,286.72L252.65,283.45L253.25,279.03L251.00,277.09Z"><title>Alta Verapaz</title></path>
<path data-code="GT-IZ" data-name="Izabal" d="M552.00,326.75L549.21,332.00L539.06,333.92L527.94,348.22L450.31,408.94L426.86,418.64L422.22,414.25L419.93,400.61L423.23,396.59L423.52,390.87L418.35,386.86L409.72,386.80L370.40,402.74L364.88,403.39L361.60,397.86L361.93,392.86L359.27,387.83L360.45,369.26L364.58,366.69L367.23,361.07L357.33,349.89L375.00,323.62L381.65,319.92L384.97,314.30L389.44,312.68L398.33,300.45L413.94,300.65L415.87,304.96L422.73,302.23L441.26,302.02L453.22,305.12L458.34,303.11L464.80,307.83L475.45,308.01L480.06,310.72L480.57,313.67L497.26,322.78L495.88,330.06L499.52,330.06L501.42,328.29L500.03,324.30L503.18,324.03L507.49,316.55L506.49,308.87L507.49,310.79L515.79,309.74L499.75,296.87L498.09,294.78L500.03,292.49L552.00,326.75Z"><title>Izabal</title></path>
<path data-code="GT-ZA" data-name="Zacapa" d="M426.86,418.64L421.23,429.20L423.86,431.69L423.85,435.39L421.14,440.86L417.98,435.77L408.04,441.88L403.50,439.94L394.63,442.21L388.69,440.00L375.85,447.87L366.63,447.27L356.11,442.55L350.71,447.30L350.40,453.74L347.20,459.57L339.89,458.81L332.96,448.34L337.03,442.55L342.83,441.36L343.39,437.92L338.99,435.92L331.60,425.46L339.20,424.47L339.06,422.58L328.06,406.21L333.18,404.33L342.62,406.61L355.54,405.58L370.40,402.74L409.72,386.80L417.00,386.53L423.52,390.87L423.23,396.59L419.93,400.61L422.22,414.25L426.86,418.64Z"><title>Zacapa</title></path>
<path data-code="GT-RE" data-name="Retalhuleu" d="M87.43,552.61L53.69,529.23L19.56,500.26L31.28,498.37L41.15,493.38L51.19,497.22L60.77,495.58L73.58,471.27L82.59,465.24L84.38,465.95L81.86,474.77L85.36,476.06L91.28,474.09L94.71,469.84L107.43,468.97L99.95,476.64L99.54,482.64L94.21,493.65L94.92,521.94L90.53,539.76L86.52,545.86L87.43,552.61Z"><title>Retalhuleu</title></path>
<path data-code="GT-SU" data-name="Suchitepéquez" d="M101.84,561.04L87.43,552.61L86.52,545.86L90.53,539.76L94.92,521.94L94.21,493.65L99.54,482.64L100.31,476.08L112.95,465.23L115.86,472.46L112.01,480.63L114.00,482.55L121.96,483.92L122.82,478.33L125.36,476.57L130.07,479.55L135.53,479.14L141.48,484.93L142.07,491.09L151.84,488.74L161.00,494.60L163.29,497.05L163.29,503.41L153.30,530.88L136.68,529.49L135.89,524.66L132.33,528.10L129.59,527.76L127.06,521.45L128.25,518.36L126.03,515.62L120.44,519.18L120.29,527.85L117.95,528.85L115.88,526.04L114.28,527.38L114.67,542.42L104.82,557.55L105.00,562.31L101.84,561.04Z"><title>Suchitepéquez</title></path>
<path data-code="GT-ES" data-name="Escuintla" d="M226.79,580.23L215.98,579.07L188.54,581.57L154.02,579.38L133.66,575.31L101.84,561.04L105.00,562.31L104.82,557.55L114.67,542.42L114.49,526.92L115.88,526.04L118.32,528.96L120.29,527.85L119.50,520.64L124.93,515.98L128.01,517.66L127.06,521.45L129.59,527.76L132.33,528.10L135.89,524.66L136.68,529.49L153.30,530.88L161.38,508.64L164.84,510.77L170.09,508.92L174.26,511.69L177.68,509.88L179.33,515.32L184.79,505.98L191.22,500.37L200.72,512.22L211.86,503.06L214.98,506.73L223.66,503.26L225.38,508.49L231.54,512.66L235.22,533.10L232.21,539.26L241.87,540.64L233.38,546.44L236.41,552.49L226.82,561.24L226.79,580.23Z"><title>Escuintla</title></path>
<path data-code="GT-SR" data-name="Santa Rosa" d="M279.06,598.76L243.97,583.87L226.79,580.23L226.82,561.24L236.41,552.49L233.38,546.44L241.87,540.64L232.21,539.26L233.23,535.05L251.59,522.94L251.06,514.61L259.10,499.36L262.97,498.52L264.30,501.94L273.03,496.86L275.80,499.60L294.27,496.19L296.17,501.43L304.56,508.21L300.49,519.26L290.56,521.49L285.75,533.57L294.74,537.11L303.69,545.25L304.75,555.73L301.16,562.71L295.46,565.30L290.39,572.35L282.04,570.35L275.63,565.90L272.34,567.23L280.38,590.16L279.06,598.76Z"><title>Santa Rosa</title></path>
<path data-code="GT-CM" data-name="Chimaltenango" d="M208.15,459.84L205.65,465.49L207.26,474.87L194.75,489.85L191.22,500.37L183.85,507.17L180.30,514.84L177.68,509.88L174.26,511.69L170.09,508.92L164.84,510.77L161.38,508.64L163.53,498.42L161.00,494.60L162.14,480.27L167.12,464.49L164.61,453.05L169.20,450.43L173.10,440.37L179.51,437.27L196.30,436.82L222.70,442.14L221.23,446.21L212.67,450.44L208.15,459.84Z"><title>Chimaltenango</title></path>
<path data-code="GT-SA" data-name="Sacatepéquez" d="M191.22,500.37L194.75,489.85L207.26,474.87L205.65,465.49L208.15,459.84L213.08,463.78L218.10,463.93L228.03,478.46L223.66,503.26L214.98,506.73L211.86,503.06L200.72,512.22L191.22,500.37Z"><title>Sacatepéquez</title></path>
<path data-code="GT-GU" data-name="Guatemala" d="M215.65,464.12L208.15,459.84L212.67,450.44L221.23,446.21L222.70,442.14L235.35,444.81L244.37,441.61L249.91,443.53L255.88,440.31L257.52,442.83L255.71,448.89L263.27,448.69L265.08,450.62L266.82,457.57L265.78,463.62L283.31,474.39L275.65,483.21L273.03,496.86L264.30,501.94L262.97,498.52L259.10,499.36L251.06,514.61L251.59,522.94L235.22,533.10L230.98,510.80L225.38,508.49L223.66,503.26L228.03,478.46L219.47,465.24L215.65,464.12Z"><title>Guatemala</title></path>
<path data-code="GT-JA" data-name="Jalapa" d="M273.03,496.86L275.65,483.21L287.58,469.81L296.23,466.53L301.64,467.64L306.36,459.18L322.05,454.03L328.60,446.38L334.00,446.00L332.96,448.34L339.45,458.75L356.06,460.87L357.49,471.39L352.17,487.97L354.07,487.97L355.03,492.94L343.69,498.81L340.07,495.58L336.47,496.14L328.92,501.27L327.08,507.79L319.33,502.55L313.12,508.10L304.56,508.21L296.17,501.43L294.27,496.19L275.80,499.60L273.03,496.86Z"><title>Jalapa</title></path>
<path data-code="GT-PR" data-name="El Progreso" d="M257.43,449.55L255.13,446.79L257.52,442.83L263.69,445.29L270.57,444.16L273.38,435.05L315.22,406.67L328.06,406.21L339.06,422.58L339.20,424.47L331.60,425.46L338.99,435.92L343.39,437.92L342.83,441.36L337.03,442.55L334.00,446.00L328.60,446.38L322.05,454.03L306.36,459.18L301.64,467.64L291.68,468.08L283.31,474.39L265.78,463.62L266.82,457.57L264.25,449.04L257.43,449.55Z"><title>El Progreso</title></path>
<path data-code="GT-SO" data-name="Sololá" d="M164.61,453.05L167.12,464.49L162.14,480.27L161.00,494.60L151.84,488.74L142.07,491.09L141.48,484.93L135.13,479.02L130.07,479.55L124.53,476.85L121.96,483.92L112.01,480.63L115.86,472.46L112.95,465.23L118.54,454.26L125.24,448.49L143.90,448.78L151.70,441.20L155.31,446.16L160.66,448.69L158.41,452.39L159.25,455.70L162.38,452.25L164.61,453.05Z"><title>Sololá</title></path>
<path data-code="GT-QZ" data-name="Quezaltenango" d="M118.54,454.26L112.95,465.23L107.43,468.97L94.71,469.84L86.42,476.12L81.86,474.77L84.00,465.31L73.58,471.27L60.77,495.58L51.19,497.22L41.15,493.38L39.03,494.52L34.58,482.52L22.64,479.78L33.07,469.73L47.84,465.71L63.97,465.38L74.29,448.22L76.89,437.96L84.07,431.44L85.43,423.99L80.69,415.67L84.55,407.67L93.16,397.64L102.24,400.01L106.31,406.75L96.44,410.61L96.86,415.81L103.92,438.25L106.44,441.39L112.84,441.27L118.54,454.26Z"><title>Quezaltenango</title></path>
<path data-code="GT-BV" data-name="Baja Verapaz" d="M257.52,442.83L255.88,440.31L249.91,443.53L244.37,441.61L231.27,445.01L222.70,442.14L215.33,432.34L215.99,428.62L203.83,420.94L193.73,407.80L194.58,392.58L218.11,398.47L233.95,399.17L238.41,398.81L243.49,391.83L257.44,392.00L269.64,399.58L275.27,394.24L277.95,387.13L301.03,390.90L318.04,388.14L322.15,391.22L321.19,398.05L315.22,406.67L273.38,435.05L270.57,444.16L263.69,445.29L257.52,442.83Z"><title>Baja Verapaz</title></path>
<path data-code="GT-TO" data-name="Totonicapán" d="M107.36,441.69L100.71,430.63L96.44,410.61L111.95,405.93L115.50,396.86L133.81,391.70L133.83,400.34L140.77,406.53L144.73,415.00L139.34,422.85L148.02,432.93L147.41,437.80L151.70,441.20L145.39,448.31L126.42,448.08L118.54,454.26L112.84,441.27L107.36,441.69Z"><title>Totonicapán</title></path>
  </g>
</svg>
