<?xml version="1.0" encoding="UTF-8"?>
<svg xmlns="http://www.w3.org/2000/svg" viewBox="0 0 560 640" class="pref-muni-svg" role="img" aria-label="行政区分">
  <g class="pref-muni-svg__paths" fill="#eaf2fb" stroke="#5b7fa8" stroke-width="0.6" stroke-linejoin="round">
<path data-code="IS-7" data-name="Austurland" d="M497.50,202.71L498.06,206.58L495.73,214.15L488.33,221.17L483.86,228.95L488.94,224.89L486.18,231.99L487.93,232.86L507.97,225.31L511.56,226.48L508.33,233.58L514.28,239.30L510.17,241.21L501.67,254.11L500.08,259.28L512.02,241.64L518.33,244.07L515.60,240.17L526.44,246.54L534.16,245.53L535.17,248.69L534.24,250.45L536.94,251.32L536.63,254.57L538.29,256.88L543.33,252.98L547.07,257.75L545.02,264.12L545.72,268.03L543.70,269.70L544.04,273.68L535.93,275.27L541.14,279.58L527.48,284.83L543.22,281.99L549.12,287.29L544.87,292.07L526.13,294.38L546.23,294.38L545.39,299.16L540.31,301.69L544.12,300.88L545.02,302.41L543.33,304.07L546.23,305.60L551.48,297.64L552.00,309.65L547.07,313.63L548.27,316.82L545.21,319.28L537.58,318.41L536.18,314.27L526.13,308.06L528.12,311.25L516.30,313.63L531.86,316.02L542.69,326.44L525.12,325.58L535.10,329.35L539.31,334.76L536.09,337.59L529.47,336.86L535.74,341.21L527.14,340.77L525.42,343.23L528.49,348.01L525.42,350.40L512.70,352.22L507.07,342.25L502.47,340.77L505.33,342.18L504.82,345.55L508.89,348.01L509.49,352.12L514.49,356.26L514.28,358.37L506.02,355.53L503.48,357.57L507.63,363.17L498.99,365.49L503.62,370.38L510.74,363.71L504.82,371.97L500.94,387.09L490.99,389.55L499.78,385.57L492.64,383.99L489.24,390.28L480.83,397.10L483.86,398.32L484.53,401.51L478.72,403.71L473.23,399.18L467.33,403.09L468.31,399.18L465.94,399.58L464.18,395.34L464.63,399.90L462.56,398.89L460.42,391.26L455.14,387.96L458.69,389.92L460.56,395.05L458.88,395.05L460.05,398.66L458.88,402.37L454.92,402.25L453.79,403.09L456.86,403.96L445.35,408.74L444.68,407.07L438.92,412.71L444.00,411.99L442.34,413.43L429.57,417.48L427.78,419.16L430.10,419.88L421.72,427.92L420.21,427.06L420.34,429.44L413.94,432.34L411.89,435.88L413.84,434.65L412.56,437.36L405.99,445.44L404.45,446.30L406.47,443.12L399.03,449.56L390.58,450.29L392.30,451.87L390.58,452.67L389.91,457.45L389.45,454.32L385.41,450.00L385.00,456.75L384.03,457.05L383.31,449.91L383.50,457.65L381.49,459.11L382.80,446.25L381.39,443.62L381.49,449.56L378.43,451.87L380.45,456.59L379.55,457.91L369.82,457.85L369.64,455.86L360.84,460.80L360.92,439.16L363.00,429.74L395.30,359.85L397.93,348.41L395.72,338.54L398.29,332.87L398.72,326.58L407.20,324.01L419.24,311.74L418.12,309.60L419.41,293.19L426.48,283.40L427.82,278.88L420.47,268.03L425.42,259.76L427.38,251.21L444.35,253.55L446.02,244.95L445.19,230.86L456.40,227.48L462.95,217.75L467.36,217.09L473.49,210.20L493.58,207.66L495.11,203.31L497.50,202.71Z"><title>Austurland</title></path>
<path data-code="IS-8" data-name="Suðurland" d="M360.84,460.80L352.19,463.39L352.75,459.11L350.36,461.44L350.73,463.89L344.30,468.67L344.78,466.12L349.04,463.02L344.61,459.84L344.61,463.02L343.34,463.95L339.55,463.02L340.56,464.61L336.54,465.70L334.58,471.76L332.15,472.05L332.97,474.25L340.56,472.65L337.16,478.19L332.09,478.29L333.16,480.69L337.53,479.82L332.27,490.01L320.90,495.81L319.29,493.43L324.68,488.64L314.91,486.98L317.44,496.54L321.48,496.85L294.44,504.68L267.05,499.79L246.13,490.12L244.57,488.64L245.61,488.06L244.93,486.98L222.74,487.46L214.51,479.82L217.57,479.82L215.18,479.02L215.52,476.70L211.81,477.43L213.50,477.43L208.29,468.57L207.07,469.40L210.47,475.83L204.74,467.87L205.41,467.01L204.37,464.61L207.32,461.97L210.63,461.44L216.56,465.48L210.10,459.11L211.63,453.43L204.16,462.69L203.42,467.66L193.91,460.64L202.02,461.44L200.64,460.64L201.34,459.11L196.60,459.84L198.28,456.80L198.09,450.26L196.23,449.56L197.46,452.50L194.69,456.99L190.84,457.45L191.55,459.84L173.27,447.03L172.97,442.25L180.37,440.66L170.92,439.77L167.85,443.85L172.26,447.89L165.33,447.84L164.49,451.87L150.04,453.94L143.46,449.43L136.62,452.04L150.41,434.33L152.63,434.27L162.00,415.34L162.79,412.42L162.01,407.90L163.45,404.29L191.76,373.25L229.68,352.91L232.05,349.95L233.02,340.85L248.33,346.78L261.26,342.78L273.58,342.83L287.56,336.54L309.50,331.64L385.94,379.29L363.00,429.74L360.92,439.16L360.84,460.80ZM342.81,467.23L342.13,471.42L341.93,469.44L339.25,470.32L342.81,467.23ZM218.99,499.09L219.45,500.86L217.76,503.54L216.98,498.94L218.99,499.09Z"><title>Suðurland</title></path>
<path data-code="IS-2" data-name="Suðurnes" d="M136.62,452.04L130.02,453.47L116.67,450.29L113.81,453.46L112.30,451.88L99.77,456.59L97.88,454.34L98.95,450.29L97.23,447.03L99.44,440.66L101.95,440.26L98.11,438.76L96.93,435.09L97.82,426.11L99.25,423.87L103.18,427.15L105.72,432.06L105.68,435.09L107.69,436.73L113.69,436.69L115.48,432.69L127.14,429.21L131.51,434.16L150.41,434.33L136.62,452.04Z"><title>Suðurnes</title></path>
<path data-code="IS-0" data-name="Reykjavík" d="M127.14,429.21L135.07,425.45L131.03,423.07L132.77,420.27L137.46,421.55L134.39,416.94L131.03,415.90L143.14,418.32L143.89,417.50L141.83,416.70L143.21,415.11L142.20,414.31L146.89,414.34L147.92,411.99L145.29,413.13L145.24,410.97L147.59,409.47L142.50,409.47L142.25,406.58L136.79,407.07L138.47,403.09L152.21,404.33L152.69,412.64L150.27,424.82L141.30,428.83L136.70,433.86L131.51,434.16L127.14,429.21Z"><title>Reykjavík</title></path>
<path data-code="IS-1" data-name="Höfuðborgarsvæði" d="M139.40,402.41L145.37,394.08L150.40,393.61L148.60,392.74L151.67,390.48L159.63,392.14L171.86,387.80L175.51,389.88L162.88,405.36L162.00,415.34L152.31,434.40L136.70,433.86L141.30,428.83L150.27,424.82L152.69,412.64L152.21,404.33L139.40,402.41Z"><title>Höfuðborgarsvæði</title></path>
<path data-code="IS-3" data-name="Vesturland" d="M161.62,390.47L158.76,390.28L160.42,387.96L151.45,387.38L147.24,388.40L135.11,399.66L128.33,397.60L134.02,391.15L140.18,388.76L132.71,389.70L131.03,387.09L134.49,375.59L144.22,371.18L142.20,368.79L147.92,363.14L158.09,367.92L152.00,364.01L154.02,362.42L148.94,362.42L152.67,358.80L157.39,358.37L152.33,357.57L147.92,360.75L149.98,356.70L140.49,368.79L132.82,373.10L131.51,371.63L132.37,367.92L131.35,368.26L129.07,378.51L125.14,380.73L122.24,375.95L120.56,377.54L122.24,370.38L120.56,369.51L121.26,367.19L116.52,369.51L115.27,366.18L116.15,362.42L111.44,356.70L115.26,359.39L117.50,355.18L116.82,353.58L123.96,348.01L113.43,355.46L112.45,354.38L117.50,346.42L111.74,344.83L113.12,338.39L100.80,344.93L99.62,344.03L101.80,343.63L100.10,340.77L94.88,340.77L98.24,343.23L96.92,343.98L93.53,341.64L74.67,340.56L71.80,337.49L64.30,338.39L61.40,341.78L55.66,339.97L57.39,339.08L56.56,338.73L53.19,341.71L50.71,347.91L42.84,349.68L37.28,345.60L31.67,330.42L42.04,325.81L52.48,329.55L58.65,323.97L65.15,324.06L64.45,321.59L70.97,326.32L72.90,323.62L72.22,317.61L75.63,315.38L79.66,316.02L75.93,323.19L78.65,327.24L78.54,322.75L82.89,316.20L86.76,319.28L94.54,314.50L90.17,313.63L97.88,308.86L98.95,311.97L96.22,314.50L99.25,313.63L100.00,316.84L104.67,320.00L102.28,316.02L106.37,311.63L114.52,310.86L125.61,314.50L141.83,313.63L143.19,311.07L140.83,309.65L144.15,305.12L146.38,295.12L142.66,293.68L141.50,296.91L131.60,304.32L105.76,298.02L110.73,296.91L106.02,296.05L112.25,288.40L112.11,286.49L123.34,280.67L133.75,271.29L136.45,272.81L135.78,270.42L148.29,264.85L152.27,259.20L152.58,268.59L150.29,273.11L152.09,275.52L158.72,274.65L162.83,283.81L168.62,290.61L170.45,297.06L168.37,303.03L169.53,309.50L177.00,319.41L196.04,327.78L211.90,322.97L242.09,326.56L241.32,330.00L233.02,340.85L232.05,349.95L229.68,352.91L192.95,372.36L175.23,391.88L175.20,389.01L171.86,387.80L161.62,390.47Z"><title>Vesturland</title></path>
<path data-code="IS-4" data-name="Vestfirðir" d="M148.29,264.85L134.43,266.44L136.45,263.26L133.75,258.48L130.17,261.27L127.63,256.09L126.62,262.46L123.44,267.30L120.75,267.15L114.17,260.38L125.14,254.57L128.00,248.13L121.24,255.09L116.15,256.09L118.88,252.98L117.85,252.18L114.82,254.96L112.75,253.70L113.10,256.51L109.66,258.48L106.34,243.78L106.31,252.33L104.21,255.26L102.12,251.74L100.90,256.14L98.37,250.99L99.62,244.94L95.81,244.27L97.88,258.48L97.19,259.21L94.54,258.48L94.02,255.49L89.49,254.57L93.71,247.64L91.14,245.66L88.62,251.61L86.24,246.54L84.68,253.44L80.32,254.93L76.15,252.16L76.29,249.72L74.92,250.51L74.02,255.36L74.95,257.75L72.53,260.87L63.81,257.81L59.76,261.99L51.59,262.46L48.73,268.03L39.68,270.54L35.40,268.90L34.39,264.85L36.07,265.65L35.31,262.42L33.68,264.12L24.93,259.28L10.87,260.76L8.00,258.48L16.11,251.32L16.59,245.66L19.67,243.28L39.91,256.83L44.16,255.29L39.81,254.57L30.35,241.76L44.16,246.54L30.65,235.39L28.63,231.33L27.96,225.70L30.05,223.87L52.97,235.39L56.00,239.30L55.36,245.66L56.24,246.16L59.40,242.48L64.78,243.28L63.77,240.89L69.87,238.50L61.35,238.14L57.35,233.44L71.89,231.38L72.90,230.46L71.55,228.95L74.58,226.48L68.20,229.44L47.99,227.42L43.85,222.58L41.21,215.62L41.38,212.09L44.45,209.71L54.31,215.34L73.60,219.39L55.45,212.18L43.85,199.78L44.12,194.29L46.89,192.18L58.38,197.99L62.77,197.67L65.46,202.53L63.11,196.92L56.97,194.17L50.92,187.40L60.07,186.23L64.45,189.72L60.22,184.94L54.31,184.22L61.19,177.30L76.42,184.10L78.51,187.98L78.65,192.25L82.58,188.43L84.63,191.83L85.09,197.18L81.04,204.99L87.44,195.36L88.79,200.22L91.82,198.55L86.76,207.30L89.65,206.73L92.67,200.57L92.86,211.36L95.58,195.36L99.59,194.59L104.79,204.24L101.30,220.50L107.75,203.93L111.10,208.97L110.77,211.60L112.45,209.77L110.09,220.12L111.98,219.08L115.48,210.48L112.40,200.87L109.38,197.67L111.10,192.25L114.47,189.72L109.18,192.16L90.56,182.51L85.05,173.80L96.22,170.54L106.02,175.29L105.68,172.13L115.14,169.01L105.42,168.03L110.09,165.04L109.00,163.56L103.89,167.09L98.24,166.63L100.27,159.46L103.30,157.80L92.67,164.16L93.84,158.59L92.15,159.26L86.92,165.95L79.11,163.99L74.59,159.67L81.64,159.05L82.72,155.41L77.27,150.64L78.78,149.47L83.37,152.22L82.35,149.77L90.63,150.80L86.40,146.65L92.20,147.02L98.95,152.22L104.93,146.78L112.22,151.20L110.42,146.65L113.53,148.37L116.00,155.14L120.02,157.27L121.26,159.46L120.56,160.62L123.29,161.78L122.01,162.79L122.58,169.81L128.85,167.30L129.01,169.81L134.28,169.04L137.12,173.00L133.75,176.18L145.60,179.44L146.93,191.52L150.96,192.90L149.64,198.55L152.00,196.56L150.96,191.38L155.52,189.72L157.47,192.67L155.04,195.68L156.21,198.11L166.28,200.05L166.87,202.53L152.67,205.71L162.36,204.90L163.81,205.71L161.09,208.97L167.70,208.57L168.57,212.93L166.51,215.34L168.86,217.80L166.42,223.38L159.07,228.08L166.20,231.33L160.71,237.20L154.02,236.90L148.75,227.99L144.22,228.08L149.64,232.86L148.60,236.90L151.63,242.12L162.81,244.94L158.76,252.11L166.76,247.53L167.85,252.54L166.81,256.80L159.07,265.65L167.03,261.66L172.63,267.76L173.07,281.55L177.27,292.59L179.08,307.11L183.36,320.94L177.00,319.41L169.53,309.50L168.37,303.03L170.45,297.06L168.97,291.43L162.83,283.81L158.72,274.65L152.09,275.52L150.29,273.11L152.58,268.59L152.27,259.20L148.29,264.85Z"><title>Vestfirðir</title></path>
<path data-code="IS-5" data-name="Norðurland vestra" d="M178.46,298.08L179.36,296.05L176.67,286.49L178.96,279.92L177.71,265.77L179.86,264.97L184.41,276.51L186.77,277.66L183.82,266.69L183.21,258.62L186.62,247.59L198.59,236.80L201.15,239.50L200.02,252.92L201.65,253.70L201.23,249.68L203.02,249.72L203.36,255.29L208.44,260.00L210.80,253.70L205.72,250.45L211.65,248.13L212.79,256.09L213.35,248.17L216.19,240.89L218.58,240.17L216.72,236.88L218.51,234.46L218.53,227.91L215.18,221.78L216.49,219.72L215.99,216.33L209.76,197.67L211.21,194.76L210.80,191.38L227.36,185.81L237.83,212.16L246.28,216.14L250.21,229.94L253.72,232.13L254.38,228.76L255.89,228.95L259.07,230.55L258.72,232.71L260.60,229.81L261.53,220.16L258.95,209.77L256.03,205.75L260.82,200.22L258.93,194.58L263.33,190.80L273.45,191.65L274.55,188.87L278.36,192.90L276.04,188.13L277.34,182.68L288.41,198.85L285.74,205.53L287.76,207.60L287.88,211.99L281.94,218.52L282.30,221.19L288.95,227.13L291.20,235.69L285.36,249.04L294.83,257.54L292.09,267.19L295.00,269.84L296.15,274.30L301.17,276.02L303.92,285.20L311.67,292.24L313.20,309.72L309.50,331.64L287.56,336.54L273.58,342.83L261.26,342.78L246.90,346.87L233.02,340.85L241.79,329.21L241.27,325.24L211.90,322.97L196.04,327.78L183.81,322.18L179.08,307.11L178.46,298.08Z"><title>Norðurland vestra</title></path>
<path data-code="IS-6" data-name="Norðurland eystra" d="M277.34,182.68L283.95,178.87L285.52,179.60L285.16,183.35L286.10,182.98L288.42,177.15L292.23,178.56L290.85,184.58L294.95,180.96L299.51,184.94L298.01,190.58L301.09,188.91L303.68,191.46L305.09,197.67L303.91,204.12L313.38,206.92L317.70,215.99L319.78,216.53L321.83,232.13L326.02,236.90L326.00,240.54L327.40,242.48L327.56,236.78L325.14,232.41L327.20,220.87L325.59,212.91L319.79,209.03L319.56,204.96L315.89,199.35L314.30,188.98L315.89,180.16L334.84,183.35L336.19,187.40L339.59,187.90L344.69,194.08L352.75,211.36L351.37,204.12L355.44,202.53L349.72,201.80L357.57,201.67L359.48,205.71L359.18,201.80L361.87,195.36L362.49,189.78L366.96,185.98L366.79,181.44L372.68,175.31L380.23,177.84L383.15,184.94L382.47,187.40L383.67,188.16L391.79,183.66L393.61,184.22L390.58,185.81L392.10,187.91L394.63,184.22L399.74,189.72L395.33,181.75L402.97,177.88L404.11,177.85L398.39,181.75L403.74,180.16L408.15,184.22L405.16,179.01L408.37,167.63L403.76,158.27L404.11,154.54L403.07,152.22L404.11,151.43L400.92,145.01L402.38,141.99L404.45,144.26L405.16,141.51L407.99,140.49L408.86,144.98L408.49,142.67L411.19,141.01L413.75,144.98L421.01,138.62L428.05,138.53L434.54,143.39L432.46,145.66L432.25,151.68L437.54,151.43L437.24,153.82L443.64,154.94L444.98,160.98L440.27,167.35L444.44,170.11L444.00,173.80L452.42,174.59L459.74,183.62L462.10,178.02L462.16,170.62L473.13,168.64L473.72,165.76L482.17,156.17L500.02,156.27L478.96,167.77L477.77,169.81L481.69,175.23L480.86,178.56L469.65,188.13L474.84,189.78L475.74,192.90L473.72,194.56L474.75,195.32L485.76,196.77L489.82,193.19L493.44,193.47L497.50,202.71L495.11,203.31L493.58,207.66L473.49,210.20L467.36,217.09L462.95,217.75L456.40,227.48L445.19,230.86L446.02,244.95L444.35,253.55L427.38,251.21L425.42,259.76L420.47,268.03L427.82,278.88L426.48,283.40L419.41,293.19L418.12,309.60L419.24,311.74L407.20,324.01L398.72,326.58L398.29,332.87L395.72,338.54L397.95,347.47L396.50,355.63L385.94,379.29L309.50,331.64L313.08,312.31L312.04,293.50L303.92,285.20L301.17,276.02L296.67,274.89L295.00,269.84L292.09,267.19L294.53,256.99L285.36,249.04L291.20,235.69L288.95,227.13L282.30,221.19L281.94,218.52L287.88,211.99L287.76,207.60L285.74,205.53L288.41,198.85L277.34,182.68ZM330.10,135.32L331.50,138.25L329.69,137.55L330.10,135.32ZM311.79,199.69L312.94,203.25L311.28,203.03L310.10,198.35L311.79,199.69Z"><title>Norðurland eystra</title></path>
  </g>
</svg>
