<?xml version="1.0" encoding="UTF-8"?>
<svg xmlns="http://www.w3.org/2000/svg" viewBox="0 0 560 640" class="pref-muni-svg" role="img" aria-label="行政区分">
  <g class="pref-muni-svg__paths" fill="#eaf2fb" stroke="#5b7fa8" stroke-width="0.6" stroke-linejoin="round">
<path data-code="IN-LA" data-name="Ladakh" d="M187.79,33.09L189.34,34.38L192.34,33.17L191.53,37.61L197.02,50.47L203.88,52.43L209.69,56.77L209.69,58.61L205.10,61.36L206.30,68.05L206.06,71.87L206.86,73.70L210.01,76.30L218.62,77.90L217.08,80.66L217.56,82.36L216.34,83.01L217.84,83.46L221.69,88.31L218.39,92.18L216.10,91.04L215.48,92.23L212.23,93.43L211.53,95.46L209.08,95.94L205.87,93.64L204.79,90.13L196.76,93.26L197.09,91.11L198.54,89.74L198.22,87.54L191.68,90.68L188.87,85.43L186.32,82.65L179.81,85.55L175.42,84.36L168.05,78.96L163.36,72.87L158.86,71.44L157.37,65.47L154.73,63.30L152.03,63.66L149.47,61.61L148.01,58.96L146.54,58.75L142.63,55.54L142.14,51.82L150.13,52.88L154.71,49.42L157.16,49.73L162.43,47.71L166.43,48.03L168.12,46.59L168.38,44.67L171.42,44.56L173.14,43.25L173.68,40.84L187.79,33.09Z"><title>Ladakh</title></path>
<path data-code="IN-AR" data-name="Arunachal Pradesh" d="M532.12,162.89L533.46,162.00L535.16,162.84L537.77,168.52L535.97,168.97L532.26,174.30L533.52,175.15L537.09,173.77L539.99,173.98L544.62,176.10L546.72,175.21L551.28,178.35L550.71,180.79L552.00,182.79L551.47,184.80L549.41,184.69L542.69,190.69L543.05,193.79L547.14,198.99L547.47,200.91L542.75,199.23L542.53,197.69L539.77,195.45L537.56,195.59L536.15,196.81L529.29,197.51L526.88,198.84L525.08,201.63L522.50,202.75L521.04,204.72L517.14,206.43L515.33,208.80L512.62,209.66L511.69,205.81L512.38,203.73L511.46,201.81L515.91,199.83L517.97,197.23L520.01,198.05L524.85,197.14L526.82,195.27L526.23,193.68L524.55,194.63L524.53,191.53L522.89,190.12L522.46,188.33L525.97,182.83L521.36,182.89L515.62,185.27L513.69,184.77L499.19,190.60L495.97,190.81L493.93,189.72L493.35,190.43L493.93,192.15L486.54,198.68L486.17,200.74L483.72,202.53L479.36,203.70L477.76,202.88L471.16,203.59L465.17,201.34L458.29,203.93L453.66,204.22L451.94,200.58L453.82,196.82L452.60,193.73L447.08,193.47L444.63,191.75L444.22,190.28L445.38,187.03L444.05,185.66L448.94,186.53L449.65,188.08L451.28,188.18L456.63,185.38L457.82,186.96L459.48,185.57L460.13,186.26L462.87,185.73L465.88,182.97L464.06,181.55L464.80,180.04L470.32,177.06L474.65,175.90L474.25,174.07L476.69,170.65L479.09,169.28L488.06,169.07L489.25,165.83L494.06,164.07L495.87,162.25L494.44,160.78L494.75,159.78L498.99,158.32L500.57,156.41L502.51,157.05L503.86,159.41L507.82,159.66L514.86,162.01L517.10,161.36L517.61,158.55L518.53,157.83L521.37,158.38L521.89,155.94L529.28,155.38L531.02,157.92L533.46,157.60L532.53,159.30L529.89,160.56L530.27,163.91L532.12,162.89Z"><title>Arunachal Pradesh</title></path>
<path data-code="IN-SK" data-name="Sikkim" d="M394.31,196.35L392.14,197.84L391.34,199.68L387.34,199.13L384.61,200.96L379.35,199.62L377.78,197.68L378.13,192.77L380.67,187.20L380.76,185.78L379.55,184.12L384.74,183.04L388.75,180.56L392.64,182.47L393.59,185.81L391.50,192.04L392.10,194.50L394.31,196.35Z"><title>Sikkim</title></path>
<path data-code="IN-WB" data-name="West Bengal" d="M391.34,199.68L393.10,200.70L393.55,203.74L394.57,203.03L395.05,204.26L396.71,204.39L398.11,206.22L402.67,205.56L407.22,206.96L407.66,208.40L412.30,208.20L412.85,211.97L411.74,216.07L410.00,218.38L407.73,218.23L407.75,219.33L406.99,219.40L407.56,220.20L406.87,220.87L407.69,221.17L406.15,223.47L405.35,222.64L402.18,222.47L398.76,219.94L397.60,216.87L398.23,216.08L395.38,213.89L394.30,215.25L396.46,216.68L396.67,217.93L394.00,217.07L393.05,218.09L391.62,216.77L390.04,217.33L390.95,216.06L389.91,214.32L385.34,211.73L384.87,210.17L383.56,213.33L386.28,213.55L386.96,215.57L385.73,215.38L383.96,216.99L383.77,218.30L380.74,219.81L379.08,224.44L380.07,227.10L382.53,226.82L387.57,232.59L390.10,233.33L392.07,232.55L393.37,235.93L395.99,236.69L394.90,239.22L385.91,238.78L385.62,241.55L383.70,245.07L382.21,244.95L381.46,243.66L379.83,244.24L380.32,245.67L378.10,249.64L379.74,252.53L386.54,256.23L389.51,256.66L389.98,255.78L391.42,256.80L391.59,258.26L390.32,259.45L390.99,264.02L388.45,265.42L387.78,269.74L391.09,273.14L392.03,272.73L390.66,277.45L395.57,278.44L393.54,280.99L393.31,282.97L395.28,285.52L394.60,287.66L395.50,290.77L394.97,291.51L395.77,291.91L397.77,299.44L397.00,300.74L397.44,303.67L396.49,304.35L394.54,303.06L396.61,305.37L397.95,309.76L396.32,310.36L394.39,309.43L393.68,307.10L393.68,309.70L392.70,309.97L392.79,308.60L392.41,311.06L390.87,310.86L390.62,305.64L391.90,302.10L390.88,301.00L391.90,299.84L390.63,300.82L391.30,301.70L390.54,303.52L389.44,303.53L389.98,298.35L388.25,305.42L388.20,307.10L389.47,307.43L388.35,311.27L387.68,310.93L387.24,311.93L386.78,311.30L387.61,306.53L386.92,303.41L386.19,309.95L385.01,310.42L385.00,308.46L383.86,308.05L384.19,309.43L383.46,310.23L382.56,306.46L383.39,310.99L382.43,311.33L381.08,309.13L381.60,306.67L380.42,303.26L381.83,300.89L381.38,299.10L377.86,297.65L375.95,293.97L377.05,297.56L380.16,298.87L380.75,300.65L378.50,302.10L377.39,305.36L375.22,307.42L372.18,309.32L367.96,310.16L366.98,306.94L363.77,306.00L362.62,303.32L361.32,302.91L359.66,304.28L358.84,301.12L353.57,298.68L353.36,297.97L356.33,296.42L353.83,293.08L354.23,291.30L351.84,290.39L351.38,288.86L347.89,286.78L348.10,283.77L349.89,282.72L343.77,282.37L340.49,279.19L338.38,279.23L337.29,277.28L338.50,274.17L337.15,273.10L340.55,272.22L341.18,270.37L342.86,270.94L342.81,272.66L345.54,273.43L348.10,270.18L355.35,268.01L356.79,264.26L362.17,266.32L361.67,265.06L363.40,265.61L364.34,263.97L363.46,261.72L367.60,262.13L368.17,259.88L369.56,260.29L370.13,258.97L371.39,258.81L370.69,257.33L372.74,255.85L373.98,252.53L373.05,250.69L374.89,250.96L375.83,250.13L374.17,246.85L374.98,246.77L375.41,243.79L373.39,239.39L374.70,236.82L372.92,234.53L376.87,231.91L378.95,232.77L378.49,229.03L373.77,224.22L377.14,219.85L383.35,215.59L381.48,211.69L379.31,211.85L380.82,207.38L379.50,203.46L377.15,200.60L377.49,198.29L377.78,197.68L379.57,199.79L384.35,200.95L387.34,199.13L391.34,199.68ZM393.94,310.52L394.60,311.81L393.31,311.79L393.36,310.15L393.94,310.52ZM378.63,308.33L380.42,305.04L380.29,309.82L378.66,309.60L378.63,308.33ZM389.54,304.02L390.18,304.29L389.73,306.68L388.58,305.91L389.54,304.02Z"><title>West Bengal</title></path>
<path data-code="IN-AS" data-name="Assam" d="M412.30,208.20L417.30,207.61L418.23,206.00L421.42,204.71L425.87,207.04L428.28,207.30L434.70,206.55L439.07,207.15L441.37,205.22L443.24,206.69L448.91,205.48L449.91,206.58L450.18,205.02L452.83,205.55L453.66,204.22L458.29,203.93L465.17,201.34L471.16,203.59L477.76,202.88L479.72,203.67L483.72,202.53L486.17,200.74L486.54,198.68L493.93,192.15L493.35,190.43L493.93,189.72L495.97,190.81L499.19,190.60L513.69,184.77L515.62,185.27L521.36,182.89L526.14,182.92L522.46,188.33L522.89,190.12L524.53,191.53L524.55,194.63L526.23,193.68L526.77,195.36L524.85,197.14L520.01,198.05L517.54,197.42L515.91,199.83L508.35,204.08L506.48,203.63L503.65,206.88L498.46,209.10L495.83,212.84L494.42,211.54L492.57,215.41L489.55,218.93L488.43,224.88L485.29,225.98L485.61,223.58L483.54,224.07L483.92,225.32L477.08,231.62L479.04,234.15L479.27,236.13L475.68,241.85L475.94,243.10L474.50,246.23L472.97,246.62L471.47,254.25L467.75,255.19L466.27,252.89L463.79,257.77L461.10,259.95L460.19,259.47L460.04,257.78L456.27,257.25L456.96,254.62L456.41,252.64L454.96,251.71L456.52,247.01L456.22,245.07L456.86,244.51L459.25,245.83L461.06,245.29L461.17,244.00L459.33,242.47L462.60,239.57L467.28,237.90L466.87,235.61L463.05,232.76L464.79,230.38L463.21,230.86L459.28,227.31L455.28,228.81L456.16,224.22L455.44,223.01L457.09,220.96L450.72,221.85L448.57,220.85L446.07,223.98L445.31,223.82L445.42,222.09L444.57,221.92L442.34,224.80L443.37,224.84L440.26,225.74L437.68,227.99L437.19,225.23L434.13,225.89L433.07,223.74L426.92,223.98L426.28,223.22L424.88,224.39L425.08,223.00L422.32,222.27L417.45,223.41L413.90,228.08L414.90,230.98L413.13,231.52L412.76,233.27L411.36,233.80L411.85,229.90L410.89,226.31L411.74,223.02L410.38,221.96L409.69,219.71L408.52,219.39L411.74,216.07L412.85,211.97L412.30,208.20Z"><title>Assam</title></path>
<path data-code="IN-UT" data-name="Uttarakhand" d="M232.77,131.46L239.85,133.60L247.43,138.53L244.91,138.78L242.07,142.51L239.38,143.84L237.61,146.64L235.62,147.61L235.92,150.66L232.73,154.41L233.96,156.54L233.55,158.69L232.82,158.52L232.86,160.22L231.22,160.53L230.60,163.19L229.38,164.41L230.04,166.62L228.51,168.05L226.64,166.37L225.66,166.61L225.26,165.19L218.39,165.74L217.04,163.33L215.65,163.30L211.17,159.70L208.52,160.63L207.67,158.44L204.81,156.93L208.64,154.31L203.48,152.00L195.56,143.70L194.40,144.26L195.19,147.80L194.40,149.26L193.51,149.67L190.89,148.28L188.37,149.56L186.79,143.23L190.51,138.22L183.42,134.49L188.03,132.38L186.73,130.79L187.24,130.10L186.03,126.98L187.67,124.90L186.85,123.22L190.19,119.52L197.34,116.94L200.84,118.43L206.27,118.68L207.70,120.38L209.41,120.38L210.01,119.55L208.13,117.19L211.44,113.61L214.57,116.24L217.61,122.34L220.89,124.05L225.65,123.58L229.91,127.11L231.90,127.10L233.06,128.31L231.85,129.31L232.10,131.61L232.77,131.46Z"><title>Uttarakhand</title></path>
<path data-code="IN-NL" data-name="Nagaland" d="M512.62,209.66L510.49,210.22L508.78,213.12L508.88,217.66L509.78,218.72L509.66,220.53L510.83,221.61L508.03,224.17L508.18,227.86L503.97,232.50L501.51,233.65L499.69,232.78L500.02,228.84L495.46,232.35L493.03,232.66L489.90,231.52L485.11,231.95L485.84,233.67L482.06,238.46L479.15,236.54L479.04,234.15L477.08,231.62L483.92,225.32L483.54,224.07L485.61,223.58L485.29,225.98L488.43,224.88L489.55,218.93L492.57,215.41L494.42,211.54L495.83,212.84L498.46,209.10L503.65,206.88L506.48,203.63L508.35,204.08L511.30,201.99L512.38,203.73L511.69,205.81L512.62,209.66Z"><title>Nagaland</title></path>
<path data-code="IN-MN" data-name="Manipur" d="M501.51,233.65L499.70,238.49L502.23,239.80L502.59,242.05L500.23,247.96L499.01,248.46L494.90,255.89L491.58,265.69L484.02,262.42L479.29,263.33L477.27,260.75L475.41,262.17L475.12,261.15L472.75,261.63L470.40,260.44L472.97,246.62L474.50,246.23L475.94,243.10L475.68,241.85L479.15,236.54L482.06,238.46L485.84,233.67L485.11,231.95L489.90,231.52L493.03,232.66L495.46,232.35L500.02,228.84L499.38,232.32L501.51,233.65Z"><title>Manipur</title></path>
<path data-code="IN-MZ" data-name="Mizoram" d="M476.42,261.81L478.83,269.57L477.76,279.90L475.86,282.37L473.62,281.49L474.05,284.85L472.26,287.02L474.02,297.27L473.08,297.84L473.42,298.71L471.24,298.42L470.19,302.70L469.04,302.10L468.50,303.30L467.73,301.52L464.90,299.37L464.28,302.06L462.89,302.89L461.40,288.56L458.87,283.95L458.66,275.42L456.87,270.33L458.35,262.63L457.72,257.78L460.04,257.78L460.19,259.47L461.28,259.88L463.79,257.77L466.27,252.89L467.75,255.19L471.13,254.56L471.64,256.01L470.40,260.44L472.75,261.63L476.42,261.81Z"><title>Mizoram</title></path>
<path data-code="IN-TR" data-name="Tripura" d="M457.00,268.46L455.78,269.55L454.97,267.88L452.52,269.71L450.73,268.06L451.06,272.60L447.39,277.05L448.36,280.70L444.46,283.60L440.89,277.24L440.17,278.01L440.45,281.23L439.38,280.47L438.90,275.39L436.17,270.27L436.81,269.11L436.01,268.10L437.37,267.09L437.57,264.36L438.65,262.76L439.86,262.62L440.31,260.54L444.38,260.61L445.26,258.23L446.65,259.67L447.19,257.85L449.64,259.52L450.30,255.78L451.65,256.22L451.23,255.04L453.81,254.91L454.96,251.71L456.41,252.64L456.96,254.62L456.27,257.25L458.22,258.77L458.12,265.37L457.20,265.94L457.00,268.46Z"><title>Tripura</title></path>
<path data-code="IN-ML" data-name="Meghalaya" d="M459.33,242.47L452.80,238.94L445.44,240.09L437.94,238.54L430.23,239.73L421.72,239.58L413.22,236.64L411.56,236.88L411.22,234.33L412.86,233.12L413.13,231.52L414.90,230.98L413.90,228.08L417.45,223.41L422.32,222.27L425.08,223.00L424.88,224.39L426.28,223.22L426.92,223.98L433.07,223.74L434.13,225.89L437.19,225.23L437.68,227.99L440.26,225.74L443.37,224.84L442.34,224.80L444.57,221.92L445.42,222.09L445.31,223.82L446.07,223.98L448.57,220.85L450.72,221.85L456.92,220.91L455.44,223.01L456.16,224.22L455.28,228.81L459.28,227.31L463.21,230.86L464.79,230.38L463.05,232.76L466.87,235.61L467.28,237.90L462.60,239.57L459.33,242.47Z"><title>Meghalaya</title></path>
<path data-code="IN-PB" data-name="Punjab" d="M141.14,99.89L142.34,97.63L141.21,96.22L143.88,95.68L145.01,96.86L151.79,92.78L152.65,94.49L147.08,97.85L147.10,98.93L147.96,99.09L146.47,101.33L152.04,103.41L157.62,116.46L159.40,116.62L160.98,114.23L162.46,116.83L165.88,118.30L165.73,122.21L169.83,126.09L169.44,127.02L167.22,127.69L168.81,129.33L170.12,129.17L171.22,132.51L170.86,135.56L169.89,134.31L168.29,134.18L167.86,135.80L164.31,137.88L166.22,138.82L164.17,141.10L162.74,140.75L161.90,139.06L161.23,140.44L158.11,140.16L158.98,141.01L157.57,143.86L158.47,145.39L155.09,147.60L152.16,147.78L150.49,146.16L148.66,147.39L144.08,146.58L140.28,151.56L138.86,149.00L140.09,147.73L139.25,146.11L138.41,146.91L137.52,146.23L137.43,144.22L135.58,145.31L132.24,143.05L129.15,144.49L114.94,143.09L116.61,139.22L114.10,135.73L118.11,132.17L118.29,130.59L120.09,129.50L122.98,124.94L124.51,124.95L129.31,121.14L127.03,120.52L126.47,119.32L128.53,113.66L126.15,108.62L127.29,106.31L130.04,103.85L131.63,104.00L132.47,102.35L141.14,99.89Z"><title>Punjab</title></path>
<path data-code="IN-RJ" data-name="Rajasthan" d="M70.07,185.44L77.46,183.50L78.10,179.99L82.59,175.63L84.58,169.81L86.40,167.38L97.12,161.78L102.76,152.02L105.32,144.23L112.19,141.81L116.05,138.70L116.51,139.94L114.94,143.09L126.66,143.83L127.22,145.55L125.59,147.50L128.30,147.66L127.74,150.96L128.40,153.00L127.04,153.92L128.45,156.09L132.51,154.68L137.14,158.02L141.50,156.77L141.95,158.05L142.88,157.59L142.97,160.62L145.31,162.96L144.70,164.19L146.71,169.87L150.05,174.06L153.49,175.84L155.79,179.21L154.88,178.94L153.18,180.34L154.83,180.65L154.02,183.28L152.90,183.94L154.04,185.73L158.17,186.14L157.25,181.81L159.00,181.09L160.47,181.66L159.91,178.72L162.72,179.44L163.27,180.35L162.50,180.26L163.15,181.00L162.57,181.40L164.69,183.27L166.53,182.35L166.32,180.99L170.09,178.06L171.80,179.99L171.84,185.38L170.87,189.00L174.23,187.86L173.87,186.46L178.12,186.50L179.23,191.66L181.13,194.74L184.10,196.08L185.13,198.61L182.20,200.87L186.28,202.59L180.77,204.96L180.30,207.06L186.31,203.97L191.81,205.31L193.50,203.70L196.10,204.29L194.78,205.18L195.24,206.17L194.58,206.80L193.40,206.74L192.99,208.98L189.70,209.36L186.21,212.51L179.14,215.40L176.80,217.78L175.22,217.86L168.06,224.14L166.21,224.20L164.44,225.64L163.23,227.96L164.54,233.39L168.53,235.89L171.46,236.45L176.26,235.73L178.13,233.73L179.57,234.35L180.01,239.72L172.88,240.82L170.05,242.32L170.69,244.75L168.85,246.03L173.16,248.57L174.03,250.99L171.45,252.63L170.58,251.25L169.29,251.24L169.55,255.80L170.92,257.94L170.34,259.03L168.55,259.33L166.73,258.07L166.58,256.35L163.80,258.35L162.77,257.24L158.27,256.86L157.51,255.51L156.58,256.30L156.45,259.85L153.99,261.79L154.03,263.23L150.41,264.89L149.22,264.20L148.56,266.74L146.77,266.16L144.71,262.75L145.51,261.68L149.25,262.51L150.67,260.58L149.55,259.10L150.63,256.69L149.33,254.07L149.91,252.68L151.93,252.53L150.80,248.20L149.57,246.96L144.00,248.49L139.24,247.92L139.14,244.71L141.19,245.77L143.21,244.76L140.22,244.34L141.62,243.86L141.60,241.38L138.14,241.77L137.43,244.63L135.57,245.28L132.25,244.02L132.54,246.55L135.27,247.01L134.85,248.90L133.44,249.26L131.59,246.93L131.64,249.19L130.29,252.07L132.81,253.84L130.65,257.18L133.24,257.82L135.07,261.70L133.85,265.42L134.45,269.19L132.93,271.97L128.80,274.10L126.74,276.70L130.44,279.11L123.06,281.77L121.38,279.38L119.31,279.09L118.85,277.30L116.29,275.32L114.91,275.72L113.38,273.73L110.10,273.73L109.88,270.48L108.97,269.80L107.81,270.46L107.78,268.48L105.09,266.77L105.28,264.53L106.31,263.71L105.01,260.44L102.99,262.22L100.31,259.35L100.42,256.69L102.45,255.16L100.23,254.46L100.12,252.40L98.32,252.75L97.58,254.84L96.51,255.33L93.16,254.74L89.94,252.35L88.31,253.93L87.50,252.09L84.43,250.70L85.90,249.71L83.02,249.87L80.75,248.39L78.59,249.39L77.14,248.86L76.48,249.84L71.35,248.80L65.32,249.82L62.24,248.70L58.37,239.31L54.75,234.65L54.74,229.11L53.59,228.42L47.49,228.65L44.12,224.01L45.51,212.03L43.61,210.85L38.33,210.73L32.75,207.31L33.40,201.65L34.66,198.89L39.74,194.46L42.88,190.66L44.46,186.45L48.93,182.46L51.06,181.90L52.99,182.72L56.75,188.49L59.58,188.32L65.40,185.78L70.07,185.44Z"><title>Rajasthan</title></path>
<path data-code="IN-GJ" data-name="Gujarat" d="M61.12,255.41L62.73,254.31L60.76,253.25L60.34,250.86L62.24,248.70L65.32,249.82L71.35,248.80L76.48,249.84L77.14,248.86L78.59,249.39L80.75,248.39L83.02,249.87L85.90,249.71L84.43,250.70L87.50,252.09L88.31,253.93L89.94,252.35L93.16,254.74L96.51,255.33L97.58,254.84L98.32,252.75L100.12,252.40L100.23,254.46L102.45,255.16L100.42,256.69L100.31,259.35L102.99,262.22L105.01,260.44L106.31,263.71L105.28,264.53L105.09,266.77L107.78,268.48L107.81,270.46L108.97,269.80L109.88,270.48L110.10,273.73L113.38,273.73L114.91,275.72L116.29,275.32L118.60,277.07L119.31,279.09L120.87,279.05L122.77,281.10L123.83,284.98L125.45,285.66L123.75,289.82L119.64,292.35L117.66,292.27L118.87,294.12L121.61,294.75L120.70,295.81L118.14,296.05L119.66,301.02L119.44,303.41L113.49,305.71L114.04,308.79L112.41,310.21L113.70,312.26L119.77,311.01L122.35,310.97L122.62,311.87L117.83,313.19L115.52,316.59L113.47,316.70L111.38,319.12L108.73,318.50L114.59,322.91L115.34,326.88L113.17,330.26L111.45,331.14L110.15,331.11L106.75,327.99L105.21,329.34L106.96,331.63L105.14,334.99L105.46,338.76L103.31,338.55L102.01,340.15L101.30,338.81L99.42,339.53L99.12,338.13L100.71,336.81L99.63,335.63L96.42,337.34L97.44,339.82L92.99,340.91L94.35,335.33L96.22,334.54L95.57,333.02L96.54,327.75L97.43,327.21L96.92,325.97L96.29,326.25L96.57,325.04L95.38,325.68L95.38,323.80L96.34,322.75L94.18,321.93L95.63,321.45L94.88,319.81L92.84,320.91L93.10,319.13L92.30,320.41L91.25,320.29L93.48,318.43L91.83,316.95L91.32,317.36L90.73,315.59L91.83,315.16L90.31,314.70L93.71,313.37L93.55,312.77L90.67,314.07L95.13,309.55L100.88,307.28L97.06,308.73L90.05,309.10L90.36,305.45L93.48,302.56L89.91,304.23L89.14,302.92L90.52,298.56L93.73,299.17L94.93,297.77L96.86,297.99L96.67,296.83L93.89,297.58L90.48,296.69L88.48,297.80L87.10,297.39L87.20,295.13L85.91,297.24L84.28,296.42L82.57,296.90L83.35,297.43L84.28,296.69L84.25,297.68L85.51,297.86L85.53,300.87L83.03,302.93L81.61,302.31L81.70,303.54L80.34,303.67L82.72,303.93L82.96,305.61L80.88,304.47L81.75,305.72L79.88,305.29L79.73,306.45L82.89,306.56L85.37,309.90L81.75,316.12L81.75,318.31L63.80,327.08L60.68,328.20L56.35,328.02L48.83,323.86L43.58,319.35L39.00,313.11L31.91,306.81L31.23,304.91L30.21,305.19L27.64,302.85L22.92,296.56L23.64,294.08L25.32,292.83L25.28,294.47L27.71,294.17L27.11,295.90L27.90,296.98L32.88,295.62L33.55,293.50L35.42,295.34L37.60,292.86L38.75,294.09L42.06,291.64L45.89,291.23L49.55,284.43L51.96,282.89L51.93,280.40L51.26,279.90L49.99,281.11L49.87,283.67L48.22,283.72L46.91,282.48L45.60,283.51L45.00,282.61L45.09,283.88L39.46,285.31L37.28,287.54L34.85,287.25L27.71,285.44L21.46,282.09L17.51,279.34L16.50,278.00L16.93,277.14L15.61,277.30L16.63,275.99L15.02,275.12L15.32,274.08L13.22,273.59L14.38,272.23L13.47,271.53L12.99,272.61L12.94,270.09L14.48,270.14L14.07,269.33L20.63,264.95L17.12,265.86L13.29,268.23L11.42,270.77L8.00,270.26L10.47,269.20L9.22,268.59L9.01,267.02L8.38,267.36L10.24,263.81L18.82,263.22L19.24,255.92L20.21,255.96L20.95,257.81L22.16,256.13L23.59,257.43L34.43,257.00L38.27,259.28L42.86,259.05L44.61,256.44L52.27,254.05L53.05,254.06L53.00,256.79L54.14,257.71L57.01,257.80L59.65,255.31L61.12,255.41Z"><title>Gujarat</title></path>
<path data-code="IN-HP" data-name="Himachal Pradesh" d="M198.60,92.32L199.93,94.54L200.04,98.27L205.37,103.57L204.00,107.44L206.76,110.69L204.53,112.64L205.71,113.93L205.30,116.47L208.13,117.19L210.00,120.21L207.70,120.38L206.27,118.68L200.84,118.43L197.34,116.94L192.25,119.38L190.41,119.37L186.85,123.22L187.67,124.90L186.03,126.98L187.24,130.10L186.73,130.79L188.03,132.38L183.61,134.22L183.76,135.15L180.98,134.37L181.31,133.70L179.98,134.21L176.77,133.26L175.39,131.71L175.24,128.58L172.92,127.26L171.14,124.83L168.58,124.66L165.92,122.48L165.98,118.42L164.84,117.22L162.46,116.83L160.98,114.23L159.40,116.62L157.62,116.46L152.04,103.41L146.42,101.19L147.96,99.09L147.10,98.93L147.08,97.85L152.65,94.49L151.43,92.54L152.83,90.54L152.64,87.65L150.68,84.42L153.43,84.87L158.69,81.63L159.75,79.95L164.37,78.25L168.32,79.02L174.54,83.89L179.39,85.55L186.32,82.65L188.87,85.43L191.68,90.68L198.22,87.54L198.54,89.74L197.17,90.96L196.61,93.05L197.35,93.44L198.60,92.32Z"><title>Himachal Pradesh</title></path>
<path data-code="IN-JK" data-name="Jammu and Kashmir" d="M130.54,93.66L128.76,91.12L129.80,86.27L127.72,87.84L123.48,87.55L122.75,86.69L122.83,83.01L119.90,82.10L116.82,78.73L117.07,77.51L118.83,76.34L119.98,73.03L119.67,71.93L116.61,69.96L116.49,67.99L117.68,66.36L121.00,65.37L122.11,63.70L121.29,62.68L115.48,62.38L115.05,60.65L116.95,59.42L116.86,58.58L115.88,56.87L113.86,56.65L112.85,55.54L115.66,51.66L115.54,50.12L122.36,47.59L135.99,50.37L140.07,50.33L142.14,51.82L142.63,55.54L144.40,57.35L148.01,58.96L149.47,61.61L152.03,63.66L154.73,63.30L157.37,65.47L158.86,71.44L163.36,72.87L168.05,78.96L164.37,78.25L161.66,78.95L153.43,84.87L150.82,84.26L152.59,87.43L152.83,90.54L151.08,92.92L145.01,96.86L143.88,95.68L141.21,96.22L136.10,93.55L130.54,93.66Z"><title>Jammu and Kashmir</title></path>
<path data-code="IN-BR" data-name="Bihar" d="M371.15,214.43L375.27,213.34L377.82,215.23L379.31,211.85L381.30,211.64L382.95,214.06L382.43,214.71L383.28,215.85L377.14,219.85L373.73,224.37L378.49,229.03L378.95,232.77L376.87,231.91L373.37,233.86L372.94,234.60L374.70,236.82L373.67,238.30L368.82,236.11L366.96,238.81L364.71,238.90L363.94,241.29L362.53,241.33L361.33,242.84L359.86,250.78L357.54,250.30L357.02,251.92L354.52,250.79L353.53,251.60L351.36,251.32L349.66,252.95L348.83,255.68L345.60,253.85L345.86,251.52L343.00,251.16L341.20,247.56L338.81,248.59L337.65,247.27L335.73,247.16L333.89,249.58L334.07,251.40L332.61,251.39L331.64,252.52L327.06,252.80L323.50,255.70L323.34,254.68L320.14,255.47L318.09,252.62L312.24,256.48L309.07,253.68L308.91,251.93L307.00,252.12L306.76,253.02L306.14,252.33L305.65,253.15L303.62,249.77L301.70,251.67L294.34,251.96L294.35,247.63L291.21,245.06L290.62,240.99L291.75,237.86L301.11,232.25L305.89,227.88L307.18,228.04L307.36,229.38L308.36,229.77L309.26,229.42L309.08,227.76L309.85,227.39L312.98,228.59L314.59,227.12L310.19,223.80L307.75,223.73L303.00,218.45L303.36,217.60L306.68,216.92L306.69,214.73L303.52,213.16L301.85,213.34L301.84,211.71L302.54,212.31L304.23,211.34L305.07,209.65L310.55,209.55L307.81,207.50L307.43,204.82L305.99,205.12L304.53,204.18L301.22,196.19L300.39,196.08L300.94,195.27L300.13,193.99L303.36,193.85L305.07,192.34L308.61,195.14L313.96,196.08L315.46,198.59L315.14,202.09L318.44,202.44L322.18,205.73L324.85,205.62L325.47,207.46L327.19,207.90L333.18,205.62L334.90,206.71L335.11,209.57L337.26,211.31L340.67,209.55L344.10,210.98L345.75,210.40L353.74,214.34L359.84,211.03L361.05,214.53L363.15,214.47L364.67,215.70L366.83,214.09L370.00,215.07L371.15,214.43Z"><title>Bihar</title></path>
<path data-code="IN-UP" data-name="Uttar Pradesh" d="M278.53,188.75L279.99,192.77L287.07,193.79L289.86,196.05L291.36,194.96L291.81,193.26L295.59,193.54L301.17,196.10L304.53,204.18L305.99,205.12L307.43,204.82L307.81,207.50L310.55,209.55L305.07,209.65L304.23,211.34L302.54,212.31L301.84,211.71L301.85,213.34L303.52,213.16L306.69,214.73L306.68,216.92L303.36,217.60L303.00,218.45L308.09,223.98L310.19,223.80L314.62,226.86L312.98,228.59L309.29,227.63L309.30,229.33L308.36,229.77L307.36,229.38L307.18,228.04L305.89,227.88L301.11,232.25L291.04,238.60L291.21,245.06L294.35,247.63L294.34,251.96L292.02,252.68L293.01,255.47L288.60,263.55L283.42,264.12L279.66,261.21L278.53,258.93L279.63,258.25L280.22,255.94L279.66,251.52L281.21,250.76L279.29,248.20L277.06,248.80L273.94,248.19L273.61,249.84L271.70,249.91L272.00,248.68L270.92,248.25L270.88,246.74L269.86,247.27L269.87,245.70L268.26,246.40L265.17,245.14L263.62,243.97L263.04,242.03L258.12,240.88L257.36,238.58L255.28,239.28L256.10,240.04L255.16,240.49L251.89,239.19L250.74,243.40L249.19,244.39L247.45,243.24L242.93,242.90L244.74,238.83L244.30,238.22L241.16,239.58L242.11,240.93L240.64,241.10L239.26,239.53L238.92,240.42L237.28,240.23L238.31,241.56L237.65,242.20L236.32,241.30L236.33,242.30L234.28,242.33L233.77,240.80L236.60,238.86L234.74,236.82L234.03,234.30L232.44,234.26L225.78,237.77L226.20,239.51L220.44,239.00L219.06,240.46L217.56,239.75L216.79,241.15L216.44,239.63L218.35,236.64L215.91,237.70L215.93,235.29L215.01,236.66L215.33,239.29L210.58,239.08L211.01,237.44L210.10,236.93L207.71,238.97L209.38,234.06L208.44,233.76L208.10,231.83L207.07,234.19L206.07,232.11L205.04,232.70L205.06,235.66L202.35,234.45L201.07,237.11L204.99,245.59L204.91,249.43L207.73,250.04L209.61,254.09L206.59,258.13L200.62,254.33L198.41,256.49L197.66,255.70L198.04,254.39L195.68,252.16L196.58,250.06L194.66,245.25L197.56,242.53L198.33,238.86L196.19,234.63L198.41,231.54L205.43,229.74L205.16,227.12L209.26,220.61L208.98,217.53L211.22,215.76L211.05,213.82L208.75,208.51L207.55,208.61L204.73,206.67L202.00,207.47L198.04,205.48L195.24,206.17L194.73,205.27L196.09,204.19L194.65,203.67L192.06,204.45L191.81,205.31L186.31,203.97L180.30,207.06L180.77,204.96L186.28,202.34L182.27,201.05L185.13,198.61L184.10,196.08L180.97,194.55L178.82,190.34L178.12,186.50L182.75,183.64L181.64,180.44L182.27,180.84L182.92,179.08L182.15,178.52L182.92,177.84L181.58,176.40L182.15,174.84L179.92,173.60L178.44,171.33L179.18,170.19L178.72,168.58L176.73,166.29L177.00,164.44L175.39,160.41L175.65,154.45L174.11,154.25L175.13,153.08L174.11,152.68L174.53,149.59L177.17,143.24L183.51,137.22L183.79,135.13L185.21,134.89L190.51,138.22L186.79,143.23L188.37,149.56L190.89,148.28L193.51,149.67L194.40,149.26L195.19,147.80L194.40,144.26L195.56,143.70L203.48,152.00L208.64,154.31L204.81,156.93L207.67,158.44L208.52,160.63L211.17,159.70L215.65,163.30L217.04,163.33L218.39,165.74L225.26,165.19L225.66,166.61L226.64,166.37L228.23,168.07L230.27,166.34L237.84,171.47L237.83,169.59L239.10,169.14L245.60,173.89L250.53,175.48L252.88,180.13L254.74,179.49L256.18,181.37L263.30,185.67L266.49,184.44L273.47,189.14L278.53,188.75Z"><title>Uttar Pradesh</title></path>
<path data-code="IN-AP" data-name="Andhra Pradesh" d="M246.77,426.29L246.30,427.37L244.92,425.95L245.29,425.26L246.77,426.29ZM233.92,471.85L231.39,467.53L231.27,469.72L230.50,468.21L229.80,470.20L230.97,472.08L233.57,472.77L230.66,472.91L230.77,471.85L229.38,471.41L229.76,472.42L227.94,474.78L224.24,476.22L224.58,477.67L223.10,477.37L222.79,476.30L218.50,475.47L217.95,477.68L215.99,479.44L214.80,479.13L213.14,481.18L209.41,480.21L208.29,481.32L207.50,480.47L205.01,480.92L203.52,482.24L202.27,486.66L200.83,487.17L199.84,489.19L197.08,488.56L195.79,486.87L196.05,484.99L197.58,484.85L198.20,483.73L200.22,484.72L199.18,483.34L201.03,480.53L202.09,476.59L198.60,475.63L198.37,470.28L195.83,470.31L192.78,468.92L193.47,467.93L193.00,464.97L192.12,464.42L190.03,465.50L190.34,462.85L189.25,463.78L187.63,463.28L187.59,464.70L185.35,466.89L184.32,466.52L181.25,468.12L180.14,465.25L175.80,464.62L175.57,463.90L174.75,464.94L175.27,466.75L172.20,466.76L173.08,463.83L170.57,458.87L172.29,458.70L172.81,460.79L174.98,462.02L178.28,461.90L179.08,463.95L180.09,464.30L179.00,459.67L181.60,458.28L181.48,456.33L180.01,455.42L179.95,457.36L177.67,455.45L175.37,455.25L174.25,457.47L171.18,456.97L171.44,456.03L170.25,454.48L171.58,452.81L169.65,452.51L168.06,449.88L169.58,443.73L167.67,442.44L168.51,440.28L173.53,442.05L175.33,439.33L174.85,436.01L173.38,435.14L172.29,432.06L173.04,431.94L173.09,429.29L174.47,428.84L173.41,426.97L173.53,424.72L177.11,422.67L185.19,424.28L189.57,423.84L193.38,425.60L195.89,423.19L196.06,421.43L200.82,420.33L206.24,421.51L207.28,419.19L208.23,419.35L210.53,417.27L214.04,417.48L214.10,412.35L215.08,410.83L224.50,407.69L227.97,409.62L230.11,405.78L228.98,404.19L231.60,401.78L233.48,401.77L236.07,405.46L239.88,406.37L239.66,403.56L235.90,402.72L236.15,400.66L237.45,401.53L238.09,400.09L239.75,399.45L241.22,400.64L244.68,401.18L246.08,398.40L254.97,394.84L256.11,393.85L258.05,388.18L261.81,385.61L261.50,384.10L266.77,381.42L270.45,382.42L272.13,381.40L272.69,379.50L271.78,378.18L274.14,371.92L275.34,372.09L275.50,373.85L277.11,375.79L276.83,377.27L277.94,377.70L280.35,375.41L280.79,373.71L282.82,375.19L285.33,374.49L286.16,371.80L285.13,369.49L286.96,367.15L288.36,367.48L291.90,365.25L290.18,362.49L292.97,362.95L293.24,360.86L294.25,362.12L296.01,359.73L298.34,363.73L298.56,362.30L299.53,362.32L301.30,366.15L306.24,366.61L309.48,365.98L311.92,363.25L311.97,361.71L315.69,360.52L315.98,359.18L317.43,359.20L317.70,360.00L316.97,359.38L316.62,360.29L317.71,360.51L315.87,363.41L311.11,369.58L307.82,371.79L308.27,372.30L309.74,371.25L305.33,376.33L293.02,383.82L290.96,387.92L289.20,387.94L290.17,388.98L288.57,389.57L289.05,390.41L279.36,395.28L272.88,400.04L270.69,403.65L271.83,405.30L272.73,405.05L272.48,403.11L272.81,404.06L272.28,408.66L271.81,410.06L271.21,409.81L271.71,410.63L261.57,415.76L257.74,414.75L255.12,415.41L255.02,414.56L252.20,415.56L250.15,422.81L247.34,425.26L247.60,426.63L245.69,425.14L245.44,421.58L245.32,424.29L243.77,427.86L243.20,424.51L241.22,424.04L236.07,426.25L233.95,428.17L230.43,436.07L229.73,440.31L230.76,447.86L232.07,450.03L231.39,450.72L232.41,450.84L232.01,455.24L229.62,457.99L231.27,457.54L233.92,471.85ZM270.27,407.84L270.11,407.22L269.29,407.86L270.84,408.42L271.59,407.56L270.27,407.84Z"><title>Andhra Pradesh</title></path>
<path data-code="IN-OR" data-name="Odisha" d="M367.96,310.16L361.18,312.27L356.60,317.29L356.17,320.76L358.44,326.28L356.82,326.78L358.82,327.36L359.05,328.17L357.96,328.43L359.88,328.43L354.45,332.60L353.87,335.01L355.53,334.08L353.37,336.50L354.51,336.09L349.67,338.69L347.74,341.96L348.39,342.38L344.35,341.03L343.30,339.51L343.58,340.91L347.39,343.06L330.34,349.08L329.79,348.27L332.57,347.44L332.46,344.85L330.03,344.43L325.95,347.63L323.75,351.75L324.15,352.78L326.18,351.26L325.43,350.73L326.45,349.22L329.13,348.54L328.87,350.05L327.21,350.32L327.99,350.82L332.57,348.54L325.20,352.84L317.95,359.92L316.15,359.12L315.69,360.52L311.97,361.71L311.83,363.39L309.14,366.13L301.40,366.20L299.53,362.32L298.56,362.30L298.34,363.73L296.01,359.73L294.25,362.12L293.24,360.86L292.97,362.95L290.18,362.49L291.90,365.25L288.36,367.48L286.96,367.15L285.13,369.49L286.16,371.80L285.16,374.66L282.82,375.19L280.79,373.71L280.35,375.41L277.82,377.71L276.83,377.27L277.11,375.79L275.50,373.85L275.34,372.09L274.14,371.92L271.78,378.18L272.69,379.50L272.13,381.40L270.45,382.42L266.77,381.42L258.13,386.33L254.70,386.14L257.47,377.04L261.02,375.30L265.00,370.95L264.18,369.63L267.82,366.90L268.57,367.37L270.23,363.64L268.70,357.83L269.10,354.23L266.52,351.99L266.66,347.01L262.88,344.28L262.62,343.05L264.96,340.26L266.39,342.13L267.50,341.21L270.04,342.90L271.66,345.89L272.71,344.68L274.84,344.91L276.77,345.49L276.69,346.99L279.16,345.49L278.92,342.35L277.36,342.60L273.72,341.03L273.81,333.35L272.32,331.54L272.37,325.06L274.60,325.29L278.21,319.36L283.94,318.84L287.28,320.00L289.80,315.24L291.67,315.63L290.70,312.44L293.29,306.44L295.12,305.37L295.23,303.98L294.15,302.98L295.23,301.28L294.82,300.19L296.21,298.19L302.40,294.89L303.15,293.65L302.67,291.68L304.47,292.47L306.54,295.17L309.01,295.98L311.05,295.84L312.84,294.03L320.13,294.02L323.06,292.40L323.79,295.84L321.58,300.32L323.66,300.18L325.94,301.86L329.47,299.21L334.48,300.93L336.59,299.87L336.37,302.00L337.37,302.72L339.97,300.36L340.33,295.76L339.30,292.48L341.39,291.35L347.27,295.86L349.71,295.77L353.57,298.68L358.54,300.86L359.66,304.28L361.32,302.91L362.62,303.32L363.77,306.00L366.98,306.94L367.96,310.16Z"><title>Odisha</title></path>
<path data-code="IN-DH" data-name="Dadra and Nagar Haveli and Daman and Diu" d="M95.03,334.80L95.88,333.14L96.22,334.54L95.03,334.80ZM99.63,335.63L100.71,336.81L99.12,338.13L99.20,339.22L101.59,339.08L101.08,341.83L98.37,341.57L96.35,337.71L99.63,335.63Z"><title>Dadra and Nagar Haveli and Daman and Diu</title></path>
<path data-code="IN-MH" data-name="Maharashtra" d="M111.47,427.72L110.45,427.45L109.68,424.58L106.81,421.02L107.51,418.42L106.74,419.93L105.09,414.86L105.59,414.18L104.11,411.77L104.14,410.96L105.47,411.85L104.28,410.23L105.33,410.02L104.23,409.33L103.55,400.67L101.90,396.13L103.06,396.55L100.77,391.13L102.16,390.53L100.68,389.74L100.72,387.55L98.52,382.03L99.23,380.94L98.18,380.95L97.06,377.81L97.30,376.57L99.37,377.74L99.31,378.51L99.80,377.81L99.75,376.83L96.79,375.07L96.69,371.83L98.70,372.90L95.73,368.69L95.92,366.33L97.06,365.78L98.33,367.69L98.72,366.04L96.50,364.43L99.48,362.02L98.20,362.35L97.95,359.07L97.20,361.64L95.99,362.09L95.09,364.25L94.15,363.36L95.15,361.25L95.13,358.94L94.35,359.14L95.26,357.28L94.24,358.24L94.43,356.06L97.91,356.46L99.35,357.98L98.19,356.32L94.74,355.70L94.02,354.73L93.85,352.71L96.17,351.70L94.62,351.81L93.62,350.73L93.87,351.96L93.25,351.62L92.59,347.86L93.33,348.24L93.45,346.76L92.42,347.42L91.89,345.32L92.99,340.91L97.44,339.82L98.37,341.57L101.08,341.83L101.52,340.07L102.72,339.85L103.18,338.64L105.46,338.76L105.14,334.99L106.96,331.63L105.20,329.42L106.50,328.07L110.15,331.11L111.45,331.14L113.17,330.26L115.16,327.38L114.59,322.91L108.73,318.50L111.38,319.12L113.47,316.70L115.52,316.59L117.83,313.19L121.52,312.70L122.64,311.69L122.35,310.97L119.77,311.01L113.61,312.20L112.41,310.21L114.04,308.79L113.49,305.71L118.18,303.64L121.68,303.85L124.63,301.99L126.08,303.52L126.58,307.90L128.36,309.25L135.87,310.96L138.27,313.84L141.46,314.79L155.82,315.06L156.94,318.55L156.30,319.35L157.38,320.52L159.61,320.91L165.93,318.24L166.14,315.43L168.74,312.82L169.43,310.43L175.04,307.95L176.97,308.42L179.09,306.95L181.72,307.09L183.10,308.29L183.60,311.46L180.94,311.74L182.09,314.60L189.84,314.41L198.33,309.92L199.21,310.30L199.48,312.26L206.40,312.64L208.60,312.15L209.21,310.62L214.15,309.34L214.95,308.15L219.18,309.16L220.65,311.65L224.26,310.55L225.95,311.84L228.85,311.46L232.22,309.64L236.24,312.82L236.24,314.53L237.77,314.38L240.40,315.89L241.39,315.40L240.61,317.38L237.41,319.45L236.87,321.91L237.37,323.56L239.08,324.24L239.38,328.74L237.96,330.36L240.19,330.26L240.57,332.14L240.34,335.86L236.65,337.69L236.53,339.39L238.63,339.67L239.12,341.40L238.64,343.95L237.03,343.74L236.71,344.59L237.80,345.26L236.36,346.51L237.66,347.02L238.76,346.14L241.81,350.40L244.35,351.48L245.42,353.30L243.75,354.27L244.22,355.65L242.16,357.10L239.47,354.50L236.29,357.32L233.81,362.73L235.25,365.70L233.70,366.95L233.78,368.04L230.43,368.36L227.20,365.78L228.09,363.61L227.51,361.26L226.17,360.70L227.70,358.94L228.07,353.82L224.95,350.46L221.97,350.95L220.86,352.18L215.08,350.56L213.81,353.10L208.92,350.38L206.03,346.82L200.41,346.37L197.64,344.53L199.02,347.97L197.72,349.48L197.15,352.69L195.46,353.54L194.64,357.05L192.46,357.02L191.31,355.84L189.01,356.39L188.47,359.79L186.89,361.41L189.87,365.61L186.16,368.52L185.71,370.81L183.30,372.15L182.25,374.67L183.15,376.14L181.04,376.65L179.35,375.27L178.93,373.32L177.82,373.24L177.13,375.85L174.53,378.35L171.04,379.15L170.35,384.20L168.07,384.31L168.34,385.76L166.86,388.13L164.01,386.73L160.10,390.07L160.16,392.78L161.36,394.68L160.68,395.22L158.19,394.48L153.09,395.74L151.86,393.93L149.99,394.71L147.07,392.83L145.92,394.47L147.22,397.40L147.34,402.70L145.87,401.94L144.44,402.98L140.42,403.05L140.17,404.19L138.76,404.88L136.57,403.17L134.98,403.15L132.79,405.01L133.01,407.07L129.85,407.97L129.04,409.19L129.43,410.10L127.32,411.18L126.81,409.75L125.14,409.29L123.62,411.35L121.57,411.43L121.25,412.50L122.01,412.30L123.70,414.20L122.74,414.67L123.07,416.55L125.90,417.86L125.78,420.01L124.18,420.81L125.02,422.32L123.03,427.13L121.20,427.67L120.66,426.80L118.91,429.38L116.86,429.91L113.92,426.56L111.47,427.72Z"><title>Maharashtra</title></path>
<path data-code="IN-GA" data-name="Goa" d="M118.74,444.40L115.42,440.58L116.33,439.12L115.01,435.31L113.00,434.02L116.44,434.70L113.25,433.20L114.54,431.43L112.41,431.92L112.14,430.21L114.03,428.96L111.98,429.79L111.41,428.93L111.21,427.92L113.81,426.53L116.38,429.81L120.25,429.12L121.47,429.86L121.49,433.09L122.70,436.39L121.52,437.22L122.49,438.40L122.00,441.51L121.26,443.29L118.74,444.40Z"><title>Goa</title></path>
<path data-code="IN-KA" data-name="Karnataka" d="M132.94,486.76L132.40,485.30L134.56,484.50L132.26,484.83L129.88,474.46L129.45,469.45L130.73,469.03L129.84,467.87L129.34,468.90L126.26,461.51L125.03,457.32L126.51,457.12L124.77,456.11L123.59,451.53L124.28,452.88L125.00,452.61L123.72,450.72L122.63,451.59L123.35,449.89L122.18,449.94L121.75,447.77L120.66,447.83L118.74,445.92L121.38,444.86L120.91,444.14L119.12,445.23L118.74,444.40L121.53,443.04L122.49,438.40L121.52,437.22L122.70,436.39L121.49,433.09L121.47,429.86L118.77,428.80L120.66,426.80L121.20,427.67L123.20,426.95L125.10,421.83L124.18,420.81L125.83,419.65L125.72,417.36L123.07,416.55L122.74,414.67L123.70,414.20L122.01,412.30L121.25,412.50L121.57,411.43L123.62,411.35L125.14,409.29L126.81,409.75L127.32,411.18L129.43,410.10L129.04,409.19L129.85,407.97L133.01,407.07L132.79,405.01L134.98,403.15L136.57,403.17L138.76,404.88L140.17,404.19L140.42,403.05L144.44,402.98L145.87,401.94L147.34,402.70L147.22,397.40L145.92,394.47L147.23,392.73L149.99,394.71L151.86,393.93L153.09,395.74L156.37,394.62L160.86,395.11L160.10,390.07L164.01,386.73L166.86,388.13L168.34,385.76L168.07,384.31L170.35,384.20L171.04,379.15L174.39,378.46L177.13,375.85L177.82,373.24L178.73,373.18L179.35,375.27L181.04,376.65L183.75,376.46L184.06,379.99L183.28,380.56L184.54,383.13L182.24,385.84L182.79,387.19L180.56,389.65L184.05,391.33L185.66,390.92L179.86,397.80L181.60,401.72L180.52,407.47L181.19,408.42L180.55,409.27L181.20,409.41L177.69,413.23L182.82,414.99L183.17,415.86L182.03,416.98L181.21,423.14L175.93,422.86L173.53,424.72L173.41,426.97L174.47,428.84L173.09,429.29L173.04,431.94L172.29,432.06L173.38,435.14L174.85,436.01L175.33,439.33L173.53,442.05L168.51,440.28L167.67,442.44L169.58,443.73L168.06,449.88L169.65,452.51L171.58,452.81L170.25,454.48L171.44,456.03L171.18,456.97L174.25,457.47L175.37,455.25L177.67,455.45L179.73,457.36L179.86,455.44L181.53,456.43L181.56,458.40L179.00,459.67L180.09,464.30L179.08,463.95L178.28,461.90L174.98,462.02L172.81,460.79L172.29,458.70L170.57,458.87L173.08,463.83L172.05,465.70L172.32,467.03L175.27,466.75L174.75,464.94L175.57,463.90L175.80,464.62L180.04,465.18L181.13,468.07L182.09,468.06L184.15,466.58L185.35,466.89L187.59,464.70L187.46,463.38L189.25,463.78L190.34,462.85L190.03,465.50L192.12,464.42L193.21,465.51L193.46,468.08L192.65,468.14L192.78,468.92L198.46,470.38L198.60,475.63L201.98,476.22L201.03,480.53L199.18,483.34L200.22,484.72L197.96,483.81L197.58,484.85L196.05,484.99L195.79,486.87L192.27,485.06L191.28,485.98L189.74,484.64L187.81,484.94L187.14,487.69L184.24,488.61L183.48,490.87L184.43,492.44L184.15,493.94L181.55,496.81L181.89,497.89L186.61,498.56L187.15,500.02L185.38,502.61L182.01,503.51L180.49,506.19L177.72,505.69L174.68,507.02L173.13,505.59L171.37,505.88L169.56,509.51L164.83,509.34L163.65,507.64L162.02,508.68L161.39,507.04L155.88,504.61L155.62,502.77L153.54,503.46L151.12,502.88L149.83,500.66L147.37,500.00L142.91,496.15L141.98,493.96L142.51,492.65L140.34,491.32L140.70,490.04L137.71,489.46L137.52,488.42L135.81,488.25L134.55,486.54L132.94,486.76Z"><title>Karnataka</title></path>
<path data-code="IN-KL" data-name="Kerala" d="M139.79,501.59L132.94,486.76L134.55,486.54L135.81,488.25L137.52,488.42L137.71,489.46L140.70,490.04L140.34,491.32L142.51,492.65L141.98,493.96L142.91,496.15L147.37,500.00L149.83,500.66L150.84,502.69L153.54,503.46L155.62,502.77L156.11,504.82L161.52,507.14L162.01,509.04L160.59,510.19L158.76,509.94L158.57,511.43L164.38,515.25L162.62,517.86L167.36,517.24L167.10,518.52L168.57,521.07L167.08,521.33L166.89,522.87L170.84,526.38L170.58,528.41L169.56,529.31L169.94,535.75L172.09,537.49L176.46,534.94L177.39,536.28L178.09,537.90L177.07,540.64L177.74,542.90L176.37,550.00L177.44,550.77L179.24,550.34L180.41,552.71L175.96,561.89L177.61,564.89L176.39,569.11L178.08,571.36L176.73,572.31L175.77,575.96L172.82,574.52L164.40,563.66L165.83,563.40L164.96,563.06L166.72,561.76L164.11,562.97L162.85,559.62L163.26,558.48L161.99,556.98L162.51,559.01L161.03,555.42L158.96,542.69L160.58,547.95L160.47,544.53L161.61,548.36L160.93,551.52L162.82,551.99L163.64,551.23L161.85,550.55L161.61,545.09L159.45,542.39L158.84,539.91L158.28,539.19L158.79,542.20L157.67,539.84L157.58,538.55L158.75,537.18L157.90,536.59L158.03,537.97L157.13,537.56L152.82,526.67L149.35,514.58L146.99,512.31L145.08,507.48L141.38,503.39L143.11,503.63L142.98,502.54L141.83,503.04L140.85,501.97L141.80,501.78L141.42,500.16L143.05,499.18L139.81,500.04L139.79,501.59Z"><title>Kerala</title></path>
<path data-code="IN-PY" data-name="Puducherry" d="M141.32,501.17L140.81,502.68L139.79,501.59L139.81,500.04L143.05,499.18L141.42,500.16L141.32,501.17ZM225.89,522.40L225.77,525.80L223.24,523.12L223.96,523.11L223.86,522.27L225.89,522.40ZM225.95,502.93L224.60,505.38L223.16,504.78L222.62,502.52L224.44,502.48L224.61,503.75L225.95,502.93ZM270.11,407.22L271.59,407.88L269.29,407.86L270.11,407.22Z"><title>Puducherry</title></path>
<path data-code="IN-TN" data-name="Tamil Nadu" d="M225.91,525.79L225.98,536.32L221.92,535.39L224.51,536.73L220.49,535.99L221.06,535.09L217.54,535.47L215.81,536.60L214.53,538.63L215.33,541.24L208.85,550.70L208.55,552.87L210.87,555.63L216.48,555.61L216.71,557.10L218.58,558.74L215.58,556.91L209.92,556.36L199.18,559.92L194.91,564.36L194.53,566.83L195.52,566.59L193.64,568.74L193.90,572.13L192.55,574.61L187.20,578.25L183.98,579.10L183.42,580.22L178.77,579.32L174.95,576.18L175.92,575.85L176.73,572.31L178.08,571.36L176.39,569.11L177.61,564.89L175.96,561.89L180.41,552.71L179.24,550.34L177.44,550.77L176.37,550.00L177.74,542.90L177.07,540.64L178.09,537.90L176.46,534.94L172.33,537.47L169.94,535.75L169.56,529.31L170.58,528.41L170.84,526.38L166.89,522.87L167.08,521.33L168.57,521.07L167.10,518.52L167.36,517.24L162.62,517.86L164.38,515.25L159.05,512.44L158.76,509.94L160.59,510.19L163.28,507.63L164.83,509.34L169.56,509.51L171.37,505.88L173.13,505.59L174.68,507.02L177.72,505.69L180.49,506.19L182.01,503.51L185.38,502.61L187.15,500.02L186.61,498.56L181.89,497.89L181.55,496.81L184.15,493.94L184.43,492.44L183.48,490.87L184.24,488.61L187.14,487.69L187.81,484.94L189.74,484.64L191.28,485.98L192.56,485.15L199.44,489.38L200.83,487.17L202.27,486.66L203.52,482.24L205.01,480.92L207.50,480.47L208.29,481.32L209.41,480.21L213.14,481.18L214.80,479.13L215.99,479.44L217.95,477.68L218.82,475.34L220.97,476.53L222.79,476.30L223.10,477.37L224.58,477.67L224.24,476.22L227.94,474.78L229.64,471.41L230.77,471.85L230.66,472.91L233.70,472.73L235.22,475.11L233.43,486.82L231.65,492.56L227.70,497.69L228.84,497.21L225.95,502.93L224.61,503.75L224.44,502.48L222.62,502.52L223.22,504.87L225.23,505.37L224.13,510.48L225.43,514.19L222.72,516.08L224.27,514.84L225.58,515.09L226.05,518.80L225.89,522.40L223.74,522.33L223.26,523.78L225.91,525.79Z"><title>Tamil Nadu</title></path>
<path data-code="IN-AN" data-name="Andaman and Nicobar" d="M487.92,601.34L487.60,605.65L486.32,606.91L485.03,603.34L482.87,601.57L483.38,598.20L486.25,597.12L487.92,601.34ZM484.40,594.46L482.29,596.64L481.84,595.55L483.76,592.95L484.40,594.46ZM478.78,582.76L479.24,584.48L477.38,584.20L476.46,582.87L477.68,581.52L478.78,582.76ZM481.32,581.88L481.47,583.37L480.29,582.27L481.32,581.88ZM480.69,581.18L479.80,582.03L480.41,580.61L479.47,580.38L479.10,578.79L480.18,577.34L480.69,581.18ZM473.29,577.08L474.07,577.62L472.01,576.52L472.34,574.77L473.29,577.08ZM467.27,557.30L467.65,559.02L467.05,559.71L465.78,559.30L465.36,557.89L466.15,556.70L467.27,557.30ZM463.06,526.56L462.13,531.48L459.32,531.39L459.93,529.40L459.18,526.30L460.15,524.97L461.99,524.08L463.06,526.56ZM464.76,513.76L464.70,514.66L463.22,514.44L464.00,511.85L465.13,512.92L464.76,513.76ZM457.13,510.23L456.86,511.43L456.21,510.06L457.13,510.23ZM471.57,502.81L472.02,504.05L469.80,502.24L471.06,501.29L471.57,502.81ZM472.71,498.23L472.54,500.22L471.89,498.97L472.71,498.23ZM465.81,482.62L464.88,486.12L464.88,482.84L465.81,482.62ZM471.77,476.41L471.47,480.83L470.40,481.49L470.11,480.39L469.61,480.74L469.90,482.66L469.02,482.43L468.48,483.74L470.11,484.77L470.61,491.67L469.59,493.65L467.93,493.38L469.20,495.28L468.53,495.79L468.81,497.94L466.27,500.49L466.92,501.31L465.95,502.36L465.90,504.46L466.35,503.23L467.05,504.05L466.32,507.85L464.90,509.02L465.14,509.79L465.87,508.37L466.34,508.75L465.51,512.12L463.81,510.11L464.24,509.25L462.65,507.51L462.72,505.48L461.94,504.88L462.79,503.38L463.67,504.70L464.86,497.65L465.59,497.51L465.72,498.58L466.92,497.89L466.29,496.73L466.92,496.12L465.53,494.80L465.60,490.07L466.75,488.76L465.90,485.92L467.07,484.91L467.71,482.04L467.94,475.19L469.85,471.21L471.00,470.54L472.02,471.36L472.24,474.15L470.36,475.18L471.77,476.41ZM471.51,468.75L471.77,469.30L470.61,468.75L471.51,468.75Z"><title>Andaman and Nicobar</title></path>
<path data-code="IN-JH" data-name="Jharkhand" d="M290.88,259.73L293.05,255.31L291.94,253.06L292.75,252.13L298.57,252.38L302.07,251.58L303.62,249.77L305.65,253.15L306.14,252.33L306.76,253.02L307.00,252.12L308.91,251.93L309.07,253.68L312.24,256.48L318.09,252.62L320.14,255.47L323.34,254.68L323.50,255.70L327.06,252.80L331.47,252.56L332.61,251.39L334.07,251.40L333.89,249.58L335.73,247.16L337.65,247.27L338.81,248.59L341.20,247.56L343.00,251.16L345.86,251.52L345.60,253.85L348.83,255.68L349.66,252.95L351.36,251.32L353.53,251.60L354.52,250.79L357.02,251.92L357.54,250.30L359.86,250.78L361.46,242.54L362.53,241.33L363.94,241.29L364.71,238.90L366.96,238.81L368.82,236.11L373.41,237.84L373.53,240.64L375.41,243.79L374.98,246.77L374.17,246.85L375.83,250.13L374.89,250.96L373.05,250.69L373.98,252.53L372.74,255.85L370.69,257.33L371.39,258.81L370.13,258.97L369.56,260.29L368.17,259.88L367.60,262.13L363.46,261.72L364.38,263.71L363.57,265.51L361.77,264.96L362.25,266.05L361.53,266.46L356.79,264.26L355.35,268.01L348.10,270.18L345.54,273.43L342.81,272.66L342.86,270.94L341.18,270.37L340.55,272.22L337.21,272.92L338.50,274.17L337.29,277.28L338.38,279.23L340.49,279.19L343.77,282.37L349.89,282.72L348.10,283.77L347.89,286.78L351.38,288.86L351.84,290.39L354.23,291.30L353.83,293.08L356.33,296.42L353.24,298.09L349.71,295.77L347.27,295.86L341.20,291.33L339.30,292.48L340.33,295.76L339.97,300.36L337.37,302.72L336.37,302.00L336.59,299.87L334.48,300.93L329.47,299.21L325.94,301.86L323.66,300.18L321.58,300.32L323.79,295.84L323.06,292.40L320.13,294.02L312.84,294.03L311.05,295.84L309.01,295.98L306.54,295.17L304.47,292.47L302.67,291.68L309.49,285.24L309.38,283.08L306.04,282.00L305.44,282.57L303.76,279.57L303.75,275.33L302.18,274.84L303.49,271.43L302.97,269.73L301.80,270.04L301.66,271.23L298.78,270.58L297.85,266.50L294.66,263.39L294.24,261.03L290.88,259.73Z"><title>Jharkhand</title></path>
<path data-code="IN-DL" data-name="Delhi" d="M176.63,165.19L178.72,168.58L178.99,172.32L176.50,174.06L172.96,171.54L170.52,172.33L169.80,171.14L171.91,168.80L171.84,166.20L174.16,165.09L176.63,165.19Z"><title>Delhi</title></path>
<path data-code="IN-CH" data-name="Chandigarh" d="M168.68,126.83L169.44,127.02L169.68,129.19L167.27,127.82L168.68,126.83Z"><title>Chandigarh</title></path>
<path data-code="IN-MP" data-name="Madhya Pradesh" d="M197.58,205.45L202.00,207.47L204.73,206.67L207.55,208.61L208.75,208.51L211.27,215.64L208.98,217.53L209.26,220.61L205.29,226.81L205.43,229.74L198.41,231.54L196.19,234.63L198.33,238.86L197.56,242.53L194.66,245.25L196.58,250.06L195.68,252.16L198.04,254.39L198.15,256.36L199.40,256.18L200.62,254.33L206.59,258.13L209.61,254.09L207.73,250.04L204.91,249.43L204.99,245.59L201.07,237.11L202.35,234.45L205.06,235.66L205.04,232.70L206.07,232.11L207.07,234.19L208.10,231.83L208.44,233.76L209.38,234.06L208.93,236.50L207.67,237.82L207.89,239.08L210.10,236.93L211.01,237.44L210.58,239.08L215.33,239.29L215.01,236.66L215.93,235.29L215.91,237.70L218.35,236.64L216.44,239.63L216.59,241.07L217.43,241.09L217.56,239.75L219.06,240.46L220.44,239.00L225.06,239.94L226.27,239.46L225.99,237.62L233.88,234.26L236.60,238.86L233.77,240.80L234.28,242.33L236.33,242.30L236.32,241.30L237.65,242.20L238.31,241.56L237.28,240.23L238.92,240.42L239.26,239.53L240.64,241.10L242.11,240.93L241.16,239.58L244.30,238.22L244.74,238.83L242.93,242.90L247.45,243.24L249.19,244.39L250.74,243.40L251.89,239.19L255.16,240.49L256.10,240.04L255.28,239.28L257.36,238.58L258.12,240.88L263.04,242.03L263.62,243.97L265.17,245.14L268.26,246.40L269.87,245.70L269.86,247.27L270.88,246.74L270.92,248.25L272.00,248.68L271.70,249.91L273.61,249.84L273.94,248.19L277.06,248.80L279.17,248.13L281.21,250.76L279.66,251.52L280.22,255.94L279.63,258.25L278.53,258.93L280.89,262.55L277.96,265.78L275.27,267.07L264.81,265.71L262.42,266.62L260.06,264.82L258.90,265.17L260.14,268.39L258.38,271.29L259.06,272.75L261.51,271.64L264.63,272.60L266.62,275.15L269.45,276.31L268.90,279.53L268.39,280.56L264.98,281.63L264.87,283.57L261.88,285.76L261.63,289.19L259.32,291.45L255.14,293.71L254.03,292.51L251.74,293.57L250.43,293.16L249.58,296.57L247.11,300.16L247.41,301.19L245.57,300.74L244.04,306.38L242.52,307.61L241.39,315.40L240.40,315.89L237.77,314.38L236.24,314.53L236.24,312.82L232.22,309.64L228.85,311.46L225.95,311.84L224.26,310.55L220.65,311.65L219.18,309.16L214.95,308.15L214.15,309.34L209.21,310.62L208.60,312.15L206.40,312.64L199.48,312.26L199.21,310.30L198.33,309.92L189.84,314.41L182.09,314.60L180.94,311.74L183.60,311.46L183.10,308.29L181.72,307.09L179.09,306.95L176.97,308.42L175.04,307.95L169.43,310.43L168.74,312.82L166.14,315.43L165.93,318.24L159.61,320.91L157.38,320.52L156.30,319.35L156.94,318.55L155.82,315.06L139.56,314.36L135.87,310.96L130.22,310.21L126.74,308.08L126.08,303.52L124.63,301.99L121.68,303.85L119.44,303.41L119.66,301.02L118.14,296.05L120.70,295.81L121.61,294.75L118.87,294.12L117.66,292.27L119.86,292.26L123.91,289.65L125.59,286.03L123.73,284.81L123.06,281.77L130.44,279.11L126.74,276.70L128.80,274.10L132.93,271.97L134.45,269.19L133.85,265.42L135.07,261.70L133.24,257.82L130.65,257.18L132.81,253.84L130.29,252.07L131.64,249.19L131.59,246.93L133.44,249.26L134.85,248.90L135.27,247.01L132.54,246.55L132.25,244.02L135.57,245.28L137.43,244.63L138.14,241.77L141.60,241.38L141.62,243.86L140.22,244.34L143.21,244.76L141.19,245.77L139.14,244.71L139.24,247.92L144.00,248.49L149.57,246.96L150.80,248.20L151.93,252.53L149.91,252.68L149.33,254.07L150.63,256.69L149.55,259.10L150.67,260.58L149.25,262.51L145.51,261.68L144.71,262.75L146.77,266.16L148.56,266.74L149.22,264.20L150.41,264.89L154.03,263.23L153.99,261.79L156.45,259.85L156.58,256.30L157.51,255.51L158.27,256.86L162.77,257.24L163.80,258.35L166.58,256.35L166.73,258.07L168.55,259.33L170.34,259.03L170.92,257.94L169.55,255.80L169.29,251.24L170.58,251.25L171.45,252.63L174.03,250.99L173.16,248.57L168.85,246.03L170.69,244.75L170.05,242.32L172.88,240.82L180.01,239.72L179.57,234.35L178.13,233.73L176.26,235.73L171.46,236.45L166.42,235.00L164.54,233.39L163.98,231.59L163.18,228.20L164.01,226.36L179.14,215.40L186.21,212.51L189.70,209.36L192.99,208.98L193.40,206.74L197.58,205.45Z"><title>Madhya Pradesh</title></path>
<path data-code="IN-CT" data-name="Chhattisgarh" d="M286.26,264.30L288.72,263.44L290.88,259.73L294.11,260.87L294.66,263.39L297.85,266.50L298.78,270.58L301.66,271.23L301.80,270.04L302.97,269.73L303.49,271.43L302.18,274.84L303.75,275.33L303.76,279.57L305.36,282.51L309.15,282.78L309.78,284.77L306.78,288.46L303.01,290.75L303.15,293.65L302.40,294.89L296.21,298.19L294.97,299.86L295.23,301.28L294.15,302.98L295.23,303.98L295.12,305.37L293.29,306.44L290.70,312.44L291.67,315.63L289.80,315.24L287.28,320.00L283.94,318.84L278.21,319.36L274.60,325.29L272.42,324.95L272.32,331.54L273.81,333.35L273.72,341.03L277.36,342.60L278.92,342.35L279.25,345.37L277.02,346.97L276.77,345.49L274.84,344.91L272.71,344.68L271.66,345.89L270.04,342.90L267.67,341.27L266.39,342.13L264.96,340.26L263.52,341.43L262.58,343.87L266.66,347.01L266.58,352.17L269.10,354.23L268.70,357.83L270.16,363.88L269.08,364.84L268.57,367.37L267.82,366.90L264.18,369.63L265.00,370.95L261.02,375.30L257.47,377.04L254.70,386.14L250.29,385.52L247.91,386.73L246.21,380.96L246.60,379.32L245.01,379.54L244.17,377.98L242.57,378.95L243.16,377.32L241.13,373.30L238.11,370.31L235.30,370.46L233.61,367.42L235.25,365.70L233.81,362.73L236.29,357.32L239.47,354.50L242.16,357.10L244.22,355.65L243.75,354.27L245.45,352.97L241.81,350.40L238.76,346.14L237.66,347.02L236.36,346.51L237.80,345.26L236.71,344.59L237.03,343.74L238.64,343.95L239.12,341.40L238.63,339.67L236.53,339.39L236.65,337.69L240.34,335.86L240.57,332.14L240.19,330.26L237.96,330.36L239.42,328.44L239.03,324.01L237.53,323.68L236.85,322.42L237.30,319.69L241.38,316.38L242.52,307.61L244.04,306.38L245.57,300.74L247.41,301.19L247.11,300.16L249.58,296.57L250.43,293.16L251.74,293.57L254.03,292.51L255.14,293.71L259.32,291.45L261.63,289.19L261.88,285.76L264.87,283.57L264.98,281.63L268.62,280.23L269.52,276.72L268.31,275.26L266.62,275.15L264.63,272.60L261.51,271.64L259.06,272.75L258.38,271.29L260.14,268.39L258.90,265.17L260.06,264.82L262.42,266.62L264.81,265.71L275.27,267.07L280.28,263.95L280.89,262.55L283.42,264.12L286.26,264.30Z"><title>Chhattisgarh</title></path>
<path data-code="IN-HR" data-name="Haryana" d="M169.36,124.13L175.24,128.58L175.39,131.71L176.77,133.26L179.98,134.21L181.31,133.70L180.98,134.37L183.84,135.38L183.51,137.22L177.17,143.24L173.98,151.65L175.13,153.08L174.11,154.25L175.65,154.45L175.39,160.41L176.99,164.61L172.04,166.02L171.91,168.80L169.80,171.14L170.52,172.33L172.96,171.54L176.50,174.06L178.99,172.32L181.57,174.02L182.15,174.84L181.58,176.40L182.92,177.84L181.61,181.76L182.75,183.64L177.24,186.82L173.65,186.54L174.34,187.76L171.23,189.27L171.80,179.99L169.96,178.02L166.32,180.99L166.53,182.35L164.69,183.27L162.57,181.40L163.15,181.00L162.50,180.26L163.27,180.35L162.72,179.44L159.91,178.72L160.47,181.66L159.00,181.09L157.25,181.81L158.17,186.14L154.04,185.73L152.90,183.94L154.02,183.28L154.83,180.65L153.18,180.34L154.88,178.94L155.79,179.21L153.49,175.84L150.05,174.06L146.71,169.87L144.70,164.19L145.31,162.96L142.97,160.62L142.88,157.59L141.95,158.05L141.50,156.77L137.14,158.02L132.51,154.68L128.45,156.09L127.04,153.92L128.40,153.00L127.74,150.96L128.30,147.66L125.59,147.50L127.22,145.55L126.66,143.83L129.15,144.49L132.24,143.05L135.58,145.31L137.56,144.30L137.52,146.23L138.35,146.89L139.25,146.11L140.09,147.79L138.86,149.06L140.02,151.52L141.28,151.15L141.18,150.08L144.08,146.58L148.66,147.39L150.49,146.16L152.16,147.78L155.09,147.60L158.47,145.39L157.57,143.86L158.98,141.01L158.26,140.03L161.23,140.44L161.90,139.06L162.74,140.75L164.17,141.10L166.22,138.82L164.31,137.88L167.86,135.80L167.82,134.39L169.72,134.25L171.04,135.35L171.06,130.82L169.68,129.19L169.83,126.09L168.58,124.66L169.36,124.13Z"><title>Haryana</title></path>
<path data-code="IN-TG" data-name="Telangana" d="M183.15,376.14L182.25,374.67L183.30,372.15L185.71,370.81L186.16,368.52L189.87,365.61L186.89,361.41L188.47,359.79L189.01,356.39L191.31,355.84L192.46,357.02L194.64,357.05L195.46,353.54L197.15,352.69L197.72,349.48L199.02,347.97L197.64,344.53L200.41,346.37L206.03,346.82L208.92,350.38L213.81,353.10L215.08,350.56L220.86,352.18L221.97,350.95L224.95,350.46L228.07,353.82L227.70,358.94L226.17,360.70L227.51,361.26L228.09,363.61L227.20,365.78L230.43,368.36L234.23,368.04L235.30,370.46L237.81,370.18L239.61,371.48L243.09,377.11L242.43,378.81L243.63,378.91L244.17,377.98L245.01,379.54L246.60,379.32L246.21,380.96L247.65,386.57L250.29,385.52L258.13,386.33L261.50,384.10L262.01,385.01L258.05,388.18L256.11,393.85L251.36,395.78L250.05,397.26L246.08,398.40L244.68,401.18L241.22,400.64L239.75,399.45L238.09,400.09L237.45,401.53L236.15,400.66L235.90,402.72L239.66,403.56L239.88,406.37L236.07,405.46L233.48,401.77L231.60,401.78L228.98,404.19L230.11,405.78L227.97,409.62L224.50,407.69L215.08,410.83L214.10,412.35L213.88,417.64L210.53,417.27L208.23,419.35L207.28,419.19L207.14,420.87L205.68,421.65L200.82,420.33L196.06,421.43L195.89,423.19L193.38,425.60L189.57,423.84L185.19,424.28L181.21,423.14L182.03,416.98L183.18,415.57L177.69,413.23L181.20,409.41L180.55,409.27L181.19,408.42L180.52,407.47L181.60,401.72L179.86,397.80L185.66,390.92L184.05,391.33L180.56,389.65L182.79,387.19L182.35,385.58L184.56,383.44L183.30,380.72L184.08,379.78L183.15,376.14Z"><title>Telangana</title></path>
  </g>
</svg>
