<?xml version="1.0" encoding="UTF-8"?>
<svg xmlns="http://www.w3.org/2000/svg" viewBox="0 0 560 640" class="pref-muni-svg" role="img" aria-label="行政区分">
  <g class="pref-muni-svg__paths" fill="#eaf2fb" stroke="#5b7fa8" stroke-width="0.6" stroke-linejoin="round">
<path data-code="ID-KI" data-name="Kalimantan Timur" d="M276.54,241.04L278.95,241.12L279.28,242.26L278.14,242.50L276.54,241.04ZM262.56,238.27L263.36,239.05L264.80,238.63L265.90,239.06L270.78,238.79L273.38,240.77L274.93,241.08L274.35,241.52L272.63,240.96L272.90,241.80L276.36,244.05L274.41,243.81L276.72,244.62L277.48,245.59L276.52,245.59L277.99,246.48L277.07,247.27L275.65,247.33L274.68,246.95L273.76,245.43L274.25,247.62L269.28,247.17L268.57,247.78L270.57,247.52L271.09,249.01L272.06,249.65L273.50,249.67L272.47,251.93L271.41,252.04L273.59,252.79L273.91,253.62L275.52,253.80L275.66,254.32L274.90,255.01L276.32,255.26L274.65,255.74L276.93,255.99L275.55,256.89L277.49,257.68L277.99,259.47L281.02,262.67L280.73,264.06L279.52,264.51L279.04,265.56L277.99,265.40L278.87,266.07L277.09,266.29L278.55,266.78L278.36,267.88L279.15,268.81L280.59,269.24L281.55,270.76L285.08,272.76L284.78,273.13L285.45,273.84L287.31,274.35L288.97,275.79L290.19,277.82L291.71,277.83L292.02,278.79L289.50,280.82L287.89,280.33L284.59,280.82L281.19,279.60L279.92,277.58L278.79,277.17L280.44,280.88L278.89,280.44L277.01,281.59L275.56,284.41L275.64,285.21L274.33,286.91L273.90,288.39L274.33,288.70L273.78,289.07L274.49,290.74L273.36,293.20L274.10,294.51L273.44,296.58L275.67,295.32L274.78,296.32L275.30,296.54L275.06,297.43L274.49,297.55L275.03,297.82L274.74,298.53L273.93,298.65L275.48,299.06L275.58,299.62L274.00,299.83L273.50,300.75L272.70,300.30L272.23,301.04L271.54,299.95L271.18,301.13L267.71,305.05L266.08,305.30L266.21,304.52L265.81,304.78L265.17,302.50L265.09,304.83L265.74,305.10L265.40,306.54L263.10,307.50L262.77,309.59L259.01,311.56L261.60,311.40L261.27,312.25L261.90,312.96L261.80,314.56L259.73,316.06L260.77,315.69L261.24,316.47L263.46,316.23L263.16,318.36L256.31,317.27L254.89,318.21L254.18,316.23L254.35,314.61L253.30,313.73L252.70,309.74L252.15,308.52L251.29,308.34L252.12,307.36L253.06,307.26L254.03,305.70L254.07,303.22L253.30,303.44L252.30,302.14L249.99,300.86L247.79,294.05L248.64,290.24L247.06,290.07L244.28,292.34L244.78,289.54L243.98,286.66L245.47,283.88L244.86,282.22L243.24,281.63L240.55,283.00L237.17,283.39L233.33,282.67L230.06,283.74L231.61,281.84L232.09,280.15L231.08,279.67L231.10,278.79L235.08,275.85L235.16,273.31L237.14,272.51L239.16,273.36L240.62,270.29L240.75,268.55L242.55,267.82L242.66,266.21L241.94,266.24L241.62,265.07L241.92,263.74L243.52,263.30L243.62,262.47L246.98,260.63L246.34,259.59L245.21,259.46L245.22,258.24L245.78,257.65L245.33,256.86L247.41,254.33L248.21,254.99L250.03,254.45L250.66,252.96L250.26,252.37L250.67,250.59L251.66,249.72L250.98,247.37L251.51,244.66L250.92,243.91L251.76,243.01L252.20,240.97L253.66,240.30L254.53,238.36L256.62,239.76L257.87,238.48L260.05,238.43L261.25,239.55L262.23,239.12L262.56,238.27ZM287.15,263.77L287.79,264.51L286.63,262.97L287.55,263.45L286.85,263.18L287.15,263.77ZM274.17,250.87L274.46,251.37L273.15,251.40L273.34,250.83L274.17,250.87ZM275.61,249.63L276.31,250.09L275.89,251.90L274.50,250.04L275.61,249.63ZM278.79,248.93L278.76,249.42L277.99,248.97L277.50,247.93L278.25,248.00L278.79,248.93ZM274.33,249.17L271.42,248.89L270.79,248.18L271.39,247.80L272.87,248.11L274.33,249.17ZM276.48,241.65L277.13,242.36L276.09,243.17L275.25,242.22L276.04,241.20L276.48,241.65Z"><title>Kalimantan Timur</title></path>
<path data-code="ID-NT" data-name="Nusa Tenggara Timur" d="M354.11,402.92L355.00,402.51L356.40,399.12L358.22,398.84L359.21,397.81L361.95,396.53L362.11,397.87L363.93,396.82L364.72,397.47L364.68,399.18L362.40,399.49L363.63,402.74L362.92,403.34L362.66,404.67L356.97,410.16L355.57,410.85L352.51,410.88L351.46,412.10L348.69,413.27L345.58,412.76L344.81,413.15L345.33,411.36L348.28,409.72L347.33,409.13L346.06,409.24L346.14,408.17L347.04,407.31L347.38,404.23L351.18,401.06L352.50,402.04L353.56,401.47L354.11,402.92ZM340.96,390.18L341.16,390.75L339.31,391.15L338.41,392.29L337.84,392.04L339.23,390.45L340.96,390.18ZM313.10,408.37L313.66,409.44L312.30,411.16L310.20,411.60L309.05,412.51L305.56,411.45L303.33,408.64L300.13,407.09L299.39,406.10L297.33,405.87L296.69,406.34L293.03,405.48L291.12,403.54L292.18,402.17L293.88,401.55L299.33,401.03L301.35,401.53L303.23,400.43L304.84,402.45L306.43,402.82L306.93,404.60L309.38,404.58L311.65,407.47L313.10,408.37ZM300.44,392.50L301.25,392.53L300.28,393.35L300.15,394.63L299.17,394.35L299.70,393.26L299.39,392.21L300.12,393.04L300.44,392.50ZM298.50,391.28L298.63,392.13L297.29,392.21L297.70,392.37L297.12,393.18L297.45,393.91L296.39,393.91L296.80,390.39L297.29,390.18L297.43,390.81L298.50,391.28ZM343.35,388.32L342.65,389.93L339.46,389.78L341.08,388.02L343.35,388.32ZM339.54,388.56L339.45,389.09L338.09,389.44L338.01,390.59L336.90,390.33L337.44,391.68L336.95,392.37L332.71,393.84L328.75,393.81L324.79,395.66L323.72,395.21L323.20,395.87L322.43,394.82L320.24,394.55L319.59,396.01L318.05,395.70L315.50,396.28L314.45,395.96L313.58,394.82L312.57,395.46L310.56,394.50L307.02,394.96L305.68,394.24L302.62,395.46L301.42,393.91L302.15,390.03L302.77,390.60L303.61,390.43L304.01,389.70L304.84,389.86L306.24,388.61L308.19,388.40L308.72,387.83L309.13,388.40L310.75,388.48L310.75,387.90L312.53,389.04L315.27,389.14L321.49,392.27L322.75,391.56L322.96,390.68L323.61,391.19L326.12,390.98L327.62,390.18L327.86,391.24L330.81,392.65L333.04,392.19L333.48,391.68L333.13,390.87L334.47,389.82L337.82,388.52L338.52,387.43L336.15,387.77L337.60,385.96L338.99,386.88L339.54,388.56ZM343.84,415.84L344.07,416.88L342.11,417.57L341.70,418.46L339.09,419.08L338.89,419.57L337.11,419.41L337.01,418.05L339.81,417.26L343.80,413.96L343.44,415.72L343.84,415.84ZM326.68,413.93L327.34,414.06L327.37,414.86L325.99,415.92L323.72,415.52L326.68,413.93ZM344.74,410.61L345.22,411.04L343.92,411.53L344.12,412.77L343.57,412.40L343.04,412.85L343.84,410.91L344.74,410.61ZM350.21,387.83L350.26,388.35L348.58,388.62L347.36,390.30L347.00,389.94L346.00,390.72L346.13,391.84L345.15,391.32L344.04,392.12L341.92,391.37L344.98,389.29L343.60,388.89L344.13,388.30L345.95,388.07L345.36,389.32L346.20,389.56L346.82,387.78L347.53,388.11L348.75,387.26L350.21,387.83ZM354.71,387.75L354.61,388.92L352.83,391.53L351.77,391.67L351.29,390.23L349.96,390.53L351.34,388.85L352.36,389.70L354.12,387.29L354.71,387.75ZM364.49,387.71L364.36,389.31L356.13,390.68L355.01,390.03L355.92,388.76L357.54,387.87L355.71,388.28L356.69,386.71L357.79,386.69L358.20,387.59L362.33,386.91L363.93,387.02L364.49,387.71ZM331.66,390.27L332.23,390.90L331.56,390.83L331.66,390.27ZM323.96,388.56L324.38,388.83L323.95,389.34L323.56,388.80L323.96,388.56Z"><title>Nusa Tenggara Timur</title></path>
<path data-code="ID-KB" data-name="Kalimantan Barat" d="M181.16,265.68L179.78,267.97L180.10,269.01L181.12,269.26L181.32,271.44L183.50,273.74L184.42,273.84L185.98,275.96L187.38,276.45L188.48,278.58L189.67,278.73L191.36,280.20L194.56,279.66L195.78,278.39L199.54,277.62L201.63,278.42L202.79,278.25L203.15,279.01L204.57,278.16L206.94,278.41L207.97,277.16L210.13,276.82L211.25,274.02L210.95,273.37L214.60,271.79L220.55,271.76L221.16,272.42L220.37,273.59L221.92,273.40L225.58,275.03L227.08,274.80L228.27,275.82L231.64,273.27L235.16,273.31L235.08,275.85L231.17,278.66L231.08,279.67L232.08,279.95L231.73,281.64L229.19,284.49L228.34,286.55L227.30,287.23L224.71,287.46L225.98,289.02L226.55,291.21L225.91,292.70L223.86,294.38L224.45,295.52L223.90,296.89L222.67,295.93L215.88,298.71L213.37,299.33L210.28,299.10L204.91,302.39L204.19,303.26L204.18,304.28L201.82,305.62L198.78,308.49L197.34,308.44L196.34,309.36L196.61,310.08L197.44,310.18L197.15,314.90L198.83,318.85L199.11,322.33L197.27,324.30L194.76,325.23L193.20,326.86L192.33,324.44L191.38,324.42L188.93,325.88L188.21,325.58L187.79,324.67L188.27,323.37L187.87,321.79L187.22,321.42L188.68,320.19L187.98,320.37L187.26,319.23L186.51,316.85L186.89,314.88L186.46,313.46L184.22,311.99L185.76,309.86L186.09,306.31L184.53,304.85L184.59,303.54L183.42,303.23L182.29,301.82L182.56,300.68L181.54,302.02L179.75,300.58L178.59,300.39L178.15,301.16L176.76,300.47L176.63,298.27L179.52,298.85L177.73,298.04L177.73,297.63L178.55,297.71L178.27,297.44L176.63,297.38L175.18,296.62L174.72,294.74L175.14,294.63L174.73,293.41L174.07,293.27L174.93,292.77L176.19,293.17L175.38,290.12L177.08,290.24L175.50,289.03L174.74,287.48L172.59,286.33L172.71,283.06L171.82,280.50L173.30,279.03L172.63,276.57L175.22,275.54L176.68,273.84L175.15,275.41L173.36,275.96L174.17,274.34L174.39,272.19L176.75,270.29L177.64,268.92L176.92,269.29L177.56,267.43L180.38,266.69L181.16,265.68ZM175.54,305.26L175.23,305.90L174.72,305.77L175.54,305.26ZM173.10,309.00L172.91,309.69L171.85,310.07L171.08,309.08L172.35,308.52L173.10,309.00ZM182.52,303.44L182.72,303.88L179.47,305.67L178.47,305.22L179.15,301.94L182.09,302.05L182.52,303.44Z"><title>Kalimantan Barat</title></path>
<path data-code="ID-PA" data-name="Papua" d="M551.97,321.17L552.00,365.41L550.49,369.77L551.28,371.66L552.00,372.07L552.00,398.24L550.58,397.57L544.74,390.95L540.29,387.42L540.19,386.58L541.13,386.11L541.15,384.52L542.23,383.77L541.16,384.24L540.93,385.68L540.12,386.29L536.06,386.62L533.28,387.52L531.61,386.87L531.19,384.90L532.01,384.82L531.17,384.56L531.26,386.02L527.59,388.60L526.74,386.53L527.71,385.97L527.60,383.99L528.53,383.54L529.70,379.92L527.94,379.18L527.01,377.27L524.66,375.63L530.46,376.17L531.44,375.08L529.32,375.81L526.74,375.01L523.41,372.33L524.01,371.84L525.52,372.07L527.79,371.42L529.46,372.68L530.87,372.97L524.85,369.91L524.84,369.09L526.58,369.81L522.28,366.21L519.87,360.43L521.54,359.50L519.23,359.37L518.63,358.76L521.06,357.64L517.60,358.23L517.41,356.58L518.06,355.92L517.52,355.65L517.60,354.45L516.75,355.27L515.75,354.18L515.87,353.49L514.56,353.84L514.16,353.33L514.49,352.59L513.60,352.83L513.10,352.10L511.79,351.75L511.71,351.03L511.07,351.36L509.40,350.57L509.30,349.91L508.10,349.76L508.23,348.85L507.52,349.75L506.70,348.95L505.99,349.12L506.13,348.28L505.42,348.92L504.29,348.62L504.56,348.05L502.82,348.75L502.55,348.18L497.54,345.85L493.52,344.69L492.51,343.75L486.34,342.85L483.45,343.07L479.76,340.77L484.39,334.91L472.19,330.45L473.04,328.52L474.75,326.82L474.72,326.05L477.35,323.98L478.03,325.73L479.50,324.72L479.11,327.52L480.06,329.02L480.83,328.72L481.07,329.81L485.29,330.52L487.24,330.03L488.38,328.32L490.15,327.42L490.22,326.56L492.22,325.50L492.67,323.25L493.37,322.44L496.24,320.69L497.60,316.83L499.39,316.30L500.26,317.04L501.96,317.04L504.71,315.55L507.04,315.31L507.69,314.78L507.35,313.46L506.13,312.73L506.39,311.66L514.86,307.79L515.87,307.94L517.65,309.44L524.64,311.56L526.74,313.46L529.86,314.21L537.84,318.26L542.30,317.86L542.92,318.82L544.37,319.45L544.90,318.74L549.25,319.97L549.00,321.57L551.97,321.17ZM525.68,370.66L526.08,371.27L525.24,371.69L524.08,370.08L525.68,370.66ZM527.38,389.13L527.34,389.94L523.25,389.25L524.75,387.38L526.06,387.02L527.38,389.13ZM527.88,379.71L529.49,380.12L528.33,383.25L527.31,383.93L527.46,386.04L524.59,387.14L521.21,389.99L514.98,389.61L512.48,390.18L513.91,386.01L517.81,379.92L521.44,378.09L525.25,377.55L526.29,377.72L527.88,379.71ZM503.13,311.27L503.74,311.68L499.39,312.49L499.44,312.89L497.09,312.41L496.24,312.98L489.75,310.54L487.15,310.30L486.25,309.44L495.36,309.95L497.45,310.79L503.13,311.27ZM484.64,307.86L485.21,307.94L484.52,308.39L482.40,308.23L482.55,307.82L484.64,307.86ZM481.23,302.43L480.38,303.81L478.89,302.54L479.81,301.45L480.72,302.10L480.40,303.06L481.23,302.43ZM497.54,303.32L496.57,304.38L494.99,304.82L491.73,304.38L490.31,300.30L489.77,300.13L489.08,300.87L486.99,299.33L487.08,299.90L486.68,299.75L485.64,297.89L489.27,298.48L490.46,299.23L491.54,298.70L493.87,300.69L495.41,303.00L496.33,302.77L497.54,303.32Z"><title>Papua</title></path>
<path data-code="ID-JI" data-name="Jawa Timur" d="M225.55,390.43L225.71,390.90L224.21,390.92L224.29,390.26L225.55,390.43ZM205.16,370.13L206.75,370.91L208.75,370.74L210.30,372.23L214.19,371.76L215.46,372.31L215.93,371.76L215.93,373.17L216.91,373.94L216.30,374.37L217.13,375.36L216.18,375.57L217.33,376.31L218.13,375.65L218.78,376.40L218.05,379.58L222.44,381.91L224.69,382.60L227.13,381.59L230.17,381.89L233.24,380.54L234.37,381.59L235.77,381.59L237.98,382.70L237.16,391.29L237.51,390.43L237.98,392.28L239.68,393.01L240.10,393.91L239.28,394.35L237.05,393.92L237.27,393.01L236.29,392.39L235.04,392.79L232.47,392.48L232.28,391.80L230.62,391.73L230.41,391.07L229.44,391.40L223.72,388.47L221.19,388.73L219.72,389.92L218.90,389.59L217.00,390.43L213.08,389.08L208.69,388.43L208.07,388.73L206.57,388.18L206.32,388.90L205.69,388.61L205.43,389.54L204.66,388.97L202.51,388.84L202.23,388.32L199.12,388.48L198.42,387.59L197.89,388.15L196.54,387.82L196.97,386.32L199.77,384.43L200.43,384.49L200.84,383.22L200.64,382.30L199.45,381.67L199.60,376.45L202.46,376.98L204.40,375.11L204.28,372.83L205.16,370.13ZM251.30,372.16L251.14,372.58L249.07,372.23L248.66,372.59L249.28,372.97L248.30,372.73L248.01,373.38L247.81,372.56L247.08,372.44L247.80,371.34L249.99,371.42L251.30,372.16ZM217.33,358.20L217.69,359.41L216.19,359.64L215.93,359.00L217.33,358.20ZM233.25,372.28L234.18,373.07L231.64,373.86L231.20,374.82L228.09,374.82L226.95,376.23L222.83,375.90L222.32,374.94L222.38,376.03L217.63,375.17L217.23,373.98L219.00,372.21L219.87,372.01L231.80,371.69L233.25,372.28ZM239.73,374.84L240.03,375.27L238.57,375.12L239.73,374.84ZM237.08,374.35L237.34,375.41L236.17,374.99L235.90,374.25L236.52,373.88L237.08,374.35ZM255.09,374.56L255.13,375.24L254.46,375.63L253.34,375.07L253.75,374.66L254.96,375.17L255.09,374.56Z"><title>Jawa Timur</title></path>
<path data-code="ID-MA" data-name="Maluku" d="M401.14,388.11L400.56,388.51L399.39,388.15L399.63,387.65L400.93,387.50L401.14,388.11ZM410.59,387.59L410.31,388.26L408.28,387.50L410.59,387.59ZM395.35,387.02L395.67,387.66L394.49,387.99L393.72,387.59L395.35,387.02ZM389.13,385.46L389.23,386.42L388.37,386.29L388.45,385.55L389.13,385.46ZM435.16,380.74L435.01,381.49L433.57,381.60L435.16,380.74ZM433.54,379.62L432.03,379.55L432.24,379.06L433.54,379.62ZM435.98,378.08L434.86,379.26L433.79,378.90L434.13,378.21L435.98,378.08ZM437.27,377.20L437.19,377.68L436.47,377.52L437.05,376.81L437.27,377.20ZM440.98,369.49L441.30,369.85L440.43,370.94L440.27,370.19L440.98,369.49ZM477.79,368.42L478.15,368.92L477.34,370.60L476.86,369.85L477.79,368.42ZM476.61,366.44L475.83,367.72L473.53,365.70L474.70,364.82L476.61,366.44ZM479.37,364.85L479.93,365.16L479.20,367.05L478.82,366.20L479.37,364.85ZM473.89,364.45L474.43,364.77L473.42,365.38L471.34,363.77L471.62,363.03L471.09,363.31L470.91,361.85L471.26,361.52L471.26,362.01L472.00,361.72L472.63,362.17L472.19,362.98L473.89,364.45ZM455.19,356.81L455.37,357.55L454.79,357.64L454.54,356.76L455.04,355.84L455.19,356.81ZM449.52,355.68L450.14,356.16L449.71,356.38L449.52,355.68ZM421.22,344.03L421.29,344.42L420.41,344.32L421.22,344.03ZM389.35,335.63L389.43,336.69L388.29,336.39L388.53,335.55L389.35,335.63ZM393.85,329.54L394.19,330.12L392.26,329.38L393.25,328.93L393.85,329.54ZM395.71,327.83L395.78,328.80L394.18,328.56L394.93,327.75L395.71,327.83ZM397.86,324.91L398.34,325.18L397.78,326.12L396.36,326.25L397.86,324.91ZM399.48,386.69L399.91,387.05L398.71,388.23L396.55,387.57L395.58,386.53L399.48,386.69ZM435.21,386.69L436.06,386.62L431.11,389.29L432.89,387.67L433.04,386.71L433.60,386.86L434.36,386.12L434.85,386.90L435.21,386.69ZM420.20,383.69L420.41,384.34L419.43,385.79L418.45,385.59L417.17,383.98L417.73,382.72L419.94,383.00L420.20,383.69ZM384.64,381.89L381.35,383.00L380.25,384.74L375.37,383.77L372.06,385.23L372.54,383.36L374.37,381.11L377.14,381.74L378.62,381.53L382.15,379.92L382.39,380.60L384.36,381.21L384.64,381.89ZM392.14,379.54L392.27,380.28L390.80,381.06L390.98,379.29L392.14,379.54ZM442.18,375.98L441.52,376.31L441.74,377.84L442.31,378.24L441.41,380.64L438.53,383.33L437.66,385.35L437.27,384.38L436.63,385.18L435.29,385.15L434.98,383.35L435.82,382.76L435.27,381.67L436.87,381.66L436.06,380.99L436.77,379.07L439.28,377.25L440.64,374.84L441.66,374.63L441.66,375.33L442.25,374.85L442.71,375.61L442.18,375.98ZM445.54,375.53L445.34,376.31L444.30,375.24L442.58,374.96L444.78,374.52L445.54,375.53ZM406.33,374.92L405.97,375.90L404.66,374.84L405.74,374.04L406.69,374.59L406.33,374.92ZM475.15,368.26L475.59,368.40L475.33,369.00L474.17,369.23L474.59,369.52L473.10,371.63L471.61,372.33L470.29,371.24L470.73,366.88L471.91,367.45L471.66,366.72L470.84,366.42L470.64,363.58L472.91,364.97L473.32,366.06L474.83,366.72L475.15,368.26ZM455.24,358.92L454.93,360.54L454.53,360.86L454.22,360.22L453.94,360.60L453.90,358.60L453.08,356.74L454.00,356.67L453.92,357.30L454.51,357.42L455.24,358.92ZM478.39,363.31L477.73,365.26L476.61,365.82L473.37,364.07L472.69,362.86L472.88,362.09L473.77,361.85L472.99,361.64L472.83,360.54L473.90,359.00L471.81,358.04L472.47,357.64L473.58,358.06L474.83,355.92L475.39,356.09L475.44,354.68L476.86,354.86L477.66,355.92L476.94,356.57L478.39,357.55L477.74,359.50L478.47,360.14L477.66,360.47L478.13,361.08L476.53,360.87L477.20,360.90L478.56,362.50L477.60,363.67L478.39,363.31ZM459.77,353.27L458.93,356.65L457.29,358.23L457.07,359.81L455.72,361.41L458.89,353.28L459.77,353.27ZM438.24,339.20L438.55,339.57L437.24,338.58L438.24,339.20ZM439.18,338.18L438.65,338.31L438.29,337.30L438.84,337.26L439.18,338.18ZM407.83,333.52L407.42,334.19L407.24,333.72L407.83,333.52ZM404.66,332.22L405.08,332.91L403.06,333.52L403.46,332.09L404.66,332.22ZM402.32,331.97L402.37,333.33L401.39,333.19L401.70,333.89L401.20,334.46L399.56,335.06L400.81,333.48L397.62,334.95L397.37,334.23L398.22,333.25L402.32,331.97ZM406.93,332.13L407.02,333.19L406.32,332.65L405.94,333.28L405.05,331.75L406.93,332.13ZM389.42,331.48L389.01,333.72L388.01,333.64L382.98,336.14L377.14,333.38L375.36,331.19L374.64,328.84L375.81,327.23L377.13,328.06L379.72,326.74L384.68,326.77L387.68,328.28L387.89,329.13L387.23,328.98L387.22,329.73L387.92,330.27L388.33,329.86L389.64,330.30L389.42,331.48ZM432.41,332.70L431.76,336.19L427.03,333.45L422.10,331.51L420.78,329.85L416.27,329.49L416.91,331.11L415.99,331.39L411.24,329.94L409.78,330.11L410.03,328.89L408.79,328.30L406.60,330.03L406.43,331.02L404.14,331.38L403.13,330.76L401.63,328.41L400.52,328.20L400.37,326.70L399.48,327.47L397.53,332.46L397.58,329.73L396.54,327.95L399.63,326.70L399.80,325.72L399.23,325.55L400.48,324.21L408.65,324.27L410.87,323.59L411.49,325.29L412.34,325.40L414.98,323.43L416.64,323.30L421.66,325.59L426.69,325.83L429.04,327.44L429.97,330.68L431.74,331.05L432.41,332.70ZM418.23,380.06L418.04,379.63L418.69,379.90L418.23,380.06ZM445.59,353.36L445.94,353.52L445.34,354.20L445.59,353.36ZM478.03,367.42L477.41,368.11L476.80,367.20L477.52,366.87L478.03,367.42ZM471.94,358.58L472.03,359.26L471.56,359.40L471.43,358.70L471.94,358.58Z"><title>Maluku</title></path>
<path data-code="ID-NB" data-name="Nusa Tenggara Barat" d="M276.08,386.89L276.41,387.31L274.92,389.45L274.04,389.41L273.97,387.30L276.08,386.89ZM263.87,388.40L265.17,389.78L264.44,391.73L262.30,394.65L262.40,395.30L263.35,395.36L263.07,395.75L261.66,396.04L261.96,395.08L261.38,395.05L261.15,396.44L260.26,395.79L257.29,395.74L257.19,395.27L256.61,395.90L254.47,394.81L254.58,393.72L257.41,393.87L256.71,390.41L259.77,387.94L261.04,387.52L263.87,388.40ZM292.91,386.70L293.51,387.40L292.49,388.23L292.12,387.38L292.91,386.70ZM294.29,392.37L293.68,393.93L291.55,394.04L290.68,393.29L288.36,394.00L291.02,394.57L291.29,395.01L290.80,395.21L288.50,394.61L284.95,395.25L284.96,392.04L284.71,393.13L281.92,395.42L280.33,395.21L278.75,396.24L276.79,395.94L272.82,397.62L270.49,397.27L269.71,398.06L268.33,398.26L265.41,397.17L265.00,396.55L265.08,395.48L266.14,394.60L265.24,393.03L266.30,391.15L268.03,391.01L270.52,389.37L273.35,390.84L273.45,390.00L274.82,389.94L275.22,391.24L275.59,390.33L275.78,391.54L277.02,391.88L277.74,393.67L278.79,393.43L279.68,394.00L280.85,392.91L283.38,392.74L282.81,391.64L282.52,391.97L280.73,390.48L279.70,390.60L276.64,387.99L276.98,386.89L279.08,386.15L281.82,386.73L282.15,387.89L283.74,389.54L285.53,388.09L287.71,388.56L288.28,389.54L287.95,391.62L288.97,389.00L291.56,388.72L292.49,390.71L292.50,392.79L293.42,392.64L293.86,391.77L294.29,392.37Z"><title>Nusa Tenggara Barat</title></path>
<path data-code="ID-SN" data-name="Sulawesi Selatan" d="M315.09,376.63L316.35,376.87L315.47,377.24L313.10,376.60L315.09,376.63ZM312.69,374.19L312.97,373.95L312.85,374.84L311.65,375.08L310.30,374.15L310.98,374.12L311.07,373.27L312.69,374.19ZM316.58,324.84L315.94,323.70L315.37,323.82L316.51,323.05L315.90,322.09L312.91,321.34L310.64,322.14L306.13,325.40L306.85,327.58L308.76,328.94L308.44,331.84L309.01,334.53L307.98,336.50L307.88,338.94L308.07,342.78L309.05,345.41L308.30,347.57L307.38,348.07L306.85,351.37L308.31,353.77L309.21,356.94L307.55,355.63L304.91,356.65L302.71,356.34L301.42,357.80L300.45,357.93L299.10,356.81L298.63,357.37L298.01,356.21L297.01,356.56L296.06,353.81L296.66,351.07L298.04,348.61L297.70,346.68L298.88,344.43L299.54,337.49L298.91,338.06L297.29,334.37L297.97,332.57L296.76,328.45L299.45,327.33L297.98,323.04L299.71,323.04L301.20,322.19L300.51,318.61L299.26,317.53L299.40,316.35L301.52,314.77L302.22,313.53L304.29,312.41L307.55,312.91L308.51,312.13L312.76,316.63L320.27,318.36L324.87,321.99L324.70,323.54L321.66,326.11L318.64,324.38L316.58,324.84ZM310.18,360.71L309.42,367.10L308.80,363.64L309.29,358.68L310.18,360.71ZM324.79,377.36L325.24,377.24L325.44,377.89L324.54,378.22L324.79,377.36Z"><title>Sulawesi Selatan</title></path>
<path data-code="ID-JT" data-name="Jawa Tengah" d="M172.29,371.09L173.16,371.49L173.77,370.79L175.22,371.59L177.69,371.82L179.36,370.94L184.66,372.38L187.46,371.59L189.87,373.00L191.12,372.55L192.13,371.35L193.31,367.37L196.31,366.23L197.81,366.85L198.91,369.64L201.53,369.88L203.04,368.83L205.16,370.13L204.28,372.83L204.40,375.11L202.46,376.98L199.60,376.45L199.45,381.67L200.64,382.30L200.84,383.22L200.43,384.49L199.77,384.43L196.97,386.32L196.54,387.82L195.35,387.52L194.86,386.70L194.61,383.41L191.72,382.88L190.54,379.92L188.43,381.76L188.27,381.26L186.98,381.31L185.87,383.82L181.30,382.55L178.57,382.46L177.89,381.74L174.69,381.43L173.70,381.97L172.36,381.46L172.03,380.52L171.15,381.17L170.37,380.45L170.09,378.01L168.16,376.59L168.60,375.08L170.06,374.89L170.94,374.15L171.17,372.52L172.29,371.09ZM173.76,382.27L174.04,382.52L171.12,381.60L173.76,382.27ZM190.47,359.52L190.87,359.54L190.55,360.03L190.47,359.52Z"><title>Jawa Tengah</title></path>
<path data-code="ID-JB" data-name="Jawa Barat" d="M149.72,362.38L150.38,360.43L151.86,361.20L154.05,361.16L155.42,363.17L157.88,364.26L160.33,363.66L160.46,364.18L162.80,365.32L164.00,364.84L163.90,364.18L165.96,364.36L166.10,365.48L168.08,367.21L168.86,370.47L172.29,371.09L171.17,372.52L170.94,374.15L170.06,374.89L168.60,375.08L168.16,376.59L170.09,378.01L170.37,380.45L171.15,381.17L170.02,381.18L169.65,381.83L168.08,381.49L167.06,382.99L165.56,382.97L160.09,382.12L154.72,379.16L142.73,377.77L142.59,376.02L143.55,375.38L144.43,373.49L144.07,372.86L142.72,372.90L144.04,370.54L143.07,369.70L143.00,365.83L143.49,365.45L143.81,365.90L146.77,366.02L147.05,365.01L149.16,365.87L149.72,362.38Z"><title>Jawa Barat</title></path>
<path data-code="ID-JK" data-name="Jakarta Raya" d="M146.67,362.14L147.41,362.68L149.72,362.38L149.16,365.87L146.80,364.81L146.12,362.65L146.67,362.14Z"><title>Jakarta Raya</title></path>
<path data-code="ID-BT" data-name="Banten" d="M142.81,373.19L141.44,373.13L138.12,371.18L132.52,371.78L130.40,371.07L129.43,371.51L128.75,370.59L130.49,369.32L131.98,371.03L133.55,368.93L133.80,367.16L134.60,367.78L135.44,367.51L136.45,362.75L138.26,360.18L139.03,360.09L139.42,361.28L140.10,361.61L141.06,360.75L143.58,361.85L145.87,361.54L146.65,362.01L146.12,362.65L147.09,365.83L143.81,365.90L143.37,365.44L143.00,365.83L143.07,369.70L144.04,370.54L142.81,373.19ZM129.31,367.70L129.21,368.89L128.60,369.42L128.26,368.35L127.61,368.92L129.31,367.70Z"><title>Banten</title></path>
<path data-code="ID-YO" data-name="Yogyakarta" d="M195.35,387.52L191.01,386.46L185.87,383.82L186.98,381.31L188.27,381.26L188.43,381.76L190.54,379.92L191.72,382.88L194.61,383.41L194.82,386.58L195.35,387.52Z"><title>Yogyakarta</title></path>
<path data-code="ID-SG" data-name="Sulawesi Tenggara" d="M351.83,361.00L351.77,361.77L350.69,360.68L350.82,359.90L351.83,361.00ZM348.42,355.68L348.87,356.65L347.41,355.20L348.42,355.68ZM345.62,352.50L346.61,352.75L346.73,353.94L345.85,353.76L345.62,352.50ZM331.19,331.97L331.60,332.50L330.86,332.78L331.19,331.97ZM332.59,330.87L332.52,331.65L332.27,330.50L332.59,330.87ZM331.41,328.72L330.89,329.61L331.80,330.31L331.87,331.10L331.24,330.35L330.37,330.36L330.83,331.49L329.82,332.94L331.36,334.41L332.62,334.56L333.89,336.31L335.16,336.44L334.78,337.19L333.92,337.40L335.16,337.83L335.54,339.39L337.36,339.28L336.57,338.32L337.39,338.43L338.13,340.07L338.05,342.35L337.36,342.94L335.32,341.48L336.51,342.69L336.36,343.49L335.81,343.10L335.47,343.44L334.48,342.45L330.15,343.29L328.67,343.91L327.96,345.16L327.90,346.13L328.92,347.23L328.47,347.66L323.89,347.64L322.12,346.56L321.21,345.13L321.87,340.57L322.48,340.55L322.98,338.78L318.47,336.50L318.58,335.57L317.45,335.33L314.30,332.29L314.25,330.51L316.35,328.20L316.58,324.84L317.99,324.32L321.18,326.14L322.63,325.58L324.80,325.73L329.40,327.01L331.41,328.72ZM328.19,352.14L327.95,354.95L327.02,355.14L325.10,352.67L325.99,351.30L325.66,350.81L326.40,350.24L326.44,350.73L327.12,350.43L328.19,352.14ZM336.62,348.61L334.54,351.49L334.92,351.90L334.47,352.30L335.19,353.11L334.47,354.57L333.82,354.68L333.45,352.99L332.94,354.29L332.21,353.78L332.73,353.33L332.07,353.40L331.70,354.21L330.70,353.98L331.33,351.06L332.16,350.33L331.27,347.72L331.92,346.59L335.81,345.04L336.62,348.61ZM341.00,352.26L341.75,353.17L340.94,354.16L339.78,354.62L338.96,354.27L337.76,355.03L337.58,355.62L338.26,355.84L337.19,357.61L336.75,357.80L336.48,357.19L336.23,357.64L336.10,357.02L334.95,357.44L334.10,355.60L335.93,352.75L337.03,352.10L336.36,352.04L336.91,350.11L336.30,350.00L337.26,348.76L337.51,344.97L338.15,343.37L339.72,342.30L340.24,342.36L340.04,342.96L341.60,344.73L341.83,347.42L341.56,347.66L341.00,346.25L340.47,346.84L339.84,346.52L338.63,351.85L339.78,351.22L341.00,352.26ZM341.65,337.67L342.23,338.81L341.55,339.97L340.84,340.58L339.76,340.23L338.64,338.31L339.56,337.44L340.44,337.90L341.65,337.67ZM341.33,332.70L340.65,333.36L339.95,332.67L340.89,332.29L341.33,332.70Z"><title>Sulawesi Tenggara</title></path>
<path data-code="ID-PB" data-name="Papua Barat" d="M454.07,331.27L454.07,332.05L453.09,330.92L454.07,331.27ZM479.76,340.77L479.01,340.76L477.99,339.44L477.09,339.16L477.66,338.38L477.46,337.28L480.26,337.50L480.87,337.00L477.42,336.66L475.64,338.06L474.51,336.66L473.37,336.19L473.69,336.87L473.04,337.09L473.15,337.99L471.09,336.60L471.70,335.80L470.93,334.73L470.73,335.59L469.89,335.30L469.27,336.03L467.50,332.90L467.00,333.38L467.40,334.45L466.61,333.72L465.91,333.87L465.18,331.63L465.89,330.69L465.67,328.66L467.60,326.93L468.59,327.26L467.81,326.40L467.77,324.99L465.49,327.35L465.01,330.83L464.11,331.01L463.67,330.38L463.39,331.17L464.59,332.36L462.42,334.46L462.95,336.15L460.56,338.54L458.19,338.47L457.47,339.10L456.49,338.79L455.17,337.05L455.51,336.76L454.40,333.99L454.70,333.34L456.18,333.52L456.78,332.47L455.47,331.08L455.36,329.24L453.69,329.79L452.29,327.17L449.60,325.27L445.47,325.07L446.03,324.18L445.63,324.02L446.27,323.57L445.25,323.39L447.90,322.64L447.06,322.58L447.66,322.15L449.44,322.07L450.82,322.31L450.73,322.88L451.48,322.34L452.68,322.55L454.37,323.69L457.98,319.73L460.42,318.99L462.20,320.29L462.09,322.07L462.86,319.92L462.91,321.66L463.19,320.23L463.72,321.04L465.09,320.44L465.66,322.55L466.03,320.12L467.25,321.74L467.28,319.71L466.43,319.24L467.65,319.08L468.34,319.71L467.84,318.93L469.48,318.66L468.22,318.53L468.99,317.92L467.85,318.10L468.83,317.52L468.83,316.47L468.58,317.30L467.53,317.61L466.96,317.14L468.83,316.06L468.18,315.98L468.72,315.33L467.74,315.33L465.23,316.85L464.61,316.87L464.61,316.22L464.08,316.96L463.55,316.47L462.86,316.87L461.09,316.47L456.92,317.41L455.41,316.96L453.90,317.69L452.38,316.25L449.37,317.20L446.32,315.04L447.25,314.03L446.07,314.27L445.06,312.81L444.89,311.75L446.03,310.22L444.77,310.59L444.41,309.93L445.54,308.59L443.44,309.41L443.28,308.10L442.47,308.98L442.24,308.26L439.84,307.77L438.97,308.10L438.45,306.97L437.19,306.64L437.90,307.58L436.35,308.41L435.41,307.58L433.33,307.35L434.27,305.47L436.06,304.78L436.92,303.16L437.36,301.20L436.79,300.07L439.87,299.05L440.36,299.09L440.03,299.66L444.29,298.53L447.53,295.52L450.92,294.47L454.14,294.63L457.29,295.63L462.22,298.93L469.15,298.93L471.46,300.60L469.85,301.71L472.76,306.36L471.97,308.85L470.45,310.30L471.33,317.73L473.33,320.24L474.91,324.27L475.73,323.94L475.15,320.44L475.89,319.54L476.98,320.11L477.35,323.98L474.72,326.05L474.75,326.82L473.04,328.52L472.19,330.45L484.39,334.91L479.76,340.77ZM464.19,340.50L465.01,341.31L462.18,340.17L461.42,339.03L464.19,340.50ZM441.01,321.58L441.66,321.32L440.69,321.77L441.01,321.58ZM476.30,318.99L475.93,319.40L475.59,318.87L476.13,317.52L476.30,318.99ZM473.98,314.10L474.47,314.53L473.68,315.87L473.36,315.04L473.98,314.10ZM472.21,310.96L471.49,313.38L471.42,312.04L472.21,310.96ZM426.65,312.73L426.15,313.21L427.25,313.77L426.50,314.21L426.08,313.46L425.11,314.60L423.57,314.85L418.70,312.65L422.44,311.02L424.82,310.91L426.14,310.22L427.28,312.11L426.65,312.73ZM421.54,304.14L420.41,304.97L420.59,304.54L419.05,304.58L420.40,303.89L421.54,304.14ZM434.59,302.22L434.36,304.89L433.46,306.40L432.29,306.20L431.05,305.03L429.77,301.90L432.63,300.90L433.20,301.41L434.33,301.20L434.59,302.22ZM432.93,299.58L431.77,300.67L426.81,301.37L427.74,299.84L428.22,300.31L428.76,299.90L431.76,300.07L431.60,299.33L432.93,299.58ZM430.10,295.52L429.67,296.61L428.84,296.66L429.14,295.86L427.54,296.58L427.95,296.17L427.46,295.86L428.05,295.59L430.10,295.52ZM437.44,293.17L438.00,293.77L436.91,294.91L435.08,294.19L433.66,294.63L432.49,293.37L431.51,293.19L430.55,291.46L429.48,291.37L430.97,293.77L432.58,293.87L433.30,294.71L431.03,295.64L430.43,295.22L430.22,293.81L428.93,294.32L428.56,295.53L428.28,293.41L426.52,293.61L424.65,292.74L427.10,292.72L426.65,292.43L426.89,291.87L426.08,292.02L426.16,292.60L425.59,292.32L425.40,291.60L426.08,291.30L426.32,291.87L426.32,291.30L427.14,291.63L428.11,290.89L431.14,290.95L431.84,290.41L435.73,291.38L437.43,292.25L437.44,293.17ZM464.59,319.52L464.25,320.13L463.38,319.16L464.59,319.52ZM420.92,295.20L420.47,296.27L420.29,295.48L420.92,295.20Z"><title>Papua Barat</title></path>
<path data-code="ID-ST" data-name="Sulawesi Tengah" d="M349.60,314.27L349.73,314.93L349.16,314.64L349.60,314.27ZM319.50,284.88L318.64,284.64L316.73,285.53L315.61,285.05L314.09,285.33L311.76,284.07L309.47,284.15L306.95,285.88L305.30,288.10L303.99,291.20L303.68,293.14L304.78,298.15L306.75,301.02L307.57,301.48L308.60,301.08L309.64,301.91L310.66,303.59L310.41,304.76L311.72,306.88L313.54,306.24L313.71,306.82L316.80,307.02L318.00,304.47L321.48,300.54L322.90,299.84L324.01,301.44L328.64,301.33L329.85,299.42L334.76,299.25L335.87,299.75L338.39,299.35L338.76,299.02L336.09,298.04L340.12,296.95L342.47,297.27L344.49,298.77L344.49,300.23L343.40,302.68L342.05,302.50L340.37,300.25L339.34,300.95L337.32,301.01L335.92,303.50L331.76,308.05L329.57,309.48L325.75,310.14L323.75,312.97L322.10,313.22L320.77,311.85L319.67,311.44L319.06,311.88L319.65,312.35L319.59,313.95L320.31,312.98L322.36,315.98L323.85,316.19L325.30,317.46L327.50,321.09L327.58,322.27L329.49,323.61L329.67,324.32L330.79,324.58L330.70,326.37L332.99,327.69L332.47,328.81L331.41,328.72L329.40,327.01L322.63,325.58L324.85,323.26L324.59,321.49L320.27,318.36L312.76,316.63L308.77,312.24L307.55,312.91L304.53,312.33L301.90,313.45L301.89,311.39L300.46,309.46L299.95,307.35L297.65,305.90L298.97,304.21L298.59,300.24L299.96,299.09L299.69,298.61L300.57,297.87L301.90,300.72L302.13,300.00L300.85,295.93L301.35,291.83L299.88,291.54L299.39,290.24L299.88,290.00L301.74,291.36L302.40,289.52L301.18,287.52L302.18,286.96L302.68,284.75L304.10,284.24L304.12,281.90L306.41,280.71L307.02,278.58L307.76,278.72L307.82,280.22L310.44,281.09L311.56,278.88L313.21,277.89L313.43,274.84L314.48,274.32L314.47,274.82L316.51,274.58L318.69,275.79L320.90,274.99L320.89,276.53L322.50,277.78L326.52,277.34L327.28,278.25L328.15,277.74L329.73,278.19L327.93,279.18L325.69,278.81L321.57,280.33L319.14,280.57L317.45,282.23L318.45,283.33L319.51,283.54L319.50,284.88ZM349.38,313.47L349.52,314.03L348.63,313.96L348.55,312.56L349.38,313.47ZM340.80,311.27L341.04,311.97L340.09,312.89L340.35,311.15L340.80,311.27ZM345.18,305.34L345.75,305.58L345.48,307.34L344.06,308.33L342.64,307.20L342.11,309.70L340.54,309.04L341.41,307.96L341.03,305.77L337.99,309.19L337.00,307.46L337.11,305.92L338.21,304.30L340.96,304.38L341.47,303.93L342.14,304.85L341.58,305.39L341.97,306.88L343.40,304.92L345.18,305.34ZM325.66,295.11L326.40,295.93L326.15,296.38L324.26,296.05L323.16,296.82L324.46,295.11L325.66,295.11ZM327.74,294.30L327.71,295.18L325.74,294.84L326.52,294.06L327.74,294.30ZM329.97,293.29L330.19,293.60L329.10,293.12L329.49,292.69L329.97,293.29ZM331.76,293.49L331.84,294.47L330.06,292.72L331.76,293.49ZM322.36,292.52L322.63,291.84L323.24,292.11L322.95,292.71L322.36,292.52ZM343.56,310.18L343.70,310.65L342.54,311.52L343.56,310.18ZM329.04,294.91L328.23,295.08L328.30,293.55L329.04,294.91ZM346.34,309.35L346.34,310.53L345.07,310.62L344.87,308.87L345.42,307.93L346.34,309.35Z"><title>Sulawesi Tengah</title></path>
<path data-code="ID-MU" data-name="Maluku Utara" d="M355.19,313.58L355.45,314.52L354.62,313.91L355.19,313.58ZM390.96,306.56L391.05,307.01L389.93,307.25L390.48,306.40L390.96,306.56ZM395.87,263.54L396.23,263.90L395.82,264.19L395.43,263.74L395.87,263.54ZM400.70,262.32L400.24,263.27L399.93,262.42L400.30,261.87L400.70,262.32ZM375.55,318.61L375.63,319.54L374.89,319.50L373.60,316.80L373.12,314.69L373.95,313.63L374.72,314.24L374.46,316.19L375.55,318.61ZM378.63,311.91L377.96,312.48L373.88,313.24L373.22,312.90L368.01,313.46L368.01,312.65L366.87,312.29L367.66,311.39L371.22,311.91L374.10,311.52L378.63,311.91ZM366.62,311.44L366.67,312.66L363.50,312.73L363.06,313.39L360.87,312.81L357.49,314.13L355.87,314.10L354.96,312.52L355.62,310.12L357.19,309.63L362.37,310.46L363.47,311.27L364.20,311.19L364.32,310.30L365.09,310.55L365.23,311.55L366.08,310.83L366.62,311.44ZM400.12,309.25L400.19,310.14L399.02,310.67L397.38,310.29L392.88,310.87L391.05,309.70L391.64,307.13L392.34,307.54L394.08,306.10L397.21,307.26L400.12,309.25ZM394.74,304.74L394.45,305.43L392.02,305.00L393.05,304.23L394.74,304.74ZM390.08,299.17L390.36,299.76L389.87,299.90L388.41,299.51L388.95,297.74L389.66,297.71L390.08,299.17ZM397.09,299.42L396.94,300.05L395.50,300.88L394.30,300.16L393.98,299.27L391.99,300.02L392.14,297.96L390.06,296.22L390.32,294.38L390.98,294.26L391.85,295.28L392.69,293.94L393.42,294.21L394.71,296.06L393.72,297.67L394.29,298.74L395.92,298.53L397.09,299.42ZM389.35,296.17L387.86,296.30L387.88,293.77L388.64,293.39L390.09,293.70L389.54,294.19L389.88,295.13L389.35,296.17ZM416.60,291.95L417.01,292.64L416.64,292.93L413.71,289.80L416.60,291.95ZM392.01,290.41L391.93,290.85L391.29,290.32L391.41,288.62L391.93,288.70L392.01,290.41ZM391.29,285.86L391.51,286.65L390.81,287.00L390.56,286.23L391.29,285.86ZM391.05,282.98L391.13,281.39L391.52,281.39L391.85,282.46L391.05,282.98ZM390.96,281.07L390.27,281.39L389.99,280.45L390.87,280.40L390.96,281.07ZM394.45,292.84L395.04,286.66L393.39,285.44L392.81,283.72L393.14,281.60L393.96,280.50L392.42,279.64L392.39,277.86L391.35,278.01L391.29,276.04L392.97,272.88L393.15,270.31L394.02,268.62L397.63,264.44L398.97,264.25L398.75,265.37L396.59,268.43L398.58,269.99L398.58,274.90L397.11,276.71L394.12,278.51L394.00,279.26L395.35,280.67L396.65,280.74L397.49,280.06L397.65,278.43L398.33,277.53L400.53,276.68L400.49,275.75L399.50,275.47L400.83,273.89L403.58,272.12L406.92,271.75L406.53,273.24L407.26,274.44L406.70,277.67L401.96,279.77L401.94,280.61L401.15,280.57L400.93,281.19L402.72,282.74L406.46,283.79L406.57,286.25L408.16,286.68L409.05,287.90L404.77,286.49L403.86,285.68L401.51,285.72L397.93,284.64L397.35,285.18L397.05,290.08L398.18,293.49L401.10,298.77L403.62,301.13L401.38,300.63L401.36,299.80L398.79,298.65L397.05,295.17L394.45,292.84ZM406.53,260.93L405.11,265.36L401.59,266.72L401.26,264.03L400.74,263.51L402.21,261.23L405.11,259.16L406.53,260.93ZM379.41,274.49L379.24,275.16L378.84,274.68L379.41,274.49ZM402.75,302.07L403.22,302.52L402.32,302.45L402.03,301.54L402.75,302.07Z"><title>Maluku Utara</title></path>
<path data-code="ID-KR" data-name="Kepulauan Riau" d="M120.03,293.57L120.18,294.02L119.16,294.05L120.03,293.57ZM121.03,280.90L121.69,281.16L120.40,281.47L121.03,280.90ZM107.98,279.47L108.06,280.06L107.33,279.56L107.98,279.47ZM108.65,280.66L108.71,281.15L107.50,280.02L108.65,280.66ZM108.30,281.16L108.55,281.56L107.65,282.69L106.60,281.32L106.74,280.02L107.26,279.93L108.30,281.16ZM112.00,280.26L112.36,281.29L111.11,280.02L112.00,280.26ZM113.66,278.56L113.95,279.14L113.42,279.29L112.44,278.48L112.93,278.14L113.66,278.56ZM123.80,278.14L124.33,278.30L124.20,279.05L123.80,278.14ZM156.51,278.07L156.98,278.40L156.48,278.87L156.12,278.30L156.51,278.07ZM107.76,278.36L106.55,278.28L106.46,277.19L107.13,276.97L107.76,278.36ZM116.08,276.61L115.44,278.63L113.83,278.40L113.24,277.66L114.71,276.29L115.36,276.93L115.42,276.29L116.08,276.61ZM122.10,277.37L122.14,279.37L121.06,280.53L120.07,280.18L119.67,279.44L120.11,279.26L119.33,279.03L120.09,278.11L117.56,278.47L117.09,277.41L119.08,276.11L120.36,276.39L121.16,275.84L121.31,276.80L122.10,277.37ZM174.81,260.37L173.84,260.91L173.15,260.23L174.81,260.37ZM171.66,255.13L172.33,255.02L171.66,256.64L170.87,256.06L171.66,255.13ZM135.68,254.85L136.28,255.01L135.79,255.95L134.62,256.68L134.34,254.11L134.92,254.96L135.68,254.85ZM141.39,252.70L141.32,253.79L140.51,253.30L140.48,252.15L141.39,252.70ZM141.23,250.54L141.32,252.09L140.75,251.76L141.23,250.54ZM166.38,244.46L165.45,246.72L163.87,247.14L162.81,246.57L163.90,245.43L165.01,246.15L164.80,245.43L162.43,244.68L161.51,242.83L164.35,240.07L164.74,241.43L166.38,243.08L165.98,244.29L166.38,244.46ZM161.75,233.82L161.61,234.78L160.95,234.78L161.75,233.82ZM120.84,295.08L121.44,295.86L120.40,297.63L119.32,297.17L118.57,298.20L118.32,296.79L117.38,295.99L117.71,295.11L118.36,294.47L118.44,295.44L119.91,294.30L120.84,295.08ZM125.34,293.17L126.32,293.70L125.20,293.77L125.42,294.30L123.05,292.90L120.76,293.57L119.50,292.64L121.03,290.00L123.42,292.59L124.40,292.01L125.34,293.17ZM120.23,289.52L119.99,290.08L119.22,289.27L119.25,288.28L120.23,289.52ZM122.50,289.52L122.67,289.97L120.15,287.49L122.50,289.52ZM119.15,286.35L119.14,286.90L118.36,286.03L119.15,286.35ZM117.71,281.97L116.78,281.76L116.67,281.12L117.58,280.92L117.71,281.97ZM117.02,279.93L117.40,280.41L116.44,280.90L115.44,279.93L115.52,279.12L117.02,279.93Z"><title>Kepulauan Riau</title></path>
<path data-code="ID-RI" data-name="Riau" d="M103.45,282.96L103.42,283.55L102.95,282.57L103.45,282.96ZM70.72,260.10L72.15,263.43L73.65,264.81L76.62,266.20L78.22,268.74L76.47,264.19L77.49,263.13L79.44,263.21L79.64,264.06L82.59,266.38L83.89,270.11L85.56,270.74L87.71,270.68L92.08,273.93L93.01,276.15L93.14,278.23L95.71,280.83L97.21,281.62L101.06,281.76L103.50,284.25L103.40,285.12L97.56,288.22L95.88,287.53L97.52,288.48L98.91,287.61L101.36,287.19L106.80,284.01L108.92,285.21L109.69,286.68L110.15,286.27L111.16,286.88L112.00,290.45L109.96,290.93L109.34,290.53L109.33,291.60L105.71,293.41L108.30,292.87L107.68,294.36L106.60,294.71L108.35,294.81L109.59,295.54L107.46,296.49L106.93,295.68L107.44,297.18L106.60,298.61L107.70,299.20L100.20,299.76L97.08,303.21L95.77,302.92L92.91,300.50L90.49,300.87L89.38,302.15L87.95,302.66L82.76,299.69L78.84,295.12L77.13,294.18L75.84,291.34L76.99,290.81L76.93,287.99L73.04,285.10L71.37,285.49L70.15,285.02L68.93,282.68L69.45,281.94L69.03,281.06L69.67,276.78L67.80,274.02L71.90,271.87L72.26,271.21L70.47,267.61L70.72,260.10ZM105.99,282.95L105.84,283.99L104.17,283.97L104.63,282.12L105.43,282.14L105.99,282.95ZM103.09,280.92L102.60,282.14L101.27,281.00L96.79,280.99L95.49,280.02L96.60,279.07L96.21,277.25L97.26,277.02L97.84,278.38L99.72,278.38L103.09,280.92ZM104.01,279.37L104.58,279.91L104.02,280.48L100.04,278.14L98.07,278.25L99.15,276.68L100.17,276.58L102.95,277.99L104.01,279.37ZM96.28,275.65L96.22,278.84L95.05,279.28L93.43,277.33L93.17,273.80L94.12,273.72L96.28,275.65ZM96.55,274.21L96.34,275.31L94.59,273.62L91.81,272.88L90.77,271.22L96.15,272.41L96.55,274.21ZM87.38,265.98L88.02,267.28L87.30,269.29L86.24,270.05L84.65,269.79L83.54,267.74L83.79,266.14L85.36,265.98L86.53,265.14L87.38,265.98ZM110.95,293.56L111.47,294.47L109.76,294.95L107.98,294.71L109.12,293.01L110.95,293.56Z"><title>Riau</title></path>
<path data-code="ID-GO" data-name="Gorontalo" d="M329.73,278.19L334.77,278.91L337.44,280.67L338.85,278.96L340.38,279.35L341.80,280.57L342.15,281.68L344.92,283.76L345.14,285.27L344.64,286.67L342.05,286.52L340.11,284.24L338.97,284.64L335.61,284.64L335.08,284.15L334.96,284.73L327.84,284.65L325.03,285.31L322.68,283.82L321.81,283.99L321.57,284.59L319.50,284.88L319.51,283.54L318.45,283.33L317.45,282.23L319.79,280.22L321.57,280.33L325.69,278.81L327.93,279.18L329.73,278.19Z"><title>Gorontalo</title></path>
<path data-code="ID-SA" data-name="Sulawesi Utara" d="M340.38,279.35L341.49,279.37L341.44,278.83L342.82,279.55L350.32,280.50L354.50,278.31L355.67,276.31L358.09,276.19L358.35,275.47L357.39,275.09L357.55,274.25L360.95,272.96L360.84,271.73L362.71,269.85L363.20,269.70L363.63,270.52L364.97,270.48L364.88,271.59L365.74,272.31L365.85,272.77L364.26,273.95L361.70,278.83L358.92,280.82L357.96,283.31L356.58,285.05L354.87,285.64L346.71,287.20L344.64,286.67L345.14,285.27L344.92,283.76L342.15,281.68L341.80,280.57L340.38,279.35ZM366.39,271.98L366.06,273.61L365.09,273.89L366.39,271.98ZM368.01,262.07L368.26,262.72L367.54,262.81L367.27,262.23L368.01,262.07ZM368.15,257.27L367.55,259.22L367.16,257.74L367.65,257.07L368.15,257.27ZM370.62,249.26L370.20,250.14L368.90,249.33L369.07,247.98L367.88,246.91L368.13,246.09L369.22,246.73L370.62,249.26ZM383.54,244.71L384.87,245.84L384.34,246.15L383.54,244.71ZM382.50,243.19L383.17,243.91L382.97,245.20L382.01,242.45L382.50,243.19ZM385.04,239.05L385.65,239.63L384.32,241.11L384.18,242.76L382.74,242.92L384.24,240.33L383.15,239.84L383.54,236.51L385.09,237.12L385.04,239.05ZM367.55,265.27L366.85,265.70L367.09,265.13L367.55,265.27ZM364.94,269.05L364.61,269.73L364.43,268.70L364.94,269.05Z"><title>Sulawesi Utara</title></path>
<path data-code="ID-SR" data-name="Sulawesi Barat" d="M297.69,331.67L295.41,330.97L294.60,331.65L291.02,332.61L289.09,326.98L290.09,326.71L290.53,324.36L289.18,324.27L289.01,323.25L289.59,321.52L290.87,321.74L293.49,319.44L293.47,316.47L294.44,314.17L295.99,313.57L295.60,305.12L297.13,303.55L298.59,300.24L299.01,303.99L297.65,305.90L299.95,307.35L300.46,309.46L301.81,311.18L301.61,312.97L302.22,313.53L301.52,314.77L299.40,316.35L299.26,317.53L300.51,318.61L301.20,322.19L299.71,323.04L297.98,323.04L299.48,327.21L296.79,328.32L297.69,331.67Z"><title>Sulawesi Barat</title></path>
<path data-code="ID-JA" data-name="Jambi" d="M107.70,299.20L107.73,299.99L108.75,300.03L112.32,303.08L112.65,302.37L113.83,301.94L116.86,303.08L118.81,302.58L119.82,309.00L120.64,310.90L119.06,310.38L118.15,311.74L116.41,312.12L113.00,311.62L108.84,313.68L109.05,316.47L107.88,316.97L107.92,318.82L105.27,316.18L104.52,317.27L104.86,318.44L103.97,318.77L100.88,318.25L100.90,319.53L100.05,320.78L97.53,322.55L95.98,322.68L93.76,321.63L91.47,323.32L89.61,322.88L85.62,319.56L84.96,317.67L84.09,316.91L82.81,317.57L81.92,315.02L80.52,313.11L80.19,310.56L84.15,310.70L86.41,308.64L86.96,307.77L86.87,305.63L88.00,305.22L88.79,304.18L88.10,303.77L87.95,302.66L89.38,302.15L90.49,300.87L92.91,300.50L95.77,302.92L97.08,303.21L100.20,299.76L107.70,299.20Z"><title>Jambi</title></path>
<path data-code="ID-SS" data-name="Sumatera Selatan" d="M120.64,310.90L120.23,313.30L121.03,312.37L121.89,313.13L121.32,314.29L122.10,313.70L122.47,314.58L123.99,314.15L124.80,315.54L123.31,317.97L121.52,318.82L122.75,318.45L122.79,320.66L121.09,321.83L120.63,323.21L121.45,321.92L123.01,321.05L123.48,318.96L124.56,317.48L125.34,318.49L125.95,317.92L127.57,318.56L129.11,318.12L132.68,319.04L133.57,318.81L133.50,321.10L134.15,321.91L135.39,322.23L135.77,324.71L138.20,325.54L138.66,326.46L138.88,328.93L136.84,330.73L135.88,333.87L137.46,336.20L135.98,339.62L134.58,339.53L133.31,338.39L132.26,336.19L129.92,334.81L129.33,336.40L127.77,337.12L127.55,338.38L126.29,339.75L120.59,341.54L118.01,342.96L118.00,345.19L117.47,346.05L118.36,347.47L117.94,348.27L115.31,348.96L113.04,348.81L111.06,346.72L109.65,342.37L104.87,340.89L104.04,338.14L100.13,337.54L98.20,335.70L101.30,333.38L101.13,332.70L102.43,332.82L102.50,330.74L100.81,330.30L99.74,329.21L98.15,330.32L97.34,329.98L96.11,328.79L96.38,327.47L93.53,326.60L93.41,325.48L91.47,323.32L93.76,321.63L95.98,322.68L97.74,322.46L100.05,320.78L100.90,319.53L100.88,318.25L103.97,318.77L104.86,318.44L104.52,317.27L105.27,316.18L107.92,318.82L107.88,316.97L109.05,316.47L108.67,313.81L113.00,311.62L116.41,312.12L118.15,311.74L119.06,310.38L120.64,310.90Z"><title>Sumatera Selatan</title></path>
<path data-code="ID-LA" data-name="Lampung" d="M135.98,339.62L135.88,341.31L136.91,343.31L136.45,347.52L136.95,348.92L136.45,350.08L136.00,357.35L134.82,360.22L134.62,359.45L133.12,358.96L132.91,357.66L131.91,357.40L129.49,354.86L129.01,356.34L128.31,356.47L128.74,357.87L128.02,358.21L128.73,358.59L128.12,358.91L123.71,356.82L122.41,355.60L120.87,355.62L120.66,356.23L122.82,360.51L120.99,360.59L120.76,359.57L114.27,353.30L114.25,352.51L113.18,352.18L113.06,350.83L109.71,348.61L111.57,347.28L112.63,347.87L113.04,348.81L115.31,348.96L117.87,348.32L118.36,347.47L117.47,346.05L118.00,345.19L118.01,342.96L120.59,341.54L126.29,339.75L127.55,338.38L127.77,337.12L129.33,336.40L129.92,334.81L132.26,336.19L133.31,338.39L134.58,339.53L135.98,339.62ZM124.20,358.60L124.27,359.32L123.47,358.51L124.20,358.60Z"><title>Lampung</title></path>
<path data-code="ID-BE" data-name="Bengkulu" d="M109.71,348.61L107.42,348.05L104.56,345.07L101.57,343.58L98.98,340.95L94.38,337.65L94.36,336.15L93.31,333.52L86.39,328.87L82.71,322.81L80.08,321.01L79.16,319.74L84.00,316.85L87.56,321.59L91.47,323.32L93.41,325.48L93.17,326.17L93.66,326.69L96.26,327.35L96.11,328.79L97.21,329.89L98.15,330.32L99.74,329.21L100.81,330.30L102.50,330.74L102.43,332.82L101.13,332.70L101.30,333.38L98.13,335.54L100.13,337.54L104.04,338.14L104.87,340.89L109.65,342.37L111.57,347.28L109.71,348.61ZM95.49,354.38L95.01,354.83L95.29,355.25L94.03,355.51L91.84,353.56L92.71,352.92L95.49,354.38Z"><title>Bengkulu</title></path>
<path data-code="ID-SB" data-name="Sumatera Barat" d="M79.16,319.74L76.88,315.94L77.51,314.50L77.16,312.77L74.75,309.52L73.76,307.45L73.74,306.13L71.81,305.34L72.13,304.66L71.34,303.99L71.93,302.77L70.57,300.03L67.42,296.14L64.92,294.07L64.19,290.98L62.66,289.40L59.82,288.33L59.21,287.53L56.96,287.37L59.35,284.62L61.85,283.69L64.80,284.81L65.92,284.39L65.69,283.05L63.53,279.85L69.06,281.39L69.46,281.84L68.93,282.68L70.15,285.02L71.37,285.49L73.04,285.10L76.35,287.33L77.09,288.32L77.01,290.72L75.84,291.34L77.13,294.18L78.84,295.12L82.76,299.69L85.06,301.40L87.63,302.17L88.10,303.77L88.79,303.96L88.24,305.04L86.87,305.63L86.83,308.13L84.47,310.53L80.19,310.56L80.52,313.11L81.92,315.02L82.81,317.57L79.16,319.74ZM71.72,328.08L72.46,329.86L70.99,328.54L71.09,327.40L69.25,325.51L69.12,323.57L69.70,323.21L72.54,326.08L72.60,327.25L71.58,327.61L71.72,328.08ZM69.45,322.27L69.55,322.97L68.64,323.78L67.19,323.94L66.70,319.91L69.45,322.27ZM64.91,317.52L65.18,318.56L62.31,317.20L61.41,315.78L61.85,315.61L61.86,314.42L62.64,314.27L63.39,314.86L64.91,317.52ZM58.42,309.73L58.42,310.95L58.18,309.96L57.54,309.65L58.19,311.35L56.57,311.71L53.81,310.26L50.36,304.56L51.12,301.78L53.96,301.21L54.44,302.98L57.12,307.12L57.13,307.61L56.72,307.52L58.42,309.73Z"><title>Sumatera Barat</title></path>
<path data-code="ID-SU" data-name="Sumatera Utara" d="M56.96,287.37L55.66,281.16L54.95,280.51L53.28,274.29L51.73,271.83L52.41,272.01L53.03,270.43L51.94,269.13L51.75,269.92L51.12,269.46L49.67,267.42L46.52,266.22L44.53,264.43L44.84,262.79L43.63,259.84L44.18,258.55L44.01,257.05L42.27,255.72L42.07,253.88L42.63,253.30L41.72,251.77L43.21,250.91L40.70,246.09L42.07,244.77L42.03,243.98L42.52,244.14L43.35,243.21L44.11,240.00L45.44,239.49L46.50,239.56L46.45,240.57L45.53,240.96L45.45,241.69L46.45,240.87L46.95,242.02L48.14,242.04L51.34,243.99L51.74,245.30L52.76,246.23L57.30,248.35L60.30,250.28L61.78,251.92L64.06,252.68L65.32,254.68L66.76,255.43L66.98,257.20L66.45,258.42L67.10,259.53L66.70,258.34L67.66,258.05L68.49,260.39L68.44,258.81L69.41,258.26L70.70,260.00L70.47,267.61L72.26,271.21L71.90,271.87L67.80,274.02L69.65,276.61L69.06,281.39L63.53,279.85L65.69,283.05L65.92,284.39L64.80,284.81L61.85,283.69L59.35,284.62L56.96,287.37ZM49.27,295.82L49.26,297.06L48.64,296.60L48.33,297.31L46.59,296.58L47.31,296.49L48.41,293.25L49.34,294.68L49.27,295.82ZM49.01,292.24L49.96,293.66L49.83,294.88L46.83,290.45L48.14,290.45L49.01,292.24ZM49.90,270.43L50.42,271.03L48.44,270.68L48.81,270.11L49.50,270.75L49.90,270.43ZM42.49,278.56L41.85,282.99L41.20,283.74L39.83,283.58L38.76,280.60L37.17,279.18L36.18,279.17L34.42,275.35L32.25,273.59L34.29,273.58L35.47,272.14L36.43,272.36L39.71,276.31L42.49,278.56ZM49.81,288.47L52.87,288.45L53.41,289.06L49.71,289.29L49.81,288.47Z"><title>Sumatera Utara</title></path>
<path data-code="ID-AC" data-name="Aceh" d="M44.53,264.43L42.81,263.45L40.31,263.34L39.29,261.79L38.63,256.40L36.29,255.49L34.70,252.28L33.53,251.80L30.12,246.73L28.66,245.95L25.34,245.59L22.00,241.54L19.78,240.30L16.42,236.67L14.52,235.42L11.14,229.67L11.27,228.86L10.18,227.66L10.83,226.25L10.34,224.34L12.94,223.37L13.88,223.98L15.07,223.70L18.33,225.06L18.84,226.22L20.70,227.63L24.47,228.55L31.18,227.89L34.18,229.39L37.38,228.14L42.26,232.43L43.42,235.46L43.30,236.50L45.77,237.07L46.68,238.65L46.50,239.56L44.11,240.00L43.35,243.21L42.52,244.14L42.03,243.98L42.07,244.77L40.70,246.09L43.21,250.91L41.72,251.77L42.63,253.30L42.07,253.88L42.27,255.72L44.01,257.05L44.18,258.55L43.63,259.84L44.84,262.79L44.53,264.43ZM33.29,265.98L32.71,266.48L32.31,265.63L32.92,265.32L33.29,265.98ZM27.29,265.16L27.61,265.46L27.03,265.83L27.29,265.16ZM35.39,264.92L35.31,266.29L33.95,264.59L32.71,264.15L34.83,263.95L35.39,264.92ZM25.34,261.75L25.36,262.35L23.63,262.46L23.04,261.50L20.44,259.80L17.18,258.91L16.11,256.81L17.06,256.64L17.19,255.50L18.62,255.93L18.28,256.64L21.16,257.97L20.88,258.91L21.58,258.99L21.53,258.61L24.10,261.05L24.68,260.62L25.34,261.75ZM9.93,223.68L9.68,224.08L9.12,223.76L9.50,223.26L9.93,223.68ZM9.19,222.70L9.27,223.20L8.55,223.35L8.55,222.45L8.00,222.30L9.19,222.70ZM11.87,220.51L12.36,221.56L12.03,221.32L11.83,221.89L10.35,220.43L11.19,220.97L11.87,220.51Z"><title>Aceh</title></path>
<path data-code="ID-KT" data-name="Kalimantan Tengah" d="M236.38,331.04L235.84,330.38L237.02,328.41L234.91,330.43L233.99,330.02L234.10,328.16L233.20,330.11L230.51,331.30L228.36,331.31L228.11,327.97L226.62,327.97L225.20,328.90L224.45,327.83L225.03,329.13L223.26,327.00L222.07,326.41L221.29,324.99L221.08,326.34L220.17,327.16L221.12,327.83L216.59,330.84L215.49,331.17L213.16,329.73L211.44,329.81L207.70,332.66L206.77,332.22L207.05,326.63L205.88,323.57L206.12,322.80L205.16,324.65L205.52,325.23L203.94,326.09L202.95,325.21L201.50,324.99L197.03,326.94L194.29,326.21L194.88,325.42L196.79,324.71L199.11,322.33L198.83,318.85L197.15,314.90L197.44,310.18L196.24,309.56L197.34,308.44L198.78,308.49L201.82,305.62L204.18,304.28L204.19,303.26L204.91,302.39L210.28,299.10L213.37,299.33L215.88,298.71L222.67,295.93L223.90,296.89L224.45,295.52L223.86,294.38L225.91,292.70L226.55,291.21L225.98,289.02L224.71,287.46L228.24,286.68L228.52,285.50L230.06,283.74L233.33,282.67L237.17,283.39L240.55,283.00L244.12,281.61L245.47,283.88L243.98,286.66L244.78,289.54L244.28,292.34L247.06,290.07L248.64,290.24L247.79,294.05L249.45,299.53L250.67,301.47L252.30,302.14L253.30,303.44L254.07,303.22L254.10,305.43L253.06,307.26L252.56,307.25L252.42,306.48L249.48,307.46L248.54,311.28L248.45,314.49L246.38,316.38L243.12,317.31L243.43,319.14L242.00,322.21L238.68,324.49L236.38,331.04Z"><title>Kalimantan Tengah</title></path>
<path data-code="ID-KS" data-name="Kalimantan Selatan" d="M263.16,318.36L262.51,320.62L261.64,319.96L259.98,320.28L259.89,321.26L261.03,320.85L260.69,324.26L259.78,325.75L259.08,325.92L258.01,323.81L257.63,325.88L258.29,325.94L259.51,327.52L258.36,327.75L258.37,329.05L257.87,329.22L258.41,328.58L257.69,328.82L256.00,333.11L254.70,333.25L241.14,339.77L240.10,339.77L239.94,334.00L238.89,332.05L239.22,330.03L238.62,330.44L238.35,331.83L236.38,331.04L238.68,324.49L242.00,322.21L243.43,319.14L243.12,317.31L246.38,316.38L248.45,314.49L248.54,311.28L249.48,307.46L252.66,306.57L251.29,308.34L252.15,308.52L252.70,309.74L253.41,314.06L254.35,314.61L254.18,316.23L254.80,318.18L256.31,317.27L263.16,318.36ZM261.10,330.55L261.52,330.76L260.95,333.48L260.22,332.22L261.10,330.55ZM259.97,334.41L260.00,336.62L257.46,338.54L256.97,337.99L257.46,336.97L256.57,333.36L257.79,329.74L259.55,328.49L259.49,330.71L260.18,331.80L259.62,332.22L259.97,334.41Z"><title>Kalimantan Selatan</title></path>
<path data-code="ID-BA" data-name="Bali" d="M251.05,393.03L251.93,394.25L251.51,394.70L250.08,393.81L251.05,393.03ZM251.87,388.56L252.99,389.58L252.84,390.10L248.36,392.53L246.95,393.99L247.25,394.97L246.13,395.22L245.66,394.83L246.69,393.98L246.39,392.98L243.68,390.68L239.86,389.72L238.25,387.73L238.01,386.58L238.68,386.21L242.86,387.43L244.81,387.18L246.83,385.79L250.49,387.18L251.87,388.56Z"><title>Bali</title></path>
<path data-code="ID-BB" data-name="Bangka-Belitung" d="M148.78,325.07L148.21,326.25L146.57,325.50L147.64,324.62L148.78,325.07ZM151.03,324.23L150.85,324.83L150.06,324.48L150.62,323.80L151.03,324.23ZM154.53,324.35L155.59,323.78L155.83,324.18L154.71,325.28L153.89,324.56L154.53,324.35ZM165.17,324.11L164.11,325.97L164.18,327.51L162.77,327.81L162.57,328.58L161.47,328.74L161.29,327.69L160.16,326.51L159.63,326.69L159.50,327.88L156.99,328.61L157.46,327.42L156.73,326.03L157.09,324.93L156.33,324.91L157.00,324.37L157.79,320.71L159.73,320.28L161.75,320.93L162.07,321.66L162.85,321.26L164.85,323.03L165.17,324.11ZM147.12,320.69L147.88,320.93L146.56,321.51L145.17,324.84L146.76,325.96L146.92,326.77L144.32,327.15L143.18,325.55L137.86,323.78L136.93,322.05L137.36,319.96L135.99,318.74L135.42,315.84L132.88,314.85L129.81,315.65L128.90,314.89L127.93,315.00L127.79,313.65L130.95,311.49L130.15,310.48L130.32,309.89L132.88,308.51L134.50,309.97L134.03,310.97L135.80,311.60L134.42,308.51L137.00,308.06L138.51,309.12L138.44,310.24L140.14,312.73L140.39,316.17L141.79,319.16L147.12,320.69Z"><title>Bangka-Belitung</title></path>
  </g>
</svg>
