<?xml version="1.0" encoding="UTF-8"?>
<svg xmlns="http://www.w3.org/2000/svg" viewBox="0 0 560 640" class="pref-muni-svg" role="img" aria-label="行政区分">
  <g class="pref-muni-svg__paths" fill="#eaf2fb" stroke="#5b7fa8" stroke-width="0.6" stroke-linejoin="round">
<path data-code="IE-DL" data-name="Donegal" d="M373.31,58.21L369.16,61.80L363.13,62.70L358.39,68.62L358.07,76.92L354.61,79.93L353.69,90.87L345.35,101.95L345.38,110.09L335.32,109.58L323.92,115.73L316.80,111.77L308.90,117.21L311.02,118.79L311.07,122.81L316.75,127.54L319.72,126.27L325.52,130.23L329.57,128.68L329.83,131.86L316.52,141.88L302.05,141.48L293.10,151.75L278.94,153.92L273.93,151.84L282.42,148.05L276.68,144.61L281.84,140.38L281.60,137.31L285.98,133.40L285.70,129.47L289.28,131.63L290.21,124.16L274.69,131.63L275.80,127.83L273.78,126.22L259.17,138.12L265.95,131.63L265.67,129.38L262.44,129.47L262.74,125.98L261.52,125.98L258.70,132.07L255.62,127.30L249.03,131.12L238.78,129.44L237.01,125.98L227.53,123.08L228.82,119.84L227.18,116.94L230.99,115.78L233.06,111.52L239.77,106.77L259.17,107.75L250.79,103.42L256.49,102.53L260.29,106.69L263.73,106.77L258.72,101.88L249.56,98.02L255.95,92.62L271.52,95.86L266.27,91.99L267.65,88.01L272.75,88.29L270.45,84.44L266.96,83.86L266.32,87.21L263.63,87.07L259.71,81.52L258.52,78.55L259.75,77.69L262.77,79.55L267.66,77.39L262.75,74.24L259.17,68.73L263.09,68.73L264.21,64.33L266.96,63.42L269.47,59.00L270.64,63.63L272.06,63.75L273.46,59.99L272.02,52.57L275.98,43.76L282.77,45.92L288.93,43.76L287.49,49.47L304.45,34.04L306.96,35.89L301.87,41.61L310.89,39.35L311.81,44.42L315.46,42.59L312.18,47.00L315.81,47.17L317.86,43.06L314.89,35.15L321.26,28.63L319.65,38.36L328.91,42.81L330.98,48.09L330.33,53.50L333.57,45.87L331.04,36.33L328.31,35.20L329.69,41.61L328.39,41.36L321.91,36.56L322.25,34.57L324.83,28.63L335.86,25.99L338.93,30.96L338.64,38.15L342.58,40.53L347.01,50.79L345.54,54.58L336.14,61.16L343.61,62.14L342.58,65.48L332.33,76.40L353.58,60.29L353.75,55.53L351.57,53.92L352.95,46.47L344.77,35.07L347.92,28.94L347.15,23.22L351.47,24.22L352.95,23.22L352.36,21.06L358.33,23.75L363.84,19.42L367.18,23.22L364.55,23.22L366.35,24.50L372.40,24.21L363.54,16.11L363.32,12.41L358.86,8.97L360.35,8.00L376.92,14.53L384.45,23.92L401.02,28.91L402.34,31.32L402.03,34.57L380.32,46.46L373.31,58.21ZM252.72,67.64L255.39,69.08L256.58,73.06L248.86,73.06L250.14,67.64L252.72,67.64Z"><title>Donegal</title></path>
<path data-code="IE-LM" data-name="Leitrim" d="M286.36,154.14L294.71,167.33L302.05,170.85L307.73,180.20L302.34,187.31L297.80,188.91L299.70,194.39L298.61,197.54L306.99,199.54L319.11,211.10L321.96,209.36L326.80,211.44L340.55,223.85L342.34,231.02L340.12,238.12L332.56,240.61L323.75,250.24L322.33,256.45L316.38,254.63L315.29,257.92L312.72,255.56L309.62,257.36L303.80,248.92L303.63,243.32L300.02,236.88L296.67,241.30L293.51,240.12L292.19,235.03L296.10,227.75L294.37,226.05L293.84,219.57L297.14,216.81L297.55,213.18L291.30,209.76L287.42,210.42L281.60,203.49L273.14,201.32L270.34,195.68L269.74,181.93L265.68,173.47L268.38,168.42L269.30,161.86L263.19,161.08L266.86,155.89L266.24,153.33L273.93,151.84L286.36,154.14Z"><title>Leitrim</title></path>
<path data-code="IE-CN" data-name="Cavan" d="M307.73,180.20L313.56,182.08L315.81,194.05L330.12,195.80L336.92,200.84L339.16,205.38L349.23,207.72L357.50,204.46L356.45,205.84L359.39,208.23L383.16,214.06L395.74,212.16L396.02,215.21L408.46,226.97L413.01,236.22L420.39,241.15L417.73,244.44L408.97,246.83L403.93,244.80L403.22,248.57L400.29,247.99L405.29,257.84L399.10,263.11L383.60,259.21L376.32,262.80L368.53,258.01L359.94,262.53L354.82,258.06L350.74,249.85L343.16,249.88L345.77,245.84L340.12,238.12L342.34,231.02L340.55,223.85L326.80,211.44L321.96,209.36L319.11,211.10L306.99,199.54L298.61,197.54L299.70,194.39L297.80,188.91L302.34,187.31L307.73,180.20Z"><title>Cavan</title></path>
<path data-code="IE-MN" data-name="Monaghan" d="M394.95,162.11L407.99,173.44L410.16,181.16L407.75,183.63L411.95,186.28L416.66,195.39L420.72,198.37L425.45,196.18L430.58,200.93L431.12,203.76L428.11,209.35L429.00,212.97L427.54,216.69L432.83,221.63L437.61,221.97L438.85,230.23L432.67,231.39L430.88,234.02L431.31,239.54L426.42,242.55L420.39,241.15L413.01,236.22L408.46,226.97L396.02,215.21L395.74,212.16L383.16,214.06L366.77,209.44L365.87,203.05L368.74,201.38L368.57,207.60L370.21,207.55L371.59,202.01L373.44,201.09L371.99,198.89L373.13,196.27L382.16,192.02L381.56,189.42L382.87,187.61L379.51,184.81L380.07,182.61L376.91,181.07L379.21,177.39L378.47,174.53L384.65,172.15L389.23,165.03L394.95,162.11Z"><title>Monaghan</title></path>
<path data-code="IE-LH" data-name="Louth" d="M457.52,210.01L460.14,212.03L464.15,210.87L480.88,225.37L475.84,231.58L457.05,224.99L458.19,226.96L455.81,233.16L455.81,243.47L461.07,247.95L468.05,248.89L466.94,255.68L469.99,259.79L468.05,261.97L467.81,270.34L448.72,272.37L447.49,269.35L448.95,264.79L441.38,261.93L437.74,257.22L435.59,249.00L426.42,242.55L431.31,239.54L430.88,234.02L432.67,231.39L438.85,230.23L438.07,222.93L433.89,220.49L434.85,219.23L455.38,217.51L457.52,210.01Z"><title>Louth</title></path>
<path data-code="IE-D" data-name="Dublin" d="M476.88,324.67L470.69,329.18L473.97,335.64L465.27,336.85L455.40,331.72L464.33,320.28L476.21,319.49L476.88,324.67Z"><title>Dublin</title></path>
<path data-code="IE-D" data-name="Dún Laoghaire–Rathdown" d="M473.97,335.64L481.86,340.66L480.95,347.38L482.62,353.56L479.25,355.49L464.06,351.50L464.33,343.95L466.09,340.01L465.27,336.85L473.97,335.64Z"><title>Dún Laoghaire–Rathdown</title></path>
<path data-code="IE-WW" data-name="Wicklow" d="M482.62,353.56L484.31,356.70L483.64,359.56L488.14,368.30L486.14,384.41L491.62,392.62L487.43,398.60L484.93,407.32L478.73,415.02L476.76,426.80L474.74,422.82L467.54,418.88L456.40,419.51L445.53,433.95L440.32,436.27L433.53,431.53L428.94,422.67L426.33,422.40L426.24,418.70L428.88,412.50L437.53,416.61L442.52,413.89L442.73,408.27L444.20,406.30L422.02,399.20L421.64,395.21L417.05,388.42L423.18,376.29L436.21,367.69L439.75,361.32L439.45,357.51L446.84,350.41L454.81,352.66L459.67,357.88L463.48,351.60L479.25,355.49L482.62,353.56Z"><title>Wicklow</title></path>
<path data-code="IE-WX" data-name="Wexford" d="M476.76,426.80L470.69,438.77L471.28,457.79L457.39,479.46L456.46,489.69L454.20,487.41L446.76,487.22L447.32,484.37L444.15,486.54L447.96,491.05L448.07,494.79L451.02,495.47L452.39,498.43L455.81,493.13L454.23,497.42L460.97,506.10L457.05,514.75L453.31,514.86L455.06,511.36L453.82,510.53L450.84,513.54L446.74,513.57L448.67,512.59L446.41,511.45L436.30,516.01L423.48,509.93L414.98,510.53L418.90,502.85L411.82,507.09L411.82,510.53L413.75,509.33L413.17,515.83L403.04,524.49L401.45,523.50L405.72,516.96L403.55,509.44L394.89,497.63L396.92,488.94L400.70,482.67L400.86,477.54L403.46,476.93L403.88,470.45L409.45,469.11L413.16,459.15L417.60,452.94L418.44,446.36L428.70,442.27L429.95,440.37L427.78,436.63L433.53,431.53L439.63,436.10L445.04,434.34L456.40,419.51L467.54,418.88L474.74,422.82L476.76,426.80Z"><title>Wexford</title></path>
<path data-code="IE-KK" data-name="Kilkenny" d="M397.15,500.28L397.40,501.98L391.46,504.34L382.19,501.24L376.25,504.83L362.22,491.08L359.84,483.72L359.68,475.93L353.42,469.56L357.08,463.11L354.17,461.77L354.22,452.22L351.81,446.09L344.06,432.51L337.21,428.40L333.57,420.74L338.24,419.83L343.56,414.56L353.85,419.83L364.52,414.19L367.86,408.98L373.23,409.48L378.46,403.82L383.61,406.60L385.33,412.45L389.55,414.25L392.16,418.63L389.29,422.76L387.89,429.42L390.81,432.54L394.52,431.81L398.72,437.71L399.15,447.59L403.87,453.34L402.34,461.13L403.85,475.74L400.86,477.54L400.40,483.56L396.92,488.94L394.81,498.41L397.15,500.28Z"><title>Kilkenny</title></path>
<path data-code="IE-WD" data-name="Waterford" d="M397.40,501.98L399.52,509.33L398.52,514.78L400.87,515.83L395.01,522.32L386.63,523.50L389.85,517.99L386.60,516.83L385.29,517.99L386.63,520.15L382.51,519.48L378.95,523.21L355.54,524.33L343.28,530.97L341.65,527.72L340.01,528.23L337.07,531.71L337.43,534.30L339.80,532.88L345.18,535.52L341.65,539.71L340.96,545.63L329.69,548.37L328.37,553.01L318.37,551.60L316.43,547.37L310.55,547.44L308.51,542.39L301.72,535.88L296.28,522.88L288.32,520.98L292.90,511.10L302.19,511.12L304.40,505.97L325.96,508.09L325.19,502.65L322.02,498.19L321.91,492.69L324.35,489.87L340.86,487.25L362.22,491.08L376.25,504.83L382.19,501.24L383.58,507.98L387.15,511.46L393.74,511.46L396.37,508.93L393.42,503.51L397.40,501.98Z"><title>Waterford</title></path>
<path data-code="IE-CO" data-name="Cork" d="M316.24,547.85L314.54,555.39L309.60,558.19L313.53,561.33L312.50,562.93L301.49,567.07L300.08,569.00L301.87,571.16L300.32,572.11L289.59,575.14L278.61,574.90L281.19,572.15L280.54,570.08L285.70,566.85L283.12,565.76L285.06,562.52L283.97,560.79L282.42,562.52L274.59,559.54L265.59,561.10L255.66,556.28L252.08,559.75L250.96,565.11L263.18,567.64L264.88,563.74L268.83,564.34L271.18,566.19L269.47,571.16L274.10,571.16L273.46,573.33L274.69,574.31L272.11,575.49L275.39,575.49L273.46,578.73L273.78,582.52L269.63,587.83L261.15,592.89L256.58,589.55L258.45,592.52L256.58,595.15L255.91,591.94L249.56,590.72L255.30,592.89L251.37,599.91L252.08,605.86L248.21,600.45L230.76,600.45L237.14,602.61L235.92,604.87L237.84,605.86L236.22,608.01L236.56,611.27L221.67,608.21L218.45,614.60L214.19,617.81L208.72,613.43L201.01,615.58L196.49,613.43L197.71,615.58L196.96,617.40L189.71,619.51L189.99,622.08L186.76,625.41L182.90,625.41L182.20,622.08L176.24,627.05L171.89,627.58L175.17,623.26L172.69,624.78L173.17,622.08L177.69,617.85L169.96,623.26L168.82,621.64L169.96,616.12L166.05,613.98L164.80,614.60L165.60,616.49L156.21,619.40L155.38,622.12L150.19,624.38L145.98,620.21L140.20,626.50L141.49,627.58L130.47,632.00L131.12,627.58L129.18,625.41L156.36,605.86L152.01,605.40L133.80,615.09L127.90,615.58L151.77,598.78L164.60,594.27L166.08,588.56L158.29,587.48L158.29,584.24L155.01,581.97L156.36,588.56L148.73,594.10L125.39,598.67L110.79,608.12L98.14,609.11L99.98,605.42L107.86,602.61L106.84,598.53L103.99,598.19L105.19,596.23L113.15,595.21L117.58,590.72L113.72,589.55L118.29,584.29L126.63,583.06L130.61,590.15L130.57,593.75L134.45,593.26L139.92,586.61L145.76,584.97L150.40,579.70L165.27,577.72L168.93,572.80L177.52,569.16L181.95,562.56L179.38,556.28L179.91,554.13L185.79,549.73L196.02,547.07L196.22,544.34L188.46,540.88L188.51,536.25L191.07,532.19L182.71,507.37L187.44,497.68L195.69,491.88L210.42,497.83L226.45,484.29L236.93,484.55L253.40,499.84L265.51,498.38L271.12,493.47L276.56,499.46L283.51,498.87L286.46,501.21L288.55,507.01L293.10,509.25L288.57,521.53L296.28,522.88L301.72,535.88L308.51,542.39L310.09,546.99L316.24,547.85ZM130.78,601.41L132.45,601.74L123.68,605.78L121.26,604.50L124.68,601.07L130.78,601.41Z"><title>Cork</title></path>
<path data-code="IE-CO" data-name="Cork" d="M265.59,561.10L261.74,562.52L264.88,563.74L263.18,567.64L250.96,565.11L252.08,559.75L255.66,556.28L265.59,561.10Z"><title>Cork</title></path>
<path data-code="IE-KY" data-name="Kerry" d="M126.63,583.06L127.25,579.81L133.75,580.89L131.12,577.75L138.27,570.08L144.55,569.09L153.08,563.60L136.34,568.46L126.36,575.22L125.32,575.49L125.96,572.15L124.63,572.15L100.71,585.22L101.26,583.13L92.33,578.73L95.94,577.54L96.80,573.73L95.18,569.71L91.37,567.82L81.32,577.75L81.32,569.00L76.80,568.59L77.46,563.60L76.17,562.52L89.52,558.69L89.44,556.03L84.55,551.60L89.12,548.37L88.38,546.05L110.37,537.72L114.20,535.38L116.24,529.99L117.82,534.07L120.45,534.30L122.15,523.50L135.04,524.48L133.05,522.32L136.33,520.15L117.58,521.23L118.82,524.48L117.79,527.00L113.72,522.32L95.93,526.90L92.98,523.50L90.66,525.26L87.18,522.63L84.55,524.48L87.83,526.54L78.75,524.48L80.09,526.54L72.30,528.81L69.38,526.00L68.38,520.15L70.95,517.99L69.97,515.73L74.88,512.59L74.18,514.75L78.39,516.42L78.91,508.09L83.26,507.09L87.48,501.77L97.29,498.81L98.78,500.11L97.82,507.09L103.99,506.10L109.27,501.59L110.11,498.25L107.86,495.20L112.23,495.72L112.68,504.11L118.46,506.60L125.57,507.39L129.97,503.34L131.43,505.89L138.27,504.92L125.83,500.98L124.73,497.35L127.74,499.14L129.18,498.43L126.54,496.18L129.88,495.20L129.13,484.81L118.23,478.97L137.20,471.91L141.49,467.66L147.99,469.24L146.49,466.03L143.42,465.91L144.12,457.79L146.70,453.91L163.50,455.26L165.74,452.98L173.67,453.11L179.54,464.04L176.87,471.78L178.66,476.04L176.85,481.06L179.08,485.15L176.57,488.60L185.51,494.82L187.76,499.27L182.71,507.37L191.07,532.19L188.20,540.07L196.22,544.34L196.45,546.43L180.36,553.63L179.31,555.66L181.95,561.77L181.40,563.91L177.52,569.16L168.93,572.80L165.72,577.50L150.86,579.47L145.76,584.97L139.92,586.61L134.91,593.00L131.07,593.86L129.06,586.02L126.63,583.06ZM84.00,556.02L85.41,557.15L83.06,559.55L73.02,561.67L80.32,555.13L84.00,556.02Z"><title>Kerry</title></path>
<path data-code="IE-LK" data-name="Limerick" d="M173.67,453.11L185.56,452.13L202.94,444.18L207.35,445.92L211.66,440.94L231.37,437.67L235.50,437.81L241.36,444.54L246.82,445.49L249.07,442.65L248.65,437.11L254.38,431.73L254.22,426.37L257.24,424.66L259.82,435.30L274.58,434.90L278.08,438.64L284.57,438.87L280.78,452.82L280.51,462.54L272.78,464.89L271.80,469.58L270.61,464.96L268.74,464.75L266.24,467.44L265.18,472.71L279.29,479.73L282.63,485.57L286.35,486.98L285.46,492.90L287.61,494.76L284.83,499.70L276.56,499.46L271.12,493.47L266.27,498.10L255.15,500.37L246.75,494.83L239.23,485.11L227.30,484.18L210.42,497.83L196.45,491.72L187.44,497.68L176.57,488.60L179.08,485.15L176.85,481.06L178.66,476.04L176.87,471.78L179.54,464.04L173.67,453.11Z"><title>Limerick</title></path>
<path data-code="IE-CE" data-name="Clare" d="M231.37,437.67L211.58,434.39L212.41,427.95L210.73,425.71L213.30,421.47L205.66,425.92L202.39,433.90L194.03,445.46L183.84,447.41L180.91,450.67L176.45,449.58L181.58,445.15L181.56,442.99L166.88,447.32L158.35,443.36L156.53,438.66L153.08,438.77L155.71,442.99L142.35,448.33L141.17,452.35L119.51,456.07L130.11,449.99L149.21,431.20L148.58,429.04L160.82,425.07L162.22,420.30L161.52,417.05L165.38,412.72L167.54,405.24L174.47,396.41L162.80,395.33L171.30,384.52L170.60,383.43L175.64,373.69L184.19,361.82L192.91,368.30L198.76,365.77L201.01,367.12L201.27,364.59L195.79,360.64L201.32,359.56L207.76,362.82L205.80,365.80L206.18,368.78L218.20,377.07L218.72,388.49L220.89,390.79L228.81,389.59L238.17,381.38L245.92,380.59L253.41,384.55L257.29,389.60L273.06,389.03L275.86,391.41L270.94,399.99L264.79,401.10L261.09,410.47L258.89,422.07L254.22,426.37L253.83,432.37L247.61,437.51L243.07,436.50L242.05,439.84L239.42,440.85L231.37,437.67Z"><title>Clare</title></path>
<path data-code="IE-G" data-name="Galway" d="M207.50,362.61L203.58,358.37L209.88,358.05L210.31,360.87L213.89,362.80L211.95,357.40L217.81,350.90L203.58,350.90L211.36,348.64L208.72,347.57L209.60,345.78L216.41,344.45L215.26,338.54L204.08,333.32L196.84,340.48L196.57,344.41L170.00,346.61L163.52,349.74L157.59,348.76L154.43,344.43L156.23,341.68L155.55,339.85L153.96,339.88L152.65,346.22L150.10,348.49L148.58,346.58L150.40,342.13L149.62,334.97L153.43,334.59L154.96,331.85L151.15,328.10L155.71,324.85L149.21,325.95L150.63,330.56L147.99,333.61L146.30,331.84L147.69,326.10L146.29,323.68L137.75,336.10L131.75,338.12L128.33,334.68L124.21,335.65L122.73,334.59L124.15,329.00L133.75,323.69L130.47,322.70L132.46,319.45L126.70,323.45L124.73,321.52L127.90,317.20L121.86,318.43L120.83,324.25L117.15,325.77L112.17,325.51L107.54,320.53L96.85,320.53L100.08,315.30L108.51,314.05L105.28,309.63L111.56,311.39L112.37,309.63L103.38,307.58L99.10,299.80L94.33,299.80L96.49,297.92L103.35,298.82L102.64,295.57L111.08,296.75L113.91,299.39L116.24,296.75L109.09,290.99L112.69,290.17L120.04,290.90L127.25,288.00L142.12,291.15L155.27,289.36L156.93,293.55L164.02,296.71L175.15,296.68L175.33,299.85L180.51,300.40L182.59,305.15L190.20,310.63L198.67,306.49L203.96,299.25L203.80,295.35L206.38,293.57L210.99,283.30L240.21,278.86L249.17,272.30L258.00,272.96L259.89,274.32L260.68,278.44L268.17,282.76L264.94,285.08L266.55,288.97L275.51,296.17L274.24,297.02L275.88,301.81L276.09,310.40L279.35,315.37L278.41,318.12L281.01,322.93L279.74,327.40L284.69,332.20L285.48,337.86L289.17,341.57L297.95,342.14L305.17,350.31L302.76,354.65L289.28,361.68L273.06,389.03L269.67,390.27L257.29,389.60L253.41,384.55L245.92,380.59L238.17,381.38L228.81,389.59L220.89,390.79L218.72,388.49L218.20,377.07L206.18,368.78L205.80,365.80L207.50,362.61ZM145.34,342.26L147.64,346.13L145.75,349.04L142.54,350.03L140.84,348.10L140.84,342.26L145.34,342.26ZM146.69,369.77L145.55,371.53L131.30,364.09L142.13,364.26L144.55,365.21L144.51,368.59L146.69,369.77Z"><title>Galway</title></path>
<path data-code="IE-G" data-name="Galway" d="M213.30,344.43L205.80,342.26L196.57,344.41L196.84,340.48L204.08,333.32L215.26,338.54L216.41,344.45L213.30,344.43Z"><title>Galway</title></path>
<path data-code="IE-MO" data-name="Mayo" d="M142.12,290.46L133.91,289.88L122.15,283.58L120.80,276.50L122.99,268.09L122.15,265.20L133.40,261.32L136.91,262.95L154.43,259.79L149.21,256.46L155.01,248.89L152.49,247.80L154.43,243.47L136.33,243.47L121.93,249.90L118.82,246.63L122.15,240.14L121.45,234.84L125.96,233.65L130.18,235.91L132.75,241.32L133.75,235.91L131.19,232.87L129.39,234.45L127.70,227.93L123.05,223.52L123.16,218.80L126.54,216.25L125.20,214.76L129.18,209.78L124.73,209.78L121.30,216.49L118.65,217.04L114.36,210.95L122.15,208.79L118.12,205.16L117.58,203.28L120.11,204.46L115.65,198.95L119.51,197.87L114.62,193.78L112.48,192.96L111.08,194.63L111.90,197.66L108.51,197.87L109.79,201.12L105.28,202.30L107.22,207.71L104.58,208.79L107.19,212.50L101.56,210.74L104.90,196.66L107.86,192.37L102.64,190.31L104.44,190.29L106.57,184.90L112.79,179.47L116.17,183.63L124.73,185.88L120.38,191.63L115.65,189.13L115.05,192.22L122.01,195.16L125.96,191.39L124.68,189.47L125.29,186.92L128.24,183.73L135.68,187.06L132.46,182.64L136.33,182.64L129.63,180.52L128.23,175.47L133.75,174.00L141.16,177.24L161.23,177.24L171.59,180.47L177.49,177.32L182.55,179.40L184.51,183.73L187.35,182.64L187.35,188.15L189.40,189.13L188.03,193.04L193.79,198.93L194.55,204.46L195.25,201.39L198.99,205.04L205.22,202.74L212.79,205.11L215.14,210.34L207.94,218.68L207.44,223.37L218.31,224.17L221.60,231.19L225.03,232.29L230.04,231.50L240.09,222.28L246.90,225.93L247.22,234.16L237.74,233.65L238.19,240.29L242.62,245.75L241.29,248.53L237.17,247.68L233.76,255.82L237.60,261.04L235.71,271.58L222.24,281.90L210.42,283.82L209.51,288.27L203.80,295.35L203.96,299.25L195.63,309.19L187.88,309.96L182.59,305.15L180.51,300.40L175.33,299.85L175.15,296.68L164.02,296.71L156.93,293.55L155.27,289.36L142.12,290.46ZM116.94,234.84L120.80,234.84L119.51,244.56L117.47,246.44L111.78,241.32L108.27,241.19L107.22,232.66L98.14,233.65L88.41,230.41L92.89,229.74L95.62,224.99L100.82,227.48L107.54,223.93L115.78,224.18L119.51,229.23L117.58,229.23L116.94,234.84Z"><title>Mayo</title></path>
<path data-code="IE-SO" data-name="Sligo" d="M195.25,201.39L195.14,194.63L199.37,191.64L203.05,181.69L206.23,181.31L213.64,181.61L221.42,185.88L238.42,184.57L248.21,195.81L254.01,194.63L248.26,188.49L243.65,187.06L246.22,182.64L257.87,183.73L248.21,177.82L248.73,176.20L252.08,178.41L253.97,177.28L253.26,175.79L239.84,174.00L239.19,171.83L257.51,159.44L258.21,152.32L260.45,156.70L266.24,153.33L266.86,155.89L263.36,161.59L269.30,161.86L268.38,168.42L265.63,172.77L269.74,181.93L270.46,196.34L276.01,203.56L282.01,203.80L287.44,212.01L282.84,215.25L280.25,221.33L275.20,221.71L272.10,227.33L265.59,228.22L264.48,233.78L269.05,235.63L270.46,239.43L262.40,239.20L259.66,241.51L253.93,238.85L252.27,234.79L247.22,234.16L246.58,225.25L241.37,222.43L230.04,231.50L225.03,232.29L221.60,231.19L218.31,224.17L207.44,223.37L207.94,218.68L215.08,209.06L211.45,204.09L205.22,202.74L198.99,205.04L195.25,201.39Z"><title>Sligo</title></path>
<path data-code="IE-MH" data-name="Meath" d="M467.81,270.34L469.31,281.91L472.32,285.41L468.07,286.23L465.63,291.67L461.20,295.24L456.47,292.65L452.62,295.68L452.35,300.35L460.15,308.78L458.08,314.69L453.89,316.80L447.94,324.37L440.91,322.43L437.15,323.90L420.23,318.44L415.12,322.18L411.53,321.94L405.80,315.09L400.63,314.73L391.95,321.97L389.67,326.39L379.50,318.17L390.87,311.73L391.59,306.81L394.46,305.69L395.93,300.42L395.46,295.33L398.38,293.96L401.58,283.11L396.84,279.56L391.58,283.19L381.36,277.40L376.08,273.63L375.66,270.27L370.91,264.14L364.68,259.93L369.86,258.25L376.32,262.80L383.60,259.21L399.10,263.11L405.29,257.84L400.29,247.99L403.22,248.57L403.93,244.80L408.97,246.83L417.10,244.66L422.46,240.75L435.59,249.00L438.28,258.41L443.16,263.66L448.95,264.79L447.49,269.35L448.72,272.37L467.81,270.34Z"><title>Meath</title></path>
<path data-code="IE-D" data-name="Fingal" d="M472.32,285.41L474.99,289.97L482.29,294.49L483.94,300.41L478.42,312.87L476.07,311.01L472.62,312.87L478.68,315.79L480.35,320.53L479.07,322.70L486.21,324.85L485.16,327.71L479.42,323.69L476.88,324.67L476.21,319.49L470.56,318.90L469.15,321.07L464.33,320.28L458.22,328.96L456.92,326.79L446.52,327.34L453.37,317.36L458.08,314.69L460.15,308.78L452.35,300.35L452.62,295.68L456.47,292.65L461.20,295.24L465.63,291.67L468.07,286.23L472.32,285.41Z"><title>Fingal</title></path>
<path data-code="IE-KE" data-name="Kildare" d="M422.02,399.20L418.04,406.21L407.54,407.49L403.14,404.17L402.34,398.46L398.29,391.11L391.85,389.80L389.36,386.20L392.22,377.02L388.05,364.30L390.74,360.57L383.08,356.93L393.45,356.42L395.33,352.55L390.88,350.26L394.93,346.31L397.79,337.24L389.58,328.00L391.95,321.97L399.73,315.09L404.32,314.78L411.53,321.94L415.12,322.18L420.23,318.44L437.15,323.90L440.91,322.43L447.94,324.37L441.07,341.01L443.20,344.36L441.78,347.62L446.84,350.41L439.45,357.51L439.75,361.32L436.21,367.69L423.18,376.29L417.41,387.13L417.33,389.48L422.04,396.19L422.02,399.20Z"><title>Kildare</title></path>
<path data-code="IE-CW" data-name="Carlow" d="M411.63,407.27L418.97,405.57L422.02,399.20L444.20,406.30L442.73,408.27L442.52,413.89L437.53,416.61L428.57,412.89L426.08,421.81L428.94,422.67L433.53,431.53L427.78,436.63L429.95,440.37L418.44,446.36L417.60,452.94L413.16,459.15L409.45,469.11L403.88,470.45L402.34,461.13L403.87,453.34L399.15,447.59L398.72,437.71L394.52,431.81L390.81,432.54L387.89,429.42L390.22,420.64L402.52,413.58L403.14,404.17L407.54,407.49L411.63,407.27Z"><title>Carlow</title></path>
<path data-code="IE-LS" data-name="Laoighis" d="M403.14,404.17L402.52,413.58L392.16,418.63L389.55,414.25L385.33,412.45L383.61,406.60L379.32,403.58L373.23,409.48L367.86,408.98L364.52,414.19L353.85,419.83L343.56,414.56L338.24,419.83L333.57,420.74L329.36,409.04L330.33,403.72L334.59,397.67L327.88,392.86L330.48,389.52L331.96,382.78L340.71,371.23L336.37,363.79L336.95,360.46L350.18,356.04L356.03,357.04L357.53,353.85L361.64,353.01L364.81,355.14L369.75,364.64L390.24,359.88L390.64,361.78L388.06,364.92L391.41,372.19L392.19,379.04L389.36,386.20L391.85,389.80L399.40,392.53L402.83,399.78L403.14,404.17Z"><title>Laoighis</title></path>
<path data-code="IE-D" data-name="South Dublin" d="M446.84,350.41L441.78,347.62L443.20,344.36L441.07,341.01L446.52,327.34L456.92,326.79L458.22,328.96L455.98,332.90L463.04,335.07L466.09,340.01L464.33,343.95L464.06,351.50L460.32,357.88L454.81,352.66L446.84,350.41Z"><title>South Dublin</title></path>
<path data-code="IE-OY" data-name="Offaly" d="M389.67,326.39L397.79,337.24L394.93,346.31L390.89,349.86L395.22,352.01L393.90,356.16L383.16,356.54L387.94,359.43L386.01,361.70L372.18,364.59L368.13,363.86L364.81,355.14L361.64,353.01L357.53,353.85L356.03,357.04L350.18,356.04L337.64,360.01L336.37,363.79L340.71,371.23L331.96,382.78L330.48,389.52L327.88,392.86L319.89,390.76L309.81,404.39L306.85,403.56L307.34,406.24L305.50,409.14L299.43,402.25L298.21,397.12L304.78,395.31L305.19,393.13L302.81,388.62L307.36,387.11L306.01,381.88L309.08,379.21L310.16,372.73L307.81,367.24L295.04,358.90L304.47,353.02L304.39,348.41L297.76,341.21L301.08,334.59L307.53,327.81L316.11,331.20L325.21,329.94L338.17,321.07L342.97,323.89L347.02,334.07L348.55,331.70L354.82,334.47L361.79,331.92L379.50,318.17L389.67,326.39Z"><title>Offaly</title></path>
<path data-code="IE-WH" data-name="Westmeath" d="M364.68,259.93L370.91,264.14L375.66,270.27L376.08,273.63L381.36,277.40L391.58,283.19L396.84,279.56L401.28,282.34L398.38,293.96L395.46,295.33L395.93,300.42L394.46,305.69L391.59,306.81L390.87,311.73L356.03,334.28L348.55,331.70L347.02,334.07L342.97,323.89L338.17,321.07L325.21,329.94L316.11,331.20L307.53,327.81L308.64,322.85L306.25,313.90L305.75,302.86L318.35,298.85L324.80,301.22L334.35,300.28L338.00,292.89L343.80,287.49L339.80,281.68L342.81,282.52L354.90,270.33L360.47,269.85L361.49,265.63L359.94,262.53L364.68,259.93Z"><title>Westmeath</title></path>
<path data-code="IE-LD" data-name="Longford" d="M359.94,262.53L361.49,265.63L360.47,269.85L354.90,270.33L342.81,282.52L339.80,281.68L343.80,287.49L338.00,292.89L334.35,300.28L324.80,301.22L318.35,298.85L305.75,302.86L299.21,287.84L307.04,269.41L312.90,264.01L312.87,260.96L309.62,257.36L312.72,255.56L315.50,257.86L316.38,254.63L322.33,256.45L324.58,249.03L336.36,237.79L340.12,238.12L344.81,243.19L345.77,245.84L343.47,250.24L350.74,249.85L354.82,258.06L359.94,262.53Z"><title>Longford</title></path>
<path data-code="IE-RN" data-name="Roscommon" d="M307.53,327.81L301.08,334.59L297.95,342.14L286.72,339.73L284.69,332.20L279.74,327.40L281.01,322.93L278.41,318.12L279.35,315.37L276.09,310.40L275.88,301.81L274.24,297.02L275.51,296.17L266.55,288.97L264.94,285.08L268.17,282.76L260.68,278.44L258.61,273.23L249.17,272.30L240.21,278.86L230.21,281.33L225.14,280.08L234.14,273.49L236.81,268.52L237.60,261.04L233.76,255.82L237.17,247.68L241.29,248.53L242.62,245.75L238.19,240.29L237.74,233.65L251.70,234.58L253.93,238.85L259.66,241.51L262.40,239.20L270.01,239.64L269.05,235.63L264.48,233.78L265.96,227.74L272.10,227.33L275.20,221.71L280.25,221.33L282.84,215.25L289.59,209.37L297.55,213.18L297.14,216.81L293.84,219.57L294.37,226.05L296.10,227.75L292.19,235.03L293.51,240.12L296.67,241.30L300.02,236.88L303.63,243.32L303.80,248.92L313.14,262.28L303.42,275.81L299.21,287.84L305.75,302.86L306.25,313.90L308.64,322.85L307.53,327.81Z"><title>Roscommon</title></path>
<path data-code="IE-TA" data-name="North Tipperary" d="M327.88,392.86L334.59,397.67L330.33,403.72L329.36,409.04L337.21,428.40L335.50,430.86L336.03,440.74L330.74,449.29L323.56,453.61L317.26,456.16L311.01,454.95L309.29,461.30L308.30,460.55L309.34,455.18L292.86,437.15L279.56,439.22L274.58,434.90L260.94,435.70L257.24,424.66L264.79,401.10L270.94,399.99L275.90,392.73L273.06,389.03L277.93,379.44L282.78,374.71L289.28,361.68L295.04,358.90L307.81,367.24L310.16,372.73L309.08,379.21L306.01,381.88L307.36,387.11L302.81,388.62L305.19,393.13L304.78,395.31L298.21,397.12L299.64,402.74L303.08,405.10L304.29,408.88L307.15,407.05L307.11,403.32L309.81,404.39L315.76,398.27L316.04,394.38L319.89,390.76L327.88,392.86Z"><title>North Tipperary</title></path>
<path data-code="IE-TA" data-name="South Tipperary" d="M362.22,491.08L340.86,487.25L324.35,489.87L321.91,492.69L322.02,498.19L325.19,502.65L325.30,508.60L307.43,505.73L303.57,506.35L302.19,511.12L292.90,511.10L292.84,508.64L288.55,507.01L284.83,499.70L287.61,494.76L285.46,492.90L285.99,486.37L282.63,485.57L279.29,479.73L267.03,474.83L265.19,472.11L268.74,464.75L270.61,464.96L271.80,469.58L272.78,464.89L280.51,462.54L280.78,452.82L284.57,438.87L292.86,437.15L309.34,455.18L308.79,461.46L311.01,454.95L317.26,456.16L330.74,449.29L336.03,440.74L335.50,430.86L337.21,428.40L343.73,432.10L351.81,446.09L354.22,452.22L354.17,461.77L357.08,463.11L353.42,469.56L359.68,475.93L359.84,483.72L362.22,491.08Z"><title>South Tipperary</title></path>
<path data-code="IE-WD" data-name="Waterford" d="M382.19,501.24L388.24,504.51L393.42,503.51L396.37,508.93L393.74,511.46L387.15,511.46L383.58,507.98L382.19,501.24Z"><title>Waterford</title></path>
<path data-code="IE-LK" data-name="Limerick" d="M243.81,436.39L248.65,437.11L249.07,442.65L246.82,445.49L241.36,444.54L239.42,440.85L243.81,436.39Z"><title>Limerick</title></path>
  </g>
</svg>
