<?xml version="1.0" encoding="UTF-8"?>
<svg xmlns="http://www.w3.org/2000/svg" viewBox="0 0 560 640" class="pref-muni-svg" role="img" aria-label="行政区分">
  <g class="pref-muni-svg__paths" fill="#eaf2fb" stroke="#5b7fa8" stroke-width="0.6" stroke-linejoin="round">
<path data-code="IL-D" data-name="HaDarom" d="M168.57,357.74L182.51,345.34L181.82,334.43L184.74,328.84L210.39,305.42L200.22,298.52L227.31,251.55L231.49,253.21L230.39,258.89L226.49,259.27L228.66,262.66L226.38,266.15L230.75,267.15L233.66,265.31L231.79,262.88L235.16,261.72L238.99,263.76L241.72,269.42L247.32,265.25L253.42,271.61L253.46,286.42L264.37,294.51L260.78,312.66L252.67,328.27L257.27,335.91L293.14,333.71L301.08,330.72L323.75,313.83L333.05,313.10L332.28,327.57L324.51,350.37L330.02,366.01L330.33,374.90L323.95,387.61L323.09,397.28L314.52,408.96L313.76,419.65L308.72,426.44L306.59,436.07L298.64,452.43L289.76,482.20L292.76,493.16L287.75,511.76L290.47,531.08L282.45,545.32L278.08,562.94L277.38,575.86L271.08,593.26L269.35,606.19L264.12,623.13L258.61,632.00L255.33,631.98L251.06,623.11L246.86,591.89L235.58,560.26L234.47,548.73L216.29,495.85L206.43,485.48L207.70,473.92L203.37,466.25L200.11,446.99L168.57,357.74Z"><title>HaDarom</title></path>
<path data-code="IL-Z" data-name="HaZafon" d="M346.97,170.82L326.03,166.03L324.13,153.33L320.08,150.84L305.01,149.91L294.11,140.79L286.85,147.83L277.80,143.83L274.11,134.90L277.47,135.00L275.58,132.01L276.62,129.78L280.94,130.36L285.42,125.27L285.16,119.61L288.49,119.66L291.76,108.16L290.12,99.54L284.59,96.55L279.62,85.05L283.25,62.01L285.03,58.62L295.91,59.42L309.28,56.68L317.64,63.94L335.99,58.87L340.35,49.31L341.41,37.40L345.41,28.03L352.80,34.55L355.00,29.86L359.36,28.72L365.67,21.39L375.30,18.21L382.33,8.00L380.81,15.44L374.55,19.52L379.74,23.01L375.19,29.35L379.95,33.21L380.50,40.66L383.56,42.53L381.02,54.97L386.11,57.08L387.48,74.36L391.43,81.57L386.22,89.39L384.11,100.21L373.70,113.53L357.17,123.91L353.94,123.52L346.91,130.01L349.56,142.83L346.76,144.02L347.60,148.38L345.75,148.38L349.56,152.81L346.76,157.17L348.54,159.35L345.75,162.62L346.72,166.16L344.82,166.86L346.97,170.82Z"><title>HaZafon</title></path>
<path data-code="IL-HA" data-name="Haifa" d="M299.32,145.78L279.48,158.33L275.18,171.22L268.35,167.51L252.76,167.19L264.69,99.18L274.49,100.42L280.99,89.83L284.48,93.14L284.59,96.55L290.12,99.54L291.76,108.16L288.70,119.20L285.30,119.40L285.42,125.27L280.94,130.36L276.62,129.78L275.58,132.01L277.47,135.00L274.11,135.27L278.06,140.86L277.80,143.83L281.91,146.96L287.40,147.61L294.11,140.79L299.32,145.78Z"><title>Haifa</title></path>
<path data-code="IL-M" data-name="HaMerkaz" d="M275.18,171.22L273.66,177.21L270.26,180.65L269.36,187.75L272.00,189.47L271.76,193.18L265.05,202.41L271.71,228.80L268.92,237.33L276.03,246.67L275.39,254.24L260.04,257.49L256.44,262.48L241.72,269.42L238.99,263.76L235.16,261.72L231.79,262.88L233.66,265.31L230.75,267.15L226.38,266.15L228.66,262.66L226.49,259.27L230.39,258.89L231.49,253.21L225.33,252.20L234.56,229.99L243.61,232.42L248.32,228.77L255.01,228.07L249.48,218.72L252.34,205.00L244.15,201.44L252.76,167.19L268.35,167.51L275.18,171.22Z"><title>HaMerkaz</title></path>
<path data-code="IL-JM" data-name="Jerusalem" d="M296.03,262.58L295.68,259.97L300.05,260.77L298.63,251.67L300.90,251.36L302.44,257.19L306.74,259.79L305.07,268.81L306.45,272.16L303.68,278.18L287.82,274.63L264.37,294.51L253.46,286.42L253.42,271.61L247.32,265.25L255.60,262.97L260.04,257.49L266.82,255.22L270.53,255.40L267.66,258.66L270.94,259.43L281.10,255.35L286.02,260.16L296.03,262.58Z"><title>Jerusalem</title></path>
<path data-code="IL-TA" data-name="Tel Aviv" d="M234.56,229.99L244.15,201.44L252.05,204.58L252.53,209.93L249.48,218.72L255.01,228.07L248.32,228.77L243.61,232.42L234.56,229.99Z"><title>Tel Aviv</title></path>
  </g>
</svg>
