<?xml version="1.0" encoding="UTF-8"?>
<svg xmlns="http://www.w3.org/2000/svg" viewBox="0 0 560 640" class="pref-muni-svg" role="img" aria-label="行政区分">
  <g class="pref-muni-svg__paths" fill="#eaf2fb" stroke="#5b7fa8" stroke-width="0.6" stroke-linejoin="round">
<path data-code="01" data-name="Piemonte" d="M60.01,105.06L58.93,102.49L62.02,98.42L58.56,95.57L59.94,92.38L60.31,94.41L63.51,94.80L65.41,92.42L69.76,92.30L74.30,88.74L77.42,88.28L79.14,89.83L84.15,90.50L87.99,87.99L90.95,88.28L90.81,87.16L92.51,85.48L91.11,83.27L92.40,81.13L89.40,77.48L90.03,67.72L91.27,66.44L94.51,66.48L96.36,63.96L96.31,60.94L101.04,58.68L101.65,56.48L98.21,52.25L100.53,50.05L103.18,49.91L105.62,46.71L107.60,46.00L107.11,43.71L113.03,41.34L113.92,46.65L112.26,50.22L113.42,52.10L112.89,52.82L116.51,54.55L119.71,59.73L123.88,61.01L124.45,64.72L118.05,71.67L119.04,75.25L117.44,78.41L118.98,80.81L121.40,81.69L120.89,83.69L122.52,83.72L122.80,85.84L121.62,85.80L123.41,87.83L123.81,92.13L126.82,93.96L129.06,98.93L124.05,99.78L125.81,101.37L122.90,104.39L121.93,104.40L120.40,101.30L117.28,100.68L116.26,101.69L116.72,103.05L115.12,104.40L116.61,105.18L116.95,106.50L116.10,106.72L117.46,107.14L116.37,107.24L117.13,109.15L116.18,109.46L118.34,108.94L116.93,110.83L119.68,113.48L121.63,119.17L123.69,118.07L126.19,119.77L128.29,117.63L131.30,117.41L131.80,120.38L133.83,120.82L135.41,125.02L137.68,126.12L138.25,127.42L137.40,128.22L138.36,129.99L141.93,130.11L142.37,132.43L144.06,133.47L143.71,141.75L140.89,143.05L138.49,140.40L137.20,140.90L136.01,138.12L132.63,137.57L130.67,139.59L132.08,143.77L128.41,143.73L126.62,147.69L123.85,142.67L120.20,142.41L118.27,146.56L114.00,145.85L113.15,147.20L111.90,146.34L109.51,148.94L105.19,145.51L102.94,148.27L103.94,150.85L103.19,152.18L101.01,153.26L100.82,155.36L99.27,156.08L99.09,157.78L97.38,157.79L98.63,159.18L97.51,160.35L98.24,161.06L97.61,162.30L98.89,164.36L97.72,166.17L95.44,165.59L94.14,166.53L95.45,167.47L95.24,168.46L90.27,168.35L85.36,166.40L83.80,167.31L84.12,169.44L85.23,169.44L83.92,170.74L81.47,166.95L81.75,164.43L80.24,164.45L79.48,165.91L71.83,166.96L71.63,167.88L68.91,167.70L68.28,166.10L65.78,166.37L61.98,163.18L54.80,161.27L54.33,158.90L49.94,154.49L50.16,151.35L52.41,150.84L49.49,148.06L48.64,145.32L51.77,143.13L53.18,140.64L52.38,138.79L52.99,137.49L57.38,137.37L57.47,136.51L54.51,131.50L55.47,129.65L54.75,128.75L51.73,127.49L48.96,128.17L44.42,125.19L45.02,122.20L43.88,120.63L44.22,119.39L41.30,119.06L40.84,116.29L39.40,114.57L45.16,111.53L48.37,113.28L50.23,112.73L50.19,111.04L52.38,110.96L53.12,108.95L57.86,108.49L60.04,106.38L60.01,105.06ZM96.90,114.33L96.13,112.99L94.16,113.47L96.90,114.33Z"><title>Piemonte</title></path>
<path data-code="02" data-name="Valle d'Aosta/Vallée d'Aoste" d="M84.22,70.40L85.00,69.54L89.46,70.79L89.40,77.48L92.40,81.13L91.11,83.27L92.51,85.48L90.81,87.16L90.95,88.28L87.99,87.99L84.15,90.50L79.14,89.83L77.42,88.28L74.30,88.74L69.76,92.30L65.41,92.42L63.51,94.80L60.30,94.40L60.07,92.34L58.72,94.99L56.44,94.70L56.65,93.48L54.49,92.97L53.61,88.43L54.53,85.66L51.07,85.00L50.57,83.51L48.60,83.15L46.78,81.09L47.16,75.11L52.10,74.53L54.41,73.15L55.83,70.52L58.61,73.88L60.83,72.79L62.20,73.91L66.36,70.53L70.11,71.82L77.62,66.96L81.35,67.61L84.22,70.40Z"><title>Valle d'Aosta/Vallée d'Aoste</title></path>
<path data-code="03" data-name="Lombardia" d="M118.41,79.66L117.31,77.70L119.04,75.25L118.05,71.67L124.35,65.32L123.51,61.71L125.01,59.71L129.43,62.23L126.76,66.88L131.14,68.53L133.22,73.44L131.88,75.43L133.38,74.72L136.79,75.84L139.01,71.64L136.20,70.14L134.97,67.88L136.56,66.63L135.78,64.30L138.57,62.77L138.32,59.86L142.81,57.11L144.37,53.91L145.44,53.71L147.56,48.71L146.77,44.09L145.43,42.80L146.84,39.55L150.17,38.95L152.02,41.17L154.03,39.01L154.10,46.03L157.65,50.01L163.86,50.64L165.25,47.41L166.88,48.26L173.96,45.86L175.73,47.40L175.10,48.87L175.70,50.92L178.12,52.13L177.80,53.98L180.87,54.24L183.01,52.40L180.24,47.37L182.62,44.34L177.52,42.38L177.64,37.33L179.97,34.91L180.01,33.41L185.60,32.10L186.33,33.45L185.75,35.15L187.84,36.66L192.84,36.62L195.14,39.61L198.21,39.83L201.04,42.17L201.39,44.62L200.46,45.86L196.75,47.64L198.76,48.72L199.33,50.20L198.52,51.05L199.58,53.08L197.78,56.14L198.75,57.31L198.11,59.97L195.34,63.26L195.49,64.97L194.20,66.85L196.45,70.41L195.71,72.50L196.22,75.46L197.87,76.11L197.43,77.70L201.83,76.96L202.36,75.30L204.18,74.82L209.87,75.30L201.31,87.72L202.09,95.99L201.11,96.25L202.15,96.40L201.93,97.64L204.98,98.28L203.66,101.71L204.81,102.15L204.46,103.11L205.43,103.13L205.71,104.67L207.55,103.15L210.13,106.32L213.78,107.59L213.71,108.60L216.22,110.07L216.12,112.04L218.37,112.06L217.49,113.31L218.07,114.12L220.29,115.01L222.24,113.35L224.57,114.12L223.52,114.89L223.43,116.90L227.10,117.11L227.42,119.15L233.60,122.82L228.54,122.16L227.35,123.46L222.50,123.73L219.31,122.13L211.90,124.85L205.97,122.88L205.31,120.57L203.99,122.19L203.66,120.86L201.28,124.22L196.91,124.84L193.51,123.20L192.29,120.97L190.38,121.99L184.42,118.30L182.26,117.76L180.18,118.94L179.21,117.63L177.91,117.91L175.29,112.95L172.58,114.77L172.75,112.82L171.07,113.30L171.70,115.80L169.34,114.99L168.75,117.30L166.07,114.08L165.75,115.95L164.35,117.00L161.11,115.61L160.88,113.03L159.19,114.77L157.62,112.99L157.00,115.89L155.62,114.54L152.04,115.68L148.44,123.15L146.95,123.81L146.64,125.76L149.24,127.15L150.11,129.70L147.03,132.39L148.88,134.40L147.90,135.99L148.55,136.83L145.92,137.37L144.93,135.41L145.01,137.09L143.52,137.02L144.06,133.47L142.37,132.43L141.93,130.11L138.36,129.99L137.40,128.22L138.25,127.42L137.68,126.12L135.41,125.02L133.83,120.82L131.80,120.38L130.86,116.92L127.17,118.21L126.19,119.77L123.69,118.07L121.63,119.17L119.68,113.48L116.93,110.83L118.34,108.94L116.18,109.46L117.13,109.15L116.37,107.24L117.46,107.14L116.10,106.72L116.95,106.50L116.61,105.18L115.12,104.40L116.72,103.05L116.26,101.69L117.28,100.68L120.40,101.30L121.93,104.40L122.90,104.39L125.81,101.37L124.05,99.78L129.06,98.93L126.82,93.96L123.81,92.13L123.41,87.83L121.62,85.80L122.80,85.84L122.52,83.72L120.89,83.71L121.33,81.58L118.41,79.66Z"><title>Lombardia</title></path>
<path data-code="04" data-name="Trentino-Alto Adige/Südtirol" d="M257.36,36.63L249.33,39.35L249.25,40.56L251.83,40.89L252.31,42.45L250.74,42.91L250.14,46.57L247.67,47.00L249.99,48.78L250.24,51.74L252.15,51.28L252.43,52.69L253.93,52.89L253.14,54.21L255.28,55.54L254.81,57.12L253.91,56.83L252.25,59.90L244.06,61.25L244.92,63.82L243.31,64.26L244.25,66.89L243.58,68.21L240.11,67.96L239.69,65.94L237.00,65.65L234.41,67.32L231.46,67.18L231.74,69.38L230.83,69.33L230.47,71.16L229.00,70.07L226.79,70.56L226.02,74.05L223.98,76.33L224.54,77.96L223.36,77.78L223.56,80.40L221.73,82.77L216.80,81.43L213.81,83.88L211.87,81.63L210.02,81.44L211.79,76.43L209.29,75.03L202.36,75.30L201.93,76.90L198.59,77.93L197.43,77.70L197.86,76.07L196.20,75.43L195.71,72.37L196.45,70.41L194.21,66.83L195.49,64.97L195.34,63.26L198.11,59.97L198.75,57.31L197.78,56.14L199.58,53.08L198.52,51.05L199.33,50.20L198.76,48.72L196.75,47.67L201.39,44.62L200.17,41.06L194.41,38.80L195.80,33.17L191.83,31.04L191.55,29.29L192.80,27.64L192.08,26.83L193.76,25.76L193.06,23.82L194.95,20.21L198.16,21.11L202.90,19.13L206.76,21.96L205.43,23.87L217.23,25.09L217.95,22.94L219.71,22.02L219.23,20.37L220.22,17.17L223.02,15.64L222.99,14.30L229.26,12.86L232.56,14.32L235.73,11.86L238.11,13.30L241.71,11.77L246.57,14.12L255.92,9.77L265.94,8.00L266.51,8.79L265.08,10.95L261.69,12.09L262.12,14.44L263.60,15.79L262.63,17.08L264.49,17.50L265.54,19.24L267.88,18.67L269.21,21.01L268.28,24.14L271.26,24.58L272.32,27.71L276.12,29.69L272.16,31.67L272.38,32.76L267.37,32.42L264.57,34.28L264.66,32.94L259.56,29.94L259.80,31.69L257.36,36.63Z"><title>Trentino-Alto Adige/Südtirol</title></path>
<path data-code="05" data-name="Veneto" d="M201.59,91.31L201.41,87.32L209.87,75.30L211.79,76.43L210.02,81.44L211.87,81.63L213.81,83.88L217.01,81.40L221.30,83.03L223.56,80.40L223.36,77.78L224.54,77.96L223.98,76.33L226.02,74.05L226.79,70.56L229.00,70.07L230.47,71.16L230.83,69.33L231.74,69.38L231.46,67.18L234.41,67.32L237.00,65.65L239.69,65.94L240.11,67.96L243.58,68.21L244.25,66.89L243.31,64.26L244.92,63.82L244.06,61.25L252.48,59.77L255.28,55.54L253.14,54.21L253.93,52.89L252.43,52.69L252.15,51.28L250.24,51.74L249.99,48.78L247.67,47.00L250.14,46.57L250.74,42.91L252.31,42.45L251.83,40.89L249.13,40.18L250.78,38.41L255.43,36.96L256.73,37.60L258.69,34.81L259.56,29.94L264.66,32.94L264.57,34.28L267.37,32.42L272.38,32.76L272.16,31.67L276.12,29.69L286.41,32.16L281.89,37.01L283.59,41.09L278.27,41.26L276.97,44.10L275.21,45.20L275.53,46.41L271.15,49.08L269.85,51.59L270.48,53.43L274.86,55.10L274.89,56.62L276.86,58.08L276.40,60.67L272.94,64.06L274.12,66.52L273.88,68.66L277.27,70.45L279.21,75.48L282.34,75.45L283.87,77.55L288.35,74.13L289.51,75.97L291.64,74.33L294.40,76.13L295.69,74.54L296.98,76.25L296.20,76.70L297.74,79.08L297.59,81.10L298.44,80.50L299.82,84.77L301.39,85.57L293.55,87.05L274.07,97.63L272.96,96.99L271.37,98.81L268.77,106.97L270.34,111.32L270.44,115.32L279.21,122.00L275.61,128.55L272.85,131.41L270.57,128.21L268.70,127.66L268.20,123.30L262.56,124.02L261.37,122.27L258.72,121.38L248.90,121.38L241.41,126.16L237.95,123.57L233.63,123.93L233.41,122.08L227.42,119.15L227.10,117.11L223.43,116.90L223.52,114.89L224.57,114.12L222.26,113.35L219.29,114.82L217.50,113.51L218.34,112.02L216.12,112.04L216.22,110.07L213.71,108.60L213.78,107.59L210.13,106.32L207.55,103.15L205.35,104.45L205.43,103.13L204.46,103.11L204.81,102.15L203.62,101.09L204.79,100.33L204.11,99.67L204.84,97.70L201.93,97.64L202.15,96.40L201.11,96.25L202.09,95.99L201.59,91.31Z"><title>Veneto</title></path>
<path data-code="06" data-name="Friuli-Venezia Giulia" d="M318.17,45.67L315.02,46.90L315.02,48.94L312.45,50.23L314.35,53.67L313.83,54.78L318.66,54.51L320.19,56.29L324.13,57.09L321.36,60.68L317.34,63.14L317.79,64.49L316.52,65.96L319.14,68.18L321.12,66.85L323.27,67.21L323.05,69.77L320.50,74.74L321.66,76.83L324.34,77.08L329.47,80.15L331.97,84.29L334.43,86.02L331.70,88.64L326.50,88.11L329.98,87.47L327.37,85.72L328.37,84.98L327.73,83.50L324.65,80.46L318.84,76.81L319.39,77.83L318.15,80.06L319.60,81.18L313.01,83.78L307.20,81.40L304.77,81.84L301.33,85.49L299.82,84.77L298.44,80.50L297.59,81.10L297.74,79.08L296.20,76.70L296.98,76.25L295.69,74.54L294.40,76.13L291.64,74.33L289.51,75.97L288.35,74.13L283.89,77.56L281.30,75.00L280.82,76.24L279.43,75.66L277.27,70.45L274.03,69.13L274.12,66.52L272.94,64.06L276.40,60.67L276.86,58.08L274.89,56.62L274.86,55.10L273.23,55.13L273.05,53.96L271.36,53.96L269.79,52.05L271.15,49.08L275.53,46.41L275.21,45.20L276.97,44.10L278.27,41.26L283.59,41.09L282.29,39.33L282.23,36.11L287.53,31.42L290.41,32.34L291.07,33.67L300.68,33.89L306.66,36.48L310.21,36.52L312.34,35.10L326.14,38.13L325.12,42.61L321.43,42.64L320.19,44.81L318.17,45.67Z"><title>Friuli-Venezia Giulia</title></path>
<path data-code="07" data-name="Liguria" d="M76.82,179.67L77.52,176.87L80.89,175.41L81.33,172.43L85.21,169.46L83.71,168.71L83.95,167.13L85.86,166.44L90.27,168.35L95.15,168.47L94.37,166.29L97.84,166.07L98.89,164.34L97.51,160.35L98.63,159.18L97.38,157.79L99.09,157.78L99.27,156.08L100.82,155.36L101.01,153.26L103.38,151.89L103.92,150.67L102.94,148.27L104.00,147.83L104.10,146.23L105.19,145.51L109.51,148.94L111.90,146.34L113.15,147.20L114.00,145.85L118.27,146.56L120.20,142.41L124.13,142.76L126.62,147.69L128.41,143.73L132.08,143.77L130.67,139.59L132.63,137.57L136.01,138.12L137.20,140.90L138.49,140.40L140.99,143.08L145.32,140.61L145.38,141.71L147.57,141.26L150.84,142.93L151.83,141.63L152.54,143.04L155.01,143.70L155.84,145.45L155.52,147.99L154.39,148.03L153.16,151.44L159.70,150.46L161.92,151.80L162.73,154.34L164.00,154.26L166.39,157.59L169.92,159.43L170.84,161.92L170.42,164.25L172.18,162.69L173.21,163.39L171.55,165.02L174.83,164.99L175.21,168.66L176.77,167.54L178.75,168.94L174.97,172.07L169.21,168.09L168.23,168.50L169.70,170.68L169.11,171.28L162.42,166.28L161.13,166.79L155.17,161.11L151.73,160.24L150.67,158.34L144.90,155.22L144.22,157.91L141.58,156.91L141.09,154.54L133.48,152.91L132.35,151.68L132.04,152.52L125.05,150.99L113.21,158.48L113.42,160.07L111.79,162.07L112.15,163.48L105.85,166.48L104.11,171.61L101.56,174.38L101.99,176.42L97.84,179.88L81.74,186.04L75.93,185.60L74.56,181.47L76.82,179.67Z"><title>Liguria</title></path>
<path data-code="08" data-name="Emilia-Romagna" d="M148.88,134.40L147.03,132.39L150.11,129.70L149.24,127.15L146.64,125.76L146.95,123.81L148.44,123.15L152.04,115.68L155.62,114.54L157.00,115.89L157.62,112.99L159.19,114.77L160.88,113.03L161.11,115.61L164.35,117.00L165.75,115.95L166.07,114.08L168.75,117.30L169.34,114.99L171.70,115.80L171.07,113.30L172.75,112.82L172.58,114.77L175.29,112.95L177.91,117.91L179.21,117.63L179.64,118.86L184.42,118.30L190.25,121.96L192.39,121.01L193.59,123.26L198.82,125.07L205.31,120.57L205.97,122.88L211.90,124.85L216.24,122.55L219.31,122.13L222.50,123.73L227.35,123.46L228.54,122.16L233.59,122.72L233.71,123.96L237.95,123.57L241.32,126.17L248.97,121.37L258.72,121.38L261.37,122.27L262.56,124.02L267.97,123.19L268.70,127.66L270.57,128.21L272.90,131.29L269.63,131.41L272.48,131.46L268.43,128.63L267.23,130.09L268.37,129.98L266.54,135.73L268.20,142.01L268.50,149.05L271.25,159.41L277.89,168.54L287.32,175.87L286.25,178.06L286.49,180.97L284.40,181.91L284.04,183.46L282.24,183.62L280.65,180.14L278.71,181.30L277.00,180.79L277.41,174.45L273.17,176.37L273.32,179.21L274.75,179.10L275.32,180.44L273.17,180.64L272.74,183.60L268.32,185.03L268.28,186.64L265.26,187.06L264.67,188.42L263.42,186.78L259.91,187.95L256.25,186.80L253.14,184.07L250.39,184.32L245.07,180.58L245.35,178.19L242.46,174.53L246.79,167.44L239.99,167.94L241.23,165.46L237.22,165.50L233.37,161.10L227.69,165.62L224.26,165.83L226.87,167.74L226.37,168.73L222.78,167.93L218.34,169.12L216.42,168.01L216.62,166.52L212.70,170.61L211.97,169.00L206.40,165.68L201.93,165.36L201.13,167.50L199.88,167.77L197.12,165.57L195.49,161.98L188.30,158.67L186.15,159.52L181.80,155.02L179.85,155.34L176.29,153.03L175.45,152.21L176.05,150.43L174.67,148.97L168.59,148.87L166.19,152.98L162.73,154.34L161.93,151.82L159.76,150.46L153.16,151.44L154.39,148.03L155.52,147.99L155.28,143.88L152.54,143.04L151.83,141.63L149.30,142.88L147.57,141.26L143.53,140.85L143.52,137.02L145.01,137.09L144.93,135.41L145.92,137.37L148.55,136.83L147.90,135.99L148.88,134.40ZM263.94,184.18L264.33,186.14L266.40,185.45L266.09,184.28L263.94,184.18Z"><title>Emilia-Romagna</title></path>
<path data-code="09" data-name="Toscana" d="M171.75,165.17L173.21,163.39L171.72,162.68L170.42,164.25L170.84,161.92L169.92,159.43L163.20,154.28L166.19,152.98L168.59,148.87L174.69,148.97L176.05,150.43L175.45,152.21L176.29,153.03L179.85,155.34L181.80,155.02L186.15,159.52L188.30,158.67L195.49,161.98L197.12,165.57L199.85,167.76L201.13,167.50L201.82,165.37L205.98,165.57L211.97,169.00L212.48,170.58L216.62,166.52L216.42,168.01L218.34,169.12L222.78,167.93L226.37,168.73L226.87,167.74L224.26,165.83L227.69,165.62L233.37,161.10L237.22,165.50L241.23,165.46L239.99,167.94L246.79,167.44L242.46,174.53L245.35,178.19L245.07,180.58L245.95,181.34L259.65,187.94L263.42,186.78L264.67,188.42L265.26,187.06L268.28,186.64L271.82,189.65L270.17,189.71L270.39,191.34L269.57,191.32L269.27,188.51L268.82,190.89L264.33,193.23L265.45,194.93L263.00,199.36L260.47,200.30L262.59,202.50L257.82,205.45L259.92,206.17L259.91,208.13L261.85,208.55L262.16,212.05L263.96,212.65L264.64,210.97L265.85,211.90L260.53,215.12L258.17,214.54L257.77,217.69L253.76,219.79L253.71,223.81L256.08,225.08L254.07,232.75L255.12,234.77L249.29,237.34L248.98,238.87L247.73,237.48L246.82,238.47L246.52,239.36L249.46,241.51L247.94,243.69L249.08,246.51L246.67,247.23L246.11,249.00L242.37,251.18L239.75,251.18L239.04,253.82L241.27,255.37L241.33,258.19L236.12,258.01L234.54,261.34L226.15,259.15L224.84,259.66L224.02,262.09L222.53,262.23L220.30,260.50L219.97,258.74L220.58,257.57L223.38,257.66L224.11,254.71L223.54,252.61L221.28,251.45L219.79,247.92L216.74,246.18L214.38,241.99L205.59,238.52L207.16,236.87L207.14,232.68L201.98,230.35L198.58,230.47L197.87,232.09L195.92,231.50L195.42,228.45L196.76,227.88L197.60,223.19L197.24,215.27L193.07,206.38L189.25,202.31L187.84,198.68L188.82,196.36L187.88,197.55L185.55,180.91L181.44,175.03L176.64,171.59L178.75,168.97L178.23,168.16L176.60,167.56L175.61,168.99L174.83,164.99L171.75,165.17ZM179.86,249.96L179.43,251.09L177.72,250.36L179.10,248.32L179.86,249.96ZM186.62,241.57L185.51,241.38L185.46,242.58L181.50,242.22L180.06,239.33L183.40,237.93L185.66,239.27L186.78,238.41L186.53,236.97L189.86,238.78L192.37,234.75L193.83,236.04L193.45,239.91L191.48,240.78L193.39,242.10L193.29,243.34L191.36,243.17L189.82,240.54L188.75,240.75L188.81,242.04L188.36,240.78L187.49,242.06L186.62,241.57ZM169.22,225.18L169.48,226.22L167.84,227.45L167.79,224.93L168.82,223.90L169.22,225.18ZM189.23,264.32L187.76,264.58L187.72,263.13L188.59,262.79L189.23,264.32ZM264.86,186.35L263.71,184.33L266.24,184.40L266.40,185.45L264.86,186.35ZM211.75,260.69L213.29,262.54L213.15,264.46L210.94,262.59L211.75,260.69Z"><title>Toscana</title></path>
<path data-code="10" data-name="Umbria" d="M303.67,246.44L302.04,246.26L299.82,248.11L298.24,247.26L297.43,248.54L292.42,248.86L292.92,251.33L285.57,254.71L286.80,256.33L284.09,257.85L281.92,256.45L281.32,259.94L278.08,262.06L277.48,259.94L275.06,260.34L275.55,258.57L273.53,258.75L273.85,255.15L271.01,256.17L268.55,255.20L269.23,254.89L267.91,254.25L268.54,253.72L267.59,252.95L267.92,251.52L266.45,250.86L266.62,247.80L265.06,246.11L263.31,245.22L261.82,246.71L261.11,245.88L258.01,247.04L254.42,244.88L253.97,243.28L255.97,240.50L253.86,239.62L252.42,236.29L255.12,234.77L254.07,232.75L256.09,225.10L255.06,224.13L254.21,224.81L253.25,220.91L257.77,217.69L258.17,214.54L260.53,215.12L265.85,211.90L264.64,210.97L263.96,212.65L262.16,212.05L261.71,208.35L259.85,208.06L259.72,206.04L258.07,206.23L258.10,205.01L262.59,202.50L260.54,200.85L260.67,199.66L263.00,199.36L265.45,194.93L268.92,196.28L271.20,194.59L271.91,196.36L269.45,198.52L270.28,199.63L271.63,199.07L272.77,200.43L274.49,198.83L275.38,200.02L277.02,199.75L281.86,205.40L283.63,204.30L285.48,204.96L286.56,202.86L288.00,203.20L288.34,205.52L287.10,207.43L289.11,210.32L288.72,212.58L291.81,216.73L291.69,218.89L290.36,219.99L293.10,222.79L293.04,229.73L296.31,231.81L296.29,234.84L297.29,232.76L299.46,232.12L303.76,236.88L306.77,234.95L307.28,235.90L307.94,238.09L307.19,240.33L305.11,240.83L303.67,246.44Z"><title>Umbria</title></path>
<path data-code="11" data-name="Marche" d="M277.06,199.85L274.49,198.83L272.77,200.43L271.63,199.07L270.28,199.63L269.46,198.51L271.78,196.63L271.82,194.92L267.26,196.10L264.42,193.67L266.71,191.13L268.82,190.89L269.27,188.51L269.57,191.32L270.39,191.34L270.17,189.71L271.82,189.65L268.26,186.73L268.32,185.04L272.49,183.85L273.14,180.66L274.83,180.94L276.12,179.53L278.71,181.30L280.65,180.14L282.01,183.61L284.02,183.48L284.40,181.91L286.49,180.97L287.17,175.67L293.51,178.13L308.83,191.26L315.62,194.95L317.76,193.88L322.56,198.19L322.48,200.78L330.18,218.73L334.35,233.50L326.49,235.61L324.10,238.21L318.88,237.70L317.22,242.01L315.38,242.24L314.96,244.02L313.14,244.66L308.84,241.80L307.54,242.82L304.85,242.17L306.04,240.11L307.02,240.60L307.94,238.15L306.80,234.97L303.76,236.88L299.46,232.12L297.29,232.76L296.29,234.84L296.31,231.81L293.04,229.73L293.10,222.79L290.36,219.99L291.69,218.89L291.81,216.73L288.72,212.58L289.11,210.32L287.10,207.43L288.34,205.52L288.07,203.31L286.56,202.86L285.48,204.96L283.63,204.30L281.86,205.40L277.06,199.85Z"><title>Marche</title></path>
<path data-code="12" data-name="Lazio" d="M249.15,238.22L250.75,236.51L252.82,236.89L253.86,239.62L256.07,241.03L253.81,243.77L258.01,247.04L261.11,245.88L261.82,246.71L263.31,245.22L265.06,246.11L266.62,247.80L266.45,250.86L267.92,251.52L267.59,252.95L268.54,253.72L267.91,254.25L269.23,254.89L268.55,255.20L271.01,256.17L273.85,255.15L273.53,258.75L275.55,258.57L275.06,260.34L277.48,259.94L278.08,262.06L281.32,259.94L281.92,256.45L284.09,257.85L286.80,256.33L285.57,254.71L292.92,251.33L292.79,248.64L294.43,249.21L297.71,248.44L298.24,247.26L299.63,248.13L302.04,246.26L303.14,246.88L304.30,245.80L304.91,242.17L310.16,242.76L311.73,244.30L312.22,246.73L313.77,247.06L313.20,249.83L309.12,251.00L305.00,250.04L303.56,252.59L304.47,255.86L301.96,257.77L305.11,260.71L303.46,262.45L306.42,264.48L306.75,266.71L308.64,268.87L312.63,271.95L307.32,274.81L300.78,272.09L300.69,274.01L298.50,275.10L298.33,278.98L299.88,281.00L301.34,281.24L301.50,280.27L312.00,285.72L312.79,286.83L311.81,288.70L312.61,291.50L314.12,290.57L320.39,294.90L324.08,291.83L325.80,293.11L326.77,292.50L328.24,295.20L334.45,296.86L337.24,300.31L338.16,302.80L337.67,304.58L338.77,305.61L337.93,306.51L338.83,307.30L336.62,308.91L337.42,309.56L336.82,310.61L332.10,313.03L333.11,314.81L332.49,316.29L333.25,319.50L330.77,320.38L330.98,321.94L328.09,323.53L325.85,321.84L322.38,321.48L320.47,322.58L321.18,324.25L320.54,324.53L309.05,319.50L303.88,320.84L300.02,323.58L298.88,323.08L296.46,317.44L293.34,314.47L287.77,313.43L283.87,310.94L281.98,311.57L274.48,301.01L265.91,295.41L265.03,290.84L262.50,286.19L253.39,279.55L250.04,280.01L243.19,267.18L234.59,261.36L236.12,258.01L241.33,258.19L241.27,255.37L239.04,253.82L239.83,251.09L242.37,251.18L246.11,249.00L246.67,247.23L248.90,246.99L247.94,243.69L249.46,241.51L246.52,239.36L247.43,237.52L249.15,238.22Z"><title>Lazio</title></path>
<path data-code="13" data-name="Abruzzo" d="M335.33,298.47L333.33,295.93L328.24,295.20L326.77,292.50L323.46,291.85L320.39,294.90L314.12,290.57L312.61,291.50L311.81,288.70L312.79,286.83L312.03,285.76L301.50,280.27L301.34,281.24L299.88,281.00L298.00,277.64L298.50,275.10L300.69,274.01L300.78,272.09L307.32,274.81L312.63,271.95L308.64,268.87L306.75,266.71L306.42,264.48L303.46,262.45L305.11,260.71L301.96,257.77L304.47,255.86L303.56,252.59L305.00,250.04L312.70,250.39L313.83,247.26L311.40,245.66L311.77,244.20L314.94,244.04L315.38,242.24L317.22,242.01L318.88,237.70L324.10,238.21L325.84,235.94L332.85,233.48L334.47,233.62L337.55,243.53L342.72,252.08L348.23,257.93L353.52,261.58L358.33,268.13L366.51,272.10L366.78,275.98L369.25,277.91L368.50,279.40L369.39,279.85L367.01,281.65L360.69,291.46L357.52,294.54L356.11,294.41L355.61,290.22L352.95,288.14L351.59,289.07L349.21,286.47L343.67,290.97L345.88,294.22L345.57,295.23L344.67,294.28L342.65,295.32L342.05,297.43L341.53,295.78L340.53,295.82L338.47,298.79L335.33,298.47Z"><title>Abruzzo</title></path>
<path data-code="14" data-name="Molise" d="M354.68,312.08L347.45,308.74L344.75,308.55L344.38,309.73L342.68,308.20L340.88,311.44L342.31,314.59L339.43,314.37L336.61,308.95L338.83,307.34L337.93,306.51L338.77,305.61L337.67,304.56L338.16,302.80L335.33,298.47L338.47,298.79L340.53,295.82L341.53,295.78L342.05,297.43L342.65,295.32L344.67,294.28L345.57,295.23L345.88,294.22L343.67,290.97L349.21,286.47L351.59,289.07L352.95,288.14L355.61,290.22L356.11,294.41L357.52,294.54L360.69,291.46L367.01,281.65L369.28,280.07L368.50,279.40L369.25,277.91L377.91,281.41L383.76,285.62L382.10,294.19L383.06,296.73L384.71,297.32L380.21,300.12L379.20,302.01L376.54,300.73L375.51,302.12L376.16,303.60L375.63,307.11L378.48,309.33L372.37,312.64L369.47,311.17L368.65,313.04L365.45,313.37L362.11,315.92L360.63,314.40L358.15,314.92L357.03,312.96L354.68,312.08Z"><title>Molise</title></path>
<path data-code="15" data-name="Campania" d="M342.78,308.20L344.38,309.73L344.75,308.55L349.01,309.33L350.95,311.10L357.03,312.96L358.15,314.92L360.63,314.40L362.11,315.92L365.45,313.37L368.65,313.04L369.47,311.17L372.37,312.64L378.48,309.33L380.07,311.64L382.25,312.38L382.15,314.48L380.54,315.48L381.09,317.61L383.46,318.44L384.21,320.41L386.29,320.10L389.33,322.08L388.12,322.86L388.79,324.87L386.64,326.49L388.87,329.84L393.01,330.95L394.41,329.81L400.29,332.67L401.33,335.70L399.50,340.48L397.09,341.46L396.82,342.67L392.50,341.83L393.45,344.32L391.73,344.41L393.88,346.53L393.61,350.37L398.55,353.62L396.36,356.56L399.99,358.77L399.97,363.08L406.90,369.04L407.58,372.37L410.80,374.65L410.37,377.41L407.76,378.63L406.54,380.71L406.73,383.02L404.54,385.11L405.53,386.40L404.28,387.05L403.48,385.37L399.64,385.38L395.13,389.87L390.91,387.64L389.13,388.12L389.15,385.36L383.52,380.13L379.79,380.18L377.80,377.57L374.49,376.25L375.89,374.51L375.94,371.29L378.06,370.14L378.13,368.38L373.86,358.85L369.92,353.77L367.96,352.86L365.70,355.21L363.00,354.47L360.86,356.44L357.39,355.57L350.84,358.72L351.45,355.53L353.89,355.01L357.10,351.89L356.16,349.09L353.72,348.47L348.80,343.88L345.29,346.70L341.96,344.58L340.61,345.26L341.33,347.48L339.40,346.76L339.56,342.97L338.40,339.45L331.07,326.75L328.09,323.53L330.98,321.94L330.77,320.38L333.25,319.50L332.49,316.29L333.11,314.81L332.12,313.00L336.32,310.53L338.00,311.18L337.74,312.31L339.43,314.37L342.22,314.71L340.88,311.44L342.78,308.20ZM347.06,360.19L345.72,360.46L345.73,359.24L348.49,359.39L347.06,360.19ZM335.86,351.28L332.11,351.49L332.13,348.58L335.85,349.41L335.86,351.28Z"><title>Campania</title></path>
<path data-code="16" data-name="Puglia" d="M382.15,314.48L382.17,312.16L380.07,311.64L375.69,307.24L375.51,302.12L376.54,300.73L379.20,302.01L380.21,300.12L384.71,297.32L383.06,296.73L382.10,294.19L383.76,285.62L394.60,287.02L422.02,284.84L425.77,287.87L426.55,292.85L420.04,299.05L414.72,302.22L414.66,306.46L416.88,310.65L442.19,324.31L461.40,331.37L470.38,337.04L478.45,344.69L487.70,348.54L493.02,352.14L498.90,353.63L496.60,354.90L499.49,354.41L502.82,361.07L509.03,365.21L516.66,373.52L520.60,383.59L516.07,390.55L515.36,399.18L514.48,400.46L507.83,398.05L503.03,394.71L499.83,390.53L499.27,389.36L500.14,389.22L500.25,387.64L498.42,386.42L499.74,385.50L499.95,383.49L496.65,379.61L495.79,375.74L493.95,374.09L486.54,372.95L479.63,373.48L467.32,367.38L469.40,365.61L469.07,364.48L463.66,361.37L458.90,362.71L453.05,367.76L451.11,364.73L447.77,363.52L448.45,362.02L447.17,359.47L448.10,356.98L447.35,355.28L448.05,352.29L446.81,351.53L447.96,350.92L445.47,349.04L441.94,348.25L441.79,349.68L440.31,348.87L440.42,350.32L438.90,348.31L436.05,351.41L434.82,351.27L429.00,345.04L426.82,339.96L425.23,339.36L423.53,341.02L417.69,337.75L419.73,335.99L420.28,333.56L416.75,329.55L413.38,327.98L410.16,330.79L401.87,330.22L400.09,332.52L394.21,329.76L393.02,330.95L389.98,330.48L386.61,327.20L388.79,324.87L388.12,322.86L389.33,322.08L386.29,320.10L384.21,320.41L383.46,318.44L381.09,317.61L380.54,315.48L382.15,314.48Z"><title>Puglia</title></path>
<path data-code="17" data-name="Basilicata" d="M397.02,355.24L398.55,353.62L393.61,350.37L393.88,346.53L391.73,344.41L393.45,344.32L392.50,341.83L396.82,342.67L397.09,341.46L399.50,340.48L401.21,336.59L399.99,331.73L400.84,330.75L408.03,330.15L409.26,331.04L413.38,327.98L416.75,329.55L420.28,333.56L419.73,335.99L417.69,337.75L423.53,341.02L425.23,339.36L426.82,339.96L429.00,345.04L434.82,351.27L436.05,351.41L438.90,348.31L440.42,350.32L440.31,348.87L441.79,349.68L442.09,348.24L447.96,350.92L446.81,351.53L448.05,352.29L447.35,355.28L448.10,356.98L447.17,359.47L448.45,362.02L447.77,363.52L451.11,364.73L453.71,367.96L446.62,381.19L444.74,383.00L435.67,381.61L434.75,388.45L432.30,392.80L432.85,394.80L429.51,392.81L427.30,393.31L427.32,394.96L425.06,393.70L420.62,395.02L418.91,391.66L419.87,389.72L415.72,389.30L414.50,390.35L412.57,389.03L411.35,389.26L408.76,393.48L404.25,387.12L405.53,386.40L404.54,385.13L406.73,383.02L407.00,379.75L410.35,377.44L410.80,374.65L407.58,372.37L406.90,369.04L399.97,363.08L399.99,358.77L396.36,356.56L397.02,355.24Z"><title>Basilicata</title></path>
<path data-code="18" data-name="Calabria" d="M417.58,418.04L413.60,413.51L411.24,406.73L409.29,398.21L410.22,396.88L408.76,393.48L409.47,391.45L411.35,389.26L414.50,390.35L415.72,389.30L417.79,390.31L419.58,389.58L418.91,391.68L420.62,395.02L425.06,393.70L427.32,394.96L427.30,393.31L429.51,392.81L431.16,392.91L432.82,394.81L433.18,393.69L432.30,392.80L434.75,388.45L435.67,381.61L440.08,383.00L443.99,382.36L444.73,383.00L442.85,387.16L444.00,391.68L438.43,400.23L438.59,402.85L440.05,404.20L439.59,407.21L443.66,409.72L449.80,409.78L453.69,414.20L460.08,417.15L461.20,419.54L465.43,421.61L463.51,426.65L463.39,429.57L465.10,432.11L463.46,437.42L465.03,440.70L467.44,441.81L465.73,443.49L465.97,445.53L462.90,448.99L462.43,447.88L459.98,448.28L457.22,446.54L450.79,448.45L443.48,452.94L440.27,458.72L441.23,460.40L442.10,470.27L441.49,474.42L437.51,478.74L432.17,480.89L430.31,483.07L425.27,489.83L424.47,495.37L421.24,501.05L409.07,501.57L405.61,499.52L403.91,496.64L404.76,494.91L403.67,492.03L404.68,489.84L403.80,485.02L410.92,481.26L414.85,471.83L415.82,467.59L411.68,463.78L412.00,462.32L418.07,458.12L424.18,458.35L426.25,456.34L427.51,452.04L427.40,447.30L424.95,445.82L422.61,441.46L420.69,427.10L417.58,418.04Z"><title>Calabria</title></path>
<path data-code="19" data-name="Sicilia" d="M293.53,495.70L300.40,492.33L299.38,489.58L301.53,486.77L305.00,487.93L310.06,484.95L312.05,487.23L311.93,490.06L312.80,491.20L315.17,491.94L319.02,490.99L318.96,493.44L320.17,494.96L327.40,498.66L339.17,494.81L340.35,496.05L343.64,495.44L349.38,496.67L358.80,494.82L363.46,493.10L367.97,488.14L369.58,488.90L374.79,486.70L376.95,488.84L379.99,488.87L382.06,490.54L386.76,487.01L387.92,483.99L387.53,482.43L388.41,483.76L387.94,485.37L390.02,485.94L400.08,480.82L404.59,482.66L401.73,483.84L400.73,486.80L401.48,486.60L398.14,493.03L386.82,510.16L385.34,519.86L382.84,522.32L382.22,524.84L381.83,523.99L382.19,533.77L385.72,535.85L386.53,535.10L388.59,537.78L387.30,537.93L387.26,539.25L386.85,537.59L385.65,538.14L385.72,540.58L386.51,542.64L388.08,543.04L387.08,543.17L387.76,544.68L390.14,545.15L390.26,547.69L389.28,547.54L389.33,548.77L390.81,548.81L391.80,550.49L389.30,550.53L388.80,552.23L386.61,552.86L384.38,555.50L381.98,561.70L383.85,567.85L381.35,569.93L378.90,566.94L376.42,567.37L373.19,565.37L369.31,566.85L365.62,565.90L361.52,562.90L357.68,562.39L352.95,552.86L347.56,547.36L340.91,544.99L332.80,545.39L330.62,543.13L327.66,542.86L324.10,540.48L319.73,535.52L315.40,534.96L310.27,531.31L304.09,524.40L298.07,524.21L295.81,520.65L293.93,519.82L284.02,520.74L281.33,516.36L277.74,515.31L275.88,513.02L275.81,510.67L274.01,507.65L275.48,506.89L276.45,503.85L275.37,501.98L277.83,496.48L276.69,496.14L279.83,493.34L282.92,492.84L283.51,491.03L285.57,491.14L286.64,489.53L285.75,487.60L286.42,486.84L287.87,487.38L289.61,492.67L293.53,495.70ZM269.27,499.61L271.61,502.08L268.19,501.41L268.05,500.01L269.27,499.61ZM259.38,497.58L260.51,499.88L258.59,499.28L257.93,497.50L259.38,497.58ZM254.96,559.54L258.77,561.67L258.78,564.34L256.51,565.03L255.05,563.38L253.81,561.30L254.96,559.54ZM371.97,468.08L369.94,466.84L370.35,465.67L372.78,465.65L372.97,468.14L371.97,468.08ZM376.71,474.86L378.29,477.08L376.13,476.34L375.73,474.90L376.54,473.77L376.71,474.86ZM376.65,468.98L377.39,471.03L376.36,471.50L376.28,473.40L374.03,470.86L374.63,469.13L376.65,468.98ZM386.88,455.51L385.83,454.21L387.97,453.71L386.88,455.51ZM278.30,630.09L282.20,630.56L282.39,632.00L277.74,630.57L278.30,630.09Z"><title>Sicilia</title></path>
<path data-code="20" data-name="Sardegna" d="M109.84,362.63L108.69,361.94L106.90,357.43L102.98,358.60L103.84,357.00L102.84,356.06L101.61,359.19L101.07,358.16L100.82,355.77L102.52,354.94L103.26,352.60L100.38,349.98L104.02,341.63L102.07,339.02L103.11,337.08L104.61,338.05L104.38,340.32L107.18,343.55L115.03,345.18L118.87,343.99L123.24,340.12L126.92,339.71L130.28,335.76L130.56,333.97L132.55,333.16L135.96,328.76L141.59,327.15L142.19,323.16L141.26,322.22L144.93,321.56L146.77,323.25L146.62,325.11L147.02,323.71L147.13,325.10L148.38,324.58L148.85,325.54L150.12,324.34L150.40,325.65L152.55,325.99L151.81,327.01L152.90,327.36L153.32,330.03L154.31,327.79L156.44,327.07L157.28,329.35L158.36,329.28L155.89,335.01L158.13,333.48L157.89,335.31L159.50,334.29L162.32,335.76L160.14,335.34L158.99,336.43L158.68,339.39L156.61,339.09L155.80,340.22L158.21,339.87L159.24,340.92L161.49,339.82L160.34,341.46L162.33,343.41L164.87,343.89L163.19,344.39L162.58,347.11L164.35,348.81L164.36,351.18L165.75,352.75L165.84,357.01L168.94,360.91L166.33,368.32L163.09,371.12L160.66,375.75L161.08,379.68L165.18,385.19L163.20,390.21L163.21,392.14L164.38,393.22L163.01,394.73L163.61,397.25L161.60,408.11L161.55,418.36L159.62,424.22L161.04,427.28L158.95,428.98L158.19,432.62L158.84,433.75L156.50,436.87L156.61,438.11L155.77,436.14L153.13,436.63L147.46,431.72L143.91,430.99L141.84,433.44L139.30,431.68L135.78,436.67L137.27,440.18L136.40,443.00L129.54,449.74L124.18,446.56L121.83,447.92L120.85,450.48L121.11,448.90L119.51,448.97L120.19,446.57L118.65,445.46L118.08,441.16L115.66,439.85L113.82,440.13L112.96,444.82L111.27,445.23L109.15,437.95L112.19,437.34L113.76,440.08L114.72,438.64L109.86,431.60L112.64,427.48L110.06,423.08L111.66,420.22L110.56,417.83L114.00,410.95L112.93,402.38L113.57,401.83L115.28,404.81L118.04,396.69L114.86,394.23L112.58,397.00L112.55,395.60L111.10,394.54L110.80,390.68L111.71,388.44L110.18,387.43L113.32,386.62L114.90,384.69L113.40,379.85L114.54,374.62L113.53,372.16L110.51,370.86L111.21,367.33L109.84,362.63ZM154.49,322.29L155.19,323.66L154.18,325.59L154.91,325.67L153.08,325.78L154.49,322.29ZM152.87,321.56L153.14,323.98L150.85,324.19L150.72,322.88L152.18,321.08L152.87,321.56ZM108.13,329.83L109.14,330.76L108.41,332.82L105.37,332.75L104.45,334.21L105.63,335.37L105.31,336.32L103.47,336.17L103.87,333.31L106.50,331.38L106.09,329.90L107.84,329.01L108.13,329.83ZM107.43,433.50L107.51,437.14L106.70,438.06L103.85,435.26L107.43,433.50Z"><title>Sardegna</title></path>
  </g>
</svg>
