<?xml version="1.0" encoding="UTF-8"?>
<svg xmlns="http://www.w3.org/2000/svg" viewBox="0 0 560 640" class="pref-muni-svg" role="img" aria-label="行政区分">
  <g class="pref-muni-svg__paths" fill="#eaf2fb" stroke="#5b7fa8" stroke-width="0.6" stroke-linejoin="round">
<path data-code="JP-46" data-name="Kagoshima" d="M128.00,385.99L128.29,387.15L127.88,387.49L127.06,389.31L126.47,389.80L125.83,389.36L125.76,388.98L126.13,388.83L126.84,387.47L127.48,387.18L128.00,385.99ZM151.98,393.01L150.34,393.69L149.58,395.32L151.16,396.05L151.17,396.47L150.64,397.05L151.65,397.11L150.39,398.27L149.48,398.36L148.99,399.75L148.30,400.49L145.70,401.42L143.34,403.01L143.44,401.60L144.83,400.49L145.21,399.10L145.02,398.72L145.65,397.20L145.75,395.72L144.91,393.77L144.14,393.27L144.00,391.42L142.97,391.21L142.17,390.56L142.99,389.77L143.86,389.84L144.47,390.32L144.48,391.04L144.94,391.12L145.81,390.01L146.01,389.17L145.91,388.39L145.42,387.90L143.83,387.57L143.11,387.81L142.55,388.50L141.08,392.11L140.85,393.39L141.86,396.36L142.74,397.19L143.38,397.28L143.02,399.10L142.09,399.76L141.86,399.50L141.22,399.62L140.48,398.23L139.71,397.75L135.70,397.82L134.95,396.08L135.43,396.14L135.45,395.89L133.89,394.35L134.65,394.06L135.81,394.93L136.95,393.58L137.36,392.54L137.73,390.09L136.35,387.67L135.03,386.87L134.81,386.19L135.14,385.23L135.93,385.57L135.26,384.73L135.67,383.21L135.40,382.31L134.86,381.73L134.84,381.34L135.38,380.68L135.38,380.16L134.96,379.71L136.16,378.85L136.69,379.56L137.04,379.45L137.62,378.96L137.85,378.25L138.70,379.18L139.25,379.28L141.88,378.27L142.52,378.35L144.29,379.77L144.08,380.28L145.55,382.67L147.12,384.11L147.39,386.19L148.73,386.82L149.38,387.62L150.17,389.46L152.07,389.99L152.60,390.54L152.61,391.86L151.98,393.01ZM126.81,431.84L127.35,431.70L127.49,432.04L126.91,432.87L126.81,431.84ZM129.94,427.13L130.41,428.31L129.41,428.21L128.87,427.17L129.19,426.88L129.94,427.13ZM143.63,416.45L143.15,418.25L142.39,419.06L141.93,419.41L140.33,419.63L139.48,419.35L138.58,417.20L138.40,416.03L139.23,415.93L140.00,414.68L140.55,414.45L143.63,416.45ZM150.25,406.50L150.88,407.73L150.59,408.01L150.72,409.51L150.28,410.31L150.35,411.39L149.96,412.55L149.40,412.68L149.03,413.36L148.72,414.70L148.95,415.90L148.67,416.49L147.70,416.63L147.07,417.11L146.73,414.41L147.06,414.54L148.11,412.90L148.48,411.74L148.27,410.09L150.25,406.50ZM135.66,414.38L136.40,415.16L135.53,415.46L135.14,414.60L134.84,414.74L134.29,414.00L135.66,414.38ZM124.64,436.21L124.64,435.83L124.93,435.80L125.01,436.35L124.64,436.21ZM123.52,426.54L123.99,426.65L123.74,426.81L123.52,426.54ZM130.82,425.20L130.77,425.46L130.06,425.04L130.21,424.47L130.44,424.36L130.82,425.20ZM130.86,406.40L131.10,406.74L130.74,407.07L130.12,406.62L130.62,406.25L130.86,406.40ZM130.64,384.53L130.56,385.41L129.87,385.75L129.33,385.48L129.18,384.76L128.66,385.01L129.09,384.26L130.23,385.01L130.29,384.54L130.64,384.53Z"><title>Kagoshima</title></path>
<path data-code="JP-44" data-name="Ōita" d="M152.86,347.24L153.83,347.40L154.31,347.89L155.78,348.05L156.66,347.90L158.47,345.88L159.68,345.74L161.04,346.07L162.13,347.93L162.26,349.98L161.72,351.58L160.56,351.43L160.46,352.34L159.88,352.53L159.79,352.87L158.21,352.57L158.29,354.49L158.94,354.88L160.07,354.93L160.81,354.53L161.61,354.90L161.80,354.56L163.75,355.12L165.16,354.65L164.63,356.05L163.91,356.71L163.53,357.61L164.11,357.91L164.57,357.58L165.32,357.67L164.57,358.32L164.47,358.57L164.78,358.73L165.63,358.87L165.86,358.36L166.45,359.05L166.80,358.37L167.11,358.97L166.59,359.36L165.64,359.33L165.17,360.70L166.16,361.52L168.29,361.55L168.35,361.76L167.32,361.97L166.56,362.71L166.87,363.09L166.09,364.02L166.83,363.97L166.81,364.38L165.63,365.07L164.81,364.96L164.63,366.07L164.05,366.02L163.53,364.42L162.43,364.12L161.53,365.34L158.58,365.83L158.14,365.48L158.16,364.76L157.72,364.29L155.59,364.51L153.93,363.19L153.00,359.69L151.53,357.29L150.38,356.47L148.86,357.04L149.51,358.63L149.18,359.63L148.48,359.64L146.44,358.60L146.81,357.28L146.29,355.35L146.59,354.04L146.48,353.07L147.34,351.24L148.25,350.13L149.00,349.74L151.96,349.74L152.51,348.88L152.41,347.87L152.86,347.24Z"><title>Ōita</title></path>
<path data-code="JP-40" data-name="Fukuoka" d="M132.44,350.55L132.77,349.75L134.75,348.92L134.86,348.65L134.08,348.79L133.44,348.08L134.55,347.37L134.60,346.88L135.27,346.79L135.45,346.12L135.95,346.56L135.86,347.11L136.57,347.26L136.46,347.75L136.89,348.06L137.33,347.57L138.66,347.41L138.95,346.43L138.80,346.03L137.92,346.63L136.98,346.13L136.96,345.60L137.49,346.12L138.58,345.86L140.00,344.44L139.69,343.19L140.38,342.05L140.70,342.19L141.42,341.51L142.90,341.47L143.94,340.30L146.33,340.25L146.21,340.66L146.91,340.55L147.53,341.33L148.04,341.12L148.93,339.87L149.46,339.69L149.67,339.89L149.21,341.15L149.33,341.66L149.07,341.65L149.17,342.02L148.67,342.89L149.46,342.95L149.51,344.39L150.76,346.76L152.86,347.24L152.41,347.87L152.51,348.88L151.96,349.74L149.00,349.74L148.25,350.13L147.34,351.24L146.48,353.07L146.59,354.04L146.29,355.35L146.81,357.28L146.44,358.60L144.58,357.46L143.82,357.34L142.95,358.11L141.69,358.37L140.72,359.28L140.54,360.33L139.33,360.75L139.18,358.46L137.93,357.30L137.88,356.49L138.49,355.28L139.75,354.68L140.29,353.61L141.13,353.11L141.04,351.48L140.34,351.37L139.07,352.07L136.35,350.33L132.44,350.55Z"><title>Fukuoka</title></path>
<path data-code="JP-41" data-name="Saga" d="M128.55,353.25L128.77,354.05L129.20,354.35L129.02,353.58L129.50,351.84L128.08,350.62L128.62,349.98L129.16,350.88L129.55,350.87L128.94,349.36L129.23,348.52L130.79,348.97L131.13,349.37L130.77,350.08L131.15,350.02L131.61,350.74L136.35,350.33L139.07,352.07L140.91,351.34L141.21,352.28L141.13,353.11L140.29,353.61L139.75,354.68L138.49,355.28L137.88,356.49L137.93,357.30L136.90,357.14L136.04,356.31L134.45,357.94L134.04,357.75L135.70,360.86L135.38,361.54L132.85,360.91L130.49,358.86L130.32,358.48L130.67,358.04L130.58,357.51L128.56,356.36L127.59,354.60L128.55,353.25Z"><title>Saga</title></path>
<path data-code="JP-42" data-name="Nagasaki" d="M135.38,361.54L135.11,362.14L133.65,362.99L134.50,363.70L135.22,363.65L136.08,363.00L137.19,362.98L137.76,363.40L138.33,364.75L138.39,365.72L137.80,367.45L136.51,367.81L135.86,368.67L134.72,369.03L134.78,368.48L134.07,368.00L134.05,367.09L135.14,366.44L135.49,366.04L135.44,365.63L135.08,365.42L134.93,364.76L133.45,364.72L131.64,365.74L131.29,365.79L131.08,365.36L129.96,367.54L129.02,368.04L128.00,369.45L127.25,369.56L127.14,369.29L128.00,368.73L128.55,367.55L128.62,367.23L128.24,366.91L128.75,366.64L128.90,366.87L129.33,366.22L128.72,366.28L127.79,364.31L127.12,364.49L126.32,363.44L126.01,362.37L125.47,361.90L125.36,360.78L126.22,358.32L126.90,358.65L127.15,359.34L127.59,359.31L127.22,359.93L127.28,360.53L127.71,359.95L128.25,360.12L128.71,360.77L128.42,362.16L128.07,361.45L128.43,362.77L128.20,363.01L129.10,363.79L129.76,362.99L131.86,363.64L130.60,361.85L130.85,360.00L129.73,358.99L128.72,359.41L128.69,358.99L128.25,358.68L127.86,359.09L127.36,358.93L127.13,358.16L127.41,358.24L127.57,357.36L127.05,357.72L126.95,356.95L126.72,356.86L126.62,357.94L125.96,358.17L125.88,357.63L126.32,357.29L125.72,356.70L125.72,356.27L123.95,355.51L124.18,354.52L124.64,354.28L124.29,353.48L124.45,352.40L124.66,352.19L125.15,352.65L125.57,352.59L126.08,351.82L126.14,352.59L126.56,352.79L127.32,352.55L128.43,352.89L128.55,353.25L127.59,354.60L128.56,356.36L130.58,357.51L130.67,358.04L130.32,358.48L130.49,358.86L132.85,360.91L135.38,361.54ZM112.14,367.30L112.51,367.97L111.08,368.14L111.04,367.88L110.41,367.88L110.28,368.20L110.68,368.67L110.29,369.49L109.64,368.81L108.18,369.07L107.27,368.58L107.68,367.45L107.94,368.13L108.18,367.43L107.99,365.43L108.33,364.98L108.65,364.97L109.01,365.81L110.91,364.61L110.95,365.33L111.51,365.48L111.64,365.83L111.50,366.66L112.14,367.30ZM115.99,360.58L117.25,360.21L117.48,360.66L116.03,362.07L115.97,363.39L115.46,363.30L115.41,364.23L115.07,364.14L115.11,362.26L114.85,361.76L113.91,361.45L113.95,361.18L115.23,360.78L115.12,359.49L115.42,359.39L115.46,359.93L115.75,359.83L116.17,356.77L116.18,357.72L116.44,358.00L115.99,360.58ZM124.02,351.55L124.13,352.50L123.06,354.35L122.92,355.09L121.51,356.52L120.28,356.49L120.41,355.77L121.02,356.41L121.40,356.19L120.89,355.75L121.18,355.21L121.58,355.27L121.40,354.46L121.94,353.99L122.03,352.89L122.95,352.68L123.18,352.17L123.44,352.46L123.73,352.22L123.48,351.68L124.02,351.55ZM127.88,343.80L128.29,344.28L127.16,344.59L126.91,345.42L126.15,344.75L126.21,344.43L125.79,344.46L125.61,343.82L126.32,344.11L125.85,343.59L125.79,342.90L126.17,342.92L126.35,341.71L127.72,342.28L127.72,343.19L128.24,343.52L127.88,343.80ZM119.75,332.98L119.83,332.67L120.36,332.83L119.85,333.44L119.97,334.06L119.49,334.29L119.48,335.32L119.12,336.20L118.14,337.06L117.61,336.51L117.28,336.68L117.44,334.10L117.91,331.92L118.28,332.10L118.20,332.69L119.10,332.39L118.99,332.07L119.18,332.06L119.75,332.98ZM122.21,325.72L122.66,326.20L122.41,327.11L122.09,327.96L120.93,329.29L121.01,329.90L120.62,330.29L120.57,330.61L121.17,330.18L121.01,330.76L121.43,331.45L121.30,331.74L120.30,332.54L119.63,332.02L120.32,331.97L120.36,331.35L119.62,331.62L119.70,330.74L119.29,331.61L118.29,331.36L119.05,330.93L118.98,329.70L119.72,329.12L119.19,329.33L119.11,329.08L119.99,327.52L119.34,326.78L119.94,325.11L120.91,325.18L121.74,324.47L121.69,324.10L122.42,323.98L122.82,324.50L122.50,325.01L122.83,325.37L122.70,325.71L122.21,325.72ZM112.51,364.22L112.65,364.74L112.21,365.35L111.47,365.09L111.42,363.89L111.76,363.97L112.06,364.64L111.87,363.85L112.51,364.22ZM113.45,363.02L113.31,364.52L112.18,363.27L112.68,363.19L113.04,363.54L113.03,363.23L113.45,363.02ZM114.76,362.48L114.69,363.58L113.71,363.03L113.65,362.51L114.20,362.67L114.00,361.85L114.44,361.95L114.76,362.48ZM116.65,353.92L116.90,354.58L116.50,355.04L115.59,354.78L115.83,354.28L116.65,353.92ZM124.02,349.78L124.38,349.90L123.99,350.21L123.09,350.21L123.77,349.49L124.02,349.78Z"><title>Nagasaki</title></path>
<path data-code="JP-43" data-name="Kumamoto" d="M137.85,378.25L139.90,375.30L140.04,374.29L140.63,374.71L140.79,374.48L140.75,373.62L141.82,372.05L141.46,371.20L142.30,370.91L141.71,370.03L143.05,368.72L143.52,367.84L139.66,368.43L141.72,366.89L142.78,366.50L142.23,365.93L142.55,365.01L142.20,364.27L139.54,361.97L139.33,360.75L140.54,360.33L140.72,359.28L141.69,358.37L142.95,358.11L143.82,357.34L144.58,357.46L148.93,359.72L149.51,358.63L148.98,357.77L148.94,356.90L150.38,356.47L151.53,357.29L153.00,359.69L153.93,363.19L155.02,364.13L153.59,364.75L153.03,366.00L151.32,368.22L151.00,369.40L150.16,369.64L149.41,371.29L149.57,372.68L150.29,373.57L150.88,375.00L150.22,376.45L150.71,377.78L150.67,378.38L149.44,378.16L148.23,379.25L147.53,379.09L146.24,379.74L144.29,379.77L142.15,378.21L139.25,379.28L138.70,379.18L137.85,378.25ZM134.49,377.35L135.09,377.51L135.21,377.94L134.74,379.26L134.42,379.35L134.05,378.88L133.75,377.58L133.93,377.16L134.49,377.35ZM138.99,370.77L139.82,370.47L140.02,370.77L139.43,371.18L138.69,373.22L138.16,373.69L138.01,372.64L136.05,373.25L135.54,372.38L135.64,371.96L138.17,370.44L138.53,370.82L138.99,370.77ZM134.62,370.03L135.13,370.56L135.29,371.44L135.37,374.47L133.12,376.99L131.73,377.63L131.97,376.32L131.07,376.63L131.13,376.32L132.10,375.44L132.93,375.15L131.96,375.17L131.45,374.59L131.71,372.64L132.34,371.40L131.86,370.31L132.56,370.61L134.62,370.03ZM136.08,375.26L136.42,375.70L135.50,376.25L135.61,375.58L136.08,375.26ZM139.64,368.95L139.71,369.67L139.30,370.22L138.98,369.97L138.80,369.03L139.46,368.44L139.75,368.65L139.64,368.95Z"><title>Kumamoto</title></path>
<path data-code="JP-45" data-name="Miyazaki" d="M164.63,366.07L164.34,367.04L163.75,366.69L162.85,367.84L162.47,369.01L161.77,369.18L161.30,370.27L161.53,370.78L162.25,371.20L161.53,371.70L160.91,371.52L160.85,371.93L161.42,372.69L160.44,373.25L159.20,377.05L157.18,384.34L157.33,385.51L158.04,386.07L157.67,386.79L157.32,389.81L156.19,391.35L156.24,392.59L155.72,394.11L155.15,395.22L154.92,395.06L155.04,394.79L153.72,394.79L153.60,394.06L153.07,393.36L152.47,393.41L151.98,393.01L152.61,391.86L152.60,390.54L152.07,389.99L150.17,389.46L149.38,387.62L148.73,386.82L147.39,386.19L147.12,384.11L145.88,383.10L144.08,380.28L144.29,379.77L146.24,379.74L147.53,379.09L148.23,379.25L149.44,378.16L150.67,378.38L150.71,377.78L150.22,376.45L150.88,375.00L150.29,373.57L149.57,372.68L149.41,371.29L149.95,369.89L151.00,369.40L151.32,368.22L153.86,364.53L155.02,364.13L156.04,364.57L157.72,364.29L158.16,364.76L158.24,365.64L158.80,365.83L161.53,365.34L162.08,364.32L162.68,364.13L163.53,364.42L164.05,366.02L164.63,366.07Z"><title>Miyazaki</title></path>
<path data-code="JP-36" data-name="Tokushima" d="M209.69,334.51L210.62,334.17L211.77,334.23L212.58,333.60L212.35,334.39L212.64,334.34L213.28,333.85L212.93,334.94L212.59,335.02L213.19,335.13L212.55,336.59L212.45,338.76L212.66,339.02L213.10,338.73L214.25,340.30L214.26,340.96L213.27,342.10L214.51,342.21L214.03,342.63L215.11,342.49L212.09,344.00L211.94,344.59L209.02,346.35L208.53,346.75L208.75,347.00L208.12,347.90L207.41,348.10L207.44,348.73L207.12,349.00L205.27,348.55L204.65,347.31L204.72,346.31L202.99,345.81L202.85,344.34L202.24,343.00L201.14,342.97L200.29,343.56L198.66,342.74L197.44,342.67L195.76,342.05L196.09,341.07L195.99,339.01L198.92,336.97L200.18,336.81L201.10,337.39L201.66,337.37L203.83,336.56L204.95,335.59L209.09,335.60L209.69,334.51Z"><title>Tokushima</title></path>
<path data-code="JP-37" data-name="Kagawa" d="M194.78,338.45L195.65,337.27L195.73,335.38L195.28,334.44L194.19,333.41L196.20,334.19L196.70,334.02L198.11,332.80L199.73,331.94L200.18,331.18L200.83,330.94L202.15,331.50L203.36,331.53L203.70,330.92L203.99,331.25L204.17,330.63L204.45,330.59L204.85,332.02L205.28,332.01L205.74,331.37L206.69,332.05L206.46,332.67L207.96,333.60L208.89,333.63L209.69,334.51L209.30,335.51L208.88,335.66L204.95,335.59L203.83,336.56L201.66,337.37L201.10,337.39L200.18,336.81L198.92,336.97L195.99,339.01L194.78,338.45ZM208.38,327.11L208.50,327.99L208.02,329.75L207.30,329.45L207.63,329.26L207.56,328.94L206.22,330.03L206.20,329.05L204.92,329.01L204.77,328.72L205.01,327.84L205.51,328.01L206.69,327.40L208.38,327.11ZM196.95,330.49L197.13,331.02L196.73,331.44L196.53,330.87L196.95,330.49ZM202.80,328.82L202.58,328.68L203.20,328.31L203.77,328.48L203.41,329.13L202.80,328.82Z"><title>Kagawa</title></path>
<path data-code="JP-38" data-name="Ehime" d="M178.09,362.28L176.67,361.69L176.90,361.98L176.06,361.83L175.94,362.27L176.30,362.56L175.71,362.65L175.15,361.75L175.53,361.43L175.34,360.96L175.66,360.48L175.14,359.46L174.23,359.22L173.83,359.98L173.58,359.91L174.02,358.85L174.79,359.20L175.34,358.89L174.98,358.89L175.09,358.29L174.74,357.88L175.21,357.88L175.46,357.50L174.60,357.29L174.55,356.74L174.91,356.62L174.30,356.08L173.86,356.33L173.79,355.98L174.93,355.97L175.39,356.72L175.88,355.77L176.49,355.48L176.07,354.99L176.36,354.72L175.77,354.82L175.37,354.42L175.37,354.12L176.09,353.61L174.24,353.83L173.51,353.51L174.16,353.04L174.25,352.31L173.93,352.58L173.73,351.83L174.02,351.43L173.85,351.11L174.25,350.83L173.55,350.37L172.27,350.41L170.02,351.64L169.16,352.56L168.65,352.42L168.80,352.07L167.06,352.87L168.52,351.60L169.79,351.35L169.59,350.99L169.87,350.81L171.51,350.41L174.10,348.90L175.65,346.98L177.42,346.22L178.73,345.04L179.09,344.16L178.97,342.94L179.36,341.00L180.11,340.88L180.37,339.04L181.99,337.77L182.99,337.50L183.11,336.57L182.61,336.34L183.15,336.40L183.39,335.94L184.96,337.83L185.76,339.82L186.63,340.39L188.68,339.89L188.77,339.51L190.06,339.16L193.36,339.70L194.78,338.45L195.74,338.70L196.13,340.50L195.76,342.05L194.23,342.10L192.62,342.82L189.11,343.13L188.31,343.80L187.54,343.84L185.56,347.13L185.15,349.12L184.45,350.18L183.53,350.72L181.06,350.84L181.17,352.02L182.34,353.57L180.62,355.00L180.17,356.31L178.89,357.69L177.72,357.06L178.71,361.13L178.09,362.28ZM184.39,334.51L183.61,334.72L184.24,334.00L183.87,333.56L184.93,332.65L185.31,334.21L185.01,334.53L184.39,334.51ZM178.12,338.66L177.99,339.71L177.20,339.89L177.33,339.37L178.12,338.66ZM186.04,335.23L185.20,336.43L184.70,336.42L184.75,335.76L185.05,335.68L184.98,334.91L186.04,335.23Z"><title>Ehime</title></path>
<path data-code="JP-39" data-name="Kōchi" d="M207.12,349.00L206.23,350.49L205.03,355.29L204.42,354.10L203.80,354.04L203.83,353.60L202.38,351.46L201.39,351.02L200.62,349.78L197.78,349.22L197.37,348.85L195.06,349.31L192.57,350.62L192.11,351.75L190.80,352.05L190.07,352.83L189.88,352.31L189.13,352.92L188.82,354.03L189.13,354.94L188.18,356.33L188.36,356.93L187.74,356.84L187.30,357.40L186.11,359.31L186.12,359.83L185.33,359.49L184.72,359.82L184.31,361.42L184.57,362.40L184.45,363.13L183.72,363.24L183.62,364.30L184.71,365.51L184.89,366.30L184.13,366.33L183.65,365.49L182.91,365.08L182.52,365.16L182.32,365.63L181.92,365.26L180.75,365.88L179.34,364.83L177.88,365.63L177.80,364.62L179.30,362.27L178.09,362.28L178.68,361.35L178.65,360.31L177.63,357.23L177.96,357.09L178.89,357.69L180.17,356.31L180.62,355.00L182.24,353.86L182.27,353.36L181.17,352.02L181.06,350.84L183.53,350.72L184.45,350.18L185.15,349.12L185.56,347.13L187.54,343.84L188.31,343.80L189.11,343.13L193.07,342.71L194.23,342.10L195.76,342.05L197.44,342.67L198.66,342.74L200.29,343.56L201.14,342.97L202.24,343.00L202.85,344.34L202.99,345.81L204.72,346.31L204.65,347.31L205.27,348.55L207.12,349.00ZM176.72,365.85L176.88,366.38L176.51,366.65L176.34,366.02L176.49,365.66L176.72,365.85Z"><title>Kōchi</title></path>
<path data-code="JP-32" data-name="Shimane" d="M186.53,293.87L186.78,294.30L186.56,294.87L185.79,295.76L185.83,294.50L186.04,294.02L186.53,293.87ZM185.70,293.48L185.94,293.50L185.93,293.84L185.43,294.01L185.19,295.03L184.75,294.92L184.58,294.47L184.24,294.56L184.48,295.18L184.32,295.39L183.52,294.89L185.08,293.42L185.70,293.48ZM161.18,324.59L162.42,324.52L164.39,323.69L164.66,322.73L165.05,322.65L167.48,320.22L167.82,320.32L167.98,319.56L171.02,316.84L172.43,316.25L172.60,315.62L173.53,314.91L174.03,313.84L176.20,312.08L178.07,311.29L178.50,310.54L178.69,309.35L177.94,308.61L178.01,308.16L179.99,307.93L179.59,307.52L181.56,306.77L183.87,306.54L183.93,306.00L184.99,305.92L185.31,305.32L185.83,305.29L186.00,304.73L187.15,305.56L188.34,305.13L188.40,305.52L190.12,305.43L187.92,306.55L188.78,307.84L190.11,308.79L189.73,309.27L189.54,311.83L187.29,313.19L187.42,314.21L186.65,316.15L185.06,316.24L184.30,315.86L181.84,316.02L179.97,318.39L178.14,319.84L178.79,320.66L178.58,321.04L175.80,322.08L174.31,321.87L173.72,322.31L173.05,322.14L171.94,322.55L171.22,322.23L169.39,323.89L169.52,324.67L168.80,326.62L167.59,328.38L167.75,329.17L166.72,330.12L166.91,331.18L166.21,331.70L165.94,332.42L165.26,332.13L163.59,332.56L162.86,332.24L162.51,331.19L162.81,330.07L161.55,329.79L161.25,329.40L161.06,328.06L161.67,326.54L161.18,324.59ZM184.62,295.90L185.20,295.78L185.79,296.35L184.89,296.35L184.62,295.90ZM190.84,290.35L191.10,290.70L191.05,291.76L190.72,292.12L190.43,291.84L190.12,292.12L190.39,292.47L190.12,292.83L188.90,292.69L187.70,291.59L188.08,289.86L189.52,288.89L190.84,290.35Z"><title>Shimane</title></path>
<path data-code="JP-35" data-name="Yamaguchi" d="M171.09,334.90L171.06,335.91L170.41,336.64L170.61,339.18L169.25,340.28L169.70,342.34L167.85,343.72L167.60,343.74L167.65,343.38L168.25,342.49L168.78,342.59L168.61,341.69L166.39,340.74L165.85,340.01L164.28,339.00L163.58,339.57L163.83,339.70L163.01,339.61L162.97,339.26L163.76,338.39L162.34,337.76L160.44,338.39L159.74,338.16L159.81,338.90L159.49,339.26L157.80,338.27L157.07,339.41L156.71,338.97L156.23,339.26L156.44,338.59L156.17,338.11L155.17,339.77L153.86,340.57L153.12,340.01L152.46,340.45L152.15,339.97L152.25,339.45L151.15,338.31L149.96,337.93L147.86,340.80L147.22,340.29L147.24,340.02L147.57,340.03L147.89,338.73L147.81,337.82L147.21,337.51L146.91,336.55L147.78,335.66L147.99,335.03L147.09,332.99L147.46,331.62L149.93,330.80L148.55,330.34L148.18,330.50L148.42,330.01L148.92,329.58L149.51,330.19L150.65,329.88L151.69,330.16L151.81,330.87L152.37,331.10L152.70,330.55L152.34,329.78L153.77,329.61L154.27,330.24L153.36,330.03L153.00,331.07L155.00,330.56L155.21,330.07L156.60,329.90L156.58,329.26L157.44,328.29L157.31,327.86L158.74,326.87L159.11,325.82L159.79,325.78L159.80,324.86L160.12,324.75L160.85,324.99L161.25,324.71L161.67,326.75L161.06,328.06L161.25,329.40L161.55,329.79L162.81,330.07L162.51,331.19L162.86,332.24L163.59,332.56L165.26,332.13L165.94,332.42L166.21,331.70L166.91,331.18L166.72,330.12L167.75,329.17L168.11,331.28L169.09,333.64L169.69,334.30L171.09,334.90ZM171.14,343.38L171.66,343.91L170.17,343.67L170.53,343.23L171.14,343.38ZM171.01,341.76L170.66,342.05L170.26,341.15L170.14,340.64L170.41,340.14L171.77,340.22L172.59,341.18L173.91,340.74L174.16,340.29L175.10,340.29L174.52,341.02L173.62,341.22L173.43,342.34L172.70,342.21L172.46,341.45L172.10,341.44L171.86,341.92L171.01,341.76Z"><title>Yamaguchi</title></path>
<path data-code="JP-31" data-name="Tottori" d="M188.92,306.13L189.04,306.98L190.18,307.64L191.42,307.88L192.14,307.09L194.58,306.18L197.22,306.84L200.39,306.59L202.08,306.11L202.55,306.49L206.10,305.90L206.87,305.51L207.09,305.06L208.35,304.76L209.24,305.95L209.73,308.21L210.81,310.70L210.88,311.77L209.80,312.91L208.87,312.69L207.34,313.60L206.27,313.62L205.00,314.13L203.93,312.01L202.05,311.43L201.71,310.64L200.69,310.76L198.84,312.48L197.65,311.42L194.78,310.72L193.95,312.44L193.40,312.86L193.20,313.80L191.37,314.24L190.72,315.55L189.04,316.50L186.65,316.15L187.42,314.21L187.29,313.19L189.66,311.55L189.73,309.27L190.10,308.69L188.78,307.84L187.92,306.55L188.92,306.13Z"><title>Tottori</title></path>
<path data-code="JP-28" data-name="Hyōgo" d="M208.35,304.76L211.35,303.22L212.28,303.49L215.93,303.36L216.70,303.79L217.07,303.52L217.15,305.39L217.91,306.62L218.65,306.97L219.89,306.50L220.24,306.84L220.25,309.14L219.73,309.76L218.25,309.47L218.19,311.12L220.83,312.59L222.15,312.35L223.00,313.95L224.28,314.33L224.81,314.84L225.50,314.82L226.29,315.44L226.43,316.21L225.41,317.12L225.84,317.64L225.90,318.58L227.18,319.64L227.23,323.65L226.15,324.40L225.45,323.82L224.50,323.88L224.51,324.43L223.92,324.49L223.94,323.98L223.33,324.20L223.72,325.05L222.73,324.53L222.69,325.04L220.27,325.60L219.76,325.23L218.77,325.20L214.99,322.58L214.14,322.37L211.56,322.43L211.04,322.72L210.63,322.62L210.55,322.14L209.35,323.45L208.62,323.15L208.21,323.41L208.14,323.89L207.28,323.80L207.38,322.49L206.44,321.09L206.56,317.57L208.85,314.58L208.87,312.69L209.80,312.91L210.88,311.77L210.81,310.70L209.73,308.21L209.24,305.95L208.35,304.76ZM219.52,325.96L220.00,326.59L217.77,330.00L217.64,330.99L218.74,333.18L216.56,334.12L215.96,334.67L214.71,334.88L214.68,334.47L214.25,334.23L214.63,333.56L214.00,333.75L213.46,332.80L213.92,331.94L214.57,331.91L215.94,329.41L216.85,328.79L217.43,327.64L218.38,327.18L219.52,325.96Z"><title>Hyōgo</title></path>
<path data-code="JP-26" data-name="Kyōto" d="M217.07,303.52L218.19,303.88L219.26,302.84L219.98,302.78L220.97,302.07L220.94,301.79L223.45,301.08L224.60,302.37L224.84,303.23L224.72,303.52L224.36,303.30L224.01,303.55L222.77,305.51L222.77,305.93L223.09,306.01L223.12,305.64L223.82,304.94L224.22,305.55L223.67,305.66L223.65,306.00L224.76,306.62L225.16,306.38L225.35,306.72L225.06,308.03L225.65,307.18L226.52,307.28L226.52,306.75L225.61,306.68L225.39,306.10L226.76,305.58L227.59,304.69L227.40,305.36L227.94,305.63L227.22,306.52L227.31,307.92L228.56,309.60L231.54,310.52L232.49,310.37L233.97,311.96L233.82,313.05L234.14,315.00L233.75,317.56L234.43,319.00L234.53,320.15L235.76,320.57L236.80,321.57L237.64,323.67L237.51,323.92L237.16,324.09L235.42,323.48L234.06,324.02L232.67,323.44L231.85,322.73L231.89,321.62L230.80,319.74L229.95,319.30L229.69,318.73L229.30,318.86L229.35,319.38L228.91,319.51L227.25,317.93L225.84,317.64L225.46,317.27L225.41,316.94L226.43,316.21L226.12,315.28L223.00,313.95L222.05,312.30L220.83,312.59L218.36,311.31L218.08,310.78L218.25,309.47L219.73,309.76L220.25,309.14L220.24,306.84L219.89,306.50L218.65,306.97L217.91,306.62L217.15,305.39L217.07,303.52Z"><title>Kyōto</title></path>
<path data-code="JP-18" data-name="Fukui" d="M227.86,305.96L228.03,306.46L228.45,305.87L228.43,306.94L229.26,307.07L230.85,305.98L231.21,306.16L230.72,306.43L230.38,307.19L230.78,307.32L232.41,306.93L232.59,306.18L232.11,306.42L231.60,305.92L231.85,305.57L232.42,305.39L233.39,306.23L234.10,306.16L233.57,305.29L234.46,305.21L233.70,303.83L235.59,304.59L236.66,304.11L236.36,303.58L236.55,302.82L236.24,302.61L236.23,302.02L237.35,301.23L237.82,302.54L237.48,303.03L237.83,303.50L238.21,303.44L238.75,301.01L238.24,299.96L236.89,298.67L236.90,297.58L236.25,296.79L236.36,296.21L237.00,295.69L237.77,293.84L239.11,291.94L239.37,291.41L239.18,290.80L239.85,290.82L240.98,290.11L242.03,291.03L242.66,292.66L244.31,293.21L246.35,293.22L248.17,294.80L249.64,294.61L249.30,297.67L250.43,298.39L251.07,299.41L250.29,300.83L247.73,300.93L245.91,301.30L245.49,301.79L242.69,301.31L241.51,303.79L239.93,303.16L239.24,303.40L239.55,305.38L239.38,305.66L238.68,305.65L238.42,306.59L237.28,306.83L236.64,307.32L235.79,306.84L234.84,309.43L233.80,309.36L232.49,310.37L231.54,310.52L228.56,309.60L227.31,307.92L227.22,306.52L227.86,305.96Z"><title>Fukui</title></path>
<path data-code="JP-17" data-name="Ishikawa" d="M240.98,290.11L244.54,286.97L248.22,282.05L250.34,277.60L250.42,276.69L250.16,276.43L250.46,275.24L249.63,273.66L249.74,272.13L249.42,271.63L249.21,271.92L248.75,271.63L249.37,269.96L249.24,269.72L249.86,268.75L249.65,267.88L250.14,267.19L251.77,266.30L253.39,266.30L255.79,265.16L256.53,264.41L259.72,263.48L260.51,263.79L260.78,265.15L258.98,265.67L258.70,266.72L258.90,267.20L259.22,267.25L259.19,267.57L258.57,268.59L257.44,268.41L256.44,268.78L255.77,270.16L254.78,270.89L253.59,270.20L253.68,269.83L252.65,271.13L252.43,271.76L252.71,271.87L252.66,272.33L252.23,272.47L252.10,273.20L253.37,273.13L254.19,273.84L254.60,273.65L254.96,272.80L255.36,272.73L255.49,275.55L252.68,276.43L252.08,277.25L251.23,280.12L250.63,280.84L250.80,282.01L250.49,282.93L250.74,284.60L250.30,286.80L250.56,288.16L250.40,289.34L251.32,291.18L249.64,294.61L248.17,294.80L246.35,293.22L244.31,293.21L242.66,292.66L242.03,291.03L240.98,290.11ZM255.38,271.58L255.21,272.27L253.61,272.76L252.87,271.77L255.38,271.58Z"><title>Ishikawa</title></path>
<path data-code="JP-16" data-name="Toyama" d="M255.31,275.77L254.32,277.59L254.63,278.34L255.95,279.32L257.99,280.01L260.38,279.91L261.26,279.11L262.02,276.50L263.29,275.78L265.31,275.37L266.54,276.42L267.38,279.65L267.30,282.93L267.15,283.60L266.38,284.48L266.40,285.12L265.42,287.16L264.45,288.15L260.52,286.81L259.71,287.21L259.38,286.55L258.04,287.04L257.36,286.87L253.80,290.37L253.41,289.23L251.91,288.88L251.28,289.92L250.56,289.97L250.56,288.16L250.28,287.26L250.74,284.60L250.49,282.93L250.80,282.01L250.63,280.84L251.23,280.12L252.08,277.25L252.68,276.43L255.31,275.77Z"><title>Toyama</title></path>
<path data-code="JP-15" data-name="Niigata" d="M265.31,275.37L270.26,273.61L273.00,272.06L273.78,271.18L274.95,271.38L276.36,270.91L279.74,267.95L281.72,266.76L283.63,263.63L285.16,262.08L286.26,258.58L287.10,257.14L290.80,254.42L291.92,254.34L293.39,253.68L294.94,252.57L297.05,250.23L297.89,244.65L299.22,241.81L301.90,242.90L301.81,244.58L302.04,245.18L302.98,245.88L303.72,245.89L304.72,246.74L304.87,247.35L304.41,248.32L303.52,248.93L301.90,248.99L301.51,249.45L301.25,251.93L300.90,252.58L300.42,255.40L301.07,256.48L302.30,257.30L299.02,261.49L299.31,264.01L296.96,264.08L296.29,264.99L293.56,265.29L292.91,265.90L293.25,267.26L292.33,270.01L292.73,270.79L293.18,270.73L293.72,271.85L293.82,273.99L293.36,276.00L292.54,275.69L292.25,274.95L291.43,274.08L291.00,274.06L290.55,274.86L288.99,275.53L288.98,276.94L288.15,277.44L287.90,278.34L286.49,279.04L285.99,280.01L283.98,280.59L283.76,278.35L282.26,276.79L281.80,274.82L281.46,274.62L280.51,274.53L278.48,275.32L277.74,276.43L277.09,276.81L276.70,278.03L275.84,277.83L273.56,278.40L272.84,278.96L272.20,278.44L272.21,277.52L271.88,277.04L269.77,276.56L268.58,279.04L267.38,279.65L266.72,276.72L265.31,275.37ZM280.12,251.97L282.15,251.88L282.15,252.71L280.84,255.46L278.56,257.12L276.72,257.77L275.97,257.69L275.85,257.09L277.03,256.71L277.11,255.47L278.07,254.17L277.59,253.52L276.41,253.92L276.15,253.30L276.31,251.94L277.50,249.87L279.58,247.99L280.30,246.77L281.08,246.56L280.96,248.30L279.85,251.28L279.84,252.35L280.12,251.97Z"><title>Niigata</title></path>
<path data-code="JP-06" data-name="Yamagata" d="M299.22,241.81L300.11,239.61L302.16,237.53L303.17,236.00L305.04,229.63L306.48,229.99L307.56,229.77L309.35,231.05L310.83,231.66L313.14,232.01L314.23,232.61L315.54,234.39L316.48,234.62L317.97,237.31L317.64,239.36L316.50,239.97L316.92,242.60L317.39,243.78L316.95,245.03L315.45,247.44L315.04,250.21L313.77,251.78L312.08,252.50L311.78,256.19L311.93,257.75L311.71,258.40L310.89,259.01L309.97,258.97L308.96,259.39L307.99,258.68L306.77,258.55L305.95,257.49L303.46,257.62L302.30,257.30L300.66,256.04L300.42,255.40L301.65,249.14L303.52,248.93L304.41,248.32L304.87,247.35L304.44,246.41L303.72,245.89L302.73,245.78L302.04,245.18L301.81,244.58L301.90,242.90L299.22,241.81Z"><title>Yamagata</title></path>
<path data-code="JP-05" data-name="Akita" d="M305.04,229.63L305.67,226.48L307.05,225.09L307.98,221.30L308.17,216.54L307.62,214.47L306.55,213.28L305.75,212.88L304.98,213.01L304.39,213.67L302.93,213.75L302.03,212.33L301.95,211.89L302.21,211.74L301.89,211.56L301.83,210.96L301.88,210.59L304.01,211.55L305.45,210.34L306.75,208.03L307.33,205.68L307.56,203.13L306.15,201.54L307.07,201.48L308.21,200.80L309.27,201.13L312.40,201.16L314.30,200.44L316.39,201.90L317.52,201.63L318.49,201.91L319.70,201.62L322.03,200.04L323.62,200.71L323.77,201.10L323.56,201.46L323.96,201.93L324.01,202.84L323.37,205.50L322.13,206.86L322.14,208.49L321.83,209.30L321.95,211.61L322.40,213.32L321.24,213.59L320.86,214.13L320.92,214.62L321.62,215.32L320.99,216.70L321.40,218.33L320.09,220.40L318.67,223.70L319.40,225.85L320.47,226.94L321.09,228.35L320.27,229.67L321.13,231.05L320.45,233.12L318.39,234.45L316.67,234.79L315.54,234.39L314.52,232.86L313.14,232.01L310.83,231.66L308.96,230.86L307.56,229.77L306.48,229.99L305.04,229.63Z"><title>Akita</title></path>
<path data-code="JP-02" data-name="Aomori" d="M306.15,201.54L306.13,199.08L305.65,198.19L304.62,198.10L304.68,197.70L305.83,196.89L307.10,194.85L307.94,194.30L309.28,194.80L310.61,193.91L310.97,194.08L311.66,193.71L312.33,192.04L312.78,188.75L313.61,189.64L313.84,189.59L313.61,188.88L314.28,188.79L314.13,188.50L312.86,188.46L312.78,187.57L312.40,186.96L311.48,186.70L311.62,186.37L312.46,186.42L312.75,186.14L313.13,183.66L315.24,185.41L316.75,184.51L317.55,184.64L318.23,185.19L318.38,188.45L318.93,191.57L319.46,192.48L320.32,192.86L321.15,192.78L322.07,191.82L322.40,190.52L321.87,190.35L322.24,190.26L322.71,189.11L323.77,189.54L324.34,190.20L324.23,190.67L325.69,191.13L326.13,191.77L326.88,192.06L327.91,191.24L328.64,189.61L328.99,187.06L329.54,186.02L329.16,184.83L328.28,183.68L327.49,183.39L327.07,184.07L327.46,183.85L327.24,184.29L325.68,185.43L324.27,185.14L323.72,185.64L322.26,185.83L321.41,186.60L320.56,186.24L320.56,185.15L321.21,182.30L321.81,180.40L322.93,179.06L323.04,177.83L323.15,177.65L324.72,178.93L326.55,179.43L328.08,181.07L329.51,181.79L331.37,181.38L332.80,180.24L331.52,185.90L331.51,190.75L332.08,195.20L333.29,198.70L334.00,199.36L334.76,199.12L336.61,201.08L334.97,202.01L334.36,203.04L332.63,202.86L330.92,203.45L329.97,203.12L324.69,206.20L323.37,205.50L324.03,202.58L323.96,201.93L323.56,201.46L323.73,200.89L322.37,200.10L321.49,200.19L319.70,201.62L318.49,201.91L317.52,201.63L316.39,201.90L314.30,200.44L312.40,201.16L309.27,201.13L308.21,200.80L307.07,201.48L306.15,201.54Z"><title>Aomori</title></path>
<path data-code="JP-03" data-name="Iwate" d="M336.61,201.08L337.71,202.51L339.43,205.89L338.93,206.79L340.05,207.74L339.52,208.25L339.44,209.21L341.31,210.79L341.52,211.71L341.19,212.33L341.71,213.22L342.35,216.00L341.51,219.02L341.61,219.30L342.83,218.43L342.74,219.60L343.43,220.33L342.46,221.64L341.37,222.24L341.69,222.61L342.13,222.57L342.84,221.75L343.22,222.12L342.90,222.37L342.87,223.03L341.86,223.27L341.12,223.86L341.57,224.06L340.54,225.03L341.27,225.03L341.86,224.59L341.91,225.10L340.71,225.79L341.02,226.21L340.43,226.21L340.43,226.78L341.27,226.75L341.31,227.22L340.97,227.55L340.07,227.65L340.34,228.10L340.91,228.09L340.72,228.46L339.46,228.83L340.68,230.00L340.28,230.18L339.31,229.86L338.99,230.15L339.95,230.74L339.10,230.88L339.52,231.62L337.42,231.31L337.78,232.35L337.17,232.64L337.53,232.93L337.24,233.23L336.47,232.49L336.83,232.19L336.08,232.16L335.89,232.78L333.42,232.37L333.12,232.87L333.10,233.98L332.57,234.81L332.44,236.16L331.80,236.68L330.29,236.09L328.67,237.34L327.01,236.39L326.64,235.69L327.05,235.24L326.93,235.00L324.54,234.76L321.44,233.23L320.45,233.12L321.13,231.05L320.27,229.67L321.09,228.35L320.47,226.94L319.40,225.85L318.67,223.70L320.09,220.40L321.40,218.33L320.99,216.70L321.62,215.32L320.92,214.62L320.86,214.13L321.24,213.59L322.40,213.32L321.95,211.61L321.82,209.56L322.14,208.49L322.13,206.86L323.37,205.50L324.90,206.16L326.20,205.10L329.97,203.12L330.92,203.45L332.63,202.86L334.36,203.04L334.97,202.01L336.61,201.08Z"><title>Iwate</title></path>
<path data-code="JP-04" data-name="Miyagi" d="M335.89,232.78L336.48,235.25L335.83,234.42L334.98,234.61L334.96,235.95L333.81,237.05L334.61,237.89L334.60,238.43L334.18,238.35L332.78,239.33L332.97,239.67L334.05,239.95L332.85,241.29L333.69,242.03L333.94,241.73L334.27,242.38L334.18,243.17L333.69,242.60L333.34,243.61L333.57,243.92L332.91,244.28L333.21,245.08L333.75,244.86L334.29,245.23L333.79,245.12L333.45,245.52L333.87,245.77L334.18,246.99L333.88,247.74L332.79,247.07L332.85,246.56L332.13,246.12L332.38,245.52L332.17,245.33L331.44,245.32L330.51,244.72L328.21,245.22L327.84,245.53L327.64,246.56L327.33,246.56L326.98,245.52L326.06,245.75L325.52,246.85L326.05,246.80L326.08,247.16L324.45,249.04L323.36,252.41L323.49,255.82L322.12,256.11L322.03,257.76L320.77,258.04L320.79,258.37L319.31,257.77L319.04,256.46L318.56,255.97L317.21,255.53L315.86,255.71L314.90,254.68L314.23,254.43L312.75,254.62L311.86,254.23L312.08,252.50L313.77,251.78L315.04,250.21L315.45,247.44L316.95,245.03L317.39,243.78L316.92,242.60L316.50,239.97L317.64,239.36L317.97,237.31L316.48,234.62L317.26,234.82L320.45,233.12L321.44,233.23L324.54,234.76L326.93,235.00L327.05,235.24L326.64,235.69L327.01,236.39L328.67,237.34L330.29,236.09L331.80,236.68L332.44,236.16L332.57,234.81L333.10,233.98L333.12,232.87L333.42,232.37L335.89,232.78Z"><title>Miyagi</title></path>
<path data-code="JP-07" data-name="Fukushima" d="M323.49,255.82L325.06,259.30L324.80,260.33L325.16,260.99L325.40,266.78L324.80,269.99L324.80,271.98L323.97,275.56L321.24,277.27L321.11,278.12L317.91,277.06L317.13,276.42L317.03,277.76L315.57,279.17L315.02,279.23L311.29,276.44L311.19,274.84L310.22,273.58L308.85,272.58L305.68,271.77L304.70,272.05L303.47,273.10L301.50,273.70L297.42,275.78L295.90,276.93L293.41,276.34L293.82,273.99L293.72,271.85L293.18,270.73L292.73,270.79L292.33,270.01L293.25,267.26L292.91,265.90L293.56,265.29L296.29,264.99L296.96,264.08L299.31,264.01L299.02,261.49L302.30,257.30L303.46,257.62L305.95,257.49L306.97,258.67L307.99,258.68L309.19,259.39L309.97,258.97L311.04,258.95L311.85,258.15L311.86,254.23L312.75,254.62L314.23,254.43L314.90,254.68L315.86,255.71L317.21,255.53L318.56,255.97L319.04,256.46L319.31,257.77L320.53,258.38L320.89,258.26L320.77,258.04L322.03,257.76L322.29,255.96L323.49,255.82Z"><title>Fukushima</title></path>
<path data-code="JP-08" data-name="Ibaraki" d="M321.11,278.12L320.14,279.79L319.30,283.00L318.07,285.39L317.83,286.94L318.09,288.44L317.02,290.16L317.27,292.77L318.46,295.93L322.16,301.93L321.14,301.69L319.28,299.79L316.80,298.59L314.02,298.67L312.74,299.40L310.46,299.57L309.37,299.32L306.60,298.05L303.72,294.55L302.46,294.40L301.62,293.53L301.06,291.87L301.94,291.84L303.31,291.20L304.33,289.80L305.29,289.60L306.32,288.47L309.89,287.82L310.31,287.34L311.26,285.16L311.01,281.74L311.81,280.85L311.29,276.44L315.02,279.23L315.57,279.17L317.03,277.76L317.13,276.42L317.91,277.06L321.11,278.12Z"><title>Ibaraki</title></path>
<path data-code="JP-12" data-name="Chiba" d="M322.20,301.87L322.55,302.19L322.22,302.88L321.66,302.33L319.77,303.00L319.69,302.65L318.72,302.87L315.61,305.49L314.55,307.10L313.90,309.44L314.38,311.15L314.04,313.38L313.75,313.82L313.25,313.73L312.76,314.80L312.29,314.45L311.57,314.71L311.29,315.18L309.49,314.96L308.90,315.97L306.97,317.15L306.50,318.10L306.47,318.85L305.84,319.57L304.38,319.72L303.82,318.79L302.87,318.52L302.80,318.10L303.78,318.10L304.85,317.60L304.25,317.00L304.50,316.35L304.27,314.70L303.96,314.22L304.06,313.33L304.77,312.80L304.79,312.32L304.49,311.31L303.29,310.79L304.05,310.57L304.41,309.54L305.25,309.80L305.52,309.49L305.38,308.54L307.24,307.47L308.39,305.98L308.71,306.03L308.92,305.46L308.64,305.47L308.53,304.68L306.85,303.29L305.74,303.43L306.07,303.97L305.33,304.45L304.75,304.08L305.13,302.67L304.75,300.95L304.89,299.00L302.80,294.51L303.72,294.55L306.60,298.05L309.37,299.32L310.46,299.57L312.74,299.40L314.02,298.67L316.80,298.59L319.28,299.79L321.14,301.69L322.20,301.87Z"><title>Chiba</title></path>
<path data-code="JP-13" data-name="Tokyo" d="M304.75,304.08L304.51,303.96L304.28,304.45L303.75,303.94L303.44,304.69L303.02,303.62L302.89,304.09L303.61,306.04L303.39,306.65L299.06,304.49L298.15,304.94L297.57,304.82L298.19,305.64L297.87,306.01L297.72,307.12L296.60,305.70L294.27,305.14L290.23,302.70L289.26,301.62L288.25,299.73L289.84,298.83L290.66,299.35L294.36,300.29L296.81,301.51L298.50,300.96L298.99,301.52L300.18,301.36L302.89,300.59L304.75,300.95L305.13,302.67L304.75,304.08ZM330.94,535.82L331.07,536.08L330.46,536.26L329.74,537.16L329.92,535.90L330.94,535.82ZM345.59,496.14L345.28,496.30L345.36,496.73L345.00,496.44L344.15,494.54L345.11,494.96L344.93,495.44L345.36,495.55L345.23,495.98L345.59,496.14ZM345.59,486.62L346.29,486.56L346.31,487.51L346.03,487.72L345.68,487.49L345.36,486.91L345.96,487.22L345.59,486.62ZM303.47,357.44L304.98,358.46L304.25,359.48L303.41,359.09L302.57,357.49L303.06,357.13L303.47,357.44ZM298.14,337.66L298.27,336.98L298.78,336.56L299.35,336.53L299.68,337.04L298.97,338.16L298.47,338.19L298.14,337.66ZM294.34,330.50L294.88,330.03L294.80,331.10L294.30,332.06L294.05,331.66L294.34,330.50ZM296.93,322.27L297.49,322.78L297.56,324.45L296.99,324.49L295.90,323.95L295.76,323.57L295.85,321.92L296.93,322.27ZM329.71,522.40L329.48,521.68L329.88,521.81L329.71,522.40ZM345.52,485.47L345.55,484.62L345.78,484.86L345.52,485.47ZM312.53,413.96L312.85,414.09L312.51,414.33L312.53,413.96ZM302.86,372.04L302.87,371.65L303.17,372.28L302.86,372.04ZM300.52,341.41L300.52,342.02L299.79,341.90L299.99,341.19L300.52,341.41ZM552.00,546.10L551.78,546.45L551.55,546.04L552.00,546.10Z"><title>Tokyo</title></path>
<path data-code="JP-14" data-name="Kanagawa" d="M303.39,306.65L302.12,307.65L300.86,307.88L301.65,308.35L301.64,309.02L300.75,309.00L301.12,309.53L300.97,311.22L302.67,312.26L302.33,312.60L302.36,313.16L301.68,313.12L301.29,313.44L301.18,313.78L301.61,314.58L301.25,314.70L300.41,314.72L300.15,313.27L300.54,313.06L299.14,311.00L298.13,311.16L296.87,310.77L292.82,311.96L292.16,312.56L292.37,314.67L291.72,314.37L291.26,315.07L290.10,314.69L289.32,313.67L289.05,312.66L289.61,311.38L289.37,309.44L287.85,309.44L288.43,308.24L291.20,306.60L291.74,303.61L294.27,305.14L296.60,305.70L297.72,307.12L297.87,306.01L298.19,305.64L297.57,304.82L298.15,304.94L298.85,304.46L303.39,306.65Z"><title>Kanagawa</title></path>
<path data-code="JP-22" data-name="Shizuoka" d="M291.26,315.07L290.93,316.45L291.46,316.53L291.12,317.64L292.10,318.82L292.07,320.35L291.34,320.66L290.51,322.34L289.58,323.29L289.35,324.36L289.49,325.07L288.56,324.83L286.71,326.22L285.59,325.12L285.64,324.62L285.16,324.18L285.11,323.38L285.64,322.90L285.18,321.58L285.43,320.87L285.28,320.16L285.91,319.58L285.43,318.02L285.85,317.02L287.74,317.16L287.98,316.93L286.15,314.98L284.27,314.62L281.78,315.53L281.32,316.50L280.80,316.89L280.96,317.78L280.96,317.33L281.39,317.22L281.08,318.01L278.26,319.64L277.82,320.68L278.04,321.29L277.21,322.59L275.85,323.74L275.46,325.25L275.59,325.67L276.28,326.08L276.16,326.25L271.50,324.71L270.19,324.69L268.42,325.29L266.52,324.62L262.74,324.62L262.72,322.88L263.10,321.65L264.56,320.98L265.37,320.17L266.29,318.71L266.54,317.53L268.04,315.85L268.66,313.43L272.55,310.77L273.57,310.38L274.23,309.66L273.99,308.53L274.50,307.75L274.45,305.89L275.17,305.22L275.51,304.17L275.81,304.51L276.30,306.52L276.04,309.73L276.20,311.09L278.08,311.34L278.64,313.23L279.41,314.06L280.35,314.13L280.96,313.43L280.93,311.30L281.24,309.43L281.43,308.83L281.82,308.66L284.29,310.09L289.37,309.44L289.61,311.38L289.09,312.25L289.14,313.21L289.94,314.57L291.26,315.07Z"><title>Shizuoka</title></path>
<path data-code="JP-23" data-name="Aichi" d="M262.74,324.62L257.00,326.36L254.82,326.59L255.81,324.75L256.48,325.59L259.09,323.91L259.48,323.33L259.76,323.39L259.85,324.22L259.96,323.45L260.51,323.43L260.01,323.21L260.17,322.43L259.44,321.69L257.94,321.71L257.84,322.50L257.53,322.63L257.54,322.20L254.85,322.22L253.80,321.17L254.16,319.21L253.32,320.87L253.05,322.37L253.88,323.25L254.03,324.07L252.01,323.15L251.78,322.52L252.15,321.08L251.79,320.34L251.51,320.32L251.44,318.55L252.43,316.65L252.53,315.68L252.29,315.59L251.88,316.74L251.78,315.98L251.56,315.90L251.72,316.89L251.26,317.00L251.02,316.55L250.99,317.07L250.18,317.03L248.81,314.62L248.93,312.53L250.34,310.16L251.13,310.27L253.71,309.38L254.76,310.01L255.78,311.50L257.49,312.41L259.68,311.86L261.93,312.97L264.14,311.81L263.98,312.52L264.62,313.56L266.15,313.12L268.66,313.43L268.04,315.85L266.54,317.53L266.29,318.71L265.37,320.17L264.56,320.98L263.10,321.65L262.72,322.88L262.74,324.62ZM250.99,320.23L251.44,320.53L251.29,321.01L250.99,320.23Z"><title>Aichi</title></path>
<path data-code="JP-24" data-name="Mie" d="M250.18,317.03L249.72,317.00L248.56,317.93L248.27,318.70L248.60,318.86L248.32,319.09L248.21,319.96L246.38,322.59L246.11,324.41L246.58,325.03L246.66,326.09L248.10,326.32L250.19,327.99L251.95,328.58L252.49,329.61L253.06,329.68L253.08,330.92L252.35,331.07L252.96,331.37L252.49,331.94L252.71,333.25L251.65,333.69L250.93,333.55L250.56,333.12L251.76,333.41L251.65,332.96L251.88,333.12L252.01,332.67L251.84,332.39L251.16,332.38L251.16,332.82L250.56,332.38L249.32,332.65L249.69,331.88L249.39,331.81L248.40,332.25L248.70,332.59L247.66,333.30L247.07,332.96L246.83,333.41L246.17,333.12L245.87,333.69L246.03,334.05L245.27,333.85L244.30,334.59L242.90,335.03L242.24,335.66L242.21,336.27L242.60,336.63L242.41,337.04L241.97,337.22L241.43,336.64L240.83,337.35L241.91,338.59L241.79,339.57L241.34,339.57L241.07,339.11L240.59,339.57L240.99,339.78L241.01,340.28L240.70,340.14L240.49,340.65L239.89,340.75L239.40,341.30L238.84,341.28L238.22,342.23L236.89,345.67L236.14,345.29L234.60,343.51L234.33,342.42L234.82,342.15L235.10,341.47L236.26,340.71L237.31,338.86L238.72,338.71L238.51,337.89L238.92,336.26L239.08,333.81L238.25,330.54L238.68,329.98L240.11,329.58L240.70,328.56L239.70,327.55L238.05,326.93L238.02,325.73L237.67,325.34L238.27,324.93L238.04,323.94L237.06,322.42L238.44,321.84L238.98,321.15L238.76,320.70L238.98,320.34L241.22,320.51L243.01,319.88L243.69,319.16L244.14,318.29L244.77,314.77L243.99,313.26L246.27,312.68L247.25,313.86L248.81,314.62L250.18,317.03ZM252.64,328.34L252.94,328.22L252.49,328.80L252.30,328.46L252.64,328.34ZM252.61,327.61L252.96,327.42L252.84,327.74L251.89,327.95L252.61,327.61Z"><title>Mie</title></path>
<path data-code="JP-30" data-name="Wakayama" d="M236.89,345.67L236.66,346.38L235.90,347.14L236.30,347.66L236.06,347.98L234.98,349.03L233.66,349.54L233.20,350.23L233.31,350.91L232.79,351.07L232.89,350.04L230.65,349.76L227.27,348.56L226.26,347.64L226.35,347.11L226.04,346.59L225.21,345.99L225.48,345.50L226.52,345.35L226.34,345.08L224.94,343.97L223.55,343.62L222.15,341.61L221.55,341.25L220.50,341.52L220.47,341.07L220.86,340.97L220.69,340.44L221.24,339.93L220.82,339.84L220.80,339.44L222.30,338.43L222.15,337.92L221.13,337.51L221.73,336.64L221.62,336.03L222.75,336.05L222.80,335.76L222.38,334.97L222.08,334.99L221.57,333.78L220.54,333.25L220.72,332.85L220.96,332.57L221.22,332.96L222.77,333.10L227.48,331.81L228.39,331.89L230.81,331.01L231.09,332.87L231.89,334.41L230.69,334.82L228.99,337.58L230.10,339.45L230.04,341.63L230.48,342.04L231.43,341.53L233.80,341.69L234.33,342.42L234.60,343.51L236.14,345.29L236.89,345.67Z"><title>Wakayama</title></path>
<path data-code="JP-27" data-name="Ōsaka" d="M220.96,332.57L221.31,332.16L223.13,331.64L223.97,330.91L226.00,328.60L226.01,327.87L226.63,327.40L226.76,325.93L226.55,324.88L227.33,323.37L227.06,321.99L227.18,319.64L225.90,318.58L225.84,317.64L227.25,317.93L228.91,319.51L229.35,319.38L229.24,319.02L229.54,318.64L229.95,319.30L230.80,319.74L232.00,322.17L230.38,327.13L231.29,329.04L231.14,330.81L228.39,331.89L227.48,331.81L222.77,333.10L221.22,332.96L220.96,332.57ZM223.07,329.76L223.69,329.24L223.98,329.65L223.40,330.06L223.07,329.76Z"><title>Ōsaka</title></path>
<path data-code="JP-33" data-name="Okayama" d="M207.28,323.80L205.60,323.40L205.74,323.74L206.82,324.04L204.66,325.35L205.26,325.35L204.53,326.20L203.40,326.53L202.77,326.04L201.84,325.95L200.83,326.41L200.62,326.61L200.93,327.09L201.95,326.25L202.75,326.53L202.74,326.91L202.03,327.55L202.15,327.84L201.64,327.66L200.82,329.32L198.81,329.08L198.89,329.61L198.33,329.49L197.09,327.68L192.64,329.90L193.56,328.63L193.19,328.44L192.17,328.86L192.24,327.90L191.38,326.28L191.30,325.09L190.81,323.83L190.75,322.02L189.84,320.22L189.74,317.64L189.04,316.50L191.03,315.33L191.37,314.24L193.20,313.80L193.40,312.86L193.95,312.44L194.78,310.72L197.65,311.42L198.84,312.48L200.69,310.76L201.71,310.64L202.05,311.43L203.93,312.01L205.00,314.13L206.27,313.62L207.34,313.60L208.87,312.69L208.85,314.58L206.56,317.57L206.44,321.09L207.38,322.49L207.28,323.80Z"><title>Okayama</title></path>
<path data-code="JP-34" data-name="Hiroshima" d="M192.17,328.86L191.75,328.96L191.63,329.89L190.38,331.52L189.34,332.09L189.13,331.71L189.93,331.14L188.94,330.79L189.25,330.37L188.74,329.84L188.43,330.92L187.60,331.66L188.06,332.38L187.66,332.96L187.23,332.67L186.04,333.56L185.74,333.41L185.67,332.17L186.40,331.44L186.39,332.25L186.74,332.16L186.99,331.45L187.36,331.37L186.76,330.79L186.04,330.63L185.79,330.79L185.91,331.46L185.44,331.86L182.86,332.23L181.83,332.82L181.53,332.31L180.23,333.18L180.40,333.93L179.20,334.14L178.38,334.70L177.87,334.73L177.63,334.29L176.59,334.85L176.42,334.59L176.69,334.29L175.70,332.82L175.70,331.94L176.18,331.80L175.95,331.41L175.58,331.21L174.61,331.48L173.59,331.14L172.35,331.97L170.77,333.85L171.09,334.90L169.69,334.30L169.09,333.64L168.11,331.28L167.59,328.38L168.80,326.62L169.52,324.67L169.39,323.89L171.22,322.23L171.94,322.55L173.05,322.14L173.72,322.31L174.31,321.87L175.80,322.08L178.58,321.04L178.79,320.66L178.14,319.84L179.97,318.39L181.58,316.16L184.30,315.86L185.06,316.24L186.10,316.06L189.04,316.50L189.74,317.64L189.84,320.22L190.75,322.02L190.81,323.83L191.30,325.09L191.38,326.28L192.24,327.90L192.17,328.86ZM176.60,337.43L174.85,337.08L175.81,336.14L175.58,335.60L175.98,335.23L176.54,335.31L176.30,335.60L176.54,336.64L177.00,336.42L176.86,337.34L176.60,337.43ZM179.82,334.75L180.22,335.17L179.84,335.54L178.95,334.90L179.30,334.61L179.82,334.75ZM183.02,333.03L183.22,333.09L182.94,334.22L181.77,334.36L181.71,333.83L183.02,333.03ZM172.80,332.45L172.92,332.93L172.58,333.30L172.06,333.76L171.57,333.73L172.11,332.71L172.80,332.45Z"><title>Hiroshima</title></path>
<path data-code="JP-01" data-name="Hokkaidō" d="M375.45,121.84L376.84,122.05L376.22,122.24L374.00,121.62L374.39,121.46L375.45,121.84ZM408.25,138.32L409.26,138.61L406.79,139.96L405.83,139.97L404.83,141.10L403.86,142.85L404.10,142.98L402.73,142.66L400.10,142.88L398.85,143.58L397.22,143.85L396.95,144.71L397.75,144.90L396.74,145.23L396.12,145.87L394.85,145.64L395.28,146.39L395.05,146.82L393.04,147.03L392.03,146.44L391.99,145.74L391.27,145.59L390.55,146.19L390.16,147.03L391.00,147.99L390.27,148.21L387.77,147.68L385.41,147.94L384.11,147.52L383.54,146.60L382.93,146.54L380.47,147.10L378.00,148.16L375.27,149.92L369.82,155.07L365.85,161.15L365.43,163.06L365.54,165.68L365.05,167.42L364.39,168.25L363.97,169.50L362.93,168.79L361.75,167.37L359.03,165.71L355.48,164.58L351.78,162.61L350.26,162.17L347.13,160.13L345.14,158.14L343.30,157.91L341.86,157.06L340.90,156.03L338.99,155.15L335.83,154.81L332.17,155.90L329.27,157.96L326.27,159.59L324.96,161.21L324.27,161.56L323.47,160.94L324.24,160.99L324.43,160.70L323.23,160.00L322.94,158.97L320.00,155.91L319.17,155.59L315.91,155.59L314.44,156.46L312.84,158.72L312.19,160.48L312.25,162.42L315.13,164.27L316.76,165.71L319.64,165.11L320.70,165.78L321.81,167.46L324.22,169.81L326.54,170.71L328.17,172.25L326.80,172.68L324.78,174.12L321.58,172.87L320.72,172.87L319.55,173.41L319.38,173.10L319.99,172.38L319.88,172.00L318.71,171.66L317.73,173.60L315.07,174.78L314.73,175.56L314.90,177.29L314.71,178.00L311.95,179.03L311.36,179.57L310.80,180.77L309.54,180.34L308.89,180.50L307.80,179.88L306.78,176.91L307.48,174.44L308.38,173.09L308.59,172.23L309.35,171.94L309.30,170.83L309.68,170.54L309.79,169.81L309.68,168.34L307.62,165.71L305.86,165.00L305.09,163.80L303.60,162.92L303.06,161.32L304.27,158.91L304.49,156.98L304.20,155.38L304.39,154.57L304.98,153.79L307.80,153.30L308.81,152.28L309.52,152.00L310.65,150.56L312.07,151.78L312.45,151.51L312.60,150.53L313.75,148.86L316.27,146.67L316.37,146.26L315.68,144.83L313.06,142.09L312.91,141.23L313.45,139.64L314.74,139.57L315.29,138.73L315.67,138.63L321.09,142.41L324.86,141.70L325.06,141.81L324.74,142.47L325.05,142.85L327.63,143.58L330.00,142.38L332.09,139.80L332.38,137.88L330.98,135.40L331.53,134.22L330.58,131.36L331.42,129.68L333.93,128.61L334.92,127.88L335.90,126.55L336.42,123.79L336.16,119.30L336.34,118.53L337.77,116.15L338.62,111.50L337.88,106.29L334.95,100.33L334.74,99.42L334.90,98.48L336.05,96.56L335.84,95.20L336.03,94.50L336.54,94.35L336.80,95.25L339.10,94.81L340.01,94.27L340.07,93.50L340.79,92.82L341.51,92.94L343.19,95.25L346.08,97.44L351.65,103.45L353.26,106.33L359.41,112.68L364.94,116.78L365.89,117.07L366.84,118.43L369.42,119.82L373.35,121.17L371.66,121.32L372.26,121.98L372.50,122.79L376.17,123.16L377.25,122.36L379.36,122.46L380.27,122.95L379.49,123.51L379.11,124.54L379.94,124.79L380.57,124.14L381.04,122.84L381.52,122.67L381.88,122.91L381.75,123.52L382.14,124.43L383.01,125.57L383.92,126.15L390.25,127.04L391.84,126.45L395.65,122.61L398.33,120.82L399.18,119.41L400.78,117.83L401.34,118.97L401.32,119.90L399.89,121.92L399.36,123.74L397.33,126.22L396.66,127.77L396.72,128.60L396.05,130.04L396.83,131.91L398.63,133.99L400.26,138.75L401.70,140.07L401.14,140.15L399.53,139.19L399.33,139.60L400.32,140.12L400.13,140.36L400.44,140.69L403.01,141.19L403.86,141.70L403.50,140.81L405.01,139.42L406.40,138.47L408.25,138.32ZM299.22,162.77L299.49,163.01L298.73,164.24L298.52,165.81L297.41,166.79L296.80,164.68L297.03,163.87L297.53,163.36L299.22,162.77ZM400.26,133.91L401.16,134.73L399.77,135.52L399.65,135.09L400.62,134.51L398.35,133.47L400.26,133.91ZM330.40,100.16L330.55,100.47L330.10,101.18L329.07,101.72L327.30,100.70L326.96,100.21L327.22,99.79L326.98,99.35L328.22,98.52L329.37,99.02L330.40,100.16ZM325.59,94.22L325.96,94.77L325.29,98.18L325.29,97.60L324.65,96.36L324.68,94.89L324.08,93.94L324.42,93.85L324.78,94.43L325.59,94.22ZM296.14,178.18L296.16,178.56L295.58,178.71L295.57,178.14L296.14,178.18Z"><title>Hokkaidō</title></path>
<path data-code="JP-47" data-name="Okinawa" d="M23.36,544.33L25.46,544.85L25.49,545.40L24.38,547.18L20.79,546.36L21.06,545.79L22.09,545.87L22.57,543.76L23.36,544.33ZM9.12,542.56L9.40,542.88L9.05,543.31L8.00,543.21L8.30,542.59L9.12,542.56ZM32.38,540.23L31.41,542.27L30.85,544.93L30.32,545.50L29.07,545.39L28.75,544.99L29.12,544.47L28.76,543.85L27.98,543.39L28.87,542.67L29.35,543.26L30.32,543.15L32.12,540.15L32.38,540.23ZM50.93,535.98L52.08,536.78L50.87,537.16L48.68,537.03L48.96,534.40L48.70,533.78L49.30,534.11L50.42,535.97L50.93,535.98ZM153.81,512.62L154.20,512.98L153.76,513.82L153.06,513.61L153.48,512.69L153.81,512.62ZM75.88,502.43L75.51,503.47L73.91,502.06L75.17,501.66L75.88,502.43ZM102.66,492.92L102.14,494.97L101.01,496.42L99.52,496.73L99.06,497.53L99.30,497.70L99.17,498.11L97.72,498.19L95.82,500.31L94.14,500.52L93.91,500.86L94.37,501.26L94.61,502.43L95.34,503.33L93.73,503.19L92.72,505.33L92.80,506.00L93.65,505.96L93.18,506.97L92.81,507.35L92.44,507.27L91.92,508.04L90.63,508.15L90.40,505.36L91.09,505.02L92.21,503.10L91.87,500.76L93.32,500.39L93.77,499.51L95.64,498.58L96.04,497.90L95.97,497.24L94.73,496.70L94.61,495.11L96.52,495.14L96.76,495.41L96.66,496.29L97.75,496.17L98.69,495.55L98.69,494.92L100.70,492.83L101.21,491.01L102.66,492.92ZM109.02,478.86L108.97,479.27L107.49,480.79L106.56,481.08L105.98,480.63L106.18,479.65L107.59,479.70L109.02,478.86ZM114.08,471.24L114.70,471.78L114.70,472.41L113.86,473.71L113.04,473.90L112.36,472.72L112.51,472.13L112.15,470.95L112.42,469.53L113.34,469.04L114.08,471.24ZM119.47,464.65L119.98,464.57L120.42,465.36L119.95,465.52L119.55,465.06L119.17,465.56L118.88,465.09L118.15,465.09L117.44,463.14L118.26,463.03L118.16,463.44L118.99,463.47L118.69,464.13L119.47,464.65ZM132.34,459.22L131.73,460.99L130.29,460.85L132.34,459.22ZM126.68,457.33L126.83,458.03L125.13,458.64L123.02,461.06L122.12,460.99L122.12,461.51L121.64,461.86L122.48,462.59L121.40,463.26L121.31,463.71L120.44,463.77L120.86,464.65L119.30,463.40L118.99,462.30L118.52,462.62L116.83,461.86L117.13,461.59L119.02,461.75L119.36,461.13L118.72,461.12L118.26,460.69L118.90,460.18L120.08,459.38L122.18,458.83L122.61,458.20L123.33,458.80L123.63,458.00L125.25,456.89L125.08,457.83L125.56,457.81L126.08,456.89L126.07,456.31L126.51,456.63L126.68,457.33ZM93.41,494.23L93.43,494.84L92.51,494.72L92.44,494.38L93.41,494.23ZM96.66,486.62L96.31,487.73L95.44,488.37L96.66,486.62ZM154.42,510.99L155.09,511.30L154.77,511.60L154.42,510.99ZM83.10,497.15L83.49,497.42L82.97,497.61L83.10,497.15ZM104.71,487.56L104.60,488.14L103.69,487.71L104.26,487.16L104.71,487.56ZM47.70,534.61L47.95,535.25L47.74,535.49L47.09,535.58L46.60,535.25L47.01,534.43L47.70,534.61ZM85.69,505.37L85.41,506.66L85.28,505.54L85.69,505.37ZM18.64,515.04L18.04,515.12L18.39,514.80L18.64,515.04Z"><title>Okinawa</title></path>
<path data-code="JP-10" data-name="Gunma" d="M291.21,274.00L292.25,274.95L292.54,275.69L293.36,276.00L293.41,276.34L295.90,276.93L295.50,277.83L296.07,278.81L295.43,279.77L294.96,282.43L295.80,283.18L297.24,283.49L297.45,283.97L295.58,287.75L295.62,288.55L297.32,290.47L298.42,290.35L300.22,290.82L300.79,291.39L301.42,292.96L299.47,292.13L297.89,292.41L296.24,291.46L291.56,290.42L290.47,292.01L290.19,293.25L285.23,295.63L284.36,296.86L282.84,295.55L282.82,293.72L282.07,292.93L282.03,292.67L282.67,292.23L282.36,290.44L283.11,289.57L283.00,288.00L282.30,287.30L279.97,287.71L278.89,286.92L278.67,286.21L279.16,284.02L279.72,282.84L280.73,282.41L280.96,281.49L285.99,280.01L286.49,279.04L287.67,278.54L288.03,278.19L288.15,277.44L288.98,276.94L288.99,275.53L290.19,275.12L291.21,274.00Z"><title>Gunma</title></path>
<path data-code="JP-20" data-name="Nagano" d="M283.98,280.59L280.82,281.63L280.73,282.41L279.62,283.00L278.67,286.21L278.89,286.92L279.75,287.66L282.04,287.27L282.85,287.66L283.16,289.29L282.36,290.44L282.67,292.23L282.03,292.67L282.07,292.93L282.82,293.72L282.84,295.55L284.36,296.86L284.62,298.42L283.69,299.22L282.99,299.33L282.33,298.52L280.01,298.56L279.57,297.51L278.38,297.11L276.96,299.31L275.86,299.41L275.23,300.77L275.62,301.62L275.02,302.65L275.51,304.17L275.17,305.22L274.45,305.89L274.53,307.54L273.99,308.53L274.29,309.37L274.04,309.95L268.66,313.43L266.15,313.12L264.44,313.46L263.98,312.52L264.68,310.57L264.43,309.65L265.13,309.37L264.80,307.00L263.79,306.06L263.49,304.02L262.32,301.91L260.38,300.83L260.20,300.45L261.42,298.76L262.65,298.58L264.66,295.54L264.74,295.00L263.99,293.69L264.44,292.45L264.40,291.71L265.16,290.65L265.48,289.48L265.20,288.79L264.45,288.15L265.42,287.16L266.40,285.12L266.38,284.48L267.15,283.60L267.38,279.65L268.58,279.04L269.77,276.56L271.88,277.04L272.21,277.52L272.20,278.44L272.84,278.96L273.56,278.40L275.84,277.83L276.70,278.03L277.09,276.81L277.74,276.43L278.48,275.32L280.83,274.51L281.80,274.82L282.26,276.79L283.76,278.35L283.98,280.59Z"><title>Nagano</title></path>
<path data-code="JP-09" data-name="Tochigi" d="M297.32,290.47L295.50,288.11L297.45,283.97L297.24,283.49L295.80,283.18L294.96,282.43L295.43,279.77L296.07,278.81L295.50,277.83L295.90,276.93L297.42,275.78L301.50,273.70L303.47,273.10L305.13,271.86L306.40,271.86L308.85,272.58L310.38,273.71L311.24,275.05L311.53,279.94L311.81,280.85L311.01,281.74L311.26,285.16L310.12,287.63L306.32,288.47L305.29,289.60L304.33,289.80L303.31,291.20L301.94,291.84L301.06,291.87L299.92,290.65L297.32,290.47Z"><title>Tochigi</title></path>
<path data-code="JP-21" data-name="Gifu" d="M259.38,286.55L259.71,287.21L260.52,286.81L264.45,288.15L265.20,288.79L265.48,289.48L265.16,290.65L264.40,291.71L264.44,292.45L263.99,293.69L264.74,295.00L264.66,295.54L262.65,298.58L261.42,298.76L260.20,300.45L260.38,300.83L262.32,301.91L263.49,304.02L263.79,306.06L264.80,307.00L265.13,309.37L264.43,309.65L264.68,310.57L264.14,311.81L261.93,312.97L259.68,311.86L257.49,312.41L255.78,311.50L254.76,310.01L253.71,309.38L251.13,310.27L250.34,310.16L248.93,312.53L248.81,314.62L247.25,313.86L246.27,312.68L243.99,313.26L243.60,312.64L243.58,311.89L244.15,309.18L243.97,307.91L243.30,306.18L242.48,306.01L241.51,303.79L242.34,301.68L243.14,301.17L245.49,301.79L245.91,301.30L250.48,300.68L251.07,299.41L250.66,298.63L249.57,298.02L249.25,297.42L249.64,294.61L251.32,291.18L250.56,289.97L251.28,289.92L251.91,288.88L253.41,289.23L253.80,290.37L257.09,286.96L258.04,287.04L259.38,286.55Z"><title>Gifu</title></path>
<path data-code="JP-25" data-name="Shiga" d="M241.51,303.79L242.48,306.01L243.30,306.18L243.97,307.91L244.15,309.18L243.60,312.64L244.77,314.77L244.14,318.29L243.36,319.60L242.47,320.17L241.22,320.51L238.98,320.34L238.76,320.70L238.98,321.15L238.44,321.84L237.06,322.42L236.80,321.57L235.76,320.57L234.53,320.15L234.43,319.00L233.75,317.56L234.14,315.00L233.82,313.05L233.97,311.96L232.49,310.37L233.80,309.36L234.84,309.43L235.79,306.84L236.64,307.32L237.28,306.83L238.42,306.59L238.68,305.65L239.38,305.66L239.57,305.14L239.24,303.40L239.93,303.16L241.51,303.79Z"><title>Shiga</title></path>
<path data-code="JP-11" data-name="Saitama" d="M291.56,290.42L296.24,291.46L297.89,292.41L299.47,292.13L301.42,292.96L302.06,294.11L302.80,294.51L303.38,295.43L304.79,298.59L304.75,300.95L302.89,300.59L300.18,301.36L298.99,301.52L298.50,300.96L296.81,301.51L294.36,300.29L290.66,299.35L289.84,298.83L288.25,299.73L287.30,299.68L284.62,298.42L284.36,296.86L285.07,295.79L290.19,293.25L290.47,292.01L291.56,290.42Z"><title>Saitama</title></path>
<path data-code="JP-19" data-name="Yamanashi" d="M278.38,297.11L279.57,297.51L280.01,298.56L282.11,298.46L283.19,299.35L284.62,298.42L286.63,299.51L288.25,299.73L289.47,301.93L291.74,303.61L291.34,306.35L288.43,308.24L287.85,309.44L286.61,309.79L284.29,310.09L281.59,308.67L280.93,311.30L280.96,313.43L280.35,314.13L279.41,314.06L278.64,313.23L278.08,311.34L276.20,311.09L276.04,309.73L276.30,306.52L275.02,302.65L275.62,301.62L275.23,300.77L275.86,299.41L276.96,299.31L278.38,297.11Z"><title>Yamanashi</title></path>
<path data-code="JP-29" data-name="Nara" d="M237.64,323.67L238.04,323.94L238.27,324.93L237.67,325.34L238.02,325.73L238.05,326.93L239.70,327.55L240.70,328.56L240.11,329.58L238.68,329.98L238.25,330.54L239.08,333.81L238.92,336.26L238.51,337.89L238.78,338.57L237.31,338.86L236.26,340.71L235.10,341.47L234.82,342.15L234.33,342.42L233.80,341.69L233.24,341.55L232.57,341.76L231.43,341.53L230.31,342.01L229.96,341.31L230.10,339.45L228.99,337.58L230.69,334.82L231.89,334.41L231.09,332.87L230.81,331.01L231.23,330.66L231.29,329.04L230.38,327.13L231.85,322.73L234.06,324.02L235.42,323.48L237.16,324.09L237.64,323.67Z"><title>Nara</title></path>
  </g>
</svg>
