<?xml version="1.0" encoding="UTF-8"?>
<svg xmlns="http://www.w3.org/2000/svg" viewBox="0 0 560 640" class="pref-muni-svg" role="img" aria-label="行政区分">
  <g class="pref-muni-svg__paths" fill="#eaf2fb" stroke="#5b7fa8" stroke-width="0.6" stroke-linejoin="round">
<path data-code="KE-700" data-name="Rift Valley" d="M141.81,30.45L144.32,30.63L144.50,34.38L153.47,34.42L154.73,41.57L161.47,45.71L161.48,121.29L163.22,123.68L168.09,124.80L166.72,139.30L170.28,139.56L172.28,140.88L174.47,139.76L175.37,142.46L183.05,148.38L186.60,155.84L187.08,162.25L189.24,163.46L191.86,167.33L192.77,175.62L194.46,177.42L199.44,176.49L203.72,171.52L203.34,168.20L206.13,168.61L211.71,184.14L216.88,189.85L219.68,197.25L220.08,201.37L231.88,201.78L234.12,202.75L239.70,208.76L242.46,214.67L246.69,217.41L247.80,223.11L253.61,229.08L258.36,239.84L269.02,237.97L276.97,234.86L281.65,238.89L282.78,240.82L283.74,250.60L289.40,258.26L290.69,280.48L287.16,279.84L284.11,282.72L281.56,284.16L279.09,283.72L275.52,286.85L267.34,288.16L259.55,294.22L255.78,293.97L253.57,292.71L247.34,293.24L241.74,284.22L238.82,281.87L234.76,282.88L229.01,280.36L217.87,283.02L217.61,287.45L214.03,293.25L244.79,297.58L245.48,303.57L248.29,309.65L245.86,318.15L238.72,325.46L228.38,330.11L223.63,336.70L223.20,338.89L224.93,342.20L224.52,345.60L220.86,350.21L216.68,350.58L212.64,346.28L212.13,344.74L213.33,343.60L213.53,340.44L209.92,339.29L201.52,340.95L195.51,339.64L193.39,337.60L193.30,335.49L200.26,330.39L199.45,329.78L196.40,330.61L192.09,327.80L188.85,323.72L184.38,327.21L180.18,327.72L179.46,329.09L175.37,331.31L172.42,338.86L171.42,347.07L175.01,356.29L182.99,357.38L184.37,368.95L187.91,368.78L191.25,371.18L192.59,377.96L192.38,383.96L196.22,395.69L196.04,402.16L193.21,403.28L190.77,410.49L191.21,411.81L199.16,413.06L204.17,416.20L207.16,419.60L212.73,420.73L214.46,422.18L214.43,425.27L218.23,424.22L221.32,424.83L220.48,428.57L221.09,430.37L233.00,445.74L232.50,449.46L234.93,454.70L242.02,459.92L250.53,462.88L260.99,469.85L266.20,470.53L269.06,472.38L266.26,474.07L265.00,478.90L262.21,480.14L260.97,482.01L281.11,506.71L281.84,510.03L277.50,524.82L275.83,535.35L266.55,536.52L264.29,527.13L76.21,422.13L73.73,410.56L70.51,406.24L66.95,397.48L67.04,395.96L71.07,393.32L75.52,393.77L93.92,388.26L95.30,384.58L98.94,381.53L97.27,375.60L97.77,371.94L96.27,359.64L94.20,354.52L96.73,351.00L97.44,344.94L102.05,339.55L105.15,342.56L107.60,342.39L112.82,347.28L114.80,346.90L115.21,343.46L111.79,340.34L111.33,338.46L109.09,337.09L107.44,333.44L104.90,334.01L100.78,332.61L97.65,335.17L93.71,332.99L90.39,334.03L83.19,333.85L78.77,331.82L83.77,326.00L85.00,323.07L88.52,319.85L90.02,315.12L88.73,303.53L87.49,301.22L83.84,299.30L84.32,294.66L86.24,293.93L88.91,294.60L92.22,290.93L99.88,290.67L105.27,284.56L104.27,279.79L102.54,276.80L97.92,274.61L91.52,274.76L88.82,277.33L79.68,277.61L78.72,273.35L76.73,272.64L70.14,265.73L68.86,262.74L66.44,260.44L67.32,257.26L70.43,256.55L73.96,253.62L81.29,252.16L82.10,249.55L80.08,242.09L83.90,238.96L85.25,233.77L86.73,231.57L90.02,230.06L92.91,223.62L92.98,211.12L94.70,208.13L91.84,204.21L92.20,196.23L85.23,177.92L85.79,176.34L89.20,173.56L89.37,172.10L87.03,169.21L85.65,163.91L84.12,165.01L82.63,164.35L79.92,158.72L77.37,148.51L74.04,146.16L72.05,147.73L70.59,146.89L66.94,141.97L64.32,130.89L58.60,128.28L57.90,126.81L57.27,118.92L54.69,113.55L55.62,110.63L54.51,107.86L57.94,104.68L58.27,95.59L51.67,91.29L48.68,93.31L47.93,92.89L45.49,88.14L39.81,88.65L41.51,87.34L39.58,85.63L42.65,84.04L43.18,82.29L41.76,81.55L36.95,82.65L35.46,82.11L37.05,77.87L33.93,73.73L34.46,68.57L32.64,66.49L31.84,62.15L28.53,60.11L54.51,34.37L72.83,25.06L110.08,11.13L111.22,13.26L120.74,8.00L122.16,9.71L119.75,14.68L126.14,14.68L130.98,16.10L127.85,24.06L133.53,34.38L139.30,36.36L140.02,31.70L141.81,30.45Z"><title>Rift Valley</title></path>
<path data-code="KE-400" data-name="Eastern" d="M173.75,45.33L176.38,46.18L212.82,46.45L223.84,50.41L225.95,52.89L227.72,52.95L228.93,55.92L285.62,91.81L289.44,96.80L293.67,99.13L298.49,98.60L315.78,99.83L319.06,98.40L319.83,96.68L322.28,99.33L329.56,100.30L329.61,98.53L333.52,102.49L344.66,105.50L355.76,104.66L365.50,108.38L367.95,108.32L370.44,106.88L372.42,125.67L372.18,135.79L369.09,138.85L359.12,143.76L358.23,147.47L349.52,165.90L348.20,167.88L344.02,169.36L343.67,170.67L346.00,177.85L347.74,194.25L353.10,204.43L355.76,208.48L359.43,211.47L363.80,220.41L373.30,226.32L376.61,230.53L380.42,232.95L369.25,237.97L380.09,268.10L371.16,271.82L364.88,279.58L361.58,285.63L340.20,293.70L336.97,298.08L330.19,300.01L329.97,301.13L331.64,302.58L335.14,317.50L335.05,335.53L332.38,333.99L327.78,334.14L323.99,332.87L322.24,332.90L317.08,336.17L313.81,335.69L343.08,386.95L351.17,405.02L351.40,439.77L348.79,443.88L350.47,454.73L350.07,457.90L338.35,481.34L332.08,486.09L327.52,486.07L353.98,525.58L351.55,524.93L349.79,526.37L344.55,526.14L338.50,528.53L338.01,526.95L329.33,526.04L321.77,521.86L315.85,523.32L309.74,519.15L304.99,510.73L300.18,508.14L295.78,504.25L285.03,510.04L281.84,510.03L280.47,505.13L261.15,482.70L261.55,480.76L265.00,478.90L266.26,474.07L269.06,472.38L266.20,470.53L260.99,469.85L250.53,462.88L242.02,459.92L234.93,454.70L232.50,449.46L233.00,445.74L221.09,430.37L220.48,428.57L221.32,424.83L214.13,424.82L214.46,422.18L216.23,422.43L217.82,421.03L216.96,418.72L220.04,416.56L220.87,414.36L227.11,415.01L232.16,409.95L234.84,401.54L240.81,399.85L243.62,401.38L246.25,398.11L246.74,393.56L243.05,394.08L241.22,389.71L238.44,387.24L239.26,380.53L241.10,380.09L245.20,382.51L254.49,378.63L253.49,369.27L250.70,365.32L250.42,358.81L243.64,342.26L228.38,330.11L238.72,325.46L245.86,318.15L248.29,309.65L245.48,303.57L245.25,298.39L244.11,297.39L214.30,293.44L214.03,292.22L217.61,287.45L217.87,283.02L229.01,280.36L234.76,282.88L238.82,281.87L241.74,284.22L247.34,293.24L253.57,292.71L255.78,293.97L259.55,294.22L267.34,288.16L275.52,286.85L279.09,283.72L281.56,284.16L284.11,282.72L287.16,279.84L290.69,280.48L289.40,258.26L283.74,250.60L282.78,240.82L281.65,238.89L276.97,234.86L269.02,237.97L258.36,239.84L253.61,229.08L247.80,223.11L246.69,217.41L242.46,214.67L239.70,208.76L234.12,202.75L231.88,201.78L220.08,201.37L219.68,197.25L216.88,189.85L211.71,184.14L206.13,168.61L203.34,168.20L203.72,171.52L199.44,176.49L194.46,177.42L192.77,175.62L191.86,167.33L189.24,163.46L187.08,162.25L186.60,155.84L183.05,148.38L175.37,142.46L174.47,139.76L172.28,140.88L170.28,139.56L166.72,139.30L168.09,124.80L163.22,123.68L161.48,121.29L161.47,45.71L173.75,45.33Z"><title>Eastern</title></path>
<path data-code="KE-500" data-name="North-Eastern" d="M464.76,55.92L470.05,60.41L473.37,64.85L480.33,68.66L484.45,74.43L490.42,77.91L507.56,77.52L517.64,75.25L521.28,76.19L524.93,74.43L533.68,77.48L536.83,75.69L501.98,125.58L477.72,150.45L478.65,387.31L513.56,432.43L514.57,435.07L514.40,439.09L479.73,441.33L426.48,464.92L423.98,455.34L424.90,454.46L423.98,450.51L422.70,448.72L422.70,443.05L423.58,441.74L422.96,435.87L417.82,426.50L415.28,409.68L412.86,405.33L410.34,404.27L411.65,402.08L406.83,392.34L405.51,387.08L405.95,385.28L405.00,385.36L403.81,380.56L403.55,375.67L401.14,370.71L396.29,368.57L394.06,366.17L392.09,362.81L388.75,352.06L386.56,349.66L384.33,349.21L383.24,346.88L379.88,343.86L371.12,339.96L360.59,339.52L355.06,333.78L350.02,334.48L347.14,337.33L335.05,335.53L335.14,317.50L331.64,302.58L329.85,300.84L331.77,299.04L336.97,298.08L340.20,293.70L361.58,285.63L364.88,279.58L371.16,271.82L380.09,268.10L369.25,237.97L380.42,232.95L376.61,230.53L373.30,226.32L363.80,220.41L359.43,211.47L355.76,208.48L353.10,204.43L347.74,194.25L346.00,177.85L343.67,170.67L344.02,169.36L348.20,167.88L349.52,165.90L358.23,147.47L359.12,143.76L369.09,138.85L372.18,135.79L372.42,125.67L370.44,106.88L371.70,106.70L371.40,108.55L381.41,109.45L382.79,111.90L385.87,112.47L388.35,106.50L400.52,94.43L405.93,82.76L426.11,72.98L426.42,71.95L439.18,68.13L440.27,66.43L460.71,58.58L464.76,55.92Z"><title>North-Eastern</title></path>
<path data-code="KE-300" data-name="Coast" d="M514.40,439.09L514.34,440.38L509.41,445.42L506.79,450.08L498.12,457.87L497.13,456.66L494.83,457.04L494.03,454.91L491.89,459.26L486.96,458.46L480.78,462.62L478.63,460.22L480.34,453.58L478.07,455.33L477.80,462.89L476.43,464.60L475.24,463.71L474.05,459.75L471.01,457.55L470.25,458.46L470.69,461.08L471.74,460.63L473.12,461.57L472.44,463.76L473.80,465.06L474.29,472.24L475.12,473.86L477.18,473.97L478.61,475.46L476.40,479.78L474.97,480.06L474.77,479.34L476.87,478.28L474.87,477.29L473.12,474.56L471.15,474.77L466.75,478.57L465.42,477.84L466.81,479.82L466.67,481.88L468.93,483.99L468.18,485.47L461.42,489.89L457.49,494.56L455.26,495.41L447.22,493.87L440.73,495.91L430.59,502.90L426.92,508.92L427.80,512.19L426.12,519.95L427.48,520.98L427.93,523.41L430.59,522.29L430.64,523.01L426.20,528.48L425.52,532.86L423.33,535.97L423.57,541.36L414.97,548.16L413.84,548.35L415.15,543.91L413.49,544.82L413.43,549.83L407.06,563.80L401.94,561.94L401.59,560.59L401.27,562.75L403.34,563.31L402.82,564.97L406.68,564.88L407.12,568.84L401.94,583.13L398.45,585.01L397.15,584.04L397.16,581.86L395.34,583.13L397.16,586.20L399.30,586.44L396.35,591.56L395.18,591.53L393.81,588.94L393.85,586.57L392.73,587.52L390.33,586.50L389.62,587.08L390.26,587.69L392.73,588.40L392.25,589.55L387.42,591.01L387.86,593.67L388.79,592.41L393.18,592.92L394.44,594.11L394.19,595.66L390.98,601.17L386.11,616.12L384.98,615.33L383.92,616.61L380.36,625.86L379.92,621.87L377.73,625.38L376.55,625.16L377.51,627.99L376.86,628.88L372.24,628.60L370.71,626.70L370.27,628.01L368.38,627.44L363.64,632.00L272.39,566.30L268.37,558.06L261.35,557.18L261.93,553.97L260.08,552.86L260.46,550.72L263.15,547.97L265.90,547.06L266.03,545.02L267.84,544.38L266.55,536.52L276.25,534.78L277.50,524.82L281.84,510.03L285.03,510.04L295.42,504.35L304.99,510.73L309.74,519.15L315.85,523.32L321.77,521.86L329.33,526.04L338.01,526.95L338.50,528.53L344.55,526.14L349.79,526.37L351.55,524.93L354.09,525.48L327.52,486.07L332.08,486.09L338.35,481.34L350.07,457.90L350.47,454.73L348.79,443.88L351.40,439.77L351.17,405.02L343.08,386.95L313.81,335.69L317.08,336.17L322.24,332.90L323.99,332.87L347.14,337.33L350.02,334.48L355.06,333.78L360.59,339.52L371.12,339.96L379.88,343.86L383.24,346.88L384.33,349.21L386.56,349.66L388.75,352.06L392.52,363.78L396.29,368.57L400.56,370.01L403.55,375.67L403.81,380.56L405.00,385.36L405.95,385.28L405.51,387.08L406.83,392.34L411.65,402.08L410.34,404.27L412.86,405.33L415.28,409.68L417.82,426.50L422.96,435.87L423.58,441.74L422.70,443.05L422.70,448.72L423.98,450.51L424.90,454.46L423.98,455.34L426.48,464.92L479.73,441.33L514.40,439.09ZM483.42,463.08L485.91,462.34L489.16,463.72L490.41,465.74L489.93,467.10L488.75,467.32L487.88,465.92L486.69,468.51L485.21,467.71L479.67,469.14L479.06,470.56L480.59,471.93L479.54,472.57L478.63,470.78L477.20,471.08L477.97,467.60L483.42,463.08Z"><title>Coast</title></path>
<path data-code="KE-600" data-name="Nyanza" d="M76.21,422.13L33.38,398.22L31.00,398.03L30.01,395.78L23.85,395.78L23.24,373.94L26.95,338.78L31.28,328.83L31.37,325.94L35.16,323.36L36.16,317.58L39.22,315.20L42.35,314.92L44.98,311.81L50.57,312.49L52.78,311.63L54.96,313.12L55.82,317.22L59.48,321.03L59.61,323.06L63.45,325.60L62.49,331.34L63.53,332.61L68.15,331.39L71.96,332.60L79.59,331.79L83.19,333.85L90.39,334.03L93.71,332.99L97.65,335.17L100.78,332.61L104.90,334.01L107.15,333.37L108.56,334.51L109.09,337.09L111.33,338.46L111.79,340.34L115.21,343.46L114.80,346.90L112.82,347.28L107.60,342.39L105.15,342.56L102.05,339.55L97.44,344.94L96.73,351.00L94.20,354.52L96.27,359.64L97.77,371.94L97.27,375.60L98.94,381.53L95.30,384.58L93.92,388.26L75.52,393.77L71.07,393.32L66.85,396.26L70.51,406.24L73.73,410.56L76.21,422.13Z"><title>Nyanza</title></path>
<path data-code="KE-800" data-name="Western" d="M64.74,261.32L66.44,260.44L68.86,262.74L70.14,265.73L76.73,272.64L78.72,273.35L78.87,276.10L80.22,277.93L88.82,277.33L91.52,274.76L97.57,274.54L102.24,276.45L104.27,279.79L105.24,285.01L101.06,289.88L99.46,290.83L92.22,290.93L88.91,294.60L86.24,293.93L84.07,295.21L83.84,299.30L87.70,301.44L89.67,307.03L89.11,311.60L90.02,315.12L88.52,319.85L85.00,323.07L83.77,326.00L78.77,331.82L71.96,332.60L68.15,331.39L63.53,332.61L62.49,331.34L63.45,325.60L59.61,323.06L59.48,321.03L55.82,317.22L54.96,313.12L52.78,311.63L50.57,312.49L44.98,311.81L42.35,314.92L39.22,315.20L36.16,317.58L35.16,323.36L31.37,325.94L31.28,328.83L26.95,338.78L23.17,324.28L35.48,309.04L34.87,304.20L36.72,301.63L39.62,292.54L46.21,289.24L47.76,287.58L49.19,282.54L54.95,278.90L59.39,269.79L61.31,261.76L62.63,260.47L64.74,261.32Z"><title>Western</title></path>
<path data-code="KE-110" data-name="Nairobi" d="M231.29,410.86L227.11,415.01L220.87,414.36L220.04,416.56L216.96,418.72L217.97,420.75L216.23,422.43L207.16,419.60L202.03,414.79L210.02,406.83L216.42,406.89L219.14,404.58L220.93,405.30L220.29,407.54L221.73,408.74L225.19,409.53L228.86,408.71L231.29,410.86Z"><title>Nairobi</title></path>
<path data-code="KE-200" data-name="Central" d="M228.38,330.11L243.64,342.26L250.42,358.81L250.91,365.90L253.49,369.27L254.38,378.92L245.20,382.51L240.80,380.03L238.93,381.46L238.44,387.24L241.22,389.71L243.05,394.08L246.74,393.56L246.25,398.11L243.62,401.38L240.81,399.85L234.84,401.54L233.49,407.23L231.29,410.86L228.86,408.71L225.19,409.53L221.73,408.74L220.29,407.54L220.93,405.30L219.14,404.58L216.42,406.89L210.02,406.83L202.03,414.79L198.73,412.94L191.21,411.81L190.77,410.49L193.21,403.28L196.04,402.16L196.22,395.69L192.38,383.96L191.66,373.11L191.12,370.89L187.91,368.78L184.37,368.95L182.82,357.15L175.19,356.44L171.83,349.31L172.42,338.86L175.05,331.92L180.18,327.72L184.38,327.21L188.85,323.72L192.09,327.80L196.40,330.61L199.45,329.78L200.26,330.39L193.80,334.82L193.55,337.88L197.46,340.42L201.52,340.95L209.92,339.29L213.78,340.58L212.49,345.98L217.36,350.71L218.65,349.81L220.86,350.21L224.34,346.23L224.85,341.62L223.08,337.74L228.38,330.11Z"><title>Central</title></path>
  </g>
</svg>
