<?xml version="1.0" encoding="UTF-8"?>
<svg xmlns="http://www.w3.org/2000/svg" viewBox="0 0 560 640" class="pref-muni-svg" role="img" aria-label="行政区分">
  <g class="pref-muni-svg__paths" fill="#eaf2fb" stroke="#5b7fa8" stroke-width="0.6" stroke-linejoin="round">
<path data-code="LA-PH" data-name="Phôngsali" d="M133.06,8.00L139.42,16.20L144.03,12.37L156.88,13.30L164.59,26.23L183.66,42.52L183.32,47.16L191.13,51.25L195.25,68.97L202.26,67.29L206.03,56.00L208.83,65.57L216.35,64.16L217.60,74.97L209.00,85.87L213.72,84.07L210.76,94.60L205.66,98.28L210.97,99.53L211.30,103.98L214.26,106.58L206.53,106.65L204.67,114.51L195.00,120.57L190.93,120.63L185.46,126.33L167.58,116.13L160.50,115.70L152.94,108.20L142.38,103.79L131.12,94.68L132.07,75.29L136.03,74.03L136.74,71.29L133.43,69.63L131.54,64.62L133.10,57.45L127.75,49.07L123.13,46.43L119.58,37.51L120.00,31.27L116.84,26.23L122.74,23.93L126.43,11.63L133.06,8.00Z"><title>Phôngsali</title></path>
<path data-code="LA-OU" data-name="Oudômxai" d="M136.20,102.05L137.96,100.73L152.94,108.20L160.50,115.70L167.58,116.13L173.97,124.44L173.69,140.47L166.58,143.73L160.18,159.76L163.77,178.97L160.81,182.88L148.53,185.64L140.98,192.63L130.09,194.57L119.85,202.38L99.02,202.54L90.28,197.64L81.85,201.62L67.79,197.39L64.84,198.95L63.36,192.67L76.82,189.74L84.19,181.43L93.30,184.17L97.04,181.47L96.92,166.36L107.24,166.14L112.66,163.67L118.53,154.95L119.94,143.49L116.11,138.58L109.43,136.32L117.54,127.38L124.28,126.25L124.04,121.26L131.70,116.91L135.11,106.51L133.72,102.56L136.20,102.05Z"><title>Oudômxai</title></path>
<path data-code="LA-LM" data-name="Louang Namtha" d="M92.19,76.61L94.09,77.87L93.05,87.47L97.43,90.36L95.64,98.95L99.15,103.76L116.97,99.16L121.55,100.49L121.40,104.03L126.47,103.05L129.86,106.98L135.11,106.51L131.70,116.91L124.04,121.26L124.28,126.25L117.54,127.38L109.43,136.32L116.11,138.58L119.94,143.49L118.53,154.95L112.66,163.67L107.24,166.14L90.01,167.76L81.69,164.02L80.36,157.20L76.92,153.46L69.60,153.19L66.62,141.40L61.69,134.18L54.10,128.46L57.17,125.34L47.74,125.07L50.61,117.39L49.66,114.82L56.16,111.74L62.23,94.14L70.93,93.92L92.06,79.01L92.19,76.61Z"><title>Louang Namtha</title></path>
<path data-code="LA-BK" data-name="Bokeo" d="M47.58,130.85L54.10,128.46L61.69,134.18L69.06,146.35L69.60,153.19L78.85,154.91L84.24,166.13L97.00,167.12L98.06,179.65L93.30,184.17L84.19,181.43L76.82,189.74L63.36,192.67L63.83,199.87L45.47,205.64L40.28,204.51L45.55,198.22L49.87,177.33L48.68,178.65L43.97,175.67L35.90,161.18L28.72,162.43L22.65,172.15L19.23,170.37L18.82,164.20L27.42,137.93L37.32,129.31L47.58,130.85Z"><title>Bokeo</title></path>
<path data-code="LA-XA" data-name="Xaignabouri" d="M39.06,209.59L40.28,204.51L47.81,205.56L58.32,203.00L66.84,197.47L81.85,201.62L89.40,197.60L99.02,202.54L119.85,202.38L130.09,194.57L134.52,200.21L132.80,212.76L138.16,215.02L137.92,228.30L143.82,232.95L138.16,241.97L136.70,270.60L140.00,274.88L140.23,279.48L132.51,298.48L125.74,301.72L109.06,321.75L110.47,340.18L112.73,343.93L119.28,344.09L118.10,348.85L119.64,350.12L113.56,355.34L112.53,353.11L108.01,354.69L107.72,357.92L98.27,364.67L90.35,374.16L74.43,366.87L73.30,364.40L78.01,356.84L81.26,343.38L92.62,331.12L90.99,325.99L92.45,320.80L90.07,317.13L91.94,311.52L83.30,303.89L97.42,287.11L95.43,281.90L96.74,271.38L103.76,260.78L97.49,252.95L95.80,238.54L93.11,234.90L94.53,229.34L98.60,226.31L98.55,221.52L95.57,219.39L89.82,221.17L81.38,217.86L72.90,217.65L64.14,227.18L55.87,222.84L50.06,226.30L44.03,223.21L39.06,209.59Z"><title>Xaignabouri</title></path>
<path data-code="LA-BL" data-name="Bolikhamxai" d="M251.85,304.31L246.10,302.90L238.91,304.78L235.53,309.60L239.79,314.07L231.60,316.47L228.14,323.96L225.54,325.20L224.10,322.80L220.34,326.27L219.07,316.75L212.75,313.66L212.62,306.40L207.06,297.86L239.37,296.24L249.66,292.09L253.84,286.35L252.66,276.25L255.17,274.00L252.84,267.34L256.53,266.08L272.96,274.84L280.56,271.21L291.04,275.95L296.88,274.94L305.98,263.41L306.41,254.70L317.03,263.50L322.86,264.60L337.55,277.10L348.78,278.42L352.02,281.50L365.35,284.21L369.27,290.28L365.42,292.76L363.09,301.96L368.82,308.38L369.05,312.69L375.32,317.01L366.70,335.65L360.31,339.31L345.91,334.72L343.26,329.49L326.46,318.31L318.39,321.56L307.96,345.08L288.48,311.84L283.59,311.18L279.77,314.40L274.75,310.40L251.85,304.31Z"><title>Bolikhamxai</title></path>
<path data-code="LA-KH" data-name="Khammouan" d="M340.04,411.84L339.97,405.93L344.75,393.62L345.08,381.48L343.24,376.93L337.02,369.38L321.72,361.16L312.84,348.14L307.96,345.08L318.39,321.56L326.46,318.31L343.26,329.49L345.91,334.72L360.31,339.31L366.70,335.65L375.32,317.01L377.78,316.62L378.68,321.84L383.01,324.10L384.65,320.88L388.75,320.99L398.32,335.31L399.38,345.60L407.52,358.75L414.21,362.53L427.99,379.04L439.47,389.01L441.98,389.92L446.32,387.02L447.82,394.90L454.57,406.67L444.24,405.39L435.38,399.92L433.14,403.46L426.19,404.47L405.30,399.21L402.79,399.69L401.36,404.58L391.03,400.43L373.33,403.68L368.95,399.63L363.55,402.30L359.70,400.53L346.53,402.16L343.34,408.20L345.90,408.44L345.97,414.48L340.04,411.84Z"><title>Khammouan</title></path>
<path data-code="LA-SV" data-name="Savannakhét" d="M340.84,420.91L340.04,411.84L345.97,414.48L345.90,408.44L343.42,406.89L348.13,401.49L359.70,400.53L363.55,402.30L368.95,399.63L373.33,403.68L378.79,403.89L383.29,400.68L391.03,400.43L401.36,404.58L402.79,399.69L405.30,399.21L426.19,404.47L433.14,403.46L437.31,400.20L444.24,405.39L454.57,406.67L460.98,410.36L462.90,408.52L464.64,434.08L470.89,437.80L472.99,448.14L480.75,449.74L481.34,453.67L477.10,457.07L472.58,457.18L471.14,464.71L466.87,467.93L448.41,470.14L447.66,473.21L443.97,468.34L437.98,467.63L435.02,470.08L434.97,482.36L425.46,483.53L419.28,489.18L412.15,488.80L361.58,471.65L358.64,460.34L340.60,442.00L342.30,429.20L340.84,420.91Z"><title>Savannakhét</title></path>
<path data-code="LA-SL" data-name="Saravan" d="M389.51,497.72L386.03,495.03L382.48,486.33L386.81,480.10L412.15,488.80L419.28,489.18L425.46,483.53L431.41,483.99L436.34,481.13L435.02,470.08L437.98,467.63L443.97,468.34L447.66,473.21L448.41,470.14L470.20,466.42L472.58,457.18L480.45,455.49L481.64,451.49L478.79,448.15L483.51,441.85L486.35,443.81L485.79,450.31L492.74,458.13L503.82,461.95L505.14,467.03L500.52,474.83L491.23,478.39L483.14,476.88L482.01,478.79L482.23,483.23L471.70,496.76L474.97,501.13L473.18,503.57L474.89,507.82L473.58,513.55L458.59,514.60L456.41,517.43L449.30,516.53L447.39,519.18L448.53,522.64L452.46,524.11L445.95,525.87L437.76,532.22L431.84,526.85L433.69,523.17L431.68,519.75L412.45,521.78L403.25,519.99L398.48,522.10L401.85,503.60L396.84,498.70L389.51,497.72Z"><title>Saravan</title></path>
<path data-code="LA-VI" data-name="Vientiane [prefecture]" d="M157.71,319.56L154.13,321.01L153.12,319.29L153.79,304.64L157.37,306.11L164.57,303.48L170.21,310.57L184.09,313.34L187.54,317.74L193.09,318.61L196.24,315.84L209.11,312.55L216.24,314.84L220.10,319.50L219.72,325.88L224.10,322.80L225.44,324.92L222.01,335.68L216.27,334.12L209.21,337.04L196.79,344.80L197.48,348.82L191.42,346.58L191.72,338.26L178.78,335.43L168.02,328.16L162.17,320.44L157.71,319.56Z"><title>Vientiane [prefecture]</title></path>
<path data-code="LA-VI" data-name="Vientiane" d="M154.13,321.01L143.68,332.30L135.81,329.65L131.58,341.39L121.11,344.60L120.17,348.07L118.30,348.06L119.28,344.09L112.73,343.93L110.47,340.18L110.71,328.90L108.78,324.72L110.28,319.39L125.74,301.72L131.64,299.48L137.21,289.78L140.74,277.30L136.70,270.60L137.19,258.64L147.31,251.11L150.07,243.78L159.08,233.05L163.41,232.51L171.67,235.91L175.92,233.97L182.05,235.50L181.14,237.92L190.08,245.96L201.83,239.41L212.83,247.58L222.23,248.85L225.76,251.49L249.60,253.37L254.50,251.41L259.56,256.02L269.18,257.08L280.58,261.62L280.56,271.21L272.96,274.84L258.82,265.92L252.84,267.34L255.17,274.00L252.66,276.25L253.84,286.35L251.49,290.57L244.83,294.90L207.06,297.86L212.62,306.40L212.75,313.66L203.45,313.66L193.09,318.61L187.54,317.74L184.09,313.34L170.21,310.57L162.41,303.40L157.37,306.11L153.79,304.64L154.13,321.01Z"><title>Vientiane</title></path>
<path data-code="LA-CH" data-name="Champasak" d="M393.45,529.85L390.96,528.87L391.16,525.93L401.38,520.19L409.64,519.84L412.45,521.78L431.68,519.75L433.69,523.17L431.84,526.85L435.92,531.42L437.76,532.22L445.95,525.87L452.46,524.11L459.19,529.55L465.48,531.19L472.68,537.03L473.06,543.20L479.25,544.18L482.76,548.39L483.26,560.86L478.86,561.49L474.42,568.75L468.86,570.06L461.57,567.57L460.12,563.92L461.35,555.94L459.93,554.50L456.49,556.57L452.32,552.79L448.63,553.75L438.63,565.79L438.81,571.13L444.86,577.29L450.95,591.38L447.83,593.53L442.55,590.26L438.63,599.04L424.86,599.32L427.52,609.51L436.98,622.03L432.32,627.32L431.43,632.00L419.72,631.56L411.95,625.19L408.97,619.61L400.21,618.44L394.40,613.98L386.73,618.08L380.90,617.93L370.55,604.76L370.30,600.78L386.31,594.79L392.63,584.91L391.36,568.74L395.61,560.30L394.47,558.00L398.54,553.87L388.22,545.10L389.56,539.42L396.53,533.38L396.12,529.55L393.45,529.85Z"><title>Champasak</title></path>
<path data-code="LA-LP" data-name="Louangphrabang" d="M214.26,106.58L216.04,111.79L220.39,113.86L228.37,127.36L246.34,132.18L235.04,138.12L234.17,141.08L234.23,148.90L231.63,154.98L236.33,159.42L235.66,166.81L227.27,176.71L231.03,182.30L229.07,184.71L228.94,195.72L216.10,202.72L215.53,209.57L210.18,209.96L209.57,213.01L196.66,223.99L196.82,231.58L201.83,239.41L198.92,242.37L190.08,245.96L181.14,237.92L182.05,235.50L175.92,233.97L171.67,235.91L163.41,232.51L159.08,233.05L150.07,243.78L147.31,251.11L137.19,258.64L138.16,241.97L143.82,232.95L137.92,228.30L138.16,215.02L132.80,212.76L134.52,200.21L130.09,194.57L140.98,192.63L148.53,185.64L160.81,182.88L163.77,178.97L160.18,159.76L166.58,143.73L171.28,143.04L174.73,137.07L174.57,126.31L171.67,119.54L185.46,126.33L190.93,120.63L195.00,120.57L204.67,114.51L206.53,106.65L214.26,106.58Z"><title>Louangphrabang</title></path>
<path data-code="LA-HO" data-name="Houaphan" d="M294.85,119.63L307.75,124.70L315.36,133.47L319.75,134.00L322.49,138.48L330.98,142.52L325.97,150.58L322.73,152.31L319.22,150.66L313.33,157.56L329.19,159.95L335.78,165.32L333.87,174.07L345.07,173.47L351.21,176.79L350.99,179.75L355.11,184.01L354.08,189.87L348.85,190.80L341.11,197.87L341.03,199.62L344.90,200.59L344.09,204.75L335.18,209.56L330.91,218.09L323.42,218.43L314.73,212.43L308.88,214.64L302.31,211.46L302.63,196.65L300.49,200.53L294.19,199.41L291.09,203.73L284.23,204.99L279.81,200.73L280.71,193.20L274.32,187.48L267.42,190.11L266.82,194.66L262.93,193.97L251.89,199.11L241.85,195.71L238.44,197.14L235.16,194.58L228.94,195.72L229.07,184.71L231.03,182.30L227.27,176.71L235.66,166.81L236.33,159.42L231.63,154.98L235.04,138.12L248.86,129.85L253.20,134.81L259.32,136.24L266.74,141.71L268.73,140.69L268.25,137.04L271.80,135.01L273.64,128.01L289.21,123.50L294.85,119.63Z"><title>Houaphan</title></path>
<path data-code="LA-XI" data-name="Xiangkhoang" d="M302.31,211.46L294.60,214.86L288.54,212.76L294.69,227.09L291.12,232.24L285.21,233.84L278.00,240.46L286.59,245.89L298.68,248.97L303.03,254.95L306.41,254.70L305.98,263.41L294.64,275.82L280.56,271.21L280.58,261.62L278.88,260.00L259.56,256.02L254.50,251.41L237.57,253.40L212.83,247.58L202.73,241.14L195.94,227.84L196.66,223.99L209.57,213.01L210.18,209.96L215.53,209.57L216.10,202.72L221.56,199.42L235.16,194.58L238.44,197.14L241.85,195.71L251.89,199.11L262.93,193.97L266.82,194.66L267.42,190.11L270.61,187.73L278.02,189.70L280.71,193.20L279.81,200.73L285.17,205.36L291.09,203.73L294.19,199.41L300.49,200.53L302.63,196.65L302.31,211.46Z"><title>Xiangkhoang</title></path>
<path data-code="LA-XE" data-name="Xékong" d="M505.14,467.03L516.40,475.80L525.84,475.46L526.47,479.74L521.69,486.35L508.61,490.69L506.03,496.94L511.34,501.06L512.27,506.28L517.61,510.38L521.26,517.12L526.35,516.16L529.43,518.18L529.87,522.65L535.35,523.29L536.27,528.23L541.18,532.66L541.13,538.24L539.08,538.91L535.68,549.76L530.46,550.00L531.64,547.03L527.57,540.00L519.70,541.16L507.39,533.10L491.96,536.54L481.29,534.68L473.06,543.20L472.68,537.03L448.53,522.64L447.39,519.18L450.92,515.88L456.41,517.43L458.59,514.60L473.58,513.55L474.89,507.82L473.18,503.57L474.97,501.13L471.70,496.76L482.23,483.23L483.14,476.88L494.66,477.65L500.52,474.83L505.14,467.03Z"><title>Xékong</title></path>
<path data-code="LA-AT" data-name="Attapu" d="M530.46,550.00L526.53,551.35L527.11,555.54L534.31,561.44L529.66,567.44L531.70,574.68L526.96,579.95L525.31,585.66L515.59,582.40L504.83,594.83L501.17,596.78L497.63,594.27L491.16,602.64L482.40,603.17L475.51,594.71L464.22,588.68L462.06,582.99L459.28,584.90L460.15,587.83L456.81,587.83L455.62,592.00L450.15,593.27L450.22,587.52L446.30,583.13L444.86,577.29L438.81,571.13L438.63,565.79L450.29,552.79L456.49,556.57L459.93,554.50L461.35,555.94L460.12,563.92L461.57,567.57L468.86,570.06L474.42,568.75L478.86,561.49L483.26,560.86L482.76,548.39L479.25,544.18L473.69,543.68L481.29,534.68L491.96,536.54L507.39,533.10L519.70,541.16L527.57,540.00L531.64,547.03L530.46,550.00Z"><title>Attapu</title></path>
  </g>
</svg>
