<?xml version="1.0" encoding="UTF-8"?>
<svg xmlns="http://www.w3.org/2000/svg" viewBox="0 0 560 640" class="pref-muni-svg" role="img" aria-label="行政区分">
  <g class="pref-muni-svg__paths" fill="#eaf2fb" stroke="#5b7fa8" stroke-width="0.6" stroke-linejoin="round">
<path data-code="LT-UT" data-name="Utenos" d="M532.91,238.60L533.90,251.06L527.13,263.03L528.17,272.21L524.09,277.32L519.54,293.69L526.51,296.76L533.67,295.34L549.03,298.04L552.00,302.40L550.98,305.01L546.37,307.35L544.15,303.09L540.73,301.76L520.07,310.21L507.56,309.59L497.86,305.65L492.18,306.39L492.99,299.38L488.71,295.93L480.75,296.11L474.01,302.11L471.49,299.14L467.08,299.44L464.23,295.44L460.72,297.40L453.27,293.70L450.87,301.55L445.45,306.51L444.35,310.98L451.89,321.60L457.61,325.54L455.11,328.40L455.82,331.01L452.96,334.15L452.96,337.90L442.43,335.21L417.62,342.37L405.88,339.95L404.53,334.28L396.96,329.93L397.83,322.31L408.65,315.10L399.37,310.91L401.60,303.24L395.41,302.55L390.45,297.22L390.68,294.00L381.87,293.92L381.01,287.94L374.86,290.33L373.43,286.53L365.37,284.69L363.93,280.63L366.73,276.60L366.14,274.25L351.09,262.00L352.90,258.99L352.51,251.94L356.22,247.46L351.16,239.89L357.91,239.79L359.15,237.80L356.23,233.85L356.53,229.80L369.69,231.03L372.36,228.76L386.94,227.65L391.60,232.22L391.71,234.83L393.94,235.10L407.26,230.41L411.90,231.00L413.32,225.11L420.35,221.16L423.82,226.58L427.57,225.25L430.46,229.33L436.95,226.06L446.95,225.75L448.93,228.37L454.45,220.66L460.12,220.93L466.50,205.65L472.29,199.13L472.44,194.59L474.28,191.36L494.41,209.00L503.77,226.24L522.41,236.76L532.91,238.60Z"><title>Utenos</title></path>
<path data-code="LT-VL" data-name="Vilniaus" d="M546.37,307.35L537.23,313.82L533.50,327.11L521.70,323.09L517.56,325.92L502.35,323.99L499.44,328.61L498.67,337.80L490.71,351.73L465.86,356.61L463.68,361.90L457.75,367.82L457.36,378.25L453.33,380.88L452.06,384.50L450.87,401.31L453.79,410.27L453.84,416.63L443.70,426.38L442.00,440.41L434.36,452.67L434.24,456.75L437.51,459.64L449.73,456.75L451.88,463.14L453.73,462.97L458.12,469.49L456.67,480.87L453.80,485.06L443.77,487.97L433.07,485.31L430.26,480.34L434.26,477.06L431.74,472.83L436.58,471.29L427.82,460.32L419.52,468.59L404.39,467.15L399.78,480.29L391.96,487.34L371.50,485.27L368.17,477.62L364.13,475.07L363.99,472.23L377.30,457.64L379.19,447.27L384.72,444.81L384.92,435.62L360.94,443.02L359.29,442.11L359.31,438.18L356.00,436.35L342.56,439.74L332.16,436.32L332.96,431.21L330.85,427.85L331.86,424.33L330.93,420.62L333.59,411.39L336.90,411.67L338.58,407.58L336.57,396.33L344.44,390.44L349.90,391.07L353.49,376.40L366.77,364.47L362.62,359.36L355.25,357.70L343.52,348.68L352.83,338.41L352.76,335.09L348.99,332.01L347.30,327.03L342.41,327.19L341.23,321.13L336.55,315.87L336.54,312.33L338.59,310.48L332.62,307.34L328.69,295.40L331.19,282.97L340.11,277.25L344.04,267.74L351.35,267.87L348.39,264.28L349.28,262.53L351.09,262.00L366.14,274.25L366.73,276.60L363.93,280.63L365.37,284.69L373.43,286.53L374.86,290.33L381.01,287.94L381.87,293.92L390.68,294.00L390.45,297.22L395.41,302.55L401.60,303.24L399.37,310.91L408.65,315.10L397.83,322.31L396.96,329.93L404.53,334.28L405.88,339.95L417.62,342.37L442.43,335.21L453.43,337.47L452.96,334.15L457.61,325.54L451.89,321.60L444.35,310.98L445.45,306.51L450.87,301.55L453.27,293.70L460.72,297.40L464.23,295.44L467.08,299.44L471.49,299.14L474.01,302.11L480.75,296.11L488.71,295.93L492.99,299.38L492.18,306.39L497.86,305.65L507.56,309.59L520.07,310.21L540.73,301.76L544.15,303.09L546.37,307.35Z"><title>Vilniaus</title></path>
<path data-code="LT-AL" data-name="Alytaus" d="M371.50,485.27L365.16,493.71L368.76,505.54L367.37,512.77L358.04,514.57L354.45,509.76L341.66,515.52L327.70,527.11L316.51,525.94L313.93,519.73L308.42,515.42L296.92,519.97L285.29,517.23L276.82,521.72L273.02,520.45L258.20,525.26L245.10,518.61L242.66,510.01L246.10,505.21L246.07,501.55L243.00,486.90L240.18,481.33L236.38,479.58L231.24,472.09L232.06,460.64L234.34,453.61L243.29,448.45L241.62,445.69L243.19,443.76L250.20,441.03L250.93,433.71L259.48,426.47L271.13,433.62L280.20,434.38L292.88,427.43L291.37,422.63L293.37,420.20L301.63,421.02L315.46,417.88L322.70,421.71L330.93,420.62L331.86,424.33L330.85,427.85L332.96,431.21L332.16,436.32L334.37,438.61L344.09,439.62L353.45,435.82L359.31,438.18L359.29,442.11L360.94,443.02L384.92,435.62L384.72,444.81L379.19,447.27L377.30,457.64L363.99,472.23L364.13,475.07L368.17,477.62L371.50,485.27Z"><title>Alytaus</title></path>
<path data-code="LT-PN" data-name="Panevezio" d="M373.35,112.89L376.97,116.24L382.81,135.88L392.06,152.57L395.40,154.95L446.57,161.80L449.78,170.38L474.28,191.36L472.44,194.59L472.29,199.13L466.50,205.65L460.12,220.93L454.45,220.66L448.93,228.37L446.95,225.75L436.95,226.06L430.46,229.33L427.57,225.25L423.82,226.58L420.35,221.16L413.32,225.11L411.90,231.00L407.26,230.41L393.94,235.10L391.71,234.83L391.60,232.22L386.94,227.65L372.36,228.76L369.69,231.03L356.53,229.80L356.23,233.85L358.68,236.08L358.70,238.95L351.16,239.89L356.22,247.46L352.51,251.94L352.90,258.99L348.33,263.46L351.35,267.87L344.04,267.74L340.11,277.25L331.19,282.97L325.07,275.03L320.72,272.68L319.23,274.85L316.00,274.25L312.13,270.20L297.69,276.09L297.42,268.38L291.86,262.62L286.16,262.53L283.61,255.15L280.41,254.43L284.89,245.63L293.18,242.65L291.95,236.40L295.25,230.90L294.69,223.11L292.29,217.73L288.10,214.71L286.92,209.99L290.48,209.58L291.72,205.29L298.30,200.16L299.03,191.16L293.78,187.02L293.15,178.56L297.16,176.76L302.29,161.61L307.32,158.42L307.43,153.48L304.24,151.06L306.10,146.19L305.72,142.88L322.21,136.24L331.08,141.60L337.28,141.06L342.62,138.01L355.54,123.48L367.29,118.41L371.02,119.00L373.35,112.89Z"><title>Panevezio</title></path>
<path data-code="LT-TE" data-name="Telšiai" d="M116.27,116.98L127.46,121.36L161.09,121.90L158.76,124.22L160.13,127.46L158.88,131.62L151.37,132.10L148.84,135.41L149.70,139.68L143.54,148.58L142.24,158.03L146.15,159.66L145.48,163.10L150.82,167.84L170.91,164.17L170.65,168.87L172.56,171.72L163.27,176.15L163.98,183.48L161.32,187.32L163.83,191.19L168.20,188.73L172.21,192.84L165.13,205.03L160.30,207.22L160.00,213.09L153.10,217.36L154.32,232.89L149.87,236.82L123.49,236.53L114.00,239.45L112.95,244.86L110.18,247.85L96.23,249.17L88.55,240.93L84.02,230.01L84.61,224.03L72.87,224.82L73.41,220.95L71.02,214.88L66.73,217.01L62.82,216.64L62.72,214.76L72.20,204.31L69.14,197.25L69.35,185.20L73.51,183.11L78.28,172.30L82.69,168.18L98.23,163.11L103.17,152.13L106.36,150.53L98.86,127.53L104.35,122.44L116.27,116.98Z"><title>Telšiai</title></path>
<path data-code="LT-KL" data-name="Klaipedos" d="M19.93,172.86L32.61,170.94L36.24,158.18L45.31,148.26L53.80,146.15L70.16,134.73L78.35,134.37L104.35,122.44L98.57,128.72L106.36,150.53L103.17,152.13L98.23,163.11L82.69,168.18L78.28,172.30L73.51,183.11L69.35,185.20L69.14,197.25L72.20,204.31L62.67,215.62L66.73,217.01L71.02,214.88L73.41,220.95L72.87,224.82L84.61,224.03L84.02,230.01L87.21,238.01L96.66,250.59L90.36,255.18L97.02,275.98L101.39,275.44L111.79,280.95L109.00,289.00L99.26,299.64L98.59,303.10L112.26,308.87L115.38,316.67L115.35,321.86L122.02,318.96L135.11,322.97L132.55,335.43L120.77,337.84L114.67,342.06L110.13,339.50L107.88,331.55L102.26,334.01L84.48,325.96L71.00,315.50L61.64,315.19L49.69,299.70L39.76,306.39L39.46,300.67L41.94,298.55L39.00,292.20L38.78,286.83L31.96,290.59L37.97,278.97L35.62,262.39L33.44,259.56L33.04,251.87L28.61,236.79L21.87,225.96L20.59,218.78L19.12,205.09L20.39,192.43L19.93,172.86ZM14.00,302.43L8.00,300.89L14.94,288.84L22.61,266.05L24.18,249.67L22.87,229.54L25.86,233.28L27.16,240.45L26.08,267.37L23.05,275.21L24.82,278.43L18.49,293.44L13.96,299.48L14.00,302.43Z"><title>Klaipedos</title></path>
<path data-code="LT-SA" data-name="Šiauliai" d="M193.15,117.83L196.16,119.48L201.69,132.14L205.91,135.33L210.57,134.24L216.11,126.61L226.84,124.17L244.72,131.13L256.60,127.28L265.56,127.18L267.26,131.34L270.14,131.80L279.58,130.43L290.99,133.99L305.72,142.88L306.10,146.19L304.24,151.06L307.43,153.48L307.32,158.42L302.29,161.61L297.16,176.76L293.15,178.56L293.78,187.02L299.03,191.16L298.30,200.16L291.72,205.29L290.48,209.58L286.92,209.99L288.10,214.71L292.29,217.73L294.69,223.11L295.25,230.90L291.95,236.40L293.18,242.65L284.89,245.63L280.41,254.43L263.56,263.72L258.85,269.78L253.92,268.38L252.83,265.80L254.38,260.96L249.97,258.28L242.37,262.79L230.20,254.76L223.47,258.84L220.78,253.88L216.47,252.92L210.71,253.62L202.06,263.15L187.78,268.78L182.43,264.30L167.34,269.83L165.09,268.71L164.55,264.89L166.34,261.18L154.70,249.71L153.13,245.67L153.88,242.86L150.46,240.19L149.87,236.82L154.32,232.89L153.10,217.36L160.00,213.09L160.30,207.22L165.13,205.03L169.78,194.83L172.11,193.36L168.20,188.73L165.03,191.39L161.68,188.52L161.34,186.52L163.98,183.48L163.27,176.15L172.56,171.72L170.65,168.87L170.91,164.17L169.02,163.09L152.08,167.85L148.39,166.57L147.40,163.41L145.48,163.10L146.15,159.66L142.24,158.03L143.54,148.58L149.15,141.43L148.49,136.36L150.26,132.75L158.88,131.62L160.13,127.46L158.76,124.22L161.09,121.90L169.25,128.05L193.15,117.83Z"><title>Šiauliai</title></path>
<path data-code="LT-MR" data-name="Marijampoles" d="M193.63,447.13L185.10,443.79L178.59,451.03L170.55,435.31L170.68,416.40L173.12,405.75L172.45,398.63L174.87,394.45L174.67,391.53L184.66,382.57L186.10,376.87L183.59,365.26L176.92,361.30L177.19,357.86L173.80,354.58L166.21,353.51L160.44,336.33L163.04,335.11L167.20,337.44L188.20,331.73L193.23,333.16L200.29,329.62L229.74,335.16L238.31,333.94L244.97,338.47L252.90,340.18L253.40,343.11L249.77,344.38L246.65,348.91L240.09,349.01L237.07,352.59L243.02,355.77L245.92,363.52L251.72,362.01L258.62,367.99L260.11,377.40L256.97,382.17L260.27,384.00L263.29,399.92L262.68,402.96L257.87,406.32L263.53,410.57L261.66,415.46L266.43,420.29L269.84,420.59L272.01,429.32L270.16,432.63L265.36,431.29L260.36,426.25L251.71,432.82L250.32,434.92L250.20,441.03L243.19,443.76L241.62,445.69L243.29,448.45L234.34,453.61L232.06,460.64L231.24,472.09L210.98,459.59L204.78,460.98L203.11,458.60L203.41,452.61L199.19,451.49L196.68,446.91L193.63,447.13Z"><title>Marijampoles</title></path>
<path data-code="LT-TA" data-name="Taurages" d="M160.44,336.33L157.65,334.42L147.95,337.33L132.55,335.43L135.11,322.97L122.02,318.96L115.35,321.86L115.38,316.67L112.26,308.87L98.59,303.10L99.26,299.64L109.00,289.00L111.79,280.95L101.39,275.44L97.02,275.98L90.36,255.18L95.84,252.47L96.23,249.17L110.18,247.85L112.95,244.86L114.40,239.16L133.42,235.37L142.82,237.96L149.87,236.82L150.46,240.19L153.88,242.86L153.13,245.67L154.70,249.71L166.34,261.18L164.55,264.89L165.09,268.71L174.75,277.43L174.82,281.52L176.79,283.30L181.35,283.20L182.20,291.76L187.37,298.92L193.33,292.43L201.36,299.09L199.78,302.77L200.95,304.39L215.22,301.63L220.79,307.58L230.33,306.91L234.10,310.22L242.51,309.55L244.34,311.85L242.24,315.27L242.36,323.11L238.31,333.94L229.74,335.16L200.29,329.62L193.23,333.16L188.20,331.73L167.20,337.44L163.04,335.11L160.44,336.33Z"><title>Taurages</title></path>
<path data-code="LT-KU" data-name="Kauno" d="M331.19,282.97L328.69,295.40L331.84,305.92L338.59,310.48L336.54,312.33L336.55,315.87L341.23,321.13L342.41,327.19L347.30,327.03L353.09,336.81L343.52,348.68L355.25,357.70L362.62,359.36L366.77,364.47L353.49,376.40L349.90,391.07L344.44,390.44L336.57,396.33L338.08,410.05L333.59,411.39L330.93,420.62L322.70,421.71L315.46,417.88L301.63,421.02L295.48,419.47L291.53,422.07L292.88,427.43L280.20,434.38L270.16,432.63L272.24,428.14L270.46,421.68L261.66,415.46L263.53,410.57L257.87,406.32L262.68,402.96L263.29,399.92L260.27,384.00L256.97,382.17L260.11,377.40L258.62,367.99L251.72,362.01L245.92,363.52L243.02,355.77L237.07,352.59L239.10,349.49L246.65,348.91L249.77,344.38L253.40,343.11L251.16,338.59L244.97,338.47L238.31,333.94L242.36,323.11L242.24,315.27L244.34,311.85L242.51,309.55L234.10,310.22L230.33,306.91L220.79,307.58L215.22,301.63L200.95,304.39L199.78,302.77L201.36,299.09L193.33,292.43L187.37,298.92L182.20,291.76L181.35,283.20L174.82,281.52L174.75,277.43L170.45,275.21L167.34,269.83L182.43,264.30L187.78,268.78L202.06,263.15L210.71,253.62L216.47,252.92L220.78,253.88L223.47,258.84L230.20,254.76L242.37,262.79L249.97,258.28L254.38,260.96L252.83,265.80L253.92,268.38L258.85,269.78L267.81,260.70L282.21,254.51L286.16,262.53L291.86,262.62L297.42,268.38L297.69,276.09L312.13,270.20L316.00,274.25L319.23,274.85L320.72,272.68L325.07,275.03L331.19,282.97Z"><title>Kauno</title></path>
  </g>
</svg>
