<?xml version="1.0" encoding="UTF-8"?>
<svg xmlns="http://www.w3.org/2000/svg" viewBox="0 0 560 640" class="pref-muni-svg" role="img" aria-label="行政区分">
  <g class="pref-muni-svg__paths" fill="#eaf2fb" stroke="#5b7fa8" stroke-width="0.6" stroke-linejoin="round">
<path data-code="MK-72" data-name="Struga" d="M19.00,397.19L26.83,387.92L28.13,378.70L50.95,378.79L58.31,371.59L68.37,390.55L69.23,404.21L75.04,415.21L68.81,432.85L71.00,444.52L52.48,471.66L36.17,466.48L33.74,451.19L22.53,433.40L46.70,425.28L18.88,422.02L15.12,402.35L15.96,396.22L19.00,397.19Z"><title>Struga</title></path>
<path data-code="MK-78" data-name="Centar župa" d="M28.13,378.70L17.91,369.32L15.94,360.17L34.24,344.15L43.10,344.73L46.87,353.63L51.52,355.70L53.07,369.04L57.68,372.31L50.95,378.79L28.13,378.70Z"><title>Centar župa</title></path>
<path data-code="MK-21" data-name="Debar" d="M15.94,360.17L8.18,348.76L8.00,337.08L21.42,333.50L27.20,326.39L40.66,336.73L50.20,338.22L67.48,352.44L68.40,357.19L63.27,358.50L57.68,372.31L53.07,369.04L51.52,355.70L46.87,353.63L43.10,344.73L34.24,344.15L15.94,360.17Z"><title>Debar</title></path>
<path data-code="MK-50" data-name="Mavrovo and Rostusa" d="M27.20,326.39L19.93,284.76L30.48,266.04L55.75,278.83L66.53,272.20L82.27,273.72L88.65,287.76L99.28,286.43L96.32,290.97L104.13,304.49L94.83,305.77L79.93,316.01L85.50,318.64L87.21,340.00L84.31,349.18L74.18,358.69L68.40,357.19L67.48,352.44L50.20,338.22L40.66,336.73L27.20,326.39Z"><title>Mavrovo and Rostusa</title></path>
<path data-code="MK-19" data-name="Gostivar" d="M30.48,266.04L28.69,248.59L34.09,245.30L45.03,251.73L50.27,245.17L58.33,253.58L65.32,249.28L81.86,254.94L85.82,262.15L93.34,264.81L112.06,262.15L116.54,252.02L131.77,255.70L142.67,272.50L137.08,273.15L135.96,282.82L132.26,286.43L137.80,300.27L137.12,309.30L122.72,315.85L114.10,307.29L104.13,304.49L96.32,290.97L99.28,286.43L88.65,287.76L82.27,273.72L66.53,272.20L55.75,278.83L30.48,266.04Z"><title>Gostivar</title></path>
<path data-code="MK-12" data-name="Vevčani" d="M22.53,433.40L18.88,422.02L46.70,425.28L22.53,433.40Z"><title>Vevčani</title></path>
<path data-code="MK-58" data-name="Ohrid" d="M76.29,523.16L65.92,517.63L62.85,511.08L54.65,476.23L82.56,439.86L82.27,434.17L89.38,423.74L106.23,422.03L132.58,429.20L134.25,432.90L129.73,439.47L105.64,458.44L102.68,477.90L99.85,479.80L101.92,493.76L92.38,498.06L91.23,514.60L76.29,523.16Z"><title>Ohrid</title></path>
<path data-code="MK-22" data-name="Debarca" d="M54.65,476.23L52.48,471.66L71.00,444.52L68.81,432.85L75.04,415.21L69.23,404.21L68.37,390.55L59.58,373.12L102.27,373.29L107.81,392.07L113.47,395.29L116.73,406.73L124.45,412.42L132.58,429.20L106.23,422.03L89.38,423.74L82.27,434.17L82.56,439.86L54.65,476.23Z"><title>Debarca</title></path>
<path data-code="MK-66" data-name="Resen" d="M118.53,535.74L116.71,522.87L91.23,514.60L90.56,505.13L92.38,498.06L101.92,493.76L99.85,479.80L102.68,477.90L105.64,458.44L134.51,432.41L140.56,436.71L148.81,463.60L141.55,479.75L147.64,482.90L154.48,498.93L163.36,498.75L169.44,507.72L177.92,509.44L181.01,521.33L178.04,531.81L164.72,529.84L118.53,535.74Z"><title>Resen</title></path>
<path data-code="MK-56" data-name="Novo Selo" d="M532.51,397.76L506.40,396.36L504.78,380.17L508.00,375.87L508.00,365.75L519.71,353.35L520.02,346.33L538.16,344.59L540.49,370.34L536.83,376.49L537.58,393.77L532.51,397.76Z"><title>Novo Selo</title></path>
<path data-code="MK-26" data-name="Dojran" d="M495.40,411.58L492.26,445.97L487.53,453.39L477.41,442.80L478.01,433.85L463.28,431.05L458.15,424.50L466.39,416.18L475.29,415.66L478.47,409.57L495.40,411.58Z"><title>Dojran</title></path>
<path data-code="MK-10" data-name="Valandovo" d="M499.70,401.52L495.40,411.58L478.47,409.57L475.29,415.66L466.39,416.18L460.21,423.92L450.48,421.34L448.94,429.80L444.54,432.59L440.11,425.99L437.33,404.09L422.88,390.46L409.53,385.92L406.98,376.11L410.32,370.20L431.49,366.15L439.96,375.72L450.85,379.64L447.63,388.27L451.75,399.46L461.94,398.65L465.78,404.18L471.72,404.71L478.28,403.37L485.53,394.20L499.70,401.52Z"><title>Valandovo</title></path>
<path data-code="MK-73" data-name="Strumitsa" d="M507.02,397.40L499.70,401.52L485.53,394.20L478.28,403.37L471.72,404.71L465.78,404.18L461.94,398.65L451.75,399.46L447.63,388.27L450.85,379.64L439.96,375.72L432.61,366.02L444.69,363.45L451.00,354.02L465.52,363.32L481.04,358.86L485.23,367.10L483.52,373.70L491.98,373.84L495.42,380.71L506.20,382.20L507.02,397.40Z"><title>Strumitsa</title></path>
<path data-code="MK-05" data-name="Bogdanci" d="M477.41,442.80L471.50,442.78L470.47,449.71L462.44,457.81L447.78,450.26L449.49,440.19L445.04,432.59L448.94,429.80L450.48,421.34L454.18,421.24L463.28,431.05L478.01,433.85L477.41,442.80Z"><title>Bogdanci</title></path>
<path data-code="MK-18" data-name="Gevgelija" d="M462.44,457.81L433.77,460.77L418.65,455.65L403.50,457.56L402.21,451.74L382.17,444.17L383.57,439.54L393.50,437.98L391.09,426.00L402.12,420.37L397.91,405.27L401.75,400.72L411.70,400.36L409.20,386.46L414.24,386.23L437.33,404.09L440.11,425.99L449.25,438.75L447.78,450.26L462.44,457.81Z"><title>Gevgelija</title></path>
<path data-code="MK-36" data-name="Kavadartsi" d="M383.33,447.43L359.94,458.54L348.23,449.93L322.22,462.73L321.18,455.40L314.21,453.95L313.73,438.61L309.72,432.80L313.29,417.96L302.42,417.38L300.35,411.57L299.11,371.22L294.33,375.28L289.66,367.43L294.00,361.62L302.92,370.49L316.29,370.34L319.23,364.52L327.17,367.87L332.91,361.77L334.58,350.30L346.28,350.71L352.71,391.86L377.87,413.99L397.82,406.24L398.98,408.87L402.12,420.37L391.09,426.00L393.50,437.98L383.57,439.54L383.33,447.43Z"><title>Kavadartsi</title></path>
<path data-code="MK-55" data-name="Novaci" d="M286.49,515.00L271.22,513.44L249.25,530.94L243.34,529.77L233.17,521.13L232.79,506.82L219.51,493.84L215.27,478.27L217.58,467.85L222.82,462.88L240.66,466.65L256.38,447.32L262.63,454.68L297.15,468.02L303.53,465.96L316.02,474.66L292.13,503.18L290.95,511.81L286.49,515.00Z"><title>Novaci</title></path>
<path data-code="MK-62" data-name="Prilep" d="M322.22,462.73L317.06,467.26L316.02,474.66L303.53,465.96L297.15,468.02L262.63,454.68L256.38,447.32L230.75,444.44L219.29,438.72L212.16,429.10L203.20,425.06L213.72,416.27L216.63,406.10L209.55,396.47L222.27,384.76L240.77,381.84L247.96,376.95L251.29,368.31L265.17,371.65L268.81,361.06L280.27,358.97L294.33,375.28L299.11,371.22L300.35,411.57L302.42,417.38L313.29,417.96L309.72,432.80L313.73,438.61L314.21,453.95L321.18,455.40L322.22,462.73Z"><title>Prilep</title></path>
<path data-code="MK-04" data-name="Bitola" d="M233.17,521.13L211.79,518.94L195.74,530.94L178.04,531.81L181.27,519.44L177.92,509.44L169.44,507.72L163.36,498.75L154.48,498.93L147.64,482.90L141.55,479.75L148.32,466.83L146.40,457.35L172.00,445.51L186.97,431.07L192.50,433.37L193.22,447.37L202.41,455.74L203.13,468.57L217.12,469.18L215.27,478.27L219.51,493.84L232.79,506.82L233.17,521.13Z"><title>Bitola</title></path>
<path data-code="MK-48" data-name="Lipkovo" d="M228.03,139.03L269.47,142.67L271.44,161.88L266.84,164.76L266.84,172.01L261.49,171.31L259.67,183.33L252.85,189.78L252.45,198.64L246.25,197.05L228.30,171.08L234.70,165.50L235.29,157.93L228.14,149.18L228.03,139.03Z"><title>Lipkovo</title></path>
<path data-code="MK-82" data-name="Čučer Sandevo" d="M225.07,142.62L235.29,157.93L234.70,165.50L224.66,169.73L219.68,179.90L218.63,199.90L211.72,194.43L206.86,203.13L202.10,201.08L198.44,189.03L189.70,181.40L188.46,167.06L203.70,145.82L217.07,148.09L214.97,141.22L218.45,139.29L225.07,142.62Z"><title>Čučer Sandevo</title></path>
<path data-code="MK-29" data-name="Gjorče Petrov" d="M187.17,183.87L189.70,181.40L198.44,189.03L202.10,197.10L201.97,213.63L196.60,213.14L186.21,193.56L179.04,194.64L178.02,182.04L187.17,183.87Z"><title>Gjorče Petrov</title></path>
<path data-code="MK-68" data-name="Saraj" d="M174.54,179.87L178.02,182.04L179.04,194.64L186.21,193.56L196.60,213.14L201.97,213.63L202.23,223.95L171.96,244.02L164.13,237.60L166.32,218.90L155.23,212.50L163.87,207.73L161.74,198.42L166.02,194.76L165.16,189.72L157.64,187.21L174.54,179.87Z"><title>Saraj</title></path>
<path data-code="MK-35" data-name="Jegunovce" d="M146.79,153.73L160.78,161.93L174.54,179.87L157.64,187.21L166.02,192.24L161.74,198.42L163.87,207.73L149.64,214.62L141.29,213.36L142.08,209.14L131.99,204.71L145.54,200.29L153.43,188.47L152.95,182.78L134.58,163.94L146.79,153.73Z"><title>Jegunovce</title></path>
<path data-code="MK-75" data-name="Tearce" d="M120.63,171.12L134.58,163.94L152.95,182.78L153.43,188.47L145.54,200.29L130.00,204.87L125.74,192.92L120.77,191.59L115.40,180.97L105.57,176.22L120.63,171.12Z"><title>Tearce</title></path>
<path data-code="MK-76" data-name="Tetovo" d="M80.28,186.05L105.57,176.22L110.71,178.13L127.30,195.01L127.59,202.60L132.56,207.21L129.01,211.51L135.96,219.29L130.15,222.75L120.64,218.71L116.10,222.70L109.00,215.49L93.54,212.84L73.18,226.25L71.40,211.17L76.13,191.07L80.28,186.05Z"><title>Tetovo</title></path>
<path data-code="MK-06" data-name="Bogovinje" d="M73.10,234.79L73.85,225.37L93.54,212.84L109.00,215.49L116.98,222.80L118.01,229.53L123.27,229.72L115.31,241.10L116.45,245.27L91.35,234.65L73.10,234.79Z"><title>Bogovinje</title></path>
<path data-code="MK-16" data-name="Vrapcište" d="M65.32,249.28L73.10,234.79L78.17,232.37L112.61,243.94L116.54,252.02L112.06,262.15L93.34,264.81L85.82,262.15L81.86,254.94L65.32,249.28Z"><title>Vrapcište</title></path>
<path data-code="MK-44" data-name="Kriva Palanka" d="M395.04,104.26L396.75,112.52L411.19,120.40L440.13,154.48L445.54,167.07L426.45,181.07L411.52,182.52L397.95,174.82L380.98,176.26L378.80,133.61L368.19,125.61L367.31,118.79L395.04,104.26Z"><title>Kriva Palanka</title></path>
<path data-code="MK-65" data-name="Rankovce" d="M350.93,123.91L367.31,118.79L368.19,125.61L378.80,133.61L382.09,168.47L378.38,181.29L368.07,183.99L350.10,172.80L349.02,167.01L343.04,162.93L348.01,159.67L342.58,140.88L348.93,136.90L347.64,123.53L350.93,123.91Z"><title>Rankovce</title></path>
<path data-code="MK-71" data-name="Staro Nagoričane" d="M322.96,114.25L347.64,123.53L348.93,136.90L342.58,140.88L348.01,161.47L336.09,163.40L336.09,173.18L329.45,181.29L322.67,173.91L317.48,179.11L306.60,175.09L292.44,179.70L286.06,165.77L286.59,150.27L291.78,143.49L278.52,135.29L322.96,114.25Z"><title>Staro Nagoričane</title></path>
<path data-code="MK-47" data-name="Kumanovo" d="M269.47,142.67L278.52,135.29L291.78,143.49L286.59,150.27L286.06,165.77L292.44,179.70L306.60,175.09L317.48,179.11L324.14,174.60L326.55,181.70L321.62,194.54L327.87,196.22L334.60,211.91L323.35,216.68L318.53,210.24L309.87,210.12L298.32,225.79L291.78,220.08L282.05,221.86L272.71,215.31L271.33,205.48L252.92,191.87L259.67,183.33L261.49,171.31L266.84,172.01L266.84,164.76L271.44,161.88L269.47,142.67Z"><title>Kumanovo</title></path>
<path data-code="MK-23" data-name="Delčevo" d="M471.04,186.87L515.81,203.80L525.11,245.74L502.37,269.28L481.61,265.49L489.28,238.12L467.10,229.90L466.09,209.68L470.32,206.58L471.04,186.87Z"><title>Delčevo</title></path>
<path data-code="MK-51" data-name="Makedonska Kamenica" d="M445.54,167.07L471.04,186.87L470.32,206.58L466.59,208.19L466.53,214.30L458.46,214.46L452.32,226.33L447.83,224.98L441.67,200.17L434.72,193.97L434.52,185.07L426.45,181.83L445.54,167.07Z"><title>Makedonska Kamenica</title></path>
<path data-code="MK-03" data-name="Berovo" d="M547.03,300.90L536.57,315.37L538.16,344.59L519.01,346.33L501.71,340.80L494.65,331.77L481.45,330.15L483.87,319.23L477.31,314.38L471.44,316.03L470.43,306.92L474.72,298.84L470.56,295.47L469.70,286.66L478.69,282.35L481.06,264.03L498.71,269.32L504.80,286.40L520.72,285.59L547.03,300.90Z"><title>Berovo</title></path>
<path data-code="MK-60" data-name="Pehčevo" d="M525.11,245.74L529.20,248.92L538.65,274.76L548.25,277.13L552.00,283.10L547.03,300.90L520.72,285.59L503.99,284.51L498.71,269.32L510.24,263.34L525.11,245.74Z"><title>Pehčevo</title></path>
<path data-code="MK-30" data-name="Želino" d="M140.06,237.49L130.13,222.70L135.96,219.29L129.01,211.51L131.27,207.53L140.98,208.30L143.81,214.21L155.25,212.20L165.64,217.80L164.13,237.60L176.98,250.20L175.49,261.18L163.74,250.58L152.97,254.18L140.91,250.01L143.90,239.96L140.06,237.49Z"><title>Želino</title></path>
<path data-code="MK-08" data-name="Brvenica" d="M130.15,222.75L143.90,239.96L140.91,250.01L152.97,254.18L163.74,250.58L164.88,254.98L157.07,257.78L142.67,272.50L131.77,255.70L115.31,251.53L115.31,241.10L123.27,229.72L118.01,229.53L116.98,222.80L120.64,218.71L130.15,222.75Z"><title>Brvenica</title></path>
<path data-code="MK-52" data-name="Brod" d="M164.02,254.75L177.68,263.49L194.62,287.08L203.35,287.01L210.04,306.78L204.91,313.66L205.30,324.81L195.94,344.61L195.52,353.95L187.02,351.58L178.20,359.11L176.95,367.45L167.31,371.28L158.67,364.27L156.52,356.68L142.05,360.60L142.47,356.03L157.22,341.43L148.85,334.60L146.59,314.50L137.80,311.84L137.80,300.27L132.26,286.43L135.96,282.82L137.08,273.15L145.58,271.82L164.02,254.75Z"><title>Brod</title></path>
<path data-code="MK-57" data-name="Oslomej" d="M137.12,309.30L146.59,314.50L147.43,328.54L137.23,338.39L133.40,347.69L127.02,349.97L125.88,342.94L120.48,342.94L118.80,338.02L122.89,328.91L122.89,314.69L137.12,309.30Z"><title>Oslomej</title></path>
<path data-code="MK-70" data-name="Sopište" d="M175.49,261.18L176.98,250.20L171.85,245.61L173.05,241.27L196.68,225.46L219.94,225.52L219.22,241.00L197.30,241.92L198.24,248.15L206.46,250.35L196.60,265.93L200.15,272.69L199.38,286.49L190.52,283.42L175.49,261.18Z"><title>Sopište</title></path>
<path data-code="MK-38" data-name="Karpoš" d="M202.63,224.81L202.10,201.08L210.58,208.57L216.68,208.50L212.82,218.30L216.79,224.81L202.63,224.81Z"><title>Karpoš</title></path>
<path data-code="MK-84" data-name="Šuto Orizari" d="M215.65,200.36L213.85,207.04L208.33,201.17L208.48,196.39L211.72,194.43L215.65,200.36Z"><title>Šuto Orizari</title></path>
<path data-code="MK-09" data-name="Butel" d="M215.41,200.11L218.63,199.90L219.68,179.90L224.66,169.73L229.04,169.09L234.28,180.48L225.45,191.48L223.61,209.73L210.58,208.57L206.86,203.13L215.32,207.26L215.41,200.11Z"><title>Butel</title></path>
<path data-code="MK-79" data-name="Čair" d="M216.72,207.70L220.14,214.21L216.52,213.08L216.72,207.70Z"><title>Čair</title></path>
<path data-code="MK-77" data-name="Centar" d="M218.23,212.92L216.63,222.07L212.82,218.30L218.23,212.92Z"><title>Centar</title></path>
<path data-code="MK-31" data-name="Zajas" d="M122.72,315.85L120.35,334.98L104.04,345.13L87.88,319.05L79.93,316.01L94.83,305.77L106.45,304.26L122.72,315.85Z"><title>Zajas</title></path>
<path data-code="MK-27" data-name="Dolneni" d="M195.52,353.95L203.66,324.81L207.10,324.81L222.53,335.96L227.22,352.84L238.89,353.11L241.19,359.66L253.73,367.19L247.96,376.95L238.58,382.95L222.27,384.76L212.91,393.50L201.16,392.29L198.24,383.65L191.73,386.54L181.60,376.82L189.85,370.82L181.08,356.32L189.47,351.16L195.52,353.95Z"><title>Dolneni</title></path>
<path data-code="MK-45" data-name="Krivogaštani" d="M196.88,383.09L200.10,391.87L212.51,392.85L209.55,399.12L216.63,403.58L213.72,416.27L207.56,422.69L194.16,416.27L196.66,407.35L191.36,397.03L191.47,387.28L196.88,383.09Z"><title>Krivogaštani</title></path>
<path data-code="MK-53" data-name="Mogila" d="M197.41,418.37L219.29,438.72L252.24,448.20L252.04,453.48L240.66,466.65L222.82,462.88L217.12,469.18L204.18,469.68L202.41,455.74L194.38,449.88L194.38,436.08L190.20,430.77L194.27,419.07L197.41,418.37Z"><title>Mogila</title></path>
<path data-code="MK-80" data-name="Čaška" d="M205.30,324.81L204.91,313.66L220.14,285.48L228.36,281.79L247.00,282.98L252.56,293.32L268.26,295.56L274.03,313.46L279.88,310.35L281.17,318.68L289.94,322.26L289.61,327.77L296.85,334.97L292.57,348.62L299.00,354.61L297.66,363.50L294.00,361.62L289.66,367.81L277.67,358.55L268.81,361.06L266.31,371.11L261.20,372.07L241.19,359.66L238.89,353.11L227.22,352.84L222.53,335.96L215.65,327.87L205.30,324.81Z"><title>Čaška</title></path>
<path data-code="MK-67" data-name="Rosoman" d="M297.66,363.50L299.11,354.20L306.60,349.99L306.49,341.99L317.26,345.04L321.84,338.79L328.68,340.53L329.23,336.46L334.49,336.27L332.91,361.77L328.24,367.43L319.23,364.52L316.29,370.34L302.92,370.49L297.66,363.50Z"><title>Rosoman</title></path>
<path data-code="MK-54" data-name="Negotino" d="M334.58,350.30L334.44,336.32L338.52,343.34L343.39,337.98L341.31,334.15L344.53,323.79L333.48,322.98L340.30,307.63L350.95,316.47L356.96,311.00L361.56,324.37L373.75,326.47L374.45,332.40L383.83,338.22L393.22,338.80L401.66,354.20L393.04,363.98L377.72,358.83L364.63,378.91L368.25,386.22L366.49,393.43L355.99,393.92L349.44,378.92L347.38,352.31L334.58,350.30Z"><title>Negotino</title></path>
<path data-code="MK-28" data-name="Drugovo" d="M85.50,318.64L105.88,350.35L119.78,358.31L118.64,365.52L126.88,376.13L137.93,375.57L144.75,370.25L154.22,378.11L155.41,383.82L144.03,392.48L127.54,392.60L116.47,401.03L107.81,392.07L102.27,373.29L59.58,373.12L64.69,356.61L76.88,357.74L84.31,349.18L87.21,340.00L85.50,318.64Z"><title>Drugovo</title></path>
<path data-code="MK-17" data-name="Gazi Baba" d="M220.47,210.15L224.92,206.92L225.45,191.48L234.28,180.48L240.64,189.39L242.85,200.50L238.45,217.25L247.26,223.40L249.54,232.11L247.24,234.82L238.05,224.11L220.14,214.21L220.47,210.15Z"><title>Gazi Baba</title></path>
<path data-code="MK-46" data-name="Kruševo" d="M180.13,358.95L189.85,370.82L181.60,376.82L191.73,386.54L191.36,397.03L196.36,404.43L194.16,416.27L196.88,418.41L190.41,428.13L192.50,433.37L187.39,430.95L188.11,420.22L182.90,408.90L172.42,406.21L170.82,391.67L161.94,391.67L153.70,379.29L176.95,367.45L180.13,358.95Z"><title>Kruševo</title></path>
<path data-code="MK-25" data-name="Demir Hisar" d="M154.51,383.32L161.94,387.63L161.94,391.67L170.82,391.67L172.42,406.21L182.90,408.90L188.11,426.14L187.39,430.95L172.00,445.51L146.48,457.31L140.56,436.71L135.15,434.82L130.39,421.37L116.73,406.73L116.21,401.55L127.54,392.60L144.03,392.48L154.51,383.32Z"><title>Demir Hisar</title></path>
<path data-code="MK-01" data-name="Aerodrom" d="M218.06,217.32L219.68,213.93L224.66,216.05L243.47,229.78L239.61,232.39L218.06,217.32Z"><title>Aerodrom</title></path>
<path data-code="MK-74" data-name="Studeničani" d="M200.94,287.01L197.74,283.07L200.15,272.69L196.60,265.93L206.46,250.35L198.24,248.15L197.30,241.92L219.22,241.00L220.80,230.46L225.18,229.72L232.33,240.42L244.72,230.12L246.60,238.81L250.28,239.14L239.74,246.22L233.78,261.26L226.26,259.15L228.36,281.79L220.14,285.48L209.51,305.63L205.23,298.82L205.23,289.16L200.94,287.01Z"><title>Studeničani</title></path>
<path data-code="MK-39" data-name="Kisela Voda" d="M220.80,230.46L216.79,224.81L218.06,217.32L239.61,232.39L232.33,240.42L227.29,229.72L220.80,230.46Z"><title>Kisela Voda</title></path>
<path data-code="MK-63" data-name="Probištip" d="M392.38,224.01L377.92,240.25L385.63,252.10L377.10,253.52L373.53,247.78L358.93,246.90L356.15,243.02L357.97,236.74L340.41,217.28L343.06,209.40L351.48,211.97L355.93,203.92L372.57,199.58L388.57,206.02L390.85,194.76L407.69,199.10L407.62,209.07L392.38,224.01Z"><title>Probištip</title></path>
<path data-code="MK-81" data-name="Češinovo-Obleševo" d="M391.40,223.40L399.25,232.28L408.01,232.76L406.96,243.30L420.27,269.29L397.93,263.08L378.18,242.28L391.40,223.40Z"><title>Češinovo-Obleševo</title></path>
<path data-code="MK-02" data-name="Aračinovo" d="M240.44,212.91L243.05,203.45L240.64,189.39L247.81,198.32L252.45,198.64L253.95,192.46L260.04,194.75L250.61,209.24L240.44,212.91Z"><title>Aračinovo</title></path>
<path data-code="MK-32" data-name="Zelenikovo" d="M229.59,283.01L225.14,268.21L226.26,259.15L233.78,261.26L239.74,246.22L250.28,239.14L260.02,241.11L259.80,273.19L255.52,280.27L229.59,283.01Z"><title>Zelenikovo</title></path>
<path data-code="MK-40" data-name="Kičevo" d="M118.97,337.01L120.48,342.94L127.02,345.03L120.70,359.88L104.04,346.17L105.03,341.43L118.97,337.01Z"><title>Kičevo</title></path>
<path data-code="MK-61" data-name="Plasnica" d="M156.52,356.68L158.67,364.27L167.31,371.28L154.22,378.11L144.75,370.25L135.68,369.87L134.95,359.82L156.52,356.68Z"><title>Plasnica</title></path>
<path data-code="MK-15" data-name="Vraneštica" d="M147.58,328.34L148.85,334.60L157.36,343.13L142.47,356.03L142.05,360.60L134.95,359.82L135.68,369.87L140.91,374.05L126.88,376.13L118.64,360.96L147.58,328.34Z"><title>Vraneštica</title></path>
<path data-code="MK-85" data-name="Skopje" d="M247.24,234.82L257.96,225.93L268.87,227.95L267.80,221.76L271.55,213.93L282.05,221.86L291.78,220.08L298.32,225.79L296.28,234.40L282.20,241.48L277.75,264.94L272.93,260.71L268.48,265.44L266.90,261.21L259.01,261.10L261.05,242.60L246.60,238.81L247.24,234.82Z"><title>Skopje</title></path>
<path data-code="MK-49" data-name="Lozovo" d="M305.97,256.15L323.15,266.67L340.98,285.09L336.18,291.92L329.64,287.85L325.39,292.97L324.60,296.57L329.47,301.34L326.92,308.28L316.80,308.04L313.18,289.04L308.62,291.03L300.38,283.09L303.62,272.53L298.97,265.83L305.97,256.15Z"><title>Lozovo</title></path>
<path data-code="MK-69" data-name="Sveti Nikole" d="M340.98,285.09L298.56,246.88L297.57,227.36L309.87,210.12L318.53,210.24L323.35,216.68L343.21,209.07L341.00,219.37L357.97,236.74L356.15,243.02L358.93,248.00L355.56,251.54L358.32,261.18L344.92,274.22L347.79,288.37L340.98,285.09Z"><title>Sveti Nikole</title></path>
<path data-code="MK-20" data-name="Gradsko" d="M334.49,336.27L329.23,336.46L328.68,340.53L321.84,338.79L317.26,345.04L306.49,341.99L306.60,349.99L299.00,354.61L292.57,348.62L296.85,334.97L289.61,327.77L290.62,317.84L296.85,316.35L307.79,298.85L308.82,289.17L313.18,289.04L316.80,308.04L324.60,309.77L329.77,304.65L340.30,307.63L333.48,322.98L344.53,323.79L341.31,334.15L343.39,337.98L338.52,343.34L334.49,336.27Z"><title>Gradsko</title></path>
<path data-code="MK-43" data-name="Kratovo" d="M409.44,201.91L402.03,194.92L390.85,194.76L388.57,206.02L372.57,199.58L354.72,204.57L350.51,212.13L334.99,209.43L327.87,196.22L321.42,192.61L325.74,182.71L336.09,173.18L336.09,163.40L341.68,162.76L368.07,183.99L378.38,181.29L380.59,175.24L405.41,178.52L412.79,187.25L409.44,201.91Z"><title>Kratovo</title></path>
<path data-code="MK-34" data-name="Ilinden" d="M249.54,232.11L247.26,223.40L238.45,217.25L240.44,212.91L250.61,209.24L260.28,197.97L271.33,205.48L268.87,227.95L257.96,225.93L249.54,232.11Z"><title>Ilinden</title></path>
<path data-code="MK-37" data-name="Karbinci" d="M372.19,247.42L374.87,252.56L385.63,252.10L397.93,263.08L432.74,269.09L432.66,274.52L426.76,278.51L423.08,290.82L401.24,291.98L380.68,274.54L366.12,268.81L364.06,255.78L372.19,247.42Z"><title>Karbinci</title></path>
<path data-code="MK-83" data-name="Štip" d="M350.95,316.47L346.87,310.65L330.43,305.18L324.60,296.57L329.64,287.85L335.39,292.15L340.34,285.29L347.79,288.37L344.92,274.22L358.32,261.18L355.56,251.54L358.93,246.90L369.10,248.76L364.06,255.78L367.92,271.56L377.65,272.63L401.24,291.98L423.08,290.82L416.32,303.46L405.34,300.08L400.50,303.99L403.10,319.63L406.61,323.15L393.22,338.80L374.45,332.40L373.75,326.47L362.88,325.42L356.96,311.00L350.95,316.47Z"><title>Štip</title></path>
<path data-code="MK-42" data-name="Kočani" d="M392.38,224.01L407.62,209.07L412.88,191.71L411.52,181.65L419.24,180.44L434.52,185.07L434.72,193.97L441.67,200.17L447.83,222.69L444.65,227.01L434.37,223.09L431.95,243.99L425.33,250.69L415.16,252.80L409.33,250.22L407.49,232.05L399.25,232.28L392.38,224.01Z"><title>Kočani</title></path>
<path data-code="MK-33" data-name="Zrnovci" d="M420.86,268.28L413.63,252.80L430.38,246.35L432.74,269.09L420.86,268.28Z"><title>Zrnovci</title></path>
<path data-code="MK-13" data-name="Veles" d="M252.56,293.32L246.80,283.63L255.52,280.27L259.80,273.19L257.94,260.76L266.90,261.21L267.27,265.44L271.44,260.71L278.87,264.57L282.20,241.48L296.28,234.40L298.56,246.88L305.97,256.15L298.97,265.83L303.62,272.53L300.38,283.09L308.62,291.03L307.79,298.85L296.85,316.35L291.28,316.85L289.94,322.26L283.04,320.79L279.88,310.35L272.91,311.72L268.26,295.56L252.56,293.32Z"><title>Veles</title></path>
<path data-code="MK-24" data-name="Demir Kapija" d="M391.97,363.98L401.66,354.20L408.41,358.20L406.83,378.90L411.70,400.36L401.75,400.72L381.71,414.48L371.36,409.65L355.64,393.94L366.49,393.43L368.25,386.22L364.63,378.91L377.72,358.83L391.97,363.98Z"><title>Demir Kapija</title></path>
<path data-code="MK-14" data-name="Vinica" d="M432.66,274.52L430.33,246.69L434.37,223.09L452.32,226.33L458.46,214.46L464.62,213.38L467.10,229.90L489.28,238.12L481.41,258.76L480.91,275.61L476.68,284.79L466.17,286.47L451.75,274.73L440.37,279.59L432.66,274.52Z"><title>Vinica</title></path>
<path data-code="MK-07" data-name="Bosilovo" d="M520.02,346.33L519.71,353.35L508.00,365.75L508.00,375.87L504.78,380.31L497.13,381.66L491.98,373.84L483.52,373.70L485.23,367.10L480.88,358.74L492.09,348.22L492.44,331.47L501.71,340.80L520.02,346.33Z"><title>Bosilovo</title></path>
<path data-code="MK-64" data-name="Radoviš" d="M423.08,290.82L426.76,278.51L432.81,274.47L440.37,279.59L451.75,274.73L469.70,286.74L470.56,295.47L474.72,298.84L470.43,306.92L471.48,313.12L464.55,314.51L460.52,322.06L466.37,334.87L465.28,343.50L462.34,345.25L451.55,337.03L443.99,342.83L444.84,349.09L434.83,346.87L436.43,340.13L428.73,330.15L404.11,321.66L400.50,303.99L405.34,300.08L416.32,303.46L423.08,290.82Z"><title>Radoviš</title></path>
<path data-code="MK-11" data-name="Vasilevo" d="M455.54,355.10L451.00,354.02L445.66,360.36L443.99,342.83L452.76,337.03L462.34,345.25L465.28,343.50L466.37,334.87L460.52,322.06L464.55,314.51L471.48,313.12L472.71,318.05L477.31,314.38L484.57,320.98L481.45,330.15L492.44,331.47L492.48,346.74L486.54,355.77L465.52,363.32L455.54,355.10Z"><title>Vasilevo</title></path>
<path data-code="MK-41" data-name="Konče" d="M401.66,354.20L393.17,337.16L406.61,323.15L428.73,330.15L436.43,340.13L433.71,345.93L444.84,349.09L445.96,360.63L408.30,373.03L406.79,365.89L409.42,360.36L401.66,354.20Z"><title>Konče</title></path>
  </g>
</svg>
