<?xml version="1.0" encoding="UTF-8"?>
<svg xmlns="http://www.w3.org/2000/svg" viewBox="0 0 560 640" class="pref-muni-svg" role="img" aria-label="行政区分">
  <g class="pref-muni-svg__paths" fill="#eaf2fb" stroke="#5b7fa8" stroke-width="0.6" stroke-linejoin="round">
<path data-code="MY-12" data-name="Sabah" d="M508.47,318.34L506.71,316.56L508.42,315.44L510.74,316.02L514.11,318.52L508.47,318.34ZM477.61,313.68L475.73,311.85L474.95,313.85L472.66,314.86L469.87,312.23L467.60,312.98L464.74,312.35L461.83,315.35L460.63,313.75L456.94,312.06L454.90,316.61L453.85,316.23L451.26,318.82L450.94,316.74L452.21,313.89L449.91,312.09L448.98,306.94L451.79,299.96L451.18,296.75L445.23,296.14L448.98,293.23L450.32,289.20L447.12,288.90L444.62,286.08L443.51,286.21L444.42,283.61L448.79,280.08L450.31,277.43L449.74,279.85L450.31,280.65L450.70,279.31L452.22,280.38L454.67,280.56L457.06,279.53L459.34,273.89L462.66,271.69L465.19,265.28L464.19,263.79L467.43,260.72L469.34,260.84L469.37,259.64L467.80,259.73L470.13,258.60L470.89,256.76L475.20,253.55L475.69,251.50L478.97,247.88L479.80,242.96L482.48,238.82L484.49,240.57L484.86,242.57L484.05,242.19L483.73,243.33L485.05,244.58L482.98,250.87L484.69,250.86L488.25,247.63L490.57,243.81L489.82,241.44L491.28,240.95L491.14,239.73L493.13,239.44L496.08,241.25L495.35,244.59L497.17,249.63L499.08,249.94L501.68,252.09L503.76,250.05L504.44,252.30L506.73,252.81L509.12,254.77L509.01,260.23L507.16,260.28L505.61,261.81L507.29,264.37L506.52,266.20L507.51,268.07L501.96,270.96L504.75,270.01L510.43,269.86L510.36,268.86L513.47,268.57L517.15,265.61L520.15,271.09L518.32,272.61L514.50,272.61L515.58,276.00L518.20,275.13L520.40,275.93L521.57,272.72L526.81,272.48L533.15,276.14L532.36,280.48L533.40,277.90L534.73,277.41L539.39,281.81L539.75,281.05L542.15,282.45L542.53,284.14L543.75,284.10L543.95,282.96L546.77,283.70L549.65,282.57L552.00,285.06L551.80,289.51L548.72,292.14L535.57,296.64L532.55,295.88L530.52,297.00L528.56,294.57L526.58,294.01L524.76,295.71L522.70,296.04L520.47,298.36L524.38,303.56L528.08,306.16L529.90,306.17L529.69,307.95L530.45,308.75L533.30,308.45L534.58,310.74L533.10,310.95L532.12,312.78L526.48,312.83L516.20,316.46L513.70,315.74L507.15,311.09L505.76,312.26L507.09,315.32L505.57,317.13L506.35,317.97L504.69,318.44L501.07,317.72L494.59,312.98L493.53,313.62L483.55,313.71L480.98,312.69L477.61,313.68ZM522.77,271.32L523.08,271.98L521.27,272.10L522.77,271.32ZM536.81,309.21L537.64,310.17L535.39,310.75L534.53,309.12L536.81,309.21ZM530.83,304.85L531.91,304.40L533.30,305.23L531.52,306.17L526.29,304.09L529.33,303.50L530.83,304.85ZM501.96,246.01L503.01,248.59L501.25,249.64L498.59,249.11L501.27,247.90L500.05,246.76L501.96,246.01ZM489.04,229.64L489.25,231.74L488.33,231.46L488.48,232.48L484.86,234.02L486.20,231.54L489.04,229.64ZM493.71,230.00L495.80,229.64L496.78,230.29L496.24,233.91L492.86,234.86L490.95,236.67L490.85,231.74L493.71,230.00Z"><title>Sabah</title></path>
<path data-code="MY-09" data-name="Perlis" d="M23.03,247.64L25.42,247.96L26.96,251.81L28.30,252.67L27.96,254.64L23.34,260.07L21.36,255.02L23.03,247.64Z"><title>Perlis</title></path>
<path data-code="MY-02" data-name="Kedah" d="M28.30,252.67L35.31,254.95L38.06,253.60L38.17,254.63L40.16,255.78L40.92,260.73L44.83,259.73L47.81,260.46L48.07,261.38L47.03,262.93L48.16,264.92L47.73,269.03L45.97,270.13L44.29,273.80L45.11,275.03L43.57,278.05L43.80,280.56L42.19,281.81L41.46,285.25L38.78,286.32L33.44,292.83L31.79,291.36L33.33,291.13L32.61,279.82L27.65,279.28L27.37,276.50L28.54,276.22L27.93,275.81L27.51,266.95L24.70,261.17L23.34,260.07L27.96,254.64L28.30,252.67ZM11.91,260.59L13.31,259.13L12.44,262.53L11.38,261.09L11.91,260.59ZM15.08,257.19L15.51,258.10L14.11,259.23L12.99,258.30L10.31,260.04L10.05,257.49L8.37,257.23L8.00,255.20L11.48,255.64L13.45,254.26L15.43,256.47L15.08,257.19Z"><title>Kedah</title></path>
<path data-code="MY-03" data-name="Kelantan" d="M67.28,274.58L70.85,271.22L71.45,267.81L74.92,264.67L75.29,260.15L77.79,261.82L78.79,260.84L82.01,262.02L83.79,263.61L88.28,271.34L83.97,276.03L84.19,283.22L85.46,284.83L84.70,289.98L87.91,292.15L87.20,292.99L87.48,297.58L90.89,299.03L91.70,300.91L91.57,301.53L90.07,301.37L89.96,303.58L88.57,303.20L87.31,304.15L84.43,302.92L82.77,304.96L80.94,304.48L79.57,305.18L76.48,301.79L74.44,302.49L72.36,301.69L70.82,305.71L67.77,301.67L66.81,305.22L63.50,307.27L60.00,306.22L58.65,307.03L56.05,305.85L55.06,303.94L56.30,303.15L56.93,299.80L58.33,298.20L57.60,295.80L60.20,287.53L62.64,285.09L64.29,285.82L66.33,284.85L66.40,281.44L64.13,280.70L63.96,276.80L65.35,273.34L67.28,274.58Z"><title>Kelantan</title></path>
<path data-code="MY-08" data-name="Perak" d="M44.78,273.62L48.93,277.59L51.43,276.16L52.45,273.23L61.01,269.77L63.12,271.32L64.00,273.82L64.94,273.94L63.96,276.80L64.60,278.92L64.10,280.58L66.34,281.24L66.33,284.85L64.29,285.82L62.64,285.09L60.20,287.53L57.60,295.80L58.33,298.20L56.93,299.80L56.30,303.15L55.06,303.94L56.25,308.99L55.02,310.89L57.90,312.26L58.44,316.75L59.72,317.30L60.01,319.34L61.76,320.60L61.09,322.76L62.92,329.22L59.98,331.89L55.81,328.62L54.58,329.29L54.90,331.50L52.91,332.10L52.21,330.75L50.39,330.79L49.23,329.75L47.78,330.37L48.11,329.09L47.26,329.74L46.10,328.43L44.67,329.18L43.87,326.74L39.58,327.34L37.81,326.54L37.41,323.33L41.98,322.35L41.71,321.76L39.38,322.28L39.06,320.10L35.09,317.99L34.88,315.89L33.50,314.01L35.72,307.32L34.39,306.99L34.31,305.90L36.29,304.26L34.58,304.38L34.94,300.85L33.80,300.67L33.08,298.55L31.53,298.64L31.99,297.68L30.07,297.24L27.93,292.75L31.44,291.24L33.66,292.74L38.78,286.32L41.46,285.25L42.19,281.81L43.98,280.14L43.57,278.05L44.71,276.78L44.78,273.62Z"><title>Perak</title></path>
<path data-code="MY-13" data-name="Sarawak" d="M443.14,314.16L443.47,313.15L441.09,309.69L441.10,305.18L439.29,299.94L437.59,297.63L439.38,296.21L443.03,297.88L445.23,296.14L450.79,296.26L451.79,299.96L449.01,306.72L449.07,309.07L449.91,312.09L452.26,314.20L450.94,316.74L450.43,322.96L448.46,325.72L449.86,326.83L448.63,333.18L450.21,338.71L448.99,338.84L447.89,340.74L446.92,344.93L447.87,346.29L446.40,349.81L442.13,351.05L440.25,349.51L435.46,355.31L436.44,357.29L435.12,358.69L435.11,361.54L437.75,361.86L439.26,364.28L432.79,368.52L431.39,368.61L431.14,370.56L427.41,371.58L426.70,374.70L427.46,377.45L429.14,377.39L428.89,381.16L424.66,382.87L424.37,386.95L421.44,391.33L420.95,394.15L416.22,392.15L410.64,394.55L408.44,393.29L403.33,393.94L400.51,396.79L395.43,399.91L392.65,397.52L389.13,398.07L387.08,396.47L380.58,394.25L376.96,394.68L378.79,391.94L377.37,390.40L374.09,390.04L372.61,391.12L363.44,390.46L354.88,394.16L355.59,395.68L352.98,402.26L347.91,403.07L345.50,406.00L343.83,406.43L339.94,405.39L336.63,407.39L335.77,405.62L333.05,406.02L328.16,404.14L319.37,405.94L316.50,408.92L313.30,409.79L311.97,409.18L310.32,410.36L307.73,409.58L305.06,406.75L302.27,406.39L299.69,401.39L297.04,400.71L293.97,397.94L292.76,395.26L290.62,395.03L289.45,393.26L288.75,393.51L285.19,389.07L285.05,384.53L282.22,383.27L281.93,381.08L285.14,376.14L285.40,380.20L286.47,381.97L291.83,385.11L292.97,387.00L300.84,387.28L302.02,386.61L303.03,387.51L304.10,383.93L305.79,386.81L309.05,385.65L307.88,388.99L309.01,388.65L309.84,389.65L311.30,389.39L315.11,391.02L315.30,392.38L313.76,393.77L316.13,392.91L316.96,390.33L318.24,390.51L326.62,395.91L329.14,395.27L332.13,396.97L333.32,396.41L329.92,394.57L327.06,394.95L324.03,392.99L322.88,390.81L323.74,387.42L325.94,387.09L327.66,388.81L330.10,388.80L327.48,387.91L325.35,384.71L326.30,384.23L325.82,383.02L328.39,376.53L330.11,376.57L329.39,375.96L329.72,374.94L332.01,375.33L333.16,373.95L331.81,374.87L327.81,374.42L327.81,373.04L329.34,372.44L327.81,371.40L328.81,366.89L329.51,366.33L332.82,368.98L335.11,368.10L336.36,368.83L333.90,365.00L337.13,364.81L334.41,363.45L334.89,359.55L341.24,355.02L350.78,353.83L378.33,346.17L380.40,343.53L380.04,342.91L385.81,337.21L390.15,329.74L398.54,322.84L404.35,315.27L405.61,310.73L405.16,306.35L409.13,307.27L412.63,309.50L413.86,312.84L413.66,315.52L417.47,315.65L419.06,318.85L422.09,322.28L423.23,322.41L427.08,319.22L428.48,315.66L427.50,314.96L429.26,311.90L429.33,311.10L427.67,310.06L426.39,302.61L429.55,300.46L432.11,300.12L433.98,297.42L434.29,304.54L436.09,311.61L443.14,314.16ZM334.09,367.58L332.94,368.45L331.35,366.46L331.43,356.65L333.25,359.06L334.09,367.58Z"><title>Sarawak</title></path>
<path data-code="MY-07" data-name="Pulau Pinang" d="M29.03,291.75L29.84,287.03L28.37,284.24L28.50,281.22L27.65,279.28L32.61,279.82L33.31,291.24L29.03,291.75ZM26.42,282.57L27.35,283.49L25.83,287.79L22.94,287.63L22.81,282.36L26.42,282.57Z"><title>Pulau Pinang</title></path>
<path data-code="MY-10" data-name="Selangor" d="M65.53,361.89L60.58,360.07L56.61,355.69L53.48,354.84L53.39,353.13L55.88,350.60L53.79,343.03L48.55,337.49L46.67,333.38L40.34,328.81L41.13,327.25L43.87,326.74L44.67,329.18L46.10,328.43L47.26,329.74L48.11,329.09L47.78,330.37L49.23,329.75L50.39,330.79L52.21,330.75L52.91,332.10L54.90,331.50L54.55,329.37L55.57,328.59L59.70,331.88L62.92,329.22L64.06,330.78L66.93,332.08L68.10,334.31L66.76,336.78L67.33,338.83L66.75,340.29L68.56,342.63L71.42,343.74L72.28,349.63L69.93,354.25L66.60,354.47L66.96,357.94L65.53,361.89ZM65.40,344.94L63.98,344.22L62.78,345.69L63.90,349.53L65.72,349.92L66.70,345.77L66.23,344.70L65.40,344.94ZM64.43,354.16L65.79,352.64L65.31,351.19L64.16,351.76L64.43,354.16ZM54.90,349.22L54.84,350.41L52.98,351.63L54.02,348.89L54.90,349.22Z"><title>Selangor</title></path>
<path data-code="MY-05" data-name="Negeri Sembilan" d="M72.94,367.58L71.23,366.71L69.53,367.49L69.13,365.14L67.25,362.45L65.53,361.89L66.96,357.94L66.60,354.47L69.93,354.25L72.25,349.74L71.76,344.51L70.93,343.42L71.42,342.79L74.63,344.46L75.17,345.89L76.87,345.26L84.03,347.39L86.18,349.85L92.31,353.54L92.79,355.14L89.87,366.73L83.89,364.89L80.67,365.57L78.26,364.77L75.33,365.68L72.94,367.58Z"><title>Negeri Sembilan</title></path>
<path data-code="MY-04" data-name="Melaka" d="M86.81,375.87L77.54,371.90L72.94,367.58L75.33,365.68L78.26,364.77L80.67,365.57L83.89,364.89L89.87,366.73L87.66,368.73L86.58,372.67L88.10,373.70L88.13,374.65L86.81,375.87Z"><title>Melaka</title></path>
<path data-code="MY-01" data-name="Johor" d="M118.72,359.80L122.18,360.42L124.25,363.87L124.19,365.56L127.27,369.00L128.03,373.10L131.81,379.11L132.13,382.05L134.10,384.04L135.76,388.51L136.83,393.13L136.37,396.03L133.51,396.56L131.63,395.81L130.34,392.75L132.78,391.08L130.17,392.17L127.75,388.23L128.92,390.99L128.96,393.77L127.98,394.57L124.25,392.99L120.31,393.71L117.61,396.41L116.16,395.62L115.28,398.72L113.58,396.80L111.16,391.27L99.16,385.46L96.42,382.74L92.64,382.35L86.81,375.87L88.13,374.65L88.10,373.70L86.58,372.67L87.66,368.73L90.45,365.22L90.83,360.84L92.79,355.14L95.83,356.37L100.76,361.91L105.27,363.74L111.08,361.95L118.12,366.06L118.60,364.70L117.67,363.70L118.27,361.72L117.61,360.88L118.72,359.80ZM134.86,356.62L134.53,358.58L133.05,358.63L132.31,357.73L133.42,353.69L134.86,356.62Z"><title>Johor</title></path>
<path data-code="MY-06" data-name="Pahang" d="M113.25,318.18L111.90,320.14L113.01,324.27L112.38,323.88L111.91,324.68L111.46,328.37L110.39,330.15L113.78,335.82L113.39,336.63L114.34,336.44L112.84,340.46L113.61,345.00L113.02,351.72L114.10,354.80L118.72,359.80L117.61,360.88L118.27,361.72L117.67,363.70L118.60,364.70L118.12,366.06L111.08,361.95L105.27,363.74L100.76,361.91L95.83,356.37L92.79,355.14L92.31,353.54L86.18,349.85L84.03,347.39L76.87,345.26L75.17,345.89L74.63,344.46L71.83,342.94L70.93,343.42L68.56,342.63L66.75,340.29L67.33,338.83L66.76,336.78L68.09,334.06L66.93,332.08L64.06,330.78L62.21,328.65L61.09,322.76L61.76,320.60L60.01,319.34L59.72,317.30L58.44,316.75L57.90,312.26L55.02,310.89L56.25,308.99L55.65,306.93L56.05,305.85L58.65,307.03L60.00,306.22L63.70,307.19L66.81,305.22L67.77,301.67L70.82,305.71L72.36,301.69L74.44,302.49L76.48,301.79L79.57,305.18L80.94,304.48L82.77,304.96L84.43,302.92L87.31,304.15L88.57,303.20L89.96,303.58L90.42,301.16L93.62,303.73L96.65,304.10L97.67,305.67L96.63,307.68L97.03,309.04L99.55,310.21L100.29,309.67L101.65,311.41L101.36,313.47L100.00,313.85L99.15,315.29L98.29,318.96L98.81,319.80L101.20,319.14L107.62,322.39L109.85,326.34L110.50,324.28L109.38,320.68L109.80,317.50L113.25,318.18Z"><title>Pahang</title></path>
<path data-code="MY-11" data-name="Terengganu" d="M88.28,271.34L91.81,274.95L100.30,280.33L104.31,284.50L113.39,300.47L113.49,309.31L114.73,314.37L113.41,318.09L109.80,317.50L109.38,320.68L110.50,324.28L109.85,326.34L107.62,322.39L101.20,319.14L98.68,319.68L99.21,315.14L101.39,313.37L101.30,310.67L100.15,309.61L99.55,310.21L97.74,309.76L96.64,307.91L97.42,304.86L92.39,302.95L90.98,299.12L87.43,297.45L87.20,292.99L87.91,292.15L84.70,289.98L85.46,284.83L84.19,283.22L83.97,276.03L88.28,271.34Z"><title>Terengganu</title></path>
<path data-code="MY-15" data-name="Labuan" d="M440.43,284.94L440.73,287.00L437.95,288.09L438.78,285.51L440.24,284.33L440.43,284.94Z"><title>Labuan</title></path>
<path data-code="MY-14" data-name="Kuala Lumpur" d="M64.07,344.21L66.62,345.44L65.72,349.92L63.90,349.53L62.86,346.66L64.07,344.21Z"><title>Kuala Lumpur</title></path>
<path data-code="MY-16" data-name="Putrajaya" d="M65.31,351.19L65.79,352.64L64.31,354.12L64.16,351.76L65.31,351.19Z"><title>Putrajaya</title></path>
  </g>
</svg>
