<?xml version="1.0" encoding="UTF-8"?>
<svg xmlns="http://www.w3.org/2000/svg" viewBox="0 0 560 640" class="pref-muni-svg" role="img" aria-label="行政区分">
  <g class="pref-muni-svg__paths" fill="#eaf2fb" stroke="#5b7fa8" stroke-width="0.6" stroke-linejoin="round">
<path data-code="MD-BR" data-name="Briceni" d="M47.37,54.69L42.61,51.58L32.66,54.85L33.68,49.91L41.38,40.16L49.28,48.07L54.69,49.03L56.90,44.93L55.13,32.73L60.68,31.59L64.32,27.04L78.47,35.81L91.11,33.96L90.03,27.84L91.72,25.82L111.20,33.63L121.92,30.23L124.43,39.95L130.32,45.79L127.84,50.16L128.85,56.86L125.24,60.10L116.56,62.15L107.58,55.57L104.16,58.98L102.79,70.95L93.21,83.23L81.75,78.70L86.12,73.92L81.26,72.10L77.75,66.03L73.50,70.21L72.05,65.17L61.38,56.18L50.42,55.55L48.88,52.42L47.37,54.69Z"><title>Briceni</title></path>
<path data-code="MD-ED" data-name="Edineţ" d="M99.94,107.13L98.98,104.20L101.85,101.37L94.79,96.31L91.29,87.29L102.79,70.95L104.16,58.98L107.58,55.57L116.56,62.15L125.24,60.10L128.85,56.86L127.84,50.16L130.32,45.79L143.25,57.22L158.25,59.32L165.55,69.87L161.11,77.79L164.91,95.76L153.63,103.94L139.59,107.57L133.46,102.11L129.25,103.31L120.52,118.16L111.55,120.23L107.71,116.99L110.22,111.78L106.69,111.00L103.56,105.56L99.94,107.13Z"><title>Edineţ</title></path>
<path data-code="MD-RI" data-name="Rîşcani" d="M127.02,159.73L117.32,146.71L122.13,143.75L116.36,139.66L116.36,131.08L109.08,124.43L111.55,120.23L120.52,118.16L129.25,103.31L133.46,102.11L139.59,107.57L148.11,105.90L164.91,95.76L163.35,83.44L171.55,92.08L183.35,97.01L181.24,107.27L182.85,118.04L190.54,122.92L202.66,115.84L214.51,129.08L216.22,138.57L220.34,139.64L220.60,146.21L205.90,152.73L193.83,142.05L180.05,144.59L167.17,137.22L154.53,136.24L150.57,140.72L140.12,141.72L135.41,147.39L133.44,155.16L127.02,159.73Z"><title>Rîşcani</title></path>
<path data-code="MD-GL" data-name="Glodeni" d="M146.91,195.33L138.43,189.10L124.75,167.09L128.00,166.43L127.02,159.73L133.44,155.16L135.41,147.39L140.12,141.72L160.73,135.65L180.05,144.59L193.83,142.05L207.33,155.86L207.55,159.72L198.47,155.70L193.77,164.94L185.23,166.42L176.23,181.55L155.71,187.49L146.91,195.33Z"><title>Glodeni</title></path>
<path data-code="MD-FA" data-name="Făleşti" d="M147.18,196.46L155.71,187.49L176.23,181.55L185.23,166.42L193.77,164.94L200.83,154.99L213.76,162.20L222.26,162.71L219.03,175.13L227.56,175.76L229.65,186.83L229.44,190.87L217.53,200.24L217.22,205.17L228.05,210.78L223.84,219.07L216.97,218.33L213.53,225.45L185.04,228.00L169.34,238.81L167.04,237.20L168.16,230.85L165.65,228.67L167.53,219.62L153.07,213.15L147.18,196.46Z"><title>Făleşti</title></path>
<path data-code="MD-UN" data-name="Ungheni" d="M228.41,309.19L218.62,304.99L218.57,302.02L205.25,291.01L206.10,288.10L200.01,284.78L197.44,272.47L189.69,257.75L176.13,251.34L169.34,238.81L185.04,228.00L213.53,225.45L216.97,218.33L231.28,220.45L233.98,223.54L248.55,220.12L259.03,228.09L258.88,233.50L256.38,236.49L239.45,246.96L243.57,252.41L249.44,254.03L240.06,262.84L227.30,265.75L222.90,285.86L223.94,290.37L228.30,293.88L230.18,303.86L236.36,305.94L232.61,311.42L231.19,307.81L228.41,309.19Z"><title>Ungheni</title></path>
<path data-code="MD-NI" data-name="Nisporeni" d="M242.02,331.08L238.89,320.49L232.61,311.42L236.36,305.94L230.18,303.86L228.30,293.88L223.94,290.37L222.90,285.86L227.30,265.75L240.06,262.84L257.60,277.47L273.27,282.19L276.76,287.30L274.25,292.85L276.38,298.29L295.15,297.72L298.28,301.47L292.21,307.98L296.39,311.08L286.94,327.70L283.26,325.82L284.69,320.05L275.46,305.89L273.23,310.04L275.58,315.90L258.67,334.14L242.02,331.08Z"><title>Nisporeni</title></path>
<path data-code="MD-HI" data-name="Hîncesti" d="M244.51,347.16L243.23,336.33L240.88,334.71L242.02,331.08L258.67,334.14L275.58,315.90L273.23,310.04L275.46,305.89L284.69,320.05L283.26,325.82L286.94,327.70L296.39,311.08L292.21,307.98L295.78,304.49L305.00,312.36L303.59,319.34L318.68,334.61L320.29,343.14L325.03,338.15L329.17,342.48L330.80,351.08L330.35,358.75L314.72,367.47L309.42,383.01L308.41,374.86L303.66,372.90L293.23,377.51L283.35,371.67L281.73,376.98L277.88,378.45L280.68,382.42L281.57,391.13L273.07,394.55L268.76,388.48L261.75,390.66L244.51,347.16Z"><title>Hîncesti</title></path>
<path data-code="MD-LE" data-name="Leova" d="M260.76,422.82L258.08,417.01L261.75,390.66L268.76,388.48L273.07,394.55L280.26,392.80L280.68,382.42L277.88,378.45L281.73,376.98L283.35,371.67L293.23,377.51L303.66,372.90L308.41,374.86L309.77,387.48L312.06,390.33L307.97,403.82L310.10,411.12L308.27,420.68L293.71,432.97L287.66,431.17L280.25,440.76L274.87,438.48L274.82,434.16L272.36,433.53L262.29,440.75L259.53,439.79L259.07,435.25L262.05,430.95L260.76,422.82Z"><title>Leova</title></path>
<path data-code="MD-CT" data-name="Cantemir" d="M242.80,500.01L247.62,483.14L242.58,472.64L245.84,471.44L246.28,465.38L252.27,461.72L257.22,440.75L262.29,440.75L272.36,433.53L274.82,434.16L274.87,438.48L280.25,440.76L287.66,431.17L293.71,432.97L292.80,444.28L299.11,449.16L299.45,453.61L296.69,465.91L297.38,478.00L287.70,489.71L289.61,493.00L289.27,500.96L275.84,503.28L270.34,499.01L264.74,499.11L261.01,505.23L242.80,500.01Z"><title>Cantemir</title></path>
<path data-code="MD-CA" data-name="Cahul" d="M242.42,501.12L261.01,505.23L264.74,499.11L270.34,499.01L275.84,503.28L291.82,502.80L288.87,525.24L293.15,536.66L284.55,543.27L280.73,554.70L273.12,563.90L269.76,570.35L269.01,580.77L274.76,588.92L283.68,590.64L295.89,578.32L299.74,561.66L307.16,577.77L299.78,582.43L293.98,591.53L299.23,596.25L302.83,607.65L287.20,610.25L276.80,605.75L266.73,606.52L265.31,619.68L257.83,625.49L255.33,632.00L250.60,625.23L250.53,618.28L247.09,611.69L235.99,604.80L242.41,598.45L250.89,596.78L249.06,570.09L243.19,556.98L242.80,551.01L245.70,547.49L243.78,542.56L244.84,537.79L238.89,517.91L239.93,505.81L242.42,501.12Z"><title>Cahul</title></path>
<path data-code="MD-OC" data-name="Ocniţa" d="M168.53,8.00L171.60,8.39L171.90,13.82L174.73,15.18L197.01,17.18L211.10,30.20L200.28,36.02L169.75,34.69L158.25,59.32L143.25,57.22L124.43,39.95L121.92,30.23L129.54,20.87L134.63,18.30L143.26,23.38L157.39,10.82L168.53,8.00Z"><title>Ocniţa</title></path>
<path data-code="MD-DO" data-name="Donduseni" d="M211.10,30.20L216.89,38.25L227.69,41.04L229.55,49.86L229.51,58.65L223.56,61.20L220.49,67.94L215.47,69.12L206.56,65.14L211.74,81.16L195.65,82.34L192.51,89.16L187.41,92.99L188.24,97.27L186.24,98.20L171.55,92.08L163.35,83.44L161.11,77.79L165.55,69.87L158.25,59.32L169.75,34.69L200.28,36.02L211.10,30.20Z"><title>Donduseni</title></path>
<path data-code="MD-SO" data-name="Soroca" d="M227.69,41.04L240.31,45.96L238.32,57.75L240.37,59.29L252.38,54.87L253.90,62.26L257.79,65.34L268.70,59.49L277.61,59.05L278.40,68.87L272.60,74.61L271.93,80.36L276.46,81.52L281.96,73.50L285.19,73.06L288.75,77.36L286.23,83.06L291.92,92.92L296.23,94.77L297.61,85.81L303.75,90.13L300.32,97.50L295.01,101.42L292.94,108.87L288.80,111.00L284.77,108.27L279.29,110.57L267.67,105.18L265.66,109.16L261.14,110.18L236.94,111.36L231.09,107.37L236.28,97.20L242.87,93.15L241.21,84.34L220.49,67.94L223.56,61.20L229.51,58.65L227.69,41.04Z"><title>Soroca</title></path>
<path data-code="MD-CAM" data-name="Camenca" d="M303.49,76.11L339.77,85.22L344.45,103.16L359.03,120.22L358.17,130.01L359.88,132.38L343.94,125.39L344.13,120.45L337.73,111.83L333.62,117.11L323.43,121.92L319.87,129.20L321.46,137.56L316.93,140.85L307.38,131.58L294.54,131.28L298.41,116.80L297.14,110.80L292.94,108.87L295.01,101.42L300.32,97.50L303.75,90.13L297.61,85.81L300.36,77.51L303.49,76.11Z"><title>Camenca</title></path>
<path data-code="MD-RE" data-name="Rezina" d="M359.03,120.22L370.45,122.50L376.62,114.52L383.52,112.48L388.86,117.49L392.32,130.77L401.26,134.96L393.05,149.41L401.62,158.63L395.76,166.57L393.66,188.09L384.56,204.57L387.34,214.75L385.89,218.54L372.68,207.60L370.24,194.52L367.04,189.84L364.59,161.22L370.58,138.50L358.17,130.01L359.03,120.22Z"><title>Rezina</title></path>
<path data-code="MD-SN" data-name="Stîngă Nistrului" d="M387.34,214.75L391.10,223.96L393.66,225.92L400.78,222.52L410.38,236.58L416.72,239.13L420.24,251.80L416.91,262.65L406.97,274.09L410.10,286.18L401.33,281.10L399.08,283.82L394.44,281.01L394.66,291.56L390.00,291.17L385.53,299.31L377.75,293.67L393.22,273.95L391.01,266.99L394.72,260.46L392.59,254.72L385.65,258.03L389.28,264.10L383.54,266.42L378.40,263.79L378.04,253.57L365.48,239.65L369.21,232.83L375.26,234.07L379.63,230.76L383.23,217.76L385.89,218.54L387.34,214.75Z"><title>Stîngă Nistrului</title></path>
<path data-code="MD-GRI" data-name="Grigoriopol" d="M420.24,251.80L425.69,256.89L430.21,256.40L435.73,244.82L438.57,244.50L444.04,245.66L448.29,251.32L449.71,260.88L444.62,266.28L444.74,286.64L435.31,291.60L441.26,302.25L445.65,296.00L451.78,299.22L452.93,305.17L448.63,312.19L446.96,322.61L429.35,323.39L420.92,327.99L414.78,325.88L410.69,319.78L409.56,316.22L420.46,313.74L419.26,307.76L421.61,308.66L421.82,306.00L420.31,298.37L409.56,289.45L406.97,274.09L416.91,262.65L420.24,251.80Z"><title>Grigoriopol</title></path>
<path data-code="MD-BD" data-name="Bender" d="M446.96,322.61L447.92,328.10L466.04,334.28L474.20,343.91L486.80,344.71L493.28,354.40L498.70,353.87L502.15,371.42L499.23,390.47L501.73,401.51L500.10,405.95L494.57,406.82L483.92,396.89L477.20,401.13L470.47,398.31L477.20,391.13L474.79,385.01L454.78,376.79L448.29,371.60L442.91,359.15L435.96,357.35L431.44,350.89L430.12,343.65L435.07,337.36L433.03,324.72L446.96,322.61Z"><title>Bender</title></path>
<path data-code="MD-SV" data-name="Ștefan Vodă" d="M494.57,406.82L497.00,413.90L504.67,419.49L509.22,418.97L511.87,423.84L510.80,425.62L519.66,433.70L527.34,433.70L520.24,443.74L497.37,443.85L484.62,450.92L481.81,447.76L480.70,438.75L468.57,423.73L466.98,432.57L460.16,433.73L458.91,443.45L452.30,446.04L444.26,435.73L435.73,433.22L436.51,422.76L432.33,421.01L426.70,405.56L428.55,395.94L436.14,389.83L440.97,391.00L444.36,384.23L448.74,383.47L448.29,371.60L461.82,381.40L474.79,385.01L477.20,391.13L470.47,398.31L477.20,401.13L483.92,396.89L494.57,406.82Z"><title>Ștefan Vodă</title></path>
<path data-code="MD-CS" data-name="Causeni" d="M396.28,447.26L393.85,443.03L396.98,437.15L397.14,417.26L391.61,397.53L378.26,389.53L366.49,367.75L363.98,355.14L380.42,345.16L382.82,353.51L391.65,355.87L392.36,361.22L395.26,362.51L398.59,359.50L401.59,363.28L408.98,363.47L410.53,356.47L414.29,358.44L418.14,352.29L431.44,350.89L435.96,357.35L438.83,356.65L445.93,362.67L449.43,377.64L448.74,383.47L444.36,384.23L440.97,391.00L436.14,389.83L428.55,395.94L426.70,405.56L432.33,421.01L420.79,435.07L411.21,423.56L408.74,427.76L407.91,438.95L396.28,447.26Z"><title>Causeni</title></path>
<path data-code="MD-CM" data-name="Cimişlia" d="M393.80,409.93L375.90,418.04L377.13,408.27L361.32,406.45L348.26,421.75L341.11,425.02L339.49,434.00L334.72,434.82L309.69,417.25L307.97,403.82L312.06,390.33L309.42,383.01L314.72,367.47L330.35,358.75L330.80,351.08L337.08,356.75L350.18,357.20L354.94,353.41L361.37,358.11L363.98,355.14L370.83,377.73L378.26,389.53L391.61,397.53L393.80,409.93Z"><title>Cimişlia</title></path>
<path data-code="MD-BS" data-name="Basarabeasca" d="M375.90,418.04L360.40,427.11L357.53,431.65L356.66,437.45L360.40,458.02L358.67,467.51L365.79,475.30L356.23,486.56L356.03,475.90L351.70,472.28L343.37,472.52L341.16,469.58L340.40,459.84L331.15,454.26L329.47,459.19L326.45,459.08L331.95,449.75L334.72,434.82L339.49,434.00L341.11,425.02L348.26,421.75L358.38,408.31L374.48,406.33L377.13,408.27L375.90,418.04Z"><title>Basarabeasca</title></path>
<path data-code="MD-TA" data-name="Taraclia" d="M365.79,475.30L370.19,483.27L359.41,502.53L361.96,520.66L331.46,530.60L329.79,537.05L332.14,551.80L329.39,556.28L321.53,559.73L321.53,566.89L308.43,570.07L306.58,575.52L304.66,575.13L303.35,566.95L299.74,561.66L289.50,556.82L282.39,548.69L284.55,543.27L293.15,536.66L288.87,525.24L291.82,502.80L302.50,504.14L311.82,512.07L310.35,518.46L314.84,527.83L343.86,518.96L352.19,505.13L356.23,486.56L365.79,475.30Z"><title>Taraclia</title></path>
<path data-code="MD-GA" data-name="Comrat" d="M298.16,610.47L298.54,619.87L294.95,623.70L265.31,619.68L266.73,606.52L298.16,610.47ZM309.69,417.25L334.72,434.82L331.95,449.75L326.45,459.08L329.47,459.19L331.15,454.26L334.40,454.73L340.40,459.84L341.16,469.58L343.37,472.52L351.70,472.28L356.03,475.90L356.23,486.56L352.19,505.13L343.86,518.96L314.84,527.83L310.35,518.46L311.82,512.07L307.67,507.67L289.27,500.96L289.61,493.00L287.70,489.71L297.38,478.00L296.69,465.91L299.45,453.61L299.11,449.16L291.86,440.55L294.42,437.28L293.71,432.97L309.69,417.25ZM283.68,590.64L274.76,588.92L269.01,580.77L269.76,570.35L282.39,548.69L289.50,556.82L299.74,561.66L295.89,578.32L283.68,590.64Z"><title>Comrat</title></path>
<path data-code="MD-CR" data-name="Criuleni" d="M345.86,294.95L337.72,286.02L336.88,279.79L340.72,271.20L340.13,265.34L343.67,259.99L349.09,260.87L371.08,245.88L378.04,253.57L378.40,263.79L383.54,266.42L389.28,264.10L393.22,273.95L377.75,293.67L385.53,299.31L390.00,291.17L394.66,291.56L394.44,281.01L399.08,283.82L401.33,281.10L409.17,286.60L403.72,292.91L403.86,315.70L401.87,319.50L393.63,314.55L384.25,317.32L380.25,306.90L376.00,305.85L369.17,313.05L364.43,312.48L365.51,305.70L363.43,302.35L360.89,309.07L354.50,300.06L349.37,299.69L345.86,294.95Z"><title>Criuleni</title></path>
<path data-code="MD-ST" data-name="Străşeni" d="M338.45,272.82L337.72,286.02L345.86,294.95L339.67,297.97L333.22,296.72L320.42,285.89L320.53,291.90L335.90,303.64L332.78,311.21L320.08,307.76L315.63,312.08L310.33,308.63L306.85,301.77L298.28,301.47L295.15,297.72L276.38,298.29L274.25,292.85L276.76,287.30L273.27,282.19L285.81,277.15L292.91,270.56L295.54,267.23L291.38,256.52L299.84,248.82L319.48,246.29L326.85,264.81L334.54,263.79L338.45,272.82Z"><title>Străşeni</title></path>
<path data-code="MD-AN" data-name="Anenii Noi" d="M401.87,319.50L403.86,315.70L403.72,292.91L409.17,286.60L420.31,298.37L421.82,306.00L421.61,308.66L419.26,307.76L420.15,314.03L409.56,316.22L412.51,323.13L417.25,327.61L429.35,323.39L434.29,326.66L435.07,337.36L430.12,343.65L431.44,350.89L418.14,352.29L414.29,358.44L410.53,356.47L408.98,363.47L401.59,363.28L398.59,359.50L395.26,362.51L392.36,361.22L391.65,355.87L381.17,351.55L382.35,346.58L375.02,343.48L374.06,339.05L376.72,332.25L363.97,326.77L361.06,331.17L357.13,329.28L355.10,322.64L358.70,315.32L369.17,313.05L376.00,305.85L380.25,306.90L384.25,317.32L393.63,314.55L401.87,319.50Z"><title>Anenii Noi</title></path>
<path data-code="MD-OR" data-name="Orhei" d="M371.08,245.88L349.09,260.87L343.67,259.99L338.45,272.82L334.54,263.79L326.85,264.81L319.48,246.29L313.93,248.47L308.84,246.14L310.02,241.18L302.26,236.15L300.55,228.45L308.50,224.94L307.72,218.73L312.11,210.29L327.10,200.18L338.89,204.64L342.86,203.03L354.64,191.01L361.69,194.98L383.59,218.88L379.63,230.76L375.26,234.07L369.21,232.83L365.48,239.65L371.08,245.88Z"><title>Orhei</title></path>
<path data-code="MD-SN" data-name="Transnistria" d="M391.01,266.99L385.65,258.03L392.59,254.72L394.72,260.46L391.01,266.99Z"><title>Transnistria</title></path>
<path data-code="MD-CU" data-name="Chişinău" d="M345.86,294.95L349.37,299.69L354.50,300.06L360.89,309.07L363.43,302.35L365.51,305.70L364.43,312.48L358.70,315.32L355.10,322.64L336.72,317.07L338.12,307.29L320.53,291.90L320.42,285.89L333.22,296.72L339.67,297.97L345.86,294.95Z"><title>Chişinău</title></path>
<path data-code="MD-TE" data-name="Teleneşti" d="M302.44,158.71L316.93,166.67L313.29,177.08L328.40,189.87L327.10,200.18L309.24,212.68L308.50,224.94L300.55,228.45L296.57,223.73L291.50,224.33L272.67,229.58L264.57,225.10L259.03,228.09L248.55,220.12L251.00,215.05L251.31,200.35L258.92,196.74L277.25,197.29L280.04,190.48L285.34,188.68L284.31,172.67L289.36,168.88L294.19,171.97L302.44,158.71Z"><title>Teleneşti</title></path>
<path data-code="MD-SD" data-name="Şoldăneşti" d="M316.93,166.67L302.44,158.71L300.37,150.83L291.26,145.92L289.05,148.33L287.42,140.03L294.54,131.28L301.94,130.37L307.38,131.58L316.93,140.85L321.46,137.56L319.87,129.20L323.43,121.92L333.62,117.11L337.73,111.83L344.13,120.45L343.94,125.39L359.88,132.38L361.75,136.15L362.82,140.94L357.93,139.37L355.61,144.54L345.71,142.93L343.25,146.45L345.55,149.14L338.69,152.34L335.14,162.85L324.80,160.93L316.93,166.67Z"><title>Şoldăneşti</title></path>
<path data-code="MD-FL" data-name="Floreşti" d="M294.54,131.28L287.42,140.03L289.05,148.33L291.26,145.92L300.37,150.83L302.44,158.71L294.19,171.97L289.36,168.88L284.31,172.67L276.70,165.37L265.98,163.42L268.14,153.45L258.23,152.10L253.02,142.59L246.77,143.98L245.81,139.22L242.54,138.35L236.87,128.69L238.97,124.49L236.94,111.36L261.14,110.18L265.66,109.16L267.67,105.18L279.29,110.57L292.94,108.87L297.14,110.80L298.41,116.80L294.54,131.28Z"><title>Floreşti</title></path>
<path data-code="MD-RE" data-name="Rezina" d="M327.10,200.18L328.40,189.87L313.29,177.08L316.93,166.67L324.80,160.93L335.14,162.85L338.69,152.34L345.55,149.14L343.25,146.45L345.71,142.93L355.61,144.54L357.93,139.37L362.82,140.94L359.88,132.38L370.58,138.50L364.59,161.22L367.38,180.31L366.13,186.22L370.93,196.79L371.79,205.37L354.64,191.01L338.89,204.64L327.10,200.18Z"><title>Rezina</title></path>
<path data-code="MD-IA" data-name="Ialoveni" d="M320.29,343.14L318.68,334.61L303.59,319.34L305.00,312.36L295.78,304.49L298.28,301.47L306.85,301.77L310.33,308.63L315.63,312.08L320.08,307.76L332.78,311.21L335.90,303.64L338.45,312.73L336.72,317.07L355.10,322.64L357.13,329.28L361.06,331.17L363.97,326.77L373.83,329.72L376.72,332.25L374.06,339.05L375.02,343.48L380.42,345.16L360.45,358.08L354.94,353.41L350.18,357.20L337.08,356.75L330.80,351.08L329.17,342.48L325.03,338.15L320.29,343.14Z"><title>Ialoveni</title></path>
<path data-code="MD-CL" data-name="Călărași" d="M308.84,246.14L299.84,248.82L291.38,256.52L295.54,267.23L292.91,270.56L285.81,277.15L273.27,282.19L257.60,277.47L240.06,262.84L249.44,254.03L243.57,252.41L239.45,246.96L256.38,236.49L258.88,233.50L259.03,228.09L264.57,225.10L274.95,229.51L296.57,223.73L300.55,228.45L302.26,236.15L310.02,241.18L308.84,246.14Z"><title>Călărași</title></path>
<path data-code="MD-DR" data-name="Drochia" d="M236.87,128.69L227.83,138.45L216.22,138.57L214.51,129.08L202.66,115.84L190.54,122.92L182.85,118.04L181.24,107.27L183.35,97.01L188.24,97.27L187.41,92.99L192.51,89.16L195.65,82.34L211.74,81.16L206.56,65.14L215.47,69.12L220.49,67.94L241.21,84.34L242.87,93.15L236.28,97.20L231.09,107.37L236.94,111.36L238.97,124.49L236.87,128.69Z"><title>Drochia</title></path>
<path data-code="MD-SI" data-name="Sîngerei" d="M220.34,139.64L227.83,138.45L236.87,128.69L242.54,138.35L245.81,139.22L246.77,143.98L253.02,142.59L258.23,152.10L268.14,153.45L265.98,163.42L276.70,165.37L284.31,172.67L285.34,188.68L280.04,190.48L277.25,197.29L258.92,196.74L251.31,200.35L251.00,215.05L248.55,220.12L233.98,223.54L223.84,219.07L228.05,210.78L217.22,205.17L217.53,200.24L229.44,190.87L229.65,186.83L227.56,175.76L219.03,175.13L219.61,168.64L222.26,162.71L226.17,162.33L228.81,168.26L234.97,163.62L233.51,153.22L223.97,151.84L220.60,146.21L220.34,139.64Z"><title>Sîngerei</title></path>
<path data-code="MD-BA" data-name="Bălţi" d="M220.60,146.21L223.97,151.84L233.51,153.22L233.67,166.09L228.81,168.26L226.17,162.33L207.55,159.72L205.90,152.73L220.60,146.21Z"><title>Bălţi</title></path>
  </g>
</svg>
