<?xml version="1.0" encoding="UTF-8"?>
<svg xmlns="http://www.w3.org/2000/svg" viewBox="0 0 560 640" class="pref-muni-svg" role="img" aria-label="行政区分">
  <g class="pref-muni-svg__paths" fill="#eaf2fb" stroke="#5b7fa8" stroke-width="0.6" stroke-linejoin="round">
<path data-code="MN-061" data-name="Dornod" d="M497.66,246.58L486.73,270.16L486.56,272.70L482.71,278.57L482.70,285.69L477.87,288.43L478.91,293.92L484.64,299.51L490.21,295.08L494.54,295.73L499.99,294.75L504.18,296.38L509.11,300.32L515.98,291.86L523.01,290.99L527.92,291.95L532.90,297.72L538.25,300.06L539.10,303.37L542.08,304.65L541.60,306.16L548.68,312.48L549.86,316.60L552.00,318.93L551.60,324.51L548.34,326.53L537.89,324.81L536.28,322.84L535.26,323.61L534.24,322.22L532.10,324.42L524.47,323.28L518.24,326.13L516.50,328.29L514.39,328.40L512.61,326.23L509.66,327.03L508.71,332.32L499.87,331.59L495.93,333.79L490.22,325.80L472.05,327.08L467.68,328.99L464.16,323.11L459.96,320.43L460.35,312.80L459.62,311.55L448.93,303.78L434.49,299.82L430.04,301.62L430.07,296.38L427.53,289.79L427.57,280.01L422.03,268.20L422.63,265.95L421.30,259.02L421.92,258.04L420.56,256.07L426.43,253.74L430.83,254.76L436.08,252.39L438.93,246.62L445.14,241.72L449.71,240.22L457.10,235.36L465.01,236.37L469.13,238.64L475.73,244.91L481.29,245.24L489.77,241.87L495.82,244.15L497.66,246.58Z"><title>Dornod</title></path>
<path data-code="MN-071" data-name="Bayan-Ölgiy" d="M10.87,272.92L8.00,270.18L10.28,267.74L9.42,266.24L9.33,262.85L11.70,262.77L14.87,260.25L14.39,258.13L15.39,255.97L22.85,254.76L27.16,256.16L27.47,253.55L29.59,255.56L32.65,254.05L32.36,252.15L33.01,251.25L35.64,252.56L36.82,251.03L41.23,249.14L39.76,246.12L40.64,244.01L44.92,243.43L46.22,242.12L47.53,242.83L51.35,252.71L57.02,256.38L57.82,258.94L61.48,259.57L61.71,261.83L64.62,267.27L66.76,268.28L68.43,270.64L69.05,274.35L64.83,274.33L57.88,277.27L59.71,278.69L60.55,281.00L59.64,283.99L60.38,288.49L62.58,290.89L66.30,300.19L67.55,304.13L67.28,306.79L71.11,312.02L70.26,317.04L78.24,324.14L78.10,325.21L71.72,325.28L70.24,327.31L67.73,324.84L63.42,324.10L61.24,317.79L58.31,316.06L54.20,308.78L54.51,307.07L51.81,301.01L52.10,300.13L47.67,297.72L47.02,294.66L42.06,296.03L38.52,290.92L30.12,291.86L27.94,289.07L26.06,289.07L22.52,286.80L21.99,283.20L20.94,281.98L12.15,278.02L11.47,276.86L13.44,274.17L10.87,272.92Z"><title>Bayan-Ölgiy</title></path>
<path data-code="MN-043" data-name="Hovd" d="M61.58,361.30L59.74,358.65L58.75,354.97L57.28,353.70L58.29,347.29L63.22,340.62L61.43,333.69L63.95,327.53L63.11,326.45L63.42,324.10L67.73,324.84L70.24,327.31L71.72,325.28L77.39,325.75L78.24,324.14L70.26,317.04L71.11,312.02L67.28,306.79L67.55,304.13L66.30,300.19L62.58,290.89L60.50,288.91L59.64,283.99L60.55,281.00L57.93,276.98L64.83,274.33L69.82,274.05L74.04,268.87L77.10,267.47L78.59,268.55L79.74,272.85L81.51,272.89L83.63,276.72L85.07,275.96L93.08,277.83L97.42,275.13L100.25,276.43L101.32,279.30L105.52,282.71L104.35,285.88L100.24,289.50L101.74,295.43L105.27,300.81L106.15,303.93L114.50,310.42L115.34,314.50L118.43,319.77L117.79,321.79L110.26,326.67L106.05,327.03L107.68,332.50L103.86,340.88L103.94,343.05L99.00,348.53L99.20,357.79L98.30,365.77L94.44,364.93L83.80,365.65L80.83,364.05L72.22,364.14L70.60,362.28L67.40,362.69L64.14,360.52L61.58,361.30Z"><title>Hovd</title></path>
<path data-code="MN-051" data-name="Sühbaatar" d="M495.93,333.79L492.13,338.55L489.69,343.43L490.34,346.03L488.52,348.71L486.12,349.19L479.96,354.91L474.88,356.13L468.14,356.65L464.15,355.33L461.28,356.36L459.34,360.91L453.77,366.84L450.38,368.17L445.57,372.34L431.08,369.23L428.34,367.78L425.41,364.26L418.16,363.74L417.93,358.85L414.27,353.33L414.55,346.00L411.98,338.76L405.32,334.71L406.86,331.51L406.02,325.33L409.45,318.38L411.50,309.73L415.20,306.50L419.95,306.97L419.64,302.37L420.66,300.04L430.07,296.38L430.04,301.62L434.49,299.82L448.93,303.78L459.62,311.55L460.35,312.80L459.96,320.43L464.16,323.11L467.68,328.99L472.05,327.08L490.22,325.80L495.93,333.79Z"><title>Sühbaatar</title></path>
<path data-code="MN-063" data-name="Dornogovi" d="M418.16,363.74L414.00,366.73L408.22,381.05L410.71,386.76L415.70,392.15L417.48,395.92L417.30,398.14L414.26,398.97L411.11,402.94L401.06,407.56L391.47,421.10L378.96,426.53L375.88,428.99L367.02,429.04L364.24,430.25L351.60,429.25L351.07,417.41L351.64,412.52L350.36,397.87L345.14,381.54L348.26,370.70L355.96,369.58L361.27,364.55L359.35,350.13L360.78,342.83L357.84,343.62L355.87,341.10L356.09,332.90L352.00,326.99L354.33,324.53L351.11,324.01L350.03,322.00L352.71,321.11L358.88,321.86L362.78,319.87L364.77,316.13L366.82,317.06L367.40,321.04L369.40,319.99L369.65,322.54L367.81,326.86L367.82,328.83L371.36,334.51L374.30,336.74L380.22,336.49L384.42,333.48L385.79,329.30L385.33,325.81L386.22,325.43L388.08,326.22L392.28,331.55L393.93,335.21L398.95,338.87L401.03,339.33L405.41,335.47L411.67,338.39L414.55,346.00L414.27,353.33L417.93,358.85L418.16,363.74Z"><title>Dornogovi</title></path>
<path data-code="MN-065" data-name="Govi-Altay" d="M101.56,366.39L98.30,365.77L99.31,354.82L98.88,349.38L103.94,343.05L103.86,340.88L107.68,332.50L106.05,327.03L110.26,326.67L118.40,320.69L115.34,314.50L114.50,310.42L106.15,303.93L105.27,300.81L109.40,300.34L115.82,297.15L122.55,299.43L130.31,299.70L132.71,302.51L138.80,302.24L150.80,310.06L153.17,314.45L154.28,319.22L159.26,317.89L161.88,319.07L164.45,326.08L168.72,326.62L171.35,324.50L175.48,326.19L176.38,333.08L181.28,338.66L184.14,339.84L187.98,345.22L189.70,354.73L187.48,363.94L185.41,367.22L185.27,376.56L180.64,381.44L181.23,390.73L180.59,400.52L178.18,408.47L179.06,422.22L167.95,420.63L153.82,422.19L153.15,417.60L145.64,409.26L144.94,405.26L139.90,391.68L136.24,390.21L136.31,386.72L137.58,383.70L131.47,384.33L126.13,382.33L123.88,379.85L119.66,377.97L117.01,374.29L112.70,373.99L108.66,368.59L101.56,366.39Z"><title>Govi-Altay</title></path>
<path data-code="MN-069" data-name="Bayanhongor" d="M206.54,426.15L179.06,422.22L178.18,408.47L180.59,400.52L181.23,390.73L180.64,381.44L185.27,376.56L185.41,367.22L187.48,363.94L189.70,354.73L187.98,345.22L184.14,339.84L181.28,338.66L176.23,332.79L175.44,324.79L179.48,311.61L184.20,310.52L186.08,307.48L186.09,305.22L187.87,302.62L188.21,300.34L191.67,298.44L194.13,298.74L194.97,302.13L198.71,304.58L203.21,304.13L209.55,300.01L209.89,303.33L212.58,306.43L213.26,313.80L222.21,311.86L223.71,316.39L226.02,317.61L227.49,320.36L235.75,319.86L241.13,326.42L241.83,329.96L239.96,333.01L240.80,337.42L237.38,340.97L236.86,351.34L234.22,356.17L235.48,365.22L241.95,369.56L240.77,373.30L245.11,389.23L235.90,395.00L220.96,395.18L212.30,386.43L206.75,387.82L207.28,410.40L209.03,425.33L206.54,426.15Z"><title>Bayanhongor</title></path>
<path data-code="MN-053" data-name="Ömnögovi" d="M236.04,427.00L215.72,423.37L209.03,425.33L207.28,410.40L206.60,387.99L212.30,386.43L220.96,395.18L235.49,395.06L245.11,389.23L251.36,386.97L266.17,386.82L265.00,381.93L270.56,369.81L276.93,365.55L279.23,361.24L284.80,361.35L284.99,367.71L286.52,370.09L308.08,373.31L311.68,379.29L312.92,383.06L316.87,385.62L324.95,384.38L338.57,378.38L341.39,379.15L345.82,377.99L345.17,382.73L350.36,397.87L351.64,412.52L351.07,417.41L351.60,429.25L329.91,433.02L303.41,446.45L299.57,450.35L298.19,448.90L291.63,448.60L291.56,443.31L277.87,446.06L267.42,440.00L249.84,435.54L243.13,427.36L236.04,427.00Z"><title>Ömnögovi</title></path>
<path data-code="MN-041" data-name="Hövsgöl" d="M197.46,189.65L198.42,191.30L203.99,194.37L210.52,195.69L214.04,198.94L224.07,199.49L238.27,206.33L244.59,206.33L252.37,209.46L251.55,211.53L251.74,215.06L253.15,217.99L252.93,222.45L254.83,224.43L254.04,227.60L257.94,229.75L259.74,232.34L256.33,234.78L251.08,243.94L262.54,249.84L258.05,251.29L255.09,255.74L248.89,257.72L244.62,261.17L243.09,264.13L243.41,266.96L238.11,267.54L227.50,261.64L225.41,265.02L222.52,265.33L222.55,266.52L225.08,268.32L221.48,272.02L221.30,276.00L223.15,277.87L218.89,279.48L218.13,281.76L211.42,279.89L210.04,283.88L204.47,283.71L202.53,285.24L200.15,283.32L198.83,277.24L201.13,270.53L199.42,263.10L194.15,263.62L191.04,267.28L184.74,265.45L180.19,266.18L173.69,261.94L167.36,261.33L162.97,257.65L162.25,255.73L162.78,253.43L167.21,249.28L166.12,247.02L168.15,248.79L170.49,248.79L174.38,245.98L174.26,244.27L177.47,243.16L178.72,244.11L183.38,240.63L186.04,235.19L186.68,230.02L182.25,226.80L180.65,223.05L181.34,221.26L178.36,218.21L180.40,212.16L180.29,209.60L182.46,205.94L185.32,205.72L185.46,203.04L187.22,199.71L193.14,197.20L196.07,190.10L197.46,189.65Z"><title>Hövsgöl</title></path>
<path data-code="MN-067" data-name="Bulgan" d="M259.74,232.34L264.95,234.72L269.59,234.87L270.86,237.33L276.35,238.91L279.46,237.61L285.15,238.55L289.01,235.49L291.93,238.51L293.53,241.98L291.82,242.65L291.94,245.30L295.50,249.98L294.47,250.98L294.31,254.92L291.88,264.34L289.48,263.74L287.89,264.95L284.84,263.95L283.11,265.94L283.11,267.28L288.18,268.71L292.27,272.15L291.73,273.48L292.12,281.32L287.97,288.13L289.75,291.97L295.00,293.05L295.96,300.06L292.02,300.26L291.33,301.59L285.73,303.44L284.25,304.84L286.00,307.59L285.59,309.05L277.64,310.23L277.35,308.06L272.95,304.18L269.68,299.14L267.70,298.55L266.41,295.57L263.71,294.05L262.92,289.75L260.76,286.25L255.50,283.47L255.06,281.47L253.14,279.44L251.48,271.64L248.87,272.48L243.82,268.34L243.09,264.13L244.62,261.17L248.89,257.72L255.09,255.74L258.05,251.29L262.54,249.84L251.00,243.55L255.34,237.63L256.33,234.78L259.74,232.34Z"><title>Bulgan</title></path>
<path data-code="MN-046" data-name="Uvs" d="M86.20,220.73L91.09,225.54L93.57,222.72L96.37,222.97L97.21,226.79L98.79,227.40L117.95,228.23L119.34,231.60L119.93,236.68L122.25,238.45L124.14,241.72L129.52,241.08L132.14,243.56L138.38,244.33L138.92,244.83L138.67,251.96L139.61,254.71L142.51,257.99L140.81,262.88L140.30,269.29L139.67,270.45L137.02,270.88L132.46,273.78L127.35,274.70L116.14,271.82L109.12,275.42L105.74,279.21L104.74,281.85L101.34,279.32L100.57,276.77L98.28,275.29L96.24,275.42L93.08,277.83L85.07,275.96L83.63,276.72L81.51,272.89L79.74,272.85L77.68,267.59L74.04,268.87L69.05,274.35L68.19,270.08L64.62,267.27L61.71,261.83L61.48,259.57L57.82,258.94L57.02,256.38L51.46,252.86L47.92,243.29L46.22,242.12L47.13,240.13L54.31,236.90L57.84,236.86L58.56,234.99L62.76,231.97L70.22,230.80L75.87,225.29L82.79,225.17L84.21,224.40L85.20,221.35L86.20,220.73Z"><title>Uvs</title></path>
<path data-code="MN-049" data-name="Selenge" d="M305.57,230.43L316.67,232.32L317.87,233.96L320.69,234.98L328.03,234.12L333.40,237.35L334.81,240.38L337.09,242.06L349.85,243.86L349.53,250.37L360.40,258.89L359.58,263.89L355.85,264.29L352.26,266.73L349.21,265.11L345.26,265.58L342.84,267.55L346.22,271.03L344.77,275.85L338.13,277.88L335.77,276.40L331.72,276.85L328.71,278.90L326.61,278.56L319.83,274.69L317.22,275.14L317.16,271.54L314.13,270.29L308.67,272.13L307.53,272.97L308.38,275.75L301.02,279.14L292.03,276.21L292.27,272.15L289.49,269.44L292.74,266.67L291.88,264.34L294.31,254.92L294.47,250.98L295.50,249.98L291.94,245.30L291.82,242.65L293.53,241.98L291.93,238.51L289.01,235.49L298.34,232.57L301.80,232.56L305.57,230.43ZM323.11,253.98L317.61,251.68L319.33,247.96L319.22,246.58L317.65,247.12L314.10,251.23L315.19,255.35L313.68,263.70L318.02,264.56L322.96,262.35L327.10,264.79L330.44,263.69L330.11,254.36L325.50,251.96L323.11,253.98Z"><title>Selenge</title></path>
<path data-code="MN-057" data-name="Dzavhan" d="M144.85,241.71L146.86,243.73L148.71,242.24L153.62,244.97L156.28,244.14L157.66,245.74L159.64,244.35L164.78,245.55L167.21,249.28L163.01,253.07L162.27,256.15L167.36,261.33L173.69,261.94L180.19,266.18L184.74,265.45L190.40,267.34L192.45,266.56L194.15,263.62L199.86,263.72L201.11,270.85L198.78,276.51L200.15,283.32L193.38,286.06L191.08,288.77L184.76,290.33L184.32,291.60L185.33,295.24L184.52,299.19L188.21,300.34L188.07,302.10L184.20,310.52L179.22,312.11L175.48,326.19L171.35,324.50L168.72,326.62L164.45,326.08L161.88,319.07L159.26,317.89L154.28,319.22L153.17,314.45L150.80,310.06L138.80,302.24L132.71,302.51L130.31,299.70L122.55,299.43L116.41,297.17L109.40,300.34L105.27,300.81L101.56,294.97L100.24,289.50L104.90,285.12L105.52,282.71L104.74,281.85L105.74,279.21L109.12,275.42L116.14,271.82L127.35,274.70L132.46,273.78L137.02,270.88L139.67,270.45L140.54,268.35L140.98,262.14L142.51,257.99L139.61,254.71L138.67,251.96L138.62,245.25L144.85,241.71Z"><title>Dzavhan</title></path>
<path data-code="MN-039" data-name="Hentiy" d="M360.40,258.89L372.52,258.57L376.41,260.62L380.00,260.36L387.66,262.94L390.87,260.97L396.23,263.62L407.23,257.93L409.61,258.46L420.56,256.07L421.92,258.04L421.30,259.02L422.63,265.95L422.03,268.20L427.57,280.01L427.53,289.79L430.07,296.38L420.66,300.04L419.64,302.37L419.95,306.97L415.20,306.50L411.50,309.73L409.45,318.38L406.02,325.33L406.78,331.99L405.41,335.47L402.18,338.50L400.08,339.30L395.41,336.66L387.20,325.49L385.33,325.81L385.79,329.30L384.42,333.48L380.22,336.49L374.30,336.74L371.36,334.51L367.82,328.83L367.81,326.86L369.65,322.54L369.40,319.99L367.22,320.86L366.82,317.06L362.50,314.00L357.46,303.83L357.75,300.87L358.96,298.84L358.96,293.82L365.69,289.81L368.33,283.74L365.22,271.49L363.24,267.60L359.58,263.89L360.40,258.89Z"><title>Hentiy</title></path>
<path data-code="MN-037" data-name="Darhan-Uul" d="M319.22,246.58L319.24,248.86L317.61,251.68L323.11,253.98L325.50,251.96L330.11,254.36L330.44,263.69L327.10,264.79L322.96,262.35L318.02,264.56L313.68,263.70L315.19,255.35L314.10,251.23L317.65,247.12L319.22,246.58Z"><title>Darhan-Uul</title></path>
<path data-code="MN-047" data-name="Töv" d="M358.01,302.66L357.54,304.11L360.01,307.73L362.50,314.00L364.77,316.13L363.59,319.02L358.88,321.86L352.71,321.11L348.32,322.33L347.32,327.04L344.51,327.76L340.88,330.61L335.56,331.18L331.03,327.52L319.70,326.95L313.58,323.02L311.17,323.60L306.72,330.30L299.45,326.56L294.14,331.75L289.82,327.71L289.55,324.03L287.06,320.07L288.95,318.75L289.08,316.47L286.13,312.74L286.00,307.59L284.25,304.84L287.92,302.00L291.33,301.59L292.02,300.26L295.96,300.06L295.00,293.05L289.75,291.97L287.97,288.13L291.83,282.41L292.03,276.21L301.02,279.14L308.38,275.75L307.53,272.97L308.67,272.13L314.13,270.29L317.16,271.54L317.22,275.14L319.83,274.69L326.61,278.56L328.71,278.90L331.72,276.85L335.77,276.40L338.13,277.88L344.77,275.85L346.22,271.03L342.84,267.55L345.26,265.58L349.21,265.11L352.26,266.73L355.85,264.29L359.58,263.89L363.24,267.60L365.22,271.49L368.33,283.74L365.69,289.81L360.91,293.33L356.73,293.71L354.75,296.00L354.12,298.53L354.63,301.03L358.01,302.66ZM331.84,287.43L322.96,285.35L325.76,297.98L328.16,298.84L334.40,298.31L338.52,300.61L342.48,300.30L343.27,293.50L339.46,291.96L335.52,286.27L331.84,287.43Z"><title>Töv</title></path>
<path data-code="MN-073" data-name="Arhangay" d="M243.41,266.96L244.44,269.06L247.62,270.67L248.87,272.48L251.48,271.64L253.14,279.44L255.06,281.47L255.50,283.47L260.76,286.25L262.92,289.75L263.71,294.05L266.41,295.57L267.70,298.55L269.68,299.14L272.95,304.18L277.35,308.06L277.64,310.23L275.06,311.57L269.44,311.32L266.69,307.75L260.36,305.73L260.02,306.83L261.63,309.33L258.44,313.97L257.90,317.09L256.57,317.36L253.82,315.07L248.31,316.92L245.90,318.86L236.80,320.92L235.36,319.69L227.49,320.36L226.02,317.61L223.71,316.39L222.21,311.86L213.26,313.80L212.58,306.43L209.89,303.33L209.55,300.01L203.21,304.13L198.71,304.58L194.97,302.13L193.62,298.39L189.97,298.91L188.21,300.34L184.52,299.19L185.33,295.24L184.32,291.60L185.31,289.64L191.08,288.77L193.38,286.06L200.15,283.32L202.53,285.24L204.47,283.71L210.04,283.88L210.85,280.52L211.77,279.76L218.13,281.76L218.89,279.48L223.15,277.87L221.30,276.00L221.48,272.02L225.08,268.32L222.55,266.52L222.52,265.33L225.41,265.02L227.50,261.64L238.11,267.54L243.41,266.96Z"><title>Arhangay</title></path>
<path data-code="MN-035" data-name="Orhon" d="M291.88,264.34L292.62,267.03L289.49,269.44L283.11,267.28L283.11,265.94L284.84,263.95L287.89,264.95L289.48,263.74L291.88,264.34Z"><title>Orhon</title></path>
<path data-code="MN-059" data-name="Dundgovi" d="M335.56,331.18L340.88,330.61L344.51,327.76L347.32,327.04L348.32,322.33L350.03,322.00L351.11,324.01L354.33,324.53L352.00,326.99L356.09,332.90L355.87,341.10L357.84,343.62L360.78,342.83L359.35,350.13L361.14,365.35L358.92,366.08L355.96,369.58L348.26,370.70L347.21,376.12L345.82,377.99L341.39,379.15L338.57,378.38L324.95,384.38L317.38,385.76L312.92,383.06L311.68,379.29L308.08,373.31L286.52,370.09L284.99,367.71L285.14,361.87L279.23,361.24L279.70,356.96L276.55,352.48L276.76,350.52L278.75,348.33L284.09,347.50L286.16,338.11L290.19,337.19L292.03,334.44L292.42,331.74L293.31,330.76L294.14,331.75L299.45,326.56L306.72,330.30L311.17,323.60L313.58,323.02L319.70,326.95L331.03,327.52L335.56,331.18Z"><title>Dundgovi</title></path>
<path data-code="MN-055" data-name="Övörhangay" d="M285.59,309.05L286.13,312.74L289.08,316.47L288.95,318.75L287.06,320.07L289.55,324.03L289.97,328.09L293.31,330.76L290.19,337.19L285.98,338.42L284.92,346.09L284.09,347.50L279.18,348.13L276.76,350.52L276.85,353.61L279.92,357.67L277.79,364.45L270.07,370.75L265.00,381.93L266.17,386.82L251.36,386.97L245.11,389.23L240.77,373.30L241.95,369.56L235.81,365.63L234.74,362.14L234.21,355.70L236.86,351.34L237.38,340.97L240.80,337.42L239.96,333.01L241.83,329.96L241.13,326.42L236.80,320.92L245.90,318.86L248.31,316.92L253.82,315.07L256.57,317.36L257.90,317.09L258.44,313.97L261.63,309.33L260.02,306.83L260.36,305.73L266.69,307.75L269.44,311.32L275.06,311.57L285.59,309.05Z"><title>Övörhangay</title></path>
<path data-code="MN-064" data-name="Govĭ-Sümber" d="M358.96,293.82L359.09,297.64L357.69,301.11L358.01,302.66L355.18,301.83L354.12,298.53L354.75,296.00L356.73,293.71L358.96,293.82Z"><title>Govĭ-Sümber</title></path>
<path data-code="MN-1" data-name="Ulaanbaatar" d="M322.96,285.35L331.84,287.43L335.52,286.27L339.46,291.96L343.52,293.82L342.48,300.30L338.52,300.61L334.40,298.31L328.16,298.84L325.76,297.98L322.96,285.35Z"><title>Ulaanbaatar</title></path>
  </g>
</svg>
