<?xml version="1.0" encoding="UTF-8"?>
<svg xmlns="http://www.w3.org/2000/svg" viewBox="0 0 560 640" class="pref-muni-svg" role="img" aria-label="行政区分">
  <g class="pref-muni-svg__paths" fill="#eaf2fb" stroke="#5b7fa8" stroke-width="0.6" stroke-linejoin="round">
<path data-code="MM-16" data-name="Rakhine" d="M150.97,250.55L153.18,248.51L154.07,248.90L160.36,257.55L162.58,256.14L168.65,257.32L169.77,262.07L172.22,265.22L179.39,269.66L183.43,270.00L185.60,268.84L185.11,263.65L186.16,262.39L187.60,262.74L189.71,266.71L192.93,268.72L193.22,273.30L196.30,274.84L204.00,288.39L204.28,291.53L206.68,294.32L206.16,297.69L209.47,310.37L213.41,316.61L212.72,318.81L213.54,321.57L217.40,324.57L221.25,330.83L218.59,332.60L220.85,335.49L219.34,337.94L220.35,340.86L219.96,343.18L223.94,350.83L222.93,360.63L224.35,364.25L223.28,368.80L221.41,371.23L221.09,376.52L219.67,379.64L213.80,376.60L213.57,372.63L215.29,373.85L210.01,359.60L211.42,357.85L211.37,356.30L209.24,350.63L206.19,349.79L206.35,348.61L208.18,349.18L209.06,348.25L204.08,341.76L203.76,337.43L200.62,334.36L204.72,334.11L202.62,334.00L200.62,329.79L199.70,331.51L197.14,330.10L197.23,325.48L198.90,322.49L196.85,322.23L198.04,312.45L196.73,315.86L196.99,318.59L195.10,320.53L193.96,318.59L193.12,319.04L194.53,321.18L195.45,326.47L193.75,330.11L185.83,324.75L184.68,320.93L179.80,314.29L179.92,311.83L181.87,311.06L183.71,311.97L184.02,314.27L188.22,317.17L190.72,317.47L193.73,315.42L195.54,312.52L195.45,309.95L193.54,310.00L193.96,309.02L192.23,308.69L187.48,304.33L189.65,303.54L190.51,301.47L189.86,300.56L188.42,302.92L186.80,301.64L188.12,299.90L186.29,301.26L184.88,301.25L184.47,300.11L183.40,301.47L183.56,298.89L185.26,296.40L187.70,296.01L187.76,294.59L182.75,296.05L180.78,294.11L181.01,292.12L179.96,293.26L177.79,293.25L176.50,289.15L175.86,291.22L175.19,288.69L173.05,290.51L170.02,290.31L168.52,288.94L171.90,297.18L171.97,298.06L169.14,292.28L167.91,292.30L167.81,294.41L169.79,298.51L163.54,287.78L165.81,287.78L166.99,286.42L167.44,287.10L168.28,285.04L164.18,286.94L165.77,281.04L167.35,279.41L167.63,277.74L166.35,280.03L165.45,278.45L166.78,273.62L165.19,277.02L164.99,281.28L160.31,288.03L157.31,285.38L157.50,284.38L162.68,281.40L159.66,279.53L159.03,275.61L157.95,275.23L157.22,276.94L155.69,272.37L152.99,268.85L155.30,272.82L156.02,283.46L153.56,278.16L150.00,274.52L148.96,271.80L145.00,268.78L141.52,257.16L138.52,252.94L138.79,248.22L140.45,244.90L141.96,244.83L143.16,243.40L145.61,246.43L149.52,246.76L150.97,250.55ZM187.93,332.06L187.50,335.74L184.78,336.08L179.71,329.57L184.04,328.39L185.34,329.63L187.83,329.66L187.93,332.06ZM195.02,311.52L194.86,313.31L193.33,314.80L189.73,316.19L188.07,314.30L187.46,311.44L184.67,309.02L186.13,306.77L187.24,306.87L190.27,309.70L192.17,309.44L195.02,311.52ZM180.37,298.51L180.58,300.56L178.34,298.39L177.15,293.66L180.17,295.86L180.37,298.51ZM163.34,290.87L165.26,297.83L161.70,289.27L163.34,290.87Z"><title>Rakhine</title></path>
<path data-code="MM-14" data-name="Chin" d="M153.18,248.51L151.58,242.28L151.13,226.23L153.49,224.84L154.53,220.34L159.32,223.93L160.62,226.91L161.52,224.90L163.47,225.91L163.44,223.39L165.28,221.72L165.25,218.76L168.93,219.24L168.36,217.80L169.94,216.84L169.70,212.60L167.59,208.43L166.98,199.74L170.00,196.11L168.82,192.00L169.27,190.51L173.06,191.98L176.27,187.85L178.08,170.61L176.27,167.56L175.67,161.96L174.01,159.02L174.22,156.74L176.06,156.25L178.84,160.20L182.44,159.93L183.74,158.56L186.85,158.68L189.76,161.00L193.18,160.90L199.07,164.11L199.99,163.73L201.29,169.03L200.42,175.54L199.82,176.32L197.52,175.54L197.48,180.58L195.95,181.16L196.57,190.44L195.70,194.83L196.68,212.32L197.53,213.01L196.61,215.06L197.52,220.83L196.61,223.83L197.63,227.08L196.17,229.11L196.16,232.47L200.04,239.70L196.82,249.93L199.27,251.84L199.69,255.08L197.18,261.57L200.29,269.02L195.24,270.26L189.71,266.71L188.06,263.15L186.16,262.39L184.96,265.59L185.88,268.59L183.43,270.00L179.39,269.66L172.22,265.22L169.77,262.07L168.65,257.32L162.58,256.14L159.91,257.35L153.18,248.51Z"><title>Chin</title></path>
<path data-code="MM-11" data-name="Kachin" d="M299.54,29.72L300.96,28.92L301.72,25.81L299.54,22.47L300.50,18.39L302.42,16.15L304.41,15.72L304.33,12.88L306.93,8.00L309.63,9.58L311.42,8.61L314.40,13.90L318.56,13.80L321.56,16.68L321.50,18.51L325.78,21.50L325.15,26.53L327.36,28.54L326.19,29.68L327.97,31.53L328.21,34.72L331.06,41.07L332.12,41.53L333.84,40.43L334.69,36.15L338.21,37.08L339.98,39.24L342.15,38.57L343.16,39.71L343.00,46.07L344.05,47.71L342.94,53.10L343.54,55.87L345.00,57.32L344.26,63.54L345.39,65.87L344.81,68.49L345.56,71.43L344.23,79.28L341.99,83.77L343.98,86.42L342.06,88.99L341.27,87.40L338.95,88.73L340.11,92.84L343.49,95.86L343.33,97.14L340.98,98.89L337.46,97.89L331.60,106.99L326.19,105.19L326.01,107.75L324.92,108.90L325.19,112.61L318.95,118.65L316.24,116.85L314.05,121.78L312.46,123.10L312.61,127.98L314.40,131.07L311.21,131.23L307.19,134.05L306.47,144.26L310.69,144.47L312.02,147.33L310.40,147.94L310.60,148.79L312.92,149.62L313.10,150.82L312.59,154.69L306.57,160.77L309.98,163.97L310.69,163.25L310.49,164.42L300.06,168.69L291.37,170.70L290.15,168.60L283.36,166.95L286.95,164.75L287.70,162.05L286.74,159.21L285.08,160.02L281.82,157.93L278.05,151.30L277.98,147.03L279.51,144.97L272.22,142.18L266.26,143.59L263.26,140.61L262.13,137.65L257.22,135.88L253.84,126.73L259.54,123.69L259.36,126.78L261.01,126.03L261.16,122.96L258.14,117.52L257.87,108.38L258.53,106.67L260.77,107.61L264.58,103.19L261.30,96.49L264.01,91.22L263.73,87.52L259.08,78.63L263.63,75.63L263.01,72.97L260.49,69.63L265.10,66.73L265.31,64.80L267.50,63.67L268.07,61.75L266.38,60.31L273.00,60.86L289.23,59.23L292.17,55.88L294.07,56.04L294.56,54.70L293.51,52.84L286.59,44.15L285.98,38.98L297.34,28.98L299.02,28.62L299.54,29.72Z"><title>Kachin</title></path>
<path data-code="MM-01" data-name="Sagaing" d="M280.48,46.90L283.69,48.35L285.91,50.93L285.37,52.67L286.09,53.23L292.17,55.88L289.23,59.23L273.00,60.86L266.38,60.31L268.07,61.75L267.50,63.67L265.31,64.80L265.10,66.73L260.35,70.07L263.01,72.97L263.63,75.63L259.08,78.34L263.73,87.52L264.01,91.22L261.30,96.49L264.58,103.19L260.77,107.61L258.53,106.67L257.87,108.38L258.14,117.52L261.16,122.96L261.01,126.03L259.36,126.78L259.54,123.69L253.84,126.73L257.22,135.88L262.13,137.65L263.26,140.61L266.26,143.59L272.22,142.18L279.51,144.97L277.98,147.03L277.95,150.54L280.05,154.14L271.11,157.92L271.76,159.43L273.17,158.12L274.84,158.51L276.48,163.90L270.91,173.53L268.95,175.30L267.65,174.47L264.93,175.51L262.93,174.59L262.80,171.44L261.44,171.21L256.01,179.55L258.08,187.04L257.75,199.87L255.75,201.93L258.55,207.85L257.72,212.41L259.26,214.43L258.48,218.27L260.16,228.03L258.02,229.90L255.22,230.44L253.70,235.31L251.69,237.94L248.07,237.91L244.55,233.97L239.85,234.84L238.17,238.51L236.88,238.09L232.18,231.37L230.89,231.02L229.04,231.81L214.87,231.49L210.20,232.92L208.39,231.33L208.70,223.63L206.93,221.80L204.73,221.94L204.00,220.64L203.62,216.29L205.24,212.53L204.21,209.59L199.50,201.90L196.16,202.90L195.95,181.16L197.48,180.58L197.52,175.54L199.82,176.32L200.42,175.54L201.29,169.03L200.19,161.56L201.92,159.02L205.23,147.79L212.18,135.39L214.23,134.55L218.23,124.70L217.62,120.95L213.35,118.76L215.07,112.42L216.69,110.39L223.00,106.67L226.19,101.65L227.68,101.01L227.42,94.85L232.16,90.59L230.17,88.78L230.37,85.76L228.71,82.67L229.48,78.68L228.68,76.41L231.26,71.88L233.84,70.02L235.60,70.68L240.32,68.88L242.81,65.25L246.00,64.82L251.87,59.11L255.36,58.04L261.19,51.29L271.69,49.01L274.94,49.20L277.33,47.17L279.28,47.75L280.48,46.90Z"><title>Sagaing</title></path>
<path data-code="MM-17" data-name="Shan" d="M384.60,279.32L382.88,277.31L380.87,277.60L378.01,280.97L373.76,281.88L366.48,279.59L369.79,285.56L369.30,286.97L367.13,288.71L362.55,290.01L358.84,288.04L355.56,288.72L353.78,290.73L353.27,298.06L350.08,300.47L347.20,298.54L338.54,302.89L337.16,301.86L329.26,303.26L328.49,301.50L323.22,298.50L322.35,299.11L322.05,304.12L318.19,306.32L316.71,303.85L309.58,302.54L307.94,300.68L308.76,297.85L306.66,295.46L304.40,296.03L302.65,293.66L301.02,295.46L298.61,295.66L297.43,293.01L295.60,292.47L294.58,301.16L288.36,305.92L287.02,308.74L288.02,311.90L285.29,315.80L284.82,312.81L281.00,310.53L279.51,306.47L276.43,305.44L279.49,302.84L279.46,301.81L275.76,297.11L273.16,296.87L270.69,291.85L273.11,291.00L273.93,289.71L273.13,287.69L276.06,284.89L273.85,278.00L274.47,275.16L276.12,274.75L276.07,272.46L273.34,269.88L273.23,267.98L274.79,266.53L276.75,266.48L277.35,263.77L274.77,261.60L273.84,262.17L266.98,259.65L265.64,258.53L265.48,256.81L266.42,253.79L270.62,253.08L267.93,243.48L269.49,242.35L269.57,240.88L277.20,238.90L281.03,234.91L284.38,233.49L286.82,234.01L282.03,222.91L274.08,220.16L272.30,214.25L269.07,213.03L269.35,209.23L265.27,200.84L267.41,199.45L278.85,198.18L281.43,194.38L277.30,192.31L277.36,190.93L275.01,190.17L267.07,191.42L265.54,190.52L263.90,187.37L264.93,185.10L264.84,180.59L266.20,180.72L268.50,177.87L268.95,175.30L271.34,173.06L272.70,169.24L276.48,163.90L274.84,158.51L273.17,158.12L271.76,159.43L271.43,157.53L280.05,154.14L281.82,157.93L285.08,160.02L286.74,159.21L287.56,161.27L286.95,164.75L283.50,167.17L290.15,168.60L290.73,170.54L293.39,170.68L309.74,164.95L310.69,163.25L318.32,158.11L325.09,155.48L332.19,155.55L335.47,154.53L340.20,156.34L349.02,154.01L348.72,156.08L342.51,160.16L342.66,165.63L346.74,166.91L348.72,171.86L346.35,174.43L349.77,178.62L348.63,181.35L350.44,182.26L348.81,186.20L354.08,186.83L354.98,188.52L359.36,188.98L360.06,190.26L363.75,187.86L365.93,189.90L368.76,190.26L370.17,194.62L366.25,194.48L366.28,196.94L362.94,200.66L364.50,208.98L360.89,212.39L358.75,219.86L357.79,220.37L361.20,222.06L370.20,221.93L373.18,222.66L374.76,224.18L376.01,223.13L379.08,224.89L379.92,223.65L382.90,223.96L383.63,226.71L382.13,231.17L383.14,234.77L389.20,236.98L387.69,238.84L387.54,241.17L390.60,244.54L395.47,241.12L397.27,241.51L399.08,243.63L404.27,243.16L410.98,236.89L418.77,233.25L419.91,233.48L421.48,237.54L421.11,241.48L416.28,245.27L410.34,248.79L407.53,248.41L406.40,253.48L404.39,256.99L401.81,257.88L402.24,259.05L401.00,261.91L401.52,262.99L405.23,262.90L401.59,265.19L396.78,264.39L393.84,266.28L390.15,271.38L387.83,281.51L384.60,279.32Z"><title>Shan</title></path>
<path data-code="MM-12" data-name="Kayah" d="M317.67,306.40L316.75,306.91L316.82,309.44L314.46,312.16L315.69,315.37L314.36,316.53L315.89,318.46L315.83,321.67L311.02,327.88L313.08,330.33L313.98,339.31L306.35,342.35L303.77,342.41L300.38,336.24L294.19,335.75L290.69,329.58L288.98,323.10L286.12,319.81L285.17,316.74L288.02,311.90L287.14,308.25L289.46,304.62L294.58,301.16L295.60,292.47L297.43,293.01L298.61,295.66L301.02,295.46L302.65,293.66L304.40,296.03L306.66,295.46L308.76,297.85L307.94,300.68L309.58,302.54L316.71,303.85L317.67,306.40Z"><title>Kayah</title></path>
<path data-code="MM-13" data-name="Kayin" d="M302.05,340.44L301.38,340.35L305.63,348.98L306.94,349.87L308.38,347.62L310.38,348.51L309.76,350.66L314.05,359.74L311.59,364.36L314.21,368.99L321.24,375.18L322.90,378.53L324.58,379.60L324.70,381.62L330.56,387.47L331.21,389.86L334.93,391.05L337.81,395.59L338.29,397.00L337.20,397.24L338.07,398.58L336.15,401.24L341.66,409.90L342.65,415.78L343.25,416.22L346.60,412.85L348.20,409.59L350.18,412.61L349.59,416.71L347.18,421.64L343.17,421.12L341.26,423.63L338.99,423.74L340.15,426.09L338.78,434.92L339.40,446.80L338.57,447.78L336.71,445.86L334.48,446.64L334.13,450.03L331.07,448.89L328.32,451.33L327.76,448.58L320.07,437.33L317.72,435.86L318.22,434.08L316.61,428.75L317.49,423.99L316.23,420.87L321.97,420.23L324.15,421.19L326.03,418.90L321.95,414.03L321.33,411.13L319.25,411.01L317.37,409.11L317.20,407.49L315.05,408.07L312.20,405.27L310.96,405.23L307.87,401.09L305.06,391.55L307.04,387.85L306.71,381.99L304.32,376.56L304.66,374.25L302.41,370.97L303.58,368.53L302.20,368.65L300.59,372.36L299.26,372.07L298.06,373.86L297.02,373.38L295.92,367.43L296.71,364.74L294.42,359.85L296.73,353.63L294.73,351.84L294.17,348.26L292.60,348.97L289.58,344.87L289.98,340.77L288.75,337.44L284.70,338.72L282.17,337.93L280.97,338.58L279.68,336.95L278.23,333.81L279.09,332.28L278.20,330.18L280.40,328.01L274.77,321.25L275.80,319.41L271.41,309.75L275.37,309.52L277.49,311.04L280.04,308.89L281.00,310.53L284.71,312.65L286.03,319.63L288.19,321.48L289.56,326.89L293.93,335.38L300.28,336.14L302.05,340.44Z"><title>Kayin</title></path>
<path data-code="MM-15" data-name="Mon" d="M328.32,451.33L327.36,451.28L326.83,455.09L328.05,456.92L327.80,458.86L324.95,458.66L322.44,455.33L318.71,456.02L317.22,460.47L315.33,462.62L315.90,459.19L314.68,458.05L315.75,457.59L316.21,451.66L314.53,451.19L313.18,447.32L315.33,445.05L312.75,433.41L313.20,430.55L308.43,424.75L308.22,423.25L309.82,421.15L310.80,416.29L310.37,409.43L312.44,406.94L313.61,406.70L315.05,408.07L317.20,407.49L317.37,409.11L319.25,411.01L321.33,411.13L321.95,414.03L326.03,418.90L324.15,421.19L321.97,420.23L316.23,420.87L317.49,423.99L316.61,428.75L318.22,434.08L317.72,435.86L320.07,437.33L327.76,448.58L328.32,451.33ZM312.46,406.22L310.16,407.61L303.63,407.89L301.97,409.22L300.70,402.68L300.11,403.60L298.36,402.08L297.89,396.20L297.23,397.81L297.23,395.31L296.09,394.63L296.56,391.57L295.27,389.12L295.81,388.27L298.53,388.44L295.29,387.71L294.43,389.37L292.48,383.65L287.04,379.21L286.89,371.94L290.39,371.81L293.47,374.14L294.18,375.96L297.14,374.61L299.26,372.07L300.59,372.36L302.20,368.65L303.51,368.42L302.41,370.97L304.66,374.25L304.32,376.56L306.71,381.99L307.04,387.85L305.06,391.55L305.92,395.83L308.03,401.38L312.46,406.22ZM308.86,411.49L307.55,418.67L304.77,415.29L305.58,413.20L304.78,409.43L306.70,408.31L309.40,409.22L308.86,411.49Z"><title>Mon</title></path>
<path data-code="MM-05" data-name="Tanintharyi" d="M327.80,458.86L329.44,465.12L334.94,471.70L339.02,479.36L351.21,489.10L353.47,493.62L356.08,496.27L356.43,499.31L358.05,501.44L359.23,517.60L356.46,519.54L356.18,523.97L358.43,526.06L358.06,528.13L360.31,534.66L365.93,539.37L365.42,543.04L368.15,552.32L367.47,554.24L370.29,553.87L369.56,557.69L371.31,559.34L370.91,562.79L373.07,564.69L370.32,570.53L367.40,571.42L366.72,575.31L359.95,588.26L355.66,591.98L354.98,593.69L353.00,593.59L352.44,597.72L349.85,598.24L345.91,602.23L345.31,604.41L346.65,608.51L345.30,613.49L338.87,625.59L337.19,618.58L338.41,613.04L336.24,601.34L337.46,600.80L338.41,602.08L338.18,600.49L339.50,600.95L340.56,597.29L341.63,596.83L340.08,595.79L344.20,594.38L344.44,592.51L343.58,591.58L344.51,590.37L342.49,587.47L344.57,586.66L345.67,582.90L344.66,579.03L343.74,578.94L344.29,577.10L346.16,576.76L345.52,574.46L344.37,574.15L344.93,570.48L345.45,569.16L347.49,569.30L347.66,568.28L349.84,568.76L346.42,566.71L347.76,564.35L347.23,563.51L345.95,566.48L342.99,569.04L340.99,567.50L341.67,565.45L340.77,565.10L344.01,562.60L339.06,562.60L342.68,561.21L344.48,558.63L344.21,556.44L342.71,556.55L341.59,554.16L344.11,551.75L343.91,550.63L340.56,552.09L338.74,550.50L339.67,548.86L344.01,546.97L340.82,544.27L341.17,542.38L344.11,541.49L341.39,539.96L342.96,537.72L343.58,534.40L342.19,534.46L343.14,533.36L341.22,533.03L342.28,532.00L341.74,529.29L340.34,527.93L341.10,526.77L339.98,519.03L336.89,515.79L336.67,511.49L336.03,512.61L335.20,508.92L332.36,505.31L331.29,501.90L329.49,501.46L329.14,491.85L327.83,489.79L327.66,507.13L326.32,507.36L325.87,505.85L327.09,502.57L325.03,501.90L325.46,500.97L324.39,499.60L325.25,498.92L325.27,495.20L323.73,491.60L325.25,486.35L321.58,480.93L321.79,476.33L320.72,477.01L318.18,469.16L319.99,467.95L322.65,470.37L320.21,465.33L319.62,466.89L318.55,465.37L318.71,467.37L317.08,467.84L315.33,462.62L317.22,460.47L318.71,456.02L322.44,455.33L324.95,458.66L327.80,458.86ZM323.59,631.93L322.36,632.00L322.27,630.95L323.59,631.93ZM328.98,607.85L327.85,609.10L327.75,608.00L328.98,607.85ZM331.09,623.54L325.98,630.31L325.79,626.50L329.17,623.36L331.09,623.54ZM327.63,621.13L327.41,618.75L329.35,619.43L327.63,623.77L327.63,621.13ZM319.00,608.70L320.01,610.39L318.96,611.78L318.31,611.18L319.00,608.70ZM337.32,595.49L339.19,597.43L338.37,598.96L337.46,598.74L338.41,597.86L337.53,597.74L337.32,595.49ZM318.34,595.69L319.01,594.38L320.27,594.56L318.12,597.04L318.34,595.69ZM330.21,597.29L331.09,600.70L329.67,602.08L329.35,597.49L328.04,595.80L326.40,594.38L324.22,595.59L326.22,592.61L327.19,592.57L330.21,597.29ZM338.41,592.72L337.77,593.65L336.79,592.74L338.29,588.98L338.82,593.40L338.41,592.72ZM330.44,583.60L331.29,583.83L329.57,584.72L328.71,582.90L330.64,582.67L330.44,583.60ZM330.54,565.22L331.95,567.50L330.70,574.89L329.99,576.28L329.14,575.14L328.14,576.33L328.71,576.76L327.34,576.90L330.54,565.22ZM338.63,565.10L339.29,566.59L338.63,574.23L336.23,572.42L335.39,572.99L333.72,568.84L334.54,568.28L333.74,566.85L334.78,566.10L333.45,565.57L338.63,565.10ZM323.53,568.51L324.60,570.80L322.15,568.39L322.22,563.05L323.61,567.58L324.37,567.39L323.53,568.51ZM311.23,561.69L311.46,563.96L310.55,562.96L311.23,561.69ZM329.78,563.28L330.13,561.60L330.88,562.47L329.78,563.28ZM330.21,560.76L329.53,561.04L329.20,559.61L329.99,559.52L330.21,560.76ZM340.77,559.64L342.49,560.76L336.82,562.19L335.60,554.82L338.14,558.32L340.77,559.64ZM324.82,552.32L325.93,551.94L326.11,553.93L323.02,551.65L324.07,548.91L325.68,549.91L324.82,552.32ZM323.84,546.39L321.79,549.59L320.07,548.23L320.87,547.07L319.84,547.30L319.90,546.35L322.35,545.14L321.95,546.32L323.10,546.61L324.17,544.32L325.07,545.80L323.84,546.39ZM337.96,542.05L337.38,545.04L336.71,544.40L337.51,541.46L337.96,542.05ZM329.78,539.65L330.90,541.02L329.98,542.06L329.03,541.33L329.78,539.65ZM316.21,538.99L317.06,538.75L317.06,540.66L316.21,538.99ZM336.46,539.11L336.13,543.31L332.79,547.70L331.29,547.30L332.36,543.54L331.31,538.62L331.71,535.66L334.54,537.27L335.17,540.91L335.97,538.44L336.46,539.11ZM331.09,522.43L332.37,522.79L331.29,524.27L331.29,528.13L329.35,520.61L329.57,518.08L331.09,522.43Z"><title>Tanintharyi</title></path>
<path data-code="MM-07" data-name="Ayeyarwady" d="M259.40,412.73L260.99,414.99L258.23,417.89L257.05,418.03L257.33,416.74L255.18,418.36L255.40,417.20L251.83,420.64L250.20,417.90L250.44,421.09L248.31,427.02L239.87,434.77L236.46,433.98L236.29,430.71L238.86,425.84L238.77,420.38L237.70,421.75L238.15,425.86L235.32,429.71L235.99,425.20L234.45,428.04L234.09,432.43L232.86,432.73L231.35,431.40L231.73,425.10L231.45,424.04L230.79,425.86L230.47,424.49L231.74,421.98L234.51,421.33L231.67,420.38L229.62,422.83L228.47,431.80L226.63,433.18L222.58,432.30L224.14,430.41L223.70,429.75L222.78,430.64L222.20,427.02L225.01,424.04L223.92,424.75L223.09,421.07L227.16,416.97L222.83,419.99L223.29,423.96L218.63,430.10L216.66,430.17L214.86,427.95L218.98,424.75L220.91,419.93L218.13,424.64L213.76,427.47L217.30,421.29L216.87,416.74L218.98,413.31L218.14,409.57L218.98,407.85L217.87,408.39L217.24,407.61L217.45,413.20L215.69,416.66L214.31,417.45L215.75,413.86L214.30,416.17L212.33,415.48L211.89,419.01L209.40,422.85L207.28,423.68L206.63,425.45L203.85,426.38L202.69,424.83L204.38,407.76L206.68,407.06L206.25,405.13L207.33,404.16L208.61,399.07L207.97,395.31L209.25,395.31L210.56,393.69L209.92,393.69L210.34,390.03L211.31,387.88L210.23,386.02L212.86,385.78L211.94,384.35L213.12,381.37L214.64,382.28L213.80,376.60L219.67,379.64L221.09,376.52L221.41,371.23L223.72,367.70L224.34,363.68L222.93,360.63L223.94,350.83L222.26,346.80L224.59,345.00L229.43,346.71L230.83,343.46L232.22,343.01L239.44,351.02L241.57,357.61L241.39,360.14L242.83,361.56L241.56,365.70L242.30,369.17L243.65,370.90L248.56,373.15L250.89,376.62L249.13,382.02L249.63,385.14L252.44,388.08L255.74,394.26L254.84,398.05L255.91,400.61L254.50,403.60L255.37,406.92L253.59,409.37L255.84,411.80L259.40,412.73ZM221.99,427.59L222.41,429.41L221.22,432.10L218.74,431.59L221.99,427.59ZM216.77,417.94L215.75,422.82L213.86,425.15L210.98,426.45L208.61,430.68L208.20,425.29L211.21,423.36L215.18,417.94L216.16,417.15L216.77,417.94Z"><title>Ayeyarwady</title></path>
<path data-code="MM-06" data-name="Yangon" d="M284.88,395.67L285.50,397.18L284.06,400.77L278.24,408.07L272.59,409.41L267.98,406.45L265.98,400.70L267.89,398.24L266.96,398.15L264.25,399.63L266.44,403.67L266.24,406.13L269.45,410.69L267.84,413.13L262.60,414.61L258.57,412.13L255.18,411.41L253.59,409.37L255.37,406.92L254.50,403.60L255.91,400.61L254.84,398.05L255.74,394.26L252.44,388.08L249.63,385.14L249.17,382.97L251.74,374.92L260.76,366.79L268.11,380.22L269.21,385.16L271.05,388.33L271.27,392.37L281.34,392.80L284.88,395.67Z"><title>Yangon</title></path>
<path data-code="MM-02" data-name="Bago" d="M286.64,376.79L285.78,379.08L284.71,378.87L287.51,381.46L285.58,384.92L287.52,391.19L286.52,394.19L285.14,394.15L285.78,395.31L284.28,395.06L284.88,395.67L281.34,392.80L271.27,392.37L271.05,388.33L269.21,385.16L268.11,380.22L260.76,366.79L255.80,370.48L250.89,376.62L248.56,373.15L243.65,370.90L242.30,369.17L241.56,365.70L242.83,361.56L241.39,360.14L241.57,357.61L239.60,351.39L229.52,340.60L229.91,336.50L233.83,333.14L233.22,328.96L236.17,326.58L237.05,323.56L239.36,323.12L241.01,321.06L243.89,319.99L253.32,319.80L254.37,315.28L252.58,309.96L255.21,310.56L257.36,309.39L262.39,311.56L264.52,309.25L271.41,309.75L275.80,319.41L274.77,321.25L280.40,328.01L278.20,330.18L279.09,332.28L278.23,333.81L280.57,338.43L284.70,338.72L288.42,337.23L289.64,338.79L289.58,344.87L292.60,348.97L294.17,348.26L294.73,351.84L296.79,353.88L294.42,359.85L296.71,364.74L295.95,367.92L297.68,373.85L294.18,375.96L293.47,374.14L290.54,371.90L287.69,371.63L286.89,371.94L286.64,376.79Z"><title>Bago</title></path>
<path data-code="MM-03" data-name="Magway" d="M222.26,346.80L219.96,343.18L220.35,340.86L219.34,337.94L220.85,335.49L218.59,332.60L221.25,330.83L217.40,324.57L213.54,321.57L212.72,318.81L213.41,316.61L209.47,310.37L206.16,297.69L206.68,294.32L204.28,291.53L204.00,288.39L196.30,274.84L192.92,272.74L192.93,268.72L196.66,270.39L200.29,269.02L197.18,261.57L199.61,255.90L199.59,252.89L196.82,249.93L200.04,239.70L196.05,231.21L196.47,228.08L197.63,227.08L196.61,223.83L197.52,220.83L196.61,215.06L197.53,213.01L196.68,212.32L196.16,202.90L199.01,201.77L205.06,211.44L203.62,216.29L204.00,220.64L204.73,221.94L206.93,221.80L208.70,223.63L208.81,232.02L211.37,233.23L214.87,231.49L231.42,231.13L235.03,235.08L235.22,236.77L238.17,238.51L237.79,243.34L231.85,248.33L228.08,248.42L226.61,250.66L221.72,251.98L221.57,260.35L224.36,262.46L227.44,262.77L229.97,264.46L229.37,271.78L230.83,274.38L233.70,270.68L236.29,270.38L242.62,266.75L246.49,267.16L250.34,276.51L251.05,282.81L253.56,287.74L251.46,292.93L253.06,297.66L250.22,305.10L250.66,308.51L252.58,309.96L254.31,314.72L253.38,319.71L243.89,319.99L241.01,321.06L239.36,323.12L237.05,323.56L236.17,326.58L233.22,328.96L233.83,333.14L229.91,336.50L229.52,340.60L232.22,343.01L230.83,343.46L229.43,346.71L225.37,344.78L222.26,346.80Z"><title>Magway</title></path>
<path data-code="MM-04" data-name="Mandalay" d="M262.16,171.14L263.22,174.84L264.93,175.51L267.98,174.47L268.95,175.30L268.50,177.87L266.20,180.72L264.81,180.74L264.93,185.10L263.84,186.91L265.54,190.52L269.76,191.59L275.01,190.17L277.36,190.93L277.20,192.21L278.17,192.86L281.36,193.86L278.85,198.18L267.41,199.45L265.27,200.84L269.35,209.23L269.07,213.03L272.30,214.25L274.08,220.16L282.03,222.91L286.82,233.48L286.53,234.39L284.51,233.48L281.03,234.91L276.98,239.00L269.57,240.88L269.49,242.35L267.93,243.48L270.62,253.08L266.42,253.79L265.48,256.81L265.64,258.53L266.98,259.65L273.84,262.17L274.77,261.60L277.38,263.94L276.75,266.48L274.79,266.53L273.23,267.98L273.34,269.88L276.07,272.46L276.12,274.75L274.47,275.16L273.85,278.00L276.06,284.89L273.13,287.69L273.93,289.71L273.11,291.00L270.66,291.52L273.16,296.87L275.76,297.11L279.57,302.00L278.31,304.11L276.39,305.03L279.51,306.47L280.22,307.94L277.49,311.04L277.23,310.09L274.75,309.42L264.64,309.25L262.39,311.56L257.36,309.39L254.44,310.62L251.05,309.12L250.22,305.10L253.08,297.50L251.46,292.93L253.56,287.74L251.05,282.81L251.22,279.58L246.90,267.72L242.62,266.75L236.29,270.38L233.24,270.94L230.83,274.38L229.37,271.78L229.97,264.46L227.44,262.77L224.36,262.46L221.57,260.35L221.72,251.98L226.61,250.66L228.08,248.42L231.85,248.33L237.79,243.34L237.61,240.89L239.35,235.23L244.55,233.97L248.07,237.91L251.69,237.94L253.70,235.31L255.22,230.44L258.02,229.90L260.16,228.03L258.48,218.27L259.26,214.43L257.72,212.41L258.55,207.85L255.75,201.93L257.75,199.87L258.08,187.04L255.97,180.21L259.96,172.68L262.16,171.14Z"><title>Mandalay</title></path>
  </g>
</svg>
