<?xml version="1.0" encoding="UTF-8"?>
<svg xmlns="http://www.w3.org/2000/svg" viewBox="0 0 560 640" class="pref-muni-svg" role="img" aria-label="行政区分">
  <g class="pref-muni-svg__paths" fill="#eaf2fb" stroke="#5b7fa8" stroke-width="0.6" stroke-linejoin="round">
<path data-code="NA-KA" data-name="Karas" d="M230.05,550.44L228.76,550.21L227.91,549.19L227.46,544.42L225.67,543.78L224.13,541.44L222.47,541.44L218.09,543.25L216.97,542.63L215.90,543.69L215.30,547.59L213.68,547.42L214.43,549.10L212.74,549.39L213.15,551.62L210.91,551.66L210.89,553.33L212.32,556.05L211.30,556.79L210.93,559.39L209.77,561.06L208.30,561.65L207.84,560.20L207.07,560.14L204.02,563.04L199.59,565.08L197.94,566.72L196.88,566.56L186.77,557.35L181.78,551.30L176.46,547.56L170.45,541.75L167.13,537.59L167.41,535.78L166.89,534.41L161.29,528.31L160.77,524.10L151.72,510.52L150.35,505.43L150.35,500.19L149.31,497.74L149.04,494.08L146.24,491.97L144.34,486.82L144.52,485.64L143.19,483.16L143.54,480.66L145.26,480.19L145.66,482.27L146.61,479.13L145.03,472.79L142.77,469.83L138.50,467.45L138.36,460.74L137.41,459.25L138.50,458.66L139.01,455.39L137.95,452.07L136.15,449.14L135.92,447.70L136.59,446.09L133.44,442.00L133.54,437.58L135.02,432.70L133.96,430.96L131.92,421.55L133.82,413.79L133.96,412.01L133.00,409.21L170.33,409.47L174.62,434.94L178.64,434.96L187.69,446.73L190.06,446.10L193.73,446.45L191.62,434.77L195.35,433.87L196.45,434.75L196.15,435.97L196.75,438.01L199.08,435.91L201.09,431.91L203.38,434.83L211.68,436.20L213.67,437.43L217.20,438.25L218.72,439.34L219.26,441.16L226.37,439.40L233.64,442.29L233.78,434.69L236.84,433.16L245.77,434.37L251.04,433.91L270.45,429.36L279.44,428.61L286.12,432.29L303.66,433.80L309.47,430.44L314.31,436.72L316.37,435.34L319.34,435.17L330.85,438.64L336.17,436.22L339.99,436.21L339.97,558.51L336.56,558.74L333.70,560.88L323.39,563.25L321.10,566.17L319.94,569.67L318.82,570.85L314.16,572.25L312.19,571.48L311.22,572.48L310.38,574.65L312.12,578.61L310.33,578.99L309.32,580.17L305.37,581.85L303.82,581.93L302.95,580.90L300.82,580.49L298.71,577.89L290.32,576.72L282.62,577.80L280.30,578.83L279.22,578.25L276.34,579.30L272.77,578.47L267.06,579.43L262.14,577.53L256.88,574.17L250.18,572.74L247.26,573.74L245.45,573.42L244.59,573.05L244.22,570.17L243.61,569.76L237.91,571.04L236.41,570.81L237.09,565.97L236.65,565.01L235.18,564.49L233.22,560.61L233.90,559.40L235.92,558.35L236.27,555.19L234.09,550.01L230.05,550.44Z"><title>Karas</title></path>
<path data-code="NA-KU" data-name="Kunene" d="M66.19,58.07L70.26,59.56L74.12,58.64L78.79,60.65L80.84,64.27L80.46,65.52L95.04,74.97L97.97,78.49L106.71,78.36L108.49,77.13L108.36,79.53L105.17,84.92L105.29,86.07L106.97,87.12L107.18,88.11L106.89,90.08L105.75,91.65L110.19,101.97L111.35,107.28L111.88,132.72L115.31,142.77L114.30,151.74L115.99,156.82L118.85,160.45L119.01,162.39L117.72,165.54L122.75,165.67L123.56,161.70L121.31,161.81L121.22,158.21L134.18,157.74L143.44,156.45L148.32,157.17L152.59,155.80L152.48,158.19L161.42,157.89L168.15,159.44L173.02,159.77L177.62,161.88L187.57,163.63L192.97,165.31L202.84,166.47L208.27,168.88L208.57,189.11L205.22,190.96L201.45,191.09L201.32,194.12L202.03,196.39L200.20,196.49L192.61,200.64L192.44,207.59L190.22,208.71L187.73,207.88L184.86,209.05L181.60,209.20L177.44,211.31L174.31,214.88L170.66,216.53L162.19,215.24L159.67,214.22L158.18,212.65L155.30,212.33L151.45,217.46L144.69,224.41L138.31,228.85L136.35,231.05L134.70,231.32L131.38,233.80L126.93,234.89L123.42,234.77L121.41,234.00L118.10,234.37L114.62,233.23L111.05,234.20L108.04,232.93L106.65,233.02L95.84,236.30L92.88,238.63L90.06,239.38L89.06,240.55L84.75,242.89L77.96,231.13L75.49,228.13L73.55,219.19L70.07,212.24L68.07,203.00L66.65,199.33L65.73,197.81L62.36,196.06L61.01,193.67L59.73,188.26L47.65,165.37L46.65,161.15L44.08,156.94L42.14,151.91L38.24,147.35L37.42,143.29L30.87,134.26L26.36,131.22L23.44,127.65L20.62,125.87L19.32,119.61L16.83,113.95L13.28,110.07L12.66,108.10L8.00,84.03L9.51,71.84L9.95,71.22L12.21,71.74L18.66,67.26L22.88,66.27L24.96,67.01L25.83,66.58L29.09,70.01L34.59,69.82L36.13,69.08L37.84,69.93L42.13,70.43L44.90,68.28L52.22,64.77L54.55,62.81L54.98,61.50L60.09,59.24L66.19,58.07Z"><title>Kunene</title></path>
<path data-code="NA-OS" data-name="Omusati" d="M111.23,77.13L162.32,77.15L162.39,80.06L165.52,86.27L165.84,89.83L151.35,105.58L159.93,110.42L162.48,131.01L160.43,135.43L160.65,137.85L162.43,142.54L162.14,145.10L160.49,146.71L162.13,149.26L164.06,150.25L152.60,154.59L152.59,155.80L148.32,157.17L143.44,156.45L134.18,157.74L121.22,158.21L121.31,161.81L123.56,161.70L122.75,165.67L117.72,165.54L119.01,162.39L118.85,160.45L115.99,156.82L114.30,151.74L115.31,142.77L111.88,132.72L111.35,107.28L110.19,101.97L106.29,93.71L105.75,91.65L106.89,90.08L107.18,88.11L106.97,87.12L105.29,86.07L105.17,84.92L108.36,79.53L108.49,77.13L111.23,77.13Z"><title>Omusati</title></path>
<path data-code="NA-OW" data-name="Ohangwena" d="M162.32,77.15L260.39,77.18L260.38,93.61L210.13,93.75L195.68,100.10L192.40,98.75L179.98,90.54L166.60,92.44L165.52,86.27L162.39,80.06L162.32,77.15Z"><title>Ohangwena</title></path>
<path data-code="NA-OK" data-name="Kavango" d="M260.39,77.18L278.59,77.21L280.05,80.38L281.12,80.76L282.63,84.04L285.26,86.15L286.19,88.04L290.98,92.82L296.12,95.07L301.37,96.07L307.00,95.14L310.45,95.28L317.46,97.69L327.56,96.96L329.11,98.28L331.51,99.04L332.43,97.82L338.78,97.82L342.09,99.29L346.92,99.04L348.47,98.25L350.49,98.71L351.88,97.50L354.21,97.50L356.25,99.04L358.29,99.22L363.43,103.18L367.47,102.96L369.73,104.11L370.34,103.54L373.10,105.20L376.64,104.38L377.20,103.22L380.34,102.33L380.62,117.73L379.88,117.76L379.90,154.96L309.97,155.69L310.02,139.38L260.74,136.50L260.39,77.18Z"><title>Kavango</title></path>
<path data-code="NA-CA" data-name="Caprivi" d="M396.42,104.46L510.98,81.06L514.30,81.52L517.02,80.76L524.34,83.47L527.08,81.68L537.48,83.37L539.06,84.66L539.88,84.27L541.50,85.85L543.05,85.56L542.92,86.75L545.12,88.24L545.53,89.73L546.49,90.65L547.13,90.13L548.04,92.02L551.30,93.81L552.00,94.84L547.75,94.31L546.42,95.69L543.85,96.31L543.47,95.41L542.36,96.14L540.89,95.99L539.69,94.60L538.80,95.56L534.37,96.81L530.75,99.11L524.07,106.13L521.70,106.46L518.33,101.93L515.48,101.91L513.30,104.97L510.16,104.38L505.48,108.57L503.68,109.02L500.24,111.85L499.42,111.58L498.02,112.60L497.89,114.11L489.98,122.11L485.72,124.67L484.49,124.24L483.18,119.94L483.75,119.03L482.06,116.64L482.40,115.94L481.37,114.19L479.87,113.66L478.47,112.05L477.12,112.18L477.12,110.95L474.63,107.05L474.63,105.71L472.98,103.78L460.47,104.70L399.99,116.89L380.62,117.73L380.34,102.33L384.62,101.12L389.58,100.80L395.54,103.48L396.42,104.46Z"><title>Caprivi</title></path>
<path data-code="NA-HA" data-name="Hardap" d="M339.96,398.41L339.99,436.21L336.17,436.22L330.85,438.64L319.34,435.17L316.37,435.34L314.31,436.72L309.47,430.44L303.66,433.80L286.12,432.29L279.44,428.61L270.45,429.36L251.04,433.91L245.77,434.37L236.84,433.16L233.78,434.69L233.64,442.29L226.37,439.40L219.26,441.16L218.72,439.34L217.20,438.25L213.67,437.43L211.68,436.20L203.38,434.83L201.09,431.91L199.08,435.91L196.75,438.01L196.15,435.97L196.45,434.75L195.35,433.87L191.62,434.77L193.73,446.45L190.06,446.10L187.69,446.73L178.64,434.96L174.62,434.94L170.33,409.47L133.00,409.21L131.67,405.80L131.05,400.63L128.75,396.27L123.86,390.12L124.28,385.02L118.71,372.52L117.84,365.08L118.68,362.69L119.63,362.35L120.33,360.88L119.23,355.04L119.78,348.76L119.13,345.99L141.73,348.20L143.69,350.42L153.43,350.98L158.02,352.22L169.68,357.45L169.37,360.88L170.02,363.16L172.46,364.40L176.94,364.23L178.36,362.55L187.36,360.98L190.55,359.39L189.78,362.80L188.17,363.82L190.63,366.17L192.89,366.67L191.75,362.92L192.17,361.80L194.08,360.01L199.65,360.56L200.30,359.05L199.19,357.45L190.95,355.99L191.61,352.78L194.02,348.34L194.94,349.11L195.27,351.85L198.25,351.97L203.20,347.52L202.91,344.99L199.57,342.91L204.98,332.23L207.98,333.52L212.94,333.82L218.20,332.15L220.61,330.38L224.96,329.85L227.41,330.80L228.66,335.39L239.42,334.40L237.69,336.23L237.73,339.58L235.91,340.48L236.40,343.53L237.89,344.35L238.28,348.58L245.26,348.50L247.09,347.18L254.73,346.99L257.16,347.73L259.26,350.11L261.60,349.38L263.20,349.71L269.25,347.48L269.90,345.42L277.02,342.14L281.82,351.78L283.76,350.64L288.08,354.03L291.88,354.62L299.74,351.54L302.20,351.78L302.09,353.09L306.63,353.36L308.83,350.77L309.91,350.48L311.41,351.45L311.59,359.20L339.93,359.67L339.96,398.41Z"><title>Hardap</title></path>
<path data-code="NA-OD" data-name="Otjozondjupa" d="M379.90,154.96L380.05,206.39L369.64,207.98L361.78,206.65L357.92,206.88L353.56,205.54L317.50,201.70L315.60,202.24L313.08,204.15L293.77,211.62L290.77,214.36L283.62,226.52L282.13,233.17L280.79,236.30L279.81,235.18L275.47,236.38L274.88,239.75L277.04,239.52L277.15,240.03L276.73,241.77L274.45,243.37L275.30,246.08L270.45,244.89L268.89,245.76L268.77,248.89L271.04,248.87L271.52,251.01L270.76,252.37L270.88,255.47L269.80,256.34L270.22,261.29L268.99,263.27L265.10,265.47L258.32,266.90L252.63,270.66L249.26,271.51L247.64,270.36L244.89,271.11L240.60,276.25L238.26,276.96L239.23,280.12L238.41,282.20L236.11,281.39L236.09,282.83L233.08,284.24L232.18,282.21L230.58,284.08L230.26,286.35L225.89,288.69L224.14,286.97L220.31,289.93L218.97,288.50L216.41,290.52L213.65,291.29L210.99,290.12L210.14,288.47L209.50,288.40L207.40,291.49L207.60,292.10L209.66,291.98L209.99,292.70L209.43,293.44L205.85,293.70L204.24,292.73L202.41,294.62L201.18,293.86L197.98,294.64L196.45,291.97L196.92,290.05L195.74,287.02L198.83,284.60L197.21,281.88L198.86,281.17L199.26,275.48L197.65,273.19L195.83,266.46L197.76,257.18L201.44,252.85L200.38,246.17L200.70,242.21L196.13,241.50L191.08,236.43L190.28,234.07L187.77,236.45L183.74,234.54L181.33,232.17L173.29,227.74L169.72,224.28L168.78,221.62L166.23,221.97L163.90,220.70L163.99,215.62L170.66,216.53L174.31,214.88L177.44,211.31L181.60,209.20L184.86,209.05L187.73,207.88L190.22,208.71L192.44,207.59L192.61,200.64L200.20,196.49L202.03,196.39L201.32,194.12L201.45,191.09L205.22,190.96L208.57,189.11L208.49,168.41L219.78,162.32L225.29,154.69L228.18,153.94L230.40,155.52L232.42,155.74L233.48,157.03L233.75,159.44L234.69,159.32L235.05,157.94L237.18,157.56L237.50,159.63L236.21,160.34L236.42,163.08L239.64,163.86L242.48,166.84L245.28,167.42L247.57,169.25L250.28,169.46L253.59,168.48L254.85,170.22L257.22,168.90L257.93,168.15L255.92,165.20L255.95,163.11L258.09,161.20L258.47,159.72L260.55,158.72L261.51,153.07L261.20,149.06L263.92,148.15L267.26,145.32L268.18,136.98L310.02,139.38L309.97,155.69L379.90,154.96Z"><title>Otjozondjupa</title></path>
<path data-code="NA-OH" data-name="Omaheke" d="M380.05,206.39L380.27,276.76L379.76,278.36L339.84,278.36L339.93,359.67L311.59,359.20L311.41,351.45L309.91,350.48L308.83,350.77L306.63,353.36L302.09,353.09L302.20,351.78L299.74,351.54L291.37,354.65L287.28,353.78L283.76,350.64L281.82,351.78L278.13,344.51L280.67,337.00L274.38,331.44L275.21,329.59L278.44,328.85L277.57,326.07L275.28,325.49L273.44,323.24L273.69,322.13L276.04,321.07L276.23,318.91L272.37,319.76L272.17,313.84L270.83,309.55L269.19,299.32L268.89,298.88L267.23,300.18L265.83,299.04L267.50,297.46L264.55,293.85L261.65,293.08L258.90,287.66L259.51,283.41L263.02,282.28L262.91,279.81L265.50,276.24L265.27,274.90L263.09,272.32L265.43,268.06L265.10,265.47L268.99,263.27L270.08,261.87L269.84,256.06L270.88,255.47L270.76,252.37L271.52,251.01L271.04,248.87L268.77,248.89L268.89,245.76L270.45,244.89L275.30,246.08L274.45,243.37L276.73,241.77L277.15,240.03L277.04,239.52L274.88,239.75L275.47,236.38L279.81,235.18L280.79,236.30L282.13,233.17L283.62,226.52L291.96,213.05L293.77,211.62L313.08,204.15L316.40,201.87L319.92,201.67L369.64,207.98L380.05,206.39Z"><title>Omaheke</title></path>
<path data-code="NA-ER" data-name="Erongo" d="M119.13,345.99L117.13,340.07L118.96,337.00L119.39,338.08L119.45,335.44L118.71,330.37L116.58,325.05L116.16,320.68L117.16,316.71L117.84,318.12L117.53,319.90L117.83,320.35L118.68,319.94L118.13,321.75L120.95,317.60L120.88,307.97L120.11,302.24L115.21,290.39L112.35,287.07L111.39,284.19L105.20,275.99L97.77,268.90L98.18,265.85L94.78,260.54L92.92,254.62L84.75,242.89L89.06,240.55L90.06,239.38L92.88,238.63L95.84,236.30L106.65,233.02L108.04,232.93L111.05,234.20L114.62,233.23L118.10,234.37L121.41,234.00L123.42,234.77L126.93,234.89L131.38,233.80L134.70,231.32L136.35,231.05L138.31,228.85L144.69,224.41L151.45,217.46L155.30,212.33L158.18,212.65L159.67,214.22L163.99,215.62L164.19,221.33L166.55,222.02L168.78,221.62L169.72,224.28L173.29,227.74L181.33,232.17L183.74,234.54L187.77,236.45L190.28,234.07L191.08,236.43L196.13,241.50L200.70,242.21L200.38,246.17L201.44,252.85L197.76,257.18L195.83,266.46L197.65,273.19L199.26,275.48L198.86,281.17L197.21,281.88L198.83,284.60L195.74,287.02L196.92,290.05L196.45,291.97L197.98,294.64L194.43,296.77L193.57,300.62L191.03,300.70L186.42,304.76L182.86,304.03L178.45,308.64L182.43,309.04L182.52,314.27L182.28,315.19L178.25,315.57L175.82,317.78L175.36,321.96L175.75,324.83L174.83,328.31L176.97,331.23L173.05,332.73L174.01,338.53L171.72,339.12L170.06,342.80L174.06,345.64L173.60,352.32L174.11,354.67L173.85,356.35L173.05,357.10L169.68,357.45L158.02,352.22L153.43,350.98L143.69,350.42L141.73,348.20L119.13,345.99Z"><title>Erongo</title></path>
<path data-code="NA-KH" data-name="Khomas" d="M193.13,300.68L193.72,300.31L194.43,296.77L196.33,295.35L201.18,293.86L202.41,294.62L204.24,292.73L205.85,293.70L209.43,293.44L209.99,292.70L209.66,291.98L207.60,292.10L207.40,291.49L209.12,288.55L210.14,288.47L210.99,290.12L213.65,291.29L216.41,290.52L218.97,288.50L220.31,289.93L224.14,286.97L225.89,288.69L230.26,286.35L230.58,284.08L232.18,282.21L233.08,284.24L236.09,282.83L236.11,281.39L238.41,282.20L239.23,280.12L238.26,276.96L240.60,276.25L244.89,271.11L247.64,270.36L249.26,271.51L252.63,270.66L258.32,266.90L265.10,265.47L265.43,268.06L263.09,272.32L265.27,274.90L265.50,276.24L262.91,279.81L263.02,282.28L259.51,283.41L259.00,288.34L261.65,293.08L264.55,293.85L267.50,297.46L265.83,299.04L267.23,300.18L269.07,299.03L270.83,309.55L272.17,313.84L272.37,319.76L276.31,319.19L276.04,321.07L273.69,322.13L273.44,323.24L275.28,325.49L277.57,326.07L278.44,328.85L275.21,329.59L274.38,331.44L280.28,336.56L280.57,337.92L278.18,343.93L277.02,342.14L276.11,342.20L269.90,345.42L269.25,347.48L263.96,349.52L259.26,350.11L257.16,347.73L254.73,346.99L247.09,347.18L245.26,348.50L238.28,348.58L237.89,344.35L236.40,343.53L235.91,340.48L237.73,339.58L237.69,336.23L239.42,334.40L228.66,335.39L227.41,330.80L224.96,329.85L220.61,330.38L218.20,332.15L212.94,333.82L207.98,333.52L204.98,332.23L199.57,342.91L202.91,344.99L203.20,347.52L198.25,351.97L195.27,351.85L194.94,349.11L194.02,348.34L191.61,352.78L190.96,355.29L191.24,356.16L199.57,357.60L200.30,359.05L199.85,360.44L193.71,360.26L191.75,362.92L192.89,366.67L190.63,366.17L188.17,363.82L189.78,362.80L190.55,359.39L187.36,360.98L178.36,362.55L176.94,364.23L172.46,364.40L170.02,363.16L169.37,360.88L169.68,357.45L173.05,357.10L173.85,356.35L174.06,345.64L170.06,342.80L171.72,339.12L174.01,338.53L173.05,332.73L176.97,331.23L174.83,328.31L175.75,324.83L175.36,321.96L175.82,317.78L178.25,315.57L182.45,314.78L182.43,309.04L178.45,308.64L182.86,304.03L186.42,304.76L191.03,300.70L193.13,300.68Z"><title>Khomas</title></path>
<path data-code="NA-ON" data-name="Oshana" d="M165.84,89.83L166.60,92.44L180.00,90.54L180.00,104.82L181.11,105.55L181.55,109.97L180.79,113.67L177.74,117.51L177.78,119.45L177.96,124.56L179.49,128.96L181.27,131.14L181.46,132.29L178.95,133.30L175.92,136.75L174.41,138.85L173.65,141.62L174.04,146.06L176.49,151.51L178.51,153.26L178.20,154.60L176.75,155.53L177.62,161.88L174.44,160.08L163.05,158.12L152.48,158.19L152.60,154.59L164.06,150.25L162.13,149.26L160.49,146.71L162.14,145.10L162.43,142.54L160.65,137.85L160.43,135.43L162.48,131.01L159.93,110.42L151.35,105.58L151.42,104.90L165.84,89.83Z"><title>Oshana</title></path>
<path data-code="NA-OT" data-name="Oshikoto" d="M208.26,168.81L202.84,166.47L192.97,165.31L187.57,163.63L177.62,161.88L176.75,155.53L178.20,154.60L178.51,153.26L176.49,151.51L174.04,146.06L173.65,141.62L174.41,138.85L175.92,136.75L178.95,133.30L181.46,132.29L181.27,131.14L179.49,128.96L177.96,124.56L177.78,119.45L177.74,117.51L180.79,113.67L181.55,109.97L181.11,105.55L180.00,104.82L180.00,90.54L192.40,98.75L195.68,100.10L210.13,93.75L260.38,93.61L260.74,136.50L268.18,136.98L267.26,145.32L263.92,148.15L261.20,149.06L261.51,153.07L260.55,158.72L258.47,159.72L258.09,161.20L255.95,163.11L255.92,165.20L257.93,168.15L254.51,170.23L253.59,168.48L250.28,169.46L247.77,169.33L245.28,167.42L242.48,166.84L239.64,163.86L236.42,163.08L236.21,160.34L237.50,159.63L237.18,157.56L235.05,157.94L234.69,159.32L233.75,159.44L232.95,156.12L230.40,155.52L228.18,153.94L225.29,154.69L219.78,162.32L208.26,168.81Z"><title>Oshikoto</title></path>
  </g>
</svg>
