<?xml version="1.0" encoding="UTF-8"?>
<svg xmlns="http://www.w3.org/2000/svg" viewBox="0 0 560 640" class="pref-muni-svg" role="img" aria-label="行政区分">
  <g class="pref-muni-svg__paths" fill="#eaf2fb" stroke="#5b7fa8" stroke-width="0.6" stroke-linejoin="round">
<path data-code="NL-GR" data-name="Groningen" d="M542.20,77.28L542.31,90.62L539.11,101.13L540.90,108.31L542.17,124.23L540.70,139.28L537.74,146.73L525.50,167.03L522.22,162.64L518.09,160.57L520.87,151.28L506.86,134.33L479.48,106.32L474.56,105.30L465.39,108.28L463.42,104.07L451.63,89.24L443.14,86.29L435.69,92.21L431.82,96.58L427.56,107.66L424.28,112.17L404.21,104.12L402.94,102.52L402.31,97.75L403.26,92.97L409.72,83.61L408.98,78.27L413.38,68.68L418.42,62.85L416.92,62.03L416.58,55.12L411.18,55.08L403.81,50.75L402.48,45.91L404.62,40.38L416.62,40.01L421.74,43.05L426.38,40.01L446.69,34.22L478.86,29.34L492.35,31.58L497.50,35.20L502.09,53.54L508.64,59.26L518.39,63.69L520.81,62.91L523.61,64.62L527.31,62.91L525.68,66.02L526.67,72.44L542.20,77.28ZM439.43,8.00L448.83,10.89L446.97,12.54L442.09,10.95L439.43,8.00Z"><title>Groningen</title></path>
<path data-code="NL-DR" data-name="Drenthe" d="M525.50,167.03L522.93,178.31L520.66,210.15L518.18,214.90L511.25,212.53L504.53,213.53L497.30,211.35L484.35,211.56L477.34,214.73L475.80,213.80L475.53,210.32L474.24,209.08L462.61,204.54L458.63,205.25L450.29,210.48L450.40,218.13L443.93,215.27L440.41,216.71L437.77,214.46L431.99,216.57L423.58,205.61L416.49,205.59L408.98,201.51L406.14,203.15L403.68,202.44L397.02,187.66L407.48,176.95L396.91,164.34L415.46,148.28L422.15,149.05L426.71,152.12L433.23,147.80L437.83,140.79L438.42,138.57L436.77,135.18L429.39,125.42L427.62,117.60L421.22,114.32L421.47,111.29L425.36,111.55L431.82,96.58L443.14,86.29L451.63,89.24L463.42,104.07L465.39,108.28L474.56,105.30L480.27,106.87L506.86,134.33L520.87,151.28L518.09,160.57L522.22,162.64L525.50,167.03Z"><title>Drenthe</title></path>
<path data-code="NL-OV" data-name="Overijssel" d="M477.34,214.73L474.98,216.43L476.12,218.76L475.27,224.45L480.70,229.64L470.88,233.65L472.55,237.14L474.06,248.34L480.35,253.21L502.05,258.05L509.04,256.82L512.01,253.73L520.32,267.20L522.24,272.91L521.08,281.02L517.36,290.73L517.27,294.80L519.25,302.80L513.18,306.50L505.80,315.86L499.95,318.43L492.56,328.98L484.50,329.89L469.54,325.77L470.89,322.43L470.78,319.04L468.40,316.62L461.92,317.41L459.97,314.20L446.80,314.69L435.37,299.70L431.31,299.21L423.25,303.06L403.75,301.23L401.06,303.98L399.18,302.88L398.91,298.76L396.17,297.11L396.23,293.85L393.78,287.45L390.99,286.15L388.53,282.54L391.16,274.16L390.38,271.68L395.62,269.51L397.64,264.16L397.64,260.99L392.26,250.05L386.01,241.73L383.43,240.47L375.11,246.26L369.88,247.22L364.44,238.39L361.10,238.07L358.31,225.64L356.40,223.96L356.40,221.33L358.00,219.50L364.93,216.35L371.01,216.97L381.95,212.32L378.94,208.71L369.23,204.75L371.79,200.95L368.81,189.58L366.26,185.90L349.94,175.39L355.03,172.88L362.79,174.90L366.83,172.51L369.42,168.80L373.69,166.97L378.31,171.14L383.67,171.53L386.33,167.48L396.91,164.34L407.48,176.95L397.02,187.66L401.74,199.91L404.26,202.90L408.98,201.51L416.49,205.59L423.58,205.61L431.99,216.57L437.77,214.46L440.41,216.71L443.93,215.27L450.40,218.13L450.29,210.48L458.63,205.25L462.61,204.54L474.24,209.08L475.53,210.32L475.80,213.80L477.34,214.73Z"><title>Overijssel</title></path>
<path data-code="NL-GE" data-name="Gelderland" d="M484.50,329.89L481.53,331.21L476.29,339.12L471.99,340.63L471.05,342.95L471.33,346.34L485.40,353.79L489.63,358.63L489.84,362.84L486.99,364.94L480.70,374.46L477.01,376.47L464.93,376.86L451.36,381.55L442.39,387.79L430.87,385.18L431.99,390.19L431.42,392.41L426.31,393.85L425.90,390.39L418.45,388.28L415.35,383.83L409.97,384.64L396.57,377.04L391.93,379.58L400.55,389.19L390.71,386.61L369.90,395.06L369.43,397.04L372.53,399.45L374.35,403.75L374.11,408.25L371.26,410.70L364.23,403.59L360.59,404.59L360.53,407.57L346.50,406.86L333.05,398.50L330.58,393.25L324.48,391.87L315.76,393.23L311.16,390.75L303.06,394.90L297.55,394.49L294.83,395.96L292.97,404.01L286.21,410.23L261.24,413.03L260.03,412.61L261.55,408.96L261.58,405.38L256.54,401.92L251.71,402.30L246.63,398.36L244.49,395.99L244.32,388.56L243.45,387.22L247.39,386.98L259.28,381.60L258.92,378.20L267.74,361.45L273.04,361.09L275.50,359.17L277.53,358.74L285.20,363.03L292.03,359.18L300.18,359.86L305.86,356.83L311.74,358.08L326.83,365.58L326.93,359.01L320.90,349.84L318.32,330.77L316.08,331.30L316.67,332.94L315.83,335.78L312.31,338.11L306.77,335.78L310.72,328.74L312.20,328.85L312.79,323.79L307.57,318.31L300.69,315.08L302.68,310.52L296.98,305.20L298.62,294.56L300.95,295.40L315.51,292.52L321.84,277.42L324.78,274.54L332.13,269.27L348.02,262.08L354.05,256.09L359.49,247.22L361.10,238.07L364.44,238.39L369.02,246.46L370.98,247.51L383.43,240.47L386.01,241.73L392.26,250.05L397.64,260.99L397.64,264.16L395.62,269.51L390.38,271.68L391.16,274.16L388.53,282.54L390.99,286.15L393.78,287.45L396.23,293.85L396.17,297.11L398.91,298.76L398.61,301.81L400.30,303.92L403.75,301.23L423.25,303.06L431.31,299.21L435.37,299.70L446.80,314.69L459.97,314.20L461.92,317.41L468.40,316.62L470.78,319.04L470.89,322.43L469.54,325.77L484.50,329.89Z"><title>Gelderland</title></path>
<path data-code="NL-LI" data-name="Limburg" d="M371.89,410.48L370.97,413.69L376.28,414.15L382.25,418.66L380.42,424.96L383.55,429.00L392.78,433.12L390.45,441.27L391.05,444.00L405.62,463.16L407.26,474.48L405.54,487.70L407.60,490.21L405.65,499.81L399.41,505.67L388.14,524.91L386.97,529.33L386.58,534.30L387.55,538.41L390.75,540.23L397.54,535.45L400.67,536.55L396.47,539.81L399.34,542.55L376.92,559.80L370.79,569.52L368.28,569.80L362.95,564.83L359.13,566.90L362.00,578.50L362.14,584.10L369.39,581.37L379.75,582.24L378.68,587.12L379.23,592.10L387.94,596.96L386.70,600.53L387.86,605.10L386.99,609.16L385.46,611.04L380.51,611.87L379.32,614.10L379.02,620.71L377.06,622.60L374.99,622.06L375.57,624.91L378.85,629.10L378.55,632.00L351.04,631.51L345.48,626.77L342.13,631.06L339.22,631.05L336.74,629.58L338.39,621.86L330.24,617.52L328.03,614.13L327.73,609.16L337.57,597.82L341.38,596.04L347.06,585.42L341.38,585.42L348.91,571.17L347.06,568.58L348.07,563.48L350.78,564.18L351.81,562.73L353.57,558.10L352.64,554.92L358.24,553.42L355.14,550.00L357.49,545.52L355.94,541.62L349.43,542.52L342.53,535.55L332.74,536.59L328.10,532.63L318.06,528.21L326.79,524.83L328.78,515.78L335.02,506.07L362.20,497.68L370.31,490.84L362.33,477.06L357.12,450.34L368.83,452.65L379.20,449.68L383.86,452.37L385.97,450.46L382.80,438.41L376.83,430.59L377.74,428.44L375.61,426.04L373.79,418.02L364.00,414.33L362.84,411.61L363.25,408.93L360.53,407.57L360.59,404.59L364.23,403.59L367.77,408.31L371.89,410.48Z"><title>Limburg</title></path>
<path data-code="NL-ZE" data-name="Zeeland" d="M31.94,524.02L23.45,521.54L20.14,517.82L18.21,512.24L18.87,501.54L17.69,492.98L43.87,483.75L52.51,489.46L65.81,493.34L73.09,498.57L83.79,500.09L100.41,493.75L104.27,485.15L110.40,486.54L116.00,494.02L123.06,496.51L127.78,496.91L130.99,492.49L136.65,494.59L134.80,502.90L129.43,510.40L122.66,515.84L96.48,530.55L80.34,530.75L76.61,527.52L75.91,519.82L53.17,511.83L40.19,513.92L38.69,515.50L38.39,522.98L31.94,524.02ZM144.78,494.38L141.50,493.59L139.84,484.25L138.45,483.25L133.85,486.28L121.59,485.92L116.00,483.25L108.50,476.60L100.57,475.07L98.68,476.27L93.08,486.38L82.86,489.46L77.66,484.77L69.44,480.62L64.11,475.40L53.24,477.46L43.06,474.31L37.52,465.03L33.04,461.02L31.00,455.02L46.47,444.20L86.12,440.61L90.36,443.88L93.58,449.85L88.92,452.89L88.92,454.26L101.97,455.65L108.60,458.39L114.23,463.38L120.73,477.31L131.10,477.27L133.78,478.69L142.42,477.59L142.81,490.11L144.78,494.38ZM137.87,460.89L127.35,457.44L118.89,457.44L104.81,445.17L115.67,440.64L131.45,442.36L138.77,450.13L139.70,455.60L137.87,460.89ZM131.82,439.27L124.98,438.47L122.53,436.19L121.56,432.56L124.26,430.04L133.41,434.58L131.82,439.27ZM111.43,423.92L119.71,427.39L119.99,430.98L113.92,435.75L101.02,437.71L93.00,433.67L90.83,427.81L80.41,420.88L78.59,420.74L74.43,425.57L68.31,425.93L65.52,425.09L63.70,422.40L64.07,415.21L69.04,411.94L81.09,410.05L101.22,412.30L111.43,423.92Z"><title>Zeeland</title></path>
<path data-code="NL-NB" data-name="Noord-Brabant" d="M218.65,484.43L217.67,480.56L218.82,470.65L212.65,466.27L206.18,468.44L195.63,481.64L192.39,483.42L180.18,483.01L177.57,481.10L179.16,472.45L176.36,470.27L165.01,473.69L157.88,477.94L159.53,479.78L158.26,485.35L163.21,493.26L162.53,497.09L159.93,498.50L153.58,498.08L144.78,494.38L142.81,490.11L142.19,483.28L143.08,480.95L142.42,477.59L145.07,476.87L146.91,471.79L145.80,466.99L142.96,463.40L137.87,460.89L139.72,452.94L134.74,445.33L134.08,440.98L131.82,439.27L133.41,434.58L151.95,430.35L157.28,426.66L161.42,418.94L180.76,421.67L194.28,416.53L198.58,416.47L207.37,404.23L214.25,397.95L225.15,396.74L230.43,391.89L244.11,392.94L244.49,395.99L251.71,402.30L256.54,401.92L261.58,405.38L261.55,408.96L260.03,412.61L261.24,413.03L286.21,410.23L292.97,404.01L294.83,395.96L297.55,394.49L303.06,394.90L311.16,390.75L315.76,393.23L324.48,391.87L330.58,393.25L333.05,398.50L346.50,406.86L363.25,408.93L362.84,411.61L364.00,414.33L373.79,418.02L375.61,426.04L377.74,428.44L376.83,430.59L382.80,438.41L386.00,448.67L385.97,450.46L383.86,452.37L379.20,449.68L368.83,452.65L357.12,450.34L362.33,477.06L370.31,490.84L362.20,497.68L335.02,506.07L328.78,515.78L326.79,524.83L318.06,528.21L315.85,518.14L310.12,512.70L307.18,512.35L295.91,518.89L272.23,518.88L272.16,510.96L269.76,507.85L259.61,506.73L256.83,498.44L252.14,493.13L251.26,490.97L251.74,486.16L253.74,478.90L251.07,473.69L246.60,470.40L244.50,470.95L240.14,480.68L233.56,488.45L230.61,489.27L222.83,486.11L210.39,484.50L211.17,481.83L212.70,481.60L218.65,484.43Z"><title>Noord-Brabant</title></path>
<path data-code="NL-ZH" data-name="Zuid-Holland" d="M121.56,432.56L121.80,427.27L123.57,425.30L130.57,423.92L125.68,419.90L116.19,416.95L114.23,414.04L113.36,406.66L111.06,402.04L103.90,396.32L88.92,401.15L87.65,394.97L101.34,388.01L112.93,391.05L117.02,388.85L110.81,380.31L110.80,377.18L112.36,374.38L107.80,358.50L108.57,356.81L109.50,355.33L115.85,356.76L121.12,355.88L125.78,352.83L145.27,328.97L161.94,304.40L175.75,279.29L174.51,281.59L181.27,284.60L189.60,284.39L183.87,293.94L181.20,305.08L189.03,306.68L203.32,301.92L205.42,307.06L206.86,307.77L211.17,304.90L214.46,309.82L224.11,316.73L222.88,317.74L224.19,324.31L219.05,322.84L214.31,327.46L218.26,329.88L220.00,338.16L226.16,338.20L219.81,342.39L215.48,349.03L216.08,350.44L222.32,349.59L222.93,352.28L218.88,354.78L227.47,367.16L232.85,365.35L241.34,358.48L246.99,359.78L257.15,353.23L260.69,354.96L263.86,359.86L267.74,361.45L258.92,378.20L259.28,381.60L247.39,386.98L243.45,387.22L244.32,388.56L244.11,392.94L230.43,391.89L225.15,396.74L214.25,397.95L207.37,404.23L198.58,416.47L194.28,416.53L180.76,421.67L161.42,418.94L157.28,426.66L151.95,430.35L133.30,434.62L124.26,430.04L121.56,432.56Z"><title>Zuid-Holland</title></path>
<path data-code="NL-NH" data-name="Noord-Holland" d="M175.75,279.29L184.00,255.09L185.18,247.15L187.86,241.45L193.64,198.30L197.75,176.98L203.51,162.19L205.52,145.47L208.12,138.96L216.51,140.24L217.87,138.96L218.89,140.61L216.84,147.41L220.03,151.47L230.99,152.74L239.88,146.05L253.50,141.98L267.36,129.75L278.33,161.69L293.36,178.37L291.80,200.89L284.95,198.74L280.76,201.61L278.55,209.89L255.82,224.63L259.13,239.38L265.75,249.09L269.28,258.81L264.65,258.81L256.93,266.00L257.15,273.20L264.65,281.11L281.42,283.27L292.98,291.09L278.82,292.74L270.40,312.41L267.72,314.27L260.14,313.86L248.98,316.70L247.48,308.61L248.51,304.09L250.78,301.30L246.99,294.68L251.81,292.00L244.09,292.46L241.97,290.62L233.72,292.83L230.74,297.25L225.32,298.00L206.86,307.77L205.42,307.06L203.32,301.92L189.03,306.68L184.74,306.59L181.20,305.08L181.01,303.44L182.72,300.52L183.87,293.94L189.60,284.39L181.27,284.60L174.51,281.59L175.75,279.29ZM228.19,107.07L228.19,108.45L230.99,108.45L228.26,114.83L224.46,120.59L218.03,125.80L214.97,131.68L210.37,133.01L205.58,131.07L202.97,125.42L203.81,119.61L206.51,113.03L209.90,107.64L216.33,102.18L222.97,90.02L227.81,91.54L227.26,94.80L230.59,101.83L230.55,105.33L228.19,107.07Z"><title>Noord-Holland</title></path>
<path data-code="NL-FR" data-name="Friesland" d="M267.36,129.75L285.50,113.34L294.57,110.11L297.37,104.62L301.10,89.44L303.88,82.64L311.62,74.61L316.64,72.48L323.53,64.43L332.83,62.40L337.59,58.37L376.63,41.47L404.62,40.38L402.48,45.91L403.81,50.75L411.18,55.08L416.58,55.12L416.92,62.03L418.42,63.08L413.89,67.68L408.98,78.27L410.08,82.71L403.26,92.97L402.31,97.75L402.94,102.52L406.02,105.71L415.37,107.47L421.47,111.29L421.22,114.32L427.62,117.60L429.39,125.42L438.42,138.57L434.08,146.89L426.71,152.12L422.15,149.05L415.46,148.28L396.91,164.34L386.33,167.48L383.67,171.53L378.31,171.14L373.69,166.97L369.42,168.80L366.83,172.51L362.79,174.90L355.03,172.88L349.94,175.39L348.57,171.99L343.85,167.60L335.71,167.80L329.09,169.96L318.94,177.87L293.56,178.59L278.33,161.69L267.36,129.75ZM226.32,82.64L241.00,67.28L250.27,61.99L257.14,62.91L257.14,64.43L247.82,66.87L230.59,84.51L226.32,82.64ZM300.62,36.07L322.68,30.91L319.51,35.19L307.69,36.83L308.55,40.01L306.76,40.93L301.09,41.39L271.26,53.34L267.38,53.25L265.71,49.88L267.24,46.06L276.97,41.39L298.39,37.81L300.62,36.07ZM334.78,27.72L367.49,26.40L373.06,29.24L359.56,32.28L345.53,32.28L335.46,36.13L331.99,35.32L329.61,32.00L330.41,28.73L332.72,26.84L334.78,27.72ZM408.13,18.62L421.64,17.44L425.45,18.62L425.45,20.14L400.14,27.52L397.43,30.91L396.63,29.50L397.43,27.72L396.00,24.67L399.43,21.73L408.13,18.62Z"><title>Friesland</title></path>
<path data-code="NL-FL" data-name="Flevoland" d="M343.85,167.60L348.57,171.99L349.94,175.39L366.26,185.90L368.81,189.58L371.79,200.95L369.23,204.75L378.94,208.71L381.95,212.32L371.01,216.97L364.93,216.35L356.40,221.33L361.11,238.11L360.96,241.70L359.49,247.22L354.05,256.09L348.02,262.08L332.13,269.27L324.78,274.54L321.84,277.42L315.51,292.52L310.66,294.20L298.30,294.44L281.42,283.27L264.65,281.11L257.15,273.20L256.93,266.00L264.65,258.81L269.28,258.81L265.75,249.09L259.13,239.38L255.82,224.63L278.55,209.89L280.76,201.61L284.95,198.74L291.80,200.89L293.36,178.37L318.94,177.87L332.40,168.52L343.85,167.60Z"><title>Flevoland</title></path>
<path data-code="NL-UT" data-name="Utrecht" d="M298.62,294.56L296.98,305.20L302.68,310.52L300.69,315.08L307.57,318.31L312.79,323.79L312.20,328.85L310.72,328.74L306.77,335.78L312.31,338.11L315.83,335.78L316.67,332.94L316.08,331.30L318.32,330.77L320.90,349.84L326.93,359.01L326.83,365.58L311.74,358.08L305.86,356.83L300.18,359.86L292.03,359.18L285.20,363.03L277.53,358.74L273.04,361.09L266.43,361.24L263.86,359.86L260.69,354.96L257.15,353.23L246.99,359.78L241.34,358.48L232.85,365.35L227.47,367.16L218.88,354.78L222.93,352.28L222.32,349.59L216.08,350.44L215.48,349.03L219.81,342.39L226.16,338.20L220.00,338.16L218.26,329.88L214.31,327.46L219.05,322.84L224.19,324.31L222.88,317.74L224.11,316.73L214.46,309.82L211.17,304.90L217.53,303.03L225.32,298.00L230.74,297.25L233.72,292.83L240.98,290.61L244.09,292.46L251.81,292.00L246.99,294.68L250.78,301.30L248.51,304.09L247.48,308.61L248.98,316.70L260.14,313.86L267.72,314.27L270.40,312.41L276.35,296.90L279.44,292.39L292.78,291.13L298.62,294.56Z"><title>Utrecht</title></path>
  </g>
</svg>
