<?xml version="1.0" encoding="UTF-8"?>
<svg xmlns="http://www.w3.org/2000/svg" viewBox="0 0 560 640" class="pref-muni-svg" role="img" aria-label="行政区分">
  <g class="pref-muni-svg__paths" fill="#eaf2fb" stroke="#5b7fa8" stroke-width="0.6" stroke-linejoin="round">
<path data-code="NZ-CIT" data-name="Chatham Islands Territory" d="M9.09,326.89L9.13,326.92L8.97,327.08L8.99,326.92L8.95,326.88L9.05,326.84L9.09,326.89ZM8.72,326.18L8.68,326.09L8.76,325.99L8.74,325.91L8.49,325.89L8.52,325.97L8.66,326.00L8.54,326.11L8.61,326.29L8.70,326.26L8.72,326.36L8.85,326.47L8.42,326.64L8.29,326.43L8.52,326.23L8.44,326.06L8.33,325.98L8.20,326.05L8.00,326.02L8.12,325.94L8.10,325.90L8.32,325.91L8.42,325.79L8.71,325.87L9.05,325.85L9.00,325.93L8.87,325.92L8.72,326.18Z"><title>Chatham Islands Territory</title></path>
<path data-code="NZ-STL" data-name="Southland" d="M535.39,332.02L535.31,332.01L535.36,331.97L535.39,332.02ZM536.73,331.92L536.76,331.96L536.69,332.06L536.66,331.97L536.73,331.92ZM536.14,332.55L536.23,332.63L536.12,332.59L536.11,332.67L535.86,332.69L535.68,332.84L535.51,332.80L535.47,332.74L535.24,332.89L535.41,332.87L535.33,332.99L535.31,332.94L535.23,333.01L535.10,333.01L535.13,332.84L535.26,332.78L535.26,332.59L535.44,332.51L535.43,332.37L535.55,332.28L535.46,332.07L535.51,331.85L535.78,331.85L536.10,332.18L536.12,332.26L536.09,332.28L535.84,332.25L535.85,332.31L535.78,332.40L535.90,332.32L536.06,332.39L536.03,332.44L536.18,332.40L536.23,332.46L536.21,332.54L536.14,332.55ZM533.86,329.66L533.92,329.76L533.90,329.88L533.76,329.91L533.72,329.74L533.54,329.88L533.64,329.70L533.86,329.66ZM534.26,328.74L534.35,329.02L534.14,328.90L534.26,328.74ZM537.66,331.69L537.59,331.78L537.46,331.72L537.42,331.81L537.19,331.76L537.12,331.57L536.85,331.61L536.92,331.57L536.78,331.54L536.82,331.65L536.74,331.68L536.47,331.65L536.53,331.59L536.70,331.62L536.39,331.53L536.45,331.70L536.41,331.69L536.24,331.50L536.33,331.52L536.42,331.45L536.40,331.28L536.29,331.40L536.16,331.15L536.09,331.12L535.92,331.15L535.92,331.21L535.58,331.23L535.43,331.09L535.51,331.03L535.39,330.84L535.18,330.75L534.99,330.74L534.92,330.94L534.75,330.99L533.94,330.88L533.80,330.75L534.04,330.44L534.23,330.32L534.00,330.42L533.92,330.58L533.89,330.50L533.87,330.56L533.71,330.61L533.78,330.44L534.01,330.29L533.83,330.31L533.92,330.19L533.89,330.16L533.73,330.36L533.52,330.46L533.49,330.07L534.13,329.98L534.31,329.87L534.33,329.82L533.95,329.87L534.13,329.73L533.96,329.74L533.97,329.61L534.16,329.55L534.29,329.58L534.32,329.55L534.23,329.52L534.38,329.41L533.86,329.58L533.84,329.51L533.94,329.24L534.01,329.21L534.23,329.30L534.16,329.18L534.14,329.23L534.01,329.13L534.03,329.05L534.13,328.98L534.24,329.07L534.20,329.13L534.37,329.14L534.39,329.20L534.32,329.27L534.40,329.27L534.45,329.18L534.61,329.38L534.37,329.07L534.58,328.99L534.70,329.08L534.77,329.05L534.67,329.03L534.68,328.92L534.37,328.96L534.32,328.68L534.40,328.66L534.56,328.79L534.38,328.62L534.48,328.49L534.59,328.69L534.60,328.60L534.72,328.60L534.58,328.53L534.53,328.43L534.59,328.38L534.81,328.49L534.60,328.34L534.89,328.09L534.94,328.09L534.99,328.19L535.00,328.40L535.09,328.40L534.99,328.08L535.00,327.99L535.10,327.93L535.15,327.98L535.12,328.10L535.17,328.17L535.21,327.99L535.14,327.87L535.20,327.84L535.34,327.94L535.22,327.77L535.50,327.59L535.66,327.69L535.73,327.80L535.74,327.71L535.61,327.59L535.58,327.41L535.88,327.10L535.87,327.04L536.01,327.04L536.04,326.96L536.20,326.93L536.31,326.98L536.40,327.14L536.33,327.38L536.11,327.67L536.02,328.13L536.08,328.34L536.25,328.47L536.20,328.68L536.30,329.02L536.54,329.05L536.81,328.93L537.02,329.25L537.13,329.28L537.44,328.99L537.66,329.25L537.39,329.75L537.36,329.96L537.65,330.86L537.60,331.16L537.71,331.48L537.66,331.69Z"><title>Southland</title></path>
<path data-code="NZ-MBH" data-name="Marlborough District" d="M545.60,320.53L545.63,320.60L545.60,320.71L545.32,320.78L545.55,320.67L545.58,320.60L545.51,320.58L545.60,320.53ZM544.68,320.13L544.68,319.99L544.78,320.06L544.73,319.95L544.76,319.83L544.79,319.87L544.84,319.83L544.84,319.93L544.93,319.87L544.87,319.87L544.96,319.73L544.96,319.90L544.89,320.05L544.72,320.17L544.68,320.13ZM544.39,320.43L544.52,320.53L544.52,320.47L544.63,320.39L544.53,320.39L544.57,320.31L544.79,320.17L544.78,320.26L544.82,320.27L544.89,320.17L545.05,320.13L545.07,320.18L544.97,320.17L544.89,320.32L544.68,320.34L544.72,320.38L544.68,320.54L544.75,320.44L544.95,320.44L544.83,320.47L544.84,320.53L544.74,320.63L544.82,320.69L544.78,320.81L544.65,320.85L544.69,320.91L544.91,320.80L544.84,320.76L545.02,320.77L545.22,320.67L544.86,320.71L544.85,320.61L544.94,320.48L544.99,320.49L544.98,320.62L545.08,320.51L545.07,320.35L545.01,320.43L544.94,320.34L544.99,320.34L545.01,320.26L545.16,320.36L545.29,320.26L545.35,320.35L545.30,320.41L545.33,320.46L545.50,320.31L545.41,320.58L545.33,320.62L545.32,320.50L545.27,320.55L545.35,320.70L544.91,320.88L545.24,320.80L545.32,320.85L545.51,320.76L545.39,320.97L545.28,321.02L545.32,320.94L545.22,320.97L545.09,321.20L545.10,321.37L545.17,321.45L545.19,321.34L545.36,321.78L545.46,321.80L545.45,321.85L545.14,322.28L544.93,322.17L544.69,322.24L544.61,322.17L544.25,322.49L544.15,322.75L543.79,322.99L543.81,323.07L543.72,323.22L543.55,323.30L543.45,323.22L543.46,323.14L543.34,322.98L543.25,322.93L543.20,322.71L543.03,322.58L543.39,321.83L543.75,321.40L543.88,321.36L543.92,321.11L544.08,320.99L544.32,320.66L544.39,320.43Z"><title>Marlborough District</title></path>
<path data-code="NZ-NSN" data-name="Nelson City" d="M543.77,320.95L544.15,320.60L544.17,320.64L544.35,320.53L544.39,320.43L544.35,320.62L544.01,321.06L543.92,321.11L543.77,320.95Z"><title>Nelson City</title></path>
<path data-code="NZ-TAS" data-name="Tasman District" d="M542.31,319.87L542.51,319.74L542.73,319.49L542.79,319.47L542.78,319.56L542.86,319.52L542.91,319.44L542.81,319.44L542.93,319.33L543.48,319.36L543.09,319.35L543.02,319.59L542.96,319.61L543.03,319.69L543.02,319.81L543.06,319.79L543.28,320.01L543.49,319.88L543.50,320.05L543.58,320.09L543.57,320.26L543.48,320.35L543.53,320.35L543.59,320.57L543.54,320.55L543.53,320.62L543.61,320.70L543.65,320.85L543.60,320.89L543.77,320.95L543.92,321.11L543.88,321.36L543.75,321.40L543.39,321.83L543.03,322.58L542.94,322.58L542.79,322.87L542.58,322.97L542.45,322.67L542.17,322.54L542.14,322.39L542.08,322.34L542.05,322.25L542.14,322.04L542.13,321.85L542.33,321.73L542.49,321.38L542.59,321.28L542.59,321.18L542.79,321.15L542.84,321.04L542.83,320.88L543.03,320.74L542.75,320.55L542.66,320.42L542.45,320.45L542.50,320.24L542.34,320.02L542.31,319.87Z"><title>Tasman District</title></path>
<path data-code="NZ-WTC" data-name="West Coast" d="M536.04,326.96L535.99,326.91L536.30,326.69L536.44,326.50L536.40,326.47L536.82,326.32L536.90,326.40L537.06,326.38L538.00,325.68L538.48,325.51L538.70,325.19L538.94,325.06L539.05,324.89L539.16,324.82L539.26,324.85L539.36,324.69L539.20,324.80L539.33,324.58L539.48,324.56L539.68,324.38L539.96,324.27L540.21,324.05L540.34,323.83L540.61,323.54L540.77,323.25L540.89,322.94L540.98,322.47L541.06,322.35L541.17,322.00L541.14,321.87L541.40,321.85L541.73,321.67L541.94,321.23L542.06,321.16L542.09,320.92L542.17,320.91L542.13,320.83L542.12,320.09L542.25,319.91L542.31,319.87L542.34,320.02L542.50,320.24L542.44,320.39L542.46,320.46L542.66,320.42L542.75,320.55L543.02,320.73L542.83,320.88L542.84,321.04L542.79,321.15L542.59,321.18L542.59,321.28L542.49,321.38L542.33,321.73L542.14,321.83L542.14,322.04L542.05,322.25L542.17,322.54L542.45,322.67L542.56,322.96L542.69,322.92L542.64,323.09L542.33,323.29L542.06,323.62L541.85,323.72L541.77,323.88L541.59,323.96L541.52,324.16L540.92,324.29L540.77,324.49L540.53,324.58L540.43,324.74L540.22,324.86L539.80,325.22L539.69,325.22L539.20,325.44L539.05,325.59L538.81,325.95L538.39,326.34L538.28,326.32L538.20,326.44L537.92,326.60L537.76,326.54L537.40,326.62L537.12,326.90L537.06,327.08L536.92,327.21L536.33,327.38L536.40,327.14L536.37,327.06L536.20,326.93L536.04,326.96Z"><title>West Coast</title></path>
<path data-code="NZ-OTA" data-name="Otago" d="M540.69,328.32L540.31,328.89L540.23,329.13L540.28,329.23L540.21,329.32L540.22,329.39L540.11,329.56L540.05,329.55L540.07,329.63L539.94,329.67L540.00,329.71L539.96,329.79L539.85,329.84L539.86,329.89L539.95,329.89L540.05,329.98L539.92,330.03L539.74,330.23L539.94,330.13L540.08,329.99L540.08,330.18L539.65,330.28L539.40,330.40L539.29,330.56L539.22,330.78L538.74,331.13L538.66,331.38L538.37,331.43L538.52,331.45L538.49,331.52L538.33,331.61L538.20,331.59L538.10,331.65L538.13,331.70L537.84,331.70L537.70,331.77L537.66,331.69L537.70,331.44L537.64,331.36L537.60,331.16L537.65,330.86L537.36,329.96L537.39,329.75L537.66,329.25L537.63,329.17L537.44,328.99L537.13,329.28L537.02,329.25L536.81,328.93L536.54,329.05L536.30,329.02L536.20,328.68L536.25,328.47L536.08,328.34L536.02,328.13L536.14,327.60L536.33,327.38L536.97,327.18L537.12,326.90L537.40,326.62L537.76,326.54L537.92,326.60L538.34,326.31L538.40,326.45L538.20,326.80L538.21,327.29L538.30,327.35L538.38,327.57L538.58,327.73L538.74,327.73L539.01,328.24L539.36,328.24L539.49,328.53L539.99,328.21L540.18,328.17L540.69,328.32Z"><title>Otago</title></path>
<path data-code="NZ-CAN" data-name="Canterbury" d="M545.14,322.28L544.98,322.48L544.94,322.66L544.85,322.83L544.56,323.11L544.59,323.23L544.49,323.19L544.34,323.34L544.25,323.58L544.18,323.61L544.21,323.64L544.08,323.96L543.98,324.06L543.92,324.27L543.72,324.37L543.61,324.50L543.35,324.57L543.19,324.71L543.09,324.90L543.07,325.20L543.15,325.49L543.10,325.51L543.23,325.58L543.00,325.66L543.26,325.64L543.29,325.72L543.32,325.61L543.37,325.65L543.37,325.75L543.45,325.68L543.52,325.73L543.58,325.68L543.66,325.87L543.63,326.09L543.48,326.16L543.40,325.89L543.37,326.07L543.43,326.20L543.20,326.15L543.09,326.03L543.12,325.97L542.60,326.09L542.94,325.95L542.71,325.83L542.59,325.86L542.53,326.11L542.34,326.15L541.75,326.51L541.44,326.62L540.95,326.95L540.85,327.14L540.84,327.32L540.69,327.50L540.75,327.89L540.69,327.98L540.75,328.03L540.69,328.32L540.18,328.17L539.99,328.21L539.49,328.53L539.42,328.45L539.38,328.26L539.01,328.24L538.74,327.73L538.58,327.73L538.38,327.57L538.30,327.35L538.21,327.29L538.20,326.80L538.38,326.50L538.39,326.34L538.81,325.95L539.09,325.55L539.61,325.25L539.80,325.22L540.22,324.86L540.43,324.74L540.53,324.58L540.77,324.49L540.92,324.29L541.52,324.16L541.59,323.96L541.77,323.88L541.85,323.72L542.06,323.62L542.33,323.29L542.64,323.09L542.69,322.92L542.86,322.79L542.95,322.57L543.20,322.71L543.26,322.95L543.46,323.14L543.45,323.22L543.58,323.30L543.78,323.13L543.79,322.99L544.15,322.75L544.25,322.49L544.61,322.17L544.69,322.24L544.93,322.17L545.14,322.28Z"><title>Canterbury</title></path>
<path data-code="NZ-AUK" data-name="Auckland" d="M546.80,311.70L546.87,311.74L546.82,311.77L546.82,311.87L546.56,311.83L546.57,311.74L546.71,311.78L546.80,311.70ZM546.32,311.00L546.38,311.02L546.40,311.11L546.31,311.11L546.32,311.00ZM546.75,310.56L546.78,310.63L546.70,310.66L546.67,310.62L546.75,310.56ZM547.37,310.77L547.41,310.83L547.34,310.92L547.32,310.83L547.26,310.85L547.24,310.76L547.06,310.66L547.04,310.61L547.11,310.65L547.12,310.54L547.06,310.47L547.14,310.44L547.12,310.34L547.19,310.35L547.25,310.44L547.23,310.48L547.36,310.56L547.31,310.69L547.37,310.77ZM546.04,312.82L545.87,312.35L546.04,312.37L546.01,312.42L546.15,312.72L546.14,312.59L546.25,312.56L546.11,312.53L546.32,312.38L546.46,312.45L546.45,312.36L546.32,312.31L546.28,312.21L546.22,312.24L546.29,312.11L546.19,312.09L546.04,312.11L545.95,312.26L545.90,312.23L545.78,312.29L545.64,311.74L545.35,311.31L545.29,311.12L545.33,311.06L545.32,311.18L545.41,311.11L545.56,311.31L545.53,311.36L545.61,311.38L545.55,311.41L545.56,311.48L545.63,311.51L545.63,311.45L545.67,311.55L545.77,311.37L545.73,311.38L545.70,311.25L545.73,311.09L545.69,311.03L545.73,310.96L545.67,310.93L545.52,311.00L545.43,310.89L545.62,310.86L546.02,310.47L546.28,310.76L546.25,310.88L546.36,310.91L546.16,310.92L546.21,311.19L546.11,311.04L546.14,311.12L546.10,311.18L546.15,311.22L546.10,311.27L546.12,311.40L546.33,311.44L546.21,311.51L546.12,311.48L546.27,311.87L546.15,311.86L546.09,311.74L545.96,311.81L546.06,311.83L546.01,311.87L546.06,312.04L546.16,311.91L546.35,311.92L546.38,312.14L546.45,311.90L546.49,312.09L546.58,312.06L546.55,311.98L546.63,311.98L546.69,312.04L546.69,312.17L546.90,312.10L547.04,312.25L546.82,312.31L546.79,312.55L546.70,312.61L546.04,312.82Z"><title>Auckland</title></path>
<path data-code="NZ-WKO" data-name="Waikato" d="M547.84,311.47L547.77,311.46L547.73,311.37L547.77,311.36L547.84,311.47ZM545.96,315.68L546.00,315.19L546.12,314.64L546.10,314.46L546.21,314.46L546.31,314.56L546.34,314.54L546.30,314.50L546.46,314.45L546.40,314.46L546.32,314.36L546.23,314.42L546.24,314.34L546.37,314.18L546.32,314.14L546.26,314.25L546.22,314.22L546.23,313.99L546.27,313.89L546.51,313.85L546.47,313.81L546.50,313.71L546.41,313.80L546.32,313.77L546.13,313.15L546.11,313.04L546.30,312.83L546.21,312.85L546.13,312.96L546.04,312.82L546.70,312.61L546.79,312.55L546.82,312.31L547.04,312.25L547.04,312.53L547.11,312.65L547.23,312.68L547.41,312.59L547.43,312.71L547.51,312.72L547.46,312.66L547.35,312.15L547.21,311.95L547.31,311.95L547.34,311.91L547.24,311.90L547.37,311.79L547.28,311.63L547.31,311.48L547.11,311.33L547.09,311.20L547.22,311.16L547.32,311.28L547.36,311.23L547.40,311.32L547.37,311.41L547.47,311.50L547.47,311.58L547.42,311.58L547.52,311.63L547.51,311.75L547.59,311.66L547.85,311.66L547.84,311.72L547.78,311.72L547.62,311.91L547.67,312.00L547.72,311.87L547.85,311.90L547.90,312.17L547.87,312.33L547.95,312.34L547.90,312.50L547.95,312.52L547.96,312.63L547.90,312.56L547.90,312.72L547.97,312.76L548.01,312.97L547.88,313.14L547.91,313.24L547.81,313.19L547.78,313.25L548.03,314.03L548.04,314.21L548.21,314.37L548.23,314.57L548.43,314.67L548.56,314.89L548.84,315.03L548.82,315.27L548.47,315.88L548.48,316.08L548.40,316.25L548.20,316.53L548.11,316.44L548.05,316.59L547.79,316.87L547.45,316.83L547.56,316.24L547.41,316.21L547.42,315.88L547.35,315.78L547.51,315.44L547.47,315.29L547.41,315.25L547.25,315.23L547.12,315.40L547.01,315.41L546.89,315.53L546.50,315.60L546.45,315.77L546.34,315.82L546.25,315.74L545.96,315.68Z"><title>Waikato</title></path>
<path data-code="NZ-WGN" data-name="Wellington" d="M548.61,319.70L548.44,320.14L548.30,320.25L548.18,320.60L548.02,320.82L547.05,321.55L546.88,321.56L546.82,321.38L546.82,321.16L546.60,321.09L546.43,321.22L546.34,321.17L546.38,320.77L546.22,320.82L546.19,320.88L546.29,320.92L546.25,320.99L546.08,321.01L545.95,320.91L545.95,320.80L546.07,320.75L546.28,320.50L546.34,320.53L546.30,320.41L546.45,320.28L546.51,320.07L546.76,319.66L546.95,319.85L547.20,319.80L547.27,319.73L547.52,319.79L547.65,319.71L547.82,319.86L548.21,319.70L548.61,319.70Z"><title>Wellington</title></path>
<path data-code="NZ-MWT" data-name="Manawatu-Wanganui" d="M546.76,319.66L546.84,319.25L546.89,319.24L546.91,318.87L546.81,318.51L546.63,318.29L546.39,318.06L546.20,318.01L546.53,317.62L546.53,317.40L546.50,317.28L546.38,317.15L546.38,317.00L546.28,316.93L546.11,316.56L546.27,316.26L546.24,315.94L546.28,315.85L546.45,315.77L546.50,315.60L546.89,315.53L547.01,315.41L547.12,315.40L547.25,315.23L547.34,315.22L547.47,315.29L547.51,315.41L547.35,315.78L547.42,315.88L547.41,316.21L547.56,316.24L547.45,316.83L547.79,316.87L548.05,316.59L548.11,316.44L548.20,316.53L548.27,316.88L548.23,317.01L548.29,317.24L548.37,317.29L548.29,317.46L548.38,317.64L548.24,318.29L548.56,318.44L548.64,318.60L548.67,319.03L549.04,319.23L548.91,319.28L548.61,319.70L548.21,319.70L547.82,319.86L547.65,319.71L547.52,319.79L547.27,319.73L547.20,319.80L546.95,319.85L546.76,319.66Z"><title>Manawatu-Wanganui</title></path>
<path data-code="NZ-TKI" data-name="Taranaki" d="M546.20,318.01L545.88,317.95L545.50,317.51L544.99,317.37L544.79,317.21L544.65,316.97L544.65,316.79L544.72,316.60L545.34,316.22L545.65,316.20L545.90,315.95L545.96,315.68L546.25,315.74L546.34,315.82L546.24,315.94L546.27,316.26L546.11,316.56L546.28,316.93L546.38,317.00L546.38,317.15L546.50,317.28L546.53,317.62L546.20,318.01Z"><title>Taranaki</title></path>
<path data-code="NZ-NTL" data-name="Northland" d="M545.80,310.66L545.55,310.80L545.47,310.74L545.57,310.77L545.66,310.52L545.70,310.53L545.67,310.47L545.62,310.45L545.60,310.58L545.52,310.66L545.55,310.62L545.43,310.55L545.45,310.44L545.29,310.50L545.39,310.58L545.40,310.66L545.46,310.63L545.50,310.69L545.41,310.75L545.23,310.55L545.13,310.54L545.01,310.44L544.99,310.29L544.86,310.12L544.93,310.03L544.87,309.94L544.90,310.05L544.83,310.12L544.95,310.28L545.03,310.50L545.21,310.75L545.28,310.76L545.32,310.91L545.28,310.98L545.14,311.01L545.05,310.75L544.11,309.34L544.18,309.07L544.24,309.03L544.31,309.10L544.32,308.98L544.36,309.06L544.38,308.94L544.45,308.91L544.49,308.81L544.40,308.78L544.39,308.86L544.35,308.73L544.35,308.91L544.11,308.97L544.05,309.22L543.90,308.97L543.97,308.79L543.90,308.83L543.87,308.93L543.79,308.83L543.88,308.75L543.76,308.77L543.63,308.60L543.65,308.55L543.71,308.57L543.79,308.40L543.72,308.07L543.18,307.27L542.98,307.13L543.03,306.99L543.22,307.06L543.33,306.99L543.60,306.99L543.55,307.06L543.54,307.21L543.44,307.10L543.34,307.25L543.48,307.29L543.49,307.47L543.53,307.35L543.50,307.25L543.54,307.27L543.59,307.57L543.76,307.76L543.77,307.85L543.67,307.72L543.67,307.79L543.94,308.00L543.89,308.20L543.98,308.21L544.05,308.11L544.03,307.91L544.13,307.87L544.16,307.77L544.17,307.88L544.23,307.85L544.25,307.92L544.10,307.98L544.19,308.14L544.38,308.21L544.35,308.07L544.38,308.03L544.52,308.13L544.60,308.10L544.68,308.19L544.59,308.31L544.65,308.38L544.72,308.21L544.85,308.18L545.00,308.42L545.21,308.46L545.25,308.55L545.19,308.57L545.10,308.49L545.05,308.52L545.09,308.58L545.04,308.62L545.16,308.62L545.25,308.93L545.27,308.85L545.40,308.83L545.25,308.73L545.44,308.72L545.55,308.58L545.53,308.81L545.63,308.83L545.66,308.94L545.52,308.85L545.60,309.03L545.72,309.06L545.78,309.19L545.73,309.23L545.90,309.43L545.88,309.50L545.74,309.48L545.85,309.57L545.81,309.64L545.91,309.72L545.94,309.89L545.87,309.88L545.77,309.73L545.60,309.78L545.56,309.62L545.56,309.67L545.55,309.88L545.65,309.83L545.78,309.86L545.80,309.93L545.74,310.01L545.77,310.18L545.96,310.29L546.02,310.47L545.80,310.66Z"><title>Northland</title></path>
<path data-code="NZ-BOP" data-name="Bay of Plenty" d="M548.01,312.97L548.08,313.13L548.04,313.18L548.19,313.25L548.33,313.49L548.19,313.43L548.17,313.41L548.23,313.38L548.10,313.27L547.99,313.28L548.08,313.51L548.15,313.49L548.28,313.62L548.35,313.57L548.40,313.68L548.45,313.67L548.41,313.48L548.49,313.61L548.87,313.77L549.17,314.00L549.76,314.18L549.81,314.21L549.71,314.22L549.81,314.29L549.85,314.29L549.83,314.21L550.04,314.28L550.46,314.07L550.74,313.59L551.12,313.42L551.12,313.32L551.25,313.34L551.22,313.43L551.10,313.50L551.10,313.73L551.23,313.77L551.05,314.06L550.90,314.47L550.66,314.29L550.60,314.57L550.37,314.70L550.36,314.84L550.27,314.96L549.98,315.12L550.00,315.26L549.86,315.42L549.68,315.53L549.58,315.67L549.41,315.61L549.20,315.70L549.15,315.97L548.89,315.88L548.77,316.25L548.71,316.26L548.55,316.08L548.48,316.08L548.47,315.88L548.82,315.27L548.84,315.03L548.56,314.89L548.43,314.67L548.23,314.57L548.21,314.37L548.04,314.21L548.03,314.03L547.78,313.25L547.81,313.19L547.91,313.24L547.88,313.14L548.01,312.97Z"><title>Bay of Plenty</title></path>
<path data-code="NZ-GIS" data-name="Gisborne District" d="M551.25,313.34L551.60,313.37L551.66,313.48L551.92,313.55L552.00,313.68L551.67,314.25L551.72,314.41L551.64,314.54L551.68,314.63L551.62,314.79L551.69,314.89L551.60,315.32L551.26,315.68L551.13,315.63L551.03,315.67L551.08,315.79L551.00,316.19L550.46,315.84L550.25,315.55L549.87,315.40L550.00,315.26L549.98,315.12L550.27,314.96L550.36,314.84L550.37,314.70L550.60,314.57L550.66,314.29L550.90,314.47L550.96,314.38L551.05,314.06L551.23,313.77L551.10,313.73L551.10,313.47L551.22,313.43L551.25,313.34Z"><title>Gisborne District</title></path>
<path data-code="NZ-HKB" data-name="Hawke's Bay" d="M551.00,316.19L550.96,316.45L551.13,316.54L550.94,316.86L550.88,316.67L550.91,316.45L550.24,316.39L549.69,316.70L549.46,317.14L549.52,317.27L549.55,317.54L549.78,317.65L549.65,317.82L549.36,318.66L549.23,318.81L549.17,318.78L549.12,318.85L549.10,318.93L549.15,318.88L549.04,319.21L548.67,319.03L548.64,318.60L548.56,318.44L548.24,318.29L548.38,317.64L548.29,317.46L548.37,317.29L548.29,317.24L548.23,317.01L548.27,316.88L548.20,316.53L548.48,316.08L548.76,316.26L548.89,315.88L549.15,315.97L549.20,315.70L549.41,315.61L549.58,315.67L549.68,315.53L549.87,315.40L550.25,315.55L550.46,315.84L551.00,316.19Z"><title>Hawke's Bay</title></path>
  </g>
</svg>
