<?xml version="1.0" encoding="UTF-8"?>
<svg xmlns="http://www.w3.org/2000/svg" viewBox="0 0 560 640" class="pref-muni-svg" role="img" aria-label="行政区分">
  <g class="pref-muni-svg__paths" fill="#eaf2fb" stroke="#5b7fa8" stroke-width="0.6" stroke-linejoin="round">
<path data-code="NG-KE" data-name="Kebbi" d="M54.40,226.32L44.05,211.48L48.93,200.89L53.13,196.91L50.27,190.21L52.52,186.48L51.18,181.54L52.43,173.52L51.98,162.09L65.02,151.41L72.26,140.12L73.69,130.28L83.69,129.48L89.27,133.53L98.71,137.45L101.84,136.76L103.37,134.46L105.35,135.06L103.14,144.48L105.68,149.93L104.65,156.68L105.85,167.53L97.48,168.38L95.85,171.25L96.15,188.90L92.24,204.75L95.73,207.08L99.30,203.89L107.92,200.01L112.77,201.20L116.51,200.20L120.04,201.72L126.43,198.67L131.05,198.81L132.80,201.04L139.42,203.30L151.14,202.82L154.99,205.48L153.63,212.06L159.75,219.66L160.15,226.69L157.17,225.87L153.72,229.34L142.74,233.22L135.20,233.76L133.40,231.72L132.88,224.86L129.82,221.02L129.19,217.59L126.51,215.98L109.80,218.59L103.58,221.37L102.83,224.27L105.71,226.44L116.03,230.26L117.13,235.29L114.95,238.05L117.80,243.38L110.33,246.72L105.74,246.81L105.26,256.44L108.78,262.35L106.35,266.32L97.95,268.48L96.89,273.16L92.70,272.00L93.67,265.27L90.83,261.73L90.94,256.57L99.48,248.06L100.98,236.19L87.98,230.48L68.47,231.23L59.36,226.40L54.40,226.32Z"><title>Kebbi</title></path>
<path data-code="NG-NI" data-name="Niger" d="M57.21,259.11L58.91,257.29L60.85,247.65L55.99,240.62L57.08,236.06L55.21,225.92L59.36,226.40L68.47,231.23L87.98,230.48L100.98,236.19L99.48,248.06L90.94,256.57L90.83,261.73L93.67,265.27L92.70,272.00L96.89,273.16L97.95,268.48L106.35,266.32L108.78,262.35L105.26,256.44L105.74,246.81L110.33,246.72L117.80,243.38L114.95,238.05L117.13,235.29L116.03,230.26L105.71,226.44L102.83,224.27L103.58,221.37L109.80,218.59L126.51,215.98L129.19,217.59L129.82,221.02L132.88,224.86L133.40,231.72L135.20,233.76L142.74,233.22L153.72,229.34L158.76,225.79L162.09,229.21L166.27,238.10L164.08,240.70L164.66,249.11L163.15,255.56L166.81,261.13L178.28,251.38L181.49,250.67L184.71,253.16L191.47,251.60L193.75,248.43L196.80,249.10L197.47,253.72L199.78,253.45L202.28,255.57L201.76,260.87L207.33,263.99L207.23,265.57L199.38,272.89L204.66,276.93L214.74,277.21L216.93,278.75L217.71,287.77L214.12,289.61L217.66,292.13L219.60,296.70L214.17,304.51L216.45,307.30L216.14,310.08L218.37,309.98L211.71,319.16L202.60,312.97L193.12,313.81L193.34,347.87L194.72,350.64L196.79,350.88L190.28,360.06L180.03,349.73L175.73,338.29L171.50,335.73L149.96,335.50L147.41,332.31L142.34,331.49L137.98,326.88L131.77,324.12L123.08,323.26L120.39,318.44L113.85,314.61L103.19,316.81L101.91,311.01L96.57,308.73L96.10,304.26L88.80,304.10L87.31,301.54L87.09,291.34L84.12,290.34L68.87,272.30L64.50,270.81L53.03,271.81L48.84,264.60L52.46,257.70L57.21,259.11Z"><title>Niger</title></path>
<path data-code="NG-KW" data-name="Kwara" d="M46.15,284.76L53.03,271.81L67.60,271.22L84.12,290.34L87.09,291.34L87.31,301.54L88.80,304.10L96.10,304.26L96.57,308.73L101.91,311.01L103.19,316.81L113.85,314.61L120.39,318.44L123.08,323.26L131.77,324.12L137.98,326.88L142.34,331.49L147.41,332.31L149.43,335.31L163.11,334.72L166.21,336.53L168.72,336.04L166.79,338.53L163.79,350.98L161.35,352.40L150.09,350.95L141.05,348.18L136.96,345.19L129.41,355.08L132.69,360.03L137.56,363.61L137.89,366.36L131.40,367.02L129.62,370.74L124.02,370.68L121.01,368.81L118.18,369.65L116.49,368.16L113.22,368.35L110.90,365.87L93.43,367.99L84.52,355.28L77.35,337.72L77.32,332.14L83.26,325.75L82.48,323.98L79.00,325.36L70.30,322.69L62.16,315.49L57.94,317.20L56.36,322.42L54.43,324.13L33.94,335.23L29.46,334.25L19.23,342.25L13.87,343.03L11.21,345.34L10.33,333.61L11.60,332.67L12.42,321.02L22.12,320.85L26.33,319.27L29.75,310.38L28.90,302.64L33.93,296.80L34.03,294.54L37.92,293.70L37.67,286.82L43.43,284.46L46.15,284.76Z"><title>Kwara</title></path>
<path data-code="NG-OG" data-name="Ogun" d="M13.06,396.23L13.47,393.55L10.22,388.54L10.39,378.39L8.00,374.45L12.22,371.49L16.62,371.64L18.77,381.42L20.05,381.61L21.15,377.26L22.86,377.20L21.52,386.87L31.02,399.42L36.05,400.17L41.57,392.76L45.34,397.02L52.56,395.80L54.20,401.39L56.84,403.08L58.09,408.88L55.18,413.32L63.51,412.74L74.94,408.77L76.26,412.78L81.91,411.36L84.74,416.38L92.97,415.14L92.65,422.03L85.44,428.63L84.33,433.05L85.60,434.67L90.14,435.35L93.95,432.52L95.09,439.74L89.37,442.74L94.02,444.75L94.09,445.98L90.59,446.68L83.74,444.38L83.87,441.77L78.98,441.49L75.25,439.42L77.80,436.84L77.74,434.91L72.21,436.41L70.41,433.66L72.40,430.43L69.69,429.72L43.20,429.86L41.23,431.87L35.44,429.04L34.01,429.60L30.54,437.32L17.99,437.26L15.45,439.96L9.82,439.63L10.70,431.93L12.85,429.31L12.61,426.73L10.35,424.68L9.97,416.41L12.90,413.58L10.88,411.07L12.10,408.03L11.15,396.74L13.06,396.23Z"><title>Ogun</title></path>
<path data-code="NG-OY" data-name="Oyo" d="M8.00,374.45L10.85,360.84L9.45,350.37L11.21,345.34L13.87,343.03L19.23,342.25L29.46,334.25L33.94,335.23L54.43,324.13L59.98,315.71L64.22,316.43L70.30,322.69L79.00,325.36L82.48,323.98L83.26,325.75L77.32,332.14L77.35,337.72L84.52,355.28L90.04,362.09L91.36,366.42L93.43,367.99L93.67,371.12L86.37,376.42L80.18,371.67L75.21,377.37L72.15,376.55L69.78,386.77L74.83,393.70L71.73,410.32L55.18,413.32L58.09,408.88L56.84,403.08L54.20,401.39L52.56,395.80L45.34,397.02L41.57,392.76L36.05,400.17L31.02,399.42L21.52,386.87L22.86,377.20L21.15,377.26L20.05,381.61L18.77,381.42L16.62,371.64L12.22,371.49L8.00,374.45Z"><title>Oyo</title></path>
<path data-code="NG-LA" data-name="Lagos" d="M9.46,444.49L9.82,439.63L15.45,439.96L17.99,437.26L30.54,437.32L34.01,429.60L35.44,429.04L41.23,431.87L43.20,429.86L72.40,430.43L70.41,433.66L70.92,435.35L72.21,436.41L77.74,434.91L77.80,436.84L75.25,439.42L78.98,441.49L83.87,441.77L83.94,443.00L83.74,444.38L62.35,441.58L43.00,442.56L40.34,440.99L42.32,440.34L42.85,441.96L44.44,440.48L47.44,440.52L48.77,438.01L54.64,437.20L57.45,434.53L61.79,433.75L57.97,432.82L46.85,437.17L44.59,436.54L44.71,433.75L41.13,436.05L39.66,440.74L40.32,443.14L9.46,444.49Z"><title>Lagos</title></path>
<path data-code="NG-BO" data-name="Borno" d="M503.89,107.62L524.64,136.37L530.26,168.86L543.78,170.36L549.38,177.44L552.00,177.70L549.10,184.48L550.13,188.17L548.48,195.83L546.27,199.20L549.87,202.87L549.16,208.16L529.20,220.85L520.89,219.11L511.08,230.24L510.35,234.44L501.13,236.06L495.49,235.00L494.51,243.93L490.39,256.23L488.10,257.51L485.01,256.82L476.77,251.56L469.14,251.86L459.12,261.12L448.90,263.71L441.62,272.01L435.85,276.06L428.53,275.66L425.31,273.63L422.25,268.70L416.91,265.63L414.66,259.86L418.01,254.43L417.45,250.43L421.65,247.44L422.47,238.33L425.04,235.51L438.56,229.63L439.95,226.48L439.96,218.74L448.61,206.90L446.25,202.10L441.69,201.34L444.90,192.13L443.83,187.55L445.92,172.10L444.98,165.23L449.98,160.53L453.11,154.98L452.72,152.16L448.27,148.13L447.46,145.22L448.54,136.34L453.07,136.70L456.45,128.80L459.57,125.70L461.58,126.92L466.26,122.19L467.52,122.82L467.03,121.76L470.46,118.77L469.20,117.49L473.60,117.22L478.84,114.77L481.95,115.95L482.88,114.67L483.16,115.95L486.69,114.78L491.31,107.37L503.89,107.62Z"><title>Borno</title></path>
<path data-code="NG-AD" data-name="Adamawa" d="M510.35,234.44L500.78,249.18L496.07,270.67L492.66,273.10L487.59,274.07L486.79,275.63L487.52,278.93L486.00,283.68L488.27,286.82L485.21,298.74L475.55,301.84L469.79,306.27L471.74,311.59L468.28,319.19L467.54,331.38L466.05,334.70L463.15,335.08L460.95,339.28L456.31,341.75L447.73,341.57L449.32,346.76L446.03,350.08L443.33,349.91L441.30,351.82L441.74,360.51L439.28,365.27L439.97,370.70L431.86,382.47L431.96,389.02L426.63,394.65L422.16,378.45L415.03,372.15L410.50,376.49L409.02,376.35L403.99,366.88L424.62,343.21L425.16,336.83L429.71,327.36L429.43,324.18L423.10,317.77L423.30,314.56L420.45,308.48L413.70,304.34L409.51,296.45L417.52,294.07L427.61,287.63L428.53,275.66L435.85,276.06L441.62,272.01L448.90,263.71L459.12,261.12L469.14,251.86L476.77,251.56L485.01,256.82L488.10,257.51L490.39,256.23L494.51,243.93L495.49,235.00L501.13,236.06L510.35,234.44Z"><title>Adamawa</title></path>
<path data-code="NG-TA" data-name="Taraba" d="M426.63,394.65L419.06,403.39L425.06,409.64L425.21,411.84L422.34,412.18L411.13,421.17L410.06,423.57L411.45,427.46L409.85,431.78L404.56,435.14L403.31,439.64L401.27,441.05L390.80,441.47L387.32,427.40L381.55,425.39L378.03,418.00L368.45,413.47L366.55,409.47L362.80,421.24L349.87,421.03L346.79,415.13L334.63,425.23L330.72,424.91L326.39,437.00L324.20,437.47L327.14,414.37L334.63,405.88L336.73,394.98L334.72,389.65L320.87,376.80L306.97,376.20L300.68,378.26L300.14,377.23L302.65,373.49L311.72,366.90L311.17,361.69L308.74,358.63L310.16,355.00L319.79,356.61L322.87,353.43L332.04,352.42L345.09,342.40L350.69,335.27L361.18,332.69L368.36,329.14L369.92,326.18L369.60,318.81L367.17,311.83L365.72,300.83L382.50,295.96L393.59,297.11L409.51,296.45L413.70,304.34L420.45,308.48L423.30,314.56L423.10,317.77L429.43,324.18L429.71,327.36L425.16,336.83L424.62,343.21L403.99,366.88L409.02,376.35L410.50,376.49L415.03,372.15L422.16,378.45L426.63,394.65Z"><title>Taraba</title></path>
<path data-code="NG-BE" data-name="Benue" d="M324.20,437.47L317.12,442.20L309.52,431.91L305.51,429.86L294.56,430.99L293.00,425.12L287.55,421.89L281.18,420.46L278.25,421.57L278.09,424.79L275.80,426.91L268.27,427.14L262.86,430.38L259.50,425.05L255.02,428.77L249.56,429.45L246.40,437.56L243.28,435.62L241.80,432.46L243.37,425.94L241.73,421.91L233.31,421.81L228.87,417.56L226.66,412.06L233.01,414.82L233.87,410.92L239.89,407.62L244.14,396.37L239.81,394.99L238.48,380.75L234.91,375.76L234.47,368.38L255.04,373.50L262.92,376.19L268.58,379.89L268.88,377.53L265.69,369.51L266.42,366.27L268.94,364.12L274.92,363.44L287.37,367.23L294.01,367.01L302.65,373.49L300.68,378.26L306.97,376.20L313.94,376.00L320.87,376.80L326.01,380.38L334.72,389.65L336.73,394.98L334.63,405.88L327.14,414.37L324.20,437.47Z"><title>Benue</title></path>
<path data-code="NG-CR" data-name="Cross River" d="M317.12,442.20L314.14,445.82L310.43,446.98L307.36,452.09L294.69,463.97L294.18,466.19L291.41,465.79L287.95,469.16L288.72,472.78L286.77,475.02L290.61,480.00L287.90,484.71L285.85,499.99L283.55,501.62L276.93,512.77L277.38,515.04L274.52,516.32L273.64,520.69L270.89,520.57L271.39,518.69L268.17,518.84L268.75,514.33L265.87,516.63L257.58,507.72L260.67,511.16L263.19,517.32L260.91,515.92L252.75,505.69L252.45,497.52L249.68,495.37L245.84,495.52L243.68,492.01L244.95,490.56L247.10,490.97L247.67,489.35L245.46,485.11L244.08,475.63L248.11,466.38L248.47,461.74L251.99,461.64L254.06,463.66L258.27,459.99L260.79,460.58L262.39,455.91L266.84,450.58L266.70,444.58L269.52,442.98L267.74,437.62L262.86,430.38L268.27,427.14L275.80,426.91L278.09,424.79L278.25,421.57L284.28,420.73L293.00,425.12L294.56,430.99L305.51,429.86L309.52,431.91L317.12,442.20Z"><title>Cross River</title></path>
<path data-code="NG-SO" data-name="Sokoto" d="M137.24,99.53L165.38,110.52L169.35,108.76L175.66,111.19L189.42,125.20L193.11,131.92L187.31,135.71L182.89,135.72L172.26,132.47L170.81,137.30L164.61,137.32L161.74,138.93L162.02,148.07L160.68,150.56L147.15,152.73L138.64,161.65L139.46,171.65L137.20,174.03L123.34,174.60L116.67,173.51L115.00,179.01L114.65,200.54L107.92,200.01L99.30,203.89L95.73,207.08L93.70,206.41L92.24,204.75L96.15,188.90L95.85,171.25L97.48,168.38L105.85,167.53L104.65,156.68L105.68,149.93L103.14,144.48L105.35,135.06L103.37,134.46L101.84,136.76L98.71,137.45L89.27,133.53L83.69,129.48L73.69,130.28L73.94,118.23L79.50,117.26L91.21,108.05L107.09,104.40L110.18,106.29L123.90,105.91L127.37,104.41L130.54,100.68L137.24,99.53Z"><title>Sokoto</title></path>
<path data-code="NG-ZA" data-name="Zamfara" d="M193.11,131.92L200.04,139.64L207.13,140.17L207.81,163.90L211.42,178.80L209.40,184.11L214.34,187.96L214.85,190.69L212.06,190.82L207.28,196.01L202.97,195.38L200.35,196.61L198.62,204.83L200.19,207.65L199.62,212.93L198.18,216.36L193.14,220.41L190.75,227.68L180.42,231.36L173.57,230.32L169.01,236.79L166.27,238.10L160.15,226.69L159.75,219.66L153.63,212.06L154.99,205.48L152.87,203.40L147.78,202.25L139.42,203.30L132.80,201.04L131.05,198.81L125.44,198.73L124.30,200.61L120.04,201.72L114.65,200.54L115.00,179.01L116.67,173.51L123.34,174.60L137.20,174.03L139.46,171.65L138.64,161.65L147.15,152.73L160.68,150.56L162.02,148.07L161.74,138.93L164.61,137.32L170.81,137.30L172.26,132.47L182.89,135.72L187.31,135.71L193.11,131.92Z"><title>Zamfara</title></path>
<path data-code="NG-YO" data-name="Yobe" d="M375.29,122.38L405.61,123.22L424.33,128.68L433.62,134.59L440.14,134.19L443.21,136.01L448.54,136.34L447.46,145.22L448.27,148.13L452.72,152.16L453.11,154.98L449.98,160.53L444.98,165.23L445.92,172.10L443.83,187.55L444.90,192.13L441.69,201.34L446.25,202.10L448.61,206.90L439.96,218.74L439.95,226.48L438.56,229.63L425.04,235.51L422.47,238.33L421.65,247.44L419.20,249.94L412.55,250.29L412.13,233.53L401.71,221.88L392.59,216.60L386.30,218.26L382.91,216.36L384.21,205.38L378.76,191.98L373.65,167.40L367.95,162.80L364.77,150.38L358.66,148.35L352.22,148.78L350.60,143.04L347.53,140.69L335.89,144.79L333.84,147.77L329.88,149.48L324.33,147.73L337.14,133.25L345.74,128.47L375.29,122.38Z"><title>Yobe</title></path>
<path data-code="NG-KT" data-name="Katsina" d="M241.64,124.10L254.39,126.19L267.99,136.70L273.81,136.98L280.42,143.46L293.92,147.56L289.06,153.02L284.45,154.72L276.79,153.03L273.90,147.76L255.85,148.50L254.93,155.74L260.93,157.29L262.44,159.72L258.11,160.36L253.87,168.30L242.42,173.65L242.05,189.81L244.80,201.91L236.71,205.90L235.66,210.34L239.47,215.30L237.90,217.69L234.23,219.19L230.49,216.28L225.44,214.86L222.59,216.52L220.34,220.31L215.25,219.70L215.33,224.65L211.22,226.46L208.87,223.99L203.96,222.16L205.86,218.99L205.46,217.05L198.91,214.98L200.19,207.65L198.62,204.83L200.35,196.61L202.97,195.38L207.28,196.01L212.06,190.82L214.85,190.69L214.34,187.96L209.40,184.11L211.42,178.80L207.81,163.90L207.13,140.17L213.26,134.56L222.05,134.78L241.64,124.10Z"><title>Katsina</title></path>
<path data-code="NG-JI" data-name="Jigawa" d="M293.96,147.15L321.73,149.07L324.33,147.73L329.88,149.48L333.84,147.77L335.89,144.79L347.53,140.69L350.60,143.04L352.22,148.78L358.66,148.35L364.77,150.38L367.95,162.80L361.96,166.75L358.18,165.26L353.35,166.38L347.34,185.48L330.51,192.39L326.69,192.70L324.27,194.90L323.31,198.30L325.24,199.59L331.18,198.98L332.63,205.37L330.94,209.68L334.10,210.68L340.34,219.75L358.00,223.64L356.70,226.40L350.13,229.31L349.69,234.07L335.37,232.86L334.71,224.39L331.72,219.79L323.25,220.87L319.18,217.80L313.47,218.06L305.15,216.07L306.44,210.97L310.87,206.31L306.95,203.54L305.27,199.93L300.84,198.93L304.24,190.11L303.18,184.48L296.65,185.32L296.29,183.04L292.09,183.03L292.52,175.69L290.63,173.34L285.22,172.16L284.33,167.92L280.92,165.70L280.38,161.11L270.98,160.00L268.70,161.19L266.04,166.35L260.93,157.29L254.93,155.74L255.85,148.50L273.90,147.76L276.79,153.03L284.45,154.72L291.08,151.41L293.96,147.15Z"><title>Jigawa</title></path>
<path data-code="NG-ON" data-name="Ondo" d="M113.72,468.07L102.14,455.03L90.59,446.68L94.09,445.98L94.02,444.75L89.37,442.74L95.09,439.74L94.81,433.71L93.95,432.52L90.14,435.35L85.60,434.67L84.33,433.05L85.44,428.63L92.65,422.03L93.68,416.02L99.64,409.26L107.65,410.97L108.97,399.91L113.16,398.27L113.19,396.43L118.08,395.32L128.57,396.20L130.64,401.62L133.19,402.62L137.97,398.56L141.86,387.02L146.02,382.60L150.37,380.76L155.41,380.72L155.11,382.51L160.21,389.15L155.96,392.88L156.78,401.75L153.33,405.01L149.23,414.06L149.36,419.27L145.94,426.86L141.36,426.51L138.11,428.47L136.92,425.46L138.13,423.01L136.05,421.35L123.36,421.34L117.20,429.98L116.87,433.55L119.06,437.79L112.64,448.34L117.98,452.82L118.80,455.57L113.72,468.07Z"><title>Ondo</title></path>
<path data-code="NG-DE" data-name="Delta" d="M134.45,501.18L136.07,500.79L134.02,498.59L133.73,499.82L130.16,499.82L129.26,490.92L134.18,490.39L134.80,491.67L137.60,489.58L139.79,489.78L137.79,485.45L142.60,482.52L137.03,484.43L135.57,488.43L132.79,487.28L133.25,489.16L125.51,487.28L122.56,484.30L122.25,481.89L123.68,480.63L131.39,481.58L133.53,478.50L135.91,480.63L136.69,479.70L133.87,477.19L130.80,479.86L128.36,479.52L128.89,474.05L126.29,478.97L121.73,480.57L119.44,478.48L117.60,474.78L118.24,470.90L120.56,471.54L120.56,469.92L126.75,465.53L115.61,472.08L113.72,468.07L118.80,455.57L124.12,459.63L124.97,465.73L128.38,463.13L128.61,460.49L134.59,460.55L137.62,462.22L140.87,459.68L143.66,459.57L154.21,466.99L153.04,470.28L153.88,473.06L159.90,472.33L166.61,466.49L169.02,462.57L169.01,460.78L163.46,455.21L161.32,449.28L162.11,446.35L164.72,445.50L168.05,448.22L171.13,445.07L183.68,438.75L188.20,438.56L189.61,436.83L193.28,455.76L190.84,457.92L190.17,465.34L186.86,470.92L183.73,484.32L180.45,487.19L181.39,490.27L174.04,491.84L172.01,495.22L168.42,495.72L168.46,498.89L163.26,500.31L161.20,502.52L156.54,500.00L153.21,503.10L143.77,506.17L134.45,501.18Z"><title>Delta</title></path>
<path data-code="NG-BY" data-name="Bayelsa" d="M191.70,526.09L190.45,533.82L189.52,528.78L188.59,529.75L190.42,536.76L189.65,537.95L186.71,537.78L185.26,529.92L183.89,530.06L185.61,532.69L184.75,537.87L178.62,537.30L171.19,539.81L170.12,538.53L174.01,533.20L170.85,535.08L169.92,530.38L170.23,534.42L168.07,532.88L169.36,535.43L167.75,538.82L168.77,539.90L163.31,540.47L163.70,536.04L161.44,533.96L161.73,539.69L158.79,538.58L158.41,534.14L157.80,535.70L156.87,535.08L157.69,537.41L156.49,537.85L152.92,535.46L152.84,533.20L151.63,534.14L149.06,532.31L139.29,522.24L139.49,519.74L135.14,514.33L136.69,515.27L131.30,501.00L145.26,506.10L154.47,502.42L156.54,500.00L161.20,502.52L163.26,500.31L168.46,498.89L168.42,495.72L172.01,495.22L174.04,491.84L180.65,490.70L181.29,489.28L185.48,489.67L187.04,491.98L181.14,498.03L176.42,515.71L179.14,518.03L179.40,520.29L184.56,518.74L187.36,520.53L188.42,523.70L191.70,526.09Z"><title>Bayelsa</title></path>
<path data-code="NG-RI" data-name="Rivers" d="M228.47,520.98L228.36,525.64L227.03,526.95L223.88,527.74L217.02,525.64L216.57,527.53L219.38,528.94L217.02,530.06L212.91,525.16L212.38,522.53L210.31,522.79L207.53,518.43L207.01,520.15L211.97,525.42L210.96,527.53L212.64,529.41L209.39,532.54L207.84,530.06L207.84,532.88L206.27,533.20L204.37,526.62L205.33,523.45L206.27,523.73L204.44,520.28L203.30,521.45L202.58,519.68L203.79,525.33L199.86,522.62L201.03,526.90L203.51,526.76L203.17,531.00L205.28,535.41L198.83,535.42L196.05,528.32L197.26,524.38L195.35,523.41L193.85,519.03L194.54,515.73L191.38,514.93L193.94,522.80L196.36,525.64L195.03,527.54L198.41,536.68L191.38,536.96L192.31,525.33L191.70,526.09L188.42,523.70L187.36,520.53L184.56,518.74L179.40,520.29L179.14,518.03L176.42,515.71L181.14,498.03L187.04,491.98L185.48,489.67L181.29,489.28L180.45,487.19L183.73,484.32L186.39,474.12L189.25,475.44L187.62,485.29L190.88,484.99L192.75,486.97L192.20,493.81L198.39,498.37L215.68,498.38L216.34,502.30L211.68,509.56L212.28,513.13L223.75,513.66L226.78,515.71L228.47,520.98ZM228.81,531.00L230.78,530.99L223.85,533.28L219.55,532.11L222.62,530.38L225.57,531.60L228.81,531.00ZM216.71,530.66L219.35,530.66L217.80,534.20L210.53,535.01L214.68,528.78L216.71,530.66Z"><title>Rivers</title></path>
<path data-code="NG-AK" data-name="Akwa Ibom" d="M263.19,517.32L265.78,524.52L262.70,528.05L251.07,527.59L237.94,529.08L237.05,529.75L238.60,530.06L236.16,530.40L228.73,528.36L229.26,520.60L225.46,511.98L225.26,508.16L227.75,505.01L228.09,493.31L233.75,492.20L232.44,490.14L233.33,483.85L236.25,483.26L244.95,490.56L243.68,492.01L245.84,495.52L248.51,495.06L251.70,496.64L253.96,507.98L263.19,517.32Z"><title>Akwa Ibom</title></path>
<path data-code="NG-AB" data-name="Abia" d="M244.08,475.63L247.10,490.97L240.04,487.26L236.25,483.26L233.33,483.85L232.44,490.14L233.75,492.20L228.09,493.31L227.75,505.01L225.26,508.16L226.78,515.71L219.61,512.90L212.28,513.13L211.68,509.56L216.34,502.30L215.68,498.38L222.64,482.38L221.86,468.65L215.61,464.79L217.72,462.08L220.77,460.46L225.51,460.38L228.47,462.64L228.13,468.28L230.83,469.64L237.42,469.72L244.08,475.63Z"><title>Abia</title></path>
<path data-code="NG-EB" data-name="Ebonyi" d="M262.86,430.38L267.74,437.62L269.52,442.98L266.70,444.58L266.84,450.58L262.39,455.91L260.79,460.58L258.27,459.99L254.06,463.66L251.99,461.64L248.47,461.74L248.11,466.38L244.08,475.63L237.42,469.72L230.83,469.64L228.13,468.28L228.47,462.64L230.73,461.92L234.49,464.70L235.71,464.07L235.49,459.36L237.49,456.77L235.58,448.78L237.60,439.42L235.82,433.55L241.80,432.46L243.28,435.62L246.40,437.56L249.56,429.45L255.02,428.77L259.50,425.05L262.86,430.38Z"><title>Ebonyi</title></path>
<path data-code="NG-AN" data-name="Anambra" d="M186.39,474.12L190.17,465.34L190.84,457.92L193.28,455.76L189.61,436.83L193.37,436.87L194.86,435.37L196.93,428.71L200.01,425.76L200.36,428.52L208.82,430.74L205.27,441.17L209.07,443.45L210.90,447.67L210.04,450.47L212.52,450.81L215.31,458.34L220.77,460.46L215.61,464.79L203.64,465.66L199.55,472.33L192.29,472.99L189.25,475.44L186.39,474.12Z"><title>Anambra</title></path>
<path data-code="NG-ED" data-name="Edo" d="M189.61,436.83L188.20,438.56L183.68,438.75L171.13,445.07L168.05,448.22L164.72,445.50L162.11,446.35L161.32,449.28L163.46,455.21L169.01,460.78L169.02,462.57L162.22,470.64L155.46,473.29L153.88,473.06L153.04,470.28L154.21,466.99L143.66,459.57L140.87,459.68L137.62,462.22L134.59,460.55L128.61,460.49L128.38,463.13L124.97,465.73L124.12,459.63L112.64,448.34L119.06,437.79L116.87,433.55L117.20,429.98L122.61,421.69L136.05,421.35L138.13,423.01L136.92,425.46L138.11,428.47L141.36,426.51L145.94,426.86L149.36,419.27L149.23,414.06L153.33,405.01L156.78,401.75L155.96,392.88L160.21,389.15L163.96,391.27L164.93,395.88L170.90,394.21L174.84,398.09L178.55,397.84L182.11,403.97L187.42,402.67L190.54,405.36L191.55,408.64L188.37,422.65L189.61,436.83Z"><title>Edo</title></path>
<path data-code="NG-BA" data-name="Bauchi" d="M385.62,296.71L379.50,296.47L365.72,300.83L334.52,285.20L331.85,287.00L333.78,292.62L329.66,294.77L328.31,297.59L317.75,299.00L308.53,296.90L302.21,290.17L304.17,284.80L303.00,277.90L293.17,276.66L292.10,264.55L290.48,262.56L285.22,262.30L281.21,258.26L286.59,247.22L282.90,238.09L283.06,230.81L284.43,227.90L288.76,227.00L296.41,218.20L299.45,216.81L300.90,217.64L307.92,216.13L313.47,218.06L319.18,217.80L323.25,220.87L331.72,219.79L334.71,224.39L335.37,232.86L337.96,233.92L345.12,233.39L348.46,234.85L349.69,234.07L350.13,229.31L356.70,226.40L358.00,223.64L340.34,219.75L334.10,210.68L330.94,209.68L332.63,205.37L331.18,198.98L325.24,199.59L323.31,198.30L324.27,194.90L326.69,192.70L330.51,192.39L347.34,185.48L353.35,166.38L358.18,165.26L361.96,166.75L367.95,162.80L374.25,169.14L378.76,191.98L384.21,205.38L382.91,216.36L386.30,218.26L375.65,227.69L370.87,229.89L364.74,245.04L369.59,247.12L371.49,253.90L377.65,257.26L378.55,269.10L373.38,271.73L373.12,273.26L384.36,282.87L389.06,295.61L388.77,296.71L385.62,296.71Z"><title>Bauchi</title></path>
<path data-code="NG-PL" data-name="Plateau" d="M365.72,300.83L367.17,311.83L369.60,318.81L369.92,326.18L368.36,329.14L361.18,332.69L350.69,335.27L343.82,343.54L332.04,352.42L328.75,353.36L322.87,353.43L321.21,351.03L313.45,347.22L303.58,348.72L296.54,347.94L292.77,345.94L289.73,336.15L297.38,327.03L298.28,324.11L296.22,322.25L287.26,322.54L284.38,317.18L279.55,314.23L280.68,308.81L274.98,301.39L274.97,294.85L278.26,289.72L279.55,269.95L284.59,265.17L285.22,262.30L290.48,262.56L293.00,267.07L293.17,276.66L303.00,277.90L304.17,284.80L302.21,290.17L308.53,296.90L317.75,299.00L328.31,297.59L329.66,294.77L333.78,292.62L331.85,287.00L334.52,285.20L365.72,300.83Z"><title>Plateau</title></path>
<path data-code="NG-NA" data-name="Nassarawa" d="M322.87,353.43L319.79,356.61L310.16,355.00L308.74,358.63L311.17,361.69L311.72,366.90L302.65,373.49L294.01,367.01L287.37,367.23L274.92,363.44L268.94,364.12L266.42,366.27L265.69,369.51L268.88,377.53L268.58,379.89L262.92,376.19L248.18,371.19L233.14,368.18L217.23,368.27L201.48,375.33L204.15,362.09L201.77,355.19L203.28,350.65L216.22,347.91L224.04,342.78L229.72,325.44L230.71,313.18L233.93,308.77L241.30,312.13L244.61,308.19L247.39,307.75L249.25,311.33L252.49,313.59L254.14,323.41L257.74,321.43L261.57,316.60L267.12,318.30L271.55,323.67L273.32,323.45L279.55,314.23L284.38,317.18L287.26,322.54L296.22,322.25L298.28,324.11L297.38,327.03L289.73,336.15L292.77,345.94L299.31,348.69L313.45,347.22L321.21,351.03L322.87,353.43Z"><title>Nassarawa</title></path>
<path data-code="NG-GO" data-name="Gombe" d="M388.77,296.71L384.36,282.87L373.12,273.26L373.38,271.73L378.55,269.10L377.65,257.26L371.49,253.90L369.59,247.12L364.74,245.04L370.87,229.89L375.65,227.69L386.30,218.26L392.59,216.60L401.71,221.88L412.13,233.53L412.15,248.93L412.55,250.29L417.45,250.43L418.01,254.43L414.55,261.88L416.91,265.63L422.25,268.70L425.31,273.63L428.53,275.66L428.30,285.72L425.91,289.02L413.67,295.78L388.77,296.71Z"><title>Gombe</title></path>
<path data-code="NG-EN" data-name="Enugu" d="M226.66,412.06L231.62,420.57L235.04,422.65L239.85,420.99L241.73,421.91L243.37,425.94L241.80,432.46L235.82,433.55L237.60,439.42L235.58,448.78L237.49,456.77L235.49,459.36L235.71,464.07L234.49,464.70L225.51,460.38L216.29,459.49L212.52,450.81L210.04,450.47L210.90,447.67L209.07,443.45L204.87,440.05L208.62,433.83L208.82,430.74L200.36,428.52L200.01,425.76L202.73,422.36L205.22,425.66L218.41,413.05L222.94,410.53L226.66,412.06Z"><title>Enugu</title></path>
<path data-code="NG-KO" data-name="Kogi" d="M234.47,368.38L234.91,375.76L238.48,380.75L239.81,394.99L244.14,396.37L239.89,407.62L233.87,410.92L233.01,414.82L231.80,415.20L225.16,410.66L218.41,413.05L205.22,425.66L202.73,422.36L201.22,423.33L196.93,428.71L194.86,435.37L193.37,436.87L189.61,436.83L188.37,422.65L191.55,408.64L190.54,405.36L187.42,402.67L182.11,403.97L178.55,397.84L174.84,398.09L170.90,394.21L164.93,395.88L163.96,391.27L157.37,386.05L155.41,380.72L148.32,380.14L141.91,376.43L141.58,372.50L143.97,369.23L137.05,369.58L137.56,363.61L132.69,360.03L129.41,355.08L136.96,345.19L145.60,349.91L162.86,352.09L166.79,338.53L168.72,336.04L171.50,335.73L175.73,338.29L180.03,349.73L190.28,360.06L196.79,350.88L203.28,350.65L201.77,355.19L204.15,362.09L201.48,375.33L217.23,368.27L234.47,368.38Z"><title>Kogi</title></path>
<path data-code="NG-OS" data-name="Osun" d="M76.26,412.78L74.94,408.77L71.73,410.32L74.83,393.70L69.78,386.77L72.15,376.55L75.21,377.37L80.18,371.67L86.37,376.42L93.05,371.98L93.43,367.99L99.31,368.15L109.01,365.82L110.90,365.87L113.22,368.35L116.49,368.16L115.46,371.89L110.23,376.77L109.61,386.68L113.16,398.27L108.97,399.91L107.65,410.97L99.64,409.26L93.68,416.02L84.74,416.38L81.91,411.36L76.26,412.78Z"><title>Osun</title></path>
<path data-code="NG-IM" data-name="Imo" d="M189.24,485.40L187.32,484.27L189.25,475.44L192.29,472.99L199.55,472.33L203.64,465.66L215.61,464.79L221.86,468.65L222.64,482.38L215.68,498.38L198.39,498.37L191.77,493.32L192.75,486.97L190.88,484.99L189.24,485.40Z"><title>Imo</title></path>
<path data-code="NG-EK" data-name="Ekiti" d="M137.89,366.36L137.05,369.58L143.97,369.23L141.58,372.50L141.91,376.43L150.37,380.76L146.02,382.60L141.86,387.02L137.97,398.56L133.19,402.62L130.64,401.62L128.57,396.20L118.08,395.32L113.19,396.43L109.61,386.68L110.23,376.77L115.46,371.89L116.49,368.16L118.18,369.65L121.01,368.81L126.93,371.06L129.62,370.74L131.40,367.02L137.89,366.36Z"><title>Ekiti</title></path>
<path data-code="NG-KD" data-name="Kaduna" d="M283.23,252.50L281.21,258.26L285.22,262.30L284.59,265.17L279.55,269.95L278.26,289.72L274.97,294.85L274.98,301.39L280.68,308.81L280.48,311.61L275.26,321.49L271.55,323.67L267.12,318.30L261.57,316.60L257.74,321.43L254.14,323.41L252.49,313.59L249.25,311.33L247.39,307.75L244.61,308.19L241.30,312.13L233.93,308.77L231.22,309.67L228.76,307.50L226.33,310.23L216.14,310.08L214.56,302.81L219.60,296.70L217.66,292.13L214.12,289.61L217.71,287.77L216.93,278.75L214.74,277.21L204.66,276.93L199.38,272.89L206.13,267.01L207.33,263.99L201.76,260.87L202.28,255.57L199.78,253.45L197.47,253.72L196.80,249.10L193.75,248.43L191.47,251.60L184.71,253.16L181.49,250.67L178.28,251.38L168.36,260.92L166.81,261.13L163.15,255.56L164.66,249.11L164.46,239.53L169.01,236.79L173.57,230.32L180.42,231.36L190.05,228.29L193.14,220.41L198.91,214.98L205.46,217.05L205.86,218.99L203.96,222.16L212.73,226.64L215.33,224.65L215.25,219.70L220.34,220.31L222.59,216.52L225.44,214.86L230.49,216.28L234.23,219.19L237.90,217.69L239.47,215.30L242.60,215.03L247.92,211.08L254.30,209.04L255.91,209.80L254.79,214.68L255.71,216.18L262.96,220.97L269.56,223.08L274.21,228.03L274.94,243.43L271.41,246.90L273.89,248.97L277.54,249.43L280.40,252.25L283.23,252.50Z"><title>Kaduna</title></path>
<path data-code="NG-KN" data-name="Kano" d="M305.15,216.07L296.41,218.20L288.76,227.00L284.43,227.90L283.06,230.81L282.90,238.09L286.59,247.22L283.23,252.50L273.89,248.97L271.41,246.90L274.94,243.43L274.21,228.03L269.56,223.08L262.96,220.97L255.71,216.18L254.79,214.68L255.91,209.80L254.30,209.04L247.92,211.08L242.60,215.03L239.47,215.30L236.35,212.66L236.71,205.90L244.80,201.91L242.05,189.81L242.42,173.65L253.87,168.30L258.11,160.36L262.44,159.72L266.04,166.35L268.70,161.19L270.98,160.00L280.38,161.11L280.92,165.70L284.33,167.92L285.22,172.16L290.63,173.34L292.52,175.69L292.09,183.03L296.29,183.04L296.65,185.32L303.18,184.48L304.24,190.11L300.84,198.93L305.27,199.93L306.95,203.54L310.87,206.31L306.44,210.97L305.15,216.07Z"><title>Kano</title></path>
<path data-code="NG-FC" data-name="Federal Capital Territory" d="M203.28,350.65L194.72,350.64L193.34,347.87L193.12,313.81L202.60,312.97L211.71,319.16L218.37,309.98L226.33,310.23L228.76,307.50L232.65,309.37L229.66,318.10L229.72,325.44L227.59,334.71L224.04,342.78L216.22,347.91L203.28,350.65Z"><title>Federal Capital Territory</title></path>
  </g>
</svg>
