<?xml version="1.0" encoding="UTF-8"?>
<svg xmlns="http://www.w3.org/2000/svg" viewBox="0 0 560 640" class="pref-muni-svg" role="img" aria-label="行政区分">
  <g class="pref-muni-svg__paths" fill="#eaf2fb" stroke="#5b7fa8" stroke-width="0.6" stroke-linejoin="round">
<path data-code="NO-19" data-name="Troms" d="M317.57,62.14L315.23,62.21L316.30,62.73L316.37,63.21L315.84,63.88L314.60,64.43L315.88,64.72L314.64,65.30L310.45,64.59L308.68,64.61L307.75,64.28L306.64,64.44L305.95,64.07L300.77,64.31L299.81,64.58L299.44,64.54L299.64,64.40L299.33,64.20L299.63,63.96L301.26,63.66L301.70,63.96L302.05,64.00L301.74,63.74L302.42,63.58L303.36,63.85L304.34,63.88L303.51,63.74L303.10,63.49L302.35,63.44L303.36,63.16L304.81,63.47L304.81,63.33L304.61,63.27L303.39,63.09L304.47,62.80L305.12,62.90L305.00,62.80L304.47,62.71L304.53,62.61L303.21,62.77L303.69,62.49L303.49,62.33L304.34,61.89L304.13,61.82L304.25,61.77L306.47,61.60L306.10,61.49L306.26,61.25L305.73,61.22L305.80,60.99L306.41,60.68L306.60,60.43L306.48,60.20L306.97,60.06L307.50,60.32L307.42,60.50L308.05,60.60L308.04,61.22L308.32,60.63L308.49,60.93L308.89,61.09L308.94,60.98L308.81,60.91L309.09,60.81L310.34,60.99L310.07,60.80L308.77,60.61L308.38,60.32L307.83,60.21L307.98,60.09L307.92,59.93L309.62,59.76L309.58,59.99L310.32,60.33L310.34,60.48L311.98,60.83L311.85,60.97L311.08,61.14L311.41,61.05L311.50,61.15L311.40,61.19L311.63,61.28L312.57,61.25L312.29,61.11L312.30,60.81L311.85,60.56L310.82,60.53L310.28,60.17L310.30,59.97L310.59,59.85L311.15,59.77L311.46,59.90L311.31,59.69L310.25,59.82L310.03,59.47L310.66,59.11L310.72,58.91L311.40,58.72L313.80,58.60L313.31,59.17L313.55,59.35L313.11,59.91L313.20,60.19L312.66,60.46L313.37,60.26L313.62,59.48L315.28,59.61L314.13,59.42L313.98,59.03L314.80,58.42L314.63,58.79L314.80,58.76L315.53,57.96L315.54,58.25L315.68,58.35L315.68,58.05L315.99,57.84L316.65,58.20L316.20,59.17L316.49,59.38L316.46,59.59L316.00,59.72L316.14,59.80L315.98,59.92L316.02,60.07L315.74,60.15L315.53,60.49L314.69,60.75L314.78,60.81L314.40,61.07L314.54,61.10L315.09,60.76L316.02,60.50L316.94,59.64L318.61,60.02L316.98,59.42L317.21,59.06L316.94,58.79L318.30,58.61L318.48,58.43L318.33,58.25L319.68,57.93L318.79,58.38L319.06,58.41L319.00,58.53L319.36,58.67L319.49,58.63L319.25,58.50L320.03,58.27L320.08,58.37L319.84,58.57L320.07,58.53L320.27,58.41L320.21,58.12L320.73,58.12L320.21,58.00L320.57,57.60L321.77,57.74L321.99,57.90L321.87,58.03L322.00,58.10L322.67,58.24L323.99,58.85L323.66,58.85L323.76,58.89L324.20,58.85L324.01,58.65L323.38,58.44L323.84,58.41L323.44,58.25L323.37,57.95L323.44,57.77L323.87,57.76L323.99,57.98L323.99,57.62L324.27,57.56L323.16,57.64L322.85,57.52L323.78,57.41L324.21,57.14L322.50,57.42L322.02,57.24L321.43,57.24L321.23,57.01L321.50,56.89L320.67,56.92L320.21,56.73L320.32,56.66L322.04,56.83L323.20,57.22L324.26,56.97L325.20,57.92L326.26,58.08L326.18,58.31L326.38,58.43L326.12,58.62L326.58,59.05L327.95,59.36L327.49,59.61L327.24,59.93L325.27,60.15L325.37,60.49L326.42,61.25L326.37,61.61L326.11,61.80L323.52,62.01L322.24,61.10L320.67,60.97L319.71,61.21L319.42,61.47L319.97,61.91L319.71,62.11L318.12,61.83L317.57,62.14ZM301.53,63.15L301.95,63.37L300.47,63.53L301.30,62.96L301.53,63.15ZM302.22,62.80L302.30,62.67L302.73,62.69L303.27,62.93L302.30,63.27L301.67,62.71L302.56,62.96L302.22,62.80ZM296.38,62.51L296.46,62.83L296.22,63.28L295.73,63.53L296.60,63.27L296.73,63.48L296.50,63.77L295.79,64.01L295.80,64.33L295.63,64.48L295.91,64.38L295.98,64.11L296.16,64.00L296.82,63.80L297.17,63.98L296.95,63.64L297.76,63.53L297.22,63.23L297.24,63.09L297.73,62.96L298.07,63.05L297.94,62.76L298.77,63.00L298.85,63.16L299.30,63.12L299.02,63.28L299.30,63.37L299.16,63.45L299.17,63.59L299.39,63.66L299.20,63.78L299.31,63.90L299.01,64.13L299.03,64.25L297.90,64.02L296.50,64.17L295.20,64.80L295.34,64.64L295.18,64.45L295.36,64.08L295.82,63.75L295.55,63.46L296.11,63.07L296.28,62.83L296.23,62.61L296.38,62.51ZM299.34,62.46L299.49,62.55L299.44,62.78L298.94,62.84L297.97,62.46L298.18,62.33L299.34,62.46ZM306.10,60.29L306.19,60.66L305.44,60.78L305.45,61.00L305.64,61.10L305.24,61.16L305.83,61.38L305.73,61.45L303.49,61.60L303.67,61.38L303.41,61.39L302.14,61.93L302.01,62.08L302.25,62.11L301.87,62.26L301.48,62.23L301.91,61.98L301.79,61.92L300.50,62.06L300.27,61.90L300.47,61.76L301.54,61.70L301.55,61.57L302.07,61.38L300.84,61.41L300.93,61.32L300.75,61.29L301.95,61.13L301.78,61.15L301.69,60.97L301.47,61.07L301.21,61.03L301.33,60.94L300.87,60.94L301.88,60.88L301.48,60.72L301.79,60.68L301.67,60.64L300.75,60.65L300.96,60.49L302.53,60.49L303.09,60.62L302.56,60.40L303.52,60.33L302.38,60.21L302.13,59.99L302.71,60.18L302.65,60.09L303.05,60.09L302.65,59.90L302.83,59.83L304.19,60.18L303.43,59.76L303.39,59.54L304.25,59.96L304.41,59.91L304.25,59.54L304.68,59.82L305.15,59.60L305.30,59.83L305.03,60.24L305.53,59.90L306.01,60.02L305.71,60.09L305.72,60.24L305.52,60.33L305.80,60.42L305.90,60.28L306.10,60.29ZM310.27,58.49L310.54,58.79L309.35,59.19L309.24,59.33L309.54,59.52L309.24,59.67L306.66,59.86L305.76,59.58L305.92,59.39L306.85,59.41L307.09,59.58L307.58,59.35L307.09,59.36L306.62,59.04L306.75,59.01L308.63,59.07L307.37,58.94L307.25,58.78L307.50,58.63L308.04,58.85L308.29,58.64L308.72,58.60L308.77,59.02L309.21,59.14L309.10,59.05L309.33,58.69L308.81,58.40L308.84,58.22L309.48,58.22L309.64,58.31L309.55,58.41L310.27,58.49ZM322.27,57.93L322.57,57.93L322.39,58.03L322.27,57.93ZM319.08,57.68L319.71,57.65L318.78,57.98L318.39,57.93L318.19,57.70L318.64,57.49L319.08,57.68ZM319.45,57.41L319.48,57.52L319.06,57.58L319.45,57.41ZM313.06,57.62L313.29,57.62L313.35,57.76L312.71,57.92L311.96,58.51L310.83,58.68L309.06,57.94L309.76,57.95L309.98,57.84L309.58,57.78L309.58,57.63L310.41,57.52L310.61,57.62L310.82,57.56L310.57,57.33L311.21,57.24L311.33,57.40L311.74,57.33L311.59,57.55L312.04,57.73L312.69,57.43L312.86,57.48L312.90,57.73L313.06,57.62ZM318.33,57.27L318.24,57.43L317.87,57.37L317.48,57.49L317.43,57.21L317.05,57.43L316.52,57.22L316.74,56.83L317.29,56.62L318.07,56.60L318.48,56.73L318.24,57.16L318.33,57.27ZM314.69,57.02L315.46,57.18L314.67,57.42L313.77,57.39L313.39,56.83L312.69,56.54L313.32,56.36L313.94,56.91L314.28,56.71L314.69,57.02ZM317.93,58.21L317.95,58.54L317.50,58.65L317.14,58.52L317.30,58.18L318.02,58.14L317.93,58.21ZM313.93,57.68L314.13,57.82L313.52,58.32L312.23,58.43L312.74,58.04L313.93,57.68ZM308.78,57.57L309.03,57.16L309.30,57.23L309.41,57.42L309.78,57.21L310.17,57.36L308.94,57.77L308.78,57.57ZM318.79,57.33L318.48,57.36L318.34,57.15L318.62,57.03L318.88,57.20L318.79,57.33ZM312.70,57.26L311.78,57.11L312.11,56.95L312.85,57.18L312.70,57.26ZM311.37,56.77L311.30,57.07L311.06,57.16L310.26,56.99L310.72,56.97L310.90,56.77L310.69,56.60L311.04,56.52L311.23,56.54L311.37,56.77ZM303.75,61.89L303.86,61.90L303.17,62.33L302.84,62.30L303.18,61.95L303.75,61.89Z"><title>Troms</title></path>
<path data-code="NO-18" data-name="Nordland" d="M306.64,64.44L306.49,64.53L306.40,65.10L306.63,66.01L305.43,67.05L302.74,66.44L302.28,66.74L300.32,67.40L299.53,68.55L298.97,68.97L297.61,69.25L297.37,69.59L298.77,70.62L298.67,71.30L296.97,72.06L295.31,73.39L294.22,73.89L294.47,74.89L292.55,75.45L290.24,75.58L290.73,77.07L290.33,77.53L290.11,78.62L290.12,79.30L289.52,79.66L289.30,80.24L283.96,80.22L283.05,80.63L283.02,80.81L282.24,81.00L279.73,80.77L279.69,80.54L281.68,80.16L281.53,80.13L282.38,79.78L283.05,79.26L281.08,80.10L280.48,80.07L281.07,79.85L280.42,79.72L282.02,79.60L280.78,79.51L279.93,79.69L280.36,79.37L280.85,79.32L280.98,79.22L280.67,79.28L281.07,79.06L281.93,79.25L281.28,79.09L280.98,78.71L281.53,78.77L282.02,79.06L281.65,78.77L282.33,78.65L281.56,78.65L281.78,78.55L281.36,78.40L281.59,78.33L281.41,78.05L281.13,78.41L280.91,78.36L281.22,78.08L280.79,78.33L280.61,78.22L280.70,78.01L280.42,77.98L280.46,77.76L281.05,77.38L281.68,77.60L281.56,77.76L282.36,77.82L281.90,77.72L281.33,77.29L281.72,77.04L282.05,77.13L281.94,76.91L281.57,76.92L281.89,76.49L282.64,76.31L283.50,76.50L284.11,76.82L283.87,76.42L282.98,76.18L283.50,75.77L282.02,75.96L281.84,75.86L281.91,75.81L282.73,75.53L283.72,75.48L284.69,75.15L285.69,75.05L285.91,75.14L285.53,75.30L285.93,75.30L285.73,75.64L286.19,75.43L287.01,75.48L287.01,75.36L286.06,75.30L286.45,75.05L286.95,75.07L286.73,75.23L287.75,75.04L288.42,74.69L288.40,74.57L288.26,74.60L287.40,74.92L286.71,74.79L286.10,75.04L285.90,74.94L286.12,74.88L285.90,74.82L283.50,75.33L283.46,75.24L284.05,74.96L285.72,74.73L285.13,74.69L285.35,74.60L284.96,74.59L284.72,74.43L284.84,74.64L284.34,74.78L283.93,74.76L283.99,74.63L283.49,74.68L283.32,74.51L283.95,74.37L284.09,74.25L284.02,74.14L283.78,74.06L284.05,74.00L283.19,73.74L283.78,73.65L284.26,73.78L284.33,74.06L284.95,74.05L285.10,74.00L284.52,74.00L284.61,73.80L284.48,73.74L285.52,73.62L286.33,73.78L285.38,73.55L286.02,73.35L286.58,73.36L285.58,73.36L285.22,73.56L284.39,73.62L284.24,73.59L284.44,73.32L285.13,73.27L284.09,73.15L284.18,73.08L285.78,73.21L285.48,73.04L284.33,72.86L286.43,72.96L286.55,72.92L286.46,72.86L287.32,72.76L285.90,72.86L285.78,72.81L285.83,72.68L286.70,72.64L285.60,72.54L286.07,72.42L287.78,72.51L286.41,72.30L286.46,72.19L286.15,72.00L285.66,71.97L285.76,71.90L287.69,71.56L287.32,71.75L287.63,71.88L287.50,71.85L288.01,71.63L287.88,71.44L288.08,71.26L288.49,71.67L288.83,71.62L289.03,71.26L290.19,71.32L290.37,71.46L290.42,71.27L289.01,71.15L289.44,70.80L289.84,70.77L289.71,71.03L289.88,70.83L290.85,70.80L291.18,70.97L291.06,70.80L290.12,70.71L290.52,70.60L290.74,70.68L292.21,70.55L291.81,70.83L292.28,71.08L292.00,70.83L292.73,70.56L294.03,70.82L294.00,71.09L294.56,71.22L294.28,71.09L294.46,70.83L294.00,70.61L295.63,70.74L295.48,70.55L294.14,70.45L293.60,70.59L293.48,70.55L293.84,70.42L292.59,70.40L292.92,70.30L293.05,70.11L292.26,70.29L291.29,70.30L291.57,70.36L290.84,70.54L290.58,70.55L290.95,70.27L289.29,70.42L290.52,69.80L290.40,69.70L290.61,69.60L291.41,69.59L291.51,69.67L291.38,69.76L291.52,69.79L292.53,69.48L291.51,69.48L291.60,69.41L291.08,69.28L292.57,68.88L293.02,69.07L292.34,68.94L292.25,69.00L292.55,69.16L292.35,69.29L291.54,69.35L292.38,69.38L293.17,69.16L293.26,69.28L292.99,69.32L293.08,69.38L292.92,69.60L293.39,69.33L294.23,69.31L294.77,69.92L295.20,70.14L295.02,70.25L295.26,70.27L295.45,70.14L294.62,69.57L294.92,69.41L294.68,69.38L294.99,69.19L296.34,68.97L295.31,68.99L294.55,69.18L293.38,69.10L293.33,68.96L293.48,68.88L293.39,68.84L293.54,68.80L294.40,68.88L294.13,68.63L293.92,68.75L293.11,68.69L293.82,68.37L293.54,68.34L293.66,68.22L295.26,68.40L294.12,68.15L294.99,68.08L295.90,68.41L296.06,68.34L295.14,68.02L295.42,67.86L294.98,67.97L294.15,67.86L294.31,67.70L294.25,67.57L294.12,67.74L293.97,67.55L294.03,67.83L293.12,68.24L291.57,68.57L291.08,68.50L291.75,68.31L291.38,68.18L292.83,68.12L292.28,67.99L292.46,67.93L291.54,68.02L291.55,67.89L291.31,67.92L291.20,67.83L291.29,67.77L292.77,67.61L291.63,67.64L292.30,67.41L293.35,67.51L293.20,67.70L293.66,67.43L294.48,67.31L294.75,67.31L294.57,67.50L294.70,67.61L294.71,67.43L295.02,67.25L295.69,67.15L296.17,67.39L296.66,66.89L297.08,66.85L296.13,66.76L296.34,66.62L296.25,66.60L295.85,66.77L295.01,66.75L294.76,66.58L294.03,66.82L294.28,66.88L294.09,66.95L293.57,66.76L294.39,66.35L294.59,66.31L294.68,66.50L295.14,66.30L295.20,66.15L295.60,66.28L295.45,66.34L295.62,66.45L295.08,66.50L295.13,66.68L296.10,66.48L296.46,66.31L296.22,66.06L296.54,66.07L296.57,65.82L296.71,65.77L296.97,65.80L297.08,66.00L296.92,66.09L296.99,66.18L297.27,66.19L297.11,66.41L297.17,66.66L296.99,66.79L297.67,67.01L297.86,67.46L299.11,67.83L298.87,67.77L298.84,67.61L298.01,67.44L298.04,67.04L297.73,66.91L298.03,66.90L298.65,67.36L298.90,67.39L298.80,67.26L298.90,67.20L298.30,66.91L299.24,67.11L298.88,67.03L299.05,66.85L298.44,66.79L298.55,66.65L298.88,66.49L299.78,66.69L299.89,66.60L299.05,66.38L298.10,66.50L298.16,66.41L297.88,66.31L298.93,66.22L298.65,66.06L299.45,66.15L298.83,65.87L297.57,65.99L298.40,65.82L297.26,65.62L297.57,65.46L298.06,65.51L299.08,65.75L299.31,65.85L299.33,66.03L300.41,66.31L299.55,65.91L299.35,65.65L297.79,65.30L299.92,65.05L300.71,65.21L300.50,65.43L301.86,65.20L302.30,65.61L302.78,65.74L302.69,65.85L302.79,66.15L302.93,66.08L302.87,65.88L303.18,65.84L302.29,65.36L302.22,65.20L302.41,65.05L303.88,65.27L302.93,65.02L303.72,64.95L305.21,65.11L304.04,64.84L303.39,64.86L303.75,64.48L301.50,64.92L301.30,64.86L301.71,64.71L301.24,64.57L300.61,64.85L299.09,64.89L298.89,64.57L298.98,64.48L299.23,64.42L299.81,64.58L300.77,64.31L305.95,64.07L306.64,64.44ZM291.73,65.90L291.39,65.79L292.04,65.53L292.09,65.64L291.73,65.90ZM288.71,65.47L289.02,65.62L288.71,65.78L288.47,65.56L287.99,65.48L288.34,65.37L288.71,65.47ZM287.94,65.71L288.20,65.62L288.53,65.75L287.96,66.09L286.80,66.19L287.12,66.37L286.80,66.45L286.57,66.36L286.46,66.60L286.21,66.60L285.99,66.37L285.75,66.46L285.86,66.55L285.69,66.72L285.37,66.60L285.97,66.19L285.47,66.31L285.63,66.19L285.47,66.15L285.69,66.13L285.47,66.06L286.09,65.88L285.57,65.81L286.18,65.57L286.87,65.69L287.24,65.42L287.74,65.37L287.85,65.57L287.67,65.68L287.94,65.71ZM291.24,64.64L291.04,64.66L290.53,64.35L290.82,64.21L292.31,64.37L291.82,64.64L291.24,64.64ZM279.84,80.20L280.21,80.26L279.53,80.51L278.73,80.39L279.37,80.16L279.24,80.14L279.25,79.95L279.58,79.79L280.05,80.01L279.84,80.20ZM280.85,78.80L281.10,78.93L280.34,79.24L279.77,79.27L279.94,79.47L279.07,79.75L279.37,79.37L279.19,79.34L279.37,79.12L279.77,79.03L279.55,78.94L280.30,78.61L280.24,78.48L279.71,78.58L279.87,78.52L279.74,78.52L279.99,78.12L280.61,78.43L280.85,78.80ZM278.85,77.59L278.45,78.05L277.74,77.92L278.04,77.57L278.85,77.59ZM281.96,76.16L282.89,76.08L280.92,76.74L280.76,76.75L280.98,76.62L280.48,76.65L281.03,76.20L281.64,76.05L281.75,76.08L281.59,76.27L281.96,76.16ZM281.41,75.80L280.15,76.08L280.76,75.75L280.36,75.77L281.41,75.42L280.76,75.39L281.30,75.14L281.50,75.21L281.57,75.43L281.28,75.55L281.78,75.67L281.41,75.80ZM289.04,70.77L288.68,71.15L288.78,71.39L288.68,71.52L288.26,71.26L287.78,71.18L288.07,70.93L288.50,71.05L289.04,70.77ZM283.56,66.47L284.02,66.53L283.75,66.66L283.93,66.69L283.86,66.75L283.54,66.81L283.82,66.79L283.88,67.18L283.21,67.07L283.14,67.20L283.53,67.32L283.38,67.48L282.36,67.80L283.22,66.76L283.66,66.53L283.56,66.47ZM284.58,66.33L284.80,66.21L285.29,66.34L284.96,66.87L284.76,66.79L284.39,66.99L284.29,66.76L284.09,66.88L284.08,66.70L284.39,66.50L284.79,66.63L284.84,66.53L284.58,66.33ZM292.31,65.24L291.12,65.75L291.06,65.63L291.29,65.46L291.04,65.37L290.93,65.60L290.61,65.71L290.83,65.77L290.57,65.89L288.70,66.22L288.80,66.11L288.70,66.00L289.41,65.81L288.95,65.77L289.29,65.71L289.18,65.49L289.42,65.45L289.72,65.62L289.80,65.46L290.04,65.51L289.54,65.21L290.46,65.24L290.25,65.05L290.75,64.95L290.99,65.18L291.02,64.97L291.23,64.92L291.51,65.03L291.20,65.27L291.33,65.29L291.77,65.14L291.84,64.92L293.08,64.83L292.31,65.24ZM298.70,64.66L298.90,64.76L298.47,64.86L298.59,65.02L297.23,65.09L297.57,64.95L297.33,64.92L297.79,64.51L298.41,64.46L298.70,64.66ZM299.03,64.25L298.96,64.40L297.27,64.44L297.04,64.78L296.37,65.22L296.24,65.22L296.22,64.64L296.12,64.92L295.79,64.94L295.97,65.11L295.67,64.96L295.57,65.21L295.26,65.24L295.48,65.27L295.11,65.54L294.68,65.37L293.99,65.41L293.75,65.30L295.05,64.73L294.74,64.57L294.79,64.73L294.28,64.99L293.26,65.24L293.14,65.30L293.35,65.37L292.69,65.67L292.25,65.68L292.35,65.48L293.17,64.92L293.91,64.80L293.39,64.73L293.82,64.67L293.11,64.51L293.28,64.36L294.08,64.23L294.34,64.35L294.06,64.13L294.34,64.17L294.28,64.07L295.14,64.10L294.54,63.96L294.29,63.78L294.30,63.59L295.02,63.53L295.51,63.69L295.18,63.50L294.44,63.48L294.34,63.18L295.17,63.12L294.84,63.05L294.79,62.90L295.11,62.84L294.99,62.74L295.35,62.48L296.38,62.51L296.23,62.61L296.28,62.83L296.11,63.07L295.55,63.46L295.82,63.75L295.36,64.08L295.18,64.45L295.34,64.64L295.20,64.80L296.63,64.15L297.90,64.02L299.03,64.25ZM289.60,63.88L289.52,63.71L290.25,63.53L289.78,63.44L290.01,63.25L290.27,63.22L290.38,63.48L290.61,63.53L290.46,63.47L290.71,63.28L290.54,63.20L290.64,63.10L290.89,63.12L290.90,63.43L291.60,63.25L291.89,63.42L292.09,63.15L291.88,63.02L292.09,62.93L292.33,63.26L292.53,62.99L293.02,63.15L292.35,62.48L292.68,62.26L292.92,62.25L293.06,62.36L292.99,62.49L293.39,62.71L293.14,62.84L293.63,62.74L293.39,63.12L294.03,62.99L293.88,63.22L293.54,63.25L293.67,63.34L293.54,63.40L294.08,63.55L293.99,63.83L292.59,64.26L291.74,64.23L291.44,64.08L291.56,63.95L293.05,63.69L292.99,63.44L292.42,63.37L292.28,63.40L292.61,63.47L292.39,63.64L292.12,63.66L292.12,63.56L291.86,63.78L291.53,63.82L291.47,63.63L291.18,63.85L290.86,63.66L290.61,64.02L290.15,64.11L289.69,64.07L289.75,63.85L289.60,63.88ZM294.68,62.71L294.24,62.84L294.22,62.49L294.86,61.82L295.86,61.57L296.19,61.16L296.69,60.99L297.26,60.86L297.47,60.97L297.14,61.60L296.12,62.18L295.15,62.37L294.68,62.27L294.86,62.49L294.68,62.71ZM282.76,74.84L282.78,75.03L282.53,75.16L281.97,75.03L282.39,74.72L282.76,74.84ZM283.05,74.03L283.17,74.06L283.04,74.33L282.87,74.23L282.79,74.35L282.86,74.52L282.42,74.38L282.65,74.26L282.50,74.11L282.85,74.05L282.96,74.16L283.05,74.03ZM293.63,67.18L293.04,67.34L292.22,67.32L292.13,67.19L292.18,67.06L292.78,66.92L292.93,67.12L293.63,67.18ZM296.48,66.89L296.28,67.00L295.58,66.87L295.08,66.99L294.47,66.91L294.88,66.81L296.48,66.89ZM293.05,66.99L293.34,66.76L293.59,67.03L293.05,66.99ZM292.29,62.76L292.12,62.89L291.59,62.81L291.85,62.63L292.29,62.76ZM189.13,52.27L189.23,52.45L188.92,52.60L189.03,52.87L188.93,52.93L187.15,53.25L186.17,53.27L184.52,53.95L184.11,53.95L184.17,53.86L183.94,53.66L186.63,53.01L187.49,52.40L189.13,52.27ZM289.65,69.57L289.46,69.74L288.83,69.80L289.48,69.50L289.65,69.57Z"><title>Nordland</title></path>
<path data-code="NO-17" data-name="Nord-Trøndelag" d="M289.30,80.24L286.21,82.69L288.33,83.35L288.53,84.52L287.73,85.29L284.37,84.96L282.22,85.42L279.59,87.24L279.81,87.81L278.79,88.66L279.09,89.05L277.22,89.09L276.39,88.44L274.03,88.36L273.81,88.21L273.77,87.94L273.96,87.84L273.33,87.75L273.25,87.61L273.98,87.44L273.69,87.37L273.98,87.22L272.79,87.47L273.91,86.84L274.48,86.68L275.04,86.72L275.53,86.42L276.39,86.35L276.20,86.07L274.77,86.04L274.79,85.87L275.34,85.63L276.52,85.35L275.42,85.15L275.96,84.84L275.34,85.05L275.12,85.35L272.42,86.26L273.88,85.87L274.58,86.02L274.66,86.14L273.93,86.62L272.86,86.83L272.54,87.06L271.64,87.34L270.73,87.50L270.60,87.35L270.74,87.07L272.01,86.59L272.45,86.04L273.43,85.53L273.54,85.19L273.96,84.89L273.49,84.72L273.58,84.48L273.92,84.35L274.17,84.03L273.39,83.84L272.65,83.51L272.53,83.31L273.59,83.68L273.68,83.64L273.37,83.49L273.42,83.39L272.79,83.30L273.26,83.17L273.62,83.23L273.43,83.04L273.54,83.02L273.85,83.19L274.14,83.14L273.98,83.04L274.17,83.04L274.14,82.84L273.96,82.69L274.20,82.60L274.60,82.73L274.67,82.97L275.08,83.13L275.06,83.33L275.87,83.39L275.34,83.90L275.44,83.88L276.08,83.51L275.96,83.49L276.17,83.30L277.28,83.17L276.30,83.23L276.40,83.02L276.76,82.98L276.61,82.85L276.89,82.90L277.84,82.63L277.19,82.69L277.08,82.48L276.82,82.60L277.00,82.63L276.93,82.73L276.65,82.74L276.22,82.45L276.11,82.22L276.24,82.17L276.11,82.12L277.10,81.97L276.82,81.84L278.11,81.72L277.22,81.59L277.87,81.53L277.87,81.43L277.25,81.49L277.68,81.30L279.11,80.95L279.84,81.05L279.07,80.89L278.43,81.00L277.10,81.37L277.13,81.49L276.48,81.64L276.14,81.88L275.40,81.97L276.26,81.62L275.37,81.59L275.47,81.52L276.69,81.40L277.46,81.17L275.43,81.43L276.14,81.13L276.82,81.23L277.00,81.11L276.73,81.21L276.48,81.08L278.02,80.86L277.99,80.69L278.73,80.45L278.89,80.63L279.03,80.49L280.14,80.90L280.71,80.82L282.24,81.00L283.02,80.81L283.05,80.63L283.96,80.22L289.30,80.24ZM275.62,82.80L276.36,83.01L276.20,83.20L275.61,83.01L275.14,83.04L274.91,82.82L275.34,82.76L275.19,82.63L274.71,82.67L274.50,82.55L274.72,82.37L275.36,82.56L275.62,82.80ZM274.74,81.22L273.55,81.46L274.79,80.99L275.53,81.26L274.93,81.51L274.54,81.46L274.74,81.22ZM273.62,81.33L273.03,81.40L273.36,81.12L274.48,80.82L274.85,80.89L273.62,81.33ZM276.42,82.67L276.49,82.82L276.28,82.88L275.88,82.74L275.98,82.46L276.42,82.67ZM275.91,82.38L275.73,82.62L275.09,82.34L275.70,82.19L275.91,82.38ZM277.75,80.22L277.34,80.56L276.66,80.52L276.94,80.26L277.75,80.22Z"><title>Nord-Trøndelag</title></path>
<path data-code="NO-16" data-name="Sør-Trøndelag" d="M279.09,89.05L279.83,89.99L279.24,90.42L279.53,91.23L279.23,91.91L280.08,93.02L276.91,92.78L275.39,91.99L275.09,91.54L274.89,91.48L273.87,91.35L273.12,91.53L272.86,91.40L271.12,91.35L270.54,91.59L270.27,91.91L270.23,92.64L269.19,92.96L268.86,93.29L268.03,93.35L265.75,92.86L266.09,92.68L266.45,92.01L265.04,91.25L267.22,90.77L267.37,90.22L267.95,89.90L267.55,89.75L267.44,89.11L266.60,89.02L266.34,89.12L266.27,89.35L264.71,89.36L264.47,89.13L265.09,89.02L264.76,89.03L264.96,88.36L264.39,88.01L264.81,88.16L264.86,88.05L265.33,88.07L265.20,88.00L265.35,87.85L265.58,87.91L266.01,88.26L265.76,88.64L265.99,88.47L267.49,88.13L266.32,88.28L266.10,88.14L266.17,87.99L267.52,87.77L266.84,87.84L266.50,87.69L266.66,87.88L266.29,87.88L266.10,87.84L266.07,87.66L267.00,87.40L267.16,87.61L267.57,87.34L267.92,87.50L267.80,87.32L267.55,87.28L268.49,87.02L268.94,87.40L268.97,87.63L269.66,88.02L269.52,88.26L269.09,88.48L269.90,88.33L270.28,88.50L270.93,88.49L271.00,88.76L271.03,88.47L270.15,88.31L270.02,88.12L271.19,87.84L272.43,88.01L272.94,87.91L273.42,88.07L273.77,87.94L273.81,88.21L274.03,88.36L276.39,88.44L277.22,89.09L279.09,89.05ZM270.73,87.50L269.75,87.72L269.47,87.62L269.40,87.28L269.09,87.22L268.99,87.10L269.09,87.03L268.90,86.93L268.94,86.81L270.29,86.46L269.86,86.55L269.97,86.38L267.79,86.93L267.83,86.65L268.84,86.46L267.80,86.42L269.27,86.01L268.90,85.92L270.72,85.67L270.48,85.54L269.58,85.76L270.41,85.44L269.55,85.57L269.92,85.22L269.90,84.83L270.70,84.91L270.82,84.81L270.32,84.84L270.72,84.65L270.60,84.47L271.52,84.53L270.94,84.30L272.05,84.02L271.86,83.94L271.95,83.74L272.35,83.86L272.11,83.67L272.75,83.74L272.32,83.51L271.92,83.51L272.07,83.40L274.17,84.03L273.92,84.35L273.58,84.48L273.49,84.72L273.96,84.89L273.54,85.19L273.43,85.53L272.45,86.04L272.01,86.59L270.74,87.07L270.57,87.29L270.73,87.50ZM265.97,87.38L266.14,87.40L263.11,87.99L262.10,87.84L262.71,87.42L264.10,87.38L263.30,87.22L264.39,87.04L264.65,87.16L264.75,87.02L265.19,86.97L265.29,87.26L265.70,87.20L265.97,87.38ZM262.47,86.90L262.07,86.84L264.19,86.42L263.88,86.46L264.47,86.24L264.56,86.61L264.19,86.82L262.47,86.90ZM266.06,87.01L265.69,87.17L265.41,87.11L265.60,86.95L266.06,87.01ZM269.53,85.26L269.59,85.33L269.35,85.40L269.14,85.23L269.53,85.26Z"><title>Sør-Trøndelag</title></path>
<path data-code="NO-04" data-name="Hedmark" d="M280.08,93.02L280.25,93.53L279.55,95.88L280.70,96.54L281.58,96.70L282.82,97.61L282.60,98.18L282.15,98.57L281.99,99.01L281.12,99.00L279.96,99.22L280.40,100.18L281.50,101.47L281.58,101.74L281.42,102.11L281.03,102.40L281.18,103.10L281.00,103.47L280.13,104.03L279.29,104.33L278.26,104.37L278.11,104.15L278.11,103.56L276.96,103.01L276.95,102.55L276.27,102.14L275.92,101.71L275.40,101.46L275.00,100.88L273.11,100.13L273.12,99.76L271.86,99.01L273.67,97.93L272.93,97.01L272.57,95.84L272.17,95.83L271.59,96.08L270.10,95.74L270.32,95.31L270.22,95.05L269.86,95.02L269.83,95.15L268.99,94.94L268.98,94.53L269.40,94.27L268.29,93.74L269.19,92.96L269.47,92.96L270.31,92.57L270.18,92.26L270.27,91.91L270.54,91.59L271.12,91.35L272.86,91.40L273.12,91.53L273.87,91.35L274.89,91.48L275.09,91.54L275.39,91.99L276.91,92.78L280.08,93.02Z"><title>Hedmark</title></path>
<path data-code="NO-02" data-name="Akershus" d="M278.26,104.37L278.12,104.59L278.30,104.74L277.70,104.83L277.41,105.16L276.68,105.57L276.52,105.52L276.49,105.29L275.53,104.83L275.48,105.14L274.25,105.14L273.28,106.07L272.93,106.22L272.76,106.03L272.60,105.24L272.36,105.10L272.78,104.50L273.06,105.05L273.24,104.56L273.78,104.62L274.04,104.43L274.01,103.87L273.22,103.21L272.89,103.13L273.23,103.07L273.43,102.68L273.98,102.19L273.57,101.84L272.91,101.78L273.06,101.43L273.71,101.58L274.76,101.39L275.07,100.97L275.40,101.46L275.92,101.71L276.27,102.14L276.95,102.55L276.96,103.01L278.11,103.56L278.11,104.15L278.26,104.37Z"><title>Akershus</title></path>
<path data-code="NO-01" data-name="Østfold" d="M278.30,104.74L278.34,105.20L277.36,105.65L277.98,107.30L277.32,108.82L277.08,108.95L276.36,108.94L276.37,108.64L276.08,108.08L275.88,107.94L275.15,107.92L275.12,107.81L275.26,107.78L275.12,107.55L274.94,107.61L274.94,107.80L274.73,107.64L274.74,107.87L274.48,107.87L274.10,107.61L273.96,107.80L273.89,107.55L273.54,107.70L273.34,107.58L273.31,107.29L273.15,107.46L273.34,107.01L272.87,107.00L272.73,106.73L272.80,106.61L272.50,106.47L272.79,106.16L272.75,106.41L272.87,106.42L272.93,106.22L273.28,106.07L274.25,105.14L275.48,105.14L275.53,104.83L275.63,104.82L276.49,105.29L276.52,105.52L276.68,105.57L277.41,105.16L277.70,104.83L278.30,104.74ZM274.65,108.09L274.54,108.33L274.29,108.30L274.35,108.06L274.65,108.09ZM273.93,107.92L273.81,108.12L273.56,108.00L273.93,107.92Z"><title>Østfold</title></path>
<path data-code="NO-20" data-name="Finnmark" d="M355.01,62.18L354.44,61.89L354.55,61.37L356.24,60.57L356.76,60.17L355.87,59.25L352.54,58.61L352.43,58.36L351.47,58.18L350.26,57.37L349.21,57.38L347.73,57.84L347.81,57.93L347.63,58.02L346.68,58.15L345.62,57.98L343.98,58.07L343.61,58.45L342.62,59.01L341.76,59.13L341.56,59.30L341.75,59.60L341.22,59.91L341.22,60.21L341.02,60.38L341.18,60.60L340.77,60.87L340.55,61.30L340.70,61.69L340.61,62.04L340.82,62.34L340.06,62.89L339.19,62.85L338.14,63.18L337.91,63.40L337.83,63.94L337.02,64.13L336.81,64.36L335.73,63.85L334.24,63.66L332.43,63.16L331.79,63.23L331.55,63.62L329.14,64.07L328.57,63.78L327.59,63.81L326.32,63.57L325.60,63.64L325.43,63.13L323.52,62.01L326.22,61.76L326.39,61.57L326.42,61.25L325.37,60.49L325.27,60.15L327.24,59.93L327.49,59.61L327.95,59.36L326.58,59.05L326.12,58.62L326.38,58.43L326.18,58.31L326.26,58.08L325.20,57.92L324.26,56.97L323.20,57.22L322.04,56.83L320.32,56.66L321.24,56.45L321.47,56.73L321.59,56.29L321.83,56.22L322.02,56.45L322.45,56.54L323.19,57.02L323.13,56.76L323.29,56.73L322.89,56.51L323.80,56.20L323.90,56.23L323.69,56.38L324.19,56.28L324.29,56.62L324.45,56.56L324.39,56.38L325.13,56.37L324.92,56.64L325.07,56.92L324.82,57.05L324.99,57.07L326.27,57.11L325.22,56.92L325.56,56.50L326.47,56.69L328.10,56.74L327.52,57.14L325.71,57.29L325.04,57.49L328.34,57.02L328.24,57.32L328.34,57.52L328.83,57.54L328.92,57.81L328.68,57.90L329.66,57.71L329.73,57.93L330.68,57.58L329.59,57.51L329.04,57.27L329.96,57.13L330.06,57.05L329.60,56.92L330.15,56.79L329.35,56.70L330.64,56.57L329.57,56.57L329.66,56.51L331.01,56.29L330.34,56.23L330.56,56.01L332.38,55.35L334.32,55.59L333.79,55.28L333.21,55.20L333.93,54.90L334.01,54.66L334.33,54.51L336.00,54.83L336.00,54.63L335.69,54.42L333.85,54.08L333.96,53.83L334.52,53.70L334.83,53.92L335.60,54.10L335.67,54.01L335.45,53.89L335.50,53.73L336.00,53.67L335.48,53.57L335.57,53.51L335.32,53.38L335.69,53.31L335.39,53.25L335.48,53.22L336.26,53.24L336.61,53.41L336.43,53.51L337.17,53.48L337.11,53.25L337.39,53.21L337.52,53.28L337.48,53.41L336.86,53.67L337.54,53.76L337.93,53.45L338.33,53.72L338.44,53.89L338.34,54.04L338.77,53.95L339.00,53.61L338.78,53.30L338.88,53.19L339.65,53.44L339.14,53.73L339.22,53.81L340.22,53.56L340.64,53.73L341.07,53.57L341.37,53.67L340.62,54.08L340.07,54.17L340.19,54.30L340.03,54.41L337.57,55.37L338.53,55.34L338.33,55.45L337.51,55.44L338.53,55.59L338.37,55.63L338.39,55.91L338.13,55.85L337.60,56.04L337.85,56.07L337.71,56.14L337.79,56.23L338.08,56.13L338.18,56.23L337.15,56.64L337.00,56.97L336.98,57.22L337.26,57.40L337.41,57.40L337.29,57.08L337.66,56.99L337.57,57.11L337.85,57.11L337.60,57.21L337.96,57.32L338.37,57.23L338.70,56.85L339.67,56.32L339.14,56.20L339.22,56.12L341.69,54.90L342.05,54.41L342.35,54.36L343.41,53.69L344.49,53.32L344.84,53.29L344.99,53.41L345.01,53.60L344.72,53.78L345.08,53.86L344.84,54.30L343.27,54.71L344.68,54.74L344.25,55.31L344.34,55.50L344.08,55.63L344.01,56.02L344.65,55.94L344.58,55.79L345.12,55.72L345.38,55.48L346.68,55.53L346.12,55.26L346.26,55.12L346.10,55.09L346.59,54.87L347.42,55.00L346.67,54.74L346.93,54.55L346.59,54.45L346.72,54.33L347.71,54.27L347.49,54.12L347.68,53.90L349.06,53.98L348.38,53.89L348.63,53.79L347.98,53.65L348.07,53.48L347.73,53.62L347.08,53.57L346.78,53.44L346.83,53.31L347.79,53.35L347.27,53.10L347.22,52.99L347.36,52.96L348.37,53.05L348.72,53.29L348.84,53.00L348.62,52.95L348.58,52.74L349.11,52.64L349.15,52.49L349.44,52.60L349.36,52.78L349.47,52.81L350.17,52.91L350.91,52.75L351.08,52.89L351.58,52.68L351.89,52.82L351.61,53.00L351.70,53.00L351.55,53.10L351.80,53.03L351.64,53.16L352.93,53.08L353.19,53.21L352.89,53.59L352.38,53.60L352.72,53.70L352.26,53.79L352.35,53.89L351.73,53.86L352.07,53.95L351.91,54.03L350.82,54.04L350.71,53.93L349.64,54.04L349.95,54.14L349.70,54.26L350.27,54.15L351.31,54.30L349.15,54.90L351.86,54.39L352.07,54.45L351.77,54.86L350.04,55.47L350.20,55.72L350.47,55.44L350.63,55.40L350.44,55.53L351.55,55.37L350.90,55.64L351.31,55.53L351.19,55.60L351.29,55.66L351.86,55.34L352.23,55.31L351.44,55.93L351.47,57.07L350.78,57.37L351.02,57.40L351.55,57.16L351.73,56.89L351.58,56.38L351.76,55.85L352.47,55.42L352.78,55.44L353.00,55.63L352.97,55.47L353.21,55.34L352.78,55.31L352.52,55.12L353.04,54.57L353.51,54.57L353.08,54.37L353.21,54.23L354.29,53.67L355.58,53.63L355.68,53.67L355.49,53.73L356.21,53.75L356.48,53.98L357.03,54.08L356.54,54.26L357.09,54.30L356.66,54.36L356.85,54.42L356.48,54.55L356.59,54.68L356.97,54.48L358.36,54.26L358.71,54.34L358.72,54.52L358.26,54.83L358.91,54.77L359.68,54.41L360.18,54.42L360.64,54.55L360.14,54.71L361.27,54.95L360.27,55.15L360.45,55.24L359.71,55.21L360.44,55.28L361.96,55.12L362.32,55.19L362.40,55.25L362.23,55.31L363.00,55.54L363.24,55.75L363.96,55.62L364.48,56.00L364.30,56.20L364.55,56.38L362.17,56.55L361.90,56.76L361.39,56.84L361.30,57.10L360.24,57.30L360.42,57.37L353.49,56.88L353.40,56.95L354.11,56.92L353.46,57.14L353.55,57.20L354.54,57.24L354.01,57.30L356.08,57.52L355.80,57.62L355.92,57.65L356.76,57.62L358.29,57.84L356.85,58.34L357.62,58.09L358.54,58.12L358.70,58.44L357.86,58.98L357.50,59.04L357.65,59.04L357.40,59.26L358.27,58.92L359.26,58.91L359.84,58.73L359.99,58.76L359.43,59.14L360.03,58.90L360.54,59.14L360.20,58.82L360.64,58.76L360.42,58.57L360.45,58.25L361.01,58.22L361.16,58.31L360.91,58.41L361.52,58.47L361.55,59.07L361.22,59.20L361.70,59.18L361.73,58.57L361.88,58.54L362.85,58.58L362.93,58.76L363.48,58.59L363.87,59.21L363.87,59.64L363.74,59.80L363.10,59.90L362.01,59.84L360.74,59.37L360.24,59.38L360.64,59.50L360.75,59.73L360.40,59.98L360.26,60.27L359.47,60.62L356.91,60.92L356.21,61.86L355.75,62.09L355.01,62.18ZM327.90,56.29L328.20,56.34L328.33,56.52L325.76,56.35L325.44,56.16L325.65,56.03L326.03,56.20L325.89,55.94L326.46,56.00L326.79,55.86L326.97,56.14L327.16,55.87L327.48,56.16L328.06,56.20L327.90,56.29ZM331.20,55.37L331.07,55.44L331.23,55.53L330.91,55.78L329.69,56.12L329.57,56.16L329.97,56.23L329.22,56.39L328.62,56.30L328.86,55.78L328.43,56.12L327.60,55.81L327.98,55.82L328.09,55.75L327.79,55.61L328.34,55.40L329.26,55.31L329.04,55.17L329.43,55.22L329.50,55.50L329.72,55.24L329.63,55.16L330.68,55.18L330.01,54.84L330.83,54.87L330.95,55.02L330.86,55.24L331.20,55.37ZM333.05,54.65L333.32,54.83L333.20,54.98L332.43,55.28L331.87,55.33L331.63,55.28L331.34,54.93L331.14,54.93L331.35,54.61L331.11,54.50L331.44,54.24L331.92,54.23L332.03,54.26L331.99,54.45L332.65,54.43L333.05,54.65ZM325.66,55.34L325.15,55.37L325.04,55.20L324.85,55.44L324.45,55.52L324.59,55.23L324.95,55.06L324.82,55.02L325.26,54.87L323.94,54.96L323.81,54.93L324.08,54.77L323.54,54.71L324.75,54.78L324.88,54.70L324.79,54.58L324.95,54.58L325.62,54.81L325.49,54.42L325.97,54.58L326.19,54.39L326.69,54.52L326.43,54.68L326.85,54.65L327.02,54.91L327.12,54.71L327.47,54.71L327.01,54.24L327.38,54.17L327.60,54.36L327.91,54.35L327.78,54.49L328.11,54.64L328.40,54.46L328.37,54.36L328.80,54.42L328.67,54.32L329.07,54.30L328.39,54.05L328.70,54.01L328.55,53.95L329.07,54.03L328.98,53.89L329.73,54.10L329.66,53.72L329.79,53.70L330.43,54.01L330.00,54.08L330.31,54.14L329.75,54.23L329.69,54.42L329.38,54.49L329.47,54.55L328.96,54.49L328.86,54.61L329.07,54.68L328.93,54.78L328.52,54.81L328.77,54.87L328.65,54.99L328.33,54.91L328.15,55.09L327.72,55.02L327.97,55.12L327.30,55.28L327.26,55.15L326.65,55.09L326.60,55.27L326.30,55.37L325.96,55.24L325.86,55.41L325.66,55.34ZM333.07,53.25L333.85,53.29L332.94,53.48L332.34,53.29L332.92,53.19L332.23,53.10L332.57,52.95L333.76,53.10L333.23,53.11L333.07,53.25ZM342.34,52.91L342.71,52.94L342.06,53.20L340.52,53.19L340.47,53.29L340.62,53.35L339.73,53.41L339.11,53.16L339.76,53.00L338.55,52.95L338.80,52.78L338.65,52.75L339.30,52.75L339.36,52.61L340.47,52.84L339.73,52.43L340.24,52.32L340.87,52.37L340.76,52.56L340.86,52.64L341.87,52.54L341.88,52.68L341.69,52.77L341.24,52.84L341.57,52.91L341.42,53.03L341.54,53.07L342.34,52.91ZM359.80,58.47L360.19,58.49L359.28,58.72L359.02,58.63L358.79,58.82L358.42,58.79L358.94,58.44L358.85,58.31L359.00,58.12L359.68,58.19L359.80,58.47ZM322.58,55.95L322.83,56.04L322.83,56.20L322.43,56.49L322.31,56.38L322.34,56.02L322.58,55.95ZM336.51,52.64L336.21,52.96L335.51,52.82L335.76,52.68L336.04,52.77L335.95,52.59L336.51,52.64Z"><title>Finnmark</title></path>
<path data-code="NO-03" data-name="Oslo" d="M273.24,104.56L273.22,104.35L272.93,104.25L272.12,104.43L271.97,104.53L272.03,104.75L271.63,104.73L271.41,104.52L271.56,103.91L272.32,103.53L272.64,103.13L273.22,103.21L274.01,103.87L273.96,104.55L273.24,104.56Z"><title>Oslo</title></path>
<path data-code="NO-06" data-name="Buskerud" d="M272.03,104.75L272.09,105.19L272.60,105.65L272.28,105.98L271.80,106.06L271.65,105.30L270.91,105.05L270.85,105.12L271.09,105.27L270.16,105.39L269.99,105.30L269.52,105.56L270.13,106.15L268.87,106.19L268.86,106.46L268.41,106.43L267.86,106.10L267.50,106.07L267.60,105.86L266.92,105.06L266.96,104.73L266.26,104.53L266.15,104.11L265.44,103.84L265.16,103.36L264.64,103.10L261.62,102.93L260.06,103.25L259.16,103.17L258.46,103.32L259.35,102.31L259.41,101.48L259.00,100.79L258.51,100.60L259.41,100.24L259.67,99.87L260.29,99.55L261.02,99.54L261.72,99.12L261.74,98.89L262.11,98.68L263.57,99.21L263.83,99.46L264.86,99.63L266.70,100.24L267.19,101.14L268.07,101.25L268.30,101.47L269.08,101.60L269.03,101.11L269.55,101.00L269.58,100.80L270.03,100.82L270.59,101.39L270.85,102.01L271.33,102.55L272.64,103.13L272.32,103.53L271.81,103.69L271.52,103.95L271.41,104.59L272.03,104.75Z"><title>Buskerud</title></path>
<path data-code="NO-07" data-name="Vestfold" d="M271.11,105.24L271.54,105.42L271.59,105.88L271.48,106.03L270.90,105.87L271.50,106.35L271.98,106.47L271.84,106.85L272.15,107.06L271.95,107.31L271.46,107.20L271.46,107.44L271.32,107.49L271.25,107.87L271.14,107.83L271.22,108.18L271.06,107.93L271.02,108.28L270.85,107.93L270.88,108.27L270.77,108.38L270.35,108.43L270.60,108.29L270.51,108.22L270.11,108.37L269.91,108.30L269.99,108.49L269.76,108.64L268.99,108.62L269.14,108.51L269.09,107.68L269.32,107.51L269.25,107.16L268.81,106.75L268.84,106.22L270.13,106.15L269.52,105.56L269.99,105.30L270.16,105.39L271.11,105.24Z"><title>Vestfold</title></path>
<path data-code="NO-08" data-name="Telemark" d="M269.06,108.37L268.44,108.04L268.35,108.22L268.18,107.85L267.77,107.90L268.61,108.39L268.60,108.53L268.29,108.53L268.44,108.66L267.93,108.82L267.46,108.78L267.64,108.94L267.02,108.94L267.16,109.01L266.87,109.09L266.69,109.00L266.56,109.23L267.37,109.23L266.99,109.41L267.18,109.38L267.08,109.45L266.27,109.30L266.20,108.99L265.31,108.41L264.61,108.45L264.47,109.05L264.27,109.12L263.45,108.73L262.99,108.84L261.69,108.47L261.00,108.54L259.82,107.73L259.90,107.33L259.62,106.98L258.73,106.48L259.14,106.18L258.74,105.92L258.68,105.73L258.81,105.62L258.33,105.33L258.00,105.42L257.01,105.16L256.77,104.79L257.05,104.59L257.09,104.24L257.36,104.00L258.11,103.72L258.46,103.32L259.16,103.17L260.06,103.25L261.62,102.93L264.64,103.10L265.16,103.36L265.44,103.84L266.15,104.11L266.26,104.53L266.96,104.73L266.92,105.06L267.60,105.86L267.50,106.07L267.86,106.10L268.41,106.43L268.86,106.46L268.84,106.85L269.25,107.16L269.32,107.51L269.09,107.68L269.19,107.96L269.06,108.37Z"><title>Telemark</title></path>
<path data-code="NO-09" data-name="Aust-Agder" d="M267.08,109.45L266.72,109.66L265.66,109.65L266.32,109.83L265.61,109.92L266.25,109.97L265.50,110.33L264.96,110.27L265.12,110.55L264.94,110.76L264.03,111.32L263.58,111.53L263.45,111.47L263.10,111.88L262.69,111.82L262.68,111.94L261.95,112.13L262.07,112.16L261.86,112.35L261.68,112.16L261.87,111.99L261.80,111.74L261.27,111.63L261.27,111.43L260.74,111.48L259.80,110.85L258.97,110.85L258.81,110.55L259.14,110.30L258.99,109.88L259.25,109.79L259.40,109.52L259.03,109.02L256.68,109.16L257.10,108.69L256.89,108.37L257.07,108.30L257.02,108.01L257.18,107.65L255.60,107.48L255.53,106.95L255.92,106.36L256.42,106.15L256.29,106.01L256.33,105.64L257.02,105.31L258.33,105.33L258.81,105.62L258.68,105.73L258.74,105.92L259.14,106.18L258.73,106.48L259.62,106.98L259.90,107.33L259.82,107.73L260.73,108.45L261.26,108.57L261.69,108.47L262.99,108.84L263.45,108.73L264.27,109.12L264.47,109.05L264.61,108.45L265.31,108.41L266.20,108.99L266.27,109.30L267.08,109.45Z"><title>Aust-Agder</title></path>
<path data-code="NO-10" data-name="Vest-Agder" d="M261.86,112.35L261.76,112.50L261.56,112.40L261.40,112.60L261.09,112.55L260.96,112.42L261.21,112.32L260.87,112.04L260.95,112.31L260.47,112.69L259.34,112.76L259.12,112.97L258.96,112.86L258.96,112.99L257.06,112.84L256.39,113.10L256.36,112.93L256.88,112.80L257.02,112.61L256.07,112.86L256.27,112.58L255.91,112.83L255.94,112.61L255.76,112.70L255.48,112.61L256.31,112.42L255.79,112.45L255.36,112.23L255.50,112.51L255.15,112.52L255.11,112.20L254.96,112.51L255.38,112.77L254.64,112.76L254.25,112.51L254.55,112.26L254.90,112.23L254.80,112.20L254.90,112.12L255.67,111.82L254.93,112.04L254.71,111.80L254.81,111.67L254.99,111.72L254.95,111.56L254.65,111.60L254.68,111.94L253.65,111.81L254.46,111.56L254.70,111.30L254.49,110.25L253.87,110.03L254.55,109.80L254.19,109.44L254.46,109.08L254.39,108.77L255.83,107.83L255.86,107.64L256.10,107.49L257.17,107.64L257.02,108.01L257.08,108.27L256.89,108.37L257.10,108.69L256.68,109.16L259.03,109.02L259.40,109.52L259.25,109.79L258.99,109.88L259.14,110.30L258.81,110.55L258.97,110.85L259.80,110.85L260.74,111.48L261.27,111.43L261.27,111.63L261.80,111.74L261.87,111.99L261.68,112.16L261.86,112.35Z"><title>Vest-Agder</title></path>
<path data-code="NO-11" data-name="Rogaland" d="M253.65,111.81L251.91,111.29L251.66,110.87L250.95,110.81L250.87,110.67L250.28,110.54L249.52,109.59L249.74,109.45L249.76,109.06L249.94,108.94L249.78,108.66L250.15,108.88L250.19,108.80L249.85,108.59L249.97,108.51L249.72,108.50L249.85,108.28L250.59,108.56L250.59,109.07L250.68,108.78L251.21,108.62L252.28,109.16L252.89,109.19L252.40,109.13L252.12,108.91L252.74,108.53L254.68,108.21L252.59,108.46L252.02,108.89L251.75,108.62L252.09,108.46L251.57,108.37L251.31,108.15L251.37,107.98L252.43,107.77L251.90,107.77L252.63,107.25L253.32,107.00L253.94,106.98L253.27,106.97L252.56,107.22L252.25,107.04L252.93,106.98L252.76,106.83L252.64,106.97L252.28,106.98L252.12,106.82L251.84,106.91L252.05,106.69L252.71,106.47L252.96,106.10L254.31,105.87L252.93,106.03L253.26,105.43L253.15,105.46L252.55,106.34L251.99,106.60L251.79,106.47L251.73,106.60L251.84,106.70L251.52,106.81L251.35,106.39L252.55,106.25L251.42,106.25L251.00,105.97L250.86,106.03L250.95,106.32L250.73,106.40L250.55,106.28L250.50,106.47L250.27,106.57L250.89,106.47L251.23,106.84L250.54,106.89L250.12,107.10L250.27,106.91L250.01,106.53L249.89,106.57L250.00,106.63L249.92,107.00L249.64,107.17L249.33,107.04L249.32,106.59L249.13,107.10L248.96,106.56L248.86,106.82L248.71,106.87L248.28,106.47L248.22,106.24L249.24,106.13L250.32,105.79L252.63,105.61L253.15,104.85L254.24,104.49L254.87,104.55L254.95,104.78L254.80,105.09L254.90,105.15L256.77,104.79L256.93,105.12L257.45,105.27L256.91,105.34L256.30,105.67L256.29,106.01L256.42,106.15L255.92,106.36L255.53,107.01L255.60,107.48L256.10,107.49L255.83,107.68L255.83,107.83L254.39,108.77L254.46,109.08L254.19,109.44L254.55,109.80L253.87,110.03L254.49,110.25L254.68,111.38L253.65,111.81ZM248.62,107.07L248.80,107.27L248.71,107.68L248.31,107.80L248.12,107.55L248.11,107.19L248.40,107.14L248.15,106.91L248.31,106.73L248.21,106.54L248.63,106.93L248.62,107.07ZM250.80,107.91L250.85,108.08L250.74,108.12L249.96,107.88L250.80,107.91ZM249.45,107.48L249.36,107.72L249.06,107.45L249.19,107.34L249.45,107.48ZM251.94,107.11L252.31,107.18L252.12,107.35L251.55,107.33L251.65,107.15L251.94,107.11Z"><title>Rogaland</title></path>
<path data-code="NO-12" data-name="Hordaland" d="M248.22,106.24L248.22,106.06L248.46,106.03L248.28,105.93L248.81,105.51L249.11,105.46L249.23,105.71L249.29,105.52L249.17,105.36L249.57,105.05L249.55,105.83L249.20,106.07L248.22,106.24ZM249.75,105.88L249.72,105.60L249.91,105.33L250.62,105.39L250.59,105.65L250.76,105.64L250.92,105.43L251.32,105.43L251.32,105.33L250.72,105.34L251.03,105.09L251.43,104.93L252.04,105.02L253.26,104.51L251.87,104.96L251.57,104.86L251.73,104.48L251.48,104.80L251.11,104.89L250.58,104.62L250.61,104.48L250.27,104.51L250.71,104.39L250.84,104.16L251.74,104.03L251.79,103.93L251.63,103.85L251.91,103.58L253.17,103.28L253.02,103.09L252.34,103.35L252.20,102.93L252.50,102.85L252.77,102.46L254.12,101.85L254.74,101.92L254.25,102.63L254.22,103.47L254.43,102.58L254.80,102.08L255.47,101.66L256.71,101.63L256.83,101.51L255.91,101.51L256.44,101.13L256.30,101.12L255.71,101.52L254.81,101.84L254.52,101.79L254.99,101.45L253.20,102.05L252.88,101.94L252.66,101.67L252.95,102.05L252.40,102.14L252.71,102.20L252.50,102.43L252.55,102.61L252.34,102.71L251.85,102.62L251.48,103.06L251.20,103.15L251.22,103.73L250.84,103.73L250.77,103.88L250.43,103.66L250.92,103.49L250.52,103.36L250.65,103.23L250.55,103.03L250.92,102.87L250.04,103.20L249.81,103.09L249.95,103.03L249.91,102.90L250.55,102.77L250.06,102.77L250.22,102.58L249.94,102.74L250.37,102.20L250.68,102.03L250.25,102.24L250.22,102.14L249.74,102.84L249.21,103.24L248.74,102.96L248.95,102.84L248.37,102.87L248.77,102.62L248.14,102.56L248.14,102.38L248.40,102.36L248.00,102.22L248.17,102.05L248.71,102.01L248.44,101.66L248.75,101.40L249.51,101.83L250.31,101.85L250.58,101.61L250.56,101.06L250.74,100.53L250.35,100.59L250.49,100.37L250.41,100.34L250.03,100.62L249.77,100.62L249.74,100.94L248.50,101.24L247.75,100.78L248.40,100.97L247.75,100.56L248.03,100.59L247.94,100.50L247.04,100.15L247.29,100.11L248.63,100.51L248.93,100.89L249.04,100.91L248.95,100.78L249.32,100.94L249.04,100.73L249.32,100.78L249.23,100.59L248.43,100.26L248.95,100.09L248.97,99.91L249.78,99.80L249.49,99.65L248.84,99.84L248.69,100.04L248.22,100.02L248.12,99.90L247.96,100.09L247.84,99.98L248.11,99.58L248.58,99.43L249.28,99.52L250.20,99.27L251.25,99.34L251.92,99.07L252.39,99.26L252.48,99.46L253.08,99.61L254.07,99.41L254.13,99.56L254.37,99.58L254.91,99.34L255.57,99.54L255.09,99.80L255.75,99.94L255.73,100.15L256.17,100.18L256.29,100.39L258.51,100.60L259.00,100.79L259.36,101.32L259.31,102.37L258.28,103.58L257.15,104.18L257.08,104.56L256.77,104.79L256.25,104.80L255.02,105.17L254.80,105.09L254.95,104.78L254.87,104.55L254.24,104.49L253.15,104.85L252.63,105.61L251.61,105.61L249.75,105.88ZM248.75,104.96L248.92,105.18L248.68,105.30L248.58,105.30L248.77,105.21L248.67,105.00L248.24,105.02L248.06,105.36L248.31,105.30L248.28,105.62L248.06,105.73L247.90,105.29L248.22,104.96L247.69,104.84L247.81,104.64L248.03,104.64L247.84,104.45L248.06,104.42L248.75,104.96ZM249.57,104.48L249.61,104.75L249.12,104.96L248.98,104.89L249.18,104.82L248.78,104.81L248.50,104.26L248.71,104.07L248.64,104.00L248.84,103.95L249.26,104.13L249.57,104.48ZM250.15,103.50L250.34,103.53L250.30,103.84L250.09,104.02L250.25,104.23L249.65,104.31L249.51,104.01L249.21,104.04L249.00,103.86L249.39,103.82L249.45,103.60L250.15,103.50ZM247.87,102.92L247.63,102.95L247.53,102.74L247.34,102.80L247.14,102.65L247.11,102.50L247.47,102.52L247.54,102.39L247.24,102.31L247.14,101.81L247.79,102.36L247.74,102.52L247.60,102.52L247.87,102.92ZM247.27,101.42L247.20,101.26L248.05,101.53L248.29,101.85L247.93,101.98L247.97,101.79L247.27,101.42ZM250.46,100.72L250.43,101.62L250.11,101.79L249.63,101.82L248.83,101.32L249.93,100.96L250.11,100.66L250.46,100.72ZM248.67,103.50L248.58,103.87L248.14,103.61L248.29,103.43L248.38,103.65L248.48,103.60L248.29,103.30L248.67,103.50ZM246.68,100.94L246.67,101.12L246.38,101.08L246.43,100.77L246.68,100.94Z"><title>Hordaland</title></path>
<path data-code="NO-14" data-name="Sogn og Fjordane" d="M247.84,99.98L247.58,99.94L247.29,99.45L247.72,99.46L247.82,99.79L247.81,99.45L248.00,99.26L247.72,99.36L247.39,99.24L247.44,99.01L247.68,98.89L249.32,99.10L249.39,99.25L249.44,99.00L249.74,98.88L250.25,98.95L250.06,98.83L250.85,98.70L250.88,98.93L251.25,98.68L252.31,98.66L253.02,98.79L252.95,99.01L253.48,98.91L253.46,99.18L253.83,98.85L254.32,98.75L254.56,98.42L255.62,98.58L255.77,98.81L256.16,98.82L256.40,99.19L255.79,99.52L256.59,99.39L256.94,99.57L256.83,99.87L257.07,99.70L257.08,99.45L256.78,99.39L256.36,98.80L257.36,98.58L258.32,98.76L257.91,98.57L258.28,98.37L259.48,98.16L258.10,98.31L257.76,97.90L258.07,97.48L258.93,96.99L257.91,97.43L257.54,97.40L257.73,97.62L257.44,97.86L257.97,98.34L257.67,98.48L257.32,98.38L256.15,98.71L255.99,98.60L256.37,98.38L255.88,98.47L254.37,98.19L254.99,97.64L255.02,97.37L254.58,97.94L254.12,97.99L254.28,98.28L253.95,98.27L254.14,98.55L253.82,98.70L253.14,98.65L252.65,98.38L252.19,98.54L251.69,98.47L252.03,98.28L250.99,98.51L250.89,98.32L250.74,98.51L249.88,98.60L249.28,98.86L248.71,98.63L248.24,98.74L248.09,98.63L248.40,98.57L247.57,98.47L247.64,98.36L248.37,98.47L248.34,98.38L248.50,98.38L248.13,98.21L247.32,98.19L247.66,98.09L247.21,98.00L248.28,97.65L248.63,97.74L248.81,98.06L248.81,97.76L248.52,97.62L250.22,97.56L248.11,97.58L247.63,97.73L247.37,97.49L247.57,97.37L247.65,97.50L247.87,97.24L247.14,97.31L248.18,97.05L249.70,97.24L250.57,96.98L250.99,97.14L250.62,96.92L249.58,97.13L249.16,96.98L248.68,97.01L248.00,96.81L248.00,96.67L248.98,96.64L248.03,96.48L249.29,96.51L248.58,96.39L248.90,96.26L247.34,96.32L247.12,96.15L247.39,95.76L248.12,95.88L247.94,95.76L248.23,95.68L247.66,95.72L248.89,95.34L248.68,95.25L249.00,95.05L250.07,95.08L250.71,95.31L250.15,95.47L251.60,95.33L251.41,95.82L251.83,95.37L252.68,95.69L252.12,95.37L253.99,95.51L254.51,95.21L255.36,95.34L255.54,95.21L254.91,95.09L254.36,95.17L254.00,95.42L251.35,95.15L250.99,95.28L250.65,95.12L251.69,95.00L249.29,94.90L248.07,95.09L247.81,95.00L248.00,94.74L248.40,94.80L248.77,94.49L249.17,94.52L247.78,94.05L247.94,94.01L247.72,93.76L248.13,93.62L248.61,93.83L248.58,93.99L248.80,94.12L249.40,94.33L249.45,94.63L249.95,94.78L251.54,94.61L252.34,94.74L252.73,94.57L253.39,94.72L254.88,94.25L255.48,94.74L257.92,94.40L258.18,94.60L258.13,95.17L258.57,95.72L260.26,95.79L260.81,96.57L261.77,96.81L262.24,97.15L261.49,97.26L261.77,97.67L261.05,98.20L261.67,98.73L261.72,99.12L261.02,99.54L260.29,99.55L259.83,99.75L259.41,100.24L258.51,100.60L256.29,100.39L256.17,100.18L255.73,100.15L255.75,99.94L255.11,99.83L255.57,99.54L254.91,99.34L254.37,99.58L254.13,99.56L254.07,99.41L253.08,99.61L252.48,99.46L252.39,99.26L251.98,99.07L251.25,99.34L250.20,99.27L249.28,99.52L248.58,99.43L248.11,99.58L247.84,99.98ZM247.20,98.41L247.31,98.74L246.89,98.97L246.74,98.76L246.49,99.01L246.45,98.52L246.80,98.60L246.67,98.32L246.90,98.59L247.01,98.34L247.20,98.41ZM246.77,95.12L248.37,95.31L247.90,95.44L247.94,95.28L247.00,95.62L246.79,95.47L247.04,95.41L246.49,95.34L246.77,95.12ZM247.02,99.84L246.37,99.55L246.84,99.55L247.02,99.84ZM246.12,99.04L246.20,99.16L246.05,99.28L246.06,99.14L245.93,99.24L245.77,98.96L246.02,98.85L246.12,99.04ZM247.91,94.49L248.05,94.62L247.80,94.95L247.47,94.89L247.62,94.74L247.30,94.57L247.34,94.45L247.73,94.58L247.91,94.49ZM246.64,96.11L246.83,95.94L246.93,96.22L246.64,96.11Z"><title>Sogn og Fjordane</title></path>
<path data-code="NO-15" data-name="Møre og Romsdal" d="M249.45,94.58L249.78,94.25L250.03,94.30L249.13,94.04L249.41,93.73L250.17,93.85L250.74,94.20L250.37,93.83L251.44,93.73L251.51,94.06L251.17,94.52L251.58,94.21L251.66,93.97L252.06,94.15L252.09,94.30L253.51,94.33L252.26,94.11L251.51,93.65L251.59,93.55L252.15,93.67L251.63,93.48L251.99,93.20L253.26,92.90L254.34,93.83L254.25,94.11L254.52,93.99L254.47,93.87L253.74,93.18L253.66,92.83L254.11,92.77L254.40,92.97L254.31,92.72L254.96,92.54L255.82,92.68L255.79,92.97L256.36,93.44L256.38,93.72L256.08,94.05L256.30,94.20L257.20,94.14L257.03,94.01L256.27,94.09L256.52,93.76L256.53,93.35L257.30,93.45L257.75,93.31L258.22,93.54L257.68,93.24L257.08,93.29L256.17,93.11L255.97,92.91L256.25,92.87L255.69,92.51L255.26,92.47L255.42,92.40L253.65,92.65L252.96,92.53L252.87,92.49L253.90,92.29L254.90,92.34L254.62,92.21L254.00,92.24L254.40,92.18L254.26,92.13L253.05,92.18L252.99,91.96L253.17,91.83L254.28,91.77L254.62,92.02L254.66,91.75L255.26,91.59L255.99,91.96L256.04,91.74L255.85,91.64L256.77,91.61L256.53,91.74L256.79,91.79L256.93,92.15L257.07,91.71L258.00,91.88L258.29,92.08L258.68,92.12L258.80,92.29L258.93,92.07L259.85,91.96L258.63,92.00L258.26,91.85L258.24,91.69L258.50,91.66L258.70,91.91L258.71,91.50L260.11,91.23L260.94,91.23L261.51,91.42L261.05,91.11L261.18,91.01L258.56,91.44L257.97,91.39L258.17,91.33L258.01,91.23L258.48,91.07L259.42,90.95L256.13,91.23L256.28,91.14L256.19,90.99L256.40,90.85L257.33,90.85L256.96,90.69L256.43,90.73L256.12,90.43L255.82,90.41L256.70,90.08L257.58,89.93L258.61,90.41L259.36,90.09L259.86,90.12L259.36,90.38L259.48,90.40L260.73,90.10L261.24,90.25L261.54,90.85L263.16,91.35L263.30,91.58L263.40,91.46L263.30,91.29L261.68,90.70L261.62,90.50L261.79,90.41L261.51,90.22L260.78,89.87L260.30,89.95L260.84,89.57L261.24,89.49L261.57,89.88L262.33,90.12L262.24,90.25L262.33,90.55L263.27,90.68L262.78,90.47L262.88,90.48L264.01,90.82L262.72,90.19L263.86,90.09L263.20,90.05L263.49,89.90L263.34,89.89L262.53,90.12L262.29,90.00L262.96,89.90L261.92,89.88L261.60,89.47L261.84,89.38L262.13,89.65L262.29,89.49L261.91,89.30L263.73,89.49L263.39,89.25L264.67,89.06L264.47,89.13L264.90,89.40L265.51,89.28L266.27,89.35L266.34,89.12L266.60,89.02L267.44,89.11L267.55,89.75L267.95,89.90L267.37,90.22L267.22,90.77L265.06,91.22L266.10,91.92L266.45,92.01L266.09,92.68L265.75,92.86L262.69,92.86L261.54,93.02L260.95,93.64L259.70,93.69L259.11,94.05L259.11,94.19L258.59,94.15L255.48,94.74L254.88,94.25L253.39,94.72L252.73,94.57L252.34,94.74L251.54,94.61L249.95,94.78L249.45,94.58ZM264.76,89.03L263.60,89.06L262.99,88.64L264.17,88.45L264.29,88.39L263.98,88.35L263.76,88.11L264.39,88.01L264.96,88.36L264.76,89.03ZM250.68,93.32L250.97,93.33L250.92,93.62L249.83,93.72L249.63,93.57L250.09,93.57L249.70,93.49L249.90,93.27L250.68,93.32ZM251.81,92.78L251.86,92.92L252.22,93.03L251.02,93.48L251.20,93.32L251.04,92.83L251.49,92.63L251.81,92.78ZM253.05,92.66L253.36,92.72L252.27,92.76L251.97,92.59L253.05,92.66ZM255.70,91.17L255.93,91.23L255.97,91.39L254.89,91.59L254.77,91.48L254.94,91.24L255.70,91.17ZM255.60,90.73L256.02,90.66L256.10,90.80L255.82,90.88L255.85,91.04L255.33,90.84L255.48,90.82L255.41,90.65L255.60,90.73ZM259.85,89.62L260.47,89.62L259.90,89.90L259.42,89.74L259.62,89.56L259.85,89.62ZM259.24,89.74L259.53,89.97L258.72,90.25L258.01,90.01L258.32,89.90L258.16,89.72L258.56,89.68L258.90,89.90L259.08,89.64L258.99,89.46L259.27,89.49L259.24,89.74ZM261.36,88.89L261.70,89.27L260.94,89.36L260.53,89.18L261.36,88.89ZM263.03,88.86L263.43,89.08L263.39,89.18L262.53,89.24L262.04,88.92L262.15,88.72L262.63,88.95L262.78,88.67L263.03,88.86ZM260.47,88.42L260.84,88.42L259.98,88.28L259.85,88.10L261.17,87.81L261.67,88.20L261.24,88.48L260.75,88.54L260.47,88.42ZM250.23,93.14L250.08,93.10L250.70,92.95L250.64,93.10L250.23,93.14ZM250.04,93.04L249.71,93.07L249.66,92.93L250.04,93.04ZM262.27,89.16L261.79,89.25L261.59,89.01L261.91,88.97L262.27,89.16Z"><title>Møre og Romsdal</title></path>
<path data-code="NO-21" data-name="Svalbard" d="M311.00,36.81L311.62,37.02L311.55,37.19L311.16,37.54L310.61,37.64L309.33,37.03L309.72,36.86L311.00,36.81ZM339.39,26.72L339.85,26.79L337.45,27.71L337.32,27.98L336.98,27.95L337.66,27.50L339.39,26.72ZM334.65,21.58L333.86,21.90L333.77,22.09L332.72,22.60L332.26,23.05L329.84,23.66L329.46,23.89L329.55,24.05L329.31,24.18L326.92,24.30L325.56,24.08L325.52,23.99L326.03,23.84L325.66,23.40L326.79,23.12L327.26,22.83L326.36,23.03L326.25,23.00L326.48,22.86L325.77,22.73L325.07,22.83L324.62,23.07L319.68,23.37L318.66,23.29L318.95,23.08L318.51,22.90L318.76,22.86L318.70,22.77L320.24,22.58L320.44,22.01L321.77,21.44L321.77,21.21L322.24,21.16L320.36,20.82L318.71,20.32L319.23,20.14L322.40,19.81L325.54,19.86L328.10,19.60L330.37,20.05L329.83,20.30L328.73,20.37L328.50,20.61L328.79,20.84L329.91,20.98L331.08,21.38L332.48,21.46L333.08,21.27L334.12,21.19L334.57,21.40L334.65,21.58ZM319.37,19.77L318.36,19.73L317.68,19.88L317.59,19.83L318.33,19.51L318.03,19.38L316.88,19.32L317.80,19.18L317.74,18.98L315.46,18.59L318.69,18.21L319.36,18.27L320.07,17.90L321.17,17.94L321.51,18.16L322.83,18.02L323.49,18.19L324.05,18.02L324.35,18.35L324.82,18.53L324.64,18.75L324.85,19.09L324.82,19.48L324.98,19.55L319.54,19.86L319.37,19.77ZM346.32,17.55L346.01,17.74L345.05,17.89L344.82,17.69L343.83,17.51L343.51,17.20L343.72,17.05L344.50,17.05L345.21,17.43L346.32,17.55ZM279.47,19.69L279.56,19.81L279.46,19.86L278.34,19.70L277.99,19.51L278.14,19.36L275.88,18.71L274.88,18.75L273.96,17.96L273.37,17.71L273.47,17.61L272.30,17.22L272.20,17.14L272.39,16.89L272.01,16.67L272.36,16.58L273.63,16.72L274.33,16.93L274.29,17.11L275.16,17.39L274.60,17.58L275.56,17.96L275.48,18.08L275.67,18.18L275.50,18.34L276.34,18.25L276.89,18.55L278.25,18.71L278.38,18.77L278.33,18.96L279.28,19.42L279.47,19.69ZM357.19,16.60L358.20,16.53L358.39,16.64L356.72,16.86L354.63,16.57L352.38,16.73L351.18,16.98L350.01,16.89L351.40,16.54L352.36,16.53L352.65,16.42L352.60,16.32L354.26,16.33L355.50,16.61L357.19,16.60ZM360.02,16.13L361.22,16.19L360.32,16.31L360.02,16.13ZM315.22,15.59L316.87,15.58L318.51,15.91L316.38,16.19L314.97,15.97L315.38,15.89L315.27,15.76L315.40,15.62L315.22,15.59ZM315.03,14.42L315.57,14.53L313.43,14.61L313.24,14.56L313.34,14.42L313.09,14.36L315.03,14.42ZM274.48,12.90L274.36,13.00L274.66,13.09L273.53,13.16L273.15,13.00L273.65,12.97L273.03,12.84L274.48,12.90ZM273.06,12.74L272.74,12.65L273.74,12.57L274.39,12.74L273.06,12.74ZM315.71,17.84L315.00,17.87L314.91,17.99L313.71,17.90L312.90,18.10L313.34,18.41L310.11,18.69L310.58,19.04L310.07,19.48L310.66,19.72L309.92,19.96L310.72,20.30L309.43,20.65L308.40,20.53L307.61,20.68L308.04,20.87L307.27,21.22L307.75,21.44L307.83,21.82L307.37,22.25L307.37,22.49L307.06,22.71L307.13,22.99L306.66,23.13L304.65,23.09L304.46,23.31L304.10,23.34L304.22,23.48L303.49,23.91L303.54,24.22L303.20,24.50L303.30,24.70L302.96,24.86L302.81,25.18L301.73,25.14L302.75,25.49L301.69,25.97L301.57,26.15L300.93,26.35L301.90,26.54L302.19,26.69L302.16,26.79L301.34,27.08L301.26,27.24L300.44,27.39L299.45,27.34L299.33,27.21L298.73,27.14L298.34,27.37L298.13,27.26L298.31,27.16L298.31,26.98L298.10,26.91L298.07,26.74L296.54,26.50L295.37,26.08L294.56,25.96L294.68,25.83L295.79,25.61L297.64,25.51L297.88,25.71L298.28,25.65L298.28,25.47L299.17,25.39L297.96,25.43L297.21,25.27L296.93,25.00L296.16,25.08L296.40,25.30L296.29,25.32L293.86,25.35L292.99,25.17L292.86,25.08L292.93,25.00L292.53,24.95L292.64,24.86L292.49,24.77L289.82,24.56L289.21,24.27L289.26,24.10L288.52,24.04L288.43,23.92L288.55,23.78L287.69,23.50L287.63,23.31L288.06,23.31L287.44,23.09L287.41,22.93L289.79,22.69L290.49,22.93L290.18,23.05L290.27,23.12L291.01,23.11L291.29,22.86L292.50,22.78L296.14,22.94L297.36,23.35L297.79,23.36L297.67,23.24L298.19,23.24L296.11,22.72L291.78,22.55L291.14,22.33L298.30,21.71L300.71,21.65L301.85,21.79L300.76,21.60L300.35,21.35L300.84,21.35L301.27,21.22L301.12,21.13L301.33,21.06L300.22,21.19L299.87,21.40L295.83,21.54L294.80,21.33L293.69,21.44L292.71,21.74L290.82,21.85L290.37,21.73L290.15,21.79L290.65,21.85L289.87,21.90L288.60,21.78L287.62,22.07L286.63,21.93L286.55,21.85L287.01,21.70L286.24,21.47L286.33,21.27L286.15,20.97L286.33,20.81L285.97,20.52L287.62,20.34L289.30,20.94L289.43,20.87L289.37,20.69L288.86,20.35L292.46,20.24L292.28,20.15L294.18,19.68L295.42,19.79L295.58,19.70L294.96,19.45L295.88,19.20L301.01,19.15L302.62,18.78L300.62,19.00L299.62,18.91L299.36,18.72L298.28,18.69L300.03,17.86L300.52,17.79L300.52,17.67L300.34,17.65L299.62,17.68L299.29,17.46L298.44,17.77L298.47,17.92L298.23,18.16L296.99,18.38L297.01,18.50L296.81,18.55L294.28,18.66L293.84,18.55L293.17,18.06L294.11,17.93L294.40,17.76L294.55,17.43L294.22,17.14L294.49,17.05L294.02,16.85L293.20,17.36L293.29,17.65L293.48,17.71L292.57,17.79L292.40,17.93L292.49,17.96L292.23,18.02L291.41,17.81L291.63,17.61L291.47,17.39L289.81,17.65L290.25,17.74L290.25,18.07L290.46,18.22L289.54,18.47L290.69,18.69L291.11,18.98L289.10,18.99L288.92,19.10L289.26,19.36L288.15,19.66L287.99,19.64L288.25,19.45L287.66,19.48L287.56,19.73L286.67,19.55L287.16,19.80L283.99,19.73L283.36,19.84L282.92,19.64L283.13,19.55L283.10,19.42L282.67,19.29L282.89,19.29L282.81,19.18L281.78,19.04L280.45,18.53L283.33,18.43L284.21,18.28L280.76,18.27L280.39,18.03L278.39,17.84L278.12,17.54L277.22,17.33L277.84,16.97L278.54,16.98L278.38,16.88L276.87,16.69L275.83,16.29L276.88,16.23L279.94,16.62L281.10,16.57L280.73,16.18L279.12,16.28L278.73,16.23L279.31,16.16L277.40,15.85L278.30,15.56L278.14,15.50L278.60,15.24L279.44,15.18L279.10,15.05L279.34,14.96L279.34,14.77L278.08,14.80L278.45,15.05L278.16,15.12L277.59,14.88L277.44,14.68L277.00,14.74L276.82,14.87L277.58,15.30L275.36,15.70L275.16,15.59L275.25,15.57L274.97,15.07L273.62,14.45L273.96,14.39L273.68,14.27L273.96,14.14L273.88,13.99L272.88,13.66L275.16,13.57L273.68,13.41L274.39,13.17L276.39,13.25L275.29,12.90L275.22,12.84L275.40,12.65L275.19,12.59L275.35,12.53L276.69,12.63L276.85,12.53L276.69,12.43L278.03,12.27L279.13,12.87L279.03,12.97L279.47,13.06L279.59,12.89L280.16,13.10L280.34,13.07L280.40,12.85L279.74,12.68L279.56,12.43L279.74,12.30L280.58,12.32L281.22,12.53L281.04,12.68L281.24,12.72L283.59,12.34L286.90,12.10L287.59,12.30L287.69,12.59L286.64,12.91L283.38,12.97L280.85,13.54L281.42,13.63L283.47,13.41L285.35,13.43L285.53,13.54L284.93,13.78L284.52,13.76L284.61,13.89L284.48,13.98L285.37,14.14L285.50,14.07L285.29,13.95L286.09,13.95L287.44,14.48L287.36,14.81L288.00,14.94L288.52,14.58L287.88,14.30L288.03,14.20L287.29,13.66L288.15,13.37L289.07,13.32L288.46,13.25L289.19,13.06L288.92,13.03L290.28,12.42L291.67,12.60L292.71,13.11L293.63,13.38L293.53,13.45L293.63,13.69L293.97,13.85L293.95,13.99L294.54,14.64L295.78,15.05L295.85,15.15L295.26,15.47L295.37,15.65L295.92,15.40L296.27,15.42L297.33,15.85L297.48,16.21L298.75,16.57L299.00,16.48L297.67,15.53L297.48,15.09L296.62,14.74L296.41,14.05L296.14,13.72L296.43,13.57L296.05,13.49L295.20,12.62L295.33,12.53L295.23,12.24L295.52,12.12L297.42,12.15L296.60,11.80L297.05,11.57L296.90,11.48L298.12,11.24L299.30,11.35L299.46,11.56L300.00,11.76L299.97,11.96L300.48,12.12L300.78,12.13L300.90,12.05L300.71,11.86L301.13,11.72L302.50,11.80L303.82,12.02L306.23,12.81L306.09,12.96L304.66,13.38L304.75,13.41L304.60,13.55L303.95,13.63L304.66,13.63L304.81,13.89L304.69,14.06L304.78,14.20L304.13,14.36L304.23,14.46L305.25,14.31L305.80,14.06L306.26,13.45L307.34,13.26L309.05,13.66L309.27,13.96L309.75,14.13L309.65,14.28L309.89,14.36L309.55,14.52L309.74,14.71L308.44,14.96L309.58,14.99L310.04,15.15L309.90,15.33L310.03,15.44L311.17,15.47L311.73,15.29L313.03,15.46L313.81,15.40L314.04,15.47L313.85,15.57L314.00,15.73L314.48,15.89L314.35,16.10L314.91,16.07L316.80,16.41L321.72,16.93L321.55,17.12L321.75,17.20L320.88,17.55L320.99,17.74L319.84,17.71L319.71,17.83L317.88,17.58L317.37,17.87L315.71,17.84ZM373.63,10.50L374.53,10.41L376.06,10.53L372.43,10.94L366.95,11.22L366.34,11.07L373.63,10.50ZM307.12,10.28L306.32,10.21L307.21,9.87L309.18,10.15L307.99,10.45L307.12,10.28ZM333.51,9.49L333.84,9.46L334.46,9.74L333.50,9.78L333.32,9.68L333.51,9.49ZM334.06,9.30L333.72,9.38L332.64,9.27L333.53,9.19L334.06,9.30ZM346.99,11.21L346.84,11.35L346.99,11.42L346.68,11.67L347.24,11.90L347.16,12.13L345.58,12.33L342.73,13.08L340.95,13.28L340.87,13.35L341.59,13.79L340.94,14.02L340.96,14.12L338.06,14.61L337.13,14.62L336.88,14.42L334.04,14.74L333.91,15.05L332.98,15.29L327.92,15.14L326.66,14.74L326.70,14.48L327.78,14.23L322.46,14.45L321.52,14.33L318.44,14.42L318.33,14.36L318.61,14.30L318.05,14.05L315.66,14.00L313.36,13.61L313.12,13.34L315.71,13.19L316.63,13.43L319.96,13.54L317.69,13.27L316.91,13.00L323.09,12.90L323.04,12.78L323.28,12.69L325.32,12.53L325.05,12.45L322.85,12.62L323.01,12.55L322.57,12.55L323.25,12.36L315.55,12.54L313.57,12.82L309.31,12.83L308.85,12.53L307.86,12.53L306.83,12.06L306.29,11.99L307.11,11.80L308.59,11.75L308.84,11.64L308.29,11.64L308.79,11.50L309.33,11.67L309.42,11.58L309.30,11.51L309.98,11.29L309.54,11.41L306.84,11.33L306.47,11.16L307.42,11.16L306.45,11.10L305.89,10.91L305.76,11.01L304.81,10.91L305.95,10.66L308.85,10.80L309.24,10.69L308.93,10.59L309.87,10.68L311.50,11.16L312.07,10.91L312.91,10.85L311.29,10.64L310.75,10.36L310.65,10.13L310.20,9.96L310.43,9.90L311.79,10.04L313.30,10.55L314.11,10.53L313.49,10.41L314.04,10.21L313.74,10.06L314.14,9.96L313.74,9.93L314.39,9.77L312.39,9.66L312.36,9.46L312.53,9.37L313.31,9.52L313.13,9.33L313.23,9.22L314.94,9.39L314.85,9.49L315.12,9.55L315.25,9.80L315.63,9.61L316.52,9.60L317.22,9.90L317.12,10.03L317.43,10.15L318.54,10.12L318.14,10.31L318.60,10.56L320.73,10.34L320.61,10.44L320.82,10.56L321.65,10.29L322.18,10.45L322.42,10.44L322.21,10.38L322.31,10.28L323.07,10.30L323.30,10.57L321.96,10.97L322.98,10.85L324.05,11.04L324.73,11.35L324.55,11.45L324.76,11.51L324.64,11.61L325.03,11.63L325.41,11.51L325.19,11.39L325.40,11.34L325.90,11.48L325.32,11.23L325.84,11.23L325.44,11.04L325.85,10.53L325.78,10.34L326.35,10.17L325.43,9.98L325.28,9.78L325.81,9.52L326.82,9.58L326.51,9.90L327.13,10.03L326.89,9.90L327.50,9.65L327.31,9.43L327.38,9.33L327.13,9.22L327.27,9.16L329.87,9.55L328.80,9.74L329.84,9.99L329.58,10.04L329.58,10.25L328.50,10.40L328.28,10.80L328.80,11.01L329.29,10.97L328.64,10.76L329.35,10.78L329.27,10.67L329.63,10.66L330.04,10.89L330.18,10.82L330.04,10.61L330.37,10.57L330.49,10.66L330.34,10.76L330.80,10.93L331.87,10.70L332.00,10.63L331.53,10.47L331.81,10.41L331.47,10.34L331.69,10.12L332.81,10.30L332.27,10.12L333.60,10.28L334.25,10.23L334.43,10.19L334.12,10.09L334.55,10.06L333.41,9.93L333.91,9.82L335.45,10.09L334.86,10.19L334.95,10.25L334.83,10.31L335.09,10.37L336.01,10.19L336.47,9.91L336.74,10.06L336.25,10.41L338.84,10.25L338.25,10.38L338.67,10.51L339.70,10.44L340.00,10.63L340.75,10.57L340.40,10.76L345.36,10.75L346.24,11.02L347.30,11.10L346.99,11.21ZM314.35,9.30L314.11,9.22L314.59,9.06L315.37,9.17L314.35,9.30ZM318.18,8.67L317.00,8.51L318.33,8.51L318.18,8.67ZM320.05,8.51L319.67,8.52L319.37,8.35L320.76,8.29L320.91,8.41L320.05,8.51ZM317.62,8.16L317.10,8.00L319.28,8.25L318.46,8.41L318.39,8.29L317.80,8.29L317.62,8.16Z"><title>Svalbard</title></path>
<path data-code="NO-X01~" data-name="Bouvet Island" d="M240.44,631.70L240.57,631.75L240.49,631.93L239.96,632.00L240.08,631.70L240.44,631.70Z"><title>Bouvet Island</title></path>
<path data-code="NO-05" data-name="Oppland" d="M275.07,100.97L274.76,101.39L273.71,101.58L273.06,101.43L272.91,101.78L273.57,101.84L273.98,102.19L273.43,102.68L273.23,103.07L272.89,103.13L271.33,102.55L270.85,102.01L270.59,101.39L270.03,100.82L269.58,100.80L269.55,101.00L269.03,101.11L269.08,101.60L268.30,101.47L268.07,101.25L267.19,101.14L267.18,100.94L266.61,100.20L264.86,99.63L263.83,99.46L263.57,99.21L262.11,98.68L261.74,98.89L261.06,98.16L261.77,97.67L261.49,97.26L262.24,97.15L261.77,96.81L260.81,96.57L260.26,95.79L258.57,95.72L258.13,95.17L258.18,94.60L257.83,94.38L258.59,94.15L259.11,94.19L259.11,94.05L259.70,93.69L260.72,93.73L261.17,93.49L261.54,93.02L262.69,92.86L265.75,92.86L268.03,93.35L268.86,93.29L268.31,93.83L269.40,94.27L268.98,94.53L268.99,94.94L269.83,95.15L269.86,95.02L270.22,95.05L270.32,95.31L270.10,95.74L271.59,96.08L272.17,95.83L272.57,95.84L272.93,97.01L273.67,97.93L271.86,99.01L273.12,99.76L273.11,100.13L275.07,100.97Z"><title>Oppland</title></path>
  </g>
</svg>
