<?xml version="1.0" encoding="UTF-8"?>
<svg xmlns="http://www.w3.org/2000/svg" viewBox="0 0 560 640" class="pref-muni-svg" role="img" aria-label="行政区分">
  <g class="pref-muni-svg__paths" fill="#eaf2fb" stroke="#5b7fa8" stroke-width="0.6" stroke-linejoin="round">
<path data-code="OM-MU" data-name="Musandam" d="M306.22,77.93L305.94,79.69L300.45,82.82L297.79,82.62L297.84,80.41L300.01,78.96L299.34,76.75L300.95,75.56L306.22,77.93ZM301.09,80.80L302.60,79.35L301.22,78.75L301.09,80.80ZM294.51,54.62L293.84,49.84L295.67,47.75L293.74,44.06L295.58,40.61L296.35,31.79L295.12,28.01L290.03,28.81L290.87,25.90L296.25,16.96L297.83,15.87L298.08,19.41L301.32,18.15L302.99,20.28L307.29,18.53L309.50,18.97L308.93,17.40L307.34,17.09L303.80,18.53L304.25,14.12L306.78,15.75L307.10,14.82L304.62,12.89L306.65,11.10L307.10,8.00L308.28,9.75L309.50,8.88L309.95,10.62L312.96,11.47L314.46,11.50L314.01,10.18L315.27,9.75L315.75,11.99L312.40,12.33L309.17,15.51L311.18,17.38L313.80,16.76L314.46,17.66L312.81,19.78L312.43,18.53L311.16,18.53L311.16,20.28L314.01,23.38L310.00,22.57L309.50,20.76L307.91,21.59L308.73,19.84L307.37,19.62L305.01,21.65L305.44,25.57L307.10,23.38L307.10,26.00L313.60,26.40L308.07,30.27L308.28,31.29L309.78,30.52L310.62,31.24L310.65,32.42L309.28,33.33L310.57,35.50L312.43,36.10L311.58,37.45L309.72,36.73L308.28,37.45L309.22,38.97L307.10,43.10L307.10,45.09L303.40,49.26L303.40,47.90L301.73,51.35L302.05,56.58L298.62,57.45L294.51,54.62Z"><title>Musandam</title></path>
<path data-code="OM-BA" data-name="Al Batnah North" d="M290.07,114.07L292.47,113.71L295.62,108.03L299.82,106.85L303.79,103.47L305.02,98.51L308.26,98.16L309.58,103.34L314.04,111.80L314.83,115.96L321.84,129.02L333.17,141.40L335.53,146.47L341.40,153.38L355.98,165.01L376.74,171.72L369.82,183.69L362.09,190.20L354.75,192.57L337.54,193.42L336.49,192.07L330.99,171.28L313.31,155.86L304.05,151.82L303.67,146.27L297.82,126.71L289.91,116.67L290.07,114.07Z"><title>Al Batnah North</title></path>
<path data-code="OM-BU" data-name="Al Buraymi" d="M281.58,98.19L285.76,99.57L287.17,105.65L284.14,104.05L282.90,105.17L285.55,108.10L287.30,112.51L289.97,114.05L289.91,116.67L297.82,126.71L303.67,146.27L304.05,151.82L302.03,158.19L294.98,158.19L286.27,159.98L282.95,162.20L282.95,167.55L279.22,169.34L276.73,172.46L278.80,181.82L274.65,184.49L266.77,186.72L260.55,190.29L252.37,189.48L254.34,181.53L257.92,175.53L257.46,168.83L253.34,165.25L253.06,163.16L264.38,159.20L271.27,159.00L273.93,160.32L284.64,156.62L285.29,155.60L281.44,146.67L279.65,145.93L275.31,147.21L271.58,146.40L270.77,145.08L273.95,138.98L274.15,135.88L271.99,133.53L271.11,125.03L274.59,119.60L273.19,115.72L272.83,106.03L275.26,101.81L279.28,98.77L281.58,98.19Z"><title>Al Buraymi</title></path>
<path data-code="OM-ZA" data-name="Al Dhahira" d="M236.97,243.83L237.45,223.24L239.30,217.08L244.97,207.23L248.20,194.79L252.37,189.48L260.55,190.29L266.77,186.72L274.65,184.49L278.80,181.82L276.73,172.46L279.22,169.34L282.95,167.55L282.95,162.20L286.27,159.98L294.98,158.19L302.03,158.19L304.05,151.82L313.31,155.86L330.99,171.28L336.49,192.07L337.54,193.42L326.10,244.22L316.63,272.63L304.82,287.91L261.60,297.47L263.83,290.23L263.18,287.36L236.97,243.83Z"><title>Al Dhahira</title></path>
<path data-code="OM-ZU" data-name="Dhofar" d="M46.25,482.31L45.83,481.29L224.55,417.27L246.37,346.72L319.82,470.41L371.53,484.51L349.99,488.93L339.94,493.16L332.17,498.40L323.62,509.24L323.81,515.11L321.90,519.46L321.21,525.50L318.12,532.90L318.86,535.50L316.86,537.71L312.98,539.65L311.16,543.00L306.73,546.99L306.65,548.90L296.65,547.80L292.35,549.12L287.28,548.68L280.03,551.04L264.78,551.76L252.36,555.24L247.86,564.50L241.52,570.18L239.44,574.59L239.52,577.81L243.76,582.40L243.37,586.55L240.81,590.53L241.35,594.09L238.91,595.62L237.12,599.83L234.40,600.91L233.28,603.18L227.44,608.39L226.49,607.42L224.37,609.26L213.44,612.21L212.77,611.41L210.32,611.89L207.84,611.01L206.42,607.83L201.54,606.63L193.77,607.51L189.50,606.57L188.28,607.51L171.32,608.39L167.02,610.53L166.83,613.10L165.14,614.94L151.56,617.57L146.56,622.93L143.35,624.60L126.86,626.08L112.06,632.00L94.86,591.97L90.09,590.00L46.25,482.31ZM275.66,577.66L275.72,576.43L277.26,575.87L278.92,576.78L275.66,577.66ZM288.72,573.25L289.47,575.01L291.12,575.87L288.22,577.50L283.80,577.18L283.29,575.80L288.72,573.25Z"><title>Dhofar</title></path>
<path data-code="OM-WU" data-name="Al Wusta" d="M246.37,346.72L261.60,297.47L304.82,287.91L428.23,350.10L419.78,377.95L416.84,377.69L409.99,380.67L408.59,384.24L409.10,386.23L404.25,388.65L401.95,391.38L403.03,394.41L402.59,395.82L396.86,399.23L394.08,404.09L395.53,409.81L393.48,418.45L390.41,427.03L386.07,434.38L387.90,439.19L386.97,445.87L391.11,454.78L389.73,463.85L393.37,470.97L392.79,474.94L395.06,480.03L392.73,482.25L389.82,482.74L387.29,484.60L371.53,484.51L319.82,470.41L246.37,346.72Z"><title>Al Wusta</title></path>
<path data-code="OM-SH" data-name="Ash Sharqiyah South" d="M492.99,249.26L496.07,251.55L495.77,252.38L494.88,252.03L495.33,253.34L501.51,251.75L505.50,254.21L507.13,254.21L507.54,256.38L508.62,257.15L509.60,256.96L508.60,254.42L512.02,254.64L514.17,258.45L512.53,273.69L507.94,281.00L505.16,283.59L502.61,293.64L500.25,294.64L493.83,304.49L490.89,312.91L485.31,321.83L484.67,324.45L474.07,329.70L467.40,335.18L455.48,348.73L452.72,353.52L451.83,357.58L443.98,365.97L445.49,368.33L448.04,366.58L447.96,367.86L446.28,369.53L444.29,369.17L443.03,372.71L439.84,375.73L435.48,390.28L433.39,391.09L431.14,394.00L425.98,392.53L421.00,393.37L421.24,392.33L416.67,391.05L417.30,387.17L418.56,389.84L418.18,385.67L420.17,381.23L419.78,377.95L428.23,350.10L421.86,346.81L409.49,307.42L467.23,286.42L487.49,275.45L490.39,267.77L490.96,259.20L489.75,252.68L492.99,249.26ZM458.58,376.88L461.19,384.38L454.87,388.96L452.74,392.66L451.36,399.07L447.74,403.19L445.77,403.67L443.44,406.05L442.47,399.23L443.20,393.35L445.92,390.90L446.33,389.36L450.39,388.05L451.98,382.49L455.40,377.69L457.17,373.26L458.58,372.27L459.30,373.33L458.58,376.88Z"><title>Ash Sharqiyah South</title></path>
<path data-code="OM-SS" data-name="Ash Sharqiyah North" d="M479.60,231.86L481.89,238.12L485.12,240.14L488.63,245.93L492.99,249.26L489.75,252.68L490.96,259.20L490.39,267.77L487.49,275.45L467.23,286.42L409.49,307.42L394.71,255.39L400.58,243.15L414.24,232.43L417.90,232.00L427.81,225.65L436.82,223.42L454.69,235.47L474.28,238.05L479.60,231.86Z"><title>Ash Sharqiyah North</title></path>
<path data-code="OM-MA" data-name="Muscat" d="M412.42,179.16L418.13,181.35L421.41,184.41L423.48,185.08L431.57,184.88L433.83,182.80L439.39,183.41L443.85,188.82L445.12,188.82L446.70,190.57L447.51,189.70L447.96,191.01L449.99,190.13L451.83,193.10L452.70,197.88L459.96,204.47L461.56,208.23L464.27,211.24L464.76,215.03L468.56,218.87L469.40,221.75L476.53,226.74L479.60,231.86L474.28,238.05L454.69,235.47L436.82,223.42L439.60,208.87L424.54,193.55L411.63,195.25L410.11,188.93L412.42,179.16Z"><title>Muscat</title></path>
<path data-code="OM-BJ" data-name="Al Batnah South" d="M376.74,171.72L383.44,174.22L392.41,174.75L394.75,177.45L397.89,178.68L412.42,179.16L410.11,188.93L411.63,195.25L398.65,205.88L396.85,209.84L381.57,212.31L372.41,210.42L354.75,192.57L362.09,190.20L369.82,183.69L376.74,171.72Z"><title>Al Batnah South</title></path>
<path data-code="OM-DA" data-name="Ad Dakhliyah" d="M409.49,307.42L421.86,346.81L304.82,287.91L316.63,272.63L326.10,244.22L337.54,193.42L354.75,192.57L372.41,210.42L381.57,212.31L396.85,209.84L398.65,205.88L411.63,195.25L424.54,193.55L439.60,208.87L436.82,223.42L427.81,225.65L417.90,232.00L414.24,232.43L400.58,243.15L394.71,255.39L409.49,307.42Z"><title>Ad Dakhliyah</title></path>
  </g>
</svg>
