<?xml version="1.0" encoding="UTF-8"?>
<svg xmlns="http://www.w3.org/2000/svg" viewBox="0 0 560 640" class="pref-muni-svg" role="img" aria-label="行政区分">
  <g class="pref-muni-svg__paths" fill="#eaf2fb" stroke="#5b7fa8" stroke-width="0.6" stroke-linejoin="round">
<path data-code="PA-1" data-name="Bocas del Toro" d="M28.61,209.32L39.45,214.71L42.55,219.12L46.80,220.34L48.62,218.96L49.66,214.37L53.20,215.30L52.20,211.80L67.63,224.96L71.11,226.85L73.53,225.21L70.14,233.50L72.96,238.08L69.39,238.89L68.83,241.13L76.11,248.28L79.10,246.73L78.00,245.03L81.59,248.55L82.47,245.67L83.85,247.51L85.56,245.06L86.89,245.03L88.15,247.59L89.41,246.95L88.78,252.05L84.49,249.76L81.11,250.28L81.78,255.29L79.90,254.72L83.11,258.20L82.47,264.28L81.16,263.64L84.98,266.22L92.10,266.64L95.78,271.99L104.57,270.59L103.72,273.13L92.99,274.88L88.66,280.14L85.88,275.06L86.58,269.81L75.49,264.73L75.84,261.93L79.30,258.08L76.01,256.32L75.32,253.70L72.55,259.83L64.58,265.60L70.99,268.58L74.28,272.61L71.66,283.46L64.00,279.94L56.26,278.40L52.75,274.97L41.20,275.47L35.99,268.02L23.67,261.37L22.03,258.88L18.41,260.04L18.20,222.99L18.97,221.68L27.00,219.61L23.97,213.32L25.19,210.97L28.61,209.32ZM93.83,235.47L98.30,238.66L94.65,239.15L92.37,242.70L90.93,241.48L90.47,235.43L85.63,232.98L90.73,232.98L93.83,235.47ZM74.85,227.12L80.58,224.58L83.78,230.74L82.47,234.78L74.85,227.12ZM100.83,249.49L100.40,248.59L104.22,252.39L102.69,253.19L100.57,251.98L100.83,249.49Z"><title>Bocas del Toro</title></path>
<path data-code="PA-4" data-name="Chiriquí" d="M13.81,334.29L8.74,330.47L8.00,328.39L17.11,321.44L24.78,318.08L27.69,312.80L26.69,300.17L20.28,291.09L19.93,288.37L24.29,284.85L23.13,282.70L24.03,281.50L34.64,276.81L38.67,273.05L41.20,275.47L52.75,274.97L56.26,278.40L64.00,279.94L77.50,285.95L91.04,287.77L92.29,293.27L90.73,303.91L91.99,306.95L88.55,316.23L92.92,317.04L99.23,315.89L105.46,327.24L118.45,328.47L120.89,329.25L125.12,334.33L129.94,334.51L132.48,331.44L133.86,331.27L134.71,333.09L136.98,332.67L142.87,324.26L146.96,322.97L149.30,323.56L150.41,332.73L149.95,336.01L141.97,345.44L138.63,357.94L136.27,359.24L133.73,353.89L133.10,357.02L130.53,352.61L135.00,352.61L128.63,341.08L127.30,343.15L128.63,344.27L125.48,347.46L109.64,341.11L111.55,337.20L107.19,341.01L103.97,338.53L99.62,339.35L94.51,337.20L92.04,344.04L90.73,344.27L91.94,339.11L87.83,340.38L84.94,338.53L86.26,337.20L84.98,330.57L86.26,330.18L85.92,327.98L88.15,326.94L84.36,327.28L82.79,330.87L79.59,330.11L79.32,326.94L72.96,327.63L73.53,330.18L68.23,332.09L65.17,330.57L66.65,328.85L65.39,325.72L62.18,329.55L63.44,332.73L61.70,333.11L57.92,333.17L44.32,328.85L30.49,331.38L25.52,335.26L24.16,338.53L24.56,346.30L26.74,352.61L24.18,356.76L22.27,355.74L23.31,349.44L18.02,335.78L15.77,333.96L13.81,334.29ZM85.63,340.39L81.78,340.09L82.47,342.99L76.03,338.92L79.90,337.20L85.63,340.39ZM73.53,334.71L76.11,336.56L69.49,339.11L65.39,334.71L68.06,334.97L72.86,331.57L75.95,333.09L73.53,334.71ZM71.75,350.88L73.49,347.47L75.57,346.82L75.79,349.66L71.75,350.88Z"><title>Chiriquí</title></path>
<path data-code="PA-KY" data-name="Kuna Yala" d="M532.58,296.91L531.48,298.88L526.99,300.32L527.44,303.65L523.72,308.77L521.27,305.75L516.62,303.88L513.58,297.84L503.70,288.21L501.27,282.99L490.07,274.91L482.84,265.89L473.29,258.76L470.77,258.76L468.02,255.07L460.03,252.53L461.23,249.47L460.05,246.64L458.22,247.85L450.96,247.78L447.40,241.57L443.39,243.43L436.94,242.85L433.23,236.45L431.74,235.62L429.77,236.78L427.33,232.95L418.35,235.93L409.14,230.66L407.44,233.43L404.00,230.91L394.21,232.04L382.60,235.99L382.50,239.07L381.30,239.68L375.69,239.70L369.09,236.65L357.19,239.50L356.55,237.28L369.20,230.32L371.16,225.31L375.40,222.90L375.44,213.12L381.13,212.35L385.04,212.07L386.27,213.87L377.26,215.93L376.24,217.63L376.96,222.84L386.71,223.15L391.26,226.11L394.81,226.16L407.43,223.12L409.89,225.05L417.43,226.49L422.85,224.70L434.27,227.84L455.49,238.49L471.30,243.53L488.03,260.53L486.01,254.50L487.63,255.29L498.03,268.17L497.41,270.68L500.50,275.66L502.72,276.12L510.33,283.46L508.97,280.13L515.41,288.04L516.86,286.63L516.76,292.26L517.92,293.32L523.02,296.43L530.63,295.64L532.58,296.91Z"><title>Kuna Yala</title></path>
<path data-code="PA-EM" data-name="Emberá" d="M523.72,308.77L521.93,314.76L528.07,316.37L530.94,322.24L532.50,331.97L537.12,334.60L542.19,343.33L517.33,351.36L511.53,347.27L509.30,340.34L499.49,334.87L499.16,332.14L493.80,326.46L491.58,321.51L492.22,317.33L489.48,312.43L486.18,310.28L486.51,307.07L483.15,300.93L491.17,290.55L498.06,286.77L503.11,286.86L513.58,297.84L516.62,303.88L521.27,305.75L523.72,308.77ZM457.76,350.25L466.22,361.54L467.03,366.67L471.47,363.57L473.21,365.40L476.46,377.29L479.04,379.61L479.35,394.59L475.55,397.25L472.96,394.69L470.24,397.29L468.01,396.20L466.39,391.47L461.93,389.12L458.12,390.24L456.51,389.07L452.07,384.12L446.63,372.09L444.48,370.21L444.28,362.75L450.92,359.35L453.85,360.44L456.04,358.87L453.88,352.51L457.76,350.25Z"><title>Emberá</title></path>
<path data-code="PA-5" data-name="Darién" d="M542.19,343.33L545.74,349.77L548.50,360.67L552.00,364.66L539.33,368.13L531.99,380.05L535.70,386.33L520.03,396.89L513.50,403.03L510.43,402.18L509.30,397.51L504.74,392.17L504.27,389.72L498.70,385.24L496.49,386.47L496.34,393.87L499.53,402.85L497.33,406.98L491.32,407.87L484.33,430.42L482.20,429.81L473.37,420.53L473.37,415.62L471.39,415.67L470.69,412.94L468.65,413.36L463.86,408.90L460.33,403.10L459.36,404.50L458.61,398.64L456.74,399.01L456.55,400.67L456.20,395.74L447.72,387.80L449.01,383.51L444.27,373.63L438.26,366.70L434.41,353.54L437.08,349.44L438.15,352.46L442.04,351.92L444.66,353.30L451.41,348.02L452.59,342.70L446.46,335.28L450.93,334.71L449.61,332.73L450.93,331.46L453.39,333.37L456.26,333.37L460.33,322.18L462.47,321.14L463.54,325.72L469.99,328.87L474.47,336.86L478.28,336.76L481.26,339.11L482.52,338.53L478.16,335.28L485.24,337.07L489.02,340.07L490.48,343.79L493.43,344.26L495.20,348.18L498.13,348.12L498.98,346.82L496.40,346.84L493.01,342.70L491.41,342.99L485.73,336.27L472.56,331.86L468.51,321.38L469.91,319.98L466.01,316.10L466.56,311.10L462.29,306.53L463.20,310.65L464.89,311.55L466.01,320.62L462.56,316.21L460.21,315.45L457.26,321.10L452.48,323.17L451.35,322.13L452.04,319.98L455.97,319.35L454.08,308.39L452.75,309.72L454.71,312.27L454.08,318.07L452.77,318.65L450.93,316.79L452.50,313.67L450.93,312.27L448.98,317.37L447.49,317.59L445.83,313.55L443.77,317.32L440.78,319.35L438.83,309.09L437.57,309.72L437.00,307.81L439.22,319.21L441.36,322.18L438.83,327.63L436.86,326.02L432.35,306.66L435.15,293.38L433.03,282.44L439.69,280.10L446.16,283.65L449.64,279.36L458.54,277.56L462.03,273.61L466.94,271.73L468.37,262.37L470.77,258.76L473.29,258.76L482.84,265.89L490.07,274.91L497.61,279.60L502.89,285.58L503.11,286.86L498.06,286.77L491.17,290.55L483.15,300.93L486.51,307.07L486.18,310.28L489.48,312.43L492.22,317.33L491.58,321.51L493.80,326.46L499.16,332.14L499.49,334.87L509.30,340.34L511.53,347.27L517.33,351.36L542.19,343.33ZM467.03,366.67L466.22,361.54L457.76,350.25L453.88,352.51L456.04,358.87L453.85,360.44L450.92,359.35L443.80,364.11L445.03,371.32L446.63,372.09L452.07,384.12L456.51,389.07L458.12,390.24L461.93,389.12L466.39,391.47L468.01,396.20L470.24,397.29L472.96,394.69L475.55,397.25L479.35,394.59L479.04,379.61L476.46,377.29L473.21,365.40L471.47,363.57L467.03,366.67Z"><title>Darién</title></path>
<path data-code="PA-8" data-name="Panama" d="M436.86,326.02L433.15,322.47L432.52,316.79L431.21,319.35L429.77,317.17L430.00,311.64L425.58,305.20L430.00,305.20L427.98,303.04L428.11,299.78L422.37,298.19L423.07,296.33L418.93,296.91L417.53,295.35L416.70,293.09L418.50,290.32L417.96,286.65L417.45,291.42L414.52,292.88L411.68,289.16L407.32,288.08L404.02,282.83L404.72,281.55L400.81,278.37L401.13,282.09L397.29,282.70L393.98,275.77L374.27,266.13L374.85,259.74L372.37,257.85L375.87,256.89L377.48,254.02L379.77,255.24L384.42,252.05L379.65,254.72L377.48,253.39L374.22,257.01L371.33,257.83L374.27,262.31L371.60,266.15L366.30,263.50L364.50,265.12L354.08,263.64L342.84,264.36L337.80,265.76L334.36,268.74L333.10,271.29L335.04,275.12L330.00,269.38L330.67,273.61L328.89,276.60L322.57,276.56L321.25,277.26L321.75,278.95L317.33,277.73L317.96,279.64L314.87,280.14L312.86,282.83L312.86,290.19L314.12,291.49L312.97,294.59L305.99,299.36L310.31,301.24L317.91,297.60L317.61,299.08L310.79,304.87L302.50,307.41L301.51,310.36L286.18,321.82L281.45,315.02L280.08,300.49L274.83,281.41L275.00,277.53L277.65,272.87L277.25,270.34L281.39,267.13L287.89,268.76L294.02,265.89L294.98,261.95L293.40,257.81L298.64,247.80L306.66,249.93L310.44,254.93L317.22,255.33L320.46,253.64L323.65,247.87L329.78,244.69L334.06,223.18L337.50,221.77L341.61,220.87L346.19,222.69L348.17,225.61L345.63,227.41L346.17,228.81L353.89,226.86L358.61,228.02L358.16,230.52L360.28,233.47L356.55,237.28L357.19,239.50L369.09,236.65L375.69,239.70L381.30,239.68L382.50,239.07L382.07,236.41L387.35,235.28L388.54,233.26L391.55,233.74L394.21,232.04L399.97,232.29L403.52,230.91L407.44,233.43L408.67,230.94L410.15,230.98L418.35,235.93L427.33,232.95L429.77,236.78L431.74,235.62L433.23,236.45L436.94,242.85L443.39,243.43L447.40,241.57L450.96,247.78L458.22,247.85L460.05,246.64L461.23,249.47L460.03,252.53L468.02,255.07L470.77,258.76L467.75,263.76L466.94,271.73L462.03,273.61L458.54,277.56L449.64,279.36L446.16,283.65L439.69,280.10L433.03,282.44L435.15,293.38L432.35,306.66L436.86,326.02ZM373.64,330.18L376.25,334.64L372.74,335.37L373.23,337.52L370.99,339.47L369.39,336.17L370.37,332.16L371.94,329.35L373.64,330.18ZM374.53,323.27L370.31,321.18L371.40,318.92L373.57,321.03L374.71,320.14L374.53,323.27ZM392.28,316.21L392.49,314.71L395.00,316.62L395.75,320.39L397.52,321.82L396.37,324.57L397.62,326.98L395.44,331.36L391.44,330.14L389.67,332.60L391.20,338.52L385.11,330.50L386.50,326.63L385.11,324.45L384.66,317.49L385.01,316.18L390.75,315.09L392.28,316.21ZM329.63,284.41L331.16,283.96L332.13,286.56L329.75,285.86L329.63,284.41Z"><title>Panama</title></path>
<path data-code="PA-2" data-name="Coclé" d="M286.18,321.82L269.17,330.87L259.07,332.09L254.31,329.91L245.77,340.09L245.75,350.46L241.32,348.12L239.19,349.08L235.33,346.05L228.73,347.40L222.14,343.72L225.89,330.10L220.05,316.95L214.01,308.77L218.01,307.32L221.64,301.53L223.82,301.67L225.75,299.06L225.75,294.20L229.75,287.36L235.80,287.11L239.84,285.12L239.86,276.75L241.55,272.62L253.95,276.96L258.38,277.13L270.13,266.93L272.19,261.17L274.20,267.81L277.25,270.34L277.65,272.87L275.00,277.53L274.83,281.41L280.08,300.49L281.45,315.02L286.18,321.82Z"><title>Coclé</title></path>
<path data-code="PA-9" data-name="Veraguas" d="M122.95,425.53L126.74,425.53L123.59,430.05L124.27,431.27L122.17,427.04L121.90,425.41L122.95,425.53ZM183.79,399.97L189.47,398.06L194.52,398.64L190.64,402.38L185.63,401.45L179.95,406.29L174.30,406.57L176.99,403.71L181.46,402.74L183.79,399.97ZM136.20,415.27L140.11,415.59L143.25,421.07L137.58,422.35L128.63,419.79L119.80,412.14L116.73,406.57L116.02,404.11L119.17,403.79L121.41,397.71L128.05,394.81L127.37,392.21L129.32,392.21L132.41,401.88L135.51,403.22L135.63,404.72L132.13,406.29L131.15,410.11L134.34,415.49L136.20,415.27ZM177.89,285.05L191.04,283.64L210.26,276.34L212.29,282.33L219.60,286.20L222.18,289.46L221.41,294.48L223.08,298.65L218.01,307.32L214.01,308.77L220.05,316.95L225.89,330.10L221.76,342.11L226.48,346.60L221.40,346.87L217.80,350.77L211.10,353.39L212.54,357.50L211.43,360.78L202.80,368.19L202.47,378.75L202.86,380.86L205.01,380.30L207.03,382.03L208.73,387.44L215.85,398.10L223.46,402.92L223.89,409.52L227.73,417.26L228.23,422.23L233.29,425.68L234.14,430.27L224.07,432.16L211.60,431.91L210.34,433.16L207.32,429.64L204.06,428.42L207.58,418.74L204.85,415.76L205.42,409.91L200.63,404.75L202.53,400.48L199.50,397.36L200.19,396.09L193.76,390.58L195.00,388.29L197.04,388.37L193.57,385.88L195.15,382.64L192.50,382.33L189.62,379.61L190.35,377.54L195.61,375.55L195.72,374.35L193.06,375.55L192.62,367.28L189.22,372.26L187.58,370.46L189.47,373.71L179.80,371.75L179.10,368.92L177.43,368.56L178.69,369.88L177.69,371.03L181.21,373.39L180.64,375.45L182.36,378.69L177.43,384.55L177.43,381.94L174.85,381.94L177.43,385.19L174.85,385.19L176.17,387.10L179.32,385.88L179.72,386.93L179.32,393.53L177.43,395.51L170.67,391.61L158.39,389.71L155.93,386.52L151.06,386.82L148.87,384.55L152.42,382.41L148.79,381.35L147.67,383.27L144.46,381.36L145.06,379.90L143.25,377.25L145.15,372.44L142.00,372.44L142.15,369.72L140.05,369.25L140.95,365.39L142.56,366.00L140.68,363.45L141.30,360.26L139.47,360.68L140.06,363.85L139.07,364.04L136.27,359.24L138.63,357.94L142.34,344.79L150.17,335.54L149.01,317.54L152.43,303.24L159.65,306.83L167.22,306.87L173.04,311.21L178.79,313.03L183.15,312.71L178.12,304.24L176.99,288.23L177.89,285.05Z"><title>Veraguas</title></path>
<path data-code="PA-3" data-name="Colón" d="M236.43,258.07L252.23,252.32L262.92,251.47L277.97,246.35L289.87,235.67L291.89,231.67L294.80,230.79L295.14,236.11L298.35,236.80L299.68,232.32L301.51,233.56L301.85,227.86L306.70,229.09L309.07,232.98L309.07,226.55L318.53,219.30L319.75,214.65L322.13,213.34L319.31,212.89L324.10,208.78L331.43,206.84L333.10,207.30L334.36,212.46L335.68,211.13L339.46,212.46L340.15,209.91L364.43,215.21L375.44,213.12L375.04,223.49L371.16,225.31L368.65,230.86L360.22,235.68L360.22,232.29L358.16,230.52L359.04,228.57L357.67,227.57L353.89,226.86L345.73,228.63L348.03,225.21L345.40,222.07L341.61,220.87L334.06,223.18L329.33,245.22L323.65,247.87L320.46,253.64L317.22,255.33L310.44,254.93L306.66,249.93L298.64,247.80L293.40,257.81L294.51,264.86L291.30,267.68L287.89,268.76L281.39,267.13L277.25,270.34L274.20,267.81L272.19,261.17L270.13,266.93L258.38,277.13L253.95,276.96L241.55,272.62L239.86,276.75L239.84,285.12L235.80,287.11L229.75,287.36L225.75,294.20L225.75,299.06L223.82,301.67L221.64,301.53L223.08,298.65L221.41,294.48L222.18,289.46L219.60,286.20L212.29,282.33L210.26,276.34L213.97,275.81L222.81,265.86L236.43,258.07Z"><title>Colón</title></path>
<path data-code="PA-NB" data-name="Ngöbe Buglé" d="M104.57,270.59L109.02,271.99L114.09,268.30L117.45,270.34L118.84,269.50L124.27,271.99L125.93,271.18L126.05,265.84L119.80,262.31L116.55,257.45L111.34,253.54L116.94,253.51L117.91,252.37L113.48,249.90L116.02,248.84L122.32,254.72L119.80,255.29L121.74,259.01L127.18,259.65L130.95,262.61L139.60,275.03L147.77,283.07L162.32,284.27L164.50,285.67L177.89,285.05L176.99,288.23L178.12,304.24L183.15,312.71L178.79,313.03L173.04,311.21L167.22,306.87L159.65,306.83L152.43,303.24L149.01,317.54L149.30,323.56L142.87,324.26L136.98,332.67L134.71,333.09L133.86,331.27L132.48,331.44L129.94,334.51L125.12,334.33L120.89,329.25L105.46,327.24L99.23,315.89L92.92,317.04L88.55,316.23L91.99,306.95L90.73,303.91L92.29,293.27L91.04,287.77L79.17,286.43L71.66,283.46L74.28,272.61L70.99,268.58L64.58,265.60L72.55,259.83L75.32,253.70L76.01,256.32L79.30,258.08L75.84,261.93L75.49,264.73L86.58,269.81L85.88,275.06L88.66,280.14L91.25,275.76L101.99,274.18L104.57,270.59ZM145.07,255.50L148.19,257.58L144.76,257.24L145.07,255.50Z"><title>Ngöbe Buglé</title></path>
<path data-code="PA-7" data-name="Los Santos" d="M255.26,359.25L257.72,359.99L262.23,369.88L276.67,382.08L285.11,392.88L290.44,405.36L288.30,409.71L277.43,412.72L270.49,413.36L266.02,411.45L261.60,412.72L266.02,412.72L256.92,416.70L257.84,422.65L254.19,423.61L249.56,429.35L234.14,430.27L233.29,425.68L228.23,422.23L227.73,417.26L223.89,409.52L223.46,402.92L233.23,390.45L238.51,386.17L236.48,376.24L244.55,366.14L251.63,365.16L255.26,359.25Z"><title>Los Santos</title></path>
<path data-code="PA-6" data-name="Herrera" d="M245.75,350.46L248.64,356.44L255.26,359.25L251.63,365.16L244.55,366.14L236.48,376.24L238.51,386.17L233.23,390.45L223.46,402.92L215.85,398.10L208.73,387.44L206.37,381.09L202.86,380.86L202.80,368.19L211.43,360.78L212.54,357.50L211.10,353.39L217.80,350.77L221.40,346.87L228.73,347.40L235.33,346.05L239.19,349.08L241.32,348.12L245.75,350.46Z"><title>Herrera</title></path>
  </g>
</svg>
