<?xml version="1.0" encoding="UTF-8"?>
<svg xmlns="http://www.w3.org/2000/svg" viewBox="0 0 560 640" class="pref-muni-svg" role="img" aria-label="行政区分">
  <g class="pref-muni-svg__paths" fill="#eaf2fb" stroke="#5b7fa8" stroke-width="0.6" stroke-linejoin="round">
<path data-code="PY-19" data-name="Boquerón" d="M32.26,255.09L31.50,253.00L26.26,251.63L19.64,245.80L16.22,244.61L13.55,241.58L9.62,240.38L9.99,236.86L8.00,235.41L32.25,153.02L32.69,116.80L54.96,82.38L61.83,87.09L182.71,123.75L188.89,127.03L187.67,133.26L190.39,137.81L190.78,143.66L196.57,153.17L199.25,171.95L198.62,173.94L191.74,178.28L189.13,181.45L182.25,211.68L183.54,221.72L217.05,222.15L222.11,224.72L224.57,232.67L217.82,237.20L214.23,235.11L205.78,239.72L203.90,242.52L204.90,246.47L204.36,247.93L197.90,248.77L196.54,249.85L196.30,256.18L183.17,276.39L182.07,283.32L182.62,293.45L180.38,300.88L181.26,303.88L176.62,315.63L175.39,324.71L166.90,329.13L143.68,330.74L130.96,335.01L128.29,341.49L128.55,351.02L125.33,350.91L118.92,346.82L116.45,347.54L113.79,345.61L111.58,341.24L107.12,336.42L107.71,332.22L103.15,328.71L100.94,328.71L97.17,326.34L95.60,323.37L82.38,318.18L80.75,315.84L81.41,313.74L78.92,313.28L75.65,309.81L70.78,309.11L67.37,306.58L65.03,301.09L60.13,296.27L52.91,291.83L49.71,287.92L49.70,284.95L47.77,281.28L37.91,268.83L38.71,267.18L37.47,266.38L37.60,263.18L33.73,261.45L35.00,258.11L32.26,255.09Z"><title>Boquerón</title></path>
<path data-code="PY-15" data-name="Presidente Hayes" d="M134.90,352.45L132.34,350.93L128.55,351.02L128.29,341.49L130.96,335.01L143.68,330.74L166.90,329.13L175.42,324.67L176.62,315.63L181.26,303.88L180.38,300.88L182.49,294.62L182.07,283.32L183.78,275.00L196.30,256.18L196.95,249.26L204.36,247.93L204.90,246.47L203.80,243.25L204.92,240.56L212.43,235.66L214.23,235.11L217.82,237.20L224.35,233.08L222.11,224.72L233.34,230.23L244.36,229.93L291.95,232.84L294.52,234.00L294.98,237.36L296.42,238.68L318.76,248.71L319.95,258.31L323.54,265.10L315.73,265.77L313.57,267.29L312.85,269.40L314.26,271.56L316.91,272.61L317.99,275.74L320.67,276.23L322.42,279.31L322.61,280.80L320.57,282.77L323.68,286.64L324.02,288.11L322.61,290.92L326.47,293.27L327.49,295.41L332.29,296.38L333.28,301.07L338.47,304.44L342.38,308.67L342.63,310.61L341.11,313.64L344.35,318.28L345.07,321.68L343.95,325.77L344.56,329.88L347.95,334.95L352.62,337.57L355.85,341.01L354.11,343.39L355.52,345.36L354.85,350.20L351.46,354.53L355.29,356.71L356.36,362.07L358.71,362.30L358.59,366.63L362.14,366.88L363.16,368.23L359.49,373.91L359.48,375.52L362.39,380.05L365.26,395.23L364.33,402.48L367.84,407.74L365.79,413.00L362.14,413.73L360.95,418.27L357.61,422.83L358.17,423.89L359.73,423.53L359.55,426.72L360.79,429.38L355.24,429.25L351.46,435.05L346.38,438.42L339.81,438.19L336.84,446.17L332.34,448.56L330.22,450.93L326.99,447.85L324.13,442.33L317.35,436.51L310.03,435.73L308.95,433.62L306.26,433.62L300.96,431.40L294.48,426.34L288.79,430.04L287.24,429.92L279.81,420.74L264.05,417.23L261.25,415.17L256.61,414.74L244.20,405.39L225.16,396.13L222.19,394.34L214.11,384.89L209.31,381.73L204.75,380.38L200.66,375.85L177.36,360.44L170.27,361.73L157.70,361.11L155.05,359.14L148.16,358.35L144.85,356.25L142.16,356.01L141.05,353.36L139.34,352.60L134.90,352.45Z"><title>Presidente Hayes</title></path>
<path data-code="PY-11" data-name="Central" d="M332.36,473.93L336.47,470.31L337.66,462.93L337.12,460.85L335.03,458.94L338.17,455.78L338.81,452.96L338.49,450.33L335.94,447.03L338.66,442.88L339.81,438.19L344.26,438.42L353.11,448.54L357.74,458.01L361.19,457.55L363.24,460.49L358.71,463.79L352.83,473.00L347.65,478.70L345.89,484.64L347.36,493.82L341.11,501.81L337.49,494.90L328.58,487.81L323.61,487.45L323.12,490.54L320.66,490.43L321.81,489.14L320.59,485.39L325.79,481.43L323.57,479.99L324.93,477.95L329.76,476.13L330.47,473.68L332.36,473.93Z"><title>Central</title></path>
<path data-code="PY-ASU" data-name="Asunción" d="M335.03,458.94L332.23,456.77L330.22,450.93L332.34,448.56L335.94,447.03L338.49,450.33L338.81,452.96L338.17,455.78L335.03,458.94Z"><title>Asunción</title></path>
<path data-code="PY-10" data-name="Alto Paraná" d="M529.03,471.05L530.12,475.98L526.86,476.49L526.25,479.02L529.72,489.25L528.06,492.77L528.63,497.27L525.01,499.61L526.29,505.46L524.91,511.56L526.56,514.92L524.84,517.88L520.27,517.42L519.59,514.72L516.82,513.27L510.93,514.46L510.17,511.15L506.64,515.16L502.79,516.00L501.39,517.75L494.44,514.94L487.83,515.01L486.49,513.75L484.29,506.91L488.21,504.43L488.07,502.66L483.39,500.37L474.90,501.67L470.17,499.17L469.10,490.47L473.03,483.84L474.75,477.20L477.38,473.96L475.30,469.32L471.49,469.68L486.56,448.92L489.22,446.83L492.74,449.67L495.83,450.39L495.38,447.57L497.32,449.80L499.85,450.57L501.59,454.47L506.43,454.31L505.35,448.72L502.22,446.60L502.44,443.75L490.94,433.91L484.44,432.27L481.81,427.64L481.59,419.94L482.79,417.80L481.89,414.16L483.67,411.39L484.75,405.16L484.28,401.12L488.43,395.37L496.98,393.29L496.78,396.68L498.04,398.45L503.65,398.01L508.61,399.59L510.61,401.05L511.00,404.13L515.84,404.85L516.71,407.12L519.59,404.73L524.62,405.01L527.32,408.56L544.68,411.54L541.51,417.88L537.96,433.12L537.89,435.62L540.26,441.03L536.71,445.53L535.28,450.15L529.17,458.53L528.24,463.33L529.59,467.51L529.03,471.05Z"><title>Alto Paraná</title></path>
<path data-code="PY-7" data-name="Itapúa" d="M524.84,517.88L524.92,522.78L522.72,531.23L516.76,538.31L517.31,543.23L515.64,547.67L510.96,547.19L508.34,548.58L504.75,556.60L499.21,557.83L495.01,561.95L495.46,565.93L494.20,568.31L490.13,568.43L484.99,566.93L476.36,570.15L474.50,572.67L473.26,578.48L468.60,578.59L467.21,582.42L464.43,583.39L466.35,588.92L464.88,594.73L459.03,598.34L454.30,602.87L447.87,599.87L445.37,595.19L439.41,595.01L430.37,592.66L425.13,597.12L420.32,599.06L419.96,604.09L414.64,612.53L410.51,612.16L403.06,603.67L397.14,603.52L397.55,596.48L393.87,592.31L393.95,589.64L396.04,584.92L398.90,582.24L403.26,581.29L403.86,580.11L401.39,551.99L411.79,555.74L431.80,547.95L439.46,536.16L448.33,533.81L455.27,526.21L471.84,521.95L478.45,517.09L482.06,513.28L482.95,506.50L484.29,506.91L486.49,513.75L487.83,515.01L494.44,514.94L501.39,517.75L502.79,516.00L506.64,515.16L510.17,511.15L510.93,514.46L516.82,513.27L519.59,514.72L520.27,517.42L524.84,517.88Z"><title>Itapúa</title></path>
<path data-code="PY-12" data-name="Ñeembucú" d="M300.96,515.27L303.39,510.00L309.75,507.28L317.22,501.76L318.07,499.69L315.08,498.82L318.60,494.57L317.05,492.29L320.66,490.43L323.12,490.54L323.61,487.45L328.58,487.81L337.76,495.22L341.11,501.81L342.84,512.82L333.96,521.78L330.70,527.65L328.05,530.13L333.60,558.73L346.41,574.70L358.68,576.70L361.03,578.32L353.64,601.85L350.38,600.03L340.48,600.79L327.79,594.84L307.56,589.90L300.65,590.59L293.57,589.70L275.93,591.21L269.88,593.88L270.05,588.90L266.76,585.54L266.70,582.60L269.11,580.31L272.38,579.75L273.68,574.47L275.88,575.81L278.78,569.87L277.81,569.02L278.21,567.20L288.55,562.69L286.18,559.62L286.98,558.07L290.31,558.27L291.20,557.35L290.35,555.25L292.94,554.51L293.74,546.87L297.42,546.93L296.54,544.26L298.31,542.81L294.92,538.25L296.98,532.90L295.19,530.56L298.13,524.66L297.98,520.10L302.12,517.93L299.19,513.83L300.96,515.27Z"><title>Ñeembucú</title></path>
<path data-code="PY-8" data-name="Misiones" d="M366.65,606.18L361.33,605.73L353.64,601.85L361.03,578.32L358.68,576.70L346.41,574.70L333.60,558.73L328.05,530.13L332.51,533.43L333.92,536.34L337.32,539.42L351.67,544.99L361.55,542.06L362.55,537.90L366.12,534.99L367.83,531.67L370.48,529.70L373.00,529.57L382.05,535.12L385.40,535.58L393.32,545.53L401.67,548.90L403.86,580.11L403.26,581.29L398.90,582.24L396.04,584.92L393.95,589.64L393.87,592.31L397.55,596.48L397.14,603.52L388.52,607.32L379.90,601.11L366.65,606.18Z"><title>Misiones</title></path>
<path data-code="PY-16" data-name="Alto Paraguay" d="M298.71,89.43L301.31,92.91L298.93,93.76L298.87,96.24L302.83,96.99L303.61,104.32L309.67,108.34L308.34,113.06L309.57,121.56L310.72,123.72L310.24,126.65L311.81,127.86L312.40,125.40L314.29,125.03L318.03,129.30L317.70,130.51L312.84,133.77L316.26,134.63L318.07,136.45L318.23,137.73L314.89,139.97L314.50,141.67L318.88,145.22L319.60,143.99L320.79,145.05L318.53,150.99L320.00,157.29L319.73,160.59L318.83,163.58L315.18,167.72L316.60,170.64L318.33,171.66L312.28,184.18L312.88,187.00L314.67,188.11L313.20,193.52L315.74,196.89L312.93,201.61L313.15,205.61L311.84,208.36L313.81,212.16L309.74,222.33L310.72,224.58L311.20,236.98L316.27,239.31L320.20,246.28L318.76,248.71L296.42,238.68L294.98,237.36L294.52,234.00L291.95,232.84L244.36,229.93L233.34,230.23L217.05,222.15L183.54,221.72L182.25,211.68L189.13,181.45L191.74,178.28L198.62,173.94L199.25,171.95L196.57,153.17L190.78,143.66L190.39,137.81L187.67,133.26L188.89,127.03L182.71,123.75L61.83,87.09L54.96,82.38L65.55,53.64L67.10,52.36L81.75,50.06L179.13,28.27L238.47,27.47L297.64,65.18L299.80,77.85L298.71,89.43Z"><title>Alto Paraguay</title></path>
<path data-code="PY-1" data-name="Concepción" d="M310.72,224.58L312.87,227.22L317.31,227.41L319.09,229.00L323.52,227.61L323.63,226.47L330.75,225.96L333.96,231.35L343.68,231.59L348.79,233.91L351.71,234.17L352.23,233.15L356.12,233.95L359.87,232.14L360.79,233.88L363.73,233.54L368.20,235.66L376.00,235.43L376.26,236.84L379.22,237.41L379.94,235.58L381.50,239.32L400.76,244.40L392.97,251.89L392.70,255.26L391.69,256.48L391.86,264.94L396.22,276.54L393.52,280.84L397.67,279.83L400.29,281.53L403.43,280.69L406.56,274.50L412.18,272.74L414.34,269.82L418.29,267.55L420.32,267.96L430.14,293.11L429.92,297.26L427.13,298.02L425.97,304.53L422.14,306.97L420.16,309.34L419.25,313.10L413.76,317.64L404.44,320.70L399.85,321.38L382.59,318.97L355.97,324.70L350.59,324.97L344.83,322.88L344.35,318.28L341.11,313.64L342.63,310.61L342.38,308.67L338.47,304.44L333.28,301.07L332.29,296.38L327.49,295.41L326.47,293.27L322.61,290.92L324.02,288.11L323.68,286.64L320.57,282.77L322.61,280.80L322.42,279.31L320.67,276.23L317.99,275.74L316.91,272.61L314.26,271.56L312.85,269.40L313.57,267.29L315.73,265.77L323.54,265.10L319.95,258.31L318.59,247.92L319.91,245.47L315.67,238.57L311.82,237.85L310.68,235.40L310.72,224.58Z"><title>Concepción</title></path>
<path data-code="PY-13" data-name="Amambay" d="M411.13,224.12L412.72,224.95L415.95,231.59L424.56,238.29L436.83,239.14L438.52,238.42L446.56,241.25L447.42,239.29L453.95,246.52L455.18,256.76L456.30,259.05L462.79,263.92L463.13,270.06L460.50,276.59L460.66,279.23L462.10,284.67L461.87,289.46L464.27,292.55L464.36,297.67L466.85,299.70L468.51,305.57L466.77,311.13L469.89,316.17L468.04,322.27L468.60,326.83L464.46,335.66L456.51,338.87L442.81,349.15L437.14,350.43L434.61,349.26L438.03,347.14L439.91,342.90L439.54,337.11L442.63,332.53L442.73,327.07L436.49,327.77L435.72,330.79L432.84,332.71L431.04,331.35L428.87,326.07L435.65,319.27L433.42,315.99L433.49,312.76L426.88,311.09L418.95,313.37L420.36,309.05L425.97,304.53L427.13,298.02L429.77,297.60L430.19,293.55L420.63,268.34L418.29,267.55L414.34,269.82L412.18,272.74L407.12,274.08L403.43,280.69L400.29,281.53L397.67,279.83L393.52,280.84L396.22,276.54L391.86,264.94L391.69,256.48L392.70,255.26L392.97,251.89L400.76,244.40L383.88,239.25L385.88,236.48L390.31,236.53L392.13,234.06L396.44,237.45L396.06,235.61L400.57,232.31L404.67,225.91L411.13,224.12Z"><title>Amambay</title></path>
<path data-code="PY-14" data-name="Canindeyú" d="M468.60,326.83L468.82,331.98L472.93,336.90L474.33,341.29L475.31,354.91L477.39,358.31L479.39,359.22L490.15,361.33L496.32,359.14L506.80,357.77L510.15,354.35L522.77,349.03L526.50,346.15L539.19,352.89L544.08,358.87L552.00,363.52L548.39,366.29L546.22,370.45L547.54,376.47L550.98,383.19L550.91,385.24L546.22,394.99L547.08,404.27L544.68,411.54L527.32,408.56L524.62,405.01L519.59,404.73L516.71,407.12L515.84,404.85L511.00,404.13L510.61,401.05L508.61,399.59L503.65,398.01L498.04,398.45L496.78,396.68L496.98,393.29L495.60,392.93L488.43,395.37L470.16,398.67L459.00,409.22L454.56,415.16L450.45,412.55L448.99,409.17L444.02,404.74L441.01,397.44L435.94,389.13L431.37,385.69L430.04,380.00L428.29,378.40L428.49,371.29L430.25,368.15L433.05,367.07L437.40,362.24L438.81,362.05L434.61,349.26L437.14,350.43L444.48,348.48L447.05,345.36L456.51,338.87L464.46,335.66L468.60,326.83Z"><title>Canindeyú</title></path>
<path data-code="PY-2" data-name="San Pedro" d="M454.56,415.16L441.71,419.34L435.47,428.48L429.27,422.60L424.79,420.31L424.83,416.87L423.13,415.21L419.09,420.51L415.60,422.75L413.79,425.66L406.42,432.02L399.87,427.06L392.82,424.51L373.81,428.22L372.39,429.34L372.27,431.76L369.91,433.14L365.31,432.46L359.89,429.71L361.10,428.95L359.55,426.72L359.73,423.53L358.17,423.89L357.61,422.83L360.95,418.27L362.14,413.73L365.79,413.00L367.84,407.74L364.33,402.48L365.26,395.23L362.39,380.05L359.48,375.52L359.49,373.91L363.16,368.23L362.14,366.88L358.59,366.63L358.71,362.30L356.36,362.07L355.29,356.71L351.46,354.53L354.85,350.20L355.52,345.36L354.11,343.39L355.85,341.01L346.16,332.99L343.96,326.63L344.83,322.88L350.59,324.97L355.97,324.70L382.59,318.97L400.82,321.27L412.22,318.43L416.84,314.25L422.66,312.16L426.88,311.09L432.97,312.28L433.94,313.70L433.42,315.99L435.65,319.27L428.87,326.07L429.89,329.28L432.84,332.71L435.72,330.79L436.49,327.77L442.56,326.81L442.76,331.72L439.54,337.11L440.00,342.51L438.16,346.90L434.61,349.26L438.81,362.05L437.40,362.24L428.99,369.85L428.29,378.40L430.04,380.00L431.74,386.36L435.94,389.13L441.01,397.44L444.02,404.74L448.99,409.17L450.45,412.55L454.56,415.16Z"><title>San Pedro</title></path>
<path data-code="PY-5" data-name="Caaguazú" d="M435.47,428.48L440.38,420.41L446.91,417.19L454.56,415.16L459.00,409.22L469.32,399.15L488.43,395.37L484.28,401.12L484.75,405.16L483.67,411.39L481.89,414.16L482.79,417.80L481.59,419.94L481.81,427.64L484.44,432.27L490.94,433.91L502.44,443.75L502.22,446.60L505.35,448.72L506.43,454.31L501.59,454.47L499.85,450.57L497.32,449.80L495.38,447.57L495.83,450.39L495.11,450.44L488.47,446.80L471.49,469.68L468.89,474.73L464.37,476.88L461.05,475.28L453.24,478.08L449.55,478.23L443.58,473.52L415.19,471.25L406.13,474.25L396.57,480.60L393.56,479.82L390.13,476.59L385.70,466.67L401.94,455.13L406.42,432.02L413.79,425.66L415.60,422.75L419.09,420.51L423.13,415.21L424.83,416.87L424.79,420.31L429.27,422.60L435.47,428.48Z"><title>Caaguazú</title></path>
<path data-code="PY-3" data-name="Cordillera" d="M406.42,432.02L401.94,455.13L385.70,466.67L390.13,476.59L386.26,475.43L383.12,477.19L380.16,476.93L379.56,475.91L381.65,473.39L380.01,468.54L373.15,468.57L367.01,466.91L361.19,457.55L357.74,458.01L353.11,448.54L344.26,438.42L346.38,438.42L351.46,435.05L355.24,429.25L359.89,429.71L365.31,432.46L369.91,433.14L372.27,431.76L372.39,429.34L373.81,428.22L392.82,424.51L399.87,427.06L406.42,432.02Z"><title>Cordillera</title></path>
<path data-code="PY-6" data-name="Caazapá" d="M464.37,476.88L468.89,474.73L471.49,469.68L475.62,469.66L477.26,474.44L474.75,477.20L473.03,483.84L469.10,490.47L470.17,499.17L475.39,501.76L483.78,500.44L488.48,503.18L487.67,504.94L484.29,506.91L482.73,506.58L482.06,513.28L478.45,517.09L471.84,521.95L455.27,526.21L448.33,533.81L438.50,536.88L431.80,547.95L411.79,555.74L401.39,551.99L401.11,548.32L397.03,547.77L393.32,545.53L387.72,539.18L391.86,534.45L394.02,529.77L394.01,527.34L395.90,525.50L396.95,519.68L399.67,516.33L400.47,513.44L405.10,513.29L407.20,507.22L413.03,505.88L415.20,501.75L417.11,502.10L421.23,500.47L427.18,504.01L432.03,502.34L433.81,500.99L436.26,493.55L454.16,485.33L456.60,482.09L459.82,481.99L462.72,476.36L464.37,476.88Z"><title>Caazapá</title></path>
<path data-code="PY-9" data-name="Paraguarí" d="M390.13,476.59L393.56,479.82L396.57,480.60L395.03,482.87L395.36,487.42L399.66,497.54L395.51,499.52L395.10,500.82L396.15,505.60L400.47,513.44L399.67,516.33L396.95,519.68L395.90,525.50L394.01,527.34L394.02,529.77L391.86,534.45L387.72,539.18L385.40,535.58L382.05,535.12L373.47,529.73L371.16,529.53L368.58,530.90L366.12,534.99L362.55,537.90L361.55,542.06L349.95,544.84L342.89,540.89L337.32,539.42L333.92,536.34L332.51,533.43L328.05,530.13L330.70,527.65L333.96,521.78L342.84,512.82L341.11,501.81L347.36,493.82L345.89,484.64L346.94,480.12L360.59,462.12L363.24,460.49L368.00,467.60L380.01,468.54L381.65,473.39L379.56,475.91L380.16,476.93L383.12,477.19L386.26,475.43L390.13,476.59Z"><title>Paraguarí</title></path>
<path data-code="PY-4" data-name="Guairá" d="M415.19,471.25L443.58,473.52L449.55,478.23L453.24,478.08L461.05,475.28L462.72,476.36L459.82,481.99L456.60,482.09L454.16,485.33L436.26,493.55L433.81,500.99L432.03,502.34L428.38,504.13L422.00,500.46L415.20,501.75L413.03,505.88L407.20,507.22L405.10,513.29L400.47,513.44L395.50,503.66L395.14,500.00L399.35,498.26L399.66,496.49L396.02,489.63L395.03,482.87L396.57,480.60L406.13,474.25L415.19,471.25Z"><title>Guairá</title></path>
  </g>
</svg>
