<?xml version="1.0" encoding="UTF-8"?>
<svg xmlns="http://www.w3.org/2000/svg" viewBox="0 0 560 640" class="pref-muni-svg" role="img" aria-label="行政区分">
  <g class="pref-muni-svg__paths" fill="#eaf2fb" stroke="#5b7fa8" stroke-width="0.6" stroke-linejoin="round">
<path data-code="PH-SLU" data-name="Sulu" d="M245.17,596.58L246.82,597.98L246.57,599.50L243.78,598.15L245.17,596.58ZM284.35,578.87L285.88,578.87L282.67,580.08L279.62,577.18L284.35,578.87ZM234.92,565.48L235.53,567.45L234.51,570.47L231.40,570.55L234.92,565.48ZM258.59,587.08L259.10,587.84L255.49,587.60L256.54,586.02L258.59,587.08ZM264.76,579.95L266.25,580.66L266.19,582.17L261.41,585.61L258.98,582.40L253.46,584.48L250.72,583.10L247.93,584.57L245.59,581.67L246.86,579.58L252.00,576.42L257.14,577.71L258.60,580.21L260.61,579.15L264.76,579.95ZM245.15,591.58L246.00,592.30L242.86,592.98L245.15,591.58ZM246.81,589.45L247.75,590.45L247.02,591.73L246.81,589.45Z"><title>Sulu</title></path>
<path data-code="PH-DAV" data-name="Davao del Norte" d="M430.61,543.60L430.07,545.69L427.84,539.59L426.20,538.90L427.77,534.05L430.26,536.39L430.61,543.60ZM432.09,527.94L424.24,532.37L419.69,532.28L419.71,518.79L411.71,518.63L412.27,515.45L415.91,515.90L417.20,514.30L417.42,510.55L414.93,503.13L426.25,503.17L427.28,511.00L430.14,514.69L430.10,516.28L435.45,509.75L436.35,512.44L434.88,515.09L435.99,517.43L435.59,519.91L432.91,521.24L434.09,522.89L432.21,524.04L432.09,527.94Z"><title>Davao del Norte</title></path>
<path data-code="PH-ZSI" data-name="Zamboanga Sibugay" d="M324.56,526.81L323.54,526.57L323.78,527.89L319.69,530.26L318.13,529.23L317.89,526.80L319.18,524.99L321.23,526.29L322.06,524.73L324.56,526.81ZM329.26,514.06L327.52,516.34L325.46,523.59L322.52,520.49L320.46,523.65L317.61,522.86L318.00,520.95L319.18,521.26L317.87,515.73L318.66,512.94L314.51,511.21L311.29,511.76L307.26,514.78L304.34,518.83L306.28,519.30L304.70,522.34L304.57,520.71L301.55,523.37L297.82,523.44L302.00,514.03L309.56,507.63L314.87,505.55L322.46,506.19L322.72,509.55L328.85,510.46L329.26,514.06Z"><title>Zamboanga Sibugay</title></path>
<path data-code="PH-PLW" data-name="Palawan" d="M198.96,384.67L199.56,386.78L198.25,387.04L197.00,383.59L198.96,384.67ZM198.25,379.64L198.80,380.69L196.63,381.80L198.25,379.64ZM157.80,541.36L156.50,542.71L154.32,542.29L153.65,540.90L156.77,539.78L157.80,541.36ZM103.17,500.81L103.24,507.97L100.35,510.75L98.31,506.09L98.53,500.65L99.30,501.99L100.47,500.65L103.17,500.81ZM101.12,500.41L99.82,499.07L101.68,497.81L102.53,499.72L101.12,500.41ZM106.28,496.18L107.71,497.05L106.06,497.00L106.28,496.18ZM112.21,490.60L113.34,491.37L113.49,494.60L110.87,495.94L110.49,491.05L112.21,490.60ZM109.11,490.89L109.90,491.44L107.12,492.94L106.80,491.94L109.11,489.81L109.11,490.89ZM210.93,402.64L213.22,404.13L212.20,405.44L210.65,406.06L209.37,404.49L209.60,407.38L204.85,408.30L204.46,405.28L203.50,405.11L206.70,401.34L210.93,402.64ZM161.61,444.39L156.31,452.39L150.89,457.42L142.55,459.60L138.10,468.82L128.38,476.43L121.24,477.55L119.26,483.50L112.95,484.87L107.15,490.00L109.90,479.52L113.50,474.85L116.35,473.23L124.63,462.25L128.63,461.48L129.46,458.65L133.44,454.82L137.19,454.17L137.70,455.49L142.60,451.25L142.60,449.65L150.10,441.87L151.13,439.10L161.61,444.39ZM174.94,414.35L176.47,412.45L174.60,412.66L175.27,410.60L177.90,410.83L179.20,409.51L178.41,407.93L179.72,407.12L179.98,410.70L180.94,410.56L185.65,406.33L184.62,404.49L187.19,403.17L188.06,397.54L187.11,396.13L185.49,396.17L185.20,394.05L183.59,393.12L184.88,391.56L183.91,389.25L186.16,389.96L185.65,392.19L186.96,392.06L187.73,394.17L192.78,397.67L191.73,395.23L192.37,393.88L188.55,392.08L188.75,389.96L187.40,389.93L187.23,387.33L187.45,386.49L188.75,387.33L187.79,383.40L190.81,385.20L191.44,382.65L189.78,380.17L191.32,378.59L191.20,375.27L194.07,371.04L194.86,374.26L196.52,375.74L194.61,382.83L196.72,386.77L194.66,386.91L194.17,391.80L195.18,394.31L197.86,394.14L197.41,400.00L199.77,399.89L200.33,400.78L199.05,400.78L200.12,403.91L202.47,405.93L196.37,411.52L192.61,411.33L188.58,413.24L184.87,417.36L182.57,423.75L174.94,414.35ZM207.81,367.48L207.90,370.37L206.51,372.78L206.51,370.93L204.18,371.70L202.13,369.61L202.60,368.93L204.18,370.38L204.72,368.30L206.51,369.61L206.26,367.75L207.81,367.48ZM213.73,352.93L215.93,354.19L214.27,355.88L215.81,356.93L214.57,360.03L211.56,361.75L211.16,359.04L212.21,359.83L212.99,357.19L210.14,357.46L207.31,350.56L208.72,351.11L209.78,349.52L211.27,351.50L213.98,351.72L212.92,352.27L213.73,352.93ZM225.87,347.67L225.08,348.99L221.74,349.27L218.15,347.67L217.09,350.06L215.90,348.75L212.84,348.37L208.85,340.80L207.07,342.38L208.00,339.10L209.88,338.14L208.31,338.43L208.48,336.36L217.09,341.32L216.35,342.38L220.17,344.49L221.22,343.96L221.44,340.37L222.52,343.72L225.67,345.69L224.66,347.91L225.87,347.67ZM253.96,391.38L253.69,394.17L251.07,393.76L253.96,391.38ZM223.53,351.50L222.88,355.89L220.45,350.83L222.88,350.04L223.53,351.50Z"><title>Palawan</title></path>
<path data-code="PH-SUN" data-name="Surigao del Norte" d="M438.09,438.04L437.86,441.75L436.46,442.65L435.28,440.62L436.01,435.18L437.44,435.39L438.09,438.04ZM418.35,447.34L415.80,437.52L418.13,432.75L423.01,435.39L425.05,440.91L435.98,445.50L428.27,452.40L428.85,450.63L426.34,447.63L421.52,446.58L418.35,447.34ZM444.70,432.51L445.16,434.11L442.98,435.22L440.03,434.60L440.29,435.39L437.18,431.70L439.00,431.15L437.83,429.71L441.15,423.65L443.65,429.71L442.62,431.44L444.70,432.51ZM427.91,429.33L427.16,430.77L425.81,430.20L425.60,428.28L422.78,425.55L424.06,423.65L423.29,422.46L420.44,423.51L419.48,421.73L420.19,417.94L421.23,418.22L420.49,413.70L422.00,413.17L422.00,411.33L423.80,411.62L424.83,408.17L426.60,410.50L424.83,416.36L425.98,417.65L425.54,419.13L426.62,419.28L427.42,423.25L426.48,427.54L427.91,429.33Z"><title>Surigao del Norte</title></path>
<path data-code="PH-SUR" data-name="Surigao del Sur" d="M435.98,445.50L437.38,446.97L435.11,448.87L438.23,449.15L438.33,451.97L440.64,455.00L443.85,454.40L445.98,452.59L446.91,453.27L445.19,460.90L450.22,466.17L451.45,470.14L449.74,473.42L447.26,474.76L448.03,476.62L445.90,476.50L442.62,479.63L444.42,482.70L447.06,482.94L446.75,481.62L452.38,482.15L453.70,484.05L453.94,485.07L452.38,485.48L452.75,487.79L450.96,489.66L453.07,491.75L451.19,494.77L452.06,495.83L455.73,493.78L455.99,499.36L454.69,501.29L455.50,503.81L452.88,506.92L450.27,505.35L446.64,497.11L446.84,489.59L441.05,487.98L438.13,481.11L439.36,476.50L436.67,473.93L436.63,472.15L433.71,469.15L432.79,466.37L431.01,465.77L431.03,460.20L428.27,452.40L435.98,445.50Z"><title>Surigao del Sur</title></path>
<path data-code="PH-AGN" data-name="Agusan del Norte" d="M420.28,463.87L421.23,457.19L418.35,447.34L424.24,446.91L428.34,449.63L428.29,454.05L429.69,456.30L427.54,463.91L420.28,463.87ZM408.51,461.32L411.71,464.47L417.44,465.24L420.15,472.31L426.19,472.16L427.30,475.56L425.76,476.54L420.96,476.06L417.09,480.03L412.91,480.30L411.79,472.87L413.01,468.90L409.64,464.96L408.51,461.32Z"><title>Agusan del Norte</title></path>
<path data-code="PH-MSR" data-name="Misamis Oriental" d="M391.57,481.38L393.29,464.49L397.66,464.71L405.20,471.02L407.89,469.27L408.51,461.32L409.64,464.96L413.01,468.90L411.79,472.87L412.91,480.30L397.18,480.19L394.29,483.16L391.57,481.38ZM373.08,490.54L375.34,483.20L378.50,479.60L380.91,478.95L381.30,480.57L384.73,482.68L382.42,484.64L383.46,486.13L379.66,489.57L377.42,488.56L373.08,490.54Z"><title>Misamis Oriental</title></path>
<path data-code="PH-LAN" data-name="Lanao del Norte" d="M351.54,504.27L363.25,496.05L374.49,494.73L374.10,499.83L372.81,501.73L369.35,502.40L367.30,506.55L365.45,506.75L362.99,514.54L358.32,513.08L358.04,514.48L355.50,514.21L352.10,510.39L348.75,509.47L352.11,506.53L351.54,504.27Z"><title>Lanao del Norte</title></path>
<path data-code="PH-ZAS" data-name="Zamboanga del Sur" d="M351.11,502.64L351.72,507.25L348.75,509.47L342.35,510.70L344.35,514.27L343.90,516.02L338.93,519.54L342.62,524.15L341.84,527.39L338.50,525.39L336.17,521.55L332.53,523.06L330.92,521.82L330.43,519.53L332.30,518.89L332.65,517.46L330.91,516.10L330.50,513.34L329.26,514.06L328.85,510.46L322.72,509.55L322.39,508.07L322.46,506.19L325.06,505.79L328.08,503.04L332.58,503.52L332.73,494.15L346.54,494.10L346.50,500.32L351.11,502.64Z"><title>Zamboanga del Sur</title></path>
<path data-code="PH-MSC" data-name="Misamis Occidental" d="M346.28,479.18L347.49,480.57L348.82,477.18L354.17,479.62L357.88,487.26L358.84,496.70L351.11,502.64L346.50,500.32L346.28,479.18Z"><title>Misamis Occidental</title></path>
<path data-code="PH-ZAN" data-name="Zamboanga del Norte" d="M284.42,535.65L285.52,533.20L289.94,529.74L289.78,524.15L293.51,518.90L292.29,518.34L292.64,514.60L291.65,512.89L297.49,503.81L304.49,500.48L312.03,498.86L313.56,496.71L315.67,498.59L323.57,496.80L326.14,494.08L324.06,491.15L327.71,483.57L332.97,482.14L336.95,482.83L339.61,478.62L342.04,478.00L340.30,475.30L344.92,476.10L345.26,479.04L346.28,479.18L346.54,494.10L332.73,494.15L332.58,503.52L329.24,502.83L323.65,506.28L316.32,505.22L309.56,507.63L302.00,514.03L295.23,527.58L294.63,532.18L292.63,535.74L284.42,535.65Z"><title>Zamboanga del Norte</title></path>
<path data-code="PH-LAS" data-name="Lanao del Sur" d="M369.53,524.95L365.69,518.36L358.04,514.48L358.32,513.08L362.99,514.54L365.45,506.75L367.73,506.17L369.35,502.40L372.81,501.73L374.44,498.76L374.49,494.73L376.71,494.36L388.29,504.08L388.33,505.45L385.97,506.51L393.65,518.04L385.49,517.51L382.29,514.99L369.53,524.95Z"><title>Lanao del Sur</title></path>
<path data-code="PH-MAG" data-name="Maguindanao" d="M371.49,529.23L372.52,526.02L369.53,524.95L380.71,515.79L380.12,520.80L381.77,524.90L375.49,534.86L377.44,534.98L379.61,532.53L381.68,532.82L380.06,537.82L384.28,540.30L385.14,542.29L388.87,543.50L390.35,541.76L388.32,538.57L390.41,537.00L389.30,535.28L390.41,533.86L393.25,538.73L392.81,542.34L394.57,542.56L394.72,550.56L396.96,552.06L396.21,553.80L397.41,555.51L393.62,554.84L389.33,550.16L389.98,547.55L387.42,546.99L384.55,548.17L384.23,551.08L381.01,552.17L364.64,550.91L364.62,549.33L362.30,549.17L362.29,542.94L364.35,537.16L370.15,532.87L373.81,535.23L374.73,533.03L371.49,529.23Z"><title>Maguindanao</title></path>
<path data-code="PH-SUK" data-name="Sultan Kudarat" d="M377.17,575.05L371.84,572.57L365.95,564.68L364.48,559.25L365.34,558.85L364.64,550.91L382.78,551.87L384.23,551.08L384.55,548.17L387.42,546.99L389.98,547.55L389.33,550.16L393.62,554.84L395.88,555.63L397.41,555.51L396.21,553.80L396.96,552.06L406.48,550.00L408.08,554.00L407.50,558.44L398.06,558.50L395.42,559.67L391.51,555.61L388.55,557.39L387.08,555.51L386.04,560.48L387.37,568.89L372.62,568.89L377.64,573.91L377.17,575.05Z"><title>Sultan Kudarat</title></path>
<path data-code="PH-SAR" data-name="Sarangani" d="M405.07,581.96L403.45,585.50L398.54,585.41L386.02,580.46L377.17,575.05L378.15,571.95L392.93,579.71L402.66,579.98L402.84,581.78L405.07,581.96ZM412.38,596.22L411.69,591.50L407.66,587.94L411.30,580.96L409.66,574.06L411.07,569.90L403.68,566.96L406.14,563.40L410.74,567.66L417.63,568.07L420.07,571.80L420.77,577.15L418.86,586.51L415.01,594.29L412.38,596.22Z"><title>Sarangani</title></path>
<path data-code="PH-DAS" data-name="Davao del Sur" d="M420.03,541.00L418.93,544.95L416.03,548.86L415.16,554.82L416.10,557.46L417.19,557.48L417.10,556.42L420.95,560.39L423.03,560.92L427.57,575.88L425.95,582.09L417.26,594.91L415.42,596.60L412.99,596.53L418.86,586.51L420.77,576.58L418.32,568.66L410.74,567.66L406.16,563.56L408.13,554.62L406.48,550.00L411.34,541.25L420.03,541.00ZM416.60,602.32L416.60,604.52L413.42,603.78L415.02,602.10L416.60,602.32Z"><title>Davao del Sur</title></path>
<path data-code="PH-COM" data-name="Compostela Valley" d="M436.74,539.78L434.80,537.70L432.84,531.81L431.94,524.94L434.09,522.89L432.91,521.24L435.33,520.71L435.99,517.43L434.88,515.09L436.35,512.44L435.45,509.75L430.10,516.28L430.14,514.69L427.28,511.00L426.25,503.17L445.34,503.24L445.10,508.88L447.65,520.11L446.68,524.07L449.50,530.08L436.74,539.78Z"><title>Compostela Valley</title></path>
<path data-code="PH-DAO" data-name="Davao Oriental" d="M452.88,506.92L456.79,512.81L460.38,513.86L459.87,517.45L461.35,523.66L459.76,525.18L460.64,526.57L459.87,529.99L461.69,530.93L455.44,542.24L451.60,541.60L450.64,542.45L449.81,545.72L451.37,547.42L451.23,549.84L447.59,544.72L445.68,544.49L445.70,546.10L444.93,545.31L448.13,551.44L445.99,569.24L442.03,560.34L441.43,547.68L437.83,544.65L437.95,541.36L436.74,539.78L449.50,530.08L446.68,524.07L447.65,520.11L445.10,508.88L445.34,503.24L449.41,503.20L450.27,505.35L452.88,506.92Z"><title>Davao Oriental</title></path>
<path data-code="PH-SLE" data-name="Southern Leyte" d="M411.95,427.06L412.32,428.52L411.15,429.04L406.33,423.20L406.02,419.54L409.47,421.25L411.95,427.06ZM407.16,401.94L408.15,402.67L408.32,409.23L410.88,411.72L411.13,415.21L409.47,416.12L406.15,415.17L406.53,418.77L405.25,418.31L402.42,411.88L400.51,411.22L402.04,425.14L396.44,420.72L392.59,420.07L392.05,418.77L397.23,415.29L396.48,409.16L397.48,406.94L403.14,405.41L407.16,401.94Z"><title>Southern Leyte</title></path>
<path data-code="PH-LEY" data-name="Leyte" d="M377.52,399.27L377.47,401.70L373.93,402.64L375.56,398.78L377.52,399.27ZM380.76,398.41L382.82,400.25L382.37,401.19L378.63,400.93L378.60,399.56L380.76,398.41ZM383.91,388.01L384.40,390.01L382.59,392.24L378.13,389.91L378.96,387.33L377.85,384.83L378.96,382.41L378.44,375.69L376.58,374.69L377.17,372.91L375.83,372.25L374.95,369.37L374.55,366.43L375.62,365.88L381.30,372.51L382.17,370.25L386.93,375.63L391.24,374.70L395.05,370.67L398.52,371.17L400.25,372.66L399.93,374.47L397.83,374.86L398.32,378.24L400.30,379.96L402.31,379.73L402.84,388.59L401.37,396.83L405.37,398.81L407.16,401.94L403.14,405.41L397.48,406.94L396.48,409.16L397.23,415.29L392.05,418.77L393.04,413.37L390.95,408.66L393.35,397.99L392.33,393.88L386.64,387.29L388.44,384.88L385.96,381.32L384.25,383.06L381.97,383.15L381.58,384.82L383.91,388.01Z"><title>Leyte</title></path>
<path data-code="PH-EAS" data-name="Eastern Samar" d="M431.76,397.60L431.95,398.59L429.78,398.92L426.58,396.90L426.70,394.88L428.36,394.77L429.45,397.35L431.76,397.60ZM412.73,337.16L414.25,336.56L414.00,337.64L415.54,337.09L419.67,339.22L421.09,341.73L418.88,342.38L419.93,343.17L418.13,343.96L420.60,346.61L417.62,350.84L418.13,355.35L419.42,356.89L418.04,357.07L417.78,358.43L418.96,358.16L419.67,360.33L418.39,363.78L420.44,369.61L424.83,373.16L421.72,379.20L423.38,380.07L424.58,379.64L424.50,378.25L426.94,379.94L430.17,385.34L429.45,386.49L427.91,385.46L427.40,382.86L425.35,381.60L423.42,382.80L422.05,381.32L420.70,383.88L418.52,382.41L416.82,383.88L412.77,381.60L409.93,383.73L413.98,371.38L411.38,365.78L409.99,350.08L408.51,348.21L405.46,348.89L404.86,343.81L407.93,334.68L409.56,334.77L411.12,337.85L412.73,337.16Z"><title>Eastern Samar</title></path>
<path data-code="PH-BIL" data-name="Biliran" d="M385.79,365.64L386.75,366.82L386.15,368.60L381.02,369.09L376.37,361.14L382.92,360.90L385.79,365.64Z"><title>Biliran</title></path>
<path data-code="PH-WSA" data-name="Samar" d="M393.90,362.98L395.44,364.04L394.51,366.68L391.09,362.28L390.79,359.54L393.90,362.98ZM409.93,383.73L407.33,377.14L400.89,376.19L401.11,370.93L397.52,368.01L396.62,369.41L394.39,367.75L397.09,366.20L396.72,365.38L400.01,364.51L400.73,361.01L402.14,359.30L402.93,359.83L402.49,358.15L396.80,358.00L393.11,354.27L394.23,352.44L391.86,352.61L388.81,347.66L381.79,345.03L378.56,341.33L377.18,337.62L381.56,336.06L388.79,339.92L391.62,338.85L395.04,340.06L397.09,338.88L401.98,338.96L406.93,336.63L404.86,343.81L405.46,348.89L408.51,348.21L409.99,350.08L411.38,365.78L413.98,371.38L409.93,383.73ZM371.00,345.67L371.86,346.35L368.89,347.11L371.00,345.67Z"><title>Samar</title></path>
<path data-code="PH-AUR" data-name="Aurora" d="M297.22,174.88L295.70,177.80L296.20,179.34L296.74,178.55L295.43,183.32L296.74,182.26L295.69,185.45L290.92,189.45L290.25,191.57L287.71,193.08L293.11,184.51L291.31,184.72L289.92,187.59L278.70,191.60L271.75,197.82L271.28,201.16L272.02,203.27L274.57,204.71L272.77,207.11L274.07,207.63L269.05,212.59L266.44,218.71L265.07,218.55L265.12,222.86L267.19,225.11L265.81,225.34L265.25,229.16L263.83,232.02L262.83,231.88L261.44,229.63L264.27,214.98L260.46,203.14L280.81,186.13L289.43,174.99L297.22,174.88Z"><title>Aurora</title></path>
<path data-code="PH-QUE" data-name="Quezon" d="M267.19,225.11L268.52,226.09L269.52,230.70L273.54,238.03L272.77,238.55L277.68,243.51L273.50,245.08L273.28,247.38L275.32,255.59L278.95,262.18L277.93,264.43L279.75,266.82L285.62,271.87L296.74,275.29L294.92,272.11L299.05,272.84L299.82,271.06L295.87,268.31L294.15,265.22L294.92,266.03L295.38,264.60L297.21,264.13L297.49,262.03L299.66,268.60L306.06,265.87L318.71,271.93L309.01,274.26L308.21,273.18L307.42,274.21L303.56,273.69L307.19,278.63L306.73,285.10L311.94,289.53L309.35,288.50L312.96,294.03L314.05,301.11L312.59,302.49L310.14,303.53L307.02,301.02L306.87,296.05L302.88,290.08L300.02,287.41L295.32,286.23L290.27,279.22L287.62,279.01L277.67,272.87L274.36,275.17L272.30,271.82L269.16,273.33L271.07,276.38L267.51,278.66L260.36,273.17L269.36,268.81L272.99,262.05L270.06,253.50L263.42,241.11L262.83,231.88L263.83,232.02L265.25,229.16L265.81,225.34L267.19,225.11ZM291.96,267.73L294.52,269.62L294.68,271.41L286.71,266.17L285.26,263.15L286.67,262.97L291.96,267.73ZM296.87,240.92L297.13,243.29L292.00,239.14L295.69,239.34L295.43,240.69L296.87,240.92ZM288.22,232.71L290.20,233.77L290.02,234.58L288.22,233.50L288.50,235.71L286.82,236.88L288.91,243.82L288.18,245.71L285.77,247.00L284.59,245.81L285.53,242.19L283.41,237.20L281.19,235.21L281.49,232.66L282.16,231.37L284.02,232.18L285.31,231.11L288.21,231.64L288.22,232.71ZM303.51,243.70L302.98,245.24L300.03,245.33L303.51,243.70Z"><title>Quezon</title></path>
<path data-code="PH-CAN" data-name="Camarines Norte" d="M299.68,267.97L301.02,266.62L300.48,263.96L301.39,264.16L303.68,259.16L306.19,258.32L307.55,259.16L307.02,258.35L307.87,258.24L312.25,260.71L314.00,260.45L313.27,258.60L314.51,258.35L320.86,261.46L327.22,267.90L326.88,270.79L328.70,272.11L328.93,275.79L327.47,278.55L322.76,273.04L306.06,265.87L300.43,268.68L299.68,267.97Z"><title>Camarines Norte</title></path>
<path data-code="PH-CAS" data-name="Camarines Sur" d="M327.47,278.55L327.50,280.33L329.70,282.40L335.66,281.35L337.47,278.60L336.17,275.29L338.25,272.37L336.54,274.21L333.83,271.96L335.19,271.16L335.12,269.06L337.45,269.71L338.11,267.85L339.25,270.00L338.66,271.06L340.30,270.25L341.33,275.29L342.35,273.16L344.15,274.74L351.26,276.13L352.40,274.21L355.87,277.95L360.66,279.77L362.21,282.12L357.95,281.61L355.62,283.72L347.09,282.37L345.44,286.88L345.80,288.52L347.95,289.83L346.13,290.76L347.91,293.07L347.40,295.68L342.44,295.66L336.63,300.81L332.81,296.40L331.98,292.92L320.33,286.87L318.66,285.03L320.46,283.45L316.33,280.03L316.86,279.41L312.59,278.39L312.58,276.99L309.01,274.26L318.71,271.93L322.76,273.04L327.47,278.55ZM334.44,288.32L339.48,286.34L336.66,284.67L330.88,286.34L334.44,288.32ZM350.60,273.04L350.76,274.02L348.32,274.90L348.29,273.24L350.60,273.04Z"><title>Camarines Sur</title></path>
<path data-code="PH-ALB" data-name="Albay" d="M347.95,289.83L350.72,291.52L353.59,297.12L357.81,301.43L354.50,301.60L353.68,307.77L355.63,308.12L358.84,304.61L360.81,305.68L360.16,307.47L355.29,309.06L350.33,308.52L344.29,311.23L342.23,308.82L337.29,309.77L336.12,305.61L336.63,300.81L342.44,295.66L347.40,295.68L347.91,293.07L346.13,290.76L347.95,289.83ZM368.83,303.08L365.71,302.12L368.46,301.21L371.12,302.70L370.64,303.56L368.83,303.08ZM366.48,300.20L364.19,301.68L360.96,300.82L359.95,299.11L366.48,300.20ZM359.11,299.68L359.55,301.05L358.48,301.39L357.56,296.59L360.31,297.52L359.11,299.68ZM355.77,296.13L354.65,294.69L357.43,296.06L355.77,296.13Z"><title>Albay</title></path>
<path data-code="PH-SOR" data-name="Sorsogon" d="M360.81,305.68L366.31,309.88L368.01,307.21L370.32,308.72L367.61,313.47L368.61,317.40L368.11,322.69L366.56,324.56L366.82,327.32L365.31,328.09L362.61,327.72L360.73,324.81L358.67,323.93L357.30,317.91L355.48,316.74L358.09,315.17L359.73,316.35L363.33,314.88L364.19,311.97L359.23,311.22L357.20,314.56L352.91,316.22L353.19,314.49L351.58,314.54L351.88,315.45L351.10,314.71L351.89,312.91L348.79,314.51L344.29,311.23L350.33,308.52L359.78,308.16L360.81,305.68Z"><title>Sorsogon</title></path>
<path data-code="PH-BTG" data-name="Batangas" d="M267.51,278.66L266.82,283.21L267.87,283.45L260.90,287.30L256.38,285.59L251.87,285.85L252.42,282.40L250.55,280.13L246.18,283.50L247.74,280.03L247.11,276.24L245.77,275.07L239.31,274.48L239.99,277.26L237.71,277.11L237.75,280.35L236.42,278.98L235.42,272.87L236.67,272.01L236.10,267.67L234.37,264.95L235.42,264.69L235.24,263.25L237.77,263.50L239.33,266.00L245.48,268.75L251.65,266.13L257.22,266.34L260.68,273.68L267.51,278.66ZM253.74,289.80L252.05,288.36L253.64,288.24L253.74,289.80ZM247.02,284.84L247.97,285.64L245.73,285.77L243.88,283.71L247.02,284.84Z"><title>Batangas</title></path>
<path data-code="PH-CAV" data-name="Cavite" d="M235.24,263.25L236.40,261.29L239.62,260.17L245.82,253.99L248.94,252.59L250.90,256.22L250.97,259.03L253.22,259.51L251.31,266.81L246.59,268.65L239.79,266.30L237.77,263.50L235.24,263.25Z"><title>Cavite</title></path>
<path data-code="PH-BUL" data-name="Bulacan" d="M247.26,244.91L244.42,242.33L237.77,241.65L240.12,237.21L244.01,235.57L246.84,232.54L248.19,228.88L248.07,224.62L254.84,223.10L261.79,226.13L261.46,230.27L262.83,231.88L263.28,237.39L258.15,239.82L256.21,242.44L251.93,242.23L250.02,244.09L247.85,243.88L248.71,245.50L247.26,244.91Z"><title>Bulacan</title></path>
<path data-code="PH-PAM" data-name="Pampanga" d="M237.77,241.65L236.57,241.01L236.17,238.03L235.14,240.13L235.42,236.95L233.31,239.79L230.97,238.05L228.81,231.42L226.43,228.71L226.68,227.12L234.54,223.19L240.93,222.57L244.59,226.70L248.07,224.62L248.19,228.88L246.84,232.54L244.01,235.57L240.12,237.21L237.77,241.65ZM235.09,229.14L236.76,228.64L236.76,226.23L232.04,227.53L235.09,229.14Z"><title>Pampanga</title></path>
<path data-code="PH-BAN" data-name="Bataan" d="M233.31,239.79L233.08,244.58L234.70,246.69L235.29,252.19L234.04,254.67L230.37,255.45L227.17,253.17L227.02,248.47L223.54,246.48L221.92,243.55L223.05,242.88L221.97,242.11L228.69,238.37L230.10,235.38L230.97,238.05L233.31,239.79Z"><title>Bataan</title></path>
<path data-code="PH-ZMB" data-name="Zambales" d="M220.67,237.75L219.40,242.48L215.81,240.69L216.58,239.85L215.81,240.13L214.93,237.24L212.99,222.74L208.60,216.58L209.11,214.50L210.58,214.78L211.44,213.29L209.20,210.10L209.78,206.51L207.81,204.47L208.62,202.22L210.78,202.21L213.11,200.25L218.45,201.84L221.55,207.98L222.09,209.45L218.21,217.45L218.96,219.89L225.26,223.44L227.11,226.61L226.43,228.71L228.81,231.42L230.10,235.38L229.91,236.44L223.31,235.69L220.67,237.75Z"><title>Zambales</title></path>
<path data-code="PH-PAN" data-name="Pangasinan" d="M208.62,202.22L207.81,197.07L206.34,196.27L204.18,197.84L203.62,196.70L204.60,182.14L207.92,179.70L210.01,180.49L209.11,184.89L216.10,188.50L217.28,192.42L220.64,193.31L222.49,192.55L223.94,195.23L227.93,192.94L226.54,190.37L227.90,186.49L232.58,185.62L244.66,187.83L247.63,195.43L243.79,202.65L241.67,200.57L236.39,201.56L235.41,199.58L232.98,204.49L231.25,205.53L227.66,204.09L225.27,207.47L222.09,209.45L218.01,201.47L213.11,200.25L210.78,202.21L208.62,202.22ZM212.99,184.21L212.54,185.69L209.88,182.85L212.20,181.12L212.99,184.21Z"><title>Pangasinan</title></path>
<path data-code="PH-LUN" data-name="La Union" d="M227.90,186.49L225.45,183.30L223.19,170.97L224.33,170.89L225.08,162.52L227.77,159.12L232.19,159.19L233.42,167.26L235.18,169.40L232.14,172.72L230.55,176.68L232.58,185.62L227.90,186.49Z"><title>La Union</title></path>
<path data-code="PH-ILS" data-name="Ilocos Sur" d="M227.77,159.12L229.13,156.69L227.92,148.04L229.49,141.03L227.92,136.00L225.36,134.55L226.08,129.86L228.31,128.52L227.52,125.87L228.83,121.53L231.64,121.41L233.10,122.59L231.98,127.76L233.07,128.87L230.37,136.75L234.83,137.50L232.94,142.96L238.18,145.92L240.27,150.00L243.38,147.84L245.66,148.99L242.56,151.93L241.89,159.05L237.71,160.02L236.79,161.40L235.18,169.40L233.42,167.26L232.51,159.40L227.77,159.12Z"><title>Ilocos Sur</title></path>
<path data-code="PH-ILN" data-name="Ilocos Norte" d="M228.83,121.53L230.75,117.26L230.48,113.94L234.58,104.91L234.24,98.10L235.78,96.68L241.79,95.80L242.10,93.47L243.38,92.59L247.00,95.57L250.23,94.08L248.67,106.21L247.00,108.16L249.74,110.88L248.21,113.67L248.10,118.72L243.93,119.63L236.05,124.42L233.07,128.87L231.98,127.76L233.10,122.59L231.64,121.41L228.83,121.53Z"><title>Ilocos Norte</title></path>
<path data-code="PH-CAG" data-name="Cagayan" d="M250.23,94.08L254.43,92.66L256.83,93.33L272.68,102.61L274.84,105.34L274.67,103.20L284.09,106.68L289.51,105.10L292.51,101.90L293.77,97.44L296.87,97.57L300.24,104.47L298.87,109.03L294.41,113.57L294.92,118.05L293.13,127.58L294.96,135.13L274.96,136.03L271.71,134.28L265.48,125.60L262.41,124.25L267.77,113.65L268.41,107.02L260.89,101.58L255.13,99.44L253.15,96.77L248.80,100.22L250.23,94.08ZM265.02,82.63L268.38,83.44L265.71,84.64L260.91,84.21L265.02,82.63ZM286.94,79.47L287.61,80.85L282.97,85.75L281.78,85.28L283.98,79.02L286.01,78.42L286.94,79.47ZM258.34,72.07L259.90,75.75L259.62,78.17L257.57,75.52L258.34,72.07ZM270.20,66.52L270.97,67.98L269.15,68.89L265.41,67.19L263.61,64.39L265.30,63.34L269.84,63.71L270.20,66.52ZM287.17,56.62L287.94,57.28L287.19,59.65L284.19,58.19L287.17,56.62Z"><title>Cagayan</title></path>
<path data-code="PH-ISA" data-name="Isabela" d="M294.96,135.13L297.47,142.12L301.76,142.36L304.40,144.73L304.70,145.76L303.42,145.39L303.70,150.38L304.98,151.60L306.86,150.61L307.92,151.78L305.50,160.05L301.01,169.79L297.22,174.88L289.43,174.99L278.69,179.31L271.84,171.02L273.28,167.04L268.43,162.54L271.89,159.44L271.92,145.55L273.12,140.68L275.61,137.12L274.96,136.03L294.96,135.13ZM267.94,170.29L265.44,169.45L265.08,167.79L268.32,166.70L269.35,168.35L267.94,170.29Z"><title>Isabela</title></path>
<path data-code="PH-TAW" data-name="Tawi-Tawi" d="M222.28,608.45L220.95,614.29L219.74,613.46L219.66,610.84L218.27,611.66L217.35,610.32L216.58,612.68L213.76,612.53L211.08,615.81L206.01,616.42L206.10,613.69L211.48,610.14L216.07,608.74L219.87,605.42L220.86,605.60L221.08,608.33L222.28,608.45ZM193.37,624.47L194.13,627.82L192.36,632.00L191.57,622.47L193.37,624.47ZM206.67,624.01L205.23,623.36L205.02,621.74L206.88,622.39L206.67,624.01ZM205.15,616.50L203.24,617.03L205.22,614.06L205.15,616.50Z"><title>Tawi-Tawi</title></path>
<path data-code="PH-BAS" data-name="Basilan" d="M289.87,551.64L300.63,556.90L296.87,558.14L295.12,562.77L286.60,564.55L283.51,560.76L283.32,558.00L281.04,557.30L280.90,555.29L285.02,554.11L286.71,557.83L291.74,557.54L289.87,551.64ZM274.06,554.81L273.59,558.52L272.32,555.81L274.06,554.81Z"><title>Basilan</title></path>
<path data-code="PH-CAM" data-name="Camiguin" d="M392.73,456.78L393.64,458.44L392.21,461.50L388.52,459.65L387.18,457.45L389.89,454.84L392.73,456.78Z"><title>Camiguin</title></path>
<path data-code="PH-SIG" data-name="Siquijor" d="M351.88,458.12L352.80,458.73L352.08,459.53L349.41,460.69L343.35,457.33L349.78,453.16L352.10,455.49L351.88,458.12Z"><title>Siquijor</title></path>
<path data-code="PH-BOH" data-name="Bohol" d="M384.50,430.91L386.71,433.57L385.66,436.05L382.81,435.94L382.04,434.86L379.39,436.91L378.68,439.10L374.30,441.09L360.89,440.67L358.42,439.61L358.09,436.17L355.76,435.27L358.95,429.21L365.15,426.72L367.61,422.46L371.61,420.07L375.70,419.70L376.63,421.67L378.16,420.07L379.00,421.81L384.96,424.62L384.50,430.91ZM357.27,439.71L358.29,440.56L355.89,442.88L353.83,443.12L352.95,441.85L357.27,439.71ZM386.07,420.51L385.72,422.29L383.16,423.28L382.86,421.60L386.07,420.51Z"><title>Bohol</title></path>
<path data-code="PH-GUI" data-name="Guimaras" d="M314.76,397.60L315.74,401.24L313.85,406.41L311.88,408.79L310.40,409.23L310.38,408.20L308.20,409.75L306.16,406.52L308.84,404.75L308.20,402.50L313.23,396.54L314.76,397.60Z"><title>Guimaras</title></path>
<path data-code="PH-NEC" data-name="Negros Occidental" d="M310.48,447.61L305.37,439.22L303.93,439.10L304.21,436.96L303.16,437.52L302.88,431.98L305.87,426.91L314.64,426.45L320.85,422.05L320.72,412.41L318.66,406.06L322.62,402.08L326.56,403.07L328.18,399.67L324.72,397.30L324.06,392.59L325.73,390.73L333.66,387.50L338.48,389.43L340.30,388.91L340.88,390.46L342.39,389.59L345.26,390.45L347.24,393.88L347.10,395.88L343.44,405.61L339.38,410.79L333.87,408.76L331.04,409.66L332.24,415.44L326.10,427.30L310.48,447.61Z"><title>Negros Occidental</title></path>
<path data-code="PH-NER" data-name="Negros Oriental" d="M339.38,410.79L336.55,422.32L331.74,430.16L332.04,437.65L330.75,439.62L332.30,441.74L330.73,443.17L332.43,443.76L337.71,451.25L337.58,454.58L334.29,460.34L326.88,463.12L324.04,461.35L319.80,451.10L310.48,447.61L326.10,427.30L332.24,415.44L331.04,409.66L333.87,408.76L339.38,410.79Z"><title>Negros Oriental</title></path>
<path data-code="PH-CEB" data-name="Cebu" d="M358.30,416.35L355.48,417.19L350.17,423.47L349.29,430.26L343.66,443.33L337.95,448.75L337.45,444.91L341.02,429.87L340.19,426.94L344.73,421.21L348.40,413.08L352.83,406.87L352.67,404.75L357.57,396.90L360.78,388.50L360.15,386.25L361.17,383.59L362.22,384.38L361.69,380.58L364.96,376.68L366.05,376.99L365.80,378.37L363.22,384.38L365.31,384.91L365.56,387.97L365.82,392.06L364.02,397.09L365.31,403.17L364.75,407.25L362.97,412.14L359.75,409.11L358.45,410.16L357.11,412.29L358.30,416.35ZM355.76,380.46L356.28,381.66L353.22,381.42L352.14,378.06L353.68,376.09L355.76,380.46Z"><title>Cebu</title></path>
<path data-code="PH-AKL" data-name="Aklan" d="M282.52,357.70L284.14,352.90L286.66,351.35L291.57,355.18L302.61,359.31L310.29,365.99L307.36,369.54L302.48,369.60L300.51,374.10L294.78,374.98L294.49,371.14L292.69,368.76L294.18,359.96L293.50,358.26L287.29,355.31L282.52,357.70Z"><title>Aklan</title></path>
<path data-code="PH-ANT" data-name="Antique" d="M289.27,408.15L287.35,409.33L285.38,407.93L287.45,401.83L285.65,396.01L289.72,386.69L289.59,375.78L292.05,361.99L291.20,359.42L282.52,357.70L287.29,355.31L294.11,359.25L292.69,368.76L294.88,372.61L295.47,379.49L300.46,385.33L294.73,396.24L289.33,401.36L288.25,406.95L289.27,408.15ZM265.70,346.40L265.97,348.24L264.86,348.77L263.90,344.38L265.70,346.40ZM268.24,353.94L270.20,354.72L265.93,354.96L268.24,353.94Z"><title>Antique</title></path>
<path data-code="PH-ILI" data-name="Iloilo" d="M305.78,399.43L296.54,401.16L291.85,403.97L289.27,408.15L288.38,407.67L289.33,401.36L294.73,396.24L299.99,387.37L300.02,384.36L297.06,381.32L299.88,379.03L307.01,380.27L310.08,378.26L317.45,379.04L317.76,380.11L321.03,379.72L321.37,376.95L323.98,375.88L323.79,373.85L326.83,372.17L328.85,366.99L331.78,364.30L331.81,366.62L330.22,367.75L332.20,369.34L330.22,374.62L330.75,379.79L329.70,381.51L327.18,381.06L324.59,385.47L323.78,385.98L323.31,384.91L322.79,386.25L318.56,387.42L317.36,389.03L318.03,392.17L316.03,395.24L311.14,396.56L308.06,395.09L306.45,396.17L305.78,399.43Z"><title>Iloilo</title></path>
<path data-code="PH-CAP" data-name="Capiz" d="M310.29,365.99L311.43,367.75L312.86,365.43L314.51,366.43L315.28,363.78L319.25,364.02L320.92,366.24L323.54,367.22L320.96,369.41L321.90,370.48L329.00,366.94L326.83,372.17L323.79,373.85L323.98,375.88L321.37,376.95L321.03,379.72L317.76,380.11L317.45,379.04L310.08,378.26L307.64,380.18L299.88,379.03L297.06,381.32L296.34,380.72L294.78,374.98L300.51,374.10L302.48,369.60L307.36,369.54L310.29,365.99Z"><title>Capiz</title></path>
<path data-code="PH-ROM" data-name="Romblon" d="M313.88,333.27L313.23,336.56L311.03,338.14L307.28,334.24L304.26,333.01L303.93,330.96L306.12,329.78L311.79,330.12L313.88,333.27ZM298.54,325.46L299.73,328.11L298.54,330.51L297.26,326.80L298.54,325.46ZM292.35,323.11L293.90,324.43L292.87,324.69L291.74,333.91L289.39,340.55L290.27,342.14L288.88,342.53L288.48,344.77L286.48,341.95L286.66,340.01L287.54,341.09L288.10,339.38L285.04,337.13L285.16,335.72L287.76,331.77L287.86,325.95L292.35,323.11ZM277.64,313.56L276.70,313.89L276.31,312.28L277.42,312.28L277.64,313.56Z"><title>Romblon</title></path>
<path data-code="PH-NSA" data-name="Northern Samar" d="M377.18,337.62L373.63,328.24L374.71,326.32L376.89,327.84L388.78,328.91L396.23,328.24L396.21,326.01L402.71,328.39L404.95,326.47L407.10,326.51L414.00,333.40L412.05,337.60L411.12,337.85L408.70,334.29L406.44,337.05L402.38,338.84L397.09,338.88L395.04,340.06L391.62,338.85L388.79,339.92L381.56,336.06L377.18,337.62ZM369.58,333.45L368.26,330.65L369.88,332.12L369.58,333.45Z"><title>Northern Samar</title></path>
<path data-code="PH-MAS" data-name="Masbate" d="M365.31,356.52L365.30,359.39L357.81,352.14L353.57,351.62L352.40,350.56L353.68,349.53L353.19,348.48L350.43,347.15L350.85,346.07L348.75,345.75L346.18,341.55L343.88,340.40L341.58,341.06L339.35,344.72L331.64,351.97L333.75,343.66L336.05,342.47L335.40,341.32L336.71,340.43L333.83,340.01L335.91,332.47L334.75,330.89L334.46,325.95L339.04,327.63L337.91,331.91L340.17,329.04L341.96,328.81L346.41,331.20L348.54,333.93L347.75,335.27L349.59,334.53L351.51,335.78L355.48,341.59L355.53,339.28L357.55,341.06L359.09,340.80L365.13,349.92L363.22,348.48L365.43,353.62L365.31,356.52ZM355.24,334.32L355.36,335.77L347.56,324.75L348.54,322.30L353.19,326.01L355.24,334.32ZM336.17,315.45L339.76,322.06L327.91,310.69L324.65,309.52L323.54,305.95L325.34,304.32L327.13,305.31L331.65,312.65L336.17,315.45Z"><title>Masbate</title></path>
<path data-code="PH-MDR" data-name="Mindoro Oriental" d="M246.40,290.78L249.56,289.80L248.79,290.85L251.42,293.99L254.50,294.21L254.98,295.90L257.82,293.24L264.56,300.79L266.60,301.60L266.82,304.61L270.23,304.82L271.21,305.95L268.82,308.83L268.38,315.69L270.93,325.24L266.88,328.69L265.92,332.80L267.09,334.98L264.86,334.59L265.30,337.64L263.75,336.31L259.73,340.32L259.72,309.04L242.11,300.41L246.34,294.71L246.40,290.78Z"><title>Mindoro Oriental</title></path>
<path data-code="PH-MDC" data-name="Mindoro Occidental" d="M259.73,340.32L254.68,339.12L254.21,336.06L255.77,336.85L252.31,335.33L247.26,329.05L247.48,325.01L244.94,321.22L242.81,320.68L240.67,308.96L236.96,303.18L232.16,301.36L229.82,294.04L226.19,295.57L225.12,294.94L224.33,293.11L225.50,290.76L234.07,290.46L241.18,292.25L246.40,290.78L246.34,294.71L242.11,300.41L259.14,308.09L259.73,340.32ZM222.61,282.81L223.54,283.58L222.74,284.27L216.87,280.29L216.02,277.05L221.74,279.22L223.02,281.23L222.61,282.81ZM254.77,341.22L254.88,342.71L252.35,340.29L252.66,338.07L254.77,341.22Z"><title>Mindoro Occidental</title></path>
<path data-code="PH-MAD" data-name="Marinduque" d="M291.84,294.18L292.54,296.49L288.35,302.35L283.32,299.59L281.01,296.66L282.70,288.44L284.60,290.08L287.94,289.01L289.67,291.53L292.35,292.31L291.84,294.18Z"><title>Marinduque</title></path>
<path data-code="PH-CAT" data-name="Catanduanes" d="M378.96,276.58L377.91,277.64L378.96,279.48L377.91,279.77L378.61,284.51L376.60,284.81L375.83,288.74L374.28,286.95L372.70,287.14L370.30,290.08L365.02,286.88L364.22,284.42L367.28,281.51L368.11,278.69L368.39,268.66L371.35,268.35L374.83,275.29L375.64,274.27L378.96,276.58Z"><title>Catanduanes</title></path>
<path data-code="PH-BTN" data-name="Batanes" d="M282.06,26.98L284.00,28.23L283.11,29.68L282.06,26.98ZM288.39,21.49L289.24,22.43L286.66,24.65L286.94,26.12L285.09,26.67L286.74,22.56L288.39,21.49ZM283.40,10.62L281.62,13.37L279.99,13.22L282.60,8.00L283.40,10.62Z"><title>Batanes</title></path>
<path data-code="PH-AGS" data-name="Agusan del Sur" d="M429.70,456.28L431.03,460.20L431.01,465.77L432.79,466.37L439.69,477.30L438.13,481.11L441.05,487.98L446.84,489.59L446.17,494.76L449.41,503.20L414.93,503.13L413.03,494.82L412.91,480.30L417.09,480.03L420.96,476.06L425.76,476.54L427.30,475.56L425.75,469.24L429.70,456.28Z"><title>Agusan del Sur</title></path>
<path data-code="PH-BUK" data-name="Bukidnon" d="M409.54,480.23L412.91,480.30L413.03,494.82L417.42,510.55L417.20,514.30L415.91,515.90L412.27,515.45L411.42,519.13L408.43,519.75L403.69,523.43L403.11,525.23L400.61,526.57L398.02,525.11L397.06,525.81L395.43,520.99L385.97,506.51L388.48,504.59L384.29,498.46L386.55,487.10L394.13,487.15L394.57,482.44L397.18,480.19L409.54,480.23Z"><title>Bukidnon</title></path>
<path data-code="PH-NCO" data-name="Cotabato" d="M382.91,514.97L385.49,517.51L393.65,518.04L396.70,525.58L398.32,525.18L400.61,526.57L408.43,519.75L410.85,519.30L410.25,532.40L409.22,534.53L412.04,536.89L412.70,540.52L410.97,541.50L410.95,543.35L407.11,547.59L406.48,550.00L396.96,552.06L395.02,550.91L394.57,542.56L392.81,542.34L393.25,538.73L390.41,533.86L389.30,535.28L390.41,537.00L388.32,538.57L390.35,541.76L388.87,543.50L385.14,542.29L384.28,540.30L380.06,537.82L381.68,532.82L379.61,532.53L377.44,534.98L375.49,534.86L381.77,524.90L380.12,520.80L380.71,515.79L382.91,514.97Z"><title>Cotabato</title></path>
<path data-code="PH-SCO" data-name="South Cotabato" d="M387.08,555.51L388.55,557.39L391.51,555.61L395.42,559.67L398.06,558.50L407.49,558.44L406.82,562.25L403.68,566.96L406.02,567.80L404.70,570.46L405.33,572.81L402.20,572.59L402.66,579.98L392.93,579.71L378.15,571.95L377.64,573.91L372.62,568.89L387.37,568.89L386.04,560.48L387.08,555.51Z"><title>South Cotabato</title></path>
<path data-code="PH-NUE" data-name="Nueva Ecija" d="M245.22,226.76L242.12,224.42L242.22,222.00L240.79,219.99L240.35,211.85L241.50,209.56L237.71,207.76L236.39,201.56L241.67,200.57L243.79,202.65L247.37,197.01L246.14,190.68L250.93,189.33L255.60,190.66L257.36,192.64L258.21,198.49L264.17,216.33L261.79,226.13L254.84,223.10L247.25,224.83L245.22,226.76Z"><title>Nueva Ecija</title></path>
<path data-code="PH-LAG" data-name="Laguna" d="M267.94,249.98L272.61,259.60L272.77,263.22L269.36,268.81L260.36,273.17L257.22,266.34L251.65,266.13L253.22,259.51L250.97,259.03L250.97,257.84L255.81,256.72L255.65,251.35L259.53,260.05L260.29,258.21L259.22,253.64L260.22,251.85L262.99,254.60L262.04,260.48L265.02,258.38L264.21,252.36L267.94,249.98Z"><title>Laguna</title></path>
<path data-code="PH-RIZ" data-name="Rizal" d="M263.28,237.39L263.75,242.87L267.73,249.65L264.21,252.36L265.02,258.38L262.04,260.48L262.83,254.13L260.84,252.06L259.69,252.31L259.53,260.05L256.89,252.31L255.12,251.45L254.87,248.20L256.13,246.78L255.16,246.10L255.58,243.21L258.15,239.82L263.28,237.39Z"><title>Rizal</title></path>
<path data-code="PH-QUI" data-name="Quirino" d="M289.43,174.99L283.22,183.70L267.25,197.48L262.51,190.47L261.23,184.55L266.27,181.21L266.61,179.04L263.87,177.85L265.44,169.45L271.84,171.02L278.69,179.31L289.43,174.99Z"><title>Quirino</title></path>
<path data-code="PH-NUV" data-name="Nueva Vizcaya" d="M267.25,197.48L260.46,203.14L256.71,191.44L250.93,189.33L246.14,190.68L245.29,188.26L241.26,186.83L242.02,183.36L245.01,182.02L246.33,179.53L246.75,171.53L260.95,168.93L263.02,165.09L264.69,167.07L265.44,169.45L263.87,177.85L266.61,179.04L266.46,180.50L261.23,184.55L262.51,190.47L267.25,197.48Z"><title>Nueva Vizcaya</title></path>
<path data-code="PH-BEN" data-name="Benguet" d="M232.58,185.62L231.17,181.30L230.96,174.66L236.07,167.81L237.71,160.02L241.89,159.05L245.87,163.77L246.33,179.53L245.01,182.02L242.02,183.36L241.26,186.83L238.02,187.36L232.58,185.62ZM237.35,180.93L237.05,177.91L234.01,177.81L234.79,180.73L237.35,180.93Z"><title>Benguet</title></path>
<path data-code="PH-IFU" data-name="Ifugao" d="M271.60,152.67L271.89,159.44L270.15,161.97L263.24,164.45L260.95,168.93L246.75,171.53L244.80,161.93L248.01,161.56L250.77,156.66L258.88,155.62L266.77,152.69L271.60,152.67Z"><title>Ifugao</title></path>
<path data-code="PH-MOU" data-name="Mountain Province" d="M271.87,146.36L271.60,152.67L264.53,153.18L258.88,155.62L252.41,155.82L249.45,157.90L247.38,161.99L244.80,161.93L241.89,159.05L242.56,151.93L244.30,149.43L246.53,148.77L247.21,146.39L257.73,149.52L266.37,144.50L271.87,146.36Z"><title>Mountain Province</title></path>
<path data-code="PH-TAR" data-name="Tarlac" d="M241.52,223.12L233.72,223.32L227.11,226.61L224.39,222.57L218.96,219.89L218.21,217.45L222.09,209.45L225.27,207.47L227.66,204.09L231.25,205.53L232.98,204.49L235.41,199.58L237.71,207.76L241.50,209.56L240.35,211.85L240.79,219.99L242.22,222.00L241.52,223.12Z"><title>Tarlac</title></path>
<path data-code="PH-APA" data-name="Apayao" d="M248.10,118.72L248.21,113.67L249.74,110.88L247.00,108.16L248.67,106.21L248.80,100.22L252.64,96.94L255.13,99.44L260.89,101.58L268.41,107.02L267.77,113.65L262.39,123.52L265.48,125.60L266.54,128.33L255.18,129.65L254.28,124.53L251.37,123.66L249.70,119.54L248.10,118.72Z"><title>Apayao</title></path>
<path data-code="PH-KAL" data-name="Kalinga" d="M266.54,128.33L275.61,137.12L273.46,139.80L271.87,146.36L266.37,144.50L257.73,149.52L247.21,146.39L249.77,141.89L250.72,137.12L254.83,133.81L254.35,130.27L266.54,128.33Z"><title>Kalinga</title></path>
<path data-code="PH-ABR" data-name="Abra" d="M246.21,119.53L249.07,119.01L251.37,123.66L254.28,124.53L254.83,133.81L250.72,137.12L246.53,148.77L243.38,147.84L240.27,150.00L238.18,145.92L232.94,142.96L234.83,137.50L230.37,136.75L230.96,133.33L236.05,124.42L243.93,119.63L246.21,119.53Z"><title>Abra</title></path>
  </g>
</svg>
