<?xml version="1.0" encoding="UTF-8"?>
<svg xmlns="http://www.w3.org/2000/svg" viewBox="0 0 560 640" class="pref-muni-svg" role="img" aria-label="行政区分">
  <g class="pref-muni-svg__paths" fill="#eaf2fb" stroke="#5b7fa8" stroke-width="0.6" stroke-linejoin="round">
<path data-code="PT-07" data-name="Évora" d="M529.88,249.55L528.61,250.97L528.43,252.78L528.91,253.54L527.88,255.19L527.28,256.86L527.50,257.52L526.98,258.14L527.90,258.73L531.15,262.82L532.24,265.20L531.79,265.41L531.02,265.02L530.44,263.52L529.30,262.69L528.53,261.22L526.09,262.08L525.79,262.93L523.56,264.86L519.94,264.46L515.07,262.58L513.75,261.71L512.84,261.93L511.74,261.33L509.57,261.60L506.40,260.00L506.82,258.72L506.14,258.10L505.91,256.70L505.09,255.74L503.06,256.19L502.25,255.58L501.88,256.18L500.72,255.92L499.24,255.35L498.95,254.31L499.73,252.88L502.07,250.98L502.27,249.77L501.23,249.53L502.27,248.67L504.66,247.75L504.96,247.23L506.73,246.99L507.66,247.83L508.57,248.05L509.44,249.15L510.17,248.98L510.25,248.37L509.28,247.52L509.29,246.65L507.44,245.58L508.09,243.72L509.92,242.59L510.85,242.68L510.96,243.86L511.23,243.25L512.12,243.22L512.62,243.75L512.76,244.73L514.75,244.07L515.97,245.54L516.82,245.98L518.40,245.73L518.95,245.11L520.93,245.44L521.71,244.64L523.01,244.18L522.86,243.47L523.34,243.26L524.67,244.19L526.25,248.24L527.25,248.64L528.48,247.70L529.51,247.48L530.11,247.95L529.88,249.55Z"><title>Évora</title></path>
<path data-code="PT-12" data-name="Portalegre" d="M532.50,247.91L531.50,248.12L529.88,249.55L530.11,247.95L529.51,247.48L526.77,248.60L525.81,247.52L525.93,247.11L524.92,245.37L524.67,244.19L523.32,243.26L522.86,243.47L523.01,244.18L521.71,244.64L520.93,245.44L518.95,245.11L518.40,245.73L516.59,245.95L514.75,244.07L513.29,244.80L512.68,244.68L512.62,243.75L512.01,243.16L511.23,243.25L510.96,243.86L510.85,242.68L510.52,242.55L508.81,243.25L507.85,242.94L506.77,241.13L505.84,240.57L505.85,240.13L510.28,235.66L511.39,235.48L512.56,233.60L513.76,232.79L514.16,231.96L512.86,230.68L513.78,228.85L514.46,228.41L516.08,229.30L518.72,227.04L519.69,225.74L520.92,226.02L522.50,224.99L523.59,227.32L524.62,228.49L525.72,229.19L526.44,230.27L527.97,230.98L527.58,232.94L527.69,234.10L529.33,236.00L529.01,237.05L529.48,238.01L531.13,238.69L531.40,239.20L531.14,240.22L532.01,240.65L532.80,240.25L533.93,240.34L535.09,241.48L535.35,242.89L533.34,245.83L533.56,247.16L532.50,247.91Z"><title>Portalegre</title></path>
<path data-code="PT-16" data-name="Viana do Castelo" d="M508.26,158.56L508.65,159.23L508.66,160.82L510.10,160.73L511.02,161.59L510.74,162.39L509.13,163.61L508.09,165.25L508.30,166.23L509.24,166.72L509.20,167.72L506.25,168.97L504.02,169.12L502.17,169.83L501.11,172.65L499.27,172.06L495.30,172.95L495.14,171.21L496.96,170.83L497.98,170.15L495.08,170.89L494.40,170.63L493.99,169.75L494.11,166.73L496.54,164.51L496.80,163.52L498.53,162.69L499.49,161.31L505.56,159.95L508.26,158.56Z"><title>Viana do Castelo</title></path>
<path data-code="PT-05" data-name="Castelo Branco" d="M536.03,209.56L534.43,210.35L533.84,211.54L534.43,213.21L535.74,213.64L537.39,216.16L536.40,218.61L536.34,220.12L534.77,221.71L534.93,222.47L534.32,224.63L530.81,225.14L529.66,224.83L527.37,225.22L522.50,224.99L520.92,226.02L519.69,225.74L517.32,228.30L515.97,226.19L514.16,225.38L513.84,223.45L512.18,223.29L511.54,225.48L511.75,226.50L510.06,226.72L508.11,225.56L508.12,222.95L507.16,222.33L506.92,221.62L507.34,220.69L509.71,219.51L510.90,217.92L515.09,216.15L515.36,215.15L516.45,214.85L517.27,215.31L517.40,214.17L518.10,214.33L518.82,213.57L518.68,212.96L517.27,211.44L517.81,210.18L520.82,208.71L521.72,207.63L522.99,207.69L524.94,205.30L526.30,206.13L527.70,205.40L528.89,205.40L528.71,206.99L527.81,208.59L528.06,208.90L529.43,209.23L531.44,208.89L532.38,207.83L533.14,208.72L534.83,208.74L536.03,209.56Z"><title>Castelo Branco</title></path>
<path data-code="PT-09" data-name="Guarda" d="M537.50,208.91L537.02,209.55L536.03,209.56L534.83,208.74L533.14,208.72L532.38,207.83L531.44,208.89L528.42,209.02L527.81,208.59L528.71,206.99L528.89,205.40L527.70,205.40L526.30,206.13L524.94,205.30L522.99,207.69L521.72,207.63L520.82,208.71L518.86,209.85L517.81,210.18L516.89,209.38L518.13,207.43L517.60,206.82L517.44,205.61L516.61,205.02L517.40,204.13L516.89,203.04L519.88,201.59L522.24,201.04L522.16,200.49L523.06,198.00L522.21,197.23L521.99,196.83L522.29,196.20L521.36,195.04L522.67,193.00L523.43,193.11L525.11,194.39L525.83,193.02L525.59,191.77L526.69,191.81L527.37,191.22L527.53,190.26L526.67,189.29L527.54,189.01L527.51,187.79L528.25,185.27L531.09,185.31L532.33,184.38L532.04,185.13L532.77,185.54L532.91,186.93L535.05,188.13L536.35,188.25L536.07,189.46L537.27,190.92L537.92,192.58L538.66,193.04L538.67,193.73L538.32,193.84L538.26,196.06L538.80,199.02L538.02,200.77L538.84,202.58L537.87,204.53L538.00,205.41L539.23,206.83L537.50,208.91Z"><title>Guarda</title></path>
<path data-code="PT-04" data-name="Bragança" d="M546.01,181.41L544.24,182.27L542.44,182.36L540.09,185.28L539.88,186.62L538.72,188.09L535.05,188.13L533.14,187.22L532.63,186.22L532.77,185.54L532.04,185.13L532.33,184.38L531.09,185.31L527.70,185.31L525.40,183.74L525.66,183.11L526.25,182.93L526.77,181.01L527.89,180.41L527.04,179.54L526.92,177.68L528.01,177.00L528.82,175.66L529.65,175.30L529.24,174.38L529.30,173.31L530.00,171.07L531.03,169.47L530.30,167.15L530.44,163.66L531.62,163.02L533.66,164.24L534.94,163.59L536.57,164.32L538.44,163.92L538.57,163.12L539.24,163.23L540.03,164.36L540.68,164.54L542.96,164.27L543.25,163.70L544.07,164.23L543.98,165.83L545.10,166.25L543.94,169.68L544.72,171.85L545.56,172.00L546.47,171.37L548.53,171.72L550.56,172.67L552.00,174.23L550.40,176.20L550.33,177.04L549.50,178.51L548.24,178.87L548.24,179.41L547.80,179.41L546.01,181.41Z"><title>Bragança</title></path>
<path data-code="PT-17" data-name="Vila Real" d="M511.99,167.63L513.22,166.35L514.28,166.26L514.69,165.15L515.12,165.00L515.33,166.50L519.11,165.39L520.43,166.05L521.60,166.09L521.27,166.94L521.63,167.37L522.92,167.20L523.59,166.31L524.59,166.65L525.17,167.90L526.27,166.93L529.32,166.35L530.24,165.66L530.35,167.62L531.03,169.47L530.00,171.07L529.30,173.31L529.24,174.38L529.65,175.30L528.82,175.66L528.01,177.00L526.92,177.68L527.04,179.54L527.89,180.41L526.77,181.01L526.25,182.93L525.66,183.11L525.40,183.74L522.84,184.64L520.49,184.71L518.77,185.45L516.91,184.54L515.34,185.27L515.79,182.92L515.05,182.05L515.05,181.31L514.14,180.73L513.62,179.61L514.54,176.77L516.21,175.43L517.13,173.90L516.43,173.06L515.33,173.71L513.12,173.13L513.34,171.34L512.46,170.69L510.52,170.95L511.25,170.00L511.99,167.63Z"><title>Vila Real</title></path>
<path data-code="PT-03" data-name="Braga" d="M509.20,167.72L512.04,167.68L511.25,170.00L510.52,170.95L512.46,170.69L513.29,171.18L513.12,173.13L515.33,173.71L516.43,173.06L517.13,173.90L516.21,175.43L514.54,176.77L513.50,179.99L512.69,180.74L510.66,180.15L509.40,178.78L508.33,178.41L506.24,179.69L502.94,179.45L501.49,180.11L499.98,180.16L499.58,179.32L500.15,178.85L499.85,178.50L498.62,177.62L496.27,176.99L495.30,172.95L499.27,172.06L501.11,172.65L502.17,169.83L504.02,169.12L506.25,168.97L509.20,167.72Z"><title>Braga</title></path>
<path data-code="PT-08" data-name="Faro" d="M523.61,282.80L524.61,284.22L525.46,290.63L526.09,292.36L523.67,292.38L517.00,297.03L513.27,296.61L513.59,297.35L512.32,295.98L509.20,294.63L506.72,294.90L505.16,294.36L503.56,294.77L500.50,293.66L499.17,293.83L498.20,294.76L496.87,294.76L494.45,295.90L494.02,295.72L492.56,296.78L491.44,296.42L491.70,295.29L493.27,292.43L493.07,291.63L493.97,290.75L494.28,289.56L493.94,288.67L494.89,287.31L495.57,284.92L497.48,286.24L499.27,286.69L500.63,286.09L502.98,286.91L503.73,286.59L504.10,285.87L506.45,285.34L507.00,285.49L507.53,286.65L509.38,287.94L511.55,288.22L513.29,287.22L513.06,286.77L513.47,286.21L515.07,286.00L517.73,284.26L519.43,283.55L521.33,283.71L522.45,282.91L523.61,282.80ZM514.04,297.51L515.17,297.67L516.12,296.98L516.27,297.35L515.17,297.91L514.04,297.51Z"><title>Faro</title></path>
<path data-code="PT-02" data-name="Beja" d="M535.85,264.80L534.26,269.52L532.10,269.06L531.31,270.22L528.86,270.75L528.95,271.49L528.12,274.14L527.52,275.18L525.14,277.38L524.55,279.88L523.62,280.84L523.29,281.76L523.61,282.80L522.45,282.91L521.33,283.71L519.43,283.55L517.73,284.26L515.07,286.00L513.47,286.21L513.06,286.77L513.29,287.22L511.55,288.22L509.38,287.94L507.53,286.65L507.00,285.49L506.45,285.34L504.10,285.87L503.73,286.59L502.98,286.91L500.63,286.09L499.27,286.69L497.48,286.24L495.57,284.92L495.83,282.61L495.16,280.86L495.75,278.25L496.65,278.01L496.77,277.36L495.54,277.57L495.70,274.78L496.14,275.23L497.16,275.14L498.26,276.64L498.68,276.30L499.80,276.73L500.29,276.42L501.18,274.44L501.77,274.08L503.70,273.72L505.96,274.25L506.59,272.58L506.72,270.63L506.37,269.79L505.28,269.35L504.38,268.09L504.71,267.16L505.29,267.13L505.54,266.28L506.52,266.33L507.07,265.28L507.84,265.31L508.25,264.72L510.15,264.13L510.26,263.40L509.65,261.36L512.05,261.38L512.84,261.93L513.75,261.71L515.07,262.58L519.94,264.46L523.56,264.86L525.79,262.93L526.09,262.08L528.53,261.22L531.48,265.39L533.41,265.36L534.95,264.64L535.85,264.80Z"><title>Beja</title></path>
<path data-code="PT-15" data-name="Setúbal" d="M495.70,274.78L495.75,273.41L495.28,272.08L493.67,271.41L495.39,268.46L496.29,265.11L495.84,260.48L494.03,258.07L492.64,257.20L492.97,256.87L493.46,257.07L495.73,258.34L495.76,258.69L498.83,259.23L499.92,258.88L497.12,257.99L496.76,257.02L497.09,256.10L496.57,255.68L496.65,255.00L496.31,254.95L495.45,255.93L496.16,256.55L495.98,257.20L493.43,256.37L492.37,256.56L491.57,257.79L490.34,258.29L486.39,258.88L486.38,258.37L487.27,257.44L487.41,255.32L485.91,252.25L488.25,251.84L489.06,252.43L488.92,251.88L490.26,251.50L492.88,249.23L493.53,250.24L494.82,249.82L496.55,250.30L497.83,247.72L499.12,248.23L499.90,247.83L500.22,249.38L502.13,249.69L502.32,250.05L501.55,251.64L498.95,253.85L499.24,255.35L501.88,256.18L502.05,255.56L503.06,256.19L505.09,255.74L505.91,256.70L506.14,258.10L506.82,258.72L506.40,260.00L509.57,261.60L510.25,263.83L508.08,264.81L507.84,265.31L507.07,265.28L506.67,266.25L505.82,266.10L505.21,267.25L504.60,267.40L504.54,268.65L506.37,269.79L506.72,270.63L506.59,272.58L505.96,274.25L503.70,273.72L501.77,274.08L501.18,274.44L500.29,276.42L499.80,276.73L498.68,276.30L498.26,276.64L497.16,275.14L496.14,275.23L495.70,274.78Z"><title>Setúbal</title></path>
<path data-code="PT-11" data-name="Lisboa" d="M492.64,249.30L492.04,247.69L492.19,247.28L491.69,247.31L491.14,245.60L492.62,242.86L495.94,241.37L495.36,242.20L494.55,242.43L494.85,242.84L492.35,247.54L493.06,249.24L492.64,249.30ZM495.91,241.06L494.94,241.75L492.78,242.18L489.22,247.83L489.26,250.31L488.95,250.95L486.62,251.49L485.21,251.36L484.41,252.12L482.61,251.22L480.73,251.12L480.60,248.38L481.51,247.29L482.22,245.11L481.92,242.48L483.78,237.97L483.85,235.41L486.38,234.77L487.72,237.33L489.94,234.90L491.52,235.24L491.74,236.27L493.24,236.69L494.11,236.44L495.37,237.87L493.50,238.66L495.91,241.06ZM490.50,246.83L490.49,247.32L489.66,248.10L490.50,246.83Z"><title>Lisboa</title></path>
<path data-code="PT-14" data-name="Santarém" d="M495.94,241.37L496.49,240.64L495.91,241.06L493.50,238.66L495.37,237.87L494.11,236.44L493.24,236.69L491.74,236.27L491.33,233.88L493.68,230.63L496.79,230.39L497.18,229.88L496.98,229.08L497.81,228.99L498.50,228.09L498.02,226.03L499.11,225.03L498.46,223.91L498.64,222.50L500.30,222.13L502.87,220.78L503.48,223.33L506.05,222.62L505.96,221.77L507.03,221.92L508.12,222.95L508.31,225.90L510.06,226.72L511.75,226.50L511.54,225.48L512.18,223.29L513.84,223.45L514.16,225.38L515.97,226.19L517.32,228.30L516.08,229.30L514.46,228.41L513.78,228.85L512.86,230.68L514.16,231.96L513.76,232.79L512.56,233.60L511.39,235.48L510.28,235.66L505.85,240.13L505.84,240.57L506.77,241.13L507.56,242.69L508.81,243.25L507.99,243.89L507.44,245.58L509.29,246.65L509.28,247.52L510.25,248.37L509.80,249.33L508.57,248.05L506.59,246.99L506.34,247.31L504.96,247.23L504.66,247.75L502.27,248.67L501.23,249.53L499.97,249.08L500.01,247.89L499.12,248.23L497.98,247.66L496.55,250.30L494.82,249.82L493.32,250.17L492.35,247.54L494.85,242.84L494.55,242.43L495.36,242.20L495.94,241.37Z"><title>Santarém</title></path>
<path data-code="PT-10" data-name="Leiria" d="M483.85,235.41L483.46,234.24L482.51,233.19L483.74,233.39L485.73,232.03L486.93,232.11L486.41,231.43L487.43,230.04L488.45,229.40L489.43,227.71L489.84,224.99L493.51,215.13L495.40,215.84L496.40,215.41L497.94,215.54L499.44,216.51L500.78,215.65L501.47,217.59L503.30,216.08L503.98,216.01L504.73,217.57L504.30,218.17L504.63,218.22L506.27,217.08L507.16,217.04L506.73,215.98L507.98,214.69L508.63,214.93L509.30,214.09L509.85,214.56L509.84,215.95L510.74,217.34L509.92,219.32L508.63,220.32L507.45,220.58L506.92,221.49L507.03,221.92L505.96,221.77L505.95,222.68L503.48,223.33L502.87,220.78L500.30,222.13L498.64,222.50L498.46,223.91L499.11,225.03L498.02,226.03L498.50,228.09L497.81,228.99L496.98,229.08L497.18,229.88L496.79,230.39L494.32,230.39L493.38,230.92L492.70,232.30L491.42,233.56L491.52,235.24L489.79,234.96L487.72,237.33L486.38,234.77L483.85,235.41Z"><title>Leiria</title></path>
<path data-code="PT-06" data-name="Coimbra" d="M493.51,215.13L494.58,212.67L495.19,213.18L496.06,213.22L495.38,212.47L493.64,211.98L493.38,211.02L494.31,209.01L495.99,202.36L498.43,204.73L499.16,204.81L499.88,203.41L500.71,203.95L500.82,205.55L502.13,205.12L502.53,206.30L501.75,208.44L503.17,208.73L505.49,206.42L507.98,207.80L508.38,207.28L510.56,207.30L514.72,204.85L516.44,203.15L516.89,203.04L517.37,203.94L516.61,205.02L517.44,205.61L517.60,206.82L518.13,207.43L516.89,209.38L517.81,210.18L517.39,211.77L518.68,212.96L518.82,213.57L518.10,214.33L517.40,214.17L517.27,215.31L515.87,214.90L515.10,215.42L515.09,216.15L512.53,217.07L510.34,218.52L510.30,217.91L510.74,217.34L509.84,215.95L509.93,214.73L509.30,214.09L508.63,214.93L507.98,214.69L507.06,215.48L506.73,215.98L507.21,216.82L507.03,217.17L506.27,217.08L504.63,218.22L504.30,218.17L504.73,217.57L503.98,216.01L503.30,216.08L501.47,217.59L500.78,215.65L499.44,216.51L497.94,215.54L496.40,215.41L495.40,215.84L493.51,215.13Z"><title>Coimbra</title></path>
<path data-code="PT-01" data-name="Aveiro" d="M495.99,202.36L496.81,199.11L496.93,199.78L497.68,198.85L498.12,199.03L497.98,198.31L498.72,198.41L499.17,197.76L498.69,196.96L500.66,196.11L498.58,196.33L498.25,195.37L499.08,194.28L498.87,193.71L498.70,194.52L498.43,194.26L498.12,194.81L497.59,197.36L496.80,198.86L498.87,189.10L501.67,188.68L502.58,189.08L503.36,188.06L504.63,189.23L504.57,188.48L505.57,188.37L506.79,187.31L508.10,188.10L508.22,189.29L509.85,190.03L511.18,189.37L510.29,191.27L510.58,193.48L507.67,193.43L507.89,194.41L506.03,196.88L506.83,199.28L507.69,199.78L506.53,200.45L507.59,202.59L505.90,203.40L506.11,204.45L505.40,205.59L505.49,206.42L505.05,207.16L504.42,207.17L503.17,208.73L501.90,208.61L501.79,207.75L502.53,206.30L502.13,205.12L500.82,205.55L500.71,203.95L499.88,203.41L499.16,204.81L498.43,204.73L495.99,202.36Z"><title>Aveiro</title></path>
<path data-code="PT-13" data-name="Porto" d="M498.87,189.10L498.63,185.98L499.02,185.44L498.21,185.26L497.09,182.84L496.94,180.73L496.08,178.97L496.27,176.99L498.62,177.62L499.85,178.50L500.15,178.85L499.58,179.32L499.98,180.16L501.49,180.11L502.94,179.45L506.24,179.69L508.33,178.41L509.40,178.78L510.66,180.15L512.30,180.82L513.32,180.22L513.62,179.61L514.14,180.73L515.05,181.31L515.05,182.05L515.79,182.92L515.34,185.27L514.38,185.84L511.74,186.70L508.25,186.77L506.79,187.31L505.57,188.37L504.57,188.48L504.63,189.23L503.36,188.06L502.58,189.08L501.67,188.68L498.87,189.10Z"><title>Porto</title></path>
<path data-code="PT-30" data-name="Madeira" d="M328.99,418.09L327.79,415.71L328.56,416.68L328.99,418.09ZM322.44,412.85L322.06,413.66L321.16,414.00L318.36,413.91L313.94,411.80L312.63,410.37L312.39,409.42L313.85,407.82L316.38,409.43L319.60,408.70L322.25,410.49L324.96,410.92L323.28,411.67L322.44,412.85ZM332.18,402.90L331.65,403.51L330.91,403.37L332.15,401.59L333.28,401.52L333.58,402.82L332.18,402.90ZM342.49,480.92L342.59,481.44L342.27,481.32L342.49,480.92Z"><title>Madeira</title></path>
<path data-code="PT-20" data-name="Azores" d="M142.88,296.42L143.96,297.79L144.06,298.36L143.74,298.76L141.74,298.26L140.66,298.44L139.95,297.25L140.63,296.57L142.88,296.42ZM140.03,273.77L140.87,274.11L141.39,274.90L141.45,275.87L140.92,276.72L133.36,278.01L130.97,277.09L129.05,277.01L126.43,275.09L125.68,274.05L126.07,272.66L127.74,272.51L129.05,273.28L129.38,274.27L132.31,274.71L133.50,274.14L134.38,274.71L136.96,273.84L140.03,273.77ZM76.87,258.13L77.87,258.24L78.37,259.14L78.07,259.43L75.23,259.23L74.00,259.99L72.81,259.08L69.28,259.23L67.34,257.12L67.34,255.93L68.72,255.15L71.13,255.34L74.78,257.48L76.87,258.13ZM66.02,254.08L66.32,255.28L65.28,255.75L65.73,256.10L63.48,256.30L60.98,254.03L62.63,253.83L63.64,252.80L66.02,254.08ZM81.61,253.90L84.44,255.38L82.81,255.55L79.75,254.20L78.50,254.28L77.64,253.54L75.39,252.80L72.48,250.38L72.41,249.85L78.51,252.23L81.61,253.90ZM100.50,251.50L99.76,251.88L99.76,252.80L99.01,253.18L96.51,252.60L95.99,252.91L93.29,251.75L92.44,249.75L92.94,249.11L94.47,248.55L97.81,248.75L100.02,250.13L100.05,250.94L100.50,251.50ZM79.61,242.86L77.91,242.29L77.70,241.45L78.06,240.64L79.10,240.46L80.50,241.84L80.40,242.62L79.61,242.86ZM9.66,229.61L10.71,229.79L11.12,230.30L11.32,231.91L10.33,233.72L8.65,233.65L8.00,232.58L8.08,231.37L8.63,229.64L9.83,229.24L9.66,229.61ZM11.63,223.71L12.38,223.86L12.43,224.65L12.01,225.43L11.32,225.57L10.86,224.44L11.63,223.71Z"><title>Azores</title></path>
<path data-code="PT-18" data-name="Viseu" d="M521.83,184.77L525.72,183.75L526.97,185.09L528.25,185.27L527.51,187.79L527.54,189.01L526.67,189.29L527.53,190.26L527.37,191.22L526.69,191.81L525.59,191.77L525.83,193.02L525.11,194.39L523.43,193.11L522.67,193.00L521.36,195.04L522.29,196.20L521.99,196.83L522.21,197.23L523.06,198.00L522.16,200.49L522.24,201.04L519.88,201.59L516.44,203.15L514.72,204.85L510.56,207.30L508.38,207.28L507.98,207.80L505.49,206.42L505.40,205.59L506.11,204.45L505.90,203.40L507.59,202.59L506.53,200.45L507.69,199.78L506.83,199.28L506.03,196.88L507.89,194.41L507.67,193.43L510.58,193.48L510.29,191.27L511.19,189.55L510.96,189.26L510.40,189.98L509.85,190.03L508.22,189.29L508.10,188.10L506.79,187.31L508.96,186.61L511.74,186.70L514.38,185.84L516.48,184.59L518.77,185.45L520.49,184.71L521.83,184.77Z"><title>Viseu</title></path>
  </g>
</svg>
