<?xml version="1.0" encoding="UTF-8"?>
<svg xmlns="http://www.w3.org/2000/svg" viewBox="0 0 560 640" class="pref-muni-svg" role="img" aria-label="行政区分">
  <g class="pref-muni-svg__paths" fill="#eaf2fb" stroke="#5b7fa8" stroke-width="0.6" stroke-linejoin="round">
<path data-code="QA-RA" data-name="Ar Rayyān" d="M229.91,632.00L191.05,621.34L174.28,602.16L148.51,559.17L164.34,550.06L163.73,502.95L145.73,464.76L148.77,433.41L137.18,424.55L130.87,387.76L133.68,334.21L128.46,296.75L132.99,272.26L128.46,267.47L137.98,254.86L144.71,253.75L152.95,276.39L162.36,278.13L155.56,255.63L157.31,234.79L152.26,228.06L140.45,224.63L158.74,215.17L163.56,205.75L172.57,214.02L169.58,239.26L176.98,253.90L181.23,251.81L184.21,227.30L188.22,223.15L193.56,227.06L200.67,224.58L208.30,208.41L189.54,213.81L182.09,210.76L176.98,200.42L179.16,176.46L184.21,169.83L181.57,152.50L186.45,153.71L192.55,144.28L198.43,158.05L253.10,158.08L253.10,174.79L291.48,174.79L303.38,219.03L317.49,239.75L323.44,310.49L351.05,312.62L373.03,320.11L407.65,375.31L390.13,390.20L375.72,376.46L367.46,383.57L378.86,399.10L370.63,406.62L358.39,436.65L333.12,425.33L333.53,456.64L294.09,456.64L292.06,606.27L268.16,625.60L249.85,631.88L229.91,632.00Z"><title>Ar Rayyān</title></path>
<path data-code="QA-WA" data-name="Al Wakrah" d="M431.54,367.75L431.51,451.65L423.02,478.53L402.55,509.35L392.48,516.77L372.52,585.25L350.64,602.67L336.22,628.09L332.12,622.29L338.43,602.67L335.70,598.34L316.98,598.80L314.20,591.79L294.07,599.10L294.09,456.64L333.53,456.64L333.12,425.33L358.39,436.65L370.63,406.62L418.43,365.53L431.54,367.75Z"><title>Al Wakrah</title></path>
<path data-code="QA-DA" data-name="Ad Dawhah" d="M397.93,311.09L399.02,344.54L424.11,349.72L431.54,367.75L418.43,365.53L407.65,375.31L373.03,320.11L397.93,311.09ZM390.13,390.20L378.86,399.10L367.46,383.57L375.72,376.46L390.13,390.20Z"><title>Ad Dawhah</title></path>
<path data-code="QA-ZA" data-name="Al Daayen" d="M405.04,217.68L389.35,219.30L389.35,246.18L382.50,257.06L398.36,288.73L397.93,311.09L373.03,320.11L360.13,294.25L359.21,222.20L375.72,203.93L405.04,217.68Z"><title>Al Daayen</title></path>
<path data-code="QA-KH" data-name="Al Khawr" d="M362.97,89.11L389.56,89.19L413.33,104.06L419.69,116.89L425.69,164.70L421.82,171.13L414.70,162.89L408.11,172.84L411.78,179.36L418.46,173.79L424.14,182.77L419.46,191.83L412.41,194.58L411.03,184.46L394.20,192.42L409.00,201.78L409.83,214.25L405.04,217.68L375.72,203.93L359.21,222.20L357.38,245.56L322.63,245.46L303.38,219.03L291.48,174.79L253.10,174.79L253.10,158.08L198.43,158.05L206.69,149.39L206.54,138.61L252.82,138.97L252.82,98.38L302.35,98.38L302.34,109.67L320.96,109.67L321.02,122.09L338.03,122.12L338.11,137.07L363.09,136.84L362.97,89.11Z"><title>Al Khawr</title></path>
<path data-code="QA-MS" data-name="Madinat ach Shamal" d="M206.48,138.63L198.37,133.62L208.21,103.01L210.65,77.70L217.87,83.29L232.90,49.75L266.19,36.20L278.26,16.00L284.69,18.36L304.73,8.00L338.43,29.53L338.54,55.22L348.92,61.50L353.08,83.29L362.97,89.11L363.09,136.84L338.11,137.07L338.03,122.12L321.02,122.09L320.96,109.67L302.34,109.67L302.35,98.38L252.82,98.38L252.82,138.97L206.48,138.63Z"><title>Madinat ach Shamal</title></path>
<path data-code="QA-US" data-name="Umm Salal" d="M317.49,239.75L322.63,245.46L357.38,245.56L360.13,294.25L373.03,320.11L351.05,312.62L323.44,310.49L317.49,239.75Z"><title>Umm Salal</title></path>
  </g>
</svg>
