<?xml version="1.0" encoding="UTF-8"?>
<svg xmlns="http://www.w3.org/2000/svg" viewBox="0 0 560 640" class="pref-muni-svg" role="img" aria-label="行政区分">
  <g class="pref-muni-svg__paths" fill="#eaf2fb" stroke="#5b7fa8" stroke-width="0.6" stroke-linejoin="round">
<path data-code="RS-01" data-name="Severno-Backi" d="M143.58,10.40L152.50,15.10L162.71,12.67L159.44,16.95L160.36,21.18L158.85,27.78L153.91,34.92L154.41,48.02L149.60,51.00L154.82,62.60L157.51,62.81L160.47,71.63L147.89,76.50L148.98,79.81L146.56,92.95L140.43,95.92L129.34,89.41L132.24,86.81L126.00,80.88L128.33,76.65L122.79,72.79L118.22,75.89L112.69,72.08L111.55,66.54L102.59,56.87L100.33,45.19L102.08,41.95L101.44,37.22L96.61,32.04L105.76,30.21L114.26,23.26L119.44,18.34L118.10,14.28L122.38,10.77L136.30,8.00L143.58,10.40Z"><title>Severno-Backi</title></path>
<path data-code="RS-05" data-name="Zapadno-Backi" d="M89.49,39.08L92.65,38.49L96.61,32.04L101.32,37.05L102.08,41.95L100.33,45.19L102.77,57.22L111.30,66.15L112.95,72.35L118.22,75.89L122.79,72.79L128.33,76.65L126.00,80.88L132.24,86.81L125.97,95.31L126.43,101.37L122.32,102.37L119.92,107.86L117.00,109.35L112.71,106.95L107.53,109.10L108.09,113.51L103.14,116.07L104.10,124.51L96.50,124.36L93.18,121.20L91.64,123.74L84.62,125.17L80.86,120.95L75.55,121.38L73.70,118.70L64.91,116.19L71.50,116.08L74.80,112.91L64.79,104.08L58.22,108.55L55.01,107.54L51.78,103.18L52.78,95.87L59.15,88.02L53.34,82.03L51.40,72.79L45.13,64.74L46.30,58.14L52.17,56.46L48.30,52.14L52.17,48.90L51.53,46.44L61.31,47.61L60.67,43.34L68.25,41.34L70.16,33.64L72.78,32.56L79.54,38.07L89.49,39.08Z"><title>Zapadno-Backi</title></path>
<path data-code="RS-03" data-name="Severno-Banatski" d="M168.25,9.64L180.27,12.90L187.48,11.00L191.97,13.93L195.66,12.49L203.87,18.42L211.01,27.06L216.49,39.24L231.00,49.37L239.52,51.63L248.60,62.95L249.37,68.00L247.92,69.46L249.49,72.73L247.04,76.28L246.69,82.37L239.37,82.12L234.03,86.43L232.88,90.39L236.38,96.84L217.45,99.17L213.05,96.74L216.64,92.23L213.98,87.74L215.87,86.17L216.10,89.53L222.23,86.94L224.46,82.96L220.06,80.15L215.82,68.84L195.01,68.53L192.79,70.38L194.71,76.33L189.26,79.22L184.35,74.87L160.47,71.63L157.51,62.81L154.82,62.60L149.60,51.00L154.41,48.02L153.52,37.21L160.00,24.66L159.52,16.61L162.41,13.80L161.95,11.31L168.25,9.64Z"><title>Severno-Banatski</title></path>
<path data-code="RS-24" data-name="Pcinjski" d="M442.61,619.57L436.54,617.20L433.96,610.55L410.34,621.52L395.36,616.13L390.29,620.19L382.66,620.88L366.73,632.00L353.92,630.20L348.33,618.87L348.46,615.05L350.88,612.41L359.98,607.97L360.15,598.05L371.36,581.91L373.30,570.33L377.62,566.64L374.38,561.59L379.01,557.62L379.04,553.14L382.73,547.34L399.68,544.22L402.68,539.63L406.96,541.98L414.48,539.17L416.76,541.15L416.23,543.82L422.68,542.33L429.77,549.64L435.99,551.05L452.31,539.78L458.26,552.98L453.63,561.23L451.73,578.47L463.03,588.80L463.97,596.73L461.21,605.07L456.77,607.17L451.57,617.59L442.61,619.57Z"><title>Pcinjski</title></path>
<path data-code="RS-14" data-name="Borski" d="M481.97,316.19L477.10,318.48L472.27,324.73L470.76,342.26L464.08,343.33L460.62,349.23L456.33,349.59L454.85,347.31L454.45,343.20L458.36,338.71L456.70,335.19L447.92,330.08L434.71,330.45L429.85,325.67L425.16,334.09L427.89,336.74L430.53,349.82L427.45,351.83L422.41,361.58L421.81,366.73L417.25,372.08L410.38,367.99L407.15,359.99L403.19,362.44L396.86,359.79L391.57,354.27L377.58,353.68L382.73,342.00L398.97,334.94L397.10,330.03L398.63,327.76L398.40,316.75L393.42,319.02L391.62,317.08L390.85,307.24L381.60,303.12L380.12,295.99L383.01,290.02L394.13,284.54L395.45,270.89L407.53,259.00L415.27,271.65L422.97,272.33L438.05,245.07L446.66,241.41L451.81,236.16L458.36,237.69L470.14,249.51L482.93,252.48L490.32,260.05L487.65,264.96L482.93,266.55L473.97,262.21L469.34,262.80L465.70,271.32L457.91,274.69L457.59,278.88L460.82,283.47L460.79,288.37L465.81,297.10L480.82,304.02L481.97,316.19Z"><title>Borski</title></path>
<path data-code="RS-15" data-name="Zajecarski" d="M456.33,349.59L448.80,353.44L443.11,382.81L447.55,390.67L449.40,401.94L456.37,407.97L457.76,422.21L462.35,435.67L471.14,442.81L475.86,443.26L478.25,447.23L469.43,456.12L469.17,459.20L463.00,457.66L459.06,452.68L453.96,456.19L441.73,450.23L443.00,442.14L437.89,438.16L434.18,441.36L427.49,436.58L422.29,437.78L408.81,433.09L406.26,426.22L400.43,420.19L398.08,420.55L397.82,423.59L401.82,428.18L393.51,429.44L387.88,420.42L375.58,417.90L368.17,405.39L367.43,399.69L369.41,397.26L366.36,393.82L369.79,390.98L363.22,383.60L368.16,376.52L365.93,373.48L366.27,370.52L372.63,366.98L372.22,364.04L378.01,356.68L377.44,353.73L391.57,354.27L396.86,359.79L403.19,362.44L407.15,359.99L410.38,367.99L417.25,372.08L421.81,366.73L422.41,361.58L427.45,351.83L430.53,349.82L427.89,336.74L425.16,334.09L429.85,325.67L434.71,330.45L447.92,330.08L456.70,335.19L458.31,338.93L454.37,343.64L456.33,349.59Z"><title>Zajecarski</title></path>
<path data-code="RS-22" data-name="Pirotski" d="M478.25,447.23L485.12,449.23L494.79,458.68L497.34,466.22L505.38,475.90L514.87,479.28L511.95,493.65L497.57,511.83L491.60,514.01L485.99,528.72L479.08,531.09L470.53,528.72L465.29,531.13L453.17,529.26L444.22,521.96L448.66,520.47L447.72,517.77L426.38,508.44L432.70,502.06L430.00,499.08L430.58,497.07L437.00,493.39L433.96,487.24L429.55,487.09L416.33,478.65L418.30,472.31L422.39,468.31L419.03,457.42L439.93,459.54L441.73,450.23L453.96,456.19L459.06,452.68L463.00,457.66L468.97,459.26L469.43,456.12L478.25,447.23Z"><title>Pirotski</title></path>
<path data-code="RS-23" data-name="Jablanicki" d="M465.29,531.13L460.89,531.38L435.99,551.05L429.77,549.64L422.68,542.33L416.23,543.82L415.52,539.33L406.96,541.98L402.68,539.63L399.68,544.22L382.73,547.34L379.04,553.14L379.01,557.62L374.38,561.59L367.92,560.41L361.34,562.73L354.05,555.13L332.86,551.33L336.24,535.87L343.70,521.49L341.19,514.68L351.48,507.11L367.47,502.12L380.04,493.85L382.40,491.07L381.34,488.97L387.11,488.61L392.58,484.91L396.25,489.72L401.95,486.69L406.60,488.02L421.05,501.51L427.58,501.80L430.00,499.08L432.70,502.06L426.63,508.70L447.72,517.77L448.66,520.47L444.22,521.96L452.68,529.05L465.29,531.13Z"><title>Jablanicki</title></path>
<path data-code="RS-18" data-name="Raški" d="M268.25,469.67L263.69,469.48L252.04,477.59L244.89,479.44L246.77,489.68L252.29,493.41L251.81,497.27L244.03,509.68L240.16,509.30L236.54,514.74L228.47,518.72L227.51,523.15L232.95,530.15L230.39,533.69L215.52,538.14L216.46,528.07L214.58,525.54L198.39,516.05L189.58,514.50L182.47,507.28L186.57,498.04L192.41,495.37L192.19,492.30L195.11,488.74L208.33,485.94L199.14,476.19L202.74,472.90L206.67,463.51L213.35,469.60L214.57,465.58L223.17,457.97L224.15,455.34L221.31,449.64L221.94,438.87L211.03,426.09L218.00,419.22L218.70,414.41L217.00,410.77L225.15,407.19L228.54,408.33L228.63,400.57L225.89,398.42L226.66,396.36L236.02,392.75L235.73,388.84L240.32,383.95L239.79,380.94L246.80,374.69L258.23,387.98L263.76,385.77L262.95,380.40L274.28,377.83L277.84,379.86L281.31,391.17L284.98,395.44L280.37,395.65L280.46,403.82L276.02,408.71L284.34,413.69L279.24,420.13L283.64,430.64L275.97,432.71L270.65,429.11L262.64,430.14L265.15,438.28L262.78,446.80L266.14,450.27L270.45,450.12L271.48,458.23L267.73,463.69L268.25,469.67Z"><title>Raški</title></path>
<path data-code="RS-19" data-name="Pomoravski" d="M274.50,476.37L268.25,469.67L267.73,463.69L271.48,458.23L270.45,450.12L266.14,450.27L262.78,446.80L265.15,438.28L262.64,430.14L270.65,429.11L275.97,432.71L283.64,430.64L279.24,420.13L284.34,413.69L276.02,408.71L280.46,403.82L280.37,395.65L300.15,397.80L306.68,401.96L305.71,392.46L310.05,393.88L316.99,388.94L317.33,380.78L319.46,377.58L321.40,379.42L320.20,389.61L332.38,388.68L333.47,396.16L342.77,392.08L346.94,397.16L347.39,400.85L343.45,402.34L344.64,410.41L347.04,411.39L344.17,416.72L348.23,419.38L354.17,428.66L351.48,437.59L354.23,443.56L352.87,446.83L342.49,452.72L337.09,449.88L328.43,449.55L314.03,454.73L306.85,468.44L301.94,472.42L286.23,471.03L283.99,476.10L284.81,482.85L279.92,488.81L270.79,482.51L271.69,477.20L274.50,476.37Z"><title>Pomoravski</title></path>
<path data-code="RS-21" data-name="Toplicki" d="M289.11,494.30L279.92,488.81L284.81,482.85L283.99,476.10L286.23,471.03L301.44,472.71L306.85,468.44L314.03,454.73L328.43,449.55L337.37,449.96L345.52,455.76L357.30,455.48L355.52,461.42L360.95,468.41L359.70,472.88L368.60,477.77L370.26,470.30L376.84,471.74L378.38,476.20L376.38,479.29L381.15,485.63L379.87,487.98L382.40,491.07L367.47,502.12L351.48,507.11L341.19,514.68L343.70,521.49L336.24,535.87L319.45,528.77L316.26,524.92L313.69,511.45L306.66,511.97L302.18,497.88L289.11,494.30Z"><title>Toplicki</title></path>
<path data-code="RS-16" data-name="Zlatiborski" d="M124.95,476.14L105.01,449.93L87.53,441.38L82.71,434.62L82.63,430.07L84.92,426.40L87.43,426.40L91.43,417.55L96.90,417.60L102.09,414.35L109.38,425.14L111.77,420.32L118.33,421.38L116.96,413.06L120.35,408.28L115.16,390.06L103.56,377.38L94.01,362.95L88.78,359.09L90.39,352.06L95.36,350.32L104.14,356.61L125.45,355.01L133.02,346.73L130.75,342.47L128.63,344.22L121.35,337.94L124.96,334.21L131.44,333.38L133.93,329.44L146.74,335.65L151.88,344.01L154.86,342.42L153.50,337.25L150.62,334.58L152.08,333.17L156.87,335.76L160.70,331.85L164.23,332.15L166.27,336.95L171.07,339.96L173.77,340.41L177.38,335.88L183.34,338.87L184.37,341.71L182.58,348.15L184.78,351.16L182.63,355.36L188.00,362.28L186.42,366.36L193.97,371.86L188.74,372.65L186.26,377.40L191.07,385.40L190.39,393.57L195.08,396.85L193.74,403.57L196.16,406.86L194.00,410.69L185.69,408.65L185.66,414.63L180.66,415.10L173.30,422.33L170.58,423.01L165.94,419.58L166.23,423.69L164.23,426.09L166.62,429.76L176.24,434.12L178.38,442.32L187.34,457.76L186.74,460.69L189.81,463.69L203.63,460.45L206.33,462.22L202.74,472.90L199.14,476.19L208.33,485.94L195.11,488.74L192.19,492.30L192.41,495.37L186.57,498.04L182.47,507.28L171.73,498.36L168.25,492.76L161.78,496.49L154.17,496.55L149.18,493.57L143.77,484.57L132.99,484.15L124.95,476.14Z"><title>Zlatiborski</title></path>
<path data-code="RS-07" data-name="Sremski" d="M85.66,208.48L82.52,205.78L72.34,213.14L64.53,215.25L62.09,210.62L61.76,207.44L64.82,205.74L70.30,208.91L77.69,201.38L76.20,197.84L72.64,197.59L73.57,190.65L72.08,180.51L67.83,172.22L78.37,170.83L76.57,162.95L80.42,163.08L85.96,168.16L95.29,165.52L97.29,167.58L107.47,166.78L111.24,170.82L115.25,166.38L131.22,172.07L142.09,171.51L150.53,167.49L153.05,170.94L168.32,171.06L174.06,168.66L173.15,166.64L174.66,163.90L183.65,166.16L197.31,164.66L209.17,173.02L215.58,182.39L216.83,188.50L209.31,197.53L213.17,205.18L194.11,211.67L190.26,225.84L185.58,228.32L188.84,232.53L186.98,240.20L169.53,252.30L167.30,249.74L168.44,247.94L177.45,243.25L166.53,242.21L153.20,233.32L144.54,231.27L142.30,224.45L148.28,211.06L147.79,206.89L139.21,204.34L135.95,207.79L125.43,209.73L119.42,207.12L115.76,209.87L109.09,203.17L106.61,207.36L99.63,206.28L103.27,210.46L97.96,207.85L85.66,208.48Z"><title>Sremski</title></path>
<path data-code="RS-08" data-name="Macvanski" d="M92.68,309.58L80.56,305.87L75.99,297.93L74.91,291.75L78.79,284.13L77.49,270.27L83.13,267.11L84.12,261.13L100.02,236.11L105.50,215.67L103.50,209.63L99.63,206.28L106.61,207.36L109.80,203.22L115.76,209.87L119.42,207.12L125.43,209.73L135.95,207.79L139.21,204.34L147.79,206.89L148.28,211.06L142.30,224.45L144.54,231.27L153.20,233.32L166.53,242.21L177.45,243.25L167.30,249.74L169.53,252.30L173.27,250.81L171.89,258.33L173.01,262.91L167.99,265.16L164.68,263.82L159.82,267.60L161.56,275.58L159.94,277.67L160.65,283.17L156.68,284.33L159.24,288.13L157.54,290.81L150.86,290.77L149.05,286.84L139.64,282.91L131.08,285.48L126.44,281.77L117.84,283.62L119.91,285.78L118.81,290.66L113.69,295.61L117.28,297.66L118.60,301.32L114.95,303.66L111.08,312.13L126.23,319.39L132.93,329.62L131.44,333.38L124.96,334.21L121.35,337.94L115.62,328.17L112.99,329.70L103.88,322.09L99.57,310.57L92.68,309.58Z"><title>Macvanski</title></path>
<path data-code="RS-06" data-name="Južno-Backi" d="M62.99,123.68L63.83,114.96L75.55,121.38L80.86,120.95L84.62,125.17L91.64,123.74L93.18,121.20L96.50,124.36L104.10,124.51L103.14,116.07L108.09,113.51L107.53,109.10L112.71,106.95L117.00,109.35L119.92,107.86L122.32,102.37L126.43,101.37L125.97,95.31L129.34,89.41L140.43,95.92L146.43,93.18L148.98,79.81L147.89,76.50L149.88,75.25L164.17,71.16L184.35,74.87L189.26,79.22L186.75,80.32L187.87,90.50L183.44,98.37L190.12,99.19L188.00,108.80L202.39,123.78L199.23,131.35L206.27,140.01L203.10,145.42L210.53,153.01L212.24,162.96L209.10,164.87L207.85,171.62L197.31,164.66L183.65,166.16L174.66,163.90L173.80,168.90L166.37,171.38L153.05,170.94L150.53,167.49L142.09,171.51L130.88,172.04L115.08,166.38L111.15,170.81L107.47,166.78L109.05,161.78L107.85,158.59L95.64,156.53L80.73,150.21L74.56,146.64L72.15,140.22L60.18,135.16L59.95,132.00L66.29,128.03L62.99,123.68Z"><title>Južno-Backi</title></path>
<path data-code="RS-02" data-name="Srednje-Banatski" d="M249.37,68.00L255.80,77.46L258.84,77.34L263.19,72.49L265.53,74.74L264.57,89.80L261.97,98.03L267.17,109.92L262.69,115.81L263.42,118.03L268.97,120.64L291.42,144.35L280.16,146.29L269.34,152.87L272.03,156.07L260.23,164.55L258.14,169.68L249.80,162.27L241.98,159.28L237.61,164.19L231.50,161.72L226.63,170.07L227.88,173.33L221.17,183.64L214.79,181.23L207.85,171.62L209.10,164.87L212.48,160.82L210.53,153.01L203.10,145.42L206.27,140.01L199.23,131.35L202.39,123.78L188.00,108.80L190.12,99.19L183.44,98.37L187.87,90.50L186.75,80.32L194.71,76.33L192.79,70.38L195.01,68.53L215.64,68.76L220.06,80.15L224.46,82.96L222.50,86.73L217.51,89.03L215.45,89.05L215.87,86.17L214.48,87.03L213.88,89.05L216.64,92.23L213.05,96.74L217.45,99.17L225.35,96.61L234.95,97.27L236.38,96.84L232.88,90.39L233.79,86.83L239.37,82.12L246.54,82.59L247.04,76.28L249.49,72.73L247.92,69.27L249.37,68.00Z"><title>Srednje-Banatski</title></path>
<path data-code="RS-04" data-name="Južno-Banatski" d="M291.75,143.03L301.60,148.64L305.69,145.85L317.03,157.62L335.92,162.33L342.03,166.39L345.88,170.98L345.97,175.06L340.96,177.96L337.77,188.99L331.13,191.35L330.00,195.58L333.46,196.08L333.60,198.79L336.24,200.56L348.50,204.44L351.08,208.46L350.76,211.50L331.71,215.37L328.79,220.59L330.72,221.42L315.12,226.17L307.00,234.50L288.67,238.83L270.15,247.68L263.02,246.50L248.22,231.16L248.57,217.81L243.86,216.46L244.44,211.61L235.51,205.31L232.62,199.28L222.17,190.41L221.17,183.64L228.00,173.05L226.63,170.07L231.26,161.85L237.61,164.19L241.98,159.28L249.80,162.27L258.14,169.68L260.23,164.55L272.03,156.07L269.34,152.87L280.16,146.29L290.64,145.54L291.75,143.03Z"><title>Južno-Banatski</title></path>
<path data-code="RS-11" data-name="Branicevski" d="M330.72,221.42L336.67,228.05L355.50,229.18L360.23,239.29L364.39,243.44L375.81,245.09L387.01,241.73L403.91,249.17L407.53,259.00L395.45,270.89L394.13,284.54L390.02,285.13L386.85,289.68L383.34,289.62L380.12,295.99L382.49,305.15L386.51,304.37L391.12,307.72L391.75,317.35L393.89,319.23L398.54,317.04L397.82,336.70L382.90,342.01L373.48,338.17L368.63,339.29L363.58,334.77L352.85,333.23L345.26,323.60L339.14,321.54L330.46,323.47L331.58,318.45L323.10,308.71L319.78,314.62L311.40,308.26L303.47,306.08L303.47,302.84L306.35,302.11L302.50,292.74L304.77,284.93L309.68,283.37L306.58,280.12L307.42,276.88L309.68,276.88L307.42,275.70L308.13,272.46L303.47,269.21L305.80,263.08L303.23,257.52L299.53,257.21L299.83,254.20L297.39,250.36L298.83,248.56L295.65,245.42L296.50,242.07L294.04,238.00L308.46,233.91L311.30,229.10L320.46,223.48L330.72,221.42Z"><title>Branicevski</title></path>
<path data-code="RS-00" data-name="Grad Beograd" d="M173.27,250.81L186.98,240.20L188.84,232.53L185.58,228.32L190.26,225.84L194.11,211.67L213.17,205.18L209.31,197.53L216.83,188.50L214.79,181.23L217.57,181.12L221.17,183.64L222.17,190.41L232.62,199.28L235.51,205.31L244.44,211.61L243.86,216.46L248.57,217.81L248.22,231.16L260.56,244.79L266.55,247.09L263.85,254.37L267.87,263.16L260.01,267.94L271.56,283.75L269.11,286.56L262.60,286.11L259.37,291.54L262.08,296.56L265.72,297.07L263.26,300.54L263.97,305.21L254.71,299.37L250.09,301.40L247.04,298.56L245.72,293.29L237.24,295.90L237.38,291.29L226.51,286.02L221.35,290.70L225.50,295.97L220.48,305.76L216.74,306.53L213.11,311.99L206.87,314.05L197.55,302.02L199.31,298.45L198.04,295.23L202.05,286.97L201.44,278.18L198.65,274.18L197.56,266.91L190.81,273.94L187.10,269.06L181.37,272.04L175.16,269.63L172.46,265.79L173.27,250.81Z"><title>Grad Beograd</title></path>
<path data-code="RS-10" data-name="Podunavski" d="M266.55,247.09L276.60,245.82L288.67,238.83L294.04,238.00L296.50,242.07L295.65,245.42L298.83,248.56L297.39,250.36L299.83,254.20L299.53,257.21L303.23,257.52L305.80,263.08L303.47,269.21L308.13,272.46L307.42,275.70L309.68,276.88L307.42,276.88L306.58,280.12L309.68,283.37L304.77,284.93L302.38,293.61L306.35,302.11L303.47,302.84L303.47,306.08L308.97,311.49L306.58,313.75L307.42,319.16L305.03,319.16L307.42,321.42L305.66,323.34L289.44,317.52L287.14,315.30L286.90,311.35L278.96,314.06L269.00,311.57L269.64,306.62L263.97,305.21L263.26,300.54L265.72,297.07L262.08,296.56L259.37,291.54L262.60,286.11L269.11,286.56L271.58,283.40L260.01,267.94L267.87,263.16L263.85,254.37L266.55,247.09Z"><title>Podunavski</title></path>
<path data-code="RS-20" data-name="Nišavski" d="M345.89,455.77L343.17,452.53L354.10,444.97L351.48,437.59L354.25,428.99L348.23,419.38L344.48,417.92L347.04,411.39L344.64,410.41L343.45,402.34L347.65,400.14L342.77,392.08L352.23,385.63L363.22,383.60L369.79,390.98L366.36,393.82L369.41,397.26L367.43,399.69L368.17,405.39L377.41,419.41L387.88,420.42L393.51,429.44L401.82,428.18L397.82,423.59L398.08,420.55L400.43,420.19L406.26,426.22L408.81,433.09L422.29,437.78L427.49,436.58L434.18,441.36L437.55,438.02L443.35,443.60L440.18,459.43L419.03,457.42L422.39,468.31L418.30,472.31L416.33,478.65L429.55,487.09L433.96,487.24L437.00,493.39L425.68,502.13L421.05,501.51L406.60,488.02L402.49,486.72L396.25,489.72L392.58,484.91L387.11,488.61L380.62,488.77L381.15,485.63L376.29,478.98L378.38,476.20L376.84,471.74L370.26,470.30L368.29,477.73L359.41,472.31L360.95,468.41L355.52,461.42L357.30,455.48L345.89,455.77Z"><title>Nišavski</title></path>
<path data-code="RS-13" data-name="Pomoravski" d="M284.98,395.44L281.31,391.17L279.45,382.90L282.82,383.20L291.53,375.39L289.87,369.20L294.82,367.33L294.55,363.35L296.94,361.44L294.65,355.91L300.72,352.43L301.31,347.67L296.02,344.87L305.46,337.66L303.83,333.25L306.14,328.08L305.68,322.99L307.42,321.42L305.03,319.16L307.42,319.16L306.58,313.75L308.97,311.49L305.08,306.98L311.40,308.26L319.78,314.62L323.10,308.71L331.58,318.45L330.88,323.72L339.14,321.54L345.26,323.60L353.26,333.50L363.00,334.58L368.63,339.29L373.48,338.17L382.73,342.00L377.83,350.83L377.88,356.99L372.22,364.04L372.08,367.72L366.27,370.52L365.93,373.48L368.16,376.52L361.72,384.51L352.23,385.63L341.90,393.31L333.47,396.16L332.38,388.68L319.65,389.08L321.40,379.42L319.46,377.58L317.33,380.78L316.99,388.94L310.05,393.88L305.71,392.46L306.68,401.96L300.39,397.86L284.98,395.44Z"><title>Pomoravski</title></path>
<path data-code="RS-12" data-name="Šumadijski" d="M258.67,388.01L254.67,385.90L251.17,378.95L236.06,360.79L240.46,357.65L243.87,350.60L246.55,351.63L248.63,349.18L237.81,340.11L234.60,330.72L228.76,327.70L223.47,307.38L220.48,305.76L225.50,295.97L221.35,290.70L226.51,286.02L237.38,291.29L237.45,296.01L245.72,293.29L247.04,298.56L250.09,301.40L254.71,299.37L269.37,306.40L269.00,311.57L278.96,314.06L286.90,311.35L287.14,315.30L289.44,317.52L305.66,323.34L306.14,328.08L303.83,333.25L305.27,338.27L296.02,344.87L301.56,349.03L300.15,353.38L294.52,356.24L296.94,361.44L294.55,363.35L294.82,367.33L289.87,369.20L291.53,375.39L282.54,383.34L274.04,377.73L265.90,379.18L262.51,380.92L263.76,385.77L258.67,388.01Z"><title>Šumadijski</title></path>
<path data-code="RS-17" data-name="Moravicki" d="M246.80,374.69L239.79,380.94L240.32,383.95L235.73,388.84L236.02,392.75L226.66,396.36L225.89,398.42L228.63,400.57L228.54,408.33L225.15,407.19L217.00,410.77L218.70,414.41L218.00,419.22L211.03,426.09L221.94,438.87L221.31,449.64L224.15,455.34L214.43,465.75L213.58,469.50L204.08,460.50L190.33,463.85L187.70,461.85L187.34,457.76L177.64,440.71L176.50,434.51L166.62,429.76L164.23,426.09L166.23,423.69L165.94,419.58L170.58,423.01L173.30,422.33L180.66,415.10L185.66,414.63L185.69,408.65L194.00,410.69L196.16,406.86L193.74,403.57L195.08,396.85L190.39,393.57L191.07,385.40L186.26,377.40L188.74,372.65L193.97,371.86L186.42,366.36L188.00,362.28L182.63,355.36L184.78,351.16L182.58,348.15L184.37,341.71L183.34,338.87L190.45,340.71L190.52,337.27L196.34,334.65L208.67,333.26L214.87,325.74L218.57,324.52L224.35,314.08L228.76,327.70L234.60,330.72L237.81,340.11L248.63,349.18L246.55,351.63L243.87,350.60L240.46,357.65L236.06,360.79L246.80,374.69Z"><title>Moravicki</title></path>
<path data-code="RS-09" data-name="Kolubarski" d="M145.14,335.43L132.50,329.40L125.90,319.15L111.08,312.13L114.95,303.66L118.60,301.32L113.73,295.27L118.81,290.66L119.91,285.78L118.00,283.39L126.44,281.77L130.39,285.46L139.99,282.99L149.05,286.84L150.86,290.77L157.54,290.81L159.24,288.13L156.68,284.33L160.65,283.17L159.94,277.67L161.56,275.58L159.25,269.37L164.68,263.82L167.99,265.16L173.01,262.91L172.59,266.28L175.16,269.63L181.37,272.04L187.10,269.06L190.81,273.94L197.28,266.55L202.01,281.18L201.94,287.79L197.99,295.47L199.31,298.11L198.13,303.57L206.87,314.05L213.11,311.99L216.74,306.53L220.48,305.76L223.38,307.17L224.42,312.40L218.57,324.52L214.87,325.74L208.86,333.14L196.34,334.65L190.52,337.27L190.45,340.71L177.38,335.88L173.77,340.41L171.07,339.96L165.83,336.39L165.87,333.18L160.93,331.77L156.87,335.76L150.69,334.01L154.85,341.54L154.30,343.85L151.88,344.01L145.14,335.43Z"><title>Kolubarski</title></path>
  </g>
</svg>
