<?xml version="1.0" encoding="UTF-8"?>
<svg xmlns="http://www.w3.org/2000/svg" viewBox="0 0 560 640" class="pref-muni-svg" role="img" aria-label="行政区分">
  <g class="pref-muni-svg__paths" fill="#eaf2fb" stroke="#5b7fa8" stroke-width="0.6" stroke-linejoin="round">
<path data-code="SK-ZI" data-name="Žilinský" d="M256.22,186.05L262.12,191.60L267.05,207.45L270.68,209.23L274.50,209.26L273.76,214.97L281.33,217.05L286.47,215.58L287.35,216.24L288.72,221.38L289.28,228.38L288.34,230.67L291.11,233.92L285.68,241.42L285.29,243.32L286.53,245.01L293.34,246.22L296.81,244.06L299.40,249.07L300.36,253.93L303.11,253.24L305.12,256.48L307.09,257.57L311.64,256.43L311.98,258.16L310.52,270.01L306.87,271.34L311.26,277.35L312.50,281.68L314.33,282.37L314.34,283.30L309.02,286.63L307.36,285.62L303.77,286.65L291.05,285.68L285.18,287.60L280.88,284.62L274.75,282.34L267.50,281.45L251.46,284.17L246.26,289.27L244.72,292.61L243.50,293.39L239.13,293.89L240.02,292.03L238.70,288.95L217.61,290.95L216.22,293.86L213.97,295.48L214.59,298.60L213.82,301.18L215.84,304.02L213.96,309.72L204.22,308.86L203.17,306.87L197.90,310.12L193.47,303.22L193.06,300.22L185.78,294.26L186.12,288.92L185.50,285.43L187.67,282.28L185.76,279.80L179.06,278.01L175.05,278.90L173.81,277.23L171.34,280.41L168.08,282.06L164.64,281.22L163.29,279.44L166.48,277.46L168.49,274.80L171.96,273.62L173.95,271.59L175.91,268.00L176.05,263.14L174.11,260.60L171.87,259.73L174.79,256.52L173.65,254.72L173.19,251.50L163.84,244.88L161.97,241.68L161.14,238.20L155.26,228.48L155.03,226.55L152.87,225.34L155.12,223.59L155.36,216.72L158.14,217.34L160.29,215.95L164.35,211.03L168.28,208.57L169.50,203.42L171.46,202.20L175.69,202.80L179.07,201.25L185.63,203.78L188.31,203.63L192.23,200.07L197.92,199.29L207.38,200.15L210.15,201.82L209.31,204.25L210.25,216.81L214.54,216.96L220.32,214.35L224.01,216.48L227.39,216.08L230.34,214.91L231.95,209.14L233.82,208.73L233.39,206.48L236.22,199.73L239.17,197.67L246.29,196.61L256.22,186.05Z"><title>Žilinský</title></path>
<path data-code="SK-PV" data-name="Prešov" d="M429.81,208.09L445.79,213.82L464.14,211.86L467.85,214.88L471.00,214.93L477.29,222.63L481.29,218.88L483.21,218.53L497.05,228.47L499.80,232.87L501.64,242.58L504.34,244.54L511.10,245.82L515.32,248.30L519.36,248.23L520.41,249.39L520.15,251.34L521.08,252.86L532.88,254.82L537.71,259.65L548.69,261.04L552.00,262.67L550.58,268.35L550.17,274.13L543.34,277.24L540.08,285.89L539.79,289.35L535.87,293.62L531.42,292.46L524.85,293.22L522.59,285.95L520.61,284.44L518.02,284.47L514.46,289.34L511.84,290.86L512.58,295.25L511.92,295.92L501.79,296.46L492.80,291.37L483.57,288.37L479.97,288.26L480.13,295.35L481.39,300.72L480.96,302.66L472.84,307.49L470.63,307.71L467.11,305.76L462.19,305.31L456.19,302.94L452.43,296.14L450.78,290.32L447.98,291.73L446.02,290.99L445.19,289.30L444.44,291.53L441.41,290.63L440.61,296.05L434.30,297.56L433.87,298.71L434.64,300.01L431.94,300.14L428.11,296.35L429.94,293.06L429.63,291.91L422.17,291.04L418.08,287.63L415.42,288.18L407.63,286.90L404.10,282.11L403.62,279.58L400.31,280.25L393.29,276.44L389.22,276.89L387.82,276.02L388.10,274.96L382.77,273.04L382.53,276.26L383.26,277.35L375.19,276.59L374.19,276.96L374.44,278.36L373.62,279.26L371.06,280.10L369.35,279.76L368.01,277.45L362.43,275.46L359.41,273.04L358.86,271.00L357.39,272.40L357.79,273.99L354.93,275.10L355.73,277.39L353.70,274.74L350.27,272.62L340.83,277.84L338.02,281.08L341.99,284.04L338.62,286.40L335.44,291.52L326.71,286.88L322.78,288.34L309.02,286.63L312.28,285.18L314.55,282.71L312.50,281.68L311.26,277.35L306.87,271.34L310.52,270.01L311.91,257.04L307.09,257.57L305.12,256.48L303.11,253.24L300.36,253.93L299.40,249.07L296.81,244.06L300.40,240.88L303.46,240.54L314.21,248.05L316.08,246.62L317.61,237.95L322.37,228.42L324.71,228.90L329.18,224.76L336.55,224.12L338.76,217.18L339.73,216.45L344.78,217.89L349.72,217.70L349.70,215.21L351.19,214.88L361.36,219.46L363.62,218.66L367.21,215.24L375.26,215.17L383.74,225.19L385.25,226.29L390.52,226.74L395.42,230.78L397.18,231.11L401.48,228.54L406.57,222.12L411.85,221.43L412.63,220.11L411.46,217.93L408.10,215.29L410.03,213.15L416.85,211.82L421.41,215.49L423.46,215.15L429.81,208.09Z"><title>Prešov</title></path>
<path data-code="SK-KI" data-name="Košický" d="M535.87,293.62L535.06,295.64L535.17,303.84L532.05,308.35L531.87,313.39L530.09,319.16L528.56,321.20L523.68,323.57L521.37,327.95L515.13,333.02L513.70,335.38L513.50,338.31L514.62,344.17L513.23,348.80L513.14,359.22L509.66,362.89L507.89,363.41L502.17,362.85L493.70,363.83L480.33,369.24L477.43,369.50L474.44,368.46L469.65,363.92L463.52,354.08L461.44,346.46L454.77,345.43L452.63,340.37L445.48,336.58L435.66,338.56L433.80,339.67L431.34,344.19L429.93,344.99L425.93,342.74L415.36,347.02L408.35,343.33L399.74,342.70L394.54,339.50L390.16,338.82L387.32,336.22L384.29,335.46L355.40,341.67L355.40,348.52L353.90,350.69L352.25,349.46L341.06,350.79L341.47,349.64L339.11,347.85L338.39,344.07L342.55,330.84L337.44,328.66L336.83,324.58L334.32,317.70L327.37,312.55L326.63,309.09L328.62,305.99L328.78,298.92L333.27,292.18L335.44,291.52L338.62,286.40L341.99,284.04L338.02,281.08L340.83,277.84L350.27,272.62L353.70,274.74L355.73,277.39L354.93,275.10L357.79,273.99L357.39,272.40L358.86,271.00L359.91,273.52L364.73,276.81L368.01,277.45L369.95,280.02L373.62,279.26L374.44,278.36L374.19,276.96L375.19,276.59L383.26,277.35L382.53,276.26L382.77,273.04L388.10,274.96L387.82,276.02L389.22,276.89L393.29,276.44L400.31,280.25L403.25,279.38L404.10,282.11L407.63,286.90L415.42,288.18L418.08,287.63L422.17,291.04L429.63,291.91L429.94,293.06L428.11,296.35L431.94,300.14L434.64,300.01L433.87,298.71L434.30,297.56L440.61,296.05L441.41,290.63L444.44,291.53L445.19,289.30L446.02,290.99L447.98,291.73L450.78,290.32L452.43,296.14L456.19,302.94L462.19,305.31L467.11,305.76L470.63,307.71L472.84,307.49L480.96,302.66L481.39,300.72L480.13,295.35L479.97,288.26L483.57,288.37L492.80,291.37L501.79,296.46L511.92,295.92L512.58,295.25L511.84,290.86L514.46,289.34L518.02,284.47L520.61,284.44L522.59,285.95L524.85,293.22L531.42,292.46L535.87,293.62Z"><title>Košický</title></path>
<path data-code="SK-BL" data-name="Bratislavský" d="M36.97,417.00L29.45,412.62L29.97,410.25L28.45,409.04L30.46,403.66L27.33,398.83L23.48,397.12L21.07,394.45L18.44,378.27L14.83,375.71L13.09,372.04L13.86,369.83L13.43,368.68L10.90,366.42L8.24,365.76L8.00,363.30L9.90,351.51L14.58,342.65L17.93,338.96L28.66,336.87L28.33,335.60L28.91,335.57L35.29,338.23L44.76,334.81L55.25,322.97L58.34,325.26L58.98,328.34L56.23,333.29L54.68,333.79L52.37,336.85L51.91,338.90L57.10,344.08L53.91,348.01L53.09,349.67L53.42,351.30L60.75,353.96L60.52,355.72L65.56,363.06L68.42,365.71L66.59,370.87L67.17,372.51L72.34,376.73L69.16,381.52L69.55,383.30L72.19,384.55L72.19,387.27L73.64,389.01L72.22,392.21L65.08,395.89L61.48,394.71L61.88,393.24L61.00,392.09L59.46,393.23L59.86,397.40L56.04,399.70L52.19,399.33L52.66,402.53L56.50,404.24L51.95,406.97L51.97,409.61L48.39,413.02L47.86,416.73L40.45,414.85L36.97,417.00Z"><title>Bratislavský</title></path>
<path data-code="SK-TA" data-name="Trnavský" d="M17.93,338.96L18.44,337.14L17.78,327.63L20.39,323.76L25.22,309.81L27.57,305.80L32.23,301.21L33.66,297.14L38.79,293.40L43.07,292.49L47.66,293.68L58.56,299.21L62.08,297.67L60.95,300.65L56.93,304.90L60.49,305.98L63.11,303.69L67.90,308.25L69.47,311.18L67.80,316.07L73.77,326.88L77.03,324.19L78.86,324.92L81.95,323.97L82.68,320.54L85.20,321.29L90.62,318.87L96.08,323.81L101.14,324.02L101.80,322.79L104.36,325.50L106.47,325.11L107.91,326.62L117.19,328.65L117.41,330.41L112.50,332.55L109.30,331.60L105.94,339.94L104.11,342.14L108.94,344.54L115.30,350.63L104.89,366.87L103.19,373.88L105.92,376.87L104.27,381.46L107.03,385.52L106.89,387.93L103.56,390.62L101.52,388.77L100.31,389.33L101.70,392.86L101.24,394.63L97.74,394.31L95.80,395.37L100.56,401.57L99.88,406.12L103.61,406.14L103.82,408.57L106.84,410.15L106.86,422.83L107.77,424.46L107.23,427.66L108.04,429.97L100.14,436.89L99.01,442.25L95.74,444.79L93.53,444.75L91.51,450.53L87.44,448.28L81.94,442.49L77.50,442.45L73.10,436.28L68.83,434.75L58.09,420.50L55.08,417.97L47.86,416.73L48.39,413.02L51.97,409.61L51.95,406.97L56.50,404.24L52.66,402.53L52.19,399.33L56.04,399.70L59.86,397.40L59.46,393.23L61.00,392.09L61.88,393.24L61.48,394.71L65.08,395.89L72.22,392.21L73.64,389.01L72.19,387.27L72.19,384.55L69.55,383.30L69.16,381.52L72.34,376.73L67.17,372.51L66.59,370.87L68.42,365.71L65.56,363.06L60.52,355.72L60.75,353.96L53.42,351.30L53.09,349.67L53.91,348.01L57.10,344.08L51.91,338.90L52.37,336.85L58.43,330.00L58.93,326.98L57.57,324.26L54.79,322.84L50.44,329.17L44.76,334.81L35.29,338.23L28.91,335.57L28.33,335.60L28.66,336.87L17.93,338.96Z"><title>Trnavský</title></path>
<path data-code="SK-TC" data-name="Trenciansky" d="M119.56,270.34L125.54,266.28L127.53,262.94L128.37,248.55L131.37,239.39L133.67,235.68L136.48,233.04L149.34,228.08L152.87,225.34L155.03,226.55L155.26,228.48L161.14,238.20L163.32,244.18L172.42,250.42L174.79,256.52L171.87,259.73L174.11,260.60L176.02,262.91L175.70,268.82L172.85,272.90L168.49,274.80L166.48,277.46L163.29,279.44L163.83,280.60L168.79,281.90L171.34,280.41L173.81,277.23L175.05,278.90L179.06,278.01L185.76,279.80L187.67,282.28L185.50,285.43L186.12,288.92L185.78,294.26L193.06,300.22L193.13,302.48L197.65,308.74L197.84,311.09L194.74,316.64L191.56,317.95L187.07,324.62L187.26,326.47L180.86,325.23L176.20,331.68L175.56,334.80L166.21,335.99L165.13,338.32L153.35,346.64L151.90,345.05L151.18,346.32L148.19,345.41L146.20,340.15L140.88,337.02L140.18,334.16L142.32,330.12L141.50,327.95L134.62,324.06L130.20,318.16L122.61,316.21L121.79,314.32L119.80,314.15L118.64,315.30L118.97,319.70L120.67,322.89L120.86,325.28L120.54,326.55L119.28,326.45L117.19,328.65L107.91,326.62L106.47,325.11L104.36,325.50L101.80,322.79L101.14,324.02L96.08,323.81L90.62,318.87L85.20,321.29L82.68,320.54L81.95,323.97L78.86,324.92L77.03,324.19L73.77,326.88L67.80,316.07L69.47,311.18L67.90,308.25L63.11,303.69L60.49,305.98L56.93,304.90L60.95,300.65L62.08,297.67L63.83,296.52L66.10,295.86L70.42,299.62L73.91,300.17L92.27,292.94L98.79,284.60L104.99,284.44L106.74,282.72L110.12,271.59L114.43,269.95L119.56,270.34Z"><title>Trenciansky</title></path>
<path data-code="SK-BC" data-name="Banskobystrický" d="M353.90,350.69L349.57,355.68L342.75,373.59L337.59,380.11L335.41,381.26L331.27,378.59L325.71,382.48L322.24,382.10L319.44,388.44L309.10,393.49L302.57,398.96L300.32,399.80L298.33,399.03L294.70,395.70L292.35,394.94L288.00,396.15L287.10,394.78L287.83,390.89L286.13,388.80L279.49,389.30L275.37,385.26L273.39,384.94L262.96,388.28L259.83,398.40L259.88,401.68L254.76,405.36L241.87,405.09L235.12,409.02L223.27,407.55L215.67,408.31L215.72,404.65L220.21,398.32L219.65,393.89L220.83,390.90L220.66,389.33L219.37,387.87L216.85,389.95L208.61,392.31L207.39,394.52L202.48,394.60L198.38,392.35L196.04,393.60L195.57,390.37L197.71,388.04L196.10,382.12L198.70,378.76L199.99,373.45L196.24,364.78L190.43,357.87L188.87,357.74L186.06,360.56L183.58,365.55L173.32,367.90L170.04,371.50L169.07,369.88L172.45,365.21L172.89,361.52L171.78,358.23L170.35,357.24L170.36,355.09L169.04,352.03L170.29,349.32L169.52,348.83L169.55,345.49L165.01,345.12L167.35,341.39L165.13,338.32L166.21,335.99L175.56,334.80L176.20,331.68L180.86,325.23L187.26,326.47L187.23,324.31L192.02,317.35L194.74,316.64L197.90,310.12L202.00,307.25L203.17,306.87L204.22,308.86L205.83,309.24L213.96,309.72L215.84,304.02L213.82,301.18L214.59,298.60L213.97,295.48L216.22,293.86L217.61,290.95L238.70,288.95L240.02,292.03L239.13,293.89L243.50,293.39L244.72,292.61L246.26,289.27L251.46,284.17L267.50,281.45L274.75,282.34L280.88,284.62L285.18,287.60L291.05,285.68L303.77,286.65L307.36,285.62L322.78,288.34L326.71,286.88L335.44,291.52L333.27,292.18L328.36,299.77L328.62,305.99L326.71,308.45L327.00,311.66L334.32,317.70L336.83,324.58L337.44,328.66L342.55,330.84L338.39,344.07L339.11,347.85L341.47,349.64L341.06,350.79L352.25,349.46L353.90,350.69Z"><title>Banskobystrický</title></path>
<path data-code="SK-NI" data-name="Nitriansky" d="M215.67,408.31L198.43,411.99L196.76,413.38L194.20,418.78L189.32,421.97L190.43,424.76L189.23,433.78L189.86,436.49L196.32,442.01L191.66,443.49L184.52,449.91L181.73,450.21L171.12,447.75L151.56,450.08L144.41,453.05L140.87,453.39L129.09,452.15L101.68,453.95L91.51,450.53L93.53,444.75L95.74,444.79L99.01,442.25L100.14,436.89L108.16,429.44L107.23,427.66L107.67,423.90L106.86,422.83L106.84,410.15L103.82,408.57L103.61,406.14L99.88,406.12L100.56,401.57L95.80,395.37L97.74,394.31L101.24,394.63L101.70,392.86L100.31,389.33L101.52,388.77L103.56,390.62L106.89,387.93L107.03,385.52L104.27,381.46L105.92,376.87L103.19,373.88L104.89,366.87L115.30,350.63L108.94,344.54L104.11,342.14L105.94,339.94L109.30,331.60L111.70,332.66L116.92,330.75L117.62,330.11L117.19,328.65L119.28,326.45L120.54,326.55L120.67,322.89L118.97,319.70L118.57,316.18L119.80,314.15L122.35,314.67L122.61,316.21L130.20,318.16L134.62,324.06L141.50,327.95L142.32,330.12L140.18,334.16L140.30,335.70L141.13,337.29L143.06,337.55L146.20,340.15L148.19,345.41L151.18,346.32L151.90,345.05L153.55,346.56L165.13,338.32L167.35,341.39L165.01,345.12L169.55,345.49L169.52,348.83L170.29,349.32L169.04,352.03L170.36,355.09L170.35,357.24L171.78,358.23L172.89,361.52L172.45,365.21L169.07,369.88L170.04,371.50L173.32,367.90L183.58,365.55L186.06,360.56L188.87,357.74L190.43,357.87L196.24,364.78L199.99,373.45L198.70,378.76L196.10,382.12L197.71,388.04L195.57,390.37L196.04,393.60L198.38,392.35L202.48,394.60L207.39,394.52L208.61,392.31L216.85,389.95L219.37,387.87L220.66,389.33L220.83,390.90L219.65,393.89L220.21,398.32L215.72,404.65L215.67,408.31Z"><title>Nitriansky</title></path>
  </g>
</svg>
