<?xml version="1.0" encoding="UTF-8"?>
<svg xmlns="http://www.w3.org/2000/svg" viewBox="0 0 560 640" class="pref-muni-svg" role="img" aria-label="行政区分">
  <g class="pref-muni-svg__paths" fill="#eaf2fb" stroke="#5b7fa8" stroke-width="0.6" stroke-linejoin="round">
<path data-code="LK-53" data-name="Trikuṇāmalaya" d="M303.49,142.30L305.41,146.14L302.22,149.49L307.39,151.25L312.29,143.73L323.08,159.36L330.37,164.24L333.77,172.49L339.45,176.13L343.62,188.64L344.54,186.51L346.94,187.55L352.35,196.28L348.03,202.83L351.28,201.75L355.21,213.10L351.27,213.73L352.08,211.16L349.27,208.80L349.02,219.28L340.85,214.89L336.89,220.21L342.63,217.11L349.42,224.82L360.17,225.68L362.63,224.12L361.01,220.38L368.57,218.09L373.56,223.26L377.31,242.19L371.36,235.64L372.12,242.38L378.87,246.09L381.63,259.74L360.36,259.18L355.58,264.49L351.55,275.44L346.18,275.64L348.86,272.49L347.00,263.77L337.02,259.02L315.53,256.74L312.90,251.42L306.06,245.78L303.69,246.48L308.14,230.27L313.65,224.53L299.24,200.33L301.56,191.33L297.42,181.57L297.33,174.71L301.86,166.61L285.71,153.97L276.60,155.70L278.61,150.63L303.49,142.30Z"><title>Trikuṇāmalaya</title></path>
<path data-code="LK-45" data-name="Mulativ" d="M256.50,67.88L275.23,83.07L283.85,93.43L275.23,90.79L274.81,92.85L286.25,102.27L284.60,97.14L287.82,97.32L297.04,117.34L290.38,115.61L289.49,117.89L295.60,120.33L295.96,123.99L299.31,121.90L302.45,130.60L309.09,137.68L308.35,139.92L295.96,133.91L303.49,142.30L278.61,150.63L281.53,139.81L274.57,134.16L264.79,135.58L266.58,131.16L264.74,127.93L260.49,127.47L259.92,122.34L249.86,120.60L239.52,127.98L233.13,121.83L224.62,121.80L221.37,124.40L224.92,126.44L225.83,134.60L218.59,142.46L211.24,147.08L185.12,148.48L186.20,138.38L191.98,128.76L192.16,119.07L188.92,113.29L187.77,102.64L191.94,103.15L191.53,98.72L195.66,93.36L220.60,92.25L223.31,85.35L239.33,83.94L242.29,76.48L250.20,82.59L250.24,75.31L256.50,67.88Z"><title>Mulativ</title></path>
<path data-code="LK-41" data-name="Yāpanaya" d="M227.34,48.37L208.05,33.05L196.65,19.90L181.77,14.64L179.07,10.50L193.33,8.00L198.67,10.13L201.58,17.54L222.30,41.88L256.50,67.88L254.72,69.25L229.66,56.07L227.34,48.37ZM197.95,42.19L184.90,36.90L189.08,44.81L186.87,47.21L172.31,37.51L178.89,44.07L171.27,41.74L149.05,29.79L143.14,17.79L155.60,9.06L176.79,9.70L178.03,16.35L192.62,20.00L203.43,31.77L197.95,42.19ZM114.83,60.62L112.28,63.04L104.58,62.05L103.42,51.81L106.20,55.06L113.00,56.76L114.83,60.62ZM140.95,41.88L132.22,28.80L135.36,19.71L138.81,18.97L140.67,19.53L140.77,30.59L145.79,32.07L146.92,35.93L153.93,40.79L140.95,41.88Z"><title>Yāpanaya</title></path>
<path data-code="LK-42" data-name="Kilinŏchchi" d="M203.43,31.77L211.01,40.01L227.34,48.37L229.66,56.07L225.32,57.81L215.77,55.83L197.95,42.19L203.43,31.77ZM174.81,107.07L176.13,92.53L167.90,87.40L165.82,77.98L188.61,64.89L182.96,57.37L165.82,45.26L194.37,55.18L200.51,59.99L199.51,65.97L202.83,68.21L224.94,60.62L254.72,69.25L250.24,75.31L250.20,82.59L241.52,76.70L239.33,83.94L236.66,85.39L223.31,85.35L220.60,92.25L195.66,93.36L191.53,98.72L191.94,103.15L174.81,107.07Z"><title>Kilinŏchchi</title></path>
<path data-code="LK-43" data-name="Mannārama" d="M143.63,208.91L148.20,197.65L149.60,182.10L145.79,172.18L146.38,159.00L144.07,150.35L165.03,136.34L174.81,107.07L181.41,106.60L187.77,102.64L188.92,113.29L192.16,119.07L191.98,128.76L186.20,138.38L185.12,148.48L211.24,147.08L215.53,149.09L220.39,159.15L219.59,164.72L211.08,167.86L196.44,168.34L192.01,170.79L189.65,176.15L185.56,176.56L184.94,181.01L194.68,191.60L179.28,195.64L164.47,192.74L165.40,216.91L143.63,208.91ZM112.19,128.45L109.64,126.22L112.19,123.99L132.37,128.20L144.22,137.18L134.38,133.91L143.14,144.81L139.35,144.33L125.75,132.71L112.19,128.45Z"><title>Mannārama</title></path>
<path data-code="LK-62" data-name="Puttalama" d="M130.19,415.96L122.39,363.76L124.67,363.76L126.10,354.72L109.45,284.59L111.10,277.60L109.45,265.30L114.51,260.40L122.39,244.37L116.99,255.38L122.39,258.76L117.25,267.36L114.32,282.58L114.62,287.33L118.18,291.57L115.01,298.20L120.06,301.87L127.40,302.45L131.14,299.80L124.75,288.66L130.08,278.48L126.83,261.92L130.08,255.92L137.46,214.33L143.63,208.91L162.57,216.09L163.47,222.68L160.59,228.80L150.32,240.59L157.56,264.01L163.52,262.78L171.89,266.66L176.13,284.64L181.67,289.46L178.52,305.08L180.41,308.62L178.42,310.16L175.13,308.31L168.08,319.19L159.54,326.70L156.66,338.42L158.12,341.88L150.97,344.88L149.09,348.81L151.90,350.76L147.73,352.38L141.94,364.21L148.14,416.21L130.19,415.96Z"><title>Puttalama</title></path>
<path data-code="LK-12" data-name="Gampaha" d="M133.58,465.65L135.53,458.16L127.95,431.18L129.00,427.22L133.40,440.41L135.53,433.31L129.95,426.44L130.19,415.96L148.14,416.21L157.55,410.14L165.71,413.07L178.56,408.17L188.07,418.97L186.35,427.82L181.79,431.06L181.12,435.59L183.05,439.59L190.24,439.65L184.75,448.60L185.84,463.61L175.56,465.63L172.22,474.27L168.82,474.46L158.38,469.33L142.40,469.03L133.58,465.65Z"><title>Gampaha</title></path>
<path data-code="LK-11" data-name="Kŏḷamba" d="M141.66,506.06L135.76,490.86L133.58,465.65L142.40,469.03L158.38,469.33L168.82,474.46L172.22,474.27L173.04,468.14L178.68,464.18L192.01,465.23L190.68,473.22L185.45,482.56L189.34,486.71L185.86,489.84L176.09,490.95L177.11,495.58L170.14,489.32L147.98,500.44L140.65,495.89L141.66,506.06Z"><title>Kŏḷamba</title></path>
<path data-code="LK-13" data-name="Kaḷutara" d="M154.60,549.36L151.77,544.43L153.93,543.34L152.62,534.29L141.66,506.06L140.65,495.89L147.98,500.44L170.14,489.32L177.11,495.58L176.09,490.95L185.86,489.84L191.47,509.22L196.29,513.92L197.23,518.57L204.72,524.32L207.01,528.72L204.62,529.64L205.45,532.35L217.87,551.79L203.77,557.81L204.65,567.91L195.07,559.95L185.94,562.80L179.09,561.49L160.10,550.30L157.47,551.66L154.60,549.36Z"><title>Kaḷutara</title></path>
<path data-code="LK-31" data-name="Gālla" d="M218.36,625.60L189.69,615.63L172.78,598.66L162.49,577.26L154.60,549.36L157.47,551.66L160.10,550.30L179.09,561.49L185.94,562.80L195.07,559.95L204.65,567.91L203.77,557.81L212.23,553.08L217.87,551.79L221.96,555.63L234.45,559.13L235.81,561.10L230.41,564.25L234.71,569.57L233.78,574.08L222.53,567.57L217.38,567.48L226.60,581.83L223.84,585.23L218.28,584.26L220.68,588.82L219.13,598.34L226.88,604.86L219.09,612.39L223.61,615.91L218.03,622.00L218.36,625.60Z"><title>Gālla</title></path>
<path data-code="LK-32" data-name="Mātara" d="M272.91,623.71L270.48,626.54L261.29,626.54L250.93,632.00L242.82,628.72L231.05,629.30L227.70,624.46L218.36,625.60L218.03,622.00L223.61,615.91L219.09,612.39L226.88,604.86L219.13,598.34L220.68,588.82L218.28,584.26L223.84,585.23L226.60,581.83L217.38,567.48L222.53,567.57L233.78,574.08L234.71,569.57L230.41,564.25L242.01,559.93L243.11,557.34L252.76,556.40L254.00,563.48L260.64,563.35L264.30,568.56L261.98,571.52L262.24,578.05L256.17,582.67L254.24,589.55L262.24,593.24L261.08,599.07L267.28,600.55L265.27,603.27L267.02,609.41L261.88,611.61L262.26,614.16L267.34,616.50L268.00,621.38L272.91,623.71Z"><title>Mātara</title></path>
<path data-code="LK-33" data-name="Hambantŏṭa" d="M428.37,538.29L418.56,550.98L367.11,587.00L348.04,593.82L345.39,590.81L343.61,595.79L336.94,599.07L300.28,608.51L293.90,613.45L289.61,612.60L272.91,623.71L268.00,621.38L267.34,616.50L262.26,614.16L261.88,611.61L267.02,609.41L265.27,603.27L267.28,600.55L261.08,599.07L262.24,593.24L254.24,589.55L256.17,582.67L262.24,578.05L261.98,571.52L284.13,576.91L293.20,576.37L297.46,580.42L306.58,582.70L307.38,579.90L303.00,572.57L318.78,563.76L318.03,556.56L322.17,556.41L323.45,552.44L334.80,552.59L340.28,556.70L345.41,555.37L350.79,563.39L354.75,565.04L378.81,553.93L389.23,554.06L392.60,545.85L391.72,541.01L411.91,527.35L416.64,533.20L428.37,538.29Z"><title>Hambantŏṭa</title></path>
<path data-code="LK-52" data-name="Ampāra" d="M437.55,386.43L441.24,385.68L443.52,394.50L445.53,383.93L447.82,385.68L455.06,407.80L454.31,445.37L456.58,456.87L447.28,497.54L439.09,513.80L438.43,522.29L428.37,538.29L416.64,533.20L411.91,527.35L416.04,468.73L412.24,456.68L413.29,450.53L398.72,444.36L394.81,435.96L402.53,425.05L392.93,409.92L390.95,392.47L388.90,391.67L391.24,388.03L388.13,387.19L375.03,394.66L376.11,400.51L373.56,404.54L366.43,406.14L367.28,418.24L361.13,421.51L354.77,406.81L351.45,406.77L347.33,400.68L345.18,389.69L348.18,378.84L347.57,370.86L340.54,369.33L323.02,378.93L316.63,363.71L313.80,361.81L313.94,344.90L325.72,343.81L336.15,350.75L350.63,355.64L353.85,341.97L367.44,343.95L376.36,355.14L386.20,357.49L384.73,369.58L393.86,377.59L404.24,379.38L418.49,376.16L421.43,395.70L430.18,387.62L437.55,386.43Z"><title>Ampāra</title></path>
<path data-code="LK-51" data-name="Maḍakalapuva" d="M381.63,259.74L386.66,279.85L383.79,283.84L379.55,269.65L378.39,278.48L384.61,285.41L389.17,281.76L397.93,300.40L400.18,298.12L401.18,302.48L404.42,300.40L404.42,306.94L409.92,313.49L406.82,317.97L408.67,323.41L411.94,327.18L416.40,326.57L428.54,346.33L425.03,347.40L414.85,338.61L409.92,344.03L419.98,344.49L428.30,356.12L428.30,360.60L428.68,357.21L434.22,360.60L438.01,369.31L438.01,376.35L435.57,379.31L439.09,384.59L430.18,387.62L421.43,395.70L418.49,376.16L404.24,379.38L393.86,377.59L384.73,369.58L386.20,357.49L376.36,355.14L367.44,343.95L353.85,341.97L351.61,329.61L354.19,312.68L357.74,310.28L369.47,310.30L364.35,292.69L364.79,259.17L381.63,259.74ZM432.60,354.54L430.44,341.84L443.29,364.43L445.97,378.36L443.52,383.50L440.29,380.68L440.29,365.24L432.60,354.54Z"><title>Maḍakalapuva</title></path>
<path data-code="LK-91" data-name="Ratnapura" d="M304.29,509.98L288.72,540.82L290.32,555.84L294.33,562.26L300.24,565.93L305.91,575.83L306.58,582.70L297.46,580.42L293.20,576.37L284.13,576.91L263.47,570.93L264.30,568.56L260.64,563.35L254.00,563.48L252.76,556.40L243.11,557.34L242.01,559.93L235.81,561.10L221.96,555.63L205.45,532.35L204.62,529.64L207.01,528.72L204.72,524.32L197.23,518.57L196.29,513.92L191.47,509.22L185.86,489.84L189.34,486.71L185.45,482.56L193.14,472.10L208.73,485.17L221.86,483.19L235.93,486.95L235.11,493.52L238.36,496.02L259.12,499.37L271.63,498.67L285.53,493.30L285.96,499.17L288.30,498.13L293.19,501.37L287.41,506.68L288.33,511.42L294.36,514.08L304.29,509.98Z"><title>Ratnapura</title></path>
<path data-code="LK-82" data-name="Mŏṇarāgala" d="M303.00,572.57L300.24,565.93L294.33,562.26L290.32,555.84L288.72,540.82L297.16,521.54L306.17,510.08L319.27,533.20L322.14,525.47L325.56,527.41L326.05,523.61L329.33,522.43L325.49,514.27L328.14,505.84L324.56,500.18L325.96,490.50L337.30,485.95L333.42,480.54L340.86,477.53L346.13,471.64L349.76,471.88L352.90,463.69L352.97,449.06L349.24,444.67L343.42,446.22L335.57,436.04L336.04,432.80L337.90,429.98L342.71,432.69L345.35,431.59L351.12,423.62L352.33,417.31L358.50,415.83L361.13,421.51L367.28,418.24L366.43,406.14L373.56,404.54L376.11,400.51L375.03,394.66L388.13,387.19L391.24,388.03L388.90,391.67L390.95,392.47L392.93,409.92L402.53,425.05L394.81,435.96L398.72,444.36L413.29,450.53L412.24,456.68L416.04,468.73L411.91,527.35L391.72,541.01L392.60,545.85L389.23,554.06L378.81,553.93L354.75,565.04L350.79,563.39L345.41,555.37L340.28,556.70L334.80,552.59L323.45,552.44L322.17,556.41L318.03,556.56L318.78,563.76L303.00,572.57Z"><title>Mŏṇarāgala</title></path>
<path data-code="LK-92" data-name="Kægalla" d="M204.08,483.21L193.14,472.10L190.68,473.22L192.01,465.23L185.84,463.61L184.75,448.60L190.24,439.65L183.05,439.59L181.79,431.06L186.35,427.82L188.07,418.97L198.03,411.67L211.16,408.13L213.21,398.39L220.47,397.51L226.18,407.88L233.01,413.90L232.75,416.98L240.03,422.50L239.69,427.69L243.82,432.30L241.68,436.36L228.45,442.15L232.00,449.90L231.51,456.19L225.85,461.97L228.01,474.79L236.27,479.01L237.74,485.34L232.77,487.06L219.47,483.11L212.68,486.05L206.83,482.22L204.08,483.21Z"><title>Kægalla</title></path>
<path data-code="LK-81" data-name="Badulla" d="M358.50,415.83L352.33,417.31L351.12,423.62L345.35,431.59L342.71,432.69L337.90,429.98L336.04,432.80L335.57,436.04L343.42,446.22L349.24,444.67L352.97,449.06L354.23,456.39L349.76,471.88L346.13,471.64L340.86,477.53L333.42,480.54L337.30,485.95L325.96,490.50L324.56,500.18L328.14,505.84L325.49,514.27L329.33,522.43L326.05,523.61L325.56,527.41L322.14,525.47L319.27,533.20L306.17,510.08L294.36,514.08L288.33,511.42L287.41,506.68L293.19,501.37L288.30,498.13L285.96,499.17L285.53,493.30L290.14,490.25L287.23,488.57L289.56,484.78L280.95,472.94L286.78,472.97L292.17,465.04L301.02,462.37L309.54,447.51L307.96,429.42L317.62,423.25L314.43,406.51L312.27,369.32L313.80,361.81L316.63,363.71L323.02,378.93L340.54,369.33L347.57,370.86L348.18,378.84L345.18,389.69L347.33,400.68L351.45,406.77L354.77,406.81L358.50,415.83Z"><title>Badulla</title></path>
<path data-code="LK-22" data-name="Mātale" d="M277.09,298.33L281.49,305.91L285.81,303.82L292.47,306.26L287.72,311.24L283.37,331.21L278.78,332.24L279.56,349.45L285.30,352.60L292.43,348.06L296.21,351.48L297.26,345.82L313.94,344.90L315.32,354.25L312.27,369.32L313.04,382.39L304.82,382.32L300.89,386.80L298.98,384.41L289.85,385.63L280.30,390.46L272.07,384.68L266.07,398.13L260.25,397.78L246.93,386.96L248.22,382.17L244.43,373.68L248.13,361.68L245.23,358.84L241.39,341.51L235.68,332.46L247.90,321.99L254.70,321.71L261.10,312.12L261.95,306.60L277.09,298.33Z"><title>Mātale</title></path>
<path data-code="LK-72" data-name="Pŏḷŏnnaruva" d="M282.82,306.40L277.09,298.33L280.40,289.78L277.24,287.25L284.49,256.59L297.77,255.43L306.06,245.78L315.53,256.74L337.02,259.02L347.00,263.77L347.57,276.34L351.55,275.44L355.58,264.49L360.36,259.18L364.79,259.17L364.35,292.69L369.47,310.30L357.74,310.28L354.19,312.68L351.61,329.61L353.62,349.34L350.63,355.64L336.15,350.75L325.72,343.81L297.26,345.82L296.21,351.48L292.43,348.06L285.30,352.60L281.13,351.69L277.71,336.63L278.78,332.24L283.37,331.21L287.72,311.24L292.47,306.26L285.81,303.82L282.82,306.40Z"><title>Pŏḷŏnnaruva</title></path>
<path data-code="LK-61" data-name="Kuruṇægala" d="M224.23,402.98L220.47,397.51L213.21,398.39L211.16,408.13L198.03,411.67L188.07,418.97L178.56,408.17L165.71,413.07L157.55,410.14L148.14,416.21L141.94,364.21L147.73,352.38L151.90,350.76L149.09,348.81L150.97,344.88L158.12,341.88L156.66,338.42L159.54,326.70L168.08,319.19L175.13,308.31L178.42,310.16L180.41,308.62L178.52,305.08L181.67,289.46L176.13,284.64L173.66,268.95L208.37,283.73L218.57,291.99L221.55,291.89L223.94,293.85L224.25,306.96L230.31,310.28L232.39,325.98L236.42,329.85L236.09,335.26L241.39,341.51L245.23,358.84L248.13,361.68L244.43,373.68L248.22,382.17L246.93,386.96L243.17,388.32L245.40,392.52L239.10,394.23L239.11,397.68L231.67,395.71L230.35,402.51L224.23,402.98Z"><title>Kuruṇægala</title></path>
<path data-code="LK-71" data-name="Anurādhapura" d="M303.69,246.48L297.77,255.43L284.49,256.59L278.58,275.46L277.24,287.25L280.40,289.78L277.09,298.33L261.95,306.60L261.10,312.12L254.70,321.71L247.90,321.99L236.42,329.85L232.39,325.98L230.31,310.28L224.25,306.96L223.94,293.85L208.37,283.73L177.08,270.85L169.55,264.79L163.52,262.78L157.56,264.01L150.32,240.59L160.59,228.80L163.47,222.68L162.57,216.09L165.40,216.91L164.47,192.74L179.28,195.64L194.68,191.60L196.36,201.29L201.10,203.18L204.39,210.71L210.92,213.04L225.33,192.46L230.15,190.24L240.80,193.67L260.38,174.16L256.14,166.26L252.02,164.84L251.72,161.33L263.50,160.92L268.10,157.71L285.71,153.97L301.86,166.61L297.33,174.71L297.42,181.57L301.56,191.33L299.24,200.33L313.65,224.53L308.14,230.27L303.69,246.48Z"><title>Anurādhapura</title></path>
<path data-code="LK-23" data-name="Nuvara Ĕliya" d="M259.12,499.37L238.36,496.02L235.11,493.52L237.74,485.34L236.27,479.01L228.01,474.79L225.85,461.97L230.77,455.52L235.30,455.92L242.40,466.53L247.01,469.27L252.33,460.29L245.31,450.32L242.78,450.17L259.89,444.10L265.69,444.75L279.09,427.20L277.14,416.60L288.80,428.63L307.96,429.42L309.54,447.51L304.54,457.13L301.02,462.37L292.17,465.04L286.78,472.97L280.95,472.94L281.13,475.49L286.19,478.04L289.56,484.78L287.23,488.57L290.14,490.25L276.57,498.00L259.12,499.37Z"><title>Nuvara Ĕliya</title></path>
<path data-code="LK-44" data-name="Vavuniyāva" d="M276.60,155.70L263.50,160.92L251.72,161.33L252.02,164.84L256.14,166.26L260.38,174.16L240.80,193.67L230.15,190.24L225.33,192.46L210.92,213.04L204.39,210.71L201.10,203.18L196.36,201.29L194.68,191.60L184.94,181.01L185.56,176.56L189.65,176.15L192.01,170.79L196.44,168.34L211.08,167.86L219.59,164.72L217.98,153.03L211.24,147.08L225.83,134.60L224.92,126.44L221.37,124.40L221.78,122.07L233.13,121.83L239.52,127.98L249.86,120.60L259.92,122.34L260.49,127.47L264.74,127.93L266.58,131.16L264.79,135.58L274.57,134.16L281.53,139.81L276.60,155.70Z"><title>Vavuniyāva</title></path>
<path data-code="LK-21" data-name="Mahanuvara" d="M230.77,455.52L232.00,449.90L228.45,442.15L241.68,436.36L243.82,432.30L239.69,427.69L240.03,422.50L232.75,416.98L233.01,413.90L224.23,402.98L230.35,402.51L231.67,395.71L239.11,397.68L239.10,394.23L245.40,392.52L243.17,388.32L246.93,386.96L260.25,397.78L266.07,398.13L272.07,384.68L280.30,390.46L289.85,385.63L298.98,384.41L300.89,386.80L304.82,382.32L313.04,382.39L314.43,406.51L317.90,418.07L317.62,423.25L313.35,427.23L307.96,429.42L288.80,428.63L277.14,416.60L279.09,427.20L265.69,444.75L259.89,444.10L242.78,450.17L245.31,450.32L252.33,460.29L247.01,469.27L242.40,466.53L235.30,455.92L230.77,455.52Z"><title>Mahanuvara</title></path>
  </g>
</svg>
