<?xml version="1.0" encoding="UTF-8"?>
<svg xmlns="http://www.w3.org/2000/svg" viewBox="0 0 560 640" class="pref-muni-svg" role="img" aria-label="行政区分">
  <g class="pref-muni-svg__paths" fill="#eaf2fb" stroke="#5b7fa8" stroke-width="0.6" stroke-linejoin="round">
<path data-code="SE-BD" data-name="Norrbotten" d="M328.81,39.27L335.51,33.48L329.47,30.57L335.31,25.20L337.76,19.43L337.53,13.76L332.45,8.65L343.53,8.00L349.65,10.54L350.14,11.98L349.15,12.98L349.54,14.46L353.07,15.61L358.03,20.79L360.18,21.10L361.40,23.93L366.78,27.01L367.21,28.44L371.09,29.34L374.34,33.49L379.25,33.53L389.99,37.24L395.49,42.01L397.37,45.33L397.59,49.67L400.59,48.60L402.21,52.90L407.74,56.91L408.13,58.30L407.59,59.18L404.30,61.41L404.37,67.22L405.84,74.06L404.13,75.52L403.24,78.69L404.21,80.59L410.34,81.67L410.05,85.04L410.77,85.43L409.71,87.61L406.88,88.95L407.14,91.06L406.43,93.84L415.42,109.70L413.04,112.17L412.82,120.71L407.94,125.48L408.16,131.97L409.47,136.98L412.98,139.05L415.75,144.17L416.50,148.77L418.80,154.48L416.03,155.07L416.46,155.69L413.77,157.32L409.79,154.18L407.32,155.68L404.06,153.99L403.04,155.41L403.18,157.09L402.25,156.64L402.03,154.48L400.23,155.70L398.23,154.28L398.12,155.97L399.12,156.94L396.26,159.86L395.04,157.28L391.09,155.69L389.50,152.58L386.69,150.57L387.68,155.33L386.92,157.45L386.16,155.95L383.68,156.66L383.83,154.48L381.43,152.60L379.73,153.83L380.62,155.07L379.59,155.41L380.47,157.28L379.74,158.45L377.25,157.28L380.50,159.33L381.05,161.32L378.79,160.00L378.28,161.66L378.86,163.19L376.83,163.53L379.20,164.10L379.59,163.19L378.86,161.66L379.37,161.47L380.89,163.08L379.89,164.44L381.55,165.58L381.93,166.95L381.42,167.27L373.89,163.84L367.79,158.81L369.57,161.85L377.12,166.95L374.21,168.53L369.69,167.57L373.48,170.69L372.75,172.55L371.58,171.31L371.27,173.56L364.01,172.91L363.12,173.49L364.29,174.11L361.94,174.05L361.09,175.70L366.46,178.95L364.78,181.00L363.12,180.70L358.89,174.98L357.16,176.63L359.86,177.31L362.97,181.45L364.70,185.23L363.12,185.71L363.10,188.19L363.91,188.89L357.20,184.48L332.72,177.77L323.97,180.59L318.01,184.70L314.35,182.23L313.33,179.35L305.19,174.90L303.05,172.02L298.95,171.36L294.20,168.77L291.63,165.49L283.08,162.03L276.52,157.54L263.96,146.12L255.81,142.95L242.32,133.81L234.08,130.22L233.02,124.01L238.19,119.07L246.05,105.94L254.06,98.41L254.53,91.69L247.92,81.55L249.06,78.19L255.49,75.39L258.16,71.31L261.87,59.93L271.16,53.41L273.32,50.44L286.07,56.47L291.76,46.18L290.63,37.20L291.40,30.81L297.02,29.08L301.45,32.39L309.82,32.19L328.81,39.27ZM376.07,172.36L375.94,170.61L376.50,170.36L377.76,172.65L376.07,172.36ZM377.46,168.88L376.78,167.46L380.43,169.00L378.73,168.58L378.76,170.18L377.46,168.88ZM385.09,165.41L386.44,165.12L385.51,166.73L384.06,165.71L385.09,165.41ZM393.27,159.33L393.47,161.57L391.56,159.14L392.58,158.16L393.27,159.33ZM411.02,157.62L409.77,160.22L408.56,159.08L408.73,157.86L411.02,157.62ZM388.56,159.45L388.68,156.86L390.06,159.43L388.56,159.45Z"><title>Norrbotten</title></path>
<path data-code="SE-AC" data-name="Västerbotten" d="M209.77,186.73L210.78,181.02L213.63,177.48L213.54,170.79L214.61,160.02L216.49,155.40L214.19,140.68L225.09,139.41L234.20,133.87L234.08,130.22L242.32,133.81L255.81,142.95L263.96,146.12L276.52,157.54L283.08,162.03L291.63,165.49L294.20,168.77L298.95,171.36L303.05,172.02L305.19,174.90L313.33,179.35L314.35,182.23L317.59,184.58L323.97,180.59L332.72,177.77L357.20,184.48L363.91,188.89L361.73,189.13L362.24,191.00L360.52,191.31L359.57,193.80L356.72,194.11L355.40,199.46L353.94,200.05L353.01,198.32L352.33,199.60L353.61,201.76L358.04,202.54L356.41,203.47L358.18,205.68L357.68,206.25L358.02,207.21L354.60,204.15L353.90,205.68L356.47,207.42L356.75,209.20L359.05,211.60L359.49,209.84L361.23,211.92L361.87,210.96L362.20,212.75L363.28,213.18L358.93,213.31L361.66,214.08L362.00,216.85L364.00,215.67L364.44,216.94L359.48,222.50L358.31,220.96L358.62,223.20L356.73,223.56L350.83,230.75L349.35,238.30L347.82,240.07L346.80,243.51L344.62,244.72L345.35,245.66L344.62,247.16L343.30,245.66L341.81,247.80L340.98,245.67L339.07,248.15L338.66,252.09L337.82,251.72L337.97,250.07L337.20,248.77L336.82,253.31L335.97,252.57L336.32,249.73L335.44,253.47L331.01,253.20L330.51,254.23L330.92,255.67L327.87,255.65L325.03,259.24L325.36,262.13L323.63,263.47L322.61,262.86L321.32,259.38L319.01,257.54L317.95,258.13L320.14,260.99L318.82,261.76L319.81,264.36L316.37,260.99L316.93,262.86L315.72,262.27L313.39,256.05L307.61,247.55L298.50,243.96L296.82,240.45L297.88,239.48L296.82,238.33L282.00,242.59L264.39,239.38L261.90,237.68L250.81,225.91L246.69,225.24L244.91,221.44L240.70,218.11L239.12,213.38L236.83,216.23L235.82,213.54L230.15,208.18L231.80,207.01L229.68,204.62L226.09,202.96L224.89,199.65L221.54,197.48L217.76,191.96L209.77,186.73ZM348.12,248.15L348.67,246.82L349.85,247.87L348.12,248.15ZM349.37,248.76L350.44,247.83L349.90,251.08L348.66,252.00L349.37,248.76Z"><title>Västerbotten</title></path>
<path data-code="SE-Z" data-name="Jämtland" d="M209.75,186.78L217.76,191.96L221.54,197.48L224.89,199.65L226.09,202.96L229.68,204.62L231.80,207.01L230.15,208.18L235.82,213.54L236.83,216.23L239.12,213.38L240.70,218.11L244.91,221.44L246.69,225.24L250.81,225.91L261.06,236.76L258.62,244.30L257.81,249.55L255.58,250.90L247.44,251.43L243.36,253.98L245.00,257.55L245.66,262.08L265.83,283.43L259.22,286.67L252.77,295.38L242.80,296.33L227.62,301.22L220.43,301.68L221.23,307.03L220.51,308.00L220.80,309.33L225.36,315.15L231.58,315.86L233.63,321.42L232.82,323.39L226.62,328.70L227.05,331.34L226.33,336.09L221.05,335.72L220.50,336.01L220.52,338.00L218.30,334.15L217.24,334.70L214.81,338.98L212.93,347.33L210.82,347.77L194.32,344.28L188.38,333.01L189.55,328.51L187.50,326.55L182.46,325.01L177.11,319.27L166.87,316.33L162.10,301.99L163.49,295.27L162.15,287.35L164.90,283.07L160.00,269.97L164.84,261.52L163.79,255.87L176.22,237.95L186.41,233.41L202.32,236.67L206.11,229.02L205.15,217.44L195.10,210.94L209.75,186.78Z"><title>Jämtland</title></path>
<path data-code="SE-W" data-name="Dalarna" d="M175.28,371.70L175.88,367.80L178.02,363.95L179.02,357.82L173.22,349.36L169.02,347.75L163.60,341.26L166.87,316.33L177.11,319.27L182.46,325.01L187.50,326.55L189.55,328.51L188.38,333.01L194.32,344.28L212.93,347.33L216.87,348.63L217.84,351.85L226.12,351.85L227.90,349.49L238.33,364.40L238.89,368.47L240.26,370.57L248.54,374.32L253.43,382.79L253.63,385.69L249.58,391.40L249.53,393.44L253.70,400.79L257.92,405.31L260.52,410.68L257.00,411.87L254.78,415.34L252.02,416.34L248.99,415.45L248.49,413.07L246.36,411.60L241.29,411.76L239.90,413.18L239.02,416.32L239.03,420.61L235.33,421.12L233.63,425.20L229.44,419.51L222.41,416.43L220.74,414.40L219.05,415.39L219.10,418.85L212.28,418.21L208.17,414.99L205.73,409.02L202.28,408.07L203.06,410.18L201.67,410.59L195.64,401.32L192.18,399.07L184.44,384.02L176.24,374.25L175.28,371.70Z"><title>Dalarna</title></path>
<path data-code="SE-S" data-name="Värmland" d="M174.68,372.46L175.28,371.70L176.24,374.25L183.52,382.65L191.88,398.68L195.64,401.32L199.40,407.95L202.15,410.88L203.06,410.18L202.09,408.15L205.73,409.02L208.17,414.99L212.28,418.21L212.39,419.79L210.19,421.72L211.80,424.13L211.95,432.33L212.94,438.85L211.83,441.36L212.76,443.46L209.71,451.76L209.34,464.71L207.51,463.42L193.93,463.11L191.15,466.92L189.64,472.00L190.91,476.41L187.56,477.20L179.90,473.88L178.43,466.00L176.69,462.65L176.25,459.22L174.77,457.45L172.60,459.84L169.02,457.64L170.13,456.34L167.67,456.86L164.72,453.96L162.88,454.12L161.91,456.34L159.40,454.27L156.15,454.12L153.17,438.99L153.65,437.09L156.52,435.38L157.98,432.91L158.08,429.67L156.83,427.24L156.97,425.69L158.94,424.34L163.22,424.50L169.66,417.54L171.32,412.50L170.62,405.64L173.04,400.77L172.80,396.40L168.18,385.50L165.55,374.22L171.05,372.06L174.68,372.46Z"><title>Värmland</title></path>
<path data-code="SE-O" data-name="Västra Götaland" d="M150.53,470.71L153.03,469.10L156.15,454.12L159.40,454.27L161.91,456.34L162.48,454.50L164.12,453.83L167.67,456.86L170.13,456.34L168.98,457.38L170.48,458.97L172.60,459.84L174.77,457.45L175.97,458.76L176.69,462.65L178.43,466.00L179.90,473.88L187.56,477.20L190.03,477.01L190.91,476.41L189.50,472.61L190.39,469.02L193.93,463.11L207.51,463.42L209.34,464.71L213.25,477.55L215.22,478.71L217.05,477.21L219.95,481.61L207.73,510.96L207.66,514.31L203.75,517.07L203.08,518.84L197.39,517.73L197.73,521.03L195.94,530.85L192.68,537.31L188.13,542.16L183.91,549.46L180.10,547.10L180.40,544.03L176.54,543.11L174.50,540.81L172.81,540.63L171.11,543.03L169.66,543.16L168.56,539.74L169.00,536.74L167.33,534.24L167.22,530.00L166.58,528.52L161.64,530.52L158.31,530.04L158.40,528.31L157.34,528.93L156.66,526.44L158.54,524.58L153.90,524.78L156.13,521.00L152.86,518.35L155.05,515.50L154.56,513.83L155.91,510.02L155.77,506.47L156.52,505.51L156.79,502.20L157.82,501.15L157.01,500.70L156.10,497.26L157.67,495.86L154.35,496.12L149.66,499.95L150.42,495.83L153.15,491.79L151.42,492.75L150.66,489.92L150.01,495.71L147.32,498.97L148.33,497.10L147.06,496.53L148.44,495.46L147.92,493.34L146.26,495.26L147.92,490.85L146.01,494.28L143.60,495.25L143.34,491.94L144.41,491.79L145.15,489.61L143.97,487.88L144.99,484.60L143.38,480.08L143.54,478.76L142.67,478.28L143.86,474.20L143.10,468.98L141.20,467.57L142.81,465.84L141.35,465.08L143.58,461.34L146.44,461.28L148.22,465.86L148.51,470.19L150.53,470.71ZM154.61,508.36L154.46,511.14L153.68,510.35L151.55,513.97L150.12,513.12L149.86,511.00L150.97,510.86L149.49,509.75L154.61,508.36ZM156.06,500.53L156.01,505.30L153.96,506.56L151.35,505.42L149.88,507.11L148.76,506.16L148.63,507.74L147.55,505.06L150.12,501.33L153.00,500.22L153.50,497.76L156.06,500.53Z"><title>Västra Götaland</title></path>
<path data-code="SE-Y" data-name="Västernorrland" d="M315.72,262.27L314.98,262.19L314.53,268.14L311.84,269.08L312.28,269.73L311.49,272.35L310.23,271.26L310.21,272.81L311.39,273.13L310.13,274.98L307.03,270.96L303.72,271.31L307.17,273.47L304.19,275.44L303.76,273.67L305.27,273.13L302.64,272.84L303.82,275.96L299.75,275.02L301.42,276.44L301.67,277.95L299.59,277.82L298.87,279.69L299.59,279.69L297.92,282.21L296.33,280.60L295.66,280.97L296.98,282.49L295.04,281.33L292.89,283.14L298.90,283.50L300.01,285.03L296.32,284.74L296.10,285.63L297.10,286.41L298.87,286.56L296.26,287.19L297.84,288.75L295.78,290.58L293.45,288.45L292.15,289.08L292.15,290.64L293.76,290.36L291.90,293.28L291.71,291.72L290.73,293.53L287.94,292.51L290.86,291.24L289.39,289.71L286.37,291.47L286.08,286.98L285.17,287.19L283.70,284.08L284.15,283.14L281.23,283.43L284.51,286.72L285.66,290.46L285.31,291.57L286.83,293.05L287.81,296.40L287.61,298.64L285.02,298.14L288.67,300.17L289.11,301.56L287.07,303.17L286.41,300.65L284.41,306.39L282.11,305.66L280.50,306.91L281.53,308.78L278.43,308.49L275.56,304.05L273.75,306.01L273.51,307.19L274.55,309.31L273.66,310.30L274.31,313.08L276.14,314.06L276.87,315.65L276.27,316.27L280.36,318.14L278.06,319.53L278.59,318.14L277.52,318.33L277.09,321.99L249.67,316.84L236.32,312.39L231.58,315.86L228.08,316.22L223.97,313.78L220.51,308.00L221.23,307.03L220.23,302.06L221.01,301.29L227.62,301.22L242.80,296.33L252.77,295.38L259.22,286.67L265.74,284.08L245.66,262.08L245.00,257.55L243.36,253.98L247.44,251.43L255.58,250.90L257.81,249.55L258.62,244.30L261.06,236.76L264.39,239.38L282.00,242.59L296.82,238.33L297.93,239.95L296.90,240.85L298.82,244.30L308.08,248.03L313.39,256.05L315.72,262.27ZM290.40,297.36L287.88,296.56L288.62,294.32L291.15,294.66L290.40,297.36Z"><title>Västernorrland</title></path>
<path data-code="SE-X" data-name="Gävleborg" d="M277.09,321.99L275.54,327.50L276.28,328.56L274.82,329.06L273.89,331.10L274.24,333.90L273.66,336.75L275.11,336.87L274.39,337.80L274.97,341.37L277.42,341.76L277.04,345.35L275.69,345.15L273.51,341.56L273.95,343.43L272.15,341.40L269.42,341.22L272.19,342.81L270.02,344.36L270.60,345.02L268.55,345.30L271.76,346.54L268.26,346.23L269.58,347.16L267.68,347.76L270.45,348.72L268.19,349.20L270.02,350.28L269.13,350.90L270.15,351.55L270.08,354.19L271.17,353.87L270.02,355.31L269.39,354.37L268.70,356.09L272.35,359.98L269.71,359.33L271.76,361.20L270.84,361.14L268.55,359.67L271.01,363.57L269.71,364.99L270.45,365.58L269.86,367.48L270.37,368.68L269.58,369.06L270.73,369.92L269.86,373.39L271.76,373.73L270.05,374.65L269.85,376.64L271.72,378.94L272.49,381.54L272.00,382.70L273.62,384.92L270.45,388.32L271.97,388.22L274.24,390.28L273.37,391.22L274.49,391.44L273.20,397.72L271.24,401.46L271.29,405.76L265.45,406.54L264.69,408.68L262.44,410.27L260.47,410.03L249.53,393.44L249.58,391.40L253.88,384.29L248.54,374.32L240.26,370.57L238.89,368.47L238.33,364.40L227.90,349.49L226.12,351.85L217.84,351.85L216.87,348.63L212.93,347.33L214.81,338.98L217.24,334.70L218.30,334.15L220.52,338.00L220.50,336.01L221.05,335.72L226.33,336.09L227.05,331.34L226.62,328.70L233.43,322.34L233.41,320.37L231.58,315.86L235.23,312.80L277.09,321.99Z"><title>Gävleborg</title></path>
<path data-code="SE-C" data-name="Uppsala" d="M274.49,391.44L278.71,390.34L280.50,392.15L279.32,393.25L280.05,396.38L282.25,397.15L281.94,395.50L282.69,394.20L286.66,392.56L287.65,394.67L287.06,396.53L293.32,402.44L292.15,403.69L292.74,404.96L294.05,403.69L296.85,403.98L297.84,406.52L296.82,406.83L300.61,409.01L296.27,408.04L294.49,405.24L297.27,410.25L296.10,409.29L296.68,411.05L298.51,412.77L299.41,411.94L299.54,414.34L297.55,417.92L298.25,419.38L296.83,420.78L296.50,424.39L291.53,427.68L289.66,431.15L283.10,433.92L280.79,433.12L278.97,434.94L278.44,437.08L279.04,439.80L275.94,447.89L270.75,441.85L265.77,441.20L264.36,434.96L261.97,429.06L263.35,427.44L263.48,425.14L267.55,427.21L270.62,424.54L270.90,421.36L270.01,420.01L273.03,416.34L274.86,409.63L271.29,405.76L271.11,402.34L273.20,397.72L274.49,391.44ZM299.45,404.96L299.80,405.86L296.30,403.02L295.80,396.73L297.66,399.70L296.68,399.65L298.05,403.17L299.01,403.10L299.45,404.96Z"><title>Uppsala</title></path>
<path data-code="SE-AB" data-name="Stockholm" d="M299.54,414.34L300.17,416.50L300.04,413.39L303.07,414.13L304.69,419.65L303.76,416.13L305.12,414.51L306.95,422.28L309.69,425.27L310.53,424.60L310.46,427.45L309.75,427.39L306.59,423.07L307.54,425.09L307.40,426.61L303.35,430.41L309.90,429.67L310.82,430.26L310.60,431.28L308.09,432.67L307.17,431.19L302.93,434.77L302.50,435.86L303.39,436.21L301.78,436.48L302.35,437.84L301.36,438.85L295.82,443.74L293.47,443.69L294.20,444.62L293.03,444.94L294.93,446.83L294.28,447.37L291.76,446.88L291.13,446.21L292.15,446.21L291.61,444.57L290.16,444.73L289.14,447.35L287.94,446.83L290.86,449.95L289.77,450.56L292.44,450.88L293.16,448.92L294.51,448.32L297.74,450.09L297.27,447.43L298.29,447.43L296.82,445.56L298.05,445.66L300.77,448.36L299.31,448.67L301.20,449.64L301.33,451.09L293.94,450.74L294.49,452.75L293.69,453.52L296.51,455.65L296.82,456.48L294.42,454.78L296.39,456.82L296.10,457.75L296.88,457.49L296.77,458.89L292.02,461.77L293.18,460.84L292.50,460.00L288.04,463.41L286.92,468.98L285.61,469.29L285.47,471.79L284.80,469.14L282.93,467.25L283.57,469.63L282.95,470.64L282.25,466.18L282.83,459.96L282.07,460.24L281.59,463.05L280.64,461.77L281.23,459.46L280.50,457.75L280.80,459.31L279.48,461.18L279.91,464.63L279.39,467.00L274.24,464.52L272.48,455.43L273.57,453.86L274.01,450.09L276.03,449.21L276.60,445.86L277.73,444.40L279.13,439.38L278.48,437.71L278.85,435.09L280.79,433.12L283.10,433.92L289.66,431.15L291.53,427.68L296.04,425.25L296.83,420.78L298.25,419.38L297.55,417.92L299.54,414.34ZM296.90,453.68L295.08,451.81L300.77,453.68L298.72,453.09L299.07,454.43L300.04,454.30L299.48,455.16L296.90,453.68ZM298.07,461.01L296.54,464.92L295.07,464.28L295.72,461.88L297.66,460.11L298.07,461.01ZM302.97,455.94L303.70,456.10L301.78,457.39L302.97,455.94ZM304.70,452.01L304.23,453.96L303.11,453.49L304.70,452.01ZM302.12,449.94L301.31,448.68L302.76,448.53L303.63,450.33L302.15,451.80L302.12,449.94ZM290.02,447.91L293.05,448.74L291.27,449.93L290.02,447.91ZM307.43,445.67L306.76,446.89L306.05,446.10L307.43,445.67ZM301.71,442.36L300.39,443.26L300.54,444.66L300.05,444.31L299.58,446.20L298.60,443.43L299.60,443.48L300.03,442.89L299.47,442.20L300.71,440.58L303.46,440.82L301.71,442.36ZM308.54,436.56L307.00,438.87L306.00,438.30L307.69,435.87L308.54,436.56ZM305.91,438.05L303.84,439.35L307.40,435.51L305.91,438.05ZM308.93,428.54L306.58,429.27L308.14,426.09L308.93,428.54ZM303.14,410.91L303.03,410.01L303.76,410.34L304.91,412.55L303.15,412.79L303.14,410.91ZM294.58,466.86L295.34,466.50L293.91,468.12L294.48,468.78L291.86,469.49L294.58,466.86ZM291.96,465.01L290.85,465.25L290.82,466.86L288.82,467.23L289.95,464.42L292.35,464.34L291.96,465.01ZM281.52,465.76L281.05,469.97L279.76,467.10L280.35,462.19L281.52,465.76Z"><title>Stockholm</title></path>
<path data-code="SE-D" data-name="Södermanland" d="M278.95,467.05L279.62,469.92L277.88,469.92L278.90,472.13L275.99,470.23L276.46,471.36L276.05,473.85L276.87,474.59L273.66,474.27L274.50,476.19L272.35,477.73L267.08,476.79L268.26,477.42L267.81,478.66L269.58,479.28L268.46,480.91L265.95,479.79L265.50,480.53L267.25,481.80L264.87,482.53L261.84,482.11L258.62,479.63L254.60,479.33L251.56,473.48L246.88,468.87L242.39,465.00L240.47,466.85L237.56,463.79L241.06,459.88L240.51,456.05L243.09,454.41L244.88,449.52L251.12,448.35L251.97,447.30L251.07,446.10L251.32,444.77L265.77,441.20L269.63,441.42L276.17,448.31L273.75,450.64L272.63,456.95L274.69,465.53L278.95,467.05Z"><title>Södermanland</title></path>
<path data-code="SE-E" data-name="Östergötland" d="M261.84,482.11L250.19,480.53L250.64,482.11L249.03,482.11L251.29,482.96L252.32,481.90L253.46,484.07L254.57,481.49L262.00,483.36L261.93,484.93L262.96,486.90L265.21,488.65L261.13,491.48L253.99,489.27L259.95,492.22L260.42,494.62L261.62,494.48L261.70,495.55L258.65,494.90L260.33,497.42L262.21,496.28L260.25,498.66L262.29,499.88L262.70,502.84L261.98,502.86L262.44,503.64L261.75,505.08L258.35,501.77L260.87,507.17L259.81,508.36L261.09,510.28L260.10,511.14L258.93,509.27L258.77,510.37L259.83,511.52L258.95,511.37L257.54,506.70L254.57,505.32L251.11,505.48L248.63,507.81L245.71,507.46L245.78,509.82L246.84,512.13L246.14,514.05L246.35,516.69L245.26,518.59L238.20,517.54L233.93,522.13L233.38,524.18L227.22,522.87L224.48,514.95L224.92,511.36L226.13,510.36L223.95,504.02L221.30,506.60L215.40,505.93L213.03,504.02L211.81,500.81L219.95,481.61L224.20,479.16L227.59,474.21L235.43,471.20L236.57,469.67L236.78,467.40L240.72,466.78L241.99,465.00L251.56,473.48L254.60,479.33L259.85,480.04L261.84,482.11ZM263.65,497.15L263.91,498.24L263.24,498.48L262.92,497.17L263.65,497.15ZM264.18,495.82L264.76,495.70L262.81,496.10L261.92,493.71L263.50,492.79L262.88,494.81L264.18,495.82Z"><title>Östergötland</title></path>
<path data-code="SE-H" data-name="Kalmar" d="M259.83,511.52L261.86,514.90L260.69,514.28L261.34,516.64L259.74,514.73L259.48,515.98L258.20,515.83L258.06,514.28L258.93,514.62L256.18,511.09L255.95,512.39L257.77,513.97L257.49,515.50L255.01,515.83L260.10,522.71L254.14,515.83L260.42,524.58L257.49,524.27L258.40,526.23L257.62,526.44L258.63,527.94L257.19,529.59L257.04,528.03L256.29,528.03L256.75,530.52L256.17,530.80L258.60,531.23L259.87,535.11L258.69,536.69L259.52,537.67L258.65,539.26L256.86,539.18L257.19,542.06L255.19,544.06L255.73,545.54L255.11,548.53L256.97,551.59L257.62,554.57L254.57,554.25L255.29,555.19L254.47,556.71L255.17,558.92L253.90,565.77L255.31,566.35L252.80,567.62L253.12,572.05L250.46,572.91L249.62,577.65L247.72,581.44L246.63,586.88L245.88,587.32L242.23,586.21L236.26,578.99L231.68,580.22L232.66,576.23L232.34,567.20L235.78,565.05L235.32,560.66L240.60,560.80L241.95,559.23L241.09,555.68L238.26,550.68L236.53,549.47L234.68,544.02L235.27,535.95L237.16,536.05L238.08,532.93L236.99,531.18L238.14,528.85L233.81,524.91L233.74,522.40L238.20,517.54L245.26,518.59L246.35,516.69L246.14,514.05L246.84,512.13L245.78,509.82L245.71,507.46L248.63,507.81L251.11,505.48L254.57,505.32L257.54,506.70L258.67,510.95L259.83,511.52ZM269.13,542.06L267.38,544.26L267.89,546.28L267.54,548.03L265.65,553.73L264.33,554.88L265.08,555.81L263.75,558.02L264.00,560.43L263.12,563.72L261.57,565.87L259.74,575.14L258.76,576.68L256.73,588.24L255.66,591.27L254.33,592.26L253.54,581.28L254.14,575.50L258.42,562.43L260.77,560.99L264.11,551.22L264.57,547.40L265.62,546.10L265.77,542.73L267.65,540.28L269.13,542.06Z"><title>Kalmar</title></path>
<path data-code="SE-K" data-name="Blekinge" d="M246.63,586.88L246.03,590.57L242.07,598.25L240.73,597.34L241.53,594.93L239.50,595.03L237.74,593.32L236.55,594.87L236.43,592.67L234.16,595.27L232.55,594.00L231.73,595.76L230.23,595.47L230.82,595.19L230.23,593.61L228.05,595.22L225.93,594.85L225.56,593.61L224.69,593.92L225.00,595.19L222.96,594.31L220.35,595.69L218.11,594.55L217.20,596.85L219.02,600.79L217.91,602.08L215.70,601.68L215.52,599.55L214.46,599.73L214.95,593.06L214.37,591.44L212.49,590.54L211.42,586.79L214.19,580.43L218.11,583.87L221.70,584.95L224.02,581.63L228.54,582.00L232.40,579.37L235.90,578.93L242.23,586.21L246.63,586.88ZM238.95,596.89L239.41,596.80L238.77,598.81L237.61,597.42L238.95,596.89Z"><title>Blekinge</title></path>
<path data-code="SE-M" data-name="Skåne" d="M214.46,599.73L210.06,604.32L207.13,610.34L206.86,614.70L210.51,622.91L206.54,629.96L200.51,627.95L194.82,628.71L189.54,632.00L180.99,629.39L177.87,630.33L178.44,627.95L179.93,628.68L181.12,627.36L179.67,622.83L182.24,618.82L182.59,616.14L179.78,613.61L179.86,609.76L177.63,607.36L176.16,602.35L169.76,588.32L175.15,592.05L177.48,591.43L177.80,589.50L173.38,583.08L175.34,580.89L177.88,582.02L179.53,580.57L181.11,582.39L181.11,585.00L185.85,586.79L190.37,582.81L202.55,580.35L204.71,577.52L208.60,578.31L214.19,580.43L211.42,586.79L212.49,590.54L214.37,591.44L214.95,593.06L214.46,599.73Z"><title>Skåne</title></path>
<path data-code="SE-N" data-name="Halland" d="M179.53,580.57L180.03,577.26L178.70,572.59L175.72,572.70L173.26,568.00L172.89,564.77L167.74,560.08L167.42,555.97L164.81,552.39L165.22,551.69L164.36,548.19L163.33,548.03L164.23,546.92L162.32,545.82L163.49,545.54L162.19,545.20L163.23,542.48L161.22,540.61L162.48,538.64L161.45,538.64L162.12,537.86L161.42,535.70L160.30,536.82L159.72,540.81L158.11,538.64L158.19,535.40L158.99,534.28L158.25,533.66L158.70,533.32L158.11,532.72L158.31,530.04L161.64,530.52L166.58,528.52L167.22,530.00L167.33,534.24L169.00,536.74L168.56,539.74L169.66,543.16L171.11,543.03L172.81,540.63L174.79,540.95L176.54,543.11L180.40,544.03L180.10,547.10L183.91,549.46L183.34,551.60L184.46,554.83L186.63,552.01L190.20,551.13L193.67,553.10L194.33,555.64L196.18,557.37L195.06,560.59L188.92,562.64L188.26,564.27L187.98,570.20L190.75,575.81L191.13,580.59L192.09,582.87L189.74,583.09L185.52,586.75L181.11,585.00L181.11,582.39L179.53,580.57Z"><title>Halland</title></path>
<path data-code="SE-I" data-name="Gotland" d="M309.87,517.05L310.82,518.97L308.73,519.81L308.62,521.49L307.92,520.94L307.76,523.36L304.91,523.14L304.01,528.04L304.98,528.93L303.94,533.47L304.19,535.09L307.07,536.60L307.44,538.72L304.79,539.46L302.22,542.46L302.07,543.96L302.87,544.11L302.93,545.54L296.39,550.09L295.95,550.80L297.41,550.80L295.40,552.23L294.93,555.19L296.26,556.43L295.08,556.43L294.37,558.98L290.70,560.17L293.92,552.39L292.02,553.63L292.60,550.52L291.69,550.01L291.15,546.14L289.86,544.81L291.56,539.31L290.16,534.37L290.47,531.63L294.66,525.96L297.59,520.00L300.69,518.49L302.16,514.96L303.54,514.77L304.83,518.97L305.85,514.90L307.17,514.62L307.25,516.13L308.92,515.04L309.87,517.05ZM314.82,512.10L316.21,512.69L312.46,514.41L311.77,518.01L309.79,515.35L311.10,512.10L314.82,512.10ZM316.07,494.28L314.33,495.41L313.00,493.03L316.07,494.28Z"><title>Gotland</title></path>
<path data-code="SE-U" data-name="Västmanland" d="M265.77,441.20L251.32,444.77L251.07,446.10L251.97,447.30L251.57,448.00L245.32,449.11L243.09,454.41L240.51,456.05L241.05,454.69L237.29,451.89L237.92,449.65L237.53,447.07L239.95,445.37L239.21,443.05L239.68,440.85L238.39,440.49L237.58,436.85L235.83,436.38L236.17,430.78L234.05,427.86L233.63,425.20L235.33,421.12L239.03,420.61L239.02,416.32L239.90,413.18L241.29,411.76L246.36,411.60L248.49,413.07L248.99,415.45L252.02,416.34L254.78,415.34L257.00,411.87L264.69,408.68L265.75,406.40L271.29,405.76L274.75,408.93L273.03,416.34L270.01,420.01L270.97,421.87L270.32,425.13L267.55,427.21L263.48,425.14L263.35,427.44L262.05,428.68L265.77,441.20Z"><title>Västmanland</title></path>
<path data-code="SE-F" data-name="Jönköping" d="M183.91,549.46L188.13,542.16L192.68,537.31L195.94,530.85L197.73,521.03L197.39,517.73L203.08,518.84L203.75,517.07L207.20,514.86L208.01,513.17L207.73,510.96L211.81,500.81L213.03,504.02L215.40,505.93L221.30,506.60L223.95,504.02L226.13,510.36L224.92,511.36L224.48,514.95L227.22,522.87L233.38,524.18L238.14,528.85L236.99,531.18L238.05,532.47L237.34,535.58L235.68,535.26L235.17,536.55L235.17,540.88L234.49,542.86L235.67,546.98L227.46,545.58L227.67,547.63L223.61,549.77L219.05,546.23L211.29,549.50L210.22,555.13L211.05,558.65L209.51,561.69L207.87,560.79L206.34,556.33L204.08,554.32L199.76,556.51L197.63,555.10L196.18,557.37L194.33,555.64L193.67,553.10L189.82,551.12L186.63,552.01L184.46,554.83L183.34,551.60L183.91,549.46Z"><title>Jönköping</title></path>
<path data-code="SE-T" data-name="Orebro" d="M212.81,439.81L211.80,424.13L210.19,421.72L212.39,419.79L212.28,418.21L219.10,418.85L219.05,415.39L220.74,414.40L222.41,416.43L229.03,419.16L233.63,425.20L234.05,427.86L235.43,428.69L236.27,431.68L235.83,436.38L237.58,436.85L238.39,440.49L239.68,440.85L239.21,443.05L239.95,445.37L237.53,447.07L237.92,449.65L237.29,451.89L241.05,454.69L240.36,456.49L241.16,459.57L237.65,463.36L239.34,466.16L236.78,467.40L236.01,470.69L232.47,472.68L229.89,472.50L224.20,479.16L219.95,481.61L217.05,477.21L215.22,478.71L213.25,477.55L209.34,464.71L209.71,451.76L212.64,443.93L211.82,440.80L212.81,439.81Z"><title>Orebro</title></path>
<path data-code="SE-G" data-name="Kronoberg" d="M192.09,582.87L191.13,580.59L190.75,575.81L187.98,570.20L188.26,564.27L188.92,562.64L195.06,560.59L197.63,555.10L199.76,556.51L204.08,554.32L206.34,556.33L207.87,560.79L209.51,561.69L211.05,558.65L210.22,555.13L211.29,549.50L219.89,546.23L223.97,549.71L227.67,547.63L227.46,545.58L231.83,545.73L236.21,547.53L236.53,549.47L238.26,550.68L241.95,558.52L240.60,560.80L235.32,560.66L235.78,565.05L232.34,567.20L232.66,576.23L231.24,580.80L224.02,581.63L222.85,584.02L221.18,584.91L214.19,580.43L205.01,577.48L202.55,580.35L192.09,582.87Z"><title>Kronoberg</title></path>
  </g>
</svg>
