<?xml version="1.0" encoding="UTF-8"?>
<svg xmlns="http://www.w3.org/2000/svg" viewBox="0 0 560 640" class="pref-muni-svg" role="img" aria-label="行政区分">
  <g class="pref-muni-svg__paths" fill="#eaf2fb" stroke="#5b7fa8" stroke-width="0.6" stroke-linejoin="round">
<path data-code="CH-VS" data-name="Valais" d="M236.50,473.51L235.79,477.12L234.28,477.96L222.32,475.15L219.21,475.97L211.58,468.82L199.30,465.68L197.28,466.75L194.78,470.51L188.66,472.42L181.54,477.74L177.67,479.12L168.61,478.14L156.20,483.95L144.92,483.94L136.70,476.06L132.55,464.10L123.80,454.32L121.06,453.09L118.27,455.12L116.06,454.14L115.78,447.90L118.27,443.09L116.43,441.28L106.83,439.13L105.78,436.17L106.89,430.14L113.26,415.41L103.94,402.01L107.76,396.20L108.49,391.52L116.51,392.81L117.95,391.93L121.32,396.85L121.32,401.56L125.72,403.98L126.82,408.69L139.45,429.43L148.04,424.16L154.57,417.60L157.67,412.68L157.97,408.47L165.71,401.98L167.31,398.75L171.94,397.41L172.35,400.88L173.79,401.47L178.33,399.94L182.79,396.18L195.49,396.69L201.56,393.25L199.28,391.41L206.13,388.42L209.34,384.77L221.24,388.85L235.93,378.08L242.80,377.33L250.55,372.02L251.37,370.63L250.43,367.75L255.00,364.67L268.40,366.48L275.55,369.00L276.87,370.95L286.76,368.59L296.73,361.84L300.40,350.46L302.70,347.56L305.00,347.84L305.43,350.58L303.78,358.37L304.27,360.48L307.38,366.57L312.15,369.18L308.61,373.99L302.38,376.40L301.17,383.56L296.05,384.67L290.20,389.23L289.19,391.46L290.45,392.82L289.78,396.22L283.79,400.49L277.85,408.41L267.52,412.57L265.17,415.00L263.45,418.20L266.69,421.37L270.25,428.34L270.59,434.81L267.97,440.52L262.70,445.16L257.69,446.83L255.92,457.65L252.93,463.01L242.36,466.07L239.31,470.04L238.98,473.39L236.50,473.51Z"><title>Valais</title></path>
<path data-code="CH-TI" data-name="Ticino" d="M342.54,443.82L336.33,446.01L327.21,441.25L316.17,426.26L307.47,421.41L305.67,414.29L308.04,400.62L308.39,390.23L307.89,386.25L306.23,383.83L301.17,383.56L302.38,376.40L308.61,373.99L316.12,365.83L317.80,360.96L319.41,359.89L331.37,362.25L336.38,360.06L340.40,361.92L349.71,362.78L362.94,359.06L364.36,357.61L363.89,355.70L364.95,353.58L369.56,351.47L370.98,354.55L377.89,356.31L379.87,358.80L377.06,368.89L377.81,372.28L381.08,378.16L384.55,377.90L385.93,380.53L385.67,384.94L387.01,389.56L385.84,393.48L385.97,398.81L383.69,403.54L383.78,407.00L382.23,411.80L384.45,416.79L384.21,420.59L385.78,424.02L394.98,432.41L386.15,438.54L383.92,441.94L383.71,448.18L382.36,452.00L375.48,455.96L374.96,457.96L377.10,464.10L372.87,469.16L376.53,475.81L381.46,477.77L382.83,480.69L382.37,483.69L379.37,489.65L375.52,494.48L367.94,491.99L363.17,493.47L364.82,486.48L364.62,483.43L359.66,472.21L351.15,466.67L347.24,465.87L355.25,451.19L352.19,447.07L344.73,446.24L342.54,443.82Z"><title>Ticino</title></path>
<path data-code="CH-GR" data-name="Graubünden" d="M402.34,422.15L397.09,426.93L394.98,432.41L385.78,424.02L384.43,421.52L384.45,416.79L382.10,410.21L383.57,407.86L383.69,403.54L385.97,398.81L385.84,393.48L387.01,389.56L385.67,384.94L385.93,380.53L384.55,377.90L381.08,378.16L377.81,372.28L377.06,368.89L379.47,357.84L375.08,354.96L370.98,354.55L368.89,351.51L364.95,353.58L363.89,355.70L364.09,358.20L356.82,361.53L349.71,362.78L340.40,361.92L336.38,360.06L335.84,354.09L333.50,351.34L335.32,341.95L340.93,338.68L344.93,333.73L351.56,332.99L352.02,330.18L354.10,327.11L354.19,323.55L359.75,319.21L364.09,319.89L364.60,321.53L366.21,321.83L375.60,318.47L378.20,315.69L380.05,309.70L381.14,308.89L389.10,310.66L393.21,307.83L398.86,306.57L404.27,300.72L406.61,303.09L423.92,305.15L428.97,307.35L432.43,302.60L434.66,294.93L437.19,290.92L439.37,289.62L435.02,282.01L432.75,275.43L442.83,277.46L455.91,276.79L478.69,283.96L478.49,285.97L480.21,286.89L479.23,297.30L480.76,299.48L483.75,301.77L496.65,305.94L501.31,310.38L509.24,313.63L514.85,312.83L520.11,310.15L524.17,300.20L531.47,300.31L531.54,297.02L533.64,292.98L540.18,287.48L542.17,287.89L545.93,293.31L551.10,297.86L551.75,300.83L550.26,306.82L549.91,316.25L546.13,322.13L547.51,329.74L544.01,333.28L543.38,339.40L540.33,344.41L541.34,347.78L543.52,350.33L548.66,350.89L551.18,353.02L552.00,360.96L549.36,368.14L531.44,365.79L529.09,363.24L524.12,361.52L524.01,354.00L522.09,352.41L518.98,352.44L506.41,356.39L504.40,363.44L499.77,368.98L499.20,377.62L501.12,380.60L498.99,384.26L500.89,386.64L511.90,389.94L512.79,391.90L511.88,395.74L507.57,400.93L506.88,404.93L514.98,416.64L513.40,420.01L504.95,424.12L500.96,424.04L500.86,420.06L499.64,417.06L493.11,410.36L491.48,400.14L485.98,397.49L478.38,398.23L467.85,403.22L462.06,401.06L460.75,402.56L460.66,407.96L456.54,411.47L439.92,410.27L435.83,406.37L433.42,400.02L428.81,396.76L427.64,375.08L421.61,380.70L417.62,377.35L417.53,375.16L415.14,374.52L409.27,375.25L404.87,381.65L403.92,385.97L406.69,389.47L406.63,395.98L408.41,404.50L402.34,422.15Z"><title>Graubünden</title></path>
<path data-code="CH-SH" data-name="Schaffhausen" d="M321.95,145.52L327.18,146.68L327.91,152.38L329.09,153.25L330.59,152.28L331.21,148.44L332.31,147.31L333.86,147.82L336.87,153.00L340.63,153.23L341.43,155.01L339.10,159.21L341.11,164.31L347.47,164.22L346.49,163.13L347.57,159.67L350.81,159.82L357.87,164.99L355.65,165.50L357.37,168.41L351.14,166.56L348.42,171.19L344.91,172.84L339.99,172.65L336.83,169.64L337.02,164.14L331.81,164.00L326.21,170.72L323.16,169.88L317.30,170.86L312.04,173.85L309.90,173.94L301.82,169.43L302.59,167.53L301.92,163.43L307.44,159.26L310.54,152.09L321.15,149.38L320.03,146.61L321.95,145.52ZM322.25,182.84L324.13,181.85L321.67,187.89L318.47,185.30L321.17,181.52L322.25,182.84Z"><title>Schaffhausen</title></path>
<path data-code="CH-TG" data-name="Thurgau" d="M357.37,168.41L363.91,171.84L373.02,170.02L377.22,167.07L397.34,168.56L398.97,171.08L408.17,172.14L441.25,192.50L441.92,195.61L430.66,199.23L429.01,198.56L429.31,196.44L428.09,195.64L421.11,201.86L416.58,197.27L416.75,194.11L415.63,192.34L407.54,194.94L407.80,195.91L411.38,195.81L412.00,198.45L410.17,201.51L406.07,202.57L399.24,201.24L393.49,197.25L391.84,199.87L388.89,200.73L378.56,199.35L375.27,201.79L375.64,203.25L378.99,205.62L378.88,209.07L373.92,210.31L369.28,218.34L367.07,219.74L362.26,214.70L364.54,209.79L362.37,208.09L361.79,204.48L360.07,202.20L361.42,199.98L361.78,193.62L356.14,190.81L354.96,188.41L355.75,186.92L354.42,185.26L345.29,181.05L343.79,179.10L345.60,177.44L350.30,179.64L352.10,177.11L353.72,173.72L351.71,169.09L349.72,169.94L351.14,166.56L357.37,168.41Z"><title>Thurgau</title></path>
<path data-code="CH-ZH" data-name="Zürich" d="M327.18,175.23L327.87,171.05L326.21,170.72L331.81,164.00L337.02,164.14L336.83,169.64L339.99,172.65L344.91,172.84L351.71,169.09L353.72,173.72L350.30,179.64L345.60,177.44L343.79,179.10L345.29,181.05L354.42,185.26L355.75,186.92L354.96,188.41L355.43,189.99L362.09,194.20L361.42,199.98L360.07,202.20L361.79,204.48L362.37,208.09L364.54,209.79L362.26,214.70L367.59,220.51L370.46,225.64L371.50,230.79L367.93,234.88L366.79,238.26L358.55,242.55L352.02,242.00L349.80,243.74L348.13,247.82L342.91,248.88L337.02,252.95L336.03,254.81L337.05,257.55L330.80,256.35L323.47,248.40L318.73,247.61L311.81,249.08L304.79,246.76L300.75,236.28L304.66,234.56L308.37,228.05L304.79,229.17L303.11,226.97L303.30,222.81L299.35,220.03L303.30,214.37L297.79,203.21L297.16,200.77L297.81,195.62L305.41,184.30L308.76,183.74L310.32,179.89L314.01,177.47L317.62,177.11L319.48,178.83L321.17,181.52L318.47,185.30L321.67,187.89L324.65,180.94L324.62,174.10L326.21,173.47L327.18,175.23Z"><title>Zürich</title></path>
<path data-code="CH-AG" data-name="Aargau" d="M284.91,177.09L289.43,178.18L292.76,183.11L305.41,184.30L297.81,195.62L297.16,200.77L303.30,214.37L299.35,220.03L303.30,222.81L303.11,226.97L304.79,229.17L308.37,228.05L304.66,234.56L300.75,236.28L303.76,243.43L302.03,248.01L303.54,261.61L300.04,261.47L297.01,259.07L289.43,239.45L286.06,236.95L284.02,237.16L278.73,245.79L276.76,247.24L273.85,246.17L273.27,244.69L273.98,243.89L267.20,242.54L265.40,240.66L257.10,243.87L254.40,238.58L252.55,237.81L249.27,238.17L249.27,242.15L248.45,243.24L235.26,245.84L233.69,243.16L233.28,239.30L237.45,231.95L242.80,227.08L252.42,228.85L254.25,227.75L258.14,219.88L258.01,216.54L254.27,214.46L252.38,210.72L252.12,207.63L247.69,205.05L247.42,201.48L242.63,200.27L236.47,190.60L234.03,190.22L233.09,193.36L228.43,196.33L227.83,192.84L221.75,189.70L228.77,187.45L232.88,181.79L242.36,183.11L244.04,187.92L259.73,187.92L265.15,186.72L268.37,183.11L276.22,178.18L284.91,177.09Z"><title>Aargau</title></path>
<path data-code="CH-BS" data-name="Basel-Stadt" d="M213.59,181.57L210.72,187.21L207.57,187.18L212.05,189.52L211.27,193.36L207.81,190.83L205.05,192.44L196.85,187.42L204.71,183.68L213.59,181.57Z"><title>Basel-Stadt</title></path>
<path data-code="CH-BL" data-name="Basel-Landschaft" d="M216.46,190.79L221.75,189.70L227.83,192.84L228.43,196.33L233.09,193.36L234.03,190.22L236.47,190.60L242.63,200.27L247.42,201.48L247.69,205.05L249.20,206.04L247.98,209.06L249.05,212.28L246.06,214.84L240.41,215.79L239.02,218.91L231.16,222.62L228.84,227.04L220.12,222.16L211.85,221.11L210.97,215.07L215.50,213.65L216.51,212.41L217.05,208.16L220.07,204.34L214.15,200.07L212.40,201.51L208.15,201.39L207.38,203.37L209.60,205.32L208.22,209.21L203.35,211.21L203.50,213.84L198.96,214.51L196.30,217.91L190.27,216.59L185.45,219.85L183.63,216.51L180.38,213.90L187.15,213.64L188.93,212.43L187.80,209.36L184.76,207.25L185.81,204.74L184.00,200.32L187.82,200.90L188.81,207.04L198.43,205.49L197.83,199.66L192.62,198.81L191.39,196.52L194.47,195.54L194.96,192.77L192.25,191.14L196.85,187.42L205.05,192.44L207.81,190.83L211.27,193.36L212.05,189.52L216.46,190.79ZM179.69,210.81L180.86,210.34L180.38,213.90L174.67,210.60L179.69,210.81Z"><title>Basel-Landschaft</title></path>
<path data-code="CH-SG" data-name="Sankt Gallen" d="M441.92,195.61L445.71,201.99L453.65,207.03L453.55,214.50L447.71,223.03L446.06,228.93L436.08,243.74L434.00,249.68L433.71,255.62L436.95,263.89L437.01,267.65L432.61,273.79L432.77,276.12L439.37,289.62L437.19,290.92L434.66,294.93L432.43,302.60L428.97,307.35L423.92,305.15L406.61,303.09L404.27,300.72L402.98,294.10L403.90,288.04L401.60,281.98L399.63,279.90L394.26,281.18L391.17,279.34L395.65,276.00L396.92,265.15L384.23,262.68L376.07,255.91L373.43,256.92L369.43,252.21L369.84,249.00L366.08,247.85L354.72,248.98L348.13,247.82L349.80,243.74L352.02,242.00L358.55,242.55L365.66,239.27L371.13,231.47L370.46,225.64L367.07,219.74L369.28,218.34L373.92,210.31L378.88,209.07L378.99,205.62L375.64,203.25L375.27,201.79L378.56,199.35L388.89,200.73L391.84,199.87L393.49,197.25L399.24,201.24L406.07,202.57L410.17,201.51L412.00,198.45L411.38,195.81L407.80,195.91L407.54,194.94L415.63,192.34L416.75,194.11L416.58,197.27L421.11,201.86L428.09,195.64L429.31,196.44L429.01,198.56L430.66,199.23L441.92,195.61ZM434.10,224.42L433.27,221.76L433.91,217.33L438.70,215.84L440.40,216.70L445.55,213.52L445.55,210.61L448.60,207.44L438.21,204.21L435.03,206.83L426.56,210.23L424.59,214.12L410.71,216.35L402.48,216.15L397.66,223.66L399.24,226.74L401.52,227.34L399.57,230.44L400.34,235.50L398.94,237.16L399.83,238.22L420.51,244.45L426.27,241.95L429.68,238.84L432.04,234.46L434.10,224.42Z"><title>Sankt Gallen</title></path>
<path data-code="CH-SO" data-name="Solothurn" d="M190.41,201.78L192.62,198.81L197.83,199.66L198.43,205.49L188.81,207.04L187.82,200.90L190.41,201.78ZM180.86,210.34L184.76,207.25L187.52,209.02L189.00,211.79L187.15,213.64L180.38,213.90L180.86,210.34ZM201.45,230.19L202.47,230.11L202.47,227.18L196.82,221.86L186.76,219.86L188.63,216.96L195.16,218.22L197.18,217.36L198.96,214.51L203.50,213.84L203.35,211.21L208.22,209.21L209.60,205.32L207.38,203.37L208.15,201.39L212.40,201.51L213.18,200.01L220.07,204.34L217.05,208.16L216.51,212.41L215.50,213.65L210.97,215.07L211.17,218.88L212.88,221.84L220.12,222.16L228.84,227.04L231.16,222.62L239.02,218.91L240.41,215.79L246.06,214.84L248.34,213.19L249.05,212.28L247.98,209.06L249.20,206.04L252.12,207.63L252.38,210.72L254.27,214.46L258.01,216.54L258.14,219.88L254.25,227.75L252.42,228.85L242.80,227.08L237.45,231.95L233.28,239.30L222.29,240.61L216.81,234.85L212.45,236.79L204.40,237.78L206.13,239.84L206.74,243.12L213.12,249.66L215.46,254.18L215.16,256.31L210.91,259.81L205.35,259.64L200.77,257.62L195.92,263.86L190.55,267.41L191.38,270.57L190.09,272.64L187.86,273.39L186.72,269.42L180.86,269.73L179.44,265.55L185.90,265.33L186.81,264.79L187.64,260.29L191.52,259.53L193.25,257.69L191.88,256.14L191.43,253.05L187.04,254.78L183.39,258.23L181.39,258.28L180.04,254.21L177.17,252.47L176.11,248.53L185.14,244.49L184.83,243.25L187.37,241.09L199.50,234.18L201.45,230.19Z"><title>Solothurn</title></path>
<path data-code="CH-JU" data-name="Jura" d="M135.22,198.72L140.54,200.28L146.55,199.25L155.85,200.66L153.65,205.66L154.34,208.53L162.75,213.25L168.12,211.12L174.67,210.60L183.63,216.51L185.45,219.85L197.83,222.60L200.90,226.07L198.94,227.89L198.75,229.62L201.45,230.19L193.92,232.66L180.73,231.61L178.54,229.48L172.54,234.76L167.60,236.25L155.13,234.34L154.81,237.57L152.89,239.52L152.70,243.08L142.22,243.99L138.89,249.80L133.26,254.21L129.27,254.35L121.26,259.50L119.24,257.85L114.51,257.06L120.58,249.46L128.77,243.48L128.28,239.11L129.05,235.49L138.45,228.63L139.38,226.69L134.52,221.82L117.96,224.28L120.05,219.28L124.94,215.15L125.13,211.83L132.04,208.49L132.95,207.01L130.82,200.51L135.22,198.72Z"><title>Jura</title></path>
<path data-code="CH-GE" data-name="Genève" d="M20.91,420.40L24.79,418.30L25.60,409.78L27.75,404.43L34.45,410.02L39.57,408.35L42.10,415.68L43.87,417.09L46.74,416.53L47.36,420.59L36.53,429.11L30.37,436.42L26.46,438.46L22.36,436.60L16.86,436.82L8.49,439.90L11.39,432.79L8.00,427.66L8.45,425.54L18.62,420.06L20.91,420.40Z"><title>Genève</title></path>
<path data-code="CH-VD" data-name="Vaud" d="M27.75,404.43L29.90,399.57L29.74,397.62L26.50,393.02L19.99,388.99L21.60,386.49L21.19,379.88L31.02,365.69L28.10,362.40L27.73,360.08L45.57,343.01L54.20,338.24L58.58,333.63L63.85,330.54L65.67,327.37L65.62,324.40L63.75,321.55L66.89,312.86L76.37,311.97L88.78,305.66L100.94,297.44L101.05,301.31L103.37,304.99L106.42,318.56L109.68,321.87L109.14,323.62L114.21,325.41L124.22,324.36L125.61,321.06L123.34,320.44L125.59,312.16L122.10,310.14L124.88,309.28L118.98,303.05L122.87,299.82L130.00,309.12L132.17,307.59L132.57,313.18L134.21,314.11L130.82,318.55L130.34,322.79L126.62,328.05L124.56,328.87L127.25,330.85L126.80,332.32L119.11,343.32L118.63,345.84L111.03,348.12L110.77,360.57L117.14,360.15L120.44,362.62L122.55,362.59L117.95,368.26L113.31,367.23L112.28,369.33L114.49,373.67L117.69,373.88L121.36,370.77L124.30,371.45L130.99,376.47L134.08,384.57L136.89,383.19L141.25,377.45L147.50,375.52L152.76,369.92L159.68,367.80L163.29,364.91L164.65,367.98L164.50,372.56L162.26,377.25L162.39,381.37L158.54,385.85L159.57,390.78L158.20,395.11L162.17,398.72L161.51,404.49L157.97,408.47L157.67,412.68L154.57,417.60L148.04,424.16L139.45,429.43L126.82,408.69L125.72,403.98L121.32,401.56L121.32,396.85L117.95,391.93L116.51,392.81L108.49,391.52L107.24,388.16L105.42,387.25L87.45,382.56L79.42,382.30L71.69,383.85L61.41,390.97L49.82,393.38L45.90,396.81L39.92,404.90L39.57,408.35L34.45,410.02L27.75,404.43ZM106.64,336.23L108.93,333.75L108.33,330.40L104.64,333.31L106.64,336.23ZM117.50,334.77L119.30,333.46L120.60,330.40L117.11,326.61L112.92,332.15L109.63,334.19L111.72,334.77L114.01,333.17L117.50,334.77ZM136.59,288.51L141.57,290.53L142.87,297.74L146.94,304.16L145.52,305.79L144.22,305.19L142.18,310.34L139.04,312.70L137.03,308.48L127.51,295.99L136.59,288.51Z"><title>Vaud</title></path>
<path data-code="CH-NE" data-name="Neuchâtel" d="M66.89,312.86L67.53,309.32L65.03,302.71L66.83,296.53L72.67,293.14L85.65,289.06L93.69,282.94L96.45,278.96L95.00,275.69L96.62,272.89L103.41,268.37L103.26,265.36L106.88,264.10L114.51,257.06L118.42,258.95L120.51,262.33L120.79,265.13L119.24,270.88L138.76,264.95L138.84,267.37L145.40,271.35L144.60,272.38L145.03,276.72L139.32,280.36L136.59,288.51L105.83,313.95L103.61,308.79L103.37,304.99L101.05,301.31L100.94,297.44L88.78,305.66L76.37,311.97L66.89,312.86Z"><title>Neuchâtel</title></path>
<path data-code="CH-BE" data-name="Bern" d="M200.90,226.07L202.47,227.18L202.47,230.11L198.75,229.62L198.94,227.89L200.90,226.07ZM308.44,327.35L307.29,330.63L308.89,337.12L308.67,340.47L303.07,341.54L304.01,347.36L300.40,350.46L297.35,360.96L286.76,368.59L276.87,370.95L275.55,369.00L268.40,366.48L255.00,364.67L250.43,367.75L251.37,370.63L250.55,372.02L242.80,377.33L235.93,378.08L221.24,388.85L209.34,384.77L206.13,388.42L199.28,391.41L201.56,393.25L195.49,396.69L182.79,396.18L178.33,399.94L173.79,401.47L172.35,400.88L172.28,397.80L171.22,397.41L166.90,398.99L165.71,401.98L161.51,404.49L162.17,398.72L158.20,395.11L159.57,390.78L158.54,385.85L161.96,382.57L162.26,377.25L164.50,372.56L164.65,367.98L163.29,364.91L168.17,360.56L172.52,359.34L172.59,350.19L173.92,348.65L178.13,349.12L179.63,347.37L180.19,341.17L171.75,335.54L170.75,331.06L171.11,323.66L172.52,317.82L172.01,312.08L175.10,312.58L176.93,311.25L176.93,305.85L158.88,303.22L160.09,299.09L158.60,293.02L162.56,289.22L161.20,286.26L151.26,289.56L141.57,290.53L136.59,288.51L139.32,280.36L145.03,276.72L144.94,270.59L138.84,267.37L138.76,264.95L119.24,270.88L120.79,263.25L118.42,258.95L115.93,257.60L122.20,259.25L129.27,254.35L133.26,254.21L137.61,251.07L142.22,243.99L152.70,243.08L152.89,239.52L154.81,237.57L155.13,234.34L167.60,236.25L172.54,234.76L178.54,229.48L180.73,231.61L193.92,232.66L201.13,230.63L199.50,234.18L193.59,236.73L184.83,243.25L185.14,244.49L175.79,249.37L177.55,252.94L180.04,254.21L181.11,258.07L182.13,258.45L191.43,253.05L191.88,256.14L193.25,257.69L192.84,258.62L187.64,260.29L186.81,264.79L185.90,265.33L179.25,266.32L181.98,270.52L186.72,269.42L187.86,273.39L191.28,271.58L190.96,266.90L195.92,263.86L200.77,257.62L205.35,259.64L210.91,259.81L215.48,255.73L213.12,249.66L206.74,243.12L206.13,239.84L204.40,237.78L212.45,236.79L216.81,234.85L222.29,240.61L233.28,239.30L233.69,243.16L239.96,256.95L241.02,264.08L239.45,268.82L239.36,278.21L241.85,281.82L242.28,284.66L248.90,286.21L245.96,296.17L243.92,298.75L239.64,300.01L239.58,305.23L237.86,308.20L239.02,313.06L252.62,325.86L257.45,323.82L263.72,324.19L273.70,329.15L278.59,327.63L288.40,329.19L299.03,323.78L303.00,327.27L308.44,327.35Z"><title>Bern</title></path>
<path data-code="CH-LU" data-name="Lucerne" d="M303.54,261.61L307.98,266.72L303.62,269.59L301.41,275.73L303.39,277.33L305.24,276.48L310.07,277.74L315.14,282.64L314.71,285.76L310.73,287.87L306.72,284.70L304.34,286.94L300.36,286.86L298.77,285.33L294.32,287.16L286.96,287.06L281.91,288.76L282.02,291.69L273.30,293.66L273.43,297.44L268.12,303.36L265.27,302.92L263.50,305.48L260.24,315.01L261.87,320.85L259.91,323.98L251.87,325.65L248.86,321.50L239.02,313.06L237.86,308.20L239.58,305.23L239.64,300.01L243.92,298.75L245.96,296.17L248.90,286.21L242.28,284.66L241.85,281.82L239.36,278.21L239.45,268.82L241.02,264.08L239.57,255.55L235.26,245.84L248.45,243.24L249.27,242.15L249.27,238.17L252.55,237.81L254.40,238.58L257.10,243.87L265.40,240.66L267.20,242.54L273.98,243.89L273.27,244.69L273.85,246.17L276.76,247.24L278.73,245.79L284.02,237.16L286.06,236.95L289.43,239.45L297.01,259.07L300.04,261.47L303.54,261.61Z"><title>Lucerne</title></path>
<path data-code="CH-ZG" data-name="Zug" d="M307.98,266.72L303.54,261.61L302.03,248.01L303.76,243.43L304.79,246.76L310.39,248.84L318.73,247.61L323.47,248.40L330.80,256.35L339.28,259.09L332.84,268.04L325.51,271.01L323.02,271.30L320.87,269.83L314.66,270.37L312.56,265.63L310.45,265.20L307.98,266.72Z"><title>Zug</title></path>
<path data-code="CH-UR" data-name="Uri" d="M325.90,288.59L326.97,289.13L328.09,293.81L337.52,296.27L339.34,300.01L346.43,297.05L353.22,298.47L356.52,306.03L366.82,300.40L368.66,303.84L368.98,307.75L359.77,313.84L359.75,319.21L354.19,323.55L354.10,327.11L352.02,330.18L351.56,332.99L344.93,333.73L340.93,338.68L335.75,341.22L333.35,350.34L335.84,354.09L336.38,360.06L331.37,362.25L318.51,360.15L316.12,365.83L312.15,369.18L307.38,366.57L304.27,360.48L303.78,358.37L305.48,349.07L304.01,347.36L303.07,341.54L308.67,340.47L308.99,337.85L307.42,329.79L308.44,327.35L312.35,326.15L312.73,324.42L311.38,321.29L314.94,313.54L311.62,312.11L311.17,306.16L310.03,303.47L320.36,296.69L322.37,288.78L325.90,288.59Z"><title>Uri</title></path>
<path data-code="CH-SZ" data-name="Schwyz" d="M334.18,296.19L328.09,293.81L326.97,289.13L325.90,288.59L313.67,289.93L310.73,287.87L314.71,285.76L315.54,283.50L314.70,282.01L310.07,277.74L302.06,276.61L301.39,274.19L303.62,269.59L310.45,265.20L312.56,265.63L314.66,270.37L320.87,269.83L324.07,271.32L331.51,269.04L339.28,259.09L337.05,257.55L336.31,253.79L342.91,248.88L366.08,247.85L369.84,249.00L369.43,252.21L373.43,256.92L369.91,268.97L370.08,272.55L367.93,276.44L362.52,280.06L361.94,282.02L367.01,288.45L367.25,290.79L370.23,293.51L369.39,299.09L356.52,306.03L353.22,298.47L346.43,297.05L340.05,300.26L337.52,296.27L334.18,296.19Z"><title>Schwyz</title></path>
<path data-code="CH-GL" data-name="Glarus" d="M366.82,300.40L369.39,299.09L370.23,293.51L367.25,290.79L367.01,288.45L361.94,282.02L362.52,280.06L367.93,276.44L370.08,272.55L369.91,268.97L373.43,256.92L376.07,255.91L384.23,262.68L396.92,265.15L395.65,276.00L391.17,279.34L394.26,281.18L399.63,279.90L401.60,281.98L403.90,288.04L402.98,294.10L404.27,300.72L398.86,306.57L393.21,307.83L389.10,310.66L384.32,308.82L380.33,309.28L378.20,315.69L375.60,318.47L365.07,321.86L364.09,319.89L359.75,319.21L359.56,314.96L363.81,310.63L368.98,307.75L368.66,303.84L366.82,300.40Z"><title>Glarus</title></path>
<path data-code="CH-NW" data-name="Nidwalden" d="M310.73,287.87L313.67,289.93L322.37,288.78L322.55,289.85L319.86,297.27L310.03,303.47L311.17,306.16L311.62,312.11L305.77,312.33L303.50,310.03L299.98,311.67L300.09,309.92L298.52,309.21L299.59,318.30L305.58,324.89L301.86,326.31L296.52,322.28L294.04,318.84L294.84,301.93L289.81,297.84L291.73,292.45L286.42,290.32L282.02,291.69L281.44,290.34L281.91,288.76L284.90,287.49L294.32,287.16L298.77,285.33L300.36,286.86L304.34,286.94L306.72,284.70L308.43,285.05L310.73,287.87Z"><title>Nidwalden</title></path>
<path data-code="CH-FR" data-name="Fribourg" d="M160.07,285.95L161.53,286.67L162.56,289.22L158.60,293.02L160.09,299.09L158.88,303.22L176.93,305.85L176.93,311.25L175.10,312.58L172.01,312.08L172.52,317.82L171.11,323.66L170.75,331.06L171.75,335.54L180.19,341.17L179.63,347.37L178.13,349.12L174.44,348.25L172.59,350.19L173.04,355.36L171.98,360.10L168.17,360.56L159.68,367.80L152.76,369.92L147.50,375.52L141.25,377.45L136.89,383.19L134.08,384.57L130.99,376.47L124.30,371.45L121.36,370.77L117.69,373.88L114.49,373.67L112.28,369.33L113.31,367.23L117.95,368.26L122.55,362.59L120.44,362.62L117.14,360.15L110.77,360.57L111.03,348.12L118.63,345.84L119.11,343.32L126.80,332.32L127.25,330.85L124.56,328.87L126.62,328.05L130.34,322.79L130.82,318.55L134.21,314.11L132.57,313.18L132.17,307.59L130.00,309.12L122.87,299.82L127.51,295.99L137.03,308.48L139.04,312.70L142.18,310.34L144.22,305.19L145.52,305.79L146.94,304.16L142.87,297.74L141.57,290.53L151.26,289.56L160.07,285.95ZM118.98,303.05L124.88,309.28L122.10,310.14L125.59,312.16L123.34,320.44L125.61,321.06L124.22,324.36L114.21,325.41L109.14,323.62L109.68,321.87L106.85,319.84L105.83,313.95L118.98,303.05ZM108.33,330.40L108.93,333.75L106.04,335.93L104.94,332.44L108.33,330.40ZM117.11,326.61L120.60,330.40L119.30,333.46L117.50,334.77L114.01,333.17L109.93,334.91L117.11,326.61Z"><title>Fribourg</title></path>
<path data-code="CH-OW" data-name="Obwalden" d="M299.03,323.78L288.40,329.19L278.59,327.63L273.70,329.15L266.04,324.70L259.91,323.98L261.87,320.85L260.24,315.01L263.89,304.62L265.85,302.69L268.12,303.36L273.43,297.44L273.30,293.66L286.42,290.32L291.73,292.45L289.81,297.84L294.84,301.93L294.04,318.84L299.03,323.78ZM303.00,327.27L301.86,326.31L305.58,324.89L299.59,318.30L298.52,309.21L300.09,309.92L299.98,311.67L303.50,310.03L305.77,312.33L314.66,312.85L311.38,321.29L312.73,324.42L312.35,326.15L303.00,327.27Z"><title>Obwalden</title></path>
<path data-code="CH-AR" data-name="Appenzell Ausserrhoden" d="M433.91,217.33L433.27,221.76L434.10,224.42L430.23,224.30L417.41,218.32L416.64,219.06L416.55,222.55L412.48,228.04L411.74,233.20L415.20,242.09L412.41,242.61L407.45,239.63L401.44,238.84L398.94,237.16L400.34,235.50L399.57,230.44L401.52,227.34L399.24,226.74L397.66,223.66L402.48,216.15L410.71,216.35L424.59,214.12L426.56,210.23L435.03,206.83L438.21,204.21L448.60,207.44L441.36,208.94L445.34,211.91L445.55,213.52L440.40,216.70L440.68,212.16L438.40,210.37L436.87,211.62L436.94,213.99L434.26,215.35L433.91,217.33Z"><title>Appenzell Ausserrhoden</title></path>
<path data-code="CH-AI" data-name="Appenzell Innerrhoden" d="M448.60,207.44L445.34,211.91L441.36,209.66L448.60,207.44ZM434.10,224.42L432.04,234.46L429.68,238.84L423.92,243.16L420.51,244.45L416.79,243.24L415.20,242.09L411.96,234.72L412.07,229.07L415.91,224.22L417.41,218.32L430.23,224.30L434.10,224.42ZM440.40,216.70L438.70,215.84L433.91,217.33L434.26,215.35L437.21,213.62L436.87,211.62L438.87,210.26L440.68,212.16L440.40,216.70Z"><title>Appenzell Innerrhoden</title></path>
  </g>
</svg>
