<?xml version="1.0" encoding="UTF-8"?>
<svg xmlns="http://www.w3.org/2000/svg" viewBox="0 0 560 640" class="pref-muni-svg" role="img" aria-label="行政区分">
  <g class="pref-muni-svg__paths" fill="#eaf2fb" stroke="#5b7fa8" stroke-width="0.6" stroke-linejoin="round">
<path data-code="TH-32" data-name="Surin" d="M374.14,264.23L369.24,263.31L368.10,260.89L366.01,262.56L363.43,261.94L359.99,263.94L351.52,265.19L351.10,254.40L353.36,247.15L359.73,240.27L360.67,236.07L359.80,229.62L362.06,224.82L360.17,223.14L358.47,223.89L356.60,222.60L352.09,224.32L348.42,222.02L347.58,219.69L345.75,219.38L346.28,217.13L355.62,220.53L365.13,217.94L373.80,218.98L377.97,217.61L380.34,219.69L385.09,220.51L385.60,222.85L381.68,226.40L381.46,230.54L383.21,236.36L379.17,243.43L382.58,245.73L382.93,248.85L385.14,252.02L384.46,264.54L379.30,264.24L377.87,265.25L374.14,264.23Z"><title>Surin</title></path>
<path data-code="TH-33" data-name="Si Sa Ket" d="M417.01,262.26L414.27,261.06L411.85,262.46L411.03,261.31L407.65,261.94L404.87,264.41L401.17,264.56L392.75,262.70L390.85,263.67L389.85,262.57L388.37,264.18L384.46,264.54L385.14,252.02L382.93,248.85L382.58,245.73L379.17,243.43L383.32,235.83L381.46,230.54L381.68,226.40L385.74,222.53L385.09,220.51L382.01,220.17L386.05,214.86L387.90,213.67L388.79,216.36L394.69,223.02L401.82,226.52L410.28,226.76L411.43,229.79L412.84,230.23L410.86,231.83L411.09,238.66L415.98,242.01L416.17,245.42L420.16,252.14L417.93,252.19L416.79,256.00L418.37,259.03L417.60,260.76L420.29,262.68L417.01,262.26Z"><title>Si Sa Ket</title></path>
<path data-code="TH-34" data-name="Ubon Ratchathani" d="M425.58,270.58L422.65,266.91L422.57,263.56L417.60,260.76L417.50,252.93L420.14,252.00L416.17,245.42L415.98,242.01L411.09,238.66L410.86,231.83L412.84,230.23L411.43,229.79L410.28,226.76L406.14,227.38L399.76,225.46L400.48,221.16L398.65,220.75L398.27,219.17L399.16,215.19L402.78,214.92L403.61,212.87L408.25,213.93L409.71,210.46L412.79,213.46L414.98,213.73L416.00,216.10L420.47,216.99L424.42,201.00L425.99,199.34L425.07,195.33L428.03,191.28L440.97,194.90L438.45,198.71L440.56,203.76L448.80,207.06L450.37,210.72L448.45,218.95L443.24,222.59L446.55,223.76L446.79,225.97L442.65,229.48L441.86,231.82L442.19,233.47L447.99,237.85L445.57,240.24L446.25,241.58L443.72,246.46L444.48,255.83L440.72,261.56L430.00,265.67L427.80,269.89L425.58,270.58Z"><title>Ubon Ratchathani</title></path>
<path data-code="TH-27" data-name="Sa Kaeo" d="M338.00,272.65L336.19,278.73L332.21,282.29L329.16,289.64L322.74,293.52L325.02,296.23L313.35,298.94L313.99,310.25L311.58,313.22L307.65,311.42L305.93,313.63L302.07,314.94L301.86,310.66L298.24,302.58L300.21,300.43L300.07,297.29L297.00,296.79L295.40,291.27L296.64,287.66L294.56,286.47L296.89,278.09L300.10,276.78L302.65,271.78L306.80,273.88L308.37,271.79L312.39,274.22L315.32,273.02L320.64,273.57L321.73,275.93L324.87,273.34L329.79,274.03L338.00,272.65Z"><title>Sa Kaeo</title></path>
<path data-code="TH-31" data-name="Buri Ram" d="M342.23,269.53L336.78,273.01L324.87,273.34L325.82,267.56L323.96,261.27L320.45,256.10L321.39,252.08L318.64,243.62L321.19,245.55L323.79,245.27L323.43,240.18L321.97,238.83L325.96,240.01L329.52,239.44L335.53,230.97L340.83,229.29L340.49,223.56L341.58,222.43L339.60,221.21L342.29,218.71L338.33,215.91L334.46,215.90L332.96,211.87L332.88,210.51L336.14,210.63L337.28,205.29L339.33,204.20L341.89,206.87L340.65,209.36L345.16,214.32L345.75,219.38L347.58,219.69L348.42,222.02L352.09,224.32L356.60,222.60L358.47,223.89L360.17,223.14L362.06,224.82L359.80,229.62L360.67,236.07L359.73,240.27L353.36,247.15L351.10,254.40L351.52,265.19L346.38,266.40L342.23,269.53Z"><title>Buri Ram</title></path>
<path data-code="TH-23" data-name="Trat" d="M331.88,362.00L337.99,373.76L337.98,378.80L337.15,373.59L332.38,367.99L331.96,363.39L326.42,357.48L327.31,357.18L325.35,354.56L323.36,356.14L324.39,361.81L321.18,358.26L312.24,355.35L311.28,351.68L314.28,350.93L315.85,347.42L314.13,344.97L314.01,340.41L315.41,338.91L317.40,340.04L316.71,335.59L318.74,333.13L320.81,332.44L320.45,336.02L324.64,338.18L331.76,345.51L330.04,348.66L328.90,356.36L331.88,362.00ZM323.64,376.19L325.36,377.18L325.04,382.28L322.24,380.53L323.27,374.00L323.64,376.19ZM316.89,362.06L318.59,365.26L316.04,363.76L315.92,365.11L312.40,364.94L312.56,361.49L310.72,357.43L314.55,358.67L316.89,362.06Z"><title>Trat</title></path>
<path data-code="TH-22" data-name="Chanthaburi" d="M320.60,321.94L319.56,324.80L320.81,332.44L316.79,335.41L317.40,340.04L315.41,338.91L314.01,340.41L314.13,344.97L315.85,347.42L312.45,350.48L312.96,345.87L311.56,347.34L311.56,345.32L308.73,345.61L309.04,347.05L310.43,346.91L311.35,350.98L304.06,344.30L303.69,342.42L304.53,343.00L305.09,341.24L302.44,341.03L303.12,339.83L300.86,340.09L303.12,341.85L302.82,344.15L300.85,341.38L298.87,341.24L298.42,338.33L298.33,341.56L291.82,334.47L293.32,326.38L289.95,323.56L290.26,321.45L287.63,316.93L288.89,314.50L294.30,311.82L295.82,312.46L300.29,307.57L302.26,315.04L305.93,313.63L307.65,311.42L311.37,313.38L313.99,310.25L316.16,315.98L320.60,321.94Z"><title>Chanthaburi</title></path>
<path data-code="TH-91" data-name="Satun" d="M226.55,587.26L225.22,587.44L225.23,592.87L223.60,598.09L222.07,596.30L222.62,594.26L220.97,595.38L218.01,591.54L216.90,591.71L216.77,588.89L212.93,584.59L205.47,579.76L206.62,577.02L205.20,573.46L207.93,569.12L211.15,568.60L213.59,571.69L215.42,568.79L217.90,571.67L220.65,572.25L223.30,577.45L227.13,579.42L226.55,587.26ZM187.49,592.50L186.24,594.10L183.82,593.37L187.49,592.50ZM204.92,594.96L204.36,595.98L201.96,592.14L204.29,586.23L206.24,593.20L204.92,594.96Z"><title>Satun</title></path>
<path data-code="TH-90" data-name="Songkhla" d="M227.71,587.70L226.55,587.26L227.13,579.42L223.30,577.45L219.63,570.72L224.71,566.99L230.02,565.81L233.92,561.53L234.17,563.37L235.89,564.25L234.48,565.21L236.29,567.84L241.19,568.49L242.40,565.13L250.57,575.97L253.26,576.19L259.32,580.63L262.22,580.58L261.02,585.85L263.76,591.61L260.61,596.63L256.60,598.06L255.78,603.31L252.19,604.15L251.44,599.25L248.50,597.50L248.34,595.95L244.26,597.99L234.27,594.73L231.88,593.22L229.62,587.39L227.71,587.70ZM232.43,535.03L236.44,554.49L241.93,566.37L235.84,563.31L234.36,550.73L231.74,550.38L230.26,552.75L229.56,552.21L231.79,546.98L230.22,541.37L226.62,542.04L223.69,540.80L224.74,537.74L232.43,535.03Z"><title>Songkhla</title></path>
<path data-code="TH-95" data-name="Yala" d="M252.57,606.76L252.19,604.15L255.78,603.31L256.35,598.45L260.61,596.63L263.67,592.13L263.58,589.85L268.37,591.60L271.65,588.25L273.10,593.48L280.52,591.61L282.32,593.76L284.62,593.95L281.44,598.06L277.37,599.22L275.11,608.29L279.40,614.53L279.96,621.25L269.65,625.71L268.66,629.41L265.58,631.96L263.75,632.00L258.00,625.48L260.05,621.01L262.66,619.34L263.29,613.12L261.58,611.06L263.08,608.77L262.78,606.34L258.37,605.24L252.57,606.76Z"><title>Yala</title></path>
<path data-code="TH-96" data-name="Narathiwat" d="M303.48,605.88L302.94,612.73L297.80,617.50L296.90,622.66L291.62,627.77L289.26,625.73L286.76,626.61L285.46,622.82L283.21,620.68L279.96,621.25L279.40,614.53L275.12,608.45L277.37,599.22L282.08,597.43L284.60,594.25L283.27,591.17L284.68,590.28L289.13,592.52L292.61,597.15L303.48,605.88Z"><title>Narathiwat</title></path>
<path data-code="TH-57" data-name="Chiang Rai" d="M215.79,8.00L222.45,13.36L223.90,16.68L228.24,11.04L232.51,10.32L237.30,18.72L240.10,20.44L240.81,19.68L238.24,31.78L232.54,40.39L225.83,43.19L224.05,48.84L221.70,50.78L219.07,50.63L215.92,52.69L214.76,52.09L214.64,48.56L205.54,50.78L202.51,47.70L200.82,51.07L200.37,63.64L199.23,65.82L193.73,68.96L190.07,61.38L191.37,57.58L189.40,47.85L190.58,46.02L188.04,41.87L194.44,34.60L193.15,31.41L194.55,28.55L197.87,27.89L200.02,30.31L201.55,26.42L198.04,24.13L200.49,21.52L198.20,20.31L198.90,18.49L194.58,10.93L204.08,13.82L209.63,12.67L211.71,9.19L215.79,8.00Z"><title>Chiang Rai</title></path>
<path data-code="TH-50" data-name="Chiang Mai" d="M189.45,24.12L195.44,22.47L198.20,20.31L200.53,21.67L198.14,24.33L201.55,26.42L200.02,30.31L197.87,27.89L194.55,28.55L193.15,31.41L194.44,34.60L188.04,41.87L190.58,46.02L189.40,47.85L191.37,57.58L190.07,61.38L193.73,68.96L192.56,69.93L192.45,73.22L190.60,74.90L192.29,78.18L190.56,84.52L191.68,86.28L190.53,88.48L189.44,88.30L186.15,85.89L186.66,84.29L184.83,81.38L183.19,81.38L179.30,83.45L177.75,82.90L174.30,88.74L165.00,93.22L164.22,98.33L168.83,101.03L169.26,111.00L171.39,112.50L173.61,118.34L173.11,121.74L170.71,123.03L167.10,121.29L163.17,122.36L161.27,125.43L161.90,128.13L158.25,131.49L159.56,140.84L153.12,142.59L150.04,140.37L149.50,131.14L148.72,129.14L146.91,128.72L146.96,125.85L148.68,123.85L145.85,122.47L144.96,120.37L146.12,117.80L139.70,110.41L141.49,106.96L140.05,101.24L141.15,98.02L140.37,96.35L144.86,92.01L141.00,88.29L140.36,84.19L141.21,78.60L139.69,76.04L141.34,71.48L141.12,65.40L142.77,62.59L144.63,61.95L150.50,67.60L155.05,68.59L156.11,67.34L162.40,66.57L162.97,63.66L160.44,60.30L161.23,48.71L155.88,39.16L158.13,40.41L169.43,34.91L173.18,37.35L177.35,34.30L178.81,23.59L183.82,21.55L189.45,24.12Z"><title>Chiang Mai</title></path>
<path data-code="TH-58" data-name="Mae Hong Son" d="M138.13,34.86L145.02,38.65L146.01,40.88L155.88,39.16L161.19,48.56L160.44,60.30L163.15,64.64L161.56,67.09L156.11,67.34L155.05,68.59L150.08,67.42L144.79,61.98L142.77,62.59L141.17,65.25L141.24,72.22L139.69,76.04L141.21,78.60L140.36,84.19L141.00,88.29L144.86,92.01L140.37,96.35L141.15,98.02L140.05,101.24L141.49,106.96L139.70,110.41L146.12,117.80L144.96,120.37L145.85,122.47L148.68,123.85L132.48,129.79L126.78,124.56L122.96,118.19L126.16,112.34L120.58,100.85L121.38,98.13L118.76,97.00L116.90,99.85L115.18,98.72L109.63,87.81L112.76,90.41L116.12,90.33L120.58,87.72L125.82,86.97L124.90,75.13L122.21,72.02L128.49,64.17L128.57,60.11L126.58,57.67L128.30,56.21L126.70,52.14L129.78,48.69L130.05,44.97L136.60,41.96L137.00,35.63L138.13,34.86Z"><title>Mae Hong Son</title></path>
<path data-code="TH-63" data-name="Tak" d="M157.80,159.48L154.17,152.69L148.56,150.45L147.71,147.42L140.06,140.02L139.90,137.47L132.48,129.79L133.14,129.20L148.68,123.85L146.86,128.16L149.50,131.14L150.04,140.37L153.83,142.64L159.56,140.84L158.25,131.49L161.90,128.13L161.27,125.43L163.09,122.48L165.43,121.31L166.87,123.77L164.97,125.71L165.88,132.73L170.24,131.94L173.32,126.56L175.91,126.14L177.81,127.44L178.67,131.65L177.83,135.38L179.02,137.00L184.40,139.07L186.28,136.50L188.40,136.65L190.34,142.19L190.59,148.06L188.80,150.68L188.43,155.21L191.52,157.90L187.56,167.79L187.69,171.60L181.99,175.27L176.82,175.90L178.39,194.05L180.14,195.45L182.44,206.99L181.54,211.08L179.08,214.27L179.63,220.92L176.51,228.16L172.94,225.86L163.51,211.41L158.60,209.01L160.23,196.29L158.72,193.32L161.68,193.17L164.16,190.00L169.40,190.66L173.35,180.00L170.73,175.41L168.64,179.53L164.28,183.79L163.49,183.24L162.19,175.80L155.01,164.84L157.63,161.01L156.48,159.19L157.80,159.48Z"><title>Tak</title></path>
<path data-code="TH-71" data-name="Kanchanaburi" d="M158.17,223.72L159.62,220.51L158.60,209.01L163.51,211.41L172.94,225.86L176.51,228.16L177.23,234.02L180.15,236.87L188.81,237.47L190.03,241.17L189.19,244.29L193.04,247.32L195.30,247.34L196.16,250.49L199.03,248.93L199.67,246.06L204.33,245.78L212.92,252.70L212.05,254.09L213.88,255.95L211.19,257.76L211.06,269.15L208.73,272.89L210.68,278.65L213.45,281.94L210.24,287.27L204.97,287.19L199.36,289.91L196.74,288.09L191.36,290.15L187.63,289.43L183.34,291.24L181.47,288.92L181.01,285.07L177.61,281.72L174.66,276.00L167.20,271.17L165.29,268.22L160.61,266.05L153.43,254.00L146.25,245.67L144.43,235.29L142.85,232.98L143.54,228.16L145.82,227.90L147.88,225.24L152.37,226.58L152.56,222.47L155.74,221.30L158.17,223.72Z"><title>Kanchanaburi</title></path>
<path data-code="TH-77" data-name="Prachuap Khiri Khan" d="M196.46,358.57L196.76,355.99L193.20,344.25L193.93,339.99L198.51,339.19L202.96,340.90L211.20,337.44L216.76,337.07L218.87,348.34L217.66,352.49L219.01,356.28L211.44,367.06L210.86,374.78L208.18,376.11L203.67,383.97L200.69,391.95L201.38,397.80L199.02,398.15L197.69,400.42L197.98,406.15L194.20,407.87L188.23,407.78L183.65,405.83L183.10,404.36L186.06,401.46L192.27,390.15L195.27,384.25L195.78,380.16L199.59,379.03L203.18,371.65L200.36,369.24L200.88,364.88L198.60,362.79L199.55,357.96L196.46,358.57Z"><title>Prachuap Khiri Khan</title></path>
<path data-code="TH-76" data-name="Phetchaburi" d="M193.93,339.99L186.11,332.92L183.60,325.38L184.08,322.77L180.94,319.28L182.00,313.82L184.97,312.83L188.75,315.71L191.71,312.13L196.12,314.15L203.43,313.33L205.89,308.88L208.73,307.71L212.57,307.90L212.56,310.39L213.92,311.70L214.40,310.19L216.76,309.45L221.41,315.30L222.65,319.33L217.86,330.57L216.76,337.07L211.20,337.44L202.96,340.90L198.51,339.19L193.93,339.99Z"><title>Phetchaburi</title></path>
<path data-code="TH-70" data-name="Ratchaburi" d="M184.97,312.83L183.34,291.24L196.74,288.09L199.36,289.91L204.97,287.19L210.04,287.38L213.01,282.18L215.99,282.74L216.29,290.50L217.42,291.68L219.59,290.64L221.60,292.93L221.51,294.86L219.93,300.48L214.93,300.38L212.57,307.90L206.20,308.61L203.43,313.33L196.12,314.15L191.71,312.13L188.75,315.71L184.97,312.83Z"><title>Ratchaburi</title></path>
<path data-code="TH-86" data-name="Chumphon" d="M179.58,408.33L183.10,404.36L183.65,405.83L188.23,407.78L194.20,407.87L197.98,406.15L198.47,411.02L195.51,411.49L192.68,419.45L190.75,420.21L188.74,425.15L187.36,425.61L188.33,426.75L187.18,428.91L189.17,430.80L189.02,432.81L183.54,433.11L184.25,436.04L187.77,438.29L185.58,439.29L183.54,443.81L184.66,447.10L183.27,456.96L178.34,459.53L173.29,459.56L168.71,461.35L167.04,464.97L163.47,462.56L162.35,457.86L167.91,450.76L170.04,450.35L174.44,445.27L174.78,442.87L172.95,439.41L175.38,433.30L173.35,428.95L175.96,425.56L176.32,422.77L173.44,418.95L174.20,416.68L172.36,414.95L176.57,413.09L177.38,407.81L179.58,408.33Z"><title>Chumphon</title></path>
<path data-code="TH-85" data-name="Ranong" d="M166.95,433.39L168.75,426.23L167.33,420.10L172.36,414.95L174.20,416.68L173.44,418.95L176.32,422.77L175.96,425.56L173.35,428.95L175.38,433.30L172.95,439.41L174.78,442.87L174.44,445.27L162.58,457.18L163.38,462.42L166.13,463.93L168.09,467.27L163.22,472.48L163.89,475.24L158.80,475.48L157.24,477.39L153.92,475.26L152.26,475.77L152.57,474.34L155.03,467.19L156.25,468.05L158.06,466.45L155.28,464.83L157.37,462.72L156.53,460.23L158.59,460.53L159.49,459.01L157.12,459.11L157.12,457.67L160.20,454.79L158.80,456.20L157.31,455.04L159.92,453.32L160.56,450.58L162.16,450.16L161.04,448.43L165.53,439.50L166.95,433.39Z"><title>Ranong</title></path>
<path data-code="TH-56" data-name="Phayao" d="M234.38,38.37L237.33,46.26L242.59,48.42L239.46,53.13L243.20,55.00L244.27,63.41L241.49,65.08L241.80,67.69L238.01,66.76L237.25,68.88L238.90,70.19L235.60,71.59L232.84,76.69L221.50,76.35L220.85,74.00L215.97,69.74L211.93,68.86L209.39,66.11L206.44,59.24L205.54,50.78L214.64,48.56L215.63,52.63L219.07,50.63L221.70,50.78L224.05,48.84L225.91,43.09L232.22,40.66L234.38,38.37Z"><title>Phayao</title></path>
<path data-code="TH-55" data-name="Nan" d="M254.49,43.04L259.53,43.16L264.54,45.08L267.96,44.05L269.73,45.28L269.76,48.06L267.34,49.81L266.50,53.03L268.10,55.14L269.10,63.50L272.82,68.03L268.66,74.17L267.87,80.27L269.28,82.65L266.03,85.76L265.80,87.57L262.45,89.72L260.67,93.01L262.47,95.38L256.12,100.50L252.96,107.39L249.59,109.94L242.04,108.88L236.06,110.54L235.02,105.51L237.15,104.14L240.59,92.13L238.44,90.26L235.19,90.22L234.23,86.58L235.02,84.36L233.42,82.68L234.69,79.87L232.68,77.15L235.60,71.59L238.90,70.19L237.25,68.88L238.01,66.76L241.80,67.69L241.49,65.08L244.34,63.19L242.81,58.36L243.20,55.00L240.13,54.26L239.42,52.28L242.60,48.83L241.97,47.47L243.29,46.10L249.28,48.56L254.49,43.04Z"><title>Nan</title></path>
<path data-code="TH-53" data-name="Uttaradit" d="M262.47,95.38L265.80,97.43L264.69,100.68L266.11,102.81L265.24,105.81L266.20,108.78L259.46,115.89L257.54,123.46L254.17,123.50L242.23,135.44L236.70,135.64L230.45,137.72L228.53,140.05L228.95,143.11L226.81,144.87L217.66,146.20L217.19,142.43L219.03,139.42L218.38,135.89L219.82,134.71L215.51,129.16L217.43,124.70L214.12,119.31L216.54,120.19L229.58,112.76L232.19,115.46L233.55,111.72L235.70,110.36L242.04,108.88L249.59,109.94L254.97,104.61L256.12,100.50L262.47,95.38Z"><title>Uttaradit</title></path>
<path data-code="TH-65" data-name="Phitsanulok" d="M257.61,123.36L254.73,128.07L256.87,129.77L254.63,133.70L255.56,139.00L258.93,139.39L263.24,143.63L260.42,153.20L262.12,157.13L255.25,161.86L256.40,166.34L253.52,168.19L251.00,176.10L247.22,177.96L245.80,180.69L242.26,177.27L240.23,172.66L230.15,173.82L227.99,170.31L223.07,173.68L219.69,174.41L218.36,171.90L214.98,170.61L213.99,168.10L215.91,165.31L213.95,163.29L216.55,158.86L219.26,159.21L219.73,157.77L223.24,157.56L223.78,155.01L216.94,149.78L214.94,146.32L226.81,144.87L228.95,143.11L228.53,140.05L230.45,137.72L236.70,135.64L242.23,135.44L254.17,123.50L257.61,123.36Z"><title>Phitsanulok</title></path>
<path data-code="TH-42" data-name="Loei" d="M256.87,129.77L264.86,133.72L269.57,128.22L275.18,124.31L275.35,122.44L278.04,121.53L278.65,122.82L282.26,119.79L281.35,119.06L283.13,116.59L289.35,114.74L291.87,107.93L296.55,109.47L303.40,102.25L304.89,102.09L301.45,111.96L302.61,117.90L301.49,122.05L302.04,125.13L303.38,124.25L306.28,131.74L303.58,134.13L299.85,134.58L301.45,139.57L298.28,144.82L299.57,147.00L304.22,148.85L306.68,152.23L301.91,155.16L303.40,158.01L302.36,158.81L289.48,163.34L288.71,156.57L285.80,151.22L282.48,153.46L278.30,149.95L272.58,150.44L268.03,148.29L266.40,151.26L264.61,151.89L264.43,156.13L262.12,157.13L260.42,153.20L263.24,143.63L258.93,139.39L255.56,139.00L254.61,133.51L256.87,129.77Z"><title>Loei</title></path>
<path data-code="TH-38" data-name="Bueng Kan" d="M357.41,92.43L373.74,96.54L377.41,99.10L379.68,97.23L382.59,97.62L387.61,107.02L390.93,110.25L387.71,111.04L387.14,116.68L384.38,113.82L382.82,114.27L383.01,119.41L381.30,120.80L378.57,116.34L373.80,117.46L372.80,113.37L371.89,114.77L367.58,112.50L367.66,110.65L365.61,109.26L362.35,108.35L359.42,111.46L356.26,109.25L354.48,106.09L356.39,104.05L356.32,101.80L353.86,101.10L353.71,98.52L351.14,96.04L353.13,93.52L357.41,92.43Z"><title>Bueng Kan</title></path>
<path data-code="TH-43" data-name="Nong Khai" d="M345.19,105.36L347.22,104.01L348.44,100.51L353.70,98.60L353.86,101.10L356.80,103.06L354.48,106.09L354.75,107.77L359.42,111.46L357.18,111.89L357.94,116.66L354.18,118.11L352.26,116.15L348.47,119.39L343.94,115.82L340.84,118.51L339.47,116.22L336.81,115.87L335.28,123.67L331.34,127.61L327.79,128.06L325.41,127.01L325.51,124.13L322.63,121.55L319.50,121.20L313.91,113.16L308.88,110.25L306.81,111.33L302.88,107.31L304.89,102.09L306.78,102.18L313.07,108.87L318.77,111.97L325.09,112.92L324.92,117.74L328.51,119.04L328.11,116.71L335.49,112.21L339.68,110.52L343.09,111.43L345.19,105.36Z"><title>Nong Khai</title></path>
<path data-code="TH-48" data-name="Nakhon Phanom" d="M390.93,110.25L393.68,116.35L397.06,118.65L401.14,125.11L411.43,130.96L416.10,137.47L415.84,145.94L412.98,153.07L414.08,159.24L412.97,163.70L410.71,162.81L409.98,160.45L404.30,160.97L400.70,159.00L394.37,159.20L392.40,157.55L398.75,152.24L397.44,149.68L400.83,142.76L399.62,135.68L384.69,136.70L382.97,133.11L384.57,128.47L383.88,126.44L385.69,124.57L382.11,116.62L382.82,114.27L384.23,113.78L387.00,116.79L388.11,114.84L387.71,111.04L390.93,110.25Z"><title>Nakhon Phanom</title></path>
<path data-code="TH-49" data-name="Mukdahan" d="M413.70,160.81L414.57,165.61L413.56,173.03L423.15,182.93L416.88,187.22L410.45,185.17L408.50,186.24L403.00,180.91L396.24,181.41L395.23,175.70L392.62,177.08L390.16,167.22L385.58,160.23L388.22,157.70L392.40,157.55L394.37,159.20L400.70,159.00L404.30,160.97L409.98,160.45L410.71,162.81L412.72,163.74L413.70,160.81Z"><title>Mukdahan</title></path>
<path data-code="TH-37" data-name="Amnat Charoen" d="M423.15,182.93L424.72,184.46L425.38,189.36L428.03,191.28L425.07,195.33L425.99,199.34L424.42,201.00L420.47,216.99L416.00,216.10L414.98,213.73L412.79,213.46L410.19,210.58L408.94,210.99L409.69,212.39L408.25,213.93L401.94,212.20L400.02,207.06L400.63,203.04L406.06,191.49L415.53,188.70L415.96,187.28L423.15,182.93Z"><title>Amnat Charoen</title></path>
<path data-code="TH-82" data-name="Phangnga" d="M162.91,516.91L161.04,515.71L157.86,518.27L153.84,519.09L155.26,523.34L152.32,526.69L147.81,522.93L144.45,509.93L144.87,507.94L146.41,510.76L146.65,509.92L145.29,508.46L146.13,505.01L145.29,501.84L147.00,496.60L152.32,488.82L149.92,489.21L149.80,488.11L151.94,487.28L149.49,481.48L151.48,480.76L150.71,479.71L152.26,475.77L153.67,475.27L158.12,478.31L156.05,487.63L157.05,491.20L154.90,492.67L155.09,495.06L161.11,499.13L161.00,502.47L158.71,504.82L160.25,506.08L165.54,506.11L165.01,508.39L163.47,509.01L164.05,513.42L162.91,516.91ZM158.45,528.03L160.99,529.77L161.04,536.50L157.96,527.24L158.45,528.03ZM162.43,525.23L161.75,528.66L160.06,527.97L161.88,524.36L162.43,525.23ZM148.40,484.19L149.52,487.09L146.70,488.75L146.45,483.98L148.40,484.19ZM130.92,472.39L130.24,470.86L131.96,470.61L130.92,472.39ZM148.10,490.12L148.86,492.08L147.00,495.42L146.62,490.43L148.10,490.12Z"><title>Phangnga</title></path>
<path data-code="TH-81" data-name="Krabi" d="M187.86,546.98L182.67,542.26L181.92,544.86L179.61,545.14L177.91,540.24L179.87,538.37L180.17,535.61L178.47,536.50L173.95,530.28L170.89,532.33L169.12,530.24L167.88,531.45L166.81,523.39L166.11,521.75L165.27,522.93L165.13,519.87L161.88,520.60L164.05,513.42L163.47,509.01L165.01,508.39L167.29,504.08L171.24,505.45L174.37,508.68L172.58,510.77L173.63,519.16L177.38,519.16L179.81,517.62L184.75,518.87L188.24,518.05L190.29,520.11L189.08,528.11L191.45,532.52L191.51,535.83L189.39,539.02L191.32,543.08L187.86,546.98ZM178.75,547.44L180.43,548.93L181.42,554.90L178.60,550.91L178.75,547.44ZM182.42,546.89L181.78,549.55L179.15,546.63L182.42,546.89Z"><title>Krabi</title></path>
<path data-code="TH-92" data-name="Trang" d="M207.93,569.12L205.13,569.39L204.92,567.39L202.53,568.83L200.22,566.27L199.71,563.37L202.09,558.74L199.88,561.87L198.18,558.37L196.64,562.79L192.84,561.06L191.13,558.42L191.44,554.83L189.45,553.22L189.33,548.43L187.45,547.87L191.26,543.34L189.39,539.02L191.19,534.85L193.77,537.08L198.28,537.85L202.44,533.17L208.02,533.39L207.54,538.22L211.05,546.42L210.06,549.41L216.01,562.09L216.94,567.13L220.28,571.92L217.90,571.67L215.42,568.79L213.59,571.69L211.15,568.60L207.93,569.12ZM193.96,563.37L195.95,564.52L193.05,566.41L192.82,563.95L193.96,563.37Z"><title>Trang</title></path>
<path data-code="TH-94" data-name="Pattani" d="M262.22,580.58L267.28,580.41L269.45,578.72L273.85,579.82L270.20,576.92L271.40,576.50L279.46,579.72L282.67,581.66L289.13,592.52L284.68,590.28L283.28,591.01L284.39,592.47L283.18,593.73L280.52,591.61L273.29,593.56L271.65,588.25L269.03,591.34L265.68,591.34L262.00,589.18L260.97,585.20L262.22,580.58Z"><title>Pattani</title></path>
<path data-code="TH-93" data-name="Phatthalung" d="M226.62,542.04L224.24,545.09L225.98,552.92L229.82,559.32L233.92,561.53L230.02,565.81L224.71,566.99L219.63,570.72L216.94,567.13L216.01,562.09L211.31,552.87L210.00,549.17L211.02,546.21L207.87,538.73L216.70,536.50L220.20,539.84L226.62,542.04Z"><title>Phatthalung</title></path>
<path data-code="TH-80" data-name="Nakhon Si Thammarat" d="M209.00,477.15L212.36,477.89L213.69,480.47L217.02,506.92L224.29,516.06L226.02,515.71L225.14,511.32L223.75,510.76L225.79,511.33L229.52,519.09L232.43,535.03L224.74,537.74L223.69,540.80L220.20,539.84L216.70,536.50L207.87,538.73L207.19,532.78L202.32,533.24L199.21,537.68L193.77,537.08L190.68,534.25L191.45,532.52L189.11,528.35L190.37,520.57L187.20,516.41L188.90,509.75L190.95,510.48L195.68,507.12L198.76,501.68L199.07,496.75L201.55,493.81L205.77,493.18L208.06,487.97L209.54,487.92L209.50,485.59L207.34,483.85L209.00,477.15Z"><title>Nakhon Si Thammarat</title></path>
<path data-code="TH-84" data-name="Surat Thani" d="M183.27,456.96L186.48,467.44L190.60,473.81L186.98,476.13L187.79,480.51L192.84,482.18L196.81,481.84L199.31,478.44L208.22,476.83L207.36,484.02L209.50,485.59L209.61,487.77L208.06,487.97L205.77,493.18L201.55,493.81L199.07,496.75L198.76,501.68L195.68,507.12L190.95,510.48L189.00,509.59L187.20,516.08L188.24,518.05L184.75,518.87L179.81,517.62L177.38,519.16L173.75,519.22L172.58,510.77L173.96,507.83L167.73,504.04L165.99,506.07L160.25,506.08L158.83,504.99L161.00,502.47L161.11,499.13L155.09,495.06L154.90,492.67L157.05,491.20L156.05,487.63L158.20,480.02L157.24,477.39L158.80,475.48L163.89,475.24L163.22,472.48L168.04,467.44L167.04,464.97L168.54,461.49L173.29,459.56L178.34,459.53L183.27,456.96ZM221.25,465.59L222.09,466.67L220.87,470.76L216.18,472.68L215.34,466.45L221.25,465.59ZM219.82,456.78L221.13,457.62L222.07,462.27L217.86,459.97L217.86,456.52L219.82,456.78Z"><title>Surat Thani</title></path>
<path data-code="TH-75" data-name="Samut Songkhram" d="M222.02,303.79L218.42,306.06L218.62,307.72L216.76,309.45L213.17,311.32L212.57,307.90L215.02,300.27L219.93,300.48L222.02,303.79Z"><title>Samut Songkhram</title></path>
<path data-code="TH-74" data-name="Samut Sakhon" d="M234.82,301.07L232.21,301.43L229.66,299.97L222.02,303.79L219.93,300.48L221.60,292.93L229.02,293.87L229.56,292.07L231.99,290.97L235.00,298.16L234.82,301.07Z"><title>Samut Sakhon</title></path>
<path data-code="TH-10" data-name="Bangkok Metropolis" d="M237.54,300.85L234.82,301.07L232.15,288.08L238.42,288.11L241.01,281.80L246.23,283.05L255.52,281.72L255.19,286.06L256.29,287.46L253.49,292.58L247.65,291.76L245.63,294.22L242.93,294.00L242.83,292.36L241.42,292.09L238.86,293.70L238.64,296.46L237.38,297.15L237.54,300.85Z"><title>Bangkok Metropolis</title></path>
<path data-code="TH-11" data-name="Samut Prakan" d="M252.89,301.59L245.04,299.82L242.68,298.37L242.91,295.94L242.01,299.84L237.54,300.85L237.38,297.15L238.64,296.46L238.86,293.70L241.80,291.90L243.23,294.09L246.41,294.05L247.65,291.76L253.49,292.58L257.26,295.07L252.89,301.59Z"><title>Samut Prakan</title></path>
<path data-code="TH-24" data-name="Chachoengsao" d="M258.63,302.23L259.25,300.83L257.40,302.01L252.89,301.59L257.26,295.07L253.21,292.07L256.29,287.46L255.19,286.06L255.54,281.48L265.21,280.93L265.68,285.90L268.08,284.87L273.96,285.50L282.64,290.14L283.64,288.77L287.74,289.89L288.29,288.41L290.45,287.97L293.00,291.34L295.40,291.27L297.08,296.95L300.07,297.29L300.21,300.43L298.21,301.99L300.29,307.57L295.82,312.46L294.30,311.82L288.89,314.50L287.34,311.20L282.46,307.61L280.81,304.84L274.40,302.44L270.78,298.51L265.21,296.88L261.63,298.69L261.59,300.26L258.63,302.23Z"><title>Chachoengsao</title></path>
<path data-code="TH-20" data-name="Chon Buri" d="M258.52,336.93L258.37,338.68L256.39,337.79L256.04,335.96L253.59,336.38L253.86,334.34L252.75,334.05L256.14,329.71L253.86,325.13L256.70,321.63L254.43,317.60L257.17,313.27L255.83,309.36L258.66,306.61L258.63,302.23L261.59,300.26L261.63,298.69L265.54,296.87L270.78,298.51L274.40,302.44L280.81,304.84L282.46,307.61L287.34,311.20L288.89,314.50L287.86,316.10L283.62,316.26L282.60,318.34L278.44,320.41L275.60,321.03L273.02,318.91L270.64,319.76L266.93,318.52L266.39,320.84L262.96,320.79L262.21,321.72L263.35,325.49L259.53,330.45L258.52,336.93Z"><title>Chon Buri</title></path>
<path data-code="TH-21" data-name="Rayong" d="M291.82,334.47L288.34,334.05L285.79,336.43L278.52,337.24L276.59,338.78L272.70,336.82L263.03,335.20L258.35,336.52L259.53,330.45L263.26,325.80L262.96,320.79L266.39,320.84L266.93,318.52L270.64,319.76L273.02,318.91L275.60,321.03L278.44,320.41L285.58,315.38L287.86,316.10L288.71,320.27L290.26,321.45L289.95,323.56L293.32,326.38L291.82,334.47Z"><title>Rayong</title></path>
<path data-code="TH-83" data-name="Phuket" d="M153.45,536.50L154.32,537.23L152.67,538.15L152.61,540.24L150.38,539.49L149.53,542.10L148.24,541.82L147.97,536.50L146.70,535.47L147.81,524.36L149.81,525.26L150.36,527.85L154.29,528.97L152.61,533.60L153.45,536.50Z"><title>Phuket</title></path>
<path data-code="TH-40" data-name="Khon Kaen" d="M299.88,159.77L303.40,158.01L308.49,159.20L311.29,157.78L317.32,161.91L325.51,162.90L329.92,150.04L334.63,154.19L334.86,158.49L339.70,159.87L346.18,156.85L346.77,160.50L349.11,159.36L348.22,169.35L344.86,174.05L339.09,176.54L339.61,178.33L335.43,183.98L335.79,192.25L337.90,195.47L339.33,204.20L337.28,205.29L336.14,210.63L333.59,211.15L328.90,207.14L318.08,208.18L315.68,206.46L314.09,201.64L316.59,196.00L311.44,192.23L317.06,185.27L319.08,178.17L317.12,175.99L315.77,176.88L308.84,174.03L303.65,174.08L298.67,168.64L293.70,167.49L291.80,168.24L290.27,167.07L291.88,163.02L299.88,159.77Z"><title>Khon Kaen</title></path>
<path data-code="TH-47" data-name="Sakon Nakhon" d="M358.74,111.85L360.71,110.92L361.27,109.00L363.76,108.43L367.66,110.65L367.58,112.50L371.89,114.77L372.80,113.37L373.80,117.46L378.43,116.29L380.07,120.06L381.40,120.81L383.01,119.41L385.71,124.73L383.88,126.44L384.57,128.47L382.97,133.11L385.00,136.91L399.56,135.44L400.83,142.76L397.44,149.68L398.75,152.24L395.04,155.92L392.40,157.55L388.22,157.70L386.74,160.02L383.39,159.34L380.02,162.45L374.17,157.74L373.45,154.80L368.10,152.26L368.38,148.93L365.78,146.39L360.59,143.49L358.06,144.03L352.61,141.93L351.65,140.05L353.53,136.99L353.08,132.95L355.29,128.86L357.84,127.95L357.99,122.05L356.63,120.05L357.16,117.97L358.37,117.86L357.18,111.89L358.74,111.85Z"><title>Sakon Nakhon</title></path>
<path data-code="TH-72" data-name="Suphan Buri" d="M227.05,239.35L226.32,240.73L227.60,241.53L227.91,246.32L226.46,255.85L229.95,262.63L228.84,270.03L224.88,273.66L217.80,273.46L213.40,276.84L210.63,277.00L208.73,272.60L211.06,269.15L211.19,257.76L213.88,255.95L212.05,254.09L212.92,252.70L204.33,245.78L199.67,246.06L199.03,248.93L196.16,250.49L195.30,247.34L193.04,247.32L189.08,244.09L190.02,241.52L188.77,237.56L189.44,235.27L190.60,234.41L194.05,236.02L194.48,237.42L202.60,239.81L204.06,237.76L217.14,241.29L219.97,240.35L220.22,239.04L224.13,240.67L227.05,239.35Z"><title>Suphan Buri</title></path>
<path data-code="TH-17" data-name="Sing Buri" d="M226.96,241.40L227.05,239.35L229.34,239.42L230.83,237.69L229.35,236.31L230.82,234.13L229.54,232.72L230.67,230.54L232.35,230.71L233.35,233.46L236.55,234.91L237.26,238.49L236.21,240.92L238.52,248.18L236.09,248.84L232.23,246.13L227.91,246.32L226.96,241.40Z"><title>Sing Buri</title></path>
<path data-code="TH-18" data-name="Chai Nat" d="M224.13,240.67L220.52,239.03L217.14,241.29L207.12,239.09L207.08,237.50L210.52,233.75L207.55,229.01L207.05,225.12L208.69,224.10L220.75,226.36L221.29,223.12L219.59,220.79L220.73,219.77L223.20,219.69L227.03,222.53L231.07,230.40L229.54,232.72L230.82,234.13L229.34,236.08L230.94,237.44L229.34,239.42L224.13,240.67Z"><title>Chai Nat</title></path>
<path data-code="TH-15" data-name="Ang Thong" d="M228.80,259.10L226.46,255.85L227.91,246.32L232.23,246.13L239.54,250.70L238.87,260.41L235.95,260.84L235.38,258.15L228.80,259.10Z"><title>Ang Thong</title></path>
<path data-code="TH-19" data-name="Saraburi" d="M267.35,247.74L267.11,256.77L269.40,259.38L267.89,263.86L266.05,264.95L261.84,262.40L260.94,265.84L258.94,267.49L257.32,267.15L255.83,270.59L254.36,268.64L252.15,269.41L252.05,266.49L250.37,265.85L249.99,255.94L243.64,256.54L241.95,254.76L243.43,250.44L247.92,247.48L250.68,242.87L252.97,242.45L255.99,248.01L262.89,243.64L264.86,244.25L267.35,247.74Z"><title>Saraburi</title></path>
<path data-code="TH-30" data-name="Nakhon Ratchasima" d="M269.40,259.38L267.11,256.77L267.35,247.74L270.85,248.84L278.07,242.68L275.27,235.15L270.95,233.76L271.76,224.73L276.93,228.38L282.64,226.77L292.36,221.40L295.52,221.45L299.00,217.48L298.66,214.17L302.13,209.70L303.95,211.35L307.06,206.40L313.74,203.45L317.89,208.15L329.06,207.18L332.88,210.51L334.46,215.90L338.19,215.86L342.03,218.18L339.60,221.21L341.58,222.43L340.49,223.56L340.83,229.29L335.53,230.97L329.52,239.44L325.96,240.01L321.97,238.83L323.43,240.18L323.79,245.27L321.19,245.55L318.64,243.62L321.39,252.08L320.45,256.10L323.96,261.27L325.82,267.56L324.87,273.34L322.63,274.53L323.03,275.72L321.37,275.82L320.80,273.63L318.12,273.05L312.56,274.24L309.91,273.63L308.58,271.79L307.14,273.84L304.02,272.94L298.94,268.91L298.34,267.45L299.90,264.75L299.02,263.70L297.49,264.39L295.95,263.02L290.84,264.95L290.35,266.28L284.87,261.40L281.66,261.60L279.24,260.16L276.23,261.70L271.04,258.41L269.40,259.38Z"><title>Nakhon Ratchasima</title></path>
<path data-code="TH-26" data-name="Nakhon Nayok" d="M266.21,264.98L271.04,258.41L279.15,264.14L280.57,267.41L277.79,268.80L275.72,268.32L275.50,270.12L271.77,273.51L272.41,277.14L268.52,277.42L265.07,279.75L265.21,280.93L255.54,281.48L255.83,270.59L257.32,267.15L260.49,266.38L261.84,262.40L266.21,264.98Z"><title>Nakhon Nayok</title></path>
<path data-code="TH-13" data-name="Pathum Thani" d="M254.11,268.59L255.83,270.59L255.52,281.72L245.60,282.97L233.97,279.96L232.33,277.75L232.75,274.81L243.14,274.40L254.11,268.59Z"><title>Pathum Thani</title></path>
<path data-code="TH-61" data-name="Uthai Thani" d="M202.60,239.81L194.48,237.42L194.05,236.02L190.60,234.41L187.53,237.78L180.31,236.94L177.29,234.13L176.51,228.16L179.63,220.92L179.02,214.52L181.54,211.08L182.30,205.02L185.58,205.65L196.96,213.79L205.88,208.87L210.51,211.10L212.31,210.66L214.56,215.49L220.28,218.66L220.71,220.55L219.60,221.02L221.29,223.12L221.43,226.03L208.54,224.09L207.05,225.12L207.55,229.01L210.45,234.17L207.08,237.50L207.12,239.09L203.80,237.79L202.60,239.81Z"><title>Uthai Thani</title></path>
<path data-code="TH-46" data-name="Kalasin" d="M346.91,160.52L346.18,156.85L347.10,155.29L351.27,154.77L357.94,157.26L359.42,160.44L361.36,157.12L362.40,151.20L366.53,149.26L368.10,152.26L373.45,154.80L374.17,157.74L380.02,162.45L383.39,159.34L385.58,160.23L390.16,167.22L392.62,177.08L389.35,176.57L385.02,178.65L384.21,176.73L375.39,175.67L370.48,179.23L372.36,182.53L371.36,185.99L368.68,185.92L369.24,186.79L368.08,187.10L364.45,185.92L360.36,187.34L358.65,183.50L353.92,178.44L349.01,179.60L349.74,168.94L348.21,168.20L349.51,160.67L348.32,158.94L346.91,160.52Z"><title>Kalasin</title></path>
<path data-code="TH-45" data-name="Roi Et" d="M377.17,175.57L384.21,176.73L385.02,178.65L395.23,175.70L396.07,181.10L397.20,181.69L396.05,184.33L387.06,191.27L387.08,195.95L383.47,196.24L383.03,199.03L384.14,200.91L383.00,203.82L385.61,202.88L385.55,201.77L387.17,202.77L387.81,207.87L388.98,207.89L391.26,211.90L386.05,214.86L382.01,220.17L377.97,217.61L373.80,218.98L365.80,217.86L358.67,219.43L359.46,215.38L357.18,215.29L353.73,212.05L356.09,207.90L359.56,207.05L361.88,198.49L361.08,189.82L364.05,186.05L368.08,187.10L369.24,186.79L368.68,185.92L371.36,185.99L372.36,182.53L370.48,179.23L377.17,175.57Z"><title>Roi Et</title></path>
<path data-code="TH-44" data-name="Maha Sarakham" d="M348.21,168.20L349.74,168.94L349.01,179.60L353.78,178.37L358.65,183.50L360.13,187.24L363.11,186.48L360.78,190.88L361.88,198.49L359.41,207.46L356.09,207.90L353.73,212.05L355.01,213.96L359.64,215.94L358.67,219.43L355.62,220.53L344.95,216.12L345.16,214.32L340.65,209.36L341.89,206.87L339.33,204.20L337.90,195.47L335.74,191.89L335.43,183.98L339.61,178.33L339.09,176.54L345.28,173.70L348.21,168.20Z"><title>Maha Sarakham</title></path>
<path data-code="TH-39" data-name="Nong Bua Lam Phu" d="M328.22,155.55L325.59,162.87L323.61,163.24L314.30,160.77L311.79,157.85L308.49,159.20L303.40,158.01L301.91,155.16L306.68,152.23L304.22,148.85L299.57,147.00L298.28,144.82L301.45,139.57L299.85,134.58L305.62,132.82L305.46,128.60L306.50,127.32L310.15,126.21L315.88,127.17L318.32,139.47L320.42,140.58L320.00,143.11L321.53,144.58L325.22,143.88L321.54,147.57L328.22,155.55Z"><title>Nong Bua Lam Phu</title></path>
<path data-code="TH-16" data-name="Lop Buri" d="M271.76,224.73L270.95,233.76L275.05,234.89L278.06,241.42L277.87,243.20L272.95,247.35L270.85,248.84L268.88,248.37L262.89,243.64L255.99,248.01L252.64,242.37L250.56,242.98L247.92,247.48L242.76,251.96L238.38,249.77L237.94,244.38L236.21,240.92L237.26,238.49L236.30,235.24L241.30,226.42L248.92,219.06L248.73,216.49L254.33,217.83L258.49,217.15L264.68,220.79L268.93,220.66L271.76,224.73Z"><title>Lop Buri</title></path>
<path data-code="TH-41" data-name="Udon Thani" d="M335.15,158.50L334.63,154.19L330.05,150.08L328.22,155.55L322.86,150.22L321.46,146.97L325.22,143.88L321.53,144.58L320.00,143.11L320.42,140.58L318.32,139.47L315.88,127.17L309.71,126.24L305.46,128.60L303.25,124.07L302.18,125.36L301.49,122.05L302.61,117.90L301.45,111.96L302.88,107.31L306.81,111.33L308.88,110.25L313.91,113.16L319.50,121.20L322.63,121.55L325.51,124.13L325.41,127.01L327.79,128.06L331.34,127.61L335.28,123.67L336.81,115.87L339.47,116.22L340.84,118.51L343.94,115.82L348.47,119.39L352.26,116.15L354.18,118.11L357.94,116.66L358.35,117.94L357.16,117.97L356.63,120.05L357.99,122.05L357.84,127.95L355.38,128.77L353.45,132.09L352.63,134.87L353.53,136.99L351.68,140.22L352.74,142.02L358.06,144.03L360.59,143.49L365.78,146.39L368.27,148.68L368.51,151.18L365.48,148.95L363.33,150.07L359.42,160.44L357.94,157.26L351.27,154.77L347.37,154.95L346.18,156.85L339.70,159.87L335.15,158.50Z"><title>Udon Thani</title></path>
<path data-code="TH-14" data-name="Phra Nakhon Si Ayutthaya" d="M227.44,272.14L229.93,263.45L228.80,259.10L235.38,258.15L235.95,260.84L238.87,260.41L239.54,250.70L242.76,251.96L241.95,254.76L243.27,256.45L249.99,255.94L249.69,262.19L250.89,263.58L250.44,265.98L252.11,266.67L252.15,269.41L241.12,274.84L231.06,273.86L230.00,274.70L229.74,272.56L227.44,272.14Z"><title>Phra Nakhon Si Ayutthaya</title></path>
<path data-code="TH-12" data-name="Nonthaburi" d="M231.06,273.86L232.75,274.81L233.25,279.59L241.01,281.80L238.42,288.11L232.15,288.08L229.19,278.37L231.06,273.86Z"><title>Nonthaburi</title></path>
<path data-code="TH-73" data-name="Nakhon Pathom" d="M227.44,272.14L230.00,273.01L229.19,278.37L231.99,290.97L229.56,292.07L229.24,293.79L227.29,294.05L220.22,292.47L219.41,290.52L217.20,291.62L216.12,282.90L213.45,281.94L210.63,277.00L213.40,276.84L217.80,273.46L224.88,273.66L227.44,272.14Z"><title>Nakhon Pathom</title></path>
<path data-code="TH-62" data-name="Kamphaeng Phet" d="M214.45,166.32L214.98,170.61L218.36,171.90L219.69,174.41L213.93,192.10L210.31,195.81L207.09,202.80L204.60,204.39L202.51,200.33L198.22,198.72L188.72,200.05L185.70,198.07L180.55,200.84L180.14,195.45L178.50,194.30L177.73,190.18L177.89,178.94L176.82,175.90L181.99,175.27L187.29,172.35L187.56,167.79L191.52,157.90L193.21,158.82L198.59,158.19L200.13,160.98L205.77,164.47L212.23,164.30L214.45,166.32Z"><title>Kamphaeng Phet</title></path>
<path data-code="TH-52" data-name="Lampang" d="M205.54,50.78L206.44,59.24L209.39,66.11L212.02,68.91L215.80,69.61L220.85,74.00L221.50,76.35L223.33,76.83L223.44,85.96L221.06,87.70L218.52,93.97L210.71,101.78L207.03,108.05L203.89,110.05L201.81,109.77L192.70,120.35L190.14,120.87L192.06,124.60L196.99,123.12L195.98,127.73L194.63,128.17L195.32,130.98L194.33,133.67L197.02,139.34L195.49,143.53L193.37,144.57L190.34,142.19L188.11,136.41L186.28,136.50L184.28,139.07L177.89,135.76L177.81,127.44L179.52,127.03L182.32,120.63L181.77,119.17L184.08,118.95L184.70,117.25L181.12,112.97L177.94,100.82L181.50,99.65L187.02,90.98L190.09,89.94L191.81,85.78L190.56,84.52L192.31,78.80L190.63,74.70L192.58,72.95L192.77,69.56L199.23,65.82L200.37,63.64L199.62,62.12L201.53,49.01L203.22,47.49L205.54,50.78Z"><title>Lampang</title></path>
<path data-code="TH-64" data-name="Sukhothai" d="M217.08,146.40L214.94,146.32L215.39,148.02L223.60,154.47L223.73,157.02L219.73,157.77L219.26,159.21L216.55,158.86L213.79,163.63L215.87,165.14L214.45,166.32L212.23,164.30L205.77,164.47L200.13,160.98L198.59,158.19L193.21,158.82L188.77,156.14L188.80,150.68L190.59,148.06L190.34,142.19L193.56,144.52L195.49,143.53L197.02,139.34L194.37,133.88L195.32,130.98L194.59,128.39L195.92,127.87L196.75,122.46L199.03,119.69L202.78,118.93L207.55,122.74L210.76,119.56L215.18,120.25L217.45,124.97L215.51,129.16L219.82,134.71L218.38,135.89L219.03,139.42L217.19,142.43L217.08,146.40Z"><title>Sukhothai</title></path>
<path data-code="TH-60" data-name="Nakhon Sawan" d="M236.55,234.91L233.35,233.46L227.86,223.35L214.56,215.49L212.42,210.72L210.51,211.10L205.88,208.87L198.72,213.71L196.71,213.73L185.58,205.65L182.30,205.02L180.55,200.84L185.70,198.07L188.72,200.05L199.44,198.83L202.51,200.33L205.05,204.25L213.84,192.27L216.05,183.63L218.15,181.08L220.21,187.91L222.12,189.36L225.29,197.13L227.23,198.40L229.88,199.14L231.23,197.64L235.60,198.56L243.11,197.34L249.37,198.24L251.15,201.10L252.55,211.10L249.05,215.70L248.92,219.06L241.30,226.42L236.55,234.91Z"><title>Nakhon Sawan</title></path>
<path data-code="TH-67" data-name="Phetchabun" d="M291.88,163.02L289.33,167.70L284.01,165.64L280.38,166.86L280.45,172.21L274.97,180.25L272.72,192.49L273.42,196.10L275.22,197.07L272.83,202.01L273.11,206.19L275.67,208.01L274.73,219.99L273.11,223.31L271.76,224.73L268.93,220.66L264.68,220.79L258.49,217.15L254.33,217.83L248.73,216.49L252.55,211.10L252.45,208.59L251.08,200.87L249.47,199.50L249.99,195.91L244.33,193.16L244.37,189.31L246.97,185.09L245.80,180.69L247.22,177.96L251.00,176.10L253.52,168.19L256.40,166.34L255.25,161.86L260.86,157.18L264.35,156.24L264.61,151.89L266.40,151.26L268.03,148.29L272.58,150.44L278.30,149.95L282.48,153.46L285.80,151.22L288.71,156.57L289.05,163.04L291.88,163.02Z"><title>Phetchabun</title></path>
<path data-code="TH-66" data-name="Phichit" d="M228.12,170.30L230.15,173.82L240.89,173.12L247.00,184.27L244.40,189.09L244.24,193.04L249.87,195.74L249.37,198.24L231.23,197.64L229.38,199.14L225.29,197.13L217.45,180.05L219.69,174.41L228.12,170.30Z"><title>Phichit</title></path>
<path data-code="TH-36" data-name="Chaiyaphum" d="M314.09,203.50L307.06,206.40L303.95,211.35L302.13,209.70L298.66,214.17L299.00,217.48L295.52,221.45L292.36,221.40L282.64,226.77L276.93,228.38L271.76,224.73L274.73,219.99L275.67,208.01L272.97,205.71L272.85,201.55L275.22,197.07L272.93,194.68L273.71,184.40L275.95,178.21L280.45,172.21L280.48,166.76L284.01,165.64L291.80,168.24L293.70,167.49L298.53,168.59L303.65,174.08L308.84,174.03L315.77,176.88L317.25,176.07L319.10,178.55L317.15,185.06L311.44,192.23L316.59,196.00L314.09,203.50Z"><title>Chaiyaphum</title></path>
<path data-code="TH-54" data-name="Phrae" d="M232.84,76.69L234.69,79.87L233.42,82.68L235.02,84.36L234.23,86.58L235.19,90.22L240.14,91.01L240.62,93.04L237.15,104.14L235.02,105.51L235.70,110.36L233.55,111.72L232.40,115.32L230.21,112.77L228.48,113.01L223.68,117.05L218.42,118.17L216.54,120.19L210.55,119.63L207.55,122.74L204.50,119.59L200.21,119.07L195.61,123.56L191.80,124.46L190.14,120.87L192.70,120.35L201.81,109.77L203.89,110.05L207.03,108.05L210.71,101.78L218.52,93.97L221.06,87.70L223.08,87.19L223.33,76.83L232.84,76.69Z"><title>Phrae</title></path>
<path data-code="TH-51" data-name="Lamphun" d="M190.24,88.71L189.74,90.24L187.02,90.98L181.50,99.65L177.94,100.82L181.12,112.97L184.64,117.00L184.18,118.86L181.77,119.17L182.32,120.63L179.35,127.27L173.83,126.21L171.75,130.73L165.88,132.73L164.97,125.71L166.87,123.77L165.43,121.31L171.03,122.96L173.06,121.87L173.64,118.51L171.39,112.50L169.46,111.86L168.71,100.77L164.22,98.33L165.00,93.22L174.30,88.74L177.75,82.90L179.30,83.45L183.19,81.38L184.83,81.38L186.66,84.29L186.24,86.01L190.24,88.71Z"><title>Lamphun</title></path>
<path data-code="TH-25" data-name="Prachin Buri" d="M265.79,285.93L265.07,279.75L268.74,277.31L272.77,276.89L271.77,273.51L275.50,270.12L275.72,268.32L280.44,267.88L279.22,264.25L276.23,261.70L279.24,260.16L281.66,261.60L284.87,261.40L290.35,266.28L290.84,264.95L295.95,263.02L299.82,264.28L298.37,267.76L302.65,271.78L302.33,274.09L299.65,277.22L296.89,278.09L296.82,281.07L295.12,282.41L294.56,286.47L296.45,287.34L296.70,289.33L295.40,291.27L293.00,291.34L290.45,287.97L288.29,288.41L287.74,289.89L283.64,288.77L282.64,290.14L273.96,285.50L268.08,284.87L265.79,285.93Z"><title>Prachin Buri</title></path>
<path data-code="TH-35" data-name="Yasothon" d="M398.13,224.07L393.02,221.95L388.79,216.36L387.90,213.67L391.26,211.90L388.98,207.89L387.81,207.87L387.17,202.77L385.55,201.77L385.61,202.88L383.00,203.82L384.14,200.91L383.03,199.03L383.47,196.24L387.08,195.95L386.88,191.48L392.14,188.26L397.20,181.69L403.00,180.91L408.50,186.24L410.45,185.17L415.51,186.96L415.87,188.16L406.24,191.29L401.64,199.13L400.02,207.06L400.80,210.70L403.92,213.78L399.16,215.19L398.29,219.76L400.48,221.16L400.59,222.71L399.76,225.46L398.13,224.07Z"><title>Yasothon</title></path>
  </g>
</svg>
