<?xml version="1.0" encoding="UTF-8"?>
<svg xmlns="http://www.w3.org/2000/svg" viewBox="0 0 560 640" class="pref-muni-svg" role="img" aria-label="行政区分">
  <g class="pref-muni-svg__paths" fill="#eaf2fb" stroke="#5b7fa8" stroke-width="0.6" stroke-linejoin="round">
<path data-code="AE-FU" data-name="Fujayrah" d="M535.33,212.92L547.60,206.05L548.14,202.64L551.96,199.26L549.62,230.64L540.95,229.38L543.35,237.40L539.25,246.66L537.35,241.96L527.22,232.49L525.92,227.87L526.78,212.33L532.04,210.99L535.33,212.92ZM538.14,198.05L531.92,200.92L530.69,198.57L524.83,198.52L523.22,200.72L529.01,202.48L522.17,211.90L507.12,211.16L506.12,204.13L509.48,200.45L506.77,197.96L508.83,191.86L511.89,194.90L518.61,196.70L524.12,192.94L523.40,189.58L519.05,187.32L522.85,182.42L522.52,179.59L520.03,176.86L515.88,178.70L506.96,177.98L505.26,165.82L511.19,164.11L515.93,159.68L525.92,157.50L530.02,159.06L531.94,162.49L540.22,161.29L547.11,164.12L550.49,173.91L549.93,186.62L539.47,194.55L538.14,198.05ZM544.20,250.03L539.72,254.99L537.27,252.16L537.98,249.64L544.20,250.03Z"><title>Fujayrah</title></path>
<path data-code="AE-SH" data-name="Sharjah" d="M548.14,202.64L538.14,198.05L539.47,194.55L549.93,186.62L549.39,193.56L551.96,199.26L548.14,202.64ZM552.00,241.81L545.86,242.50L544.40,247.81L542.23,247.16L540.58,245.13L543.35,237.40L540.95,229.38L549.62,230.64L552.00,241.81ZM505.96,242.57L497.04,243.01L485.98,253.24L484.80,257.07L486.08,277.16L471.49,275.21L472.63,267.73L470.39,252.08L465.69,239.20L470.00,232.31L465.37,216.16L446.40,201.06L438.39,202.81L432.39,201.02L436.73,198.92L436.98,194.63L439.42,194.82L443.65,190.18L453.64,193.99L464.59,193.82L466.64,187.26L451.29,182.04L453.90,175.45L476.49,188.70L483.16,194.97L485.94,202.31L488.66,204.66L497.87,202.51L498.16,196.23L500.56,196.00L502.39,198.69L504.81,191.41L508.83,191.86L504.70,201.09L507.12,211.16L503.25,215.92L506.28,221.09L502.86,230.30L505.96,242.57ZM539.63,204.22L541.27,205.38L540.66,207.42L538.41,208.20L538.02,204.88L539.63,204.22ZM527.22,232.49L537.35,241.96L539.83,249.78L537.98,249.64L537.27,252.16L529.73,250.10L530.06,243.25L525.88,234.67L527.22,232.49Z"><title>Sharjah</title></path>
<path data-code="AE-RK" data-name="Ras Al Khaymah" d="M535.08,200.35L536.36,204.63L532.23,207.44L532.04,210.99L526.78,212.33L525.92,227.87L527.22,232.49L525.88,234.67L530.06,243.25L529.73,250.10L537.27,252.16L539.72,254.99L533.96,259.64L520.63,261.39L511.54,253.68L509.32,244.55L505.96,242.57L502.86,230.30L506.28,221.09L503.25,215.92L507.12,211.16L522.87,211.52L529.01,202.48L523.22,200.72L525.73,197.87L530.69,198.57L531.92,200.92L535.08,200.35ZM525.79,105.80L529.42,113.27L527.96,130.35L524.47,137.03L528.12,144.19L524.64,148.23L525.92,157.50L515.93,159.68L509.93,164.82L506.18,165.10L504.81,167.58L506.96,177.98L521.05,177.61L523.13,181.34L519.05,187.32L523.40,189.58L524.12,192.94L518.61,196.70L505.67,190.90L502.39,198.69L495.19,190.28L496.10,186.10L490.33,178.84L486.31,161.44L479.98,156.96L494.91,147.32L504.13,136.95L501.59,142.78L503.30,143.34L504.84,135.64L512.16,127.37L513.32,123.32L509.54,126.62L517.43,107.50L525.79,105.80Z"><title>Ras Al Khaymah</title></path>
<path data-code="AE-DU" data-name="Dubay" d="M528.05,260.93L522.05,271.93L517.30,272.61L520.63,261.39L528.05,260.93ZM397.71,242.03L401.33,239.93L400.72,237.39L404.98,237.02L413.41,227.11L427.59,206.78L431.66,211.17L429.71,215.09L432.84,214.12L433.45,211.92L430.00,204.01L432.39,201.02L438.39,202.81L446.40,201.06L463.57,214.26L466.72,218.72L470.04,233.12L465.69,239.20L470.23,251.15L472.11,273.78L468.90,276.92L445.42,287.69L413.80,288.36L396.34,242.84L397.71,242.03Z"><title>Dubay</title></path>
<path data-code="AE-X01~" data-name="Neutral Zone" d="M544.40,247.81L543.33,250.46L539.83,249.78L539.25,246.66L540.58,245.13L544.40,247.81Z"><title>Neutral Zone</title></path>
<path data-code="AE-X02~" data-name="Neutral Zone" d="M511.99,256.33L511.54,253.68L520.63,261.39L517.30,272.61L512.25,269.61L508.92,261.07L503.90,255.40L506.25,253.24L511.99,256.33Z"><title>Neutral Zone</title></path>
<path data-code="AE-AZ" data-name="Abu Dhabi" d="M486.08,277.16L488.14,283.35L481.54,293.87L483.21,310.32L487.06,313.83L486.92,320.88L481.08,334.58L489.51,336.82L497.74,334.34L501.13,335.77L508.44,353.07L507.19,355.04L486.88,362.22L481.84,359.66L468.78,360.05L447.30,367.72L447.84,371.76L455.64,378.69L456.52,391.67L449.73,403.29L446.00,418.68L438.09,428.97L431.97,453.06L421.21,472.15L417.30,487.75L416.79,523.95L407.58,534.20L119.78,494.80L10.73,353.43L8.43,347.29L8.00,331.37L10.41,327.87L10.52,322.39L8.52,317.94L10.76,315.41L14.15,321.06L15.36,335.01L16.97,336.04L18.58,334.27L19.67,328.66L22.84,335.62L25.44,334.90L29.41,327.11L31.74,330.65L31.06,344.14L32.68,357.12L35.13,363.06L44.64,364.34L48.61,367.52L48.91,364.64L51.34,364.28L58.58,364.43L64.28,367.68L74.24,367.30L95.21,362.22L121.59,344.28L122.29,338.42L124.50,337.16L133.66,345.68L138.04,344.35L145.12,346.05L150.19,344.27L163.69,346.05L170.33,342.58L177.27,348.03L181.78,346.05L186.22,348.10L188.14,347.67L185.77,342.58L188.35,342.02L198.35,350.90L220.05,348.29L223.77,351.53L228.35,351.13L236.30,357.31L243.91,357.13L249.09,354.40L268.99,355.11L277.16,350.28L296.53,345.20L303.81,337.89L311.24,335.72L319.18,329.58L325.91,331.57L333.07,323.93L337.55,314.98L337.27,310.42L339.10,309.48L337.55,307.71L343.73,309.48L340.70,304.32L347.58,307.71L347.23,304.44L339.10,302.63L329.83,296.78L333.74,294.12L335.23,296.78L337.55,292.46L340.63,299.23L343.41,301.32L346.10,300.93L343.73,299.16L348.42,300.08L354.59,289.00L352.27,286.10L355.38,284.94L358.45,280.53L355.37,270.28L362.57,263.44L367.90,264.86L370.10,262.09L368.56,260.13L396.34,242.84L413.80,288.36L442.28,288.37L471.49,275.21L486.08,277.16ZM243.91,343.50L240.61,341.82L251.35,334.63L256.71,334.96L265.52,329.03L267.20,334.04L277.54,338.22L278.70,341.74L277.14,344.58L269.64,345.64L264.30,341.14L263.97,344.27L257.21,347.01L243.91,343.50ZM304.23,334.96L303.11,332.75L295.39,329.45L294.15,326.22L295.70,323.64L298.15,322.60L303.96,328.73L304.23,334.96ZM121.58,320.49L125.72,316.85L128.36,317.68L130.22,322.85L123.58,331.72L119.51,325.08L121.58,320.49ZM206.14,330.57L200.86,327.34L199.75,329.19L190.75,328.92L190.53,327.55L191.63,325.57L197.00,326.21L206.92,321.46L211.11,323.55L210.53,319.64L216.77,311.94L220.19,316.04L219.44,320.82L208.75,326.14L206.14,330.57ZM325.91,308.63L320.51,306.94L320.51,304.98L327.45,298.32L327.50,303.18L333.69,306.94L335.85,310.43L325.91,308.63ZM312.78,326.62L307.78,327.86L303.37,324.08L303.53,321.34L308.94,318.80L313.58,325.57L312.78,326.62ZM319.50,316.88L320.66,319.69L317.59,324.22L314.21,317.94L317.86,319.08L315.67,315.46L319.50,316.88ZM91.67,296.23L95.00,300.94L92.17,304.15L88.67,301.50L91.67,296.23ZM57.20,331.79L59.54,332.67L57.56,337.00L56.02,335.96L57.20,331.79ZM25.49,287.81L27.23,289.88L26.18,293.04L24.21,289.64L25.49,287.81ZM176.54,252.32L178.64,252.63L178.64,257.28L176.54,252.32ZM306.53,208.18L308.79,208.91L309.78,213.23L305.04,210.34L306.53,208.18Z"><title>Abu Dhabi</title></path>
<path data-code="AE-UQ" data-name="Umm Al Qaywayn" d="M453.90,175.45L456.21,169.35L459.88,166.59L456.96,171.82L457.63,173.44L466.46,172.59L469.91,164.97L479.98,156.96L486.31,161.44L490.33,178.84L496.10,186.10L495.19,190.28L500.56,196.00L497.99,196.67L498.83,201.31L493.24,204.36L487.59,204.24L483.16,194.97L476.49,188.70L453.90,175.45Z"><title>Umm Al Qaywayn</title></path>
<path data-code="AE-AJ" data-name="Ajman" d="M443.65,190.18L445.29,187.91L447.13,189.51L449.07,187.91L451.29,182.04L467.13,187.87L463.20,194.51L449.69,193.12L443.65,190.18ZM506.77,197.96L509.48,200.45L506.12,204.13L504.77,200.37L506.77,197.96Z"><title>Ajman</title></path>
  </g>
</svg>
