<?xml version="1.0" encoding="UTF-8"?>
<svg xmlns="http://www.w3.org/2000/svg" viewBox="0 0 560 640" class="pref-muni-svg" role="img" aria-label="行政区分">
  <g class="pref-muni-svg__paths" fill="#eaf2fb" stroke="#5b7fa8" stroke-width="0.6" stroke-linejoin="round">
<path data-code="UA-74" data-name="Chernihiv" d="M289.92,167.64L301.50,168.46L303.06,171.70L308.65,171.17L314.15,168.33L316.84,161.71L316.44,158.30L333.20,161.99L341.46,156.21L348.03,157.26L345.53,163.42L345.78,166.03L350.52,169.98L347.39,170.43L347.00,175.47L340.79,177.42L337.82,182.52L340.57,187.09L340.01,188.71L341.43,192.42L340.55,193.82L341.58,195.21L339.64,195.46L339.42,201.68L335.99,201.38L337.61,203.45L338.06,207.44L334.84,210.67L334.12,214.38L337.71,215.27L337.27,216.59L338.47,217.36L342.19,216.63L340.64,218.96L341.49,222.62L339.64,227.38L340.98,230.61L336.66,242.13L332.12,246.56L327.71,248.25L321.65,247.90L320.16,246.03L317.11,245.92L312.51,248.92L309.97,248.61L304.97,242.87L306.70,241.54L306.62,239.68L304.62,239.45L301.43,236.18L299.63,236.51L298.17,239.31L294.10,240.94L285.49,241.36L281.02,237.73L282.18,236.11L282.01,234.47L278.29,229.50L270.65,230.89L267.67,229.82L268.95,226.01L265.18,223.79L265.00,219.50L260.87,218.08L260.98,208.54L262.20,208.23L264.89,202.01L263.15,199.26L264.07,197.44L262.40,194.94L263.03,194.00L261.18,193.06L261.80,192.15L260.96,191.19L262.21,190.27L262.62,186.78L264.27,186.50L264.91,184.28L264.07,183.97L267.79,177.71L269.20,177.59L272.48,173.11L273.82,173.32L272.91,172.00L273.61,169.84L279.66,169.52L282.50,171.28L284.78,168.57L289.92,167.64Z"><title>Chernihiv</title></path>
<path data-code="UA-07" data-name="Volyn" d="M100.06,175.34L114.52,178.05L113.56,178.89L113.79,181.43L109.91,186.84L109.96,190.53L112.72,192.18L111.17,194.77L111.29,202.84L112.12,203.60L113.57,202.04L119.28,201.24L119.07,204.06L126.49,210.54L126.14,212.61L123.22,213.89L123.19,215.51L125.71,215.61L127.48,218.63L127.41,219.94L123.94,221.35L125.14,223.09L123.67,225.35L124.80,226.41L120.94,228.34L120.76,232.72L119.49,235.73L114.31,232.26L108.06,234.66L105.49,233.55L105.16,235.70L106.10,236.48L103.27,236.52L103.17,239.77L98.52,239.51L98.24,240.49L99.60,241.72L97.29,243.49L100.67,247.21L96.44,251.14L95.84,248.67L92.47,247.69L86.19,248.90L81.37,244.64L79.69,245.96L77.94,243.12L80.50,241.74L79.46,239.66L77.45,239.50L75.17,236.72L72.16,238.28L69.32,235.32L67.61,235.78L66.79,231.99L65.16,231.30L65.13,229.51L63.07,227.63L68.67,225.42L63.72,221.70L61.68,218.53L60.23,212.05L53.34,204.88L55.22,200.31L53.75,198.05L54.17,196.84L52.72,196.06L52.10,191.13L56.79,189.32L63.78,192.00L71.71,185.94L75.50,178.75L86.13,178.42L100.06,175.34Z"><title>Volyn</title></path>
<path data-code="UA-56" data-name="Rivne" d="M111.04,176.72L126.23,177.39L129.99,179.60L137.01,179.88L138.15,181.94L144.79,182.13L152.49,184.83L159.44,184.18L160.25,184.62L160.58,188.43L163.25,189.01L162.95,191.93L170.34,190.30L176.16,192.81L174.98,196.39L172.56,197.21L172.99,200.89L170.03,198.68L170.25,203.17L167.45,205.00L168.43,208.40L163.92,216.68L160.88,219.11L162.01,221.84L161.68,227.94L163.08,230.87L160.72,236.15L161.99,237.94L160.68,239.86L157.82,237.78L154.17,240.86L151.91,240.29L149.06,241.70L148.74,243.51L147.03,243.35L144.11,248.20L139.18,253.03L136.28,253.46L131.74,257.67L130.79,255.07L131.40,252.66L129.35,253.58L126.67,252.50L123.11,252.53L118.94,256.44L111.62,258.20L108.21,257.19L108.62,259.83L105.62,264.05L100.35,259.94L99.50,254.70L100.78,253.19L100.43,251.45L96.44,251.14L100.67,247.21L97.29,243.49L99.60,241.72L98.22,239.91L103.50,239.49L103.27,236.52L106.10,236.48L105.16,235.70L105.49,233.55L108.06,234.66L114.31,232.26L119.66,235.64L120.94,228.34L124.80,226.41L123.67,225.35L125.13,223.27L124.07,221.02L127.59,219.52L125.95,215.80L123.09,215.40L123.27,213.61L126.14,212.61L126.49,210.54L119.07,204.06L119.28,201.24L113.57,202.04L112.12,203.60L111.29,202.84L111.17,194.77L112.72,192.18L109.96,190.53L109.91,186.84L113.79,181.43L113.56,178.89L114.52,178.05L111.04,176.72Z"><title>Rivne</title></path>
<path data-code="UA-18" data-name="Zhytomyr" d="M191.39,188.98L195.13,194.64L198.97,192.65L203.28,193.48L204.29,198.24L206.30,198.56L207.05,200.46L209.19,194.44L214.66,192.75L216.55,190.16L218.97,190.21L222.07,195.06L221.90,197.45L224.20,201.72L227.01,202.12L226.54,205.79L223.40,207.99L224.61,213.40L226.18,212.35L229.95,215.79L229.18,220.23L227.10,220.21L230.48,224.78L230.02,228.88L232.36,229.28L233.11,232.07L229.74,237.09L230.72,238.66L229.52,240.50L230.29,242.12L228.09,245.32L232.35,246.01L233.59,249.92L236.20,252.42L236.10,256.30L237.40,259.08L235.43,260.85L235.51,263.90L237.36,267.61L234.25,270.90L228.57,273.88L227.86,277.93L229.81,278.51L228.73,280.64L223.21,283.68L215.02,283.28L213.65,279.38L215.37,276.82L213.49,274.36L212.50,270.49L210.27,270.08L206.79,274.08L198.06,273.45L195.72,275.11L181.07,275.64L174.82,273.86L172.91,269.56L171.20,268.54L172.41,266.87L171.29,264.32L174.91,263.16L173.62,261.01L174.49,257.29L173.21,253.23L169.62,254.40L161.77,246.93L162.52,244.12L164.07,242.75L160.68,239.86L161.99,237.94L160.72,236.15L163.08,230.87L161.68,227.94L162.01,221.84L160.88,219.11L163.92,216.68L168.43,208.40L167.45,205.00L170.25,203.17L170.03,198.68L172.99,200.89L172.56,197.21L174.98,196.39L176.91,197.53L178.80,195.14L179.96,190.76L183.69,193.15L187.19,193.30L191.39,188.98Z"><title>Zhytomyr</title></path>
<path data-code="UA-32" data-name="Kiev" d="M235.17,196.25L237.50,198.71L240.24,199.14L241.98,197.55L250.76,196.88L255.07,200.42L254.98,203.24L256.13,204.86L262.15,207.73L260.95,208.75L260.91,218.24L265.00,219.50L265.18,223.79L268.95,226.01L267.77,229.95L270.65,230.89L278.29,229.50L282.01,234.47L282.18,236.11L281.02,237.73L285.49,241.36L294.10,240.94L298.17,239.31L299.63,236.51L301.16,236.07L304.62,239.45L306.62,239.68L306.70,241.54L304.97,242.87L309.97,248.61L307.86,253.71L305.75,253.35L304.96,254.75L305.39,256.89L301.34,260.07L301.90,263.57L300.03,264.39L299.93,266.47L297.21,271.58L294.09,271.14L293.59,269.34L290.58,271.97L288.57,268.95L281.99,271.34L280.98,272.97L281.59,273.61L280.86,279.68L279.46,282.31L280.29,284.97L274.09,291.48L272.81,294.60L267.30,295.76L266.07,294.25L260.45,295.62L258.62,294.49L256.94,299.78L250.52,297.44L250.93,295.73L249.99,295.36L248.56,296.65L248.78,297.86L246.58,297.39L243.00,299.17L241.46,302.40L238.21,302.45L237.59,300.52L234.61,299.23L230.32,293.70L232.40,291.14L231.53,288.11L232.35,286.26L230.21,284.22L230.64,281.12L228.73,280.64L229.80,278.27L227.89,278.02L228.43,274.23L237.19,267.91L235.51,263.90L235.43,260.53L237.39,258.88L236.10,256.30L236.20,252.42L233.59,249.92L232.35,246.01L228.09,245.32L230.29,242.12L229.52,240.50L230.72,238.66L229.74,237.09L233.11,232.07L232.36,229.28L230.02,228.88L230.48,224.78L227.10,220.21L229.18,220.23L229.95,215.79L226.18,212.35L224.61,213.40L223.40,207.99L226.84,205.18L227.04,202.25L225.89,201.57L229.30,201.20L230.49,198.80L235.17,196.25ZM268.15,251.40L270.94,248.45L268.35,244.50L268.06,241.45L270.83,237.90L270.60,235.39L267.70,234.04L264.94,238.30L262.06,238.04L261.95,239.50L258.47,234.30L253.56,235.63L254.03,237.67L252.95,237.13L253.22,238.73L251.97,239.80L251.02,246.91L255.03,245.95L257.90,250.73L257.80,252.65L258.86,252.57L259.80,255.49L261.13,255.94L260.83,257.95L262.57,260.48L263.08,264.00L264.97,263.10L264.14,259.03L265.16,257.50L263.70,252.40L267.08,252.62L267.27,250.47L268.15,251.40Z"><title>Kiev</title></path>
<path data-code="UA-21" data-name="Transcarpathia" d="M8.00,337.72L8.18,330.17L13.36,325.03L15.12,317.03L17.54,311.76L19.70,310.78L20.91,306.54L23.39,308.48L30.64,310.18L31.01,313.69L33.63,316.91L37.56,316.40L40.25,320.66L43.17,320.48L43.48,321.90L44.93,320.96L45.81,322.62L51.48,323.47L55.08,326.73L57.45,326.73L58.05,329.06L61.40,331.37L61.85,334.53L68.25,331.83L68.90,339.36L71.41,340.20L74.36,339.09L74.86,340.80L79.42,344.22L80.74,346.68L80.29,349.57L83.69,353.84L81.54,359.13L76.69,358.46L70.66,360.95L64.61,358.04L59.98,359.27L57.71,356.83L51.17,356.00L48.08,357.57L38.37,351.77L36.07,355.92L34.30,357.04L31.88,356.04L31.63,358.13L30.47,358.70L29.11,357.23L29.79,354.09L28.18,352.09L26.50,350.93L22.26,351.82L18.52,345.15L14.77,345.12L13.01,340.27L11.74,339.89L12.19,337.78L8.00,337.72Z"><title>Transcarpathia</title></path>
<path data-code="UA-77" data-name="Chernivtsi" d="M143.35,344.40L133.86,346.55L132.87,351.97L129.92,356.57L102.42,360.91L96.94,368.04L92.38,369.36L94.07,363.57L92.36,356.40L94.20,351.67L98.76,347.94L98.77,345.64L105.68,338.84L112.18,338.26L112.81,332.37L111.59,327.62L113.72,325.20L116.10,325.82L116.93,327.41L118.47,325.57L120.57,328.74L122.52,329.38L126.18,326.59L127.11,331.19L128.61,330.86L127.79,328.48L128.72,328.35L129.21,331.54L130.16,332.13L135.41,332.89L138.90,331.61L142.98,335.57L143.28,333.04L146.10,333.50L143.19,331.03L146.48,331.75L146.34,329.02L148.02,331.02L148.47,328.69L149.41,328.47L150.63,331.51L153.23,329.63L162.35,330.13L162.78,328.97L161.95,327.93L164.99,328.69L166.06,327.41L168.10,328.66L170.08,334.62L167.05,337.41L164.11,336.85L161.17,339.74L156.01,337.95L155.88,339.76L153.17,340.17L149.81,338.33L148.16,339.49L148.41,342.79L145.22,341.14L143.35,344.40Z"><title>Chernivtsi</title></path>
<path data-code="UA-26" data-name="Ivano-Frankivs'k" d="M92.38,369.36L84.84,363.58L83.94,361.06L81.54,359.13L83.69,353.84L80.29,349.57L80.69,346.51L73.69,338.52L72.09,340.09L68.90,339.36L68.38,331.93L61.85,334.53L61.53,331.62L58.05,329.06L57.60,326.85L55.08,326.73L50.25,323.11L51.53,318.06L50.72,315.72L51.57,311.89L55.62,305.68L69.12,304.27L77.66,301.56L76.95,299.68L75.12,299.41L75.30,296.83L72.85,296.66L77.12,293.67L75.91,292.42L77.59,286.83L81.99,286.45L85.68,287.93L88.61,292.64L89.64,298.44L90.88,299.95L90.30,304.99L93.97,305.91L94.09,308.08L91.62,307.66L91.43,308.63L94.30,311.85L98.13,312.68L99.52,316.61L100.48,314.22L101.94,313.60L101.32,317.69L104.41,317.69L102.07,318.80L102.10,320.75L105.21,318.98L105.27,317.11L107.81,316.41L108.74,316.75L108.44,318.46L113.84,322.13L113.72,325.20L111.59,327.62L112.81,332.37L112.18,338.26L105.68,338.84L98.77,345.64L98.76,347.94L94.20,351.67L92.36,356.40L94.07,363.57L92.38,369.36Z"><title>Ivano-Frankivs'k</title></path>
<path data-code="UA-51" data-name="Odessa" d="M191.48,473.06L191.61,471.08L193.22,469.79L200.21,470.38L200.09,468.09L201.26,467.12L199.36,463.54L202.00,460.86L202.46,458.78L205.27,458.07L205.27,456.48L207.34,455.31L207.39,450.02L213.93,447.81L213.39,443.78L215.70,439.51L213.23,436.01L212.80,429.34L213.60,427.04L220.79,423.23L221.29,431.52L223.78,429.67L224.49,426.25L226.54,428.81L229.04,425.67L229.91,426.08L229.74,428.40L233.81,431.30L234.98,428.51L236.44,428.25L236.78,426.29L240.22,432.33L242.96,430.76L247.86,430.73L249.38,428.51L247.73,428.51L245.50,425.24L242.45,423.56L243.89,421.36L243.24,410.78L232.09,404.55L233.40,399.27L232.44,397.88L230.93,399.32L229.65,396.96L231.68,395.86L231.65,391.34L232.74,390.14L232.03,387.22L229.74,386.57L229.09,388.62L227.59,389.25L222.25,381.62L219.93,381.45L218.78,377.64L222.43,367.44L220.60,365.89L222.36,362.18L220.44,361.25L218.98,357.36L214.66,359.63L211.07,356.24L216.63,352.45L216.59,350.10L218.37,349.68L222.67,352.39L228.80,351.06L235.60,352.13L236.30,350.23L235.49,348.13L239.99,346.59L241.86,348.01L243.27,346.08L245.31,346.14L247.93,349.68L254.25,350.04L254.93,352.00L251.76,353.15L251.93,356.32L254.33,358.57L255.41,364.45L257.32,365.78L256.85,367.84L257.90,369.10L258.10,372.37L259.77,373.57L265.50,373.41L266.38,375.13L268.94,373.04L269.12,375.20L271.61,377.17L270.57,382.39L273.03,389.39L276.78,390.57L280.23,389.62L280.78,391.05L279.10,393.71L282.33,394.47L284.77,397.40L282.35,403.10L276.54,404.46L280.48,410.07L281.26,419.06L269.27,422.55L268.19,424.24L269.50,427.42L268.72,429.71L266.97,431.93L265.08,432.09L266.14,433.72L265.13,435.98L260.32,444.19L253.30,452.66L249.59,456.13L249.26,452.85L248.26,456.35L244.46,455.25L243.99,458.32L243.45,456.30L242.96,457.04L243.37,460.51L242.02,458.63L239.45,459.90L239.47,461.42L241.34,462.88L237.38,465.54L235.83,461.76L236.17,457.89L234.35,456.06L234.91,457.54L234.06,459.26L234.47,461.16L233.44,462.01L233.03,468.07L234.80,468.70L236.57,467.42L233.51,471.78L234.57,473.44L235.52,471.83L235.61,473.09L236.76,473.70L237.33,471.89L238.01,473.19L237.19,474.64L238.01,479.36L236.62,483.45L235.12,483.79L234.86,477.83L228.23,473.96L222.12,474.27L214.44,478.85L213.12,480.90L208.89,478.96L207.98,481.12L209.28,482.50L206.48,483.28L195.72,479.37L193.70,474.36L191.48,473.06ZM242.96,462.04L249.21,456.51L242.64,463.15L237.29,466.59L242.96,462.04Z"><title>Odessa</title></path>
<path data-code="UA-05" data-name="Vinnytsya" d="M173.80,335.59L173.13,334.08L170.08,334.62L168.10,328.66L166.06,327.41L166.83,321.41L167.74,320.82L166.10,313.43L166.80,309.65L169.98,304.68L172.19,304.84L173.46,303.13L178.19,305.12L181.67,303.18L180.69,299.38L181.35,297.77L179.12,293.09L180.21,291.38L177.30,290.46L177.92,288.94L176.74,287.55L178.55,285.90L178.03,284.50L179.49,281.55L177.56,279.60L177.88,278.40L179.45,278.20L180.12,277.21L179.43,276.51L181.07,275.64L195.72,275.11L198.06,273.45L206.79,274.08L210.27,270.08L212.50,270.49L213.49,274.36L215.37,276.82L213.65,279.38L215.02,283.28L223.21,283.68L227.98,280.62L230.64,281.12L230.21,284.22L232.29,286.06L231.53,288.11L232.43,290.73L230.32,293.70L231.27,295.90L235.99,299.40L235.59,301.18L236.72,302.30L235.58,306.40L233.18,309.22L235.48,310.39L234.42,312.88L236.84,314.38L236.47,316.52L237.72,317.39L238.54,321.02L241.91,322.21L241.16,324.27L244.15,326.24L246.06,331.82L244.14,335.22L247.71,335.41L243.60,339.06L242.91,336.64L241.89,336.44L238.86,339.91L237.51,343.89L238.98,345.80L235.35,348.33L236.30,350.23L235.60,352.13L228.80,351.06L222.67,352.39L217.83,349.59L216.51,350.23L216.63,352.45L211.07,356.24L208.33,350.56L201.40,349.12L199.53,353.29L197.48,348.44L194.63,350.06L196.02,347.51L195.85,345.33L191.60,346.73L190.44,344.40L187.87,345.38L187.36,341.83L182.84,340.71L177.57,335.56L173.80,335.59Z"><title>Vinnytsya</title></path>
<path data-code="UA-46" data-name="L'viv" d="M24.75,303.31L26.26,297.84L25.71,292.91L23.33,286.23L27.11,279.57L28.94,278.51L37.23,266.61L53.61,250.32L55.16,247.39L63.78,246.11L64.67,242.07L67.56,239.97L66.92,236.96L68.15,235.25L72.16,238.28L75.17,236.72L77.45,239.50L79.46,239.66L80.50,241.74L77.94,243.12L79.69,245.96L81.19,244.56L85.87,248.82L92.47,247.69L96.14,248.85L96.64,251.61L100.43,251.45L100.78,253.19L99.50,254.70L100.35,259.94L105.62,264.05L107.61,267.15L106.39,267.99L105.87,270.49L97.33,273.09L97.58,277.23L95.17,277.58L92.96,281.73L86.48,284.79L85.68,287.93L81.99,286.45L77.42,286.99L75.91,292.42L77.12,293.67L72.85,296.66L75.30,296.83L75.12,299.41L76.95,299.68L77.47,301.74L55.10,306.12L51.57,311.89L50.72,315.72L51.53,318.06L50.25,323.11L40.25,320.66L37.56,316.40L33.63,316.91L31.01,313.69L31.19,310.85L29.57,308.91L29.75,306.57L24.75,303.31Z"><title>L'viv</title></path>
<path data-code="UA-59" data-name="Sumy" d="M358.08,156.50L360.21,156.79L367.80,165.23L369.03,175.24L375.01,178.81L378.58,183.22L378.62,185.11L377.48,186.38L368.81,188.30L368.52,189.38L370.35,190.39L372.87,195.26L372.67,199.74L371.73,200.79L375.18,201.97L375.44,203.51L371.73,207.44L384.48,208.12L386.49,211.16L398.67,209.33L400.63,216.16L407.01,217.67L404.69,219.18L404.81,220.94L406.61,222.69L407.74,228.13L409.53,229.72L410.45,234.02L407.65,235.58L409.13,241.72L412.62,244.03L414.17,248.13L416.95,249.67L411.41,249.92L411.46,250.89L408.46,249.36L407.93,251.20L405.98,250.81L403.60,253.83L400.16,253.51L397.21,256.78L395.55,255.85L393.53,257.96L387.39,257.73L386.32,259.35L380.54,259.74L379.99,257.33L381.39,255.60L378.98,252.19L377.26,252.14L377.51,248.80L373.92,244.69L373.54,240.16L367.78,243.09L363.05,240.25L360.27,241.40L361.34,242.56L357.99,243.50L344.54,239.64L341.80,240.95L337.80,239.98L339.05,234.23L340.98,230.61L339.64,227.38L341.49,222.62L340.64,218.96L342.19,216.63L338.47,217.36L337.27,216.59L337.71,215.27L334.12,214.38L334.84,210.67L338.06,207.44L337.61,203.45L335.99,201.38L339.42,201.68L339.64,195.46L341.58,195.21L340.55,193.82L341.43,192.42L340.01,188.71L340.57,187.09L337.82,182.52L340.79,177.42L347.00,175.47L347.39,170.43L350.52,169.98L345.78,166.03L345.53,163.42L348.03,157.26L350.44,156.65L351.34,159.86L358.08,156.50Z"><title>Sumy</title></path>
<path data-code="UA-63" data-name="Kharkiv" d="M469.18,244.86L471.14,249.07L474.73,251.32L474.47,255.31L478.61,261.04L484.29,264.50L489.27,271.69L486.83,272.77L488.19,274.50L485.02,277.15L486.78,277.68L486.84,280.38L485.16,283.12L485.72,286.63L482.63,291.09L483.36,296.11L484.60,297.45L481.82,300.95L472.98,300.14L471.89,302.03L475.05,303.57L467.80,308.19L465.46,311.38L466.14,313.82L463.32,315.15L462.00,318.32L459.33,317.67L457.21,318.99L456.60,320.01L457.37,321.50L453.36,319.57L451.23,320.88L447.65,320.16L448.37,327.59L444.43,328.70L440.69,326.68L438.01,329.67L437.78,331.45L435.19,332.12L435.76,330.15L434.55,328.88L435.10,327.21L430.48,323.11L431.42,321.11L428.65,318.28L425.33,317.10L427.14,315.03L425.04,311.89L420.27,313.47L410.25,311.60L401.42,303.71L395.81,302.95L394.88,299.12L395.48,297.60L397.31,295.78L401.99,297.08L404.72,295.81L407.18,292.50L405.95,288.44L410.32,287.81L408.09,285.23L410.63,284.78L408.78,280.66L409.08,279.13L406.61,279.79L403.51,278.18L401.32,271.46L394.75,269.62L392.19,267.29L391.51,264.64L393.68,262.10L393.53,257.96L395.40,255.97L397.05,256.83L400.16,253.51L403.84,253.72L404.13,252.05L407.93,251.20L408.46,249.36L411.46,250.89L411.41,249.92L416.55,249.99L421.57,245.26L429.67,245.36L434.59,251.76L438.85,250.70L442.66,252.39L442.61,254.57L444.41,255.28L452.09,249.82L462.60,248.05L465.26,245.62L469.18,244.86Z"><title>Kharkiv</title></path>
<path data-code="UA-09" data-name="Luhans'k" d="M492.56,261.77L495.88,261.87L497.57,265.54L501.84,267.02L506.89,266.24L507.57,268.60L512.55,270.79L515.12,273.65L518.49,273.32L521.71,270.44L524.88,276.35L533.83,277.29L535.81,282.35L541.20,285.62L547.13,282.59L551.13,283.89L548.24,288.14L552.00,295.17L551.46,299.20L545.74,304.75L544.73,308.26L537.56,309.52L537.35,311.82L539.90,315.24L545.69,317.20L547.45,315.59L548.81,316.44L546.44,320.09L540.53,319.26L538.22,322.06L536.07,329.38L542.22,329.99L543.25,332.90L542.50,334.11L544.90,339.03L541.63,342.14L546.98,343.74L542.45,350.77L542.45,354.59L539.94,355.58L541.03,358.03L539.91,363.91L538.16,364.89L526.66,363.31L519.81,363.95L518.10,362.81L518.68,360.04L517.83,355.96L512.18,354.98L510.98,353.66L511.40,351.16L505.05,348.06L503.92,343.54L499.61,343.18L499.20,341.41L501.33,339.88L498.88,336.00L496.19,335.65L496.30,332.42L494.68,331.33L494.34,325.69L496.08,323.03L494.87,322.70L495.78,320.39L495.27,317.82L493.80,317.13L493.17,313.94L487.13,312.55L489.16,310.53L488.07,307.25L488.96,303.67L485.96,304.43L483.67,303.29L483.55,302.00L484.83,301.31L482.22,299.84L484.69,297.13L483.36,296.11L482.63,291.09L485.72,286.63L485.16,283.12L486.86,280.19L486.78,277.68L485.02,277.15L488.19,274.50L486.83,272.77L489.25,271.83L487.52,268.81L491.85,267.37L492.56,261.77Z"><title>Luhans'k</title></path>
<path data-code="UA-14" data-name="Donets'k" d="M518.10,362.81L511.91,363.21L509.00,371.05L506.81,370.77L503.80,373.36L496.46,374.98L494.69,379.49L494.61,384.05L492.53,388.28L495.64,388.92L495.83,390.34L492.97,393.26L493.37,397.34L491.12,400.34L490.09,400.86L490.76,398.65L488.99,397.50L474.18,397.93L471.23,400.42L466.77,407.45L463.51,404.95L457.79,407.72L456.94,405.42L460.11,403.64L459.48,402.07L460.23,400.78L456.98,399.06L455.52,395.67L452.32,393.19L454.80,392.49L454.22,388.27L457.53,388.90L458.84,388.30L460.11,385.05L462.16,385.89L463.32,381.21L460.54,381.40L454.97,375.94L453.43,376.83L450.55,374.11L449.17,374.51L448.20,371.94L449.03,371.15L447.69,370.42L446.18,365.98L444.09,365.82L443.66,362.34L442.51,361.42L445.60,359.85L443.88,357.60L444.12,352.76L446.55,352.23L451.80,354.68L453.41,353.17L452.79,348.59L454.46,347.03L453.76,342.62L450.97,341.34L450.89,337.34L452.04,336.38L451.69,334.44L453.36,331.80L453.26,329.98L451.20,329.77L450.47,331.76L449.06,331.94L450.32,328.72L448.57,328.50L447.30,320.64L451.23,320.88L453.36,319.57L457.37,321.50L456.60,320.01L457.21,318.99L459.33,317.67L462.00,318.32L463.32,315.15L466.14,313.82L465.46,311.38L467.80,308.19L475.05,303.57L471.89,302.03L473.16,300.04L479.92,301.09L482.57,299.87L484.83,301.31L483.55,302.00L483.67,303.29L485.96,304.43L488.84,303.58L488.07,307.25L489.16,310.53L487.07,312.41L493.17,313.94L493.80,317.13L495.27,317.82L495.78,320.39L494.87,322.70L496.08,323.03L494.34,325.69L494.68,331.33L496.30,332.42L496.19,335.65L498.88,336.00L501.33,339.88L499.20,341.41L499.61,343.18L503.92,343.54L505.05,348.06L511.40,351.16L510.98,353.66L512.18,354.98L517.83,355.96L518.68,360.04L518.10,362.81Z"><title>Donets'k</title></path>
<path data-code="UA-65" data-name="Kherson" d="M396.36,460.29L394.86,460.61L390.56,457.72L389.79,452.48L386.90,449.06L382.11,448.74L380.14,449.92L376.20,444.68L368.17,443.08L361.48,438.91L356.17,437.88L355.87,441.09L352.54,441.62L351.98,442.98L352.78,443.87L350.90,444.77L351.52,445.75L348.73,445.43L346.74,443.12L344.70,443.54L345.47,441.87L342.42,442.00L343.04,437.62L339.65,441.65L336.65,440.09L336.49,442.03L328.89,441.66L320.96,444.39L313.69,442.00L313.07,439.78L313.89,438.50L309.65,438.27L302.32,433.21L302.21,435.09L299.76,434.82L298.74,433.30L307.63,429.84L306.00,427.31L300.22,425.75L301.29,423.96L316.66,426.49L318.65,425.02L318.09,424.18L318.91,422.99L325.25,418.12L318.11,421.81L315.90,422.12L313.26,420.05L310.18,422.21L309.32,420.07L306.04,418.57L304.75,414.57L310.43,413.90L312.67,410.88L316.36,411.42L317.51,409.42L321.54,409.71L322.14,407.83L327.15,410.14L334.16,408.39L330.12,407.46L336.25,404.99L334.65,404.19L334.47,402.72L336.70,403.44L337.80,401.37L333.38,397.32L335.22,393.51L337.03,393.92L340.05,391.79L339.11,389.59L339.58,386.06L336.73,383.34L337.72,381.35L338.51,383.04L339.87,382.71L338.64,375.37L344.50,377.36L346.19,379.39L352.93,375.71L353.58,378.49L355.34,379.69L363.16,378.50L372.27,380.15L375.13,389.60L381.40,387.69L380.46,389.53L383.01,401.54L389.91,408.38L390.09,409.99L385.17,416.31L388.23,417.54L387.91,420.44L389.12,422.81L392.00,423.06L391.89,424.96L397.36,426.97L398.10,433.86L399.47,434.36L397.23,436.34L393.09,436.34L390.60,440.26L392.51,451.26L396.36,460.29ZM404.73,436.19L401.18,442.00L395.76,444.31L397.64,441.37L402.35,439.49L404.73,436.19ZM335.62,445.92L337.68,446.72L324.46,445.13L335.62,445.92ZM303.96,438.50L310.78,441.03L293.10,435.84L290.81,430.77L294.24,436.00L303.96,438.50Z"><title>Kherson</title></path>
<path data-code="UA-23" data-name="Zaporizhzhya" d="M421.26,419.32L411.13,427.35L404.73,436.19L406.74,431.34L404.37,431.79L404.88,427.84L402.77,426.68L401.98,424.40L401.33,425.28L402.62,429.71L399.47,434.36L398.39,434.14L397.19,426.58L391.89,424.96L392.00,423.06L389.12,422.81L387.91,420.44L388.23,417.54L385.17,416.31L390.16,409.42L387.91,405.43L384.48,403.94L383.01,401.54L380.46,389.53L381.40,387.69L375.13,389.60L372.27,380.15L384.06,376.02L393.60,377.96L394.18,375.92L393.15,374.54L394.62,367.89L392.87,367.25L393.34,364.01L390.51,361.87L393.79,358.50L390.71,355.71L391.49,350.88L392.37,350.79L392.69,352.50L394.58,352.55L397.16,350.79L403.70,350.30L411.83,352.62L416.64,350.44L420.71,353.20L425.39,352.18L425.71,354.95L427.82,354.28L427.12,356.07L428.26,358.50L430.03,359.07L429.44,362.06L428.31,362.04L428.85,363.35L432.62,362.55L432.96,364.03L435.11,364.81L443.86,363.40L444.09,365.82L446.18,365.98L447.69,370.42L449.03,371.15L448.20,371.94L449.17,374.51L450.55,374.11L453.43,376.83L454.97,375.94L460.54,381.40L463.27,381.08L462.16,385.89L460.11,385.05L458.84,388.30L457.53,388.90L454.22,388.27L454.80,392.49L452.32,393.19L455.52,395.67L456.98,399.06L460.23,400.78L459.48,402.07L460.14,403.45L456.94,405.42L457.79,407.72L452.24,411.21L449.69,418.68L448.92,418.12L449.76,418.40L450.69,414.67L445.61,412.15L438.55,414.71L435.63,417.68L434.87,420.05L432.19,417.23L421.26,419.32Z"><title>Zaporizhzhya</title></path>
<path data-code="UA-48" data-name="Mykolayiv" d="M300.22,425.75L297.04,425.18L296.31,428.18L290.93,420.96L293.14,422.90L298.41,422.48L301.29,423.96L300.22,425.75ZM304.71,414.80L303.84,411.21L305.97,405.25L303.83,404.14L305.07,401.64L301.70,400.86L302.65,397.82L297.97,390.20L297.52,391.97L299.92,393.24L300.20,396.45L301.97,397.77L300.86,401.68L304.17,402.11L302.73,404.64L304.81,404.95L304.11,408.50L301.68,410.93L302.95,414.06L302.73,418.12L300.17,419.33L295.93,417.95L293.06,419.60L290.23,418.91L293.88,410.02L290.93,413.74L288.89,411.21L290.85,414.87L288.15,419.05L285.78,420.33L281.23,419.05L280.48,410.07L276.54,404.46L282.35,403.10L284.77,397.40L282.33,394.47L279.10,393.71L280.78,391.05L280.23,389.62L276.78,390.57L273.03,389.39L270.57,382.39L271.61,377.17L269.12,375.20L268.94,373.04L266.38,375.13L265.50,373.41L259.77,373.57L258.10,372.37L257.90,369.10L256.85,367.84L257.32,365.78L255.29,364.24L254.33,358.57L251.97,356.44L251.76,353.15L254.82,352.13L254.25,350.04L255.90,348.77L264.12,349.62L266.68,347.94L270.06,348.97L271.28,347.73L272.76,349.06L276.85,346.22L280.68,346.56L283.14,350.72L290.79,350.85L291.03,353.74L294.19,350.82L298.46,351.89L298.80,354.11L296.96,355.36L301.64,361.10L300.91,363.32L301.45,365.53L306.43,364.97L309.95,367.83L312.84,364.49L319.86,366.29L325.22,365.39L326.36,363.32L325.77,360.83L327.37,360.14L326.67,357.73L329.23,356.75L330.79,357.79L332.41,356.54L332.57,354.79L335.32,354.30L337.34,358.08L336.90,359.94L338.44,361.03L337.76,366.54L338.59,368.30L335.45,369.54L336.57,372.63L335.71,374.64L338.64,375.37L339.86,382.54L338.51,383.04L337.72,381.35L336.73,383.34L339.58,386.06L339.11,389.59L340.07,391.67L337.03,393.92L335.22,393.51L333.42,397.16L333.58,398.52L337.80,401.21L336.70,403.44L334.47,402.72L334.65,404.19L336.40,404.81L330.27,407.24L334.16,408.39L330.76,409.95L327.15,410.14L322.14,407.83L321.54,409.71L317.51,409.42L316.12,411.48L312.85,410.80L310.94,413.67L304.71,414.80Z"><title>Mykolayiv</title></path>
<path data-code="UA-53" data-name="Poltava" d="M327.71,248.25L332.27,246.44L337.80,239.98L341.80,240.95L344.54,239.64L357.99,243.50L361.34,242.56L360.27,241.40L363.05,240.25L367.78,243.09L373.54,240.16L373.92,244.69L377.51,248.80L377.26,252.14L378.98,252.19L381.39,255.60L379.99,257.33L380.43,259.69L386.32,259.35L387.39,257.73L393.53,257.96L393.68,262.10L391.51,264.64L392.34,267.56L394.75,269.62L401.32,271.46L402.41,276.22L404.93,279.26L409.08,279.13L408.78,280.66L410.63,284.78L408.13,285.53L410.44,287.63L406.04,288.31L407.18,292.50L404.24,296.18L401.99,297.08L397.04,295.92L394.90,298.87L395.81,302.95L394.07,302.07L392.30,303.82L392.22,302.51L389.78,302.46L378.44,306.95L376.52,310.06L377.22,310.86L375.42,311.78L374.50,314.01L375.65,317.80L374.45,319.16L374.99,320.61L373.29,322.08L359.44,314.00L356.90,314.77L356.13,316.45L353.96,314.01L352.49,314.95L348.77,312.70L347.38,313.20L344.98,310.66L346.25,308.44L342.10,307.21L337.10,302.12L329.57,298.46L329.59,295.16L326.16,288.60L328.53,285.39L328.46,283.25L326.68,279.69L323.01,278.12L322.74,275.34L318.77,273.57L317.01,270.89L316.89,269.80L318.05,269.53L318.31,266.14L315.71,262.28L313.46,261.77L312.72,259.21L313.90,257.46L312.09,257.78L307.86,253.71L309.97,248.61L312.75,248.83L316.33,245.96L327.71,248.25Z"><title>Poltava</title></path>
<path data-code="UA-68" data-name="Khmel'nyts'kyy" d="M160.68,239.86L164.07,242.75L162.44,244.27L161.97,247.25L169.62,254.40L173.21,253.23L174.49,257.29L173.62,261.01L174.91,263.16L171.29,264.32L172.41,266.87L171.31,268.73L172.91,269.56L174.82,273.86L181.07,275.64L177.59,278.99L179.49,281.55L178.03,284.50L178.55,285.90L176.74,287.55L177.92,288.94L177.30,290.46L180.21,291.38L179.12,293.09L181.35,297.77L180.69,299.38L181.67,303.18L178.19,305.12L173.46,303.13L172.19,304.84L169.64,305.06L166.37,310.83L166.90,312.43L166.11,313.65L167.74,320.82L166.83,321.41L166.75,324.94L164.99,328.69L161.95,327.93L162.78,328.97L162.35,330.13L158.30,330.64L153.23,329.63L150.63,331.51L149.41,328.47L148.47,328.69L148.02,331.02L146.34,329.02L146.48,331.75L143.19,331.03L146.10,333.50L143.28,333.04L142.98,335.57L138.90,331.61L136.18,332.57L135.91,329.99L133.96,328.52L134.25,326.82L131.86,325.12L132.28,321.80L131.60,320.57L132.67,319.24L131.26,317.91L131.43,315.16L130.51,314.76L131.38,310.42L130.72,308.56L131.69,306.81L130.69,301.98L132.49,297.17L131.62,292.27L129.18,286.79L132.36,280.33L130.90,278.56L131.75,274.77L130.34,272.81L129.25,266.27L131.67,264.92L130.59,263.42L131.70,261.94L130.89,260.69L132.95,259.45L130.94,258.17L136.28,253.46L139.18,253.03L144.11,248.20L147.03,243.35L148.74,243.51L149.06,241.70L151.91,240.29L154.17,240.86L157.82,237.78L160.68,239.86Z"><title>Khmel'nyts'kyy</title></path>
<path data-code="UA-61" data-name="Ternopil'" d="M126.67,252.50L129.35,253.58L131.40,252.66L130.79,255.07L131.74,257.67L130.94,258.17L132.95,259.45L130.89,260.69L131.70,261.94L130.59,263.42L131.67,264.92L129.25,266.27L130.34,272.81L131.75,274.77L130.90,278.56L132.36,280.33L129.18,287.02L131.62,292.27L132.49,297.17L130.88,300.45L131.69,307.04L130.40,312.43L131.26,317.91L132.67,319.24L131.60,320.57L132.28,321.80L131.81,324.88L135.91,329.99L136.18,332.57L135.41,332.89L129.21,331.54L128.72,328.35L127.79,328.48L128.61,330.86L127.11,331.19L126.18,326.59L122.52,329.38L120.57,328.74L118.47,325.57L116.93,327.41L116.10,325.82L113.72,325.20L113.52,321.44L108.44,318.46L108.74,316.75L108.01,316.47L105.27,317.11L105.21,318.98L102.10,320.75L102.07,318.80L104.41,317.69L101.32,317.69L101.94,313.60L100.48,314.22L99.52,316.61L98.13,312.68L94.30,311.85L91.43,308.63L91.62,307.66L94.09,308.08L93.97,305.91L90.30,304.99L90.88,299.95L89.64,298.44L88.61,292.64L85.68,287.93L86.48,284.79L92.96,281.73L95.17,277.58L97.58,277.23L97.33,273.09L106.29,270.14L106.39,267.99L107.61,267.15L105.69,263.35L106.92,263.37L108.62,259.83L108.21,257.19L111.62,258.20L118.94,256.44L123.11,252.53L126.67,252.50Z"><title>Ternopil'</title></path>
<path data-code="UA-12" data-name="Dnipropetrovs'k" d="M395.81,302.95L401.42,303.71L410.25,311.60L420.27,313.47L425.04,311.89L427.14,315.03L425.33,317.10L428.65,318.28L431.42,321.11L430.48,323.11L435.10,327.21L434.55,328.88L435.76,330.15L435.05,332.06L437.78,331.45L438.01,329.67L440.88,326.63L444.08,328.65L448.37,327.59L450.23,328.61L449.14,332.02L450.47,331.76L451.20,329.77L453.13,329.72L453.36,331.80L451.69,334.44L452.04,336.38L450.89,337.34L451.05,341.65L453.67,342.50L454.05,344.18L454.46,347.03L452.72,348.88L453.41,353.17L451.51,354.79L446.55,352.23L444.25,352.64L443.88,357.60L445.61,359.73L442.60,360.61L443.86,363.40L435.11,364.81L432.96,364.03L432.62,362.55L428.85,363.35L428.31,362.04L429.44,362.06L430.03,359.07L428.26,358.50L427.12,356.07L427.82,354.28L425.71,354.95L425.24,352.11L420.71,353.20L416.64,350.44L411.83,352.62L399.86,350.35L392.86,352.55L391.82,350.64L390.67,355.55L393.77,358.68L390.51,361.87L393.34,364.01L392.87,367.25L394.65,368.04L393.14,374.71L394.17,376.26L393.23,378.10L384.06,376.02L370.87,380.36L363.16,378.50L355.69,379.77L353.58,378.49L352.93,375.71L346.19,379.39L344.50,377.36L335.77,374.79L336.57,372.63L335.45,369.54L338.57,368.55L337.76,366.54L338.44,361.03L336.90,359.94L337.68,355.08L342.65,352.12L343.25,348.29L344.05,351.55L346.45,347.74L348.10,348.23L351.44,345.34L351.81,342.64L349.39,332.20L360.72,325.64L354.01,323.20L352.78,321.34L353.21,320.21L358.89,319.29L360.86,321.47L363.69,316.60L373.29,322.08L374.99,320.61L374.45,319.16L375.65,317.80L374.50,314.01L375.42,311.78L377.22,310.86L376.52,310.06L378.44,306.95L389.78,302.46L392.22,302.51L392.30,303.82L394.07,302.07L395.81,302.95Z"><title>Dnipropetrovs'k</title></path>
<path data-code="UA-71" data-name="Cherkasy" d="M306.35,253.13L308.62,253.79L312.28,257.89L313.90,257.46L312.72,259.21L313.46,261.77L315.71,262.28L318.31,266.14L318.05,269.53L316.89,269.80L317.01,270.89L318.77,273.57L322.74,275.34L323.01,278.12L326.68,279.69L328.46,283.25L328.53,285.39L326.16,288.60L329.59,295.16L328.48,302.15L331.44,310.19L329.16,312.21L326.57,311.03L321.67,313.76L319.43,307.88L316.90,308.36L315.78,306.34L310.07,311.57L309.43,314.56L306.56,313.75L302.35,316.88L300.98,314.58L297.69,313.08L292.01,313.93L291.50,318.00L289.54,321.40L285.63,323.10L282.34,321.73L277.62,322.94L266.60,321.21L263.72,323.53L263.50,326.03L261.73,327.89L262.80,328.58L262.54,330.52L257.93,330.06L257.03,331.96L252.87,334.38L244.14,335.22L246.06,331.82L244.15,326.24L241.16,324.27L241.91,322.21L238.54,321.02L237.72,317.39L236.47,316.52L236.84,314.38L234.42,312.88L235.48,310.39L233.13,309.01L236.57,304.42L236.68,302.08L235.59,300.85L236.27,300.04L238.21,302.45L241.26,302.49L243.00,299.17L246.58,297.39L248.78,297.86L248.56,296.65L249.99,295.36L250.93,295.73L250.52,297.44L256.94,299.78L258.62,294.49L260.45,295.62L266.07,294.25L267.30,295.76L272.81,294.60L274.09,291.48L280.29,284.97L279.46,282.31L280.86,279.68L281.59,273.61L280.98,272.97L281.99,271.34L288.57,268.95L290.58,271.97L293.59,269.34L294.09,271.14L297.21,271.58L299.93,266.47L300.03,264.39L301.90,263.57L301.23,260.30L305.39,256.89L305.02,254.38L306.35,253.13Z"><title>Cherkasy</title></path>
<path data-code="UA-35" data-name="Kirovohrad" d="M329.57,298.46L337.10,302.12L342.10,307.21L346.25,308.44L344.98,310.66L347.38,313.20L348.77,312.70L352.49,314.95L353.96,314.01L356.13,316.45L356.90,314.77L359.44,314.00L363.69,316.60L360.86,321.47L358.70,319.27L352.77,320.90L354.01,323.20L360.72,325.64L349.39,332.20L351.81,342.64L351.44,345.34L348.10,348.23L346.45,347.74L344.05,351.55L343.25,348.29L342.65,352.12L339.30,353.32L337.01,357.79L335.21,354.22L332.57,354.79L332.41,356.54L330.79,357.79L329.23,356.75L326.77,357.62L326.35,358.86L327.37,360.14L325.77,360.83L326.36,363.32L325.22,365.39L319.86,366.29L312.84,364.49L309.95,367.83L306.43,364.97L301.61,365.61L300.91,363.32L301.64,361.10L296.96,355.36L298.80,354.11L298.46,351.89L294.19,350.82L291.03,353.74L290.79,350.85L283.14,350.72L280.68,346.56L276.85,346.22L272.76,349.06L271.28,347.73L270.06,348.97L266.68,347.94L264.12,349.62L247.93,349.68L245.31,346.14L243.12,346.11L241.86,348.01L238.61,346.96L238.97,344.77L237.53,344.03L238.75,340.09L241.89,336.44L242.91,336.64L243.60,339.06L247.71,335.41L257.03,331.96L257.75,330.14L262.74,330.37L262.80,328.58L261.73,327.89L263.50,326.03L263.72,323.53L266.60,321.21L277.62,322.94L282.34,321.73L285.63,323.10L289.54,321.40L291.50,318.00L292.01,313.93L297.69,313.08L300.98,314.58L302.35,316.88L306.56,313.75L309.67,314.46L310.07,311.57L315.78,306.34L316.90,308.36L319.43,307.88L321.45,313.70L322.90,312.38L324.91,312.93L326.57,311.03L329.38,312.11L331.58,309.61L328.48,302.15L329.57,298.46Z"><title>Kirovohrad</title></path>
<path data-code="UA-30" data-name="Kiev City" d="M267.70,234.04L270.60,235.39L270.83,237.90L268.06,241.45L268.35,244.50L270.94,248.45L269.26,249.41L269.31,251.25L267.27,250.47L267.08,252.62L263.70,252.40L265.16,257.50L264.14,259.03L264.97,263.10L263.08,264.00L262.57,260.48L260.83,257.95L261.13,255.94L259.80,255.49L258.86,252.57L257.80,252.65L257.90,250.73L255.03,245.95L252.60,245.65L251.34,247.50L251.45,242.74L251.97,239.80L253.22,238.73L252.95,237.13L254.03,237.67L253.56,235.63L255.47,235.43L255.49,234.28L258.47,234.30L261.95,239.50L262.06,238.04L264.94,238.30L267.70,234.04Z"><title>Kiev City</title></path>
  </g>
</svg>
