<?xml version="1.0" encoding="UTF-8"?>
<svg xmlns="http://www.w3.org/2000/svg" viewBox="0 0 560 640" class="pref-muni-svg" role="img" aria-label="行政区分">
  <g class="pref-muni-svg__paths" fill="#eaf2fb" stroke="#5b7fa8" stroke-width="0.6" stroke-linejoin="round">
<path data-code="US-WA" data-name="Washington" d="M26.66,180.16L80.49,180.16L80.44,211.05L81.99,215.51L61.99,215.53L44.12,219.76L35.71,218.82L31.30,220.65L26.96,219.67L26.16,215.78L24.65,213.92L21.53,213.73L20.05,212.37L17.81,211.92L14.20,212.35L14.24,207.93L15.31,211.05L16.42,210.61L15.52,209.94L15.33,208.16L17.14,207.51L14.04,206.74L13.72,204.90L14.72,205.69L14.48,204.99L16.68,204.19L13.82,203.20L13.92,204.49L13.24,204.58L13.04,201.49L10.94,194.94L8.59,192.00L8.00,189.87L8.69,188.11L8.07,187.30L15.19,189.93L22.01,190.52L23.32,189.71L22.82,190.09L24.26,191.43L25.02,190.76L25.53,191.96L25.99,191.47L25.49,190.63L26.50,190.22L27.92,193.33L26.22,195.67L26.17,193.74L25.69,193.94L25.85,194.88L22.82,199.49L25.85,198.60L23.27,199.08L24.82,196.65L26.56,195.80L27.88,193.69L28.38,194.02L27.98,192.52L28.78,193.00L29.35,194.76L27.53,195.07L28.18,196.82L27.19,196.34L27.34,197.47L28.55,196.81L28.97,197.55L28.40,200.58L27.29,200.14L27.79,198.92L26.48,201.66L26.17,199.00L23.60,202.16L24.99,201.64L24.24,202.73L24.95,202.16L25.34,203.15L25.27,202.16L26.06,201.75L26.95,202.65L28.69,199.97L29.68,200.57L30.66,199.48L29.95,194.28L31.95,191.58L30.55,190.82L30.22,189.37L29.33,189.79L30.48,191.24L28.95,190.14L28.73,188.94L29.98,189.11L30.12,188.30L28.49,186.76L27.32,186.80L27.14,186.00L27.79,185.78L29.15,186.51L28.42,184.97L29.61,185.02L28.97,182.96L27.47,183.24L26.15,180.84L26.66,180.16ZM29.66,198.67L30.30,199.17L28.79,199.61L29.32,197.84L29.66,198.67ZM29.08,196.53L28.31,196.60L28.50,195.27L29.08,196.53ZM30.37,192.16L30.11,193.01L28.68,192.22L28.04,190.07L26.75,189.45L27.57,187.34L28.88,188.41L26.94,189.12L28.29,189.66L28.71,191.82L28.92,190.81L30.37,192.16ZM25.64,186.10L25.96,186.95L24.93,186.47L25.40,185.22L25.64,186.10ZM24.15,185.98L24.67,186.55L23.03,186.03L22.67,184.81L24.55,185.61L24.15,185.98ZM26.73,184.03L26.02,184.69L25.31,183.62L25.52,184.87L24.09,184.48L25.11,183.48L26.73,184.03ZM25.58,200.53L25.53,201.72L25.07,200.90L25.58,200.53Z"><title>Washington</title></path>
<path data-code="US-ID" data-name="Idaho" d="M80.49,180.16L89.82,180.16L89.81,191.84L92.92,195.43L93.32,196.56L92.79,197.14L93.67,198.04L92.87,198.48L96.55,200.58L101.94,207.06L102.86,206.68L103.77,207.91L106.00,207.59L105.03,213.26L104.37,213.63L105.46,216.84L103.93,218.08L104.46,219.01L104.01,220.62L106.30,221.62L109.20,219.04L110.96,220.16L111.79,223.69L114.41,227.08L114.44,228.96L117.19,229.98L118.57,233.66L120.05,234.70L120.87,233.39L124.27,233.74L125.66,232.44L133.03,232.67L132.71,231.55L133.83,230.24L136.88,233.28L136.89,262.80L80.69,262.80L80.55,241.18L81.87,237.07L81.10,235.99L79.01,235.64L78.93,233.46L82.13,228.92L85.98,220.24L85.16,218.33L82.37,216.59L80.44,211.05L80.49,180.16Z"><title>Idaho</title></path>
<path data-code="US-MT" data-name="Montana" d="M89.82,180.16L202.85,180.15L202.92,227.34L136.88,227.34L136.88,233.28L133.83,230.24L132.71,231.55L133.03,232.67L125.66,232.44L124.27,233.74L120.87,233.39L120.05,234.70L118.57,233.66L117.19,229.98L114.44,228.96L114.41,227.08L111.79,223.69L110.96,220.16L109.20,219.04L106.30,221.62L103.97,220.57L104.46,219.01L103.93,218.08L105.46,216.84L104.37,213.63L105.03,213.26L106.04,207.66L101.94,207.06L96.55,200.58L92.87,198.48L93.67,198.04L92.79,197.14L93.32,196.56L92.92,195.43L89.81,191.84L89.82,180.16Z"><title>Montana</title></path>
<path data-code="US-ND" data-name="North Dakota" d="M202.85,180.15L267.10,180.15L268.27,184.20L267.74,185.57L268.08,190.32L270.58,196.59L270.84,203.68L271.49,204.64L271.16,207.93L272.98,211.69L273.40,216.21L202.87,216.21L202.85,180.15Z"><title>North Dakota</title></path>
<path data-code="US-MN" data-name="Minnesota" d="M267.10,180.15L286.39,180.15L286.55,175.70L288.23,175.86L289.69,176.61L290.99,182.68L298.66,184.37L299.57,185.75L307.09,184.59L310.21,185.55L309.55,186.45L311.70,186.77L312.82,189.26L313.67,187.96L315.65,187.79L320.32,191.32L323.13,191.12L326.93,189.12L328.09,190.89L334.02,190.52L335.90,192.03L339.87,191.94L335.55,200.32L329.00,200.06L321.33,204.60L313.59,207.69L313.56,214.54L309.69,216.55L307.92,219.02L308.00,220.53L309.25,220.73L310.07,222.30L309.17,223.99L308.60,230.20L315.35,234.00L319.50,238.29L321.90,239.00L323.06,240.37L323.38,245.06L274.37,245.07L274.37,223.84L271.97,222.36L270.51,220.24L273.11,217.43L273.32,213.50L271.16,207.93L271.49,204.64L270.84,203.68L270.58,196.59L268.08,190.32L267.74,185.57L268.27,184.20L267.10,180.15Z"><title>Minnesota</title></path>
<path data-code="US-MI" data-name="Michigan" d="M339.87,191.94L341.37,192.07L350.72,188.36L383.39,204.91L384.38,208.04L386.33,210.07L390.63,209.30L390.17,210.40L390.76,212.87L392.00,214.78L395.30,214.16L396.73,215.43L395.09,218.19L396.53,218.22L404.96,222.95L409.14,243.88L405.55,255.47L400.33,259.19L399.85,263.53L397.19,265.93L361.46,265.64L363.23,256.93L362.03,246.49L362.83,239.52L366.10,229.17L370.47,224.55L365.64,222.10L362.54,222.10L359.61,224.92L359.30,226.41L357.26,225.91L356.49,224.99L357.18,222.96L355.10,222.88L355.85,219.22L352.96,217.85L352.83,216.33L334.04,211.50L332.99,209.51L331.40,209.01L339.87,191.94Z"><title>Michigan</title></path>
<path data-code="US-OH" data-name="Ohio" d="M399.85,263.53L403.81,266.58L406.25,266.67L417.32,260.33L424.44,258.97L424.44,278.79L422.97,279.47L423.69,282.61L421.14,289.14L421.42,289.97L417.93,293.45L416.45,294.10L415.56,293.45L413.50,295.05L412.22,297.31L412.73,298.99L411.43,299.74L411.09,298.36L409.96,298.21L408.54,300.78L408.83,302.84L407.90,303.12L407.21,304.89L404.96,305.12L402.72,303.14L402.05,301.19L399.66,302.76L398.21,302.96L396.05,301.71L394.36,302.52L392.93,301.06L389.62,300.34L388.78,298.05L387.28,296.93L383.91,297.10L384.08,266.38L397.19,265.93L399.85,263.53Z"><title>Ohio</title></path>
<path data-code="US-PA" data-name="Pennsylvania" d="M424.44,258.97L431.58,256.44L431.58,262.80L473.24,262.83L475.69,264.83L476.58,268.73L479.22,270.17L475.22,274.64L475.89,276.12L474.57,278.15L474.72,279.69L475.60,279.83L475.93,281.29L478.99,284.50L475.04,287.58L472.44,288.72L470.29,288.50L469.12,289.73L424.45,289.72L424.44,258.97Z"><title>Pennsylvania</title></path>
<path data-code="US-NY" data-name="New York" d="M431.58,256.44L439.53,252.29L438.46,250.82L438.21,247.69L437.12,245.49L441.70,243.51L459.09,243.59L463.93,237.01L475.22,228.23L477.51,227.23L491.96,227.29L491.72,231.85L492.51,233.79L491.14,238.45L491.85,241.77L491.27,243.81L492.37,243.58L492.95,244.45L492.77,253.98L490.50,261.86L490.14,271.13L490.71,272.04L488.46,273.39L489.22,274.60L487.76,276.82L486.49,276.77L487.06,273.25L486.35,270.94L486.73,274.72L476.58,268.73L475.69,264.83L473.24,262.83L431.58,262.80L431.58,256.44ZM486.48,277.01L485.70,278.17L486.53,276.06L486.48,277.01ZM484.67,278.95L485.35,279.31L483.49,280.51L484.67,278.95ZM496.39,277.75L497.56,277.35L492.40,278.99L496.39,277.75ZM505.46,273.85L506.04,273.77L497.87,277.33L498.57,277.01L488.58,279.22L489.79,279.53L486.43,280.03L488.03,279.12L485.97,279.70L485.48,279.11L486.72,277.11L488.14,277.32L488.49,276.20L490.75,276.07L490.70,275.26L491.90,275.79L491.49,275.15L493.06,275.70L498.77,274.81L502.10,272.69L498.81,275.70L500.16,275.82L501.66,274.19L505.46,273.85Z"><title>New York</title></path>
<path data-code="US-VT" data-name="Vermont" d="M491.96,227.29L509.35,227.18L508.13,230.41L508.94,232.23L507.73,233.89L504.50,235.40L503.75,239.48L501.00,244.39L500.26,250.91L499.46,252.42L500.30,254.18L492.67,253.98L492.95,244.45L492.37,243.58L491.27,243.81L491.85,241.77L491.14,238.45L492.51,233.79L491.72,231.85L491.96,227.29Z"><title>Vermont</title></path>
<path data-code="US-NH" data-name="New Hampshire" d="M509.35,227.18L509.88,224.66L513.31,223.75L514.33,246.32L516.86,250.44L515.86,252.43L512.78,253.15L511.32,254.50L500.30,254.18L499.46,252.42L500.26,250.91L501.00,244.39L503.75,239.48L504.50,235.40L507.73,233.89L508.94,232.23L508.13,230.41L509.35,227.18Z"><title>New Hampshire</title></path>
<path data-code="US-ME" data-name="Maine" d="M513.31,223.75L514.41,223.27L515.12,224.57L515.87,222.34L517.49,222.51L516.65,221.34L519.58,218.87L521.06,216.43L520.88,213.02L522.83,210.56L523.46,207.20L530.59,198.35L532.29,198.60L532.41,200.52L533.83,201.46L539.54,199.36L544.17,202.82L544.19,218.92L547.72,220.27L547.35,224.19L548.78,225.52L550.13,225.23L551.41,227.66L549.87,228.47L550.39,229.52L550.95,228.66L551.38,229.30L551.23,228.55L552.00,229.52L549.94,231.55L548.66,230.77L547.93,232.12L547.69,231.37L547.51,232.01L546.56,231.55L546.10,232.92L544.93,233.21L544.77,232.12L544.38,232.93L543.98,232.25L543.29,234.47L543.29,233.41L542.96,234.33L542.58,233.26L541.80,235.28L540.46,232.95L540.28,233.65L539.47,232.91L539.80,233.82L538.51,234.38L537.86,233.33L537.99,234.55L536.96,234.30L537.27,236.35L534.64,235.44L535.78,234.32L534.68,234.41L535.37,232.81L534.82,232.54L534.77,233.57L533.08,234.18L533.54,235.24L531.15,239.72L530.47,239.99L530.88,239.06L529.47,239.48L529.52,238.44L527.79,241.11L527.92,238.91L527.37,241.43L526.64,240.65L527.02,238.84L525.80,240.50L526.31,241.03L525.81,242.00L525.58,238.48L524.63,239.44L525.21,239.62L525.50,242.31L525.04,242.60L524.67,240.69L523.67,242.39L524.22,241.19L523.27,242.23L523.66,240.78L521.81,242.03L520.83,243.29L521.60,244.35L520.29,244.60L520.50,245.63L516.52,249.99L514.33,246.32L513.31,223.75ZM534.38,238.03L535.07,238.43L533.79,238.03L534.38,238.03ZM536.32,236.09L536.50,237.13L535.62,237.18L536.32,236.09ZM540.06,234.14L540.70,235.28L539.41,235.51L539.30,236.49L538.47,236.10L538.83,234.38L540.06,234.14Z"><title>Maine</title></path>
<path data-code="US-AZ" data-name="Arizona" d="M137.30,388.93L101.36,375.07L102.32,372.42L104.06,372.26L104.77,370.88L104.38,368.93L102.54,368.11L102.29,365.37L102.26,364.30L104.09,362.44L104.25,357.77L107.98,353.88L105.63,351.77L103.30,346.95L103.09,344.07L103.72,343.01L102.12,333.55L102.45,332.42L103.88,331.81L107.94,333.17L108.71,331.11L108.73,321.85L155.76,321.89L155.75,388.93L137.30,388.93Z"><title>Arizona</title></path>
<path data-code="US-CA" data-name="California" d="M102.28,372.56L79.67,374.70L78.72,372.74L79.77,373.89L79.60,372.83L78.45,372.81L77.82,367.88L76.06,365.20L70.33,360.37L67.55,360.40L67.75,359.28L66.59,357.08L63.83,357.35L60.80,356.16L56.71,352.44L48.32,352.11L46.60,350.69L46.52,343.88L44.34,342.88L44.76,341.55L44.24,340.41L40.46,337.67L38.40,333.67L34.70,330.11L33.93,326.81L35.98,325.17L35.60,323.83L34.65,322.25L32.49,322.29L30.56,320.49L28.85,315.61L28.90,312.66L29.91,312.31L30.23,314.75L33.45,316.41L31.71,312.92L30.63,312.64L30.80,311.42L29.71,310.49L30.31,309.92L36.68,309.96L37.46,308.90L37.40,309.82L38.98,310.02L37.49,308.82L35.84,309.64L36.75,308.33L34.72,309.44L33.24,308.49L32.53,309.57L30.02,308.26L29.03,308.73L29.56,310.25L29.01,310.96L29.62,311.46L28.78,312.24L25.09,309.30L24.08,310.14L24.81,308.37L24.37,307.20L25.92,308.94L23.13,304.76L17.50,299.21L17.85,297.92L16.57,294.15L17.09,291.59L16.29,288.40L11.50,283.34L11.06,281.19L12.66,277.47L12.79,278.32L14.14,276.46L12.73,277.37L13.88,274.43L13.37,273.05L14.33,269.46L13.42,265.91L12.44,265.44L12.90,262.80L52.59,262.80L52.59,298.26L70.24,313.72L103.19,345.48L105.63,351.77L107.98,353.88L104.25,357.77L104.09,362.44L102.26,364.30L102.29,365.37L102.54,368.11L104.38,368.93L104.77,370.88L104.06,372.26L102.28,372.56ZM68.05,371.20L66.73,370.93L65.71,368.80L68.05,371.20ZM57.41,366.00L57.92,366.51L56.56,365.90L57.41,366.00ZM66.57,364.16L65.74,363.53L67.95,364.34L68.56,365.51L67.07,365.34L66.57,364.16ZM52.18,356.90L52.89,358.04L51.56,358.61L50.25,357.33L52.18,356.90ZM57.03,357.05L54.32,357.82L53.22,356.63L57.03,357.05Z"><title>California</title></path>
<path data-code="US-NM" data-name="New Mexico" d="M164.32,383.61L163.59,383.61L163.60,388.93L155.75,388.93L155.76,321.89L212.70,321.89L212.09,380.96L178.22,380.98L179.69,383.70L164.32,383.61Z"><title>New Mexico</title></path>
<path data-code="US-TX" data-name="Texas" d="M180.00,383.88L178.80,382.92L178.22,380.98L212.09,380.96L212.32,327.80L240.95,327.80L240.98,350.54L243.97,352.68L246.46,352.85L246.97,351.88L248.73,354.74L254.29,355.49L255.18,356.46L258.80,355.57L258.97,357.01L260.22,357.40L260.50,358.84L263.19,357.41L265.11,359.39L267.23,358.41L267.87,360.59L269.86,357.85L271.59,359.13L272.98,358.47L275.55,360.87L279.23,358.58L280.68,359.05L282.43,357.91L284.70,358.90L285.99,357.78L293.83,362.52L297.04,362.61L297.07,381.00L298.99,383.46L299.09,385.78L300.05,386.71L302.05,392.30L300.02,397.93L300.14,403.67L298.19,406.21L298.65,408.46L296.52,408.51L290.30,412.10L292.90,409.75L290.14,410.17L290.96,408.21L290.57,407.19L288.82,408.69L287.57,407.57L288.20,408.46L287.84,410.03L289.75,412.02L286.97,414.37L286.46,413.97L286.57,415.90L282.39,419.23L279.10,420.11L279.21,420.86L281.29,419.80L276.58,422.47L278.76,420.63L276.51,421.32L277.35,420.85L276.61,420.82L276.87,420.09L275.39,420.75L274.45,419.23L275.16,420.85L274.00,421.41L274.43,420.74L272.51,419.63L272.91,421.41L274.00,422.22L273.49,422.71L274.84,423.11L272.49,424.48L271.17,422.58L271.42,423.40L270.69,423.34L271.27,425.40L270.35,426.47L269.74,426.76L270.07,425.14L269.48,426.67L269.09,425.78L267.59,426.38L267.18,427.37L267.82,428.19L269.03,427.07L267.49,430.19L264.32,429.75L265.54,430.08L266.78,431.86L265.35,436.11L264.12,436.64L264.64,435.34L263.29,436.52L261.93,434.54L262.94,436.40L261.93,436.55L265.21,436.96L264.70,439.81L263.92,440.15L264.69,441.52L263.93,441.99L266.30,450.43L267.23,450.81L266.82,451.90L267.79,451.00L267.93,452.19L266.13,452.68L265.78,453.74L263.01,451.53L257.71,451.00L252.26,447.49L249.38,446.89L248.05,442.12L246.04,439.40L245.54,433.12L242.54,430.89L240.44,426.62L238.38,424.98L237.93,422.22L235.09,417.33L234.67,415.06L229.54,410.15L229.35,409.08L228.61,409.37L227.73,407.24L221.10,406.96L219.11,405.87L218.31,407.25L215.62,407.73L213.81,412.37L214.04,413.73L211.56,416.48L209.07,416.10L199.11,409.47L196.88,405.30L196.87,402.34L194.49,397.40L190.45,394.57L184.82,388.41L182.49,387.16L181.08,384.32L180.00,383.88ZM267.36,448.63L267.66,450.68L265.48,442.07L265.67,437.62L266.00,442.95L267.36,448.63ZM268.51,430.45L265.48,437.37L266.83,432.28L267.29,432.59L268.51,430.45ZM270.35,426.72L270.64,427.41L268.90,430.00L270.35,426.72ZM274.61,423.61L274.72,424.37L270.77,427.41L271.04,426.04L274.61,423.61ZM289.81,412.26L290.66,412.50L286.96,415.38L289.81,412.26Z"><title>Texas</title></path>
<path data-code="US-LA" data-name="Louisiana" d="M339.62,402.34L337.90,402.55L333.37,400.00L331.08,402.92L333.79,404.34L336.28,402.79L337.14,403.45L337.64,402.55L337.57,403.44L338.29,402.68L337.81,404.22L336.66,404.48L338.32,406.09L339.99,403.71L341.13,404.04L340.29,404.90L341.09,405.20L340.48,405.46L341.45,406.04L341.32,407.08L340.03,406.59L338.91,407.75L340.03,408.94L337.96,408.05L338.74,409.02L337.45,408.94L339.64,410.89L339.49,411.73L342.72,412.26L344.48,414.37L343.66,414.55L344.36,414.69L343.32,416.48L342.24,415.18L340.68,417.28L341.97,414.54L340.96,415.40L340.29,413.48L336.87,412.70L337.57,412.06L336.89,410.83L333.44,409.59L333.18,410.35L334.93,411.37L334.99,412.91L333.00,415.41L332.70,413.25L331.96,412.76L331.45,413.56L331.06,412.21L329.48,412.80L329.64,413.72L328.51,415.02L323.05,413.35L322.54,412.43L323.64,411.94L324.67,413.23L323.26,410.89L323.59,409.25L322.92,410.72L321.70,409.75L320.47,410.07L319.73,407.67L317.65,407.94L317.75,406.61L314.41,407.40L315.38,408.05L315.31,409.10L316.08,409.02L313.71,410.13L305.02,407.30L299.07,408.16L298.48,407.09L299.53,406.31L300.27,402.92L300.02,397.93L302.05,392.30L300.05,386.71L299.09,385.78L298.99,383.46L297.07,381.00L297.09,369.03L324.17,368.99L325.06,370.07L324.26,371.87L325.08,372.58L324.15,373.11L324.75,375.48L326.55,377.32L324.84,379.31L324.88,380.81L322.43,382.86L320.75,386.88L320.76,389.33L319.63,389.59L320.28,392.14L319.55,392.80L337.65,392.80L336.61,396.55L339.62,402.34ZM318.18,410.64L315.98,409.39L317.10,408.78L318.95,409.56L318.18,410.64ZM342.80,403.68L341.32,403.84L342.87,402.63L342.22,403.41L342.80,403.68Z"><title>Louisiana</title></path>
<path data-code="US-MS" data-name="Mississippi" d="M350.20,400.03L349.56,400.79L345.26,399.39L344.74,399.63L345.90,399.79L342.19,400.84L341.54,400.12L340.41,402.37L339.25,402.38L336.61,396.55L337.65,392.80L319.55,392.80L320.28,392.14L319.63,389.59L320.76,389.33L320.75,386.88L322.43,382.86L324.88,380.81L324.84,379.31L326.59,377.15L324.75,375.48L324.17,373.36L325.08,372.58L324.26,371.87L325.06,370.07L324.15,369.38L324.86,367.18L324.02,365.38L324.54,363.51L323.52,362.46L324.31,361.68L323.61,361.01L325.31,359.54L324.86,357.47L326.87,356.62L326.15,355.49L327.89,353.99L328.00,352.84L329.56,352.32L329.81,348.84L332.60,346.43L332.29,345.52L352.31,345.55L353.16,346.61L349.41,382.29L350.20,400.03Z"><title>Mississippi</title></path>
<path data-code="US-AL" data-name="Alabama" d="M359.46,398.95L358.95,400.37L357.65,400.36L357.85,401.36L353.71,401.97L356.21,401.31L355.68,399.83L354.83,399.73L354.82,397.72L353.71,395.90L352.80,400.76L350.20,400.03L349.41,382.29L353.15,346.80L352.25,345.41L376.54,345.70L380.35,369.93L382.55,375.86L382.33,377.00L383.21,377.80L381.95,378.97L380.89,383.06L381.85,386.47L381.30,390.64L382.27,392.67L357.82,392.80L357.56,394.49L359.60,396.70L359.46,398.95Z"><title>Alabama</title></path>
<path data-code="US-FL" data-name="Florida" d="M359.20,400.92L360.16,399.42L359.28,398.37L359.60,396.70L357.52,394.39L357.82,392.80L382.19,392.80L383.42,396.12L408.25,397.94L408.94,400.31L410.05,400.18L410.12,395.91L410.86,394.95L415.78,396.34L415.80,398.42L415.32,397.28L415.21,398.10L416.06,399.22L417.67,407.72L420.66,415.63L424.37,422.67L423.77,425.80L425.10,429.83L423.50,425.81L423.69,421.16L422.13,421.02L422.26,419.49L421.35,418.91L422.39,423.84L427.49,437.94L426.38,437.21L427.94,438.44L428.98,442.30L428.13,454.55L428.02,453.06L426.45,456.40L425.55,461.51L424.02,460.80L422.65,461.99L418.96,462.24L418.26,461.02L418.70,459.64L419.87,461.18L420.70,460.81L418.59,459.16L416.64,454.06L414.06,452.52L413.03,452.83L413.67,452.11L412.38,450.73L411.86,446.59L410.42,446.16L412.57,443.44L410.14,445.65L409.59,441.14L410.71,440.12L409.04,440.93L407.93,439.88L409.09,442.40L407.55,441.85L405.10,435.40L403.64,433.99L404.96,434.13L404.51,433.88L406.83,430.49L406.53,429.23L405.54,430.33L405.41,428.93L404.00,427.81L404.44,428.62L403.73,429.11L405.21,429.60L404.35,431.86L402.83,430.24L403.73,432.28L402.57,430.28L404.25,422.96L404.54,417.76L402.96,414.37L400.70,414.31L394.68,405.55L391.44,403.36L389.70,403.35L388.05,404.24L388.41,404.97L387.28,404.74L388.44,405.25L388.11,405.95L386.88,405.54L383.42,407.77L383.44,406.93L382.21,407.97L378.99,408.42L378.35,406.37L379.23,408.24L378.89,405.93L375.85,403.03L378.53,403.96L375.46,402.30L377.02,401.25L376.72,400.76L374.20,401.49L375.46,403.03L368.02,399.80L371.82,400.05L370.88,398.65L368.98,399.16L368.23,398.42L367.16,399.67L361.58,400.36L364.41,399.43L363.13,397.44L362.68,399.30L361.71,397.71L361.71,399.46L359.20,400.92ZM426.32,460.78L423.71,464.30L426.97,459.64L426.32,460.78ZM409.22,444.98L408.83,443.60L409.73,446.08L409.22,444.98ZM425.68,431.58L425.16,429.94L427.81,438.02L425.68,431.58ZM422.96,421.41L423.58,421.53L423.22,425.59L422.40,422.52L422.96,421.41ZM366.30,399.79L367.92,399.87L360.62,400.69L366.30,399.79Z"><title>Florida</title></path>
<path data-code="US-GA" data-name="Georgia" d="M420.96,380.59L421.47,380.95L420.51,381.26L420.11,382.57L418.81,382.07L418.58,382.70L419.55,383.03L418.93,384.02L417.35,383.75L418.08,384.32L416.81,386.27L416.86,388.68L415.29,388.45L417.40,389.74L416.29,391.12L415.64,390.36L415.25,391.31L416.12,391.37L415.93,392.50L415.09,391.70L415.68,392.54L415.03,392.99L415.68,393.23L414.90,394.53L415.21,396.20L410.86,394.95L410.12,395.91L409.96,400.25L408.70,400.20L408.25,397.94L383.42,396.12L381.30,390.64L381.85,386.47L380.89,383.06L381.95,378.97L383.21,377.80L382.33,377.00L382.55,375.86L380.35,369.93L376.54,345.70L400.01,345.52L397.74,348.97L400.64,351.47L402.43,351.90L405.13,357.72L411.09,363.54L412.77,367.32L415.05,368.69L416.10,373.60L418.03,375.25L418.68,377.18L418.64,379.38L420.96,380.59ZM415.42,395.09L415.99,393.15L415.58,396.04L415.42,395.09ZM417.56,386.84L418.28,386.64L417.29,388.24L417.56,386.84Z"><title>Georgia</title></path>
<path data-code="US-SC" data-name="South Carolina" d="M442.78,358.73L439.35,361.57L437.51,364.23L437.03,366.59L436.20,365.41L436.57,364.29L435.94,365.65L437.03,366.99L435.56,367.32L436.01,367.88L435.12,368.96L433.25,369.00L433.22,370.18L430.96,371.97L429.87,370.92L429.65,371.70L430.55,372.61L429.29,373.75L427.67,374.28L426.84,373.64L427.42,374.36L426.22,375.23L424.26,374.36L423.03,374.82L424.84,375.33L423.81,375.58L425.03,375.98L424.19,376.88L425.29,376.14L424.91,377.17L423.34,377.83L423.15,375.51L422.95,377.40L421.29,374.60L421.82,377.20L422.96,378.44L421.61,379.70L422.00,378.09L420.76,380.58L418.64,379.38L418.68,377.18L418.03,375.25L416.10,373.60L415.05,368.69L412.77,367.32L411.09,363.54L405.13,357.72L402.43,351.90L400.64,351.47L397.74,348.97L400.01,345.52L406.82,342.95L419.35,343.73L419.50,344.76L420.55,344.19L421.87,345.98L421.96,347.56L432.61,347.94L442.78,358.73Z"><title>South Carolina</title></path>
<path data-code="US-NC" data-name="North Carolina" d="M466.72,327.20L469.04,332.74L467.38,330.08L467.88,331.76L465.15,329.89L466.42,331.79L465.43,332.16L464.27,331.19L464.94,332.53L462.66,331.27L464.08,332.57L461.58,333.56L460.55,333.04L460.14,329.89L460.14,334.35L466.56,333.90L466.49,336.15L465.85,336.13L466.67,337.27L465.69,337.27L466.73,337.83L467.11,335.04L468.32,335.12L467.88,334.43L468.67,334.52L468.40,333.94L469.64,335.73L469.34,338.29L468.53,338.81L468.09,337.99L465.60,341.42L463.67,340.64L463.50,341.47L463.08,340.04L462.32,340.90L461.60,339.65L462.66,339.13L460.92,339.37L461.37,340.86L457.11,339.21L457.82,340.35L462.59,342.33L460.66,343.51L461.74,344.05L459.82,345.65L456.85,343.67L458.16,345.76L461.93,346.33L461.66,345.61L462.41,345.85L462.74,344.66L462.67,346.23L463.96,345.81L463.69,345.20L464.48,345.94L462.19,348.66L461.22,347.70L461.06,348.96L460.56,347.88L459.76,348.44L460.41,348.77L456.72,349.34L456.36,348.33L456.31,349.28L454.60,350.67L453.82,350.38L454.46,349.66L453.50,348.44L454.03,351.11L450.72,353.61L448.73,358.17L448.53,355.08L448.66,357.31L447.88,358.62L444.65,357.92L442.92,358.89L432.61,347.94L421.96,347.56L421.87,345.98L420.55,344.19L419.50,344.76L419.35,343.73L406.82,342.95L400.18,345.52L388.61,345.68L388.93,342.81L390.93,342.35L392.72,339.47L396.38,338.79L401.18,336.26L401.96,334.35L404.57,333.03L405.23,334.16L408.50,331.83L409.77,332.48L411.52,329.96L413.18,329.65L413.72,326.50L428.50,327.33L466.72,327.20ZM468.40,327.22L471.50,336.14L469.66,333.59L468.40,327.22ZM464.60,346.55L465.11,346.18L462.02,350.38L464.60,346.55ZM471.95,337.31L471.58,342.45L469.51,343.31L471.57,342.09L471.57,336.30L471.95,337.31Z"><title>North Carolina</title></path>
<path data-code="US-VA" data-name="Virginia" d="M466.89,327.20L394.80,326.57L399.88,324.80L400.50,323.64L402.32,323.06L404.09,320.27L410.83,315.52L411.19,317.51L414.42,319.47L416.50,317.93L417.81,319.00L421.03,318.04L421.38,316.87L422.34,317.38L426.57,315.87L427.22,314.54L426.66,313.79L431.28,306.83L432.65,303.12L436.08,305.03L438.77,300.12L440.01,300.75L444.22,296.40L445.15,292.92L449.73,296.55L450.68,294.34L453.20,295.37L452.93,296.79L457.29,299.98L457.15,301.61L455.43,302.31L454.41,306.02L457.21,305.39L458.03,307.59L461.23,308.29L462.02,309.77L464.68,311.21L464.66,312.16L463.96,311.86L464.15,314.35L462.60,313.51L462.26,314.12L458.21,308.96L456.34,308.11L458.30,309.37L461.82,314.48L464.34,315.16L463.31,315.59L464.47,315.77L464.59,317.92L463.11,316.66L462.92,318.07L463.52,318.48L462.35,318.94L459.50,315.93L461.31,318.39L463.39,319.14L464.47,320.73L464.23,321.73L462.98,322.17L461.05,319.28L460.01,319.55L458.92,318.07L458.24,318.99L457.69,318.10L454.98,318.00L460.71,319.70L460.80,321.38L462.36,322.43L462.08,323.50L464.27,323.67L464.10,322.37L466.97,322.69L468.40,327.22L467.42,325.20L466.89,327.20ZM472.88,309.89L468.08,317.67L467.33,320.30L466.88,318.56L467.75,314.67L468.73,313.94L469.03,312.32L470.21,311.92L469.44,311.11L472.88,309.89ZM467.92,320.36L468.20,318.46L468.18,319.46L468.80,319.52L467.92,320.36Z"><title>Virginia</title></path>
<path data-code="US-DC" data-name="District of Columbia" d="M457.38,300.58L456.47,299.03L457.20,298.30L458.45,299.52L457.38,300.58Z"><title>District of Columbia</title></path>
<path data-code="US-MD" data-name="Maryland" d="M470.33,310.48L468.20,310.65L469.44,308.76L467.58,308.47L468.73,307.31L467.90,306.87L468.49,305.29L467.37,307.14L467.11,305.79L466.66,307.32L465.04,305.44L464.98,306.33L464.01,304.47L465.40,303.38L464.32,303.42L464.41,302.69L467.30,302.90L464.30,300.90L463.80,302.11L464.15,300.35L464.63,299.97L465.39,301.13L465.99,300.61L465.25,300.06L466.02,299.69L464.69,298.83L463.49,300.12L464.05,297.90L465.16,298.50L466.40,296.52L464.73,297.86L464.45,296.27L465.37,294.51L468.53,293.86L466.70,293.61L468.53,292.81L468.02,292.24L468.60,291.35L467.01,292.90L467.63,291.11L466.24,291.66L466.38,292.84L465.04,293.94L464.83,292.64L464.34,294.58L464.08,293.49L463.24,293.61L463.88,294.10L462.96,294.49L463.24,295.23L462.46,294.58L463.28,295.44L462.79,295.95L461.15,295.18L462.94,296.70L462.94,297.46L462.15,297.36L463.31,297.96L461.66,297.47L462.76,298.92L461.66,298.81L462.37,299.45L461.82,300.90L462.20,303.83L463.32,305.89L462.75,306.24L461.02,304.47L460.60,302.04L460.67,304.33L463.50,306.54L463.97,309.55L462.72,307.62L462.15,308.51L459.44,307.07L458.72,305.36L459.11,307.03L458.33,306.62L457.30,304.38L455.19,305.42L455.46,303.49L457.48,301.83L457.38,300.58L458.45,299.52L457.20,298.30L456.47,299.03L453.41,297.25L452.75,296.45L453.20,295.37L450.52,294.10L449.62,291.02L446.44,289.93L442.74,292.00L440.88,290.71L439.16,292.88L437.79,292.73L434.19,295.81L434.26,289.72L469.01,289.73L469.90,304.63L475.66,304.78L474.75,305.24L475.55,306.11L472.88,309.89L470.33,310.48Z"><title>Maryland</title></path>
<path data-code="US-DE" data-name="Delaware" d="M475.89,304.71L469.90,304.63L469.01,289.73L470.05,288.62L472.44,288.72L470.86,290.58L470.90,292.78L472.60,295.06L473.51,299.10L475.64,300.66L475.83,302.59L475.13,301.94L475.51,302.53L474.48,303.34L475.87,302.83L475.89,304.71Z"><title>Delaware</title></path>
<path data-code="US-NJ" data-name="New Jersey" d="M471.34,292.24L471.19,290.91L472.29,289.07L475.08,287.91L478.99,284.50L474.59,279.12L474.66,277.47L475.89,276.12L475.12,274.83L477.90,271.39L479.27,270.40L486.73,274.72L485.55,277.99L483.88,278.94L483.19,280.56L486.05,281.12L484.98,289.08L485.28,285.70L484.28,289.99L482.76,291.44L483.05,292.24L482.02,291.67L482.24,292.68L481.44,293.53L481.96,294.03L479.63,294.83L480.67,294.91L478.29,298.40L476.86,299.12L477.32,296.13L475.06,296.04L471.34,292.24Z"><title>New Jersey</title></path>
<path data-code="US-CT" data-name="Connecticut" d="M489.23,274.59L488.46,273.39L490.71,272.04L490.14,271.13L490.75,262.15L506.56,262.54L506.15,270.82L503.91,270.45L501.98,271.27L501.00,270.29L501.21,271.35L496.63,271.71L496.12,271.01L494.25,272.86L489.23,274.59Z"><title>Connecticut</title></path>
<path data-code="US-RI" data-name="Rhode Island" d="M511.88,266.23L511.27,266.82L511.45,265.76L510.43,264.94L509.51,270.24L505.84,270.93L506.53,269.70L506.57,262.67L510.47,262.61L510.90,265.20L511.88,266.23ZM512.96,268.55L512.24,268.80L512.28,266.62L512.88,266.80L512.96,268.55ZM511.42,267.74L512.03,266.81L511.91,268.83L510.77,269.20L511.42,267.74Z"><title>Rhode Island</title></path>
<path data-code="US-MA" data-name="Massachusetts" d="M512.28,266.62L513.07,265.19L511.88,266.23L511.06,265.42L510.47,262.61L497.10,262.71L490.50,261.86L492.77,253.98L511.23,254.51L514.90,252.32L515.86,252.43L515.39,253.03L516.40,255.03L517.58,254.59L517.91,255.30L515.26,256.44L515.64,256.90L513.75,259.16L516.54,260.01L517.97,262.59L517.42,262.03L516.80,262.76L518.40,263.50L518.51,264.97L519.39,265.68L520.94,266.16L523.53,264.97L523.66,263.73L522.88,264.06L522.59,262.35L521.75,262.59L521.50,261.80L523.05,262.33L524.24,264.71L523.72,265.19L524.11,266.65L519.59,267.05L517.33,268.45L517.59,265.87L513.73,268.62L513.52,267.95L512.96,268.55L512.88,266.80L512.28,266.62ZM523.02,269.97L523.84,271.67L520.91,270.98L522.76,271.16L523.40,270.54L522.81,270.94L523.02,269.97ZM518.10,269.56L518.75,270.33L515.56,270.52L517.83,269.01L518.10,269.56Z"><title>Massachusetts</title></path>
<path data-code="US-OR" data-name="Oregon" d="M10.28,251.81L11.14,247.31L11.94,247.43L12.73,245.97L13.60,246.54L12.95,245.63L11.76,246.66L12.94,243.22L14.26,242.57L13.52,242.14L13.01,242.93L13.84,235.53L14.75,234.32L14.12,233.27L14.87,231.88L14.18,231.18L15.19,225.52L14.90,223.27L15.69,222.41L15.40,220.76L15.95,221.72L15.32,220.53L16.13,219.09L15.50,219.53L15.10,218.36L15.64,215.36L14.76,212.74L16.81,214.31L16.19,213.32L19.45,212.74L20.71,213.80L24.65,213.92L26.16,215.78L26.96,219.67L31.30,220.65L35.71,218.82L44.12,219.76L61.99,215.53L81.99,215.51L85.97,219.99L82.35,228.51L78.93,233.46L79.01,235.64L81.10,235.99L81.87,237.07L80.55,241.18L80.69,262.80L12.90,262.80L11.03,259.85L11.15,255.52L9.58,252.94L10.28,251.81Z"><title>Oregon</title></path>
<path data-code="US-UT" data-name="Utah" d="M136.89,262.80L136.89,274.62L155.76,274.62L155.76,321.89L108.73,321.85L108.71,262.80L136.89,262.80Z"><title>Utah</title></path>
<path data-code="US-WY" data-name="Wyoming" d="M136.89,274.61L136.88,227.34L202.76,227.34L202.79,274.62L136.89,274.61Z"><title>Wyoming</title></path>
<path data-code="US-NV" data-name="Nevada" d="M108.71,262.80L108.71,331.11L107.61,333.36L105.66,331.97L102.31,332.61L103.72,343.01L103.19,345.48L70.24,313.72L52.59,298.26L52.59,262.80L108.71,262.80Z"><title>Nevada</title></path>
<path data-code="US-CO" data-name="Colorado" d="M155.76,274.62L221.64,274.62L221.76,321.89L155.76,321.89L155.76,274.62Z"><title>Colorado</title></path>
<path data-code="US-SD" data-name="South Dakota" d="M202.92,227.34L202.87,216.21L273.40,216.21L272.60,218.37L270.51,220.24L271.97,222.36L274.37,223.84L274.37,245.07L273.01,245.11L273.62,246.55L273.27,248.28L274.11,248.42L274.35,249.54L272.63,253.92L274.10,256.67L266.63,252.35L261.32,252.50L259.74,253.53L255.24,250.98L202.79,250.97L202.92,227.34Z"><title>South Dakota</title></path>
<path data-code="US-NE" data-name="Nebraska" d="M202.79,274.62L202.79,250.97L255.24,250.98L260.00,253.55L261.32,252.50L266.63,252.35L272.08,254.85L272.89,256.48L274.90,256.93L275.42,260.65L278.04,265.21L277.87,268.12L278.76,268.30L279.35,269.24L279.04,270.61L279.87,270.96L279.35,271.97L280.03,272.54L279.87,277.82L281.51,280.31L281.94,282.76L283.56,283.49L284.11,285.90L285.07,286.43L221.65,286.43L221.64,274.62L202.79,274.62Z"><title>Nebraska</title></path>
<path data-code="US-KS" data-name="Kansas" d="M221.76,321.89L221.65,286.43L285.07,286.43L287.20,288.08L288.55,287.60L289.24,289.48L288.35,289.52L287.02,291.75L289.01,293.70L289.67,295.68L291.71,296.45L291.66,321.89L221.76,321.89Z"><title>Kansas</title></path>
<path data-code="US-OK" data-name="Oklahoma" d="M212.71,327.80L212.70,321.89L291.66,321.89L291.66,327.80L293.35,340.96L292.92,361.51L289.26,360.23L285.99,357.78L284.70,358.90L282.43,357.91L280.68,359.05L279.23,358.58L275.55,360.87L272.98,358.47L271.59,359.13L269.86,357.85L267.87,360.59L267.23,358.41L265.11,359.39L263.19,357.41L260.50,358.84L260.22,357.40L258.97,357.01L258.80,355.57L255.18,356.46L254.29,355.49L248.73,354.74L246.97,351.88L246.46,352.85L243.97,352.68L240.98,350.54L240.95,327.80L212.71,327.80Z"><title>Oklahoma</title></path>
<path data-code="US-IA" data-name="Iowa" d="M273.41,247.57L273.04,245.08L323.38,245.06L323.77,246.57L324.92,247.23L324.16,249.08L325.31,254.03L328.53,255.05L329.11,257.17L333.56,261.42L333.75,263.08L331.18,268.07L325.45,269.73L324.80,271.83L326.03,273.24L326.22,274.83L324.30,278.49L321.96,279.56L322.13,281.79L321.09,281.67L318.85,279.12L280.83,279.34L279.87,277.82L280.29,275.93L280.03,272.54L279.36,272.16L279.87,270.96L279.04,270.61L279.35,269.24L277.87,268.12L277.95,264.94L275.42,260.65L274.90,256.93L272.63,253.92L274.35,249.54L273.41,247.57Z"><title>Iowa</title></path>
<path data-code="US-MO" data-name="Missouri" d="M282.09,282.78L280.83,279.34L318.85,279.12L321.58,281.95L320.85,284.37L322.21,289.56L327.87,294.95L328.96,299.18L329.64,299.69L331.12,298.64L333.80,299.94L331.69,307.25L339.65,313.87L340.42,317.18L339.65,318.72L341.02,321.33L341.98,321.88L342.12,320.91L343.41,322.13L342.64,326.53L341.09,326.23L340.06,328.36L339.21,327.13L339.58,329.17L338.66,329.67L339.33,330.46L338.03,330.79L338.79,332.03L337.76,333.70L331.64,333.87L334.52,330.31L333.63,327.80L291.66,327.80L291.71,296.45L289.67,295.68L289.01,293.70L287.02,291.75L288.35,289.52L289.24,289.48L288.55,287.60L287.20,288.08L284.22,286.04L283.66,283.62L282.09,282.78Z"><title>Missouri</title></path>
<path data-code="US-WI" data-name="Wisconsin" d="M365.64,222.10L370.47,224.55L366.10,229.17L362.83,239.52L362.03,246.49L363.23,256.93L329.12,256.75L328.53,255.05L324.99,253.44L324.16,249.08L324.92,247.23L323.40,245.51L322.96,240.12L318.04,237.24L315.35,234.00L308.60,230.20L309.17,223.99L310.07,222.30L309.25,220.73L307.83,220.12L309.69,216.55L313.56,214.54L313.59,207.69L321.33,204.60L329.00,200.06L335.55,200.32L331.27,208.62L333.11,209.63L334.04,211.50L352.83,216.33L352.96,217.85L355.85,219.22L355.10,222.88L357.18,222.96L356.49,224.99L357.26,225.91L359.30,226.41L359.61,224.92L362.54,222.10L365.64,222.10Z"><title>Wisconsin</title></path>
<path data-code="US-IL" data-name="Illinois" d="M329.64,299.69L328.54,298.31L327.87,294.95L322.21,289.56L320.85,284.37L321.28,282.20L322.22,281.67L321.96,279.56L324.30,278.49L326.22,274.83L326.03,273.24L324.80,271.83L325.45,269.73L331.00,268.19L333.38,264.75L333.56,261.42L331.36,259.90L329.12,256.75L363.23,256.93L361.46,265.64L358.50,265.64L358.39,293.98L357.62,294.47L357.13,296.85L358.36,298.75L358.60,301.05L357.26,304.19L354.07,307.32L354.62,308.18L353.71,308.91L354.30,309.08L353.57,309.46L353.63,311.19L352.94,311.27L353.52,312.75L352.45,314.32L353.14,316.08L349.39,317.34L349.71,320.75L344.99,319.20L342.89,321.15L343.41,322.13L342.12,320.91L341.98,321.88L341.02,321.33L339.65,318.72L340.42,317.18L339.65,313.87L331.69,307.25L333.80,299.94L331.12,298.64L329.64,299.69Z"><title>Illinois</title></path>
<path data-code="US-KY" data-name="Kentucky" d="M342.19,326.98L343.32,324.71L342.89,321.15L343.84,319.70L345.45,319.29L349.43,321.03L349.91,320.27L349.39,317.34L353.14,316.08L352.52,314.04L353.57,312.35L354.94,312.08L354.69,310.98L356.94,311.17L357.22,312.14L357.77,310.35L362.30,312.57L363.23,311.03L365.12,310.13L366.95,311.80L368.48,308.45L369.70,308.33L369.22,307.77L372.35,310.43L373.48,309.73L374.44,306.79L375.98,306.41L376.69,304.62L378.34,303.53L377.97,301.49L380.50,301.87L384.07,300.67L383.44,297.52L384.79,296.52L385.67,297.34L387.48,297.05L388.78,298.05L389.62,300.34L392.93,301.06L394.36,302.52L396.05,301.71L398.21,302.96L399.66,302.76L402.16,301.27L402.72,303.14L404.95,305.11L404.51,308.16L407.71,313.75L410.83,315.52L404.09,320.27L402.32,323.06L400.50,323.64L399.88,324.80L394.21,326.78L353.36,325.56L353.59,327.81L340.58,327.81L341.19,326.17L342.19,326.98Z"><title>Kentucky</title></path>
<path data-code="US-AR" data-name="Arkansas" d="M332.29,345.52L332.60,346.43L329.81,348.84L329.56,352.32L328.00,352.84L327.89,353.99L326.15,355.49L326.87,356.62L324.86,357.47L325.31,359.54L323.61,361.01L324.31,361.68L323.52,362.46L324.54,363.51L324.02,365.38L324.86,367.18L324.17,368.99L297.09,369.03L297.04,362.61L293.83,362.52L292.92,361.51L293.35,340.96L291.66,327.80L333.63,327.80L334.52,330.31L331.58,333.85L337.76,333.70L338.29,334.71L335.61,336.98L335.93,339.05L334.07,341.16L334.35,343.77L332.29,345.52Z"><title>Arkansas</title></path>
<path data-code="US-TN" data-name="Tennessee" d="M338.23,334.93L337.83,333.30L338.79,332.03L338.03,330.79L339.29,330.59L338.66,329.67L339.58,329.17L339.30,327.80L353.59,327.81L353.31,325.56L413.72,326.50L413.18,329.65L411.52,329.96L409.77,332.48L408.50,331.83L405.23,334.16L404.57,333.03L401.96,334.35L401.18,336.26L396.38,338.79L392.72,339.47L390.93,342.35L388.93,342.81L388.61,345.68L332.29,345.52L334.35,343.77L334.07,341.16L335.93,339.05L335.61,336.98L337.77,335.68L337.42,334.78L338.23,334.93Z"><title>Tennessee</title></path>
<path data-code="US-WV" data-name="West Virginia" d="M404.95,305.11L407.38,304.83L407.90,303.12L408.83,302.84L408.54,300.78L409.96,298.21L411.09,298.36L411.43,299.74L412.73,298.99L412.22,297.31L413.50,295.05L415.56,293.45L416.45,294.10L417.79,293.54L421.10,290.82L423.69,282.61L422.97,279.47L423.48,279.03L424.44,278.79L424.45,289.72L434.26,289.72L434.19,295.81L437.79,292.73L439.16,292.88L440.88,290.71L441.75,291.80L443.76,291.95L444.19,290.81L446.93,289.96L449.62,291.02L449.50,292.16L450.64,293.45L449.73,296.55L445.02,292.99L444.22,296.40L440.01,300.75L438.77,300.12L436.03,305.06L432.65,303.12L431.28,306.83L426.66,313.79L427.22,314.54L426.61,315.82L425.03,316.83L421.25,316.92L420.41,318.40L417.81,319.00L416.50,317.93L414.42,319.47L412.06,318.44L410.68,316.36L410.91,315.61L407.76,313.82L404.56,308.26L404.95,305.11Z"><title>West Virginia</title></path>
<path data-code="US-IN" data-name="Indiana" d="M384.08,266.38L383.44,297.52L383.92,298.56L383.40,299.20L384.28,299.52L384.07,300.67L380.50,301.87L377.97,301.49L378.34,303.53L376.69,304.62L375.98,306.41L374.44,306.79L373.48,309.73L372.35,310.43L369.22,307.77L369.70,308.33L368.48,308.45L366.95,311.80L365.12,310.13L363.23,311.03L362.30,312.57L357.77,310.35L357.51,312.03L354.85,310.88L354.46,312.65L353.10,312.22L353.62,312.04L352.94,311.27L353.63,311.19L353.57,309.46L354.30,309.08L353.71,308.91L354.62,308.18L354.07,307.32L357.26,304.19L358.60,301.05L358.36,298.75L357.13,296.85L357.62,294.47L358.39,293.98L358.50,265.64L384.08,265.65L384.08,266.38Z"><title>Indiana</title></path>
  </g>
</svg>
