<?xml version="1.0" encoding="utf-8"?>
<!-- Generator: Adobe Illustrator 17.1.0, SVG Export Plug-In . SVG Version: 6.00 Build 0)  -->
<!DOCTYPE svg PUBLIC "-//W3C//DTD SVG 1.1//EN" "http://www.w3.org/Graphics/SVG/1.1/DTD/svg11.dtd">
<svg version="1.1" id="レイヤー_1" xmlns="http://www.w3.org/2000/svg" xmlns:xlink="http://www.w3.org/1999/xlink" x="0px"
	 y="0px" width="150px" height="68px" viewBox="0 0 150 68" enable-background="new 0 0 150 68" xml:space="preserve">
<g>
	<polygon fill="#FFF000" points="0.76,12.58 9.21,54.53 75.34,67.14 140.25,54.53 149.23,12.58 75.16,0.64 	"/>
	<polygon fill="none" stroke="#231815" stroke-width="1.2753" points="0.76,12.58 9.21,54.53 75.34,67.14 140.25,54.53 
		149.23,12.58 75.16,0.64 	"/>
	<path fill="#231815" d="M63.18,8.7c-0.56,0.01-1.94,0.04-2.01,0.04c-0.33,0.01-0.94,0.01-0.99,0.01c-0.08-0.02-0.1-0.13-0.1-0.21
		c-0.01-0.2,0-0.99,0-1.23c0-0.03,0.08-0.13,0.11-0.14c0.04-0.01,0.18-0.01,0.21-0.01l7.83-0.06c0.03,0,0.06,0.02,0.08,0.04
		c0.03,0.02,0.06,0.06,0.06,0.09c0.01,0.16,0.04,1.03,0.04,1.23c0,0.03-0.02,0.05-0.04,0.07c-0.03,0.03-0.06,0.05-0.1,0.06
		c-0.02,0.01-0.84,0.03-0.97,0.03L63.18,8.7"/>
	<path fill="#231815" d="M69.98,7.05c0.13,0.07,0.25,0.17,0.34,0.28c0.08,0.1,0.13,0.22,0.17,0.34c0.03,0.09,0.02,0.21,0.01,0.31
		c-0.02,0.11-0.05,0.22-0.11,0.31c-0.07,0.11-0.17,0.22-0.28,0.29c-0.09,0.06-0.2,0.1-0.31,0.13c-0.12,0.02-0.24,0.03-0.35,0.01
		c-0.11-0.02-0.22-0.06-0.32-0.11c-0.06-0.03-0.12-0.06-0.16-0.11c-0.1-0.11-0.2-0.23-0.26-0.36c-0.05-0.1-0.07-0.22-0.07-0.33
		c0-0.04,0.04-0.07,0.06-0.12c0-0.02-0.03-0.04-0.02-0.05c0.05-0.1,0.15-0.29,0.26-0.42C69,7.16,69.08,7.1,69.17,7.07
		c0.14-0.06,0.29-0.11,0.45-0.11C69.74,6.96,69.87,6.99,69.98,7.05"/>
	<path fill="#231815" d="M71.81,6.99c0.11,0.04,0.21,0.09,0.31,0.14c0.05,0.03,0.09,0.07,0.12,0.12c0.05,0.07,0.11,0.13,0.14,0.21
		c0.05,0.12,0.07,0.27,0.07,0.4c0,0.11-0.01,0.22-0.05,0.32c-0.04,0.1-0.09,0.2-0.16,0.27c-0.08,0.08-0.17,0.14-0.27,0.18
		c-0.11,0.05-0.23,0.06-0.35,0.07c-0.12,0-0.24-0.01-0.35-0.04c-0.09-0.03-0.17-0.08-0.24-0.13c-0.07-0.05-0.13-0.12-0.18-0.19
		c-0.05-0.07-0.09-0.15-0.12-0.23c-0.03-0.07-0.06-0.15-0.06-0.23c0-0.11,0.02-0.21,0.05-0.31c0.04-0.1,0.08-0.19,0.15-0.27
		c0.07-0.09,0.16-0.16,0.25-0.22c0.1-0.06,0.21-0.08,0.31-0.12c0.03-0.01,0.06-0.02,0.1-0.02C71.62,6.95,71.72,6.97,71.81,6.99"/>
	<path fill="#231815" d="M90.58,6.87c0.16,0,0.33,0.01,0.49,0.05c0.04,0.01,0.08,0.05,0.1,0.09c0.02,0.04,0.01,0.08,0.01,0.11
		c-0.01,0.09-0.08,0.75-0.1,0.81c-0.08,0.39-0.15,0.85-0.24,1.28c-0.07,0.34-0.15,0.67-0.25,1.01c-0.1,0.33-0.22,0.66-0.36,0.97
		c-0.05,0.13-0.15,0.23-0.23,0.36c-0.07,0.11-0.12,0.23-0.18,0.35c-0.06,0.11-0.14,0.2-0.19,0.31c-0.02,0.05-0.04,0.1-0.04,0.16
		c0.02,0.1,0.06,0.22,0.13,0.3c0.13,0.18,0.3,0.34,0.46,0.49c0.1,0.1,0.23,0.17,0.36,0.24c0.08,0.04,0.16,0.09,0.24,0.11
		c0.24,0.06,0.56,0.12,0.71,0.15c0.02,0,0.02-0.02,0.04-0.02c0.09,0.01,0.19,0.04,0.28,0.07c0.02,0.01,0.05,0.03,0.05,0.06
		c0.02,0.12,0.05,1.04,0.05,1.15c0.01,0.11,0.01,0.2-0.01,0.31c0,0.03-0.01,0.06-0.03,0.08c-0.07,0.04-0.14,0.08-0.21,0.08
		c-0.26,0.01-0.53-0.03-0.79-0.07c-0.27-0.05-0.55-0.13-0.82-0.21c-0.2-0.06-0.4-0.12-0.59-0.21c-0.03-0.02-0.24-0.14-0.32-0.19
		c-0.16-0.09-0.52-0.41-0.55-0.44c-0.13-0.12-0.26-0.23-0.4-0.33c-0.04-0.04-0.09-0.06-0.14-0.06c-0.09,0.01-0.17,0.06-0.25,0.1
		c-0.03,0.02-0.16,0.1-0.19,0.12c-0.06,0.04-0.1,0.09-0.15,0.12c-0.04,0.03-0.16,0.11-0.19,0.13c-0.27,0.15-0.53,0.29-0.81,0.41
		c-0.25,0.11-0.51,0.21-0.77,0.29c-0.29,0.09-0.59,0.14-0.89,0.22c-0.09,0.02-0.18,0.05-0.27,0.07c-0.02,0-1.13,0.1-1.4,0.11
		c-0.13,0.01-0.26-0.01-0.39-0.04c-0.03-0.01-0.06-0.06-0.06-0.09c-0.01-0.18-0.03-0.95-0.03-1.15c0-0.03,0.01-0.06,0.04-0.08
		c0.09-0.05,0.32-0.07,0.33-0.07c0.17-0.01,0.34-0.03,0.5-0.05c0.23-0.04,0.47-0.1,0.69-0.17c0.02-0.01,0.02-0.03,0.04-0.04
		c0.16-0.06,0.34-0.1,0.5-0.17c0.01-0.01,0.46-0.21,0.53-0.25c0.08-0.04,0.53-0.33,0.57-0.36c0.08-0.06,0.15-0.14,0.23-0.2
		c0.07-0.06,0.16-0.09,0.23-0.16c0.11-0.1,0.2-0.21,0.31-0.31c0.06-0.06,0.14-0.12,0.2-0.18c0.03-0.02,0.03-0.05,0.04-0.08
		c0.08-0.1,0.18-0.18,0.26-0.28c0.05-0.05,0.29-0.42,0.34-0.51c0.17-0.34,0.33-0.67,0.48-1.02c0.04-0.1,0.16-0.46,0.18-0.55
		c0.04-0.21,0.07-0.42,0.07-0.64c0.01-0.05,0-0.11-0.02-0.17c-0.01-0.04-0.02-0.09-0.06-0.11c-0.05-0.04-0.13-0.04-0.2-0.05
		c-0.12-0.02-0.24-0.04-0.37-0.04c-0.06-0.01-0.73,0.02-0.9,0.02c-0.04,0-2.45,0.08-2.78,0.1c-0.02,0-0.16,0.03-0.21,0.03
		c-0.05,0.01-0.2,0.01-0.23,0.01c-0.08-0.02-0.2-0.04-0.22-0.11c-0.02-0.06-0.05-0.49-0.06-0.73c-0.01-0.22-0.01-0.46,0-0.69
		c0.01-0.05,0.02-0.11,0.04-0.16c0.01-0.02,0.03-0.06,0.06-0.06c0.12-0.01,0.72-0.04,1.09-0.05L90.58,6.87"/>
	<path fill="#231815" d="M68.38,9.57c0.03,0,0.16-0.01,0.2-0.01c0.07,0.01,0.14,0.02,0.2,0.05c0.05,0.03,0.1,0.08,0.1,0.13
		c0.01,0.12,0.03,0.8,0.03,1.19c0,0.08,0,0.16-0.03,0.23c-0.01,0.03-0.06,0.04-0.09,0.06c-0.08,0.02-0.15,0.04-0.23,0.04
		c-0.41,0-0.83-0.03-1.25-0.02c-0.39,0-0.95,0.03-1.17,0.05c-0.03,0-0.05,0.02-0.07,0.04c-0.04,0.05-0.07,0.11-0.1,0.17
		c-0.08,0.27-0.12,0.55-0.21,0.81c-0.08,0.23-0.19,0.45-0.29,0.67c-0.04,0.1-0.1,0.19-0.15,0.27c-0.02,0.03-0.05,0.05-0.08,0.08
		c-0.04,0.07-0.06,0.17-0.11,0.23c-0.15,0.2-0.33,0.39-0.51,0.57c-0.04,0.04-0.33,0.26-0.34,0.28c-0.05,0.05-0.48,0.39-0.65,0.48
		c-0.24,0.13-0.49,0.23-0.73,0.33c-0.13,0.05-0.26,0.09-0.38,0.13c-0.03,0-0.15,0.04-0.2,0.04c-0.26,0.05-0.51,0.1-0.78,0.12
		c-0.24,0.02-0.91,0.03-0.95,0.03c-0.06,0.01-0.22-0.01-0.26-0.01c-0.13,0-0.27,0.01-0.39-0.03c-0.05-0.01-0.08-0.08-0.1-0.13
		c-0.01-0.02-0.02-0.14-0.02-0.17c-0.01-0.17,0.02-0.71,0.06-0.79c0.01-0.03,0.04-0.05,0.07-0.06c0.1-0.03,0.19-0.06,0.29-0.06
		c0.03,0,0.76-0.11,1.03-0.2c0.08-0.03,0.15-0.09,0.23-0.12c0.08-0.03,0.17-0.04,0.24-0.08c0.16-0.1,0.32-0.2,0.46-0.32
		c0.18-0.15,0.35-0.32,0.51-0.5c0.06-0.06,0.1-0.16,0.15-0.23c0.05-0.06,0.11-0.12,0.15-0.19c0.1-0.2,0.19-0.41,0.25-0.62
		c0.05-0.16,0.07-0.32,0.09-0.49c0-0.05,0-0.09-0.03-0.14c-0.02-0.03-0.06-0.04-0.1-0.05c-0.06-0.01-0.13-0.03-0.2-0.03
		c-0.08-0.01-0.16,0.01-0.23,0.01c-0.6,0-1.35,0.01-1.95,0.01c-0.1,0-0.21,0.01-0.31,0.01c-0.04,0.01-0.07,0.01-0.11,0.01
		c-0.06,0-0.13,0-0.2,0c-0.04,0-0.08,0.01-0.12,0.01c-0.05,0-0.1,0.01-0.16,0c-0.04,0-0.09-0.01-0.12-0.04
		c-0.03-0.02-0.05-0.06-0.06-0.09c-0.03-0.19-0.03-0.38-0.04-0.58c0-0.11,0-0.51,0-0.61c0.01-0.09,0.01-0.19,0.05-0.27
		c0.03-0.05,0.08-0.08,0.14-0.08c0.14-0.01,0.42,0,0.56,0C60.57,9.7,68.19,9.59,68.38,9.57"/>
	<path fill="#231815" d="M76.75,10.61c-0.01,0.18-0.01,0.41-0.04,0.48c-0.02,0.06-0.13,0.09-0.2,0.1l-6.41,0.06
		c-0.03,0-0.06-0.02-0.08-0.04c-0.04-0.06-0.08-0.12-0.08-0.19c0-0.18,0.03-1.26,0.04-1.35c0.01-0.04,0.04-0.08,0.08-0.08
		c0.14-0.03,0.29-0.01,0.43-0.01l6-0.09c0.04,0,0.07-0.02,0.12,0c0.02,0,0.05,0.03,0.06,0.05c0.03,0.06,0.04,0.13,0.04,0.19
		L76.75,10.61"/>
	<path fill="#231815" d="M78.01,12.34c-0.1-0.01-0.19-0.02-0.28-0.05c-0.02-0.01-0.05-0.03-0.05-0.05c-0.01-0.09-0.03-0.9-0.04-1.35
		c0-0.1-0.02-0.24,0.01-0.31c0.02-0.05,0.1-0.06,0.15-0.06l4.72-0.06c0.05,0,0.12-0.01,0.16,0.03c0.06,0.08,0.1,0.18,0.11,0.29
		c0.02,0.29-0.01,0.72-0.01,1.08c0,0.07,0.01,0.13,0.01,0.2c-0.01,0.04-0.01,0.08-0.04,0.11c-0.02,0.03-0.05,0.05-0.09,0.06
		c-0.08,0.01-0.16,0-0.23,0.01L78.01,12.34"/>
	<path fill="#E50012" d="M34.11,14.32c0.28-0.01,0.93-0.01,0.97-0.01c0.38,0.02,1.25,0.07,1.8,0.11c0.2,0.01,0.39,0.03,0.59,0.06
		c0.11,0.02,0.92,0.13,1.22,0.2c0.44,0.1,1.02,0.28,1.53,0.42c0.12,0.03,0.24,0.06,0.35,0.1c0.02,0.01,0.41,0.14,0.59,0.22
		c0.24,0.1,0.48,0.22,0.71,0.32c0.13,0.07,0.27,0.12,0.4,0.18c0.18,0.09,0.37,0.17,0.55,0.28c0.08,0.04,0.31,0.21,0.36,0.24
		c0.03,0.02,0.19,0.11,0.24,0.15c0.2,0.13,0.41,0.27,0.6,0.41c0.14,0.1,0.72,0.58,0.8,0.65c0.1,0.09,0.54,0.52,0.6,0.58
		c0.13,0.13,0.27,0.24,0.4,0.37c0.03,0.02,0.2,0.21,0.26,0.28c0.06,0.06,0.17,0.19,0.18,0.2c0.09,0.09,0.16,0.19,0.24,0.29
		c0.05,0.05,0.08,0.12,0.13,0.18c0.03,0.05,0.22,0.24,0.26,0.3c0.11,0.17,0.21,0.36,0.33,0.53c0.05,0.08,0.13,0.14,0.18,0.23
		c0.12,0.18,0.24,0.37,0.35,0.56c0.02,0.04,0.02,0.11,0.04,0.16c0.14,0.28,0.31,0.55,0.45,0.83c0.03,0.05,0.13,0.3,0.17,0.38
		c0.05,0.11,0.21,0.55,0.25,0.65c0.03,0.05,0.16,0.44,0.17,0.46c0.04,0.14,0.31,0.99,0.44,1.49c0.11,0.46,0.2,0.92,0.27,1.38
		c0.08,0.44,0.14,1.06,0.17,1.34c0.01,0.04,0.05,0.42,0.06,0.57c0,0.04,0.02,0.67,0.02,0.79c0,0.09-0.01,1.47-0.01,1.48
		c-0.01,0.14-0.1,1.09-0.14,1.62c-0.01,0.11-0.03,0.37-0.03,0.39c-0.03,0.27-0.08,0.6-0.13,0.89c-0.01,0.08-0.12,0.65-0.17,0.85
		c-0.13,0.52-0.41,1.54-0.56,2.05c-0.03,0.1-0.07,0.18-0.11,0.28c-0.04,0.12-0.07,0.26-0.11,0.38c-0.03,0.1-0.28,0.8-0.36,1.01
		c-0.04,0.11-0.1,0.2-0.15,0.31c-0.13,0.31-0.27,0.6-0.4,0.9c-0.07,0.16-0.14,0.32-0.22,0.47c-0.05,0.08-0.22,0.39-0.27,0.47
		c-0.1,0.2-0.21,0.4-0.33,0.59c-0.02,0.03-0.17,0.27-0.22,0.35c-0.02,0.04-0.23,0.34-0.32,0.47c-0.06,0.09-0.75,1.07-0.86,1.22
		c-0.12,0.17-0.24,0.34-0.37,0.51c-0.05,0.06-0.19,0.21-0.21,0.23c-0.12,0.14-0.43,0.49-0.47,0.54c-0.22,0.23-0.44,0.47-0.66,0.7
		c-0.11,0.11-0.21,0.23-0.32,0.34c-0.07,0.06-0.35,0.33-0.42,0.39c-0.12,0.11-0.65,0.56-0.8,0.68c-0.06,0.05-0.48,0.38-0.53,0.42
		c-0.03,0.02-1.22,0.89-1.3,0.95c-0.39,0.25-0.91,0.58-1.38,0.84c-0.38,0.22-0.79,0.42-1.19,0.61c-0.15,0.08-0.48,0.24-0.5,0.25
		c-0.29,0.12-0.61,0.25-0.92,0.37c-0.11,0.04-0.67,0.24-0.69,0.25c-0.15,0.04-0.84,0.25-1.28,0.34c-0.45,0.1-1.13,0.2-1.69,0.29
		c-0.15,0.02-0.6,0.05-0.68,0.06c-0.27,0.01-0.54,0.03-0.81,0.02c-0.46-0.01-0.93-0.02-1.37-0.08c-0.37-0.05-0.73-0.15-1.09-0.24
		c-0.13-0.03-0.85-0.29-1.07-0.39c-0.03-0.01-0.38-0.18-0.51-0.25c-0.05-0.03-0.69-0.46-0.72-0.48c-0.12-0.09-0.41-0.34-0.44-0.37
		c-0.11-0.1-0.24-0.2-0.34-0.32c-0.11-0.11-0.4-0.47-0.45-0.52c-0.12-0.17-0.55-0.84-0.57-0.87c-0.06-0.11-0.13-0.22-0.16-0.34
		c-0.09-0.25-0.17-0.5-0.22-0.76c-0.04-0.22-0.08-0.44-0.08-0.65c0-0.31,0.02-0.62,0.07-0.93c0.03-0.16,0.09-0.32,0.14-0.47
		c0.02-0.06,0.09-0.27,0.11-0.31c0.06-0.15,0.13-0.3,0.22-0.44c0.07-0.1,0.24-0.37,0.33-0.48c0.01-0.02,0.31-0.28,0.36-0.32
		c0.16-0.13,0.33-0.24,0.5-0.36c0.1-0.07,0.19-0.15,0.31-0.2c0.19-0.09,0.6-0.24,0.62-0.25c0.23-0.07,0.46-0.15,0.7-0.19
		c0.05-0.01,0.35-0.01,0.47-0.01c0.09,0,0.29,0.01,0.31,0.01c0.21,0.01,0.45,0.03,0.62,0.06c0.02,0,0.36,0.09,0.51,0.14
		c0.02,0,0.2,0.07,0.27,0.11c0.18,0.08,0.35,0.16,0.51,0.25c0.11,0.07,0.21,0.14,0.32,0.23c0.06,0.04,0.1,0.1,0.16,0.15
		c0.05,0.04,0.1,0.05,0.14,0.09c0.11,0.1,0.36,0.34,0.38,0.37c0.05,0.07,0.23,0.32,0.26,0.37c0.05,0.08,0.08,0.16,0.12,0.23
		c0.07,0.13,0.15,0.24,0.2,0.38c0.07,0.17,0.13,0.35,0.17,0.53c0.04,0.17,0.1,0.34,0.11,0.52c0.02,0.22,0.02,0.46,0,0.69
		c-0.01,0.22-0.06,0.42-0.1,0.64c-0.02,0.13-0.05,0.25-0.07,0.39c0,0.02,0,0.06,0.02,0.07c0.03,0.03,0.08,0.04,0.11,0.04
		c0.04,0,0.22-0.08,0.27-0.1c0.06-0.04,0.11-0.08,0.15-0.13c0.14-0.13,0.29-0.26,0.4-0.42c0.15-0.21,0.26-0.43,0.37-0.66
		c0.1-0.19,0.2-0.38,0.26-0.59c0.09-0.3,0.16-0.62,0.21-0.93c0.03-0.19,0.02-0.38,0.02-0.58c0-0.03-0.01-1.06-0.01-1.08
		c-0.02-0.16-0.14-0.95-0.17-1.18c0-0.03-1.29-6.03-1.85-8.5c-0.07-0.3-0.11-0.62-0.18-0.92c-0.04-0.19-0.48-2.16-0.54-2.41
		c-0.08-0.36-0.28-1.27-0.29-1.3c-0.06-0.26-0.28-1.04-0.28-1.07c-0.06-0.29-0.2-1.08-0.32-1.61c-0.09-0.42-0.35-1.56-0.4-1.72
		c-0.08-0.26-0.18-0.52-0.3-0.76c-0.11-0.24-0.23-0.47-0.37-0.68c-0.1-0.16-0.24-0.28-0.36-0.41c-0.18-0.18-0.37-0.36-0.56-0.52
		c-0.07-0.06-0.14-0.12-0.22-0.17c-0.05-0.03-0.21-0.13-0.24-0.15c-0.14-0.07-0.29-0.16-0.43-0.22c-0.05-0.02-0.11-0.01-0.16-0.04
		c-0.04-0.01-0.07-0.06-0.11-0.07c-0.25-0.09-0.5-0.17-0.75-0.21c-0.31-0.06-0.62-0.09-0.94-0.07c-0.33,0.02-0.65,0.1-0.97,0.16
		c-0.09,0.02-0.18,0.06-0.27,0.09c-0.18,0.04-0.56,0.17-0.58,0.17c-0.07,0.02-0.29,0.1-0.35,0.12c-0.27,0.09-0.54,0.17-0.81,0.24
		c-0.04,0-0.09,0-0.12-0.02c-0.07-0.06-0.15-0.12-0.18-0.21c-0.06-0.18-0.33-1.19-0.48-1.72c-0.14-0.5-0.36-1.3-0.44-1.64
		c-0.03-0.12-0.05-0.34-0.03-0.38c0.03-0.07,0.16-0.07,0.23-0.1c0.16-0.06,0.34-0.11,0.5-0.17c0.07-0.02,0.13-0.06,0.19-0.08
		c0.1-0.03,0.21-0.05,0.31-0.09c0.2-0.07,1.97-0.61,2.05-0.64c0.26-0.08,3.49-0.94,3.52-0.94c0.33-0.06,1.73-0.29,1.98-0.33
		c0.03-0.01,0.23-0.04,0.31-0.04c0.45-0.07,2.32-0.28,2.5-0.28c0.04,0,0.45-0.04,0.62-0.06C33.27,14.33,33.87,14.32,34.11,14.32"/>
	<path fill="#231815" d="M70.66,15.57c-0.15,0.01-0.3-0.02-0.45-0.01c-0.12,0.01-0.34,0.04-0.4,0.03c-0.03-0.01-0.17-0.03-0.19-0.05
		c-0.02-0.03-0.04-0.07-0.04-0.11c-0.02-0.2-0.01-0.4-0.02-0.6c0-0.1-0.01-0.22-0.01-0.32c0-0.04,0-0.08,0-0.12
		c0-0.24,0-0.48,0.02-0.73c0-0.03,0.01-0.06,0.04-0.08c0.06-0.04,0.14-0.06,0.21-0.08c0.01-0.01,0.02,0.02,0.04,0.02
		c0.03,0,0.06-0.03,0.09-0.02l5.44-0.02c0.4,0,0.89-0.03,1.21-0.03c0.02,0,0.03,0.01,0.06,0.01c0.02,0,0.03-0.02,0.06-0.02
		c0.12,0,0.23,0,0.35,0.03c0.03,0,0.05,0.03,0.06,0.05c0.04,0.17,0.05,0.34,0.05,0.5c0,0.41-0.01,0.69-0.01,1.1
		c-0.01,0.05-0.01,0.17-0.02,0.22c-0.01,0.04-0.02,0.13-0.07,0.15c-0.03,0.02-0.22,0.04-0.26,0.04c-0.24-0.01-0.43-0.04-0.67-0.04
		L70.66,15.57"/>
	<path fill="#E50012" d="M122.01,12.39c0.08,0.02,0.35,0.11,0.39,0.14c0.23,0.13,0.44,0.27,0.64,0.42c0.12,0.1,0.24,0.22,0.34,0.34
		c0.13,0.16,0.26,0.32,0.36,0.49c0.12,0.22,0.23,0.45,0.29,0.68c0.05,0.22,0.07,0.43,0.07,0.66c0.01,0.11,0.02,0.42,0.01,0.46
		c-0.03,0.22-0.09,0.6-0.19,0.89c-0.08,0.27-0.24,0.52-0.37,0.78c-0.07,0.15-0.13,0.29-0.22,0.43c-0.06,0.1-0.2,0.36-0.22,0.39
		c-0.11,0.15-0.63,0.81-0.64,0.83c-0.13,0.15-0.44,0.49-0.46,0.51c-0.08,0.1-0.79,0.81-0.91,0.91c-0.09,0.09-0.32,0.3-0.34,0.32
		c-0.04,0.04-0.1,0.04-0.13,0.06c-0.06,0.04-0.1,0.09-0.16,0.12c-0.05,0.03-0.13,0.02-0.19,0.01c-0.07-0.01-0.13-0.04-0.2-0.07
		c-0.03-0.02-0.19-0.11-0.24-0.15c-0.07-0.04-0.39-0.23-0.48-0.29c-0.03-0.02-0.06-0.05-0.06-0.09c0.01-0.09,0.06-0.17,0.11-0.24
		c0.19-0.22,0.62-0.69,0.64-0.7c0.08-0.09,0.68-0.81,0.76-0.95c0.08-0.16,0.15-0.34,0.21-0.51c0.05-0.14,0.12-0.29,0.13-0.44
		c0-0.08-0.03-0.16-0.09-0.21c-0.06-0.05-0.14-0.04-0.22-0.05c-0.15-0.01-0.3,0.01-0.45-0.02c-0.2-0.04-0.4-0.1-0.59-0.18
		c-0.13-0.06-0.44-0.23-0.47-0.26c-0.09-0.06-0.18-0.15-0.26-0.24c-0.01-0.02-0.19-0.19-0.24-0.26c-0.08-0.09-0.15-0.19-0.21-0.31
		c-0.09-0.19-0.18-0.41-0.23-0.59c-0.01-0.01-0.07-0.61-0.04-0.82c0.02-0.2,0.07-0.39,0.14-0.58c0.07-0.17,0.14-0.33,0.24-0.47
		c0.13-0.19,0.29-0.37,0.45-0.53c0.1-0.1,0.23-0.18,0.35-0.24c0.2-0.1,0.4-0.19,0.62-0.25c0.26-0.07,0.54-0.11,0.8-0.13
		C121.1,12.21,121.79,12.33,122.01,12.39"/>
	<path fill="#E50012" d="M117.87,20.88c-0.01,0.05-0.05,0.09-0.1,0.1c-0.18,0.05-0.59,0.1-0.77,0.13c-0.02,0.01-0.02,0.04-0.04,0.05
		c-0.14,0.05-0.29,0.06-0.42,0.12c-0.1,0.04-0.18,0.11-0.27,0.16c-0.04,0.02-0.11,0.01-0.16,0.04c-0.17,0.1-0.34,0.22-0.5,0.36
		c-0.13,0.12-0.21,0.27-0.32,0.42c-0.1,0.14-0.2,0.28-0.29,0.43c-0.04,0.06-0.09,0.12-0.12,0.19c-0.02,0.05-0.11,0.25-0.14,0.31
		c-0.1,0.22-0.16,0.44-0.26,0.66c-0.09,0.22-0.2,0.41-0.29,0.63c-0.1,0.24-0.19,0.49-0.29,0.73c-0.01,0.02-0.02,0.03-0.04,0.04
		c-0.04,0.1-0.07,0.21-0.11,0.31c-0.04,0.11-0.1,0.2-0.14,0.31c-0.01,0.04-0.01,0.08-0.04,0.11c-0.02,0.03-0.06,0.05-0.07,0.08
		c-0.13,0.28-0.22,0.58-0.35,0.86c-0.1,0.24-0.24,0.46-0.35,0.7c-0.02,0.05-0.01,0.11-0.04,0.16c-0.06,0.16-0.14,0.31-0.22,0.47
		c-0.09,0.21-0.19,0.41-0.29,0.63c-0.07,0.15-0.12,0.31-0.19,0.47c-0.03,0.08-0.07,0.16-0.11,0.23l-2.31,5.07
		c-0.04,0.08-0.05,0.16-0.08,0.23c-0.3,0.64-0.67,1.43-0.97,2.07c-0.08,0.16-0.19,0.31-0.26,0.47c-0.11,0.22-0.21,0.45-0.32,0.67
		c-0.04,0.08-0.07,0.16-0.13,0.23c-0.04,0.07-0.28,0.52-0.37,0.67c-0.22,0.4-0.44,0.78-0.67,1.17c-0.04,0.06-0.2,0.37-0.26,0.47
		c-0.04,0.07-0.4,0.67-0.45,0.74c-0.14,0.25-0.64,1.06-0.7,1.17c-0.05,0.07-0.11,0.13-0.15,0.2c-0.04,0.05-0.05,0.11-0.07,0.16
		c-0.02,0.03-0.1,0.16-0.11,0.19c-0.19,0.28-0.38,0.55-0.56,0.82c-0.09,0.13-0.16,0.27-0.26,0.39c-0.07,0.09-0.28,0.37-0.32,0.43
		c-0.04,0.06-0.09,0.1-0.13,0.16c-0.04,0.05-0.04,0.11-0.07,0.16c-0.04,0.06-0.1,0.1-0.15,0.16c-0.18,0.21-0.68,0.86-0.7,0.88
		c-0.08,0.08-0.16,0.16-0.23,0.26c-0.14,0.17-0.26,0.36-0.41,0.53c-0.24,0.27-0.5,0.53-0.76,0.79c-0.02,0.02-0.3,0.28-0.42,0.39
		c-0.02,0.02-0.11,0.11-0.13,0.14c-0.08,0.08-1.18,1.04-1.31,1.13c-0.06,0.04-0.58,0.4-0.65,0.45c-0.12,0.09-0.43,0.29-0.46,0.32
		c-0.2,0.12-0.71,0.41-0.76,0.44c-0.19,0.1-0.38,0.2-0.58,0.29c-0.25,0.11-0.51,0.22-0.77,0.33c-0.14,0.06-0.28,0.12-0.42,0.17
		c-0.13,0.04-0.59,0.22-0.7,0.25c-0.33,0.1-0.87,0.25-1,0.28c-0.01,0.01-0.02-0.02-0.04-0.02c-0.23,0.03-0.57,0.11-0.85,0.14
		c-0.34,0.04-0.67,0.09-1.01,0.09c-0.32,0.01-0.65-0.04-0.98-0.05c-0.02,0-0.86-0.07-1.25-0.13c-0.31-0.05-0.63-0.13-0.94-0.21
		c-0.25-0.07-0.5-0.15-0.75-0.25c-0.27-0.1-0.52-0.24-0.79-0.36c-0.1-0.05-0.21-0.09-0.32-0.15c-0.18-0.09-0.38-0.19-0.55-0.29
		c-0.15-0.08-0.29-0.17-0.44-0.26c-0.06-0.04-0.1-0.1-0.16-0.15c-0.13-0.1-0.64-0.49-0.7-0.54c-0.07-0.06-0.15-0.13-0.22-0.2
		c-0.03-0.03-0.21-0.22-0.26-0.28c-0.11-0.12-0.4-0.47-0.44-0.52c-0.06-0.07-0.29-0.48-0.37-0.61c-0.06-0.1-0.12-0.19-0.17-0.3
		c-0.09-0.23-0.18-0.46-0.26-0.69c-0.05-0.18-0.1-0.37-0.13-0.56c-0.04-0.2-0.06-0.42-0.06-0.63c0-0.36-0.01-0.73,0.04-1.08
		c0.05-0.33,0.17-0.66,0.29-0.97c0.1-0.27,0.24-0.52,0.37-0.78c0.02-0.04,0.12-0.19,0.15-0.24c0.15-0.21,0.31-0.4,0.47-0.59
		c0.01-0.01,0.07-0.09,0.1-0.12c0.09-0.08,0.19-0.14,0.29-0.22c0.09-0.08,0.16-0.18,0.26-0.24c0.09-0.07,0.36-0.22,0.38-0.24
		c0.05-0.03,0.36-0.17,0.47-0.21c0.18-0.06,0.77-0.2,0.89-0.19c0.32,0,0.63,0.06,0.94,0.1c0.11,0.02,0.22,0.03,0.32,0.07
		c0.25,0.1,0.51,0.22,0.75,0.36c0.21,0.13,0.42,0.29,0.6,0.46c0.11,0.11,0.41,0.52,0.47,0.6c0.02,0.04,0.07,0.17,0.08,0.19
		c0.02,0.04,0.24,0.61,0.3,0.84c0.05,0.18,0.06,0.38,0.08,0.57c0,0.06-0.01,0.13-0.02,0.19c-0.02,0.16-0.03,0.31-0.07,0.47
		c-0.03,0.16-0.08,0.31-0.14,0.47c-0.06,0.16-0.13,0.32-0.22,0.47c-0.08,0.15-0.18,0.29-0.3,0.43c-0.13,0.15-0.29,0.29-0.44,0.42
		c-0.11,0.1-0.22,0.19-0.34,0.28c-0.1,0.07-0.22,0.11-0.31,0.19c-0.03,0.01-0.06,0.04-0.06,0.07c0.01,0.09,0.04,0.19,0.08,0.27
		c0.05,0.08,0.26,0.32,0.29,0.34c0.09,0.08,0.19,0.15,0.3,0.21c0.28,0.14,0.57,0.29,0.87,0.39c0.11,0.04,0.43,0.13,0.47,0.14
		c0.19,0.05,0.39,0.08,0.59,0.1c0.08,0.01,0.16-0.01,0.23-0.01c0.33-0.01,0.65,0,0.98-0.03c0.19-0.02,0.39-0.05,0.58-0.09
		c0.31-0.07,0.62-0.16,0.93-0.26c0.25-0.08,0.49-0.18,0.74-0.29c0.19-0.09,0.38-0.19,0.57-0.29c0.29-0.14,0.57-0.29,0.85-0.44
		c0.13-0.08,0.26-0.16,0.38-0.24c0.03-0.03,0.23-0.17,0.3-0.22c0.27-0.21,0.91-0.67,0.95-0.7c0.14-0.12,0.29-0.23,0.42-0.35
		c0.09-0.09,0.32-0.3,0.34-0.32c0.21-0.22,0.83-0.86,1.04-1.09c0.03-0.02,0.02-0.06,0.04-0.08c0.19-0.23,0.41-0.44,0.6-0.67
		c0.06-0.08,0.84-1.1,0.9-1.18c0.08-0.11,0.46-0.66,0.56-0.83c0.03-0.04,0.16-0.23,0.19-0.27c0.06-0.09,0.23-0.43,0.26-0.47
		c0.02-0.03,0.24-0.3,0.26-0.35c0.04-0.08,0.07-0.16,0.11-0.24c0.02-0.03,0.06-0.05,0.08-0.08c0.07-0.11,0.12-0.24,0.19-0.35
		c0.12-0.2,0.26-0.39,0.37-0.59c0.15-0.27,0.26-0.55,0.41-0.82c0.07-0.14,0.19-0.26,0.26-0.4c0.12-0.22,0.21-0.47,0.33-0.7
		c0.03-0.05,0.09-0.1,0.12-0.15c0.11-0.21,0.19-0.42,0.29-0.62c0.08-0.15,0.18-0.28,0.26-0.43c0.07-0.13,0.12-0.27,0.18-0.39
		c0.11-0.21,0.23-0.42,0.33-0.63c0.12-0.24,0.24-0.49,0.33-0.74c0.02-0.05,0.02-0.11-0.01-0.16c-0.1-0.26-0.29-0.63-0.45-0.95
		c-0.09-0.18-0.19-0.35-0.29-0.53c-0.04-0.08-0.05-0.16-0.08-0.23c-0.17-0.33-0.36-0.65-0.54-0.98c-0.02-0.05-0.01-0.11-0.04-0.16
		c-0.12-0.25-0.28-0.5-0.41-0.76c-0.13-0.25-0.24-0.5-0.37-0.75c-0.21-0.41-0.44-0.81-0.66-1.21c-0.26-0.49-0.52-0.99-0.78-1.48
		c-0.18-0.33-0.37-0.66-0.53-0.99c-0.02-0.04-0.33-0.69-0.38-0.75c-0.23-0.45-0.66-1.21-0.94-1.75c-0.04-0.08-0.22-0.42-0.25-0.49
		c-0.17-0.33-0.35-0.66-0.54-0.99c-0.11-0.19-0.2-0.39-0.33-0.57c-0.16-0.25-0.33-0.49-0.53-0.72c-0.2-0.22-0.43-0.42-0.66-0.61
		c-0.15-0.13-0.31-0.24-0.48-0.34c-0.28-0.16-0.57-0.3-0.87-0.44c-0.08-0.04-0.19-0.04-0.27-0.07c-0.17-0.05-0.33-0.12-0.51-0.18
		c-0.12-0.04-0.24-0.07-0.35-0.09c-0.01-0.01-0.02,0.02-0.04,0.02c-0.18-0.03-0.63-0.1-0.67-0.11c-0.05-0.03-0.04-0.23-0.05-0.34
		l0.19-2.31c0.01-0.05,0.05-0.09,0.09-0.1c0.14-0.03,0.29-0.02,0.43-0.01c0.1,0,0.18,0.02,0.27,0.03l10.38,0.4
		c0.2,0,0.65,0.02,0.97,0.05c0.1,0.01,0.2,0.03,0.27,0.07c0.04,0.02,0.07,0.07,0.09,0.11c0.01,0.09,0,0.17-0.01,0.25
		c0,0.01-0.02,0.03-0.01,0.04c0,0.01,0.02,0.02,0.01,0.04c0,0.12-0.04,0.24-0.05,0.37c0.01,0.04,0.05,0.07,0.05,0.11
		c-0.01,0.06-0.05,0.11-0.06,0.17c-0.01,0.05,0.01,0.1,0.01,0.15c-0.01,0.13-0.04,0.25-0.04,0.39c0,0.03,0.02,0.05,0.03,0.08
		c-0.01,0.09-0.06,0.17-0.06,0.27c0,0.04,0.05,0.07,0.04,0.12c-0.01,0.24-0.03,0.49-0.08,0.73c-0.01,0.06-0.04,0.12-0.1,0.14
		c-0.08,0.04-0.18,0.01-0.27,0.01c-0.21-0.01-0.42-0.02-0.63-0.02c-0.06-0.01-0.13,0-0.19,0c-0.06,0.01-0.13,0.01-0.2,0.01
		c-0.04,0-0.07-0.01-0.11,0c-0.1,0.02-0.19,0.05-0.27,0.09c-0.13,0.06-0.26,0.13-0.38,0.2c-0.07,0.04-0.1,0.09-0.16,0.14
		c-0.02,0.02-0.05,0.04-0.08,0.06c-0.07,0.08-0.14,0.17-0.21,0.26c-0.03,0.05-0.05,0.1-0.07,0.16c-0.02,0.06-0.01,0.13-0.03,0.2
		c-0.02,0.05-0.07,0.09-0.07,0.15c-0.02,0.18-0.01,0.36,0.01,0.55c0.02,0.19,0.07,0.39,0.13,0.57c0.07,0.21,0.28,0.63,0.29,0.65
		l2.61,5.35c0.04,0.07,0.05,0.16,0.09,0.23c0.03,0.06,0.09,0.09,0.12,0.15c0.03,0.04,0.03,0.11,0.05,0.15
		c0.07,0.16,0.15,0.31,0.25,0.45c0.03,0.05,0.06,0.08,0.1,0.12c0.02,0.02,0.05,0.03,0.08,0.04c0.02,0.01,0.06,0,0.07-0.02
		c0.12-0.14,0.22-0.3,0.31-0.45c0.04-0.06,0.04-0.13,0.08-0.2c0.03-0.05,0.08-0.1,0.11-0.15c0.07-0.13,0.12-0.27,0.19-0.4
		c0.08-0.17,0.17-0.34,0.26-0.51c0.02-0.04,0.05-0.07,0.08-0.11c0.02-0.05,0.02-0.11,0.03-0.16c0.04-0.08,0.08-0.15,0.11-0.23
		c0.01-0.04,0.01-0.09,0.04-0.12c0.03-0.04,0.09-0.07,0.11-0.12c0.06-0.11,0.06-0.24,0.11-0.35c0.17-0.38,0.38-0.75,0.54-1.13
		c0.07-0.16,0.12-0.34,0.19-0.51c0-0.01,0.03-0.02,0.03-0.04c0.05-0.11,0.06-0.23,0.11-0.35c0.04-0.09,0.1-0.18,0.15-0.27
		c0.1-0.23,0.18-0.47,0.25-0.7c0.02-0.06,0.01-0.13,0.03-0.19c0.01-0.01,0.04-0.02,0.04-0.04c0.03-0.17,0.09-0.34,0.08-0.52
		c-0.03-0.25-0.11-0.48-0.2-0.7c-0.05-0.14-0.15-0.26-0.24-0.38c-0.08-0.09-0.16-0.17-0.26-0.24c-0.15-0.1-0.31-0.21-0.48-0.29
		c-0.1-0.05-0.21-0.09-0.32-0.11c-0.38-0.06-1.01-0.12-1.15-0.14c-0.04-0.01-0.06-0.04-0.07-0.07c-0.04-0.07-0.07-0.15-0.07-0.23
		c-0.01-0.05,0.03-0.09,0.04-0.14c0-0.02-0.03-0.04-0.03-0.06c0.01-0.31,0.05-1.03,0.05-1.08c0.01-0.12,0.01-0.45,0.01-0.49
		c0-0.05,0.02-0.33,0.02-0.37c0.01-0.16,0.05-0.32,0.08-0.48c0.01-0.04,0.02-0.1,0.06-0.12c0.07-0.04,0.16-0.05,0.25-0.04
		c0.92,0.04,8.51,0.34,8.55,0.34c0.04,0,0.07,0.04,0.11,0.04c0.02,0,0.04-0.02,0.07-0.02c0.08,0,0.17,0.02,0.25,0.05
		c0.03,0.01,0.07,0.04,0.08,0.08c0.02,0.08,0.01,0.18,0.01,0.27L117.87,20.88"/>
	<path fill="#FFF000" d="M37.32,33.06c-0.07-0.34-0.15-0.67-0.23-1.01c-0.22-1.08-0.68-3.28-0.72-3.52c0-0.02,0.02-0.03,0.02-0.04
		c-0.03-0.15-0.21-0.88-0.24-1.03c-0.01-0.01,0.02-0.02,0.01-0.04c-0.01-0.03-0.05-0.04-0.06-0.08c-0.03-0.11-0.03-0.23-0.05-0.34
		c-0.03-0.14-0.09-0.28-0.11-0.42c0-0.03,0.02-0.06,0.01-0.08c-0.05-0.25-0.24-1.1-0.27-1.22c0-0.02,0.03-0.03,0.02-0.04
		c-0.04-0.18-0.14-0.56-0.2-0.84c-0.05-0.24-0.08-0.49-0.13-0.72c-0.1-0.46-0.3-1.2-0.33-1.38c-0.01-0.03,0.02-0.05,0.02-0.08
		c0-0.05-0.03-0.1-0.04-0.16c-0.08-0.42-0.19-1.06-0.28-1.49c-0.04-0.18-0.12-0.33-0.15-0.5c-0.01-0.03,0.03-0.05,0.03-0.08
		c-0.02-0.19-0.11-0.46-0.14-0.69c-0.01-0.1-0.01-0.25,0.03-0.31c0.03-0.06,0.12-0.05,0.19-0.06c0.09-0.02,0.18-0.04,0.27-0.04
		c0.02,0,0.03,0.02,0.04,0.01c0.03,0,0.05-0.04,0.08-0.04c0.25-0.01,0.72,0,0.97-0.01c0.01,0,0.03-0.02,0.04-0.02
		c0.18,0.02,0.42,0.04,0.63,0.08c0.32,0.06,0.71,0.15,0.94,0.2c0.02,0.01,0.02,0.03,0.04,0.04c0.15,0.05,0.32,0.08,0.47,0.14
		c0.26,0.11,0.51,0.24,0.75,0.38c0.17,0.1,0.33,0.2,0.48,0.31c0.19,0.16,0.37,0.34,0.56,0.49c0.02,0.02,0.06,0.02,0.08,0.04
		c0.14,0.12,0.29,0.25,0.42,0.39c0.09,0.09,0.16,0.2,0.24,0.3c0.07,0.08,0.17,0.14,0.24,0.23c0.06,0.08,0.1,0.17,0.16,0.26
		c0.1,0.14,0.23,0.27,0.32,0.42c0.1,0.16,0.16,0.33,0.25,0.49c0.1,0.18,0.23,0.35,0.33,0.53c0.04,0.07,0.05,0.15,0.09,0.23
		c0.05,0.1,0.12,0.2,0.16,0.31c0.04,0.08,0.05,0.18,0.09,0.26c0.04,0.09,0.12,0.17,0.17,0.27c0.02,0.06,0.02,0.13,0.04,0.19
		c0.02,0.05,0.06,0.1,0.09,0.15c0.05,0.12,0.08,0.25,0.13,0.38c0.04,0.12,0.08,0.25,0.13,0.38c0.01,0.02,0.04,0.02,0.04,0.04
		c0.07,0.22,0.18,0.61,0.26,0.92c0.05,0.19,0.09,0.37,0.13,0.57c0.08,0.43,0.17,0.85,0.23,1.28c0.08,0.51,0.16,1.16,0.2,1.54
		c0,0.06-0.02,0.14-0.01,0.21c0.02,0.4,0.07,0.8,0.09,1.19c0.01,0.24-0.02,0.49-0.02,0.73c0,0.08,0.03,0.14,0.03,0.21
		c-0.01,0.2-0.05,0.4-0.06,0.6c0,0.03,0.02,0.05,0.02,0.08c-0.02,0.26-0.13,1.44-0.21,2.08c-0.04,0.33-0.1,0.65-0.17,0.97
		c-0.02,0.1-0.07,0.21-0.09,0.31c0,0.02,0.02,0.05,0.02,0.08c0,0.04-0.03,0.08-0.03,0.11c-0.02,0.1-0.04,0.21-0.07,0.31
		c-0.03,0.11-0.08,0.21-0.11,0.32c-0.06,0.23-0.11,0.47-0.17,0.7c-0.01,0.01-0.03,0.02-0.04,0.04c-0.09,0.27-0.15,0.55-0.25,0.82
		c-0.03,0.06-0.08,0.12-0.11,0.19c-0.03,0.08-0.03,0.16-0.07,0.23c-0.06,0.15-0.16,0.28-0.22,0.43c-0.02,0.05-0.01,0.11-0.03,0.16
		c-0.1,0.23-0.21,0.47-0.33,0.7c-0.02,0.04-0.06,0.05-0.08,0.09c-0.03,0.06-0.03,0.13-0.07,0.19c-0.03,0.04-0.08,0.07-0.11,0.12
		c-0.06,0.1-0.1,0.22-0.17,0.32c-0.02,0.03-0.07,0.04-0.1,0.08c-0.04,0.07-0.06,0.16-0.11,0.24c-0.04,0.06-0.11,0.1-0.15,0.16
		c-0.06,0.07-0.09,0.16-0.15,0.23c-0.04,0.06-0.1,0.1-0.15,0.16c-0.02,0.02-0.02,0.05-0.03,0.08c-0.14,0.16-0.3,0.29-0.43,0.46
		c-0.04,0.04-0.06,0.09-0.1,0.14c-0.07,0.07-0.13,0.15-0.21,0.22c-0.03,0.01-0.06,0.02-0.08,0.04c-0.11,0.1-0.19,0.22-0.3,0.32
		c-0.06,0.05-0.14,0.09-0.21,0.1c-0.02,0.01-0.05-0.02-0.06-0.04c-0.05-0.09-0.08-0.18-0.1-0.27c-0.06-0.2-0.09-0.41-0.13-0.61
		c-0.03-0.1-0.07-0.2-0.09-0.3c-0.1-0.45-0.25-1.12-0.29-1.34L37.32,33.06"/>
	<path fill="#E50012" d="M89.24,19.3c0.07,0,0.13,0,0.19,0.01c0.03,0,0.06,0.02,0.08,0.04c0.03,0.03,0.06,0.06,0.06,0.1
		c0.02,0.14,0.01,0.28,0.01,0.42c-0.01,0.18-0.04,0.36-0.05,0.54c0,0.03,0.05,0.04,0.05,0.08c-0.01,0.22-0.08,0.55-0.1,0.83
		c-0.01,0.15,0.02,0.29,0.03,0.44c0,0.04-0.01,0.11,0.02,0.12c0.04,0.01,0.13-0.03,0.19-0.06c0.07-0.04,0.12-0.12,0.19-0.16
		c0.07-0.05,0.16-0.08,0.23-0.13c0.03-0.02,0.05-0.06,0.08-0.08c0.12-0.09,0.25-0.17,0.38-0.24c0.04-0.02,0.09-0.02,0.12-0.04
		c0.03-0.02,0.04-0.07,0.08-0.08c0.25-0.12,0.51-0.23,0.77-0.33c0.21-0.08,0.42-0.15,0.64-0.21c0.01-0.01,0.02,0,0.04,0
		c0.28-0.05,0.55-0.12,0.83-0.14c0.34-0.03,0.68-0.03,1.02-0.03c0.1,0,0.2,0.02,0.3,0.03c0.06,0.01,0.11-0.01,0.16,0
		c0.32,0.05,0.72,0.15,0.94,0.2c0.01,0.01,0.02,0.03,0.04,0.04c0.2,0.06,0.4,0.1,0.6,0.17c0.03,0.02,0.04,0.06,0.08,0.08
		c0.05,0.02,0.1,0.02,0.15,0.03c0.05,0.02,0.11,0.04,0.16,0.07c0.03,0.01,0.05,0.06,0.08,0.08c0.11,0.07,0.24,0.11,0.36,0.18
		c0.03,0.02,0.05,0.06,0.08,0.08c0.05,0.03,0.1,0.04,0.16,0.07c0.07,0.06,0.13,0.13,0.2,0.18c0.03,0.03,0.08,0.04,0.12,0.06
		c0.01,0.01,0.01,0.03,0.02,0.04c0.07,0.06,0.15,0.09,0.21,0.15c0.23,0.21,0.45,0.42,0.67,0.64c0.04,0.04,0.22,0.29,0.29,0.37
		c0.02,0.03,0.21,0.3,0.28,0.41c0.11,0.18,0.2,0.38,0.29,0.57c0.06,0.14,0.11,0.28,0.16,0.42c0.03,0.07,0.06,0.14,0.09,0.21
		c0.08,0.31,0.17,0.62,0.22,0.93c0.05,0.33,0.06,0.67,0.07,1c0.01,0.26-0.06,1.76-0.07,1.78c-0.01,0.16-0.07,0.82-0.12,1.23
		c-0.02,0.23-0.09,0.45-0.11,0.68c-0.01,0.02,0.02,0.04,0.02,0.06c-0.03,0.21-0.16,0.83-0.19,1.01c0,0.01-0.13,0.93-0.21,1.39
		c-0.11,0.57-0.27,1.28-0.37,1.86c-0.04,0.17-0.04,0.34-0.07,0.5c-0.02,0.08-0.08,0.44-0.08,0.46c-0.05,0.27-0.35,1.51-0.39,1.79
		c-0.04,0.15-0.07,0.3-0.09,0.46c0,0.01,0.02,0.02,0.02,0.04c0.02,0.26-0.02,0.54,0.02,0.8c0.04,0.18,0.13,0.34,0.21,0.49
		c0.05,0.09,0.1,0.16,0.16,0.23c0.1,0.11,0.22,0.23,0.34,0.32c0.13,0.09,0.26,0.16,0.4,0.22c0.18,0.08,0.45,0.13,0.55,0.18
		c0.06,0.03,0.07,0.11,0.07,0.17c-0.03,0.26-0.27,1.77-0.4,2.56c-0.01,0.11-0.01,0.24-0.07,0.34c-0.02,0.05-0.08,0.08-0.14,0.1
		c-0.04,0.02-0.1,0.01-0.15,0c-0.8-0.1-5.78-0.76-6.03-0.79c-0.48-0.06-1.15-0.12-1.45-0.15c-0.02,0-0.06-0.01-0.07-0.04
		c-0.03-0.04-0.06-0.09-0.06-0.14c-0.02-0.14-0.02-0.28-0.01-0.42c0.01-0.05,0.23-2.11,0.29-2.32c0.01-0.05,0.04-0.11,0.09-0.14
		c0.11-0.06,0.24-0.09,0.37-0.11c0.03-0.01,0.06,0.04,0.1,0.04c0.14-0.02,0.28-0.05,0.42-0.11c0.2-0.08,0.4-0.16,0.58-0.28
		c0.16-0.11,0.27-0.27,0.4-0.42c0.08-0.1,0.16-0.2,0.23-0.31c0.04-0.09,0.09-0.18,0.11-0.28c0.1-0.43,0.23-1.06,0.34-1.58
		c0.05-0.21,0.1-0.42,0.14-0.62c0.09-0.48,0.26-1.54,0.27-1.55c0.01-0.12,0.2-1.3,0.2-1.31c0.01-0.17,0.08-0.75,0.12-1.12
		c0.01-0.13,0.09-0.78,0.09-0.81c0.02-0.24,0.11-1.54,0.11-1.62c0.01-0.31,0.02-0.62,0.01-0.93c-0.01-0.31-0.07-0.63-0.08-0.94
		c-0.01-0.04,0.04-0.08,0.04-0.12c-0.02-0.14-0.07-0.27-0.09-0.4c0-0.04,0.03-0.08,0.02-0.12c-0.04-0.18-0.08-0.36-0.14-0.53
		c0-0.02-0.03-0.02-0.04-0.04c-0.04-0.09-0.18-0.37-0.21-0.42c-0.02-0.03-0.17-0.3-0.2-0.34c-0.11-0.12-0.22-0.24-0.34-0.35
		c-0.07-0.06-0.16-0.09-0.24-0.15c-0.05-0.03-0.07-0.09-0.12-0.12c-0.14-0.08-0.29-0.16-0.44-0.22c-0.18-0.06-0.36-0.11-0.55-0.14
		c-0.16-0.03-0.31-0.04-0.47-0.04c-0.02,0-0.13,0-0.15,0c-0.16,0.02-0.31,0.06-0.47,0.11c-0.18,0.06-0.36,0.12-0.53,0.21
		c-0.16,0.08-0.3,0.17-0.42,0.28c-0.15,0.12-0.27,0.26-0.4,0.41c-0.1,0.13-0.19,0.26-0.26,0.4c-0.1,0.19-0.19,0.38-0.26,0.59
		c-0.1,0.37-0.17,0.75-0.24,1.12c-0.1,0.53-0.26,1.76-0.26,1.78c-0.02,0.22-0.07,0.44-0.1,0.65c-0.01,0.08-0.06,0.48-0.06,0.5
		c-0.02,0.22-0.17,3.24-0.18,3.3c-0.01,0.13,0.01,0.99,0.01,1.06c0,0.01,0.02,0.91,0.03,0.94c0.06,0.22,0.14,0.42,0.23,0.63
		c0.03,0.07,0.08,0.13,0.13,0.18c0.04,0.06,0.19,0.22,0.22,0.25c0.11,0.1,0.23,0.19,0.36,0.26c0.14,0.07,0.31,0.13,0.47,0.18
		c0.09,0.03,0.19,0.03,0.27,0.07c0.06,0.03,0.11,0.08,0.14,0.13c0.03,0.06,0.05,0.13,0.04,0.2c-0.01,0.25-0.21,2.21-0.23,2.27
		c-0.01,0.1-0.05,0.2-0.11,0.29c-0.01,0.03-0.05,0.04-0.08,0.04C90.51,40,90.32,40.01,90.13,40c-0.39-0.01-0.81-0.06-1.15-0.08
		c-0.03-0.01-0.68-0.03-0.98-0.05c-0.02,0-4.93-0.18-5.14-0.2c-0.07,0-0.16-0.04-0.2-0.09c-0.05-0.06-0.07-0.16-0.08-0.24
		c-0.01-0.08-0.01-0.29-0.01-0.33c0.01-0.29,0.06-1.52,0.08-1.78c0-0.09,0.02-0.18,0.05-0.27c0.01-0.03,0.05-0.05,0.08-0.06
		c0.17-0.04,0.34-0.04,0.5-0.09c0.15-0.04,0.29-0.1,0.42-0.17c0.15-0.07,0.3-0.14,0.42-0.24c0.14-0.11,0.29-0.23,0.4-0.38
		c0.12-0.16,0.36-0.61,0.37-0.66c0.04-0.18,0.08-0.36,0.1-0.54c0.06-0.52,0.12-1.41,0.18-2.05c0.02-0.21,0.1-0.9,0.11-1.03
		l0.14-3.99c0.01-0.43,0.02-0.98,0.02-1.29c0-0.05-0.01-0.46-0.02-0.62c-0.02-0.4-0.07-0.81-0.13-1.21
		c-0.03-0.19-0.26-0.9-0.34-1.03c-0.11-0.18-0.25-0.34-0.4-0.49c-0.13-0.12-0.26-0.23-0.42-0.32c-0.21-0.11-0.44-0.18-0.67-0.25
		c-0.23-0.07-0.73-0.13-0.75-0.13c-0.28,0-0.57,0-0.85-0.02c-0.04,0-0.1,0-0.12-0.03c-0.05-0.07-0.07-0.14-0.08-0.21
		c-0.01-0.01,0.03-0.17,0.03-0.19l0.07-2.28c0.01-0.12,0.01-0.24,0.03-0.34c0.01-0.03,0.1-0.08,0.12-0.08
		C82.05,19.25,89.16,19.31,89.24,19.3"/>
	<path fill="#E50012" d="M64.52,20.21c0-0.1-0.01-0.21,0.05-0.29c0.05-0.06,0.15-0.07,0.23-0.08c0.03-0.01,0.2,0.01,0.22,0.01
		c0.02,0,0.05-0.03,0.08-0.02l6.86,0.02c0.13,0,0.26-0.02,0.39-0.01c0.07,0,0.13,0.01,0.2,0.03c0.03,0.01,0.05,0.03,0.06,0.06
		c0.02,0.14,0.02,0.31,0.01,0.47c-0.01,0.36-0.03,1.13-0.03,1.16c0,0.17-0.03,0.51-0.02,0.53c0.01,0.04,0.13-0.04,0.19-0.06
		c0.06-0.02,0.22-0.17,0.27-0.2c0.07-0.05,0.3-0.21,0.34-0.24c0.2-0.12,0.41-0.22,0.61-0.32c0.02-0.01,0.17-0.06,0.23-0.08
		c0.05-0.02,0.37-0.17,0.5-0.21c0.26-0.08,0.51-0.15,0.78-0.22c0.19-0.04,0.38-0.09,0.58-0.11c0.03-0.01,0.26-0.01,0.35-0.01
		c0.09,0,0.33-0.01,0.36-0.01c0.21,0.02,0.84,0.1,1.26,0.18c0.22,0.04,0.44,0.11,0.65,0.17c0.05,0.01,0.22,0.09,0.27,0.1
		c0.02,0.01,0.15,0.06,0.2,0.08c0.05,0.02,0.11,0.04,0.16,0.07c0.03,0.02,0.05,0.06,0.09,0.07c0.17,0.1,0.34,0.18,0.51,0.28
		c0.06,0.03,0.12,0.05,0.16,0.09c0.03,0.04,0.18,0.12,0.24,0.15c0.11,0.07,0.34,0.28,0.36,0.3c0.19,0.18,0.37,0.36,0.54,0.55
		c0.08,0.08,0.13,0.18,0.2,0.26c0.05,0.06,0.32,0.38,0.36,0.45c0.08,0.12,0.13,0.25,0.21,0.38c0.07,0.11,0.15,0.22,0.21,0.34
		c0.02,0.07,0.08,0.21,0.08,0.23c0.08,0.24,0.21,0.63,0.3,0.95c0.04,0.14,0.07,0.28,0.09,0.42c0,0.03-0.02,0.05-0.02,0.08
		c0.02,0.2,0.07,0.41,0.09,0.61c0,0.02-0.01,0.74-0.01,0.77c-0.01,0.06-0.03,0.24-0.03,0.27c-0.02,0.17-0.14,0.91-0.14,0.93
		c-0.03,0.17-0.21,1.3-0.27,1.7c-0.02,0.21-0.06,0.42-0.1,0.62c-0.05,0.29-0.27,1.63-0.33,2.01c-0.1,0.6-0.44,2.39-0.47,2.61
		c-0.02,0.15-0.04,0.29-0.07,0.44c-0.05,0.28-0.11,0.54-0.16,0.81c-0.01,0.03-0.01,0.13-0.02,0.15c-0.04,0.33-0.23,1.64-0.25,1.97
		c-0.01,0.12,0.02,0.39,0.03,0.42c0.03,0.1,0.1,0.2,0.14,0.3c0.02,0.05,0.01,0.11,0.05,0.15c0.1,0.16,0.23,0.32,0.36,0.45
		c0.07,0.08,0.17,0.15,0.26,0.21c0.15,0.08,0.31,0.15,0.47,0.22c0.13,0.05,0.28,0.04,0.39,0.12c0.06,0.05,0.1,0.15,0.08,0.23
		c-0.02,0.15-0.31,1.52-0.32,1.61c-0.06,0.35-0.13,0.94-0.17,1.06c-0.01,0.06-0.07,0.11-0.14,0.1c-0.09-0.01-1.89-0.3-2.26-0.36
		c-0.02-0.01-0.03-0.02-0.04-0.02c-0.02,0-0.15-0.01-0.19-0.01c-0.26-0.04-4.05-0.42-4.06-0.42c-0.23-0.01-0.63-0.05-0.94-0.09
		c-0.03-0.01-0.06-0.01-0.08-0.04c-0.03-0.04-0.08-0.09-0.08-0.15c0-0.19,0.07-0.71,0.11-1.06c0-0.01,0.02-0.02,0.02-0.04
		c0-0.01-0.02-0.02-0.02-0.04c0.02-0.19,0.06-0.39,0.08-0.58c0-0.03,0.01-0.15,0.01-0.19c0.04-0.28,0.06-0.56,0.09-0.85
		c0.01-0.05,0.01-0.1,0.03-0.16c0.01-0.02,0.03-0.05,0.05-0.06c0.17-0.03,0.34-0.04,0.51-0.05c0.02,0,0.05,0.02,0.08,0.02
		c0.14-0.03,0.28-0.06,0.42-0.11c0.12-0.04,0.24-0.09,0.34-0.16c0.15-0.1,0.28-0.21,0.4-0.34c0.1-0.1,0.16-0.23,0.23-0.35
		c0.06-0.1,0.11-0.2,0.15-0.31c0.06-0.21,0.1-0.44,0.13-0.65c0.09-0.54,0.17-1.26,0.23-1.62c0.01-0.05,0.03-0.18,0.04-0.2
		c0.01-0.12,0.54-4.25,0.54-4.25c0.01-0.15,0.04-0.31,0.07-0.47c0.05-0.46,0.11-0.92,0.15-1.39c0.04-0.47,0.06-0.93,0.08-1.39
		c0-0.1-0.01-0.2-0.01-0.31c0-0.16,0.01-0.31-0.01-0.46c-0.01-0.07-0.04-0.12-0.04-0.19c-0.01-0.08,0.01-0.15-0.01-0.23
		c-0.05-0.24-0.09-0.47-0.18-0.69c-0.09-0.22-0.22-0.41-0.35-0.61c-0.06-0.09-0.14-0.18-0.22-0.26c-0.06-0.06-0.14-0.1-0.2-0.15
		c-0.06-0.05-0.12-0.1-0.18-0.15c-0.08-0.06-0.16-0.11-0.24-0.17c-0.07-0.04-0.16-0.08-0.24-0.11c-0.14-0.06-0.28-0.12-0.43-0.14
		c-0.23-0.04-0.47-0.04-0.7-0.04c-0.15-0.01-0.31,0.01-0.47,0.03c-0.02,0-0.22,0.05-0.31,0.08c-0.17,0.07-0.31,0.16-0.46,0.24
		c-0.1,0.06-0.21,0.12-0.31,0.2c-0.14,0.13-0.29,0.26-0.39,0.42c-0.06,0.08-0.17,0.32-0.19,0.35c-0.07,0.12-0.14,0.25-0.19,0.39
		c-0.1,0.29-0.17,0.59-0.25,0.89c-0.12,0.49-0.29,1.3-0.33,1.47c0,0.03-0.05,0.41-0.05,0.42c-0.01,0.09-0.07,0.72-0.09,0.93
		c-0.03,0.33-0.06,0.67-0.09,1c-0.02,0.19-0.04,0.38-0.06,0.58c0,0.05-0.09,1.48-0.09,1.5c0,0.1-0.04,0.19-0.05,0.29
		c-0.03,0.32-0.05,1-0.05,1.02c0,0.22-0.03,0.61-0.03,0.92c0,0.04-0.01,0.27-0.01,0.35c0,0.02,0.02,0.2,0.03,0.23
		c0,0.01-0.02,0.03-0.02,0.04c0,0.08,0,0.16,0.01,0.23c0,0.14,0,0.27,0.01,0.41c0.02,0.19,0.05,0.37,0.09,0.56
		c0.03,0.13,0.07,0.26,0.13,0.38c0.04,0.09,0.1,0.18,0.16,0.26c0.11,0.14,0.23,0.26,0.34,0.38c0.04,0.03,0.07,0.07,0.12,0.09
		c0.04,0.02,0.08,0.01,0.12,0.04c0.03,0.02,0.05,0.06,0.08,0.08c0.23,0.09,0.55,0.17,0.71,0.24c0.06,0.03,0.11,0.1,0.12,0.17
		l-0.22,2.48c-0.01,0.13-0.03,0.26-0.06,0.37c-0.01,0.03-0.03,0.05-0.06,0.06c-0.06,0.03-0.13,0.04-0.2,0.04
		c-0.1,0.01-0.21-0.03-0.31-0.03c-0.03,0.01-0.05,0.03-0.08,0.03c-0.09-0.01-0.18-0.04-0.27-0.05c-0.47-0.05-1.25-0.12-1.41-0.13
		c-0.01,0-1.46-0.09-1.68-0.1c-0.04-0.01-0.32,0-0.43-0.01c-0.8-0.05-2.9-0.15-3.16-0.16c-0.03,0-0.05,0.04-0.07,0.04
		c-0.08,0-0.17-0.01-0.24-0.06c-0.06-0.04-0.1-0.1-0.12-0.17c-0.01-0.03,0.03-0.06,0.03-0.09c0-0.04-0.04-0.09-0.04-0.14
		c0,0,0.18-2.49,0.18-2.51c0-0.08,0-0.16,0.03-0.23c0.03-0.05,0.08-0.09,0.13-0.09c0.16-0.05,0.34-0.04,0.51-0.1
		c0.18-0.06,0.37-0.11,0.54-0.21c0.14-0.09,0.43-0.37,0.46-0.39c0.04-0.04,0.06-0.09,0.09-0.14c0.08-0.15,0.17-0.3,0.22-0.47
		c0.06-0.16,0.13-0.91,0.13-0.93c0.02-0.18,0.07-0.49,0.1-0.73c0-0.05-0.01-0.11,0-0.16c0.01-0.08,0.07-0.67,0.09-0.85
		c0.01-0.14,0.01-0.29,0.03-0.42c0.01-0.07,0.02-0.3,0.03-0.35c0.01-0.19,0.04-0.38,0.06-0.58c0.02-0.17,0.05-0.7,0.06-0.77
		c0.03-0.32,0.07-1.25,0.08-1.35c0.03-0.35,0.06-0.69,0.07-1.04c0-0.04,0.01-0.32,0.01-0.34c0-0.23,0-0.74,0-0.77
		c0.01-0.29,0.07-1.17,0.07-1.54c0-0.08-0.01-0.39-0.02-0.46c-0.01-0.14-0.04-0.48-0.05-0.52c-0.03-0.24-0.12-0.68-0.16-0.86
		c0-0.02-0.11-0.29-0.17-0.42c-0.07-0.15-0.15-0.29-0.24-0.42c-0.04-0.06-0.11-0.09-0.16-0.15c-0.06-0.07-0.11-0.16-0.18-0.22
		c-0.08-0.09-0.18-0.17-0.28-0.24c-0.14-0.1-0.29-0.17-0.44-0.26c-0.03-0.02-0.04-0.06-0.08-0.08c-0.23-0.08-0.46-0.16-0.71-0.21
		c-0.27-0.05-0.55-0.07-0.82-0.09c-0.17-0.02-0.34,0-0.51-0.03c-0.03-0.01-0.05-0.03-0.06-0.06c-0.03-0.11-0.05-0.22-0.05-0.33
		L64.52,20.21"/>
	<path fill="#E50012" d="M56.1,34.96c-0.16-0.03-0.31-0.06-0.47-0.05c-0.13,0.01-0.26,0.07-0.39,0.11
		c-0.02,0.01-0.05,0.03-0.05,0.06c-0.03,0.18-0.05,0.47-0.06,0.7c0,0.03,0.03,0.04,0.03,0.07c0,0.24-0.05,0.47-0.04,0.72
		c0,0.3,0.04,0.6,0.06,0.9c0.01,0.05,0,0.1,0,0.16c0.03,0.2,0.05,0.41,0.1,0.61c0.07,0.29,0.17,0.57,0.26,0.84
		c0.07,0.2,0.13,0.41,0.21,0.61c0.09,0.22,0.21,0.41,0.33,0.6c0.04,0.07,0.1,0.1,0.14,0.15c0.08,0.11,0.14,0.24,0.22,0.34
		c0.07,0.09,0.17,0.17,0.26,0.24c0.1,0.08,0.2,0.16,0.32,0.22c0.12,0.07,0.26,0.13,0.39,0.19c0.1,0.04,0.21,0.08,0.32,0.11
		c0.21,0.04,0.43,0.09,0.64,0.08c0.21-0.01,0.41-0.08,0.6-0.15c0.15-0.05,0.3-0.13,0.42-0.22c0.04-0.02,0.06-0.07,0.06-0.11
		c-0.03-0.17-0.15-0.43-0.18-0.65c-0.04-0.27-0.04-0.53-0.02-0.79c0.01-0.18,0.05-0.35,0.1-0.52c0.01-0.05,0.09-0.22,0.11-0.27
		c0.04-0.09,0.31-0.55,0.37-0.63c0.07-0.1,0.17-0.19,0.26-0.27c0.03-0.03,0.07-0.04,0.09-0.07c0.07-0.06,0.12-0.14,0.19-0.2
		c0.07-0.05,0.32-0.21,0.39-0.24c0.04-0.02,0.38-0.17,0.5-0.21c0.19-0.05,0.39-0.09,0.58-0.11c0.03,0,0.33-0.01,0.37-0.01
		c0.16,0.01,0.33,0.04,0.49,0.09c0.11,0.03,0.21,0.07,0.32,0.11c0.13,0.05,0.27,0.08,0.39,0.14c0.17,0.09,0.33,0.21,0.48,0.33
		c0.16,0.13,0.29,0.28,0.42,0.43c0.08,0.09,0.14,0.2,0.2,0.3c0.04,0.07,0.16,0.25,0.16,0.27c0.05,0.12,0.19,0.58,0.2,0.61
		c0.01,0.19,0.07,0.37,0.07,0.57c0,0.27-0.01,0.55-0.05,0.81c-0.04,0.22-0.13,0.42-0.22,0.62c-0.11,0.25-0.24,0.47-0.37,0.71
		c-0.02,0.03-0.09,0.16-0.11,0.19c-0.07,0.1-0.24,0.33-0.26,0.35c-0.07,0.09-0.33,0.35-0.36,0.38c-0.07,0.06-0.12,0.14-0.19,0.2
		c-0.02,0.02-0.2,0.18-0.27,0.24c-0.07,0.06-0.3,0.24-0.34,0.28c-0.05,0.03-0.2,0.14-0.23,0.16c-0.25,0.16-0.5,0.31-0.77,0.44
		c-0.08,0.05-0.37,0.15-0.42,0.17c-0.05,0.02-0.8,0.28-1.04,0.34c-0.22,0.05-0.44,0.09-0.66,0.13c-0.03,0-0.89,0.1-1.25,0.13
		c-0.08,0.01-0.36,0.01-0.43,0.01c-0.35-0.02-0.71-0.05-1.05-0.11c-0.34-0.06-0.68-0.15-1.02-0.24c-0.19-0.05-0.37-0.11-0.55-0.17
		c-0.08-0.03-0.63-0.27-0.83-0.36c-0.03-0.02-0.37-0.22-0.51-0.29c-0.12-0.06-0.24-0.14-0.35-0.22c-0.03-0.02-0.19-0.14-0.24-0.18
		c-0.19-0.15-0.36-0.31-0.54-0.47c-0.16-0.14-0.33-0.28-0.48-0.45c-0.11-0.12-0.49-0.57-0.57-0.67c-0.14-0.19-0.25-0.4-0.37-0.6
		c-0.03-0.06-0.18-0.33-0.2-0.38c-0.05-0.1-0.25-0.48-0.29-0.57c-0.1-0.25-0.21-0.5-0.29-0.77c-0.13-0.42-0.34-1.25-0.37-1.39
		c0-0.02-0.1-0.75-0.12-0.87c-0.05-0.37-0.11-0.87-0.13-1.13c-0.01-0.05-0.01-0.34-0.01-0.45c0-0.11,0-0.56,0-0.58
		c0-0.15,0.08-1.78,0.08-1.81c0.01-0.06,0.21-1.23,0.22-1.24c0.03-0.16,0.1-0.65,0.17-0.97c0.08-0.38,0.17-0.75,0.28-1.12
		c0.04-0.12,0.1-0.24,0.15-0.36c0.04-0.11,0.07-0.23,0.11-0.34c0.03-0.09,0.22-0.57,0.24-0.6c0.1-0.22,0.17-0.46,0.27-0.68
		c0.08-0.17,0.18-0.32,0.26-0.47c0.02-0.04,0.38-0.75,0.4-0.78c0.02-0.03,0.41-0.53,0.45-0.59c0.04-0.06,0.52-0.7,0.6-0.79
		c0.28-0.31,0.62-0.65,0.85-0.89c0.02-0.02,0.2-0.18,0.27-0.24c0.06-0.06,0.12-0.11,0.19-0.16c0.05-0.03,0.25-0.19,0.31-0.24
		c0.07-0.05,0.3-0.22,0.34-0.24c0.31-0.17,0.64-0.33,0.96-0.49c0.08-0.04,0.45-0.17,0.54-0.21c0.06-0.03,0.21-0.09,0.23-0.09
		c0.21-0.06,0.72-0.16,0.75-0.18c0.01,0,0.03,0.01,0.04,0c0.33-0.03,0.66-0.07,0.99-0.08c0.34-0.01,0.68-0.01,1.02,0.03
		c0.3,0.03,0.58,0.1,0.86,0.17c0.11,0.02,0.21,0.07,0.31,0.11c0.24,0.09,0.48,0.15,0.71,0.25c0.29,0.12,0.56,0.28,0.83,0.43
		c0.25,0.15,0.48,0.31,0.71,0.48c0.06,0.04,0.11,0.1,0.16,0.15c0.17,0.16,0.34,0.31,0.5,0.47c0.02,0.02,0.18,0.2,0.24,0.27
		c0.05,0.05,0.21,0.25,0.25,0.3c0.06,0.08,0.1,0.18,0.16,0.26c0.05,0.07,0.12,0.12,0.16,0.19c0.05,0.07,0.08,0.16,0.12,0.23
		c0.09,0.18,0.2,0.35,0.28,0.53c0.08,0.16,0.24,0.52,0.25,0.53c0.08,0.24,0.2,0.6,0.3,0.91c0.05,0.16,0.1,0.33,0.13,0.5
		c0.09,0.43,0.16,0.84,0.23,1.26c0.05,0.32,0.1,0.65,0.13,0.98c0.01,0.14,0,1.6-0.01,1.69c-0.01,0.17-0.02,0.54-0.02,0.57
		c-0.03,0.21-0.12,0.95-0.2,1.43c-0.06,0.39-0.11,0.78-0.2,1.16c-0.02,0.11-0.06,0.21-0.1,0.32c-0.01,0.02-0.03,0.05-0.06,0.06
		c-0.14,0.02-0.34,0.03-0.51,0.01c-0.7-0.06-1.92-0.21-2.77-0.3L56.1,34.96"/>
	<path fill="#E50012" d="M127.26,21.33c0.23,0.02,1.19,0.08,1.21,0.08c0.07,0.01,0.61,0.06,0.78,0.09c0.03,0,0.07,0.01,0.08,0.04
		c0.04,0.06,0.05,0.13,0.04,0.21c-0.01,0.31-0.4,6.6-0.41,6.71c-0.02,0.33-0.02,0.67-0.05,1c0,0.05,0,0.11-0.02,0.15
		c-0.03,0.05-0.09,0.09-0.14,0.1c-0.1,0.03-0.21,0.02-0.32,0.01c-0.07,0-2.23-0.1-2.46-0.1c-0.04,0-0.09,0.05-0.15,0.04
		c-0.07-0.01-0.13-0.04-0.2-0.09c-0.02-0.02-0.05-0.06-0.06-0.09c-0.02-0.08-0.01-0.16-0.01-0.23c0-0.16,0.04-0.32,0.04-0.48
		c0-0.17-0.01-0.34-0.03-0.52c-0.04-0.23-0.08-0.46-0.14-0.69c-0.04-0.15-0.1-0.29-0.17-0.42c-0.07-0.15-0.15-0.28-0.24-0.42
		c-0.09-0.12-0.19-0.23-0.29-0.34c-0.1-0.1-0.19-0.19-0.3-0.28c-0.02-0.02-0.05-0.02-0.08-0.04c-0.05-0.05-0.1-0.12-0.16-0.15
		c-0.24-0.14-0.5-0.26-0.75-0.36c-0.16-0.07-0.34-0.11-0.52-0.14c-0.19-0.04-0.38-0.05-0.58-0.04c-0.18,0.01-0.36,0.04-0.54,0.07
		c-0.1,0.02-0.19,0.05-0.27,0.09c-0.1,0.04-0.2,0.1-0.3,0.16c-0.07,0.04-0.11,0.08-0.16,0.12c-0.11,0.1-0.22,0.22-0.32,0.34
		c-0.04,0.05-0.08,0.1-0.11,0.16c-0.11,0.19-0.2,0.37-0.26,0.58c-0.05,0.18-0.06,0.36-0.06,0.54c-0.01,0.14,0.03,0.26,0.05,0.39
		c0.02,0.11,0.04,0.21,0.09,0.3c0.1,0.22,0.23,0.42,0.37,0.61c0.05,0.07,0.22,0.24,0.25,0.26c0.08,0.1,0.63,0.57,0.77,0.69
		c0.04,0.04,0.17,0.15,0.18,0.17c0.04,0.05,0.1,0.08,0.14,0.11c0.2,0.16,0.93,0.75,1.06,0.85c0.1,0.09,0.67,0.54,0.85,0.69
		c0.21,0.17,0.42,0.35,0.64,0.52c0.08,0.07,0.19,0.11,0.28,0.18c0.13,0.11,0.41,0.35,0.44,0.37c0.06,0.04,0.1,0.1,0.16,0.15
		c0.09,0.07,0.19,0.12,0.28,0.19c0.06,0.04,0.41,0.34,0.46,0.39c0.01,0.03,0.68,0.62,0.84,0.79c0.09,0.09,0.14,0.21,0.22,0.3
		c0.07,0.09,0.16,0.17,0.22,0.27c0.03,0.04,0.05,0.1,0.08,0.15c0.02,0.03,0.06,0.04,0.08,0.08c0.13,0.2,0.25,0.4,0.37,0.6
		c0.02,0.04,0.11,0.16,0.13,0.19c0.06,0.12,0.12,0.25,0.17,0.38c0.14,0.39,0.26,0.78,0.39,1.18c0.04,0.14,0.08,0.29,0.1,0.44
		c0.01,0.02,0.08,0.54,0.1,0.78c0,0.05-0.04,1.06-0.1,1.39c-0.05,0.35-0.15,0.7-0.24,1.04c-0.05,0.19-0.1,0.37-0.18,0.55
		c-0.11,0.27-0.24,0.52-0.36,0.78c-0.02,0.04-0.28,0.45-0.4,0.63c-0.01,0.03-0.15,0.21-0.2,0.28c-0.07,0.09-0.15,0.15-0.22,0.24
		c-0.05,0.05-0.09,0.12-0.14,0.17c-0.05,0.05-0.37,0.39-0.41,0.44c-0.07,0.06-0.34,0.3-0.42,0.35c-0.21,0.16-0.9,0.62-0.96,0.65
		c-0.31,0.16-0.63,0.32-0.96,0.45c-0.21,0.09-0.44,0.15-0.66,0.21c-0.19,0.05-0.38,0.1-0.58,0.14c-0.44,0.07-1.07,0.17-1.44,0.19
		c-0.37,0.02-0.91-0.04-1.36-0.07c-0.2-0.02-0.4-0.06-0.59-0.08c-0.01,0-0.02,0.02-0.04,0.02c-0.14-0.02-0.29-0.04-0.43-0.07
		c-0.44-0.11-0.89-0.25-1.33-0.39c-0.11-0.03-0.35-0.14-0.36-0.14c-0.05-0.02-0.42-0.16-0.55-0.22c-0.35-0.15-0.67-0.32-1.03-0.44
		c-0.16-0.05-0.33-0.05-0.49-0.04c-0.15,0.01-0.3,0.03-0.44,0.07c-0.11,0.04-0.22,0.09-0.3,0.16c-0.11,0.09-0.21,0.19-0.29,0.29
		c-0.05,0.07-0.07,0.16-0.11,0.23c-0.03,0.08-0.04,0.16-0.07,0.24c-0.01,0.02-0.03,0.05-0.05,0.06c-0.13,0.02-0.26,0.03-0.39,0.01
		c-0.37-0.06-1.55-0.26-1.57-0.26c-0.17-0.02-0.65-0.11-0.98-0.17c-0.02,0-0.06-0.02-0.08-0.04c-0.03-0.03-0.07-0.06-0.06-0.09
		c0.01-0.13,0.08-0.65,0.13-0.97c0-0.04,0.02-0.17,0.02-0.2c0.01-0.08,0.86-7.54,0.88-7.68c0.01-0.04,0.05-0.08,0.1-0.09
		c0.03-0.02,0.08-0.01,0.11-0.01c0.16,0.01,2.99,0.22,3.33,0.25c0.02,0,0.06,0.01,0.08,0.04c0.02,0.04,0.05,0.07,0.05,0.12
		c-0.01,0.3-0.04,0.93-0.04,0.94c0,0.21-0.03,0.41-0.02,0.62c0.02,0.45,0.1,1.54,0.11,1.58c0.02,0.11,0.19,0.67,0.31,0.99
		c0.07,0.16,0.16,0.31,0.25,0.46c0.02,0.03,0.06,0.04,0.08,0.07c0.03,0.05,0.04,0.11,0.08,0.15c0.17,0.19,0.36,0.37,0.54,0.55
		c0.05,0.05,0.1,0.11,0.16,0.15c0.19,0.13,0.39,0.26,0.6,0.37c0.14,0.07,0.29,0.14,0.44,0.18c0.25,0.07,0.51,0.14,0.78,0.17
		c0.22,0.03,0.44,0.04,0.66,0.02c0.2-0.02,0.4-0.06,0.6-0.09c0.01,0,0.03,0.01,0.04,0c0.15-0.04,0.31-0.07,0.45-0.13
		c0.22-0.1,0.44-0.22,0.65-0.34c0.05-0.03,0.2-0.12,0.22-0.14c0.07-0.04,0.22-0.18,0.24-0.2c0.18-0.18,0.36-0.37,0.5-0.58
		c0.16-0.22,0.29-0.46,0.41-0.7c0.07-0.14,0.1-0.28,0.14-0.43c0.04-0.17,0.08-0.34,0.1-0.5c0.02-0.11,0.05-0.23,0.05-0.34
		c0-0.03,0-0.26-0.01-0.29c-0.02-0.23-0.06-0.47-0.12-0.71c-0.02-0.12-0.08-0.23-0.12-0.34c-0.02-0.05-0.02-0.1-0.05-0.15
		c-0.07-0.13-0.17-0.24-0.24-0.37c-0.04-0.07-0.08-0.16-0.12-0.23c-0.04-0.05-0.14-0.16-0.14-0.17c-0.04-0.05-0.06-0.12-0.1-0.17
		c-0.12-0.14-0.25-0.24-0.37-0.38c-0.07-0.08-0.12-0.18-0.2-0.26c-0.31-0.32-1.11-1.14-1.15-1.18c-0.09-0.08-3.47-3.04-3.74-3.31
		c-0.09-0.09-0.41-0.45-0.48-0.52c-0.16-0.18-0.31-0.36-0.45-0.57c-0.15-0.24-0.3-0.49-0.41-0.76c-0.11-0.24-0.18-0.5-0.26-0.76
		c-0.07-0.23-0.15-0.47-0.17-0.71c-0.05-0.4-0.07-0.81-0.04-1.21c0.02-0.35,0.11-0.7,0.2-1.05c0.04-0.17,0.11-0.34,0.18-0.5
		c0.05-0.12,0.2-0.46,0.22-0.51c0.01-0.03,0.05-0.04,0.07-0.08c0.08-0.12,0.11-0.24,0.19-0.35c0.07-0.1,0.15-0.18,0.22-0.27
		c0.05-0.06,0.08-0.13,0.14-0.18c0.02-0.02,0.1-0.11,0.13-0.14c0.14-0.16,0.28-0.31,0.43-0.45c0.11-0.1,0.22-0.2,0.34-0.28
		c0.05-0.04,0.35-0.25,0.46-0.32c0.17-0.11,0.35-0.2,0.54-0.28c0.27-0.11,0.53-0.21,0.81-0.29c0.2-0.06,0.97-0.19,1.14-0.21
		c0.15-0.01,0.3-0.02,0.45-0.01c0.3,0.01,0.6,0.03,0.89,0.07c0.45,0.06,1.09,0.19,1.46,0.27c0.05,0.01,0.42,0.14,0.55,0.17
		c0.23,0.07,0.47,0.14,0.7,0.21c0.01,0,0.02,0.04,0.04,0.04c0.23,0.07,0.44,0.12,0.67,0.15c0.04,0.01,0.18-0.02,0.2-0.02
		c0.19-0.05,0.37-0.1,0.54-0.17c0.05-0.03,0.23-0.13,0.26-0.17c0.13-0.12,0.24-0.26,0.33-0.41c0.07-0.12,0.11-0.26,0.14-0.39
		c0.05-0.18,0.07-0.36,0.08-0.54c0.01-0.03,0-0.16,0.03-0.18c0.06-0.02,0.12-0.02,0.18-0.02C126.9,21.29,127.08,21.31,127.26,21.33"
		/>
	<path fill="#FFF000" d="M55.96,31.38c-0.07-0.01-0.13-0.05-0.18-0.09c-0.03-0.03-0.07-0.07-0.06-0.11
		c0.02-0.14,0.14-0.67,0.22-1.01c0.08-0.32,0.17-0.62,0.29-0.93c0.06-0.16,0.15-0.31,0.22-0.47c0.07-0.16,0.14-0.32,0.22-0.47
		c0.09-0.16,0.18-0.32,0.3-0.47c0.18-0.23,0.37-0.46,0.56-0.67c0.04-0.05,0.1-0.08,0.16-0.12c0.08-0.07,0.15-0.16,0.24-0.22
		c0.13-0.09,0.28-0.17,0.42-0.24c0.07-0.04,0.15-0.07,0.23-0.09c0.1-0.02,0.21-0.04,0.31-0.05c0.12-0.01,0.23-0.04,0.35-0.03
		c0.2,0.02,0.4,0.06,0.59,0.12c0.14,0.04,0.27,0.11,0.4,0.18c0.07,0.04,0.14,0.1,0.2,0.14c0.12,0.1,0.23,0.21,0.34,0.32
		c0.04,0.03,0.06,0.07,0.08,0.11c0.09,0.15,0.18,0.3,0.24,0.46c0.03,0.05,0.03,0.11,0.05,0.17c0.05,0.15,0.13,0.29,0.17,0.44
		c0.05,0.17,0.07,0.34,0.09,0.51c0.04,0.3,0.08,0.59,0.1,0.89c0.01,0.17,0.01,0.34,0.02,0.52c0,0.06,0.01,0.13,0,0.19
		c-0.02,0.36-0.05,0.79-0.09,1.08c-0.01,0.06-0.06,0.1-0.08,0.16c-0.01,0.04,0.02,0.09-0.01,0.11c-0.06,0.04-0.16,0.04-0.24,0.04
		c-0.06,0-0.24,0.01-0.27,0.01C60.83,31.88,55.96,31.38,55.96,31.38"/>
	<path fill="#E50012" d="M131.45,42.38c0.23,0.05,0.45,0.13,0.67,0.22c0.11,0.04,0.22,0.11,0.32,0.18c0.12,0.09,0.24,0.17,0.34,0.28
		c0.11,0.11,0.19,0.24,0.29,0.38c0.06,0.09,0.12,0.2,0.16,0.3c0.05,0.11,0.1,0.24,0.13,0.36c0.04,0.17,0.07,0.34,0.07,0.52
		c0,0.06-0.03,0.13-0.03,0.19c0,0.03,0.05,0.05,0.04,0.08c-0.03,0.17-0.1,0.36-0.15,0.54c-0.03,0.07-0.04,0.13-0.07,0.2
		c-0.02,0.03-0.06,0.04-0.07,0.08c-0.04,0.05-0.04,0.11-0.07,0.16c-0.07,0.11-0.17,0.22-0.25,0.31c-0.01,0.01-0.02,0.01-0.04,0.02
		c-0.02,0.03-0.02,0.07-0.05,0.1c-0.09,0.08-0.18,0.16-0.28,0.22c-0.16,0.09-0.33,0.18-0.5,0.25c-0.18,0.07-0.37,0.12-0.56,0.15
		c-0.1,0.01-0.19-0.01-0.29-0.01c-0.02-0.01-0.03-0.02-0.04-0.02c-0.03,0-0.05,0.04-0.07,0.04c-0.17-0.02-0.37-0.06-0.55-0.12
		c-0.17-0.05-0.33-0.14-0.47-0.22c-0.08-0.05-0.16-0.09-0.24-0.15c-0.07-0.04-0.12-0.1-0.18-0.17c-0.13-0.14-0.26-0.29-0.36-0.45
		c-0.07-0.09-0.12-0.19-0.17-0.3c-0.02-0.05-0.02-0.11-0.04-0.16c0-0.01-0.03-0.02-0.04-0.04c-0.04-0.17-0.1-0.44-0.12-0.67
		c-0.01-0.16,0.01-0.32,0.04-0.48c0.07-0.22,0.16-0.45,0.26-0.66c0.06-0.12,0.16-0.22,0.24-0.33c0.08-0.08,0.15-0.16,0.23-0.23
		c0.04-0.05,0.1-0.09,0.15-0.12c0.04-0.03,0.09-0.02,0.12-0.04c0.03-0.02,0.04-0.06,0.07-0.08c0.1-0.06,0.19-0.13,0.31-0.16
		c0.24-0.08,0.48-0.15,0.73-0.17C131.11,42.34,131.28,42.34,131.45,42.38"/>
	<path fill="#FFF000" d="M130.68,42.71c0.23-0.02,0.46-0.04,0.7-0.02c0.15,0.01,0.3,0.06,0.43,0.1c0.11,0.04,0.21,0.09,0.31,0.14
		c0.11,0.07,0.23,0.14,0.32,0.22c0.11,0.1,0.21,0.21,0.31,0.32c0.03,0.04,0.05,0.1,0.08,0.15c0.07,0.16,0.15,0.32,0.21,0.49
		c0.04,0.14,0.06,0.29,0.06,0.44c0.01,0.12-0.02,0.25-0.04,0.37c-0.05,0.18-0.08,0.37-0.15,0.54c-0.01,0.04-0.06,0.05-0.07,0.07
		c-0.06,0.09-0.1,0.19-0.15,0.28c-0.03,0.06-0.08,0.11-0.13,0.16c-0.1,0.09-0.2,0.18-0.31,0.26c-0.08,0.06-0.18,0.11-0.26,0.16
		c-0.08,0.04-0.16,0.06-0.23,0.09c-0.11,0.03-0.24,0.07-0.35,0.09c-0.1,0.02-0.2,0.03-0.3,0.03c-0.2-0.01-0.41-0.03-0.61-0.08
		c-0.14-0.04-0.27-0.11-0.39-0.18c-0.11-0.06-0.21-0.14-0.32-0.22c-0.07-0.06-0.16-0.12-0.22-0.2c-0.12-0.19-0.24-0.39-0.33-0.61
		c-0.07-0.17-0.13-0.35-0.16-0.53c-0.01-0.12,0.05-0.23,0.06-0.35c0.01-0.05-0.01-0.11,0-0.16c0.01-0.04,0.02-0.08,0.03-0.12
		c0.11-0.24,0.18-0.49,0.33-0.7c0.13-0.18,0.3-0.32,0.47-0.45c0.09-0.07,0.21-0.12,0.31-0.17c0.08-0.04,0.15-0.06,0.24-0.08
		C130.57,42.73,130.63,42.71,130.68,42.71"/>
	<path fill="#E50012" d="M131.13,43.66c0.12,0,0.23,0.01,0.35,0.03c0.09,0.01,0.16,0.04,0.24,0.07c0.05,0.02,0.11,0.04,0.15,0.08
		c0.06,0.03,0.1,0.08,0.15,0.13c0.03,0.04,0.05,0.1,0.06,0.15c0,0.02-0.02,0.03-0.02,0.04c0,0.08,0.02,0.15,0.01,0.23
		c-0.01,0.07-0.02,0.14-0.07,0.19c-0.06,0.08-0.17,0.11-0.24,0.19c-0.03,0.03-0.05,0.06-0.04,0.1c0.04,0.1,0.35,0.63,0.39,0.74
		c0.02,0.05,0,0.12-0.05,0.16c-0.06,0.04-0.16,0.01-0.23,0c-0.03,0-0.05-0.01-0.08-0.04c-0.04-0.04-0.08-0.08-0.11-0.13
		c-0.02-0.05-0.01-0.1-0.04-0.15c-0.09-0.17-0.19-0.33-0.29-0.49c-0.01-0.03-0.04-0.05-0.07-0.06c-0.04-0.02-0.1-0.03-0.15-0.04
		c-0.07,0-0.13,0-0.2,0.01c-0.04,0.01-0.09,0.02-0.12,0.04c-0.03,0.02-0.04,0.06-0.06,0.1c-0.01,0.08,0.01,0.18,0.01,0.27
		c0,0.05-0.01,0.11,0.01,0.17c0,0.02,0.03,0.04,0.02,0.06c-0.01,0.07-0.03,0.13-0.05,0.19c-0.02,0.03-0.03,0.06-0.06,0.06
		c-0.08,0.02-0.16,0.01-0.23,0.01c-0.02,0-0.04,0-0.04-0.01c-0.04-0.1-0.08-0.21-0.09-0.31c-0.01-0.07,0.03-0.13,0.03-0.19
		c0-0.03-0.02-0.06-0.02-0.08c-0.01-0.23,0.02-0.46,0.02-0.69c0-0.14-0.01-0.29-0.02-0.42c0-0.04,0.01-0.08,0-0.12
		c0-0.01-0.02-0.02-0.02-0.04c0.02-0.06,0.05-0.14,0.11-0.17c0.1-0.06,0.24-0.06,0.35-0.07c0.07,0,0.14,0.03,0.22,0.04
		C131.02,43.68,131.07,43.66,131.13,43.66"/>
	<path fill="#FFF000" d="M130.83,43.97c0.08-0.02,0.17-0.03,0.25-0.03c0.14,0,0.28,0.01,0.41,0.04c0.05,0.01,0.11,0.04,0.14,0.09
		c0.04,0.06,0.05,0.14,0.04,0.21c-0.01,0.05-0.04,0.1-0.07,0.14c-0.04,0.04-0.08,0.09-0.13,0.1c-0.17,0.02-0.52,0.03-0.66,0.02
		c-0.03,0-0.06-0.03-0.06-0.05c-0.03-0.13-0.04-0.27-0.04-0.41c0.01-0.03,0.02-0.05,0.04-0.08
		C130.77,43.99,130.8,43.98,130.83,43.97"/>
	<path fill="#231815" d="M54.25,55.27c0-0.32-0.03-0.64-0.03-0.96c0-0.12,0.01-0.24,0.03-0.34c0.01-0.03,0.03-0.05,0.06-0.06
		c0.17-0.04,1.4-0.06,1.64-0.04c0.02,0,0.04,0.02,0.06,0.01c0.04-0.01,0.07-0.05,0.11-0.05c0.07,0.01,0.15,0.01,0.18,0.06
		c0.06,0.1,0.08,0.24,0.09,0.37c0.01,0.06,0.01,0.34,0.01,0.42c0.01,0.18,0,0.35,0,0.54c0,0.08,0.01,0.81,0.01,1
		c0,0.32,0.04,0.64,0.05,0.96c0,0.19-0.03,0.39-0.02,0.58c0.01,0.17,0.04,0.42,0.07,0.5c0.02,0.06,0.1,0.09,0.16,0.08
		c0.14-0.03,0.6-0.17,0.89-0.28c0.14-0.05,0.25-0.14,0.38-0.21c0.04-0.02,0.16-0.1,0.19-0.11c0.05-0.04,0.25-0.19,0.31-0.24
		c0.1-0.08,0.21-0.14,0.3-0.22c0.07-0.06,0.15-0.12,0.21-0.2c0.04-0.04,0.05-0.09,0.09-0.14c0.05-0.05,0.36-0.39,0.45-0.51
		c0.02-0.03,0.13-0.22,0.17-0.29c0.02-0.03,0.06-0.05,0.08-0.09c0.1-0.2,0.18-0.42,0.29-0.62c0.02-0.04,0.05-0.09,0.09-0.1
		c0.13-0.02,0.65-0.03,0.97-0.03c0.07,0,0.14-0.02,0.2,0.01c0.04,0.03,0.05,0.09,0.04,0.14c-0.03,0.22-0.09,0.43-0.16,0.64
		c-0.03,0.12-0.1,0.23-0.14,0.34c-0.01,0.05-0.01,0.11-0.04,0.16c-0.03,0.06-0.08,0.1-0.11,0.16c-0.08,0.16-0.14,0.34-0.22,0.5
		c-0.03,0.05-0.13,0.2-0.15,0.24c-0.02,0.03-0.12,0.19-0.15,0.23c-0.02,0.03-0.06,0.05-0.08,0.08c-0.03,0.05-0.04,0.11-0.07,0.16
		c-0.08,0.1-0.18,0.18-0.26,0.28c-0.08,0.09-0.13,0.19-0.21,0.28c-0.14,0.16-0.3,0.31-0.46,0.45c-0.02,0.02-0.06,0.02-0.07,0.04
		c-0.07,0.06-0.12,0.14-0.19,0.19c-0.02,0.02-0.05,0.02-0.08,0.05c-0.05,0.04-0.09,0.11-0.15,0.16c-0.04,0.04-0.1,0.04-0.15,0.08
		c-0.07,0.04-0.12,0.11-0.19,0.16c-0.15,0.1-0.31,0.18-0.46,0.28c-0.03,0.02-0.04,0.06-0.08,0.08c-0.22,0.12-0.45,0.23-0.69,0.33
		c-0.21,0.09-0.43,0.18-0.65,0.25c-0.3,0.09-0.6,0.2-0.91,0.26c-0.34,0.06-0.68,0.09-1.03,0.11c-0.08,0-0.16-0.01-0.23-0.04
		c-0.03-0.01-0.05-0.03-0.06-0.05c-0.04-0.09-0.06-0.19-0.07-0.29c0-0.06,0.01-0.28,0.01-0.33L54.25,55.27"/>
	<path fill="#231815" d="M69.07,53.66c0.26,0,0.52,0.01,0.78,0.04c0.03,0,0.06,0.01,0.08,0.03c0.03,0.03,0.06,0.06,0.06,0.09
		c0.02,0.18,0.03,0.36,0.02,0.54c-0.03,0.38-0.08,0.75-0.16,1.12c-0.07,0.31-0.18,0.6-0.29,0.9c-0.04,0.11-0.09,0.21-0.14,0.31
		c-0.07,0.16-0.14,0.32-0.22,0.47c-0.08,0.16-0.17,0.32-0.26,0.47c-0.03,0.05-0.09,0.09-0.11,0.16c-0.02,0.05,0,0.1,0,0.15
		c0.01,0.09,0,0.18,0.03,0.27c0.01,0.04,0.06,0.04,0.08,0.08c0.01,0.02,0,0.05,0.02,0.07c0.02,0.03,0.06,0.05,0.08,0.08
		c0.08,0.1,0.13,0.23,0.22,0.32c0.14,0.13,0.31,0.21,0.48,0.29c0.04,0.03,0.18,0.07,0.2,0.07c0.18,0.05,0.45,0.09,0.55,0.14
		c0.04,0.02,0.06,0.08,0.07,0.13c0.03,0.25,0.04,0.49,0.04,0.73c0,0.13-0.02,0.26-0.04,0.38c-0.01,0.03-0.01,0.06-0.04,0.08
		c-0.05,0.04-0.11,0.06-0.17,0.07c-0.21,0.02-0.42,0.04-0.62,0.01c-0.19-0.01-0.37-0.08-0.55-0.13c-0.02-0.01-0.02-0.03-0.04-0.04
		c-0.14-0.05-0.29-0.08-0.43-0.13c-0.07-0.03-0.14-0.07-0.2-0.12c-0.1-0.07-0.34-0.24-0.36-0.26c-0.16-0.13-0.31-0.28-0.46-0.42
		c-0.06-0.07-0.11-0.16-0.18-0.23c-0.03-0.02-0.06-0.05-0.1-0.04c-0.08,0.04-0.52,0.34-0.78,0.5c-0.12,0.07-0.23,0.15-0.35,0.21
		c-0.07,0.04-0.16,0.05-0.23,0.08c-0.1,0.05-0.2,0.12-0.31,0.16c-0.28,0.11-0.56,0.21-0.85,0.29c-0.26,0.08-0.54,0.13-0.81,0.18
		c-0.16,0.03-0.31,0.04-0.47,0.05c-0.05,0-0.49,0.04-0.66,0.02c-0.05-0.01-0.1-0.03-0.12-0.07c-0.04-0.1-0.06-0.22-0.06-0.33
		c-0.01-0.18,0.01-0.36,0.02-0.54c0-0.05,0.01-0.11,0.04-0.15c0.02-0.03,0.06-0.05,0.09-0.06c0.23-0.04,0.47-0.06,0.7-0.08
		c0.01,0,0.03,0.02,0.04,0.02c0.17-0.03,0.44-0.07,0.66-0.13c0.02-0.01,0.02-0.03,0.04-0.04c0.16-0.05,0.33-0.08,0.49-0.15
		c0.14-0.06,0.27-0.15,0.4-0.22c0.11-0.06,0.23-0.12,0.35-0.2c0.11-0.07,0.21-0.15,0.3-0.24c0.09-0.09,0.66-0.68,0.76-0.81
		c0.1-0.14,0.17-0.28,0.24-0.42c0.11-0.22,0.2-0.44,0.29-0.66c0.04-0.1,0.08-0.21,0.1-0.31c0.01-0.03-0.03-0.06-0.02-0.08
		c0.01-0.11,0.07-0.21,0.09-0.32c0.03-0.12,0.06-0.25,0.04-0.38c0-0.07-0.02-0.16-0.08-0.19c-0.09-0.05-0.26-0.04-0.39-0.05
		c-0.49-0.01-2.33,0.03-2.54,0.03c-0.36,0-0.8-0.01-1.09-0.02c-0.03,0-0.06-0.02-0.08-0.04c-0.03-0.02-0.06-0.04-0.06-0.08
		c-0.02-0.18-0.02-0.51-0.02-0.77c0-0.22,0.01-0.52,0.02-0.66c0-0.02,0.03-0.04,0.05-0.05c0.05-0.03,0.1-0.04,0.16-0.04
		c0.03-0.01,0.13-0.02,0.16-0.03L69.07,53.66"/>
	<path fill="#231815" d="M73.23,54.05c0-0.11,0.04-0.21,0.07-0.31c0,0,0.01-0.02,0.01-0.02c0.16-0.03,0.31-0.07,0.47-0.07
		c0.38-0.01,1.4,0.01,1.52,0.05c0.05,0.02,0.07,0.08,0.1,0.13c0.02,0.03,0.03,0.08,0.03,0.11c-0.01,0.22-0.04,0.44-0.04,0.65
		c0,0.28,0.01,0.57,0.03,0.85c0.01,0.18-0.01,0.38,0.05,0.54c0.04,0.11,0.17,0.17,0.26,0.24c0.07,0.06,0.16,0.1,0.24,0.15
		c0.1,0.05,0.21,0.1,0.31,0.14c0.18,0.09,0.37,0.19,0.56,0.25c0.27,0.1,0.55,0.17,0.83,0.25c0.11,0.03,0.23,0.05,0.35,0.07
		c0.13,0.01,0.26,0,0.39,0.03c0.06,0.01,0.11,0.05,0.14,0.09c0.04,0.04,0.06,0.11,0.06,0.17c0.01,0.25-0.01,1.96-0.01,1.98
		c-0.01,0.06-0.12,0.04-0.18,0.04c-0.07,0-0.15-0.02-0.21-0.05c-0.32-0.14-0.64-0.28-0.95-0.43c-0.03-0.02-0.04-0.06-0.07-0.08
		c-0.2-0.12-0.41-0.21-0.6-0.33c-0.22-0.15-0.42-0.33-0.64-0.48c-0.02-0.02-0.06-0.02-0.08-0.04c-0.07-0.06-0.13-0.14-0.2-0.19
		c-0.03-0.03-0.08-0.04-0.11-0.05c-0.01-0.01-0.03-0.01-0.04,0c-0.01,0.03-0.02,2.7-0.05,2.81c-0.01,0.04-0.06,0.06-0.1,0.06
		c-0.15,0.01-1.14,0.04-1.59,0.04c-0.12,0.01-0.24,0-0.35-0.02c-0.03-0.01-0.05-0.03-0.06-0.06c-0.03-0.08-0.06-0.15-0.06-0.23
		c-0.01-0.14,0-0.53,0-0.58c-0.01-0.71,0-2.21,0-2.81L73.23,54.05"/>
	<path fill="#231815" d="M81.94,55.17c-0.22-0.01-0.44-0.05-0.66-0.04c-0.04,0-0.06,0.04-0.1,0.04c-0.05-0.01-0.1-0.03-0.13-0.06
		c-0.02-0.01-0.06-0.03-0.06-0.06c-0.01-0.12-0.02-0.72-0.02-1.08c-0.01-0.09-0.04-0.24,0.01-0.27c0.03-0.03,0.27-0.08,0.41-0.08
		c0.38-0.01,5.65-0.05,6.37-0.05c0.04,0,0.08,0.01,0.12,0.04c0.02,0.02,0.05,0.05,0.06,0.09c0.01,0.17,0.03,0.74,0.03,1.12
		c0,0.05-0.01,0.11-0.04,0.15c-0.03,0.05-0.08,0.09-0.13,0.1c-0.17,0.03-0.35,0.01-0.53,0.01L81.94,55.17"/>
	<path fill="#231815" d="M90.84,55.55c-0.05,0-0.09-0.02-0.12-0.06c-0.04-0.04-0.06-0.08-0.07-0.13c-0.02-0.29-0.04-0.72-0.03-1.08
		c0-0.11,0.02-0.22,0.05-0.31c0.01-0.03,0.15-0.12,0.18-0.13l3.86-0.04c0.06,0,0.1,0.07,0.13,0.11c0.03,0.04,0.04,0.09,0.04,0.13
		c0.01,0.14,0.01,0.6,0,0.7c0,0.19-0.01,0.39-0.02,0.58c-0.01,0.05,0.01,0.12-0.03,0.16c-0.04,0.04-0.11,0.04-0.18,0.04L90.84,55.55
		"/>
	<path fill="#231815" d="M90.61,58.79c0.01-0.04,0.07-0.05,0.12-0.06c0.13-0.02,0.26-0.02,0.39-0.01c0.04,0,0.5,0,0.56,0
		c0.41-0.01,1.47-0.04,1.97-0.07c0.2-0.02,0.39-0.05,0.58-0.09c0.13-0.03,0.27-0.07,0.39-0.13c0.16-0.08,0.31-0.17,0.46-0.26
		c0.11-0.07,0.24-0.14,0.34-0.22c0.09-0.06,0.18-0.14,0.25-0.21c0.02-0.02,0.34-0.42,0.39-0.51c0.12-0.22,0.23-0.44,0.31-0.67
		c0.06-0.17,0.09-0.36,0.1-0.54c0.03-0.25,0.04-0.5,0.04-0.75c-0.01-0.05-0.06-0.29-0.05-0.32c0.02-0.07,0.07-0.13,0.11-0.17
		c0.04-0.04,0.1-0.05,0.16-0.07c0.02,0,0.03,0.02,0.04,0.02c0.06,0,0.58-0.03,0.7-0.02c0.1,0.01,0.19,0.01,0.27,0.04
		c0.03,0.01,0.05,0.04,0.06,0.08c0.03,0.12,0.05,0.23,0.05,0.35c0,0.22-0.08,1.1-0.08,1.12c-0.03,0.14-0.11,0.47-0.18,0.7
		c-0.04,0.15-0.09,0.29-0.14,0.43c-0.01,0.02-0.11,0.29-0.16,0.41c-0.02,0.04-0.13,0.23-0.16,0.29c-0.05,0.09-0.3,0.46-0.38,0.55
		c-0.05,0.06-0.46,0.49-0.58,0.61c-0.07,0.06-0.26,0.2-0.29,0.22c-0.21,0.14-0.41,0.28-0.63,0.4c-0.06,0.04-0.34,0.16-0.42,0.19
		c-0.23,0.08-0.46,0.16-0.7,0.22c-0.22,0.04-0.44,0.08-0.66,0.09c-0.45,0.03-1.24,0.04-1.8,0.05c-0.05,0-0.75,0.01-0.9-0.01
		c-0.04-0.01-0.08-0.05-0.1-0.09L90.61,58.79"/>
	<path fill="#231815" d="M86.78,55.49c0.36,0,1.07,0.02,1.09,0.03c0.07,0.01,0.05,0.14,0.04,0.21c-0.03,0.27-0.1,0.53-0.15,0.79
		c-0.03,0.15-0.06,0.29-0.11,0.43c-0.05,0.18-0.13,0.37-0.21,0.54c-0.05,0.12-0.11,0.24-0.19,0.35c-0.02,0.03-0.06,0.04-0.08,0.08
		c-0.05,0.1-0.08,0.21-0.14,0.31c-0.04,0.06-0.11,0.1-0.16,0.16c-0.05,0.06-0.08,0.13-0.13,0.19c-0.01,0.01-0.22,0.31-0.34,0.43
		c-0.03,0.03-0.41,0.36-0.57,0.5c-0.05,0.04-0.27,0.19-0.35,0.24c-0.21,0.14-0.42,0.29-0.65,0.38c-0.33,0.14-0.66,0.23-1,0.32
		c-0.27,0.07-0.64,0.13-0.82,0.16c-0.01,0-0.24,0.03-0.35,0.04c-0.45,0.01-1.67,0.01-1.76,0.01c-0.05-0.01-0.11-0.01-0.16-0.04
		c-0.04-0.02-0.05-0.06-0.06-0.09c-0.03-0.1-0.07-0.2-0.07-0.31c-0.01-0.05,0.04-0.1,0.05-0.15c0.02-0.1,0-0.2,0.03-0.31
		c0.01-0.03,0.03-0.04,0.06-0.06c0.06-0.03,0.13-0.05,0.19-0.06c0.04-0.01,0.09,0.03,0.14,0.03c0.06,0,0.11-0.04,0.17-0.04
		c0.02-0.01,0.05,0.02,0.08,0.01c0.22-0.01,0.44-0.02,0.66-0.06c0.21-0.03,0.42-0.07,0.61-0.13c0.15-0.04,0.29-0.1,0.42-0.17
		c0.2-0.1,0.39-0.21,0.58-0.33c0.13-0.08,0.23-0.17,0.34-0.28c0.16-0.16,0.34-0.31,0.47-0.5c0.14-0.19,0.26-0.41,0.37-0.62
		c0.02-0.05,0.07-0.18,0.07-0.19c0.01-0.08,0.04-0.21,0.01-0.24c-0.02-0.02-1.2,0-1.25,0c-0.06,0-0.26,0.01-0.31,0.01
		c-0.3,0-1.76-0.01-1.89-0.01c-0.06,0-0.62,0.01-0.76-0.01c-0.03,0-0.06-0.03-0.06-0.06c-0.01-0.13-0.02-0.49-0.02-0.73
		c0-0.22,0.01-0.59,0.02-0.66c0-0.03,0.06-0.05,0.1-0.06c0.07-0.03,0.36-0.07,0.39-0.07c0.02,0,0.05,0.04,0.08,0.04L86.78,55.49"/>
	<path fill="#231815" d="M93.4,7.7c0,0.5-0.41,0.9-0.91,0.9c-0.51,0-0.92-0.41-0.92-0.9c0-0.5,0.41-0.91,0.92-0.91
		C92.98,6.79,93.4,7.2,93.4,7.7"/>
	<path fill="#231815" d="M95.38,7.7c0,0.5-0.41,0.9-0.92,0.9c-0.51,0-0.92-0.41-0.92-0.9c0-0.5,0.41-0.91,0.92-0.91
		C94.97,6.79,95.38,7.2,95.38,7.7"/>
</g>
</svg>
