<?xml version="1.0" encoding="utf-8"?>
<!-- Generator: Adobe Illustrator 22.1.0, SVG Export Plug-In . SVG Version: 6.00 Build 0)  -->
<svg version="1.1" id="DESIGN" xmlns="http://www.w3.org/2000/svg" xmlns:xlink="http://www.w3.org/1999/xlink" x="0px" y="0px"
	 width="45.4px" height="45.4px" viewBox="0 0 45.4 45.4" style="enable-background:new 0 0 45.4 45.4;" xml:space="preserve">
<style type="text/css">
	.st0{fill:#0B196E;}
	.st1{fill:#FFFFFF;}
	.st2{fill:#1E2380;}
</style>
<path class="st0" d="M0,0h45.4v45.4H0V0z"/>
<path class="st1" d="M17.3,13.4c0,0,0.1-0.1,0.1-0.1c0,0,0-0.1,0-0.1c0-0.1,0.1-0.1,0.1-0.1c0,0,0.1,0,0.1,0c0,0-0.1-0.1-0.1-0.1
	c-0.1,0,0-0.1,0-0.2c0-0.1,0-0.1,0.1-0.1c0,0,0.1,0,0.1,0c0,0,0-0.1-0.1-0.1c0,0,0-0.1,0-0.1s-0.1-0.1-0.1-0.1c0-0.1,0-0.1,0-0.1
	c0,0,0,0-0.1,0c-0.1,0-0.1,0-0.1-0.1c0-0.1,0-0.1,0-0.1c0,0,0,0-0.1-0.1c0,0,0-0.1,0-0.1c0,0-0.1,0-0.2,0s-0.1,0-0.1-0.1
	c0-0.1,0-0.1,0-0.1s0,0-0.2,0s-0.1-0.1-0.1-0.1s-0.1,0-0.2,0c-0.1,0-0.1,0-0.1,0c0,0-0.1,0-0.1,0c0,0,0-0.1-0.1-0.1
	c-0.1,0-0.1,0-0.2-0.1c-0.1,0-0.3-0.1-0.4-0.1c-0.1,0-0.2,0-0.3,0c-0.1,0-0.2,0.1-0.3,0.1c-0.1,0-0.2,0-0.3,0c-0.1,0-0.1,0-0.2,0
	c-0.1,0-0.3,0-0.4,0c-0.1,0-0.1,0-0.1-0.1s0.1-0.2,0.1-0.2s0-0.1,0.1-0.1c0.1,0,0.1,0,0.1,0s-0.1,0-0.1-0.1c0,0,0-0.1,0.1-0.1
	c0.1,0,0.1-0.1,0.1-0.2c0-0.1,0.1-0.1,0.1-0.2c0-0.1,0-0.1,0.1-0.2c0-0.1,0.2-0.5,0.3-0.5c0,0,0-0.1,0.1-0.2c0-0.1,0.2-0.3,0.2-0.3
	c0.1-0.1,0-0.1,0.1-0.2c0.1,0,0.1-0.1,0.1-0.2c0-0.1,0.1-0.2,0.1-0.2c0-0.1,0-0.1,0-0.1c0.1-0.1,0.1-0.1,0.1-0.2c0-0.1,0-0.3,0-0.4
	c0-0.1,0.1-0.3,0.1-0.3c0-0.1,0-0.1,0-0.1c0,0,0,0,0-0.1c0-0.1,0-0.1,0-0.2c0-0.1,0-0.2,0-0.3c0-0.1,0-0.2,0-0.2
	c0-0.1,0-0.1-0.1-0.1c0,0,0,0-0.1,0c-0.1,0,0-0.1,0-0.2s0-0.1,0.1-0.2c0,0,0.1-0.1,0-0.1c0,0-0.1-0.1-0.2-0.1c-0.1-0.1,0-0.2,0-0.3
	c0.1-0.1,0-0.1-0.1-0.1c-0.1,0-0.1-0.1-0.1-0.1c0,0,0,0-0.1,0s-0.1,0-0.1,0c0-0.1,0-0.1,0-0.2c0-0.1,0.1-0.1,0.1-0.1
	c0,0-0.1-0.1-0.2-0.1c-0.1,0-0.2,0-0.2-0.1c0,0,0-0.1-0.1,0c0,0-0.1,0-0.2,0c-0.1,0-0.1,0-0.2,0.1c0,0.1,0,0.1-0.1,0.1
	c-0.1,0-0.1-0.1-0.1-0.1c0,0,0,0-0.1,0c-0.1,0-0.1,0.1,0,0.1c0,0.1,0,0.2-0.1,0.2c0,0-0.1,0-0.1,0c0,0-0.1,0.1-0.1,0.1
	c-0.1,0-0.1,0-0.2-0.1c0,0-0.1,0-0.1,0c0,0,0,0,0,0c0,0,0.1,0,0.1,0.1c0,0.1-0.1,0.2-0.2,0.2c-0.1,0-0.1,0.1-0.1,0.1
	c0,0.1-0.1,0.3-0.1,0.3c0,0,0,0.1-0.1,0.2c0,0-0.1,0-0.1,0.1c0,0,0,0,0,0.1c0,0-0.1,0,0,0c0,0,0.1,0.1,0.1,0.1s0,0.1,0,0.1
	c0,0,0,0.1-0.1,0.2S13,7,13,7s0,0,0,0.1c0,0,0.1,0.1,0,0.2c0,0.1,0,0.1,0,0.1s-0.1,0.1-0.1,0.2c0,0.1,0,0.1,0,0.2
	c-0.1,0.1-0.1,0.3-0.2,0.4c0,0,0,0.1-0.1,0.1c0,0.1-0.1,0.1-0.1,0.2c0,0.1-0.1,0.2-0.1,0.2c0,0-0.1,0.1-0.1,0.2c0,0.1,0,0-0.1,0.1
	c-0.1,0.1-0.1,0.2-0.1,0.3c0,0.1-0.3,0.8-0.4,0.9c0,0.1-0.1,0.2-0.1,0.3s-0.2,0.5-0.3,0.5c-0.1,0.1-0.2,0-0.3,0
	c-0.1,0-0.3,0-0.4-0.1c-0.1,0-0.3,0-0.4,0c-0.1,0-0.3-0.1-0.3-0.1c-0.1,0-0.3-0.1-0.4-0.1c-0.1,0-0.2,0-0.3-0.1
	c-0.1-0.1-0.1,0-0.3,0c-0.1,0-0.3,0-0.4-0.1c0,0-0.1,0-0.2,0s-0.1,0-0.2,0.1c-0.1,0.1-0.2,0.1-0.3,0.1c-0.1-0.1-0.1-0.1-0.2-0.1
	c-0.1,0-0.1,0-0.2,0.1c-0.1,0-0.1,0-0.1,0.1c0,0.1-0.1,0.1-0.1,0.1c0,0-0.1,0-0.1,0c0,0-0.1,0-0.1,0c-0.1,0,0,0.1,0,0.1
	s-0.2,0.1-0.2,0.1c-0.1,0,0,0.1-0.1,0.1c-0.1,0-0.1,0.1,0,0.1c0,0-0.1,0.1-0.1,0.2c0,0.1,0,0.2,0,0.2c0,0.1-0.1,0.1-0.1,0.1
	c-0.1,0-0.1,0.1-0.1,0.1c0,0,0,0.1,0,0.1s0.1,0,0.2,0c0.1,0,0.1,0,0.2,0c0.1,0,0.1,0.1,0,0.2c-0.1,0.1-0.1,0.1-0.1,0.2
	c0,0.1,0.1,0.3,0.2,0.4c0.1,0.1,0.1,0,0.2,0c0.1,0,0.1,0.1,0,0.2c0,0.1-0.1,0.1,0,0.1c0.1,0,0.1,0.1,0.1,0.2s0.1,0,0.2,0
	c0.1,0,0.1,0,0.2,0.1c0.1,0.1,0.2,0.1,0.2,0.1S7.7,14,7.8,14c0.1,0,0.1,0.1,0.2,0.2c0.1,0.1,0.1,0,0.2,0c0.1-0.1,0.1-0.1,0.1-0.1
	c0.1,0,0.1,0,0.1-0.1c0,0,0.1,0,0.2,0c0.1,0,0.1,0,0.3,0C9,14,9,14,9.1,14c0.1,0,0.2,0.1,0.4,0.1c0.1,0,0.2,0,0.3-0.1
	c0.1,0,0.1,0,0.1,0.1c0,0.1,0,0.2-0.1,0.2c-0.1,0-0.1,0-0.1,0.1s0,0.1-0.1,0.2c0,0,0,0.1,0,0.1c0,0,0,0.1,0,0.1
	c0,0.1-0.1,0.1-0.1,0.2c0,0.1-0.1,0.1-0.1,0.1c0,0,0,0.1,0,0.1s0.1,0,0.1,0.1s-0.1,0.2-0.1,0.2c0,0-0.1,0.1-0.1,0.2
	c0,0.1,0,0.1-0.1,0.1c0,0.1,0,0.1,0,0.2c-0.1,0.1-0.1,0.2-0.1,0.3c0,0.1,0,0.1-0.1,0.2c0,0,0,0.2-0.1,0.2c0,0-0.1,0-0.1,0
	c0,0,0-0.1,0-0.1c0,0,0,0.1-0.1,0.1c0,0-0.1,0.1-0.1,0.1c0,0,0.1,0,0.1,0s0,0.2-0.1,0.2s-0.1,0-0.1,0.1c-0.1,0.1-0.1,0.1-0.2,0.1
	c0,0,0-0.1,0-0.1c0,0,0-0.1-0.1-0.1c0,0-0.1,0-0.1-0.1s0-0.1-0.1,0c0,0-0.1,0.1-0.1,0.1c0,0,0,0.1,0.1,0c0,0,0,0,0.1,0s0,0.1,0,0.1
	c0,0,0,0-0.1,0s-0.1,0-0.1,0c0,0,0,0-0.1,0.1c-0.1,0,0.1,0.1,0.1,0.1s0,0,0-0.1c0,0,0,0,0,0c0,0,0.1,0,0.1,0.1c0,0,0,0.1-0.1,0.1
	s-0.1,0-0.1,0.1c0,0,0,0-0.1,0.1c-0.1,0.1,0,0.1,0,0.1c0,0,0.2,0,0.3,0c0.1,0,0.1,0,0.1,0s-0.1,0.2-0.1,0.2c0,0-0.1,0-0.1,0
	c0,0,0,0.1,0,0.2c0,0.1-0.1,0.3-0.2,0.3C8,18.8,8,18.8,8,18.9C8,19,7.9,19,7.9,19.1c0,0,0,0.1,0,0.1c0,0-0.1,0-0.1,0.1
	c0,0.1,0,0.2-0.1,0.2s-0.1,0-0.1,0.1c0,0.1-0.1,0.1-0.1,0.2c-0.1,0.1-0.1,0.1-0.2,0.1c0,0,0-0.1,0-0.1c0-0.1,0-0.1,0-0.1
	c0.1,0,0.1,0,0.1,0c0,0,0-0.1,0-0.1c0,0,0,0,0-0.1c0,0-0.1,0-0.1,0c0,0.1-0.1,0.1-0.1,0.2c0,0-0.1,0-0.1,0c0,0,0,0.1-0.1,0.1
	c0,0,0,0.1,0,0.2C7.1,20,7.1,20,7,20c0,0-0.1,0-0.1,0.1s0,0.1-0.1,0.1c0,0,0,0,0,0.1c0,0,0.1,0,0.1,0c0,0,0,0.1,0,0.1
	c0,0,0,0.1,0,0.1c0,0-0.1,0-0.1,0c0,0,0,0.1,0,0.1c0,0,0.1,0,0.1,0c0.1,0,0,0.1-0.1,0.1c-0.1,0-0.1,0.1-0.1,0.1c0,0,0,0.1,0,0.1
	c0,0,0,0.1,0,0.1c0,0,0,0.1,0,0.1c0,0-0.1,0-0.1,0.1c0,0,0,0.1-0.1,0.1c0,0-0.1,0-0.1,0s-0.1,0-0.1,0s0.1,0,0.1,0.1
	c0.1,0,0,0.1-0.1,0.1c-0.1,0-0.1,0.1-0.1,0.2c0,0,0.1,0,0.1,0s0-0.1,0.1-0.1c0.1,0,0.1,0,0,0.1c0,0,0,0.1,0,0.1c0.1,0,0.1,0,0.1,0
	s0,0.1-0.1,0.1c-0.1,0-0.2,0-0.2,0.1c0,0,0,0.1-0.1,0.2c-0.1,0.1-0.1,0-0.1,0.1s0,0.1,0,0.2c0,0.1-0.2,0.2-0.2,0.3
	c0,0.1-0.3,0.4-0.3,0.5c0,0.1,0,0.1-0.1,0.1c-0.1,0-0.2,0.1-0.3,0.1c-0.1,0-0.1,0-0.2,0c0,0-0.1,0-0.1,0.1c-0.1,0-0.1,0.1,0,0.2
	s0,0.1,0,0.2c-0.1,0.1,0,0.1,0,0.2c0,0.1,0,0.1-0.1,0.1c-0.1,0-0.1,0-0.1,0.1s0,0.2,0.1,0.2c0,0,0,0.1,0,0.2c0,0.1-0.1,0-0.2,0
	c-0.1,0-0.1,0-0.1,0.1c0,0.1,0.1,0.1,0.1,0.2s0,0.2,0,0.2s0,0.2,0,0.3c0,0,0,0.1,0.1,0.1c0,0,0,0.2,0,0.3c0,0.1,0,0.1,0,0.1
	c0,0,0,0.2,0,0.3c0,0.1,0,0.1,0.1,0.2c0.1,0,0.1,0.2,0.1,0.2s0,0.2,0.1,0.3c0.1,0,0.1,0.1,0.1,0.1c0,0-0.1,0-0.1,0c0,0-0.1,0,0,0.1
	c0.1,0,0,0.1,0,0.2c0,0.1,0,0.1,0.1,0.1c0,0,0.1,0,0.1,0c0,0,0.1,0,0.2,0s0.1,0.1,0.2,0.2c0.1,0.1,0.1,0.1,0.1,0.1
	c0,0.1,0.1,0.2,0.1,0.2c0,0.1,0.1,0,0.1-0.1c0.1,0,0.1,0,0.1,0c0,0,0.1,0,0.1,0s0,0,0.1,0.1c0,0,0.2,0,0.3,0c0.1,0,0.1-0.1,0.1-0.1
	c0,0,0.1,0,0.2,0c0.1,0,0.1,0,0.1-0.1c0,0,0.1-0.1,0.2-0.1c0.1,0,0.1-0.1,0.2-0.1c0.1-0.1,0.1-0.2,0.1-0.2c0,0,0.1,0,0.1-0.1
	c0,0,0-0.1,0.1-0.1c0.1,0,0-0.1,0-0.2c0-0.1,0.1-0.2,0.1-0.2c0-0.1,0-0.1,0-0.2s0-0.1,0.1-0.1s0-0.1,0-0.2c0,0,0-0.1,0-0.2
	c0,0,0,0,0.1-0.1c0,0,0-0.1,0-0.2c0,0,0-0.1,0-0.1c0,0,0-0.1,0-0.1c0,0,0-0.1,0-0.1c0-0.1,0-0.1,0-0.1c0,0,0-0.1,0-0.1
	s0-0.1,0.1-0.1c0,0,0.1-0.1,0.1-0.1c0,0,0,0,0.1,0c0,0,0.1,0,0.1-0.1c0,0,0-0.1,0-0.1c0,0,0.1-0.1,0-0.1c0,0-0.1-0.1-0.1-0.1
	c0,0,0.1,0,0.1-0.1c0,0,0-0.1,0-0.1c-0.1,0-0.1-0.1,0-0.2c0,0,0.1,0,0.1,0c0,0,0-0.1,0-0.1c-0.1,0-0.1,0-0.1-0.1s0.1-0.1,0.1-0.1
	c0,0,0,0,0.1,0c0-0.1,0-0.1,0-0.1c0,0,0-0.1,0-0.1c0,0,0,0,0-0.1c0,0,0-0.1,0.1-0.1s0.1-0.1,0.1-0.2c0-0.1,0.1-0.1,0.1-0.2
	C9,23.1,9,23.1,9,23c0,0,0-0.1,0.1-0.2c0-0.1,0-0.1,0-0.1c0,0,0,0,0,0s0,0-0.1,0s0-0.1,0-0.1c0,0,0-0.1,0-0.1c0,0,0-0.1,0-0.1
	c0.1,0,0.1,0,0.1,0c0,0,0-0.1,0.1-0.1c0,0,0.1-0.2,0.1-0.2c0,0,0,0,0,0c0,0-0.1,0-0.1,0c-0.1,0-0.1,0,0-0.1c0.1-0.1,0.1,0,0.1,0
	c0,0,0.1,0,0.1,0c0,0,0-0.1,0.1-0.1c0-0.1,0-0.1,0,0c0,0,0,0,0,0.1c0,0,0,0-0.1,0.1c-0.1,0-0.1,0-0.1-0.1c0-0.1,0-0.1,0-0.1
	s0.1,0,0.1,0c0,0,0-0.1,0,0c0,0,0,0,0-0.1c0,0,0-0.1,0.1-0.1c0,0,0-0.1,0-0.1c0,0,0.1,0,0.1-0.1c0,0,0,0,0-0.1
	c0-0.1,0.1-0.2,0.1-0.2c0,0,0-0.1,0-0.2c0,0,0.1-0.1,0.1-0.1c0,0,0,0,0-0.1s0-0.1,0.1-0.1c0,0,0,0,0.1,0.1c0,0,0.1,0,0.1,0
	c0,0,0-0.1,0-0.1c0,0,0.1-0.2,0.1-0.2c0,0,0,0,0.1,0s0-0.1,0-0.1c0,0-0.1,0-0.1,0.1s-0.1,0.2-0.1,0.2c0,0.1,0,0-0.1,0c0,0,0,0,0-0.1
	s0-0.1,0.1-0.1s0.1-0.1,0.1-0.2c0,0,0.1,0,0.1,0c0,0,0-0.1,0.1-0.1c0,0,0.1,0,0.1,0c0,0,0,0,0-0.1c0,0,0,0-0.1,0c-0.1,0,0-0.1,0-0.1
	c0,0,0.1-0.1,0.1-0.2c0-0.1,0-0.1,0-0.1c0,0,0.1-0.1,0.2-0.1c0,0,0,0.1,0,0.1c0,0,0,0.1,0,0.1c0,0,0,0.1,0,0.1c0,0,0,0,0,0
	c0,0,0,0.1,0,0.1c0,0-0.1,0-0.1,0c0,0,0,0,0.1,0c0.1,0,0.1-0.1,0.1-0.1c0,0,0.1,0,0.1,0c0,0,0,0.1,0,0.1c0,0,0,0.1-0.1,0.1
	c0,0.1-0.1,0.3-0.2,0.3c0,0.1-0.1,0.1-0.1,0.2c0,0.1,0,0.1,0,0.1c0,0,0.1-0.1,0.1-0.1c0,0,0-0.1,0-0.1c0,0,0.1-0.1,0.1-0.1
	c0-0.1,0-0.1,0.1-0.1c0,0,0.1-0.2,0.2-0.2s0-0.1,0-0.1c0,0,0,0,0-0.1s0-0.1,0-0.1s0.1-0.1,0.1-0.1c0,0,0.1-0.1,0.1-0.1
	c0,0,0-0.1,0.1-0.1c0-0.1,0-0.1-0.1,0c0,0-0.1,0.1-0.1,0.2c0,0-0.1,0.1-0.1,0.1s-0.1,0.1-0.1,0.1c0,0,0,0,0-0.1c0,0,0,0,0-0.1
	c0,0,0-0.1,0-0.1c0,0,0.1,0,0.1-0.1c0-0.1,0-0.1,0.1-0.2c0,0,0.1-0.1,0-0.1c0,0,0,0-0.1,0c0,0,0,0.1-0.1,0.2c0,0.1-0.1,0-0.1,0
	c0,0,0-0.2,0.1-0.2c0-0.1,0.1,0,0.2-0.1c0.1,0,0.1-0.1,0.1-0.1c0,0,0.1-0.1,0.1-0.1c0,0,0.1-0.1,0.1-0.2c0-0.1,0.1-0.1,0.1-0.1
	c0,0,0,0.1,0,0.1c0,0,0,0,0,0s0-0.1,0-0.1c0,0,0,0,0.1-0.1c0,0,0.1-0.1,0-0.1c0,0,0-0.1-0.1-0.1c0,0,0,0,0-0.1c0,0,0.1,0,0.1-0.1
	c0,0,0-0.1,0-0.2c0-0.1,0.1-0.1,0.1-0.1c0,0,0-0.1,0-0.2c0-0.1,0-0.1,0.1-0.2c0,0,0.1-0.1,0.1-0.1c0,0,0-0.1,0.1-0.1
	c0,0,0.1-0.1,0.1-0.1c0,0,0-0.1,0.1-0.1c0,0,0.1,0,0-0.1c0,0,0-0.1,0-0.1c0,0,0.1-0.2,0.1-0.3c0.1-0.1,0.1-0.2,0.1-0.3
	c0-0.1,0-0.1,0.1-0.2s0-0.1,0.1-0.2c0,0,0.1-0.1,0.1-0.1c0,0,0,0-0.1,0c0,0-0.1-0.1,0-0.1c0,0,0,0,0.1-0.1c0,0,0-0.1,0.1-0.1
	s0.1,0.1,0.1,0.2s0.1,0.2,0.1,0.2c0,0,0,0.2,0.1,0.2c0,0,0,0.1,0,0.2c0,0.1-0.1,0-0.2,0c-0.1,0,0,0.1,0,0.1s0.2,0.3,0.3,0.3
	c0,0,0,0.1,0,0.1c0,0,0.1,0.1,0.1,0.2c0,0.1,0.1,0.2,0.1,0.2s0,0.2,0,0.2c0,0,0.1,0.1,0.1,0.1c0,0.1,0.1,0.1,0.1,0.2
	c0,0,0.1,0.4,0.1,0.5c0,0.1,0,0.3,0.1,0.4c0,0.1,0.1,0.3,0.1,0.3c0,0,0,0.2,0.1,0.3c0,0,0.1,0.2,0.1,0.2c0,0,0,0.2,0.1,0.3
	c0,0.1,0.1,0.1,0.1,0.2c0,0.1,0.1,0.2,0.1,0.3c0,0.1,0.1,0.2,0.1,0.3s0.1,0.1,0.1,0.1s0,0.2,0,0.3s0.1,0,0.1,0.1
	c0,0.1,0,0.1,0.1,0.1c0,0,0,0.1,0,0.1s0,0.3,0,0.3s0,0.1,0,0.1c0,0,0.1,0,0.1,0c0,0,0.1,0,0.1,0c0.1,0,0,0.1,0.1,0.1
	c0.1,0,0.1,0,0.2,0.1c0,0.1,0.1,0.1,0.1,0.1c0.1,0,0.1,0.1,0.1,0.2c0,0,0.1,0.1,0.1,0.2c0,0,0.1,0.1,0.1,0.1c0,0.1,0.1,0.1,0.1,0.1
	c0,0,0,0.2,0,0.2c0,0.1,0,0.1,0.1,0.1c0,0,0.1,0,0.1,0c0,0,0.1,0.2,0.1,0.2c0,0,0.1,0.1,0.1,0.1s0.1,0,0.1,0.1c0,0,0.1,0.1,0.1,0.1
	c0,0,0,0.1,0.1,0.1s0.1,0,0.1,0.1s0,0.1,0.1,0.1c0,0,0.1,0,0.2,0c0.1,0,0.1-0.1,0.1-0.1c0,0,0.1-0.1,0.1-0.1c0,0,0-0.1,0-0.1
	s0-0.1,0-0.1c0,0,0-0.1,0-0.1s0-0.2,0-0.2c0-0.1,0-0.1,0-0.1c0,0,0-0.1,0-0.2s0-0.1,0-0.2c0-0.1,0-0.3,0-0.3c0-0.1,0-0.2,0-0.3
	c0-0.1,0-0.2,0.1-0.3c0-0.1,0-0.2,0-0.2c0,0,0-0.1,0-0.1c0,0,0-0.1,0-0.2c0,0,0-0.2,0-0.2c0,0,0-0.2-0.1-0.3s0-0.2-0.1-0.3
	c0-0.1,0-0.2-0.1-0.3c0-0.1,0-0.2-0.1-0.2c0,0-0.1,0-0.1-0.1c0,0,0-0.1,0-0.2c0,0,0.1-0.1,0-0.1c0,0,0,0-0.1-0.1s-0.1-0.1-0.1-0.1
	c0,0,0,0-0.1-0.1c0,0,0-0.1-0.1-0.2c0-0.1-0.1-0.1-0.1-0.2c0-0.1,0-0.1-0.1-0.1c0-0.1-0.1-0.2-0.1-0.3c0-0.1-0.1-0.2-0.1-0.2
	c0-0.1-0.1-0.1-0.1-0.2c-0.1,0-0.1-0.2-0.2-0.2c-0.1-0.1-0.2-0.3-0.2-0.3C15,17.1,15,17,15,17c0-0.1,0-0.1,0-0.1c0,0,0-0.1-0.1-0.1
	c0,0-0.1-0.1-0.1-0.2c0-0.1-0.1-0.2-0.1-0.2c0,0-0.1-0.1-0.1-0.1c0-0.1-0.1-0.2-0.2-0.3c0-0.1-0.1-0.1-0.1-0.1c0-0.1,0-0.2-0.1-0.2
	c-0.1,0,0-0.1-0.1-0.1c0-0.1-0.1-0.1-0.1-0.2s-0.1-0.2-0.2-0.3c-0.1-0.1-0.2-0.3-0.2-0.4c0-0.1-0.1-0.2-0.1-0.2c0-0.1,0-0.1-0.1-0.2
	c-0.1-0.1-0.1-0.2-0.1-0.4c0-0.1,0.1-0.1,0.2-0.1c0.1,0,0.4,0,0.6,0c0.1,0,0.5,0,0.6-0.1s0.4-0.1,0.5-0.1c0.1,0,0.3,0,0.3,0
	c0.1,0,0.1,0,0.2,0c0.1,0,0.3,0,0.3,0c0,0,0,0,0.2,0c0.1,0,0.4,0,0.5,0c0.1,0,0.1,0,0.1,0s0.1,0,0.2,0c0.1,0,0.2,0,0.2,0
	C17.3,13.5,17.3,13.4,17.3,13.4L17.3,13.4z M6.9,20.9C6.9,20.9,6.8,20.9,6.9,20.9C6.9,20.8,6.9,20.8,6.9,20.9z M7.1,20.4
	c0,0.1,0,0.1-0.1,0.1c0,0-0.1,0-0.1-0.1c0-0.1,0.1-0.2,0.1-0.2c0,0,0,0,0.1,0C7.1,20.3,7.1,20.4,7.1,20.4z M7.1,20.1
	C7.1,20.1,7.2,20.1,7.1,20.1C7.2,20.2,7,20.2,7.1,20.1z M7.3,20C7.2,20,7.2,20,7.3,20C7.2,19.9,7.3,19.9,7.3,20z M8.6,17.6
	c0,0-0.1,0-0.1,0.1c0,0-0.1,0,0,0c0,0,0,0,0,0.1c0,0,0,0.1-0.1,0c-0.1,0-0.1,0-0.1,0c0,0-0.1,0,0-0.1c0,0,0.1-0.1,0.1-0.2
	c0-0.1,0.1-0.1,0.1,0c0,0,0.1,0,0.1,0C8.6,17.6,8.6,17.6,8.6,17.6z M8.7,23.5C8.7,23.6,8.6,23.5,8.7,23.5c-0.1-0.1-0.1-0.2,0-0.2
	c0,0,0.1,0,0.1,0C8.8,23.4,8.7,23.5,8.7,23.5z M8.9,22.8c0,0.1-0.1,0.1-0.1,0.2c0,0.1,0,0.2-0.1,0.2c0,0,0,0,0,0c0,0,0-0.1,0-0.1
	C8.8,23,8.8,23,8.9,22.8C8.9,22.8,8.9,22.8,8.9,22.8z M11.2,18.3C11.2,18.3,11.2,18.3,11.2,18.3C11.1,18.4,11,18.4,11.2,18.3
	C11.1,18.2,11.1,18.3,11.2,18.3z M11.2,17.7c0,0-0.1,0.1-0.1,0.2s0,0.1,0,0.1S11,18,11,18.1c0,0,0,0.1,0,0.1c0,0,0,0-0.1,0.1
	c0,0,0,0,0,0.1c0,0,0,0.1,0,0.1c0,0-0.1,0.1-0.1,0.1c0,0,0,0.1-0.1,0.1s-0.1,0-0.1,0.1c0,0,0,0.1-0.1,0.1c0,0-0.1-0.1,0-0.1
	c0-0.1,0-0.1,0.1-0.1c0.1,0,0-0.1,0-0.1c0,0,0,0,0.1-0.1c0,0,0-0.1,0.1-0.2c0-0.1,0.1-0.1,0.1-0.1c0,0,0-0.1,0-0.1
	c0,0,0-0.1,0.1-0.1C11.1,17.7,11.1,17.7,11.2,17.7C11.2,17.6,11.2,17.7,11.2,17.7z M11.7,16.5c0,0-0.1,0.1-0.1,0.1s0,0.1,0,0.1
	c0,0,0,0-0.1,0c0,0,0,0.1,0,0.1c0,0,0,0.1,0,0.1c0,0,0,0-0.1,0.1c0,0,0,0,0,0.1c0,0,0,0.1,0,0.1c0,0-0.1,0.1-0.1,0.1c0,0,0,0,0,0.1
	c0,0,0,0.1,0,0.1c0,0-0.1,0-0.1,0s0-0.1,0-0.1c0,0,0.1,0,0.1-0.1c0-0.1,0-0.1,0.1-0.2c0,0,0.1-0.1,0.2-0.3c0-0.1,0-0.2,0.1-0.2
	c0.1,0,0.1-0.1,0.1-0.1c0,0-0.1-0.1,0-0.1c0,0,0.1,0,0.1,0c0,0,0.1,0,0.1,0C11.8,16.5,11.8,16.5,11.7,16.5z M11.8,16.2
	C11.8,16.3,11.8,16.2,11.8,16.2C11.8,16.2,11.8,16.2,11.8,16.2C11.9,16.2,11.9,16.2,11.8,16.2z M11.9,15.8c0,0.1,0,0.1-0.1,0.1
	c-0.1,0-0.1-0.1,0-0.1C11.8,15.8,11.9,15.8,11.9,15.8C11.9,15.7,12,15.8,11.9,15.8z"/>
<path class="st1" d="M8.7,16.4c0,0.1-0.1,0.2-0.1,0.3c0,0,0,0.2-0.1,0.2c-0.1,0-0.1,0-0.1,0.1c-0.1,0,0,0.1,0,0.1c0,0,0-0.1,0.1-0.1
	c0,0,0,0,0,0.1c0,0.1-0.1,0.1-0.1,0.1c0,0,0.1,0,0.1,0c0-0.1,0.1-0.2,0.1-0.2c0,0,0.1,0,0.1,0c0,0,0-0.1,0-0.1c0,0,0.1,0,0.1-0.1
	c0,0,0-0.1,0-0.1c0-0.1,0.1-0.1,0.1,0c0.1,0,0.1,0.1,0.1,0.1c0,0,0-0.1,0-0.2s0-0.1,0-0.1c0,0-0.1-0.1-0.1-0.1c0,0,0,0.1,0,0.1
	c0,0-0.1,0-0.1-0.1s0-0.1,0.1-0.1c0.1,0,0-0.1,0-0.1s-0.1,0-0.1,0c0,0,0,0.1,0,0.1C8.7,16.3,8.7,16.3,8.7,16.4z M9.1,15.4
	c0,0-0.1,0.1,0,0.1C9.1,15.6,9.1,15.5,9.1,15.4C9.2,15.4,9.1,15.4,9.1,15.4z M9,15.7C9,15.7,8.9,15.7,9,15.7C9,15.8,9,15.7,9,15.7
	C9.1,15.6,9,15.6,9,15.7z M8.9,15.8C8.9,15.8,8.8,15.9,8.9,15.8C8.9,15.9,8.9,15.9,8.9,15.8C9,15.8,8.9,15.8,8.9,15.8z M9.2,15.7
	C9.2,15.7,9.2,15.7,9.2,15.7c-0.1,0.1-0.1,0.1-0.1,0.1c0,0,0,0.1,0,0.1c0,0,0,0,0,0c0,0,0,0.1,0,0.1c0,0,0.1,0,0.1-0.1
	c0-0.1,0.1-0.1,0.1-0.2c0,0,0,0,0.1-0.1c0-0.1,0-0.1,0-0.1c0,0,0-0.1,0-0.1c0,0,0,0-0.1,0c0,0,0,0,0,0.1c0,0,0,0-0.1,0
	c0,0-0.1,0-0.1,0C9.3,15.6,9.3,15.6,9.2,15.7C9.3,15.7,9.3,15.7,9.2,15.7z M9,16.1C9,16.1,9,16.2,9,16.1C9,16.1,9,16.1,9,16.1z
	 M11.5,17.7C11.5,17.7,11.5,17.7,11.5,17.7C11.5,17.7,11.5,17.6,11.5,17.7z M9.1,16.1C9.2,16.1,9.1,16,9.1,16.1
	C9.1,16.1,9.1,16.1,9.1,16.1z M8.3,17.1C8.3,17.1,8.3,17.1,8.3,17.1C8.4,17.1,8.4,17.1,8.3,17.1z M8.2,18C8.2,18,8.2,18,8.2,18
	C8.2,18,8.2,17.9,8.2,18z M8.1,18.5C8.1,18.4,8.1,18.4,8.1,18.5C8,18.4,8,18.3,8.1,18.5C7.9,18.4,8,18.5,8.1,18.5z M7.9,18.7
	C7.9,18.7,7.9,18.7,7.9,18.7C7.8,18.7,7.8,18.7,7.9,18.7C7.8,18.8,7.9,18.8,7.9,18.7z M7.6,19.1C7.5,19.1,7.5,19.2,7.6,19.1
	c0,0.1,0,0.1,0,0.1C7.6,19.3,7.6,19.2,7.6,19.1C7.7,19.2,7.7,19.1,7.6,19.1C7.6,19.2,7.6,19.2,7.6,19.1z M7.5,18.9
	C7.5,18.9,7.5,18.8,7.5,18.9C7.4,18.9,7.5,18.9,7.5,18.9c0,0.1,0,0.1,0,0.1c0,0-0.1,0-0.1,0.1c0,0,0.1,0,0.1,0c0,0,0.1-0.1,0.1-0.1
	c0,0,0,0,0.1-0.1c0-0.1,0-0.2,0-0.3s0-0.1,0-0.1c0,0-0.1,0,0,0.1c0,0.1,0,0.1-0.1,0.2c0,0,0,0.1,0,0.1C7.6,18.7,7.6,18.7,7.5,18.9
	C7.6,18.8,7.6,18.9,7.5,18.9z M7.4,19C7.3,19.1,7.4,19.1,7.4,19C7.4,19,7.4,19,7.4,19z M6.3,20.9C6.3,20.9,6.3,20.9,6.3,20.9
	C6.3,21,6.3,21,6.3,20.9z M6.3,21.9C6.3,21.8,6.3,21.8,6.3,21.9C6.2,21.9,6.3,21.9,6.3,21.9z M7.8,18.2C7.8,18.2,7.7,18.2,7.8,18.2
	C7.7,18.2,7.8,18.2,7.8,18.2z M6.6,21C6.7,21,6.6,20.9,6.6,21C6.6,21,6.6,21,6.6,21z M9.2,22.8c0,0,0,0.1-0.1,0.1c0,0,0,0.1-0.1,0.2
	c0,0.1,0,0.1,0,0.2s0,0.1,0,0.1c0,0,0-0.1,0-0.2c0-0.1,0-0.1,0.1-0.2C9.1,22.9,9.2,22.9,9.2,22.8C9.2,22.7,9.2,22.7,9.2,22.8z
	 M8.9,23.5C8.9,23.5,8.9,23.6,8.9,23.5C9,23.5,8.9,23.5,8.9,23.5z M8.9,23.7C8.8,23.7,8.9,23.8,8.9,23.7C8.9,23.7,8.9,23.7,8.9,23.7
	z M8.8,23.9C8.8,23.9,8.8,23.9,8.8,23.9c-0.1,0-0.1,0-0.1,0.1S8.7,24,8.8,23.9C8.8,24,8.8,24,8.8,23.9C8.9,23.9,8.9,23.9,8.8,23.9z
	 M9.5,22C9.5,22,9.5,22,9.5,22l-0.1,0.1c0,0,0,0.1,0,0.1S9.4,22.1,9.5,22C9.5,22,9.5,22.1,9.5,22C9.6,22.1,9.6,22,9.5,22z M9.5,21.5
	C9.4,21.5,9.4,21.6,9.5,21.5C9.5,21.6,9.5,21.5,9.5,21.5C9.6,21.4,9.5,21.4,9.5,21.5C9.5,21.5,9.5,21.5,9.5,21.5z M9.7,21.1
	c0,0.1-0.1,0.1-0.1,0.1c-0.1,0,0,0.1,0,0.1S9.7,21.2,9.7,21.1C9.7,21.1,9.8,21.1,9.7,21.1C9.7,21.1,9.7,21.1,9.7,21.1z M9.8,20.9
	C9.8,20.9,9.8,20.8,9.8,20.9C9.7,21,9.8,21,9.8,20.9z M9.9,20.7C9.9,20.7,9.9,20.7,9.9,20.7C9.8,20.7,9.9,20.8,9.9,20.7z M10,20.7
	C9.9,20.8,10,20.8,10,20.7C10.1,20.7,10,20.7,10,20.7z M9.9,20.9c0,0.1,0,0.1-0.1,0.2c0,0,0,0.1-0.1,0.2c-0.1,0.1-0.1,0.2-0.1,0.2
	c0,0.1-0.1,0.2-0.1,0.3c0,0.1-0.1,0.1,0,0.2c0,0,0-0.1,0.1-0.2c0-0.1,0.1-0.1,0.1-0.1s0.1,0,0.1,0c0,0,0,0,0,0c0,0,0,0,0-0.1
	c0-0.1,0.1-0.1,0.1-0.2c0,0,0.1-0.1,0.1-0.2c0,0,0-0.1,0-0.1C10,21,10,21,9.9,20.9C10,20.9,9.9,20.8,9.9,20.9z M11,18.8
	c0,0-0.1,0.1-0.1,0.2c0,0.1,0,0.1,0,0.1c0,0,0-0.1,0.1-0.1C11,18.9,11,18.9,11,18.8C11.1,18.8,11,18.8,11,18.8z M11.4,17.8
	C11.4,17.8,11.4,17.8,11.4,17.8C11.4,17.8,11.5,17.8,11.4,17.8C11.4,17.8,11.4,17.8,11.4,17.8z M25.4,14.7c0,0,0.1,0,0.1,0
	s0.1,0,0.2,0c0,0,0.1,0,0.1,0c0,0,0.1,0,0.1,0c0-0.1,0.1,0,0.2,0c0.1,0,0.1,0,0.1,0c0.1,0,0.1-0.1,0.1-0.1s0.1-0.1,0.1-0.1
	s0.1,0,0.1,0c0.1,0,0.1-0.2,0.2-0.3c0-0.1,0.2-0.3,0.2-0.3c0.1,0,0,0,0-0.1c0-0.1,0-0.2,0.1-0.3c0,0,0.1-0.1,0.1-0.1
	c0-0.1,0-0.1,0.1-0.1c0.1,0,0-0.1,0-0.1c0-0.1,0-0.3,0-0.3c0-0.1,0-0.1,0.1-0.2c0,0,0-0.1,0-0.1c0-0.1,0-0.1,0.1-0.1
	c0,0,0-0.1,0-0.1c0-0.1,0.1-0.1,0.1-0.2c0,0,0,0,0-0.1c0-0.1,0-0.1,0-0.1c0-0.1,0-0.3,0-0.3c0-0.1,0-0.1,0-0.2c0,0,0-0.1-0.1-0.1
	s0-0.1,0.1-0.1c0,0,0-0.1,0-0.1c0,0,0-0.1,0-0.1c0.1,0,0,0,0-0.1c0-0.1-0.1-0.1-0.1-0.2c-0.1,0-0.1-0.1-0.1-0.2c0-0.1,0-0.1,0.1-0.1
	c0.1,0,0.1,0,0-0.1c-0.1,0-0.1-0.1-0.2-0.1c-0.1,0-0.1-0.1-0.1-0.1c0-0.1-0.1-0.1-0.2-0.2C27,9.9,27,9.9,27,9.8
	c0-0.1-0.1-0.1-0.1-0.1c-0.1,0-0.1,0-0.1-0.1c0,0,0-0.1,0-0.1c-0.1,0-0.2,0-0.3,0c-0.1,0-0.3,0-0.4-0.1c-0.2-0.1-0.4-0.1-0.6-0.2
	c-0.1,0-0.3,0-0.4,0c-0.2,0-0.2,0-0.3-0.1c-0.1,0-0.3,0-0.5,0c-0.2,0-0.8,0-0.8,0c-0.1,0-0.1,0-0.1,0c-0.1,0-0.2,0-0.3,0
	c-0.2,0-0.8,0-0.9,0.1c-0.2,0-0.5,0.1-0.7,0.1c-0.2,0.1-0.2,0-0.3,0c0-0.1-0.1-0.1-0.2-0.1c-0.2,0-0.4,0.1-0.4,0.2
	c-0.1,0-0.1,0-0.2,0c0,0,0-0.1-0.1,0c0,0,0,0-0.1,0c0,0,0,0,0,0c0,0,0.1,0,0.1,0c0,0,0,0,0,0c0,0-0.1,0-0.1,0c0,0-0.1,0.1-0.1,0.1
	c0,0-0.1,0-0.2,0c-0.1,0-0.1,0-0.1,0c0,0,0,0,0.1,0.1c0,0.1,0,0.1,0,0.1c0,0,0,0.1-0.1,0.1c-0.1,0-0.1,0.1-0.2,0.1c0,0,0,0.1,0,0.1
	c0,0,0,0.1,0,0.1s0,0,0,0.1c0,0,0,0.1,0,0.1c0.1,0,0.1,0.1,0.1,0.1c0,0,0,0.2,0,0.2c0,0,0,0.1,0,0.1s0,0,0,0.1c0,0,0,0,0,0.1
	c0,0,0.1,0,0.1,0.1c0,0,0,0.1,0,0.1c0,0,0,0.1,0,0.1c0,0,0,0.1,0,0.1c0,0,0.1,0.1,0.1,0.1c0.1,0,0.1,0.1,0.1,0.2c0,0,0.1,0,0.1,0
	c0,0,0.1,0,0.1,0.1c0,0,0,0.2,0,0.2c0,0.1,0.1,0.1,0.2,0.2c0.1,0,0.2,0.1,0.3,0.1c0.1,0,0.1,0,0.1,0.1c0,0,0,0.1,0,0.2
	c-0.1,0.1,0,0.1-0.1,0.2s-0.1,0.2-0.1,0.3c0,0,0,0.2,0,0.2c0,0-0.1,0.1-0.1,0.3c0,0.1-0.1,0.3-0.1,0.4c0,0.1,0,0.1-0.1,0.1
	c0,0,0,0.1,0,0.2c0,0.1-0.1,0.1-0.1,0.2c0,0,0,0.1,0,0.1s-0.1,0.1-0.1,0.2S20,14.9,20,14.9c0,0,0,0.1-0.1,0.2c0,0.1,0,0.1,0,0.1
	c0,0-0.1,0.1-0.1,0.2s0,0.1,0,0.2c0,0.1-0.1,0.1-0.1,0.2c0,0.1-0.1,0.1-0.1,0.2c0,0.1,0,0.1,0,0.2c0,0,0,0.1,0,0.1
	c0,0.1,0,0.2-0.1,0.2c0,0.1,0,0.1-0.1,0.1c0,0,0,0.1,0,0.1c0,0,0,0.1,0,0.1c0,0-0.1,0.1-0.1,0.2c0,0.1,0,0.2-0.1,0.2
	c0,0,0,0.2-0.1,0.3c0,0.1-0.1,0.1-0.1,0.2c0,0.1,0,0.1,0,0.2c0,0,0,0.1,0,0.2c0,0.1-0.1,0.2-0.1,0.3c0,0.1-0.1,0.4-0.1,0.5
	c0,0.1,0,0.1-0.1,0.1c0,0.1,0,0.1-0.1,0.2c0,0.1,0,0.2,0,0.2c0,0,0,0,0,0.1l0,0.1c0,0,0,0.1,0,0.1c0,0,0,0.1,0,0.2
	c0,0,0,0.1-0.1,0.2c0,0,0,0.2-0.1,0.3c0,0.1-0.1,0.3-0.1,0.4c0,0.1,0,0.1-0.1,0.1c0,0,0,0.1,0,0.2c0,0.1,0,0.1-0.1,0.1
	c0,0.1,0,0.1-0.1,0.2s-0.1,0.1-0.1,0.2c0,0.1,0,0.2-0.1,0.2s-0.1,0,0,0.1c0,0.1,0,0.1,0,0.1c0,0.1,0,0.1-0.1,0.2c0,0.1,0,0.2,0,0.2
	c0,0,0,0.1,0,0.1c0,0,0,0-0.1,0c0,0,0,0,0,0s0,0.1,0,0.2c0,0.1-0.1,0.1-0.1,0.2c0,0,0,0.1,0,0.2c0,0.1,0,0.1,0,0.2s0,0.2,0.1,0.2
	s0.1,0.1,0.1,0.2c0,0,0,0.1,0,0.1c0,0,0,0.1,0,0.2c0,0.1,0,0.1,0,0.2c0,0,0,0.2,0,0.3c0,0.1,0.1,0.2,0.1,0.2s0.1,0,0.1-0.1
	c0,0,0-0.1,0-0.1c0,0,0.1,0,0.1,0s0,0.1,0,0.2c0,0.1,0.1,0.1,0.1,0c0,0,0-0.1,0-0.2c0-0.1,0.1-0.1,0.1,0c0,0,0,0,0.1,0
	c0,0,0-0.1,0.1-0.2c0.1-0.1,0.3,0,0.4,0s0.1,0,0.1,0c0,0,0-0.1,0-0.2s0.1-0.1,0.2-0.2c0.1,0,0.1,0,0.2,0c0.1,0,0.1,0,0.2-0.1
	c0.1,0,0.1-0.1,0.2-0.1s0-0.1,0-0.1c0-0.1,0.1-0.2,0.1-0.2s0,0,0-0.1c0,0,0-0.1,0.1-0.2s0.1-0.1,0.1-0.1c0-0.1,0.1-0.2,0.1-0.2
	c0.1-0.1,0.2-0.3,0.2-0.5c0-0.2,0-0.3,0.1-0.4c0-0.1,0.1-0.1,0.1-0.2c0,0,0-0.2,0-0.3s0.1-0.2,0.1-0.3c0-0.1,0-0.2,0.1-0.2
	c0,0,0.1-0.1,0-0.1c-0.1,0,0-0.1,0-0.1c0,0,0-0.2,0-0.4c0-0.2,0-0.2,0.1-0.3s0-0.1,0-0.2c0-0.1,0.1-0.3,0.1-0.3s0-0.2,0-0.2
	c0-0.1,0.1-0.1,0.1-0.1c0,0,0-0.1,0-0.1s0,0,0-0.1c0-0.1,0-0.1,0-0.1c0,0,0-0.1,0.1-0.1c0,0,0-0.3,0-0.3c0-0.1,0-0.3,0-0.4
	c0,0,0,0,0-0.1c0-0.1,0-0.2,0-0.2c0-0.1,0-0.1,0-0.2c0-0.1,0-0.1,0-0.2c0-0.1,0-0.1,0-0.2c0,0,0-0.1,0-0.1c0,0,0,0,0-0.1
	c0,0,0-0.1,0-0.1s0,0,0-0.1c0,0,0,0,0.1,0s0.1,0,0.1,0s0,0-0.1-0.1c0,0,0-0.1,0-0.1s0.1-0.1,0.1-0.1c0-0.1,0-0.1,0-0.1
	c0,0,0.1,0,0.1-0.1c0,0,0.1,0,0.1,0l-0.1,0c0,0,0-0.1,0-0.1c0,0,0-0.1,0.1-0.1c0.1,0,0,0,0,0c0,0,0,0,0-0.1c0,0,0,0,0.1-0.1
	c0.1,0,0-0.1,0.1-0.2c0,0,0-0.1,0.1-0.1c0,0,0,0,0.1-0.1s0-0.1,0.1-0.2c0,0,0,0,0-0.1c0,0,0.1-0.1,0.1-0.2c0,0,0-0.2,0-0.2
	c0-0.1,0-0.1,0.1-0.1c0,0,0-0.1,0-0.1c0,0,0-0.1,0.1-0.1c0,0,0,0,0-0.1c0-0.1,0.2-0.3,0.2-0.4c0,0,0.2,0,0.3,0c0.1,0,0.1,0,0.2,0
	c0.1-0.1,0.4-0.1,0.5-0.2c0.2,0,0.2,0,0.3,0c0,0.1,0.1,0.1,0.1,0.1c0,0,0.1,0,0.1,0c0,0,0.1,0.1,0.1,0.1c0,0,0,0,0.1,0s0.1,0,0.1,0
	c0,0,0,0.1,0,0.1l0-0.1c0-0.1,0.1-0.1,0.2-0.1C25.2,14.6,25.3,14.6,25.4,14.7C25.4,14.7,25.4,14.7,25.4,14.7z M23.4,9.3
	c0.1,0,0.4,0,0.6,0c0.1,0,0.4,0,0.5,0c0.1,0,0.1,0,0.2,0c0.1,0,0.2,0,0.2,0c0,0,0,0.1,0,0.1c0,0-0.1,0-0.2,0.1c-0.1,0-0.1,0-0.2,0
	c-0.1,0-0.1,0-0.2,0c0,0-0.1,0-0.1,0c0,0,0,0-0.1,0C23.8,9.4,23.5,9.4,23.4,9.3C23.2,9.4,23.2,9.3,23.4,9.3z M24.7,13
	C24.7,13.1,24.7,13.1,24.7,13c-0.1,0.1-0.2,0.1-0.3,0.1c-0.1,0-0.2,0-0.4,0c-0.2,0-0.4,0-0.5,0c-0.1,0-0.1,0-0.3,0s-0.2,0-0.3,0
	c-0.1,0-0.1,0-0.1-0.1c0-0.1,0-0.2,0-0.3c0-0.1,0-0.1-0.1-0.2c-0.1,0-0.1-0.1-0.1-0.1c-0.1,0,0-0.1,0-0.1c0,0,0-0.1-0.1-0.1
	c-0.1,0-0.1,0-0.1-0.1c0-0.1,0.1-0.1,0-0.1c0,0,0-0.1,0-0.2c0,0-0.1-0.1-0.1-0.1c0,0-0.1,0-0.1-0.1c0-0.1,0.1-0.1,0.3-0.2
	c0.2,0,0.6-0.1,0.7-0.1c0.2,0,0.3,0,0.3-0.1c0.1,0,1.1,0,1.1,0c0.1,0,0.2,0,0.2,0c0,0,0,0.3,0,0.4c0,0.1-0.1,0.2-0.1,0.3
	c0,0.1,0,0.2,0,0.3c0,0.1-0.1,0.3-0.1,0.4C24.8,12.9,24.7,13,24.7,13z M25.2,12.5C25.2,12.5,25.2,12.5,25.2,12.5c0,0.1,0,0.2,0,0.2
	c0,0-0.1,0.1-0.1,0.1c0,0.1,0,0.1,0,0.2c0,0,0,0.1-0.1,0.1c0,0-0.1,0-0.1,0c0,0-0.1-0.2,0-0.2s0.1-0.1,0.1-0.1c0,0,0-0.2,0-0.3
	c0-0.1,0-0.1,0-0.1c0,0,0-0.1,0-0.1c0,0-0.1,0-0.1-0.1c0-0.1,0,0,0.1,0s0.1,0,0.1-0.1c0-0.1,0.1-0.1,0.1-0.1c0.1,0,0.1,0.1,0.1,0.1
	c0,0.1,0,0.1,0,0.2C25.2,12.4,25.2,12.4,25.2,12.5z M22.2,7c0,0,0,0.1,0,0.1c0,0,0,0,0,0.1c0,0,0,0.1,0.1,0.1c0,0,0,0.1,0,0.1
	c0,0,0,0.1-0.1,0.1c0,0-0.1,0-0.1,0.1c0,0,0,0.1,0,0.2s0.1,0,0.1,0c0,0,0.1,0,0.1,0.1c0,0,0,0.1,0.1,0.1c0,0,0.1,0,0.2,0s0.1,0,0,0
	c0,0,0,0.1,0,0.1c0,0,0.1,0,0.2,0C22.9,8,23,8,23,8.1c0,0.1-0.1,0.1-0.1,0.1c0,0-0.1,0-0.1,0.1c0,0,0,0.1-0.1,0.1s-0.1,0.1-0.1,0.1
	c0,0-0.1,0.1-0.1,0.2c0,0,0,0.1,0,0.1c0,0.1-0.1,0.1,0,0.1c0.1,0,0.1-0.1,0.1-0.1c0-0.1,0.1-0.1,0.1-0.1c0.1,0,0.1-0.1,0.2-0.2
	c0.1,0,0.1-0.1,0.1-0.2c0.1-0.1,0.1-0.1,0.2-0.1c0.1,0,0.3-0.1,0.3-0.1c0,0,0.1,0,0.1,0c0.1-0.1,0.1-0.1,0.2,0
	c0.1,0,0.1,0.2,0.1,0.2c0,0,0.1,0.1,0.1,0.1c0,0,0,0,0.1-0.1c0.1,0,0.2,0,0.2,0c0,0,0.1,0,0.2,0c0,0,0.1-0.1,0.1-0.1
	c0,0,0.2,0.1,0.2,0.1c0.1,0.1,0.1,0,0.2,0c0.1-0.1,0.2-0.2,0.2-0.3c0-0.1,0.1-0.1,0.1-0.1s0,0,0,0c0,0-0.1,0-0.1-0.1
	c0-0.1,0-0.1,0-0.2c0-0.1,0.1-0.2,0.1-0.2c0,0,0.1,0,0.1,0c0.1,0,0,0,0-0.1c0,0,0-0.1,0-0.1S25.7,7,25.7,7c0,0,0.1-0.1,0.1-0.1
	c0.1,0,0.1,0,0-0.1c0,0-0.1-0.1-0.1-0.1c0,0-0.1-0.1-0.1-0.1c0,0,0-0.1,0-0.1c0-0.1,0-0.1,0-0.2s0-0.1,0.1-0.2c0,0,0.1-0.1,0.1-0.2
	c0,0,0-0.2,0-0.2s0-0.1,0,0c-0.1,0-0.1,0-0.2,0c-0.1,0-0.1-0.1-0.1-0.1c0,0,0-0.1-0.1-0.1c-0.1-0.1-0.1-0.1-0.1-0.2
	c0-0.1,0-0.1-0.1-0.1C25,5.1,25,5,25,5c0-0.1,0-0.1,0-0.1c0,0-0.1,0-0.2,0c-0.1,0-0.1,0-0.2-0.1s0.1-0.1,0.1-0.1s0-0.1-0.1-0.1
	c-0.1,0-0.1,0-0.2-0.1c0,0-0.1-0.1-0.1,0s-0.1,0.1-0.2,0.1c-0.1,0-0.1,0-0.2-0.1c0-0.1,0-0.1,0-0.1s0-0.1,0,0c0,0,0,0.1-0.1,0.1
	c0,0.1-0.1,0-0.1,0.1c0,0,0,0,0,0c0,0,0,0.1-0.1,0.1c-0.1,0-0.1,0-0.1,0c0,0,0,0-0.1,0s-0.1,0-0.1,0c0,0-0.1,0-0.1,0.1
	c0,0-0.1,0.1-0.1,0.1c0,0-0.1,0-0.1,0.1C22.9,5,22.8,5,22.8,5c0,0,0,0.1,0,0.1c0,0,0,0.1-0.1,0.1c0,0,0,0-0.1,0c0,0,0,0.1,0,0.2
	c0,0.1-0.1,0.1-0.1,0.2c0,0.1-0.1,0.1-0.1,0.1c0,0,0,0,0,0.1c0,0.1,0,0.1-0.1,0.1c-0.1,0-0.1,0-0.1,0.1c0,0,0,0.1,0,0.2
	c0,0.1,0,0.1,0,0.2c0,0,0,0.1,0,0.2c0,0.1,0,0.1,0.1,0.2C22.2,6.8,22.2,6.9,22.2,7z"/>
<path class="st1" d="M40.8,24.5c0,0,0-0.1,0-0.1c0,0,0-0.1,0-0.1c0,0,0,0,0-0.1c0,0,0,0,0,0c0,0,0-0.1,0-0.2c0-0.1,0-0.1,0-0.1
	s0-0.2,0.1-0.2c0,0,0-0.1,0-0.1c0-0.1-0.1-0.1-0.1-0.2c0-0.1,0-0.2,0-0.3c0-0.1,0-0.1,0-0.1c0,0-0.1-0.1-0.2-0.2s-0.3-0.2-0.3-0.2
	c0,0,0-0.1,0-0.1c-0.1-0.1-0.2-0.1-0.3-0.2c-0.1,0-0.1,0-0.2,0s-0.1,0-0.2,0c-0.1,0-0.2,0-0.3,0c-0.1,0-0.2,0-0.3,0
	c-0.1,0-0.1,0-0.2,0c-0.1,0-0.1,0-0.1,0c0,0-0.1,0-0.1,0c0,0-0.1,0-0.2,0s-0.1,0-0.1,0c0,0,0-0.1-0.1-0.1c0,0-0.1,0-0.2,0
	c0,0-0.1,0-0.1,0c0,0,0,0,0.1,0.1c0.1,0,0.1,0.1,0.1,0.1c0,0-0.1,0-0.3,0c-0.1,0-0.2,0-0.3,0c-0.1,0-0.1,0.1-0.2,0.1
	c-0.1,0-0.3,0-0.4,0c-0.3,0-0.6,0-0.9,0c-0.1,0-0.4,0-0.5,0c-0.1,0-0.4,0-0.5,0c-0.1,0-0.1,0-0.1-0.1s0-0.1,0-0.2c0-0.1,0-0.1,0-0.1
	c0,0,0-0.1,0-0.1c0,0,0-0.1,0-0.1c0-0.1,0-0.2,0-0.3c0,0,0-0.1,0-0.1s0-0.1,0-0.1c0,0,0-0.1,0-0.1c0,0,0-0.1,0-0.2
	C34.9,21,35,21,35,21c0,0,0-0.1,0.1-0.1c0,0,0.1,0,0.2-0.1c0.1,0,0.1,0,0.2-0.1c0.1,0,0.1,0,0.2-0.1c0,0,0.1-0.1,0.2-0.1
	c0.1,0,0.1,0,0.2,0c0,0,0,0,0.1-0.1c0,0,0.1-0.1,0.2-0.1c0.1,0,0.1,0,0.1-0.1c0,0,0.2,0,0.3,0s0.4,0,0.4,0c0,0,0,0,0,0s0,0,0-0.1
	c0,0,0.3-0.1,0.4-0.1c0.1,0,0.1,0,0.1,0s0,0,0,0c0,0,0.1,0,0.1,0s0-0.1,0-0.1s-0.1-0.1,0-0.1c0,0,0.1,0,0.1,0c0,0,0.1,0,0.1,0
	c0,0,0,0,0-0.1c0,0,0,0,0,0l0-0.1c0,0-0.1-0.1-0.1-0.1c-0.1,0-0.1,0-0.1-0.1s-0.1,0-0.1,0c-0.1,0-0.1,0-0.1-0.1s-0.1,0-0.1,0
	c0,0-0.1,0-0.1-0.1c-0.1,0-0.2,0-0.3,0c-0.1,0-0.2,0-0.3,0c-0.1,0-0.2,0-0.3,0c-0.1,0-0.2,0-0.3,0s-0.2,0.1-0.3,0.1
	c-0.1,0-0.2,0-0.3,0c-0.1,0-0.1,0-0.1,0c0,0-0.2,0-0.2,0c0,0-0.1-0.1-0.1-0.1c0,0,0-0.1,0-0.2c0,0,0-0.2,0-0.2s0.1-0.1,0.1-0.2
	c0,0,0-0.1,0-0.1c0,0-0.1-0.1-0.1-0.1c0,0,0-0.1-0.1-0.1c-0.1,0-0.1,0,0-0.1c0,0,0-0.1,0-0.1c0,0,0-0.1-0.1-0.1s-0.1-0.1-0.1-0.1
	c0,0,0-0.1-0.1-0.1c-0.1,0,0-0.1,0-0.1c0,0,0.2,0,0.3,0c0.1,0,0.4,0,0.5,0c0.1,0,0.2,0,0.3,0c0.1,0,0.1,0,0.1,0.1
	c0,0.1,0,0.1,0.1,0.1c0,0,0.1,0,0.2,0c0,0,0.1,0,0.1,0c0,0,0,0.1,0,0.1c0,0,0.1,0.1,0.1,0.1c0.1,0,0.1,0,0.2,0.1c0.1,0,0.1,0,0.2,0
	c0.1,0,0.1,0,0.2,0c0.1,0,0.2,0,0.3,0s0.2-0.1,0.3-0.1c0,0,0.1-0.1,0.1-0.1s0-0.1,0.1-0.1c0,0,0,0,0-0.1c0,0,0-0.1,0-0.1
	c0,0,0-0.1,0-0.1c0,0,0-0.1,0-0.1c0,0,0-0.1,0-0.1c0,0,0-0.1,0,0c0,0,0,0,0,0s0-0.1,0-0.1c0,0,0-0.1,0-0.2c0-0.1,0-0.1,0-0.2
	c0,0-0.1-0.1-0.1-0.1c0-0.1,0-0.1,0-0.1c0,0-0.1-0.1-0.1-0.1c0-0.1,0-0.1-0.1-0.1c-0.1,0-0.1-0.1-0.1-0.2c0,0,0-0.1,0-0.1
	s0,0-0.1-0.1c0,0-0.1-0.1-0.2-0.2c-0.1-0.1-0.2-0.1-0.3-0.2c-0.1,0-0.1-0.1-0.3-0.1s-0.3-0.1-0.4-0.1c-0.1,0-0.2-0.1-0.3-0.1
	c-0.1,0-0.2,0-0.3,0c-0.1,0-0.1,0-0.2,0c0,0-0.1-0.1-0.1-0.1c-0.1,0-0.1,0-0.2,0c-0.1,0-0.1-0.1-0.2-0.1c0,0-0.1,0-0.1,0
	c-0.1,0-0.1,0-0.1-0.1c0,0,0-0.1,0.1-0.1c0.1,0,0.1,0,0.2,0c0.1,0,0.1,0,0.1,0c0.1,0,0.1,0,0.1,0s0.1,0,0.2,0c0.1,0,0.2,0.1,0.3,0.1
	c0.1,0,0.2,0,0.3,0c0.1,0,0.4,0,0.4,0c0,0,0.1,0,0.1,0s0.2,0,0.2,0c0.1,0,0.3,0,0.3,0c0.1,0,0.1,0,0.1,0c0,0,0.1,0,0.1,0.1
	c0,0,0,0,0-0.1c0,0,0-0.1,0-0.1c0,0,0,0,0,0s0,0,0-0.1s0.1,0,0.1,0c0,0,0.1,0,0-0.1s0-0.4,0-0.5c0-0.1,0-0.1,0-0.2
	c0-0.1,0-0.2-0.1-0.3c0-0.1-0.1-0.2-0.2-0.2c-0.1-0.1-0.2-0.1-0.4-0.1c-0.2,0-0.2-0.1-0.3-0.2c0,0,0-0.1-0.1,0c-0.1,0-0.1,0-0.2,0
	c-0.1,0-0.1,0-0.2,0c0,0-0.1,0-0.2,0c0,0-0.1,0-0.1,0c0,0-0.1,0-0.2,0s-0.1,0-0.2,0c0,0-0.1-0.1-0.2-0.1c-0.1,0-0.3,0-0.3,0
	c-0.1,0-0.2,0-0.2,0c-0.1,0.1-0.2,0-0.3,0c-0.1,0-0.1,0.1-0.2,0.1c-0.1,0-0.2,0-0.3,0c0,0-0.1,0-0.2,0c-0.1,0-0.1,0-0.2,0
	c-0.2,0-0.4,0-0.5,0c-0.2,0-0.3,0.1-0.3,0.1c0,0-0.1,0.1-0.2,0.1c0,0-0.1,0-0.2,0c0,0-0.1,0-0.1,0.1c0,0-0.1,0-0.1,0.1
	c0,0.1-0.1,0.1-0.2,0.1c-0.1,0-0.1,0-0.1,0c0,0-0.1,0-0.1,0.1c0,0.1-0.1,0.1-0.1,0c0,0-0.1,0-0.1,0.1s0,0.2,0,0.2c0,0,0,0.1,0,0.1
	c0,0,0,0.1,0,0.1c0,0,0.1,0,0.1,0c0,0,0.1,0,0.1,0c0,0,0.1,0,0.1,0c0,0,0,0,0.1,0.1c0,0,0.1,0,0.1,0c0.1,0,0.1,0,0.2,0
	c0.1,0,0.2,0,0.3,0c0.1,0,0.2,0,0.2,0c0,0,0.1,0,0.1,0s0.1,0,0.2,0s0.1,0,0.1,0c0,0,0.1,0,0.2,0c0.1,0,0.1,0,0,0.1
	c0,0.1-0.1,0.1-0.1,0.1c-0.1,0-0.1,0-0.1,0.1c0,0,0,0.1,0,0.1s0,0-0.1,0c0,0-0.1,0.1-0.1,0.1c-0.1,0-0.2,0.2-0.3,0.2
	c-0.1,0-0.2,0.2-0.3,0.2c0,0.1-0.1,0.1-0.1,0.1c-0.1,0-0.1,0.1-0.1,0.1c0,0-0.1,0-0.1,0.1c0,0.1-0.1,0.1-0.1,0.1c0,0,0,0-0.1,0.1
	c0,0.1,0,0.1-0.1,0.1c-0.1,0.1-0.1,0.1-0.1,0.2c0,0.1-0.1,0.2-0.1,0.3c0,0.1,0.1,0.1,0.2,0.1c0.1,0,0.1,0.1,0.1,0.2s0,0.1,0.1,0.1
	c0.1,0,0.1,0.1,0.1,0.1c0,0,0.1,0.1,0.2,0.1c0.1,0,0.1,0,0.2,0.1s0.1,0,0.2,0.1c0.1,0,0.1,0.1,0.1,0.1c0,0,0.1,0,0.1,0
	c0,0,0.1,0,0.1,0c0,0,0.1,0,0.1,0c0.1,0,0.1,0,0.2,0c0.1,0,0.2,0,0.2,0c0,0,0.2,0,0.2,0s0.1,0,0.2,0c0.1,0,0.2,0,0.3,0
	c0.1,0,0.1,0.1,0.1,0.1c0,0,0,0.1,0,0.1c0,0,0,0.1-0.1,0.1c0,0,0,0.1,0,0.1c0,0,0,0.1,0,0.1c0,0,0,0,0,0.1c0,0,0,0-0.1,0.1
	c0,0.1-0.1,0.2-0.1,0.3c-0.1,0.1-0.1,0.2-0.1,0.3c0,0.1-0.1,0.1-0.2,0.1c-0.1,0-0.1,0-0.2,0c0,0-0.3,0-0.4,0c-0.2,0-0.3,0-0.3,0
	c-0.1,0-0.2-0.1-0.4-0.1c-0.1,0-0.3-0.1-0.5-0.2c-0.2-0.1-0.2-0.1-0.2-0.2c0,0-0.1-0.1-0.1-0.1c0,0-0.1,0-0.2,0
	c-0.1,0-0.2,0.1-0.2,0c0,0-0.1,0-0.2,0.1c-0.1,0.1-0.2,0.1-0.3,0.1c0,0-0.1,0-0.2,0c0,0,0,0-0.1,0.1c0,0-0.1,0.1-0.1,0.1
	c0,0-0.1,0.1-0.1,0.1c0,0.1,0,0-0.1,0c0,0,0,0,0-0.1c0,0,0.1-0.1,0.1-0.1c0,0,0-0.1,0.1-0.1c0-0.1,0.1-0.1,0.1-0.1
	c0,0,0-0.1,0.1-0.1c0,0,0-0.1,0-0.1c-0.1,0,0-0.2,0-0.2c0-0.1,0-0.1,0.1-0.1c0.1-0.1,0-0.1,0-0.1c0,0,0-0.1,0-0.1c0,0,0,0,0-0.1
	c0,0,0-0.1,0.1-0.1c0,0,0-0.1,0-0.1c0,0,0-0.1,0-0.1c0,0,0-0.2,0-0.3c0-0.1,0-0.1,0.1-0.2c0,0,0-0.1,0-0.1s0,0-0.1-0.1
	c0,0,0.1-0.1,0.1-0.1c0,0,0-0.1,0-0.2c0-0.1,0-0.1,0-0.2c0,0,0-0.1,0-0.1c0,0,0-0.1,0.1-0.1c0,0,0-0.1,0-0.2c0-0.1,0-0.1,0.1-0.1
	s0-0.1,0-0.1s0,0,0-0.1s0-0.1,0.1-0.1c0-0.1,0-0.2,0-0.3c0,0,0-0.1,0-0.1s0-0.1,0-0.2c0-0.1,0-0.1,0-0.2c0-0.1,0-0.5,0-0.6
	s0-0.3,0-0.3s0-0.1,0.1-0.2c0.1-0.1,0.1-0.1,0.1-0.2c0,0,0.1,0,0.1-0.1c0,0,0.1-0.2,0.2-0.3c0.1-0.1,0.2-0.3,0.3-0.3
	c0.1,0,0.1-0.1,0.1-0.2s0-0.1,0-0.2c0-0.1,0.1-0.1,0.2-0.1c0.1,0,0.1,0,0.1,0.1c0,0,0.1,0,0.2,0c0.1,0,0.1,0,0.1,0
	c0,0,0-0.1,0.1-0.1s0.1,0,0.2,0c0.1,0,0.1,0,0.2,0c0.1,0,0.2,0,0.2,0c0,0,0,0,0.1,0c0,0,0.2,0,0.3,0c0.1,0,0.3,0,0.5,0
	c0.2,0,0.3,0.1,0.5,0.1c0.1,0,0.4,0.1,0.5,0.1c0.1,0,0.3,0,0.4,0s0.1,0,0.1,0.1c0,0.1,0.1,0.1,0.1,0.1c0.1,0,0.1,0,0.2,0
	c0.1,0,0.1,0,0.1-0.1c0,0,0.1-0.1,0.2-0.1c0.1,0,0.1,0,0.1,0c0,0,0-0.1,0.1-0.1c0,0,0.1,0,0.1,0c0,0,0-0.1,0.1-0.1
	c0.1,0,0.1,0,0.1,0c0,0,0,0,0-0.1c0,0,0,0,0-0.1c0,0,0.1-0.1,0.1-0.1s0.1,0,0.1,0c0,0,0-0.1,0.1-0.1c0,0,0.1,0,0.1,0c0,0,0,0,0.1,0
	c0.1,0,0.1,0,0.1-0.1s0.1-0.2,0.1-0.2c0,0,0-0.1,0.1-0.1c0,0,0.3-0.4,0.4-0.4c0.1-0.1,0.2-0.2,0.2-0.2c0,0,0.1,0,0.2-0.1
	c0,0,0.1-0.1,0.1-0.1c0-0.1,0-0.1,0-0.1c0,0,0.1-0.1,0.1-0.1c0,0,0-0.1,0-0.1c0,0,0-0.1,0-0.2c-0.1,0,0-0.1,0-0.1c0,0,0.1,0,0.1-0.1
	s0-0.1,0-0.1c-0.1,0-0.1,0-0.1-0.1c0-0.1,0-0.1,0-0.1c0-0.1,0-0.1,0-0.1s0-0.1-0.1-0.1c0,0,0-0.1,0-0.2c0-0.1-0.1-0.2-0.2-0.3
	C38,9.1,38,9.1,38,9c0-0.1,0-0.2,0-0.3c0-0.1,0-0.1-0.2-0.2c-0.1,0-0.1-0.1-0.1-0.2c0-0.1-0.1-0.2-0.2-0.3c0-0.1-0.1-0.2-0.1-0.2
	c-0.1,0-0.1-0.1-0.2-0.2c0-0.1-0.1-0.2-0.1-0.2s0-0.1-0.1-0.1s0,0-0.1,0.1c-0.1,0.1-0.1,0-0.2,0c-0.1,0-0.1-0.1-0.1-0.1s0-0.1-0.1,0
	c-0.1,0.1-0.1,0-0.2,0c-0.1,0-0.4,0-0.5,0c-0.1,0,0-0.1-0.1-0.1c0,0,0,0,0-0.1c0,0,0-0.1,0-0.2s0-0.1,0-0.1c0,0,0,0-0.1,0
	c0,0-0.1,0.1-0.1,0.1c0,0-0.1,0-0.1-0.1c0,0,0,0-0.1,0c0,0-0.1,0-0.1,0c0,0-0.1,0-0.2-0.1c0,0,0-0.1-0.1-0.1c0,0-0.1,0-0.1,0
	s0,0.1-0.1,0.1c0,0-0.1,0-0.1,0s-0.1,0-0.1,0c0,0-0.1,0-0.1,0c0,0-0.1,0-0.1,0.1c0,0.1-0.1,0.1-0.1,0.1c-0.1,0,0,0.1,0,0.1
	c0,0,0,0.1-0.1,0.1s-0.1,0-0.1,0.1c0,0.1-0.1,0-0.2,0.1c-0.1,0-0.1,0-0.1,0c-0.1,0-0.1,0-0.2,0c-0.1,0,0,0,0-0.1c0,0,0-0.1,0-0.1
	c0,0-0.1,0-0.1,0c0,0-0.1,0-0.1,0c-0.1,0-0.1,0-0.1,0c0,0,0,0.1,0,0.1c0,0-0.1,0-0.1,0c-0.1,0-0.1,0-0.1,0c0,0-0.1,0-0.1,0
	s-0.1,0-0.1,0c0,0-0.1,0-0.1,0s0,0,0,0c0,0,0,0,0.1,0c0,0,0,0,0,0c0,0,0,0,0-0.1c0,0-0.1,0-0.1,0c-0.1,0-0.1,0-0.1,0c0,0,0,0-0.1,0
	c0,0-0.2,0-0.2,0c0,0-0.1,0-0.1,0s0,0-0.1,0c0,0-0.1,0-0.1,0c0,0,0,0-0.1,0c0,0-0.1,0-0.1,0s-0.1,0-0.1,0c0,0,0-0.1,0-0.1
	c0,0,0,0,0,0s0,0,0,0s0,0-0.1,0s-0.1,0-0.1,0c0,0-0.1,0-0.1,0c-0.1,0-0.1,0-0.1,0s0,0,0,0s0,0,0,0c0,0,0,0,0,0c0,0-0.1,0-0.1,0
	c0,0-0.1,0-0.1,0c0,0,0,0,0,0h0.1c0,0,0.1,0,0.1,0c0,0.1-0.1,0-0.1,0.1c0,0-0.1,0-0.1,0c-0.1,0-0.1,0-0.2,0c-0.1,0-0.2,0-0.3,0
	c0,0,0,0.1,0,0.1c0.1,0,0.2,0,0.3,0s0.1,0,0,0.1c0,0-0.1,0-0.3,0c-0.1,0-0.1,0-0.2-0.1c0,0,0-0.1-0.1-0.1c0,0-0.1,0.1-0.1,0.1
	c0,0-0.1,0-0.1,0s-0.1,0-0.1,0c0,0-0.1-0.1-0.1,0c-0.1,0-0.1,0-0.1-0.1c0-0.1,0,0-0.1,0c-0.1,0-0.1-0.1-0.1-0.1c0,0-0.1,0-0.1,0
	c0,0,0,0,0,0.1c0,0,0,0.1-0.1,0.2c0,0-0.1,0.1-0.1,0c0,0-0.1,0-0.1,0.1c0,0.1-0.1,0.1-0.1,0.1c0,0-0.1,0-0.1,0c0,0-0.1,0-0.2,0.1
	c-0.1,0-0.2,0-0.3,0.1c-0.1,0.1-0.2,0.2-0.3,0.2s0,0,0,0.1c0,0,0,0.1,0.1,0.2c0,0.1,0.2,0.3,0.2,0.4c0.1,0.1,0.2,0.3,0.2,0.4
	c0,0.1,0.1,0.2,0.2,0.3c0.1,0,0.2,0.2,0.2,0.2c0,0,0.1,0,0.2,0.1c0.1,0.1,0.3,0.4,0.5,0.5c0.1,0.1,0,0.2-0.2,0.3
	c-0.1,0.1-0.1,0.1-0.1,0.3c0,0.1-0.1,0.2-0.1,0.3c-0.1,0.1-0.1,0.1-0.1,0.2c0,0.1,0,0.1,0,0.2c0,0.1-0.1,0,0,0.1
	c0,0,0.1,0.1,0.1,0.1c0,0,0,0.2,0,0.2s0,0,0,0.1c0,0.1,0,0.1,0,0.2c0,0.1,0.1,0.2,0.1,0.5c0,0.3-0.1,0.3-0.2,0.4
	c-0.1,0.1-0.1,0.2-0.2,0.2c0,0.1-0.1,0.1-0.1,0.2c0,0,0,0,0,0.1c0,0,0,0.1-0.1,0.2c0,0.1-0.1,0.1-0.1,0.1c0,0,0,0.1-0.1,0.2
	c0,0.1,0,0-0.1,0.1c0,0,0,0.1-0.1,0.1s0,0.1,0,0.2S28,14.3,28,14.3c0,0,0,0.1,0,0.2c0,0.1-0.1,0.2-0.1,0.3c0,0,0,0.1,0,0.2
	c0,0-0.1,0.1-0.1,0.1c0,0,0,0.1-0.1,0.1c0,0.1,0,0.1,0,0.1s0,0-0.1,0.1c0,0,0,0.1,0,0.2c0,0-0.1,0-0.1,0.1c0,0,0,0.1,0,0.1
	c0,0-0.1,0.1-0.1,0.1c0,0,0,0.1-0.1,0.2c0,0,0,0.1,0,0.1c0,0.1,0,0.1,0,0.2c0,0.1-0.1,0.1-0.1,0.1c-0.1,0.1-0.1,0.2-0.2,0.3
	c0,0.1,0,0.1-0.1,0.2c0,0.1-0.1,0.1-0.1,0.2c0,0.1-0.1,0.1-0.1,0.1c0,0,0,0.1-0.1,0.2c0,0.1,0,0.1-0.1,0.2c0,0.1-0.1,0.2-0.1,0.2
	c0,0,0,0.1-0.1,0.2c-0.1,0.1-0.1,0.2-0.1,0.3s0,0.2-0.1,0.3c0,0.1,0,0.1,0,0.1c0,0.1,0,0.1,0,0.2s0,0.1,0,0.1c0,0.1,0,0.3,0,0.4
	c0,0.2,0,0.2,0.1,0.2c0,0,0.1,0,0.1,0.1s0,0.1-0.1,0.1c0,0,0,0,0,0c0.1,0,0.1,0,0.1,0.1s0,0.1,0,0.1c0,0,0,0.1,0,0.1
	c0,0,0,0.1,0.1,0.1c0,0,0.1,0,0.2,0c0.1,0,0.2,0.1,0.2,0.2c0,0.1,0,0.1,0,0.2c0,0,0,0.1,0.1,0.1c0.1,0,0.1,0,0.1,0c0,0,0-0.1,0.1,0
	c0.1,0,0,0.2,0,0.2c0,0.1,0,0.1,0,0s0.1-0.2,0.1-0.2s0.1,0,0.1,0s0,0.1,0,0s0.1,0,0.2,0c0,0,0,0,0,0.1c0,0.1,0,0,0,0c0,0,0,0,0-0.1
	c0,0,0.1-0.1,0.1-0.1c0,0,0.1-0.1,0.1-0.1c0,0,0.1,0,0.1,0c0,0,0-0.1,0.1-0.1c0,0,0.1,0,0.1,0c0,0,0.1,0,0.2,0c0.1,0,0.1,0,0.1-0.1
	c0,0,0.1-0.1,0.1-0.1c0,0,0.1-0.1,0.2-0.2c0,0,0.1-0.1,0.1-0.1c0,0,0.1-0.2,0.2-0.2c0,0,0.1-0.1,0.2-0.2s0.2-0.2,0.2-0.2
	c0-0.1,0.1-0.2,0.2-0.2c0.1,0,0.1,0,0.1,0c0,0,0,0.1,0,0.1c0,0.1,0,0.2,0,0.2c0,0.1,0,0.1-0.1,0.1c0,0-0.1,0-0.1,0c0,0,0,0.1,0,0.1
	c0,0,0,0.1,0.1,0.2s0.1,0.1,0.1,0.1c0,0,0,0.1-0.1,0.1s0,0.1,0,0.2s0,0.1,0,0.2c0,0.1,0,0.1,0,0.2c0,0,0,0.1,0.1,0.2
	c0,0,0.1,0.1,0.2,0.1c0.1,0,0.3,0.1,0.3,0.2s0.1,0.1,0.2,0c0,0,0.1-0.1,0.1-0.1c0,0,0,0,0.1,0.1c0,0,0.1,0,0.2-0.1
	c0.1,0,0.3,0,0.4,0c0.1,0,0.3,0.1,0.3,0.1c0,0,0.4,0,0.5,0c0.2,0,0.3,0,0.4,0c0.1,0,0.2,0,0.2,0c0,0.1,0,0.1,0,0.2
	c0,0.1,0,0.2-0.1,0.3c0,0.1,0,0.2,0,0.3c0,0.1,0,0.2,0,0.3c0,0.1,0,0.1,0.1,0.1c0,0,0.1,0,0.1,0.1s0,0.1-0.2,0.1c-0.1,0-0.3,0-0.4,0
	c-0.1,0-0.7,0-0.9,0c-0.2,0-0.5,0-0.6,0c-0.1,0-0.4,0-0.5,0c-0.1,0-0.8,0.1-0.9,0.1c-0.1,0-0.1,0-0.1,0c0,0-0.3,0-0.4,0
	c-0.1,0-0.3,0-0.4,0s-0.1,0-0.2,0c-0.1,0-0.1,0-0.2,0c-0.1,0-0.2,0-0.3,0c-0.2,0-0.3,0-0.5,0c-0.1,0-0.1,0,0,0.1c0,0,0,0.2,0,0.3
	c0,0.1,0,0,0.1,0.1c0,0.1,0.1,0.2,0.3,0.3c0.1,0.1,0.2,0.1,0.4,0.1c0.1,0,0.2,0,0.3,0c0.1,0,0.2,0,0.3,0c0.1,0,0.2,0,0.3,0
	c0.1,0,0.1,0,0.2,0c0.1,0,0.2,0,0.3,0c0.1,0,0.2,0,0.3,0c0.1,0,0.1,0,0.2,0c0,0,0,0,0.1,0c0.1,0,0.3,0,0.5,0.1c0.1,0,0.4,0,0.5,0
	c0.1,0,0.3,0,0.4,0c0,0,0,0,0.1,0c0,0,0.2,0,0.2,0s0,0,0.1,0c0,0,0.1,0,0.2,0c0.1,0,0.3,0,0.4,0s0.2,0.1,0.3,0.1c0.1,0,0.1,0,0.2,0
	c0.1,0,0.1,0,0.2,0c0,0,0.1,0,0.1,0c0,0,0.1,0,0.1,0c0,0,0.1,0,0.1,0c0,0,0,0,0.1,0c0,0,0.1,0,0.2,0c0,0,0.1,0,0.1,0
	c0,0,0.1,0,0.1,0c0.1,0,0.1,0,0.2,0c0.1,0,0.3,0,0.3,0c0,0,0,0.1,0,0.1c0,0,0,0,0,0s0.1,0,0.1,0c0,0,0.1,0,0.2,0s0.1,0,0.1,0
	c0.1,0,0.1,0,0.1,0c0,0,0,0,0.1,0.1c0.1,0,0.1,0,0.2,0c0,0,0.1,0,0.2,0c0,0,0.1,0,0.1,0.1c0.1,0,0.1,0,0.2,0c0.1,0,0.1,0,0.2,0
	c0.1,0,0.2,0,0.2,0c0,0,0.1,0,0.1,0s0.1,0,0.1,0c0,0,0,0,0.1,0c0.1,0,0.2,0,0.2,0s0.1,0,0.1,0c0,0,0,0,0.1,0c0,0,0.1,0,0.2,0
	c0,0,0.1,0.1,0.2,0.1s0.1,0,0.2,0c0.1,0,0.1,0,0.2,0c0.1,0,0.2,0,0.3,0c0.1,0,0.4,0,0.4,0c0.1,0,0.3,0,0.3,0c0.1,0,0.1,0,0.1,0.1
	c0,0,0.1,0,0.1,0c0.1,0,0.1,0,0.2,0c0.1,0,0.2,0,0.2,0s0.3,0.1,0.4,0.1c0.1,0,0.2,0,0.3,0c0.1,0,0.2,0,0.2,0c0,0,0.2,0,0.3,0
	c0.1,0,0.2,0.1,0.2,0.1c0.1,0,0.1,0,0.1-0.1c0,0,0.1-0.1,0.1-0.1c0,0,0.1-0.1,0.1-0.1c0,0,0.1,0,0-0.1c0,0,0-0.1,0-0.1
	c0,0,0-0.1,0-0.1c0,0,0,0,0,0C40.8,24.6,40.7,24.5,40.8,24.5C40.8,24.5,40.8,24.5,40.8,24.5L40.8,24.5z M32.5,7.2c0,0,0.1,0,0.2,0
	c0,0,0.1,0,0.1,0c0,0,0.2,0,0.2,0s0.1,0,0.1,0c0.1,0,0.1,0,0.2,0c0.1,0,0.1,0,0.2,0s0.1,0,0.1,0c0,0,0,0.1,0,0.1c0,0-0.1,0-0.1,0
	c-0.1,0-0.1,0-0.1,0c0,0-0.1,0-0.1,0c0,0-0.1,0-0.1,0c0,0-0.2,0-0.3,0s-0.1,0-0.1,0c0,0-0.1,0-0.1,0c0,0-0.1,0-0.1,0s-0.1,0-0.1,0
	C32.4,7.3,32.4,7.2,32.5,7.2z M31.9,7.3c0,0,0.1,0,0.2,0c0.1,0,0.1,0,0.2,0c0,0,0,0.1,0,0.1C32.2,7.4,32,7.4,31.9,7.3
	C31.9,7.4,31.9,7.3,31.9,7.3z M31.4,7.1c0.1,0,0.1,0,0.1,0c0,0,0,0.1-0.1,0.1c-0.1,0-0.1,0-0.1-0.1C31.3,7.1,31.4,7.1,31.4,7.1z
	 M31.2,9.6c0.1,0,0.2,0,0.3,0c0.1,0,0.2,0,0.4,0c0.1,0,0.3,0,0.4,0c0.1,0,0.1,0,0.2,0c0.1,0,0.2,0,0.3,0c0.1,0,0.2,0,0.3,0
	c0.1,0,0.1,0,0.1,0c0.1,0,0.1,0,0.2,0c0.1,0,0.1,0,0.1,0c0,0,0,0,0.1,0s0,0,0-0.1c0-0.1,0-0.1,0.1-0.1c0.1,0,0.2,0,0.2,0
	c0.1,0,0.2,0,0.3,0c0.1,0,0.1,0,0.2,0c0.1,0,0.1,0,0.1,0.1c0,0.1,0,0.1,0,0.2c0,0,0,0.1,0,0.1s-0.1,0.1,0,0.2s0.1,0.1,0,0.1
	c0,0.1-0.1,0.1-0.1,0.1c0,0-0.2,0.1-0.3,0.2c-0.1,0-0.1,0.1-0.2,0.1c-0.1,0-0.1,0-0.1,0c0,0-0.1,0.1-0.1,0.1c0,0-0.1,0.1-0.1,0.1
	c0,0-0.1,0-0.1,0.1c-0.1,0-0.2,0-0.2,0c0,0-0.1,0-0.1,0c-0.1,0-0.1,0-0.2,0c0,0-0.1,0-0.1,0c0,0-0.1,0-0.2,0c-0.1,0-0.2,0-0.2,0
	c-0.1,0-0.2,0-0.2,0c-0.1,0-0.1,0-0.2,0s-0.1-0.1-0.1-0.1c0,0,0-0.1,0-0.1c-0.1,0-0.1,0-0.1-0.1c0,0,0-0.1,0-0.1
	c0,0-0.1-0.1-0.1-0.1c0-0.1-0.1-0.2-0.2-0.3c0,0-0.1-0.1-0.1-0.1c0,0-0.1-0.1-0.2-0.1C31.1,9.8,31,9.7,31.2,9.6L31.2,9.6z M30.9,7.3
	c0,0,0.1,0,0.1,0S31,7.3,30.9,7.3C30.8,7.3,30.8,7.3,30.9,7.3z M33.9,15.4C34,15.4,34,15.4,33.9,15.4c0,0.1-0.1,0.1-0.1,0.1
	c-0.1,0-0.1-0.1,0-0.1C33.9,15.3,33.9,15.4,33.9,15.4z M33.7,15c0.1,0,0.1,0,0.1,0c0,0,0,0,0,0.1c0,0,0,0,0,0c0,0,0,0,0,0.1
	c0,0,0,0,0,0.1s-0.1,0-0.1,0c0,0,0,0-0.1,0c0,0,0-0.1,0-0.1s0-0.1,0-0.1C33.6,15,33.6,15,33.7,15z M34.1,16.6c-0.1,0-0.3,0-0.4,0
	c-0.1,0-0.1,0-0.1-0.1s0.1-0.1,0.1-0.1c0,0,0-0.1,0.1-0.1c0,0,0.1-0.1,0-0.1c0,0,0-0.2,0-0.2c0,0,0,0,0.1-0.1c0-0.1,0,0,0-0.1
	c0-0.1,0-0.2,0.1-0.2c0.1,0,0.2,0.1,0.3,0.1c0.1,0.1,0.2,0.2,0.2,0.2c0,0.1,0.1,0.1,0.2,0.1c0,0,0.1,0.1,0.1,0.1s0,0.1,0.1,0.1
	c0,0.1,0.1,0.2,0.1,0.2s0,0.1,0,0.1c0,0,0,0.1-0.1,0.1s-0.1,0-0.2,0S34.2,16.6,34.1,16.6z"/>
<path class="st1" d="M31.8,7.1C31.9,7.1,31.9,7.1,31.8,7.1C31.9,7,31.9,7,31.8,7.1C31.7,7,31.8,7.1,31.8,7.1z M28,7.4
	C28,7.4,28,7.4,28,7.4C27.9,7.5,28,7.5,28,7.4z M30.7,7.1C30.7,7.1,30.7,7,30.7,7.1C30.7,7.1,30.7,7.1,30.7,7.1z M33.1,7.1
	C33.1,7.1,33.1,7,33.1,7.1C33.1,7.1,33.1,7.1,33.1,7.1z M34.1,7.1C34.1,7.1,34.1,7.1,34.1,7.1C34,7.1,34,7.1,34.1,7.1z M33.8,7.1
	C33.9,7.1,33.9,7.1,33.8,7.1C33.8,7.1,33.8,7.1,33.8,7.1z M26.9,21C26.9,21,26.9,21,26.9,21c0.1-0.1,0.1-0.1,0.1-0.1
	c0,0-0.1,0-0.1,0C26.8,21,26.9,21,26.9,21z M26.4,20.5C26.4,20.5,26.4,20.4,26.4,20.5c0.1-0.1,0.1-0.2,0.1-0.2c0,0,0,0-0.1,0
	C26.3,20.4,26.3,20.5,26.4,20.5C26.3,20.5,26.3,20.6,26.4,20.5C26.3,20.6,26.4,20.6,26.4,20.5z M20.5,31.7c-0.2,0-0.5,0-0.7,0.1
	c-0.1,0-0.3,0-0.4,0c-0.1,0-0.3-0.1-0.3-0.2c0-0.1,0-0.1-0.1-0.1c0,0-0.1,0-0.1,0.1c0,0.1-0.1,0.2-0.1,0.3c0,0.1,0,0.2,0.1,0.2
	s0,0.1,0,0.1c0,0,0.1,0,0.1,0c0,0,0.1,0.1,0.1,0.1c0.1,0,0.1,0.1,0.2,0.2c0.1,0.1,0.2,0.1,0.4,0.2c0.2,0.1,0.3,0,0.3,0
	c0.1,0,0.1,0,0.2,0c0.1,0,0.1,0,0.2,0c0.1,0,0.2,0,0.2,0c0.1,0,0.1,0,0.2-0.1c0,0,0.1,0,0.1-0.1c0,0,0-0.1,0.1-0.2
	c0-0.1,0-0.2-0.1-0.3C20.9,31.8,20.7,31.7,20.5,31.7z M21.5,28.8c-0.1,0-0.2-0.1-0.2-0.1c-0.1,0-0.1,0-0.2,0c-0.1,0-0.1,0-0.2-0.1
	c0-0.1,0-0.1-0.1-0.1c0,0-0.1,0-0.2,0c-0.1,0-0.1,0-0.2,0c-0.1,0-0.1,0-0.2,0s-0.1,0-0.2,0.1c-0.1,0-0.1,0-0.1,0s-0.2,0-0.2,0
	c-0.1,0-0.2,0-0.3,0.1c-0.1,0-0.1-0.1-0.1-0.1c0,0-0.1,0-0.1,0c-0.1,0-0.2,0-0.3,0c-0.1,0-0.2,0-0.3,0c0,0-0.2,0-0.3,0
	c-0.1,0-0.1,0-0.1,0.1c0,0-0.1,0-0.1,0.1s0,0.3,0,0.4c0,0.1,0.1,0.1,0.1,0.2s0.1,0.2,0.1,0.2c0,0.1,0.3,0.2,0.5,0.2
	c0.2,0,0.2,0,0.5,0c0.2,0,0.2-0.1,0.3-0.1c0.1,0,0.1-0.1,0.2-0.1c0,0,0.1-0.1,0.1-0.1c0.1,0,0.1-0.1,0.2-0.1c0.1,0,0.1,0,0.2,0
	c0.1,0,0.1-0.1,0.1,0c0.1,0,0.1,0,0.1,0c0.1,0,0.1,0,0.1,0c0.1,0,0.3,0,0.3,0c0.1,0,0.1,0.1,0.2,0.1c0.1,0,0.1,0.1,0.2,0.1
	c0,0,0.1,0,0.1,0c0-0.1,0.1-0.1,0.1-0.1c0,0,0.1,0,0.1-0.1c0,0,0-0.1,0-0.1c0-0.1,0-0.1,0-0.2C21.7,28.9,21.6,28.8,21.5,28.8z
	 M22.6,27.7c-0.1,0-0.2,0-0.2,0.1c-0.1,0,0,0.1,0,0.1c0,0.2,0,0.3-0.2,0.3C22,28.1,22,28,21.9,28c-0.1-0.1-0.1-0.1-0.2-0.1
	c-0.1,0-0.2,0.1-0.2,0.2c-0.1,0.1-0.1,0.1,0,0.2c0,0.1,0.1,0.2,0.2,0.2c0.1,0,0.1,0,0.2,0c0.1,0,0.2-0.1,0.2-0.1
	c0.1,0,0.1-0.1,0.1-0.2c0,0,0.1,0,0.1,0c0.1,0,0.1,0.1,0.2,0.1c0,0,0.1,0,0.1-0.1c0.1,0,0.2-0.1,0.2-0.1c0.1,0,0.1,0,0.1-0.1
	c0-0.1,0-0.1,0-0.2C22.9,27.8,22.7,27.7,22.6,27.7z M27.7,28.8c0,0,0-0.1,0-0.2s-0.1-0.1-0.1-0.1c-0.1,0-0.1-0.1-0.2-0.1
	c-0.1,0-0.2,0-0.3,0.1c-0.1,0-0.1,0-0.2-0.1s-0.1,0-0.1,0c0,0.1,0,0.1,0,0.2c0,0,0,0.1,0,0.1c0,0-0.1,0-0.1,0c0,0,0-0.1,0-0.2
	c0,0,0-0.1,0-0.1c0-0.1-0.1-0.1-0.1-0.2c0-0.1-0.1-0.3-0.1-0.4c0-0.1,0-0.1-0.1-0.1s-0.1,0-0.1,0.1c0,0.1-0.1,0.2-0.2,0.2
	s-0.1,0-0.1,0.1c0,0,0,0.1,0,0.1c0,0.1,0,0.1-0.1,0.1c0,0-0.1,0.3-0.1,0.5c-0.1,0.2-0.2,0.2-0.2,0.2c-0.1,0-0.3,0-0.4,0.1
	c-0.1,0-0.2,0.1-0.3,0.1c-0.1,0-0.1,0.1-0.1,0.1c0,0-0.1,0-0.1,0c0,0-0.1,0.1-0.1,0.1c-0.1,0-0.1,0.1-0.2,0.2
	c-0.1,0.1-0.1,0.1-0.2,0.1c0,0,0-0.1,0-0.2c0-0.1,0-0.2,0-0.3c0-0.1,0-0.2-0.1-0.3c0-0.1-0.1-0.3-0.1-0.4c0-0.1,0-0.3,0-0.4
	c0-0.1-0.1-0.1-0.1,0c0,0.1,0,0.1-0.1,0.2c0,0.1,0,0.1,0,0.2c0,0.1,0,0.2-0.1,0.3s0,0.2-0.1,0.4s-0.1,0.4-0.1,0.5
	c0,0.1,0,0.2-0.1,0.3c0,0.1-0.1,0.3-0.1,0.4c0,0.1,0,0.4,0,0.5s0,0.3,0,0.3c0,0.1,0,0.2,0,0.2c0.1,0,0,0.1,0,0.2
	c0,0.1,0,0.1,0.1,0.1c0,0,0,0.1,0.1,0.1c0,0,0,0.1,0.1,0.2c0,0,0.1,0,0.1,0.1c0,0,0.1,0.1,0.1,0.2c0,0,0.1,0,0.2,0c0.1,0,0,0,0-0.1
	c0,0,0-0.1,0-0.1c0,0,0,0,0.1-0.1c0-0.1,0-0.1,0-0.2s0-0.1,0-0.2c0-0.1-0.1-0.1-0.1-0.2c0-0.1,0-0.2,0-0.3c0-0.1,0-0.4,0-0.5
	c0-0.1,0-0.3,0.1-0.4c0-0.1,0-0.1,0-0.2c0,0,0-0.1,0-0.1c0-0.1,0-0.1,0.1-0.1c0,0,0.2,0,0.2,0c0,0,0.1,0,0.1,0c0,0,0.1,0,0.2,0
	c0.1,0,0.2,0,0.3,0c0,0,0.1,0,0.2,0c0.1,0,0.1,0,0.2,0c0.1,0,0.2,0,0.2,0c0,0,0.1,0,0.2,0c0,0,0.1,0.1,0.1,0.2c0,0.1,0,0.1-0.1,0.2
	c0,0,0,0.1,0,0.1c0,0.1,0,0.1,0,0.2c0,0.1,0,0.2,0,0.4c0,0.1,0,0.2-0.1,0.2c-0.1,0-0.2,0-0.2,0.1c-0.1,0-0.1,0.1-0.2,0.1
	c-0.1,0-0.1,0-0.2,0.1c0,0.1,0,0.1-0.1,0.2c0,0-0.1,0.1-0.1,0.2c0,0.1,0,0.1,0,0.2c0,0,0,0.1,0.1,0.1c0,0.1,0,0.1,0,0.2
	c0,0,0.1,0.1,0.1,0.1c0,0,0.1,0.2,0.1,0.2c0.1,0,0,0.1,0.1,0.2c0.1,0.1,0.2,0.1,0.3,0.1c0.1,0,0.2,0.1,0.2,0.1
	c0,0.1,0.1,0.1,0.2,0.1c0.1,0,0.2-0.1,0.2-0.1s0.1,0,0.2,0s0.1-0.1,0.1-0.1c0,0,0.1-0.2,0.1-0.2c0-0.1,0.1-0.2,0.1-0.3
	c0-0.1,0-0.1,0.1-0.2c0,0,0.1,0,0.1,0c0,0,0,0.1,0.1,0.1c0,0,0.2,0.1,0.2,0.1c0.1,0,0.1,0,0.2-0.1c0,0,0.2-0.1,0.2-0.2
	c0-0.1,0.1-0.2,0.1-0.2c0-0.1-0.1-0.1-0.1-0.2c0-0.1-0.1-0.1-0.1-0.1c-0.1,0-0.2-0.1-0.2-0.1c-0.1,0-0.1-0.1-0.2-0.1s-0.1,0-0.2,0
	c-0.1-0.1-0.1-0.2,0-0.3c0-0.1,0-0.2,0-0.2c0-0.1,0-0.1,0-0.2c0-0.1,0-0.1,0-0.2c0-0.1-0.1-0.2,0-0.3c0-0.1,0.1-0.1,0.2-0.1
	c0.1,0,0.2-0.1,0.3-0.1s0.1,0,0.1,0c0,0,0.1-0.1,0.1-0.1c0,0,0.2-0.1,0.2-0.1c0.1,0,0.1-0.1,0.1-0.1c0,0,0-0.1,0.1-0.1
	c0.1,0,0.1-0.1,0.1-0.1c0,0,0-0.1,0-0.1C27.7,28.8,27.7,28.8,27.7,28.8z M25.3,31.7c-0.1,0.1-0.2,0-0.2-0.1c0-0.1,0.1-0.2,0.1-0.2
	c0.1-0.1,0.2,0,0.2,0.1C25.4,31.6,25.4,31.6,25.3,31.7z M32.9,30.7c0-0.1-0.1-0.2,0-0.3c0-0.1,0-0.2,0-0.2c0-0.1-0.1-0.1-0.1-0.2
	c0-0.1,0-0.2-0.1-0.2c-0.1,0-0.1,0-0.1,0.1c0,0.1,0,0.2,0,0.3c0,0.1,0,0.1-0.1,0.1c0,0.1,0,0.1-0.1,0.2c-0.1,0.1-0.2,0.2-0.3,0.5
	c-0.1,0.2-0.3,0.3-0.4,0.3c-0.1,0-0.2,0.1-0.3,0.1c-0.1,0-0.2-0.1-0.2-0.2c0-0.1,0-0.1-0.1-0.2c-0.1-0.1-0.1-0.1-0.1-0.2
	c0-0.1,0-0.2-0.1-0.3c-0.1-0.1-0.2-0.2-0.3-0.3c-0.2-0.1-0.5-0.1-0.6-0.1s-0.1-0.1,0-0.2c0-0.1,0.1-0.2,0.1-0.3
	c0-0.1,0.1-0.2,0.1-0.3c0-0.1,0-0.2,0.1-0.3c0-0.1,0-0.2,0-0.2s0-0.1,0-0.2c0-0.1,0-0.1,0-0.2c0.1-0.1,0.1-0.2,0.1-0.3
	c0-0.1,0-0.3-0.1-0.4c0-0.1-0.1-0.2-0.2-0.2c0,0-0.1,0.1-0.1,0.1c0,0-0.1,0-0.2,0.1c0,0-0.1,0.2-0.2,0.3c-0.1,0.1-0.2,0.3-0.3,0.4
	c-0.1,0.1-0.1,0.2-0.2,0.3c-0.1,0.1-0.1,0.2-0.2,0.4c-0.1,0.1-0.2,0.3-0.3,0.4c-0.1,0.1-0.1,0.1-0.1,0.2c0,0.1-0.1,0.3-0.1,0.3
	c0,0.1,0,0.1-0.1,0.2c0,0.1,0,0.3,0,0.3s-0.1,0.2-0.1,0.3c0,0.1-0.1,0.2-0.1,0.3c0,0.2,0,0.2,0,0.3c0,0.1,0,0.1,0,0.2
	c0,0.1,0,0.2,0,0.3c0,0,0.1,0.1,0.2,0.2c0,0.1,0,0.2,0,0.2c0,0,0.1,0,0.2,0.1c0.1,0,0.2,0,0.2,0c0.1,0,0.2-0.1,0.4-0.1
	c0.1,0,0.1-0.1,0-0.2c0-0.1,0.1-0.2,0.1-0.3c0.1-0.1,0.1-0.1,0.1-0.2c0.1-0.1,0.1-0.2,0.2-0.2c0,0,0.1-0.1,0.1-0.1
	c0-0.1,0-0.1,0.1-0.1c0.1,0,0.1,0,0.1,0c0,0,0,0.1,0.1,0.2c0.1,0.1,0,0.2,0.1,0.3c0.1,0.1,0.2,0.4,0.3,0.4c0.1,0.1,0.2,0.2,0.3,0.3
	c0.1,0,0.2,0.2,0.3,0.2s0.2,0,0.2,0c0.1,0,0.1,0.1,0.2,0c0.1,0,0.3-0.1,0.3-0.2c0.1,0,0.3-0.2,0.3-0.3c0.1-0.1,0.1-0.2,0.2-0.2
	c0.1,0,0.1-0.1,0.1-0.2s0.1-0.1,0.1-0.2c0-0.1,0-0.2,0-0.3c0-0.1,0.1-0.2,0.1-0.2s0-0.1,0-0.2C32.9,30.9,33,30.8,32.9,30.7
	L32.9,30.7z M39.1,29.9c-0.1-0.1-0.1-0.2-0.1-0.3c0-0.1,0-0.1-0.1-0.1c-0.1,0-0.2,0-0.3-0.1c-0.1-0.1-0.1-0.2-0.1-0.3
	c0-0.1,0-0.4,0-0.5s-0.1-0.2-0.1-0.3c-0.1-0.1-0.1-0.2-0.1-0.3c0-0.1-0.1-0.1-0.3-0.2c-0.2-0.1-0.5,0-0.7,0.1
	c-0.2,0.1-0.2,0.2-0.3,0.5c-0.1,0.3,0,0.4,0,0.5s0,0.3,0.1,0.3c0.1,0.1,0.3,0.1,0.3,0.1c0,0,0.1,0,0.1,0.1c0,0,0.1,0.1,0.1,0.1
	c0,0,0,0.1,0,0.2c0,0.1,0,0.3-0.1,0.3c-0.1,0-0.1,0-0.1-0.1c0-0.1-0.1-0.1-0.1-0.2c-0.1-0.1-0.1-0.1-0.1-0.2s0-0.1-0.1-0.1
	c0,0-0.1,0-0.1,0c-0.1,0-0.1,0-0.1,0.1c0,0.1-0.1,0.1-0.1,0.2c0,0-0.1,0-0.1-0.1c0-0.1,0-0.2,0-0.2c0-0.1,0-0.1-0.1-0.3
	c-0.1-0.2-0.3-0.2-0.4-0.3c-0.1-0.1-0.2-0.1-0.3-0.1c-0.1,0-0.2,0-0.4,0c-0.1,0-0.3-0.1-0.4-0.1c-0.1,0-0.2,0-0.2-0.1
	c0-0.1,0-0.3,0-0.4c0-0.1,0-0.1-0.1,0c-0.1,0.1-0.1,0.2-0.2,0.2c0,0-0.1,0-0.1,0.1c-0.1,0.1-0.1,0.2-0.2,0.2
	c-0.1,0.1-0.2,0.2-0.3,0.3c-0.1,0-0.1,0.1-0.1,0.2c0,0-0.1,0.1-0.1,0.1s0,0.1,0,0.1c0,0,0,0.1,0,0.1c0,0.1,0,0.1,0,0.2
	c0,0.1,0,0,0,0.1c0,0.1,0,0.3,0,0.4c0,0.1,0.1,0.1,0.2,0.2c0.1,0,0.1,0,0.1,0s0.1,0,0.1-0.1c0.1-0.1,0.2-0.1,0.3-0.1
	c0.1,0,0.1,0.1,0.1,0.2c0,0.1,0,0.3,0,0.4c0,0.1,0.1,0.2,0.2,0.3c0.1,0,0,0.1,0,0.2c0,0.1-0.1,0.1-0.2,0.2c-0.1,0.1-0.2,0.2-0.3,0.3
	c-0.1,0.1-0.2,0.1-0.2,0.1s-0.1,0-0.1,0.1c0,0.1-0.1,0.1-0.1,0.1c-0.1,0.1-0.1,0.1-0.1,0.2c0,0.1,0,0.1,0.1,0.1s0.1,0,0.1,0.1
	c0,0,0,0.1,0,0.1c0,0,0.1,0,0.1,0c0.1,0,0.1,0,0.2,0.1c0.1,0,0.2,0,0.2,0c0.1,0,0.1,0,0.1,0c0,0,0.1,0.1,0.2,0.1
	c0.1,0,0.2-0.1,0.2-0.1c0-0.1,0.1-0.2,0.2-0.2c0-0.1,0.2-0.4,0.2-0.5c0-0.1,0.1-0.1,0.2-0.1c0.1,0,0.2,0.1,0.3,0.2
	c0.1,0.1,0.4,0.3,0.4,0.4c0.1,0.1,0.2,0.1,0.3,0.1c0,0,0.1,0,0.1,0.1c0.1,0.1,0.2,0.1,0.3,0.1c0.1,0,0.3,0,0.4,0c0.1,0,0,0,0.1,0.1
	c0.1,0,0.1,0,0.2,0s0.2-0.1,0.3,0c0.1,0.1,0.1,0,0.2,0c0.1,0,0.2,0,0.2-0.1c0,0,0.1,0,0.2-0.1c0.1-0.1,0.3-0.2,0.3-0.2
	c0.1,0,0-0.1,0-0.2c0-0.1,0-0.1,0-0.1s0.2-0.1,0.2-0.1c0,0,0-0.1,0-0.2c-0.1-0.1-0.2-0.2-0.3-0.2c-0.1-0.1-0.2,0-0.4,0
	c-0.1,0-0.3,0-0.5,0s-0.2,0-0.3,0c-0.1,0-0.1,0-0.1,0c-0.1,0-0.2,0-0.2,0c-0.1,0-0.1,0-0.2,0c-0.1,0-0.3,0-0.3,0c0,0,0-0.1,0-0.1
	c0-0.1,0-0.1,0.1-0.1c0.1,0,0.2-0.1,0.2-0.1c0,0,0.1-0.1,0.1-0.2c0-0.1,0.1-0.5,0.1-0.6c0-0.1,0.1-0.1,0.1-0.1c0,0,0,0,0,0
	c0.1,0,0,0.1,0,0.2s0,0.1,0.1,0.2c0.1,0.1,0.1,0.1,0.1,0.2c0,0.1,0.1,0.2,0.1,0.3c0,0,0.1,0.1,0.1,0.1c0,0.1,0.1,0.1,0.1,0.1
	c0,0,0.1,0.1,0.1,0c0.1,0,0.1,0,0.2,0c0.1,0,0.1,0,0.2,0c0.1,0,0.1,0,0.2,0c0.1,0,0.2,0,0.3,0c0,0,0.1-0.1,0.1-0.2
	c0-0.1,0-0.1,0.1-0.2c0,0,0.1-0.1,0.1-0.1c0,0,0-0.1,0-0.2c0-0.1,0-0.3,0-0.4C39.2,30.3,39.1,30,39.1,29.9z M35.7,29.6
	c0,0,0,0.1-0.1,0.1c0,0-0.1,0.1-0.2,0.2c0,0.1,0,0.1-0.1,0.1c0,0.1-0.1,0.1-0.1,0.2c0,0-0.1,0-0.1,0c0,0-0.2-0.1-0.2-0.1
	c0,0-0.1,0-0.1,0c-0.1,0-0.2,0-0.1-0.1s0.1-0.2,0.2-0.3c0.1-0.1,0.2-0.2,0.2-0.2c0.1,0,0.1-0.1,0.2-0.1c0,0,0.1,0,0.1,0
	c0.1,0,0.2,0,0.3,0c0,0,0.1,0,0.1,0c0,0,0.1,0,0.1,0.1C35.8,29.5,35.7,29.6,35.7,29.6z M36.6,29.9C36.6,29.8,36.7,29.9,36.6,29.9
	C36.7,30,36.6,30,36.6,29.9C36.5,29.9,36.6,29.9,36.6,29.9z M36.7,31.5c-0.1,0-0.1-0.1-0.2-0.1c-0.1,0-0.1,0-0.1,0
	c-0.1-0.1-0.2-0.2-0.3-0.2c-0.1-0.1-0.2-0.1-0.2-0.2c0-0.1,0.1-0.3,0.2-0.5c0.1-0.1,0.2-0.3,0.2-0.4c0-0.1,0.1-0.1,0.1-0.1
	c0.1,0,0,0.1,0,0.2s0,0.2,0,0.2c0,0.1,0,0.2,0,0.3c0,0.1,0,0.2,0,0.3c0.1,0,0.1,0.1,0.1,0.1c0,0,0.1,0,0.1,0.1c0,0,0,0.1,0.1,0.1
	S36.8,31.4,36.7,31.5C36.8,31.5,36.8,31.6,36.7,31.5z M39.8,32.3c0-0.3,0.2-0.5,0.5-0.5c0.3,0,0.5,0.2,0.5,0.5
	c0,0.3-0.2,0.5-0.4,0.5c0,0,0,0,0,0C40,32.8,39.8,32.6,39.8,32.3C39.8,32.3,39.8,32.3,39.8,32.3z M40.2,32.9c0.3,0,0.6-0.3,0.6-0.6
	s-0.3-0.6-0.6-0.6c-0.3,0-0.6,0.2-0.6,0.6c0,0,0,0,0,0C39.6,32.6,39.9,32.9,40.2,32.9z M40.1,32.3h0.1l0.2,0.3h0.1l-0.2-0.3
	c0.1,0,0.2-0.1,0.2-0.2c0-0.1-0.1-0.2-0.2-0.2H40v0.7h0.1L40.1,32.3L40.1,32.3z M40.1,32.3v-0.2h0.1c0.1,0,0.1,0,0.1,0.1
	c0,0.1-0.1,0.1-0.2,0.1C40.2,32.3,40.1,32.3,40.1,32.3z M9.9,36.6c0.2,0.1,0.3,0.3,0.4,0.6c0.1,0.3,0.2,0.7,0.2,1.3
	c0,0.5-0.1,0.9-0.2,1.2c-0.1,0.3-0.3,0.5-0.5,0.7c-0.2,0.1-0.4,0.2-0.6,0.2c-0.3,0-0.6-0.1-0.8-0.4c-0.3-0.4-0.4-0.9-0.4-1.7
	c0-0.6,0.1-1.1,0.3-1.4c0.2-0.4,0.5-0.6,1-0.6C9.6,36.4,9.8,36.5,9.9,36.6z M7.6,36.8c-0.5,0.4-0.7,1-0.7,1.6c0,0.6,0.2,1.1,0.5,1.5
	c0.4,0.5,1.1,0.8,1.9,0.8c0.8,0,1.5-0.3,1.9-0.8c0.3-0.4,0.5-0.9,0.5-1.5c0-0.7-0.2-1.2-0.7-1.6c-0.5-0.4-1.1-0.6-1.8-0.6
	C8.6,36.2,8,36.4,7.6,36.8z M15.9,36.6c0.2,0.1,0.3,0.3,0.4,0.6c0.1,0.3,0.2,0.7,0.2,1.3c0,0.5-0.1,0.9-0.2,1.2
	c-0.1,0.3-0.3,0.5-0.5,0.7c-0.2,0.1-0.4,0.2-0.6,0.2c-0.4,0-0.6-0.1-0.8-0.4c-0.3-0.4-0.4-0.9-0.4-1.7c0-0.6,0.1-1.1,0.3-1.4
	c0.2-0.4,0.5-0.6,1-0.6C15.5,36.4,15.7,36.5,15.9,36.6z M13.5,36.8c-0.5,0.4-0.7,1-0.7,1.6c0,0.6,0.2,1.1,0.5,1.5
	c0.5,0.5,1.1,0.8,1.9,0.8c0.8,0,1.5-0.3,1.9-0.8c0.3-0.4,0.5-0.9,0.5-1.5c0-0.7-0.2-1.2-0.7-1.6c-0.5-0.4-1.1-0.6-1.8-0.6
	C14.6,36.2,14,36.4,13.5,36.8z M22.7,36.3v1.2h-0.1c-0.1-0.3-0.2-0.5-0.2-0.6c-0.1-0.1-0.2-0.2-0.4-0.3c-0.1,0-0.2-0.1-0.5-0.1h-0.3
	v3.4c0,0.2,0,0.4,0,0.4c0,0.1,0.1,0.1,0.2,0.1c0.1,0,0.2,0.1,0.3,0.1h0.2v0.1h-2.4v-0.1h0.2c0.1,0,0.2,0,0.3-0.1
	c0.1,0,0.1-0.1,0.1-0.2c0-0.1,0-0.2,0-0.4v-3.4h-0.3c-0.3,0-0.5,0.1-0.7,0.2c-0.2,0.2-0.3,0.4-0.4,0.7h-0.1v-1.2
	C18.6,36.3,22.7,36.3,22.7,36.3z M26.6,36.6c0.2,0.1,0.3,0.3,0.4,0.6c0.1,0.3,0.2,0.7,0.2,1.3c0,0.5-0.1,0.9-0.2,1.2
	c-0.1,0.3-0.3,0.5-0.5,0.7c-0.2,0.1-0.4,0.2-0.6,0.2c-0.3,0-0.6-0.1-0.8-0.4c-0.3-0.4-0.4-0.9-0.4-1.7c0-0.6,0.1-1.1,0.3-1.4
	c0.2-0.4,0.5-0.6,1-0.6C26.2,36.4,26.4,36.5,26.6,36.6z M24.2,36.8c-0.5,0.4-0.7,1-0.7,1.6c0,0.6,0.2,1.1,0.5,1.5
	c0.5,0.5,1.1,0.8,1.9,0.8c0.8,0,1.5-0.3,1.9-0.8c0.3-0.4,0.5-0.9,0.5-1.5c0-0.7-0.2-1.2-0.7-1.6c-0.5-0.4-1.1-0.6-1.8-0.6
	C25.3,36.2,24.7,36.4,24.2,36.8z M33.6,36.3v0.1c-0.1,0-0.2,0.1-0.3,0.1c-0.1,0.1-0.3,0.3-0.5,0.7l-1,1.6v1.1c0,0.2,0,0.4,0,0.4
	c0,0.1,0.1,0.1,0.1,0.1c0.1,0,0.2,0.1,0.3,0.1h0.3v0.1h-2.6v-0.1h0.2c0.1,0,0.2,0,0.3-0.1c0.1,0,0.1-0.1,0.1-0.2c0-0.1,0-0.2,0-0.4
	V39l-1.1-1.9c-0.2-0.4-0.4-0.6-0.5-0.7c-0.1-0.1-0.2-0.1-0.4-0.1v-0.1H31v0.1h-0.1c-0.1,0-0.2,0-0.3,0.1c-0.1,0-0.1,0.1-0.1,0.1
	c0,0.1,0.1,0.3,0.3,0.6l0.8,1.4l0.8-1.3c0.2-0.3,0.3-0.5,0.3-0.7c0-0.1,0-0.1-0.1-0.1c-0.1-0.1-0.2-0.1-0.4-0.1v-0.1L33.6,36.3
	L33.6,36.3z M38.1,40.4c-0.1-0.1-0.3-0.3-0.4-0.7l-1.6-3.4h-0.6L34,39.6c-0.2,0.4-0.3,0.6-0.4,0.7c-0.1,0.1-0.3,0.2-0.4,0.2v0.1h1.7
	v-0.1c-0.3,0-0.4,0-0.5-0.1c-0.1-0.1-0.2-0.2-0.2-0.3c0-0.1,0-0.2,0.1-0.4l0.2-0.5h1.8l0.3,0.6c0.1,0.2,0.1,0.2,0.1,0.3
	c0,0,0,0.1,0,0.1c0,0.1,0,0.1-0.1,0.2c-0.1,0-0.2,0.1-0.4,0.1H36v0.1h2.4v-0.1C38.3,40.5,38.2,40.5,38.1,40.4z M34.5,39l0.8-1.6
	l0.8,1.6H34.5z"/>
<path class="st2" d="M6.7-4.8C6.7-4.8,6.7-4.8,6.7-4.8C6.6-4.8,6.6-4.8,6.7-4.8C6.7-4.8,6.7-4.8,6.7-4.8z"/>
<ellipse transform="matrix(0.9998 -2.000014e-02 2.000014e-02 0.9998 0.1028 0.1447)" class="st2" cx="7.3" cy="-5.1" rx="0" ry="0"/>
<ellipse transform="matrix(0.5939 -0.8046 0.8046 0.5939 6.0845 2.7377)" class="st2" cx="5.8" cy="-4.7" rx="0" ry="0"/>
<ellipse transform="matrix(0.5702 -0.8215 0.8215 0.5702 6.2136 2.8464)" class="st2" cx="5.8" cy="-4.5" rx="0" ry="0"/>
<ellipse class="st2" cx="21.7" cy="-5.5" rx="0" ry="0"/>
<path class="st2" d="M33.9-5.5C33.9-5.5,33.9-5.5,33.9-5.5L33.9-5.5C33.9-5.5,33.9-5.5,33.9-5.5L33.9-5.5c0.1,0,0.1,0,0.2,0l0,0"/>
</svg>
