<?xml version="1.0" encoding="utf-8"?>
<!-- Generator: Adobe Illustrator 19.2.1, SVG Export Plug-In . SVG Version: 6.00 Build 0)  -->
<svg version="1.1" id="レイヤー_1" xmlns="http://www.w3.org/2000/svg" xmlns:xlink="http://www.w3.org/1999/xlink" x="0px"
	 y="0px" viewBox="0 0 3999.9 2000" style="enable-background:new 0 0 3999.9 2000;" xml:space="preserve">
<style type="text/css">
	.st0{fill:#009E96;}
	.st1{fill:#FFFFFF;}
</style>
<g>
	<rect class="st0" width="3999.9" height="2000"/>
	<rect x="960.1" y="251" class="st1" width="572.5" height="250.9"/>
	<rect x="911.1" y="805" class="st1" width="671.4" height="261.6"/>
	<rect x="1700.3" y="251" class="st1" width="264.9" height="815.8"/>
	<rect x="2392.2" y="250.8" class="st1" width="264.9" height="501.2"/>
	<rect x="2823.5" y="250.8" class="st1" width="264.9" height="448.2"/>
	<polygon class="st1" points="2331.3,588.6 1802,403 1713.3,652.8 2242.8,838.4 	"/>
	<path class="st1" d="M3088.4,699.1l-115.8-117.9l-394.9,308.7l163.2,208.7L3022.8,879c42.4-31.8,67.2-58.3,67.2-148.5L3088.4,699.1
		z"/>
	<path class="st1" d="M914.2,1317.2h150.2l140.4,238.6h4.6c-6.2-36-13-73-13-109.5v-129.2h149.5l-0.1,430.5h-149.4l-137.7-226.1
		h-4.6c5.1,29.6,9.7,57.7,9.7,86.2v139.8H914.2V1317.2z"/>
	<polygon class="st1" points="1415.3,1317.2 1571.8,1317.2 1571.8,1747.7 1415.4,1747.7 	"/>
	<polygon class="st1" points="1614.6,1317.2 1943.4,1317.2 1943.4,1457.3 1857.2,1453.2 1857.2,1747.7 1700.8,1747.7 1700.8,1453.2 
		1614.6,1457.3 	"/>
	<path class="st1" d="M2126.5,1536c0,49.1,33.1,82.7,80.7,82.7c47.3,0,80.5-33.6,80.5-82.7c0-45.8-30.9-83.9-80.5-83.9
		C2157.4,1452.1,2126.5,1490.2,2126.5,1536 M2445.2,1533.7c0,138.2-106.8,220.9-238,220.9c-131.6,0-238.1-82.7-238.1-220.9
		c0-135.2,107.3-223.2,238.1-223.2C2337.7,1310.5,2445.2,1398.5,2445.2,1533.7"/>
	<path class="st1" d="M2653.4,1508.1h10.9c25.5,0.1,51.3-4.1,51.3-36c0-33-23.3-37.1-50.2-37.1h-12V1508.1z M2500.3,1317.2h189
		c97,0,179.2,41.2,179.2,149.6c0,65.1-25.2,92.4-83.4,111.9v3.3c8.1,6.3,17.7,13.3,26.2,25.8l93.7,139.8h-180.5l-68.5-138.1h-2.8
		v138.1h-153V1317.2z"/>
	<rect x="2933.6" y="1317.2" class="st1" width="156.4" height="430.5"/>
</g>
</svg>
