<?xml version="1.0" encoding="UTF-8" standalone="no"?>
<!-- Created with Inkscape (http://www.inkscape.org/) -->

<svg
   width="1000"
   height="101.40237"
   viewBox="0 0 264.58333 26.829379"
   version="1.1"
   id="svg22556"
   inkscape:version="1.1.1 (3bf5ae0d25, 2021-09-20)"
   sodipodi:docname="Michelin_(2017).svg"
   xmlns:inkscape="http://www.inkscape.org/namespaces/inkscape"
   xmlns:sodipodi="http://sodipodi.sourceforge.net/DTD/sodipodi-0.dtd"
   xmlns:xlink="http://www.w3.org/1999/xlink"
   xmlns="http://www.w3.org/2000/svg"
   xmlns:svg="http://www.w3.org/2000/svg"
   xmlns:rdf="http://www.w3.org/1999/02/22-rdf-syntax-ns#"
   xmlns:cc="http://creativecommons.org/ns#"
   xmlns:dc="http://purl.org/dc/elements/1.1/">
  <defs
     id="defs22550">
    <clipPath
       clipPathUnits="userSpaceOnUse"
       id="clipPath4157">
      <path
         d="M 0,792 H 612 V 0 H 0 Z"
         id="path4159"
         inkscape:connector-curvature="0" />
    </clipPath>
    <rect
       height="2267.7"
       width="8291.2998"
       y="-256.70001"
       id="SVGID_1_"
       x="0" />
    <rect
       height="2267.7"
       width="8291.2998"
       y="-256.70001"
       id="SVGID_3_"
       x="0" />
    <rect
       height="2267.7"
       width="8291.2998"
       y="-256.70001"
       id="SVGID_5_"
       x="0" />
    <rect
       height="2267.7"
       width="8291.2998"
       y="-256.70001"
       id="SVGID_7_"
       x="0" />
    <rect
       height="2267.7"
       width="8291.2998"
       y="-256.70001"
       id="rect7977"
       x="0" />
    <rect
       height="2267.7"
       width="8291.2998"
       y="-256.70001"
       id="rect7989"
       x="0" />
    <rect
       height="2267.7"
       width="8291.2998"
       y="-256.70001"
       id="rect7997"
       x="0" />
    <rect
       height="2267.7"
       width="8291.2998"
       y="-256.70001"
       id="rect8013"
       x="0" />
    <rect
       id="SVGID_1_-3"
       x="-232"
       y="-316.10001"
       width="5321.2998"
       height="3118.1001" />
    <rect
       id="SVGID_3_-9"
       x="-232"
       y="-316.10001"
       width="5321.2998"
       height="3118.1001" />
    <rect
       id="SVGID_5_-2"
       x="-232"
       y="-316.10001"
       width="5321.2998"
       height="3118.1001" />
    <rect
       id="rect9547"
       x="-232"
       y="-316.10001"
       width="5321.2998"
       height="3118.1001" />
    <rect
       id="rect9559"
       x="-232"
       y="-316.10001"
       width="5321.2998"
       height="3118.1001" />
    <rect
       id="rect9567"
       x="-232"
       y="-316.10001"
       width="5321.2998"
       height="3118.1001" />
    <defs
       id="defs9510">
      <rect
         height="3118.1001"
         width="5321.2998"
         y="-316.10001"
         x="-232"
         id="rect23189" />
    </defs>
    <clipPath
       id="SVGID_6_-8">
      <use
         id="use9512"
         overflow="visible"
         xlink:href="#SVGID_5_-2"
         style="overflow:visible"
         x="0"
         y="0"
         width="100%"
         height="100%" />
    </clipPath>
    <defs
       id="defs9498">
      <rect
         height="3118.1001"
         width="5321.2998"
         y="-316.10001"
         x="-232"
         id="rect23181" />
    </defs>
    <clipPath
       id="SVGID_4_-4">
      <use
         id="use9500"
         overflow="visible"
         xlink:href="#SVGID_3_-9"
         style="overflow:visible"
         x="0"
         y="0"
         width="100%"
         height="100%" />
    </clipPath>
    <defs
       id="defs9478">
      <rect
         height="3118.1001"
         width="5321.2998"
         y="-316.10001"
         x="-232"
         id="rect23169" />
    </defs>
    <clipPath
       id="SVGID_2_-6">
      <use
         id="use9480"
         overflow="visible"
         xlink:href="#SVGID_1_-3"
         style="overflow:visible"
         x="0"
         y="0"
         width="100%"
         height="100%" />
    </clipPath>
  </defs>
  <sodipodi:namedview
     id="base"
     pagecolor="#ffffff"
     bordercolor="#666666"
     borderopacity="1.0"
     inkscape:pageopacity="0.0"
     inkscape:pageshadow="2"
     inkscape:zoom="0.5"
     inkscape:cx="473"
     inkscape:cy="-15"
     inkscape:document-units="px"
     inkscape:current-layer="layer1"
     showgrid="false"
     units="px"
     inkscape:window-width="1366"
     inkscape:window-height="705"
     inkscape:window-x="-8"
     inkscape:window-y="-8"
     inkscape:window-maximized="1"
     inkscape:pagecheckerboard="0" />
  <metadata
     id="metadata22553">
    <rdf:RDF>
      <cc:Work
         rdf:about="">
        <dc:format>image/svg+xml</dc:format>
        <dc:type
           rdf:resource="http://purl.org/dc/dcmitype/StillImage" />
      </cc:Work>
    </rdf:RDF>
  </metadata>
  <g
     inkscape:label="Layer 1"
     inkscape:groupmode="layer"
     id="layer1"
     transform="translate(1.56e-7,-270.7185)">
    <g
       id="g1089">
      <path
         id="path9483"
         d="m 1793.9,2085.3 c -9.1,1.6 -80.4,15.3 -155.4,17.3 -133.7,3.7 -250.2,-49.8 -251.3,-146.3 -1.8,-167.2 167.2,-258.9 292,-284.4 55.9,-11.4 163.6,-24 270.8,2.4 l -62.3,149.4 c -17.9,-40.7 -63.9,-41.5 -82.7,-41.9 -45.5,-1 -83.2,11 -111,23.8 -63,28.9 -117.9,121.5 -28.7,157.2 49.4,19.8 112.5,4 178.1,-6.4 z"
         clip-path="url(#SVGID_2_-6)"
         inkscape:connector-curvature="0"
         style="fill:#27509b"
         transform="matrix(0.06041267,0,0,0.06041267,-11.671728,170.51332)" />
      <path
         id="path9485"
         d="m 4400.5,1668.1 -107.4,291.8 c 1.5,-29.4 7.3,-145.4 10.9,-212.3 1.5,-27.5 -4.5,-48.6 -17.6,-62.5 -16.1,-16.8 -37.2,-17 -37.4,-17 h -239.3 l -156.4,425.2 H 4027 l 111,-301.1 -13.1,301.1 h 291.3 l 156.6,-425.2 z"
         clip-path="url(#SVGID_2_-6)"
         inkscape:connector-curvature="0"
         style="fill:#27509b"
         transform="matrix(0.06041267,0,0,0.06041267,-11.671728,170.51332)" />
      <polygon
         style="fill:#27509b"
         points="3303,1952.1 3407.4,1668.1 3207.1,1668.1 3050.5,2093.3 3452.8,2093.3 3504.8,1952.1 "
         id="polygon9489"
         transform="matrix(0.06041267,0,0,0.06041267,-11.671728,170.51332)" />
      <polygon
         style="fill:#27509b"
         points="2763.7,1931.4 2987.5,1931.4 3025.8,1826.7 2802.1,1826.7 2819.2,1779.5 3054.1,1779.5 3095.4,1668.1 2666,1668.1 2509.5,2093.3 2943.8,2093.3 2985.9,1978.6 2746.2,1978.6 "
         id="polygon9491"
         transform="matrix(0.06041267,0,0,0.06041267,-11.671728,170.51332)" />
      <polygon
         style="fill:#27509b"
         points="1897.5,2093.3 2093.2,2093.3 2146.6,1949.3 2250.5,1949.3 2197.1,2093.3 2393.2,2093.3 2549.9,1668.1 2354.1,1668.1 2297.3,1821.3 2193.7,1821.3 2250,1668.1 2053.5,1668.1 "
         id="polygon9493"
         transform="matrix(0.06041267,0,0,0.06041267,-11.671728,170.51332)" />
      <polygon
         style="fill:#27509b"
         points="1031.5,2093.3 1237.6,2093.3 1394,1668.1 1188.2,1668.1 "
         id="polygon9495"
         transform="matrix(0.06041267,0,0,0.06041267,-11.671728,170.51332)" />
      <path
         id="path9503"
         d="M 915.5,2093.3 1072,1668.1 H 781.1 l -150.4,228.4 c 0,0 9.6,-119.5 12,-148.3 1.8,-21.9 -0.9,-80.1 -54.3,-80.1 H 349.8 l -156.6,425.2 h 186.7 l 113.4,-307.5 -23.9,307.5 h 165.9 l 203.4,-302.2 -111.1,302.2 z"
         clip-path="url(#SVGID_4_-4)"
         inkscape:connector-curvature="0"
         style="fill:#27509b"
         transform="matrix(0.06041267,0,0,0.06041267,-11.671728,170.51332)" />
      <polygon
         style="fill:#27509b"
         points="3530.9,2093.3 3737,2093.3 3893.5,1668.1 3687.6,1668.1 "
         id="polygon9507"
         transform="matrix(0.06041267,0,0,0.06041267,-11.671728,170.51332)" />
    </g>
  </g>
</svg>
