<?xml version="1.0" encoding="UTF-8" standalone="no"?>
<svg
   xmlns:dc="http://purl.org/dc/elements/1.1/"
   xmlns:cc="http://creativecommons.org/ns#"
   xmlns:rdf="http://www.w3.org/1999/02/22-rdf-syntax-ns#"
   xmlns:svg="http://www.w3.org/2000/svg"
   xmlns="http://www.w3.org/2000/svg"
   xmlns:sodipodi="http://sodipodi.sourceforge.net/DTD/sodipodi-0.dtd"
   xmlns:inkscape="http://www.inkscape.org/namespaces/inkscape"
   width="606.79999"
   height="606.80011"
   viewBox="-50 -30 60.679979 60.68001"
   id="svg2"
   version="1.1"
   inkscape:version="0.91 r13725"
   sodipodi:docname="AJAX.svg">
  <metadata
     id="metadata14">
    <rdf:RDF>
      <cc:Work
         rdf:about="">
        <dc:format>image/svg+xml</dc:format>
        <dc:type
           rdf:resource="http://purl.org/dc/dcmitype/StillImage" />
        <dc:title></dc:title>
      </cc:Work>
    </rdf:RDF>
  </metadata>
  <defs
     id="defs12" />
  <sodipodi:namedview
     pagecolor="#ffffff"
     bordercolor="#666666"
     borderopacity="1"
     objecttolerance="10"
     gridtolerance="10"
     guidetolerance="10"
     inkscape:pageopacity="0"
     inkscape:pageshadow="2"
     inkscape:window-width="1920"
     inkscape:window-height="1057"
     id="namedview10"
     showgrid="false"
     fit-margin-top="0.4"
     fit-margin-left="0.4"
     fit-margin-right="0.4"
     fit-margin-bottom="0.4"
     inkscape:zoom="1"
     inkscape:cx="447.23906"
     inkscape:cy="324.61895"
     inkscape:window-x="-8"
     inkscape:window-y="-8"
     inkscape:window-maximized="1"
     inkscape:current-layer="g3013"
     showguides="true"
     inkscape:guide-bbox="true" />
  <g
     id="g3013"
     transform="matrix(0.1,0,0,0.1,-274.89497,-31.325155)">
    <text
       style="font-size:58.74256516px;stroke:none"
       y="912.11719"
       x="1236.0118"
       transform="scale(1.0529957,0.94967149)"
       id="text3208">
      <tspan
         style="font-variant:normal;font-weight:normal;font-size:111.79449463px;font-family:AvantGardeBkBT;-inkscape-font-specification:AvantGardeBkBT;writing-mode:lr-tb;fill:#000000;fill-opacity:1;fill-rule:nonzero;stroke:none"
         sodipodi:role="line"
         id="tspan3210"
         x="1236.0118"
         y="912.11719" />
    </text>
    <path
       style="color:#000000;font-style:normal;font-variant:normal;font-weight:normal;font-stretch:normal;font-size:medium;line-height:normal;font-family:Sans;-inkscape-font-specification:Sans;text-indent:0;text-align:start;text-decoration:none;text-decoration-line:none;letter-spacing:normal;word-spacing:normal;text-transform:none;direction:ltr;block-progression:tb;writing-mode:lr-tb;baseline-shift:baseline;text-anchor:start;display:inline;overflow:visible;visibility:visible;fill:#000000;fill-opacity:1;fill-rule:nonzero;stroke:none;stroke-width:3;stroke-opacity:1;marker:none;enable-background:accumulate"
       d="m 2249.3496,573.65138 c 0,25.196 20.8058,46.0003 46.0002,46.0003 l 513.9996,0 c 25.1944,0 46.0002,-20.8043 46.0002,-46.0003 l 0,-513.999498 c 0,-25.19601 -20.8058,-46.00033 -46.0002,-46.00033 l -513.9996,0 c -25.1944,0 -46.0002,20.80433 -46.0002,46.00033 z"
       id="path3125-9"
       inkscape:connector-curvature="0"
       sodipodi:nodetypes="sssssssss" />
    <path
       style="color:#000000;font-style:normal;font-variant:normal;font-weight:normal;font-stretch:normal;font-size:medium;line-height:normal;font-family:Sans;-inkscape-font-specification:Sans;text-indent:0;text-align:start;text-decoration:none;text-decoration-line:none;letter-spacing:normal;word-spacing:normal;text-transform:none;direction:ltr;block-progression:tb;writing-mode:lr-tb;baseline-shift:baseline;text-anchor:start;display:inline;overflow:visible;visibility:visible;fill:#ffffff;fill-opacity:1;fill-rule:nonzero;stroke:none;stroke-width:3;stroke-opacity:1;marker:none;enable-background:accumulate"
       d="m 2252.3496,59.651682 c 0,-23.5526 19.4487,-43 43,-43 l 514,0 c 23.5513,0 43,19.4474 43,43 l 0,513.999998 c 0,23.5526 -19.4487,43 -43,43 l -514,0 c -23.5513,0 -43,-19.4474 -43,-43 z"
       id="path3125"
       inkscape:connector-curvature="0"
       sodipodi:nodetypes="sssssssss" />
    <path
       style="fill:#008cff;fill-opacity:1;fill-rule:nonzero;stroke:none"
       d="m 2809.3495,592.85169 c 10.6044,0 19.2,-8.5955 19.2,-19.2 l 0,-514 c 0,-10.6045 -8.5956,-19.2 -19.2,-19.2 l -514,0 c -10.6044,0 -19.2,8.5955 -19.2,19.2 l 0,514 c 0,10.6045 8.5956,19.2 19.2,19.2 z"
       id="path3176-1"
       inkscape:connector-curvature="0"
       sodipodi:nodetypes="sssssssss" />
    <path
       inkscape:connector-curvature="0"
       style="fill:#ffffff;fill-opacity:1;fill-rule:evenodd;stroke:none"
       id="path3121"
       d="m 2289.3496,526.65171 526,0 -263.0001,-455.286009 z"
       sodipodi:nodetypes="cccc" />
    <path
       inkscape:connector-curvature="0"
       style="fill:#000000;fill-rule:nonzero;stroke:none"
       d="m 2362.2986,512.2517 0,-9.6979 -24.254,0 0,9.6979 z"
       id="path3971"
       sodipodi:nodetypes="ccccc" />
    <path
       sodipodi:nodetypes="ccccc"
       id="path4245"
       d="m 2399.0582,512.2517 0,-9.6979 -24.254,0 0,9.6979 z"
       style="fill:#000000;fill-rule:nonzero;stroke:none"
       inkscape:connector-curvature="0" />
    <path
       sodipodi:nodetypes="ccccc"
       id="path4247"
       d="m 2435.8179,512.2517 0,-9.6979 -24.2541,0 0,9.6979 z"
       style="fill:#000000;fill-rule:nonzero;stroke:none"
       inkscape:connector-curvature="0" />
    <path
       inkscape:connector-curvature="0"
       style="fill:#000000;fill-rule:nonzero;stroke:none"
       d="m 2472.5775,512.2517 0,-9.6979 -24.254,0 0,9.6979 z"
       id="path4249"
       sodipodi:nodetypes="ccccc" />
    <path
       sodipodi:nodetypes="ccccc"
       id="path4251"
       d="m 2509.3371,512.2517 0,-9.6979 -24.254,0 0,9.6979 z"
       style="fill:#000000;fill-rule:nonzero;stroke:none"
       inkscape:connector-curvature="0" />
    <path
       inkscape:connector-curvature="0"
       style="fill:#000000;fill-rule:nonzero;stroke:none"
       d="m 2546.0968,512.2517 0,-9.6979 -24.254,0 0,9.6979 z"
       id="path4253"
       sodipodi:nodetypes="ccccc" />
    <path
       inkscape:connector-curvature="0"
       style="fill:#000000;fill-rule:nonzero;stroke:none"
       d="m 2582.8564,512.2517 0,-9.6979 -24.254,0 0,9.6979 z"
       id="path4255"
       sodipodi:nodetypes="ccccc" />
    <path
       sodipodi:nodetypes="ccccc"
       id="path4257"
       d="m 2619.6161,512.2517 0,-9.6979 -24.254,0 0,9.6979 z"
       style="fill:#000000;fill-rule:nonzero;stroke:none"
       inkscape:connector-curvature="0" />
    <path
       inkscape:connector-curvature="0"
       style="fill:#000000;fill-rule:nonzero;stroke:none"
       d="m 2656.3757,512.2517 0,-9.6979 -24.254,0 0,9.6979 z"
       id="path4259"
       sodipodi:nodetypes="ccccc" />
    <path
       sodipodi:nodetypes="ccccc"
       id="path4261"
       d="m 2693.1354,512.2517 0,-9.6979 -24.254,0 0,9.6979 z"
       style="fill:#000000;fill-rule:nonzero;stroke:none"
       inkscape:connector-curvature="0" />
    <path
       sodipodi:nodetypes="ccccc"
       id="path4263"
       d="m 2729.895,512.2517 0,-9.6979 -24.254,0 0,9.6979 z"
       style="fill:#000000;fill-rule:nonzero;stroke:none"
       inkscape:connector-curvature="0" />
    <path
       inkscape:connector-curvature="0"
       style="fill:#000000;fill-rule:nonzero;stroke:none"
       d="m 2766.6546,512.2517 0,-9.6979 -24.254,0 0,9.6979 z"
       id="path4265"
       sodipodi:nodetypes="ccccc" />
    <path
       sodipodi:nodetypes="ccccc"
       id="path4289"
       d="m 2399.0582,434.11171 0,-9.69791 -24.254,0 0,9.69791 z"
       style="fill:#000000;fill-rule:nonzero;stroke:none"
       inkscape:connector-curvature="0" />
    <path
       sodipodi:nodetypes="ccccc"
       id="path4315"
       d="m 2472.5775,434.11171 0,-9.69791 -24.254,0 0,9.69791 z"
       style="fill:#000000;fill-rule:nonzero;stroke:none"
       inkscape:connector-curvature="0" />
    <path
       inkscape:connector-curvature="0"
       style="fill:#000000;fill-rule:nonzero;stroke:none"
       d="m 2509.3371,434.11171 0,-9.69791 -24.254,0 0,9.69791 z"
       id="path4331"
       sodipodi:nodetypes="ccccc" />
    <path
       sodipodi:nodetypes="ccccc"
       id="path4333"
       d="m 2546.0968,434.11171 0,-9.69791 -24.254,0 0,9.69791 z"
       style="fill:#000000;fill-rule:nonzero;stroke:none"
       inkscape:connector-curvature="0" />
    <path
       inkscape:connector-curvature="0"
       style="fill:#000000;fill-rule:nonzero;stroke:none"
       d="m 2582.8564,434.11171 0,-9.69791 -24.254,0 0,9.69791 z"
       id="path4335"
       sodipodi:nodetypes="ccccc" />
    <path
       inkscape:connector-curvature="0"
       style="fill:#000000;fill-rule:nonzero;stroke:none"
       d="m 2656.3757,434.11171 0,-9.69791 -24.254,0 0,9.69791 z"
       id="path4339"
       sodipodi:nodetypes="ccccc" />
    <path
       sodipodi:nodetypes="ccccc"
       id="path4341"
       d="m 2693.1354,434.11171 0,-9.69791 -24.254,0 0,9.69791 z"
       style="fill:#000000;fill-rule:nonzero;stroke:none"
       inkscape:connector-curvature="0" />
    <path
       inkscape:connector-curvature="0"
       style="fill:#000000;fill-rule:nonzero;stroke:none"
       d="m 2729.895,434.11171 0,-9.69791 -24.254,0 0,9.69791 z"
       id="path4343"
       sodipodi:nodetypes="ccccc" />
    <path
       id="path4376"
       d="m 2577.45,191.28157 c 8.8878,-4.51577 15.0591,-13.90732 15.1893,-24.41136 -0.1311,-15.15543 -12.2405,-27.26565 -27.1236,-27.12373 -14.9963,-0.14186 -27.1087,11.9683 -27.1239,27.12373 0.019,5.99046 2.0919,11.71833 5.4247,16.27423 0.7466,0.7098 3.9623,6.0139 -3.2547,7.05219 -6.9286,0.57003 -27.3407,1.61463 -39.6007,14.10434 -24.2724,25.50261 -40.8202,55.68283 -45.0265,98.73147 -1.3838,0.4101 -6.2069,2.17641 -5.9673,7.59463 -0.2396,5.19259 9.7264,16.60408 23.87,16.81673 3.4329,-0.21265 8.2002,-2.42377 8.1372,-7.59463 0.063,-2.90552 0.063,-4.83454 -0.5426,-7.05219 -1.0025,-2.28273 -1.484,-8.39101 -1.6274,-18.44414 0.1423,-10.20069 10.1097,-33.02371 24.4114,-42.85547 0,0 11.3009,91.9516 -84.0846,177.9319 0,0 14.649,27.35595 15.1893,28.2087 3.1022,6.43375 9.5992,8.61666 13.0193,9.22207 1.4685,0.37323 11.9984,1.49722 12.478,1.62741 0.9658,0.0303 4.5026,0.67486 4.3398,-1.62741 0.1626,-2.84257 -0.8159,-3.42627 -1.6273,-3.79733 -2.6627,-1.61223 -6.0404,-2.97493 -7.5958,-9.22207 0,0 -4.2763,-16.10282 -4.3398,-18.44414 0,0 45.7121,-28.92259 79.2024,-98.73063 0,0 47.2799,54.29761 66.7245,148.09584 l 51.5338,-22.78394 c 0,0 2.0767,-1.21514 2.17,-3.25484 -0.094,-1.57536 -2.1439,-2.42161 -3.2548,-2.71237 -1.5385,-0.18878 -30.2321,-3.08124 -30.3776,-3.25485 -0.5772,0.17365 -2.0245,-0.0695 -2.1699,-1.62742 0.146,-20.26904 -8.0068,-54.03049 -14.6467,-72.69164 -1.482,-4.35063 -2.9293,-8.44958 -4.8822,-10.84949 -22.2546,-35.6408 -30.1357,-61.66658 -19.5291,-104.15537 0,0 20.8809,47.48391 75.4028,52.62007 0,0 2.0136,2.45849 4.8822,2.71236 7.1412,-0.25387 9.4305,-18.99746 9.2221,-21.15651 0.2084,-5.31846 -4.4937,-5.55713 -4.3397,-5.42476 -1.1175,-0.13244 -3.0466,-0.31466 -4.8824,2.71236 0,0 -41.3029,-12.2187 -53.1614,-53.70493 -4.7433,-16.6208 -14.9115,-31.77627 -26.0388,-41.2292 -2.1851,-1.64022 -6.6008,-5.96507 0,-8.67961 z"
       style="fill:#000000;fill-rule:nonzero;stroke:none"
       inkscape:connector-curvature="0" />
  </g>
</svg>
