<?xml version="1.0" encoding="UTF-8" standalone="no"?>
<!-- Created with Inkscape (http://www.inkscape.org/) -->

<svg
   xmlns:dc="http://purl.org/dc/elements/1.1/"
   xmlns:cc="http://creativecommons.org/ns#"
   xmlns:rdf="http://www.w3.org/1999/02/22-rdf-syntax-ns#"
   xmlns:svg="http://www.w3.org/2000/svg"
   xmlns="http://www.w3.org/2000/svg"
   xmlns:sodipodi="http://sodipodi.sourceforge.net/DTD/sodipodi-0.dtd"
   xmlns:inkscape="http://www.inkscape.org/namespaces/inkscape"
   width="1004.3997"
   height="1004.3998"
   id="svg2"
   sodipodi:version="0.32"
   inkscape:version="0.48.4 r9939"
   version="1.0"
   sodipodi:docname="22.svg"
   inkscape:output_extension="org.inkscape.output.svg.inkscape"
   sodipodi:modified="true">
  <defs
     id="defs4" />
  <sodipodi:namedview
     id="base"
     pagecolor="#ffffff"
     bordercolor="#666666"
     borderopacity="1.0"
     gridtolerance="10000"
     guidetolerance="10"
     objecttolerance="10"
     inkscape:pageopacity="0.0"
     inkscape:pageshadow="2"
     inkscape:zoom="0.62592045"
     inkscape:cx="460.32984"
     inkscape:cy="482.84769"
     inkscape:document-units="px"
     inkscape:current-layer="layer1"
     showgrid="true"
     showguides="true"
     width="2700px"
     height="1500px"
     inkscape:window-width="1280"
     inkscape:window-height="1001"
     inkscape:window-x="-8"
     inkscape:window-y="-8"
     fit-margin-top="2.2"
     fit-margin-left="2.2"
     fit-margin-right="2.2"
     fit-margin-bottom="2.2"
     inkscape:window-maximized="1" />
  <metadata
     id="metadata7">
    <rdf:RDF>
      <cc:Work
         rdf:about="">
        <dc:format>image/svg+xml</dc:format>
        <dc:type
           rdf:resource="http://purl.org/dc/dcmitype/StillImage" />
        <dc:title></dc:title>
      </cc:Work>
    </rdf:RDF>
  </metadata>
  <g
     inkscape:label="Layer 1"
     inkscape:groupmode="layer"
     id="layer1"
     transform="translate(2329.4005,2216.4129)">
    <path
       inkscape:connector-curvature="0"
       id="path3124-1"
       d="m -1827.2005,-2214.2129 c -276.1425,0 -500,223.8575 -500,500 0,276.1421 223.8575,499.9998 500,499.9998 276.1421,0 499.9997,-223.8577 499.9997,-499.9998 0,-276.1425 -223.8576,-500 -499.9997,-500 z"
       style="fill:#ffffff;fill-opacity:1;stroke:#000000;stroke-opacity:1;stroke-width:4;stroke-miterlimit:4;stroke-dasharray:none"
       sodipodi:nodetypes="sssss" />
    <path
       sodipodi:nodetypes="sssss"
       style="fill:#d40000;fill-opacity:1;stroke:none"
       d="m -1827.2006,-2193.4812 c -264.6927,0 -479.2682,214.5755 -479.2682,479.2681 0,264.6923 214.5755,479.268 479.2682,479.268 264.6922,0 479.2678,-214.5757 479.2678,-479.268 0,-264.6926 -214.5756,-479.2681 -479.2678,-479.2681 z"
       id="path4310"
       inkscape:connector-curvature="0" />
    <path
       inkscape:connector-curvature="0"
       id="path4312"
       d="m -1827.2007,-2098.3432 c -212.1493,0 -384.1301,171.9808 -384.1301,384.1301 0,212.149 171.9808,384.13 384.1301,384.13 212.149,0 384.1299,-171.981 384.1299,-384.13 0,-212.1493 -171.9809,-384.1301 -384.1299,-384.1301 z"
       style="fill:#ffffff;fill-opacity:1;stroke:none"
       sodipodi:nodetypes="sssss" />
    <path
       inkscape:connector-curvature="0"
       d="m -1954.6932,-1618.2973 -96.2937,0.1107 96.2937,-205.2947 0,205.182 z m 63.805,57.7029 19.0497,0 0,-57.6526 -19.2128,0 0,-319.2662 -82.9061,0 -146.9243,319.5934 0,57.3757 165.8735,0 0,69.6311 64.284,0 -0.161,-69.6814 z"
       style="fill:#000000;fill-opacity:1;fill-rule:evenodd;stroke:none"
       id="path4248" />
    <path
       inkscape:connector-curvature="0"
       d="m -1567.0592,-1599.1912 0,-230.0438 c 0,-63.365 -51.601,-114.9781 -114.8522,-114.9781 -63.2523,0 -114.8654,51.6131 -114.802,114.8643 l 0,230.2714 c -0.1007,63.2512 51.5497,114.8643 114.802,114.8643 63.2512,0 114.8522,-51.6131 114.8522,-114.9781 m -63.4656,6.4805 0,-243.0048 c 0.1609,-28.3104 -23.2021,-51.3362 -51.3866,-51.3362 -28.1978,0 -51.2357,23.0258 -51.1733,51.2738 l 0,243.1296 c -0.1006,28.248 22.9755,51.2738 51.1733,51.2738 28.1845,0 51.5496,-23.0258 51.3866,-51.3362"
       style="fill:#000000;fill-opacity:1;fill-rule:evenodd;stroke:none"
       id="path4252" />
  </g>
</svg>
