<?xml version="1.0" encoding="UTF-8" standalone="no"?>
<svg
   xmlns:dc="http://purl.org/dc/elements/1.1/"
   xmlns:cc="http://creativecommons.org/ns#"
   xmlns:rdf="http://www.w3.org/1999/02/22-rdf-syntax-ns#"
   xmlns:svg="http://www.w3.org/2000/svg"
   xmlns="http://www.w3.org/2000/svg"
   id="svg6542"
   version="1.1"
   viewBox="0 0 181.76876 132.55625"
   height="501"
   width="687">
  <defs
     id="defs6536" />
  <metadata
     id="metadata6539">
    <rdf:RDF>
      <cc:Work
         rdf:about="">
        <dc:format>image/svg+xml</dc:format>
        <dc:type
           rdf:resource="http://purl.org/dc/dcmitype/StillImage" />
        <dc:title></dc:title>
      </cc:Work>
    </rdf:RDF>
  </metadata>
  <rect
     style="opacity:1;fill:#ffffff;fill-opacity:1;fill-rule:nonzero;stroke:#000000;stroke-width:0.26458335;stroke-linejoin:miter;stroke-miterlimit:4;stroke-dasharray:none;stroke-opacity:1"
     id="rect7087"
     width="181.50415"
     height="132.29167"
     x="0.13229166"
     y="0.13229197"
     rx="23.8125"
     ry="23.8125" />
  <path
     style="opacity:1;fill:#0000FE;fill-opacity:1;fill-rule:nonzero;stroke:none;stroke-width:0.13229167;stroke-linejoin:miter;stroke-miterlimit:4;stroke-dasharray:none;stroke-opacity:1"
     d="m 23.944793,8.0697922 c -8.79475,0 -15.8750008,7.0802508 -15.8750008,15.8750008 v 84.666667 c 0,8.79475 7.0802508,15.875 15.8750008,15.875 H 157.82396 c 8.79475,0 15.875,-7.08025 15.875,-15.875 V 23.944793 c 0,-8.79475 -7.08025,-15.8750008 -15.875,-15.8750008 z m 66.939585,9.7895838 64.822922,7.9375 7.9375,40.481251 -7.9375,40.481253 -64.822922,7.9375 -65.352085,-7.9375 -7.408334,-40.481253 7.408334,-40.481251 z"
     id="rect7162" />
  <g
     id="text7197"
     style="font-style:normal;font-variant:normal;font-weight:bold;font-stretch:normal;font-size:74.74023438px;line-height:125%;font-family:Helvetica;-inkscape-font-specification:'Helvetica Bold';text-align:center;letter-spacing:0px;word-spacing:0px;writing-mode:lr-tb;text-anchor:middle;fill:#0000FE;fill-opacity:1;stroke:none;stroke-width:0.26458335px;stroke-linecap:butt;stroke-linejoin:miter;stroke-opacity:1"
     aria-label="1">
    <path
       id="path880"
       style="font-style:normal;font-variant:normal;font-weight:bold;font-stretch:normal;font-family:Helvetica;-inkscape-font-specification:'Helvetica Bold';fill:#0000FE;fill-opacity:1;stroke-width:0.26458335px"
       d="m 75.483784,56.24221 v -7.079885 q 4.926724,-0.218966 6.897414,-0.656897 3.138506,-0.693391 5.109196,-2.773563 1.350287,-1.423276 2.043678,-3.795403 0.401437,-1.423276 0.401437,-2.116666 h 8.649138 V 92.736465 H 87.928325 V 56.24221 Z" />
  </g>
</svg>
