<?xml version="1.0" encoding="utf-8"?>
<!-- Generator: Adobe Illustrator 11.0, SVG Export Plug-In  -->
<!DOCTYPE svg PUBLIC "-//W3C//DTD SVG 1.0//EN"    "http://www.w3.org/TR/2001/REC-SVG-20010904/DTD/svg10.dtd" [
	<!ENTITY ns_flows "http://ns.adobe.com/Flows/1.0/">
	<!ENTITY ns_svg "http://www.w3.org/2000/svg">
	<!ENTITY ns_xlink "http://www.w3.org/1999/xlink">
]>
<svg  xmlns="&ns_svg;" xmlns:xlink="&ns_xlink;" xmlns:a="http://ns.adobe.com/AdobeSVGViewerExtensions/3.0/"
	 width="543" height="348" viewBox="-0.964 -0.82 543 348" xml:space="preserve">
	<defs>
	</defs>
	<g>
		<rect x="0.108" y="0.108" fill="#0C479D" stroke="#000000" stroke-width="0.216" width="541.296" height="346.824"/> 
		<path fill="#FFFFFF" stroke="#000000" stroke-width="0.216" d="M38.196,346.932h465.12c21.024,0,38.088-17.064,38.088-38.088
			V38.196c0-21.024-17.064-38.088-38.088-38.088H38.196l0,0c-21.024,0-38.088,17.064-38.088,38.088v0.072v270.576c0-0.072,0,0,0,0
			C0.108,329.868,17.172,346.932,38.196,346.932L38.196,346.932z"/>
		<path fill="#0C479D" d="M38.196,330.012h465.12c11.736,0,21.168-9.504,21.168-21.168V38.196c0-11.664-9.432-21.168-21.168-21.168
			H38.196l0,0c-11.736,0-21.168,9.504-21.168,21.168c0,0,0,0,0,0.072v270.576l0,0C17.028,320.508,26.46,330.012,38.196,330.012
			L38.196,330.012z"/>
		<path fill="#FFFFFF" d="M212.436,207.324c0.936-2.448,1.44-5.04,1.44-7.704c0-1.656-0.216-3.312-0.576-4.968
			c-1.44-5.904-5.472-10.872-11.016-13.536c-4.68-1.872-9.648-2.808-14.688-2.808c-1.584,0-3.168,0.072-4.752,0.288
			c-8.136,1.08-15.768,4.608-21.96,10.08l-22.032-10.944l16.056-76.104h78.696v26.208H176.22l-5.616,26.568
			c3.816-1.008,7.632-1.656,11.448-2.016c10.008-1.296,20.232,0.216,29.592,4.248c13.464,5.616,23.472,17.208,27,31.32
			c1.08,3.888,1.584,7.992,1.584,12.024c0,6.624-1.368,13.104-4.104,19.152c-7.056,13.176-19.296,22.752-33.84,26.28
			c-22.608,4.752-46.08-2.232-62.568-18.576l18.576-17.784c8.064,7.632,18.648,11.808,29.664,11.808
			c2.808,0,5.688-0.288,8.496-0.864C203.364,218.34,209.196,213.731,212.436,207.324z"/>
		<path fill="#FFFFFF" d="M389.196,167.292c3.384,2.232,6.192,5.112,8.424,8.496c4.464,7.2,6.84,15.48,6.84,23.904
			c0,7.92-2.088,15.696-5.976,22.536c-7.416,11.808-19.296,20.088-32.976,22.896c-10.584,2.016-21.456,2.016-32.04,0
			c-13.752-2.808-25.704-11.016-33.12-22.824c-8.28-14.544-7.992-32.4,0.864-46.584c2.232-3.384,5.112-6.192,8.424-8.424
			c-5.328-6.696-8.28-15.048-8.424-23.688c-0.792-15.48,7.416-29.952,21.168-37.224c17.208-7.92,37.008-7.92,54.144,0
			c12.96,6.696,21.168,20.088,21.168,34.704c0,0.864,0,1.656-0.072,2.52C397.332,152.172,394.38,160.452,389.196,167.292z"/>
		<path fill="#0C479D" d="M339.228,181.692h20.304c2.088-0.072,4.032,0.216,5.976,0.864c4.104,1.296,7.704,3.96,10.152,7.56
			c1.8,2.88,2.808,6.192,2.808,9.648c0,2.808-0.72,5.616-2.016,8.136c-4.032,6.192-10.44,10.44-17.712,11.808
			c-6.12,1.224-12.456,1.224-18.576,0.072c-7.344-1.368-13.752-5.688-17.784-11.88c-2.952-5.688-2.592-12.456,0.792-17.784
			c2.448-3.6,6.048-6.264,10.224-7.632c1.872-0.576,3.888-0.864,5.904-0.792H339.228z"/>
		<path fill="#0C479D" d="M338.436,154.62h21.096c0.216,0,0.432,0,0.648,0c6.624,0,11.952-5.256,12.096-11.88
			c0-0.288,0-0.648,0-0.936c0-5.328-2.952-10.152-7.632-12.6c-4.752-2.16-9.936-3.312-15.264-3.312
			c-5.184,0-10.368,1.152-15.192,3.312c-4.68,2.448-7.632,7.272-7.632,12.6c0,0.288,0,0.648,0,0.936c0,0.072,0,0.144,0,0.216
			c0,6.48,5.184,11.664,11.664,11.664C338.292,154.62,338.364,154.62,338.436,154.62z"/>
	</g>
</svg>
