<svg xmlns="http://www.w3.org/2000/svg" width="500" height="500" version="1">
  <path d="M0 0h500v500H0V0z" fill="#0c479d"/>
  <path d="M29.1563 0c-7.7361 0-15.1555 3.0622-20.625 8.5312C3.0618 14.0017 0 21.4206 0 29.1562v441.6875c0 7.7356 3.0618 15.1545 8.5313 20.625C14.0008 496.9378 21.4202 500 29.1563 500h441.6875c7.7361 0 15.1555-3.0622 20.625-8.5313 5.4695-5.4705 8.5312-12.8894 8.5312-20.625V29.1562c0-7.7356-3.0617-15.1545-8.5312-20.625C485.9993 3.0622 478.5799 0 470.8438 0z" fill="#fff"/>
  <path d="M29.1561 12.4999c-4.4198 0-8.6562 1.7501-11.7812 4.875-3.125 3.1265-4.875 7.3616-4.875 11.7813v441.6875c0 4.4195 1.75 8.6547 4.875 11.7812 3.125 3.1249 7.3614 4.875 11.7812 4.875h441.6875c4.4199 0 8.6563-1.7501 11.7813-4.875 3.125-3.1265 4.875-7.3617 4.875-11.7812V29.1562c0-4.4197-1.75-8.6548-4.875-11.7813-3.125-3.1249-7.3614-4.875-11.7813-4.875z" fill="#0c479d"/>
  <path d="M12.4999 423.7177l237.5-411.2178 237.4999 411.2178H12.4999z" fill="#fff"/>
  <path d="M172.9407 378.886l-6.691 26.8317h53.75l3.5263-50.4193h-32.5731l-18.0122 23.5876zM45.8339 405.7177h53.7506l21.3997-50.4193H74.942l-29.1081 50.4193zm408.332 0h-53.75l-21.4004-50.4193h46.0419l29.1085 50.4193zm-139.5998-41.9644l-7.6568 16.4615h22.982l6.3588 25.5029h-53.75l-3.5249-50.4193h36.4081l7.1467 6.5411-7.9639 1.9138z"/>
  <path d="M286.5823 138.0501c-2.1181-1.7828-4.5097-3.2169-7.082-4.249-4.2042-1.8302-8.3464-3.8025-12.4166-5.917-2.2974-.8627-4.1583-2.5995-5.177-4.8317-.9892-3.036-1.3802-6.2327-1.1568-9.418.5997-3.6302 1.5213-7.1989 2.7487-10.6668 1.0245-4.6308 1.1083-9.4194.2514-14.0833-1.1701-5.7059-5.4063-10.2951-10.9993-11.9171-6.9703-2.9557-14.974-2.1045-21.1681 2.2507-4.7023 4.0452-6.7043 10.4071-5.1653 16.4159.3719 1.6407.4557 3.3317.2499 5.0012-1.7095 6.5586.05 13.5349 4.6655 18.5001 1.6507.9675 3.5278 1.4756 5.4401 1.4714 2.0961-.2226 4.0511 1.088 4.6449 3.112.2087 1.2173-.1264 2.4661-.9172 3.4164-3.6116 3.1034-7.3128 6.0992-11.0978 8.986-2.1475 1.6377-4.0996 3.5154-5.8194 5.5968-1.392 2.2062-2.3062 4.6793-2.6825 7.2604l-5.3167 32.823-34.334 27.4152-.4028.3205c-3.2838 2.5973-3.8923 7.3407-1.3714 10.6847 2.5194 3.3411 7.2466 4.0628 10.648 1.6228l7.9581-5.7106 2.5017 2.2504 26.3334-19.6658 6.0001-10.0836 2.5003 36.1655-80.417 128.0009-15.2506-3.3323-7.5003 6.8321 36.5004 19.832 84.3329-110.4149 28.1666 51.5819 46.9164 42.9168-1.414 5.7503-8.6681 2.0843-3.3337 7.1658h22.1676L356 346.3011l-33.0831-33.5829-15.6663-20.9167-23.9991-50.8338c3.5057-9.7293 2.2093-20.5448-3.5013-29.1673-.8529-1.7301-1.2262-3.6586-1.0822-5.5842l-.9172-35.4982 13.3338 19.9996 6.6278 42.6551c.6336 4.0849 4.3803 6.9439 8.4887 6.4735 4.1099-.4674 7.1173-4.0966 6.816-8.2197l-.6835-9.3266 2.1681-.4982-4.7522-44.0017-18.8324-34.166c-1.1054-2.1-2.5724-3.9906-4.3348-5.5839z"/>
</svg>
