<svg xmlns="http://www.w3.org/2000/svg" xmlns:xlink="http://www.w3.org/1999/xlink" width="520" height="270" xmlns:v="https://vecta.io/nano"><rect width="520" height="270" rx="25" fill="#ffce35"/><path d="M27.5 10C17.805 10 10 17.805 10 27.5v215c0 9.695 7.805 17.5 17.5 17.5h465c9.695 0 17.5-7.805 17.5-17.5v-215c0-9.695-7.805-17.5-17.5-17.5zM35 25h450a9.98 9.98 0 0 1 10 10v200a9.98 9.98 0 0 1-10 10H35a9.98 9.98 0 0 1-10-10V35a9.98 9.98 0 0 1 10-10z"/><g transform="translate(1)"><path d="M328.813 188.392V215h-26.608v-26.608h26.608"/><path d="M174.681 55v160h-29.304V100.714h-16.059V84.421L145.377 55h29.304" id="A"/><use xlink:href="#A" x="94"/><use xlink:href="#A" x="214"/></g></svg>