<?xml version="1.0" encoding="UTF-8" standalone="no"?>
<svg
   xmlns:dc="http://purl.org/dc/elements/1.1/"
   xmlns:cc="http://creativecommons.org/ns#"
   xmlns:rdf="http://www.w3.org/1999/02/22-rdf-syntax-ns#"
   xmlns:svg="http://www.w3.org/2000/svg"
   xmlns="http://www.w3.org/2000/svg"
   viewBox="0 0 113.21333 113.17333"
   height="113.17333"
   width="113.21333"
   xml:space="preserve"
   id="svg2"
   version="1.1"><metadata
     id="metadata8"><rdf:RDF><cc:Work
         rdf:about=""><dc:format>image/svg+xml</dc:format><dc:type
           rdf:resource="http://purl.org/dc/dcmitype/StillImage" /></cc:Work></rdf:RDF></metadata><defs
     id="defs6" /><g
     transform="matrix(1.3333333,0,0,-1.3333333,0,113.17333)"
     id="g10"><g
       transform="scale(0.1)"
       id="g12"><path
         id="path14"
         style="fill:#ee2c30;fill-opacity:1;fill-rule:nonzero;stroke:none"
         d="m 545.453,832.359 c -106.269,31.356 -212,21.817 -311,-28.043 C 135.523,754.527 64.8594,675.293 26.6953,571.25 -11.5,467.211 -8.87109,361.086 34.3984,259.059 77.6367,157.109 152.121,81.4023 253.391,36.5078 c 235.8,-104.4375 509.504,23.543 580.496,271.4412 64.261,224.352 -64.512,458.563 -288.434,524.41 v 0" /><path
         id="path16"
         style="fill:#ffffff;fill-opacity:1;fill-rule:nonzero;stroke:none"
         d="M 505.063,696.207 C 654.281,652.285 740.148,496.227 697.305,346.645 650,181.48 467.59,96.1211 310.41,165.781 c -67.461,29.883 -117.105,80.317 -145.976,148.285 -28.797,68.043 -30.528,138.782 -5.114,208.082 25.45,69.336 72.539,122.149 138.493,155.375 65.953,33.192 136.441,39.563 207.25,18.684 v 0" /><path
         id="path18"
         style="fill:#ffffff;fill-opacity:1;fill-rule:nonzero;stroke:none"
         d="m 152.227,576.684 20.128,32.148 -10.73,6.734 -13.68,-21.89 -73.3708,45.902 -6.4375,-10.297 84.0903,-52.597" /><path
         id="path20"
         style="fill:#ffffff;fill-opacity:1;fill-rule:nonzero;stroke:none"
         d="m 175.844,612.723 7.199,9.25 -57.563,44.711 -7.199,-9.246 57.563,-44.715" /><path
         id="path22"
         style="fill:#ffffff;fill-opacity:1;fill-rule:nonzero;stroke:none"
         d="m 106.508,666.148 7.597,9.79 -12.453,9.687 -7.5973,-9.797 12.4533,-9.68" /><path
         id="path24"
         style="fill:#ffffff;fill-opacity:1;fill-rule:nonzero;stroke:none"
         d="m 188.695,631.949 8.711,7.813 -29.734,33.226 v 0 c -3.598,4.028 -5.688,7.703 -6.406,11.051 -0.758,3.348 0.214,6.121 2.664,8.313 4.031,3.605 9.07,2.019 15.047,-4.676 v 0 l 32.003,-35.785 8.747,7.851 -29.735,33.227 v 0 c -3.601,4.027 -5.683,7.699 -6.406,11.051 -0.758,3.382 0.215,6.117 2.664,8.316 4.027,3.598 9.074,2.016 15.043,-4.68 v 0 l 32.008,-35.785 8.75,7.848 -31.824,35.57 v 0 c -5.692,6.332 -11.09,10.332 -16.024,11.77 -5.004,1.402 -9.68,0.359 -13.855,-3.383 -2.774,-2.485 -4.289,-5.399 -4.535,-8.676 -0.114,-3.352 0.32,-6.555 1.218,-9.758 -1.367,0.645 -2.808,1.297 -4.32,1.801 -1.477,0.469 -3.059,0.719 -4.68,0.793 -1.511,0.035 -3.058,-0.254 -4.64,-0.684 -1.582,-0.468 -3.098,-1.437 -4.539,-2.738 -2.664,-2.371 -4.067,-5.18 -4.321,-8.457 -0.179,-3.383 0.289,-6.773 1.762,-10.266 v 0 l -0.176,-0.14 v 0 c -0.285,0.324 -0.863,0.972 -1.621,1.797 -0.754,0.648 -1.473,1.515 -2.269,2.343 -0.825,0.793 -1.582,1.618 -2.266,2.375 -0.723,0.649 -1.297,1.297 -1.586,1.622 v 0 l -8.637,-7.743 v 0 c 1.407,-1.402 2.914,-2.914 4.5,-4.535 1.617,-1.621 3.203,-3.418 5,-5.433 v 0 l 39.457,-44.028 v 0" /><path
         id="path26"
         style="fill:#ffffff;fill-opacity:1;fill-rule:nonzero;stroke:none"
         d="m 252.094,683.965 9.898,6.195 -38.769,61.774 -9.903,-6.227 38.774,-61.742" /><path
         id="path28"
         style="fill:#ffffff;fill-opacity:1;fill-rule:nonzero;stroke:none"
         d="m 205.219,757.91 10.515,6.586 -8.39,13.359 -10.512,-6.589 8.387,-13.356" /><path
         id="path30"
         style="fill:#ffffff;fill-opacity:1;fill-rule:nonzero;stroke:none"
         d="m 295.652,709.598 -5.074,9.832 v 0 c -0.504,-0.723 -1.008,-1.481 -1.656,-2.125 -0.609,-0.758 -1.477,-1.371 -2.559,-1.946 -1.906,-0.972 -3.597,-0.902 -5.218,0.036 -1.582,0.898 -3.239,3.097 -5.075,6.621 v 0 l -18.543,35.859 10.368,5.363 -5.219,10.117 -10.367,-5.363 -8.891,17.168 -8.391,-9.285 6.875,-13.246 -8.207,-4.25 5.223,-10.117 8.207,4.25 19.906,-38.524 v 0 c 3.203,-6.191 6.586,-10.043 10.192,-11.371 3.672,-1.48 7.484,-1.012 11.699,1.149 1.473,0.754 2.914,1.66 4.031,2.738 1.082,1.113 2.086,2.125 2.699,3.094 v 0" /><path
         id="path32"
         style="fill:#ffffff;fill-opacity:1;fill-rule:nonzero;stroke:none"
         d="m 300.367,745.238 31.035,11.196 -1.695,4.679 v 0 c -2.191,6.016 -4.535,10.907 -7.09,14.977 -2.558,4.031 -5.219,7.168 -8.066,9.324 -2.809,2.16 -5.723,3.387 -8.637,3.82 -3.023,0.43 -6.051,0.106 -9,-0.976 -3.422,-1.223 -6.191,-3.129 -8.207,-5.832 -2.125,-2.774 -3.531,-6.156 -4.215,-9.863 -0.648,-3.852 -0.789,-8.133 -0.14,-12.891 0.644,-4.75 1.871,-9.754 3.738,-14.977 1.805,-4.965 4.035,-9.425 6.519,-13.351 2.485,-3.961 5.18,-7.024 8.282,-9.395 3.058,-2.379 6.371,-3.894 9.933,-4.578 3.637,-0.75 7.414,-0.285 11.34,1.121 3.387,1.227 6.336,2.735 8.641,4.571 2.304,1.91 4.105,3.636 5.547,5.183 v 0 l -4.754,11.449 v 0 c -0.938,-1.691 -2.305,-3.527 -3.957,-5.511 -1.805,-2.012 -4.215,-3.633 -7.383,-4.786 -5.074,-1.835 -9.324,-1.406 -12.856,1.403 -3.453,2.668 -6.511,7.457 -9.035,14.437 v 0" /><path
         id="path34"
         style="fill:#ffffff;fill-opacity:1;fill-rule:nonzero;stroke:none"
         d="m 428.492,730.875 c -1.152,-2.02 -2.699,-3.602 -4.719,-4.898 -2.011,-1.188 -4.57,-1.762 -7.628,-1.797 -3.165,-0.075 -6.192,0.578 -9.25,1.836 -3.102,1.367 -5.473,2.773 -7.309,4.14 v 0 l -0.434,-13.789 v 0 c 1.907,-0.972 4.641,-1.941 8.032,-2.883 3.418,-0.933 6.91,-1.437 10.367,-1.398 8.566,0.141 14.941,3.234 19.074,9.105 3.691,5.172 5.352,12.317 5.691,21.411 v 0 l -0.933,54.8 v 0 c -0.039,2.164 0.035,4.141 0.105,6.266 0.075,2.125 0.075,4.141 0.145,6.117 v 0 l -10.801,-0.176 v 0 c 0,-0.433 0,-1.3 0.039,-2.269 -0.109,-1.008 -0.074,-2.125 -0.183,-3.277 -0.071,-1.153 -0.071,-2.125 -0.071,-3.129 -0.109,-1.012 -0.109,-1.836 -0.109,-2.274 h -0.32 v 0 c -1.516,3.242 -3.458,6.086 -5.836,8.465 -2.375,2.23 -5.364,3.309 -8.961,3.273 -3.496,-0.07 -6.59,-0.968 -9.145,-2.843 -2.594,-1.907 -4.824,-4.356 -6.445,-7.668 -1.621,-3.242 -2.914,-7.27 -3.637,-11.805 -0.828,-4.758 -1.187,-9.867 -1.113,-15.555 0.105,-6.804 0.754,-12.492 2.09,-17.136 1.183,-4.715 2.695,-8.496 4.64,-11.305 1.981,-2.953 4.102,-4.93 6.516,-6.156 2.41,-1.258 4.898,-1.871 7.344,-1.836 3.961,0.039 7.054,1.191 9.394,3.636 2.305,2.34 4.18,5.188 5.617,8.747 h 0.219 l 0.156,-8.907 v 0 c -0.539,-2.699 -1.418,-6.715 -2.535,-8.695 v 0" /><path
         id="path36"
         style="fill:#ffffff;fill-opacity:1;fill-rule:nonzero;stroke:none"
         d="m 480.152,814.32 7.887,-1.257 14.652,18.468 -11.878,1.946 -10.661,-19.157" /><path
         id="path38"
         style="fill:#ffffff;fill-opacity:1;fill-rule:nonzero;stroke:none"
         d="m 467.844,766.086 32.543,-5.293 0.789,4.895 v 0 c 1.047,6.3 1.367,11.734 1.152,16.523 -0.285,4.785 -1.078,8.82 -2.484,12.062 -1.442,3.278 -3.418,5.754 -5.762,7.559 -2.406,1.836 -5.219,3.02 -8.316,3.527 -3.563,0.575 -6.907,0.25 -9.969,-1.117 -3.238,-1.367 -6.086,-3.637 -8.531,-6.551 -2.411,-3.023 -4.645,-6.734 -6.371,-11.16 -1.77,-4.465 -3.168,-9.465 -4.036,-14.937 -0.863,-5.188 -1.078,-10.192 -0.828,-14.797 0.254,-4.684 1.117,-8.715 2.699,-12.281 1.481,-3.559 3.606,-6.512 6.411,-8.817 2.808,-2.414 6.336,-3.886 10.476,-4.539 3.528,-0.574 6.84,-0.683 9.754,-0.215 2.953,0.543 5.328,1.153 7.383,1.836 v 0 l 1.441,12.313 v 0 c -1.66,-1.039 -3.785,-1.981 -6.195,-2.914 -2.52,-0.867 -5.437,-1.117 -8.746,-0.578 -5.328,0.863 -8.82,3.316 -10.547,7.492 -1.73,3.992 -2.055,9.679 -0.863,16.992 v 0" /><path
         id="path40"
         style="fill:#ffffff;fill-opacity:1;fill-rule:nonzero;stroke:none"
         d="m 504.125,726.594 11.129,-3.711 13.609,41.004 v 0 c 1.797,5.398 4.102,9.433 6.95,11.914 2.734,2.558 5.828,3.168 9.32,1.98 2.879,-0.933 4.535,-2.84 5.113,-5.722 0.469,-2.879 -0.183,-6.985 -1.98,-12.387 v 0 l -14.289,-43.016 11.082,-3.672 15.375,46.258 v 0 c 2.449,7.27 3.058,13.5 1.945,18.649 -1.152,5.183 -4.469,8.711 -10.012,10.547 -3.203,1.078 -6.297,1.042 -9.433,-0.18 -3.129,-1.188 -6.008,-3.387 -8.602,-6.586 v 0 l -0.215,0.105 v 0 c 0.106,0.395 0.395,1.227 0.684,2.125 0.215,1.008 0.574,2.055 0.828,3.207 0.289,1.114 0.613,2.157 0.934,3.129 0.218,0.938 0.507,1.766 0.617,2.2 v 0 l -10.481,3.492 v 0 c -0.574,-2.051 -1.152,-4.25 -1.761,-6.481 -0.649,-2.34 -1.442,-4.609 -2.2,-6.914 v 0 l -18.613,-55.941 v 0" /><path
         id="path42"
         style="fill:#ffffff;fill-opacity:1;fill-rule:nonzero;stroke:none"
         d="m 605.863,774.363 7.09,-3.781 19.801,12.816 -10.652,5.657 -16.239,-14.692" /><path
         id="path44"
         style="fill:#ffffff;fill-opacity:1;fill-rule:nonzero;stroke:none"
         d="m 578.723,732.602 29.16,-15.477 2.336,4.387 v 0 c 2.988,5.656 5.008,10.695 6.301,15.304 1.332,4.606 1.835,8.711 1.546,12.239 -0.289,3.527 -1.402,6.515 -3.023,8.961 -1.688,2.558 -3.957,4.539 -6.73,6.05 -3.204,1.692 -6.442,2.446 -9.825,2.161 -3.461,-0.289 -6.914,-1.508 -10.156,-3.528 -3.273,-2.09 -6.516,-4.863 -9.609,-8.535 -3.098,-3.672 -6.012,-7.918 -8.606,-12.812 -2.484,-4.641 -4.285,-9.325 -5.547,-13.789 -1.257,-4.5 -1.722,-8.571 -1.402,-12.458 0.25,-3.851 1.336,-7.308 3.277,-10.437 1.91,-3.203 4.75,-5.688 8.457,-7.672 3.168,-1.687 6.231,-2.808 9.18,-3.308 2.953,-0.43 5.402,-0.579 7.563,-0.653 v 0 l 5.328,11.199 v 0 c -1.91,-0.429 -4.215,-0.644 -6.805,-0.718 -2.664,-0.039 -5.469,0.648 -8.457,2.23 -4.793,2.52 -7.313,5.977 -7.598,10.477 -0.363,4.359 1.117,9.828 4.61,16.379 v 0" /><path
         id="path46"
         style="fill:#ffffff;fill-opacity:1;fill-rule:nonzero;stroke:none"
         d="m 600.211,683.141 9.359,-6.985 23.438,31.461 v 0 c 2.199,2.953 4.32,5.293 6.519,7.02 2.157,1.765 4.137,2.957 6.043,3.64 1.836,0.575 3.672,0.789 5.403,0.61 1.586,-0.289 3.023,-0.832 4.355,-1.836 0.574,-0.43 1.078,-0.789 1.442,-1.258 0.394,-0.473 0.828,-0.973 1.183,-1.441 v 0 l 8.496,11.41 v 0 c -0.176,0.144 -0.32,0.254 -0.355,0.468 -0.106,0.075 -0.254,0.18 -0.434,0.325 -1.73,1.297 -3.457,2.195 -5.219,2.629 -1.796,0.429 -3.457,0.468 -5.222,0.179 -1.727,-0.285 -3.489,-0.793 -5.145,-1.476 -1.656,-0.758 -3.312,-1.621 -4.898,-2.77 v 0 l -0.18,0.106 v 0 c 0.359,0.468 0.863,1.156 1.547,2.086 0.578,0.972 1.367,1.984 2.016,3.062 0.683,1.152 1.336,2.016 2.019,2.953 0.574,0.973 1.117,1.656 1.438,2.125 v 0 l -8.641,6.442 v 0 c -1.187,-1.762 -2.445,-3.633 -3.742,-5.543 -1.332,-2.051 -2.774,-3.961 -4.211,-5.903 v 0 l -35.211,-47.304 v 0" /><path
         id="path48"
         style="fill:#ffffff;fill-opacity:1;fill-rule:nonzero;stroke:none"
         d="m 647.949,642.891 7.633,-7.344 v 0 c 0.789,0.973 1.91,2.445 3.309,4.105 1.406,1.582 2.918,3.313 4.57,5.039 v 0 l 24.09,25.129 v 0 c 3.383,3.524 5.867,6.625 7.449,9.434 1.621,2.766 2.484,5.508 2.883,8.059 0.43,2.199 0.14,4.792 -0.723,7.781 -0.972,2.914 -2.988,5.863 -6.152,8.89 -2.703,2.594 -5.442,4.43 -8.281,5.582 -2.809,1.114 -5.582,1.977 -8.176,2.336 v 0 l -8.133,-9.793 v 0 c 2.375,0.364 5.078,0.11 8.172,-0.718 2.949,-0.828 5.578,-2.379 7.922,-4.61 2.988,-2.879 4.101,-5.937 3.418,-9.254 -0.289,-1.613 -0.903,-3.234 -1.836,-4.711 -1.008,-1.55 -2.34,-3.097 -3.926,-4.714 v 0 l -2.051,-2.164 -3.023,2.878 v 0 c -6.735,6.481 -13.285,10.012 -19.477,10.622 -6.191,0.468 -12.351,-2.34 -18.254,-8.497 -2.34,-2.445 -4.101,-4.929 -5.328,-7.484 -1.222,-2.559 -1.801,-4.973 -1.906,-7.383 -0.25,-2.34 0.18,-4.535 1.043,-6.554 0.793,-2.082 2.051,-3.852 3.746,-5.508 3.094,-2.949 6.297,-4.535 9.754,-4.641 3.238,-0.183 6.48,0.254 9.504,1.297 v 0 l 0.179,-0.18 v 0 c -0.289,-0.289 -0.789,-0.832 -1.402,-1.586 -0.683,-0.754 -1.406,-1.476 -1.98,-2.23 -0.61,-0.828 -1.332,-1.551 -1.801,-2.234 -0.645,-0.79 -1.043,-1.184 -1.223,-1.547 v 0" /><path
         id="path50"
         style="fill:#ffffff;fill-opacity:1;fill-rule:nonzero;stroke:none"
         d="m 661.879,627.195 7.418,-9.07 82.582,67.387 -7.414,9.074 -82.586,-67.391" /><path
         id="path52"
         style="fill:#ffffff;fill-opacity:1;fill-rule:nonzero;stroke:none"
         d="m 708.898,618.879 17.891,-27.723 4.172,2.699 v 0 c 5.402,3.493 9.617,6.883 13,10.266 3.383,3.418 5.828,6.727 7.309,9.973 1.476,3.203 1.976,6.371 1.73,9.285 -0.254,3.062 -1.227,5.902 -2.957,8.57 -1.941,3.024 -4.426,5.254 -7.523,6.66 -3.129,1.442 -6.766,2.051 -10.547,1.868 -3.887,-0.215 -8.102,-1.079 -12.563,-2.774 -4.504,-1.687 -9.105,-3.992 -13.789,-6.98 -4.391,-2.879 -8.281,-6.051 -11.519,-9.36 -3.317,-3.312 -5.727,-6.621 -7.309,-10.187 -1.656,-3.496 -2.414,-7.055 -2.23,-10.692 0.105,-3.707 1.367,-7.308 3.636,-10.8 1.977,-3.024 4.102,-5.508 6.406,-7.418 2.379,-1.797 4.43,-3.129 6.297,-4.25 v 0 l 10.118,7.238 v 0 c -1.907,0.504 -3.993,1.441 -6.336,2.629 -2.305,1.297 -4.43,3.273 -6.266,6.121 -2.949,4.535 -3.492,8.746 -1.508,12.816 1.762,3.996 5.758,8.063 11.988,12.059 v 0" /><path
         id="path54"
         style="fill:#ee2c30;fill-opacity:1;fill-rule:nonzero;stroke:none"
         d="m 296.949,754.707 c -2.16,6.34 -3.023,11.625 -2.484,15.731 0.613,3.996 2.519,6.628 5.687,7.777 6.586,2.375 12.207,-2.953 16.993,-16.199 v 0 l -20.196,-7.309 v 0" /><path
         id="path56"
         style="fill:#ee2c30;fill-opacity:1;fill-rule:nonzero;stroke:none"
         d="m 410.168,753.555 c -1.945,4.14 -3.059,10.621 -3.203,19.586 -0.11,8.386 0.683,14.687 2.41,19.078 1.621,4.32 4.504,6.48 8.57,6.699 3.817,0.07 6.801,-2.02 8.965,-6.266 2.086,-4.214 3.203,-10.621 3.348,-19.011 v 0 c 0.144,-8.817 -0.828,-15.336 -2.664,-19.653 -1.801,-4.429 -4.899,-6.59 -9.289,-6.66 -3.383,-0.07 -6.121,2.012 -8.137,6.227 v 0" /><path
         id="path58"
         style="fill:#ee2c30;fill-opacity:1;fill-rule:nonzero;stroke:none"
         d="m 469.457,776.02 c 1.191,6.621 3.027,11.625 5.516,14.937 2.445,3.207 5.394,4.609 8.742,4.07 6.914,-1.148 9.219,-8.566 6.949,-22.464 v 0 l -21.207,3.457 v 0" /><path
         id="path60"
         style="fill:#ee2c30;fill-opacity:1;fill-rule:nonzero;stroke:none"
         d="m 583.438,741.492 c 3.277,5.871 6.621,10.047 10.042,12.387 3.348,2.234 6.59,2.59 9.579,1.008 6.191,-3.278 6.007,-11.055 -0.614,-23.469 v 0 l -19.007,10.074 v 0" /><path
         id="path62"
         style="fill:#ee2c30;fill-opacity:1;fill-rule:nonzero;stroke:none"
         d="m 671.852,669.387 -4.536,-4.715 v 0 c -4.07,-4.211 -8.027,-6.879 -11.949,-8.067 -4.105,-1.183 -7.562,-0.429 -10.586,2.489 -2.199,2.082 -3.023,4.496 -2.699,7.129 0.32,2.625 1.867,5.285 4.32,7.879 3.344,3.457 6.84,5.039 10.727,4.683 3.851,-0.363 7.773,-2.594 11.953,-6.59 0.465,-0.468 0.973,-0.933 1.547,-1.476 0.539,-0.539 1.043,-1.008 1.223,-1.332 v 0" /><path
         id="path64"
         style="fill:#ee2c30;fill-opacity:1;fill-rule:nonzero;stroke:none"
         d="m 717.359,624.352 c 5.684,3.531 10.653,5.539 14.793,5.902 4.036,0.359 7.02,-0.934 8.86,-3.781 3.777,-5.868 -0.149,-12.563 -11.953,-20.196 v 0 l -11.7,18.075 v 0" /><path
         id="path66"
         style="fill:#231f20;fill-opacity:1;fill-rule:nonzero;stroke:none"
         d="m 517.988,569.957 c -5.367,0 -11.09,-1.191 -16.234,-2.629 -13.285,-3.742 -24.625,-12.855 -32.867,-23.906 -6.914,-9.211 -11.844,-20.516 -15.301,-31.535 -3.277,-10.262 -5.691,-21.383 -7.559,-31.969 -2.05,-12.023 -3.64,-24.66 -4.175,-36.828 -0.508,-11.953 0.066,-25.235 0.898,-37.113 0.863,-12.028 2.086,-24.805 3.992,-36.723 2.199,-13.68 5.477,-27.469 10.301,-40.426 4.965,-13.535 12.883,-28.512 24.227,-37.441 10.511,-8.317 23.757,-12.383 37.113,-11.879 14.187,0.469 27.722,6.082 38.125,15.695 9.324,8.567 16.094,21.352 20.738,33.192 5.149,13.105 8.785,27.179 11.305,41.039 2.191,12.132 3.707,24.375 4.57,36.683 0.899,13.18 1.043,26.387 0.609,39.531 -0.394,11.411 -1.257,23.114 -2.914,34.379 -1.656,10.981 -4.066,21.926 -7.593,32.434 -3.602,10.945 -8.715,21.996 -15.664,31.176 -7.989,10.511 -18.829,19.511 -31.532,23.332 -5.761,1.726 -11.988,2.988 -18.039,2.988 v 0" /><path
         id="path68"
         style="fill:#231f20;fill-opacity:1;fill-rule:nonzero;stroke:none"
         d="M 404.77,567.043 H 268.906 v -149.91 l 39.957,-9.5 v 0 c 0.254,0.863 0.723,2.23 1.082,3.094 0.578,1.332 1.368,2.66 2.125,3.851 2.629,3.817 5.973,7.094 9.899,9.504 5.078,3.098 10.836,4.789 16.777,4.75 6.84,-0.066 13.57,-2.34 18.754,-6.695 4.645,-3.922 8.066,-9.969 10.367,-15.551 1.91,-4.645 3.457,-9.434 4.5,-14.398 1.297,-5.977 1.946,-12.094 1.946,-18.286 0.074,-5.726 -0.469,-11.523 -1.547,-17.14 -1.008,-5.614 -2.664,-11.301 -5.254,-16.414 -2.559,-5.149 -6.125,-9.899 -10.77,-13.356 -5.219,-3.816 -11.445,-5.941 -17.89,-6.086 -6.372,-0.105 -12.602,1.692 -17.891,5.184 -4.969,3.273 -8.891,7.742 -11.301,13.105 -0.683,1.473 -1.441,3.637 -1.984,5.11 v 0 l -38.77,-11.231 v 0 c 0.324,-1.547 0.719,-3.777 1.153,-5.258 1.261,-4.714 3.812,-9.468 6.441,-13.535 4.215,-6.551 9.324,-12.742 15.301,-17.75 6.226,-5.218 13.465,-9.179 21.062,-12.019 8.891,-3.352 18.391,-5.149 27.899,-4.824 8.027,0.253 16.019,2.05 23.508,5.003 7.597,2.914 14.687,6.95 20.878,12.168 6.661,5.582 12.168,12.313 16.454,19.875 4.605,8.133 7.847,17.637 10.152,26.707 2.555,9.973 4.246,20.45 4.355,30.707 0.106,9.579 -1.293,19.661 -3.277,29.09 -1.941,9.325 -4.898,19.403 -9.32,27.864 -4.18,8.101 -9.797,15.339 -16.598,21.347 -6.766,6.051 -14.617,10.731 -23.074,13.934 -8.176,3.094 -16.887,4.715 -25.672,4.715 -8.313,0 -16.668,-1.442 -24.336,-4.75 -0.898,-0.434 -2.336,-1.043 -3.203,-1.442 v 63.469 h 94.141 v 38.668" /><path
         id="path70"
         style="fill:#ffffff;fill-opacity:1;fill-rule:nonzero;stroke:none"
         d="m 518.098,528.191 c 3.242,0.075 6.445,-0.64 9.25,-2.191 2.808,-1.441 5.078,-4.07 6.769,-6.66 2.774,-4.32 4.75,-10.438 6.051,-15.485 2.191,-8.496 3.918,-17.207 5.254,-25.917 1.332,-8.997 2.305,-18.11 2.914,-27.215 0.648,-9.321 1.012,-18.649 0.937,-28.008 -0.035,-10.512 -0.503,-21.094 -1.441,-31.606 -0.937,-10.586 -2.41,-21.601 -4.68,-31.898 -1.617,-7.164 -3.707,-14.438 -6.515,-21.277 -1.442,-3.493 -3.278,-7.196 -5.508,-10.297 -1.516,-2.086 -3.352,-4.067 -5.508,-5.543 -2.34,-1.473 -5.078,-2.41 -7.922,-2.551 -3.273,-0.223 -6.691,0.574 -9.433,2.477 -1.942,1.335 -3.739,3.531 -5.114,5.546 -2.082,3.204 -3.882,6.731 -5.394,10.332 -2.774,6.661 -4.68,14.293 -6.047,21.348 -1.836,10.078 -3.098,22.215 -3.887,32.363 -0.797,10.012 -1.515,21.606 -1.515,31.61 0,9.254 0.578,18.644 1.515,27.867 0.899,9.137 2.266,18.324 3.852,27.391 1.433,8.281 3.238,16.921 5.469,24.984 1.441,5.262 3.671,11.559 6.699,15.988 1.761,2.555 4.027,5.071 6.765,6.512 2.266,1.191 4.825,2.051 7.489,2.23 v 0" /></g></g></svg>