<?xml version="1.0" encoding="UTF-8" standalone="no"?>
<svg
   width="105.68256mm"
   height="105.68257mm"
   viewBox="0 0 105.68258 105.68258"
   version="1.1"
   id="svg3751"
   inkscape:version="1.2.2 (732a01da63, 2022-12-09)"
   sodipodi:docname="MA_road_sign_201_(Arabic).svg"
   xml:space="preserve"
   xmlns:inkscape="http://www.inkscape.org/namespaces/inkscape"
   xmlns:sodipodi="http://sodipodi.sourceforge.net/DTD/sodipodi-0.dtd"
   xmlns="http://www.w3.org/2000/svg"
   xmlns:svg="http://www.w3.org/2000/svg"
   xmlns:rdf="http://www.w3.org/1999/02/22-rdf-syntax-ns#"
   xmlns:cc="http://creativecommons.org/ns#"
   xmlns:dc="http://purl.org/dc/elements/1.1/"><defs
     id="defs3745" /><sodipodi:namedview
     id="base"
     pagecolor="#ffffff"
     bordercolor="#666666"
     borderopacity="1.0"
     inkscape:pageopacity="0.0"
     inkscape:pageshadow="2"
     inkscape:zoom="2.8360026"
     inkscape:cx="28.561328"
     inkscape:cy="226.19866"
     inkscape:document-units="mm"
     inkscape:current-layer="layer1"
     inkscape:document-rotation="0"
     showgrid="false"
     inkscape:window-width="1920"
     inkscape:window-height="991"
     inkscape:window-x="-9"
     inkscape:window-y="-9"
     inkscape:window-maximized="1"
     inkscape:showpageshadow="2"
     inkscape:pagecheckerboard="0"
     inkscape:deskcolor="#d1d1d1"
     showguides="true"><sodipodi:guide
       position="25.439763,44.573039"
       orientation="1,0"
       id="guide5279"
       inkscape:locked="false" /><sodipodi:guide
       position="-58.029136,-29.74439"
       orientation="0,-1"
       id="guide6134"
       inkscape:locked="false" /><sodipodi:guide
       position="-63.188512,-38.277203"
       orientation="0,-1"
       id="guide6136"
       inkscape:locked="false" /></sodipodi:namedview><metadata
     id="metadata3748"><rdf:RDF><cc:Work
         rdf:about=""><dc:format>image/svg+xml</dc:format><dc:type
           rdf:resource="http://purl.org/dc/dcmitype/StillImage" /><dc:title /></cc:Work></rdf:RDF></metadata><g
     inkscape:label="Layer 1"
     inkscape:groupmode="layer"
     id="layer1"
     transform="translate(-75.001999,-78.624745)"><path
       sodipodi:nodetypes="ccccccccc"
       inkscape:connector-curvature="0"
       id="path6933"
       d="m 149.70897,78.677534 30.9228,30.922776 v 43.73141 l -30.9228,30.92281 H 105.97759 L 75.054787,153.33173 V 109.60034 L 105.97757,78.677554 Z"
       style="fill:#000000;fill-opacity:1;stroke:none;stroke-width:0.105577;stroke-opacity:1" /><path
       sodipodi:nodetypes="ccccccccc"
       inkscape:connector-curvature="0"
       id="path6935"
       d="m 149.43331,79.343034 30.53296,30.532936 v 43.18009 l -30.53296,30.53297 H 106.25325 L 75.720287,153.05607 V 109.876 L 106.25323,79.343054 Z"
       style="fill:#ffffff;fill-opacity:1;stroke:none;stroke-width:0.104246" /><path
       sodipodi:nodetypes="ccccccccc"
       inkscape:connector-curvature="0"
       id="path6937"
       d="m 147.157,84.838534 27.31377,27.313746 v 38.62747 L 147.157,178.09353 H 108.52956 L 81.215787,150.77976 V 112.15231 L 108.52954,84.838554 Z"
       style="fill:#e63128;fill-opacity:1;stroke:none;stroke-width:0.093255" /><g
       id="g6948"
       transform="matrix(0.83290726,0,0,0.83290726,21.246427,7.5148632)"><path
         id="path6939"
         style="opacity:1;fill:#ffffff;fill-rule:evenodd;stroke:none;stroke-width:2.98505;stroke-linecap:round;paint-order:stroke fill markers"
         d="m 128.53243,119.04511 c -0.0423,-5e-4 -0.0845,5e-5 -0.12661,0.002 v -5.2e-4 c -1.26294,0.0368 -2.45927,0.84039 -3.51606,1.55081 -1.43926,0.96754 -2.61752,2.31472 -3.64629,3.71088 -1.22311,1.6599 -2.31765,3.46392 -3.05253,5.39037 -0.32736,0.85818 -0.5213,1.76902 -0.64285,2.67942 -0.13358,1.00053 -0.32495,2.14562 -0.0279,3.15433 0.24135,0.81959 0.80924,1.53219 1.40767,2.14199 2.30346,2.34728 5.96524,3.90746 8.14059,5.57434 1.83406,1.40537 2.39055,2.70784 2.39055,2.70784 h -6.81147 -1.97404 v 5.2e-4 h -19.25257 c 0,0 -2.657533,-0.44199 -4.107243,-2.09238 -1.14415,-1.30253 -1.27791,-3.25274 -1.36013,-4.96765 -0.047,-0.9811 0.23137,-1.95921 0.50281,-2.90319 0.261,-0.90762 0.63379,-1.78668 1.07332,-2.62257 0.58562,-1.11373 1.28678,-2.06113 2.06758,-3.15795 0.790033,-1.1098 1.498553,-2.16009 1.838643,-2.59261 0.10501,-0.13248 0.13248,-0.15018 0.0739,-0.17053 -0.0584,-0.0203 -0.12104,-0.0267 -0.17467,-0.008 -0.90734,0.31043 -4.452903,2.91208 -5.977923,4.59197 -2.02696,2.23279 -3.85857,4.85363 -4.64107,7.76593 -0.54094,2.01334 -0.4072,4.22775 0.0858,6.25337 0.35705,1.46709 1.23832,2.82902 2.02623,4.05143 0.90259,1.40032 2.49578,2.32227 4.04472,2.93574 1.42076,0.5627 4.548043,0.57774 4.548043,0.57774 h 61.30219 c 1.59173,0 2.87321,-1.28149 2.87321,-2.87321 v -4.78834 c 0,0 -0.17769,-3.03045 -0.60926,-6.32519 -0.31708,-2.42069 -0.81007,-4.93582 -1.27279,-6.74119 -0.40589,-1.58362 -1.06251,-3.80523 -1.83917,-5.79138 -1.01593,-2.59809 -1.57283,-4.60074 -3.21582,-6.28592 -0.85855,-0.8806 -2.0131,-1.69636 -3.24115,-1.7632 -0.0848,-0.005 -0.16953,-0.006 -0.25373,-0.003 -1.26295,0.0368 -2.45926,0.84039 -3.51606,1.55081 -1.43927,0.96754 -2.61751,2.31472 -3.64629,3.71088 -1.22312,1.6599 -2.19517,3.52128 -2.93005,5.44773 -0.32737,0.85818 -0.52131,1.76901 -0.64286,2.67943 -0.13358,1.00053 -0.091,3.02668 -0.091,3.02668 0,0 1.30332,1.80454 2.08669,2.58848 1.60894,1.61006 5.22677,3.53125 7.40214,5.19813 1.83408,1.40537 2.39055,2.70784 2.39055,2.70784 h -16.77986 c -1.6e-4,-8.8e-4 -0.67865,-3.73373 -1.03146,-5.5981 -0.47149,-2.49148 -0.98783,-5.66242 -1.45055,-7.46776 -0.40589,-1.58362 -1.06876,-3.91815 -1.83916,-5.79138 -0.89522,-2.17669 -1.57285,-4.60077 -3.21583,-6.28592 -0.85854,-0.8806 -2.0131,-1.69636 -3.24114,-1.7632 -0.0424,-0.003 -0.0848,-0.004 -0.12713,-0.005 z m -1.90066,7.66723 c 0.39615,0.004 0.77798,0.086 1.10536,0.26045 1.75369,0.93438 2.67794,3.53087 3.51762,6.06578 1.07327,3.24003 1.80815,6.42699 1.80815,6.42699 0,0 -0.50324,-0.20636 -2.40812,-1.37872 -1.37953,-0.84904 -4.06509,-2.58694 -5.08496,-3.28456 -0.832,-0.56911 -1.73447,-1.07428 -2.42001,-1.81332 -0.40874,-0.44064 -0.99736,-0.77613 -0.96996,-1.51981 0.0481,-1.30617 1.23462,-3.01399 2.0593,-3.8287 0.58059,-0.57357 1.5211,-0.93767 2.39262,-0.92811 z m 26.75857,0 c 0.39615,0.004 0.77797,0.086 1.10536,0.26045 1.7537,0.93438 2.67794,3.53087 3.51761,6.06578 1.07328,3.24005 1.80816,6.42699 1.80816,6.42699 0,0 -0.50323,-0.20636 -2.40812,-1.37872 -1.37954,-0.84904 -4.06508,-2.58694 -5.08496,-3.28456 -0.83201,-0.56911 -1.73447,-1.07428 -2.42001,-1.81332 -0.40875,-0.44064 -0.99736,-0.77613 -0.96996,-1.51981 0.0481,-1.30617 1.23461,-3.01399 2.0593,-3.8287 0.5806,-0.57357 1.52109,-0.93767 2.39262,-0.92811 z" /><path
         id="path6941"
         style="opacity:1;fill:#ffffff;fill-rule:evenodd;stroke:none;stroke-width:1.32292;stroke-linecap:round;paint-order:stroke fill markers"
         d="m 124.02091,102.16316 -6.16225,6.32497 6.3279,6.32821 5.66536,-6.6648 z"
         sodipodi:nodetypes="ccccc" /><path
         id="path6943"
         style="opacity:1;fill:#ffffff;fill-rule:evenodd;stroke:none;stroke-width:1.26994;stroke-linecap:round;paint-order:stroke fill markers"
         d="m 144.42293,103.50497 -5.9154,6.07198 6.07456,6.07456 5.43843,-6.39754 z m 14.2875,0 -5.9154,6.07198 6.07456,6.07456 5.43843,-6.39754 z" /></g><g
       id="circle6194"
       style="opacity:0.558245" /><g
       id="g6956"
       transform="matrix(2.2801788,0,0,2.2801788,-134.87919,-189.17112)"><g
         id="path6138"
         style="opacity:1;fill:#ffffff"
         transform="translate(102.12635,-67.164832)"><path
           id="path6268"
           style="color:#000000;fill:#ffffff;fill-rule:evenodd;stroke-linecap:round;-inkscape-stroke:none;paint-order:stroke fill markers"
           d="m 3.5587005,214.00568 c -1.1368932,0 -1.9091865,0.80076 -2.3223388,1.57044 -0.41315229,0.76971 -0.6056478,1.66423 -0.60564781,2.63654 0,0.97232 0.19249552,1.86735 0.60564781,2.63704 0.4131523,0.76971 1.1854456,1.57045 2.3223388,1.57045 1.1368933,0 1.9071198,-0.80074 2.3202718,-1.57045 0.4131523,-0.76969 0.6071981,-1.66472 0.6071981,-2.63704 0,-0.97231 -0.1940458,-1.86683 -0.6071981,-2.63654 -0.413152,-0.76968 -1.1833785,-1.57044 -2.3202718,-1.57044 z m -5.167e-4,1.44435 a 1.4825596,2.7620161 0 0 1 1.4660604,2.3487 H 2.0936737 a 1.4825596,2.7620161 0 0 1 1.4645101,-2.3487 z m -1.4567587,3.26647 h 2.9140341 a 1.4825596,2.7620161 0 0 1 -1.4572754,2.25774 1.4825596,2.7620161 0 0 1 -1.4567587,-2.25774 z" /></g><g
         id="path6192"
         style="opacity:1;fill:#ffffff"
         transform="translate(102.12635,-67.164832)"><path
           id="path6258"
           style="color:#000000;fill:#ffffff;fill-rule:evenodd;stroke-linecap:round;-inkscape-stroke:none;paint-order:stroke fill markers"
           d="m 9.3590457,214.23822 c -0.8701691,0 -1.5937012,0.72353 -1.5937012,1.5937 0,0.87017 0.7235321,1.5937 1.5937012,1.5937 0.8701693,0 1.5937013,-0.72353 1.5937013,-1.5937 0,-0.87017 -0.723532,-1.5937 -1.5937013,-1.5937 z m -5.167e-4,0.84388 a 0.74936342,0.74936342 0 0 1 0.749308,0.74931 0.74936342,0.74936342 0 0 1 -0.749308,0.7493 0.74936342,0.74936342 0 0 1 -0.7493083,-0.7493 0.74936342,0.74936342 0 0 1 0.7493083,-0.74931 z m -2.0003947,2.67167 v 0.91777 h 4.0018227 v -0.91777 z m 2.0009114,1.24643 c -0.8701691,0 -1.5937012,0.72354 -1.5937012,1.59371 0,0.87017 0.7235321,1.5937 1.5937012,1.5937 0.8701693,0 1.5937013,-0.72353 1.5937013,-1.5937 0,-0.87017 -0.723532,-1.59371 -1.5937013,-1.59371 z m -5.167e-4,0.8444 a 0.74936342,0.74936342 0 0 1 0.749308,0.74931 0.74936342,0.74936342 0 0 1 -0.749308,0.7493 0.74936342,0.74936342 0 0 1 -0.7493083,-0.7493 0.74936342,0.74936342 0 0 1 0.7493083,-0.74931 z" /></g><path
         id="text6336"
         style="font-weight:bold;font-size:5.82083px;line-height:0.7;font-family:'DS Greece';-inkscape-font-specification:'DS Greece Bold';text-align:center;text-anchor:middle;opacity:1;fill:#ffffff;fill-rule:evenodd;stroke:none;stroke-width:2.05829;stroke-linecap:round;stroke-dasharray:none;stroke-opacity:1;paint-order:stroke fill markers"
         d="m 116.54242,146.7809 -2.18415,8.53281 h 1.31614 l 1.7971,-7.02909 1.79709,7.02909 h 1.31614 l -2.18415,-8.53281 z" /><path
         id="path6389"
         style="font-weight:bold;font-size:5.82083px;line-height:0.7;font-family:'DS Greece';-inkscape-font-specification:'DS Greece Bold';text-align:center;text-anchor:middle;opacity:1;fill:#ffffff;fill-rule:evenodd;stroke:none;stroke-width:2.05829;stroke-linecap:round;stroke-dasharray:none;stroke-opacity:1;paint-order:stroke fill markers"
         d="m 123.64086,146.7809 -2.18415,8.53281 h 1.31613 l 1.7971,-7.02909 1.79709,7.02909 h 1.31614 l -2.18415,-8.53281 z" /></g></g></svg>
