<?xml version="1.0" encoding="utf-8"?>
<!-- Generator: Adobe Illustrator 11.0, SVG Export Plug-In  -->
<!DOCTYPE svg PUBLIC "-//W3C//DTD SVG 1.0//EN"    "http://www.w3.org/TR/2001/REC-SVG-20010904/DTD/svg10.dtd" [
	<!ENTITY ns_flows "http://ns.adobe.com/Flows/1.0/">
	<!ENTITY ns_svg "http://www.w3.org/2000/svg">
	<!ENTITY ns_xlink "http://www.w3.org/1999/xlink">
]>
<svg  xmlns="&ns_svg;" xmlns:xlink="&ns_xlink;" xmlns:a="http://ns.adobe.com/AdobeSVGViewerExtensions/3.0/"
	 width="543" height="101" viewBox="-0.964 -0.084 543 101" xml:space="preserve">
	<defs>
	</defs>
	<g>
		<rect x="0.108" y="0.108" fill="#FFFFFF" stroke="#000000" stroke-width="0.216" width="541.296" height="99.936"/> 
		<path d="M450.54,0.108H15.228l0,0c-8.352,0-15.12,6.768-15.12,15.12c0,0,0,0,0,0.072v69.624l0,0c0,8.352,6.768,15.12,15.12,15.12
			c0,0,0,0,0.072,0h435.24c3.96,0,7.92-1.008,11.448-2.88l75.456-40.392c2.448-1.368,3.96-3.888,3.96-6.696
			c0-2.808-1.512-5.328-3.96-6.696L461.988,2.988C458.46,1.116,454.5,0.108,450.54,0.108z"/>
		<path fill="#FFFFFF" d="M450.54,7.668H15.228l0,0c-4.176,0-7.56,3.384-7.56,7.56l0,0v69.696l0,0c0,4.176,3.384,7.56,7.56,7.56l0,0
			H450.54c3.6,0,7.056-1.152,9.936-3.312l44.568-33.048c1.944-1.368,3.024-3.672,3.024-6.048s-1.08-4.68-3.024-6.048L460.476,10.98
			C457.596,8.82,454.14,7.668,450.54,7.668z"/>
		<polygon points="73.836,24.3 57.492,75.852 43.596,75.852 27.18,24.3 37.044,24.3 50.508,66.708 63.972,24.3 "/>
		<path d="M289.692,75.852h9.36V53.1c0-7.848,11.808-7.848,11.808,0v22.752h9.432V51.156c-0.144-7.416-6.192-13.392-13.608-13.392
			c-2.736,0-5.4,0.792-7.632,2.304v-1.8h-9.36V75.852z"/>
		<path d="M243.036,57.132c0,0.144,0,0.288,0,0.504c0,6.12,2.88,11.952,7.848,15.624c2.952,2.16,6.552,3.312,10.224,3.312
			c0.144,0,0.288,0,0.432,0s0.288,0,0.432,0c4.824,0,9.504-1.656,13.32-4.608l-5.472-7.56c-2.736,2.448-6.48,3.456-10.152,2.736
			c-3.744-0.864-6.48-4.032-6.984-7.848h26.352v-3.024c-0.144-5.976-3.024-11.592-7.848-15.12c-2.952-2.16-6.48-3.384-10.152-3.384
			c-3.6,0-7.2,1.152-10.152,3.312c-4.968,3.672-7.848,9.504-7.848,15.624c0,0.216,0,0.36,0,0.504V57.132z"/>
		<path d="M194.58,38.268V24.3h-9.432v16.704c-1.728-1.44-3.816-2.376-6.048-2.736c-1.08-0.216-2.232-0.36-3.312-0.36
			c-1.872,0-3.672,0.288-5.472,0.936c-3.96,1.728-7.2,4.896-9.072,8.784c-1.152,3.024-1.728,6.264-1.728,9.576
			c0,3.24,0.576,6.48,1.728,9.576c2.016,4.464,5.904,7.848,10.584,9.36c1.224,0.288,2.448,0.432,3.672,0.432
			c1.224,0,2.448-0.144,3.6-0.432c2.232-0.504,4.32-1.44,6.12-2.736l-0.072,2.448h9.432V38.268z"/>
		<path d="M116.748,38.268h-9.432v2.736c-1.368-1.08-2.88-1.944-4.536-2.448c2.808-1.296,4.536-4.104,4.536-7.2c0,0,0,0,0-0.072
			c0-4.392-3.6-7.992-7.992-7.992c-4.464,0-8.064,3.528-8.064,7.992c0,2.88,1.512,5.472,3.96,6.984
			c-0.936,0.072-1.872,0.288-2.736,0.576c-3.96,1.728-7.2,4.896-9.072,8.784c-1.152,3.024-1.728,6.264-1.728,9.576
			c0,3.24,0.576,6.48,1.728,9.576c2.016,4.464,5.904,7.848,10.584,9.36c1.224,0.288,2.448,0.432,3.6,0.432
			c1.296,0,2.448-0.144,3.672-0.432c2.232-0.504,4.248-1.44,6.048-2.736v2.448h9.432V38.268z"/>
		<path fill="#FFFFFF" d="M107.316,61.308c-0.864,3.024-3.312,5.328-6.336,6.048c-1.944,0.432-3.888-0.072-5.472-1.224
			c-2.16-1.728-3.528-4.248-3.96-6.984c-0.144-1.368-0.144-2.808,0-4.248c0.432-2.736,1.8-5.184,3.96-6.912
			c1.584-1.224,3.528-1.656,5.472-1.224c3.024,0.648,5.472,3.024,6.336,6.048V61.308z"/>
		<path fill="#FFFFFF" d="M96.084,31.284L96.084,31.284c0,1.8,1.44,3.168,3.24,3.168c1.728,0,3.168-1.368,3.168-3.168
			c0-1.728-1.44-3.168-3.168-3.168C97.524,28.116,96.084,29.556,96.084,31.284z"/>
		<path d="M128.844,75.852h9.36V57.06c0.504-3.456,2.52-6.48,5.472-8.208c1.656-1.008,3.528-1.584,5.472-1.512
			c1.152,0,2.232,0.144,3.312,0.648v-9.72c-1.224-0.216-2.448-0.36-3.672-0.36c-3.744,0-7.416,1.08-10.584,3.096v-2.736h-9.36
			V75.852z"/>
		<path d="M213.012,73.116c-5.04-3.744-7.992-9.792-7.848-16.128c-0.144-6.264,2.808-12.24,7.848-15.984
			c6.336-4.608,14.976-4.68,21.312-0.072l-5.544,7.632c-1.44-1.08-3.168-1.584-4.968-1.584c-1.8,0-3.528,0.504-5.04,1.584
			c-2.664,1.872-4.248,4.896-4.248,8.208c0,0.072,0,0.216,0,0.288s0,0.216,0,0.288c0,3.24,1.584,6.336,4.248,8.208
			c1.512,1.008,3.24,1.584,5.04,1.584c1.8,0,3.528-0.576,4.968-1.584l5.472,7.56c-6.264,4.608-14.904,4.608-21.168,0H213.012z"/>
		<path fill="#FFFFFF" d="M185.148,61.308c-0.792,3.024-3.24,5.328-6.336,6.048c-1.872,0.432-3.888-0.072-5.472-1.224
			c-2.16-1.728-3.528-4.248-3.96-6.984c-0.144-1.368-0.144-2.808,0.072-4.248c0.36-2.736,1.728-5.184,3.888-6.912
			c1.584-1.224,3.6-1.656,5.472-1.224c3.096,0.648,5.544,3.024,6.336,6.048V61.308z"/>
		<path fill="#FFFFFF" d="M269.1,53.244c-0.648-3.96-4.104-6.84-8.064-6.84s-7.344,2.88-7.992,6.84H269.1z"/>
		<path d="M422.964,38.268h-9.36v2.736c-1.8-1.44-3.888-2.376-6.048-2.736c-1.152-0.216-2.232-0.36-3.384-0.36
			c-1.8,0-3.672,0.288-5.4,0.936c-3.96,1.728-7.2,4.896-9.072,8.784c-1.152,3.024-1.8,6.264-1.8,9.576c0,3.24,0.648,6.48,1.8,9.576
			c2.016,4.464,5.832,7.848,10.584,9.36c1.152,0.288,2.376,0.432,3.6,0.432c1.224,0,2.448-0.144,3.672-0.432
			c2.16-0.504,4.248-1.44,6.048-2.736v2.448h9.36V38.268z"/>
		<path d="M332.604,47.628v21.816c0,0.144,0,0.216,0,0.288c0,3.384,2.736,6.12,6.12,6.12c0.072,0,0.216,0,0.288,0h6.624V66.42
			h-1.512c-1.152,0.072-2.088-0.792-2.088-1.944c0-0.072,0-0.144,0-0.144V47.628h4.68v-9.36h-0.72h-3.96V24.3l-9.432,4.608v9.36
			h-3.744v9.36H332.604z"/>
		<path d="M357.228,75.852h9.432V57.06c0.432-3.456,2.448-6.48,5.472-8.208c1.584-1.008,3.456-1.584,5.4-1.512
			c1.152,0,2.304,0.144,3.312,0.648v-9.72c-1.152-0.216-2.376-0.36-3.6-0.36c-3.744,0-7.416,1.08-10.584,3.096v-2.736h-9.432V75.852
			z"/>
		<polygon points="435.06,75.852 444.492,75.852 444.492,45.54 444.492,24.3 435.06,24.3 435.06,45.54 "/>
		<path fill="#FFFFFF" d="M413.604,61.308c-0.864,3.024-3.312,5.328-6.408,6.048c-1.872,0.432-3.888-0.072-5.4-1.224
			c-2.16-1.728-3.6-4.248-3.96-6.984c-0.216-1.368-0.216-2.808,0-4.248c0.36-2.736,1.8-5.184,3.96-6.912
			c1.512-1.224,3.528-1.656,5.472-1.224c3.024,0.648,5.472,3.024,6.336,6.048V61.308z"/>
	</g>
</svg>
