<?xml version="1.0" encoding="UTF-8" standalone="no"?>
<svg xmlns="http://www.w3.org/2000/svg" width="2710" height="3250" version="1.0">
  <path fill="#fff" stroke="#000" stroke-width="10.0002" d="M2704.99943748 3076.24707029c0 93.1999068-75.55001969 168.74992648-168.74992649 168.74992648H173.7494735c-93.19824965 0-168.74999315-75.55001968-168.74999315-168.74992648V173.74700136c0-93.19819252 75.5517435-168.74992649 168.74999315-168.74992649H2536.249511c93.1999068 0 168.74992649 75.55173397 168.74992649 168.74992649v2902.50006893z"/>
  <path d="M173.74949254 3199.99700368c-68.23612224 0-123.75000958-55.51251592-123.75000958-123.74997149V173.74700136c0-68.23612224 55.51388734-123.74997149 123.75000958-123.74997149H2536.249511c68.23745557 0 123.74997149 55.51384925 123.74997149 123.74997149v2902.50003083c0 68.23745557-55.51251592 123.74997149-123.74997149 123.74997149H173.74949254z"/>
  <path fill="#fff" d="M173.7494735 3132.4969569c-31.0162547 0-56.2500009-25.23749858-56.2500009-56.24984852V173.74700136c0-31.01615946 25.2337462-56.25003899 56.2500009-56.25003899H2536.249511c31.01234993 0 56.2498485 25.23387953 56.2498485 56.25003899v2902.50010702c0 31.01234994-25.23749857 56.24984851-56.2498485 56.24984851H173.7494735z"/>
  <path d="M2266.18692391 507.89200055c-20.4999795-11.05122705-44.15005109-17.36874454-67.7999322-17.36874454h-68.27497934v288.95007296h68.27497934c23.64988111 0 45.72490666-6.31749845 64.64984011-17.37000168 47.30014318-25.26248902 69.37516872-66.31500035 69.37516872-127.89373877 0-59.99994-22.07502554-101.05247038-66.22507663-126.31758797zm37.85005739 325.26382711c-31.53749227 17.36874454-69.38754966 26.84374459-105.64998959 26.84374459H2048.1119039V409.99705082h150.27508782c37.83748597 0 74.11249732 9.47370482 107.22484516 28.42244777 69.37516872 39.47253196 107.22503563 107.36884501 107.22503563 195.79008993 0 89.9987481-37.84986691 159.47248814-108.7998912 198.94623914zm-1110.92500336 26.84374459V409.99705082h329.57500376v80.5262052h-247.17499092v83.6863925h134.67498913v82.10368932h-134.67498913v123.15999113h255.09999252v80.52624328h-337.50000536zm427.5000106 0V409.99705082h329.5750609v80.5262052h-247.17506711v83.6863925h134.67498913v82.10368932h-134.67498913v123.15999113h255.10001156v80.52624328h-337.50000535zm-650.761254-369.47631624H833.9519752v112.106326h135.89875934c39.45249388 0 66.27749562-22.10624457 66.27749562-55.26371617 0-34.73501289-26.82500174-56.84260983-66.27749562-56.84260983zm77.32498934 175.26631997c-25.24749857 14.21250008-45.76374472 17.3662493-80.48249095 17.3662493H833.9519752v176.84374697h-82.06374651V409.99705082h214.80500424c34.71874623 0 55.23499238 4.73637622 80.48249095 18.94874296 42.61250977 23.68378584 69.43751151 67.89497972 69.43751151 118.42007206 0 47.36997167-26.82500174 94.73870526-69.43751151 118.42371014zm-582.23998919-7.72374465c-20.02876092-5.52999447-70.39499627-17.61874429-87.39000785-27.58250575-33.87373755-19.86123729-59.766245-52.33749052-59.766245-100.48506142 0-74.20983056 63.42875562-124.73739908 155.40249222-124.73739908 66.60126673 0 122.10376361 22.10626361 168.09126048 69.47364482l-60.25999688 53.6864225c-28.5425048-30.00263666-65.01500165-44.21138436-107.8312636-44.21138436-45.98749687 0-72.94499372 17.36760168-72.94499372 45.78871612 0 25.2626414 15.85874605 36.31634463 71.35874769 48.9475701 60.25875879 12.6312445 99.90500486 25.26248902 125.27499853 37.89624781 39.64626512 20.524989 65.0162588 63.15999399 65.0162588 112.1062498 0 45.78875421-20.61375082 80.52624329-63.42999372 105.78998945-31.71375876 18.94750486-72.94375562 29.99751286-114.1725144 29.99751286-77.70375086 0-136.37750171-28.42000968-187.12249859-86.8412465l65.0162588-50.52751137c33.30250003 39.47624624 69.77499689 56.84624792 120.51873662 56.84624792 57.08626672 0 98.31626359-25.2662414 98.31626359-58.42249396 0-42.23624348-45.9412493-48.36875163-116.07750297-67.72499894zm480.45500526 876.93129449v-449.99505476h80.99749995v449.99505476h-80.99749995zm738.22124273 0v-449.99505476h81.00001424v449.99505476h-81.00001424zm-1152.2262573 0v-449.99505476h80.81001443v380.52005757h256.68999093v69.4749972H531.38572538zm955.97635831 0V1260.259572l-133.15009542 274.73755383-131.56870653-274.73755383v274.73755383h-79.25500646v-449.99755h79.25500646l131.56870653 266.84750458 133.15009542-266.84750458h79.24999694v449.99755h-79.24999694zm561.92486665-371.04749562v371.04749562h-78.8500164V1163.9496302h-129.32501352v-78.94624486h337.50004345v78.94624486h-129.32501353zM790.30198075 2858.95959234c-148.42748967 0-281.63000408-37.8999621-418.6400004-121.2625454l102.75625914-162.94992468c95.14624771 56.83746697 205.51499449 87.15000809 315.88374126 87.15000809 163.65000778 0 262.6024993-71.999928 262.6024993-193.2626633 0-56.83746755-26.6399924-113.67493452-68.50374102-147.78747184-38.05876194-30.31254112-95.148762-45.47481929-175.0700154-45.47481929-72.31249912 0-129.39748965 11.37503625-209.3212383 41.6873945l-194.09750114-49.26262502 34.25375622-507.799816h723.10624832l-3.80626286 189.47489623H622.84572916l-11.4149981 155.37500653c87.5312458-18.9500001 140.8125068-26.5249068 209.31874305-26.5249068 247.377505 0 426.25124994 166.73750945 426.25124994 390.31234168 0 227.37500253-190.29000018 390.3251253-456.6987433 390.3251253zm1354.33496947-560.8500982c0-227.3749612-94.95000028-363.78735812-258.27497982-363.78735812-193.69999677 0-262.06248079 200.83739916-262.06248079 359.99993333 0 238.73747555 98.74999649 371.3750572 262.0624808 371.3750572 159.52498333 0 258.27497981-147.78766174 258.27497981-371.3750572v3.78742479zm-258.27497982 560.8500982c-322.83748668 0-455.76249661-276.63762051-455.76249661-560.8500982 0-284.21237103 136.72500613-557.04986962 455.76249661-557.04986962 322.83739145 0 451.9749766 280.4124053 451.9749766 553.26244483 0 276.63762813-125.33758895 564.63752299-451.9749766 564.63752299z"/>
</svg>