<?xml version="1.0" encoding="UTF-8" standalone="no"?>
<!-- Created with Inkscape (http://www.inkscape.org/) -->

<svg
   xmlns:dc="http://purl.org/dc/elements/1.1/"
   xmlns:cc="http://creativecommons.org/ns#"
   xmlns:rdf="http://www.w3.org/1999/02/22-rdf-syntax-ns#"
   xmlns:svg="http://www.w3.org/2000/svg"
   xmlns="http://www.w3.org/2000/svg"
   xmlns:sodipodi="http://sodipodi.sourceforge.net/DTD/sodipodi-0.dtd"
   xmlns:inkscape="http://www.inkscape.org/namespaces/inkscape"
   width="161.53125"
   height="124.8125"
   id="svg4779"
   version="1.1"
   inkscape:version="0.48.2 r9819"
   sodipodi:docname="MUTCD E5-1.svg">
  <defs
     id="defs4781" />
  <sodipodi:namedview
     id="base"
     pagecolor="#ffffff"
     bordercolor="#666666"
     borderopacity="1.0"
     inkscape:pageopacity="0.0"
     inkscape:pageshadow="2"
     inkscape:zoom="4"
     inkscape:cx="97.956211"
     inkscape:cy="57.433706"
     inkscape:document-units="px"
     inkscape:current-layer="layer1"
     showgrid="false"
     inkscape:window-width="1280"
     inkscape:window-height="1004"
     inkscape:window-x="-8"
     inkscape:window-y="-8"
     inkscape:window-maximized="1"
     fit-margin-top="0"
     fit-margin-left="0"
     fit-margin-right="0"
     fit-margin-bottom="0"
     showguides="true"
     inkscape:guide-bbox="true" />
  <metadata
     id="metadata4784">
    <rdf:RDF>
      <cc:Work
         rdf:about="">
        <dc:format>image/svg+xml</dc:format>
        <dc:type
           rdf:resource="http://purl.org/dc/dcmitype/StillImage" />
        <dc:title></dc:title>
      </cc:Work>
    </rdf:RDF>
  </metadata>
  <g
     inkscape:label="Layer 1"
     inkscape:groupmode="layer"
     id="layer1"
     transform="translate(-516.53125,2350.4375)">
    <path
       inkscape:connector-curvature="0"
       d="m 664.58688,-2349.8261 -134.585,0 c -7.09125,0 -12.86125,5.7688 -12.86125,12.8601 l 0,97.8799 c 0,7.0913 5.77,12.8613 12.86125,12.8613 l 134.585,0 c 7.09125,0 12.86125,-5.77 12.86125,-12.8613 l 0,-97.8799 c 0,-7.0913 -5.77,-12.8601 -12.86125,-12.8601"
       style="fill:#ffffff;fill-opacity:1;fill-rule:nonzero;stroke:#000000;stroke-width:1.20000005;stroke-miterlimit:4;stroke-opacity:1;stroke-dasharray:none"
       id="path3274"
       sodipodi:nodetypes="csssssssc" />
    <path
       inkscape:connector-curvature="0"
       d="m 530.00138,-2229.9086 c -2.43625,0 -4.73875,-0.96 -6.4775,-2.6987 -1.73875,-1.7388 -2.69875,-4.0388 -2.69875,-6.4788 l 0,-97.8799 c 0,-2.4363 0.96,-4.7388 2.69875,-6.4775 1.73875,-1.7413 4.04125,-2.6976 6.4775,-2.6976 l 134.585,0 c 2.43875,0 4.74125,0.9563 6.47875,2.6976 1.73875,1.7387 2.7,4.0412 2.7,6.4775 l 0,97.8799 c 0,2.44 -0.96125,4.74 -2.7,6.4788 -1.7375,1.7387 -4.04,2.6987 -6.47875,2.6987 l -134.585,0 z"
       style="fill:#00674c;fill-opacity:1;fill-rule:nonzero;stroke:none"
       id="path3270" />
    <path
       inkscape:connector-curvature="0"
       d="m 552.94201,-2304.3385 0,-24.4713 17.92125,0 0,4.38 -13.43875,0 0,4.5513 7.3225,0 0,4.4637 -7.3225,0 0,6.6975 13.87125,0 0,4.3788 -18.35375,0 z"
       style="fill:#ffffff;fill-opacity:1;fill-rule:nonzero;stroke:none"
       id="path3278" />
    <path
       inkscape:connector-curvature="0"
       d="m 609.79626,-2328.8099 4.405,0 0,24.4712 -4.405,0 0,-24.4712 z"
       style="fill:#ffffff;fill-opacity:1;fill-rule:nonzero;stroke:none"
       id="path3280" />
    <path
       inkscape:connector-curvature="0"
       d="m 634.61313,-2324.5161 0,20.1775 -4.2875,0 0,-20.1775 -7.03,0 0,-4.2925 18.35125,0 0,4.2925 -7.03375,0 z"
       style="fill:#ffffff;fill-opacity:1;fill-rule:nonzero;stroke:none"
       id="path3284" />
    <path
       inkscape:connector-curvature="0"
       d="m 595.28938,-2304.3385 -5.52125,-8.6725 -5.43375,8.6725 -5.1725,0 8.02,-12.8788 -7.33,-11.5912 5.26,0 4.65625,7.4687 4.6575,-7.4687 5.26125,0 -7.245,11.5912 8.0225,12.8788 -5.175,0 z"
       style="fill:#ffffff;fill-opacity:1;fill-rule:nonzero;stroke:none"
       id="path3288" />
    <path
       inkscape:connector-curvature="0"
       d="m 553.08001,-2277.3573 -14.2975,14.6825 14.2975,0 0,-14.6825 z m 6.43875,20.6075 0,7.4688 -6.43875,0 0,-7.4688 -22.67,0 0,-5.925 22.67,-23.3112 6.43875,0 0,23.3112 5.4125,0 0,5.925 -5.4125,0 z"
       style="fill:#ffffff;fill-opacity:1;fill-rule:nonzero;stroke:none"
       id="path3292" />
    <path
       inkscape:connector-curvature="0"
       d="m 592.73938,-2277.3573 -14.295,14.6825 14.295,0 0,-14.6825 z m 6.44,20.6075 0,7.4688 -6.44,0 0,-7.4688 -22.67,0 0,-5.925 22.67,-23.3112 6.44,0 0,23.3112 5.4125,0 0,5.925 -5.4125,0 z"
       style="fill:#ffffff;fill-opacity:1;fill-rule:nonzero;stroke:none"
       id="path3296" />
    <path
       inkscape:connector-curvature="0"
       d="m 658.19939,-2253.6073 c 0.0125,-0.016 0.0225,-0.034 0.035,-0.051 0.06,-0.1125 0.10625,-0.2287 0.13875,-0.345 0.002,-0.01 0.01,-0.021 0.0125,-0.031 l -0.002,0 c 0.007,-0.04 0.0213,-0.081 0.0288,-0.1213 l 0.0563,-0.3962 5.6175,-29 0.0762,-0.545 c 0.0775,-0.545 -0.1025,-1.0888 -0.46625,-1.45 -0.415,-0.4163 -0.96,-0.5963 -1.475,-0.4938 l -0.36375,0.073 -29.085,5.665 -0.5125,0.084 c -0.33375,0.075 -0.595,0.2325 -0.85375,0.49 -0.65,0.6487 -0.6725,1.7112 0,2.385 0.0775,0.077 0.21,0.1537 0.31,0.2063 l 0.3125,0.1724 10.35125,6.3625 -25.30375,23.2338 8.4675,8.4687 23.2325,-25.2537 0,-0.05 6.2675,10.195 0.26125,0.3725 c 0.075,0.1287 0.15625,0.2575 0.25875,0.3612 0.64625,0.6475 1.73375,0.6475 2.3825,0 0.1025,-0.1037 0.18375,-0.2175 0.25375,-0.3337"
       style="fill:#ffffff;fill-opacity:1;fill-rule:nonzero;stroke:none"
       id="path3300" />
  </g>
</svg>
