<?xml version="1.0" encoding="UTF-8" standalone="no"?>
<!-- Created with Inkscape (http://www.inkscape.org/) -->

<svg
   xmlns:dc="http://purl.org/dc/elements/1.1/"
   xmlns:cc="http://creativecommons.org/ns#"
   xmlns:rdf="http://www.w3.org/1999/02/22-rdf-syntax-ns#"
   xmlns:svg="http://www.w3.org/2000/svg"
   xmlns="http://www.w3.org/2000/svg"
   xmlns:sodipodi="http://sodipodi.sourceforge.net/DTD/sodipodi-0.dtd"
   xmlns:inkscape="http://www.inkscape.org/namespaces/inkscape"
   version="1.1"
   width="500.39999"
   height="500.39999"
   id="svg2"
   xml:space="preserve"
   inkscape:version="0.48.4 r9939"
   sodipodi:docname="Ajax.svg"><sodipodi:namedview
     pagecolor="#ffffff"
     bordercolor="#666666"
     borderopacity="1"
     objecttolerance="10"
     gridtolerance="10"
     guidetolerance="10"
     inkscape:pageopacity="0"
     inkscape:pageshadow="2"
     inkscape:window-width="1280"
     inkscape:window-height="1001"
     id="namedview28"
     showgrid="false"
     fit-margin-top="0.2"
     fit-margin-left="0.2"
     fit-margin-right="0.2"
     fit-margin-bottom="0.2"
     inkscape:zoom="0.50515648"
     inkscape:cx="359.64506"
     inkscape:cy="296.37049"
     inkscape:window-x="-8"
     inkscape:window-y="-8"
     inkscape:window-maximized="1"
     inkscape:current-layer="svg2"
     showguides="true"
     inkscape:guide-bbox="true" /><metadata
     id="metadata8"><rdf:RDF><cc:Work
         rdf:about=""><dc:format>image/svg+xml</dc:format><dc:type
           rdf:resource="http://purl.org/dc/dcmitype/StillImage" /><dc:title /></cc:Work></rdf:RDF></metadata><defs
     id="defs6" /><path
     id="path3890"
     d="m 250.2,475.2 c 124.26407,0 225,-100.73593 225,-225 0,-124.26407 -100.73593,-225 -225,-225 -124.26407,0 -225,100.73593 -225,225 0,124.26407 100.73593,225 225,225 z"
     style="fill:#ffffff;fill-opacity:1;stroke:none"
     inkscape:connector-curvature="0"
     sodipodi:nodetypes="sssss" /><path
     style="fill:#000000;stroke:none"
     d="m 212.84,116.33 74.72,0 0,267.74 -74.72,0 z"
     id="rect3784"
     inkscape:connector-curvature="0" /><path
     sodipodi:nodetypes="ccccc"
     inkscape:connector-curvature="0"
     id="path3787"
     d="m 480.2,185.865 -460,0 0,128.67 460,0 z"
     style="fill:#000000;stroke:none" /><path
     style="fill:#d20000;fill-opacity:1;stroke:none"
     d="m 250.2,500.2 c -138.07119,0 -250,-111.9288 -250,-250 0,-138.0712 111.92881,-250 250,-250 138.07119,0 250,111.9288 250,250 0,138.0712 -111.92881,250 -250,250 z m 0,-43.5 c 114.0468,0 206.5,-92.4532 206.5,-206.5 0,-114.0468 -92.4532,-206.5 -206.5,-206.5 -114.0468,0 -206.5,92.4532 -206.5,206.5 0,114.0468 92.4532,206.5 206.5,206.5 z"
     id="path3822"
     inkscape:connector-curvature="0" /><path
     inkscape:connector-curvature="0"
     id="path3846"
     d="m 163.35352,202.40832 c 0,1.78462 0,12.56244 0,14.35095 2.04568,0 29.46561,0 29.46561,0 0,0 0,79.43483 0,81.58573 1.82748,0 14.46787,0 16.29923,0 0,-2.1509 0,-81.58573 0,-81.58573 0,0 27.42384,0 29.46952,0 0,-1.78851 0,-12.56633 0,-14.35095 -2.11582,0 -73.12244,0 -75.23436,0 z"
     style="fill:#ffffff;stroke:none;overflow:visible" /><path
     inkscape:connector-curvature="0"
     id="path3848"
     d="m 282.33727,202.17064 c -16.03815,0.3273 -29.88644,14.22626 -30.24103,30.34624 v 35.35719 c 0.35459,16.11999 14.20288,30.01505 30.24103,30.34233 h 19.99704 c 16.03815,-0.32728 29.88256,-14.22234 30.23714,-30.34233 v -35.35719 c -0.35458,-16.11998 -14.19899,-30.01894 -30.23714,-30.34624 h -19.99704 z m -14.72502,66.15932 v -36.26897 c 0.0935,-7.87881 6.58905,-14.37823 14.47955,-14.48734 0.004,0 20.488,0 20.488,0 7.88659,0.10521 14.37822,6.60463 14.47953,14.48734 v 36.26897 c -0.0975,7.8827 -6.58904,14.37824 -14.47953,14.48344 h -20.48411 c -7.89439,-0.10131 -14.38992,-6.59684 -14.48344,-14.48344 z"
     style="fill:#ffffff;stroke:none;overflow:visible" /><path
     inkscape:connector-curvature="0"
     id="path3850"
     d="m 347.09384,202.40832 c 0,2.13531 0,93.80138 0,95.93668 1.83139,0 14.47176,0 16.30312,0 0,-2.11192 0,-48.00535 0,-48.00535 h 37.84323 c 13.21705,0 23.95981,-10.75055 23.95981,-23.96372 0,-13.21316 -10.74665,-23.96371 -23.95981,-23.96371 0,-0.004 -52.02272,-0.004 -54.14635,-0.004 z m 16.30312,14.93933 h 37.84323 c 4.3953,0 8.25287,4.21606 8.25287,9.02049 0,4.80833 -3.85757,9.02828 -8.25287,9.02828 h -37.84323 v -18.04877 z"
     style="fill:#ffffff;stroke:none;overflow:visible" /><path
     inkscape:connector-curvature="0"
     id="path3852"
     d="m 75.913071,230.40106 c 0,21.0413 24.555989,23.71823 35.041569,24.85991 22.82203,2.48599 22.82203,10.40766 22.82203,13.01054 0,10.82459 -11.33892,14.68606 -21.9531,14.68606 -11.45193,0 -18.718971,-3.33543 -21.898551,-9.71797 -1.375478,0.54163 -12.905331,5.06939 -14.725019,5.77857 3.448446,7.66059 12.589715,19.32293 36.62357,19.32293 22.1752,0 37.66394,-12.36762 37.66394,-30.06959 0,-11.08175 -6.38252,-24.9846 -36.79502,-28.30445 -19.439828,-2.11972 -21.068576,-6.05133 -21.068576,-9.566 0,-6.23836 7.722934,-12.96379 20.199656,-12.96379 11.45194,0 18.71897,3.33545 21.89854,9.71407 1.37549,-0.54162 12.90535,-5.0655 14.72502,-5.77467 -3.44844,-7.66449 -12.58582,-19.32294 -36.62356,-19.32294 -22.475236,-0.004 -35.910499,14.4133 -35.910499,28.34733 z"
     style="fill:#ffffff;stroke:none;overflow:visible" /></svg>