<?xml version="1.0" encoding="utf-8"?>
<!-- Generator: Adobe Illustrator 15.0.2, SVG Export Plug-In . SVG Version: 6.00 Build 0)  -->
<!DOCTYPE svg PUBLIC "-//W3C//DTD SVG 1.1//EN" "http://www.w3.org/Graphics/SVG/1.1/DTD/svg11.dtd">
<svg version="1.1" id="Layer_1" xmlns="http://www.w3.org/2000/svg" xmlns:xlink="http://www.w3.org/1999/xlink" x="0px" y="0px"
	 width="50px" height="50px" viewBox="0 0 50 50" enable-background="new 0 0 50 50" xml:space="preserve">
<polygon fill="#D92827" points="24.938,50 14.627,49.883 7.435,42.624 0.24,35.366 0.24,25.066 0.24,14.765 7.554,7.506 
	14.748,0.132 25.061,0.25 35.25,0.25 42.445,7.506 49.76,14.881 49.641,25.183 49.641,35.482 42.445,42.742 35.13,50 "/>
<path fill="#FFFFFF" d="M2.158,15.583v18.964l13.31,13.461h18.823l13.43-13.346V15.701L34.411,2.239L15.587,2.123L2.158,15.583z
	 M15.108,48.712L1.439,34.781V15.232L15.228,1.419h19.543l13.787,13.93l-0.119,19.667L34.652,48.829L15.108,48.712z"/>
<g>
	<path fill="#FFFFFF" d="M7.813,19.026h2.958l4.318,12.223h-2.788l-0.765-2.517H7.031l-0.867,2.517H3.478L7.813,19.026z
		 M10.805,26.643l-1.53-4.863l-1.581,4.863H10.805z"/>
	<path fill="#FFFFFF" d="M16.721,19.026h2.567v9.996h6.069v2.228h-8.636V19.026z"/>
	<path fill="#FFFFFF" d="M27.176,21.185h-3.672v-2.159h9.928v2.159h-3.688v10.064h-2.567V21.185z"/>
	<path fill="#FFFFFF" d="M34.418,25.333c0-1.303,0.204-2.454,0.611-3.451c0.42-0.997,1.072-1.773,1.955-2.329
		c0.907-0.567,2.023-0.85,3.35-0.85c0.759,0,1.479,0.125,2.158,0.374c0.726,0.261,1.35,0.646,1.871,1.156
		c0.543,0.521,0.975,1.19,1.291,2.006c0.318,0.816,0.477,1.808,0.477,2.975c0,1.009-0.137,1.904-0.408,2.687
		c-0.295,0.793-0.691,1.456-1.189,1.988c-0.51,0.545-1.129,0.964-1.854,1.258c-0.748,0.295-1.553,0.442-2.414,0.442
		c-1.179,0-2.199-0.261-3.06-0.782c-0.884-0.532-1.554-1.224-2.007-2.074c-0.237-0.464-0.424-0.945-0.561-1.444
		c-0.147-0.476-0.221-0.979-0.221-1.513V25.333z M37.732,28.121c0.533,0.873,1.377,1.309,2.533,1.309
		c0.793,0,1.439-0.215,1.938-0.646c0.477-0.419,0.828-0.935,1.055-1.548c0.215-0.6,0.323-1.223,0.323-1.869
		c0-1.065-0.216-2.08-0.646-3.043c-0.42-0.952-1.332-1.428-2.738-1.428c-0.521,0-1.008,0.125-1.461,0.374
		c-0.477,0.25-0.885,0.674-1.225,1.275c-0.17,0.284-0.306,0.635-0.408,1.054c-0.113,0.385-0.17,0.799-0.17,1.241
		C36.934,26.154,37.2,27.248,37.732,28.121z"/>
</g>
</svg>
