<?xml version="1.0" encoding="UTF-8" standalone="no"?>
<!-- Created with Inkscape (http://www.inkscape.org/) -->

<svg
   xmlns:dc="http://purl.org/dc/elements/1.1/"
   xmlns:cc="http://creativecommons.org/ns#"
   xmlns:rdf="http://www.w3.org/1999/02/22-rdf-syntax-ns#"
   xmlns:svg="http://www.w3.org/2000/svg"
   xmlns="http://www.w3.org/2000/svg"
   xmlns:inkscape="http://www.inkscape.org/namespaces/inkscape"
   version="1.1"
   width="467.63"
   height="356.88"
   id="svg2"
   xml:space="preserve"><defs
     id="defs57" /><metadata
     id="metadata8"><rdf:RDF><cc:Work
         rdf:about=""><dc:format>image/svg+xml</dc:format><dc:type
           rdf:resource="http://purl.org/dc/dcmitype/StillImage" /></cc:Work></rdf:RDF></metadata><g
     transform="matrix(1.25,0,0,-1.25,-146.16,679.66)"
     id="g10"><g
       transform="scale(0.1,0.1)"
       id="g12"><path
         d="m 4910.2,2777.2 c 0.22,-107.55 -87.08,-194.86 -195,-195 h -3351 c -107.42,0.14 -194.72,87.45 -195,195 v 2465 c 0.28,108.05 87.58,195.36 195,195 h 3351 c 107.92,0.36 195.22,-86.95 195,-195 v -2465"
         inkscape:connector-curvature="0"
         id="path14" /><path
         d="m 4809.2,2777.2 c -0.04,-51.63 -42,-93.6 -94,-94 h -3351 c -51.49,0.4 -93.46,42.37 -93,94 v 2465 c -0.46,52.13 41.51,94.1 93,94 h 3351 c 52,0.1 93.96,-41.87 94,-94 v -2465"
         inkscape:connector-curvature="0"
         id="path16"
         style="fill:#ffffff" /><path
         d="m 1574.2,5136.2 h 84 l 174,-256 v 256 h 77 v -382 h -84 l -175,256 v -256 h -76 v 382"
         inkscape:connector-curvature="0"
         id="path18" /><path
         d="m 1985.2,4888.2 c -0.25,111.11 64.79,151.77 130,152 58.92,-0.23 132.64,-40.89 133,-152 -0.36,-81.86 -54.02,-143.65 -129,-144 -83.3,0.35 -134.25,57.27 -134,144"
         inkscape:connector-curvature="0"
         id="path20" /><path
         d="m 2173.2,4888.2 c 0.38,64.5 -21.84,84.55 -54,85 -41.56,-0.45 -58.36,-34.05 -58,-85 -0.36,-44.45 21.32,-78.06 58,-78 35.41,-0.06 54.38,33.55 54,78"
         inkscape:connector-curvature="0"
         id="path22"
         style="fill:#ffffff" /><path
         d="m 2600.2,4857.2 56,171 h 76 l -92,-274 h -83 l -95,274 h 80 l 58,-171"
         inkscape:connector-curvature="0"
         id="path24" /><path
         d="m 2967.2,4841.2 44,-47 c -34.92,-32.3 -58.23,-45.86 -108,-46 -85.2,0.14 -137.23,63.02 -137,147 -0.23,74.84 48.01,140.43 122,140 81.04,0.43 130.9,-59.74 131,-150 v -19 h -181 c 1.48,-31.13 30.21,-53.89 67,-54 20.13,0.11 31.51,3.36 62,29"
         inkscape:connector-curvature="0"
         id="path26" /><path
         d="m 2838.2,4922.2 h 111 c -1.65,27.25 -28.75,51.64 -56,52 -27.5,-0.36 -50.8,-22.04 -55,-52"
         inkscape:connector-curvature="0"
         id="path28"
         style="fill:#ffffff" /><path
         d="m 3224.2,5035.2 c 56.81,0.43 104.51,-49.44 105,-114 v -167 h -75 v 168 c 0.25,28.87 -14.93,44.59 -47,45 -34.6,-0.41 -51.95,-27.51 -52,-58 v -155 h -73 v 383 h 73 v -127 c 29.32,21.64 45.04,25.43 69,25"
         inkscape:connector-curvature="0"
         id="path30" /><path
         d="m 3403.2,4754.2 h 73 v 276 h -73 v -276 z"
         inkscape:connector-curvature="0"
         id="path32" /><path
         d="m 3397.2,5099.2 c 0.4,22.62 18.83,42.13 42,42 23.45,0.13 41.87,-19.38 42,-43 -0.13,-22.46 -18.55,-41.43 -42,-41 -23.17,-0.43 -41.6,18.54 -42,42"
         inkscape:connector-curvature="0"
         id="path34" /><path
         d="m 3537.2,4888.2 c -0.22,86.18 44.77,147.97 133,148 52.16,-0.03 103.66,-34.18 123,-90 l -71,-27 c -9.05,30.79 -27.48,50.84 -56,51 -37.61,-0.16 -52.79,-37.02 -53,-82 0.21,-47.71 14.3,-79.14 54,-79 28.06,-0.14 42.7,15.03 55,50 l 73,-27 c -24.6,-61.63 -62,-88.19 -127,-88 -86.23,-0.19 -131.22,56.72 -131,144"
         inkscape:connector-curvature="0"
         id="path36" /><path
         d="m 3849.2,5138.2 h 73 v -281 c -0.23,-29.71 4.64,-36.76 20,-38 9.58,-0.39 17.17,0.15 27,3 l 8,-64 c -25.96,-6.6 -50.36,-10.94 -68,-11 -17.59,0.06 -59.87,6.02 -60,70 v 321"
         inkscape:connector-curvature="0"
         id="path38" /><path
         d="m 4210.2,4841.2 44,-47 c -35.22,-32.3 -58.53,-45.86 -108,-46 -85.5,0.14 -137.54,63.02 -138,147 0.46,74.84 48.71,140.43 123,140 80.73,0.43 130.6,-59.74 131,-150 v -19 h -181 c 1.18,-31.13 29.91,-53.89 66,-54 20.82,0.11 32.21,3.36 63,29"
         inkscape:connector-curvature="0"
         id="path40" /><path
         d="m 4081.2,4922.2 h 111 c -1.95,27.25 -29.05,51.64 -56,52 -27.8,-0.36 -51.11,-22.04 -55,-52"
         inkscape:connector-curvature="0"
         id="path42"
         style="fill:#ffffff" /><path
         d="m 4419.2,4928.2 45,-7 c 48.66,-6.45 77.39,-40.05 77,-83 0.39,-55.16 -45.68,-93.65 -111,-94 -57.18,0.35 -95.67,14.45 -132,51 l 54,47 c 22.44,-22.3 47.38,-35.31 74,-35 21.62,-0.31 38.96,8.9 39,23 -0.04,11.38 -11.42,22.22 -34,27 l -48,9 c -42.16,7.9 -67.1,39.88 -67,77 -0.1,55.57 42.72,90.8 113,91 38.68,-0.2 71.2,-6.7 109,-41 l -46,-49 c -19.45,22.05 -39.5,29.09 -64,29 -21.58,0.09 -36.21,-11.83 -36,-25 -0.21,-9.6 4.67,-17.73 27,-20"
         inkscape:connector-curvature="0"
         id="path44" /><path
         d="m 1604.2,4452.2 v -382 h -77 v 255 h -62 v 68 c 55.26,0.18 60.13,25.66 70,59 h 69"
         inkscape:connector-curvature="0"
         id="path46" /><path
         d="m 1865.2,4060.2 c -107.77,-0.18 -161.97,69.2 -162,198 0.03,134.64 56.4,200.22 161,200 110.05,0.22 162.09,-70.79 162,-200 0.09,-127.71 -53.04,-198.18 -161,-198"
         inkscape:connector-curvature="0"
         id="path48" /><path
         d="m 1865.2,4386.2 c -56.82,-0.41 -81.75,-42.15 -82,-127 0.25,-79.39 26.81,-126.55 82,-127 55.93,0.45 81.41,42.73 81,127 0.41,82.14 -25.07,126.59 -81,127"
         inkscape:connector-curvature="0"
         id="path50"
         style="fill:#ffffff" /><path
         d="m 2292.2,4063.2 c -60.49,-0.47 -95.72,33.14 -96,86 0.28,46.33 28.46,95.66 161,96 v 15 c -0.28,16.1 -16.54,26.39 -41,26 -21.61,0.39 -57.39,-12.07 -83,-28 l -36,54 c 19.87,14.51 67.04,41.07 117,41 76.87,0.07 116.44,-29.2 116,-82 v -115 c 0.44,-24.09 6.95,-31.13 32,-35 l -25,-58 c -13.06,0.07 -49.38,4.95 -68,28 -24.2,-23.05 -46.97,-28.47 -77,-28"
         inkscape:connector-curvature="0"
         id="path52" /><path
         d="m 2315.2,4124.2 c 30.34,-0.22 43.89,8.45 44,31 v 35 l -56,-8 c -24.33,-4.01 -29.21,-17.02 -29,-32 -0.21,-18.09 10.63,-26.22 41,-26"
         inkscape:connector-curvature="0"
         id="path54"
         style="fill:#ffffff" /><path
         d="m 2794.2,4282.2 c -32.07,0.06 -47.25,-23.25 -47,-53 v -159 h -76 v 157 c 0.41,37.71 -14.23,55.06 -38,55 -29.89,0.06 -48.32,-24.87 -48,-53 v -159 h -73 v 274 h 73 v -20 c 22.45,20.39 37.62,27.98 63,28 34.79,-0.02 46.17,-4.89 74,-35 29.09,29.56 49.68,36.07 81,36 58.66,0.07 102.57,-54.14 103,-112 v -171 h -74 v 157 c -0.15,37.71 -14.79,55.06 -38,55"
         inkscape:connector-curvature="0"
         id="path56" /><path
         d="m 3079.2,4206.2 h 115 v 59 h -115 v -59 z"
         inkscape:connector-curvature="0"
         id="path58" /><path
         d="m 3691.2,4135.2 h -47 v -65 h -78 v 65 h -206 v 71 l 185,246 h 99 v -244 h 47 v -73"
         inkscape:connector-curvature="0"
         id="path60" /><path
         d="m 3448.2,4208.2 h 118 v 159 l -118,-159"
         inkscape:connector-curvature="0"
         id="path62"
         style="fill:#ffffff" /><path
         d="m 4131.2,4205.2 c 0.13,-81.76 -46.48,-139.76 -117,-140 -37.89,0.24 -43.31,4.04 -77,26 v -102 h -73 v 358 h 73 v -15 c 23.39,18.9 38.02,27.03 69,27 82.31,0.03 125.13,-61.22 125,-154"
         inkscape:connector-curvature="0"
         id="path64" /><path
         d="m 3937.2,4183.2 c 0.08,-28.32 32.06,-53.25 61,-53 41.53,-0.25 57.25,32.27 57,80 0.25,52 -15.47,82.36 -60,82 -53.04,0.36 -57.92,-46.8 -58,-66 v -43"
         inkscape:connector-curvature="0"
         id="path66"
         style="fill:#ffffff" /><path
         d="m 4476.2,4282.2 c -31.7,0.06 -46.87,-23.25 -47,-53 v -159 h -75 v 157 c -0.22,37.71 -14.85,55.06 -39,55 -29.51,0.06 -47.95,-24.87 -48,-53 v -159 h -73 v 274 h 73 v -20 c 22.82,20.39 38,27.98 63,28 35.17,-0.02 46.55,-4.89 74,-35 29.46,29.56 50.06,36.07 81,36 59.04,0.07 102.95,-54.14 103,-112 v -171 h -74 v 157 c 0.23,37.71 -14.41,55.06 -38,55"
         inkscape:connector-curvature="0"
         id="path68" /><path
         d="m 1924.2,3545.2 44,-47 c -35.63,-32.28 -58.94,-45.84 -109,-46 -84.91,0.16 -136.95,63.04 -137,147 0.05,74.86 48.3,140.45 123,140 80.32,0.45 130.19,-59.72 130,-150 v -19 h -181 c 1.77,-31.11 30.5,-53.87 67,-54 20.42,0.13 31.8,3.38 63,29"
         inkscape:connector-curvature="0"
         id="path70" /><path
         d="m 1794.2,3626.2 h 111 c -1.36,27.27 -28.46,51.66 -56,52 -27.21,-0.34 -50.52,-22.03 -55,-52"
         inkscape:connector-curvature="0"
         id="path72"
         style="fill:#ffffff" /><path
         d="m 2108.2,3604.2 -86,128 h 81 l 45,-67 40,67 h 85 l -83,-128 96,-146 h -83 l -55,84 -55,-84 h -81 l 96,146"
         inkscape:connector-curvature="0"
         id="path74" /><path
         d="m 2318.2,3592.2 c 0.11,86.2 45.11,147.99 133,148 52.49,-0.01 103.99,-34.16 123,-90 l -71,-27 c -8.72,30.8 -27.15,50.86 -55,51 -38.28,-0.14 -53.46,-37 -53,-82 -0.46,-47.69 13.64,-79.13 54,-79 27.39,-0.13 42.03,15.05 54,50 l 73,-27 c -24.27,-61.61 -61.66,-88.17 -126,-88 -86.89,-0.17 -131.89,56.74 -132,144"
         inkscape:connector-curvature="0"
         id="path76" /><path
         d="m 2815.2,3545.2 44,-47 c -35.57,-32.28 -58.87,-45.84 -109,-46 -84.85,0.16 -136.88,63.04 -137,147 0.12,74.86 48.36,140.45 123,140 80.39,0.45 130.25,-59.72 130,-150 v -19 h -181 c 1.84,-31.11 30.57,-53.87 67,-54 20.48,0.13 31.86,3.38 63,29"
         inkscape:connector-curvature="0"
         id="path78" /><path
         d="m 2685.2,3626.2 h 111 c -1.3,27.27 -28.4,51.66 -56,52 -27.14,-0.34 -50.45,-22.03 -55,-52"
         inkscape:connector-curvature="0"
         id="path80"
         style="fill:#ffffff" /><path
         d="m 3193.2,3593.2 c -0.34,-81.75 -46.95,-139.75 -118,-140 -37.36,0.25 -42.78,4.04 -76,26 v -102 h -73 v 358 h 73 v -15 c 22.92,18.91 37.55,27.04 69,27 81.84,0.04 124.66,-61.21 125,-154"
         inkscape:connector-curvature="0"
         id="path82" /><path
         d="m 2999.2,3571.2 c -0.39,-28.31 31.59,-53.25 60,-53 42.06,-0.25 57.78,32.28 58,80 -0.22,52.01 -15.94,82.37 -60,82 -53.51,0.37 -58.39,-46.79 -58,-66 v -43"
         inkscape:connector-curvature="0"
         id="path84"
         style="fill:#ffffff" /><path
         d="m 3277.2,3670.2 h -44 v 62 h 44 v 87 l 74,20 v -107 h 71 v -62 h -69 v -124 c -0.02,-27.7 10.28,-30.41 21,-30 10.96,-0.41 19.09,1.75 41,6 l 17,-61 c -34.57,-9.38 -65.47,-12.63 -86,-13 -25.54,0.37 -69.45,13.92 -69,65 v 157"
         inkscape:connector-curvature="0"
         id="path86" /><path
         d="m 3753.2,3734.2 h 53 v -63 h -53 v -211 h -73 v 211 h -44 v 63 h 44 v 34 c -0.49,41.37 26.61,73.36 72,73 17.49,0.36 53.26,-2.9 72,-6 l -13,-61 c -21.46,0.14 -29,0 -29,0 -21.18,0.14 -29.32,0.14 -29,-27 v -13"
         inkscape:connector-curvature="0"
         id="path88" /><path
         d="m 3855.2,3592.2 c -0.18,111.13 64.87,151.79 130,152 59,-0.21 132.72,-40.87 133,-152 -0.28,-81.84 -53.95,-143.63 -129,-144 -83.22,0.37 -134.18,57.29 -134,144"
         inkscape:connector-curvature="0"
         id="path90" /><path
         d="m 4043.2,3592.2 c 0.46,64.52 -21.77,84.57 -54,85 -41.48,-0.43 -58.29,-34.04 -58,-85 -0.29,-44.43 21.39,-78.04 58,-78 35.48,-0.04 54.46,33.57 54,78"
         inkscape:connector-curvature="0"
         id="path92"
         style="fill:#ffffff" /><path
         d="m 4258.2,3706.2 c 16.12,21.52 43.77,31.82 72,32 3.75,-0.18 7,-0.18 14,-1 v -71 c -24.35,-0.81 -31,-1 -31,-1 -31.29,-0.89 -56.77,-22.58 -57,-66 v -141 h -73 v 276 h 73 l 2,-28"
         inkscape:connector-curvature="0"
         id="path94" /><path
         d="m 2290.2,2908.2 c -60.46,0.46 -95.7,34.07 -96,87 0.3,46.27 28.49,95.59 161,96 v 15 c -0.25,16.03 -16.51,26.33 -41,26 -21.59,0.33 -57.36,-12.14 -83,-28 l -36,54 c 19.9,14.44 67.06,41 117,41 76.9,0 116.47,-29.27 116,-82 v -115 c 0.47,-24.15 6.97,-31.2 32,-36 l -25,-57 c -13.04,0.01 -49.36,4.88 -68,28 -24.18,-23.12 -46.94,-28.54 -77,-29"
         inkscape:connector-curvature="0"
         id="path96" /><path
         d="m 2313.2,2970.2 c 30.37,-0.29 43.92,8.39 44,31 v 35 l -56,-8 c -24.3,-4.08 -29.18,-17.09 -29,-32 -0.18,-18.15 10.66,-26.29 41,-26"
         inkscape:connector-curvature="0"
         id="path98"
         style="fill:#ffffff" /><path
         d="m 2491.2,3050.2 c -0.45,86.13 44.55,147.92 133,148 51.94,-0.08 103.43,-34.23 122,-90 l -70,-27 c -9.28,30.73 -27.71,50.79 -56,51 -37.84,-0.21 -53.02,-37.07 -53,-82 -0.02,-47.76 14.08,-79.2 54,-79 27.83,-0.2 42.47,14.98 55,50 l 73,-27 c -24.82,-61.69 -62.22,-88.25 -127,-88 -86.45,-0.25 -131.45,56.67 -131,144"
         inkscape:connector-curvature="0"
         id="path100" /><path
         d="m 2785.2,3050.2 c 0.02,86.13 45.01,147.92 133,148 52.4,-0.08 103.89,-34.23 123,-90 l -71,-27 c -8.82,30.73 -27.25,50.79 -55,51 -38.37,-0.21 -53.55,-37.07 -54,-82 0.45,-47.76 14.54,-79.2 55,-79 27.3,-0.2 41.93,14.98 54,50 l 73,-27 c -24.36,-61.69 -61.76,-88.25 -126,-88 -86.99,-0.25 -131.98,56.67 -132,144"
         inkscape:connector-curvature="0"
         id="path102" /><path
         d="m 3282.2,3003.2 44,-47 c -35.66,-32.36 -58.97,-45.91 -109,-46 -84.94,0.09 -136.98,62.97 -137,147 0.02,74.79 48.27,140.37 123,140 80.29,0.37 130.16,-59.79 130,-150 v -19 h -181 c 1.74,-31.18 30.47,-53.95 67,-54 20.38,0.05 31.77,3.3 63,29"
         inkscape:connector-curvature="0"
         id="path104" /><path
         d="m 3152.2,3084.2 h 111 c -1.39,27.19 -28.49,51.58 -56,52 -27.24,-0.42 -50.55,-22.1 -55,-52"
         inkscape:connector-curvature="0"
         id="path106"
         style="fill:#ffffff" /><path
         d="m 3490.2,3090.2 46,-7 c 48.22,-6.5 76.95,-40.11 77,-83 -0.05,-55.22 -46.12,-93.7 -112,-94 -56.62,0.3 -95.11,14.39 -131,51 l 54,47 c 22,-22.36 46.94,-35.37 73,-35 22.18,-0.37 39.52,8.85 40,23 -0.48,11.32 -11.86,22.16 -35,26 l -47,10 c -42.61,7.84 -67.54,39.82 -68,77 0.46,55.52 43.29,90.75 114,91 38.23,-0.25 70.76,-6.76 109,-41 l -47,-49 c -18.89,21.99 -38.94,29.04 -64,29 -21.02,0.04 -35.65,-11.89 -36,-25 0.35,-9.65 5.23,-17.78 27,-20"
         inkscape:connector-curvature="0"
         id="path108" /><path
         d="m 3764.2,3090.2 45,-7 c 48.64,-6.5 77.37,-40.11 77,-83 0.37,-55.22 -45.7,-93.7 -111,-94 -57.2,0.3 -95.69,14.39 -132,51 l 54,47 c 22.42,-22.36 47.36,-35.37 74,-35 21.6,-0.37 38.95,8.85 39,23 -0.05,11.32 -11.44,22.16 -34,26 l -48,10 c -42.18,7.84 -67.12,39.82 -67,77 -0.12,55.52 42.7,90.75 113,91 38.65,-0.25 71.18,-6.76 109,-41 l -46,-49 c -19.47,21.99 -39.52,29.04 -64,29 -21.6,0.04 -36.23,-11.89 -36,-25 -0.23,-9.65 4.64,-17.78 27,-20"
         inkscape:connector-curvature="0"
         id="path110" /></g></g></svg>