<?xml version="1.0" encoding="UTF-8" standalone="no"?>
<!-- Created with Inkscape (http://www.inkscape.org/) -->

<svg
   width="600"
   height="300"
   id="svg2"
   version="1.1"
   inkscape:version="1.2.2 (732a01da63, 2022-12-09)"
   sodipodi:docname="RU_road_sign_8.2024_08_24_23_34_25.0.svg"
   xmlns:inkscape="http://www.inkscape.org/namespaces/inkscape"
   xmlns:sodipodi="http://sodipodi.sourceforge.net/DTD/sodipodi-0.dtd"
   xmlns="http://www.w3.org/2000/svg"
   xmlns:svg="http://www.w3.org/2000/svg"
   xmlns:rdf="http://www.w3.org/1999/02/22-rdf-syntax-ns#"
   xmlns:cc="http://creativecommons.org/ns#"
   xmlns:dc="http://purl.org/dc/elements/1.1/">
  <title
     id="title3006">8.21.1. სამარშრუტო სატრანსპორტო საშუალების სახეობა</title>
  <defs
     id="defs4" />
  <sodipodi:namedview
     id="base"
     pagecolor="#ffffff"
     bordercolor="#666666"
     borderopacity="1.0"
     inkscape:pageopacity="0.0"
     inkscape:pageshadow="2"
     inkscape:zoom="0.5"
     inkscape:cx="95"
     inkscape:cy="-419"
     inkscape:document-units="px"
     inkscape:current-layer="layer1"
     showgrid="false"
     inkscape:window-width="1920"
     inkscape:window-height="991"
     inkscape:window-x="-9"
     inkscape:window-y="-9"
     inkscape:window-maximized="1"
     inkscape:snap-bbox="true"
     inkscape:bbox-paths="true"
     inkscape:bbox-nodes="true"
     inkscape:snap-bbox-edge-midpoints="true"
     inkscape:snap-bbox-midpoints="true"
     inkscape:object-paths="true"
     inkscape:snap-intersection-paths="true"
     inkscape:object-nodes="true"
     inkscape:snap-smooth-nodes="true"
     inkscape:snap-midpoints="true"
     inkscape:snap-object-midpoints="true"
     showguides="true"
     inkscape:guide-bbox="true"
     inkscape:showpageshadow="2"
     inkscape:pagecheckerboard="0"
     inkscape:deskcolor="#d1d1d1" />
  <metadata
     id="metadata7">
    <rdf:RDF>
      <cc:Work
         rdf:about="">
        <dc:format>image/svg+xml</dc:format>
        <dc:type
           rdf:resource="http://purl.org/dc/dcmitype/StillImage" />
        <dc:title>8.21.1. სამარშრუტო სატრანსპორტო საშუალების სახეობა</dc:title>
        <cc:license
           rdf:resource="http://creativecommons.org/licenses/by-sa/3.0/" />
        <dc:description>ГОСТ Р 52290-2004
Размеры и пропорции по типоразмеру I</dc:description>
      </cc:Work>
      <cc:License
         rdf:about="http://creativecommons.org/licenses/by-sa/3.0/">
        <cc:permits
           rdf:resource="http://creativecommons.org/ns#Reproduction" />
        <cc:permits
           rdf:resource="http://creativecommons.org/ns#Distribution" />
        <cc:requires
           rdf:resource="http://creativecommons.org/ns#Notice" />
        <cc:requires
           rdf:resource="http://creativecommons.org/ns#Attribution" />
        <cc:permits
           rdf:resource="http://creativecommons.org/ns#DerivativeWorks" />
        <cc:requires
           rdf:resource="http://creativecommons.org/ns#ShareAlike" />
      </cc:License>
    </rdf:RDF>
  </metadata>
  <g
     inkscape:label="Layer 1"
     inkscape:groupmode="layer"
     id="layer1"
     transform="translate(0,-752.36218)">
    <rect
       y="752.36218"
       x="0"
       height="300"
       width="600"
       id="rect5622"
       style="opacity:1;color:#000000;fill:#000000;fill-opacity:1;fill-rule:nonzero;stroke:none;stroke-width:3.54299997999999980;marker:none;visibility:visible;display:inline;overflow:visible;enable-background:accumulate"
       rx="45"
       ry="45" />
    <rect
       y="762.36212"
       x="10"
       height="280"
       width="580"
       id="rect9537"
       style="color:#000000;fill:#ffffff;fill-opacity:1;fill-rule:nonzero;stroke:none;stroke-width:3.54299997999999980;marker:none;visibility:visible;display:inline;overflow:visible;enable-background:accumulate;opacity:1"
       rx="35"
       ry="35" />
    <path
       inkscape:connector-curvature="0"
       style="opacity:1;fill:#000000;fill-opacity:1;stroke:none"
       d="m 111.5625,846.11217 0,45.9375 -45.9375,0 0,20.625 45.9375,0 0,45.9375 20.625,0 0,-45.9375 45.9375,0 0,-20.625 -45.9375,0 0,-45.9375 -20.625,0 z"
       id="path9903" />
    <g
       aria-label="მეტრო"
       id="text6113"
       style="font-weight:bold;font-size:97.3821px;line-height:1.1;font-family:'IndorSoft RoadSign Letters';-inkscape-font-specification:'IndorSoft RoadSign Letters Bold';letter-spacing:-10.9px;opacity:1;fill:#000000;fill-rule:evenodd;stroke-width:0.756564;stroke-linecap:round;stroke-linejoin:round;paint-order:stroke fill markers">
      <path
         d="m 229.0367,937.04945 q -14.05766,0 -19.5056,-4.86424 -5.1561,-4.13461 -5.1561,-13.52259 v -6.80994 q 0,-7.78278 5.01017,-12.11196 3.45361,-3.11311 7.58821,-3.98868 4.13461,-0.87556 6.17759,-0.87556 h 18.67868 v -13.18209 q 0,-3.2104 -1.41063,-5.25338 -2.62669,-3.45361 -10.50676,-3.45361 h -0.43778 q -6.66401,0 -9.87441,3.06447 -2.67533,2.67533 -2.67533,6.61537 v 2.57804 h -11.77146 v -5.01016 q 0,-7.73415 6.51808,-12.74432 6.71265,-5.05881 17.36534,-5.05881 h 0.77828 q 12.93888,0 18.9219,5.73981 4.62103,4.8156 4.62103,13.52259 v 35.99538 q 0,10.36083 -5.69117,14.69001 -5.59387,4.66967 -18.63004,4.66967 z m 12.79295,-31.56892 h -13.66851 q -6.12895,0 -8.85292,1.89705 -2.28619,1.55656 -2.48076,3.35633 -0.14593,1.79977 -0.14593,2.38347 v 4.32918 q 0,6.0803 4.32917,7.88007 2.52941,1.07013 8.026,1.07013 6.32351,0 9.33934,-1.89705 3.45361,-2.04298 3.45361,-7.05315 z"
         id="path6115"
         style="fill:#000000" />
      <path
         d="m 293.92159,937.04945 q -13.61987,0 -19.26239,-4.96153 -5.39931,-4.62102 -5.39931,-14.30086 v -10.8959 h 11.57689 v 10.65268 q 0,4.91289 2.91855,6.95587 2.72397,1.99434 9.6312,1.99434 5.01016,0 7.92871,-1.26471 4.76696,-1.89705 4.76696,-7.6855 V 881.5971 q 0,-4.18324 -2.2862,-6.42079 -2.82126,-2.2862 -9.33934,-2.2862 h -0.53507 q -5.3993,0 -7.6855,2.18891 -2.72397,2.43212 -2.72397,7.53957 v 2.52941 h -11.67418 v -5.01017 q 0,-7.6855 5.10745,-12.54974 5.93438,-5.30202 17.46263,-5.35067 11.67418,0 17.41398,4.62103 5.83709,4.86424 5.83709,14.73865 v 36.18996 q 0,10.50676 -6.66401,15.0305 -5.73981,4.23189 -17.07349,4.23189 z"
         id="path6117"
         style="fill:#000000" />
      <path
         d="m 358.1741,937.04945 q -12.69567,0 -18.33819,-5.10745 -5.64252,-4.8156 -5.64252,-14.30087 v -54.4795 h 11.72282 v 54.23629 q 0,5.15609 3.74546,7.24772 2.96719,1.84841 9.14478,1.84841 6.76129,0 9.63119,-2.09163 2.91855,-1.94569 2.91855,-7.0045 v -17.99769 q 0,-1.16742 -0.68099,-2.23756 -0.43779,-0.43778 -0.92421,-0.72963 l -0.48642,-0.29186 -9.6312,8.17193 -7.53957,-6.7613 8.56106,-6.71265 q -5.30202,-2.82126 -7.29636,-6.32351 -1.55656,-3.11312 -1.55656,-7.49093 0,-8.17193 4.28053,-11.62554 3.8914,-3.16176 11.91739,-3.16176 7.92872,0 12.06332,3.30769 4.13461,3.45361 4.13461,11.47961 0,3.74546 -1.41063,6.56672 -1.41063,2.82126 -6.08031,6.61537 l 1.11878,0.72964 q 1.31334,0.97284 2.91854,2.48076 2.2862,2.8699 2.2862,5.98302 v 18.2409 q 0,11.13911 -7.10179,15.7115 -5.83709,3.69682 -17.75448,3.69682 z m 9.82576,-52.5338 q 1.02149,-0.77828 2.04298,-1.41063 1.07014,-0.681 1.99434,-1.6052 1.79977,-1.79977 1.79977,-4.4751 0,-2.62669 -1.02149,-3.94004 -1.45927,-1.50791 -4.8156,-1.50791 -2.72397,0 -4.1346,1.02149 -1.70249,1.2647 -1.70249,4.42646 0,3.06447 1.6052,4.62103 0.77828,1.21606 1.99434,1.75112 1.21606,0.53507 2.23755,1.11878 z"
         id="path6119"
         style="fill:#000000" />
      <path
         d="m 421.79435,893.75771 q 5.49659,0 9.58255,2.48076 3.40497,2.18891 5.10746,5.20474 1.84841,-3.01583 4.42646,-4.8156 4.28053,-2.8699 10.8959,-2.8699 8.65834,0 14.34951,4.18324 6.42079,4.76696 6.42079,11.96604 v 26.21825 h -12.01467 v -22.81329 q 0,-4.71831 -2.43212,-6.80993 -2.09162,-2.04298 -6.51808,-2.04298 -3.64818,0 -6.17759,1.75112 -2.91854,2.38348 -2.91854,6.71266 v 7.0045 h -11.86875 v -6.61537 q 0,-4.42645 -2.23755,-6.66401 -2.52941,-2.1889 -6.80994,-2.1889 -4.42646,0 -6.76129,2.1889 -2.48077,2.33484 -2.48077,6.66401 v 22.81329 h -11.8201 v -36.53045 q 0,-8.75563 3.11311,-13.37666 3.40497,-5.10745 13.66852,-8.22056 l 28.11531,-8.31786 q 3.40497,-1.07013 4.86424,-2.62669 1.31335,-1.31334 2.09163,-3.89139 h 13.52258 q -0.82692,2.33484 -2.43212,5.20474 -1.6052,2.82126 -4.18324,5.35066 -4.32918,4.28054 -9.87441,5.88573 l -28.60174,8.026 q -6.37215,1.70249 -8.90156,4.96153 -2.04298,2.67533 -2.04298,7.15043 1.84841,-3.11311 4.8156,-4.57238 2.91854,-1.41063 7.10179,-1.41063 z"
         id="path6121"
         style="fill:#000000" />
      <path
         d="m 510.22225,862.23742 q 5.15609,0 9.14477,2.09163 3.35633,1.99434 5.59388,5.49659 1.75112,-3.01583 4.66967,-4.96153 4.18325,-2.62669 10.50676,-2.62669 7.6855,0 13.27938,3.40497 7.44228,4.42646 7.44228,12.64703 v 57.83582 h -11.86874 v -54.43085 q 0,-4.08596 -2.04298,-6.4208 -2.38348,-2.28619 -6.95587,-2.28619 -3.74546,0 -6.32351,1.79977 -2.77262,2.1889 -2.77262,6.61536 v 25.53727 h -11.96603 v -25.24541 q 0,-4.52375 -2.48076,-6.80994 -2.18891,-1.89705 -6.37216,-1.89705 -3.98868,0 -6.37216,1.79977 -2.8699,2.09162 -2.8699,6.90722 v 54.43085 H 488.96551 V 879.0677 q 0,-7.00451 6.27487,-12.01468 6.12895,-4.8156 14.98187,-4.8156 z"
         id="path6123"
         style="fill:#000000" />
    </g>
  </g>
</svg>
