<?xml version="1.0" encoding="UTF-8" standalone="no"?>
<!-- Created with Inkscape (http://www.inkscape.org/) -->

<svg
   xmlns:dc="http://purl.org/dc/elements/1.1/"
   xmlns:cc="http://creativecommons.org/ns#"
   xmlns:rdf="http://www.w3.org/1999/02/22-rdf-syntax-ns#"
   xmlns:svg="http://www.w3.org/2000/svg"
   xmlns="http://www.w3.org/2000/svg"
   version="1.1"
   width="872.90619"
   height="1079.75"
   id="svg2">
  <defs
     id="defs4" />
  <metadata
     id="metadata7">
    <rdf:RDF>
      <cc:Work
         rdf:about="">
        <dc:format>image/svg+xml</dc:format>
        <dc:type
           rdf:resource="http://purl.org/dc/dcmitype/StillImage" />
        <dc:title></dc:title>
      </cc:Work>
    </rdf:RDF>
  </metadata>
  <g
     transform="translate(-28.84375,-11.40625)"
     id="layer2"
     style="display:inline">
    <path
       d="m 33.84375,16.40625 c 0,0 0,566.4375 0,849.65625 0,2.71875 0,8.15625 0,8.15625 0.330896,7.65855 1.598328,15.5183 3.34375,23 2.904615,12.45054 7.887049,24.08991 12.15625,32.9375 4.269201,8.84759 12.270326,24.48593 21.875,36.375 13.386497,16.57037 35.27241,32.36423 45.65625,38.34375 10.38384,5.9795 23.79337,12.608 38.8125,17.0312 15.01913,4.4233 31.66352,6.5313 47.28125,6.5313 10.60205,0 21.69367,-1.071 36,-3.9063 14.30628,-2.8351 35.34405,-3.7952 48,-3.5624 12.65595,0.2327 20.27417,0.3606 29.84375,0.4374 9.56958,0.077 20.78368,0.7396 30.78125,2.3126 22.41354,3.5263 44.06515,11.7589 58.46875,19.3437 14.40359,7.5849 23.89412,14.0416 35.75,23.0313 7.13537,5.4102 16.77217,13.763 19.78125,16.5624 3.00908,2.7995 3.6875,3.5 3.6875,3.5 l 4.5,-4.2812 c 5.71271,-5.4349 12.15639,-10.616 18.96875,-15.7812 11.85588,-8.9897 21.34641,-15.4464 35.75,-23.0313 14.4036,-7.5848 36.05521,-15.8173 58.46875,-19.3437 9.99757,-1.573 21.21167,-2.2356 30.78125,-2.3126 9.56958,-0.077 17.1878,-0.2047 29.84375,-0.4374 12.65595,-0.2328 33.66244,0.7273 47.96875,3.5624 14.30631,2.8352 25.4292,3.9063 36.03125,3.9063 15.61773,0 32.53676,-2.189 47.28125,-6.5313 15.29377,-4.504 28.42866,-11.0517 38.8125,-17.0312 10.38384,-5.97952 32.26975,-21.77338 45.65625,-38.34375 9.60467,-11.88907 17.6058,-27.52741 21.875,-36.375 4.2692,-8.84759 9.25164,-20.48696 12.15625,-32.9375 1.74543,-7.4817 3.1593,-18.47417 3.34375,-23 l 0.0312,-7.3125 0,-850.5 z"
       id="rect3785"
       style="fill:#ffffff;stroke:#808080;stroke-width:4;stroke-miterlimit:4;stroke-opacity:1;stroke-dasharray:none;display:inline" />
  </g>
  <g
     transform="translate(-28.84375,-11.40625)"
     id="layer3"
     style="display:inline">
    <path
       d="m 67.507391,438.832 792.779109,0"
       id="path3806"
       style="fill:#808080;stroke:#000000;stroke-width:29.20000267;stroke-linecap:butt;stroke-linejoin:miter;stroke-miterlimit:4;stroke-opacity:1;stroke-dasharray:none" />
    <path
       d="m 55.40625,37.96875 0,15 0,813.09375 c 0,1.7991 -0.127656,4.31416 0.03125,7.59375 0.234359,4.83684 1.122409,11.54567 2.78125,18.65625 2.378699,10.19622 6.592884,20.24203 10.5625,28.46875 4.197202,8.69838 11.329978,22.42244 19.21875,32.1875 11.457529,14.18261 29.68573,27.49523 39.625,33.21875 9.4801,5.45909 21.34108,11.22588 34.15625,15 12.7667,3.7599 27.38576,5.6875 41.1875,5.6875 9.05171,0 18.61539,-0.8906 31.78125,-3.5 17.76799,-3.52111 38.07001,-4.23649 52.625,-3.96875 12.63754,0.23236 20.1194,0.36147 29.59375,0.4375 10.50232,0.0845 22.37415,0.73825 33.96875,2.56245 25.57357,4.0235 48.38352,12.7301 65.15625,21.5626 15.32629,8.0707 26.51048,15.6255 38.75,24.9062 l 0,0.031 c -0.0103,-0.01 0.3688,0.3298 1.28125,1.0313 l 9.125,7 9.125,-6.9687 c 0.97089,-0.741 1.42888,-1.127 1.34375,-1.0626 l 0,-0.031 c 12.23952,-9.2807 23.42371,-16.8355 38.75,-24.9062 16.77285,-8.8325 39.58294,-17.539 65.15625,-21.5626 11.59457,-1.8242 23.46637,-2.47795 33.96875,-2.56245 9.47468,-0.0761 16.95634,-0.20514 29.59375,-0.4375 14.55286,-0.26769 34.83396,0.44939 52.59375,3.96875 13.16147,2.6083 22.75869,3.5 31.8125,3.5 13.77487,0 28.68173,-2.0045 41.1875,-5.6875 13.0844,-3.85334 24.63944,-9.51977 34.15625,-15 9.93926,-5.72351 28.16747,-19.03612 39.625,-33.21875 7.88876,-9.76506 15.02155,-23.48913 19.21875,-32.1875 3.96962,-8.22673 8.18381,-18.27253 10.5625,-28.46875 0.80191,-3.43735 1.3068,-7.0822 1.8125,-10.6875 0.25285,-1.80265 0.46317,-3.47731 0.625,-4.75 0.0809,-0.63635 0.168,-1.16336 0.21875,-1.59375 0.0254,-0.2152 0.0409,-0.39054 0.0625,-0.59375 0.002,0.005 0.0293,-0.007 0.0312,0 0.0172,-0.0861 0.0498,-0.43294 0.0625,-1.625 0.023,-2.15481 0.023,-4.23543 0.0312,-6.25 l 0,-0.0312 0,-0.0312 0,-813.78125 0,-15 -15,0 -789.78125,0 -15,0 z m 30,30 759.78125,0 0,355.96875 -759.78125,0 0,-355.96875 z m 0,385.96875 759.78125,0 0,412.75 0,0.0625 c -0.007,1.80832 -0.0172,3.54698 -0.0312,5.25 -0.0348,0.2898 -0.0647,0.61918 -0.125,1.09375 -0.14491,1.13961 -0.36132,2.71795 -0.59375,4.375 -0.46485,3.3141 -1.15659,7.49692 -1.28125,8.03125 -1.51723,6.50358 -5.03782,15.3027 -8.375,22.21875 -3.45674,7.16383 -11.43601,21.30574 -15.53125,26.375 -5.10181,6.31523 -30.23668,25.47424 -31.3125,26.09375 -8.14561,4.69063 -17.69505,9.31644 -27.65625,12.25 -8.82685,2.59953 -22.06219,4.4375 -32.6875,4.4375 -7.22345,0 -14.19487,-0.59798 -26,-2.9375 -21.15677,-4.19252 -43.02345,-4.82456 -58.96875,-4.53125 -12.62723,0.23218 -19.95603,0.3626 -29.28125,0.4375 -11.55332,0.093 -24.82474,0.80061 -38.40625,2.9375 -29.37595,4.62182 -55.0017,14.37383 -74.46875,24.625 -13.65152,7.18885 -24.57222,14.48345 -35.1875,22.15625 -10.61528,-7.6728 -21.53598,-14.9674 -35.1875,-22.15625 -19.46669,-10.25101 -45.0922,-20.00335 -74.46875,-24.625 -13.58148,-2.13689 -26.85287,-2.84457 -38.40625,-2.9375 -9.32463,-0.0748 -16.65377,-0.20532 -29.28125,-0.4375 -15.94499,-0.2933 -37.83075,0.3361 -59,4.53125 -11.81962,2.34255 -18.74228,2.9375 -25.96875,2.9375 -10.85136,0 -23.42382,-1.70924 -32.6875,-4.4375 -9.54371,-2.81066 -19.71033,-7.67437 -27.65625,-12.25 -1.07581,-0.6195 -26.21069,-19.77852 -31.3125,-26.09375 -4.09522,-5.06924 -12.074504,-19.21116 -15.53125,-26.375 -3.337174,-6.91604 -6.857755,-15.71513 -8.375,-22.21875 -0.982481,-4.21138 -2.039847,-13.45869 -2.03125,-13.28125 -0.06686,-1.37981 0.03125,-3.37201 0.03125,-6.15625 l 0,-412.125 z"
       id="path3824"
       style="font-size:medium;font-style:normal;font-variant:normal;font-weight:normal;font-stretch:normal;text-indent:0;text-align:start;text-decoration:none;line-height:normal;letter-spacing:normal;word-spacing:normal;text-transform:none;direction:ltr;block-progression:tb;writing-mode:lr-tb;text-anchor:start;baseline-shift:baseline;color:#000000;fill:#000000;fill-opacity:1;stroke:none;stroke-width:30;marker:none;visibility:visible;display:inline;overflow:visible;enable-background:accumulate;font-family:Sans;-inkscape-font-specification:Sans" />
  </g>
  <g
     transform="translate(-28.84375,-11.40625)"
     id="layer4"
     style="display:inline">
    <g
       transform="matrix(1.0206454,0,0,0.97977222,8.1615078e-6,0)"
       id="text3850"
       style="font-size:307.75354004px;font-style:normal;font-variant:normal;font-weight:normal;font-stretch:normal;line-height:125%;letter-spacing:-17.07999992px;word-spacing:0px;fill:#000000;fill-opacity:1;stroke:none;font-family:Roadgeek 2005 Series D;-inkscape-font-specification:Roadgeek 2005 Series D">
      <path
         d="m 460.52161,342.09976 -36.31445,-96.32562 c 9.68115,-4.57126 17.40053,-11.58538 23.15816,-21.04238 5.75732,-9.45676 8.70658,-19.77918 8.8478,-30.96729 -0.16045,-10.75826 -3.07124,-20.86269 -8.7324,-30.31334 -5.66145,-9.45029 -13.11155,-16.47723 -22.35031,-21.08084 -4.98182,-2.42333 -10.4059,-4.11595 -16.27226,-5.07788 -5.86658,-0.96151 -12.75247,-1.42313 -20.65769,-1.38487 l -68.01265,0 0,206.19222 32.62145,0 0,-89.86287 39.0842,0 33.23695,89.86287 z M 423.59166,193.76447 c -0.0386,4.39198 -1.19266,8.53377 -3.46218,12.42538 -2.26978,3.89188 -5.42421,7.03349 -9.4633,9.42484 -2.43646,1.35293 -4.94975,2.26336 -7.53987,2.73127 -2.59033,0.46816 -6.33461,0.68615 -11.23285,0.65397 l -39.0842,0 0,-50.47093 39.0842,0 c 5.14829,-0.0383 8.93105,0.19252 11.34827,0.69244 2.417,0.50026 4.89182,1.50044 7.42445,3.00055 4.03909,2.24418 7.19352,5.29603 9.4633,9.15555 2.26953,3.85985 3.42359,7.98882 3.46218,12.38693 z"
         id="path3047" />
      <path
         d="m 591.58201,279.93435 0,-144.02681 -33.23695,0 0,137.56407 c -0.045,12.3998 -3.03272,21.99131 -8.96322,28.77458 -5.93068,6.78334 -14.53484,10.21987 -25.81249,10.30961 -6.8539,0.0513 -12.99606,-1.35919 -18.4265,-4.23155 -5.43055,-2.8723 -10.57253,-7.51418 -15.42595,-13.92567 l -29.85171,13.84873 c 2.53251,4.17389 4.69958,7.44372 6.50121,9.80952 1.8016,2.36584 3.73786,4.63549 5.80877,6.80896 7.02692,6.52686 14.97711,11.63037 23.85059,15.31054 8.8734,3.68017 18.05459,5.55231 27.54359,5.61643 20.60631,-0.30135 37.01961,-6.39222 49.23994,-18.27264 12.22009,-11.88038 18.47766,-27.74229 18.77272,-47.58577 z"
         id="path3049" />
    </g>
    <g
       transform="scale(0.92448518,1.0816831)"
       id="text3854"
       style="font-size:280.9498291px;font-style:normal;font-variant:normal;font-weight:normal;font-stretch:normal;line-height:125%;letter-spacing:-13.14461231px;word-spacing:0px;fill:#000000;fill-opacity:1;stroke:none;font-family:Roadgeek 2005 Series E;-inkscape-font-specification:Roadgeek 2005 Series E">
      <path
         d="m 287.12577,708.05362 c -1.7e-4,-8.97851 -2.03703,-17.14935 -6.11058,-24.51256 -4.07388,-7.36305 -10.18446,-13.98869 -18.33174,-19.87694 6.18066,-5.34958 10.81627,-11.29628 13.90684,-17.84009 3.09023,-6.54358 4.63544,-13.61405 4.63561,-21.21143 -0.0938,-8.96087 -2.43503,-17.16684 -7.02365,-24.61792 -4.58895,-7.45076 -10.86341,-13.47939 -18.8234,-18.08591 -4.6299,-2.61613 -9.20698,-4.40716 -13.73125,-5.3731 -4.52453,-0.96556 -10.71705,-1.4221 -18.57756,-1.36961 l -87.93617,0 0,188.23396 94.39793,0 c 4.93985,0.006 9.87981,-0.63797 14.81992,-1.9315 4.93983,-1.29352 9.73932,-3.27185 14.39848,-5.93499 8.67991,-4.84046 15.55138,-11.52463 20.61443,-20.05254 5.06271,-8.52785 7.64976,-17.6703 7.76114,-27.42737 z m -39.61341,-80.63156 c -0.12306,5.7127 -2.40574,10.30148 -6.84807,13.76636 -4.44259,3.46512 -10.30733,5.24445 -17.59425,5.33798 l -53.66073,0 0,-37.64679 53.66073,0 c 7.65566,0.0704 13.62576,1.75607 17.91032,5.05703 4.28429,3.30126 6.46162,7.7964 6.532,13.48542 z m 5.89987,78.38399 c -0.15818,7.14077 -3.00276,12.87674 -8.53375,17.20795 -5.53126,4.33129 -12.80073,6.55545 -21.80844,6.67248 l -53.66073,0 0,-49.44653 53.66073,0 c 8.76188,0.16982 15.96112,2.6398 21.59773,7.40995 5.63635,4.7703 8.55116,10.82235 8.74446,18.15615 z"
         id="path3036" />
      <path
         d="m 463.84179,763.40002 -34.55638,-80.63156 c 9.75687,-5.31448 17.28388,-12.31472 22.58104,-21.00073 5.29684,-8.68581 7.97753,-18.35503 8.04209,-29.00769 -0.0938,-10.79873 -2.71598,-20.52649 -7.86649,-29.18329 -5.15084,-8.65648 -12.26814,-15.50454 -21.35191,-20.54419 -4.78794,-2.90879 -9.68108,-4.95735 -14.67945,-6.1457 -4.99863,-1.18798 -10.87508,-1.76158 -17.62937,-1.7208 l -86.53143,0 0,188.23396 33.71355,0 0,-73.88885 50.28937,0 30.34219,73.88885 z M 426.195,632.76004 c -0.0996,6.9828 -2.56963,12.54318 -7.40996,16.68117 -4.84059,4.13822 -11.45453,6.25702 -19.84182,6.35642 l -53.37978,0 0,-46.91802 53.37978,0 c 8.38729,0.0821 15.00122,2.23601 19.84182,6.46176 4.84033,4.22604 7.31031,10.03226 7.40996,17.41867 z"
         id="path3038" />
      <path
         d="m 591.0227,763.40002 0,-188.23396 -26.97083,0 c -3.52358,5.80641 -7.57389,10.27813 -12.15094,13.41518 -4.57711,3.13741 -10.45356,5.50204 -17.62936,7.0939 l 0.56189,26.97083 23.88043,0 0,140.75405 z"
         id="path3040" />
      <path
         d="m 784.78748,668.15926 c 0.0692,-16.13696 -2.56685,-31.49881 -7.90811,-46.0856 -5.34162,-14.5865 -13.80468,-26.53538 -25.38922,-35.84665 -11.58483,-9.31092 -26.70735,-14.12169 -45.36761,-14.4323 -18.40206,0.28461 -33.44828,5.02253 -45.13869,14.21379 -11.69053,9.19162 -20.30621,21.13008 -25.84705,35.81544 -5.54091,14.68563 -8.28794,30.41167 -8.24109,47.17816 -0.0625,16.7736 2.62214,32.5482 8.05379,47.32382 5.43159,14.77572 13.98483,26.80437 25.65975,36.08598 11.67481,9.28164 26.84589,14.06812 45.51329,14.35948 18.83715,-0.32257 34.04291,-5.26514 45.61734,-14.82772 11.57413,-9.56256 19.99557,-21.80972 25.26435,-36.74153 5.26843,-14.9317 7.86284,-30.61264 7.78325,-47.04287 z m -33.71354,0 c -0.13477,19.78922 -4.14996,35.48707 -12.04557,47.0936 -7.89588,11.60663 -18.86448,17.54161 -32.90583,17.80497 -14.31078,-0.0878 -25.44326,-5.67156 -33.39748,-16.75142 -7.95435,-11.07976 -11.99295,-27.12879 -12.1158,-48.14715 -0.21077,-14.65592 3.16058,-28.53934 10.11406,-41.65029 6.95334,-13.11067 18.75307,-20.11091 35.39922,-21.00072 14.28717,0.1699 25.326,5.80052 33.11654,16.8919 7.79026,11.09165 11.73521,26.62562 11.83486,46.60195 z"
         id="path3042" />
      <path
         d="m 871.4736,763.40002 0,-188.23396 -26.97084,0 c -3.52358,5.80641 -7.57388,10.27813 -12.15093,13.41518 -4.57712,3.13741 -10.45356,5.50204 -17.62936,7.0939 l 0.56189,26.97083 23.88043,0 0,140.75405 z"
         id="path3044" />
    </g>
  </g>
</svg>
