<?xml version="1.0" encoding="utf-8"?>
<!-- Generator: Adobe Illustrator 15.0.2, SVG Export Plug-In . SVG Version: 6.00 Build 0)  -->
<!DOCTYPE svg PUBLIC "-//W3C//DTD SVG 1.1//EN" "http://www.w3.org/Graphics/SVG/1.1/DTD/svg11.dtd">
<svg version="1.1"
	 id="svg2" xmlns:rdf="http://www.w3.org/1999/02/22-rdf-syntax-ns#" xmlns:inkscape="http://www.inkscape.org/namespaces/inkscape" xmlns:sodipodi="http://sodipodi.sourceforge.net/DTD/sodipodi-0.dtd" xmlns:svg="http://www.w3.org/2000/svg" xmlns:dc="http://purl.org/dc/elements/1.1/" xmlns:cc="http://creativecommons.org/ns#" inkscape:version="0.48.2 r9819" sodipodi:docname="AJAX1.svg"
	 xmlns="http://www.w3.org/2000/svg" xmlns:xlink="http://www.w3.org/1999/xlink" x="0px" y="0px" width="89.652px"
	 height="79.088px" viewBox="0 0 89.652 79.088" enable-background="new 0 0 89.652 79.088" xml:space="preserve">
<sodipodi:namedview  id="namedview19" inkscape:zoom="5.8702816" inkscape:cy="53.237813" gridtolerance="10" objecttolerance="10" fit-margin-left="0.05" fit-margin-top="0.05" inkscape:cx="68.785453" pagecolor="#ffffff" guidetolerance="10" borderopacity="1" bordercolor="#666666" showgrid="false" inkscape:window-width="1280" inkscape:pageshadow="2" inkscape:window-height="1004" inkscape:window-x="-8" fit-margin-bottom="0.05" inkscape:current-layer="svg2" fit-margin-right="0.05" inkscape:window-y="-8" inkscape:pageopacity="0" inkscape:window-maximized="1">
	</sodipodi:namedview>
<path id="path3067" sodipodi:nodetypes="cccccccccccccccccccccccccccccccccccccccc" fill="#EF2C30" d="
	M88.941,7.856l0.353-0.838l0.266-0.882l0.044-0.883l-0.044-0.881L89.294,3.49l-0.353-0.838l-0.53-0.75L87.75,1.285l-0.706-0.528
	l-0.838-0.354l-0.882-0.264L84.441,0.05H5.255L4.329,0.138L3.491,0.402L2.652,0.757l-0.75,0.528L1.285,1.902l-0.529,0.75L0.359,3.49
	L0.138,4.373L0.05,5.254l0.089,0.883l0.221,0.882l0.396,0.838l39.615,68.58l0.485,0.75l0.661,0.617l0.75,0.527l0.793,0.354
	l0.883,0.266l0.882,0.089l0.926-0.089l0.883-0.266l0.795-0.354l0.75-0.527l0.617-0.617l0.529-0.75L88.941,7.856z"/>
<path id="path3361" sodipodi:nodetypes="cccc" fill="#FFFFFF" d="M10.135,7.609l34.604,59.951
	L79.392,7.609H10.135"/>
<g>
	<path d="M31.346,13.524c0.04-0.233,0.11-0.48,0.21-0.74c0.167-0.467,0.39-0.854,0.67-1.16c0.273-0.3,0.617-0.537,1.03-0.71
		c0.193-0.073,0.406-0.133,0.64-0.18c0.213-0.046,0.447-0.07,0.7-0.07c0.593,0,1.11,0.113,1.55,0.34
		c0.46,0.233,0.817,0.537,1.07,0.91c0.267,0.4,0.423,0.836,0.47,1.31h-1.51c-0.2-0.833-0.707-1.25-1.52-1.25
		c-0.594,0-1.057,0.23-1.39,0.69c-0.327,0.453-0.49,1.08-0.49,1.88l0.02,0.06c0,0.38,0.066,0.753,0.2,1.12
		c0.126,0.36,0.323,0.653,0.59,0.88c0.26,0.22,0.577,0.33,0.95,0.33c0.894,0,1.44-0.45,1.64-1.35h1.51
		c-0.086,0.507-0.26,0.96-0.52,1.36c-0.267,0.4-0.617,0.713-1.05,0.94c-0.447,0.24-0.954,0.36-1.52,0.36
		c-0.633,0-1.197-0.134-1.69-0.4c-0.507-0.273-0.907-0.69-1.2-1.25c-0.146-0.28-0.257-0.596-0.33-0.95
		c-0.08-0.354-0.12-0.727-0.12-1.12l0.02-0.21C31.276,14,31.299,13.737,31.346,13.524z"/>
	<path d="M38.816,10.854h5.29v1.27h-3.82v1.53h3.51v1.26h-3.51v1.86h3.98v1.27h-5.45V10.854z"/>
	<path d="M45.496,18.044v-7.19h3.2c0.687,0,1.243,0.153,1.67,0.46s0.74,0.717,0.94,1.23c0.193,0.52,0.289,1.057,0.289,1.61
		c0,0.68-0.093,1.307-0.279,1.88c-0.193,0.593-0.507,1.073-0.939,1.44c-0.44,0.38-1.011,0.57-1.711,0.57H45.496z M48.446,16.814
		c0.56,0,0.97-0.243,1.229-0.73c0.261-0.48,0.391-1.07,0.391-1.77c0-0.233-0.014-0.433-0.04-0.6c-0.04-0.24-0.077-0.417-0.11-0.53
		c-0.086-0.32-0.246-0.58-0.479-0.78c-0.228-0.2-0.558-0.3-0.99-0.3h-1.479v4.71H48.446z"/>
	<path d="M54.716,10.854h1.74l2.54,7.19h-1.641l-0.449-1.48h-2.65l-0.51,1.48h-1.58L54.716,10.854z M56.475,15.334l-0.899-2.86
		l-0.93,2.86H56.475z"/>
	<path d="M39.281,20.854h5.29v1.27h-3.82v1.53h3.51v1.26h-3.51v1.86h3.98v1.27h-5.45V20.854z"/>
	<path d="M45.961,20.854h1.51v5.88h3.57v1.31h-5.08V20.854z"/>
	<path d="M31.851,30.854h3.32c0.34,0,0.653,0.057,0.94,0.17c0.287,0.127,0.52,0.29,0.7,0.49c0.193,0.207,0.333,0.446,0.42,0.72
		c0.086,0.26,0.13,0.55,0.13,0.87c0,0.7-0.173,1.263-0.52,1.69c-0.354,0.434-0.93,0.65-1.73,0.65h-1.75v2.6h-1.51V30.854z
		 M34.761,34.214c0.327,0,0.57-0.05,0.73-0.15c0.16-0.1,0.263-0.223,0.31-0.37c0.04-0.14,0.06-0.316,0.06-0.53
		c0-0.34-0.077-0.604-0.23-0.79c-0.16-0.18-0.507-0.27-1.04-0.27h-1.23v2.11H34.761z"/>
	<path d="M39.631,30.854h1.74l2.54,7.19h-1.64l-0.45-1.48h-2.65l-0.51,1.48h-1.58L39.631,30.854z M41.391,35.334l-0.9-2.86
		l-0.93,2.86H41.391z"/>
	<path d="M45.951,35.834c0,0.26,0.07,0.477,0.21,0.65c0.127,0.173,0.3,0.304,0.521,0.39c0.213,0.08,0.443,0.12,0.689,0.12
		c1.054,0,1.58-0.293,1.58-0.88c0-0.22-0.053-0.383-0.16-0.49c-0.113-0.113-0.24-0.193-0.38-0.24l-0.76-0.21l-0.69-0.16
		c-0.467-0.087-0.877-0.21-1.229-0.37c-0.341-0.153-0.607-0.37-0.8-0.65c-0.207-0.287-0.31-0.67-0.31-1.15
		c0-0.42,0.11-0.803,0.33-1.15c0.213-0.347,0.523-0.603,0.93-0.77c0.407-0.173,0.891-0.26,1.451-0.26c0.525,0,0.973,0.07,1.34,0.21
		c0.387,0.146,0.68,0.33,0.879,0.55c0.207,0.227,0.36,0.477,0.461,0.75c0.066,0.187,0.109,0.327,0.129,0.42
		c0.027,0.127,0.041,0.257,0.041,0.39h-1.44c-0.066-0.713-0.566-1.07-1.5-1.07c-0.319,0-0.606,0.07-0.86,0.21
		c-0.253,0.14-0.379,0.343-0.379,0.61c0,0.374,0.189,0.62,0.569,0.74l1.021,0.25l0.699,0.18c0.547,0.127,0.963,0.264,1.25,0.41
		c0.28,0.153,0.494,0.35,0.641,0.59c0.146,0.247,0.22,0.577,0.22,0.99c0,0.487-0.106,0.894-0.319,1.22
		c-0.221,0.32-0.494,0.563-0.82,0.73c-0.314,0.16-0.61,0.267-0.891,0.32c-0.14,0.026-0.267,0.046-0.38,0.06h-0.03
		c-0.146,0.013-0.25,0.02-0.31,0.02c-1.034,0-1.813-0.204-2.34-0.61c-0.54-0.413-0.81-1.013-0.81-1.8H45.951z"/>
	<path d="M51.242,34.564c0-0.767,0.119-1.443,0.359-2.03c0.246-0.587,0.63-1.043,1.15-1.37c0.533-0.333,1.189-0.5,1.97-0.5
		c0.446,0,0.87,0.073,1.271,0.22c0.426,0.154,0.793,0.38,1.1,0.68c0.319,0.307,0.573,0.7,0.76,1.18s0.28,1.063,0.28,1.75
		c0,0.593-0.08,1.12-0.24,1.58c-0.174,0.467-0.407,0.857-0.7,1.17c-0.3,0.32-0.663,0.566-1.09,0.74
		c-0.439,0.173-0.914,0.26-1.42,0.26c-0.693,0-1.293-0.154-1.801-0.46c-0.52-0.313-0.912-0.72-1.18-1.22
		c-0.14-0.273-0.25-0.557-0.33-0.85c-0.086-0.28-0.129-0.577-0.129-0.89V34.564z M53.191,36.204c0.313,0.513,0.811,0.77,1.49,0.77
		c0.467,0,0.846-0.127,1.14-0.38c0.28-0.247,0.486-0.55,0.62-0.91c0.127-0.354,0.19-0.72,0.19-1.1c0-0.626-0.127-1.223-0.38-1.79
		c-0.247-0.56-0.783-0.84-1.61-0.84c-0.307,0-0.594,0.073-0.86,0.22c-0.279,0.147-0.52,0.397-0.72,0.75
		c-0.101,0.167-0.181,0.374-0.24,0.62c-0.066,0.227-0.1,0.47-0.1,0.73C52.721,35.047,52.878,35.69,53.191,36.204z"/>
</g>
</svg>
