<?xml version="1.0" encoding="UTF-8" standalone="no"?>
<!-- Generator: Adobe Illustrator 15.0.2, SVG Export Plug-In . SVG Version: 6.00 Build 0)  -->

<svg
   xmlns:dc="http://purl.org/dc/elements/1.1/"
   xmlns:cc="http://creativecommons.org/ns#"
   xmlns:rdf="http://www.w3.org/1999/02/22-rdf-syntax-ns#"
   xmlns:svg="http://www.w3.org/2000/svg"
   xmlns="http://www.w3.org/2000/svg"
   xmlns:sodipodi="http://sodipodi.sourceforge.net/DTD/sodipodi-0.dtd"
   xmlns:inkscape="http://www.inkscape.org/namespaces/inkscape"
   version="1.1"
   id="svg6273"
   inkscape:version="0.92.4 (5da689c313, 2019-01-14)"
   sodipodi:docname="Panama_road_sign_R-38ab.svg"
   x="0px"
   y="0px"
   width="699.219px"
   height="253px"
   viewBox="0 0 699.219 253"
   enable-background="new 0 0 699.219 253"
   xml:space="preserve"><metadata
   id="metadata33"><rdf:RDF><cc:Work
       rdf:about=""><dc:format>image/svg+xml</dc:format><dc:type
         rdf:resource="http://purl.org/dc/dcmitype/StillImage" /></cc:Work></rdf:RDF></metadata>
<sodipodi:namedview
   id="namedview7"
   showguides="true"
   inkscape:zoom="1.446433"
   inkscape:cy="102.02835"
   gridtolerance="10"
   objecttolerance="10"
   fit-margin-left="0"
   fit-margin-top="0"
   inkscape:cx="443.0884"
   pagecolor="#ffffff"
   guidetolerance="10"
   borderopacity="1"
   bordercolor="#666666"
   showgrid="false"
   inkscape:window-width="1920"
   inkscape:pageshadow="2"
   inkscape:window-height="1057"
   inkscape:window-x="-8"
   fit-margin-bottom="0"
   inkscape:current-layer="svg6273"
   fit-margin-right="0"
   inkscape:window-y="-8"
   inkscape:pageopacity="0"
   inkscape:window-maximized="1"
   inkscape:guide-bbox="true">
	</sodipodi:namedview>
<defs
   id="defs13">
	
	
		<inkscape:perspective
   id="perspective11"
   sodipodi:type="inkscape:persp3d"
   inkscape:vp_y="0 : 1000 : 0"
   inkscape:vp_x="0 : 255 : 1"
   inkscape:vp_z="512 : 255 : 1"
   inkscape:persp3d-origin="256 : 170 : 1">
		</inkscape:perspective>
	
		<inkscape:perspective
   id="perspective3609"
   sodipodi:type="inkscape:persp3d"
   inkscape:vp_y="0 : 1000 : 0"
   inkscape:vp_x="0 : 0.5 : 1"
   inkscape:vp_z="1 : 0.5 : 1"
   inkscape:persp3d-origin="0.5 : 0.33333333 : 1">
		</inkscape:perspective>
	
		<inkscape:perspective
   id="perspective5593"
   sodipodi:type="inkscape:persp3d"
   inkscape:vp_y="0 : 1000 : 0"
   inkscape:vp_x="0 : 0.5 : 1"
   inkscape:vp_z="1 : 0.5 : 1"
   inkscape:persp3d-origin="0.5 : 0.33333333 : 1">
		</inkscape:perspective>
	
		<inkscape:perspective
   id="perspective5629"
   sodipodi:type="inkscape:persp3d"
   inkscape:vp_y="0 : 1000 : 0"
   inkscape:vp_x="0 : 0.5 : 1"
   inkscape:vp_z="1 : 0.5 : 1"
   inkscape:persp3d-origin="0.5 : 0.33333333 : 1">
		</inkscape:perspective>
	
		<inkscape:perspective
   id="perspective5757"
   sodipodi:type="inkscape:persp3d"
   inkscape:vp_y="0 : 1000 : 0"
   inkscape:vp_x="0 : 0.5 : 1"
   inkscape:vp_z="1 : 0.5 : 1"
   inkscape:persp3d-origin="0.5 : 0.33333333 : 1">
		</inkscape:perspective>
	
		<inkscape:perspective
   id="perspective5781"
   sodipodi:type="inkscape:persp3d"
   inkscape:vp_y="0 : 1000 : 0"
   inkscape:vp_x="0 : 0.5 : 1"
   inkscape:vp_z="1 : 0.5 : 1"
   inkscape:persp3d-origin="0.5 : 0.33333333 : 1">
		</inkscape:perspective>
	
		<inkscape:perspective
   id="perspective6453"
   sodipodi:type="inkscape:persp3d"
   inkscape:vp_y="0 : 1000 : 0"
   inkscape:vp_x="0 : 0.5 : 1"
   inkscape:vp_z="1 : 0.5 : 1"
   inkscape:persp3d-origin="0.5 : 0.33333333 : 1">
		</inkscape:perspective>
	
		<inkscape:perspective
   id="perspective6549"
   sodipodi:type="inkscape:persp3d"
   inkscape:vp_y="0 : 1000 : 0"
   inkscape:vp_x="0 : 0.5 : 1"
   inkscape:vp_z="1 : 0.5 : 1"
   inkscape:persp3d-origin="0.5 : 0.33333333 : 1">
		</inkscape:perspective>
	
		<inkscape:perspective
   id="perspective2857"
   sodipodi:type="inkscape:persp3d"
   inkscape:vp_y="0 : 1000 : 0"
   inkscape:vp_x="0 : 0.5 : 1"
   inkscape:vp_z="1 : 0.5 : 1"
   inkscape:persp3d-origin="0.5 : 0.33333333 : 1">
		</inkscape:perspective>
	
		<inkscape:perspective
   id="perspective6613"
   sodipodi:type="inkscape:persp3d"
   inkscape:vp_y="0 : 1000 : 0"
   inkscape:vp_x="0 : 0.5 : 1"
   inkscape:vp_z="1 : 0.5 : 1"
   inkscape:persp3d-origin="0.5 : 0.33333333 : 1">
		</inkscape:perspective>
</defs>
<path
   id="path3361"
   stroke-miterlimit="10"
   d="m 35.811,1.877 h 626.553 c 18.883,0 34.33,16.601 34.33,36.89 v 175.227 c 0,20.291 -15.447,36.885 -34.33,36.885 H 35.81 c -18.882,0 -34.33,-16.594 -34.33,-36.885 V 38.768 C 1.481,18.478 16.929,1.877 35.811,1.877 Z"
   inkscape:connector-curvature="0"
   style="fill:#ffffff;stroke:#000000;stroke-width:3.9999001;stroke-miterlimit:10" />
<path
   id="path4215"
   d="m 36.162,15.752 h 627.053 c 9.754,0 17.722,7.97 17.722,17.724 v 185.386 c 0,9.753 -7.968,17.724 -17.722,17.724 H 36.162 c -9.754,0 -17.724,-7.971 -17.724,-17.724 V 33.476 c 0.001,-9.753 7.97,-17.724 17.724,-17.724"
   inkscape:connector-curvature="0" />
<path
   id="path4217"
   sodipodi:nodetypes="sccccccccccs"
   d="m 202.345,34.951 c -1.565,0.087 -3.189,0.52 -4.719,1.219 l -142.781,90 v 0 l 142.781,90 c 6.117,2.797 13.625,1.057 13.625,-8.031 l -6.469,-41.438 h 439.75 V 85.607 h -439.75 l 6.469,-41.406 c 0,-6.817 -4.212,-9.513 -8.906,-9.25 z"
   inkscape:connector-curvature="0"
   style="fill:#ffffff" />
<g
   id="g30"
   transform="translate(145.28)">
	<path
   d="m 128.472,98.075 h 11.475 V 133.1 c 0,2.7 0.475,4.826 1.425,6.375 0.949,1.65 2.175,2.801 3.675,3.45 1.549,0.701 3.075,1.05 4.575,1.05 7.2,0 10.8,-3.475 10.8,-10.425 V 98.075 h 11.55 v 35.475 c 0,3.65 -0.6,6.825 -1.8,9.525 -1.2,2.75 -2.775,4.825 -4.725,6.225 -1.95,1.451 -4.226,2.501 -6.825,3.15 -2.7,0.699 -5.576,1.05 -8.625,1.05 -3.65,0 -7.125,-0.65 -10.425,-1.95 -3.351,-1.3 -6,-3.375 -7.95,-6.225 -2.1,-2.851 -3.15,-6.574 -3.15,-11.175 z"
   id="path18"
   inkscape:connector-curvature="0" />
	<path
   d="m 179.473,98.075 h 11.925 l 21.375,37.5 0.15,-37.5 h 10.5 V 152 h -11.25 l -21.975,-38.4 -0.15,38.4 h -10.575 z"
   id="path20"
   inkscape:connector-curvature="0" />
	<path
   d="m 249.222,98.075 h 13.05 L 281.322,152 h -12.3 l -3.375,-11.1 h -19.875 l -3.825,11.1 h -11.85 z m 13.2,33.6 -6.75,-21.45 -6.975,21.45 z"
   id="path22"
   inkscape:connector-curvature="0" />
	<path
   d="m 307.572,113.6 -5.25,-15.524 h 12 l 10.8,38.399 0.75,2.476 11.1,-38.4 0.75,-2.475 h 11.7 L 336.447,136.475 331.122,152 h -10.65 z"
   id="path24"
   inkscape:connector-curvature="0" />
	<path
   d="m 355.722,98.075 h 11.325 V 152 h -11.325 z"
   id="path26"
   inkscape:connector-curvature="0" />
	<path
   d="m 392.321,98.075 h 13.05 L 424.422,152 h -12.301 l -3.375,-11.1 h -19.875 l -3.824,11.1 h -11.851 z m 13.2,33.6 -6.75,-21.45 -6.975,21.45 z"
   id="path28"
   inkscape:connector-curvature="0" />
</g>
</svg>