<?xml version="1.0" encoding="UTF-8" standalone="no"?>
<!-- Created with Inkscape (http://www.inkscape.org/) -->

<svg
   xmlns:dc="http://purl.org/dc/elements/1.1/"
   xmlns:cc="http://creativecommons.org/ns#"
   xmlns:rdf="http://www.w3.org/1999/02/22-rdf-syntax-ns#"
   xmlns:svg="http://www.w3.org/2000/svg"
   xmlns="http://www.w3.org/2000/svg"
   version="1.0"
   width="751"
   height="601"
   viewBox="0 0 750 599.999"
   id="Layer_1"
   xml:space="preserve"><metadata
   id="metadata18"><rdf:RDF><cc:Work
       rdf:about=""><dc:format>image/svg+xml</dc:format><dc:type
         rdf:resource="http://purl.org/dc/dcmitype/StillImage" /><dc:title></dc:title></cc:Work></rdf:RDF></metadata><defs
   id="defs62">
	
	
	
	
</defs>
<g
   transform="matrix(0.998668,0,0,0.99867,0.499334,0.398971)"
   id="g5"
   style="fill:#ffffff;fill-opacity:1;stroke:#000000;stroke-width:0.99999899;stroke-miterlimit:4;stroke-opacity:1;stroke-dasharray:none">
		<path
   d="M 38.915039,0 C 92.236328,15.525391 148.625,23.849609 206.95801,23.849609 265.29053,23.849609 321.6792,15.525391 375,4.883e-4 428.32031,15.525391 484.70898,23.849609 543.04199,23.849609 601.375,23.849609 657.76367,15.525391 711.08398,0 736.06445,54.121094 750,114.3877 750,177.90918 750,395.71777 586.16016,575.25391 375,599.99902 163.83887,575.25391 0,395.71777 0,177.90918 0,114.3877 13.935059,54.121094 38.915039,0 z"
   id="path7"
   style="fill:#ffffff;fill-opacity:1;stroke:#000000;stroke-width:0.99999899;stroke-miterlimit:4;stroke-opacity:1;stroke-dasharray:none" />
		
			<path
   d="M 38.915039,0 C 92.236328,15.525391 148.625,23.849609 206.95801,23.849609 265.29053,23.849609 321.6792,15.525391 375,4.883e-4 428.32031,15.525391 484.70898,23.849609 543.04199,23.849609 601.375,23.849609 657.76367,15.525391 711.08398,0 736.06445,54.121094 750,114.3877 750,177.90918 750,395.71777 586.16016,575.25391 375,599.99902 163.83887,575.25391 0,395.71777 0,177.90918 0,114.3877 13.935059,54.121094 38.915039,0 z"
   id="path9"
   style="fill:#ffffff;fill-opacity:1;stroke:#000000;stroke-width:0.99999899;stroke-linecap:round;stroke-linejoin:round;stroke-miterlimit:4;stroke-opacity:1;stroke-dasharray:none" />
	</g><g
   transform="matrix(1.0056,0,0,1.01014,-2.10137,-3.70189)"
   id="g11"
   style="fill:#003f87;fill-opacity:1">
		<path
   d="m 15,177.90918 c 0,-12.78174 0.584961,-25.42676 1.729004,-37.91016 l 716.541506,0 C 734.41504,152.48242 735,165.12744 735,177.90918 735,387.42285 577.85547,560.22852 375,584.89062 172.14453,560.22852 15,387.42285 15,177.90918 z"
   id="path13"
   style="fill:#003f87;fill-opacity:1" />
	</g><g
   transform="matrix(1.00604,0,0,1.02708,-2.2645,-3.1523)"
   id="g15"
   style="fill:#af1e2d;fill-opacity:1">
		<path
   d="m 47.37793,17.942871 c 50.892089,13.635254 104.38769,20.90625 159.58203,20.90625 58.26074,0 114.6294,-8.101074 168.04004,-23.237793 53.41113,15.136719 109.7793,23.237793 168.04004,23.237793 55.19434,0 108.69043,-7.270508 159.58105,-20.90625 14.26172,33.624512 24.16407,69.546387 28.9961,107.056149 l -713.235354,0 C 23.214844,87.489258 33.116211,51.567383 47.37793,17.942871 z"
   id="path17"
   style="fill:#af1e2d;fill-opacity:1" />
	</g>



<path
   d="m 183.53777,112.74918 0,-62.416304 8.7562,0 0,62.416304 -8.7562,0 z m 50.78875,0 -19.28351,-41.827881 0,41.827881 -8.94383,0 0,-62.416304 8.94383,0 17.13996,37.449781 0,-37.449781 8.94383,0 0,62.416304 -6.80028,0 z m 35.90893,-54.123507 0,54.123507 -9.0348,0 0,-54.123507 -11.36599,0 0,-8.292797 31.76678,0 0,8.292797 -11.36599,0 z m 19.92317,54.123507 0,-62.416304 29.34463,0 0,8.759034 -20.40081,0 0,15.741247 12.94951,0 0,8.571404 -12.94951,0 0,20.588419 22.82296,0 0,8.7562 -31.76678,0 z m 68.01687,0 -8.2928,-29.344619 -8.56857,0 0,29.344619 -8.94382,0 0,-62.416304 18.6325,0 c 2.42214,6.2e-5 4.64245,0.403756 6.66095,1.211083 2.01845,0.80745 3.75737,1.925664 5.21677,3.354646 1.45932,1.429097 2.57706,3.183651 3.35322,5.263665 0.77607,2.08012 1.16413,4.362509 1.16417,6.847172 -4e-5,3.726162 -0.74535,6.893646 -2.23595,9.50246 -1.49067,2.608886 -3.72663,4.47147 -6.70786,5.587759 l 8.94381,30.649519 -9.22242,0 z m 0.46624,-45.739738 c -3e-5,-2.42212 -0.74536,-4.347248 -2.23597,-5.775391 -1.49066,-1.42804 -3.44706,-2.142087 -5.8692,-2.142141 l -9.22244,0 0,15.741247 9.22244,0 c 2.60788,3.8e-5 4.61071,-0.667573 6.0085,-2.002836 1.39774,-1.335183 2.09664,-3.275474 2.09667,-5.820879 l 0,0 z m 50.98207,28.690746 c -4e-5,2.547271 -0.45017,4.923002 -1.35038,7.127202 -0.9003,2.20422 -2.14218,4.11372 -3.72565,5.72848 -1.58354,1.61479 -3.41581,2.90358 -5.49679,3.86637 -2.08104,0.96281 -4.33263,1.44421 -6.75477,1.44421 -2.73302,0 -5.18598,-0.52784 -7.3589,-1.58351 -2.17295,-1.05567 -4.00474,-2.48376 -5.49537,-4.28427 -1.49064,-1.80052 -2.63965,-3.88106 -3.44704,-6.24163 -0.80739,-2.360569 -1.21108,-4.813533 -1.21108,-7.358908 l 8.7562,0 c -1e-5,1.303969 0.17056,2.592284 0.51172,3.864948 0.34114,1.272694 0.86897,2.42171 1.58351,3.44705 0.7145,1.02535 1.61524,1.84837 2.70219,2.46906 1.08692,0.62071 2.4065,0.93107 3.95877,0.93106 1.18074,1e-5 2.31458,-0.24827 3.40155,-0.74485 1.08691,-0.49654 2.01844,-1.17979 2.79459,-2.04973 0.77609,-0.86993 1.39679,-1.87917 1.86211,-3.027717 0.46526,-1.148525 0.6979,-2.344446 0.69793,-3.587765 -3e-5,-1.800497 -0.37244,-3.399164 -1.11726,-4.796005 -0.74488,-1.396798 -2.04883,-2.809728 -3.91186,-4.238794 -0.31084,-0.310799 -0.43499,-0.481849 -0.37241,-0.513147 0.0625,-0.03124 -0.1237,-0.201821 -0.55864,-0.511725 -0.43499,-0.309852 -1.35135,-0.915393 -2.7491,-1.816626 -1.39779,-0.901175 -3.68019,-2.437772 -6.84717,-4.609794 -2.54538,-1.739832 -4.45487,-3.774413 -5.72849,-6.103749 -1.27364,-2.329257 -1.91045,-4.890726 -1.91044,-7.684412 -10e-6,-2.23638 0.40368,-4.332557 1.21108,-6.288538 0.80738,-1.955873 1.94076,-3.679155 3.40014,-5.16985 1.45935,-1.490577 3.15183,-2.655224 5.07744,-3.493947 1.92559,-0.838599 4.00566,-1.25793 6.24022,-1.257994 2.2364,6.4e-5 4.30178,0.403759 6.19614,1.211085 1.8943,0.807451 3.53988,1.925665 4.93673,3.354645 1.39679,1.429099 2.51453,3.137218 3.35323,5.124363 0.83862,1.987252 1.28922,4.160663 1.3518,6.520236 l -8.57141,0 c -0.12322,-2.173836 -0.86806,-3.912753 -2.23453,-5.216757 -1.36651,-1.303899 -3.04384,-1.955875 -5.03196,-1.955929 -2.04883,5.4e-5 -3.78727,0.683302 -5.21535,2.049745 -1.4281,1.366548 -2.14215,3.074193 -2.14213,5.122941 -2e-5,1.55228 0.40367,2.856231 1.21109,3.911858 0.80736,1.055713 2.3596,2.235523 4.6567,3.539435 6.02506,3.477874 10.41926,7.01778 13.18261,10.619726 2.76329,3.602005 4.14494,7.669746 4.14498,12.203233 l 0,0 z m 26.00133,-37.074515 0,54.123507 -9.03479,0 0,-54.123507 -11.36599,0 0,-8.292797 31.76678,0 0,8.292797 -11.366,0 z m 46.00697,54.123507 -4.37809,-17.048992 -13.41574,0 -4.09663,17.048992 -9.03766,0 15.55646,-62.416304 8.75904,0 15.55645,62.416304 -8.94383,0 z m -11.17836,-43.783809 -4.37809,17.978625 8.94383,0 -4.56574,-17.978625 z m 44.31827,-10.339698 0,54.123507 -9.03479,0 0,-54.123507 -11.36599,0 0,-8.292797 31.76678,0 0,8.292797 -11.366,0 z m 19.92319,54.123507 0,-62.416304 29.34462,0 0,8.759034 -20.40079,0 0,15.741247 12.94949,0 0,8.571404 -12.94949,0 0,20.588419 22.82296,0 0,8.7562 -31.76679,0 z"
   id="text7023"
   style="font-size:93.28099823px;font-style:normal;font-variant:normal;font-weight:normal;font-stretch:normal;text-align:center;line-height:125%;text-anchor:middle;fill:#ffffff;fill-opacity:1" />




<g
   id="text2637"
   style="font-size:54.92679977px;font-style:normal;font-variant:normal;font-weight:normal;font-stretch:normal;text-align:center;line-height:100%;text-anchor:middle;fill:#ffffff;fill-opacity:1;stroke:none;font-family:Roadgeek 2005 Series C;-inkscape-font-specification:Roadgeek 2005 Series C"><path
     d="m 303.34971,187 -9.33756,-17.4118 -3.84488,4.77864 0,12.63316 -5.82224,0 0,-36.80096 5.82224,0 0,14.61053 11.58956,-14.61053 7.52497,0 -11.36985,14.3359 12.13883,22.46506 -6.70107,0"
     id="path2996"
     style="font-family:Roadgeek 2005 Series D;-inkscape-font-specification:Roadgeek 2005 Series D" /><path
     d="m 338.11751,187 -3.62517,-10.32624 -11.4797,0 -3.62517,10.32624 -6.20672,0 12.68809,-36.80096 5.76731,0 12.68809,36.80096 -6.20673,0 m -9.28263,-26.58457 -3.78995,10.32624 7.3602,0 -3.57025,-10.32624"
     id="path2998"
     style="font-family:Roadgeek 2005 Series D;-inkscape-font-specification:Roadgeek 2005 Series D" /><path
     d="m 369.77594,187 -14.06126,-24.93677 0,24.93677 -5.82224,0 0,-36.80096 5.82224,0 13.40214,23.50867 0,-23.50867 5.82224,0 0,36.80096 -5.16312,0"
     id="path3000"
     style="font-family:Roadgeek 2005 Series D;-inkscape-font-specification:Roadgeek 2005 Series D" /><path
     d="m 406.15037,176.39913 c -3e-5,1.68443 -0.31128,3.24069 -0.93376,4.66878 -0.62253,1.4281 -1.51967,2.6731 -2.69141,3.73502 -1.02533,0.91545 -2.23371,1.62949 -3.62517,2.14214 -1.35488,0.47604 -2.81959,0.71405 -4.39415,0.71405 -3.18576,0 -5.91379,-0.84221 -8.18409,-2.52663 -2.23369,-1.72104 -3.97304,-3.99134 -5.21805,-6.81092 l 5.54761,-2.0323 c 0.76897,1.75767 1.83089,3.11253 3.18576,4.06459 1.35485,0.91545 2.9111,1.37317 4.66877,1.37317 1.72103,0 3.0942,-0.51265 4.11951,-1.53795 1.0619,-1.06191 1.59286,-2.36185 1.59288,-3.89981 -2e-5,-1.20837 -0.32958,-2.19706 -0.98868,-2.96604 -0.62252,-0.76896 -1.44643,-1.40978 -2.47171,-1.92244 -1.02531,-0.54925 -2.16047,-1.02528 -3.40546,-1.4281 -1.2084,-0.40278 -2.41679,-0.84219 -3.62517,-1.31824 -0.54928,-0.21969 -1.22671,-0.53094 -2.03229,-0.93376 -0.8056,-0.40277 -1.59288,-0.95204 -2.36185,-1.6478 -0.73236,-0.73234 -1.37318,-1.62947 -1.92244,-2.69141 -0.51265,-1.0619 -0.76898,-2.36183 -0.76897,-3.89981 -1e-5,-1.79424 0.29293,-3.31388 0.87882,-4.55892 0.58589,-1.28159 1.37317,-2.30689 2.36186,-3.0759 1.02529,-0.80556 2.23368,-1.39144 3.62517,-1.75766 1.42808,-0.36614 2.96603,-0.54923 4.61385,-0.54927 2.59985,4e-5 4.7603,0.67747 6.48136,2.03229 1.75763,1.3549 3.09418,3.18579 4.00966,5.49268 l -5.16312,1.53795 c -0.29297,-0.58585 -0.67745,-1.11681 -1.15347,-1.59287 -0.40281,-0.40277 -0.97039,-0.76895 -1.70273,-1.09854 -0.69575,-0.32953 -1.55627,-0.51262 -2.58156,-0.54927 -0.65913,-0.0366 -1.35487,0.0183 -2.08722,0.16478 -0.69575,0.10989 -1.31825,0.3296 -1.86751,0.65913 -0.54928,0.32959 -0.98869,0.78731 -1.31824,1.37317 -0.32957,0.54929 -0.45773,1.24503 -0.38449,2.08721 0.0732,1.13518 0.56757,2.01401 1.48303,2.63649 0.91543,0.58591 2.03228,1.09856 3.35053,1.53795 1.31823,0.43944 2.72802,0.89716 4.22936,1.37317 1.53794,0.43944 2.94772,1.09856 4.22937,1.97737 1.2816,0.84223 2.34352,1.99569 3.18575,3.46038 0.8788,1.42812 1.31822,3.35055 1.31825,5.76732"
     id="path3002"
     style="font-family:Roadgeek 2005 Series D;-inkscape-font-specification:Roadgeek 2005 Series D" /><path
     d="m 434.02485,187 -3.62517,-10.32624 -11.4797,0 -3.62517,10.32624 -6.20672,0 12.68809,-36.80096 5.76731,0 12.68809,36.80096 -6.20673,0 m -9.28263,-26.58457 -3.78994,10.32624 7.36019,0 -3.57025,-10.32624"
     id="path3004"
     style="font-family:Roadgeek 2005 Series D;-inkscape-font-specification:Roadgeek 2005 Series D" /><path
     d="m 468.26485,176.39913 c -2e-5,1.68443 -0.31128,3.24069 -0.93375,4.66878 -0.62253,1.4281 -1.51967,2.6731 -2.69142,3.73502 -1.02532,0.91545 -2.23371,1.62949 -3.62517,2.14214 -1.35487,0.47604 -2.81959,0.71405 -4.39414,0.71405 -3.18577,0 -5.91379,-0.84221 -8.18409,-2.52663 -2.2337,-1.72104 -3.97304,-3.99134 -5.21805,-6.81092 l 5.54761,-2.0323 c 0.76897,1.75767 1.83088,3.11253 3.18575,4.06459 1.35485,0.91545 2.91111,1.37317 4.66878,1.37317 1.72102,0 3.09419,-0.51265 4.11951,-1.53795 1.0619,-1.06191 1.59286,-2.36185 1.59288,-3.89981 -2e-5,-1.20837 -0.32958,-2.19706 -0.98868,-2.96604 -0.62253,-0.76896 -1.44643,-1.40978 -2.47171,-1.92244 -1.02532,-0.54925 -2.16047,-1.02528 -3.40546,-1.4281 -1.2084,-0.40278 -2.41679,-0.84219 -3.62517,-1.31824 -0.54928,-0.21969 -1.22671,-0.53094 -2.03229,-0.93376 -0.8056,-0.40277 -1.59289,-0.95204 -2.36185,-1.6478 -0.73237,-0.73234 -1.37318,-1.62947 -1.92244,-2.69141 -0.51266,-1.0619 -0.76898,-2.36183 -0.76898,-3.89981 0,-1.79424 0.29294,-3.31388 0.87883,-4.55892 0.58588,-1.28159 1.37317,-2.30689 2.36185,-3.0759 1.0253,-0.80556 2.23368,-1.39144 3.62517,-1.75766 1.42809,-0.36614 2.96604,-0.54923 4.61385,-0.54927 2.59985,4e-5 4.76031,0.67747 6.48137,2.03229 1.75763,1.3549 3.09418,3.18579 4.00965,5.49268 l -5.16312,1.53795 c -0.29296,-0.58585 -0.67745,-1.11681 -1.15346,-1.59287 -0.40282,-0.40277 -0.97039,-0.76895 -1.70273,-1.09854 -0.69576,-0.32953 -1.55628,-0.51262 -2.58156,-0.54927 -0.65914,-0.0366 -1.35487,0.0183 -2.08722,0.16478 -0.69575,0.10989 -1.31825,0.3296 -1.86751,0.65913 -0.54928,0.32959 -0.98869,0.78731 -1.31824,1.37317 -0.32957,0.54929 -0.45774,1.24503 -0.38449,2.08721 0.0732,1.13518 0.56757,2.01401 1.48302,2.63649 0.91544,0.58591 2.03228,1.09856 3.35054,1.53795 1.31823,0.43944 2.72801,0.89716 4.22936,1.37317 1.53793,0.43944 2.94772,1.09856 4.22936,1.97737 1.28161,0.84223 2.34352,1.99569 3.18576,3.46038 0.8788,1.42812 1.31822,3.35055 1.31824,5.76732"
     id="path3006"
     style="font-family:Roadgeek 2005 Series D;-inkscape-font-specification:Roadgeek 2005 Series D" /></g>
<g
   id="text2645"
   style="font-size:374.50100708px;font-style:normal;font-variant:normal;font-weight:normal;font-stretch:normal;text-align:center;line-height:100%;text-anchor:middle;fill:#ffffff;fill-opacity:1;stroke:none;font-family:Roadgeek 2005 Series C;-inkscape-font-specification:Roadgeek 2005 Series C"><path
     d="m 135.43639,450 c 0.49932,-8.48868 0.99865,-15.85386 1.498,-22.09556 0.74899,-6.24165 1.49799,-11.85916 2.24701,-16.85254 0.99865,-4.99331 2.12215,-9.73698 3.37051,-14.23104 1.49798,-4.74362 3.24565,-9.8618 5.24301,-15.35454 10.23632,-26.21498 23.71835,-47.06218 40.44611,-62.54167 1.49793,-1.24821 2.99594,-2.49654 4.49401,-3.74501 1.7476,-1.49787 3.74494,-3.12071 5.99202,-4.86852 2.49659,-1.74753 5.36776,-3.8697 8.61352,-6.36651 3.49525,-2.49653 7.73959,-5.49253 12.73303,-8.98803 8.23892,-5.74218 13.73159,-10.61069 16.47805,-14.60554 2.99589,-3.9945 4.49389,-9.11268 4.49401,-15.35454 -1.2e-4,-4.74349 -0.99879,-9.23749 -2.99601,-13.48203 -1.74778,-4.24415 -4.24446,-7.98915 -7.49002,-11.23503 -2.99611,-3.24547 -6.74112,-5.74214 -11.23503,-7.49002 -4.24444,-1.99712 -8.73844,-2.99579 -13.48203,-2.99601 -4.99343,2.2e-4 -9.61227,0.99889 -13.85654,2.99601 -4.24441,1.74788 -7.98942,4.24455 -11.23503,7.49002 -2.99607,3.24588 -5.49274,6.99088 -7.49002,11.23503 -1.74772,4.24454 -2.62156,8.73854 -2.62151,13.48203 l -35.20309,0 c 0.24965,-9.73683 2.12215,-18.84968 5.61751,-27.33857 3.74499,-8.73814 8.73833,-16.22815 14.98004,-22.47006 6.24164,-6.49111 13.60682,-11.48445 22.09556,-14.98004 8.48863,-3.74476 17.72631,-5.61726 27.71308,-5.61752 9.73693,2.6e-4 18.72494,1.87276 26.96407,5.61752 8.48857,3.74525 15.85375,8.86343 22.09556,15.35454 6.49121,6.24191 11.48455,13.60709 14.98004,22.09556 3.74486,8.48889 5.61736,17.60174 5.61751,27.33857 -1.5e-4,19.97355 -7.11566,36.45158 -21.34655,49.43414 -1.24847,0.9988 -2.62164,1.99747 -4.11951,2.996 -1.24847,0.74914 -2.49681,1.74781 -3.74501,2.99601 l -8.61353,6.36652 -8.98802,5.99201 -9.73703,7.11552 c -3.99477,2.99612 -7.98944,6.61629 -11.98403,10.86053 -3.74509,3.99478 -7.4901,8.48878 -11.23503,13.48204 -3.49542,4.74376 -6.61625,9.86194 -9.36253,15.35454 -2.7464,5.24308 -4.9934,10.48609 -6.74101,15.72904 -1.49807,3.24573 -2.62157,6.24173 -3.37051,8.98803 -0.49939,2.49671 -1.24839,5.99205 -2.24701,10.48603 l 101.48977,0 0,35.20309 -140.06337,0"
     id="path3035"
     style="font-family:Roadgeek 2005 Series C;-inkscape-font-specification:Roadgeek 2005 Series C" /><path
     d="m 445.19553,382.21532 c -1.5e-4,10.23642 -1.74782,19.8486 -5.24301,28.83658 -3.49549,8.73838 -8.364,16.35323 -14.60554,22.84456 -5.99214,6.49136 -13.35732,11.60953 -22.09556,15.35454 -8.48879,3.49534 -17.72648,5.24301 -27.71307,5.24301 -10.23644,0 -19.59896,-1.74767 -28.08758,-5.24301 -8.23907,-3.49534 -15.47942,-8.36385 -21.72106,-14.60554 -5.99204,-6.24166 -10.86055,-13.60684 -14.60554,-22.09556 -3.49536,-8.73831 -5.49269,-18.22566 -5.99201,-28.46208 l 35.20309,0 c 0.99862,10.23642 4.61879,18.7251 10.86053,25.46607 6.49128,6.49139 14.60546,9.73706 24.34257,9.73703 10.23626,3e-5 18.60011,-3.49531 25.09156,-10.48603 6.74091,-7.24031 10.11141,-16.10349 10.11153,-26.58957 -1.2e-4,-6.74095 -0.87395,-12.98262 -2.62151,-18.72505 -1.74778,-5.99193 -4.11962,-11.1101 -7.11551,-15.35454 -2.99612,-4.49391 -6.49146,-7.98925 -10.48603,-10.48603 -3.74511,-2.49656 -7.86462,-3.7449 -12.35854,-3.74501 l -17.60154,0 0,-34.45409 14.98004,0 c 4.49392,1.5e-4 7.86442,-0.74886 10.11152,-2.24701 2.49658,-1.49785 5.24292,-3.99452 8.23903,-7.49002 7.24024,-7.98919 10.86041,-17.3517 10.86053,-28.08758 -1.2e-4,-9.73682 -2.74646,-17.4765 -8.23903,-23.21906 -5.24311,-5.74213 -12.23379,-8.6133 -20.97205,-8.61352 -7.98944,2.2e-4 -14.35595,2.37206 -19.09955,7.11552 -4.49408,4.49422 -7.24042,10.98556 -8.23903,19.47405 l -35.20309,-4.49401 c 0.99864,-8.23882 3.24565,-15.85366 6.74102,-22.84456 3.49531,-7.24013 7.98931,-13.35697 13.48203,-18.35055 5.49264,-4.99311 11.85915,-8.86295 19.09955,-11.60953 7.24029,-2.99576 14.97997,-4.49376 23.21907,-4.49402 8.98793,2.6e-4 17.35177,1.62309 25.09156,4.86852 7.73957,3.24592 14.35575,7.86476 19.84856,13.85653 5.74221,5.74258 10.23622,12.60843 13.48203,20.59756 3.24553,7.73989 4.86837,16.10374 4.86852,25.09157 -1.5e-4,10.48621 -1.74782,20.22322 -5.24302,29.21107 -3.24581,8.98818 -9.11299,18.3507 -17.60154,28.08758 9.73689,8.73848 16.97723,18.72517 21.72105,29.96008 4.9932,11.23512 7.48987,23.21914 7.49002,35.9521"
     id="path3037"
     style="font-family:Roadgeek 2005 Series C;-inkscape-font-specification:Roadgeek 2005 Series C" /><path
     d="m 614.8913,361.99226 c -1.5e-4,13.23245 -1.99749,25.46613 -5.99201,36.7011 -3.99482,11.23507 -9.4875,20.97209 -16.47805,29.21108 -6.99081,8.23904 -15.22982,14.73038 -24.71706,19.47405 -9.48746,4.74368 -19.84864,7.11552 -31.08359,7.11552 -11.23509,0 -22.09561,-1.87251 -32.58158,-5.61751 -10.2364,-3.74501 -19.97342,-9.23768 -29.21108,-16.47805 l 23.59356,-25.46607 c 6.24164,4.24439 11.98398,7.36523 17.22705,9.36253 5.24295,1.99737 10.98529,2.99604 17.22704,2.99601 6.74094,3e-5 12.98262,-1.37314 18.72505,-4.11951 5.74226,-2.99597 10.61076,-7.11548 14.60554,-12.35854 4.24424,-5.24296 7.48991,-11.48464 9.73703,-18.72505 2.49655,-7.24028 3.74489,-15.22962 3.74501,-23.96806 -1.2e-4,-13.7316 -3.12096,-24.46729 -9.36253,-32.20709 -6.24178,-7.73956 -14.60563,-11.6094 -25.09156,-11.60953 -10.98544,1.3e-4 -20.97212,4.11964 -29.96008,12.35853 l -34.4541,-4.49401 6.36652,-125.08333 117.96782,0 0,35.20309 -84.63723,0 -2.62151,52.80464 c 6.24162,-2.24684 11.23496,-3.62001 14.98004,-4.11951 3.9946,-0.74883 8.36378,-1.12333 13.10754,-1.1235 10.23626,1.7e-4 19.59878,1.9975 28.08757,5.99201 8.48857,3.74517 15.72892,9.23785 21.72106,16.47805 5.99188,6.99082 10.61072,15.35467 13.85654,25.09157 3.49519,9.73713 5.24286,20.59765 5.24301,32.58158"
     id="path3039"
     style="font-family:Roadgeek 2005 Series C;-inkscape-font-specification:Roadgeek 2005 Series C" /></g>
</svg>