<svg xmlns="http://www.w3.org/2000/svg" width="300" height="200">
<title>5.28 Километровый знак</title>
<defs><style>.a{fill:#fff}</style></defs><rect class="a" x="1" y="1" width="298" height="198" rx="44"/><path d="M255 2a43.049 43.049 0 0 1 43 43v110a43.049 43.049 0 0 1-43 43H45a43.049 43.049 0 0 1-43-43V45A43.049 43.049 0 0 1 45 2h210m0-2H45A45 45 0 0 0 0 45v110a45 45 0 0 0 45 45h210a45 45 0 0 0 45-45V45a45 45 0 0 0-45-45z"/><rect x="10" y="10" width="280" height="180" rx="35" style="fill:#0d69e1"/><path class="a" d="M64.107 67.888h9.577v63.839H62.512V82.252l-8.55 5.358-3.762-4.902zM114.38 67.09c8.778 0 18.354 7.182 18.354 16.758 0 7.98-1.482 10.487-5.586 15.504-5.016 6.383-12.54 13.337-20.748 22.002h26.334a31.245 31.245 0 0 1-2.394 10.373H92.037v-9.576a242.893 242.893 0 0 0 23.255-24.168c3.876-4.56 6.727-7.752 6.727-14.135 0-3.99-3.648-8.322-9.234-8.322-4.788 0-8.779 4.332-12.768 8.322l-6.384-7.182c4.787-5.472 11.172-9.576 20.747-9.576zM191.785 99.808c0 19.151-8.777 32.717-21.546 32.717-12.767 0-21.545-13.566-21.545-32.717 0-19.152 8.778-32.718 21.545-32.718 12.769 0 21.546 14.592 21.546 32.718zm-31.92 0c0 15.96 4.219 22.8 10.374 22.8s10.374-6.84 10.374-22.8-4.219-22.8-10.374-22.8-10.374 6.84-10.374 22.8zM218.12 78.262v15.162c2.394-3.193 6.726-3.99 10.372-3.99a19.559 19.559 0 0 1 19.153 19.949c0 12.768-9.577 23.142-24.739 23.142-7.181 0-15.16-3.192-15.16-3.192l-1.597-10.374c3.876 2.622 9.917 3.192 15.162 3.192 6.384 0 14.363-3.99 14.363-11.97 0-5.585-3.988-11.97-11.172-11.97-4.787 0-7.979 3.99-9.574 4.789l-7.183-3.99V67.887h36.708l-3.193 10.374z"/></svg>