<?xml version="1.0" encoding="UTF-8" standalone="no"?>
<!-- Created with Inkscape (http://www.inkscape.org/) -->

<svg
   xmlns:svg="http://www.w3.org/2000/svg"
   xmlns="http://www.w3.org/2000/svg"
   version="1.0"
   width="450"
   height="450"
   id="svg1890">
  <defs
     id="defs1893" />
  <rect
     width="447.5"
     height="447.5"
     rx="33.316483"
     x="1.25"
     y="1.25"
     id="rect2385"
     style="fill:#ffffff;fill-opacity:1;fill-rule:evenodd;stroke:#0066b3;stroke-width:2.5;stroke-linecap:butt;stroke-linejoin:round;stroke-miterlimit:4;stroke-opacity:1;stroke-dasharray:none;stroke-dashoffset:0;marker:none;visibility:visible;display:inline;overflow:visible;enable-background:accumulate" />
  <rect
     width="415"
     height="415"
     rx="22.503939"
     ry="22.503939"
     x="16.978363"
     y="17.24411"
     id="rect3157"
     style="fill:#0066b3;fill-opacity:1;fill-rule:evenodd;stroke:none;stroke-width:1.25;marker:none;visibility:visible;display:inline;overflow:visible;enable-background:accumulate" />
  <rect
     width="367.5"
     height="90"
     x="43.855934"
     y="88.830505"
     id="rect2836"
     style="color:#000000;fill:#ffffff;fill-opacity:1;fill-rule:evenodd;stroke:none;stroke-width:99;marker:none;visibility:visible;display:inline;overflow:visible;enable-background:accumulate" />
  <g
     id="text2820"
     style="font-size:130px;font-style:normal;font-weight:normal;text-align:center;text-anchor:middle;fill:#ffffff;fill-opacity:1;stroke:none;font-family:'Rounded M+ 1m regular';-inkscape-font-specification:'Rounded M+ 1m regular'">
    <path
       d="m 46.91655,310.14017 c -1.906957,3.46481 -4.463209,7.53788 -7.668763,12.21924 -0.692961,1.03946 -1.668251,1.53736 -2.925872,1.49368 -1.257635,-0.0436 -2.189285,-0.62878 -2.794953,-1.75553 -1.732383,-3.0336 -1.602785,-5.93633 0.388794,-8.70819 10.833318,-15.08091 18.590676,-32.37164 23.272095,-51.87225 0.346448,-1.3858 1.06122,-2.44705 2.144318,-3.18375 1.083038,-0.73648 2.317523,-1.0175 3.70346,-0.84304 1.301235,0.17202 2.341985,0.79951 3.122254,1.88247 0.780195,1.08317 1.039391,2.27534 0.777588,3.57651 -0.08467,0.17201 -0.170631,0.51849 -0.257874,1.03943 -0.08732,0.52113 -0.174597,0.86761 -0.261841,1.03943 -0.171952,0.69305 0.08857,1.03952 0.781555,1.03943 l 35.880129,0 c 0.69288,9e-5 1.03935,-0.39002 1.03943,-1.17035 l 0,-4.55048 c -8e-5,-1.3858 0.49848,-2.59847 1.49566,-3.638 0.99704,-1.03932 2.23218,-1.55904 3.70545,-1.55914 1.4731,1e-4 2.70825,0.51982 3.70544,1.55914 0.99703,1.03953 1.49558,2.2522 1.49567,3.638 l 0,4.55048 c -9e-5,0.78033 0.38871,1.17044 1.16638,1.17035 l 35.10254,0 c 1.21387,9e-5 2.23214,0.43385 3.05481,1.30127 0.82242,0.8676 1.2337,1.86471 1.23382,2.99133 -1.2e-4,1.1268 -0.4114,2.12325 -1.23382,2.98935 -0.82267,0.86628 -1.84094,1.29937 -3.05481,1.29928 l -85.800476,0 c -0.692988,9e-5 -1.126744,0.34657 -1.30127,1.03943 -1.732413,5.72091 -3.768951,11.39809 -6.109619,17.03156 -0.259224,0.60574 -0.388822,1.34233 -0.388794,2.20978 l 0,73.45031 c -2.8e-5,1.3859 -0.476763,2.55559 -1.430206,3.50907 -0.953496,0.95346 -2.123844,1.43019 -3.511048,1.4302 -1.387248,-1e-5 -2.535776,-0.47674 -3.445587,-1.4302 -0.909849,-0.95348 -1.364764,-2.12317 -1.364746,-3.50907 l 0,-58.11279 c -1.8e-5,-0.17186 -0.06482,-0.25782 -0.194397,-0.25787 -0.129615,5e-5 -0.238054,0.0437 -0.325317,0.13092 z m 98.41248,-21.19324 0,11.17981 c -1.2e-4,1.99428 -0.73737,3.72798 -2.21177,5.20111 -1.47462,1.47324 -3.20766,2.20983 -5.19912,2.20978 l -55.899051,0 -2.602539,0 c -1.99427,5e-5 -3.706152,-0.73654 -5.135651,-2.20978 -1.429588,-1.47313 -2.14436,-3.20683 -2.144318,-5.20111 l 0,-11.17981 c -4.2e-5,-1.9915 0.71473,-3.72388 2.144318,-5.19714 1.429499,-1.47311 3.141381,-2.2097 5.135651,-2.20978 l 58.50159,0 c 1.99146,8e-5 3.7245,0.73667 5.19912,2.20978 1.4744,1.47326 2.21165,3.20564 2.21177,5.19714 z m -10.14039,10.14038 0,-8.97003 c -1e-4,-0.78016 -0.39022,-1.17028 -1.17034,-1.17035 l -50.832829,0 c -0.777641,7e-5 -1.166435,0.39019 -1.166382,1.17035 l 0,8.97003 c -5.3e-5,0.7803 0.388741,1.17041 1.166382,1.17035 l 50.832829,0 c 0.78012,6e-5 1.17024,-0.39005 1.17034,-1.17035 z m 18.00354,41.08124 c -0.99723,0.95217 -2.18874,1.42824 -3.57452,1.42822 -1.38602,2e-5 -2.55571,-0.47605 -3.50906,-1.42822 -0.95359,-0.95213 -1.43032,-2.12248 -1.43021,-3.51105 l 0,-13.00079 c -1.1e-4,-0.69292 -0.39023,-1.03939 -1.17035,-1.03943 l -69.939269,0 c -0.69564,4e-5 -1.043439,0.34651 -1.043396,1.03943 l 0,13.13171 c -4.3e-5,1.38593 -0.476116,2.5338 -1.428222,3.44361 -0.952189,0.90985 -2.121876,1.36476 -3.509064,1.36474 -1.387264,2e-5 -2.535792,-0.45489 -3.445587,-1.36474 -0.909865,-0.90981 -1.364779,-2.05768 -1.364746,-3.44361 l 0,-15.07965 c -3.3e-5,-1.99418 0.736558,-3.72788 2.209778,-5.20111 1.473148,-1.47314 3.20685,-2.20973 5.20111,-2.20978 l 77.088316,0 c 1.9941,5e-5 3.72781,0.73664 5.20111,2.20978 1.47306,1.47323 2.20966,3.20693 2.20978,5.20111 l 0,14.94873 c -1.2e-4,1.38857 -0.49868,2.55892 -1.49567,3.51105 z m -51.80481,22.74841 c 3.2055,0 5.11177,-0.34648 5.71885,-1.03943 0.60691,-0.69295 0.91041,-2.90272 0.91049,-6.62933 l 0,-14.04022 c -8e-5,-0.69293 -0.34656,-1.03941 -1.03943,-1.03943 l -26.001587,0 c -1.126759,2e-5 -2.123208,-0.43307 -2.98935,-1.29929 -0.866238,-0.86616 -1.299333,-1.90625 -1.299286,-3.12027 -4.7e-5,-1.21396 0.433048,-2.23223 1.299286,-3.05481 0.866142,-0.82252 1.862591,-1.23379 2.98935,-1.23382 l 55.252377,0 c 1.21388,3e-5 2.23215,0.4113 3.05481,1.23382 0.82244,0.82258 1.23372,1.84085 1.23383,3.05481 -1.1e-4,1.21402 -0.43321,2.25411 -1.29929,3.12027 -0.8663,0.86622 -1.86275,1.29931 -2.98935,1.29929 l -16.64276,0 c -0.77768,2e-5 -1.16647,0.3465 -1.16638,1.03943 l 0,13.9093 c -9e-5,7.36857 -0.84512,11.94086 -2.5351,13.71689 -1.69014,1.77601 -6.04622,2.66402 -13.06823,2.66403 -2.77188,-10e-6 -6.888598,-0.12961 -12.350161,-0.38879 -1.211404,-0.0873 -2.250832,-0.56403 -3.118286,-1.43021 -0.86757,-0.8662 -1.343644,-1.90629 -1.428223,-3.12027 -0.08734,-1.12671 0.259139,-2.102 1.039429,-2.92587 0.780174,-0.82388 1.775962,-1.19217 2.987365,-1.10489 5.027808,0.25919 8.841688,0.38879 11.441646,0.38879 z"
       id="path2825"
       style="fill:#ffffff" />
    <path
       d="m 280.46269,360.12399 c 0.90971,0.90983 1.36463,1.97108 1.36475,3.18375 -1.2e-4,1.21266 -0.45504,2.27457 -1.36475,3.18573 -0.90995,0.91115 -1.97186,1.36672 -3.18573,1.36673 l -105.29968,0 c -1.214,-1e-5 -2.27591,-0.45558 -3.18573,-1.36673 -0.90984,-0.91116 -1.36475,-1.97307 -1.36475,-3.18573 0,-1.21267 0.45491,-2.27392 1.36475,-3.18375 0.90982,-0.90983 1.97173,-1.36474 3.18573,-1.36474 l 12.35016,0 c 0.69293,0 1.0394,-0.39012 1.03943,-1.17035 l 0,-74.48975 c -3e-5,-1.38582 0.49853,-2.55551 1.49566,-3.50906 0.99709,-0.95339 2.18859,-1.43012 3.57453,-1.43021 1.38587,9e-5 2.55556,0.47682 3.50906,1.43021 0.95344,0.95355 1.43017,2.12324 1.43021,3.50906 l 0,74.48975 c -4e-5,0.78023 0.39008,1.17035 1.17035,1.17035 l 25.60882,0 c 0.69554,0 1.04333,-0.39012 1.0434,-1.17035 l 0,-92.94953 c -7e-5,-1.47308 0.49783,-2.68641 1.49368,-3.63998 0.99572,-0.95337 2.18789,-1.4301 3.57651,-1.43021 1.47311,1.1e-4 2.7076,0.498 3.70346,1.49369 0.99571,0.99588 1.49361,2.18805 1.49368,3.5765 l 0,25.60883 c -7e-5,0.7803 0.3464,1.17042 1.03943,1.17035 l 38.08991,0 c 1.21387,7e-5 2.25462,0.43316 3.12225,1.29928 0.8674,0.86626 1.30115,1.90635 1.30127,3.12027 -1.2e-4,1.21406 -0.43387,2.25415 -1.30127,3.12027 -0.86763,0.86626 -1.90838,1.29935 -3.12225,1.29929 l -38.08991,0 c -0.69303,6e-5 -1.0395,0.39018 -1.03943,1.17035 l 0,56.16089 c -7e-5,0.78023 0.3464,1.17035 1.03943,1.17035 l 42.7713,0 c 1.21387,0 2.27578,0.45491 3.18573,1.36474 z"
       id="path2827"
       style="fill:#ffffff" />
    <path
       d="m 369.83769,362.91696 c 2.25334,0 3.5751,-0.34648 3.9653,-1.03943 0.39004,-0.69295 0.58509,-2.90272 0.58518,-6.62933 l 0,-39.12933 c -9e-5,-0.78019 -0.3902,-1.17031 -1.17035,-1.17035 l -17.03156,0 -1.94793,0 c -1.99429,4e-5 -3.72799,-0.71473 -5.20111,-2.14432 -1.47325,-1.4295 -2.20984,-3.14138 -2.20978,-5.13565 l 0,-34.45191 c -6e-5,-1.99148 0.73653,-3.72386 2.20978,-5.19714 1.47312,-1.47309 3.20682,-2.20968 5.20111,-2.20978 l 14.94873,0 c 0.78015,10e-5 1.25622,-0.39002 1.42822,-1.17035 0.52096,-1.73492 0.99835,-3.51227 1.43219,-5.33203 0.43367,-1.47308 1.23506,-2.62095 2.40417,-3.4436 1.16895,-0.82244 2.49137,-1.1914 3.96729,-1.10687 1.38581,0.17466 2.49004,0.80348 3.31268,1.88644 0.82246,1.08317 1.0605,2.27534 0.71411,3.57651 -0.172,0.43121 -0.38822,1.16714 -0.64865,2.20779 -0.26061,1.04085 -0.43451,1.77811 -0.52169,2.21176 -0.17201,0.78033 0.0885,1.17045 0.78155,1.17035 l 20.01892,0 c 1.99411,10e-5 3.72781,0.73669 5.20111,2.20978 1.47307,1.47328 2.20966,3.20566 2.20978,5.19714 l 0,34.45191 c -1.2e-4,1.99427 -0.73671,3.70615 -2.20978,5.13565 -1.4733,1.42959 -3.207,2.14436 -5.20111,2.14432 l -17.94006,0 0,0.13092 c 2.16868,6.23926 5.15869,12.56575 8.97003,18.97949 0.34637,0.6057 0.78013,0.64934 1.30127,0.13092 4.16025,-4.24761 7.88685,-8.5812 11.17981,-13.00079 0.69283,-0.95476 1.62448,-1.51877 2.79495,-1.69205 1.17023,-0.1732 2.23214,0.0873 3.18573,0.78155 0.95335,0.69432 1.53852,1.66961 1.75552,2.92588 0.21676,1.25634 -0.0213,2.36057 -0.71411,3.31268 -4.24776,5.72086 -8.66863,10.7474 -13.26263,15.07965 -0.69306,0.52106 -0.77902,1.08441 -0.25787,1.69006 4.33216,5.8954 9.05454,11.13883 14.16717,15.73029 1.04195,0.9548 1.64961,2.10398 1.82297,3.44757 0.17311,1.34359 -0.17403,2.57873 -1.04141,3.70545 -0.78036,1.1267 -1.86409,1.75485 -3.25119,1.88446 -1.38735,0.12959 -2.55704,-0.23937 -3.50907,-1.10688 -9.10106,-8.75182 -16.68386,-19.15139 -22.74841,-31.19873 -0.0874,-0.0872 -0.17466,-0.13089 -0.26184,-0.13092 -0.0874,3e-5 -0.13102,0.0873 -0.13092,0.26184 l 0,19.23737 c -10e-5,7.36857 -0.67123,11.94086 -2.0134,13.71689 -1.34236,1.77601 -4.96118,2.66402 -10.85648,2.66403 -3.03372,-10e-6 -5.63362,-0.086 -7.79968,-0.25787 -1.21406,-0.0873 -2.25415,-0.58585 -3.12027,-1.49567 -0.86626,-0.90984 -1.34299,-1.97175 -1.4302,-3.18573 -0.0847,-1.12671 0.28425,-2.102 1.10687,-2.92587 0.82248,-0.82388 1.84075,-1.19217 3.05481,-1.10489 2.85901,0.25919 5.11243,0.38879 6.76025,0.38879 z m -13.65143,-87.74841 0,10.14038 c -6e-5,0.69303 0.34641,1.0395 1.03943,1.03943 l 41.08124,0 c 0.78012,7e-5 1.17024,-0.3464 1.17035,-1.03943 l 0,-10.14038 c -1.1e-4,-0.78015 -0.39023,-1.17026 -1.17035,-1.17035 l -41.08124,0 c -0.69302,9e-5 -1.03949,0.3902 -1.03943,1.17035 z m 1.03943,31.98028 41.08124,0 c 0.78012,6e-5 1.17024,-0.34642 1.17035,-1.03942 l 0,-10.6601 c -1.1e-4,-0.69288 -0.39023,-1.03936 -1.17035,-1.03943 l -41.08124,0 c -0.69302,7e-5 -1.03949,0.34655 -1.03943,1.03943 l 0,10.6601 c -6e-5,0.693 0.34641,1.03948 1.03943,1.03942 z m -58.23974,6.24054 5.33203,-0.26184 c 0.78022,5e-5 1.38655,-0.30345 1.819,-0.91049 0.43242,-0.60694 1.12537,-1.56041 2.07886,-2.86041 0.95345,-1.29989 1.64706,-2.29634 2.08084,-2.98935 0.52101,-0.6929 0.56465,-1.29857 0.13092,-1.81702 -2.16616,-3.6419 -6.54339,-10.66267 -13.13172,-21.06231 -1.73238,-2.77173 -1.6451,-5.45758 0.26184,-8.05756 0.69295,-0.95471 1.60278,-1.38846 2.7295,-1.30127 1.12669,0.0874 2.03652,0.60708 2.72949,1.55914 0.17455,0.34657 0.45688,0.77966 0.84701,1.29929 0.39011,0.5198 0.67112,0.95289 0.84305,1.29928 0.34646,0.52112 0.69294,0.56476 1.03943,0.13093 3.38011,-5.97994 6.54335,-12.04591 9.48975,-18.19794 0.52101,-1.12661 1.3667,-1.92866 2.53708,-2.40616 1.17032,-0.47729 2.36116,-0.45547 3.57254,0.0655 1.12667,0.5185 1.9069,1.31989 2.34069,2.40417 0.43373,1.0845 0.39009,2.19005 -0.13092,3.31666 -3.55207,7.27873 -7.75474,15.03477 -12.60803,23.26812 -0.25922,0.52111 -0.25922,1.08447 0,1.69007 0.52102,0.95486 1.34489,2.32027 2.47162,4.09622 1.12668,1.77609 1.94923,3.09785 2.46765,3.9653 0.34645,0.51846 0.69293,0.51846 1.03943,0 5.97999,-9.36007 10.7037,-17.16107 14.17114,-23.40302 0.60563,-1.03933 1.47182,-1.75411 2.59857,-2.14431 1.12667,-0.39003 2.25338,-0.28093 3.38013,0.3273 1.04203,0.60576 1.75746,1.45013 2.1463,2.53311 0.38875,1.08316 0.28031,2.1444 -0.32531,3.18375 -7.10678,12.65571 -14.3431,24.13966 -21.70899,34.4519 -0.3465,0.52109 -0.2169,0.7816 0.38879,0.78156 l 16.90064,-1.0434 c 0.69291,5e-5 0.95342,-0.34643 0.78155,-1.03943 -1.5605,-5.54621 -2.73085,-9.61928 -3.51104,-12.21924 -0.34652,-1.12664 -0.2599,-2.18855 0.25985,-3.18573 0.51968,-0.99704 1.34289,-1.62519 2.46964,-1.88446 1.12666,-0.34641 2.20973,-0.23797 3.24921,0.32532 1.03938,0.56342 1.73233,1.40845 2.07885,2.53509 2.94897,9.36021 5.24602,18.15699 6.89118,26.39039 0.1745,0.78027 0.6519,1.17038 1.43219,1.17034 l 17.94006,0 c 2.25334,4e-5 3.89976,1.08311 4.93927,3.24921 1.03935,2.34073 1.08299,4.55051 0.13092,6.62933 -2.42806,6.06733 -5.98208,12.04734 -10.66208,17.94007 -4.68014,5.89274 -9.88058,10.87697 -15.60135,14.9527 -1.03948,0.77758 -2.20917,1.05859 -3.50906,0.84304 -1.3,-0.21556 -2.38373,-0.84437 -3.25119,-1.88644 -0.77764,-0.95215 -1.05865,-2.0134 -0.84305,-3.18375 0.21551,-1.17034 0.80068,-2.10199 1.75553,-2.79495 5.19973,-3.63932 9.8798,-7.79901 14.04022,-12.47909 4.16029,-4.68006 7.32354,-9.40311 9.48974,-14.16916 0.34641,-0.69293 0.12953,-1.0394 -0.65063,-1.03943 l -12.60803,0 c -1.64781,3e-5 -3.07867,-0.58515 -4.29261,-1.75553 -1.21404,-1.17031 -1.82103,-2.623 -1.82098,-4.35806 l 0,-0.38879 c -5e-5,-0.25916 -0.21561,-0.38876 -0.64667,-0.3888 -1.04212,0.17196 -1.99625,-0.0449 -2.86239,-0.65063 -0.86624,-0.60563 -1.42894,-1.42951 -1.68808,-2.47162 -5e-5,-0.17188 -0.0437,-0.38809 -0.13092,-0.64865 -0.0873,-0.26048 -0.13097,-0.47669 -0.13092,-0.64865 -0.17197,-0.43372 -0.4748,-0.65059 -0.90851,-0.65064 l -11.17981,0.65064 c -0.69299,4e-5 -1.03947,0.39016 -1.03943,1.17035 l 0,47.05993 c -4e-5,1.3859 -0.47677,2.55559 -1.43021,3.50907 -0.9535,0.95346 -2.12385,1.43019 -3.51104,1.4302 -1.38726,-10e-6 -2.53579,-0.47674 -3.44559,-1.4302 -0.90986,-0.95348 -1.36477,-2.12317 -1.36475,-3.50907 l 0,-46.41327 c -2e-5,-0.69291 -0.39014,-1.03938 -1.17035,-1.03942 l -14.42901,0.91247 c -1.12672,0.0847 -2.10201,-0.2413 -2.92588,-0.97793 -0.82387,-0.73656 -1.27879,-1.71118 -1.36474,-2.92389 -0.086,-1.21263 0.28233,-2.25205 1.10489,-3.11829 0.82254,-0.86614 1.79717,-1.34288 2.92389,-1.43021 z m 9.36279,19.36829 c -0.86753,9.44745 -2.47164,19.15406 -4.81232,29.11987 -0.25921,1.12671 -0.88736,2.01538 -1.88446,2.66602 -0.99712,0.65063 -2.05903,0.84503 -3.18573,0.58319 -1.12671,-0.17192 -1.99357,-0.73461 -2.60055,-1.68808 -0.607,-0.95347 -0.77958,-1.99356 -0.51773,-3.12027 2.34069,-9.96581 3.94347,-19.41191 4.80835,-28.33832 0.17455,-1.12668 0.6731,-2.03717 1.49566,-2.73147 0.82254,-0.69425 1.79717,-0.99774 2.92389,-0.9105 1.12669,0.1746 2.05834,0.67315 2.79495,1.49567 0.73658,0.82258 1.06256,1.79721 0.97794,2.92389 z m 25.22003,-4.80835 c 1.12667,-0.17453 2.12311,0.0635 2.98935,0.71411 0.86614,0.65067 1.3852,1.53934 1.55716,2.66602 1.04202,5.80548 1.90954,11.7855 2.60254,17.94006 0.0872,1.12672 -0.19445,2.10135 -0.84503,2.92389 -0.65069,0.82256 -1.53936,1.32111 -2.66602,1.49567 -1.12675,0.0873 -2.10138,-0.21621 -2.92389,-0.9105 -0.82259,-0.69426 -1.32115,-1.60475 -1.49566,-2.73147 -0.78028,-7.01943 -1.56051,-12.86853 -2.3407,-17.5473 -0.17196,-1.04205 0.0449,-2.018 0.65063,-2.92786 0.60563,-0.9098 1.4295,-1.45067 2.47162,-1.62262 z"
       id="path2829"
       style="fill:#ffffff" />
  </g>
</svg>
