<?xml version="1.0" encoding="UTF-8" standalone="no"?>
<svg xmlns="http://www.w3.org/2000/svg" width="1010.4" height="1010.4002" version="1.0">
  <path d="M296.0223 1010.2001.2 714.378l.0001-418.3556L296.0221.2l418.35567.0003L1010.2 296.0224l-.0002 418.3558-295.82203 295.822z"/>
  <path fill="#fff" d="M298.0933 1005.2 5.2 712.3068l.0001-414.2135L298.0932 5.1998l414.21349.0003 292.8933 292.8932-.0002 414.2136-292.8931 292.8932z"/>
  <path fill="#cf181f" d="M318.8039 955.2 55.2 691.5962l.0001-372.7922L318.8039 55.1999l372.79211.0004L955.2 318.804l-.00019 372.7923-263.6038 263.6038z"/>
  <path fill="#fff" fill-rule="evenodd" d="M161.672 576.6058v19.8874c.3757 6.6292 2.9578 13.2583 7.0053 18.4085 3.6843 4.787 8.0951 8.0951 13.6215 10.3134 5.8897 2.5687 12.5188 3.3081 19.148 2.5687 6.6291-.3633 13.2582-2.2054 18.4084-6.2529 5.5135-3.3211 9.574-8.8346 11.7794-15.1005.74-1.8421 1.4789-4.0475 1.8422-5.8896 0-.739.3632-1.8422.3632-2.5816v-42.3435c-.3632-3.6713-1.8422-7.7188-3.6843-11.0399-1.8292-3.6842-4.0475-6.9923-7.3556-9.9372-1.8422-1.8421-4.0475-3.321-6.6291-4.4237-.739-.3633-1.8422-1.1027-2.9449-1.4659l-45.6515-17.6821c-.7389-.3632-1.4789-.3632-2.2183-.7264-5.8897-2.2184-11.0399-4.787-15.8269-8.4713-9.1978-6.2659-16.9426-13.9977-22.8323-23.1955-6.6161-10.3134-11.0399-22.0928-11.7793-34.2483 0-.7265-.3633-1.8292-.3633-2.9449v-28.7089c0-1.4789 0-2.9449.3633-4.4238.3757-8.8345 2.9448-16.9425 6.6291-25.0376 5.5264-12.1556 13.9848-23.1955 24.6744-31.2905 11.4031-9.2108 25.4009-15.1004 40.125-16.9426 12.1556-2.2054 25.0377-1.4789 37.1932 2.2054 15.0875 4.0475 29.0852 12.5188 39.7619 24.3111 8.4712 9.1978 14.7242 19.8745 18.0322 31.6538 1.4789 4.787 2.5816 9.9502 2.9578 14.7372 0 1.1027 0 2.2054.3633 3.3081v21.7165h-50.4385V414.977c0-.739 0-1.1027-.3757-1.8422-.3632-4.0475-1.1027-7.7318-2.5686-11.4161-2.5816-5.5264-7.3686-10.3134-12.5188-13.6215-5.1632-3.3081-11.0529-5.1502-17.3058-5.5264-8.4713-.7265-17.3058 1.8421-24.2982 7.7318-5.5264 3.6843-9.574 9.574-11.0529 15.4636-.7389 2.2184-1.1027 4.787-1.1027 7.0054 0 .3632-.3632 1.1027-.3632 1.8421v21.7166c0 .3632 0 1.1027.3632 1.8421.3633 4.4238 1.466 8.4713 3.6843 12.5189 1.8422 3.6842 4.4238 7.3556 7.3686 9.9372 1.8292 1.8421 4.0475 3.308 5.8897 4.4237.7265.3632 1.4659.7265 2.2054 1.1027l38.2829 14.361c.7389.3632 1.4789.7399 2.2184 1.1027 5.5134 2.5686 11.0399 4.4107 16.5663 6.9923 6.9924 3.6843 13.2583 8.4713 18.7717 13.9977 7.0054 6.253 12.5188 13.6215 16.5793 22.4561 4.0476 8.4712 6.6162 17.669 7.3557 27.243 0 .7399 0 1.4789.3756 2.2054v42.7196c-.3756.3632-.3756 1.1027-.3756 1.8421-.74 6.253-1.466 12.5059-3.3081 18.7718-3.3211 12.882-11.0529 24.6743-20.9901 33.8721-8.8345 9.2107-19.8744 15.8399-32.03 19.5112-12.5188 4.787-26.1403 6.2659-39.7618 4.787-17.3058-1.8422-34.9878-8.4583-48.2331-20.2507-11.0529-8.8345-19.8874-20.9771-23.935-34.6116-2.5816-6.6291-3.6842-13.6215-4.4237-20.9771v-23.5717h50.4385m207.669 96.4662V382.2075h-60.0124v-44.925h170.1001v44.925H419.78V673.072h-50.4385m190.71396-258.095v179.6741c0 .74.3768 1.8421.3768 2.5816.7265 6.2529 2.9448 12.5188 6.6161 17.669 4.4238 5.8897 10.6897 9.9372 17.682 11.7794 6.9924 2.2183 14.7242 2.2183 21.7166-.3633 6.2659-2.2183 11.7923-5.8896 15.8399-11.0528 2.9448-3.6843 5.1502-7.7319 6.2529-12.5188.739-1.8292 1.1027-4.0476 1.1027-5.8897V412.0321c-.7389-5.1632-2.5686-10.3134-5.5135-14.7371-4.0605-5.8897-10.3134-10.3005-17.3058-12.5059-7.3686-2.9448-15.1004-2.9448-22.469-.7389-6.6161 1.8421-12.5188 5.8897-16.5663 11.0399-2.9448 3.321-5.1502 7.7318-6.2529 11.7793-.739 2.2184-1.1027 4.0606-1.1027 6.2659-.3768.739-.3768 1.4789-.3768 1.8422zm-50.43836-2.5816c.3632-.7265.3632-1.8422.3632-2.5687 1.1027-12.1555 4.787-23.9349 11.05286-34.2483 6.9924-12.5188 18.0323-22.8322 30.564-29.8246 9.9373-5.8897 21.3534-9.574 32.7565-10.6767 14.361-1.8421 29.0981-.3632 42.3435 5.1502 15.1004 5.5265 27.9824 15.4637 37.5564 28.3587 9.2107 11.7794 15.1004 25.7641 15.8398 40.1251v188.8848c0 1.1027 0 2.2054-.3756 2.9449-1.1027 9.9372-3.3081 19.5111-7.7319 28.3586-7.3686 16.1902-20.9901 30.1879-37.5564 37.9197-12.1426 6.2529-25.7641 9.574-39.3986 9.1978-13.9847.3757-27.9825-2.5687-40.1251-9.1978-11.0528-5.5264-20.6268-13.2583-28.3457-23.1955-8.108-9.9501-13.99766-22.0927-15.47656-34.6116-.7265-2.9448-.7265-6.2658-1.1027-9.2107 0-.7265 0-1.8421-.3632-2.5686V412.3954m276.13976-29.8246v113.4087h34.6116c5.5264-.3767 11.0399-2.2184 15.8269-5.1632 4.787-2.9448 8.4713-6.6291 11.0529-11.0399 2.5686-4.0475 4.4107-8.8345 4.7869-13.6215v-52.6568c0-1.1027-.3767-2.5687-.3767-3.6714-.7389-5.5264-3.3081-11.0528-7.3556-15.4766-4.0605-4.774-9.9502-8.4583-15.8399-10.3004-2.5686-.74-5.1502-1.1027-8.095-1.4789h-34.6116zm-50.0752 290.5012V337.2825h85.4262c1.466 0 2.5687 0 3.6714.3767 9.2107.7265 18.0452 2.9449 26.5165 6.6292 11.7794 4.787 22.8322 13.2453 30.9273 23.5587 5.8897 6.9924 10.3134 15.4636 13.2583 23.9349 1.4659 5.1502 2.5686 10.6767 3.308 15.8269.3757 1.4789.3757 2.5816.3757 3.6843v57.0676c0 9.2107-2.9448 18.4085-7.3686 26.8798-5.8896 11.7793-14.3609 22.456-25.4008 29.8246-9.9502 7.3686-22.0928 12.1556-34.6116 14.3609-2.5816.739-5.5264 1.1027-8.4713 1.466h-37.5564v132.1805h-50.0753"/>
</svg>