<?xml version="1.0" encoding="UTF-8"?>
<svg xmlns="http://www.w3.org/2000/svg" xmlns:xlink="http://www.w3.org/1999/xlink" width="400px" height="276px" viewBox="0 0 399 276" version="1.1">
<g id="surface1">
<path style=" stroke:none;fill-rule:nonzero;fill:rgb(0%,56.470588%,55.686275%);fill-opacity:1;" d="M 0 0 L 398.9375 0 L 398.9375 276 L 0 276 L 0 0 M 9.519531 3.316406 C 5.246094 3.621094 2.773438 8.261719 3.125 12.222656 C 3.125 93.246094 3.136719 174.273438 3.121094 255.300781 C 3.164062 259.515625 2.910156 263.75 3.351562 267.957031 C 3.921875 270.679688 6.628906 272.773438 9.371094 272.867188 C 132.972656 272.855469 256.570312 272.875 380.171875 272.855469 C 383.882812 272.96875 387.703125 271.953125 390.5 269.425781 C 394.105469 266.496094 395.503906 261.6875 395.5 257.1875 C 395.496094 231.050781 395.492188 204.910156 395.496094 178.773438 C 395.601562 161.941406 395.222656 145.105469 395.800781 128.277344 C 395.773438 88.550781 395.894531 48.820312 395.742188 9.097656 C 396.097656 5.714844 392.90625 2.699219 389.566406 3.128906 C 267.53125 3.144531 145.5 3.136719 23.46875 3.132812 C 18.820312 3.175781 14.160156 2.945312 9.519531 3.316406 Z M 9.519531 3.316406 "/>
<path style=" stroke:none;fill-rule:nonzero;fill:rgb(0%,56.470588%,55.686275%);fill-opacity:1;" d="M 9.207031 6.136719 C 13.84375 5.730469 18.503906 6.011719 23.152344 5.960938 C 144.664062 5.960938 266.175781 5.964844 387.683594 5.953125 C 389.03125 6.117188 390.75 5.730469 391.820312 6.824219 C 393.21875 8.128906 392.921875 10.191406 393.015625 11.910156 C 392.945312 59.480469 393.039062 107.054688 392.96875 154.625 C 392.398438 169.148438 392.796875 183.6875 392.679688 198.21875 C 392.6875 218.082031 392.65625 237.949219 392.703125 257.820312 C 393.21875 263.90625 387.960938 269.496094 382 269.898438 C 377.324219 270.242188 372.636719 269.992188 367.960938 270.039062 C 249.058594 270.050781 130.15625 270.023438 11.253906 270.054688 C 9.394531 270.207031 6.855469 270.0625 6.199219 267.902344 C 5.695312 264.144531 5.996094 260.332031 5.933594 256.554688 C 5.976562 174.480469 5.90625 92.40625 5.96875 10.335938 C 6 8.460938 7.347656 6.546875 9.207031 6.136719 M 83.546875 16.628906 C 83.53125 19.132812 83.53125 21.636719 83.546875 24.140625 C 86.675781 24.148438 89.800781 24.148438 92.925781 24.15625 C 92.84375 29.394531 93.285156 34.699219 92.382812 39.886719 C 91.527344 44.648438 88.441406 48.457031 86.28125 52.648438 C 84.433594 56.242188 81.3125 58.894531 78.15625 61.292969 C 80.183594 63.273438 82.164062 65.292969 84.203125 67.265625 C 86.441406 66.132812 88.824219 65.0625 90.480469 63.09375 C 95.714844 57.9375 98.617188 51.003906 101.050781 44.199219 C 104.34375 35.410156 103.417969 25.820312 103.566406 16.625 C 96.894531 16.617188 90.21875 16.617188 83.546875 16.628906 M 107.734375 16.726562 C 107.507812 33.519531 107.691406 50.316406 107.636719 67.113281 C 110.246094 67.125 112.847656 67.125 115.457031 67.113281 C 115.453125 60.425781 115.460938 53.734375 115.457031 47.046875 C 117.125 47.042969 118.792969 47.042969 120.464844 47.046875 C 120.460938 53.734375 120.464844 60.425781 120.464844 67.113281 C 123.070312 67.125 125.671875 67.125 128.28125 67.113281 C 128.289062 50.390625 128.289062 33.664062 128.28125 16.941406 C 125.675781 16.929688 123.070312 16.929688 120.464844 16.941406 C 120.457031 24.464844 120.464844 31.992188 120.460938 39.519531 C 118.792969 39.519531 117.125 39.519531 115.460938 39.519531 C 115.449219 31.882812 115.464844 24.246094 115.457031 16.613281 C 112.882812 16.617188 110.308594 16.652344 107.734375 16.726562 M 168.390625 16.945312 C 167.871094 20.019531 167.792969 23.292969 166.191406 26.050781 C 164.585938 28.925781 162.988281 31.945312 160.425781 34.09375 C 158.78125 35.636719 156.761719 36.65625 154.839844 37.800781 C 156.875 39.8125 158.988281 41.738281 161.125 43.636719 C 164.941406 42.148438 168.578125 39.832031 170.441406 36.046875 C 171.550781 37.269531 172.65625 38.503906 173.792969 39.703125 C 176.714844 42.847656 180.765625 44.46875 184.507812 46.378906 C 186.753906 44.121094 189.105469 41.941406 191.058594 39.414062 C 185.988281 36.691406 180.992188 33.332031 177.863281 28.382812 C 177.238281 27.308594 176.507812 26.074219 177.101562 24.785156 C 177.445312 22.113281 178.632812 19.640625 178.847656 16.945312 C 175.359375 16.933594 171.875 16.9375 168.390625 16.945312 M 198.066406 16.933594 C 198.0625 19.757812 198.054688 22.578125 198.054688 25.402344 C 193.050781 25.410156 188.046875 25.398438 183.046875 25.410156 C 183.03125 28.019531 183.03125 30.628906 183.046875 33.242188 C 188.046875 33.25 193.046875 33.238281 198.054688 33.25 C 198.0625 37.429688 198.054688 41.609375 198.0625 45.789062 C 201.503906 45.789062 204.941406 45.789062 208.382812 45.792969 C 208.390625 36.175781 208.390625 26.554688 208.382812 16.9375 C 204.945312 16.9375 201.503906 16.9375 198.066406 16.933594 M 247.375 47.484375 C 246.472656 50.472656 245.6875 53.542969 244.183594 56.300781 C 243.136719 57.726562 241.613281 58.71875 240.472656 60.058594 C 239.972656 61.910156 240.449219 63.917969 240.320312 65.816406 C 243.105469 64.675781 245.464844 62.707031 247.484375 60.507812 C 247.511719 68.460938 247.484375 76.414062 247.5 84.367188 C 249.371094 84.363281 251.246094 84.367188 253.125 84.371094 C 253.132812 72.027344 253.128906 59.683594 253.128906 47.34375 C 251.207031 47.367188 249.289062 47.398438 247.375 47.484375 M 272.226562 47.359375 C 269.609375 53 266.929688 58.609375 264.382812 64.28125 C 262.039062 69.191406 262.035156 75.117188 264.320312 80.050781 C 265.070312 81.851562 266.960938 82.734375 268.542969 83.664062 C 271.488281 85.335938 275.199219 84.777344 278.160156 83.425781 C 280.546875 81.769531 282.460938 79.464844 283.894531 76.953125 C 285.152344 73.960938 285.632812 70.605469 285.105469 67.390625 C 284.5 64.257812 281.914062 61.914062 279.351562 60.273438 C 277.265625 59.128906 274.742188 59.847656 272.496094 59.742188 C 274.246094 55.546875 276.253906 51.46875 278.25 47.382812 C 276.238281 47.359375 274.226562 47.359375 272.226562 47.359375 M 305.832031 47.523438 C 303.417969 47.90625 300.945312 48.554688 298.945312 50.015625 C 296.972656 51.59375 295.226562 53.828125 295.101562 56.445312 C 294.984375 62.71875 294.972656 68.996094 295.117188 75.269531 C 295.023438 77.585938 296.113281 79.78125 297.636719 81.464844 C 302.386719 85.917969 310.210938 86.585938 315.6875 83.074219 C 318.847656 81.457031 320.574219 77.816406 320.40625 74.34375 C 320.421875 68.59375 320.515625 62.832031 320.324219 57.085938 C 320.363281 54.878906 319.464844 52.671875 317.828125 51.191406 C 314.742188 48.070312 310.089844 46.925781 305.832031 47.523438 M 175.671875 48.152344 C 169.835938 48.066406 163.515625 50.535156 160.449219 55.75 C 159.632812 58.207031 160.355469 61.144531 162.027344 63.09375 C 164.367188 64.917969 167.046875 66.492188 170.019531 66.96875 C 178.613281 68.328125 187.429688 68.523438 196.046875 67.246094 C 198.800781 66.675781 201.910156 66.386719 204.023438 64.320312 C 205.625 62.75 207.632812 61.207031 207.945312 58.835938 C 208.027344 56.875 208.609375 54.355469 206.976562 52.847656 C 203.367188 49.558594 198.304688 48.671875 193.640625 48.050781 C 187.652344 47.886719 181.65625 47.90625 175.671875 48.152344 M 334.796875 55.511719 C 334.789062 65.550781 334.789062 75.585938 334.800781 85.621094 C 335.574219 85.621094 337.121094 85.621094 337.890625 85.621094 C 338.1875 82.636719 336.980469 78.902344 339.421875 76.585938 C 341.171875 79.511719 342.671875 82.570312 344.195312 85.621094 C 345.550781 85.613281 346.898438 85.617188 348.269531 85.617188 C 346.214844 81.691406 344.046875 77.824219 341.90625 73.945312 C 344.148438 71.074219 346.644531 68.417969 348.925781 65.570312 C 347.25 65.570312 345.578125 65.570312 343.917969 65.574219 C 341.957031 67.816406 340.085938 70.136719 337.96875 72.230469 C 337.890625 66.65625 337.925781 61.085938 337.921875 55.511719 C 337.140625 55.511719 335.578125 55.511719 334.796875 55.511719 M 350.492188 65.257812 C 350.386719 72.148438 350.445312 79.042969 350.445312 85.9375 C 351.226562 85.9375 352.789062 85.9375 353.570312 85.9375 C 353.632812 80.75 353.335938 75.550781 353.722656 70.375 C 354.226562 68.414062 357.261719 68.261719 358.136719 70.039062 C 358.484375 75.324219 358.179688 80.636719 358.257812 85.9375 C 359.039062 85.9375 360.601562 85.9375 361.382812 85.9375 C 361.398438 80.316406 361.414062 74.699219 361.328125 69.082031 C 362.808594 68.484375 365.109375 68.828125 365.136719 70.875 C 365.832031 75.960938 365.335938 81.128906 365.453125 86.25 C 366.234375 86.25 367.796875 86.25 368.582031 86.25 C 368.5 80.4375 368.832031 74.609375 368.425781 68.8125 C 368.28125 67.125 366.398438 66.472656 365.09375 65.921875 C 362.75 65.425781 360.546875 67.082031 358.21875 66.449219 C 356.800781 66.191406 355.382812 66.328125 353.984375 66.574219 C 353.007812 65.734375 351.640625 65.660156 350.492188 65.257812 M 109.339844 75.070312 C 107.855469 84.132812 106.347656 93.1875 104.824219 102.242188 C 106.054688 102.234375 107.285156 102.230469 108.515625 102.226562 C 109.117188 98.898438 109.617188 95.554688 110.167969 92.21875 C 111.394531 92.21875 112.617188 92.21875 113.84375 92.226562 C 114.421875 95.539062 114.859375 98.882812 115.207031 102.234375 C 116.613281 102.25 118.011719 102.25 119.421875 102.265625 C 117.683594 93.234375 116.835938 84.046875 115.433594 74.960938 C 113.402344 74.953125 111.367188 74.996094 109.339844 75.070312 M 122.34375 74.960938 C 122.335938 84.054688 122.335938 93.148438 122.339844 102.242188 C 127.449219 102.25 132.5625 102.25 137.671875 102.242188 C 137.671875 101.070312 137.671875 98.71875 137.671875 97.546875 C 134.332031 97.542969 131 97.535156 127.664062 97.539062 C 127.652344 95.34375 127.652344 93.152344 127.660156 90.960938 C 130.058594 90.953125 132.453125 90.949219 134.855469 90.945312 C 134.855469 89.277344 134.855469 87.609375 134.855469 85.941406 C 132.457031 85.9375 130.058594 85.929688 127.664062 85.925781 C 127.652344 83.734375 127.652344 81.546875 127.660156 79.351562 C 130.996094 79.351562 134.332031 79.34375 137.671875 79.347656 C 137.675781 77.886719 137.667969 76.421875 137.671875 74.960938 C 132.5625 74.953125 127.453125 74.953125 122.34375 74.960938 M 86.988281 75.269531 C 86.976562 84.261719 86.980469 93.253906 86.984375 102.246094 C 87.929688 102.25 88.847656 102.226562 89.804688 102.25 C 89.820312 97.996094 89.476562 93.664062 90.355469 89.472656 C 93.382812 93.601562 96.09375 97.953125 98.910156 102.226562 C 100.164062 102.230469 101.414062 102.230469 102.667969 102.230469 C 99.472656 97.222656 96.03125 92.375 92.933594 87.304688 C 96.945312 83.3125 100.992188 79.355469 104.894531 75.261719 C 102.527344 75.515625 99.460938 74.503906 97.824219 76.726562 C 95.175781 79.414062 92.566406 82.136719 89.839844 84.746094 C 89.804688 81.585938 89.796875 78.429688 89.789062 75.273438 C 88.863281 75.277344 87.90625 75.261719 86.988281 75.269531 M 147.191406 75.414062 C 145.636719 75.667969 144.640625 77.050781 143.714844 78.1875 C 141.839844 80.4375 142.554688 83.726562 143.722656 86.148438 C 145.628906 89.414062 149.320312 91 151.921875 93.609375 C 153.265625 94.945312 153.441406 97.398438 152.070312 98.796875 C 151.203125 100.503906 148.957031 100.265625 147.488281 99.617188 C 146.222656 98.480469 146.097656 96.585938 145.636719 95.058594 C 144.382812 95.054688 143.125 95.054688 141.878906 95.058594 C 142.429688 97.207031 142.929688 99.652344 144.902344 100.945312 C 147.554688 103.148438 151.359375 103.148438 154.476562 102.140625 C 157.277344 99.734375 158.09375 94.972656 155.691406 92.019531 C 154.011719 89.902344 151.855469 88.242188 149.539062 86.894531 C 147.539062 85.75 146.238281 83.796875 145.335938 81.738281 C 146.464844 80.757812 147.402344 78.984375 149.210938 79.34375 C 150.914062 79.910156 151.710938 81.65625 153.082031 82.664062 C 153.957031 82.734375 155.695312 82.871094 156.566406 82.945312 C 156.363281 81.558594 156.523438 80.027344 155.703125 78.824219 C 153.902344 76.117188 150.382812 74.640625 147.191406 75.414062 M 165.34375 75.429688 C 162.660156 75.695312 159.675781 77.664062 159.597656 80.59375 C 159.5 85.820312 159.476562 91.054688 159.632812 96.285156 C 159.378906 100.316406 163.59375 103.429688 167.386719 103.140625 C 171.035156 103.308594 174.578125 100.429688 175.027344 96.777344 C 175.351562 91.054688 175.457031 85.277344 174.980469 79.5625 C 173.578125 75.871094 168.882812 74.753906 165.34375 75.429688 M 177.414062 75.582031 C 177.402344 84.886719 177.40625 94.191406 177.414062 103.5 C 179.078125 103.5 180.746094 103.5 182.414062 103.5 C 182.425781 97.296875 182.363281 91.09375 182.5 84.890625 C 184.40625 91.078125 186.046875 97.34375 188.007812 103.511719 C 189.191406 103.507812 191.554688 103.503906 192.738281 103.5 C 192.746094 94.195312 192.742188 84.890625 192.742188 75.585938 C 191.382812 75.589844 190.023438 75.582031 188.675781 75.582031 C 188.664062 81.683594 188.726562 87.785156 188.585938 93.882812 C 186.765625 87.804688 185.058594 81.695312 183.277344 75.605469 C 181.320312 75.582031 179.363281 75.582031 177.414062 75.582031 M 200.238281 75.886719 C 194.820312 79.148438 194.535156 86.289062 194.980469 91.890625 C 194.976562 94.660156 196.640625 96.976562 197.945312 99.28125 C 199.46875 101.6875 202.085938 104.148438 205.167969 103.683594 C 206.574219 103.269531 208.085938 102.824219 209.15625 101.757812 C 212.316406 98.355469 212.070312 93.355469 212.699219 89.058594 C 210.113281 89.058594 207.527344 89.066406 204.945312 89.074219 C 204.957031 90.015625 204.914062 90.929688 204.945312 91.875 C 206.441406 91.898438 207.929688 91.914062 209.433594 91.941406 C 208.972656 94.097656 208.78125 96.417969 207.589844 98.332031 C 206.621094 99.441406 204.921875 100.394531 203.46875 99.667969 C 201.472656 98.765625 199.726562 97.199219 198.90625 95.132812 C 197.96875 92.421875 198.359375 89.488281 198.554688 86.691406 C 198.941406 84.089844 199.484375 81.253906 201.597656 79.453125 C 203.34375 78.402344 205.734375 78.890625 207.191406 80.238281 C 208.109375 81.214844 208.710938 82.449219 209.601562 83.457031 C 210.433594 83.5625 212.089844 83.769531 212.921875 83.871094 C 212.855469 77.726562 205.621094 74.210938 200.238281 75.886719 M 262.78125 113.191406 C 262.199219 114.300781 261.28125 115.34375 261.269531 116.652344 C 261.257812 163.703125 261.265625 210.753906 261.269531 257.804688 C 268.046875 257.816406 274.824219 257.816406 281.601562 257.804688 C 281.613281 227.804688 281.59375 197.800781 281.605469 167.796875 C 290.472656 167.847656 299.34375 167.691406 308.210938 167.828125 C 311.160156 167.78125 313.863281 169.148438 316.320312 170.632812 C 320.035156 172.835938 322.695312 176.503906 324.320312 180.457031 C 327.691406 188.246094 326.007812 197.882812 320.441406 204.222656 C 317.355469 207.425781 313.285156 209.828125 308.832031 210.414062 C 301.011719 210.582031 293.183594 210.367188 285.359375 210.453125 C 285.347656 214.527344 285.359375 218.605469 285.359375 222.683594 C 292.042969 222.714844 298.738281 222.523438 305.425781 222.921875 C 310.425781 223.144531 315.515625 222.527344 320.160156 220.566406 C 331.160156 216.214844 339.191406 205.539062 340.734375 193.828125 C 341.488281 188.058594 340.738281 182.121094 338.738281 176.675781 C 334.253906 164.742188 322.5 155.957031 309.753906 155.316406 C 300.375 155.128906 290.988281 155.316406 281.605469 155.246094 C 281.597656 143.640625 281.59375 132.039062 281.632812 120.433594 C 281.429688 118.453125 281.96875 116.164062 280.707031 114.449219 C 277.546875 109.492188 274.476562 104.480469 271.171875 99.617188 C 268.140625 103.992188 265.605469 108.683594 262.78125 113.191406 M 57.714844 124.050781 C 53.292969 124.398438 48.597656 125.355469 45.21875 128.4375 C 43.433594 130.808594 43.597656 134.125 44.023438 136.902344 C 45.179688 140.917969 49.144531 143.566406 53.179688 143.933594 C 57.351562 144.066406 61.535156 144.070312 65.707031 143.894531 C 68.078125 143.972656 70.085938 142.414062 71.808594 140.980469 C 75.34375 136.902344 74.617188 130.015625 70.496094 126.605469 C 67.160156 123.21875 61.992188 123.8125 57.714844 124.050781 M 81.355469 124.195312 C 81.339844 135.070312 81.363281 145.941406 81.347656 156.8125 C 77.074219 156.824219 72.796875 156.8125 68.523438 156.824219 C 68.519531 158.488281 68.519531 160.160156 68.523438 161.832031 C 72.792969 161.84375 77.054688 161.828125 81.324219 161.84375 C 81.34375 162.671875 81.363281 163.507812 81.378906 164.34375 C 84.707031 164.34375 88.035156 164.34375 91.363281 164.347656 C 91.367188 150.964844 91.367188 137.582031 91.363281 124.199219 C 88.027344 124.199219 84.691406 124.195312 81.355469 124.195312 M 136.800781 124.214844 C 136.136719 127.183594 135.667969 130.1875 135 133.15625 C 134.75 134.253906 134.402344 135.351562 133.765625 136.289062 C 130.875 140.109375 127.671875 143.824219 123.324219 146.023438 C 125.429688 148.167969 127.574219 150.277344 129.648438 152.457031 C 131.472656 151.847656 133.363281 151.375 135.046875 150.414062 C 137.714844 148.621094 139.785156 146.136719 142.023438 143.863281 C 143.496094 146.523438 145.820312 148.503906 148.074219 150.476562 C 150.246094 152.445312 153.054688 153.4375 155.765625 154.425781 C 157.824219 151.996094 159.878906 149.550781 162.070312 147.238281 C 159.207031 145.742188 156.632812 143.78125 153.816406 142.214844 C 150.542969 140.292969 147.675781 137.414062 146.320312 133.820312 C 146.660156 130.601562 147.792969 127.476562 147.851562 124.207031 C 144.167969 124.195312 140.484375 124.199219 136.800781 124.214844 M 166.460938 124.195312 C 166.453125 136.429688 166.457031 148.664062 166.460938 160.894531 C 169.902344 160.894531 173.339844 160.894531 176.78125 160.898438 C 176.789062 155.878906 176.777344 150.867188 176.789062 145.847656 C 179.289062 145.835938 181.785156 145.835938 184.289062 145.832031 C 184.296875 143.21875 184.300781 140.613281 184.289062 138.007812 C 181.789062 137.996094 179.285156 137.992188 176.789062 137.992188 C 176.773438 133.394531 176.792969 128.796875 176.78125 124.199219 C 173.339844 124.199219 169.902344 124.195312 166.460938 124.195312 M 40.992188 146.15625 C 40.984375 148.765625 40.980469 151.378906 40.992188 153.992188 C 45.996094 154 51 153.988281 56.003906 154 C 56 157.34375 56.011719 160.683594 56.011719 164.03125 C 59.449219 164.03125 62.886719 164.03125 66.328125 164.035156 C 66.328125 160.6875 66.335938 157.34375 66.335938 154 C 69.671875 154 73.007812 153.984375 76.34375 153.988281 C 76.351562 151.375 76.351562 148.765625 76.34375 146.15625 C 64.558594 146.152344 52.777344 146.152344 40.992188 146.15625 M 43.496094 156.1875 C 43.484375 162.148438 43.484375 168.105469 43.496094 174.066406 C 59.449219 174.070312 75.402344 174.070312 91.359375 174.066406 C 91.378906 171.558594 91.371094 169.050781 91.359375 166.542969 C 78.84375 166.527344 66.332031 166.550781 53.820312 166.539062 C 53.824219 163.085938 53.8125 159.636719 53.8125 156.191406 C 50.375 156.1875 46.933594 156.1875 43.496094 156.1875 M 128.289062 156.1875 C 128.277344 162.148438 128.28125 168.105469 128.292969 174.066406 C 144.457031 174.070312 160.617188 174.066406 176.78125 174.066406 C 176.792969 171.554688 176.785156 169.046875 176.78125 166.542969 C 164.160156 166.53125 151.546875 166.550781 138.925781 166.539062 C 138.925781 163.085938 138.914062 159.636719 138.921875 156.191406 C 135.375 156.191406 131.832031 156.1875 128.289062 156.1875 M 51.265625 182.089844 C 52.6875 191.378906 53.972656 200.691406 55.175781 210.007812 C 55.890625 209.914062 57.324219 209.722656 58.042969 209.628906 C 59.632812 204.449219 60.167969 199 61.507812 193.75 C 62.351562 199.09375 62.933594 204.476562 63.859375 209.8125 C 64.679688 209.808594 65.5 209.808594 66.324219 209.808594 C 68.277344 200.625 69.96875 191.394531 71.910156 182.210938 C 70.699219 182.21875 69.492188 182.230469 68.285156 182.246094 C 67.304688 187.734375 66.339844 193.226562 65.121094 198.667969 C 63.9375 193.242188 63.296875 187.714844 62.585938 182.210938 C 61.800781 182.25 61.015625 182.304688 60.234375 182.363281 C 59.078125 188.199219 58.105469 194.070312 56.769531 199.871094 C 55.878906 194.054688 55.410156 188.160156 54.324219 182.378906 C 53.5625 182.308594 52.03125 182.164062 51.265625 182.089844 M 79.921875 182.386719 C 77.652344 182.824219 75.476562 184.8125 75.429688 187.226562 C 75.332031 192.457031 75.308594 197.691406 75.464844 202.921875 C 75.210938 206.953125 79.425781 210.0625 83.21875 209.777344 C 86.867188 209.945312 90.410156 207.066406 90.859375 203.414062 C 91.234375 198.242188 91.140625 193.042969 90.992188 187.867188 C 91.15625 186.351562 90.425781 184.929688 89.277344 183.996094 C 86.820312 181.5 83.042969 182.152344 79.921875 182.386719 M 95.433594 182.214844 C 95.425781 191.523438 95.429688 200.828125 95.433594 210.136719 C 97.101562 210.132812 98.765625 210.132812 100.433594 210.136719 C 100.449219 203.933594 100.386719 197.730469 100.523438 191.523438 C 102.429688 197.714844 104.070312 203.980469 106.03125 210.148438 C 107.210938 210.144531 109.578125 210.140625 110.761719 210.136719 C 110.769531 200.832031 110.765625 191.523438 110.765625 182.222656 C 109.40625 182.226562 108.046875 182.214844 106.695312 182.21875 C 106.6875 188.320312 106.75 194.421875 106.609375 200.519531 C 104.789062 194.441406 103.082031 188.328125 101.296875 182.242188 C 99.34375 182.214844 97.386719 182.214844 95.433594 182.214844 M 120.59375 182.992188 C 119.039062 183.246094 118.042969 184.628906 117.117188 185.765625 C 115.246094 188.011719 115.957031 191.300781 117.125 193.722656 C 119.035156 196.992188 122.722656 198.574219 125.324219 201.183594 C 126.667969 202.519531 126.847656 204.976562 125.476562 206.375 C 124.605469 208.082031 122.359375 207.84375 120.890625 207.195312 C 119.628906 206.058594 119.503906 204.160156 119.039062 202.632812 C 117.785156 202.628906 116.53125 202.632812 115.28125 202.636719 C 115.832031 204.78125 116.332031 207.230469 118.308594 208.523438 C 120.957031 210.722656 124.761719 210.726562 127.878906 209.714844 C 130.683594 207.308594 131.496094 202.546875 129.097656 199.59375 C 127.414062 197.480469 125.261719 195.820312 122.941406 194.46875 C 120.941406 193.324219 119.644531 191.375 118.738281 189.3125 C 119.867188 188.332031 120.808594 186.5625 122.617188 186.921875 C 124.316406 187.484375 125.121094 189.234375 126.488281 190.242188 C 127.359375 190.3125 129.097656 190.449219 129.972656 190.523438 C 129.765625 189.136719 129.929688 187.605469 129.109375 186.398438 C 127.304688 183.695312 123.785156 182.214844 120.59375 182.992188 M 137.734375 182.863281 C 136.351562 191.96875 134.726562 201.035156 133.265625 210.128906 C 134.507812 210.125 135.753906 210.121094 137.007812 210.125 C 137.542969 206.679688 138.066406 203.234375 138.640625 199.796875 C 139.867188 199.792969 141.089844 199.792969 142.316406 199.800781 C 142.902344 203.222656 143.390625 206.667969 143.695312 210.128906 C 145.039062 210.125 146.375 210.121094 147.71875 210.128906 C 146.457031 201.039062 145.234375 191.9375 143.941406 182.851562 C 141.867188 182.851562 139.800781 182.855469 137.734375 182.863281 M 153.320312 182.84375 C 153.3125 192.148438 153.3125 201.453125 153.320312 210.761719 C 154.984375 210.761719 156.652344 210.761719 158.320312 210.761719 C 158.332031 204.558594 158.269531 198.355469 158.40625 192.152344 C 160.3125 198.339844 161.957031 204.605469 163.914062 210.777344 C 165.097656 210.773438 167.464844 210.765625 168.644531 210.761719 C 168.65625 201.457031 168.648438 192.152344 168.648438 182.851562 C 167.289062 182.851562 165.929688 182.839844 164.582031 182.847656 C 164.570312 188.945312 164.632812 195.046875 164.492188 201.148438 C 162.671875 195.070312 160.96875 188.957031 159.183594 182.867188 C 157.226562 182.84375 155.269531 182.84375 153.320312 182.84375 M 216.542969 211.390625 C 214.589844 212.929688 212.746094 214.605469 210.839844 216.195312 C 213.148438 218.210938 215.164062 220.730469 217.78125 222.308594 C 230.390625 222.492188 243.015625 222.300781 255.632812 222.363281 C 255.632812 218.394531 255.632812 214.421875 255.632812 210.453125 C 244.472656 210.445312 233.308594 210.460938 222.148438 210.421875 C 220.308594 210.644531 218.050781 210.03125 216.542969 211.390625 M 45.734375 220.246094 C 43.441406 221.222656 42.003906 223.273438 40.566406 225.199219 C 41.503906 226.195312 42.480469 227.140625 43.457031 228.097656 C 45.289062 226.246094 46.738281 223.839844 49.21875 222.773438 C 53.011719 221.441406 56.8125 224.890625 57.421875 228.519531 C 58.214844 231.753906 55.660156 234.300781 54.222656 236.894531 C 51.03125 242.042969 44.949219 244.320312 41.625 249.347656 C 40.203125 251.675781 39.375 254.300781 38.5 256.867188 C 46.421875 256.871094 54.34375 256.871094 62.265625 256.863281 C 62.265625 255.085938 62.265625 253.308594 62.265625 251.535156 C 56.363281 251.523438 50.460938 251.597656 44.554688 251.4375 C 46.964844 248.539062 50.332031 246.746094 53.097656 244.246094 C 55.957031 242.082031 57.847656 238.964844 60.21875 236.324219 C 64.953125 230.976562 62.09375 220.949219 55.058594 219.261719 C 51.941406 219.046875 48.714844 219.214844 45.734375 220.246094 M 80.550781 219.707031 C 78.136719 220.089844 75.664062 220.742188 73.660156 222.203125 C 71.691406 223.777344 69.945312 226.015625 69.820312 228.632812 C 69.703125 234.902344 69.695312 241.183594 69.835938 247.457031 C 69.742188 249.773438 70.835938 251.964844 72.351562 253.648438 C 77.105469 258.105469 84.929688 258.773438 90.402344 255.257812 C 93.5625 253.644531 95.292969 250.003906 95.125 246.53125 C 95.144531 240.777344 95.234375 235.019531 95.039062 229.269531 C 95.082031 227.0625 94.183594 224.859375 92.542969 223.378906 C 89.457031 220.257812 84.8125 219.113281 80.550781 219.707031 M 113.089844 219.707031 C 110.679688 220.089844 108.203125 220.742188 106.203125 222.203125 C 104.230469 223.777344 102.484375 226.015625 102.359375 228.632812 C 102.242188 234.902344 102.234375 241.183594 102.375 247.457031 C 102.28125 249.773438 103.375 251.964844 104.894531 253.648438 C 109.648438 258.105469 117.46875 258.773438 122.945312 255.257812 C 126.105469 253.644531 127.832031 250.003906 127.667969 246.53125 C 127.683594 240.777344 127.777344 235.019531 127.582031 229.269531 C 127.621094 227.0625 126.722656 224.859375 125.085938 223.378906 C 122 220.257812 117.351562 219.113281 113.089844 219.707031 M 141.742188 225.816406 C 141.738281 235.855469 141.734375 245.890625 141.746094 255.925781 C 142.519531 255.925781 144.066406 255.925781 144.835938 255.925781 C 145.136719 252.9375 143.925781 249.207031 146.367188 246.890625 C 148.117188 249.816406 149.621094 252.875 151.140625 255.925781 C 152.496094 255.917969 153.847656 255.914062 155.214844 255.921875 C 153.160156 251.996094 150.992188 248.128906 148.851562 244.25 C 151.09375 241.378906 153.59375 238.722656 155.871094 235.875 C 154.199219 235.871094 152.527344 235.875 150.863281 235.878906 C 148.902344 238.117188 147.035156 240.441406 144.914062 242.535156 C 144.835938 236.960938 144.871094 231.386719 144.867188 225.816406 C 144.085938 225.816406 142.527344 225.816406 141.742188 225.816406 M 157.4375 235.5625 C 157.335938 242.453125 157.390625 249.347656 157.390625 256.242188 C 158.171875 256.242188 159.734375 256.242188 160.515625 256.242188 C 160.582031 251.054688 160.28125 245.855469 160.671875 240.679688 C 161.171875 238.71875 164.207031 238.5625 165.082031 240.34375 C 165.433594 245.628906 165.128906 250.941406 165.203125 256.242188 C 165.984375 256.242188 167.546875 256.242188 168.328125 256.242188 C 168.34375 250.621094 168.359375 245 168.273438 239.386719 C 169.753906 238.789062 172.054688 239.132812 172.082031 241.179688 C 172.777344 246.265625 172.285156 251.433594 172.402344 256.554688 C 173.179688 256.554688 174.742188 256.554688 175.527344 256.554688 C 175.449219 250.738281 175.78125 244.914062 175.371094 239.117188 C 175.226562 237.429688 173.34375 236.777344 172.039062 236.226562 C 169.695312 235.726562 167.488281 237.386719 165.164062 236.753906 C 163.753906 236.492188 162.324219 236.632812 160.929688 236.878906 C 159.953125 236.042969 158.59375 235.957031 157.4375 235.5625 Z M 157.4375 235.5625 "/>
<path style=" stroke:none;fill-rule:nonzero;fill:rgb(0%,56.470588%,55.686275%);fill-opacity:1;" d="M 306.460938 52.527344 C 310.128906 51.785156 314.492188 53.984375 315.222656 57.835938 C 315.5625 63.519531 315.519531 69.238281 315.277344 74.925781 C 315.105469 78.609375 311.445312 81.417969 307.882812 81.164062 C 304.5625 81.339844 300.988281 78.867188 300.566406 75.453125 C 300.175781 70.277344 300.355469 65.078125 300.375 59.894531 C 299.945312 56.308594 303.015625 52.984375 306.460938 52.527344 Z M 306.460938 52.527344 "/>
<path style=" stroke:none;fill-rule:nonzero;fill:rgb(0%,56.470588%,55.686275%);fill-opacity:1;" d="M 180.367188 53.804688 C 184.980469 53.601562 189.859375 53.175781 194.269531 54.894531 C 195.867188 55.65625 198.300781 56.609375 197.664062 58.910156 C 197.070312 61.355469 194.117188 62.195312 191.929688 62.515625 C 187.007812 62.910156 182.054688 62.835938 177.132812 62.65625 C 175.210938 62.328125 172.722656 61.800781 171.863281 59.808594 C 170.78125 57.632812 172.964844 55.328125 174.878906 54.578125 C 176.671875 54.121094 178.523438 53.960938 180.367188 53.804688 Z M 180.367188 53.804688 "/>
<path style=" stroke:none;fill-rule:nonzero;fill:rgb(0%,56.470588%,55.686275%);fill-opacity:1;" d="M 274.230469 64.121094 C 277.738281 63.058594 280.710938 66.613281 280.765625 69.894531 C 281.585938 74.339844 278.050781 78.417969 274.183594 80.058594 C 270.757812 81.339844 267.804688 77.871094 267.371094 74.777344 C 266.875 72.453125 267.683594 70.089844 268.835938 68.097656 C 269.949219 66.078125 271.835938 64.289062 274.230469 64.121094 Z M 274.230469 64.121094 "/>
<path style=" stroke:none;fill-rule:nonzero;fill:rgb(0%,56.470588%,55.686275%);fill-opacity:1;" d="M 110.695312 89.378906 C 111.0625 86.09375 111.582031 82.824219 112.164062 79.570312 C 112.65625 82.832031 113.003906 86.117188 113.527344 89.378906 C 112.570312 89.367188 111.644531 89.382812 110.695312 89.378906 Z M 110.695312 89.378906 "/>
<path style=" stroke:none;fill-rule:nonzero;fill:rgb(0%,56.470588%,55.686275%);fill-opacity:1;" d="M 166.582031 80.085938 C 167.820312 79.609375 169.503906 80.304688 169.734375 81.671875 C 170.082031 86.320312 169.996094 91 169.851562 95.664062 C 169.84375 98.015625 165.839844 98.75 165.160156 96.363281 C 164.613281 91.667969 164.835938 86.890625 164.941406 82.167969 C 164.964844 81.214844 165.648438 80.3125 166.582031 80.085938 Z M 166.582031 80.085938 "/>
<path style=" stroke:none;fill-rule:nonzero;fill:rgb(0%,56.470588%,55.686275%);fill-opacity:1;" d="M 56.777344 131.597656 C 58.703125 131.339844 60.792969 131.234375 62.636719 131.960938 C 64.304688 132.488281 64.28125 135.292969 62.699219 135.929688 C 60.902344 136.699219 58.84375 136.40625 56.945312 136.445312 C 55.925781 136.574219 54.449219 136.253906 54.230469 135.054688 C 53.3125 133.121094 55.285156 131.984375 56.777344 131.597656 Z M 56.777344 131.597656 "/>
<path style=" stroke:none;fill-rule:nonzero;fill:rgb(0%,56.470588%,55.686275%);fill-opacity:1;" d="M 82.414062 186.722656 C 83.652344 186.246094 85.332031 186.941406 85.566406 188.308594 C 85.914062 192.957031 85.828125 197.636719 85.683594 202.296875 C 85.675781 204.652344 81.671875 205.386719 80.992188 202.996094 C 80.449219 198.304688 80.667969 193.527344 80.773438 188.804688 C 80.796875 187.847656 81.480469 186.949219 82.414062 186.722656 Z M 82.414062 186.722656 "/>
<path style=" stroke:none;fill-rule:nonzero;fill:rgb(0%,56.470588%,55.686275%);fill-opacity:1;" d="M 139.167969 196.957031 C 139.535156 193.671875 140.058594 190.402344 140.636719 187.148438 C 141.128906 190.410156 141.476562 193.695312 142 196.957031 C 141.039062 196.933594 140.121094 196.964844 139.167969 196.957031 Z M 139.167969 196.957031 "/>
<path style=" stroke:none;fill-rule:nonzero;fill:rgb(0%,56.470588%,55.686275%);fill-opacity:1;" d="M 81.175781 224.714844 C 84.847656 223.972656 89.207031 226.167969 89.941406 230.023438 C 90.28125 235.707031 90.238281 241.421875 89.992188 247.113281 C 89.824219 250.796875 86.160156 253.601562 82.601562 253.351562 C 79.28125 253.527344 75.707031 251.054688 75.285156 247.636719 C 74.898438 242.460938 75.070312 237.261719 75.089844 232.082031 C 74.664062 228.496094 77.738281 225.167969 81.175781 224.714844 Z M 81.175781 224.714844 "/>
<path style=" stroke:none;fill-rule:nonzero;fill:rgb(0%,56.470588%,55.686275%);fill-opacity:1;" d="M 113.71875 224.714844 C 117.386719 223.972656 121.75 226.167969 122.480469 230.023438 C 122.824219 235.707031 122.777344 241.421875 122.535156 247.113281 C 122.363281 250.796875 118.703125 253.601562 115.140625 253.351562 C 111.820312 253.527344 108.25 251.054688 107.824219 247.636719 C 107.4375 242.460938 107.613281 237.261719 107.632812 232.082031 C 107.203125 228.496094 110.277344 225.167969 113.71875 224.714844 Z M 113.71875 224.714844 "/>
<path style=" stroke:none;fill-rule:nonzero;fill:rgb(100%,100%,100%);fill-opacity:1;" d="M 9.519531 3.316406 C 14.160156 2.945312 18.820312 3.175781 23.46875 3.132812 C 145.5 3.136719 267.53125 3.144531 389.566406 3.128906 C 392.90625 2.699219 396.097656 5.714844 395.742188 9.097656 C 395.894531 48.820312 395.773438 88.550781 395.800781 128.277344 C 395.222656 145.105469 395.601562 161.941406 395.496094 178.773438 C 395.492188 204.910156 395.496094 231.050781 395.5 257.1875 C 395.503906 261.6875 394.105469 266.496094 390.5 269.425781 C 387.703125 271.953125 383.882812 272.96875 380.171875 272.855469 C 256.570312 272.875 132.972656 272.855469 9.371094 272.867188 C 6.628906 272.773438 3.921875 270.679688 3.351562 267.957031 C 2.910156 263.75 3.164062 259.515625 3.121094 255.300781 C 3.136719 174.273438 3.125 93.246094 3.125 12.222656 C 2.773438 8.261719 5.246094 3.621094 9.519531 3.316406 M 9.207031 6.136719 C 7.347656 6.546875 6 8.460938 5.96875 10.335938 C 5.90625 92.40625 5.976562 174.480469 5.933594 256.554688 C 5.996094 260.332031 5.695312 264.144531 6.199219 267.902344 C 6.855469 270.0625 9.394531 270.207031 11.253906 270.054688 C 130.15625 270.023438 249.058594 270.050781 367.960938 270.039062 C 372.636719 269.992188 377.324219 270.242188 382 269.898438 C 387.960938 269.496094 393.21875 263.90625 392.703125 257.820312 C 392.65625 237.949219 392.6875 218.082031 392.679688 198.21875 C 392.796875 183.6875 392.398438 169.148438 392.96875 154.625 C 393.039062 107.054688 392.945312 59.480469 393.015625 11.910156 C 392.921875 10.191406 393.21875 8.128906 391.820312 6.824219 C 390.75 5.730469 389.03125 6.117188 387.683594 5.953125 C 266.175781 5.964844 144.664062 5.960938 23.152344 5.960938 C 18.503906 6.011719 13.84375 5.730469 9.207031 6.136719 Z M 9.207031 6.136719 "/>
<path style=" stroke:none;fill-rule:nonzero;fill:rgb(100%,100%,100%);fill-opacity:1;" d="M 83.546875 16.628906 C 90.21875 16.617188 96.894531 16.617188 103.566406 16.625 C 103.417969 25.820312 104.34375 35.410156 101.050781 44.199219 C 98.617188 51.003906 95.714844 57.9375 90.480469 63.09375 C 88.824219 65.0625 86.441406 66.132812 84.203125 67.265625 C 82.164062 65.292969 80.183594 63.273438 78.15625 61.292969 C 81.3125 58.894531 84.433594 56.242188 86.28125 52.648438 C 88.441406 48.457031 91.527344 44.648438 92.382812 39.886719 C 93.285156 34.699219 92.84375 29.394531 92.925781 24.15625 C 89.800781 24.148438 86.675781 24.148438 83.546875 24.140625 C 83.53125 21.636719 83.53125 19.132812 83.546875 16.628906 Z M 83.546875 16.628906 "/>
<path style=" stroke:none;fill-rule:nonzero;fill:rgb(100%,100%,100%);fill-opacity:1;" d="M 107.734375 16.726562 C 110.308594 16.652344 112.882812 16.617188 115.457031 16.613281 C 115.464844 24.246094 115.449219 31.882812 115.460938 39.519531 C 117.125 39.519531 118.792969 39.519531 120.460938 39.519531 C 120.464844 31.992188 120.457031 24.464844 120.464844 16.941406 C 123.070312 16.929688 125.675781 16.929688 128.28125 16.941406 C 128.289062 33.664062 128.289062 50.390625 128.28125 67.113281 C 125.671875 67.125 123.070312 67.125 120.464844 67.113281 C 120.464844 60.425781 120.460938 53.734375 120.464844 47.046875 C 118.792969 47.042969 117.125 47.042969 115.457031 47.046875 C 115.460938 53.734375 115.453125 60.425781 115.457031 67.113281 C 112.847656 67.125 110.246094 67.125 107.636719 67.113281 C 107.691406 50.316406 107.507812 33.519531 107.734375 16.726562 Z M 107.734375 16.726562 "/>
<path style=" stroke:none;fill-rule:nonzero;fill:rgb(100%,100%,100%);fill-opacity:1;" d="M 168.390625 16.945312 C 171.875 16.9375 175.359375 16.933594 178.847656 16.945312 C 178.632812 19.640625 177.445312 22.113281 177.101562 24.785156 C 176.507812 26.074219 177.238281 27.308594 177.863281 28.382812 C 180.992188 33.332031 185.988281 36.691406 191.058594 39.414062 C 189.105469 41.941406 186.753906 44.121094 184.507812 46.378906 C 180.765625 44.46875 176.714844 42.847656 173.792969 39.703125 C 172.65625 38.503906 171.550781 37.269531 170.441406 36.046875 C 168.578125 39.832031 164.941406 42.148438 161.125 43.636719 C 158.988281 41.738281 156.875 39.8125 154.839844 37.800781 C 156.761719 36.65625 158.78125 35.636719 160.425781 34.09375 C 162.988281 31.945312 164.585938 28.925781 166.191406 26.050781 C 167.792969 23.292969 167.871094 20.019531 168.390625 16.945312 Z M 168.390625 16.945312 "/>
<path style=" stroke:none;fill-rule:nonzero;fill:rgb(100%,100%,100%);fill-opacity:1;" d="M 198.066406 16.933594 C 201.503906 16.9375 204.945312 16.9375 208.382812 16.9375 C 208.390625 26.554688 208.390625 36.175781 208.382812 45.792969 C 204.941406 45.789062 201.503906 45.789062 198.0625 45.789062 C 198.054688 41.609375 198.0625 37.429688 198.054688 33.25 C 193.046875 33.238281 188.046875 33.25 183.046875 33.242188 C 183.03125 30.628906 183.03125 28.019531 183.046875 25.410156 C 188.046875 25.398438 193.050781 25.410156 198.054688 25.402344 C 198.054688 22.578125 198.0625 19.757812 198.066406 16.933594 Z M 198.066406 16.933594 "/>
<path style=" stroke:none;fill-rule:nonzero;fill:rgb(100%,100%,100%);fill-opacity:1;" d="M 247.375 47.484375 C 249.289062 47.398438 251.207031 47.367188 253.128906 47.34375 C 253.128906 59.683594 253.132812 72.027344 253.125 84.371094 C 251.246094 84.367188 249.371094 84.363281 247.5 84.367188 C 247.484375 76.414062 247.511719 68.460938 247.484375 60.507812 C 245.464844 62.707031 243.105469 64.675781 240.320312 65.816406 C 240.449219 63.917969 239.972656 61.910156 240.472656 60.058594 C 241.613281 58.71875 243.136719 57.726562 244.183594 56.300781 C 245.6875 53.542969 246.472656 50.472656 247.375 47.484375 Z M 247.375 47.484375 "/>
<path style=" stroke:none;fill-rule:nonzero;fill:rgb(100%,100%,100%);fill-opacity:1;" d="M 272.226562 47.359375 C 274.226562 47.359375 276.238281 47.359375 278.25 47.382812 C 276.253906 51.46875 274.246094 55.546875 272.496094 59.742188 C 274.742188 59.847656 277.265625 59.128906 279.351562 60.273438 C 281.914062 61.914062 284.5 64.257812 285.105469 67.390625 C 285.632812 70.605469 285.152344 73.960938 283.894531 76.953125 C 282.460938 79.464844 280.546875 81.769531 278.160156 83.425781 C 275.199219 84.777344 271.488281 85.335938 268.542969 83.664062 C 266.960938 82.734375 265.070312 81.851562 264.320312 80.050781 C 262.035156 75.117188 262.039062 69.191406 264.382812 64.28125 C 266.929688 58.609375 269.609375 53 272.226562 47.359375 M 274.230469 64.121094 C 271.835938 64.289062 269.949219 66.078125 268.835938 68.097656 C 267.683594 70.089844 266.875 72.453125 267.371094 74.777344 C 267.804688 77.871094 270.757812 81.339844 274.183594 80.058594 C 278.050781 78.417969 281.585938 74.339844 280.765625 69.894531 C 280.710938 66.613281 277.738281 63.058594 274.230469 64.121094 Z M 274.230469 64.121094 "/>
<path style=" stroke:none;fill-rule:nonzero;fill:rgb(100%,100%,100%);fill-opacity:1;" d="M 305.832031 47.523438 C 310.089844 46.925781 314.742188 48.070312 317.828125 51.191406 C 319.464844 52.671875 320.363281 54.878906 320.324219 57.085938 C 320.515625 62.832031 320.421875 68.59375 320.40625 74.34375 C 320.574219 77.816406 318.847656 81.457031 315.6875 83.074219 C 310.210938 86.585938 302.386719 85.917969 297.636719 81.464844 C 296.113281 79.78125 295.023438 77.585938 295.117188 75.269531 C 294.972656 68.996094 294.984375 62.71875 295.101562 56.445312 C 295.226562 53.828125 296.972656 51.59375 298.945312 50.015625 C 300.945312 48.554688 303.417969 47.90625 305.832031 47.523438 M 306.460938 52.527344 C 303.015625 52.984375 299.945312 56.308594 300.375 59.894531 C 300.355469 65.078125 300.175781 70.277344 300.566406 75.453125 C 300.988281 78.867188 304.5625 81.339844 307.882812 81.164062 C 311.445312 81.417969 315.105469 78.609375 315.277344 74.925781 C 315.519531 69.238281 315.5625 63.519531 315.222656 57.835938 C 314.492188 53.984375 310.128906 51.785156 306.460938 52.527344 Z M 306.460938 52.527344 "/>
<path style=" stroke:none;fill-rule:nonzero;fill:rgb(100%,100%,100%);fill-opacity:1;" d="M 175.671875 48.152344 C 181.65625 47.90625 187.652344 47.886719 193.640625 48.050781 C 198.304688 48.671875 203.367188 49.558594 206.976562 52.847656 C 208.609375 54.355469 208.027344 56.875 207.945312 58.835938 C 207.632812 61.207031 205.625 62.75 204.023438 64.320312 C 201.910156 66.386719 198.800781 66.675781 196.046875 67.246094 C 187.429688 68.523438 178.613281 68.328125 170.019531 66.96875 C 167.046875 66.492188 164.367188 64.917969 162.027344 63.09375 C 160.355469 61.144531 159.632812 58.207031 160.449219 55.75 C 163.515625 50.535156 169.835938 48.066406 175.671875 48.152344 M 180.367188 53.804688 C 178.523438 53.960938 176.671875 54.121094 174.878906 54.578125 C 172.964844 55.328125 170.78125 57.632812 171.863281 59.808594 C 172.722656 61.800781 175.210938 62.328125 177.132812 62.65625 C 182.054688 62.835938 187.007812 62.910156 191.929688 62.515625 C 194.117188 62.195312 197.070312 61.355469 197.664062 58.910156 C 198.300781 56.609375 195.867188 55.65625 194.269531 54.894531 C 189.859375 53.175781 184.980469 53.601562 180.367188 53.804688 Z M 180.367188 53.804688 "/>
<path style=" stroke:none;fill-rule:nonzero;fill:rgb(100%,100%,100%);fill-opacity:1;" d="M 334.796875 55.511719 C 335.578125 55.511719 337.140625 55.511719 337.921875 55.511719 C 337.925781 61.085938 337.890625 66.65625 337.96875 72.230469 C 340.085938 70.136719 341.957031 67.816406 343.917969 65.574219 C 345.578125 65.570312 347.25 65.570312 348.925781 65.570312 C 346.644531 68.417969 344.148438 71.074219 341.90625 73.945312 C 344.046875 77.824219 346.214844 81.691406 348.269531 85.617188 C 346.898438 85.617188 345.550781 85.613281 344.195312 85.621094 C 342.671875 82.570312 341.171875 79.511719 339.421875 76.585938 C 336.980469 78.902344 338.1875 82.636719 337.890625 85.621094 C 337.121094 85.621094 335.574219 85.621094 334.800781 85.621094 C 334.789062 75.585938 334.789062 65.550781 334.796875 55.511719 Z M 334.796875 55.511719 "/>
<path style=" stroke:none;fill-rule:nonzero;fill:rgb(100%,100%,100%);fill-opacity:1;" d="M 350.492188 65.257812 C 351.640625 65.660156 353.007812 65.734375 353.984375 66.574219 C 355.382812 66.328125 356.800781 66.191406 358.21875 66.449219 C 360.546875 67.082031 362.75 65.425781 365.09375 65.921875 C 366.398438 66.472656 368.28125 67.125 368.425781 68.8125 C 368.832031 74.609375 368.5 80.4375 368.582031 86.25 C 367.796875 86.25 366.234375 86.25 365.453125 86.25 C 365.335938 81.128906 365.832031 75.960938 365.136719 70.875 C 365.109375 68.828125 362.808594 68.484375 361.328125 69.082031 C 361.414062 74.699219 361.398438 80.316406 361.382812 85.9375 C 360.601562 85.9375 359.039062 85.9375 358.257812 85.9375 C 358.179688 80.636719 358.484375 75.324219 358.136719 70.039062 C 357.261719 68.261719 354.226562 68.414062 353.722656 70.375 C 353.335938 75.550781 353.632812 80.75 353.570312 85.9375 C 352.789062 85.9375 351.226562 85.9375 350.445312 85.9375 C 350.445312 79.042969 350.386719 72.148438 350.492188 65.257812 Z M 350.492188 65.257812 "/>
<path style=" stroke:none;fill-rule:nonzero;fill:rgb(100%,100%,100%);fill-opacity:1;" d="M 109.339844 75.070312 C 111.367188 74.996094 113.402344 74.953125 115.433594 74.960938 C 116.835938 84.046875 117.683594 93.234375 119.421875 102.265625 C 118.011719 102.25 116.613281 102.25 115.207031 102.234375 C 114.859375 98.882812 114.421875 95.539062 113.84375 92.226562 C 112.617188 92.21875 111.394531 92.21875 110.167969 92.21875 C 109.617188 95.554688 109.117188 98.898438 108.515625 102.226562 C 107.285156 102.230469 106.054688 102.234375 104.824219 102.242188 C 106.347656 93.1875 107.855469 84.132812 109.339844 75.070312 M 110.695312 89.378906 C 111.644531 89.382812 112.570312 89.367188 113.527344 89.378906 C 113.003906 86.117188 112.65625 82.832031 112.164062 79.570312 C 111.582031 82.824219 111.0625 86.09375 110.695312 89.378906 Z M 110.695312 89.378906 "/>
<path style=" stroke:none;fill-rule:nonzero;fill:rgb(100%,100%,100%);fill-opacity:1;" d="M 122.34375 74.960938 C 127.453125 74.953125 132.5625 74.953125 137.671875 74.960938 C 137.667969 76.421875 137.675781 77.886719 137.671875 79.347656 C 134.332031 79.34375 130.996094 79.351562 127.660156 79.351562 C 127.652344 81.546875 127.652344 83.734375 127.664062 85.925781 C 130.058594 85.929688 132.457031 85.9375 134.855469 85.941406 C 134.855469 87.609375 134.855469 89.277344 134.855469 90.945312 C 132.453125 90.949219 130.058594 90.953125 127.660156 90.960938 C 127.652344 93.152344 127.652344 95.34375 127.664062 97.539062 C 131 97.535156 134.332031 97.542969 137.671875 97.546875 C 137.671875 98.71875 137.671875 101.070312 137.671875 102.242188 C 132.5625 102.25 127.449219 102.25 122.339844 102.242188 C 122.335938 93.148438 122.335938 84.054688 122.34375 74.960938 Z M 122.34375 74.960938 "/>
<path style=" stroke:none;fill-rule:nonzero;fill:rgb(100%,100%,100%);fill-opacity:1;" d="M 86.988281 75.269531 C 87.90625 75.261719 88.863281 75.277344 89.789062 75.273438 C 89.796875 78.429688 89.804688 81.585938 89.839844 84.746094 C 92.566406 82.136719 95.175781 79.414062 97.824219 76.726562 C 99.460938 74.503906 102.527344 75.515625 104.894531 75.261719 C 100.992188 79.355469 96.945312 83.3125 92.933594 87.304688 C 96.03125 92.375 99.472656 97.222656 102.667969 102.230469 C 101.414062 102.230469 100.164062 102.230469 98.910156 102.226562 C 96.09375 97.953125 93.382812 93.601562 90.355469 89.472656 C 89.476562 93.664062 89.820312 97.996094 89.804688 102.25 C 88.847656 102.226562 87.929688 102.25 86.984375 102.246094 C 86.980469 93.253906 86.976562 84.261719 86.988281 75.269531 Z M 86.988281 75.269531 "/>
<path style=" stroke:none;fill-rule:nonzero;fill:rgb(100%,100%,100%);fill-opacity:1;" d="M 147.191406 75.414062 C 150.382812 74.640625 153.902344 76.117188 155.703125 78.824219 C 156.523438 80.027344 156.363281 81.558594 156.566406 82.945312 C 155.695312 82.871094 153.957031 82.734375 153.082031 82.664062 C 151.710938 81.65625 150.914062 79.910156 149.210938 79.34375 C 147.402344 78.984375 146.464844 80.757812 145.335938 81.738281 C 146.238281 83.796875 147.539062 85.75 149.539062 86.894531 C 151.855469 88.242188 154.011719 89.902344 155.691406 92.019531 C 158.09375 94.972656 157.277344 99.734375 154.476562 102.140625 C 151.359375 103.148438 147.554688 103.148438 144.902344 100.945312 C 142.929688 99.652344 142.429688 97.207031 141.878906 95.058594 C 143.125 95.054688 144.382812 95.054688 145.636719 95.058594 C 146.097656 96.585938 146.222656 98.480469 147.488281 99.617188 C 148.957031 100.265625 151.203125 100.503906 152.070312 98.796875 C 153.441406 97.398438 153.265625 94.945312 151.921875 93.609375 C 149.320312 91 145.628906 89.414062 143.722656 86.148438 C 142.554688 83.726562 141.839844 80.4375 143.714844 78.1875 C 144.640625 77.050781 145.636719 75.667969 147.191406 75.414062 Z M 147.191406 75.414062 "/>
<path style=" stroke:none;fill-rule:nonzero;fill:rgb(100%,100%,100%);fill-opacity:1;" d="M 165.34375 75.429688 C 168.882812 74.753906 173.578125 75.871094 174.980469 79.5625 C 175.457031 85.277344 175.351562 91.054688 175.027344 96.777344 C 174.578125 100.429688 171.035156 103.308594 167.386719 103.140625 C 163.59375 103.429688 159.378906 100.316406 159.632812 96.285156 C 159.476562 91.054688 159.5 85.820312 159.597656 80.59375 C 159.675781 77.664062 162.660156 75.695312 165.34375 75.429688 M 166.582031 80.085938 C 165.648438 80.3125 164.964844 81.214844 164.941406 82.167969 C 164.835938 86.890625 164.613281 91.667969 165.160156 96.363281 C 165.839844 98.75 169.84375 98.015625 169.851562 95.664062 C 169.996094 91 170.082031 86.320312 169.734375 81.671875 C 169.503906 80.304688 167.820312 79.609375 166.582031 80.085938 Z M 166.582031 80.085938 "/>
<path style=" stroke:none;fill-rule:nonzero;fill:rgb(100%,100%,100%);fill-opacity:1;" d="M 177.414062 75.582031 C 179.363281 75.582031 181.320312 75.582031 183.277344 75.605469 C 185.058594 81.695312 186.765625 87.804688 188.585938 93.882812 C 188.726562 87.785156 188.664062 81.683594 188.675781 75.582031 C 190.023438 75.582031 191.382812 75.589844 192.742188 75.585938 C 192.742188 84.890625 192.746094 94.195312 192.738281 103.5 C 191.554688 103.503906 189.191406 103.507812 188.007812 103.511719 C 186.046875 97.34375 184.40625 91.078125 182.5 84.890625 C 182.363281 91.09375 182.425781 97.296875 182.414062 103.5 C 180.746094 103.5 179.078125 103.5 177.414062 103.5 C 177.40625 94.191406 177.402344 84.886719 177.414062 75.582031 Z M 177.414062 75.582031 "/>
<path style=" stroke:none;fill-rule:nonzero;fill:rgb(100%,100%,100%);fill-opacity:1;" d="M 200.238281 75.886719 C 205.621094 74.210938 212.855469 77.726562 212.921875 83.871094 C 212.089844 83.769531 210.433594 83.5625 209.601562 83.457031 C 208.710938 82.449219 208.109375 81.214844 207.191406 80.238281 C 205.734375 78.890625 203.34375 78.402344 201.597656 79.453125 C 199.484375 81.253906 198.941406 84.089844 198.554688 86.691406 C 198.359375 89.488281 197.96875 92.421875 198.90625 95.132812 C 199.726562 97.199219 201.472656 98.765625 203.46875 99.667969 C 204.921875 100.394531 206.621094 99.441406 207.589844 98.332031 C 208.78125 96.417969 208.972656 94.097656 209.433594 91.941406 C 207.929688 91.914062 206.441406 91.898438 204.945312 91.875 C 204.914062 90.929688 204.957031 90.015625 204.945312 89.074219 C 207.527344 89.066406 210.113281 89.058594 212.699219 89.058594 C 212.070312 93.355469 212.316406 98.355469 209.15625 101.757812 C 208.085938 102.824219 206.574219 103.269531 205.167969 103.683594 C 202.085938 104.148438 199.46875 101.6875 197.945312 99.28125 C 196.640625 96.976562 194.976562 94.660156 194.980469 91.890625 C 194.535156 86.289062 194.820312 79.148438 200.238281 75.886719 Z M 200.238281 75.886719 "/>
<path style=" stroke:none;fill-rule:nonzero;fill:rgb(100%,100%,100%);fill-opacity:1;" d="M 262.78125 113.191406 C 265.605469 108.683594 268.140625 103.992188 271.171875 99.617188 C 274.476562 104.480469 277.546875 109.492188 280.707031 114.449219 C 281.96875 116.164062 281.429688 118.453125 281.632812 120.433594 C 281.59375 132.039062 281.597656 143.640625 281.605469 155.246094 C 290.988281 155.316406 300.375 155.128906 309.753906 155.316406 C 322.5 155.957031 334.253906 164.742188 338.738281 176.675781 C 340.738281 182.121094 341.488281 188.058594 340.734375 193.828125 C 339.191406 205.539062 331.160156 216.214844 320.160156 220.566406 C 315.515625 222.527344 310.425781 223.144531 305.425781 222.921875 C 298.738281 222.523438 292.042969 222.714844 285.359375 222.683594 C 285.359375 218.605469 285.347656 214.527344 285.359375 210.453125 C 293.183594 210.367188 301.011719 210.582031 308.832031 210.414062 C 313.285156 209.828125 317.355469 207.425781 320.441406 204.222656 C 326.007812 197.882812 327.691406 188.246094 324.320312 180.457031 C 322.695312 176.503906 320.035156 172.835938 316.320312 170.632812 C 313.863281 169.148438 311.160156 167.78125 308.210938 167.828125 C 299.34375 167.691406 290.472656 167.847656 281.605469 167.796875 C 281.59375 197.800781 281.613281 227.804688 281.601562 257.804688 C 274.824219 257.816406 268.046875 257.816406 261.269531 257.804688 C 261.265625 210.753906 261.257812 163.703125 261.269531 116.652344 C 261.28125 115.34375 262.199219 114.300781 262.78125 113.191406 Z M 262.78125 113.191406 "/>
<path style=" stroke:none;fill-rule:nonzero;fill:rgb(100%,100%,100%);fill-opacity:1;" d="M 57.714844 124.050781 C 61.992188 123.8125 67.160156 123.21875 70.496094 126.605469 C 74.617188 130.015625 75.34375 136.902344 71.808594 140.980469 C 70.085938 142.414062 68.078125 143.972656 65.707031 143.894531 C 61.535156 144.070312 57.351562 144.066406 53.179688 143.933594 C 49.144531 143.566406 45.179688 140.917969 44.023438 136.902344 C 43.597656 134.125 43.433594 130.808594 45.21875 128.4375 C 48.597656 125.355469 53.292969 124.398438 57.714844 124.050781 M 56.777344 131.597656 C 55.285156 131.984375 53.3125 133.121094 54.230469 135.054688 C 54.449219 136.253906 55.925781 136.574219 56.945312 136.445312 C 58.84375 136.40625 60.902344 136.699219 62.699219 135.929688 C 64.28125 135.292969 64.304688 132.488281 62.636719 131.960938 C 60.792969 131.234375 58.703125 131.339844 56.777344 131.597656 Z M 56.777344 131.597656 "/>
<path style=" stroke:none;fill-rule:nonzero;fill:rgb(100%,100%,100%);fill-opacity:1;" d="M 81.355469 124.195312 C 84.691406 124.195312 88.027344 124.199219 91.363281 124.199219 C 91.367188 137.582031 91.367188 150.964844 91.363281 164.347656 C 88.035156 164.34375 84.707031 164.34375 81.378906 164.34375 C 81.363281 163.507812 81.34375 162.671875 81.324219 161.84375 C 77.054688 161.828125 72.792969 161.84375 68.523438 161.832031 C 68.519531 160.160156 68.519531 158.488281 68.523438 156.824219 C 72.796875 156.8125 77.074219 156.824219 81.347656 156.8125 C 81.363281 145.941406 81.339844 135.070312 81.355469 124.195312 Z M 81.355469 124.195312 "/>
<path style=" stroke:none;fill-rule:nonzero;fill:rgb(100%,100%,100%);fill-opacity:1;" d="M 136.800781 124.214844 C 140.484375 124.199219 144.167969 124.195312 147.851562 124.207031 C 147.792969 127.476562 146.660156 130.601562 146.320312 133.820312 C 147.675781 137.414062 150.542969 140.292969 153.816406 142.214844 C 156.632812 143.78125 159.207031 145.742188 162.070312 147.238281 C 159.878906 149.550781 157.824219 151.996094 155.765625 154.425781 C 153.054688 153.4375 150.246094 152.445312 148.074219 150.476562 C 145.820312 148.503906 143.496094 146.523438 142.023438 143.863281 C 139.785156 146.136719 137.714844 148.621094 135.046875 150.414062 C 133.363281 151.375 131.472656 151.847656 129.648438 152.457031 C 127.574219 150.277344 125.429688 148.167969 123.324219 146.023438 C 127.671875 143.824219 130.875 140.109375 133.765625 136.289062 C 134.402344 135.351562 134.75 134.253906 135 133.15625 C 135.667969 130.1875 136.136719 127.183594 136.800781 124.214844 Z M 136.800781 124.214844 "/>
<path style=" stroke:none;fill-rule:nonzero;fill:rgb(100%,100%,100%);fill-opacity:1;" d="M 166.460938 124.195312 C 169.902344 124.195312 173.339844 124.199219 176.78125 124.199219 C 176.792969 128.796875 176.773438 133.394531 176.789062 137.992188 C 179.285156 137.992188 181.789062 137.996094 184.289062 138.007812 C 184.300781 140.613281 184.296875 143.21875 184.289062 145.832031 C 181.785156 145.835938 179.289062 145.835938 176.789062 145.847656 C 176.777344 150.867188 176.789062 155.878906 176.78125 160.898438 C 173.339844 160.894531 169.902344 160.894531 166.460938 160.894531 C 166.457031 148.664062 166.453125 136.429688 166.460938 124.195312 Z M 166.460938 124.195312 "/>
<path style=" stroke:none;fill-rule:nonzero;fill:rgb(100%,100%,100%);fill-opacity:1;" d="M 40.992188 146.15625 C 52.777344 146.152344 64.558594 146.152344 76.34375 146.15625 C 76.351562 148.765625 76.351562 151.375 76.34375 153.988281 C 73.007812 153.984375 69.671875 154 66.335938 154 C 66.335938 157.34375 66.328125 160.6875 66.328125 164.035156 C 62.886719 164.03125 59.449219 164.03125 56.011719 164.03125 C 56.011719 160.683594 56 157.34375 56.003906 154 C 51 153.988281 45.996094 154 40.992188 153.992188 C 40.980469 151.378906 40.984375 148.765625 40.992188 146.15625 Z M 40.992188 146.15625 "/>
<path style=" stroke:none;fill-rule:nonzero;fill:rgb(100%,100%,100%);fill-opacity:1;" d="M 43.496094 156.1875 C 46.933594 156.1875 50.375 156.1875 53.8125 156.191406 C 53.8125 159.636719 53.824219 163.085938 53.820312 166.539062 C 66.332031 166.550781 78.84375 166.527344 91.359375 166.542969 C 91.371094 169.050781 91.378906 171.558594 91.359375 174.066406 C 75.402344 174.070312 59.449219 174.070312 43.496094 174.066406 C 43.484375 168.105469 43.484375 162.148438 43.496094 156.1875 Z M 43.496094 156.1875 "/>
<path style=" stroke:none;fill-rule:nonzero;fill:rgb(100%,100%,100%);fill-opacity:1;" d="M 128.289062 156.1875 C 131.832031 156.1875 135.375 156.191406 138.921875 156.191406 C 138.914062 159.636719 138.925781 163.085938 138.925781 166.539062 C 151.546875 166.550781 164.160156 166.53125 176.78125 166.542969 C 176.785156 169.046875 176.792969 171.554688 176.78125 174.066406 C 160.617188 174.066406 144.457031 174.070312 128.292969 174.066406 C 128.28125 168.105469 128.277344 162.148438 128.289062 156.1875 Z M 128.289062 156.1875 "/>
<path style=" stroke:none;fill-rule:nonzero;fill:rgb(100%,100%,100%);fill-opacity:1;" d="M 51.265625 182.089844 C 52.03125 182.164062 53.5625 182.308594 54.324219 182.378906 C 55.410156 188.160156 55.878906 194.054688 56.769531 199.871094 C 58.105469 194.070312 59.078125 188.199219 60.234375 182.363281 C 61.015625 182.304688 61.800781 182.25 62.585938 182.210938 C 63.296875 187.714844 63.9375 193.242188 65.121094 198.667969 C 66.339844 193.226562 67.304688 187.734375 68.285156 182.246094 C 69.492188 182.230469 70.699219 182.21875 71.910156 182.210938 C 69.96875 191.394531 68.277344 200.625 66.324219 209.808594 C 65.5 209.808594 64.679688 209.808594 63.859375 209.8125 C 62.933594 204.476562 62.351562 199.09375 61.507812 193.75 C 60.167969 199 59.632812 204.449219 58.042969 209.628906 C 57.324219 209.722656 55.890625 209.914062 55.175781 210.007812 C 53.972656 200.691406 52.6875 191.378906 51.265625 182.089844 Z M 51.265625 182.089844 "/>
<path style=" stroke:none;fill-rule:nonzero;fill:rgb(100%,100%,100%);fill-opacity:1;" d="M 79.921875 182.386719 C 83.042969 182.152344 86.820312 181.5 89.277344 183.996094 C 90.425781 184.929688 91.15625 186.351562 90.992188 187.867188 C 91.140625 193.042969 91.234375 198.242188 90.859375 203.414062 C 90.410156 207.066406 86.867188 209.945312 83.21875 209.777344 C 79.425781 210.0625 75.210938 206.953125 75.464844 202.921875 C 75.308594 197.691406 75.332031 192.457031 75.429688 187.226562 C 75.476562 184.8125 77.652344 182.824219 79.921875 182.386719 M 82.414062 186.722656 C 81.480469 186.949219 80.796875 187.847656 80.773438 188.804688 C 80.667969 193.527344 80.449219 198.304688 80.992188 202.996094 C 81.671875 205.386719 85.675781 204.652344 85.683594 202.296875 C 85.828125 197.636719 85.914062 192.957031 85.566406 188.308594 C 85.332031 186.941406 83.652344 186.246094 82.414062 186.722656 Z M 82.414062 186.722656 "/>
<path style=" stroke:none;fill-rule:nonzero;fill:rgb(100%,100%,100%);fill-opacity:1;" d="M 95.433594 182.214844 C 97.386719 182.214844 99.34375 182.214844 101.296875 182.242188 C 103.082031 188.328125 104.789062 194.441406 106.609375 200.519531 C 106.75 194.421875 106.6875 188.320312 106.695312 182.21875 C 108.046875 182.214844 109.40625 182.226562 110.765625 182.222656 C 110.765625 191.523438 110.769531 200.832031 110.761719 210.136719 C 109.578125 210.140625 107.210938 210.144531 106.03125 210.148438 C 104.070312 203.980469 102.429688 197.714844 100.523438 191.523438 C 100.386719 197.730469 100.449219 203.933594 100.433594 210.136719 C 98.765625 210.132812 97.101562 210.132812 95.433594 210.136719 C 95.429688 200.828125 95.425781 191.523438 95.433594 182.214844 Z M 95.433594 182.214844 "/>
<path style=" stroke:none;fill-rule:nonzero;fill:rgb(100%,100%,100%);fill-opacity:1;" d="M 120.59375 182.992188 C 123.785156 182.214844 127.304688 183.695312 129.109375 186.398438 C 129.929688 187.605469 129.765625 189.136719 129.972656 190.523438 C 129.097656 190.449219 127.359375 190.3125 126.488281 190.242188 C 125.121094 189.234375 124.316406 187.484375 122.617188 186.921875 C 120.808594 186.5625 119.867188 188.332031 118.738281 189.3125 C 119.644531 191.375 120.941406 193.324219 122.941406 194.46875 C 125.261719 195.820312 127.414062 197.480469 129.097656 199.59375 C 131.496094 202.546875 130.683594 207.308594 127.878906 209.714844 C 124.761719 210.726562 120.957031 210.722656 118.308594 208.523438 C 116.332031 207.230469 115.832031 204.78125 115.28125 202.636719 C 116.53125 202.632812 117.785156 202.628906 119.039062 202.632812 C 119.503906 204.160156 119.628906 206.058594 120.890625 207.195312 C 122.359375 207.84375 124.605469 208.082031 125.476562 206.375 C 126.847656 204.976562 126.667969 202.519531 125.324219 201.183594 C 122.722656 198.574219 119.035156 196.992188 117.125 193.722656 C 115.957031 191.300781 115.246094 188.011719 117.117188 185.765625 C 118.042969 184.628906 119.039062 183.246094 120.59375 182.992188 Z M 120.59375 182.992188 "/>
<path style=" stroke:none;fill-rule:nonzero;fill:rgb(100%,100%,100%);fill-opacity:1;" d="M 137.734375 182.863281 C 139.800781 182.855469 141.867188 182.851562 143.941406 182.851562 C 145.234375 191.9375 146.457031 201.039062 147.71875 210.128906 C 146.375 210.121094 145.039062 210.125 143.695312 210.128906 C 143.390625 206.667969 142.902344 203.222656 142.316406 199.800781 C 141.089844 199.792969 139.867188 199.792969 138.640625 199.796875 C 138.066406 203.234375 137.542969 206.679688 137.007812 210.125 C 135.753906 210.121094 134.507812 210.125 133.265625 210.128906 C 134.726562 201.035156 136.351562 191.96875 137.734375 182.863281 M 139.167969 196.957031 C 140.121094 196.964844 141.039062 196.933594 142 196.957031 C 141.476562 193.695312 141.128906 190.410156 140.636719 187.148438 C 140.058594 190.402344 139.535156 193.671875 139.167969 196.957031 Z M 139.167969 196.957031 "/>
<path style=" stroke:none;fill-rule:nonzero;fill:rgb(100%,100%,100%);fill-opacity:1;" d="M 153.320312 182.84375 C 155.269531 182.84375 157.226562 182.84375 159.183594 182.867188 C 160.96875 188.957031 162.671875 195.070312 164.492188 201.148438 C 164.632812 195.046875 164.570312 188.945312 164.582031 182.847656 C 165.929688 182.839844 167.289062 182.851562 168.648438 182.851562 C 168.648438 192.152344 168.65625 201.457031 168.644531 210.761719 C 167.464844 210.765625 165.097656 210.773438 163.914062 210.777344 C 161.957031 204.605469 160.3125 198.339844 158.40625 192.152344 C 158.269531 198.355469 158.332031 204.558594 158.320312 210.761719 C 156.652344 210.761719 154.984375 210.761719 153.320312 210.761719 C 153.3125 201.453125 153.3125 192.148438 153.320312 182.84375 Z M 153.320312 182.84375 "/>
<path style=" stroke:none;fill-rule:nonzero;fill:rgb(100%,100%,100%);fill-opacity:1;" d="M 216.542969 211.390625 C 218.050781 210.03125 220.308594 210.644531 222.148438 210.421875 C 233.308594 210.460938 244.472656 210.445312 255.632812 210.453125 C 255.632812 214.421875 255.632812 218.394531 255.632812 222.363281 C 243.015625 222.300781 230.390625 222.492188 217.78125 222.308594 C 215.164062 220.730469 213.148438 218.210938 210.839844 216.195312 C 212.746094 214.605469 214.589844 212.929688 216.542969 211.390625 Z M 216.542969 211.390625 "/>
<path style=" stroke:none;fill-rule:nonzero;fill:rgb(100%,100%,100%);fill-opacity:1;" d="M 45.734375 220.246094 C 48.714844 219.214844 51.941406 219.046875 55.058594 219.261719 C 62.09375 220.949219 64.953125 230.976562 60.21875 236.324219 C 57.847656 238.964844 55.957031 242.082031 53.097656 244.246094 C 50.332031 246.746094 46.964844 248.539062 44.554688 251.4375 C 50.460938 251.597656 56.363281 251.523438 62.265625 251.535156 C 62.265625 253.308594 62.265625 255.085938 62.265625 256.863281 C 54.34375 256.871094 46.421875 256.871094 38.5 256.867188 C 39.375 254.300781 40.203125 251.675781 41.625 249.347656 C 44.949219 244.320312 51.03125 242.042969 54.222656 236.894531 C 55.660156 234.300781 58.214844 231.753906 57.421875 228.519531 C 56.8125 224.890625 53.011719 221.441406 49.21875 222.773438 C 46.738281 223.839844 45.289062 226.246094 43.457031 228.097656 C 42.480469 227.140625 41.503906 226.195312 40.566406 225.199219 C 42.003906 223.273438 43.441406 221.222656 45.734375 220.246094 Z M 45.734375 220.246094 "/>
<path style=" stroke:none;fill-rule:nonzero;fill:rgb(100%,100%,100%);fill-opacity:1;" d="M 80.550781 219.707031 C 84.8125 219.113281 89.457031 220.257812 92.542969 223.378906 C 94.183594 224.859375 95.082031 227.0625 95.039062 229.269531 C 95.234375 235.019531 95.144531 240.777344 95.125 246.53125 C 95.292969 250.003906 93.5625 253.644531 90.402344 255.257812 C 84.929688 258.773438 77.105469 258.105469 72.351562 253.648438 C 70.835938 251.964844 69.742188 249.773438 69.835938 247.457031 C 69.695312 241.183594 69.703125 234.902344 69.820312 228.632812 C 69.945312 226.015625 71.691406 223.777344 73.660156 222.203125 C 75.664062 220.742188 78.136719 220.089844 80.550781 219.707031 M 81.175781 224.714844 C 77.738281 225.167969 74.664062 228.496094 75.089844 232.082031 C 75.070312 237.261719 74.898438 242.460938 75.285156 247.636719 C 75.707031 251.054688 79.28125 253.527344 82.601562 253.351562 C 86.160156 253.601562 89.824219 250.796875 89.992188 247.113281 C 90.238281 241.421875 90.28125 235.707031 89.941406 230.023438 C 89.207031 226.167969 84.847656 223.972656 81.175781 224.714844 Z M 81.175781 224.714844 "/>
<path style=" stroke:none;fill-rule:nonzero;fill:rgb(100%,100%,100%);fill-opacity:1;" d="M 113.089844 219.707031 C 117.351562 219.113281 122 220.257812 125.085938 223.378906 C 126.722656 224.859375 127.621094 227.0625 127.582031 229.269531 C 127.777344 235.019531 127.683594 240.777344 127.667969 246.53125 C 127.832031 250.003906 126.105469 253.644531 122.945312 255.257812 C 117.46875 258.773438 109.648438 258.105469 104.894531 253.648438 C 103.375 251.964844 102.28125 249.773438 102.375 247.457031 C 102.234375 241.183594 102.242188 234.902344 102.359375 228.632812 C 102.484375 226.015625 104.230469 223.777344 106.203125 222.203125 C 108.203125 220.742188 110.679688 220.089844 113.089844 219.707031 M 113.71875 224.714844 C 110.277344 225.167969 107.203125 228.496094 107.632812 232.082031 C 107.613281 237.261719 107.4375 242.460938 107.824219 247.636719 C 108.25 251.054688 111.820312 253.527344 115.140625 253.351562 C 118.703125 253.601562 122.363281 250.796875 122.535156 247.113281 C 122.777344 241.421875 122.824219 235.707031 122.480469 230.023438 C 121.75 226.167969 117.386719 223.972656 113.71875 224.714844 Z M 113.71875 224.714844 "/>
<path style=" stroke:none;fill-rule:nonzero;fill:rgb(100%,100%,100%);fill-opacity:1;" d="M 141.742188 225.816406 C 142.527344 225.816406 144.085938 225.816406 144.867188 225.816406 C 144.871094 231.386719 144.835938 236.960938 144.914062 242.535156 C 147.035156 240.441406 148.902344 238.117188 150.863281 235.878906 C 152.527344 235.875 154.199219 235.871094 155.871094 235.875 C 153.59375 238.722656 151.09375 241.378906 148.851562 244.25 C 150.992188 248.128906 153.160156 251.996094 155.214844 255.921875 C 153.847656 255.914062 152.496094 255.917969 151.140625 255.925781 C 149.621094 252.875 148.117188 249.816406 146.367188 246.890625 C 143.925781 249.207031 145.136719 252.9375 144.835938 255.925781 C 144.066406 255.925781 142.519531 255.925781 141.746094 255.925781 C 141.734375 245.890625 141.738281 235.855469 141.742188 225.816406 Z M 141.742188 225.816406 "/>
<path style=" stroke:none;fill-rule:nonzero;fill:rgb(100%,100%,100%);fill-opacity:1;" d="M 157.4375 235.5625 C 158.59375 235.957031 159.953125 236.042969 160.929688 236.878906 C 162.324219 236.632812 163.753906 236.492188 165.164062 236.753906 C 167.488281 237.386719 169.695312 235.726562 172.039062 236.226562 C 173.34375 236.777344 175.226562 237.429688 175.371094 239.117188 C 175.78125 244.914062 175.449219 250.738281 175.527344 256.554688 C 174.742188 256.554688 173.179688 256.554688 172.402344 256.554688 C 172.285156 251.433594 172.777344 246.265625 172.082031 241.179688 C 172.054688 239.132812 169.753906 238.789062 168.273438 239.386719 C 168.359375 245 168.34375 250.621094 168.328125 256.242188 C 167.546875 256.242188 165.984375 256.242188 165.203125 256.242188 C 165.128906 250.941406 165.433594 245.628906 165.082031 240.34375 C 164.207031 238.5625 161.171875 238.71875 160.671875 240.679688 C 160.28125 245.855469 160.582031 251.054688 160.515625 256.242188 C 159.734375 256.242188 158.171875 256.242188 157.390625 256.242188 C 157.390625 249.347656 157.335938 242.453125 157.4375 235.5625 Z M 157.4375 235.5625 "/>
</g>
</svg>
