<?xml version="1.0" encoding="UTF-8" standalone="no"?>
<!-- Created with Inkscape (http://www.inkscape.org/) -->

<svg
   xmlns:dc="http://purl.org/dc/elements/1.1/"
   xmlns:cc="http://creativecommons.org/ns#"
   xmlns:rdf="http://www.w3.org/1999/02/22-rdf-syntax-ns#"
   xmlns:svg="http://www.w3.org/2000/svg"
   xmlns="http://www.w3.org/2000/svg"
   xmlns:sodipodi="http://sodipodi.sourceforge.net/DTD/sodipodi-0.dtd"
   xmlns:inkscape="http://www.inkscape.org/namespaces/inkscape"
   width="200"
   height="200"
   id="svg8379"
   version="1.1"
   inkscape:version="0.48.5 r10040"
   sodipodi:docname="A1.svg">
  <defs
     id="defs8381" />
  <sodipodi:namedview
     id="base"
     pagecolor="#ffffff"
     bordercolor="#666666"
     borderopacity="1.0"
     inkscape:pageopacity="0.0"
     inkscape:pageshadow="2"
     inkscape:zoom="0.98994949"
     inkscape:cx="212.08211"
     inkscape:cy="90.425634"
     inkscape:document-units="px"
     inkscape:current-layer="layer1"
     showgrid="false"
     fit-margin-top="0"
     fit-margin-left="0"
     fit-margin-right="0"
     fit-margin-bottom="0"
     inkscape:window-width="1366"
     inkscape:window-height="705"
     inkscape:window-x="-8"
     inkscape:window-y="-8"
     inkscape:window-maximized="1" />
  <metadata
     id="metadata8384">
    <rdf:RDF>
      <cc:Work
         rdf:about="">
        <dc:format>image/svg+xml</dc:format>
        <dc:type
           rdf:resource="http://purl.org/dc/dcmitype/StillImage" />
        <dc:title></dc:title>
      </cc:Work>
    </rdf:RDF>
  </metadata>
  <g
     inkscape:label="Livello 1"
     inkscape:groupmode="layer"
     id="layer1"
     transform="translate(0,-852.36218)">
    <rect
       style="fill:#00408b;fill-opacity:1;fill-rule:evenodd;stroke:none"
       id="rect2994-1-4"
       width="200"
       height="200"
       x="0"
       y="852.36218" />
    <rect
       style="fill:none;stroke:#ffffff;stroke-width:3.33333325;stroke-miterlimit:4;stroke-opacity:1;stroke-dasharray:none"
       id="rect3764-7-0"
       width="193.11111"
       height="193.11111"
       x="3.4444275"
       y="855.80664"
       rx="9.755085"
       ry="9.755085" />
    <g
       style="font-size:118.8978653px;font-style:normal;font-weight:normal;line-height:125%;letter-spacing:0px;word-spacing:0px;fill:#ffffff;fill-opacity:1;stroke:none;font-family:Sans"
       id="text7853">
      <path
         d="m 87.142984,910.4822 0,15.36915 -37.067815,0 -1.292397,11.37739 c 4.615845,-2.2673 9.386851,-3.40098 14.313031,-3.40105 7.976299,7e-5 14.780173,2.77639 20.411642,8.32898 5.63135,5.55271 8.447055,12.55229 8.447123,20.99877 -6.8e-5,8.1339 -2.30681,15.28921 -6.920232,21.46597 -5.632665,7.50856 -13.570816,11.26283 -23.814478,11.26283 -11.417992,0 -20.020838,-3.44042 -25.808564,-10.32128 -2.503656,-2.89505 -4.654069,-7.11831 -6.451246,-12.66979 l 16.188976,-4.92972 c 1.250607,3.44164 3.146837,6.23766 5.688695,8.38805 2.541805,2.15043 5.454767,3.22564 8.738897,3.22562 4.613448,2e-5 8.172012,-1.56326 10.675702,-4.68986 2.424837,-2.89504 3.637279,-6.68869 3.637329,-11.38097 -5e-5,-4.45832 -1.485769,-8.05626 -4.45716,-10.79385 -2.661212,-2.57997 -5.907118,-3.86998 -9.737729,-3.87003 -5.396356,5e-5 -9.580235,2.34617 -12.551648,7.03838 l -17.481373,-2.46308 4.926146,-42.93551 z"
         style="font-size:117.31100464px;font-variant:normal;font-stretch:normal;text-align:center;text-anchor:middle;fill:#ffffff;font-family:CodiceBianco;-inkscape-font-specification:CodiceBianco"
         id="path8511" />
      <path
         d="m 171.86124,952.24346 c -8e-5,15.95511 -4.3021,27.64753 -12.90608,35.07731 -6.17921,5.31757 -13.53024,7.97635 -22.05309,7.97634 -8.3678,10e-6 -15.68063,-2.73634 -21.93853,-8.20905 -8.5253,-7.58729 -12.78794,-19.24034 -12.78793,-34.95916 -1e-5,-16.6591 4.49772,-28.6248 13.4932,-35.89714 5.94285,-4.84969 13.0206,-7.27457 21.23326,-7.27466 8.13382,9e-5 15.25095,2.54192 21.3514,7.6255 9.07177,7.50863 13.60769,19.39557 13.60777,35.66086 z m -34.84461,27.10096 c 11.57544,2e-5 17.36318,-9.3069 17.36323,-27.92079 -5e-5,-17.90972 -5.66965,-26.86461 -17.0088,-26.86468 -11.80942,7e-5 -17.7141,8.99434 -17.71408,26.98282 -2e-5,18.53513 5.78652,27.80267 17.35965,27.80265 z"
         style="font-size:117.31100464px;font-variant:normal;font-stretch:normal;text-align:center;text-anchor:middle;fill:#ffffff;font-family:CodiceBianco;-inkscape-font-specification:CodiceBianco"
         id="path8513" />
    </g>
  </g>
</svg>
