<?xml version="1.0" encoding="UTF-8"?>
<svg xmlns="http://www.w3.org/2000/svg" width="600" height="900" version="1.1">
<title>5.17 Место остановки трамвая</title>
<rect style="fill:#ffffff;" x="0" y="0" width="600" height="900" rx="45" ry="45"/>
<rect style="fill:none;stroke:#000000;stroke-width:2px;" x="1" y="1" width="598" height="898" rx="44" ry="44"/>
<path style="fill:#0d69e1;" d="m 20,855 c 0,13.807 11.193,25 25,25 l 510,0 c 13.807,0 25,-11.193 25,-25 l 0,-810 c 0,-13.807 -11.193,-25 -25,-25 l -510,0 c -13.807,0 -25,11.893 -25,25 z m 36.25,-256.875 l 0,-408.75 c 0,-21.746 17.629,-39.375 39.375,-39.375 l 408.75,0 c 21.746,0 39.375,17.629 39.375,39.375 l 0,408.75 c 0,21.746 -17.629,39.375 -39.375,39.375 l -408.75,0 c -21.745,0 -39.375,-17.629 -39.375,-39.375 z"/>
<path style="fill:#000000;" d="m 262.5,332.81252 75,0 28.125,-32.8125 -60.9375,-56.25 0,-18.75 -9.375,0 0,18.75 -60.9375,56.25 z m 4.31184,-9.375 l -19.43718,-22.67784 l 52.62534,-48.57806 l 52.62534,48.57806 -19.43718,22.67784 z"/>
<path style="fill:#000000;" d="m 121.875,496.87502 15.46875,0 c 0,-15.53297 14.06109,-28.125 31.40625,-28.125 l 262.5,0 c 17.34516,0 31.40625,12.59203 31.40625,28.125 l 15.46875,0 c 15.53297,0 28.125,-12.59203 28.125,-28.125 l 0,-47.8125 c 0,-4.93697 -1.29956,-9.78693 -3.768,-14.0625 l -32.47594,-56.25 c -2.67947,-4.641 -7.63143,-7.5 -12.99037,-7.5 l -314.03138,0 c -5.35894,0 -10.3109,2.859 -12.99037,7.5 l -32.47594,56.25 c -2.468438,4.27557 -3.768,9.12553 -3.768,14.0625 l 0,47.8125 c 0,15.53297 12.59203,28.125 28.125,28.125 z m -12.08137,-93.75 c 0,-1.64568 0.43321,-3.26231 1.25596,-4.6875 l 21.65063,-37.5 c 1.67465,-2.90062 4.76962,-4.6875 8.11903,-4.6875 l 22.30575,0 c 5.17762,0 9.375,4.19738 9.375,9.375 l 0,37.5 c 0,5.17763 -4.19738,9.375 -9.375,9.375 l -43.95637,0 c -5.17763,0 -9.375,-4.19737 -9.375,-9.375 z m 70.20637,0 0,-37.5 c 0,-5.17762 4.19737,-9.375 9.375,-9.375 l 56.25,0 c 5.17762,0 9.375,4.19738 9.375,9.375 l 0,37.5 c 0,5.17763 -4.19738,9.375 -9.375,9.375 l -56.25,0 c -5.17763,0 -9.375,-4.19737 -9.375,-9.375 z m 82.5,0 0,-37.5 c 0,-5.17762 4.19737,-9.375 9.375,-9.375 l 56.25,0 c 5.17763,0 9.375,4.19738 9.375,9.375 l 0,37.5 c 0,5.17763 -4.19737,9.375 -9.375,9.375 l -56.25,0 c -5.17763,0 -9.375,-4.19737 -9.375,-9.375 z m 82.5,0 0,-37.5 c 0,-5.17762 4.19737,-9.375 9.375,-9.375 l 56.25,0 c 5.17763,0 9.375,4.19738 9.375,9.375 l 0,37.5 c 0,5.17763 -4.19737,9.375 -9.375,9.375 l -56.25,0 c -5.17763,0 -9.375,-4.19737 -9.375,-9.375 z m 82.5,0 0,-37.5 c 0,-5.17762 4.19737,-9.375 9.375,-9.375 l 22.30575,0 c 3.34941,0 6.44428,1.78688 8.11903,4.6875 l 21.65063,37.5 c 0.82284,1.42519 1.25596,3.04182 1.25596,4.6875 0,5.17763 -4.19737,9.375 -9.375,9.375 l -43.95637,0 c -5.17763,0 -9.375,-4.19737 -9.375,-9.375 z"/>
<path style="fill:#000000;" d="m 247.03125,496.87502 0,1.875 105.9375,0 0,-1.875 c 0,-9.42675 4.72266,-18.22668 12.57834,-23.4375 l -131.09418,0 c 7.85568,5.21082 12.57834,14.01075 12.57834,23.4375 z"/>
<circle style="fill:#000000;" cx="167.344" cy="500.156" r="24.844"/>
<circle style="fill:#000000;" cx="217.031" cy="500.156" r="24.844"/>
<circle style="fill:#000000;" cx="382.969" cy="500.156" r="24.844"/>
<circle style="fill:#000000;" cx="432.656" cy="500.156" r="24.844"/>
</svg>