<svg version="1.1" id="svg32" sodipodi:docname="markup-cropped.svg" inkscape:version="1.2 (dc2aedaf03, 2022-05-15)" xmlns:inkscape="http://www.inkscape.org/namespaces/inkscape" xmlns:sodipodi="http://sodipodi.sourceforge.net/DTD/sodipodi-0.dtd" xmlns="http://www.w3.org/2000/svg" xmlns:svg="http://www.w3.org/2000/svg" viewBox="-0.02 -0.02 283.3 39.08">
  <defs id="defs36"/>
  <sodipodi:namedview id="namedview34" pagecolor="#505050" bordercolor="#eeeeee" borderopacity="1" inkscape:showpageshadow="0" inkscape:pageopacity="0" inkscape:pagecheckerboard="0" inkscape:deskcolor="#505050" showgrid="false" inkscape:zoom="3.7134713" inkscape:cx="149.99443" inkscape:cy="80.11372" inkscape:window-width="1920" inkscape:window-height="1001" inkscape:window-x="-9" inkscape:window-y="-9" inkscape:window-maximized="1" inkscape:current-layer="g26"/>
  <g stroke="none" stroke-width="1" fill="none" fill-rule="evenodd" id="g30" style="fill: rgb(215, 174, 93); fill-opacity: 1; --darkreader-inline-stroke: none; --darkreader-inline-fill: #d9b265;" transform="translate(2e-4,-1e-4)" data-darkreader-inline-stroke="" data-darkreader-inline-fill="">
    <g transform="translate(-1150,-27)" id="g28" style="fill: rgb(215, 174, 93); fill-opacity: 1; --darkreader-inline-fill: #d9b265;" data-darkreader-inline-fill="">
      <g transform="translate(1150,27)" id="g26" style="fill: rgb(215, 174, 93); fill-opacity: 1; --darkreader-inline-fill: #d9b265;" data-darkreader-inline-fill="">
        <path id="path24" style="fill: rgb(215, 174, 93); fill-opacity: 1; --darkreader-inline-fill: #d9b265;" d="m 36.4728,24.9451 c 0.251,-1.22 0.417,-2.478 0.494,-3.762 h 4.91 c -0.861,1.367 -2.74,2.699 -5.404,3.762 z m -3.781,1.188 c -2.813,0.682 -6.128,1.095 -9.8,1.095 -3.671,0 -6.986,-0.414 -9.799,-1.096 -0.62,-2.05 -0.949,-4.288 -0.949,-6.605 0,-2.317 0.329,-4.555 0.949,-6.605 2.813,-0.683 6.128,-1.097 9.799,-1.097 3.494,0 6.859,0.392 9.804,1.108 0.461,1.528 0.76,3.158 0.881,4.849 l -10.018,-0.013 c -0.002,0.335 -0.214,1.807 0.767,2.788 0.821,0.821 1.751,0.626 3.348,0.626 h 5.911 c -0.118,1.728 -0.422,3.392 -0.893,4.95 z m -2.39,5.041 c -2.024,2.903 -4.656,4.501 -7.41,4.501 -2.753,0 -5.385,-1.598 -7.409,-4.501 -0.282,-0.405 -0.547,-0.83 -0.796,-1.269 2.582,0.459 5.355,0.702 8.205,0.702 2.852,0 5.624,-0.243 8.206,-0.702 -0.249,0.439 -0.514,0.864 -0.796,1.269 z M 15.4828,7.8801 c 2.024,-2.903 4.656,-4.501 7.409,-4.501 2.754,0 5.386,1.598 7.41,4.501 0.284,0.408 0.551,0.836 0.801,1.278 -2.587,-0.463 -5.368,-0.711 -8.211,-0.711 -2.85,0 -5.623,0.243 -8.205,0.702 0.249,-0.439 0.514,-0.864 0.796,-1.269 z m -6.171,17.065 c -3.739,-1.493 -5.933,-3.513 -5.933,-5.418 0,-1.906 2.194,-3.925 5.933,-5.418 -0.359,1.74 -0.547,3.56 -0.547,5.418 0,1.858 0.188,3.678 0.547,5.418 z m 36.216,-7.149 -8.565,-0.01 c -0.079,-1.249 -0.243,-2.474 -0.487,-3.662 0.994,0.398 1.899,0.843 2.698,1.33 h 5.126 c -0.693,-0.898 -1.685,-1.821 -3.092,-2.715 -1.624,-1.032 -3.636,-1.904 -5.907,-2.587 -0.598,-1.518 -1.342,-2.934 -2.228,-4.205 -2.674,-3.835 -6.29,-5.947 -10.181,-5.947 -3.89,0 -7.505,2.112 -10.18,5.947 -0.884,1.269 -1.627,2.681 -2.224,4.195 -1.16,0.35 -2.256,0.75 -3.272,1.2 -4.653,2.061 -7.216,4.967 -7.216,8.185 0,3.218 2.563,6.124 7.216,8.185 1.016,0.45 2.112,0.85 3.272,1.2 0.597,1.514 1.34,2.927 2.224,4.194 2.675,3.836 6.29,5.948 10.18,5.948 3.891,0 7.507,-2.112 10.181,-5.948 0.884,-1.267 1.627,-2.68 2.224,-4.194 1.159,-0.35 2.256,-0.75 3.272,-1.2 4.654,-2.061 7.216,-4.967 7.216,-8.185 0,-0.515 -0.068,-1.101 -0.256,-1.731 z m 235.0923,4.2743 -9.644,-9.178 h -2.688 v 12.548 h 2.688 v -7.17 l -0.054,-1.99 9.644,9.16 h 2.688 v -12.548 h -2.688 v 7.17 z m -21.9056,-1.6487 h -5.521 l 0.215,-0.359 2.546,-4.822 2.563,4.822 z m -4.302,-7.529 -7.188,12.548 h 3.101 l 1.434,-2.51 h 8.39 l 1.451,2.51 h 3.101 l -7.188,-12.548 z m -11.8491,4.8393 h -9.841 v -2.33 h 10.916 v -2.51 h -13.604 V 25.44 h 13.962 v -2.51 h -11.274 v -2.688 h 9.841 z m -23.2141,-2.5984 c 2.097,0 3.961,0.395 5.771,0.913 l 0.61,-2.419 c -0.806,-0.268 -3.047,-1.004 -6.381,-1.004 -6.524,0 -9.249,2.815 -9.249,6.542 0,3.73 2.725,6.543 9.249,6.543 3.334,0 5.575,-0.734 6.381,-1.003 l -0.61,-2.421 c -1.81,0.521 -3.674,0.914 -5.771,0.914 -4.732,0 -6.507,-1.667 -6.507,-4.033 0,-2.365 1.775,-4.032 6.507,-4.032 m -21.7978,8.0654 c -3.89,0 -5.683,-1.667 -5.683,-4.033 0,-2.365 1.793,-4.032 5.683,-4.032 3.89,0 5.682,1.667 5.682,4.032 0,2.366 -1.792,4.033 -5.682,4.033 m 0,-10.575 c -5.539,0 -8.425,2.814 -8.425,6.542 0,3.729 2.886,6.543 8.425,6.543 5.539,0 8.425,-2.814 8.425,-6.543 0,-3.728 -2.886,-6.542 -8.425,-6.542 m -35.4035,0.2683 h -2.689 v 12.548 h 2.689 v -7.17 l -0.054,-1.99 9.644,9.16 h 2.689 v -12.548 h -2.689 v 7.17 l 0.054,2.008 z m -8.6052,4.8397 h -9.841 v -2.33 h 10.917 v -2.51 h -13.605 V 25.44 h 13.963 v -2.51 h -11.275 v -2.688 h 9.841 z m -26.2614,5.1984 h -3.459 v -7.528 h 3.459 c 4.732,0 6.507,1.398 6.507,3.763 0,2.367 -1.775,3.765 -6.507,3.765 m 0,-10.038 h -6.148 v 12.548 h 6.148 c 6.525,0 9.25,-2.545 9.25,-6.275 0,-3.727 -2.725,-6.273 -9.25,-6.273 m -23.6978,12.548 h 13.067 v -2.51 h -10.378 v -10.038 h -2.689 z M 90.6769,23.199 c -3.89,0 -5.682,-1.667 -5.682,-4.033 0,-2.365 1.792,-4.032 5.682,-4.032 3.89,0 5.683,1.667 5.683,4.032 0,2.366 -1.793,4.033 -5.683,4.033 m 0,-10.575 c -5.539,0 -8.425,2.814 -8.425,6.542 0,3.729 2.886,6.543 8.425,6.543 5.539,0 8.425,-2.814 8.425,-6.543 0,-3.728 -2.886,-6.542 -8.425,-6.542 m -21.2783,7.7977 h 5.862 v 0.035 c 0,1.47 -2.079,2.742 -5.862,2.742 -3.854,0 -5.771,-1.667 -5.771,-4.033 0,-2.365 1.774,-4.032 6.506,-4.032 2.098,0 3.962,0.358 5.772,0.878 l 0.61,-2.384 c -0.807,-0.233 -3.047,-1.004 -6.382,-1.004 -6.525,0 -9.249,2.815 -9.249,6.542 0,3.73 2.868,6.543 8.514,6.543 4.679,0 8.55,-1.541 8.55,-6.166 v -1.631 h -8.55 z" data-darkreader-inline-fill=""/>
      </g>
    </g>
  </g>
</svg>