<?xml version="1.0" encoding="UTF-8" standalone="no"?>
<!-- Created with Inkscape (http://www.inkscape.org/) -->

<svg
   xmlns:dc="http://purl.org/dc/elements/1.1/"
   xmlns:cc="http://creativecommons.org/ns#"
   xmlns:rdf="http://www.w3.org/1999/02/22-rdf-syntax-ns#"
   xmlns:svg="http://www.w3.org/2000/svg"
   xmlns="http://www.w3.org/2000/svg"
   xmlns:sodipodi="http://sodipodi.sourceforge.net/DTD/sodipodi-0.dtd"
   xmlns:inkscape="http://www.inkscape.org/namespaces/inkscape"
   width="483.42023"
   height="79.333778"
   viewBox="0 0 127.90493 20.990395"
   version="1.1"
   id="svg1551"
   inkscape:version="0.92.0 r15299"
   sodipodi:docname="banco de chile.svg">
  <defs
     id="defs1545">
    <clipPath
       id="clipPath1317"
       clipPathUnits="userSpaceOnUse">
      <path
         inkscape:connector-curvature="0"
         id="path1315"
         d="M 0,0 H 800 V 600 H 0 Z" />
    </clipPath>
    <clipPath
       id="clipPath1301"
       clipPathUnits="userSpaceOnUse">
      <path
         inkscape:connector-curvature="0"
         id="path1299"
         d="M 0,0 H 800 V 600 H 0 Z" />
    </clipPath>
    <clipPath
       id="clipPath1261"
       clipPathUnits="userSpaceOnUse">
      <path
         inkscape:connector-curvature="0"
         id="path1259"
         d="M 0,0 H 800 V 600 H 0 Z" />
    </clipPath>
  </defs>
  <sodipodi:namedview
     id="base"
     pagecolor="#ffffff"
     bordercolor="#666666"
     borderopacity="1.0"
     inkscape:pageopacity="0.0"
     inkscape:pageshadow="2"
     inkscape:zoom="1.6659041"
     inkscape:cx="240.71013"
     inkscape:cy="38.666851"
     inkscape:document-units="mm"
     inkscape:current-layer="layer1"
     showgrid="false"
     fit-margin-top="0"
     fit-margin-left="0"
     fit-margin-right="0"
     fit-margin-bottom="0"
     units="px"
     inkscape:window-width="1280"
     inkscape:window-height="744"
     inkscape:window-x="-4"
     inkscape:window-y="-4"
     inkscape:window-maximized="1" />
  <metadata
     id="metadata1548">
    <rdf:RDF>
      <cc:Work
         rdf:about="">
        <dc:format>image/svg+xml</dc:format>
        <dc:type
           rdf:resource="http://purl.org/dc/dcmitype/StillImage" />
        <dc:title></dc:title>
      </cc:Work>
    </rdf:RDF>
  </metadata>
  <g
     inkscape:label="Layer 1"
     inkscape:groupmode="layer"
     id="layer1"
     transform="translate(-36.097826,-171.33545)">
    <g
       id="g1741"
       transform="translate(0.26458054,-0.26457852)">
      <path
         d="m 41.388081,171.86463 h 0.939447 c 0.67557,0 2.966156,0.64241 2.966156,0.64241 h 0.395464 c 0.153458,0 0.400402,-0.11854 0.494241,-0.1972 0.06914,0.0194 0.118886,0.0342 0.197909,0.0984 l -3.905956,2.76895 c -0.0049,0 -1.186039,0.58597 -1.186039,1.13736 v 6.97018 l -3.856919,2.67018 c 0.05468,-0.37042 0.544336,-0.7045 0.544336,-1.23543 v -6.87282 c 0,-0.53657 3.707694,-2.46697 3.707694,-3.01554 0,-0.54399 -2.175227,-0.98919 -2.175227,-0.98919 -0.69215,-0.0247 -0.978959,-0.0247 -1.680986,0 -0.687564,0.025 -1.463323,0.45967 -1.730375,0.4452 0.840316,-0.5588 3.061052,-2.42252 5.290255,-2.42252"
         style="fill:#173a79;fill-opacity:1;fill-rule:nonzero;stroke:none;stroke-width:0.35277778"
         id="path1245"
         inkscape:connector-curvature="0" />
      <path
         d="m 48.16124,175.42419 v 4.44994 c 0.974019,-0.58385 1.582208,-0.89041 1.582208,-1.68099 0,-1.04351 -1.582208,-2.76895 -1.582208,-2.76895 m 0,5.83389 v 6.08153 c 0,0.29986 0.529167,0.54399 0.840317,0.54399 0.148519,0 -0.04904,0.11324 0.197908,0 v -5.68643 c 0,-0.37042 -0.885119,-0.89958 -1.038225,-0.93909 m 1.13665,-9.24525 c 0.594078,0 0.954264,0.63782 1.977672,1.97767 0.252589,0.33126 1.433689,1.77518 1.433689,2.47191 v 0.54399 c 0,1.40758 -3.707694,2.82328 -3.707694,3.41171 0,0.40005 1.948038,0.21237 2.817988,0.79058 0.830792,0.55386 1.186745,1.72437 1.186745,2.37313 v 1.68099 c 0,1.01318 -1.379714,1.3843 -3.065286,2.66982 -0.741539,0.56374 -3.273072,2.27436 -3.460397,2.27436 0,0 -2.90442,-1.58221 -4.30142,-1.58221 h -1.878894 c -0.789517,0 -2.719211,0.6925 -2.868083,0.6925 0,0 2.914297,-2.86808 5.883627,-2.86808 h 1.977673 c 0.407811,0 1.809749,0.57397 2.17558,0.69215 v -12.55748 c 0,-0.12417 -0.15875,-0.34607 -0.395464,-0.34607 -0.548569,0 -0.939447,0.99871 -0.939447,1.03858 v 7.46513 c 0,0.33725 -1.285522,1.32997 -1.977672,1.73037 -1.033286,0.59796 -1.700389,1.17193 -2.323395,1.48308 v -0.14817 c 0,0 0.543278,-0.59266 0.543278,-0.93944 v -8.10825 c 0,-0.0991 0.870656,-1.18674 3.263547,-2.57069 1.388886,-0.80081 2.80282,-2.17558 3.657953,-2.17558"
         style="fill:#173a79;fill-opacity:1;fill-rule:nonzero;stroke:none;stroke-width:0.35277778"
         id="path1249"
         inkscape:connector-curvature="0" />
      <path
         d="m 84.866633,180.61493 -0.02575,6.82307 2.3241,1.03823 v -6.77369 z m 1.062214,-1.48308 3.510491,1.73073 v 7.61365 l -3.312936,1.6316 -3.559527,-1.53282 v -7.96008 z"
         style="fill:#173a79;fill-opacity:1;fill-rule:nonzero;stroke:none;stroke-width:0.35277778"
         id="path1253"
         inkscape:connector-curvature="0" />
      <path
         d="m 69.712222,178.9054 2.125839,2.12584 v 6.52603 l 0.989189,0.98919 -1.631597,1.58186 -1.730023,-1.6316 v -6.08083 c -0.03034,-0.0201 -1.083027,-1.06821 -1.285522,-1.13735 l -1.187097,1.08761 v 5.24087 l 0.890058,0.8897 -1.680633,1.6316 -1.532819,-1.48343 v -6.57507 c 0,0 -0.727075,-0.60819 -1.038225,-0.98919 l 2.076802,-2.12549 2.026709,1.92793 z"
         style="fill:#173a79;fill-opacity:1;fill-rule:nonzero;stroke:none;stroke-width:0.35277778"
         id="path1265"
         inkscape:connector-curvature="0" />
      <path
         d="m 77.870384,179.18127 3.855861,1.6316 c -0.1778,0.22225 -1.354314,1.08232 -1.779764,1.18674 0,0 -3.149247,-1.23119 -3.213453,-1.23648 v 6.42761 l 2.649714,1.31762 c 0,0 1.527528,-0.52634 1.89865,-0.52634 0.03986,0 0.108656,0.0148 0.197909,0 v 0.14816 l -3.015898,1.97768 h -0.395816 l -3.806472,-1.73038 V 180.912 Z"
         style="fill:#173a79;fill-opacity:1;fill-rule:nonzero;stroke:none;stroke-width:0.35277778"
         id="path1269"
         inkscape:connector-curvature="0" />
      <path
         d="m 56.462877,184.09663 v 3.18064 l 3.262842,1.51624 v -3.06105 z m 1.927931,-5.09235 c 2.402769,1.20156 3.460749,1.34585 3.460749,1.8789 v 6.32848 l 1.532467,1.53282 -1.433336,1.38394 c -1.048103,-0.85478 -1.433689,-1.23578 -1.433689,-1.23578 l -2.63525,1.32045 -3.594805,-1.64782 v -4.17231 l 3.510844,-1.73002 1.927931,0.79058 v -1.73003 l -3.079398,-1.06997 -1.545519,0.18662 -0.07197,-0.25365 z"
         style="fill:#173a79;fill-opacity:1;fill-rule:nonzero;stroke:none;stroke-width:0.35277778"
         id="path1273"
         inkscape:connector-curvature="0" />
      <path
         d="m 100.41765,180.61973 v 6.82272 l 2.37384,1.03858 v -6.77369 z m 1.08797,-6.08154 c 0.14852,0 0.80045,0.25224 1.87889,0.79128 0.58314,0.29175 1.63195,0.50942 1.63195,1.03823 v 12.2615 l -3.26319,1.53211 -3.609626,-1.73002 v -7.76252 l 3.461106,-1.53247 c 0.12312,0.0148 1.23613,0.44485 1.23613,0.44485 v -2.47191 l -2.88678,-1.23261 c -0.469547,0.0296 -1.024114,0.47837 -1.5875,0.57785 l 0.123119,-0.48224 c 0,0 2.601031,-1.43405 3.015901,-1.43405"
         style="fill:#173a79;fill-opacity:1;fill-rule:nonzero;stroke:none;stroke-width:0.35277778"
         id="path1277"
         inkscape:connector-curvature="0" />
      <path
         d="m 109.12819,181.07118 0.0134,3.76026 2.23731,-1.44427 z m 1.52365,-1.98437 3.2138,3.55988 -4.69688,3.46075 v 0.93909 c 0,0.19897 2.76754,1.46191 2.76754,1.46191 0,0 1.3716,-0.93839 1.97838,-0.57185 -0.0339,0.0448 -3.31188,2.17523 -3.31188,2.17523 l -3.51014,-1.53212 v -7.81191 z"
         style="fill:#173a79;fill-opacity:1;fill-rule:nonzero;stroke:none;stroke-width:0.35277778"
         id="path1281"
         inkscape:connector-curvature="0" />
      <path
         d="m 153.81254,187.65073 0.88971,0.84032 -1.77942,1.68098 -1.68098,-1.68098 v -11.37109 l 2.57069,-2.5213 z"
         style="fill:#173a79;fill-opacity:1;fill-rule:nonzero;stroke:none;stroke-width:0.35277778"
         id="path1285"
         inkscape:connector-curvature="0" />
      <path
         d="m 140.11803,174.2802 v 7.16844 l 2.57104,-2.5213 1.92829,1.92828 v 9.09673 l -2.42323,2.37349 h -0.049 v -10.23408 l -0.93945,-0.89006 -1.08761,0.93945 v 5.38903 l 0.93874,0.88971 v 0.0494 l -1.73002,1.73073 -1.68099,-1.68134 v -11.7669 l 2.47227,-2.42217 z"
         style="fill:#173a79;fill-opacity:1;fill-rule:nonzero;stroke:none;stroke-width:0.35277778"
         id="path1289"
         inkscape:connector-curvature="0" />
      <path
         d="m 147.48455,174.2802 h 0.0497 l 1.68028,1.68099 v 0.049 l -1.73002,1.73073 -1.73073,-1.73073 z"
         style="fill:#173a79;fill-opacity:1;fill-rule:nonzero;stroke:none;stroke-width:0.35277778"
         id="path1293"
         inkscape:connector-curvature="0" />
      <path
         d="m 158.22568,181.07118 0.0134,3.76026 2.23731,-1.44427 z m 1.42169,-1.87466 c 0.0931,0 3.21275,3.4163 3.26214,3.55988 l -4.69653,3.31258 v 1.33527 l 2.66171,1.20262 c 0,0 1.397,-0.18486 1.88665,-0.60996 l 0.71226,0.17745 c -0.0596,0.0885 -3.26848,2.04717 -3.82623,2.04717 -0.12417,0 -2.51742,-0.91934 -3.51155,-1.58186 v -7.56496 c 0,-0.33655 3.50097,-1.87819 3.51155,-1.87819"
         style="fill:#173a79;fill-opacity:1;fill-rule:nonzero;stroke:none;stroke-width:0.35277778"
         id="path1305"
         inkscape:connector-curvature="0" />
      <path
         d="m 147.53412,178.92742 h 0.049 l 1.53282,1.53282 v 7.02028 l 0.9398,0.89006 -1.78047,1.73072 -1.68064,-1.68134 v -7.02027 l -0.79057,-0.74225 z"
         style="fill:#173a79;fill-opacity:1;fill-rule:nonzero;stroke:none;stroke-width:0.35277778"
         id="path1309"
         inkscape:connector-curvature="0" />
      <path
         d="m 130.55224,173.01228 h 0.1972 c -0.15698,0.3997 -2.82504,1.68416 -3.85621,2.86738 -1.58327,1.81716 -2.64795,2.83174 -2.4705,5.66702 0.10301,1.64818 1.40299,4.08728 2.91606,4.96252 0.46425,0.26706 1.93745,1.07809 3.31223,1.13736 2.00236,0.0885 1.20403,-0.31186 1.49613,-0.15346 v -11.96481 c 0,-0.14887 -0.36407,-0.93415 -0.7052,-0.93415 -0.0984,0 -0.2473,0.18309 -0.2473,0.29633 v 8.25641 c 0,0.30974 -0.28646,0.75177 -1.68063,1.68169 -1.42911,0.94897 -1.86867,1.27035 -2.02742,1.23543 0.0346,-0.0889 0.25224,-0.41522 0.34608,-0.49424 v -8.60249 c 0,-0.85372 1.24248,-1.34973 2.3241,-2.17593 1.78435,-1.36455 2.74884,-1.68064 2.7686,-1.68064 h 0.4445 c 1.18533,0 1.92898,1.43369 2.07715,1.58186 0.01,0.0102 0.34043,0.12383 0.4445,0.24765 h 0.69215 c 0.20038,0 0.69215,-0.29704 0.98919,-0.24765 -0.80081,0.69744 -3.3528,2.3241 -3.41171,2.3241 h -0.39511 c -0.18274,0 -0.46532,-0.28187 -0.79129,-0.44485 v 10.77806 c 0.13865,0.0194 0.11819,0 0.19791,0 0.48472,0 2.28424,-1.30069 2.37243,-1.43368 h 0.14817 v 0.34607 c -0.009,0.0145 -0.73554,1.37442 -0.74083,1.3843 -1.54235,1.76495 -3.27413,2.63666 -5.74076,2.65465 -4.31658,0.0321 -7.37905,-3.09527 -7.70713,-7.94491 -0.32632,-4.8267 3.07234,-8.79263 7.07037,-9.04769 0.58279,-0.0374 1.2947,0.005 1.38395,0 0,0 0.54892,-0.26211 0.59337,-0.29633"
         style="fill:#173a79;fill-opacity:1;fill-rule:nonzero;stroke:none;stroke-width:0.35277778"
         id="path1321"
         inkscape:connector-curvature="0" />
    </g>
  </g>
</svg>
