<?xml version="1.0" encoding="UTF-8" standalone="no"?>
<!-- Created with Inkscape (http://www.inkscape.org/) -->

<svg
   xmlns:dc="http://purl.org/dc/elements/1.1/"
   xmlns:cc="http://creativecommons.org/ns#"
   xmlns:rdf="http://www.w3.org/1999/02/22-rdf-syntax-ns#"
   xmlns:svg="http://www.w3.org/2000/svg"
   xmlns="http://www.w3.org/2000/svg"
   version="1.1"
   width="613.33124"
   height="140.13194"
   id="svg2">
  <defs
     id="defs4" />
  <metadata
     id="metadata7">
    <rdf:RDF>
      <cc:Work
         rdf:about="">
        <dc:format>image/svg+xml</dc:format>
        <dc:type
           rdf:resource="http://purl.org/dc/dcmitype/StillImage" />
        <dc:title></dc:title>
      </cc:Work>
    </rdf:RDF>
  </metadata>
  <g
     transform="translate(-290.83438,-301.09084)"
     id="layer1">
    <g
       transform="matrix(1.3333333,0,0,-1.3333333,474.00679,458.76477)"
       id="g10">
      <g
         transform="scale(0.1,0.1)"
         id="g12">
        <path
           d="m -1336.2931,409.83998 0,722.73982 923.44045,0 -923.44045,-722.73982"
           id="path16"
           style="fill:#00aae8;fill-opacity:1;fill-rule:evenodd;stroke:none" />
        <path
           d="m -10.335301,649.58776 -380.905379,0 0,-480.52287 -704.16842,0 698.97011,963.61791 386.103689,0 0,-483.09504 z m 591.595161,20.60784 0,342.043 -132.17448,0 0,119.7234 409.9711,0 0,-120.6502 -134.21622,0 0,-341.1162 -143.5804,0 z m 422.10054,168.48291 86.2831,0 -42.431,151.03154 -43.8521,-151.03154 z M 801.93946,670.1956 l 156.53367,461.7664 179.29137,0 151.7525,-461.7664 -153.3745,0 -18.4606,65.37406 -143.59839,0 -18.97035,-65.37406 -153.1737,0 z m 660.33954,120.53953 54.8409,0 c 38.3629,-0.41452 73.0184,22.53116 87.5139,58.03618 16.2205,39.47006 13.2596,82.59618 -8.0588,119.5173 -16.1175,27.31753 -44.9799,43.74399 -76.7002,43.64099 l -57.5958,0 0,-221.19447 z m -142.2776,-120.53953 0,461.7664 233.2415,0 c 88.6209,0.1031 167.7413,-57.4158 195.0845,-141.6597 18.4606,-57.10677 18.8726,-114.52245 1.211,-171.93812 C 1721.7059,730.4589 1639.4187,670.1956 1547.2189,670.1956 l -227.2168,0 z m 618.8277,168.48291 86.2523,0 -42.4053,151.03154 -43.847,-151.03154 z m -201.4183,-168.48291 156.5413,461.7664 179.173,0 151.8555,-461.7664 -153.3746,0 -18.4605,65.37406 -143.5907,0 -18.9755,-65.37406 -153.1685,0 z m 518.6721,0 0,461.7664 143.7966,0 128.9149,-219.46701 0,219.46701 140.913,0 0,-461.7664 -139.3941,0 -134.5275,234.75554 0,-234.75554 -139.7029,0 z m 618.1067,151.7474 c 14.7016,-28.05129 43.1262,-45.37898 74.7434,-45.5798 31.6173,-0.11076 60.2736,17.02645 75.181,44.96187 26.2878,51.21067 26.2878,110.14542 0,161.43333 -14.1865,28.5534 -42.9458,46.4217 -74.872,46.4217 -31.8232,0 -60.5825,-17.8683 -74.7434,-46.4217 -26.0044,-51.08194 -26.1074,-109.60474 -0.309,-160.8154 z m -26.1073,-139.30648 c -36.6122,16.31327 -66.0925,39.86914 -89.9599,72.10174 -66.2726,88.62619 -65.9636,211.79956 0.8247,300.13734 23.1465,31.6172 52.4208,54.5578 88.621,69.4395 100.8508,44.8768 221.089,15.0876 289.3184,-71.6023 68.3324,-86.66418 69.1562,-210.48122 1.931,-297.97454 -67.1995,-88.72652 -189.7807,-119.12079 -290.7345,-72.10174"
           id="path18"
           style="fill:#221714;fill-opacity:1;fill-rule:evenodd;stroke:none" />
      </g>
    </g>
  </g>
</svg>
