<svg width="655" height="573" viewBox="0 0 655 573" fill="none" xmlns="http://www.w3.org/2000/svg">
<path d="M327.499 33L50 538H605L327.499 33Z" fill="#FFC500"/>
<path d="M2.70376 562.564C6.30878 568.808 12.9696 572.655 20.1809 572.655H634.822C642.03 572.655 648.694 568.808 652.296 562.564C655.901 556.32 655.901 548.628 652.296 542.384L344.977 10.0895C341.373 3.84561 334.709 0 327.501 0C320.291 0 313.628 3.84812 310.025 10.0895L2.70376 542.384C-0.901255 548.627 -0.901255 556.32 2.70376 562.564ZM327.501 100.901L564.913 512.114H90.0883L327.501 100.901Z" fill="#CC0000"/>
<path d="M346.978 267.602L396.765 259.102L389.144 271.621C455.671 313.215 459.16 390.466 431.074 438.756L398.046 418.65C417.14 383.693 419.586 338.364 368.746 305.128L361.797 316.542L346.978 267.602Z" fill="black"/>
<path d="M225.965 413.842L192.751 375.791L207.408 375.767C208.21 297.311 272.309 254.053 328.16 252.839L328.225 291.506C288.44 293.44 248.486 314.989 246.635 375.701L259.998 375.679L225.965 413.842Z" fill="black"/>
<path d="M409.634 448.548L390.618 495.339L383.995 482.264C313.584 516.88 246.095 479.13 219.858 429.811L254.353 412.339C273.997 446.989 311.23 472.958 366.271 447.269L360.233 435.348L409.634 448.548Z" fill="black"/>
</svg>
