<?xml version="1.0" encoding="UTF-8" standalone="no"?>
<svg
   xmlns:dc="http://purl.org/dc/elements/1.1/"
   xmlns:cc="http://creativecommons.org/ns#"
   xmlns:rdf="http://www.w3.org/1999/02/22-rdf-syntax-ns#"
   xmlns:svg="http://www.w3.org/2000/svg"
   xmlns="http://www.w3.org/2000/svg"
   viewBox="0 0 980 721.5"
   height="721.5"
   width="980"
   xml:space="preserve"
   id="svg4269"
   version="1.1"><metadata
     id="metadata4275"><rdf:RDF><cc:Work
         rdf:about=""><dc:format>image/svg+xml</dc:format><dc:type
           rdf:resource="http://purl.org/dc/dcmitype/StillImage" /><dc:title></dc:title></cc:Work></rdf:RDF></metadata><defs
     id="defs4273"><clipPath
       id="clipPath4285"
       clipPathUnits="userSpaceOnUse"><path
         id="path4283"
         d="M 0,10 H 10200 V 13200 H 0 V 10" /></clipPath></defs><g
     transform="matrix(0,-0.08,-0.08,0,1056,760.6)"
     id="g4277"><path
       id="path4287"
       style="fill:#f6f6f6;stroke-width:11.1444;stroke-linecap:round;stroke-linejoin:round;stroke-miterlimit:10"
       d="M 5011,950 H 9508 V 13200 H 5011 c -925,0 -1775,-510 -2209,-1330 L 692.8,7895 C 420.2,7382 420.2,6767 692.8,6254 L 2803,2278 C 3237,1461 4087,949.1 5012,949.1" /><path
       id="path4293"
       style="fill:#0044aa;stroke-width:11.1444;stroke-linecap:round;stroke-linejoin:round;stroke-miterlimit:10"
       d="M 9131,12830 H 5011 c -787,0 -1508,-440 -1877,-1130 L 1024,7718 C 810.3,7316 810.3,6833 1024,6430 L 3135,2454 C 3503,1759 4225,1324 5012,1324 h 4119 z" /><g
       style="font-weight:bold;font-size:6564.10000000000036380px;font-family:SnvDRegCon;-inkscape-font-specification:'SnvDRegCon Bold';letter-spacing:-187.50000000000000000px;word-spacing:0px;text-anchor:middle;fill:#f6f6f6;stroke-width:164.103"
       id="text4976"
       transform="matrix(0,-1,-1,0,0,-298)"
       aria-label="609B"><path
         id="path5595"
         d="m -11790,-5717 q 300,-166 580,-166 400,0 690,253 350,295 350,782 v 391 q 0,385 -240,715 -330,442 -880,442 -590,0 -920,-465 -210,-291 -210,-692 v -2205 q 0,-423 250,-728 340,-413 880,-413 280,0 520,128 250,128 410,359 170,237 190,494 0,41 0,160 v 70 h -620 v -137 q 0,-206 -140,-353 -150,-160 -350,-160 -290,0 -440,272 -70,138 -70,308 z m 1000,1369 v -500 q 0,-212 -130,-359 -150,-173 -370,-173 -270,0 -420,234 -80,138 -80,298 v 500 q 0,180 120,327 140,160 360,160 270,0 420,-199 100,-125 100,-288 z" /><path
         id="path5597"
         d="m -9638,-4438 v -2224 q 0,-349 173,-619 157,-240 426,-381 260,-141 542,-141 420,0 737,279 372,330 372,862 v 2224 q 0,395 -221,693 -334,445 -907,445 -513,0 -850,-381 -272,-311 -272,-757 z m 1625,0 v -2291 q 0,-141 -84,-282 -137,-228 -410,-228 -275,0 -429,231 -77,115 -77,279 v 2355 q 0,167 109,308 150,202 397,202 285,0 426,-256 68,-125 68,-318 z" /><path
         id="path5599"
         d="m -5242,-5435 q -164,84 -254,116 -141,51 -323,51 -520,0 -814,-359 -234,-285 -234,-657 v -372 q 0,-432 266,-743 343,-404 862,-404 423,0 737,266 385,320 385,881 v 2218 q 0,356 -157,612 -138,228 -385,369 -272,157 -580,157 -289,0 -539,-135 -250,-137 -407,-378 -182,-279 -182,-625 v -173 h 625 v 247 q 0,173 112,317 150,183 391,183 282,0 433,-234 64,-99 64,-266 z m 0,-849 v -426 q 0,-215 -116,-353 -144,-179 -378,-179 -250,0 -401,192 -105,135 -105,340 v 426 q 0,164 105,311 145,205 404,205 285,0 423,-243 68,-116 68,-273 z" /><path
         style="stroke-width:121.904"
         id="path5601"
         d="m -4045,-3364 v -3250 h 914 q 312,0 531,210 226,216 226,540 v 331 q 0,209 -136,383 -61,74 -159,136 128,57 197,129 148,168 146,423 v 369 q 2,348 -274,569 -210,162 -469,160 z m 464,-1845 h 374 q 190,0 293,-127 76,-92 76,-197 v -331 q 0,-128 -93,-221 -107,-110 -248,-110 h -402 z m 0,1426 h 471 q 136,0 227,-88 93,-88 93,-222 v -369 q 0,-125 -77,-216 -90,-112 -226,-112 h -488 z" /></g></g></svg>
