<?xml version="1.0" encoding="UTF-8" standalone="no"?>
<svg
   xmlns:dc="http://purl.org/dc/elements/1.1/"
   xmlns:cc="http://creativecommons.org/ns#"
   xmlns:rdf="http://www.w3.org/1999/02/22-rdf-syntax-ns#"
   xmlns:svg="http://www.w3.org/2000/svg"
   xmlns="http://www.w3.org/2000/svg"
   xmlns:sodipodi="http://sodipodi.sourceforge.net/DTD/sodipodi-0.dtd"
   xmlns:inkscape="http://www.inkscape.org/namespaces/inkscape"
   inkscape:output_extension="org.inkscape.output.svg.inkscape"
   sodipodi:docname="QA road sign R100.svg"
   version="1.0"
   inkscape:version="1.0 (4035a4fb49, 2020-05-01)"
   sodipodi:version="0.32"
   id="svg2"
   height="1010.4002"
   width="1010.4">
  <defs
     id="defs4">
    <inkscape:perspective
       id="perspective3380"
       inkscape:persp3d-origin="300.5 : 200.33333 : 1"
       inkscape:vp_z="601 : 300.5 : 1"
       inkscape:vp_y="0 : 1000 : 0"
       inkscape:vp_x="0 : 300.5 : 1"
       sodipodi:type="inkscape:persp3d" />
    <inkscape:perspective
       sodipodi:type="inkscape:persp3d"
       inkscape:vp_x="0 : 375 : 1"
       inkscape:vp_y="0 : 1000 : 0"
       inkscape:vp_z="750 : 375 : 1"
       inkscape:persp3d-origin="375 : 250 : 1"
       id="perspective3990" />
  </defs>
  <sodipodi:namedview
     inkscape:document-rotation="0"
     inkscape:guide-bbox="true"
     showguides="true"
     inkscape:window-maximized="1"
     fit-margin-bottom="0.2"
     fit-margin-right="0.2"
     fit-margin-left="0.2"
     fit-margin-top="0.2"
     showgrid="false"
     inkscape:window-y="-9"
     inkscape:window-x="-9"
     inkscape:window-height="1001"
     inkscape:window-width="1920"
     height="601px"
     width="601px"
     inkscape:current-layer="layer1"
     inkscape:document-units="px"
     inkscape:cy="394.52739"
     inkscape:cx="367.6411"
     inkscape:zoom="0.62497736"
     inkscape:pageshadow="2"
     inkscape:pageopacity="0.0"
     objecttolerance="10"
     guidetolerance="10"
     gridtolerance="10000"
     borderopacity="1.0"
     bordercolor="#666666"
     pagecolor="#ffffff"
     id="base" />
  <metadata
     id="metadata7">
    <rdf:RDF>
      <cc:Work
         rdf:about="">
        <dc:format>image/svg+xml</dc:format>
        <dc:type
           rdf:resource="http://purl.org/dc/dcmitype/StillImage" />
        <dc:title></dc:title>
      </cc:Work>
    </rdf:RDF>
  </metadata>
  <g
     transform="translate(1515.529,3241.075)"
     id="layer1"
     inkscape:groupmode="layer"
     inkscape:label="Layer 1">
    <rect
       ry="27.202072"
       rx="249.48199"
       y="298.1684"
       x="578.73834"
       height="27.202072"
       width="0"
       id="rect3653"
       style="color:#000000;fill:#000000;fill-opacity:1;fill-rule:nonzero;stroke:none;stroke-width:0.8735441;marker:none;visibility:visible;display:inline;overflow:visible" />
    <path
       style="fill:#000000;fill-opacity:1;stroke:none"
       d="m -801.1513,-2230.8749 295.8223,-295.8221 -10e-5,-418.3556 -295.822,-295.8224 -418.3557,3e-4 -295.8222,295.8221 2e-4,418.3558 295.822,295.822 z"
       id="path3940"
       inkscape:connector-curvature="0" />
    <path
       style="fill:#ffffff;fill-opacity:1;stroke:none"
       d="m -803.2223,-2235.875 292.8933,-292.8932 -10e-5,-414.2135 -292.8931,-292.8935 -414.2135,3e-4 -292.8933,292.8932 2e-4,414.2136 292.8931,292.8932 z"
       id="path3942"
       inkscape:connector-curvature="0" />
    <path
       inkscape:connector-curvature="0"
       id="path3944"
       d="m -1203.7669,-3202.875 -273.5621,273.562 10e-5,386.8758 273.5619,273.5623 386.87553,-4e-4 273.56247,-273.5618 -2.9e-4,-386.8759 -273.56208,-273.5621 z"
       style="fill:#d61029;fill-opacity:1;stroke:none" />
    <path
       d="m -1282.7976,-2563.9249 c 0.055,10.884 6.9026,19.3672 25.8178,23.3108 l 41.5954,9.3138 c 22.4862,4.5533 40.0178,22.6266 40.1614,46.9763 -0.1433,36.1877 -27.8112,63.3127 -70.2822,63.4772 -33.6767,-0.1755 -50.1118,-9.2086 -75.6606,-36.214 l 24.7421,-20.8036 c 18.3384,20.1479 32.5802,26.9901 50.9185,26.8936 23.8457,0.099 38.9122,-7.8532 39.0855,-25.8212 -0.1731,-11.6067 -8.6657,-21.7466 -24.025,-25.0954 l -38.7268,-8.2496 c -28.0889,-5.9262 -45.3456,-28.3877 -45.1813,-52.3542 -0.164,-34.6531 26.4065,-56.5729 68.489,-56.6574 0,0 48.582,0.093 67.0549,31.198 l -26.1764,19.7137 c -14.2088,-22.6046 -45.1814,-22.5778 -45.1814,-22.5778 -21.6195,-0.054 -32.5771,11.4766 -32.6309,26.8898"
       id="path2783"
       style="opacity:1;fill:#ffffff;fill-opacity:1;fill-rule:nonzero;stroke:none;stroke-width:0.815478"
       inkscape:connector-curvature="0" />
    <path
       d="m -1066.6753,-2585.8003 v 160.6414 h -31.9139 v -160.6414 h -52.3528 v -29.0407 h 136.6195 v 29.0407 h -52.3528"
       id="path2785"
       style="opacity:1;fill:#ffffff;fill-opacity:1;fill-rule:nonzero;stroke:none;stroke-width:0.815478"
       inkscape:connector-curvature="0" />
    <path
       d="m -901.87121,-2622.0248 c -58.7446,0.1206 -89.95192,43.9445 -89.98479,100.7516 0.0325,62.8839 34.25531,101.7931 89.98479,101.8513 61.50576,-0.06 90.55551,-43.6204 90.73485,-101.8513 -0.17917,-58.1777 -31.41942,-100.6326 -90.73485,-100.7516 z m 0,30.1245 c 36.03159,0.1371 57.13512,23.6673 57.02452,70.6271 0.11049,43.4427 -14.96588,71.9433 -57.02452,72.0914 -40.39117,-0.1535 -56.81988,-26.4561 -56.64955,-72.0914 -0.17038,-41.7476 14.61485,-70.4966 56.64955,-70.6271 z"
       id="path2787"
       style="opacity:1;fill:#ffffff;fill-opacity:1;fill-rule:nonzero;stroke:none;stroke-width:0.815478"
       inkscape:connector-curvature="0" />
    <path
       d="m -767.552,-2615.9205 v 190.7677 h 32.96037 l 0.37452,-69.5689 h 37.66414 c 42.69822,0 61.87372,-34.2293 62.03507,-60.9793 -0.16119,-28.5878 -16.62258,-60.3538 -66.36384,-60.2195 z m 32.96037,29.0401 h 35.51689 c 19.45907,-0.137 33.70695,12.1971 33.71018,31.5561 0,20.9099 -12.62401,31.3049 -34.08525,31.193 h -35.14182 z"
       id="path2789"
       style="opacity:1;fill:#ffffff;fill-opacity:1;fill-rule:nonzero;stroke:none;stroke-width:0.815478"
       inkscape:connector-curvature="0" />
    <path
       sodipodi:nodetypes="sccscccsccsccsccscccscccccsscccccsccccccsccacscsccccccccscccccsccscscssssccccccccccsaacccccccssscssccsccascssccscc"
       d="m -815.62016,-3027.6505 c -1.63851,0 -3.04036,0.466 -4.21079,1.4019 l -13.5802,13.1116 c -1.87276,1.6387 -3.15915,2.3372 -3.74436,2.3372 -0.35121,0 -1.40759,-0.5834 -3.28022,-1.8712 l -11.23539,-12.1736 c -0.93632,-0.9358 -1.87008,-1.5219 -2.80638,-1.8728 -0.93632,-0.2357 -1.87251,-0.466 -2.80882,-0.466 -1.28755,0 -2.5788,0.3509 -3.74922,0.9359 l -19.19297,18.2603 c -0.93632,1.2872 -1.40441,2.5735 -1.40441,3.744 0,1.6382 1.16852,3.2785 3.27537,5.1515 l 16.85545,15.9169 c 0.93645,1.2879 2.34314,1.874 4.21578,1.874 1.87263,0 3.27449,-0.5861 4.21079,-1.874 l 13.57764,-13.111 c 1.87276,-1.17 2.92669,-1.8713 3.2778,-1.8713 0.58522,0 1.87416,0.8209 3.74679,2.3433 l 12.64235,12.639 c 0.58521,0.7029 1.16865,1.1705 1.87084,1.4046 0.93632,0.3509 1.63776,0.4716 2.33995,0.4716 1.87264,0 3.27679,-0.5867 4.21323,-1.874 l 16.85558,-16.389 c 2.10672,-1.1706 3.39312,-2.5719 3.74422,-4.2101 0,-1.522 -0.70041,-2.9261 -1.87097,-4.2133 l -17.32442,-16.8562 c -1.63852,-1.8728 -3.51089,-2.8065 -5.61764,-2.8065 z m -156.67339,49.2593 c -2.31096,0 -4.33034,0.8684 -5.77473,2.313 l -17.33457,16.7531 c -1.15557,0.8663 -1.73135,1.7331 -1.73135,2.8882 -0.43215,2.0225 0.72328,3.7545 3.46764,5.1986 l 16.75325,16.1797 c 0.81182,0.784 2.02411,1.1551 4.04605,1.1551 1.87772,0 3.17651,-0.2906 4.0436,-1.1551 l 16.17457,-16.1797 c 1.44438,-0.7215 2.4581,-1.2977 2.89119,-1.7308 0.28852,-0.7221 0.57615,-1.4458 0.57628,-2.3126 0.28851,-1.1557 0,-2.4551 -1.15753,-4.0434 l -19.06564,-18.4845 c -0.85456,-0.8284 -2.16676,-0.5816 -2.88876,-0.5816 z m 165.67855,6.1766 c -2.91637,0 -5.5663,0.5209 -7.95248,1.5866 -2.51877,1.0609 -5.99211,3.0906 -8.48648,5.3055 -9.33594,8.2924 -14.32147,13.6883 -23.46852,29.1986 -8.88177,14.8479 -14.02415,27.4112 -14.02415,39.3418 0,9.5446 5.34329,19.8151 12.76701,26.841 7.68873,6.7606 17.12607,10.8412 28.79174,10.8412 15.51017,0 23.25358,-6.9267 28.7919,-8.7562 l 4.82193,-0.1096 c 0.1978,3.4112 0.32681,10.7239 0.32681,10.7239 0.20878,4.3997 -0.47533,8.2546 -4.77212,7.9508 h -148.3864 c 2.10634,-5.118 4.87825,-7.6564 6.69277,-14.2668 1.03849,-4.4139 3.69136,-11.2562 3.94641,-18.2624 0.33068,-9.1048 0.55469,-10.7825 -3.03092,-18.9532 -5.98776,-12.2678 -12.23836,-16.8063 -23.66303,-16.8063 -12.46329,0 -22.74806,10.2891 -29.9568,16.9933 -6.20872,6.1991 -11.0947,11.5254 -16.69607,17.7131 -14.4515,15.9657 -12.5496,16.6735 -23.8402,33.607 l -165.6172,1.0345 c -9.3474,0 -17.6578,-3.8937 -24.9278,-11.9437 -7.0106,-8.3083 -5.9046,-17.3008 -5.9046,-27.4272 0,-4.1546 0.9822,-7.8395 1.7612,-11.9931 0.6492,-4.1547 1.2963,-7.5319 2.0754,-10.3872 0.6491,-2.727 2.7515,-7.4377 2.7515,-8.4772 0,-0.5899 -0.7018,-2.1881 -1.6489,-2.6064 -0.3597,-0.1535 -0.8941,-0.1864 -1.367,-0.1535 -0.4729,0.054 -0.8854,0.1206 -1.0004,0.1973 -1.1467,0.7972 -5.7723,5.0429 -8.3342,7.8807 -2.1954,2.4321 -4.161,5.0725 -5.9868,7.7929 -3.7658,5.6109 -7.5058,11.3238 -10.1976,17.5212 -4.1233,9.4947 -8.9529,21.4264 -8.9529,29.7358 0,17.3962 4.9331,31.6751 15.0595,43.1002 9.9964,11.1641 34.9894,16.6182 51.3472,16.6182 h 166.1687 c 6.2317,0 26.25508,0.054 26.25508,0.054 8.76975,-1.7209 9.71666,-5.2692 12.67709,-5.2463 3.90745,0.06 5.05156,4.8867 10.17019,5.2238 h 25.45673 20.25561 v 0 h 136.90658 c 12.0928,0 14.35137,0.7221 16.66323,-9.9207 0.8395,-3.8646 1.99011,-11.0139 3.01111,-16.5162 2.88149,-15.5294 7.39166,-30.8285 8.7907,-46.5607 1.15893,-13.0321 2.8198,-25.0642 -0.36169,-39.2481 -3.18137,-14.4499 -2.59437,-13.3605 -8.16205,-26.8816 -5.35108,-11.316 -11.50233,-17.1522 -18.92605,-24.5762 -3.57921,-3.8444 -7.09585,-6.0225 -10.27748,-7.4815 -3.18138,-1.7232 -6.36492,-2.6459 -9.54654,-2.6459 z m -14.55305,47.4385 c 2.22476,0.06 4.37593,0.2358 6.19646,0.4935 9.10579,1.2812 16.59707,8.7359 23.3712,14.6603 0.86632,0.7577 1.95283,2.0389 1.51412,3.1026 -1.04999,2.5472 -2.75493,2.7533 -7.80535,2.7095 -5.05029,-0.054 -14.37908,1.0778 -20.93902,-1.3471 -6.77759,-2.505 -18.63944,-5.9069 -17.33453,-13.0139 0.99596,-5.4245 8.32287,-6.7227 14.99712,-6.6033 z m -153.89932,43.1851 c 1.29278,0.06 2.56818,0.2522 3.76416,0.6541 3.94999,1.3355 7.6066,4.3438 9.62637,7.9924 2.37999,4.2994 2.90192,8.8961 1.95833,14.6127 -0.38059,2.3038 -0.93593,4.1684 -1.86407,6.0714 -1.00554,2.0609 -1.89307,4.3779 -3.9408,5.64 -1.2468,0.7692 -2.9963,1.4682 -7.79283,0.159 -5.54993,-1.5099 -11.39438,-5.1909 -14.23129,-8.7875 -3.78971,-4.805 -5.56617,-12.8018 -2.62682,-18.1681 1.77633,-3.243 5.25745,-5.7803 8.78073,-7.1093 1.96867,-0.7435 4.1712,-1.1382 6.32622,-1.068 z"
       style="opacity:1;fill:#ffffff;stroke-width:1.2772"
       id="path24553-4" />
  </g>
</svg>
