<?xml version="1.0" encoding="UTF-8" standalone="no"?>
<!-- Created with Inkscape (http://www.inkscape.org/) -->

<svg
   xmlns:dc="http://purl.org/dc/elements/1.1/"
   xmlns:cc="http://creativecommons.org/ns#"
   xmlns:rdf="http://www.w3.org/1999/02/22-rdf-syntax-ns#"
   xmlns:svg="http://www.w3.org/2000/svg"
   xmlns="http://www.w3.org/2000/svg"
   version="1.1"
   width="586"
   height="587.15625"
   id="svg2989">
  <defs
     id="defs2991" />
  <metadata
     id="metadata2994">
    <rdf:RDF>
      <cc:Work
         rdf:about="">
        <dc:format>image/svg+xml</dc:format>
        <dc:type
           rdf:resource="http://purl.org/dc/dcmitype/StillImage" />
        <dc:title></dc:title>
      </cc:Work>
    </rdf:RDF>
  </metadata>
  <g
     transform="translate(0.5,-465.70598)"
     id="layer1">
    <path
       d="m 61.75,466.20598 c -39.994391,62.14486 -61.7500020107428,134.958 -61.75,210 3.8812684e-6,144.85103 79.372282,271.1634 197,337.81252 29.62567,16.7862 61.67843,29.7839 95.5,38.3437 33.82157,-8.5598 65.87433,-21.5575 95.5,-38.3437 117.62772,-66.64912 197,-192.96149 197,-337.81252 0,-75.042 -21.75561,-147.85514 -61.75,-210 -1.67366,0.55915 -461.5,0 -461.5,0 z"
       id="path2997"
       style="fill:#ffffff;fill-opacity:1;fill-rule:nonzero;stroke:#000000;stroke-opacity:1" />
    <path
       d="M 73.34375,489.20598 C 40.653385,544.8113 22.999998,608.60173 23,674.20598 c 4e-6,131.56276 69.605194,246.86378 174,311.09375 29.34604,18.05547 61.42936,32.07127 95.5,41.28127 34.07064,-9.21 66.15396,-23.2258 95.5,-41.28127 104.39481,-64.22997 174,-179.53099 174,-311.09375 0,-65.60425 -17.65339,-129.39468 -50.34375,-185 -0.41102,1.06019 -438.3125,0 -438.3125,0 z"
       id="path3808"
       style="fill:#ba312b;fill-opacity:1;fill-rule:nonzero;stroke:none" />
    <g
       id="text3817"
       style="font-size:335.82089233px;font-style:normal;font-variant:normal;font-weight:normal;font-stretch:normal;text-align:center;line-height:125%;letter-spacing:0px;word-spacing:0px;writing-mode:lr-tb;text-anchor:middle;fill:#ffffff;fill-opacity:1;stroke:none;font-family:Roadgeek 2005 Series C;-inkscape-font-specification:Roadgeek 2005 Series C">
      <path
         d="m 276.35174,638.45926 c -2.01509,2.46287 -3.91808,4.70168 -5.70896,6.71642 -1.56732,2.0151 -3.13448,4.03003 -4.70149,6.04477 -1.34344,2.0151 -2.79866,4.14197 -4.36567,6.3806 -1.56732,2.23898 -3.24642,4.8136 -5.03731,7.72388 -10.07477,16.56731 -18.69416,34.02998 -25.85821,52.38806 -6.94042,18.3583 -12.31355,36.60455 -16.11941,54.73881 -0.67174,4.70154 -1.34338,9.29109 -2.01492,13.76865 -0.67175,4.25377 -1.23145,8.61944 -1.67911,13.09702 -0.22398,4.25375 -0.44786,8.73136 -0.67164,13.43283 -0.22398,4.47763 -0.33592,9.51493 -0.33582,15.11194 l -36.26866,0 c 0.22382,-12.98506 1.0074,-25.52236 2.35075,-37.61194 1.34322,-12.0895 3.2462,-23.95516 5.70896,-35.59701 2.68649,-11.64171 6.04469,-23.17155 10.07462,-34.58955 4.02977,-11.64167 8.84319,-23.39539 14.4403,-35.2612 3.80587,-8.50731 7.94766,-16.79088 12.42537,-24.85074 4.4775,-8.05953 8.73123,-15.2237 12.7612,-21.49254 l -107.46269,0 0,-35.59701 152.46269,0 0,35.59701 0,0"
         id="path5134"
         style="font-family:Roadgeek 2005 Series D;-inkscape-font-specification:Roadgeek 2005 Series D" />
      <path
         d="m 460.65969,638.45926 c -2.01509,2.46287 -3.91807,4.70168 -5.70895,6.71642 -1.56733,2.0151 -3.13449,4.03003 -4.7015,6.04477 -1.34344,2.0151 -2.79866,4.14197 -4.36567,6.3806 -1.56731,2.23898 -3.24642,4.8136 -5.03731,7.72388 -10.07477,16.56731 -18.69416,34.02998 -25.85821,52.38806 -6.94041,18.3583 -12.31354,36.60455 -16.1194,54.73881 -0.67175,4.70154 -1.34339,9.29109 -2.01493,13.76865 -0.67174,4.25377 -1.23145,8.61944 -1.6791,13.09702 -0.22399,4.25375 -0.44787,8.73136 -0.67164,13.43283 -0.22399,4.47763 -0.33593,9.51493 -0.33583,15.11194 l -36.26865,0 c 0.22381,-12.98506 1.00739,-25.52236 2.35074,-37.61194 1.34322,-12.0895 3.2462,-23.95516 5.70896,-35.59701 2.68649,-11.64171 6.0447,-23.17155 10.07463,-34.58955 4.02976,-11.64167 8.84319,-23.39539 14.44029,-35.2612 3.80587,-8.50731 7.94766,-16.79088 12.42538,-24.85074 4.47749,-8.05953 8.73122,-15.2237 12.76119,-21.49254 l -107.46268,0 0,-35.59701 152.46268,0 0,35.59701 0,0"
         id="path5136"
         style="font-family:Roadgeek 2005 Series D;-inkscape-font-specification:Roadgeek 2005 Series D" />
    </g>
    <text
       x="727.04468"
       y="194.38087"
       transform="translate(0,466.20598)"
       id="text3825"
       xml:space="preserve"
       style="font-size:36px;font-style:normal;font-variant:normal;font-weight:normal;font-stretch:normal;text-align:center;line-height:125%;letter-spacing:0px;word-spacing:0px;writing-mode:lr-tb;text-anchor:middle;fill:#000000;fill-opacity:1;stroke:none;font-family:Roadgeek 2005 Series C;-inkscape-font-specification:Roadgeek 2005 Series C"><tspan
         x="727.04468"
         y="194.38087"
         id="tspan3827" /></text>
  </g>
</svg>
