<?xml version="1.0" encoding="UTF-8"?>
<!DOCTYPE svg PUBLIC "-//W3C//DTD SVG 1.1//EN" "http://www.w3.org/Graphics/SVG/1.1/DTD/svg11.dtd">
<!-- Creator: CorelDRAW -->
<svg xmlns="http://www.w3.org/2000/svg" xml:space="preserve" width="52.917mm" height="31.044mm" style="shape-rendering:geometricPrecision; text-rendering:geometricPrecision; image-rendering:optimizeQuality; fill-rule:evenodd; clip-rule:evenodd"
viewBox="0 0 52.917 31.044"
 xmlns:xlink="http://www.w3.org/1999/xlink">
 <defs>
  <style type="text/css">
   <![CDATA[
    .fil0 {fill:#009933}
    .fil1 {fill:white}
    .fil2 {fill:white;fill-rule:nonzero}
   ]]>
  </style>
 </defs>
 <g id="Layer_x0020_1">
  <metadata id="CorelCorpID_0Corel-Layer"/>
  <g id="_107205608">
   <path id="_107204744" class="fil0" d="M2.6524 0l47.6122 0c1.4646,0.0001 2.6524,1.1634 2.6524,2.5979l0 25.8482c0,1.4344 -1.1878,2.5977 -2.6524,2.5977l-47.6122 0.0002c-1.4645,-0.0002 -2.6523,-1.1635 -2.6523,-2.598l-0.0001 -25.8481c0.0001,-1.4345 1.1879,-2.5978 2.6525,-2.5978z"/>
   <path id="_107205680" class="fil1" d="M3.9224 1.411l45.0722 0c1.3865,0.0001 2.5109,1.0576 2.5109,2.3617l0 23.4986c0,1.304 -1.1244,2.3615 -2.5109,2.3615l-45.0722 0.0002c-1.3864,-0.0002 -2.5108,-1.0577 -2.5108,-2.3618l-0.0001 -23.4985c0.0001,-1.3041 1.1245,-2.3616 2.511,-2.3616l-0.0001 -0.0001zm-0.0415 14.111l0 0zm0 0l0 0zm0 0l0 -8.9949c0,-0.3157 0.2428,-0.5523 0.7284,-0.7102l21.3636 -3.2902c0,-0.0159 0.1619,-0.0237 0.4856,-0.0237 0.3237,0 0.4856,0.0078 0.4856,0.0237l21.3636 3.2902c0.4856,0.1579 0.7282,0.3946 0.7282,0.7102l0 17.9898c0,0.3157 -0.2426,0.5523 -0.7282,0.7102l-21.3636 3.2902c0,0.0159 -0.1619,0.0237 -0.4856,0.0237 -0.3237,0 -0.4856,-0.0078 -0.4856,-0.0237l-21.3636 -3.2902c-0.4856,-0.1579 -0.7284,-0.3946 -0.7284,-0.7102m0 -8.9949l0 0 0 0z"/>
   <path id="_107205104" class="fil1" d="M10.7742 23.5837l0.0188 0.0083 2.0494 0 0.397 -2.2515c0.0017,-0.0648 0.0047,-0.1266 0.0095,-0.1847l4.5609 0.0011 0.3115 2.4351 2.1457 -0.003 -3.3638 -16.137 -2.6642 0.0165 -3.4648 16.1152zm2.9402 -4.2848l3.6299 0.0008 -1.9376 -8.1879 -1.6923 8.1871z"/>
   <polygon id="_107204600" class="fil2" points="34.031,9.7521 35.4035,7.2995 37.748,7.2995 37.748,23.6996 35.4035,23.6996 35.4035,11.1205 34.031,11.1205 "/>
  </g>
 </g>
</svg>
