<svg xmlns="http://www.w3.org/2000/svg" viewBox="0 0 518.81 397.73" xmlns:v="https://vecta.io/nano"><rect x="6" y="6" width="506.81" height="385.73" rx="58.51" fill="#0070c0" stroke="#ffc000" stroke-width="12"/><path d="M452.467 154.443l-20.67 1.62q-2.77-12.24-7.85-17.78a27.5 27.5 0 0 0-20.74-8.89 28.62 28.62 0 0 0-17.48 5.55q-9.81 7.17-15.47 20.9-5.66 13.73-5.89 39.1a48.21 48.21 0 0 1 18.36-17 49.33 49.33 0 0 1 22.75-5.54q20.78 0 35.38 15.3 14.6 15.3 14.61 39.54a65 65 0 0 1-6.87 29.7 50 50 0 0 1-18.88 21 51.49 51.49 0 0 1-27.24 7.27q-26 0-42.38-19.1-16.38-19.1-16.39-63 0-49.06 18.12-71.35 15.82-19.39 42.61-19.4 20 0 32.73 11.2 12.73 11.2 15.3 30.88zm-84.86 73a48.23 48.23 0 0 0 4.6 20.5 34 34 0 0 0 12.76 15 31.83 31.83 0 0 0 17.2 5.14q13.15 0 22.63-10.62 9.48-10.62 9.41-28.89 0-17.55-9.36-27.65a30.7 30.7 0 0 0-23.55-10.11 32 32 0 0 0-23.88 10.13q-9.81 10.08-9.81 26.48zM63.35 282.32V113.06h63.5q19.41 0 31.12 5.13A40.08 40.08 0 0 1 176.33 134a41.76 41.76 0 0 1 6.67 22.35 38.35 38.35 0 0 1-5.89 20.44q-5.9 9.59-17.78 15.47 15.36 4.5 23.61 15.36 8.25 10.86 8.26 25.63a49.41 49.41 0 0 1-5 22.11q-5 10.22-12.41 15.76a51.88 51.88 0 0 1-18.53 8.37q-11.14 2.83-27.31 2.83zm22.4-98.14h36.6q14.9 0 21.36-2 8.55-2.53 12.88-8.42 4.33-5.89 4.33-14.76a27.18 27.18 0 0 0-4-14.84 20.4 20.4 0 0 0-11.54-8.77q-7.56-2.39-25.8-2.39H85.75zm0 78.16h42.14q10.86 0 15.25-.8a36.84 36.84 0 0 0 12.93-4.62 24.54 24.54 0 0 0 8.54-9.41 29.48 29.48 0 0 0 3.39-14.26 28.18 28.18 0 0 0-4.85-16.46 25.63 25.63 0 0 0-13.49-9.79q-8.61-2.82-24.77-2.83H85.75zm204.83 21.5H269.8V151.41a107.71 107.71 0 0 1-19.69 14.31 138.16 138.16 0 0 1-21.88 10.74v-20.09a125.28 125.28 0 0 0 30.48-19.85q13.05-11.66 18.48-22.63h13.39z" fill="#ffc000"/></svg>