<?xml version="1.0" encoding="UTF-8" standalone="no"?>
<!-- Created with Inkscape (http://www.inkscape.org/) -->

<svg
   xmlns:dc="http://purl.org/dc/elements/1.1/"
   xmlns:cc="http://creativecommons.org/ns#"
   xmlns:rdf="http://www.w3.org/1999/02/22-rdf-syntax-ns#"
   xmlns:svg="http://www.w3.org/2000/svg"
   xmlns="http://www.w3.org/2000/svg"
   xmlns:sodipodi="http://sodipodi.sourceforge.net/DTD/sodipodi-0.dtd"
   xmlns:inkscape="http://www.inkscape.org/namespaces/inkscape"
   width="310.89111"
   height="160.44707"
   viewBox="0 0 82.256605 42.451621"
   version="1.1"
   id="svg962"
   inkscape:version="0.92.1 r15371"
   sodipodi:docname="Ibiden company logo.svg">
  <defs
     id="defs956">
    <clipPath
       id="clip8">
      <path
         inkscape:connector-curvature="0"
         d="M 39,41 H 170.55078 V 69 H 39 Z m 0,0"
         id="path638" />
    </clipPath>
  </defs>
  <sodipodi:namedview
     id="base"
     pagecolor="#ffffff"
     bordercolor="#666666"
     borderopacity="1.0"
     inkscape:pageopacity="0.0"
     inkscape:pageshadow="2"
     inkscape:zoom="1"
     inkscape:cx="12.017501"
     inkscape:cy="-146.27653"
     inkscape:document-units="mm"
     inkscape:current-layer="layer1"
     showgrid="false"
     units="px"
     fit-margin-top="5"
     fit-margin-bottom="5"
     fit-margin-right="5"
     fit-margin-left="5"
     inkscape:window-width="1280"
     inkscape:window-height="972"
     inkscape:window-x="-8"
     inkscape:window-y="-8"
     inkscape:window-maximized="1" />
  <metadata
     id="metadata959">
    <rdf:RDF>
      <cc:Work
         rdf:about="">
        <dc:format>image/svg+xml</dc:format>
        <dc:type
           rdf:resource="http://purl.org/dc/dcmitype/StillImage" />
        <dc:title></dc:title>
      </cc:Work>
    </rdf:RDF>
  </metadata>
  <g
     inkscape:label="Layer 1"
     inkscape:groupmode="layer"
     id="layer1"
     transform="translate(-102.65371,-67.679377)">
    <g
       id="g196"
       transform="matrix(0.60693251,0,0,-0.60693251,147.29814,98.712854)">
      <path
         d="m 0,0 c -6.336,-4.079 -14.318,-7.639 -22.464,-7.675 -7.344,-0.036 -11.952,3.158 -13.635,7.664 -0.121,0.324 -0.303,0.43 -0.721,0.43 h -6.004 c -0.344,0 -0.483,-0.171 -0.483,-0.491 -0.019,-9.82 6.489,-16.522 18.596,-16.561 11.66,-0.04 26.052,6.178 37.859,16.591 0.174,0.154 0.246,0.461 -0.213,0.461 H 1.598 C 0.897,0.419 0.56,0.362 0,0 m -20.172,32.355 c 7.123,5.921 20.295,12.82 31.061,11.225 0.309,-0.049 0.524,-0.04 0.81,0.047 l 5.204,1.565 c 0.349,0.107 0.417,0.199 0.487,0.51 l 0.543,2.407 c 0.049,0.212 -0.057,0.42 -0.283,0.459 -1.553,0.261 -3.15,0.384 -4.773,0.384 C -0.36,48.949 -15.465,40.718 -24.953,32.175 -25.085,32.053 -25.02,31.9 -24.864,31.9 h 3.41 c 0.566,0 0.877,0.119 1.282,0.455 m 34.372,10.596 4.976,1.467 c 0.147,0.048 0.217,0.127 0.24,0.257 l 0.614,2.889 c 0.048,0.231 0.236,0.347 0.482,0.281 C 23.876,46.918 31.72,43.478 31.72,32.348 31.72,32.103 31.574,31.9 31.213,31.9 H 22.5 c -0.468,0 -0.517,0.249 -0.535,0.487 -0.34,4.635 -2.832,8.652 -7.774,10.315 -0.139,0.046 -0.129,0.205 0.009,0.249"
         style="fill:#74b5e4;fill-opacity:1;fill-rule:nonzero;stroke:none"
         id="path198"
         inkscape:connector-curvature="0" />
    </g>
    <g
       id="g200"
       transform="matrix(0.60693251,0,0,-0.60693251,139.67568,93.666214)">
      <path
         d="m 0,0 c -0.025,-0.148 0.04,-0.21 0.177,-0.21 6.771,0 9.436,2.11 10.485,8.217 1.333,7.959 -3.691,7.991 -7.757,7.991 -0.154,0 -0.225,-0.07 -0.248,-0.2 z m -3.901,20.548 c 0.044,0.279 0.203,0.414 0.495,0.414 h 8.735 c 3.093,0 7.161,-0.308 9.536,-2.16 3.38,-2.654 3.697,-6.979 3.024,-10.867 C 16.899,2.118 14.193,-2.173 8.598,-4.244 5.765,-5.26 2.751,-5.272 0.954,-5.272 h -8.809 c -0.285,0 -0.393,0.163 -0.353,0.413 z M 44.518,-4.859 c -0.045,-0.263 0.092,-0.413 0.356,-0.413 h 5.477 c 0.312,0 0.441,0.106 0.492,0.413 l 3.282,19.746 c 0.009,0.051 0.076,0.065 0.09,0.004 l 4.628,-19.757 c 0.081,-0.3 0.214,-0.406 0.535,-0.406 h 8.164 c 0.293,0 0.445,0.123 0.494,0.413 l 4.305,25.407 c 0.048,0.267 -0.094,0.414 -0.354,0.414 h -5.439 c -0.305,0 -0.448,-0.135 -0.497,-0.416 L 62.917,1.596 C 62.908,1.544 62.846,1.525 62.827,1.595 l -4.59,18.96 c -0.072,0.251 -0.211,0.407 -0.534,0.407 h -8.382 c -0.302,0 -0.448,-0.126 -0.495,-0.414 z m -24.935,0 c -0.04,-0.254 0.108,-0.413 0.354,-0.413 h 19.249 c 0.29,0 0.452,0.151 0.501,0.413 l 0.722,4.273 c 0.038,0.239 -0.101,0.413 -0.36,0.413 H 27.715 c -0.125,0 -0.199,0.077 -0.179,0.209 l 0.878,5.183 c 0.025,0.138 0.107,0.207 0.248,0.207 h 12.341 c 0.276,0 0.451,0.155 0.497,0.415 l 0.706,4.185 c 0.043,0.262 -0.109,0.416 -0.354,0.416 h -12.34 c -0.127,0 -0.199,0.08 -0.178,0.206 l 0.855,5.038 c 0.023,0.132 0.101,0.208 0.247,0.208 h 12.338 c 0.287,0 0.452,0.154 0.497,0.412 l 0.719,4.24 c 0.042,0.243 -0.092,0.416 -0.356,0.416 h -19.25 c -0.275,0 -0.453,-0.173 -0.494,-0.414 z m -78.393,0 c -0.048,-0.273 0.104,-0.413 0.354,-0.413 h 6.556 c 0.287,0 0.446,0.14 0.493,0.413 l 4.306,25.407 c 0.045,0.246 -0.076,0.414 -0.352,0.414 h -6.556 c -0.313,0 -0.453,-0.15 -0.494,-0.414 z m 38.37,0 c -0.047,-0.273 0.103,-0.413 0.355,-0.413 h 6.554 c 0.285,0 0.444,0.14 0.493,0.413 l 4.303,25.407 c 0.046,0.246 -0.074,0.414 -0.351,0.414 h -6.554 c -0.315,0 -0.453,-0.15 -0.496,-0.414 z m -16.517,15.471 c -0.025,-0.134 0.045,-0.206 0.177,-0.206 h 3.678 c 3.121,0 4.134,1.146 4.474,2.869 0.325,1.655 -0.625,2.946 -3.16,2.946 h -4.005 c -0.148,0 -0.219,-0.06 -0.246,-0.206 z m -1.827,-10.868 c -0.024,-0.138 0.041,-0.209 0.175,-0.209 h 4.382 c 0.827,0 3.741,0 4.263,3.055 0.523,3.162 -2.427,3.162 -3.393,3.162 h -4.206 c -0.15,0 -0.222,-0.064 -0.247,-0.208 z m -3.484,20.804 c 0.047,0.264 0.203,0.414 0.493,0.414 h 9.835 c 3.269,0 6.873,0.02 8.9,-2.124 0.677,-0.763 1.693,-2.183 1.32,-4.508 -0.813,-4.616 -4.895,-5.618 -6.283,-5.954 -0.106,-0.028 -0.087,-0.074 -0.028,-0.085 1.627,-0.298 5.948,-1.162 5.198,-6.499 -0.287,-2.05 -1.417,-4.436 -4.519,-5.962 -2.221,-1.09 -5.667,-1.102 -8.003,-1.102 h -10.861 c -0.279,0 -0.401,0.151 -0.352,0.413 z"
         style="fill:#003894;fill-opacity:1;fill-rule:nonzero;stroke:none"
         id="path202"
         inkscape:connector-curvature="0" />
    </g>
  </g>
</svg>
