<?xml version="1.0" encoding="UTF-8" standalone="no"?>
<!-- Created with Inkscape (http://www.inkscape.org/) -->

<svg
   xmlns:dc="http://purl.org/dc/elements/1.1/"
   xmlns:cc="http://creativecommons.org/ns#"
   xmlns:rdf="http://www.w3.org/1999/02/22-rdf-syntax-ns#"
   xmlns:svg="http://www.w3.org/2000/svg"
   xmlns="http://www.w3.org/2000/svg"
   xmlns:sodipodi="http://sodipodi.sourceforge.net/DTD/sodipodi-0.dtd"
   xmlns:inkscape="http://www.inkscape.org/namespaces/inkscape"
   width="606mm"
   height="806mm"
   viewBox="0 0 606 806"
   version="1.1"
   id="svg8"
   inkscape:version="0.92.4 (5da689c313, 2019-01-14)"
   sodipodi:docname="11.svg">
  <defs
     id="defs2" />
  <sodipodi:namedview
     id="base"
     pagecolor="#ffffff"
     bordercolor="#666666"
     borderopacity="1.0"
     inkscape:pageopacity="0.0"
     inkscape:pageshadow="2"
     inkscape:zoom="0.175"
     inkscape:cx="2214.2586"
     inkscape:cy="1028.2855"
     inkscape:document-units="mm"
     inkscape:current-layer="text37"
     showgrid="false"
     inkscape:window-width="1920"
     inkscape:window-height="1057"
     inkscape:window-x="-8"
     inkscape:window-y="-8"
     inkscape:window-maximized="1" />
  <metadata
     id="metadata5">
    <rdf:RDF>
      <cc:Work
         rdf:about="">
        <dc:format>image/svg+xml</dc:format>
        <dc:type
           rdf:resource="http://purl.org/dc/dcmitype/StillImage" />
        <dc:title></dc:title>
      </cc:Work>
    </rdf:RDF>
  </metadata>
  <g
     inkscape:label="Layer 1"
     inkscape:groupmode="layer"
     id="layer1"
     transform="translate(0,509)">
    <rect
       style="opacity:1;fill:#000000;fill-opacity:1;fill-rule:nonzero;stroke:none;stroke-width:133.10438538;stroke-linecap:square;stroke-linejoin:round;stroke-miterlimit:4;stroke-dasharray:none;stroke-opacity:1"
       id="rect10"
       width="604"
       height="804"
       x="1"
       y="-508"
       rx="52"
       ry="52" />
    <rect
       ry="50"
       rx="50"
       y="-506"
       x="3"
       height="800"
       width="600"
       id="rect817"
       style="opacity:1;fill:#ffffff;fill-opacity:1;fill-rule:nonzero;stroke:none;stroke-width:132.33248901;stroke-linecap:square;stroke-linejoin:round;stroke-miterlimit:4;stroke-dasharray:none;stroke-opacity:1" />
    <circle
       style="opacity:1;fill:#be121e;fill-opacity:1;fill-rule:nonzero;stroke:none;stroke-width:106.69789886;stroke-linecap:square;stroke-linejoin:round;stroke-miterlimit:4;stroke-dasharray:none;stroke-opacity:1"
       id="path828"
       cx="303"
       cy="-106"
       r="297" />
    <circle
       r="237"
       cy="-106"
       cx="303"
       id="circle830"
       style="opacity:1;fill:#ffffff;fill-opacity:1;fill-rule:nonzero;stroke:none;stroke-width:85.14276886;stroke-linecap:square;stroke-linejoin:round;stroke-miterlimit:4;stroke-dasharray:none;stroke-opacity:1" />
    <text
       xml:space="preserve"
       style="font-style:normal;font-weight:normal;font-size:10.58333302px;line-height:1.25;font-family:sans-serif;letter-spacing:0px;word-spacing:0px;fill:#000000;fill-opacity:1;stroke:none;stroke-width:0.26458332"
       x="-548.82141"
       y="-341.0238"
       id="text27"><tspan
         sodipodi:role="line"
         x="-548.82141"
         y="-331.36832"
         style="stroke-width:0.26458332"
         id="tspan29" /><tspan
         sodipodi:role="line"
         x="-548.82141"
         y="-318.13913"
         style="stroke-width:0.26458332"
         id="tspan33" /></text>
    <g
       aria-label="50"
       style="font-style:normal;font-variant:normal;font-weight:normal;font-stretch:normal;font-size:345.82131958px;line-height:0;font-family:'Roadgeek 2005 Series D';-inkscape-font-specification:'Roadgeek 2005 Series D';letter-spacing:0px;word-spacing:0px;fill:#000000;fill-opacity:1;stroke:none;stroke-width:8.64553261"
       id="text37">
      <path
         d="m 276.89452,-75.56772 q 0,19.366 -7.60807,35.6196 -7.26225,16.2536 -20.74928,28.35735 Q 235.05014,0.51297 216.37579,7.4294 198.04726,14 175.9147,14 160.69856,14 145.82824,10.54179 131.30375,7.08358 119.2,0.85879 l 17.98271,-32.5072 q 7.26225,3.80403 19.02017,6.22478 11.75793,2.07493 24.55331,2.07493 12.44957,0 23.17003,-3.80403 11.06628,-4.14986 19.02018,-11.06628 8.29971,-6.91643 12.79538,-16.25361 4.49568,-9.68299 4.49568,-21.0951 0,-8.64553 -3.45821,-15.90778 -3.11239,-7.26225 -8.99136,-12.79539 -5.53314,-5.53314 -13.14121,-8.64553 -7.26224,-3.11239 -15.90778,-3.11239 -6.22478,0 -11.06628,1.03746 -4.49568,1.03747 -8.64553,3.80404 -4.14986,2.76657 -8.29971,7.60807 -4.14986,4.49567 -9.33718,11.75792 l -36.65706,-10.37464 5.87896,-119.65418 h 133.14121 v 36.65706 H 166.2317 l -2.42075,38.04035 q 12.79539,-3.80403 20.05764,-5.18732 7.26224,-1.38329 15.90778,-1.38329 15.90778,0 29.74063,6.22479 14.17867,6.22478 24.55331,16.94524 10.72047,10.72046 16.59943,24.89914 6.22478,14.17867 6.22478,30.08645 z"
         style="font-style:normal;font-variant:normal;font-weight:normal;font-stretch:normal;line-height:0;font-family:'Roadgeek 2005 Series D';-inkscape-font-specification:'Roadgeek 2005 Series D';fill:#000000;stroke:none;stroke-width:8.64553261"
         id="path39"
         inkscape:connector-curvature="0" />
      <path
         d="m 486.80024,-105.65417 q 0,27.6657 -6.5706,52.91066 -6.57061,25.24496 -18.67435,40.80692 Q 442.18929,14 405.53223,14 380.97892,14 365.07114,3.97119 349.16336,-6.05763 338.78872,-27.49855 q -7.26225,-14.87032 -11.75793,-35.96542 -4.49568,-21.44092 -4.49568,-42.1902 0,-28.70317 6.57061,-53.25649 6.91643,-24.55331 18.67435,-41.15273 10.37464,-13.14121 24.55331,-19.366 14.5245,-6.5706 34.58214,-6.5706 22.13256,0 37.69452,10.02882 15.56196,10.02881 26.62824,31.46974 7.26225,15.56196 11.41211,36.31124 4.14985,20.74927 4.14985,42.53602 z m -36.65706,0 q 0,-19.71182 -3.45821,-36.31124 -3.45821,-16.94525 -10.37464,-28.70317 -5.53314,-8.99135 -12.79539,-13.14121 -6.91643,-4.14986 -17.29107,-4.8415 -13.48703,-0.69164 -22.47838,6.22479 -8.99136,6.91642 -14.87032,22.47838 -4.49568,10.37464 -6.91643,25.24496 -2.07492,14.52449 -2.07492,29.04899 0,18.67435 3.45821,35.96542 3.45821,17.29106 10.37464,28.35734 5.53314,8.99136 13.14121,13.48703 7.60807,4.49568 18.67435,4.49568 12.79539,0 21.0951,-6.91642 8.64553,-6.91643 14.5245,-22.47839 1.7291,-4.49568 3.45821,-10.72046 1.72911,-6.57061 2.76657,-13.48703 1.38329,-7.26225 2.07493,-14.5245 0.69164,-7.26225 0.69164,-14.17867 z"
         style="font-style:normal;font-variant:normal;font-weight:normal;font-stretch:normal;line-height:0;font-family:'Roadgeek 2005 Series D';-inkscape-font-specification:'Roadgeek 2005 Series D';fill:#000000;stroke:none;stroke-width:8.64553261"
         id="path41"
         inkscape:connector-curvature="0" />
    </g>
  </g>
</svg>
