<?xml version="1.0" encoding="UTF-8" standalone="no"?>
<!-- Created with Inkscape (http://www.inkscape.org/) -->

<svg
   xmlns:dc="http://purl.org/dc/elements/1.1/"
   xmlns:cc="http://creativecommons.org/ns#"
   xmlns:rdf="http://www.w3.org/1999/02/22-rdf-syntax-ns#"
   xmlns:svg="http://www.w3.org/2000/svg"
   xmlns="http://www.w3.org/2000/svg"
   version="1.1"
   width="376.00287"
   height="360.99713"
   id="svg8322">
  <defs
     id="defs8324">
    <clipPath
       id="clipPath5227">
      <path
         d="m 218,6600 0,-6600 4665,0 0,6600 -4665,0 z"
         id="path5229" />
    </clipPath>
  </defs>
  <metadata
     id="metadata8327">
    <rdf:RDF>
      <cc:Work
         rdf:about="">
        <dc:format>image/svg+xml</dc:format>
        <dc:type
           rdf:resource="http://purl.org/dc/dcmitype/StillImage" />
        <dc:title></dc:title>
      </cc:Work>
    </rdf:RDF>
  </metadata>
  <g
     transform="translate(-342.13109,-238.50609)"
     id="layer1">
    <path
       d="m 364.57275,263.37054 -5.48541,12.92806 -4.48807,12.92808 -3.9894,13.42531 -2.99204,13.4253 -2.49336,13.92255 -1.49603,13.4253 -0.99735,13.92255 0,13.92253 0.99735,13.92254 1.49603,13.42531 2.49336,13.92254 2.99204,13.4253 3.9894,13.42531 4.98674,12.92808 5.48542,12.92808 5.98408,12.43082 6.98143,11.93362 7.48012,11.9336 8.47745,10.93915 8.47747,10.4419 9.4748,10.4419 9.97348,9.44744 10.97083,8.95021 10.97084,8.45298 11.46949,7.95572 11.96819,6.96128 12.46684,5.9668 12.46686,5.46957 12.96552,4.97234 13.4642,3.97787 11.4695,3.48063 11.4695,-3.48063 13.4642,-3.97787 12.96552,-4.97234 12.96553,-5.46957 11.96817,-5.9668 11.96819,-6.96128 11.46949,-7.95572 11.46951,-8.45298 10.47216,-8.95021 9.97348,-9.44744 9.4748,-10.4419 8.97614,-10.4419 7.97878,-10.93915 7.97878,-11.9336 6.48277,-11.93362 6.48276,-12.43082 5.48541,-12.92808 4.48807,-12.92808 3.9894,-13.42531 3.49072,-13.4253 1.99468,-13.92254 1.99471,-13.42531 0.49867,-13.92254 0,-13.92253 -0.49867,-13.92255 -1.99471,-13.4253 -1.99468,-13.92255 -2.99205,-13.4253 -3.98939,-13.42531 -4.98675,-12.92808 -5.48541,-12.92806 -5.98408,-12.43084 -6.98145,-11.93361 -305.1885,0 -6.48277,11.93361 z"
       id="path5249"
       style="fill:#ffa709;fill-opacity:1;stroke:none" />
    <path
       d="m 384.51971,250.9397 -6.48277,11.9336 -4.98673,11.93361 -4.98675,12.43084 -3.98939,12.43083 -3.49071,12.92808 -2.49337,12.92808 -1.9947,12.92807 -0.99735,13.4253 -0.49867,12.92808 0.49867,13.42531 0.99735,13.4253 1.9947,12.92808 2.99204,12.92807 3.49072,12.92806 3.9894,12.43085 4.98674,12.43084 5.48541,11.9336 6.48276,11.43638 6.98144,11.43637 7.48011,10.93913 8.47745,9.94468 8.47747,9.94467 9.4748,9.44744 9.97349,8.9502 10.47215,7.95575 10.97082,7.95573 10.97083,6.46404 11.96818,6.46403 11.96817,5.96681 12.46686,4.4751 11.96817,4.4751 12.96553,3.48064 12.96553,-3.48064 12.46685,-4.4751 12.46684,-4.4751 11.96818,-5.96681 11.46951,-6.46403 11.4695,-6.46404 10.47215,-7.95573 10.47215,-7.95575 9.97349,-8.9502 9.4748,-9.44744 8.97614,-9.94467 7.97878,-9.94468 7.97879,-10.93913 6.48276,-11.43637 6.48276,-11.43638 5.48541,-11.9336 4.98674,-12.43084 4.48808,-12.43085 3.49071,-12.92806 2.49337,-12.92807 1.9947,-12.92808 0.99735,-13.4253 0.99735,-13.42531 -0.49868,-12.92808 -1.49602,-13.4253 -1.49602,-12.92807 -2.99205,-12.92808 -2.99204,-12.92808 -3.98939,-12.43083 -4.98675,-12.43084 -5.4854,-11.93361 -6.48277,-11.9336 -291.22564,0"
       id="path5245"
       style="fill:#174f90;fill-opacity:1;stroke:none" />
    <g
       id="text9065"
       style="font-size:267.85714722px;font-style:normal;font-variant:normal;font-weight:normal;font-stretch:normal;text-align:center;line-height:100%;letter-spacing:0px;word-spacing:0px;writing-mode:lr-tb;text-anchor:middle;fill:#ffffff;fill-opacity:1;stroke:none;font-family:Roadgeek 2005 Series C;-inkscape-font-specification:Roadgeek 2005 Series C">
      <path
         d="m 511.23606,438.11038 0,43.39285 -25.71429,0 0,-43.39285 -74.46429,0 0,-18.21429 74.46429,-117.85714 25.71429,0 0,111.96428 10.71428,0 0,24.10715 -10.71428,0 m -25.71429,-91.33929 -42.85714,67.23214 42.85714,0 0,-67.23214"
         id="path10100"
         style="fill:#ffa709;fill-opacity:1;font-family:Roadgeek 2005 Series C;-inkscape-font-specification:Roadgeek 2005 Series C" />
      <path
         d="m 649.20761,433.02109 c -1.1e-4,7.32147 -1.25011,14.19646 -3.75,20.625 -2.50011,6.25002 -5.98225,11.69645 -10.44643,16.33929 -4.28581,4.64286 -9.55366,8.30357 -15.80357,10.98214 -6.07151,2.5 -12.67864,3.75 -19.82143,3.75 -7.32149,0 -14.01791,-1.25 -20.08929,-3.75 -5.89289,-2.5 -11.07146,-5.98214 -15.53571,-10.44643 -4.28574,-4.46427 -7.76788,-9.73212 -10.44643,-15.80357 -2.50001,-6.24997 -3.92858,-13.03567 -4.28572,-20.35714 l 25.17858,0 c 0.71424,7.32147 3.30353,13.39289 7.76785,18.21428 4.64281,4.64288 10.44638,6.96431 17.41072,6.96429 7.32136,2e-5 13.30349,-2.49998 17.94643,-7.5 4.82134,-5.17854 7.23205,-11.51782 7.23214,-19.01786 -9e-5,-4.82137 -0.62509,-9.28566 -1.875,-13.39286 -1.25008,-4.28564 -2.94651,-7.94636 -5.08929,-10.98214 -2.14293,-3.21421 -4.64293,-5.71421 -7.5,-7.5 -2.67864,-1.78563 -5.62506,-2.67849 -8.83928,-2.67857 l -12.58929,0 0,-24.64286 10.71429,0 c 3.21422,1.1e-4 5.62493,-0.5356 7.23214,-1.60714 1.78564,-1.07132 3.74993,-2.85703 5.89286,-5.35714 5.17849,-5.71417 7.76777,-12.41059 7.76785,-20.08929 -8e-5,-6.96414 -1.96436,-12.49985 -5.89285,-16.60714 -3.75008,-4.10699 -8.75007,-6.16056 -15,-6.16072 -5.71434,1.6e-4 -10.26791,1.69659 -13.66072,5.08929 -3.21433,3.21443 -5.17861,7.85729 -5.89285,13.92857 l -25.17858,-3.21429 c 0.71427,-5.89271 2.32141,-11.33913 4.82143,-16.33928 2.49998,-5.17841 5.71426,-9.55341 9.64286,-13.125 3.92854,-3.57126 8.4821,-6.33911 13.66071,-8.30357 5.17853,-2.14268 10.71423,-3.21411 16.60715,-3.21429 6.4285,1.8e-4 12.41064,1.1609 17.94643,3.48214 5.53563,2.32161 10.26776,5.62518 14.19642,9.91072 4.10705,4.10731 7.32133,9.01802 9.64286,14.73214 2.32133,5.53586 3.48204,11.518 3.48214,17.94643 -1e-4,7.50013 -1.2501,14.46441 -3.75,20.89286 -2.32152,6.42868 -6.51795,13.1251 -12.58928,20.08928 6.96419,6.25009 12.14275,13.39294 15.53571,21.42858 3.57132,8.03578 5.35704,16.6072 5.35715,25.71428"
         id="path10102"
         style="fill:#ffa709;fill-opacity:1;font-family:Roadgeek 2005 Series C;-inkscape-font-specification:Roadgeek 2005 Series C" />
    </g>
  </g>
</svg>
