<?xml version="1.0" encoding="UTF-8" standalone="no"?>
<!-- Created with Inkscape (http://www.inkscape.org/) -->

<svg
   xmlns:dc="http://purl.org/dc/elements/1.1/"
   xmlns:cc="http://creativecommons.org/ns#"
   xmlns:rdf="http://www.w3.org/1999/02/22-rdf-syntax-ns#"
   xmlns:svg="http://www.w3.org/2000/svg"
   xmlns="http://www.w3.org/2000/svg"
   xmlns:sodipodi="http://sodipodi.sourceforge.net/DTD/sodipodi-0.dtd"
   xmlns:inkscape="http://www.inkscape.org/namespaces/inkscape"
   width="606mm"
   height="606mm"
   viewBox="0 0 606 606"
   version="1.1"
   id="svg824"
   inkscape:version="0.92.4 (5da689c313, 2019-01-14)"
   sodipodi:docname="88.svg">
  <defs
     id="defs818" />
  <sodipodi:namedview
     id="base"
     pagecolor="#ffffff"
     bordercolor="#666666"
     borderopacity="1.0"
     inkscape:pageopacity="0.0"
     inkscape:pageshadow="2"
     inkscape:zoom="0.24476774"
     inkscape:cx="1731.6766"
     inkscape:cy="911.31281"
     inkscape:document-units="mm"
     inkscape:current-layer="layer1"
     showgrid="false"
     inkscape:window-width="1920"
     inkscape:window-height="1057"
     inkscape:window-x="-8"
     inkscape:window-y="-8"
     inkscape:window-maximized="1"
     inkscape:snap-global="false"
     showborder="true"
     inkscape:pagecheckerboard="false"
     inkscape:showpageshadow="true"
     borderlayer="false" />
  <metadata
     id="metadata821">
    <rdf:RDF>
      <cc:Work
         rdf:about="">
        <dc:format>image/svg+xml</dc:format>
        <dc:type
           rdf:resource="http://purl.org/dc/dcmitype/StillImage" />
        <dc:title></dc:title>
      </cc:Work>
    </rdf:RDF>
  </metadata>
  <g
     inkscape:label="Layer 1"
     inkscape:groupmode="layer"
     id="layer1"
     transform="translate(0,309)">
    <path
       style="fill:#000000;fill-opacity:1;stroke:none;stroke-width:0.60400009"
       d="M 605.00011,119.092 428.09211,295.99969 177.90762,296 1,119.092 1.0001818,-131.09244 177.908,-308.00014 l 250.184,1.1e-4 176.90817,176.90754 z"
       id="path3831"
       inkscape:connector-curvature="0"
       sodipodi:nodetypes="ccccccccc" />
    <path
       sodipodi:nodetypes="ccccccccc"
       inkscape:connector-curvature="0"
       id="path2111"
       d="M 3.0002151,118.26402 3.0000988,-130.26448 178.736,-305.9999 l 248.52815,-2.2e-4 175.73576,175.73606 10e-6,248.52807 L 427.2642,293.99995 H 178.73601 Z"
       style="fill:#ffffff;fill-opacity:1;stroke:none;stroke-width:0.5999999" />
    <path
       style="fill:#be121e;fill-opacity:1;stroke:none;stroke-width:0.56800014"
       d="m 420.6361,-290.00021 166.36374,166.3641 2e-4,235.27196 L 420.6361,278 185.36394,277.99974 19.00038,111.63585 19,-123.63611 185.36348,-290.00026 Z"
       id="path2113"
       inkscape:connector-curvature="0"
       sodipodi:nodetypes="ccccccccc" />
    <g
       aria-label="STOP"
       style="font-style:normal;font-variant:normal;font-weight:normal;font-stretch:normal;font-size:441.82620239px;line-height:1.25;font-family:'DIN 1451 Engschrift';-inkscape-font-specification:'DIN 1451 Engschrift';letter-spacing:0px;word-spacing:0px;fill:#00ffff;fill-opacity:1;stroke:none;stroke-width:11.04565525"
       id="text2146"
       transform="translate(-10.690784,474.67068)" />
    <text
       xml:space="preserve"
       style="font-style:normal;font-variant:normal;font-weight:normal;font-stretch:normal;font-size:414.57489014px;line-height:1.25;font-family:'Old Road Signs Font';-inkscape-font-specification:'Old Road Signs Font';letter-spacing:0px;word-spacing:0px;fill:#000000;fill-opacity:1;stroke:none;stroke-width:10.36437225"
       x="120.6279"
       y="474.04071"
       id="text834"><tspan
         sodipodi:role="line"
         id="tspan832"
         x="120.6279"
         y="847.47089"
         style="font-style:normal;font-variant:normal;font-weight:normal;font-stretch:normal;font-family:'Old Road Signs Font';-inkscape-font-specification:'Old Road Signs Font';stroke-width:10.36437225" /></text>
    <g
       aria-label="STOP"
       style="font-style:normal;font-variant:normal;font-weight:normal;font-stretch:normal;font-size:441.82620239px;line-height:0;font-family:'DIN 1451 Engschrift';-inkscape-font-specification:'DIN 1451 Engschrift';letter-spacing:-0.0079375px;word-spacing:0px;fill:#ffcc00;fill-opacity:1;stroke:none;stroke-width:11.04565525"
       id="text901"
       transform="translate(10.83904,868.82643)" />
    <g
       aria-label="STOP"
       style="font-style:normal;font-variant:normal;font-weight:normal;font-stretch:normal;font-size:201.72911072px;line-height:0;font-family:'Roadgeek 2005 Series C';-inkscape-font-specification:'Roadgeek 2005 Series C';letter-spacing:4.41324997px;word-spacing:0px;fill:#000000;fill-opacity:1;stroke:none;stroke-width:5.04322767"
       id="text837" />
    <g
       aria-label="STOP"
       style="font-style:normal;font-variant:normal;font-weight:normal;font-stretch:normal;font-size:288.18444824px;line-height:0;font-family:'Roadgeek 2005 Series C';-inkscape-font-specification:'Roadgeek 2005 Series C';letter-spacing:6.40027094px;word-spacing:0px;fill:#000000;fill-opacity:1;stroke:none;stroke-width:7.20461082"
       id="text852">
      <path
         d="m 147.78098,37.804033 q 0,11.815562 -4.32276,22.190202 -4.03459,10.086456 -11.52738,17.579252 -7.20461,7.492795 -17.00288,12.103747 Q 105.41787,94 94.178676,94 81.49856,94 71.412105,89.100865 61.325649,84.201729 54.409222,75.84438 47.492796,67.487031 43.746398,56.536022 40,45.585013 40,33.769451 h 27.089338 q 0,6.051873 1.440922,12.103746 1.729107,5.763689 4.899136,10.662825 3.458213,4.610951 8.357349,7.492796 5.18732,2.881844 12.391931,2.881844 5.475505,0 10.374644,-2.305475 5.18732,-2.305476 8.64553,-6.340058 3.7464,-4.034583 5.76369,-9.221903 2.30547,-5.475504 2.30547,-11.239193 0,-8.357349 -3.45821,-14.697407 Q 114.35159,16.478384 105.70605,9.850141 104.26513,8.409219 104.55332,8.409219 104.8415,8.121035 102.82421,6.680112 100.80692,5.2391902 94.178676,1.2046079 87.838618,-3.1181588 73.141211,-13.204615 61.325649,-21.273779 55.273776,-31.936604 q -5.763689,-10.951009 -5.763689,-23.919309 0,-10.37464 3.746397,-19.308358 3.746398,-9.221902 10.374641,-16.138329 6.916426,-6.916427 15.850144,-10.66282 Q 88.414987,-106 98.789627,-106 q 10.374643,0 19.020173,3.74639 8.93372,3.746399 15.27378,10.374641 6.62824,6.628242 10.37464,15.850145 4.03458,9.221902 4.32276,20.172911 h -26.51297 q -0.57636,-10.086456 -6.91642,-16.138329 -6.34006,-6.051873 -15.561963,-6.051873 -9.510087,0 -16.138329,6.340057 -6.628242,6.340058 -6.628242,15.850145 0,7.204611 3.746398,12.103747 3.746398,4.899136 14.409222,10.951009 27.953894,16.138329 40.634004,32.8530271 12.9683,16.7146979 12.9683,37.7521629 z"
         style="font-style:normal;font-variant:normal;font-weight:normal;font-stretch:normal;line-height:0;font-family:'Roadgeek 2005 Series C';-inkscape-font-specification:'Roadgeek 2005 Series C';letter-spacing:6.40027094px;fill:#ffffff;stroke:none;stroke-width:7.20461082"
         id="path854"
         inkscape:connector-curvature="0" />
      <path
         d="M 234.62073,-76.893378 V 90.541787 H 206.66684 V -76.893378 h -35.1585 v -25.648412 h 98.27089 v 25.648412 z"
         style="font-style:normal;font-variant:normal;font-weight:normal;font-stretch:normal;line-height:0;font-family:'Roadgeek 2005 Series C';-inkscape-font-specification:'Roadgeek 2005 Series C';letter-spacing:6.40027094px;fill:#ffffff;stroke:none;stroke-width:7.20461082"
         id="path856"
         inkscape:connector-curvature="0" />
      <path
         d="m 412.45022,-6.2881878 q 0,22.1902028 -2.59366,37.7521628 -2.30547,15.56196 -8.35735,29.394814 Q 394.2946,78.149856 383.34359,86.21902 372.68077,94 356.25425,94 q -17.29106,0 -28.24207,-7.78098 -10.66283,-8.069164 -17.86744,-25.360231 -6.05187,-14.121038 -8.64553,-29.394814 -2.30548,-15.56196 -2.30548,-37.7521628 0,-21.9020182 2.30548,-37.4639782 2.59366,-15.850145 8.64553,-29.682998 7.4928,-17.291067 18.15562,-24.783863 Q 339.25137,-106 356.25425,-106 q 16.7147,0 27.37753,7.780973 10.66282,7.492796 17.86743,25.360232 2.88185,7.204611 4.89914,14.409222 2.30547,7.204611 3.45821,15.273776 1.44092,7.78098 2.01729,17.002882 0.57637,8.933718 0.57637,19.8847272 z m -26.51297,0 q 0,-8.0691642 -0.57637,-14.6974072 -0.28818,-6.628242 -1.15273,-12.103746 -0.57637,-5.763689 -1.72911,-10.951009 -1.15274,-5.187321 -2.59366,-10.374641 -3.7464,-12.9683 -9.51009,-18.731989 -5.4755,-5.763689 -14.12104,-5.763689 -17.86743,0 -24.49567,23.919309 -3.45822,10.95101 -4.89914,22.190203 -1.15274,10.951009 -1.15274,27.0893381 0,7.7809801 0.28819,14.4092229 0.57637,6.340057 1.15274,12.103746 0.86455,5.475505 2.01729,10.951009 1.15273,5.475505 2.59366,11.239194 6.62824,23.919309 24.49567,23.919309 8.64554,0 14.12104,-5.763689 5.76369,-5.763689 9.51009,-18.15562 1.72911,-5.763689 2.88184,-10.951009 1.15274,-5.475505 1.72911,-11.239194 0.86455,-5.763689 1.15274,-12.103746 0.28818,-6.6282428 0.28818,-14.9855918 z"
         style="font-style:normal;font-variant:normal;font-weight:normal;font-stretch:normal;line-height:0;font-family:'Roadgeek 2005 Series C';-inkscape-font-specification:'Roadgeek 2005 Series C';letter-spacing:6.40027094px;fill:#ffffff;stroke:none;stroke-width:7.20461082"
         id="path858"
         inkscape:connector-curvature="0" />
      <path
         d="m 565.99968,-48.363117 q 0,26.512969 -13.25649,40.3458226 Q 539.77489,5.815559 515.27921,5.815559 H 485.30803 V 90.541787 H 457.64232 V -102.54179 h 57.63689 q 11.2392,0 20.4611,4.034579 9.51009,3.746398 16.13833,10.951009 6.91643,6.916427 10.37464,17.002882 3.7464,10.086456 3.7464,22.190203 z m -27.08934,0 q 0,-12.103747 -6.91643,-19.596543 -6.91642,-7.492795 -18.15562,-7.492795 h -28.53026 v 54.755045 h 28.53026 q 12.10375,0 18.44381,-7.204611 6.62824,-7.204612 6.62824,-20.461096 z"
         style="font-style:normal;font-variant:normal;font-weight:normal;font-stretch:normal;line-height:0;font-family:'Roadgeek 2005 Series C';-inkscape-font-specification:'Roadgeek 2005 Series C';letter-spacing:6.40027094px;fill:#ffffff;stroke:none;stroke-width:7.20461082"
         id="path860"
         inkscape:connector-curvature="0" />
    </g>
  </g>
</svg>
