<?xml version="1.0" encoding="UTF-8" standalone="no"?>
<svg
   xmlns:dc="http://purl.org/dc/elements/1.1/"
   xmlns:cc="http://creativecommons.org/ns#"
   xmlns:rdf="http://www.w3.org/1999/02/22-rdf-syntax-ns#"
   xmlns:svg="http://www.w3.org/2000/svg"
   xmlns="http://www.w3.org/2000/svg"
   viewBox="0 0 751 751"
   x="0px"
   y="0px"
   version="1.1"
   width="751px"
   height="751px"
   xml:space="preserve"
   style="enable-background:new 0 0 751 751"
   id="svg843"><defs
   id="defs16" /><metadata
   id="metadata958"><rdf:RDF><cc:Work
       rdf:about=""><dc:format>image/svg+xml</dc:format><dc:type
         rdf:resource="http://purl.org/dc/dcmitype/StillImage" /><dc:title /></cc:Work></rdf:RDF></metadata>
<style
   type="text/css"
   id="style944">
	.st0{fill:#FFFFFF;stroke:#000000;}
	.st1{fill:none;stroke:#000000;stroke-width:20;}
	.st2{font-family:'Roadgeek2005SeriesEM';}
	.st3{font-size:334.821px;}
</style>
<path
   class="st0"
   d="m375.5 750.5c0-34.5-28-62.5-62.5-62.5h-156.2c-86.3 0-156.3-70-156.3-156.2v-531.3h750v531.3c0 86.3-70 156.2-156.2 156.2h-156.3c-34.5 0-62.5 28-62.5 62.5z"
   id="path833" />
<path
   class="st1"
   d="m375.5 696.6c-15.1-17.5-37.5-28.6-62.5-28.6h-156.5c-38.9 0.9-70.6-13.9-96.2-39.9-26-25.5-40.8-57.4-39.9-96.3v-511.3h710v511.5c0.9 38.9-13.9 70.5-39.9 96.2-25.6 26-57.4 40.8-96.3 39.9h-156.2c-25-0.1-47.4 11-62.5 28.5z"
   id="path835" />
<path
   class="st1"
   d="m730.5 240.5"
   id="line837_2_" />
<path
   class="st1"
   d="m20.5 240.5"
   id="line837_1_" />
<path
   d="m359 185.8c0 8.2-1.9 15.8-6 22.7-3.9 6.9-9.3 12.3-16.2 16.2-7.1 3.9-14.4 5.8-22.2 5.8h-76.4v-150h69.8c3.3 0 6.2 0.1 8.6 0.3 2.2 0.2 4.4 0.5 6.3 0.9s3.9 1 5.6 1.8 3.6 1.7 5.6 2.9c6.3 3.5 11.2 8.4 14.8 14.9 3.8 6.4 5.7 13.3 5.7 20.7 0 11.4-4.1 21.1-12 28.9 10.8 9.3 16.4 20.8 16.4 34.9zm-34.2-63.9c0-7.6-4.5-11.4-13.6-11.4h-43.5v25.8h40.8c4.8 0 8.7-1.3 11.7-4.2 3.1-2.9 4.6-6.3 4.6-10.2zm4.6 63.9c0-3.8-0.9-7.3-2.6-10.5-1.7-3.3-4.2-5.7-7.5-7.3-1.7-0.8-3.3-1.2-5.1-1.5-1.7-0.3-3.8-0.5-6.5-0.5h-40.3v34.5h44.7c5.4 0 9.8-1.3 12.8-4 3-2.6 4.5-6.2 4.5-10.7zm183.4 44.7h-31.5l-20.6-56.2h-39.3v56.2h-29.4v-150h67.7c3 0 5.8 0.1 8.4 0.3 2.4 0.2 4.6 0.6 6.9 1 2.1 0.5 4.2 1 6.1 2 2 0.8 4.1 1.8 6.2 3 7.3 4.2 13.1 9.8 17.2 17s6.3 15 6.3 23.5c0 8.1-1.9 15.6-5.7 22.7s-9 12.7-15.9 17.2l23.6 63.3zm-31.6-103.2c0-4.8-1.8-8.8-5.4-12s-8.1-4.8-13.6-4.8h-40.8v33.9h40.8c5.6 0 10.1-1.5 13.6-4.6 3.6-3.2 5.4-7.4 5.4-12.5z"
   id="path841" />
<g
   aria-label="151"
   id="routenum"><path
     d="m184.26 556v-152.68h-22.098v-45.536q6.0268-3.0134 9.7098-5.3571 3.683-2.6786 6.0268-5.692 2.6786-3.0134 4.6875-6.6964t4.6875-9.0402h42.522v225z"
     id="path14" /><path
     d="m466.53 481.33q0 16.406-7.7009 32.812-7.7009 16.071-20.759 26.786-10.045 9.0402-26.116 14.062-16.071 5.0223-35.156 5.0223-50.558 0-92.076-23.772l24.442-38.504q17.076 9.7098 32.812 13.728 15.737 3.683 34.821 3.683 45.536 0 45.536-34.821 0-33.817-46.205-33.817-4.6875 0-9.0402 0.33482t-9.0402 1.3393-10.379 2.6786q-5.3571 1.6741-12.723 4.3527l-45.536-18.08 9.375-106.14h147.99v44.866l-103.12 0.66965-4.0179 29.129q9.0402-1.6741 18.08-2.6786 9.375-1.3393 19.085-1.3393 16.071 0 28.125 3.0134 12.054 2.6786 22.098 8.0357 18.415 10.714 28.795 29.129 10.714 18.08 10.714 39.509z"
     id="path16" /><path
     d="m540.01 556v-152.68h-22.098v-45.536q6.0268-3.0134 9.7098-5.3571 3.683-2.6786 6.0268-5.692 2.6786-3.0134 4.6875-6.6964t4.6875-9.0402h42.522v225z"
     id="path18" /></g>
</svg>