<?xml version="1.0" encoding="UTF-8" standalone="no"?>
<!-- Generator: Adobe Illustrator 15.0.2, SVG Export Plug-In . SVG Version: 6.00 Build 0)  -->

<svg
   xmlns:dc="http://purl.org/dc/elements/1.1/"
   xmlns:cc="http://creativecommons.org/ns#"
   xmlns:rdf="http://www.w3.org/1999/02/22-rdf-syntax-ns#"
   xmlns:svg="http://www.w3.org/2000/svg"
   xmlns="http://www.w3.org/2000/svg"
   xmlns:sodipodi="http://sodipodi.sourceforge.net/DTD/sodipodi-0.dtd"
   xmlns:inkscape="http://www.inkscape.org/namespaces/inkscape"
   version="1.0"
   id="Layer_1"
   x="0px"
   y="0px"
   width="50.909653"
   height="50.909859"
   viewBox="0 0 50.909653 50.909858"
   enable-background="new 0 0 50.702 50.77"
   xml:space="preserve"
   inkscape:version="0.48.4 r9939"
   sodipodi:docname="Ajax.svg"><metadata
   id="metadata49"><rdf:RDF><cc:Work
       rdf:about=""><dc:format>image/svg+xml</dc:format><dc:type
         rdf:resource="http://purl.org/dc/dcmitype/StillImage" /></cc:Work></rdf:RDF></metadata><defs
   id="defs47" /><sodipodi:namedview
   pagecolor="#ffffff"
   bordercolor="#666666"
   borderopacity="1"
   objecttolerance="10"
   gridtolerance="10"
   guidetolerance="10"
   inkscape:pageopacity="0"
   inkscape:pageshadow="2"
   inkscape:window-width="1280"
   inkscape:window-height="1001"
   id="namedview45"
   showgrid="false"
   fit-margin-top="0.1"
   fit-margin-bottom="0.1"
   fit-margin-right="0.1"
   fit-margin-left="0.1"
   inkscape:zoom="11.313709"
   inkscape:cx="20.20076"
   inkscape:cy="21.116649"
   inkscape:window-x="-8"
   inkscape:window-y="-8"
   inkscape:window-maximized="1"
   inkscape:current-layer="Layer_1" />
<path
   clip-rule="evenodd"
   d="M 1.1175071,22.73343 22.873507,1.1024296 c 1.432,-1.424 3.869,-1.318 5.413,0.236 l 21.3,21.4230004 c 1.547,1.554 1.639,3.99 0.205,5.415 l -21.756,21.631 c -1.432,1.424 -3.869,1.318 -5.414,-0.236 L 1.3215071,28.14843 c -1.54499997,-1.554 -1.63699997,-3.991 -0.204,-5.415"
   id="path3"
   style="fill:#ffd700;fill-opacity:1;fill-rule:evenodd;stroke:none"
   inkscape:connector-curvature="0" />
<path
   clip-rule="evenodd"
   d="M 2.5205071,23.65843 23.790507,2.5124296 c 0.927,-0.921 2.503,-0.853 3.504,0.153 l 20.961,21.0820004 c 1,1.007 1.06,2.583 0.131,3.506 l -21.268,21.145 c -0.927,0.921 -2.504,0.854 -3.504,-0.153 L 2.6535071,27.16343 c -1,-1.006 -1.06,-2.583 -0.133,-3.505"
   id="path5"
   style="fill:#ffd700;fill-opacity:1;fill-rule:evenodd;stroke:none"
   inkscape:connector-curvature="0" />
<path
   stroke-miterlimit="2.613"
   d="M 2.5205071,23.65843 23.790507,2.5124296 c 0.927,-0.921 2.503,-0.853 3.504,0.153 l 20.961,21.0820004 c 1,1.007 1.06,2.583 0.131,3.506 l -21.268,21.145 c -0.927,0.921 -2.504,0.854 -3.504,-0.153 L 2.6535071,27.16343 c -1,-1.006 -1.06,-2.583 -0.133,-3.505 z"
   id="path7"
   inkscape:connector-curvature="0"
   style="fill:none;stroke:#000000;stroke-width:1.653;stroke-miterlimit:2.61299992" />
<path
   clip-rule="evenodd"
   d="m 23.400507,18.24343 c 0.422,1.62 0.844,3.241 1.267,4.861 -1.489,4.121 -3.038,8.391 -4.527,12.513 -0.832,2.646 1.607,3.186 2.752,1.104 1.285,-3.163 2.609,-6.518 3.893,-9.68 0.187,-0.554 0.412,-0.478 0.514,-0.021 0.715,3.102 1.429,6.203 2.144,9.305 0.356,2.181 3.294,2.606 2.999,-0.551 -1.143,-5.958 -2.285,-12.135 -3.428,-18.093 1.815,1.021 3.699,2.175 5.515,3.195 1.924,0.696 1.996,-0.732 0.946,-1.548 -1.204,-0.796 -2.441,-1.49 -3.646,-2.286 -1.204,-0.878 -2.407,-1.755 -3.61,-2.632 -0.352,-0.28 -0.851,-0.507 -1.497,-0.451 -1.021,0.142 -2.013,0.369 -3.033,0.512 -0.658,0.16 -1.085,0.45 -1.408,0.795 -0.776,0.898 -1.551,1.796 -2.327,2.694 -1.183,0.387 -2.366,0.775 -3.549,1.164 -1.46,0.484 -0.955,2.097 0.428,1.836 1.53,-0.367 3.06,-0.734 4.591,-1.102 0.224,-0.164 0.449,-0.327 0.673,-0.49 0.295,-0.416 0.59,-0.832 0.885,-1.248 0.138,0.043 0.278,0.083 0.418,0.123"
   id="path9"
   inkscape:connector-curvature="0"
   style="fill-rule:evenodd" />
<path
   stroke-miterlimit="2.613"
   d="m 23.400507,18.24343 c 0.422,1.62 0.844,3.241 1.267,4.861 -1.489,4.121 -3.038,8.391 -4.527,12.513 -0.832,2.646 1.607,3.186 2.752,1.104 1.285,-3.163 2.609,-6.518 3.893,-9.68 0.187,-0.554 0.412,-0.478 0.514,-0.021 0.715,3.102 1.429,6.203 2.144,9.305 0.356,2.181 3.294,2.606 2.999,-0.551 -1.143,-5.958 -2.285,-12.135 -3.428,-18.093 1.815,1.021 3.699,2.175 5.515,3.195 1.924,0.696 1.996,-0.732 0.946,-1.548 -1.204,-0.796 -2.441,-1.49 -3.646,-2.286 -1.204,-0.878 -2.407,-1.755 -3.61,-2.632 -0.352,-0.28 -0.851,-0.507 -1.497,-0.451 -1.021,0.142 -2.013,0.369 -3.033,0.512 -0.658,0.16 -1.085,0.45 -1.408,0.795 -0.776,0.898 -1.551,1.796 -2.327,2.694 -1.183,0.387 -2.366,0.775 -3.549,1.164 -1.46,0.484 -0.955,2.097 0.428,1.836 1.53,-0.367 3.06,-0.734 4.591,-1.102 0.224,-0.164 0.449,-0.327 0.673,-0.49 0.295,-0.416 0.59,-0.832 0.885,-1.248 0.138,0.043 0.278,0.083 0.418,0.123 z"
   id="path11"
   inkscape:connector-curvature="0"
   style="fill:none;stroke:#000000;stroke-width:0.15700001;stroke-miterlimit:2.61299992" />
<path
   clip-rule="evenodd"
   d="m 24.846507,9.1264296 c 1.172,0 2.122,0.9500004 2.122,2.1220004 0,1.172 -0.949,2.122 -2.122,2.122 -1.172,0 -2.122,-0.95 -2.122,-2.122 0,-1.172 0.95,-2.1220004 2.122,-2.1220004"
   id="path13"
   inkscape:connector-curvature="0"
   style="fill-rule:evenodd" />
<circle
   stroke-miterlimit="2.613"
   cx="24.743"
   cy="11.208"
   r="2.122"
   id="circle15"
   sodipodi:cx="24.743"
   sodipodi:cy="11.208"
   sodipodi:rx="2.122"
   sodipodi:ry="2.122"
   style="fill:none;stroke:#000000;stroke-width:0.15700001;stroke-miterlimit:2.61299992"
   transform="translate(0.10350713,0.0404296)" />
<polyline
   clip-rule="evenodd"
   points="7.672,29.962 10.439,25.112 12.577,25.112 9.81,31.852 7.672,29.962 "
   id="polyline17"
   style="fill-rule:evenodd"
   transform="translate(0.10350713,0.0404296)" />
<polygon
   stroke-miterlimit="2.613"
   points="12.577,25.112 9.81,31.852 7.672,29.962 10.439,25.112 "
   id="polygon19"
   style="fill:none;stroke:#000000;stroke-width:0.15700001;stroke-miterlimit:2.61299992"
   transform="translate(0.10350713,0.0404296)" />
<polyline
   clip-rule="evenodd"
   points="12.515,34.748 15.723,25.05 18.05,25.238 15.094,37.205 12.515,34.748   "
   id="polyline21"
   style="fill-rule:evenodd"
   transform="translate(0.10350713,0.0404296)" />
<polygon
   stroke-miterlimit="2.613"
   points="18.05,25.238 15.094,37.205 12.515,34.748 15.723,25.05 "
   id="polygon23"
   style="fill:none;stroke:#000000;stroke-width:0.15700001;stroke-miterlimit:2.61299992"
   transform="translate(0.10350713,0.0404296)" />
<path
   clip-rule="evenodd"
   d="m 19.663507,38.19043 -0.063,2.646 h 3.396 l 0.189,-3.527 c -1.097,1.374 -2.272,1.668 -3.522,0.881"
   id="path25"
   inkscape:connector-curvature="0"
   style="fill-rule:evenodd" />
<path
   stroke-miterlimit="2.613"
   d="m 19.663507,38.19043 -0.063,2.646 h 3.396 l 0.189,-3.527 c -1.097,1.374 -2.272,1.668 -3.522,0.881 z"
   id="path27"
   inkscape:connector-curvature="0"
   style="fill:none;stroke:#000000;stroke-width:0.15700001;stroke-miterlimit:2.61299992" />
<polyline
   clip-rule="evenodd"
   points="20.189,33.426 23.145,25.302 21.132,25.238 20.189,33.426 "
   id="polyline29"
   style="fill-rule:evenodd"
   transform="translate(0.10350713,0.0404296)" />
<polygon
   stroke-miterlimit="2.613"
   points="20.189,33.426 23.145,25.302 21.132,25.238 "
   id="polygon31"
   style="fill:none;stroke:#000000;stroke-width:0.15700001;stroke-miterlimit:2.61299992"
   transform="translate(0.10350713,0.0404296)" />
<path
   clip-rule="evenodd"
   d="m 26.959507,28.23843 0.753,12.408 h 3.586 c -0.278,-0.551 -0.5,-1.121 -0.313,-1.827 -1.247,-0.447 -1.877,-1.202 -1.888,-2.267 l -2.138,-8.314"
   id="path33"
   inkscape:connector-curvature="0"
   style="fill-rule:evenodd" />
<path
   stroke-miterlimit="2.613"
   d="m 26.959507,28.23843 0.753,12.408 h 3.586 c -0.278,-0.551 -0.5,-1.121 -0.313,-1.827 -1.247,-0.447 -1.877,-1.202 -1.888,-2.267 l -2.138,-8.314 z"
   id="path35"
   inkscape:connector-curvature="0"
   style="fill:none;stroke:#000000;stroke-width:0.15700001;stroke-miterlimit:2.61299992" />
<polyline
   clip-rule="evenodd"
   points="32.076,25.364 35.41,37.52 37.926,35.316 34.719,25.553 32.076,25.364   "
   id="polyline37"
   style="fill-rule:evenodd"
   transform="translate(0.10350713,0.0404296)" />
<polygon
   stroke-miterlimit="2.613"
   points="37.926,35.316 34.719,25.553 32.076,25.364 35.41,37.52 "
   id="polygon39"
   style="fill:none;stroke:#000000;stroke-width:0.15700001;stroke-miterlimit:2.61299992"
   transform="translate(0.10350713,0.0404296)" />
<polyline
   clip-rule="evenodd"
   points="37.926,25.428 40.945,32.482 42.958,30.718 40.064,25.553 37.926,25.428   "
   id="polyline41"
   style="fill-rule:evenodd"
   transform="translate(0.10350713,0.0404296)" />
<polygon
   stroke-miterlimit="2.613"
   points="42.958,30.718 40.064,25.553 37.926,25.428 40.945,32.482 "
   id="polygon43"
   style="fill:none;stroke:#000000;stroke-width:0.15700001;stroke-miterlimit:2.61299992"
   transform="translate(0.10350713,0.0404296)" />
</svg>