<?xml version="1.0" encoding="UTF-8" standalone="no"?>
<svg
   xmlns:dc="http://purl.org/dc/elements/1.1/"
   xmlns:cc="http://creativecommons.org/ns#"
   xmlns:rdf="http://www.w3.org/1999/02/22-rdf-syntax-ns#"
   xmlns:svg="http://www.w3.org/2000/svg"
   xmlns="http://www.w3.org/2000/svg"
   xmlns:sodipodi="http://sodipodi.sourceforge.net/DTD/sodipodi-0.dtd"
   xmlns:inkscape="http://www.inkscape.org/namespaces/inkscape"
   version="1.0"
   width="300"
   height="300"
   id="svg4437"
   inkscape:version="0.48.2 r9819"
   sodipodi:docname="A3.svg">
  <metadata
     id="metadata4445">
    <rdf:RDF>
      <cc:Work
         rdf:about="">
        <dc:format>image/svg+xml</dc:format>
        <dc:type
           rdf:resource="http://purl.org/dc/dcmitype/StillImage" />
        <dc:title></dc:title>
      </cc:Work>
    </rdf:RDF>
  </metadata>
  <defs
     id="defs4443" />
  <sodipodi:namedview
     pagecolor="#ffffff"
     bordercolor="#666666"
     borderopacity="1"
     objecttolerance="10"
     gridtolerance="10"
     guidetolerance="10"
     inkscape:pageopacity="0"
     inkscape:pageshadow="2"
     inkscape:window-width="1280"
     inkscape:window-height="908"
     id="namedview4441"
     showgrid="false"
     inkscape:zoom="0.78666667"
     inkscape:cx="-1.9067797"
     inkscape:cy="150"
     inkscape:window-x="-8"
     inkscape:window-y="-8"
     inkscape:window-maximized="1"
     inkscape:current-layer="svg4437" />
  <path
     d="M 25,25 150,5 275,25 295,150 275,275 150,295 25,275 5,150 25,25 z"
     id="pathOttagono"
     style="fill:#08842c;stroke:#ffffff;stroke-width:10" />
  <g
     transform="matrix(20.765072,0,0,20.765072,-1383.7763,-2075.8804)"
     style="font-size:11px;font-style:normal;font-variant:normal;font-weight:normal;font-stretch:normal;text-align:start;line-height:125%;letter-spacing:0.74596417px;word-spacing:0px;writing-mode:lr-tb;text-anchor:start;fill:#ffffff;fill-opacity:1;stroke:none;font-family:'Transport Narrow (Alfabeto Stre';-inkscape-font-specification:'Transport Narrow (Alfabeto Stre'"
     id="flowRoot4447">
    <path
       d="m 71.159244,108.00718 0.198731,-1.41797 0.19873,1.41797 z m -0.155761,1.12256 0.703613,0 0.134277,1.12256 1.47168,0 -1.020508,-6.1499 -1.879883,0 -1.036621,6.1499 1.460938,0 z"
       id="path4664"
       inkscape:connector-curvature="0" />
    <path
       d="m 76.008724,107.96421 0.585449,0 0,-1.35351 z m 1.901367,-3.82959 0,3.82959 0.44043,0 0,1.26221 -0.44043,-0.0107 0,1.06885 -1.315918,0 0,-1.05811 -1.960449,0 0,-0.81104 1.783203,-4.28076 z"
       id="path4666"
       inkscape:connector-curvature="0" />
  </g>
</svg>
