<svg width="655" height="573" viewBox="0 0 655 573" fill="none" xmlns="http://www.w3.org/2000/svg">
<path d="M327.499 33L50 538H605L327.499 33Z" fill="#FFC500"/>
<path d="M2.70376 562.564C6.30878 568.808 12.9696 572.655 20.1809 572.655H634.822C642.03 572.655 648.694 568.808 652.296 562.564C655.901 556.32 655.901 548.628 652.296 542.384L344.977 10.0895C341.373 3.84561 334.709 0 327.501 0C320.291 0 313.628 3.84812 310.025 10.0895L2.70376 542.384C-0.901255 548.627 -0.901255 556.32 2.70376 562.564ZM327.501 100.901L564.913 512.114H90.0883L327.501 100.901Z" fill="#CC0000"/>
<path d="M297.632 483.939L292.107 371.324C292.107 371.324 249.528 346.867 239.108 339.319C228.728 331.8 222.694 316.644 224.24 313.973C225.922 311.075 240.507 308.738 252.242 313.918C263.989 319.18 308.736 344.063 308.736 344.063L408.292 293L425.806 303.061L383.952 334.332L360.68 374.489L412.578 409.059L443.945 391.178L452 395.804L432.377 429.659L438.359 435.764L436.835 438.39L428.371 436.575L408.747 470.434L400.449 464.921L400.742 429.479L344.349 402.663L322.185 440.275L315.146 494L297.632 483.939Z" fill="black"/>
</svg>
