<svg width="655" height="573" viewBox="0 0 655 573" fill="none" xmlns="http://www.w3.org/2000/svg">
<g clip-path="url(#clip0_1_2)">
<path d="M327.499 33L50 538H605L327.499 33Z" fill="#FFC500"/>
<path d="M2.70376 562.564C6.30878 568.808 12.9696 572.655 20.1809 572.655H634.822C642.03 572.655 648.694 568.808 652.296 562.564C655.901 556.32 655.901 548.628 652.296 542.384L344.977 10.0895C341.373 3.84561 334.709 0 327.501 0C320.291 0 313.628 3.84812 310.025 10.0895L2.70376 542.384C-0.901254 548.627 -0.901254 556.32 2.70376 562.564ZM327.501 100.901L564.913 512.114H90.0883L327.501 100.901Z" fill="#CC0000"/>
<path d="M350 201.878C350 189.796 339.926 180 327.499 180C315.074 180 305 189.796 305 201.878C305 213.961 327.499 435 327.499 435C327.499 435 350 213.961 350 201.878Z" fill="black"/>
<circle cx="327" cy="469" r="15" fill="black"/>
</g>
<defs>
<clipPath id="clip0_1_2">
<rect width="655" height="573" fill="white"/>
</clipPath>
</defs>
</svg>
