<?xml version="1.0" encoding="UTF-8" standalone="no"?>
<!-- Created with Inkscape (http://www.inkscape.org/) -->

<svg
   xmlns:dc="http://purl.org/dc/elements/1.1/"
   xmlns:cc="http://creativecommons.org/ns#"
   xmlns:rdf="http://www.w3.org/1999/02/22-rdf-syntax-ns#"
   xmlns:svg="http://www.w3.org/2000/svg"
   xmlns="http://www.w3.org/2000/svg"
   xmlns:sodipodi="http://sodipodi.sourceforge.net/DTD/sodipodi-0.dtd"
   xmlns:inkscape="http://www.inkscape.org/namespaces/inkscape"
   width="600mm"
   height="600mm"
   viewBox="0 0 600 600"
   version="1.1"
   id="svg848"
   inkscape:version="0.92.2 (5c3e80d, 2017-08-06)"
   sodipodi:docname="22.svg">
  <defs
     id="defs842" />
  <sodipodi:namedview
     id="base"
     pagecolor="#ffffff"
     bordercolor="#666666"
     borderopacity="1.0"
     inkscape:pageopacity="0.0"
     inkscape:pageshadow="2"
     inkscape:zoom="0.17497515"
     inkscape:cx="1283.8964"
     inkscape:cy="854.54583"
     inkscape:document-units="mm"
     inkscape:current-layer="layer1"
     showgrid="false"
     inkscape:snap-global="false"
     inkscape:window-width="1920"
     inkscape:window-height="1057"
     inkscape:window-x="-8"
     inkscape:window-y="-8"
     inkscape:window-maximized="1"
     fit-margin-top="0"
     fit-margin-left="0"
     fit-margin-right="0"
     fit-margin-bottom="0"
     showguides="false" />
  <metadata
     id="metadata845">
    <rdf:RDF>
      <cc:Work
         rdf:about="">
        <dc:format>image/svg+xml</dc:format>
        <dc:type
           rdf:resource="http://purl.org/dc/dcmitype/StillImage" />
        <dc:title></dc:title>
      </cc:Work>
    </rdf:RDF>
  </metadata>
  <g
     inkscape:label="Layer 1"
     inkscape:groupmode="layer"
     id="layer1"
     transform="translate(0,303)">
    <rect
       style="opacity:1;fill:#0046aa;fill-opacity:1;fill-rule:nonzero;stroke:none;stroke-width:2.54325962;stroke-linecap:butt;stroke-linejoin:miter;stroke-miterlimit:10;stroke-dasharray:none;stroke-opacity:1;paint-order:stroke fill markers"
       id="rect1393"
       width="600"
       height="600"
       x="0"
       y="-303" />
    <rect
       y="-298"
       x="5"
       height="590"
       width="590"
       id="rect1395"
       style="opacity:1;fill:#ffffff;fill-opacity:1;fill-rule:nonzero;stroke:none;stroke-width:2.5008719;stroke-linecap:butt;stroke-linejoin:miter;stroke-miterlimit:10;stroke-dasharray:none;stroke-opacity:1;paint-order:stroke fill markers" />
    <rect
       y="-288"
       x="15"
       height="570"
       width="570"
       id="rect1406"
       style="opacity:1;fill:#0046aa;fill-opacity:1;fill-rule:nonzero;stroke:none;stroke-width:2.41609669;stroke-linecap:butt;stroke-linejoin:miter;stroke-miterlimit:10;stroke-dasharray:none;stroke-opacity:1;paint-order:stroke fill markers" />
    <path
       cx="150"
       cy="147"
       r="150"
       id="path8376"
       style="opacity:1;fill:#d35f5f;fill-opacity:1;fill-rule:nonzero;stroke:none;stroke-width:3.92256045;stroke-linecap:butt;stroke-linejoin:miter;stroke-miterlimit:4;stroke-dasharray:none;stroke-opacity:1;paint-order:stroke fill markers"
       d=""
       inkscape:connector-curvature="0" />
    <path
       style="opacity:1;fill:#ffffff;fill-opacity:1;fill-rule:nonzero;stroke:none;stroke-width:3.5999999;stroke-linecap:butt;stroke-linejoin:miter;stroke-miterlimit:4;stroke-dasharray:none;stroke-opacity:1;paint-order:stroke fill markers"
       d="M 300,-248 570,197 H 30 Z"
       id="rect849"
       inkscape:connector-curvature="0"
       sodipodi:nodetypes="cccc" />
    <path
       style="opacity:1;fill:#000000;fill-opacity:1;fill-rule:nonzero;stroke:none;stroke-width:1.37627316;stroke-linecap:butt;stroke-linejoin:miter;stroke-miterlimit:10;stroke-dasharray:none;stroke-opacity:1;paint-order:stroke fill markers"
       d="M 103.46808,160.98892 93.457,171 h 31.21835 l 5.00588,-10.01108 z m 34.90707,0 L 133.36926,171 h 28.84747 l 3.95215,-10.01108 z m 36.48698,0 L 170.91064,171 h 28.97953 l 3.16118,-10.01108 z m 36.88315,0 L 208.58343,171 h 28.84744 l 2.37157,-10.01108 z m 36.75041,0 L 246.12481,171 h 26.21314 l 1.84403,-10.01108 z m 34.3802,0 L 281.03188,171 h 37.9362 l -1.84406,-10.01108 z m 42.94209,0 L 327.66199,171 h 26.21316 l -2.37091,-10.01108 z m 34.37952,0 L 362.56906,171 h 28.84746 l -3.16187,-10.01108 z m 36.75108,0 L 400.11045,171 h 28.97881 l -3.95146,-10.01108 z m 36.88313,0 L 437.78319,171 h 28.84748 l -5.0052,-10.01108 z m 36.48702,0 L 475.32458,171 h 31.21834 L 496.5319,160.98892 Z"
       id="rect21489"
       inkscape:connector-curvature="0" />
    <circle
       style="opacity:1;fill:#000000;fill-opacity:1;fill-rule:nonzero;stroke:none;stroke-width:0.70608401;stroke-linecap:butt;stroke-linejoin:miter;stroke-miterlimit:10;stroke-dasharray:none;stroke-opacity:1;paint-order:stroke fill markers"
       id="path22907"
       cx="279.84631"
       cy="-137.89246"
       r="21.207537" />
    <path
       style="opacity:1;fill:#000000;fill-opacity:1;fill-rule:nonzero;stroke:none;stroke-width:1.21696162;stroke-linecap:butt;stroke-linejoin:miter;stroke-miterlimit:10;stroke-dasharray:none;stroke-opacity:1;paint-order:stroke fill markers"
       d="m 146.33393,95.39037 -7.82739,10.01108 h 20.02214 l 3.42463,-10.01108 z m 24.3133,0 -3.42461,10.01108 h 21.33932 l 2.63432,-10.01108 z m 29.24296,0 -2.63501,10.01108 h 22.65648 l 2.10814,-10.01108 z m 30.82285,0 -2.10746,10.01108 h 22.65648 l 1.58059,-10.01108 z m 30.82354,0 -1.58058,10.01108 h 21.3393 l 1.05373,-10.01108 z m 29.50638,0 -1.05373,10.01108 h 20.02148 l -1.05372,-10.01108 z m 26.60797,0 1.05371,10.01108 h 21.3393 l -1.58056,-10.01108 z m 29.50636,0 1.5806,10.01108 h 22.65649 l -2.10747,-10.01108 z m 30.82354,0 2.10746,10.01108 h 22.65647 l -2.63501,-10.01108 z m 30.82288,0 2.63498,10.01108 h 21.33865 l -3.42462,-10.01108 z m 29.24293,0 3.42462,10.01108 h 20.02215 l -7.82739,-10.01108 z"
       id="path24395"
       inkscape:connector-curvature="0" />
    <path
       sodipodi:nodetypes="ccccccccccccccccccccccccccccccc"
       inkscape:connector-curvature="0"
       id="path896"
       d="m 269.83523,-59.911964 c -10.39686,17.702857 -22.67405,32.439929 -60.06606,40.175768 -0.85044,1.161119 -1.78341,1.939374 -3.69412,2.463473 -4.07535,0.745177 -8.47827,-2.656173 -8.55621,-8.44374 0.0692,-5.832685 -0.62806,-10.336016 5.0055,-11.670714 5.65835,-1.11398 5.79586,2.107585 5.79586,2.107585 11.74789,-6.909481 18.4685,-7.445734 32.79923,-25.817892 5.26028,-8.08471 7.24739,-13.285589 10.14274,-22.656494 3.86786,-12.806208 13.44228,-20.847392 22.39306,-28.847532 v -8.56204 l 19.75857,-4.21518 4.21516,7.63999 c 22.92586,3.49648 35.12606,16.0382 46.10334,29.242701 13.76386,14.420763 23.41356,43.368671 23.84202,61.251585 4.79099,1.019433 4.99153,3.105592 5.00551,7.244818 -0.21975,6.352329 -13.16912,10.439163 -18.83649,10.274455 -4.34476,-0.283076 -5.56816,-8.88018 -2.50276,-12.645505 1.3134,-24.36973 -7.06477,-35.402457 -20.02205,-45.31299 v 44.259204 c 1.89403,56.882556 32.55864,102.584436 63.88607,135.412132 -4.49684,9.74988 -10.06977,26.90778 -17.65097,27.66201 l -13.69929,1.31723 3.81998,-5.13723 c 2.54068,-4.12237 1.64543,-11.91659 6.19104,-20.02203 -32.7411,-26.58595 -38.04034,-36.812026 -73.7654,-96.553586 -24.80635,58.67225 -29.76994,68.054116 -47.68401,135.412126 l -42.41507,-18.70478 2.37102,-2.63417 28.84753,-1.18581 c 2.14347,-32.13196 13.19062,-78.217596 32.5358,-136.8611 2.30142,-7.655892 4.12637,-43.589737 -3.82,-55.192284 z"
       style="opacity:1;fill:#000000;fill-opacity:1;fill-rule:nonzero;stroke:none;stroke-width:1.31723833;stroke-linecap:butt;stroke-linejoin:miter;stroke-miterlimit:10;stroke-dasharray:none;stroke-opacity:1;paint-order:stroke fill markers" />
  </g>
</svg>
