<?xml version="1.0" encoding="UTF-8" standalone="no"?>
<svg
   xmlns:dc="http://purl.org/dc/elements/1.1/"
   xmlns:cc="http://creativecommons.org/ns#"
   xmlns:rdf="http://www.w3.org/1999/02/22-rdf-syntax-ns#"
   xmlns:svg="http://www.w3.org/2000/svg"
   xmlns="http://www.w3.org/2000/svg"
   id="svg8"
   version="1.1"
   viewBox="0 0 93.93 41.01"
   height="41.01mm"
   width="93.93mm">
  <defs
     id="defs2" />
  <metadata
     id="metadata5">
    <rdf:RDF>
      <cc:Work
         rdf:about="">
        <dc:format>image/svg+xml</dc:format>
        <dc:type
           rdf:resource="http://purl.org/dc/dcmitype/StillImage" />
        <dc:title></dc:title>
      </cc:Work>
    </rdf:RDF>
  </metadata>
  <g
     transform="translate(-45.41,-54.63)"
     id="layer1">
    <rect
       ry="7.938"
       rx="7.938"
       y="55.96"
       x="46.73"
       height="38.36"
       width="91.28"
       id="rect833"
       style="fill:#bf0411;fill-rule:evenodd;stroke:#f2f2f2;stroke-width:2.6458;stroke-dashoffset:34.8992" />
    <g
       style="font-size:35.27779999999999916px;font-family:'Helvetica Condensed';-inkscape-font-specification:'Helvetica Condensed, ';text-align:center;letter-spacing:0px;word-spacing:0px;text-anchor:middle;fill:#f2f2f2;stroke-width:0.8819"
       id="text837"
       aria-label="CG 3">
      <path
         id="path1008"
         d="m 71.62,78.94 c -0.11,1.69 0.21,6.07 -2.51,6.07 -3.38,0 -3.56,-3.56 -3.56,-5.75 v -7.34 c 0,-2.05 -0.32,-6.67 3.56,-6.67 2.44,0 2.26,3.18 2.47,4.87 h 4.87 c 0,-0.67 -0,-1.34 -0.11,-2.01 -0.35,-4.52 -2.82,-6.77 -7.23,-6.84 -7.9,0 -8.43,5.01 -8.64,11.74 v 3.78 c 0,7.05 0.53,12.21 8.64,12.21 5.51,0 7.13,-3.71 7.38,-8.54 0,-0.5 0.1,-1.03 0.1,-1.52 z" />
      <path
         id="path1010"
         d="m 80.11,76.79 c 0,7.05 0.53,12.21 8.64,12.21 1.8,-0.15 3.67,-0.92 4.66,-3.67 h 0.1 v 3.03 h 3.7 V 74.14 h -8.22 v 3.88 h 3.42 c 0.11,3.99 -0.81,6.99 -3.63,6.99 -3.39,0 -3.56,-3.56 -3.56,-5.75 v -7.34 c 0,-2.05 -0.32,-6.67 3.56,-6.67 3.35,0.14 3.53,2.26 3.6,4.94 h 4.94 c -0,-1.06 0,-2.15 -0.25,-3.21 -1.13,-4.58 -4.06,-5.68 -8.29,-5.71 -7.9,0 -8.43,5.01 -8.64,11.74 z" />
      <path
         id="path1012"
         d="m 114.6,76.15 c 1.4,0 3.5,-0 4.4,1.06 0.6,0.64 0.6,1.98 0.6,2.79 0,2.47 0.1,5.01 -2.7,5.01 -3.1,0 -2.6,-3.25 -2.7,-5.43 h -4.7 v 1.55 c 0,2.75 0.5,7.76 7.3,7.76 5.5,0 7.7,-3.14 7.7,-8.33 0.1,-4.05 -1.6,-6.13 -4,-6.42 v -0.1 c 2.6,-0.39 3.5,-3.17 3.5,-5.47 0,-4.19 -2.2,-6.8 -7.2,-6.8 -5,0 -7.2,2.92 -6.9,7.83 h 4.6 v -1.87 c 0,-1.7 1.3,-2.08 2.3,-2.08 1.7,0 2.4,0.95 2.4,2.96 0,1.3 -0.2,2.61 -1.5,3.25 -1,0.42 -2.1,0.31 -3.1,0.38 z" />
    </g>
  </g>
</svg>
