<?xml version="1.0" encoding="UTF-8" standalone="no"?>
<svg
   xmlns:dc="http://purl.org/dc/elements/1.1/"
   xmlns:cc="http://creativecommons.org/ns#"
   xmlns:rdf="http://www.w3.org/1999/02/22-rdf-syntax-ns#"
   xmlns:svg="http://www.w3.org/2000/svg"
   xmlns="http://www.w3.org/2000/svg"
   viewBox="0 0 113.21333 113.17333"
   height="113.17333"
   width="113.21333"
   xml:space="preserve"
   id="svg2"
   version="1.1"><metadata
     id="metadata8"><rdf:RDF><cc:Work
         rdf:about=""><dc:format>image/svg+xml</dc:format><dc:type
           rdf:resource="http://purl.org/dc/dcmitype/StillImage" /></cc:Work></rdf:RDF></metadata><defs
     id="defs6" /><g
     transform="matrix(1.3333333,0,0,-1.3333333,0,113.17333)"
     id="g10"><g
       transform="scale(0.1)"
       id="g12"><path
         id="path14"
         style="fill:#ee2c30;fill-opacity:1;fill-rule:nonzero;stroke:none"
         d="M 545.461,832.359 C 439.184,863.715 333.457,854.176 234.453,804.316 135.527,754.527 64.8594,675.289 26.6992,571.25 -11.5,467.211 -8.86719,361.086 34.4063,259.059 77.6367,157.105 152.125,81.3945 253.391,36.5078 c 235.8,-104.4375 509.511,23.543 580.5,271.4372 64.257,224.356 -64.512,458.567 -288.43,524.414 v 0" /><path
         id="path16"
         style="fill:#ffffff;fill-opacity:1;fill-rule:nonzero;stroke:none"
         d="M 505.07,696.207 C 434.254,717.086 363.766,710.715 297.813,677.523 231.863,644.297 184.777,591.484 159.32,522.148 c -25.414,-69.3 -23.683,-140.043 5.114,-208.082 28.871,-67.968 78.515,-118.402 145.98,-148.285 157.18,-69.6599 339.59,15.699 386.891,180.864 42.843,149.582 -43.016,305.64 -192.235,349.562 v 0" /><path
         id="path18"
         style="fill:#ffffff;fill-opacity:1;fill-rule:nonzero;stroke:none"
         d="m 154.141,580.18 20.55,31.894 -10.613,6.844 -14.004,-21.711 -72.7263,46.871 -6.586,-10.187 83.3793,-53.711" /><path
         id="path20"
         style="fill:#ffffff;fill-opacity:1;fill-rule:nonzero;stroke:none"
         d="m 177.648,615.098 7.27,9.179 -57.094,45.289 -7.273,-9.14 57.097,-45.328" /><path
         id="path22"
         style="fill:#ffffff;fill-opacity:1;fill-rule:nonzero;stroke:none"
         d="m 108.852,669.242 7.703,9.723 -12.344,9.789 -7.7071,-9.723 12.3481,-9.789" /><path
         id="path24"
         style="fill:#ffffff;fill-opacity:1;fill-rule:nonzero;stroke:none"
         d="m 190.031,633.457 8.782,7.738 -29.516,33.45 v 0 c -3.563,4.031 -5.652,7.738 -6.336,11.121 -0.719,3.351 0.285,6.121 2.734,8.281 4.067,3.566 9.071,1.945 15.012,-4.75 v 0 l 31.789,-36 8.785,7.738 -29.523,33.442 v 0 c -3.563,4.07 -5.613,7.781 -6.332,11.125 -0.723,3.347 0.32,6.121 2.734,8.281 4.067,3.597 9.106,1.98 15.047,-4.75 v 0 l 31.754,-36.004 8.785,7.738 -31.574,35.789 v 0 c -5.652,6.407 -11.016,10.438 -15.91,11.953 -5.039,1.403 -9.684,0.395 -13.934,-3.351 -2.773,-2.445 -4.285,-5.367 -4.535,-8.602 -0.219,-3.386 0.25,-6.59 1.113,-9.797 -1.367,0.653 -2.808,1.301 -4.32,1.836 -1.477,0.438 -3.059,0.723 -4.68,0.832 -1.511,0 -3.058,-0.254 -4.64,-0.683 -1.59,-0.438 -3.098,-1.406 -4.539,-2.668 -2.7,-2.41 -4.141,-5.219 -4.395,-8.457 -0.215,-3.383 0.254,-6.766 1.66,-10.297 v 0 l -0.144,-0.141 v 0 c -0.289,0.321 -0.864,0.973 -1.621,1.836 -0.719,0.684 -1.477,1.508 -2.231,2.371 -0.867,0.793 -1.582,1.621 -2.266,2.379 -0.722,0.649 -1.3,1.293 -1.589,1.621 v 0 l -8.711,-7.672 v 0 c 1.441,-1.398 2.957,-2.949 4.539,-4.57 1.582,-1.621 3.168,-3.457 4.965,-5.473 v 0 l 39.097,-44.316 v 0" /><path
         id="path26"
         style="fill:#ffffff;fill-opacity:1;fill-rule:nonzero;stroke:none"
         d="m 252.961,684.508 9.934,6.222 -38.555,61.852 -9.934,-6.191 38.555,-61.883" /><path
         id="path28"
         style="fill:#ffffff;fill-opacity:1;fill-rule:nonzero;stroke:none"
         d="m 206.379,758.668 10.508,6.512 -8.352,13.394 -10.512,-6.554 8.356,-13.352" /><path
         id="path30"
         style="fill:#ffffff;fill-opacity:1;fill-rule:nonzero;stroke:none"
         d="m 295.762,709.633 -5.114,9.863 v 0 c -0.5,-0.758 -1.003,-1.508 -1.652,-2.156 -0.613,-0.793 -1.476,-1.367 -2.594,-1.945 -1.871,-0.969 -3.566,-0.903 -5.179,0.035 -1.621,0.898 -3.278,3.093 -5.114,6.625 v 0 l -18.507,35.855 10.441,5.399 -5.254,10.121 -10.406,-5.403 -8.891,17.172 -8.355,-9.254 6.84,-13.285 -8.207,-4.246 5.218,-10.113 8.211,4.25 19.906,-38.524 v 0 c 3.208,-6.191 6.551,-10.043 10.192,-11.375 3.672,-1.476 7.488,-1.047 11.699,1.153 1.512,0.789 2.914,1.656 4.031,2.734 1.078,1.117 2.051,2.121 2.735,3.094 v 0" /><path
         id="path32"
         style="fill:#ffffff;fill-opacity:1;fill-rule:nonzero;stroke:none"
         d="m 333.344,722.813 9.976,3.558 v 0 c -0.543,1.152 -1.367,2.813 -2.195,4.789 -0.793,1.985 -1.695,4.07 -2.52,6.34 v 0 l -11.742,32.758 v 0 c -1.613,4.609 -3.273,8.211 -5.07,10.91 -1.805,2.66 -3.82,4.641 -5.902,6.156 -1.805,1.367 -4.289,2.266 -7.344,2.809 -3.027,0.43 -6.594,-0.074 -10.695,-1.547 -3.493,-1.227 -6.411,-2.883 -8.641,-4.898 -2.266,-2.016 -4.285,-4.11 -5.797,-6.301 v 0 l 5.113,-11.629 v 0 c 0.754,2.269 2.196,4.574 4.356,6.984 2.055,2.27 4.535,3.922 7.629,5.039 3.926,1.403 7.168,1.047 9.832,-1.043 1.332,-1.008 2.484,-2.265 3.383,-3.746 0.937,-1.621 1.726,-3.488 2.484,-5.613 v 0 l 1.008,-2.809 -3.922,-1.406 v 0 c -8.824,-3.164 -14.942,-7.449 -18.219,-12.703 -3.203,-5.367 -3.418,-12.098 -0.535,-20.125 1.145,-3.242 2.586,-5.867 4.355,-8.141 1.727,-2.23 3.598,-3.812 5.723,-5.004 1.977,-1.257 4.141,-1.836 6.336,-1.976 2.191,-0.215 4.391,0.105 6.586,0.898 4.035,1.442 6.844,3.606 8.531,6.66 1.621,2.809 2.664,5.903 3.098,9.075 v 0 l 0.18,0.07 v 0 c 0.144,-0.395 0.394,-1.078 0.828,-1.941 0.324,-0.973 0.683,-1.911 1.152,-2.774 0.43,-0.898 0.754,-1.871 1.148,-2.594 0.434,-0.933 0.649,-1.472 0.864,-1.796 v 0" /><path
         id="path34"
         style="fill:#ffffff;fill-opacity:1;fill-rule:nonzero;stroke:none"
         d="m 467.445,766.117 32.618,-5.254 0.792,4.895 v 0 c 1.008,6.336 1.333,11.738 1.118,16.523 -0.289,4.789 -1.118,8.821 -2.52,12.059 -1.441,3.277 -3.387,5.762 -5.726,7.562 -2.446,1.836 -5.254,3.024 -8.317,3.528 -3.597,0.578 -6.949,0.254 -10.043,-1.114 -3.168,-1.371 -6.051,-3.636 -8.457,-6.593 -2.453,-3.02 -4.648,-6.727 -6.371,-11.157 -1.769,-4.461 -3.137,-9.468 -4.035,-14.941 -0.828,-5.184 -1.078,-10.184 -0.789,-14.828 0.246,-4.649 1.113,-8.676 2.66,-12.242 1.473,-3.563 3.637,-6.481 6.445,-8.825 2.84,-2.41 6.336,-3.843 10.473,-4.535 3.566,-0.574 6.84,-0.683 9.797,-0.175 2.914,0.539 5.324,1.152 7.344,1.835 v 0 l 1.437,12.313 v 0 c -1.652,-1.047 -3.777,-1.98 -6.156,-2.918 -2.555,-0.863 -5.434,-1.117 -8.785,-0.574 -5.325,0.863 -8.856,3.273 -10.547,7.449 -1.762,4.035 -2.09,9.684 -0.938,16.992 v 0" /><path
         id="path36"
         style="fill:#ffffff;fill-opacity:1;fill-rule:nonzero;stroke:none"
         d="m 502.223,727.094 11.121,-3.637 13.394,41.078 v 0 c 1.762,5.403 4.035,9.43 6.875,11.949 2.739,2.559 5.797,3.207 9.328,2.055 2.914,-0.973 4.536,-2.809 5.145,-5.726 0.469,-2.84 -0.18,-6.985 -1.941,-12.383 v 0 l -14.04,-43.09 11.157,-3.641 15.121,46.336 v 0 c 2.375,7.309 2.949,13.535 1.797,18.688 -1.145,5.144 -4.496,8.668 -10.078,10.504 -3.239,1.046 -6.297,0.972 -9.434,-0.247 -3.129,-1.191 -5.977,-3.425 -8.563,-6.628 v 0 l -0.218,0.074 v 0 c 0.144,0.394 0.398,1.226 0.722,2.16 0.215,0.969 0.536,2.055 0.754,3.203 0.25,1.117 0.614,2.16 0.934,3.133 0.18,0.973 0.469,1.762 0.578,2.199 v 0 l -10.477,3.418 v 0 c -0.539,-2.051 -1.152,-4.25 -1.761,-6.48 -0.649,-2.34 -1.371,-4.61 -2.125,-6.914 v 0 l -18.289,-56.051 v 0" /><path
         id="path38"
         style="fill:#ffffff;fill-opacity:1;fill-rule:nonzero;stroke:none"
         d="m 575.305,734.258 29.34,-15.156 2.265,4.429 v 0 c 2.953,5.688 4.93,10.727 6.156,15.371 1.262,4.61 1.731,8.711 1.407,12.239 -0.328,3.531 -1.481,6.515 -3.133,8.964 -1.731,2.489 -4.035,4.5 -6.805,5.942 -3.203,1.652 -6.515,2.375 -9.828,2.055 -3.492,-0.329 -6.914,-1.59 -10.152,-3.606 -3.242,-2.156 -6.477,-4.965 -9.539,-8.676 -3.024,-3.672 -5.903,-7.988 -8.461,-12.922 -2.414,-4.679 -4.176,-9.359 -5.364,-13.828 -1.187,-4.535 -1.621,-8.601 -1.257,-12.488 0.32,-3.852 1.472,-7.309 3.382,-10.367 1.942,-3.203 4.825,-5.652 8.532,-7.563 3.203,-1.656 6.336,-2.769 9.25,-3.238 2.957,-0.394 5.437,-0.543 7.558,-0.543 v 0 l 5.223,11.238 v 0 c -1.906,-0.468 -4.176,-0.722 -6.805,-0.832 -2.664,-0.035 -5.508,0.61 -8.496,2.161 -4.824,2.484 -7.344,5.867 -7.703,10.406 -0.43,4.32 1.043,9.828 4.43,16.414 v 0" /><path
         id="path40"
         style="fill:#ffffff;fill-opacity:1;fill-rule:nonzero;stroke:none"
         d="m 595.934,685.98 9.535,-6.839 22.863,31.828 v 0 c 2.16,3.019 4.246,5.359 6.371,7.16 2.16,1.801 4.106,2.988 6.012,3.711 1.836,0.644 3.672,0.859 5.363,0.719 1.582,-0.254 3.063,-0.758 4.43,-1.762 0.539,-0.399 1.078,-0.758 1.476,-1.227 0.36,-0.468 0.829,-0.937 1.184,-1.406 v 0 l 8.316,11.559 v 0 c -0.175,0.105 -0.355,0.254 -0.394,0.468 -0.07,0.032 -0.25,0.18 -0.43,0.286 -1.762,1.261 -3.492,2.16 -5.258,2.554 -1.797,0.403 -3.453,0.403 -5.254,0.074 -1.73,-0.324 -3.457,-0.824 -5.074,-1.546 -1.66,-0.793 -3.316,-1.692 -4.863,-2.883 v 0 l -0.18,0.148 v 0 c 0.324,0.469 0.828,1.153 1.512,2.082 0.578,0.981 1.332,2.02 1.945,3.137 0.649,1.113 1.332,2.016 1.981,2.949 0.578,0.977 1.078,1.696 1.402,2.164 v 0 l -8.746,6.297 v 0 c -1.152,-1.801 -2.41,-3.707 -3.672,-5.648 -1.297,-2.016 -2.699,-3.961 -4.14,-5.942 v 0 L 595.934,685.98 v 0" /><path
         id="path42"
         style="fill:#ffffff;fill-opacity:1;fill-rule:nonzero;stroke:none"
         d="m 643.703,647.172 7.777,-7.16 v 0 c 0.79,1.008 1.872,2.484 3.239,4.172 1.332,1.66 2.804,3.382 4.426,5.152 v 0 l 23.621,25.594 v 0 c 3.273,3.601 5.722,6.73 7.269,9.578 1.547,2.805 2.379,5.543 2.735,8.097 0.359,2.2 0,4.825 -0.934,7.817 -1.012,2.879 -3.098,5.754 -6.336,8.742 -2.734,2.52 -5.512,4.32 -8.352,5.367 -2.847,1.114 -5.652,1.91 -8.246,2.231 v 0 l -7.922,-9.938 v 0 c 2.344,0.364 5.04,0.184 8.176,-0.574 2.989,-0.789 5.614,-2.266 8.028,-4.465 3.023,-2.805 4.214,-5.867 3.636,-9.18 -0.289,-1.652 -0.863,-3.273 -1.765,-4.75 -1.008,-1.546 -2.266,-3.132 -3.817,-4.824 v 0 l -2.015,-2.195 -3.094,2.84 v 0 c -6.875,6.34 -13.504,9.758 -19.695,10.226 -6.223,0.36 -12.309,-2.554 -18.071,-8.82 -2.34,-2.519 -4.031,-5.004 -5.218,-7.598 -1.153,-2.625 -1.657,-5.039 -1.762,-7.449 -0.184,-2.34 0.285,-4.504 1.183,-6.515 0.868,-2.055 2.161,-3.852 3.887,-5.438 3.137,-2.914 6.375,-4.391 9.832,-4.465 3.274,-0.105 6.477,0.395 9.5,1.477 v 0 l 0.149,-0.145 v 0 c -0.289,-0.32 -0.793,-0.828 -1.368,-1.621 -0.683,-0.754 -1.375,-1.473 -1.945,-2.265 -0.613,-0.829 -1.297,-1.547 -1.726,-2.27 -0.618,-0.824 -1.012,-1.227 -1.192,-1.621 v 0" /><path
         id="path44"
         style="fill:#ffffff;fill-opacity:1;fill-rule:nonzero;stroke:none"
         d="m 657.277,632.523 7.629,-8.929 81.11,69.156 -7.598,8.93 -81.141,-69.157" /><path
         id="path46"
         style="fill:#ffffff;fill-opacity:1;fill-rule:nonzero;stroke:none"
         d="m 689.242,590.223 5.977,-8.75 v 0 c 0.972,0.793 2.375,2.019 4.101,3.351 1.696,1.262 3.493,2.66 5.477,3.992 v 0 l 28.723,19.696 v 0 c 4.035,2.734 7.093,5.254 9.218,7.703 2.16,2.414 3.567,4.859 4.465,7.269 0.863,2.09 1.117,4.719 0.863,7.817 -0.359,3.058 -1.726,6.336 -4.214,9.969 -2.082,3.062 -4.422,5.433 -6.942,7.093 -2.523,1.692 -5.047,3.098 -7.562,3.996 v 0 l -9.899,-7.921 v 0 c 2.34,-0.106 4.965,-0.938 7.813,-2.379 2.734,-1.438 4.965,-3.418 6.836,-6.118 2.343,-3.457 2.812,-6.695 1.48,-9.753 -0.652,-1.551 -1.59,-3.024 -2.773,-4.25 -1.336,-1.333 -2.918,-2.551 -4.793,-3.817 v 0 l -2.481,-1.691 -2.343,3.418 v 0 c -5.286,7.746 -11.016,12.562 -16.918,14.367 -6.012,1.762 -12.563,0.289 -19.618,-4.535 -2.808,-1.946 -5.007,-3.996 -6.734,-6.266 -1.73,-2.266 -2.77,-4.496 -3.383,-6.844 -0.683,-2.265 -0.754,-4.461 -0.324,-6.621 0.363,-2.195 1.227,-4.211 2.555,-6.187 2.449,-3.532 5.218,-5.657 8.609,-6.52 3.129,-0.824 6.406,-1.082 9.574,-0.683 v 0 l 0.141,-0.18 v 0 c -0.36,-0.25 -0.973,-0.649 -1.688,-1.297 -0.832,-0.574 -1.656,-1.152 -2.414,-1.801 -0.758,-0.644 -1.621,-1.222 -2.23,-1.761 -0.758,-0.653 -1.227,-0.973 -1.516,-1.297 v 0" /><path
         id="path48"
         style="fill:#ffffff;fill-opacity:1;fill-rule:nonzero;stroke:none"
         d="m 429.684,730.801 c -1.153,-2.016 -2.7,-3.598 -4.719,-4.895 -2.016,-1.187 -4.57,-1.765 -7.629,-1.801 -3.172,-0.074 -6.191,0.579 -9.254,1.836 -3.098,1.368 -5.469,2.774 -7.305,4.141 v 0 l -0.433,-13.789 v 0 c 1.906,-0.973 4.64,-1.941 8.027,-2.879 3.422,-0.934 6.914,-1.441 10.367,-1.402 8.567,0.14 14.938,3.238 19.078,9.105 3.692,5.172 5.352,12.317 5.692,21.41 v 0 l -0.934,54.801 v 0 c -0.039,2.164 0.035,4.141 0.106,6.266 0.07,2.125 0.07,4.14 0.144,6.125 v 0 l -10.801,-0.184 v 0 c 0,-0.433 0,-1.297 0.04,-2.269 -0.11,-1.004 -0.075,-2.125 -0.184,-3.278 -0.07,-1.152 -0.07,-2.125 -0.07,-3.129 -0.11,-1.011 -0.11,-1.836 -0.11,-2.269 h -0.32 v 0 c -1.516,3.242 -3.457,6.082 -5.836,8.461 -2.375,2.23 -5.363,3.308 -8.965,3.277 -3.492,-0.074 -6.59,-0.973 -9.14,-2.848 -2.594,-1.906 -4.825,-4.355 -6.446,-7.667 -1.621,-3.243 -2.914,-7.27 -3.637,-11.805 -0.828,-4.75 -1.187,-9.863 -1.117,-15.551 0.11,-6.809 0.758,-12.496 2.086,-17.141 1.192,-4.714 2.703,-8.496 4.645,-11.304 1.984,-2.949 4.105,-4.93 6.519,-6.157 2.41,-1.257 4.899,-1.871 7.344,-1.835 3.961,0.039 7.055,1.191 9.395,3.636 2.304,2.34 4.175,5.188 5.613,8.75 h 0.223 l 0.156,-8.91 v 0 c -0.543,-2.699 -1.418,-6.715 -2.535,-8.695 v 0" /><path
         id="path50"
         style="fill:#ee2c30;fill-opacity:1;fill-rule:nonzero;stroke:none"
         d="m 320.277,756 2.2,-6.152 v 0 c 1.976,-5.473 2.593,-10.223 1.871,-14.293 -0.758,-4.176 -3.024,-6.946 -6.91,-8.352 -2.883,-1.047 -5.403,-0.719 -7.563,0.758 -2.234,1.473 -3.961,4.031 -5.184,7.375 -1.621,4.535 -1.437,8.391 0.614,11.699 2.05,3.278 5.828,5.836 11.195,7.746 0.648,0.246 1.293,0.461 2.051,0.715 0.758,0.289 1.367,0.504 1.726,0.504 v 0" /><path
         id="path52"
         style="fill:#ee2c30;fill-opacity:1;fill-rule:nonzero;stroke:none"
         d="m 469.066,776.09 c 1.227,6.59 3.063,11.59 5.543,14.941 2.454,3.203 5.403,4.571 8.75,4.032 6.875,-1.118 9.215,-8.536 6.985,-22.426 v 0 l -21.278,3.453 v 0" /><path
         id="path54"
         style="fill:#ee2c30;fill-opacity:1;fill-rule:nonzero;stroke:none"
         d="m 579.945,743.223 c 3.168,5.902 6.481,10.078 9.864,12.492 3.316,2.269 6.589,2.664 9.578,1.117 6.195,-3.203 6.121,-10.984 -0.36,-23.473 v 0 l -19.082,9.864 v 0" /><path
         id="path56"
         style="fill:#ee2c30;fill-opacity:1;fill-rule:nonzero;stroke:none"
         d="m 667.066,674.176 -4.464,-4.824 v 0 c -3.926,-4.286 -7.883,-7.024 -11.77,-8.282 -4.07,-1.261 -7.559,-0.539 -10.656,2.27 -2.196,2.051 -3.094,4.43 -2.809,7.09 0.289,2.593 1.731,5.328 4.141,7.957 3.277,3.527 6.769,5.183 10.621,4.894 3.887,-0.289 7.848,-2.445 12.094,-6.332 0.504,-0.469 1.007,-0.937 1.582,-1.48 0.578,-0.504 1.047,-0.973 1.261,-1.293 v 0" /><path
         id="path58"
         style="fill:#ee2c30;fill-opacity:1;fill-rule:nonzero;stroke:none"
         d="m 718.043,611.285 -5.402,-3.672 v 0 c -4.825,-3.316 -9.25,-5.113 -13.321,-5.476 -4.281,-0.321 -7.484,1.156 -9.863,4.574 -1.727,2.555 -2.051,5.043 -1.184,7.523 0.864,2.52 2.879,4.864 5.829,6.875 3.961,2.739 7.738,3.528 11.449,2.375 3.707,-1.148 7.129,-4.136 10.367,-8.855 0.363,-0.574 0.758,-1.152 1.187,-1.797 0.469,-0.648 0.864,-1.227 0.938,-1.547 v 0" /><path
         id="path60"
         style="fill:#ee2c30;fill-opacity:1;fill-rule:nonzero;stroke:none"
         d="m 411.359,753.48 c -1.945,4.141 -3.058,10.622 -3.203,19.586 -0.109,8.387 0.684,14.688 2.41,19.082 1.622,4.317 4.504,6.481 8.571,6.696 3.812,0.074 6.801,-2.02 8.965,-6.266 2.086,-4.215 3.203,-10.621 3.343,-19.008 v 0 c 0.149,-8.82 -0.824,-15.34 -2.66,-19.652 -1.801,-4.43 -4.898,-6.594 -9.289,-6.66 -3.387,-0.074 -6.121,2.015 -8.137,6.222 v 0" /><path
         id="path62"
         style="fill:#231f20;fill-opacity:1;fill-rule:nonzero;stroke:none"
         d="m 517.992,569.957 c -5.363,0 -11.086,-1.191 -16.238,-2.633 -13.281,-3.738 -24.625,-12.851 -32.867,-23.902 -6.914,-9.219 -11.844,-20.524 -15.297,-31.535 -3.277,-10.262 -5.688,-21.383 -7.563,-31.969 -2.05,-12.023 -3.632,-24.66 -4.175,-36.828 -0.504,-11.953 0.074,-25.235 0.898,-37.113 0.863,-12.028 2.09,-24.805 4,-36.723 2.191,-13.68 5.469,-27.469 10.293,-40.426 4.969,-13.535 12.891,-28.515 24.227,-37.441 10.511,-8.317 23.761,-12.383 37.121,-11.879 14.183,0.469 27.718,6.082 38.117,15.695 9.328,8.567 16.094,21.352 20.738,33.192 5.149,13.105 8.785,27.179 11.305,41.039 2.195,12.132 3.711,24.375 4.574,36.683 0.898,13.18 1.039,26.387 0.609,39.528 -0.394,11.414 -1.257,23.117 -2.914,34.378 -1.656,10.985 -4.066,21.926 -7.597,32.438 -3.598,10.945 -8.711,21.996 -15.66,31.176 -7.993,10.511 -18.829,19.511 -31.536,23.332 -5.757,1.726 -11.988,2.988 -18.035,2.988 v 0" /><path
         id="path64"
         style="fill:#231f20;fill-opacity:1;fill-rule:nonzero;stroke:none"
         d="M 404.77,567.035 H 268.906 V 417.133 l 39.961,-9.5 v 0 c 0.254,0.863 0.719,2.23 1.078,3.094 0.578,1.332 1.368,2.66 2.125,3.851 2.629,3.817 5.977,7.094 9.903,9.504 5.074,3.098 10.836,4.789 16.773,4.75 6.84,-0.066 13.574,-2.34 18.758,-6.695 4.644,-3.922 8.062,-9.969 10.367,-15.551 1.91,-4.645 3.457,-9.434 4.504,-14.398 1.293,-5.977 1.941,-12.094 1.941,-18.293 0.071,-5.719 -0.468,-11.516 -1.546,-17.133 -1.012,-5.614 -2.668,-11.301 -5.258,-16.414 -2.555,-5.149 -6.121,-9.903 -10.762,-13.356 -5.223,-3.816 -11.453,-5.941 -17.898,-6.086 -6.372,-0.105 -12.598,1.692 -17.891,5.184 -4.965,3.273 -8.891,7.738 -11.301,13.105 -0.683,1.473 -1.441,3.637 -1.98,5.11 v 0 l -38.774,-11.231 v 0 c 0.324,-1.547 0.723,-3.777 1.153,-5.258 1.261,-4.714 3.82,-9.468 6.445,-13.535 4.211,-6.551 9.32,-12.742 15.297,-17.75 6.23,-5.218 13.469,-9.179 21.062,-12.019 8.891,-3.352 18.399,-5.153 27.899,-4.824 8.027,0.25 16.019,2.05 23.511,5.003 7.59,2.914 14.688,6.95 20.879,12.168 6.661,5.579 12.168,12.313 16.45,19.868 4.609,8.14 7.851,17.644 10.152,26.714 2.559,9.973 4.246,20.45 4.355,30.707 0.114,9.579 -1.293,19.661 -3.273,29.09 -1.945,9.325 -4.895,19.403 -9.324,27.864 -4.176,8.101 -9.789,15.339 -16.598,21.347 -6.766,6.047 -14.613,10.731 -23.074,13.934 -8.172,3.094 -16.887,4.715 -25.672,4.715 -8.313,0 -16.664,-1.442 -24.336,-4.75 -0.898,-0.434 -2.336,-1.043 -3.203,-1.442 v 63.469 h 94.141 v 38.66" /><path
         id="path66"
         style="fill:#ffffff;fill-opacity:1;fill-rule:nonzero;stroke:none"
         d="m 518.102,528.191 c 3.238,0.075 6.441,-0.64 9.246,-2.195 2.812,-1.437 5.078,-4.066 6.773,-6.656 2.77,-4.32 4.75,-10.445 6.047,-15.485 2.195,-8.496 3.926,-17.207 5.258,-25.917 1.328,-8.997 2.301,-18.11 2.914,-27.215 0.644,-9.328 1.008,-18.649 0.933,-28.008 -0.035,-10.512 -0.503,-21.098 -1.437,-31.606 -0.938,-10.586 -2.41,-21.601 -4.68,-31.898 -1.621,-7.164 -3.707,-14.438 -6.515,-21.277 -1.442,-3.493 -3.278,-7.204 -5.508,-10.297 -1.512,-2.086 -3.348,-4.067 -5.508,-5.543 -2.344,-1.473 -5.078,-2.41 -7.918,-2.551 -3.277,-0.223 -6.699,0.57 -9.434,2.477 -1.945,1.335 -3.746,3.531 -5.113,5.546 -2.09,3.204 -3.887,6.731 -5.402,10.332 -2.774,6.661 -4.676,14.293 -6.047,21.348 -1.836,10.078 -3.098,22.215 -3.887,32.363 -0.793,10.008 -1.515,21.606 -1.515,31.61 0,9.254 0.578,18.644 1.515,27.867 0.899,9.137 2.27,18.316 3.852,27.391 1.437,8.281 3.242,16.921 5.472,24.984 1.442,5.262 3.672,11.559 6.696,15.988 1.761,2.555 4.031,5.071 6.765,6.512 2.274,1.187 4.825,2.051 7.493,2.23 v 0" /></g></g></svg>