<?xml version="1.0" encoding="UTF-8" standalone="no"?>
<svg
   xmlns:dc="http://purl.org/dc/elements/1.1/"
   xmlns:cc="http://creativecommons.org/ns#"
   xmlns:rdf="http://www.w3.org/1999/02/22-rdf-syntax-ns#"
   xmlns:svg="http://www.w3.org/2000/svg"
   xmlns="http://www.w3.org/2000/svg"
   viewBox="0 0 113.21333 113.17333"
   height="113.17333"
   width="113.21333"
   xml:space="preserve"
   id="svg2"
   version="1.1"><metadata
     id="metadata8"><rdf:RDF><cc:Work
         rdf:about=""><dc:format>image/svg+xml</dc:format><dc:type
           rdf:resource="http://purl.org/dc/dcmitype/StillImage" /></cc:Work></rdf:RDF></metadata><defs
     id="defs6" /><g
     transform="matrix(1.3333333,0,0,-1.3333333,0,113.17333)"
     id="g10"><g
       transform="scale(0.1)"
       id="g12"><path
         id="path14"
         style="fill:#ee2c30;fill-opacity:1;fill-rule:nonzero;stroke:none"
         d="M 545.461,832.359 C 439.184,863.715 333.457,854.176 234.453,804.316 135.527,754.527 64.8242,675.254 26.6992,571.25 -11.5,467.172 -8.86719,361.086 34.4063,259.059 77.6367,157.109 152.125,81.4023 253.391,36.5078 c 235.8,-104.4375 509.511,23.543 580.5,271.4412 64.257,224.352 -64.551,458.563 -288.43,524.41 v 0" /><path
         id="path16"
         style="fill:#ffffff;fill-opacity:1;fill-rule:nonzero;stroke:none"
         d="M 505.211,696.246 C 654.43,652.324 740.293,496.227 697.449,346.684 650.113,181.512 467.734,96.1563 310.559,165.82 c -67.461,29.879 -117.106,80.313 -145.977,148.282 -28.801,68.043 -30.527,138.781 -5.113,208.082 25.449,69.336 72.539,122.148 138.492,155.375 65.949,33.195 136.437,39.566 207.25,18.687 v 0" /><path
         id="path18"
         style="fill:#ffffff;fill-opacity:1;fill-rule:nonzero;stroke:none"
         d="m 195.973,647.461 c -0.399,-1.547 -1.047,-3.203 -2.09,-5.113 -1.047,-1.871 -2.231,-3.524 -3.598,-5.145 -3.203,-3.781 -6.844,-6.515 -10.695,-8.242 -3.922,-1.766 -7.992,-2.414 -12.129,-2.051 -4.285,0.246 -8.641,1.508 -13.25,3.738 -4.5,2.125 -9.109,5.079 -13.68,8.93 -4.211,3.567 -7.668,7.418 -10.117,11.52 -2.484,4.175 -4.031,8.242 -4.789,12.422 -0.645,4.101 -0.465,8.027 0.508,12.023 1.039,3.961 3.058,7.672 5.902,11.016 2.629,3.132 5.758,5.941 9.11,8.351 3.308,2.199 6.914,3.996 10.437,5.328 v 0 l -10.727,9.575 v 0 c -2.699,-1.258 -5.761,-3.094 -9,-5.614 -3.167,-2.699 -6.445,-5.902 -9.648,-9.683 -4.676,-5.547 -7.812,-11.27 -9.648,-17.172 -1.911,-6.012 -2.305,-11.989 -1.547,-17.891 0.828,-5.867 3.023,-11.633 6.445,-17.281 3.383,-5.652 7.848,-10.945 13.641,-15.805 5.293,-4.504 11.054,-8.027 16.886,-10.547 5.977,-2.668 12.02,-3.851 17.996,-3.851 6.051,-0.11 12.028,1.398 17.825,4.101 5.797,2.7 11.269,7.274 16.308,13.211 3.563,4.25 6.332,8.422 8.348,12.457 2.051,4.032 3.566,7.633 4.355,10.512 v 0 l -39.093,32.973 -19.621,-23.215 9.433,-7.996 10.258,12.168 22.18,-18.719 v 0" /><path
         id="path20"
         style="fill:#ffffff;fill-opacity:1;fill-rule:nonzero;stroke:none"
         d="m 232.906,662.582 42.266,28.082 -7.024,10.547 -29.449,-19.617 -17.855,26.886 26.789,17.786 -7.024,10.55 -26.781,-17.785 -16.058,24.117 28.187,18.723 -6.98,10.547 -40.969,-27.215 54.898,-82.621" /><path
         id="path22"
         style="fill:#ffffff;fill-opacity:1;fill-rule:nonzero;stroke:none"
         d="m 293.316,701.031 13.395,4.75 -26.535,74.735 0.25,0.074 59.652,-62.961 17.535,6.226 -33.226,93.454 -13.395,-4.75 26.746,-75.274 -0.254,-0.113 -59.828,63.543 -17.535,-6.227 33.195,-93.457" /><path
         id="path24"
         style="fill:#ffffff;fill-opacity:1;fill-rule:nonzero;stroke:none"
         d="m 380.617,727.418 50.578,3.094 -0.754,12.601 -35.32,-2.156 -1.941,32.219 32.039,1.941 -0.789,12.676 -32.043,-1.984 -1.762,28.949 33.73,2.047 -0.789,12.605 -49.035,-2.988 6.086,-99.004" /><path
         id="path26"
         style="fill:#ffffff;fill-opacity:1;fill-rule:nonzero;stroke:none"
         d="m 452.074,729.723 15.051,-2.95 8.496,42.911 4.75,-0.938 v 0 c 4.035,-0.793 6.984,-2.086 8.891,-4.101 1.765,-1.911 3.062,-5.079 3.492,-9.364 v 0 l 4.066,-34.414 16.024,-3.168 -5.582,40.645 v 0 c -0.504,3.851 -1.547,6.695 -2.914,8.566 -1.512,1.727 -3.457,3.133 -5.723,4.031 v 0 l 0.031,0.254 v 0 c 6.699,0 11.953,1.692 15.989,5.254 4.031,3.567 6.55,8.281 7.703,14.114 0.898,4.464 0.933,8.386 0.183,11.878 -0.758,3.457 -2.199,6.481 -4.289,9.114 -2.086,2.55 -4.715,4.675 -8.027,6.332 -3.242,1.691 -7.09,2.843 -11.27,3.672 v 0 l -27.613,5.472 -19.258,-97.308 v 0" /><path
         id="path28"
         style="fill:#ffffff;fill-opacity:1;fill-rule:nonzero;stroke:none"
         d="m 531.242,711.148 46.113,-21.168 5.258,11.485 -32.148,14.758 13.426,29.34 29.234,-13.43 5.289,11.523 -29.23,13.43 12.097,26.312 30.782,-14.113 5.253,11.485 -44.679,20.519 -41.395,-90.141" /><path
         id="path30"
         style="fill:#ffffff;fill-opacity:1;fill-rule:nonzero;stroke:none"
         d="m 595.031,679.031 37.547,-29.769 7.848,9.902 -25.524,20.231 53.711,67.863 -12.019,9.5 -61.563,-77.727" /><path
         id="path32"
         style="fill:#ffffff;fill-opacity:1;fill-rule:nonzero;stroke:none"
         d="m 644.063,637.852 30.453,-36.973 9.761,8.027 -20.703,25.164 66.781,55.008 -9.753,11.844 -76.539,-63.07" /><path
         id="path34"
         style="fill:#ee2c30;fill-opacity:1;fill-rule:nonzero;stroke:none"
         d="m 477.887,781.238 6.156,30.957 8.496,-1.652 v 0 c 5.149,-1.047 9.145,-2.988 11.774,-5.832 2.484,-2.809 3.238,-7.02 2.156,-12.453 v 0 c -0.899,-4.613 -3.094,-8.25 -6.477,-10.586 -3.492,-2.488 -7.996,-3.203 -13.719,-2.086 v 0 l -8.386,1.652 v 0" /><path
         id="path36"
         style="fill:#231f20;fill-opacity:1;fill-rule:nonzero;stroke:none"
         d="m 517.848,570.098 c -5.364,0 -11.09,-1.188 -16.235,-2.625 -13.289,-3.746 -24.625,-12.856 -32.867,-23.903 -6.914,-9.254 -11.848,-20.523 -15.305,-31.539 -3.273,-10.258 -5.687,-21.383 -7.558,-31.968 -2.051,-12.028 -3.637,-24.657 -4.172,-36.864 -0.512,-11.914 0.066,-25.203 0.898,-37.082 0.864,-12.019 2.09,-24.804 3.993,-36.719 2.199,-13.679 5.472,-27.468 10.296,-40.429 4.969,-13.535 12.887,-28.508 24.231,-37.438 10.512,-8.316 23.758,-12.386 37.113,-11.879 14.184,0.465 27.719,6.086 38.125,15.696 9.328,8.57 16.094,21.347 20.738,33.191 5.145,13.102 8.786,27.18 11.305,41.039 2.192,12.133 3.703,24.371 4.57,36.688 0.899,13.172 1.043,26.386 0.61,39.527 -0.395,11.41 -1.262,23.109 -2.914,34.379 -1.656,10.98 -4.071,21.922 -7.594,32.433 -3.605,10.946 -8.715,22 -15.664,31.18 -7.988,10.512 -18.828,19.473 -31.535,23.324 -5.762,1.731 -11.985,2.989 -18.035,2.989 v 0" /><path
         id="path38"
         style="fill:#231f20;fill-opacity:1;fill-rule:nonzero;stroke:none"
         d="M 404.879,567.074 H 269.016 V 417.172 l 39.961,-9.504 v 0 c 0.253,0.863 0.722,2.195 1.078,3.094 0.574,1.332 1.367,2.668 2.125,3.851 2.625,3.821 5.976,7.098 9.902,9.508 5.07,3.098 10.832,4.785 16.77,4.75 6.843,-0.07 13.574,-2.34 18.761,-6.699 4.645,-3.918 8.063,-9.969 10.367,-15.551 1.907,-4.644 3.458,-9.43 4.5,-14.398 1.293,-5.977 1.946,-12.094 1.946,-18.289 0.07,-5.758 -0.469,-11.516 -1.551,-17.137 -1.008,-5.617 -2.664,-11.305 -5.258,-16.414 -2.554,-5.149 -6.117,-9.899 -10.762,-13.356 -5.218,-3.812 -11.449,-5.937 -17.89,-6.086 -6.371,-0.105 -12.602,1.696 -17.895,5.188 -4.965,3.273 -8.89,7.738 -11.304,13.105 -0.684,1.473 -1.442,3.633 -1.977,5.106 v 0 l -38.773,-11.231 v 0 c 0.324,-1.546 0.722,-3.777 1.152,-5.254 1.258,-4.714 3.816,-9.468 6.445,-13.535 4.211,-6.55 9.321,-12.742 15.297,-17.75 6.231,-5.218 13.465,-9.179 21.059,-12.023 8.898,-3.348 18.398,-5.149 27.902,-4.824 8.031,0.254 16.02,2.054 23.508,5.004 7.594,2.914 14.687,6.949 20.879,12.168 6.66,5.582 12.168,12.316 16.453,19.871 4.609,8.136 7.852,17.644 10.156,26.711 2.551,9.976 4.246,20.449 4.356,30.707 0.105,9.582 -1.301,19.66 -3.278,29.093 -1.945,9.321 -4.898,19.403 -9.328,27.86 -4.172,8.101 -9.789,15.336 -16.594,21.347 -6.769,6.051 -14.617,10.731 -23.078,13.938 -8.168,3.094 -16.882,4.711 -25.664,4.711 -8.32,0 -16.668,-1.438 -24.336,-4.75 -0.902,-0.43 -2.343,-1.047 -3.207,-1.442 v 63.434 h 94.141 v 38.699" /><path
         id="path40"
         style="fill:#ffffff;fill-opacity:1;fill-rule:nonzero;stroke:none"
         d="m 518.207,528.301 c 3.238,0.113 6.445,-0.61 9.254,-2.16 2.809,-1.438 5.074,-4.067 6.769,-6.661 2.766,-4.32 4.75,-10.472 6.043,-15.476 2.2,-8.496 3.926,-17.207 5.258,-25.922 1.336,-9 2.305,-18.105 2.918,-27.215 0.649,-9.324 1.004,-18.683 0.938,-28.008 -0.039,-10.511 -0.508,-21.097 -1.442,-31.609 -0.937,-10.582 -2.414,-21.598 -4.683,-31.895 -1.621,-7.164 -3.707,-14.437 -6.512,-21.273 -1.441,-3.496 -3.277,-7.203 -5.508,-10.301 -1.515,-2.09 -3.351,-4.066 -5.508,-5.539 -2.343,-1.48 -5.078,-2.414 -7.921,-2.558 -3.278,-0.215 -6.7,0.539 -9.434,2.484 -1.941,1.332 -3.746,3.523 -5.113,5.543 -2.09,3.203 -3.887,6.73 -5.399,10.332 -2.773,6.66 -4.679,14.293 -6.047,21.348 -1.836,10.082 -3.097,22.211 -3.89,32.363 -0.789,10.008 -1.508,21.601 -1.508,31.609 0,9.254 0.574,18.649 1.508,27.864 0.902,9.144 2.269,18.324 3.851,27.394 1.442,8.281 3.242,16.922 5.477,24.988 1.437,5.254 3.672,11.551 6.691,15.981 1.766,2.558 4.035,5.078 6.77,6.519 2.269,1.188 4.824,2.051 7.488,2.192 v 0" /></g></g></svg>