<svg xmlns="http://www.w3.org/2000/svg" width="294.417" height="361.515" viewBox="0 0 294.417 361.515" style="color: initial !important;"><defs><style>.a{fill:#ffffff;}.b{fill:#211715;}.c{fill:#ffda71;}</style></defs><path class="a" d="M266.085,323.533q-14,0-27.993,0a13.883,13.883,0,0,1-5.507-1.147l.567,8.257c.242,7.289.519,15,.835,20.06a6.828,6.828,0,0,0,6.679,6.409h22.843a6.828,6.828,0,0,0,6.679-6.409c.316-5.063.593-12.771.835-20.06l.314-8.156A13.866,13.866,0,0,1,266.085,323.533Z"/><path class="b" d="M268.623,330.646c-.14,4.2-.284,8.408-.462,12.611q-.117,2.784-.264,5.567a7.614,7.614,0,0,1-.737,3.773c-1.68,2.712-5.177,2.118-7.893,2.118H241.676a5.557,5.557,0,0,1-3.572-.913,4.466,4.466,0,0,1-1.727-3.259c-.167-1.858-.206-3.737-.29-5.6-.214-4.764-.377-9.531-.535-14.3-.1-3.081-4.9-3.1-4.8,0,.152,4.558.307,9.117.507,13.673.155,3.532-.27,7.9,1.782,10.969a9.577,9.577,0,0,0,7.732,4.227c1.214.038,2.436,0,3.651,0h13.813c3.9,0,7.891.457,11.127-2.23,3.458-2.872,3.285-7.226,3.477-11.322.24-5.1.412-10.211.582-15.317.1-3.089-4.7-3.086-4.8,0Z"/><path class="b" d="M234.825,342.648h34.524c3.089,0,3.094-4.8,0-4.8H234.825c-3.088,0-3.093,4.8,0,4.8Z"/><path class="c" d="M231.23,254.249c-11.615,6.8-18.273,19.349-18.273,33.3,0,14.531,5,25.554,17.539,33.731a13.9,13.9,0,0,0,7.6,2.26q14,0,27.993,0a13.914,13.914,0,0,0,7.589-2.258c12.54-8.174,17.544-19.2,17.544-33.73,0-20.9-14.951-38.653-39.131-38.653A40.826,40.826,0,0,0,231.23,254.249Z"/><path class="b" d="M230.018,252.177a39.436,39.436,0,0,0-16.371,19.145c-3.259,7.965-3.735,16.831-2.367,25.266a37.734,37.734,0,0,0,10.2,20.45c3.037,3.1,6.753,6.218,10.822,7.818a20.709,20.709,0,0,0,7.793,1.08l8.5,0c5.666,0,11.331.014,17,0a17.645,17.645,0,0,0,7.637-1.659,30.39,30.39,0,0,0,5.659-3.818,37.667,37.667,0,0,0,12.951-19.1c4.2-14.563,1.279-31.42-9.31-42.565-11.558-12.163-30.9-15.413-46.355-9.526a42.429,42.429,0,0,0-6.149,2.909c-2.672,1.547-.258,5.7,2.423,4.145,12.929-7.484,31.044-6.827,42.953,2.457,10.837,8.448,14.794,22.356,13.01,35.628a33.9,33.9,0,0,1-17.037,25.441,13,13,0,0,1-6.282,1.285h-8l-16,0a20.328,20.328,0,0,1-6.925-.686,19.777,19.777,0,0,1-5.242-3.2,33.239,33.239,0,0,1-11.764-16.534c-4.426-14.382-1.031-31.259,10.7-41.183a33.387,33.387,0,0,1,4.581-3.21C235.1,254.748,232.684,250.6,230.018,252.177Z"/><path class="b" d="M271.248,296.353c-2.717-5.94-9.151-9.492-15.527-10.006a11.44,11.44,0,0,0-10.007,4.787,10.033,10.033,0,0,0-.4,11.03c2.3,3.584,6.283,4.883,10.379,4.2,4.313-.722,7.056-4.109,7.676-8.331,1.127-7.685-5.083-13.219-12.147-14.427-4.339-.741-9.164-.509-12.934,2.008a16.127,16.127,0,0,0-6.922,10.012c-.662,3.01,3.965,4.3,4.629,1.276a11.058,11.058,0,0,1,11.337-8.884c4.13.054,9.265,1.48,10.918,5.71.858,2.2.647,5.515-1.314,7.112a5.614,5.614,0,0,1-6.86-.354,5.067,5.067,0,0,1-.738-6.11,6.569,6.569,0,0,1,6.2-3.242,13.788,13.788,0,0,1,11.569,7.643,2.419,2.419,0,0,0,3.284.861,2.456,2.456,0,0,0,.861-3.283Z"/><path class="b" d="M225.6,227.31q2.005,5.317,4.07,10.613a2.457,2.457,0,0,0,2.952,1.676,2.426,2.426,0,0,0,1.677-2.952q-2.066-5.3-4.071-10.613a2.454,2.454,0,0,0-2.952-1.676,2.427,2.427,0,0,0-1.676,2.952Z"/><path class="b" d="M273.953,226.034q-2.007,5.318-4.071,10.613a2.408,2.408,0,0,0,1.677,2.952,2.468,2.468,0,0,0,2.952-1.676q2.064-5.3,4.07-10.613a2.41,2.41,0,0,0-1.676-2.952,2.465,2.465,0,0,0-2.952,1.676Z"/><path class="b" d="M254.488,231.732v-11.4a2.4,2.4,0,0,0-4.8,0v11.4a2.4,2.4,0,0,0,4.8,0Z"/><path class="a" d="M24.834,327.979a2.5,2.5,0,0,1-3.046-1.73,28.452,28.452,0,0,0-1.461-5.218c-2.57-6.646-7.54-12.115-11.3-18.08A41.066,41.066,0,0,1,2.4,281.185a38.356,38.356,0,0,1,6.354-21.63,39.521,39.521,0,0,1,15.788-13.44A41.706,41.706,0,0,1,64.78,248.6a37.937,37.937,0,0,1,13.894,15.5,40.077,40.077,0,0,1,3.3,22.81c-1.114,7.747-4.822,14.305-9.247,20.62-4.07,5.811-8.385,11.571-9.679,18.711A2.5,2.5,0,0,1,60,327.979Z"/><path class="c" d="M51.087,319.7l-.053-9.128a15.13,15.13,0,0,0,4.435-8.69c.753-3.8-.168-7.794-3.18-10.23-3.36-2.717-9.959-3.71-13.341-.648a6.061,6.061,0,0,0-1.715,6.187,5.067,5.067,0,0,0,2.324,3,6.085,6.085,0,0,0,6.331-.2,6.394,6.394,0,0,0,2.1-2.589,4.68,4.68,0,0,0,.19-3.437c-2-5.66-9.085-5.708-13.593-3.339a10.139,10.139,0,0,0-4.9,5.484,11.822,11.822,0,0,0,.209,7.842,16.245,16.245,0,0,0,3.607,5.917v4.123a5.707,5.707,0,0,0,5.708,5.707Z"/><path class="b" d="M35.2,308.169c-2.231-2.567-3.908-5.745-3.663-9.247a7.868,7.868,0,0,1,5.244-6.669,9.242,9.242,0,0,1,6.611-.207c2.116.937,3.736,3.661,1.5,5.673a3.262,3.262,0,0,1-5.477-2.8c.389-2.9,3.632-3.541,6.043-3.375,2.687.185,5.5,1.41,6.865,3.787,1.583,2.757,1.028,6.092.031,8.948a16.742,16.742,0,0,1-2.644,4.293,6.419,6.419,0,0,0-1.075,3.957v5.736c0,3.088,4.8,3.094,4.8,0,0-2.072-.122-4.18,0-6.248A1.418,1.418,0,0,1,53.885,311a16.879,16.879,0,0,0,2.023-2.939,20.077,20.077,0,0,0,2-6.286c.707-4.708-.711-9.491-4.642-12.386a14.76,14.76,0,0,0-11.917-2.28,8.69,8.69,0,0,0-6.43,10.713c1.494,5.1,7.81,7.054,12.18,4.234a7.791,7.791,0,0,0,1.231-12.345c-2.723-2.821-6.871-3.338-10.563-2.693a13.271,13.271,0,0,0-10.529,8.868c-1.71,5.7.874,11.419,4.57,15.673,2.029,2.336,5.412-1.071,3.394-3.394Z"/><path class="b" d="M26.49,324.953c-1.245-6.875-5.1-12.683-9.055-18.29C13.311,300.812,9.413,295,7.954,287.874a33.659,33.659,0,0,1,14.29-34.885,36.735,36.735,0,0,1,36.171-2.382,34.531,34.531,0,0,1,14.123,12.431,34.1,34.1,0,0,1,4.973,19.792,34.908,34.908,0,0,1-2.139,10.351,44.347,44.347,0,0,1-4.922,9.078c-3.853,5.782-8.3,11.2-10.761,17.779a28.464,28.464,0,0,0-1.345,4.915,2.469,2.469,0,0,0,1.676,2.953,2.423,2.423,0,0,0,2.953-1.677c1.3-7.158,5.627-12.934,9.707-18.758,4.407-6.291,8.1-12.824,9.214-20.539a39.988,39.988,0,0,0-3.3-22.819,37.854,37.854,0,0,0-13.735-15.369A41.619,41.619,0,0,0,24.5,246.22,39.443,39.443,0,0,0,8.756,259.686a38.31,38.31,0,0,0-6.279,21.507A41.019,41.019,0,0,0,9.146,303c3.743,5.918,8.678,11.358,11.234,17.955a28.735,28.735,0,0,1,1.481,5.274,2.422,2.422,0,0,0,2.953,1.677,2.454,2.454,0,0,0,1.676-2.953Z"/><path class="a" d="M27.77,352.131A18.574,18.574,0,0,1,24.88,342v-5.992a1.719,1.719,0,0,1,1.715-1.719H58.234a1.72,1.72,0,0,1,1.72,1.72V342c-.073,10.363-6.98,17.111-17.537,17.111C36.055,359.109,30.818,356.789,27.77,352.131Z"/><path class="b" d="M29.843,350.92a15.954,15.954,0,0,1-2.479-7.154c-.151-1.683-.084-3.392-.084-5.08v-1.952c0-1.782-.241.48-.685-.047.024.029.249,0,.28,0a16.555,16.555,0,0,0,1.837,0h28.4c.157,0,1,.117,1.114,0-.162.163-.89-.546-.67-.68-.027.016,0,.289,0,.314-.062.634,0,1.3,0,1.939,0,1.242.013,2.484,0,3.725a15.256,15.256,0,0,1-3.437,10.03c-5.857,6.548-19.111,6.6-24.274-1.095-1.713-2.552-5.873-.152-4.145,2.423,3.2,4.774,8.192,7.328,13.824,8a22.03,22.03,0,0,0,14.674-3.1,18.209,18.209,0,0,0,7.613-11.305,46.659,46.659,0,0,0,.545-10.486c-.034-2.472-1.526-4.442-4.122-4.563-.424-.02-.852,0-1.276,0H29.272c-.807,0-1.617-.02-2.423,0a4.25,4.25,0,0,0-4.369,4.119c-.354,5.9-.04,12.227,3.218,17.337C27.354,355.94,31.51,353.535,29.843,350.92Z"/><path class="b" d="M28.094,347.138H56.74c3.089,0,3.094-4.8,0-4.8H28.094c-3.088,0-3.093,4.8,0,4.8Z"/><path class="b" d="M14.432,225.921q2.13,5.646,4.322,11.268a2.457,2.457,0,0,0,2.952,1.676,2.426,2.426,0,0,0,1.676-2.952q-2.192-5.622-4.321-11.268a2.455,2.455,0,0,0-2.953-1.676,2.427,2.427,0,0,0-1.676,2.952Z"/><path class="b" d="M65.774,224.645q-2.13,5.646-4.322,11.268a2.409,2.409,0,0,0,1.677,2.952,2.469,2.469,0,0,0,2.952-1.676q2.192-5.622,4.321-11.268a2.41,2.41,0,0,0-1.676-2.952,2.465,2.465,0,0,0-2.952,1.676Z"/><path class="b" d="M44.817,230.655V218.547a2.4,2.4,0,1,0-4.8,0v12.108a2.4,2.4,0,1,0,4.8,0Z"/><path class="a" d="M271.181,112.753a4.667,4.667,0,0,1-2.531.734l-29.551-.1a4.666,4.666,0,0,1-2.541-.763c-4.315,1.8-4,5.538-4,5.538-.078,2.961.8,6.132,1.827,7.338a6.93,6.93,0,0,0,2.247,1.781,9.685,9.685,0,0,0,1.54.588l-.225.222c-1.43,1.061-1.848,3.3-1.721,5.478.124,2.126,1.088,4.835,3.156,5.738a17.291,17.291,0,0,0,4.27.93v2.176c.045,5.666,4.359,9.562,10.37,9.562,6.243,0,10.327-3.932,10.37-9.562v-2.176a17.291,17.291,0,0,0,4.27-.93c2.068-.9,3.032-3.612,3.156-5.738.127-2.179-.291-4.417-1.72-5.478l-.284-.231a7.349,7.349,0,0,0,3.845-2.36c.863-1.017,1.625-3.432,1.8-5.94C275.458,119.555,276.27,114.222,271.181,112.753Z"/><path class="a" d="M239.1,113.382a4.705,4.705,0,0,1-4.478-3.353c-2.728-8.97-9.666-15.651-14.307-24.345a37.638,37.638,0,0,1-.283-34.3c6.355-12.389,20.189-20.091,34.136-20.041s27.726,7.849,33.992,20.283a37.637,37.637,0,0,1-.527,34.3c-4.7,8.66-11.688,15.292-14.48,24.242a4.7,4.7,0,0,1-4.5,3.321Z"/><path class="c" d="M262.689,103.45V94.19a.091.091,0,0,1,.028-.066,15.319,15.319,0,0,0,4.493-8.752c.775-3.844-.142-7.891-3.182-10.367-3.392-2.762-10.067-3.791-13.5-.7a6.075,6.075,0,0,0-1.975,5.053,5.524,5.524,0,0,0,3.692,4.755,6.229,6.229,0,0,0,5.275-.686,6.477,6.477,0,0,0,2.139-2.613,4.739,4.739,0,0,0,.2-3.478c-2-5.736-9.175-5.811-13.747-3.429a10.263,10.263,0,0,0-4.979,5.534,11.968,11.968,0,0,0,.184,7.937,16.387,16.387,0,0,0,3.606,5.975.1.1,0,0,1,.024.063v3.493a6.639,6.639,0,0,0,6.639,6.639h11.006A.1.1,0,0,0,262.689,103.45Z"/><path class="b" d="M225.775,9.765q2.136,5.723,4.334,11.421a2.457,2.457,0,0,0,2.952,1.677,2.428,2.428,0,0,0,1.677-2.953q-2.2-5.7-4.334-11.421a2.453,2.453,0,0,0-2.952-1.676,2.428,2.428,0,0,0-1.677,2.952Z"/><path class="b" d="M277.744,8.674q-2.177,5.708-4.415,11.39a2.408,2.408,0,0,0,1.676,2.952,2.469,2.469,0,0,0,2.952-1.676q2.24-5.682,4.415-11.39A2.41,2.41,0,0,0,280.7,7a2.466,2.466,0,0,0-2.952,1.676Z"/><path class="b" d="M256.454,14.657q.022-6.128.044-12.255a2.4,2.4,0,1,0-4.8,0q-.021,6.127-.044,12.255a2.4,2.4,0,0,0,4.8,0Z"/><path class="b" d="M236.253,126.389c-2.2,1.823-2.671,5.112-2.365,7.8.3,2.647,1.395,5.392,3.725,6.884a10.625,10.625,0,0,0,4.021,1.281c1.822.3,3.664.484,5.506.606a105.712,105.712,0,0,0,12.371.082c3.123-.158,6.594-.238,9.561-1.328a8.1,8.1,0,0,0,4.9-6.246c.605-3.015.372-6.966-2.173-9.075a2.468,2.468,0,0,0-3.395,0,2.42,2.42,0,0,0,0,3.394c1.329,1.1,1.216,3.372.827,4.89a4.42,4.42,0,0,1-.969,2.012c-.069.072-.758.554-.346.35a4.138,4.138,0,0,1-.654.225,28.778,28.778,0,0,1-7.466.963c-3.459.186-6.932.2-10.393.055-1.543-.064-3.084-.161-4.62-.317-.323-.033-.645-.07-.967-.107-.746-.086.274.042-.158-.019-.144-.02-.289-.041-.433-.064-.578-.089-1.156-.19-1.725-.325a6.331,6.331,0,0,1-1.364-.411c.431.214-.067-.079-.1-.11a4.28,4.28,0,0,1-.461-.481,4.21,4.21,0,0,1-.508-.967c-.647-1.649-.931-4.441.581-5.694a2.419,2.419,0,0,0,0-3.394,2.453,2.453,0,0,0-3.394,0Z"/><path class="b" d="M230.161,118.157c-.042,4.091.994,8.545,4.656,10.85,3,1.889,6.887,2,10.323,2.139,4.735.186,9.489.186,14.225.091,3.7-.075,7.665-.012,11.241-1.1a9.892,9.892,0,0,0,4.834-3.044c1.709-2.065,2.2-4.939,2.418-7.533a2.419,2.419,0,0,0-2.4-2.4,2.449,2.449,0,0,0-2.4,2.4c-.118,1.43-.476,3.491-1.279,4.454a5.179,5.179,0,0,1-2.773,1.589,20.519,20.519,0,0,1-2.48.5c.55-.081-.04,0-.271.019-.312.03-.625.054-.939.076-1.758.125-3.522.183-5.284.225-4.162.1-8.336.1-12.5,0-1.628-.038-3.257-.09-4.882-.2-.3-.021-.6-.043-.9-.072-.1-.009-.743-.081-.388-.035.489.064-.378-.065-.486-.083-.2-.035-.4-.071-.6-.111-.475-.095-.948-.2-1.412-.342a5.142,5.142,0,0,1-2.706-1.71c-1.053-1.581-1.216-3.873-1.2-5.708.032-3.09-4.768-3.092-4.8,0Z"/><path class="b" d="M241.255,142.408a11.9,11.9,0,0,0,8.49,11.349c4.755,1.467,10.809.429,14.157-3.459a12.244,12.244,0,0,0,2.893-7.89c.06-3.09-4.74-3.09-4.8,0a7.063,7.063,0,0,1-2.069,5.112,8.495,8.495,0,0,1-5.748,2.049,8.611,8.611,0,0,1-5.785-1.869,6.3,6.3,0,0,1-1.768-2.388c.149.324-.114-.305-.137-.372a9.677,9.677,0,0,1-.279-1c0,.014-.13-.731-.089-.42a10.279,10.279,0,0,1-.065-1.109c-.064-3.085-4.864-3.095-4.8,0Z"/><path class="b" d="M265.089,103.545c0-2.2-.01-4.395,0-6.592.008-1.692.782-2.646,1.71-4a18.285,18.285,0,0,0,2.635-6.515c.994-4.616.179-9.794-3.565-13.012a15.018,15.018,0,0,0-12.031-3.2,8.846,8.846,0,0,0-7.55,10.2c.953,5.565,7.39,7.833,12.087,5.274a7.85,7.85,0,0,0,1.756-12.511c-2.684-2.956-6.965-3.542-10.715-2.9-4.905.839-9.4,4.215-10.785,9.116-1.618,5.726.929,11.389,4.621,15.669a2.421,2.421,0,0,0,3.394,0,2.448,2.448,0,0,0,0-3.394c-2.251-2.609-3.9-5.8-3.683-9.338a8,8,0,0,1,5.474-6.849,10.754,10.754,0,0,1,3.654-.665,6.96,6.96,0,0,1,3.162.63,4.351,4.351,0,0,1,2.177,2.211,3.085,3.085,0,0,1-1.123,3.681,3.736,3.736,0,0,1-4.289-.014,3.367,3.367,0,0,1-.946-3.546c.749-2.713,4.019-3.209,6.422-2.918,2.879.348,5.71,1.767,6.915,4.493,1.291,2.921.6,6.693-.763,9.468-.892,1.819-2.356,3.227-2.977,5.189a11.614,11.614,0,0,0-.38,3.542v5.98c0,3.089,4.8,3.094,4.8,0Z"/><path class="b" d="M239.1,110.982c-1.99-.08-2.239-1.982-2.821-3.507a42.69,42.69,0,0,0-3.267-6.679c-2.463-4.122-5.428-7.915-8.029-11.947a39.638,39.638,0,0,1-5.778-13.2,35.211,35.211,0,0,1-.167-13.984A33.389,33.389,0,0,1,233.261,40.14a37.552,37.552,0,0,1,24.6-6.208,36.993,36.993,0,0,1,22.416,10.782,33.739,33.739,0,0,1,9.34,24.737,34.35,34.35,0,0,1-3.133,13.433c-2.131,4.541-5.179,8.586-8.058,12.667a55.641,55.641,0,0,0-7.061,12.443c-.561,1.5-.862,2.981-2.718,3.093-.294.018-.595,0-.889,0l-27.857-.1-.8,0c-3.089-.011-3.093,4.789,0,4.8l27.781.1c2.035.007,4.01.008,5.777-1.239,2.241-1.579,2.694-3.909,3.7-6.291a42.889,42.889,0,0,1,3.685-6.676c2.867-4.4,6.166-8.514,8.825-13.053a40.113,40.113,0,0,0,5.2-15.09,38.984,38.984,0,0,0-7.375-28.7,41.242,41.242,0,0,0-23.818-14.922c-19.214-4.166-40.173,6.165-46.953,24.959a40.215,40.215,0,0,0,1.757,30.93c2.3,4.691,5.492,8.87,8.431,13.163a66.156,66.156,0,0,1,4.034,6.529,30.141,30.141,0,0,1,1.431,3.071,28.1,28.1,0,0,0,1.369,3.612,7.258,7.258,0,0,0,6.153,3.606C242.188,115.905,242.183,111.105,239.1,110.982Z"/><path class="a" d="M59.087,111.144a4.693,4.693,0,0,1-4.073,2.343l-29.551-.1a4.692,4.692,0,0,1-4.011-2.3c-2.959,2.755-2.527,7.071-2.527,7.071-.078,2.961.8,6.132,1.827,7.338a7.4,7.4,0,0,0,.994.979,7.9,7.9,0,0,0,2.761,1.386l-.193.226c-1.43,1.061-1.848,3.3-1.721,5.478.125,2.126,1.088,4.835,3.156,5.738a17.291,17.291,0,0,0,4.27.93v2.176c.045,5.666,4.359,9.562,10.37,9.562,6.243,0,10.327-3.932,10.37-9.562v-2.176a17.291,17.291,0,0,0,4.27-.93c2.068-.9,3.032-3.612,3.156-5.738.127-2.179-.291-4.417-1.721-5.478l-.87-.07a7.689,7.689,0,0,0,4.432-2.521c.863-1.017,1.625-3.432,1.8-5.94C61.822,119.555,62.983,113.543,59.087,111.144Z"/><path class="c" d="M25.463,113.382a4.705,4.705,0,0,1-4.478-3.353c-2.728-8.97-9.666-15.651-14.307-24.345A37.638,37.638,0,0,1,6.4,51.38C12.75,38.991,26.584,31.289,40.531,31.339s27.726,7.849,33.992,20.283A37.637,37.637,0,0,1,74,85.924c-4.7,8.66-11.688,15.292-14.48,24.242a4.7,4.7,0,0,1-4.5,3.321Z"/><path class="c" d="M49.053,103.45V94.19a.091.091,0,0,1,.028-.066,15.325,15.325,0,0,0,4.493-8.752c.775-3.844-.142-7.891-3.182-10.367-3.392-2.762-10.067-3.791-13.5-.7a6.075,6.075,0,0,0-1.975,5.053,5.524,5.524,0,0,0,3.692,4.755,6.229,6.229,0,0,0,5.275-.686,6.477,6.477,0,0,0,2.139-2.613,4.739,4.739,0,0,0,.2-3.478c-2-5.736-9.175-5.811-13.747-3.429A10.263,10.263,0,0,0,27.5,79.438a11.968,11.968,0,0,0,.184,7.937,16.387,16.387,0,0,0,3.606,5.975.1.1,0,0,1,.024.063v3.493a6.639,6.639,0,0,0,6.639,6.639H48.958A.1.1,0,0,0,49.053,103.45Z"/><path class="b" d="M12.139,9.765q2.136,5.723,4.334,11.421a2.457,2.457,0,0,0,2.952,1.677A2.428,2.428,0,0,0,21.1,19.91q-2.2-5.7-4.334-11.421a2.453,2.453,0,0,0-2.952-1.676,2.428,2.428,0,0,0-1.677,2.952Z"/><path class="b" d="M64.108,8.674q-2.177,5.708-4.415,11.39a2.408,2.408,0,0,0,1.676,2.952,2.469,2.469,0,0,0,2.952-1.676q2.239-5.682,4.415-11.39A2.41,2.41,0,0,0,67.06,7a2.466,2.466,0,0,0-2.952,1.676Z"/><path class="b" d="M42.818,14.657q.023-6.128.044-12.255a2.4,2.4,0,1,0-4.8,0q-.021,6.127-.044,12.255a2.4,2.4,0,1,0,4.8,0Z"/><path class="b" d="M22.616,126.389c-2.2,1.823-2.67,5.112-2.364,7.8.3,2.647,1.395,5.392,3.725,6.884A10.625,10.625,0,0,0,28,142.35c1.822.3,3.664.484,5.506.606a105.712,105.712,0,0,0,12.371.082c3.123-.158,6.594-.238,9.561-1.328a8.1,8.1,0,0,0,4.9-6.246c.6-3.015.372-6.966-2.173-9.075a2.468,2.468,0,0,0-3.395,0,2.42,2.42,0,0,0,0,3.394c1.329,1.1,1.216,3.372.827,4.89a4.42,4.42,0,0,1-.969,2.012c-.069.072-.758.554-.346.35a4.138,4.138,0,0,1-.654.225,28.778,28.778,0,0,1-7.466.963c-3.459.186-6.932.2-10.393.055-1.543-.064-3.084-.161-4.62-.317-.323-.033-.645-.07-.967-.107-.746-.086.274.042-.158-.019-.144-.02-.289-.041-.433-.064-.578-.089-1.156-.19-1.725-.325a6.331,6.331,0,0,1-1.364-.411c.431.214-.067-.079-.1-.11a4.28,4.28,0,0,1-.461-.481,4.21,4.21,0,0,1-.508-.967c-.647-1.649-.931-4.441.581-5.694a2.419,2.419,0,0,0,0-3.394,2.454,2.454,0,0,0-3.395,0Z"/><path class="b" d="M16.525,118.157c-.042,4.091.994,8.545,4.655,10.85,3,1.889,6.888,2,10.324,2.139,4.734.186,9.489.186,14.225.091,3.7-.075,7.665-.012,11.241-1.1a9.884,9.884,0,0,0,4.833-3.044c1.71-2.065,2.2-4.939,2.419-7.533a2.419,2.419,0,0,0-2.4-2.4,2.449,2.449,0,0,0-2.4,2.4c-.118,1.43-.476,3.491-1.279,4.454A5.183,5.183,0,0,1,55.37,125.6a20.519,20.519,0,0,1-2.48.5c.55-.081-.04,0-.271.019-.312.03-.625.054-.939.076-1.758.125-3.522.183-5.284.225-4.162.1-8.336.1-12.5,0-1.628-.038-3.257-.09-4.882-.2-.3-.021-.6-.043-.9-.072-.1-.009-.743-.081-.388-.035.489.064-.378-.065-.486-.083-.2-.035-.4-.071-.6-.111-.475-.095-.948-.2-1.412-.342a5.142,5.142,0,0,1-2.706-1.71c-1.053-1.581-1.216-3.873-1.2-5.708.032-3.09-4.768-3.092-4.8,0Z"/><path class="b" d="M27.619,142.408a11.9,11.9,0,0,0,8.49,11.349c4.755,1.467,10.809.429,14.157-3.459a12.244,12.244,0,0,0,2.893-7.89c.06-3.09-4.74-3.09-4.8,0a7.063,7.063,0,0,1-2.069,5.112,8.495,8.495,0,0,1-5.748,2.049,8.611,8.611,0,0,1-5.785-1.869,6.3,6.3,0,0,1-1.768-2.388c.149.324-.114-.305-.137-.372a9.677,9.677,0,0,1-.279-1c0,.014-.13-.731-.089-.42a10.279,10.279,0,0,1-.065-1.109c-.064-3.085-4.864-3.095-4.8,0Z"/><path class="b" d="M51.453,103.545c0-2.2-.01-4.395,0-6.592.008-1.692.782-2.646,1.71-4A18.285,18.285,0,0,0,55.8,86.442c.994-4.616.179-9.794-3.565-13.012a15.018,15.018,0,0,0-12.031-3.2,8.846,8.846,0,0,0-7.55,10.2c.953,5.565,7.39,7.833,12.087,5.274A7.85,7.85,0,0,0,46.5,73.191c-2.684-2.956-6.965-3.542-10.715-2.9-4.905.839-9.4,4.215-10.785,9.116-1.618,5.726.929,11.389,4.621,15.669a2.421,2.421,0,0,0,3.394,0,2.449,2.449,0,0,0,0-3.394c-2.251-2.609-3.9-5.8-3.683-9.338A8,8,0,0,1,34.8,75.494a10.754,10.754,0,0,1,3.654-.665,6.962,6.962,0,0,1,3.162.63,4.351,4.351,0,0,1,2.177,2.211,3.085,3.085,0,0,1-1.123,3.681,3.736,3.736,0,0,1-4.289-.014,3.367,3.367,0,0,1-.946-3.546c.749-2.713,4.019-3.209,6.422-2.918,2.879.348,5.71,1.767,6.915,4.493,1.291,2.921.6,6.693-.763,9.468-.892,1.819-2.356,3.227-2.977,5.189a11.614,11.614,0,0,0-.38,3.542v5.98c0,3.089,4.8,3.094,4.8,0Z"/><path class="b" d="M25.463,110.982c-1.99-.08-2.239-1.982-2.821-3.507a42.69,42.69,0,0,0-3.267-6.679c-2.463-4.122-5.428-7.915-8.029-11.947a39.638,39.638,0,0,1-5.778-13.2A35.211,35.211,0,0,1,5.4,61.668,33.389,33.389,0,0,1,19.625,40.14a37.552,37.552,0,0,1,24.6-6.208A36.993,36.993,0,0,1,66.641,44.714a33.739,33.739,0,0,1,9.34,24.737,34.35,34.35,0,0,1-3.133,13.433c-2.131,4.541-5.179,8.586-8.058,12.667a55.684,55.684,0,0,0-7.062,12.443c-.56,1.5-.861,2.981-2.717,3.093-.294.018-.6,0-.889,0l-27.857-.1-.8,0c-3.089-.011-3.093,4.789,0,4.8l27.781.1c2.035.007,4.01.008,5.777-1.239,2.241-1.579,2.694-3.909,3.7-6.291a42.889,42.889,0,0,1,3.685-6.676c2.867-4.4,6.166-8.514,8.825-13.053a40.113,40.113,0,0,0,5.2-15.09,38.984,38.984,0,0,0-7.375-28.7A41.242,41.242,0,0,0,49.241,29.912C30.027,25.746,9.068,36.077,2.288,54.871A40.215,40.215,0,0,0,4.045,85.8c2.3,4.691,5.492,8.87,8.431,13.163a66.156,66.156,0,0,1,4.034,6.529,30.141,30.141,0,0,1,1.431,3.071,28.1,28.1,0,0,0,1.369,3.612,7.258,7.258,0,0,0,6.153,3.606C28.552,115.905,28.547,111.105,25.463,110.982Z"/></svg>