<svg xmlns="http://www.w3.org/2000/svg" width="306.839" height="323.08" viewBox="0 0 306.839 323.08" style="color: initial !important;"><defs><style>.cls-1{fill:#bdbdbd;}.cls-2{fill:#ffffff;}.cls-3{fill:#211715;}.cls-4{fill:#ffda71;}</style></defs><g id="color"><path class="cls-3" d="M99.389,80.696v19.273c0,3.089,4.8,3.094,4.8,0v-19.273c0-3.089-4.8-3.094-4.8,0h0Z"/><path class="cls-2" d="M91.716,79.364c-.519,0-1.038,0-1.557,0-1.127,0-2.041-.913-2.041-2.04,0,0,0-11.626-.007-20.148,5.974.01,21.05.013,27.023.013-.008,8.441-.008,20.133-.008,20.133,0,1.127-.914,2.041-2.041,2.041-7.123,0-14.247,0-21.37.002Z"/><path class="cls-2" d="M2.627,10.8v85.71c0,2.254,1.827,4.081,4.081,4.081h58.161c2.254,0,4.081-1.819,4.081-4.073,0-11.974,0-48.552,0-85.719,0-2.254-1.827-4.082-4.081-4.082H6.708c-2.254,0-4.081,1.827-4.081,4.081Z"/><path class="cls-3" d="M.227,10.8c0,5.928,0,11.856,0,17.784,0,11.942,0,23.885,0,35.827,0,9.504,0,19.007,0,28.511,0,2.772-.341,5.695,1.685,7.941,2.421,2.683,6.255,2.128,9.505,2.128,11.121,0,22.241,0,33.362,0h15.161c3.184,0,7.043.567,9.511-1.894,2.442-2.435,1.898-6.098,1.898-9.245,0-3.474,0-6.948,0-10.422,0-9.666,0-19.332,0-28.998,0-11.889,0-23.779,0-35.668,0-1.573,0-3.147,0-4.72,0-1.42-.035-2.736-.648-4.044-1.069-2.281-3.363-3.592-5.833-3.682-.622-.023-1.248,0-1.87,0h-30.578c-8.512,0-17.047-.186-25.557,0C3.175,4.399.376,7.101.227,10.8c-.125,3.089,4.675,3.083,4.8,0,.058-1.442,1.245-1.681,2.406-1.681h17.942c11.084,0,22.168,0,33.252,0h4.604c.617,0,1.373-.107,1.976.023,1.967.424,1.343,3.209,1.343,4.643,0,2.971,0,5.941,0,8.912,0,5.872,0,11.744,0,17.616,0,17.618,0,35.237,0,52.855,0,1.7.662,4.846-1.711,5.024-.721.054-1.468,0-2.19,0h-12.343c-11.362,0-22.723,0-34.085,0-3.045,0-6.09.022-9.135,0-2.137-.015-2.059-1.687-2.059-3.299,0-8.103,0-16.206,0-24.309,0-11.822,0-23.643,0-35.465,0-7.718,0-15.436,0-23.154v-1.166c0-3.089-4.8-3.094-4.8,0Z"/><path class="cls-3" d="M16.094,25.255v18.318c0,.547-.027,1.102,0,1.649.097,1.97,1.425,3.395,3.42,3.52,2.837.178,5.742,0,8.584,0h15.921c1.971,0,3.943,0,5.914,0,1.099,0,2.322.133,3.366-.259,2.366-.887,2.173-3.27,2.173-5.297v-7.152c0-2.532,0-5.064,0-7.596,0-1.386.239-3.104-.259-4.43-.776-2.07-2.732-2.173-4.56-2.173h-21.077c-3.306,0-6.654-.153-9.957,0-1.643.076-3.164,1.067-3.44,2.782-.206,1.278.331,2.583,1.676,2.952,1.144.314,2.745-.389,2.952-1.676-.393,2.435-1.842.609-1.154.742.135.026.302,0,.439,0h21.781c2.112,0,4.224,0,6.337,0,1.158,0,2.394.124,3.546,0,1.069-.115-1.032-1.514-1.084-1.28-.095.431,0,.996,0,1.434v6.278c0,2.449,0,4.897,0,7.346v2.933c0,.504-.14,1.239,0,1.726.119.415-.636.883.689-.44,1.443-1.441.883-.578.512-.688-.324-.096-.829,0-1.165,0h-4.804c-8.525,0-17.049,0-25.574,0-.159,0-.654-.09-.793,0,.37-.241,1.103,1.892,1.357,1.258.056-.139,0-.427,0-.573v-19.373c0-3.089-4.8-3.094-4.8,0Z"/><path class="cls-3" d="M27.091,31.944v6.462c0,1.255,1.104,2.458,2.4,2.4s2.4-1.055,2.4-2.4v-6.462c0-1.255-1.104-2.458-2.4-2.4s-2.4,1.055-2.4,2.4h0Z"/><path class="cls-2" d="M85.617,55.954c0-1.507,0-4.044.002-5.547,0-.675.548-1.221,1.224-1.221h29.56c.676,0,1.224.548,1.224,1.224v5.555c0,.676-.542,1.224-1.218,1.224-5.075,0-24.509-.002-29.577-.016-.675-.002-1.215-.544-1.214-1.219Z"/><path class="cls-3" d="M39.449,31.944v6.462c0,1.255,1.104,2.458,2.4,2.4s2.4-1.055,2.4-2.4v-6.462c0-1.255-1.104-2.458-2.4-2.4s-2.4,1.055-2.4,2.4h0Z"/><path class="cls-3" d="M16.094,61.988v9.288c0,3.535-.147,7.104,0,10.636.057,1.362.645,2.534,1.884,3.184,1.41.739,3.566.38,5.121.38,3.36,0,6.721,0,10.081,0,5.801,0,11.603,0,17.404,0,1.33,0,2.722.089,3.774-.9.798-.75,1.077-1.717,1.115-2.772.051-1.406,0-2.823,0-4.23v-13.034c0-1.092.181-2.442-.138-3.512-.59-1.981-2.396-2.46-4.185-2.46h-10.217c-4.606,0-9.212,0-13.818,0-2.507,0-5.056-.137-7.56,0-1.614.088-3.105,1.108-3.375,2.782-.206,1.278.331,2.583,1.676,2.952,1.144.314,2.745-.389,2.952-1.676-.04.247-1.625.553-1.188.742.077.033.221-.008.305,0,.396.039.816,0,1.214,0h16.633c3.721,0,7.442,0,11.163,0,.887,0,1.946.16,2.822,0,1.069-.196-1.348-.84-1.084-1.329-.109.201,0,.745,0,.968v11.237c0,1.865,0,3.73,0,5.595v1.663c0,.117-.043.324,0,.431.01.024-.014.074,0,.095-.292-.429,1.906-1.065,1.056-1.353-.63-.214-1.699,0-2.363,0-1.139,0-2.278,0-3.417,0-2.814,0-5.628,0-8.442,0-3.194,0-6.388,0-9.582,0-1.554,0-3.108,0-4.662,0-.645,0-1.289,0-1.934,0-.327,0-.76-.084-1.076,0-.075.02-.4-.053-.449,0,.337-.369.759,1.77,1.089,1.363.095-.117,0-.748,0-.888v-19.163c0-3.089-4.8-3.094-4.8,0Z"/><path class="cls-3" d="M27.091,68.677v6.462c0,1.255,1.104,2.458,2.4,2.4s2.4-1.055,2.4-2.4v-6.462c0-1.255-1.104-2.458-2.4-2.4s-2.4,1.055-2.4,2.4h0Z"/><path class="cls-3" d="M39.449,68.677v6.462c0,1.255,1.104,2.458,2.4,2.4s2.4-1.055,2.4-2.4v-6.462c0-1.255-1.104-2.458-2.4-2.4s-2.4,1.055-2.4,2.4h0Z"/><path class="cls-3" d="M88.017,55.954c0-1.051,0-2.102,0-3.153,0-.551.109-1.24,0-1.785-.22-1.104-.762.942-1.151.571.137.131,1.041,0,1.218,0h24.157c1.468,0,3.027-.152,4.486.044l-1.211-.328c.207.058.387.163.54.315l-.861-.861c.152.153.257.333.315.54l-.328-1.211c.242,1.802-.23,3.698.044,5.489.01.064-.043.279,0,.336-.105-.141,1.332-.906.909-1.121-.251-.128-.946,0-1.233,0-1.061,0-2.121,0-3.182,0-5.892,0-11.784-.002-17.677-.006-1.394,0-2.788-.002-4.182-.004-.54,0-1.08-.001-1.619-.002-.255,0-.509,0-.764-.001-1.181-.003.363-.14.538,1.18-.171-1.285-.981-2.4-2.4-2.4-1.164,0-2.572,1.106-2.4,2.4.199,1.497.834,2.839,2.366,3.368.786.272,1.574.252,2.394.253,1.392.003,2.784.004,4.176.005,3.834.003,7.668.005,11.502.006,3.455.001,6.91.002,10.364.002,1.585,0,3.424.252,4.702-.87,1.387-1.217,1.305-2.794,1.305-4.455,0-1.26.069-2.54,0-3.798-.116-2.101-1.585-3.569-3.692-3.679-1.416-.074-2.856,0-4.273,0h-24.585c-1.167,0-2.319.185-3.196,1.06-1.151,1.149-1.062,2.713-1.063,4.21,0,1.299,0,2.599,0,3.898,0,3.089,4.8,3.094,4.8,0Z"/><path class="cls-3" d="M85.718,58.356v16.631c0,1.419-.184,3.044.494,4.339,1.196,2.288,3.38,2.438,5.692,2.437,2.409,0,4.818,0,7.227-.001,2.492,0,4.984,0,7.476,0,1.163,0,2.326,0,3.489,0,1.279,0,2.703.178,3.959-.112,2.612-.603,3.472-2.918,3.472-5.301v-17.66c0-3.089-4.8-3.094-4.8,0v17.537c0,.183-.115.898,0,1.055.026.036.22-.553.359-.32-.149-.248-3.16,0-3.489,0-2.243,0-4.486,0-6.728,0s-4.486,0-6.728,0c-1.08,0-2.16,0-3.24,0-.581,0-1.163,0-1.744,0-.214,0-.542-.057-.748,0-.443.123-.135-.052.005.106.241.271.105.186.105-.287v-18.427c0-3.089-4.8-3.094-4.8,0h0Z"/><path class="cls-3" d="M92.47,40.788v8.272c0,1.255,1.104,2.458,2.4,2.4s2.4-1.055,2.4-2.4v-8.272c0-1.255-1.104-2.458-2.4-2.4s-2.4,1.055-2.4,2.4h0Z"/><path class="cls-3" d="M106.974,40.788v8.272c0,1.255,1.104,2.458,2.4,2.4s2.4-1.055,2.4-2.4v-8.272c0-1.255-1.104-2.458-2.4-2.4s-2.4,1.055-2.4,2.4h0Z"/><path class="cls-2" d="M8.395,295.088v-38.249s0-.429,0-1.186c14.194-14.194,48.686-48.686,48.686-48.686.301-.301.79-.301,1.091,0,0,0,34.492,34.492,48.686,48.686,0,.757,0,1.186,0,1.186v62.747c0,.542-.44.982-.982.982H9.377c-.542,0-.982-.44-.982-.982v-24.499Z"/><path class="cls-4" d="M47.811,250.372c-2.826,1.655-5.2,4.041-6.692,6.975-2.558,5.031-2.484,11.313.192,16.282,2.484,4.613,6.331,8.023,7.212,13.114,0,0,.361,2.089.723,4.178.22,0,.439,0,.439,0h15.201s.221,0,.442,0c.361-2.089.723-4.178.723-4.178.881-5.091,4.728-8.501,7.212-13.114,2.676-4.969,2.75-11.251.192-16.282-2.995-5.891-9.549-9.57-16.168-9.57-3.323,0-6.629.927-9.476,2.595Z"/><path class="cls-3" d="M50.837,286.105c-1.256-6.633-7.293-10.862-8.804-17.348-1.388-5.962.972-12.349,6.092-15.753,4.865-3.234,11.181-3.768,16.43-1.104,5.571,2.828,8.753,8.384,8.325,14.641-.522,7.619-7.755,12.227-9.144,19.563-.241,1.272.355,2.589,1.676,2.952,1.172.322,2.71-.396,2.952-1.676.656-3.463,2.785-6.191,4.752-9.021,2.256-3.246,3.937-6.625,4.437-10.587.958-7.6-2.542-15.007-8.989-19.112-6.107-3.889-13.785-4.226-20.311-1.223-6.832,3.143-11.233,9.952-11.399,17.454-.098,4.402,1.326,8.518,3.719,12.167,2.165,3.301,4.879,6.334,5.634,10.322.241,1.274,1.776,2,2.952,1.676,1.335-.367,1.918-1.674,1.676-2.952h0Z"/><path class="cls-2" d="M50.25,299.494c-.875-1.338-1.375-2.993-1.388-4.868,0,0,0-1.118,0-2.879,0-.455.369-.826.824-.826h15.201c.456,0,.826.37.826.826v2.879c-.035,4.978-3.353,8.22-8.425,8.22-3.056,0-5.573-1.114-7.037-3.352Z"/><path class="cls-3" d="M52.322,298.282c-.74-1.171-1.041-2.296-1.061-3.657-.003-.23,0-.46,0-.691,0-.645.18-1.58,0-2.188.916,3.094-2.439,1.484-1.425,1.574.164.015.337,0,.502,0h1.597c3.418,0,6.835,0,10.253,0,.955,0,1.968-.098,2.917.03l-1.211-.328c.14.039.262.11.365.212l-.861-.861c.102.103.173.225.212.365l-.328-1.211c.154,1.143.074,2.406.017,3.56-.004.083-.079.835-.042.571.038-.27-.093.454-.111.53-.063.27-.138.538-.227.801-.039.117-.283.667-.054.18-.197.42-.431.805-.678,1.194-.159.218-.15.21.025-.024-.082.099-.166.196-.253.29-.153.166-.32.314-.479.473-.418.418.185-.078-.194.167-.22.142-.435.288-.664.416-.174.097-.354.183-.533.27.508-.246-.272.092-.379.126-.476.151-.967.267-1.461.335.51-.07-.152,0-.26.007-.323.02-.646.025-.97.018-.306-.007-.611-.024-.915-.056-.173-.018-.171-.017.007.003-.164-.027-.327-.058-.489-.093-.316-.068-.629-.152-.936-.255-.024-.008-.691-.289-.302-.106-.278-.131-.549-.277-.809-.441-.072-.046-.563-.412-.252-.158-.235-.192-.456-.404-.662-.627-.104-.113-.204-.229-.301-.348.142.177.129.15-.037-.08-.727-1.072-2.112-1.546-3.284-.861-1.063.622-1.592,2.206-.861,3.284,1.808,2.666,4.509,4.082,7.671,4.452,2.575.302,5.414-.156,7.617-1.581,2.168-1.402,3.722-3.592,4.31-6.113.412-1.769.37-3.632.337-5.439s-1.129-3.298-3.007-3.475c-.259-.025-.506-.03-.767-.03h-3.796c-3.201,0-6.402,0-9.604,0-.388,0-.779-.015-1.167,0-1.95.075-3.228,1.47-3.31,3.387-.129,3.036.05,6.158,1.716,8.797.691,1.095,2.138,1.531,3.284.861,1.092-.638,1.556-2.183.861-3.284Z"/><path class="cls-3" d="M5.995,256.84v60.173c0,2.592-.18,5.765,3.451,5.956,4.742.25,9.565,0,14.312,0h29.873c10.516,0,21.032,0,31.549,0,6.438,0,12.876,0,19.314,0,.44,0,.888.023,1.328,0,2.089-.111,3.365-1.613,3.437-3.635.083-2.335,0-4.688,0-7.024v-30.056c0-8.045,0-16.09,0-24.135v-1.279c0-3.089-4.8-3.094-4.8,0v59.495c0,.919-.038,1.847,0,2.765.006.143-.037.331,0,.47-.556-2.062,2.188-1.245,1.252-1.402-1.487-.248-3.231,0-4.733,0h-10.038c-9.814,0-19.627,0-29.441,0h-30.898c-6.51,0-13.019,0-19.529,0-.433,0-1.135-.138-1.551,0-.759.252,1.533.975,1.274,1.397.057-.094,0-.409,0-.516v-7.682c0-9.95,0-19.9,0-29.85,0-7.8,0-15.6,0-23.4v-1.279c0-3.089-4.8-3.094-4.8,0h0Z"/><path class="cls-3" d="M4.1,263.343c6.156-6.156,12.313-12.313,18.469-18.469,9.814-9.814,19.629-19.629,29.443-29.443l4.929-4.929,1.341-1.341c.121-.121.26-.238.369-.369.261-.315.189.153-.387.265h-1.276c-.715-.139-.628-.569-.423-.3.083.108.203.203.299.299l1.116,1.116,3.979,3.979,12.985,12.985,29.443,29.443c2.255,2.255,4.51,4.51,6.765,6.765,2.187,2.187,5.582-1.206,3.394-3.394-6.269-6.269-12.538-12.538-18.807-18.807-9.881-9.881-19.762-19.762-29.643-29.643-2.056-2.056-4.036-4.258-6.201-6.201-1.819-1.633-3.729-.811-5.169.629l-3.216,3.216-28.131,28.131c-7.434,7.434-14.868,14.868-22.302,22.302l-.373.373c-2.187,2.187,1.206,5.582,3.394,3.394h0Z"/><path class="cls-3" d="M266.113,276.919c-6.611-4.61-18.1-12.836-25.326-18.255-.397-.297-.445-.867-.104-1.227,14.197-15.012,30.863-32.191,46.433-48.181.698-.716,1.83.192,1.29,1.033-8.946,13.922-17.542,26.499-26.893,40.133-.291.424-.142,1.009.325,1.225,9.691,4.483,23.034,10.155,32.29,14.247.549.243.668.967.224,1.371-18.424,16.748-37.8,34.09-56.539,50.828-.748.668-1.821-.315-1.217-1.117,10.396-13.797,26.376-34.577,29.7-38.877.29-.376.207-.908-.183-1.18Z"/><path class="cls-3" d="M267.324,274.847c-4.168-2.908-8.307-5.857-12.432-8.824-2.252-1.62-4.5-3.247-6.74-4.884-1.053-.77-2.105-1.541-3.154-2.316-.47-.347-.94-.695-1.409-1.044-.27-.201-.54-.402-.81-.603l-.264-.197c-.359-.266-.347-.26.038.017l.328,1.211c.033.387-.62.881.092.3.162-.132.303-.32.447-.472.349-.369.698-.737,1.048-1.106.706-.745,1.413-1.489,2.12-2.233,1.441-1.515,2.884-3.029,4.328-4.541,2.973-3.113,5.954-6.22,8.938-9.322,6.136-6.377,12.291-12.734,18.456-19.082,1.758-1.811,3.518-3.621,5.278-5.43.819-.842,1.638-1.684,2.458-2.526.435-.447.87-.894,1.305-1.341.163-.167.326-.334.488-.502.163-.167.325-.334.488-.501.422-.365.14-.373-.845-.024l-1.059-.617-.295-.803.328-1.211c-.6,1.389-1.681,2.702-2.505,3.972-.875,1.348-1.753,2.695-2.635,4.039-1.653,2.52-3.316,5.033-4.989,7.54-3.458,5.183-6.954,10.341-10.467,15.487-1.767,2.589-3.538,5.175-5.311,7.761-.872,1.272-1.91,2.497-1.46,4.152.418,1.536,1.757,2.076,3.07,2.677,4.966,2.273,9.967,4.467,14.972,6.651,2.763,1.206,5.527,2.406,8.291,3.61,1.326.578,2.653,1.156,3.978,1.736,1.215.532,2.65.971,3.755,1.704l-.861-.861-.08-.861.617-1.059c-.676.865-1.656,1.57-2.469,2.308-.945.858-1.89,1.715-2.835,2.572-1.841,1.669-3.683,3.336-5.527,5.003-3.655,3.304-7.315,6.604-10.978,9.9-7.421,6.679-14.856,13.342-22.297,19.999-2.047,1.831-4.094,3.662-6.142,5.492-1.08.965-2.16,1.93-3.239,2.895-.479.428-.958.856-1.436,1.283-.239.214-.478.427-.717.641-.155.138-1.039.67-.541.564h1.276l.928,1.248-.328,1.211c.838-1.602,2.253-3.069,3.346-4.511,1.215-1.604,2.431-3.206,3.649-4.807,2.472-3.252,4.95-6.499,7.43-9.744,4.178-5.466,8.364-10.925,12.559-16.377.693-.9,1.386-1.8,2.079-2.7.142-.184.284-.368.426-.552.385-.5-.371.604.165-.214.959-1.461.845-3.052-.37-4.331-2.131-2.245-5.521,1.153-3.394,3.394l.234.246-.617-1.059.012-.009.328-1.211c.122-.249.053.044-.281.476-.061.079-.122.158-.182.236-.155.2-.309.401-.464.601-.392.508-.783,1.016-1.175,1.524-1.013,1.316-2.026,2.632-3.038,3.949-2.808,3.653-5.612,7.31-8.412,10.969-3.23,4.221-6.455,8.445-9.671,12.676-1.567,2.062-3.133,4.125-4.694,6.191-.685.906-1.548,1.825-2.074,2.831-.832,1.589-.113,3.512,1.438,4.315,1.725.893,3.141-.07,4.407-1.201,1.317-1.176,2.634-2.353,3.951-3.53,2.527-2.259,5.054-4.518,7.581-6.778,5.202-4.654,10.402-9.311,15.596-13.974,5.123-4.6,10.242-9.206,15.352-13.82,2.563-2.314,5.124-4.63,7.682-6.949,1.182-1.071,2.363-2.143,3.544-3.215,1.239-1.125,3.01-2.259,3.081-4.101.075-1.953-1.408-2.847-2.976-3.537-1.389-.612-2.78-1.22-4.171-1.827-3.043-1.328-6.089-2.65-9.133-3.976-3.129-1.364-6.255-2.732-9.375-4.116-1.493-.663-2.985-1.329-4.473-2.002-1.312-.593-2.899-1.093-4.076-1.921l.861.861.121.425-.328,1.211c.56-1.231,1.565-2.373,2.331-3.491.819-1.195,1.637-2.39,2.455-3.585,1.57-2.295,3.137-4.592,4.699-6.891,3.144-4.627,6.269-9.266,9.361-13.927,1.586-2.392,3.164-4.79,4.731-7.194.706-1.084,1.411-2.169,2.113-3.256.738-1.142,1.833-2.381,1.789-3.822-.042-1.407-1.074-2.661-2.423-3.033-1.572-.433-2.726.471-3.749,1.522-1.965,2.018-3.929,4.036-5.892,6.055-7.761,7.982-15.511,15.977-23.228,24.002-3.753,3.902-7.498,7.812-11.231,11.733-1.761,1.85-3.589,3.658-5.285,5.568-.96,1.081-1.429,2.468-.725,3.836.53,1.029,1.577,1.627,2.485,2.302,7.907,5.885,15.925,11.631,24.008,17.271,1.064.742,2.666.194,3.284-.861.699-1.196.205-2.54-.861-3.284Z"/><path class="cls-1" d="M272.959,104.816c-.227,0-.446,0-.656,0-1.79,0-3.24-1.444-3.241-3.234-.036-40.003-.091-83.217-.1-95.836-.001-1.791,1.447-3.236,3.238-3.238,4.102-.003,11.429-.011,14.783-.017,1.793-.003,3.244,1.441,3.244,3.234,0,24.152,0,81.366,0,95.857,0,1.792-1.454,3.237-3.246,3.236-4.668-.002-11.055-.002-14.023-.003Z"/><path class="cls-3" d="M244.886,19.218c.104,3.804-.102,7.612.002,11.416.034,1.254,1.079,2.459,2.4,2.4,1.271-.057,2.437-1.056,2.4-2.4-.104-3.804.102-7.612-.002-11.416-.034-1.254-1.079-2.459-2.4-2.4-1.271.057-2.437,1.056-2.4,2.4h0Z"/><path class="cls-3" d="M255.677,19.218c.104,3.804-.102,7.612.002,11.416.034,1.254,1.079,2.459,2.4,2.4,1.271-.057,2.437-1.056,2.4-2.4-.104-3.804.102-7.612-.002-11.416-.034-1.254-1.079-2.459-2.4-2.4-1.271.057-2.437,1.056-2.4,2.4h0Z"/><path class="cls-3" d="M244.886,50.892c.104,3.804-.102,7.612.002,11.416.034,1.254,1.079,2.459,2.4,2.4,1.271-.057,2.437-1.056,2.4-2.4-.104-3.804.102-7.612-.002-11.416-.034-1.254-1.079-2.459-2.4-2.4-1.271.057-2.437,1.056-2.4,2.4h0Z"/><path class="cls-3" d="M255.677,50.892c.104,3.804-.102,7.612.002,11.416.034,1.254,1.079,2.459,2.4,2.4,1.271-.057,2.437-1.056,2.4-2.4-.104-3.804.102-7.612-.002-11.416-.034-1.254-1.079-2.459-2.4-2.4-1.271.057-2.437,1.056-2.4,2.4h0Z"/><path class="cls-3" d="M272.959,102.416c-.591,0-1.145.074-1.433-.502-.373-.747-.066-2.258-.067-3.106-.003-2.786-.005-5.573-.008-8.359-.005-5.4-.011-10.8-.016-16.201-.011-10.351-.022-20.702-.034-31.053-.009-8.223-.019-16.446-.027-24.669-.003-2.912-.006-5.824-.009-8.736-.001-1.094-.002-2.188-.003-3.282-.001-1.39.319-1.599,1.719-1.6,4.108-.004,8.217-.008,12.325-.013,1.292-.002,2.393-.284,2.42,1.257.024,1.368,0,2.74,0,4.108,0,6.724,0,13.448,0,20.172,0,15.442,0,30.884,0,46.325,0,6.052,0,12.105,0,18.157,0,2.049,0,4.097,0,6.146,0,1.569-.946,1.359-2.331,1.359-2.314,0-4.627-.001-6.941-.002-1.866,0-3.731,0-5.597,0-3.089,0-3.094,4.8,0,4.8,4.553,0,9.109.058,13.661.003,2.613-.032,4.998-1.42,5.777-4.034.352-1.182.232-2.511.232-3.735,0-5.644,0-11.289,0-16.933,0-16.241,0-32.482,0-48.723,0-7.352,0-14.705,0-22.057,0-1.498,0-2.997,0-4.495,0-2.14-.149-4.189-1.883-5.711-1.809-1.588-4.013-1.438-6.257-1.435-2.293.003-4.586.006-6.879.008-2.139.002-4.601-.317-6.7.157-2.592.585-4.234,2.914-4.346,5.486-.107,2.452.004,4.934.007,7.388.008,8.002.017,16.005.026,24.007.012,10.622.024,21.244.035,31.866.006,5.83.012,11.66.018,17.49.003,2.867.006,5.734.008,8.601.001,1.468.003,2.937.004,4.405.001,1.322-.12,2.716.343,3.978.954,2.603,3.323,3.735,5.956,3.736,3.089,0,3.094-4.8,0-4.8Z"/><path class="cls-3" d="M247.265,33.034c15.875-.001,31.749-.116,47.624-.171,3.211-.011,6.421-.024,9.632-.024,3.089,0,3.094-4.8,0-4.8-15.798.001-31.596.117-47.393.171-3.287.011-6.575.024-9.862.024-3.089,0-3.094,4.8,0,4.8h0Z"/><path class="cls-3" d="M247.265,64.708c15.875-.001,31.749-.116,47.624-.171,3.211-.011,6.421-.024,9.632-.024,3.089,0,3.094-4.8,0-4.8-15.798.001-31.596.117-47.393.171-3.287.011-6.575.024-9.862.024-3.089,0-3.094,4.8,0,4.8h0Z"/><path class="cls-3" d="M238.795,63.511c-4.304,1.313-8.609,2.625-12.913,3.938-1.199.366-2.083,1.695-1.676,2.952.392,1.21,1.666,2.068,2.952,1.676,4.304-1.313,8.609-2.625,12.913-3.938,1.199-.366,2.083-1.695,1.676-2.952-.392-1.21-1.666-2.068-2.952-1.676h0Z"/><path class="cls-3" d="M238.795,31.21c-4.304,1.313-8.609,2.625-12.913,3.938-1.199.366-2.083,1.695-1.676,2.952.392,1.21,1.666,2.068,2.952,1.676,4.304-1.313,8.609-2.625,12.913-3.938,1.199-.366,2.083-1.695,1.676-2.952-.392-1.21-1.666-2.068-2.952-1.676h0Z"/></g></svg>