<svg xmlns="http://www.w3.org/2000/svg" viewBox="0 0 80 160"><defs><style>.a{fill:#ffffff;}.b{fill:#211715;}.c{fill:#ffda71;}</style></defs><path class="a" d="M59.087,111.144a4.693,4.693,0,0,1-4.073,2.343l-29.551-.1a4.692,4.692,0,0,1-4.011-2.3c-2.959,2.755-2.527,7.071-2.527,7.071-.078,2.961.8,6.132,1.827,7.338a7.4,7.4,0,0,0,.994.979,7.9,7.9,0,0,0,2.761,1.386l-.193.226c-1.43,1.061-1.848,3.3-1.721,5.478.125,2.126,1.088,4.835,3.156,5.738a17.291,17.291,0,0,0,4.27.93v2.176c.045,5.666,4.359,9.562,10.37,9.562,6.243,0,10.327-3.932,10.37-9.562v-2.176a17.291,17.291,0,0,0,4.27-.93c2.068-.9,3.032-3.612,3.156-5.738.127-2.179-.291-4.417-1.721-5.478l-.87-.07a7.689,7.689,0,0,0,4.432-2.521c.863-1.017,1.625-3.432,1.8-5.94C61.822,119.555,62.983,113.543,59.087,111.144Z"/><path class="c" d="M25.463,113.382a4.705,4.705,0,0,1-4.478-3.353c-2.728-8.97-9.666-15.651-14.307-24.345A37.638,37.638,0,0,1,6.4,51.38C12.75,38.991,26.584,31.289,40.531,31.339s27.726,7.849,33.992,20.283A37.637,37.637,0,0,1,74,85.924c-4.7,8.66-11.688,15.292-14.48,24.242a4.7,4.7,0,0,1-4.5,3.321Z"/><path class="c" d="M49.053,103.45V94.19a.091.091,0,0,1,.028-.066,15.325,15.325,0,0,0,4.493-8.752c.775-3.844-.142-7.891-3.182-10.367-3.392-2.762-10.067-3.791-13.5-.7a6.075,6.075,0,0,0-1.975,5.053,5.524,5.524,0,0,0,3.692,4.755,6.229,6.229,0,0,0,5.275-.686,6.477,6.477,0,0,0,2.139-2.613,4.739,4.739,0,0,0,.2-3.478c-2-5.736-9.175-5.811-13.747-3.429A10.263,10.263,0,0,0,27.5,79.438a11.968,11.968,0,0,0,.184,7.937,16.387,16.387,0,0,0,3.606,5.975.1.1,0,0,1,.024.063v3.493a6.639,6.639,0,0,0,6.639,6.639H48.958A.1.1,0,0,0,49.053,103.45Z"/><path class="b" d="M12.139,9.765q2.136,5.723,4.334,11.421a2.457,2.457,0,0,0,2.952,1.677A2.428,2.428,0,0,0,21.1,19.91q-2.2-5.7-4.334-11.421a2.453,2.453,0,0,0-2.952-1.676,2.428,2.428,0,0,0-1.677,2.952Z"/><path class="b" d="M64.108,8.674q-2.177,5.708-4.415,11.39a2.408,2.408,0,0,0,1.676,2.952,2.469,2.469,0,0,0,2.952-1.676q2.239-5.682,4.415-11.39A2.41,2.41,0,0,0,67.06,7a2.466,2.466,0,0,0-2.952,1.676Z"/><path class="b" d="M42.818,14.657q.023-6.128.044-12.255a2.4,2.4,0,1,0-4.8,0q-.021,6.127-.044,12.255a2.4,2.4,0,1,0,4.8,0Z"/><path class="b" d="M22.616,126.389c-2.2,1.823-2.67,5.112-2.364,7.8.3,2.647,1.395,5.392,3.725,6.884A10.625,10.625,0,0,0,28,142.35c1.822.3,3.664.484,5.506.606a105.712,105.712,0,0,0,12.371.082c3.123-.158,6.594-.238,9.561-1.328a8.1,8.1,0,0,0,4.9-6.246c.6-3.015.372-6.966-2.173-9.075a2.468,2.468,0,0,0-3.395,0,2.42,2.42,0,0,0,0,3.394c1.329,1.1,1.216,3.372.827,4.89a4.42,4.42,0,0,1-.969,2.012c-.069.072-.758.554-.346.35a4.138,4.138,0,0,1-.654.225,28.778,28.778,0,0,1-7.466.963c-3.459.186-6.932.2-10.393.055-1.543-.064-3.084-.161-4.62-.317-.323-.033-.645-.07-.967-.107-.746-.086.274.042-.158-.019-.144-.02-.289-.041-.433-.064-.578-.089-1.156-.19-1.725-.325a6.331,6.331,0,0,1-1.364-.411c.431.214-.067-.079-.1-.11a4.28,4.28,0,0,1-.461-.481,4.21,4.21,0,0,1-.508-.967c-.647-1.649-.931-4.441.581-5.694a2.419,2.419,0,0,0,0-3.394,2.454,2.454,0,0,0-3.395,0Z"/><path class="b" d="M16.525,118.157c-.042,4.091.994,8.545,4.655,10.85,3,1.889,6.888,2,10.324,2.139,4.734.186,9.489.186,14.225.091,3.7-.075,7.665-.012,11.241-1.1a9.884,9.884,0,0,0,4.833-3.044c1.71-2.065,2.2-4.939,2.419-7.533a2.419,2.419,0,0,0-2.4-2.4,2.449,2.449,0,0,0-2.4,2.4c-.118,1.43-.476,3.491-1.279,4.454A5.183,5.183,0,0,1,55.37,125.6a20.519,20.519,0,0,1-2.48.5c.55-.081-.04,0-.271.019-.312.03-.625.054-.939.076-1.758.125-3.522.183-5.284.225-4.162.1-8.336.1-12.5,0-1.628-.038-3.257-.09-4.882-.2-.3-.021-.6-.043-.9-.072-.1-.009-.743-.081-.388-.035.489.064-.378-.065-.486-.083-.2-.035-.4-.071-.6-.111-.475-.095-.948-.2-1.412-.342a5.142,5.142,0,0,1-2.706-1.71c-1.053-1.581-1.216-3.873-1.2-5.708.032-3.09-4.768-3.092-4.8,0Z"/><path class="b" d="M27.619,142.408a11.9,11.9,0,0,0,8.49,11.349c4.755,1.467,10.809.429,14.157-3.459a12.244,12.244,0,0,0,2.893-7.89c.06-3.09-4.74-3.09-4.8,0a7.063,7.063,0,0,1-2.069,5.112,8.495,8.495,0,0,1-5.748,2.049,8.611,8.611,0,0,1-5.785-1.869,6.3,6.3,0,0,1-1.768-2.388c.149.324-.114-.305-.137-.372a9.677,9.677,0,0,1-.279-1c0,.014-.13-.731-.089-.42a10.279,10.279,0,0,1-.065-1.109c-.064-3.085-4.864-3.095-4.8,0Z"/><path class="b" d="M51.453,103.545c0-2.2-.01-4.395,0-6.592.008-1.692.782-2.646,1.71-4A18.285,18.285,0,0,0,55.8,86.442c.994-4.616.179-9.794-3.565-13.012a15.018,15.018,0,0,0-12.031-3.2,8.846,8.846,0,0,0-7.55,10.2c.953,5.565,7.39,7.833,12.087,5.274A7.85,7.85,0,0,0,46.5,73.191c-2.684-2.956-6.965-3.542-10.715-2.9-4.905.839-9.4,4.215-10.785,9.116-1.618,5.726.929,11.389,4.621,15.669a2.421,2.421,0,0,0,3.394,0,2.449,2.449,0,0,0,0-3.394c-2.251-2.609-3.9-5.8-3.683-9.338A8,8,0,0,1,34.8,75.494a10.754,10.754,0,0,1,3.654-.665,6.962,6.962,0,0,1,3.162.63,4.351,4.351,0,0,1,2.177,2.211,3.085,3.085,0,0,1-1.123,3.681,3.736,3.736,0,0,1-4.289-.014,3.367,3.367,0,0,1-.946-3.546c.749-2.713,4.019-3.209,6.422-2.918,2.879.348,5.71,1.767,6.915,4.493,1.291,2.921.6,6.693-.763,9.468-.892,1.819-2.356,3.227-2.977,5.189a11.614,11.614,0,0,0-.38,3.542v5.98c0,3.089,4.8,3.094,4.8,0Z"/><path class="b" d="M25.463,110.982c-1.99-.08-2.239-1.982-2.821-3.507a42.69,42.69,0,0,0-3.267-6.679c-2.463-4.122-5.428-7.915-8.029-11.947a39.638,39.638,0,0,1-5.778-13.2A35.211,35.211,0,0,1,5.4,61.668,33.389,33.389,0,0,1,19.625,40.14a37.552,37.552,0,0,1,24.6-6.208A36.993,36.993,0,0,1,66.641,44.714a33.739,33.739,0,0,1,9.34,24.737,34.35,34.35,0,0,1-3.133,13.433c-2.131,4.541-5.179,8.586-8.058,12.667a55.684,55.684,0,0,0-7.062,12.443c-.56,1.5-.861,2.981-2.717,3.093-.294.018-.6,0-.889,0l-27.857-.1-.8,0c-3.089-.011-3.093,4.789,0,4.8l27.781.1c2.035.007,4.01.008,5.777-1.239,2.241-1.579,2.694-3.909,3.7-6.291a42.889,42.889,0,0,1,3.685-6.676c2.867-4.4,6.166-8.514,8.825-13.053a40.113,40.113,0,0,0,5.2-15.09,38.984,38.984,0,0,0-7.375-28.7A41.242,41.242,0,0,0,49.241,29.912C30.027,25.746,9.068,36.077,2.288,54.871A40.215,40.215,0,0,0,4.045,85.8c2.3,4.691,5.492,8.87,8.431,13.163a66.156,66.156,0,0,1,4.034,6.529,30.141,30.141,0,0,1,1.431,3.071,28.1,28.1,0,0,0,1.369,3.612,7.258,7.258,0,0,0,6.153,3.606C28.552,115.905,28.547,111.105,25.463,110.982Z"/></svg>