<?xml version="1.0" encoding="UTF-8" standalone="no"?>
<svg
   xmlns:dc="http://purl.org/dc/elements/1.1/"
   xmlns:cc="http://creativecommons.org/ns#"
   xmlns:rdf="http://www.w3.org/1999/02/22-rdf-syntax-ns#"
   xmlns:svg="http://www.w3.org/2000/svg"
   xmlns="http://www.w3.org/2000/svg"
   xmlns:sodipodi="http://sodipodi.sourceforge.net/DTD/sodipodi-0.dtd"
   xmlns:inkscape="http://www.inkscape.org/namespaces/inkscape"
   width="264.58334mm"
   height="45.851219mm"
   viewBox="0 0 264.58335 45.851219"
   version="1.1"
   id="svg248"
   inkscape:version="1.0.1 (3bc2e813f5, 2020-09-07)"
   sodipodi:docname="ENEOS.svg">
  <defs
     id="defs242">
    <radialGradient
       id="h"
       cx="14606.29"
       cy="-3396.27"
       gradientUnits="userSpaceOnUse"
       r="34522.09"
       gradientTransform="matrix(1.4470314,0,0,1.4470314,64.008799,185.14707)">
      <stop
         offset="0"
         stop-color="#ec6c00"
         id="stop17" />
      <stop
         offset=".05"
         stop-color="#e96303"
         id="stop19" />
      <stop
         offset=".35"
         stop-color="#da3912"
         id="stop21" />
      <stop
         offset=".62"
         stop-color="#cf1a1c"
         id="stop23" />
      <stop
         offset=".84"
         stop-color="#c80723"
         id="stop25" />
      <stop
         offset="1"
         stop-color="#c60025"
         id="stop27" />
    </radialGradient>
    <radialGradient
       id="radialGradient188"
       cx="14606.29"
       cy="-3396.27"
       gradientUnits="userSpaceOnUse"
       r="34522.09">
      <stop
         offset="0"
         stop-color="#ec6c00"
         id="stop176" />
      <stop
         offset=".05"
         stop-color="#e96303"
         id="stop178" />
      <stop
         offset=".35"
         stop-color="#da3912"
         id="stop180" />
      <stop
         offset=".62"
         stop-color="#cf1a1c"
         id="stop182" />
      <stop
         offset=".84"
         stop-color="#c80723"
         id="stop184" />
      <stop
         offset="1"
         stop-color="#c60025"
         id="stop186" />
    </radialGradient>
  </defs>
  <sodipodi:namedview
     id="base"
     pagecolor="#ffffff"
     bordercolor="#666666"
     borderopacity="1.0"
     inkscape:pageopacity="0.0"
     inkscape:pageshadow="2"
     inkscape:zoom="1"
     inkscape:cx="868.30964"
     inkscape:cy="-127.90811"
     inkscape:document-units="mm"
     inkscape:current-layer="layer1"
     inkscape:document-rotation="0"
     showgrid="false"
     fit-margin-top="0"
     fit-margin-left="0"
     fit-margin-right="0"
     fit-margin-bottom="0"
     inkscape:window-width="1920"
     inkscape:window-height="1001"
     inkscape:window-x="-9"
     inkscape:window-y="-9"
     inkscape:window-maximized="1" />
  <metadata
     id="metadata245">
    <rdf:RDF>
      <cc:Work
         rdf:about="">
        <dc:format>image/svg+xml</dc:format>
        <dc:type
           rdf:resource="http://purl.org/dc/dcmitype/StillImage" />
        <dc:title></dc:title>
      </cc:Work>
    </rdf:RDF>
  </metadata>
  <g
     inkscape:label="Layer 1"
     inkscape:groupmode="layer"
     id="layer1"
     transform="translate(-84.851719,-230.52011)">
    <g
       id="g568">
      <path
         id="use51"
         d="m 179.44504,274.32673 h 12.3549 v -18.28924 c 0.53984,0.36755 0.84229,0.57047 0.89972,0.61259 0.13788,0.11868 16.37112,12.18261 27.22521,18.71421 -0.005,-0.0422 -0.005,-0.0881 0,-0.13395 0.13788,-11.50496 0.10719,-18.98987 0.12261,-21.09944 0,-8.50715 0,-15.89253 -0.12261,-22.00299 -0.008,-0.0612 -0.008,-0.12638 0,-0.1876 H 207.4551 v 18.54959 c -0.53217,-0.35988 -0.82697,-0.55897 -0.88441,-0.59727 -0.1876,-0.10341 -17.01813,-12.59227 -27.12565,-18.88649 -0.0689,9.46047 -0.11868,16.5051 -0.11868,23.61866 0,6.02239 0,12.09839 0.11868,19.70199 z"
         style="fill:#231815;stroke-width:0.38286" />
      <path
         id="use53"
         d="m 179.44504,274.32673 h 12.3549 v -18.28924 c 0.53984,0.36755 0.84229,0.57047 0.89972,0.61259 0.13788,0.11868 16.37112,12.18261 27.22521,18.71421 -0.005,-0.0422 -0.005,-0.0881 0,-0.13395 0.13788,-11.50496 0.10719,-18.98987 0.12261,-21.09944 0,-8.50715 0,-15.89253 -0.12261,-22.00299 -0.008,-0.0612 -0.008,-0.12638 0,-0.1876 H 207.4551 v 18.54959 c -0.53217,-0.35988 -0.82697,-0.55897 -0.88441,-0.59727 -0.1876,-0.10341 -17.01813,-12.59227 -27.12565,-18.88649 -0.0689,9.46047 -0.11868,16.5051 -0.11868,23.61866 0,6.02239 0,12.09839 0.11868,19.70199 z"
         style="fill:none;stroke-width:0.38286" />
      <path
         id="use55"
         d="m 289.10008,230.54283 0.83847,0.046 0.83846,0.0727 0.83847,0.10719 0.83845,0.13017 0.83464,0.16463 0.82697,0.19143 0.82699,0.22207 0.81551,0.24886 0.80782,0.27949 0.80401,0.3101 0.78868,0.33692 0.77722,0.36373 0.76954,0.39434 0.75041,0.42497 0.73892,0.44795 0.71979,0.47858 0.70445,0.50921 0.68532,0.53217 0.66619,0.5628 0.64704,0.59343 0.62022,0.61641 0.6011,0.64703 0.57427,0.67002 0.55133,0.70062 0.52068,0.72743 0.49391,0.75425 0.46708,0.78103 0.43646,0.80783 0.402,0.83464 0.37138,0.86143 0.33692,0.88824 0.29863,0.91504 0.268,0.94184 0.22588,0.96863 0.19145,0.99162 0.14544,1.0184 0.11096,1.0452 0.0652,1.07201 0.023,1.09499 -0.019,0.94949 -0.0574,0.94183 -0.0957,0.93036 -0.13017,0.92268 -0.16846,0.90739 -0.20293,0.89206 -0.23353,0.88059 -0.27184,0.86909 -0.30245,0.84994 -0.3331,0.83847 -0.36755,0.81932 -0.39434,0.80402 -0.42496,0.78485 -0.45561,0.76572 -0.48624,0.74658 -0.5092,0.72361 -0.53983,0.70828 -0.56281,0.6815 -0.5896,0.66235 -0.6164,0.63555 -0.63556,0.6164 -0.66234,0.5896 -0.68532,0.56282 -0.70448,0.53982 -0.72743,0.50921 -0.74657,0.48623 -0.76571,0.4556 -0.78489,0.42499 -0.80016,0.39816 -0.81932,0.36373 -0.83847,0.33308 -0.84995,0.30247 -0.8691,0.27182 -0.88057,0.23737 -0.8959,0.19909 -0.90739,0.16846 -0.91886,0.13017 -0.93035,0.0957 -0.94183,0.0575 -0.94949,0.0192 -0.95332,-0.0192 -0.93802,-0.0575 -0.93416,-0.0957 -0.91888,-0.13017 -0.90739,-0.16846 -0.89205,-0.19909 -0.8844,-0.23737 -0.86527,-0.27182 -0.85378,-0.30247 -0.83463,-0.33308 -0.81933,-0.36373 -0.80401,-0.39816 -0.78485,-0.42499 -0.76574,-0.4556 -0.74657,-0.48623 -0.7236,-0.50921 -0.7083,-0.53982 -0.68149,-0.56282 -0.66236,-0.5896 -0.63936,-0.6164 -0.61259,-0.63555 -0.58959,-0.66235 -0.56281,-0.6815 -0.53983,-0.70828 -0.51303,-0.72361 -0.48242,-0.74658 -0.4556,-0.76572 -0.42497,-0.78485 -0.39818,-0.80402 -0.36371,-0.81932 -0.33691,-0.83847 -0.30246,-0.84994 -0.268,-0.86909 -0.23737,-0.88059 -0.19911,-0.89206 -0.16844,-0.90739 -0.13032,-0.92268 -0.0957,-0.93036 -0.0575,-0.94183 -0.019,-0.94949 V 253.078 l -0.005,-0.0268 v -0.27182 l 0.005,-0.0268 v -0.27184 l 0.005,-0.0268 V 252.32 l 0.005,-0.0268 v -0.0842 l 0.0497,-0.92269 0.0842,-0.91121 0.11868,-0.89973 0.15314,-0.88823 0.19144,-0.87292 0.22204,-0.86143 0.25653,-0.84996 0.28714,-0.83081 0.3216,-0.81931 0.3484,-0.80017 0.37904,-0.78488 0.40967,-0.76571 0.43645,-0.74658 0.46709,-0.73126 0.49006,-0.7083 0.51688,-0.68915 0.54364,-0.66618 0.57046,-0.64704 0.58962,-0.62406 0.61639,-0.60108 0.63939,-0.57429 0.65852,-0.55515 0.67765,-0.52452 0.70065,-0.50155 0.71977,-0.47475 0.73892,-0.44411 0.75808,-0.42115 0.77335,-0.38669 0.79254,-0.35988 0.80401,-0.3331 0.82314,-0.29863 0.83464,-0.268 0.84995,-0.23354 0.86143,-0.20292 0.87292,-0.16846 0.88824,-0.13395 0.89589,-0.0995 0.90357,-0.0612 0.91502,-0.0268 0.92271,0.008 z m -1.53145,12.40466 h -0.16462 l -0.0345,0.003 h -0.0996 l -0.0307,0.003 h -0.0689 l -0.0307,0.003 h -0.0345 l -0.46324,0.0345 -0.45562,0.0575 -0.44795,0.0765 -0.44028,0.0957 -0.43264,0.11489 -0.42497,0.13395 -0.41349,0.15315 -0.40582,0.16846 -0.39818,0.1876 -0.38669,0.20291 -0.3752,0.22206 -0.36373,0.23354 -0.35222,0.2527 -0.34075,0.268 -0.32925,0.27949 -0.31395,0.2948 -0.30247,0.3063 -0.29097,0.32159 -0.27567,0.3331 -0.25651,0.34457 -0.24503,0.35606 -0.22971,0.36755 -0.21442,0.37519 -0.19525,0.39053 -0.17995,0.39434 -0.16462,0.40583 -0.14543,0.4135 -0.12639,0.42114 -0.10719,0.4288 -0.0881,0.43646 -0.0689,0.44412 -0.0497,0.44795 -0.0268,0.45177 -0.0121,0.45944 0.0153,0.46325 v -0.11867 l 0.0121,0.55513 0.0267,0.53984 0.0497,0.53217 0.0689,0.5207 0.0881,0.50537 0.10719,0.49389 0.12639,0.48241 0.14165,0.46709 0.1608,0.45559 0.17995,0.4403 0.19525,0.42497 0.2144,0.4135 0.23355,0.40199 0.24503,0.38287 0.26418,0.36755 0.2833,0.35604 0.2948,0.33693 0.31396,0.32543 0.32543,0.30629 0.34457,0.29097 0.35606,0.27566 0.37138,0.26035 0.38669,0.24121 0.40199,0.22588 0.41734,0.20674 0.42497,0.1876 0.44411,0.17228 0.45561,0.15315 0.46709,0.13788 0.48239,0.1149 0.49007,0.0995 0.50538,0.0804 0.51686,0.0575 0.52835,0.0422 0.53983,0.0192 h 0.0957 l 0.023,0.003 h 0.30247 l 0.023,-0.003 h 0.14165 l 0.023,-0.003 h 0.0689 l 0.023,-0.003 h 0.0727 l 0.023,-0.003 h 0.023 l 0.47858,-0.0383 0.47475,-0.0575 0.46325,-0.0804 0.45944,-0.0995 0.44794,-0.11867 0.4403,-0.14166 0.42879,-0.15697 0.42115,-0.17611 0.41349,-0.19527 0.39818,-0.21439 0.39052,-0.22972 0.37904,-0.24503 0.36753,-0.26035 0.35224,-0.27565 0.34075,-0.29482 0.32926,-0.30627 0.31011,-0.31777 0.30246,-0.3331 0.28331,-0.3484 0.26801,-0.35606 0.25269,-0.37137 0.23738,-0.37905 0.22206,-0.39434 0.2029,-0.402 0.18761,-0.40966 0.16846,-0.42114 0.14937,-0.43264 0.13017,-0.43646 0.11097,-0.44412 0.0919,-0.4556 0.0729,-0.45944 0.0497,-0.46325 0.0307,-0.47093 0.008,-0.47474 -0.0153,-0.4824 -0.0121,-0.53217 -0.0307,-0.5207 -0.0497,-0.51304 -0.0689,-0.49771 -0.0881,-0.48623 -0.10326,-0.47476 -0.12638,-0.45942 -0.14166,-0.45177 -0.16464,-0.43646 -0.17611,-0.42115 -0.19907,-0.40967 -0.21442,-0.39434 -0.22971,-0.38287 -0.24886,-0.36753 -0.26417,-0.35224 -0.2795,-0.34075 -0.29481,-0.32161 -0.31394,-0.3101 -0.32542,-0.29098 -0.34458,-0.27566 -0.35607,-0.26035 -0.37518,-0.24502 -0.38671,-0.22972 -0.39818,-0.21058 -0.4173,-0.19525 -0.42881,-0.17612 -0.4403,-0.1608 -0.45559,-0.14166 -0.46709,-0.12245 -0.48242,-0.10341 -0.49387,-0.088 -0.50539,-0.0689 -0.51686,-0.0497 -0.52834,-0.0268 -0.53983,-0.0121 h -0.0307 l -0.0345,-0.003 h -0.0345 l -0.0307,-0.003 h -0.0345 l -0.0307,-0.003 h -0.0689 l -0.0307,-0.003 h -0.0996 l -0.0345,-0.003 h -0.22972 z"
         style="fill:#231815;stroke-width:0.38286" />
      <path
         id="use57"
         d="m 289.10008,230.54283 0.83847,0.046 0.83846,0.0727 0.83847,0.10719 0.83845,0.13017 0.83464,0.16463 0.82697,0.19143 0.82699,0.22207 0.81551,0.24886 0.80782,0.27949 0.80401,0.3101 0.78868,0.33692 0.77722,0.36373 0.76954,0.39434 0.75041,0.42497 0.73892,0.44795 0.71979,0.47858 0.70445,0.50921 0.68532,0.53217 0.66619,0.5628 0.64704,0.59343 0.62022,0.61641 0.6011,0.64703 0.57427,0.67002 0.55133,0.70062 0.52068,0.72743 0.49391,0.75425 0.46708,0.78103 0.43646,0.80783 0.402,0.83464 0.37138,0.86143 0.33692,0.88824 0.29863,0.91504 0.268,0.94184 0.22588,0.96863 0.19145,0.99162 0.14544,1.0184 0.11096,1.0452 0.0652,1.07201 0.023,1.09499 -0.019,0.94949 -0.0574,0.94183 -0.0957,0.93036 -0.13017,0.92268 -0.16846,0.90739 -0.20293,0.89206 -0.23353,0.88059 -0.27184,0.86909 -0.30245,0.84994 -0.3331,0.83847 -0.36755,0.81932 -0.39434,0.80402 -0.42496,0.78485 -0.45561,0.76572 -0.48624,0.74658 -0.5092,0.72361 -0.53983,0.70828 -0.56281,0.6815 -0.5896,0.66235 -0.6164,0.63555 -0.63556,0.6164 -0.66234,0.5896 -0.68532,0.56282 -0.70448,0.53982 -0.72743,0.50921 -0.74657,0.48623 -0.76571,0.4556 -0.78489,0.42499 -0.80016,0.39816 -0.81932,0.36373 -0.83847,0.33308 -0.84995,0.30247 -0.8691,0.27182 -0.88057,0.23737 -0.8959,0.19909 -0.90739,0.16846 -0.91886,0.13017 -0.93035,0.0957 -0.94183,0.0575 -0.94949,0.0192 -0.95332,-0.0192 -0.93802,-0.0575 -0.93416,-0.0957 -0.91888,-0.13017 -0.90739,-0.16846 -0.89205,-0.19909 -0.8844,-0.23737 -0.86527,-0.27182 -0.85378,-0.30247 -0.83463,-0.33308 -0.81933,-0.36373 -0.80401,-0.39816 -0.78485,-0.42499 -0.76574,-0.4556 -0.74657,-0.48623 -0.7236,-0.50921 -0.7083,-0.53982 -0.68149,-0.56282 -0.66236,-0.5896 -0.63936,-0.6164 -0.61259,-0.63555 -0.58959,-0.66235 -0.56281,-0.6815 -0.53983,-0.70828 -0.51303,-0.72361 -0.48242,-0.74658 -0.4556,-0.76572 -0.42497,-0.78485 -0.39818,-0.80402 -0.36371,-0.81932 -0.33691,-0.83847 -0.30246,-0.84994 -0.268,-0.86909 -0.23737,-0.88059 -0.19911,-0.89206 -0.16844,-0.90739 -0.13032,-0.92268 -0.0957,-0.93036 -0.0575,-0.94183 -0.019,-0.94949 V 253.078 l -0.005,-0.0268 v -0.27182 l 0.005,-0.0268 v -0.27184 l 0.005,-0.0268 V 252.32 l 0.005,-0.0268 v -0.0842 l 0.0497,-0.92269 0.0842,-0.91121 0.11868,-0.89973 0.15314,-0.88823 0.19144,-0.87292 0.22204,-0.86143 0.25653,-0.84996 0.28714,-0.83081 0.3216,-0.81931 0.3484,-0.80017 0.37904,-0.78488 0.40967,-0.76571 0.43645,-0.74658 0.46709,-0.73126 0.49006,-0.7083 0.51688,-0.68915 0.54364,-0.66618 0.57046,-0.64704 0.58962,-0.62406 0.61639,-0.60108 0.63939,-0.57429 0.65852,-0.55515 0.67765,-0.52452 0.70065,-0.50155 0.71977,-0.47475 0.73892,-0.44411 0.75808,-0.42115 0.77335,-0.38669 0.79254,-0.35988 0.80401,-0.3331 0.82314,-0.29863 0.83464,-0.268 0.84995,-0.23354 0.86143,-0.20292 0.87292,-0.16846 0.88824,-0.13395 0.89589,-0.0995 0.90357,-0.0612 0.91502,-0.0268 0.92271,0.008 z m -1.53145,12.40466 h -0.16462 l -0.0345,0.003 h -0.0996 l -0.0307,0.003 h -0.0689 l -0.0307,0.003 h -0.0345 l -0.46324,0.0345 -0.45562,0.0575 -0.44795,0.0765 -0.44028,0.0957 -0.43264,0.11489 -0.42497,0.13395 -0.41349,0.15315 -0.40582,0.16846 -0.39818,0.1876 -0.38669,0.20291 -0.3752,0.22206 -0.36373,0.23354 -0.35222,0.2527 -0.34075,0.268 -0.32925,0.27949 -0.31395,0.2948 -0.30247,0.3063 -0.29097,0.32159 -0.27567,0.3331 -0.25651,0.34457 -0.24503,0.35606 -0.22971,0.36755 -0.21442,0.37519 -0.19525,0.39053 -0.17995,0.39434 -0.16462,0.40583 -0.14543,0.4135 -0.12639,0.42114 -0.10719,0.4288 -0.0881,0.43646 -0.0689,0.44412 -0.0497,0.44795 -0.0268,0.45177 -0.0121,0.45944 0.0153,0.46325 v -0.11867 l 0.0121,0.55513 0.0267,0.53984 0.0497,0.53217 0.0689,0.5207 0.0881,0.50537 0.10719,0.49389 0.12639,0.48241 0.14165,0.46709 0.1608,0.45559 0.17995,0.4403 0.19525,0.42497 0.2144,0.4135 0.23355,0.40199 0.24503,0.38287 0.26418,0.36755 0.2833,0.35604 0.2948,0.33693 0.31396,0.32543 0.32543,0.30629 0.34457,0.29097 0.35606,0.27566 0.37138,0.26035 0.38669,0.24121 0.40199,0.22588 0.41734,0.20674 0.42497,0.1876 0.44411,0.17228 0.45561,0.15315 0.46709,0.13788 0.48239,0.1149 0.49007,0.0995 0.50538,0.0804 0.51686,0.0575 0.52835,0.0422 0.53983,0.0192 h 0.0957 l 0.023,0.003 h 0.30247 l 0.023,-0.003 h 0.14165 l 0.023,-0.003 h 0.0689 l 0.023,-0.003 h 0.0727 l 0.023,-0.003 h 0.023 l 0.47858,-0.0383 0.47475,-0.0575 0.46325,-0.0804 0.45944,-0.0995 0.44794,-0.11867 0.4403,-0.14166 0.42879,-0.15697 0.42115,-0.17611 0.41349,-0.19527 0.39818,-0.21439 0.39052,-0.22972 0.37904,-0.24503 0.36753,-0.26035 0.35224,-0.27565 0.34075,-0.29482 0.32926,-0.30627 0.31011,-0.31777 0.30246,-0.3331 0.28331,-0.3484 0.26801,-0.35606 0.25269,-0.37137 0.23738,-0.37905 0.22206,-0.39434 0.2029,-0.402 0.18761,-0.40966 0.16846,-0.42114 0.14937,-0.43264 0.13017,-0.43646 0.11097,-0.44412 0.0919,-0.4556 0.0729,-0.45944 0.0497,-0.46325 0.0307,-0.47093 0.008,-0.47474 -0.0153,-0.4824 -0.0121,-0.53217 -0.0307,-0.5207 -0.0497,-0.51304 -0.0689,-0.49771 -0.0881,-0.48623 -0.10326,-0.47476 -0.12638,-0.45942 -0.14166,-0.45177 -0.16464,-0.43646 -0.17611,-0.42115 -0.19907,-0.40967 -0.21442,-0.39434 -0.22971,-0.38287 -0.24886,-0.36753 -0.26417,-0.35224 -0.2795,-0.34075 -0.29481,-0.32161 -0.31394,-0.3101 -0.32542,-0.29098 -0.34458,-0.27566 -0.35607,-0.26035 -0.37518,-0.24502 -0.38671,-0.22972 -0.39818,-0.21058 -0.4173,-0.19525 -0.42881,-0.17612 -0.4403,-0.1608 -0.45559,-0.14166 -0.46709,-0.12245 -0.48242,-0.10341 -0.49387,-0.088 -0.50539,-0.0689 -0.51686,-0.0497 -0.52834,-0.0268 -0.53983,-0.0121 h -0.0307 l -0.0345,-0.003 h -0.0345 l -0.0307,-0.003 h -0.0345 l -0.0307,-0.003 h -0.0689 l -0.0307,-0.003 h -0.0996 l -0.0345,-0.003 h -0.22972 z"
         style="fill:none;stroke-width:0.38286" />
      <path
         id="use59"
         d="m 327.076,258.16237 2.2474,0.34075 c 4.32248,0.50919 6.51628,2.12871 6.51628,4.78192 0,2.65323 -2.07511,4.32249 -5.54765,4.32249 a 7.6809452,7.6809452 0 0 1 -6.94125,-4.54455 c -0.93802,0.34075 -4.0009,1.48167 -9.22311,3.40364 0.005,0.0345 0.005,0.0689 0,0.1034 2.53454,6.05685 8.50716,9.40688 16.67357,9.40688 11.1489,0 18.63381,-6.43206 18.63381,-16.01122 0,-3.62186 -2.51922,-10.20706 -11.91079,-11.91079 -0.54366,-0.0612 -1.0835,-0.15315 -1.61567,-0.27182 l -1.39744,-0.18761 c -3.79415,-0.57813 -7.33177,-1.53144 -7.33177,-4.72834 0,-0.95331 0.3752,-4.05065 5.20689,-4.05065 a 6.6158276,6.6158276 0 0 1 6.68476,3.96261 c 0.5896,-0.21441 3.5338,-1.29789 8.83259,-3.25049 v -0.0995 c -1.1907,-5.53234 -6.80726,-8.84791 -14.95836,-8.84791 -11.46666,-0.0192 -18.07102,5.70078 -18.07102,15.78916 0,7.4696 7.13269,11.38244 12.20176,11.79209 z"
         style="fill:#231815;stroke-width:0.38286" />
      <path
         id="use61"
         d="m 327.076,258.16237 2.2474,0.34075 c 4.32248,0.50919 6.51628,2.12871 6.51628,4.78192 0,2.65323 -2.07511,4.32249 -5.54765,4.32249 a 7.6809452,7.6809452 0 0 1 -6.94125,-4.54455 c -0.93802,0.34075 -4.0009,1.48167 -9.22311,3.40364 0.005,0.0345 0.005,0.0689 0,0.1034 2.53454,6.05685 8.50716,9.40688 16.67357,9.40688 11.1489,0 18.63381,-6.43206 18.63381,-16.01122 0,-3.62186 -2.51922,-10.20706 -11.91079,-11.91079 -0.54366,-0.0612 -1.0835,-0.15315 -1.61567,-0.27182 l -1.39744,-0.18761 c -3.79415,-0.57813 -7.33177,-1.53144 -7.33177,-4.72834 0,-0.95331 0.3752,-4.05065 5.20689,-4.05065 a 6.6158276,6.6158276 0 0 1 6.68476,3.96261 c 0.5896,-0.21441 3.5338,-1.29789 8.83259,-3.25049 v -0.0995 c -1.1907,-5.53234 -6.80726,-8.84791 -14.95836,-8.84791 -11.46666,-0.0192 -18.07102,5.70078 -18.07102,15.78916 0,7.4696 7.13269,11.38244 12.20176,11.79209 z"
         style="fill:none;stroke-width:0.38286" />
      <path
         id="use63"
         d="m 172.04435,265.42906 h -20.42177 v -7.41983 h 20.42177 v -9.81654 h -20.42177 v -7.67636 h 20.42177 v -8.50715 h -33.55772 v 42.53961 h 33.55772 z"
         style="fill:#231815;stroke-width:0.38286" />
      <path
         id="use65"
         d="m 172.04435,265.42906 h -20.42177 v -7.41983 h 20.42177 v -9.81654 h -20.42177 v -7.67636 h 20.42177 v -8.50715 h -33.55772 v 42.53961 h 33.55772 z"
         style="fill:none;stroke-width:0.38286" />
      <path
         id="use67"
         d="m 260.40852,265.42906 h -20.3184 v -7.41983 h 20.3184 v -9.81654 h -20.3184 v -7.67636 h 20.3184 v -8.50715 h -33.53857 v 42.53961 h 33.53857 z"
         style="fill:#231815;stroke-width:0.38286" />
      <path
         id="use69"
         d="m 260.40852,265.42906 h -20.3184 v -7.41983 h 20.3184 v -9.81654 h -20.3184 v -7.67636 h 20.3184 v -8.50715 h -33.53857 v 42.53961 h 33.53857 z"
         style="fill:none;stroke-width:0.38286" />
      <path
         id="use71"
         d="m 127.3607,231.94027 v 42.50516 H 84.851719 v -42.50516 z"
         style="fill:#ec6c00;stroke-width:0.38286" />
      <path
         id="use73"
         d="m 127.3607,231.94027 v 42.50516 H 84.851719 v -42.50516 z"
         style="fill:none;stroke-width:0.38286" />
      <path
         id="use75"
         d="m 106.10813,270.82356 c -9.736143,0 -17.630722,-7.89458 -17.630722,-17.63072 0,-9.73614 7.894579,-17.62689 17.630722,-17.62689 9.73614,0 17.62689,7.89075 17.62689,17.62689 0,9.73614 -7.89075,17.63072 -17.62689,17.63072 z"
         style="fill:url(#h);stroke-width:0.38286" />
      <path
         id="use77"
         d="m 106.10813,270.82356 c -9.736143,0 -17.630722,-7.89458 -17.630722,-17.63072 0,-9.73614 7.894579,-17.62689 17.630722,-17.62689 9.73614,0 17.62689,7.89075 17.62689,17.62689 0,9.73614 -7.89075,17.63072 -17.62689,17.63072 z"
         style="fill:none;stroke-width:0.38286" />
      <path
         id="use79"
         d="m 102.10341,232.31163 -0.62024,0.20676 -0.61258,0.22205 -0.60491,0.24119 -0.597265,0.2527 -0.585775,0.27183 -0.574292,0.28331 -0.566633,0.29864 -0.558975,0.31395 -0.543661,0.32925 -0.532176,0.34075 -0.520692,0.35606 -0.509203,0.37138 -0.493892,0.38285 -0.482404,0.39818 -0.467089,0.40966 -0.455604,0.42498 -0.43646,0.43646 -0.421148,0.45178 -0.40966,0.46326 -0.390516,0.47474 -0.371375,0.48623 -0.35606,0.50156 -0.336916,0.51301 -0.321605,0.52453 -0.298631,0.53601 -0.283316,0.54749 -0.260345,0.55515 -0.241203,0.57045 -0.222057,0.58196 -0.199087,0.59343 -0.179945,0.60109 -0.156976,0.61257 -0.130167,0.62407 -0.111027,0.63555 -0.08806,0.6432 -0.06126,0.65469 -0.03828,0.66235 -0.01149,0.67383 0.0036,0.44412 0.01916,0.44413 0.0268,0.44028 0.03444,0.44029 0.04978,0.43646 0.05743,0.43646 0.07273,0.43263 0.07657,0.42881 0.09189,0.4288 0.09954,0.42498 0.111027,0.42115 0.118692,0.41732 0.130167,0.4173 0.141657,0.40967 0.149322,0.40583 0.156972,0.40584 0.172288,0.39816 0.176117,0.39436 0.187599,0.39051 0.199089,0.38669 0.206743,0.37903 0.214403,0.3752 0.222057,0.37138 0.233547,0.36372 0.245029,0.35989 0.24886,0.35606 0.260345,0.3484 0.268003,0.34075 0.275661,0.33692 0.287143,0.32926 0.290972,0.32159 0.30246,0.31778 0.31012,0.31012 0.317772,0.30245 0.325432,0.29481 0.333088,0.28715 0.340744,0.27949 0.348405,0.27182 0.356063,0.26417 0.363716,0.25653 0.122517,0.11868 -0.103377,-0.11868 -0.241204,-0.22207 -0.237372,-0.22206 -0.229717,-0.22972 -0.225887,-0.23737 -0.218233,-0.23736 -0.214399,-0.24121 -0.210573,-0.24886 -0.20292,-0.24886 -0.199084,-0.25651 -0.191431,-0.25653 -0.187601,-0.26034 -0.179943,-0.268 -0.176116,-0.268 -0.168461,-0.27183 -0.164627,-0.27566 -0.156976,-0.27949 -0.153145,-0.28331 -0.145481,-0.28715 -0.137832,-0.28714 -0.133992,-0.29098 -0.126342,-0.2948 -0.122517,-0.29481 -0.114853,-0.29863 -0.107202,-0.30246 -0.103378,-0.30246 -0.09573,-0.30629 -0.09189,-0.30628 -0.08424,-0.31012 -0.07657,-0.31394 -0.06892,-0.31396 -0.06508,-0.31394 -0.05743,-0.31777 -0.04978,-0.3216 -0.04594,-0.31779 -0.03444,-0.32159 -0.03065,-0.32543 -0.0268,-0.32161 -0.01532,-0.32543 -0.01149,-0.32543 v -0.70064 l 0.03444,-0.8308 0.06892,-0.81548 0.09954,-0.81168 0.130182,-0.79635 0.160799,-0.78869 0.191428,-0.77721 0.222061,-0.76188 0.248859,-0.75424 0.275661,-0.73509 0.306287,-0.72744 0.32926,-0.70829 0.359888,-0.69297 0.38286,-0.67767 0.405833,-0.66234 0.432631,-0.64704 0.455604,-0.62789 0.474748,-0.60876 0.501548,-0.5896 0.520689,-0.57046 0.543664,-0.54748 0.562803,-0.53219 0.581948,-0.50537 0.601093,-0.48623 0.620231,-0.46326 0.639377,-0.44029 0.654694,-0.41732 0.67,-0.39051 0.68915,-0.36755 0.70063,-0.34075 0.71978,-0.31394 0.73127,-0.28716 0.74275,-0.26033 0.75806,-0.22972 0.76955,-0.20292 0.78103,-0.17611 0.7887,-0.14165 0.804,-0.11097 0.80783,-0.0804 0.82315,-0.0497 0.82698,-0.0153 0.47475,-0.0153 h 0.4709 l 0.47092,0.0121 0.47091,0.0192 0.46709,0.0345 0.46709,0.046 0.46326,0.0574 0.46327,0.0652 0.4556,0.0765 0.4556,0.0919 0.45561,0.0995 0.44794,0.11096 0.44795,0.12261 0.44412,0.13017 0.44028,0.14166 0.43264,0.15314 0.43263,0.16462 0.4288,0.17229 0.42115,0.1876 0.42116,0.19143 0.41348,0.20675 0.40583,0.21057 0.40583,0.22589 0.39818,0.23354 0.39051,0.2412 0.38669,0.2527 0.38287,0.26416 0.3752,0.27184 0.36754,0.27948 0.36372,0.29098 0.35607,0.29863 0.34839,0.30629 0.34075,0.31777 0.33692,0.32543 0.32542,0.33693 0.31778,0.34457 0.31395,0.34839 0.30246,0.36373 0.29863,0.36754 0.28714,0.3752 v 9.70168 l -0.17994,-0.62403 -0.19144,-0.62023 -0.21056,-0.61257 -0.2259,-0.60492 -0.23737,-0.59344 -0.2565,-0.5896 -0.27184,-0.57812 -0.28332,-0.57046 -0.29863,-0.56281 -0.31395,-0.54748 -0.32926,-0.53984 -0.34457,-0.52835 -0.35606,-0.51686 -0.37138,-0.50154 -0.38285,-0.49389 -0.39818,-0.47476 -0.40966,-0.46707 -0.42498,-0.44795 -0.43646,-0.43646 -0.45178,-0.41732 -0.46326,-0.40583 -0.47474,-0.38669 -0.48623,-0.37138 -0.49772,-0.35606 -0.51303,-0.33692 -0.52452,-0.31777 -0.53218,-0.29863 -0.5475,-0.28331 -0.55896,-0.26035 -0.56664,-0.24121 -0.57812,-0.21823 -0.59343,-0.19909 -0.6011,-0.17994 -0.60874,-0.15314 -0.62406,-0.13395 -0.63173,-0.11097 -0.63937,-0.0842 -0.65087,-0.0652 -0.66234,-0.0345 -0.67,-0.0153 -0.44413,0.008 -0.44411,0.0192 -0.4403,0.0268 -0.43646,0.0382 -0.43645,0.0497 -0.43646,0.0574 -0.42881,0.0727 -0.4288,0.0804 -0.42881,0.088 -0.42114,0.1034 -0.42115,0.10719 -0.41731,0.12246 -0.41349,0.13016 -0.40967,0.14166 -0.40583,0.14937 -0.402,0.15697 -0.39818,0.16846 -0.39434,0.17994 -0.38669,0.18761 -0.38669,0.19525 -0.37903,0.20676 -0.37521,0.21439 -0.36754,0.22207 -0.363718,0.23354 -0.359888,0.2412 -0.352232,0.24886 -0.3484,0.26034 -0.340749,0.268 -0.336916,0.27567 -0.329259,0.28331 -0.321604,0.29098 -0.317777,0.29863 -0.306284,0.31011 -0.302459,0.31395 -0.294804,0.32543 -0.287145,0.33308 -0.279491,0.33692 -0.275656,0.3484 -0.264177,0.35606 -0.256515,0.35989 0.222059,-0.2412 0.222061,-0.23354 0.229715,-0.22972 0.233545,-0.22588 0.2412,-0.22207 0.241203,-0.2144 0.245032,-0.20674 0.252688,-0.20292 0.252689,-0.19909 0.256515,-0.19143 0.264172,-0.1876 0.264176,-0.17993 0.268,-0.17613 0.271833,-0.16846 0.275659,-0.16462 0.279488,-0.15697 0.283317,-0.14937 0.283316,-0.14543 0.287143,-0.14166 0.290977,-0.13395 0.294796,-0.12638 0.29481,-0.12246 0.29863,-0.1149 0.29863,-0.10719 0.30629,-0.1034 0.30246,-0.0957 0.31011,-0.0919 0.31012,-0.0804 0.31012,-0.0804 0.31394,-0.0689 0.31395,-0.065 0.31777,-0.0574 0.31778,-0.0497 0.3216,-0.046 0.3216,-0.0382 0.3216,-0.0307 0.32161,-0.023 0.32543,-0.0153 0.32543,-0.0121 0.32543,-0.003 h 0.40966 l 0.83464,0.0383 0.82314,0.0689 0.81168,0.10341 0.80399,0.13395 0.7887,0.16462 0.78103,0.19526 0.76956,0.22206 0.75423,0.2527 0.73892,0.28331 0.72744,0.30629 0.71211,0.33691 0.69681,0.36373 0.68149,0.38669 0.66236,0.41348 0.64702,0.43646 0.6279,0.45944 0.60875,0.4824 0.59343,0.50537 0.57047,0.52835 0.54748,0.55132 0.52835,0.56663 0.50921,0.58961 0.4824,0.60874 0.46325,0.62406 0.43646,0.64322 0.4135,0.66234 0.39051,0.67767 0.36372,0.69297 0.33692,0.71212 0.31012,0.71977 0.28331,0.73893 0.25652,0.7504 0.22588,0.7619 0.19527,0.7772 0.16846,0.78486 0.13395,0.79636 0.10718,0.80784 0.0727,0.81931 0.0422,0.82315 0.008,0.83464 0.0121,0.47091 v 0.47093 l -0.0121,0.47092 -0.0268,0.46709 -0.0345,0.46326 -0.046,0.46709 -0.0575,0.45942 -0.0689,0.45944 -0.0804,0.4556 -0.088,0.45562 -0.10341,0.45176 -0.11097,0.44795 -0.12245,0.44412 -0.13395,0.44029 -0.14166,0.43646 -0.15314,0.43263 -0.16464,0.43264 -0.17611,0.42497 -0.18377,0.42114 -0.19527,0.4135 -0.20292,0.41348 -0.21439,0.40584 -0.22589,0.40199 -0.23354,0.39436 -0.2412,0.39051 -0.2527,0.3867 -0.26417,0.37902 -0.268,0.37138 -0.28331,0.36755 -0.28716,0.35989 -0.29863,0.35223 -0.31011,0.3484 -0.31395,0.33691 -0.32543,0.33309 -0.33692,0.32544 -0.34073,0.31776 -0.35224,0.31012 -0.35989,0.30247 -0.36755,0.2948 -0.3752,0.28332 h -9.82036 l 0.63555,-0.17611 0.6279,-0.19145 0.62022,-0.20674 0.61259,-0.22589 0.60492,-0.23737 0.59725,-0.25651 0.58578,-0.26801 0.57812,-0.28332 0.56664,-0.29862 0.55514,-0.31395 0.54366,-0.32543 0.53218,-0.34457 0.52452,-0.35606 0.50538,-0.36755 0.49772,-0.38286 0.47856,-0.39818 0.47093,-0.40965 0.45178,-0.42499 0.43646,-0.43646 0.42497,-0.45177 0.40583,-0.46327 0.39051,-0.47473 0.37138,-0.48623 0.35606,-0.50156 0.34075,-0.50919 0.31777,-0.52453 0.30246,-0.53601 0.27949,-0.54749 0.26418,-0.55897 0.24119,-0.57047 0.22207,-0.58194 0.19908,-0.59343 0.17612,-0.6011 0.15697,-0.61257 0.13395,-0.62406 0.10719,-0.63555 0.088,-0.6432 0.0612,-0.65471 0.0383,-0.66616 0.0121,-0.67384 -0.008,-0.44794 -0.0192,-0.44412 -0.0268,-0.44413 -0.0422,-0.44028 -0.0497,-0.44029 -0.0612,-0.43646 -0.0727,-0.43263 -0.0842,-0.43264 -0.0919,-0.42497 -0.10341,-0.42881 -0.11097,-0.42114 -0.12623,-0.41746 -0.13017,-0.41732 -0.14544,-0.40966 -0.15314,-0.40967 -0.1608,-0.402 -0.1723,-0.39817 -0.17994,-0.39818 -0.19142,-0.39051 -0.19909,-0.38285 -0.21058,-0.38287 -0.21823,-0.3752 -0.22972,-0.37138 -0.23355,-0.36371 -0.24502,-0.3599 -0.25652,-0.35222 -0.26035,-0.34842 -0.27182,-0.34074 -0.27949,-0.33691 -0.29098,-0.32543 -0.2948,-0.32543 -0.30245,-0.31395 -0.31395,-0.30629 -0.32161,-0.30247 -0.32925,-0.29479 -0.33692,-0.28715 -0.34458,-0.27949 -0.34839,-0.268 -0.35991,-0.26417 -0.36753,-0.25652 0.24119,0.22207 0.23355,0.22587 0.23354,0.22972 0.22207,0.23355 0.22206,0.23737 0.2144,0.24121 0.20674,0.24502 0.20292,0.2527 0.19909,0.25268 0.19142,0.26035 0.1876,0.26033 0.17995,0.26418 0.17612,0.26801 0.16846,0.27182 0.16463,0.27567 0.15697,0.27949 0.14937,0.28331 0.14937,0.28331 0.13788,0.28716 0.13394,0.29098 0.12639,0.29478 0.12246,0.29481 0.11489,0.29864 0.10719,0.30245 0.10341,0.30247 0.0957,0.30628 0.0919,0.30629 0.0842,0.31012 0.0767,0.31012 0.0689,0.31394 0.065,0.31394 0.0574,0.31778 0.0497,0.31777 0.046,0.32161 0.0383,0.32159 0.0307,0.32161 0.023,0.32543 0.0192,0.32161 0.008,0.32543 0.003,0.32926 v 0.73126 l -0.0497,0.81549 -0.0804,0.80783 -0.11097,0.80019 -0.14166,0.78868 -0.16846,0.77721 -0.20291,0.76189 -0.2259,0.75424 -0.25651,0.73892 -0.28715,0.72744 -0.31012,0.71212 -0.3369,0.70063 -0.35991,0.6815 -0.38667,0.66618 -0.40967,0.65086 -0.43264,0.63554 -0.45942,0.61641 -0.47858,0.59725 -0.50154,0.58196 -0.5207,0.55898 -0.53982,0.53982 -0.56282,0.5207 -0.58194,0.49772 -0.59726,0.47475 -0.61641,0.4556 -0.63555,0.42879 -0.65086,0.40967 -0.66618,0.38286 -0.68532,0.35988 -0.6968,0.3331 -0.71212,0.30629 -0.72361,0.28332 -0.73892,0.25268 -0.7504,0.22588 -0.75807,0.19909 -0.77338,0.16846 -0.78486,0.13788 -0.79252,0.11096 -0.80401,0.0767 -0.80783,0.0497 -0.81932,0.0153 -0.47092,0.0121 -0.47092,-0.003 -0.470919,-0.0121 -0.467087,-0.023 -0.467092,-0.0345 -0.46326,-0.046 -0.463264,-0.0575 -0.459432,-0.0689 -0.455604,-0.0804 -0.455604,-0.088 -0.447944,-0.10341 -0.447948,-0.11112 -0.447948,-0.12246 -0.440287,-0.13394 -0.43646,-0.14166 -0.432632,-0.15315 -0.432634,-0.16463 -0.424974,-0.17229 -0.421149,-0.18377 -0.417315,-0.19525 -0.40966,-0.20292 -0.405832,-0.2144 -0.402004,-0.22206 -0.398177,-0.23354 -0.390516,-0.24504 -0.386692,-0.25268 -0.379028,-0.26035 -0.371376,-0.27184 -0.367549,-0.27949 -0.359886,-0.28714 -0.356061,-0.29862 -0.348399,-0.3063 -0.336921,-0.31776 -0.336916,-0.32544 -0.325433,-0.33309 -0.31777,-0.34075 -0.310121,-0.3484 -0.302456,-0.35989 -0.294805,-0.36755 -0.287142,-0.3752 v -9.69786 l 0.179943,0.62408 0.191428,0.61639 0.210576,0.61257 0.225884,0.60493 0.241204,0.59727 0.256516,0.58578 0.271831,0.58194 0.283317,0.57047 0.30246,0.55897 0.313944,0.55132 0.329261,0.53599 0.340747,0.52835 0.359888,0.51687 0.367544,0.50537 0.386688,0.49007 0.394348,0.47858 0.413488,0.46325 0.421148,0.45177 0.440288,0.43264 0.447948,0.42114 0.46326,0.40201 0.474748,0.39051 0.486232,0.37138 0.497719,0.35224 0.513034,0.33691 0.520687,0.31778 0.536008,0.30245 0.543659,0.27949 0.558977,0.26035 0.566632,0.24121 0.581949,0.22205 0.589607,0.19909 0.601087,0.17611 0.608749,0.15698 0.620236,0.13016 0.631722,0.11097 0.6432,0.088 0.65087,0.0612 0.66234,0.0383 0.67001,0.0121 0.44412,-0.003 0.44411,-0.0153 0.44412,-0.0307 0.44029,-0.0345 0.43646,-0.0497 0.43646,-0.0575 0.43646,-0.0689 0.42881,-0.0804 0.4288,-0.0919 0.42498,-0.0995 0.42114,-0.11097 0.42115,-0.11868 0.41348,-0.13016 0.4135,-0.14166 0.40583,-0.14937 0.40583,-0.15697 0.39818,-0.16846 0.39817,-0.17994 0.39051,-0.1876 0.38669,-0.19909 0.37905,-0.20291 0.37902,-0.21823 0.37138,-0.22206 0.36371,-0.23356 0.36373,-0.24119 0.35222,-0.25269 0.34841,-0.26034 0.34457,-0.268 0.33692,-0.27567 0.32926,-0.28331 0.32543,-0.2948 0.31777,-0.30247 0.31012,-0.3101 0.30245,-0.31779 0.29481,-0.32543 0.29097,-0.33308 0.27949,-0.34075 0.27567,-0.3484 0.26417,-0.35607 0.25651,-0.36371 -0.22206,0.24121 -0.22589,0.23737 -0.22971,0.22971 -0.23354,0.22588 -0.24121,0.22207 -0.24119,0.21439 -0.24886,0.21058 -0.24886,0.20292 -0.25653,0.19909 -0.26035,0.19143 -0.26033,0.1876 -0.26801,0.17995 -0.268,0.17611 -0.27567,0.16846 -0.27564,0.16462 -0.27949,0.15697 -0.28332,0.15315 -0.28715,0.14543 -0.29098,0.13788 -0.29096,0.13395 -0.2948,0.13016 -0.29481,0.11868 -0.30247,0.1149 -0.30245,0.11097 -0.30247,0.1034 -0.30627,0.0957 -0.31012,0.0881 -0.31012,0.0842 -0.31394,0.0766 -0.31396,0.0689 -0.31777,0.0652 -0.31777,0.0575 -0.3216,0.0497 -0.32161,0.0422 -0.3216,0.0383 -0.3216,0.0307 -0.32543,0.023 -0.32544,0.0153 -0.32926,0.008 -0.32543,0.003 h -0.39434 l -0.82698,-0.0345 -0.81932,-0.0689 -0.80784,-0.0995 -0.80018,-0.13017 -0.78869,-0.16081 -0.7772,-0.19143 -0.76572,-0.21823 -0.750412,-0.24886 -0.738921,-0.27948 -0.723602,-0.30246 -0.712121,-0.33309 -0.692981,-0.35607 -0.681486,-0.38285 -0.662349,-0.40583 -0.643207,-0.43263 -0.627893,-0.45562 -0.608748,-0.47474 -0.593432,-0.50154 -0.570464,-0.5207 -0.551315,-0.54366 -0.52835,-0.5628 -0.509203,-0.58194 -0.486232,-0.6011 -0.463264,-0.62023 -0.440288,-0.63938 -0.417316,-0.65469 -0.39052,-0.67 -0.367544,-0.68916 -0.340749,-0.70446 -0.313942,-0.71595 -0.287149,-0.73126 -0.260345,-0.74658 -0.233543,-0.75423 -0.202916,-0.76956 -0.172288,-0.78103 -0.141657,-0.79252 -0.114852,-0.80401 -0.0804,-0.81166 -0.04977,-0.81933 -0.01531,-0.82697 -0.01149,-0.47474 -0.0036,-0.47476 0.01149,-0.47091 0.02296,-0.47091 0.03444,-0.46709 0.0421,-0.46709 0.05743,-0.46327 0.06892,-0.45944 0.07657,-0.45942 0.09189,-0.45944 0.09954,-0.45177 0.111027,-0.45178 0.122517,-0.44412 0.130182,-0.44411 0.145482,-0.44029 0.153145,-0.43646 0.164627,-0.43263 0.172289,-0.42499 0.183771,-0.42497 0.195261,-0.41732 0.202915,-0.41349 0.214401,-0.40966 0.225887,-0.402 0.233545,-0.39817 0.245031,-0.39436 0.252689,-0.38667 0.264175,-0.37904 0.271828,-0.3752 0.279489,-0.37138 0.290975,-0.35989 0.298628,-0.35606 0.310121,-0.3484 0.317772,-0.34074 0.325431,-0.33693 0.336916,-0.32543 0.344576,-0.31777 0.352233,-0.31394 0.359888,-0.30247 0.371375,-0.2948 0.375201,-0.28714 0.118692,-0.10341 h 9.75146 l -0.63555,0.17612 z m 3.43426,7.57298 -0.54366,0.0345 -0.53601,0.0537 -0.53218,0.0767 -0.52452,0.0995 -0.51686,0.11868 -0.5092,0.13788 -0.50155,0.15697 -0.49006,0.17611 -0.48623,0.19527 -0.47092,0.21056 -0.46326,0.22972 -0.455604,0.24886 -0.440288,0.26417 -0.432632,0.27949 -0.41732,0.29863 -0.405832,0.31012 -0.394344,0.32925 -0.382865,0.34075 -0.367544,0.35606 -0.35606,0.37138 -0.336919,0.38287 -0.325428,0.39434 -0.310121,0.40965 -0.2948,0.42115 -0.279487,0.43263 -0.264172,0.44411 -0.245033,0.45179 -0.225887,0.46709 -0.210576,0.47474 -0.191429,0.4824 -0.176116,0.4939 -0.153144,0.50154 -0.133992,0.50921 -0.114852,0.51686 -0.09571,0.52452 -0.07657,0.53217 -0.05359,0.53984 -0.03064,0.54366 -0.0077,0.55131 0.0077,0.54751 0.03444,0.54364 0.05359,0.53602 0.07657,0.53217 0.09573,0.52452 0.118677,0.51686 0.133992,0.50921 0.156973,0.50154 0.176115,0.49007 0.191429,0.4824 0.210575,0.47474 0.229717,0.46327 0.245027,0.45177 0.264176,0.44413 0.279489,0.42879 0.294799,0.42115 0.31012,0.40583 0.325428,0.39435 0.340749,0.38285 0.356059,0.36756 0.367544,0.35606 0.382864,0.34074 0.394344,0.32544 0.405832,0.31011 0.421148,0.29481 0.428804,0.27949 0.444116,0.26415 0.451776,0.24504 0.463262,0.22972 0.47475,0.21058 0.4824,0.19525 0.49389,0.17229 0.49772,0.15697 0.5092,0.13787 0.51686,0.1149 0.52452,0.0957 0.53218,0.0767 0.536,0.0535 0.54366,0.0345 0.55132,0.0121 0.54749,-0.0121 0.54367,-0.0345 0.536,-0.0535 0.53218,-0.0767 0.52452,-0.0957 0.51686,-0.1149 0.5092,-0.13787 0.50155,-0.15697 0.49007,-0.17229 0.4824,-0.19525 0.47474,-0.21058 0.46326,-0.22972 0.45178,-0.24504 0.44411,-0.26415 0.42881,-0.27949 0.42114,-0.29481 0.40583,-0.31011 0.39436,-0.32544 0.38285,-0.34074 0.36755,-0.35606 0.35606,-0.36756 0.34075,-0.38285 0.32543,-0.39435 0.31011,-0.40583 0.2948,-0.42115 0.27949,-0.42879 0.26417,-0.44413 0.24504,-0.45177 0.22972,-0.46327 0.21056,-0.47474 0.19527,-0.4824 0.17228,-0.49007 0.15697,-0.50154 0.13395,-0.50921 0.11868,-0.51686 0.0957,-0.52452 0.0765,-0.53217 0.0535,-0.53602 0.0345,-0.54364 0.0121,-0.54751 -0.0121,-0.55131 -0.0345,-0.54366 -0.0535,-0.53601 -0.0765,-0.53218 -0.0957,-0.52452 -0.11868,-0.51686 -0.13395,-0.50919 -0.15697,-0.49773 -0.17228,-0.49388 -0.19527,-0.48241 -0.21056,-0.47475 -0.22972,-0.46326 -0.24504,-0.45178 -0.26417,-0.44028 -0.27949,-0.43264 -0.2948,-0.42114 -0.31011,-0.40583 -0.32543,-0.39434 -0.34075,-0.38287 -0.35606,-0.36755 -0.36755,-0.35605 -0.38285,-0.34075 -0.39436,-0.32543 -0.40583,-0.31012 -0.42114,-0.2948 -0.4288,-0.27949 -0.44412,-0.26417 -0.45178,-0.24504 -0.46326,-0.2297 -0.47474,-0.21058 -0.4824,-0.19143 -0.49007,-0.17612 -0.50155,-0.15697 -0.5092,-0.13395 -0.51686,-0.11868 -0.52452,-0.0957 -0.53218,-0.0765 -0.536,-0.0537 -0.54366,-0.0307 -0.54749,-0.0121 v -0.0535 h -0.0191 z"
         style="fill:#de0515;stroke-width:0.38286" />
      <path
         id="use81"
         d="m 102.10341,232.31163 -0.62024,0.20676 -0.61258,0.22205 -0.60491,0.24119 -0.597265,0.2527 -0.585775,0.27183 -0.574292,0.28331 -0.566633,0.29864 -0.558975,0.31395 -0.543661,0.32925 -0.532176,0.34075 -0.520692,0.35606 -0.509203,0.37138 -0.493892,0.38285 -0.482404,0.39818 -0.467089,0.40966 -0.455604,0.42498 -0.43646,0.43646 -0.421148,0.45178 -0.40966,0.46326 -0.390516,0.47474 -0.371375,0.48623 -0.35606,0.50156 -0.336916,0.51301 -0.321605,0.52453 -0.298631,0.53601 -0.283316,0.54749 -0.260345,0.55515 -0.241203,0.57045 -0.222057,0.58196 -0.199087,0.59343 -0.179945,0.60109 -0.156976,0.61257 -0.130167,0.62407 -0.111027,0.63555 -0.08806,0.6432 -0.06126,0.65469 -0.03828,0.66235 -0.01149,0.67383 0.0036,0.44412 0.01916,0.44413 0.0268,0.44028 0.03444,0.44029 0.04978,0.43646 0.05743,0.43646 0.07273,0.43263 0.07657,0.42881 0.09189,0.4288 0.09954,0.42498 0.111027,0.42115 0.118692,0.41732 0.130167,0.4173 0.141657,0.40967 0.149322,0.40583 0.156972,0.40584 0.172288,0.39816 0.176117,0.39436 0.187599,0.39051 0.199089,0.38669 0.206743,0.37903 0.214403,0.3752 0.222057,0.37138 0.233547,0.36372 0.245029,0.35989 0.24886,0.35606 0.260345,0.3484 0.268003,0.34075 0.275661,0.33692 0.287143,0.32926 0.290972,0.32159 0.30246,0.31778 0.31012,0.31012 0.317772,0.30245 0.325432,0.29481 0.333088,0.28715 0.340744,0.27949 0.348405,0.27182 0.356063,0.26417 0.363716,0.25653 0.122517,0.11868 -0.103377,-0.11868 -0.241204,-0.22207 -0.237372,-0.22206 -0.229717,-0.22972 -0.225887,-0.23737 -0.218233,-0.23736 -0.214399,-0.24121 -0.210573,-0.24886 -0.20292,-0.24886 -0.199084,-0.25651 -0.191431,-0.25653 -0.187601,-0.26034 -0.179943,-0.268 -0.176116,-0.268 -0.168461,-0.27183 -0.164627,-0.27566 -0.156976,-0.27949 -0.153145,-0.28331 -0.145481,-0.28715 -0.137832,-0.28714 -0.133992,-0.29098 -0.126342,-0.2948 -0.122517,-0.29481 -0.114853,-0.29863 -0.107202,-0.30246 -0.103378,-0.30246 -0.09573,-0.30629 -0.09189,-0.30628 -0.08424,-0.31012 -0.07657,-0.31394 -0.06892,-0.31396 -0.06508,-0.31394 -0.05743,-0.31777 -0.04978,-0.3216 -0.04594,-0.31779 -0.03444,-0.32159 -0.03065,-0.32543 -0.0268,-0.32161 -0.01532,-0.32543 -0.01149,-0.32543 v -0.70064 l 0.03444,-0.8308 0.06892,-0.81548 0.09954,-0.81168 0.130182,-0.79635 0.160799,-0.78869 0.191428,-0.77721 0.222061,-0.76188 0.248859,-0.75424 0.275661,-0.73509 0.306287,-0.72744 0.32926,-0.70829 0.359888,-0.69297 0.38286,-0.67767 0.405833,-0.66234 0.432631,-0.64704 0.455604,-0.62789 0.474748,-0.60876 0.501548,-0.5896 0.520689,-0.57046 0.543664,-0.54748 0.562803,-0.53219 0.581948,-0.50537 0.601093,-0.48623 0.620231,-0.46326 0.639377,-0.44029 0.654694,-0.41732 0.67,-0.39051 0.68915,-0.36755 0.70063,-0.34075 0.71978,-0.31394 0.73127,-0.28716 0.74275,-0.26033 0.75806,-0.22972 0.76955,-0.20292 0.78103,-0.17611 0.7887,-0.14165 0.804,-0.11097 0.80783,-0.0804 0.82315,-0.0497 0.82698,-0.0153 0.47475,-0.0153 h 0.4709 l 0.47092,0.0121 0.47091,0.0192 0.46709,0.0345 0.46709,0.046 0.46326,0.0574 0.46327,0.0652 0.4556,0.0765 0.4556,0.0919 0.45561,0.0995 0.44794,0.11096 0.44795,0.12261 0.44412,0.13017 0.44028,0.14166 0.43264,0.15314 0.43263,0.16462 0.4288,0.17229 0.42115,0.1876 0.42116,0.19143 0.41348,0.20675 0.40583,0.21057 0.40583,0.22589 0.39818,0.23354 0.39051,0.2412 0.38669,0.2527 0.38287,0.26416 0.3752,0.27184 0.36754,0.27948 0.36372,0.29098 0.35607,0.29863 0.34839,0.30629 0.34075,0.31777 0.33692,0.32543 0.32542,0.33693 0.31778,0.34457 0.31395,0.34839 0.30246,0.36373 0.29863,0.36754 0.28714,0.3752 v 9.70168 l -0.17994,-0.62403 -0.19144,-0.62023 -0.21056,-0.61257 -0.2259,-0.60492 -0.23737,-0.59344 -0.2565,-0.5896 -0.27184,-0.57812 -0.28332,-0.57046 -0.29863,-0.56281 -0.31395,-0.54748 -0.32926,-0.53984 -0.34457,-0.52835 -0.35606,-0.51686 -0.37138,-0.50154 -0.38285,-0.49389 -0.39818,-0.47476 -0.40966,-0.46707 -0.42498,-0.44795 -0.43646,-0.43646 -0.45178,-0.41732 -0.46326,-0.40583 -0.47474,-0.38669 -0.48623,-0.37138 -0.49772,-0.35606 -0.51303,-0.33692 -0.52452,-0.31777 -0.53218,-0.29863 -0.5475,-0.28331 -0.55896,-0.26035 -0.56664,-0.24121 -0.57812,-0.21823 -0.59343,-0.19909 -0.6011,-0.17994 -0.60874,-0.15314 -0.62406,-0.13395 -0.63173,-0.11097 -0.63937,-0.0842 -0.65087,-0.0652 -0.66234,-0.0345 -0.67,-0.0153 -0.44413,0.008 -0.44411,0.0192 -0.4403,0.0268 -0.43646,0.0382 -0.43645,0.0497 -0.43646,0.0574 -0.42881,0.0727 -0.4288,0.0804 -0.42881,0.088 -0.42114,0.1034 -0.42115,0.10719 -0.41731,0.12246 -0.41349,0.13016 -0.40967,0.14166 -0.40583,0.14937 -0.402,0.15697 -0.39818,0.16846 -0.39434,0.17994 -0.38669,0.18761 -0.38669,0.19525 -0.37903,0.20676 -0.37521,0.21439 -0.36754,0.22207 -0.363718,0.23354 -0.359888,0.2412 -0.352232,0.24886 -0.3484,0.26034 -0.340749,0.268 -0.336916,0.27567 -0.329259,0.28331 -0.321604,0.29098 -0.317777,0.29863 -0.306284,0.31011 -0.302459,0.31395 -0.294804,0.32543 -0.287145,0.33308 -0.279491,0.33692 -0.275656,0.3484 -0.264177,0.35606 -0.256515,0.35989 0.222059,-0.2412 0.222061,-0.23354 0.229715,-0.22972 0.233545,-0.22588 0.2412,-0.22207 0.241203,-0.2144 0.245032,-0.20674 0.252688,-0.20292 0.252689,-0.19909 0.256515,-0.19143 0.264172,-0.1876 0.264176,-0.17993 0.268,-0.17613 0.271833,-0.16846 0.275659,-0.16462 0.279488,-0.15697 0.283317,-0.14937 0.283316,-0.14543 0.287143,-0.14166 0.290977,-0.13395 0.294796,-0.12638 0.29481,-0.12246 0.29863,-0.1149 0.29863,-0.10719 0.30629,-0.1034 0.30246,-0.0957 0.31011,-0.0919 0.31012,-0.0804 0.31012,-0.0804 0.31394,-0.0689 0.31395,-0.065 0.31777,-0.0574 0.31778,-0.0497 0.3216,-0.046 0.3216,-0.0382 0.3216,-0.0307 0.32161,-0.023 0.32543,-0.0153 0.32543,-0.0121 0.32543,-0.003 h 0.40966 l 0.83464,0.0383 0.82314,0.0689 0.81168,0.10341 0.80399,0.13395 0.7887,0.16462 0.78103,0.19526 0.76956,0.22206 0.75423,0.2527 0.73892,0.28331 0.72744,0.30629 0.71211,0.33691 0.69681,0.36373 0.68149,0.38669 0.66236,0.41348 0.64702,0.43646 0.6279,0.45944 0.60875,0.4824 0.59343,0.50537 0.57047,0.52835 0.54748,0.55132 0.52835,0.56663 0.50921,0.58961 0.4824,0.60874 0.46325,0.62406 0.43646,0.64322 0.4135,0.66234 0.39051,0.67767 0.36372,0.69297 0.33692,0.71212 0.31012,0.71977 0.28331,0.73893 0.25652,0.7504 0.22588,0.7619 0.19527,0.7772 0.16846,0.78486 0.13395,0.79636 0.10718,0.80784 0.0727,0.81931 0.0422,0.82315 0.008,0.83464 0.0121,0.47091 v 0.47093 l -0.0121,0.47092 -0.0268,0.46709 -0.0345,0.46326 -0.046,0.46709 -0.0575,0.45942 -0.0689,0.45944 -0.0804,0.4556 -0.088,0.45562 -0.10341,0.45176 -0.11097,0.44795 -0.12245,0.44412 -0.13395,0.44029 -0.14166,0.43646 -0.15314,0.43263 -0.16464,0.43264 -0.17611,0.42497 -0.18377,0.42114 -0.19527,0.4135 -0.20292,0.41348 -0.21439,0.40584 -0.22589,0.40199 -0.23354,0.39436 -0.2412,0.39051 -0.2527,0.3867 -0.26417,0.37902 -0.268,0.37138 -0.28331,0.36755 -0.28716,0.35989 -0.29863,0.35223 -0.31011,0.3484 -0.31395,0.33691 -0.32543,0.33309 -0.33692,0.32544 -0.34073,0.31776 -0.35224,0.31012 -0.35989,0.30247 -0.36755,0.2948 -0.3752,0.28332 h -9.82036 l 0.63555,-0.17611 0.6279,-0.19145 0.62022,-0.20674 0.61259,-0.22589 0.60492,-0.23737 0.59725,-0.25651 0.58578,-0.26801 0.57812,-0.28332 0.56664,-0.29862 0.55514,-0.31395 0.54366,-0.32543 0.53218,-0.34457 0.52452,-0.35606 0.50538,-0.36755 0.49772,-0.38286 0.47856,-0.39818 0.47093,-0.40965 0.45178,-0.42499 0.43646,-0.43646 0.42497,-0.45177 0.40583,-0.46327 0.39051,-0.47473 0.37138,-0.48623 0.35606,-0.50156 0.34075,-0.50919 0.31777,-0.52453 0.30246,-0.53601 0.27949,-0.54749 0.26418,-0.55897 0.24119,-0.57047 0.22207,-0.58194 0.19908,-0.59343 0.17612,-0.6011 0.15697,-0.61257 0.13395,-0.62406 0.10719,-0.63555 0.088,-0.6432 0.0612,-0.65471 0.0383,-0.66616 0.0121,-0.67384 -0.008,-0.44794 -0.0192,-0.44412 -0.0268,-0.44413 -0.0422,-0.44028 -0.0497,-0.44029 -0.0612,-0.43646 -0.0727,-0.43263 -0.0842,-0.43264 -0.0919,-0.42497 -0.10341,-0.42881 -0.11097,-0.42114 -0.12623,-0.41746 -0.13017,-0.41732 -0.14544,-0.40966 -0.15314,-0.40967 -0.1608,-0.402 -0.1723,-0.39817 -0.17994,-0.39818 -0.19142,-0.39051 -0.19909,-0.38285 -0.21058,-0.38287 -0.21823,-0.3752 -0.22972,-0.37138 -0.23355,-0.36371 -0.24502,-0.3599 -0.25652,-0.35222 -0.26035,-0.34842 -0.27182,-0.34074 -0.27949,-0.33691 -0.29098,-0.32543 -0.2948,-0.32543 -0.30245,-0.31395 -0.31395,-0.30629 -0.32161,-0.30247 -0.32925,-0.29479 -0.33692,-0.28715 -0.34458,-0.27949 -0.34839,-0.268 -0.35991,-0.26417 -0.36753,-0.25652 0.24119,0.22207 0.23355,0.22587 0.23354,0.22972 0.22207,0.23355 0.22206,0.23737 0.2144,0.24121 0.20674,0.24502 0.20292,0.2527 0.19909,0.25268 0.19142,0.26035 0.1876,0.26033 0.17995,0.26418 0.17612,0.26801 0.16846,0.27182 0.16463,0.27567 0.15697,0.27949 0.14937,0.28331 0.14937,0.28331 0.13788,0.28716 0.13394,0.29098 0.12639,0.29478 0.12246,0.29481 0.11489,0.29864 0.10719,0.30245 0.10341,0.30247 0.0957,0.30628 0.0919,0.30629 0.0842,0.31012 0.0767,0.31012 0.0689,0.31394 0.065,0.31394 0.0574,0.31778 0.0497,0.31777 0.046,0.32161 0.0383,0.32159 0.0307,0.32161 0.023,0.32543 0.0192,0.32161 0.008,0.32543 0.003,0.32926 v 0.73126 l -0.0497,0.81549 -0.0804,0.80783 -0.11097,0.80019 -0.14166,0.78868 -0.16846,0.77721 -0.20291,0.76189 -0.2259,0.75424 -0.25651,0.73892 -0.28715,0.72744 -0.31012,0.71212 -0.3369,0.70063 -0.35991,0.6815 -0.38667,0.66618 -0.40967,0.65086 -0.43264,0.63554 -0.45942,0.61641 -0.47858,0.59725 -0.50154,0.58196 -0.5207,0.55898 -0.53982,0.53982 -0.56282,0.5207 -0.58194,0.49772 -0.59726,0.47475 -0.61641,0.4556 -0.63555,0.42879 -0.65086,0.40967 -0.66618,0.38286 -0.68532,0.35988 -0.6968,0.3331 -0.71212,0.30629 -0.72361,0.28332 -0.73892,0.25268 -0.7504,0.22588 -0.75807,0.19909 -0.77338,0.16846 -0.78486,0.13788 -0.79252,0.11096 -0.80401,0.0767 -0.80783,0.0497 -0.81932,0.0153 -0.47092,0.0121 -0.47092,-0.003 -0.470919,-0.0121 -0.467087,-0.023 -0.467092,-0.0345 -0.46326,-0.046 -0.463264,-0.0575 -0.459432,-0.0689 -0.455604,-0.0804 -0.455604,-0.088 -0.447944,-0.10341 -0.447948,-0.11112 -0.447948,-0.12246 -0.440287,-0.13394 -0.43646,-0.14166 -0.432632,-0.15315 -0.432634,-0.16463 -0.424974,-0.17229 -0.421149,-0.18377 -0.417315,-0.19525 -0.40966,-0.20292 -0.405832,-0.2144 -0.402004,-0.22206 -0.398177,-0.23354 -0.390516,-0.24504 -0.386692,-0.25268 -0.379028,-0.26035 -0.371376,-0.27184 -0.367549,-0.27949 -0.359886,-0.28714 -0.356061,-0.29862 -0.348399,-0.3063 -0.336921,-0.31776 -0.336916,-0.32544 -0.325433,-0.33309 -0.31777,-0.34075 -0.310121,-0.3484 -0.302456,-0.35989 -0.294805,-0.36755 -0.287142,-0.3752 v -9.69786 l 0.179943,0.62408 0.191428,0.61639 0.210576,0.61257 0.225884,0.60493 0.241204,0.59727 0.256516,0.58578 0.271831,0.58194 0.283317,0.57047 0.30246,0.55897 0.313944,0.55132 0.329261,0.53599 0.340747,0.52835 0.359888,0.51687 0.367544,0.50537 0.386688,0.49007 0.394348,0.47858 0.413488,0.46325 0.421148,0.45177 0.440288,0.43264 0.447948,0.42114 0.46326,0.40201 0.474748,0.39051 0.486232,0.37138 0.497719,0.35224 0.513034,0.33691 0.520687,0.31778 0.536008,0.30245 0.543659,0.27949 0.558977,0.26035 0.566632,0.24121 0.581949,0.22205 0.589607,0.19909 0.601087,0.17611 0.608749,0.15698 0.620236,0.13016 0.631722,0.11097 0.6432,0.088 0.65087,0.0612 0.66234,0.0383 0.67001,0.0121 0.44412,-0.003 0.44411,-0.0153 0.44412,-0.0307 0.44029,-0.0345 0.43646,-0.0497 0.43646,-0.0575 0.43646,-0.0689 0.42881,-0.0804 0.4288,-0.0919 0.42498,-0.0995 0.42114,-0.11097 0.42115,-0.11868 0.41348,-0.13016 0.4135,-0.14166 0.40583,-0.14937 0.40583,-0.15697 0.39818,-0.16846 0.39817,-0.17994 0.39051,-0.1876 0.38669,-0.19909 0.37905,-0.20291 0.37902,-0.21823 0.37138,-0.22206 0.36371,-0.23356 0.36373,-0.24119 0.35222,-0.25269 0.34841,-0.26034 0.34457,-0.268 0.33692,-0.27567 0.32926,-0.28331 0.32543,-0.2948 0.31777,-0.30247 0.31012,-0.3101 0.30245,-0.31779 0.29481,-0.32543 0.29097,-0.33308 0.27949,-0.34075 0.27567,-0.3484 0.26417,-0.35607 0.25651,-0.36371 -0.22206,0.24121 -0.22589,0.23737 -0.22971,0.22971 -0.23354,0.22588 -0.24121,0.22207 -0.24119,0.21439 -0.24886,0.21058 -0.24886,0.20292 -0.25653,0.19909 -0.26035,0.19143 -0.26033,0.1876 -0.26801,0.17995 -0.268,0.17611 -0.27567,0.16846 -0.27564,0.16462 -0.27949,0.15697 -0.28332,0.15315 -0.28715,0.14543 -0.29098,0.13788 -0.29096,0.13395 -0.2948,0.13016 -0.29481,0.11868 -0.30247,0.1149 -0.30245,0.11097 -0.30247,0.1034 -0.30627,0.0957 -0.31012,0.0881 -0.31012,0.0842 -0.31394,0.0766 -0.31396,0.0689 -0.31777,0.0652 -0.31777,0.0575 -0.3216,0.0497 -0.32161,0.0422 -0.3216,0.0383 -0.3216,0.0307 -0.32543,0.023 -0.32544,0.0153 -0.32926,0.008 -0.32543,0.003 h -0.39434 l -0.82698,-0.0345 -0.81932,-0.0689 -0.80784,-0.0995 -0.80018,-0.13017 -0.78869,-0.16081 -0.7772,-0.19143 -0.76572,-0.21823 -0.750412,-0.24886 -0.738921,-0.27948 -0.723602,-0.30246 -0.712121,-0.33309 -0.692981,-0.35607 -0.681486,-0.38285 -0.662349,-0.40583 -0.643207,-0.43263 -0.627893,-0.45562 -0.608748,-0.47474 -0.593432,-0.50154 -0.570464,-0.5207 -0.551315,-0.54366 -0.52835,-0.5628 -0.509203,-0.58194 -0.486232,-0.6011 -0.463264,-0.62023 -0.440288,-0.63938 -0.417316,-0.65469 -0.39052,-0.67 -0.367544,-0.68916 -0.340749,-0.70446 -0.313942,-0.71595 -0.287149,-0.73126 -0.260345,-0.74658 -0.233543,-0.75423 -0.202916,-0.76956 -0.172288,-0.78103 -0.141657,-0.79252 -0.114852,-0.80401 -0.0804,-0.81166 -0.04977,-0.81933 -0.01531,-0.82697 -0.01149,-0.47474 -0.0036,-0.47476 0.01149,-0.47091 0.02296,-0.47091 0.03444,-0.46709 0.0421,-0.46709 0.05743,-0.46327 0.06892,-0.45944 0.07657,-0.45942 0.09189,-0.45944 0.09954,-0.45177 0.111027,-0.45178 0.122517,-0.44412 0.130182,-0.44411 0.145482,-0.44029 0.153145,-0.43646 0.164627,-0.43263 0.172289,-0.42499 0.183771,-0.42497 0.195261,-0.41732 0.202915,-0.41349 0.214401,-0.40966 0.225887,-0.402 0.233545,-0.39817 0.245031,-0.39436 0.252689,-0.38667 0.264175,-0.37904 0.271828,-0.3752 0.279489,-0.37138 0.290975,-0.35989 0.298628,-0.35606 0.310121,-0.3484 0.317772,-0.34074 0.325431,-0.33693 0.336916,-0.32543 0.344576,-0.31777 0.352233,-0.31394 0.359888,-0.30247 0.371375,-0.2948 0.375201,-0.28714 0.118692,-0.10341 h 9.75146 l -0.63555,0.17612 z m 3.43426,7.57298 -0.54366,0.0345 -0.53601,0.0537 -0.53218,0.0767 -0.52452,0.0995 -0.51686,0.11868 -0.5092,0.13788 -0.50155,0.15697 -0.49006,0.17611 -0.48623,0.19527 -0.47092,0.21056 -0.46326,0.22972 -0.455604,0.24886 -0.440288,0.26417 -0.432632,0.27949 -0.41732,0.29863 -0.405832,0.31012 -0.394344,0.32925 -0.382865,0.34075 -0.367544,0.35606 -0.35606,0.37138 -0.336919,0.38287 -0.325428,0.39434 -0.310121,0.40965 -0.2948,0.42115 -0.279487,0.43263 -0.264172,0.44411 -0.245033,0.45179 -0.225887,0.46709 -0.210576,0.47474 -0.191429,0.4824 -0.176116,0.4939 -0.153144,0.50154 -0.133992,0.50921 -0.114852,0.51686 -0.09571,0.52452 -0.07657,0.53217 -0.05359,0.53984 -0.03064,0.54366 -0.0077,0.55131 0.0077,0.54751 0.03444,0.54364 0.05359,0.53602 0.07657,0.53217 0.09573,0.52452 0.118677,0.51686 0.133992,0.50921 0.156973,0.50154 0.176115,0.49007 0.191429,0.4824 0.210575,0.47474 0.229717,0.46327 0.245027,0.45177 0.264176,0.44413 0.279489,0.42879 0.294799,0.42115 0.31012,0.40583 0.325428,0.39435 0.340749,0.38285 0.356059,0.36756 0.367544,0.35606 0.382864,0.34074 0.394344,0.32544 0.405832,0.31011 0.421148,0.29481 0.428804,0.27949 0.444116,0.26415 0.451776,0.24504 0.463262,0.22972 0.47475,0.21058 0.4824,0.19525 0.49389,0.17229 0.49772,0.15697 0.5092,0.13787 0.51686,0.1149 0.52452,0.0957 0.53218,0.0767 0.536,0.0535 0.54366,0.0345 0.55132,0.0121 0.54749,-0.0121 0.54367,-0.0345 0.536,-0.0535 0.53218,-0.0767 0.52452,-0.0957 0.51686,-0.1149 0.5092,-0.13787 0.50155,-0.15697 0.49007,-0.17229 0.4824,-0.19525 0.47474,-0.21058 0.46326,-0.22972 0.45178,-0.24504 0.44411,-0.26415 0.42881,-0.27949 0.42114,-0.29481 0.40583,-0.31011 0.39436,-0.32544 0.38285,-0.34074 0.36755,-0.35606 0.35606,-0.36756 0.34075,-0.38285 0.32543,-0.39435 0.31011,-0.40583 0.2948,-0.42115 0.27949,-0.42879 0.26417,-0.44413 0.24504,-0.45177 0.22972,-0.46327 0.21056,-0.47474 0.19527,-0.4824 0.17228,-0.49007 0.15697,-0.50154 0.13395,-0.50921 0.11868,-0.51686 0.0957,-0.52452 0.0765,-0.53217 0.0535,-0.53602 0.0345,-0.54364 0.0121,-0.54751 -0.0121,-0.55131 -0.0345,-0.54366 -0.0535,-0.53601 -0.0765,-0.53218 -0.0957,-0.52452 -0.11868,-0.51686 -0.13395,-0.50919 -0.15697,-0.49773 -0.17228,-0.49388 -0.19527,-0.48241 -0.21056,-0.47475 -0.22972,-0.46326 -0.24504,-0.45178 -0.26417,-0.44028 -0.27949,-0.43264 -0.2948,-0.42114 -0.31011,-0.40583 -0.32543,-0.39434 -0.34075,-0.38287 -0.35606,-0.36755 -0.36755,-0.35605 -0.38285,-0.34075 -0.39436,-0.32543 -0.40583,-0.31012 -0.42114,-0.2948 -0.4288,-0.27949 -0.44412,-0.26417 -0.45178,-0.24504 -0.46326,-0.2297 -0.47474,-0.21058 -0.4824,-0.19143 -0.49007,-0.17612 -0.50155,-0.15697 -0.5092,-0.13395 -0.51686,-0.11868 -0.52452,-0.0957 -0.53218,-0.0765 -0.536,-0.0537 -0.54366,-0.0307 -0.54749,-0.0121 v -0.0535 h -0.0191 z"
         style="fill:none;stroke-width:0.38286" />
      <path
         id="use83"
         d="m 102.37907,249.65522 -0.40583,-0.39052 v 7.26286 c -1.80711,-1.12179 -4.544556,-3.14712 -4.579012,-3.16243 -0.01149,-0.003 -0.06126,-0.0268 -0.153148,-0.0689 v 3.0629 h -2.075101 l 0.390516,0.40965 h 2.075104 v -2.92888 c 0.09189,0.0612 0.145496,0.0957 0.153145,0.10341 0,0 2.775736,1.97174 4.594326,3.09734 v -0.11868 -3.55676 c 0.0191,-1.44723 0,-2.68768 0,-3.70992 z"
         style="fill:#231815;stroke-width:0.38286" />
      <path
         id="use85"
         d="m 102.37907,249.65522 -0.40583,-0.39052 v 7.26286 c -1.80711,-1.12179 -4.544556,-3.14712 -4.579012,-3.16243 -0.01149,-0.003 -0.06126,-0.0268 -0.153148,-0.0689 v 3.0629 h -2.075101 l 0.390516,0.40965 h 2.075104 v -2.92888 c 0.09189,0.0612 0.145496,0.0957 0.153145,0.10341 0,0 2.775736,1.97174 4.594326,3.09734 v -0.11868 -3.55676 c 0.0191,-1.44723 0,-2.68768 0,-3.70992 z"
         style="fill:none;stroke-width:0.38286" />
      <path
         id="use87"
         d="m 112.16498,253.19284 c 0,-0.938 0.76189,-1.6999 1.69991,-1.6999 0.37902,-0.008 0.75422,0.0995 1.07199,0.3063 a 1.8040382,1.8040382 0 0 0 -2.52687,-0.3331 1.8051867,1.8051867 0 0 0 -0.70446,1.37064 1.6999001,1.6999001 0 0 0 0.76572,1.46252 c -0.20674,-0.32925 -0.31394,-0.71594 -0.30629,-1.10646 z"
         style="fill:#231815;stroke-width:0.38286" />
      <path
         id="use89"
         d="m 112.16498,253.19284 c 0,-0.938 0.76189,-1.6999 1.69991,-1.6999 0.37902,-0.008 0.75422,0.0995 1.07199,0.3063 a 1.8040382,1.8040382 0 0 0 -2.52687,-0.3331 1.8051867,1.8051867 0 0 0 -0.70446,1.37064 1.6999001,1.6999001 0 0 0 0.76572,1.46252 c -0.20674,-0.32925 -0.31394,-0.71594 -0.30629,-1.10646 z"
         style="fill:none;stroke-width:0.38286" />
      <path
         id="use91"
         d="m 117.42165,252.82146 c -0.0535,2.167 -1.85304,3.88604 -4.02387,3.83244 a 3.9396335,3.9396335 0 0 1 -2.45796,-0.94184 c 1.47784,1.58887 3.96261,1.68076 5.55531,0.20292 0.75423,-0.70064 1.20601,-1.67309 1.25195,-2.703 a 3.6440652,3.6440652 0 0 0 -1.20984,-2.87527 3.6367908,3.6367908 0 0 1 0.88441,2.48475 z"
         style="fill:#231815;stroke-width:0.38286" />
      <path
         id="use93"
         d="m 117.42165,252.82146 c -0.0535,2.167 -1.85304,3.88604 -4.02387,3.83244 a 3.9396335,3.9396335 0 0 1 -2.45796,-0.94184 c 1.47784,1.58887 3.96261,1.68076 5.55531,0.20292 0.75423,-0.70064 1.20601,-1.67309 1.25195,-2.703 a 3.6440652,3.6440652 0 0 0 -1.20984,-2.87527 3.6367908,3.6367908 0 0 1 0.88441,2.48475 z"
         style="fill:none;stroke-width:0.38286" />
      <path
         id="use95"
         d="m 120.07488,253.68673 a 2.632548,2.632548 0 0 1 -1.30938,-0.50921 2.4970155,2.4970155 0 0 0 1.70372,0.89973 h 0.39051 c 0.22972,0.0192 0.45562,0.0804 0.66236,0.1876 -0.11868,-0.32161 -0.47476,-0.50921 -1.05287,-0.57812 z"
         style="fill:#231815;stroke-width:0.38286" />
      <path
         id="use97"
         d="m 120.07488,253.68673 a 2.632548,2.632548 0 0 1 -1.30938,-0.50921 2.4970155,2.4970155 0 0 0 1.70372,0.89973 h 0.39051 c 0.22972,0.0192 0.45562,0.0804 0.66236,0.1876 -0.11868,-0.32161 -0.47476,-0.50921 -1.05287,-0.57812 z"
         style="fill:none;stroke-width:0.38286" />
      <path
         id="use99"
         d="m 123.56656,250.4707 -1.48167,0.54367 c 0.23354,0.23736 0.36371,0.36755 0.39052,0.39434 0.23736,0 1.32853,-0.47857 1.49699,-0.54749 a 2.2293961,2.2293961 0 0 0 -0.80019,-1.17155 1.6845858,1.6845858 0 0 1 0.39435,0.78103 z"
         style="fill:#231815;stroke-width:0.38286" />
      <path
         id="use101"
         d="m 123.56656,250.4707 -1.48167,0.54367 c 0.23354,0.23736 0.36371,0.36755 0.39052,0.39434 0.23736,0 1.32853,-0.47857 1.49699,-0.54749 a 2.2293961,2.2293961 0 0 0 -0.80019,-1.17155 1.6845858,1.6845858 0 0 1 0.39435,0.78103 z"
         style="fill:none;stroke-width:0.38286" />
      <path
         id="use103"
         d="m 123.85371,253.94324 c -0.005,1.53912 -1.25961,2.78341 -2.80254,2.77957 -0.11489,0 -0.22972,-0.008 -0.34458,-0.023 -0.74274,0.0307 -1.474,-0.19142 -2.0751,-0.63171 a 3.0234485,3.0234485 0 0 0 2.48477,1.02223 c 1.52761,0.18761 2.92122,-0.89971 3.10882,-2.42733 0.0121,-0.088 0.0192,-0.17229 0.0192,-0.26034 0,-0.61641 -0.28715,-1.19453 -0.78103,-1.5659 0.2412,0.31777 0.37903,0.70446 0.39052,1.10646 z"
         style="fill:#231815;stroke-width:0.38286" />
      <path
         id="use105"
         d="m 123.85371,253.94324 c -0.005,1.53912 -1.25961,2.78341 -2.80254,2.77957 -0.11489,0 -0.22972,-0.008 -0.34458,-0.023 -0.74274,0.0307 -1.474,-0.19142 -2.0751,-0.63171 a 3.0234485,3.0234485 0 0 0 2.48477,1.02223 c 1.52761,0.18761 2.92122,-0.89971 3.10882,-2.42733 0.0121,-0.088 0.0192,-0.17229 0.0192,-0.26034 0,-0.61641 -0.28715,-1.19453 -0.78103,-1.5659 0.2412,0.31777 0.37903,0.70446 0.39052,1.10646 z"
         style="fill:none;stroke-width:0.38286" />
      <path
         id="use107"
         d="m 120.10933,251.04882 c 0.0121,0.268 0.17995,0.50154 0.42497,0.59727 -0.008,-0.0689 -0.008,-0.13788 0,-0.20291 0,-0.15315 0,-0.6815 0.88825,-0.6815 0.2297,-0.008 0.45942,0.046 0.66234,0.15315 -0.22206,-0.38287 -0.65087,-0.59727 -1.09115,-0.54366 -0.83082,0 -0.88441,0.52452 -0.88441,0.67765 z"
         style="fill:#231815;stroke-width:0.38286" />
      <path
         id="use109"
         d="m 120.10933,251.04882 c 0.0121,0.268 0.17995,0.50154 0.42497,0.59727 -0.008,-0.0689 -0.008,-0.13788 0,-0.20291 0,-0.15315 0,-0.6815 0.88825,-0.6815 0.2297,-0.008 0.45942,0.046 0.66234,0.15315 -0.22206,-0.38287 -0.65087,-0.59727 -1.09115,-0.54366 -0.83082,0 -0.88441,0.52452 -0.88441,0.67765 z"
         style="fill:none;stroke-width:0.38286" />
      <path
         id="use111"
         d="m 93.906368,256.37442 h -5.666337 l 0.409664,0.40965 h 5.666333 v -1.53143 l -0.40966,-0.39052 z"
         style="fill:#231815;stroke-width:0.38286" />
      <path
         id="use113"
         d="m 93.906368,256.37442 h -5.666337 l 0.409664,0.40965 h 5.666333 v -1.53143 l -0.40966,-0.39052 z"
         style="fill:none;stroke-width:0.38286" />
      <path
         id="use115"
         d="m 90.46828,254.86212 h 0.40966 v -0.84995 h 3.403631 v -1.70374 l -0.394347,-0.39052 v 1.69991 h -3.3998 z"
         style="fill:#231815;stroke-width:0.38286" />
      <path
         id="use117"
         d="m 90.46828,254.86212 h 0.40966 v -0.84995 h 3.403631 v -1.70374 l -0.394347,-0.39052 v 1.69991 h -3.3998 z"
         style="fill:none;stroke-width:0.38286" />
      <path
         id="use119"
         d="m 93.906368,249.21109 v 1.44721 h -3.403629 v 1.29407 h 0.40966 v -0.90355 h 3.403629 v -1.44337 z"
         style="fill:#231815;stroke-width:0.38286" />
      <path
         id="use121"
         d="m 93.906368,249.21109 v 1.44721 h -3.403629 v 1.29407 h 0.40966 v -0.90355 h 3.403629 v -1.44337 z"
         style="fill:none;stroke-width:0.38286" />
      <path
         id="use123"
         d="m 108.83027,256.37442 h -5.68548 l 0.39052,0.40965 h 5.65102 v -1.53143 l -0.39052,-0.39052 z"
         style="fill:#231815;stroke-width:0.38286" />
      <path
         id="use125"
         d="m 108.83027,256.37442 h -5.68548 l 0.39052,0.40965 h 5.65102 v -1.53143 l -0.39052,-0.39052 z"
         style="fill:none;stroke-width:0.38286" />
      <path
         id="use127"
         d="m 108.83027,253.60249 h -3.40363 v 1.25963 h 0.40583 v -0.84995 h 3.40363 v -1.70374 l -0.39052,-0.39052 z"
         style="fill:#231815;stroke-width:0.38286" />
      <path
         id="use129"
         d="m 108.83027,253.60249 h -3.40363 v 1.25963 h 0.40583 v -0.84995 h 3.40363 v -1.70374 l -0.39052,-0.39052 z"
         style="fill:none;stroke-width:0.38286" />
      <path
         id="use131"
         d="m 108.83027,249.21109 v 1.44721 h -3.40363 v 1.29407 h 0.40583 v -0.90355 h 3.40363 v -1.44337 z"
         style="fill:#231815;stroke-width:0.38286" />
      <path
         id="use133"
         d="m 108.83027,249.21109 v 1.44721 h -3.40363 v 1.29407 h 0.40583 v -0.90355 h 3.40363 v -1.44337 z"
         style="fill:none;stroke-width:0.38286" />
      <path
         id="use135"
         d="m 95.13152,256.3591 h 2.075103 v -3.06288 c 0.09189,0.0612 0.141656,0.0957 0.153145,0.1034 0,0 2.775742,2.04065 4.579012,3.16243 v -3.5721 -3.69076 h -2.059789 v 3.12796 c -0.0804,-0.11096 -0.126343,-0.17228 -0.137832,-0.1876 0,0 -2.890595,-2.12486 -4.57518,-3.18156 -0.01915,1.58504 -0.03444,2.77573 -0.03444,3.98175 z"
         style="fill:#ffffff;stroke-width:0.38286" />
      <path
         id="use137"
         d="m 95.13152,256.3591 h 2.075103 v -3.06288 c 0.09189,0.0612 0.141656,0.0957 0.153145,0.1034 0,0 2.775742,2.04065 4.579012,3.16243 v -3.5721 -3.69076 h -2.059789 v 3.12796 c -0.0804,-0.11096 -0.126343,-0.17228 -0.137832,-0.1876 0,0 -2.890595,-2.12486 -4.57518,-3.18156 -0.01915,1.58504 -0.03444,2.77573 -0.03444,3.98175 z"
         style="fill:none;stroke-width:0.38286" />
      <path
         id="use139"
         d="m 114.56168,249.11155 0.47858,0.16847 0.45177,0.22588 0.4135,0.27948 0.3752,0.32926 0.32926,0.3752 0.27949,0.4135 0.22589,0.45177 0.16845,0.47858 0.1034,0.50921 0.0345,0.52835 v 0.0689 l -0.046,0.51685 -0.10718,0.49772 -0.17611,0.47092 -0.22972,0.43646 -0.27949,0.402 -0.32926,0.36371 -0.3752,0.31396 -0.4135,0.268 -0.44411,0.2144 -0.47475,0.15698 -0.50154,0.0919 -0.52069,0.0268 h -0.24121 l -0.5092,-0.0497 -0.49006,-0.11867 -0.45944,-0.17611 -0.42879,-0.23355 -0.39436,-0.28331 -0.35222,-0.32927 -0.30629,-0.37519 -0.26035,-0.40967 -0.20292,-0.44411 -0.14936,-0.47093 -0.0842,-0.49388 -0.0153,-0.46709 0.0345,-0.50538 0.10341,-0.50921 0.16846,-0.47856 0.22589,-0.45179 0.27949,-0.41348 0.32926,-0.3752 0.37137,-0.32926 0.41731,-0.27949 0.44795,-0.22589 0.4824,-0.16847 0.50539,-0.1034 0.52834,-0.0345 0.52835,0.0345 z m -2.10955,2.31631 -0.36755,0.36754 -0.2412,0.45944 -0.0881,0.53217 v 0.0268 l -0.003,0.0268 v 0.0881 l 0.088,0.53599 0.24119,0.46709 0.37138,0.36755 0.46709,0.23737 0.53984,0.088 h 0.046 l 0.0268,-0.003 h 0.0497 l 0.52835,-0.12639 0.45177,-0.27182 0.34074,-0.39434 0.20675,-0.48241 0.0497,-0.54366 -0.088,-0.53601 -0.24121,-0.46709 -0.36753,-0.37138 -0.46709,-0.24119 -0.53601,-0.0842 -0.53984,0.0842 z m -2.82169,1.44339 v -0.0689 0.046 z"
         style="fill:#ffffff;stroke-width:0.38286" />
      <path
         id="use141"
         d="m 114.56168,249.11155 0.47858,0.16847 0.45177,0.22588 0.4135,0.27948 0.3752,0.32926 0.32926,0.3752 0.27949,0.4135 0.22589,0.45177 0.16845,0.47858 0.1034,0.50921 0.0345,0.52835 v 0.0689 l -0.046,0.51685 -0.10718,0.49772 -0.17611,0.47092 -0.22972,0.43646 -0.27949,0.402 -0.32926,0.36371 -0.3752,0.31396 -0.4135,0.268 -0.44411,0.2144 -0.47475,0.15698 -0.50154,0.0919 -0.52069,0.0268 h -0.24121 l -0.5092,-0.0497 -0.49006,-0.11867 -0.45944,-0.17611 -0.42879,-0.23355 -0.39436,-0.28331 -0.35222,-0.32927 -0.30629,-0.37519 -0.26035,-0.40967 -0.20292,-0.44411 -0.14936,-0.47093 -0.0842,-0.49388 -0.0153,-0.46709 0.0345,-0.50538 0.10341,-0.50921 0.16846,-0.47856 0.22589,-0.45179 0.27949,-0.41348 0.32926,-0.3752 0.37137,-0.32926 0.41731,-0.27949 0.44795,-0.22589 0.4824,-0.16847 0.50539,-0.1034 0.52834,-0.0345 0.52835,0.0345 z m -2.10955,2.31631 -0.36755,0.36754 -0.2412,0.45944 -0.0881,0.53217 v 0.0268 l -0.003,0.0268 v 0.0881 l 0.088,0.53599 0.24119,0.46709 0.37138,0.36755 0.46709,0.23737 0.53984,0.088 h 0.046 l 0.0268,-0.003 h 0.0497 l 0.52835,-0.12639 0.45177,-0.27182 0.34074,-0.39434 0.20675,-0.48241 0.0497,-0.54366 -0.088,-0.53601 -0.24121,-0.46709 -0.36753,-0.37138 -0.46709,-0.24119 -0.53601,-0.0842 -0.53984,0.0842 z m -2.82169,1.44339 v -0.0689 0.046 z"
         style="fill:none;stroke-width:0.38286" />
      <path
         id="use143"
         d="m 120.16292,253.63696 h 0.39054 c 0.71594,0.0842 1.08732,0.35607 1.08732,0.81549 0,0.45944 -0.34075,0.71595 -0.93419,0.71595 a 1.2955996,1.2955996 0 0 1 -1.17538,-0.76572 c -0.1034,0.0383 -0.62406,0.22972 -1.5659,0.57812 a 2.7899036,2.7899036 0 0 0 2.8102,1.58122 c 1.52761,0.19909 2.92505,-0.88059 3.12414,-2.4082 0.0121,-0.0995 0.0192,-0.19526 0.023,-0.2948 a 2.1646927,2.1646927 0 0 0 -2.0598,-1.92579 h -0.50919 c -0.64704,-0.0995 -1.24429,-0.25269 -1.24429,-0.79635 0,-0.15314 0,-0.68149 0.88439,-0.68149 0.4824,-0.046 0.93419,0.22205 1.12562,0.66235 0.0995,-0.0345 0.58961,-0.21823 1.47784,-0.54366 -0.18378,-0.93802 -1.13709,-1.48167 -2.5154,-1.48167 -1.95642,-0.0995 -3.06288,0.80018 -3.06288,2.5039 a 2.1593325,2.1593325 0 0 0 2.14402,2.04065 z"
         style="fill:#ffffff;stroke-width:0.38286" />
      <path
         id="use145"
         d="m 120.16292,253.63696 h 0.39054 c 0.71594,0.0842 1.08732,0.35607 1.08732,0.81549 0,0.45944 -0.34075,0.71595 -0.93419,0.71595 a 1.2955996,1.2955996 0 0 1 -1.17538,-0.76572 c -0.1034,0.0383 -0.62406,0.22972 -1.5659,0.57812 a 2.7899036,2.7899036 0 0 0 2.8102,1.58122 c 1.52761,0.19909 2.92505,-0.88059 3.12414,-2.4082 0.0121,-0.0995 0.0192,-0.19526 0.023,-0.2948 a 2.1646927,2.1646927 0 0 0 -2.0598,-1.92579 h -0.50919 c -0.64704,-0.0995 -1.24429,-0.25269 -1.24429,-0.79635 0,-0.15314 0,-0.68149 0.88439,-0.68149 0.4824,-0.046 0.93419,0.22205 1.12562,0.66235 0.0995,-0.0345 0.58961,-0.21823 1.47784,-0.54366 -0.18378,-0.93802 -1.13709,-1.48167 -2.5154,-1.48167 -1.95642,-0.0995 -3.06288,0.80018 -3.06288,2.5039 a 2.1593325,2.1593325 0 0 0 2.14402,2.04065 z"
         style="fill:none;stroke-width:0.38286" />
      <path
         id="use147"
         d="m 93.906368,254.86212 h -3.403629 v -1.25963 h 3.403629 v -1.69989 h -3.403629 v -1.29407 h 3.403629 v -1.39744 h -5.666337 v 7.16333 h 5.666337 z"
         style="fill:#ffffff;stroke-width:0.38286" />
      <path
         id="use149"
         d="m 93.906368,254.86212 h -3.403629 v -1.25963 h 3.403629 v -1.69989 h -3.403629 v -1.29407 h 3.403629 v -1.39744 h -5.666337 v 7.16333 h 5.666337 z"
         style="fill:none;stroke-width:0.38286" />
      <path
         id="use151"
         d="m 108.83027,254.86212 h -3.40363 v -1.25963 h 3.40363 v -1.69989 h -3.40363 v -1.29407 h 3.40363 v -1.39744 h -5.68548 v 7.16333 h 5.66634 z"
         style="fill:#ffffff;stroke-width:0.38286" />
      <path
         id="use153"
         d="m 108.83027,254.86212 h -3.40363 v -1.25963 h 3.40363 v -1.69989 h -3.40363 v -1.29407 h 3.40363 v -1.39744 h -5.68548 v 7.16333 h 5.66634 z"
         style="fill:none;stroke-width:0.38286" />
    </g>
  </g>
</svg>
