<?xml version="1.0" encoding="UTF-8" standalone="no"?>
<svg
   xmlns:dc="http://purl.org/dc/elements/1.1/"
   xmlns:cc="http://creativecommons.org/ns#"
   xmlns:rdf="http://www.w3.org/1999/02/22-rdf-syntax-ns#"
   xmlns:svg="http://www.w3.org/2000/svg"
   xmlns="http://www.w3.org/2000/svg"
   version="1.1"
   id="svg7940"
   viewBox="0 0 596.4975 601.41733"
   height="169.73334mm"
   width="168.34485mm">
  <defs
     id="defs7942" />
  <metadata
     id="metadata7945">
    <rdf:RDF>
      <cc:Work
         rdf:about="">
        <dc:format>image/svg+xml</dc:format>
        <dc:type
           rdf:resource="http://purl.org/dc/dcmitype/StillImage" />
        <dc:title></dc:title>
      </cc:Work>
    </rdf:RDF>
  </metadata>
  <g
     transform="translate(-316.97292,-151.72231)"
     id="layer1">
    <g
       id="g3339">
      <g
         id="g48"
         transform="matrix(5.8344078,0,0,-5.8344078,325.38906,432.58341)">
        <path
           d="m 0,0 46.711,46.711 c 1.752,1.752 4.606,1.74 6.343,-0.026 L 99.379,-0.409 c 1.737,-1.766 1.725,-4.643 -0.027,-6.395 L 52.641,-53.515 c -1.751,-1.751 -4.605,-1.74 -6.342,0.026 L -0.026,-6.395 C -1.763,-4.629 -1.751,-1.751 0,0"
           style="fill:#fabd2a;fill-opacity:1;fill-rule:evenodd;stroke:none"
           id="path50" />
      </g>
      <g
         id="g52"
         transform="matrix(5.8344078,0,0,-5.8344078,630.53209,183.14026)">
        <path
           d="m 0,0 43.532,-43.531 c 1.442,-1.443 1.415,-3.831 -0.061,-5.308 L 0.059,-92.251 c -1.477,-1.476 -3.865,-1.503 -5.307,-0.061 L -48.78,-48.78 c -1.443,1.443 -1.416,3.831 0.061,5.307 L -5.307,-0.06 C -3.831,1.416 -1.443,1.443 0,0 Z"
           style="fill:none;stroke:#231f20;stroke-width:2;stroke-linecap:butt;stroke-linejoin:miter;stroke-miterlimit:22.9260006;stroke-dasharray:none;stroke-opacity:1"
           id="path54" />
      </g>
      <g
         id="g140"
         transform="matrix(5.8344078,0,0,-5.8344078,564.38274,570.90901)">
        <path
           d="m 0,0 0,-0.777 0,-0.389 0,-6.608 0,-3.11 12.443,0 0,27.988 12.444,0 0,7.386 -12.444,0 0,27.599 L 0,52.089 0,3.499 0,0 Z"
           style="fill:#231f20;fill-opacity:1;fill-rule:evenodd;stroke:none"
           id="path142" />
      </g>
    </g>
  </g>
</svg>
