<?xml version="1.0" encoding="UTF-8" standalone="no"?>
<svg
   xmlns:dc="http://purl.org/dc/elements/1.1/"
   xmlns:cc="http://creativecommons.org/ns#"
   xmlns:rdf="http://www.w3.org/1999/02/22-rdf-syntax-ns#"
   xmlns:svg="http://www.w3.org/2000/svg"
   xmlns="http://www.w3.org/2000/svg"
   xmlns:sodipodi="http://sodipodi.sourceforge.net/DTD/sodipodi-0.dtd"
   xmlns:inkscape="http://www.inkscape.org/namespaces/inkscape"
   sodipodi:docname="LM-110.svg"
   inkscape:version="1.0 (4035a4fb49, 2020-05-01)"
   id="svg3895"
   version="1.1"
   viewBox="0 0 158.75635 158.75635"
   height="158.75635mm"
   width="158.75635mm">
  <defs
     id="defs3889" />
  <sodipodi:namedview
     inkscape:window-maximized="1"
     inkscape:window-y="-9"
     inkscape:window-x="-9"
     inkscape:window-height="1001"
     inkscape:window-width="1920"
     showgrid="false"
     inkscape:document-rotation="0"
     inkscape:current-layer="layer1"
     inkscape:document-units="mm"
     inkscape:cy="484.43281"
     inkscape:cx="283.15685"
     inkscape:zoom="1.4"
     inkscape:pageshadow="2"
     inkscape:pageopacity="0.0"
     borderopacity="1.0"
     bordercolor="#666666"
     pagecolor="#ffffff"
     id="base" />
  <metadata
     id="metadata3892">
    <rdf:RDF>
      <cc:Work
         rdf:about="">
        <dc:format>image/svg+xml</dc:format>
        <dc:type
           rdf:resource="http://purl.org/dc/dcmitype/StillImage" />
        <dc:title />
      </cc:Work>
    </rdf:RDF>
  </metadata>
  <g
     transform="translate(-247.28111,-23.431351)"
     id="layer1"
     inkscape:groupmode="layer"
     inkscape:label="Layer 1">
    <path
       sodipodi:nodetypes="sssssssss"
       id="path27680"
       d="m 264.41604,23.629788 c -9.38612,0 -16.93593,7.606198 -16.93596,16.991552 l -5.3e-4,124.36493 c -3e-5,9.38536 7.57392,17.003 16.96041,17.00299 l 124.48033,-1.9e-4 c 9.3865,-1e-5 16.91013,-7.66444 16.91073,-17.0498 l 0.008,-124.33393 c 7e-4,-9.385354 -7.63217,-16.975552 -17.01831,-16.975552 z"
       style="color:#000000;font-style:normal;font-variant:normal;font-weight:normal;font-stretch:normal;font-size:medium;line-height:normal;font-family:sans-serif;font-variant-ligatures:normal;font-variant-position:normal;font-variant-caps:normal;font-variant-numeric:normal;font-variant-alternates:normal;font-variant-east-asian:normal;font-feature-settings:normal;font-variation-settings:normal;text-indent:0;text-align:start;text-decoration:none;text-decoration-line:none;text-decoration-style:solid;text-decoration-color:#000000;letter-spacing:normal;word-spacing:normal;text-transform:none;writing-mode:lr-tb;direction:ltr;text-orientation:mixed;dominant-baseline:auto;baseline-shift:baseline;text-anchor:start;white-space:normal;shape-padding:0;shape-margin:0;inline-size:0;clip-rule:nonzero;display:inline;overflow:visible;visibility:visible;opacity:1;isolation:auto;mix-blend-mode:normal;color-interpolation:sRGB;color-interpolation-filters:linearRGB;solid-color:#000000;solid-opacity:1;vector-effect:none;fill:#ffffff;fill-opacity:1;fill-rule:evenodd;stroke:#231f20;stroke-width:0.396875;stroke-linecap:round;stroke-linejoin:miter;stroke-miterlimit:22.926;stroke-dasharray:none;stroke-dashoffset:0;stroke-opacity:1;paint-order:stroke fill markers;color-rendering:auto;image-rendering:auto;shape-rendering:auto;text-rendering:auto;enable-background:accumulate;stop-color:#000000;stop-opacity:1" />
    <path
       sodipodi:nodetypes="ssssssssscssssssssc"
       d="m 264.59462,25.87987 c -8.15142,0 -14.86079,6.708794 -14.86079,14.859549 V 164.87808 c 0,8.15076 6.70937,14.8611 14.86079,14.8611 h 124.12934 c 8.15144,0 14.86079,-6.71034 14.86079,-14.8611 V 40.739419 c 0,-8.150755 -6.70935,-14.859549 -14.86079,-14.859549 z m 5.3e-4,4.749578 h 124.12779 c 5.60188,0 10.11185,4.50959 10.11185,10.111005 V 164.87808 c 0,5.60141 -4.50997,10.11101 -10.11185,10.11101 h -124.1278 c -5.60188,0 -10.11133,-4.5096 -10.11133,-10.11101 V 40.740453 c 0,-5.601415 4.50945,-10.111005 10.11133,-10.111005 z"
       style="color:#000000;font-style:normal;font-variant:normal;font-weight:normal;font-stretch:normal;font-size:medium;line-height:normal;font-family:sans-serif;font-variant-ligatures:normal;font-variant-position:normal;font-variant-caps:normal;font-variant-numeric:normal;font-variant-alternates:normal;font-variant-east-asian:normal;font-feature-settings:normal;font-variation-settings:normal;text-indent:0;text-align:start;text-decoration:none;text-decoration-line:none;text-decoration-style:solid;text-decoration-color:#000000;letter-spacing:normal;word-spacing:normal;text-transform:none;writing-mode:lr-tb;direction:ltr;text-orientation:mixed;dominant-baseline:auto;baseline-shift:baseline;text-anchor:start;white-space:normal;shape-padding:0;shape-margin:0;inline-size:0;clip-rule:nonzero;display:inline;overflow:visible;visibility:visible;opacity:1;isolation:auto;mix-blend-mode:normal;color-interpolation:sRGB;color-interpolation-filters:linearRGB;solid-color:#000000;solid-opacity:1;vector-effect:none;fill:#000000;fill-opacity:1;fill-rule:evenodd;stroke:none;stroke-width:4.50001;stroke-linecap:round;stroke-linejoin:miter;stroke-miterlimit:4;stroke-dasharray:none;stroke-dashoffset:0;stroke-opacity:1;paint-order:stroke fill markers;color-rendering:auto;image-rendering:auto;shape-rendering:auto;text-rendering:auto;enable-background:accumulate;stop-color:#000000;stop-opacity:1"
       id="path27682" />
    <g
       style="font-size:34.2728px;line-height:97.02%;font-family:'Russian Road Sign';-inkscape-font-specification:'Russian Road Sign';text-align:center;text-anchor:middle;opacity:1;fill:#000000;stroke-width:0.264583"
       id="text3868"
       aria-label="104" />
    <path
       id="path28388"
       d="m 326.48157,51.838519 h 39.77982 v 48.638511 c 0,5.69608 -0.22943,18.91796 -11.53759,33.8852 -11.30814,14.96724 -26.15766,19.30512 -28.24223,19.67529 -2.08457,-0.37017 -16.93408,-4.70805 -28.24223,-19.67529 -11.30816,-14.96724 -11.53758,-28.18912 -11.53758,-33.8852 V 51.838519 Z"
       style="color:#000000;font-style:normal;font-variant:normal;font-weight:bold;font-stretch:semi-condensed;font-size:126.586px;line-height:normal;font-family:'Arial Narrow';-inkscape-font-specification:ArialNarrow-Bold;font-variant-ligatures:normal;font-variant-position:normal;font-variant-caps:normal;font-variant-numeric:normal;font-variant-alternates:normal;font-variant-east-asian:normal;font-feature-settings:normal;font-variation-settings:normal;text-indent:0;text-align:start;text-decoration:none;text-decoration-line:none;text-decoration-style:solid;text-decoration-color:#000000;letter-spacing:normal;word-spacing:normal;text-transform:none;writing-mode:lr-tb;direction:ltr;text-orientation:mixed;dominant-baseline:auto;baseline-shift:baseline;text-anchor:start;white-space:normal;shape-padding:0;shape-margin:0;inline-size:0;clip-rule:nonzero;display:inline;overflow:visible;visibility:visible;isolation:auto;mix-blend-mode:normal;color-interpolation:sRGB;color-interpolation-filters:linearRGB;solid-color:#000000;solid-opacity:1;vector-effect:none;fill:#ffffff;fill-opacity:1;fill-rule:nonzero;stroke:none;stroke-width:0.321908;stroke-linecap:butt;stroke-linejoin:miter;stroke-miterlimit:22.926;stroke-dasharray:none;stroke-dashoffset:0;stroke-opacity:1;color-rendering:auto;image-rendering:auto;shape-rendering:auto;text-rendering:auto;enable-background:accumulate;stop-color:#000000" />
    <path
       id="path28390"
       d="M 286.53996,51.676647 V 100.4774 c 0,5.7004 0.23626,18.97962 11.57127,33.9824 5.66999,7.5047 12.22821,12.34507 17.63037,15.35546 5.40216,3.0104 9.62774,4.18836 10.71182,4.38086 l 0.0273,0.004 0.0293,-0.004 c 1.08408,-0.1925 5.30966,-1.37046 10.71183,-4.38086 5.40216,-3.01039 11.96038,-7.85076 17.63037,-15.35546 11.33501,-15.00278 11.56932,-28.282 11.56932,-33.9824 V 51.676647 h -39.94082 z m 0.32229,0.322266 h 39.61853 39.62046 V 100.4774 c 0,5.69176 -0.22551,18.8554 -11.50681,33.78709 -5.63815,7.46256 -12.15803,12.27662 -17.5288,15.26952 -5.35084,2.9818 -9.56416,4.1535 -10.58485,4.33789 -1.02202,-0.18482 -5.23337,-1.35681 -10.58293,-4.33789 -5.37076,-2.9929 -11.89258,-7.80696 -17.53074,-15.26952 C 287.0858,119.3328 286.86225,106.16916 286.86225,100.4774 Z"
       style="color:#000000;font-style:normal;font-variant:normal;font-weight:bold;font-stretch:semi-condensed;font-size:126.586px;line-height:normal;font-family:'Arial Narrow';-inkscape-font-specification:ArialNarrow-Bold;font-variant-ligatures:normal;font-variant-position:normal;font-variant-caps:normal;font-variant-numeric:normal;font-variant-alternates:normal;font-variant-east-asian:normal;font-feature-settings:normal;font-variation-settings:normal;text-indent:0;text-align:start;text-decoration:none;text-decoration-line:none;text-decoration-style:solid;text-decoration-color:#000000;letter-spacing:normal;word-spacing:normal;text-transform:none;writing-mode:lr-tb;direction:ltr;text-orientation:mixed;dominant-baseline:auto;baseline-shift:baseline;text-anchor:start;white-space:normal;shape-padding:0;shape-margin:0;inline-size:0;clip-rule:nonzero;display:inline;overflow:visible;visibility:visible;isolation:auto;mix-blend-mode:normal;color-interpolation:sRGB;color-interpolation-filters:linearRGB;solid-color:#000000;solid-opacity:1;vector-effect:none;fill:#000000;fill-opacity:1;fill-rule:nonzero;stroke:none;stroke-width:0.321908;stroke-linecap:butt;stroke-linejoin:miter;stroke-miterlimit:22.926;stroke-dasharray:none;stroke-dashoffset:0;stroke-opacity:1;color-rendering:auto;image-rendering:auto;shape-rendering:auto;text-rendering:auto;enable-background:accumulate;stop-color:#000000" />
    <path
       style="color:#000000;font-style:normal;font-variant:normal;font-weight:normal;font-stretch:normal;font-size:medium;line-height:normal;font-family:'Arial Narrow';-inkscape-font-specification:ArialNarrow-Bold;font-variant-ligatures:normal;font-variant-position:normal;font-variant-caps:normal;font-variant-numeric:normal;font-variant-alternates:normal;font-variant-east-asian:normal;font-feature-settings:normal;font-variation-settings:normal;text-indent:0;text-align:start;text-decoration:none;text-decoration-line:none;text-decoration-style:solid;text-decoration-color:#000000;letter-spacing:normal;word-spacing:normal;text-transform:none;writing-mode:lr-tb;direction:ltr;text-orientation:mixed;dominant-baseline:auto;baseline-shift:baseline;text-anchor:start;white-space:normal;shape-padding:0;shape-margin:0;inline-size:0;clip-rule:nonzero;display:inline;overflow:visible;visibility:visible;isolation:auto;mix-blend-mode:normal;color-interpolation:sRGB;color-interpolation-filters:linearRGB;solid-color:#000000;solid-opacity:1;vector-effect:none;fill:#000000;fill-opacity:1;fill-rule:nonzero;stroke:none;stroke-width:2.23546;stroke-linecap:butt;stroke-linejoin:miter;stroke-miterlimit:22.926;stroke-dasharray:none;stroke-dashoffset:0;stroke-opacity:1;color-rendering:auto;image-rendering:auto;shape-rendering:auto;text-rendering:auto;enable-background:accumulate;stop-color:#000000"
       d="m 326.48158,152.03831 -0.21993,-0.0468 c -1.31181,-0.27805 -5.06389,-1.5433 -9.94899,-4.31867 -4.88508,-2.77537 -10.75918,-7.04069 -15.76057,-13.24744 -9.95246,-12.35251 -12.02453,-24.17868 -12.02453,-33.87306 V 64.540509 53.679197 l 37.95126,0.104462 h 0.006 l 37.95128,-0.104462 v 10.861312 36.011831 c 0,9.69438 -2.07206,21.52055 -12.02454,33.8731 -5.00138,6.20675 -10.87547,10.47208 -15.76057,13.24744 -4.8851,2.77537 -8.63717,4.04063 -9.94899,4.31869 z m 0,-2.19096 c 0.917,-0.22402 4.58124,-1.42823 9.12699,-4.01081 4.70868,-2.67513 10.36766,-6.79062 15.15852,-12.73612 9.632,-11.9548 11.5572,-23.14856 11.5572,-32.54808 V 88.06918 h -71.68543 v 12.48316 c 0,9.39952 1.9252,20.59328 11.5572,32.54808 4.79086,5.9455 10.44984,10.06099 15.15851,12.73612 4.54575,2.58258 8.21,3.78679 9.12701,4.01081 z M 290.63886,85.957964 h 71.68543 v -21.417455 -8.74458 l -35.84271,0.09896 h -0.003 l -35.83988,-0.09896 v 8.74458 z"
       id="path28316" />
    <g
       transform="translate(-2.8803451)"
       style="font-style:normal;font-weight:normal;font-size:17.2136px;line-height:1.25;font-family:sans-serif;letter-spacing:-0.132292px;fill:#000000;fill-opacity:1;stroke:none;stroke-width:0.430339"
       id="text1255"
       aria-label="TACNA">
      <path
         id="path1336"
         style="font-style:normal;font-variant:normal;font-weight:normal;font-stretch:normal;font-family:'Highway Gothic Wide';-inkscape-font-specification:'Highway Gothic Wide';fill:#000000;stroke-width:0.430339"
         d="m 309.4896,67.652428 h -3.32222 v 9.501907 h -2.01399 v -9.501907 h -3.32223 v -2.031205 h 8.65844 z" />
      <path
         id="path1338"
         style="font-style:normal;font-variant:normal;font-weight:normal;font-stretch:normal;font-family:'Highway Gothic Wide';-inkscape-font-specification:'Highway Gothic Wide';fill:#000000;stroke-width:0.430339"
         d="m 322.3829,77.154335 h -2.23777 L 319.02624,74.4518 h -5.02637 l -1.13609,2.702535 h -2.25499 l 4.85424,-11.533112 h 2.10006 z m -4.25176,-4.768167 -1.61808,-3.890274 -1.61808,3.890274 z" />
      <path
         id="path1340"
         style="font-style:normal;font-variant:normal;font-weight:normal;font-stretch:normal;font-family:'Highway Gothic Wide';-inkscape-font-specification:'Highway Gothic Wide';fill:#000000;stroke-width:0.430339"
         d="m 333.15327,74.813285 q -1.60087,2.547613 -4.45832,2.547613 -2.25498,0 -3.58043,-1.635292 -1.30824,-1.635292 -1.30824,-4.355041 0,-2.736962 1.30824,-4.337827 1.30823,-1.600865 3.58043,-1.600865 2.87467,0 4.45832,2.547613 l -1.87628,0.929535 q -0.89511,-1.377088 -2.58204,-1.428729 -1.30824,0.03443 -2.04842,1.170525 -0.74019,1.118884 -0.74019,2.685321 0,1.859069 0.7574,2.891885 0.77461,1.015602 2.06563,1.015602 1.72136,-0.01721 2.49598,-1.394301 z" />
      <path
         id="path1342"
         style="font-style:normal;font-variant:normal;font-weight:normal;font-stretch:normal;font-family:'Highway Gothic Wide';-inkscape-font-specification:'Highway Gothic Wide';fill:#000000;stroke-width:0.430339"
         d="m 344.63639,77.154335 h -1.773 l -5.50835,-7.780547 v 7.780547 h -2.01399 V 65.621223 h 2.01399 l 5.30179,7.694479 v -7.694479 h 1.97956 z" />
      <path
         id="path1344"
         style="font-style:normal;font-variant:normal;font-weight:normal;font-stretch:normal;font-family:'Highway Gothic Wide';-inkscape-font-specification:'Highway Gothic Wide';fill:#000000;stroke-width:0.430339"
         d="m 357.89252,77.154335 h -2.23777 L 354.53586,74.4518 h -5.02637 l -1.13609,2.702535 h -2.25499 l 4.85424,-11.533112 h 2.10006 z m -4.25176,-4.768167 -1.61808,-3.890274 -1.61808,3.890274 z" />
    </g>
    <g
       style="font-style:normal;font-weight:normal;font-size:34.2948px;line-height:1.25;font-family:sans-serif;fill:#000000;fill-opacity:1;stroke:none;stroke-width:0.857374"
       id="text1244"
       aria-label="102">
      <path
         id="path1246"
         style="font-style:normal;font-variant:normal;font-weight:normal;font-stretch:normal;font-family:'Highway Gothic Wide';-inkscape-font-specification:'Highway Gothic Wide';fill:#000000;stroke-width:0.857374"
         d="m 306.75365,122.35156 h -4.04679 v -17.18169 h -2.88076 v -3.46378 q 2.50352,-0.51442 3.63525,-2.332043 h 3.2923 z" />
      <path
         id="path1248"
         style="font-style:normal;font-variant:normal;font-weight:normal;font-stretch:normal;font-family:'Highway Gothic Wide';-inkscape-font-specification:'Highway Gothic Wide';fill:#000000;stroke-width:0.857374"
         d="m 330.60461,110.75992 q 0,5.38428 -2.6064,8.71088 -2.57211,3.2923 -6.89326,3.2923 -4.73268,0 -7.40767,-3.80672 -2.33205,-3.2923 -2.33205,-8.12787 0,-5.48717 2.6064,-8.64229 2.60641,-3.189416 7.13332,-3.189416 4.25256,0 6.85896,3.258006 2.6407,3.22371 2.6407,8.50511 z m -4.08108,0.0686 q 0,-3.63525 -1.44038,-5.69294 -1.40609,-2.05768 -3.9782,-2.05768 -2.6064,0 -4.08108,2.05768 -1.47468,2.05769 -1.47468,5.69294 0,3.66954 1.47468,5.76153 1.47468,2.05768 4.08108,2.05768 2.94935,0 4.32115,-2.57211 1.09743,-2.02339 1.09743,-5.2471 z" />
      <path
         id="path1250"
         style="font-style:normal;font-variant:normal;font-weight:normal;font-stretch:normal;font-family:'Highway Gothic Wide';-inkscape-font-specification:'Highway Gothic Wide';fill:#000000;stroke-width:0.857374"
         d="m 352.71726,122.35156 h -18.5192 q 0.6859,-9.01953 9.39678,-12.68907 2.26346,-0.92596 3.70384,-1.78333 1.44038,-0.89167 1.33749,-2.05769 0,-1.13173 -1.13172,-1.88621 -1.13173,-0.78879 -3.53237,-0.82308 -3.60095,0.10288 -6.37883,2.88076 l -3.3266,-2.67499 q 4.14967,-4.252557 9.60255,-4.321146 4.04678,0 6.44742,2.023396 2.40064,1.9891 2.40064,4.80127 -0.0343,2.43493 -1.30321,3.87531 -1.2689,1.40609 -4.83556,2.94935 -5.65865,2.70929 -6.75608,5.59006 h 12.89485 z" />
    </g>
  </g>
</svg>
