<?xml version="1.0" encoding="UTF-8" standalone="no"?>
<!-- Created with Inkscape (http://www.inkscape.org/) -->
<svg
   xmlns:svg="http://www.w3.org/2000/svg"
   xmlns="http://www.w3.org/2000/svg"
   version="1.0"
   width="284.1875"
   height="284.125"
   id="svg2"
   xml:space="preserve"><defs
     id="defs5"><clipPath
       id="clipPath19"><path
         d="M 0.496094,0 L 2272.8,0 L 2272.8,2272.31 L 0.496094,2272.31 L 0.496094,0 z"
         id="path21" /></clipPath></defs><g
     transform="matrix(1.25,0,0,-1.25,0,284.125)"
     id="g11"><g
       transform="scale(0.1,0.1)"
       id="g13"><g
         id="g15"><g
           clip-path="url(#clipPath19)"
           id="g17"><path
             d="M 2271.73,1135.07 C 2271.73,1760.03 1760.53,2271.23 1135.57,2271.23 C 512.766,2271.23 1.56641,1760.03 1.56641,1135.07 C 1.56641,512.281 512.766,1.07031 1135.57,1.07031 C 1760.53,1.07031 2271.73,512.281 2271.73,1135.07"
             id="path23"
             style="fill:#e23828;fill-opacity:1;fill-rule:nonzero;stroke:none" /><path
             d="M 2271.73,1135.07 C 2271.73,1760.03 1760.53,2271.23 1135.57,2271.23 C 512.766,2271.23 1.56641,1760.03 1.56641,1135.07 C 1.56641,512.281 512.766,1.07031 1135.57,1.07031 C 1760.53,1.07031 2271.73,512.281 2271.73,1135.07 z"
             id="path25"
             style="fill:none;stroke:#e23828;stroke-width:2.1500001;stroke-linecap:butt;stroke-linejoin:miter;stroke-miterlimit:4;stroke-dasharray:none;stroke-opacity:1" /><path
             d="M 1987.32,1135.07 C 1987.32,1603.79 1604.29,1986.84 1135.57,1986.84 C 669.008,1986.84 285.965,1603.8 285.965,1135.07 C 285.965,668.52 669.008,285.469 1135.57,285.469 C 1604.29,285.469 1987.32,668.52 1987.32,1135.07"
             id="path27"
             style="fill:#ffffff;fill-opacity:1;fill-rule:nonzero;stroke:none" /><path
             d="M 1987.32,1135.07 C 1987.32,1603.79 1604.29,1986.84 1135.57,1986.84 C 669.008,1986.84 285.965,1603.8 285.965,1135.07 C 285.965,668.52 669.008,285.469 1135.57,285.469 C 1604.29,285.469 1987.32,668.52 1987.32,1135.07 z"
             id="path29"
             style="fill:none;stroke:#e23828;stroke-width:2.1500001;stroke-linecap:butt;stroke-linejoin:miter;stroke-miterlimit:4;stroke-dasharray:none;stroke-opacity:1" /><path
             d="M 1166.53,1566.35 C 1180.93,1674.35 1342.93,1665.71 1342.93,1555.56 L 1342.93,1552.68 C 1340.05,1515.24 1322.77,1478.52 1296.85,1452.6 L 1078.69,1225.81 L 1078.69,1135.08 L 1445.18,1135.08 L 1445.18,1231.57 L 1229.17,1231.57 L 1371.01,1379.17 C 1401.96,1410.13 1425.01,1450.45 1436.53,1490.05 C 1442.29,1509.49 1445.18,1532.54 1445.18,1552.69 C 1445.18,1657.81 1359.48,1745.65 1251.48,1745.65 C 1160.78,1745.65 1081.57,1677.25 1064.29,1586.53 L 1166.53,1566.37"
             id="path31"
             style="fill:#000000;fill-opacity:1;fill-rule:nonzero;stroke:none" /><path
             d="M 1166.53,1566.35 C 1180.93,1674.35 1342.93,1665.71 1342.93,1555.56 L 1342.93,1552.68 C 1340.05,1515.24 1322.77,1478.52 1296.85,1452.6 L 1078.69,1225.81 L 1078.69,1135.08 L 1445.18,1135.08 L 1445.18,1231.57 L 1229.17,1231.57 L 1371.01,1379.17 C 1401.96,1410.13 1425.01,1450.45 1436.53,1490.05 C 1442.29,1509.49 1445.18,1532.54 1445.18,1552.69 C 1445.18,1657.81 1359.48,1745.65 1251.48,1745.65 C 1160.78,1745.65 1081.57,1677.25 1064.29,1586.53 L 1166.53,1566.37 L 1166.53,1566.35 z"
             id="path33"
             style="fill:none;stroke:#000000;stroke-width:2.1500001;stroke-linecap:butt;stroke-linejoin:miter;stroke-miterlimit:4;stroke-dasharray:none;stroke-opacity:1" /><path
             d="M 995.895,1731.23 L 896.527,1731.23 L 825.246,1660.67 L 825.246,1558.43 L 890.777,1595.15 L 890.777,1135.06 L 995.895,1135.06 L 995.895,1731.22"
             id="path35"
             style="fill:#000000;fill-opacity:1;fill-rule:nonzero;stroke:none" /><path
             d="M 995.895,1731.23 L 896.527,1731.23 L 825.246,1660.67 L 825.246,1558.43 L 890.777,1595.15 L 890.777,1135.06 L 995.895,1135.06 L 995.895,1731.22 L 995.895,1731.23 z"
             id="path37"
             style="fill:none;stroke:#000000;stroke-width:2.1500001;stroke-linecap:butt;stroke-linejoin:miter;stroke-miterlimit:4;stroke-dasharray:none;stroke-opacity:1" /><path
             d="M 1664.05,608.762 L 1664.05,802.43 C 1664.05,856.441 1620.85,901.789 1563.96,901.789 C 1538.77,901.789 1512.85,893.148 1493.41,875.871 L 1493.41,893.148 L 1433.64,893.148 L 1433.64,608.762 L 1493.41,608.762 L 1493.41,790.91 C 1493.41,865.07 1604.29,865.07 1604.29,790.91 L 1604.29,608.762 L 1664.05,608.762"
             id="path39"
             style="fill:#000000;fill-opacity:1;fill-rule:nonzero;stroke:none" /><path
             d="M 1664.05,608.762 L 1664.05,802.43 C 1664.05,856.441 1620.85,901.789 1563.96,901.789 L 1563.96,901.789 C 1538.77,901.789 1512.85,893.148 1493.41,875.871 L 1493.41,893.148 L 1433.64,893.148 L 1433.64,608.762 L 1493.41,608.762 L 1493.41,790.91 C 1493.41,865.07 1604.29,865.07 1604.29,790.91 L 1604.29,608.762 L 1664.05,608.762 z"
             id="path41"
             style="fill:none;stroke:#000000;stroke-width:2.1500001;stroke-linecap:butt;stroke-linejoin:miter;stroke-miterlimit:4;stroke-dasharray:none;stroke-opacity:1" /><path
             d="M 1342.93,608.762 L 1342.93,802.43 C 1342.93,856.441 1299.73,901.789 1245.73,901.789 L 1242.85,901.789 C 1217.64,901.789 1191.73,893.148 1172.29,875.871 L 1172.29,893.148 L 1112.53,893.148 L 1112.53,608.762 L 1172.29,608.762 L 1172.29,790.91 C 1172.29,865.07 1283.17,865.07 1283.17,790.91 L 1283.17,608.762 L 1342.93,608.762"
             id="path43"
             style="fill:#000000;fill-opacity:1;fill-rule:nonzero;stroke:none" /><path
             d="M 1342.93,608.762 L 1342.93,802.43 C 1342.93,856.441 1299.73,901.789 1245.73,901.789 L 1242.85,901.789 C 1217.64,901.789 1191.73,893.148 1172.29,875.871 L 1172.29,893.148 L 1112.53,893.148 L 1112.53,608.762 L 1172.29,608.762 L 1172.29,790.91 C 1172.29,865.07 1283.17,865.07 1283.17,790.91 L 1283.17,608.762 L 1342.93,608.762 z"
             id="path45"
             style="fill:none;stroke:#000000;stroke-width:2.1500001;stroke-linecap:butt;stroke-linejoin:miter;stroke-miterlimit:4;stroke-dasharray:none;stroke-opacity:1" /><path
             d="M 794.285,808.191 C 788.527,790.91 788.527,770.75 788.527,751.309 C 788.527,731.148 788.527,711.711 794.285,694.43 C 808.688,640.43 856.926,600.84 910.926,600.84 C 967.805,600.84 1016.05,640.43 1027.57,694.43 C 1032.61,711.711 1035.48,731.148 1035.48,751.309 C 1035.48,770.75 1032.61,790.91 1027.57,808.191 C 1016.05,862.191 967.805,901.789 910.926,901.789 C 856.926,901.789 808.688,862.191 794.285,808.191"
             id="path47"
             style="fill:#000000;fill-opacity:1;fill-rule:nonzero;stroke:none" /><path
             d="M 794.285,808.191 C 788.527,790.91 788.527,770.75 788.527,751.309 C 788.527,731.148 788.527,711.711 794.285,694.43 C 808.688,640.43 856.926,600.84 910.926,600.84 C 967.805,600.84 1016.05,640.43 1027.57,694.43 C 1032.61,711.711 1035.48,731.148 1035.48,751.309 C 1035.48,770.75 1032.61,790.91 1027.57,808.191 C 1016.05,862.191 967.805,901.789 910.926,901.789 C 856.926,901.789 808.688,862.191 794.285,808.191 z"
             id="path49"
             style="fill:none;stroke:#000000;stroke-width:2.1500001;stroke-linecap:butt;stroke-linejoin:miter;stroke-miterlimit:4;stroke-dasharray:none;stroke-opacity:1" /><path
             d="M 854.047,802.43 C 848.285,785.16 848.285,767.879 848.285,751.309 C 848.285,734.031 848.285,716.75 854.047,700.199 C 862.688,674.27 885.008,657.719 910.926,657.719 C 936.137,657.719 962.055,674.27 967.805,700.199 C 973.566,716.75 976.445,734.031 976.445,751.309 C 976.445,767.879 973.566,785.16 967.805,802.43 C 962.047,827.641 936.137,844.91 910.926,844.91 C 885.008,844.91 862.688,827.641 854.047,802.43"
             id="path51"
             style="fill:#ffffff;fill-opacity:1;fill-rule:nonzero;stroke:none" /><path
             d="M 854.047,802.43 C 848.285,785.16 848.285,767.879 848.285,751.309 C 848.285,734.031 848.285,716.75 854.047,700.199 C 862.688,674.27 885.008,657.719 910.926,657.719 C 936.137,657.719 962.055,674.27 967.805,700.199 C 973.566,716.75 976.445,734.031 976.445,751.309 C 976.445,767.879 973.566,785.16 967.805,802.43 C 962.047,827.641 936.137,844.91 910.926,844.91 C 885.008,844.91 862.688,827.641 854.047,802.43 z"
             id="path53"
             style="fill:none;stroke:#000000;stroke-width:2.1500001;stroke-linecap:butt;stroke-linejoin:miter;stroke-miterlimit:4;stroke-dasharray:none;stroke-opacity:1" /><path
             d="M 663.246,893.148 L 734.527,893.148 L 734.527,836.27 L 663.246,836.27 L 663.246,680.031 C 663.246,668.52 674.766,657.719 689.168,657.719 C 697.805,657.719 709.324,657.719 717.246,660.602 L 734.527,608.762 C 720.125,603.719 703.566,600.84 689.168,600.84 C 640.926,600.84 604.207,637.551 604.207,685.801 L 604.207,836.27 L 563.887,836.27 L 563.887,893.148 L 604.207,893.148 L 604.207,955.801 L 663.246,1006.91 L 663.246,893.148"
             id="path55"
             style="fill:#000000;fill-opacity:1;fill-rule:nonzero;stroke:none" /><path
             d="M 663.246,893.148 L 734.527,893.148 L 734.527,836.27 L 663.246,836.27 L 663.246,680.031 C 663.246,668.52 674.766,657.719 689.168,657.719 L 689.168,657.719 C 697.805,657.719 709.324,657.719 717.246,660.602 L 734.527,608.762 C 720.125,603.719 703.566,600.84 689.168,600.84 C 640.926,600.84 604.207,637.551 604.207,685.801 L 604.207,836.27 L 563.887,836.27 L 563.887,893.148 L 604.207,893.148 L 604.207,955.801 L 663.246,1006.91 L 663.246,893.148 z"
             id="path57"
             style="fill:none;stroke:#000000;stroke-width:2.1500001;stroke-linecap:butt;stroke-linejoin:miter;stroke-miterlimit:4;stroke-dasharray:none;stroke-opacity:1" /></g></g></g></g></svg>