<?xml version="1.0" encoding="UTF-8" standalone="no"?>
<!-- Created with Inkscape (http://www.inkscape.org/) -->

<svg
   xmlns:svg="http://www.w3.org/2000/svg"
   xmlns="http://www.w3.org/2000/svg"
   version="1.0"
   width="600"
   height="600"
   viewBox="0 0 598.59896 599.99935"
   id="Layer_1"
   xml:space="preserve"
   style="overflow:visible"><defs
   id="defs52" />
<g
   transform="matrix(1.3333333,0,0,1.3333333,0.17504832,0)"
   id="g3">
	<path
   d="M 94.170481,449.99951 1.4208031,128.3374 c -1.26711763,-4.39648 -1.9459481,-9.04101 -1.9459481,-13.84375 0,-21.001951 12.978533,-38.979002 31.370092,-46.384763 L 177.5849,9.0478516 C 192.06841,3.2128906 207.89539,0 224.47461,0 c 16.57873,0 32.40572,3.2128906 46.88971,9.0478516 L 418.10427,68.108887 c 18.39156,7.405761 31.3701,25.382812 31.3701,46.384763 0,4.80274 -0.67835,9.44727 -1.94596,13.84375 l -92.74968,321.66211 -260.608249,0 0,0 z"
   id="path5"
   style="fill:#003882;fill-rule:evenodd" />
	<path
   d="m 7.2004057,126.67871 c -1.1134385,-3.8623 -1.7115141,-7.94873 -1.7115141,-12.18506 0,-18.472166 11.4109094,-34.299314 27.6064244,-40.82031 L 179.83625,14.611816 C 193.61597,9.0600586 208.68043,6 224.47461,6 c 15.79468,0 30.85815,3.0600586 44.63836,8.611816 L 415.8539,73.67334 c 16.196,6.520996 27.60643,22.348144 27.60643,40.82031 0,4.23633 -0.59808,8.32276 -1.71202,12.18506 l -91.49773,317.32178 -251.552442,0 L 7.2004057,126.67871 z"
   id="path7"
   style="fill:#f7d117;fill-rule:evenodd" />
	<path
   d="m 11.502928,114.49365 c 0,-15.944334 9.844755,-29.620115 23.842757,-35.256345 L 182.08711,20.175293 C 195.16352,14.907227 209.46497,12 224.47461,12 c 15.00964,0 29.31156,2.907227 42.38701,8.175293 l 146.74092,59.062012 c 13.99849,5.63623 23.84375,19.312011 23.84375,35.256345 0,3.66992 -0.51782,7.19776 -1.47709,10.52686 l -90.24579,312.97998 -242.49712,0 -90.246281,-312.97998 c -0.95927,-3.32862 -1.477081,-6.85694 -1.477081,-10.52686 z"
   id="path9"
   style="fill:#003882;fill-rule:evenodd" />
	
</g>


<g
   transform="scale(1.0014541,0.99854802)"
   id="text1361"
   style="font-size:523.14709473px;font-style:normal;font-variant:normal;font-weight:normal;font-stretch:normal;text-align:center;line-height:100%;writing-mode:lr-tb;text-anchor:middle;fill:#f7d117;fill-opacity:1;font-family:Roadgeek 2005 Series D"><path
     d="m 286.29635,475.69019 0,-284.06888 -31.91198,0 0,-44.4675 3.66203,0 c 7.32402,3.3e-4 14.64807,-1.91788 21.97218,-5.75462 7.32399,-3.83607 13.42737,-9.24192 18.31015,-16.21756 l 44.4675,0 0,350.50856 -56.49988,0"
     id="path2825" /></g>


</svg>