<?xml version="1.0" encoding="UTF-8" standalone="no"?>
<!-- Created with Inkscape (http://www.inkscape.org/) -->

<svg
   xmlns:dc="http://purl.org/dc/elements/1.1/"
   xmlns:cc="http://creativecommons.org/ns#"
   xmlns:rdf="http://www.w3.org/1999/02/22-rdf-syntax-ns#"
   xmlns:svg="http://www.w3.org/2000/svg"
   xmlns="http://www.w3.org/2000/svg"
   xmlns:sodipodi="http://sodipodi.sourceforge.net/DTD/sodipodi-0.dtd"
   xmlns:inkscape="http://www.inkscape.org/namespaces/inkscape"
   width="483.9996"
   height="600.00049"
   id="svg8905"
   sodipodi:version="0.32"
   inkscape:version="0.92.1 r15371"
   version="1.0"
   sodipodi:docname="NB 2 (TCH).svg">
  <defs
     id="defs8907" />
  <sodipodi:namedview
     id="base"
     pagecolor="#ffffff"
     bordercolor="#666666"
     borderopacity="1.0"
     inkscape:pageopacity="0.0"
     inkscape:pageshadow="2"
     inkscape:zoom="0.74599999"
     inkscape:cx="-193.9812"
     inkscape:cy="308.13089"
     inkscape:document-units="px"
     inkscape:current-layer="g8964"
     inkscape:window-width="1600"
     inkscape:window-height="847"
     inkscape:window-x="-8"
     inkscape:window-y="-8"
     showgrid="false"
     fit-margin-top="0"
     fit-margin-left="0"
     fit-margin-right="0"
     fit-margin-bottom="0"
     inkscape:window-maximized="1" />
  <metadata
     id="metadata8910">
    <rdf:RDF>
      <cc:Work
         rdf:about="">
        <dc:format>image/svg+xml</dc:format>
        <dc:type
           rdf:resource="http://purl.org/dc/dcmitype/StillImage" />
        <dc:title></dc:title>
      </cc:Work>
    </rdf:RDF>
  </metadata>
  <g
     inkscape:label="Layer 1"
     inkscape:groupmode="layer"
     id="layer1"
     transform="translate(-159.00022,-199.99971)">
    <g
       id="g8964"
       transform="matrix(1.872279,0,0,1.872279,-371.5868,-426.3682)">
      <path
         style="fill:#fffeff;fill-rule:evenodd;stroke:none;stroke-width:0.13546273;stroke-linecap:butt;stroke-linejoin:bevel"
         d="m 284.19492,638.01006 c 0,8.90985 7.34017,16.19973 16.3115,16.19973 H 524.7897 c 8.97133,0 16.31151,-7.28988 16.31151,-16.19973 v -286.4653 c 0,-9.04485 -7.34018,-16.19974 -16.31151,-16.19974 H 300.50642 c -8.97133,0 -16.3115,7.15489 -16.3115,16.19974 z"
         id="path8374"
         inkscape:connector-curvature="0" />
      <path
         style="fill:none;fill-rule:evenodd;stroke:#221f1f;stroke-width:1.60781741;stroke-linecap:butt;stroke-linejoin:miter;stroke-miterlimit:4;stroke-dasharray:none"
         d="m 284.19491,638.01044 c 0,8.90964 7.34001,16.19936 16.31114,16.19936 h 224.27817 c 8.97113,0 16.31114,-7.28972 16.31114,-16.19936 V 351.55165 c 0,-9.04465 -7.34001,-16.19936 -16.31114,-16.19936 H 300.50605 c -8.97113,0 -16.31114,7.15471 -16.31114,16.19936 v 286.45879"
         id="path8376"
         inkscape:connector-curvature="0" />
      <path
         style="fill:#006a4d;fill-opacity:1;fill-rule:evenodd;stroke:none;stroke-width:0.13505743;stroke-linecap:butt;stroke-linejoin:bevel"
         d="m 534.71253,395.18286 v 242.88608 c 0,5.36765 -4.48566,9.79596 -9.92283,9.79596 H 300.50642 c -5.43716,0 -9.7869,-4.42831 -9.7869,-9.79596 V 395.18286 Z"
         id="path8378"
         inkscape:connector-curvature="0" />
      <path
         style="fill:#006a4d;fill-opacity:1;fill-rule:evenodd;stroke:none;stroke-width:0.1096983;stroke-linecap:butt;stroke-linejoin:bevel"
         d="M 534.71253,360.01548 H 290.71952 v -11.86292 c 0,-3.6297 4.34974,-6.46264 9.7869,-6.46264 H 524.7897 c 5.43717,0 9.92283,2.83294 9.92283,6.46264 z"
         id="path8380"
         inkscape:connector-curvature="0" />
      <path
         inkscape:connector-curvature="0"
         style="fill:#ffffff;fill-rule:evenodd;stroke:none;stroke-width:0.1761996;stroke-linecap:butt;stroke-linejoin:bevel"
         d="m 406.72484,610.20053 -1.05719,1.762 c -0.17621,0.17621 -0.17621,0.17621 -0.17621,0.17621 l -0.35239,0.5286 c -0.17619,0.17619 0,0.52858 0.17621,0.52858 l 4.05258,1.05721 c 0,0 0,0 0,0 l 3.87638,1.40958 c 0.17624,0.17621 0.52862,0 0.52862,-0.35239 l 0.35241,-4.75737 c 0,0 0,0 0,0 l 0.17618,-2.99541 c 0,0 0,-0.17621 0,-0.17621 -0.52859,-4.58119 -1.76201,-8.80997 -2.81919,-13.39114 0,0 0,0 0,0 -0.7048,-5.10981 -0.52859,-6.69559 1.93822,-10.74818 0.88097,-1.76202 5.99076,-4.05261 8.63376,-1.05722 2.8192,3.1716 3.70017,5.99079 7.75278,7.92899 0,0 0,0 0,0 2.8192,0.881 5.63839,0.881 8.45757,1.762 0,0 0.17621,0 0.17621,0 2.99539,1.40961 4.75738,3.17161 7.04798,5.46219 0.1762,0.17619 0.52859,0.17619 0.70479,0 l 1.40962,-1.40961 c 2.64298,-2.64297 4.75737,-3.34778 8.28138,-3.87639 0,0 0.17618,0 0.17618,0 5.4622,0 10.92438,-0.52858 15.85798,-3.17159 0,0 0,0 0.17619,0 4.05261,-2.99539 6.87178,-6.87179 11.27677,-9.33855 0,0 0.17619,0 0.17619,-0.17623 4.0526,-0.88098 7.92898,-1.40958 11.8054,-2.99539 0.35236,-0.1762 0.35236,-0.70481 0,-0.70481 -0.88101,-0.17617 -1.58581,-0.52859 -2.64302,-1.40957 0,0 0,0 0,0 -1.93819,-2.46681 -3.524,-4.405 -5.81457,-6.34321 0,-0.17617 0,-0.17617 0,-0.17617 -3.17161,-1.76201 -6.34318,-2.11441 -9.86719,-2.81921 0,0 0,0 0,0 -2.99538,-1.23339 -3.87639,-3.87639 -1.76202,-6.51938 0,0 0,0 0,-0.17621 4.58122,-3.70017 10.7482,-4.22877 16.03419,-6.69558 0,0 0,0 0.17619,0 3.1716,-2.29058 5.9908,-5.28598 9.16238,-7.57658 0,0 0,0 0,0 l 2.64301,-1.23339 c 4.40497,-1.93819 7.22416,-4.0526 10.21958,-7.57657 0,0 0,0 0,0 3.34778,-4.58119 4.58117,-8.45759 5.10977,-13.91979 0,-0.3524 -0.5286,-0.5286 -0.70479,-0.3524 -2.99541,2.64301 -6.51938,2.99541 -9.69099,0.17623 0,0 0,-0.17623 0,-0.17623 -2.46679,-3.87638 -1.58578,-7.92897 0.7048,-11.62915 0,0 0,0 0,0 2.2906,-3.34781 3.524,-6.16699 4.0526,-10.04337 0,0 0,0 0,0 0.52861,-7.75279 -1.2334,-17.09138 6.8718,-20.96777 0.35236,-0.17619 0.35236,-0.70479 0,-0.88099 l -2.46682,-1.23339 c 0,0 -0.17618,0 -0.17618,0 l -3.52399,-1.05721 c 0,0 0,0 0,0 -5.63839,-1.05718 -9.16239,-0.3524 -14.27217,1.76201 0,0 0,0 0,0.17618 -4.5812,2.4668 -13.39118,9.16238 -19.20577,5.81459 0,0 0,-0.1762 0,-0.1762 -3.34777,-3.34779 -1.40959,-7.22419 2.4668,-8.80997 0.35239,0 0.35239,-0.52859 0,-0.70478 -7.40041,-3.34781 -12.15777,0.70478 -18.85335,4.58117 0,0 0,0 -0.1762,0 -2.64301,0.70479 -3.8764,0.52859 -5.9908,-1.23341 -0.1762,0 -0.1762,0 -0.1762,0 -2.81918,-3.52398 -1.05718,-5.99078 0.70481,-9.69096 0,0 0,-0.1762 0,-0.1762 1.2334,-5.286 0.881,-8.80998 -1.40961,-13.56738 -4.05258,-7.57658 -7.40036,-12.51016 -3.87638,-20.79154 0,0 0,0 0,0 0.7048,-1.23341 1.4096,-1.762 2.4668,-2.46679 0.3524,-0.1762 0.3524,-0.7048 0,-0.7048 l -0.88101,-0.1762 c 0,0 -0.17619,0 -0.17619,0 -3.87639,0 -5.63837,0.881 -9.16237,2.64298 0,0 0,0 0,0 -4.05259,2.81921 -7.2242,5.81459 -12.15778,3.52402 -0.17621,-0.17622 -0.17621,-0.17622 -0.17621,-0.17622 -3.34779,-2.99538 -4.93358,-7.40039 -6.16697,-11.62917 0,0 0,0 0,-0.17619 -1.58582,-6.34319 -3.34781,-11.10058 -8.63378,-15.32938 0,0 0,0 0,0 -2.643,-1.58578 -4.22879,-2.64298 -6.167,-4.75738 -0.17618,-0.35239 -0.52858,-0.35239 -0.52858,0 -1.93821,2.1144 -3.524,3.1716 -6.167,4.75738 0,0 0,0 0,0 -6.34318,5.10979 -7.40037,10.74818 -9.51477,18.32476 0,0 0,0 0,0 -1.2334,3.17158 -2.81919,6.51939 -5.28598,8.80998 0,0 -0.17621,0 -0.17621,0.17622 -2.99539,1.40959 -4.58119,0.88099 -7.75275,-0.35242 0,0 0,-0.1762 0,-0.1762 -2.99542,-2.11439 -5.99081,-4.05259 -9.5148,-5.286 0,0 0,0 0,0 -1.93821,-0.35238 -3.34779,-0.35238 -5.10979,-0.17618 -0.3524,0 -0.52861,0.5286 -0.17619,0.7048 l 1.05719,0.70479 c 0,0 0,0 0,0 3.34779,2.4668 3.34779,7.57658 2.81918,11.27675 0,0 0,0 0,0.17621 -1.23339,3.87642 -3.17159,7.40041 -5.10977,11.10058 -3.1716,6.3432 -2.64301,10.74818 0.17619,17.26758 0.881,1.93817 0.70479,3.17157 -0.17619,5.10976 0,0 0,0 0,0.17621 -4.40499,5.4622 -8.98619,0.88099 -13.91977,-1.9382 0,0 0,0 0,0 -4.405,-2.11438 -7.75278,-2.46679 -11.98158,-0.52857 -0.35239,0.17619 -0.35239,0.70478 0,0.70478 2.8192,1.23339 4.40499,3.3478 3.87639,6.51939 0,0 0,0.17619 0,0.17619 -2.11438,5.10978 -7.92898,2.99539 -11.80537,1.2334 0,0 0,0 -0.1762,0 l -8.63379,-4.7574 c 0,-0.17618 0,-0.17618 0,-0.17618 -2.99537,-1.05722 -5.28597,-1.93822 -8.45758,-2.29061 0,0 0,0 0,0 -4.75737,0 -7.92897,0.88099 -11.98156,2.9954 -0.35239,0 -0.35239,0.5286 0,0.70479 8.10518,3.87639 6.16697,13.21498 6.6956,20.96777 0,0 0,0 0,0 0.7048,3.87638 1.76197,6.69556 4.05257,10.04337 0.17621,0 0.17621,0 0.17621,0 2.29059,3.70018 3.17159,7.57658 0.7048,11.62915 0,0 0,0.17623 -0.17619,0.17623 -3.17161,2.81918 -6.5194,2.46678 -9.5148,-0.17623 -0.35238,-0.1762 -0.70479,0 -0.70479,0.3524 0.1762,2.9954 0.70479,5.4622 1.76199,8.28141 0,0.17618 0,0.17618 0,0.17618 2.643,5.4622 5.46218,8.45757 10.57197,11.62918 0,0 0,0 0,0 2.81921,1.40959 5.46218,2.64298 8.1052,4.40498 0,0 0,0 0,0 3.17158,2.99541 5.46219,5.28599 9.51477,7.04799 0,0 0,0 0,0 4.58118,1.4096 10.92437,2.64297 14.09597,6.51939 0,0 0,0 0,0 1.58578,5.99077 -4.0526,5.99077 -8.63379,6.87177 0,0 0,0 0,0 -3.34779,1.0572 -5.10979,2.643 -7.40038,5.28599 -1.76201,2.2906 -2.4668,3.70018 -4.7574,4.22877 -0.35237,0 -0.5286,0.52861 0,0.70481 3.87641,1.58581 7.75279,2.11441 11.80539,2.99539 0,0.17623 0,0.17623 0.17618,0.17623 2.9954,1.58578 5.1098,3.70018 7.57658,6.34316 3.524,3.34779 5.9908,4.5812 10.92439,5.46219 l 3.1716,0.5286 c 0,0 0,0 0.17619,0 4.93359,0.35241 10.92438,-0.1762 14.09597,4.40499 0.1762,0.1762 0.5286,0.1762 0.7048,0 3.3478,-4.58119 8.80998,-5.46217 14.27216,-6.51938 0,0 0,0 0,0 4.22878,-1.76199 6.5194,-4.405 8.98619,-8.10517 1.58578,-2.11439 3.34778,-2.99541 5.63838,-2.46682 0,0 0,0 0,0 4.40497,1.76201 2.64299,4.58121 1.762,8.1052 0,0 0,0 0,0.17619 -0.52862,3.1716 -0.35242,5.63838 0,8.80998 0,0 0,0 0,0 0.88099,5.46218 1.76199,8.63378 -0.35242,13.91976 0,0 0,0 0,0 z"
         id="path277" />
      <g
         style="fill:#ffffff"
         id="g308"
         transform="matrix(0.81162586,0,0,0.88243553,-218.78441,84.090459)">
        <path
           id="path298"
           d="m 857.3789,598.96898 -11.77031,-12.02343 c 0,0 -0.12657,0 -0.25313,0 l -4.05,3.79687 -4.42969,3.54375 -4.68281,3.16406 -4.80937,3.16407 -4.93594,2.65781 -5.18906,2.53125 -5.31563,2.15156 -5.44219,1.89844 c 0,0 0,0 0,0 l -5.31562,1.26562 -5.56875,1.51875 c -0.12656,0 -0.12656,0 -0.12656,0 l -5.56876,0.88594 -5.69531,0.63281 c 0,0 0,0 0,0 l -5.69531,0.25313 h -5.69531 c 0,0 0,0 0,0 l -5.69532,-0.37969 -5.69531,-0.63281 c 0,0 0,0 0,0 l -5.56875,-1.13906 -5.56875,-1.26563 c 0,0 0,0 0,0 l -5.44219,-1.64531 -5.44218,-1.89844 -5.18907,-2.27812 -5.0625,-2.53125 -4.93593,-2.91094 -4.80938,-3.16406 -4.68281,-3.29063 -4.30313,-3.67031 -4.05,-3.67031 c -0.12656,-0.12657 -0.25312,-0.12657 -0.37968,0 l -11.77032,11.77031 c -0.12656,0.12656 -0.12656,0.25312 0,0.25312 l 4.42969,4.17657 4.68281,3.92343 5.0625,3.79688 5.18907,3.54375 5.31562,3.16406 5.56875,2.91094 5.56875,2.53125 5.82188,2.40469 5.94843,1.89843 5.94844,1.77188 6.075,1.39219 6.20156,1.0125 6.20157,0.63281 6.20156,0.37969 6.20156,0.12656 6.20156,-0.37969 6.20157,-0.50625 6.20156,-1.0125 6.075,-1.26562 6.075,-1.64532 5.94844,-1.77187 5.82187,-2.27813 5.56875,-2.53125 5.82188,-2.91093 5.18906,-3.0375 5.31563,-3.29063 5.0625,-3.79687 4.80937,-3.92344 4.42969,-4.05 c 0,0 0,-0.12656 0,-0.25313 z"
           style="fill:#ffffff;fill-rule:evenodd;stroke:none;stroke-width:0.12656251;stroke-linecap:butt;stroke-linejoin:bevel"
           inkscape:connector-curvature="0" />
        <path
           id="path300"
           d="m 856.99921,578.63114 -6.32812,6.96094 c 0,0 0,0.12656 0,0.25313 l 9.1125,9.49218 c 0.12656,0 0.12656,0.12657 0,0.25313 l -3.0375,5.0625 -2.65782,3.67031 c -0.12656,0.12656 0.12657,0.37969 0.25313,0.25313 l 3.29062,-2.78438 4.42969,-4.17656 4.05,-4.17656 3.67031,-4.17657 c 0.12657,-0.12656 0,-0.37968 -0.12656,-0.37968 l -10.63125,0.37968 c -0.12656,0 -0.12656,0 -0.12656,-0.12656 l -1.51875,-10.37812 c 0,-0.25313 -0.25313,-0.25313 -0.37969,-0.12657 z"
           style="fill:#ffffff;fill-rule:evenodd;stroke:none;stroke-width:0.12656251;stroke-linecap:butt;stroke-linejoin:bevel"
           inkscape:connector-curvature="0" />
        <path
           id="path302"
           d="m 691.83515,593.94521 9.23906,-9.36563 c 0.12656,0 0.12656,-0.12656 0,-0.25312 l -6.20156,-6.96094 c -0.12657,-0.12656 -0.25313,-0.12656 -0.25313,0.12656 l -1.77187,10.25156 c 0,0 -0.12657,0.12657 -0.25313,0.12657 l -10.37812,-0.37969 c -0.12657,0 -0.25313,0.25312 -0.12657,0.37969 l 3.41719,4.05 3.92344,4.30312 4.17656,4.05 3.29063,2.91094 c 0.12656,0.12656 0.37968,-0.12656 0.25312,-0.25313 l -2.53125,-3.67031 c 0,-0.12656 0,-0.12656 0,-0.12656 l -2.78437,-4.93594 c -0.12657,-0.12656 0,-0.12656 0,-0.25312 z"
           style="fill:#ffffff;fill-rule:evenodd;stroke:none;stroke-width:0.12656251;stroke-linecap:butt;stroke-linejoin:bevel"
           inkscape:connector-curvature="0" />
        <path
           id="path304"
           d="m 853.58202,601.41239 -3.79687,3.16407 -5.18906,3.79687 c 0,0 0,0.12656 0,0.25313 l 1.39218,2.025 c 0.12657,0.12656 0.25313,0.12656 0.37969,0.12656 l 2.91094,-3.29063 2.91094,-3.54375 1.64531,-2.27812 c 0.12656,-0.12656 -0.12656,-0.37969 -0.25313,-0.25313 z"
           style="fill:#ffffff;fill-rule:evenodd;stroke:none;stroke-width:0.12656251;stroke-linecap:butt;stroke-linejoin:bevel"
           inkscape:connector-curvature="0" />
        <path
           id="path306"
           d="m 707.5289,607.61396 -4.93594,-3.79688 -3.79688,-3.16406 c -0.12656,-0.12656 -0.37968,0.12656 -0.25312,0.37969 l 1.64531,2.27812 2.78438,3.54375 2.65781,3.0375 c 0.12656,0.12656 0.25312,0.12656 0.37969,0 l 1.51875,-2.025 c 0.12656,-0.12656 0,-0.25312 0,-0.25312 z"
           style="fill:#ffffff;fill-rule:evenodd;stroke:none;stroke-width:0.12656251;stroke-linecap:butt;stroke-linejoin:bevel"
           inkscape:connector-curvature="0" />
      </g>
      <g
         id="g384"
         transform="matrix(0.71281678,0,0,0.86607016,502.56051,255.41107)"
         style="fill:#006a4d;fill-opacity:1">
        <path
           id="path348"
           d="m -102.88614,155.42157 c -0.225,0 -0.45,-0.45 -0.225,-0.675 l 12.375004,-28.8 c 0.225,0 0.225,-0.225 0.45,-0.225 h 4.05 c 0.225,0 0.225,0.225 0.45,0.225 l 11.25,28.8 c 0.225,0.45 0,0.675 -0.225,0.675 h -4.275 c -0.225,0 -0.45,-0.225 -0.45,-0.225 l -2.7,-7.2 c 0,-0.225 -0.225,-0.225 -0.45,-0.225 h -12.6 c 0,0 -0.225,0 -0.225,0.225 l -3.15,7.2 c 0,0 0,0.225 -0.225,0.225 z"
           style="fill:#006a4d;fill-opacity:1;fill-rule:evenodd;stroke:none;stroke-width:0.22500001;stroke-linecap:butt;stroke-linejoin:bevel"
           inkscape:connector-curvature="0" />
        <path
           id="path350"
           d="m -43.711136,155.42157 c -0.225,0 -0.45,-0.45 -0.225,-0.675 l 12.6,-28.8 c 0,0 0,-0.225 0.225,-0.225 h 4.05 c 0.225,0 0.45,0.225 0.45,0.225 l 11.25,28.8 c 0.225,0.45 0,0.675 -0.225,0.675 h -4.275 c -0.225,0 -0.225,-0.225 -0.225,-0.225 l -2.925,-7.2 c 0,-0.225 -0.225,-0.225 -0.225,-0.225 h -12.6 c -0.225,0 -0.45,0 -0.45,0.225 l -2.925,7.2 c -0.225,0 -0.225,0.225 -0.45,0.225 z"
           style="fill:#006a4d;fill-opacity:1;fill-rule:evenodd;stroke:none;stroke-width:0.22500001;stroke-linecap:butt;stroke-linejoin:bevel"
           inkscape:connector-curvature="0" />
        <path
           id="path352"
           d="m 13.663864,155.42157 c -0.45,0 -0.45,-0.45 -0.45,-0.675 l 12.6,-28.8 c 0,0 0.225,-0.225 0.225,-0.225 h 4.275 c 0,0 0.225,0.225 0.225,0.225 l 11.475,28.8 c 0,0.45 -0.225,0.675 -0.45,0.675 h -4.275 c 0,0 -0.225,-0.225 -0.225,-0.225 l -2.925,-7.2 c 0,-0.225 0,-0.225 -0.225,-0.225 h -12.6 c -0.225,0 -0.225,0 -0.45,0.225 l -2.925,7.2 c 0,0 -0.225,0.225 -0.225,0.225 z"
           style="fill:#006a4d;fill-opacity:1;fill-rule:evenodd;stroke:none;stroke-width:0.22500001;stroke-linecap:butt;stroke-linejoin:bevel"
           inkscape:connector-curvature="0" />
        <path
           id="path354"
           d="m -242.16114,155.42157 c -0.225,0 -0.45,-0.45 -0.225,-0.675 l 12.6,-28.8 c 0,0 0,-0.225 0.225,-0.225 h 4.275 c 0,0 0.225,0.225 0.225,0.225 l 11.475,28.8 c 0,0.45 -0.225,0.675 -0.45,0.675 h -4.275 c -0.225,0 -0.225,-0.225 -0.225,-0.225 l -2.925,-7.2 c 0,-0.225 -0.225,-0.225 -0.225,-0.225 h -12.6 c -0.225,0 -0.225,0 -0.45,0.225 l -2.925,7.2 c 0,0 -0.225,0.225 -0.45,0.225 z"
           style="fill:#006a4d;fill-opacity:1;fill-rule:evenodd;stroke:none;stroke-width:0.22500001;stroke-linecap:butt;stroke-linejoin:bevel"
           inkscape:connector-curvature="0" />
        <path
           id="path356"
           d="m -286.03614,155.42157 c 0,0 -0.225,-0.225 -0.225,-0.45 v -24.75 c 0,-0.225 -0.225,-0.225 -0.45,-0.225 h -9 c -0.225,0 -0.45,-0.225 -0.45,-0.45 v -3.375 c 0,-0.225 0.225,-0.45 0.45,-0.45 h 23.625 c 0.225,0 0.225,0.225 0.225,0.45 v 3.375 c 0,0.225 0,0.225 -0.225,0.225 h -9.225 c -0.225,0 -0.225,0.225 -0.225,0.45 v 24.75 c 0,0.225 -0.225,0.45 -0.45,0.45 z"
           style="fill:#006a4d;fill-opacity:1;fill-rule:evenodd;stroke:none;stroke-width:0.22500001;stroke-linecap:butt;stroke-linejoin:bevel"
           inkscape:connector-curvature="0" />
        <path
           id="path358"
           d="m -11.311136,155.42157 c -0.225,0 -0.225,-0.225 -0.225,-0.45 v -28.8 c 0,-0.225 0,-0.45 0.225,-0.45 l 11.70000015,0.225 c 0,0 0,0 0,0 7.20000005,0.45 10.12499985,5.4 11.24999985,10.125 0.45,1.575 0.675,3.15 0.675,4.5 0,4.725 -1.8,8.55 -3.8249998,10.8 -1.8,2.25 -4.95,3.825 -8.32500005,3.825 z"
           style="fill:#006a4d;fill-opacity:1;fill-rule:evenodd;stroke:none;stroke-width:0.22500001;stroke-linecap:butt;stroke-linejoin:bevel"
           inkscape:connector-curvature="0" />
        <path
           id="path360"
           d="m -110.31114,147.09657 h 4.275 c 0.225,0 0.45,0.225 0.45,0.45 -0.45,2.7 -2.025,5.175 -4.275,6.75 -1.8,1.125 -4.05,2.025 -6.75,2.025 -3.375,0 -6.525,-1.35 -8.55,-3.15 -2.25,-2.25 -4.05,-5.625 -4.05,-12.375 0,-4.275 0.45,-6.525 1.125,-8.325 2.025,-4.725 6.3,-7.65 11.25,-7.65 7.425,0 11.025,4.275 11.25,8.775 0,0.225 -0.225,0.45 -0.45,0.45 h -4.05 c -0.225,0 -0.45,-0.225 -0.45,-0.45 -0.225,-2.25 -2.475,-4.725 -6.075,-4.725 -2.7,0 -5.175,1.575 -6.525,4.275 -0.675,1.35 -1.35,3.6 -1.35,8.1 0,2.7 0.675,5.175 1.575,6.75 1.125,2.7 3.375,4.05 6.525,4.05 2.7,0 4.5,-1.35 5.4,-3.825 l 0.225,-0.45 c 0,0 -0.225,0 -0.225,0 v -0.225 c 0,0 0,0 0.225,-0.225 0,-0.225 0.225,-0.225 0.45,-0.225 z"
           style="fill:#006a4d;fill-opacity:1;fill-rule:evenodd;stroke:none;stroke-width:0.22500001;stroke-linecap:butt;stroke-linejoin:bevel"
           inkscape:connector-curvature="0" />
        <path
           id="path362"
           d="m -70.486136,155.42157 c -0.225,0 -0.45,-0.225 -0.45,-0.45 v -28.8 c 0,-0.225 0.225,-0.45 0.45,-0.45 h 5.625 c 0,0 0,0.225 0.225,0.225 0,0 0,0 0,0 0,0 0,0 0,0 l 12.375,22.5 c 0.225,0.45 0.675,0.225 0.675,0 l -0.45,-22.275 c 0,-0.225 0.225,-0.45 0.45,-0.45 h 3.6 c 0.225,0 0.45,0.225 0.45,0.45 v 28.8 c 0,0.225 -0.225,0.45 -0.45,0.45 h -4.95 c 0,0 0,0 0,-0.225 -0.225,0 -0.225,0 -0.225,0 0,0 0,0 0,0 l -12.825,-23.175 c -0.225,-0.45 -0.675,-0.225 -0.675,0 l 0.225,22.95 c 0,0.225 -0.225,0.45 -0.45,0.45 z"
           style="fill:#006a4d;fill-opacity:1;fill-rule:evenodd;stroke:none;stroke-width:0.22500001;stroke-linecap:butt;stroke-linejoin:bevel"
           inkscape:connector-curvature="0" />
        <path
           id="path364"
           d="m -209.76114,155.42157 c -0.225,0 -0.225,-0.225 -0.225,-0.45 v -28.8 c 0,-0.225 0,-0.45 0.225,-0.45 h 5.625 c 0,0 0.225,0.225 0.225,0.225 0,0 0,0 0,0 0.225,0 0.225,0 0.225,0 l 12.15,22.5 c 0.225,0.45 0.675,0.225 0.675,0 l -0.225,-22.275 c 0,-0.225 0,-0.45 0.225,-0.45 h 3.6 c 0.225,0 0.45,0.225 0.45,0.45 v 28.8 c 0,0.225 -0.225,0.45 -0.45,0.45 h -4.725 c -0.225,0 -0.225,0 -0.225,-0.225 0,0 0,0 -0.225,0 0,0 0,0 0,0 l -12.825,-23.175 c 0,-0.45 -0.675,-0.225 -0.675,0 l 0.225,22.95 c 0,0.225 -0.225,0.45 -0.225,0.45 z"
           style="fill:#006a4d;fill-opacity:1;fill-rule:evenodd;stroke:none;stroke-width:0.22500001;stroke-linecap:butt;stroke-linejoin:bevel"
           inkscape:connector-curvature="0" />
        <path
           id="path366"
           d="m -179.38614,146.42157 h 4.05 c 0.225,0 0.45,0.225 0.45,0.45 0,1.575 0.45,2.475 1.125,3.375 1.125,0.9 2.925,1.8 5.4,1.8 4.95,0 6.525,-2.475 6.525,-4.725 0,-1.8 -0.9,-3.375 -3.6,-4.05 l -8.1,-2.025 c -3.825,-0.9 -5.625,-3.6 -5.625,-7.425 0,-2.25 0.9,-4.05 2.025,-5.4 1.8,-2.025 4.95,-3.375 9.225,-3.375 6.75,0 9.9,3.6 10.125,8.1 0,0 0,0.225 -0.225,0.225 h -4.275 c -0.225,0 -0.45,-0.225 -0.45,-0.225 0,-2.25 -1.35,-4.05 -5.4,-4.05 -4.5,0 -6.3,2.25 -6.3,4.5 0,1.575 0.45,2.925 4.05,3.825 l 5.85,1.35 c 4.275,0.9 7.425,3.15 7.425,8.325 0,4.725 -3.6,9 -11.7,9 -7.875,0 -10.125,-4.275 -10.8,-6.75 -0.225,-0.9 -0.225,-1.35 -0.225,-1.575 0,0 0,0 0,0 v -0.45 c 0,0 0,0 0,-0.225 0,0 0,0 0,-0.225 0,0 0,0 0,0 0,-0.225 0,-0.45 0.45,-0.45 z"
           style="fill:#006a4d;fill-opacity:1;fill-rule:evenodd;stroke:none;stroke-width:0.22500001;stroke-linecap:butt;stroke-linejoin:bevel"
           inkscape:connector-curvature="0" />
        <path
           id="path368"
           d="m -267.81114,155.42157 c -0.225,0 -0.45,-0.225 -0.45,-0.45 v -28.8 c 0,-0.225 0.225,-0.225 0.45,-0.225 l 11.475,-0.225 v 0 c 4.5,0 5.85,1.125 7.2,2.25 1.35,1.125 2.25,3.375 2.25,5.85 0,3.15 -1.35,5.625 -3.825,6.525 -0.225,0.225 -0.225,0.675 0,0.675 1.125,0.9 2.025,2.025 2.475,3.825 l 1.35,8.325 c 0,0.45 0.225,1.125 0.675,1.575 0.225,0.225 0.225,0.675 -0.225,0.675 h -4.5 c 0,0 -0.225,-0.225 -0.225,-0.225 0,0 0,0 -0.225,0 0,-0.45 -0.225,-0.9 -0.225,-1.35 l -0.9,-6.525 c -0.675,-4.05 -1.8,-4.725 -5.175,-4.725 h -5.4 c -0.225,0 -0.45,0.225 -0.45,0.45 v 11.925 c 0,0.225 0,0.45 -0.225,0.45 z"
           style="fill:#006a4d;fill-opacity:1;fill-rule:evenodd;stroke:none;stroke-width:0.22500001;stroke-linecap:butt;stroke-linejoin:bevel"
           inkscape:connector-curvature="0" />
        <path
           id="path372"
           d="m -7.0361358,150.92157 c 0,0.225 0.225,0.45 0.45,0.45 h 5.84999995 c 4.50000005,0 8.10000005,-2.7 8.10000005,-11.25 0,-7.425 -3.375,-10.35 -8.775,-10.35 h -5.175 c -0.225,0 -0.45,0.225 -0.45,0.45 z"
           style="fill:#ffffff;fill-opacity:1;fill-rule:evenodd;stroke:none;stroke-width:0.22500001;stroke-linecap:butt;stroke-linejoin:bevel"
           inkscape:connector-curvature="0" />
        <path
           id="path374"
           d="m -263.53614,138.32157 c 0,0.225 0.225,0.225 0.45,0.225 h 7.65 c 1.125,0 1.8,-0.225 2.25,-0.675 0.45,-0.45 1.575,-1.35 1.575,-3.6 0,-0.9 -0.45,-1.8 -0.675,-2.475 -0.675,-1.125 -1.575,-1.8 -3.825,-1.8 h -6.975 c -0.225,0 -0.45,0 -0.45,0.225 z"
           style="fill:#ffffff;fill-opacity:1;fill-rule:evenodd;stroke:none;stroke-width:0.22500001;stroke-linecap:butt;stroke-linejoin:bevel"
           inkscape:connector-curvature="0" />
        <path
           id="path376"
           d="m -34.261136,143.27157 c 0,0.225 0.225,0.45 0.45,0.45 h 8.775 c 0.225,0 0.45,-0.225 0.225,-0.45 l -4.05,-11.25 c -0.225,-0.225 -0.45,-0.45 -0.675,0 z"
           style="fill:#ffffff;fill-opacity:1;fill-rule:evenodd;stroke:none;stroke-width:0.22500001;stroke-linecap:butt;stroke-linejoin:bevel"
           inkscape:connector-curvature="0" />
        <path
           id="path378"
           d="m 23.113864,143.27157 c -0.225,0.225 0,0.45 0.225,0.45 h 8.775 c 0.225,0 0.45,-0.225 0.225,-0.45 l -4.05,-11.25 c 0,-0.225 -0.45,-0.45 -0.675,0 z"
           style="fill:#ffffff;fill-opacity:1;fill-rule:evenodd;stroke:none;stroke-width:0.22500001;stroke-linecap:butt;stroke-linejoin:bevel"
           inkscape:connector-curvature="0" />
        <path
           id="path380"
           d="m -232.71114,143.27157 c 0,0.225 0.225,0.45 0.45,0.45 h 8.775 c 0.225,0 0.45,-0.225 0.225,-0.45 l -4.05,-11.25 c 0,-0.225 -0.45,-0.45 -0.675,0 z"
           style="fill:#ffffff;fill-opacity:1;fill-rule:evenodd;stroke:none;stroke-width:0.22500001;stroke-linecap:butt;stroke-linejoin:bevel"
           inkscape:connector-curvature="0" />
        <path
           id="path382"
           d="m -93.436136,143.27157 c 0,0.225 0,0.45 0.225,0.45 h 8.775 c 0.45,0 0.45,-0.225 0.45,-0.45 l -4.05,-11.25 c -0.225,-0.225 -0.675,-0.45 -0.675,0 z"
           style="fill:#ffffff;fill-opacity:1;fill-rule:evenodd;stroke:none;stroke-width:0.22500001;stroke-linecap:butt;stroke-linejoin:bevel"
           inkscape:connector-curvature="0" />
      </g>
      <g
         id="g470"
         transform="matrix(0.7209749,-0.00965638,0,0.78925579,304.70687,146.92396)"
         style="fill:#006a4d;fill-opacity:1">
        <path
           style="fill:#006a4d;fill-opacity:1;stroke-width:1.10887575"
           d="m 167.30685,624.34005 c 1.5526,-1.87082 -1.6638,-10.71831 -3.8966,-10.71831 -3.64,0 -0.8504,-1.95581 6.9015,-4.83858 7.9821,-2.96841 8.5007,-3.0282 10.5081,-1.21153 1.1614,1.05106 1.8421,2.34713 1.5127,2.88019 -0.3295,0.53306 0.1813,1.74949 1.135,2.70319 3.8112,3.81124 1.9529,6.22188 -7.5552,9.80071 -8.6517,3.2565 -10.3915,3.53639 -8.6055,1.38433 z"
           id="path462"
           inkscape:connector-curvature="0" />
        <path
           style="fill:#ffffff;fill-opacity:1;stroke-width:1.10887575"
           d="m 179.47155,617.60927 c 0.829,-0.82905 1.0852,-1.76398 0.5693,-2.07762 -1.3258,-0.80595 -9.2547,2.52821 -9.2547,3.89168 0,1.52757 6.7545,0.11678 8.6854,-1.81406 z"
           id="path464"
           inkscape:connector-curvature="0" />
        <path
           style="fill:#ffffff;fill-opacity:1;stroke-width:1.10887575"
           d="m 176.99805,612.32991 c 1.1886,-1.92312 -0.4414,-2.28141 -4.4141,-0.97029 -2.5377,0.83751 -3.6933,1.81168 -3.3158,2.79534 0.4484,1.16839 1.3129,1.25413 3.8229,0.37912 1.784,-0.6219 3.5421,-1.61377 3.907,-2.20417 z"
           id="path466"
           inkscape:connector-curvature="0" />
        <path
           style="fill:#006a4d;fill-opacity:1;stroke-width:1.10887575"
           d="m 116.91355,617.22559 -4.2871,-6.37605 -1.0554,4.15829 c -1.1259,4.43663 -1.4397,4.68612 -3.9195,3.11694 -1.1431,-0.72335 -1.2666,-1.42202 -0.4381,-2.47799 2.3847,-3.03926 3.7572,-8.92862 2.4483,-10.50575 -0.9266,-1.11658 -0.9079,-1.49918 0.073,-1.49918 2.7606,0 5.4698,2.34265 8.306,7.18238 3.4354,5.8621 4.866,6.27973 5.7842,1.68864 0.7015,-3.5077 1.1839,-3.84333 3.4533,-2.4028 1.1167,0.70886 1.0742,1.55128 -0.2093,4.14132 -0.8861,1.78827 -2.1283,4.62365 -2.7605,6.30082 -0.6322,1.67717 -1.5901,3.04941 -2.1287,3.04941 -0.5386,0 -2.9086,-2.86922 -5.2665,-6.37603 z"
           id="path468"
           inkscape:connector-curvature="0" />
      </g>
      <path
         inkscape:connector-curvature="0"
         id="path2995"
         style="font-style:normal;font-weight:bold;font-size:300px;font-family:'Swis721 BT';-inkscape-font-specification:'Swis721 BT';text-align:center;text-anchor:middle;fill:#006a4d;fill-opacity:1;stroke:none;stroke-width:0.49332872"
         d="m 372.83771,570.67791 c 0.0963,-9.2499 2.0716,-17.09065 5.92573,-23.52223 3.85411,-6.43156 10.69518,-12.94745 20.52324,-19.54768 1.49344,-1.01166 3.66139,-2.40878 6.50385,-4.19137 13.00764,-8.3345 19.51147,-16.3559 19.51154,-24.06422 -7e-5,-4.57671 -1.3731,-8.18995 -4.11911,-10.83974 -2.74612,-2.64964 -6.50389,-3.97449 -11.27333,-3.97457 -5.20311,8e-5 -9.21381,1.62604 -12.03211,4.87788 -2.81837,3.252 -4.22752,7.889 -4.22751,13.911 v 0.86718 h -19.07794 c -10e-6,-11.85137 3.17965,-20.98083 9.53897,-27.38841 6.35929,-6.4074 15.41649,-9.61114 27.17163,-9.61124 10.64697,1e-4 19.15014,2.90274 25.50952,8.70792 6.35924,5.80538 9.53889,13.52568 9.53897,23.16092 -8e-5,6.88933 -1.66217,12.86322 -4.98628,17.9217 -3.32426,5.0586 -9.75583,10.8157 -19.29474,17.27133 -2.02347,1.39716 -4.81771,3.22786 -8.38273,5.49213 -9.05725,5.82941 -14.16396,10.26165 -15.32017,13.29675 h 46.97221 v 17.63265 z" />
    </g>
  </g>
</svg>
