<?xml version="1.0" encoding="UTF-8" standalone="no"?>
<!-- Generator: Adobe Illustrator 11.0, SVG Export Plug-In  -->

<svg
   width="513.53125"
   height="513.5625"
   viewBox="-0.484 -0.084 513.53125 513.5625"
   xml:space="preserve"
   id="svg2"
   version="1.1"
   inkscape:version="1.1.2 (b8e25be833, 2022-02-05)"
   sodipodi:docname="Iceland_road_sign_D02.11.svg"
   xmlns:inkscape="http://www.inkscape.org/namespaces/inkscape"
   xmlns:sodipodi="http://sodipodi.sourceforge.net/DTD/sodipodi-0.dtd"
   xmlns="http://www.w3.org/2000/svg"
   xmlns:svg="http://www.w3.org/2000/svg"
   xmlns:rdf="http://www.w3.org/1999/02/22-rdf-syntax-ns#"
   xmlns:cc="http://creativecommons.org/ns#"
   xmlns:dc="http://purl.org/dc/elements/1.1/"><metadata
   id="metadata28"><rdf:RDF><cc:Work
       rdf:about=""><dc:format>image/svg+xml</dc:format><dc:type
         rdf:resource="http://purl.org/dc/dcmitype/StillImage" /></cc:Work></rdf:RDF></metadata><sodipodi:namedview
   pagecolor="#ffffff"
   bordercolor="#666666"
   borderopacity="1"
   objecttolerance="10"
   gridtolerance="10"
   guidetolerance="10"
   inkscape:pageopacity="0"
   inkscape:pageshadow="2"
   inkscape:window-width="1920"
   inkscape:window-height="1001"
   id="namedview26"
   showgrid="false"
   inkscape:zoom="1.4142136"
   inkscape:cx="268.34702"
   inkscape:cy="235.82011"
   inkscape:window-x="-9"
   inkscape:window-y="-9"
   inkscape:window-maximized="1"
   inkscape:current-layer="g6"
   fit-margin-top="0"
   fit-margin-left="0"
   fit-margin-right="0"
   fit-margin-bottom="0"
   inkscape:pagecheckerboard="0" />
	<defs
   id="defs4"><inkscape:perspective
   sodipodi:type="inkscape:persp3d"
   inkscape:vp_x="0 : 255.5 : 1"
   inkscape:vp_y="0 : 1000 : 0"
   inkscape:vp_z="512 : 255.5 : 1"
   inkscape:persp3d-origin="256 : 170.33333 : 1"
   id="perspective30" />
	</defs>
	<g
   id="g6"
   transform="translate(-637.64025,-29.959)">
		 
		
		
		
		
		
		
		
		
	<path
   d="m 664.06419,540.92614 c -13.47245,0 -24.39662,-10.92417 -24.39662,-24.39662 V 56.807068 c 0,-13.471434 10.92417,-24.420748 24.39662,-24.420748 h 459.72241 c 13.4967,0 24.4208,10.949314 24.4208,24.420748 V 516.52952 c 0,13.47245 -10.9241,24.39662 -24.4208,24.39662 z"
   style="fill:#ffffff;fill-opacity:1;fill-rule:nonzero;stroke:#000000;stroke-width:5.02264;stroke-linecap:butt;stroke-linejoin:miter;stroke-miterlimit:3.864;stroke-dasharray:none;stroke-opacity:1"
   id="path2348" /><path
   d="M 649.8325,518.56291 V 54.774696 c 0,-6.737737 5.46058,-12.223459 12.1983,-12.223459 h 463.8134 c 6.7075,0 12.1983,5.490755 12.1983,12.223459 V 518.56291 c 0,6.73773 -5.4908,12.19831 -12.1983,12.19831 H 662.0308 c -6.73772,0 -12.1983,-5.46058 -12.1983,-12.19831"
   style="fill:#3381c3;fill-opacity:1;fill-rule:nonzero;stroke:none;stroke-width:24.4949"
   id="path2350" /><path
   d="M 1127.8766,457.9374 H 659.99842 l 233.927,-405.220231 z"
   style="fill:#f8f400;fill-opacity:1;fill-rule:nonzero;stroke:none;stroke-width:24.4949"
   id="path2352"
   sodipodi:nodetypes="cccc" /><path
   d="m 828.9405,416.05084 5.23934,1.56878 4.45494,-8.42719 1.81014,0.90507 9.67418,-17.14602 h 22.09473 l -5.90305,45.43845 h -44.62993 z"
   style="fill:#000000;fill-opacity:1;fill-rule:nonzero;stroke:none;stroke-width:24.4949"
   id="path2354"
   sodipodi:nodetypes="ccccccccc" /><path
   d="m 959.0823,416.71254 -15.11364,2.15206 -1.07603,-7.88416 8.25624,-3.22807 1.79002,-7.52212 -5.92317,-7.30089 h -31.42699 l 5.88294,45.43845 h 44.62993 z"
   style="fill:#000000;fill-opacity:1;fill-rule:nonzero;stroke:none;stroke-width:24.4949"
   id="path2356"
   sodipodi:nodetypes="cccccccccc" /><path
   d="m 875.57867,150.42735 c 2.98673,-1.31738 4.79687,-1.89059 8.01489,-2.49397 5.56114,-1.07603 5.56114,-1.46822 14.57461,0.10057 2.76549,0.50281 4.2136,1.89058 6.05391,4.04263 1.75985,2.08166 2.20233,3.72084 2.93645,6.31537 0.80449,2.86605 1.02574,4.60579 0.90506,7.5724 -0.8045,4.82704 -1.79002,7.57241 -4.2136,11.80612 -1.5185,2.64481 -2.57442,4.06275 -4.62591,6.31536 v 2.93645 l 14.30512,6.31536 9.26186,10.50785 8.00483,13.47245 12.19831,25.25442 2.11183,14.74557 1.68945,21.62912 -1.4481,0.20113 1.02574,6.97909 2.35318,4.21359 v 1.93082 c 0,0 -4.96782,1.00563 -8.01488,0.20112 -2.50402,-0.70394 -5.88295,-3.1074 -5.88295,-3.1074 l -0.30169,-9.36243 -1.24698,-7.91432 -2.52414,-21.45716 -5.06838,-5.90306 -5.46058,-8.8395 0.80451,38.72688 5.06838,11.80712 2.93645,17.24356 16.99919,44.70434 25.94027,39.90145 -1.27715,1.68946 2.86604,2.03138 2.6247,3.87167 -5.97345,8.15568 -2.03138,-1.41794 -8.42719,12.19831 -14.54947,1.68946 -0.30169,-4.28399 8.25623,-2.96662 2.27272,-9.43281 -0.70393,-3.94209 -1.66936,1.66936 -27.8761,-35.86082 -3.27835,-4.97788 -3.03701,-7.47184 -19.62088,-36.963 -29.56456,38.97124 -15.30973,28.12048 -14.55049,27.45876 -1.79002,-0.90507 -4.96782,8.49759 -11.53661,-4.96781 0.90507,-1.41794 -10.36102,-2.44369 -12.46782,-5.80249 1.5185,-3.87169 13.88878,2.10178 8.42719,-1.27716 -1.27715,-0.80451 22.90326,-52.1259 5.31979,-9.09091 19.79183,-36.03177 7.98471,-18.93504 0.40226,-6.31537 v -37.06053 l -11.36564,22.31496 -21.89864,14.05973 -0.90507,-0.8045 -3.77111,2.93644 -1.44811,2.10178 -1.51851,3.97223 -1.5185,1.07604 c 0,0 -2.6951,-1.75987 -3.94208,-3.35882 -2.13194,-2.7152 -2.69509,-8.42719 -2.69509,-8.42719 l 1.41794,-3.1074 7.18021,-3.63033 18.07723,-14.8924 5.49075,-15.57924 3.63033,-14.13315 2.69509,-10.28862 7.57241,-13.88877 5.90305,-4.2136 c 1.17659,-0.90507 1.68947,-2.18222 1.68947,-3.80129 0,-1.41794 -0.60338,-2.49396 -1.68947,-3.3588 l -3.97224,-0.20113 c -0.70394,0.0554 -1.17659,-0.10056 -1.68947,-0.60338 -0.60338,-0.50281 -0.70394,-1.93081 -0.70394,-1.93081 v -6.07402 l -2.52413,-1.07602 1.68946,-6.07402 0.70394,-2.93644 c -1.5185,-3.13758 -1.8403,-5.4103 -1.27715,-8.8395 0.40226,-2.06155 0.80451,-3.25825 1.86042,-5.06838"
   style="fill:#000000;fill-opacity:1;fill-rule:nonzero;stroke:none;stroke-width:24.4949"
   id="path2358" /><path
   d="m 1005.6712,392.92735 h 33.6806 l 31.5738,45.43846 h -42.1067 z"
   style="fill:#000000;fill-opacity:1;fill-rule:nonzero;stroke:none;stroke-width:24.4949"
   id="path2360"
   sodipodi:nodetypes="ccccc" /><path
   d="m 754.91597,392.92735 -31.57382,45.43846 h 42.10679 l 23.14763,-45.43846 z"
   style="fill:#000000;fill-opacity:1;fill-rule:nonzero;stroke:none;stroke-width:24.4949"
   id="path2362"
   sodipodi:nodetypes="ccccc" /></g>
</svg>
