<?xml version="1.0" encoding="UTF-8" standalone="no"?>
<svg xmlns="http://www.w3.org/2000/svg" xmlns:xlink="http://www.w3.org/1999/xlink"
   xmlns:dc="http://purl.org/dc/elements/1.1/"
   xmlns:cc="http://creativecommons.org/ns#"
   xmlns:rdf="http://www.w3.org/1999/02/22-rdf-syntax-ns#"
   width="1010.4" height="1010.4" viewBox="-505.2 -505.2 1010.4 1010.4">
  <metadata><rdf:RDF><cc:Work rdf:about="">
    <dc:format>image/svg+xml</dc:format>
    <dc:type rdf:resource="http://purl.org/dc/dcmitype/StillImage"/>
    <dc:title>Israeli stop sign</dc:title>
  </cc:Work></rdf:RDF></metadata>
  <defs><path id="Oct" d="M500-207.10678V207.10678L207.10678,500H-207.10678L-500,207.10678V-207.10678L-207.10678-500H207.10678Z"/></defs>
  <use xlink:href="#Oct" transform="scale(1.01)"/>
  <use xlink:href="#Oct" style="fill:#ffffff"/>
  <use xlink:href="#Oct" style="fill:#c0111e" transform="scale(0.96)"/>
  <use xlink:href="#Oct" style="fill:#ffffff" transform="scale(0.92)"/>
  <use xlink:href="#Oct" style="fill:#c0111e" transform="scale(0.8)"/>
  <path style="fill:#ffffff;fill-opacity:1;stroke:none"
     d="m80.9172,290.19c7.33803-11.1021-6.1763-44.82 6.6583-83.8629 4.81057-14.6341 20.25022-27.5103 39.08005-41.4034 54.67421-40.3397 58.20319-101.9177 52.09099-161.3789-6.25543-60.8541 3.64926-95.5765 3.64926-95.5765l9.05587-31.9467c0,0-30.16771-18.6928-53.03688,25.3197-22.86919,44.0124-24.76613,95.8625-24.76613,95.8625 1.42915-0.2538-11.52616,23.979-25.10849,0.6984-5.3881-9.2356-12.87465-217.8439-13.9756-220.0623l-1.54734-17.6424c1.13335-20.9134-37.10219-21.7365-39.73324-3.5711-2.18411,15.0803 0.0389,25.4088-3.4785,27.4727-3.8776,3.5787-3.82462,0.206-7.70223-2.7406l-0.45209-47.9811c2.0196,0.3901-2.11458-23.4199-22.08391-23.1857-15.3978,0.1806-22.8173,7.7726-23.7206,24.4773-0.446,20.3371 1.1403,36.046 0.9428,53.6542 0,0-3.124,5.7597-8.2134,0.5932-2.0593-12.5525-0.7344-24.6368-6.4091-32.308-7.046-9.5254-33.7397-13.3813-38.6683,12.934-1.8598,14.9789-0.8902,26.1467-0.9444,34.1521-0.081,11.9662-0.5098,16.8663-0.5098,16.8663 0,0-6.5434,5.1665-7.2706-5.8123-0.3293-4.9734-0.2111-8.8868 0.017-11.6797-6.6724-19.9157-23.3562-16.22-31.2803-4.4654-5.4811,29.2939-14.541,270.5915-14.541,270.5915-0.1952,0.794 0.583,41.9523 32.7174,75.559 26.8236,28.0523 17.4346,89.7004 17.4495,89.7666l1.4541,54.8933 160.32681,0.7762-1.4e-4,0 z"/>
</svg>