<svg xmlns="http://www.w3.org/2000/svg" viewBox="0 0 611.88 139.21"><defs><style>.cls-1{fill:#fc0;}.cls-2{fill:#039;}.cls-3{isolation:isolate;}.cls-4{fill:#fff;}.cls-5,.cls-6{fill:none;stroke:#000;stroke-linecap:round;stroke-linejoin:round;stroke-width:5.61px;}.cls-6{stroke-opacity:0;}</style></defs><g id="Layer_2" data-name="Layer 2"><g id="Layer_1-2" data-name="Layer 1"><rect id="rect2892" class="cls-1" x="2.81" y="2.81" width="606.26" height="133.6" rx="10.59"/><rect id="rect2502" class="cls-2" x="4.79" y="5.04" width="58.69" height="129.12"/><g id="g2504"><g id="use2506"><g id="s"><g id="c"><path id="t" class="cls-1" d="M34.14,20.72l-1,3.22,1.6.52Z"/><g id="use2493"><path id="t-2" data-name="t" class="cls-1" d="M34.14,20.72l1,3.22-1.61.52Z"/></g></g><g id="a"><g id="use2496"><g id="c-2" data-name="c"><path id="t-3" data-name="t" class="cls-1" d="M37.35,23.06H34v1.69Z"/><g id="use2493-2" data-name="use2493"><path id="t-4" data-name="t" class="cls-1" d="M37.35,23.06l-2.73,2-1-1.37Z"/></g></g></g><g id="use2498"><g id="c-3" data-name="c"><path id="t-5" data-name="t" class="cls-1" d="M36.13,26.84l-1.05-3.22-1.6.52Z"/><g id="use2493-3" data-name="use2493"><path id="t-6" data-name="t" class="cls-1" d="M36.13,26.84l-2.74-2,1-1.37Z"/></g></g></g></g><g id="use2500"><g id="a-2" data-name="a"><g id="use2496-2" data-name="use2496"><g id="c-4" data-name="c"><path id="t-7" data-name="t" class="cls-1" d="M30.93,23.06h3.38v1.69Z"/><g id="use2493-4" data-name="use2493"><path id="t-8" data-name="t" class="cls-1" d="M30.93,23.06l2.73,2,1-1.37Z"/></g></g></g><g id="use2498-2" data-name="use2498"><g id="c-5" data-name="c"><path id="t-9" data-name="t" class="cls-1" d="M32.16,26.84l1-3.22,1.61.52Z"/><g id="use2493-5" data-name="use2493"><path id="t-10" data-name="t" class="cls-1" d="M32.16,26.84l2.73-2-1-1.37Z"/></g></g></g></g></g></g></g><g id="use2508"><g id="s-2" data-name="s"><g id="c-6" data-name="c"><path id="t-11" data-name="t" class="cls-1" d="M34.14,61.33l-1,3.22,1.6.52Z"/><g id="use2493-6" data-name="use2493"><path id="t-12" data-name="t" class="cls-1" d="M34.14,61.33l1,3.22-1.61.52Z"/></g></g><g id="a-3" data-name="a"><g id="use2496-3" data-name="use2496"><g id="c-7" data-name="c"><path id="t-13" data-name="t" class="cls-1" d="M37.35,63.67H34v1.69Z"/><g id="use2493-7" data-name="use2493"><path id="t-14" data-name="t" class="cls-1" d="M37.35,63.67l-2.73,2-1-1.37Z"/></g></g></g><g id="use2498-3" data-name="use2498"><g id="c-8" data-name="c"><path id="t-15" data-name="t" class="cls-1" d="M36.13,67.46l-1.05-3.22-1.6.52Z"/><g id="use2493-8" data-name="use2493"><path id="t-16" data-name="t" class="cls-1" d="M36.13,67.46l-2.74-2,1-1.37Z"/></g></g></g></g><g id="use2500-2" data-name="use2500"><g id="a-4" data-name="a"><g id="use2496-4" data-name="use2496"><g id="c-9" data-name="c"><path id="t-17" data-name="t" class="cls-1" d="M30.93,63.67h3.38v1.69Z"/><g id="use2493-9" data-name="use2493"><path id="t-18" data-name="t" class="cls-1" d="M30.93,63.67l2.73,2,1-1.37Z"/></g></g></g><g id="use2498-4" data-name="use2498"><g id="c-10" data-name="c"><path id="t-19" data-name="t" class="cls-1" d="M32.16,67.46l1-3.22,1.61.52Z"/><g id="use2493-10" data-name="use2493"><path id="t-20" data-name="t" class="cls-1" d="M32.16,67.46l2.73-2-1-1.37Z"/></g></g></g></g></g></g></g><g id="l"><g id="use2511"><g id="s-3" data-name="s"><g id="c-11" data-name="c"><path id="t-21" data-name="t" class="cls-1" d="M13.87,41l-1,3.22,1.6.53Z"/><g id="use2493-11" data-name="use2493"><path id="t-22" data-name="t" class="cls-1" d="M13.87,41l1,3.22-1.6.53Z"/></g></g><g id="a-5" data-name="a"><g id="use2496-5" data-name="use2496"><g id="c-12" data-name="c"><path id="t-23" data-name="t" class="cls-1" d="M17.08,43.36H13.7v1.7Z"/><g id="use2493-12" data-name="use2493"><path id="t-24" data-name="t" class="cls-1" d="M17.08,43.36l-2.73,2-1-1.37Z"/></g></g></g><g id="use2498-5" data-name="use2498"><g id="c-13" data-name="c"><path id="t-25" data-name="t" class="cls-1" d="M15.86,47.15l-1-3.22-1.61.52Z"/><g id="use2493-13" data-name="use2493"><path id="t-26" data-name="t" class="cls-1" d="M15.86,47.15l-2.74-2,1-1.37Z"/></g></g></g></g><g id="use2500-3" data-name="use2500"><g id="a-6" data-name="a"><g id="use2496-6" data-name="use2496"><g id="c-14" data-name="c"><path id="t-27" data-name="t" class="cls-1" d="M10.66,43.36H14v1.7Z"/><g id="use2493-14" data-name="use2493"><path id="t-28" data-name="t" class="cls-1" d="M10.66,43.36l2.73,2,1-1.37Z"/></g></g></g><g id="use2498-6" data-name="use2498"><g id="c-15" data-name="c"><path id="t-29" data-name="t" class="cls-1" d="M11.88,47.15l1-3.22,1.6.52Z"/><g id="use2493-15" data-name="use2493"><path id="t-30" data-name="t" class="cls-1" d="M11.88,47.15l2.74-2-1-1.37Z"/></g></g></g></g></g></g></g><g id="use2513"><g id="s-4" data-name="s"><g id="c-16" data-name="c"><path id="t-31" data-name="t" class="cls-1" d="M22,29.56l2.73-2-1-1.37Z"/><g id="use2493-16" data-name="use2493"><path id="t-32" data-name="t" class="cls-1" d="M22,29.56l1-3.22,1.61.52Z"/></g></g><g id="a-7" data-name="a"><g id="use2496-7" data-name="use2496"><g id="c-17" data-name="c"><path id="t-33" data-name="t" class="cls-1" d="M20.79,25.78l2.74,2,1-1.37Z"/><g id="use2493-17" data-name="use2493"><path id="t-34" data-name="t" class="cls-1" d="M20.79,25.78h3.38v1.69Z"/></g></g></g><g id="use2498-7" data-name="use2498"><g id="c-18" data-name="c"><path id="t-35" data-name="t" class="cls-1" d="M24,23.44,23,26.66l1.61.52Z"/><g id="use2493-18" data-name="use2493"><path id="t-36" data-name="t" class="cls-1" d="M24,23.44l1,3.22-1.61.52Z"/></g></g></g></g><g id="use2500-4" data-name="use2500"><g id="a-8" data-name="a"><g id="use2496-8" data-name="use2496"><g id="c-19" data-name="c"><path id="t-37" data-name="t" class="cls-1" d="M26,29.56l-2.73-2,1-1.37Z"/><g id="use2493-19" data-name="use2493"><path id="t-38" data-name="t" class="cls-1" d="M26,29.56l-1-3.22-1.61.52Z"/></g></g></g><g id="use2498-8" data-name="use2498"><g id="c-20" data-name="c"><path id="t-39" data-name="t" class="cls-1" d="M27.22,25.78l-2.73,2-1-1.37Z"/><g id="use2493-20" data-name="use2493"><path id="t-40" data-name="t" class="cls-1" d="M27.22,25.78H23.84v1.69Z"/></g></g></g></g></g></g></g><g id="use2515"><g id="s-5" data-name="s"><g id="c-21" data-name="c"><path id="t-41" data-name="t" class="cls-1" d="M18.57,37l-1-3.22-1.61.53Z"/><g id="use2493-21" data-name="use2493"><path id="t-42" data-name="t" class="cls-1" d="M18.57,37l-2.73-2,1-1.36Z"/></g></g><g id="a-9" data-name="a"><g id="use2496-9" data-name="use2496"><g id="c-22" data-name="c"><path id="t-43" data-name="t" class="cls-1" d="M14.6,37l2.73-2-1-1.36Z"/><g id="use2493-22" data-name="use2493"><path id="t-44" data-name="t" class="cls-1" d="M14.6,37l1-3.22,1.61.53Z"/></g></g></g><g id="use2498-9" data-name="use2498"><g id="c-23" data-name="c"><path id="t-45" data-name="t" class="cls-1" d="M13.37,33.21l2.74,2,1-1.37Z"/><g id="use2493-23" data-name="use2493"><path id="t-46" data-name="t" class="cls-1" d="M13.37,33.21h3.38V34.9Z"/></g></g></g></g><g id="use2500-5" data-name="use2500"><g id="a-10" data-name="a"><g id="use2496-10" data-name="use2496"><g id="c-24" data-name="c"><path id="t-47" data-name="t" class="cls-1" d="M19.8,33.21l-2.73,2-1-1.37Z"/><g id="use2493-24" data-name="use2493"><path id="t-48" data-name="t" class="cls-1" d="M19.8,33.21H16.42V34.9Z"/></g></g></g><g id="use2498-10" data-name="use2498"><g id="c-25" data-name="c"><path id="t-49" data-name="t" class="cls-1" d="M16.59,30.87l1,3.22L16,34.61Z"/><g id="use2493-25" data-name="use2493"><path id="t-50" data-name="t" class="cls-1" d="M16.59,30.87l-1.05,3.22,1.61.52Z"/></g></g></g></g></g></g></g><g id="use2517"><g id="s-6" data-name="s"><g id="c-26" data-name="c"><path id="t-51" data-name="t" class="cls-1" d="M19.8,53.52H16.42v1.69Z"/><g id="use2493-26" data-name="use2493"><path id="t-52" data-name="t" class="cls-1" d="M19.8,53.52l-2.73,2-1-1.37Z"/></g></g><g id="a-11" data-name="a"><g id="use2496-11" data-name="use2496"><g id="c-27" data-name="c"><path id="t-53" data-name="t" class="cls-1" d="M18.57,57.3l-1-3.22-1.61.53Z"/><g id="use2493-27" data-name="use2493"><path id="t-54" data-name="t" class="cls-1" d="M18.57,57.3l-2.73-2,1-1.37Z"/></g></g></g><g id="use2498-11" data-name="use2498"><g id="c-28" data-name="c"><path id="t-55" data-name="t" class="cls-1" d="M14.6,57.3l2.73-2-1-1.37Z"/><g id="use2493-28" data-name="use2493"><path id="t-56" data-name="t" class="cls-1" d="M14.6,57.3l1-3.22,1.61.53Z"/></g></g></g></g><g id="use2500-6" data-name="use2500"><g id="a-12" data-name="a"><g id="use2496-12" data-name="use2496"><g id="c-29" data-name="c"><path id="t-57" data-name="t" class="cls-1" d="M16.59,51.18l1,3.22L16,54.92Z"/><g id="use2493-29" data-name="use2493"><path id="t-58" data-name="t" class="cls-1" d="M16.59,51.18,15.54,54.4l1.61.52Z"/></g></g></g><g id="use2498-12" data-name="use2498"><g id="c-30" data-name="c"><path id="t-59" data-name="t" class="cls-1" d="M13.37,53.52h3.38v1.69Z"/><g id="use2493-30" data-name="use2493"><path id="t-60" data-name="t" class="cls-1" d="M13.37,53.52l2.74,2,1-1.37Z"/></g></g></g></g></g></g></g><g id="use2519"><g id="s-7" data-name="s"><g id="c-31" data-name="c"><path id="t-61" data-name="t" class="cls-1" d="M27.22,61H23.84v1.69Z"/><g id="use2493-31" data-name="use2493"><path id="t-62" data-name="t" class="cls-1" d="M27.22,61l-2.73,2-1-1.37Z"/></g></g><g id="a-13" data-name="a"><g id="use2496-13" data-name="use2496"><g id="c-32" data-name="c"><path id="t-63" data-name="t" class="cls-1" d="M26,64.73l-1-3.21L23.34,62Z"/><g id="use2493-32" data-name="use2493"><path id="t-64" data-name="t" class="cls-1" d="M26,64.73l-2.73-2,1-1.37Z"/></g></g></g><g id="use2498-13" data-name="use2498"><g id="c-33" data-name="c"><path id="t-65" data-name="t" class="cls-1" d="M22,64.73l2.73-2-1-1.37Z"/><g id="use2493-33" data-name="use2493"><path id="t-66" data-name="t" class="cls-1" d="M22,64.73l1-3.21,1.61.52Z"/></g></g></g></g><g id="use2500-7" data-name="use2500"><g id="a-14" data-name="a"><g id="use2496-14" data-name="use2496"><g id="c-34" data-name="c"><path id="t-67" data-name="t" class="cls-1" d="M24,58.61l1,3.22-1.61.52Z"/><g id="use2493-34" data-name="use2493"><path id="t-68" data-name="t" class="cls-1" d="M24,58.61,23,61.83l1.61.52Z"/></g></g></g><g id="use2498-14" data-name="use2498"><g id="c-35" data-name="c"><path id="t-69" data-name="t" class="cls-1" d="M20.79,61h3.38v1.69Z"/><g id="use2493-35" data-name="use2493"><path id="t-70" data-name="t" class="cls-1" d="M20.79,61l2.74,2,1-1.37Z"/></g></g></g></g></g></g></g></g><g id="use2521"><g id="l-2" data-name="l"><g id="use2511-2" data-name="use2511"><g id="s-8" data-name="s"><g id="c-36" data-name="c"><path id="t-71" data-name="t" class="cls-1" d="M54.41,41l1.05,3.22-1.61.53Z"/><g id="use2493-36" data-name="use2493"><path id="t-72" data-name="t" class="cls-1" d="M54.41,41l-1,3.22,1.61.53Z"/></g></g><g id="a-15" data-name="a"><g id="use2496-15" data-name="use2496"><g id="c-37" data-name="c"><path id="t-73" data-name="t" class="cls-1" d="M51.2,43.36h3.38v1.7Z"/><g id="use2493-37" data-name="use2493"><path id="t-74" data-name="t" class="cls-1" d="M51.2,43.36l2.73,2,1-1.37Z"/></g></g></g><g id="use2498-15" data-name="use2498"><g id="c-38" data-name="c"><path id="t-75" data-name="t" class="cls-1" d="M52.43,47.15l1-3.22,1.61.52Z"/><g id="use2493-38" data-name="use2493"><path id="t-76" data-name="t" class="cls-1" d="M52.43,47.15l2.73-2-1-1.37Z"/></g></g></g></g><g id="use2500-8" data-name="use2500"><g id="a-16" data-name="a"><g id="use2496-16" data-name="use2496"><g id="c-39" data-name="c"><path id="t-77" data-name="t" class="cls-1" d="M57.63,43.36H54.25v1.7Z"/><g id="use2493-39" data-name="use2493"><path id="t-78" data-name="t" class="cls-1" d="M57.63,43.36l-2.74,2L53.9,44Z"/></g></g></g><g id="use2498-16" data-name="use2498"><g id="c-40" data-name="c"><path id="t-79" data-name="t" class="cls-1" d="M56.4,47.15l-1-3.22-1.61.52Z"/><g id="use2493-40" data-name="use2493"><path id="t-80" data-name="t" class="cls-1" d="M56.4,47.15l-2.73-2,1-1.37Z"/></g></g></g></g></g></g></g><g id="use2513-2" data-name="use2513"><g id="s-9" data-name="s"><g id="c-41" data-name="c"><path id="t-81" data-name="t" class="cls-1" d="M46.26,29.56l-2.73-2,1-1.37Z"/><g id="use2493-41" data-name="use2493"><path id="t-82" data-name="t" class="cls-1" d="M46.26,29.56l-1-3.22-1.61.52Z"/></g></g><g id="a-17" data-name="a"><g id="use2496-17" data-name="use2496"><g id="c-42" data-name="c"><path id="t-83" data-name="t" class="cls-1" d="M47.49,25.78l-2.73,2-1-1.37Z"/><g id="use2493-42" data-name="use2493"><path id="t-84" data-name="t" class="cls-1" d="M47.49,25.78H44.11v1.69Z"/></g></g></g><g id="use2498-17" data-name="use2498"><g id="c-43" data-name="c"><path id="t-85" data-name="t" class="cls-1" d="M44.28,23.44l1,3.22-1.6.52Z"/><g id="use2493-43" data-name="use2493"><path id="t-86" data-name="t" class="cls-1" d="M44.28,23.44l-1.05,3.22,1.61.52Z"/></g></g></g></g><g id="use2500-9" data-name="use2500"><g id="a-18" data-name="a"><g id="use2496-18" data-name="use2496"><g id="c-44" data-name="c"><path id="t-87" data-name="t" class="cls-1" d="M42.29,29.56l2.74-2L44,26.2Z"/><g id="use2493-44" data-name="use2493"><path id="t-88" data-name="t" class="cls-1" d="M42.29,29.56l1.05-3.22,1.6.52Z"/></g></g></g><g id="use2498-18" data-name="use2498"><g id="c-45" data-name="c"><path id="t-89" data-name="t" class="cls-1" d="M41.06,25.78l2.74,2,1-1.37Z"/><g id="use2493-45" data-name="use2493"><path id="t-90" data-name="t" class="cls-1" d="M41.06,25.78h3.38v1.69Z"/></g></g></g></g></g></g></g><g id="use2515-2" data-name="use2515"><g id="s-10" data-name="s"><g id="c-46" data-name="c"><path id="t-91" data-name="t" class="cls-1" d="M49.71,37l1-3.22,1.6.53Z"/><g id="use2493-46" data-name="use2493"><path id="t-92" data-name="t" class="cls-1" d="M49.71,37l2.74-2-1-1.36Z"/></g></g><g id="a-19" data-name="a"><g id="use2496-19" data-name="use2496"><g id="c-47" data-name="c"><path id="t-93" data-name="t" class="cls-1" d="M53.68,37,51,35l1-1.36Z"/><g id="use2493-47" data-name="use2493"><path id="t-94" data-name="t" class="cls-1" d="M53.68,37l-1-3.22L51,34.3Z"/></g></g></g><g id="use2498-19" data-name="use2498"><g id="c-48" data-name="c"><path id="t-95" data-name="t" class="cls-1" d="M54.91,33.21l-2.73,2-1-1.37Z"/><g id="use2493-48" data-name="use2493"><path id="t-96" data-name="t" class="cls-1" d="M54.91,33.21H51.53V34.9Z"/></g></g></g></g><g id="use2500-10" data-name="use2500"><g id="a-20" data-name="a"><g id="use2496-20" data-name="use2496"><g id="c-49" data-name="c"><path id="t-97" data-name="t" class="cls-1" d="M48.48,33.21l2.74,2,1-1.37Z"/><g id="use2493-49" data-name="use2493"><path id="t-98" data-name="t" class="cls-1" d="M48.48,33.21h3.38V34.9Z"/></g></g></g><g id="use2498-20" data-name="use2498"><g id="c-50" data-name="c"><path id="t-99" data-name="t" class="cls-1" d="M51.7,30.87l-1.05,3.22,1.61.52Z"/><g id="use2493-50" data-name="use2493"><path id="t-100" data-name="t" class="cls-1" d="M51.7,30.87l1,3.22-1.6.52Z"/></g></g></g></g></g></g></g><g id="use2517-2" data-name="use2517"><g id="s-11" data-name="s"><g id="c-51" data-name="c"><path id="t-101" data-name="t" class="cls-1" d="M48.48,53.52h3.38v1.69Z"/><g id="use2493-51" data-name="use2493"><path id="t-102" data-name="t" class="cls-1" d="M48.48,53.52l2.74,2,1-1.37Z"/></g></g><g id="a-21" data-name="a"><g id="use2496-21" data-name="use2496"><g id="c-52" data-name="c"><path id="t-103" data-name="t" class="cls-1" d="M49.71,57.3l1-3.22,1.6.53Z"/><g id="use2493-52" data-name="use2493"><path id="t-104" data-name="t" class="cls-1" d="M49.71,57.3l2.74-2-1-1.37Z"/></g></g></g><g id="use2498-21" data-name="use2498"><g id="c-53" data-name="c"><path id="t-105" data-name="t" class="cls-1" d="M53.68,57.3l-2.73-2,1-1.37Z"/><g id="use2493-53" data-name="use2493"><path id="t-106" data-name="t" class="cls-1" d="M53.68,57.3l-1-3.22L51,54.61Z"/></g></g></g></g><g id="use2500-11" data-name="use2500"><g id="a-22" data-name="a"><g id="use2496-22" data-name="use2496"><g id="c-54" data-name="c"><path id="t-107" data-name="t" class="cls-1" d="M51.7,51.18,50.65,54.4l1.61.52Z"/><g id="use2493-54" data-name="use2493"><path id="t-108" data-name="t" class="cls-1" d="M51.7,51.18l1,3.22-1.6.52Z"/></g></g></g><g id="use2498-22" data-name="use2498"><g id="c-55" data-name="c"><path id="t-109" data-name="t" class="cls-1" d="M54.91,53.52H51.53v1.69Z"/><g id="use2493-55" data-name="use2493"><path id="t-110" data-name="t" class="cls-1" d="M54.91,53.52l-2.73,2-1-1.37Z"/></g></g></g></g></g></g></g><g id="use2519-2" data-name="use2519"><g id="s-12" data-name="s"><g id="c-56" data-name="c"><path id="t-111" data-name="t" class="cls-1" d="M41.06,61h3.38v1.69Z"/><g id="use2493-56" data-name="use2493"><path id="t-112" data-name="t" class="cls-1" d="M41.06,61l2.74,2,1-1.37Z"/></g></g><g id="a-23" data-name="a"><g id="use2496-23" data-name="use2496"><g id="c-57" data-name="c"><path id="t-113" data-name="t" class="cls-1" d="M42.29,64.73l1.05-3.21,1.6.52Z"/><g id="use2493-57" data-name="use2493"><path id="t-114" data-name="t" class="cls-1" d="M42.29,64.73l2.74-2-1-1.37Z"/></g></g></g><g id="use2498-23" data-name="use2498"><g id="c-58" data-name="c"><path id="t-115" data-name="t" class="cls-1" d="M46.26,64.73l-2.73-2,1-1.37Z"/><g id="use2493-58" data-name="use2493"><path id="t-116" data-name="t" class="cls-1" d="M46.26,64.73l-1-3.21L43.61,62Z"/></g></g></g></g><g id="use2500-12" data-name="use2500"><g id="a-24" data-name="a"><g id="use2496-24" data-name="use2496"><g id="c-59" data-name="c"><path id="t-117" data-name="t" class="cls-1" d="M44.28,58.61l-1.05,3.22,1.61.52Z"/><g id="use2493-59" data-name="use2493"><path id="t-118" data-name="t" class="cls-1" d="M44.28,58.61l1,3.22-1.6.52Z"/></g></g></g><g id="use2498-24" data-name="use2498"><g id="c-60" data-name="c"><path id="t-119" data-name="t" class="cls-1" d="M47.49,61H44.11v1.69Z"/><g id="use2493-60" data-name="use2493"><path id="t-120" data-name="t" class="cls-1" d="M47.49,61l-2.73,2-1-1.37Z"/></g></g></g></g></g></g></g></g></g></g><g id="text3725" class="cls-3"><g class="cls-3"><path class="cls-4" d="M27.71,103.36l4.87,2.15q-1.12,5.65-3.72,8.4a8.73,8.73,0,0,1-6.61,2.75q-5,0-8.15-4.71T10.91,99.09q0-8.62,3.21-13.4a9.75,9.75,0,0,1,8.43-4.78A8.89,8.89,0,0,1,30,84.66,15.58,15.58,0,0,1,32.51,91l-5,1.65a8.2,8.2,0,0,0-1.84-4.25,4.43,4.43,0,0,0-3.4-1.55,5.14,5.14,0,0,0-4.49,2.76c-1.15,1.84-1.72,4.81-1.72,8.93,0,4.37.56,7.49,1.69,9.34a5.06,5.06,0,0,0,4.42,2.78,4.32,4.32,0,0,0,3.44-1.77A11.93,11.93,0,0,0,27.71,103.36Z"/><path class="cls-4" d="M43.42,116.07V101.52l-9.11-20H40.2l5.85,13.68L51.79,81.5h5.79l-9.15,20.07v14.5Z"/></g></g><rect id="rect2892-2" data-name="rect2892" class="cls-5" x="2.81" y="2.81" width="606.26" height="133.6" rx="10.59"/><rect id="rect2892-1" class="cls-6" x="2.81" y="2.81" width="606.26" height="133.6" rx="10.59"/><path d="M101.51,115.75V22.16H115.7V70.4H116L154.5,22.16h16.89l-30,36.94,33.14,56.65H157.71L132.15,70,115.7,87.23v28.52Z"/><path d="M248.54,117.87l-11.82-9.44a34.69,34.69,0,0,1-9.67,5.84,32.52,32.52,0,0,1-12.43,2.25q-11,0-18.53-5.3T185.33,99.76a28.9,28.9,0,0,1-3.21-9q-.9-4.87-.9-21.77t.9-21.78a28.94,28.94,0,0,1,3.21-9q3.28-6.11,10.76-11.5t18.53-5.39q11,0,18.47,5.39T244,38.22a29.9,29.9,0,0,1,3.15,9Q248,52.1,248,69q0,15.23-.73,20.43a27.26,27.26,0,0,1-2.67,8.86l12.4,9.89ZM225.16,99.12l-11.95-9.51,8.41-9.7,10.92,8.67q1.29-4.5,1.29-19.59,0-14.38-1-18.69a20.35,20.35,0,0,0-3.75-7.9,19.12,19.12,0,0,0-5.79-4.76,19.36,19.36,0,0,0-17.34,0,19.07,19.07,0,0,0-5.78,4.76,20.51,20.51,0,0,0-3.76,7.9q-1,4.31-1,18.69t1,18.76a19.39,19.39,0,0,0,3.76,7.77,17.93,17.93,0,0,0,5.78,4.85,17.64,17.64,0,0,0,8.67,2A17.44,17.44,0,0,0,225.16,99.12Z"/><path d="M264.6,115.75V22.16h14.19v80.23h45.67v13.36Z"/><path d="M382.53,73.42V61.6h4.63q6.68,0,10.56-3.76a12.69,12.69,0,0,0,3.89-9.53,12.89,12.89,0,0,0-4.05-9.64,13.37,13.37,0,0,0-9.63-3.92A13.17,13.17,0,0,0,375,46.06H361.59a26.65,26.65,0,0,1,8.29-17.31,24.16,24.16,0,0,1,17.53-7.42q12.52,0,20.08,8.25T415,48.05a27.16,27.16,0,0,1-2.11,10.5A19.61,19.61,0,0,1,405,67.38a22.2,22.2,0,0,1,8.48,9.32,26.16,26.16,0,0,1,2.57,11.17q0,13.11-8.22,20.88a28.25,28.25,0,0,1-20.17,7.77,26.58,26.58,0,0,1-17.12-6.13q-7.6-6.14-9.47-17.89H374.5a20.36,20.36,0,0,0,5,7.74q3.15,2.92,8.93,2.92a14.21,14.21,0,0,0,9.89-4q4.31-3.94,4.31-10.89t-4.27-10.95a14.52,14.52,0,0,0-10.19-4Z"/><path d="M424.09,101.88V89.22l31.35-67.06h15L438.74,89.22h24.41v-27h13.42v27h7.52v12.66h-7.52v13.87H463.15V101.88Z"/><path d="M508.82,73.42V61.6h4.62q6.67,0,10.57-3.76a12.68,12.68,0,0,0,3.88-9.53,12.92,12.92,0,0,0-4-9.64,13.35,13.35,0,0,0-17.67-1.09,13.22,13.22,0,0,0-4.88,8.48H487.88a26.59,26.59,0,0,1,8.28-17.31,24.18,24.18,0,0,1,17.54-7.42q12.52,0,20.07,8.25t7.55,18.47a27.17,27.17,0,0,1-2.12,10.5,19.58,19.58,0,0,1-7.9,8.83,22.27,22.27,0,0,1,8.48,9.32,26.3,26.3,0,0,1,2.57,11.17q0,13.11-8.23,20.88A28.24,28.24,0,0,1,514,116.52a26.56,26.56,0,0,1-17.12-6.13q-7.62-6.14-9.48-17.89h13.43a20.36,20.36,0,0,0,5,7.74q3.13,2.92,8.93,2.92a14.22,14.22,0,0,0,9.89-4q4.3-3.94,4.3-10.89t-4.27-10.95a14.5,14.5,0,0,0-10.18-4Z"/></g></g></svg>