<?xml version="1.0" encoding="UTF-8" standalone="no"?>
<!-- Created with Inkscape (http://www.inkscape.org/) -->

<svg
   xmlns:dc="http://purl.org/dc/elements/1.1/"
   xmlns:cc="http://creativecommons.org/ns#"
   xmlns:rdf="http://www.w3.org/1999/02/22-rdf-syntax-ns#"
   xmlns:svg="http://www.w3.org/2000/svg"
   xmlns="http://www.w3.org/2000/svg"
   xmlns:sodipodi="http://sodipodi.sourceforge.net/DTD/sodipodi-0.dtd"
   xmlns:inkscape="http://www.inkscape.org/namespaces/inkscape"
   width="91mm"
   height="80.537003mm"
   viewBox="0 0 91 80.537003"
   version="1.1"
   id="svg863"
   inkscape:version="0.92.2 (5c3e80d, 2017-08-06)"
   sodipodi:docname="11.svg">
  <defs
     id="defs857" />
  <sodipodi:namedview
     id="base"
     pagecolor="#ffffff"
     bordercolor="#666666"
     borderopacity="1.0"
     inkscape:pageopacity="0.0"
     inkscape:pageshadow="2"
     inkscape:zoom="1.4"
     inkscape:cx="275.80266"
     inkscape:cy="145.84325"
     inkscape:document-units="mm"
     inkscape:current-layer="layer1"
     showgrid="false"
     inkscape:window-width="1920"
     inkscape:window-height="1057"
     inkscape:window-x="-8"
     inkscape:window-y="-8"
     inkscape:window-maximized="1" />
  <metadata
     id="metadata860">
    <rdf:RDF>
      <cc:Work
         rdf:about="">
        <dc:format>image/svg+xml</dc:format>
        <dc:type
           rdf:resource="http://purl.org/dc/dcmitype/StillImage" />
        <dc:title></dc:title>
      </cc:Work>
    </rdf:RDF>
  </metadata>
  <g
     inkscape:label="Layer 1"
     inkscape:groupmode="layer"
     id="layer1"
     transform="translate(0,-216.463)">
    <path
       inkscape:connector-curvature="0"
       id="path814"
       d="M 84.550414,290.54997 45.499941,222.91262 6.4496006,290.54992 Z"
       inkscape:transform-center-y="4.393997"
       inkscape:transform-center-x="27.135595"
       style="opacity:1;fill:none;fill-opacity:1;stroke:#dc0a14;stroke-width:11.9000721;stroke-linecap:butt;stroke-linejoin:round;stroke-miterlimit:4;stroke-dasharray:none;stroke-dashoffset:0;stroke-opacity:1"
       sodipodi:nodetypes="cccc" />
    <path
       sodipodi:nodetypes="cccc"
       inkscape:connector-curvature="0"
       id="path818"
       d="M 81.173022,288.59999 45.499989,226.81248 9.8269506,288.59995 Z"
       style="opacity:1;fill:#ffffff;fill-opacity:1;stroke:none;stroke-width:11.93114281;stroke-linecap:butt;stroke-linejoin:round;stroke-miterlimit:4;stroke-dasharray:none;stroke-dashoffset:0;stroke-opacity:1" />
    <path
       style="opacity:1;fill:#000000;fill-opacity:1;fill-rule:nonzero;stroke:none;stroke-width:0.42573023;stroke-linecap:square;stroke-linejoin:round;stroke-miterlimit:22.9260006;stroke-dasharray:none;stroke-opacity:1;paint-order:stroke fill markers"
       d="m 69.299997,285.49985 h 3.6 v -1.2 h -3.6 z"
       id="rect2031"
       inkscape:connector-curvature="0"
       sodipodi:nodetypes="ccccc" />
    <path
       sodipodi:nodetypes="ccccc"
       inkscape:connector-curvature="0"
       id="path888"
       d="m 18.1,285.49985 h 3.599997 v -1.2 H 18.1 Z"
       style="opacity:1;fill:#000000;fill-opacity:1;fill-rule:nonzero;stroke:none;stroke-width:0.42573023;stroke-linecap:square;stroke-linejoin:round;stroke-miterlimit:22.9260006;stroke-dasharray:none;stroke-opacity:1;paint-order:stroke fill markers" />
    <path
       sodipodi:nodetypes="ccccc"
       inkscape:connector-curvature="0"
       id="path890"
       d="m 64.179997,285.49985 h 3.6 v -1.2 h -3.6 z"
       style="opacity:1;fill:#000000;fill-opacity:1;fill-rule:nonzero;stroke:none;stroke-width:0.42573023;stroke-linecap:square;stroke-linejoin:round;stroke-miterlimit:22.9260006;stroke-dasharray:none;stroke-opacity:1;paint-order:stroke fill markers" />
    <path
       style="opacity:1;fill:#000000;fill-opacity:1;fill-rule:nonzero;stroke:none;stroke-width:0.42573023;stroke-linecap:square;stroke-linejoin:round;stroke-miterlimit:22.9260006;stroke-dasharray:none;stroke-opacity:1;paint-order:stroke fill markers"
       d="m 59.059997,285.49985 h 3.6 v -1.2 h -3.6 z"
       id="path892"
       inkscape:connector-curvature="0"
       sodipodi:nodetypes="ccccc" />
    <path
       sodipodi:nodetypes="ccccc"
       inkscape:connector-curvature="0"
       id="path894"
       d="m 53.939999,285.49985 h 3.599998 v -1.2 h -3.599998 z"
       style="opacity:1;fill:#000000;fill-opacity:1;fill-rule:nonzero;stroke:none;stroke-width:0.42573023;stroke-linecap:square;stroke-linejoin:round;stroke-miterlimit:22.9260006;stroke-dasharray:none;stroke-opacity:1;paint-order:stroke fill markers" />
    <path
       style="opacity:1;fill:#000000;fill-opacity:1;fill-rule:nonzero;stroke:none;stroke-width:0.42573023;stroke-linecap:square;stroke-linejoin:round;stroke-miterlimit:22.9260006;stroke-dasharray:none;stroke-opacity:1;paint-order:stroke fill markers"
       d="m 48.819999,285.49985 h 3.6 v -1.2 h -3.6 z"
       id="path896"
       inkscape:connector-curvature="0"
       sodipodi:nodetypes="ccccc" />
    <path
       sodipodi:nodetypes="ccccc"
       inkscape:connector-curvature="0"
       id="path898"
       d="m 43.699998,285.49985 h 3.600001 v -1.2 h -3.600001 z"
       style="opacity:1;fill:#000000;fill-opacity:1;fill-rule:nonzero;stroke:none;stroke-width:0.42573023;stroke-linecap:square;stroke-linejoin:round;stroke-miterlimit:22.9260006;stroke-dasharray:none;stroke-opacity:1;paint-order:stroke fill markers" />
    <path
       style="opacity:1;fill:#000000;fill-opacity:1;fill-rule:nonzero;stroke:none;stroke-width:0.42573023;stroke-linecap:square;stroke-linejoin:round;stroke-miterlimit:22.9260006;stroke-dasharray:none;stroke-opacity:1;paint-order:stroke fill markers"
       d="m 38.579999,285.49985 h 3.6 v -1.2 h -3.6 z"
       id="path900"
       inkscape:connector-curvature="0"
       sodipodi:nodetypes="ccccc" />
    <path
       sodipodi:nodetypes="ccccc"
       inkscape:connector-curvature="0"
       id="path902"
       d="m 33.459999,285.49985 h 3.599997 v -1.2 h -3.599997 z"
       style="opacity:1;fill:#000000;fill-opacity:1;fill-rule:nonzero;stroke:none;stroke-width:0.42573023;stroke-linecap:square;stroke-linejoin:round;stroke-miterlimit:22.9260006;stroke-dasharray:none;stroke-opacity:1;paint-order:stroke fill markers" />
    <path
       style="opacity:1;fill:#000000;fill-opacity:1;fill-rule:nonzero;stroke:none;stroke-width:0.42573023;stroke-linecap:square;stroke-linejoin:round;stroke-miterlimit:22.9260006;stroke-dasharray:none;stroke-opacity:1;paint-order:stroke fill markers"
       d="m 28.339996,285.49985 h 3.600003 v -1.2 h -3.600003 z"
       id="path904"
       inkscape:connector-curvature="0"
       sodipodi:nodetypes="ccccc" />
    <path
       sodipodi:nodetypes="ccccc"
       inkscape:connector-curvature="0"
       id="path906"
       d="M 23.219999,285.49985 H 26.82 v -1.2 h -3.600001 z"
       style="opacity:1;fill:#000000;fill-opacity:1;fill-rule:nonzero;stroke:none;stroke-width:0.42573023;stroke-linecap:square;stroke-linejoin:round;stroke-miterlimit:22.9260006;stroke-dasharray:none;stroke-opacity:1;paint-order:stroke fill markers" />
    <path
       id="path962"
       d="m 51.43271,268.32045 c -0.101453,-0.26402 -3.58109,-7.50757 -3.668905,-8.12414 -0.08782,-0.60307 0.641801,-5.67139 0.756681,-5.77981 0.121582,-0.12193 5.398088,3.90287 5.6143,3.91641 0.223075,0 0.452514,-0.27092 0.574237,-0.26405 0.09461,0.006 0.702653,0.60302 1.00667,0.7453 0.101452,0.054 0.216202,0.088 0.344648,0.0947 0.473114,0.0196 0.878274,-0.41352 0.898564,-0.95538 0.01469,-0.3186 -0.121573,-0.64372 -0.243156,-0.77924 -0.128466,-0.13571 -0.324077,-0.31173 -0.479488,-0.35253 -0.15541,-0.0493 -0.357895,-0.054 -0.473114,-0.12196 -0.101462,-0.054 -0.09461,-0.52852 -0.09461,-0.52852 0,0 -4.600867,-3.30659 -4.810355,-3.51664 -0.216212,-0.20996 -1.945745,-4.85151 -2.270043,-5.19029 -0.317684,-0.3319 -1.661958,-1.64652 -1.661958,-1.64652 l -0.01968,-0.56919 c 0,0 1.202591,-0.38649 1.290386,-0.5827 0.08092,-0.20307 0.770208,-2.60192 0.770208,-2.60192 l 1.351228,-0.41992 0.05395,-0.40665 -1.668712,-0.75887 -0.03437,-0.96891 c 0,0 -1.31745,-0.68438 -2.216015,-0.60306 -0.89179,0.088 -1.776819,0.51495 -1.790366,0.7521 -0.005,0.24389 -0.03447,1.07736 -0.03447,1.07736 l -1.844384,0.76568 0.01979,0.39975 1.736329,1.00962 -0.189238,2.71029 c 0,0 -3.34426,1.53812 -3.54017,1.76849 -0.189249,0.23701 -4.205529,4.8583 -4.333926,5.10218 -0.114739,0.2306 -1.229585,6.36928 -1.10795,6.36928 0.101491,0.006 0.533696,0.39287 0.533696,0.39287 0,0 -0.162272,1.28065 0.148545,1.73462 0.01468,0.0245 0.03437,0.0394 0.04905,0.054 0.155424,0.28471 0.432427,0.48087 0.77021,0.49465 0.513458,0.0196 0.959358,-0.41991 0.979646,-0.98931 0,-0.12881 -0.01469,-0.25076 -0.04895,-0.36584 l -0.06074,-0.49463 0.378484,-0.34566 c 0,0 0.689125,-4.93958 0.844486,-5.05474 0.15543,-0.10816 3.057036,-2.7781 3.057036,-2.7781 l -1.094476,8.93735 c -0.01969,0.48087 0.270129,0.89436 0.675587,1.02311 l -5.056195,16.30262 c -0.128447,0.33189 -0.01468,0.71823 0.283863,0.88083 l 4.33064,2.19541 c 0.243154,0.12882 0.533744,0.006 0.655338,-0.26406 0.114718,-0.26405 -0.344667,-0.87405 -0.250039,-0.7521 -0.06074,-0.088 -0.263276,-0.35895 -0.520229,-0.75211 -0.357905,-0.54885 -0.236302,-0.99603 0.07453,-1.69395 0,0 3.644189,-11.80346 3.799589,-11.80346 0.155422,0 2.925771,5.07509 3.081121,5.24446 l 0.01469,0.0146 3.053799,8.55787 c 0.128435,0.33878 0.378475,0.58948 0.702593,0.53531 l 4.688702,-0.96219 c 0.277012,-0.054 0.452524,-0.33189 0.405449,-0.63017 -0.04885,-0.29158 -0.270129,-0.35253 -0.574307,-0.44056 -0.303956,-0.088 -0.405439,-0.12193 -1.121469,-0.29796 -0.682353,-0.0948 -1.033675,-0.54885 -1.195868,-1.179 0,0 -2.432166,-7.84636 -2.540263,-8.10388"
       style="fill:#000000;fill-opacity:1;fill-rule:nonzero;stroke:none;stroke-width:0.03122282"
       inkscape:connector-curvature="0"
       sodipodi:nodetypes="cccccccccccccccccccccccccccccccccccccccccccccccccccscccccccccc" />
    <path
       sodipodi:nodetypes="ccccc"
       inkscape:connector-curvature="0"
       id="path839"
       d="m 64.179997,273.29999 h 3.6 v -1.2 h -3.6 z"
       style="opacity:1;fill:#000000;fill-opacity:1;fill-rule:nonzero;stroke:none;stroke-width:0.42573023;stroke-linecap:square;stroke-linejoin:round;stroke-miterlimit:22.9260006;stroke-dasharray:none;stroke-opacity:1;paint-order:stroke fill markers" />
    <path
       style="opacity:1;fill:#000000;fill-opacity:1;fill-rule:nonzero;stroke:none;stroke-width:0.42573023;stroke-linecap:square;stroke-linejoin:round;stroke-miterlimit:22.9260006;stroke-dasharray:none;stroke-opacity:1;paint-order:stroke fill markers"
       d="m 59.059997,273.29999 h 3.6 v -1.2 h -3.6 z"
       id="path841"
       inkscape:connector-curvature="0"
       sodipodi:nodetypes="ccccc" />
    <path
       sodipodi:nodetypes="ccccc"
       inkscape:connector-curvature="0"
       id="path843"
       d="m 53.939998,273.29999 h 3.599999 v -1.2 h -3.599999 z"
       style="opacity:1;fill:#000000;fill-opacity:1;fill-rule:nonzero;stroke:none;stroke-width:0.42573023;stroke-linecap:square;stroke-linejoin:round;stroke-miterlimit:22.9260006;stroke-dasharray:none;stroke-opacity:1;paint-order:stroke fill markers" />
    <path
       sodipodi:nodetypes="ccccc"
       inkscape:connector-curvature="0"
       id="path847"
       d="m 43.699998,273.29999 h 3.6 v -1.2 h -3.6 z"
       style="opacity:1;fill:#000000;fill-opacity:1;fill-rule:nonzero;stroke:none;stroke-width:0.42573023;stroke-linecap:square;stroke-linejoin:round;stroke-miterlimit:22.9260006;stroke-dasharray:none;stroke-opacity:1;paint-order:stroke fill markers" />
    <path
       sodipodi:nodetypes="ccccc"
       inkscape:connector-curvature="0"
       id="path851"
       d="m 33.459999,273.29999 h 3.599997 v -1.2 h -3.599997 z"
       style="opacity:1;fill:#000000;fill-opacity:1;fill-rule:nonzero;stroke:none;stroke-width:0.42573023;stroke-linecap:square;stroke-linejoin:round;stroke-miterlimit:22.9260006;stroke-dasharray:none;stroke-opacity:1;paint-order:stroke fill markers" />
    <path
       style="opacity:1;fill:#000000;fill-opacity:1;fill-rule:nonzero;stroke:none;stroke-width:0.42573023;stroke-linecap:square;stroke-linejoin:round;stroke-miterlimit:22.9260006;stroke-dasharray:none;stroke-opacity:1;paint-order:stroke fill markers"
       d="m 28.339996,273.29999 h 3.600003 v -1.2 h -3.600003 z"
       id="path853"
       inkscape:connector-curvature="0"
       sodipodi:nodetypes="ccccc" />
    <path
       sodipodi:nodetypes="ccccc"
       inkscape:connector-curvature="0"
       id="path855"
       d="m 23.219999,273.29999 h 3.599995 v -1.2 h -3.599995 z"
       style="opacity:1;fill:#000000;fill-opacity:1;fill-rule:nonzero;stroke:none;stroke-width:0.42573023;stroke-linecap:square;stroke-linejoin:round;stroke-miterlimit:22.9260006;stroke-dasharray:none;stroke-opacity:1;paint-order:stroke fill markers" />
  </g>
</svg>
