<?xml version="1.0" encoding="UTF-8" standalone="no"?>
<!-- Created with Inkscape (http://www.inkscape.org/) -->

<svg
   width="1500"
   height="2250"
   id="svg2"
   version="1.1"
   inkscape:version="1.2.2 (732a01da63, 2022-12-09)"
   sodipodi:docname="RU_road_sign_6.1.svg"
   xmlns:inkscape="http://www.inkscape.org/namespaces/inkscape"
   xmlns:sodipodi="http://sodipodi.sourceforge.net/DTD/sodipodi-0.dtd"
   xmlns="http://www.w3.org/2000/svg"
   xmlns:svg="http://www.w3.org/2000/svg"
   xmlns:rdf="http://www.w3.org/1999/02/22-rdf-syntax-ns#"
   xmlns:cc="http://creativecommons.org/ns#"
   xmlns:dc="http://purl.org/dc/elements/1.1/">
  <title
     id="title3002">7.1.მაქსიმალური სიჩქარის ზოგადი შეზღუდვები</title>
  <defs
     id="defs4">
    <rect
       x="719.21875"
       y="306.625"
       width="140.25"
       height="145.03125"
       id="rect26619" />
  </defs>
  <sodipodi:namedview
     id="base"
     pagecolor="#ffffff"
     bordercolor="#666666"
     borderopacity="1.0"
     inkscape:pageopacity="0.0"
     inkscape:pageshadow="2"
     inkscape:zoom="0.25"
     inkscape:cx="342"
     inkscape:cy="934"
     inkscape:document-units="px"
     inkscape:current-layer="layer1"
     showgrid="false"
     inkscape:window-width="1920"
     inkscape:window-height="991"
     inkscape:window-x="-9"
     inkscape:window-y="-9"
     inkscape:window-maximized="1"
     inkscape:snap-bbox="false"
     inkscape:bbox-paths="true"
     inkscape:bbox-nodes="true"
     inkscape:snap-bbox-edge-midpoints="true"
     inkscape:snap-bbox-midpoints="true"
     inkscape:showpageshadow="2"
     inkscape:pagecheckerboard="0"
     inkscape:deskcolor="#d1d1d1"
     showguides="false" />
  <metadata
     id="metadata7">
    <rdf:RDF>
      <cc:Work
         rdf:about="">
        <dc:format>image/svg+xml</dc:format>
        <dc:type
           rdf:resource="http://purl.org/dc/dcmitype/StillImage" />
        <dc:title>7.1.მაქსიმალური სიჩქარის ზოგადი შეზღუდვები</dc:title>
        <cc:license
           rdf:resource="http://creativecommons.org/licenses/by-sa/3.0/" />
        <dc:description>ГОСТ Р 52290-2004
Размеры и пропорции по типоразмеру IV</dc:description>
      </cc:Work>
      <cc:License
         rdf:about="http://creativecommons.org/licenses/by-sa/3.0/">
        <cc:permits
           rdf:resource="http://creativecommons.org/ns#Reproduction" />
        <cc:permits
           rdf:resource="http://creativecommons.org/ns#Distribution" />
        <cc:requires
           rdf:resource="http://creativecommons.org/ns#Notice" />
        <cc:requires
           rdf:resource="http://creativecommons.org/ns#Attribution" />
        <cc:permits
           rdf:resource="http://creativecommons.org/ns#DerivativeWorks" />
        <cc:requires
           rdf:resource="http://creativecommons.org/ns#ShareAlike" />
      </cc:License>
    </rdf:RDF>
  </metadata>
  <g
     inkscape:label="Layer 1"
     inkscape:groupmode="layer"
     id="layer1"
     transform="translate(0,1197.6378)">
    <rect
       style="color:#000000;fill:#ffffff;fill-opacity:1;fill-rule:nonzero;stroke:none;stroke-width:3.54299997999999980;marker:none;visibility:visible;display:inline;overflow:visible;enable-background:accumulate;opacity:1"
       id="rect10858"
       width="1500"
       height="2250"
       x="0"
       y="-1197.6378"
       rx="45"
       ry="45" />
    <rect
       rx="44"
       y="-1196.6378"
       x="0.99999994"
       height="2248"
       width="1498"
       id="rect10868"
       style="color:#000000;fill:none;stroke:#000000;stroke-width:2;stroke-miterlimit:4;stroke-opacity:1;stroke-dasharray:none;marker:none;visibility:visible;display:inline;overflow:visible;enable-background:accumulate;opacity:1"
       ry="44" />
    <path
       id="rect9536"
       style="color:#000000;display:inline;overflow:visible;visibility:visible;opacity:1;fill:#0d69e1;fill-opacity:1;fill-rule:nonzero;stroke:none;stroke-width:3.543;marker:none;enable-background:accumulate"
       d="M 45 20 C 31.150028 20 20 31.150028 20 45 L 20 2205 C 20 2218.85 31.150028 2230 45 2230 L 1455 2230 C 1468.85 2230 1480 2218.85 1480 2205 L 1480 45 C 1480 31.150028 1468.85 20 1455 20 L 45 20 z M 727.31445 110.41797 C 734.8583 110.41797 741.27009 112.02043 746.55078 115.22656 C 750.38557 117.92977 753.53067 121.2293 755.98242 125.12695 C 758.43417 120.91497 761.66997 117.52084 765.69336 114.94336 C 770.91119 111.92582 777.54502 110.41797 785.5918 110.41797 C 796.59324 110.41797 805.67709 112.99543 812.84375 118.15039 C 821.45631 124.1226 825.76172 131.91675 825.76172 141.53516 L 825.76172 253.65625 L 802.56445 253.65625 L 802.56445 148.13672 C 802.56445 142.41597 801.21298 138.26693 798.50977 135.68945 C 795.61796 132.73478 791.24883 131.25781 785.40234 131.25781 C 779.93305 131.25781 775.7203 132.4838 772.76562 134.93555 C 769.43376 137.51303 767.67492 141.72383 767.48633 147.57031 L 767.48633 224.80078 C 767.48633 235.17357 762.58239 243.22065 752.77539 248.94141 C 745.10581 253.27912 736.02196 255.44727 725.52344 255.44727 C 715.40211 255.44727 706.50552 252.68255 698.83594 247.15039 C 690.41197 240.92672 686.20117 233.3816 686.20117 224.51758 L 686.20117 143.04492 C 686.20117 132.735 691.3252 124.24772 701.57227 117.58398 C 708.67606 112.80621 717.25599 110.41797 727.31445 110.41797 z M 897.60352 110.41797 C 910.74239 110.41797 920.95957 112.64984 928.25195 117.11328 C 937.87036 123.21123 942.67969 133.48822 942.67969 147.94727 L 942.67969 154.83203 C 942.67969 161.55863 941.26449 166.74443 938.43555 170.39062 C 936.17239 173.3453 933.43856 175.38795 930.23242 176.51953 C 933.69002 178.15403 936.73856 180.8261 939.37891 184.53516 C 941.5792 188.24422 942.67969 192.39325 942.67969 196.98242 L 942.67969 218.10547 C 942.67969 232.56451 937.68115 242.77974 927.68555 248.75195 C 920.26743 253.2154 909.92671 255.44727 896.66211 255.44727 C 880.56857 255.44727 868.77981 252.7752 861.29883 247.43164 C 853.00059 241.45943 848.85156 231.6844 848.85156 218.10547 L 848.85156 196.98242 L 871.29492 196.98242 L 871.29492 217.63477 C 871.29492 224.1099 873.24297 228.66629 877.14062 231.30664 C 880.66109 233.75839 886.82189 234.98438 895.62305 234.98438 C 904.23561 234.98438 910.46013 233.60202 914.29492 230.83594 C 918.25544 228.19559 920.23633 223.79558 920.23633 217.63477 L 920.23633 200.94336 C 920.23633 196.98284 918.85202 193.58871 916.08594 190.75977 C 912.8798 187.99369 908.8891 186.60938 904.11133 186.60938 L 899.30078 186.60938 L 899.30078 166.33594 L 904.11133 166.33594 C 909.95781 166.33594 914.35783 164.35505 917.3125 160.39453 C 919.44992 157.62845 920.51953 153.82501 920.51953 148.98438 C 920.51953 142.63497 918.50776 137.98397 914.48438 135.0293 C 910.52385 132.38895 904.58315 131.06836 896.66211 131.06836 C 889.30686 131.06836 883.96273 132.70366 880.63086 135.97266 C 877.86478 139.17879 876.48242 143.82979 876.48242 149.92773 L 876.48242 154.83203 L 853.84961 154.83203 L 853.84961 145.11914 C 853.84961 133.61477 858.15697 124.71818 866.76953 118.43164 C 874.06192 113.08808 884.33891 110.41797 897.60352 110.41797 z M 1013.9551 110.41797 C 1029.0428 110.41797 1040.2967 113.40279 1047.7148 119.375 C 1055.2587 125.66154 1059.0293 135.18559 1059.0293 147.94727 L 1059.0293 218.10547 C 1059.0293 231.6844 1054.7239 241.39766 1046.1113 247.24414 C 1038.6932 252.71343 1027.6594 255.44727 1013.0117 255.44727 C 995.40941 255.44727 982.96231 252.24235 975.66992 245.83008 C 968.69186 239.85786 965.20312 230.61568 965.20312 218.10547 L 965.20312 196.98242 L 987.64648 196.98242 L 987.64648 217.63477 C 987.64648 223.98417 989.53276 228.47879 993.30469 231.11914 C 996.82515 233.69662 1003.0477 234.98438 1011.9746 234.98438 C 1018.4497 234.98438 1023.5738 234.1677 1027.3457 232.5332 C 1033.5065 230.08145 1036.5859 225.11575 1036.5859 217.63477 L 1036.5859 147.94727 C 1036.5859 142.54084 1035.109 138.39181 1032.1543 135.5 C 1028.5081 132.54533 1022.4728 131.06836 1014.0488 131.06836 L 1013.0117 131.06836 C 1006.0337 131.06836 1001.068 132.48356 998.11328 135.3125 C 994.59282 138.45577 992.83203 143.32687 992.83203 149.92773 L 992.83203 154.83203 L 970.20117 154.83203 L 970.20117 145.11914 C 970.20117 135.18641 973.50069 127.07756 980.10156 120.79102 C 987.77114 113.93869 999.05598 110.48083 1013.9551 110.41797 z M 1122.1973 110.41797 C 1129.9926 110.41797 1136.8446 112.1768 1142.7539 115.69727 C 1146.6516 118.77767 1149.5437 121.92082 1151.4297 125.12695 C 1153.8186 121.41789 1156.2686 118.65317 1158.7832 116.83008 C 1164.001 112.55523 1171.2314 110.41797 1180.4727 110.41797 C 1189.4624 110.41797 1196.5345 112.46062 1201.6895 116.54688 C 1204.3927 118.55857 1206.8446 121.41789 1209.0449 125.12695 C 1211.0566 121.79509 1213.6341 119.03037 1216.7773 116.83008 C 1222.3724 112.55523 1229.6337 110.41797 1238.5605 110.41797 C 1250.3792 110.41797 1259.9651 113.0572 1267.3203 118.33789 C 1275.6185 124.18437 1279.7695 132.42067 1279.7695 143.04492 L 1279.7695 177.36914 L 1256.4766 177.36914 L 1256.4766 148.13672 C 1256.4766 142.60456 1254.9687 138.39181 1251.9512 135.5 C 1248.745 132.67106 1244.3759 131.25781 1238.8438 131.25781 C 1232.4315 131.25781 1227.7785 132.89116 1224.8867 136.16016 C 1222.4978 139.1777 1221.3027 143.17035 1221.3027 148.13672 L 1221.3027 166.42969 L 1197.4453 166.42969 L 1197.4453 148.13672 C 1197.4453 142.03877 1195.8429 137.63876 1192.6367 134.93555 C 1189.6192 132.4838 1185.501 131.25781 1180.2832 131.25781 C 1174.1853 131.25781 1169.7235 132.67106 1166.8945 135.5 C 1164.0027 138.39181 1162.4929 142.41535 1162.3672 147.57031 L 1162.3672 166.42969 L 1139.3594 166.42969 L 1139.3594 148.13672 C 1139.3594 142.41597 1137.755 138.01595 1134.5488 134.93555 C 1131.5313 132.4838 1127.3205 131.25781 1121.9141 131.25781 C 1115.879 131.25781 1111.2898 132.82939 1108.1465 135.97266 C 1105.4433 138.9902 1104.0918 143.04462 1104.0918 148.13672 L 1104.0918 180.19727 C 1104.0918 185.66656 1106.7619 190.94696 1112.1055 196.03906 C 1118.3291 201.88555 1125.5904 205.18702 1133.8887 205.94141 C 1146.9647 207.32445 1161.4873 209.147 1177.4551 211.41016 C 1193.4858 213.67331 1209.3907 216.81646 1225.1699 220.83984 C 1236.9886 224.04598 1246.7019 229.76658 1254.3086 238.00195 C 1258.4577 242.84259 1261.5371 248.06123 1263.5488 253.65625 L 1237.5234 253.65625 C 1237.0834 251.64456 1235.8883 249.6019 1233.9395 247.52734 C 1230.419 244.19548 1223.1905 241.1141 1212.252 238.28516 C 1197.4786 234.51323 1181.8864 231.49558 1165.4785 229.23242 C 1149.0706 226.96927 1133.1985 225.61779 1117.8594 225.17773 C 1109.3097 224.80054 1101.168 224.36035 1093.4355 223.85742 C 1085.7031 223.3545 1079.5423 222.9143 1074.9531 222.53711 L 1083.0625 203.11328 C 1083.8798 203.36474 1085.515 203.61573 1087.9668 203.86719 C 1090.4185 204.11865 1093.3088 204.43335 1096.6406 204.81055 C 1093.1202 203.05032 1090.0099 200.62923 1087.3066 197.54883 C 1083.1575 192.83392 1081.082 186.76773 1081.082 179.34961 L 1081.082 143.04492 C 1081.082 133.23792 1084.9164 125.31633 1092.5859 119.28125 C 1100.0041 113.3719 1109.8756 110.41797 1122.1973 110.41797 z M 1336.7109 110.41797 C 1343.3747 110.41797 1349.2845 111.76944 1354.4395 114.47266 C 1358.7772 117.05014 1362.3914 120.60064 1365.2832 125.12695 C 1367.5464 121.2293 1370.564 118.02438 1374.3359 115.50977 C 1379.7424 112.11503 1386.5326 110.41797 1394.7051 110.41797 C 1404.6378 110.41797 1413.2197 112.617 1420.4492 117.01758 C 1430.0676 122.73833 1434.875 130.9109 1434.875 141.53516 L 1434.875 253.65625 L 1411.8672 253.65625 L 1411.8672 148.13672 C 1411.8672 142.85602 1410.5466 138.70699 1407.9062 135.68945 C 1404.8258 132.73478 1400.3312 131.25781 1394.4219 131.25781 C 1389.5812 131.25781 1385.4959 132.42007 1382.1641 134.74609 C 1378.5807 137.57504 1376.7891 141.84956 1376.7891 147.57031 L 1376.7891 197.07812 L 1353.5918 197.07812 L 1353.5918 148.13672 C 1353.5918 142.29024 1351.9874 137.89022 1348.7812 134.93555 C 1345.9523 132.4838 1341.8342 131.25781 1336.4277 131.25781 C 1331.2728 131.25781 1327.1566 132.42007 1324.0762 134.74609 C 1320.3671 137.44931 1318.5117 141.91304 1318.5117 148.13672 L 1318.5117 253.65625 L 1295.5039 253.65625 L 1295.5039 143.04492 C 1295.5039 133.9923 1299.5583 126.22709 1307.668 119.75195 C 1315.589 113.52828 1325.2694 110.41797 1336.7109 110.41797 z M 65.123047 112.20898 L 87.755859 112.20898 L 87.755859 217.35156 C 87.755859 223.07231 89.6093 227.34684 93.318359 230.17578 C 97.090284 233.38192 103.59863 234.98438 112.83984 234.98438 C 121.38954 234.98438 127.5175 233.72751 131.22656 231.21289 C 135.18708 228.50968 137.16797 223.88956 137.16797 217.35156 L 137.16797 182.46094 L 159.79883 182.46094 L 159.79883 217.91797 C 159.79883 231.74836 155.46254 241.67976 146.78711 247.71484 C 139.05466 252.86981 127.29875 255.44727 111.51953 255.44727 C 95.677449 255.44727 83.983302 252.20951 76.439453 245.73438 C 68.895604 239.6993 65.123047 230.42818 65.123047 217.91797 L 65.123047 112.20898 z M 195.33594 112.20898 L 219.75977 112.20898 C 219.8855 117.04962 220.73501 120.72757 222.30664 123.24219 C 223.43822 126.07113 226.14117 128.99418 230.41602 132.01172 C 235.38238 135.97224 241.38486 139.9649 248.42578 143.98828 C 255.52957 147.9488 261.0938 152.34882 265.11719 157.18945 C 267.31748 160.20699 269.32925 163.41191 271.15234 166.80664 C 273.16404 171.52155 274.16992 177.08578 274.16992 183.49805 L 273.88672 224.80078 C 273.88672 228.44697 273.38475 231.81022 272.37891 234.89062 C 271.37306 237.90816 269.36129 240.92582 266.34375 243.94336 C 263.20048 247.1495 258.26566 249.88528 251.53906 252.14844 C 244.81246 254.34873 236.41979 255.44727 226.36133 255.44727 C 205.30142 255.44727 191.09353 250.98353 183.73828 242.05664 C 179.84063 237.5932 177.89062 232.00004 177.89062 225.27344 L 177.89062 197.54883 L 202.31445 197.54883 L 202.31445 221.5 C 202.31445 225.39766 203.60416 228.41531 206.18164 230.55273 C 209.82783 233.8846 216.61609 235.55078 226.54883 235.55078 C 227.49181 235.61365 228.43593 235.64453 229.37891 235.64453 C 235.79118 235.64453 241.03875 234.29306 245.125 231.58984 C 249.21125 228.9495 251.25586 225.58625 251.25586 221.5 L 251.25586 190.28711 C 251.25586 187.5839 251.16125 184.91378 250.97266 182.27344 C 250.84693 179.57023 250.03025 176.86532 248.52148 174.16211 C 246.50979 170.76738 243.2392 167.56246 238.71289 164.54492 L 212.2168 146.43945 C 205.80453 142.16461 201.34079 136.91508 198.82617 130.69141 C 197.38027 127.23381 196.43615 123.93429 195.99609 120.79102 C 195.55604 117.58488 195.33594 114.7236 195.33594 112.20898 z M 363.92773 112.20898 L 385.61719 112.20898 L 385.61719 219.51953 C 385.61719 232.34407 381.53188 241.68086 373.35938 247.52734 C 365.81553 252.80804 355.09638 255.44727 341.20312 255.44727 C 324.1666 255.44727 312.1597 252.36784 305.18164 246.20703 C 298.39218 240.42341 294.99609 231.52682 294.99609 219.51953 L 294.99609 185.66797 L 316.68555 185.66797 L 316.68555 219.04883 C 316.68555 225.58683 318.82281 230.14517 323.09766 232.72266 C 326.36666 234.79721 332.05638 235.83398 340.16602 235.83398 C 347.08121 235.83398 352.518 234.79721 356.47852 232.72266 C 361.44488 229.95658 363.92773 225.39823 363.92773 219.04883 L 363.92773 153.41797 L 336.11133 153.41797 C 332.90519 153.41797 330.01303 154.48562 327.43555 156.62305 C 324.73233 158.8862 323.38086 161.84209 323.38086 165.48828 L 299.80664 165.48828 C 299.80664 161.4649 300.55959 157.28303 302.06836 152.94531 C 303.63999 148.6076 306.1248 144.77327 309.51953 141.44141 C 315.05169 135.78352 322.24926 132.95508 331.11328 132.95508 L 363.92773 132.95508 L 363.92773 112.20898 z M 423.88867 112.20898 L 448.3125 112.20898 C 448.43823 117.04962 449.28774 120.72757 450.85938 123.24219 C 451.99095 126.07113 454.6939 128.99418 458.96875 132.01172 C 463.93512 135.97224 469.93759 139.9649 476.97852 143.98828 C 484.08231 147.9488 489.64654 152.34882 493.66992 157.18945 C 495.87021 160.20699 497.88198 163.41191 499.70508 166.80664 C 501.71677 171.52155 502.72266 177.08578 502.72266 183.49805 L 502.43945 224.80078 C 502.43945 228.44697 501.93749 231.81022 500.93164 234.89062 C 499.92579 237.90816 497.91402 240.92582 494.89648 243.94336 C 491.75321 247.1495 486.8184 249.88528 480.0918 252.14844 C 473.3652 254.34873 464.97253 255.44727 454.91406 255.44727 C 433.85415 255.44727 419.64627 250.98353 412.29102 242.05664 C 408.39336 237.5932 406.44336 232.00004 406.44336 225.27344 L 406.44336 197.54883 L 430.86719 197.54883 L 430.86719 221.5 C 430.86719 225.39766 432.15689 228.41531 434.73438 230.55273 C 438.38057 233.8846 445.16883 235.55078 455.10156 235.55078 C 456.04454 235.61365 456.98866 235.64453 457.93164 235.64453 C 464.34391 235.64453 469.59148 234.29306 473.67773 231.58984 C 477.76399 228.9495 479.80859 225.58625 479.80859 221.5 L 479.80859 190.28711 C 479.80859 187.5839 479.71399 184.91378 479.52539 182.27344 C 479.39966 179.57023 478.58299 176.86532 477.07422 174.16211 C 475.06253 170.76738 471.79193 167.56246 467.26562 164.54492 L 440.76953 146.43945 C 434.35726 142.16461 429.89352 136.91508 427.37891 130.69141 C 425.933 127.23381 424.98889 123.93429 424.54883 120.79102 C 424.10877 117.58488 423.88867 114.7236 423.88867 112.20898 z M 623.59961 112.20898 L 649.81445 112.20898 C 648.74574 115.22652 647.17417 118.58977 645.09961 122.29883 C 643.02505 125.94502 640.3221 129.40287 636.99023 132.67188 C 631.39521 138.20403 625.01431 142.00747 617.84766 144.08203 L 562.40039 159.64062 C 554.16502 161.84091 548.41353 165.04778 545.14453 169.25977 C 542.50418 172.71736 541.18359 177.33748 541.18359 183.12109 C 543.57248 179.09771 546.68474 176.14377 550.51953 174.25781 C 554.29146 172.43472 558.88068 171.52344 564.28711 171.52344 C 571.3909 171.52344 577.58259 173.1259 582.86328 176.33203 C 587.26386 179.16097 590.56338 182.52422 592.76367 186.42188 C 595.15256 182.52422 598.01384 179.41196 601.3457 177.08594 C 606.87786 173.37688 613.91905 171.52344 622.46875 171.52344 C 633.65879 171.52344 642.93186 174.22639 650.28711 179.63281 C 658.58534 185.79362 662.73438 193.526 662.73438 202.83008 L 662.73438 253.65625 L 639.44141 253.65625 L 639.44141 209.42969 C 639.44141 203.33174 637.86983 198.93173 634.72656 196.22852 C 632.02335 193.58817 627.81255 192.26758 622.0918 192.26758 C 617.37689 192.26758 613.38424 193.39895 610.11523 195.66211 C 606.34331 198.74251 604.45703 203.08076 604.45703 208.67578 L 604.45703 222.25586 L 581.44922 222.25586 L 581.44922 209.42969 C 581.44922 203.70894 580.00314 199.40353 577.11133 196.51172 C 573.84233 193.68278 569.44036 192.26758 563.9082 192.26758 C 558.18745 192.26758 553.81832 193.68278 550.80078 196.51172 C 547.59465 199.52926 545.99219 203.83467 545.99219 209.42969 L 545.99219 253.65625 L 523.07812 253.65625 L 523.07812 182.83789 C 523.07812 171.52212 525.0899 162.87846 529.11328 156.90625 C 533.51386 150.30538 542.34673 144.99409 555.61133 140.9707 L 610.11523 124.8457 C 614.51581 123.46266 617.65896 121.76365 619.54492 119.75195 C 621.24229 118.05459 622.59376 115.54085 623.59961 112.20898 z M 727.03125 131.25781 C 721.3105 131.25781 717.03597 132.60929 714.20703 135.3125 C 711.0009 138.33004 709.39844 142.60456 709.39844 148.13672 L 709.39844 217.35156 C 709.39844 222.94658 710.81363 227.15934 713.64258 229.98828 C 716.53439 233.19442 720.74519 234.79688 726.27734 234.79688 C 732.68962 234.79688 737.24796 233.47628 739.95117 230.83594 C 742.96871 227.75553 744.47656 223.26091 744.47656 217.35156 L 744.47656 148.13672 C 744.47656 142.60456 743.03048 138.45553 740.13867 135.68945 C 737.43546 132.73478 733.06633 131.25781 727.03125 131.25781 z M 355.35742 306.625 C 381.5024 306.625 396.79497 322.16416 405.42773 344.60938 L 382.24219 353.24219 C 377.06251 335.97663 368.18326 329.07031 355.35742 329.07031 C 336.36533 329.07031 322.55273 348.06265 322.55273 379.14062 C 322.55273 410.2186 336.36533 429.21094 355.35742 429.21094 C 363.99019 429.21094 369.16994 427.48434 374.34961 422.30469 C 381.25582 415.39846 382.98242 411.94524 382.98242 399.85938 L 358.81055 399.85938 L 358.81055 379.14062 L 408.88086 379.14062 L 408.88086 448.20312 L 388.16211 448.20312 L 382.98242 436.11719 C 377.06281 444.50331 368.67656 451.65625 355.35742 451.65625 C 317.37323 451.65625 296.90234 419.09804 296.90234 379.14062 C 296.90234 339.18321 317.37323 306.625 355.35742 306.625 z M 629.88086 306.625 C 667.86505 306.625 686.11719 339.18321 686.11719 379.14062 C 686.11719 419.09804 667.86505 451.65625 629.88086 451.65625 C 591.89667 451.65625 573.64453 419.09804 573.64453 379.14062 C 573.64453 339.18321 591.89667 306.625 629.88086 306.625 z M 930.30273 306.625 C 956.44771 306.625 971.74028 322.16416 980.37305 344.60938 L 957.1875 353.24219 C 952.00785 335.97663 943.12857 329.07031 930.30273 329.07031 C 911.31064 329.07031 897.49805 348.06265 897.49805 379.14062 C 897.49805 410.2186 911.31064 429.21094 930.30273 429.21094 C 938.93552 429.21094 944.11527 427.48434 949.29492 422.30469 C 956.20113 415.39846 957.92773 411.94524 957.92773 399.85938 L 933.75586 399.85938 L 933.75586 379.14062 L 983.82617 379.14062 L 983.82617 448.20312 L 963.10742 448.20312 L 957.92773 436.11719 C 952.00813 444.50331 943.62187 451.65625 930.30273 451.65625 C 892.31854 451.65625 871.8457 419.09804 871.8457 379.14062 C 871.8457 339.18321 892.31854 306.625 930.30273 306.625 z M 446.86523 310.07812 L 533.19336 310.07812 L 533.19336 332.52344 L 471.03711 332.52344 L 471.03711 365.32812 L 521.10742 365.32812 L 521.10742 386.04688 L 471.03711 386.04688 L 471.03711 427.48438 L 534.91992 427.48438 L 534.91992 448.20312 L 446.86523 448.20312 L 446.86523 310.07812 z M 726.56836 310.07812 L 773.18555 310.07812 C 807.71662 310.07812 816.34961 334.25006 816.34961 348.0625 C 816.34961 367.0546 804.26361 379.14066 790.45117 384.32031 C 812.89638 389.49999 819.8028 441.2969 835.3418 448.20312 L 805.99023 448.20312 C 800.56393 441.05025 796.12385 426.49853 789.71094 414.16602 C 783.54466 402.57343 780.09173 392.95312 764.55273 392.95312 L 750.74023 392.95312 L 750.74023 448.20312 L 726.56836 448.20312 L 726.56836 310.07812 z M 1021.8086 310.07812 L 1045.9805 310.07812 L 1045.9805 448.20312 L 1021.8086 448.20312 L 1021.8086 310.07812 z M 1130.582 310.07812 L 1158.207 310.07812 L 1203.0977 448.20312 L 1177.1992 448.20312 L 1168.5664 420.57812 L 1120.2227 420.57812 L 1111.5898 448.20312 L 1085.6914 448.20312 L 1130.582 310.07812 z M 629.88086 329.07031 C 610.88876 329.07031 597.07617 348.06265 597.07617 379.14062 C 597.07617 410.2186 610.88876 429.21094 629.88086 429.21094 C 648.87296 429.21094 662.68555 410.2186 662.68555 379.14062 C 662.68555 348.06265 648.87296 329.07031 629.88086 329.07031 z M 750.74023 330.79688 L 750.74023 372.23438 L 766.2793 372.23438 C 780.09172 372.23438 792.17773 366.31466 792.17773 351.51562 C 792.17773 336.71659 780.09172 330.79688 766.2793 330.79688 L 750.74023 330.79688 z M 1144.3945 341.15625 L 1127.1289 399.85938 L 1161.6602 399.85938 L 1144.3945 341.15625 z M 156.875 503.4375 L 1343.125 503.4375 L 1343.125 1032.9062 L 156.875 1032.9062 L 156.875 503.4375 z M 156.875 1055.9375 L 1343.125 1055.9375 L 1343.125 1585.4062 L 156.875 1585.4062 L 156.875 1055.9375 z M 156.875 1608.4375 L 1343.125 1608.4375 L 1343.125 2137.9062 L 156.875 2137.9062 L 156.875 1608.4375 z "
       transform="translate(0,-1197.6378)" />
    <path
       inkscape:connector-curvature="0"
       style="opacity:1;color:#000000;fill:#ff0000;fill-opacity:1;fill-rule:nonzero;stroke:none;stroke-width:1px;marker:none;visibility:visible;display:inline;overflow:visible;enable-background:accumulate"
       d="m 373.59382,-596.36155 c -91.3426,0 -165.3907,74.72423 -165.3907,166.90103 0,92.17679 74.0481,166.90103 165.3907,166.90103 91.3428,0 165.3906,-74.72424 165.3906,-166.90103 0,-92.1768 -74.0478,-166.90103 -165.3906,-166.90103 z m 0,28.21845 c 75.8988,0 137.4275,62.09065 137.4275,138.68258 0,76.59191 -61.5287,138.68256 -137.4275,138.68256 -75.8988,0 -137.4275,-62.09065 -137.4275,-138.68256 0,-76.59193 61.5287,-138.68258 137.4275,-138.68258 z"
       id="path4775-9" />
    <g
       transform="matrix(0.57031252,0,0,0.57552085,202.50002,-862.46079)"
       style="font-size:380.18783568999999000px;font-style:normal;font-variant:normal;font-weight:normal;font-stretch:normal;line-height:125%;letter-spacing:-21.29032134999999900px;word-spacing:0px;opacity:1;fill:#000000;fill-opacity:1;stroke:none;font-family:Arial;-inkscape-font-specification:Arial"
       id="text9499">
      <path
         inkscape:connector-curvature="0"
         d="m 222.80979,642.48951 c -27.7772,1.14077 -48.06944,13.02147 -60.8768,35.64215 -12.80744,22.62104 -19.12798,49.13877 -18.96162,79.55328 0.27719,33.4324 7.04127,59.0472 20.29226,76.84447 13.2509,17.79732 31.32541,26.77914 54.2236,26.94547 17.90807,-0.55443 33.32131,-8.09472 46.23974,-22.62089 12.91814,-14.52613 19.68222,-32.71153 20.29227,-54.55625 -0.39443,-16.69276 -4.04137,-29.60488 -10.94082,-38.73642 -6.89977,-9.13131 -14.68648,-15.4536 -23.36014,-18.9669 -8.67393,-3.51304 -15.86923,-5.18866 -21.58593,-5.02686 -9.43339,0.28527 -18.51025,2.75645 -27.23061,7.41356 -8.72052,4.65736 -16.37169,9.78983 -22.95354,15.39741 -0.26759,-0.88697 0.52093,-7.09662 2.36558,-18.62896 1.84452,-11.53207 6.35039,-23.06428 13.51761,-34.59665 7.16707,-11.53203 18.60071,-17.74168 34.30096,-18.62896 12.36374,0.45957 22.89797,2.29711 31.60271,5.51264 8.70445,3.2159 13.2508,5.05345 13.63906,5.51266 l -5.32256,-32.31555 c -0.55458,-0.36413 -5.43359,-1.8215 -14.63705,-4.37211 -9.20373,-2.55018 -19.40529,-4.00754 -30.60472,-4.37209 z m 0,109.87287 c 5.76599,10e-5 11.53209,2.66138 17.29832,7.98384 5.76598,5.32265 8.8708,13.30649 9.31449,23.95152 -0.0635,9.92442 -3.26338,19.34978 -9.59963,28.2761 -6.3365,8.92642 -15.4292,13.69454 -27.27812,14.30439 -8.0778,-0.59136 -14.60661,-4.73113 -19.58646,-12.41932 -4.98001,-7.68809 -8.60817,-15.37623 -10.8845,-23.06443 -2.27647,-7.68807 -3.39824,-11.82783 -3.36532,-12.4193 0.67318,-1.10878 5.69476,-5.54424 15.06476,-13.3064 9.36984,-7.76198 19.04865,-12.19744 29.03646,-13.3064 z"
         style="fill:#000000;font-family:Russian Road Sign;-inkscape-font-specification:Russian Road Sign"
         id="path12011" />
      <path
         inkscape:connector-curvature="0"
         d="m 385.42358,643.24987 c -21.62298,0.55465 -38.92129,10.75621 -51.89498,30.60472 -12.97377,19.84888 -19.62697,46.01812 -19.9596,78.50779 0.33263,32.48987 6.98583,58.6591 19.9596,78.50777 12.97369,19.84872 30.272,30.05029 51.89498,30.60473 21.62278,-0.55443 38.92109,-10.756 51.89496,-30.60473 12.97359,-19.84868 19.62678,-46.01791 19.95961,-78.50777 -0.33283,-30.9927 -6.98602,-56.73423 -19.95961,-77.22467 -12.97387,-20.49007 -30.27218,-31.11934 -51.89496,-31.88784 z m 0,33.07592 c 10.42324,-0.15823 18.75557,5.86133 24.99703,18.05868 6.24121,12.19768 9.44108,31.52363 9.59962,57.97791 -0.15855,26.45447 -3.35842,45.78042 -9.59963,57.97789 -6.24145,12.19756 -14.57378,18.21712 -24.99702,18.05869 -10.42344,0.15844 -18.75578,-5.86112 -24.99704,-18.05869 -6.24139,-12.19748 -9.44126,-31.52342 -9.59961,-57.97789 0.15835,-26.45427 3.35822,-45.78022 9.59962,-57.97791 6.24126,-12.19736 14.5736,-18.21692 24.99703,-18.05868 z"
         style="fill:#000000;font-family:Russian Road Sign;-inkscape-font-specification:Russian Road Sign"
         id="path12013-5" />
    </g>
    <path
       inkscape:connector-curvature="0"
       style="opacity:1;color:#000000;fill:#ff0000;fill-opacity:1;fill-rule:nonzero;stroke:none;stroke-width:1px;marker:none;visibility:visible;display:inline;overflow:visible;enable-background:accumulate"
       d="m 373.59382,-43.86158 c -91.3426,0 -165.3907,74.724238 -165.3907,166.90105 0,92.17679 74.0481,166.90104 165.3907,166.90104 91.3428,0 165.3906,-74.72425 165.3906,-166.90104 0,-92.176812 -74.0478,-166.90105 -165.3906,-166.90105 z m 0,28.218472 c 75.8988,0 137.4275,62.090646 137.4275,138.682578 0,76.59191 -61.5287,138.68256 -137.4275,138.68256 -75.8988,0 -137.4275,-62.09065 -137.4275,-138.68256 0,-76.591932 61.5287,-138.682578 137.4275,-138.682578 z"
       id="path4775-9-1" />
    <g
       transform="matrix(0.57031252,0,0,0.57552085,202.50002,-309.96054)"
       style="font-size:380.18783568999999000px;font-style:normal;font-variant:normal;font-weight:normal;font-stretch:normal;line-height:125%;letter-spacing:-21.29032134999999900px;word-spacing:0px;opacity:1;fill:#000000;fill-opacity:1;stroke:none;font-family:Arial;-inkscape-font-specification:Arial"
       id="text9499-9">
      <path
         inkscape:connector-curvature="0"
         d="m 198.88802,862.61543 c 30.3274,-1.04551 52.17205,-13.21135 65.53403,-36.49756 13.36169,-23.28616 19.904,-51.41966 19.62695,-84.40062 -0.38826,-33.30546 -7.59589,-58.41335 -21.6229,-75.32375 -14.0273,-16.91 -32.54536,-25.3849 -55.55423,-25.42473 -17.79739,0.6497 -32.76708,8.57017 -44.90912,23.76143 -12.14212,15.19165 -18.46266,33.75724 -18.96162,55.69681 1.21973,24.67239 8.0947,41.19449 20.62493,49.56634 12.53013,8.37203 23.39702,12.25306 32.60068,11.64311 9.42528,-0.2217 18.51798,-2.43943 27.27813,-6.65321 8.75994,-4.2136 16.522,-9.09261 23.2862,-14.63703 0.26272,0.86841 -0.55866,6.94663 -2.46414,18.23469 -1.90574,11.28821 -6.47262,22.57635 -13.70067,33.86444 -7.22828,11.28819 -18.69477,17.36642 -34.39952,18.23471 -12.42729,-0.52272 -23.21498,-2.61373 -32.36307,-6.27302 -9.14819,-3.65923 -13.94799,-5.75023 -14.39943,-6.27302 l 4.18201,32.69574 c 0.5544,0.49107 5.43341,2.45535 14.63704,5.89283 9.20354,3.43748 19.4051,5.40176 30.60473,5.89284 z m 5.32257,-112.91434 c -5.7662,1.1e-4 -11.5323,-2.66116 -17.29833,-7.98384 -5.76617,-5.32244 -8.871,-13.30627 -9.31448,-23.95152 -0.0317,-9.90045 2.78795,-19.27828 8.45907,-28.13354 5.67099,-8.85492 14.3835,-13.67056 26.13758,-14.44695 8.40381,0.27241 14.95609,3.57201 19.65686,9.89883 4.70055,6.32716 8.07056,13.28778 10.11005,20.8819 2.03925,7.59442 3.26898,13.42858 3.68919,17.5025 -0.0635,1.09316 -3.64355,5.46525 -10.74018,13.11631 -7.09686,7.65129 -17.3301,12.0234 -30.69976,13.11631 z"
         style="fill:#000000;font-family:Russian Road Sign;-inkscape-font-specification:Russian Road Sign"
         id="path11930" />
      <path
         inkscape:connector-curvature="0"
         d="m 385.1444,643.24987 c -21.62298,0.55465 -38.92129,10.75621 -51.89497,30.60472 -12.97378,19.84888 -19.62697,46.01812 -19.9596,78.50779 0.33263,32.48987 6.98582,58.6591 19.9596,78.50777 12.97368,19.84872 30.27199,30.05029 51.89497,30.60473 21.62279,-0.55443 38.92109,-10.756 51.89497,-30.60473 12.97358,-19.84868 19.62678,-46.01791 19.95961,-78.50777 -0.33283,-30.9927 -6.98603,-56.73423 -19.95961,-77.22467 -12.97388,-20.49007 -30.27218,-31.11934 -51.89497,-31.88784 z m 0,33.07592 c 10.42324,-0.15823 18.75558,5.86133 24.99703,18.05868 6.24121,12.19768 9.44108,31.52363 9.59962,57.97791 -0.15854,26.45447 -3.35842,45.78042 -9.59962,57.97789 -6.24145,12.19756 -14.57379,18.21712 -24.99703,18.05869 -10.42344,0.15844 -18.75577,-5.86112 -24.99703,-18.05869 -6.2414,-12.19748 -9.44127,-31.52342 -9.59961,-57.97789 0.15834,-26.45427 3.35821,-45.78022 9.59962,-57.97791 6.24126,-12.19736 14.57359,-18.21692 24.99702,-18.05868 z"
         style="fill:#000000;font-family:Russian Road Sign;-inkscape-font-specification:Russian Road Sign"
         id="path11932" />
    </g>
    <path
       inkscape:connector-curvature="0"
       style="opacity:1;color:#000000;fill:#ff0000;fill-opacity:1;fill-rule:nonzero;stroke:none;stroke-width:1px;marker:none;visibility:visible;display:inline;overflow:visible;enable-background:accumulate"
       d="m 373.59382,508.63842 c -91.3426,0 -165.3907,74.72425 -165.3907,166.90105 0,92.17703 74.0481,166.90104 165.3907,166.90104 91.3428,0 165.3906,-74.72401 165.3906,-166.90104 0,-92.1768 -74.0478,-166.90105 -165.3906,-166.90105 z m 0,28.21848 c 75.8988,0 137.4275,62.09065 137.4275,138.68257 0,76.59191 -61.5287,138.68256 -137.4275,138.68256 -75.8988,0 -137.4275,-62.09065 -137.4275,-138.68256 0,-76.59192 61.5287,-138.68257 137.4275,-138.68257 z"
       id="path4775-9-8" />
    <g
       transform="matrix(0.57031252,0,0,0.57552085,202.50002,242.53946)"
       style="font-size:328.34405518000000000px;font-style:normal;font-variant:normal;font-weight:normal;font-stretch:normal;line-height:125%;letter-spacing:-21.29032134999999900px;word-spacing:0px;opacity:1;fill:#000000;fill-opacity:1;stroke:none;font-family:Arial;-inkscape-font-specification:Arial"
       id="text10566">
      <path
         inkscape:connector-curvature="0"
         d="m 144.88331,703.11136 10.83522,14.11861 24.62549,-15.43197 0,142.49949 32.1773,0 0,-183.87031 -27.58055,0 z"
         style="fill:#000000;font-family:Russian Road Sign;-inkscape-font-specification:Russian Road Sign"
         id="path11872" />
      <path
         inkscape:connector-curvature="0"
         d="m 229.407,703.11136 10.83521,14.11861 24.62549,-15.43197 0,142.49949 32.1773,0 0,-183.87031 -27.58055,0 z"
         style="fill:#000000;font-family:Russian Road Sign;-inkscape-font-specification:Russian Road Sign"
         id="path11874" />
      <path
         inkscape:connector-curvature="0"
         d="m 393.06058,658.1288 c -18.6744,0.47902 -33.61385,9.28946 -44.8184,26.43135 -11.20462,17.14222 -16.95056,39.74293 -17.23783,67.80218 0.28727,28.05944 6.03321,50.66014 17.23783,67.80217 11.20455,17.14208 26.144,25.95253 44.8184,26.43136 18.67422,-0.47882 33.61366,-9.28927 44.81838,-26.43136 11.20446,-17.14204 16.9504,-39.74274 17.23784,-67.80217 -0.28744,-26.76641 -6.03338,-48.99773 -17.23784,-66.69403 -11.20472,-17.69597 -26.14416,-26.8758 -44.81838,-27.5395 z m 0,28.56557 c 9.00189,-0.13665 16.19799,5.06206 21.58834,15.59613 5.39014,10.53437 8.15366,27.22496 8.29058,50.07183 -0.13693,22.84705 -2.90045,39.53764 -8.29059,50.07182 -5.39034,10.53426 -12.58644,15.73298 -21.58833,15.59615 -9.00207,0.13683 -16.19818,-5.06188 -21.58835,-15.59615 -5.3903,-10.53418 -8.15382,-27.22477 -8.29058,-50.07182 0.13676,-22.84686 2.90028,-39.53746 8.29058,-50.07183 5.39018,-10.53408 12.58629,-15.73279 21.58835,-15.59613 z"
         style="fill:#000000;font-family:Russian Road Sign;-inkscape-font-specification:Russian Road Sign"
         id="path11876" />
    </g>
    <path
       inkscape:connector-curvature="0"
       id="path8308-9"
       d="m 590.31252,-447.54822 0,98.66061 707.18748,0 0,-180.87791 -47.5992,-16.44355 -47.5992,16.44355 0,115.10416 -13.5996,0 0,-32.88686 -67.9989,-41.10877 -67.9988,41.10877 0,32.88686 -13.5996,0 0,-16.44355 -33.9996,-32.88686 -40.79918,0 0,-8.22167 -40.7992,0 0,8.22167 -40.7993,0 -33.9995,32.88686 0,16.44355 -13.5997,0 0,-24.66521 -54.3991,-139.76933 -54.3989,139.76933 0,24.66521 -13.5999,0 0,-32.88686 -61.1989,-24.66522 z"
       style="opacity:1;fill:#000000;fill-opacity:1;stroke:none"
       sodipodi:nodetypes="ccccccccccccccccccccccccccccccc" />
    <path
       inkscape:connector-curvature="0"
       style="opacity:1;fill:#000000;fill-opacity:1;stroke:none"
       d="m 780.72572,-26.595959 -54.3936,139.779739 0,24.67535 -13.6161,0 0,-32.87652 -61.2375,-24.675567 -61.166,24.675567 0,98.62977 175.1574,0 69.6493,-70.28536 0,-20.14324 -54.3935,-139.779739 z m 469.15318,32.8767465 -47.5499,16.4741675 0,115.104175 -13.6161,0 0,-32.87652 -68.0098,-41.149739 -68.0097,41.149739 0,32.87652 -13.6163,0 0,-16.47417 -34.0048,-32.876748 -9.41018,0 -113.9913,115.104168 415.82918,0 0,-180.857425 -47.6211,-16.4741675 z"
       id="path13762" />
    <path
       inkscape:connector-curvature="0"
       style="opacity:1;color:#000000;fill:#00a500;fill-opacity:1;fill-rule:nonzero;stroke:none;stroke-width:3.54299997999999980;marker:none;visibility:visible;display:inline;overflow:visible;enable-background:accumulate"
       d="m 789.56562,454.53947 c -8.0043,0 -14.4718,6.52663 -14.4718,14.60395 l 0,408.18815 c 0,8.07709 6.4675,14.60373 14.4718,14.60373 l 260.06218,0 c 8.0043,0 14.4004,-6.52664 14.4004,-14.60373 l 0,-408.18815 c 0,-8.07732 -6.3961,-14.60395 -14.4004,-14.60395 l -260.06218,0 z m 114.0622,11.51041 13.2598,0 -4.4199,100.42839 -30.8681,0 22.0282,-100.42839 z m 22.0996,0 13.1886,0 22.0282,100.42839 -30.868,0 -4.3488,-100.42839 z m -139.2274,113.80925 269.54388,0 0,17.76932 -37.7832,0 0,31.14995 -17.6083,0 -8.83988,-31.14995 -141.0811,0 -8.7685,31.14995 -17.6797,0 0,-31.14995 -37.7832,0 0,-17.76932 z m 81.911,31.07812 44.0567,0 -8.8399,269.48763 -105.7927,0 70.5759,-269.48763 z m 61.6652,0 44.1278,0 70.50498,269.48763 -105.79298,0 -8.8398,-269.48763 z"
       id="rect13824" />
    <path
       inkscape:connector-curvature="0"
       id="path14367"
       d="m 1039.7188,-56.523043 -349.03128,352.218763 83.8807,0 349.03118,-352.218763 z"
       style="opacity:1;fill:#ff0000;fill-opacity:1;stroke:none"
       sodipodi:nodetypes="ccccc" />
    <text
       xml:space="preserve"
       transform="translate(0,-1197.6378)"
       id="text26617"
       style="fill:#000030;-inkscape-font-specification:'Russian Road Sign Bold';font-family:'Russian Road Sign';font-size:36px;fill-rule:evenodd;line-height:1.1;stroke-linecap:round;stroke-width:2;font-weight:bold;paint-order:stroke fill markers;stroke-linejoin:round;text-align:center;white-space:pre;shape-inside:url(#rect26619)" />
  </g>
</svg>
