<?xml version="1.0" encoding="UTF-8" standalone="no"?>
<!-- Created with Inkscape (http://www.inkscape.org/) -->

<svg
   xmlns:svg="http://www.w3.org/2000/svg"
   xmlns="http://www.w3.org/2000/svg"
   version="1.1"
   width="101.952"
   height="68.347"
   viewBox="0 0 101.952 68.347"
   id="Calque_1"
   xml:space="preserve"><defs
   id="defs25" />
<path
   d="m 8.412,0 h 85.724 c 4.296,0 7.816,3.531 7.816,7.841 v 52.666 c 0,4.31 -3.521,7.84 -7.816,7.84 H 7.814 C 3.52,68.347 0,64.816 0,60.507 V 7.421 C 0,3.112 4.117,0 8.412,0 z"
   id="path3"
   style="fill:#0071b3" />
<path
   d="m 8.412,0 h 85.724 c 4.296,0 7.816,3.531 7.816,7.841 v 52.666 c 0,4.31 -3.521,7.84 -7.816,7.84 H 7.814 C 3.52,68.347 0,64.816 0,60.507 V 7.421 C 0,3.112 4.117,0 8.412,0 z"
   id="path5"
   style="fill:none;stroke:#0071b3;stroke-width:0;stroke-miterlimit:3.86299992" />
<path
   d="m 9.127,2.754 h 83.697 c 4.116,0 6.383,2.273 6.383,6.224 v 50.631 c 0,3.951 -2.565,5.926 -6.681,5.926 H 9.187 c -4.116,0 -6.383,-2.394 -6.383,-6.344 V 8.26 c 0,-3.891 2.267,-5.506 6.323,-5.506 z"
   id="path7"
   style="fill:#ffffff" />
<path
   d="m 9.127,2.754 h 83.697 c 4.116,0 6.383,2.273 6.383,6.224 v 50.631 c 0,3.951 -2.565,5.926 -6.681,5.926 H 9.187 c -4.116,0 -6.383,-2.394 -6.383,-6.344 V 8.26 c 0,-3.891 2.267,-5.506 6.323,-5.506 z"
   id="path9"
   style="fill:none;stroke:#ffffff;stroke-width:0;stroke-miterlimit:3.86299992" />
<path
   d="m 9.962,5.327 h 81.966 c 3.878,0 4.713,1.257 4.713,4.908 v 48.236 c 0,3.651 -1.789,4.549 -5.667,4.549 H 10.977 C 7.099,63.02 5.31,61.823 5.31,58.232 V 9.097 c 0,-3.591 0.835,-3.77 4.652,-3.77 z"
   id="path11"
   style="fill:#0071b3" />
<path
   d="m 9.962,5.327 h 81.966 c 3.878,0 4.713,1.257 4.713,4.908 v 48.236 c 0,3.651 -1.789,4.549 -5.667,4.549 H 10.977 C 7.099,63.02 5.31,61.823 5.31,58.232 V 9.097 c 0,-3.591 0.835,-3.77 4.652,-3.77 z"
   id="path13"
   style="fill:none;stroke:#0071b3;stroke-width:0;stroke-miterlimit:3.86299992" />
<polygon
   points="37.463,24.538 37.463,54.821 33.705,54.821 25.592,33.994 25.592,55.061 22.073,55.061 22.073,24.538 26.606,24.538 33.765,43.869 33.765,24.538 "
   transform="translate(7.5297542,0)"
   id="polygon15"
   style="fill:#ffffff" />



<g
   transform="translate(4.6336949,0)"
   id="text2835"
   style="font-size:62px;font-style:normal;font-variant:normal;font-weight:normal;font-stretch:normal;text-align:start;line-height:100%;writing-mode:lr-tb;text-anchor:start;fill:#ffffff;fill-opacity:1;stroke:none;font-family:Drogowskaz;-inkscape-font-specification:Drogowskaz"><g
     id="text2825"
     style="font-size:12px;line-height:100%;fill:#ffffff;font-family:Drogowskaz;-inkscape-font-specification:Drogowskaz"><path
       d="m 56.928745,30.943638 c 2.147123,-1.151016 4.150376,-1.726537 6.009766,-1.726563 2.766908,2.6e-5 5.179666,0.874375 7.238281,2.623047 2.390599,2.03648 3.58591,4.736998 3.585938,8.101563 l 0,4.050781 c -2.8e-5,2.656259 -0.841173,5.124355 -2.523438,7.404297 -2.2357,3.054688 -5.279316,4.58203 -9.130859,4.582031 -4.050793,-10e-7 -7.216155,-1.604817 -9.496094,-4.814453 -1.438807,-2.014317 -2.158207,-4.404939 -2.158203,-7.171875 l 0,-22.84375 c -4e-6,-2.921838 0.874344,-5.434205 2.623047,-7.537109 1.128898,-1.372353 2.523428,-2.434852 4.183594,-3.1875 1.571602,-0.7304235 3.209621,-1.0956575 4.914062,-1.0957035 2.789044,4.6e-5 5.268208,0.8854615 7.4375,2.6562495 2.124975,1.770875 3.442031,3.906941 3.951172,6.408204 0.132785,0.619828 0.199191,1.538446 0.199219,2.755859 l 0,0.730469 -6.47461,0 0,-1.427735 c -2.1e-5,-1.41663 -0.464864,-2.634077 -1.394531,-3.652343 -1.018248,-1.106732 -2.246762,-1.660116 -3.685547,-1.660157 -1.992201,4.1e-5 -3.497408,0.951862 -4.515625,2.855469 -0.509125,0.929724 -0.763682,1.981155 -0.763672,3.154297 z m 10.359375,14.177734 0,-5.179687 c -2.1e-5,-1.460921 -0.442729,-2.700503 -1.328125,-3.71875 -1.018248,-1.195292 -2.291033,-1.792948 -3.818359,-1.792969 -1.859389,2.1e-5 -3.29819,0.807963 -4.316406,2.423828 -0.597667,0.951841 -0.896495,1.981136 -0.896485,3.087891 l 0,5.179687 c -10e-6,1.128916 0.365224,2.169279 1.095703,3.121094 0.973946,1.261725 2.30207,1.892583 3.984375,1.892578 1.815087,5e-6 3.24282,-0.686192 4.283204,-2.058594 0.664041,-0.863273 0.996072,-1.848298 0.996093,-2.955078 z"
       id="path2849"
       style="font-size:68px;fill:#ffffff;font-family:Snv Becker Reg Cond;-inkscape-font-specification:Snv Becker Reg Cond" /></g></g></svg>