<?xml version="1.0" encoding="UTF-8" standalone="no"?>
<svg
   inkscape:version="1.1.1 (3bf5ae0d25, 2021-09-20)"
   sodipodi:docname="Logo_de_YPF.svg"
   viewBox="0 0 500 200"
   height="200"
   width="500"
   id="svg10"
   version="1.1"
   xmlns:inkscape="http://www.inkscape.org/namespaces/inkscape"
   xmlns:sodipodi="http://sodipodi.sourceforge.net/DTD/sodipodi-0.dtd"
   xmlns="http://www.w3.org/2000/svg"
   xmlns:svg="http://www.w3.org/2000/svg"
   xmlns:rdf="http://www.w3.org/1999/02/22-rdf-syntax-ns#"
   xmlns:cc="http://creativecommons.org/ns#"
   xmlns:dc="http://purl.org/dc/elements/1.1/">
  <metadata
     id="metadata16">
    <rdf:RDF>
      <cc:Work
         rdf:about="">
        <dc:format>image/svg+xml</dc:format>
        <dc:type
           rdf:resource="http://purl.org/dc/dcmitype/StillImage" />
        <dc:title />
      </cc:Work>
    </rdf:RDF>
  </metadata>
  <defs
     id="defs14" />
  <sodipodi:namedview
     inkscape:current-layer="g1244"
     inkscape:window-maximized="1"
     inkscape:window-y="-8"
     inkscape:window-x="-8"
     inkscape:cy="59.778475"
     inkscape:cx="82.431371"
     inkscape:zoom="0.79460039"
     showgrid="false"
     id="namedview12"
     inkscape:window-height="705"
     inkscape:window-width="1366"
     inkscape:pageshadow="2"
     inkscape:pageopacity="0"
     guidetolerance="10"
     gridtolerance="10"
     objecttolerance="10"
     borderopacity="1"
     bordercolor="#666666"
     pagecolor="#ffffff"
     inkscape:pagecheckerboard="0" />
  <g
     id="g18"
     inkscape:label="Image"
     inkscape:groupmode="layer"
     transform="translate(0,143.36)">
    <g
       id="g1244"
       transform="translate(0,-143.36)">
      <g
         id="g1864">
        <path
           style="fill:#005090;stroke-width:0.443274"
           d="M 0,0 H 500 V 200 H 0 Z"
           id="path1246"
           sodipodi:nodetypes="ccccc" />
        <path
           style="fill:#ffffff;fill-opacity:1;stroke-width:0.444361"
           d="m 98.372389,147.42267 1.187083,-2.57732 0.129268,-17.57722 0.129253,-17.57722 L 79.362899,83.772051 C 59.991723,59.22663 55.678344,54.197687 51.697746,51.517416 50.763987,50.888682 50,50.300219 50,50.209711 c 0,-0.0905 10.814278,-0.164548 24.031727,-0.164548 h 24.031728 l 0.489699,1.45674 c 1.087085,3.233825 4.961696,9.893818 13.341126,22.93181 4.84581,7.539861 8.90968,13.708017 9.03082,13.707013 0.35161,-0.003 18.11778,-27.622963 19.86523,-30.883322 0.87081,-1.624742 1.96112,-3.911407 2.42291,-5.081478 l 0.83962,-2.127402 24.20519,-0.0018 24.2052,-0.0018 -2.17876,1.404446 c -3.94066,2.540179 -8.57222,7.936554 -28.50979,33.217531 l -19.70422,24.985349 v 16.73081 c 0,17.38278 0.20885,19.70862 2.03009,22.60843 l 0.63339,1.00852 H 120.95964 97.185309 Z m 111.894271,0 1.18709,-2.57732 V 100.24668 55.64801 l -1.21145,-2.631473 c -0.66631,-1.447314 -1.21146,-2.707955 -1.21146,-2.801424 0,-0.444988 81.36364,-0.132452 85.5554,0.32864 16.43947,1.808307 27.43438,10.065176 31.02158,23.296292 1.22539,4.519811 1.11861,13.533127 -0.21197,17.890305 -1.57186,5.147331 -3.47375,8.39425 -7.1138,12.14477 -4.8915,5.03993 -10.53032,7.95668 -19.16311,9.91236 -3.56326,0.80721 -6.07676,0.92128 -24.82084,1.12643 l -20.8561,0.22828 0.17388,14.17924 c 0.18126,14.77948 0.20162,14.95486 2.31082,19.89414 0.31665,0.74151 -0.9545,0.7844 -23.25609,0.7844 h -23.59103 z m 65.03021,-52.07522 c 3.98999,-1.323684 7.68155,-4.879843 8.64041,-8.323492 1.33964,-4.811156 0.28021,-10.317652 -2.57323,-13.374763 -3.50407,-3.754155 -7.50356,-4.762918 -18.91913,-4.771838 l -8.48015,-0.0066 V 82.811099 96.75145 l 9.14095,-0.196047 c 7.96422,-0.170804 9.53363,-0.326308 12.19115,-1.207941 z m 71.46208,52.52344 c 0.56624,-1.171 1.22976,-3.21555 1.47448,-4.54347 0.27903,-1.51392 0.44498,-17.66462 0.44498,-43.30485 0,-25.640251 -0.16595,-41.790944 -0.44498,-43.304868 -0.24472,-1.327907 -0.90824,-3.372462 -1.47448,-4.543457 l -1.02951,-2.129082 H 397.86471 450 v 11.653922 c 0,6.409659 -0.0565,11.653924 -0.12541,11.653924 -0.069,0 -1.25393,-0.403584 -2.63326,-0.896855 -4.41904,-1.580313 -7.96888,-1.774568 -32.59375,-1.783634 l -24.11895,-0.0088 V 82.798238 94.93275 l 22.5771,-0.195978 c 20.99922,-0.182282 24.27742,-0.356408 27.7533,-1.474163 0.72103,-0.231865 0.77093,0.525842 0.77093,11.708931 v 11.95684 l -1.21146,-0.31452 c -5.70805,-1.4819 -7.1269,-1.56008 -28.45056,-1.5678 l -21.51226,-0.008 0.15241,14.67946 c 0.15225,14.66362 0.15365,14.68249 1.30686,17.48089 l 1.15444,2.80143 h -23.66998 -23.66997 z"
           id="path1248" />
      </g>
    </g>
  </g>
</svg>
