<?xml version="1.0" encoding="UTF-8" standalone="no"?>
<!-- Generator: Adobe Illustrator 15.0.0, SVG Export Plug-In . SVG Version: 6.00 Build 0)  -->

<svg
   xmlns:i="&amp;ns_ai;"
   xmlns:dc="http://purl.org/dc/elements/1.1/"
   xmlns:cc="http://creativecommons.org/ns#"
   xmlns:rdf="http://www.w3.org/1999/02/22-rdf-syntax-ns#"
   xmlns:svg="http://www.w3.org/2000/svg"
   xmlns="http://www.w3.org/2000/svg"
   xmlns:sodipodi="http://sodipodi.sourceforge.net/DTD/sodipodi-0.dtd"
   xmlns:inkscape="http://www.inkscape.org/namespaces/inkscape"
   version="1.1"
   id="Vrstva_1"
   x="0px"
   y="0px"
   width="1200px"
   height="850px"
   viewBox="0 0 1200 850"
   enable-background="new 0 0 1200 850"
   xml:space="preserve"
   inkscape:version="0.48.4 r9939"
   sodipodi:docname="S16-AT.svg"><metadata
     id="metadata3025"><rdf:RDF><cc:Work
         rdf:about=""><dc:format>image/svg+xml</dc:format><dc:type
           rdf:resource="http://purl.org/dc/dcmitype/StillImage" /></cc:Work></rdf:RDF></metadata><defs
     id="defs3023" /><sodipodi:namedview
     pagecolor="#ffffff"
     bordercolor="#666666"
     borderopacity="1"
     objecttolerance="10"
     gridtolerance="10"
     guidetolerance="10"
     inkscape:pageopacity="0"
     inkscape:pageshadow="2"
     inkscape:window-width="640"
     inkscape:window-height="531"
     id="namedview3021"
     showgrid="false"
     inkscape:zoom="0.26283368"
     inkscape:cx="920.517"
     inkscape:cy="425.66"
     inkscape:window-x="0"
     inkscape:window-y="0"
     inkscape:window-maximized="0"
     inkscape:current-layer="Vrstva_1" /><g
     id="g3007"
     i:extraneous="self"><path
       style="fill:#276fb7;fill-rule:evenodd"
       inkscape:connector-curvature="0"
       id="path3009"
       d="M 4.272,801.793 V 49.332 C 4.272,23.776 24.955,2.997 50.499,2.997 H 801.766 C 827.276,2.997 847.999,23.776 847.999,49.332 V 801.793 C 847.999,827.439 827.275,848.127 801.766,848.127 H 50.5 C 24.955,848.127 4.272,827.439 4.272,801.793"
       clip-rule="evenodd" /><path
       style="fill:#276fb7;fill-rule:evenodd"
       inkscape:connector-curvature="0"
       id="path3011"
       d="M 354.272,801.793 V 49.332 C 354.272,23.776 374.955,2.997 400.499,2.997 H 1151.766 C 1177.276,2.997 1197.999,23.776 1197.999,49.332 V 801.793 C 1197.999,827.439 1177.275,848.127 1151.766,848.127 H 400.5 C 374.955,848.127 354.272,827.439 354.272,801.793"
       clip-rule="evenodd" /><g
       id="g3013"><path
         style="fill:white"
         inkscape:connector-curvature="0"
         id="path3015"
         d="M 412.013,246.703 C 378.43,229.271 340.651,220.556 298.673,220.556 C 285.698,220.556 274.249,222.216 264.327,225.536 C 254.405,228.856 246.135,233.286 239.522,238.817 C 232.903,244.628 227.942,251.547 224.639,259.569 C 221.33,267.87 219.678,276.728 219.678,286.132 C 219.678,296.372 221.455,305.503 225.021,313.525 C 228.581,321.553 233.542,328.745 239.904,335.107 C 246.517,341.475 254.405,347.286 263.564,352.539 C 272.973,358.077 283.152,363.058 294.093,367.48 C 316.99,376.611 337.216,386.436 354.77,396.948 C 372.575,407.739 388.353,419.36 402.091,431.811 C 429.311,456.713 442.924,492.407 442.924,538.891 C 442.924,564.073 439.233,585.933 431.857,604.467 C 424.475,623.008 413.665,638.5 399.42,650.951 C 385.169,663.402 367.871,672.676 347.52,678.759 C 327.163,684.842 303.885,687.89 277.684,687.89 C 250.971,687.89 226.035,684.705 202.888,678.344 C 179.735,671.983 157.345,663.267 135.723,652.197 L 162.055,592.846 C 179.609,600.317 197.414,606.685 215.481,611.938 C 233.286,617.476 252.241,620.239 272.342,620.239 C 335.434,620.239 366.983,593.261 366.983,539.306 C 366.983,527.412 364.693,516.479 360.114,506.518 C 355.278,496.557 348.666,487.426 340.27,479.125 C 331.874,470.824 321.571,463.218 309.359,456.298 C 297.398,449.107 283.791,442.466 268.526,436.376 C 252.242,429.735 236.852,422.265 222.351,413.964 C 207.85,405.663 194.111,396.26 181.136,385.741 C 155.693,364.989 142.974,332.759 142.974,289.037 C 142.974,271.054 146.534,254.037 153.66,237.987 C 160.529,221.943 170.833,207.832 184.571,195.653 C 198.309,183.481 215.226,173.935 235.326,167.015 C 255.17,160.102 277.936,156.639 303.636,156.639 C 329.586,156.639 353.496,159.823 375.38,166.185 C 397.514,172.553 417.483,180.439 435.294,189.842 L 412.013,246.703 z" /><path
         style="fill:white"
         inkscape:connector-curvature="0"
         id="path3017"
         d="M 687.539,678.344 H 615.413 V 245.043 L 520.391,313.524 L 480.703,262.474 L 607.017,169.92 H 687.538 V 678.344 z" /><path
         style="fill:white"
         inkscape:connector-curvature="0"
         id="path3019"
         d="M 1022.217,231.762 C 1009.241,224.291 990.161,220.556 964.974,220.556 C 925.536,220.556 895.771,238.681 875.676,274.926 C 855.575,311.177 844.384,354.477 842.094,404.833 C 869.821,370.249 903.022,352.953 941.696,352.953 C 963.067,352.953 981.766,356.967 997.794,364.989 C 1013.822,373.017 1027.179,384.081 1037.863,398.192 C 1048.549,412.303 1056.562,429.047 1061.905,448.412 C 1067.248,468.061 1069.92,489.365 1069.92,512.328 C 1069.92,573.481 1055.669,617.612 1027.179,644.725 C 998.683,671.845 965.101,685.399 926.432,685.399 C 901.752,685.399 879.875,680.419 860.794,670.458 C 841.457,660.776 825.173,645.835 811.947,625.634 C 798.459,605.712 788.287,580.537 781.418,550.097 C 774.549,519.942 771.114,484.248 771.114,443.017 C 771.621,367.48 786.379,302.046 815.382,246.704 C 844.635,191.089 892.594,163.281 959.251,163.281 C 993.34,163.281 1021.198,169.092 1042.825,180.713 L 1022.217,231.762 z M 984.437,438.866 C 973.496,421.162 955.303,412.303 929.866,412.303 C 896.027,412.303 866.768,428.632 842.095,461.278 C 845.911,570.298 873.638,624.803 925.287,624.803 C 940.039,624.803 952.382,622.04 962.304,616.502 C 971.97,610.971 979.602,603.363 985.201,593.675 C 990.794,584.272 994.741,573.066 997.031,560.057 C 999.32,547.055 1000.466,533.222 1000.466,518.553 C 1000.465,483.14 995.122,456.577 984.437,438.866 z" /></g></g></svg>