<?xml version="1.0" encoding="UTF-8" standalone="no"?>
<svg
   xmlns:dc="http://purl.org/dc/elements/1.1/"
   xmlns:cc="http://creativecommons.org/ns#"
   xmlns:rdf="http://www.w3.org/1999/02/22-rdf-syntax-ns#"
   xmlns:svg="http://www.w3.org/2000/svg"
   xmlns="http://www.w3.org/2000/svg"
   viewBox="0 0 450 450.00253"
   height="450.00253"
   width="450"
   xml:space="preserve"
   version="1.1"
   id="svg5522"><metadata
     id="metadata5528"><rdf:RDF><cc:Work
         rdf:about=""><dc:format>image/svg+xml</dc:format><dc:type
           rdf:resource="http://purl.org/dc/dcmitype/StillImage" /><dc:title></dc:title></cc:Work></rdf:RDF></metadata><defs
     id="defs5526" /><g
     transform="matrix(1.25,0,0,-1.25,0,450.00252)"
     id="g5530"><g
       id="g5532"><path
         id="path5534"
         style="fill:#f0c900;fill-opacity:1;fill-rule:evenodd;stroke:none"
         d="M 360,180.002 C 360,80.588 279.414,-0.002 180,-0.002 80.59,-0.002 0,80.588 0,180.002 c 0,99.41 80.59,180 180,180 99.414,0 180,-80.59 180,-180 z" /><path
         id="path5536"
         style="fill:#008754;fill-opacity:1;fill-rule:evenodd;stroke:none"
         d="M 180,352.002 C 83.43,352.002 8,273.217 8,179.975 8,86.729 83.43,8.002 180,8.002 c 96.566,0 172,78.727 172,171.973 0,93.242 -75.434,172.027 -172,172.027 z m 0,-40 c 72.902,0 132,-59.098 132,-132 0,-72.902 -59.098,-132 -132,-132 -72.902,0 -132,59.098 -132,132 0,72.902 59.098,132 132,132 z" /><path
         id="path5538"
         style="fill:#008754;fill-opacity:1;fill-rule:nonzero;stroke:none"
         d="m 71.965,240.686 0,-120 24,0 0,49.621 47.957,0 0,-49.621 24.058,0 0,120 -24.058,0 0,-49.621 -47.957,0 0,49.621 -24,0 z" /><path
         id="path5540"
         style="fill:#008754;fill-opacity:1;fill-rule:nonzero;stroke:none"
         d="m 192.02,240.686 0,-120 24,0 0,49.621 47.96,0 0,-49.621 24.055,0 0,120 -24.055,0 0,-49.621 -47.96,0 0,49.621 -24,0 z" /></g></g></svg>