<?xml version="1.0" encoding="utf-8"?>
<svg xmlns="http://www.w3.org/2000/svg" xml:space="preserve" x="0" y="0" style="enable-background:new 0 0 1600 450" version="1.1" viewBox="0 0 1600 450"><style>.st1{fill:#fa6400}</style><circle cx="221.744" cy="219.723" r="103.567" style="fill:#fff"/><path d="M1019.377 231.488h23.964v31.59c-1.332.267-2.865.532-4.594.796-1.465.268-3.23.467-5.294.598-2.067.134-4.363.199-6.891.199-6.261 0-12.022-1.194-17.283-3.583-5.261-2.39-9.787-5.675-13.583-9.856-3.794-4.182-6.759-9.19-8.891-15.033-2.131-5.84-3.196-12.276-3.196-19.313 0-7.433 1.226-14.168 3.685-20.209 2.454-6.039 5.872-11.181 10.254-15.431 4.38-4.247 9.522-7.532 15.431-9.856 5.904-2.321 12.244-3.485 19.014-3.485 3.583 0 6.868.168 9.855.498 2.987.333 5.605.697 7.865 1.096 2.52.532 4.909.995 7.168 1.394l6.57-18.716c-3.056-1.061-6.441-1.991-10.155-2.787-3.185-.663-7.002-1.326-11.448-1.991-4.448-.663-9.457-.996-15.033-.996-9.426 0-18.352 1.627-26.779 4.878-8.431 3.254-15.829 7.933-22.201 14.037-6.37 6.107-11.417 13.475-15.131 22.101-3.718 8.63-5.576 18.318-5.576 29.07s1.659 20.443 4.978 29.07c3.317 8.63 7.896 15.997 13.739 22.101 5.841 6.107 12.709 10.786 20.609 14.037 7.894 3.251 16.357 4.878 25.385 4.878 5.576 0 11.081-.498 16.526-1.493 5.443-.996 10.287-2.09 14.535-3.285a180.604 180.604 0 0 0 14.337-4.779v-65.742h-47.858v20.212zM1129.156 185.823c-4.381 0-8.796.526-13.242 1.578-4.448 1.051-8.396 2.23-11.846 3.543-4.25 1.443-8.231 3.086-11.946 4.921l5.376 14.249a95.023 95.023 0 0 1 8.561-3.186c2.52-.796 5.343-1.559 8.463-2.29a41.466 41.466 0 0 1 9.457-1.095c6.237 0 10.583 1.608 13.042 4.825 2.454 3.217 3.683 8.039 3.683 14.473v1.808c-5.444 0-11.418.333-17.92.995-6.505.667-12.578 2.091-18.218 4.281-5.644 2.19-10.389 5.41-14.237 9.657-3.852 4.25-5.774 10.024-5.774 17.322 0 4.648.828 8.829 2.489 12.544 1.659 3.717 3.815 6.838 6.47 9.358 2.656 2.523 5.641 4.449 8.961 5.774 3.317 1.326 6.635 1.991 9.955 1.991 3.715 0 7.1-.566 10.154-1.692 3.052-1.126 5.741-2.455 8.065-3.982 2.32-1.524 4.311-3.052 5.974-4.58 1.657-1.524 2.952-2.753 3.881-3.684h.398l1.793 11.548h20.707v-63.914c0-10.882-2.955-19.345-8.861-25.386-5.908-6.037-14.37-9.058-25.385-9.058zm11.548 72.077a30.263 30.263 0 0 1-6.372 5.177c-1.991 1.328-4.281 2.522-6.868 3.583a21.02 21.02 0 0 1-8.065 1.593c-3.185 0-6.107-1.062-8.761-3.186-2.657-2.122-3.981-5.177-3.981-9.159 0-3.584 1.159-6.471 3.483-8.662 2.322-2.19 5.243-3.848 8.761-4.978 3.517-1.126 7.233-1.892 11.15-2.29 3.915-.398 7.467-.597 10.654-.597V257.9zM1187.292 137.639h23.894v146.543h-23.894zM1248.614 140.227c-3.85 0-7.037 1.329-9.555 3.982-2.524 2.657-3.783 5.908-3.783 9.756 0 3.851 1.259 7.102 3.783 9.756 2.518 2.657 5.705 3.982 9.555 3.982 3.85 0 7.068-1.325 9.657-3.982 2.589-2.654 3.883-5.905 3.883-9.756 0-3.849-1.294-7.1-3.883-9.756-2.589-2.653-5.808-3.982-9.657-3.982zM1236.667 188.212h23.894v95.97h-23.894zM1345.181 264.67c-1.991.532-4.281.996-6.87 1.394a51.671 51.671 0 0 1-7.865.597c-7.567 0-13.672-2.588-18.318-7.765-4.648-5.177-6.968-12.012-6.968-20.508 0-4.779.763-9.19 2.291-13.241 1.524-4.047 3.615-7.566 6.272-10.553 2.654-2.986 5.839-5.307 9.557-6.969 3.713-1.658 7.765-2.489 12.144-2.489 1.991 0 3.815.134 5.476.398 1.657.268 3.087.533 4.281.797l3.981.995 6.172-16.127a148.65 148.65 0 0 0-8.163-2.588 135.991 135.991 0 0 0-8.363-1.892c-3.056-.597-6.306-.896-9.755-.896-7.302 0-13.972 1.462-20.011 4.38-6.042 2.921-11.218 6.869-15.531 11.847-4.315 4.978-7.665 10.72-10.054 17.223-2.391 6.505-3.585 13.409-3.585 20.707 0 7.038 1.096 13.409 3.285 19.115 2.191 5.708 5.143 10.587 8.861 14.634a39.844 39.844 0 0 0 13.041 9.458c4.978 2.255 10.255 3.384 15.829 3.384 4.909 0 9.624-.597 14.137-1.792 4.511-1.194 8.494-2.52 11.946-3.982 3.983-1.723 7.698-3.714 11.152-5.973l-6.572-12.345c-1.859.931-3.982 1.662-6.37 2.191zM1385.398 140.227c-3.85 0-7.037 1.329-9.555 3.982-2.524 2.657-3.783 5.908-3.783 9.756 0 3.851 1.259 7.102 3.783 9.756 2.518 2.657 5.705 3.982 9.555 3.982 3.85 0 7.068-1.325 9.657-3.982 2.589-2.654 3.883-5.905 3.883-9.756 0-3.849-1.294-7.1-3.883-9.756-2.588-2.653-5.807-3.982-9.657-3.982zM1373.452 188.212h23.894v95.97h-23.894zM1485.845 194.883c-5.907-6.039-14.37-9.06-25.385-9.06-4.381 0-8.796.526-13.242 1.578-4.448 1.051-8.396 2.23-11.846 3.543-4.25 1.443-8.231 3.086-11.946 4.921l5.376 14.249a95.023 95.023 0 0 1 8.561-3.186c2.52-.796 5.343-1.559 8.463-2.29a41.466 41.466 0 0 1 9.457-1.095c6.237 0 10.583 1.608 13.042 4.825 2.454 3.217 3.683 8.039 3.683 14.473v1.808c-5.444 0-11.418.333-17.92.995-6.505.667-12.578 2.091-18.218 4.281-5.644 2.19-10.389 5.41-14.237 9.657-3.852 4.25-5.774 10.024-5.774 17.322 0 4.648.828 8.829 2.489 12.544 1.659 3.717 3.815 6.838 6.47 9.358 2.656 2.523 5.641 4.449 8.961 5.774 3.317 1.326 6.635 1.991 9.955 1.991 3.715 0 7.1-.566 10.154-1.692 3.052-1.126 5.741-2.455 8.065-3.982 2.32-1.524 4.311-3.052 5.974-4.58 1.657-1.524 2.952-2.753 3.881-3.684h.398l1.793 11.548h20.707v-63.914c0-10.88-2.955-19.343-8.861-25.384zm-13.837 63.017a30.263 30.263 0 0 1-6.372 5.177c-1.991 1.328-4.281 2.522-6.868 3.583a21.02 21.02 0 0 1-8.065 1.593c-3.185 0-6.107-1.062-8.761-3.186-2.657-2.122-3.981-5.177-3.981-9.159 0-3.584 1.159-6.471 3.483-8.662 2.322-2.19 5.243-3.848 8.761-4.978 3.517-1.126 7.233-1.892 11.15-2.29 3.915-.398 7.467-.597 10.654-.597V257.9zM450.956 231.488h23.964v31.59c-1.332.267-2.865.532-4.594.796-1.465.268-3.229.467-5.294.598-2.067.134-4.363.199-6.891.199-6.261 0-12.022-1.194-17.283-3.583-5.261-2.39-9.787-5.675-13.583-9.856-3.794-4.182-6.759-9.19-8.891-15.033-2.131-5.84-3.196-12.276-3.196-19.313 0-7.433 1.226-14.168 3.685-20.209 2.454-6.039 5.872-11.181 10.254-15.431 4.38-4.247 9.522-7.532 15.431-9.856 5.904-2.321 12.244-3.485 19.015-3.485 3.583 0 6.868.168 9.855.498 2.987.333 5.605.697 7.865 1.096 2.52.532 4.909.995 7.168 1.394l6.57-18.716c-3.056-1.061-6.441-1.991-10.156-2.787-3.185-.663-7.002-1.326-11.448-1.991-4.448-.663-9.457-.996-15.033-.996-9.426 0-18.352 1.627-26.779 4.878-8.431 3.254-15.829 7.933-22.202 14.037-6.37 6.107-11.416 13.475-15.131 22.101-3.719 8.63-5.576 18.318-5.576 29.07s1.659 20.443 4.978 29.07c3.317 8.63 7.896 15.997 13.739 22.101 5.841 6.107 12.709 10.786 20.609 14.037 7.894 3.251 16.357 4.878 25.385 4.878 5.576 0 11.081-.498 16.526-1.493 5.443-.996 10.287-2.09 14.535-3.285a180.604 180.604 0 0 0 14.337-4.779v-65.742h-47.858v20.212zM653.28 255.535a67.048 67.048 0 0 1-7.758 4.582c-2.271 1.195-4.795 2.258-7.569 3.184-2.776.931-5.487 1.394-8.136 1.394-4.795 0-8.264-1.557-10.407-4.679-2.147-3.118-3.217-7.271-3.217-12.448v-59.354h-22.706v62.74c0 6.372.597 11.65 1.797 15.835 1.197 4.18 3.311 7.999 6.339 11.452 2.27 2.522 5.014 4.551 8.231 6.077 3.217 1.521 6.842 2.289 10.88 2.289 3.784 0 7.598-.798 11.447-2.39 3.846-1.592 7.347-3.316 10.502-5.177a97.515 97.515 0 0 0 10.596-7.572h.379l1.514 12.749h20.814v-96.002H653.28v67.32zM574.222 185.92a42.18 42.18 0 0 0-2.932-.097c-4.29 0-8.075.992-11.353 2.985-3.282 1.993-6.12 4.119-8.515 6.376-2.776 2.655-5.174 5.71-7.191 9.159h-.378l-1.514-16.131h-21.003v96.002h22.706v-61.148c1.008-1.459 2.365-3.016 4.068-4.679 1.703-1.658 3.625-3.219 5.772-4.683a35.39 35.39 0 0 1 7.001-3.682 21.44 21.44 0 0 1 7.947-1.495c.757 0 1.387.035 1.892.097.503.07.946.101 1.325.101h1.135l5.677-22.11c-.757-.128-1.514-.265-2.271-.397-.633-.131-1.419-.227-2.366-.298zM783.715 199.907c-3.117-4.375-6.862-7.787-11.237-10.241-4.376-2.454-9.148-3.681-14.32-3.681-3.847 0-7.726.733-11.635 2.189-3.912 1.461-7.592 3.116-11.038 4.97a127.48 127.48 0 0 0-11.535 6.961h-.398l-1.79-11.733h-21.878v148.171h23.866v-60.064c2.517 1.986 5.301 3.712 8.354 5.169 2.651 1.329 5.634 2.485 8.95 3.483 3.313.993 6.893 1.492 10.74 1.492 6.494 0 12.331-1.563 17.502-4.675 5.17-3.116 9.546-7.16 13.126-12.135 3.58-4.97 6.331-10.541 8.255-16.703 1.92-6.167 2.884-12.298 2.884-18.398 0-6.891-.864-13.326-2.586-19.29-1.726-5.968-4.147-11.141-7.26-15.515zm-17.005 46.64c-1.194 3.779-2.885 7.027-5.072 9.747-2.187 2.719-4.906 4.873-8.154 6.462-3.251 1.589-6.862 2.388-10.839 2.388a36.77 36.77 0 0 1-6.663-.601c-2.187-.397-4.211-.922-6.066-1.589a33.89 33.89 0 0 1-6.166-2.189v-44.35a124.41 124.41 0 0 1 8.354-4.374 86.064 86.064 0 0 1 7.756-2.984c2.785-.927 5.436-1.395 7.955-1.395 6.365 0 11.402 2.521 15.115 7.562 3.711 5.036 5.57 11.401 5.57 19.091 0 4.375-.597 8.453-1.79 12.232zM887.648 200.657c-3.848-4.58-8.639-8.195-14.376-10.853-5.739-2.654-12.327-3.98-19.767-3.98-7.064 0-13.43 1.225-19.105 3.681-5.674 2.459-10.498 5.907-14.47 10.355-3.972 4.448-7.031 9.724-9.174 15.83-2.146 6.105-3.216 12.81-3.216 20.11 0 7.036.975 13.639 2.932 19.811 1.954 6.176 4.853 11.549 8.701 16.129 3.846 4.581 8.636 8.199 14.376 10.853 5.737 2.654 12.325 3.98 19.767 3.98 7.061 0 13.43-1.229 19.104-3.685 5.675-2.451 10.499-5.902 14.47-10.35 3.972-4.448 7.029-9.725 9.174-15.83 2.142-6.105 3.215-12.81 3.215-20.11 0-7.035-.978-13.639-2.931-19.814-1.956-6.174-4.855-11.547-8.7-16.127zm-18.16 59.633c-3.848 5.444-9.174 8.164-15.984 8.164-6.307 0-11.538-2.888-15.7-8.662-4.162-5.775-6.243-13.771-6.243-23.994 0-10.354 1.954-18.25 5.864-23.694 3.907-5.439 9.269-8.164 16.078-8.164 6.304 0 11.506 2.887 15.606 8.662 4.096 5.775 6.148 13.771 6.148 23.994.001 10.351-1.923 18.25-5.769 23.694zM221.744 113.457c-58.689 0-106.265 47.577-106.265 106.266s47.576 106.266 106.265 106.266 106.267-47.577 106.267-106.266-47.579-106.266-106.267-106.266zm35.684 72.37a.814.814 0 0 1-.482-.161c-.429-.253-2.317-1.299-6.07-2.441-4.648-1.419-12.758-3.157-25.171-3.468.697 13.274 3.056 20.953 4.407 24.348l.175.409c.783 1.828 2.976 6.191 6.417 7.191.274.081.48.305.555.581a.78.78 0 0 1 .004.407l-14.651 99.676a.838.838 0 0 1-.825.721.84.84 0 0 1-.823-.716l-14.726-99.628a.822.822 0 0 1 .552-1.04c3.427-.997 5.612-5.336 6.388-7.144 1.415-3.439 3.867-11.187 4.601-24.811-12.431.308-20.526 2.045-25.16 3.467-4.21 1.281-6.056 2.459-6.074 2.471a.803.803 0 0 1-.299.116.792.792 0 0 1-.188.022c-5.448 0-9.879-4.431-9.879-9.877 0-5.446 4.431-9.878 9.879-9.878.051 0 .104.008.157.02a.84.84 0 0 1 .323.12c.018.012 1.873 1.174 6.058 2.462 4.674 1.428 12.84 3.175 25.346 3.479-.318-12.438-2.056-20.509-3.478-25.119-1.174-3.795-2.213-5.612-2.468-6.032a.791.791 0 0 1-.071-.646 9.764 9.764 0 0 1 2.879-6.736 9.764 9.764 0 0 1 6.949-2.88c1.488 0 2.974.327 4.42.974 3.252 1.454 5.366 4.88 5.406 8.748a.9.9 0 0 1-.126.604c-.046.074-1.148 1.858-2.419 5.97-1.422 4.62-3.164 12.698-3.485 25.122 12.501-.292 20.64-2.025 25.293-3.445 3.823-1.174 5.698-2.237 6.063-2.455a.822.822 0 0 1 .52-.186c5.446 0 9.877 4.432 9.877 9.878.003 5.446-4.428 9.877-9.874 9.877z" class="st1"/></svg>