<?xml version="1.0" encoding="UTF-8" standalone="no"?>
<!-- Created with Inkscape (http://www.inkscape.org/) -->

<svg
   xmlns:dc="http://purl.org/dc/elements/1.1/"
   xmlns:cc="http://creativecommons.org/ns#"
   xmlns:rdf="http://www.w3.org/1999/02/22-rdf-syntax-ns#"
   xmlns:svg="http://www.w3.org/2000/svg"
   xmlns="http://www.w3.org/2000/svg"
   xmlns:sodipodi="http://sodipodi.sourceforge.net/DTD/sodipodi-0.dtd"
   xmlns:inkscape="http://www.inkscape.org/namespaces/inkscape"
   width="900.40002"
   height="900.40002"
   viewBox="0 0 900.40003 900.40004"
   id="svg4177"
   version="1.1"
   inkscape:version="0.91 r13725"
   sodipodi:docname="Norwegian_road_sign_204_(gammel).svg">
  <defs
     id="defs4179" />
  <sodipodi:namedview
     id="base"
     pagecolor="#ffffff"
     bordercolor="#666666"
     borderopacity="1.0"
     inkscape:pageopacity="0.0"
     inkscape:pageshadow="2"
     inkscape:zoom="0.64"
     inkscape:cx="437.97905"
     inkscape:cy="375.38964"
     inkscape:document-units="px"
     inkscape:current-layer="layer1"
     showgrid="false"
     units="px"
     inkscape:window-width="1920"
     inkscape:window-height="1057"
     inkscape:window-x="-8"
     inkscape:window-y="-8"
     inkscape:window-maximized="1" />
  <metadata
     id="metadata4182">
    <rdf:RDF>
      <cc:Work
         rdf:about="">
        <dc:format>image/svg+xml</dc:format>
        <dc:type
           rdf:resource="http://purl.org/dc/dcmitype/StillImage" />
        <dc:title></dc:title>
      </cc:Work>
    </rdf:RDF>
  </metadata>
  <g
     inkscape:label="Layer 1"
     inkscape:groupmode="layer"
     id="layer1"
     transform="translate(0,-151.96223)">
    <circle
       style="opacity:1;fill:#c8141e;fill-opacity:1;stroke:none;stroke-width:25;stroke-linejoin:miter;stroke-miterlimit:4;stroke-dasharray:none;stroke-dashoffset:0;stroke-opacity:1"
       id="path4725"
       cx="450.20001"
       cy="602.16223"
       r="450" />
    <circle
       cy="602.16223"
       cx="450.20001"
       id="circle4727"
       style="opacity:1;fill:#ffffff;fill-opacity:1;stroke:none;stroke-width:25;stroke-linejoin:miter;stroke-miterlimit:4;stroke-dasharray:none;stroke-dashoffset:0;stroke-opacity:1"
       r="360" />
    <path
       style="fill:#c8141e;fill-opacity:1;fill-rule:evenodd;stroke:none"
       d="m 450.19999,1052.1622 389.69997,-674.96007 -779.399976,0 z"
       id="polygon3049"
       inkscape:connector-curvature="0" />
    <path
       style="fill:#ffffff;fill-opacity:1;fill-rule:evenodd;stroke:none"
       d="m 216.31,467.20202 233.88999,405.09804 233.89,-405.09804 z"
       id="polygon3051"
       inkscape:connector-curvature="0"
       sodipodi:nodetypes="cccc" />
    <path
       inkscape:connector-curvature="0"
       style="fill:#000000;fill-opacity:1;fill-rule:evenodd;stroke:none"
       d="m 409.5378,772.16222 74.9836,-0.26461 c 0,0 -0.2569,-8.46845 -0.1098,-17.72075 0.294,-17.82024 31.1198,-30.0367 44.3129,-59.53481 13.1931,-29.49808 9.1801,-39.9836 15.4864,-64.20689 3.1574,-12.12725 14.8309,-23.63058 14.3906,-29.01899 -0.7513,-9.19277 -15.6094,-4.63998 -25.7342,1.07722 -14.5292,8.20442 -20.1491,59.6248 -28.225,41.47422 -8.076,-18.15056 -0.1137,-84.35183 -0.8847,-120.46471 -0.4811,-22.51851 -7.6809,-23.06461 -13.8159,-23.26967 -11.8747,-0.39691 -14.5189,21.68204 -14.5189,21.68204 l -4.4074,64.93661 c 0,0 -2.0036,-63.70627 -2.6461,-90.65193 -0.1937,-8.12527 -5.6773,-14.18312 -11.544,-14.03507 -6.3287,0.15965 -11.7699,2.30279 -13.1317,15.95151 -2.6622,26.68234 -3.8141,84.63799 -3.8141,84.63799 0,0 -1.2184,-54.21073 -2.4911,-79.06248 -0.4809,-9.39218 -6.1246,-17.86245 -12.6478,-17.64875 -6.0948,0.19964 -14.5303,6.45702 -14.2996,22.12045 0.374,25.41624 -0.1099,79.50091 -0.1099,79.50091 0,0 -3.4173,-36.49126 -6.3694,-55.63782 -2.6507,-17.19236 -11.3635,-21.1783 -17.0098,-18.24218 -5.6465,2.93611 -7.7444,10.34542 -8.1309,21.68211 -1.189,33.98261 2.7229,133.61283 4.5171,143.64353 6.8978,38.56097 25.5835,51.51399 25.9346,75.67892 0.1616,11.12557 0.2646,17.37315 0.2646,17.37315 z"
       id="path1601"
       sodipodi:nodetypes="ccssssssssccssscssscsssssc" />
  </g>
</svg>
