<?xml version="1.0" encoding="UTF-8" standalone="no"?>
<svg
   xmlns:dc="http://purl.org/dc/elements/1.1/"
   xmlns:cc="http://creativecommons.org/ns#"
   xmlns:rdf="http://www.w3.org/1999/02/22-rdf-syntax-ns#"
   xmlns:svg="http://www.w3.org/2000/svg"
   xmlns="http://www.w3.org/2000/svg"
   width="301"
   height="401"
   viewBox="0 0 301 401"
   version="1.1"
   id="svg8">
  <defs
     id="defs2" />
  <metadata
     id="metadata5">
    <rdf:RDF>
      <cc:Work
         rdf:about="">
        <dc:format>image/svg+xml</dc:format>
        <dc:type
           rdf:resource="http://purl.org/dc/dcmitype/StillImage" />
        <dc:title></dc:title>
      </cc:Work>
    </rdf:RDF>
  </metadata>
  <g
     id="layer1"
     transform="translate(-274.2,-80.6)">
    <rect
       y="81.1"
       x="274.7"
       height="400"
       width="300"
       id="rect16644"
       style="fill:#ffffff;fill-rule:evenodd;stroke:#999999;stroke-linecap:round;stroke-linejoin:round;stroke-dashoffset:34.8992" />
    <path
       d="m 299.7,108.4 v 69.2 h 10.5 c -10.5,44.5 -10.5,89.8 -10.5,134.9 0,47 0,141.2 0,141.2 l 250.1,0.1 V 312.5 c 0,-45.1 0,-90.4 -10.5,-134.9 h 10.5 V 108.4 H 527 v 23.1 h -22.8 v -23.1 h -22.7 v 23.1 H 458.8 V 108.4 H 436 v 23.1 h -22.7 v -23.1 h -22.7 v 23.1 h -22.7 v -23.1 h -22.7 v 23.1 h -22.8 l 0.1,-23.1 z"
       style="fill:#00703c;stroke-width:1.00044000000000000px"
       id="path16702" />
    <g
       transform="translate(185.3,36.05)"
       style="font-weight:500;font-size:96.15999999999999659px;font-family:'Transport New';-inkscape-font-specification:'Transport New Medium';text-align:center;letter-spacing:0px;word-spacing:0px;text-anchor:middle;fill:#ffcc00;stroke-width:1.0001"
       id="text16635"
       aria-label="D">
      <path
         id="path16637"
         d="m 199.4,167 c 0,12.4 -5.7,26.5 -20,26.5 h -15.2 v -52 h 15.9 c 12.9,0 19.3,14.5 19.3,25.5 z m 12.9,0 c 0,-18.2 -10.1,-37 -33.3,-37 h -27.6 v 75 h 27.5 c 23.3,0 33.4,-17.8 33.4,-38 z" />
    </g>
    <path
       id="path2158"
       style="fill:#ffcc00;fill-rule:evenodd;stroke-width:1.3329"
       d="m 501.8,236 h -48.4 l 4.6,-21.1 h 36.3 l -0.8,-5.4 -2.3,-4.5 -4.5,-3.8 -4.5,-4.5 -7.6,-4.5 -4.5,-0.8 0.7,-5.3 4.6,-7.6 2.2,-6 2.3,-1.5 5.3,1.5 6,3 8.4,6.8 6,8.3 3.8,7.6 2.3,5.3 0.7,6 -0.7,5.4 -3.1,9.1 z" />
    <g
       style="font-weight:500;font-size:176.03999999999999204px;font-family:'Transport New';-inkscape-font-specification:'Transport New Medium';letter-spacing:0px;word-spacing:0px;text-anchor:middle;fill:#ffcc00;stroke-width:0.9999"
       id="text16642"
       aria-label="97">
      <path
         id="path18493"
         d="m 398,319.9 c 0,16 -10.9,26.9 -25.5,26.9 -15.1,0 -25.3,-10.9 -25.3,-26.9 0,-15.9 10.2,-26.8 25.3,-26.8 14.8,0 25.5,10.9 25.5,26.8 z m 24.9,22.2 c 0,-37 -12.9,-70.3 -53.4,-70.3 -28.3,0 -45.2,20.8 -45.2,47.9 0,27.6 16.9,47.7 45.2,47.7 10.6,0 22.7,-5.3 29.8,-13.9 0,27.1 -11.8,40.7 -28.4,40.7 -9.6,0 -16.7,-4.6 -20.4,-11.3 l -19.3,9.9 c 6.8,13.3 20.2,21.8 38.3,21.8 38.8,0 53.4,-35.4 53.4,-72.5 z" />
      <path
         id="path18495"
         d="m 530.6,274.3 h -93.7 v 21.1 h 67.6 l -48.9,116.2 h 25.7 l 49.3,-115.5 z" />
    </g>
  </g>
</svg>
