<?xml version="1.0" encoding="UTF-8" standalone="no"?>
<svg
   width="681"
   height="602.12"
   fill-rule="evenodd"
   version="1.1"
   id="svg12"
   sodipodi:docname="UK_traffic_sign_501.svg"
   inkscape:version="1.1.1 (3bf5ae0d25, 2021-09-20)"
   xmlns:inkscape="http://www.inkscape.org/namespaces/inkscape"
   xmlns:sodipodi="http://sodipodi.sourceforge.net/DTD/sodipodi-0.dtd"
   xmlns="http://www.w3.org/2000/svg"
   xmlns:svg="http://www.w3.org/2000/svg">
  <defs
     id="defs16" />
  <sodipodi:namedview
     id="namedview14"
     pagecolor="#ffffff"
     bordercolor="#111111"
     borderopacity="1"
     inkscape:pageshadow="0"
     inkscape:pageopacity="0"
     inkscape:pagecheckerboard="1"
     showgrid="false"
     inkscape:zoom="1.1941141"
     inkscape:cx="262.53772"
     inkscape:cy="311.94673"
     inkscape:window-width="1920"
     inkscape:window-height="1057"
     inkscape:window-x="-8"
     inkscape:window-y="-8"
     inkscape:window-maximized="1"
     inkscape:current-layer="svg12" />
  <path
     d="M46.019,1.032 7.048,68.532 301.529,578.588 379.471,578.588 673.952,68.532 634.981,1.032"
     fill="#d61029"
     stroke="none"
     id="path2" />
  <circle
     cx="46.019"
     cy="46.032"
     r="45"
     fill="#d61029"
     stroke="none"
     id="circle4" />
  <circle
     cx="340.5"
     cy="556.088"
     r="45"
     fill="#d61029"
     stroke="none"
     id="circle6" />
  <circle
     cx="634.981"
     cy="46.032"
     r="45"
     fill="#d61029"
     stroke="none"
     id="circle8" />
  <path
     d="M72,61.032 340.5,526.088 609,61.032"
     fill="#fff"
     stroke="none"
     id="path10" />
  <path
     id="path2272"
     style="fill:#000000;fill-opacity:1;stroke:none;stroke-width:0.307665"
     d="m 479.95117,85.760965 c -0.72988,-0.051 -1.84961,1.18359 -1.84961,1.18359 0,0 -4.78615,6.4155 -7.29883,9.5293 -1.66968,2.06913 -5.00551,5.268145 -5.16406,6.078125 -0.26449,1.35165 0.41947,4.77113 0.51758,7.16211 0.16437,4.00455 0.0603,8.01399 0.11914,12.02149 0.28462,19.37281 2.02076,38.86545 1.13281,58.11328 -0.0125,0.27349 0.27421,0.51723 0.52149,0.63476 0.33729,0.16038 1.12109,0.006 1.12109,0.006 3.13306,-4.02818 4.49647,-5.79213 6.26953,-8.98437 3.08698,-5.55787 5.91902,-11.37586 7.50977,-17.53125 1.53862,-5.9534 1.9222,-8.31235 1.86133,-18.35156 -0.0599,-9.88709 0.27015,-16.5875 -0.625,-26.32227 -0.89514,-9.678825 -2.25103,-16.912295 -3.11329,-22.283205 -0.065,-0.41728 -0.46881,-1.21861 -1.00195,-1.25586 z m -57.00781,0.43164 c -0.92786,0 -1.73854,0.34976 -2.31836,0.92969 l -6.95898,6.72461 c -0.46385,0.34806 -0.69532,0.69428 -0.69532,1.1582 -0.17346,0.81205 0.28907,1.50817 1.39063,2.08789 l 6.72851,6.496095 c 0.28991,0.3481 0.81104,0.46485 1.62305,0.46485 0.75357,0 1.27489,-0.11661 1.62305,-0.46485 l 6.49414,-6.496095 c 0.57988,-0.28974 0.98604,-0.51941 1.16015,-0.69336 0.11604,-0.29009 0.23047,-0.57967 0.23047,-0.92773 0.11604,-0.46399 10e-4,-0.98705 -0.46289,-1.625 l -7.65625,-7.42188 c -0.46391,-0.11581 -0.86859,-0.23242 -1.1582,-0.23242 z m 12.08203,21.142585 c -1.15524,0 -2.20708,0.20855 -3.15234,0.6289 -0.99734,0.4202 -2.10086,1.15839 -3.36133,2.10352 -4.5528,5.16272 -5.66988,5.42272 -9.29297,11.56641 -3.51804,5.88051 -5.55664,10.85465 -5.55664,15.58007 0,3.78065 2.11829,7.84992 5.05859,10.63282 3.04577,2.67803 6.78381,4.29492 11.4043,4.29492 6.1435,0 9.2086,-2.74441 11.40234,-3.46875 l 1.91016,-0.0449 c 0.0783,1.351 0.12891,4.25 0.12891,4.25 0.0825,1.74289 -0.1864,3.2688 -1.88868,3.14843 h -52.5957 c 0,0 1.24481,-5.12967 1.20508,-7.74023 -0.088,-5.78466 -0.7678,-11.41857 -3.18945,-17.05859 -0.16124,-0.37563 -0.57331,-1.53899 -1.20118,-1.50196 -0.80835,0.048 -1.16481,1.12439 -1.71484,1.71875 -1.84662,1.99564 -3.67093,4.32083 -5.31055,6.19141 -2.13618,2.43702 -5.59669,5.44536 -5.76367,6.78711 -0.16567,1.33165 0.72896,2.98206 1.11524,4.4668 0.82125,3.15658 2.55664,9.44335 2.55664,9.44335 l -10.47657,-0.84375 c 0,0 -1.97088,-0.62631 -3.05859,-2.78125 -1.08773,-2.15495 -1.46406,-6.3057 -1.45508,-9.51367 0.0122,-3.45062 0.61237,-6.75938 1.63867,-10.22265 0.13006,-0.43896 -0.033,-1.0693 -0.42578,-1.30469 -0.40942,-0.24538 -1.16683,-0.0658 -1.41015,0.25 -2.79009,3.62266 -9.97461,12.67773 -9.97461,12.67773 l -0.78907,9.43164 h -20.92773 c 0,0 -1.81215,0.092 -2.1582,-2.62109 -0.12932,-1.01598 -0.17041,-3.29733 0.11133,-4.91602 0.28246,-1.62205 0.60156,-2.26256 1.02343,-3.35156 0.32782,-0.8461 1.16602,-2.45898 1.16602,-2.45898 0,0 0.17465,-1.62073 -0.4043,-1.93555 -0.52876,-0.28751 -1.23929,0.24442 -1.68359,0.65039 -2.835,2.59022 -7.86648,5.31757 -9.125,7.16797 -0.82229,1.209 -0.77727,2.82327 -1.27735,4.19727 -0.40493,1.11262 -0.78949,2.92703 -1.39257,3.26757 l -45.28321,0.004 c -2.94056,-0.0518 -4.73257,0.80016 -6.6289,-0.33984 -2.39206,-1.43802 -3.57339,-2.99771 -4.29883,-7.18555 -0.12792,-0.73762 -0.30135,-1.46465 -0.42383,-2.20313 -0.15688,-0.94414 -0.39844,-2.84375 -0.39844,-2.84375 l 1.92383,-0.86132 c 0,0 1.84675,0.46735 2.52344,-1.10157 l 0.47851,-1.10546 6.09375,-13.67579 c 0,0 0.53823,-1.30156 0.14844,-1.72851 -0.46948,-0.51375 -1.14264,-0.66013 -1.88476,-0.63672 -1.23685,0.0392 -2.67049,0.5467 -3.68555,0.60156 -8.0582,0.95771 -14.41802,0.95062 -20.5957,0.9668 -2.92417,0.007 -7.52734,-0.31967 -12.00782,-0.78906 -4.49309,-0.47045 -8.86681,-1.07875 -12.83593,0.125 -3.38064,1.02528 -6.31771,3.46607 -8.65039,6.11914 -1.4234,1.61894 -2.11741,3.76061 -3.02735,5.71484 -1.05652,2.26914 -2.10713,4.89246 -2.8164,6.96289 -0.37406,1.0919 0.0787,2.70962 0.74804,3.38086 1.13875,1.14198 3.03907,0.92578 3.03906,0.92578 0,0 4.26315,-2.10582 6.52735,-2.79492 2.62778,-0.79977 5.36193,-1.25826 8.0957,-1.52539 0.82605,-0.0808 2.49219,-0.0234 2.49219,-0.0234 0,0 -1.36344,2.9031 -2.01953,4.36524 -1.0961,2.4425 -1.82713,4.2111 -3.20508,7.36328 -4.5251,10.35131 -9.91116,23.36535 -8.13281,35.3125 0.87379,5.8706 3.12676,10.16818 8.87695,15.43554 5.48688,5.00402 11.27303,6.24217 17.51367,7.00586 5.00288,0.61221 10.09232,-0.82063 14.97656,-2.06445 5.62652,-1.43287 11.23646,-3.30901 16.29102,-6.16601 2.59267,-1.46554 4.95049,-3.14311 7.29297,-4.98243 1.65387,-1.29864 3.27355,-2.88424 4.69531,-4.43359 0.82985,-0.90439 2.8076,-1.69018 2.01367,-3.08398 -0.73242,-1.28585 -2.04787,-0.7506 -3.08398,-0.60157 -4.64867,0.66836 -9.68344,0.86077 -14.51367,1.03516 -5.02763,0.18156 -9.83585,0.36647 -14.75586,0.35547 -2.04926,-0.003 -4.10401,0.013 -6.14453,-0.17578 -2.09796,-0.19436 -4.2254,-0.38779 -6.2461,-0.98438 -3.01406,-0.88939 -6.34418,-1.65193 -8.61523,-3.82422 -3.60945,-3.45241 -6.68164,-7.79552 -6.68164,-13.41406 0,-4.91622 0.5302,-6.17837 1.96094,-8.83398 2.93467,-5.44697 8.12362,-9.41996 12.92187,-13.32618 1.66274,-1.35358 3.6426,-2.12203 5.42969,-3.44726 0.52611,-0.39028 3.17773,-1.41406 3.17773,-1.41406 0,0 0.91989,2.77278 1.32617,4.17578 0.81358,2.80919 1.36589,5.69198 2.22266,8.48828 0.86774,2.83172 1.27099,5.94056 2.94922,8.38086 1.69743,2.46817 4.18339,4.44918 6.84766,5.81836 1.28776,0.66174 2.78141,0.85028 4.21484,1.05468 1.64892,0.23501 3.32881,0.15759 4.99414,0.18946 l 40.0918,-0.0312 c 2.10251,-0.002 3.62635,-0.42074 4.625,-1.26172 0.52564,-0.26285 1.10342,-0.94522 1.68164,-2.10156 0.26279,0.57816 0.84064,1.26055 1.68164,2.10156 0.84096,0.84098 1.57665,1.26172 2.3125,1.26172 h 27.4668 c 0.94614,0 1.89139,-0.42074 2.73242,-1.26172 0.52561,-0.4205 1.26251,-1.15615 2.10351,-2.3125 0.10511,0.84099 0.52584,1.68248 1.26172,2.52344 0.42607,0.37285 0.85126,0.63824 1.27735,0.80859 0.41491,0.16613 0.71132,0.46181 1.10156,0.61914 0.29965,0.12113 0.6193,0.18631 0.9375,0.24219 6.80782,1.19511 13.91932,1.60216 20.64453,1.94922 0.56227,0.029 1.61914,-2.56836 1.61914,-2.56836 l 62.9375,-0.0215 c 5.53796,0.12703 5.61179,0.34454 6.78906,-6.24609 0.20975,-1.17746 0.70207,-2.80933 1.00391,-4.22461 1.30459,-6.11818 2.9488,-12.20635 3.48242,-18.43945 0.45155,-5.27126 0.56416,-10.64411 -0.25195,-15.8711 -0.55458,-3.5529 -0.91962,-4.96835 -3.125,-10.32422 -2.11938,-4.48228 -4.55574,-6.79398 -7.4961,-9.73437 -1.41789,-1.52263 -2.81002,-2.38545 -4.07031,-2.96289 -1.26029,-0.6825 -2.52096,-1.04883 -3.78125,-1.04883 z m -5.76562,18.79297 c 0.88107,0.0157 1.73404,0.0924 2.45507,0.19336 3.60688,0.5075 6.57269,3.46206 9.25586,5.80859 0.34318,0.30003 0.77361,0.80532 0.59961,1.22656 -0.41562,1.00872 -1.08969,1.08959 -3.08984,1.07227 -2.00062,-0.0157 -5.69672,0.42922 -8.29492,-0.53125 -2.68471,-0.9923 -7.38188,-2.33926 -6.86524,-5.1543 0.39436,-2.14849 3.29578,-2.6627 5.93946,-2.61523 z" />
</svg>
