<?xml version="1.0" encoding="UTF-8" standalone="no"?>
<svg
   version="1.1"
   width="360.26801"
   height="355.80331"
   id="svg2816"
   xml:space="preserve"
   inkscape:version="1.1.2 (b8e25be833, 2022-02-05)"
   sodipodi:docname="Qatar_traffic_sign_428.svg"
   xmlns:inkscape="http://www.inkscape.org/namespaces/inkscape"
   xmlns:sodipodi="http://sodipodi.sourceforge.net/DTD/sodipodi-0.dtd"
   xmlns="http://www.w3.org/2000/svg"
   xmlns:svg="http://www.w3.org/2000/svg"
   xmlns:rdf="http://www.w3.org/1999/02/22-rdf-syntax-ns#"
   xmlns:cc="http://creativecommons.org/ns#"
   xmlns:dc="http://purl.org/dc/elements/1.1/"><metadata
     id="metadata81"><rdf:RDF><cc:Work
         rdf:about=""><dc:format>image/svg+xml</dc:format><dc:type
           rdf:resource="http://purl.org/dc/dcmitype/StillImage" /></cc:Work></rdf:RDF></metadata><sodipodi:namedview
     pagecolor="#ffffff"
     bordercolor="#666666"
     borderopacity="1"
     objecttolerance="10"
     gridtolerance="10"
     guidetolerance="10"
     inkscape:pageopacity="0"
     inkscape:pageshadow="2"
     inkscape:window-width="1920"
     inkscape:window-height="1001"
     id="namedview79"
     showgrid="false"
     fit-margin-top="0.1"
     fit-margin-left="0.1"
     fit-margin-right="0.1"
     fit-margin-bottom="0.1"
     inkscape:zoom="1.130851"
     inkscape:cx="186.143"
     inkscape:cy="216.20886"
     inkscape:window-x="-9"
     inkscape:window-y="-9"
     inkscape:window-maximized="1"
     inkscape:current-layer="svg2816"
     showguides="true"
     inkscape:guide-bbox="true"
     inkscape:document-rotation="0"
     inkscape:pagecheckerboard="0" /><defs
     id="defs2820"><clipPath
       id="clipPath2832"><path
         d="M -0.24,595.138 H 317.24 V -0.138 H -0.24 Z"
         id="path2834"
         inkscape:connector-curvature="0" /></clipPath><clipPath
       id="clipPath2840"><path
         d="M 0.03,595.32 H 317.49 V 0 H 0.03 Z"
         id="path2842"
         inkscape:connector-curvature="0" /></clipPath><clipPath
       id="clipPath2858"><path
         d="M -0.24,595.138 H 317.24 V -0.138 H -0.24 Z"
         id="path2860"
         inkscape:connector-curvature="0" /></clipPath><clipPath
       id="clipPath2864"><path
         d="M 0.03,595.32 H 317.49 V 0 H 0.03 Z"
         id="path2866"
         inkscape:connector-curvature="0" /></clipPath><clipPath
       id="clipPath3306"><path
         d="m 199.238,472.977 v -29.74 h 29.744 v 29.74"
         id="path3308"
         inkscape:connector-curvature="0" /></clipPath><clipPath
       id="clipPath3322"><path
         d="M -0.24,595.138 H 317.24 V -0.138 H -0.24 Z"
         id="path3324"
         inkscape:connector-curvature="0" /></clipPath><clipPath
       id="clipPath3330"><path
         d="M 0.03,595.32 H 317.49 V 0 H 0.03 Z"
         id="path3332"
         inkscape:connector-curvature="0" /></clipPath><clipPath
       id="clipPath3344"><path
         d="m 88.233,387.221 v -28.335 h 32.08 v 28.335"
         id="path3346"
         inkscape:connector-curvature="0" /></clipPath><clipPath
       id="clipPath3462"><path
         d="M -0.24,595.138 H 317.24 V -0.138 H -0.24 Z"
         id="path3464"
         inkscape:connector-curvature="0" /></clipPath><clipPath
       id="clipPath3470"><path
         d="M 0.03,595.32 H 317.49 V 0 H 0.03 Z"
         id="path3472"
         inkscape:connector-curvature="0" /></clipPath><clipPath
       id="clipPath3490"><path
         d="M -0.24,595.138 H 317.24 V -0.138 H -0.24 Z"
         id="path3492"
         inkscape:connector-curvature="0" /></clipPath><clipPath
       id="clipPath3496"><path
         d="M 0.03,595.32 H 317.49 V 0 H 0.03 Z"
         id="path3498"
         inkscape:connector-curvature="0" /></clipPath><clipPath
       id="clipPath3520"><path
         d="m 254.788,326.215 v -28.309 h 28.326 v 28.309"
         id="path3522"
         inkscape:connector-curvature="0" /></clipPath><clipPath
       id="clipPath3544"><path
         d="m 145.049,326.142 v -28.333 h 28.342 v 28.333"
         id="path3546"
         inkscape:connector-curvature="0" /></clipPath><clipPath
       id="clipPath3682"><path
         d="M -0.24,595.138 H 317.24 V -0.138 H -0.24 Z"
         id="path3684"
         inkscape:connector-curvature="0" /></clipPath><clipPath
       id="clipPath3690"><path
         d="M 0.03,595.32 H 317.49 V 0 H 0.03 Z"
         id="path3692"
         inkscape:connector-curvature="0" /></clipPath><clipPath
       id="clipPath3980"><path
         d="M -0.24,595.138 H 317.24 V -0.138 H -0.24 Z"
         id="path3982"
         inkscape:connector-curvature="0" /></clipPath><clipPath
       id="clipPath3988"><path
         d="M 0.03,595.32 H 317.49 V 0 H 0.03 Z"
         id="path3990"
         inkscape:connector-curvature="0" /></clipPath><clipPath
       id="clipPath4010"><path
         d="M -0.24,595.138 H 317.24 V -0.138 H -0.24 Z"
         id="path4012"
         inkscape:connector-curvature="0" /></clipPath><clipPath
       id="clipPath4016"><path
         d="M 0.03,595.32 H 317.49 V 0 H 0.03 Z"
         id="path4018"
         inkscape:connector-curvature="0" /></clipPath><clipPath
       id="clipPath4062"><path
         d="m 200.163,177.773 v -28.284 h 28.283 v 28.284"
         id="path4064"
         inkscape:connector-curvature="0" /></clipPath><clipPath
       id="clipPath4090"><path
         d="m 34.886,177.515 v -51.632 h 30.367 v 51.632"
         id="path4092"
         inkscape:connector-curvature="0" /></clipPath><clipPath
       id="clipPath4106"><path
         d="m 34.886,177.515 v -51.632 h 30.367 v 51.632"
         id="path4108"
         inkscape:connector-curvature="0" /></clipPath><clipPath
       id="clipPath4272"><path
         d="m 34.886,177.515 v -51.632 h 30.367 v 51.632"
         id="path4274"
         inkscape:connector-curvature="0" /></clipPath><clipPath
       id="clipPath4304"><path
         d="m 254.653,176.442 v -48.167 h 28.317 v 48.167"
         id="path4306"
         inkscape:connector-curvature="0" /></clipPath><clipPath
       id="clipPath4310"><path
         d="m 253.565,177.983 h 31.181 V 128.8 h -31.181 z"
         id="path4312"
         inkscape:connector-curvature="0" /></clipPath><clipPath
       id="clipPath4316"><path
         d="M -0.24,595.138 H 317.24 V -0.138 H -0.24 Z"
         id="path4318"
         inkscape:connector-curvature="0" /></clipPath><clipPath
       id="clipPath4322"><path
         d="M 0.03,595.32 H 317.49 V 0 H 0.03 Z"
         id="path4324"
         inkscape:connector-curvature="0" /></clipPath><clipPath
       id="clipPath4456"><path
         d="M -0.24,595.138 H 317.24 V -0.138 H -0.24 Z"
         id="path4458"
         inkscape:connector-curvature="0" /></clipPath><clipPath
       id="clipPath4464"><path
         d="M 0.03,595.32 H 317.49 V 0 H 0.03 Z"
         id="path4466"
         inkscape:connector-curvature="0" /></clipPath></defs><g
     id="g12289"
     transform="matrix(-0.65225008,0,0,0.65225008,358.78683,0.10515278)"><g
       transform="translate(-9.96875,-10.125)"
       id="Layer_1"><path
         inkscape:connector-curvature="0"
         style="fill:#ffffff;fill-opacity:1;fill-rule:evenodd;stroke:#002600;stroke-width:2.5;stroke-miterlimit:4;stroke-dasharray:none;stroke-opacity:1"
         id="path5"
         d="m 9.1012074,514.91284 c 0,21.633 17.5279996,39.14691 39.1319996,39.147 l 471.594793,0.002 c 21.473,-0.064 38.813,-17.546 38.813,-39.147 V 50.499 c 0,-21.553 -17.34,-39.068 -38.813,-39.13 L 48.233207,11.3671 c -21.604,-8.6e-5 -39.1319996,17.528 -39.1319996,39.13 v 464.41574"
         clip-rule="evenodd"
         sodipodi:nodetypes="cscsscssc" /><path
         id="path9"
         style="fill:#006ec7;fill-opacity:1;fill-rule:evenodd;stroke:none;stroke-width:0.142147"
         transform="matrix(-7.0349749,0,0,7.0349749,2050.7089,-5030.9649)"
         d="m 217.4668,719.50391 c -1.51657,0 -2.74805,1.22867 -2.74805,2.74609 v 66.56641 c 0.0138,1.51031 1.23973,2.72656 2.74805,2.72656 h 67.64453 0.0254 c 1.50548,0 2.73049,-1.21625 2.74414,-2.72656 V 722.25 c 0,-1.51742 -1.22715,-2.74609 -2.74414,-2.74609 h -0.0254 z m 65.75125,59.40471 h -64.43448 l 32.44476,-54.57423 z"
         sodipodi:nodetypes="sscscscsscscccc" /></g><g
       transform="translate(-9.96875,-10.125)"
       id="Layer_2" /></g><path
     sodipodi:nodetypes="scccccccccccccssscccccccccascccccccscsasscsccsaccaccss"
     id="path4376"
     d="m 169.77309,116.89302 c -4.67322,-2.37435 -7.91802,-7.31238 -7.98648,-12.83545 0.0684,-7.968587 6.43596,-14.336177 14.26157,-14.261527 7.88499,-0.0748 14.25359,6.29294 14.26162,14.261527 -0.005,3.14978 -1.09992,6.16148 -2.85234,8.55703 -0.39278,0.37305 -2.0833,5.49201 1.71144,6.03791 3.64296,0.29963 12.04572,5.06082 18.49191,11.62787 12.76245,13.40916 16.12577,28.75589 18.33746,51.39072 0.72756,0.2152 2.56643,3.80575 2.44052,6.65465 0.12618,2.73024 -4.22699,5.3086 -11.66362,5.42042 -1.80496,-0.11196 -5.89571,-1.21101 -5.86263,-3.92987 -0.0321,-1.52767 0.60143,-1.90834 0.91909,-3.07438 0.52737,-1.20028 0.0184,-3.96838 0.095,-9.25431 -0.0753,-5.36352 -4.05423,-14.72896 -9.2929,-22.74996 0,0 -5.97688,29.07474 9.48855,61.89017 3.10747,6.59377 12.72014,12.28345 17.27282,19.10678 1.3428,2.0125 -2.3225,5.41024 -0.52126,7.33908 2.90144,3.10743 4.89985,5.60801 7.5765,9.25261 0,0 -9.54013,14.38372 -9.82416,14.83212 -1.63114,3.38282 -5.04724,4.53065 -6.84559,4.84896 -0.77216,0.19639 -6.30872,0.78722 -6.56086,0.85563 -0.50782,0.0184 -2.36738,0.3547 -2.28185,-0.85563 -0.0858,-1.49463 0.42903,-1.80151 0.85568,-1.99662 1.39992,-0.84774 3.17602,-1.56424 3.99379,-4.84896 0,0 2.88212,-8.59351 2.91553,-9.82462 l -3.21108,-3.04589 c 0,0 -15.04076,5.80729 -22.96282,6.7551 -14.89213,1.78174 -44.94328,-2.15681 -44.94328,-2.15681 -2.0475,3.30312 -6.43706,13.68429 -6.43706,13.68429 l -4.8358,0.0918 -17.02122,-12.29661 c 0,0 -1.82056,-0.48029 -1.86957,-1.55296 0.0491,-0.82832 1.12718,-1.27332 1.71135,-1.42612 0.80892,-0.0996 12.66985,0.44096 12.7463,0.35011 0.30422,0.0913 1.06445,-0.0367 1.14094,-0.85568 -0.005,-1.32642 2.91012,-4.01013 1.71539,-4.69685 l -4.69557,-2.699 c 0,0 2.16209,-3.12628 4.72425,-7.77573 4.61329,-8.37142 7.10153,-15.22063 10.84305,-22.73793 1.39992,-2.81265 3.05855,-5.49802 4.34133,-8.36596 4.64629,-10.38842 11.77356,-19.5303 11.8317,-31.10454 0.0321,-5.25836 0.50107,-6.43427 -0.49864,-15.76745 0,0 -3.24246,3.13073 -7.38102,7.03647 -5.57579,5.26184 -14.05642,11.85721 -30.51073,13.40723 0,0 -1.05877,1.29269 -2.56708,1.42622 -2.02777,-0.072 -4.57484,-3.48956 -4.22547,-6.40036 0.29321,-2.43965 0.72738,-3.29532 1.57205,-4.7237 0.65946,-1.1152 2.72134,-2.92195 2.64035,-2.85234 0.58733,-0.0697 1.60182,-0.16519 2.56702,1.42622 0,0 11.2875,-7.6551 16.19598,-12.34356 5.0565,-4.82996 12.85339,-12.55196 13.46711,-16.08456 2.49402,-8.73919 10.88201,-16.20093 16.73265,-21.17126 1.14893,-0.86242 3.47075,-3.13638 0,-4.56365 z"
     style="fill:#000000;fill-opacity:1;fill-rule:nonzero;stroke:none;stroke-width:0.971266"
     inkscape:connector-curvature="0" /><path
     d="m 119.85563,223.12188 h 17.83309 v 1.70263 h -17.83309 z"
     style="fill:#000000;fill-opacity:1;fill-rule:evenodd;stroke-width:2.14073"
     id="rect10938" /><path
     id="path10941"
     style="fill:#000000;fill-opacity:1;fill-rule:evenodd;stroke-width:2.14073"
     d="m 95.869842,223.12188 h 17.833028 v 1.70263 H 95.869842 Z" /><path
     d="m 71.884042,223.12188 h 17.83309 v 1.70263 h -17.83309 z"
     style="fill:#000000;fill-opacity:1;fill-rule:evenodd;stroke-width:2.14073"
     id="path10943" /><path
     id="path10945"
     style="fill:#000000;fill-opacity:1;fill-rule:evenodd;stroke-width:2.14073"
     d="m 221.79528,223.12188 h 17.83304 v 1.70263 h -17.83304 z" /><path
     d="m 245.18149,223.12197 h 17.83304 v 1.70268 h -17.83304 z"
     style="fill:#000000;fill-opacity:1;fill-rule:evenodd;stroke-width:2.14073"
     id="path10947" /><path
     id="path10949"
     style="fill:#000000;fill-opacity:1;fill-rule:evenodd;stroke-width:1.79751"
     d="m 267.8311,223.12197 h 12.57312 v 1.70268 H 267.8311 Z" /><path
     d="m 300.81162,271.09356 h 10.06396 v 1.70268 h -10.06396 z"
     style="fill:#000000;fill-opacity:1;fill-rule:evenodd;stroke-width:1.60818"
     id="path10960" /><path
     id="path10962"
     style="fill:#000000;fill-opacity:1;fill-rule:evenodd;stroke-width:2.14073"
     d="m 278.76156,271.09356 h 17.83303 v 1.70268 h -17.83303 z" /><path
     d="m 255.67526,271.09356 h 17.83308 v 1.70268 h -17.83308 z"
     style="fill:#000000;fill-opacity:1;fill-rule:evenodd;stroke-width:2.14073"
     id="path10964" /><path
     id="path10966"
     style="fill:#000000;fill-opacity:1;fill-rule:evenodd;stroke-width:2.14073"
     d="m 231.3896,271.09356 h 17.83304 v 1.70268 H 231.3896 Z" /><path
     d="m 207.40385,271.09356 h 17.83304 v 1.70268 h -17.83304 z"
     style="fill:#000000;fill-opacity:1;fill-rule:evenodd;stroke-width:2.14073"
     id="path10968" /><path
     id="path10970"
     style="fill:#000000;fill-opacity:1;fill-rule:evenodd;stroke-width:2.14073"
     d="m 184.01765,271.09356 h 17.83303 v 1.70268 h -17.83303 z" /><path
     d="m 160.0319,271.09356 h 17.83303 v 1.70268 H 160.0319 Z"
     style="fill:#000000;fill-opacity:1;fill-rule:evenodd;stroke-width:2.14073"
     id="path10972" /><path
     id="path10974"
     style="fill:#000000;fill-opacity:1;fill-rule:evenodd;stroke-width:2.14073"
     d="m 136.04606,271.09356 h 17.83303 v 1.70268 h -17.83303 z" /><path
     d="m 114.15902,271.09356 h 17.83299 v 1.70268 h -17.83299 z"
     style="fill:#000000;fill-opacity:1;fill-rule:evenodd;stroke-width:2.14073"
     id="path10976" /><path
     id="path10978"
     style="fill:#000000;fill-opacity:1;fill-rule:evenodd;stroke-width:2.14073"
     d="m 91.672312,271.09356 h 17.833078 v 1.70268 H 91.672312 Z" /><path
     d="m 65.587752,271.09356 h 17.83304 v 1.70268 h -17.83304 z"
     style="fill:#000000;fill-opacity:1;fill-rule:evenodd;stroke-width:2.14073"
     id="path10980" /><path
     id="path10982"
     style="fill:#000000;fill-opacity:1;fill-rule:evenodd;stroke-width:1.70933"
     d="m 47.898252,271.09356 h 11.36972 v 1.70268 h -11.36972 z" /></svg>
