<?xml version="1.0" encoding="UTF-8" standalone="no"?>
<svg
   xmlns:dc="http://purl.org/dc/elements/1.1/"
   xmlns:cc="http://creativecommons.org/ns#"
   xmlns:rdf="http://www.w3.org/1999/02/22-rdf-syntax-ns#"
   xmlns:svg="http://www.w3.org/2000/svg"
   xmlns="http://www.w3.org/2000/svg"
   xmlns:sodipodi="http://sodipodi.sourceforge.net/DTD/sodipodi-0.dtd"
   xmlns:inkscape="http://www.inkscape.org/namespaces/inkscape"
   sodipodi:docname="Moldova_road_sign_5.36 (L).svg"
   inkscape:version="1.0 (4035a4fb49, 2020-05-01)"
   id="svg4173"
   version="1.1"
   viewBox="0 0 51.544659 17.181557"
   height="17.181557mm"
   width="51.544659mm">
  <defs
     id="defs4167" />
  <sodipodi:namedview
     inkscape:window-maximized="0"
     inkscape:window-y="0"
     inkscape:window-x="128"
     inkscape:window-height="1030"
     inkscape:window-width="1424"
     showgrid="false"
     inkscape:document-rotation="0"
     inkscape:current-layer="layer1"
     inkscape:document-units="mm"
     inkscape:cy="84.525871"
     inkscape:cx="71.184818"
     inkscape:zoom="2.0635019"
     inkscape:pageshadow="2"
     inkscape:pageopacity="0.0"
     borderopacity="1.0"
     bordercolor="#666666"
     pagecolor="#ffffff"
     id="base" />
  <metadata
     id="metadata4170">
    <rdf:RDF>
      <cc:Work
         rdf:about="">
        <dc:format>image/svg+xml</dc:format>
        <dc:type
           rdf:resource="http://purl.org/dc/dcmitype/StillImage" />
        <dc:title></dc:title>
      </cc:Work>
    </rdf:RDF>
  </metadata>
  <g
     transform="translate(-170.77529,111.4003)"
     id="layer1"
     inkscape:groupmode="layer"
     inkscape:label="Layer 1">
    <path
       id="rect7193"
       style="color:#000000;display:inline;overflow:visible;visibility:visible;fill:#ffffff;fill-opacity:1;fill-rule:nonzero;stroke:none;stroke-width:0.173927;marker:none;enable-background:accumulate"
       d="m 172.98435,-111.4003 c -1.22382,0 -2.20906,0.98524 -2.20906,2.20905 v 12.763446 c 0,1.223804 0.98524,2.20906 2.20906,2.20906 h 47.12654 c 1.22382,0 2.20906,-0.985256 2.20906,-2.20906 v -12.763446 c 0,-1.22381 -0.98524,-2.20905 -2.20906,-2.20905 z"
       inkscape:connector-curvature="0"
       sodipodi:nodetypes="sssssssss" />
    <path
       id="rect7101"
       style="color:#000000;display:inline;overflow:visible;visibility:visible;fill:none;stroke:#000000;stroke-width:0.0981803;stroke-miterlimit:4;stroke-dasharray:none;stroke-opacity:1;marker:none;enable-background:accumulate"
       d="m 173.03344,-111.35121 c -1.22382,0 -2.20906,0.98524 -2.20906,2.20906 v 12.665266 c 0,1.223804 0.98524,2.209033 2.20906,2.209033 h 47.02836 c 1.22382,0 2.20906,-0.985229 2.20906,-2.209033 v -12.665266 c 0,-1.22382 -0.98524,-2.20906 -2.20906,-2.20906 z"
       inkscape:connector-curvature="0"
       sodipodi:nodetypes="sssssssss" />
    <path
       inkscape:connector-curvature="0"
       style="color:#000000;display:inline;overflow:visible;visibility:visible;fill:#0000fe;fill-opacity:1;fill-rule:nonzero;stroke:none;stroke-width:0.173927;marker:none;enable-background:accumulate"
       d="m 220.11089,-110.4185 c 0.6799,0 1.22725,0.54735 1.22725,1.22725 v 2.16151 l -39.39484,-0.0506 v -2.77358 l -9.75667,7.04443 9.75667,7.044428 v -2.773574 l 39.39484,0.05062 v 2.060252 c 0,0.6799 -0.54735,1.227244 -1.22725,1.227244 h -47.12654 c -0.6799,0 -1.22726,-0.547344 -1.22726,-1.227244 v -12.763446 c 0,-0.6799 0.54736,-1.22725 1.22726,-1.22725 z"
       id="rect12290"
       sodipodi:nodetypes="sscccccccsssssss" />
    <path
       style="fill:#000000;stroke-width:0.0268912"
       d="m 183.38749,-100.38581 c -0.19388,-0.0414 -0.2268,-0.054 -0.59161,-0.22574 -0.21227,-0.1 -0.50225,-0.29142 -0.68572,-0.45276 l -0.0941,-0.0828 0.0832,-0.0744 c 0.0458,-0.0409 0.17531,-0.1506 0.28783,-0.24376 l 0.20458,-0.16941 0.14243,0.11591 c 0.19986,0.16267 0.35793,0.25019 0.59649,0.33028 0.36715,0.12322 0.80949,0.11721 1.06776,-0.0145 0.47504,-0.24236 0.5458,-0.75702 0.13952,-1.01489 -0.19744,-0.12531 -0.31055,-0.16314 -0.70521,-0.23596 -0.48738,-0.0899 -0.54369,-0.10604 -0.80003,-0.22894 -0.74857,-0.35888 -0.96493,-1.10472 -0.53385,-1.84028 0.10002,-0.17069 0.37266,-0.40357 0.59725,-0.51017 0.60278,-0.28612 1.24017,-0.26406 1.88538,0.0652 0.23645,0.12068 0.54936,0.32396 0.56257,0.36547 0.005,0.0153 -0.10927,0.15227 -0.25365,0.3043 l -0.26251,0.27649 -0.16,-0.12108 c -0.40904,-0.30953 -0.83478,-0.40856 -1.23063,-0.2863 -0.29114,0.0899 -0.48438,0.28694 -0.52101,0.53118 -0.0506,0.33766 0.16451,0.53411 0.71499,0.6528 0.88914,0.19175 1.1892,0.31068 1.45762,0.57767 0.28117,0.27969 0.38258,0.5285 0.36506,0.89567 -0.0138,0.28842 -0.0819,0.47349 -0.26171,0.71104 -0.24781,0.32737 -0.66695,0.59473 -1.06426,0.67889 -0.23722,0.0502 -0.6957,0.0483 -0.94042,-0.004 z m 14.33973,-0.0106 c -0.24249,-0.0596 -0.69551,-0.26652 -0.92356,-0.4218 -0.22839,-0.15555 -0.39994,-0.31464 -0.37782,-0.35044 0.0195,-0.0315 0.46147,-0.40942 0.52213,-0.44643 0.0219,-0.0135 0.0839,0.0238 0.17252,0.10345 0.5179,0.46564 1.45844,0.55147 1.84872,0.16873 0.3277,-0.32137 0.27494,-0.6898 -0.13273,-0.92698 -0.13617,-0.0792 -0.32143,-0.133 -0.67228,-0.19518 -0.3931,-0.0697 -0.56124,-0.11851 -0.78232,-0.22704 -0.24188,-0.1188 -0.36309,-0.21616 -0.49959,-0.40137 -0.46209,-0.62698 -0.17829,-1.5757 0.58093,-1.94194 0.60602,-0.29236 1.29718,-0.2582 1.95323,0.0965 0.25411,0.1374 0.52775,0.32076 0.51745,0.34677 -0.005,0.0116 -0.12541,0.14552 -0.26853,0.29773 l -0.2602,0.27676 -0.14211,-0.11317 c -0.16891,-0.13448 -0.46455,-0.27913 -0.66487,-0.3253 -0.29197,-0.0673 -0.71035,0.0217 -0.90496,0.19264 -0.12896,0.11322 -0.20515,0.28612 -0.20515,0.46554 0,0.33274 0.19951,0.44719 1.12439,0.645 0.85938,0.1838 1.31703,0.56486 1.41112,1.17488 0.0624,0.40431 -0.0665,0.7375 -0.42181,1.0904 -0.25298,0.2513 -0.52685,0.40751 -0.86696,0.49451 -0.27009,0.0691 -0.71922,0.0676 -1.0076,-0.003 z m 21.318,0.0272 c -0.32147,-0.0659 -0.63554,-0.24686 -0.8821,-0.50821 -0.21796,-0.23106 -0.41331,-0.60984 -0.52127,-1.01074 -0.0686,-0.25487 -0.0723,-0.29985 -0.0728,-0.90022 -2.6e-4,-0.60364 0.003,-0.64399 0.0722,-0.90085 0.2694,-0.99544 0.9149,-1.54625 1.81209,-1.54625 0.72404,0 1.28594,0.37904 1.60732,1.08426 l 0.0926,0.20328 -0.0994,0.032 c -0.0547,0.0177 -0.22357,0.0789 -0.3753,0.1361 -0.15174,0.0572 -0.28767,0.10406 -0.30203,0.10406 -0.0144,0 -0.0341,-0.0333 -0.0439,-0.0739 -0.0583,-0.24225 -0.29275,-0.54089 -0.51286,-0.65333 -0.1072,-0.0548 -0.16812,-0.066 -0.35778,-0.066 -0.19666,0 -0.25028,0.0106 -0.38407,0.0764 -0.42752,0.20995 -0.69222,0.72824 -0.73516,1.43947 -0.0285,0.47138 0.0702,0.98647 0.25132,1.31151 0.23426,0.42056 0.69961,0.63153 1.12207,0.50871 0.20896,-0.0607 0.41133,-0.25087 0.5393,-0.5067 0.0517,-0.10329 0.094,-0.20513 0.094,-0.22632 0,-0.0273 0.0176,-0.0333 0.0605,-0.0206 0.0548,0.0161 0.55837,0.19746 0.6723,0.24201 0.0656,0.0257 0.0594,0.0702 -0.0368,0.26215 -0.26669,0.53216 -0.67946,0.88712 -1.16153,0.99883 -0.19466,0.0451 -0.6509,0.053 -0.83868,0.0145 z m -12.26239,-0.057 c -0.20591,-0.0384 -0.61847,-0.24976 -0.75586,-0.38716 -0.17213,-0.17214 -0.32319,-0.42008 -0.40738,-0.66868 l -0.0736,-0.21725 -0.008,-1.71432 -0.008,-1.71431 h 0.40303 0.40303 l 0.009,1.71431 c 0.0104,1.96401 -2.6e-4,1.87156 0.24812,2.12006 0.34432,0.34433 0.92206,0.34443 1.26574,1.8e-4 0.24889,-0.24926 0.24007,-0.17372 0.2495,-2.1337 l 0.008,-1.70085 h 0.4019 0.4019 v 1.62515 c 0,1.75038 -0.005,1.81896 -0.14464,2.1636 -0.078,0.19196 -0.1873,0.3555 -0.34845,0.52131 -0.14445,0.14862 -0.5488,0.35232 -0.78246,0.3942 -0.19026,0.0341 -0.67384,0.0326 -0.86231,-0.003 z m -19.80537,-2.36217 v -2.33955 h 1.46558 1.46557 v 0.37647 0.37651 h -1.06221 -1.0622 v 0.5647 0.56472 h 0.86132 0.86133 l -0.007,0.34285 -0.007,0.34287 -0.8538,0.007 -0.8538,0.007 v 0.69879 0.69882 h 1.0891 1.08909 v 0.3496 0.34956 h -1.49252 -1.49246 z m 4.46394,0 v -2.33955 h 0.45661 0.4566 l 0.077,0.13488 c 0.0424,0.0742 0.43893,0.81929 0.88124,1.65574 l 0.80419,1.52085 0.007,-1.65574 0.007,-1.65573 h 0.40316 0.40316 v 2.33955 2.33953 h -0.46382 -0.46387 l -0.5837,-1.12237 c -0.32105,-0.6173 -0.71432,-1.37252 -0.87397,-1.67828 l -0.29026,-0.55591 -0.007,1.67862 -0.007,1.67862 h -0.40317 -0.40316 z m 18.9583,0 v -2.34013 l 0.47294,0.007 0.47295,0.007 0.71201,1.34456 c 0.3916,0.73948 0.78685,1.48635 0.87833,1.65965 l 0.16633,0.31509 0.007,-1.66637 0.007,-1.66637 h 0.40317 0.40316 v 2.34013 2.34016 l -0.47276,-0.007 -0.47277,-0.007 -0.87851,-1.69 -0.87852,-1.69003 -0.007,1.69675 -0.007,1.69672 h -0.40317 -0.40317 z m 5.00175,0 v -2.33955 h 0.40337 0.40338 v 2.33955 2.33953 h -0.40338 -0.40337 z"
       id="path53883"
       inkscape:connector-curvature="0" />
  </g>
</svg>
