<?xml version="1.0" encoding="UTF-8" standalone="no"?>
<svg
   xmlns:dc="http://purl.org/dc/elements/1.1/"
   xmlns:cc="http://creativecommons.org/ns#"
   xmlns:rdf="http://www.w3.org/1999/02/22-rdf-syntax-ns#"
   xmlns:svg="http://www.w3.org/2000/svg"
   xmlns="http://www.w3.org/2000/svg"
   xmlns:sodipodi="http://sodipodi.sourceforge.net/DTD/sodipodi-0.dtd"
   xmlns:inkscape="http://www.inkscape.org/namespaces/inkscape"
   sodipodi:docname="drawing.svg"
   inkscape:version="1.0 (4035a4fb49, 2020-05-01)"
   id="svg73059"
   version="1.1"
   viewBox="0 0 133.36981 134.25653"
   height="134.25653mm"
   width="133.36981mm">
  <defs
     id="defs73053">
    <clipPath
       id="clip2-0">
      <path
         id="path46879"
         d="m 478.22656,249.28125 h 73.70313 v 74.24219 h -73.70313 z m 0,0" />
    </clipPath>
  </defs>
  <sodipodi:namedview
     inkscape:window-maximized="1"
     inkscape:window-y="-9"
     inkscape:window-x="-9"
     inkscape:window-height="1001"
     inkscape:window-width="1920"
     showguides="false"
     showgrid="false"
     inkscape:document-rotation="0"
     inkscape:current-layer="layer1"
     inkscape:document-units="mm"
     inkscape:cy="256.03361"
     inkscape:cx="314.6816"
     inkscape:zoom="1.1651693"
     inkscape:pageshadow="2"
     inkscape:pageopacity="0.0"
     borderopacity="1.0"
     bordercolor="#666666"
     pagecolor="#ffffff"
     id="base" />
  <metadata
     id="metadata73056">
    <rdf:RDF>
      <cc:Work
         rdf:about="">
        <dc:format>image/svg+xml</dc:format>
        <dc:type
           rdf:resource="http://purl.org/dc/dcmitype/StillImage" />
        <dc:title></dc:title>
      </cc:Work>
    </rdf:RDF>
  </metadata>
  <g
     transform="translate(-30.071613,-104.1707)"
     id="layer1"
     inkscape:groupmode="layer"
     inkscape:label="Layer 1">
    <g
       transform="translate(-19.528637,-24.070182)"
       id="g73930"
       style="opacity:1">
      <path
         style="color:#000000;font-style:normal;font-variant:normal;font-weight:normal;font-stretch:normal;font-size:medium;line-height:normal;font-family:sans-serif;font-variant-ligatures:normal;font-variant-position:normal;font-variant-caps:normal;font-variant-numeric:normal;font-variant-alternates:normal;font-variant-east-asian:normal;font-feature-settings:normal;font-variation-settings:normal;text-indent:0;text-align:start;text-decoration:none;text-decoration-line:none;text-decoration-style:solid;text-decoration-color:#000000;letter-spacing:normal;word-spacing:normal;text-transform:none;writing-mode:lr-tb;direction:ltr;text-orientation:mixed;dominant-baseline:auto;baseline-shift:baseline;text-anchor:start;white-space:normal;shape-padding:0;shape-margin:0;inline-size:0;clip-rule:nonzero;display:inline;overflow:visible;visibility:visible;isolation:auto;mix-blend-mode:normal;color-interpolation:sRGB;color-interpolation-filters:linearRGB;solid-color:#000000;solid-opacity:1;vector-effect:none;fill:#000000;fill-opacity:1;fill-rule:evenodd;stroke:none;stroke-width:0.612;stroke-linecap:butt;stroke-linejoin:miter;stroke-miterlimit:22.9260006;stroke-dasharray:none;stroke-dashoffset:0;stroke-opacity:1;paint-order:stroke fill markers;color-rendering:auto;image-rendering:auto;shape-rendering:auto;text-rendering:auto;enable-background:accumulate;stop-color:#000000;stop-opacity:1"
         d="m 88.779297,128.54688 -0.236328,0.23828 -1.820313,1.83398 -36.816406,37.08203 v 55.31641 l 38.873047,39.17383 h 55.005863 l 38.8789,-39.17383 V 167.70117 L 143.7832,128.54688 Z m 0.671875,1.61328 h 53.660158 l 37.93945,38.20507 v 53.98829 l -37.9375,38.2246 H 89.451172 l -37.931641,-38.2246 v -53.98829 l 36.347657,-36.60937 z"
         id="path73932" />
      <path
         style="color:#000000;font-style:normal;font-variant:normal;font-weight:normal;font-stretch:normal;font-size:medium;line-height:normal;font-family:sans-serif;font-variant-ligatures:normal;font-variant-position:normal;font-variant-caps:normal;font-variant-numeric:normal;font-variant-alternates:normal;font-variant-east-asian:normal;font-feature-settings:normal;font-variation-settings:normal;text-indent:0;text-align:start;text-decoration:none;text-decoration-line:none;text-decoration-style:solid;text-decoration-color:#000000;letter-spacing:normal;word-spacing:normal;text-transform:none;writing-mode:lr-tb;direction:ltr;text-orientation:mixed;dominant-baseline:auto;baseline-shift:baseline;text-anchor:start;white-space:normal;shape-padding:0;shape-margin:0;inline-size:0;clip-rule:nonzero;display:inline;overflow:visible;visibility:visible;isolation:auto;mix-blend-mode:normal;color-interpolation:sRGB;color-interpolation-filters:linearRGB;solid-color:#000000;solid-opacity:1;vector-effect:none;fill:#ffffff;fill-opacity:1;fill-rule:evenodd;stroke:none;stroke-width:1.612;stroke-linecap:butt;stroke-linejoin:miter;stroke-miterlimit:22.926;stroke-dasharray:none;stroke-dashoffset:0;stroke-opacity:1;paint-order:stroke fill markers;color-rendering:auto;image-rendering:auto;shape-rendering:auto;text-rendering:auto;enable-background:accumulate;stop-color:#000000;stop-opacity:1"
         d="m 89.115234,129.35352 -1.820312,1.83398 -36.582031,36.8457 v 54.65235 l 38.402343,38.69922 h 54.333986 l 38.4082,-38.69922 V 168.0332 l -38.41015,-38.67968 z"
         id="path73934" />
    </g>
    <path
       style="color:#000000;font-style:normal;font-variant:normal;font-weight:normal;font-stretch:normal;font-size:medium;line-height:normal;font-family:sans-serif;font-variant-ligatures:normal;font-variant-position:normal;font-variant-caps:normal;font-variant-numeric:normal;font-variant-alternates:normal;font-variant-east-asian:normal;font-feature-settings:normal;font-variation-settings:normal;text-indent:0;text-align:start;text-decoration:none;text-decoration-line:none;text-decoration-style:solid;text-decoration-color:#000000;letter-spacing:normal;word-spacing:normal;text-transform:none;writing-mode:lr-tb;direction:ltr;text-orientation:mixed;dominant-baseline:auto;baseline-shift:baseline;text-anchor:start;white-space:normal;shape-padding:0;shape-margin:0;inline-size:0;clip-rule:nonzero;display:inline;overflow:visible;visibility:visible;opacity:1;isolation:auto;mix-blend-mode:normal;color-interpolation:sRGB;color-interpolation-filters:linearRGB;solid-color:#000000;solid-opacity:1;vector-effect:none;fill:#c2171c;fill-opacity:1;fill-rule:evenodd;stroke:none;stroke-width:12.412;stroke-linecap:butt;stroke-linejoin:miter;stroke-miterlimit:22.926;stroke-dasharray:none;stroke-dashoffset:0;stroke-opacity:1;paint-order:stroke fill markers;color-rendering:auto;image-rendering:auto;shape-rendering:auto;text-rendering:auto;enable-background:accumulate;stop-color:#000000"
       d="m 72.170915,111.49004 -34.781192,35.03154 v 49.53727 l 34.781192,35.04973 H 121.3358 l 34.78735,-35.04973 V 146.52158 L 121.3358,111.49004 Z m -14.37153,36.13652 c 6.145286,0 11.13585,5.02743 11.13585,11.21524 v 2.49694 h -6.593636 v -2.49694 c 0,-2.52753 -2.028856,-4.57281 -4.542214,-4.57281 -2.513358,0 -4.542333,2.04528 -4.542333,4.57281 0,2.8177 -0.340249,5.83233 2.845102,7.14915 l 5.885373,2.39923 c 4.191214,1.70633 6.947708,5.79913 6.947708,10.37277 v 4.99399 c 0,6.54886 -5.236891,11.22127 -11.544977,11.22127 -6.145286,0 -11.135732,-5.03345 -11.135732,-11.22127 v -2.49091 h 6.593518 v 2.49091 c 0,6.0249 9.493555,6.08161 9.493555,0 v -4.99399 c 0,-1.85495 -1.134165,-3.54321 -2.826671,-4.23705 l -5.891517,-2.39936 c -4.205391,-1.68506 -6.959877,-5.81318 -6.959877,-10.37265 v -2.91209 c 0,-6.18781 4.983476,-11.21524 11.135851,-11.21524 z m 50.294325,0 c 6.13111,0 11.12368,5.02743 11.12368,11.21524 v 24.91514 c 0,6.1949 -4.99257,11.22127 -11.12368,11.22127 -6.14528,0 -11.135847,-5.02637 -11.135847,-11.22127 V 158.8418 c 0,-6.18781 4.990567,-11.21524 11.135847,-11.21524 z m -36.685994,0.41468 h 22.271697 v 6.22728 h -7.83294 v 40.27575 h -6.593522 v -40.27575 h -7.845235 z m 54.403194,0 h 10.72684 c 5.91869,0 10.72673,4.83887 10.72673,10.80009 v 6.64243 c 0,5.94704 -4.80804,10.7878 -10.72673,10.7878 h -4.13934 v 18.27271 h -6.5875 z m -17.7172,6.22728 c -2.51336,0 -4.54221,2.04528 -4.54221,4.57281 v 24.91514 c 0,2.51335 2.02885,4.56052 4.54221,4.56052 2.47792,0 4.51174,-2.04717 4.51174,-4.56052 v -24.91514 c 0,-2.52753 -2.03382,-4.57281 -4.51174,-4.57281 z m 24.3047,0 v 15.79408 h 4.13934 c 2.4921,0 4.52391,-2.04422 4.52391,-4.57884 v -6.64243 c 0,-2.52753 -2.03181,-4.57281 -4.52391,-4.57281 z"
       id="path73928" />
  </g>
</svg>
