<?xml version="1.0" encoding="UTF-8" standalone="no"?>
<!-- Created with Inkscape (http://www.inkscape.org/) -->

<svg
   width="1081.425"
   height="400"
   viewBox="0 0 286.12704 105.83334"
   version="1.1"
   id="svg12921"
   inkscape:version="1.1.2 (b8e25be833, 2022-02-05)"
   sodipodi:docname="Luxembourg road sign E,13b-1.svg"
   xmlns:inkscape="http://www.inkscape.org/namespaces/inkscape"
   xmlns:sodipodi="http://sodipodi.sourceforge.net/DTD/sodipodi-0.dtd"
   xmlns="http://www.w3.org/2000/svg"
   xmlns:svg="http://www.w3.org/2000/svg">
  <sodipodi:namedview
     id="namedview12923"
     pagecolor="#ffffff"
     bordercolor="#666666"
     borderopacity="1.0"
     inkscape:pageshadow="2"
     inkscape:pageopacity="0.0"
     inkscape:pagecheckerboard="0"
     inkscape:document-units="mm"
     showgrid="false"
     inkscape:zoom="0.5"
     inkscape:cx="553"
     inkscape:cy="13"
     inkscape:window-width="1920"
     inkscape:window-height="1001"
     inkscape:window-x="-9"
     inkscape:window-y="-9"
     inkscape:window-maximized="1"
     inkscape:current-layer="svg12921"
     showguides="true"
     inkscape:guide-bbox="true"
     inkscape:snap-intersection-paths="false"
     inkscape:snap-smooth-nodes="false"
     inkscape:snap-bbox="false"
     inkscape:snap-bbox-edge-midpoints="false"
     inkscape:bbox-nodes="false"
     units="px"
     inkscape:object-paths="false" />
  <defs
     id="defs12918" />
  <rect
     style="fill:#ffffff;fill-opacity:1;stroke:#282828;stroke-width:0.529167;stroke-linecap:round;stroke-miterlimit:4;stroke-dasharray:none;stroke-opacity:1"
     id="rect13771"
     width="285.59793"
     height="105.30419"
     x="0.2645835"
     y="0.26457545"
     ry="14.041875" />
  <rect
     style="fill:#1c4b85;fill-opacity:1;stroke:none;stroke-width:1.41645;stroke-linecap:round;stroke-miterlimit:4;stroke-dasharray:none;stroke-opacity:1"
     id="rect10715"
     width="275.07056"
     height="94.776756"
     x="5.5282683"
     y="5.528286"
     ry="8.7781677"
     inkscape:label="rect13773" />
  <path
     id="path1981"
     style="fill:#ffffff;fill-opacity:1;fill-rule:nonzero;stroke:none;stroke-width:0.313372;stroke-opacity:1"
     d="M 271.53793,52.917288 203.92076,14.534274 c -2.5571,-1.45185 -5.83527,-0.591333 -7.31282,1.925355 -0.70887,1.210555 -0.90596,2.647677 -0.53368,4.001757 l 4.06035,14.90709 H 12.708862 V 70.464849 H 200.13461 l -4.06035,14.90709 c -0.76777,2.810629 0.93008,5.70086 3.78741,6.45483 1.37224,0.357558 2.83005,0.170163 4.05909,-0.526457 z"
     sodipodi:nodetypes="cccccccccccc"
     inkscape:label="path13775" />
  <path
     d="m 22.024459,53.814318 3.884643,-0.381409 c 0.229857,1.306027 0.703192,2.2632 1.422331,2.875355 0.712292,0.60671 1.674905,0.915075 2.887885,0.915075 1.283491,0 2.255227,-0.271718 2.9038,-0.819258 0.653139,-0.543221 0.980833,-1.176774 0.980833,-1.904319 0,-0.470167 -0.136531,-0.865682 -0.414188,-1.192245 -0.273071,-0.330659 -0.750977,-0.616493 -1.435968,-0.85567 -0.464243,-0.163849 -1.531542,-0.450368 -3.192836,-0.864313 -2.139172,-0.529109 -3.641132,-1.182239 -4.50136,-1.956434 -1.212953,-1.085054 -1.820567,-2.410889 -1.820567,-3.974759 0,-1.007681 0.284469,-1.946641 0.855665,-2.824853 0.571207,-0.874089 1.392744,-1.541104 2.466872,-2.001473 1.07644,-0.456059 2.369027,-0.685452 3.886915,-0.685452 2.485094,0 4.348911,0.543213 5.605098,1.628501 1.251646,1.090746 1.909307,2.539239 1.973025,4.357531 l -3.989302,0.17524 c -0.182065,-1.016108 -0.537092,-1.747978 -1.099181,-2.189926 -0.562114,-0.446263 -1.404113,-0.667234 -2.526033,-0.667234 -1.160633,0 -2.070899,0.235075 -2.724045,0.713666 -0.423256,0.302669 -0.63492,0.712073 -0.63492,1.222965 0,0.468798 0.204833,0.870001 0.591703,1.200671 0.502928,0.423736 1.727242,0.865671 3.668432,1.321726 1.941188,0.45878 3.377166,0.933045 4.307933,1.421646 0.928501,0.492452 1.654436,1.158334 2.184678,2.009903 0.523413,0.85157 0.785123,1.899995 0.785123,3.147081 0,1.131704 -0.311785,2.195834 -0.942147,3.179624 -0.630381,0.989485 -1.517886,1.725455 -2.669405,2.204028 -1.149245,0.482908 -2.585205,0.72208 -4.301103,0.72208 -2.496464,0 -4.41714,-0.574158 -5.75528,-1.729761 -1.338116,-1.155607 -2.139164,-2.838947 -2.398601,-5.047303"
     style="fill:#282828;fill-opacity:1;fill-rule:nonzero;stroke:none;stroke-width:1.4075;stroke-opacity:1"
     id="path418"
     inkscape:label="path13777" />
  <path
     d="m 49.694865,55.687004 3.777671,0.630366 c -0.486999,1.383634 -1.251636,2.437293 -2.300735,3.160967 -1.044576,0.725945 -2.355358,1.08551 -3.927893,1.08551 -2.489623,0 -4.330682,-0.810147 -5.525434,-2.439565 -0.94442,-1.301699 -1.417751,-2.949318 -1.417751,-4.931457 0,-2.373579 0.621277,-4.232832 1.863793,-5.575502 1.237994,-1.344953 2.805954,-2.016283 4.701626,-2.016283 2.130058,0 3.809546,0.705466 5.040717,2.111862 1.228871,1.408669 1.818292,3.561489 1.768218,6.465304 h -9.491986 c 0.02273,1.121927 0.332251,1.995794 0.914814,2.617065 0.584892,0.62582 1.317648,0.937588 2.18698,0.937588 0.591696,0 1.09005,-0.159295 1.495139,-0.482442 0.405064,-0.325436 0.712282,-0.846566 0.914841,-1.563413 m 0.204823,-3.827751 c -0.02282,-1.099168 -0.307235,-1.93208 -0.846582,-2.503285 -0.537058,-0.571204 -1.194752,-0.855667 -1.968487,-0.855667 -0.828356,0 -1.5088,0.302668 -2.048147,0.905724 -0.537057,0.598528 -0.803334,1.417776 -0.796486,2.453228 z"
     style="fill:#282828;fill-opacity:1;fill-rule:nonzero;stroke:none;stroke-width:2.27571;stroke-opacity:1"
     id="path236"
     inkscape:label="path13779" />
  <path
     d="m 69.782582,60.241611 h -3.786786 v -7.307317 c 0,-1.545212 -0.09105,-2.541963 -0.243501,-2.999389 -0.159308,-0.450585 -0.42784,-0.803321 -0.791953,-1.058202 -0.364124,-0.248056 -0.801058,-0.375488 -1.310817,-0.375488 -0.657668,0 -1.247099,0.179781 -1.765945,0.537058 -0.521128,0.364113 -0.878437,0.837466 -1.071865,1.431432 -0.204797,0.593959 -0.291297,1.688572 -0.291297,3.2884 v 6.483506 H 56.73365 V 45.927376 h 3.51596 v 2.102756 c 1.251648,-1.618029 2.824165,-2.428173 4.719829,-2.428173 0.832929,0 1.602117,0.152463 2.291649,0.450582 0.689539,0.302669 1.215225,0.684993 1.567967,1.153782 0.355009,0.471083 0.603065,0.999046 0.74188,1.593006 0.136541,0.593964 0.204816,1.440523 0.204816,2.544246 z"
     style="fill:#282828;fill-opacity:1;fill-rule:nonzero;stroke:none;stroke-width:2.27571;stroke-opacity:1"
     id="path240"
     inkscape:label="path13781" />
  <path
     d="m 72.290407,56.155803 3.80044,-0.580313 c 0.159306,0.737328 0.487017,1.297149 0.983123,1.679479 0.493825,0.382311 1.183372,0.575751 2.075454,0.575751 0.980816,0 1.715881,-0.179781 2.209713,-0.543894 0.334526,-0.248054 0.500654,-0.587133 0.500654,-1.008137 0,-0.289021 -0.09103,-0.527969 -0.270815,-0.716859 -0.182059,-0.179777 -0.612161,-0.343629 -1.265293,-0.496099 -3.056285,-0.671337 -4.992918,-1.288055 -5.812177,-1.845604 -1.131025,-0.771461 -1.697679,-1.850157 -1.697679,-3.224686 0,-1.237995 0.489274,-2.282539 1.467842,-3.124551 0.980823,-0.846564 2.498728,-1.26985 4.555972,-1.26985 1.959389,0 3.418126,0.32315 4.369371,0.958069 0.953524,0.639476 1.606648,1.58163 1.966208,2.833272 l -3.570592,0.657669 c -0.159299,-0.555266 -0.441482,-0.985371 -0.869315,-1.278945 -0.427839,-0.298109 -1.035453,-0.446033 -1.827407,-0.446033 -0.999032,0 -1.711332,0.138813 -2.14372,0.418726 -0.284451,0.197997 -0.42784,0.455142 -0.42784,0.769199 0,0.270809 0.13655,0.496102 0.377777,0.684984 0.33908,0.252603 1.517895,0.60761 3.536455,1.067315 2.016295,0.455138 3.424947,1.017237 4.22373,1.684017 0.791947,0.675888 1.187915,1.613486 1.187915,2.815064 0,1.310808 -0.548438,2.444115 -1.647609,3.386256 -1.09462,0.942145 -2.714929,1.413214 -4.86319,1.413214 -1.950301,0 -3.490957,-0.395975 -4.633368,-1.187908 -1.135575,-0.787408 -1.875179,-1.863827 -2.225649,-3.220136"
     style="fill:#282828;fill-opacity:1;fill-rule:nonzero;stroke:none;stroke-width:2.27571;stroke-opacity:1"
     id="path244"
     inkscape:label="path13783" />
  <path
     d="m 106.06883,60.241611 v -2.143725 c -0.52569,0.762377 -1.21068,1.365435 -2.05725,1.80692 -0.85112,0.436937 -1.74774,0.657686 -2.68989,0.657686 -0.96263,0 -1.822853,-0.209374 -2.587491,-0.628099 -0.762369,-0.42328 -1.31537,-1.01725 -1.661274,-1.781877 -0.339079,-0.764646 -0.509761,-1.822859 -0.509761,-3.170082 v -9.055058 h 3.786816 v 6.574533 c 0,2.016281 0.0683,3.249726 0.20478,3.704864 0.13656,0.450595 0.39145,0.810147 0.76009,1.076414 0.3664,0.266254 0.8352,0.395975 1.40185,0.395975 0.64858,0 1.22889,-0.17523 1.73865,-0.53025 0.51203,-0.357278 0.86021,-0.794218 1.0491,-1.319916 0.18206,-0.527956 0.28675,-1.816015 0.28675,-3.864148 v -6.037472 h 3.7845 v 14.314235 z"
     style="fill:#282828;fill-opacity:1;fill-rule:nonzero;stroke:none;stroke-width:2.27571;stroke-opacity:1"
     id="path248"
     inkscape:label="path13785" />
  <path
     d="m 126.52747,60.241611 h -3.78679 v -7.307317 c 0,-1.545212 -0.091,-2.541963 -0.24349,-2.999389 -0.15929,-0.450585 -0.42782,-0.803321 -0.79196,-1.058202 -0.36182,-0.248056 -0.80103,-0.375488 -1.31079,-0.375488 -0.65768,0 -1.24707,0.179781 -1.76594,0.537058 -0.52115,0.364113 -0.87844,0.837466 -1.07188,1.431432 -0.18204,0.593959 -0.29129,1.688572 -0.29129,3.2884 v 6.483506 h -3.78678 V 45.927376 h 3.51599 v 2.102756 c 1.25163,-1.618029 2.82414,-2.428173 4.7198,-2.428173 0.83292,0 1.60212,0.152463 2.29165,0.450582 0.68954,0.302669 1.21524,0.684993 1.56796,1.153782 0.35504,0.471083 0.60307,0.999046 0.74186,1.593006 0.13659,0.593964 0.20485,1.440523 0.20485,2.544246 z"
     style="fill:#282828;fill-opacity:1;fill-rule:nonzero;stroke:none;stroke-width:2.27571;stroke-opacity:1"
     id="path252"
     inkscape:label="path13787" />
  <path
     d="m 130.36888,40.481824 h 3.78679 v 3.504606 h -3.78679 z m 0,5.445781 h 3.78679 v 14.314236 h -3.78679 z"
     style="fill:#282828;fill-opacity:1;fill-rule:nonzero;stroke:none;stroke-width:2.27571;stroke-opacity:1"
     id="path254"
     inkscape:label="path13789" />
  <path
     d="m 147.39123,65.688758 v -7.200354 c -0.4961,0.639469 -1.10828,1.144681 -1.8456,1.517898 -0.7396,0.373226 -1.53611,0.557545 -2.38723,0.557545 -1.6294,0 -2.96751,-0.612155 -4.01664,-1.831937 -1.24251,-1.431424 -1.85924,-3.368058 -1.85924,-5.809904 0,-2.300738 0.58031,-4.096285 1.74546,-5.384331 1.16291,-1.292606 2.60798,-1.936635 4.33296,-1.936635 0.95124,0 1.77506,0.202538 2.46917,0.607613 0.7009,0.405085 1.31761,1.017256 1.85469,1.836508 v -2.116419 h 3.49322 v 19.760016 z m 0.11379,-12.780404 c 0,-1.463292 -0.30039,-2.553347 -0.89891,-3.267919 -0.59396,-0.712302 -1.34267,-1.071862 -2.23932,-1.071862 -0.92164,0 -1.68399,0.364112 -2.30072,1.092343 -0.61673,0.72595 -0.92395,1.879737 -0.92395,3.463635 0,1.572509 0.29811,2.703547 0.89208,3.404462 0.59396,0.694096 1.32448,1.044551 2.19379,1.044551 0.87388,0 1.63852,-0.391421 2.29164,-1.174265 0.65769,-0.78284 0.98539,-1.945737 0.98539,-3.490945"
     style="fill:#282828;fill-opacity:1;fill-rule:nonzero;stroke:none;stroke-width:2.27571;stroke-opacity:1"
     id="path258"
     inkscape:label="path13791" />
  <path
     d="m 164.32255,60.241611 v -2.143725 c -0.52571,0.762377 -1.2107,1.365435 -2.05728,1.80692 -0.85108,0.436937 -1.74772,0.657686 -2.68989,0.657686 -0.9626,0 -1.82283,-0.209374 -2.58745,-0.628099 -0.76241,-0.42328 -1.31538,-1.01725 -1.66129,-1.781877 -0.33909,-0.764646 -0.50976,-1.822859 -0.50976,-3.170082 v -9.055058 h 3.78679 v 6.574533 c 0,2.016281 0.0683,3.249726 0.20482,3.704864 0.13652,0.450595 0.39142,0.810147 0.76008,1.076414 0.3664,0.266254 0.8352,0.395975 1.40185,0.395975 0.64857,0 1.22886,-0.17523 1.73863,-0.53025 0.51203,-0.357278 0.8625,-0.794218 1.04912,-1.319916 0.18204,-0.527956 0.28672,-1.816015 0.28672,-3.864148 v -6.037472 h 3.7845 v 14.314235 z"
     style="fill:#282828;fill-opacity:1;fill-rule:nonzero;stroke:none;stroke-width:2.27571;stroke-opacity:1"
     id="path262"
     inkscape:label="path13793" />
  <path
     d="m 180.04772,55.687004 3.77767,0.630366 c -0.48698,1.383634 -1.25163,2.437293 -2.30074,3.160967 -1.04454,0.725945 -2.35537,1.08551 -3.93018,1.08551 -2.48733,0 -4.32838,-0.810147 -5.52314,-2.439565 -0.94441,-1.301699 -1.41776,-2.949318 -1.41776,-4.931457 0,-2.373579 0.62126,-4.232832 1.86152,-5.575502 1.24028,-1.344953 2.80824,-2.016283 4.70391,-2.016283 2.13008,0 3.80954,0.705466 5.04072,2.111862 1.22887,1.408669 1.81831,3.561489 1.76824,6.465304 h -9.49202 c 0.0227,1.121927 0.33225,1.995794 0.91483,2.617065 0.58488,0.62582 1.31536,0.937588 2.18698,0.937588 0.59167,0 1.09006,-0.159295 1.49513,-0.482442 0.40507,-0.325436 0.71228,-0.846566 0.91484,-1.563413 m 0.22756,-3.827751 c -0.0227,-1.099168 -0.30951,-1.93208 -0.84656,-2.503285 -0.53706,-0.571204 -1.19703,-0.855667 -1.96847,-0.855667 -0.82839,0 -1.50882,0.302668 -2.04817,0.905724 -0.53936,0.598528 -0.8056,1.417776 -0.79649,2.453228 z"
     style="fill:#282828;fill-opacity:1;fill-rule:nonzero;stroke:none;stroke-width:2.27571;stroke-opacity:1"
     id="path266"
     inkscape:label="path13795" />
</svg>
