<?xml version="1.0" encoding="UTF-8" standalone="no"?>
<svg
   xmlns:dc="http://purl.org/dc/elements/1.1/"
   xmlns:cc="http://creativecommons.org/ns#"
   xmlns:rdf="http://www.w3.org/1999/02/22-rdf-syntax-ns#"
   xmlns:svg="http://www.w3.org/2000/svg"
   xmlns="http://www.w3.org/2000/svg"
   xmlns:sodipodi="http://sodipodi.sourceforge.net/DTD/sodipodi-0.dtd"
   xmlns:inkscape="http://www.inkscape.org/namespaces/inkscape"
   sodipodi:docname="Latvia_road_sign_517.svg"
   inkscape:version="1.0 (4035a4fb49, 2020-05-01)"
   id="svg3845"
   version="1.1"
   viewBox="0 0 195 195.00001"
   height="195mm"
   width="195mm">
  <defs
     id="defs3839" />
  <sodipodi:namedview
     inkscape:document-rotation="0"
     inkscape:window-maximized="1"
     inkscape:window-y="-9"
     inkscape:window-x="-9"
     inkscape:window-height="1001"
     inkscape:window-width="1920"
     showgrid="false"
     inkscape:current-layer="layer1"
     inkscape:document-units="mm"
     inkscape:cy="450.51255"
     inkscape:cx="1400.8251"
     inkscape:zoom="0.49497475"
     inkscape:pageshadow="2"
     inkscape:pageopacity="0.0"
     borderopacity="1.0"
     bordercolor="#666666"
     pagecolor="#ffffff"
     id="base" />
  <metadata
     id="metadata3842">
    <rdf:RDF>
      <cc:Work
         rdf:about="">
        <dc:format>image/svg+xml</dc:format>
        <dc:type
           rdf:resource="http://purl.org/dc/dcmitype/StillImage" />
        <dc:title></dc:title>
      </cc:Work>
    </rdf:RDF>
  </metadata>
  <g
     transform="translate(16.635604,476.45133)"
     id="layer1"
     inkscape:groupmode="layer"
     inkscape:label="Layer 1">
    <path
       style="fill:#ffffff;fill-opacity:1;stroke:#000000;stroke-width:1.53213;stroke-linecap:butt;stroke-linejoin:miter;stroke-miterlimit:22.926;stroke-opacity:1"
       d="M -1.8528387,-475.68526 H 163.58164 c 7.70857,0 14.01669,6.30812 14.01669,14.0167 v 165.43448 c 0,7.70857 -6.30812,14.01669 -14.01669,14.01669 H -1.8528387 c -7.70858,0 -14.0167003,-6.30812 -14.0167003,-14.01669 v -165.43448 c 0,-7.70858 6.3081203,-14.0167 14.0167003,-14.0167 z m 0,0"
       id="path12718" />
    <path
       style="fill:#263894;fill-opacity:1;fill-rule:evenodd;stroke:none;stroke-width:3.06426"
       d="m -2.7984987,-469.34127 167.3736487,0.009 c 3.19597,0.0695 6.61934,2.34603 6.61934,6.95445 v 167.12219 c 0,2.86086 -2.41795,6.69117 -7.08613,6.69117 l -166.8350287,-0.009 c -4.1894,0 -6.73894,-3.83032 -6.72704,-6.89461 l -0.009,-166.90695 c -0.0695,-4.65619 3.45924,-6.83475 6.6672,-6.96635"
       id="path12698" />
    <path
       style="fill:#ffffff;fill-opacity:1;fill-rule:evenodd;stroke:none;stroke-width:3.06426"
       d="M 131.94551,-297.11989 V -413.6817 l 17.04493,4.54848 -24.54999,-43.06731 -24.490229,43.187 17.116849,-4.45276 -0.0521,53.55284 c -4.12964,-5.29063 -10.48552,-7.34949 -17.152719,-7.15797 h -51.64973 l 4.7401,-17.34416 -43.1870897,24.80137 43.1631097,24.40641 -4.79986,-17.11677 51.889009,-0.009 c 9.79134,-0.0956 16.97319,7.32552 16.97319,17.22456 l -0.009,38.0879 14.96218,-0.0955"
       id="path12700" />
    <path
       style="fill:#ffffff;fill-opacity:1;fill-rule:evenodd;stroke:none;stroke-width:3.06426"
       d="m 60.569641,-314.32048 4.16543,-0.0869 v -11.75431 h -4.16543 v 11.83813"
       id="path12702" />
    <path
       style="fill:#ffffff;fill-opacity:1;fill-rule:evenodd;stroke:none;stroke-width:3.06426"
       d="m 60.605521,-297.09592 h 4.10566 l 0.10771,-11.80226 h -4.21337 v 11.80226"
       id="path12704" />
    <path
       style="fill:#ffffff;fill-opacity:1;fill-rule:evenodd;stroke:none;stroke-width:3.06426"
       d="m 154.16146,-365.76667 4.24925,0.0347 V -377.582 l -4.22536,0.53854 -0.0261,11.27553"
       id="path12706" />
    <path
       style="fill:#ffffff;fill-opacity:1;fill-rule:evenodd;stroke:none;stroke-width:3.06426"
       d="m 154.16146,-348.38655 4.29711,0.0521 v -11.90996 l -4.27322,-0.11987 -0.0261,11.9818"
       id="path12708" />
    <path
       style="fill:#ffffff;fill-opacity:1;fill-rule:evenodd;stroke:none;stroke-width:3.06426"
       d="m 154.16146,-331.18596 h 4.29711 l -0.0434,-11.88599 -4.22528,-0.0521 -0.026,11.93385"
       id="path12710" />
    <path
       style="fill:#ffffff;fill-opacity:1;fill-rule:evenodd;stroke:none;stroke-width:3.06426"
       d="m 154.18535,-313.90155 4.15352,-0.0869 v -11.75431 h -4.15352 v 11.83804"
       id="path12712" />
    <path
       style="fill:#ffffff;fill-opacity:1;fill-rule:evenodd;stroke:none;stroke-width:3.06426"
       d="m 154.18535,-382.97925 4.22536,-0.0347 v -11.67058 l -4.72812,0.47861 0.50293,11.22767"
       id="path12714" />
    <path
       style="fill:#ffffff;fill-opacity:1;fill-rule:evenodd;stroke:none;stroke-width:3.06426"
       d="m 154.24519,-297.11989 h 4.09368 l 0.11987,-11.7663 h -4.21337 v 11.7663"
       id="path12716" />
  </g>
</svg>
