<?xml version="1.0" encoding="UTF-8"?>
<svg xmlns="http://www.w3.org/2000/svg" viewBox="0 0 560 640" class="pref-muni-svg" role="img" aria-label="自治体境界図">
  <g class="pref-muni-svg__paths" fill="#eaf2fb" stroke="#5b7fa8" stroke-width="0.6" stroke-linejoin="round">
<path data-code="23100" data-name="名古屋市" d="M125.91,231.35L123.88,230.72L133.65,216.97L154.68,212.00L153.61,218.93L150.58,219.07L157.17,226.48L154.26,236.29L147.10,237.11L139.53,230.48L132.67,233.63L125.91,231.35Z"><title>名古屋市</title></path>
<path data-code="23100" data-name="名古屋市" d="M117.66,215.31L131.07,213.09L134.71,207.71L144.85,212.68L144.95,215.47L133.65,216.97L127.17,224.84L118.60,224.77L117.66,215.31Z"><title>名古屋市</title></path>
<path data-code="23100" data-name="名古屋市" d="M127.47,193.15L132.86,194.90L126.28,201.40L134.71,207.71L131.07,213.09L113.99,214.99L114.90,201.93L110.09,200.58L117.72,195.40L114.92,184.74L119.83,186.81L128.21,182.51L127.47,193.15Z"><title>名古屋市</title></path>
<path data-code="23100" data-name="名古屋市" d="M93.83,194.27L93.58,189.97L101.20,189.52L102.48,193.11L116.07,188.33L117.72,195.40L110.09,200.58L115.02,202.37L111.03,222.32L105.97,220.90L105.38,223.83L99.15,213.94L104.40,202.38L95.85,203.05L97.75,199.79L93.83,194.27Z"><title>名古屋市</title></path>
<path data-code="23100" data-name="名古屋市" d="M83.12,227.39L98.35,212.14L105.38,223.83L105.97,220.90L111.03,222.32L110.97,231.19L107.41,228.15L86.05,238.44L81.15,236.98L85.04,233.25L83.12,227.39Z"><title>名古屋市</title></path>
<path data-code="23100" data-name="名古屋市" d="M119.06,237.12L119.92,239.69L112.08,239.56L112.48,214.76L118.20,215.61L118.60,224.77L128.40,224.54L119.06,237.12Z"><title>名古屋市</title></path>
<path data-code="23100" data-name="名古屋市" d="M121.15,243.07L119.02,237.19L123.88,230.72L132.67,233.63L141.39,230.80L148.09,236.92L145.30,244.07L121.15,243.07Z"><title>名古屋市</title></path>
<path data-code="23100" data-name="名古屋市" d="M142.15,256.42L137.37,258.00L132.46,254.39L124.53,259.52L119.58,255.60L122.38,249.15L121.09,243.07L131.48,241.25L142.59,244.07L142.15,256.42Z"><title>名古屋市</title></path>
<path data-code="23100" data-name="名古屋市" d="M112.21,239.99L119.92,239.69L122.20,246.68L120.51,254.47L116.42,254.04L114.73,257.54L106.11,253.85L107.84,241.25L113.63,243.62L112.21,239.99Z"><title>名古屋市</title></path>
<path data-code="23110" data-name="名古屋市" d="M74.32,226.38L75.60,230.75L81.09,231.68L84.39,231.43L83.40,227.56L85.06,233.10L81.19,236.15L82.32,238.76L107.71,228.08L108.48,231.79L110.97,231.19L113.63,243.62L107.84,241.25L106.11,253.85L92.65,251.71L84.93,254.46L84.53,258.71L83.04,253.76L78.07,253.73L75.24,248.94L71.87,252.47L66.45,251.87L68.90,247.69L68.01,236.99L71.81,236.78L68.40,229.43L71.09,225.47L74.32,226.38Z"><title>名古屋市</title></path>
<path data-code="23110" data-name="名古屋市" d="M87.02,296.78L86.52,289.40L93.23,289.81L91.86,296.34L89.13,295.39L91.02,298.19L88.15,297.61L88.97,302.02L87.02,296.78ZM99.43,273.85L96.79,281.56L93.29,277.13L94.66,287.88L89.72,289.04L87.46,287.55L89.63,274.01L79.18,275.69L66.62,266.10L64.62,251.79L71.87,252.47L75.24,248.94L78.07,253.73L83.04,253.76L83.86,258.69L84.93,254.46L92.65,251.71L109.34,253.84L109.34,256.90L114.96,257.65L115.81,270.73L119.91,269.67L113.29,282.53L106.39,281.81L112.42,277.75L109.61,276.96L112.66,272.91L109.64,272.19L110.25,268.44L99.56,271.07L99.43,273.85ZM102.58,291.68L98.03,292.83L99.12,285.29L101.93,280.35L105.52,280.56L102.58,291.68Z"><title>名古屋市</title></path>
<path data-code="23110" data-name="名古屋市" d="M116.95,282.35L114.99,282.06L116.20,273.51L119.91,269.67L115.83,270.75L114.50,267.88L116.35,254.09L124.53,259.52L132.46,254.39L137.02,256.71L132.86,277.19L129.02,280.81L116.95,282.35Z"><title>名古屋市</title></path>
<path data-code="23110" data-name="名古屋市" d="M129.80,202.72L126.28,201.40L127.27,199.05L148.61,196.89L155.78,192.17L157.00,184.50L164.23,184.07L166.68,178.37L174.84,173.60L184.40,173.08L189.31,179.95L184.83,185.45L181.18,183.77L169.98,189.57L163.29,197.40L161.59,202.07L164.88,201.62L166.51,210.31L170.20,210.94L172.90,206.30L171.48,209.09L174.94,208.96L172.81,211.13L174.90,212.82L164.65,213.04L157.56,208.80L142.92,212.51L129.80,202.72Z"><title>名古屋市</title></path>
<path data-code="23110" data-name="名古屋市" d="M149.21,292.84L147.96,296.79L141.90,298.99L140.91,294.26L135.87,296.15L132.16,290.90L129.53,293.57L125.64,284.63L121.92,286.54L120.38,282.32L116.95,282.35L130.43,279.76L138.56,263.15L150.71,262.86L156.37,258.97L161.13,264.11L170.76,258.77L170.93,269.35L168.57,267.65L165.37,278.42L155.47,279.35L154.19,286.79L148.94,285.47L149.21,292.84Z"><title>名古屋市</title></path>
<path data-code="23110" data-name="名古屋市" d="M160.07,238.52L154.26,236.29L157.17,226.48L150.59,219.25L153.61,218.93L153.99,211.10L157.56,208.80L170.24,212.68L173.43,219.12L171.21,222.22L173.52,232.35L169.50,237.49L171.77,241.67L165.57,243.37L160.07,238.52Z"><title>名古屋市</title></path>
<path data-code="23110" data-name="名古屋市" d="M137.37,258.00L143.00,255.69L142.40,244.50L151.78,234.31L165.58,242.13L164.71,246.58L160.97,247.25L170.23,258.90L161.13,264.11L156.37,258.97L136.75,264.69L137.37,258.00Z"><title>名古屋市</title></path>
<path data-code="23201" data-name="豊橋市" d="M335.89,518.00L320.20,522.12L318.30,513.11L303.44,511.71L305.88,507.01L304.21,503.64L308.28,498.77L304.75,496.74L311.31,495.77L312.59,491.34L304.86,491.02L304.79,477.99L314.01,476.59L316.26,481.41L325.05,476.58L310.38,473.52L310.50,452.21L315.38,446.36L312.84,443.50L304.91,447.35L303.91,444.10L311.47,442.42L315.39,436.79L314.90,441.08L319.17,443.01L324.82,438.85L323.74,444.26L341.30,434.83L351.92,440.62L349.37,433.08L362.01,429.90L367.52,421.36L361.84,421.09L358.70,411.42L372.85,408.56L376.18,401.80L383.70,401.06L388.63,417.58L395.00,421.95L388.09,428.76L391.56,433.98L390.93,442.74L383.32,449.73L382.14,463.77L390.39,490.82L387.21,506.97L335.89,518.00ZM304.79,472.28L309.84,464.60L309.62,473.36L304.79,472.28Z"><title>豊橋市</title></path>
<path data-code="23202" data-name="岡崎市" d="M219.24,385.83L208.84,390.31L209.12,386.72L214.67,383.55L210.19,371.10L216.54,362.85L214.22,359.87L215.93,357.70L211.58,358.10L210.26,353.31L213.51,351.58L216.88,341.54L211.58,335.33L219.96,334.59L216.48,331.73L215.43,324.23L218.29,326.67L223.60,321.39L227.52,325.60L234.59,323.96L238.46,319.47L235.87,305.73L241.04,301.10L247.41,303.53L251.80,299.26L257.68,302.71L260.13,297.67L271.51,298.95L273.95,304.75L282.16,307.46L282.92,311.76L285.61,311.18L286.03,303.96L295.95,311.17L308.06,309.70L322.16,316.08L323.10,312.60L334.18,312.63L335.93,322.50L342.35,330.61L350.15,333.41L343.15,341.09L351.29,345.03L348.51,350.86L352.54,351.75L352.77,362.53L357.48,369.90L349.07,376.82L349.66,381.68L345.87,387.46L336.14,381.86L329.34,386.40L324.24,379.27L302.52,390.97L299.42,386.10L293.04,389.24L286.16,386.66L280.06,400.84L266.00,395.25L259.72,396.60L259.29,390.91L254.55,387.04L257.71,381.70L248.02,373.30L239.13,374.70L233.00,385.88L219.24,385.83Z"><title>岡崎市</title></path>
<path data-code="23203" data-name="一宮市" d="M43.43,131.43L52.70,112.31L64.99,111.49L64.26,114.27L67.93,115.71L83.46,118.55L85.36,121.37L82.66,124.05L87.09,124.48L88.88,132.54L86.40,134.76L93.82,137.08L96.31,144.71L99.87,143.83L103.63,149.13L97.94,152.33L95.57,161.15L87.64,164.95L91.75,169.46L86.61,178.56L81.06,173.08L79.49,163.69L70.94,163.90L56.08,173.07L47.77,168.52L39.70,174.27L37.87,168.55L23.05,164.33L32.93,152.92L43.43,131.43Z"><title>一宮市</title></path>
<path data-code="23204" data-name="瀬戸市" d="M191.34,187.50L184.40,173.08L187.17,170.09L192.83,171.48L206.41,156.74L208.05,149.50L222.37,154.06L228.85,161.91L238.01,159.87L243.55,167.94L243.25,173.06L249.33,177.44L245.08,182.06L243.76,186.72L246.98,190.54L240.20,203.66L232.37,205.24L219.73,217.41L211.86,215.52L210.22,219.44L203.89,219.10L200.66,213.20L192.20,209.73L188.64,212.47L184.24,210.56L183.81,205.84L192.76,199.44L188.72,199.13L187.65,194.99L191.34,187.50Z"><title>瀬戸市</title></path>
<path data-code="23205" data-name="半田市" d="M101.20,371.47L104.46,367.47L108.29,372.10L131.48,372.33L129.95,365.18L134.91,354.51L149.35,359.96L146.59,377.60L140.93,389.05L144.20,391.66L141.67,394.76L138.43,390.49L131.23,390.71L130.22,392.75L135.72,393.01L133.25,399.49L102.90,390.63L103.47,380.38L98.19,378.12L101.20,371.47Z"><title>半田市</title></path>
<path data-code="23206" data-name="春日井市" d="M160.91,184.20L156.97,184.54L155.78,192.17L147.81,197.34L131.32,198.19L132.83,193.57L128.46,194.24L125.97,190.68L129.27,179.47L127.34,175.84L130.53,172.66L128.79,165.59L135.68,163.23L134.33,157.67L141.78,161.43L146.02,156.61L155.35,161.86L162.38,157.79L166.89,159.24L167.53,151.03L164.53,149.84L169.38,147.66L170.00,138.44L179.85,133.12L182.52,127.90L184.03,130.84L192.63,129.98L194.96,135.35L190.81,138.65L192.00,145.23L199.10,147.50L198.85,154.87L206.41,156.74L192.43,171.80L174.84,173.60L160.91,184.20Z"><title>春日井市</title></path>
<path data-code="23207" data-name="豊川市" d="M299.88,432.03L301.28,429.77L306.20,435.79L301.58,436.37L299.88,432.03ZM304.79,443.84L302.45,439.25L308.67,436.59L295.92,421.64L301.63,420.10L298.35,416.02L284.77,413.19L281.45,406.71L280.44,395.77L284.99,387.23L293.04,389.24L299.42,386.10L302.52,390.97L324.24,379.27L329.34,386.40L336.14,381.86L344.88,387.79L349.66,381.68L349.07,376.82L357.15,372.74L360.95,378.43L367.57,380.35L373.63,390.00L375.61,394.67L372.13,398.81L375.83,405.03L369.88,409.78L358.70,411.42L361.84,421.09L367.52,421.36L362.01,429.90L349.37,433.08L351.92,440.62L341.30,434.83L323.74,444.26L324.82,438.85L319.17,443.01L314.90,441.08L315.39,436.79L311.47,442.42L304.79,443.84Z"><title>豊川市</title></path>
<path data-code="23208" data-name="津島市" d="M26.40,227.71L25.13,213.39L31.57,215.64L35.38,213.04L36.66,216.67L38.54,214.10L38.58,218.08L44.68,220.35L50.58,207.55L54.90,209.02L58.25,223.17L61.34,223.22L60.13,234.53L53.92,237.10L54.86,242.53L50.18,245.71L47.98,238.39L38.51,227.88L33.43,225.40L26.40,227.71Z"><title>津島市</title></path>
<path data-code="23209" data-name="碧南市" d="M148.54,421.01L144.29,422.28L139.54,407.72L144.21,406.62L140.04,404.01L146.01,392.59L149.65,392.98L147.19,391.12L150.08,382.10L153.36,382.13L150.34,381.36L150.46,374.11L161.65,369.94L175.80,357.13L177.24,366.14L167.08,375.60L168.53,381.52L179.74,385.66L161.75,396.28L148.54,421.01Z"><title>碧南市</title></path>
<path data-code="23210" data-name="刈谷市" d="M160.91,347.64L153.10,346.39L151.06,331.71L156.33,308.95L177.16,290.80L181.42,282.22L189.57,283.68L192.82,288.68L182.37,302.41L182.41,308.31L176.65,310.39L177.99,313.48L174.70,317.46L168.56,318.11L169.91,324.37L173.49,326.27L170.66,328.87L182.29,332.36L183.31,336.78L180.42,340.30L182.76,343.81L181.06,345.86L175.88,342.43L165.60,351.33L160.91,347.64Z"><title>刈谷市</title></path>
<path data-code="23211" data-name="豊田市" d="M215.23,326.07L212.24,318.88L207.03,319.59L209.31,316.92L197.16,316.71L195.23,311.06L190.03,315.89L183.35,315.14L179.44,308.89L182.41,308.31L182.37,302.41L191.04,288.58L208.60,284.74L213.16,262.88L221.69,254.22L214.70,246.55L209.87,246.36L206.68,240.58L205.55,219.13L210.33,219.41L211.86,215.52L219.73,217.41L232.37,205.24L240.13,203.74L246.98,190.54L243.76,186.72L246.92,178.83L257.51,177.16L259.95,173.24L265.43,175.37L280.92,166.14L283.48,158.85L289.27,155.84L304.67,155.46L321.72,165.39L319.54,170.62L321.48,174.43L339.71,173.09L341.51,184.10L347.91,183.60L351.49,187.56L355.53,184.42L361.47,194.35L403.87,165.53L403.06,159.92L414.65,161.48L425.63,156.34L427.24,160.26L420.24,164.92L421.24,170.23L415.69,177.95L430.96,196.32L432.08,212.95L427.10,215.71L412.80,212.05L402.62,219.96L400.11,215.79L394.21,216.09L395.52,208.96L388.14,210.97L386.38,219.05L376.49,230.13L381.90,238.06L374.31,245.30L368.06,243.66L370.16,249.81L368.42,257.67L361.24,261.95L363.17,271.66L369.19,280.34L368.69,285.13L361.22,291.63L364.12,304.11L359.60,307.90L359.75,316.54L351.05,314.25L340.63,326.59L335.93,322.50L333.94,312.52L323.10,312.60L322.16,316.08L308.06,309.70L295.95,311.17L286.03,303.96L285.61,311.18L282.92,311.76L282.16,307.46L273.95,304.75L271.51,298.95L260.13,297.67L257.68,302.71L251.80,299.26L247.41,303.53L241.04,301.10L235.87,305.73L238.46,319.47L235.66,323.29L227.52,325.60L223.60,321.39L215.23,326.07Z"><title>豊田市</title></path>
<path data-code="23212" data-name="安城市" d="M167.75,380.06L167.32,375.11L177.73,363.35L175.75,357.11L168.75,360.76L165.82,351.29L175.88,342.43L181.87,345.15L181.49,332.34L194.65,329.35L193.58,322.90L201.16,315.02L209.31,316.92L207.67,320.38L212.24,318.88L219.96,334.59L211.58,335.33L216.88,341.54L213.51,351.58L210.26,353.31L211.58,358.10L215.93,357.70L214.22,359.87L216.54,362.85L210.24,370.97L210.33,378.04L202.67,383.79L191.11,384.61L190.26,377.43L192.95,372.59L190.33,370.40L177.97,383.89L174.30,385.06L167.75,380.06Z"><title>安城市</title></path>
<path data-code="23213" data-name="西尾市" d="M160.91,432.33L159.50,425.87L147.26,423.47L161.69,396.36L179.74,385.66L179.78,380.49L182.50,381.37L190.33,370.40L192.95,372.59L190.26,377.43L191.11,384.61L202.67,383.79L211.44,375.93L214.65,383.69L209.12,386.72L208.84,390.31L225.22,383.69L226.58,387.88L223.78,388.30L222.82,395.60L216.42,393.34L217.35,396.22L210.73,399.36L219.96,399.15L214.61,401.03L220.17,404.79L218.20,408.86L211.17,404.02L212.35,406.64L209.67,405.67L214.07,410.27L208.12,406.43L211.10,411.36L208.37,410.94L215.61,413.20L220.42,410.82L229.62,422.73L234.26,421.40L240.60,428.19L241.14,435.05L239.45,443.83L232.11,445.90L228.56,441.70L223.64,441.69L221.58,445.55L210.73,440.24L210.17,444.24L202.13,449.45L196.49,442.63L174.86,449.52L160.91,432.33ZM176.34,478.13L179.02,473.28L187.18,479.55L182.82,484.42L184.34,481.36L181.80,477.39L178.46,480.69L176.34,478.13Z"><title>西尾市</title></path>
<path data-code="23214" data-name="蒲郡市" d="M237.29,426.73L244.20,420.31L248.55,424.50L254.05,420.92L250.34,416.45L253.30,411.62L250.94,407.57L256.85,403.09L257.77,398.00L265.58,395.22L280.66,400.55L284.77,413.19L298.35,416.02L301.75,420.59L295.92,421.64L299.98,428.14L294.90,428.12L298.41,429.31L297.97,432.41L291.89,432.72L290.05,429.50L292.01,433.17L288.34,434.36L286.03,430.10L285.43,433.21L278.22,432.26L275.92,427.14L274.72,429.58L261.73,422.05L265.23,426.40L260.98,426.21L263.16,428.14L260.65,433.48L251.17,430.21L251.23,436.26L247.60,439.86L249.85,439.33L249.39,448.84L242.60,455.30L239.04,451.43L242.15,452.03L244.10,447.50L239.47,442.56L240.73,428.45L237.29,426.73Z"><title>蒲郡市</title></path>
<path data-code="23215" data-name="犬山市" d="M124.39,139.43L129.33,133.35L133.82,116.99L130.69,110.42L124.40,112.58L122.12,109.70L130.63,100.15L143.04,93.58L144.88,81.23L157.74,79.67L150.77,91.64L155.76,92.79L161.95,104.06L174.05,107.02L184.03,115.92L182.52,127.90L179.59,130.13L155.85,132.98L153.58,138.70L148.34,136.76L137.85,143.11L137.73,137.37L124.39,139.43Z"><title>犬山市</title></path>
<path data-code="23216" data-name="常滑市" d="M101.72,427.19L96.44,427.25L98.63,412.94L93.55,404.31L93.35,397.93L84.95,392.04L85.28,387.18L81.78,394.32L77.27,386.07L80.13,382.24L77.17,375.22L79.25,355.87L91.55,360.32L97.63,354.55L110.37,355.50L98.19,378.12L103.47,380.38L103.02,391.93L110.69,404.64L105.80,406.35L108.43,427.82L101.72,427.19ZM67.58,394.58L67.00,391.60L70.30,391.03L77.85,399.07L79.00,407.49L73.48,408.62L74.20,412.38L70.83,412.36L67.58,394.58Z"><title>常滑市</title></path>
<path data-code="23217" data-name="江南市" d="M102.58,148.58L93.17,140.80L93.82,137.08L86.40,134.76L88.88,132.54L87.09,124.48L82.66,124.05L85.36,121.37L83.46,118.55L97.88,109.06L110.85,105.94L113.84,109.45L110.52,125.01L114.05,127.10L106.59,139.92L108.42,147.82L106.60,150.95L102.58,148.58Z"><title>江南市</title></path>
<path data-code="23219" data-name="小牧市" d="M105.23,169.46L107.40,147.67L117.35,142.88L120.78,135.62L121.37,139.50L137.73,137.37L137.85,143.11L148.34,136.76L153.58,138.70L155.85,132.98L182.48,127.95L179.85,133.12L169.89,138.63L169.38,147.66L164.53,149.84L167.53,151.03L166.89,159.24L162.38,157.79L155.35,161.86L146.02,156.61L141.78,161.43L134.33,157.67L135.68,163.23L128.79,165.59L128.82,175.96L122.38,170.21L113.01,175.74L112.47,171.58L105.23,169.46Z"><title>小牧市</title></path>
<path data-code="23220" data-name="稲沢市" d="M11.53,191.32L11.05,182.45L23.05,164.33L37.87,168.55L39.78,174.28L47.77,168.52L56.08,173.07L70.94,163.90L79.41,163.69L84.72,177.96L81.49,186.53L85.76,190.84L79.15,198.59L71.55,197.41L45.11,204.61L38.05,210.95L31.38,206.78L36.39,196.16L29.01,195.38L30.64,187.60L25.52,190.40L15.98,187.10L11.53,191.32Z"><title>稲沢市</title></path>
<path data-code="23221" data-name="新城市" d="M388.67,417.53L388.27,410.69L384.51,407.67L385.56,402.78L372.60,400.15L375.61,394.67L373.61,389.97L367.57,380.35L358.21,376.12L352.77,362.53L353.49,353.87L348.51,350.86L351.29,345.03L343.15,341.09L350.15,333.41L339.85,327.23L344.53,324.25L346.77,316.53L351.93,313.93L359.78,316.51L359.60,307.90L364.12,304.11L361.22,291.63L368.69,285.13L369.84,279.58L372.96,281.54L370.37,287.45L371.92,290.45L380.66,290.66L383.00,286.17L388.83,285.29L388.55,282.03L395.29,284.06L398.40,298.79L403.54,293.27L409.10,296.93L414.23,288.68L431.40,287.35L442.64,312.02L450.72,309.62L451.58,298.35L457.05,284.40L472.97,298.09L482.17,298.33L483.83,304.00L488.16,304.05L490.27,308.63L488.35,321.91L491.35,324.48L487.47,330.23L490.89,337.26L485.05,338.27L482.66,345.97L476.27,352.39L468.55,353.02L456.56,386.56L439.70,393.98L434.94,407.01L418.30,405.71L413.95,411.30L408.13,410.43L395.43,416.20L393.70,419.99L388.67,417.53Z"><title>新城市</title></path>
<path data-code="23222" data-name="東海市" d="M107.44,322.36L108.43,319.11L105.99,320.92L100.52,314.13L92.16,312.66L92.89,309.64L99.82,297.59L109.23,297.25L104.55,294.32L106.76,283.00L125.64,284.63L130.20,297.27L126.66,304.04L133.07,312.55L122.05,315.02L121.23,331.46L125.13,335.05L120.58,338.66L117.51,332.49L113.13,332.02L111.02,323.13L107.44,322.36Z"><title>東海市</title></path>
<path data-code="23223" data-name="大府市" d="M125.91,334.51L121.23,331.46L122.05,315.02L133.07,312.55L126.66,304.04L130.20,297.27L127.40,292.57L132.61,290.96L135.98,296.17L140.54,294.06L141.90,298.99L147.96,296.79L148.72,293.40L156.13,300.46L159.53,299.13L161.68,305.92L156.48,308.68L152.06,320.47L143.09,319.34L138.90,323.51L138.00,321.19L125.91,334.51Z"><title>大府市</title></path>
<path data-code="23224" data-name="知多市" d="M73.79,347.80L76.30,341.63L79.59,343.83L77.04,349.94L73.79,347.80ZM81.22,357.24L79.17,355.84L81.06,343.33L76.98,340.44L85.63,332.69L79.43,324.79L85.19,328.90L93.04,319.82L88.04,318.62L90.65,315.10L105.99,320.92L108.43,319.11L106.88,321.57L111.02,323.13L113.13,332.02L117.65,332.62L122.99,342.10L117.98,348.29L107.43,345.95L103.72,348.38L105.22,354.13L97.55,354.58L93.24,359.89L81.22,357.24Z"><title>知多市</title></path>
<path data-code="23225" data-name="知立市" d="M197.29,321.32L193.58,322.90L194.65,329.35L183.48,333.21L170.66,328.87L173.49,326.27L169.91,324.37L168.56,318.11L174.96,317.26L179.44,308.89L183.43,315.15L190.03,315.89L195.27,311.07L197.16,316.71L201.00,316.10L197.29,321.32Z"><title>知立市</title></path>
<path data-code="23226" data-name="尾張旭市" d="M164.75,203.68L161.59,202.07L163.29,197.40L169.98,189.57L181.18,183.77L184.83,185.45L187.35,181.18L191.46,184.84L187.64,194.95L188.72,199.13L192.76,199.44L183.81,205.84L182.21,212.04L172.93,211.66L175.56,210.58L171.48,209.09L172.90,206.30L170.20,210.94L166.51,210.31L167.76,207.05L164.75,203.68Z"><title>尾張旭市</title></path>
<path data-code="23227" data-name="高浜市" d="M152.79,373.96L150.37,373.89L151.36,357.82L153.10,346.39L157.03,345.46L165.82,351.29L168.75,360.76L172.21,360.21L152.79,373.96Z"><title>高浜市</title></path>
<path data-code="23228" data-name="岩倉市" d="M90.91,170.09L87.64,164.95L95.57,161.15L97.94,152.33L106.78,150.78L107.25,164.50L102.54,173.95L90.91,170.09Z"><title>岩倉市</title></path>
<path data-code="23229" data-name="豊明市" d="M160.91,304.47L159.53,299.13L155.02,299.67L148.03,289.17L149.03,285.38L154.23,286.74L155.47,279.35L165.31,278.48L169.68,266.85L180.12,276.13L180.77,285.96L160.91,304.47Z"><title>豊明市</title></path>
<path data-code="23230" data-name="日進市" d="M164.74,250.76L160.99,247.13L171.77,241.67L169.50,237.49L171.24,233.89L183.45,225.66L206.49,232.72L206.93,237.99L201.42,242.91L203.54,247.28L197.71,253.07L192.34,252.37L179.46,259.45L175.51,256.39L172.09,259.84L164.74,250.76Z"><title>日進市</title></path>
<path data-code="23231" data-name="田原市" d="M187.48,558.68L167.97,560.33L173.63,554.60L192.79,514.31L203.55,516.20L200.61,522.31L210.57,524.85L208.76,530.50L210.15,528.04L216.57,529.64L226.62,523.23L220.09,517.89L236.84,517.89L248.38,509.36L253.15,510.06L257.59,504.60L266.01,505.63L269.48,498.50L274.52,498.57L269.48,492.71L275.46,486.88L282.55,494.60L285.45,487.31L281.52,483.29L293.82,474.59L301.33,476.23L301.31,495.77L296.45,495.79L294.44,503.50L303.85,503.21L305.88,507.01L303.96,512.38L318.30,513.11L320.38,519.41L320.13,522.28L258.75,542.64L249.19,548.84L248.03,544.23L248.23,547.84L227.60,554.87L205.77,554.35L187.48,558.68Z"><title>田原市</title></path>
<path data-code="23232" data-name="愛西市" d="M8.21,244.54L8.00,213.78L13.05,207.48L11.53,191.32L15.49,187.25L25.52,190.40L30.64,187.60L29.01,195.38L36.39,196.16L31.38,206.78L37.07,210.49L50.00,204.38L44.68,220.35L38.58,218.08L38.73,214.17L34.96,216.41L35.38,213.04L31.57,215.64L25.13,213.39L24.15,218.96L25.57,228.04L36.01,226.37L47.98,238.39L48.80,245.22L54.45,243.62L54.10,250.82L50.85,249.38L53.54,253.93L48.20,254.43L46.32,247.25L38.68,250.61L28.80,245.93L23.02,248.39L21.78,254.03L8.21,244.54Z"><title>愛西市</title></path>
<path data-code="23233" data-name="清須市" d="M78.19,198.65L85.76,190.84L81.13,182.77L87.73,177.90L85.87,181.12L87.94,186.14L90.97,184.43L94.76,189.62L94.02,196.41L97.75,199.79L95.67,202.85L99.49,200.60L104.58,203.48L99.83,211.26L88.94,218.42L85.37,204.65L78.30,205.04L78.19,198.65Z"><title>清須市</title></path>
<path data-code="23234" data-name="北名古屋市" d="M101.67,190.69L94.58,189.98L90.97,184.43L87.94,186.14L86.88,174.35L91.84,169.94L101.93,174.13L105.15,169.41L112.47,171.58L116.48,179.72L114.70,187.11L102.48,193.11L101.67,190.69Z"><title>北名古屋市</title></path>
<path data-code="23235" data-name="弥富市" d="M44.25,275.54L22.79,255.45L23.02,248.39L28.88,245.93L38.68,250.61L46.32,247.25L48.20,254.43L60.38,257.83L65.90,264.67L59.14,269.34L53.99,265.59L54.07,268.59L48.16,269.65L70.72,286.99L70.17,293.13L66.13,292.02L67.80,304.79L58.60,302.23L66.07,308.72L66.15,314.23L53.43,308.46L45.84,291.12L44.25,275.54Z"><title>弥富市</title></path>
<path data-code="23236" data-name="みよし市" d="M181.93,281.90L187.04,269.31L201.88,263.77L202.57,251.04L200.37,248.76L203.51,247.32L201.42,242.91L205.52,238.97L209.87,246.36L220.90,251.54L221.68,254.24L213.16,262.88L213.45,268.95L205.83,287.39L200.36,285.60L194.12,289.96L189.57,283.68L181.93,281.90Z"><title>みよし市</title></path>
<path data-code="23237" data-name="あま市" d="M61.75,235.87L59.59,229.81L61.34,223.22L58.25,223.17L54.90,209.02L50.00,204.38L77.70,197.54L78.30,205.04L85.37,204.65L89.97,218.46L86.77,222.17L83.91,215.83L80.23,219.13L78.57,214.63L71.82,213.03L71.22,225.51L68.40,229.43L71.76,237.24L61.75,235.87Z"><title>あま市</title></path>
<path data-code="23238" data-name="長久手市" d="M205.32,231.12L189.94,229.62L188.16,225.04L174.01,232.82L171.21,222.22L173.11,216.44L169.28,213.98L192.20,209.73L200.42,213.05L206.44,220.74L205.32,231.12Z"><title>長久手市</title></path>
<path data-code="23302" data-name="東郷町" d="M185.64,273.85L180.93,282.66L180.12,276.13L170.96,269.44L170.76,258.77L175.53,256.38L179.46,259.45L202.45,250.85L201.52,264.42L190.60,266.77L185.64,273.85Z"><title>東郷町</title></path>
<path data-code="23342" data-name="豊山町" d="M115.73,184.42L114.96,177.39L118.26,172.28L122.38,170.21L128.68,173.54L128.95,180.85L125.52,184.18L119.50,186.86L115.73,184.42Z"><title>豊山町</title></path>
<path data-code="23361" data-name="大口町" d="M106.31,144.55L114.88,125.52L123.14,120.95L130.83,121.93L133.75,116.71L129.33,133.35L124.39,139.43L120.65,139.04L120.86,135.59L111.92,146.99L106.31,144.55Z"><title>大口町</title></path>
<path data-code="23362" data-name="扶桑町" d="M110.85,105.94L124.25,105.40L122.12,109.70L124.05,112.47L131.31,111.22L131.35,121.61L123.14,120.95L111.35,125.95L113.84,109.45L110.85,105.94Z"><title>扶桑町</title></path>
<path data-code="23424" data-name="大治町" d="M83.25,226.38L84.39,231.43L81.67,231.72L71.28,225.88L71.82,213.03L78.57,214.63L80.23,219.13L83.91,215.83L86.77,222.17L83.25,226.38Z"><title>大治町</title></path>
<path data-code="23425" data-name="蟹江町" d="M55.92,256.31L50.85,249.38L54.82,249.57L53.55,238.26L59.27,236.02L60.61,231.67L61.35,235.91L68.01,236.99L68.90,247.69L63.83,257.37L66.62,266.10L55.92,256.31Z"><title>蟹江町</title></path>
<path data-code="23427" data-name="飛島村" d="M71.47,293.71L82.00,293.20L85.77,304.12L73.35,306.70L71.47,293.71ZM77.33,273.85L79.18,275.69L76.29,284.55L83.26,284.90L81.62,292.70L71.36,292.72L70.72,286.99L48.16,269.65L54.07,268.59L53.99,265.59L58.54,269.50L65.33,265.66L77.33,273.85Z"><title>飛島村</title></path>
<path data-code="23441" data-name="阿久比町" d="M130.12,368.79L131.48,372.33L108.14,372.05L104.81,367.97L110.48,355.90L105.22,354.13L103.72,348.38L111.62,344.63L118.91,348.03L122.63,342.54L131.44,348.74L134.91,354.51L130.12,368.79Z"><title>阿久比町</title></path>
<path data-code="23442" data-name="東浦町" d="M147.16,321.32L152.38,321.83L153.09,346.50L149.06,353.01L149.35,359.96L134.91,354.51L120.74,338.06L138.00,321.19L138.90,323.51L143.09,319.34L147.16,321.32Z"><title>東浦町</title></path>
<path data-code="23445" data-name="南知多町" d="M163.46,511.21L159.95,508.72L164.78,500.27L163.46,511.21ZM102.58,475.67L91.77,464.56L94.50,465.77L108.66,454.39L113.46,456.13L116.62,467.46L123.10,473.20L123.32,477.08L134.22,465.05L144.30,472.71L146.93,478.08L143.21,480.56L148.26,482.31L145.83,486.65L150.55,491.22L147.25,492.54L147.94,495.23L144.38,491.55L134.55,492.01L130.88,487.55L128.17,490.47L102.58,475.67ZM160.91,487.87L167.36,488.52L159.14,491.44L160.91,487.87Z"><title>南知多町</title></path>
<path data-code="23446" data-name="美浜町" d="M94.80,465.49L91.12,464.23L86.37,454.55L96.44,427.25L124.19,427.71L121.08,452.09L133.91,465.20L125.09,476.77L116.62,467.46L113.24,455.96L108.29,454.51L94.80,465.49Z"><title>美浜町</title></path>
<path data-code="23447" data-name="武豊町" d="M130.92,416.27L124.71,417.58L126.41,423.16L132.00,423.29L126.50,423.19L126.07,427.29L107.56,426.20L105.80,406.35L110.69,404.64L102.90,390.63L133.25,399.49L127.17,398.26L127.34,401.89L131.32,403.30L130.53,407.63L126.48,405.94L130.92,416.27Z"><title>武豊町</title></path>
<path data-code="23501" data-name="幸田町" d="M250.33,416.27L254.05,420.92L248.55,424.50L244.20,420.31L237.29,426.73L234.26,421.40L229.59,422.71L220.42,410.82L215.61,413.20L208.37,410.94L211.10,411.36L208.06,406.47L213.30,410.87L209.67,405.67L213.04,406.39L212.85,403.94L218.20,408.86L220.17,404.79L214.61,401.03L219.96,399.15L211.24,398.32L217.35,396.22L216.42,393.34L222.73,395.68L223.78,388.30L226.58,387.88L225.22,383.69L233.00,385.88L239.13,374.70L248.02,373.30L257.71,381.70L254.55,387.04L259.29,390.91L259.90,396.73L250.94,407.57L253.30,411.62L250.33,416.27Z"><title>幸田町</title></path>
<path data-code="23561" data-name="設楽町" d="M394.22,283.57L388.55,282.03L388.83,285.29L383.00,286.17L380.66,290.66L371.84,290.42L372.87,281.29L367.81,280.08L361.57,266.73L361.28,261.87L368.22,257.97L369.83,253.17L368.00,243.74L374.31,245.30L381.98,237.92L376.49,230.13L386.38,219.05L388.14,210.97L395.52,208.96L394.21,216.09L400.11,215.79L402.69,219.95L412.80,212.05L429.31,215.62L432.08,212.95L430.93,208.26L467.36,198.54L466.56,208.31L476.86,231.26L477.02,238.79L476.21,241.62L466.72,241.90L463.65,237.91L445.69,241.60L443.45,262.07L459.41,274.19L456.64,276.69L458.82,283.87L454.13,290.42L455.51,293.50L451.59,298.34L450.18,310.59L440.74,310.66L431.40,287.35L414.23,288.68L409.10,296.93L403.54,293.27L398.40,298.79L396.27,297.82L398.95,292.80L394.22,283.57Z"><title>設楽町</title></path>
<path data-code="23562" data-name="東栄町" d="M490.26,312.58L488.18,304.09L483.83,304.00L482.35,298.44L473.03,298.12L470.18,293.04L462.13,289.47L456.15,279.82L459.36,274.02L452.75,270.52L450.74,265.47L444.53,264.31L445.71,241.56L464.40,237.96L468.66,247.92L482.43,245.59L484.85,250.65L490.25,251.09L497.24,246.66L508.79,251.28L512.27,257.92L518.67,256.61L517.09,259.36L524.07,264.57L522.80,277.11L506.34,289.13L490.26,312.58Z"><title>東栄町</title></path>
<path data-code="23563" data-name="豊根村" d="M510.88,256.24L508.79,251.28L496.79,246.53L490.25,251.09L484.85,250.65L482.43,245.59L468.66,247.92L466.72,241.90L476.30,241.59L477.33,234.91L466.56,208.31L466.08,192.13L478.94,187.32L497.61,189.80L498.37,195.07L519.29,196.87L519.15,203.46L524.50,205.83L544.26,198.47L552.00,200.29L547.18,200.94L548.71,204.37L544.47,205.26L541.86,214.23L535.77,216.64L546.10,225.50L544.15,231.06L547.81,234.58L544.41,237.01L541.05,234.51L541.19,241.24L536.95,246.62L530.97,244.37L534.83,260.60L530.93,266.89L522.16,264.09L517.08,259.33L518.67,256.61L510.88,256.24Z"><title>豊根村</title></path>
  </g>
</svg>
