<?xml version="1.0" encoding="UTF-8"?>
<svg xmlns="http://www.w3.org/2000/svg" viewBox="0 0 560 640" class="pref-muni-svg" role="img" aria-label="自治体境界図">
  <g class="pref-muni-svg__paths" fill="#eaf2fb" stroke="#5b7fa8" stroke-width="0.6" stroke-linejoin="round">
<path data-code="38201" data-name="松山市" d="M265.62,264.81L261.12,255.32L261.86,250.16L265.14,248.98L262.64,247.22L247.37,239.86L225.16,238.50L225.72,235.77L229.23,237.72L226.71,235.02L228.22,232.39L226.45,228.53L228.85,228.40L228.06,223.20L230.80,226.70L229.04,222.98L229.23,220.17L231.01,221.48L230.43,217.52L232.41,221.37L233.91,220.77L233.22,217.98L234.61,218.93L232.65,215.79L236.68,216.58L230.09,211.57L233.61,200.25L240.61,203.10L240.29,201.16L248.43,198.52L253.78,178.71L254.77,167.59L251.78,164.62L263.04,160.04L265.67,156.81L273.88,164.56L276.66,161.93L281.70,165.72L290.67,166.87L291.13,183.04L301.84,188.61L303.98,197.39L301.08,205.24L294.46,207.40L288.97,212.46L287.51,217.07L290.29,223.33L285.11,232.49L284.01,239.25L276.82,242.95L270.21,242.26L272.66,243.64L270.95,247.56L276.02,248.56L274.99,251.38L278.14,258.00L287.16,268.61L286.28,275.27L281.19,279.07L280.15,283.93L273.27,285.58L270.67,282.72L270.49,272.07L265.62,264.81ZM171.07,221.76L176.95,221.68L176.07,224.54L174.15,221.64L171.07,221.76ZM228.77,196.44L228.35,201.38L223.46,201.70L221.59,204.61L227.23,212.32L218.60,213.38L220.47,204.37L218.11,201.65L215.33,203.03L217.56,198.76L223.38,199.04L223.88,194.75L231.38,192.52L228.77,196.44ZM165.79,173.46L164.34,171.46L166.73,168.09L173.21,168.13L169.99,173.65L163.47,177.69L162.84,175.56L165.79,173.46ZM170.96,190.27L183.44,188.87L175.42,192.79L170.96,190.27ZM178.04,178.09L176.63,176.05L179.16,174.07L177.09,168.37L187.50,166.11L179.20,179.17L178.04,178.09ZM206.26,180.93L202.68,180.78L198.00,186.24L191.01,176.26L194.99,175.35L201.29,165.86L205.50,166.77L208.84,161.72L212.68,160.20L212.88,156.85L215.18,158.80L211.41,162.19L212.81,171.33L207.82,173.93L208.98,176.09L211.19,175.17L212.49,179.23L211.33,181.41L206.26,180.93ZM214.36,180.76L217.79,173.81L221.80,174.79L222.36,182.79L219.52,180.65L216.49,183.16L214.36,180.76ZM225.15,175.05L228.70,173.31L229.84,177.35L226.17,177.73L225.15,175.05Z"><title>松山市</title></path>
<path data-code="38202" data-name="今治市" d="M315.90,200.79L303.44,200.63L301.92,188.72L291.13,183.04L292.01,168.55L290.56,166.76L281.70,165.72L276.66,161.93L273.88,164.56L265.71,157.36L275.12,149.14L275.24,150.86L276.06,147.69L280.51,146.56L284.00,141.02L290.70,141.26L295.29,137.46L299.16,139.77L302.51,138.38L301.58,130.47L305.54,128.14L304.04,121.24L297.11,119.91L294.82,121.57L292.52,118.03L300.10,116.84L303.43,118.68L308.86,108.50L317.67,122.44L320.75,119.01L321.23,123.77L329.88,138.42L329.60,135.09L335.07,139.71L335.81,144.60L338.25,141.95L337.41,146.32L349.24,170.78L341.12,172.71L339.18,179.54L323.41,181.43L320.34,185.40L319.79,198.62L315.90,200.79ZM327.68,106.28L324.42,103.95L326.78,102.26L331.23,104.62L330.18,106.84L327.68,106.28ZM287.21,94.11L282.85,88.67L286.62,87.32L293.41,90.04L293.21,92.51L289.74,92.69L289.34,96.16L287.21,94.11ZM295.30,90.07L297.95,89.14L294.32,91.67L295.30,90.07ZM303.35,92.40L301.02,90.56L302.59,90.92L301.49,86.88L303.01,85.49L306.43,92.47L303.35,92.40ZM327.68,82.83L314.51,89.79L310.98,89.04L311.67,84.55L308.65,84.60L312.87,77.34L316.51,78.75L316.08,75.58L324.46,77.00L325.86,69.65L323.52,67.64L326.22,67.86L324.14,65.95L324.86,62.67L318.51,63.77L316.17,61.40L318.12,58.95L322.74,59.19L322.54,51.12L326.45,51.60L331.43,47.51L337.33,50.07L342.00,62.35L346.30,63.76L344.40,70.24L346.64,78.50L338.24,83.00L327.68,82.83ZM362.58,99.26L360.33,102.40L355.79,102.91L339.10,122.24L331.83,121.07L335.15,115.66L332.39,114.57L333.97,111.08L332.59,108.93L335.90,102.97L339.96,105.01L338.83,106.64L340.97,105.75L338.91,97.59L334.38,94.66L337.46,88.87L349.88,89.51L354.66,98.20L364.44,94.61L362.58,99.26ZM387.03,123.83L385.96,120.71L389.67,121.99L387.03,123.83ZM354.65,92.85L356.23,88.30L358.13,89.25L356.44,93.07L354.65,92.85ZM368.16,82.96L365.57,84.38L368.64,88.08L363.32,89.83L359.56,84.59L354.05,89.14L351.21,83.45L347.01,83.79L345.13,81.58L349.39,78.95L346.77,75.61L348.47,72.57L353.86,74.67L362.62,69.97L362.46,78.10L370.87,80.69L373.19,78.18L372.41,82.12L368.16,82.96Z"><title>今治市</title></path>
<path data-code="38203" data-name="宇和島市" d="M158.20,520.38L156.85,525.57L156.08,523.21L153.33,523.19L156.26,521.05L153.29,519.39L153.75,516.49L155.57,517.89L159.76,514.93L156.38,514.14L157.81,511.44L154.65,509.41L155.12,506.89L148.53,504.45L155.81,503.49L156.26,508.17L160.57,504.25L165.52,505.98L165.89,499.48L158.65,497.61L157.66,500.31L156.54,497.79L152.80,499.34L150.69,497.36L150.21,501.56L147.38,499.73L147.33,494.99L141.45,492.11L144.24,492.98L143.64,486.86L147.39,487.46L149.44,484.15L151.97,487.48L154.34,485.86L148.65,480.98L148.83,477.83L145.85,480.73L145.01,475.97L140.57,471.65L134.50,472.98L135.81,476.69L139.50,476.46L138.51,479.37L133.22,480.92L132.99,476.96L130.00,475.79L131.17,473.12L138.35,472.04L139.96,469.21L148.53,474.80L152.37,470.86L153.57,472.16L151.09,473.59L152.82,476.57L151.00,477.93L153.05,478.17L151.94,480.44L154.57,483.71L160.20,480.52L158.99,484.24L161.07,484.48L158.36,486.68L162.17,488.72L164.87,485.99L163.39,481.01L165.37,481.36L167.33,482.85L166.06,486.56L170.40,486.60L169.16,479.98L167.18,479.71L168.62,477.40L163.81,478.10L162.09,475.27L166.57,477.34L167.67,475.94L165.78,473.33L170.82,468.67L180.01,469.65L178.61,464.54L184.46,466.92L182.05,465.01L182.85,460.96L178.34,461.37L176.47,457.79L172.29,456.11L179.02,452.24L179.46,447.20L174.58,450.92L170.02,449.60L170.82,451.63L168.79,452.03L166.10,447.76L161.82,448.05L160.29,445.90L157.94,447.88L160.59,449.36L155.36,453.91L156.92,446.89L160.52,443.21L160.09,440.24L168.42,433.78L174.91,433.59L170.60,428.90L165.22,431.56L168.11,422.61L172.27,421.46L183.19,426.68L190.33,424.68L198.26,425.84L201.05,423.81L218.42,424.86L220.22,427.18L219.27,433.49L221.50,445.59L217.58,442.61L215.64,445.95L204.88,444.41L204.39,450.06L200.81,451.15L198.73,454.81L202.30,461.17L202.14,473.84L215.48,469.50L220.38,473.13L211.59,480.31L204.79,482.11L202.98,486.96L208.63,494.76L207.55,501.10L210.30,501.31L213.11,507.68L218.84,510.60L220.85,519.44L219.75,527.03L216.84,530.59L210.29,528.10L204.35,533.01L197.53,531.48L189.89,536.48L180.39,535.95L176.64,538.94L172.06,536.65L167.84,537.63L156.20,531.21L144.54,532.51L136.67,529.39L134.30,531.22L135.39,535.58L132.48,542.95L126.47,543.87L132.56,541.42L131.78,537.69L134.12,537.58L135.00,534.77L132.42,531.67L135.51,528.59L134.60,525.80L138.53,524.81L137.43,527.60L139.05,528.58L141.59,526.62L144.19,532.22L147.64,530.55L148.72,527.16L149.24,531.25L158.88,527.53L160.56,530.87L160.09,528.22L162.20,527.15L159.10,524.78L161.33,523.19L159.12,523.25L158.20,520.38ZM98.34,492.16L97.59,489.48L99.55,491.30L104.68,489.12L102.74,493.16L105.91,494.03L104.29,495.23L98.34,492.16ZM108.25,513.04L106.78,512.90L107.43,510.82L112.77,510.56L108.25,513.04ZM97.68,487.98L90.04,487.33L88.42,481.16L89.97,481.17L89.92,485.11L91.90,483.50L93.59,486.20L99.40,482.86L99.83,486.06L97.68,487.98ZM136.11,511.64L142.07,509.44L138.65,509.62L138.27,512.99L136.11,511.64ZM125.32,471.92L120.79,474.12L121.52,479.78L119.68,479.22L118.62,473.55L114.32,472.47L122.25,472.02L126.09,468.15L125.33,466.62L127.91,470.39L125.32,471.92ZM168.46,464.01L171.51,459.03L176.97,464.73L172.24,468.07L168.46,464.01Z"><title>宇和島市</title></path>
<path data-code="38204" data-name="八幡浜市" d="M114.52,404.51L112.66,400.11L115.88,398.91L114.52,404.51ZM116.36,407.35L115.17,404.71L123.04,406.28L120.06,409.42L116.36,407.35ZM127.34,402.50L132.38,397.55L130.00,395.52L131.51,392.12L126.66,390.96L132.34,385.68L135.31,387.72L134.72,385.26L138.66,380.62L127.64,380.75L136.07,379.18L140.26,372.79L135.49,375.48L130.27,374.41L130.74,375.91L129.94,371.31L133.50,371.88L134.06,369.60L130.24,367.33L126.60,370.30L126.33,374.27L124.71,373.76L125.97,361.87L119.64,352.21L130.14,347.35L134.21,341.83L142.81,338.55L142.46,342.78L145.50,345.26L154.71,344.82L156.15,348.44L160.08,350.52L159.02,355.87L155.00,357.70L153.35,362.67L155.85,365.44L161.96,365.72L161.34,367.66L165.38,370.90L166.43,378.39L161.98,380.74L158.16,389.24L160.15,394.26L150.09,396.86L149.75,394.07L143.44,394.15L141.18,390.37L136.88,393.95L132.68,402.18L127.34,402.50Z"><title>八幡浜市</title></path>
<path data-code="38205" data-name="新居浜市" d="M448.75,230.74L442.83,228.45L433.14,236.08L417.62,230.04L414.49,219.42L408.90,216.50L407.27,212.90L410.33,210.16L405.28,198.88L407.77,195.48L406.93,190.95L403.31,187.42L403.91,181.10L407.75,182.59L407.66,179.66L410.34,180.81L408.33,179.33L410.08,178.01L408.57,177.92L408.24,173.32L412.56,171.59L413.04,179.25L413.09,175.74L415.51,176.31L414.09,174.67L418.06,174.08L413.62,171.57L417.94,171.26L418.54,168.06L420.21,171.71L421.93,169.80L428.03,170.24L431.67,166.20L435.82,166.74L433.86,171.02L436.56,171.69L436.50,166.96L439.42,167.38L441.16,169.94L440.03,171.09L443.07,172.14L453.57,169.55L454.51,171.27L447.46,182.64L446.83,198.85L441.36,209.10L449.11,212.56L456.92,207.84L469.71,205.99L474.67,214.68L472.27,216.81L475.15,227.04L473.07,228.87L462.15,226.27L457.47,227.70L454.44,232.33L448.75,230.74ZM447.16,164.04L444.69,168.18L441.16,165.29L442.53,161.93L446.60,161.01L447.16,164.04Z"><title>新居浜市</title></path>
<path data-code="38206" data-name="西条市" d="M327.68,235.20L323.22,237.18L319.01,230.11L317.26,223.76L319.42,219.74L314.63,212.56L314.26,202.98L319.09,200.28L320.34,185.40L323.41,181.43L339.18,179.54L341.12,172.71L347.73,170.79L349.25,170.79L348.15,173.89L351.21,174.60L355.80,180.55L356.27,185.26L360.43,183.80L357.99,187.22L362.57,184.35L366.32,186.95L364.06,191.05L366.21,193.39L368.42,186.78L368.45,190.59L370.87,192.35L381.71,187.11L383.18,192.19L384.93,190.96L383.01,186.75L386.09,186.63L385.40,184.42L391.07,185.03L392.66,189.17L392.21,184.95L402.10,182.95L401.93,180.59L404.05,184.31L403.41,188.25L405.28,187.54L406.93,190.95L407.77,195.48L405.28,198.88L410.33,210.16L407.27,212.90L408.90,216.50L414.49,219.42L417.49,229.77L414.35,232.43L408.99,246.11L399.08,249.45L394.29,243.92L390.16,244.15L386.81,254.79L378.79,261.11L362.97,252.35L360.24,256.46L354.65,258.73L335.49,256.22L333.54,254.23L333.13,249.80L335.23,247.63L331.87,236.56L327.68,235.20Z"><title>西条市</title></path>
<path data-code="38207" data-name="大洲市" d="M153.56,363.11L155.00,357.70L159.02,355.87L160.08,350.52L156.15,348.44L154.71,344.82L151.26,346.26L143.74,343.99L141.91,337.10L159.18,312.19L162.85,312.86L175.79,304.86L185.07,318.74L192.05,309.31L199.19,310.61L202.66,314.46L203.40,320.32L208.64,327.92L206.48,332.37L208.77,332.23L211.03,338.17L210.54,342.32L207.74,344.56L208.11,350.61L212.33,352.83L212.63,357.43L217.62,356.69L219.24,361.87L226.42,355.49L235.13,354.61L242.38,350.29L243.84,346.62L247.46,347.43L253.03,342.62L259.82,347.21L263.67,341.66L269.16,339.16L275.70,349.91L269.46,358.39L266.86,355.76L259.87,363.14L254.67,364.31L251.00,362.11L248.18,363.89L245.21,376.93L241.39,378.89L239.91,375.89L234.29,376.33L234.34,386.87L228.08,390.08L227.58,387.16L224.46,386.74L221.92,389.71L215.63,387.89L207.28,381.41L195.15,383.90L189.56,376.41L183.03,382.95L178.57,382.27L175.28,376.77L166.52,377.82L165.38,370.90L161.34,367.66L161.96,365.72L155.85,365.44L153.56,363.11Z"><title>大洲市</title></path>
<path data-code="38210" data-name="伊予市" d="M185.39,318.72L175.91,304.90L193.59,298.73L215.20,281.84L222.56,268.31L223.11,263.18L228.28,260.30L228.48,257.21L230.05,259.32L230.05,250.97L233.74,253.35L235.68,250.39L238.75,250.36L241.00,252.89L241.13,250.46L245.27,250.41L245.01,248.03L254.62,246.28L249.60,257.40L244.06,258.31L245.65,262.22L242.34,266.33L245.08,270.88L249.67,272.04L251.60,278.48L256.06,282.12L254.45,288.57L257.15,288.54L253.73,291.51L251.45,301.02L247.69,302.71L245.32,308.78L239.93,309.70L237.55,314.61L233.30,317.30L222.86,311.36L217.96,313.24L214.66,310.54L214.96,299.28L210.93,298.25L204.20,300.22L199.19,310.61L192.00,309.34L185.39,318.72Z"><title>伊予市</title></path>
<path data-code="38213" data-name="四国中央市" d="M484.18,228.98L475.01,227.43L472.27,216.81L474.67,214.68L469.71,205.99L456.92,207.84L449.11,212.56L441.55,209.52L441.24,207.04L446.83,198.85L447.68,181.78L454.51,171.27L454.10,168.73L460.80,167.68L461.82,169.52L474.47,170.20L486.07,176.09L494.12,174.15L493.56,175.76L500.14,169.11L502.13,170.36L500.45,168.56L501.92,165.99L503.78,169.56L506.54,165.93L502.93,162.68L504.49,161.00L507.57,163.65L505.45,159.94L509.42,160.54L512.06,153.84L512.96,157.38L513.01,154.86L515.46,154.78L515.01,151.85L519.14,150.91L521.47,147.08L526.26,151.48L530.61,149.35L534.73,153.96L540.34,152.37L547.28,156.97L549.71,162.62L546.27,170.42L548.57,170.55L548.82,177.81L551.86,178.64L550.14,181.58L552.00,184.71L546.53,190.65L551.26,196.58L547.07,199.20L547.19,205.60L541.43,210.11L533.37,210.61L530.80,213.79L525.48,210.38L520.97,210.67L516.49,215.49L505.78,209.90L497.96,217.80L498.11,220.93L492.27,223.47L491.37,228.71L489.21,230.49L484.18,228.98Z"><title>四国中央市</title></path>
<path data-code="38214" data-name="西予市" d="M125.32,428.37L123.38,426.47L126.01,421.47L128.70,419.26L129.01,421.53L130.89,420.74L130.89,417.81L136.99,419.38L136.25,415.48L140.02,414.13L138.56,412.07L135.40,412.76L139.69,403.87L136.85,403.51L135.01,408.75L128.37,412.02L130.02,409.09L126.92,402.71L132.68,402.18L136.88,393.95L141.18,390.37L143.44,394.15L149.75,394.07L150.09,396.86L160.15,394.26L158.16,389.24L161.98,380.74L166.62,377.76L175.28,376.77L178.57,382.27L183.03,382.95L189.56,376.41L195.15,383.90L207.28,381.41L215.73,387.92L221.92,389.71L224.46,386.74L227.99,387.33L227.86,390.06L231.93,389.66L235.33,382.73L234.29,376.33L239.91,375.89L241.39,378.89L245.12,377.04L248.15,363.91L251.00,362.11L254.67,364.31L259.87,363.14L266.86,355.76L269.54,358.35L275.28,349.98L284.22,358.23L294.00,359.27L295.62,363.73L293.99,367.67L295.32,370.05L278.23,366.49L265.97,372.11L265.57,376.47L271.53,379.55L270.50,385.83L273.94,389.45L274.42,397.07L280.53,397.89L281.12,400.42L276.96,405.46L271.18,407.77L269.85,413.96L263.98,419.39L257.99,418.09L256.64,414.39L248.17,419.43L238.62,418.91L237.63,416.43L235.08,418.69L220.84,416.86L218.08,417.47L216.60,423.58L212.34,425.55L201.18,423.80L198.26,425.84L190.33,424.68L183.19,426.68L172.17,421.47L168.11,422.61L165.22,431.52L163.41,426.28L161.50,427.95L162.61,429.95L155.58,428.63L154.43,430.40L156.36,431.00L150.97,432.69L143.51,428.39L140.29,434.83L133.63,432.58L131.51,428.69L125.32,428.37Z"><title>西予市</title></path>
<path data-code="38215" data-name="東温市" d="M287.21,268.89L278.14,258.00L274.99,251.38L276.02,248.56L270.95,247.56L272.66,243.64L270.24,242.19L276.82,242.95L284.01,239.25L285.11,232.49L290.29,223.33L287.51,217.07L290.40,210.25L301.08,205.24L303.80,200.64L307.17,202.20L309.06,200.11L313.97,200.65L314.63,212.56L319.42,219.74L317.26,223.76L319.01,230.11L323.22,237.18L326.07,235.14L331.87,236.56L335.23,247.63L333.13,249.80L333.54,254.23L335.43,256.50L330.98,258.80L325.26,257.68L321.34,265.19L315.42,262.09L312.51,264.59L312.56,267.56L297.67,269.85L293.12,273.08L288.20,271.91L287.21,268.89Z"><title>東温市</title></path>
<path data-code="38356" data-name="上島町" d="M377.28,73.41L376.49,70.10L378.29,68.73L383.40,70.02L381.79,73.03L377.28,73.41ZM391.36,66.86L389.82,73.15L386.10,75.89L384.72,74.25L386.91,73.88L387.57,65.79L390.23,64.03L391.36,66.86ZM396.75,66.86L398.67,67.08L394.33,71.47L392.55,70.75L393.78,63.70L392.06,59.55L396.58,53.33L401.76,50.45L404.40,56.26L395.34,63.51L396.75,66.86ZM378.73,66.86L370.65,70.37L369.77,64.10L374.28,55.37L377.06,54.92L381.59,62.89L378.73,66.86ZM413.77,89.87L413.47,87.49L415.84,86.28L417.25,92.35L414.46,93.05L413.77,89.87ZM427.52,94.46L427.81,92.59L433.14,93.83L433.98,96.44L430.10,97.86L427.52,94.46ZM381.65,55.07L383.40,53.02L386.45,56.35L388.64,59.33L387.97,63.53L383.36,63.71L383.87,59.23L381.65,55.07Z"><title>上島町</title></path>
<path data-code="38386" data-name="久万高原町" d="M294.00,359.27L295.46,352.79L302.24,345.34L300.83,342.20L303.83,334.89L298.92,328.69L294.79,327.22L294.51,324.19L278.02,321.63L277.27,316.63L281.39,311.14L279.41,306.26L272.95,303.46L274.50,293.81L271.04,291.94L270.00,288.24L280.15,283.93L281.19,279.07L286.28,275.27L287.24,269.80L293.12,273.08L297.67,269.85L312.56,267.56L312.51,264.59L315.42,262.09L321.34,265.19L325.26,257.68L330.98,258.80L337.95,256.02L346.50,259.19L354.65,258.73L360.24,256.46L362.97,252.35L378.79,261.11L379.87,268.45L372.95,274.56L374.44,278.93L368.26,281.31L366.63,284.31L365.44,296.13L351.97,299.86L349.45,311.11L353.46,316.15L346.01,321.19L342.77,328.74L347.86,334.45L348.45,341.88L339.92,348.21L338.82,353.75L331.99,362.13L332.66,365.84L314.61,371.50L309.56,369.30L297.89,370.68L294.00,367.72L295.77,365.27L294.00,359.27Z"><title>久万高原町</title></path>
<path data-code="38401" data-name="松前町" d="M230.55,250.91L228.01,247.09L231.26,246.54L227.27,246.34L228.09,243.50L225.94,239.85L246.45,239.67L253.42,243.47L250.47,247.21L245.01,248.03L245.27,250.41L241.13,250.46L241.05,252.88L238.86,252.61L238.75,250.36L235.68,250.39L233.74,253.35L230.55,250.91Z"><title>松前町</title></path>
<path data-code="38402" data-name="砥部町" d="M245.92,307.53L247.69,302.71L251.45,301.02L253.73,291.51L257.15,288.60L254.45,288.57L256.06,282.12L251.60,278.48L249.67,272.04L245.08,270.88L242.33,266.40L245.65,262.22L244.32,257.95L249.60,257.40L253.97,250.35L253.42,243.47L265.16,248.89L261.86,250.16L261.12,255.32L271.14,274.20L270.67,282.72L273.27,285.58L269.92,289.66L274.43,293.55L272.95,303.46L275.23,304.73L261.77,312.26L258.07,310.06L258.09,312.60L252.55,316.69L245.92,307.53Z"><title>砥部町</title></path>
<path data-code="38422" data-name="内子町" d="M218.96,361.69L217.62,356.69L212.63,357.43L212.33,352.83L208.11,350.61L207.74,344.56L210.54,342.32L211.03,338.17L208.77,332.23L206.48,332.37L208.64,327.92L198.89,309.27L204.58,299.95L214.12,298.18L215.59,311.69L217.99,313.25L222.86,311.36L233.30,317.30L241.56,309.06L246.84,308.84L252.90,316.65L258.09,312.60L258.07,310.06L261.77,312.26L275.71,303.97L279.50,306.35L281.56,311.94L277.27,316.63L278.60,322.41L283.67,321.17L284.54,323.88L294.29,324.07L294.79,327.22L298.92,328.69L303.83,334.89L300.83,342.20L302.24,345.34L295.46,352.79L294.00,359.27L286.79,359.27L278.10,353.93L269.33,339.14L263.67,341.66L259.82,347.21L253.03,342.62L247.46,347.43L243.84,346.62L242.59,350.11L237.08,353.57L226.42,355.49L218.96,361.69Z"><title>内子町</title></path>
<path data-code="38442" data-name="伊方町" d="M44.37,410.70L36.87,411.52L38.01,406.95L41.94,407.99L40.08,405.53L42.96,404.62L42.33,400.82L34.51,402.10L19.44,410.43L20.62,413.76L11.96,419.12L8.00,418.93L42.90,389.50L47.60,396.21L48.70,388.99L53.54,394.51L57.56,392.87L58.65,389.70L51.81,384.64L54.65,381.70L60.17,387.04L59.85,379.32L62.42,378.22L66.87,380.90L68.52,375.48L72.01,379.57L76.68,379.97L77.00,374.26L81.44,373.99L82.27,371.77L85.06,374.31L82.73,374.75L88.22,377.79L89.93,371.05L87.60,368.63L92.17,367.14L93.73,368.85L95.18,365.58L102.59,363.79L103.68,361.08L113.93,357.34L119.64,352.21L125.13,359.44L126.01,367.27L124.34,370.15L118.33,362.79L116.17,363.30L114.66,364.53L118.48,368.42L108.90,368.90L106.52,377.19L103.14,368.78L100.95,368.25L94.77,378.95L86.47,381.26L80.66,387.39L62.96,392.56L53.79,401.04L53.50,407.86L50.79,406.74L44.37,410.70Z"><title>伊方町</title></path>
<path data-code="38484" data-name="松野町" d="M236.84,487.98L229.27,499.23L226.30,500.35L209.33,483.10L220.38,473.16L217.16,469.68L223.94,463.71L223.93,459.80L231.01,457.24L236.26,458.48L236.67,456.62L240.22,458.17L244.46,451.08L248.58,452.03L253.96,444.90L256.22,445.85L258.92,450.06L253.85,458.98L255.02,472.71L243.75,474.45L242.78,482.11L236.84,487.98Z"><title>松野町</title></path>
<path data-code="38488" data-name="鬼北町" d="M206.26,473.99L202.14,473.84L202.30,461.17L198.73,454.81L200.81,451.15L204.39,450.06L204.88,444.41L215.64,445.95L217.58,442.61L221.66,445.32L219.27,433.49L220.22,427.18L216.58,423.43L218.36,417.12L235.08,418.69L237.63,416.43L238.62,418.91L248.17,419.43L256.64,414.39L257.99,418.09L263.50,419.55L269.82,414.00L271.18,407.77L280.10,401.86L282.41,409.60L290.06,411.92L295.45,419.15L296.44,424.23L293.94,431.44L278.97,440.21L260.64,445.96L258.76,448.97L253.96,444.90L250.22,451.10L244.40,451.13L240.22,458.17L236.77,456.61L234.93,458.71L233.66,457.00L225.84,458.50L219.21,468.46L210.18,470.00L206.26,473.99Z"><title>鬼北町</title></path>
<path data-code="38506" data-name="愛南町" d="M165.55,585.17L174.68,583.68L171.09,590.32L165.55,589.51L162.93,592.49L156.74,589.24L158.59,583.14L153.25,576.11L159.97,576.78L160.86,574.30L163.26,576.19L166.73,570.22L156.03,564.59L160.67,563.83L160.72,560.38L164.90,557.52L163.71,559.70L167.51,560.67L164.56,562.57L167.31,563.37L163.44,566.52L167.56,567.21L169.46,565.12L171.12,567.97L173.52,566.39L174.84,568.39L175.82,566.08L181.94,569.54L183.24,568.18L177.96,562.53L177.88,565.06L176.13,562.79L173.45,563.56L173.71,561.50L169.43,561.81L165.98,555.31L167.77,550.87L164.17,545.62L160.83,548.50L159.96,533.54L156.27,537.44L156.16,533.40L149.63,534.00L150.29,539.10L146.00,532.86L143.20,535.09L142.53,531.86L136.79,530.85L137.35,537.71L134.73,539.49L137.20,542.10L133.37,542.38L132.12,547.60L131.22,544.95L127.92,545.63L126.48,543.88L131.39,543.91L135.09,537.45L134.49,530.90L138.31,529.14L144.43,532.50L156.13,531.20L167.84,537.63L172.06,536.65L176.64,538.94L180.39,535.95L189.89,536.48L197.53,531.48L204.35,533.01L210.29,528.10L217.91,531.23L223.50,538.11L223.06,548.64L226.31,553.53L224.52,555.18L227.80,563.05L226.17,567.12L224.44,566.72L225.17,573.44L215.16,576.31L216.20,581.82L212.70,580.80L197.78,586.73L196.50,585.30L197.96,583.11L195.06,581.90L193.65,576.68L198.92,573.13L191.48,574.48L190.96,576.65L189.49,573.43L181.39,574.11L187.64,580.25L178.75,577.80L177.50,572.84L174.37,574.12L169.89,572.16L167.34,575.51L174.54,578.88L171.02,579.15L165.55,585.17ZM146.90,575.94L144.95,574.92L152.41,572.34L151.30,575.04L146.90,575.94Z"><title>愛南町</title></path>
  </g>
</svg>
