<?xml version="1.0" encoding="UTF-8"?>
<svg xmlns="http://www.w3.org/2000/svg" viewBox="0 0 560 640" class="pref-muni-svg" role="img" aria-label="自治体境界図">
  <g class="pref-muni-svg__paths" fill="#eaf2fb" stroke="#5b7fa8" stroke-width="0.6" stroke-linejoin="round">
<path data-code="07201" data-name="福島市" d="M357.87,222.79L345.91,223.03L332.07,226.87L330.58,226.17L329.78,218.78L316.13,212.52L317.87,206.37L315.97,195.60L320.04,192.13L318.02,188.01L318.93,185.44L326.38,176.09L329.31,175.15L331.02,169.16L335.83,165.63L327.20,159.85L325.21,155.98L327.48,144.28L325.98,137.21L327.70,135.47L325.91,127.75L330.67,117.04L327.87,107.76L330.38,104.18L346.06,113.38L351.79,113.49L353.21,110.62L360.62,113.08L360.96,108.42L364.69,104.99L367.26,105.26L367.75,108.85L373.54,112.28L378.03,111.34L379.05,113.54L386.78,115.06L384.62,118.19L384.88,123.55L389.47,131.54L384.41,134.85L385.67,137.25L382.43,140.58L382.15,144.75L389.55,151.22L386.50,151.40L385.75,153.74L388.80,158.60L391.74,158.61L391.02,162.93L389.09,162.67L399.83,165.92L399.02,169.21L402.21,170.49L400.41,176.10L401.98,181.99L406.32,182.22L409.06,179.73L414.30,182.71L408.38,190.66L406.35,200.39L408.04,203.52L405.56,205.37L408.81,210.20L408.08,214.23L412.02,214.19L411.04,216.85L414.15,219.53L408.17,222.81L408.48,225.62L401.62,228.64L401.58,224.03L397.04,227.20L398.03,228.93L394.77,232.53L393.31,231.05L394.95,227.25L391.57,227.01L391.38,229.45L389.06,228.41L388.08,226.27L389.83,222.83L369.39,225.87L357.87,222.79Z"><title>福島市</title></path>
<path data-code="07202" data-name="会津若松市" d="M248.91,339.33L245.36,340.68L235.66,337.17L233.60,340.80L225.50,341.48L226.41,339.70L223.32,335.82L223.60,332.91L226.14,332.84L225.59,330.58L216.33,334.99L215.55,330.25L213.19,328.31L216.94,323.07L227.14,317.13L227.99,314.43L223.82,308.91L221.74,292.02L213.74,291.55L212.51,294.89L210.01,292.89L209.39,287.60L203.05,278.77L202.77,275.67L205.98,268.84L204.76,266.61L212.48,265.77L213.51,260.44L221.25,261.16L222.29,256.19L219.17,255.35L218.80,251.32L221.72,247.67L235.71,252.55L237.87,257.16L245.15,257.21L249.55,261.55L254.02,262.11L253.52,266.63L254.94,267.46L253.64,269.33L256.36,268.83L255.90,272.10L258.45,276.52L282.16,288.74L279.40,294.91L272.21,302.15L267.62,303.76L264.13,308.96L262.81,318.34L264.85,326.60L259.90,337.16L256.56,335.35L253.13,342.21L248.91,339.33Z"><title>会津若松市</title></path>
<path data-code="07203" data-name="郡山市" d="M285.53,339.37L282.80,340.06L282.44,343.50L274.76,342.28L271.34,344.35L259.86,337.48L264.85,326.60L262.81,318.34L264.13,308.96L267.62,303.76L272.21,302.15L279.40,294.91L282.16,288.74L295.26,290.84L300.31,293.12L301.94,296.44L307.24,296.06L307.68,290.44L305.16,287.07L306.90,283.39L303.51,279.58L304.36,274.03L300.98,272.98L297.26,267.79L308.14,255.95L315.41,257.72L318.91,249.92L318.35,244.96L325.54,240.23L331.75,231.89L333.43,236.92L329.76,248.05L332.57,254.52L332.06,257.58L338.08,268.28L337.73,271.39L341.79,271.03L340.54,276.07L342.17,277.22L342.75,283.68L341.41,285.94L346.14,289.67L346.84,285.44L355.78,288.84L362.57,286.05L367.19,281.11L370.86,284.88L371.94,283.02L377.17,284.46L379.52,282.95L380.01,285.01L382.48,285.05L386.60,282.66L386.24,284.33L389.79,286.97L385.67,289.64L384.64,294.66L387.44,297.42L385.26,300.34L385.95,302.18L382.94,303.04L380.16,300.26L377.89,304.83L373.06,303.39L371.92,309.32L374.46,309.13L372.80,306.33L376.11,306.55L375.69,309.44L378.10,308.66L377.40,311.10L380.23,311.10L379.97,315.39L378.03,314.35L377.76,317.39L380.59,319.32L387.28,317.44L388.15,325.00L390.44,324.92L392.90,318.14L397.26,319.39L400.48,317.22L404.49,319.60L406.18,323.53L411.40,326.77L405.99,333.88L405.07,338.63L412.68,345.69L409.93,350.67L411.44,360.06L404.12,362.97L400.60,361.70L397.16,356.60L386.68,353.49L381.07,348.25L371.33,346.97L358.96,341.33L358.19,334.87L318.22,337.91L312.98,332.99L312.89,330.06L306.52,329.51L303.88,324.29L297.62,336.65L293.80,339.15L291.51,337.62L285.53,339.37Z"><title>郡山市</title></path>
<path data-code="07204" data-name="いわき市" d="M430.22,495.32L427.30,494.93L420.90,486.59L421.38,482.41L418.96,479.78L417.90,472.47L413.11,465.08L422.81,457.95L423.86,456.17L422.54,454.13L427.99,454.33L430.22,441.95L435.39,439.22L434.57,434.92L439.52,432.57L438.33,428.60L441.76,427.09L439.15,417.13L435.37,415.18L432.37,403.46L429.89,407.79L429.04,404.22L426.37,403.68L425.78,397.30L423.31,394.67L425.17,391.93L425.09,385.48L428.07,385.67L438.70,377.54L442.67,377.70L446.90,374.58L447.72,362.18L450.14,358.78L448.77,355.22L450.51,353.34L449.10,350.52L450.68,345.10L458.64,343.48L464.54,351.73L469.74,350.24L471.14,352.45L474.57,351.82L474.96,354.83L479.75,357.16L477.11,359.62L477.24,362.48L482.23,368.26L488.89,367.23L491.71,364.47L496.34,365.92L498.07,359.83L503.26,358.87L500.26,365.26L503.46,372.20L500.25,376.76L501.95,379.00L509.78,379.22L514.50,385.81L517.15,385.33L526.13,392.15L529.71,390.94L539.06,393.08L540.22,406.19L538.70,405.51L540.34,407.21L538.39,410.57L538.89,420.17L534.16,426.32L531.08,442.39L531.20,454.55L533.55,455.66L533.81,461.48L530.23,464.25L529.16,470.73L526.82,470.83L524.04,474.28L524.56,476.23L520.58,477.15L517.22,483.23L512.33,483.78L514.50,481.45L510.71,480.01L505.45,482.30L506.41,483.75L503.74,484.24L504.15,486.18L502.10,484.75L501.75,488.16L498.69,488.35L499.65,490.39L496.49,488.90L492.86,493.14L488.99,491.69L485.65,493.25L479.31,501.91L477.89,506.35L478.97,511.09L477.06,512.23L474.43,508.19L471.38,507.99L472.62,509.72L470.74,510.01L469.31,506.33L468.81,508.18L463.74,505.17L458.08,506.87L450.48,500.35L438.89,495.89L433.46,497.15L430.22,495.32Z"><title>いわき市</title></path>
<path data-code="07205" data-name="白河市" d="M321.70,451.68L314.37,451.18L312.99,453.12L308.13,451.13L305.96,446.55L307.17,442.48L304.53,439.22L305.27,436.07L299.36,434.26L293.62,428.53L294.92,427.29L292.57,425.80L294.67,424.29L297.44,426.22L296.66,422.70L302.19,420.29L300.51,417.94L304.59,414.98L300.89,412.62L307.54,409.97L310.01,398.85L302.87,395.96L303.57,392.65L292.32,382.83L289.89,387.23L287.53,381.07L278.55,373.14L278.09,368.19L282.45,364.57L289.95,367.38L292.11,370.78L302.59,370.65L314.20,378.18L333.34,380.47L335.19,382.84L334.76,386.42L336.67,387.42L334.23,391.10L322.83,390.60L317.34,394.02L324.94,398.62L329.43,398.81L328.39,400.17L330.39,401.59L326.45,406.17L330.46,409.44L334.11,408.95L334.29,413.92L353.34,417.14L361.37,413.79L368.76,417.47L368.59,420.58L363.31,426.33L360.21,427.07L356.59,432.08L351.98,432.77L352.28,436.07L354.32,437.03L350.90,436.71L351.35,442.74L344.99,441.24L340.70,444.38L342.00,446.24L339.92,448.91L340.50,452.69L328.98,454.74L326.69,459.84L322.18,456.71L321.70,451.68Z"><title>白河市</title></path>
<path data-code="07207" data-name="須賀川市" d="M334.14,368.88L310.12,362.46L307.97,359.82L306.38,361.76L294.29,356.00L289.44,350.60L285.27,350.69L280.04,343.85L286.94,338.08L293.80,339.15L297.62,336.65L303.88,324.29L306.52,329.51L312.89,330.06L312.98,332.99L318.22,337.91L358.19,334.87L358.96,341.33L371.33,346.97L381.07,348.25L386.68,353.49L397.16,356.60L400.60,361.70L404.16,362.97L399.79,364.36L397.24,369.24L390.15,368.87L389.91,377.71L387.60,378.24L372.61,376.66L371.83,372.08L364.33,369.93L355.46,370.05L353.76,368.32L356.77,367.50L359.53,362.64L349.61,357.69L347.27,358.31L347.13,363.83L345.32,363.47L342.96,369.48L334.14,368.88Z"><title>須賀川市</title></path>
<path data-code="07208" data-name="喜多方市" d="M212.36,247.42L209.09,247.80L208.32,244.14L202.84,244.01L201.31,239.98L194.39,236.97L189.73,239.74L191.83,236.67L191.35,233.08L187.47,231.90L194.21,232.81L192.73,227.67L186.50,230.29L184.95,236.01L186.41,242.36L188.13,243.00L186.27,244.67L182.52,244.80L182.22,242.45L180.20,243.67L178.29,241.65L170.29,245.72L168.34,243.03L166.81,245.92L162.95,236.31L159.94,236.00L158.47,239.20L153.74,237.99L156.64,233.87L153.43,233.28L155.09,230.46L162.58,228.61L163.45,223.62L166.06,221.06L163.60,214.93L165.63,214.06L164.28,207.30L167.45,195.73L173.34,184.12L171.20,175.71L175.78,171.78L170.75,164.05L174.36,161.13L166.84,149.28L157.00,151.41L167.08,148.79L168.59,154.06L174.50,161.12L186.55,156.87L194.31,167.32L208.19,158.85L216.53,165.17L227.61,163.59L229.49,157.84L237.18,163.10L239.92,174.50L243.27,178.14L243.01,180.81L247.21,183.55L247.15,193.32L249.03,195.78L242.38,198.87L239.88,206.16L237.35,206.14L234.00,211.65L228.37,213.69L223.28,224.43L237.07,222.61L249.44,230.58L248.02,233.30L249.13,239.08L241.55,238.65L240.55,241.80L229.69,248.98L222.78,248.02L219.91,243.87L214.76,243.76L212.36,247.42Z"><title>喜多方市</title></path>
<path data-code="07209" data-name="相馬市" d="M460.88,186.72L462.24,180.06L453.25,183.30L447.38,179.33L445.66,173.15L450.29,167.32L455.46,168.40L459.72,175.26L464.98,172.71L479.33,178.23L481.78,175.83L470.73,169.14L474.43,166.21L483.80,170.14L495.93,170.17L497.63,167.38L496.53,153.24L506.38,152.60L516.15,155.45L526.91,153.40L525.74,154.47L527.81,157.41L529.30,152.29L528.04,157.08L531.63,158.47L531.41,156.84L533.25,159.21L531.94,154.94L535.03,160.20L535.59,178.87L541.09,186.75L542.31,195.37L540.30,197.22L530.88,190.58L519.88,188.53L516.83,191.50L513.68,188.74L509.80,190.66L502.25,187.84L492.99,192.73L488.75,187.56L471.74,182.49L467.70,186.14L460.88,186.72Z"><title>相馬市</title></path>
<path data-code="07210" data-name="二本松市" d="M402.58,277.76L395.24,273.41L395.46,268.62L391.84,267.75L390.48,269.74L388.38,267.08L384.52,267.24L382.47,263.15L377.83,263.32L375.73,257.98L370.40,263.86L363.44,255.24L352.56,256.94L350.81,250.84L346.16,245.93L349.76,245.12L347.99,241.85L349.10,237.82L333.56,234.24L330.56,226.21L345.95,223.03L358.69,222.69L369.39,225.87L389.36,222.78L389.06,228.41L391.38,229.45L391.57,227.01L394.95,227.25L393.31,231.05L394.77,232.53L398.03,228.93L397.80,226.28L401.71,224.02L402.33,228.50L408.48,225.62L408.17,222.81L409.72,222.68L418.96,236.05L431.81,239.04L432.48,244.54L434.68,246.74L431.85,248.78L432.60,250.96L435.96,251.07L443.56,245.63L447.48,248.38L444.58,255.97L447.68,258.96L446.19,264.42L436.54,264.93L434.83,267.97L429.15,270.55L424.74,269.62L412.35,277.00L407.48,273.64L404.46,274.30L402.58,277.76Z"><title>二本松市</title></path>
<path data-code="07211" data-name="田村市" d="M457.16,338.46L458.64,343.48L450.65,345.14L449.10,350.52L450.41,350.99L450.05,354.59L443.36,354.79L440.64,359.05L436.51,359.23L433.70,355.17L433.45,349.20L437.06,342.35L435.02,336.04L418.53,331.56L414.56,326.48L408.97,325.43L402.98,318.26L398.75,317.13L399.97,313.87L395.79,307.86L399.38,307.88L398.70,303.24L400.40,303.00L399.91,300.00L401.91,297.21L395.61,293.94L396.17,290.76L397.96,290.40L396.78,289.03L400.60,293.11L400.60,291.33L404.35,292.93L406.22,291.05L400.34,290.35L402.08,287.76L400.21,286.01L405.61,286.82L407.73,290.37L410.41,286.03L411.87,286.60L410.99,282.67L412.74,280.63L410.52,277.47L415.08,274.28L424.83,269.59L429.28,270.52L434.89,267.94L436.54,264.93L446.68,263.90L453.50,269.27L449.48,276.67L471.09,284.26L472.63,287.91L483.47,287.90L486.48,290.92L490.90,289.46L494.03,294.01L495.45,305.50L498.79,310.09L498.16,318.90L495.80,320.21L495.45,324.64L486.45,320.76L478.02,322.31L472.23,318.83L470.48,320.20L460.15,312.51L456.26,315.18L456.48,318.20L451.63,325.28L453.86,326.71L452.42,330.63L457.16,338.46Z"><title>田村市</title></path>
<path data-code="07212" data-name="南相馬市" d="M502.56,261.97L493.66,256.47L491.85,249.65L493.08,243.69L488.42,242.18L489.34,240.35L485.16,235.95L488.07,235.89L490.47,230.39L486.88,221.11L488.15,215.93L484.78,214.03L486.52,211.83L486.09,206.84L487.98,205.23L484.12,202.36L493.29,196.88L492.41,192.53L502.29,187.83L509.80,190.66L513.68,188.74L516.83,191.50L519.54,188.54L527.58,189.20L542.00,196.99L543.04,214.46L548.03,214.64L550.60,217.67L548.01,214.69L544.25,215.21L545.17,217.94L548.30,216.97L544.15,220.49L548.74,272.65L536.97,274.79L518.95,266.36L514.96,267.70L513.63,271.03L508.46,270.30L503.27,268.30L502.56,261.97Z"><title>南相馬市</title></path>
<path data-code="07213" data-name="伊達市" d="M430.22,201.25L426.07,199.83L419.38,208.85L413.04,199.86L407.34,201.80L408.38,190.66L411.16,188.76L413.94,181.45L409.06,179.73L406.32,182.22L401.98,181.99L400.41,176.10L402.21,170.49L399.02,169.21L399.83,165.92L389.09,162.67L391.02,162.93L391.74,158.53L397.07,158.03L399.04,155.32L404.28,157.83L406.19,153.25L410.74,153.86L412.85,150.98L412.20,147.65L416.28,147.50L417.22,142.34L417.98,144.50L421.16,144.78L419.12,138.91L421.65,135.75L421.05,131.81L426.41,126.54L430.89,132.43L435.91,133.75L440.44,131.77L449.05,136.39L446.67,140.86L449.61,149.99L445.91,155.28L450.56,166.87L445.55,175.88L452.64,183.24L462.24,180.06L462.54,182.76L460.13,186.04L453.27,186.68L445.58,190.96L440.87,204.18L435.62,199.84L430.22,201.25Z"><title>伊達市</title></path>
<path data-code="07214" data-name="本宮市" d="M357.87,287.64L350.75,288.42L348.56,285.09L345.82,286.60L346.14,289.67L343.58,288.29L341.41,285.94L342.75,283.68L342.17,277.22L340.55,276.01L350.06,271.97L359.08,271.64L362.04,267.22L360.80,265.09L369.11,266.14L375.73,257.98L377.83,263.32L382.47,263.15L384.52,267.24L388.38,267.08L390.48,269.74L391.84,267.75L395.46,268.62L395.22,273.37L399.16,276.43L394.32,284.09L389.07,283.09L387.07,284.90L385.88,282.57L380.38,285.04L380.01,283.05L372.45,282.93L370.86,284.88L367.19,281.11L362.57,286.05L357.87,287.64Z"><title>本宮市</title></path>
<path data-code="07301" data-name="桑折町" d="M394.05,158.54L387.80,157.77L385.95,152.56L389.55,151.22L382.16,144.92L382.43,140.58L385.67,137.25L384.41,134.85L389.47,131.54L394.47,138.22L405.36,141.80L407.05,146.13L411.49,146.99L412.67,149.65L410.74,153.86L406.19,153.25L404.30,157.83L399.15,155.31L394.05,158.54Z"><title>桑折町</title></path>
<path data-code="07303" data-name="国見町" d="M390.54,132.15L400.38,128.88L411.10,128.47L413.25,123.79L418.19,128.71L422.52,129.31L420.83,132.75L421.61,135.87L419.12,138.91L421.16,144.78L417.98,144.50L417.59,142.15L416.14,147.64L410.21,147.63L407.05,146.13L405.36,141.80L394.47,138.22L390.41,134.61L390.54,132.15Z"><title>国見町</title></path>
<path data-code="07308" data-name="川俣町" d="M448.18,260.17L444.58,255.97L447.20,251.38L446.60,246.53L441.94,246.02L432.98,251.20L431.84,248.79L434.68,246.74L432.48,244.54L431.81,239.04L419.01,236.09L413.37,229.38L413.87,226.78L410.05,222.71L414.13,219.45L411.04,216.85L412.02,214.19L408.08,214.23L408.81,210.20L405.52,206.95L407.94,201.02L413.04,199.86L419.38,208.85L426.17,199.77L430.82,202.16L435.62,199.84L440.87,204.18L437.39,205.75L436.03,209.14L437.57,210.91L439.21,209.46L442.42,213.66L441.03,218.32L442.87,222.10L442.87,230.60L448.70,237.18L459.51,243.65L455.71,251.32L451.31,250.93L451.50,255.37L448.18,260.17Z"><title>川俣町</title></path>
<path data-code="07322" data-name="大玉村" d="M330.86,250.98L329.79,247.35L332.51,241.49L333.03,233.80L345.32,236.33L349.32,238.35L347.99,241.85L349.76,245.12L346.15,245.82L350.81,250.84L351.78,256.21L363.44,255.24L370.40,263.86L369.11,266.14L364.22,266.90L360.83,265.06L362.01,267.34L359.08,271.64L350.06,271.97L341.45,275.34L341.71,270.83L337.73,271.39L338.08,268.28L332.06,257.58L330.86,250.98Z"><title>大玉村</title></path>
<path data-code="07342" data-name="鏡石町" d="M339.77,374.88L342.42,367.90L344.44,368.24L345.32,363.47L347.13,363.83L347.27,358.31L349.61,357.69L355.29,361.06L358.06,360.46L359.59,363.89L353.81,368.74L361.79,370.46L364.17,377.72L355.95,379.55L352.02,377.20L349.27,380.21L345.66,378.57L342.89,380.85L343.81,382.21L341.06,380.11L339.77,374.88Z"><title>鏡石町</title></path>
<path data-code="07344" data-name="天栄村" d="M249.31,387.14L247.53,388.35L239.46,384.45L234.29,379.27L234.31,376.89L239.64,369.99L240.45,365.26L238.49,360.57L243.17,360.22L242.46,356.52L256.71,335.27L267.79,340.75L270.30,344.02L279.14,342.99L285.27,350.69L289.44,350.60L294.29,356.00L306.38,361.76L307.97,359.82L310.12,362.46L321.26,366.17L341.18,370.25L339.94,375.02L337.33,374.07L336.22,378.28L319.36,379.56L310.37,376.68L302.59,370.65L292.11,370.78L289.95,367.38L282.53,364.55L278.09,368.19L278.73,371.58L274.32,370.07L275.18,375.00L270.16,378.29L270.01,383.39L267.77,382.22L263.44,385.86L260.71,384.80L254.49,388.12L249.31,387.14Z"><title>天栄村</title></path>
<path data-code="07362" data-name="下郷町" d="M213.19,406.59L210.67,406.24L206.47,398.48L203.82,398.88L201.09,395.98L206.83,388.28L201.28,377.52L198.20,378.87L191.50,371.95L185.98,375.38L177.91,374.06L178.18,369.32L164.14,367.25L164.81,362.24L175.40,353.59L180.37,356.38L187.46,356.31L189.48,353.98L189.18,349.38L200.76,344.00L200.88,334.60L206.48,333.71L207.53,328.95L213.19,328.31L215.55,330.25L216.33,334.99L225.59,330.58L226.14,332.84L223.60,332.91L223.32,335.82L226.41,339.70L225.50,341.48L233.60,340.80L235.66,337.17L241.67,340.08L252.05,340.69L252.97,342.22L249.77,343.85L247.02,351.62L242.46,356.52L243.17,360.22L238.49,360.57L240.45,365.26L239.64,369.99L234.32,376.84L235.20,380.51L244.19,386.31L237.76,394.19L238.15,404.03L225.02,406.10L221.13,403.67L213.19,406.59Z"><title>下郷町</title></path>
<path data-code="07364" data-name="檜枝岐村" d="M61.11,491.29L58.81,486.17L48.09,486.86L45.18,483.65L41.51,484.93L36.97,481.28L29.69,485.59L26.49,482.33L29.91,481.14L29.97,478.09L32.31,475.94L31.67,470.42L33.11,469.49L31.52,466.96L33.97,463.95L30.42,454.34L35.32,442.48L31.47,434.04L32.02,430.31L29.09,427.11L28.03,419.60L33.45,399.80L30.37,397.80L30.76,393.82L28.83,391.45L33.28,385.94L35.66,389.56L35.62,393.90L41.15,400.30L58.73,397.68L59.16,401.74L56.46,403.69L59.32,415.71L63.72,418.05L68.35,416.81L72.07,420.71L70.55,429.81L79.95,434.32L82.05,444.17L80.59,445.93L89.88,455.75L88.29,466.81L93.08,470.90L92.83,474.76L85.71,481.03L84.67,486.66L78.06,486.59L73.80,492.34L67.92,489.57L61.11,491.29Z"><title>檜枝岐村</title></path>
<path data-code="07367" data-name="只見町" d="M68.35,416.81L63.72,418.05L59.32,415.71L56.46,403.69L59.16,401.74L58.59,397.53L41.15,400.30L35.62,393.90L34.43,386.34L28.53,391.39L23.03,383.56L20.35,388.51L16.88,389.19L16.25,385.32L8.00,375.30L10.56,366.46L21.71,355.04L22.42,347.30L24.89,343.32L23.04,338.16L27.60,334.72L28.88,324.15L26.98,318.60L21.38,317.06L17.07,310.26L20.31,308.07L20.05,303.65L24.61,296.32L28.15,297.86L32.75,295.05L34.81,297.06L42.16,296.01L48.19,292.75L60.06,292.23L64.90,288.70L75.02,292.39L76.48,297.92L72.91,302.48L73.20,306.90L69.09,309.78L70.35,313.54L68.48,319.30L65.38,320.77L70.41,330.71L75.50,327.59L76.94,333.72L84.27,336.17L84.13,338.48L89.49,338.09L93.75,333.52L99.03,332.37L104.08,325.32L107.05,326.50L109.39,321.83L111.30,326.46L120.38,328.64L118.10,330.98L121.03,334.21L117.64,337.38L126.53,342.31L126.16,347.85L122.11,350.88L116.45,347.46L115.86,350.20L112.06,346.22L109.68,350.49L105.86,352.23L105.12,355.65L97.32,353.68L99.45,362.68L102.36,365.44L98.79,376.05L102.07,381.61L96.08,388.79L95.64,393.92L92.28,396.14L92.20,402.49L86.36,405.54L83.09,411.36L78.02,410.57L74.49,415.05L68.35,416.81Z"><title>只見町</title></path>
<path data-code="07368" data-name="南会津町" d="M94.23,470.33L91.81,470.61L88.31,466.87L89.88,455.75L80.59,445.93L82.05,444.17L79.95,434.32L70.62,429.95L72.09,420.76L68.35,416.81L74.49,415.05L78.02,410.57L83.09,411.36L86.36,405.54L92.20,402.49L92.28,396.14L95.64,393.92L96.08,388.79L102.07,381.61L98.79,376.05L102.36,365.44L99.45,362.68L97.33,353.67L105.12,355.65L105.86,352.23L109.68,350.49L112.06,346.22L115.86,350.20L116.45,347.46L121.69,350.96L126.16,347.85L127.37,355.12L132.84,359.87L131.97,365.98L129.93,367.83L131.75,372.95L130.79,378.71L135.56,384.64L139.65,381.62L140.24,376.74L149.21,376.31L150.62,372.31L152.70,373.16L154.49,370.11L161.72,369.71L165.40,366.91L178.18,369.32L177.61,373.76L183.84,375.28L193.84,372.50L194.17,375.45L198.17,378.85L201.28,377.52L206.75,386.81L206.54,390.50L201.07,395.91L207.69,399.65L207.45,402.24L210.67,406.24L208.10,409.52L200.68,411.18L195.88,417.29L197.65,420.40L197.88,428.85L184.23,426.39L177.54,434.28L168.12,434.01L162.68,438.25L154.75,438.86L152.32,445.34L141.01,447.75L138.44,454.33L128.42,454.36L126.79,459.10L118.53,462.17L114.88,466.92L111.51,466.59L102.99,471.54L100.11,468.78L94.23,470.33Z"><title>南会津町</title></path>
<path data-code="07402" data-name="北塩原村" d="M239.49,225.73L234.00,222.05L223.28,224.43L228.37,213.69L234.00,211.65L237.47,206.05L239.83,206.22L242.42,198.84L248.60,196.78L247.15,193.32L247.74,183.16L260.15,180.20L264.24,176.04L269.36,183.86L274.46,183.79L278.91,191.19L285.36,192.61L290.07,191.06L291.61,185.73L299.11,184.52L298.88,191.46L295.88,195.37L295.83,202.03L291.34,207.03L291.62,215.84L277.23,224.81L270.04,238.83L262.50,235.91L250.28,240.40L248.00,235.82L249.44,230.58L239.49,225.73Z"><title>北塩原村</title></path>
<path data-code="07405" data-name="西会津町" d="M140.85,274.27L129.30,273.07L130.88,267.56L127.45,266.83L123.71,261.01L125.62,252.14L123.48,242.28L118.72,237.84L119.78,234.58L118.00,230.83L120.68,226.39L118.94,223.49L132.58,217.36L136.34,210.66L141.49,209.20L140.59,201.20L147.97,194.35L150.36,184.90L170.75,164.05L175.78,171.78L171.20,175.71L173.34,184.12L167.45,195.73L164.28,207.30L165.63,214.06L163.60,214.93L166.06,221.06L163.45,223.62L162.58,228.61L157.68,229.00L153.42,233.15L156.64,233.87L153.75,238.00L158.47,239.20L159.94,236.00L162.95,236.31L165.66,241.43L165.26,244.92L169.82,246.56L169.94,250.37L168.05,252.43L162.46,250.40L162.26,257.25L158.80,263.13L157.48,271.99L155.03,269.69L152.31,275.43L140.85,274.27Z"><title>西会津町</title></path>
<path data-code="07407" data-name="磐梯町" d="M228.38,248.95L240.55,241.80L241.90,238.54L250.44,240.44L264.07,235.88L270.37,240.05L263.94,243.64L261.61,248.49L263.45,250.20L263.30,254.76L260.68,254.98L259.64,258.08L264.58,260.68L264.03,263.17L256.42,265.45L253.51,265.43L254.02,262.11L249.55,261.55L245.15,257.21L237.06,256.72L235.79,252.62L228.38,248.95Z"><title>磐梯町</title></path>
<path data-code="07408" data-name="猪苗代町" d="M285.53,290.07L258.45,276.52L255.90,272.10L256.43,268.95L253.87,269.74L254.93,267.40L253.53,266.50L264.03,263.17L264.58,260.68L259.64,258.05L260.68,254.98L263.30,254.76L263.45,250.20L261.54,249.09L263.51,244.13L270.24,240.96L269.95,236.70L277.23,224.81L291.62,215.84L291.34,207.03L295.83,202.03L295.88,195.37L298.88,191.46L299.11,184.52L318.02,188.01L320.04,192.13L315.97,195.60L317.87,206.37L316.13,212.52L329.78,218.78L331.79,231.80L325.54,240.23L318.35,244.96L318.91,249.92L315.41,257.72L308.14,255.95L297.26,267.79L300.98,272.98L304.36,274.03L303.51,279.58L306.90,283.39L305.16,287.07L307.68,290.44L307.24,296.06L301.94,296.44L300.31,293.12L295.22,290.82L285.53,290.07Z"><title>猪苗代町</title></path>
<path data-code="07421" data-name="会津坂下町" d="M169.07,251.80L170.34,247.69L167.78,245.44L168.31,243.04L170.29,245.72L178.29,241.65L180.20,243.67L182.22,242.45L182.52,244.80L187.89,243.89L184.95,236.01L186.50,230.29L192.79,227.68L194.21,232.81L187.47,231.90L191.35,233.08L191.83,236.67L189.64,239.63L194.04,236.86L201.31,239.98L202.84,244.01L208.61,244.46L208.79,257.96L212.36,262.20L212.48,265.77L191.13,266.45L182.97,272.64L181.43,265.36L175.94,261.64L178.03,254.97L169.07,251.80Z"><title>会津坂下町</title></path>
<path data-code="07422" data-name="湯川村" d="M210.58,260.67L208.76,257.79L209.09,247.80L213.38,247.25L214.95,243.71L221.92,245.09L222.37,247.55L218.80,251.32L219.17,255.35L222.29,256.19L221.25,261.16L213.51,260.44L212.25,262.21L210.58,260.67Z"><title>湯川村</title></path>
<path data-code="07423" data-name="柳津町" d="M176.51,324.63L171.63,328.60L167.92,327.20L156.41,333.26L151.87,332.67L147.79,328.44L145.41,325.09L148.65,323.84L153.11,317.74L149.42,312.60L151.14,308.35L150.40,303.24L152.88,297.60L158.53,292.43L156.66,287.18L166.85,286.01L159.67,279.07L151.14,279.42L147.70,276.98L134.03,280.01L132.00,277.86L133.11,273.44L148.11,275.77L152.93,275.21L155.03,269.69L157.48,271.99L163.10,250.18L178.03,254.97L175.95,261.67L181.93,266.70L181.13,275.21L182.80,279.06L181.02,286.67L176.42,291.19L173.44,290.22L174.83,298.41L179.93,303.77L178.22,306.42L180.39,312.41L176.57,318.60L176.51,324.63Z"><title>柳津町</title></path>
<path data-code="07444" data-name="三島町" d="M140.10,325.67L134.49,323.53L136.67,320.39L132.02,316.31L129.66,306.18L137.08,300.40L138.09,297.17L137.90,293.09L135.18,294.27L130.62,290.47L132.31,284.32L134.68,282.43L134.03,280.01L147.80,276.98L151.14,279.42L161.10,279.62L166.84,286.16L156.66,287.18L158.53,292.43L152.88,297.60L150.40,303.24L151.14,308.35L149.42,312.60L153.10,317.77L148.04,324.29L140.10,325.67Z"><title>三島町</title></path>
<path data-code="07445" data-name="金山町" d="M84.39,338.46L84.27,336.17L76.94,333.72L75.52,327.61L70.41,330.71L65.38,320.77L68.48,319.30L70.35,313.54L69.09,309.78L73.20,306.90L72.91,302.48L76.48,297.92L75.02,292.39L77.57,290.13L79.86,274.07L92.29,271.26L97.77,276.83L100.57,274.02L108.63,274.64L111.46,272.47L123.41,277.15L129.39,273.04L132.18,274.04L132.00,277.86L134.69,282.36L132.31,284.32L130.62,290.47L135.18,294.27L138.16,293.51L137.08,300.40L129.67,306.13L133.48,318.64L124.80,319.34L118.27,316.26L112.87,317.62L108.16,322.16L107.05,326.50L104.05,325.34L98.98,332.41L93.75,333.52L89.58,338.06L84.39,338.46Z"><title>金山町</title></path>
<path data-code="07446" data-name="昭和村" d="M130.79,378.71L131.75,372.95L129.93,367.83L131.97,365.98L132.84,359.87L127.36,355.09L125.59,347.11L126.53,342.31L117.64,337.38L121.03,334.21L118.10,330.98L120.38,328.64L111.30,326.46L109.39,321.83L112.81,317.65L118.19,316.27L124.80,319.34L133.48,318.64L136.67,320.39L134.54,323.59L138.83,326.20L146.16,325.51L153.55,333.11L158.03,332.97L167.01,327.57L166.78,332.50L172.81,339.97L175.97,351.16L174.68,355.10L166.28,360.55L161.80,369.68L154.49,370.11L152.73,373.14L150.21,372.65L149.21,376.31L140.18,376.78L139.68,381.57L137.06,382.17L136.59,384.68L133.78,383.93L130.79,378.71Z"><title>昭和村</title></path>
<path data-code="07447" data-name="会津美里町" d="M176.07,353.70L172.81,339.97L166.61,331.70L167.01,327.57L171.09,328.83L176.53,324.73L176.57,318.60L180.39,312.41L178.22,306.42L179.93,303.77L174.83,298.41L173.49,290.03L176.42,291.19L181.02,286.67L182.80,279.06L181.42,272.08L183.54,272.63L191.13,266.45L204.76,266.61L205.98,268.84L202.96,278.57L212.51,294.89L213.74,291.55L221.74,292.02L223.77,308.70L226.46,311.02L227.57,316.12L216.94,323.07L213.19,328.31L207.11,329.27L206.48,333.71L200.93,334.54L200.76,344.00L189.18,349.38L189.48,353.98L187.46,356.31L180.37,356.38L176.07,353.70Z"><title>会津美里町</title></path>
<path data-code="07461" data-name="西郷村" d="M238.15,404.03L237.76,394.19L244.19,386.31L254.46,388.13L260.71,384.80L263.44,385.86L267.77,382.22L270.01,383.39L270.16,378.29L275.18,375.00L274.36,370.05L282.69,375.68L287.55,381.10L289.89,387.23L292.38,382.87L303.57,392.65L302.87,395.96L310.01,398.85L310.34,401.64L307.54,409.97L300.89,412.62L304.50,415.40L300.51,417.94L301.60,421.09L296.66,422.70L297.36,426.24L294.67,424.29L293.00,425.50L289.09,421.08L286.48,421.96L277.63,414.58L266.57,414.16L260.55,409.07L246.56,407.87L238.15,404.03Z"><title>西郷村</title></path>
<path data-code="07464" data-name="泉崎村" d="M342.63,399.16L343.16,403.75L341.42,404.51L346.70,407.25L347.77,414.53L340.49,415.94L334.29,413.92L334.06,408.90L330.46,409.44L326.46,406.19L330.39,401.59L328.39,400.17L329.43,398.81L324.94,398.62L317.34,394.02L322.83,390.60L332.88,390.08L342.51,396.74L342.63,399.16Z"><title>泉崎村</title></path>
<path data-code="07465" data-name="中島村" d="M347.14,415.03L346.75,407.35L349.65,401.63L352.84,402.34L359.73,394.87L362.18,394.52L366.23,398.62L366.34,401.14L362.16,401.60L356.33,409.03L356.50,415.34L353.34,417.14L347.14,415.03Z"><title>中島村</title></path>
<path data-code="07466" data-name="矢吹町" d="M343.41,405.47L341.42,404.51L343.16,403.75L342.51,396.74L334.23,391.10L336.67,387.42L334.76,386.42L335.19,382.84L333.34,380.47L330.16,379.50L331.07,377.84L336.22,378.28L336.70,374.79L338.98,373.33L341.06,380.11L343.81,382.21L342.89,380.85L345.66,378.57L349.27,380.21L352.07,377.20L355.49,379.51L362.02,378.29L365.58,380.47L363.49,385.72L367.72,397.61L364.82,398.64L362.18,394.52L359.66,394.88L352.84,402.34L349.62,401.66L347.50,407.13L343.41,405.47Z"><title>矢吹町</title></path>
<path data-code="07481" data-name="棚倉町" d="M319.05,479.64L322.60,473.34L319.88,469.43L322.01,465.78L319.04,461.06L320.23,456.12L326.78,459.83L328.98,454.74L340.50,452.69L339.92,448.91L342.00,446.24L340.70,444.38L342.42,442.61L351.81,442.07L350.90,436.71L354.32,437.03L351.93,435.44L352.39,432.25L357.67,430.16L360.73,435.10L363.98,428.80L366.13,428.38L365.54,438.10L374.53,444.45L372.07,447.05L372.37,451.64L374.57,448.24L378.87,446.72L382.84,453.67L373.85,457.36L373.36,459.53L369.24,453.99L367.54,456.51L369.23,459.59L367.69,459.76L369.38,460.34L366.52,461.77L368.83,469.52L366.33,470.02L366.24,473.24L358.17,467.59L355.84,474.04L347.99,479.13L343.51,480.42L339.56,477.07L333.73,478.17L333.17,481.46L328.35,485.29L319.05,479.64Z"><title>棚倉町</title></path>
<path data-code="07482" data-name="矢祭町" d="M394.05,525.78L390.57,526.00L390.96,529.20L387.86,533.80L383.68,535.82L376.25,524.84L374.07,526.48L369.48,521.02L358.51,518.88L355.04,501.98L343.90,499.48L341.21,491.48L331.47,483.09L333.17,481.46L338.46,483.55L345.41,488.31L349.09,495.88L356.74,496.19L358.10,499.22L363.77,502.04L369.35,498.21L368.49,484.81L373.80,486.20L380.78,500.20L384.73,501.26L384.20,503.47L388.47,503.84L390.63,508.30L393.90,507.37L395.04,512.72L402.34,517.05L398.07,524.15L394.05,525.78Z"><title>矢祭町</title></path>
<path data-code="07483" data-name="塙町" d="M357.87,498.09L356.74,496.19L351.43,497.36L348.25,495.23L344.05,487.07L333.23,481.62L333.62,478.28L339.23,477.02L343.45,480.41L347.95,479.15L355.84,474.04L358.17,467.59L366.47,473.13L366.33,470.02L368.83,469.52L366.52,461.77L369.38,460.34L367.69,459.76L369.23,459.59L367.54,456.51L369.24,453.99L373.36,459.53L373.85,457.36L383.12,453.61L383.44,456.01L386.32,456.83L386.92,460.64L381.22,465.25L379.80,468.92L400.65,478.96L411.89,480.10L414.47,484.80L412.86,491.64L417.42,494.66L417.18,498.67L421.04,504.59L414.96,509.35L405.05,511.25L400.73,517.41L395.02,512.69L394.24,507.64L390.63,508.30L388.47,503.84L384.20,503.47L384.73,501.26L380.78,500.20L376.96,490.20L372.79,485.68L368.49,484.81L368.75,499.16L363.77,502.04L357.87,498.09Z"><title>塙町</title></path>
<path data-code="07484" data-name="鮫川村" d="M394.05,475.37L385.92,473.22L379.67,468.59L387.03,458.89L383.40,455.96L384.06,454.39L376.17,441.19L376.96,436.61L375.03,435.58L377.22,431.97L391.14,431.28L393.40,428.71L397.94,430.73L397.93,433.37L401.96,437.49L405.87,436.34L410.79,441.03L409.87,447.48L411.94,452.20L411.55,459.01L416.24,462.58L413.16,465.55L417.87,472.41L419.22,479.44L413.76,482.66L408.66,478.59L400.67,478.96L394.05,475.37Z"><title>鮫川村</title></path>
<path data-code="07501" data-name="石川町" d="M384.36,429.85L382.67,419.18L378.44,420.54L371.88,416.14L367.55,417.35L361.37,413.79L356.50,415.34L355.90,410.14L362.16,401.60L366.34,401.14L367.22,393.34L369.55,394.41L370.55,391.15L374.51,389.35L382.06,390.10L382.17,387.30L387.12,385.79L392.95,389.41L397.56,395.72L401.45,395.43L402.22,399.94L405.30,401.86L405.42,405.51L401.67,408.31L403.19,412.34L400.90,415.93L392.20,419.26L396.25,424.64L393.14,429.05L387.51,431.94L384.36,429.85Z"><title>石川町</title></path>
<path data-code="07502" data-name="玉川村" d="M362.63,374.93L362.60,369.62L371.83,372.08L372.61,376.66L389.36,378.01L390.15,368.87L397.20,369.25L399.64,366.35L396.55,376.33L398.15,379.12L392.93,389.42L386.20,385.81L382.17,387.30L382.06,390.10L374.51,389.35L370.55,391.15L369.55,394.41L367.21,393.35L363.50,385.79L365.69,380.74L362.90,379.01L364.17,377.55L362.63,374.93Z"><title>玉川村</title></path>
<path data-code="07503" data-name="平田村" d="M402.30,399.97L401.45,395.43L397.56,395.72L392.95,389.52L398.15,379.12L396.55,376.33L399.66,364.50L410.61,360.23L410.69,362.10L415.25,363.96L416.54,368.03L423.00,367.66L422.12,376.38L426.98,385.01L425.01,385.56L425.17,391.93L423.31,394.67L426.84,402.11L419.48,403.05L417.33,399.26L413.02,398.51L408.63,402.48L402.30,399.97Z"><title>平田村</title></path>
<path data-code="07504" data-name="浅川町" d="M357.29,430.54L368.59,420.58L367.63,416.64L370.18,415.81L378.44,420.54L382.67,419.18L384.70,431.27L376.00,433.20L376.16,441.16L379.83,446.23L374.57,448.24L372.41,451.64L372.07,447.05L374.53,444.45L365.54,438.10L366.81,428.93L364.26,428.49L360.73,435.10L357.29,430.54Z"><title>浅川町</title></path>
<path data-code="07505" data-name="古殿町" d="M413.34,460.38L411.55,459.01L411.94,452.20L409.88,447.54L410.43,440.11L405.87,436.34L402.00,437.51L397.93,433.37L397.94,430.73L393.43,429.51L396.25,424.64L392.19,419.30L400.90,415.93L403.19,412.34L401.66,408.33L405.38,405.64L405.30,401.86L410.57,402.13L412.94,398.53L417.33,399.26L419.48,403.05L426.66,402.31L429.89,407.79L432.07,403.15L435.39,415.24L439.15,417.13L441.76,427.09L438.33,428.60L439.52,432.57L434.57,434.92L435.39,439.22L430.22,441.95L427.97,454.36L422.54,454.13L423.86,456.17L422.81,457.95L416.37,462.61L413.34,460.38Z"><title>古殿町</title></path>
<path data-code="07521" data-name="三春町" d="M371.93,309.22L373.06,303.39L377.89,304.83L380.16,300.26L382.94,303.04L385.95,302.18L385.26,300.34L387.44,297.42L384.64,294.66L385.67,289.64L389.79,286.97L387.88,283.80L395.69,283.55L397.75,277.63L400.09,275.97L402.23,278.31L404.46,274.30L407.48,273.64L410.86,276.09L412.74,280.63L410.99,282.67L411.87,286.60L406.69,290.59L405.61,286.82L400.89,285.60L402.08,287.76L400.34,290.35L406.31,291.39L402.19,293.33L400.60,291.33L400.60,293.11L397.17,288.50L397.96,290.40L395.26,293.15L401.91,297.21L399.91,300.00L400.40,303.00L398.70,303.24L399.38,307.88L395.79,307.86L399.97,313.87L398.49,315.24L399.15,318.53L392.20,318.47L390.44,324.92L388.15,325.00L387.28,317.44L380.59,319.32L377.76,317.39L378.03,314.35L379.97,315.39L380.23,311.10L377.40,311.10L378.10,308.66L375.69,309.44L376.11,306.55L372.80,306.33L374.46,309.13L371.93,309.22Z"><title>三春町</title></path>
<path data-code="07522" data-name="小野町" d="M430.22,383.83L427.53,385.50L423.47,380.23L422.10,376.10L423.33,368.00L416.54,368.03L415.25,363.96L410.47,361.62L411.23,352.14L409.93,350.67L412.68,345.69L406.60,341.40L404.95,337.55L411.40,326.77L414.56,326.48L422.19,333.43L425.32,332.43L435.02,336.04L437.06,342.35L433.45,349.20L433.70,355.17L436.55,359.25L440.64,359.05L443.36,354.79L449.61,356.21L446.68,374.92L438.70,377.54L430.22,383.83Z"><title>小野町</title></path>
<path data-code="07541" data-name="広野町" d="M502.56,379.41L500.63,375.38L503.46,372.20L506.27,372.78L511.56,369.26L525.08,372.33L538.98,370.95L544.69,372.31L545.42,374.34L543.38,375.76L545.95,374.81L544.80,376.38L547.03,373.22L545.20,376.41L542.32,376.66L538.85,392.97L526.13,392.15L517.15,385.33L514.50,385.81L509.72,379.19L502.56,379.41Z"><title>広野町</title></path>
<path data-code="07542" data-name="楢葉町" d="M538.73,371.43L525.08,372.33L511.56,369.26L504.43,372.73L500.26,365.26L502.08,360.27L505.04,358.76L506.14,353.18L511.43,350.52L509.72,347.62L510.11,342.50L514.67,336.88L520.91,337.91L523.25,342.52L540.46,349.33L540.10,345.20L547.18,345.65L547.43,343.57L547.86,345.66L549.82,343.64L545.31,347.14L546.29,349.12L542.53,372.06L538.73,371.43Z"><title>楢葉町</title></path>
<path data-code="07543" data-name="富岡町" d="M521.02,339.51L512.06,334.34L512.60,331.31L510.02,328.64L512.64,323.78L524.03,320.10L536.48,323.58L547.20,323.25L550.06,327.12L546.04,341.51L549.17,343.64L546.76,342.50L546.87,344.63L540.10,345.20L540.48,349.33L523.25,342.52L521.02,339.51Z"><title>富岡町</title></path>
<path data-code="07544" data-name="川内村" d="M458.05,342.24L455.52,333.99L452.42,330.63L453.86,326.71L451.63,325.28L456.48,318.20L456.26,315.18L460.23,312.50L470.46,320.19L472.23,318.83L477.96,322.30L485.42,320.59L495.42,324.66L495.80,320.21L498.16,318.90L511.54,322.85L512.09,327.25L510.02,328.70L514.67,336.88L510.11,342.50L509.72,347.62L511.45,350.49L506.14,353.18L505.01,358.81L498.07,359.83L496.33,365.92L491.71,364.47L488.89,367.23L482.25,368.27L477.24,362.48L477.11,359.62L479.66,357.92L478.84,356.10L475.01,354.88L474.43,351.75L463.35,351.06L458.05,342.24Z"><title>川内村</title></path>
<path data-code="07545" data-name="大熊町" d="M497.69,315.95L498.79,310.09L496.40,306.39L500.56,307.08L507.62,302.16L511.83,305.52L527.18,308.22L536.55,307.26L540.12,301.79L544.01,304.57L548.81,304.39L549.31,306.99L551.13,305.69L548.52,308.20L548.64,324.11L524.03,320.10L512.74,323.85L498.55,319.94L497.69,315.95Z"><title>大熊町</title></path>
<path data-code="07546" data-name="双葉町" d="M526.20,308.11L508.97,304.59L507.83,298.18L512.37,295.99L517.29,298.50L524.14,296.93L528.70,289.56L536.86,286.19L542.66,286.78L547.88,291.93L549.32,290.04L548.81,304.39L544.01,304.57L540.12,301.79L536.55,307.26L526.20,308.11Z"><title>双葉町</title></path>
<path data-code="07547" data-name="浪江町" d="M492.20,277.76L495.84,276.74L493.90,262.68L477.87,266.37L468.39,261.83L466.09,262.76L466.34,265.87L447.20,262.16L451.50,255.37L451.31,250.93L455.67,251.34L458.87,246.17L459.50,243.58L457.20,240.82L475.61,241.54L478.88,243.75L484.86,239.81L485.16,235.95L489.34,240.35L488.42,242.18L493.08,243.69L491.85,249.65L493.63,256.43L502.34,261.03L504.01,269.02L513.56,271.04L514.96,267.70L518.95,266.36L536.97,274.79L548.63,272.79L550.16,283.36L551.80,283.74L550.59,285.36L552.00,285.15L547.88,291.93L542.66,286.78L536.86,286.19L528.70,289.56L524.14,296.93L517.32,298.50L510.71,296.30L507.84,298.15L508.15,302.11L500.56,307.08L497.51,306.80L495.45,305.50L495.50,300.35L493.60,298.84L494.03,294.01L491.20,292.01L492.63,289.10L490.79,278.22L492.20,277.76Z"><title>浪江町</title></path>
<path data-code="07548" data-name="葛尾村" d="M466.39,283.22L449.48,276.67L453.50,269.27L446.76,262.65L453.35,262.00L466.34,265.87L466.09,262.76L468.39,261.83L477.87,266.37L494.29,263.33L495.84,276.74L493.92,278.54L490.97,277.52L492.63,289.10L491.19,291.68L490.67,289.31L486.48,290.92L483.47,287.90L472.63,287.91L471.09,284.26L466.39,283.22Z"><title>葛尾村</title></path>
<path data-code="07561" data-name="新地町" d="M497.13,135.41L509.86,130.52L510.12,132.95L514.09,132.81L515.64,135.01L518.77,133.49L523.23,149.13L529.41,146.87L524.08,148.39L526.80,152.11L525.40,153.71L527.83,153.38L516.15,155.45L506.38,152.60L496.53,153.24L495.56,150.04L498.67,145.63L496.65,141.37L498.54,139.60L497.13,135.41Z"><title>新地町</title></path>
<path data-code="07564" data-name="飯舘村" d="M466.39,240.78L451.59,239.35L444.46,233.20L441.03,218.38L442.42,213.66L439.18,209.44L436.30,210.66L436.00,207.90L440.96,204.77L445.58,190.96L453.27,186.68L467.09,186.30L471.57,182.48L488.75,187.56L493.32,196.80L483.82,203.01L487.98,205.23L486.09,206.84L486.52,211.83L484.78,213.95L488.15,215.93L486.88,221.11L490.47,230.39L488.99,234.38L486.11,234.85L484.86,239.81L478.88,243.75L466.39,240.78Z"><title>飯舘村</title></path>
  </g>
</svg>
