<?xml version="1.0" encoding="UTF-8"?>
<svg xmlns="http://www.w3.org/2000/svg" viewBox="0 0 560 640" class="pref-muni-svg" role="img" aria-label="自治体境界図">
  <g class="pref-muni-svg__paths" fill="#eaf2fb" stroke="#5b7fa8" stroke-width="0.6" stroke-linejoin="round">
<path data-code="21201" data-name="岐阜市" d="M175.85,523.16L181.90,513.54L176.88,503.99L176.78,497.59L179.00,497.46L178.70,478.08L173.00,472.19L174.05,468.69L178.77,468.63L176.11,460.28L178.75,459.18L172.86,453.24L175.58,448.02L171.40,443.51L179.69,440.65L186.09,450.98L193.44,456.95L202.20,457.65L207.45,465.01L213.43,464.50L214.79,468.02L218.96,463.90L217.81,458.43L223.08,455.93L221.06,449.05L223.27,445.79L227.48,446.33L235.03,457.45L240.54,456.86L239.92,460.25L236.99,458.20L234.06,460.81L230.62,475.77L231.79,477.87L236.53,475.05L245.37,477.61L250.25,481.89L248.60,486.64L243.75,486.87L244.83,490.41L240.39,491.49L239.91,495.72L234.65,496.07L233.50,492.96L223.41,494.75L223.39,512.75L218.85,513.63L212.56,507.64L207.34,509.11L204.91,516.91L200.20,519.05L199.15,521.79L201.39,523.91L192.11,525.78L187.84,530.26L179.37,527.87L175.03,529.94L175.85,523.16Z"><title>岐阜市</title></path>
<path data-code="21202" data-name="大垣市" d="M57.45,582.09L57.38,579.12L64.14,574.32L61.93,559.09L66.30,554.28L73.58,560.20L76.54,554.76L75.37,551.04L87.16,547.55L86.49,540.81L96.86,526.63L102.68,526.07L107.39,532.84L112.06,531.78L116.27,537.51L115.92,542.55L109.58,538.84L106.00,544.31L109.20,552.70L111.89,553.80L110.42,557.72L112.35,559.31L111.90,571.14L113.87,574.42L109.43,576.12L106.18,584.58L96.66,582.73L92.03,586.07L90.50,583.55L81.36,593.40L77.05,587.61L71.05,593.08L57.45,582.09ZM134.50,539.12L134.45,535.21L126.39,533.89L124.83,530.05L127.29,527.05L126.42,521.56L119.61,518.03L121.74,513.56L119.01,508.45L122.02,509.03L121.52,511.03L124.34,508.63L121.19,508.36L121.74,504.17L135.68,503.76L143.74,511.48L145.48,505.43L150.06,505.78L151.55,512.85L158.28,513.55L162.61,517.81L162.97,535.40L156.29,538.16L156.96,547.61L147.20,556.83L139.70,553.48L139.14,546.04L134.50,539.12ZM169.17,531.52L169.10,522.98L172.31,521.08L175.85,523.16L175.12,533.00L169.17,531.52Z"><title>大垣市</title></path>
<path data-code="21203" data-name="高山市" d="M286.86,264.67L282.92,261.54L282.74,246.38L278.12,236.20L269.70,231.29L267.25,223.42L258.06,220.01L253.98,213.11L231.86,225.45L228.75,220.75L223.36,220.65L220.10,212.78L216.36,211.27L218.18,205.96L216.08,202.35L205.35,199.06L200.09,185.65L200.83,179.60L204.15,176.59L213.01,180.29L220.20,176.64L224.47,182.50L239.14,176.70L253.95,176.42L264.95,181.87L268.79,176.99L267.94,173.32L276.58,170.50L276.84,166.17L268.14,159.18L273.42,141.16L273.62,127.76L280.01,134.69L287.03,136.73L293.23,134.75L301.80,137.23L305.46,133.68L313.02,136.40L316.49,132.64L320.09,133.31L326.38,124.52L331.95,123.09L334.04,124.41L336.67,137.11L340.11,140.13L345.88,136.18L347.39,131.56L352.70,131.78L354.32,125.55L360.97,126.76L365.18,121.90L372.25,126.16L368.10,117.62L374.53,112.76L374.85,108.20L377.26,105.79L384.66,106.50L393.93,100.16L398.60,91.85L418.80,91.66L421.64,85.47L432.06,87.02L434.88,82.17L432.71,79.47L434.32,76.50L430.67,71.91L431.48,61.81L447.18,64.96L452.74,61.41L450.90,57.19L457.95,50.96L462.37,53.91L473.49,49.79L477.76,52.05L482.96,46.62L491.77,47.34L499.02,41.91L506.45,44.38L513.25,41.78L517.04,43.27L516.94,51.64L528.70,54.85L535.35,65.44L539.14,65.83L541.80,75.07L540.05,90.53L527.46,101.92L515.40,122.74L511.60,123.56L513.70,133.46L519.98,136.65L518.40,138.91L519.98,145.42L504.63,160.36L506.84,165.03L502.91,173.17L511.74,185.00L520.64,190.55L526.78,189.92L527.44,197.12L521.04,206.23L521.94,212.72L518.22,223.00L500.85,233.58L499.78,241.78L496.19,244.13L493.14,253.12L485.16,254.33L477.50,266.57L463.08,253.85L461.31,245.33L456.61,243.74L454.56,239.78L446.34,241.64L440.12,249.05L433.47,251.79L434.43,240.76L423.84,230.92L424.73,225.17L404.41,232.91L392.99,232.14L387.20,227.22L382.52,216.04L370.12,212.60L368.27,208.49L358.33,212.39L349.91,224.20L339.57,232.85L333.61,245.64L339.58,251.40L334.19,260.31L329.20,259.83L327.91,273.80L325.77,274.20L325.51,269.43L320.94,266.60L318.39,257.56L319.85,254.67L312.44,244.64L308.54,247.85L300.89,245.19L292.70,254.67L292.89,259.53L286.86,264.67Z"><title>高山市</title></path>
<path data-code="21204" data-name="多治見市" d="M318.92,550.22L317.74,545.78L320.81,540.14L316.92,536.14L311.89,537.97L310.79,530.88L314.55,515.38L319.54,510.45L317.17,510.19L316.47,506.13L325.96,521.16L333.35,519.76L336.56,522.11L340.65,514.89L348.75,518.18L354.04,528.23L348.87,531.29L354.57,540.18L352.05,544.87L359.05,548.87L362.95,559.79L360.29,561.69L364.51,565.09L360.57,568.39L356.44,562.27L348.97,563.96L343.69,557.49L332.51,553.72L330.11,558.93L324.51,558.16L324.71,552.09L318.92,550.22Z"><title>多治見市</title></path>
<path data-code="21205" data-name="関市" d="M231.16,476.54L234.06,460.81L236.99,458.20L239.92,460.25L240.54,456.86L235.03,457.45L227.48,446.33L221.18,443.84L220.98,438.26L225.36,432.40L224.32,429.19L215.11,427.24L216.12,417.70L212.11,415.16L219.98,409.35L219.61,388.71L217.24,385.28L207.05,382.21L205.48,374.75L199.91,376.21L194.46,374.44L192.27,369.91L186.65,369.69L190.33,363.86L189.95,359.43L173.95,356.39L172.54,346.37L176.34,341.92L172.93,333.20L167.87,331.33L166.55,326.92L168.80,324.02L182.85,323.86L188.17,316.16L195.07,319.45L203.75,314.97L207.73,316.82L208.36,320.49L214.50,320.97L214.75,326.21L217.84,328.53L221.29,326.89L222.19,329.38L232.70,330.87L233.92,335.13L231.04,336.12L230.19,341.31L238.31,345.20L237.74,355.54L232.67,367.20L247.78,389.24L243.91,391.72L244.21,396.58L238.13,398.03L235.53,405.49L237.52,412.19L233.34,416.83L235.23,418.70L233.66,420.60L235.38,429.03L232.10,432.86L233.71,437.10L238.06,438.98L241.22,449.27L253.38,455.76L256.29,448.08L267.75,449.91L272.48,438.95L278.40,437.17L276.68,430.81L281.15,426.97L285.46,406.55L288.48,404.86L286.00,394.11L290.68,389.67L300.45,389.50L304.86,394.09L311.76,390.11L314.41,383.92L311.86,379.10L312.98,369.65L323.63,374.17L324.94,377.54L332.12,376.79L330.18,386.73L326.26,390.46L329.50,396.50L316.87,402.82L314.09,414.32L315.40,420.87L320.70,427.60L310.33,437.40L307.37,435.63L304.55,442.11L297.66,444.84L293.75,452.53L290.73,452.60L290.67,456.87L274.17,457.36L274.93,466.00L279.87,468.16L276.02,473.17L279.50,475.49L276.24,493.07L271.41,494.74L257.35,485.89L248.60,486.64L250.26,481.35L245.37,477.61L236.53,475.05L231.16,476.54Z"><title>関市</title></path>
<path data-code="21206" data-name="中津川市" d="M483.81,522.49L479.74,526.62L471.37,521.46L457.27,497.63L477.84,494.87L484.90,489.25L469.47,489.01L461.70,482.04L457.83,473.26L448.42,468.21L443.04,469.43L442.61,457.02L433.82,458.71L425.99,454.79L427.14,445.57L423.48,441.75L423.95,431.26L433.79,429.20L444.06,431.33L445.36,423.41L440.68,412.30L450.59,401.36L449.98,395.82L445.74,391.97L449.01,386.37L435.54,379.96L427.72,368.68L424.33,368.76L423.48,363.47L419.52,361.71L417.15,344.42L431.55,320.89L442.64,320.61L444.60,326.82L443.20,330.39L454.72,331.60L458.85,333.53L461.05,339.39L465.78,337.10L470.40,340.41L471.08,347.54L478.18,355.27L478.37,364.03L482.91,367.73L482.74,372.26L497.27,382.90L501.10,389.80L498.43,395.68L493.93,397.69L489.06,410.00L498.11,421.06L510.94,421.20L508.20,428.49L511.22,431.94L511.94,439.70L522.76,446.26L524.82,445.06L533.94,456.24L531.15,463.57L533.93,474.73L528.77,475.79L519.19,485.52L527.76,493.23L530.03,501.78L534.05,502.56L534.77,507.95L526.84,511.48L508.28,505.79L506.04,512.29L498.87,517.94L483.81,522.49Z"><title>中津川市</title></path>
<path data-code="21207" data-name="美濃市" d="M232.52,433.99L235.61,427.09L233.34,416.83L237.88,408.84L235.53,405.49L238.55,397.21L244.21,396.58L243.87,391.83L246.60,389.63L254.84,392.51L256.87,400.82L265.07,413.17L271.44,414.53L275.55,406.72L285.46,406.55L283.73,421.08L281.08,421.90L281.15,426.97L276.68,430.81L278.40,437.17L272.48,438.95L267.75,449.91L256.37,448.03L255.07,455.20L250.65,454.71L241.22,449.27L238.06,438.98L232.52,433.99Z"><title>美濃市</title></path>
<path data-code="21208" data-name="瑞浪市" d="M388.69,541.69L386.63,536.18L377.09,527.32L379.25,521.61L376.25,510.64L368.13,507.26L366.38,502.85L369.45,501.90L368.67,498.39L371.90,495.96L368.45,484.08L370.85,482.39L370.96,474.87L374.65,472.60L381.78,473.93L383.50,480.75L393.38,477.47L397.02,483.23L401.89,484.93L406.00,479.05L412.21,487.86L419.37,487.75L421.41,492.64L419.88,494.71L427.64,499.39L422.39,507.17L424.91,509.74L423.33,515.83L417.45,522.55L416.48,529.06L411.92,531.20L406.16,541.35L419.11,538.55L423.16,541.98L425.57,546.51L417.70,552.83L418.45,558.48L399.32,560.07L401.21,546.34L398.38,546.65L391.39,539.83L388.69,541.69Z"><title>瑞浪市</title></path>
<path data-code="21209" data-name="羽島市" d="M166.75,578.32L163.16,574.43L170.80,564.74L166.19,548.74L174.36,540.55L175.03,529.94L179.37,527.87L187.84,530.26L191.18,527.82L191.85,531.62L199.96,533.44L189.22,556.55L182.10,564.31L177.29,574.75L171.01,582.14L166.75,578.32Z"><title>羽島市</title></path>
<path data-code="21210" data-name="恵那市" d="M473.67,577.95L456.86,590.67L452.26,582.49L448.96,585.08L446.04,581.82L440.82,582.23L439.45,573.21L424.49,574.26L422.91,571.13L424.69,566.82L410.79,559.34L418.39,558.54L417.70,552.83L425.57,546.51L420.28,538.63L406.16,541.46L411.92,531.20L416.48,529.06L417.45,522.55L423.33,515.83L424.91,509.74L422.39,507.17L427.64,499.39L419.88,494.71L421.41,492.64L419.37,487.75L412.21,487.86L406.00,479.05L401.89,484.93L397.02,483.23L393.56,477.55L388.92,477.36L391.58,474.75L390.83,470.21L394.20,469.45L394.46,464.51L402.88,457.90L396.31,447.65L415.99,444.43L423.51,438.19L423.50,441.81L427.14,445.57L426.01,454.82L433.82,458.71L442.61,457.02L443.04,469.43L448.42,468.21L457.83,473.26L461.70,482.04L469.47,489.01L484.77,489.11L477.84,494.87L457.28,497.50L464.27,512.24L471.37,521.46L479.65,526.58L487.50,519.93L498.87,517.94L506.04,512.29L508.28,505.79L521.30,517.42L523.30,539.08L505.49,549.86L507.36,562.33L491.94,561.88L491.67,566.94L473.67,577.95Z"><title>恵那市</title></path>
<path data-code="21211" data-name="美濃加茂市" d="M278.24,485.71L280.21,469.62L282.57,474.05L287.46,474.13L287.62,470.32L298.23,466.46L296.96,462.61L292.50,463.27L294.80,460.68L290.69,456.95L290.79,452.52L293.75,452.53L299.67,443.28L304.55,442.11L307.37,435.63L313.41,439.27L316.25,436.76L319.28,438.30L318.40,442.64L320.98,446.45L307.56,462.37L313.10,465.81L313.02,478.90L318.61,470.94L325.15,472.36L326.58,476.12L322.39,479.91L322.52,484.22L325.30,484.40L324.31,487.53L313.95,486.43L297.97,490.74L296.05,493.56L294.30,488.47L290.88,487.78L290.56,482.87L278.24,485.71Z"><title>美濃加茂市</title></path>
<path data-code="21212" data-name="土岐市" d="M356.98,546.13L352.05,544.87L354.57,540.18L348.87,531.29L354.04,528.23L348.83,518.36L354.59,508.34L361.87,511.41L367.45,505.79L376.25,510.64L379.25,521.61L377.09,527.32L386.63,536.18L386.68,539.85L388.59,541.76L391.39,539.83L398.38,546.65L401.21,546.34L398.96,558.41L393.51,561.44L392.80,566.14L378.80,575.04L374.33,573.28L369.65,577.26L364.04,576.22L359.35,570.96L364.51,565.09L360.29,561.69L362.85,558.95L356.98,546.13Z"><title>土岐市</title></path>
<path data-code="21213" data-name="各務原市" d="M222.41,513.49L223.41,494.75L233.50,492.96L234.65,496.07L239.85,495.74L240.39,491.49L244.83,490.41L243.75,486.89L245.40,486.01L257.35,485.89L268.75,493.71L274.16,493.85L274.82,500.14L278.78,500.74L279.50,503.82L278.08,508.62L263.92,517.35L242.18,520.44L230.43,528.25L214.77,524.73L219.88,519.89L225.48,519.00L224.99,514.63L222.41,513.49Z"><title>各務原市</title></path>
<path data-code="21214" data-name="可児市" d="M293.57,514.68L289.37,507.04L285.28,506.02L288.41,498.20L295.61,495.91L297.97,490.74L314.37,486.36L320.94,489.05L320.42,493.77L331.28,489.91L334.21,493.04L333.70,498.96L339.25,498.22L340.28,501.04L343.96,500.75L354.59,508.27L350.68,517.20L340.65,514.89L336.44,522.13L323.78,519.82L316.89,506.17L317.17,510.19L319.54,510.45L314.96,514.57L314.39,522.19L311.69,524.15L293.57,514.68ZM325.25,484.84L330.46,478.28L335.75,477.92L336.43,480.22L331.88,485.43L329.61,482.69L327.78,486.07L325.25,484.84Z"><title>可児市</title></path>
<path data-code="21215" data-name="山県市" d="M219.60,460.68L217.32,467.72L214.79,468.02L213.43,464.50L207.45,465.01L202.20,457.65L193.44,456.95L175.67,437.00L173.03,424.68L167.55,418.49L165.50,412.72L167.69,407.89L166.15,401.38L170.60,395.97L169.79,387.99L175.12,385.30L177.04,380.93L175.54,374.72L178.91,358.06L190.06,359.51L190.33,363.86L186.65,369.69L192.27,369.91L194.46,374.44L199.91,376.21L205.48,374.75L207.05,382.21L217.24,385.28L219.61,388.71L219.98,409.35L212.11,415.16L216.12,417.70L215.63,427.98L219.39,426.31L225.36,432.08L220.83,438.96L223.37,446.09L221.06,449.05L223.08,455.93L217.81,458.43L219.60,460.68Z"><title>山県市</title></path>
<path data-code="21216" data-name="瑞穂市" d="M156.53,503.76L153.94,494.08L172.31,498.47L178.64,504.06L181.83,514.87L175.85,523.16L172.31,521.08L168.84,522.95L162.86,515.63L155.86,512.39L156.53,503.76Z"><title>瑞穂市</title></path>
<path data-code="21217" data-name="飛騨市" d="M292.64,134.96L287.06,136.74L280.06,134.72L275.10,128.83L277.59,118.00L275.05,114.90L279.91,102.90L288.33,91.84L298.37,88.64L301.08,76.82L307.87,77.22L313.17,72.20L315.92,65.46L312.18,64.06L317.23,54.37L316.16,50.96L323.53,45.85L329.67,46.01L328.55,40.11L332.35,38.87L336.00,31.27L339.99,30.44L343.90,22.28L354.33,12.01L360.13,15.01L366.50,12.59L371.81,25.54L387.78,9.42L391.12,14.50L399.53,8.00L407.15,11.17L410.95,8.57L414.19,9.97L414.48,14.48L409.62,21.68L414.80,27.02L422.32,22.61L427.20,23.05L430.00,21.21L431.11,15.01L441.93,10.38L444.32,14.82L443.94,21.42L447.55,25.97L468.86,32.75L473.96,26.57L487.77,27.08L489.53,33.17L498.98,41.62L491.77,47.34L482.96,46.62L477.76,52.05L473.49,49.79L462.37,53.91L457.95,50.96L454.24,52.43L450.76,57.67L452.74,61.41L447.18,64.96L431.60,61.72L430.67,71.91L434.32,76.50L432.71,79.47L434.88,82.17L432.06,87.02L421.64,85.47L418.80,91.66L398.60,91.85L394.21,99.93L384.66,106.50L377.26,105.79L374.53,112.76L368.10,117.62L372.05,126.30L365.18,121.90L360.97,126.76L354.32,125.55L352.70,131.78L347.39,131.56L345.88,136.18L339.75,140.26L331.95,123.09L326.38,124.52L320.09,133.31L316.49,132.64L313.02,136.40L308.21,133.67L300.48,137.34L292.64,134.96Z"><title>飛騨市</title></path>
<path data-code="21218" data-name="本巣市" d="M176.30,460.68L178.77,468.63L174.05,468.69L173.00,472.19L178.70,478.08L178.84,485.42L170.68,488.40L172.42,498.37L153.94,494.08L154.45,485.19L157.51,483.38L164.21,464.63L164.09,456.28L156.47,449.94L160.30,446.06L154.05,438.54L159.10,435.98L154.84,429.86L156.09,425.39L152.28,427.35L144.06,423.85L135.86,424.31L127.34,419.73L126.05,400.44L117.06,392.82L117.52,389.60L109.24,379.51L111.80,373.74L117.67,369.44L114.25,359.66L116.81,352.03L114.62,342.89L108.33,336.94L108.40,331.52L112.02,325.50L120.44,329.90L130.26,330.54L141.06,320.64L149.78,326.14L151.52,321.43L155.79,321.21L158.58,316.74L162.06,326.57L166.55,326.92L167.87,331.33L172.93,333.20L176.35,342.01L172.15,350.50L178.25,360.25L175.54,374.72L177.04,380.93L175.12,385.30L169.79,387.99L170.60,395.97L166.15,401.38L167.69,407.89L165.50,412.72L173.03,424.68L174.15,434.48L177.84,438.44L177.00,442.69L171.32,443.68L175.58,448.02L172.91,453.35L178.19,456.39L178.75,459.18L176.30,460.68Z"><title>本巣市</title></path>
<path data-code="21219" data-name="郡上市" d="M246.01,387.24L232.67,367.20L237.74,355.54L238.31,345.20L230.19,341.31L233.45,332.34L215.40,327.07L213.39,320.23L218.31,299.32L225.44,299.34L229.32,295.58L228.92,289.06L224.71,281.64L225.97,274.78L222.03,267.20L211.69,261.77L214.91,251.47L198.56,245.41L198.77,230.63L189.61,228.03L193.03,210.97L191.91,203.20L201.89,194.66L208.80,201.42L215.93,202.18L218.18,205.96L216.40,211.33L220.10,212.78L223.18,220.51L228.75,220.75L231.86,225.45L253.45,213.12L258.06,220.01L267.21,223.38L269.70,231.29L278.12,236.20L282.74,246.38L282.92,261.54L285.08,264.03L292.89,259.53L292.70,254.67L300.89,245.19L308.54,247.85L312.50,244.67L319.79,254.52L320.05,264.91L325.51,269.43L325.77,274.20L328.80,271.71L329.20,259.83L331.64,260.23L334.62,266.08L339.99,268.07L345.36,280.19L349.48,281.23L356.55,291.79L356.25,297.94L345.03,296.52L340.16,303.56L344.09,326.19L342.09,330.88L343.81,347.54L320.52,356.27L319.30,366.13L312.55,367.45L311.86,379.10L314.41,383.92L311.76,390.11L304.86,394.09L300.45,389.50L290.64,389.69L285.63,395.21L288.48,404.86L275.55,406.72L271.44,414.53L264.49,412.67L256.87,400.82L254.84,392.51L246.01,387.24Z"><title>郡上市</title></path>
<path data-code="21220" data-name="下呂市" d="M328.25,399.02L329.95,394.74L326.26,390.46L330.18,386.73L332.12,376.79L324.94,377.54L323.63,374.17L318.49,373.84L312.55,367.45L319.30,366.13L321.61,354.88L330.47,354.46L343.81,347.54L342.09,330.88L344.09,326.19L340.16,303.56L345.03,296.52L352.71,298.74L357.24,295.72L349.48,281.23L345.14,279.85L339.99,268.07L332.80,263.24L339.74,250.29L333.62,245.52L342.52,228.58L349.91,224.20L358.33,212.39L368.27,208.49L370.12,212.60L382.43,215.96L387.20,227.22L392.99,232.14L404.41,232.91L424.73,225.17L423.84,230.92L434.43,240.76L433.47,251.79L440.12,249.05L446.34,241.64L454.23,239.63L461.31,245.33L462.55,253.05L467.01,258.41L477.50,266.57L475.91,274.71L469.20,278.05L459.04,270.46L438.46,276.59L432.20,282.95L433.43,291.49L430.97,298.27L419.94,300.86L417.05,314.31L421.69,320.60L427.70,319.23L430.65,321.84L417.15,344.42L419.52,361.71L401.88,370.98L395.41,367.66L388.51,371.78L386.10,378.74L376.79,375.42L371.57,377.42L367.07,381.89L368.74,387.70L365.19,391.27L361.88,390.11L358.14,396.42L347.91,398.79L343.62,404.38L330.17,402.07L328.25,399.02Z"><title>下呂市</title></path>
<path data-code="21221" data-name="海津市" d="M150.90,626.34L147.30,624.89L143.25,613.04L138.61,607.69L136.71,608.69L134.98,602.99L126.11,598.32L125.02,591.73L121.36,591.87L122.53,585.90L118.91,583.90L117.16,577.86L124.82,572.35L129.80,572.78L134.59,578.57L138.24,574.27L138.38,580.69L134.70,580.16L138.02,580.85L139.03,584.99L142.06,581.92L142.32,587.45L144.56,588.49L144.67,584.51L146.79,584.82L151.92,575.66L151.49,571.17L160.83,568.24L161.20,560.41L168.93,558.18L170.66,565.80L163.11,574.93L171.01,582.14L172.37,591.77L173.02,601.48L168.61,609.45L169.08,632.00L162.49,619.55L159.03,617.44L158.59,627.41L153.66,624.82L150.90,626.34Z"><title>海津市</title></path>
<path data-code="21302" data-name="岐南町" d="M215.04,509.60L218.85,513.63L223.91,513.51L224.66,516.49L218.79,515.80L216.18,518.96L209.13,516.11L207.88,520.25L203.34,517.67L206.93,509.31L212.17,507.59L215.04,509.60Z"><title>岐南町</title></path>
<path data-code="21303" data-name="笠松町" d="M190.46,527.96L201.39,523.91L199.15,521.79L202.45,517.62L207.88,520.25L209.13,516.11L216.18,518.96L221.51,515.52L225.48,519.00L219.88,519.89L217.47,524.39L207.93,520.28L199.96,533.44L191.85,531.62L192.75,529.50L190.46,527.96Z"><title>笠松町</title></path>
<path data-code="21341" data-name="養老町" d="M135.04,579.51L138.38,580.69L138.24,574.27L134.59,578.57L129.45,572.60L123.69,572.65L117.97,578.08L113.73,574.22L111.90,571.14L112.35,559.31L110.42,557.72L111.89,553.80L106.13,545.78L108.90,539.17L115.92,542.55L116.89,538.97L124.06,538.42L123.65,534.02L134.49,535.24L134.84,540.71L137.30,541.48L135.99,544.20L139.30,546.54L139.27,552.84L145.22,557.32L143.54,558.87L145.42,560.43L144.12,571.50L150.98,576.73L146.79,584.82L144.67,584.51L144.56,588.49L142.32,587.45L142.06,581.92L139.03,584.99L135.04,579.51Z"><title>養老町</title></path>
<path data-code="21361" data-name="垂井町" d="M116.89,538.97L113.88,533.11L107.44,532.87L104.19,528.53L106.80,519.51L99.22,522.74L89.76,510.60L92.04,500.49L97.70,500.15L102.15,491.80L106.27,492.77L109.83,489.87L112.89,498.91L119.81,499.96L122.36,502.56L121.19,508.36L124.34,508.63L121.52,511.03L122.02,509.03L119.01,508.45L121.74,513.56L119.61,518.03L126.42,521.56L127.29,527.05L124.83,530.05L126.99,532.05L123.65,534.02L124.06,538.42L116.89,538.97Z"><title>垂井町</title></path>
<path data-code="21362" data-name="関ケ原町" d="M66.30,554.28L73.79,531.80L73.44,529.20L69.28,529.73L71.05,520.09L75.47,520.00L82.17,512.55L88.73,509.81L94.54,514.19L94.59,518.20L99.22,522.74L106.80,519.51L104.73,527.39L96.86,526.63L92.73,534.47L90.29,534.10L86.32,541.41L87.16,547.55L75.08,551.33L76.54,554.76L73.58,560.20L66.30,554.28Z"><title>関ケ原町</title></path>
<path data-code="21381" data-name="神戸町" d="M135.68,503.76L135.48,493.81L137.81,486.85L141.59,484.86L148.73,496.46L152.94,494.95L153.63,498.70L150.67,498.84L156.62,505.73L157.05,513.40L149.68,511.00L150.06,505.78L145.48,505.43L143.74,511.48L135.68,503.76Z"><title>神戸町</title></path>
<path data-code="21382" data-name="輪之内町" d="M144.10,570.90L145.42,560.43L143.54,558.87L148.82,553.44L156.41,548.52L166.20,551.02L168.93,558.18L161.20,560.41L160.94,568.14L151.59,571.04L150.98,576.73L144.10,570.90Z"><title>輪之内町</title></path>
<path data-code="21383" data-name="安八町" d="M166.14,550.59L156.33,548.53L156.03,538.56L162.97,535.40L162.86,515.63L170.41,524.75L168.86,532.32L175.12,533.00L174.36,540.55L167.65,545.82L166.14,550.59Z"><title>安八町</title></path>
<path data-code="21401" data-name="揖斐川町" d="M83.64,512.87L69.79,498.86L75.27,484.88L73.11,476.64L65.91,474.74L60.24,465.92L63.05,457.71L67.45,454.36L65.45,446.56L59.30,445.15L54.94,432.66L51.08,433.12L48.80,441.95L44.74,443.73L41.45,437.10L33.91,438.44L36.55,421.19L32.95,410.98L36.27,406.05L33.24,402.78L26.64,405.57L22.95,404.17L18.20,389.15L26.83,377.32L24.13,371.30L30.85,365.21L31.72,361.25L36.36,359.00L36.83,346.38L34.24,342.90L37.88,331.63L44.95,331.18L56.41,322.21L77.06,331.68L97.90,330.99L104.72,343.06L108.68,337.65L114.60,342.86L116.81,352.03L114.25,359.66L117.67,369.44L109.15,379.16L117.52,389.60L117.06,392.82L126.05,400.44L127.20,419.57L135.86,424.31L144.06,423.85L152.28,427.35L156.09,425.39L154.84,429.86L159.10,435.98L154.05,438.54L160.20,445.84L156.47,449.94L161.88,456.21L158.60,460.39L155.11,458.12L139.04,466.21L138.45,470.17L143.44,473.04L144.16,478.61L131.48,478.58L129.53,473.24L115.35,473.90L117.07,476.00L113.07,478.25L109.83,489.87L106.27,492.77L102.11,491.84L97.60,500.22L92.07,500.45L89.56,509.95L83.64,512.87Z"><title>揖斐川町</title></path>
<path data-code="21403" data-name="大野町" d="M155.11,499.77L156.62,505.73L150.67,498.84L153.63,498.70L152.94,494.95L148.73,496.46L139.81,482.44L138.66,479.29L144.16,478.61L144.27,476.44L143.44,473.04L138.79,470.84L138.57,466.96L146.44,464.36L151.43,459.28L158.60,460.39L163.44,455.71L162.79,470.07L157.51,483.38L154.45,485.19L155.11,499.77Z"><title>大野町</title></path>
<path data-code="21404" data-name="池田町" d="M116.99,500.35L112.89,498.91L109.56,489.28L113.07,478.25L117.07,476.00L115.35,473.90L129.53,473.24L130.14,477.56L137.14,477.38L141.59,484.86L137.81,486.85L135.48,493.81L135.68,503.76L121.81,504.12L119.81,499.96L116.99,500.35Z"><title>池田町</title></path>
<path data-code="21421" data-name="北方町" d="M176.83,499.77L176.85,502.14L172.60,500.88L170.68,488.40L176.23,487.73L177.97,484.49L179.00,497.46L176.83,499.77Z"><title>北方町</title></path>
<path data-code="21501" data-name="坂祝町" d="M274.85,500.16L274.16,493.37L276.34,492.94L277.98,485.83L282.17,486.39L282.12,483.48L287.51,485.02L290.56,482.87L290.88,487.78L294.30,488.47L296.05,493.56L295.44,496.02L274.85,500.16Z"><title>坂祝町</title></path>
<path data-code="21502" data-name="富加町" d="M292.76,470.05L287.62,470.32L287.46,474.13L284.39,474.14L280.24,469.60L279.50,475.49L276.85,474.30L279.87,468.16L274.93,466.00L274.17,457.36L292.71,456.88L294.80,460.88L292.56,463.37L298.60,464.40L296.81,463.31L298.03,466.95L292.76,470.05Z"><title>富加町</title></path>
<path data-code="21503" data-name="川辺町" d="M307.85,461.23L321.02,446.34L318.40,442.64L319.35,438.41L316.02,435.20L329.61,439.55L329.54,435.57L333.31,436.23L331.51,439.90L334.88,439.36L333.25,441.04L335.34,447.58L334.18,451.98L339.04,451.58L344.07,455.87L341.73,460.14L337.70,457.88L332.31,465.85L325.75,466.09L325.00,468.64L328.50,473.29L326.81,475.05L319.15,470.69L313.71,479.12L313.10,465.81L307.85,461.23Z"><title>川辺町</title></path>
<path data-code="21504" data-name="七宗町" d="M310.33,437.40L321.29,426.53L317.88,425.27L313.75,416.92L316.87,402.82L326.37,398.16L336.33,404.00L347.03,402.10L345.94,409.45L353.11,407.07L353.32,410.14L346.77,414.90L359.99,426.20L363.92,435.49L360.61,439.10L356.76,438.66L358.42,440.53L355.21,441.09L355.64,444.76L352.02,440.03L346.58,443.22L344.70,450.92L340.33,452.95L334.18,451.98L335.34,447.58L333.25,441.04L334.88,439.36L331.54,439.95L334.30,437.34L331.14,435.01L329.61,439.55L316.02,435.20L315.64,439.25L310.33,437.40Z"><title>七宗町</title></path>
<path data-code="21505" data-name="八百津町" d="M322.69,484.13L322.40,479.86L328.50,473.41L325.00,468.64L325.75,466.09L332.31,465.85L337.78,457.84L342.50,459.75L343.84,454.62L340.39,452.94L344.70,450.92L345.90,443.75L352.02,440.03L355.64,444.76L355.21,441.09L358.42,440.53L356.76,438.66L360.61,439.10L362.16,436.21L369.74,434.91L372.17,439.74L379.59,435.83L399.75,451.27L402.71,456.82L394.43,464.55L394.12,469.58L390.83,470.21L391.54,474.79L383.70,480.80L381.78,473.93L377.60,475.02L375.00,472.53L358.68,475.48L356.09,482.51L339.23,483.01L333.02,477.03L324.75,484.99L322.69,484.13Z"><title>八百津町</title></path>
<path data-code="21506" data-name="白川町" d="M354.31,421.76L346.74,414.81L353.76,407.99L345.12,408.68L347.91,398.79L358.00,396.51L361.88,390.11L365.19,391.27L368.74,387.70L367.07,381.89L371.63,377.39L376.79,375.42L386.10,378.74L388.51,371.78L395.41,367.66L401.88,370.98L419.52,361.71L424.75,365.23L424.44,368.63L415.69,373.43L409.19,382.57L405.94,382.80L400.04,394.56L391.41,398.88L393.63,409.26L401.05,414.92L420.29,403.40L441.93,408.90L443.47,411.16L440.58,414.16L445.42,426.72L443.79,431.46L433.79,429.20L424.08,431.10L424.79,436.94L416.22,444.34L395.92,448.02L378.50,435.35L372.17,439.74L369.74,434.91L363.92,435.64L361.13,427.67L354.31,421.76Z"><title>白川町</title></path>
<path data-code="21507" data-name="東白川村" d="M436.01,407.37L420.29,403.40L401.05,414.92L393.63,409.26L391.37,398.96L403.05,391.58L402.67,387.64L405.94,382.80L412.97,378.97L415.69,373.43L427.67,368.64L435.54,379.96L449.24,387.33L445.74,391.97L449.98,395.82L450.58,401.27L447.37,406.97L443.70,410.01L436.01,407.37Z"><title>東白川村</title></path>
<path data-code="21521" data-name="御嵩町" d="M341.13,500.92L339.18,498.19L333.70,498.96L334.21,493.04L331.28,489.91L320.42,493.77L319.96,490.14L325.25,484.84L327.78,486.07L328.58,482.71L331.88,485.43L334.21,480.56L344.94,484.09L348.38,481.47L354.34,482.81L358.68,475.48L366.09,473.06L370.96,474.87L370.85,482.39L368.44,484.17L371.90,495.92L368.67,498.39L369.45,501.90L366.38,502.75L365.96,509.29L358.26,511.14L341.13,500.92Z"><title>御嵩町</title></path>
<path data-code="21604" data-name="白川村" d="M204.15,176.59L210.17,159.73L204.71,149.87L216.87,145.18L218.26,138.38L226.08,131.61L225.47,127.27L237.20,110.21L230.29,101.43L223.03,101.16L214.55,85.77L219.07,82.49L227.44,84.20L229.79,82.20L233.65,70.05L231.61,63.25L242.25,62.10L244.53,53.72L246.51,57.12L243.95,61.17L246.30,61.89L245.92,65.32L251.76,64.03L258.37,56.86L273.41,63.98L283.41,80.78L277.49,95.75L284.26,97.82L275.05,114.90L277.59,118.02L275.65,126.92L273.19,128.71L273.42,141.16L268.19,158.15L276.84,166.17L276.56,170.57L267.94,173.32L268.79,176.99L264.93,181.88L254.10,176.43L239.14,176.70L224.45,182.50L220.20,176.64L212.97,180.30L204.15,176.59Z"><title>白川村</title></path>
  </g>
</svg>
