<?xml version="1.0" encoding="UTF-8"?>
<svg xmlns="http://www.w3.org/2000/svg" viewBox="0 0 560 640" class="pref-muni-svg" role="img" aria-label="自治体境界図">
  <g class="pref-muni-svg__paths" fill="#eaf2fb" stroke="#5b7fa8" stroke-width="0.6" stroke-linejoin="round">
<path data-code="34100" data-name="広島市" d="M155.12,421.21L164.90,400.85L172.22,395.94L174.19,408.18L169.97,416.89L161.32,424.08L155.12,421.21Z"><title>広島市</title></path>
<path data-code="34100" data-name="広島市" d="M170.95,395.11L171.71,390.25L177.00,384.77L195.45,379.89L198.99,372.77L205.08,372.81L213.25,385.33L202.04,393.79L197.53,392.24L192.68,395.34L183.99,404.42L185.48,407.22L174.67,402.54L170.95,395.11Z"><title>広島市</title></path>
<path data-code="34100" data-name="広島市" d="M153.59,448.96L159.99,442.56L160.16,438.86L164.16,436.98L165.70,441.52L161.88,446.70L163.68,450.18L153.59,448.96ZM179.81,433.26L178.14,434.74L176.82,427.28L180.12,428.32L179.81,433.26ZM161.32,424.08L170.16,416.57L174.19,408.18L173.25,400.44L185.48,407.22L186.12,413.40L191.80,413.86L192.33,418.48L187.95,422.84L178.90,424.06L176.24,417.55L177.35,422.38L167.39,424.20L166.36,429.77L164.08,429.91L161.32,424.08ZM169.48,427.51L170.97,424.92L172.42,428.89L169.48,427.51Z"><title>広島市</title></path>
<path data-code="34100" data-name="広島市" d="M137.70,417.95L136.13,412.49L144.34,405.86L139.85,402.01L142.46,398.43L148.20,400.79L155.35,388.52L163.32,391.63L171.71,390.25L170.06,397.92L164.90,400.85L155.12,421.21L152.62,422.37L146.99,418.36L138.92,420.44L137.70,417.95Z"><title>広島市</title></path>
<path data-code="34100" data-name="広島市" d="M112.16,368.10L120.25,363.06L119.98,360.20L124.91,356.31L126.00,346.59L139.60,348.61L143.60,353.04L142.96,361.57L148.19,363.86L159.67,357.32L169.14,358.32L173.53,362.49L179.07,361.29L178.67,354.51L183.62,348.80L187.49,350.30L189.76,355.70L189.88,361.48L184.05,368.22L181.27,376.53L181.47,382.67L172.27,390.04L165.16,391.64L142.72,386.54L142.46,383.05L144.73,382.20L138.22,379.70L132.10,378.96L128.33,384.05L121.20,384.61L112.79,375.85L114.80,373.37L112.16,368.10Z"><title>広島市</title></path>
<path data-code="34100" data-name="広島市" d="M184.62,367.55L190.01,360.94L188.78,352.27L186.05,349.19L180.48,350.16L179.07,361.29L173.53,362.49L169.14,358.32L159.67,357.32L148.19,363.86L142.96,361.57L143.60,353.04L139.60,348.61L127.22,348.11L125.26,344.33L142.17,330.47L142.41,317.04L147.14,307.24L153.02,309.60L157.14,307.69L162.20,312.91L171.96,302.75L177.62,303.30L185.38,312.16L194.90,306.05L198.40,311.90L197.39,314.74L212.09,321.95L213.85,326.52L219.15,322.57L220.28,317.56L227.04,315.68L229.10,308.63L236.90,311.09L246.74,308.80L251.80,304.04L251.34,306.16L259.73,314.09L255.74,325.10L258.97,328.01L257.46,329.35L259.22,334.40L257.18,336.47L258.05,339.51L260.71,339.04L259.62,341.98L256.42,343.92L251.59,339.96L248.94,341.04L242.73,346.68L241.35,353.03L236.70,352.44L231.61,359.61L225.06,361.68L227.82,365.77L224.10,375.59L213.25,385.33L205.05,372.81L197.87,373.43L193.95,380.48L187.90,380.45L185.41,383.48L181.65,382.07L184.62,367.55Z"><title>広島市</title></path>
<path data-code="34100" data-name="広島市" d="M200.04,441.64L192.64,423.77L202.29,418.62L206.36,427.84L207.28,442.54L200.04,441.64ZM191.81,414.79L201.13,394.08L212.73,387.30L215.02,382.50L224.10,375.59L229.81,380.60L236.53,378.81L238.97,383.08L242.48,384.70L244.82,382.01L248.62,385.73L249.60,389.16L243.78,391.94L239.36,402.68L241.76,404.24L240.85,407.42L244.44,416.79L239.80,424.60L234.64,424.29L235.93,420.11L232.69,414.76L224.40,411.43L216.64,411.21L215.21,414.36L203.28,408.73L192.54,419.82L191.81,414.79Z"><title>広島市</title></path>
<path data-code="34100" data-name="広島市" d="M77.65,394.49L69.21,395.17L68.18,387.20L62.55,383.35L64.50,378.97L68.84,378.64L68.14,370.68L71.91,362.82L66.40,356.52L72.12,356.03L72.51,351.58L76.56,348.90L86.13,352.06L85.81,347.82L89.57,341.84L106.84,333.22L120.86,330.01L131.36,331.38L132.20,328.28L133.49,334.97L132.14,339.52L125.26,344.33L124.91,356.31L119.98,360.20L120.25,363.06L111.91,367.76L114.80,373.37L112.79,375.85L121.20,384.61L128.33,384.05L132.58,378.91L142.81,380.76L144.73,382.20L142.46,383.05L142.66,386.50L152.83,388.91L148.20,400.79L143.86,398.18L139.85,401.94L144.55,404.44L142.29,409.62L139.61,408.73L136.13,412.49L138.41,424.41L133.76,426.68L132.07,422.85L134.01,420.97L126.98,422.47L126.06,417.23L122.48,417.28L115.44,410.94L118.32,399.64L114.68,399.29L113.57,393.38L108.77,398.91L109.00,409.57L102.99,407.02L101.89,397.85L91.68,395.81L90.20,390.89L84.32,387.75L81.65,387.85L77.65,394.49Z"><title>広島市</title></path>
<path data-code="34202" data-name="呉市" d="M171.85,549.58L165.61,544.60L165.41,537.93L173.07,531.74L175.09,533.21L175.50,529.95L187.27,526.23L187.06,521.29L188.69,521.28L182.90,517.13L185.56,504.52L195.23,495.61L200.03,495.40L198.51,500.41L205.54,501.23L208.20,507.76L203.51,506.17L200.88,511.96L196.32,511.81L193.81,515.06L197.85,520.13L204.13,517.89L204.26,522.63L207.73,518.28L202.93,530.28L200.00,532.01L200.56,538.31L214.79,528.87L217.73,530.80L217.39,536.22L221.22,534.75L220.03,537.79L217.13,538.74L212.46,534.61L211.59,543.15L207.23,551.15L204.49,551.26L201.96,545.51L203.09,542.81L199.09,544.00L197.95,540.01L190.55,546.00L190.86,542.25L186.33,540.25L185.02,546.03L171.85,549.58ZM193.57,565.09L198.39,553.82L200.71,557.41L198.98,565.69L193.57,565.09ZM201.42,555.94L204.37,551.29L204.53,554.78L208.31,554.80L201.42,555.94ZM215.52,510.81L215.93,514.37L213.29,516.17L212.90,512.29L215.52,510.81ZM281.36,512.45L278.14,512.22L277.04,514.93L275.82,513.29L278.84,510.34L276.95,507.69L270.84,509.60L267.27,504.15L256.78,503.40L256.92,497.15L265.97,493.22L270.29,496.70L284.17,498.27L282.91,503.65L286.99,503.60L287.28,505.89L281.36,512.45ZM284.55,517.63L291.01,516.20L285.17,519.41L284.55,517.63ZM296.32,535.14L296.04,531.52L300.73,532.12L296.32,535.14ZM298.18,510.81L289.93,513.45L289.57,506.21L295.62,500.55L300.45,506.17L298.18,510.81ZM322.48,510.81L308.07,518.16L300.36,514.55L303.05,512.64L303.11,505.51L319.29,497.01L321.80,503.17L327.09,506.00L322.48,510.81ZM233.47,489.96L230.58,490.29L229.96,483.96L224.95,485.93L226.10,482.96L222.22,480.81L220.81,490.07L219.34,488.75L211.64,496.30L200.10,498.07L202.41,490.82L197.68,484.98L200.19,481.98L204.13,483.65L208.01,477.51L202.86,476.58L200.77,473.08L197.75,475.96L195.09,474.27L197.15,469.75L191.14,468.76L192.88,457.14L187.76,451.34L198.60,447.56L197.48,442.46L207.24,442.57L207.25,438.22L210.37,436.93L222.56,446.51L226.51,441.00L242.92,443.51L248.43,454.17L263.53,442.67L267.75,445.03L272.56,438.40L282.76,433.59L284.93,450.59L293.24,455.24L294.85,459.48L282.99,456.99L285.10,463.92L282.51,467.62L287.06,466.18L290.33,469.55L284.57,473.62L285.42,476.47L262.71,477.84L256.49,484.85L256.15,490.54L246.98,486.33L247.25,491.39L239.57,494.47L233.47,489.96ZM240.90,508.68L245.39,496.94L253.52,493.95L252.53,497.15L256.25,501.02L252.99,507.07L240.90,508.68ZM303.71,501.19L303.74,498.19L308.46,497.03L308.18,499.72L303.71,501.19Z"><title>呉市</title></path>
<path data-code="34203" data-name="竹原市" d="M329.25,446.53L320.96,449.82L320.09,441.75L323.18,427.54L321.22,422.53L304.07,414.27L295.23,416.04L296.16,410.61L300.65,405.91L307.24,404.78L303.58,398.55L296.10,397.94L293.79,392.69L313.97,391.74L330.64,399.59L336.89,397.29L335.53,394.20L340.32,388.55L342.17,398.27L340.67,402.81L343.83,409.16L352.12,411.29L354.77,422.83L359.86,424.47L361.94,421.99L367.87,427.37L373.67,424.55L381.15,428.66L381.21,435.21L375.02,431.31L370.67,434.25L358.29,430.00L350.02,436.78L346.11,436.73L345.23,433.47L344.48,436.18L336.38,436.43L333.23,441.60L327.02,443.05L329.25,446.53ZM354.79,439.88L352.68,437.46L355.21,437.67L357.48,444.42L354.79,439.88ZM373.81,446.61L372.94,441.37L376.72,445.13L373.81,446.61Z"><title>竹原市</title></path>
<path data-code="34204" data-name="三原市" d="M376.48,425.97L373.51,424.55L367.87,427.37L361.91,421.98L358.03,424.56L354.24,422.15L354.34,414.51L352.05,411.20L343.17,408.49L340.33,401.30L342.17,398.99L341.38,390.22L337.20,389.05L336.44,386.15L340.32,383.20L340.28,379.99L334.73,372.21L345.97,375.76L346.82,370.88L343.32,367.08L343.31,362.66L340.44,362.81L333.59,347.19L322.19,344.49L320.87,337.79L318.68,336.98L321.03,332.40L323.43,333.89L331.78,330.07L330.58,320.33L333.87,321.38L336.63,317.29L339.60,317.99L342.41,312.15L361.20,320.08L362.06,324.17L366.10,323.07L376.15,333.91L381.53,330.61L386.34,331.57L391.75,325.69L407.58,332.24L410.03,338.30L407.76,342.30L403.28,342.32L397.32,352.43L398.04,358.51L404.28,358.32L408.40,363.83L414.99,357.07L418.26,357.89L421.84,362.32L420.98,369.27L423.62,369.53L428.81,380.50L438.22,384.74L429.94,395.94L433.00,397.49L432.40,400.96L439.39,400.94L436.14,405.27L421.79,410.64L409.65,404.27L414.20,411.84L410.19,412.19L407.00,427.97L400.02,427.77L392.45,434.20L391.58,432.06L383.07,435.46L380.63,434.58L380.90,428.24L376.48,425.97ZM425.02,434.02L420.27,440.64L413.56,437.35L413.54,434.29L416.80,436.43L414.40,430.11L417.21,422.04L422.03,420.83L425.02,434.02Z"><title>三原市</title></path>
<path data-code="34205" data-name="尾道市" d="M406.90,433.26L410.52,442.59L406.46,448.12L401.87,446.39L400.86,441.93L406.90,433.26ZM425.02,458.71L412.91,469.00L406.21,468.16L402.87,464.15L409.35,444.92L412.89,442.24L416.27,445.85L431.11,441.95L434.63,449.76L433.44,454.60L425.02,458.71ZM452.69,433.26L458.16,442.25L451.29,449.24L457.70,450.27L450.50,460.43L441.73,450.60L436.80,449.31L428.48,433.35L431.42,430.00L429.87,427.27L433.52,427.78L433.40,422.21L436.32,421.14L443.64,421.81L445.47,429.34L452.69,431.06L452.69,433.26ZM428.14,420.17L433.26,415.91L432.67,419.35L428.14,420.17ZM430.38,395.51L438.22,384.74L428.81,380.50L423.62,369.53L420.98,369.27L421.62,361.77L415.03,357.06L408.40,363.83L404.28,358.32L400.26,359.97L396.75,355.73L403.30,342.30L407.76,342.30L410.14,337.46L426.61,333.23L431.54,321.70L439.20,325.24L440.57,331.78L444.97,332.62L444.98,336.80L449.22,337.44L449.72,340.29L452.13,341.43L453.87,337.09L457.73,340.04L460.92,338.21L462.01,341.85L458.19,346.62L459.11,351.58L464.48,349.02L468.88,350.71L469.17,354.78L466.28,356.02L467.58,359.48L463.77,363.02L464.57,366.57L457.82,369.09L464.99,376.45L467.26,374.56L469.10,376.65L468.00,380.33L464.13,377.78L463.72,379.88L468.71,383.24L470.84,391.35L466.18,394.65L466.80,396.86L457.40,397.30L436.24,405.28L439.39,400.94L432.40,400.96L433.00,397.49L430.38,395.51ZM437.21,414.11L435.85,408.77L441.63,407.04L443.29,414.36L437.21,414.11ZM444.12,417.80L443.09,405.60L458.75,397.99L468.23,399.92L467.91,406.27L465.42,404.94L461.05,411.35L458.38,422.63L456.64,420.12L447.52,421.57L444.12,417.80ZM472.91,407.40L470.48,402.16L476.58,403.58L476.79,400.47L481.36,399.17L483.48,395.20L490.90,401.52L486.12,408.48L484.97,401.51L483.97,404.98L472.91,407.40ZM475.83,413.87L477.08,409.48L480.92,412.46L484.19,411.44L480.64,420.47L476.41,418.08L475.83,413.87Z"><title>尾道市</title></path>
<path data-code="34207" data-name="福山市" d="M478.58,433.26L478.19,426.55L487.67,422.15L486.62,430.95L478.58,433.26ZM482.40,396.12L480.70,387.03L475.74,385.51L475.69,382.68L473.38,382.97L474.46,391.32L469.88,385.54L470.84,391.35L468.71,383.24L463.72,379.88L464.13,377.78L468.00,380.33L469.10,376.65L467.26,374.56L464.99,376.45L457.85,369.48L464.57,366.57L463.77,363.02L467.58,359.48L466.30,355.97L469.17,354.78L467.08,349.09L459.11,351.58L458.19,346.62L461.92,340.98L467.10,342.22L480.55,329.74L477.74,324.51L479.10,320.20L467.99,308.36L466.14,302.59L467.65,298.33L465.07,293.95L474.72,284.96L477.52,285.62L480.51,278.48L485.99,281.64L486.83,277.01L488.45,288.15L493.71,286.70L497.91,291.84L500.60,283.10L506.58,278.53L506.78,272.14L518.28,267.04L513.68,257.11L519.11,257.16L520.56,265.02L525.27,269.69L523.77,271.83L531.67,275.72L525.97,288.98L527.29,294.62L524.51,301.35L527.60,303.74L529.23,311.57L539.16,315.77L540.62,323.54L548.08,329.50L551.21,341.05L547.68,351.29L552.00,355.75L548.35,364.90L546.81,363.78L547.66,380.58L535.94,374.69L536.21,365.79L534.02,365.07L533.51,375.61L545.90,385.37L542.37,391.03L534.39,384.61L532.22,385.70L533.32,389.09L525.23,391.74L522.78,404.49L524.21,410.76L517.67,416.82L509.73,418.29L509.01,412.33L500.79,413.19L494.33,408.03L488.42,409.99L486.44,407.85L490.82,401.19L487.91,396.70L482.40,396.12ZM488.80,421.70L497.71,415.11L501.69,420.87L504.30,415.97L508.37,415.93L506.64,422.49L493.09,429.07L488.79,425.34L488.80,421.70ZM526.46,410.01L530.07,407.56L531.93,410.40L529.87,412.74L526.46,410.01ZM543.15,430.87L540.85,425.71L544.31,424.85L551.36,431.10L543.15,430.87Z"><title>福山市</title></path>
<path data-code="34208" data-name="府中市" d="M428.80,317.70L437.73,307.44L437.84,295.59L431.66,291.03L424.32,291.64L424.56,288.39L409.13,277.32L412.75,268.12L416.05,265.86L414.20,261.23L416.29,247.85L422.81,246.19L428.86,236.77L438.33,235.90L440.65,237.18L440.79,243.78L438.11,249.85L442.34,255.65L449.68,258.25L454.13,265.21L447.14,272.90L450.72,275.87L448.08,279.75L467.51,289.49L465.06,293.99L467.65,298.33L466.14,302.59L467.99,308.36L479.10,320.20L477.74,324.51L480.55,329.78L466.21,342.70L460.92,338.21L457.73,340.04L453.94,337.08L452.13,341.43L449.22,337.44L445.02,336.86L444.97,332.62L441.14,332.57L439.20,325.24L436.06,325.47L428.80,317.70Z"><title>府中市</title></path>
<path data-code="34209" data-name="三次市" d="M294.13,290.57L295.41,283.24L301.71,275.74L300.24,272.81L303.26,267.33L288.61,261.23L290.34,252.61L296.42,242.96L294.23,239.86L288.06,239.77L287.07,236.89L292.05,228.44L293.43,213.35L260.88,208.51L262.45,203.02L271.11,200.45L270.24,195.95L266.27,192.93L262.78,178.36L254.63,176.74L252.78,172.20L248.04,174.33L245.23,169.84L236.72,168.47L239.93,167.57L243.54,160.10L252.95,154.40L256.54,146.04L264.99,143.97L270.02,147.27L277.00,140.61L278.50,143.39L281.26,141.56L282.50,138.54L279.50,133.85L288.53,130.54L287.87,127.17L294.33,125.26L305.18,128.89L313.02,120.96L316.09,121.23L315.71,130.80L312.18,133.43L314.91,142.45L313.25,145.61L317.22,150.08L319.99,149.20L321.05,151.69L317.77,157.35L328.49,163.58L329.69,173.26L336.01,174.69L331.88,182.62L332.67,190.16L345.72,204.79L356.21,212.26L358.53,219.37L368.77,205.08L370.79,211.92L380.00,216.53L382.42,222.28L388.90,222.89L383.16,233.26L389.41,234.95L391.02,239.05L398.78,236.78L400.46,232.86L398.39,229.42L400.36,228.44L405.64,231.08L409.02,228.29L409.71,230.74L418.21,232.58L418.98,240.05L414.21,261.01L416.06,265.80L410.05,273.81L409.59,281.09L401.07,285.01L400.20,281.74L395.48,282.48L383.02,271.95L371.47,273.30L370.36,277.09L365.44,278.98L366.00,283.90L361.15,281.24L359.55,285.12L354.39,279.66L353.54,270.85L348.61,274.03L335.20,270.34L330.43,279.64L331.70,288.08L328.30,287.53L330.59,294.60L326.31,299.34L329.75,302.65L318.92,303.48L315.61,306.75L304.15,297.99L299.79,299.13L299.37,295.23L294.13,290.57Z"><title>三次市</title></path>
<path data-code="34210" data-name="庄原市" d="M359.52,217.36L358.48,219.35L356.21,212.26L345.72,204.79L332.67,190.16L331.88,182.62L336.01,174.69L329.90,173.50L328.49,163.58L317.77,157.35L321.04,151.61L313.54,146.38L314.91,142.45L312.17,136.80L312.35,132.98L315.71,130.80L316.25,121.36L313.02,120.96L305.18,128.89L294.51,125.28L286.51,126.39L295.83,120.84L296.14,115.74L303.90,109.78L305.77,104.20L314.59,101.22L311.28,94.19L324.47,78.10L337.04,74.31L342.46,82.96L348.84,85.59L351.92,84.02L358.14,88.00L367.43,84.47L373.63,75.93L382.74,82.29L383.43,86.59L393.77,91.62L400.30,85.22L410.07,86.76L414.08,83.32L423.94,83.99L431.59,92.96L438.83,88.56L441.60,91.69L457.94,88.54L465.28,91.42L466.15,87.05L472.75,86.30L480.24,96.23L480.18,99.82L500.40,120.21L499.80,130.68L493.26,136.04L493.94,139.37L491.02,143.54L495.69,152.36L492.78,156.15L493.36,163.30L489.79,168.14L490.88,174.30L503.93,191.02L495.84,194.09L483.43,191.08L481.59,192.88L482.90,199.50L471.61,206.52L471.10,211.12L465.33,205.58L466.93,200.12L459.81,187.50L451.73,192.29L439.57,191.06L431.66,197.95L431.66,202.43L428.89,203.98L432.69,211.57L428.97,218.72L430.02,222.48L441.41,231.55L440.65,237.18L428.91,236.75L422.81,246.19L417.42,246.47L418.21,232.58L409.71,230.74L409.02,228.29L407.32,231.01L398.57,229.01L400.46,232.94L395.84,238.70L391.02,239.05L389.41,234.95L383.48,233.88L383.21,230.80L385.92,230.32L388.90,222.89L382.42,222.28L380.00,216.53L370.79,211.92L368.71,205.04L359.52,217.36Z"><title>庄原市</title></path>
<path data-code="34211" data-name="大竹市" d="M82.14,472.04L81.15,478.82L78.57,480.06L85.56,482.67L88.85,488.31L74.89,494.04L68.11,492.13L72.52,481.99L59.90,483.61L58.12,482.29L59.51,479.67L54.15,481.70L49.49,478.35L50.11,468.88L45.21,461.79L47.69,455.78L41.54,450.33L43.56,441.40L46.83,440.69L49.19,443.74L50.96,434.60L56.71,434.17L59.76,445.57L57.30,454.01L66.01,458.28L70.83,453.26L76.88,452.64L83.15,459.47L85.55,466.75L82.14,472.04ZM106.37,499.66L107.52,495.48L109.95,498.28L113.26,495.83L116.46,500.01L111.01,502.57L106.37,499.66ZM77.04,448.85L78.30,445.61L78.87,449.08L82.37,448.73L78.67,450.53L79.19,454.86L77.04,448.85Z"><title>大竹市</title></path>
<path data-code="34212" data-name="東広島市" d="M226.94,441.17L226.04,438.52L229.02,435.67L227.05,429.17L233.08,423.56L239.80,424.60L244.16,417.60L241.76,404.24L239.36,402.68L243.78,391.94L249.60,389.07L244.82,382.01L242.00,384.74L236.53,378.81L229.81,380.60L224.10,375.59L227.82,365.77L225.00,361.75L231.61,359.61L236.70,352.44L241.35,353.03L242.73,346.68L248.94,341.04L251.59,339.96L256.42,343.92L259.58,342.04L265.84,330.45L275.93,329.00L282.77,321.15L294.19,318.46L294.45,310.54L300.43,298.72L304.15,297.99L314.48,306.71L318.92,303.48L333.17,302.95L330.24,307.59L336.39,311.44L337.35,316.60L333.87,321.38L330.54,320.43L332.47,329.20L323.43,333.89L321.03,332.40L318.68,336.98L320.87,337.79L322.19,344.49L333.59,347.19L340.44,362.81L343.31,362.66L343.32,367.08L346.82,370.88L345.97,375.76L334.81,371.87L340.53,381.54L336.50,385.45L336.90,397.27L330.04,399.55L319.66,393.38L309.02,393.64L305.46,390.86L293.64,393.13L296.94,398.48L303.58,398.55L307.24,404.78L300.65,405.91L296.16,410.61L295.23,416.04L304.07,414.27L322.98,425.30L320.75,451.84L318.45,452.62L318.20,448.92L314.02,446.88L313.69,441.30L305.95,440.95L305.59,443.48L299.03,443.61L300.69,444.83L294.63,459.38L293.24,455.24L284.93,450.59L282.08,433.30L272.56,438.40L267.75,445.03L263.53,442.67L248.43,454.17L242.92,443.51L226.94,441.17ZM297.32,461.96L302.53,457.05L304.60,458.33L301.74,463.42L297.32,461.96Z"><title>東広島市</title></path>
<path data-code="34213" data-name="廿日市市" d="M112.25,472.04L99.10,480.68L97.38,473.11L94.49,471.16L101.49,464.14L105.17,454.64L116.69,450.91L121.88,443.46L127.58,452.07L127.39,456.99L112.25,472.04ZM40.45,433.26L35.23,435.72L32.89,427.77L26.70,421.84L20.78,422.58L23.84,407.87L20.76,406.43L22.62,401.22L20.39,394.78L25.08,382.02L16.02,364.17L16.96,359.36L8.00,355.13L12.75,348.54L14.10,341.63L26.20,338.25L37.66,326.54L39.24,319.19L42.13,317.02L48.66,326.21L51.37,325.65L56.64,335.99L64.90,335.90L57.86,344.97L71.89,362.44L68.14,370.68L68.84,378.64L64.50,378.97L62.44,382.43L68.18,387.20L69.10,395.04L77.52,394.84L81.65,387.85L84.32,387.75L90.20,390.89L91.68,395.81L101.89,397.85L102.99,407.02L109.00,409.57L108.77,398.91L113.57,393.38L114.68,399.29L118.32,399.64L115.43,410.92L122.48,417.28L126.06,417.23L127.41,423.20L123.63,423.58L130.04,426.05L122.65,426.71L123.88,429.25L131.48,427.70L123.05,431.24L119.23,428.24L116.63,430.52L116.24,437.93L105.44,448.20L100.88,456.77L97.67,459.67L96.16,457.56L95.30,461.54L85.55,466.75L83.15,459.47L76.51,452.43L70.83,453.26L66.15,458.27L57.35,454.07L59.76,445.57L56.71,434.17L50.98,434.58L49.19,443.74L46.83,440.69L43.61,441.37L41.85,445.96L43.66,436.25L40.45,433.26Z"><title>廿日市市</title></path>
<path data-code="34214" data-name="安芸高田市" d="M221.19,316.94L219.15,322.57L213.85,326.52L212.09,321.95L202.45,316.79L213.15,310.16L214.26,294.55L220.94,284.66L217.56,278.86L225.38,269.58L221.59,267.56L219.19,270.10L218.05,265.69L214.26,264.07L216.51,258.96L215.15,254.05L218.90,247.11L211.87,241.77L212.24,232.77L200.17,218.46L206.31,212.27L211.55,213.26L223.58,200.50L228.59,200.76L229.49,196.12L243.94,197.27L249.77,201.11L254.75,192.05L258.94,192.57L259.89,195.87L266.27,192.93L270.31,196.08L270.27,202.13L262.45,203.02L261.01,208.60L293.43,213.35L292.05,228.44L287.07,236.89L288.06,239.77L294.23,239.86L296.42,242.96L290.34,252.61L288.61,261.23L303.26,267.33L300.24,272.81L301.71,275.74L295.47,283.14L293.87,290.24L299.84,298.58L294.45,310.54L294.28,318.33L282.77,321.15L275.93,329.00L265.84,330.45L263.13,332.75L262.93,338.26L258.09,339.52L258.97,328.01L255.74,325.10L259.73,314.09L251.34,306.16L252.32,304.22L246.74,308.80L236.90,311.09L229.10,308.63L227.04,315.68L221.19,316.94Z"><title>安芸高田市</title></path>
<path data-code="34215" data-name="江田島市" d="M158.72,519.51L158.47,516.46L162.59,513.87L163.68,517.09L158.72,519.51ZM151.48,510.81L153.92,514.66L152.73,517.93L146.22,520.27L140.83,515.53L140.41,507.01L151.48,510.81ZM179.47,510.81L181.46,522.59L178.69,521.00L164.97,526.78L164.91,523.41L158.18,528.50L164.73,517.48L166.31,510.36L163.98,509.47L164.45,504.99L169.19,505.62L161.67,497.18L158.31,507.81L154.97,496.21L150.47,494.33L141.31,483.04L143.09,476.62L136.59,468.20L137.92,465.97L139.74,469.01L150.07,466.99L156.59,469.45L162.29,483.68L166.02,484.20L169.41,480.90L175.67,491.36L177.82,480.56L174.45,474.57L168.77,468.90L166.53,473.44L159.96,471.89L164.81,464.30L160.97,460.26L160.36,455.27L175.91,456.45L178.11,455.70L177.82,450.51L185.18,464.07L182.03,473.40L184.65,475.62L181.62,494.27L177.75,499.11L175.36,497.84L174.60,505.12L177.04,505.34L179.47,510.81ZM137.70,461.01L132.36,459.69L139.04,458.49L137.70,461.01Z"><title>江田島市</title></path>
<path data-code="34302" data-name="府中町" d="M184.62,405.19L192.68,395.34L197.53,392.24L201.19,394.02L191.80,413.86L186.12,413.40L184.62,405.19Z"><title>府中町</title></path>
<path data-code="34304" data-name="海田町" d="M206.92,428.31L202.36,418.65L200.16,421.72L192.93,422.46L195.11,421.13L192.54,419.82L203.28,408.73L215.75,414.11L214.15,422.65L206.92,428.31Z"><title>海田町</title></path>
<path data-code="34307" data-name="熊野町" d="M207.29,438.14L205.59,429.11L214.15,422.65L216.64,411.21L230.91,413.69L235.87,419.93L234.53,423.96L227.05,429.17L228.93,436.29L223.27,446.31L210.37,436.93L207.29,438.14Z"><title>熊野町</title></path>
<path data-code="34309" data-name="坂町" d="M185.59,445.39L183.41,441.21L187.26,431.83L183.09,432.88L182.32,430.75L186.72,425.23L191.88,428.41L188.93,424.24L192.93,422.46L199.55,441.91L196.87,444.17L198.60,447.56L188.56,450.29L185.59,445.39Z"><title>坂町</title></path>
<path data-code="34368" data-name="安芸太田町" d="M66.40,356.52L57.86,344.97L64.90,335.90L56.64,335.99L51.37,325.65L48.66,326.21L42.13,317.02L43.72,311.29L39.10,308.37L38.61,303.39L44.15,295.62L42.98,289.75L47.78,283.96L50.81,290.37L62.58,288.82L61.48,285.22L66.43,274.79L69.93,275.20L72.67,279.94L76.64,279.43L80.86,271.47L88.57,272.48L96.57,280.58L105.31,269.50L110.48,272.61L119.49,255.64L131.23,263.99L128.86,267.52L131.49,274.62L126.18,283.01L131.86,293.35L130.59,301.58L136.81,305.80L147.85,303.95L149.07,308.09L147.14,307.24L143.58,312.72L142.17,330.47L131.92,337.96L132.15,328.23L131.36,331.38L120.86,330.01L106.89,333.20L89.57,341.84L85.81,347.82L86.13,352.06L76.56,348.90L72.51,351.58L72.12,356.03L66.40,356.52Z"><title>安芸太田町</title></path>
<path data-code="34369" data-name="北広島町" d="M200.44,316.94L197.36,314.68L198.40,311.90L194.90,306.05L185.38,312.16L177.62,303.30L171.96,302.75L162.20,312.91L157.14,307.69L149.07,308.09L147.85,303.95L136.81,305.80L131.67,302.58L131.84,293.28L126.18,283.01L131.49,274.62L128.86,267.52L131.24,264.00L126.24,262.02L121.58,255.73L116.12,258.60L110.48,272.61L105.31,269.50L96.58,280.57L88.31,272.41L80.86,271.47L76.67,279.41L73.13,280.05L67.04,274.40L61.50,285.16L62.61,288.80L50.81,290.37L47.78,283.61L55.75,268.18L46.53,265.24L43.67,262.95L44.10,259.03L62.24,245.55L66.51,247.01L71.63,240.01L74.44,241.77L79.23,239.61L80.28,230.13L87.00,224.04L87.37,216.67L85.33,215.38L86.99,213.03L100.58,216.60L99.21,219.87L101.39,223.80L108.19,227.04L111.18,219.26L115.98,215.38L122.18,220.78L137.44,215.67L140.77,218.49L140.15,222.72L146.01,225.70L152.88,217.14L156.79,216.52L155.28,209.72L161.32,206.38L168.99,212.68L168.06,215.80L179.41,217.46L183.68,215.46L187.72,217.97L193.13,214.27L204.52,222.34L204.65,225.43L207.57,225.48L208.28,229.72L212.20,232.71L211.87,241.77L215.92,243.04L219.13,248.36L215.34,253.39L216.51,258.96L214.26,264.07L218.05,265.69L219.19,270.10L221.59,267.56L225.38,269.58L217.56,278.86L220.94,284.66L214.26,294.55L213.15,310.16L200.44,316.94Z"><title>北広島町</title></path>
<path data-code="34431" data-name="大崎上島町" d="M329.25,492.79L319.87,489.37L315.81,482.20L318.27,478.90L315.15,475.69L319.37,474.22L322.65,476.74L321.88,472.48L324.11,474.56L330.13,472.34L332.52,474.77L330.02,471.24L334.03,466.31L336.66,468.75L335.57,472.14L339.04,473.18L341.68,465.49L349.08,456.83L354.97,459.21L350.25,472.98L343.94,479.07L346.78,488.73L329.25,492.79ZM329.25,469.82L324.80,465.59L327.09,462.04L329.79,463.65L329.25,469.82ZM341.15,453.94L344.54,448.70L345.22,453.25L348.81,450.80L348.45,455.54L345.16,458.24L341.62,454.55L340.82,456.23L341.15,453.94Z"><title>大崎上島町</title></path>
<path data-code="34462" data-name="世羅町" d="M339.77,316.94L337.56,317.84L336.39,311.44L330.24,307.59L333.25,303.04L326.31,299.34L330.59,294.60L328.11,291.72L328.73,286.93L331.78,287.76L330.49,279.37L336.89,269.92L348.61,274.03L353.54,270.85L354.39,279.66L359.55,285.12L361.15,281.24L366.00,283.90L365.44,278.98L372.99,272.99L383.06,271.95L395.48,282.48L400.20,281.74L401.04,285.01L410.75,279.63L418.46,282.64L424.60,288.44L424.32,291.64L431.66,291.03L437.07,294.31L439.18,299.50L436.72,309.17L428.80,316.46L432.00,320.51L427.25,332.71L412.66,338.30L407.58,332.24L393.02,325.79L386.34,331.57L381.53,330.61L376.15,333.91L366.10,323.07L362.06,324.17L361.20,320.08L347.77,316.37L348.20,313.64L342.41,312.15L339.77,316.94Z"><title>世羅町</title></path>
<path data-code="34545" data-name="神石高原町" d="M468.63,290.09L448.08,279.75L450.72,275.87L447.14,272.90L454.13,265.21L449.68,258.25L442.34,255.65L438.11,249.85L441.52,231.81L430.02,222.48L428.97,218.72L432.69,211.52L428.89,203.98L431.66,202.43L431.66,197.95L439.77,190.94L444.60,193.39L451.73,192.29L459.79,187.49L466.93,200.12L465.33,205.58L471.10,211.12L471.61,206.52L482.90,199.50L481.59,192.88L483.43,191.08L495.76,194.09L503.12,191.45L505.84,199.94L512.37,201.87L514.54,206.91L521.98,212.24L521.79,217.49L518.76,221.17L521.51,224.62L517.88,228.07L515.76,236.79L519.03,240.85L514.36,247.18L519.49,256.61L513.56,257.33L518.31,266.96L506.78,272.14L506.58,278.53L500.60,283.10L497.35,292.20L493.71,286.70L488.34,287.99L487.00,277.02L485.99,281.64L480.51,278.48L477.52,285.62L474.72,284.96L468.63,290.09Z"><title>神石高原町</title></path>
  </g>
</svg>
