<?xml version="1.0" encoding="UTF-8"?>
<svg xmlns="http://www.w3.org/2000/svg" viewBox="0 0 560 640" class="pref-muni-svg" role="img" aria-label="自治体境界図">
  <g class="pref-muni-svg__paths" fill="#eaf2fb" stroke="#5b7fa8" stroke-width="0.6" stroke-linejoin="round">
<path data-code="28100" data-name="神戸市" d="M410.58,391.44L415.17,388.81L412.73,382.98L417.20,375.79L429.54,400.94L425.62,400.28L425.41,402.69L422.21,403.67L424.32,407.15L418.89,407.87L417.56,405.92L417.65,408.03L412.97,408.65L412.60,405.57L409.19,403.86L411.40,402.93L408.99,398.00L410.58,391.44ZM414.33,417.75L412.26,411.54L424.38,410.16L424.70,412.54L421.07,411.90L424.82,413.71L425.17,416.31L414.33,417.75ZM428.37,406.63L426.13,406.85L426.28,401.25L429.48,401.85L428.37,406.63ZM419.94,424.23L421.78,422.74L422.59,428.77L420.55,428.81L419.94,424.23Z"><title>神戸市</title></path>
<path data-code="28100" data-name="神戸市" d="M400.14,411.20L397.39,401.00L393.49,398.96L392.76,386.84L413.79,379.44L414.80,381.13L412.73,382.98L415.57,387.70L410.08,391.57L410.88,394.29L409.01,395.78L411.40,402.93L409.19,403.86L412.60,405.57L412.97,408.65L404.09,408.77L407.57,411.56L400.14,411.20Z"><title>神戸市</title></path>
<path data-code="28100" data-name="神戸市" d="M380.61,422.50L377.49,413.75L373.67,411.33L384.51,402.81L386.87,411.34L384.42,414.44L389.44,420.28L387.28,422.50L390.40,422.41L387.04,424.00L390.48,428.24L380.96,429.00L380.61,422.50Z"><title>神戸市</title></path>
<path data-code="28100" data-name="神戸市" d="M372.05,422.59L370.37,418.50L371.54,416.06L368.87,415.37L372.17,411.16L377.49,413.75L380.66,420.39L380.96,429.00L383.59,430.24L377.56,429.75L374.32,432.45L372.57,429.13L374.99,427.17L372.05,422.59Z"><title>神戸市</title></path>
<path data-code="28100" data-name="神戸市" d="M353.46,423.25L355.65,418.04L353.01,419.16L349.37,412.48L358.53,411.69L359.43,404.17L361.22,405.50L361.91,403.36L363.37,405.94L363.86,402.94L363.48,407.25L369.21,416.06L371.54,416.06L370.37,418.50L374.99,427.17L372.57,429.13L374.32,432.45L358.68,435.78L361.44,428.53L357.25,426.33L355.80,422.42L353.46,423.25Z"><title>神戸市</title></path>
<path data-code="28100" data-name="神戸市" d="M352.84,422.50L355.80,422.42L357.25,426.33L361.44,428.53L358.57,435.81L342.61,439.74L333.53,432.17L344.19,418.81L352.61,420.09L355.37,417.71L352.84,422.50Z"><title>神戸市</title></path>
<path data-code="28100" data-name="神戸市" d="M358.13,405.54L358.72,401.61L355.61,397.91L359.91,397.20L360.60,393.21L357.74,386.46L353.28,382.11L348.12,382.46L355.23,376.47L359.15,376.45L359.45,372.56L352.49,365.32L352.84,361.07L358.38,354.38L364.79,348.60L374.48,353.49L379.60,350.76L379.30,333.67L384.54,330.44L394.55,336.26L404.22,337.88L415.41,332.66L422.41,333.16L426.30,342.45L422.63,347.69L416.65,347.81L414.95,350.45L408.09,347.97L405.84,349.04L405.01,354.69L408.38,366.56L411.11,364.10L418.42,366.61L416.01,377.51L392.76,386.84L393.94,394.42L369.07,414.65L363.48,407.25L363.86,402.94L363.37,405.94L361.85,403.33L358.13,405.54Z"><title>神戸市</title></path>
<path data-code="28110" data-name="神戸市" d="M400.28,437.29L397.78,437.52L399.09,433.50L406.75,432.76L408.24,435.58L400.28,437.29ZM406.67,422.50L403.33,424.42L404.15,426.07L407.77,424.72L411.34,429.02L400.45,429.32L396.10,426.79L395.18,418.85L401.40,415.87L403.26,417.88L400.65,420.02L405.41,419.71L401.73,422.24L409.95,420.84L406.67,422.50ZM393.56,398.51L397.39,401.00L400.79,412.89L395.98,414.17L395.46,417.57L391.33,414.74L388.62,418.09L390.86,420.77L388.96,421.04L384.42,414.44L386.87,411.34L384.39,401.47L393.86,394.50L393.56,398.51Z"><title>神戸市</title></path>
<path data-code="28110" data-name="神戸市" d="M327.22,426.41L319.19,425.50L315.22,414.85L314.52,402.98L307.96,403.60L303.52,409.53L300.74,405.14L297.92,404.78L296.89,400.43L310.10,395.26L315.93,387.68L314.10,382.93L317.81,383.17L323.94,378.35L327.82,377.68L327.43,379.90L335.60,383.12L343.14,379.32L346.37,382.58L353.25,382.10L356.26,384.41L360.59,393.15L359.91,397.20L355.61,397.91L358.76,401.76L358.63,411.58L349.37,412.48L352.71,420.06L344.19,418.81L337.65,425.41L327.22,426.41Z"><title>神戸市</title></path>
<path data-code="28201" data-name="姫路市" d="M158.64,431.81L153.28,432.98L155.49,430.18L152.22,429.38L146.99,433.18L144.63,431.22L146.17,423.98L148.42,422.31L147.53,424.58L150.28,426.07L151.44,423.67L152.68,425.92L154.34,424.03L153.36,420.61L156.23,421.17L155.28,425.89L157.00,425.49L158.64,431.81ZM161.27,433.47L159.04,430.83L163.89,425.41L164.81,429.78L161.91,430.24L164.96,433.11L163.84,435.36L161.27,433.47ZM167.16,422.50L161.38,418.07L170.59,414.32L167.99,417.23L169.21,420.01L170.69,417.24L174.12,417.08L172.76,425.98L167.16,422.50ZM189.30,422.50L187.23,427.25L183.83,428.97L179.39,421.61L183.38,418.20L189.30,422.50ZM189.54,380.36L194.79,380.31L191.44,384.37L189.54,380.36ZM222.05,384.80L223.60,380.72L226.73,379.68L225.38,384.13L222.05,384.80ZM199.86,359.30L201.60,359.03L203.05,352.47L197.44,348.62L198.40,346.29L194.45,347.27L191.17,343.19L187.20,342.93L191.83,334.60L191.22,327.81L182.14,328.74L180.04,325.40L182.88,321.87L181.53,314.02L183.41,311.82L182.32,305.32L183.98,300.29L180.29,294.78L185.17,290.73L190.46,276.16L189.46,267.42L192.14,261.10L196.74,260.27L194.46,260.49L194.39,256.98L198.48,250.46L201.56,251.72L208.57,249.06L212.34,252.12L213.36,248.54L220.07,247.03L221.22,251.70L226.18,253.93L226.58,261.39L232.92,263.58L233.12,270.72L224.31,280.12L230.22,287.98L227.72,293.63L231.93,299.37L231.87,304.73L235.87,310.89L248.77,311.88L249.20,316.28L257.15,318.30L258.68,324.25L255.11,331.77L264.39,340.08L261.49,342.24L257.89,340.66L261.46,349.69L251.69,351.64L251.34,355.88L247.85,355.23L247.52,357.27L252.89,360.64L250.16,362.26L247.77,369.08L243.43,369.56L241.73,365.12L240.79,367.04L242.91,378.43L245.44,370.34L248.74,375.09L245.83,384.80L246.14,382.65L241.67,380.49L237.24,381.67L237.43,379.68L228.70,377.15L227.29,378.95L228.17,377.41L226.15,376.82L227.03,378.98L224.40,379.86L221.91,379.53L221.25,376.62L220.50,379.13L218.29,378.59L219.70,381.71L217.20,377.34L215.24,379.76L211.89,378.38L216.05,375.89L213.72,373.86L209.33,379.77L211.14,372.40L207.92,376.12L207.72,381.34L202.07,382.53L203.13,376.92L207.16,374.49L199.92,374.35L202.03,376.54L200.41,380.25L196.20,380.89L196.83,376.74L194.19,376.11L187.24,380.53L187.78,383.35L182.21,385.18L183.23,371.95L178.02,363.84L185.09,364.33L188.62,359.27L185.99,358.52L190.84,356.30L193.83,356.83L193.46,359.45L199.86,359.30Z"><title>姫路市</title></path>
<path data-code="28202" data-name="尼崎市" d="M453.66,415.30L451.47,415.71L456.80,399.64L453.13,385.37L453.14,375.39L456.70,380.53L467.28,385.44L469.35,379.35L475.48,378.20L476.70,379.73L474.70,379.98L478.78,381.04L482.30,387.82L482.42,395.16L478.18,394.97L477.78,401.12L464.23,409.78L459.38,417.00L453.27,417.60L459.67,413.63L461.47,408.49L459.44,408.30L458.49,412.11L457.14,410.26L454.54,411.81L453.66,415.30Z"><title>尼崎市</title></path>
<path data-code="28203" data-name="明石市" d="M318.37,422.50L320.46,426.18L338.19,425.85L333.02,433.07L323.42,431.13L324.01,432.96L321.14,433.41L315.00,430.52L315.84,431.84L307.81,423.66L297.08,419.73L283.57,407.62L292.68,398.34L297.70,400.03L297.92,404.78L300.74,405.14L303.52,409.53L307.96,403.60L314.37,402.88L315.22,414.85L318.37,422.50ZM280.99,412.93L283.29,408.21L288.86,413.11L285.95,415.20L280.99,412.93Z"><title>明石市</title></path>
<path data-code="28204" data-name="西宮市" d="M436.80,404.92L438.58,399.70L442.11,401.35L440.02,405.41L442.21,407.44L439.99,404.53L436.80,404.92ZM436.58,398.16L434.21,389.73L427.37,378.68L423.16,375.60L417.42,375.48L418.42,366.61L411.11,364.10L408.38,366.56L404.82,358.64L405.84,349.04L409.46,347.86L415.01,350.44L416.65,347.81L422.63,347.69L425.88,342.51L429.01,343.39L428.71,345.45L433.07,343.76L436.17,356.88L441.12,361.17L429.04,366.75L431.72,370.62L428.67,372.65L434.00,372.59L446.46,379.16L452.46,378.17L452.77,374.06L453.26,386.23L456.80,399.64L452.80,411.42L451.47,410.31L449.70,413.53L446.55,410.10L449.66,406.32L441.01,397.64L440.07,399.84L436.58,398.16ZM445.23,406.72L443.55,406.82L442.96,402.47L446.04,405.21L445.23,406.72Z"><title>西宮市</title></path>
<path data-code="28205" data-name="洲本市" d="M285.08,597.57L275.74,587.39L271.46,585.75L274.69,577.38L271.53,567.34L274.57,565.21L273.39,562.15L275.97,559.79L268.52,557.32L264.92,550.16L256.91,553.63L252.06,553.40L251.10,550.30L246.85,553.60L245.10,551.11L239.77,551.70L242.72,541.58L247.57,537.51L251.46,525.68L253.47,526.15L255.73,520.95L273.14,523.13L277.48,531.48L281.31,526.56L284.87,527.22L287.17,530.67L286.53,534.70L291.74,532.56L292.89,545.07L291.37,551.78L293.90,552.69L292.55,554.05L294.62,553.90L294.86,556.46L297.68,556.65L300.19,567.95L308.12,573.63L310.00,583.83L312.11,582.69L310.90,587.05L285.08,597.57Z"><title>洲本市</title></path>
<path data-code="28206" data-name="芦屋市" d="M430.61,405.39L430.45,403.33L435.82,402.05L435.82,405.30L433.72,405.35L435.44,406.80L430.61,405.39ZM433.99,391.76L436.45,401.35L430.39,402.83L417.20,375.79L426.59,377.75L433.99,391.76Z"><title>芦屋市</title></path>
<path data-code="28207" data-name="伊丹市" d="M453.14,375.39L451.90,370.80L456.50,369.43L453.76,363.28L458.08,361.29L463.51,367.49L471.75,366.36L476.52,371.30L477.67,377.79L476.69,380.74L474.70,379.98L476.70,379.73L475.48,378.20L469.33,379.37L467.28,385.44L456.70,380.53L453.14,375.39Z"><title>伊丹市</title></path>
<path data-code="28208" data-name="相生市" d="M150.21,385.03L148.22,381.30L148.41,374.13L151.00,372.84L147.86,370.66L147.17,363.98L144.99,366.34L147.81,368.29L147.33,371.53L144.01,375.73L146.61,382.41L142.05,386.70L144.94,380.49L138.61,377.84L139.17,371.51L133.55,372.23L133.48,363.84L128.01,357.63L129.46,355.14L127.93,347.60L133.15,335.17L131.63,331.87L136.24,328.15L136.64,324.61L148.75,323.40L150.18,317.81L153.92,317.51L151.76,321.77L155.75,324.61L154.86,326.52L157.28,329.35L154.58,331.13L156.01,333.53L152.84,335.06L152.21,339.15L146.81,341.60L146.66,346.91L150.12,348.14L154.45,357.08L158.16,355.41L159.87,362.25L157.85,369.16L159.64,373.89L150.67,379.46L150.21,385.03Z"><title>相生市</title></path>
<path data-code="28209" data-name="豊岡市" d="M285.08,118.71L275.27,116.61L273.02,110.27L266.22,105.97L265.66,101.84L262.71,99.64L256.97,100.88L257.00,103.95L250.37,101.40L242.46,103.18L242.57,111.01L239.02,112.33L233.56,109.29L219.04,110.18L213.63,107.20L206.75,109.57L203.96,106.33L202.90,98.21L207.26,88.57L204.69,82.22L198.57,79.04L198.09,70.15L204.86,68.73L204.88,63.91L208.80,60.90L210.49,53.19L213.22,50.25L222.02,48.95L230.70,38.16L229.33,34.25L232.62,29.93L230.38,24.48L238.09,13.64L240.86,14.24L241.50,11.51L242.55,14.13L246.59,13.03L245.14,12.66L247.51,8.00L248.06,13.77L254.32,13.78L254.53,11.32L259.65,9.82L267.00,15.60L273.01,15.80L271.10,18.66L273.09,18.06L271.76,19.29L273.49,21.27L277.43,14.21L282.55,14.78L281.97,22.96L283.81,23.73L284.70,30.11L282.17,33.20L281.82,39.13L277.90,43.21L280.89,44.04L287.12,53.51L298.42,61.21L300.01,64.16L298.61,68.45L302.57,74.69L313.92,74.52L325.00,65.73L339.71,64.07L342.45,76.26L338.07,81.01L341.62,83.02L339.06,89.45L344.70,103.47L343.73,117.87L337.35,116.80L333.71,123.37L324.22,126.86L321.65,122.06L309.22,115.49L305.09,117.91L299.23,112.00L294.53,115.33L294.27,119.18L285.08,118.71Z"><title>豊岡市</title></path>
<path data-code="28210" data-name="加古川市" d="M285.00,397.47L277.79,398.26L275.72,402.49L274.52,400.00L272.12,405.76L269.41,404.61L270.48,409.54L262.76,401.19L263.86,395.22L261.94,402.02L263.59,395.82L262.01,385.48L263.84,380.00L267.48,378.32L260.92,371.23L257.91,362.44L247.52,357.25L247.91,355.19L251.37,355.86L251.69,351.64L261.49,349.66L257.89,340.65L261.49,342.24L264.72,340.07L263.81,344.39L265.55,345.99L270.18,343.98L276.60,347.13L279.28,345.42L284.27,351.15L287.63,351.30L290.17,355.87L300.47,357.67L303.11,364.90L302.18,369.44L305.70,376.04L304.47,380.51L292.16,376.93L291.61,381.85L288.12,382.55L286.81,385.84L289.81,390.21L287.95,391.14L288.72,393.44L293.50,398.27L290.37,400.06L286.72,396.33L285.00,397.47Z"><title>加古川市</title></path>
<path data-code="28212" data-name="赤穂市" d="M95.81,392.73L98.46,383.42L102.95,380.37L97.17,376.67L96.97,366.87L89.77,361.20L90.75,358.19L98.68,356.61L97.02,351.88L103.27,346.20L113.01,350.47L114.49,343.12L120.17,351.34L127.32,345.40L129.03,346.48L128.10,357.93L133.48,363.84L133.55,372.23L139.17,371.51L138.61,377.84L144.94,380.49L143.24,385.32L141.94,386.66L143.51,380.72L136.05,381.58L135.90,385.51L133.64,386.44L136.50,389.22L127.88,398.05L116.05,396.11L118.16,393.90L115.95,395.26L111.70,387.80L108.90,390.23L112.36,389.74L112.76,392.56L104.60,392.69L98.61,399.77L99.21,395.53L95.81,392.73Z"><title>赤穂市</title></path>
<path data-code="28213" data-name="西脇市" d="M291.88,300.12L290.97,292.94L293.17,290.79L294.85,293.45L300.73,292.68L304.98,278.54L309.92,276.16L308.59,275.13L310.14,271.73L307.72,270.82L311.68,269.99L313.70,272.89L317.72,269.69L314.99,262.99L319.26,260.08L320.01,256.59L336.00,255.70L335.98,261.60L347.65,263.35L348.57,266.15L356.05,263.04L360.92,264.35L359.36,268.57L351.14,274.81L342.38,286.86L342.46,290.77L344.89,293.04L341.14,298.33L328.57,299.97L318.16,304.83L314.86,301.43L302.23,303.30L291.88,300.12Z"><title>西脇市</title></path>
<path data-code="28214" data-name="宝塚市" d="M428.87,372.34L431.72,370.62L429.04,366.75L441.12,361.17L436.17,356.88L433.50,344.29L428.71,345.45L429.01,343.39L426.10,343.29L419.83,329.39L420.40,318.17L426.50,314.96L430.25,316.86L430.16,300.90L433.41,302.26L439.51,319.44L442.60,322.01L438.37,327.37L435.18,326.96L436.23,328.96L440.58,330.05L441.60,336.49L445.37,341.25L453.16,344.02L452.12,347.34L466.13,350.47L464.59,353.92L466.57,354.39L461.56,357.60L463.34,363.75L460.34,365.31L458.08,361.29L453.76,363.28L456.50,369.43L451.90,370.80L452.33,378.28L446.46,379.16L441.50,375.47L428.87,372.34Z"><title>宝塚市</title></path>
<path data-code="28215" data-name="三木市" d="M304.53,374.88L302.12,369.07L302.75,363.42L307.42,365.38L311.11,361.80L326.82,356.03L328.06,352.01L326.11,350.20L330.00,345.69L336.41,346.21L345.14,341.66L348.36,338.20L348.19,332.96L358.05,330.97L364.81,316.69L376.84,309.69L378.04,320.55L380.97,329.08L383.70,331.02L379.30,333.67L380.47,347.87L374.55,353.49L364.79,348.60L352.84,361.07L352.49,365.32L359.45,372.56L359.13,376.46L355.23,376.47L347.86,382.57L343.07,379.31L335.60,383.12L327.43,379.90L327.73,377.68L316.61,383.25L313.46,381.45L314.68,376.95L304.53,374.88Z"><title>三木市</title></path>
<path data-code="28216" data-name="高砂市" d="M262.77,395.08L259.53,394.02L258.87,396.52L255.49,392.27L256.23,389.48L254.85,392.11L249.48,387.62L245.37,387.47L248.37,384.18L246.74,383.23L248.74,375.09L245.44,370.34L242.91,378.43L240.46,368.49L241.73,365.12L244.11,369.67L247.77,369.08L250.97,361.46L258.98,363.80L260.92,371.23L264.59,373.16L262.81,374.05L267.64,379.47L262.99,381.76L262.77,395.08Z"><title>高砂市</title></path>
<path data-code="28217" data-name="川西市" d="M462.09,357.73L463.90,354.30L466.57,354.39L464.59,353.92L466.13,350.47L452.12,347.34L453.19,344.07L448.88,341.43L450.24,337.30L452.57,338.86L456.59,335.80L455.65,330.09L464.39,320.07L466.07,317.08L464.48,315.00L476.14,310.35L479.81,314.30L484.73,314.72L483.53,319.02L475.34,318.12L468.38,322.87L471.26,324.07L472.46,329.66L477.56,327.84L472.66,344.47L467.78,346.20L470.28,352.09L467.48,360.40L470.06,367.07L463.48,367.47L462.09,357.73Z"><title>川西市</title></path>
<path data-code="28218" data-name="小野市" d="M289.53,354.29L287.65,351.32L289.85,350.76L290.08,341.27L295.09,334.52L292.90,330.36L296.55,319.50L297.95,323.95L300.44,320.13L306.07,325.30L303.26,334.83L315.12,333.15L318.11,327.75L327.69,326.21L328.90,330.90L335.13,335.12L335.57,345.88L329.30,346.41L326.11,350.20L328.06,352.01L326.82,356.03L311.11,361.80L307.42,365.38L302.75,363.42L300.46,357.66L293.76,357.45L289.53,354.29Z"><title>小野市</title></path>
<path data-code="28219" data-name="三田市" d="M410.67,335.48L404.22,337.88L395.12,336.44L388.90,331.30L382.49,330.84L378.04,320.55L376.36,309.02L368.21,314.57L363.48,314.29L358.47,300.00L361.05,302.62L366.41,299.99L370.00,303.55L374.35,297.79L374.27,289.57L380.96,290.31L383.33,284.97L386.24,286.89L386.39,281.69L390.84,279.52L393.58,274.22L398.11,274.64L400.95,271.02L405.33,273.83L407.74,270.20L409.39,271.10L413.17,280.70L423.43,278.96L425.04,281.91L423.65,286.40L429.35,287.44L431.87,291.70L427.67,295.81L430.16,300.90L429.17,305.85L431.17,307.47L431.38,313.31L429.44,317.83L426.50,314.96L420.26,318.37L419.76,328.79L421.76,332.41L410.67,335.48Z"><title>三田市</title></path>
<path data-code="28220" data-name="加西市" d="M285.08,351.04L279.26,345.41L276.60,347.13L270.18,343.98L265.23,345.86L263.81,344.39L265.49,341.20L262.76,337.10L255.10,331.74L258.68,324.25L257.85,314.52L259.96,312.21L258.49,304.38L264.27,291.82L267.44,288.66L270.05,289.52L270.75,283.26L275.54,277.84L280.22,282.98L282.02,293.11L290.80,293.18L291.74,300.10L303.40,302.52L305.01,306.12L304.67,313.01L299.77,314.89L295.28,312.59L294.23,314.42L296.66,318.54L292.55,321.88L296.08,321.47L292.90,330.36L295.22,334.03L290.08,341.27L289.85,350.76L285.08,351.04Z"><title>加西市</title></path>
<path data-code="28221" data-name="丹波篠山市" d="M369.37,303.69L366.41,299.99L360.36,302.25L358.47,300.00L358.80,289.14L354.09,290.26L354.22,287.63L351.68,288.18L350.97,284.11L347.26,281.77L351.14,274.81L359.38,268.54L361.20,265.45L359.70,262.70L364.96,260.31L371.38,264.20L370.62,257.87L368.24,255.72L370.59,251.85L366.66,250.20L363.87,240.76L368.48,234.24L375.29,235.07L378.09,231.70L385.34,233.67L397.61,232.45L404.28,223.75L403.07,218.10L405.46,212.46L411.50,212.22L424.81,214.56L425.67,219.44L421.08,223.33L424.25,226.78L442.02,223.72L442.69,229.56L458.66,232.49L457.36,236.10L459.85,239.88L458.05,245.50L463.56,248.90L461.99,254.12L454.21,258.28L451.55,262.86L452.40,266.81L445.18,264.41L438.56,270.95L441.79,274.79L436.06,275.27L435.64,279.58L431.28,281.47L423.32,278.92L413.17,280.70L412.13,275.03L407.80,270.18L406.58,273.64L401.51,270.92L398.11,274.64L393.58,274.22L390.84,279.52L386.39,281.69L386.24,286.89L383.33,284.97L380.96,290.31L374.27,289.57L374.35,297.79L369.37,303.69Z"><title>丹波篠山市</title></path>
<path data-code="28222" data-name="養父市" d="M224.38,182.64L220.01,186.07L215.41,180.06L210.49,181.23L206.29,172.64L201.71,169.99L193.50,176.01L187.46,172.21L185.48,163.72L160.94,146.24L163.33,140.10L160.04,137.50L160.01,131.98L169.30,123.16L173.38,125.38L184.83,122.72L194.25,128.36L195.13,121.10L200.91,116.99L207.48,116.46L208.97,112.43L207.46,108.79L213.63,107.20L219.04,110.18L224.54,108.46L240.65,112.12L243.39,108.41L241.30,105.93L242.46,103.18L250.37,101.40L257.00,103.95L256.97,100.88L262.71,99.64L265.66,101.84L266.22,105.97L273.02,110.27L275.21,116.54L278.99,117.85L280.94,126.19L276.70,131.12L267.59,131.79L259.06,138.53L258.95,144.85L261.32,147.20L257.86,151.64L250.63,154.36L252.08,158.67L258.55,163.65L256.31,172.11L246.73,176.39L239.46,170.27L232.01,172.25L228.66,170.68L227.54,166.43L221.09,173.36L225.99,179.08L224.38,182.64Z"><title>養父市</title></path>
<path data-code="28223" data-name="丹波市" d="M327.11,256.67L309.32,257.34L309.01,246.97L303.70,240.57L308.07,234.45L307.79,230.89L314.16,224.96L313.95,222.84L309.58,221.47L309.21,213.12L312.85,207.13L309.86,204.71L309.41,197.17L299.79,198.21L293.29,192.43L296.58,188.98L294.51,180.91L306.37,161.90L306.19,158.95L326.92,165.80L331.18,169.84L330.88,174.58L339.86,178.24L346.37,176.63L350.11,187.84L363.90,175.94L381.73,179.28L383.47,186.78L379.41,192.30L388.69,196.65L393.66,201.95L394.35,205.83L390.18,207.22L390.36,214.81L396.83,219.39L403.07,218.10L404.31,223.63L401.30,229.54L395.10,232.88L378.09,231.70L375.29,235.07L368.61,234.15L364.06,239.17L366.66,250.20L370.59,251.85L368.24,255.34L370.62,257.87L370.51,264.66L364.96,260.31L348.57,266.15L347.65,263.35L335.98,261.60L336.00,255.70L327.11,256.67Z"><title>丹波市</title></path>
<path data-code="28224" data-name="南あわじ市" d="M228.42,593.82L226.40,597.38L224.41,594.71L219.67,594.48L211.88,597.47L217.98,591.41L215.62,584.88L212.39,584.63L213.61,578.18L210.71,575.78L221.59,560.64L229.37,564.58L234.20,559.57L233.93,561.55L236.22,560.94L234.58,559.83L239.77,551.70L245.10,551.11L246.85,553.60L251.10,550.30L252.06,553.40L256.91,553.63L264.92,550.16L268.52,557.32L275.97,559.79L273.39,562.15L274.57,565.21L271.53,567.34L274.69,577.38L271.46,585.75L275.74,587.39L283.90,597.97L270.97,604.34L258.91,615.48L251.51,614.18L236.72,618.96L236.13,611.27L226.37,607.36L229.69,597.86L233.40,597.32L233.74,591.57L228.42,593.82ZM270.05,628.09L267.57,631.94L263.52,632.00L263.88,628.26L267.27,626.41L266.74,622.80L270.05,628.09Z"><title>南あわじ市</title></path>
<path data-code="28225" data-name="朝来市" d="M242.93,228.87L237.93,227.40L234.49,221.69L235.71,217.28L231.98,211.69L235.59,205.96L229.58,198.24L225.31,197.24L225.31,191.44L222.84,188.84L226.00,179.12L221.09,173.36L227.61,166.41L228.66,170.68L232.01,172.25L239.46,170.27L246.73,176.39L256.31,172.11L258.55,163.65L252.08,158.67L250.63,154.36L257.86,151.64L261.32,147.20L258.03,141.30L259.08,138.50L267.59,131.79L277.46,130.43L280.94,126.19L278.99,117.85L294.22,119.20L294.64,115.22L300.79,112.63L305.09,117.91L301.40,123.31L302.68,129.28L299.90,135.46L301.41,139.87L299.27,145.44L302.96,149.56L300.79,155.85L306.62,160.64L294.18,182.39L296.58,188.98L293.29,192.43L298.17,195.65L299.81,198.26L298.71,201.01L294.05,205.43L289.65,205.33L286.49,213.48L274.73,218.75L274.76,224.15L268.39,230.15L265.48,226.25L256.51,226.84L251.07,233.84L248.84,225.67L245.72,229.17L242.93,228.87Z"><title>朝来市</title></path>
<path data-code="28226" data-name="淡路市" d="M285.08,527.57L281.31,526.56L277.48,531.48L273.14,523.13L255.71,520.65L258.93,512.19L266.02,503.64L271.38,504.91L275.62,500.55L286.08,480.56L285.19,483.58L289.33,478.12L293.03,479.01L305.33,470.70L319.11,450.86L328.58,446.42L335.18,454.33L335.88,459.73L326.66,470.12L323.44,486.23L313.24,495.57L305.08,508.14L307.21,507.81L299.05,513.72L301.89,514.00L298.50,518.36L297.13,516.78L295.32,518.83L297.29,519.93L293.17,524.04L293.39,526.64L291.91,524.97L293.29,527.11L291.74,532.56L286.53,534.70L287.17,530.67L285.08,527.57Z"><title>淡路市</title></path>
<path data-code="28227" data-name="宍粟市" d="M180.77,295.71L183.98,300.29L182.48,304.09L176.74,304.70L175.03,303.18L176.26,295.64L170.71,298.61L164.59,295.94L161.47,290.51L162.79,285.42L154.30,285.33L156.24,283.35L153.29,282.26L153.81,279.33L148.07,270.97L136.91,269.26L138.29,265.29L136.70,253.66L138.96,248.26L137.56,246.25L140.26,242.45L135.61,235.86L129.22,234.62L130.35,228.60L127.82,224.53L129.36,220.21L126.99,217.38L128.99,209.18L119.19,205.48L118.17,199.35L118.98,194.32L123.89,191.90L125.87,186.33L136.71,191.19L141.03,187.60L146.32,188.05L145.75,185.09L163.82,171.41L161.76,164.53L163.63,158.92L159.29,151.26L160.94,146.24L185.48,163.72L186.66,171.08L192.56,175.80L201.71,169.99L206.29,172.64L210.49,181.23L215.41,180.06L220.01,186.07L224.19,183.11L225.10,186.00L222.84,188.91L225.31,191.44L225.31,197.24L229.58,198.24L235.59,205.96L233.18,208.74L225.32,209.98L221.89,215.50L215.85,216.27L217.19,220.50L215.71,219.92L216.14,223.38L211.48,230.88L213.67,234.71L211.28,240.07L216.57,247.10L213.36,248.54L212.34,252.12L208.57,249.06L201.56,251.72L198.48,250.46L194.39,256.98L194.46,260.49L196.74,260.27L192.14,261.10L189.46,267.42L190.46,276.16L185.17,290.73L182.37,291.26L180.77,295.71Z"><title>宍粟市</title></path>
<path data-code="28228" data-name="加東市" d="M292.97,321.18L296.58,318.90L294.15,314.63L295.28,312.59L299.77,314.89L304.80,312.86L303.46,303.14L304.92,301.65L314.86,301.43L318.16,304.83L328.57,299.97L341.14,298.33L344.89,293.04L342.46,290.77L342.38,286.86L347.26,281.77L350.97,284.11L351.68,288.18L354.22,287.63L354.09,290.26L358.80,289.14L358.44,303.32L362.19,306.97L363.48,314.29L367.16,314.65L358.05,330.97L348.19,332.96L347.04,339.91L336.41,346.21L335.13,335.12L328.90,330.90L327.69,326.21L318.11,327.75L315.12,333.15L303.26,334.83L306.31,327.10L303.63,321.30L300.40,320.14L297.95,323.95L296.64,319.53L296.36,322.80L292.97,321.18Z"><title>加東市</title></path>
<path data-code="28229" data-name="たつの市" d="M158.64,371.52L159.87,362.25L158.16,355.41L154.45,357.08L150.12,348.14L146.66,346.91L146.81,341.60L152.21,339.15L152.84,335.06L156.01,333.53L154.58,331.13L157.28,329.35L154.86,326.52L155.75,324.61L151.76,321.77L153.98,317.56L150.18,317.81L148.75,323.40L141.30,322.86L141.40,313.57L133.91,305.87L138.19,299.27L146.21,298.32L147.61,294.66L150.52,294.11L149.71,290.44L154.36,281.86L156.24,283.42L154.38,285.40L162.56,285.07L161.47,290.51L164.59,295.94L170.71,298.61L176.44,295.84L175.09,303.62L182.39,304.22L183.52,309.87L181.53,314.02L182.88,321.87L180.04,325.40L182.06,328.72L190.04,327.21L191.75,329.94L191.83,334.60L188.12,338.70L184.46,349.18L180.89,349.33L177.75,355.70L178.02,363.84L183.23,371.95L182.20,384.93L178.30,382.39L178.26,379.89L172.38,379.93L167.92,374.69L161.65,382.80L159.30,383.38L158.90,380.89L160.45,381.62L158.61,378.15L155.70,381.60L152.63,381.15L149.96,386.09L150.67,379.46L159.49,374.38L158.64,371.52Z"><title>たつの市</title></path>
<path data-code="28301" data-name="猪名川町" d="M435.20,327.22L441.48,325.29L442.60,322.01L439.51,319.44L433.41,302.26L429.00,300.60L428.01,294.24L431.87,291.70L429.35,287.44L423.65,286.40L424.15,280.87L431.38,281.46L436.23,278.82L436.06,275.27L444.92,274.36L447.19,278.60L446.10,289.39L448.45,292.62L445.10,294.08L444.00,299.97L448.73,304.15L456.24,303.53L459.51,309.54L465.16,307.85L465.56,310.12L467.98,309.37L468.32,312.61L464.48,315.00L466.07,317.08L464.39,320.07L455.70,329.96L456.59,335.80L452.57,338.86L450.24,337.30L448.88,341.43L445.29,341.17L441.60,336.49L440.58,330.05L435.20,327.22Z"><title>猪名川町</title></path>
<path data-code="28365" data-name="多可町" d="M285.08,293.30L280.73,291.75L280.22,282.98L276.61,280.41L272.58,269.99L276.01,265.99L271.60,259.09L274.96,250.91L278.75,248.77L276.51,242.68L277.79,239.04L281.86,237.05L285.23,228.07L294.73,219.26L292.71,214.84L296.01,210.26L294.00,205.45L295.67,202.55L300.46,197.86L309.41,197.17L309.86,204.71L312.85,207.23L309.21,213.12L309.58,221.47L313.95,222.84L314.16,224.96L307.79,230.89L308.07,234.45L303.70,240.78L309.01,246.97L309.32,257.34L320.01,256.59L319.26,260.08L314.99,262.99L317.72,269.69L313.70,272.89L311.68,269.99L307.72,270.82L310.14,271.73L308.59,275.13L309.92,276.16L304.98,278.54L300.73,292.68L294.85,293.45L293.17,290.79L285.08,293.30Z"><title>多可町</title></path>
<path data-code="28381" data-name="稲美町" d="M288.60,388.23L286.94,383.95L291.61,381.85L292.16,376.93L296.03,379.06L299.79,377.49L304.33,380.64L305.33,376.27L314.72,376.99L313.46,381.45L315.93,387.68L309.97,395.35L296.61,399.85L289.99,395.38L288.60,388.23Z"><title>稲美町</title></path>
<path data-code="28382" data-name="播磨町" d="M273.84,410.30L272.09,409.90L275.26,405.40L278.14,405.41L275.93,403.75L280.70,405.66L277.75,411.20L273.84,410.30ZM275.72,402.49L277.79,398.26L286.50,398.15L286.72,396.33L290.68,400.59L283.57,407.62L275.72,402.49Z"><title>播磨町</title></path>
<path data-code="28442" data-name="市川町" d="M242.93,293.70L236.96,290.82L233.17,280.10L228.08,277.24L229.54,272.45L233.55,269.79L232.80,263.67L237.89,264.01L241.24,269.15L246.75,267.42L248.68,271.02L251.12,268.54L258.47,269.38L264.29,262.41L273.82,261.73L276.02,266.02L272.58,269.99L276.13,276.32L270.75,283.26L270.05,289.52L267.44,288.66L264.27,291.82L262.85,297.50L255.88,296.81L247.10,300.34L247.28,294.49L242.93,293.70Z"><title>市川町</title></path>
<path data-code="28443" data-name="福崎町" d="M236.47,288.86L241.98,293.61L247.28,294.49L247.00,300.31L255.88,296.81L261.61,297.94L258.45,304.58L259.96,312.21L257.85,314.52L258.23,319.04L249.20,316.28L248.77,311.88L235.84,310.87L231.17,303.05L231.47,298.29L228.20,296.03L230.22,287.98L224.32,280.01L228.09,277.27L232.87,279.80L236.47,288.86Z"><title>福崎町</title></path>
<path data-code="28446" data-name="神河町" d="M222.11,252.11L221.04,247.35L214.60,246.02L214.47,242.35L211.29,240.11L213.67,234.71L211.46,230.97L216.14,223.38L215.71,219.92L217.19,220.50L215.85,216.27L221.89,215.50L225.32,209.98L233.11,208.76L231.99,211.75L235.71,217.28L234.00,219.66L236.85,226.04L244.69,229.26L248.84,225.67L251.07,233.84L256.51,226.84L265.48,226.25L268.45,230.12L274.76,224.15L274.73,218.75L286.56,213.43L290.02,205.01L296.00,207.65L292.71,214.84L294.71,219.30L285.23,228.07L281.86,237.05L277.79,239.04L276.51,242.68L278.75,248.77L274.94,250.95L272.02,260.75L264.25,262.43L258.47,269.38L251.12,268.54L248.68,271.02L246.75,267.42L239.69,268.65L237.89,264.01L228.01,262.80L226.18,253.93L222.11,252.11Z"><title>神河町</title></path>
<path data-code="28464" data-name="太子町" d="M178.31,363.75L178.89,352.08L184.46,349.18L187.20,342.93L191.17,343.19L194.45,347.27L197.89,345.81L197.44,348.62L203.05,352.47L201.25,359.31L193.46,359.45L193.83,356.83L190.84,356.30L185.99,358.52L188.62,359.27L185.09,364.33L178.31,363.75Z"><title>太子町</title></path>
<path data-code="28481" data-name="上郡町" d="M98.76,353.96L98.68,356.61L89.72,360.25L86.90,355.79L79.75,357.11L78.67,348.97L75.27,346.33L77.37,338.76L80.10,336.67L78.67,333.00L81.08,333.29L82.26,329.60L89.22,325.40L91.18,317.23L101.31,310.82L100.49,314.61L104.24,316.30L111.57,309.08L118.71,309.60L121.21,312.47L135.43,307.53L139.64,309.89L142.28,317.51L141.30,322.86L136.64,324.61L136.24,328.15L131.63,331.87L133.15,335.17L129.33,346.31L127.32,345.40L120.03,351.33L114.49,343.12L113.21,350.36L106.07,348.97L103.89,346.02L99.34,348.23L96.99,351.96L98.76,353.96Z"><title>上郡町</title></path>
<path data-code="28501" data-name="佐用町" d="M90.82,319.70L88.88,323.20L82.13,313.17L75.72,311.07L75.80,307.55L83.44,300.56L81.39,292.11L86.71,287.03L79.49,283.25L79.19,278.62L82.95,275.78L85.00,270.12L96.89,267.53L97.58,251.19L108.18,248.00L109.06,238.78L111.68,236.00L110.15,234.27L113.93,225.00L123.00,222.63L129.09,225.20L129.22,234.62L135.61,235.86L140.29,242.61L137.56,246.25L138.96,248.26L136.70,253.66L138.29,265.29L136.91,269.26L148.07,270.97L154.12,280.03L149.71,290.44L150.52,294.11L147.61,294.66L146.21,298.32L138.19,299.27L134.47,303.81L134.92,307.83L129.95,310.91L121.21,312.47L118.71,309.60L111.46,309.10L103.97,316.32L100.47,314.57L102.57,310.84L100.13,311.01L91.18,317.23L90.82,319.70Z"><title>佐用町</title></path>
<path data-code="28585" data-name="香美町" d="M158.64,134.56L148.99,129.17L152.39,116.76L151.01,108.95L153.94,107.05L155.53,100.98L153.73,90.41L164.48,76.63L175.20,75.50L173.01,56.89L186.91,48.08L187.82,41.75L185.43,40.17L182.75,30.96L170.43,28.57L166.36,24.21L168.06,16.67L164.47,11.49L165.24,13.07L172.10,9.79L178.88,17.96L182.18,14.98L184.58,17.22L185.00,13.66L192.62,14.86L194.67,18.71L197.21,18.82L197.85,22.57L201.60,21.66L201.71,19.63L202.30,21.43L201.60,18.23L204.90,15.87L203.75,19.17L205.18,16.60L206.59,18.08L208.67,13.47L213.81,11.27L214.24,15.82L211.81,15.22L213.55,18.94L217.46,13.67L221.52,15.82L222.11,11.81L224.81,13.06L224.05,16.02L227.67,16.95L229.71,14.03L228.63,11.21L236.87,13.11L236.44,17.24L230.37,24.50L232.62,29.93L229.33,34.25L230.70,38.16L222.02,48.95L213.22,50.25L210.49,53.19L208.80,60.90L204.88,63.91L204.86,68.73L198.02,70.35L198.57,79.04L204.69,82.22L207.26,88.57L202.74,101.77L204.41,107.58L208.96,112.19L207.48,116.46L200.91,116.99L195.13,121.10L194.25,128.36L184.83,122.72L173.38,125.38L168.50,123.26L158.64,134.56Z"><title>香美町</title></path>
<path data-code="28586" data-name="新温泉町" d="M158.64,82.93L153.73,90.41L155.53,100.98L153.64,107.49L149.39,108.72L138.44,103.36L136.27,93.65L137.78,89.68L134.17,81.25L135.33,78.82L129.20,73.71L133.55,62.65L131.98,61.44L132.27,54.12L128.30,54.01L126.62,50.85L127.72,43.22L115.32,35.20L114.79,32.72L118.82,33.94L122.87,30.51L126.72,32.27L131.63,28.57L136.19,30.22L135.70,26.46L137.96,24.01L138.79,27.00L142.77,26.85L145.60,22.24L150.94,22.33L160.28,13.54L164.89,13.68L164.43,11.46L168.06,16.67L166.23,23.94L169.33,27.45L183.64,31.73L185.43,40.17L187.82,41.72L187.49,46.17L173.01,56.89L173.43,69.24L175.18,68.95L176.02,73.95L172.40,77.02L164.48,76.63L158.64,82.93Z"><title>新温泉町</title></path>
  </g>
</svg>
