<?xml version="1.0" encoding="UTF-8"?>
<svg xmlns="http://www.w3.org/2000/svg" viewBox="0 0 560 640" class="pref-muni-svg" role="img" aria-label="自治体境界図">
  <g class="pref-muni-svg__paths" fill="#eaf2fb" stroke="#5b7fa8" stroke-width="0.6" stroke-linejoin="round">
<path data-code="17201" data-name="金沢市" d="M265.58,532.32L263.36,529.11L256.09,525.95L254.49,518.97L249.76,520.03L241.07,513.92L242.01,510.12L239.62,507.56L239.66,501.88L237.89,502.54L237.30,500.17L238.92,497.96L233.68,489.18L236.07,489.20L234.86,487.39L235.99,486.34L233.71,486.72L231.97,483.83L227.49,482.18L228.01,472.96L231.66,472.46L232.34,470.11L229.89,469.26L229.85,464.95L225.18,467.04L223.41,461.87L222.21,465.15L219.48,463.05L218.11,464.68L217.29,459.15L211.77,457.42L219.69,446.61L218.41,443.55L219.88,445.82L221.57,440.78L226.23,437.76L224.74,436.36L227.00,432.17L232.93,437.22L247.73,420.27L250.70,422.38L248.77,425.20L253.96,431.19L255.51,428.67L264.05,431.76L264.42,433.66L268.47,432.63L275.59,435.65L274.89,440.81L278.22,451.45L277.02,456.76L280.21,457.06L284.34,462.78L278.17,477.29L277.84,482.12L280.32,486.30L278.29,489.83L279.07,494.45L276.24,497.58L278.62,500.37L271.05,505.20L270.70,507.77L271.21,510.85L278.18,515.53L279.57,526.34L281.81,530.42L273.19,537.56L265.58,532.32Z"><title>金沢市</title></path>
<path data-code="17202" data-name="七尾市" d="M331.43,318.16L328.72,314.65L324.43,316.39L321.19,314.62L322.99,312.61L322.26,310.94L315.14,307.81L312.51,300.53L296.80,299.74L294.34,296.55L296.91,291.41L292.77,288.52L291.47,284.86L288.56,285.21L290.07,281.71L282.48,278.85L280.75,274.52L276.56,272.28L272.93,264.76L275.51,261.35L274.34,256.08L279.65,245.85L280.47,239.89L286.06,236.75L292.87,237.30L294.99,245.39L299.56,243.91L304.59,247.59L300.41,257.44L302.10,259.25L304.85,256.17L307.61,259.02L305.44,267.86L302.73,266.36L301.97,268.26L298.34,267.70L297.77,272.49L299.60,276.08L295.94,279.59L300.10,281.99L307.03,281.42L309.24,275.50L311.74,274.48L319.60,277.27L317.26,278.99L317.66,281.69L324.86,283.04L322.95,286.55L325.90,288.98L328.51,289.87L328.68,287.97L331.34,289.78L334.50,285.29L336.75,286.59L337.39,284.58L335.51,283.92L337.27,279.79L338.56,280.94L338.54,276.17L341.40,271.08L351.41,268.53L349.12,271.21L350.50,280.34L348.03,293.36L349.80,298.94L348.22,302.69L350.32,308.33L348.88,311.17L350.76,319.26L349.74,320.78L345.82,318.00L336.74,320.09L331.43,318.16ZM335.32,265.73L331.88,267.01L328.51,272.71L325.13,270.15L320.11,274.73L318.68,266.62L313.22,263.08L312.15,260.24L309.16,259.90L307.86,253.40L309.69,254.43L310.63,252.44L314.15,255.19L313.94,261.02L318.69,255.49L321.05,258.11L325.16,255.24L328.91,257.65L326.08,254.75L326.25,252.31L329.30,255.27L331.55,253.83L335.54,259.45L337.74,256.60L341.47,256.83L344.91,247.92L348.29,249.52L350.45,254.60L346.63,258.08L349.34,261.40L348.91,264.18L341.41,267.70L337.46,266.29L337.31,264.36L337.13,267.26L335.32,265.73Z"><title>七尾市</title></path>
<path data-code="17203" data-name="小松市" d="M195.03,603.36L193.51,599.82L195.32,591.08L193.36,589.81L191.62,573.35L188.59,570.93L189.13,567.41L184.92,563.15L173.61,562.17L173.86,559.23L171.21,556.03L172.12,549.13L168.47,546.87L173.27,541.17L171.13,537.16L167.27,537.46L164.42,532.22L166.30,528.11L162.23,527.58L163.28,525.33L160.24,521.76L175.23,505.40L188.20,503.55L190.41,500.83L192.81,501.55L189.92,507.31L191.36,507.62L190.92,510.42L192.90,507.39L194.18,508.95L203.10,505.88L208.68,510.75L205.41,514.44L207.44,512.66L210.41,513.68L212.41,517.96L216.68,517.15L219.58,521.29L220.08,525.44L217.15,529.03L217.94,536.59L212.61,538.87L212.42,541.41L209.51,543.53L211.44,547.86L209.60,550.45L211.12,552.65L209.37,556.23L222.55,558.63L223.73,563.66L227.20,564.13L224.57,567.94L222.40,579.57L214.65,584.38L209.86,598.44L210.31,601.53L204.55,604.20L195.03,603.36Z"><title>小松市</title></path>
<path data-code="17204" data-name="輪島市" d="M251.64,230.18L250.21,228.90L253.05,225.86L251.53,221.89L257.46,217.20L261.46,207.17L260.51,204.31L258.55,204.26L257.80,193.47L262.42,188.60L262.10,185.01L264.32,186.94L266.74,185.51L267.50,183.41L265.73,181.83L267.39,179.14L274.62,178.00L277.04,174.67L280.01,175.21L282.74,171.57L298.60,164.43L305.17,166.52L307.05,164.41L308.34,167.77L314.66,168.53L337.79,156.24L343.54,155.45L348.16,149.27L353.41,148.82L358.95,143.91L363.49,148.58L367.38,145.69L370.74,146.18L372.34,147.99L370.87,152.76L383.02,158.40L377.87,163.80L371.14,166.66L369.18,166.67L369.34,165.01L367.73,167.74L364.58,168.32L363.69,171.72L359.15,171.85L358.31,169.44L355.38,168.66L353.06,169.13L351.75,173.97L349.78,174.12L344.49,169.67L335.45,168.40L326.32,175.74L329.55,184.46L327.04,188.29L329.87,190.55L324.72,198.64L327.16,200.56L326.07,203.81L323.13,203.69L316.57,208.64L309.06,208.48L305.44,211.56L300.39,209.99L289.65,221.62L287.05,219.92L287.91,218.01L284.31,213.28L281.76,217.19L282.97,219.49L281.75,221.88L278.42,227.64L276.30,227.72L277.53,229.50L269.36,237.61L263.80,240.02L262.03,235.81L254.68,234.41L256.15,230.49L255.08,228.90L251.64,230.18ZM310.84,10.23L314.21,8.00L313.33,10.55L311.21,11.86L310.84,10.23Z"><title>輪島市</title></path>
<path data-code="17205" data-name="珠洲市" d="M372.50,169.87L372.13,165.54L377.97,163.73L383.02,158.40L370.87,152.76L372.34,147.99L370.74,146.18L362.32,148.16L359.15,143.29L361.51,139.28L375.79,132.28L393.97,129.84L396.77,126.27L400.44,126.22L401.96,123.79L403.46,125.19L404.06,122.89L412.11,120.31L414.09,122.55L426.75,121.75L427.02,125.22L431.85,126.62L431.10,128.24L433.43,131.51L430.21,138.02L435.02,144.20L435.86,149.22L428.25,153.10L422.08,154.12L415.44,152.11L409.94,153.97L408.43,155.66L409.40,156.72L407.30,155.66L403.47,163.63L404.06,168.05L401.60,170.38L402.11,176.20L378.14,182.68L377.48,177.22L375.73,177.16L376.30,173.62L372.50,169.87Z"><title>珠洲市</title></path>
<path data-code="17206" data-name="加賀市" d="M158.60,597.43L152.44,595.28L150.01,591.07L147.85,582.72L149.07,575.40L144.80,573.66L144.33,569.77L140.40,565.47L130.81,563.07L130.08,558.45L127.87,557.98L128.51,554.61L124.14,551.97L133.15,544.33L139.88,532.61L149.85,530.11L160.24,521.76L163.28,525.33L162.23,527.58L166.30,528.11L164.42,532.22L167.27,537.46L171.13,537.16L173.27,541.17L168.47,546.87L172.12,549.13L171.21,556.03L173.86,559.23L173.61,562.17L184.92,563.15L189.13,567.41L188.59,570.93L191.62,573.35L193.36,589.81L195.49,592.64L193.53,600.35L185.09,607.94L179.22,607.66L174.75,601.68L171.94,600.93L170.55,595.49L158.60,597.43Z"><title>加賀市</title></path>
<path data-code="17207" data-name="羽咋市" d="M267.91,353.27L270.32,336.06L266.75,333.47L267.78,332.85L266.96,334.33L265.44,330.53L268.88,326.10L267.40,322.82L269.37,322.87L270.73,319.20L274.20,319.66L277.76,325.40L278.49,323.16L276.42,318.35L279.73,318.81L277.89,325.31L281.76,322.75L280.42,324.63L281.93,326.72L280.00,327.70L278.49,325.72L278.68,327.81L278.09,325.70L278.50,328.09L286.65,324.30L286.51,330.01L288.43,327.19L294.80,324.67L294.23,327.95L297.65,328.63L301.03,336.41L303.43,336.62L301.25,341.61L303.41,346.60L300.64,352.77L295.50,350.67L289.19,351.51L286.97,345.77L279.31,344.50L276.79,347.60L276.97,350.58L274.94,350.87L275.18,353.73L267.91,353.27Z"><title>羽咋市</title></path>
<path data-code="17209" data-name="かほく市" d="M244.26,411.58L243.13,410.67L258.41,379.88L265.20,379.24L265.26,381.73L266.97,382.21L273.05,380.95L276.65,385.13L280.95,385.22L284.33,387.89L274.73,392.31L270.80,390.92L268.62,396.36L270.67,397.50L263.47,404.88L263.97,407.07L261.39,410.78L253.55,411.44L253.47,413.10L251.92,411.45L249.68,417.44L246.62,415.28L248.03,413.17L244.26,411.58Z"><title>かほく市</title></path>
<path data-code="17210" data-name="白山市" d="M263.76,626.52L255.84,626.97L241.12,632.00L238.07,623.41L227.90,617.85L224.22,610.40L213.47,605.13L210.00,600.92L214.65,584.38L222.40,579.57L224.57,567.94L227.20,564.13L223.73,563.66L222.55,558.63L209.43,556.38L211.12,552.65L209.60,550.45L211.44,547.86L209.51,543.53L212.42,541.41L212.61,538.87L217.97,536.50L217.15,529.03L220.29,524.42L217.51,518.14L221.15,519.96L224.17,517.73L232.69,502.99L220.93,491.81L217.38,492.01L209.17,487.63L204.81,490.82L192.59,487.69L189.96,492.97L186.12,490.91L211.77,457.42L217.29,459.15L218.11,464.68L219.27,463.04L221.20,464.19L222.15,466.78L219.60,468.67L221.33,471.67L218.27,472.08L222.46,472.37L221.43,480.24L235.99,486.33L234.86,487.39L236.07,489.20L233.68,489.18L238.92,497.96L237.30,500.17L237.89,502.54L239.66,501.88L239.62,507.56L242.01,510.12L241.09,513.94L249.76,520.03L254.49,518.97L256.12,525.99L271.09,534.64L271.44,537.09L275.55,536.32L276.92,550.22L281.19,556.34L281.20,559.33L283.60,562.61L288.92,562.81L293.71,567.76L288.36,579.65L285.39,582.04L285.83,585.27L280.10,590.31L279.09,595.37L270.17,598.86L272.14,600.73L273.93,608.85L267.31,621.01L266.91,625.30L263.76,626.52Z"><title>白山市</title></path>
<path data-code="17211" data-name="能美市" d="M191.20,510.56L191.36,507.62L189.92,507.31L192.81,501.55L175.27,505.39L186.12,490.91L193.93,494.70L200.55,492.17L202.25,494.25L224.25,495.70L227.94,497.09L232.69,502.99L228.02,512.71L221.19,519.95L214.51,516.43L212.45,517.99L210.41,513.68L207.65,512.68L205.41,514.44L208.68,510.75L203.10,505.88L194.18,508.95L192.90,507.39L191.20,510.56Z"><title>能美市</title></path>
<path data-code="17212" data-name="野々市市" d="M223.13,481.24L220.72,478.68L222.46,472.37L218.25,470.97L221.33,471.67L219.62,468.20L221.53,468.14L223.41,461.87L225.18,467.04L229.83,464.94L229.89,469.26L232.34,470.11L231.66,472.46L228.01,472.96L227.47,482.64L223.13,481.24Z"><title>野々市市</title></path>
<path data-code="17324" data-name="川北町" d="M195.03,494.24L190.47,492.16L192.59,487.69L204.81,490.82L209.17,487.63L217.38,492.01L220.93,491.81L224.20,495.05L202.25,494.25L200.55,492.17L195.03,494.24Z"><title>川北町</title></path>
<path data-code="17361" data-name="津幡町" d="M265.58,433.14L255.51,428.67L253.96,431.19L248.77,425.20L250.70,422.38L247.73,420.27L250.44,413.11L261.39,410.78L263.97,407.07L263.47,404.88L270.67,397.50L268.62,396.36L270.80,390.92L274.72,392.31L280.79,388.18L284.17,388.56L286.94,384.42L284.70,382.13L288.45,382.90L288.78,388.72L291.99,392.79L290.50,395.47L285.66,397.18L285.07,400.55L278.44,400.92L276.52,404.61L283.88,411.07L282.33,415.93L285.27,416.86L286.16,421.82L279.69,429.90L277.82,435.32L265.58,433.14Z"><title>津幡町</title></path>
<path data-code="17365" data-name="内灘町" d="M230.72,434.74L228.83,432.53L243.11,410.89L248.03,413.17L246.62,415.28L249.68,417.44L242.32,427.99L232.93,437.22L230.72,434.74Z"><title>内灘町</title></path>
<path data-code="17384" data-name="志賀町" d="M271.63,319.08L269.91,311.24L270.95,306.80L263.63,302.19L264.63,296.00L262.86,296.08L261.07,289.23L256.96,285.95L256.63,279.15L259.43,277.64L257.58,276.36L259.90,272.28L259.29,259.35L253.72,254.51L251.68,254.40L251.62,256.35L251.56,254.51L251.62,258.07L244.42,257.97L243.11,254.21L245.14,248.75L244.62,242.22L246.71,238.46L245.99,234.26L250.58,229.85L255.08,228.90L256.15,230.49L254.68,234.41L262.03,235.81L263.80,240.02L271.98,235.93L276.09,230.21L283.70,227.15L286.81,231.37L284.76,233.64L285.66,237.59L280.43,239.93L279.65,245.85L274.34,256.08L275.51,261.35L272.93,264.83L282.47,278.84L290.05,281.69L288.56,285.21L291.47,284.86L292.77,288.52L296.91,291.41L291.11,308.88L291.36,315.41L294.26,318.34L284.59,326.48L278.55,328.11L278.09,325.70L278.68,327.81L279.02,325.55L280.00,327.70L281.93,326.76L280.42,324.63L281.76,322.75L277.89,325.31L278.13,321.11L280.21,319.33L276.42,318.35L278.49,323.16L277.76,325.40L274.20,319.66L271.63,319.08Z"><title>志賀町</title></path>
<path data-code="17386" data-name="宝達志水町" d="M265.15,381.49L265.18,379.23L258.41,379.88L267.80,353.26L275.18,353.73L274.94,350.87L276.97,350.58L276.79,347.60L279.31,344.50L286.97,345.77L289.19,351.51L295.50,350.67L300.00,352.73L296.93,355.28L298.28,358.57L295.27,362.45L296.27,366.19L293.14,371.75L294.61,378.21L291.56,382.51L294.23,386.76L292.12,391.81L289.02,389.37L288.44,382.90L284.71,382.11L286.94,384.42L284.12,387.72L276.65,385.13L273.05,380.95L265.15,381.49Z"><title>宝達志水町</title></path>
<path data-code="17407" data-name="中能登町" d="M300.90,336.10L297.77,328.75L294.23,327.95L294.80,324.67L285.90,328.88L287.56,327.38L286.70,324.19L294.26,318.34L291.36,315.41L291.11,308.88L293.45,304.74L294.20,296.61L299.41,300.66L312.51,300.53L315.14,307.81L322.26,310.94L322.99,312.61L321.14,314.57L324.43,316.39L328.72,314.65L331.38,318.69L327.99,325.96L322.43,321.86L316.08,323.76L311.78,330.68L306.19,332.80L303.43,336.62L300.90,336.10Z"><title>中能登町</title></path>
<path data-code="17461" data-name="穴水町" d="M276.41,228.76L282.95,219.56L281.76,217.19L284.31,213.28L287.91,218.01L287.05,219.92L289.65,221.62L300.39,209.99L305.39,211.57L309.84,208.27L316.60,208.63L332.91,199.77L333.95,201.57L331.53,203.58L334.91,205.33L333.29,207.23L333.55,211.17L336.54,212.19L336.71,215.73L338.66,213.99L339.18,219.04L347.34,219.54L349.41,215.39L351.23,215.36L356.25,218.05L356.71,220.44L358.55,219.90L354.26,225.69L353.84,231.61L351.44,233.94L342.45,235.06L344.73,238.26L342.36,241.04L340.17,239.70L338.32,242.57L330.51,234.87L327.25,236.36L326.08,233.49L325.64,235.49L323.39,233.72L322.52,229.80L320.26,231.01L326.05,224.82L320.78,225.07L319.48,228.21L314.20,224.90L316.44,229.54L312.84,229.51L311.89,227.02L309.18,230.45L313.92,231.68L315.36,235.85L309.19,235.58L311.02,238.66L304.39,247.55L299.56,243.91L294.99,245.39L292.87,237.30L285.32,237.12L284.78,233.54L286.81,231.40L285.46,227.70L278.99,230.17L276.41,228.76Z"><title>穴水町</title></path>
<path data-code="17463" data-name="能登町" d="M325.82,199.47L324.72,198.64L329.87,190.55L327.04,188.29L329.55,184.46L326.32,175.74L335.53,168.36L344.49,169.67L350.93,174.21L353.09,169.11L363.69,171.72L364.58,168.32L367.73,167.74L369.67,164.80L369.18,166.67L372.84,166.56L372.39,170.50L376.30,173.62L375.73,177.16L378.15,179.56L377.09,182.28L401.36,176.15L403.58,177.51L404.73,182.93L409.91,182.47L405.74,187.71L409.43,187.54L409.21,192.63L402.18,200.83L399.61,197.62L400.92,199.81L398.87,199.83L401.29,201.23L399.01,201.48L400.60,203.65L395.30,202.48L394.46,204.02L392.35,203.37L393.37,201.12L389.75,202.53L381.06,200.13L381.29,202.20L378.83,202.80L377.71,199.35L377.19,203.09L378.42,203.48L375.44,202.20L362.80,209.22L360.50,215.04L361.62,217.03L356.77,220.45L356.25,218.05L351.34,215.36L349.41,215.39L347.34,219.54L339.27,219.11L338.66,213.99L336.71,215.73L336.54,212.19L333.55,211.17L333.29,207.23L334.91,205.33L331.50,203.34L333.79,200.47L331.08,199.98L326.42,204.22L327.17,200.62L325.82,199.47Z"><title>能登町</title></path>
  </g>
</svg>
