<?xml version="1.0" encoding="UTF-8"?>
<svg xmlns="http://www.w3.org/2000/svg" viewBox="0 0 560 640" class="pref-muni-svg" role="img" aria-label="自治体境界図">
  <g class="pref-muni-svg__paths" fill="#eaf2fb" stroke="#5b7fa8" stroke-width="0.6" stroke-linejoin="round">
<path data-code="03201" data-name="盛岡市" d="M176.78,295.71L183.13,289.63L181.16,287.40L183.37,289.30L181.32,286.52L186.12,282.42L191.39,286.69L202.11,281.70L200.19,279.97L200.74,275.03L197.29,272.73L205.83,274.50L207.66,267.42L212.77,264.89L210.77,263.93L214.23,258.11L224.73,257.85L224.81,245.91L223.70,243.34L219.63,243.18L221.60,241.93L221.89,238.43L219.48,236.56L215.96,237.47L213.86,230.67L209.44,230.71L208.87,224.21L205.78,217.30L215.59,216.13L220.32,210.04L225.53,208.61L221.94,199.86L229.78,199.31L233.09,207.31L237.38,206.96L239.51,209.20L241.44,207.35L246.85,209.74L253.77,208.60L254.01,211.96L255.71,212.23L256.41,221.51L261.31,224.73L258.98,226.94L259.30,231.21L263.63,229.38L267.34,233.84L273.95,228.05L278.98,228.72L280.94,226.87L287.79,229.01L294.52,226.70L297.49,228.73L300.05,225.77L300.53,216.57L302.89,215.53L310.75,219.13L314.67,216.00L320.99,217.39L320.17,225.83L326.90,241.77L325.58,243.91L318.63,243.51L318.91,248.50L316.26,249.61L311.89,259.20L305.58,258.61L297.25,262.41L293.56,261.20L290.17,265.61L291.21,269.55L289.44,272.24L290.79,275.75L289.60,279.86L293.49,281.92L293.34,286.03L286.94,293.12L279.99,295.52L273.08,304.19L276.44,310.18L289.09,316.09L299.43,325.33L300.95,330.55L299.81,331.91L296.51,332.94L291.69,328.06L282.73,328.52L277.38,331.58L271.97,331.74L268.74,328.88L264.49,330.00L265.28,326.88L258.33,316.87L256.48,318.32L256.99,322.66L253.95,326.40L243.31,317.54L233.61,320.67L228.33,308.23L220.71,307.16L215.37,301.10L206.51,307.14L197.11,307.07L191.11,302.49L192.13,299.91L189.36,297.10L189.45,299.28L183.24,301.79L180.36,296.86L176.78,295.71Z"><title>盛岡市</title></path>
<path data-code="03202" data-name="宮古市" d="M354.44,367.91L350.06,363.55L350.36,360.47L346.72,360.52L345.50,356.97L333.78,346.89L327.16,347.67L319.33,343.06L316.70,335.01L299.01,336.26L296.51,332.94L300.94,330.70L299.47,325.37L289.09,316.09L276.44,310.18L273.08,304.16L279.99,295.52L286.94,293.12L293.34,286.03L298.28,291.47L300.93,291.59L310.06,290.13L318.24,280.55L333.43,281.48L337.78,275.95L342.02,279.46L347.88,279.67L349.23,272.17L353.61,270.27L354.92,262.81L363.17,262.72L370.39,267.53L375.97,263.41L381.76,266.41L385.71,264.15L391.62,271.36L395.79,269.78L404.40,276.41L405.15,273.93L411.65,272.18L414.47,268.57L418.25,269.44L417.91,265.81L428.45,263.31L433.47,256.59L433.87,253.05L429.01,248.91L434.40,246.93L435.32,242.86L441.78,242.94L443.95,238.68L449.72,238.65L453.84,234.94L456.50,235.33L457.92,238.84L455.74,241.18L457.14,247.18L455.69,250.41L461.58,255.20L457.45,258.40L457.11,261.73L461.49,264.37L457.28,266.10L456.22,270.32L452.14,271.63L456.97,274.47L455.36,276.55L456.61,279.36L453.51,280.63L451.04,286.49L456.50,288.39L451.82,300.25L454.57,300.09L455.64,302.40L451.70,302.58L452.51,305.26L450.11,305.99L453.87,309.13L450.69,306.71L452.31,310.15L451.28,312.88L450.18,310.87L450.07,315.56L444.87,321.14L445.68,324.17L448.78,324.62L464.86,299.44L467.67,299.28L468.48,306.16L466.88,306.39L468.33,308.17L466.69,308.77L466.68,313.83L470.10,316.09L467.62,317.03L470.00,320.35L467.84,327.22L469.49,328.30L468.08,328.78L476.31,328.90L476.51,333.97L479.55,333.49L480.04,341.40L478.79,344.03L474.91,344.41L477.78,347.21L476.10,348.27L470.70,344.87L467.72,354.42L463.33,356.34L458.05,349.36L455.11,348.84L452.03,339.99L442.74,337.20L432.18,338.82L423.90,333.02L413.68,338.08L408.69,336.38L390.76,341.53L386.99,346.72L385.95,352.29L379.66,353.92L377.01,358.22L376.24,364.23L381.51,375.99L369.96,378.59L364.17,372.15L361.84,374.07L357.55,372.67L354.44,367.91Z"><title>宮古市</title></path>
<path data-code="03203" data-name="大船渡市" d="M386.60,539.56L388.09,540.93L387.41,544.86L383.58,542.74L382.07,543.99L380.32,540.29L378.64,541.46L379.34,544.34L372.56,532.60L369.51,521.05L370.97,515.17L367.16,514.68L362.52,519.33L355.55,508.80L356.10,505.28L353.81,502.77L354.68,498.48L352.10,495.31L356.14,488.80L356.74,483.04L359.99,480.01L358.63,476.84L361.18,474.37L369.50,474.91L383.60,465.07L384.25,470.59L388.75,475.64L399.53,473.07L408.69,475.14L412.21,473.58L427.76,478.11L438.50,473.17L428.54,482.48L418.00,482.03L413.89,486.55L424.39,491.70L424.72,497.20L432.22,495.55L438.03,501.27L429.98,504.22L426.69,508.80L425.84,505.47L421.43,504.26L420.84,501.45L413.35,501.35L408.58,497.56L406.75,499.24L408.34,504.89L406.30,506.48L410.73,507.97L410.48,511.99L423.59,513.11L425.29,515.78L421.82,517.94L407.97,518.20L408.94,521.51L416.57,524.97L418.91,528.89L403.91,530.68L402.25,528.55L402.80,523.70L398.86,529.56L395.04,526.88L392.22,533.12L388.37,530.44L385.07,531.65L383.51,529.13L386.49,528.30L384.29,527.40L386.49,525.53L385.53,521.01L387.27,520.71L385.26,520.85L386.57,516.30L384.00,513.57L381.83,515.48L382.65,524.63L378.32,530.67L380.96,534.92L381.88,532.54L384.58,533.96L386.60,539.56Z"><title>大船渡市</title></path>
<path data-code="03205" data-name="花巻市" d="M194.83,417.39L195.10,420.13L189.73,415.82L176.61,412.66L170.04,407.85L159.45,408.01L153.80,405.18L150.39,390.87L152.61,381.51L148.96,373.86L151.60,368.81L146.29,366.36L145.53,360.48L143.82,359.85L144.92,357.87L143.68,355.88L146.55,352.71L144.92,349.00L147.63,344.01L156.23,340.34L165.47,344.64L170.11,339.31L179.76,342.68L185.40,347.31L193.24,346.02L197.22,348.07L199.54,345.30L201.44,351.18L204.65,350.86L208.25,353.80L225.76,352.82L225.42,354.33L237.79,360.25L248.31,361.47L251.32,359.81L252.71,362.41L256.37,362.40L261.42,353.02L258.38,349.31L259.88,344.32L258.59,338.64L263.15,330.17L268.74,328.88L271.97,331.74L277.38,331.58L282.73,328.52L291.69,328.06L299.04,336.28L316.02,334.91L317.95,345.29L311.46,344.72L304.54,349.58L303.85,354.74L301.25,357.48L302.03,368.47L288.72,375.94L286.01,381.52L268.98,387.22L265.58,392.21L266.64,394.95L263.10,398.87L262.55,406.92L265.43,410.09L270.45,409.12L270.08,411.52L271.78,412.57L269.43,413.40L269.41,416.21L276.93,424.41L275.83,430.40L282.32,435.89L279.52,443.71L274.31,442.77L269.76,435.89L263.58,438.33L265.18,433.14L260.76,422.89L248.29,424.20L244.73,427.35L241.51,425.09L238.12,426.84L232.59,422.28L228.74,423.24L231.33,420.02L230.29,417.24L231.91,413.52L228.09,407.31L229.52,405.29L225.85,407.55L225.29,402.87L223.52,403.49L225.20,409.35L222.35,411.03L210.59,410.84L203.95,406.55L201.17,407.41L197.67,412.49L194.08,413.25L194.83,417.39Z"><title>花巻市</title></path>
<path data-code="03206" data-name="北上市" d="M137.42,472.99L136.75,469.30L138.45,465.80L136.78,462.61L146.71,453.00L145.02,447.61L143.12,446.83L143.18,443.40L146.09,442.13L145.77,439.85L149.04,435.44L146.46,428.80L148.47,428.07L148.31,424.46L142.47,415.92L141.88,408.60L137.87,405.36L138.12,401.85L134.28,399.63L134.91,394.79L128.73,391.62L126.25,386.27L129.34,383.62L128.39,381.40L133.50,378.49L135.46,381.14L138.98,377.89L144.07,363.19L151.60,368.81L148.96,373.86L152.61,381.51L150.39,390.87L154.30,405.75L159.79,408.06L170.04,407.85L176.61,412.66L189.73,415.82L195.10,420.13L194.08,413.25L197.67,412.49L201.17,407.41L203.95,406.55L210.59,410.84L222.35,411.03L225.20,409.35L223.52,403.49L225.29,402.87L225.85,407.55L229.52,405.29L228.09,407.31L231.91,413.52L230.29,417.24L231.33,420.02L228.73,423.22L232.59,422.28L238.75,427.07L243.99,425.61L245.87,430.11L244.99,431.91L249.95,440.15L241.10,443.65L231.54,438.41L226.41,440.97L223.55,447.45L220.52,445.81L218.00,447.73L218.52,450.88L204.35,455.81L198.84,450.83L200.16,448.50L192.40,448.09L193.99,445.48L192.65,444.57L189.23,445.97L189.26,448.01L186.94,446.12L177.25,452.36L162.25,454.55L159.11,457.43L155.26,467.97L150.27,468.79L144.16,475.20L137.95,474.95L137.42,472.99Z"><title>北上市</title></path>
<path data-code="03207" data-name="久慈市" d="M318.14,142.68L315.32,141.05L314.55,135.44L309.81,134.04L306.83,123.82L312.31,117.92L313.35,110.70L315.63,107.41L314.15,103.69L317.78,100.91L316.71,97.54L319.81,96.18L321.14,91.94L323.75,92.12L325.26,87.10L328.61,89.65L333.57,87.40L339.74,89.29L342.94,87.65L352.69,93.29L360.44,94.62L371.85,93.11L369.07,85.14L383.82,84.02L382.08,82.36L383.84,80.61L384.60,73.53L394.77,73.54L393.84,71.98L397.32,71.18L400.88,64.59L403.25,65.38L408.42,73.41L413.88,93.28L409.39,91.88L407.42,95.24L405.87,94.16L403.49,99.22L407.45,103.63L405.71,100.63L404.33,100.75L404.55,103.67L402.65,101.50L402.18,103.13L418.81,111.29L425.52,120.33L421.60,124.64L409.76,123.34L408.74,130.61L401.07,129.14L397.54,132.81L395.95,132.44L396.27,130.46L387.06,139.04L385.14,145.76L389.13,154.01L392.10,154.79L392.24,158.74L391.75,161.39L386.76,164.61L386.67,167.12L382.10,169.39L379.03,167.66L377.03,169.83L372.78,166.33L363.72,170.22L359.82,165.64L357.51,166.32L353.86,162.95L346.81,163.99L338.60,155.94L328.33,155.97L326.16,152.25L326.25,145.82L323.52,143.23L318.58,144.47L318.14,142.68Z"><title>久慈市</title></path>
<path data-code="03208" data-name="遠野市" d="M285.63,451.58L285.77,448.78L278.82,444.13L281.60,441.18L282.32,435.89L275.83,430.40L276.93,424.41L269.41,416.21L269.43,413.40L271.78,412.57L270.08,411.52L270.45,409.12L265.43,410.09L262.55,406.92L263.10,398.87L266.64,394.95L265.58,392.21L268.98,387.22L286.01,381.52L288.72,375.94L302.03,368.47L301.25,357.48L303.85,354.74L304.54,349.58L311.46,344.72L317.95,345.29L316.02,334.91L319.33,343.06L327.16,347.67L333.78,346.89L345.50,356.97L346.72,360.52L350.36,360.47L350.06,363.55L357.55,372.67L361.84,374.07L364.17,372.15L370.38,378.69L381.51,375.99L381.42,382.84L388.73,386.66L381.23,390.65L373.34,388.39L367.27,391.00L366.28,392.53L367.53,393.68L364.74,396.24L362.72,409.16L364.55,410.73L366.15,418.97L364.45,421.87L374.27,424.26L370.72,431.35L375.46,439.64L374.88,441.84L364.94,447.47L363.92,450.45L357.22,447.13L355.20,449.00L348.37,447.23L345.59,450.30L341.01,444.99L336.69,444.33L330.72,450.39L325.07,448.45L319.87,453.80L318.15,451.69L312.87,453.69L313.26,462.71L303.35,465.88L302.46,469.12L291.38,465.83L292.79,464.92L285.63,451.58Z"><title>遠野市</title></path>
<path data-code="03209" data-name="一関市" d="M154.39,570.23L152.68,566.19L144.47,565.99L128.35,552.73L113.99,554.93L114.37,550.41L111.44,544.92L111.29,539.49L115.43,536.58L117.19,532.34L123.85,534.50L130.26,530.99L133.41,531.83L139.73,522.49L142.83,523.84L148.22,521.14L154.71,534.06L156.45,541.97L173.32,540.70L174.57,543.77L180.00,545.19L182.43,549.43L193.94,552.26L195.38,554.53L196.74,552.51L198.35,553.99L208.90,550.99L209.01,558.04L214.04,555.69L213.90,551.33L217.33,547.73L221.59,548.40L223.84,545.48L230.03,544.51L232.18,539.50L228.06,532.81L230.01,529.55L235.79,527.69L233.98,525.22L236.46,524.92L236.38,520.83L238.73,518.52L245.68,516.25L248.68,513.50L249.39,509.53L251.36,509.95L254.15,506.18L266.66,509.07L263.44,501.91L263.34,491.15L269.89,491.25L273.99,488.68L278.16,491.56L278.58,485.51L285.41,483.59L286.62,480.14L289.29,482.67L288.93,487.94L292.79,489.79L292.59,496.71L294.74,500.10L305.30,500.31L309.06,502.77L308.67,504.76L314.37,511.43L313.41,518.98L310.07,520.77L307.86,525.62L311.74,535.28L309.14,542.96L313.28,545.51L317.43,555.93L315.06,563.12L316.86,571.44L305.33,584.90L305.77,589.94L309.58,592.10L304.97,599.17L307.47,607.75L299.20,608.98L301.16,610.82L300.08,615.95L302.14,618.14L297.02,620.26L297.41,623.19L294.86,624.59L293.61,624.49L295.09,617.93L290.01,616.50L289.15,612.93L285.02,614.30L282.80,610.13L277.54,608.28L272.34,610.32L267.22,604.36L264.55,605.79L263.94,615.27L254.88,613.98L250.81,621.60L250.46,627.19L242.56,630.26L244.83,630.46L243.93,632.00L238.89,631.76L236.47,628.70L236.12,624.06L233.17,621.37L228.95,618.54L225.27,621.21L217.51,617.03L218.17,608.51L212.84,606.80L212.87,603.54L207.45,604.34L207.53,599.18L212.71,599.73L219.38,592.25L217.42,584.46L208.26,584.46L204.29,580.67L199.05,583.74L192.59,582.35L188.45,584.76L183.77,581.20L175.05,585.63L169.63,580.61L166.03,573.24L157.18,568.37L155.94,570.96L154.39,570.23Z"><title>一関市</title></path>
<path data-code="03210" data-name="陸前高田市" d="M309.11,542.69L311.74,535.28L308.01,523.73L313.41,518.98L314.37,511.43L308.63,504.67L309.72,493.69L311.81,493.30L317.33,499.18L323.31,498.71L326.08,504.57L327.99,501.02L332.73,504.43L335.87,498.53L341.53,498.73L346.57,502.50L354.60,498.36L353.81,502.77L356.10,505.28L355.53,508.75L362.03,518.98L367.49,514.53L371.10,515.40L369.29,518.53L372.57,532.67L380.62,546.06L378.34,545.18L374.62,550.59L376.60,552.39L380.72,551.54L383.65,557.06L379.10,557.61L380.12,558.82L376.82,559.73L376.73,562.20L372.59,559.00L372.50,552.55L366.01,546.36L370.36,540.21L366.42,537.39L363.89,539.47L364.09,537.80L361.43,537.05L355.16,538.59L355.60,541.65L353.62,541.79L355.81,541.92L354.39,544.82L356.81,549.12L355.63,550.47L347.89,544.64L340.19,544.22L338.06,541.04L325.67,542.74L324.32,539.06L321.55,538.57L316.31,540.44L314.49,547.57L309.11,542.69Z"><title>陸前高田市</title></path>
<path data-code="03211" data-name="釜石市" d="M389.47,475.69L384.25,470.59L383.81,464.82L379.83,459.60L375.92,459.29L378.86,453.91L377.22,450.20L377.46,442.69L374.90,441.81L375.43,439.48L370.72,431.35L374.27,424.26L364.45,421.87L366.16,419.20L364.55,410.73L362.75,409.51L363.13,402.63L365.04,401.22L364.74,396.24L367.53,393.68L366.28,392.53L367.27,391.00L373.39,388.38L381.23,390.65L387.36,388.86L388.91,396.23L396.93,396.74L401.20,400.46L401.07,403.73L415.54,404.96L417.53,408.18L426.99,413.43L431.94,411.47L436.07,412.62L431.01,417.83L435.98,420.86L438.74,417.54L444.67,418.75L447.89,414.77L453.43,415.96L456.02,411.96L459.47,410.97L454.81,416.22L451.96,424.84L444.97,423.76L442.43,426.64L438.23,425.98L437.14,428.51L433.83,426.13L428.49,428.43L439.36,434.90L438.11,437.21L440.47,440.43L438.51,442.32L436.66,440.14L436.01,441.93L428.88,439.26L430.17,440.38L428.38,441.11L431.43,441.96L432.98,445.48L429.37,448.87L435.93,448.54L435.90,451.41L438.36,452.43L440.14,449.30L441.54,450.88L442.98,448.50L452.23,447.67L444.62,450.91L447.73,457.29L445.56,460.03L442.79,457.58L439.06,457.94L439.91,460.57L433.38,464.40L428.55,462.95L430.32,464.73L429.54,467.01L423.82,463.68L421.95,465.46L424.42,467.07L422.74,469.41L426.68,469.53L429.55,473.15L438.45,471.90L437.01,473.92L427.76,478.11L412.21,473.58L408.69,475.14L399.53,473.07L389.47,475.69Z"><title>釜石市</title></path>
<path data-code="03213" data-name="二戸市" d="M213.23,133.58L208.66,127.97L207.93,122.95L195.45,121.58L185.34,111.65L186.83,106.50L185.51,89.99L189.76,86.22L194.79,85.74L199.51,80.43L207.32,79.30L209.01,77.35L206.13,70.05L216.92,62.94L239.63,57.49L241.80,52.87L251.39,47.73L252.04,44.94L256.87,46.67L260.49,44.14L261.90,39.10L267.17,36.46L269.54,37.47L272.92,41.01L272.26,46.36L277.04,50.37L278.25,63.06L280.73,63.46L285.92,78.79L286.85,86.99L277.43,90.89L269.71,85.63L262.70,84.02L261.38,80.86L256.38,83.77L253.99,80.94L251.35,91.48L247.23,92.90L241.73,99.60L238.88,97.33L236.52,101.33L232.04,103.15L232.56,107.56L229.60,113.54L231.76,125.43L229.15,130.79L224.29,134.31L224.26,139.54L214.14,137.89L213.23,133.58Z"><title>二戸市</title></path>
<path data-code="03214" data-name="八幡平市" d="M142.63,212.38L140.44,209.61L139.89,203.73L136.89,201.15L137.64,190.31L135.02,188.30L134.24,182.21L135.28,170.08L137.22,167.28L135.68,161.51L137.10,156.05L134.01,145.69L142.72,138.37L144.33,131.35L141.55,130.53L142.35,128.17L140.36,124.52L145.06,115.37L140.87,114.57L138.16,110.20L147.62,102.49L146.73,99.53L151.14,91.69L161.25,89.87L161.03,84.89L165.24,82.27L172.13,92.49L185.60,91.98L186.83,106.50L185.29,111.54L187.94,115.52L197.62,122.43L207.93,122.95L208.66,127.97L212.62,131.11L214.14,137.89L219.28,138.04L223.56,141.83L220.33,146.89L220.00,154.39L213.56,157.94L212.56,163.87L214.38,175.21L220.29,184.55L215.29,188.33L214.17,192.88L218.77,195.02L225.56,208.53L220.32,210.04L215.59,216.13L202.39,218.65L200.55,223.49L194.05,221.40L178.26,227.08L178.04,230.43L171.74,230.41L168.58,227.37L160.92,231.70L149.50,229.27L143.44,219.11L142.63,212.38Z"><title>八幡平市</title></path>
<path data-code="03215" data-name="奥州市" d="M177.93,544.20L174.65,543.83L172.18,540.44L159.16,543.11L155.64,541.46L154.71,534.06L148.22,521.14L142.83,523.84L139.73,522.49L133.41,531.83L130.26,530.99L123.85,534.50L117.91,533.15L120.14,528.67L119.62,524.22L124.34,518.52L121.31,517.22L122.12,511.01L113.10,510.65L108.09,507.97L111.06,499.66L109.00,496.20L112.97,494.05L107.68,490.79L107.25,488.10L109.92,486.89L114.14,478.04L116.85,478.94L120.37,474.85L127.99,474.74L130.83,479.08L136.17,474.81L142.21,475.64L147.06,472.97L149.92,476.71L155.09,477.43L176.08,490.22L186.59,491.10L190.07,485.80L202.78,479.66L208.45,472.71L218.21,469.73L213.45,466.90L214.09,458.22L207.28,454.79L218.70,450.76L218.00,447.73L220.52,445.81L223.55,447.45L226.41,440.97L231.54,438.41L241.10,443.65L249.93,440.19L244.50,428.51L248.29,424.20L260.82,422.92L265.18,433.14L263.58,438.33L269.76,435.89L273.23,441.91L285.97,449.08L285.69,453.08L292.79,464.92L283.37,470.25L287.87,472.88L286.51,474.75L287.24,478.69L285.41,483.59L278.58,485.51L278.31,491.46L273.99,488.68L269.89,491.25L263.34,491.15L263.44,501.91L266.66,509.07L254.01,506.24L251.36,509.95L249.39,509.53L248.68,513.50L245.68,516.25L236.63,520.48L236.46,524.92L233.97,525.28L235.72,527.77L223.30,534.96L216.93,531.76L214.03,534.74L211.70,534.26L207.43,529.01L209.23,537.40L190.74,539.00L182.22,544.19L177.93,544.20Z"><title>奥州市</title></path>
<path data-code="03216" data-name="滝沢市" d="M182.54,275.96L181.86,268.71L184.02,259.24L178.88,255.22L180.62,236.70L178.34,232.94L178.26,227.08L194.05,221.40L200.55,223.49L202.29,218.75L205.78,217.30L208.87,224.21L209.44,230.71L213.86,230.67L215.96,237.47L219.48,236.56L221.89,238.43L221.60,241.93L219.63,243.18L223.70,243.34L224.81,245.91L224.77,257.77L214.23,258.11L210.77,263.93L212.77,264.89L207.66,267.42L205.83,274.50L197.74,272.15L200.74,275.03L200.19,279.97L202.11,281.70L192.18,286.42L186.36,282.33L190.35,282.21L184.59,281.13L182.54,275.96Z"><title>滝沢市</title></path>
<path data-code="03301" data-name="雫石町" d="M142.63,340.88L136.90,330.19L137.40,326.47L132.13,321.80L123.53,323.17L120.12,318.55L122.82,315.24L123.45,307.84L127.74,301.34L126.64,290.29L127.82,287.33L124.65,284.63L124.24,280.05L119.88,279.47L114.33,270.33L122.50,266.59L122.95,262.23L135.08,248.81L133.05,244.42L126.66,240.26L121.30,240.21L116.72,235.86L118.39,228.32L116.43,221.47L121.23,216.42L125.86,217.25L128.79,214.73L131.06,216.57L130.62,218.80L136.47,222.24L143.44,219.11L149.50,229.27L156.93,231.12L160.92,231.70L168.58,227.37L171.74,230.41L177.49,229.87L180.62,236.70L178.88,255.22L184.02,259.24L181.86,268.71L182.42,276.52L184.59,281.13L190.38,282.24L186.25,282.36L181.79,285.83L183.37,289.30L181.16,287.40L183.13,289.63L176.59,295.64L180.36,296.86L183.24,301.79L189.45,299.28L188.56,296.93L192.10,299.85L191.05,302.39L193.45,304.22L190.43,308.12L194.01,311.29L191.35,313.92L195.52,320.33L194.81,324.31L189.68,322.81L187.78,328.15L181.01,330.16L169.63,327.06L167.14,332.60L167.64,337.31L170.11,339.31L165.76,344.57L155.39,340.41L147.88,343.78L144.57,349.77L141.04,345.49L143.16,343.06L142.63,340.88Z"><title>雫石町</title></path>
<path data-code="03302" data-name="葛巻町" d="M290.90,210.68L290.08,207.86L291.99,204.05L283.28,193.21L285.42,186.97L284.27,183.80L273.36,182.95L264.48,177.07L264.25,169.19L259.06,161.61L262.34,158.47L259.60,154.91L259.78,151.11L266.22,153.92L271.40,151.20L274.06,152.65L274.97,150.37L280.85,148.13L274.00,138.59L272.85,132.04L275.60,125.68L271.68,126.03L270.79,123.73L281.25,117.36L290.13,117.63L286.62,123.25L291.94,126.43L295.08,133.96L302.30,135.24L308.45,130.19L309.83,134.07L314.55,135.44L315.32,141.05L318.40,144.39L323.52,143.23L326.10,145.64L327.72,160.53L332.77,164.66L344.43,188.97L340.88,196.27L335.92,199.18L337.13,204.39L333.86,208.40L323.81,205.75L320.23,208.52L316.37,208.18L314.12,211.14L315.63,215.32L313.29,218.74L298.15,216.15L291.71,213.52L292.77,210.95L290.90,210.68Z"><title>葛巻町</title></path>
<path data-code="03303" data-name="岩手町" d="M233.14,207.28L231.17,200.34L221.94,199.86L217.29,193.29L214.17,192.88L215.29,188.33L220.29,184.58L214.33,175.06L212.56,163.87L213.56,157.94L219.98,154.42L220.33,146.89L222.80,143.46L232.05,151.17L242.53,151.11L246.71,153.24L249.09,157.68L256.34,157.79L262.42,164.51L261.42,166.39L264.25,169.19L264.48,177.07L273.36,182.95L284.23,183.74L285.42,186.97L283.33,193.41L291.99,204.05L290.07,207.93L292.77,210.95L291.60,213.42L300.45,216.17L300.09,225.60L297.44,228.73L294.52,226.70L287.79,229.01L280.94,226.87L278.98,228.72L272.64,228.37L270.39,232.73L267.31,233.84L263.63,229.38L259.30,231.21L258.98,226.94L261.31,224.73L256.41,221.51L255.71,212.23L254.01,211.96L253.77,208.60L246.85,209.74L242.43,207.33L239.51,209.20L237.38,206.96L233.14,207.28Z"><title>岩手町</title></path>
<path data-code="03321" data-name="紫波町" d="M170.87,339.77L167.64,337.31L167.17,332.99L169.63,327.06L180.80,330.16L186.23,328.80L188.91,327.14L189.68,322.81L194.81,324.31L197.59,318.65L200.86,321.30L203.25,320.15L206.32,327.13L213.22,324.61L212.58,327.01L216.05,328.25L214.18,330.55L219.15,328.86L215.87,327.36L220.77,324.89L225.12,327.38L225.63,325.02L227.01,327.46L233.20,323.09L234.20,319.12L241.46,317.39L245.66,318.56L254.19,326.45L258.33,316.87L265.31,327.02L260.84,332.23L262.12,334.28L258.60,338.59L259.88,344.32L258.38,349.31L261.44,352.95L256.37,362.40L252.71,362.41L251.32,359.81L248.31,361.47L237.79,360.25L225.42,354.33L225.76,352.82L208.25,353.80L204.65,350.86L201.44,351.18L199.54,345.30L197.22,348.07L193.24,346.02L185.40,347.31L179.76,342.68L170.87,339.77Z"><title>紫波町</title></path>
<path data-code="03322" data-name="矢巾町" d="M205.43,326.20L203.19,320.10L194.47,319.64L191.35,313.92L194.01,311.29L190.38,306.35L194.43,304.24L197.11,307.07L206.51,307.14L215.37,301.10L220.71,307.16L228.33,308.23L233.53,319.92L233.20,323.09L227.01,327.46L225.63,325.02L225.12,327.38L220.77,324.89L215.87,327.36L219.15,328.86L214.22,330.55L216.05,328.25L212.58,327.01L212.55,324.20L209.38,327.47L205.43,326.20Z"><title>矢巾町</title></path>
<path data-code="03366" data-name="西和賀町" d="M132.56,478.48L123.66,474.18L120.71,469.94L111.52,467.08L111.01,461.41L113.04,457.68L117.95,456.44L118.24,452.17L107.70,443.24L98.24,439.64L98.10,430.88L91.39,429.75L91.52,422.36L95.52,416.97L94.12,413.63L89.94,412.19L91.15,408.13L86.32,404.56L87.26,399.12L79.96,396.25L82.95,391.61L81.45,387.42L87.46,386.70L89.00,383.91L89.13,379.29L86.65,375.43L88.09,371.98L100.09,363.43L97.04,356.72L99.97,354.68L100.17,349.48L103.89,348.09L104.88,343.04L104.42,339.22L100.96,335.79L101.57,332.43L108.54,330.38L111.24,324.20L115.98,323.19L116.50,318.15L120.46,318.72L123.64,323.20L132.67,321.99L137.40,326.47L136.90,330.19L143.03,341.28L141.13,345.76L146.55,352.71L143.67,355.90L145.35,363.42L143.87,363.40L140.05,371.56L140.99,374.22L138.98,377.89L135.46,381.14L133.50,378.49L128.39,381.40L129.34,383.62L126.25,386.27L128.73,391.62L134.91,394.79L134.28,399.63L138.12,401.85L137.87,405.36L141.88,408.60L142.47,415.92L148.28,424.25L148.47,428.07L146.46,428.80L149.05,435.14L146.09,442.13L143.18,443.40L143.12,446.83L145.02,447.61L146.65,453.18L136.81,462.54L138.45,465.80L136.75,469.30L137.70,474.57L132.56,478.48Z"><title>西和賀町</title></path>
<path data-code="03381" data-name="金ケ崎町" d="M156.75,478.61L149.92,476.71L147.06,472.97L150.27,468.79L155.26,467.97L159.15,457.36L164.78,453.70L166.69,455.06L177.25,452.36L186.94,446.12L189.26,448.01L189.23,445.97L192.61,444.57L193.99,445.48L192.40,448.09L200.16,448.50L198.84,450.83L202.05,454.70L213.69,457.75L213.45,466.90L218.21,469.73L208.45,472.71L202.78,479.66L190.07,485.80L186.63,491.08L183.43,491.99L173.20,488.80L156.75,478.61Z"><title>金ケ崎町</title></path>
<path data-code="03402" data-name="平泉町" d="M179.75,544.96L190.65,539.02L209.23,537.40L207.43,529.01L214.03,534.74L216.93,531.76L223.30,534.96L228.06,532.81L232.18,539.50L230.03,544.51L223.84,545.48L221.59,548.40L217.33,547.73L213.90,551.33L214.04,555.69L209.01,558.04L209.39,551.19L198.35,553.99L196.74,552.51L195.38,554.53L193.94,552.26L182.43,549.43L179.75,544.96Z"><title>平泉町</title></path>
<path data-code="03441" data-name="住田町" d="M319.14,498.89L314.65,497.56L311.65,493.27L309.60,493.92L310.08,499.75L308.61,502.34L302.01,499.08L294.82,500.18L292.59,496.71L292.79,489.79L288.93,487.94L289.29,482.67L286.38,479.66L287.87,472.88L283.37,470.25L292.87,465.66L302.58,469.08L303.35,465.88L313.26,462.71L312.87,453.69L318.15,451.69L319.87,453.80L325.07,448.45L330.72,450.39L336.69,444.33L341.01,444.99L345.59,450.30L348.37,447.23L355.20,449.00L357.22,447.13L363.89,450.46L364.94,447.47L373.11,441.97L377.45,442.63L377.22,450.20L378.86,453.91L375.92,459.29L379.79,459.56L383.81,464.82L369.50,474.91L361.18,474.37L358.63,476.84L359.99,480.01L356.74,483.04L356.14,488.80L352.10,495.31L354.60,498.36L346.57,502.50L341.53,498.73L335.87,498.53L332.73,504.43L327.99,501.02L326.16,504.57L323.41,498.78L319.14,498.89Z"><title>住田町</title></path>
<path data-code="03461" data-name="大槌町" d="M387.36,388.86L388.73,386.73L387.46,384.58L381.42,382.84L381.77,375.44L376.24,364.13L378.56,354.89L385.93,352.31L386.99,346.72L389.24,345.54L398.81,351.07L408.05,364.42L408.73,368.77L415.22,371.06L421.13,379.91L422.17,385.33L426.15,387.08L429.94,392.97L440.65,390.55L446.92,393.00L443.25,400.13L445.77,403.79L450.31,400.73L451.28,402.79L447.88,406.78L448.31,409.11L445.05,411.14L440.98,412.18L441.45,410.68L436.62,409.06L436.43,412.88L432.09,411.46L427.43,413.53L417.53,408.18L415.54,404.96L401.07,403.73L401.20,400.46L396.93,396.74L388.91,396.23L387.36,388.86Z"><title>大槌町</title></path>
<path data-code="03482" data-name="山田町" d="M425.05,387.00L422.17,385.33L421.13,379.91L415.22,371.06L408.73,368.77L408.05,364.42L398.81,351.07L389.80,346.32L390.76,341.53L408.69,336.38L413.68,338.08L423.90,333.02L432.18,338.82L444.51,337.40L452.07,340.01L455.11,348.84L458.05,349.36L463.96,357.05L463.47,364.85L457.86,362.23L447.78,365.61L447.29,368.53L449.59,371.13L448.31,372.13L449.74,375.43L452.23,375.09L452.79,378.26L454.72,378.77L458.97,373.77L461.71,376.37L460.85,372.81L462.86,369.17L470.44,362.36L474.66,361.90L475.18,365.59L477.73,366.76L474.25,374.35L471.18,375.91L472.50,378.10L470.90,379.93L472.96,383.40L469.24,387.19L463.83,383.14L461.86,389.12L455.38,389.81L456.25,386.44L453.65,383.00L447.10,393.18L440.65,390.55L431.16,393.36L425.05,387.00Z"><title>山田町</title></path>
<path data-code="03483" data-name="岩泉町" d="M290.17,265.61L293.73,261.10L297.25,262.41L305.58,258.61L311.97,259.16L316.26,249.61L318.91,248.50L318.63,243.51L325.58,243.91L326.90,241.77L320.17,225.83L320.99,217.39L314.67,216.00L314.12,211.14L316.32,208.20L320.23,208.52L323.75,205.75L333.70,208.54L337.13,204.39L335.92,199.18L340.88,196.27L344.44,189.08L332.77,164.66L327.72,160.53L327.04,158.12L330.45,155.40L338.60,155.94L346.81,163.99L353.86,162.95L357.51,166.32L359.82,165.64L363.72,170.22L372.78,166.33L377.03,169.83L379.03,167.66L382.10,169.39L391.49,161.34L392.82,163.95L406.84,167.80L402.46,172.64L404.19,180.52L399.26,191.96L399.77,197.48L395.75,210.76L406.69,211.89L411.32,208.98L412.73,215.95L415.79,219.71L425.51,224.39L428.61,223.14L426.80,219.70L429.94,225.12L436.78,223.96L448.96,214.28L452.21,215.32L454.43,222.46L453.21,224.55L454.25,227.45L452.66,227.48L455.05,231.68L453.10,237.20L443.95,238.68L441.64,242.98L435.32,242.86L434.40,246.93L429.01,248.91L433.87,253.05L433.47,256.59L428.45,263.31L417.91,265.81L418.25,269.44L414.47,268.57L411.65,272.18L405.15,273.93L404.40,276.41L395.79,269.78L391.62,271.36L385.71,264.15L381.76,266.41L375.97,263.41L370.39,267.53L363.17,262.72L354.92,262.81L353.61,270.27L349.23,272.17L347.88,279.67L342.02,279.46L337.78,275.95L333.43,281.48L318.24,280.55L310.06,290.13L298.64,291.59L293.34,286.03L293.49,281.92L289.60,279.86L290.79,275.75L289.44,272.24L291.40,267.64L290.17,265.61Z"><title>岩泉町</title></path>
<path data-code="03484" data-name="田野畑村" d="M424.85,223.71L415.79,219.71L412.73,215.95L411.32,208.98L406.69,211.89L395.75,210.76L399.77,197.48L399.26,191.96L401.96,188.26L402.97,182.24L414.31,183.73L416.43,180.87L417.36,183.30L423.99,180.49L425.79,187.11L433.40,181.78L439.83,182.11L441.66,178.38L446.30,176.55L448.24,180.59L448.17,189.68L449.95,190.13L448.44,191.23L449.20,193.32L444.89,192.84L442.91,197.92L444.32,199.03L443.33,202.50L448.96,214.28L436.70,224.00L429.94,225.12L426.80,219.70L428.52,223.31L424.85,223.71Z"><title>田野畑村</title></path>
<path data-code="03485" data-name="普代村" d="M424.04,181.04L417.36,183.30L416.43,180.87L414.31,183.73L403.63,181.45L404.24,177.57L402.06,174.49L404.41,170.25L413.85,165.41L416.00,159.16L414.96,158.21L419.49,152.61L425.95,155.59L434.12,169.67L442.08,169.48L445.80,176.93L441.66,178.38L439.83,182.11L433.40,181.78L425.79,187.11L424.04,181.04Z"><title>普代村</title></path>
<path data-code="03501" data-name="軽米町" d="M307.32,82.52L305.82,76.68L303.13,76.37L301.99,70.49L297.23,72.31L296.44,70.25L291.87,70.19L283.45,73.78L280.70,63.39L278.25,63.06L277.06,51.68L285.69,47.63L290.12,38.42L292.91,42.14L298.60,40.42L302.68,35.20L313.49,35.09L324.27,44.07L329.25,45.71L342.11,36.01L344.44,40.66L351.01,41.79L347.73,43.92L347.10,46.99L343.45,47.61L342.71,53.79L339.07,55.68L342.79,58.92L341.14,63.29L344.51,65.25L342.25,68.89L343.28,71.21L350.62,74.28L350.39,83.50L342.67,84.94L343.03,87.55L340.43,89.27L333.57,87.40L328.61,89.65L325.41,87.03L323.55,92.19L307.32,82.52Z"><title>軽米町</title></path>
<path data-code="03503" data-name="野田村" d="M386.31,149.11L385.13,143.53L387.02,139.08L396.11,130.57L397.54,132.81L401.07,129.14L408.74,130.61L408.33,126.89L410.49,123.08L415.92,125.14L411.11,135.89L413.30,145.76L419.38,152.66L414.96,158.21L416.00,159.16L413.57,165.69L407.37,168.36L392.75,163.91L392.15,154.89L389.13,154.01L386.31,149.11Z"><title>野田村</title></path>
<path data-code="03506" data-name="九戸村" d="M313.45,111.94L311.17,120.74L306.98,123.22L308.45,130.19L302.30,135.24L294.44,133.49L291.94,126.43L286.61,123.19L291.46,114.19L286.26,101.96L288.64,92.69L283.45,73.78L291.87,70.19L296.44,70.25L297.23,72.31L301.99,70.49L303.13,76.37L305.21,76.13L307.31,79.71L307.55,84.10L321.09,91.39L319.81,96.18L316.71,97.54L317.20,102.27L314.15,103.69L315.63,107.41L313.45,111.94Z"><title>九戸村</title></path>
<path data-code="03507" data-name="洋野町" d="M342.53,85.24L350.48,83.38L350.63,74.35L343.28,71.21L342.25,68.89L344.51,65.25L341.14,63.29L342.80,58.97L339.10,55.45L342.64,53.92L343.45,47.61L347.10,46.99L347.73,43.92L351.01,41.79L344.44,40.66L342.82,38.03L342.12,26.87L346.00,21.97L362.90,15.94L370.71,8.00L377.14,18.32L379.77,18.88L383.80,30.45L390.94,37.72L391.13,42.93L395.15,44.98L393.69,45.57L396.14,47.47L396.55,55.12L399.85,57.84L402.57,64.26L398.36,66.72L397.26,71.23L393.84,71.98L394.75,73.56L384.60,73.53L383.84,80.61L382.08,82.36L383.82,84.02L369.07,85.14L371.85,93.11L352.69,93.29L343.05,87.91L342.53,85.24Z"><title>洋野町</title></path>
<path data-code="03524" data-name="一戸町" d="M248.53,156.98L246.71,153.24L242.53,151.11L231.37,150.84L222.80,143.46L224.29,134.31L229.15,130.79L231.76,125.43L229.60,113.54L232.56,107.56L232.04,103.15L236.52,101.33L238.88,97.33L241.73,99.60L247.23,92.90L251.35,91.48L254.04,80.91L256.38,83.77L261.38,80.86L262.70,84.02L269.71,85.63L277.43,90.89L286.85,86.99L288.61,94.63L286.24,101.90L287.94,108.77L290.91,112.16L290.99,116.09L280.88,117.48L270.79,123.73L271.68,126.03L275.60,125.68L272.85,132.04L274.00,138.59L280.85,148.13L274.97,150.37L274.06,152.65L271.40,151.20L266.22,153.92L259.78,151.11L259.60,154.91L262.34,158.47L259.06,161.61L256.22,157.73L248.53,156.98Z"><title>一戸町</title></path>
  </g>
</svg>
