<?xml version="1.0" encoding="UTF-8"?>
<svg xmlns="http://www.w3.org/2000/svg" viewBox="0 0 560 640" class="pref-muni-svg" role="img" aria-label="自治体境界図">
  <g class="pref-muni-svg__paths" fill="#eaf2fb" stroke="#5b7fa8" stroke-width="0.6" stroke-linejoin="round">
<path data-code="46201" data-name="鹿児島市" d="M357.85,123.00L358.82,125.20L360.24,126.42L356.25,127.72L354.49,125.62L354.47,124.27L353.46,123.23L351.84,123.09L350.73,121.81L351.10,119.96L352.19,119.23L352.69,116.01L352.48,114.73L351.11,113.84L351.31,113.23L350.30,112.18L349.95,107.94L348.78,108.28L346.64,107.37L344.72,103.74L346.32,102.18L346.22,99.73L344.27,98.74L342.52,95.71L341.72,95.71L340.00,93.98L341.54,91.90L342.72,92.25L344.24,90.93L343.48,89.60L343.85,88.83L345.21,87.91L348.28,88.33L348.63,87.27L347.37,85.08L345.69,85.03L345.74,81.80L345.18,82.04L344.94,80.11L343.45,79.83L343.44,78.54L342.67,77.75L344.73,75.92L346.95,75.44L351.43,77.03L352.23,76.27L351.76,74.53L354.83,73.57L360.14,74.79L360.44,76.44L359.14,76.37L359.04,77.30L358.05,77.53L358.29,78.74L361.77,80.94L361.69,82.29L363.03,82.94L363.89,84.55L362.49,85.66L362.05,87.86L359.55,89.52L358.99,91.38L358.05,91.87L358.55,92.58L358.05,93.22L358.27,92.74L358.87,93.49L358.26,93.72L358.90,93.67L358.04,97.09L357.64,97.85L356.48,97.52L356.58,98.65L355.41,99.39L355.85,99.20L355.61,100.01L356.31,99.39L355.15,102.70L353.80,102.24L353.59,102.83L355.46,103.10L354.83,105.19L353.01,104.42L353.63,104.79L352.97,105.84L353.58,106.70L354.97,106.88L356.29,105.82L355.08,106.46L354.91,107.78L353.02,107.17L352.93,107.77L354.22,113.95L355.48,116.15L356.74,115.55L357.58,116.78L356.52,117.53L355.88,116.91L356.94,117.78L356.34,118.14L357.85,123.00ZM364.42,97.06L363.14,95.99L362.73,94.55L361.04,93.78L360.94,92.86L362.50,91.85L364.38,89.21L369.97,88.07L370.56,89.02L371.84,88.68L373.87,91.22L373.09,91.56L374.06,92.60L372.95,93.64L373.77,94.55L373.16,95.40L374.55,96.02L370.59,97.07L370.91,97.55L370.06,98.14L369.65,96.97L369.33,97.61L368.56,97.03L365.88,98.01L364.90,96.72L364.42,97.06Z"><title>鹿児島市</title></path>
<path data-code="46203" data-name="鹿屋市" d="M395.55,135.28L394.30,135.09L392.55,132.59L391.50,132.89L389.98,130.50L388.60,130.22L389.36,128.00L388.68,127.06L383.54,125.73L382.82,126.99L381.50,127.38L382.71,122.65L380.10,118.49L380.41,117.95L379.33,116.56L379.06,114.75L378.39,114.70L378.92,114.48L378.16,112.68L380.28,111.24L381.70,111.55L384.26,106.01L383.64,103.42L381.76,102.03L383.11,100.00L382.52,99.70L382.70,98.67L384.06,97.89L383.61,96.46L384.32,95.66L384.21,93.38L385.20,92.05L384.76,90.98L387.23,90.48L388.11,89.54L391.61,91.69L394.01,95.05L395.63,96.00L394.30,98.28L394.40,100.82L395.08,101.99L394.19,103.06L392.87,103.06L392.71,105.12L394.27,107.12L397.26,107.55L398.41,110.67L398.00,112.94L398.74,114.17L398.93,117.37L400.01,117.45L399.28,118.12L399.69,118.90L398.89,119.13L399.18,119.52L398.69,118.92L397.91,119.73L397.35,119.10L397.09,119.84L395.63,120.03L393.42,118.36L393.44,116.30L392.16,115.58L392.34,118.28L394.10,120.02L394.35,124.93L395.77,128.44L395.17,129.26L396.58,133.47L395.55,135.28Z"><title>鹿屋市</title></path>
<path data-code="46204" data-name="枕崎市" d="M325.66,125.40L327.89,125.23L331.31,122.25L334.32,125.85L337.54,125.50L338.30,124.63L338.91,125.97L337.53,127.42L338.14,132.61L333.04,132.11L331.89,130.85L330.31,131.80L330.81,130.73L329.87,130.52L330.55,130.85L329.90,130.90L330.40,131.49L329.48,130.77L328.80,133.32L327.23,132.10L326.26,130.19L327.71,127.79L325.25,126.34L325.66,125.40Z"><title>枕崎市</title></path>
<path data-code="46206" data-name="阿久根市" d="M323.01,52.77L322.11,48.53L320.62,46.52L321.23,46.35L320.64,45.43L319.93,45.95L319.53,44.82L318.10,45.31L319.05,45.23L318.68,42.61L319.76,41.96L320.14,42.46L319.44,41.18L320.15,41.87L320.22,41.17L319.60,41.12L321.20,39.82L321.59,37.00L320.77,35.27L319.89,35.18L320.12,34.39L318.89,34.97L319.19,35.99L317.87,34.79L318.86,31.35L323.67,29.15L324.29,29.32L324.13,31.34L323.36,32.24L324.60,34.52L324.19,36.11L326.10,37.54L325.51,41.18L330.82,44.14L330.88,45.47L332.37,47.05L330.71,49.97L329.76,50.06L327.71,48.26L327.85,51.74L327.31,52.82L325.13,52.20L323.01,52.77Z"><title>阿久根市</title></path>
<path data-code="46208" data-name="出水市" d="M332.54,46.93L330.88,45.47L330.82,44.14L325.51,41.18L326.10,37.53L324.19,36.11L324.60,34.52L323.36,32.24L324.13,31.34L324.27,29.23L327.17,29.57L327.38,30.30L327.21,29.31L328.10,29.22L328.18,30.57L329.44,31.39L332.08,31.60L332.62,30.63L334.37,29.92L333.92,29.55L334.90,29.62L335.34,28.73L335.46,29.37L335.93,28.78L335.45,28.57L336.48,28.34L337.59,26.40L337.31,24.41L339.99,26.96L341.63,30.17L346.87,31.03L349.13,29.92L350.02,30.38L349.80,31.21L350.99,32.00L350.85,32.92L352.32,34.33L352.99,36.73L352.14,36.71L349.48,40.54L347.63,40.89L347.20,43.26L346.15,43.69L344.45,42.88L343.01,43.41L342.27,45.16L338.05,45.74L338.04,46.61L336.62,46.38L336.49,47.35L335.52,47.83L332.54,46.93Z"><title>出水市</title></path>
<path data-code="46210" data-name="指宿市" d="M355.56,142.66L353.84,142.93L352.24,141.30L352.43,139.52L353.22,138.93L352.49,137.15L354.75,135.74L356.13,131.04L355.28,128.48L355.60,127.55L358.93,127.29L360.47,126.42L361.58,127.71L362.45,127.56L364.33,129.89L368.80,130.78L366.98,133.48L367.74,136.40L364.91,137.46L365.14,138.63L365.59,137.52L366.81,138.33L365.42,140.49L361.35,141.17L360.62,142.42L361.54,143.27L360.96,143.13L360.53,144.01L357.77,141.39L355.56,142.66ZM369.42,130.02L369.73,129.24L370.24,129.54L369.42,130.02Z"><title>指宿市</title></path>
<path data-code="46213" data-name="西之表市" d="M397.68,205.29L396.89,203.82L397.50,201.79L396.80,201.65L396.88,200.96L398.65,199.30L400.67,194.70L402.20,194.66L402.22,193.94L401.55,194.14L402.28,193.72L401.75,193.17L402.80,192.33L403.79,189.99L403.15,187.70L406.03,184.40L406.20,183.06L407.63,183.03L408.68,181.22L409.62,184.49L410.31,184.46L410.19,186.21L411.10,186.60L411.41,187.94L410.23,190.20L410.92,198.14L409.51,198.94L407.97,203.60L408.89,204.69L408.27,206.13L408.51,208.94L407.78,210.10L405.83,210.96L404.98,209.77L401.36,207.76L401.62,206.83L400.76,206.10L400.72,204.42L397.68,205.29ZM388.78,191.81L389.34,192.92L388.60,194.58L386.10,194.45L386.58,191.80L388.23,189.96L388.78,191.81Z"><title>西之表市</title></path>
<path data-code="46214" data-name="垂水市" d="M378.26,113.17L375.35,109.14L372.42,108.32L371.67,105.95L370.91,105.92L370.71,105.32L371.21,105.91L371.33,105.02L370.75,105.15L371.92,104.01L371.87,99.81L372.84,99.22L371.94,96.75L378.97,95.84L381.08,93.19L380.93,91.26L381.95,90.00L382.47,87.77L383.84,88.43L383.50,90.16L385.22,91.80L384.21,93.38L384.23,96.06L383.61,96.46L384.06,97.89L382.70,98.67L382.52,99.70L383.11,100.00L381.76,102.03L383.64,103.42L384.26,106.01L381.70,111.55L379.60,111.55L378.26,113.17Z"><title>垂水市</title></path>
<path data-code="46215" data-name="薩摩川内市" d="M272.26,83.68L273.54,84.91L270.80,87.60L271.30,87.73L270.98,88.98L270.33,87.13L269.37,87.54L269.41,88.72L268.44,89.03L267.66,87.63L265.99,87.51L265.31,84.56L267.78,84.16L267.20,83.65L268.92,80.63L268.39,79.37L269.83,78.90L269.28,77.80L270.91,76.54L274.60,75.25L275.34,75.66L276.45,74.56L277.41,74.85L277.88,73.62L277.35,72.81L278.10,72.91L278.74,71.61L277.89,70.87L278.49,70.18L277.97,69.09L280.06,69.67L280.35,70.10L279.15,70.68L279.47,70.35L279.95,72.47L279.06,72.55L278.74,73.78L277.64,74.52L276.66,78.22L275.58,78.55L275.37,77.70L274.51,77.74L273.50,79.34L274.12,81.22L272.52,82.57L272.26,83.68ZM281.54,70.23L281.00,68.02L281.79,67.72L281.99,66.26L283.93,65.70L284.25,66.45L283.55,67.31L284.45,68.12L282.41,69.17L283.20,69.89L282.89,70.84L281.54,70.23ZM286.38,64.01L285.86,63.49L284.51,64.41L284.86,62.91L284.09,61.69L285.93,61.80L286.56,60.92L285.26,61.58L284.27,61.19L284.38,59.65L283.28,61.72L283.48,63.50L282.01,62.80L281.60,60.65L283.49,58.25L286.22,58.63L288.21,61.18L291.20,62.88L292.03,61.85L290.95,61.30L291.22,60.43L290.62,59.89L294.18,59.79L292.51,60.45L293.30,62.02L292.10,62.70L293.31,63.57L292.70,65.64L292.05,65.95L290.51,65.00L289.93,66.44L288.40,66.68L287.23,67.85L287.38,65.53L285.44,65.01L286.38,64.01ZM338.80,74.99L337.49,74.71L336.57,72.92L333.58,74.01L332.33,72.23L329.44,73.21L326.16,70.68L324.95,70.61L324.50,69.38L320.64,69.08L318.79,70.46L317.45,68.95L318.15,65.98L319.47,64.26L318.92,64.02L319.58,63.65L318.77,63.91L319.69,63.61L320.61,62.00L319.05,61.42L320.61,61.98L320.04,61.03L320.67,60.67L320.35,60.06L321.05,60.39L320.98,59.66L321.82,59.52L323.03,56.67L322.91,52.78L325.13,52.20L327.33,52.81L327.85,51.74L327.71,48.25L329.76,50.06L330.76,49.95L332.58,46.90L335.51,47.84L335.73,48.60L334.96,49.09L335.73,49.55L335.42,50.85L336.02,51.97L339.09,53.05L341.52,55.69L341.32,60.76L342.91,62.77L346.38,63.39L347.17,65.67L348.03,64.70L348.17,62.87L347.51,61.49L348.38,61.31L348.11,59.91L349.16,57.01L352.37,57.29L352.57,55.73L355.07,56.86L358.69,56.86L359.49,58.11L360.78,58.52L359.26,61.20L357.20,61.30L355.09,63.25L355.21,63.97L354.12,64.26L353.80,66.46L353.13,66.90L353.50,67.95L351.76,68.96L351.93,72.60L349.90,74.07L348.92,76.19L346.98,75.44L344.73,75.92L342.86,77.80L342.52,75.95L339.11,76.13L338.80,74.99Z"><title>薩摩川内市</title></path>
<path data-code="46216" data-name="日置市" d="M332.48,104.44L334.18,98.61L334.69,94.01L334.10,88.12L333.22,85.51L332.56,85.33L333.20,85.50L332.61,85.26L332.69,84.15L333.58,83.47L334.19,80.08L338.95,78.81L339.11,76.13L342.51,75.95L343.45,79.83L344.94,80.11L345.18,82.04L345.74,81.80L345.67,84.99L347.37,85.08L348.63,87.26L348.28,88.33L345.21,87.91L343.85,88.83L343.48,89.60L344.24,90.93L342.72,92.25L341.54,91.90L340.00,93.98L341.72,95.71L342.52,95.71L344.27,98.74L346.22,99.73L346.32,102.18L344.73,103.69L344.77,104.43L339.97,106.28L336.96,106.18L336.01,105.02L332.48,104.44Z"><title>日置市</title></path>
<path data-code="46217" data-name="曽於市" d="M398.26,98.92L397.70,99.28L396.37,98.45L395.28,97.31L395.63,96.00L392.38,93.30L392.05,92.13L387.98,89.60L388.55,88.34L388.96,89.07L390.93,88.85L390.42,86.07L389.09,85.40L389.42,83.80L392.89,84.44L393.76,83.65L392.46,79.94L392.49,76.16L391.32,75.55L392.71,73.58L390.00,71.58L390.52,70.78L390.09,69.35L391.29,67.14L392.75,67.83L394.35,67.44L395.78,69.63L399.93,69.76L401.84,70.56L402.01,71.35L401.10,71.79L400.66,73.66L404.59,74.16L404.20,78.19L405.86,80.11L405.29,80.71L405.49,83.65L407.44,85.12L408.44,87.60L410.99,84.44L415.97,88.42L418.27,88.00L419.70,86.89L420.30,87.44L418.85,90.10L415.58,90.81L415.37,91.99L414.06,92.74L405.93,90.50L404.37,92.31L406.92,94.87L406.84,95.73L404.80,96.99L405.31,98.77L403.16,99.90L402.86,99.09L401.29,98.47L399.55,98.69L399.71,99.72L398.83,99.71L399.06,98.60L398.26,98.92Z"><title>曽於市</title></path>
<path data-code="46218" data-name="霧島市" d="M383.22,88.12L382.47,87.77L384.25,86.22L384.73,84.47L383.53,81.69L381.99,81.06L382.01,79.64L375.62,78.87L374.86,77.85L375.27,76.86L374.70,77.68L373.88,76.45L372.70,76.76L371.05,75.65L369.26,76.44L371.05,73.32L372.20,74.03L373.08,73.13L373.41,73.97L374.49,72.77L370.94,72.34L372.22,70.99L371.20,70.97L371.74,68.72L367.68,67.66L365.60,65.12L365.52,62.51L364.54,60.20L363.30,60.10L362.51,58.74L360.78,58.52L363.84,57.39L362.64,56.18L364.14,53.61L365.22,53.79L365.67,53.08L368.13,53.84L369.67,52.92L374.57,54.94L375.08,55.74L380.48,52.66L386.60,51.11L390.81,53.66L392.31,57.59L394.05,57.83L392.07,58.72L391.42,62.22L390.05,62.91L390.77,64.20L390.24,66.08L391.03,67.31L390.09,69.35L390.52,70.78L390.00,71.58L392.71,73.58L391.32,75.55L392.60,76.55L392.46,79.94L393.69,84.08L389.42,83.80L389.09,85.40L390.42,86.07L390.91,88.91L388.96,89.07L388.55,88.34L387.23,90.48L384.76,90.98L383.70,90.50L383.29,89.41L383.98,89.34L383.85,88.45L383.22,88.12Z"><title>霧島市</title></path>
<path data-code="46219" data-name="いちき串木野市" d="M332.73,84.13L332.59,84.66L330.97,84.33L330.58,82.25L328.59,79.12L326.20,78.55L327.30,78.77L327.37,77.98L326.89,78.53L326.62,77.82L326.47,78.44L327.07,77.30L325.97,77.53L326.51,77.22L326.04,76.01L324.51,75.62L322.04,73.13L319.74,74.27L318.71,70.47L320.64,69.08L324.50,69.38L324.95,70.61L326.16,70.68L329.44,73.21L332.33,72.23L333.58,74.01L336.57,72.92L337.49,74.71L339.07,75.01L338.99,78.78L334.19,80.08L333.58,83.47L332.73,84.13Z"><title>いちき串木野市</title></path>
<path data-code="46220" data-name="南さつま市" d="M242.26,141.36L243.34,140.27L243.50,138.80L244.25,138.80L243.64,140.15L243.93,141.39L242.26,141.36ZM246.43,138.75L245.89,138.21L246.27,137.36L246.62,139.33L246.43,138.75ZM322.61,132.83L322.30,131.50L323.86,130.70L322.32,130.02L323.30,129.98L323.87,129.12L322.39,129.00L322.47,128.11L320.91,129.00L320.75,127.52L322.56,126.53L323.10,127.07L323.47,125.91L322.56,125.86L322.32,124.44L321.60,124.35L321.44,125.27L318.11,124.10L318.90,123.29L321.31,122.84L321.85,121.32L321.10,121.06L320.88,120.02L319.79,120.44L319.73,118.90L318.27,119.10L317.16,118.12L313.84,113.73L312.59,113.16L311.43,114.08L311.59,112.58L312.89,112.37L314.23,113.60L316.73,110.39L317.88,112.74L318.93,112.42L319.49,113.92L319.95,112.83L319.47,112.11L320.11,111.65L320.15,114.12L323.48,115.25L324.27,113.99L326.11,113.06L326.09,113.71L326.47,111.86L326.39,113.01L326.97,112.80L326.52,111.97L326.50,112.67L328.19,111.97L330.00,109.68L332.44,104.42L336.01,105.02L336.96,106.18L337.34,105.72L339.88,106.28L343.08,104.66L345.54,104.60L346.07,106.20L343.60,107.33L342.35,109.95L339.63,112.58L339.41,113.71L337.28,113.71L335.29,115.90L334.75,116.82L335.08,118.98L334.01,120.25L333.90,121.57L332.30,122.79L330.74,122.47L327.23,125.56L325.59,125.48L325.25,126.34L327.71,127.77L326.11,129.67L327.23,132.10L325.25,132.64L324.65,131.70L322.61,132.83ZM316.86,120.74L316.61,120.31L317.72,119.33L317.42,120.64L316.86,120.74Z"><title>南さつま市</title></path>
<path data-code="46221" data-name="志布志市" d="M399.23,106.44L399.95,103.68L399.69,102.98L398.40,102.98L400.37,102.18L399.97,100.83L400.50,100.40L399.85,99.87L400.23,98.67L401.31,98.48L403.92,99.78L405.55,98.36L404.80,97.93L404.90,96.85L406.88,95.68L406.77,94.57L404.37,92.41L405.93,90.50L414.06,92.74L415.37,91.99L415.58,90.81L418.85,90.10L420.28,87.59L422.17,88.63L421.98,90.93L423.92,93.91L423.33,95.78L422.23,96.55L423.05,97.50L423.44,101.24L420.29,103.35L419.30,107.84L417.67,107.09L417.02,107.97L416.90,107.21L415.27,106.33L414.39,106.44L414.02,107.38L414.00,106.13L413.30,107.52L412.95,107.12L412.83,108.25L411.51,108.11L412.22,109.40L411.58,109.49L410.88,108.27L408.03,109.92L408.45,108.52L406.19,108.03L404.94,106.56L402.98,108.84L399.23,106.44ZM395.45,102.35L396.62,101.54L396.26,102.81L395.45,102.35ZM399.05,99.19L398.83,99.71L398.13,99.21L398.46,98.56L399.26,98.74L399.05,99.19Z"><title>志布志市</title></path>
<path data-code="46222" data-name="奄美市" d="M233.09,488.12L234.42,485.98L234.15,485.41L236.75,484.32L234.81,482.71L234.82,481.60L238.74,479.94L239.35,480.32L239.28,478.11L239.81,477.69L242.41,477.62L241.15,472.36L238.33,470.69L239.36,471.10L241.48,470.29L243.63,471.39L244.63,467.71L245.38,467.41L246.13,468.09L245.71,468.81L247.01,469.03L248.08,467.51L249.17,469.12L248.52,470.95L249.03,471.11L249.90,469.12L251.45,468.93L250.22,467.75L251.04,465.96L250.98,464.19L253.45,462.13L254.25,464.49L253.46,468.44L255.00,468.21L254.94,469.27L254.48,471.12L251.35,474.49L253.53,475.70L256.00,475.21L256.44,475.54L255.83,476.66L252.54,477.60L253.70,479.40L252.98,480.08L249.10,481.04L247.64,482.14L244.78,481.36L244.44,483.52L244.99,484.64L243.68,485.63L243.23,487.25L239.58,486.81L243.85,489.63L244.12,488.74L244.66,488.85L246.27,490.19L246.60,491.57L245.38,491.11L244.12,492.15L244.10,493.19L242.42,492.73L241.93,493.41L240.46,491.04L239.40,491.20L239.14,490.50L236.88,491.11L235.89,492.16L233.09,488.12ZM269.30,467.08L266.61,467.87L265.96,469.34L262.82,468.32L264.21,468.04L263.80,465.22L264.68,466.45L265.35,465.57L264.29,463.29L264.26,461.01L264.86,461.04L266.02,464.38L266.80,464.04L266.11,463.44L266.88,462.22L266.70,461.03L265.13,459.41L264.11,456.93L265.44,457.20L267.17,454.07L268.54,453.61L268.96,458.38L270.02,460.01L271.55,460.21L271.87,462.20L270.50,464.86L271.54,464.26L270.66,466.44L270.17,466.36L270.46,465.55L269.30,467.08Z"><title>奄美市</title></path>
<path data-code="46223" data-name="南九州市" d="M352.95,136.76L352.49,137.15L350.20,134.35L347.45,132.68L345.00,132.42L344.87,133.32L341.58,132.26L341.50,132.79L340.45,132.17L340.28,132.71L338.14,132.61L337.53,127.42L338.91,125.97L338.31,124.64L337.54,125.50L334.32,125.85L332.30,122.79L333.90,121.57L334.01,120.25L335.01,119.21L334.75,116.80L335.31,115.88L337.28,113.71L339.41,113.71L339.63,112.58L342.35,109.95L343.60,107.33L345.75,106.20L347.30,107.79L349.95,107.94L350.30,112.18L351.31,113.23L351.11,113.84L352.48,114.73L352.69,116.01L352.19,119.23L351.10,119.96L350.60,121.51L351.84,123.09L353.46,123.23L354.47,124.27L354.49,125.62L355.67,127.15L355.28,128.48L356.13,131.02L354.82,134.10L354.91,135.39L352.95,136.76Z"><title>南九州市</title></path>
<path data-code="46224" data-name="伊佐市" d="M355.01,44.67L355.72,43.65L354.62,42.91L351.49,44.33L349.32,40.63L352.14,36.71L352.99,36.72L352.32,34.33L349.80,31.21L350.02,30.38L349.13,29.92L349.24,27.96L350.77,28.59L352.17,27.76L355.74,28.23L355.91,26.72L360.08,26.08L361.53,23.59L361.01,22.41L362.74,22.25L364.19,25.94L367.15,26.51L367.50,28.35L372.02,31.73L374.27,32.53L373.75,34.24L372.47,35.27L372.71,44.58L371.22,45.03L368.99,47.93L368.47,50.06L366.99,51.35L364.55,52.04L363.21,49.83L361.30,50.74L360.82,49.93L359.05,49.72L358.17,47.87L356.98,47.33L355.01,44.67Z"><title>伊佐市</title></path>
<path data-code="46225" data-name="姶良市" d="M348.92,76.19L349.90,74.07L351.93,72.60L351.76,68.96L353.50,67.95L353.13,66.90L353.80,66.46L354.12,64.26L355.21,63.97L355.09,63.25L357.20,61.30L359.26,61.20L360.78,58.52L362.51,58.74L363.30,60.10L364.54,60.20L365.52,62.51L365.60,65.12L367.68,67.66L371.74,68.72L371.20,70.97L372.22,70.99L370.94,72.34L374.49,72.77L373.41,73.97L373.08,73.13L372.20,74.03L371.05,73.32L369.26,76.44L368.04,76.37L365.60,78.38L364.72,78.10L363.32,80.13L363.03,82.94L361.72,82.33L361.77,80.94L358.29,78.74L358.05,77.53L359.04,77.30L359.14,76.37L360.47,76.35L360.32,75.00L359.21,74.18L354.83,73.57L351.76,74.53L352.23,76.27L351.43,77.03L348.92,76.19Z"><title>姶良市</title></path>
<path data-code="46303" data-name="三島村" d="M296.73,181.98L295.51,183.79L293.19,184.52L291.29,183.64L290.55,181.82L292.66,180.10L294.10,179.82L296.73,181.98ZM327.69,188.31L327.16,187.97L327.60,186.80L328.66,186.90L331.38,184.93L333.34,186.82L332.50,188.17L328.68,188.21L328.94,189.15L328.47,188.26L327.69,188.31ZM341.27,185.02L342.38,183.73L343.40,184.19L344.16,183.57L346.08,184.76L345.68,185.90L342.79,184.75L341.27,185.02Z"><title>三島村</title></path>
<path data-code="46304" data-name="十島村" d="M197.84,422.67L195.62,422.67L195.02,421.63L196.27,422.06L197.70,421.13L198.21,421.87L197.84,422.67ZM217.40,380.68L216.98,380.16L217.86,379.56L220.39,379.63L220.58,383.17L217.40,380.68ZM230.80,372.16L230.71,371.57L231.76,371.38L231.38,372.53L230.80,372.16ZM258.39,344.27L257.71,343.62L258.76,341.98L259.43,342.05L260.41,342.64L261.42,345.22L258.97,345.73L258.39,344.27ZM274.01,319.62L273.11,324.17L270.80,325.99L270.83,326.89L269.36,327.11L267.99,321.16L271.80,319.20L273.63,318.94L274.01,319.62ZM252.33,317.95L251.72,317.07L252.77,316.05L253.15,317.57L252.83,318.47L252.33,317.95ZM252.36,292.15L252.28,290.38L252.88,290.16L254.08,290.87L254.68,292.35L253.49,292.98L252.36,292.15ZM287.54,301.98L286.02,301.25L283.47,297.38L284.01,294.86L285.15,293.97L286.72,294.09L286.86,294.83L289.36,295.66L289.62,298.70L291.99,301.10L287.54,301.98ZM292.06,280.29L293.59,283.47L294.72,284.18L294.48,286.02L293.06,286.17L290.58,284.46L290.77,283.52L290.05,283.04L291.64,281.14L291.04,280.07L291.81,279.42L292.06,280.29Z"><title>十島村</title></path>
<path data-code="46392" data-name="さつま町" d="M347.16,65.48L346.38,63.39L342.91,62.77L341.32,60.76L341.76,58.09L341.31,55.26L339.09,53.05L336.02,51.97L335.42,50.85L335.73,49.55L334.96,49.05L336.62,46.38L338.04,46.61L338.05,45.74L342.27,45.16L342.90,43.46L344.44,42.89L346.15,43.69L347.20,43.26L347.63,40.89L349.32,40.63L351.49,44.33L352.06,43.57L354.70,42.94L355.72,43.65L355.13,43.99L355.20,45.38L358.17,47.87L359.03,49.71L360.82,49.93L361.30,50.74L363.21,49.83L364.71,52.21L362.64,56.18L363.86,57.36L362.10,57.60L361.19,58.58L359.49,58.11L358.69,56.86L355.07,56.86L352.57,55.73L352.37,57.29L349.10,57.05L348.11,59.91L348.38,61.31L347.51,61.49L348.17,62.87L348.03,64.70L347.16,65.48Z"><title>さつま町</title></path>
<path data-code="46404" data-name="長島町" d="M313.17,30.54L311.75,29.51L312.35,26.66L311.41,25.36L311.60,24.29L309.69,22.93L310.09,22.08L311.56,22.18L310.40,21.44L312.06,21.48L311.33,20.91L312.85,20.72L311.17,20.32L311.83,19.90L311.30,19.01L313.61,19.47L313.24,18.88L313.83,18.82L316.28,21.10L316.64,20.23L315.65,19.82L315.27,18.74L316.17,19.12L316.30,17.41L317.22,19.31L317.17,18.18L318.31,17.30L319.98,21.04L320.91,21.04L319.60,22.00L319.04,23.51L319.50,23.46L319.41,24.97L320.27,24.97L320.37,24.12L321.32,24.33L321.83,26.22L318.76,28.16L318.54,29.25L318.20,28.22L317.89,28.57L318.59,30.44L317.10,33.70L315.58,33.28L315.53,32.00L314.30,31.85L313.17,30.54ZM319.99,18.14L320.58,17.60L320.34,15.52L321.22,17.67L321.82,17.82L321.34,18.59L322.03,18.31L321.42,20.23L321.68,19.29L320.59,18.74L320.69,19.63L319.56,18.24L319.99,18.14ZM318.62,14.86L317.84,17.68L317.39,17.08L316.91,17.45L316.65,15.45L317.55,16.06L318.00,14.03L318.54,14.35L319.81,12.72L318.62,14.86ZM325.98,12.24L324.45,13.39L325.19,14.48L323.63,13.65L323.94,13.31L322.38,14.85L321.84,14.31L322.91,9.93L324.46,10.05L323.85,9.13L326.75,8.00L326.34,8.77L327.77,9.46L327.92,11.34L326.88,11.21L327.04,12.00L325.98,12.24Z"><title>長島町</title></path>
<path data-code="46452" data-name="湧水町" d="M372.21,54.22L369.66,52.91L368.13,53.84L365.67,53.08L365.11,53.82L363.94,53.41L364.55,52.04L368.24,50.31L369.58,47.11L371.22,45.03L372.71,44.58L372.46,37.45L375.92,38.72L380.05,42.46L380.68,46.73L381.80,47.51L382.33,50.26L384.05,51.28L380.48,52.66L377.50,54.81L375.82,54.85L375.08,55.74L374.57,54.94L372.21,54.22Z"><title>湧水町</title></path>
<path data-code="46468" data-name="大崎町" d="M402.86,115.26L401.22,115.51L399.30,113.96L397.25,107.53L394.27,107.12L392.71,105.14L392.87,103.06L394.19,103.06L395.08,101.99L394.40,100.82L394.70,97.33L395.28,97.03L396.57,98.60L399.02,99.79L399.79,99.69L399.55,98.69L400.23,98.67L399.85,99.87L400.50,100.40L399.97,100.83L400.37,102.18L398.40,102.98L399.74,103.03L399.06,106.26L400.41,107.54L402.98,108.84L404.94,106.56L406.19,108.03L408.45,108.52L407.98,109.90L409.06,109.69L405.04,115.75L402.86,115.26ZM401.93,107.48L401.23,106.97L401.29,106.01L402.29,105.69L401.93,107.48Z"><title>大崎町</title></path>
<path data-code="46482" data-name="東串良町" d="M399.03,113.17L401.22,115.51L405.04,115.75L404.58,119.95L401.49,120.17L400.83,121.03L400.36,119.80L399.90,120.55L400.51,119.03L400.09,119.50L399.28,118.26L400.01,117.45L398.93,117.37L398.74,114.17L398.00,112.94L398.41,110.67L399.03,113.17ZM404.96,119.22L405.11,117.90L406.19,117.75L406.49,118.92L405.21,119.67L404.96,119.22Z"><title>東串良町</title></path>
<path data-code="46490" data-name="錦江町" d="M390.05,147.12L388.82,147.96L385.89,146.67L385.63,146.14L387.06,144.90L387.04,143.95L386.02,144.10L386.78,143.63L385.97,143.55L385.77,142.06L383.13,139.01L383.18,137.98L384.96,138.76L385.58,137.24L387.44,136.92L386.24,133.94L384.90,133.83L384.23,135.97L382.71,134.57L379.05,135.74L379.58,134.17L381.34,132.61L381.65,127.44L382.82,126.99L383.43,125.75L385.92,125.94L389.26,127.61L388.60,130.22L389.98,130.50L391.36,132.76L392.55,132.59L393.06,133.81L395.30,135.45L395.42,136.27L393.69,138.76L395.87,139.26L397.22,140.42L393.37,143.94L393.65,144.70L390.05,147.12Z"><title>錦江町</title></path>
<path data-code="46491" data-name="南大隅町" d="M368.74,162.32L368.03,162.99L367.54,162.05L369.74,158.31L369.94,156.04L369.31,155.56L369.88,155.01L367.31,154.00L373.55,148.77L375.26,148.57L376.66,146.78L378.95,141.02L377.60,138.71L377.62,137.31L378.61,136.88L377.97,136.52L382.59,134.57L384.26,135.96L384.90,133.83L386.24,133.94L387.44,136.92L385.58,137.24L384.96,138.76L383.17,137.99L383.95,140.30L385.77,142.06L385.97,143.55L386.78,143.63L385.98,144.05L387.11,144.17L385.65,146.22L386.85,147.41L388.81,147.96L390.79,147.00L392.34,148.20L392.56,149.32L389.93,151.11L387.22,151.82L385.48,151.26L385.16,151.86L383.23,152.01L383.12,152.85L381.64,152.61L381.65,153.58L378.90,154.61L378.39,155.79L377.01,155.14L376.53,156.15L373.78,156.97L373.83,159.17L372.90,158.62L371.47,159.71L370.49,159.32L370.95,160.43L370.35,161.87L369.03,161.25L368.74,162.32Z"><title>南大隅町</title></path>
<path data-code="46492" data-name="肝付町" d="M390.79,147.00L397.22,140.46L395.87,139.26L393.69,138.75L396.57,133.33L395.17,129.26L395.77,128.44L394.35,124.93L394.10,120.02L392.34,118.28L392.16,115.58L393.44,116.30L393.42,118.36L395.63,120.03L397.09,119.84L397.35,119.10L397.91,119.73L398.69,118.92L399.09,119.54L400.47,119.01L399.79,119.94L400.08,120.65L400.70,120.04L400.69,120.99L401.42,120.19L403.93,119.70L414.01,123.30L413.49,123.83L413.65,125.57L410.36,127.89L411.43,129.88L410.74,130.28L411.48,130.00L411.35,129.43L413.95,129.78L415.44,128.45L416.29,128.71L416.16,129.66L411.70,132.78L409.58,135.50L404.61,135.43L403.56,136.70L403.89,138.12L403.16,140.06L401.33,141.13L402.38,142.37L400.05,142.68L400.73,144.40L399.02,146.02L394.75,147.58L394.17,149.01L392.73,148.97L390.79,147.00Z"><title>肝付町</title></path>
<path data-code="46501" data-name="中種子町" d="M400.54,221.31L399.04,223.70L399.68,225.66L398.80,225.72L399.10,226.90L398.03,227.49L397.40,227.05L396.86,227.72L394.31,227.77L393.26,227.01L392.82,225.17L390.70,223.47L394.27,218.93L397.13,213.38L398.09,210.34L397.74,209.00L397.40,209.41L397.66,205.31L400.39,204.33L400.78,206.15L401.62,206.83L401.36,207.76L405.05,209.83L406.24,210.98L406.47,212.45L405.78,214.84L402.80,215.62L402.27,217.86L400.71,219.52L400.54,221.31Z"><title>中種子町</title></path>
<path data-code="46502" data-name="南種子町" d="M390.05,239.51L388.26,236.59L389.17,231.88L387.40,225.18L389.48,225.58L390.70,223.47L392.82,225.17L393.26,227.01L394.31,227.77L399.10,226.90L400.33,227.61L400.00,228.20L400.74,228.59L400.68,229.32L399.55,230.52L400.95,233.25L399.29,234.04L399.57,236.31L398.76,236.72L396.38,236.01L392.22,237.91L390.96,239.72L390.05,239.51Z"><title>南種子町</title></path>
<path data-code="46505" data-name="屋久島町" d="M361.71,250.80L360.04,252.11L355.47,253.39L354.76,252.67L353.89,253.59L351.85,252.78L350.61,253.50L345.15,252.05L343.31,248.44L342.71,248.91L342.69,245.23L341.68,243.02L340.43,242.27L338.98,236.29L339.16,233.94L343.37,233.53L346.18,229.61L347.74,229.07L347.93,226.37L348.67,225.85L351.03,226.67L351.39,224.91L351.57,226.90L353.00,226.55L354.38,227.94L354.62,227.36L356.09,227.52L359.47,229.29L358.73,229.44L361.63,231.05L361.79,231.95L367.66,234.09L369.22,235.99L368.31,242.91L367.55,243.43L368.55,243.08L361.71,250.80ZM325.98,228.57L324.38,228.98L324.05,230.34L321.86,230.50L319.98,228.21L319.71,226.97L320.36,225.80L317.68,226.42L317.49,224.91L315.61,223.83L315.01,222.54L316.31,223.07L317.52,222.47L317.34,223.39L318.91,223.18L319.93,224.63L320.87,223.37L322.24,224.50L324.46,224.83L326.03,226.76L327.53,227.43L327.39,229.11L325.98,228.57Z"><title>屋久島町</title></path>
<path data-code="46523" data-name="大和村" d="M229.38,476.91L230.07,476.92L229.72,474.94L231.31,474.95L232.61,472.76L235.43,474.40L237.73,472.16L238.96,474.24L240.01,473.24L238.46,470.80L241.15,472.36L242.41,477.62L239.81,477.69L239.28,478.11L239.35,480.32L238.74,479.94L234.89,481.54L234.81,482.71L234.24,482.82L232.93,481.39L230.39,481.30L229.01,479.65L227.38,480.36L224.50,479.64L225.08,479.04L224.37,478.03L225.02,477.58L226.10,477.79L227.23,477.00L227.91,477.64L229.38,476.91Z"><title>大和村</title></path>
<path data-code="46524" data-name="宇検村" d="M214.72,486.74L211.67,486.13L214.73,486.11L216.37,484.28L216.70,485.14L218.28,485.31L219.59,486.43L219.75,484.32L221.11,483.95L222.03,484.41L222.01,485.15L222.98,484.88L223.43,486.44L224.01,484.92L224.72,485.43L225.47,484.72L225.96,485.39L226.40,483.62L228.13,484.03L227.94,482.66L225.85,482.89L225.27,482.19L224.98,483.91L223.40,483.92L222.81,482.64L221.91,482.98L221.06,481.97L221.28,481.38L220.50,481.58L219.46,480.12L221.88,479.93L224.40,478.08L225.03,478.74L224.50,479.62L224.91,480.09L227.38,480.36L229.01,479.65L230.39,481.30L232.93,481.39L236.75,484.29L234.15,485.41L234.42,485.98L233.27,487.95L231.37,488.70L230.68,488.08L229.66,488.72L227.08,486.79L221.65,488.56L221.08,487.69L218.99,488.16L217.23,487.73L216.59,486.71L214.72,486.74ZM216.26,481.25L216.71,480.00L218.75,480.56L220.57,482.74L217.73,482.73L216.26,481.25Z"><title>宇検村</title></path>
<path data-code="46525" data-name="瀬戸内町" d="M212.83,514.30L213.02,510.37L215.50,508.05L215.26,509.19L216.18,510.50L214.87,510.78L215.28,511.84L214.81,513.71L212.83,514.30ZM221.05,506.40L220.16,507.27L219.36,506.09L220.35,505.92L220.85,504.55L220.51,503.18L219.83,503.36L220.08,501.94L219.58,501.21L220.36,499.70L219.33,498.95L217.84,499.14L218.18,498.34L216.72,497.28L216.84,495.77L215.87,494.59L215.86,494.01L217.26,494.14L217.44,493.23L219.30,492.49L219.56,493.51L221.61,492.82L222.74,494.05L220.86,493.68L218.68,494.83L219.94,495.65L219.59,496.90L220.78,496.52L220.47,497.54L221.66,498.11L221.91,497.45L222.57,498.47L224.04,497.48L224.07,495.70L224.47,497.65L224.75,496.12L225.53,496.44L226.02,498.41L223.74,498.02L222.95,498.68L224.06,498.74L223.04,499.41L224.65,499.18L222.67,500.00L223.48,500.63L222.98,501.83L226.04,499.48L226.08,500.40L224.77,500.99L224.53,502.42L225.62,501.44L226.03,502.89L227.33,501.37L227.81,503.51L228.87,501.82L230.76,504.33L231.16,502.80L232.42,503.22L232.84,502.22L234.21,503.87L232.80,507.16L230.54,508.91L230.76,508.09L230.20,507.62L231.21,505.54L230.62,504.79L229.00,506.03L227.75,505.51L227.03,506.38L227.47,508.50L226.93,508.83L224.63,507.00L225.12,505.99L224.50,503.75L223.73,503.12L222.75,503.74L223.34,504.45L222.32,504.55L221.05,506.40ZM223.47,514.28L221.52,513.35L219.54,513.58L218.85,511.68L219.75,509.74L221.81,512.55L223.63,511.41L224.01,512.72L225.36,512.03L225.03,514.95L224.22,515.63L223.47,514.28ZM214.80,502.54L214.30,501.78L215.32,502.04L215.97,503.24L214.80,502.54ZM227.68,496.57L228.34,496.01L227.55,495.64L227.80,494.73L226.83,495.23L226.76,494.41L227.59,493.98L227.02,494.01L226.88,492.94L226.03,494.77L224.75,494.30L225.80,491.80L227.31,491.26L227.17,490.59L228.00,489.91L224.74,490.84L226.15,489.81L226.25,488.92L225.15,488.86L224.81,489.75L224.71,488.86L224.33,489.46L223.92,488.70L223.90,490.36L223.28,491.00L224.26,491.96L223.18,492.21L222.52,490.50L220.59,490.03L220.25,489.21L219.67,490.39L218.65,490.48L217.79,489.37L216.06,489.85L215.28,487.61L213.42,488.33L213.25,487.23L211.57,486.23L216.59,486.71L217.23,487.73L218.99,488.16L221.08,487.69L221.65,488.56L226.85,486.77L229.68,488.73L233.03,487.99L235.89,492.16L236.88,491.11L239.14,490.50L239.40,491.20L240.46,491.04L241.93,493.41L240.81,494.18L239.19,493.65L239.80,494.74L238.95,498.08L236.98,496.69L235.06,497.01L235.12,496.34L233.80,495.70L232.41,496.31L234.51,498.59L235.26,498.43L235.94,500.92L236.70,501.48L236.60,503.38L235.40,503.06L235.68,502.53L234.58,501.38L235.51,500.88L234.60,500.19L233.62,500.88L232.79,499.89L231.98,501.00L231.58,500.26L230.83,500.61L230.06,499.03L228.16,498.73L227.71,498.07L228.27,497.24L226.96,496.68L227.68,496.57Z"><title>瀬戸内町</title></path>
<path data-code="46527" data-name="龍郷町" d="M258.38,467.08L259.55,467.24L259.67,465.30L260.67,464.65L260.59,465.28L261.18,465.24L260.91,463.56L261.46,463.04L262.37,463.59L262.45,464.83L261.25,465.84L261.44,466.91L263.36,467.14L263.80,465.22L264.35,466.55L264.15,468.11L260.62,469.00L256.71,475.35L253.53,475.70L251.47,474.87L252.10,473.05L252.90,473.06L254.48,471.12L254.95,469.24L255.00,468.21L253.46,468.44L254.25,464.49L253.38,461.93L255.21,463.37L255.52,462.12L256.22,462.31L256.95,461.17L261.62,459.82L261.52,461.15L259.91,462.79L260.01,464.84L259.00,464.82L258.38,467.08Z"><title>龍郷町</title></path>
<path data-code="46529" data-name="喜界町" d="M295.97,476.91L298.73,475.03L301.32,471.85L302.54,471.64L303.79,472.71L303.80,474.09L303.11,474.06L303.64,474.38L302.61,475.02L302.18,476.37L301.19,476.08L301.09,476.92L300.44,476.48L301.17,477.12L298.16,482.18L294.53,483.85L293.19,481.76L292.09,481.91L291.47,479.37L292.47,478.03L293.87,478.25L293.78,477.47L295.03,477.85L295.97,476.91Z"><title>喜界町</title></path>
<path data-code="46530" data-name="徳之島町" d="M193.04,547.00L193.24,546.10L194.80,545.55L196.29,542.09L194.62,541.44L193.75,540.20L192.01,539.82L190.82,537.72L189.98,538.10L190.42,536.49L189.28,534.75L190.98,533.42L190.32,531.57L188.35,531.31L188.42,528.91L195.02,528.98L194.65,529.64L195.35,531.35L193.31,532.52L194.93,533.30L194.32,534.88L195.19,536.02L194.44,536.45L194.64,537.75L196.41,539.32L197.56,539.15L199.52,541.44L199.33,542.05L201.73,543.50L201.16,546.16L199.95,546.77L200.37,547.05L200.01,549.64L198.95,549.98L197.66,552.12L194.92,549.01L192.92,549.02L193.04,547.00Z"><title>徳之島町</title></path>
<path data-code="46531" data-name="天城町" d="M194.47,545.73L192.30,547.05L190.01,546.85L187.92,545.35L188.30,544.01L186.40,540.94L186.74,537.56L185.43,536.52L185.70,534.34L185.91,535.62L186.77,533.62L186.32,532.87L186.90,532.96L186.53,530.07L187.58,528.86L188.42,528.91L188.35,531.31L190.32,531.57L190.98,533.42L189.28,534.75L190.42,536.49L189.98,538.10L190.82,537.72L192.01,539.82L196.24,541.92L194.47,545.73Z"><title>天城町</title></path>
<path data-code="46532" data-name="伊仙町" d="M193.79,555.56L191.31,556.23L190.15,555.57L189.30,552.08L186.86,550.70L185.67,549.04L187.57,547.37L187.81,545.34L190.04,546.86L193.32,547.13L192.92,549.02L194.92,549.01L197.66,552.12L197.95,552.89L196.52,555.15L193.79,555.56Z"><title>伊仙町</title></path>
<path data-code="46533" data-name="和泊町" d="M159.40,591.39L157.08,588.81L156.10,589.97L154.62,589.62L154.55,586.88L156.38,587.36L158.18,585.94L159.00,586.44L160.38,585.94L161.07,584.88L164.98,583.44L166.22,582.20L168.24,582.43L167.97,583.60L164.63,585.41L161.34,590.23L159.40,591.39Z"><title>和泊町</title></path>
<path data-code="46534" data-name="知名町" d="M155.02,594.88L152.25,595.28L149.82,593.08L148.64,589.88L149.82,586.50L152.59,587.52L154.55,586.88L154.62,589.62L156.10,589.97L157.08,588.81L159.23,591.31L157.52,593.57L155.02,594.88Z"><title>知名町</title></path>
<path data-code="46535" data-name="与論町" d="M136.13,629.72L136.08,628.19L137.60,628.55L138.34,626.54L139.81,626.19L141.83,628.11L142.31,631.31L140.82,632.00L138.88,631.56L136.89,629.66L136.13,629.72Z"><title>与論町</title></path>
  </g>
</svg>
