<?xml version="1.0" encoding="UTF-8"?>
<svg xmlns="http://www.w3.org/2000/svg" viewBox="0 0 560 640" class="pref-muni-svg" role="img" aria-label="自治体境界図">
  <g class="pref-muni-svg__paths" fill="#eaf2fb" stroke="#5b7fa8" stroke-width="0.6" stroke-linejoin="round">
<path data-code="39201" data-name="高知市" d="M311.74,257.95L305.64,261.21L300.15,255.03L299.35,250.10L294.44,246.30L292.85,242.64L299.21,237.82L298.63,234.59L301.14,233.21L300.76,230.43L304.16,223.90L300.68,220.10L295.83,222.26L286.76,218.46L285.87,215.22L282.24,212.88L286.64,207.47L284.76,203.94L281.47,203.34L280.27,196.74L283.40,190.90L292.85,185.45L297.34,185.01L301.22,188.63L303.82,185.23L313.47,185.72L316.48,181.37L322.34,182.83L323.99,187.60L330.62,187.08L334.04,190.23L337.03,197.99L333.29,200.58L334.38,207.16L339.84,214.57L345.62,213.79L343.94,217.50L349.13,218.74L345.09,220.41L349.06,222.88L346.50,229.09L343.45,231.30L341.95,239.25L336.80,244.00L335.98,241.69L330.64,245.61L331.04,241.95L333.58,240.85L331.03,241.01L331.21,235.11L333.56,233.17L331.40,230.75L327.41,231.69L330.07,234.94L326.15,237.11L326.97,238.78L325.40,240.02L329.51,243.20L328.97,246.59L336.51,245.89L311.74,257.95Z"><title>高知市</title></path>
<path data-code="39202" data-name="室戸市" d="M514.58,335.30L513.21,337.78L512.14,336.77L509.91,329.38L508.13,328.96L508.34,330.71L505.89,323.99L503.23,322.64L506.33,323.65L501.80,318.85L492.56,318.69L491.27,307.85L484.63,304.19L479.10,295.26L475.41,292.36L472.08,292.66L470.67,289.61L480.30,283.30L481.13,278.99L486.51,275.93L488.94,267.73L492.62,266.47L494.17,261.34L499.88,255.28L503.61,257.52L507.03,254.23L518.74,250.61L525.26,259.31L528.20,260.18L530.75,267.73L523.64,284.49L522.85,283.38L524.18,288.19L520.20,299.71L514.58,335.30Z"><title>室戸市</title></path>
<path data-code="39203" data-name="安芸市" d="M447.67,265.17L443.23,259.32L444.06,255.04L440.36,250.28L426.72,246.70L427.76,245.79L413.93,243.97L407.06,240.77L407.59,238.24L412.07,235.35L412.54,238.71L417.92,233.25L418.77,225.54L422.56,220.31L418.04,209.24L423.71,206.26L423.84,195.88L426.83,191.71L430.40,189.86L431.86,194.54L433.59,193.24L436.62,194.94L448.78,187.05L453.56,179.32L457.84,177.27L461.20,170.52L466.41,170.58L468.74,168.28L471.78,170.69L479.68,167.88L481.58,170.54L479.96,175.55L474.61,182.55L481.63,188.01L476.99,192.13L477.26,194.01L469.17,196.82L464.52,207.78L467.42,209.65L466.98,213.84L463.66,215.29L462.87,219.66L464.31,221.96L467.75,222.08L469.64,227.04L464.22,233.17L463.62,237.45L457.90,242.02L457.69,246.81L454.23,252.37L455.19,254.29L449.30,260.00L447.67,265.17Z"><title>安芸市</title></path>
<path data-code="39204" data-name="南国市" d="M341.52,238.23L343.83,230.49L348.62,225.07L349.07,222.03L345.12,220.15L349.14,218.75L343.96,217.53L345.62,213.79L339.84,214.57L334.38,207.16L333.29,200.58L337.03,197.99L335.68,192.69L330.69,187.40L331.35,181.12L329.57,177.63L338.29,172.77L345.93,182.84L347.39,188.75L351.76,187.51L354.94,190.81L361.54,189.95L360.08,206.90L361.77,207.66L363.83,216.66L366.44,215.17L366.81,217.85L365.23,222.59L366.90,230.42L365.91,234.11L341.52,238.23Z"><title>南国市</title></path>
<path data-code="39205" data-name="土佐市" d="M254.66,264.61L254.57,257.03L259.20,254.37L259.15,248.61L262.50,245.73L265.37,246.97L276.14,242.34L280.40,242.64L280.46,239.34L290.01,237.94L305.64,261.21L298.94,266.46L297.11,263.38L294.52,263.99L291.61,268.60L290.75,259.17L284.41,257.61L274.82,265.54L270.05,262.94L266.08,267.80L261.01,267.51L257.61,270.60L255.27,269.21L254.66,264.61ZM298.47,270.49L300.67,270.96L299.05,274.74L294.74,274.88L292.07,270.39L294.90,269.42L294.45,267.52L298.47,270.49Z"><title>土佐市</title></path>
<path data-code="39206" data-name="須崎市" d="M215.22,289.81L215.10,282.31L221.16,283.10L225.25,280.20L225.01,271.44L236.83,270.55L239.74,267.10L244.74,267.36L253.84,260.78L255.26,269.18L257.53,270.62L261.01,267.51L266.08,267.80L270.05,262.94L274.82,265.54L283.26,257.78L290.74,259.15L291.56,268.60L289.01,267.71L289.40,264.28L285.41,266.63L283.66,264.90L283.57,266.58L280.65,266.73L284.31,267.88L283.57,270.46L278.96,272.42L278.22,270.52L272.57,271.11L267.19,276.20L271.39,276.22L269.62,278.67L272.15,279.47L273.31,273.00L277.23,278.03L277.29,274.30L279.86,275.76L280.96,273.02L282.87,276.82L283.39,271.87L285.17,273.20L283.99,272.14L287.12,267.77L289.04,271.44L291.77,272.34L292.01,270.52L294.74,274.88L293.96,277.44L290.52,276.55L290.51,279.16L289.41,277.32L288.00,279.32L285.60,277.98L284.82,282.58L279.06,279.72L274.90,281.36L275.58,284.43L273.46,281.09L265.78,281.53L264.81,284.53L260.94,286.44L262.08,290.34L260.15,293.21L261.53,295.29L258.65,295.43L257.82,297.93L255.79,297.28L257.44,296.35L255.57,293.77L259.25,294.35L257.89,292.52L259.25,292.77L259.46,289.27L257.50,287.93L256.35,290.46L254.08,288.85L252.00,291.13L249.13,288.06L253.58,284.90L250.68,279.72L249.29,280.13L250.87,285.56L246.39,287.17L246.63,290.15L239.95,294.02L241.65,296.31L241.40,303.03L231.70,292.79L230.63,289.22L215.22,289.81Z"><title>須崎市</title></path>
<path data-code="39208" data-name="宿毛市" d="M29.02,513.44L35.23,518.54L33.76,521.59L35.67,525.37L26.76,530.36L25.96,528.87L28.98,525.34L24.22,520.69L28.26,517.38L27.26,511.68L29.02,513.44ZM13.92,494.11L12.72,496.79L8.00,496.71L10.07,492.92L13.92,494.11ZM93.13,483.75L84.97,481.81L85.50,477.16L82.69,476.81L79.77,470.11L79.38,472.40L76.45,473.22L72.51,469.49L75.01,464.18L75.30,468.57L80.19,466.76L74.64,461.38L78.38,462.37L80.01,460.48L76.85,460.01L78.58,456.93L76.73,451.46L73.43,453.68L71.74,452.67L72.31,449.83L69.30,452.98L66.74,450.73L67.18,452.86L65.04,451.67L65.09,453.33L60.24,451.35L59.34,445.94L68.54,443.31L67.87,437.15L69.46,437.52L70.96,433.79L67.94,426.57L69.59,425.07L66.60,420.58L67.00,410.94L60.88,404.04L64.40,399.01L62.55,385.48L78.18,393.22L79.88,397.59L88.96,401.07L85.99,406.98L87.48,409.19L90.93,411.31L93.88,408.71L98.99,410.71L102.77,408.88L105.60,415.26L112.39,419.11L108.44,423.07L110.66,432.58L110.37,438.06L109.03,438.33L112.14,445.66L109.18,453.13L104.11,452.83L103.21,456.31L104.76,460.15L97.30,457.22L93.52,460.36L93.20,462.46L98.14,468.50L97.03,477.61L98.81,481.63L93.13,483.75ZM74.96,454.06L72.31,456.37L69.75,454.48L74.96,454.06Z"><title>宿毛市</title></path>
<path data-code="39209" data-name="土佐清水市" d="M104.27,513.44L100.19,513.81L98.10,502.30L91.69,495.25L94.43,489.60L92.21,484.84L98.81,481.63L97.03,477.61L99.00,468.20L101.63,469.05L103.12,466.80L108.46,472.80L116.42,474.59L118.60,471.83L130.18,470.34L133.87,466.90L137.09,468.11L137.10,462.96L133.99,458.66L136.90,456.60L135.76,453.81L138.30,451.23L138.38,447.44L140.49,446.74L146.61,455.98L151.81,456.63L152.55,453.92L157.42,453.12L160.82,455.76L165.46,455.74L165.62,466.70L163.38,467.26L161.78,472.80L159.01,471.39L148.20,474.25L150.12,477.70L149.02,482.87L151.22,485.12L148.05,488.29L152.55,495.97L163.64,500.21L168.17,509.33L167.06,511.73L168.83,522.91L163.66,523.59L158.93,519.32L152.62,520.79L154.32,514.31L148.58,508.87L153.80,503.51L149.62,503.13L149.43,506.44L146.55,508.16L144.79,504.21L147.20,502.74L144.47,500.42L142.76,501.21L143.41,503.30L142.02,501.61L139.01,503.38L137.92,500.29L126.93,499.31L125.61,500.07L127.19,501.61L126.82,506.34L123.62,507.88L122.66,505.83L124.56,500.72L121.65,498.96L116.95,503.44L115.02,502.29L111.63,509.43L107.78,509.30L107.78,512.40L104.27,513.44Z"><title>土佐清水市</title></path>
<path data-code="39210" data-name="四万十市" d="M146.39,455.23L141.34,446.91L136.79,447.53L130.83,443.95L126.10,445.85L121.41,443.89L117.72,446.37L112.14,445.66L109.03,438.33L110.37,438.06L110.66,432.58L108.44,423.07L112.37,419.06L105.60,415.26L102.77,408.88L98.99,410.71L93.88,408.71L90.93,411.31L87.48,409.19L85.99,406.98L88.96,401.07L79.88,397.59L78.18,393.22L57.59,383.20L54.86,377.20L52.17,376.70L53.32,371.20L48.17,364.31L49.49,359.92L54.32,357.96L53.98,360.80L62.28,369.35L65.55,370.63L69.44,376.26L72.24,375.35L73.07,372.21L84.73,359.60L85.63,352.59L96.00,350.98L94.92,338.41L99.36,330.94L104.66,340.36L111.44,339.66L108.64,345.73L110.57,350.72L108.87,355.94L121.53,361.28L126.38,360.39L126.16,367.66L132.79,373.00L143.58,375.37L148.13,371.23L151.79,371.73L154.70,367.04L161.05,367.32L163.58,368.82L164.09,372.10L169.51,370.87L173.24,374.80L179.79,376.85L175.83,384.94L164.73,385.04L157.76,392.93L154.32,393.63L155.07,397.41L151.40,407.67L152.18,413.59L148.78,417.72L151.43,422.97L155.58,424.50L156.87,428.32L155.00,430.03L164.39,433.15L160.90,439.76L162.97,444.63L160.89,447.51L165.55,455.55L160.82,455.76L157.42,453.12L152.55,453.92L151.80,456.63L146.39,455.23Z"><title>四万十市</title></path>
<path data-code="39211" data-name="香南市" d="M365.37,231.85L366.93,231.54L366.09,218.58L372.38,210.48L371.75,212.71L378.85,210.31L381.40,212.98L396.94,204.62L399.41,210.39L412.11,198.79L412.18,194.42L418.05,189.85L423.62,188.27L426.83,191.71L423.84,195.88L423.71,206.26L418.04,209.24L420.31,212.94L413.99,218.88L409.87,216.46L407.20,217.72L407.58,222.24L405.68,225.50L399.18,228.68L392.15,240.61L387.34,238.89L386.20,236.27L388.44,236.19L386.67,236.30L387.99,235.08L385.45,233.19L377.46,232.10L365.91,234.11L365.37,231.85Z"><title>香南市</title></path>
<path data-code="39212" data-name="香美市" d="M366.21,217.25L366.44,215.17L363.83,216.66L361.77,207.66L360.08,206.90L361.54,189.95L354.94,190.81L351.76,187.51L347.39,188.75L340.53,174.32L353.31,167.34L368.72,180.73L381.43,171.24L382.26,167.12L386.56,163.88L392.53,163.07L396.39,166.31L402.67,158.23L405.83,159.23L410.66,155.15L413.21,149.13L417.26,148.30L417.09,144.92L419.88,143.70L422.98,137.23L428.89,137.58L431.27,141.47L434.85,142.48L438.27,139.12L445.00,138.00L446.08,129.03L448.67,126.99L456.22,124.81L459.96,131.82L470.61,129.42L470.57,136.03L477.96,146.06L477.34,156.56L481.00,164.51L480.02,168.04L471.28,170.76L468.74,168.28L466.41,170.58L461.20,170.52L457.84,177.27L453.56,179.32L448.78,187.05L436.62,194.94L433.59,193.24L431.86,194.54L430.40,189.86L426.83,191.71L422.22,188.14L412.18,194.42L412.11,198.79L399.41,210.39L396.94,204.62L381.40,212.98L378.85,210.31L371.75,212.71L372.38,210.48L366.21,217.25Z"><title>香美市</title></path>
<path data-code="39301" data-name="東洋町" d="M518.74,250.61L519.93,248.65L518.53,245.55L523.21,247.31L524.97,241.76L518.16,232.95L518.95,224.56L525.62,222.13L531.45,227.68L544.55,224.48L552.00,227.12L551.31,230.06L549.11,229.14L551.34,231.33L549.19,231.64L550.29,232.53L547.56,231.39L545.01,237.34L546.99,239.01L537.05,251.50L530.73,266.85L528.20,260.18L525.26,259.31L518.74,250.61Z"><title>東洋町</title></path>
<path data-code="39302" data-name="奈半利町" d="M471.74,288.44L470.70,289.55L471.91,284.06L470.01,277.62L463.97,273.87L465.55,271.50L469.55,267.37L478.32,269.39L485.45,264.87L492.93,265.18L488.94,267.73L486.51,275.93L481.13,278.99L480.30,283.30L471.74,288.44Z"><title>奈半利町</title></path>
<path data-code="39303" data-name="田野町" d="M458.55,271.90L458.75,269.20L463.11,267.26L464.17,261.80L468.15,260.80L466.00,264.24L469.63,265.52L468.44,268.78L463.97,273.87L458.55,271.90Z"><title>田野町</title></path>
<path data-code="39304" data-name="安田町" d="M460.65,268.87L458.27,271.89L447.07,265.76L448.29,266.44L451.20,257.26L455.19,254.29L454.23,252.37L457.69,246.81L457.90,242.02L463.62,237.45L464.22,233.17L468.29,229.45L470.48,232.20L479.84,235.06L480.54,238.18L468.94,245.27L468.02,260.58L464.17,261.80L463.11,267.26L460.65,268.87Z"><title>安田町</title></path>
<path data-code="39305" data-name="北川村" d="M493.23,264.04L485.45,264.87L480.31,269.12L470.09,267.91L469.63,265.51L466.00,264.24L468.19,260.93L468.25,247.10L471.28,242.63L483.64,234.75L485.10,229.49L487.47,227.96L485.24,223.47L488.84,220.04L488.59,213.96L492.36,211.21L503.40,213.96L507.15,206.43L512.03,207.17L511.45,211.67L515.66,214.63L518.85,221.83L519.76,227.88L518.16,232.95L520.52,234.08L520.52,237.08L524.87,243.11L523.21,247.31L518.53,245.55L519.93,248.72L517.78,251.29L507.03,254.23L503.61,257.52L499.88,255.28L493.23,264.04Z"><title>北川村</title></path>
<path data-code="39306" data-name="馬路村" d="M463.09,220.15L463.66,215.29L466.97,213.88L467.42,209.65L464.52,207.78L469.17,196.82L477.26,194.01L476.99,192.13L481.63,188.01L474.64,182.71L477.47,178.51L498.17,176.42L504.64,180.33L512.66,180.56L511.67,190.11L515.50,193.13L505.39,199.71L506.99,207.82L503.64,213.86L492.36,211.21L488.56,214.01L488.84,220.04L485.24,223.47L487.47,227.96L482.03,236.31L470.45,232.17L468.29,229.45L469.72,226.62L468.37,222.79L463.09,220.15Z"><title>馬路村</title></path>
<path data-code="39307" data-name="芸西村" d="M392.15,240.61L399.18,228.68L405.68,225.50L407.58,222.24L407.20,217.72L409.87,216.46L413.99,218.88L420.90,213.44L422.56,220.31L418.77,225.54L416.44,236.02L412.50,238.71L412.06,235.35L408.50,237.23L407.06,240.77L392.15,240.61Z"><title>芸西村</title></path>
<path data-code="39341" data-name="本山町" d="M348.22,169.77L342.45,174.01L336.57,172.95L332.99,164.67L334.46,161.17L325.52,153.67L326.17,147.44L322.04,141.65L320.58,134.36L313.79,125.93L314.54,122.16L319.59,120.22L319.31,117.60L322.49,115.88L323.67,111.33L328.67,110.00L332.98,114.53L336.35,115.04L337.34,126.05L341.74,129.40L345.32,128.87L351.88,134.89L352.51,139.42L349.61,143.85L351.17,148.67L353.31,149.31L354.19,162.11L352.48,164.60L353.31,167.34L348.22,169.77Z"><title>本山町</title></path>
<path data-code="39344" data-name="大豊町" d="M353.31,167.34L354.42,154.31L349.61,143.85L352.51,139.42L351.88,134.89L336.24,124.06L336.47,115.23L340.40,110.90L344.76,110.55L349.65,113.67L354.45,109.64L359.61,110.19L360.26,114.27L364.54,118.47L371.77,121.59L382.62,121.57L385.60,126.23L396.81,124.22L397.68,126.42L406.38,126.04L412.53,123.21L422.67,135.72L419.88,143.70L417.09,144.92L417.26,148.30L413.21,149.13L410.66,155.15L405.83,159.23L402.67,158.23L396.39,166.31L392.53,163.07L386.56,163.88L382.26,167.12L381.43,171.24L368.72,180.73L353.31,167.34Z"><title>大豊町</title></path>
<path data-code="39363" data-name="土佐町" d="M298.57,186.97L295.66,179.90L292.43,177.13L280.79,181.84L281.79,175.99L276.89,173.89L276.17,170.05L272.67,168.14L272.98,165.58L270.08,163.81L269.78,157.76L272.52,155.36L279.49,155.43L280.17,153.33L286.94,150.67L292.82,151.53L305.31,146.40L309.76,142.17L305.83,135.47L306.58,129.89L314.41,126.55L320.58,134.36L322.04,141.65L326.17,147.44L325.52,153.67L334.46,161.17L332.99,164.67L336.57,172.95L329.57,177.63L331.35,181.12L330.62,187.08L323.99,187.60L322.34,182.83L316.48,181.37L313.44,185.73L303.82,185.23L301.22,188.63L298.57,186.97Z"><title>土佐町</title></path>
<path data-code="39364" data-name="大川村" d="M262.10,137.07L260.02,134.08L268.19,127.46L279.40,130.67L282.20,126.43L286.43,125.13L296.55,127.50L302.95,126.23L307.69,128.44L305.82,135.42L309.76,142.17L299.12,149.75L286.94,150.67L280.17,153.33L279.49,155.43L272.77,155.43L271.40,148.82L267.35,145.48L269.76,143.06L262.10,137.07Z"><title>大川村</title></path>
<path data-code="39386" data-name="いの町" d="M254.29,216.64L253.27,213.48L248.90,215.66L245.59,212.32L246.25,209.61L242.20,206.05L233.55,209.87L230.69,208.65L228.97,200.00L232.76,196.78L230.07,188.67L230.93,182.37L214.69,172.21L209.79,158.66L217.22,151.25L220.26,141.52L224.09,141.29L228.30,146.31L233.39,145.49L239.03,142.03L242.55,130.76L246.88,127.95L255.23,133.68L260.02,134.08L269.76,143.06L267.35,145.48L271.40,148.82L272.52,155.36L269.78,157.76L270.08,163.81L276.17,170.05L276.86,173.86L281.79,175.99L280.79,181.84L292.33,177.14L295.66,179.90L296.71,184.83L285.73,189.03L280.29,196.62L281.47,203.34L284.76,203.94L286.64,207.47L282.25,212.98L285.26,214.47L287.35,219.08L291.95,219.21L295.83,222.26L300.68,220.10L304.16,223.94L300.76,230.43L301.14,233.21L298.63,234.59L299.21,237.82L292.85,242.64L290.89,238.07L280.12,239.47L283.19,229.24L280.79,230.00L271.85,223.03L271.01,217.79L268.99,219.00L268.60,225.09L264.95,222.93L261.77,225.48L254.29,216.64Z"><title>いの町</title></path>
<path data-code="39387" data-name="仁淀川町" d="M193.10,266.60L189.65,263.30L184.69,263.13L180.36,253.45L176.00,255.30L167.41,252.99L166.79,249.63L173.07,241.95L174.13,236.82L181.93,231.08L181.39,224.27L176.71,219.03L179.69,212.11L186.54,207.50L182.85,202.88L185.17,192.56L197.56,189.14L198.65,178.31L200.15,175.56L205.83,173.38L204.47,169.38L210.94,163.75L214.78,172.30L230.93,182.37L230.07,188.67L232.76,196.78L228.97,200.00L230.81,208.80L226.40,211.60L226.56,221.18L221.63,219.59L220.78,222.60L217.39,222.91L216.07,231.83L206.96,239.68L208.12,243.58L206.57,246.00L208.08,248.14L206.41,251.63L209.94,253.86L210.31,257.98L193.10,266.60Z"><title>仁淀川町</title></path>
<path data-code="39401" data-name="中土佐町" d="M237.28,339.59L230.89,340.40L227.16,335.11L220.32,332.93L221.84,320.08L216.24,314.70L217.78,310.36L214.05,309.97L211.34,314.09L201.95,316.35L195.17,311.01L193.70,311.60L194.86,313.80L191.83,313.88L184.50,304.04L180.21,305.78L179.73,302.20L183.09,302.76L184.21,300.74L177.81,297.03L180.04,290.32L185.45,285.66L192.65,292.82L192.24,287.80L195.52,281.45L194.56,277.77L197.27,274.11L206.65,276.52L209.84,274.45L213.30,275.21L215.61,290.29L224.96,288.20L230.71,289.27L231.70,292.79L241.40,303.03L237.13,305.47L237.14,307.57L235.33,305.13L231.80,308.07L240.58,313.97L237.01,315.31L237.73,317.59L233.86,318.52L236.06,320.32L235.20,326.35L240.46,325.24L238.86,329.06L241.52,332.69L236.59,335.45L236.48,338.04L239.10,339.64L237.28,339.59Z"><title>中土佐町</title></path>
<path data-code="39402" data-name="佐川町" d="M237.28,262.65L221.62,255.68L221.25,250.35L224.60,244.75L222.34,244.09L226.17,243.97L225.83,241.54L237.06,244.98L236.82,240.65L242.60,237.42L240.90,227.73L245.76,225.36L252.52,227.17L256.42,225.74L260.77,233.45L260.42,238.04L265.04,241.23L259.15,248.61L260.30,252.68L254.59,257.00L254.51,260.39L244.74,267.36L239.60,267.04L237.28,262.65Z"><title>佐川町</title></path>
<path data-code="39403" data-name="越知町" d="M207.16,252.43L206.96,239.68L216.07,231.83L217.39,222.91L220.78,222.60L221.63,219.59L226.56,221.18L227.04,210.85L240.50,205.79L246.25,209.61L245.59,212.32L248.93,215.69L253.49,213.75L255.32,218.13L251.78,218.47L252.83,227.05L245.80,225.36L240.86,227.78L242.60,237.42L236.82,240.65L237.06,244.98L224.91,241.60L226.57,243.37L222.34,244.09L224.60,244.75L221.25,250.35L221.43,255.65L217.37,256.02L215.13,258.92L210.53,258.45L209.94,253.86L207.16,252.43Z"><title>越知町</title></path>
<path data-code="39405" data-name="梼原町" d="M162.18,315.39L157.28,320.89L156.98,323.82L150.65,318.89L149.21,313.03L133.57,307.75L133.93,303.98L130.11,296.99L121.10,293.03L119.48,282.42L113.83,281.66L113.40,274.67L110.24,271.35L111.18,265.61L105.70,262.78L106.06,258.79L117.35,253.63L137.58,257.75L146.16,256.21L150.81,258.23L159.63,255.54L161.91,265.10L158.83,269.49L160.98,271.31L158.01,272.99L158.47,276.41L151.83,277.19L149.75,281.66L153.70,288.05L158.38,284.86L161.75,288.25L160.70,296.14L171.31,302.17L173.41,309.92L170.67,315.29L167.15,313.86L162.18,315.39Z"><title>梼原町</title></path>
<path data-code="39410" data-name="日高村" d="M267.72,246.22L263.16,246.59L265.00,241.10L260.42,238.04L260.77,233.45L256.52,225.83L252.83,227.05L251.22,222.90L252.18,217.96L259.28,221.03L261.85,225.48L264.95,222.93L268.60,225.09L268.99,219.00L270.90,217.75L271.98,223.15L280.79,230.00L283.11,229.08L279.62,240.53L280.45,242.59L276.14,242.34L267.72,246.22Z"><title>日高村</title></path>
<path data-code="39411" data-name="津野町" d="M162.15,296.80L160.54,295.82L161.75,288.25L158.38,284.86L153.70,288.05L149.74,281.60L151.83,277.19L158.47,276.41L158.01,272.99L160.98,271.31L158.83,269.49L161.91,265.10L160.48,254.86L170.06,252.79L176.00,255.30L180.34,253.44L184.69,263.13L189.65,263.30L192.97,266.62L199.55,262.04L209.99,258.02L215.13,258.92L217.37,256.02L221.45,255.39L237.14,262.42L239.74,267.10L236.83,270.55L224.82,271.60L225.25,280.20L221.16,283.10L215.09,282.34L213.29,275.20L206.65,276.52L196.64,274.15L194.56,277.77L194.97,284.93L192.24,287.80L192.65,292.82L185.35,285.67L180.04,290.32L177.99,297.43L173.43,301.63L168.17,301.15L162.15,296.80Z"><title>津野町</title></path>
<path data-code="39412" data-name="四万十町" d="M162.83,368.16L154.70,367.04L151.79,371.73L148.13,371.23L143.58,375.37L132.79,373.00L126.16,367.66L126.38,360.39L121.53,361.28L108.87,355.94L110.57,350.72L108.64,345.73L111.44,339.66L104.66,340.36L99.55,328.84L101.22,326.45L118.03,321.20L131.71,313.21L132.75,308.73L134.94,307.51L149.21,313.03L150.65,318.89L157.10,323.83L157.28,320.89L162.93,314.36L170.67,315.29L173.41,309.92L171.31,302.17L179.35,297.47L184.20,300.62L183.09,302.76L179.73,302.20L180.12,305.69L184.67,304.14L191.87,313.89L194.86,313.80L194.24,310.80L200.14,315.79L204.63,316.29L211.34,314.09L214.05,309.97L217.78,310.36L216.24,314.70L221.84,320.08L220.32,332.93L227.16,335.11L230.89,340.40L239.10,339.64L237.13,341.38L239.11,344.11L233.85,347.54L232.72,351.84L234.67,354.27L228.17,355.17L225.93,357.79L225.69,360.02L229.68,363.71L228.04,366.88L226.65,365.58L229.43,369.40L225.97,371.61L224.48,365.58L219.99,364.72L213.63,370.78L211.67,376.17L209.85,375.11L208.08,372.00L217.21,361.01L214.42,356.77L197.68,367.80L192.17,365.65L189.46,369.47L191.24,373.23L185.32,371.91L184.15,380.28L180.37,382.40L178.12,380.67L179.79,376.85L173.24,374.80L169.51,370.87L164.09,372.10L162.83,368.16Z"><title>四万十町</title></path>
<path data-code="39424" data-name="大月町" d="M51.15,507.29L48.91,507.89L52.37,505.13L52.63,507.32L51.15,507.29ZM62.98,483.75L61.41,481.63L65.86,480.63L60.63,476.30L74.92,464.23L72.58,469.60L76.45,473.22L79.38,472.40L79.77,470.11L82.69,476.81L85.50,477.16L84.97,481.81L92.21,484.84L94.43,489.60L91.69,495.25L98.10,502.30L99.21,510.96L97.15,511.98L94.08,509.20L90.59,512.35L86.39,505.25L79.90,500.62L79.00,496.42L78.22,497.82L76.73,495.95L69.76,498.64L68.51,497.16L69.43,499.65L73.17,500.50L59.95,502.35L58.05,504.30L58.63,507.87L52.43,509.00L55.73,506.50L53.74,501.20L57.01,500.34L51.61,496.79L58.29,493.98L60.44,495.20L60.20,493.41L55.68,492.41L57.70,492.10L56.82,488.57L62.98,483.75Z"><title>大月町</title></path>
<path data-code="39427" data-name="三原村" d="M125.51,470.20L118.60,471.83L116.29,474.58L108.46,472.80L103.06,466.78L101.63,469.05L99.00,468.20L98.45,471.60L93.15,461.99L97.30,457.22L104.81,460.10L103.21,456.31L104.11,452.83L109.18,453.13L112.26,445.60L117.72,446.37L121.41,443.89L126.10,445.85L130.79,443.94L138.38,447.44L138.30,451.23L135.73,453.94L136.90,456.60L133.99,458.71L137.10,462.96L137.09,468.11L133.98,466.88L130.18,470.34L125.51,470.20Z"><title>三原村</title></path>
<path data-code="39428" data-name="黒潮町" d="M162.83,430.35L160.22,432.65L155.00,430.03L156.87,428.32L155.58,424.50L151.43,422.97L148.80,418.45L152.18,413.59L151.40,407.67L155.07,397.41L154.32,393.63L157.76,392.93L164.73,385.04L175.79,384.95L178.12,380.67L180.37,382.40L184.04,380.45L185.17,372.07L191.21,373.27L189.46,369.47L192.19,365.63L197.68,367.80L201.77,363.90L205.49,363.92L211.73,357.32L215.93,357.45L217.12,361.28L208.07,372.04L211.67,376.19L205.57,389.38L197.92,393.65L197.17,397.94L194.15,398.34L195.25,402.05L191.48,406.86L191.58,415.52L187.75,415.14L184.12,410.90L174.04,410.97L167.67,416.99L167.40,420.39L165.38,420.13L162.83,430.35Z"><title>黒潮町</title></path>
  </g>
</svg>
