<?xml version="1.0" encoding="UTF-8"?>
<svg xmlns="http://www.w3.org/2000/svg" viewBox="0 0 560 640" class="pref-muni-svg" role="img" aria-label="自治体境界図">
  <g class="pref-muni-svg__paths" fill="#eaf2fb" stroke="#5b7fa8" stroke-width="0.6" stroke-linejoin="round">
<path data-code="43100" data-name="熊本市" d="M297.30,251.22L298.04,248.72L295.01,247.05L298.27,241.35L301.68,241.77L301.62,237.29L311.73,235.56L314.42,232.13L319.57,237.41L316.17,240.80L317.07,242.85L326.08,243.33L319.58,247.70L320.50,252.19L316.71,257.24L313.87,254.31L312.79,261.09L308.08,256.29L297.38,256.41L297.30,251.22Z"><title>熊本市</title></path>
<path data-code="43100" data-name="熊本市" d="M312.18,270.09L313.87,254.31L316.71,257.24L320.50,252.19L319.58,247.70L326.17,243.97L318.44,243.62L316.17,240.80L322.44,235.99L322.59,233.06L325.27,233.58L324.69,230.12L329.68,224.04L334.77,225.01L337.66,220.53L342.48,221.75L343.59,228.77L348.76,228.22L351.78,231.73L351.86,239.50L345.64,239.54L343.02,243.75L335.47,246.69L331.82,244.36L333.13,253.70L338.97,261.36L327.81,265.50L323.96,263.64L319.59,269.71L312.18,270.09Z"><title>熊本市</title></path>
<path data-code="43100" data-name="熊本市" d="M250.71,264.06L250.34,261.47L258.05,261.61L257.29,264.38L250.71,264.06ZM264.02,268.04L261.71,268.85L259.78,257.68L265.90,247.81L256.46,238.85L258.64,237.96L257.28,236.11L256.42,238.52L257.15,234.53L252.06,232.80L254.15,230.95L251.79,227.77L254.49,226.63L250.31,224.81L249.98,221.51L266.15,226.11L273.22,220.74L271.17,217.12L285.85,216.45L290.14,219.80L287.41,221.98L291.09,223.43L283.09,231.23L283.68,233.96L294.27,228.51L297.27,231.81L300.46,228.61L300.67,231.23L304.78,231.81L301.68,241.77L298.27,241.35L295.01,247.05L298.19,249.62L296.62,260.60L279.20,260.89L277.47,265.12L270.70,264.64L264.02,268.04Z"><title>熊本市</title></path>
<path data-code="43100" data-name="熊本市" d="M314.19,309.81L304.62,299.44L289.55,296.76L286.31,290.60L283.34,293.20L283.15,289.48L278.25,285.73L272.39,289.68L263.71,286.45L262.16,279.08L264.08,272.21L261.82,268.98L270.70,264.64L277.47,265.12L279.20,260.89L296.24,260.83L297.38,256.41L308.08,256.29L312.02,260.72L310.93,273.33L307.54,272.84L305.63,275.79L300.01,273.40L298.92,276.92L321.84,278.62L325.32,288.42L321.95,289.83L322.04,293.99L326.49,297.43L331.70,309.29L321.68,309.99L319.66,306.18L316.10,312.65L314.19,309.81Z"><title>熊本市</title></path>
<path data-code="43100" data-name="熊本市" d="M283.99,234.04L283.09,231.23L291.09,223.19L287.41,221.98L290.14,219.80L288.47,217.18L274.58,217.62L278.60,206.23L281.44,204.81L280.55,197.81L274.90,190.79L276.43,186.40L286.48,182.42L288.38,175.93L293.80,171.85L299.19,173.06L304.32,164.70L303.87,161.22L312.27,163.50L314.05,164.96L311.82,168.47L313.70,183.30L308.60,200.54L313.53,209.17L310.66,221.88L320.02,219.09L324.73,219.35L323.04,221.74L335.50,218.86L336.77,221.23L334.77,225.01L329.68,224.04L324.69,230.12L325.35,233.48L322.67,233.00L319.57,237.41L314.68,232.10L311.75,235.55L304.34,236.60L304.78,231.81L300.67,231.23L300.46,228.61L297.28,231.81L294.90,228.72L290.87,229.17L283.99,234.04Z"><title>熊本市</title></path>
<path data-code="43202" data-name="八代市" d="M234.07,452.13L231.52,444.39L234.43,444.20L232.82,442.33L238.11,433.45L235.96,431.34L237.91,427.11L250.88,419.99L248.00,419.62L250.21,417.45L246.73,409.65L248.43,405.57L246.70,400.17L238.59,399.00L237.73,396.12L238.49,389.45L245.81,389.43L246.77,386.21L233.20,379.29L249.75,385.24L235.20,376.53L239.52,369.95L243.50,368.43L245.68,370.81L264.39,344.49L267.06,346.87L273.78,340.36L287.65,353.34L291.31,358.99L287.01,361.47L288.87,364.35L286.25,367.50L295.29,375.69L300.86,371.89L299.22,367.75L302.89,367.73L306.08,361.87L322.00,358.62L333.75,343.55L342.10,356.41L348.84,359.94L362.98,353.82L379.64,355.01L385.91,348.58L390.13,353.52L409.40,350.91L424.89,358.22L428.20,365.44L430.65,378.78L424.18,381.48L423.21,392.01L427.34,404.34L417.89,412.96L406.66,411.52L396.86,417.98L384.49,417.34L379.72,411.62L380.92,403.94L376.95,399.70L372.06,399.98L371.17,395.89L365.61,391.80L361.67,394.78L356.52,389.25L347.10,393.18L338.58,391.49L334.88,396.13L321.11,400.83L321.27,403.69L315.24,402.46L317.02,410.91L309.71,412.32L312.36,422.97L308.79,427.17L310.29,433.53L317.67,436.72L308.92,442.61L298.04,463.73L288.87,464.55L281.57,446.35L277.54,452.86L271.80,453.26L268.71,448.56L256.03,447.31L251.81,449.63L244.19,444.48L239.87,451.40L234.07,452.13Z"><title>八代市</title></path>
<path data-code="43203" data-name="人吉市" d="M320.35,576.68L317.39,579.49L314.70,574.24L310.40,578.04L300.25,575.16L282.57,561.47L281.31,554.17L283.56,546.02L287.42,545.52L286.01,540.75L291.38,535.56L292.85,528.61L300.92,517.87L306.03,518.00L314.31,504.65L308.50,499.70L308.71,494.87L304.99,490.87L307.38,485.78L312.92,488.53L317.79,501.87L317.06,508.70L321.54,508.37L324.00,516.14L328.00,517.37L334.51,513.77L336.54,518.94L335.34,524.23L332.67,524.39L334.04,533.93L345.68,539.45L347.96,547.62L346.53,549.84L351.42,561.62L356.79,558.78L361.55,564.68L367.68,560.40L371.86,568.40L363.50,578.63L356.01,575.04L348.86,580.89L330.81,577.58L324.35,580.00L320.35,576.68Z"><title>人吉市</title></path>
<path data-code="43204" data-name="荒尾市" d="M196.35,179.08L191.05,154.52L192.68,153.63L186.97,153.25L187.55,155.13L186.47,150.57L223.13,150.40L227.50,146.09L233.06,162.69L222.72,180.09L217.75,180.42L218.87,174.15L211.54,174.20L206.81,180.47L201.92,177.33L196.35,179.08Z"><title>荒尾市</title></path>
<path data-code="43205" data-name="水俣市" d="M166.86,548.38L165.20,545.61L168.30,543.69L165.00,539.46L169.60,538.59L168.74,541.65L172.60,541.28L170.62,538.56L172.73,532.01L169.36,530.32L174.77,527.05L171.90,525.51L176.14,524.28L174.39,522.89L181.77,514.27L184.96,516.55L189.87,512.96L195.57,518.78L196.64,523.87L208.69,526.41L222.01,536.30L224.58,535.62L225.63,538.97L242.95,532.35L252.56,533.76L258.71,538.78L259.40,542.45L253.78,552.44L237.48,555.05L236.85,561.09L222.96,559.20L217.51,562.56L211.54,559.99L210.18,569.66L202.29,572.36L181.89,568.90L175.49,555.98L166.86,548.38Z"><title>水俣市</title></path>
<path data-code="43206" data-name="玉名市" d="M220.76,202.57L211.06,197.28L220.29,179.70L222.72,180.09L232.72,163.64L231.84,157.19L244.11,153.98L251.04,154.74L253.10,157.95L257.49,156.80L261.97,162.47L257.12,171.71L263.33,170.68L264.33,176.22L268.51,175.67L271.23,179.53L263.21,189.95L266.78,191.91L267.86,198.10L263.39,205.31L263.70,209.75L273.27,220.62L266.15,226.11L249.98,221.51L246.28,226.62L230.24,222.53L231.58,210.12L220.76,202.57Z"><title>玉名市</title></path>
<path data-code="43208" data-name="山鹿市" d="M315.29,163.91L308.20,164.23L303.87,161.22L304.32,164.70L299.43,172.84L297.06,170.86L289.78,174.24L285.43,182.85L281.30,183.82L272.44,177.89L274.07,168.69L281.76,169.70L282.52,165.05L277.25,162.25L279.86,157.56L277.27,154.51L279.65,149.49L273.52,142.38L280.03,139.14L281.91,128.85L274.77,126.16L273.61,116.85L280.90,112.17L284.16,106.51L281.15,102.59L284.52,99.71L282.53,96.94L284.51,96.90L288.21,85.77L287.25,78.14L292.65,70.43L296.94,73.86L297.45,79.80L313.62,78.44L328.93,92.71L347.86,97.40L348.69,101.13L356.46,102.32L358.86,108.04L355.66,111.55L354.72,118.22L351.83,117.18L346.85,120.79L349.79,126.17L343.66,135.10L342.94,146.17L338.71,146.76L339.03,150.79L333.46,155.03L327.09,153.39L315.29,163.91Z"><title>山鹿市</title></path>
<path data-code="43210" data-name="菊池市" d="M353.87,197.07L342.25,192.52L336.94,194.29L321.47,186.28L315.67,188.91L312.39,185.64L311.82,168.47L327.09,153.39L332.99,155.23L338.51,151.47L338.71,146.76L343.88,144.60L345.33,130.71L349.79,126.17L346.85,120.79L351.83,117.18L354.72,118.22L355.66,111.55L359.56,107.21L365.86,106.47L375.37,110.56L379.37,120.64L383.68,121.23L386.82,126.30L394.46,125.52L402.52,128.64L408.55,140.40L402.72,149.66L402.59,160.84L397.55,168.89L402.41,171.48L401.63,175.16L395.72,175.54L390.28,182.71L365.66,184.37L369.10,192.39L356.59,186.62L353.87,197.07Z"><title>菊池市</title></path>
<path data-code="43211" data-name="宇土市" d="M220.65,315.85L235.91,310.54L244.97,296.33L253.03,292.02L250.75,291.18L256.08,291.87L263.71,286.45L272.39,289.68L278.25,285.73L283.15,289.48L283.37,293.22L286.51,290.74L289.55,296.76L299.44,297.28L307.51,302.32L305.27,306.15L298.83,304.84L300.56,308.33L297.56,305.74L291.49,314.10L284.46,309.03L282.42,311.41L278.50,308.86L274.21,311.01L266.75,307.62L263.23,312.94L255.34,316.07L246.48,314.46L224.98,319.39L221.26,318.87L220.65,315.85Z"><title>宇土市</title></path>
<path data-code="43212" data-name="上天草市" d="M148.78,449.16L147.79,447.19L150.75,444.72L151.21,449.06L148.78,449.16ZM169.93,428.40L174.34,415.74L166.82,417.24L159.90,414.66L155.83,407.27L158.11,397.49L172.48,398.98L173.30,390.56L176.51,386.72L179.50,388.34L181.82,381.87L187.34,379.97L187.85,377.11L192.36,381.13L196.00,375.68L202.87,378.27L201.48,376.11L205.20,374.49L203.97,381.36L195.79,395.35L195.74,403.31L187.76,413.15L188.27,417.68L184.88,416.95L183.35,419.52L190.40,420.80L187.13,425.60L181.68,423.43L185.24,429.07L181.12,435.95L182.43,438.85L177.73,438.63L173.02,444.57L171.55,441.22L167.60,441.07L162.37,447.29L161.14,436.83L158.85,438.66L162.07,433.62L167.37,434.33L169.93,428.40ZM184.16,440.47L186.85,436.48L190.26,439.60L190.46,445.02L195.50,444.69L188.13,451.81L189.39,446.38L184.67,444.08L184.16,440.47ZM179.62,371.32L180.05,368.18L184.04,368.70L182.86,371.89L179.62,371.32ZM183.30,367.73L192.35,369.32L187.35,370.73L183.30,367.73ZM182.42,349.27L178.26,346.81L185.12,339.61L185.05,334.51L188.00,333.41L187.01,338.17L190.87,339.58L188.65,333.05L193.00,334.96L198.03,329.10L198.38,332.50L203.96,334.50L200.59,338.37L201.45,340.65L197.12,340.53L198.69,345.26L204.76,346.68L200.12,355.10L197.71,354.70L201.08,357.14L200.71,365.14L197.63,366.24L199.18,365.01L197.44,362.42L197.15,366.16L182.84,364.67L183.71,356.72L188.62,353.19L187.45,349.92L182.42,349.27ZM207.10,349.27L210.64,347.18L215.73,355.38L206.34,370.11L207.29,362.39L204.86,354.65L207.10,349.27ZM153.83,340.08L158.41,339.81L157.15,342.44L153.83,340.08Z"><title>上天草市</title></path>
<path data-code="43213" data-name="宇城市" d="M220.68,349.27L216.07,352.65L215.37,349.55L218.56,347.36L212.75,345.85L214.22,341.92L210.19,339.51L217.26,336.79L224.45,337.98L225.22,344.48L220.68,349.27ZM299.66,350.50L291.92,344.94L292.36,342.51L272.86,330.60L276.91,330.16L282.21,335.28L282.31,327.55L285.23,326.22L281.32,321.15L258.23,330.79L238.23,329.52L228.35,335.13L215.24,335.34L207.57,339.16L204.54,337.90L205.40,333.29L201.19,330.05L220.55,315.76L221.26,318.87L224.98,319.39L246.48,314.46L255.34,316.07L263.23,312.94L266.75,307.62L274.21,311.01L278.50,308.86L282.42,311.41L284.46,309.03L291.49,314.10L297.56,305.74L300.56,308.33L298.83,304.84L305.27,306.15L307.32,302.89L314.99,312.75L319.66,306.18L321.68,309.99L331.32,310.00L332.53,335.52L330.09,339.59L333.65,343.57L331.68,348.44L317.47,360.86L309.16,360.74L303.34,354.72L306.12,350.88L302.82,348.65L299.66,350.50Z"><title>宇城市</title></path>
<path data-code="43214" data-name="阿蘇市" d="M420.42,194.83L415.39,194.45L415.76,197.82L412.11,199.09L407.15,197.54L403.36,192.53L406.98,187.64L403.44,180.18L406.31,176.99L397.57,169.22L402.59,160.84L402.72,149.66L408.55,140.40L419.70,138.25L423.39,142.50L445.38,137.42L447.86,132.89L455.50,131.36L458.10,136.74L471.17,129.98L484.62,132.05L486.26,136.08L480.85,140.66L481.94,145.84L485.37,145.21L494.41,151.89L492.64,154.42L494.91,164.79L505.03,164.08L507.97,169.53L521.45,172.50L518.97,174.01L521.30,177.06L518.58,180.28L521.77,194.99L491.54,211.17L484.87,204.50L477.38,207.20L466.71,205.21L446.87,208.40L420.42,194.83Z"><title>阿蘇市</title></path>
<path data-code="43215" data-name="天草市" d="M21.10,521.70L23.75,520.93L23.01,525.71L26.97,520.02L23.72,510.84L22.66,514.33L16.44,512.02L21.47,507.73L20.82,505.57L15.52,511.27L14.44,509.13L10.59,512.22L8.00,510.61L17.87,490.81L30.74,482.81L34.66,495.56L35.84,490.40L32.97,489.76L32.44,484.28L38.01,482.12L39.22,484.73L41.05,481.38L39.11,487.34L41.76,493.71L45.49,495.02L47.94,489.42L45.55,485.48L49.73,483.48L37.33,476.55L33.37,482.13L31.84,475.97L31.19,479.94L23.13,476.15L21.91,481.06L18.79,480.54L18.91,473.08L15.89,475.42L11.87,469.82L13.54,463.84L11.04,457.12L15.25,448.51L18.98,446.58L16.41,443.91L22.38,435.13L20.00,433.92L23.04,430.72L22.57,424.57L28.23,417.56L34.18,421.35L52.10,417.55L58.97,422.25L59.12,411.33L53.92,407.82L58.86,398.57L63.07,399.18L68.23,391.52L67.02,383.84L71.84,374.56L68.54,370.75L68.37,365.89L74.73,368.03L84.91,364.54L96.58,365.66L96.26,371.70L100.91,371.80L97.12,382.23L98.91,380.32L100.43,384.08L97.94,390.28L100.10,391.52L97.83,390.59L104.38,401.94L99.75,408.47L102.49,408.98L100.18,408.88L104.39,423.84L107.79,424.73L103.28,426.36L106.05,426.52L100.07,433.65L101.51,440.13L98.29,441.96L100.73,443.29L104.08,437.98L108.71,439.75L107.15,442.05L110.39,444.09L107.91,447.31L111.22,451.09L105.14,456.57L102.73,471.69L90.15,478.69L87.70,472.69L92.11,465.58L86.54,469.84L84.01,466.95L85.05,473.49L81.65,473.07L83.80,477.77L78.20,475.43L76.85,484.88L79.39,481.80L80.36,483.90L86.36,482.77L87.57,485.59L79.01,492.43L75.67,487.63L64.63,500.00L63.73,505.67L57.66,505.40L58.50,508.83L62.19,507.84L61.85,514.42L57.01,518.38L54.69,513.14L56.78,513.69L55.23,511.09L57.79,510.33L52.96,510.89L54.21,516.50L50.05,519.81L55.58,521.69L52.09,525.32L43.90,525.84L39.09,531.49L38.50,526.50L36.39,525.29L36.57,528.07L32.72,524.16L33.92,533.14L26.29,536.02L25.35,530.18L21.80,535.79L17.19,531.40L20.31,528.47L21.10,521.70ZM30.10,546.87L29.42,550.90L27.20,544.49L30.71,540.10L28.78,537.69L33.80,535.37L37.08,540.00L34.12,540.16L40.53,546.36L38.45,548.63L39.87,551.70L33.97,542.84L30.10,546.87ZM74.34,500.27L77.40,494.02L81.27,497.09L77.57,501.19L74.34,500.27ZM165.98,467.83L160.45,476.50L152.39,481.59L141.06,481.55L149.63,475.36L153.16,477.52L154.66,469.96L152.77,470.65L152.61,467.87L159.74,459.65L170.54,460.45L165.98,467.83ZM138.65,467.83L142.30,466.49L140.99,473.58L138.65,467.83ZM114.27,452.51L112.35,449.27L115.21,445.38L114.27,452.51ZM120.93,442.49L114.43,443.20L117.09,437.86L119.67,438.54L119.38,432.22L112.37,426.34L114.07,428.91L112.41,430.54L109.36,428.78L103.06,411.47L114.86,407.39L124.54,398.75L135.28,394.67L137.38,396.21L135.60,394.55L138.47,389.77L148.79,379.67L154.78,378.41L156.79,382.19L158.17,378.52L165.65,375.36L165.60,378.78L167.76,375.51L170.40,377.23L168.88,382.69L174.72,377.28L171.65,380.11L173.54,380.21L172.53,383.32L175.84,379.92L177.42,385.19L173.30,390.56L172.62,398.86L158.45,397.21L155.82,407.19L160.42,414.99L166.82,417.24L174.34,415.74L167.37,434.33L162.52,433.77L160.61,425.91L157.98,433.74L143.67,438.76L137.55,435.64L135.31,437.44L130.74,430.36L125.53,431.20L120.93,442.49ZM140.90,456.96L142.41,453.63L145.31,456.24L146.24,451.35L149.66,451.33L150.43,456.35L152.00,452.96L152.06,456.39L157.81,457.36L156.57,461.20L144.97,465.02L146.38,461.28L150.48,460.48L141.66,459.60L140.90,456.96ZM157.53,452.15L160.82,448.81L162.99,452.93L160.45,454.92L157.53,452.15Z"><title>天草市</title></path>
<path data-code="43216" data-name="合志市" d="M308.60,200.54L312.24,186.19L316.47,189.31L321.37,186.28L336.94,194.29L338.27,192.04L351.25,195.56L359.37,202.26L354.18,200.60L354.88,202.89L347.94,208.25L336.32,209.03L341.97,210.09L335.93,210.65L329.28,217.72L322.79,212.97L319.78,219.48L311.19,222.08L313.53,209.17L308.60,200.54Z"><title>合志市</title></path>
<path data-code="43348" data-name="美里町" d="M340.39,353.82L336.07,344.03L330.09,339.59L332.53,335.52L331.11,311.33L341.23,313.87L343.80,323.81L348.64,328.90L355.57,328.01L357.65,322.27L367.74,319.07L370.95,310.93L382.91,310.67L388.59,314.39L396.20,314.14L399.57,318.65L411.20,318.78L410.51,322.86L400.12,324.89L404.51,329.37L407.13,339.62L399.22,352.44L389.88,353.46L385.83,348.59L379.64,355.01L362.98,353.82L348.95,359.97L340.39,353.82Z"><title>美里町</title></path>
<path data-code="43364" data-name="玉東町" d="M263.62,203.28L267.86,198.10L266.78,191.91L263.21,189.95L269.22,181.10L272.62,177.92L280.74,182.80L274.90,190.79L280.55,197.81L281.44,204.81L278.60,206.23L274.58,217.65L263.70,209.75L263.62,203.28Z"><title>玉東町</title></path>
<path data-code="43367" data-name="南関町" d="M230.74,155.89L218.72,128.44L227.50,120.57L233.31,121.33L237.28,112.78L247.00,110.29L261.49,138.38L258.49,144.00L254.83,144.07L256.28,152.83L253.79,155.67L230.74,155.89Z"><title>南関町</title></path>
<path data-code="43368" data-name="長洲町" d="M212.30,195.14L209.15,198.90L205.82,198.41L203.60,196.52L206.15,193.42L205.35,189.81L201.45,194.78L198.16,191.84L195.91,179.22L201.92,177.33L206.81,180.47L211.54,174.20L218.87,174.15L217.70,180.32L220.10,182.66L212.30,195.14Z"><title>長洲町</title></path>
<path data-code="43369" data-name="和水町" d="M252.76,156.00L256.26,152.93L254.83,144.07L258.49,144.00L261.44,137.30L257.11,126.82L254.17,127.50L250.15,119.70L250.96,114.72L247.04,110.40L245.44,102.26L252.79,96.65L265.92,100.17L273.66,97.86L282.81,99.99L281.14,102.66L284.17,106.43L282.91,109.15L273.38,118.92L274.77,126.16L281.91,128.85L280.03,139.14L273.52,142.33L279.65,149.49L277.27,154.51L279.86,157.56L276.97,160.44L282.51,165.00L281.84,169.63L275.02,167.73L271.23,179.53L268.51,175.67L265.46,177.12L263.33,170.68L257.12,171.71L261.18,159.84L252.76,156.00Z"><title>和水町</title></path>
<path data-code="43403" data-name="大津町" d="M370.51,229.06L370.00,226.29L366.01,225.31L366.31,220.95L362.55,221.34L360.90,204.02L353.21,198.70L356.51,186.72L369.10,192.39L365.66,184.37L390.28,182.71L395.72,175.54L404.01,174.17L406.31,177.14L403.44,180.18L406.99,187.57L403.36,192.53L407.15,197.54L399.92,210.58L415.82,211.07L414.35,214.38L411.75,216.86L401.45,214.64L391.05,218.29L379.61,218.22L380.89,225.14L377.82,223.62L370.51,229.06Z"><title>大津町</title></path>
<path data-code="43404" data-name="菊陽町" d="M353.87,235.99L348.76,228.22L343.57,228.75L342.53,221.78L335.50,218.86L323.04,221.74L324.73,219.35L320.02,219.09L322.79,212.97L329.28,217.72L335.93,210.65L341.97,210.09L336.32,209.03L347.94,208.25L354.88,202.89L354.18,200.60L359.62,202.32L362.11,206.31L360.40,215.40L362.55,221.34L366.31,220.95L366.01,225.31L370.27,227.51L353.87,235.99Z"><title>菊陽町</title></path>
<path data-code="43423" data-name="南小国町" d="M420.42,139.08L426.23,129.11L427.51,121.46L424.68,118.48L430.03,110.15L428.11,106.05L435.48,105.43L434.87,100.49L441.07,97.51L443.50,103.52L448.85,96.58L451.06,97.36L454.98,106.04L475.98,105.64L479.72,101.06L489.57,102.04L490.58,112.97L499.74,116.87L488.76,127.02L485.99,133.38L471.17,129.98L458.14,136.73L455.50,131.36L447.86,132.89L445.38,137.42L423.39,142.50L420.42,139.08Z"><title>南小国町</title></path>
<path data-code="43424" data-name="小国町" d="M420.42,96.51L417.80,94.62L418.27,90.35L411.75,84.70L414.19,84.14L413.26,77.01L417.31,64.79L426.63,67.51L435.93,59.60L444.39,59.11L462.38,63.18L467.17,66.95L468.70,72.03L479.46,78.15L478.44,80.21L485.55,86.23L485.74,96.42L489.58,101.99L479.72,101.06L475.98,105.64L454.98,106.04L449.05,96.49L443.50,103.52L441.07,97.51L434.87,100.49L435.48,105.43L427.72,107.05L420.42,96.51Z"><title>小国町</title></path>
<path data-code="43425" data-name="産山村" d="M519.30,168.95L511.44,170.73L505.03,164.08L494.91,164.79L492.64,154.42L494.41,151.89L485.37,145.21L481.94,145.84L480.85,140.66L485.19,138.90L488.62,127.21L498.93,117.97L506.96,126.32L509.72,143.53L519.17,153.63L519.10,159.95L525.65,162.79L522.69,168.98L519.30,168.95Z"><title>産山村</title></path>
<path data-code="43428" data-name="高森町" d="M463.12,231.12L463.05,226.11L464.81,229.01L465.30,226.93L458.17,211.65L459.40,207.00L477.38,207.20L484.87,204.50L491.54,211.17L521.77,194.99L521.65,200.76L525.78,208.86L529.59,207.78L529.61,212.85L545.82,222.30L552.00,230.86L526.31,233.97L518.90,246.99L518.40,252.89L514.08,255.62L518.84,261.03L513.95,268.60L505.24,266.35L500.94,261.50L502.28,252.52L499.70,247.47L483.87,237.39L478.16,238.00L473.71,247.76L466.43,248.63L464.74,241.09L466.60,232.07L463.12,231.12Z"><title>高森町</title></path>
<path data-code="43432" data-name="西原村" d="M370.00,246.52L369.24,243.22L372.69,236.95L370.50,229.06L377.82,223.62L380.89,225.14L379.61,218.22L391.05,218.29L401.45,214.64L411.67,216.86L409.47,219.65L412.36,223.12L412.52,227.14L409.18,230.19L412.09,235.49L411.03,239.34L416.26,239.99L418.79,244.30L404.55,253.93L399.80,250.87L393.74,256.23L385.66,253.12L377.31,254.50L370.00,246.52Z"><title>西原村</title></path>
<path data-code="43433" data-name="南阿蘇村" d="M410.32,231.63L412.36,223.12L409.47,219.65L415.82,211.07L399.89,209.91L407.15,197.54L412.11,199.09L415.76,197.82L415.39,194.45L420.55,194.85L446.87,208.40L459.40,207.00L458.17,211.65L465.30,226.93L464.81,229.01L463.08,226.07L462.21,229.96L466.68,232.48L464.74,241.09L466.61,248.16L460.33,250.91L450.47,248.78L435.78,254.27L432.41,251.58L423.45,252.67L418.43,248.14L419.17,244.58L416.30,240.01L411.06,239.42L410.32,231.63Z"><title>南阿蘇村</title></path>
<path data-code="43441" data-name="御船町" d="M379.28,309.75L381.79,310.60L371.08,311.04L370.48,306.00L361.99,303.46L363.82,299.16L359.06,298.89L357.01,294.90L349.46,297.69L340.34,293.13L339.09,297.04L336.99,296.65L336.60,289.84L324.47,284.30L323.40,280.50L330.49,279.32L330.61,273.73L336.28,274.27L339.47,270.55L344.92,273.21L347.21,279.09L353.51,277.86L352.56,268.85L356.63,265.71L356.04,261.70L370.75,260.46L375.55,257.92L376.48,253.31L393.74,256.23L402.36,251.37L404.62,254.09L403.64,257.12L377.03,273.24L375.65,284.26L379.40,299.39L376.30,305.57L379.28,309.75Z"><title>御船町</title></path>
<path data-code="43442" data-name="嘉島町" d="M298.76,276.40L300.27,273.33L305.56,275.79L308.51,272.42L310.44,273.87L316.71,268.17L318.82,270.13L325.06,263.38L333.06,264.18L333.84,268.33L335.93,267.15L339.51,270.68L336.28,274.27L330.61,273.73L330.49,279.32L323.40,280.50L319.48,277.37L298.76,276.40Z"><title>嘉島町</title></path>
<path data-code="43443" data-name="益城町" d="M339.47,270.55L335.93,267.15L333.90,268.38L331.91,263.88L338.97,261.36L333.13,253.70L331.82,244.36L335.47,246.69L340.91,244.70L345.54,239.58L352.16,239.22L351.65,234.49L354.02,236.08L370.27,227.51L372.65,237.95L369.34,246.60L376.48,253.31L375.55,257.92L356.04,261.70L356.63,265.71L352.56,268.85L353.51,277.86L347.21,279.09L344.92,273.21L339.47,270.55Z"><title>益城町</title></path>
<path data-code="43444" data-name="甲佐町" d="M332.03,311.34L329.79,302.72L322.04,293.99L321.95,289.83L325.32,288.45L324.47,284.30L336.60,289.84L337.22,296.74L340.34,293.13L349.46,297.69L357.01,294.90L359.06,298.89L363.82,299.16L361.99,303.46L370.48,306.00L370.95,310.93L367.74,319.07L357.65,322.27L355.99,327.60L351.58,328.92L345.54,327.08L341.23,313.87L332.03,311.34Z"><title>甲佐町</title></path>
<path data-code="43447" data-name="山都町" d="M400.46,350.37L407.13,339.59L404.51,329.37L400.12,324.89L410.51,322.86L411.20,318.78L399.57,318.65L396.20,314.14L388.48,314.36L376.93,307.79L379.40,299.13L375.65,284.26L377.03,273.24L403.61,257.14L416.79,244.70L419.13,244.45L418.40,248.06L421.56,251.83L432.55,251.59L435.78,254.27L450.47,248.78L460.33,250.91L471.20,248.98L477.06,244.25L478.16,238.00L483.52,237.30L499.70,247.47L502.28,252.52L500.94,261.50L505.24,266.35L514.27,268.90L514.26,272.92L492.29,288.21L489.29,301.17L490.34,307.25L485.48,307.36L480.87,303.40L477.74,305.19L476.40,310.71L466.56,321.40L468.24,341.72L462.72,346.55L462.35,351.04L441.16,347.23L437.04,350.90L435.98,362.98L428.20,365.44L424.89,358.22L420.51,355.59L400.46,350.37Z"><title>山都町</title></path>
<path data-code="43468" data-name="氷川町" d="M282.90,349.37L267.75,332.36L272.86,330.60L292.36,342.51L291.92,344.94L299.74,350.55L303.46,348.84L306.28,351.85L303.34,354.72L310.13,361.11L306.08,361.87L302.41,368.07L299.22,367.75L300.86,371.89L295.29,375.69L286.25,367.50L288.87,364.35L287.01,361.47L291.31,358.99L282.90,349.37Z"><title>氷川町</title></path>
<path data-code="43482" data-name="芦北町" d="M220.76,534.13L208.71,526.43L217.69,524.29L218.83,511.34L216.61,507.35L208.24,504.53L206.24,494.64L206.50,485.70L211.81,489.82L217.14,484.03L208.91,483.40L209.46,475.86L206.83,471.09L210.34,468.61L213.67,470.55L213.81,462.39L223.74,457.65L221.85,454.67L215.33,455.34L216.21,452.15L235.96,431.34L238.11,433.45L232.85,442.22L234.40,444.26L231.52,444.39L233.35,451.99L239.87,451.40L244.33,444.47L251.81,449.63L264.69,447.68L269.30,449.06L270.76,453.04L277.54,452.86L275.70,457.16L261.97,464.17L261.06,470.69L265.66,478.61L260.14,486.11L262.36,487.74L262.14,493.06L266.23,494.48L256.85,501.65L253.84,532.02L250.18,534.45L239.61,532.82L226.67,539.35L220.76,534.13Z"><title>芦北町</title></path>
<path data-code="43484" data-name="津奈木町" d="M194.14,516.96L195.23,511.89L190.47,507.37L195.23,505.61L192.07,500.51L201.06,496.83L198.78,493.77L201.79,492.58L200.25,489.59L204.35,488.10L208.20,498.10L207.22,502.93L216.61,507.35L218.83,511.34L217.71,524.26L200.71,526.24L196.43,523.61L194.14,516.96Z"><title>津奈木町</title></path>
<path data-code="43501" data-name="錦町" d="M346.88,549.26L345.68,539.45L334.25,534.50L333.11,528.85L346.93,527.77L348.14,524.69L343.88,523.08L342.39,516.60L345.52,511.99L360.45,506.63L366.94,518.25L363.02,527.82L370.22,528.29L372.34,536.76L381.64,546.07L383.65,549.61L378.46,558.45L385.85,564.04L380.78,563.13L379.39,566.19L371.86,568.40L367.68,560.40L361.55,564.68L356.79,558.78L351.63,561.80L346.88,549.26Z"><title>錦町</title></path>
<path data-code="43505" data-name="多良木町" d="M420.21,548.54L415.85,551.04L413.21,545.65L414.68,538.01L410.95,534.40L413.87,524.70L401.25,515.50L394.81,505.86L390.53,507.43L386.42,505.22L388.47,499.57L383.35,492.79L383.25,481.92L374.64,471.14L382.24,457.89L393.06,455.79L400.19,459.82L402.12,470.22L412.68,483.73L410.16,490.20L405.85,492.32L410.10,500.11L407.92,502.43L413.29,510.43L421.83,512.09L425.09,517.13L431.33,510.42L435.20,513.17L443.19,509.27L449.00,513.56L447.96,518.86L454.05,528.11L460.57,530.33L460.93,544.00L463.97,549.71L459.24,553.73L449.09,549.90L443.89,552.48L435.34,545.19L425.61,543.21L420.21,548.54Z"><title>多良木町</title></path>
<path data-code="43506" data-name="湯前町" d="M420.42,512.35L413.31,510.44L409.48,506.07L407.91,502.38L410.10,500.11L405.85,492.32L417.25,487.04L424.50,477.06L424.07,474.08L428.15,480.13L436.04,483.03L440.83,490.11L442.08,499.26L437.09,503.38L439.21,511.89L430.17,510.81L425.53,517.15L420.42,512.35Z"><title>湯前町</title></path>
<path data-code="43507" data-name="水上村" d="M410.44,490.90L412.63,483.60L402.12,470.22L398.06,457.24L398.07,450.78L404.88,439.78L403.99,433.36L399.80,431.27L396.01,424.30L396.91,417.95L406.60,411.53L417.89,412.96L426.15,406.45L428.36,417.87L437.73,432.22L447.62,432.66L449.67,440.28L448.10,443.65L452.31,448.41L449.97,452.38L451.58,457.50L458.98,459.83L465.11,469.43L451.81,492.54L439.31,489.63L436.04,483.03L428.15,480.13L424.07,474.08L424.50,477.06L417.33,486.93L410.44,490.90Z"><title>水上村</title></path>
<path data-code="43510" data-name="相良村" d="M333.19,528.60L335.48,516.18L337.87,515.64L338.71,506.97L341.98,503.30L342.43,488.23L346.83,481.32L342.58,476.41L337.33,477.99L337.82,460.24L331.66,449.60L337.73,449.96L342.56,446.10L346.60,452.39L354.93,457.13L357.15,463.87L366.61,458.47L379.57,459.28L376.45,469.42L368.37,478.03L370.58,487.02L359.83,496.13L360.27,506.95L345.52,511.99L342.39,516.60L343.88,523.08L347.05,523.14L348.18,526.17L333.19,528.60Z"><title>相良村</title></path>
<path data-code="43511" data-name="五木村" d="M316.50,440.27L317.46,436.00L310.33,433.57L308.78,427.33L312.36,422.97L309.71,412.32L317.05,410.82L315.24,402.46L321.27,403.69L321.11,400.83L334.88,396.13L338.44,391.53L347.10,393.18L356.52,389.25L361.67,394.78L365.61,391.80L371.17,395.89L372.06,399.98L379.65,402.44L382.25,416.46L396.91,417.95L396.01,424.30L399.80,431.27L403.99,433.36L404.88,439.78L400.40,445.29L396.47,458.01L390.79,455.79L380.26,459.98L366.61,458.47L357.22,463.87L354.93,457.13L346.60,452.39L342.56,446.10L337.44,449.96L332.45,448.52L330.88,443.97L317.53,443.40L316.50,440.27Z"><title>五木村</title></path>
<path data-code="43512" data-name="山江村" d="M317.10,508.69L316.19,495.10L313.08,493.34L312.85,488.44L307.38,485.78L306.61,477.14L298.19,465.87L301.34,453.89L308.92,442.61L314.37,439.52L317.53,443.40L331.22,444.18L332.75,453.36L337.82,460.24L337.33,477.99L342.58,476.41L346.83,481.32L342.43,488.23L341.98,503.30L338.71,506.97L337.87,515.64L333.62,513.13L325.56,517.05L321.54,508.37L317.10,508.69Z"><title>山江村</title></path>
<path data-code="43513" data-name="球磨村" d="M270.68,551.72L266.52,546.40L264.94,537.45L256.15,537.79L252.47,533.72L255.49,527.64L253.20,525.70L255.75,516.89L254.41,511.31L257.32,508.01L258.15,499.77L266.23,494.48L262.14,493.06L262.36,487.74L260.14,486.11L265.66,478.61L261.06,470.69L262.12,463.70L276.24,456.69L281.57,446.35L288.83,464.51L298.17,463.63L305.87,475.59L307.39,485.72L304.99,490.87L308.71,494.87L308.50,499.70L314.33,504.59L306.03,518.00L300.92,517.87L292.85,528.61L291.38,535.56L286.01,540.75L287.42,545.52L283.56,546.02L282.27,553.38L270.68,551.72Z"><title>球磨村</title></path>
<path data-code="43514" data-name="あさぎり町" d="M379.84,560.03L378.60,556.43L383.64,549.48L372.34,536.76L370.22,528.29L363.02,527.82L366.94,518.25L359.53,501.53L360.99,494.03L370.58,487.02L368.35,478.09L374.64,471.14L383.25,481.92L383.35,492.79L388.47,499.57L386.51,505.36L394.81,505.86L401.25,515.50L413.92,524.77L410.97,535.03L414.68,538.01L414.36,549.51L418.77,551.99L410.35,560.91L410.25,568.60L402.69,571.17L393.70,570.86L379.84,560.03Z"><title>あさぎり町</title></path>
<path data-code="43531" data-name="苓北町" d="M68.11,388.79L63.07,399.18L60.02,397.35L53.92,407.82L59.12,411.33L58.97,422.25L52.10,417.55L34.18,421.35L28.31,417.61L36.25,404.68L33.58,395.38L35.13,400.17L34.74,396.41L40.03,392.76L34.62,379.53L26.16,375.05L29.49,371.69L36.17,371.72L38.10,375.23L36.72,377.09L36.74,373.25L34.30,373.84L34.75,378.48L39.45,382.82L42.13,380.33L47.46,381.25L68.29,368.15L71.84,374.56L67.02,383.84L68.11,388.79Z"><title>苓北町</title></path>
  </g>
</svg>
