<?xml version="1.0" encoding="UTF-8"?>
<svg xmlns="http://www.w3.org/2000/svg" viewBox="0 0 560 640" class="pref-muni-svg" role="img" aria-label="自治体境界図">
  <g class="pref-muni-svg__paths" fill="#eaf2fb" stroke="#5b7fa8" stroke-width="0.6" stroke-linejoin="round">
<path data-code="24201" data-name="津市" d="M208.17,336.89L211.29,323.67L216.05,319.32L210.99,315.47L212.60,311.72L211.63,304.53L196.62,308.62L195.05,306.21L196.35,300.77L192.57,296.93L198.32,288.21L208.96,288.86L212.69,292.60L214.91,283.75L224.82,281.83L223.24,279.87L225.88,277.55L222.87,275.46L221.24,262.88L226.59,252.65L231.23,249.60L228.13,245.45L230.53,244.09L229.69,240.22L242.81,224.51L238.48,220.85L239.98,217.10L245.31,215.27L248.05,209.87L253.73,206.28L250.41,199.16L244.54,197.52L242.90,192.96L244.29,188.81L247.07,188.97L248.50,184.95L264.93,185.61L269.41,179.39L280.58,175.85L284.76,177.74L285.16,184.89L289.98,189.51L293.74,187.67L303.76,194.44L314.93,188.59L320.54,190.82L324.03,188.07L329.62,191.09L318.19,212.60L314.83,229.18L316.39,230.91L313.73,235.27L315.12,241.68L318.94,243.88L320.55,241.46L323.21,246.51L323.67,242.53L326.00,246.28L322.92,248.37L323.29,261.21L316.56,255.72L306.58,254.53L301.89,257.02L294.32,255.17L292.37,260.70L290.35,258.44L289.07,264.09L282.82,260.68L279.69,265.95L270.23,271.18L269.91,277.43L265.52,281.74L259.85,295.73L252.17,303.22L255.77,312.91L251.40,319.59L247.84,320.06L247.75,324.44L243.13,330.74L223.56,337.29L208.17,336.89Z"><title>津市</title></path>
<path data-code="24202" data-name="四日市市" d="M348.58,151.78L327.05,147.49L314.70,140.66L308.80,133.33L298.43,129.43L296.72,124.53L287.72,117.69L278.23,118.85L277.66,114.45L288.26,112.44L294.14,116.40L321.57,112.55L318.17,107.32L319.20,105.16L324.82,105.72L326.47,97.78L318.16,97.12L320.69,87.99L318.63,85.40L319.68,83.91L327.88,86.40L331.60,90.95L353.87,94.40L355.22,100.58L360.10,102.52L358.44,105.22L360.87,107.83L363.69,105.51L365.03,110.06L362.14,110.30L357.09,116.11L355.67,129.24L352.87,129.01L352.91,131.65L355.24,131.32L351.55,133.38L353.98,137.51L356.45,134.22L362.84,136.28L362.62,138.22L355.47,139.36L355.95,151.85L348.58,151.78ZM365.07,112.59L360.75,115.25L366.21,117.87L362.20,123.60L357.01,121.81L357.76,115.46L365.07,112.59Z"><title>四日市市</title></path>
<path data-code="24203" data-name="伊勢市" d="M390.01,362.69L379.93,359.86L371.91,362.70L370.11,358.42L364.38,359.94L354.68,357.25L354.74,347.25L351.14,343.93L357.87,336.17L357.24,332.07L363.92,325.87L358.23,323.59L358.84,320.36L355.20,322.37L359.46,314.12L356.82,316.91L353.29,316.07L356.91,311.81L353.55,309.12L356.82,311.09L357.92,306.83L359.66,306.45L358.67,308.77L360.75,307.46L360.49,304.41L355.43,301.24L356.01,297.45L359.86,295.01L360.47,289.03L371.80,296.87L379.82,297.44L398.25,311.96L410.62,312.71L412.86,317.46L412.51,322.32L408.41,324.17L409.41,328.07L407.53,332.64L402.15,334.55L403.08,347.20L393.59,351.93L391.84,356.34L393.33,357.18L390.01,362.69Z"><title>伊勢市</title></path>
<path data-code="24204" data-name="松阪市" d="M180.25,387.91L173.24,382.58L167.94,365.08L162.25,361.03L165.16,353.50L169.27,350.16L168.75,345.00L182.21,338.23L187.36,339.97L192.13,336.72L223.56,337.29L243.13,330.74L247.75,324.44L247.84,320.06L251.40,319.59L255.77,312.91L252.17,303.22L259.85,295.73L265.52,281.74L269.91,277.43L270.23,271.18L279.69,265.95L282.82,260.68L289.07,264.09L290.35,258.44L292.37,260.70L294.32,255.17L301.89,257.02L306.58,254.53L316.23,255.63L323.29,261.21L321.68,266.56L319.87,265.72L316.51,271.93L323.02,272.50L324.93,269.27L326.83,271.10L327.24,268.60L327.32,271.71L340.68,274.48L344.97,278.19L342.95,286.96L345.62,287.80L345.77,290.76L343.23,291.36L338.82,304.70L328.36,307.43L319.53,313.80L307.75,316.15L303.69,312.66L299.18,316.82L304.63,319.58L300.31,322.19L292.01,321.12L288.83,325.53L283.08,322.72L273.14,327.93L280.19,330.10L280.75,339.70L276.44,344.09L275.58,349.60L265.49,355.56L259.59,353.59L230.55,353.94L225.04,362.78L229.93,369.47L223.82,374.96L204.48,378.83L201.46,381.08L202.19,387.37L194.72,387.53L192.08,391.90L183.56,391.29L180.25,387.91Z"><title>松阪市</title></path>
<path data-code="24205" data-name="桑名市" d="M340.20,92.49L343.66,83.00L341.01,78.44L344.57,78.52L347.07,74.21L341.87,71.53L340.97,67.02L331.50,53.78L332.01,44.17L338.01,38.98L341.84,41.32L344.71,50.36L348.15,53.26L350.42,51.48L355.36,53.78L355.72,45.14L358.80,46.97L363.55,58.19L372.08,61.86L378.45,69.81L383.49,89.05L388.10,96.80L391.11,94.59L392.23,96.60L383.83,102.15L373.85,104.03L365.34,93.56L357.03,95.86L340.20,92.49Z"><title>桑名市</title></path>
<path data-code="24207" data-name="鈴鹿市" d="M305.97,193.10L302.59,192.94L303.95,184.57L301.80,180.56L303.06,179.52L300.58,179.14L305.40,167.58L303.06,163.87L304.87,162.34L304.75,152.77L302.00,151.98L301.83,148.88L298.83,151.25L289.77,150.59L283.59,145.00L283.67,140.64L279.46,134.70L271.54,132.17L278.23,118.85L287.72,117.69L296.72,124.53L298.43,129.43L308.80,133.33L314.70,140.66L327.05,147.49L354.39,153.04L345.97,171.54L343.87,171.91L346.40,171.59L330.27,192.11L324.03,188.07L320.54,190.82L310.94,189.14L310.60,191.63L305.97,193.10Z"><title>鈴鹿市</title></path>
<path data-code="24208" data-name="名張市" d="M155.50,282.62L156.49,278.15L154.62,275.10L162.10,266.25L163.67,261.16L160.75,254.35L155.93,254.05L152.46,249.76L160.60,254.20L165.09,251.42L167.76,244.23L176.64,246.94L179.40,239.42L183.17,241.98L179.60,245.22L180.63,247.73L186.84,246.44L190.42,253.37L190.06,256.87L199.15,264.44L199.57,277.23L204.56,288.90L198.32,288.21L193.71,296.31L191.15,291.71L189.42,293.55L185.35,291.19L177.33,297.34L175.94,292.93L167.05,291.96L159.23,287.77L158.70,284.41L155.50,282.62Z"><title>名張市</title></path>
<path data-code="24209" data-name="尾鷲市" d="M222.84,525.78L215.05,524.01L210.57,519.01L211.27,526.22L207.03,531.07L203.30,531.17L206.98,534.40L213.32,529.79L211.61,533.51L214.41,532.92L216.79,540.74L210.44,537.35L203.17,537.98L198.30,533.00L195.31,536.86L186.38,534.22L183.13,521.28L189.88,511.20L185.86,508.43L173.88,509.81L172.99,503.48L169.87,499.76L171.58,495.96L170.66,485.00L178.80,485.91L173.30,480.31L175.18,477.48L174.05,472.98L187.84,470.51L194.16,475.28L196.69,482.64L200.63,480.75L202.64,482.81L211.31,481.51L218.29,484.12L208.15,489.82L206.71,487.95L206.45,490.17L209.76,493.78L220.84,492.23L223.73,494.30L220.52,495.21L220.94,503.77L230.19,507.55L233.80,511.60L227.34,515.10L220.17,513.39L225.12,517.34L230.51,517.46L228.12,522.12L225.16,520.29L226.26,524.13L230.57,524.34L229.84,531.09L224.00,533.94L222.51,530.54L218.68,531.90L218.22,526.89L223.87,527.24L222.84,525.78ZM230.96,485.52L228.50,486.15L230.48,485.14L227.78,479.77L230.76,477.83L225.96,479.19L225.25,483.82L224.39,480.67L231.58,473.72L241.11,479.82L238.42,484.42L236.68,483.38L237.21,480.08L233.18,480.86L230.96,485.52Z"><title>尾鷲市</title></path>
<path data-code="24210" data-name="亀山市" d="M264.50,185.69L248.50,184.95L243.71,191.17L237.50,188.70L232.03,189.64L228.53,186.51L232.00,185.23L232.38,179.75L236.21,177.31L232.13,169.77L234.14,165.36L241.29,163.37L245.99,157.52L261.75,151.28L262.34,144.37L264.83,143.30L263.96,136.12L268.33,131.86L279.46,134.70L283.67,140.64L283.59,145.00L289.77,150.59L298.83,151.25L301.83,148.88L302.00,151.98L304.75,152.77L304.87,162.34L303.06,163.87L305.40,167.58L300.58,179.14L303.06,179.52L301.80,180.56L303.95,184.57L302.63,193.02L300.75,190.90L299.03,192.85L299.37,190.34L295.52,190.73L293.74,187.67L289.98,189.51L285.16,184.89L284.76,177.74L280.65,175.86L269.41,179.39L264.50,185.69Z"><title>亀山市</title></path>
<path data-code="24211" data-name="鳥羽市" d="M410.06,349.92L402.19,346.36L401.08,337.95L403.31,333.31L407.53,332.64L408.53,323.99L416.79,321.34L414.97,314.30L417.96,313.47L418.92,319.45L422.69,319.47L423.13,323.93L429.58,323.69L430.36,326.29L433.20,326.46L431.25,327.92L431.53,331.51L428.80,331.98L431.56,333.34L429.27,334.57L433.01,333.75L432.52,336.14L435.70,336.39L432.66,340.87L435.31,342.45L432.68,345.00L437.76,342.49L435.00,340.42L440.67,337.25L438.60,335.56L444.53,334.04L449.11,338.85L447.13,346.03L450.39,351.16L443.94,357.35L445.81,361.87L443.21,362.11L445.39,365.45L443.19,366.64L440.04,365.35L439.85,361.10L436.44,363.46L437.03,360.09L433.85,361.36L435.49,362.61L434.32,364.74L431.77,363.26L429.47,359.16L427.52,359.45L430.17,356.44L428.67,354.39L423.01,353.50L422.21,356.90L419.18,357.08L410.06,349.92ZM426.62,322.79L424.39,320.74L429.38,320.23L426.62,322.79ZM432.41,322.62L433.37,318.40L443.71,314.76L443.07,320.39L440.47,320.50L436.82,325.48L432.41,322.62ZM432.41,312.28L422.69,312.83L424.97,309.35L430.73,308.78L433.92,305.20L430.30,304.09L441.25,300.50L442.23,307.96L438.49,306.72L432.41,312.28ZM468.07,299.07L466.40,296.82L468.10,295.10L466.28,295.79L467.99,294.53L470.20,295.83L468.07,299.07Z"><title>鳥羽市</title></path>
<path data-code="24212" data-name="熊野市" d="M97.09,597.84L90.72,592.93L92.26,580.87L89.80,575.44L92.77,569.65L92.56,574.73L95.88,576.76L98.30,571.52L104.71,572.37L105.97,566.14L102.91,562.57L103.10,567.45L100.80,566.99L101.47,561.72L98.41,556.54L103.91,557.48L104.39,551.39L111.28,552.07L112.94,554.36L116.70,553.05L116.25,550.79L111.30,550.53L112.72,546.19L115.99,546.52L115.07,543.29L128.25,548.60L131.45,540.83L131.70,532.74L134.70,532.36L139.23,537.27L143.49,529.91L137.45,518.88L140.56,518.50L140.24,513.93L145.59,504.45L149.65,506.46L153.58,502.87L156.43,506.28L163.43,505.66L171.37,510.30L188.66,509.13L189.62,513.94L184.88,516.12L183.13,521.28L186.38,534.22L195.31,536.86L198.30,533.00L203.17,537.98L210.44,537.35L216.82,540.77L211.87,540.77L212.39,545.69L210.44,547.50L208.64,545.55L210.50,544.38L206.39,541.85L200.07,543.99L205.25,545.73L204.13,549.77L205.80,551.89L199.30,554.89L195.93,554.67L194.79,550.09L196.82,549.51L189.28,547.45L189.99,554.99L185.52,556.63L189.06,561.20L183.99,560.50L185.54,563.53L182.76,566.18L181.01,561.31L178.66,560.55L178.22,563.97L172.82,566.05L161.16,584.32L161.67,579.01L151.64,571.39L150.77,563.10L141.11,564.50L137.06,562.49L136.14,565.35L132.88,563.98L128.20,568.35L129.13,575.19L126.36,577.11L126.16,581.80L118.16,582.68L117.53,586.08L121.71,592.43L114.44,599.65L115.37,605.47L112.28,604.59L105.94,608.59L102.93,600.65L97.09,597.84Z"><title>熊野市</title></path>
<path data-code="24214" data-name="いなべ市" d="M327.81,78.69L328.87,84.18L326.46,86.41L315.96,81.54L316.38,78.35L312.80,76.05L298.85,74.83L287.21,77.38L286.50,65.39L289.25,62.26L285.07,59.39L287.99,51.87L291.59,50.56L291.42,46.50L281.42,37.58L276.04,36.44L279.17,29.69L278.51,22.96L283.50,19.26L287.29,24.28L295.35,15.74L296.70,17.92L300.78,15.03L308.67,16.96L312.04,9.30L318.13,8.00L320.37,16.00L323.58,17.78L322.55,22.96L325.78,22.83L326.73,28.55L332.17,30.31L338.30,38.99L332.63,42.88L331.27,52.87L338.40,65.35L327.81,78.69Z"><title>いなべ市</title></path>
<path data-code="24215" data-name="志摩市" d="M421.76,417.72L395.65,413.73L394.42,410.33L390.48,409.57L396.87,405.82L399.65,407.72L402.16,406.00L405.09,409.17L404.87,406.35L408.41,409.54L411.87,408.69L411.26,412.39L413.16,411.70L413.20,408.03L416.41,408.67L417.42,414.15L417.27,411.00L419.20,410.85L419.10,414.15L423.81,408.19L423.64,412.24L424.57,410.14L427.17,411.43L424.77,409.68L428.29,409.37L426.54,408.28L428.07,407.15L424.88,407.01L427.17,405.52L423.02,407.35L422.22,404.88L421.78,409.05L417.35,407.37L418.39,404.00L416.62,403.34L420.16,403.48L418.55,400.74L429.69,402.77L428.57,400.64L423.26,400.95L424.45,396.68L421.46,399.58L416.27,396.98L418.16,394.71L420.87,396.96L420.49,394.20L423.37,395.78L424.19,394.23L420.70,393.32L423.29,391.54L419.72,394.35L415.79,393.43L415.48,390.72L409.14,394.00L410.33,391.83L408.15,389.86L411.01,386.00L409.13,386.01L406.47,389.42L408.25,390.95L404.54,393.88L411.17,398.16L407.46,398.33L407.69,400.50L404.67,402.12L399.81,400.63L400.92,397.01L398.26,399.11L398.10,396.26L401.28,394.78L397.94,393.94L399.35,391.11L396.86,393.55L393.35,391.34L395.67,395.28L393.64,394.52L393.98,396.97L391.18,397.87L395.67,401.04L386.35,396.58L374.33,394.92L375.61,391.87L389.02,387.07L392.53,380.60L389.78,376.27L392.25,371.32L388.33,362.91L391.00,362.32L393.59,351.93L403.91,346.77L408.39,347.83L419.18,357.08L422.21,356.90L423.01,353.50L430.20,355.83L427.52,359.45L429.53,359.25L433.07,368.40L429.54,366.86L431.25,368.68L426.31,371.44L424.71,368.42L421.09,368.16L422.18,369.75L418.53,372.35L411.48,369.65L414.90,371.81L415.31,375.62L419.74,375.01L422.93,368.78L425.11,369.99L424.06,374.46L429.21,371.50L430.71,374.36L427.67,376.49L429.39,376.56L429.66,380.01L435.43,372.46L437.99,373.26L438.03,370.63L439.69,372.49L443.93,370.87L434.64,378.94L433.34,383.03L433.90,387.39L438.34,391.04L435.48,397.91L441.52,403.76L440.14,406.43L441.93,403.95L441.41,406.15L430.67,408.20L430.79,412.56L425.02,412.95L423.30,419.12L421.76,417.72ZM412.80,395.20L411.08,393.77L414.39,392.54L416.08,394.52L412.80,395.20ZM432.41,373.24L429.59,370.61L433.11,369.89L432.41,373.24Z"><title>志摩市</title></path>
<path data-code="24216" data-name="伊賀市" d="M222.84,282.18L214.91,283.75L212.75,292.58L208.96,288.86L205.27,290.17L199.57,277.23L199.15,264.44L190.06,256.87L190.42,253.37L186.65,249.09L186.92,246.51L180.63,247.73L179.60,245.22L183.17,241.98L179.40,239.42L176.57,246.99L166.54,243.18L164.13,235.51L156.97,232.69L162.52,229.56L161.84,224.95L151.80,211.67L148.60,211.27L150.27,202.32L146.59,201.15L145.77,197.89L169.29,189.09L170.92,186.19L167.86,178.66L174.04,177.45L174.91,172.57L181.39,168.79L180.58,164.47L173.60,165.60L167.73,162.57L168.34,157.09L171.88,157.65L174.62,153.25L176.71,152.55L177.58,156.06L183.01,160.15L184.88,158.00L188.61,160.65L198.94,158.53L198.94,161.49L202.88,164.22L215.40,169.15L224.10,170.30L233.07,164.20L232.13,169.77L236.21,177.31L232.38,179.75L232.11,185.09L228.68,187.45L243.71,191.17L245.37,198.86L250.41,199.16L253.62,204.80L245.31,215.27L239.77,217.40L238.48,220.85L242.81,224.51L229.69,240.22L230.53,244.09L228.13,245.45L231.23,249.60L226.59,252.65L221.25,262.83L222.87,275.46L225.88,277.55L223.24,279.87L224.82,281.83L222.84,282.18Z"><title>伊賀市</title></path>
<path data-code="24303" data-name="木曽岬町" d="M389.12,78.69L391.64,91.02L397.41,103.87L394.96,103.96L390.88,98.80L391.11,94.59L388.10,96.80L383.49,89.05L378.45,69.81L389.12,78.69Z"><title>木曽岬町</title></path>
<path data-code="24324" data-name="東員町" d="M327.88,86.40L329.03,82.28L327.35,78.87L337.38,65.48L347.07,74.21L344.57,78.52L341.01,78.44L343.66,83.00L340.26,92.82L330.82,90.66L327.88,86.40Z"><title>東員町</title></path>
<path data-code="24341" data-name="菰野町" d="M287.65,112.59L280.23,112.74L278.87,104.65L281.34,100.59L279.19,100.22L278.45,95.74L281.39,89.43L286.88,86.33L284.97,78.94L288.14,76.69L312.80,76.05L316.38,78.35L315.95,81.52L320.56,87.12L318.16,97.12L326.47,97.78L324.82,105.72L319.20,105.16L318.17,107.32L321.57,112.55L294.14,116.40L287.65,112.59Z"><title>菰野町</title></path>
<path data-code="24343" data-name="朝日町" d="M356.16,95.64L365.34,93.56L368.87,99.61L366.01,96.74L365.17,100.98L358.42,102.23L353.98,98.34L354.20,95.08L356.16,95.64Z"><title>朝日町</title></path>
<path data-code="24344" data-name="川越町" d="M367.22,96.93L373.85,104.03L373.73,109.66L365.03,110.06L363.69,105.51L360.87,107.83L358.44,105.22L360.41,101.22L366.24,99.87L366.01,96.74L368.87,99.61L367.22,96.93Z"><title>川越町</title></path>
<path data-code="24441" data-name="多気町" d="M277.23,349.91L275.58,349.60L275.75,345.93L280.75,339.70L280.19,330.10L273.14,327.93L283.08,322.72L288.83,325.53L292.01,321.12L300.31,322.19L304.63,319.58L299.18,316.82L303.64,312.68L307.75,316.15L319.53,313.80L328.81,307.25L336.22,306.37L336.11,312.53L340.86,315.22L339.46,314.54L340.96,316.35L333.21,323.92L334.82,329.55L333.11,335.68L323.53,336.49L322.71,332.42L308.77,334.47L309.12,336.84L305.02,338.46L306.23,340.72L296.23,342.16L295.46,345.38L290.80,348.39L277.23,349.91Z"><title>多気町</title></path>
<path data-code="24442" data-name="明和町" d="M348.21,309.68L344.84,308.84L344.54,312.92L340.82,314.61L336.11,312.53L336.42,305.67L341.22,300.26L343.33,291.19L345.77,290.76L345.62,287.80L342.95,286.96L344.97,278.19L341.96,277.57L341.46,274.99L350.21,276.10L356.25,279.83L360.47,289.03L359.86,295.01L356.01,297.45L355.43,301.24L360.49,304.41L360.75,307.46L358.48,306.36L357.41,308.46L357.14,306.15L356.36,309.50L348.21,309.68Z"><title>明和町</title></path>
<path data-code="24443" data-name="大台町" d="M179.54,451.62L174.42,449.60L175.51,444.10L170.07,442.05L171.73,437.05L178.66,432.25L175.79,426.62L182.70,420.61L183.22,416.94L178.60,413.40L179.86,410.75L176.56,405.21L171.81,401.92L171.12,396.18L182.43,390.79L192.08,391.90L194.72,387.53L202.19,387.37L201.46,381.08L204.48,378.83L223.82,374.96L229.93,369.47L225.04,362.78L230.55,353.94L259.59,353.59L265.49,355.56L272.61,350.16L290.80,348.39L295.46,345.38L296.23,342.16L306.23,340.72L305.02,338.46L309.12,336.84L308.77,334.47L322.74,332.44L324.44,338.00L322.60,340.96L312.08,344.65L305.92,342.78L305.01,348.28L299.19,348.90L291.91,358.63L288.55,359.49L289.29,369.65L282.96,365.29L284.80,362.27L282.74,357.38L274.99,360.58L279.41,364.03L276.84,375.23L264.09,381.16L257.81,389.55L247.91,389.71L244.31,397.66L229.25,401.83L228.33,409.23L220.48,413.06L219.61,418.70L212.03,419.31L210.69,424.90L208.03,426.32L208.55,429.63L203.28,431.28L203.54,440.62L190.45,443.61L186.60,451.61L179.54,451.62Z"><title>大台町</title></path>
<path data-code="24461" data-name="玉城町" d="M333.00,333.35L334.74,320.75L340.82,316.54L340.22,313.66L344.54,312.92L344.84,308.84L355.03,308.17L356.53,310.17L356.37,307.45L358.42,308.35L356.82,311.09L353.54,309.14L356.91,311.81L353.29,316.07L356.82,316.91L359.66,314.36L355.20,322.37L358.84,320.36L358.23,323.59L363.92,325.87L357.20,333.61L348.33,335.51L344.60,332.70L341.69,336.62L336.02,334.62L337.55,338.50L333.88,336.59L333.00,333.35Z"><title>玉城町</title></path>
<path data-code="24470" data-name="度会町" d="M342.70,383.81L337.68,385.64L335.53,390.62L331.09,388.06L322.49,389.49L310.78,381.91L313.58,373.43L312.00,367.59L316.05,364.63L313.70,359.20L318.23,350.95L315.63,342.32L322.47,341.05L325.28,335.76L333.11,335.68L337.55,338.50L336.02,334.62L341.69,336.62L344.60,332.70L348.33,335.51L357.20,333.61L357.87,336.17L351.14,343.93L355.27,349.56L354.71,357.31L350.43,360.16L352.80,361.97L352.75,365.74L344.84,370.79L341.69,380.09L342.70,383.81Z"><title>度会町</title></path>
<path data-code="24471" data-name="大紀町" d="M264.75,438.21L263.22,436.19L264.09,428.94L258.65,421.67L243.19,420.41L238.16,414.84L238.52,410.81L228.20,406.88L229.25,401.83L244.31,397.66L247.91,389.71L257.81,389.55L264.09,381.16L276.84,375.23L279.41,364.03L274.99,360.58L282.74,357.38L284.80,362.27L282.96,365.29L288.98,369.82L290.18,366.32L287.76,364.68L288.55,359.49L291.91,358.63L299.08,348.98L305.01,348.28L306.04,342.72L312.08,344.65L316.42,342.82L318.23,350.95L313.70,359.20L316.05,364.63L312.00,367.59L313.58,373.43L310.78,381.91L305.76,386.60L294.57,386.16L292.34,389.23L290.95,401.05L279.78,403.32L282.72,409.66L279.35,413.07L278.70,422.56L283.43,429.98L282.86,432.40L278.60,432.51L272.59,436.91L270.04,433.00L273.79,432.44L273.19,430.34L270.02,430.22L264.75,438.21Z"><title>大紀町</title></path>
<path data-code="24472" data-name="南伊勢町" d="M278.72,422.67L279.35,413.07L282.72,409.66L279.77,403.34L290.95,401.05L292.34,389.23L294.57,386.17L305.88,386.57L310.41,381.86L322.49,389.49L331.09,388.06L335.66,390.60L337.68,385.64L342.75,384.13L341.69,380.09L344.86,370.76L352.18,367.34L352.81,362.01L350.43,360.16L353.49,357.64L364.38,359.94L370.11,358.42L371.91,362.70L380.80,360.09L388.25,362.82L388.15,365.70L391.84,369.63L389.78,376.27L392.52,380.73L389.02,387.07L375.21,392.18L374.39,395.02L378.51,395.35L378.85,398.72L370.32,403.94L367.93,399.74L370.63,399.97L369.92,394.83L373.83,392.25L371.27,391.77L371.76,389.54L374.29,390.17L372.92,388.05L374.49,386.91L376.96,390.30L375.07,385.56L377.63,386.40L377.69,384.63L379.39,388.27L378.87,384.74L383.75,383.86L381.11,383.48L382.44,379.57L378.82,381.40L378.15,378.17L376.01,382.65L376.34,377.46L370.99,377.92L372.16,383.11L368.14,387.73L369.76,382.69L366.44,382.15L370.76,378.90L365.78,381.67L360.82,378.83L359.07,381.02L364.02,382.30L361.84,385.48L364.57,387.52L359.78,385.90L360.33,389.26L357.34,387.91L352.56,393.79L358.04,390.64L360.64,391.65L358.75,393.15L360.27,393.65L362.83,392.31L361.67,390.21L364.23,390.54L363.34,392.21L366.16,391.06L357.00,400.45L360.37,401.87L352.36,403.40L352.23,407.01L346.31,408.29L341.89,414.27L335.48,414.73L333.35,407.47L336.44,410.97L336.95,408.91L332.94,406.17L330.53,407.29L333.84,403.11L333.54,405.87L336.47,402.89L338.74,404.95L339.73,403.41L337.45,402.60L339.24,401.07L337.28,399.26L336.63,401.97L334.18,399.87L333.91,402.30L326.37,403.37L326.77,407.43L323.18,404.32L326.29,410.64L322.83,413.86L322.84,417.77L319.19,415.11L320.46,406.14L315.66,413.67L316.95,408.26L314.17,407.93L314.32,410.95L310.50,409.07L311.36,406.19L307.22,406.48L309.02,408.01L309.48,416.79L313.12,421.48L310.01,420.79L309.94,418.28L306.03,415.77L306.93,413.92L304.29,414.18L303.51,417.05L306.63,416.81L308.29,420.51L302.73,419.31L301.61,422.22L302.94,421.19L303.09,424.09L307.76,422.45L310.13,425.29L306.45,425.34L301.06,429.84L301.05,426.78L294.68,425.39L293.30,422.55L293.22,419.91L297.85,418.30L295.44,417.19L296.30,414.86L292.02,419.42L286.59,418.51L291.70,420.67L290.65,426.55L293.32,428.05L290.76,430.07L283.71,430.24L278.72,422.67Z"><title>南伊勢町</title></path>
<path data-code="24543" data-name="紀北町" d="M180.45,471.50L174.05,472.98L172.35,471.12L175.36,467.81L173.19,461.93L177.46,454.47L176.58,451.26L186.60,451.61L190.45,443.61L203.54,440.62L202.59,432.96L204.50,429.93L208.55,429.63L208.03,426.32L210.69,424.90L212.03,419.31L219.61,418.70L220.48,413.06L229.47,407.84L238.52,410.81L238.16,414.84L243.66,420.73L255.01,420.14L264.09,428.94L264.58,439.09L261.09,442.44L259.10,438.44L256.21,440.26L255.95,436.22L259.77,434.88L257.12,433.20L251.96,438.90L246.94,439.59L249.76,440.82L253.43,438.06L250.45,442.74L251.34,445.60L247.25,443.64L245.39,446.41L240.88,446.14L235.85,455.60L232.13,453.94L235.05,458.55L231.89,463.92L237.20,467.71L234.24,471.38L238.16,473.81L239.04,471.22L244.86,472.43L242.22,473.28L240.40,479.21L232.62,473.38L225.64,477.49L224.20,483.52L222.19,477.54L231.42,470.03L228.94,466.89L223.74,473.91L219.86,475.44L220.82,476.61L215.53,478.52L218.29,484.12L211.31,481.51L202.64,482.81L200.63,480.75L196.85,482.70L194.16,475.28L188.12,470.66L180.45,471.50Z"><title>紀北町</title></path>
<path data-code="24561" data-name="御浜町" d="M118.69,587.48L118.57,582.26L126.17,581.78L126.36,577.11L129.13,575.19L129.03,567.14L132.88,563.98L136.14,565.35L137.06,562.49L141.11,564.50L150.77,563.10L151.64,571.39L161.79,579.39L149.57,612.06L140.96,610.07L141.18,604.30L133.26,592.04L127.18,593.85L118.69,587.48Z"><title>御浜町</title></path>
<path data-code="24562" data-name="紀宝町" d="M118.81,625.31L118.45,618.35L114.99,619.50L111.14,614.37L107.79,614.17L105.94,608.59L115.99,604.75L114.44,599.65L120.91,594.39L121.68,588.46L127.18,593.85L133.26,592.04L141.18,604.30L140.96,610.07L149.57,612.06L146.72,626.00L143.72,627.45L146.69,627.03L142.99,631.99L132.13,626.47L129.57,628.06L131.09,632.00L126.78,631.58L118.81,625.31Z"><title>紀宝町</title></path>
  </g>
</svg>
