<?xml version="1.0" encoding="UTF-8"?>
<svg xmlns="http://www.w3.org/2000/svg" viewBox="0 0 560 640" class="pref-muni-svg" role="img" aria-label="自治体境界図">
  <g class="pref-muni-svg__paths" fill="#eaf2fb" stroke="#5b7fa8" stroke-width="0.6" stroke-linejoin="round">
<path data-code="45201" data-name="宮崎市" d="M342.03,467.66L344.24,472.42L340.31,474.42L342.09,479.95L339.08,476.57L328.93,476.08L323.42,472.57L321.29,467.90L316.58,467.22L316.28,460.11L312.41,459.11L310.49,455.34L307.97,458.78L302.91,458.73L295.12,454.19L285.53,454.46L284.70,460.98L277.60,461.93L270.05,459.58L269.08,454.74L260.57,455.59L260.22,443.28L253.88,434.91L261.26,429.73L259.76,421.24L265.62,421.11L263.96,418.56L265.60,414.26L262.94,413.11L264.44,409.63L260.12,414.18L252.41,412.13L248.55,420.00L242.67,412.60L242.92,400.19L246.24,396.61L249.99,399.26L253.47,396.10L251.49,391.42L243.91,385.26L249.73,371.11L245.22,367.00L251.11,363.90L255.20,374.21L273.87,369.14L279.37,369.84L286.26,376.34L291.45,376.72L293.33,371.28L298.90,370.02L307.47,375.60L310.01,360.67L313.76,355.79L312.70,348.08L317.14,342.02L315.53,340.35L318.66,334.43L326.88,340.07L333.34,338.14L348.72,344.67L356.15,342.60L343.60,384.83L343.59,393.12L341.68,394.07L343.82,392.62L344.58,396.21L342.47,394.58L339.02,397.59L337.17,404.99L339.57,403.94L340.55,398.59L343.61,399.23L348.57,394.61L342.39,399.30L338.24,411.43L340.55,412.61L339.83,415.62L337.74,415.76L336.62,420.72L337.15,439.90L349.35,452.89L345.02,462.37L345.31,466.65L344.01,463.71L342.03,467.66Z"><title>宮崎市</title></path>
<path data-code="45202" data-name="都城市" d="M170.74,467.66L166.98,467.00L166.69,464.13L171.69,458.72L170.01,454.94L149.95,452.59L145.09,444.82L133.29,444.27L130.63,439.91L132.48,433.17L129.97,428.54L134.75,426.06L134.62,420.28L139.94,410.78L156.42,408.34L171.44,412.30L174.81,410.76L181.64,398.06L184.12,398.21L182.84,396.25L184.84,391.14L189.12,391.71L194.91,397.44L209.17,400.05L211.55,394.13L206.22,391.71L206.38,388.32L212.49,391.24L221.91,385.47L229.32,386.27L229.32,388.66L237.56,385.44L246.76,387.57L251.49,391.42L253.12,396.64L249.99,399.26L246.14,396.65L242.31,402.77L242.67,412.60L248.54,419.99L252.36,412.14L260.12,414.18L264.63,409.69L262.94,413.11L265.59,414.21L263.96,418.56L265.62,421.11L259.85,421.05L261.26,429.73L253.88,434.91L260.19,443.22L260.49,447.51L248.32,459.61L248.01,463.16L240.27,465.60L235.79,473.60L231.01,473.04L228.01,471.81L227.18,467.26L222.40,463.62L219.91,457.33L214.51,458.44L211.49,462.89L213.42,467.08L210.76,471.55L210.86,475.32L213.03,476.23L208.62,477.11L210.61,478.26L208.86,484.32L215.95,489.26L219.91,498.33L226.65,502.23L235.06,502.13L239.30,509.52L245.34,512.27L247.06,516.18L243.94,522.57L233.45,514.33L228.41,518.32L216.80,518.60L203.01,505.56L194.10,516.89L190.63,508.02L183.81,502.74L183.13,492.24L185.10,490.07L179.33,483.23L180.67,468.79L170.74,467.66Z"><title>都城市</title></path>
<path data-code="45203" data-name="延岡市" d="M414.05,152.20L412.10,147.84L404.21,142.84L399.92,141.64L394.66,144.01L391.00,136.95L386.31,140.23L382.60,135.52L382.80,131.51L377.02,131.90L370.83,136.08L361.00,133.21L355.19,126.97L344.72,122.75L339.20,126.78L328.59,127.45L332.25,118.77L334.72,118.63L336.40,102.93L335.09,97.64L330.19,94.67L332.18,85.76L329.89,82.99L334.85,78.51L336.63,69.59L346.34,62.23L348.11,56.09L346.77,50.52L350.00,46.19L347.44,39.43L349.78,35.58L356.48,35.33L366.54,41.89L377.89,43.84L386.53,34.87L413.83,38.55L423.39,35.11L428.82,36.17L430.65,29.49L435.51,24.56L437.74,11.33L448.85,8.00L456.17,10.25L458.54,15.19L469.46,11.82L473.06,16.14L481.53,15.19L482.20,21.89L476.53,34.31L478.40,40.18L477.53,51.50L491.37,47.32L488.30,52.39L481.50,53.37L483.98,59.75L478.66,57.33L479.87,58.69L477.17,63.43L480.86,67.63L478.96,69.48L474.54,70.29L472.90,68.79L474.26,67.66L470.14,66.66L472.04,66.71L470.25,63.89L466.74,65.47L466.50,72.07L457.96,76.11L457.07,82.69L455.74,77.72L452.56,77.63L450.72,84.45L447.27,84.32L450.37,86.87L448.03,86.87L448.34,90.88L443.06,89.74L445.56,94.10L446.14,91.51L451.28,91.94L446.79,99.74L447.59,103.18L443.88,104.37L444.76,107.69L440.09,112.36L429.42,113.25L422.53,123.03L418.69,133.38L421.27,142.76L419.04,144.20L419.43,147.22L422.22,147.90L420.59,145.41L422.32,144.70L425.30,148.66L425.12,143.55L430.09,142.72L428.53,149.98L435.01,152.47L427.70,151.86L419.15,155.37L414.05,152.20ZM473.84,80.73L469.59,85.63L463.12,81.21L465.88,80.90L463.77,79.31L467.30,77.50L473.84,80.73Z"><title>延岡市</title></path>
<path data-code="45204" data-name="日南市" d="M289.88,573.19L287.94,575.76L282.48,575.95L280.84,570.62L277.53,568.43L278.32,560.47L274.20,557.96L274.49,551.97L269.77,548.46L272.81,544.49L265.89,536.77L266.41,524.85L259.92,520.06L252.40,520.46L251.08,516.82L239.30,509.52L235.12,502.18L231.99,501.18L240.28,489.53L247.33,487.03L251.00,484.37L250.04,482.47L256.68,482.78L260.32,474.67L267.58,473.58L271.06,459.83L284.65,461.00L285.53,454.46L295.12,454.19L302.91,458.73L307.97,458.78L310.49,455.34L312.41,459.11L316.28,460.11L316.58,467.22L321.29,467.90L323.42,472.57L328.93,476.08L339.08,476.57L342.09,479.95L339.08,481.12L340.21,487.23L337.72,489.92L342.29,494.52L335.69,497.34L337.59,499.55L336.30,501.59L339.73,501.60L340.35,505.42L338.33,506.32L342.47,511.85L338.48,511.28L336.56,514.47L339.92,516.96L337.92,520.82L324.16,529.54L320.97,535.38L322.64,540.04L319.84,546.49L318.90,543.22L321.20,541.15L318.08,538.58L318.49,543.04L314.49,546.07L316.85,548.36L311.30,549.72L311.19,554.15L313.21,554.14L311.85,555.49L314.05,555.09L313.07,558.75L310.69,559.06L313.03,563.33L311.82,568.38L309.90,564.84L307.86,565.72L309.97,567.85L308.16,570.59L312.52,572.19L312.10,575.29L299.74,577.59L289.88,573.19ZM320.17,563.08L318.94,559.71L322.85,555.75L324.19,568.19L320.17,563.08Z"><title>日南市</title></path>
<path data-code="45205" data-name="小林市" d="M132.94,398.03L132.61,395.43L125.09,390.02L130.19,377.34L136.36,372.69L134.97,366.10L131.12,365.56L133.09,354.90L131.05,351.61L135.34,345.79L146.43,347.67L155.12,340.78L158.32,331.88L164.69,327.93L161.43,325.10L157.96,313.61L165.55,311.13L165.61,304.35L172.35,299.22L171.94,295.48L175.47,290.62L179.31,288.53L187.95,290.27L195.67,296.78L200.34,294.48L209.42,297.89L213.63,294.54L218.08,301.10L221.33,300.39L222.38,304.58L228.16,304.52L228.64,306.73L231.00,303.88L234.91,305.09L240.78,326.05L231.73,331.16L234.40,339.76L230.85,343.50L231.03,350.50L228.42,351.80L233.42,358.70L234.39,364.88L240.74,365.11L249.47,370.48L248.53,376.49L243.64,382.62L245.81,387.59L237.41,385.43L229.19,388.66L229.32,386.27L221.91,385.47L210.86,391.32L209.83,388.45L204.20,388.35L194.36,379.38L189.22,380.48L189.21,382.64L186.47,380.76L180.23,382.03L178.27,386.07L168.03,372.37L162.58,381.10L163.15,390.96L156.34,389.65L144.96,397.54L144.00,410.20L137.84,409.51L132.94,398.03Z"><title>小林市</title></path>
<path data-code="45206" data-name="日向市" d="M296.11,221.64L300.20,207.24L310.01,212.34L316.57,208.09L319.85,197.64L334.20,196.37L344.86,191.06L347.56,186.31L347.31,176.65L344.42,174.39L346.19,171.12L355.10,169.28L357.35,172.67L365.85,174.68L367.00,177.60L370.86,174.60L377.34,174.25L385.46,161.26L390.20,163.11L392.58,167.34L396.40,165.23L399.97,169.25L408.71,169.61L409.47,173.34L404.17,176.76L407.44,178.63L412.10,172.39L411.46,177.88L416.42,175.11L415.87,170.45L417.79,180.62L408.53,181.12L414.33,181.23L416.45,184.27L421.41,183.12L414.11,188.28L408.09,187.53L404.78,190.02L400.89,201.44L402.16,205.54L397.39,210.99L399.59,217.59L394.46,218.54L384.88,235.71L384.98,233.07L382.03,231.71L379.16,237.11L376.23,235.37L374.01,233.54L373.73,226.61L371.03,225.55L363.63,227.45L352.95,237.48L348.51,236.14L347.79,231.62L343.36,227.50L339.85,231.28L334.26,229.78L326.88,232.94L311.77,228.41L304.37,231.60L306.89,226.30L296.11,221.64Z"><title>日向市</title></path>
<path data-code="45207" data-name="串間市" d="M264.06,622.04L258.87,613.13L261.57,604.32L258.14,602.59L256.07,605.17L252.93,598.45L248.19,596.45L249.70,595.07L248.25,592.94L246.12,594.90L245.96,592.31L239.66,591.56L237.05,594.34L231.89,590.21L235.45,573.25L246.45,565.70L245.07,552.30L242.21,548.91L246.06,546.13L248.12,539.44L240.88,526.57L247.29,515.23L254.94,521.81L259.92,520.06L266.83,525.54L265.89,536.77L271.50,541.31L272.81,544.49L269.77,548.46L274.49,551.97L274.17,557.90L278.59,561.51L277.45,568.24L280.84,570.62L282.36,575.85L287.99,575.74L291.60,572.30L292.74,575.42L299.74,577.59L313.03,574.96L311.82,577.16L313.98,579.34L304.47,585.11L304.58,591.70L307.79,594.49L307.38,603.46L297.50,610.28L298.25,615.97L293.54,616.94L295.38,616.74L294.35,623.37L300.00,627.31L298.56,630.81L294.64,632.00L288.56,628.66L285.27,619.32L280.95,621.67L279.12,619.72L275.63,623.23L264.06,622.04Z"><title>串間市</title></path>
<path data-code="45208" data-name="西都市" d="M272.99,327.00L270.06,320.49L258.51,318.66L252.55,309.72L246.48,310.06L242.30,302.88L244.07,298.86L250.05,298.86L254.17,289.50L266.06,292.10L270.63,286.27L275.55,284.98L270.40,277.36L273.77,276.08L274.47,272.43L268.66,273.04L263.34,270.17L253.78,252.55L255.62,245.97L247.26,239.00L244.50,232.72L237.26,231.30L237.76,225.08L242.61,218.31L254.31,225.35L264.61,223.60L268.65,228.69L283.96,236.59L291.68,245.76L295.06,244.11L300.79,246.02L302.72,250.16L299.85,253.03L302.51,259.47L314.52,272.28L317.80,282.97L322.82,288.23L322.91,293.12L329.71,300.70L335.61,302.61L332.71,310.70L320.06,326.91L320.13,329.35L324.19,323.89L325.57,327.12L322.48,332.13L329.46,339.57L318.66,334.43L315.53,340.35L317.14,342.02L312.70,348.08L312.98,354.40L297.71,349.77L287.71,334.86L286.38,336.51L276.41,331.55L272.99,327.00Z"><title>西都市</title></path>
<path data-code="45209" data-name="えびの市" d="M125.16,389.90L118.03,386.32L108.85,386.90L103.18,383.41L101.20,373.45L96.70,369.27L95.09,355.35L80.67,341.98L68.68,337.63L68.63,329.63L73.11,325.97L74.76,319.59L79.99,316.15L82.40,320.82L85.85,318.21L88.64,321.27L94.42,319.12L110.58,322.07L116.99,316.86L123.69,320.06L127.85,313.64L141.05,305.75L150.73,313.14L158.03,313.43L161.43,325.10L165.01,327.34L158.32,331.88L155.12,340.78L146.43,347.67L135.34,345.79L131.05,351.61L133.09,354.90L131.12,365.56L134.97,366.10L136.36,372.69L130.19,377.34L125.16,389.90Z"><title>えびの市</title></path>
<path data-code="45341" data-name="三股町" d="M219.36,495.32L215.91,489.21L208.86,484.32L210.61,478.26L208.78,476.75L213.03,476.23L210.86,475.32L210.76,471.55L213.42,467.08L211.49,462.89L214.51,458.44L219.91,457.33L228.09,471.91L235.72,473.62L240.27,465.60L248.01,463.16L248.32,459.61L251.30,458.54L253.33,453.53L255.60,453.96L258.18,447.70L260.84,447.90L260.94,455.84L270.14,455.65L270.83,465.39L267.69,473.42L260.32,474.67L256.68,482.78L250.04,482.47L251.00,484.37L247.33,487.03L240.84,489.09L231.18,501.84L221.10,499.34L219.36,495.32Z"><title>三股町</title></path>
<path data-code="45361" data-name="高原町" d="M143.85,410.27L144.96,397.54L156.34,389.65L163.15,390.96L162.58,381.10L168.03,372.37L178.27,386.07L180.23,382.03L186.47,380.76L189.10,382.66L189.22,380.48L194.80,379.43L206.44,388.29L206.22,391.71L211.55,394.13L209.30,400.01L204.52,400.41L184.87,391.13L182.84,396.25L184.12,398.21L179.12,401.41L174.62,410.95L168.14,412.79L156.42,408.34L143.85,410.27Z"><title>高原町</title></path>
<path data-code="45382" data-name="国富町" d="M271.22,369.94L274.25,364.68L273.75,357.68L267.98,349.18L261.87,347.74L252.98,338.77L248.03,324.16L243.22,319.24L242.19,306.64L245.25,306.90L247.84,310.78L252.52,309.69L259.18,319.03L270.06,320.49L276.41,331.55L286.38,336.51L287.98,335.14L296.10,348.64L313.76,355.72L310.01,360.67L307.47,375.60L299.14,370.01L293.33,371.28L290.71,376.83L286.26,376.34L279.37,369.84L271.22,369.94Z"><title>国富町</title></path>
<path data-code="45383" data-name="綾町" d="M245.83,366.69L234.39,364.88L233.42,358.70L228.42,351.80L231.03,350.50L230.85,343.50L234.40,339.76L231.73,331.16L240.78,326.05L235.81,307.42L242.36,306.81L243.22,319.24L248.03,324.16L252.98,338.77L261.87,347.74L267.98,349.18L273.97,358.41L273.24,367.14L267.30,371.35L255.20,374.21L251.11,363.90L245.83,366.69Z"><title>綾町</title></path>
<path data-code="45401" data-name="高鍋町" d="M335.57,308.34L333.09,308.14L333.63,305.23L338.26,306.29L345.34,296.49L348.44,297.42L351.49,293.50L358.07,296.51L360.20,289.69L368.99,295.68L367.80,306.37L360.60,325.27L355.74,321.66L353.65,316.52L344.61,317.14L335.57,308.34Z"><title>高鍋町</title></path>
<path data-code="45402" data-name="新富町" d="M329.54,338.61L322.48,332.13L325.57,327.12L324.19,323.89L320.13,329.35L320.06,326.91L333.09,308.14L339.06,309.92L344.61,317.14L353.65,316.52L355.74,321.66L360.60,325.27L356.15,342.60L348.72,344.67L329.54,338.61Z"><title>新富町</title></path>
<path data-code="45403" data-name="西米良村" d="M219.36,301.15L210.95,289.29L210.61,277.07L204.77,275.09L199.32,266.86L200.25,262.14L189.97,257.48L190.16,251.84L194.06,249.41L192.57,241.72L202.77,243.43L210.34,230.83L214.59,228.54L220.59,232.53L230.49,230.25L234.70,235.21L237.26,231.30L243.18,231.94L247.26,239.00L255.62,245.97L253.78,252.55L263.34,270.17L268.66,273.04L274.47,272.43L273.77,276.08L270.40,277.36L275.52,285.24L270.63,286.27L266.06,292.10L254.17,289.50L250.05,298.86L242.89,300.35L243.83,306.38L238.58,308.13L234.67,307.72L234.84,304.98L231.80,303.70L228.64,306.73L228.16,304.52L222.38,304.58L221.33,300.39L219.36,301.15Z"><title>西米良村</title></path>
<path data-code="45404" data-name="木城町" d="M335.57,305.70L333.63,305.23L335.61,302.61L329.71,300.70L322.91,293.12L322.82,288.23L317.80,282.97L314.52,272.28L302.57,259.57L299.85,253.03L302.72,250.16L300.79,246.02L295.06,244.11L291.68,245.76L277.42,231.69L285.33,226.35L299.50,221.92L306.94,226.39L304.37,231.60L311.77,228.41L326.75,232.93L330.27,253.56L328.19,256.23L333.07,261.77L334.90,279.37L340.53,280.68L346.51,291.50L350.91,294.00L348.44,297.42L345.34,296.49L338.26,306.29L335.57,305.70Z"><title>木城町</title></path>
<path data-code="45405" data-name="川南町" d="M349.03,292.00L346.51,291.50L340.48,280.63L334.91,279.39L333.26,274.92L333.60,264.40L331.38,259.75L340.79,257.54L341.61,253.58L338.92,250.52L343.36,251.43L347.19,256.44L367.31,259.38L369.21,262.48L365.30,263.95L367.49,265.62L371.17,260.68L378.03,262.03L377.58,264.28L379.56,261.69L372.35,282.40L372.66,290.42L371.57,288.37L370.69,290.94L373.09,290.91L370.85,291.08L368.99,295.68L360.20,289.69L357.82,296.59L349.03,292.00Z"><title>川南町</title></path>
<path data-code="45406" data-name="都農町" d="M328.92,257.24L329.83,249.75L326.20,236.79L326.75,232.93L329.86,231.30L339.85,231.28L343.50,227.52L347.79,231.62L348.51,236.14L352.95,237.48L363.63,227.45L371.03,225.55L373.73,226.61L374.04,233.59L378.80,236.98L382.03,231.71L385.04,233.15L384.50,235.66L386.35,232.95L379.18,254.58L380.79,256.68L378.64,264.05L371.17,260.68L367.49,265.62L365.30,263.95L369.21,262.48L367.47,259.47L347.19,256.44L342.26,250.73L338.90,250.54L341.62,253.62L339.93,258.06L331.38,259.75L328.92,257.24Z"><title>都農町</title></path>
<path data-code="45421" data-name="門川町" d="M355.68,169.56L357.80,168.11L356.57,156.77L364.06,153.58L361.80,147.92L364.96,141.29L361.58,136.36L364.17,132.65L370.85,136.08L377.02,131.90L382.80,131.51L382.60,135.52L386.31,140.23L390.88,136.93L394.88,144.12L399.92,141.64L404.33,142.89L419.11,155.36L428.86,151.67L435.33,154.19L432.38,156.86L429.97,155.71L430.95,158.53L423.63,161.76L423.31,164.09L417.04,162.48L417.45,158.04L414.55,160.86L413.50,158.02L410.69,158.02L409.36,161.33L411.06,163.29L409.25,162.36L411.19,163.69L406.45,169.37L399.97,169.25L396.40,165.23L392.58,167.34L390.20,163.11L385.31,161.26L377.34,174.25L366.94,177.62L365.88,174.69L357.35,172.67L355.68,169.56Z"><title>門川町</title></path>
<path data-code="45429" data-name="諸塚村" d="M283.44,151.23L281.37,147.79L274.65,148.25L272.47,140.68L262.67,142.27L257.59,138.92L253.11,140.01L251.43,135.41L252.81,122.99L248.33,114.78L261.62,110.54L265.30,104.35L266.24,91.06L287.57,96.53L292.45,104.93L302.33,105.10L304.09,118.28L308.38,124.02L306.22,126.01L306.57,133.75L316.28,139.14L317.72,148.27L322.55,154.86L319.25,160.55L309.57,166.65L308.66,161.30L312.20,155.71L307.14,155.79L307.62,153.33L302.24,149.31L297.27,150.19L297.19,147.61L291.57,146.63L289.37,150.11L290.69,154.88L283.44,151.23Z"><title>諸塚村</title></path>
<path data-code="45430" data-name="椎葉村" d="M219.36,230.34L216.62,228.28L210.84,230.56L214.68,222.84L209.19,214.32L201.24,209.80L203.22,204.15L199.44,199.91L200.85,196.92L199.02,190.14L190.24,189.82L181.77,176.97L180.52,162.22L177.15,155.28L178.03,144.58L183.78,142.26L181.14,131.31L183.22,128.57L188.59,128.11L189.55,117.36L193.23,114.09L212.20,117.48L214.49,124.72L220.66,126.77L223.05,124.43L232.64,123.82L236.00,120.50L238.01,108.90L245.67,108.62L252.81,122.99L251.02,130.85L253.09,140.00L257.59,138.92L262.67,142.27L272.47,140.68L274.94,145.55L272.70,148.90L279.90,160.50L281.33,168.10L264.43,174.24L263.46,179.95L267.10,193.59L260.04,200.49L254.21,201.66L252.06,205.59L244.64,204.38L244.28,211.27L247.53,215.29L237.76,225.08L234.72,235.19L230.49,230.25L221.30,232.53L219.36,230.34Z"><title>椎葉村</title></path>
<path data-code="45431" data-name="美郷町" d="M264.06,223.46L254.31,225.35L245.74,218.68L247.54,215.21L244.28,211.27L244.63,204.42L252.06,205.59L254.21,201.66L263.75,197.89L267.91,191.32L264.69,187.59L264.12,174.71L281.28,168.30L280.56,161.98L272.49,147.02L279.29,149.53L281.37,147.79L290.54,154.88L289.37,150.11L291.57,146.63L297.19,147.61L297.27,150.19L302.24,149.31L307.62,153.33L307.14,155.79L312.20,155.71L308.66,161.30L309.13,166.30L311.24,166.50L312.66,162.97L319.73,160.03L322.55,154.20L317.74,148.31L316.22,139.06L306.57,133.75L306.22,126.01L308.38,124.02L316.34,122.04L331.63,127.61L345.70,122.83L355.19,126.97L363.01,134.01L361.58,136.36L365.13,142.46L361.80,147.97L364.06,153.58L356.57,156.77L357.76,168.18L344.84,172.33L347.31,176.65L347.56,186.31L343.31,192.52L329.14,197.51L319.85,197.64L316.57,208.09L310.01,212.34L300.20,207.24L296.89,213.96L296.78,223.06L285.33,226.35L278.53,231.34L268.65,228.69L264.06,223.46Z"><title>美郷町</title></path>
<path data-code="45441" data-name="高千穂町" d="M271.90,92.06L270.05,91.10L270.40,80.12L265.08,76.43L260.25,78.25L255.51,72.91L262.99,68.50L257.34,64.17L264.35,59.51L266.92,51.96L258.29,46.64L262.79,37.37L258.52,32.55L262.40,30.13L266.01,17.49L268.57,16.91L269.48,13.28L276.86,11.19L286.11,12.64L296.40,10.38L299.72,14.06L299.33,19.94L302.58,22.60L317.77,18.76L325.28,19.42L318.07,43.05L317.85,50.30L310.58,59.97L306.27,60.59L302.36,67.67L294.22,67.58L289.67,64.54L288.32,69.14L292.12,76.48L285.54,96.44L271.90,92.06Z"><title>高千穂町</title></path>
<path data-code="45442" data-name="日之影町" d="M308.38,124.02L304.09,118.28L302.33,105.10L292.34,104.87L285.54,96.44L292.12,76.48L288.84,66.57L291.05,63.67L294.22,67.58L302.36,67.67L306.27,60.59L310.58,59.97L317.85,50.30L318.07,43.05L325.28,19.42L330.91,12.37L344.60,8.73L348.44,15.32L359.70,24.33L356.48,35.33L349.78,35.58L347.24,39.86L350.00,46.19L346.77,50.52L348.11,56.09L345.49,64.10L336.63,69.59L334.85,78.51L329.89,82.99L332.18,85.76L330.19,94.67L335.09,97.64L336.39,102.85L334.72,118.63L332.30,118.71L332.08,121.98L327.98,125.80L320.79,125.37L316.34,122.04L308.38,124.02Z"><title>日之影町</title></path>
<path data-code="45443" data-name="五ヶ瀬町" d="M212.20,117.48L212.54,113.49L217.48,109.19L215.93,91.22L224.79,81.59L225.92,76.73L228.79,75.08L232.92,78.60L237.27,78.51L238.76,62.28L245.09,55.52L251.26,54.09L257.67,47.98L263.06,48.26L266.88,51.58L264.35,59.51L257.34,64.17L262.99,68.50L255.52,72.85L260.25,78.25L265.08,76.43L270.40,80.12L270.32,91.76L266.16,91.10L265.30,104.35L261.62,110.54L249.19,113.70L246.03,108.76L238.14,108.79L235.58,121.10L220.66,126.77L214.49,124.72L212.20,117.48Z"><title>五ヶ瀬町</title></path>
  </g>
</svg>
