<?xml version="1.0" encoding="UTF-8"?>
<svg xmlns="http://www.w3.org/2000/svg" viewBox="0 0 560 640" class="pref-muni-svg" role="img" aria-label="自治体境界図">
  <g class="pref-muni-svg__paths" fill="#eaf2fb" stroke="#5b7fa8" stroke-width="0.6" stroke-linejoin="round">
<path data-code="04100" data-name="仙台市" d="M192.35,390.41L184.23,391.23L178.73,387.10L177.18,381.53L172.10,381.35L171.47,377.55L167.21,376.55L166.96,371.68L163.48,373.04L164.24,365.93L158.69,363.04L154.39,368.23L143.71,366.51L138.99,369.82L132.19,363.91L128.04,364.16L127.69,360.95L137.15,355.40L126.70,352.79L130.50,349.90L129.28,344.47L131.34,341.54L119.72,326.05L125.54,317.30L122.84,307.24L125.99,302.25L126.37,295.25L131.03,293.05L133.13,295.62L141.65,286.61L144.52,292.17L150.71,295.48L171.26,301.15L170.33,307.13L172.93,314.87L168.66,323.93L185.76,334.25L179.88,343.23L195.22,352.32L206.94,352.10L208.73,358.79L222.92,365.18L224.22,359.22L233.73,358.71L238.13,363.15L242.93,358.76L250.57,372.51L247.84,373.47L249.67,378.19L244.10,381.65L242.91,389.81L231.61,387.82L224.75,391.13L215.31,388.13L213.56,389.99L214.90,392.44L210.04,394.96L210.09,390.60L205.48,389.96L204.33,385.98L199.05,392.09L192.35,390.41Z"><title>仙台市</title></path>
<path data-code="04100" data-name="仙台市" d="M289.59,395.38L287.77,398.25L278.52,394.46L272.97,383.74L258.61,382.59L257.44,387.28L243.99,384.59L244.46,381.14L249.69,378.10L247.75,375.26L250.57,372.51L248.69,368.65L262.08,360.15L263.29,349.48L261.12,344.34L266.45,344.64L264.85,354.99L269.20,359.09L273.84,356.72L275.08,358.61L272.65,365.23L275.28,370.28L292.18,371.95L294.60,375.08L300.32,371.94L299.30,377.77L289.00,378.26L307.88,380.43L298.25,381.08L289.59,395.38ZM302.11,373.11L304.52,371.94L306.91,375.98L301.09,375.50L302.11,373.11Z"><title>仙台市</title></path>
<path data-code="04100" data-name="仙台市" d="M242.91,389.81L244.31,384.48L257.44,387.28L258.61,382.59L272.69,383.68L278.47,394.43L287.77,398.25L274.83,425.69L266.29,419.86L264.28,413.60L258.47,413.32L253.62,408.61L254.77,403.68L242.91,389.81Z"><title>仙台市</title></path>
<path data-code="04100" data-name="仙台市" d="M182.15,388.19L186.64,391.81L198.89,392.15L204.33,385.98L205.48,389.96L210.09,390.60L210.04,394.96L214.90,392.44L213.56,389.99L215.31,388.13L224.75,391.13L231.61,387.82L242.59,389.62L254.77,403.68L253.62,408.61L263.64,414.17L261.57,416.60L264.32,421.49L252.21,420.65L253.63,418.83L251.29,418.25L252.03,420.64L250.13,420.57L248.58,417.77L237.85,419.08L234.98,415.50L235.48,410.95L218.41,403.70L214.45,407.78L209.98,403.47L205.56,405.69L206.40,410.56L210.55,413.19L209.65,415.89L217.26,420.19L213.84,420.24L209.18,425.72L202.65,423.17L194.95,424.56L189.87,421.59L190.28,414.29L186.96,407.80L166.57,400.58L167.58,398.47L162.15,395.77L161.89,392.99L153.70,392.96L154.45,389.41L137.07,380.65L119.44,379.49L85.91,387.50L83.24,384.84L84.60,377.36L93.92,371.74L92.22,362.04L95.87,360.98L96.79,356.26L102.99,358.65L106.67,353.10L103.95,336.98L118.57,324.78L131.34,341.54L129.28,344.47L130.50,349.90L126.70,352.79L137.14,355.27L127.69,360.95L128.24,364.43L132.19,363.91L138.99,369.82L143.71,366.51L154.39,368.23L158.69,363.04L164.24,365.93L163.48,373.04L166.96,371.68L167.23,376.58L171.47,377.55L172.10,381.35L177.18,381.53L178.66,387.04L182.15,388.19Z"><title>仙台市</title></path>
<path data-code="04100" data-name="仙台市" d="M192.35,350.31L179.78,343.06L185.72,334.16L168.14,322.46L172.93,314.87L170.34,306.95L179.22,296.93L183.06,297.62L189.83,307.78L214.69,317.13L221.63,326.11L220.57,332.27L225.45,333.58L222.99,336.94L225.14,340.10L227.64,340.11L229.92,334.22L236.47,332.59L253.94,346.40L257.34,345.21L263.30,349.53L262.08,360.15L247.60,369.68L242.77,358.70L238.13,363.15L233.73,358.71L224.22,359.22L222.92,365.18L208.73,358.79L206.94,352.10L192.35,350.31Z"><title>仙台市</title></path>
<path data-code="04202" data-name="石巻市" d="M478.33,388.19L474.50,386.76L471.04,378.94L467.35,379.14L469.81,374.92L468.67,371.65L476.97,374.31L484.54,389.66L478.33,388.19ZM447.91,369.02L449.32,359.53L452.45,357.48L456.66,366.96L447.91,369.02ZM503.52,364.62L502.98,361.50L511.39,357.01L510.67,359.25L518.95,362.50L514.84,369.87L517.57,374.65L513.08,378.62L504.55,369.65L503.52,364.62ZM484.07,366.26L480.83,366.40L481.75,359.55L474.40,359.37L473.22,353.41L471.14,360.48L464.42,355.80L474.00,348.81L469.73,345.65L469.07,337.55L465.22,343.37L463.94,336.22L459.23,342.89L457.09,342.91L457.37,339.42L451.31,340.52L453.20,338.33L451.10,336.04L454.51,335.82L456.80,331.23L468.06,327.12L457.54,326.81L460.06,323.02L454.00,321.53L457.27,314.14L450.86,317.98L448.44,311.76L441.32,320.85L434.74,322.05L431.11,319.42L433.65,313.63L432.46,309.19L430.93,312.24L430.54,307.63L416.80,307.79L422.03,310.76L412.97,308.04L415.66,312.55L418.77,312.42L415.66,312.61L408.73,306.40L403.51,306.93L404.24,313.68L399.99,314.15L400.85,309.28L396.77,308.99L392.44,314.88L396.49,306.58L400.57,304.11L393.29,304.13L393.37,310.01L386.18,310.94L386.28,300.40L389.93,300.15L390.26,297.11L388.93,291.40L383.60,290.93L381.73,279.97L377.58,277.83L376.70,284.11L365.82,289.29L363.48,284.02L354.08,283.57L352.27,276.04L356.18,271.38L353.27,263.60L358.55,254.98L358.77,248.77L366.26,243.52L377.71,247.21L381.17,229.59L392.18,222.71L394.78,212.03L402.47,213.42L401.38,229.26L412.79,230.02L430.16,218.99L436.23,219.61L445.82,209.81L451.37,211.62L447.78,215.50L455.31,217.92L472.46,204.88L481.54,203.12L487.20,207.23L492.31,199.04L495.14,199.48L495.06,205.62L490.87,212.43L487.34,212.51L487.29,215.31L484.58,212.92L485.85,216.97L479.15,222.88L467.96,225.19L469.64,233.70L475.67,233.03L474.82,235.53L479.34,237.30L478.51,243.82L481.55,247.72L487.95,247.57L489.71,241.84L492.06,244.63L494.24,240.86L497.63,240.79L495.82,247.92L502.72,253.12L497.24,259.60L500.72,261.85L497.03,266.13L498.54,269.03L493.37,269.15L493.06,266.09L489.89,267.59L489.39,257.66L481.79,259.76L477.55,254.27L472.24,253.60L470.36,258.11L474.41,255.33L479.78,261.10L479.90,264.80L482.60,263.88L480.48,269.67L482.52,274.03L473.47,272.97L472.44,269.26L468.11,267.78L460.80,274.51L452.68,270.69L445.26,296.06L445.12,304.10L449.94,308.17L457.71,306.18L464.30,308.78L464.92,317.35L468.70,320.76L474.40,321.35L479.45,317.07L483.23,319.23L488.32,313.91L489.87,317.27L499.24,313.29L499.87,318.84L496.01,322.92L494.41,319.13L490.25,320.43L488.72,317.93L486.88,321.62L479.54,322.54L476.81,325.91L480.03,329.84L491.11,329.38L493.57,339.83L497.44,343.85L493.74,351.17L500.01,355.55L499.42,361.99L494.00,365.50L493.14,377.50L488.58,375.40L488.04,367.09L485.77,366.97L487.58,365.00L484.07,366.26Z"><title>石巻市</title></path>
<path data-code="04203" data-name="塩竈市" d="M287.21,356.31L291.19,350.66L288.84,349.54L297.14,339.27L299.50,339.34L298.92,343.87L304.37,343.62L304.87,346.32L309.07,343.74L310.57,348.16L309.72,351.85L309.88,347.59L306.49,351.71L299.18,353.39L307.49,353.75L303.59,362.00L300.86,361.27L300.48,357.84L290.15,361.35L287.21,356.31ZM329.27,346.83L331.94,350.38L327.58,347.26L324.17,348.62L322.62,345.55L329.27,346.83ZM338.21,350.04L334.54,345.84L336.22,343.80L337.99,345.94L336.92,343.46L340.06,339.05L340.73,345.46L338.95,345.64L340.65,347.38L338.21,350.04Z"><title>塩竈市</title></path>
<path data-code="04205" data-name="気仙沼市" d="M477.23,140.74L474.54,138.34L467.47,143.78L461.35,140.75L457.84,144.68L450.65,145.21L444.71,136.67L454.08,129.31L453.61,125.26L460.56,122.67L457.83,119.43L459.31,112.47L456.62,109.99L468.00,108.32L464.56,96.70L470.91,87.13L465.66,84.21L464.89,77.96L480.91,59.27L478.46,49.61L481.72,38.26L477.67,26.84L479.15,19.08L484.82,16.00L490.93,16.00L493.07,20.30L510.13,18.00L513.32,22.44L523.68,22.88L535.29,30.54L535.42,34.38L540.10,38.08L535.16,38.70L538.63,44.79L541.76,44.61L536.37,50.81L543.64,56.13L541.45,60.01L544.30,62.18L542.97,64.72L549.22,69.49L547.31,74.70L552.00,86.38L545.02,84.20L541.75,75.80L539.71,76.15L540.82,73.95L537.39,73.04L539.12,70.65L537.03,71.17L535.97,67.33L537.87,64.48L534.41,67.84L532.07,65.72L534.99,70.16L531.11,69.16L528.97,74.53L527.00,72.44L524.80,75.62L521.96,68.70L518.31,68.29L517.83,61.00L515.93,60.60L513.25,62.56L520.67,72.65L516.47,90.95L519.41,98.27L521.58,96.99L524.40,101.46L514.88,103.33L513.18,105.75L514.57,108.74L511.86,111.27L510.79,108.61L507.04,109.04L505.61,114.86L492.01,120.98L489.05,131.37L495.40,135.68L495.52,141.06L484.11,143.99L477.23,140.74ZM532.68,98.71L529.02,95.90L524.80,85.28L528.00,82.80L523.62,78.78L532.41,72.83L536.32,81.83L531.64,84.71L533.75,87.39L531.69,89.77L537.10,91.19L537.66,95.20L534.08,95.36L532.68,98.71Z"><title>気仙沼市</title></path>
<path data-code="04206" data-name="白石市" d="M94.53,561.64L85.82,558.16L82.43,542.93L86.49,534.95L98.08,536.66L108.02,528.21L101.50,514.20L103.53,510.37L99.73,506.98L99.59,499.70L92.06,492.73L90.65,479.71L83.98,471.58L86.30,467.23L110.42,464.24L116.22,473.52L133.07,468.51L136.09,470.35L138.89,479.96L150.27,486.80L152.92,495.24L156.19,491.00L174.91,496.06L174.73,505.67L169.09,511.30L171.02,517.96L168.40,521.06L170.04,526.10L166.78,532.45L163.52,537.66L161.59,535.71L144.69,543.00L143.20,547.53L145.62,550.76L142.45,554.93L130.62,558.81L120.92,550.56L118.03,556.94L103.62,557.49L94.53,561.64Z"><title>白石市</title></path>
<path data-code="04207" data-name="名取市" d="M240.97,453.55L240.60,449.41L237.56,449.17L238.12,442.43L236.43,446.54L226.32,445.74L210.23,438.58L207.86,426.15L217.71,419.29L209.61,415.85L210.55,413.19L207.05,411.77L205.63,405.56L210.30,403.49L214.81,407.82L217.93,403.74L222.18,404.60L235.55,411.00L234.98,415.50L237.85,419.08L248.58,417.77L250.13,420.57L252.03,420.64L251.29,418.25L253.63,418.83L252.21,420.65L264.21,421.55L261.57,416.60L264.21,413.56L266.35,419.93L276.97,427.65L273.66,429.64L266.81,446.85L252.67,440.67L243.68,457.78L241.49,457.57L240.97,453.55Z"><title>名取市</title></path>
<path data-code="04208" data-name="角田市" d="M231.70,554.19L229.84,555.36L227.66,549.80L219.87,545.09L214.36,545.33L213.53,550.02L206.79,545.98L206.92,533.60L204.40,537.93L177.57,540.74L173.86,537.42L176.38,535.82L176.56,531.04L167.39,528.35L170.04,526.10L168.40,521.06L171.02,517.96L169.11,511.20L172.87,510.04L175.22,501.08L182.13,496.62L184.57,498.11L193.18,492.46L201.21,492.81L215.98,486.21L221.32,474.28L223.49,497.98L227.05,503.09L227.46,513.94L232.50,528.90L231.51,543.20L233.85,548.10L231.70,554.19Z"><title>角田市</title></path>
<path data-code="04209" data-name="多賀城市" d="M275.08,358.61L287.21,356.31L290.07,361.32L293.68,361.54L300.63,357.87L307.14,369.70L294.60,375.08L292.18,371.95L277.09,371.23L272.65,365.23L275.08,358.61Z"><title>多賀城市</title></path>
<path data-code="04211" data-name="岩沼市" d="M235.82,470.89L225.30,470.71L221.42,464.17L222.36,451.73L219.74,449.66L210.29,451.95L202.95,447.86L210.47,438.77L230.04,446.25L236.43,446.54L238.12,442.43L237.56,449.17L240.60,449.41L241.49,457.57L243.68,457.78L252.67,440.67L266.81,446.86L259.24,488.93L253.49,485.11L254.55,475.95L246.96,465.99L239.65,464.98L235.82,470.89Z"><title>岩沼市</title></path>
<path data-code="04212" data-name="登米市" d="M365.05,223.58L367.69,217.44L359.33,212.70L357.44,216.42L352.54,215.31L331.84,199.93L332.69,192.73L321.81,191.96L319.83,179.31L311.10,173.09L314.60,172.35L321.80,159.03L338.27,149.96L346.92,152.47L354.24,149.29L351.80,148.54L353.28,143.83L349.41,140.41L350.75,123.85L355.10,126.56L359.98,122.93L369.74,130.40L370.21,136.69L373.54,140.82L380.49,141.15L381.73,139.06L378.60,138.79L389.78,134.28L389.97,127.07L395.57,116.76L408.05,118.50L408.90,105.66L412.83,103.70L419.62,111.79L425.71,109.09L432.09,110.60L436.95,117.13L442.68,115.29L443.95,120.16L450.96,122.10L449.12,131.22L444.71,136.67L450.65,145.91L432.99,155.54L434.40,176.24L439.63,177.91L436.03,181.11L435.77,187.73L443.47,201.18L446.53,202.43L444.98,211.90L436.23,219.61L430.16,218.99L410.95,230.19L401.38,229.26L402.47,213.42L394.72,212.06L392.18,222.71L381.17,229.59L379.46,240.67L376.33,231.22L368.78,228.38L365.05,223.58Z"><title>登米市</title></path>
<path data-code="04213" data-name="栗原市" d="M289.59,196.58L285.69,191.97L287.68,187.77L276.89,180.08L279.06,176.22L275.72,162.63L262.29,154.28L257.21,155.43L249.00,151.34L244.34,153.57L235.11,147.67L224.87,149.38L208.43,133.17L198.57,130.53L197.23,133.94L187.33,125.42L193.47,117.66L192.72,101.39L195.48,98.22L190.76,94.12L192.18,85.33L189.83,81.47L192.21,76.69L187.49,65.72L175.77,55.53L184.91,41.58L192.24,37.19L221.31,33.83L243.51,51.78L254.73,52.01L256.36,57.28L259.31,58.51L261.01,55.00L273.20,61.59L283.94,77.90L297.64,72.38L298.34,75.02L306.44,77.29L309.78,73.93L318.67,75.82L325.90,71.65L331.36,76.78L344.09,76.90L346.58,87.49L338.34,96.96L330.85,96.44L329.57,100.05L330.47,104.03L336.72,102.24L337.67,107.04L344.98,109.24L343.49,119.81L350.75,123.85L349.41,140.41L353.28,143.83L351.80,148.54L354.24,149.29L346.92,152.47L338.27,149.96L321.76,159.05L314.60,172.35L311.09,173.02L319.83,179.31L320.87,189.98L326.44,194.26L322.04,199.98L295.60,200.54L289.59,196.58Z"><title>栗原市</title></path>
<path data-code="04214" data-name="東松島市" d="M344.64,346.83L343.21,348.61L346.61,351.12L343.15,352.62L340.74,344.18L347.24,344.11L344.26,336.42L347.86,335.03L351.13,336.96L349.63,339.61L352.83,343.31L351.37,338.37L355.28,338.49L353.28,339.97L355.97,344.09L354.45,347.47L360.65,352.69L352.94,349.41L349.58,352.28L346.12,348.49L347.69,346.51L344.64,346.83ZM338.21,321.38L334.99,314.42L332.68,317.10L326.18,309.69L339.07,302.95L334.45,295.57L334.66,291.27L339.35,288.99L340.45,290.72L337.82,293.23L340.26,294.69L347.09,288.69L357.96,286.44L354.36,283.28L363.30,283.94L364.71,288.93L368.31,288.69L370.39,285.24L376.70,284.11L377.58,277.83L381.73,279.97L383.60,290.93L388.93,291.40L390.13,298.79L386.28,300.40L386.18,310.94L357.34,325.89L352.09,331.35L351.54,336.67L341.09,333.60L343.29,327.61L338.21,321.38Z"><title>東松島市</title></path>
<path data-code="04215" data-name="大崎市" d="M271.23,264.12L267.96,270.63L265.04,268.43L260.39,270.61L248.86,261.75L245.16,249.45L249.34,245.00L250.63,236.11L248.40,233.79L252.01,234.25L252.78,230.19L241.63,224.62L240.30,218.91L242.45,215.07L239.25,208.44L199.52,169.15L197.71,171.94L192.49,171.75L181.41,160.85L176.56,161.49L173.70,165.33L165.37,164.38L163.91,168.53L158.62,171.23L156.56,165.49L151.44,165.60L147.75,170.15L143.33,169.13L143.19,164.98L136.66,163.17L136.77,154.20L141.87,149.63L147.63,134.63L152.07,130.38L148.50,126.47L144.49,128.18L135.37,123.34L132.32,114.10L133.57,102.71L130.39,97.37L118.10,91.80L115.90,86.06L110.68,84.54L113.43,70.98L119.21,79.02L128.41,75.53L130.24,71.00L136.78,72.28L139.29,68.65L148.99,74.03L161.66,67.05L165.34,58.83L173.89,54.10L187.49,65.72L192.21,76.69L189.83,81.47L192.18,85.33L190.76,94.12L195.48,98.22L192.72,101.39L193.47,117.66L187.33,125.42L190.99,130.39L197.23,133.94L198.57,130.53L208.43,133.17L224.87,149.38L235.11,147.67L244.34,153.57L249.00,151.34L257.21,155.43L262.29,154.28L275.72,162.63L279.06,176.22L276.89,180.08L287.68,187.77L286.42,194.07L292.44,199.99L322.04,199.98L324.81,194.58L332.67,192.72L331.84,199.93L352.54,215.31L344.84,212.66L338.42,223.85L331.77,219.25L323.86,222.89L321.47,228.43L328.26,236.17L319.65,232.42L312.50,233.61L308.01,227.50L308.20,219.27L294.54,218.03L290.90,222.44L295.37,221.48L294.97,231.06L288.57,226.67L286.68,230.12L288.84,234.68L299.22,239.63L296.90,244.10L299.85,246.00L299.94,250.43L309.24,247.64L327.88,253.04L325.28,256.31L334.75,262.61L340.06,272.36L338.66,280.50L329.97,287.74L332.18,292.60L321.22,289.09L313.13,293.22L299.67,291.55L303.11,281.58L295.70,275.33L292.27,277.33L288.73,268.05L280.90,262.23L273.09,261.22L271.23,264.12Z"><title>大崎市</title></path>
<path data-code="04216" data-name="富谷市" d="M260.49,346.83L253.94,346.40L236.47,332.59L235.30,326.77L241.27,312.38L239.77,309.70L234.60,310.37L239.90,307.07L241.15,300.61L252.23,299.26L250.23,304.05L252.38,309.49L254.58,308.72L256.01,312.61L264.64,311.91L266.05,337.19L260.49,346.83Z"><title>富谷市</title></path>
<path data-code="04301" data-name="蔵王町" d="M143.46,482.30L138.89,479.96L136.09,470.35L133.07,468.51L116.22,473.52L110.42,464.24L86.49,467.35L78.65,459.50L72.83,443.27L90.21,438.56L93.47,441.09L102.54,439.58L104.70,444.07L112.52,444.49L116.47,440.96L114.98,438.60L123.75,437.85L129.15,440.45L130.00,443.82L141.56,445.87L148.22,441.74L153.29,444.52L159.29,440.78L172.39,444.91L175.27,450.56L174.34,455.84L167.68,469.53L168.77,474.69L163.82,485.93L170.20,490.11L171.12,494.20L156.19,491.00L153.03,495.29L150.27,486.80L143.46,482.30Z"><title>蔵王町</title></path>
<path data-code="04302" data-name="七ヶ宿町" d="M46.48,534.73L40.21,532.61L38.30,536.52L30.47,536.33L28.40,532.90L23.71,533.03L22.83,529.91L9.53,523.84L8.07,515.70L13.27,508.67L8.00,497.99L10.85,487.45L8.40,484.38L46.47,483.74L49.60,476.76L57.28,477.34L63.08,472.38L63.00,460.90L65.68,452.44L73.98,447.81L78.65,459.50L85.82,465.03L83.98,471.58L90.65,479.71L92.06,492.73L99.59,499.70L99.73,506.98L103.53,510.37L101.50,514.20L107.68,529.76L104.35,529.20L98.03,536.67L86.60,534.90L85.33,538.65L74.95,536.58L73.57,533.59L67.54,534.87L59.75,530.20L59.10,525.31L55.65,524.94L50.63,529.61L50.50,535.75L46.48,534.73Z"><title>七ヶ宿町</title></path>
<path data-code="04321" data-name="大河原町" d="M168.52,475.21L179.52,474.66L184.34,480.26L188.16,478.63L193.76,483.22L191.35,484.12L193.40,486.59L189.64,488.00L193.31,492.44L175.22,501.08L173.43,493.70L171.12,494.20L170.20,490.11L163.82,485.93L168.52,475.21Z"><title>大河原町</title></path>
<path data-code="04322" data-name="村田町" d="M192.35,482.57L187.04,477.93L184.28,480.23L179.52,474.66L168.52,475.21L167.68,469.53L175.27,450.56L172.27,444.79L160.22,440.83L150.68,444.21L148.22,441.74L155.21,440.35L153.02,429.94L158.81,428.50L164.16,433.60L171.63,436.49L174.02,433.03L180.33,437.90L190.58,431.98L190.06,424.49L192.61,422.48L208.67,425.70L210.47,438.82L196.67,452.35L192.60,465.48L195.13,470.17L193.24,478.93L194.95,482.74L192.35,482.57Z"><title>村田町</title></path>
<path data-code="04323" data-name="柴田町" d="M189.64,488.00L194.95,482.74L193.24,478.93L195.13,470.17L192.60,465.48L194.88,457.19L201.77,448.86L202.51,444.20L206.51,444.35L202.95,447.86L204.23,449.77L211.65,451.91L219.08,449.27L222.35,451.71L221.42,464.17L225.30,470.71L220.45,474.46L215.98,486.21L199.45,493.04L193.31,492.44L189.64,488.00Z"><title>柴田町</title></path>
<path data-code="04324" data-name="川崎町" d="M74.06,440.98L82.52,434.35L83.28,427.61L87.36,422.00L83.81,406.13L85.10,400.85L82.29,396.74L83.98,387.48L119.44,379.49L145.72,384.09L155.39,390.22L153.70,392.96L161.89,392.99L162.15,395.77L167.58,398.47L166.57,400.58L186.79,407.69L190.28,414.29L189.87,421.59L192.23,423.40L190.06,424.49L190.58,431.98L180.33,437.90L174.21,433.09L171.63,436.49L154.71,428.29L152.90,430.47L155.21,440.35L141.77,445.88L130.00,443.82L129.15,440.45L123.75,437.85L114.98,438.60L116.47,440.96L112.52,444.49L104.81,444.12L99.84,439.25L74.06,440.98Z"><title>川崎町</title></path>
<path data-code="04341" data-name="丸森町" d="M192.05,618.82L183.39,620.69L177.66,611.35L170.71,609.87L164.82,593.46L169.79,586.25L165.84,573.82L169.04,567.72L157.47,561.43L151.38,564.13L143.22,561.50L141.24,555.66L145.55,551.05L143.20,547.53L144.69,543.00L161.59,535.71L163.64,537.59L167.63,528.48L176.56,531.04L176.38,535.82L173.86,537.42L178.50,540.94L204.40,537.93L206.49,533.50L206.79,545.98L213.53,550.02L214.38,545.32L223.56,546.32L232.96,556.84L235.57,572.09L233.02,574.52L235.74,580.32L231.45,587.02L234.45,604.08L233.09,612.82L215.75,613.71L202.09,608.34L198.07,613.26L213.03,621.47L210.98,624.00L192.05,618.82Z"><title>丸森町</title></path>
<path data-code="04361" data-name="亘理町" d="M229.92,515.61L227.79,515.20L227.06,503.14L223.49,497.98L223.52,482.36L220.79,473.96L225.20,470.69L234.21,471.76L239.81,464.92L246.10,465.39L253.97,474.36L253.38,484.87L259.24,488.93L259.49,495.44L261.49,495.25L258.13,499.04L256.58,515.41L246.76,514.67L242.73,517.69L242.00,511.76L239.34,511.75L229.92,515.61Z"><title>亘理町</title></path>
<path data-code="04362" data-name="山元町" d="M240.97,563.51L233.66,566.34L234.05,558.71L231.54,554.78L233.85,548.10L231.51,543.20L232.50,528.90L228.51,516.35L237.14,511.79L242.00,511.76L242.73,517.69L246.76,514.67L256.57,515.44L258.59,546.37L262.75,563.77L258.55,565.84L256.47,562.85L251.13,563.04L250.78,559.72L240.97,563.51Z"><title>山元町</title></path>
<path data-code="04401" data-name="松島町" d="M326.56,309.74L332.68,317.10L334.10,314.24L336.04,315.53L338.73,323.77L330.89,320.59L334.83,325.59L331.29,325.88L330.52,329.61L328.02,324.46L318.54,324.75L313.29,329.94L314.94,338.15L308.90,335.97L306.43,327.04L301.86,329.84L296.27,327.54L307.80,309.32L314.31,294.96L313.19,291.18L321.22,289.09L335.15,292.55L334.45,295.57L339.07,302.95L326.56,309.74Z"><title>松島町</title></path>
<path data-code="04404" data-name="七ヶ浜町" d="M306.49,374.87L304.43,371.91L302.09,373.15L303.49,369.82L307.14,369.70L303.56,359.89L312.43,357.04L315.04,352.61L319.43,353.77L321.24,360.50L324.32,361.88L323.76,365.54L318.30,365.82L313.60,372.94L306.49,374.87Z"><title>七ヶ浜町</title></path>
<path data-code="04406" data-name="利府町" d="M289.59,353.89L282.43,359.18L273.84,356.72L269.20,359.09L264.85,354.99L266.45,344.64L263.78,340.69L271.74,333.26L276.23,336.71L280.71,326.90L284.63,326.34L287.82,331.38L293.67,332.23L296.04,327.60L301.86,329.84L306.43,327.04L308.88,335.95L312.70,338.28L309.79,338.43L312.65,339.81L305.76,338.77L303.78,343.70L299.88,344.23L299.39,339.10L297.10,339.29L288.84,349.54L291.19,350.66L289.59,353.89Z"><title>利府町</title></path>
<path data-code="04421" data-name="大和町" d="M173.46,305.48L171.68,305.99L171.18,301.10L150.78,295.51L144.05,290.29L182.08,266.43L205.85,266.48L209.74,276.60L218.15,276.81L228.32,284.43L242.43,287.03L248.68,292.24L253.71,291.30L252.37,287.69L259.11,279.90L274.19,281.36L276.85,290.71L282.51,293.38L278.00,297.54L279.48,306.66L275.70,314.49L276.43,320.43L283.14,324.18L276.23,336.71L271.81,333.24L265.36,336.98L263.93,310.44L255.75,312.53L250.26,304.22L252.23,299.26L243.51,299.16L239.79,301.95L239.90,307.07L234.60,310.37L239.77,309.70L241.27,312.38L235.30,326.77L236.47,332.59L229.92,334.22L225.52,340.28L222.99,336.94L225.45,333.58L220.57,332.27L221.63,326.11L214.69,317.13L189.83,307.78L181.19,296.87L173.46,305.48Z"><title>大和町</title></path>
<path data-code="04422" data-name="大郷町" d="M276.62,320.82L275.70,314.49L279.48,306.66L278.00,297.54L282.51,293.38L276.85,290.71L274.38,278.12L269.89,275.01L272.32,270.89L269.30,266.19L273.09,261.22L280.90,262.23L288.73,268.05L292.27,277.33L295.70,275.33L303.11,281.58L299.67,291.55L314.31,294.96L293.95,332.14L287.82,331.38L285.05,326.56L281.97,326.88L283.07,323.99L276.62,320.82Z"><title>大郷町</title></path>
<path data-code="04424" data-name="大衡村" d="M207.28,267.01L231.35,260.04L242.17,263.01L246.59,257.38L257.50,269.20L271.45,269.53L269.89,275.01L274.46,279.61L259.11,279.90L252.37,287.69L253.71,291.30L248.68,292.24L242.43,287.03L228.32,284.43L218.15,276.81L209.74,276.60L206.48,271.80L207.28,267.01Z"><title>大衡村</title></path>
<path data-code="04444" data-name="色麻町" d="M143.72,290.16L142.09,283.52L151.42,280.58L158.27,273.14L158.78,268.17L168.24,261.69L171.50,255.02L187.51,250.30L186.70,246.17L199.77,233.63L207.59,234.57L218.28,229.22L221.02,232.05L226.22,229.90L224.88,228.01L229.49,227.97L231.54,237.58L238.31,239.25L238.84,242.55L246.03,247.64L247.01,257.68L244.39,257.89L245.06,261.13L242.17,263.01L231.35,260.04L212.51,266.57L182.08,266.43L143.72,290.16Z"><title>色麻町</title></path>
<path data-code="04445" data-name="加美町" d="M122.77,264.65L119.79,258.84L123.09,251.40L116.78,249.26L116.14,243.90L120.25,241.43L122.30,236.54L120.94,234.16L125.62,229.35L122.23,217.45L117.84,215.67L119.27,210.90L109.68,196.80L113.25,189.84L119.51,190.65L122.10,195.54L129.28,197.66L134.45,194.75L143.33,169.13L147.91,170.12L153.71,164.91L156.56,165.49L158.62,171.23L163.91,168.53L165.37,164.38L173.70,165.33L176.56,161.49L181.41,160.85L192.49,171.75L197.71,171.94L199.22,168.94L239.25,208.44L242.45,215.07L240.30,218.91L241.60,224.59L253.53,232.18L248.32,234.03L250.63,236.11L248.11,248.53L239.07,242.78L237.43,238.67L231.54,237.58L229.49,227.97L224.88,228.01L226.22,229.90L221.02,232.05L218.28,229.22L207.59,234.57L199.65,233.68L186.70,246.17L187.51,250.30L171.50,255.02L168.24,261.69L158.78,268.17L157.29,274.42L151.26,280.73L142.09,283.52L141.79,286.36L137.19,284.77L135.64,272.92L122.77,264.65Z"><title>加美町</title></path>
<path data-code="04501" data-name="涌谷町" d="M321.47,228.40L323.86,222.89L331.65,219.27L338.42,223.85L344.84,212.66L357.44,216.42L359.33,212.70L367.71,217.46L364.53,223.52L376.33,231.22L379.46,240.67L377.71,247.21L366.03,243.56L358.88,248.61L356.43,256.13L348.35,258.92L334.87,245.50L328.32,247.43L315.20,240.85L328.30,236.14L321.47,228.40Z"><title>涌谷町</title></path>
<path data-code="04505" data-name="美里町" d="M289.59,235.19L286.68,230.12L288.55,226.68L295.06,230.63L295.37,221.48L290.90,222.44L291.71,219.98L309.37,219.53L309.23,230.45L312.93,233.83L321.18,233.03L326.22,237.37L315.25,240.90L328.32,247.43L334.87,245.50L348.30,258.91L358.52,254.35L353.32,263.39L356.18,271.38L352.26,276.11L354.08,283.57L357.96,286.44L347.09,288.69L340.26,294.69L337.82,293.23L340.45,290.72L339.35,288.99L333.33,293.03L329.97,287.74L338.66,280.50L340.06,272.36L334.75,262.61L325.28,256.31L327.88,253.04L309.24,247.64L299.94,250.43L299.85,246.00L296.90,244.10L299.22,239.63L289.59,235.19Z"><title>美里町</title></path>
<path data-code="04581" data-name="女川町" d="M474.67,321.11L464.96,317.42L464.30,308.78L457.71,306.18L449.94,308.17L445.09,304.06L446.70,285.84L451.91,271.23L460.80,274.51L468.11,267.78L472.44,269.26L473.47,272.97L483.36,274.30L474.85,282.03L484.69,283.60L481.93,287.44L485.25,290.53L488.66,287.46L487.71,291.80L482.45,291.92L481.89,295.33L479.69,292.36L477.68,295.56L471.32,294.44L468.79,290.56L463.61,291.97L470.57,298.14L469.77,302.01L473.00,301.03L474.37,303.88L470.66,314.36L472.26,316.58L481.39,307.73L485.92,306.99L485.17,316.90L483.23,319.23L477.18,317.91L474.67,321.11ZM490.56,289.06L491.35,281.22L494.26,284.20L493.66,287.10L496.70,286.70L497.67,292.02L494.35,295.40L490.56,289.06Z"><title>女川町</title></path>
<path data-code="04606" data-name="南三陸町" d="M484.07,206.00L481.54,203.12L474.08,204.15L455.31,217.92L447.78,215.50L451.37,211.62L444.95,209.28L446.53,202.43L443.47,201.18L435.77,187.73L436.03,181.11L439.63,177.91L434.40,176.24L433.00,155.49L441.16,153.01L442.22,149.33L451.07,144.52L457.66,144.75L461.35,140.75L467.47,143.78L474.54,138.34L484.11,143.99L498.88,140.45L499.98,143.04L497.67,144.98L502.28,144.82L502.12,148.33L509.39,145.07L507.88,149.77L509.95,152.07L506.15,155.26L509.90,159.35L507.52,169.80L505.18,167.19L506.19,161.57L502.05,159.22L498.15,162.25L495.37,156.10L492.60,157.10L494.25,160.50L492.17,160.53L493.48,162.30L488.21,172.22L483.83,167.09L480.23,170.00L482.94,174.58L481.45,178.16L474.30,174.83L469.57,181.62L465.61,177.51L462.31,178.43L464.70,185.92L461.96,193.00L467.77,194.88L470.17,190.73L478.00,193.94L483.13,192.07L488.10,196.60L495.62,196.12L487.36,207.16L484.07,206.00Z"><title>南三陸町</title></path>
  </g>
</svg>
