<?xml version="1.0" encoding="UTF-8"?>
<svg xmlns="http://www.w3.org/2000/svg" viewBox="0 0 560 640" class="pref-muni-svg" role="img" aria-label="自治体境界図">
  <g class="pref-muni-svg__paths" fill="#eaf2fb" stroke="#5b7fa8" stroke-width="0.6" stroke-linejoin="round">
<path data-code="20201" data-name="長野市" d="M258.34,193.72L259.55,192.58L257.41,188.11L261.17,186.79L262.11,182.98L259.19,179.34L254.66,182.91L252.20,181.92L250.62,175.98L248.40,174.95L248.55,171.57L253.49,163.73L255.18,156.30L258.40,156.17L261.02,153.21L267.42,155.72L271.86,154.32L271.35,141.27L274.82,134.94L267.88,133.08L264.33,129.77L262.87,131.39L255.94,129.97L248.22,134.87L246.47,133.53L248.49,126.63L247.52,123.14L251.81,116.14L251.16,112.53L258.34,103.96L265.91,85.79L272.11,77.35L279.17,80.52L280.52,83.34L285.40,83.75L285.92,86.36L290.84,84.36L291.46,80.27L295.77,74.18L299.14,82.38L297.45,86.04L298.33,93.29L305.94,91.39L304.30,96.28L305.91,101.26L309.80,104.24L308.07,106.53L318.79,110.79L324.81,116.11L330.60,117.36L334.89,113.31L340.34,114.23L343.05,110.95L344.58,104.55L346.62,106.93L351.21,104.47L356.99,105.86L356.82,113.36L351.05,115.40L349.11,125.16L342.05,140.84L346.39,142.71L353.85,152.09L355.85,163.69L358.81,165.75L356.16,169.72L356.57,172.47L352.13,177.59L347.68,176.43L344.59,184.09L340.01,183.25L337.12,185.37L334.40,183.77L330.77,186.13L326.24,184.80L323.65,175.10L318.35,171.98L317.48,168.49L308.07,168.69L302.02,174.60L283.95,175.07L283.31,181.89L280.14,186.56L279.37,191.77L281.99,192.77L272.68,195.36L264.92,202.00L261.19,201.05L257.29,194.63L258.34,193.72Z"><title>長野市</title></path>
<path data-code="20202" data-name="松本市" d="M167.83,350.84L164.62,352.74L160.83,349.97L160.49,344.56L164.86,338.69L164.92,332.98L160.21,333.16L153.77,329.13L147.37,320.64L150.22,314.62L148.62,311.23L159.72,300.38L158.59,295.64L159.73,294.00L155.18,291.69L153.67,284.49L156.41,283.90L165.14,268.77L174.25,260.50L175.52,249.27L173.68,242.65L183.00,244.08L186.61,235.44L189.17,234.72L194.44,238.73L196.05,242.34L196.35,249.65L194.41,255.95L195.73,261.03L202.23,265.43L211.27,264.87L214.31,262.62L215.92,268.80L213.16,273.97L213.73,276.55L220.96,277.04L225.15,275.07L227.01,275.77L225.91,276.90L234.44,278.12L248.71,275.04L255.84,260.97L265.18,255.06L262.89,250.77L259.63,250.85L259.12,248.54L256.37,247.78L259.52,243.34L258.35,241.80L259.45,235.35L268.55,230.48L273.95,233.71L280.51,229.95L293.24,232.50L288.95,245.36L290.77,251.13L294.13,253.64L290.23,261.92L294.01,269.79L292.77,271.67L294.55,275.83L299.83,278.73L300.66,281.95L306.88,286.95L306.52,302.21L292.66,305.58L286.22,301.59L283.77,304.00L282.88,308.53L265.97,304.80L262.69,309.00L262.03,300.75L256.63,300.92L255.23,308.04L250.38,309.68L252.76,303.50L250.50,302.75L247.69,305.90L248.47,308.44L242.15,314.38L238.89,314.99L241.55,311.13L239.45,309.07L244.21,299.44L242.89,294.79L238.70,294.60L231.92,298.23L216.05,312.60L210.09,325.12L198.45,335.31L199.06,343.05L190.85,354.80L183.57,353.28L179.33,355.38L170.75,350.05L167.83,350.84Z"><title>松本市</title></path>
<path data-code="20203" data-name="上田市" d="M305.63,282.42L303.40,284.37L299.83,278.73L294.63,275.94L292.77,271.67L294.01,269.79L290.23,261.92L293.52,252.56L301.34,247.01L302.76,249.18L307.32,245.08L306.83,240.70L310.81,238.33L313.68,232.85L311.82,224.35L303.00,221.40L302.69,211.05L306.74,209.68L317.69,217.50L339.69,211.33L339.99,207.64L334.24,200.87L334.75,195.59L326.77,188.27L326.34,184.62L332.03,186.16L334.40,183.77L337.12,185.37L340.01,183.25L344.59,184.09L347.68,176.43L352.13,177.59L356.89,171.45L363.17,175.87L375.67,170.00L384.76,174.46L385.17,177.65L382.47,181.20L383.01,186.09L380.55,191.86L382.27,199.89L381.62,210.85L369.83,212.24L366.72,215.50L366.04,220.80L361.80,222.68L356.19,229.40L352.65,229.75L353.27,233.66L359.60,236.68L358.71,238.88L360.26,240.74L356.28,248.90L352.81,250.54L351.29,248.86L349.25,254.45L349.85,260.31L347.14,261.70L345.40,258.19L341.56,258.97L338.29,263.98L338.99,273.44L335.65,274.81L335.75,278.11L332.11,282.72L325.57,281.88L315.93,284.99L308.06,280.26L305.63,282.42Z"><title>上田市</title></path>
<path data-code="20204" data-name="岡谷市" d="M271.11,355.16L268.91,353.36L272.40,342.10L275.61,337.81L275.91,332.24L277.52,333.15L279.12,329.86L279.53,320.05L283.77,304.00L286.27,301.59L292.43,305.54L295.54,305.34L293.73,309.00L296.61,311.91L296.58,307.90L299.17,317.21L292.84,314.81L291.18,318.25L290.01,326.17L291.27,336.94L294.93,341.93L292.90,349.19L289.82,352.90L286.78,350.72L281.68,354.78L271.11,355.16Z"><title>岡谷市</title></path>
<path data-code="20205" data-name="飯田市" d="M228.14,591.99L229.79,592.21L230.70,589.46L242.64,589.95L250.31,582.30L251.28,576.95L244.81,577.60L240.15,568.27L235.85,567.77L234.42,564.40L220.75,557.42L220.41,555.24L213.87,554.31L209.95,557.24L207.12,556.29L204.94,550.08L205.77,542.58L204.78,541.26L203.23,544.55L201.15,542.70L197.54,539.03L198.32,536.80L195.79,532.99L200.91,525.63L193.40,522.10L189.81,511.50L186.98,510.95L185.65,506.72L194.25,500.06L192.80,495.66L196.51,490.93L209.84,484.63L216.51,476.36L218.89,478.87L218.27,481.07L221.22,483.25L222.64,490.04L220.33,494.35L222.65,497.43L219.10,506.11L224.09,508.44L225.91,512.87L228.79,512.59L237.54,519.19L233.47,525.41L233.40,529.66L238.91,530.31L239.45,533.25L235.57,532.20L237.16,536.95L239.16,537.20L240.04,540.21L246.98,541.79L248.75,550.60L256.50,554.30L258.26,553.28L268.76,531.75L279.79,539.94L281.85,543.86L290.52,535.08L294.12,534.29L297.25,538.05L301.08,539.00L304.39,544.89L304.35,553.25L309.71,555.79L308.32,560.84L313.38,564.47L310.12,573.86L303.74,575.03L297.90,579.11L297.67,584.06L294.46,584.66L288.07,581.52L285.27,585.44L281.56,586.37L282.01,588.68L278.43,590.63L278.85,593.65L276.65,597.08L269.04,597.01L266.36,600.18L263.96,599.89L262.13,603.43L251.74,605.95L248.66,613.22L242.40,611.90L243.69,604.14L237.80,599.63L233.96,601.37L232.77,593.83L228.14,591.99Z"><title>飯田市</title></path>
<path data-code="20206" data-name="諏訪市" d="M284.49,367.74L283.70,358.97L280.69,356.47L282.10,354.02L286.49,350.77L289.63,352.91L291.55,351.37L294.93,341.93L306.69,332.80L305.35,329.31L309.13,329.02L310.28,323.92L319.26,323.18L316.40,320.78L318.51,320.57L317.13,316.96L323.84,317.20L323.60,319.54L326.39,321.40L325.85,323.72L323.98,327.86L320.91,328.58L317.86,342.39L312.91,346.58L314.71,347.70L314.53,353.88L308.57,355.64L308.97,357.94L306.91,357.50L308.03,358.87L303.10,363.61L302.37,368.17L293.14,372.47L291.59,375.95L286.76,377.28L281.00,372.82L283.86,370.90L284.49,367.74Z"><title>諏訪市</title></path>
<path data-code="20207" data-name="須坂市" d="M374.47,170.23L363.17,175.87L356.04,170.39L359.02,166.89L355.85,163.69L355.32,154.71L348.87,145.14L342.05,140.84L348.33,125.01L360.07,125.03L363.09,127.14L366.58,138.11L377.43,138.12L379.64,143.18L392.80,150.88L392.74,154.59L389.24,155.29L386.95,162.19L389.18,165.19L389.31,169.36L386.33,173.83L383.91,174.70L379.02,170.32L374.47,170.23Z"><title>須坂市</title></path>
<path data-code="20208" data-name="小諸市" d="M373.61,245.41L377.66,245.10L375.76,241.73L379.97,231.46L379.95,233.21L383.99,230.84L383.35,233.06L391.16,228.96L396.63,219.08L397.77,221.07L405.84,222.37L406.69,218.17L410.75,217.94L407.95,219.55L406.85,225.28L403.59,227.09L397.20,240.39L401.54,240.43L402.61,237.85L402.56,242.10L403.16,239.16L405.08,239.43L406.95,236.09L402.80,243.82L404.57,252.27L402.71,255.16L404.80,256.73L403.37,258.65L400.43,258.69L394.11,263.46L388.23,262.11L388.09,264.94L386.03,263.01L386.03,259.56L381.39,257.38L379.37,258.75L375.17,255.50L371.27,248.06L373.61,245.41Z"><title>小諸市</title></path>
<path data-code="20209" data-name="伊那市" d="M236.40,429.39L235.01,425.83L224.33,425.21L222.78,422.70L229.21,415.30L228.89,407.83L231.65,404.09L234.20,402.75L241.28,406.54L237.21,400.29L238.95,393.12L245.08,394.66L249.84,393.21L250.01,391.32L257.49,392.50L258.42,396.39L254.53,395.01L252.68,398.98L258.25,401.38L258.25,403.38L254.80,405.41L251.67,402.65L251.54,405.33L245.23,407.09L256.60,410.15L258.81,405.02L263.90,408.87L266.83,405.43L267.65,400.58L279.91,395.26L286.33,386.48L289.69,387.74L296.07,377.49L295.05,372.58L296.62,370.05L303.49,367.71L312.36,374.23L311.59,379.01L315.50,381.71L319.04,388.42L317.84,391.47L319.18,396.33L321.02,396.79L320.13,400.57L321.78,402.15L319.96,404.13L323.22,407.47L319.63,413.68L320.96,415.93L318.64,426.87L319.67,431.14L322.91,433.48L327.92,433.07L336.44,441.50L320.82,456.31L324.52,462.31L324.45,470.75L331.42,480.16L327.21,484.40L327.95,492.55L323.39,503.26L321.91,504.50L317.27,501.17L313.01,505.24L301.74,495.23L299.04,490.24L300.38,486.20L299.45,478.75L296.54,476.64L292.45,463.19L288.11,460.05L288.28,449.70L285.66,447.78L282.25,438.44L266.33,433.34L263.55,437.52L261.61,437.46L259.93,433.66L256.52,437.01L250.38,434.39L254.04,430.55L249.04,434.37L238.44,432.39L236.40,429.39Z"><title>伊那市</title></path>
<path data-code="20210" data-name="駒ヶ根市" d="M232.54,444.22L261.29,444.05L260.20,434.59L262.85,437.68L266.33,433.34L272.15,434.30L282.95,439.41L285.66,447.78L288.28,449.70L288.87,458.14L284.07,461.84L283.25,470.23L280.90,472.52L278.54,469.88L271.02,468.19L267.23,469.60L264.81,464.13L257.11,467.39L259.01,463.80L257.92,461.09L245.81,459.20L236.36,463.56L234.70,460.88L223.23,457.40L217.54,452.37L217.05,447.47L219.95,443.09L218.72,433.52L229.00,440.75L231.86,440.70L232.54,444.22Z"><title>駒ヶ根市</title></path>
<path data-code="20211" data-name="中野市" d="M352.19,104.80L354.99,98.63L354.65,92.46L352.17,89.69L348.27,89.74L348.53,84.69L346.63,83.16L349.12,80.94L347.13,73.84L352.21,73.02L354.93,79.55L358.71,79.62L360.60,84.15L366.23,85.15L369.83,84.33L368.54,78.65L371.31,73.43L374.78,74.95L375.48,77.45L380.69,77.07L380.49,85.57L383.11,87.94L376.77,95.94L380.71,99.42L377.96,104.79L379.99,108.99L379.17,113.35L382.92,120.75L379.94,121.78L372.51,119.00L367.80,121.93L364.44,117.55L365.86,115.11L363.37,112.25L356.92,113.38L356.99,105.86L352.19,104.80Z"><title>中野市</title></path>
<path data-code="20212" data-name="大町市" d="M157.53,232.12L157.55,226.23L162.56,221.82L163.31,216.07L170.25,214.16L173.55,204.10L176.30,202.59L175.38,192.69L179.48,190.71L180.01,185.38L182.38,183.70L187.05,184.96L190.11,182.53L189.37,180.18L191.52,176.42L184.38,175.72L185.24,167.45L195.31,159.12L202.67,158.44L200.80,148.55L203.66,141.19L203.33,134.83L205.30,132.51L208.24,135.20L215.66,136.78L221.79,143.39L222.51,149.71L225.54,149.66L226.36,147.05L234.83,147.60L234.61,143.39L246.18,137.80L249.34,142.15L247.64,148.18L251.38,152.14L251.37,154.64L255.18,156.30L248.40,174.95L250.62,175.98L250.11,178.00L252.92,182.48L259.19,179.34L262.04,182.84L261.17,186.79L257.41,188.11L259.25,193.61L254.44,192.71L253.81,196.15L249.31,200.08L246.92,196.99L240.14,197.35L241.97,206.01L238.77,207.08L238.55,209.39L236.72,208.00L231.70,210.01L227.93,207.03L221.59,208.52L220.00,204.71L216.77,208.15L218.93,210.82L217.13,215.90L203.45,219.03L196.00,214.09L191.98,216.93L192.83,222.67L190.36,227.09L191.10,230.61L185.19,237.78L183.00,244.08L170.92,242.31L166.04,234.57L157.53,232.12Z"><title>大町市</title></path>
<path data-code="20213" data-name="飯山市" d="M370.56,74.99L368.52,78.78L369.83,84.33L366.23,85.15L360.60,84.15L358.71,79.62L354.93,79.55L352.21,73.02L346.78,73.64L352.73,67.41L350.66,62.86L353.64,56.80L351.14,53.36L352.85,48.51L358.65,43.69L365.71,45.18L369.66,40.83L372.92,30.50L376.47,26.23L375.48,24.84L379.88,19.15L389.99,16.12L396.53,11.51L406.29,11.41L408.18,9.18L414.35,8.71L412.02,15.78L407.77,18.72L407.18,25.01L398.12,26.24L389.95,33.47L390.06,36.90L387.43,36.61L386.54,45.77L388.39,44.39L389.18,47.40L387.61,48.40L391.58,50.01L392.79,53.59L398.37,58.19L387.52,61.83L381.57,58.71L380.43,61.75L382.07,63.71L380.33,68.38L376.99,69.04L380.63,72.51L376.69,77.54L372.65,73.60L370.56,74.99Z"><title>飯山市</title></path>
<path data-code="20214" data-name="茅野市" d="M317.74,387.41L315.50,381.71L311.59,379.01L312.58,374.49L302.03,366.14L308.03,358.87L306.91,357.50L308.97,357.94L308.57,355.64L314.53,353.88L314.71,347.70L312.91,346.58L317.86,342.39L320.91,328.58L323.98,327.86L326.15,322.30L335.85,321.36L339.37,324.64L339.12,326.65L347.09,329.59L350.14,328.37L354.44,321.07L361.35,322.47L361.52,327.87L359.18,329.58L363.16,329.89L363.29,335.66L366.32,338.09L367.06,342.77L370.67,348.22L370.09,354.62L374.21,362.62L373.22,368.77L334.87,364.25L330.22,364.26L329.17,367.57L321.96,367.03L320.02,369.09L322.47,370.93L321.85,372.56L329.34,376.03L328.07,377.96L332.37,378.50L324.61,381.26L322.08,379.49L317.74,387.41Z"><title>茅野市</title></path>
<path data-code="20215" data-name="塩尻市" d="M223.03,422.57L217.77,415.49L219.14,411.40L217.36,410.01L217.94,403.39L220.59,400.40L217.39,393.63L218.00,388.15L214.92,374.58L216.28,369.53L218.58,367.95L217.51,365.87L220.36,340.45L223.87,340.07L241.31,317.99L243.42,317.87L242.45,313.46L248.47,308.44L247.69,305.90L250.50,302.75L252.75,303.24L251.12,310.00L255.23,308.04L256.63,300.92L259.01,300.52L262.07,300.82L262.54,308.98L265.97,304.80L282.88,308.53L279.53,320.05L279.12,329.86L277.52,333.15L275.91,332.24L275.35,338.32L265.63,343.93L257.63,340.46L257.45,337.30L254.39,337.99L251.20,344.57L243.78,348.86L242.76,350.65L244.92,352.83L238.05,358.79L233.22,368.74L224.31,377.28L225.73,383.47L232.14,387.48L229.15,396.41L231.98,401.27L231.05,406.87L228.89,407.83L229.21,415.30L223.03,422.57Z"><title>塩尻市</title></path>
<path data-code="20217" data-name="佐久市" d="M356.11,321.62L354.28,321.21L354.28,315.70L349.01,308.11L348.92,298.33L354.83,279.81L364.44,269.72L362.78,264.23L366.00,262.66L364.72,261.02L367.28,257.99L372.76,256.92L374.40,261.57L376.37,258.09L383.30,257.92L386.17,259.73L386.05,263.04L388.25,264.94L388.23,262.11L394.11,263.46L400.43,258.69L403.37,258.65L404.76,256.44L402.60,253.32L406.29,251.38L405.07,260.12L407.35,255.33L408.91,257.94L413.26,257.96L415.96,262.53L436.33,263.90L438.05,268.08L437.00,274.13L439.86,276.90L439.65,280.79L442.54,285.88L445.96,286.19L446.52,289.39L442.69,291.90L446.35,300.65L440.04,301.51L439.08,304.00L434.39,302.10L433.47,298.01L431.31,298.47L430.16,301.73L414.57,302.68L408.22,301.79L404.23,297.77L401.24,301.48L389.77,302.36L368.66,317.99L364.79,318.19L361.73,321.94L356.11,321.62Z"><title>佐久市</title></path>
<path data-code="20218" data-name="千曲市" d="M282.49,192.11L279.39,191.84L280.12,186.62L283.31,181.89L283.95,175.07L285.89,174.11L300.80,174.88L307.83,168.77L317.41,168.44L318.35,171.98L322.76,173.92L326.12,180.79L326.32,190.26L319.73,193.53L318.89,197.64L314.44,198.81L317.83,200.74L316.58,204.15L308.67,206.46L306.01,210.02L300.43,202.55L300.39,199.27L294.71,197.65L295.18,196.18L291.46,194.54L291.75,191.75L283.95,190.33L282.49,192.11Z"><title>千曲市</title></path>
<path data-code="20219" data-name="東御市" d="M371.46,248.25L377.58,257.60L374.66,261.55L372.76,256.92L365.35,259.35L363.75,248.49L360.57,254.36L358.53,254.60L358.28,252.41L358.14,254.50L352.76,254.16L353.47,250.22L358.20,246.72L360.26,240.74L358.71,238.88L359.60,236.68L353.27,233.66L352.65,229.75L356.19,229.40L361.80,222.68L366.04,220.80L366.72,215.50L369.90,212.21L381.62,210.85L397.09,215.83L397.24,218.74L391.16,228.96L383.35,233.06L383.99,230.84L379.95,233.21L379.97,231.46L375.76,241.73L377.66,245.10L372.21,245.47L371.46,248.25Z"><title>東御市</title></path>
<path data-code="20220" data-name="安曇野市" d="M236.80,277.61L225.99,276.92L227.01,275.77L224.02,275.02L220.96,277.04L213.73,276.55L213.16,273.97L215.92,268.80L214.31,262.62L211.27,264.87L202.23,265.43L195.69,260.97L194.41,255.95L196.35,249.65L196.05,242.34L194.44,238.73L188.90,234.61L192.83,222.80L191.98,216.93L196.72,214.04L202.56,217.46L203.47,221.65L207.38,225.24L209.62,223.47L213.56,225.38L218.96,224.43L223.12,225.70L224.68,229.16L230.86,224.80L240.48,235.00L246.98,233.51L244.11,226.01L244.71,224.32L247.97,225.30L246.37,221.75L248.50,218.61L250.69,218.74L249.55,220.33L251.94,222.31L251.98,229.00L257.45,228.10L263.70,221.16L268.51,226.88L268.88,230.61L259.44,235.37L258.35,241.80L259.52,243.34L256.30,247.36L259.63,250.85L262.89,250.77L265.18,255.06L255.84,260.97L248.71,275.04L236.80,277.61Z"><title>安曇野市</title></path>
<path data-code="20303" data-name="小海町" d="M369.88,347.70L368.51,343.08L372.26,340.68L372.42,335.64L375.98,337.30L385.19,332.15L397.39,321.92L396.39,321.09L400.53,315.25L403.72,323.00L409.64,324.01L412.56,320.14L417.75,322.21L421.41,320.53L431.57,326.21L431.82,329.24L425.62,333.57L413.15,334.36L407.45,341.05L406.13,346.30L400.20,340.97L399.09,345.30L393.81,350.82L371.24,353.17L369.88,347.70Z"><title>小海町</title></path>
<path data-code="20304" data-name="川上村" d="M408.03,388.02L404.75,373.98L412.92,367.41L410.05,367.77L408.77,363.90L411.80,362.96L413.53,366.96L415.22,363.75L418.36,363.98L422.25,360.98L443.08,361.38L448.10,363.43L452.66,361.35L463.13,362.02L467.52,364.14L467.85,370.77L474.76,379.77L471.94,389.95L466.17,389.77L460.05,395.19L457.39,403.39L452.24,401.32L445.84,403.30L439.41,402.09L437.79,395.23L439.79,389.98L433.94,386.36L429.97,389.20L424.13,386.57L416.88,388.14L411.81,385.48L409.64,388.94L408.03,388.02Z"><title>川上村</title></path>
<path data-code="20305" data-name="南牧村" d="M408.02,387.52L406.16,394.33L401.06,394.39L397.72,391.83L396.38,393.14L393.56,387.00L396.31,380.04L395.27,377.62L388.01,373.00L373.22,368.77L374.21,362.62L370.09,354.62L370.79,353.06L393.81,350.82L401.18,340.88L404.99,346.49L409.69,345.85L409.54,348.82L411.81,350.85L418.48,352.58L423.79,356.83L424.87,360.80L415.25,363.73L413.53,366.96L411.80,362.96L408.77,363.90L410.05,367.77L412.92,367.41L404.75,373.98L408.02,387.52Z"><title>南牧村</title></path>
<path data-code="20306" data-name="南相木村" d="M424.87,360.80L423.79,356.83L418.50,352.59L411.81,350.85L409.54,348.82L409.69,345.85L406.43,346.11L407.45,341.05L411.11,338.56L425.61,343.43L429.72,346.98L446.44,349.60L453.48,355.09L458.37,355.05L460.83,361.82L452.66,361.35L448.10,363.43L443.08,361.38L424.87,360.80Z"><title>南相木村</title></path>
<path data-code="20307" data-name="北相木村" d="M410.20,338.53L413.25,334.29L425.62,333.57L431.82,329.24L431.50,326.10L439.48,325.68L444.88,327.87L448.20,335.58L448.58,342.08L445.08,349.38L443.15,349.20L429.72,346.98L425.61,343.43L410.20,338.53Z"><title>北相木村</title></path>
<path data-code="20309" data-name="佐久穂町" d="M362.99,333.49L363.16,329.89L359.18,329.58L361.52,327.87L360.88,322.15L364.74,318.23L368.66,317.99L389.77,302.36L401.24,301.48L404.23,297.77L408.59,301.93L430.54,301.86L436.63,312.83L445.95,313.44L449.52,322.69L448.85,325.34L444.88,327.87L439.48,325.68L431.50,326.10L421.41,320.53L417.75,322.21L412.56,320.14L409.62,324.02L403.36,322.77L400.53,315.25L396.39,321.09L397.39,321.92L385.19,332.15L375.98,337.30L372.46,335.60L372.26,340.68L368.51,343.08L362.99,333.49Z"><title>佐久穂町</title></path>
<path data-code="20321" data-name="軽井沢町" d="M415.56,246.24L414.34,246.23L415.34,242.86L410.95,224.35L413.67,220.75L419.98,221.75L424.03,216.63L434.32,214.37L446.64,216.82L449.59,219.52L450.06,229.76L452.15,233.28L450.20,238.88L451.09,248.50L449.58,251.46L451.15,255.70L448.67,259.06L437.74,263.91L431.66,263.23L427.85,256.79L424.12,255.45L423.07,251.14L425.21,248.08L418.04,248.39L415.56,246.24Z"><title>軽井沢町</title></path>
<path data-code="20323" data-name="御代田町" d="M408.88,257.17L406.84,255.63L404.70,259.72L406.29,251.38L403.53,251.31L404.22,246.11L402.80,243.82L406.95,236.09L405.08,239.43L403.16,239.16L402.56,242.10L402.61,237.85L401.54,240.43L397.20,240.39L403.59,227.09L406.85,225.28L407.95,219.55L410.75,217.94L414.36,220.39L410.95,224.35L415.34,242.86L414.34,246.23L418.04,248.39L425.21,248.08L423.07,251.14L424.12,255.45L427.98,256.94L430.85,262.83L416.55,262.69L412.74,257.57L408.88,257.17Z"><title>御代田町</title></path>
<path data-code="20324" data-name="立科町" d="M336.26,322.39L347.04,307.54L349.54,293.00L349.09,283.90L353.62,275.45L350.02,270.92L350.63,268.02L348.58,263.09L351.29,248.86L353.48,250.24L352.76,254.16L358.14,254.50L358.28,252.41L358.65,254.63L360.61,254.34L363.32,248.55L364.88,249.02L364.06,254.22L366.00,262.66L362.78,264.23L364.44,269.72L354.89,279.68L348.77,299.28L349.01,308.11L354.28,315.70L354.28,321.21L350.14,328.37L347.09,329.59L339.12,326.65L339.37,324.64L336.26,322.39Z"><title>立科町</title></path>
<path data-code="20349" data-name="青木村" d="M294.07,252.05L290.78,251.14L288.95,245.36L293.25,232.55L289.31,221.94L297.89,220.23L311.82,224.35L313.68,232.85L310.81,238.33L306.83,240.70L307.32,245.08L302.76,249.18L301.34,247.01L294.07,252.05Z"><title>青木村</title></path>
<path data-code="20350" data-name="長和町" d="M340.05,317.69L330.95,323.17L326.15,322.30L323.11,316.72L315.60,317.57L312.45,310.70L308.29,308.48L308.08,303.48L306.15,300.72L306.89,287.02L304.20,284.47L308.00,280.25L315.93,284.99L325.57,281.88L332.44,282.51L335.75,278.11L335.65,274.81L338.99,273.44L338.35,263.74L343.70,257.86L347.11,261.69L349.25,261.18L350.02,270.92L353.64,275.17L349.09,283.90L349.54,293.00L347.04,307.54L340.05,317.69Z"><title>長和町</title></path>
<path data-code="20361" data-name="下諏訪町" d="M291.45,337.19L290.01,326.13L292.00,315.64L297.15,315.37L299.17,317.21L297.34,309.21L296.54,307.92L296.40,311.89L293.73,309.00L294.47,306.97L298.86,303.36L307.76,303.17L308.29,308.48L312.45,310.70L318.51,320.50L316.40,320.78L319.26,323.18L310.28,323.92L309.13,329.02L305.35,329.31L306.69,332.80L294.99,341.90L291.45,337.19Z"><title>下諏訪町</title></path>
<path data-code="20362" data-name="富士見町" d="M322.22,430.14L325.82,433.46L320.09,431.89L318.64,426.87L320.96,416.02L319.86,412.15L323.23,407.50L319.96,404.13L321.78,402.15L320.15,400.68L321.17,397.57L318.47,394.36L319.07,388.54L317.72,387.44L322.06,379.50L324.61,381.26L333.00,378.53L331.08,380.56L335.51,382.39L338.78,378.13L345.34,376.79L349.91,372.08L354.91,370.52L370.43,373.60L370.31,375.81L366.22,379.01L365.44,384.23L361.10,391.97L349.31,406.96L340.45,398.20L336.93,398.93L327.58,417.59L327.85,421.82L322.22,430.14Z"><title>富士見町</title></path>
<path data-code="20363" data-name="原村" d="M321.62,371.55L320.71,367.84L329.17,367.57L330.22,364.26L373.22,368.77L370.43,373.60L355.97,370.44L350.69,371.65L345.34,376.79L338.78,378.13L335.46,382.40L331.08,380.56L333.00,378.53L328.07,377.96L329.34,376.03L324.76,374.99L321.62,371.55Z"><title>原村</title></path>
<path data-code="20382" data-name="辰野町" d="M236.04,390.07L225.73,383.47L224.22,377.46L233.22,368.74L238.05,358.79L244.02,354.40L244.92,352.80L242.76,350.65L243.82,348.80L251.20,344.57L255.57,337.32L257.57,337.38L257.63,340.46L265.21,343.86L273.10,340.89L269.02,354.21L281.49,354.82L281.35,358.55L283.70,358.97L283.86,370.90L280.74,371.83L276.01,378.05L269.30,375.49L268.21,378.92L262.55,378.81L253.32,373.83L246.40,381.54L238.06,385.31L236.04,390.07Z"><title>辰野町</title></path>
<path data-code="20383" data-name="箕輪町" d="M271.22,399.69L268.08,400.51L269.50,398.93L267.60,398.03L266.82,393.88L249.94,391.25L240.09,383.94L246.40,381.54L253.32,373.83L262.55,378.81L268.21,378.92L269.30,375.49L276.87,377.58L280.74,371.83L287.06,377.32L295.10,372.64L296.07,377.49L289.69,387.74L284.15,387.78L281.07,394.29L271.22,399.69Z"><title>箕輪町</title></path>
<path data-code="20384" data-name="飯島町" d="M236.80,482.57L234.14,478.82L228.51,477.38L225.98,482.14L218.54,480.37L216.51,476.36L217.01,467.61L219.91,463.90L220.78,455.52L230.06,460.28L232.64,459.79L236.36,463.56L246.69,459.16L257.92,461.09L259.01,463.80L257.33,467.47L265.01,464.25L263.05,470.80L261.90,472.18L258.13,470.43L256.06,476.84L249.80,475.28L250.38,477.20L247.75,480.55L236.80,482.57Z"><title>飯島町</title></path>
<path data-code="20385" data-name="南箕輪村" d="M232.23,389.00L235.80,390.28L240.08,384.40L251.21,391.21L245.08,394.66L238.71,393.33L237.21,400.29L241.28,406.54L234.20,402.75L231.65,404.09L231.91,401.00L229.15,396.41L232.23,389.00ZM257.58,393.71L266.82,393.88L267.60,398.03L269.12,397.98L263.91,408.86L258.81,405.02L256.60,410.15L245.40,407.44L245.40,405.92L251.54,405.33L251.67,402.65L254.80,405.41L257.72,403.99L258.25,401.38L252.68,398.92L254.53,395.01L258.42,396.39L257.58,393.71Z"><title>南箕輪村</title></path>
<path data-code="20386" data-name="中川村" d="M243.44,481.72L245.23,479.74L247.75,480.55L250.38,477.20L249.80,475.28L256.06,476.84L258.09,470.48L261.90,472.18L264.68,466.13L267.23,469.60L270.58,468.12L278.54,469.88L280.94,472.53L282.06,480.82L278.62,488.96L272.08,496.31L268.93,492.04L260.42,494.67L255.10,492.15L252.67,494.49L244.84,487.18L245.04,481.88L243.44,481.72Z"><title>中川村</title></path>
<path data-code="20388" data-name="宮田村" d="M236.71,445.03L232.65,444.97L231.86,440.70L224.75,438.13L217.43,430.74L225.46,424.49L232.90,425.04L235.01,425.83L238.44,432.39L249.04,434.37L254.04,430.55L250.38,434.39L256.52,437.01L260.02,433.92L261.29,444.05L236.71,445.03Z"><title>宮田村</title></path>
<path data-code="20402" data-name="松川町" d="M270.42,508.31L264.54,502.24L255.64,506.00L250.39,502.76L246.90,503.43L243.99,500.08L235.67,497.01L234.97,494.69L225.71,493.52L221.75,488.94L220.89,482.63L218.27,480.80L225.98,482.14L228.51,477.38L234.14,478.82L235.08,481.78L238.58,483.40L244.64,481.69L244.83,487.17L252.67,494.49L255.10,492.15L260.42,494.67L269.04,492.07L271.87,496.27L269.35,500.51L276.28,508.64L276.07,511.48L274.76,513.03L270.42,508.31Z"><title>松川町</title></path>
<path data-code="20403" data-name="高森町" d="M219.69,505.57L222.65,497.43L220.52,492.90L222.69,490.01L225.76,493.54L236.13,495.25L235.67,497.01L240.96,498.36L248.56,504.23L242.94,506.49L237.54,519.19L228.79,512.59L225.91,512.87L224.14,508.50L219.69,505.57Z"><title>高森町</title></path>
<path data-code="20404" data-name="阿南町" d="M194.89,620.85L190.74,620.76L192.71,621.01L195.50,617.24L194.12,614.17L197.48,607.71L197.70,600.08L195.65,597.01L189.51,598.69L181.73,595.32L185.12,590.30L185.03,584.05L192.83,581.29L194.96,577.02L198.45,577.18L200.89,573.66L208.12,581.47L213.24,572.88L216.08,571.84L214.69,569.24L219.31,566.70L219.47,572.12L228.41,582.64L225.15,588.68L227.69,594.59L219.57,597.60L217.47,601.44L216.74,599.39L214.65,599.98L208.46,607.33L207.40,613.76L194.89,620.85Z"><title>阿南町</title></path>
<path data-code="20407" data-name="阿智村" d="M167.13,559.45L165.36,553.08L159.16,547.45L166.09,540.41L169.83,539.63L167.84,529.22L169.83,526.30L173.22,525.61L174.38,519.04L181.61,518.60L184.30,517.01L185.78,511.55L189.14,510.96L193.40,522.10L200.91,525.63L195.80,532.74L198.32,536.80L197.54,539.03L203.23,544.55L204.78,541.26L205.93,543.17L204.94,550.08L207.77,557.41L199.43,563.41L195.72,569.11L199.49,569.46L199.95,575.70L195.86,578.34L194.96,577.02L190.71,582.24L181.29,582.65L172.82,573.77L173.31,570.12L169.93,559.91L167.13,559.45Z"><title>阿智村</title></path>
<path data-code="20409" data-name="平谷村" d="M167.97,596.26L154.20,591.80L162.22,585.13L160.68,570.65L154.85,566.77L154.31,563.46L164.69,566.34L170.36,563.84L172.50,566.46L172.79,573.72L175.67,577.64L181.29,582.65L185.43,583.38L185.12,590.30L181.85,593.46L177.28,609.18L173.37,607.11L167.91,609.38L168.16,601.39L170.06,598.12L167.97,596.26Z"><title>平谷村</title></path>
<path data-code="20410" data-name="根羽村" d="M167.97,627.90L155.00,632.00L155.23,625.05L146.22,614.06L149.49,609.44L148.90,606.26L153.05,603.41L149.08,599.11L149.32,594.15L153.35,591.32L167.13,595.58L170.05,597.90L168.16,601.39L167.91,609.38L173.85,607.12L178.16,610.37L180.73,617.45L179.89,620.60L175.93,622.57L173.37,628.60L167.97,627.90Z"><title>根羽村</title></path>
<path data-code="20411" data-name="下條村" d="M196.47,569.19L199.43,563.41L207.85,556.62L209.95,557.24L213.87,554.31L220.70,555.70L219.22,558.49L220.95,560.14L218.16,563.39L218.10,568.11L214.69,569.24L216.08,571.84L213.24,572.88L208.12,581.47L199.11,572.70L199.49,569.46L196.47,569.19Z"><title>下條村</title></path>
<path data-code="20412" data-name="売木村" d="M190.91,620.84L183.53,619.66L178.65,622.18L180.74,617.50L177.17,606.00L179.51,604.05L181.55,595.35L189.51,598.69L195.65,597.01L197.70,600.08L197.48,607.71L194.12,614.17L195.50,617.24L190.91,620.84Z"><title>売木村</title></path>
<path data-code="20413" data-name="天龍村" d="M202.38,624.82L194.96,624.29L194.65,621.19L207.40,613.76L208.46,607.33L214.65,599.98L218.29,601.05L219.57,597.60L227.01,595.54L228.09,591.99L232.77,593.83L233.96,601.37L237.80,599.63L243.75,604.27L242.24,612.54L238.86,615.28L239.52,619.32L236.12,625.24L229.18,624.21L226.64,627.42L222.07,626.34L210.42,630.74L207.26,629.32L207.35,625.38L202.38,624.82Z"><title>天龍村</title></path>
<path data-code="20414" data-name="泰阜村" d="M225.29,589.11L228.43,582.75L219.10,571.30L219.77,567.30L218.14,563.51L220.95,560.14L219.23,558.52L220.18,556.45L230.58,561.53L235.85,567.77L240.15,568.27L244.85,577.62L251.30,576.99L250.31,582.30L242.64,589.95L230.70,589.46L227.81,593.54L225.29,589.11Z"><title>泰阜村</title></path>
<path data-code="20415" data-name="喬木村" d="M236.80,535.41L235.57,532.20L239.45,533.25L238.95,530.40L233.40,529.66L233.25,526.47L237.65,519.04L242.63,521.45L248.17,527.80L260.78,525.95L267.82,533.77L266.80,538.32L260.74,547.18L261.27,549.54L256.50,554.30L248.75,550.60L246.98,541.79L240.04,540.21L236.80,535.41Z"><title>喬木村</title></path>
<path data-code="20416" data-name="豊丘村" d="M268.12,533.57L260.78,525.95L248.17,527.80L242.63,521.45L237.65,519.04L242.94,506.49L249.41,502.69L256.77,506.02L264.54,502.24L268.56,507.70L273.94,510.52L274.79,513.18L268.12,533.57Z"><title>豊丘村</title></path>
<path data-code="20417" data-name="大鹿村" d="M271.22,533.00L268.76,531.75L269.21,529.16L276.30,508.80L269.37,499.71L281.67,482.96L280.92,472.80L283.34,469.89L283.17,464.20L285.16,460.60L288.11,460.05L292.45,463.19L296.54,476.64L299.45,478.75L300.38,486.20L299.04,490.24L301.12,494.20L305.66,497.41L307.25,501.73L313.00,504.85L310.15,510.65L313.68,511.20L315.11,514.10L309.29,521.87L311.51,523.12L309.62,529.00L316.54,531.51L314.26,537.38L315.32,540.52L313.95,543.38L304.39,544.89L300.79,538.59L297.25,538.05L294.06,534.29L290.52,535.08L281.85,543.86L279.79,539.94L271.22,533.00Z"><title>大鹿村</title></path>
<path data-code="20422" data-name="上松町" d="M148.54,452.41L145.19,450.65L142.76,442.63L151.89,443.85L152.14,441.13L160.83,437.38L158.35,433.07L159.05,429.78L167.75,431.32L168.54,427.94L179.59,430.27L184.38,423.10L189.90,419.63L197.68,419.49L202.47,422.87L207.98,423.07L214.18,430.59L217.43,430.74L218.72,433.10L214.13,439.53L209.19,441.21L206.55,445.97L204.30,446.49L203.21,453.17L198.40,457.07L186.08,451.91L184.02,446.38L178.60,443.79L173.94,445.89L172.54,450.71L175.09,452.87L173.35,456.89L170.39,457.94L161.42,459.28L158.07,455.32L157.88,449.64L154.50,448.13L148.54,452.41Z"><title>上松町</title></path>
<path data-code="20423" data-name="南木曽町" d="M151.34,506.78L153.18,500.74L143.90,500.64L137.35,492.61L140.87,483.67L144.14,482.20L146.07,478.11L143.29,472.91L136.15,467.27L138.58,465.57L146.37,464.99L151.62,468.90L160.67,470.53L163.17,472.28L163.97,475.97L170.78,480.78L172.30,478.34L174.59,478.98L180.50,475.17L182.93,478.85L185.73,479.25L188.82,485.08L195.41,487.76L196.77,490.18L192.80,495.66L194.25,500.06L185.72,505.98L187.04,510.99L184.30,517.01L174.45,518.98L173.14,525.69L169.83,526.30L163.23,518.08L155.88,516.20L151.34,506.78Z"><title>南木曽町</title></path>
<path data-code="20425" data-name="木祖村" d="M210.13,387.41L207.42,391.85L203.84,390.32L187.57,369.50L188.75,356.34L199.06,343.05L198.40,335.45L203.66,329.52L211.18,334.07L215.14,332.30L216.87,339.37L220.50,340.74L218.37,353.63L218.58,367.95L214.87,372.69L216.53,384.08L210.13,387.41Z"><title>木祖村</title></path>
<path data-code="20429" data-name="王滝村" d="M133.55,456.20L130.14,455.64L125.52,449.06L122.45,440.35L117.08,441.30L115.45,437.01L104.16,434.77L105.18,432.17L103.76,427.66L88.98,427.85L85.24,423.08L87.66,412.87L95.31,411.43L97.09,406.50L96.21,400.30L100.74,395.68L116.37,391.37L119.88,395.74L128.25,395.47L134.82,402.46L153.75,409.22L155.03,415.75L159.88,422.37L163.66,416.87L163.10,413.80L166.09,416.14L162.65,426.17L163.19,428.98L167.94,428.16L167.77,431.31L159.05,429.78L160.05,438.23L152.14,441.13L151.83,443.87L142.76,442.63L145.19,450.65L148.61,453.74L147.82,455.14L145.77,454.83L142.49,458.25L133.55,456.20Z"><title>王滝村</title></path>
<path data-code="20430" data-name="大桑村" d="M162.99,473.15L160.67,470.53L151.62,468.90L146.37,464.99L142.14,464.46L135.52,467.31L129.66,459.31L130.14,455.64L142.97,458.15L154.50,448.13L157.88,449.64L158.07,455.32L161.42,459.28L170.39,457.94L173.35,456.89L175.09,452.87L172.54,450.71L173.94,445.89L178.60,443.79L184.02,446.38L186.08,451.91L198.40,457.07L203.21,453.17L204.30,446.49L218.59,434.16L219.95,443.09L217.02,447.79L217.75,452.74L220.97,454.96L219.15,460.83L219.93,463.79L217.01,467.61L216.54,476.32L209.84,484.63L196.99,490.95L195.41,487.76L188.82,485.08L185.73,479.25L182.93,478.85L180.50,475.17L174.59,478.98L172.30,478.34L170.78,480.78L163.97,475.97L162.99,473.15Z"><title>大桑村</title></path>
<path data-code="20432" data-name="木曽町" d="M162.63,415.82L163.66,416.87L159.01,421.93L155.03,415.75L153.75,409.22L134.82,402.46L126.99,395.13L129.20,387.61L134.53,379.50L140.30,378.62L142.51,372.09L145.11,370.39L145.88,364.43L158.41,356.78L160.94,350.17L164.65,352.74L170.31,349.88L179.13,355.33L183.57,353.28L189.67,355.57L187.58,369.53L203.84,390.32L207.42,391.85L210.41,387.12L216.64,384.18L217.39,393.63L220.59,400.40L217.94,403.39L217.36,410.01L219.14,411.40L217.77,415.49L220.61,417.38L223.90,425.57L215.10,430.89L207.98,423.07L202.47,422.87L197.68,419.49L189.90,419.63L184.38,423.10L179.59,430.27L169.21,427.99L163.27,429.00L162.78,422.58L166.26,417.19L164.19,413.74L162.63,415.82Z"><title>木曽町</title></path>
<path data-code="20446" data-name="麻績村" d="M264.92,202.00L272.68,195.36L280.40,193.75L283.92,190.34L291.75,191.75L291.53,194.63L295.18,196.18L285.39,204.25L286.98,205.64L284.95,207.10L286.71,210.74L285.98,215.90L276.66,209.35L273.27,209.85L274.16,206.96L272.42,200.14L264.92,202.00Z"><title>麻績村</title></path>
<path data-code="20448" data-name="生坂村" d="M249.49,220.04L250.71,218.79L247.36,214.85L249.02,214.11L245.15,209.27L251.64,205.57L253.88,199.83L250.94,198.43L254.43,195.16L254.24,192.85L257.26,192.41L261.19,201.05L264.92,202.00L263.80,205.04L261.45,203.99L262.35,208.52L260.39,214.46L263.70,221.16L257.45,228.10L252.08,229.03L250.88,225.04L251.94,222.31L249.49,220.04Z"><title>生坂村</title></path>
<path data-code="20450" data-name="山形村" d="M219.13,309.50L232.14,298.07L238.70,294.60L243.02,294.92L244.21,299.44L239.65,309.00L237.36,308.20L229.16,313.27L219.13,309.50Z"><title>山形村</title></path>
<path data-code="20451" data-name="朝日村" d="M231.61,330.61L223.87,340.07L220.36,340.45L216.87,339.37L215.14,332.30L211.18,334.07L203.66,329.52L210.09,325.12L214.60,314.81L219.20,309.44L229.16,313.27L238.73,308.31L241.56,311.08L238.89,314.99L240.71,313.37L243.71,317.23L241.31,317.99L231.61,330.61Z"><title>朝日村</title></path>
<path data-code="20452" data-name="筑北村" d="M270.86,232.40L260.37,215.31L262.35,208.52L261.52,203.88L263.80,205.04L264.92,202.00L271.44,199.59L273.91,204.89L273.27,209.85L276.66,209.35L285.98,215.90L286.71,210.74L284.95,207.10L286.98,205.64L285.39,204.25L293.60,197.05L300.39,199.27L300.43,202.55L304.74,208.98L302.60,211.38L302.70,222.44L297.89,220.23L289.36,221.88L292.81,232.26L285.44,229.69L276.72,230.95L273.95,233.71L270.86,232.40Z"><title>筑北村</title></path>
<path data-code="20481" data-name="池田町" d="M236.08,229.77L235.23,208.74L238.55,209.39L238.77,207.08L241.97,206.01L240.14,197.35L246.92,196.99L249.29,200.08L250.94,198.43L253.88,199.83L251.64,205.57L245.15,209.27L250.57,218.52L246.37,221.75L247.19,226.27L244.20,225.29L246.97,233.52L240.48,235.00L236.08,229.77Z"><title>池田町</title></path>
<path data-code="20482" data-name="松川村" d="M203.45,219.03L217.13,215.90L218.93,210.82L216.77,208.15L220.00,204.71L221.59,208.52L227.07,207.02L231.70,210.01L235.23,208.74L236.90,225.47L236.06,229.89L230.86,224.80L224.70,229.17L223.12,225.70L218.96,224.43L213.56,225.38L209.62,223.47L207.38,225.24L203.47,221.65L203.45,219.03Z"><title>松川村</title></path>
<path data-code="20485" data-name="白馬村" d="M234.50,146.00L234.83,147.60L226.36,147.05L225.54,149.66L222.51,149.71L221.79,143.39L215.66,136.78L208.24,135.20L205.30,132.51L205.06,125.23L203.55,124.71L204.23,121.95L202.39,118.82L202.59,111.38L204.94,106.55L202.91,102.70L205.91,97.76L221.52,100.22L229.52,105.35L227.89,103.09L231.64,103.11L233.12,105.76L239.49,107.70L239.92,110.01L245.42,107.17L255.12,108.14L251.16,112.53L251.81,116.14L247.60,122.83L248.37,127.22L245.13,134.00L246.28,137.81L234.61,143.39L234.50,146.00Z"><title>白馬村</title></path>
<path data-code="20486" data-name="小谷村" d="M228.16,103.40L230.18,105.26L221.52,100.22L206.47,97.37L221.65,86.96L225.04,82.90L224.84,79.73L231.83,71.38L232.09,68.38L237.20,63.79L237.56,61.36L235.05,60.01L233.10,55.32L235.89,51.78L233.25,49.69L234.35,47.12L241.97,48.86L249.46,45.46L257.03,47.92L260.85,51.55L262.64,48.62L268.85,48.61L275.00,50.90L275.82,54.85L279.80,55.25L279.97,59.65L274.98,65.76L276.79,71.91L265.91,85.79L262.34,92.72L262.38,96.23L255.53,107.80L245.42,107.17L239.92,110.01L239.49,107.70L233.12,105.76L231.70,103.14L228.16,103.40Z"><title>小谷村</title></path>
<path data-code="20521" data-name="坂城町" d="M317.10,217.22L306.69,209.48L308.67,206.46L316.58,204.15L317.83,200.74L314.44,198.81L318.89,197.64L319.73,193.53L327.26,188.45L334.75,195.59L334.24,200.87L339.99,207.64L339.69,211.33L317.10,217.22Z"><title>坂城町</title></path>
<path data-code="20541" data-name="小布施町" d="M349.23,119.31L351.05,115.40L362.42,111.94L365.86,115.11L364.43,117.52L367.14,121.36L365.21,125.08L361.51,126.57L358.29,124.49L348.65,124.51L349.23,119.31Z"><title>小布施町</title></path>
<path data-code="20543" data-name="高山村" d="M374.08,138.49L366.58,138.11L362.49,126.51L371.76,119.11L379.98,121.79L390.74,121.55L400.46,125.20L401.60,128.50L418.41,132.15L415.51,137.35L406.15,140.48L401.47,139.51L397.48,142.80L398.01,145.57L395.21,150.88L391.95,150.82L379.70,143.22L377.43,138.12L374.08,138.49Z"><title>高山村</title></path>
<path data-code="20561" data-name="山ノ内町" d="M418.20,131.80L401.68,128.53L400.28,125.11L382.93,120.76L379.17,113.35L379.99,108.99L377.96,104.79L380.71,99.42L376.77,95.94L382.51,89.96L382.53,86.31L386.20,85.46L390.18,79.40L405.05,84.53L406.71,88.59L413.66,84.48L416.97,85.57L420.31,78.12L429.70,82.96L441.76,83.11L445.84,89.18L443.64,101.41L447.92,108.46L448.00,112.33L442.41,113.55L439.40,118.26L435.24,115.48L432.02,120.03L425.34,118.04L412.83,123.58L414.36,124.12L413.91,128.55L418.20,131.80Z"><title>山ノ内町</title></path>
<path data-code="20562" data-name="木島平村" d="M377.05,76.98L380.87,72.11L376.99,69.04L380.33,68.38L382.07,63.71L380.43,61.75L381.45,58.79L385.83,61.65L394.13,60.77L397.65,58.19L400.92,58.55L405.36,54.02L407.25,54.79L406.75,56.99L409.26,60.32L407.79,66.96L422.93,66.77L424.49,68.66L420.23,73.95L422.52,78.21L419.10,79.26L417.06,85.50L413.66,84.48L407.05,88.59L405.05,84.53L390.18,79.40L386.20,85.46L381.54,86.51L380.03,82.85L380.69,77.07L377.05,76.98Z"><title>木島平村</title></path>
<path data-code="20563" data-name="野沢温泉村" d="M387.21,46.59L387.55,36.35L390.06,36.90L389.95,33.47L398.01,26.32L414.72,23.72L413.54,26.85L407.84,31.23L403.59,41.93L404.19,43.94L407.98,43.76L412.75,49.34L409.41,55.96L406.83,57.04L407.25,54.79L405.36,54.02L400.92,58.55L398.38,58.18L392.79,53.59L391.58,50.01L387.61,48.40L389.18,47.46L388.39,44.39L387.21,46.59Z"><title>野沢温泉村</title></path>
<path data-code="20583" data-name="信濃町" d="M320.29,103.40L309.80,104.24L305.02,99.51L304.29,95.11L305.94,91.39L298.33,93.29L297.45,86.04L299.14,82.38L295.77,74.18L302.82,69.18L317.75,70.99L327.21,66.88L330.08,62.11L335.92,64.64L341.35,62.49L345.10,65.75L347.13,73.84L343.30,78.83L348.41,80.90L345.73,83.94L340.72,85.09L338.87,91.26L330.86,94.85L330.21,100.08L326.52,99.86L320.29,103.40Z"><title>信濃町</title></path>
<path data-code="20588" data-name="小川村" d="M247.89,134.64L250.41,134.73L255.94,129.97L262.87,131.39L264.33,129.77L267.88,133.08L274.82,134.94L271.35,141.27L271.86,154.32L267.42,155.72L261.02,153.21L258.09,156.25L251.63,154.87L250.99,151.47L247.64,148.18L249.36,142.19L245.13,134.00L247.89,134.64Z"><title>小川村</title></path>
<path data-code="20590" data-name="飯綱町" d="M309.80,104.24L320.67,104.23L319.79,102.94L324.90,102.05L326.27,99.95L330.21,100.08L330.86,94.85L338.87,91.26L340.72,85.09L345.73,83.94L348.41,80.90L343.30,78.83L347.13,73.84L349.12,80.94L346.63,83.16L348.53,84.69L348.27,89.74L352.17,89.69L354.65,92.46L354.99,98.63L352.19,104.80L346.62,106.93L344.55,104.56L343.05,110.95L340.36,114.21L334.89,113.31L330.60,117.36L324.81,116.11L318.79,110.79L308.52,106.97L309.80,104.24Z"><title>飯綱町</title></path>
<path data-code="20602" data-name="栄村" d="M448.02,112.32L447.92,108.46L443.64,101.41L445.84,89.18L441.76,83.11L429.70,82.96L423.24,79.54L420.23,73.95L424.49,68.66L422.93,66.77L407.61,66.65L409.26,60.32L407.21,57.14L412.75,49.34L407.98,43.76L404.19,43.94L403.59,41.93L407.84,31.23L414.84,24.01L408.49,25.67L406.48,22.53L407.91,18.48L412.91,14.29L414.87,8.00L418.93,11.06L427.02,10.94L429.77,19.46L432.74,22.20L431.71,42.50L434.24,43.63L433.32,47.51L435.43,49.88L442.20,50.88L441.31,54.99L443.41,58.26L446.20,57.92L452.21,63.16L458.86,64.06L462.08,67.67L461.25,75.22L458.33,79.18L462.80,83.65L460.28,89.65L455.41,93.58L456.43,96.44L460.67,98.03L462.83,107.31L448.02,112.32Z"><title>栄村</title></path>
  </g>
</svg>
