<?xml version="1.0" encoding="UTF-8"?>
<svg xmlns="http://www.w3.org/2000/svg" viewBox="0 0 560 640" class="pref-muni-svg" role="img" aria-label="自治体境界図">
  <g class="pref-muni-svg__paths" fill="#eaf2fb" stroke="#5b7fa8" stroke-width="0.6" stroke-linejoin="round">
<path data-code="42201" data-name="長崎市" d="M352.25,495.52L354.38,493.41L355.32,494.04L354.79,495.96L355.80,494.40L354.94,493.43L360.06,490.81L359.89,489.18L362.05,488.30L361.95,485.66L364.33,480.60L365.72,478.86L367.11,479.14L367.75,472.13L366.00,471.56L366.36,472.51L364.48,473.78L362.10,471.49L362.37,469.90L364.87,470.83L367.14,469.16L367.24,467.29L369.62,466.82L368.81,469.73L367.68,469.88L369.40,471.95L370.99,471.30L370.24,469.32L372.95,468.93L372.07,467.43L373.38,467.60L373.79,463.96L375.55,463.72L374.90,462.62L377.27,460.14L377.40,457.55L375.23,458.35L374.70,461.52L373.34,461.58L372.59,464.11L371.50,462.47L369.16,464.99L366.81,464.56L369.98,461.04L368.83,459.56L369.55,458.64L368.46,457.89L366.96,460.01L364.72,458.62L366.63,455.18L365.25,454.79L365.28,456.43L364.42,454.56L363.28,454.94L362.26,453.63L364.33,451.27L362.02,450.56L362.12,448.90L359.36,446.20L357.27,445.74L359.46,441.41L358.06,441.01L357.83,442.32L356.38,441.72L357.37,440.78L356.64,440.39L355.84,442.21L355.64,440.90L353.48,440.69L352.40,443.98L351.15,444.01L350.76,442.16L348.36,440.69L348.14,438.02L344.98,438.64L344.99,436.55L341.54,433.58L339.86,427.07L340.82,427.49L338.63,423.85L340.80,422.08L345.85,421.34L346.40,419.89L351.88,419.80L352.81,418.49L351.82,415.86L352.50,412.02L358.76,409.86L362.28,407.06L366.21,409.12L367.41,411.99L365.75,418.95L363.27,417.03L364.31,413.98L362.73,415.28L363.56,410.30L360.65,413.37L361.76,418.04L360.95,418.61L362.66,419.41L361.01,419.54L361.46,422.53L361.91,421.48L362.86,422.61L362.42,420.88L365.12,420.78L364.74,424.11L365.96,424.00L364.46,427.38L362.79,426.72L363.17,425.28L362.04,426.22L361.66,430.36L363.05,428.98L362.15,431.31L367.79,439.82L367.32,442.33L371.43,441.87L371.26,443.46L372.75,442.99L375.52,446.14L376.85,443.79L376.93,446.64L378.24,444.23L385.41,443.26L387.66,440.98L389.65,442.06L392.68,441.31L394.53,443.37L397.54,441.49L400.89,444.43L400.05,446.45L401.02,450.49L399.73,452.29L399.85,455.16L394.22,453.77L392.09,455.21L393.87,459.20L390.82,461.42L391.29,462.76L389.57,464.72L388.64,463.46L387.97,466.93L385.54,465.85L385.79,470.26L382.22,477.48L377.75,479.98L377.62,481.51L372.76,483.06L371.26,482.22L371.07,486.93L364.71,493.83L361.08,496.32L359.99,495.60L360.27,498.22L356.99,495.57L352.13,498.73L352.25,495.52ZM358.98,503.21L359.12,499.62L361.76,498.78L362.18,501.57L358.98,503.21ZM354.26,478.51L353.54,477.53L355.69,476.34L354.95,480.65L354.26,478.51ZM357.03,467.19L356.19,465.23L360.40,467.94L357.03,467.19ZM359.05,469.32L358.42,468.58L360.16,468.15L361.11,470.39L359.67,470.84L359.05,469.32ZM396.93,457.25L395.35,454.43L398.50,454.95L397.97,456.65L400.17,457.00L399.17,458.14L396.93,457.25ZM323.58,426.99L325.85,424.84L327.07,425.71L325.52,427.32L323.58,426.99Z"><title>長崎市</title></path>
<path data-code="42202" data-name="佐世保市" d="M354.26,385.39L352.59,385.37L353.33,384.26L352.24,383.41L354.12,382.05L353.48,380.87L352.24,381.78L350.33,376.42L355.06,376.88L353.04,371.95L354.42,371.21L355.16,373.67L356.30,373.73L355.72,370.55L358.81,370.90L355.76,369.70L357.26,366.95L362.49,368.09L362.83,373.89L361.26,375.95L362.91,378.90L362.52,381.09L357.31,382.23L357.47,380.73L356.53,381.20L358.12,379.23L357.73,376.78L355.74,381.35L360.26,385.70L357.08,386.39L357.38,388.37L355.12,386.99L355.85,385.29L354.26,385.39ZM360.65,384.56L360.65,384.56L360.64,384.56L360.64,384.56L360.63,384.56L360.63,384.56L360.62,384.55L360.62,384.55L360.61,384.55L360.61,384.54L360.61,384.54L360.60,384.54L360.60,384.54L360.59,384.53L360.59,384.53L360.58,384.53L360.58,384.53L360.57,384.54L360.57,384.54L360.57,384.54L360.56,384.54L360.56,384.54L360.55,384.54L360.54,384.54L360.54,384.54L360.54,384.53L360.53,384.53L360.53,384.53L360.52,384.52L360.52,384.52L360.52,384.51L360.52,384.51L360.52,384.50L360.52,384.50L360.51,384.49L360.51,384.49L360.51,384.48L360.51,384.48L360.51,384.47L360.51,384.47L360.51,384.46L360.51,384.46L360.51,384.45L360.51,384.45L360.50,384.44L360.50,384.43L360.49,384.43L360.49,384.42L360.49,384.41L360.48,384.40L360.48,384.39L360.48,384.38L360.47,384.36L360.46,384.35L360.46,384.33L360.47,384.32L360.47,384.31L360.48,384.29L360.49,384.27L360.51,384.24L360.51,384.22L360.51,384.21L360.51,384.19L360.50,384.16L360.49,384.14L360.49,384.14L360.47,384.12L360.46,384.11L360.44,384.14L360.44,384.14L360.45,384.11L360.42,384.09L360.39,384.08L360.39,384.07L360.38,384.07L360.38,384.05L360.37,384.03L360.35,384.00L360.35,384.00L360.34,383.99L360.30,383.94L360.30,383.93L360.30,383.93L360.27,383.92L360.23,383.96L360.22,383.96L360.25,383.92L360.25,383.92L360.26,383.91L360.24,383.90L360.23,383.89L360.23,383.88L360.22,383.87L360.22,383.85L360.21,383.84L360.21,383.83L360.22,383.82L360.22,383.81L360.22,383.80L360.21,383.78L360.20,383.75L360.19,383.72L360.19,383.71L360.19,383.70L360.19,383.66L360.18,383.63L360.18,383.61L360.18,383.60L360.17,383.58L360.17,383.56L360.16,383.54L360.15,383.52L360.14,383.51L360.14,383.49L360.14,383.46L360.14,383.46L360.12,383.46L360.11,383.45L360.08,383.45L360.06,383.45L360.05,383.45L360.01,383.48L360.01,383.48L360.00,383.49L359.99,383.49L359.95,383.51L359.94,383.51L359.92,383.52L359.91,383.52L359.89,383.53L359.88,383.54L359.87,383.55L359.85,383.55L359.82,383.56L359.77,383.56L359.75,383.57L359.74,383.57L359.73,383.56L359.72,383.56L359.70,383.55L359.67,383.55L359.65,383.55L359.64,383.54L359.63,383.53L359.62,383.52L359.61,383.49L359.59,383.47L359.59,383.46L359.59,383.46L359.59,383.45L359.59,383.45L359.60,383.44L359.58,383.42L359.58,383.40L359.57,383.39L359.57,383.37L359.57,383.35L359.58,383.33L359.58,383.31L359.57,383.31L359.57,383.29L359.59,383.30L359.59,383.29L359.60,383.28L359.60,383.28L359.63,383.24L359.63,383.24L359.64,383.23L359.65,383.21L359.67,383.19L359.68,383.17L359.71,383.13L359.71,383.12L359.72,383.12L359.72,383.11L359.72,383.10L359.73,383.09L359.74,383.05L359.75,383.02L359.76,383.00L359.77,382.96L359.78,382.95L359.78,382.94L359.78,382.92L359.78,382.91L359.77,382.87L359.74,382.81L359.74,382.80L359.72,382.78L359.72,382.77L359.70,382.75L359.70,382.75L359.70,382.75L359.70,382.75L359.71,382.74L359.72,382.72L359.72,382.72L359.74,382.70L359.74,382.69L359.74,382.68L359.74,382.68L359.73,382.67L359.72,382.65L359.70,382.63L359.69,382.62L359.68,382.59L359.66,382.58L359.66,382.57L359.65,382.56L359.65,382.56L359.66,382.56L359.66,382.56L359.67,382.56L359.68,382.57L359.68,382.57L359.69,382.58L359.70,382.58L359.71,382.58L359.71,382.58L359.72,382.58L359.72,382.59L359.72,382.59L359.73,382.61L359.73,382.63L359.74,382.64L359.75,382.66L359.75,382.67L359.75,382.67L359.76,382.67L359.78,382.66L359.80,382.65L359.82,382.64L359.82,382.63L359.82,382.63L359.81,382.62L359.81,382.61L359.81,382.59L359.81,382.58L359.82,382.56L359.82,382.55L359.83,382.55L359.84,382.53L359.85,382.52L359.85,382.52L359.86,382.51L359.86,382.50L359.86,382.49L359.86,382.47L359.86,382.46L359.86,382.46L359.86,382.46L359.87,382.45L359.87,382.45L359.88,382.46L359.88,382.47L359.89,382.49L359.89,382.50L359.90,382.53L359.97,382.48L359.96,382.46L359.95,382.42L359.94,382.39L359.94,382.37L359.94,382.35L359.94,382.34L359.94,382.33L359.95,382.31L359.95,382.31L359.96,382.30L359.97,382.30L359.98,382.30L359.98,382.30L360.03,382.25L360.02,382.24L360.01,382.23L360.01,382.22L360.00,382.21L360.00,382.20L360.01,382.19L360.01,382.18L360.02,382.17L360.03,382.16L360.04,382.16L360.05,382.15L360.06,382.15L360.10,382.13L360.12,382.13L360.13,382.13L360.14,382.13L360.14,382.14L360.15,382.15L360.16,382.17L360.17,382.19L360.17,382.20L360.23,382.21L360.24,382.19L360.25,382.18L360.26,382.17L360.28,382.17L360.29,382.17L360.32,382.18L360.35,382.19L360.39,382.21L360.40,382.21L360.43,382.22L360.45,382.22L360.46,382.23L360.48,382.24L360.49,382.25L360.50,382.25L360.53,382.26L360.56,382.27L360.58,382.28L360.60,382.30L360.61,382.31L360.62,382.33L360.63,382.34L360.64,382.37L360.65,382.39L360.65,382.40L360.67,382.42L360.68,382.43L360.69,382.45L360.70,382.46L360.70,382.47L360.70,382.49L360.70,382.50L360.70,382.51L360.69,382.52L360.67,382.54L360.66,382.54L360.65,382.55L360.65,382.57L360.64,382.59L360.64,382.61L360.63,382.61L360.63,382.62L360.64,382.63L360.64,382.64L360.64,382.65L360.64,382.66L360.63,382.67L360.63,382.68L360.63,382.71L360.63,382.72L360.64,382.72L360.64,382.73L360.65,382.74L360.72,382.77L360.76,382.83L360.75,382.84L360.71,382.78L360.65,382.74L360.61,382.73L360.60,382.75L360.63,382.76L360.58,382.87L360.57,382.89L360.57,382.90L360.57,382.90L360.65,382.94L360.65,382.94L360.70,382.97L360.75,383.00L360.86,383.01L360.92,382.87L360.93,382.88L360.89,382.98L360.90,382.98L360.91,382.98L360.92,382.99L360.93,383.00L360.93,383.00L360.93,383.01L360.93,383.02L360.92,383.04L360.91,383.07L360.91,383.10L360.91,383.11L360.91,383.12L360.92,383.13L360.93,383.14L360.95,383.16L360.97,383.17L360.98,383.18L361.00,383.20L361.01,383.21L361.02,383.23L361.02,383.24L361.03,383.27L361.04,383.28L361.04,383.30L361.04,383.31L361.03,383.33L361.03,383.34L361.04,383.36L361.05,383.39L361.07,383.42L361.09,383.44L361.10,383.45L361.10,383.46L361.10,383.48L361.10,383.51L361.10,383.54L361.11,383.57L361.13,383.60L361.15,383.63L361.15,383.66L361.17,383.70L361.18,383.73L361.18,383.76L361.18,383.78L361.18,383.80L361.18,383.81L361.19,383.82L361.19,383.84L361.19,383.85L361.19,383.86L361.18,383.88L361.18,383.89L361.18,383.90L361.19,383.92L361.21,383.94L361.21,383.95L361.21,383.96L361.21,383.96L361.21,383.97L361.21,383.99L361.20,384.00L361.20,384.01L361.20,384.02L361.20,384.02L361.21,384.03L361.22,384.04L361.23,384.06L361.23,384.07L361.24,384.08L361.24,384.09L361.24,384.12L361.24,384.13L361.24,384.15L361.24,384.15L361.23,384.17L361.22,384.18L361.20,384.20L361.20,384.20L361.19,384.20L361.18,384.20L361.18,384.21L361.16,384.22L361.15,384.22L361.14,384.23L361.12,384.24L361.11,384.26L361.10,384.28L361.08,384.30L361.07,384.31L361.07,384.32L361.07,384.32L361.07,384.33L361.08,384.36L361.08,384.38L361.08,384.39L361.08,384.40L361.07,384.41L361.07,384.41L361.06,384.43L361.06,384.45L361.05,384.46L361.05,384.47L361.04,384.49L361.04,384.50L361.04,384.51L361.03,384.51L361.03,384.54L361.03,384.54L361.03,384.55L361.03,384.55L361.03,384.56L361.03,384.57L361.02,384.57L361.02,384.58L361.02,384.59L361.02,384.60L361.02,384.60L361.02,384.61L361.01,384.62L361.01,384.62L361.00,384.64L360.98,384.66L360.96,384.67L360.94,384.68L360.93,384.69L360.92,384.69L360.92,384.69L360.91,384.70L360.90,384.70L360.89,384.71L360.88,384.71L360.87,384.71L360.85,384.71L360.84,384.70L360.84,384.70L360.84,384.70L360.83,384.70L360.83,384.70L360.83,384.70L360.83,384.70L360.82,384.69L360.82,384.69L360.82,384.69L360.82,384.69L360.82,384.69L360.81,384.69L360.81,384.69L360.81,384.69L360.81,384.69L360.81,384.69L360.80,384.68L360.80,384.68L360.80,384.68L360.80,384.68L360.80,384.68L360.79,384.68L360.79,384.68L360.79,384.68L360.79,384.68L360.79,384.68L360.79,384.68L360.79,384.67L360.78,384.67L360.78,384.67L360.78,384.67L360.78,384.67L360.78,384.67L360.77,384.66L360.77,384.66L360.77,384.66L360.77,384.66L360.77,384.66L360.77,384.66L360.77,384.65L360.76,384.65L360.76,384.65L360.76,384.65L360.76,384.65L360.76,384.65L360.76,384.65L360.75,384.64L360.75,384.64L360.75,384.64L360.75,384.64L360.75,384.64L360.75,384.64L360.74,384.64L360.74,384.64L360.74,384.63L360.74,384.63L360.74,384.63L360.74,384.63L360.74,384.63L360.73,384.63L360.73,384.63L360.73,384.63L360.73,384.63L360.73,384.63L360.72,384.62L360.72,384.62L360.72,384.62L360.72,384.62L360.72,384.62L360.72,384.62L360.71,384.61L360.71,384.61L360.72,384.61L360.72,384.61L360.71,384.61L360.71,384.60L360.71,384.60L360.71,384.60L360.71,384.60L360.71,384.60L360.71,384.59L360.71,384.59L360.71,384.59L360.71,384.59L360.71,384.59L360.71,384.59L360.71,384.58L360.70,384.58L360.70,384.58L360.70,384.58L360.69,384.57L360.69,384.57L360.69,384.57L360.68,384.57L360.68,384.57L360.67,384.56L360.67,384.56L360.66,384.56L360.66,384.56L360.66,384.56L360.65,384.56L360.65,384.56ZM371.43,380.72L369.74,382.85L367.67,382.16L363.48,384.64L365.18,383.21L363.94,382.60L365.26,382.33L362.75,380.94L363.13,378.76L361.53,376.22L363.17,373.97L362.69,368.08L357.68,366.06L355.19,367.42L355.12,366.02L352.70,369.55L351.59,367.61L350.54,368.52L351.44,370.82L350.69,371.35L349.46,370.46L349.78,368.57L348.44,368.51L350.18,366.34L349.94,365.31L348.93,366.31L348.69,364.47L350.35,363.67L349.13,363.64L349.22,362.14L347.76,362.70L347.91,361.60L347.46,363.36L346.57,361.88L345.46,362.28L346.07,363.21L344.46,363.02L345.81,364.40L345.05,367.08L346.50,367.94L346.72,370.75L344.57,371.25L346.91,373.20L340.49,373.74L339.76,372.28L339.42,375.37L337.92,376.40L336.47,369.26L337.93,371.49L340.05,370.02L341.06,370.90L341.49,367.82L342.59,369.02L344.39,368.43L344.30,367.14L341.21,366.39L340.27,364.24L341.12,362.48L339.05,361.07L338.42,362.78L336.79,361.47L337.46,360.49L334.85,361.01L335.15,359.88L332.26,361.49L333.14,359.50L333.99,359.96L333.76,358.24L334.62,359.18L336.31,357.56L335.23,355.86L336.38,355.57L333.90,354.47L334.54,352.41L342.81,347.27L340.98,344.32L342.49,341.30L341.32,338.67L339.54,338.90L335.16,335.77L333.36,338.12L331.93,337.31L330.94,338.36L329.79,342.62L333.00,346.86L333.18,352.37L330.73,356.83L328.89,354.84L330.19,352.92L329.67,350.11L328.53,353.11L325.61,352.29L327.14,350.10L326.62,349.17L328.30,348.35L326.35,348.90L324.68,351.93L321.97,350.96L322.80,349.78L320.88,350.82L319.07,348.92L318.02,350.48L316.54,350.21L316.34,349.03L318.15,349.52L316.74,348.41L319.59,346.69L319.09,343.54L318.20,344.86L317.08,343.55L319.10,343.11L318.44,340.71L319.33,339.41L320.85,339.59L319.53,338.69L319.81,337.65L320.76,338.43L320.09,336.96L321.84,335.59L320.88,336.98L321.57,338.76L324.03,336.26L323.01,336.15L322.40,332.81L323.76,333.02L326.80,328.23L329.82,328.69L326.61,327.29L326.76,325.54L330.03,324.97L329.29,323.33L331.36,322.92L331.49,321.17L336.35,326.47L337.81,326.03L338.29,328.37L345.55,328.60L346.10,330.37L347.61,330.35L347.70,333.73L353.13,336.73L356.07,336.11L357.56,338.10L359.59,337.83L366.60,344.19L365.17,351.36L367.06,354.45L367.14,357.48L371.10,360.07L373.74,359.14L377.76,361.74L373.33,367.23L372.05,376.94L372.90,378.90L371.43,380.72ZM307.90,368.08L307.07,367.38L314.69,365.00L316.06,366.81L315.89,368.55L313.93,368.24L313.14,369.81L307.90,368.08ZM324.16,361.58L321.94,362.93L323.68,360.63L321.32,357.54L322.39,357.21L321.97,355.60L324.29,355.64L324.50,357.46L323.32,356.03L322.73,358.14L324.06,358.73L324.16,361.58ZM234.38,343.07L228.97,342.88L228.01,341.88L228.83,341.12L228.15,341.81L226.49,338.94L224.32,340.23L224.98,338.98L223.78,337.65L228.02,333.86L233.67,333.54L234.24,330.51L236.16,330.25L235.92,331.29L237.58,331.88L236.76,332.57L237.31,336.03L240.49,337.46L235.73,339.47L235.02,340.30L235.90,341.86L234.38,343.07ZM224.55,342.45L224.01,343.71L222.25,343.11L221.14,340.61L223.14,339.44L222.61,342.12L224.34,341.29L224.55,342.45Z"><title>佐世保市</title></path>
<path data-code="42203" data-name="島原市" d="M474.13,460.07L468.72,457.76L458.08,457.69L457.18,456.72L461.15,456.29L461.76,454.08L459.36,454.83L454.58,453.44L455.12,449.51L456.82,449.56L458.49,445.78L460.76,433.23L463.72,430.21L467.63,433.11L470.75,442.03L472.13,442.10L472.39,444.95L475.10,449.33L473.45,448.50L475.46,450.40L474.28,450.57L473.29,453.98L474.26,455.25L474.13,460.07Z"><title>島原市</title></path>
<path data-code="42204" data-name="諫早市" d="M402.21,454.63L401.22,456.25L399.78,455.86L399.73,452.29L401.02,450.49L400.05,446.49L400.78,444.25L397.54,441.49L394.53,443.37L392.68,441.31L387.79,441.11L381.15,432.76L380.57,429.36L381.92,430.07L382.65,427.40L385.46,430.62L388.86,430.50L388.26,432.02L389.41,432.63L392.95,431.26L394.05,435.01L397.44,434.48L398.32,435.68L397.64,437.14L403.16,436.48L405.08,433.36L403.85,427.09L405.60,415.57L406.23,413.29L410.12,409.88L414.74,410.62L416.96,409.40L418.81,405.63L420.44,405.50L427.32,407.12L429.84,406.35L431.00,408.44L441.12,409.41L440.92,416.14L438.99,416.03L437.90,419.73L434.24,419.35L431.55,423.01L435.63,429.69L430.64,435.37L432.33,435.77L432.51,437.35L430.24,443.49L428.23,443.92L429.52,447.11L426.51,448.61L418.24,447.01L418.63,447.86L415.21,448.58L407.06,455.25L402.21,454.63Z"><title>諫早市</title></path>
<path data-code="42205" data-name="大村市" d="M387.25,418.98L388.18,421.07L386.55,421.98L383.05,416.33L387.25,418.98ZM402.21,434.80L398.14,430.10L395.52,428.95L395.18,426.93L396.69,425.02L393.73,425.18L394.07,423.82L392.34,423.72L393.86,421.58L389.30,418.21L388.23,414.48L389.17,410.03L388.46,407.04L391.10,405.75L392.46,401.98L394.15,401.63L395.75,403.74L401.96,400.75L404.48,400.53L405.12,401.97L410.73,398.90L413.42,402.72L416.79,402.70L418.86,405.61L416.78,409.55L414.70,410.63L410.12,409.88L406.23,413.29L403.85,427.09L404.98,434.02L402.88,435.69L402.21,434.80Z"><title>大村市</title></path>
<path data-code="42207" data-name="平戸市" d="M282.33,361.10L277.25,357.99L279.16,356.47L278.77,355.31L278.16,356.23L278.07,352.96L279.99,353.21L281.38,355.70L280.45,356.84L281.73,355.97L281.98,357.49L286.07,357.07L287.11,358.51L288.54,354.86L285.80,354.63L283.37,352.09L283.70,347.64L286.42,344.91L288.72,344.72L291.92,347.93L291.02,344.85L292.47,346.52L293.99,345.25L291.58,344.53L292.27,343.08L289.14,342.69L288.21,341.37L289.46,339.99L287.83,338.92L288.27,335.82L292.36,335.57L291.18,334.68L291.74,333.11L296.17,332.85L293.36,327.66L295.36,325.22L294.29,319.98L306.04,318.24L307.54,315.70L306.93,313.96L308.65,312.20L310.54,313.59L308.94,317.93L310.92,318.45L312.41,315.12L311.04,312.56L314.25,314.32L313.84,313.23L316.36,312.31L314.41,310.20L310.51,311.02L309.72,310.01L311.59,309.36L309.73,307.99L310.93,306.46L312.70,307.77L316.86,305.86L317.04,308.81L318.47,310.22L316.64,310.27L318.38,312.15L316.49,315.11L317.53,314.73L319.76,317.86L315.09,319.79L314.82,323.93L310.22,324.98L308.96,323.98L312.46,328.35L311.55,330.29L306.39,330.83L308.23,333.80L304.96,335.19L304.92,333.11L301.79,333.72L304.05,333.90L304.30,336.08L307.16,337.51L306.56,340.29L303.97,342.18L299.31,350.76L297.20,350.77L297.22,352.46L293.65,356.01L282.33,361.10ZM326.59,327.14L323.82,330.04L322.21,328.35L321.03,329.22L318.23,325.33L318.44,323.36L320.89,323.54L320.04,320.41L321.14,316.54L319.43,314.73L319.62,313.12L325.11,312.24L323.98,315.17L324.88,313.87L326.67,315.24L329.03,313.42L329.96,316.30L331.81,316.68L331.73,322.39L329.96,322.56L330.03,324.97L327.61,324.99L326.59,327.14ZM293.29,304.18L292.57,305.87L294.29,309.42L292.88,312.93L294.25,317.70L294.15,316.34L294.03,317.59L293.20,316.92L293.85,318.38L290.02,319.26L286.63,316.93L287.85,316.35L289.54,308.36L291.28,306.06L291.07,300.61L293.76,298.21L294.27,300.82L292.48,302.93L293.29,304.18ZM306.31,291.52L311.97,284.81L315.40,283.02L317.18,282.62L316.76,287.57L319.19,286.96L318.80,284.74L322.33,286.03L320.82,289.30L318.23,291.22L317.24,290.15L316.55,292.11L312.97,290.86L311.77,288.16L308.84,289.48L310.40,291.58L306.31,291.52ZM307.90,302.45L307.62,299.92L310.92,298.27L311.74,295.67L314.96,298.40L307.90,302.45Z"><title>平戸市</title></path>
<path data-code="42208" data-name="松浦市" d="M334.07,323.31L331.16,320.44L331.22,314.86L334.60,316.05L334.40,314.46L336.16,314.60L338.28,311.91L337.71,310.18L339.12,308.16L341.92,310.90L339.70,311.38L339.69,315.22L338.57,315.85L340.41,318.79L342.15,318.44L342.14,316.85L344.09,316.89L343.39,319.23L347.50,319.97L353.37,315.57L358.31,318.46L359.25,314.49L362.22,315.13L362.45,321.54L359.36,323.39L355.98,333.07L358.57,335.50L359.06,338.56L356.07,336.11L353.13,336.73L347.70,333.73L347.61,330.35L346.10,330.37L345.55,328.60L339.40,329.05L337.81,326.03L336.35,326.47L334.07,323.31ZM354.10,304.18L354.33,305.46L351.57,306.71L348.24,304.59L349.25,302.79L353.35,301.13L352.18,299.34L356.10,295.41L354.59,295.56L355.39,293.85L354.35,292.54L355.29,291.83L358.30,293.92L357.70,295.08L358.91,295.94L357.89,298.08L362.55,301.06L361.98,302.31L356.83,300.29L356.47,302.22L355.58,301.51L355.82,304.47L353.83,303.05L354.10,304.18ZM342.23,304.18L342.95,305.29L341.76,306.62L340.74,305.57L341.96,304.33L341.26,302.80L342.37,302.79L342.23,304.18ZM347.86,294.86L348.15,293.40L349.53,294.07L349.90,296.37L347.86,294.86ZM358.82,308.15L360.99,308.70L359.81,309.55L358.82,308.15ZM363.81,305.08L369.93,306.67L369.35,310.16L370.35,311.72L371.46,312.78L371.55,310.96L374.55,311.53L375.10,313.62L372.90,315.50L370.91,314.60L372.00,315.75L370.79,316.64L367.41,315.89L367.67,318.19L365.31,319.36L365.77,318.06L364.53,316.64L366.64,315.67L365.28,309.62L366.44,308.06L363.81,305.08Z"><title>松浦市</title></path>
<path data-code="42209" data-name="対馬市" d="M258.35,144.42L256.42,146.91L254.76,144.19L254.45,148.46L252.51,148.11L251.48,150.97L251.48,144.28L249.29,146.49L245.67,143.00L245.82,144.23L242.37,146.42L243.42,143.20L242.55,137.66L244.22,135.94L243.54,132.23L244.65,131.59L245.30,127.24L244.86,119.84L247.03,116.56L245.98,113.01L248.61,108.21L247.55,107.22L247.96,98.49L249.76,94.13L251.65,95.28L252.84,94.14L254.10,95.80L253.05,103.53L254.08,101.88L254.85,103.18L256.03,101.22L257.27,101.83L259.49,98.71L260.58,99.78L258.79,100.56L258.65,101.60L260.29,101.24L259.64,103.14L260.86,103.34L261.49,100.17L264.09,99.96L263.83,101.91L265.17,102.44L264.49,104.90L266.21,106.46L264.94,103.67L266.67,103.46L264.75,101.75L265.92,100.35L263.48,99.22L264.26,98.28L262.84,98.91L261.57,94.86L261.71,96.44L263.34,96.56L263.80,95.22L264.21,97.68L265.68,96.65L265.40,98.26L266.92,96.72L266.17,98.09L267.72,99.15L267.26,101.25L268.21,99.13L269.88,99.47L267.91,102.15L269.02,102.32L267.61,105.47L268.93,106.66L269.57,103.85L271.43,106.87L270.19,105.00L271.32,104.93L271.63,103.60L270.47,103.50L272.01,102.64L270.89,101.60L272.33,102.92L274.54,101.84L274.54,103.86L275.91,102.90L275.46,101.46L276.20,103.36L277.17,101.99L276.77,104.53L278.18,106.68L275.93,106.40L274.63,107.88L273.62,106.89L273.09,109.92L271.23,110.09L272.50,111.44L271.09,112.89L270.88,114.52L272.42,116.26L271.32,116.90L272.90,118.32L271.48,118.08L268.91,120.87L268.85,119.36L267.56,119.26L267.17,120.86L268.81,121.85L267.81,125.56L265.81,124.33L264.63,127.22L266.42,126.23L267.43,127.42L265.73,129.80L267.39,130.56L267.19,133.09L264.68,132.41L265.12,136.96L262.90,136.97L264.60,140.17L259.86,140.70L259.12,141.46L260.74,143.45L259.23,145.06L258.35,144.42ZM282.33,105.55L279.42,108.13L277.03,104.49L278.40,104.53L277.84,102.66L278.80,101.79L279.54,102.82L279.02,101.61L281.25,100.75L282.68,103.23L282.19,100.58L285.89,101.43L282.33,105.55ZM285.53,97.29L284.81,96.48L286.18,95.95L286.01,97.60L289.74,97.18L286.27,98.65L285.53,97.29ZM285.04,91.95L285.19,90.65L286.11,91.39L285.30,90.14L286.56,87.61L287.68,89.04L286.83,90.14L288.49,90.03L286.90,91.73L287.97,91.02L288.59,92.60L286.44,93.56L286.72,92.00L285.04,91.95ZM288.51,88.45L287.56,87.68L289.55,86.84L288.41,89.78L288.51,88.45ZM272.75,93.71L273.94,95.12L272.56,95.68L273.54,95.82L273.57,97.76L274.84,97.66L274.37,100.35L274.05,98.73L272.01,100.00L273.63,98.31L271.91,99.52L273.06,97.18L271.26,98.47L272.12,96.98L270.39,97.64L270.99,95.57L268.64,96.51L267.97,94.26L266.09,95.87L267.43,92.83L270.35,95.38L271.80,95.43L271.06,94.79L272.75,93.71ZM281.52,93.71L280.12,94.38L282.07,94.19L282.71,95.16L281.72,95.56L282.95,96.43L281.57,96.61L283.21,98.40L282.12,98.62L282.68,97.46L281.69,97.92L281.56,96.05L281.36,97.73L279.69,96.91L281.62,98.66L280.24,98.06L280.70,99.67L278.09,102.39L277.25,101.13L278.82,99.16L276.62,101.42L275.85,98.76L274.52,100.14L275.69,98.29L274.59,99.73L275.19,97.42L274.30,97.08L276.22,95.87L278.32,97.13L276.17,95.18L277.80,94.25L277.64,93.02L276.24,92.96L279.55,92.22L277.72,92.12L278.30,90.89L277.01,91.86L278.25,90.58L276.81,90.92L277.60,89.21L275.61,88.38L277.57,87.37L278.04,86.28L276.79,85.78L278.61,84.20L277.00,83.64L274.41,86.83L275.22,82.83L273.03,85.60L273.47,86.60L271.87,85.22L273.45,87.63L272.00,87.41L272.90,89.72L271.72,88.30L271.73,90.55L271.34,88.98L270.69,92.18L269.43,92.91L270.23,90.52L268.42,91.93L267.90,89.96L270.32,87.58L268.96,88.83L269.01,85.78L267.62,85.66L270.50,82.31L269.70,81.61L268.35,82.87L267.04,81.90L267.97,83.00L266.91,84.03L265.34,82.77L265.54,80.97L264.31,82.21L266.53,84.53L265.77,86.26L263.71,86.66L267.74,88.76L266.83,89.54L265.60,88.34L266.43,90.08L265.63,92.37L265.80,90.47L264.28,88.84L264.81,91.36L263.44,88.83L261.51,89.15L262.47,88.11L261.40,89.45L257.18,89.79L254.01,87.03L257.16,85.45L258.58,88.77L258.94,85.95L263.44,84.57L263.21,81.39L262.99,82.47L261.79,81.71L263.06,77.39L262.52,75.20L265.12,74.90L262.33,72.73L264.33,72.05L262.94,71.42L264.21,71.01L262.72,70.58L262.91,69.03L265.21,68.39L266.97,70.85L266.45,68.08L268.24,67.33L267.86,66.11L270.24,66.93L268.81,63.66L266.82,66.56L264.43,67.30L264.93,66.43L262.93,65.32L263.81,63.79L262.94,62.56L264.14,59.84L266.60,58.60L269.16,49.47L270.20,50.09L269.89,52.19L270.83,51.85L270.78,48.86L272.13,48.54L271.44,46.94L273.42,49.02L275.23,47.39L276.57,48.01L274.64,47.54L275.27,46.69L273.37,47.75L273.37,43.81L270.67,44.13L271.04,42.01L269.85,42.38L269.45,39.91L267.02,42.56L265.21,41.03L269.13,35.01L268.90,31.88L271.35,26.53L271.73,21.64L274.43,21.07L274.75,23.72L278.16,20.99L280.32,23.63L282.17,21.70L286.46,23.39L283.96,21.33L284.88,19.93L286.27,20.44L286.29,17.98L287.70,17.70L287.20,16.34L288.72,14.49L291.95,14.24L292.56,15.86L293.80,15.67L292.78,13.72L290.52,14.31L290.03,11.33L291.67,9.82L291.01,11.30L294.87,11.12L296.67,8.00L296.33,10.14L298.35,9.04L298.15,11.27L299.37,9.21L300.86,11.91L302.98,10.78L300.80,12.55L301.69,13.91L300.82,14.59L301.54,15.87L302.25,14.44L302.18,15.89L303.71,15.11L303.84,13.32L305.30,13.34L303.26,16.96L305.79,17.07L302.64,20.42L300.77,18.72L299.65,20.00L302.25,20.80L300.94,22.37L304.63,22.11L302.77,26.27L300.74,26.17L302.40,28.50L298.72,29.32L296.06,25.18L295.16,26.80L297.21,27.23L298.23,29.57L294.44,28.30L294.82,27.03L293.49,28.51L294.67,29.73L296.56,29.09L297.42,31.85L298.67,30.31L299.61,31.50L300.70,30.64L301.02,33.50L302.36,33.60L300.80,35.29L301.71,35.97L300.79,38.16L301.66,39.36L300.35,39.77L301.20,42.77L300.27,43.92L297.99,42.99L298.30,45.35L299.35,45.42L297.86,48.12L295.79,48.41L296.96,50.15L294.17,51.75L294.24,53.74L290.42,57.32L288.65,57.48L289.29,58.11L287.08,61.07L286.60,59.83L286.70,61.56L283.94,64.37L284.50,65.24L281.04,66.30L282.46,69.19L284.04,69.22L283.46,70.81L284.38,72.02L283.85,72.99L281.17,69.22L280.41,73.86L281.72,73.06L281.15,71.91L282.41,72.42L283.19,75.69L282.23,75.45L282.30,77.38L281.06,76.68L277.87,81.62L282.62,78.74L284.20,79.40L284.02,77.57L285.19,78.20L287.04,75.42L286.03,79.87L285.24,79.54L285.96,80.12L284.72,80.74L285.43,82.32L283.88,81.75L284.17,80.57L282.85,81.74L282.08,80.91L283.86,84.70L282.03,85.11L284.96,85.16L284.36,86.30L285.88,87.62L284.06,90.29L280.36,90.71L284.11,91.84L284.86,90.53L284.43,92.03L286.10,93.37L285.20,94.64L285.00,93.36L284.06,93.97L284.57,93.00L280.28,92.50L281.52,93.71Z"><title>対馬市</title></path>
<path data-code="42210" data-name="壱岐市" d="M330.28,232.88L332.59,232.68L331.38,233.96L330.28,232.88ZM331.58,231.63L331.08,229.00L334.14,229.45L331.58,231.63ZM334.49,234.40L334.70,232.06L335.81,233.38L334.49,234.40ZM335.09,227.64L334.35,227.29L335.95,225.08L334.05,224.27L334.69,223.23L333.61,223.73L334.43,222.26L341.99,225.41L339.67,222.25L340.43,221.26L336.84,221.63L336.11,218.66L337.13,218.41L335.19,216.16L338.36,216.02L335.01,214.58L337.29,213.09L340.01,216.88L340.36,214.85L342.50,214.91L339.41,211.70L340.17,211.09L338.93,210.37L339.17,207.49L340.23,205.18L340.51,206.73L341.48,206.01L340.56,205.35L342.58,203.02L343.35,204.38L345.51,203.70L343.43,203.00L345.44,201.58L349.51,204.67L357.84,205.50L358.67,206.53L356.20,212.48L357.14,213.31L353.99,214.63L356.19,214.65L361.25,219.02L363.74,218.83L363.09,220.90L358.63,219.34L355.78,221.75L357.28,223.67L359.41,222.10L361.94,224.64L363.55,224.56L363.39,226.78L361.53,226.50L361.64,229.47L351.27,230.10L351.26,232.70L348.17,235.38L349.07,236.60L347.99,236.53L347.80,238.23L346.40,236.69L343.05,236.35L342.35,234.98L343.52,234.89L343.81,232.94L342.68,234.28L340.23,232.82L341.25,231.34L340.53,230.48L342.24,229.52L339.27,226.92L339.68,225.57L338.44,225.91L337.75,227.53L338.56,227.99L336.42,228.39L336.47,230.44L335.09,227.64ZM341.47,201.04L341.44,199.93L342.92,200.00L342.86,201.98L341.47,201.04Z"><title>壱岐市</title></path>
<path data-code="42211" data-name="五島市" d="M86.61,629.46L86.72,631.91L85.47,632.00L84.54,628.22L86.91,627.54L86.61,629.46ZM92.10,620.55L93.76,619.54L93.94,616.99L98.38,617.81L96.33,620.89L95.25,619.70L92.10,620.55ZM189.63,499.42L191.91,498.05L192.70,499.40L191.65,500.77L189.63,499.42ZM138.01,476.39L140.13,473.42L141.47,474.80L140.21,475.79L141.41,477.10L138.97,476.95L140.53,478.25L138.93,479.09L140.32,479.22L139.67,480.52L140.59,481.00L139.34,481.20L139.16,483.09L136.90,481.02L136.69,478.41L138.01,476.39ZM178.44,492.48L177.13,491.47L179.63,490.51L179.88,492.64L178.44,492.48ZM132.08,465.85L131.88,462.48L133.92,459.60L135.40,459.50L135.34,461.15L133.75,462.07L133.94,465.82L132.08,465.85ZM186.43,459.83L185.27,459.48L185.45,458.21L187.64,457.18L186.43,459.83ZM191.22,469.91L189.98,467.41L190.67,466.03L192.33,467.60L190.96,468.19L191.22,469.91ZM207.97,457.25L207.78,459.13L203.24,457.16L206.41,454.85L208.11,455.75L208.86,452.73L207.60,450.76L208.98,450.06L208.94,447.74L211.86,452.26L210.52,456.14L211.81,456.17L209.20,457.20L208.45,455.92L207.97,457.25ZM148.07,444.51L148.10,443.50L149.59,444.25L148.07,444.51ZM181.58,438.12L181.24,439.02L182.69,438.75L183.08,437.39L184.45,438.80L183.83,442.19L185.73,444.30L184.06,445.36L186.68,446.31L187.26,444.79L186.08,443.84L187.09,441.67L185.00,440.74L184.29,435.48L192.34,442.68L191.81,445.12L193.25,446.47L189.86,449.35L187.90,453.92L184.42,454.11L179.94,449.36L180.17,450.83L178.98,450.52L178.33,446.20L179.68,445.38L179.65,438.78L178.25,439.01L179.30,436.97L181.58,438.12ZM186.43,431.09L189.26,430.50L189.02,427.98L190.27,427.77L191.46,429.73L192.52,428.60L194.35,429.67L197.59,437.07L198.32,434.43L195.56,429.67L196.55,429.22L199.43,434.49L200.69,428.94L198.97,426.52L200.46,427.01L203.64,433.96L201.54,435.12L201.59,437.95L202.87,438.66L200.29,438.03L199.18,439.49L201.21,442.09L199.55,445.74L197.95,439.17L197.82,442.10L193.96,441.00L194.14,439.98L196.74,440.42L195.07,435.84L193.69,436.66L189.55,431.05L189.73,433.60L187.63,433.58L186.43,431.09ZM201.83,453.54L202.26,451.03L204.28,453.60L203.43,454.63L201.83,453.54ZM192.82,425.41L194.81,423.92L194.28,426.01L192.82,425.41ZM168.03,495.52L166.66,497.68L163.10,496.66L162.84,493.95L159.68,489.99L150.64,491.11L146.27,489.76L144.35,491.26L145.35,492.84L144.47,493.89L140.65,493.15L138.37,489.70L133.35,488.79L135.43,485.39L135.89,480.91L137.29,482.28L136.68,483.46L138.03,483.84L136.21,484.91L136.08,486.85L137.35,484.61L138.72,485.40L138.51,487.68L142.81,489.25L141.94,490.81L144.38,488.81L143.40,487.06L146.65,484.80L146.43,483.28L141.78,487.34L140.54,485.17L142.04,481.76L144.25,482.02L142.08,479.29L146.57,481.34L145.80,479.44L143.23,478.53L144.99,478.01L147.38,479.92L145.83,476.31L148.87,475.17L145.36,475.60L143.17,473.38L143.87,470.73L142.66,469.26L143.90,467.95L145.96,468.58L142.49,463.83L143.96,459.02L142.87,455.56L141.41,454.69L146.02,449.27L149.35,450.62L149.80,452.83L152.35,453.48L152.92,458.41L152.04,457.62L152.74,458.57L151.63,458.38L151.26,460.00L154.15,459.90L154.64,457.27L159.97,455.53L159.98,456.52L157.68,456.61L159.09,457.01L157.58,457.96L160.96,457.04L159.63,458.61L160.30,459.90L162.40,456.46L160.38,456.75L163.10,455.24L163.43,452.79L166.01,456.53L165.76,459.10L166.99,460.86L167.88,460.39L166.95,457.11L170.67,454.72L171.80,456.05L170.65,453.73L168.41,454.02L167.26,456.02L165.47,454.57L167.39,450.77L170.62,451.04L170.03,450.01L171.57,449.21L170.05,448.22L174.07,446.22L172.86,451.51L177.07,454.90L173.43,455.49L172.73,456.83L174.63,457.94L178.51,454.78L179.44,455.84L177.76,456.27L177.18,459.59L178.31,456.76L178.92,458.44L181.25,456.54L183.00,458.74L180.20,459.13L179.57,465.63L181.92,468.42L181.11,469.51L182.24,469.16L181.39,471.29L182.86,469.87L183.10,471.91L188.34,476.16L188.45,478.77L190.59,479.27L189.90,482.30L186.28,482.95L185.15,481.45L176.11,483.40L173.42,478.93L166.31,481.42L164.71,487.16L166.81,487.12L166.16,487.93L168.81,488.89L170.84,491.97L170.74,493.67L168.78,493.66L168.03,495.52ZM194.42,492.61L196.12,491.99L196.96,493.26L194.42,492.61Z"><title>五島市</title></path>
<path data-code="42212" data-name="西海市" d="M339.46,423.48L338.41,423.43L335.50,415.68L333.57,415.28L332.78,418.46L333.16,416.96L331.84,416.23L332.77,415.89L332.32,413.85L333.20,414.79L332.89,411.88L330.25,410.80L332.24,411.09L330.58,409.60L331.78,408.18L330.64,404.88L331.82,402.76L333.75,400.98L335.45,402.90L335.31,400.08L337.34,399.76L334.76,395.79L334.49,391.26L336.98,390.78L337.40,385.85L340.52,385.52L339.29,383.93L336.97,383.80L340.45,382.06L337.30,382.16L340.55,380.11L339.51,378.45L340.89,376.94L343.93,379.67L344.78,378.96L345.91,381.83L346.32,379.67L348.31,381.07L348.83,381.93L347.33,383.52L350.37,382.55L350.48,384.65L351.82,385.15L349.33,387.68L350.59,388.14L349.86,389.14L351.59,389.23L351.83,387.46L352.66,388.66L352.34,386.57L354.19,386.01L354.27,387.48L356.60,388.61L354.64,390.99L353.65,390.41L351.88,396.08L350.98,396.04L351.68,397.01L350.73,398.56L352.53,399.25L350.86,399.42L352.09,402.47L353.31,402.75L352.96,401.47L354.69,399.71L356.15,401.35L355.36,399.93L356.92,399.95L356.69,398.58L354.64,398.98L356.97,394.82L361.26,398.63L363.96,397.93L366.02,399.94L365.83,401.39L366.77,401.00L366.05,403.57L367.98,403.52L368.66,405.72L368.36,406.70L367.11,405.85L367.38,407.05L366.00,406.83L365.43,408.52L362.24,407.07L358.76,409.86L352.50,412.02L351.82,415.86L352.81,418.49L351.88,419.80L346.40,419.89L345.85,421.34L339.46,423.48ZM253.82,399.85L252.94,399.64L257.81,394.50L258.37,396.83L260.48,395.12L258.92,398.18L259.34,399.83L257.52,401.40L255.26,402.43L256.34,399.95L253.82,399.85ZM327.80,418.98L325.32,417.59L324.01,414.59L326.02,411.27L325.14,412.12L325.90,413.67L327.97,412.98L330.26,414.91L330.37,416.77L327.80,418.98ZM334.89,399.85L335.40,402.83L334.44,402.64L335.01,397.59L334.89,399.85ZM277.66,399.85L276.49,400.31L275.69,398.10L276.04,396.25L278.06,394.98L279.92,398.87L277.66,399.85ZM315.90,398.73L314.35,398.82L316.18,398.10L316.68,399.61L315.90,398.73ZM317.18,397.98L318.81,398.06L317.87,397.15L320.82,395.13L318.97,394.36L318.59,395.77L318.14,392.85L321.86,394.02L322.42,393.13L323.64,394.69L318.24,399.70L316.81,399.67L317.18,397.98ZM330.28,392.21L327.96,392.01L327.27,394.74L326.17,393.31L325.29,394.48L322.86,393.01L323.91,389.15L325.29,387.79L325.59,388.96L326.12,386.74L327.42,387.46L326.35,386.27L327.11,384.84L332.86,386.02L330.78,386.55L332.10,388.17L329.99,390.00L331.17,390.10L330.28,392.21ZM331.88,392.74L331.78,393.79L330.66,392.49L332.71,389.47L331.88,392.74Z"><title>西海市</title></path>
<path data-code="42213" data-name="雲仙市" d="M436.64,476.39L426.93,478.94L427.74,473.63L426.49,471.26L429.50,473.81L432.59,472.08L432.87,470.11L435.07,470.52L434.25,469.47L440.96,464.04L442.48,459.83L441.68,455.98L439.97,456.43L437.50,454.17L438.58,453.35L437.84,451.50L439.28,450.31L438.39,448.64L436.55,447.02L429.05,446.38L428.26,443.84L430.20,443.54L432.22,439.89L432.56,436.24L430.64,435.37L435.63,429.69L439.65,434.72L449.93,428.09L449.25,428.74L452.29,429.35L459.21,427.09L461.98,427.95L461.29,429.10L463.56,430.15L460.76,433.23L458.49,445.78L456.82,449.56L455.12,449.51L454.53,452.07L454.67,453.58L457.13,454.47L461.76,454.08L461.42,456.07L457.38,456.54L457.36,459.73L453.94,462.11L454.29,463.54L450.46,463.13L448.74,467.68L436.64,476.39Z"><title>雲仙市</title></path>
<path data-code="42214" data-name="南島原市" d="M426.93,478.94L435.48,477.45L445.97,470.04L449.83,466.45L450.46,463.13L454.29,463.54L453.94,462.11L457.36,459.73L456.96,457.15L468.72,457.76L470.50,459.18L470.75,458.06L473.73,460.12L468.50,466.76L471.16,471.29L467.46,475.27L468.05,475.97L466.29,475.56L466.43,476.72L463.93,476.75L462.33,479.27L459.84,479.90L452.00,479.50L453.23,480.68L451.13,482.62L451.98,483.81L451.17,485.11L448.17,485.37L446.76,489.08L444.25,490.40L441.29,490.72L438.09,489.01L440.16,491.33L436.95,493.36L434.31,493.82L433.93,492.22L435.80,490.02L434.62,486.95L433.21,485.47L431.73,486.26L430.15,483.52L427.19,482.52L426.93,478.94Z"><title>南島原市</title></path>
<path data-code="42307" data-name="長与町" d="M373.33,444.01L372.94,442.42L376.94,439.16L376.71,437.11L374.10,434.50L373.92,431.81L374.87,434.95L377.08,435.57L377.29,431.80L379.42,430.89L379.57,426.95L379.83,428.64L381.01,428.71L380.23,430.05L381.15,432.76L387.66,440.98L385.41,443.26L378.24,444.23L376.93,446.64L377.15,443.96L375.52,446.14L373.33,444.01Z"><title>長与町</title></path>
<path data-code="42308" data-name="時津町" d="M366.73,438.25L362.15,431.31L363.29,429.48L363.81,431.14L366.53,430.88L368.32,433.47L372.46,435.71L371.64,436.29L373.05,438.47L374.33,435.49L373.06,433.44L373.92,431.81L374.10,434.50L376.71,437.11L376.94,439.16L371.49,443.56L371.43,441.87L367.32,442.33L367.80,439.89L366.73,438.25Z"><title>時津町</title></path>
<path data-code="42321" data-name="東彼杵町" d="M402.21,400.83L395.75,403.74L394.15,401.63L392.28,401.90L391.74,396.27L387.62,392.22L383.85,390.81L383.23,388.50L378.58,385.07L378.97,382.63L384.95,383.15L386.73,381.98L387.31,379.07L389.37,379.57L390.60,383.10L401.12,388.85L400.98,390.95L403.81,395.33L407.46,395.19L407.58,396.99L410.38,398.95L405.12,401.97L404.48,400.53L402.21,400.83Z"><title>東彼杵町</title></path>
<path data-code="42322" data-name="川棚町" d="M365.27,383.77L371.31,381.85L372.90,378.90L372.06,376.88L374.20,375.31L376.69,375.18L376.41,376.17L378.57,376.80L384.87,374.69L388.07,375.94L386.73,381.98L384.93,383.16L378.97,382.63L378.58,385.07L374.32,385.52L372.40,388.87L371.34,386.95L368.93,391.53L367.65,390.24L368.92,387.58L367.70,387.46L371.06,386.24L368.45,384.32L366.97,384.81L367.60,385.85L364.49,384.28L365.27,383.77Z"><title>川棚町</title></path>
<path data-code="42323" data-name="波佐見町" d="M377.87,376.43L376.22,375.15L372.63,376.26L373.33,367.23L375.12,364.12L377.79,361.92L380.72,363.99L391.34,362.09L392.41,369.11L393.86,370.49L392.90,374.58L377.87,376.43Z"><title>波佐見町</title></path>
<path data-code="42383" data-name="小値賀町" d="M207.21,356.79L206.29,356.65L207.33,355.46L209.29,356.03L207.21,356.79ZM214.73,361.58L213.78,360.74L215.24,359.57L214.73,361.58ZM234.38,362.59L233.34,358.75L234.31,356.49L232.46,352.59L233.95,350.78L237.95,355.73L237.74,356.95L235.60,357.30L235.86,363.40L234.38,362.59ZM213.60,353.67L212.66,353.23L213.16,350.91L215.30,351.02L215.62,353.10L213.60,353.67ZM216.80,355.05L215.84,353.61L217.37,353.18L217.82,351.36L218.67,352.79L219.32,349.48L221.36,349.34L220.99,351.50L223.37,352.38L227.44,350.44L229.49,351.28L225.70,352.10L226.16,354.87L228.51,355.64L227.46,357.13L222.64,355.10L222.30,357.36L219.93,357.88L218.75,355.95L219.36,354.85L216.80,355.05ZM222.81,348.25L224.80,348.62L223.38,350.00L222.81,348.25ZM235.41,349.03L235.98,347.54L237.42,348.64L235.41,349.03Z"><title>小値賀町</title></path>
<path data-code="42391" data-name="佐々町" d="M329.85,342.72L331.67,337.35L333.36,338.12L335.16,335.77L341.56,338.93L342.49,341.30L340.98,344.32L343.03,346.44L339.01,350.51L334.04,352.24L333.00,346.86L329.85,342.72Z"><title>佐々町</title></path>
<path data-code="42411" data-name="新上五島町" d="M202.82,418.98L201.61,419.13L202.14,421.00L203.71,419.59L204.73,420.33L203.22,421.79L198.24,420.48L197.01,418.33L200.20,417.07L202.05,419.12L203.44,415.34L204.48,416.92L202.82,418.98ZM210.40,422.33L209.18,423.56L206.68,421.93L208.14,420.95L206.12,418.51L208.62,417.35L207.27,415.72L208.78,415.38L210.68,418.32L213.40,417.33L212.93,418.82L214.96,419.89L214.51,422.29L215.76,421.90L215.32,423.49L216.23,422.54L216.73,423.52L214.69,425.32L216.62,425.12L215.46,426.23L215.95,428.03L214.34,428.93L216.00,429.69L215.87,431.44L214.85,431.15L216.21,433.31L215.55,435.59L212.88,433.63L214.48,432.52L212.44,432.76L214.72,431.65L213.09,430.17L211.72,431.97L209.57,429.80L206.68,432.34L205.89,432.10L206.84,429.42L203.87,429.20L205.60,427.79L203.00,422.00L207.20,424.00L207.79,427.38L207.69,425.21L209.24,424.25L210.19,427.80L211.25,427.05L209.81,424.10L210.40,422.33ZM207.02,411.33L207.21,412.75L206.11,411.72L206.33,409.06L208.46,407.71L209.78,408.58L209.17,411.04L207.02,411.33ZM210.40,409.53L209.96,407.50L212.82,405.23L213.73,408.10L214.17,405.22L216.16,408.90L216.66,406.24L219.55,405.30L219.98,409.17L220.45,404.69L223.03,404.22L218.80,402.96L218.48,401.45L219.97,400.86L218.31,399.07L218.52,393.49L220.62,391.51L220.03,390.40L223.48,389.30L223.51,393.80L224.54,394.83L223.77,395.32L227.30,394.20L225.25,391.43L226.65,389.88L224.64,386.87L226.21,386.32L226.80,382.37L229.89,381.47L231.05,379.67L231.45,376.73L229.21,375.87L230.44,373.81L228.49,371.97L230.99,363.35L232.60,362.27L232.29,367.30L230.16,371.34L232.92,373.53L233.46,377.15L231.24,384.23L232.30,385.41L230.42,385.91L229.27,387.77L230.55,388.62L227.91,391.01L229.13,392.39L227.56,396.08L228.92,399.71L227.11,403.48L231.25,404.22L232.60,402.52L230.99,402.39L232.34,401.91L233.76,403.44L235.84,401.78L235.97,399.38L240.62,399.87L242.16,397.83L242.89,400.15L243.96,398.19L245.56,399.35L243.85,400.54L245.52,406.05L239.17,409.60L237.34,414.35L235.53,412.48L233.00,413.97L229.89,408.69L229.83,411.15L231.78,413.35L230.54,415.24L231.39,416.74L226.60,416.78L228.79,418.43L227.52,420.56L228.72,422.05L226.72,421.79L225.97,423.76L228.14,424.92L227.41,426.96L226.19,426.91L228.62,427.04L229.11,428.75L228.19,429.12L229.62,432.01L227.86,433.17L223.08,431.42L222.52,434.56L221.32,434.89L222.84,434.96L222.23,436.81L223.57,437.57L222.47,441.96L218.70,440.63L220.35,439.50L219.09,439.04L220.06,437.56L218.94,435.57L219.76,433.53L218.32,432.08L219.46,431.89L219.50,430.13L218.04,427.00L219.97,428.69L220.44,427.62L218.64,426.12L221.46,427.80L220.99,425.56L221.91,425.36L220.94,423.88L220.43,425.46L219.75,423.92L218.69,424.47L217.69,420.86L220.62,423.04L220.36,421.15L221.73,421.30L221.96,423.90L223.41,421.81L220.45,420.40L220.13,417.89L217.46,416.91L216.86,418.57L215.43,418.33L216.60,415.31L218.26,415.92L217.22,412.29L214.78,415.45L213.05,414.35L213.23,411.53L211.70,413.58L208.91,413.09L211.35,412.37L209.93,411.51L211.83,410.78L209.99,410.58L210.40,409.53ZM216.36,428.64L217.09,426.77L217.42,430.10L216.36,428.64ZM215.20,403.93L215.12,401.33L215.36,405.50L215.20,403.93ZM246.82,417.23L248.10,418.00L245.97,418.84L246.82,417.23ZM212.00,397.98L216.57,396.50L211.91,399.53L212.00,397.98ZM243.97,397.22L246.68,396.57L246.62,395.26L248.00,395.71L248.27,397.51L244.85,398.35L243.97,397.22Z"><title>新上五島町</title></path>
  </g>
</svg>
