<?xml version="1.0" encoding="UTF-8"?>
<svg xmlns="http://www.w3.org/2000/svg" viewBox="0 0 560 640" class="pref-muni-svg" role="img" aria-label="自治体境界図">
  <g class="pref-muni-svg__paths" fill="#eaf2fb" stroke="#5b7fa8" stroke-width="0.6" stroke-linejoin="round">
<path data-code="44201" data-name="大分市" d="M298.61,395.33L286.79,401.54L281.22,397.92L280.09,387.51L266.15,396.64L264.09,388.11L270.48,381.35L268.85,369.60L274.92,363.89L281.10,365.76L281.82,361.50L294.66,354.73L295.43,350.12L300.27,351.61L307.33,339.00L313.89,336.84L312.95,331.67L315.44,329.58L313.53,324.26L315.31,315.28L318.05,315.70L316.71,311.78L307.49,308.83L306.86,300.48L336.20,307.70L334.72,308.90L337.74,310.66L339.79,309.94L336.88,307.71L341.29,305.55L343.11,308.60L345.88,306.57L342.03,305.02L352.77,303.17L367.98,294.29L372.07,304.12L373.65,303.15L369.92,293.93L375.60,293.17L379.04,300.02L376.70,292.89L382.09,293.21L392.28,298.67L391.12,303.35L393.60,299.91L400.59,307.92L404.69,306.89L407.75,309.30L405.80,311.60L411.28,313.46L409.14,312.80L409.18,307.20L414.19,307.24L417.10,311.05L419.61,306.80L416.44,313.02L419.83,309.95L431.39,312.55L453.17,305.47L460.96,308.66L458.09,303.52L473.36,299.41L468.57,310.84L461.55,311.23L459.54,317.21L461.99,321.88L455.04,331.90L458.77,333.30L455.65,337.22L449.63,340.18L445.38,330.36L397.93,349.29L393.42,357.38L396.13,360.93L392.46,367.72L394.19,371.33L389.97,382.09L391.56,384.85L387.33,390.03L387.35,397.99L369.61,390.75L361.45,395.13L345.02,384.73L332.70,385.71L328.79,380.50L324.83,380.50L322.91,375.36L301.92,385.75L297.66,390.00L300.01,392.57L298.61,395.33ZM490.03,295.81L488.28,293.97L496.46,293.31L491.79,297.72L490.03,295.81Z"><title>大分市</title></path>
<path data-code="44202" data-name="別府市" d="M299.04,319.94L290.62,320.28L280.89,312.10L278.20,316.08L270.83,314.30L257.60,320.45L246.84,315.91L246.65,309.75L253.22,301.12L251.84,292.76L264.80,287.37L264.56,281.19L270.58,273.13L267.83,269.11L261.10,272.69L255.69,270.88L256.40,256.79L262.98,257.10L265.84,260.43L286.69,254.52L291.73,255.75L290.49,257.36L297.80,256.51L301.12,288.40L308.27,309.19L300.37,308.07L301.88,319.63L300.51,321.90L299.04,319.94Z"><title>別府市</title></path>
<path data-code="44203" data-name="中津市" d="M72.92,224.26L68.03,215.61L59.86,213.53L58.29,207.09L51.23,201.15L58.20,186.68L71.37,176.41L83.70,172.97L89.63,174.58L98.56,169.40L102.16,174.08L115.80,176.52L129.58,175.32L138.40,178.44L159.51,175.68L154.94,165.13L164.55,154.57L165.10,147.10L157.56,136.36L164.31,117.40L164.84,119.96L164.68,117.42L171.48,118.78L176.70,122.94L175.50,124.94L183.75,126.87L186.16,127.00L189.11,119.72L186.53,124.34L189.68,121.67L192.47,124.05L193.17,119.26L193.60,128.14L203.62,137.50L201.23,151.20L195.52,151.52L192.14,160.87L201.13,179.74L195.24,189.34L187.11,191.34L193.44,224.17L181.21,224.85L182.20,232.03L178.73,237.98L182.82,242.94L168.98,257.43L165.12,253.45L160.32,254.74L155.62,246.44L150.23,249.43L143.28,240.95L136.49,247.24L125.77,236.86L112.45,239.46L107.74,251.18L93.97,252.38L92.00,244.70L87.33,240.97L86.97,234.77L72.92,224.26Z"><title>中津市</title></path>
<path data-code="44204" data-name="日田市" d="M82.31,422.95L70.24,425.29L63.71,412.48L54.98,409.08L46.72,409.94L43.32,404.41L38.65,403.77L33.90,392.39L24.03,388.33L16.42,389.95L13.85,385.79L23.29,376.85L27.22,361.84L31.07,358.53L28.45,350.56L33.69,346.49L34.46,341.23L24.17,337.83L12.42,328.77L16.05,322.46L22.32,319.00L8.00,315.25L9.06,304.56L26.06,301.14L19.16,294.22L25.32,286.66L21.41,268.69L11.93,260.09L23.08,250.73L23.74,242.86L33.91,241.51L37.67,207.08L50.70,201.12L58.29,207.09L59.78,213.46L67.19,214.90L79.43,231.16L86.94,234.74L87.33,240.97L92.00,244.70L93.97,252.38L110.43,252.02L107.20,264.22L113.89,263.54L112.68,267.90L115.19,270.30L111.71,269.22L107.13,275.37L108.05,279.07L100.89,286.97L101.53,297.00L97.58,298.56L100.97,303.87L113.07,300.89L114.52,309.05L122.27,314.85L118.52,340.04L100.21,337.14L89.80,345.89L80.13,342.61L76.90,350.22L76.43,363.60L73.72,364.78L80.75,370.77L80.43,375.76L93.44,391.84L87.74,400.92L90.75,404.66L89.36,412.99L82.31,422.95Z"><title>日田市</title></path>
<path data-code="44205" data-name="佐伯市" d="M460.21,566.73L465.90,568.75L449.12,573.99L450.17,560.15L447.91,552.96L454.77,537.76L452.69,528.89L449.53,531.71L443.71,530.72L439.26,525.43L426.17,529.56L423.30,523.51L414.55,520.78L403.55,523.14L401.03,524.83L398.11,541.57L392.46,547.06L390.40,555.16L383.69,553.93L372.13,558.15L339.14,553.65L328.70,564.62L314.98,562.23L304.04,556.22L302.94,549.10L306.71,540.48L293.11,529.72L288.42,521.66L296.52,514.79L309.13,511.90L325.57,497.66L338.16,499.50L338.13,493.18L344.72,491.48L347.48,484.36L346.21,477.79L354.86,479.61L355.30,475.99L350.61,473.38L355.11,468.00L359.21,468.58L363.19,460.40L367.82,458.03L371.14,462.54L377.45,462.66L387.33,454.81L407.64,452.14L410.72,454.44L421.11,448.60L417.76,435.83L425.57,423.80L424.49,419.78L438.27,422.61L443.69,417.16L467.53,416.06L474.05,409.05L488.10,404.22L503.41,409.93L516.35,401.45L518.14,406.18L523.07,406.69L513.94,408.18L506.75,413.49L484.03,410.99L483.87,414.72L481.00,415.15L481.87,423.95L472.48,432.33L475.58,437.94L472.74,441.67L471.40,434.08L470.61,439.95L467.62,441.42L471.10,442.89L470.06,447.26L474.56,447.01L473.36,449.18L477.00,448.67L479.12,453.04L479.82,450.06L483.76,450.96L482.32,455.75L487.36,457.24L488.29,462.17L493.15,458.56L497.78,465.69L500.02,464.01L498.01,458.16L501.58,461.88L504.45,456.30L503.07,465.19L506.09,465.08L504.79,467.09L507.47,468.92L511.99,465.47L510.78,461.32L516.62,458.79L513.88,469.53L516.72,472.51L529.90,468.73L529.64,461.31L534.27,464.91L537.21,461.42L540.47,465.66L549.33,465.78L552.00,472.56L538.67,468.62L535.78,469.84L534.60,475.71L531.92,474.65L531.86,470.80L526.92,470.75L522.39,473.71L522.78,477.10L518.96,476.25L519.43,486.23L513.48,483.21L510.81,476.77L509.60,479.27L505.37,477.35L508.36,480.88L509.31,494.74L512.37,494.24L513.33,489.41L516.68,493.53L521.98,494.10L515.68,496.57L515.67,500.33L509.46,504.58L508.59,508.47L504.18,506.01L504.59,511.52L498.65,516.69L493.49,512.51L496.50,519.58L490.34,521.90L496.99,522.04L499.16,531.19L501.36,529.50L499.33,521.11L507.44,527.98L509.71,524.10L504.33,517.88L509.21,516.98L519.75,522.95L518.68,527.14L503.94,537.31L505.19,543.28L502.79,545.18L499.33,543.83L499.39,538.00L492.42,537.66L493.06,542.51L487.86,548.92L481.55,544.01L482.94,540.33L479.56,542.77L480.75,548.51L475.22,544.06L473.19,548.68L470.46,547.53L471.87,539.75L467.69,538.41L465.49,545.50L470.74,551.46L468.74,554.68L470.51,559.02L463.49,545.55L461.15,545.79L462.17,551.29L458.45,554.47L463.25,560.38L460.21,566.73ZM482.82,584.87L481.28,582.07L483.52,580.33L481.08,578.95L484.68,578.74L486.30,582.14L482.82,584.87ZM475.44,555.67L475.72,550.79L482.63,554.50L475.44,555.67ZM484.40,437.57L483.57,439.53L489.50,438.11L491.43,440.71L485.36,442.68L482.59,447.72L476.47,445.23L478.32,439.83L482.71,437.65L482.74,434.16L479.51,435.52L480.52,430.93L490.84,429.27L484.40,437.57ZM543.89,456.53L541.29,456.16L547.01,454.18L547.42,449.08L549.96,450.88L550.18,458.26L546.88,462.00L543.89,456.53Z"><title>佐伯市</title></path>
<path data-code="44206" data-name="臼杵市" d="M363.49,442.29L354.73,430.36L357.39,420.01L362.48,421.56L367.75,418.41L368.58,412.59L363.23,408.07L368.71,396.87L376.28,393.21L382.78,398.23L388.34,397.34L387.33,390.03L391.56,384.85L389.97,382.09L394.19,371.33L392.46,367.72L396.13,360.93L393.42,357.38L401.34,346.18L404.80,348.51L409.59,343.43L427.66,339.29L445.59,330.37L450.03,340.31L442.98,344.02L437.88,356.03L439.93,357.77L441.29,354.15L441.15,360.02L428.79,372.89L434.51,371.76L432.76,374.98L434.59,374.87L435.22,371.72L435.29,374.18L440.04,375.03L442.29,372.17L447.47,378.52L459.01,369.68L462.49,370.05L461.03,373.68L463.51,374.62L470.54,371.79L471.45,367.48L472.60,371.77L476.88,372.35L454.06,383.29L442.09,384.79L440.39,388.70L432.19,390.61L421.24,399.92L423.59,407.98L431.88,409.34L428.15,410.18L424.32,417.96L425.57,423.80L417.76,435.83L421.11,448.60L410.72,454.44L407.75,452.15L391.61,453.45L372.96,463.01L367.94,458.09L367.38,448.48L363.49,442.29Z"><title>臼杵市</title></path>
<path data-code="44207" data-name="津久見市" d="M461.22,416.26L443.69,417.16L438.27,422.61L424.49,419.78L428.15,410.18L431.88,409.27L423.59,407.98L421.19,400.00L432.19,390.61L440.39,388.70L442.09,384.79L454.06,383.29L477.17,371.79L478.25,374.08L470.89,377.51L472.45,380.66L463.50,381.08L458.73,390.81L451.05,391.31L458.25,394.46L454.26,397.58L465.86,399.93L463.91,397.28L465.54,394.00L472.86,398.68L476.78,394.89L476.32,402.37L480.69,400.84L482.95,403.55L484.76,402.03L482.28,399.15L486.14,399.07L487.11,394.55L484.50,390.16L489.69,387.53L487.66,391.84L490.59,401.69L495.11,403.36L494.67,401.02L500.67,399.65L502.70,405.80L510.46,402.26L509.48,391.51L516.46,387.83L513.25,395.52L516.49,401.31L505.58,409.17L488.10,404.22L474.05,409.05L467.53,416.06L461.22,416.26ZM518.00,386.16L517.03,381.20L519.98,379.98L522.44,382.43L518.00,386.16Z"><title>津久見市</title></path>
<path data-code="44208" data-name="竹田市" d="M225.48,523.84L218.95,514.65L210.24,511.39L201.25,504.22L201.23,498.70L197.24,500.02L194.31,495.73L189.31,468.74L192.26,465.23L189.73,461.90L192.41,460.27L189.38,458.23L193.76,456.43L197.05,449.97L189.88,446.60L189.95,439.70L179.72,428.70L176.74,409.95L166.55,397.46L171.23,390.81L181.06,393.45L185.40,391.35L192.69,380.09L192.50,374.57L195.90,373.20L204.44,376.58L209.01,375.14L217.43,383.21L227.09,380.92L233.87,383.19L237.80,380.16L235.71,375.86L243.64,373.31L245.85,365.50L252.02,359.08L276.69,360.09L281.00,365.81L274.92,363.89L268.63,369.86L270.48,381.35L257.62,395.55L255.67,400.28L258.11,403.62L253.82,405.59L258.90,408.06L256.94,410.94L258.60,412.33L251.00,418.16L252.54,421.48L246.79,422.28L248.47,429.31L263.72,435.98L264.08,451.35L266.56,454.03L258.79,465.58L259.88,470.50L254.51,473.49L256.22,480.19L252.89,485.21L256.30,498.85L250.78,506.25L254.66,509.21L244.73,520.96L233.06,526.44L225.48,523.84Z"><title>竹田市</title></path>
<path data-code="44209" data-name="豊後高田市" d="M298.78,185.17L280.80,174.67L275.64,163.14L271.56,158.56L266.82,159.82L267.07,155.02L261.28,151.41L262.85,146.26L270.86,142.92L266.59,138.45L265.91,130.24L269.16,140.99L266.32,131.18L282.85,117.68L286.07,120.11L283.76,117.59L287.02,118.31L292.76,102.91L296.82,105.03L297.05,99.44L301.31,98.39L297.81,94.64L299.11,90.77L311.84,89.84L309.22,84.02L318.39,87.65L323.80,104.65L323.46,113.68L333.02,120.41L330.79,129.98L333.63,136.15L340.36,137.37L340.38,143.93L322.58,160.14L318.85,171.91L312.88,178.21L314.50,191.08L302.52,189.78L298.78,185.17Z"><title>豊後高田市</title></path>
<path data-code="44210" data-name="杵築市" d="M270.23,253.69L266.85,245.00L258.52,241.15L264.56,230.17L263.50,223.98L266.63,222.80L270.35,212.25L266.34,193.51L258.36,184.56L266.43,175.96L272.60,179.86L272.75,174.24L265.02,170.46L271.73,167.09L276.89,165.15L280.77,174.65L287.83,176.96L301.99,189.49L314.50,191.08L312.88,178.21L318.85,171.91L325.54,156.17L336.52,148.54L336.07,161.29L343.12,176.98L346.18,194.54L354.68,196.86L357.81,202.15L367.11,201.64L365.47,212.56L378.19,211.46L379.95,207.45L388.26,203.74L393.69,206.13L386.24,227.83L368.80,226.17L374.22,221.95L367.03,218.88L362.59,220.42L364.83,223.45L357.75,218.84L354.67,220.28L357.34,222.75L354.09,225.23L360.71,226.79L357.18,226.88L359.73,227.64L358.55,229.37L361.08,227.75L357.81,230.92L363.86,238.23L361.15,243.86L349.77,245.67L348.39,236.93L337.59,233.00L327.71,237.04L329.11,232.80L324.38,231.97L323.75,224.49L327.04,223.08L319.87,216.73L308.84,228.62L310.00,232.50L304.60,232.57L304.77,235.96L293.63,236.02L291.13,239.03L278.78,234.71L276.46,241.15L279.02,244.08L270.23,253.69Z"><title>杵築市</title></path>
<path data-code="44211" data-name="宇佐市" d="M216.23,266.34L213.97,263.40L203.00,264.51L191.38,250.77L183.09,253.56L176.33,250.83L183.19,241.82L178.73,237.98L182.52,229.99L180.38,226.00L193.54,223.76L187.11,191.34L195.24,189.34L201.13,179.74L194.35,167.08L192.81,157.55L195.52,151.52L201.23,151.20L203.62,137.50L225.53,136.81L229.26,137.86L227.87,139.79L230.36,142.55L240.63,138.42L243.98,140.18L244.05,137.29L261.45,141.23L259.95,138.27L268.28,144.27L262.78,146.33L261.28,151.41L267.07,155.02L266.82,159.82L271.56,158.56L276.89,165.15L265.02,170.43L272.75,174.24L272.56,179.90L266.43,175.96L258.36,184.56L266.34,193.51L270.35,212.25L266.63,222.80L263.50,223.98L264.56,230.17L258.52,241.15L266.85,245.00L270.18,252.98L262.41,257.41L256.40,256.79L255.51,269.47L244.95,269.43L244.02,273.04L236.00,277.63L218.20,270.79L216.23,266.34Z"><title>宇佐市</title></path>
<path data-code="44212" data-name="豊後大野市" d="M233.06,526.44L245.26,520.58L254.27,510.21L250.78,506.19L256.30,498.85L252.89,485.21L256.22,480.19L254.51,473.49L259.88,470.50L258.79,465.58L266.56,454.09L264.08,451.35L263.72,435.98L248.47,429.31L246.66,423.87L252.54,421.48L251.00,418.16L258.60,412.33L256.94,410.94L258.90,408.06L253.82,405.59L258.11,403.62L255.62,399.49L261.40,391.96L265.06,390.82L266.21,396.63L280.09,387.51L281.22,397.92L287.56,401.44L291.69,396.78L292.86,399.45L297.31,398.00L300.01,392.78L297.66,390.00L301.92,385.75L322.91,375.36L324.83,380.50L328.79,380.50L332.70,385.71L345.02,384.73L361.45,395.13L369.56,390.74L376.48,392.53L368.64,396.92L363.27,407.90L368.58,412.59L367.75,418.41L362.48,421.56L357.39,420.01L354.74,430.23L357.61,432.33L356.57,434.79L361.29,436.77L369.17,456.50L363.03,460.49L359.21,468.58L351.84,471.21L350.75,475.44L355.26,475.94L354.73,479.75L346.21,477.79L347.48,484.36L344.72,491.48L338.13,493.18L338.16,499.50L325.57,497.66L309.06,511.95L296.52,514.79L283.82,524.87L271.92,526.11L265.11,534.74L256.04,533.93L238.31,538.80L233.75,535.38L233.06,526.44Z"><title>豊後大野市</title></path>
<path data-code="44213" data-name="由布市" d="M245.14,368.37L243.64,373.31L235.71,375.86L237.80,380.16L233.87,383.19L227.09,380.92L217.43,383.21L209.01,375.14L194.14,373.91L194.14,367.92L201.99,360.67L215.20,355.53L223.59,348.27L220.56,345.72L216.35,348.77L210.71,344.72L218.17,344.08L214.26,338.60L208.68,336.81L199.54,318.03L210.52,308.75L212.37,300.75L227.16,286.40L219.85,279.51L226.85,273.54L235.52,277.74L246.82,268.84L260.90,272.71L267.93,269.14L270.58,273.13L264.56,281.19L264.80,287.37L251.70,293.04L253.22,301.12L246.65,309.75L246.95,316.07L257.60,320.45L270.83,314.30L278.20,316.08L280.89,312.10L288.81,319.46L295.74,318.76L300.51,321.90L300.27,308.21L309.10,308.72L317.10,312.06L318.05,315.70L315.31,315.28L313.24,325.76L314.75,334.66L307.33,339.00L300.27,351.61L295.43,350.12L294.66,354.73L281.82,361.50L281.06,365.79L276.63,360.06L258.48,358.03L252.02,359.08L245.14,368.37Z"><title>由布市</title></path>
<path data-code="44214" data-name="国東市" d="M353.18,196.93L346.12,194.48L343.12,176.98L336.07,161.29L340.36,137.37L333.63,136.15L330.37,125.68L333.06,120.47L323.46,113.68L323.80,104.65L318.39,87.65L323.26,83.18L326.01,83.15L327.83,88.99L331.79,88.82L330.94,82.78L336.27,79.77L345.62,82.70L345.50,86.97L349.38,88.87L350.84,85.83L355.42,89.20L355.53,85.16L357.99,85.16L364.87,90.89L362.34,92.91L364.69,96.29L370.80,92.25L376.69,104.91L382.61,106.95L387.26,123.11L393.50,125.19L391.72,125.23L400.19,136.48L400.44,144.62L402.61,142.40L401.18,145.96L403.44,146.79L405.06,157.56L402.27,159.90L398.15,178.79L399.60,185.42L402.41,182.39L402.68,196.65L400.44,197.37L400.15,194.44L396.89,197.18L399.17,197.26L394.49,206.35L388.26,203.74L379.95,207.45L378.19,211.46L365.47,212.56L367.19,201.72L357.81,202.15L353.18,196.93Z"><title>国東市</title></path>
<path data-code="44322" data-name="姫島村" d="M356.64,64.40L360.83,58.88L366.11,60.35L371.68,55.13L386.26,60.30L381.34,59.21L370.78,67.24L365.15,64.40L356.65,67.26L356.64,64.40Z"><title>姫島村</title></path>
<path data-code="44341" data-name="日出町" d="M263.00,257.34L270.52,253.92L279.02,244.08L276.46,241.15L278.78,234.71L291.13,239.03L293.63,236.02L304.77,235.96L304.60,232.57L310.00,232.50L308.84,228.62L319.87,216.73L327.04,223.08L323.75,224.49L324.38,231.97L329.11,232.80L327.71,237.04L337.25,232.95L349.21,239.03L349.01,245.94L341.14,245.56L340.95,257.05L337.51,258.55L334.07,254.84L336.70,259.14L320.65,256.69L315.98,248.77L310.58,247.63L298.75,251.36L297.61,258.64L297.76,256.48L290.49,257.36L291.73,255.75L286.78,254.51L270.21,260.29L264.49,260.16L263.00,257.34Z"><title>日出町</title></path>
<path data-code="44461" data-name="九重町" d="M167.47,396.66L163.48,399.43L159.01,395.42L157.92,383.41L153.78,377.39L153.57,366.28L145.87,359.72L146.97,357.48L134.73,350.26L131.27,341.76L139.85,319.81L145.22,315.28L145.72,309.71L155.61,305.74L157.02,296.33L160.06,297.57L164.72,292.20L170.49,291.79L171.74,286.08L175.83,283.79L190.03,280.21L195.25,291.03L194.24,295.83L200.57,295.82L200.20,301.57L207.18,302.02L210.60,308.49L199.54,318.03L208.68,336.81L214.26,338.60L218.17,344.08L210.71,344.72L216.35,348.77L220.56,345.72L223.59,348.27L215.20,355.53L206.42,357.27L194.20,367.84L192.69,380.09L185.40,391.35L181.06,393.45L171.23,390.81L167.47,396.66Z"><title>九重町</title></path>
<path data-code="44462" data-name="玖珠町" d="M114.56,309.09L113.07,300.89L100.97,303.87L97.58,298.50L101.53,297.00L100.89,286.97L108.05,279.07L107.13,275.37L111.71,269.22L115.19,270.30L112.68,267.90L113.89,263.54L107.20,264.22L110.76,252.91L107.67,250.19L112.57,239.40L125.77,236.86L136.99,247.34L141.76,240.93L146.22,241.91L150.23,249.43L155.62,246.44L160.32,254.74L165.12,253.45L168.13,257.52L174.20,250.88L183.09,253.56L191.38,250.77L203.00,264.51L214.09,263.42L218.20,270.79L226.85,273.54L219.85,279.51L227.16,286.40L212.37,300.75L210.60,308.49L207.18,302.02L200.20,301.57L200.57,295.82L194.24,295.83L195.25,291.03L190.03,280.21L175.83,283.79L171.74,286.08L170.49,291.79L164.72,292.20L160.06,297.57L157.17,296.19L155.58,305.79L148.04,307.37L145.22,315.28L139.85,319.81L131.13,342.87L118.53,340.17L122.27,314.85L114.56,309.09Z"><title>玖珠町</title></path>
  </g>
</svg>
