<?xml version="1.0" encoding="UTF-8"?>
<svg xmlns="http://www.w3.org/2000/svg" viewBox="0 0 560 640" class="pref-muni-svg" role="img" aria-label="自治体境界図">
  <g class="pref-muni-svg__paths" fill="#eaf2fb" stroke="#5b7fa8" stroke-width="0.6" stroke-linejoin="round">
<path data-code="33100" data-name="岡山市" d="M260.15,412.71L258.09,408.64L263.07,400.25L256.95,393.56L252.55,393.64L260.25,389.46L259.75,379.87L242.98,364.69L234.96,364.31L232.35,352.51L236.22,341.95L239.97,345.37L245.09,340.71L248.30,342.65L248.25,335.04L259.36,323.21L264.69,330.08L270.04,331.03L269.44,314.80L281.75,308.97L284.13,285.04L288.00,279.65L298.39,275.04L284.63,267.06L285.06,251.83L290.17,251.60L294.03,258.07L293.11,255.12L300.53,248.84L308.24,252.09L313.96,249.18L312.81,261.35L308.89,263.87L311.64,266.31L305.94,269.02L306.20,271.88L309.61,275.96L312.94,272.85L319.69,276.10L318.55,279.94L327.07,285.88L322.00,292.85L336.49,293.30L341.46,303.16L337.97,306.00L345.87,309.88L347.67,302.96L353.41,305.84L349.76,330.18L344.21,332.61L338.04,341.87L346.70,346.06L345.17,352.78L349.87,353.82L342.65,364.13L348.36,367.25L346.46,368.60L353.37,377.40L353.22,383.29L336.36,385.25L339.39,386.28L327.44,398.55L323.93,407.63L327.22,413.98L323.16,422.68L327.06,430.04L321.46,430.58L320.33,434.49L316.14,433.46L317.09,428.95L313.83,425.45L304.51,433.35L286.02,430.80L279.82,440.06L275.46,434.71L279.68,431.24L276.18,421.34L278.49,420.94L277.80,415.11L272.92,410.66L260.15,412.71Z"><title>岡山市</title></path>
<path data-code="33100" data-name="岡山市" d="M350.57,412.22L352.91,415.97L349.53,436.09L354.27,443.03L345.80,450.78L324.37,426.33L324.08,418.17L327.23,413.77L324.12,405.75L339.39,386.28L336.36,385.25L348.27,384.45L351.07,402.73L359.53,405.88L350.57,412.22Z"><title>岡山市</title></path>
<path data-code="33100" data-name="岡山市" d="M352.30,442.42L349.49,435.71L352.95,413.80L348.93,411.38L359.53,405.88L351.07,402.73L349.58,385.27L377.77,364.46L379.58,354.13L384.06,353.53L387.01,346.58L397.72,345.35L399.20,357.02L407.80,360.25L408.35,357.65L414.68,363.68L406.84,368.48L404.14,379.56L396.04,389.01L392.89,404.14L381.00,416.54L385.00,416.39L383.99,420.85L386.93,422.81L396.16,422.23L391.92,424.34L390.96,428.81L393.92,431.85L404.18,427.92L406.07,431.76L409.08,430.74L412.43,437.13L407.53,443.04L409.69,457.57L397.12,462.31L394.23,458.73L384.91,459.82L382.03,458.66L381.60,453.18L386.30,445.92L380.21,448.11L379.07,452.44L376.34,446.05L371.74,445.60L371.20,448.62L371.74,446.21L370.40,448.46L352.30,442.42ZM402.27,473.70L406.45,469.62L407.00,473.65L402.27,473.70Z"><title>岡山市</title></path>
<path data-code="33100" data-name="岡山市" d="M296.75,495.50L286.65,497.46L284.83,490.40L275.18,489.49L268.77,481.43L276.97,477.03L273.28,470.26L281.24,463.18L281.80,456.67L277.34,440.56L286.02,430.80L302.49,433.72L314.87,425.46L316.14,433.46L327.06,430.04L342.41,449.84L337.59,452.86L333.57,449.27L330.59,451.38L334.61,453.00L331.55,454.57L336.84,460.36L343.89,454.07L369.27,451.40L374.94,456.55L374.72,462.55L378.73,464.40L349.65,463.92L347.16,471.82L342.29,475.52L327.11,464.55L318.04,482.82L309.71,487.46L305.47,484.01L301.41,486.90L302.31,494.48L296.75,495.50Z"><title>岡山市</title></path>
<path data-code="33202" data-name="倉敷市" d="M167.33,509.80L176.19,502.38L176.11,497.73L180.58,496.84L183.30,488.65L189.72,482.64L186.16,480.98L188.64,475.69L176.74,463.07L189.33,453.06L183.79,446.16L181.42,426.19L196.35,422.87L201.69,415.96L204.84,417.46L210.19,413.53L214.33,417.81L221.42,416.58L226.40,423.71L228.25,438.03L235.29,437.95L243.23,424.93L260.47,427.42L261.65,414.58L264.17,413.03L272.92,410.66L277.90,415.29L278.49,420.94L276.18,421.34L279.68,431.24L261.88,445.78L264.45,452.81L272.67,453.04L272.75,456.34L279.27,451.33L281.76,456.51L281.24,463.18L273.28,470.26L276.97,477.03L268.77,481.43L275.18,489.49L284.83,490.40L286.65,497.46L292.46,497.65L294.58,512.87L289.91,512.95L288.86,519.39L298.09,524.50L299.20,533.92L293.01,527.87L280.29,526.90L278.41,523.63L276.08,526.21L275.14,522.96L264.64,533.42L266.61,543.26L271.73,549.65L256.77,543.93L253.98,545.96L247.38,534.81L248.77,530.75L245.33,530.60L245.16,524.94L241.11,527.15L241.80,517.10L236.44,515.00L232.30,494.28L230.12,509.71L222.47,506.64L222.46,510.97L231.13,514.35L232.59,526.34L215.35,521.75L215.97,495.51L203.40,494.79L208.99,497.50L208.80,506.08L208.89,501.71L199.24,504.63L202.47,498.25L194.12,496.82L188.69,501.85L189.02,506.52L178.33,508.07L175.03,513.58L167.33,509.80ZM205.68,508.89L205.59,514.38L198.70,514.27L204.50,516.22L198.59,516.12L198.76,507.71L206.01,506.41L205.68,508.89ZM243.03,554.19L242.26,548.58L250.07,554.13L243.03,554.19Z"><title>倉敷市</title></path>
<path data-code="33203" data-name="津山市" d="M298.93,224.04L295.35,214.62L299.22,210.97L296.63,194.50L281.49,196.93L277.82,191.37L271.56,191.24L271.08,179.61L277.92,171.13L278.45,161.63L289.40,157.89L293.37,159.83L299.27,172.07L306.72,172.56L317.24,182.05L326.49,182.36L329.59,177.71L328.91,170.17L339.67,155.52L345.75,126.70L354.40,115.59L354.82,92.21L362.20,84.83L356.34,70.44L365.49,62.70L365.23,49.95L370.02,42.49L381.05,45.98L385.89,43.11L389.70,46.46L397.42,40.58L402.82,41.57L411.36,54.42L422.83,57.16L421.83,62.65L427.97,69.26L424.38,73.46L425.56,77.96L421.65,80.39L424.82,84.61L431.62,82.83L434.44,86.65L429.09,105.03L435.10,110.26L436.49,117.53L423.42,124.57L424.54,136.96L418.74,159.48L405.87,170.38L405.05,189.42L393.80,189.65L396.73,191.71L396.44,207.65L392.74,204.23L386.37,207.00L377.27,203.93L370.49,209.23L375.49,217.54L371.36,217.69L350.89,203.43L343.39,212.03L333.18,213.65L331.43,208.37L335.77,192.91L331.66,188.96L332.22,193.61L322.60,195.64L326.39,197.75L326.56,202.07L313.00,222.41L306.57,228.18L302.04,222.63L298.93,224.04Z"><title>津山市</title></path>
<path data-code="33204" data-name="玉野市" d="M296.75,523.73L288.86,519.39L289.91,512.95L294.57,512.91L292.51,498.50L302.31,494.48L301.41,486.90L305.47,484.01L309.71,487.46L318.04,482.82L327.11,464.55L342.29,475.52L347.16,471.82L349.65,463.92L370.11,463.38L372.54,466.10L371.31,479.45L368.03,478.24L364.59,483.45L361.18,479.41L356.16,484.05L354.08,489.52L356.93,491.77L354.16,493.81L359.73,499.35L357.90,502.23L346.46,489.83L336.98,495.71L335.77,500.36L338.39,499.84L335.55,505.42L339.52,511.85L331.23,512.87L332.57,515.96L325.00,523.80L329.41,529.54L329.21,534.88L325.22,537.37L321.48,534.25L322.79,536.52L317.83,538.01L299.70,534.18L296.75,523.73ZM361.81,510.85L359.79,509.48L361.81,507.06L367.60,504.79L361.81,510.85Z"><title>玉野市</title></path>
<path data-code="33205" data-name="笠岡市" d="M134.08,625.81L130.56,621.20L136.58,619.26L134.08,625.81ZM118.21,596.48L122.84,599.68L122.14,604.68L116.87,601.46L118.21,596.48ZM121.67,567.30L120.60,562.75L131.12,557.70L130.40,567.54L124.60,572.87L121.67,567.30ZM126.14,576.52L139.64,565.64L145.89,570.74L142.11,572.13L139.63,580.01L146.65,580.25L146.89,584.27L139.83,586.25L126.14,576.52ZM149.95,594.52L153.13,590.33L155.42,592.96L157.22,588.55L161.63,589.18L153.26,597.21L149.95,594.52ZM118.21,538.06L113.06,543.13L105.73,542.84L105.50,537.49L113.55,532.88L110.77,528.64L97.41,535.25L96.89,522.00L92.43,518.71L97.47,508.93L96.01,504.98L91.99,505.47L96.49,490.61L94.01,484.50L99.44,485.51L118.55,473.93L123.54,456.15L139.58,448.97L152.67,459.95L146.31,476.71L137.58,479.50L141.82,492.85L139.17,502.23L132.36,510.73L147.29,512.68L153.16,528.34L137.37,531.25L132.15,521.82L127.07,521.20L122.68,508.95L111.92,500.65L131.53,527.05L129.72,537.17L118.21,538.06ZM118.21,553.08L118.65,548.87L126.47,546.67L124.63,551.19L118.21,553.08Z"><title>笠岡市</title></path>
<path data-code="33207" data-name="井原市" d="M81.34,461.56L81.15,458.67L69.17,453.85L67.14,444.10L62.77,439.41L72.20,409.17L63.68,405.91L64.12,401.36L58.39,395.83L56.20,379.68L50.69,373.58L55.34,367.60L72.32,372.25L83.36,395.04L96.08,402.01L97.53,397.82L100.55,402.24L118.37,395.87L120.03,389.82L132.48,382.59L127.86,373.58L135.48,368.15L146.77,369.62L144.10,374.48L148.16,382.20L155.65,380.76L158.84,386.66L169.89,389.32L162.40,393.89L163.12,400.36L160.00,403.13L151.91,404.55L147.16,424.11L128.82,421.60L130.34,427.15L135.53,427.17L134.33,433.51L127.17,433.64L133.78,441.75L133.63,446.44L129.46,455.39L123.48,456.26L120.47,472.42L99.28,485.52L94.13,484.08L92.60,476.21L83.32,468.78L81.34,461.56Z"><title>井原市</title></path>
<path data-code="33208" data-name="総社市" d="M174.90,424.37L176.99,417.13L171.81,409.70L178.75,392.36L163.95,385.59L158.84,386.66L157.36,380.19L170.70,369.66L177.43,358.67L188.00,354.58L192.07,345.91L195.01,345.55L201.24,354.44L207.18,367.79L210.10,359.58L226.38,349.59L232.69,353.63L234.96,364.31L242.98,364.69L259.75,379.87L260.25,389.46L252.55,393.64L256.95,393.56L263.07,400.25L258.09,408.64L261.81,414.87L260.41,427.45L243.23,424.93L235.48,437.79L228.25,438.03L226.40,423.71L221.42,416.58L214.33,417.81L210.19,413.53L204.84,417.46L201.69,415.96L196.35,422.87L180.90,426.65L174.90,424.37Z"><title>総社市</title></path>
<path data-code="33209" data-name="高梁市" d="M58.69,368.61L52.43,360.63L55.06,349.77L59.57,345.47L56.16,341.17L59.92,336.57L60.16,330.03L50.91,323.39L48.21,317.11L43.09,317.32L38.97,312.98L36.72,304.11L40.51,294.52L48.27,289.80L65.91,294.74L75.71,288.59L78.28,290.17L82.29,284.71L87.35,288.39L90.47,286.01L94.86,291.89L102.92,289.48L104.91,285.01L109.61,293.21L114.52,289.30L125.00,296.65L129.58,290.36L148.90,284.91L148.69,278.78L151.42,278.08L147.53,268.52L150.76,260.04L160.78,257.37L158.27,249.71L161.44,247.20L167.76,246.43L169.23,253.97L174.07,258.33L175.01,276.76L189.66,267.98L186.88,255.06L189.50,252.22L193.36,254.70L199.95,252.35L201.40,247.04L210.96,248.57L216.08,242.13L221.65,244.47L223.12,257.57L219.13,265.00L221.91,271.63L216.00,280.87L204.72,286.14L205.02,289.54L195.81,292.00L196.56,297.36L185.09,313.87L194.30,334.97L195.32,345.35L191.22,346.67L183.05,358.75L177.43,358.67L176.24,363.62L157.16,381.72L148.16,382.20L144.10,374.48L146.77,369.62L135.48,368.15L127.86,373.58L132.48,382.59L120.03,389.82L118.37,395.87L100.55,402.24L97.53,397.82L96.08,402.01L82.62,394.12L72.86,372.72L58.69,368.61Z"><title>高梁市</title></path>
<path data-code="33210" data-name="新見市" d="M57.93,291.79L48.27,289.80L40.51,294.52L41.31,297.72L37.13,302.36L21.51,282.74L20.16,275.01L24.59,269.02L23.87,260.11L27.48,255.39L21.68,244.40L25.31,239.20L24.46,235.04L32.59,228.37L33.34,215.31L25.12,209.97L18.61,197.90L8.21,189.89L8.00,185.78L18.61,177.73L17.14,164.30L19.71,159.95L35.13,164.67L41.18,157.07L49.11,160.43L57.71,153.35L72.19,152.57L76.22,148.61L75.94,138.40L67.36,121.62L68.91,113.98L78.01,111.74L81.15,116.73L93.24,119.52L118.64,107.11L125.81,108.20L137.87,121.41L136.42,130.95L150.53,132.18L161.35,138.77L157.67,152.70L154.00,154.47L153.73,163.58L160.72,172.25L158.75,187.10L161.58,191.79L157.70,199.42L159.98,205.02L166.01,207.22L157.71,219.65L160.60,222.96L164.54,218.06L168.84,221.21L169.83,224.62L166.49,226.90L174.94,234.72L176.26,241.06L167.93,245.31L164.24,242.82L166.05,246.52L158.29,249.58L161.10,255.71L159.15,259.78L150.76,260.04L147.53,268.52L151.42,278.08L148.69,278.78L148.90,284.91L129.58,290.36L125.00,296.65L114.52,289.30L109.61,293.21L105.00,285.02L102.92,289.48L94.86,291.89L90.47,286.01L87.35,288.39L82.54,284.70L78.28,290.17L75.71,288.59L65.91,294.74L57.93,291.79Z"><title>新見市</title></path>
<path data-code="33211" data-name="備前市" d="M407.85,385.78L409.17,377.02L404.98,377.41L406.84,368.48L413.37,365.21L414.81,360.22L425.53,353.85L430.21,358.42L436.73,358.51L452.22,354.05L447.23,347.15L451.41,340.48L446.96,334.61L459.24,311.67L455.51,309.41L454.14,301.82L442.06,300.37L443.76,290.72L449.12,288.22L451.51,279.65L449.52,268.46L464.38,271.74L464.04,263.27L475.88,248.59L477.25,255.04L486.30,258.00L487.11,262.80L496.74,272.55L493.94,278.22L484.49,283.21L484.82,286.39L481.42,285.98L483.43,291.16L479.58,294.10L476.61,304.78L482.59,311.42L481.88,319.41L493.13,318.18L493.36,322.38L507.25,333.75L506.65,345.88L515.69,352.79L509.36,357.09L505.31,370.61L510.42,374.18L509.46,380.15L506.39,374.26L498.21,371.69L490.83,375.52L487.42,372.84L487.81,376.51L483.70,375.34L484.15,381.76L472.33,384.02L463.55,381.44L466.93,379.45L465.32,374.74L453.38,375.20L444.84,367.85L441.71,373.71L453.88,377.41L448.90,383.11L458.27,383.52L450.27,388.37L460.07,388.38L465.20,384.30L466.59,388.85L452.84,391.92L434.76,402.17L431.73,392.41L434.95,384.38L428.48,377.47L416.55,382.66L414.56,391.73L407.85,385.78ZM475.30,387.21L482.28,384.75L484.50,387.31L475.30,387.21ZM475.30,395.49L475.46,389.55L478.10,388.84L485.53,393.84L481.36,393.75L478.97,398.71L475.30,395.49ZM487.21,385.12L487.95,380.35L492.66,382.30L492.12,378.86L497.88,375.29L504.41,377.14L510.00,384.70L515.83,379.89L521.58,387.56L518.99,391.03L516.68,386.39L511.60,385.76L510.97,390.40L507.07,391.22L503.22,389.54L501.89,384.02L500.48,388.15L494.21,389.29L490.24,388.66L492.89,385.19L487.21,385.12ZM491.17,393.74L489.34,390.94L494.27,390.72L495.38,394.86L491.17,393.74Z"><title>備前市</title></path>
<path data-code="33212" data-name="瀬戸内市" d="M415.79,452.95L413.50,457.41L409.69,457.57L407.53,443.04L412.43,437.13L409.08,430.74L406.07,431.76L404.18,427.92L393.92,431.85L390.96,428.81L391.92,424.34L396.16,422.23L386.93,422.81L383.99,420.85L385.00,416.39L381.00,416.54L392.89,404.14L396.62,388.14L407.91,376.54L407.41,385.68L414.56,391.73L416.55,382.66L428.34,377.41L434.95,384.38L431.73,392.41L434.76,402.17L452.84,391.92L465.49,389.76L465.48,384.32L468.63,384.35L472.55,394.76L469.41,392.82L468.40,397.79L458.01,401.60L462.53,404.01L458.04,408.55L453.65,407.76L456.23,412.39L447.78,413.03L450.80,416.54L447.27,420.74L440.93,417.82L437.46,420.22L439.09,432.72L443.90,429.53L445.48,432.41L441.34,433.51L438.87,441.24L426.01,440.91L426.97,443.94L420.24,446.35L422.04,451.35L415.79,452.95ZM434.48,446.05L452.38,441.69L447.17,447.70L435.80,449.57L434.48,446.05ZM463.02,411.29L460.49,406.75L463.88,409.56L465.39,405.02L473.04,405.85L472.52,408.98L463.02,411.29ZM475.30,404.73L471.80,404.23L478.11,399.85L486.55,403.49L481.01,407.52L475.30,404.73Z"><title>瀬戸内市</title></path>
<path data-code="33213" data-name="赤磐市" d="M343.20,366.19L343.17,361.70L347.23,360.95L349.87,353.82L345.17,352.78L346.70,346.06L338.04,341.80L344.21,332.61L349.76,330.18L353.41,305.84L347.67,302.96L345.87,309.88L337.97,306.00L341.46,303.16L335.01,292.70L358.44,279.91L357.15,270.52L361.46,266.90L362.92,256.27L368.26,247.38L379.71,255.61L398.85,252.47L398.10,259.71L404.11,266.02L396.67,278.41L402.38,278.41L400.58,285.33L405.62,289.02L398.56,292.25L394.45,289.99L394.75,296.07L384.77,303.48L376.97,301.32L374.70,316.06L396.87,321.28L400.94,330.62L412.80,338.61L422.21,340.35L427.54,344.31L428.74,350.86L414.14,362.24L408.20,357.60L407.80,360.25L399.20,357.02L397.72,345.35L389.87,344.78L384.06,353.53L379.58,354.13L377.77,364.46L353.22,381.49L353.37,377.40L346.46,368.60L348.36,367.25L343.20,366.19Z"><title>赤磐市</title></path>
<path data-code="33214" data-name="真庭市" d="M174.63,275.04L174.07,258.33L163.66,243.68L167.93,245.31L176.26,241.06L175.00,234.88L166.49,226.90L169.83,224.62L168.84,221.21L164.54,218.06L160.60,222.96L157.68,219.38L166.01,207.22L159.98,205.02L157.70,199.42L161.58,191.79L158.75,187.10L160.72,172.25L153.73,163.58L154.00,154.47L157.61,152.82L161.63,139.58L150.58,132.41L159.35,127.49L157.27,118.37L160.52,112.06L168.72,111.41L170.29,106.93L164.16,93.74L165.70,88.43L162.22,82.30L164.14,79.01L149.93,70.63L154.77,36.51L162.20,27.11L160.28,23.44L164.30,18.76L176.39,23.58L189.45,23.87L203.12,33.89L209.26,33.19L212.06,29.13L227.19,35.17L234.86,33.50L253.22,47.91L261.05,49.14L269.77,68.87L270.84,78.42L265.94,85.96L268.93,92.00L260.91,94.51L250.76,89.96L252.21,95.36L247.91,99.83L252.15,108.45L251.17,116.68L244.82,126.72L251.98,130.12L258.39,140.43L277.10,144.49L276.39,147.48L281.96,151.38L282.76,160.00L278.45,161.63L277.92,171.13L271.08,179.61L273.47,193.00L268.37,193.59L269.97,198.91L253.42,208.97L256.08,213.24L255.07,225.26L262.86,231.46L265.23,247.02L259.98,242.17L254.54,245.12L248.01,241.57L236.36,250.78L223.80,248.49L216.08,242.13L210.96,248.57L201.40,247.04L199.95,252.35L193.36,254.70L189.50,252.22L186.88,255.06L189.66,267.98L181.78,271.26L180.44,275.52L174.63,275.04Z"><title>真庭市</title></path>
<path data-code="33215" data-name="美作市" d="M415.79,282.43L417.03,269.14L414.48,267.06L408.60,270.61L405.04,263.73L414.16,256.43L398.31,239.84L407.24,234.85L404.05,233.34L406.52,229.46L403.48,227.02L409.06,223.25L403.84,220.94L400.98,226.86L397.75,226.05L397.92,213.32L403.99,208.84L422.28,208.19L421.50,190.74L431.97,190.04L438.44,193.49L442.37,188.43L440.40,182.78L444.80,181.38L437.25,174.38L440.13,165.46L447.07,165.68L451.00,158.56L455.32,158.48L455.43,163.16L466.15,155.07L462.62,149.11L466.65,145.29L462.50,137.30L465.08,127.54L461.60,123.34L463.22,116.41L459.36,108.97L475.19,102.48L480.29,96.51L483.80,97.93L490.22,104.79L496.13,126.97L515.30,135.12L537.96,106.28L552.00,110.44L550.86,133.11L538.80,130.41L531.20,133.64L525.87,146.72L528.03,149.15L524.32,153.07L523.08,166.08L508.12,170.57L507.14,193.63L490.34,197.28L487.46,205.26L483.68,206.39L482.57,215.80L492.77,221.13L485.13,228.57L484.66,231.31L488.14,232.36L488.15,240.22L478.49,249.66L472.40,249.66L473.45,252.81L468.46,255.17L468.27,260.70L464.04,263.27L464.42,271.70L461.64,273.42L449.72,268.26L450.56,281.90L445.95,281.07L445.52,277.59L438.21,277.34L435.06,287.96L415.79,282.43Z"><title>美作市</title></path>
<path data-code="33216" data-name="浅口市" d="M149.95,509.71L148.22,505.57L159.20,490.75L153.01,491.46L147.82,486.53L147.02,490.75L141.49,492.63L137.56,479.58L146.31,476.71L152.20,458.18L158.26,456.57L158.56,461.61L170.64,466.21L176.47,461.86L183.30,468.61L184.21,473.87L188.67,475.73L186.16,480.98L189.72,482.64L183.30,488.65L180.71,496.67L176.11,497.73L176.19,502.38L167.03,507.24L167.60,511.70L161.15,516.79L166.56,524.53L153.08,528.66L150.70,517.08L146.93,515.82L149.95,509.71Z"><title>浅口市</title></path>
<path data-code="33346" data-name="和気町" d="M374.95,315.72L373.88,309.00L377.68,306.71L376.97,301.32L384.77,303.48L394.75,296.07L394.45,289.99L398.56,292.25L405.62,289.02L400.58,285.33L402.38,278.41L396.67,278.41L402.63,269.88L403.21,263.31L408.60,270.61L414.48,267.06L416.97,269.04L415.45,282.28L417.68,283.65L429.36,283.95L435.06,287.96L438.21,277.34L445.59,277.63L449.77,284.43L447.02,290.61L444.00,290.11L442.03,300.31L454.14,301.82L455.51,309.41L459.24,311.67L446.96,334.61L451.41,340.48L447.23,347.15L452.26,353.97L436.73,358.51L427.36,357.11L427.54,344.31L404.41,333.27L396.87,321.28L374.95,315.72Z"><title>和気町</title></path>
<path data-code="33423" data-name="早島町" d="M268.98,451.71L264.45,452.81L261.90,445.68L277.05,435.72L279.98,450.64L272.75,456.34L268.98,451.71Z"><title>早島町</title></path>
<path data-code="33445" data-name="里庄町" d="M133.31,511.06L141.94,491.57L147.02,490.75L147.05,486.84L153.01,491.46L158.86,490.11L148.22,505.57L149.77,511.75L140.78,514.00L133.31,511.06Z"><title>里庄町</title></path>
<path data-code="33461" data-name="矢掛町" d="M157.88,461.02L158.35,456.61L148.67,458.57L139.58,448.97L132.18,451.07L133.78,441.75L127.17,433.64L134.33,433.51L135.57,427.48L130.34,427.15L128.80,421.69L147.03,424.21L151.99,404.44L157.80,404.71L163.12,400.36L162.40,393.89L174.74,389.35L178.97,394.98L176.97,401.02L172.82,402.69L174.55,406.73L171.81,409.70L176.99,417.13L174.72,425.12L179.69,424.47L181.99,427.79L183.79,446.16L189.33,453.06L183.00,460.57L170.95,466.21L157.88,461.02Z"><title>矢掛町</title></path>
<path data-code="33586" data-name="新庄村" d="M135.97,129.36L137.87,121.41L130.92,114.65L128.87,98.03L120.91,86.95L122.10,83.59L126.31,79.24L134.79,81.58L139.35,77.74L144.35,78.63L149.93,70.63L162.70,77.19L162.24,83.61L165.70,88.43L164.16,93.74L169.18,100.67L169.13,110.76L160.52,112.06L157.27,118.37L159.35,127.49L154.66,131.59L147.49,133.11L135.97,129.36Z"><title>新庄村</title></path>
<path data-code="33606" data-name="鏡野町" d="M299.62,172.18L293.37,159.83L282.76,160.00L281.96,151.38L276.39,147.48L277.10,144.49L262.27,142.55L251.98,130.12L244.99,127.20L246.99,119.63L251.17,116.68L252.15,108.45L247.91,99.83L252.21,95.36L250.76,89.96L260.91,94.51L268.78,92.29L265.94,85.96L270.84,78.42L269.68,72.35L282.27,74.17L286.45,64.68L292.44,60.96L290.63,49.22L302.02,48.21L312.55,40.70L320.67,40.87L324.89,24.50L330.24,25.96L341.81,17.13L346.60,19.72L355.16,14.19L363.32,15.65L361.42,21.44L363.66,25.11L356.00,36.33L370.62,41.73L365.23,49.95L365.49,62.70L356.34,70.44L362.20,84.83L354.90,91.94L354.40,115.59L344.83,129.10L339.64,155.58L328.91,170.17L329.59,177.71L325.71,182.77L317.24,182.05L306.72,172.56L299.62,172.18Z"><title>鏡野町</title></path>
<path data-code="33622" data-name="勝央町" d="M395.95,205.25L396.73,191.71L393.80,189.65L404.98,189.54L405.87,170.38L417.08,160.01L426.08,159.03L428.09,163.60L440.21,165.35L437.25,174.38L444.83,181.59L440.40,182.78L442.44,188.14L440.11,192.65L421.50,190.74L422.21,208.23L398.04,212.10L395.95,205.25Z"><title>勝央町</title></path>
<path data-code="33623" data-name="奈義町" d="M419.76,160.78L424.54,136.96L423.42,124.57L436.04,119.22L441.55,120.36L446.79,116.75L448.59,109.09L459.36,108.97L463.22,116.41L461.60,123.34L465.08,127.54L462.50,137.30L466.65,145.29L462.62,149.11L466.15,155.07L455.43,163.16L455.32,158.48L451.00,158.56L443.48,167.04L428.09,163.60L426.44,159.11L419.76,160.78Z"><title>奈義町</title></path>
<path data-code="33643" data-name="西粟倉村" d="M515.32,135.09L496.13,126.97L489.92,105.23L509.27,101.79L516.56,91.51L533.35,83.06L533.85,76.31L545.86,73.88L548.11,78.84L545.27,86.94L537.70,92.17L536.85,110.63L520.88,125.23L515.32,135.09Z"><title>西粟倉村</title></path>
<path data-code="33663" data-name="久米南町" d="M335.45,292.38L322.00,292.85L327.07,285.88L318.55,279.94L319.69,276.10L312.94,272.85L309.61,275.96L305.85,271.26L311.64,266.31L308.89,263.87L312.81,261.35L312.15,252.83L319.27,247.19L326.27,233.21L339.04,242.20L358.30,239.45L357.75,252.31L363.90,254.64L361.46,266.90L357.15,270.52L358.44,279.91L335.45,292.38Z"><title>久米南町</title></path>
<path data-code="33666" data-name="美咲町" d="M242.90,246.44L251.44,241.24L254.54,245.12L259.98,242.17L265.23,247.02L262.86,231.46L255.07,225.26L256.08,213.24L253.42,208.97L266.38,203.27L270.25,198.19L268.37,193.59L277.82,191.37L281.49,196.93L296.56,194.42L299.22,210.97L295.39,214.92L298.66,224.52L302.04,222.63L306.57,228.18L317.84,216.48L317.66,212.42L323.11,210.55L326.73,199.70L322.60,195.64L332.22,193.61L331.66,188.96L335.77,192.91L331.43,208.37L333.18,213.65L343.39,212.03L350.89,203.43L358.49,209.84L361.50,208.38L364.37,215.27L374.45,217.90L370.49,209.23L377.18,203.99L386.37,207.00L392.83,204.29L399.50,216.66L397.75,226.05L400.98,226.86L403.84,220.94L409.06,223.25L403.48,227.02L406.52,229.46L404.05,233.34L407.24,234.85L398.32,239.89L414.31,256.98L405.04,263.73L398.17,259.84L398.35,252.19L379.71,255.61L368.26,247.38L364.71,254.06L359.50,255.40L356.52,245.71L358.33,239.47L339.04,242.20L326.90,233.15L317.12,249.35L313.48,251.45L311.27,248.41L308.24,252.09L300.53,248.84L293.11,255.12L294.03,258.07L290.17,251.60L285.06,251.83L284.97,256.94L282.24,250.92L271.58,246.14L260.33,254.04L257.51,260.16L251.48,259.98L250.47,256.41L245.09,255.31L242.90,246.44Z"><title>美咲町</title></path>
<path data-code="33681" data-name="吉備中央町" d="M205.50,365.02L195.40,347.17L194.30,334.97L184.79,316.18L196.56,297.36L195.81,292.00L205.02,289.54L204.72,286.14L216.00,280.87L221.91,271.63L219.13,265.21L223.12,257.57L220.18,246.33L236.36,250.78L242.90,246.44L245.09,255.31L256.54,260.76L271.13,246.22L282.43,251.09L286.09,259.14L284.80,267.33L298.39,275.04L288.00,279.65L284.13,285.04L281.75,308.97L269.44,314.80L270.04,331.03L264.69,330.08L259.36,323.21L248.25,335.04L248.22,342.74L245.09,340.71L239.97,345.37L236.22,341.95L232.48,353.37L223.05,349.04L219.46,356.22L210.10,359.58L207.41,367.64L205.50,365.02Z"><title>吉備中央町</title></path>
  </g>
</svg>
