<?xml version="1.0" encoding="UTF-8"?>
<svg xmlns="http://www.w3.org/2000/svg" viewBox="0 0 560 640" class="pref-muni-svg" role="img" aria-label="自治体境界図">
  <g class="pref-muni-svg__paths" fill="#eaf2fb" stroke="#5b7fa8" stroke-width="0.6" stroke-linejoin="round">
<path data-code="47201" data-name="那覇市" d="M313.49,304.79L313.09,304.74L312.62,303.22L312.88,302.58L313.65,301.84L314.90,302.73L315.07,302.46L314.15,301.81L315.70,301.25L315.32,301.05L315.40,300.22L314.60,300.79L314.93,300.33L314.69,299.80L317.02,300.71L319.22,300.50L319.06,301.83L318.20,302.39L317.89,303.44L317.23,303.81L315.64,303.23L315.37,304.04L313.49,304.79Z"><title>那覇市</title></path>
<path data-code="47205" data-name="宜野湾市" d="M320.47,299.51L319.47,298.94L318.80,299.15L318.31,297.88L318.78,297.46L318.35,297.47L319.39,297.26L319.20,297.01L320.16,296.22L322.03,296.27L322.36,296.93L321.22,299.22L320.47,299.51Z"><title>宜野湾市</title></path>
<path data-code="47207" data-name="石垣市" d="M87.17,437.61L87.51,437.77L86.23,438.03L86.17,437.68L87.17,437.61ZM43.45,335.54L44.25,336.07L42.05,336.60L42.36,335.74L43.45,335.54ZM56.27,323.27L56.33,322.66L56.90,323.04L56.27,323.27ZM85.16,435.95L84.27,435.16L86.04,433.74L86.35,431.85L85.75,431.68L84.78,430.30L83.57,430.46L82.53,431.64L81.53,430.54L82.29,429.35L82.03,428.96L83.51,428.94L84.08,429.61L84.81,429.44L84.62,428.30L85.20,427.78L84.39,427.23L84.69,426.86L86.34,427.98L86.20,429.17L85.73,429.36L86.13,429.75L86.94,428.86L88.35,429.30L89.57,428.64L91.50,428.81L91.73,428.11L91.35,427.69L92.03,426.45L91.86,425.66L92.56,425.67L93.69,424.17L95.15,425.13L95.57,423.01L96.23,422.58L95.37,421.19L96.36,420.53L97.04,419.30L97.28,417.64L99.08,418.00L98.73,420.47L96.77,422.28L96.97,423.64L95.44,425.01L95.30,426.47L94.09,427.04L93.41,427.99L93.30,428.95L93.78,429.66L93.25,430.60L93.82,431.96L93.25,435.71L92.76,436.47L91.96,436.74L91.13,436.07L90.13,436.09L90.13,436.84L89.44,437.61L88.01,437.93L87.26,437.29L86.48,437.34L86.74,436.89L86.43,436.33L85.16,435.95Z"><title>石垣市</title></path>
<path data-code="47208" data-name="浦添市" d="M316.19,300.18L315.77,300.05L315.67,299.10L314.98,299.14L316.14,299.14L317.28,297.79L318.31,297.88L318.80,299.15L319.47,298.94L320.16,299.42L319.24,300.49L318.41,300.71L317.00,300.71L316.19,300.18Z"><title>浦添市</title></path>
<path data-code="47209" data-name="名護市" d="M331.82,279.41L331.52,279.10L331.83,278.36L332.38,278.92L333.46,278.13L333.85,278.51L334.86,276.78L335.10,275.33L331.42,273.63L330.54,274.22L329.85,274.02L329.68,273.28L331.01,271.85L332.62,272.09L333.37,271.47L335.24,271.44L335.48,270.91L336.23,271.32L336.60,272.11L337.81,272.36L338.33,271.69L339.49,271.79L341.37,270.99L341.69,272.20L342.62,273.32L342.36,273.63L343.77,274.97L344.97,275.14L345.95,276.58L345.10,276.72L345.13,277.65L343.16,277.92L342.75,278.69L342.20,278.60L342.31,279.04L340.38,277.76L339.01,278.05L338.86,277.24L338.32,277.70L339.60,280.03L338.18,280.07L338.31,280.47L337.83,280.75L336.79,280.44L336.47,281.11L334.50,279.35L334.46,279.85L333.92,279.89L333.37,280.61L332.34,280.77L331.82,279.41ZM336.16,270.26L335.75,269.96L335.83,269.19L337.46,268.49L338.45,270.57L338.16,271.13L338.27,270.80L337.24,270.19L336.81,270.67L336.16,270.26Z"><title>名護市</title></path>
<path data-code="47210" data-name="糸満市" d="M316.10,311.52L315.25,312.16L313.98,311.65L314.43,309.29L314.15,309.16L314.74,308.46L314.22,308.26L314.69,307.92L313.72,307.78L314.02,308.31L313.53,308.39L313.36,307.06L315.41,306.05L315.74,306.30L316.13,305.58L316.78,305.72L317.00,305.31L317.19,305.61L316.51,306.61L316.89,307.09L317.63,307.10L317.12,308.02L318.01,309.92L318.78,310.46L318.29,311.04L316.10,311.52Z"><title>糸満市</title></path>
<path data-code="47211" data-name="沖縄市" d="M326.10,293.51L326.81,294.03L325.62,293.79L326.10,293.51ZM325.84,293.51L325.47,294.31L326.29,294.87L325.06,295.12L326.40,295.72L326.15,295.99L325.06,295.14L325.07,295.61L323.90,295.55L323.68,294.03L322.61,294.78L321.83,294.65L322.04,294.34L321.41,293.08L322.21,292.44L321.87,292.24L321.79,291.14L322.45,287.14L323.46,289.34L323.97,288.73L324.54,289.66L324.87,289.21L325.55,289.88L324.58,291.63L325.84,293.51Z"><title>沖縄市</title></path>
<path data-code="47212" data-name="豊見城市" d="M313.49,306.52L313.76,305.89L314.64,306.44L313.49,306.52ZM316.88,305.52L314.74,306.56L313.77,305.85L313.34,306.50L313.22,306.03L313.75,305.76L313.38,305.00L313.87,305.02L312.85,304.80L314.84,304.40L315.55,303.87L315.65,303.23L316.72,303.46L317.63,304.44L316.88,305.52Z"><title>豊見城市</title></path>
<path data-code="47213" data-name="うるま市" d="M331.97,299.51L332.11,298.63L332.57,298.63L332.82,298.97L332.47,300.12L331.77,299.91L332.16,299.97L331.97,299.51ZM326.97,293.51L326.81,294.03L326.00,293.43L327.20,292.76L327.74,293.75L326.97,293.51ZM328.07,293.84L327.41,292.75L325.97,293.42L325.33,292.92L324.58,291.61L325.55,289.88L324.87,289.21L324.54,289.66L323.97,288.73L323.48,289.36L322.84,288.44L322.46,287.12L324.76,285.21L325.68,285.20L326.05,286.43L325.82,286.76L325.20,286.39L325.35,287.00L325.16,286.61L325.02,287.20L325.73,287.40L325.88,288.29L326.51,288.22L326.12,288.32L328.42,290.26L327.82,290.67L328.22,290.93L328.07,290.67L328.12,291.95L329.48,293.45L330.65,293.62L330.06,293.69L331.19,295.15L331.13,296.24L330.16,296.07L330.22,295.69L329.92,295.96L328.07,293.84ZM331.29,294.71L330.82,294.31L331.28,294.14L331.64,295.02L331.29,294.71ZM333.47,295.18L333.04,293.80L334.16,294.23L333.47,295.18ZM332.39,293.24L332.64,292.37L332.70,292.91L332.81,292.61L332.47,291.34L332.62,291.85L334.17,291.45L334.58,292.23L333.55,293.30L332.39,293.24ZM334.20,291.87L334.40,290.46L335.39,289.78L335.55,290.21L335.20,290.42L335.71,290.57L335.94,291.46L334.72,292.15L334.20,291.87ZM336.16,289.52L336.04,290.00L335.42,289.69L336.15,288.64L336.43,288.75L336.16,289.52Z"><title>うるま市</title></path>
<path data-code="47214" data-name="宮古島市" d="M158.03,410.24L157.35,409.88L157.48,408.91L158.52,409.46L158.47,410.07L158.03,410.24ZM159.77,407.59L160.31,407.36L160.12,406.56L159.21,405.15L158.64,405.14L158.42,404.37L159.91,403.31L159.86,401.22L160.38,400.83L161.00,401.35L161.05,400.64L159.50,398.20L159.42,397.30L158.36,396.05L159.23,396.57L159.06,395.62L160.30,398.02L161.17,398.32L162.10,401.29L163.57,402.39L163.27,403.13L163.55,404.06L164.83,404.78L165.78,404.53L166.64,404.87L167.92,406.42L169.91,406.79L172.25,409.83L171.21,408.98L170.77,409.38L168.15,409.03L166.29,409.41L165.83,409.07L161.84,410.35L161.04,409.71L161.10,408.76L160.84,408.71L160.94,409.87L158.76,408.64L158.19,407.12L158.81,406.24L159.08,407.50L159.77,407.59ZM151.89,401.58L153.32,403.18L152.88,403.73L151.23,403.47L151.23,402.98L150.80,402.81L150.60,401.46L150.89,400.94L151.39,401.68L151.89,401.58ZM155.81,401.58L156.21,402.98L155.85,403.50L154.91,403.59L155.21,404.07L153.35,403.20L151.95,401.55L151.97,399.90L152.41,399.26L153.41,399.54L155.41,400.61L155.81,401.58ZM158.03,395.31L158.05,394.91L157.66,395.26L156.80,394.24L157.99,394.27L158.42,395.00L158.03,395.31Z"><title>宮古島市</title></path>
<path data-code="47215" data-name="南城市" d="M319.88,307.48L319.28,306.59L318.70,306.48L318.65,305.36L319.43,303.25L320.78,303.50L320.97,304.11L321.79,304.03L321.79,305.11L322.56,305.24L322.70,304.20L324.03,303.70L324.58,303.72L324.67,304.53L325.25,304.77L325.19,305.58L322.68,307.84L321.61,307.80L320.81,308.51L319.88,307.48ZM330.04,305.52L328.73,306.58L328.54,306.31L328.72,306.56L328.65,305.99L330.37,305.16L330.04,305.52Z"><title>南城市</title></path>
<path data-code="47301" data-name="国頭村" d="M352.36,268.08L351.97,267.83L351.87,266.87L350.56,266.48L349.67,267.18L349.52,267.84L349.09,267.82L346.19,265.87L346.56,264.94L345.91,264.11L348.08,263.50L351.19,260.03L351.11,259.53L352.58,256.77L352.04,255.27L352.86,254.45L354.96,256.89L355.98,256.67L355.96,257.82L356.93,258.88L357.00,260.20L356.70,260.43L357.31,261.44L356.97,262.99L357.39,263.05L356.79,264.61L355.19,265.84L355.55,266.22L355.01,266.49L355.20,266.97L354.40,267.33L353.94,269.22L353.04,269.36L352.36,268.08Z"><title>国頭村</title></path>
<path data-code="47302" data-name="大宜味村" d="M341.56,271.52L341.37,270.99L342.45,269.82L343.42,269.38L343.37,270.02L344.23,269.85L342.53,268.59L343.81,266.86L345.33,266.54L346.18,265.82L349.13,267.84L346.35,271.29L344.80,270.86L342.56,273.22L341.56,271.52Z"><title>大宜味村</title></path>
<path data-code="47303" data-name="東村" d="M342.59,273.78L342.36,273.55L343.22,272.70L343.26,272.10L343.74,272.16L344.98,270.79L346.35,271.29L350.55,266.48L351.87,266.87L351.97,267.84L353.32,269.42L353.26,270.03L352.77,270.05L352.52,271.03L351.47,272.08L347.98,272.58L345.77,272.19L345.60,272.69L346.23,273.78L345.97,274.46L344.16,274.07L344.50,274.82L343.96,275.05L342.59,273.78Z"><title>東村</title></path>
<path data-code="47306" data-name="今帰仁村" d="M332.93,269.50L331.67,269.13L330.81,268.31L330.87,266.94L333.50,266.57L334.24,266.89L333.95,267.26L334.25,267.54L334.77,267.25L336.71,268.14L335.72,269.08L335.57,270.57L335.01,270.51L335.43,270.94L335.06,271.51L333.51,271.47L333.47,269.32L332.93,269.50ZM336.70,266.54L337.43,266.07L337.96,266.35L337.94,267.09L337.17,267.52L336.70,266.54Z"><title>今帰仁村</title></path>
<path data-code="47308" data-name="本部町" d="M326.99,272.05L326.78,270.76L327.79,270.50L327.79,271.36L326.99,272.05ZM329.59,273.56L329.63,273.93L328.22,271.34L328.32,270.38L329.36,269.94L328.94,269.88L328.91,268.92L328.02,268.19L328.39,266.38L330.05,267.20L330.87,266.94L330.81,268.31L331.99,269.26L333.45,269.27L333.75,270.78L332.64,272.09L331.00,271.85L329.59,273.56Z"><title>本部町</title></path>
<path data-code="47311" data-name="恩納村" d="M319.85,287.52L319.45,287.03L321.35,285.37L322.08,286.16L323.18,285.98L323.46,285.48L323.18,285.24L323.98,284.07L326.18,282.85L325.71,281.77L326.06,281.22L326.80,281.57L326.86,280.88L327.26,281.18L327.70,280.56L328.79,281.30L330.20,280.08L330.83,280.31L331.07,279.43L331.67,279.25L332.07,279.76L332.34,280.77L330.97,281.46L330.61,282.71L329.94,282.09L329.25,282.50L329.19,283.19L327.95,283.02L326.65,283.71L325.56,284.50L325.50,285.13L324.32,285.46L322.30,287.56L320.93,287.08L319.85,287.52Z"><title>恩納村</title></path>
<path data-code="47313" data-name="宜野座村" d="M331.85,282.30L331.44,281.77L331.62,281.34L333.37,280.61L333.92,279.89L334.46,279.85L334.49,279.35L334.85,280.03L335.97,280.48L335.62,281.20L336.34,282.36L335.50,282.89L335.59,283.30L334.04,283.83L333.17,283.39L332.75,284.05L331.85,282.30Z"><title>宜野座村</title></path>
<path data-code="47314" data-name="金武町" d="M325.50,285.13L325.56,284.50L327.17,283.41L327.95,283.02L329.19,283.19L329.55,282.24L330.00,282.12L330.61,282.71L331.17,281.35L332.96,284.65L332.48,285.05L332.84,285.99L331.25,285.90L330.75,285.32L327.73,284.56L326.62,285.05L325.91,286.16L325.50,285.13Z"><title>金武町</title></path>
<path data-code="47315" data-name="伊江村" d="M319.97,265.86L320.13,264.72L320.56,264.39L322.57,264.69L323.72,264.27L325.24,265.73L325.05,266.39L323.55,266.76L322.70,266.38L320.81,266.60L319.97,265.86Z"><title>伊江村</title></path>
<path data-code="47324" data-name="読谷村" d="M319.39,291.38L317.74,288.43L317.57,285.71L318.34,285.82L318.97,287.00L319.93,287.59L320.93,287.08L322.30,287.56L322.22,288.42L321.42,289.44L321.25,290.85L319.39,291.38Z"><title>読谷村</title></path>
<path data-code="47325" data-name="嘉手納町" d="M319.22,291.45L321.25,290.85L321.47,289.31L322.45,288.17L321.79,291.14L321.87,292.24L322.21,292.40L321.95,292.93L321.53,292.59L321.23,292.94L319.70,292.84L319.22,291.45Z"><title>嘉手納町</title></path>
<path data-code="47326" data-name="北谷町" d="M319.97,294.43L319.48,293.67L319.70,292.84L321.64,292.64L321.41,293.08L322.04,294.34L321.83,294.65L322.30,294.82L321.64,295.31L321.87,296.19L320.51,296.36L320.62,295.20L320.13,294.58L320.38,294.31L319.97,294.43Z"><title>北谷町</title></path>
<path data-code="47327" data-name="北中城村" d="M322.50,294.71L323.68,294.03L323.90,295.55L325.07,295.61L324.26,295.54L323.93,296.02L324.19,296.38L323.89,296.30L324.14,296.63L323.49,296.99L322.30,296.81L321.64,295.32L322.50,294.71Z"><title>北中城村</title></path>
<path data-code="47328" data-name="中城村" d="M322.59,299.51L322.40,300.82L320.94,299.99L321.09,298.89L322.37,296.81L324.28,296.64L324.04,297.99L323.80,297.70L323.24,298.17L322.59,299.51Z"><title>中城村</title></path>
<path data-code="47329" data-name="西原町" d="M318.89,301.21L320.05,299.42L321.02,299.03L321.07,300.33L322.56,300.95L321.27,302.58L319.60,302.18L318.89,301.21Z"><title>西原町</title></path>
<path data-code="47348" data-name="与那原町" d="M319.31,302.26L321.27,302.58L321.46,302.95L321.08,302.58L321.29,303.00L320.66,302.95L321.22,303.10L321.67,303.92L320.97,304.11L320.78,303.50L319.77,303.40L319.31,302.26Z"><title>与那原町</title></path>
<path data-code="47350" data-name="南風原町" d="M317.23,303.81L318.08,303.29L318.20,302.39L318.91,301.81L319.88,303.00L319.37,303.31L318.73,305.40L317.23,303.81Z"><title>南風原町</title></path>
<path data-code="47353" data-name="渡嘉敷村" d="M294.84,305.52L294.98,306.20L294.23,306.27L293.79,306.99L293.95,305.49L293.46,305.29L293.34,304.36L293.91,304.15L293.76,303.00L294.52,301.21L295.36,301.67L295.64,302.84L295.17,303.11L295.56,303.26L295.54,303.83L294.61,304.48L294.84,305.52ZM299.87,303.12L300.68,301.25L300.90,301.83L299.87,303.12Z"><title>渡嘉敷村</title></path>
<path data-code="47354" data-name="座間味村" d="M287.01,305.52L287.06,305.84L286.41,305.76L286.71,304.36L287.21,304.89L287.01,305.52ZM287.58,301.73L287.09,302.53L286.91,301.63L287.52,301.40L287.58,301.73ZM290.53,305.52L290.25,305.95L290.01,305.47L290.33,304.91L290.53,305.52ZM288.56,303.21L289.59,302.16L290.40,303.54L289.24,304.08L289.27,303.44L288.71,303.56L288.56,303.21ZM289.74,304.39L290.19,304.02L290.59,304.77L289.96,304.86L289.74,304.39ZM291.46,303.12L291.40,301.84L291.95,302.85L291.46,303.12ZM291.53,299.51L292.92,300.19L292.60,300.56L292.97,301.06L292.13,300.96L292.02,300.22L291.53,300.42L291.83,301.22L291.35,301.78L290.95,301.14L290.55,301.42L289.64,301.06L290.51,300.07L291.28,300.20L291.53,299.51Z"><title>座間味村</title></path>
<path data-code="47355" data-name="粟国村" d="M287.35,275.50L286.99,276.02L284.87,276.03L285.42,274.83L286.37,274.15L286.95,274.31L287.35,275.50Z"><title>粟国村</title></path>
<path data-code="47356" data-name="渡名喜村" d="M280.57,291.92L280.23,290.76L280.51,290.56L280.25,290.65L281.14,290.04L281.08,291.37L281.84,291.43L280.88,292.43L280.57,291.92Z"><title>渡名喜村</title></path>
<path data-code="47357" data-name="南大東村" d="M546.69,330.81L545.48,331.01L544.32,330.29L544.74,327.19L545.10,326.88L547.09,326.81L548.12,327.83L547.74,329.99L546.69,330.81Z"><title>南大東村</title></path>
<path data-code="47358" data-name="北大東村" d="M542.37,428.01L542.20,427.60L543.13,427.81L542.75,428.38L542.37,428.01ZM549.28,321.91L548.99,320.34L552.00,321.00L551.16,322.64L549.89,322.56L549.28,321.91Z"><title>北大東村</title></path>
<path data-code="47359" data-name="伊平屋村" d="M331.32,245.48L331.61,245.57L331.04,246.25L330.51,245.83L331.32,245.48ZM332.14,245.48L331.93,245.85L332.14,244.95L331.77,244.09L332.96,242.27L334.26,240.67L335.34,240.09L335.91,239.05L337.48,238.62L337.58,238.98L335.97,240.55L335.60,242.29L334.05,242.80L333.80,243.90L332.58,244.12L332.14,245.48Z"><title>伊平屋村</title></path>
<path data-code="47360" data-name="伊是名村" d="M331.24,253.13L331.00,252.54L331.64,252.56L331.41,252.89L331.88,253.10L331.24,253.13ZM333.07,251.48L332.22,251.92L331.14,251.39L331.10,250.12L330.45,250.02L330.76,249.38L332.58,248.73L332.32,248.80L333.36,249.56L333.07,251.48Z"><title>伊是名村</title></path>
<path data-code="47361" data-name="久米島町" d="M255.64,293.51L255.13,292.70L253.57,292.40L253.78,292.69L252.82,291.61L252.73,292.16L253.92,292.98L252.84,292.38L252.46,291.76L253.02,290.76L252.47,291.53L252.73,290.77L257.00,289.34L258.29,290.97L258.81,290.87L258.96,291.58L260.11,292.16L259.57,292.12L260.13,292.60L258.79,294.14L258.69,295.39L259.18,296.55L257.06,295.46L256.38,293.81L255.53,293.13L255.86,292.87L255.28,292.79L255.64,293.51ZM259.87,293.07L260.43,292.87L260.71,293.32L259.87,293.07ZM350.74,183.12L350.25,182.23L350.54,181.68L351.48,183.05L351.33,183.49L350.74,183.12Z"><title>久米島町</title></path>
<path data-code="47362" data-name="八重瀬町" d="M318.71,306.52L319.28,306.59L320.78,308.63L319.79,309.01L318.78,310.45L318.01,309.92L317.12,308.02L317.63,307.10L316.89,307.09L316.51,306.61L317.19,305.61L317.01,305.11L317.67,304.51L318.78,305.55L318.71,306.52Z"><title>八重瀬町</title></path>
<path data-code="47375" data-name="多良間村" d="M124.12,413.59L124.21,414.52L123.73,415.11L124.04,415.25L122.89,415.66L120.94,415.39L120.52,414.44L120.78,413.55L122.20,412.82L122.97,413.02L123.02,412.73L124.12,413.59ZM122.73,407.59L122.78,407.98L122.19,407.87L121.28,406.97L122.06,406.72L122.73,407.59Z"><title>多良間村</title></path>
<path data-code="47381" data-name="竹富町" d="M61.39,458.07L61.11,457.13L61.90,456.63L63.50,456.47L64.79,457.17L64.45,458.04L63.81,458.32L61.39,458.07ZM60.87,438.78L60.89,437.29L60.51,436.94L61.07,435.81L60.42,435.09L61.06,434.46L60.38,433.52L61.03,433.42L60.96,432.55L61.62,431.72L62.34,431.53L62.36,430.94L61.78,430.66L62.18,430.15L63.03,430.10L64.20,431.70L64.88,431.99L64.78,432.71L65.20,432.89L64.70,432.73L65.13,433.49L66.23,432.25L67.65,432.60L68.10,433.18L68.82,432.51L69.37,432.81L69.75,433.97L71.03,433.91L72.03,435.21L73.19,435.43L72.91,436.46L72.32,436.93L72.42,438.85L71.34,438.18L70.52,439.94L70.87,441.80L69.35,441.42L69.22,441.72L69.68,441.97L69.18,443.22L68.24,443.23L66.22,442.01L64.48,442.20L61.22,441.49L59.17,440.04L58.82,441.59L56.36,441.26L55.15,439.40L55.74,439.00L56.81,439.24L56.33,438.40L56.75,437.65L57.68,438.15L57.83,439.05L58.29,438.94L57.67,437.13L57.87,436.40L58.63,437.99L58.54,437.56L59.35,436.88L59.51,437.99L60.07,437.89L60.19,438.94L60.45,438.53L60.87,439.18L60.87,438.78ZM74.25,437.61L73.90,437.69L75.10,437.17L74.69,436.43L75.41,436.06L76.65,436.62L76.41,437.10L77.30,438.01L76.52,438.31L76.17,437.82L74.25,437.61ZM76.59,443.61L77.30,443.45L77.14,443.17L78.11,443.82L78.63,443.59L78.95,444.81L77.39,445.71L76.56,444.46L76.59,443.61ZM58.71,435.21L58.44,434.48L59.41,434.32L58.71,435.21ZM59.25,435.84L59.21,435.34L59.70,435.29L60.52,436.55L59.25,435.84ZM65.19,427.76L65.12,427.25L65.81,427.61L65.19,427.76ZM72.01,446.02L72.78,445.66L72.97,446.07L72.60,446.58L72.01,446.02ZM73.05,445.42L73.16,444.54L73.98,444.18L74.10,444.52L73.05,445.42ZM83.33,437.61L83.66,438.53L82.26,439.04L81.98,438.20L82.28,437.41L82.69,437.09L83.33,437.61Z"><title>竹富町</title></path>
<path data-code="47382" data-name="与那国町" d="M12.29,429.88L10.13,430.10L8.00,429.21L8.46,429.29L8.50,428.71L9.32,428.42L9.87,427.58L10.60,427.96L13.10,427.49L15.12,428.29L13.02,430.14L12.29,429.88Z"><title>与那国町</title></path>
  </g>
</svg>
