<?xml version="1.0" encoding="UTF-8"?>
<svg xmlns="http://www.w3.org/2000/svg" viewBox="0 0 560 640" class="pref-muni-svg" role="img" aria-label="自治体境界図">
  <g class="pref-muni-svg__paths" fill="#eaf2fb" stroke="#5b7fa8" stroke-width="0.6" stroke-linejoin="round">
<path data-code="27100" data-name="大阪市" d="M343.00,273.00L350.28,262.70L360.17,280.33L356.19,293.12L346.48,295.96L347.40,277.72L343.00,273.00Z"><title>大阪市</title></path>
<path data-code="27100" data-name="大阪市" d="M308.49,299.59L308.10,289.76L316.38,283.90L322.71,289.73L327.09,287.42L327.30,294.56L319.68,303.10L314.81,305.03L308.49,299.59Z"><title>大阪市</title></path>
<path data-code="27100" data-name="大阪市" d="M287.50,322.89L280.08,326.97L279.22,321.93L276.74,328.23L278.15,320.40L284.62,315.28L278.69,318.57L278.29,310.96L272.02,309.63L308.10,289.76L308.48,299.72L314.81,305.03L300.30,310.81L287.50,322.89ZM250.81,325.82L253.86,320.81L270.28,326.59L262.52,336.47L253.41,335.03L250.81,325.82ZM273.20,316.21L273.74,322.32L258.63,319.40L259.55,314.45L269.03,310.98L273.20,316.21ZM234.33,352.78L231.48,355.80L230.06,352.19L236.50,343.67L240.02,347.53L234.33,352.78Z"><title>大阪市</title></path>
<path data-code="27100" data-name="大阪市" d="M311.26,311.26L308.09,307.55L331.57,295.20L331.08,314.33L316.30,316.13L311.26,311.26Z"><title>大阪市</title></path>
<path data-code="27100" data-name="大阪市" d="M302.31,332.07L284.52,329.63L284.62,324.98L308.09,307.55L316.21,316.02L302.31,332.07Z"><title>大阪市</title></path>
<path data-code="27100" data-name="大阪市" d="M300.27,348.89L300.55,332.83L320.40,315.03L316.91,344.68L300.27,348.89Z"><title>大阪市</title></path>
<path data-code="27100" data-name="大阪市" d="M340.31,319.55L345.73,316.84L347.42,308.66L355.35,309.68L347.38,332.81L337.55,331.16L340.31,319.55Z"><title>大阪市</title></path>
<path data-code="27110" data-name="大阪市" d="M333.15,329.70L320.76,325.54L320.76,314.55L340.31,319.55L337.55,331.16L333.15,329.70Z"><title>大阪市</title></path>
<path data-code="27110" data-name="大阪市" d="M272.11,291.81L297.74,274.78L297.34,266.17L304.74,269.14L316.04,284.13L280.67,303.25L272.11,291.81Z"><title>大阪市</title></path>
<path data-code="27110" data-name="大阪市" d="M337.66,253.63L351.57,250.53L363.04,234.29L366.90,235.90L366.71,243.67L373.14,246.20L367.35,259.89L347.87,263.36L342.91,273.19L335.82,273.93L337.66,253.63Z"><title>大阪市</title></path>
<path data-code="27110" data-name="大阪市" d="M353.47,317.17L355.81,304.12L375.04,307.10L370.87,318.13L353.47,317.17Z"><title>大阪市</title></path>
<path data-code="27110" data-name="大阪市" d="M360.71,336.93L356.35,338.21L349.41,330.80L353.47,317.17L373.56,319.49L373.55,334.74L368.88,334.34L369.08,342.96L360.71,336.93Z"><title>大阪市</title></path>
<path data-code="27110" data-name="大阪市" d="M352.38,262.76L366.41,260.54L370.45,252.55L373.48,258.25L368.44,262.95L369.58,269.59L375.20,269.62L377.82,275.23L360.17,280.33L352.38,262.76Z"><title>大阪市</title></path>
<path data-code="27110" data-name="大阪市" d="M375.06,306.03L355.81,304.12L357.08,282.81L362.05,278.15L373.00,277.50L375.06,306.03Z"><title>大阪市</title></path>
<path data-code="27110" data-name="大阪市" d="M331.38,350.38L338.75,331.49L352.67,334.01L343.91,356.72L331.38,350.38Z"><title>大阪市</title></path>
<path data-code="27120" data-name="大阪市" d="M324.64,372.84L328.51,350.85L339.14,351.73L338.97,356.27L343.91,356.72L342.46,362.01L348.82,362.06L348.07,374.00L337.11,380.39L324.64,372.84Z"><title>大阪市</title></path>
<path data-code="27120" data-name="大阪市" d="M342.73,359.03L352.67,334.01L364.67,340.01L360.10,349.40L361.89,370.11L354.31,370.71L353.36,376.93L348.07,374.00L348.82,362.06L342.73,359.03Z"><title>大阪市</title></path>
<path data-code="27120" data-name="大阪市" d="M320.76,325.54L338.75,331.49L330.64,350.77L321.57,352.30L315.88,346.03L320.76,325.54Z"><title>大阪市</title></path>
<path data-code="27120" data-name="大阪市" d="M297.34,266.17L300.13,262.09L313.37,264.65L327.00,248.33L337.66,253.63L335.82,273.93L316.04,284.13L304.74,269.14L297.34,266.17Z"><title>大阪市</title></path>
<path data-code="27120" data-name="大阪市" d="M377.19,299.31L372.04,299.35L372.96,277.43L377.82,275.23L382.22,282.33L387.45,270.78L390.59,280.74L398.74,277.71L385.67,297.77L377.19,299.31Z"><title>大阪市</title></path>
<path data-code="27120" data-name="大阪市" d="M261.80,348.28L279.45,353.98L280.94,361.01L268.14,361.05L261.80,348.28ZM267.30,344.47L264.98,346.66L265.85,338.54L288.68,334.35L293.21,336.61L294.90,346.89L281.94,352.10L272.22,346.06L275.40,339.83L267.30,344.47ZM294.77,363.04L282.73,361.01L282.74,354.43L289.03,359.21L287.73,351.55L294.53,348.67L298.66,355.32L299.27,348.43L315.88,346.03L321.57,352.30L328.51,350.85L324.64,372.84L294.77,363.04Z"><title>大阪市</title></path>
<path data-code="27120" data-name="大阪市" d="M361.92,370.62L360.10,349.40L364.71,340.48L369.08,342.96L368.88,334.34L373.55,334.74L383.76,348.39L382.81,355.03L374.29,351.32L374.09,356.03L381.71,355.76L390.81,365.85L385.93,374.39L380.51,374.48L380.09,380.13L377.52,373.23L361.92,370.62Z"><title>大阪市</title></path>
<path data-code="27120" data-name="大阪市" d="M331.57,295.20L320.83,301.79L327.30,294.56L327.09,287.42L322.71,289.73L316.38,283.90L329.99,274.36L345.83,274.34L347.51,294.97L331.57,295.20Z"><title>大阪市</title></path>
<path data-code="27120" data-name="大阪市" d="M333.23,317.76L331.57,295.20L356.19,293.12L355.35,309.68L347.42,308.66L345.73,316.84L340.31,319.55L333.23,317.76Z"><title>大阪市</title></path>
<path data-code="27140" data-name="堺市" d="M301.53,383.01L311.09,382.00L299.80,380.03L308.40,379.77L307.25,373.77L306.24,377.62L292.16,378.74L284.14,374.98L282.83,365.65L296.76,371.65L292.06,363.10L297.98,362.97L330.48,374.46L335.07,380.74L330.17,392.89L334.37,400.73L328.34,397.64L321.38,408.04L318.18,404.70L309.29,413.20L309.20,401.41L299.89,395.26L301.43,389.40L305.25,390.62L301.53,383.01Z"><title>堺市</title></path>
<path data-code="27140" data-name="堺市" d="M326.70,415.88L339.66,411.60L351.33,429.90L356.63,448.58L335.12,445.01L314.18,431.52L312.07,423.18L321.41,425.44L320.18,418.74L326.70,415.88Z"><title>堺市</title></path>
<path data-code="27140" data-name="堺市" d="M338.61,411.23L345.87,412.00L351.87,402.47L364.00,402.76L358.52,413.14L361.11,425.26L369.41,426.85L369.51,435.39L363.82,435.38L361.49,441.79L355.86,439.23L338.61,411.23Z"><title>堺市</title></path>
<path data-code="27140" data-name="堺市" d="M309.59,449.81L307.57,452.49L309.04,444.53L303.09,437.16L305.74,432.30L297.46,428.97L301.14,425.44L292.15,416.90L296.83,403.94L273.39,403.46L268.75,369.61L277.68,374.65L281.02,393.96L286.70,393.13L284.57,377.97L294.67,383.32L296.95,396.10L309.20,401.41L309.29,413.20L318.82,404.65L325.69,413.28L320.18,418.74L322.77,424.51L312.07,423.18L314.18,431.52L325.37,441.44L309.59,449.81ZM272.79,412.87L273.52,405.69L277.77,409.74L275.34,414.91L272.79,412.87ZM284.88,412.21L287.52,406.67L294.30,406.32L291.27,415.68L284.88,412.21Z"><title>堺市</title></path>
<path data-code="27140" data-name="堺市" d="M310.17,450.02L321.86,446.66L325.68,438.48L353.19,448.86L356.63,448.58L355.51,443.20L359.64,450.93L355.56,457.00L357.10,469.78L363.11,480.30L345.71,505.76L333.57,502.90L329.62,485.15L319.07,477.95L310.91,463.38L310.17,450.02Z"><title>堺市</title></path>
<path data-code="27140" data-name="堺市" d="M321.38,408.04L328.34,397.64L334.37,400.73L330.17,392.89L335.07,380.74L347.73,374.19L348.02,388.36L354.18,388.37L357.80,397.23L365.53,397.82L364.00,402.76L351.87,402.47L352.07,407.23L345.12,412.20L337.08,409.62L326.80,416.17L321.38,408.04Z"><title>堺市</title></path>
<path data-code="27140" data-name="堺市" d="M364.88,403.05L370.90,406.68L373.49,401.69L378.20,402.69L377.68,410.77L391.01,424.68L387.34,441.35L377.11,438.96L372.39,426.48L361.11,425.26L358.79,411.14L364.88,403.05Z"><title>堺市</title></path>
<path data-code="27202" data-name="岸和田市" d="M264.27,516.62L259.29,515.82L253.82,504.57L254.91,493.58L236.25,479.93L242.68,471.99L242.30,476.60L247.63,475.66L244.97,465.28L252.17,469.68L248.09,449.49L294.97,481.17L296.19,501.59L303.88,525.41L300.14,537.18L309.25,547.58L304.43,556.30L304.45,568.54L289.28,570.89L285.16,550.53L278.15,546.48L270.98,528.81L273.50,519.31L267.72,521.06L264.27,516.62ZM234.33,476.54L236.34,466.46L231.40,472.90L237.53,458.63L236.27,465.71L240.68,470.91L239.69,460.70L241.71,469.21L234.33,476.54Z"><title>岸和田市</title></path>
<path data-code="27203" data-name="豊中市" d="M307.05,262.92L304.52,241.27L301.53,242.84L296.63,234.07L295.56,209.37L301.67,205.04L299.02,202.57L315.27,193.51L326.73,196.16L331.69,189.37L338.70,200.80L327.50,217.93L333.19,228.11L325.69,235.48L321.14,258.44L313.37,264.65L307.05,262.92Z"><title>豊中市</title></path>
<path data-code="27204" data-name="池田市" d="M278.17,196.27L283.34,179.56L278.43,167.46L287.97,164.10L292.19,147.51L306.42,160.26L306.82,173.68L302.73,175.03L298.31,201.41L301.85,204.48L292.81,215.82L282.92,207.66L278.17,196.27Z"><title>池田市</title></path>
<path data-code="27205" data-name="吹田市" d="M325.26,249.56L325.69,235.48L333.19,228.11L327.52,217.83L338.70,200.80L331.69,189.60L333.46,185.08L348.69,187.99L353.01,196.22L369.28,203.38L367.48,214.48L357.43,220.48L367.07,234.34L354.70,241.71L352.28,249.90L338.38,253.75L325.26,249.56Z"><title>吹田市</title></path>
<path data-code="27206" data-name="泉大津市" d="M283.98,449.81L286.73,456.58L274.82,464.16L269.94,454.20L245.65,436.15L253.45,423.41L258.08,435.81L255.26,440.45L260.09,439.20L260.76,445.42L262.48,440.02L267.62,441.14L268.64,434.93L270.77,441.51L273.84,438.89L274.13,431.45L284.98,439.60L288.23,436.46L290.42,442.64L283.98,449.81ZM261.80,430.29L258.78,429.90L263.24,424.62L269.07,429.32L264.03,435.93L261.80,430.29Z"><title>泉大津市</title></path>
<path data-code="27207" data-name="高槻市" d="M390.29,189.45L389.70,176.06L379.20,168.16L378.53,154.36L374.54,151.71L381.87,144.46L377.05,140.80L380.04,130.89L376.61,129.13L382.86,124.58L381.44,115.67L386.81,111.16L387.12,100.45L380.65,97.83L374.64,102.37L374.83,95.34L371.72,102.89L370.94,98.14L374.86,86.14L385.05,84.36L380.00,73.21L387.67,67.63L394.14,76.22L407.92,72.08L411.50,82.55L407.84,95.73L398.72,106.48L417.70,102.12L419.02,123.61L423.24,120.94L422.03,135.32L429.75,139.46L435.48,151.22L447.14,153.18L441.64,165.59L432.20,171.16L425.76,196.39L412.74,204.22L400.67,224.95L398.12,199.28L403.33,194.54L390.29,189.45Z"><title>高槻市</title></path>
<path data-code="27208" data-name="貝塚市" d="M250.81,526.05L242.48,517.50L245.87,516.24L220.52,502.46L234.47,488.38L235.23,479.65L236.60,489.22L240.54,482.04L254.91,493.58L252.66,499.41L259.29,515.82L265.31,514.68L267.72,521.06L273.40,519.11L272.96,535.26L278.15,546.48L285.16,550.53L289.91,571.48L284.98,577.33L261.84,571.90L255.42,556.31L259.37,541.55L253.71,537.10L250.81,526.05ZM220.01,489.95L228.25,476.32L227.08,469.38L231.67,486.14L223.13,494.12L220.01,489.95Z"><title>貝塚市</title></path>
<path data-code="27209" data-name="守口市" d="M370.45,252.55L372.27,246.80L390.60,235.36L403.74,250.04L398.29,253.61L386.90,251.11L380.52,257.14L388.79,271.55L382.72,275.53L382.03,282.36L375.20,269.62L369.58,269.59L368.44,262.95L373.48,258.25L370.45,252.55Z"><title>守口市</title></path>
<path data-code="27210" data-name="枚方市" d="M408.57,216.13L412.74,204.22L425.76,196.39L432.20,171.16L442.18,164.88L451.87,144.12L461.58,160.15L458.94,164.01L461.75,170.62L470.20,169.82L495.84,208.05L491.99,218.57L479.30,229.81L473.00,224.29L474.73,214.35L462.27,208.84L449.49,206.58L442.68,211.42L446.49,226.50L434.33,230.90L430.83,222.32L408.57,216.13Z"><title>枚方市</title></path>
<path data-code="27211" data-name="茨木市" d="M348.33,189.75L350.52,181.83L345.48,178.12L349.91,171.16L342.72,161.09L340.97,149.71L335.38,153.18L330.53,144.27L333.63,132.40L345.32,125.36L349.97,106.07L358.39,108.80L360.48,116.95L381.44,115.67L382.86,124.58L376.61,129.13L380.04,130.89L377.05,140.80L381.87,144.46L374.54,151.71L378.53,154.36L379.20,168.16L389.70,176.06L390.30,190.36L403.31,194.48L398.25,198.80L397.60,210.39L377.33,229.01L374.68,215.09L367.48,214.48L369.28,203.38L348.33,189.75Z"><title>茨木市</title></path>
<path data-code="27212" data-name="八尾市" d="M402.49,383.01L383.90,375.20L390.55,362.32L374.09,356.03L374.29,351.32L382.81,355.03L382.48,343.85L391.84,343.65L389.42,338.11L396.48,336.20L395.54,329.07L416.01,329.32L419.85,337.22L441.56,334.96L438.14,357.77L432.62,361.86L431.45,369.69L412.80,370.70L402.49,383.01Z"><title>八尾市</title></path>
<path data-code="27213" data-name="泉佐野市" d="M250.81,585.24L231.63,585.67L227.17,577.25L220.92,578.16L215.85,565.75L217.95,559.24L207.74,545.98L194.52,546.85L201.61,537.98L193.99,527.07L197.00,518.71L208.16,511.51L207.65,516.29L214.32,513.19L210.44,508.62L213.51,505.12L218.15,508.53L220.08,506.03L215.22,503.52L217.78,500.37L238.74,514.44L236.78,525.16L232.43,521.59L224.74,530.76L238.02,551.85L254.86,559.37L254.53,564.73L262.20,572.24L273.12,574.09L270.97,582.98L250.81,585.24ZM162.90,500.11L172.13,492.89L169.60,494.59L178.39,499.91L169.71,506.04L162.90,500.11ZM168.39,493.68L161.75,499.11L154.76,493.06L162.84,485.71L171.17,488.98L168.39,493.68Z"><title>泉佐野市</title></path>
<path data-code="27214" data-name="富田林市" d="M371.67,461.26L375.43,455.36L373.02,440.41L387.34,441.35L390.73,424.32L417.06,429.41L410.69,441.63L417.44,451.46L417.02,460.84L413.23,454.73L407.73,457.56L409.79,488.27L401.65,498.23L387.64,490.13L384.59,481.90L387.65,474.98L382.46,468.93L373.97,468.37L371.67,461.26Z"><title>富田林市</title></path>
<path data-code="27215" data-name="寝屋川市" d="M413.88,258.63L390.60,235.36L408.57,216.13L430.83,222.32L433.28,230.53L437.66,228.40L439.91,232.93L437.06,252.29L419.29,249.68L415.34,261.77L421.33,266.87L412.86,266.15L413.88,258.63Z"><title>寝屋川市</title></path>
<path data-code="27216" data-name="河内長野市" d="M325.52,564.46L327.16,551.69L346.22,539.37L351.01,518.81L346.30,500.32L372.09,466.06L387.59,474.88L384.59,486.03L388.22,490.73L416.38,513.12L423.63,513.89L435.79,533.25L440.96,532.75L434.67,543.33L412.30,542.42L408.21,548.71L397.64,545.69L394.65,550.15L384.09,549.18L338.39,580.88L334.78,579.61L334.39,569.90L325.52,564.46Z"><title>河内長野市</title></path>
<path data-code="27217" data-name="松原市" d="M387.41,383.01L377.54,388.34L377.55,401.71L368.30,406.61L364.91,396.98L357.80,397.23L354.18,388.37L348.02,388.36L347.09,377.79L361.89,370.11L361.97,373.50L377.52,373.23L378.98,380.07L380.56,374.43L389.78,377.65L387.41,383.01Z"><title>松原市</title></path>
<path data-code="27218" data-name="大東市" d="M398.74,277.71L405.07,271.78L414.94,272.11L412.86,266.15L430.03,264.16L448.88,280.52L447.39,289.42L421.49,290.51L417.00,285.92L410.93,288.70L411.56,292.72L397.04,289.02L392.78,283.32L397.22,283.93L398.74,277.71Z"><title>大東市</title></path>
<path data-code="27219" data-name="和泉市" d="M300.27,537.39L303.88,525.41L296.19,501.59L295.12,481.51L286.81,473.57L283.35,476.83L279.35,473.14L277.39,464.61L278.07,459.39L286.73,456.58L283.08,449.27L290.42,442.64L289.31,438.61L304.53,437.47L309.04,444.53L307.57,452.49L310.83,447.19L310.91,463.38L318.35,477.09L329.62,485.15L333.57,502.90L349.34,506.40L351.01,518.81L344.16,542.38L327.31,551.51L318.51,567.31L310.62,572.20L302.33,570.17L309.27,547.87L300.27,537.39Z"><title>和泉市</title></path>
<path data-code="27220" data-name="箕面市" d="M299.24,195.96L302.73,175.03L306.82,173.68L306.54,161.07L292.60,149.73L292.22,143.80L296.81,132.83L305.42,131.53L314.78,120.45L324.62,130.43L318.53,137.21L321.36,149.37L329.31,145.57L335.47,153.21L340.97,149.71L342.72,161.09L349.91,171.16L345.48,178.12L350.50,184.79L347.80,188.56L333.46,185.08L327.56,195.87L317.26,192.43L302.52,203.55L299.02,202.57L299.24,195.96Z"><title>箕面市</title></path>
<path data-code="27221" data-name="柏原市" d="M413.80,407.10L417.36,387.54L404.23,376.71L415.35,369.88L430.63,370.27L433.32,364.19L449.08,368.26L452.73,383.08L446.35,385.75L447.30,393.19L436.70,399.89L435.04,411.73L424.59,410.18L423.27,403.77L413.80,407.10Z"><title>柏原市</title></path>
<path data-code="27222" data-name="羽曳野市" d="M377.19,401.15L377.54,388.34L388.18,384.12L397.63,406.18L402.51,402.98L401.95,396.95L413.44,398.28L414.00,408.45L423.27,403.77L423.02,409.10L438.83,416.89L419.19,429.24L397.96,426.87L386.99,422.65L377.68,410.77L377.19,401.15Z"><title>羽曳野市</title></path>
<path data-code="27223" data-name="門真市" d="M380.45,257.30L386.72,251.17L402.14,253.18L403.40,249.09L412.61,255.10L414.94,272.11L405.07,271.78L390.79,280.86L380.45,257.30Z"><title>門真市</title></path>
<path data-code="27224" data-name="摂津市" d="M366.20,237.68L357.99,218.90L374.68,215.09L377.33,229.01L398.14,210.85L400.67,224.95L383.95,242.01L373.14,246.20L366.71,243.67L366.20,237.68Z"><title>摂津市</title></path>
<path data-code="27225" data-name="高石市" d="M267.30,421.34L270.77,411.95L280.64,419.37L284.60,412.06L291.27,415.68L281.45,429.92L267.30,421.34ZM283.78,438.46L279.74,434.20L292.15,416.90L301.14,425.44L297.46,428.97L306.85,434.74L298.78,440.76L283.78,438.46Z"><title>高石市</title></path>
<path data-code="27226" data-name="藤井寺市" d="M386.80,384.03L389.96,378.02L402.48,383.01L406.39,378.70L417.40,387.78L413.44,398.28L401.95,396.95L399.90,406.92L386.80,384.03Z"><title>藤井寺市</title></path>
<path data-code="27227" data-name="東大阪市" d="M370.84,318.80L376.51,299.30L385.16,298.17L395.87,286.68L411.56,292.72L410.93,288.70L417.00,285.92L421.49,290.51L447.22,288.57L450.85,302.98L442.28,334.40L438.83,335.56L419.85,337.22L416.01,329.32L395.54,329.07L396.48,336.20L389.42,338.11L391.84,343.65L382.48,343.85L373.65,336.91L371.85,324.89L375.37,322.99L370.84,318.80Z"><title>東大阪市</title></path>
<path data-code="27228" data-name="泉南市" d="M183.52,583.57L167.93,555.51L168.86,548.44L187.68,533.37L194.52,546.85L205.09,544.34L210.31,548.81L217.95,559.24L215.85,565.75L220.92,578.16L227.98,580.56L227.17,586.55L219.84,590.88L221.48,596.72L203.98,599.15L203.03,606.40L196.69,610.75L183.52,583.57ZM156.55,516.62L153.68,519.17L148.03,512.16L155.51,506.06L162.02,511.62L156.55,516.62ZM147.33,499.12L154.47,505.19L149.68,503.13L139.49,511.45L141.37,513.88L136.19,507.46L147.33,499.12Z"><title>泉南市</title></path>
<path data-code="27229" data-name="四條畷市" d="M415.35,261.44L419.29,249.68L438.65,249.42L463.02,254.31L467.83,270.42L447.36,288.07L447.69,277.53L436.87,271.71L436.60,267.13L415.35,261.44Z"><title>四條畷市</title></path>
<path data-code="27230" data-name="交野市" d="M438.65,249.42L438.43,229.38L446.51,226.38L442.68,211.42L449.49,206.58L474.73,214.35L476.13,220.56L469.45,231.41L469.59,250.49L454.81,255.78L438.65,249.42Z"><title>交野市</title></path>
<path data-code="27231" data-name="大阪狭山市" d="M360.71,476.55L355.37,459.66L359.42,448.94L354.76,438.10L361.49,441.79L363.82,435.38L369.51,435.39L371.85,426.23L377.09,438.71L372.66,443.44L375.18,456.61L371.70,458.15L372.71,466.24L360.71,476.55Z"><title>大阪狭山市</title></path>
<path data-code="27232" data-name="阪南市" d="M168.39,598.48L151.78,609.44L130.03,600.30L127.84,594.49L131.39,590.04L127.60,584.58L137.05,575.58L151.05,571.79L168.69,548.38L168.53,559.74L174.79,564.49L189.86,595.81L183.09,600.53L168.39,598.48Z"><title>阪南市</title></path>
<path data-code="27301" data-name="島本町" d="M430.95,115.80L431.15,121.50L446.24,127.25L453.70,138.90L447.14,153.18L435.48,151.22L429.75,139.46L422.03,135.32L423.24,120.94L419.02,123.61L418.31,101.10L431.67,108.84L434.44,115.66L430.95,115.80Z"><title>島本町</title></path>
<path data-code="27321" data-name="豊能町" d="M283.42,124.02L279.79,121.51L293.21,112.72L309.32,114.43L323.10,91.15L329.51,96.41L342.86,93.79L350.27,107.26L345.18,125.57L333.63,132.40L330.45,143.55L332.92,147.18L323.92,150.42L318.53,137.21L324.62,130.43L315.68,120.76L310.62,121.53L305.36,131.56L296.03,130.01L288.80,135.78L283.42,124.02Z"><title>豊能町</title></path>
<path data-code="27322" data-name="能勢町" d="M249.74,85.95L240.73,85.32L231.08,75.57L234.69,64.83L240.62,63.01L236.02,56.70L237.43,29.12L227.61,28.25L221.28,20.76L234.22,8.00L254.14,17.64L255.23,40.78L269.44,43.63L273.74,39.75L281.15,47.27L293.79,42.83L329.01,58.20L322.13,63.53L327.25,74.63L321.32,76.87L324.88,83.33L320.62,88.76L323.29,91.96L314.63,105.73L307.53,108.09L294.77,97.58L279.49,101.99L278.81,95.67L274.08,97.12L273.30,92.69L262.26,96.00L257.72,85.66L249.74,85.95Z"><title>能勢町</title></path>
<path data-code="27341" data-name="忠岡町" d="M248.97,450.05L252.68,443.52L269.94,454.20L279.58,467.72L276.22,470.77L248.97,450.05Z"><title>忠岡町</title></path>
<path data-code="27361" data-name="熊取町" d="M225.35,531.28L228.03,523.70L236.78,525.16L239.43,514.81L245.87,516.24L242.48,517.50L246.77,518.53L253.71,537.10L259.37,541.55L255.42,556.31L259.59,565.71L238.02,551.85L225.35,531.28Z"><title>熊取町</title></path>
<path data-code="27362" data-name="田尻町" d="M189.19,538.25L188.04,533.67L193.38,533.25L193.99,527.07L201.61,537.98L194.51,543.27L189.19,538.25ZM148.44,500.06L154.76,493.06L161.75,499.11L157.22,504.65L162.86,500.08L169.71,506.04L162.02,511.62L148.44,500.06Z"><title>田尻町</title></path>
<path data-code="27366" data-name="岬町" d="M84.47,630.18L76.30,632.00L75.19,622.98L70.40,621.51L67.35,612.83L73.49,603.25L67.56,603.77L64.16,598.07L89.64,589.16L89.36,593.72L95.96,595.95L104.71,585.00L122.33,577.44L120.06,580.02L130.89,579.57L127.60,584.58L131.62,592.20L127.83,594.65L130.59,600.70L140.49,602.76L138.84,619.48L125.09,627.11L104.83,630.78L105.62,625.34L100.32,623.12L93.63,631.38L84.47,630.18Z"><title>岬町</title></path>
<path data-code="27381" data-name="太子町" d="M439.10,449.81L425.67,448.26L419.31,438.44L412.62,437.93L413.27,431.73L438.83,416.89L440.24,425.73L449.97,429.48L450.29,442.00L439.10,449.81Z"><title>太子町</title></path>
<path data-code="27382" data-name="河南町" d="M407.98,464.55L407.73,457.56L411.74,454.80L417.02,460.84L417.44,451.46L410.82,444.15L412.62,437.93L419.31,438.44L431.07,451.68L448.83,445.22L455.09,462.87L453.35,477.67L443.09,474.63L434.76,481.91L442.69,492.84L417.64,475.90L417.02,468.84L410.28,470.40L407.98,464.55Z"><title>河南町</title></path>
<path data-code="27383" data-name="千早赤阪村" d="M426.35,518.05L400.62,499.86L409.79,488.27L409.47,471.56L417.02,468.84L417.64,475.90L442.69,492.84L434.76,481.91L437.37,476.50L450.59,474.99L456.36,490.89L451.25,503.71L441.56,511.36L451.98,522.60L449.35,529.96L435.86,533.29L426.35,518.05Z"><title>千早赤阪村</title></path>
  </g>
</svg>
