<?xml version="1.0" encoding="UTF-8"?>
<svg xmlns="http://www.w3.org/2000/svg" viewBox="0 0 560 640" class="pref-muni-svg" role="img" aria-label="自治体境界図">
  <g class="pref-muni-svg__paths" fill="#eaf2fb" stroke="#5b7fa8" stroke-width="0.6" stroke-linejoin="round">
<path data-code="25201" data-name="大津市" d="M148.97,565.75L142.23,554.83L146.84,550.34L145.42,543.79L151.72,533.52L151.07,524.95L136.36,508.71L138.74,500.72L134.51,499.11L134.59,494.37L122.09,494.74L127.49,487.88L118.37,478.32L126.88,480.28L126.35,473.61L122.35,473.57L122.56,467.93L115.32,458.04L126.53,450.70L124.88,439.82L129.33,429.96L126.64,426.22L134.92,406.19L134.31,391.42L138.78,383.59L132.42,375.56L130.48,358.80L124.41,344.66L123.44,337.83L128.32,333.99L126.35,323.71L141.01,295.08L155.95,294.65L166.00,300.02L168.58,307.90L178.53,311.97L194.54,298.71L209.72,302.37L227.94,330.45L216.51,358.55L203.50,364.87L196.09,387.97L185.44,394.60L175.93,428.41L156.15,466.52L164.57,493.95L181.38,491.80L191.70,507.97L201.52,504.70L200.38,500.28L203.96,498.28L209.71,503.41L221.93,502.51L226.65,514.30L219.40,516.25L227.89,527.63L234.38,529.82L241.37,526.32L242.80,515.28L241.80,526.42L237.30,531.25L242.68,539.11L229.87,545.70L224.28,543.49L214.97,550.64L211.84,564.10L204.76,565.04L202.87,561.31L198.66,571.00L187.11,572.08L185.80,561.47L161.43,576.79L148.97,565.75Z"><title>大津市</title></path>
<path data-code="25202" data-name="彦根市" d="M269.00,320.46L265.61,311.58L287.14,313.60L304.25,304.83L301.85,245.09L336.07,256.97L339.54,280.90L355.24,286.44L362.68,283.10L365.43,287.54L387.10,282.00L399.31,297.20L402.39,284.78L412.28,292.71L415.29,301.12L414.89,305.16L408.08,308.08L398.21,305.53L386.85,312.69L383.33,320.79L371.55,325.20L370.96,334.03L361.93,331.41L358.92,340.16L351.40,343.46L345.00,339.16L339.58,356.22L327.07,352.81L325.93,358.58L311.45,348.45L281.49,340.60L269.00,320.46Z"><title>彦根市</title></path>
<path data-code="25203" data-name="長浜市" d="M271.76,208.10L284.74,188.91L283.56,177.65L270.01,170.39L275.30,156.34L274.22,143.50L279.96,116.53L277.76,108.54L282.01,90.43L313.30,101.75L311.82,90.11L318.02,81.55L308.18,60.85L302.75,37.48L294.13,31.58L302.87,11.21L325.63,8.00L329.65,16.72L337.65,22.21L349.74,21.65L374.06,34.77L373.20,42.21L377.05,48.19L374.85,53.01L380.10,64.03L385.60,66.16L395.30,62.09L399.72,66.82L394.87,74.06L400.16,88.95L395.76,112.84L398.94,116.21L407.35,112.16L412.89,127.26L404.77,167.49L411.13,171.19L421.67,204.45L418.07,214.53L404.98,212.36L407.46,229.03L400.26,251.61L392.70,254.25L389.72,247.72L384.48,246.04L358.79,247.38L336.07,256.97L299.91,244.03L273.79,219.90L271.76,208.10Z"><title>長浜市</title></path>
<path data-code="25204" data-name="近江八幡市" d="M218.83,360.75L216.51,358.55L227.94,330.45L262.93,310.19L274.46,345.20L273.69,354.30L281.67,362.00L291.34,363.31L296.73,381.96L312.88,390.00L321.10,402.77L313.79,407.83L310.31,416.79L300.89,412.08L289.00,418.47L288.97,423.19L300.40,436.06L296.82,438.00L287.08,425.90L276.60,427.94L273.76,422.23L262.40,425.74L256.02,415.96L237.68,410.72L232.78,395.72L223.29,392.29L218.83,360.75Z"><title>近江八幡市</title></path>
<path data-code="25206" data-name="草津市" d="M169.56,491.70L164.57,493.95L156.21,464.54L175.93,428.41L185.79,433.39L190.03,445.64L198.87,451.19L195.71,457.26L199.28,459.56L197.05,463.04L203.46,467.25L202.33,478.05L213.32,483.26L218.42,490.71L216.56,496.27L213.57,494.56L211.95,503.67L203.96,498.28L200.38,500.28L201.52,504.70L192.86,508.10L185.18,493.91L169.56,491.70Z"><title>草津市</title></path>
<path data-code="25207" data-name="守山市" d="M185.79,433.39L175.93,428.41L185.44,394.60L196.09,387.97L200.72,399.16L215.25,408.20L214.01,412.98L220.72,418.13L219.73,426.85L224.25,429.69L224.53,435.73L217.02,445.50L227.75,454.04L220.91,456.00L215.99,463.47L211.03,462.69L190.31,445.97L185.79,433.39Z"><title>守山市</title></path>
<path data-code="25208" data-name="栗東市" d="M218.83,504.16L212.77,501.66L213.57,494.56L216.56,496.27L218.40,490.61L213.32,483.26L202.33,478.05L203.46,467.25L197.05,463.04L198.06,454.03L215.05,463.48L227.75,454.04L240.56,470.81L240.36,490.13L244.76,492.20L242.55,498.56L253.06,513.24L246.12,517.21L243.00,526.16L242.01,515.26L241.37,526.32L234.38,529.82L227.89,527.63L219.40,516.25L226.63,511.94L223.25,503.40L218.83,504.16Z"><title>栗東市</title></path>
<path data-code="25209" data-name="甲賀市" d="M217.23,551.29L224.45,543.41L229.87,545.70L241.96,541.43L242.46,536.02L237.33,530.99L244.64,525.40L246.49,516.76L253.06,513.24L258.03,512.22L267.14,520.40L270.98,517.90L282.31,524.51L292.57,513.76L287.29,491.49L296.58,486.69L298.19,471.68L304.62,475.52L310.29,467.73L315.61,477.34L317.52,474.10L321.04,479.26L320.39,487.02L339.22,498.56L341.80,510.11L346.37,508.95L357.68,518.53L374.03,512.74L387.19,499.92L399.52,504.02L406.78,499.91L411.87,482.95L409.83,478.02L417.18,472.69L428.13,478.39L435.62,473.35L444.49,479.25L452.86,477.07L451.21,502.04L439.65,521.81L434.37,521.12L427.12,528.23L428.54,540.38L424.39,542.16L423.40,553.80L393.88,566.06L393.71,570.41L382.54,577.47L373.70,574.80L358.93,586.08L329.53,577.77L318.72,570.96L318.62,565.96L301.51,569.56L295.30,565.09L292.16,568.71L280.78,555.88L273.62,564.50L267.72,563.57L266.68,572.72L276.49,577.89L288.12,575.98L289.48,583.25L278.67,589.61L277.22,597.81L266.92,599.85L272.03,612.51L269.47,617.21L253.79,625.75L244.94,624.59L234.62,632.00L225.12,628.41L227.24,619.32L235.06,613.68L228.67,606.14L221.90,607.51L221.31,595.46L201.99,599.73L203.06,593.90L197.26,588.18L189.06,590.40L185.82,581.86L187.11,572.08L198.73,570.97L202.87,561.31L204.76,565.04L211.70,564.24L214.97,550.64L217.23,551.29Z"><title>甲賀市</title></path>
<path data-code="25210" data-name="野洲市" d="M217.23,444.08L224.53,435.73L224.25,429.69L219.73,426.85L220.72,418.13L214.01,412.98L215.25,408.20L200.72,399.16L196.09,387.97L203.50,364.87L216.51,358.55L219.43,361.31L223.29,392.29L232.78,395.72L237.81,410.81L256.12,416.07L262.40,425.74L263.72,442.99L259.72,452.93L249.70,450.42L247.45,467.03L241.88,471.37L217.23,444.08Z"><title>野洲市</title></path>
<path data-code="25211" data-name="湖南市" d="M240.95,490.72L239.41,472.48L247.45,467.03L250.31,449.88L262.81,454.48L266.76,467.83L275.33,473.96L281.83,469.81L286.99,473.95L285.00,463.88L287.94,463.25L298.29,471.58L296.58,486.69L287.25,491.60L292.57,513.76L280.58,525.21L258.03,512.22L253.06,513.24L242.69,498.97L244.72,491.74L240.95,490.72Z"><title>湖南市</title></path>
<path data-code="25212" data-name="高島市" d="M148.97,295.32L142.93,296.67L139.71,290.79L128.27,300.79L123.61,299.34L112.25,272.17L102.10,267.32L96.34,255.66L86.86,252.67L95.30,233.21L101.96,229.34L101.97,224.13L111.26,225.00L114.44,206.10L136.79,207.09L137.42,214.45L143.21,218.82L157.67,212.81L159.02,201.40L170.86,193.01L168.41,182.79L171.85,166.46L185.10,132.49L189.22,132.54L192.21,142.29L203.52,146.42L208.46,155.76L223.80,150.76L227.29,138.58L234.95,130.52L233.66,126.37L246.00,122.93L257.64,128.58L265.16,118.78L277.86,126.83L274.78,159.66L270.01,170.39L283.56,177.65L284.74,188.91L271.76,208.10L273.79,219.90L301.85,245.09L304.25,304.83L287.14,313.60L258.61,311.13L227.94,330.45L209.72,302.37L194.54,298.71L178.53,311.97L168.47,307.80L165.51,299.68L148.97,295.32Z"><title>高島市</title></path>
<path data-code="25213" data-name="東近江市" d="M297.26,431.81L288.97,423.19L289.00,418.47L300.89,412.08L310.31,416.79L321.01,401.75L312.88,390.00L296.73,381.96L291.34,363.31L281.67,362.00L273.69,354.30L274.46,345.20L269.43,337.03L266.46,316.37L281.49,340.60L311.45,348.45L326.12,358.70L333.13,378.17L332.99,387.40L338.62,389.65L345.69,390.51L349.19,379.46L356.78,385.38L363.45,379.77L376.27,384.39L388.48,380.79L398.49,388.65L397.07,393.86L405.29,390.56L417.08,399.00L437.45,385.43L428.12,367.44L436.28,354.04L444.38,360.41L456.05,362.45L472.86,377.54L473.14,384.37L467.14,386.58L462.27,399.22L469.24,404.05L464.72,408.90L465.91,429.88L462.09,432.27L465.60,443.34L452.31,454.86L452.41,467.74L456.06,468.59L446.77,479.22L435.62,473.35L428.23,478.39L417.34,472.69L410.24,477.37L404.44,466.45L384.20,449.52L372.84,449.07L371.37,445.56L366.69,448.99L352.00,441.23L338.74,447.80L338.55,460.61L342.04,463.03L330.67,472.27L321.81,471.56L319.81,477.47L317.52,474.10L315.69,477.40L311.17,468.13L305.27,467.66L302.16,454.70L304.37,451.85L299.33,447.35L303.42,443.46L302.54,439.04L297.26,431.81Z"><title>東近江市</title></path>
<path data-code="25214" data-name="米原市" d="M339.54,280.90L336.07,256.97L344.99,250.61L384.48,246.04L389.72,247.72L392.70,254.25L400.49,251.21L407.46,229.03L404.98,212.36L418.07,214.53L421.67,204.45L411.13,171.19L404.77,167.38L407.95,162.54L405.90,157.73L413.13,131.01L412.38,121.13L418.16,119.24L421.50,106.35L427.45,105.75L432.61,122.49L442.05,125.15L445.55,137.34L439.08,142.22L435.05,154.49L441.27,159.60L443.29,167.07L453.76,169.66L457.04,181.49L448.98,202.26L467.17,222.22L462.77,229.48L449.07,235.47L448.28,247.46L454.35,246.52L454.86,250.30L446.13,279.98L437.59,292.37L429.57,291.86L415.29,301.12L412.28,292.71L402.39,284.78L399.31,297.20L387.10,282.00L365.43,287.54L362.68,283.10L355.24,286.44L339.54,280.90Z"><title>米原市</title></path>
<path data-code="25383" data-name="日野町" d="M358.55,518.39L351.73,516.57L346.37,508.95L341.80,510.11L339.22,498.56L330.66,496.32L320.23,486.76L321.78,471.59L328.78,473.30L342.04,463.03L338.55,460.61L338.74,447.80L349.86,441.52L358.85,442.13L366.69,448.99L371.37,445.56L372.84,449.07L384.26,449.56L405.30,467.39L411.88,482.83L406.78,499.91L399.52,504.02L387.19,499.92L374.03,512.74L358.55,518.39Z"><title>日野町</title></path>
<path data-code="25384" data-name="竜王町" d="M287.93,471.61L285.86,474.33L280.21,470.00L275.33,473.96L266.76,467.83L259.72,452.93L263.37,447.09L262.49,424.96L273.76,422.23L276.60,427.94L287.08,425.90L294.04,431.20L294.83,437.50L302.36,438.60L303.42,443.46L299.33,447.35L304.37,451.85L302.69,458.13L306.16,469.15L310.23,467.76L308.84,471.95L303.04,475.14L291.23,464.49L285.00,463.88L287.93,471.61Z"><title>竜王町</title></path>
<path data-code="25425" data-name="愛荘町" d="M330.23,375.60L326.94,352.94L339.58,356.22L344.65,366.21L350.05,368.04L347.20,354.06L372.39,365.69L381.69,363.97L383.81,374.15L394.08,382.81L401.90,383.04L406.54,390.28L397.07,393.86L398.49,388.65L388.48,380.79L376.27,384.39L363.45,379.77L356.78,385.38L349.19,379.46L345.69,390.51L338.62,389.65L332.99,387.40L330.23,375.60Z"><title>愛荘町</title></path>
<path data-code="25441" data-name="豊郷町" d="M358.55,358.58L347.20,354.06L351.54,365.68L344.65,366.21L338.14,353.85L345.00,339.16L355.74,345.54L354.70,353.56L362.03,355.36L362.03,359.78L358.55,358.58Z"><title>豊郷町</title></path>
<path data-code="25442" data-name="甲良町" d="M353.89,344.39L352.21,341.87L358.92,340.16L361.93,331.41L380.42,351.97L381.17,363.77L372.39,365.69L362.03,359.78L361.87,355.22L354.70,353.56L353.89,344.39Z"><title>甲良町</title></path>
<path data-code="25443" data-name="多賀町" d="M385.15,374.79L379.81,360.42L380.42,351.97L362.84,332.43L370.96,334.03L372.29,324.28L379.68,323.69L386.30,313.19L397.40,305.79L407.93,308.13L429.40,291.93L438.51,292.86L440.68,312.34L429.69,322.31L451.08,339.94L452.44,349.27L447.22,360.62L436.28,354.04L429.22,361.42L428.92,372.71L437.45,383.53L435.50,388.99L414.84,398.44L409.25,395.61L402.29,383.33L394.08,382.81L385.15,374.79Z"><title>多賀町</title></path>
  </g>
</svg>
