<?xml version="1.0" encoding="UTF-8"?>
<svg xmlns="http://www.w3.org/2000/svg" viewBox="0 0 560 640" class="pref-muni-svg" role="img" aria-label="自治体境界図">
  <g class="pref-muni-svg__paths" fill="#eaf2fb" stroke="#5b7fa8" stroke-width="0.6" stroke-linejoin="round">
<path data-code="22100" data-name="静岡市" d="M255.93,369.71L248.74,364.29L244.76,365.59L244.82,360.94L240.09,363.50L236.19,359.27L240.03,343.22L243.04,339.42L236.27,330.39L237.75,324.35L234.73,313.71L242.96,310.66L246.70,304.90L249.94,304.63L252.64,297.83L244.71,287.46L241.07,287.79L239.72,293.27L237.72,294.06L236.58,290.34L234.72,291.80L235.01,282.31L240.70,277.10L238.68,276.22L240.82,273.48L239.33,270.83L234.69,269.53L232.86,265.51L222.62,266.94L219.92,261.84L219.81,256.09L212.32,249.18L207.58,248.30L202.55,240.17L204.00,235.02L206.83,234.26L206.28,229.56L213.79,224.00L221.15,222.72L224.79,212.87L222.22,208.44L219.11,207.74L220.72,201.95L214.45,198.83L214.71,189.18L226.18,187.37L226.66,176.88L228.66,174.24L220.63,171.27L222.81,164.50L220.24,163.08L226.99,154.17L225.32,150.84L221.23,150.22L227.83,139.97L230.64,139.53L234.94,143.18L236.59,141.74L241.89,129.47L241.03,120.12L249.02,114.71L248.99,122.11L251.74,124.42L251.18,129.78L253.79,133.69L252.89,141.98L254.55,147.70L258.98,151.07L258.28,159.68L262.00,166.17L259.18,169.49L257.59,183.88L254.01,187.90L258.89,198.27L258.52,207.90L254.81,210.84L250.19,222.06L256.30,224.95L258.21,234.64L255.53,237.52L257.46,242.12L266.06,247.96L280.17,239.08L293.48,246.08L295.08,250.19L293.33,261.51L299.44,270.87L304.53,297.04L304.78,303.64L302.47,309.31L303.12,327.91L304.97,332.08L309.01,330.44L315.46,337.10L313.73,343.57L315.13,354.09L312.68,361.28L315.52,364.64L309.89,372.09L294.60,383.82L290.21,378.57L286.91,382.50L275.90,382.57L269.36,386.75L266.68,379.72L261.57,377.36L259.27,370.15L255.93,369.71Z"><title>静岡市</title></path>
<path data-code="22100" data-name="静岡市" d="M291.16,399.62L286.26,406.14L280.27,397.29L277.99,398.49L276.49,393.90L270.16,391.59L269.36,386.75L275.90,382.57L286.91,382.50L290.21,378.57L294.60,383.82L309.89,372.09L315.54,364.58L314.97,367.56L319.28,368.55L321.56,376.28L327.13,378.56L327.56,382.09L308.54,389.42L302.49,394.91L294.90,398.07L293.86,396.34L294.67,398.46L291.16,399.62Z"><title>静岡市</title></path>
<path data-code="22100" data-name="静岡市" d="M315.87,368.04L315.35,363.23L312.68,361.28L315.13,354.09L313.73,343.57L315.46,337.10L309.01,330.44L304.97,332.08L303.12,327.91L302.47,309.31L304.82,303.24L303.44,288.83L309.73,289.19L313.80,296.62L328.75,297.49L333.10,301.28L340.72,289.64L342.98,289.26L341.68,295.05L348.14,307.81L354.50,304.83L361.62,310.96L367.70,310.99L371.36,316.66L377.33,314.84L380.08,321.55L361.18,323.30L354.12,327.25L348.61,342.09L341.91,348.44L343.39,350.39L340.87,352.21L339.36,350.18L339.41,353.23L338.51,349.71L338.52,353.99L333.90,354.71L335.53,356.64L334.91,360.31L332.90,358.34L335.01,368.54L338.42,371.02L334.53,369.86L336.75,372.52L339.50,369.89L336.17,366.18L337.98,365.70L337.11,361.04L341.48,363.96L340.86,358.89L346.48,361.67L344.33,369.04L338.20,375.83L327.69,381.97L326.82,377.86L321.56,376.28L319.28,368.55L315.87,368.04Z"><title>静岡市</title></path>
<path data-code="22130" data-name="浜松市" d="M76.66,482.69L79.25,477.34L76.50,475.80L76.65,471.57L80.88,465.22L76.36,463.34L77.84,458.70L73.94,456.35L79.79,451.67L92.08,465.42L96.41,466.82L97.57,474.98L96.21,477.35L99.84,482.86L97.70,483.58L97.59,487.19L94.35,485.27L90.99,486.69L90.37,491.38L88.21,491.92L84.89,490.39L85.76,487.04L76.66,482.69Z"><title>浜松市</title></path>
<path data-code="22130" data-name="浜松市" d="M96.16,466.52L90.87,463.19L91.92,453.02L100.67,454.62L104.28,452.02L109.19,455.66L114.24,450.52L115.74,453.73L119.38,454.97L113.07,478.11L104.54,479.73L106.64,476.20L97.53,481.81L96.16,466.52Z"><title>浜松市</title></path>
<path data-code="22130" data-name="浜松市" d="M56.22,493.88L47.81,494.01L47.77,487.33L40.53,481.11L37.33,468.44L45.36,457.44L54.98,452.49L65.40,453.81L73.86,449.73L79.58,451.44L73.94,456.35L77.84,458.70L76.36,463.34L80.88,465.22L76.28,473.81L79.24,476.63L76.68,483.02L80.44,483.95L80.22,486.12L71.76,486.43L72.76,496.04L56.22,493.88Z"><title>浜松市</title></path>
<path data-code="22130" data-name="浜松市" d="M109.20,503.80L111.70,505.23L72.79,496.05L71.37,487.00L82.71,485.78L85.88,487.15L84.89,490.39L88.21,491.92L90.37,491.38L91.05,486.66L94.35,485.27L97.59,487.19L97.70,483.58L99.84,482.86L98.16,482.02L106.64,476.20L104.54,479.73L113.07,478.11L108.16,495.99L109.20,503.80Z"><title>浜松市</title></path>
<path data-code="22130" data-name="浜松市" d="M37.58,468.20L32.46,465.09L30.68,460.18L31.68,457.23L29.74,455.60L24.37,457.79L15.41,452.21L12.12,440.61L16.68,436.34L17.13,432.11L25.79,428.17L29.78,428.77L32.76,424.93L44.15,425.83L47.41,416.89L53.42,415.76L61.41,408.83L61.18,404.19L67.17,388.80L72.43,388.39L76.83,383.97L78.47,378.68L81.53,378.80L83.11,383.72L81.12,393.95L84.94,395.66L85.64,403.09L94.92,407.46L92.81,416.61L95.23,419.20L90.00,426.92L100.02,432.09L93.23,445.45L90.87,463.19L79.58,451.44L73.86,449.73L65.40,453.81L54.98,452.49L46.31,456.69L37.58,468.20Z"><title>浜松市</title></path>
<path data-code="22130" data-name="浜松市" d="M93.50,452.62L93.23,445.45L100.02,432.09L90.00,426.89L95.23,419.20L92.83,417.10L94.76,408.29L95.99,414.08L100.75,415.94L101.76,422.24L106.04,426.39L109.78,422.92L112.72,423.57L114.86,429.47L115.44,423.82L119.91,423.70L119.53,444.48L121.70,449.16L119.38,454.97L115.74,453.73L114.24,450.52L109.19,455.66L104.28,452.02L100.67,454.62L93.50,452.62Z"><title>浜松市</title></path>
<path data-code="22130" data-name="浜松市" d="M85.51,402.94L84.94,395.66L81.15,393.99L80.43,391.12L83.11,383.72L80.13,373.17L82.78,369.23L80.73,367.47L81.01,363.41L86.03,352.90L104.32,336.74L105.19,328.14L109.79,329.81L112.49,325.72L109.94,314.24L114.01,315.84L116.91,312.15L116.82,307.53L119.12,309.24L121.40,307.70L118.94,305.17L120.28,301.35L113.41,294.92L117.17,293.88L119.16,287.47L122.06,286.86L120.99,284.54L124.03,284.34L126.49,280.72L136.54,280.51L139.26,274.77L138.49,270.14L142.63,266.28L149.87,267.79L153.44,259.45L165.49,256.57L167.63,252.51L170.41,252.84L173.52,249.20L182.04,249.45L179.95,254.29L180.62,260.14L176.19,264.95L180.23,265.94L179.98,272.62L187.57,277.90L187.66,284.65L176.23,302.05L175.83,309.96L178.08,311.23L179.66,317.13L185.18,316.59L194.80,325.99L191.95,328.72L190.48,338.69L188.31,340.78L191.17,351.82L180.32,358.18L184.26,360.28L187.48,367.53L179.74,374.40L176.80,380.90L170.09,379.93L172.11,381.93L166.72,383.13L164.07,387.38L156.33,387.59L149.73,395.45L146.51,394.85L145.03,398.78L146.47,403.43L150.23,405.55L149.73,409.52L146.11,409.65L142.95,413.15L132.00,414.52L129.17,418.81L115.54,423.75L114.88,429.47L112.72,423.57L109.78,422.92L106.04,426.39L101.89,422.41L102.30,418.12L96.36,414.66L94.47,406.01L85.51,402.94Z"><title>浜松市</title></path>
<path data-code="22203" data-name="沼津市" d="M425.51,390.84L420.80,385.83L419.59,377.99L421.21,375.77L420.30,377.86L424.39,378.38L421.72,373.89L427.59,355.29L427.73,357.84L435.16,359.57L440.94,357.84L446.05,361.52L456.50,356.17L456.78,359.44L458.82,357.15L460.88,360.42L463.17,357.73L461.11,354.54L462.81,349.93L465.97,348.12L461.00,346.87L459.17,349.02L455.24,339.99L448.19,336.31L449.96,334.33L447.95,335.82L446.13,330.13L440.12,324.96L416.51,315.69L417.72,312.26L422.30,311.32L424.73,302.75L419.82,301.95L422.28,293.76L435.40,281.41L441.72,288.35L444.65,296.02L451.05,301.94L454.12,309.71L460.87,314.32L458.50,328.97L459.95,336.38L468.63,334.50L469.78,335.35L468.11,336.79L471.41,337.96L465.62,343.86L467.38,352.49L464.52,354.66L467.43,357.37L464.49,361.77L466.12,363.98L460.45,365.58L455.94,371.38L443.51,377.44L443.66,389.16L438.83,386.92L431.77,387.53L425.51,390.84Z"><title>沼津市</title></path>
<path data-code="22205" data-name="熱海市" d="M513.12,355.33L507.75,353.54L506.19,348.62L506.24,344.58L508.43,343.28L505.65,340.70L504.49,335.18L506.51,333.82L506.53,321.27L509.89,318.73L505.31,308.56L531.25,311.84L530.49,316.16L520.13,328.88L519.47,331.20L521.63,330.24L521.80,333.52L519.30,336.33L521.04,339.98L517.76,345.95L519.26,348.79L527.40,349.06L527.07,354.78L524.33,352.67L518.32,357.35L513.12,355.33ZM548.66,350.80L552.00,351.62L549.22,352.78L548.66,350.80Z"><title>熱海市</title></path>
<path data-code="22206" data-name="三島市" d="M471.22,337.12L465.58,333.56L468.61,330.68L465.04,321.67L467.31,316.33L465.36,308.99L466.58,305.62L471.08,300.19L479.34,300.16L496.10,292.91L500.00,295.82L492.48,311.17L480.81,324.23L478.14,331.97L474.46,331.47L475.01,333.74L471.22,337.12Z"><title>三島市</title></path>
<path data-code="22207" data-name="富士宮市" d="M344.03,302.18L341.73,292.87L342.98,289.26L346.40,288.66L344.56,282.37L346.13,279.79L340.37,264.62L342.76,256.19L339.69,244.50L347.03,237.92L344.82,218.98L347.27,214.75L345.97,207.15L352.76,201.78L354.64,197.45L361.98,192.93L366.92,198.02L370.69,213.46L388.09,211.49L390.52,213.60L393.50,227.33L409.56,225.33L413.21,238.85L408.81,251.73L404.75,256.00L405.39,259.54L401.56,259.34L386.63,272.88L388.31,285.01L384.23,285.33L384.87,282.36L382.53,282.21L377.73,286.39L382.03,295.03L378.06,291.55L372.69,297.01L368.52,291.86L365.85,293.06L360.30,290.51L354.47,294.92L353.64,306.37L348.14,307.81L347.36,304.24L344.03,302.18Z"><title>富士宮市</title></path>
<path data-code="22208" data-name="伊東市" d="M535.53,415.61L528.28,418.03L526.90,422.71L519.15,425.04L506.63,412.57L514.13,402.52L509.45,394.67L509.68,390.75L513.96,383.54L512.48,379.40L517.55,374.91L517.36,372.87L512.48,374.21L507.67,370.46L507.93,365.09L510.87,361.53L508.80,358.74L512.17,355.05L518.32,357.35L524.33,352.67L527.07,354.78L527.53,363.60L523.15,363.98L522.09,366.69L526.19,372.40L525.55,375.70L529.36,378.88L528.82,377.30L536.65,379.21L538.05,385.80L542.48,384.58L541.37,390.22L542.90,394.27L537.70,406.74L540.57,409.69L535.53,415.61Z"><title>伊東市</title></path>
<path data-code="22209" data-name="島田市" d="M208.00,440.50L205.91,429.81L198.55,428.17L198.46,422.84L191.16,421.84L190.56,413.42L194.53,403.56L191.04,401.42L187.77,393.78L179.90,390.33L181.26,387.41L179.72,374.44L187.54,367.47L193.74,366.64L198.89,368.32L199.48,373.63L203.84,375.57L202.33,377.78L207.65,374.36L208.97,376.25L209.16,369.40L214.19,366.90L216.49,356.79L220.55,352.92L223.87,343.20L227.34,344.10L227.51,348.99L228.74,345.49L231.49,345.83L231.39,342.35L235.10,342.00L239.79,347.47L234.85,362.18L236.60,366.88L234.13,374.73L228.82,377.43L227.34,381.12L224.77,397.53L229.04,400.80L228.07,405.45L239.70,413.84L239.73,418.32L243.33,421.63L242.81,425.14L246.70,427.65L243.96,430.50L250.58,429.58L245.84,435.54L256.19,444.11L250.73,444.28L252.74,448.19L248.44,450.79L226.75,444.57L222.99,448.77L217.51,442.31L215.24,447.97L211.04,440.73L208.00,440.50Z"><title>島田市</title></path>
<path data-code="22210" data-name="富士市" d="M375.76,315.18L371.39,316.67L367.65,310.96L356.22,308.01L354.27,304.36L354.47,294.92L360.39,290.50L365.85,293.06L368.52,291.86L372.69,297.01L378.06,291.55L382.03,295.03L377.74,286.37L382.53,282.21L384.87,282.36L384.23,285.33L388.31,285.01L386.63,272.88L401.56,259.34L405.39,259.54L404.75,256.00L408.83,251.68L413.22,238.78L409.99,226.77L415.43,237.40L418.61,251.57L428.27,269.26L430.30,278.08L435.40,281.41L422.28,293.76L419.82,301.95L424.73,302.75L422.30,311.32L417.72,312.26L416.51,315.69L399.69,314.19L398.24,312.64L399.91,311.22L395.12,310.43L399.09,314.54L380.08,321.55L377.33,314.84L375.76,315.18Z"><title>富士市</title></path>
<path data-code="22211" data-name="磐田市" d="M108.05,501.33L110.64,484.90L112.27,485.20L114.01,472.47L121.70,449.16L119.71,446.65L119.36,423.16L129.17,418.81L131.83,414.60L142.95,413.15L147.03,409.62L147.00,413.09L137.57,423.61L139.19,428.12L135.42,430.57L136.53,432.40L134.25,438.88L128.06,441.89L132.65,453.38L139.80,455.19L139.76,464.51L143.28,465.79L144.75,470.35L145.28,480.31L142.28,486.68L147.72,488.29L146.24,493.23L147.70,498.39L143.95,497.08L146.49,499.89L143.97,497.53L112.20,505.26L108.05,501.33Z"><title>磐田市</title></path>
<path data-code="22212" data-name="焼津市" d="M251.70,439.02L266.62,434.42L263.84,430.13L266.93,428.48L264.80,423.32L265.93,420.64L264.20,419.91L270.64,414.57L268.97,413.85L271.23,409.57L269.67,407.51L271.73,408.06L275.77,403.46L278.73,404.24L280.69,400.93L276.29,400.18L280.27,397.29L285.74,403.17L284.77,404.41L287.40,407.91L281.90,416.31L282.71,418.68L280.37,418.02L281.06,416.46L279.53,418.17L281.31,419.09L279.82,427.19L282.02,424.12L284.00,433.92L272.50,453.47L268.29,452.53L273.74,453.91L270.17,457.86L251.70,439.02Z"><title>焼津市</title></path>
<path data-code="22213" data-name="掛川市" d="M201.35,504.71L201.05,506.79L166.51,497.80L160.87,488.94L171.40,480.83L169.01,480.26L171.12,477.32L168.28,478.14L169.24,475.20L179.12,469.71L176.16,466.56L171.51,467.41L162.42,462.43L164.08,458.70L156.05,449.04L158.41,441.35L157.19,437.07L162.77,428.40L163.85,421.21L178.44,404.94L179.44,400.79L186.13,401.41L188.63,398.26L194.54,403.60L190.56,413.42L191.17,421.86L198.46,422.84L198.55,428.17L205.82,429.72L208.77,438.47L200.15,453.08L196.18,457.10L193.27,456.96L192.43,459.89L195.82,466.44L189.96,469.97L201.15,483.34L197.40,486.17L199.04,489.82L198.00,493.31L200.90,491.63L203.80,494.87L201.35,504.71Z"><title>掛川市</title></path>
<path data-code="22214" data-name="藤枝市" d="M255.93,437.91L251.70,439.02L245.84,435.54L250.58,429.58L243.96,430.50L246.70,427.65L242.81,425.14L243.33,421.63L239.73,418.32L239.70,413.84L228.07,405.45L229.04,400.80L224.77,397.53L227.34,381.12L228.82,377.43L234.14,374.71L236.66,366.18L234.85,362.18L236.36,361.03L242.75,363.70L244.82,360.94L244.76,365.59L248.74,364.29L255.17,369.65L259.25,370.14L261.61,377.41L266.68,379.72L269.91,391.28L276.80,394.24L278.00,398.54L276.24,400.24L280.69,400.92L278.73,404.24L275.77,403.46L271.73,408.06L269.67,407.51L271.23,409.57L268.97,413.85L270.64,414.57L264.20,419.91L265.93,420.64L264.80,423.32L266.93,428.48L263.84,430.13L266.62,434.42L255.93,437.91Z"><title>藤枝市</title></path>
<path data-code="22215" data-name="御殿場市" d="M487.43,269.86L487.94,275.04L473.74,279.71L471.47,283.14L471.70,280.81L469.13,281.56L462.63,275.50L462.93,270.58L458.71,267.84L455.55,257.73L435.56,263.80L430.40,259.10L431.81,256.12L430.53,253.33L424.63,249.97L423.22,243.89L413.04,234.35L409.85,226.37L448.61,230.99L458.55,237.13L457.28,235.07L459.23,233.37L460.00,225.66L461.34,228.51L465.26,228.65L460.10,230.86L461.19,231.83L467.92,231.70L486.41,238.11L484.59,245.60L493.41,255.77L487.75,264.02L487.43,269.86Z"><title>御殿場市</title></path>
<path data-code="22216" data-name="袋井市" d="M166.33,497.28L147.90,497.36L146.24,493.23L147.50,487.83L142.28,486.68L145.28,480.31L144.75,470.35L143.28,465.79L139.76,464.51L139.80,455.19L132.65,453.38L128.49,440.75L135.32,436.46L137.43,439.88L141.16,439.88L139.09,451.34L145.37,446.42L150.61,446.37L156.47,436.53L158.41,441.35L156.06,449.06L164.08,458.70L162.42,462.43L178.58,468.42L178.03,471.13L168.81,475.83L168.28,478.14L171.12,477.31L169.01,480.26L171.40,480.83L160.87,488.94L166.33,497.28Z"><title>袋井市</title></path>
<path data-code="22219" data-name="下田市" d="M477.18,497.28L469.38,502.89L465.17,511.91L460.71,503.79L464.68,496.01L459.07,494.23L458.45,491.89L462.37,488.22L461.11,484.41L449.66,482.54L446.43,478.40L450.61,469.56L459.83,464.52L462.47,455.42L477.77,458.20L476.46,463.87L482.46,466.58L484.45,475.40L493.29,477.30L488.94,480.75L487.05,488.14L489.65,491.58L486.87,494.31L488.57,496.90L491.04,496.34L491.58,500.59L489.57,499.25L488.21,502.63L485.16,501.10L482.18,502.71L481.18,497.73L484.13,494.90L482.24,493.31L479.05,494.49L481.06,496.29L477.18,497.28Z"><title>下田市</title></path>
<path data-code="22220" data-name="裾野市" d="M465.43,308.58L463.15,307.82L464.44,304.09L454.40,296.57L451.84,290.70L430.37,278.22L428.19,269.08L418.46,251.22L415.53,237.75L423.22,243.89L424.63,249.97L430.53,253.33L431.81,256.12L430.40,259.10L435.56,263.80L442.85,263.15L453.38,256.78L455.56,257.74L458.71,267.84L462.93,270.58L462.63,275.50L469.13,281.56L471.70,280.81L470.65,282.99L475.74,278.77L489.04,275.95L491.64,288.56L496.10,292.91L479.34,300.16L471.05,300.20L465.43,308.58Z"><title>裾野市</title></path>
<path data-code="22221" data-name="湖西市" d="M16.27,493.92L11.47,494.38L13.65,483.30L8.00,464.75L8.83,455.05L14.02,450.33L20.10,456.50L31.59,457.00L31.66,463.68L37.48,468.67L40.53,481.11L47.82,487.89L47.10,493.38L16.27,493.92Z"><title>湖西市</title></path>
<path data-code="22222" data-name="伊豆市" d="M480.54,432.17L470.48,434.89L461.36,431.52L459.36,426.65L454.08,426.41L451.97,422.63L444.38,419.71L441.49,412.81L435.35,416.45L424.96,417.52L423.48,419.29L424.94,421.92L418.45,421.16L416.60,418.49L418.36,417.48L417.82,411.79L428.41,402.99L424.02,390.82L436.81,387.08L443.66,389.16L443.51,377.44L455.94,371.38L460.45,365.58L466.70,364.04L466.03,367.14L468.71,370.48L471.18,370.05L469.92,369.12L471.73,366.68L475.97,371.19L483.82,365.81L490.52,365.73L494.08,362.05L500.10,361.73L502.96,365.56L506.72,362.88L505.83,360.76L510.67,361.87L507.93,365.09L507.73,370.66L512.48,374.21L517.58,373.43L516.72,376.96L512.48,379.40L513.96,383.54L509.68,390.75L509.45,394.67L514.13,402.52L507.00,411.25L502.24,421.75L495.57,420.46L488.13,422.78L483.37,425.38L484.81,428.91L480.54,432.17Z"><title>伊豆市</title></path>
<path data-code="22223" data-name="御前崎市" d="M215.99,512.90L201.23,505.26L202.77,499.52L208.68,500.79L211.77,490.49L219.79,484.03L228.24,487.83L231.45,491.40L230.49,494.58L234.36,496.29L234.40,500.59L229.89,506.25L230.30,514.18L242.86,515.14L246.39,517.71L245.69,519.79L247.96,520.52L247.05,517.65L250.86,522.57L248.43,525.29L237.35,523.03L215.99,512.90ZM242.87,514.83L245.95,512.92L247.34,514.43L246.05,516.19L242.87,514.83Z"><title>御前崎市</title></path>
<path data-code="22224" data-name="菊川市" d="M203.30,499.70L203.39,493.30L200.90,491.63L197.97,493.20L199.04,489.82L197.40,486.17L201.15,483.34L189.96,469.97L195.82,466.44L192.43,459.89L193.27,456.96L196.18,457.10L200.15,453.08L203.35,445.75L209.83,439.90L215.21,447.95L217.32,442.31L220.32,447.34L221.66,454.25L218.20,464.42L221.39,468.17L222.56,485.19L219.22,484.20L212.34,489.76L208.68,500.79L203.30,499.70Z"><title>菊川市</title></path>
<path data-code="22225" data-name="伊豆の国市" d="M470.82,367.06L471.18,370.05L468.71,370.48L464.49,361.77L467.43,357.37L464.52,354.66L467.38,352.49L465.62,343.86L475.42,343.16L475.53,340.37L487.21,335.36L504.58,335.29L505.65,340.70L508.43,343.28L505.90,346.31L507.44,353.13L511.97,355.20L508.80,358.74L510.67,361.87L505.83,360.76L506.72,362.88L502.96,365.56L500.10,361.73L494.08,362.05L490.52,365.73L483.82,365.81L476.88,371.10L470.82,367.06Z"><title>伊豆の国市</title></path>
<path data-code="22226" data-name="牧之原市" d="M242.15,515.38L230.30,514.18L229.89,506.22L234.66,497.27L230.49,494.58L231.45,491.40L228.24,487.83L222.53,485.13L221.39,468.17L218.34,462.10L221.49,455.44L220.37,447.73L223.35,448.74L226.75,444.57L247.50,450.42L251.59,454.60L253.78,460.90L256.43,461.30L253.22,466.50L254.61,468.42L245.48,477.95L244.41,484.61L245.43,483.29L242.29,488.69L243.50,489.58L238.48,498.07L237.94,507.40L242.15,515.38Z"><title>牧之原市</title></path>
<path data-code="22301" data-name="東伊豆町" d="M487.60,432.47L483.46,425.28L495.54,420.47L502.24,421.75L506.63,412.57L519.11,425.01L522.00,424.61L520.14,429.00L520.62,437.57L515.39,444.89L514.21,451.13L508.86,455.40L510.65,455.46L510.35,458.21L503.82,459.17L501.08,456.65L499.67,449.37L487.60,432.47Z"><title>東伊豆町</title></path>
<path data-code="22302" data-name="河津町" d="M495.59,466.39L495.05,472.68L491.92,475.17L493.29,477.30L486.42,476.87L483.76,474.19L482.46,466.58L476.46,463.87L477.77,458.20L457.28,453.72L455.87,451.57L458.11,447.05L458.46,433.87L461.29,431.48L470.61,434.88L484.81,428.89L487.73,431.21L488.04,434.71L498.74,447.84L500.18,455.28L503.82,459.17L502.17,463.15L497.62,463.68L495.59,466.39Z"><title>河津町</title></path>
<path data-code="22304" data-name="南伊豆町" d="M425.79,497.28L417.93,487.55L412.23,488.13L413.06,483.62L424.34,477.90L428.93,478.34L430.01,481.81L435.28,483.63L445.97,480.77L459.25,483.04L462.45,487.94L458.43,491.24L458.93,494.00L464.69,496.05L460.72,503.86L465.16,511.90L460.82,509.70L460.33,513.86L447.35,518.09L446.96,521.67L445.21,519.90L445.55,522.99L439.89,521.06L439.53,517.31L436.15,517.05L434.90,512.40L429.98,514.65L428.42,508.27L424.22,507.69L423.13,501.57L429.13,498.60L428.22,496.07L425.79,497.28Z"><title>南伊豆町</title></path>
<path data-code="22305" data-name="松崎町" d="M412.79,484.05L412.28,473.86L419.41,468.92L417.29,465.94L423.93,462.98L423.09,460.24L432.99,456.25L442.40,447.72L444.47,449.62L443.17,445.20L447.71,445.08L447.51,452.24L456.09,449.60L457.28,453.72L462.47,455.42L459.83,464.52L450.61,469.56L446.42,478.35L448.18,481.24L435.28,483.63L430.01,481.81L428.93,478.34L424.34,477.90L412.79,484.05Z"><title>松崎町</title></path>
<path data-code="22306" data-name="西伊豆町" d="M424.97,459.34L419.91,456.72L422.40,455.32L416.50,444.98L420.81,441.77L417.53,440.55L416.07,437.11L419.09,433.66L421.81,436.23L418.83,428.45L423.82,425.70L423.48,422.92L421.16,422.38L424.97,421.90L423.48,419.29L424.84,417.61L442.28,413.05L444.38,419.71L461.24,429.22L458.46,433.87L458.11,447.05L456.09,449.60L447.51,452.24L447.71,445.08L443.17,445.20L444.47,449.62L442.40,447.72L432.99,456.25L424.97,459.34Z"><title>西伊豆町</title></path>
<path data-code="22325" data-name="函南町" d="M467.81,342.67L470.77,336.30L475.01,333.74L474.46,331.47L478.14,331.97L481.63,323.00L492.48,311.17L500.00,295.82L502.48,295.95L504.89,300.53L504.67,308.18L509.89,318.73L506.53,321.27L506.20,334.25L501.87,336.31L487.21,335.36L475.53,340.37L475.42,343.16L467.81,342.67Z"><title>函南町</title></path>
<path data-code="22341" data-name="清水町" d="M459.84,335.72L458.50,329.09L459.71,321.67L465.67,320.40L468.61,330.68L463.34,336.97L459.84,335.72Z"><title>清水町</title></path>
<path data-code="22342" data-name="長泉町" d="M451.70,305.84L451.05,301.94L444.65,296.02L441.72,288.35L435.46,280.67L451.84,290.70L454.40,296.57L464.44,304.09L463.15,307.82L465.86,309.41L467.28,315.44L465.07,320.60L459.48,322.63L460.87,314.32L455.57,311.44L451.70,305.84Z"><title>長泉町</title></path>
<path data-code="22344" data-name="小山町" d="M458.31,236.96L451.44,231.63L409.56,225.33L431.39,219.92L438.63,220.92L448.04,214.49L451.76,214.65L455.41,218.93L468.54,210.58L494.08,209.50L496.16,211.21L495.14,217.03L497.77,225.88L499.85,226.94L498.18,230.13L498.96,234.81L501.66,238.42L497.06,253.81L493.41,255.77L484.59,245.60L486.41,238.11L467.92,231.70L461.19,231.83L460.10,230.86L465.26,228.65L461.34,228.51L460.00,225.66L459.23,233.37L457.28,235.07L458.31,236.96Z"><title>小山町</title></path>
<path data-code="22424" data-name="吉田町" d="M253.24,466.56L256.38,461.13L253.78,460.90L251.59,454.60L247.50,450.42L252.74,448.19L250.73,444.28L256.18,444.05L270.07,457.94L261.53,465.10L262.89,462.01L254.67,468.47L253.24,466.56Z"><title>吉田町</title></path>
<path data-code="22429" data-name="川根本町" d="M176.04,310.25L175.76,303.15L181.14,292.95L185.18,290.39L187.69,278.25L179.98,272.62L180.23,265.94L176.19,264.78L180.62,260.14L179.97,254.18L184.90,245.35L184.41,241.89L195.64,231.43L204.00,235.02L202.76,240.54L207.58,248.30L212.32,249.18L219.81,256.09L219.92,261.84L222.62,266.94L232.86,265.51L234.69,269.53L239.33,270.83L240.82,273.48L238.68,276.22L240.70,277.10L235.01,282.31L234.72,291.80L236.58,290.34L237.72,294.06L239.72,293.27L241.07,287.79L244.71,287.46L252.68,297.99L249.94,304.63L246.70,304.90L242.96,310.66L234.73,313.71L237.75,324.35L236.27,330.39L243.04,339.39L240.03,343.22L239.97,347.32L235.10,342.00L231.54,342.30L231.49,345.83L228.74,345.49L227.51,348.99L227.34,344.10L223.92,343.15L220.55,352.92L216.49,356.79L214.19,366.90L209.16,369.40L209.14,376.05L207.61,374.37L204.57,377.89L199.48,373.63L198.89,368.32L187.50,367.50L184.26,360.28L180.34,358.25L191.17,351.82L188.31,340.78L190.48,338.69L191.95,328.72L194.80,325.98L185.18,316.59L179.66,317.13L178.08,311.23L176.04,310.25Z"><title>川根本町</title></path>
<path data-code="22461" data-name="森町" d="M135.13,436.32L135.43,430.54L139.19,428.12L138.11,422.65L147.00,413.09L147.03,409.62L150.52,408.77L145.14,399.25L146.51,394.85L149.73,395.45L156.33,387.59L164.07,387.38L166.72,383.13L172.11,381.93L170.09,379.93L176.78,380.92L179.23,376.59L181.26,387.41L179.90,390.33L187.77,393.78L189.64,398.07L186.13,401.41L179.44,400.79L178.44,404.94L163.85,421.21L160.61,432.92L155.39,437.22L150.61,446.37L145.37,446.42L139.04,451.34L141.17,439.90L137.43,439.88L135.13,436.32Z"><title>森町</title></path>
  </g>
</svg>
