<?xml version="1.0" encoding="UTF-8"?>
<svg xmlns="http://www.w3.org/2000/svg" viewBox="0 0 560 640" class="pref-muni-svg" role="img" aria-label="自治体境界図">
  <g class="pref-muni-svg__paths" fill="#eaf2fb" stroke="#5b7fa8" stroke-width="0.6" stroke-linejoin="round">
<path data-code="16201" data-name="富山市" d="M166.54,493.72L160.20,492.99L166.45,476.26L165.21,466.57L168.55,457.02L164.42,449.11L169.69,439.05L161.99,404.50L157.12,402.57L151.64,406.61L149.93,402.94L153.44,397.09L156.21,351.93L164.05,338.14L163.93,323.39L170.27,312.29L162.77,307.07L169.51,299.71L178.86,304.78L173.71,300.67L176.49,301.29L178.73,294.11L182.30,298.18L189.17,281.41L201.05,279.83L203.06,272.51L199.36,264.11L203.82,260.93L202.66,258.20L206.81,253.07L214.28,253.65L217.21,242.63L231.87,238.40L233.13,230.65L240.07,228.34L262.57,226.45L259.82,224.70L299.17,232.38L305.43,229.91L319.42,241.82L317.86,247.35L322.29,252.54L310.25,251.99L312.67,259.29L303.22,265.05L301.39,261.42L293.42,272.12L286.29,273.73L290.41,310.69L309.91,345.56L319.77,354.51L338.68,357.38L374.02,348.60L384.53,357.19L409.20,366.47L413.65,374.31L419.31,376.08L453.56,368.60L492.47,393.21L502.39,388.45L513.68,393.24L519.34,388.41L520.31,394.45L514.22,399.32L504.95,396.79L500.24,400.15L499.19,410.81L491.09,414.64L492.95,434.42L484.47,443.51L482.63,455.38L467.07,461.51L465.58,473.01L458.38,481.83L430.33,480.57L410.28,457.22L393.80,457.43L386.47,466.41L358.59,457.92L350.66,449.94L351.20,440.35L347.77,433.91L332.22,440.63L330.62,449.64L326.59,452.32L305.94,457.68L301.32,450.32L306.17,446.35L307.89,433.31L302.20,431.21L297.77,435.06L287.11,430.40L274.73,439.89L269.65,432.69L246.97,455.93L239.34,437.12L230.19,440.63L221.85,436.28L206.85,451.19L201.24,463.06L195.50,464.26L190.26,475.29L184.80,477.10L186.41,485.67L176.41,485.89L166.54,493.72Z"><title>富山市</title></path>
<path data-code="16202" data-name="高岡市" d="M111.23,294.42L104.20,281.01L92.84,280.47L89.79,276.47L85.68,278.70L84.23,269.53L74.76,271.04L71.91,258.59L58.77,253.63L56.29,247.07L43.44,240.95L53.96,222.51L48.81,213.89L71.16,212.32L76.06,219.69L83.11,215.52L94.00,222.77L107.13,213.99L105.78,210.53L109.05,208.49L113.43,214.58L130.48,205.28L142.92,208.99L144.35,204.09L134.66,195.41L141.13,192.01L143.69,182.14L165.59,201.07L166.19,197.74L172.46,201.05L166.72,212.24L175.21,215.10L174.56,219.85L191.34,222.80L179.75,228.13L162.11,221.92L159.00,243.19L140.55,270.84L155.72,277.29L153.36,285.78L160.74,289.54L158.07,292.82L160.28,297.73L152.37,297.37L146.25,289.02L140.77,288.86L138.63,298.11L128.92,300.01L127.63,290.37L115.98,294.25L115.57,297.82L110.64,297.22L111.23,294.42Z"><title>高岡市</title></path>
<path data-code="16204" data-name="魚津市" d="M366.11,236.31L343.57,201.92L349.45,197.10L348.93,186.04L359.52,169.30L358.54,160.61L374.44,172.03L411.45,185.79L407.66,199.15L411.24,211.14L419.22,217.26L426.54,214.73L432.04,222.34L442.48,225.33L468.80,254.03L466.97,260.90L455.51,271.03L456.27,286.62L446.81,288.97L416.96,284.85L411.72,276.71L414.07,266.21L407.81,256.44L394.85,254.44L391.59,268.24L388.58,265.58L384.22,269.12L366.11,236.31Z"><title>魚津市</title></path>
<path data-code="16205" data-name="氷見市" d="M52.49,196.60L57.98,182.29L56.01,175.05L61.91,167.47L59.26,161.06L67.44,155.43L71.96,144.11L68.35,138.97L68.33,129.75L77.42,117.18L88.37,113.03L96.76,99.54L106.06,96.30L120.16,103.83L127.38,88.16L137.30,92.37L155.12,88.28L162.79,93.70L149.53,106.77L152.36,117.78L148.53,124.35L126.25,149.86L128.18,159.19L130.84,159.09L128.49,159.35L129.66,165.56L143.69,182.14L141.13,192.01L134.66,195.41L144.35,204.09L142.92,208.99L130.48,205.28L113.43,214.58L109.05,208.49L105.78,210.53L107.13,213.99L93.88,222.75L83.19,215.53L77.08,219.97L71.16,212.32L53.32,211.63L52.49,196.60Z"><title>氷見市</title></path>
<path data-code="16206" data-name="滑川市" d="M315.24,239.43L307.34,230.38L316.90,227.75L324.63,215.10L343.55,201.83L376.32,253.50L381.43,270.90L371.24,265.54L373.56,257.51L367.57,251.41L363.93,255.95L356.17,253.88L348.81,258.97L341.98,252.52L343.87,255.43L338.77,252.12L332.32,256.42L331.58,251.27L324.16,249.09L315.24,239.43Z"><title>滑川市</title></path>
<path data-code="16207" data-name="黒部市" d="M476.32,309.45L454.96,277.45L455.51,271.03L467.06,260.71L466.90,249.86L462.10,249.04L454.11,234.75L441.42,224.56L432.04,222.34L426.54,214.73L419.22,217.26L411.24,211.14L407.66,199.15L411.45,185.79L374.44,172.03L358.54,160.61L363.68,147.76L363.45,138.60L361.23,141.07L358.15,135.90L367.57,118.89L382.77,131.94L407.46,140.01L432.53,156.16L428.80,138.42L431.01,138.09L435.96,150.65L452.88,156.24L456.49,166.77L468.55,156.87L472.84,158.39L480.05,167.71L488.42,168.46L488.39,177.37L543.12,224.61L549.76,242.55L545.09,252.19L544.69,267.08L551.17,293.35L546.57,299.09L545.67,319.98L532.56,322.94L509.18,307.83L499.94,314.69L476.32,309.45Z"><title>黒部市</title></path>
<path data-code="16208" data-name="砺波市" d="M134.48,371.21L122.81,361.91L111.86,339.44L83.16,323.01L92.03,310.18L86.45,303.58L89.47,300.57L88.78,290.41L91.82,286.29L100.39,289.67L92.96,280.27L104.20,281.01L111.81,297.57L122.50,290.24L128.87,291.21L127.25,299.67L138.63,298.11L140.77,288.86L146.25,289.02L152.37,297.37L160.28,297.73L164.20,302.93L162.79,307.10L169.70,310.64L163.93,323.39L164.05,338.14L156.21,351.93L154.54,378.57L136.11,376.61L134.48,371.21Z"><title>砺波市</title></path>
<path data-code="16209" data-name="小矢部市" d="M66.16,335.85L56.26,335.45L53.15,347.04L49.44,348.25L42.03,339.91L31.04,337.46L32.70,327.47L24.57,327.80L22.30,335.54L17.54,332.45L16.84,319.03L25.09,313.65L25.45,306.72L38.18,290.84L36.40,281.26L30.63,279.45L33.66,269.96L19.36,258.10L23.01,250.15L36.01,249.42L37.15,242.85L43.44,240.95L56.29,247.07L58.68,253.57L71.91,258.59L74.76,271.04L84.23,269.53L85.68,278.70L91.03,276.68L100.43,289.03L91.82,286.29L88.78,290.41L89.47,300.57L86.45,303.58L92.03,310.18L81.57,320.81L85.54,328.39L80.18,336.86L66.16,335.85Z"><title>小矢部市</title></path>
<path data-code="16210" data-name="南砺市" d="M48.36,520.17L39.82,541.01L27.57,538.64L20.29,542.51L16.75,513.05L29.62,502.89L25.22,494.98L22.49,473.88L8.63,464.52L8.00,455.14L23.35,444.29L18.69,438.84L24.25,432.73L22.71,423.71L26.68,416.81L21.84,408.66L22.47,399.23L34.57,370.90L26.48,359.73L20.23,359.15L22.58,348.78L18.83,337.03L24.61,332.82L25.78,326.89L32.39,327.33L31.04,337.46L42.03,339.91L51.50,348.27L56.26,335.45L80.05,337.00L85.54,328.39L81.41,321.34L83.24,319.37L84.36,324.29L111.86,339.44L122.81,361.91L136.95,372.24L136.11,376.61L154.61,379.04L150.07,404.64L161.99,404.50L169.69,439.05L164.42,449.11L168.55,457.02L165.21,466.57L166.45,476.26L160.20,492.99L168.44,497.32L161.26,511.88L166.64,513.92L155.16,530.95L145.22,530.54L146.14,536.63L141.41,547.59L126.98,552.24L121.01,560.36L111.41,557.92L119.91,536.17L109.98,516.24L101.51,509.35L83.92,501.43L74.41,511.84L66.03,513.73L66.56,508.74L63.20,507.69L66.87,501.81L64.03,496.87L60.75,509.05L45.46,510.71L48.36,520.17Z"><title>南砺市</title></path>
<path data-code="16211" data-name="射水市" d="M184.23,293.02L181.38,299.27L178.73,294.11L176.49,301.29L173.71,300.67L177.97,305.50L169.51,299.71L162.77,307.07L164.20,302.93L158.07,292.82L160.74,289.54L153.36,285.78L155.72,277.29L140.55,270.84L159.00,243.19L162.11,221.92L179.75,228.13L191.34,222.80L195.83,224.05L195.38,228.07L207.34,231.54L199.23,224.99L199.56,212.92L211.69,220.73L209.95,222.98L233.03,230.81L231.87,238.40L218.24,241.92L214.30,253.63L206.81,253.07L202.66,258.20L203.82,260.93L199.36,264.11L203.06,272.51L201.05,279.83L189.17,281.41L184.23,293.02ZM167.10,210.74L171.79,206.32L182.30,213.83L196.98,214.37L193.50,216.26L196.65,219.50L174.88,219.96L175.21,215.10L167.10,210.74Z"><title>射水市</title></path>
<path data-code="16321" data-name="舟橋村" d="M297.26,277.31L300.19,269.44L295.60,266.29L301.39,261.42L303.14,265.06L307.76,262.02L309.81,269.09L303.38,272.69L305.04,275.79L301.83,279.17L297.26,277.31Z"><title>舟橋村</title></path>
<path data-code="16322" data-name="上市町" d="M339.60,300.15L328.48,291.44L327.45,282.41L316.49,276.43L316.01,268.65L307.13,266.77L308.84,259.50L312.67,259.29L310.25,251.99L322.29,252.54L317.79,247.06L320.47,243.30L331.58,251.27L332.32,256.42L338.77,252.12L343.87,255.43L341.98,252.52L348.81,258.97L356.17,253.88L363.93,255.95L367.57,251.41L373.56,257.51L371.24,265.54L380.69,271.28L379.55,261.08L384.22,269.12L388.58,265.58L391.49,268.31L394.37,254.74L405.59,255.04L413.11,263.22L411.72,276.71L416.73,284.74L447.64,288.96L457.41,283.13L473.97,301.78L477.61,311.43L472.99,314.82L475.06,319.83L467.15,333.72L467.84,340.18L457.70,344.03L449.95,338.97L438.14,341.10L430.04,333.60L409.25,338.28L408.99,331.91L401.07,331.10L377.04,336.16L368.66,321.16L356.34,320.07L356.25,315.11L339.60,300.15Z"><title>上市町</title></path>
<path data-code="16323" data-name="立山町" d="M339.60,357.09L320.93,355.06L309.91,345.56L290.41,310.69L286.29,273.73L298.10,267.37L300.30,270.83L297.82,280.24L304.99,275.87L303.38,272.69L309.81,269.09L307.61,267.46L314.03,266.86L316.49,276.43L327.45,282.41L331.37,294.53L346.55,305.08L349.86,312.62L356.25,315.11L356.34,320.07L368.66,321.16L379.98,336.98L401.07,331.10L408.99,331.91L409.19,338.26L418.07,337.89L425.17,333.16L438.43,341.20L449.95,338.97L460.42,343.85L467.84,340.18L467.15,333.72L475.06,319.83L472.99,314.82L476.78,311.96L499.94,314.69L509.18,307.83L527.19,320.78L542.92,321.72L541.37,329.77L546.37,342.73L543.51,347.41L530.63,347.66L510.63,364.30L508.91,380.83L523.16,382.38L513.56,393.25L502.39,388.45L491.93,393.00L454.07,368.69L431.55,375.26L413.96,374.48L409.20,366.47L384.53,357.19L374.02,348.60L339.60,357.09Z"><title>立山町</title></path>
<path data-code="16342" data-name="入善町" d="M407.96,140.29L382.77,131.94L367.39,116.97L403.95,96.64L431.37,92.41L430.36,104.25L423.34,110.57L425.33,127.98L440.08,126.82L439.57,142.10L452.22,146.88L458.04,142.52L468.55,156.87L456.49,166.77L452.88,156.24L435.96,150.65L431.01,138.09L428.80,138.42L432.53,156.16L407.96,140.29Z"><title>入善町</title></path>
<path data-code="16343" data-name="朝日町" d="M534.23,185.13L541.87,191.80L547.01,204.32L544.44,215.78L552.00,223.81L546.94,233.49L543.08,224.55L488.39,177.37L488.42,168.46L480.05,167.71L458.04,142.52L452.22,146.88L439.57,142.10L440.08,126.82L425.33,127.98L423.34,110.57L430.36,104.25L431.37,92.41L448.75,90.32L455.87,83.04L481.78,79.64L499.02,99.79L510.62,104.62L523.44,103.88L528.52,115.83L524.73,139.86L536.00,155.26L534.23,185.13Z"><title>朝日町</title></path>
  </g>
</svg>
