<?xml version="1.0" encoding="UTF-8"?>
<svg xmlns="http://www.w3.org/2000/svg" viewBox="0 0 560 640" class="pref-muni-svg" role="img" aria-label="自治体境界図">
  <g class="pref-muni-svg__paths" fill="#eaf2fb" stroke="#5b7fa8" stroke-width="0.6" stroke-linejoin="round">
<path data-code="30201" data-name="和歌山市" d="M111.31,155.64L106.08,158.60L104.63,140.04L100.45,142.13L104.88,151.47L96.98,139.87L88.56,143.17L86.72,138.41L83.29,139.38L81.30,129.82L88.72,134.93L85.57,123.73L80.37,122.30L85.77,122.00L85.21,119.24L76.51,120.62L82.92,115.13L67.27,114.12L61.90,108.53L71.42,108.83L76.86,113.89L79.27,112.24L76.70,112.56L74.16,104.54L70.44,101.54L71.74,107.16L56.07,92.22L40.99,90.53L44.04,79.45L44.07,83.16L47.83,80.94L44.49,72.66L49.01,62.22L63.63,59.69L65.14,63.12L59.96,69.05L62.44,76.05L66.33,77.24L67.24,84.52L75.56,81.46L78.92,84.76L86.80,77.35L91.12,79.14L90.47,83.53L118.11,74.47L119.71,61.57L128.81,66.32L144.51,56.68L153.53,58.81L156.69,85.52L154.46,96.93L173.18,97.74L177.01,106.11L155.39,117.41L160.98,128.78L157.12,139.68L161.09,145.42L151.60,147.29L137.79,142.55L129.79,148.13L116.62,148.90L117.56,152.65L111.31,155.64ZM25.67,69.85L40.34,68.38L31.60,72.08L25.67,69.85ZM8.00,80.16L20.72,71.60L13.89,82.51L8.00,80.16Z"><title>和歌山市</title></path>
<path data-code="30202" data-name="海南市" d="M75.12,189.44L68.15,187.89L69.35,183.89L86.46,188.80L79.40,184.52L79.15,174.05L76.39,178.16L73.19,176.84L75.69,172.48L91.03,170.96L99.35,174.76L107.04,167.44L114.19,168.53L120.54,164.26L106.15,165.80L111.34,155.59L117.56,152.65L116.62,148.90L129.79,148.13L137.79,142.55L151.60,147.29L160.95,145.51L157.12,139.68L160.25,129.35L172.33,134.82L175.24,129.70L178.83,135.76L175.86,145.57L169.13,146.82L163.75,153.44L166.30,156.42L170.70,153.87L170.60,163.86L160.89,183.69L149.11,186.17L136.42,181.93L132.08,191.66L124.88,189.69L118.25,196.15L105.05,195.12L97.34,200.17L83.19,199.99L75.12,189.44Z"><title>海南市</title></path>
<path data-code="30203" data-name="橋本市" d="M365.54,99.22L359.35,104.86L358.74,101.00L347.53,99.95L349.66,90.76L354.62,88.16L344.44,76.99L324.79,80.95L321.43,75.72L316.69,77.76L314.51,66.84L309.02,70.89L302.06,66.95L297.33,54.20L291.18,49.20L292.12,33.60L305.82,28.36L317.88,17.67L326.48,18.46L328.91,14.86L337.52,17.30L340.85,12.22L357.61,13.04L364.27,31.01L362.43,49.45L366.74,50.22L366.27,66.48L373.75,85.21L365.54,99.22ZM300.20,79.07L306.81,73.55L305.10,81.46L300.20,79.07Z"><title>橋本市</title></path>
<path data-code="30204" data-name="有田市" d="M75.12,218.93L64.06,214.86L55.46,217.64L50.17,213.35L55.91,213.80L59.73,208.64L54.51,210.89L59.61,208.19L59.88,200.50L67.44,198.39L68.15,187.89L78.41,191.31L83.19,199.99L97.34,200.17L105.05,195.12L108.69,197.52L111.28,213.93L104.89,224.11L100.58,225.00L96.77,220.11L82.47,224.13L81.01,219.13L75.12,218.93Z"><title>有田市</title></path>
<path data-code="30205" data-name="御坊市" d="M117.67,368.79L115.06,381.79L108.65,378.35L101.76,369.63L101.74,364.53L95.36,361.05L96.88,356.32L90.43,348.23L93.35,346.81L89.14,342.52L90.78,338.04L83.66,316.13L92.93,312.72L91.55,300.47L94.66,293.44L102.32,292.70L100.80,316.83L112.07,325.38L115.98,342.93L123.40,343.59L120.99,348.84L103.78,344.75L107.92,347.64L106.88,352.77L116.94,357.69L120.05,366.29L117.67,368.79Z"><title>御坊市</title></path>
<path data-code="30206" data-name="田辺市" d="M304.63,482.87L306.73,469.09L301.26,460.82L289.50,461.12L287.68,451.92L272.86,454.03L265.21,445.34L267.10,439.38L264.06,436.28L269.62,421.96L261.48,410.85L257.86,423.96L244.50,428.50L241.05,439.40L228.46,447.66L219.77,464.30L210.45,458.33L213.99,452.97L213.44,457.30L216.41,458.55L222.86,441.63L220.61,439.99L219.39,445.28L215.79,445.57L208.33,435.95L203.12,436.90L205.74,434.70L197.73,437.86L194.87,432.84L196.71,436.08L199.52,428.53L188.27,424.17L195.49,404.98L194.74,383.92L203.86,381.04L209.21,371.54L217.93,365.96L230.94,368.63L246.91,363.48L255.34,365.76L257.68,355.99L246.48,353.08L244.48,347.94L238.12,348.78L238.32,338.62L226.51,337.68L223.69,329.26L219.13,328.60L221.75,321.43L219.17,312.15L221.63,306.44L231.12,305.53L236.03,295.82L240.86,296.21L240.13,299.83L244.56,295.05L252.78,295.73L259.42,302.31L298.99,285.56L302.10,278.39L292.35,261.61L296.94,253.35L291.76,246.47L280.94,245.44L278.97,235.40L281.39,230.80L293.87,229.46L303.66,216.66L312.47,223.86L319.68,223.50L329.98,240.25L325.62,248.31L326.86,252.57L342.08,254.71L350.93,270.57L350.15,292.89L339.25,290.84L335.81,317.04L330.15,320.27L333.49,326.23L342.44,326.98L344.42,336.43L339.75,343.71L355.93,340.61L363.56,332.72L362.70,327.24L376.31,323.10L396.80,323.53L413.98,335.26L438.53,328.36L440.53,348.45L435.21,343.51L432.96,360.43L453.91,383.54L447.27,400.05L438.27,403.84L436.71,409.94L433.03,412.22L422.50,408.53L413.66,416.47L408.69,431.39L401.20,430.85L391.48,437.51L389.94,447.40L379.70,447.23L369.97,461.40L359.74,462.22L357.01,478.54L361.27,482.31L357.41,488.16L347.22,490.89L344.65,485.84L332.40,491.12L318.87,480.51L304.63,482.87Z"><title>田辺市</title></path>
<path data-code="30207" data-name="新宮市" d="M395.88,437.10L401.20,430.85L408.78,431.31L413.66,416.47L422.50,408.53L433.03,412.22L436.71,409.94L436.96,405.44L447.27,400.05L453.32,388.04L453.78,382.86L444.74,374.61L443.98,369.43L432.96,360.43L435.21,343.51L440.53,348.45L441.30,335.91L438.17,330.60L442.17,321.48L465.23,329.48L469.17,346.05L466.11,352.29L470.08,358.68L467.85,378.44L487.16,390.13L494.95,411.64L500.32,411.95L506.47,420.10L512.01,418.28L513.91,432.70L531.40,440.27L530.04,432.82L534.67,431.25L551.32,439.98L540.87,454.37L537.82,461.94L539.63,468.14L537.31,467.56L539.02,464.51L529.79,472.77L531.99,475.49L521.31,472.91L508.10,461.06L502.17,467.49L495.70,467.98L491.18,457.45L472.16,446.07L471.86,440.17L455.67,451.16L458.52,458.71L449.99,460.51L443.10,455.03L441.71,448.65L437.95,454.14L432.83,450.08L431.26,454.97L417.10,452.96L411.29,456.38L409.19,444.80L395.88,437.10ZM477.82,350.47L476.91,344.78L481.94,339.33L475.91,332.95L470.35,333.98L469.04,329.02L474.57,316.41L472.91,311.38L481.55,315.81L483.76,336.60L487.43,337.33L487.13,329.58L492.09,335.48L489.97,345.23L479.75,343.81L477.82,350.47Z"><title>新宮市</title></path>
<path data-code="30208" data-name="紀の川市" d="M155.66,120.85L161.05,112.59L182.37,104.50L179.38,99.94L187.24,100.51L189.83,86.10L186.40,67.25L188.70,64.33L183.65,57.66L189.27,44.20L215.67,48.03L225.77,44.96L227.72,39.74L236.15,41.01L239.54,36.33L246.48,36.01L248.04,44.06L252.37,44.42L259.87,58.10L248.61,80.21L258.10,88.43L258.76,97.36L268.08,104.61L269.97,110.82L266.29,129.62L258.76,133.26L251.19,144.90L240.08,146.82L225.82,138.32L202.32,142.44L194.70,133.92L180.95,138.79L175.24,129.70L172.33,134.82L159.83,129.31L155.66,120.85Z"><title>紀の川市</title></path>
<path data-code="30209" data-name="岩出市" d="M173.55,99.96L167.82,95.81L154.46,96.93L156.69,85.52L153.53,58.81L159.85,55.29L165.27,67.37L170.44,63.86L171.21,58.00L185.41,56.07L183.68,58.07L188.70,64.33L187.05,82.29L189.83,86.10L187.24,100.51L179.38,99.94L182.90,103.85L177.14,106.46L173.55,99.96Z"><title>岩出市</title></path>
<path data-code="30304" data-name="紀美野町" d="M163.97,154.16L169.13,146.82L175.86,145.57L178.83,135.76L184.02,139.10L194.70,133.92L202.49,142.46L225.92,138.34L241.09,146.81L251.19,144.90L258.76,133.26L265.35,130.25L280.94,148.84L239.45,186.27L209.10,182.79L208.52,188.20L193.99,185.65L187.80,192.93L182.57,193.48L177.60,192.58L172.37,185.39L170.77,173.90L167.52,173.31L170.70,153.87L163.97,154.16Z"><title>紀美野町</title></path>
<path data-code="30341" data-name="かつらぎ町" d="M276.47,164.45L270.58,160.95L272.00,154.71L280.94,148.84L265.92,130.51L269.40,108.28L258.76,97.36L258.10,88.43L248.36,77.26L259.90,58.38L252.37,44.42L248.04,44.06L246.34,36.27L258.05,36.25L268.61,26.23L277.40,34.40L278.67,43.37L292.12,33.60L291.18,49.20L299.39,59.41L299.10,64.18L293.65,67.92L299.66,77.17L293.73,81.16L290.42,95.74L294.27,106.03L288.11,106.98L289.21,117.85L284.68,122.92L291.92,128.67L283.05,141.71L284.63,150.99L296.02,159.46L305.83,155.74L309.86,147.84L309.25,136.49L312.35,136.04L315.14,150.74L319.74,153.00L316.21,156.99L332.64,161.13L323.84,166.09L318.49,186.15L300.28,198.15L294.07,195.41L294.16,186.77L283.89,178.45L276.47,164.45Z"><title>かつらぎ町</title></path>
<path data-code="30343" data-name="九度山町" d="M294.20,106.21L290.42,95.74L293.73,81.16L299.66,77.17L293.65,67.92L297.12,64.14L308.76,70.89L314.51,66.84L316.69,77.76L321.43,75.72L324.79,80.95L344.44,76.99L354.62,88.16L349.66,90.76L346.91,101.11L337.98,109.77L324.43,102.23L318.25,84.26L315.30,86.84L315.77,100.75L294.20,106.21Z"><title>九度山町</title></path>
<path data-code="30344" data-name="高野町" d="M341.44,153.95L341.93,158.47L332.64,161.13L316.27,157.05L319.74,153.00L315.14,150.74L310.78,135.82L307.17,154.63L297.28,159.64L288.85,156.57L283.05,141.79L291.92,128.78L284.68,122.92L289.21,117.85L288.11,106.98L315.71,100.80L316.12,84.23L320.12,85.56L324.43,102.23L337.95,109.77L348.80,99.27L358.74,101.00L359.15,104.83L363.16,102.62L370.06,94.65L368.52,90.08L379.77,80.94L392.56,89.14L399.97,111.13L398.61,118.16L388.17,126.27L371.88,116.41L355.97,119.29L348.65,128.69L354.27,139.04L341.44,153.95Z"><title>高野町</title></path>
<path data-code="30361" data-name="湯浅町" d="M82.62,224.12L96.77,220.11L101.04,225.14L108.06,221.16L112.42,238.05L130.42,239.61L137.72,251.89L128.62,256.25L121.40,254.45L116.12,246.04L93.10,236.42L94.20,230.95L86.48,231.64L86.74,224.88L82.62,224.12Z"><title>湯浅町</title></path>
<path data-code="30362" data-name="広川町" d="M142.23,284.56L134.68,287.77L133.02,294.89L103.61,289.44L102.26,264.98L85.21,267.84L80.25,260.95L89.29,254.86L81.52,250.05L89.44,248.96L89.37,244.47L98.91,241.78L98.04,244.46L100.78,240.24L116.12,246.04L120.51,253.79L127.69,256.37L136.25,254.96L136.84,250.13L152.39,251.02L157.95,258.23L147.10,267.63L147.18,278.44L142.23,284.56Z"><title>広川町</title></path>
<path data-code="30366" data-name="有田川町" d="M108.06,221.16L111.63,211.02L108.69,197.52L118.25,196.15L124.88,189.69L132.08,191.66L136.42,181.93L149.11,186.17L160.89,183.69L167.52,172.96L170.77,173.90L172.37,185.39L178.52,193.41L187.80,192.93L193.99,185.65L208.08,188.35L210.37,182.64L239.07,186.35L270.53,160.74L279.96,168.14L283.89,178.45L294.16,186.77L294.07,195.41L302.46,198.13L303.32,202.79L297.77,211.92L302.36,216.88L293.87,229.46L281.39,230.80L266.32,240.00L257.63,240.15L250.33,234.57L218.32,254.42L207.47,252.12L200.55,257.72L166.21,256.25L163.93,260.06L155.03,256.43L152.39,251.02L138.78,251.76L130.42,239.61L112.42,238.05L108.06,221.16Z"><title>有田川町</title></path>
<path data-code="30381" data-name="美浜町" d="M73.63,323.94L78.72,322.54L79.67,315.47L84.47,316.58L90.84,340.72L69.10,329.90L55.98,334.23L50.99,331.51L38.96,338.71L49.96,325.79L73.63,323.94Z"><title>美浜町</title></path>
<path data-code="30382" data-name="日高町" d="M39.32,338.70L38.29,333.31L42.88,328.49L39.65,322.50L48.89,323.70L53.10,318.96L50.09,316.75L52.29,312.95L48.39,314.26L49.52,307.85L42.78,308.63L44.46,305.30L53.66,302.88L51.61,298.87L63.18,290.48L66.10,296.81L73.39,296.37L90.44,276.87L102.54,271.66L103.56,289.38L94.09,294.22L92.93,312.72L79.67,315.47L77.68,323.59L49.96,325.79L39.32,338.70Z"><title>日高町</title></path>
<path data-code="30383" data-name="由良町" d="M65.15,294.00L63.18,290.48L71.05,286.23L66.02,287.45L67.49,284.98L62.78,282.43L59.38,288.47L50.71,289.57L46.55,287.44L53.01,285.89L54.02,281.21L44.34,275.93L55.34,274.38L57.97,265.37L66.79,268.06L69.10,263.22L77.06,260.45L85.21,267.84L102.26,264.98L102.17,271.32L90.44,276.87L77.91,293.17L66.58,296.96L65.15,294.00Z"><title>由良町</title></path>
<path data-code="30390" data-name="印南町" d="M114.99,381.85L119.96,365.97L115.62,355.57L106.88,352.77L107.92,347.64L103.78,344.82L123.33,348.27L123.00,343.06L115.98,342.93L115.12,337.31L150.25,343.74L155.97,333.45L168.46,330.90L188.12,317.67L211.92,313.24L220.63,315.90L221.58,322.17L218.47,324.34L219.13,328.60L223.77,329.36L223.14,333.60L199.32,333.52L194.74,339.47L180.75,342.54L174.10,350.95L176.57,355.80L168.79,376.05L151.32,382.77L147.26,393.11L150.85,401.41L134.08,402.32L134.06,390.95L126.45,387.29L124.52,381.19L120.08,384.66L114.99,381.85Z"><title>印南町</title></path>
<path data-code="30391" data-name="みなべ町" d="M189.03,422.71L185.10,427.06L187.63,427.75L183.75,427.84L178.92,411.89L167.02,413.81L166.25,408.76L150.85,401.41L147.26,393.11L153.23,380.38L168.79,376.05L176.57,355.80L174.10,350.95L180.75,342.54L194.74,339.47L199.32,333.52L222.38,333.19L226.51,337.68L238.32,338.62L238.12,348.78L244.48,347.94L246.48,353.08L257.68,355.99L255.23,365.82L246.91,363.48L230.94,368.63L217.93,365.96L209.21,371.54L203.86,381.04L194.24,384.39L195.49,404.98L189.03,422.71Z"><title>みなべ町</title></path>
<path data-code="30392" data-name="日高川町" d="M100.86,314.91L101.81,290.30L108.40,288.50L133.09,294.87L135.41,287.04L144.50,284.22L146.73,268.31L157.44,258.40L182.35,255.32L201.48,257.62L207.47,252.12L218.32,254.42L250.56,234.51L259.00,240.51L279.18,233.77L280.94,245.44L291.76,246.47L296.94,253.35L292.35,261.61L302.10,278.39L298.99,285.56L288.98,291.97L259.67,302.25L252.78,295.73L244.56,295.05L240.13,299.83L240.86,296.21L236.03,295.82L231.12,305.53L221.58,306.47L219.14,314.78L188.12,317.67L168.46,330.90L155.97,333.45L150.25,343.74L115.12,337.31L111.51,324.49L100.86,314.91Z"><title>日高川町</title></path>
<path data-code="30401" data-name="白浜町" d="M270.85,530.53L259.97,550.85L254.36,554.68L254.36,550.03L247.60,552.77L249.16,547.91L245.82,543.08L234.86,537.49L233.30,539.73L232.49,532.36L227.48,535.40L224.79,526.90L222.91,530.33L218.01,525.56L216.06,514.96L221.59,509.13L217.28,505.70L222.53,499.53L219.21,502.13L218.43,492.27L210.58,485.30L197.55,484.27L185.53,476.28L193.33,462.75L186.93,459.52L199.28,458.04L198.65,463.11L201.05,462.61L197.72,465.96L200.53,464.05L201.56,468.28L204.75,464.06L210.86,466.21L208.02,461.73L212.70,460.45L216.25,464.37L222.98,463.89L225.79,470.41L232.71,463.00L244.33,471.87L253.53,470.66L259.20,475.79L272.92,476.57L276.29,475.16L274.46,466.06L287.68,451.92L289.50,461.12L301.15,460.72L306.60,468.76L304.66,482.91L318.87,480.51L332.40,491.12L344.65,485.84L350.05,490.60L361.11,483.10L366.70,487.26L360.37,494.59L352.54,496.93L353.74,504.41L349.53,506.39L340.07,506.77L335.94,498.47L328.59,502.15L299.88,496.55L297.57,502.59L292.55,503.87L291.51,514.21L278.74,511.56L272.80,516.51L269.07,521.65L270.85,530.53Z"><title>白浜町</title></path>
<path data-code="30404" data-name="上富田町" d="M264.85,444.27L272.76,453.98L279.27,451.66L282.88,454.55L274.40,466.18L275.76,476.27L244.33,471.87L232.71,463.00L225.79,470.41L221.08,463.45L228.46,447.66L241.05,439.40L244.50,428.50L257.86,423.96L260.46,410.71L269.62,421.96L264.06,436.28L267.10,439.38L264.85,444.27Z"><title>上富田町</title></path>
<path data-code="30406" data-name="すさみ町" d="M257.55,552.29L271.43,529.74L269.07,521.65L272.80,516.51L278.74,511.56L291.51,514.21L292.55,503.87L297.57,502.59L300.17,496.47L328.59,502.15L335.94,498.47L340.19,506.82L353.81,504.87L366.78,525.23L363.57,526.28L362.58,535.47L346.46,534.06L345.85,549.55L353.34,552.48L349.66,552.65L351.51,555.67L349.22,554.13L341.87,564.77L350.87,570.14L349.23,580.18L345.60,578.66L344.72,582.74L333.63,578.18L330.20,582.41L325.21,579.73L324.76,582.84L314.09,573.30L286.50,570.50L282.00,567.73L284.25,564.37L282.04,561.92L269.49,556.75L273.08,555.46L272.01,552.88L265.92,555.61L265.50,551.69L255.59,553.41L257.55,552.29Z"><title>すさみ町</title></path>
<path data-code="30421" data-name="那智勝浦町" d="M455.20,530.66L449.06,527.20L448.64,506.60L440.18,496.76L436.34,476.27L433.92,475.94L435.77,471.51L426.36,466.05L426.02,453.31L431.26,454.97L432.91,450.08L437.95,454.14L441.71,448.65L443.10,455.03L454.34,459.94L458.80,457.29L455.67,451.16L471.86,440.17L472.16,446.07L491.18,457.45L495.70,467.98L502.17,467.49L508.10,461.06L521.31,472.91L530.50,474.43L532.58,481.48L538.75,478.84L533.69,488.28L531.54,482.50L527.90,484.09L532.22,485.84L523.74,484.56L511.57,491.20L512.80,497.34L519.64,498.85L520.10,505.58L518.99,508.39L517.64,500.14L513.62,504.36L515.95,508.55L507.75,507.64L504.66,514.32L507.70,519.02L502.80,523.05L503.56,528.28L510.76,526.95L512.60,536.60L504.48,534.71L502.64,539.61L486.39,547.66L503.75,544.44L497.65,552.44L492.22,555.28L488.28,550.55L482.31,551.69L480.44,545.41L483.71,543.36L478.34,531.83L471.15,533.51L469.71,527.78L455.20,530.66Z"><title>那智勝浦町</title></path>
<path data-code="30422" data-name="太地町" d="M511.21,532.85L509.67,526.13L503.55,528.25L503.90,519.68L508.64,519.76L509.61,524.21L515.44,516.59L518.38,525.35L515.65,525.72L524.56,522.88L520.41,533.89L511.21,532.85Z"><title>太地町</title></path>
<path data-code="30424" data-name="古座川町" d="M410.70,572.36L406.11,573.10L400.52,565.20L394.95,563.80L392.55,568.59L386.40,566.56L384.36,571.80L376.19,570.94L365.99,564.87L363.61,548.41L346.27,535.08L350.22,532.53L362.58,535.47L363.57,526.28L366.78,525.23L351.62,499.88L366.70,487.26L357.01,478.54L358.75,464.22L371.83,460.19L381.84,445.88L389.62,447.67L392.68,436.71L409.19,444.80L411.29,456.38L425.93,453.37L426.36,466.05L435.77,471.51L433.92,475.94L436.34,476.27L440.18,496.76L448.64,506.60L449.06,527.20L458.78,531.78L453.17,546.10L457.18,559.42L451.41,561.39L450.18,569.40L442.20,560.47L425.68,570.81L410.70,572.36Z"><title>古座川町</title></path>
<path data-code="30427" data-name="北山村" d="M508.18,314.88L503.07,316.50L490.82,309.32L487.86,293.38L505.21,273.09L512.37,273.37L513.47,276.69L531.30,270.04L540.02,258.59L548.11,255.05L547.25,259.70L542.40,260.32L552.00,277.20L551.60,282.09L544.68,289.60L538.03,281.53L532.67,282.57L532.83,295.00L527.19,307.64L506.47,299.00L508.08,304.05L502.84,303.54L500.56,310.43L508.78,311.00L508.18,314.88Z"><title>北山村</title></path>
<path data-code="30428" data-name="串本町" d="M358.57,584.45L349.19,580.87L350.33,568.86L341.88,564.80L349.22,554.13L351.51,555.67L349.66,552.65L353.34,552.48L345.85,549.55L347.33,537.47L363.61,548.41L365.99,564.87L376.28,570.97L384.36,571.80L386.40,566.56L392.55,568.59L394.95,563.80L408.30,573.59L414.61,569.77L425.68,570.81L442.20,560.47L449.54,569.80L451.41,561.39L457.18,559.42L453.17,546.10L458.78,531.78L466.13,527.74L469.77,527.78L471.19,533.53L480.70,533.44L482.31,551.69L488.28,550.55L490.82,554.65L479.62,565.95L475.62,561.84L465.80,570.08L467.06,573.23L462.94,570.95L456.84,577.43L450.66,575.16L444.08,582.96L437.03,584.65L427.38,607.78L431.94,611.45L435.73,609.09L431.79,611.72L436.46,619.90L432.63,617.85L430.88,624.69L421.24,618.76L417.44,627.78L412.47,625.34L413.89,620.58L410.78,616.78L424.39,609.85L423.99,598.39L419.31,602.36L420.14,596.75L415.46,594.55L404.63,599.62L403.31,593.48L397.49,599.18L390.63,593.73L388.65,598.73L389.28,592.38L384.81,588.80L382.16,593.17L370.57,592.35L358.57,584.45ZM436.83,606.61L443.82,596.47L445.14,599.81L471.35,602.76L466.23,606.32L466.31,610.40L459.29,610.10L457.15,614.96L453.21,612.81L454.60,617.52L449.21,615.41L450.05,609.26L436.83,606.61Z"><title>串本町</title></path>
  </g>
</svg>
