<?xml version="1.0" encoding="UTF-8" standalone="no"?>
<svg
   width="35.799999mm"
   height="42.959999mm"
   viewBox="0 0 35.800002 42.959997"
   version="1.1"
   id="svg13642"
   inkscape:version="1.2.2 (732a01da63, 2022-12-09)"
   sodipodi:docname="Moldova_road_sign_5.78.1.svg"
   xmlns:inkscape="http://www.inkscape.org/namespaces/inkscape"
   xmlns:sodipodi="http://sodipodi.sourceforge.net/DTD/sodipodi-0.dtd"
   xmlns="http://www.w3.org/2000/svg"
   xmlns:svg="http://www.w3.org/2000/svg"
   xmlns:rdf="http://www.w3.org/1999/02/22-rdf-syntax-ns#"
   xmlns:cc="http://creativecommons.org/ns#"
   xmlns:dc="http://purl.org/dc/elements/1.1/">
  <defs
     id="defs13636">
    <clipPath
       id="clip12">
      <path
         id="path1330"
         d="m 72,189 h 455 v 84.83984 H 72 Z m 0,0" />
    </clipPath>
    <pattern
       id="EMFhbasepattern"
       patternUnits="userSpaceOnUse"
       width="6"
       height="6"
       x="0"
       y="0" />
    <pattern
       id="EMFhbasepattern-8"
       patternUnits="userSpaceOnUse"
       width="6"
       height="6"
       x="0"
       y="0" />
    <pattern
       id="EMFhbasepattern-3"
       patternUnits="userSpaceOnUse"
       width="6"
       height="6"
       x="0"
       y="0" />
  </defs>
  <sodipodi:namedview
     id="base"
     pagecolor="#ffffff"
     bordercolor="#666666"
     borderopacity="1.0"
     inkscape:pageopacity="0.0"
     inkscape:pageshadow="2"
     inkscape:zoom="1.4"
     inkscape:cx="125"
     inkscape:cy="24.642857"
     inkscape:document-units="mm"
     inkscape:current-layer="text2082"
     inkscape:document-rotation="0"
     showgrid="false"
     inkscape:window-width="1920"
     inkscape:window-height="991"
     inkscape:window-x="-9"
     inkscape:window-y="-9"
     inkscape:window-maximized="1"
     inkscape:showpageshadow="2"
     inkscape:pagecheckerboard="0"
     inkscape:deskcolor="#d1d1d1" />
  <metadata
     id="metadata13639">
    <rdf:RDF>
      <cc:Work
         rdf:about="">
        <dc:format>image/svg+xml</dc:format>
        <dc:type
           rdf:resource="http://purl.org/dc/dcmitype/StillImage" />
        <dc:title />
      </cc:Work>
    </rdf:RDF>
  </metadata>
  <g
     inkscape:label="Layer 1"
     inkscape:groupmode="layer"
     id="layer1"
     transform="translate(-171.39391,-83.803276)">
    <g
       aria-label="Mănăstirea Căpriana"
       id="text14858"
       style="font-size:4.69407px;line-height:92.02%;font-family:'Russian Road Sign';-inkscape-font-specification:'Russian Road Sign';text-align:center;text-anchor:middle;stroke-width:0.264583" />
    <g
       inkscape:groupmode="layer"
       style="font-size:2.58894px;line-height:89.02%;font-family:'Russian Road Sign';-inkscape-font-specification:'Russian Road Sign';text-align:center;letter-spacing:-0.119062px;text-anchor:middle;stroke-width:0.264583"
       id="text14866"
       aria-label="Mănăstirea Căpriana" />
    <g
       inkscape:groupmode="layer"
       style="font-size:2.58894px;line-height:72.17%;font-family:'Russian Road Sign';-inkscape-font-specification:'Russian Road Sign';text-align:center;letter-spacing:-0.119062px;text-anchor:middle;stroke-width:0.264583"
       id="text2082"
       aria-label="Monumentul Bataliei de la Cahul">
      <path
         sodipodi:nodetypes="csssscc"
         d="m -172.86091,-117.08371 3.5e-4,24.605165 c 6e-5,4.438925 -3.57358,8.012269 -8.0125,8.012269 h -0.149 c -4.43893,0 -8.0125,-3.573344 -8.0125,-8.012269 l -3.5e-4,-24.605165 z"
         transform="scale(-1)"
         style="opacity:1;fill:#f51d25;fill-opacity:1;fill-rule:evenodd;stroke:#333333;stroke-width:0.279167;stroke-linecap:square;stroke-linejoin:round;stroke-miterlimit:4;stroke-dasharray:none;stroke-opacity:1;paint-order:stroke fill markers"
         id="rect2280" />
      <path
         sodipodi:nodetypes="ccccc"
         d="m -189.03491,117.08371 h 16.17399 l 1.20001,2.15164 h -18.43567 z"
         transform="scale(-1,1)"
         style="opacity:1;fill:#f51d25;fill-opacity:1;fill-rule:evenodd;stroke:#333333;stroke-width:0.279167;stroke-linecap:square;stroke-linejoin:round;stroke-miterlimit:4;stroke-dasharray:none;stroke-opacity:1;paint-order:stroke fill markers"
         id="rect2283" />
      <g
         inkscape:groupmode="layer"
         style="opacity:1"
         transform="scale(1,-1)"
         id="g2289">
        <path
           id="path2291"
           d="m 171.66016,-126.19141 a 0.026461,0.026461 0 0 0 -0.0254,0.0254 v 6.93164 a 0.026461,0.026461 0 0 0 0.0254,0.0254 h 18.43554 a 0.026461,0.026461 0 0 0 0.0274,-0.0254 v -6.93164 a 0.026461,0.026461 0 0 0 -0.0274,-0.0254 z m 0.0273,0.0527 h 18.38281 v 6.87695 H 171.6875 Z"
           style="color:#000000;font-style:normal;font-variant:normal;font-weight:normal;font-stretch:normal;font-size:medium;line-height:72.17%;font-family:'Russian Road Sign';-inkscape-font-specification:'Russian Road Sign';font-variant-ligatures:normal;font-variant-position:normal;font-variant-caps:normal;font-variant-numeric:normal;font-variant-alternates:normal;font-variant-east-asian:normal;font-feature-settings:normal;font-variation-settings:normal;text-indent:0;text-align:start;text-decoration:none;text-decoration-line:none;text-decoration-style:solid;text-decoration-color:#000000;letter-spacing:-0.119062px;word-spacing:normal;text-transform:none;writing-mode:lr-tb;direction:ltr;text-orientation:mixed;dominant-baseline:auto;baseline-shift:baseline;text-anchor:start;white-space:normal;shape-padding:0;shape-margin:0;inline-size:0;clip-rule:nonzero;display:inline;overflow:visible;visibility:visible;opacity:1;isolation:auto;mix-blend-mode:normal;color-interpolation:sRGB;color-interpolation-filters:linearRGB;solid-color:#000000;solid-opacity:1;vector-effect:none;fill-opacity:1;fill-rule:evenodd;stroke:none;stroke-width:0.0529167;stroke-linecap:square;stroke-linejoin:round;stroke-miterlimit:4;stroke-dasharray:none;stroke-dashoffset:0;stroke-opacity:1;paint-order:stroke fill markers;color-rendering:auto;image-rendering:auto;shape-rendering:auto;text-rendering:auto;enable-background:accumulate;stop-color:#000000;stop-opacity:1" />
        <path
           id="path2293"
           d="m 171.6609,-126.1655 h 18.43568 v 6.93015 H 171.6609 Z"
           style="color:#000000;font-style:normal;font-variant:normal;font-weight:normal;font-stretch:normal;font-size:medium;line-height:72.17%;font-family:'Russian Road Sign';-inkscape-font-specification:'Russian Road Sign';font-variant-ligatures:normal;font-variant-position:normal;font-variant-caps:normal;font-variant-numeric:normal;font-variant-alternates:normal;font-variant-east-asian:normal;font-feature-settings:normal;font-variation-settings:normal;text-indent:0;text-align:start;text-decoration:none;text-decoration-line:none;text-decoration-style:solid;text-decoration-color:#000000;letter-spacing:-0.119062px;word-spacing:normal;text-transform:none;writing-mode:lr-tb;direction:ltr;text-orientation:mixed;dominant-baseline:auto;baseline-shift:baseline;text-anchor:start;white-space:normal;shape-padding:0;shape-margin:0;inline-size:0;clip-rule:nonzero;display:inline;overflow:visible;visibility:visible;opacity:1;isolation:auto;mix-blend-mode:normal;color-interpolation:sRGB;color-interpolation-filters:linearRGB;solid-color:#000000;solid-opacity:1;vector-effect:none;fill:#f51d25;fill-opacity:1;fill-rule:evenodd;stroke:#333333;stroke-width:0.279167;stroke-linecap:square;stroke-linejoin:round;stroke-miterlimit:4;stroke-dasharray:none;stroke-dashoffset:0;stroke-opacity:1;paint-order:stroke fill markers;color-rendering:auto;image-rendering:auto;shape-rendering:auto;text-rendering:auto;enable-background:accumulate;stop-color:#000000;stop-opacity:1" />
        <path
           sodipodi:nodetypes="cccccccccccccc"
           style="color:#000000;font-style:normal;font-variant:normal;font-weight:normal;font-stretch:normal;font-size:medium;line-height:72.17%;font-family:'Russian Road Sign';-inkscape-font-specification:'Russian Road Sign';font-variant-ligatures:normal;font-variant-position:normal;font-variant-caps:normal;font-variant-numeric:normal;font-variant-alternates:normal;font-variant-east-asian:normal;font-feature-settings:normal;font-variation-settings:normal;text-indent:0;text-align:start;text-decoration:none;text-decoration-line:none;text-decoration-style:solid;text-decoration-color:#000000;letter-spacing:-0.119062px;word-spacing:normal;text-transform:none;writing-mode:lr-tb;direction:ltr;text-orientation:mixed;dominant-baseline:auto;baseline-shift:baseline;text-anchor:start;white-space:normal;shape-padding:0;shape-margin:0;inline-size:0;clip-rule:nonzero;display:inline;overflow:visible;visibility:visible;opacity:1;isolation:auto;mix-blend-mode:normal;color-interpolation:sRGB;color-interpolation-filters:linearRGB;solid-color:#000000;solid-opacity:1;vector-effect:none;fill-opacity:1;fill-rule:evenodd;stroke:none;stroke-width:0.0529167;stroke-linecap:square;stroke-linejoin:round;stroke-miterlimit:4;stroke-dasharray:none;stroke-dashoffset:0;stroke-opacity:1;paint-order:stroke fill markers;color-rendering:auto;image-rendering:auto;shape-rendering:auto;text-rendering:auto;enable-background:accumulate;stop-color:#000000;stop-opacity:1"
           d="m 192.82696,-126.19141 c -0.0138,5.4e-4 -0.0249,0.0116 -0.0254,0.0254 v 6.93164 c 5.4e-4,0.0138 0.0116,0.0249 0.0254,0.0254 h 13.98457 c 0.0146,5.3e-4 0.0268,-0.0108 0.0274,-0.0254 v -6.93164 c -5.8e-4,-0.0146 -0.0128,-0.0259 -0.0274,-0.0254 z m 0.0273,0.0527 h 13.93184 v 6.87695 h -13.9318 z"
           id="path2331" />
        <path
           sodipodi:nodetypes="ccccc"
           style="color:#000000;font-style:normal;font-variant:normal;font-weight:normal;font-stretch:normal;font-size:medium;line-height:72.17%;font-family:'Russian Road Sign';-inkscape-font-specification:'Russian Road Sign';font-variant-ligatures:normal;font-variant-position:normal;font-variant-caps:normal;font-variant-numeric:normal;font-variant-alternates:normal;font-variant-east-asian:normal;font-feature-settings:normal;font-variation-settings:normal;text-indent:0;text-align:start;text-decoration:none;text-decoration-line:none;text-decoration-style:solid;text-decoration-color:#000000;letter-spacing:-0.119062px;word-spacing:normal;text-transform:none;writing-mode:lr-tb;direction:ltr;text-orientation:mixed;dominant-baseline:auto;baseline-shift:baseline;text-anchor:start;white-space:normal;shape-padding:0;shape-margin:0;inline-size:0;clip-rule:nonzero;display:inline;overflow:visible;visibility:visible;opacity:1;isolation:auto;mix-blend-mode:normal;color-interpolation:sRGB;color-interpolation-filters:linearRGB;solid-color:#000000;solid-opacity:1;vector-effect:none;fill:#f51d25;fill-opacity:1;fill-rule:evenodd;stroke:#333333;stroke-width:0.279167;stroke-linecap:square;stroke-linejoin:round;stroke-miterlimit:4;stroke-dasharray:none;stroke-dashoffset:0;stroke-opacity:1;paint-order:stroke fill markers;color-rendering:auto;image-rendering:auto;shape-rendering:auto;text-rendering:auto;enable-background:accumulate;stop-color:#000000;stop-opacity:1"
           d="m 192.8277,-126.1655 h 13.98468 v 6.93015 H 192.8277 Z"
           id="path2333" />
      </g>
      <path
         sodipodi:nodetypes="ccccc"
         d="m 172.86891,92.449478 h 16.1609 v 24.095982 h -16.1609 z"
         style="opacity:1;fill:#ffffff;fill-rule:evenodd;stroke-width:0.0529167;stroke-linecap:square;stroke-linejoin:round;paint-order:stroke fill markers"
         id="rect2301" />
      <path
         sodipodi:nodetypes="ccccc"
         d="m 172.86891,-92.449501 h 16.1609 v 0.414 h -16.1609 z"
         transform="scale(1,-1)"
         style="opacity:1;fill:#000000;fill-rule:evenodd;stroke-width:0.0529167;stroke-linecap:square;stroke-linejoin:round;paint-order:stroke fill markers"
         id="rect2303" />
      <path
         sodipodi:nodetypes="ccccc"
         d="m 172.86891,-116.95946 h 16.1609 v 0.414 h -16.1609 z"
         transform="scale(1,-1)"
         style="opacity:1;fill:#000000;fill-rule:evenodd;stroke-width:0.0529167;stroke-linecap:square;stroke-linejoin:round;paint-order:stroke fill markers"
         id="rect2305" />
      <path
         id="path2327"
         style="opacity:1;fill:#f51d25;fill-opacity:1;fill-rule:evenodd;stroke:#333333;stroke-width:0.279167;stroke-linecap:square;stroke-linejoin:round;stroke-miterlimit:4;stroke-dasharray:none;stroke-opacity:1;paint-order:stroke fill markers"
         d="m 194.02771,117.08371 -3.1e-4,-32.529434 h 11.72302 l 3.2e-4,32.529434 z"
         sodipodi:nodetypes="ccccc" />
      <path
         id="path2329"
         style="opacity:1;fill:#f51d25;fill-opacity:1;fill-rule:evenodd;stroke:#333333;stroke-width:0.279167;stroke-linecap:square;stroke-linejoin:round;stroke-miterlimit:4;stroke-dasharray:none;stroke-opacity:1;paint-order:stroke fill markers"
         d="m 205.75071,117.08371 h -11.72299 l -1.20001,2.15164 h 13.98467 z"
         sodipodi:nodetypes="ccccc" />
      <path
         sodipodi:nodetypes="ccccc"
         d="m 194.04391,92.449478 h 11.689 v 24.095982 h -11.689 z"
         style="opacity:1;fill:#ffffff;fill-rule:evenodd;stroke-width:0.0529167;stroke-linecap:square;stroke-linejoin:round;paint-order:stroke fill markers"
         id="rect2335" />
      <path
         sodipodi:nodetypes="ccccc"
         d="m 194.04391,-92.449501 h 11.689 v 0.414 h -11.689 z"
         transform="scale(1,-1)"
         style="opacity:1;fill:#000000;fill-rule:evenodd;stroke-width:0.0529167;stroke-linecap:square;stroke-linejoin:round;paint-order:stroke fill markers"
         id="rect2337" />
      <path
         sodipodi:nodetypes="ccccc"
         d="m 194.04391,-116.95946 h 11.689 v 0.414 h -11.689 z"
         transform="scale(1,-1)"
         style="opacity:1;fill:#000000;fill-rule:evenodd;stroke-width:0.0529167;stroke-linecap:square;stroke-linejoin:round;paint-order:stroke fill markers"
         id="rect2339" />
      <g
         aria-label="M14"
         id="text1094"
         style="font-style:normal;font-variant:normal;font-weight:500;font-size:72.7667px;line-height:125%;font-family:'Russian Road Sign';text-align:end;letter-spacing:0px;word-spacing:0px;text-anchor:end;opacity:1;fill:#000000;fill-opacity:1;stroke:none;stroke-width:3.63608"
         transform="matrix(0.07276585,0,0,0.07276585,184.46644,102.43385)">
        <path
           d="m 160.41196,25.248539 h 7.13114 V -4.2947415 l 12.22481,21.3934095 12.2248,-21.3934095 0.50937,29.5432805 h 6.62177 v -40.749352 h -8.14987 L 179.76791,3.345762 168.56183,-15.500813 h -8.14987 z"
           style="text-align:end;text-anchor:end;stroke-width:3.63608"
           id="path3583" />
        <path
           d="m 205.97984,-6.0411423 2.4013,3.1289681 5.4575,-3.420035 V 25.248539 h 7.13114 v -40.749352 h -6.11241 z"
           style="text-align:end;text-anchor:end;stroke-width:3.63608"
           id="path3585" />
        <path
           d="m 251.55112,-15.500813 -19.86531,26.487079 v 6.112402 h 19.35594 v 8.149871 h 7.13114 v -8.149871 h 2.76513 l 2.32854,-6.112402 h -5.60304 v -26.487079 z m -0.50937,10.6967046 V 10.986266 h -11.71544 z"
           style="text-align:end;text-anchor:end;stroke-width:3.63608"
           id="path3587" />
      </g>
      <g
         transform="matrix(0.14328705,0,0,0.1210927,256.90593,77.215902)"
         id="layer1-5"
         style="opacity:1;stroke-width:2.32385">
        <path
           sodipodi:nodetypes="cccccccscccccccssccccccccccccccccccccccccscccccccccccccccccccccccccccccccsccccccc"
           d="m -398.90975,246.42529 c -0.12149,-0.0926 -0.24886,-0.1852 -0.37039,-0.2778 -0.85078,-0.64242 -1.75364,-1.88446 -2.69701,-2.39376 -0.8855,-0.49773 -1.80571,-0.92022 -2.74909,-1.28484 -0.94337,-0.3704 -1.9099,-0.67714 -2.89378,-0.90865 -0.7929,-0.19677 -1.59157,-0.34725 -2.39605,-0.45142 -0.86234,-0.11579 -1.72469,-0.191 -2.58703,-0.19679 -0.15626,-0.004 -0.30674,-0.004 -0.463,-0.004 h -2.50601 c -0.35884,-0.004 -0.71767,-0.008 -1.07649,-0.027 -2.41921,-0.0984 -4.84997,-0.61348 -7.08976,-1.55685 -2.10088,-0.81022 -4.04549,-1.99089 -5.75862,-3.44356 -1.72468,-1.42375 -3.22944,-3.11372 -4.4159,-5.00045 -0.98967,-1.51634 -1.7652,-3.15422 -2.33817,-4.87891 -0.63663,-1.86938 -1.02439,-3.83715 -1.08227,-5.81071 -0.009,-0.35883 -0.0239,-0.71187 -0.0239,-1.07648 v -0.31253 c 0,-0.21414 0.009,-0.42249 0.0193,-0.63663 0.0243,-0.52667 0.0694,-1.04755 0.12734,-1.56843 0.081,-0.70029 0.191,-1.38901 0.34148,-2.07773 0.14468,-0.68294 0.32989,-1.35429 0.54402,-2.02565 0.16784,-0.53245 0.35884,-1.05912 0.57298,-1.58 0.26623,-0.65399 0.57297,-1.28483 0.89127,-1.91568 0.34726,-0.7003 0.71188,-1.39481 1.01283,-2.11825 0.24886,-0.59611 0.45721,-1.21538 0.63663,-1.84045 0.1852,-0.62504 0.33567,-1.26167 0.45722,-1.89831 0.0926,-0.51509 0.16784,-1.03018 0.21992,-1.55106 0.0694,-0.654 0.0984,-1.3022 0.0984,-1.9562 0.005,-1.12857 -0.0925,-2.25715 -0.29516,-3.36835 -0.15626,-0.92023 -0.39356,-1.82308 -0.68872,-2.70857 -0.28937,-0.8855 -0.64821,-1.74785 -1.0707,-2.58126 -0.34147,-0.67135 -0.71187,-1.31378 -1.12857,-1.93883 -0.43986,-0.67136 -0.92022,-1.31378 -1.44689,-1.91568 -0.0926,-0.10995 -0.18521,-0.21993 -0.27781,-0.3241 l 15.38911,-15.31967 c 0.1852,0.17942 0.37041,0.36463 0.56139,0.54404 1.29641,1.24432 2.70279,2.38447 4.20177,3.3915 1.40059,0.96074 2.8822,1.80573 4.42748,2.51759 1.52792,0.73502 3.11949,1.33692 4.75158,1.80572 1.3022,0.38198 2.63334,0.67714 3.97606,0.89128 1.44109,0.23728 2.89377,0.38198 4.34644,0.39935 0.26044,0.004 0.52088,0.004 0.78132,0.004 0.25465,0 0.51509,0 0.77553,-0.004 0.51511,-0.008 1.0302,-0.0347 1.54529,-0.0753 1.27904,-0.0868 2.55231,-0.25465 3.80821,-0.49772 1.6726,-0.31253 3.31626,-0.76396 4.91363,-1.34851 1.60315,-0.57297 3.15423,-1.26747 4.63583,-2.0951 1.19803,-0.65398 2.34975,-1.38322 3.45518,-2.18769 1.18644,-0.85076 2.31502,-1.78256 3.36257,-2.80117 0.1852,-0.17941 0.37039,-0.36462 0.5556,-0.54404 l 15.3891,15.31967 c -0.0925,0.10424 -0.18521,0.21414 -0.2778,0.3241 -0.64821,0.7466 -1.23275,1.54527 -1.74784,2.39026 -0.49774,0.7929 -0.93181,1.62051 -1.3022,2.47708 -0.37041,0.85655 -0.68292,1.73627 -0.92021,2.63912 -0.19678,0.71765 -0.34726,1.45267 -0.45722,2.19348 -0.1389,0.9318 -0.21413,1.86938 -0.20836,2.81275 -0.005,0.78132 0.0483,1.56843 0.1447,2.34975 0.0753,0.64242 0.19099,1.28484 0.33567,1.92148 0.14469,0.63662 0.32411,1.26168 0.53246,1.88094 0.16205,0.49195 0.34725,0.9839 0.55559,1.45848 0.26623,0.59611 0.57297,1.17486 0.86813,1.75362 0.38198,0.75239 0.73502,1.52213 1.04176,2.30345 0.25465,0.65399 0.46879,1.32534 0.65979,1.99671 0.1852,0.67713 0.34146,1.36006 0.463,2.04879 0.0984,0.54982 0.17362,1.10542 0.22572,1.66681 0.0694,0.7003 0.10423,1.4006 0.10423,2.10089 0.008,2.78381 -0.49774,5.60235 -1.5858,8.16624 -0.81025,2.10666 -1.9909,4.0455 -3.44936,5.7644 -1.41795,1.72469 -3.10792,3.22945 -4.99467,4.41591 -1.51634,0.98967 -3.16,1.77099 -4.87311,2.33817 -1.87518,0.63663 -3.84295,1.03018 -5.81071,1.08227 -0.35883,0.0193 -0.72345,0.0231 -1.08227,0.027 h -2.49445 c -0.15626,0 -0.30674,0 -0.463,0.004 -1.07069,0.0193 -2.1414,0.10994 -3.20052,0.28937 -1.00124,0.15048 -1.99091,0.38199 -2.95744,0.67136 -0.9723,0.28938 -1.92725,0.64242 -2.84747,1.06491 -0.74081,0.3299 -1.46425,0.70608 -2.16455,1.11122 -0.75239,0.43985 -1.48162,1.57193 -2.17033,2.09859 -0.1215,0.0926 -0.24308,0.1852 -0.36462,0.27781"
           style="fill:#fdfdfd;fill-opacity:1;fill-rule:evenodd;stroke:#333333;stroke-width:0.3644;stroke-miterlimit:4;stroke-dasharray:none;stroke-opacity:1"
           id="path5203-2"
           inkscape:connector-curvature="0" />
        <path
           sodipodi:nodetypes="ccccccscccccccssccccccccccccccccccccccsccccccccccccsccccccccccccccccscccccc"
           d="m -398.9271,243.13796 c -0.59034,-0.40513 -1.18067,-1.46197 -1.79994,-1.82079 -0.9723,-0.56718 -2.00828,-1.03018 -3.0674,-1.42953 -1.04755,-0.40513 -2.12403,-0.75239 -3.21788,-1.01283 -0.87393,-0.21992 -1.75942,-0.38197 -2.6565,-0.49772 -0.95493,-0.13311 -1.92146,-0.21414 -2.89377,-0.22572 -0.16205,0 -0.33568,-0.004 -0.50351,-0.004 h -2.50601 c -0.32411,-0.004 -0.64821,-0.004 -0.97232,-0.0231 -2.14139,-0.0868 -4.28279,-0.54981 -6.26792,-1.38901 -1.84045,-0.71183 -3.54777,-1.75359 -5.05832,-3.03844 -1.52213,-1.25011 -2.84748,-2.74329 -3.89502,-4.4159 -0.87392,-1.33693 -1.55686,-2.78381 -2.05458,-4.30594 -0.5614,-1.64366 -0.90286,-3.36836 -0.94916,-5.09305 -0.0193,-0.31831 -0.0239,-0.64242 -0.0239,-0.96074 v -0.28358 c 0,-0.18521 0.005,-0.37041 0.0193,-0.55561 0.0194,-0.46879 0.0579,-0.9318 0.10995,-1.3948 0.0694,-0.61348 0.17363,-1.22118 0.30095,-1.82308 0.13312,-0.60769 0.29516,-1.20381 0.48037,-1.79415 0.15047,-0.46879 0.31252,-0.93179 0.50351,-1.38322 0.24307,-0.59033 0.52088,-1.1633 0.81026,-1.73627 0.37041,-0.74659 0.75817,-1.49318 1.07648,-2.26871 0.29517,-0.68872 0.53825,-1.4006 0.7466,-2.12404 0.20257,-0.70608 0.37618,-1.41794 0.5093,-2.1414 0.10994,-0.57875 0.19099,-1.16908 0.24887,-1.75941 0.081,-0.73502 0.11579,-1.48162 0.11579,-2.22243 0.005,-1.27325 -0.10423,-2.54652 -0.33568,-3.80242 -0.17941,-1.04176 -0.43406,-2.07194 -0.78132,-3.07319 -0.3299,-1.00125 -0.74659,-1.97356 -1.20959,-2.92272 -0.37042,-0.76395 -0.77554,-1.51634 -1.27327,-2.19927 -0.15047,-0.20835 -0.30674,-0.41091 -0.463,-0.61348 l 12.11334,-12.05547 c 1.03597,0.8797 2.06616,1.7652 3.17159,2.55809 1.49319,1.06492 3.1137,1.95619 4.78052,2.72595 1.66102,0.78132 3.37414,1.44109 5.12777,1.94462 1.40638,0.41669 2.84169,0.73502 4.29436,0.96651 1.55686,0.25465 3.13108,0.41092 4.7053,0.42828 0.28358,0.004 0.56716,0.008 0.85076,0.008 0.27202,0 0.54403,-0.004 0.81026,-0.008 0.56139,-0.008 1.11699,-0.0386 1.67261,-0.0753 1.37743,-0.0984 2.74908,-0.2778 4.10337,-0.53824 1.79992,-0.33568 3.5767,-0.82183 5.30141,-1.45847 1.7189,-0.61348 3.39149,-1.37743 5.00044,-2.25715 1.29641,-0.6945 2.5581,-1.46425 3.72139,-2.35552 0.79869,-0.60191 1.55685,-1.26169 2.30924,-1.92148 l 12.11913,12.05549 c -0.2778,0.3646 -0.55559,0.72923 -0.81024,1.1112 -0.59034,0.87392 -1.06492,1.83466 -1.47583,2.81275 -0.4167,0.97232 -0.77553,1.96778 -1.04755,2.98638 -0.22572,0.81606 -0.39935,1.64945 -0.52088,2.48866 -0.16205,1.05911 -0.23728,2.12403 -0.23728,3.19472 0,0.8855 0.052,1.77678 0.16204,2.65649 0.0868,0.73502 0.21414,1.45846 0.38198,2.1819 0.16205,0.71767 0.36462,1.42375 0.59611,2.11826 0.191,0.57296 0.39935,1.14014 0.64821,1.68418 0.27781,0.64242 0.61348,1.26169 0.92601,1.88674 0.34147,0.68292 0.66558,1.37166 0.94337,2.08352 0.21993,0.56718 0.41091,1.1575 0.57296,1.74784 0.16784,0.59612 0.30674,1.19802 0.41092,1.80572 0.081,0.48615 0.15047,0.97809 0.19677,1.47004 0.0637,0.61348 0.0926,1.23275 0.0926,1.85201 0.008,2.4655 -0.44565,4.96573 -1.41216,7.24602 -0.71765,1.84624 -1.75941,3.54198 -3.03846,5.05255 -1.2559,1.52211 -2.74909,2.85326 -4.41592,3.9008 -1.33692,0.87392 -2.78959,1.55686 -4.30593,2.05458 -1.64366,0.5614 -3.36835,0.90286 -5.09306,0.94916 -0.32409,0.0193 -0.64241,0.0193 -0.96651,0.0231 h -2.49444 c -0.17363,0 -0.33568,0.004 -0.5093,0.004 -1.18067,0.0193 -2.3729,0.1215 -3.54198,0.31831 -1.117,0.17363 -2.22243,0.4225 -3.29891,0.75239 -1.08228,0.32411 -2.13561,0.72344 -3.1658,1.18066 -0.82762,0.36461 -1.63787,0.75816 -2.40184,1.23853 -0.43407,0.26044 -0.85076,1.20733 -1.26746,1.4967"
           style="fill:#ed1c24;fill-opacity:1;fill-rule:evenodd;stroke:none;stroke-width:2.32385"
           id="path5205-2"
           inkscape:connector-curvature="0" />
      </g>
      <g
         aria-label="M14"
         id="text1098"
         style="font-style:normal;font-variant:normal;font-weight:500;font-size:72.7667px;line-height:125%;font-family:'Russian Road Sign';text-align:end;letter-spacing:0px;word-spacing:0px;text-anchor:end;opacity:1;fill:#fdfdfd;fill-opacity:1;stroke:none;stroke-width:3.63608;stroke-opacity:1"
         transform="matrix(0.07276585,0,0,0.07276585,186.05395,102.43385)">
        <path
           d="m 160.41196,25.248539 h 7.13114 V -4.2947415 l 12.22481,21.3934095 12.2248,-21.3934095 0.50937,29.5432805 h 6.62177 v -40.749352 h -8.14987 L 179.76791,3.345762 168.56183,-15.500813 h -8.14987 z"
           style="text-align:end;text-anchor:end;fill:#fdfdfd;fill-opacity:1;stroke:none;stroke-width:3.63608;stroke-opacity:1"
           id="path3590" />
        <path
           d="m 205.97984,-6.0411423 2.4013,3.1289681 5.4575,-3.420035 V 25.248539 h 7.13114 v -40.749352 h -6.11241 z"
           style="text-align:end;text-anchor:end;fill:#fdfdfd;fill-opacity:1;stroke:none;stroke-width:3.63608;stroke-opacity:1"
           id="path3592" />
      </g>
      <g
         style="font-size:8.39924px;line-height:97.02%;font-family:'Russian Road Sign';-inkscape-font-specification:'Russian Road Sign';text-align:center;text-anchor:middle;opacity:1;fill:#ffffff;fill-opacity:1;stroke-width:0.0700042"
         id="text3188"
         aria-label="7">
        <path
           id="path4172"
           style="fill:#ffffff;fill-opacity:1;stroke-width:0.0700042"
           d="m 179.32532,87.109608 h 2.17541 c -0.64675,1.058304 -1.35228,2.528171 -1.58746,3.939243 h 0.88192 c 0.35277,-1.705046 0.94071,-2.939734 1.52866,-4.115627 v -0.587947 h -2.82214 z" />
      </g>
      <g
         style="font-size:5.3438px;line-height:97.02%;font-family:'Russian Road Sign';-inkscape-font-specification:'Russian Road Sign';text-align:center;letter-spacing:-0.463021px;text-anchor:middle;opacity:1;stroke-width:0.0700042"
         id="text3804"
         aria-label="Leușeni 87 km">
        <path
           id="path4124"
           style="stroke-width:0.0700042"
           d="m 174.26561,97.717239 h 1.87033 V 97.26836 h -1.34664 v -2.543649 h -0.52369 z" />
        <path
           id="path4126"
           style="stroke-width:0.0700042"
           d="m 177.35571,95.921723 c 0.22444,0 0.48629,0.229783 0.48629,0.448879 0,0.03741 -0.0107,0.07481 -0.0374,0.07481 h -0.93516 c 0,-0.299253 0.26184,-0.523692 0.48628,-0.523692 z m 0.86036,0.897758 c 0.0641,0 0.11222,-0.11222 0.11222,-0.22444 0,-0.561099 -0.44888,-1.047384 -0.97258,-1.047384 -0.28322,0 -0.58781,0.149626 -0.7695,0.374066 -0.15497,0.187033 -0.21375,0.432847 -0.21375,0.769507 0,0.662631 0.46491,1.100823 1.02066,1.100823 0.26185,0 0.63591,-0.11222 0.86035,-0.486286 l -0.37406,-0.208408 c -0.14963,0.187033 -0.26185,0.283221 -0.44888,0.283221 -0.18704,0 -0.5611,-0.11222 -0.5611,-0.561099 z" />
        <path
           id="path4128"
           style="stroke-width:0.0700042"
           d="m 179.36103,97.754646 c 0.37406,0 0.62522,-0.283221 0.62522,-0.283221 0.0321,0.05878 0.0534,0.15497 0.0748,0.245814 h 0.38475 V 95.62247 h -0.44888 v 1.346637 c -0.11222,0.22444 -0.30994,0.411473 -0.52369,0.411473 -0.22444,0 -0.29926,-0.187033 -0.29926,-0.299253 V 95.62247 h -0.44887 v 1.496264 c 0,0.374066 0.22444,0.635912 0.63591,0.635912 z" />
        <path
           id="path4130"
           style="stroke-width:0.0700042"
           d="m 181.53651,98.112681 c -0.16566,0 -0.29925,0.133595 -0.29925,0.299252 0,0.165658 0.13359,0.299253 0.29925,0.299253 0.0374,0 0.0802,-0.0053 0.11222,-0.02137 v 0.03741 c 0,0.187033 -0.23513,0.331315 -0.23513,0.331315 l 0.0374,0.09085 c 0,0 0.40078,-0.22444 0.40078,-0.598506 0,-0.261846 -0.0855,-0.336659 -0.11756,-0.363378 -0.0534,-0.04275 -0.12291,-0.07481 -0.19772,-0.07481 z m -0.92448,-0.694694 c 0,0 0.33666,0.35269 0.93517,0.35269 0.49697,0 0.82294,-0.390097 0.82294,-0.68935 0,-0.331315 -0.17634,-0.486286 -0.66797,-0.614537 -0.26185,-0.06947 -0.51301,-0.09619 -0.51301,-0.283221 0,-0.106876 0.1336,-0.240471 0.39544,-0.240471 0.18704,0 0.42216,0.138939 0.49698,0.213752 l 0.26184,-0.299253 c 0,0 -0.29925,-0.299253 -0.79622,-0.299253 -0.51301,0 -0.82295,0.363379 -0.82295,0.662631 0,0.22444 0.0908,0.518349 0.67866,0.614537 0.42751,0.06947 0.48095,0.171002 0.48095,0.283222 0,0.149626 -0.18704,0.277877 -0.37407,0.277877 -0.2565,0 -0.52369,-0.203064 -0.60385,-0.277877 z" />
        <path
           id="path4132"
           style="stroke-width:0.0700042"
           d="m 183.55443,95.921723 c 0.22444,0 0.48629,0.229783 0.48629,0.448879 0,0.03741 -0.0107,0.07481 -0.0374,0.07481 h -0.93517 c 0,-0.299253 0.26185,-0.523692 0.48629,-0.523692 z m 0.86035,0.897758 c 0.0641,0 0.11222,-0.11222 0.11222,-0.22444 0,-0.561099 -0.44888,-1.047384 -0.97257,-1.047384 -0.28322,0 -0.58782,0.149626 -0.76951,0.374066 -0.15497,0.187033 -0.21375,0.432847 -0.21375,0.769507 0,0.662631 0.46491,1.100823 1.02067,1.100823 0.26184,0 0.63591,-0.11222 0.86035,-0.486286 l -0.37407,-0.208408 c -0.14962,0.187033 -0.26184,0.283221 -0.44888,0.283221 -0.18703,0 -0.5611,-0.11222 -0.5611,-0.561099 z" />
        <path
           id="path4134"
           style="stroke-width:0.0700042"
           d="m 186.00862,95.585063 c -0.37406,0 -0.62522,0.283222 -0.62522,0.283222 -0.0374,-0.05344 -0.0588,-0.149627 -0.0748,-0.245815 h -0.38476 v 2.094769 h 0.44888 v -1.346637 c 0.11222,-0.22444 0.3046,-0.411473 0.52369,-0.411473 0.22444,0 0.29926,0.187033 0.29926,0.299253 v 1.458857 h 0.44888 v -1.496264 c 0,-0.374066 -0.22444,-0.635912 -0.63592,-0.635912 z" />
        <path
           id="path4136"
           style="stroke-width:0.0700042"
           d="m 187.47872,94.93312 c 0,-0.176346 -0.14962,-0.325972 -0.32597,-0.325972 -0.18169,0 -0.32597,0.149626 -0.32597,0.325972 0,0.181689 0.14428,0.325971 0.32597,0.325971 0.17635,0 0.32597,-0.144282 0.32597,-0.325971 z m -0.55041,2.784119 h 0.44888 V 95.62247 h -0.44888 z" />
        <path
           id="path4138"
           style="stroke-width:0.0700042"
           d="m 175.89784,99.871859 c -0.48628,0 -0.93516,0.261851 -0.93516,0.785541 0,0.52369 0.52369,0.67332 0.52369,0.67332 0,0 -0.5985,0.22444 -0.5985,0.74813 0,0.37406 0.26184,0.86035 1.00997,0.86035 0.74814,0 1.00998,-0.48629 1.00998,-0.86035 0,-0.52369 -0.5985,-0.74813 -0.5985,-0.74813 0,0 0.52369,-0.14963 0.52369,-0.67332 0,-0.52369 -0.44888,-0.785541 -0.93517,-0.785541 z m 0,0.427501 c 0.22444,0 0.41148,0.0962 0.41148,0.35804 0,0.22444 -0.41148,0.44888 -0.41148,0.44888 0,0 -0.41147,-0.22444 -0.41147,-0.44888 0,-0.26185 0.18703,-0.35804 0.41147,-0.35804 z m 0,1.2558 c 0,0 0.48629,0.26184 0.48629,0.5611 0,0.26184 -0.26185,0.37406 -0.48629,0.37406 -0.22444,0 -0.48628,-0.11222 -0.48628,-0.37406 0,-0.26185 0.48628,-0.5611 0.48628,-0.5611 z" />
        <path
           id="path4140"
           style="stroke-width:0.0700042"
           d="m 177.04281,100.39555 h 1.38404 c -0.41147,0.67332 -0.86035,1.60849 -1.00998,2.50624 h 0.5611 c 0.22444,-1.08479 0.59851,-1.87033 0.97257,-2.61846 v -0.374064 h -1.79551 z" />
        <path
           id="path4142"
           style="stroke-width:0.0700042"
           d="m 181.45104,99.909266 v 2.992524 h 0.44888 v -1.11685 l 0.70004,1.11685 h 0.5611 l -0.73744,-1.10616 0.72141,-0.98861 h -0.55041 l -0.6947,0.9512 v -1.848954 z" />
        <path
           id="path4144"
           style="stroke-width:0.0700042"
           d="m 184.49681,100.76962 c -0.37406,0 -0.58782,0.28322 -0.58782,0.28322 -0.0374,-0.0534 -0.0588,-0.14963 -0.0748,-0.24582 h -0.38475 v 2.09477 h 0.44888 v -1.34663 c 0.11222,-0.22444 0.26719,-0.41148 0.48628,-0.41148 0.22444,0 0.26185,0.18704 0.26185,0.29926 v 1.45885 h 0.44888 v -1.34663 c 0.11222,-0.22444 0.26719,-0.41148 0.48628,-0.41148 0.22444,0 0.26185,0.18704 0.26185,0.29926 v 1.45885 h 0.44888 v -1.49626 c 0,-0.37407 -0.18703,-0.63591 -0.59851,-0.63591 -0.27787,0 -0.5611,0.14962 -0.63591,0.37406 -0.0748,-0.22444 -0.27253,-0.37406 -0.5611,-0.37406 z" />
      </g>
      <g
         style="font-size:5.3438px;line-height:97.02%;font-family:'Russian Road Sign';-inkscape-font-specification:'Russian Road Sign';text-align:center;letter-spacing:-0.463021px;text-anchor:middle;opacity:1;stroke-width:0.0700042"
         id="text3812"
         aria-label="Suruceni 12 km">
        <path
           id="path4147"
           style="stroke-width:0.0700042"
           d="m 173.19211,109.43919 c 0,0 0.50231,0.52369 1.17563,0.52369 0.74813,0 1.14892,-0.5611 1.14892,-0.93516 0,-0.44888 -0.32597,-0.74813 -0.84967,-0.86035 -0.41147,-0.0855 -0.78553,-0.1336 -0.78553,-0.42216 0,-0.14429 0.11222,-0.4382 0.56109,-0.4382 0.3901,0 0.66264,0.29926 0.66264,0.29926 l 0.34734,-0.37407 c 0,0 -0.48628,-0.41147 -1.00998,-0.41147 -0.63591,0 -1.08479,0.41147 -1.08479,0.93516 0,0.22979 0.10154,0.71607 0.93517,0.83898 0.66797,0.0962 0.67332,0.34735 0.67332,0.46491 v 0.005 c 0,0.11222 -0.12825,0.41148 -0.58782,0.41148 -0.52369,0 -0.8176,-0.35269 -0.8176,-0.35269 z" />
        <path
           id="path4149"
           style="stroke-width:0.0700042"
           d="m 176.51216,109.92548 c 0.37407,0 0.62523,-0.28323 0.62523,-0.28323 0.0321,0.0588 0.0534,0.15497 0.0748,0.24582 h 0.38475 v -2.09477 h -0.44888 v 1.34664 c -0.11222,0.22444 -0.30994,0.41147 -0.52369,0.41147 -0.22444,0 -0.29925,-0.18703 -0.29925,-0.29925 v -1.45886 h -0.44888 v 1.49626 c 0,0.37407 0.22444,0.63592 0.63591,0.63592 z" />
        <path
           id="path4151"
           style="stroke-width:0.0700042"
           d="m 178.92811,107.75589 c -0.37406,0 -0.58782,0.28322 -0.58782,0.28322 -0.0374,-0.0534 -0.0588,-0.14962 -0.0748,-0.24581 h -0.38475 v 2.09477 h 0.44888 v -1.34664 c 0.11222,-0.22444 0.26719,-0.33666 0.48628,-0.33666 0.11222,0 0.22444,0 0.29926,0.0748 l 0.14962,-0.44888 c -0.10153,-0.0695 -0.18703,-0.0748 -0.33666,-0.0748 z" />
        <path
           id="path4153"
           style="stroke-width:0.0700042"
           d="m 180.26194,109.92548 c 0.37407,0 0.62523,-0.28323 0.62523,-0.28323 0.0321,0.0588 0.0534,0.15497 0.0748,0.24582 h 0.38476 v -2.09477 h -0.44888 v 1.34664 c -0.11222,0.22444 -0.30994,0.41147 -0.5237,0.41147 -0.22444,0 -0.29925,-0.18703 -0.29925,-0.29925 v -1.45886 h -0.44888 v 1.49626 c 0,0.37407 0.22444,0.63592 0.63591,0.63592 z" />
        <path
           id="path4155"
           style="stroke-width:0.0700042"
           d="m 182.52827,107.71849 c -0.5611,0 -1.00998,0.44888 -1.00998,1.12219 0,0.67332 0.44888,1.1222 1.00998,1.1222 0.41681,0 0.75347,-0.23512 0.89776,-0.63591 l -0.42216,-0.16031 c -0.0802,0.27253 -0.25116,0.42216 -0.4756,0.42216 -0.29925,0 -0.52369,-0.29926 -0.52369,-0.74814 0,-0.44887 0.22444,-0.74813 0.52369,-0.74813 0.22444,0 0.39544,0.14963 0.4756,0.42216 l 0.42216,-0.16031 c -0.14429,-0.40079 -0.48095,-0.63591 -0.89776,-0.63591 z" />
        <path
           id="path4157"
           style="stroke-width:0.0700042"
           d="m 184.6119,108.09255 c 0.22444,0 0.48629,0.22979 0.48629,0.44888 0,0.0374 -0.0107,0.0748 -0.0374,0.0748 h -0.93516 c 0,-0.29925 0.26184,-0.52369 0.48628,-0.52369 z m 0.86035,0.89776 c 0.0641,0 0.11222,-0.11222 0.11222,-0.22444 0,-0.5611 -0.44888,-1.04738 -0.97257,-1.04738 -0.28322,0 -0.58782,0.14962 -0.76951,0.37406 -0.15497,0.18704 -0.21375,0.43285 -0.21375,0.76951 0,0.66263 0.46491,1.10082 1.02067,1.10082 0.26184,0 0.63591,-0.11222 0.86035,-0.48628 l -0.37407,-0.20841 c -0.14962,0.18703 -0.26184,0.28322 -0.44888,0.28322 -0.18703,0 -0.56109,-0.11222 -0.56109,-0.5611 z" />
        <path
           id="path4159"
           style="stroke-width:0.0700042"
           d="m 187.06609,107.75589 c -0.37406,0 -0.62522,0.28322 -0.62522,0.28322 -0.0374,-0.0534 -0.0588,-0.14962 -0.0748,-0.24581 h -0.38476 v 2.09477 h 0.44888 v -1.34664 c 0.11222,-0.22444 0.3046,-0.41147 0.5237,-0.41147 0.22443,0 0.29925,0.18703 0.29925,0.29925 v 1.45886 h 0.44888 v -1.49626 c 0,-0.37407 -0.22444,-0.63592 -0.63592,-0.63592 z" />
        <path
           id="path4161"
           style="stroke-width:0.0700042"
           d="m 188.53619,107.10395 c 0,-0.17635 -0.14962,-0.32597 -0.32597,-0.32597 -0.18169,0 -0.32597,0.14962 -0.32597,0.32597 0,0.18169 0.14428,0.32597 0.32597,0.32597 0.17635,0 0.32597,-0.14428 0.32597,-0.32597 z m -0.55041,2.78412 h 0.44888 v -2.09477 h -0.44888 z" />
        <path
           id="path4163"
           style="stroke-width:0.0700042"
           d="m 174.98572,112.77479 0.17635,0.22978 0.40078,-0.25116 v 2.31921 h 0.5237 v -2.99252 h -0.44888 z" />
        <path
           id="path4165"
           style="stroke-width:0.0700042"
           d="m 176.56011,112.49157 0.29925,0.33666 c 0.18704,-0.18704 0.37407,-0.3901 0.59851,-0.3901 0.26184,0 0.43285,0.20306 0.43285,0.3901 0,0.29925 -0.1336,0.44888 -0.31529,0.66263 -0.33666,0.40078 -0.67866,0.75882 -1.09013,1.13288 v 0.44888 h 1.79551 c 0.0748,-0.18703 0.11222,-0.37406 0.11222,-0.48628 h -1.23441 c 0.38475,-0.40613 0.73744,-0.7321 0.97257,-1.03136 0.19237,-0.23512 0.26184,-0.35269 0.26184,-0.72675 0,-0.44888 -0.44888,-0.78554 -0.86035,-0.78554 -0.44888,0 -0.74813,0.19238 -0.97257,0.44888 z" />
        <path
           id="path4167"
           style="stroke-width:0.0700042"
           d="m 181.07531,112.0801 v 2.99252 h 0.44888 v -1.11685 l 0.70004,1.11685 h 0.56109 l -0.73744,-1.10616 0.72141,-0.98861 h -0.55041 l -0.69469,0.9512 v -1.84895 z" />
        <path
           id="path4169"
           style="stroke-width:0.0700042"
           d="m 184.12108,112.94045 c -0.37407,0 -0.58782,0.28322 -0.58782,0.28322 -0.0374,-0.0534 -0.0588,-0.14963 -0.0748,-0.24582 h -0.38476 v 2.09477 h 0.44888 v -1.34663 c 0.11222,-0.22444 0.26719,-0.41148 0.48629,-0.41148 0.22444,0 0.26184,0.18704 0.26184,0.29926 v 1.45885 h 0.44888 v -1.34663 c 0.11222,-0.22444 0.26719,-0.41148 0.48629,-0.41148 0.22444,0 0.26184,0.18704 0.26184,0.29926 v 1.45885 h 0.44888 v -1.49626 c 0,-0.37407 -0.18703,-0.63591 -0.5985,-0.63591 -0.27788,0 -0.5611,0.14962 -0.63591,0.37406 -0.0748,-0.22444 -0.27254,-0.37406 -0.5611,-0.37406 z" />
      </g>
      <g
         style="font-size:5.34378px;line-height:86.02%;font-family:'Russian Road Sign';-inkscape-font-specification:'Russian Road Sign';text-align:center;letter-spacing:-0.463019px;text-anchor:middle;opacity:1;stroke-width:0.0700042"
         id="text3990"
         aria-label="Vatra 10 km" />
      <g
         inkscape:groupmode="layer"
         transform="translate(111.24596,0.55103308)"
         style="font-size:5.34378px;line-height:89.02%;font-family:'Russian Road Sign';-inkscape-font-specification:'Russian Road Sign';text-align:center;letter-spacing:-0.632354px;text-anchor:middle;opacity:1;stroke-width:0.0700042"
         id="text3893"
         aria-label="Lopatnic 24 km" />
    </g>
  </g>
</svg>
