<?xml version="1.0" encoding="UTF-8" standalone="no"?>
<!-- Created with Inkscape (http://www.inkscape.org/) -->

<svg
   xmlns:dc="http://purl.org/dc/elements/1.1/"
   xmlns:cc="http://creativecommons.org/ns#"
   xmlns:rdf="http://www.w3.org/1999/02/22-rdf-syntax-ns#"
   xmlns:svg="http://www.w3.org/2000/svg"
   xmlns="http://www.w3.org/2000/svg"
   version="1.1"
   width="601"
   height="601"
   id="svg3509">
  <defs
     id="defs3511" />
  <metadata
     id="metadata3514">
    <rdf:RDF>
      <cc:Work
         rdf:about="">
        <dc:format>image/svg+xml</dc:format>
        <dc:type
           rdf:resource="http://purl.org/dc/dcmitype/StillImage" />
        <dc:title></dc:title>
      </cc:Work>
    </rdf:RDF>
  </metadata>
  <g
     transform="translate(-29.81354,-272.80423)"
     id="layer1">
    <g
       id="g4291">
      <rect
         width="600"
         height="600"
         rx="37.5"
         ry="37.5"
         x="30.31354"
         y="273.30423"
         id="rect3519"
         style="fill:#ffffff;fill-opacity:1;fill-rule:nonzero;stroke:#000000;stroke-opacity:1" />
      <rect
         width="575"
         height="575"
         rx="31.25"
         ry="31.25"
         x="42.813541"
         y="285.80423"
         id="rect3521"
         style="fill:#006b54;fill-opacity:1;fill-rule:nonzero;stroke:none" />
    </g>
    <rect
       width="500"
       height="350"
       x="80.313538"
       y="473.30423"
       id="rect3517"
       style="fill:#ffffff;fill-opacity:1;fill-rule:nonzero;stroke:none" />
    <g
       id="text4295"
       style="font-size:148.80952454px;font-style:normal;font-variant:normal;font-weight:normal;font-stretch:normal;text-align:start;line-height:125%;letter-spacing:0px;word-spacing:0px;writing-mode:lr-tb;text-anchor:start;fill:#ffffff;fill-opacity:1;stroke:none;font-family:Roadgeek 2005 Series EM;-inkscape-font-specification:Roadgeek 2005 Series EM">
      <path
         d="m 155.0008,423.80423 -13.69047,-37.5 -26.19048,0 0,37.5 -19.642855,0 0,-100 45.089285,0 c 2.08327,10e-5 3.91859,0.0993 5.50595,0.29762 1.68644,0.0993 3.22414,0.29772 4.6131,0.59524 1.48802,0.29771 2.87691,0.74414 4.16666,1.33928 1.28961,0.49613 2.6289,1.14097 4.01786,1.93453 4.86103,2.77787 8.68047,6.5477 11.45834,11.30952 2.77768,4.76198 4.16657,9.97031 4.16666,15.625 -9e-5,5.45641 -1.24017,10.51593 -3.72024,15.17857 -2.48024,4.66275 -6.00206,8.48219 -10.56547,11.45833 l 15.77381,42.26191 -20.98215,0 m 0,-68.89881 c -7e-5,-3.17453 -1.19054,-5.8035 -3.57142,-7.8869 -2.38102,-2.18247 -5.40681,-3.27373 -9.07739,-3.27381 l -27.23214,0 0,22.61904 27.23214,0 c 3.67058,6e-5 6.69637,-1.0416 9.07739,-3.125 2.38088,-2.08327 3.57135,-4.86104 3.57142,-8.33333"
         id="path4300" />
      <path
         d="m 276.3759,373.80423 c -10e-5,7.93655 -0.99216,15.129 -2.97619,21.57738 -1.98422,6.34923 -4.8116,11.75597 -8.48215,16.22024 -3.5715,4.46429 -7.93658,7.93651 -13.09523,10.41667 -5.1588,2.38095 -10.86316,3.57142 -17.1131,3.57142 -7.53973,0 -13.98813,-1.43849 -19.34524,-4.31547 -5.25796,-2.97619 -9.57343,-6.89483 -12.94643,-11.75595 -3.37303,-4.8611 -5.85319,-10.36704 -7.44047,-16.51786 -1.48811,-6.24996 -2.23216,-12.64877 -2.23215,-19.19643 -1e-5,-7.83724 0.94245,-14.93049 2.82738,-21.27976 1.98412,-6.34913 4.76189,-11.75587 8.33334,-16.22024 3.67061,-4.46419 8.08529,-7.88681 13.24405,-10.26786 5.25789,-2.48006 11.11106,-3.72013 17.55952,-3.72024 6.05153,1.1e-4 11.60708,1.24018 16.66667,3.72024 5.05945,2.48026 9.42452,6.00208 13.09523,10.56548 3.76976,4.46437 6.69635,9.87111 8.77977,16.22024 2.08324,6.25006 3.1249,13.2441 3.125,20.98214 m -19.64286,-0.44643 c -7e-5,-10.81343 -1.9346,-18.70033 -5.80357,-23.66071 -3.76991,-4.96024 -9.17665,-7.4404 -16.22024,-7.44048 -7.1429,8e-5 -12.59925,2.62905 -16.36905,7.88691 -3.76987,5.258 -5.65479,13.1449 -5.65476,23.66071 -3e-5,10.21829 1.88489,18.10519 5.65476,23.66071 3.86901,5.45637 9.32535,8.18455 16.36905,8.18453 6.84518,2e-5 12.20232,-2.92657 16.07143,-8.77976 3.96818,-5.85315 5.95231,-13.69044 5.95238,-23.51191"
         id="path4302" />
      <path
         d="m 380.88669,382.88161 c -9e-5,5.05956 -0.39691,9.27583 -1.19047,12.64881 -0.79374,3.27383 -2.18263,6.64685 -4.16667,10.11905 -1.68659,2.9762 -3.76992,5.70438 -6.25,8.18452 -2.38103,2.38096 -5.0596,4.46429 -8.03571,6.25 -2.97626,1.78572 -6.15086,3.125 -9.52381,4.01786 -3.37308,0.99206 -6.8453,1.48809 -10.41667,1.48809 -5.4564,0 -10.66473,-1.04166 -15.625,-3.125 -4.86114,-2.08333 -9.17662,-4.9107 -12.94643,-8.48214 -3.76986,-3.57141 -6.79565,-7.73808 -9.07738,-12.5 -2.18255,-4.76188 -3.27382,-9.8214 -3.27381,-15.17857 l 0,-3.42262 0,-59.07738 19.64286,0 0,59.07738 0,2.82738 c -3e-5,2.67861 0.5952,5.25797 1.78571,7.7381 1.19044,2.38098 2.72814,4.51391 4.6131,6.39881 1.98408,1.78573 4.21622,3.22422 6.69643,4.31547 2.57931,0.99208 5.20828,1.48812 7.8869,1.4881 3.67058,2e-5 7.09319,-0.89284 10.26786,-2.67857 3.27374,-1.7857 5.8035,-4.26585 7.58929,-7.44048 0.49595,-0.99203 0.89278,-1.88489 1.19047,-2.67857 0.39675,-0.79362 0.64477,-1.63687 0.74405,-2.52976 0.19834,-0.99203 0.29754,-2.0337 0.29762,-3.125 0.0991,-1.19044 0.14873,-2.62893 0.14881,-4.31548 l 0,-59.07738 19.64285,0 0,59.07738 0,0"
         id="path4304" />
      <path
         d="m 445.54676,343.74471 0,80.05952 -19.19643,0 0,-80.05952 -27.67857,0 0,-19.94048 74.10714,0 0,19.94048 -27.23214,0"
         id="path4306" />
      <path
         d="m 491.04294,423.80423 0,-100 72.76786,0 0,19.94048 -53.125,0 0,16.36904 30.05952,0 0,19.94048 -30.05952,0 0,23.80952 54.46429,0 0,19.94048 -74.10715,0"
         id="path4308" />
    </g>
    <g
       id="text4310"
       style="font-size:297.61904907px;font-style:normal;font-variant:normal;font-weight:normal;font-stretch:normal;text-align:center;line-height:125%;letter-spacing:0px;word-spacing:0px;writing-mode:lr-tb;text-anchor:middle;fill:#000000;fill-opacity:1;stroke:none;font-family:Roadgeek 2005 Series EM;-inkscape-font-specification:Roadgeek 2005 Series EM">
      <path
         d="m 215.4326,748.30426 0,-135.71429 -19.64286,0 0,-40.47619 c 3.5714,-1.78553 6.44838,-3.37283 8.63095,-4.7619 2.18251,-1.58712 3.96822,-3.27363 5.35715,-5.05953 1.58726,-1.78552 2.97615,-3.76965 4.16666,-5.95238 1.19044,-2.18234 2.57932,-4.86091 4.16667,-8.03571 l 37.79762,0 0,200 -40.47619,0"
         id="path3063" />
      <path
         d="m 305.31356,748.30426 c 0.3968,-4.7619 0.79362,-8.92856 1.19047,-12.5 0.3968,-3.76982 0.79363,-7.24204 1.19048,-10.41667 0.59521,-3.37299 1.28966,-6.54759 2.08333,-9.52381 0.99204,-2.97615 2.08331,-6.15075 3.27381,-9.52381 4.16663,-12.30153 10.11901,-23.51184 17.85714,-33.63095 7.73804,-10.31737 16.96423,-18.94832 27.67858,-25.89286 3.76976,-2.77767 7.93642,-5.25783 12.5,-7.44047 4.76181,-2.18243 9.62291,-4.36497 14.58333,-6.54762 l 7.73809,-3.57143 7.14286,-2.08333 6.84524,-2.67857 c 5.75384,-2.57924 10.21812,-5.45622 13.39286,-8.63096 3.17446,-3.37288 4.76176,-6.8451 4.7619,-10.41666 -1.4e-4,-5.95224 -3.67077,-10.81334 -11.0119,-14.58334 -7.14298,-3.76968 -16.46837,-5.6546 -27.97619,-5.65476 -5.15883,1.6e-4 -9.92073,0.39699 -14.28572,1.19048 -4.36516,0.5954 -8.63103,1.68667 -12.79762,3.27381 -4.16674,1.58746 -8.3334,3.67079 -12.5,6.25 -4.16672,2.57951 -8.73021,5.75411 -13.69047,9.52381 l -27.97619,-29.16667 c 3.37299,-2.38078 6.34917,-4.46411 8.92857,-6.25 2.57933,-1.98395 4.96028,-3.67045 7.14285,-5.05952 2.1825,-1.38871 4.26584,-2.57918 6.25,-3.57143 1.98409,-1.19029 4.06742,-2.28156 6.25,-3.27381 15.87295,-8.53155 33.82929,-12.79742 53.86905,-12.79762 12.6983,2e-4 24.30543,1.68671 34.82143,5.05952 10.71414,3.37321 19.44429,8.23432 26.19048,14.58334 5.15856,4.96049 9.12681,10.61525 11.90476,16.96428 2.7776,6.34937 4.16648,13.78984 4.16667,22.32143 -1.9e-4,14.68267 -4.66288,27.18266 -13.9881,37.5 -9.12714,10.31756 -23.41284,18.75009 -42.85714,25.29762 -5.55568,2.18262 -10.21837,4.06754 -13.9881,5.65476 -3.76995,1.58738 -7.04375,3.17468 -9.82143,4.76191 -2.57946,1.38895 -5.05962,2.97625 -7.44047,4.7619 -2.18263,1.78578 -4.56358,3.96832 -7.14286,6.54762 -3.17469,3.17466 -5.85325,6.25005 -8.03571,9.22619 -2.18262,2.97624 -4.36516,6.44846 -6.54762,10.41667 l 111.90476,0 0,39.88095 -161.60714,0"
         id="path3065" />
    </g>
  </g>
</svg>
