<?xml version="1.0" encoding="UTF-8"?>
<svg width="451" height="601.8" version="1.1" viewBox="0 0 451 601.8" xml:space="preserve" xmlns="http://www.w3.org/2000/svg"><g transform="matrix(1.333 0 0 -1.333 .096 601.7)"><path d="m0.3031 451h337.6v-369.94c0-11.94-5.4-22.91-13.5-30.74-8.2-7.83-19-12.17-30.2-12.17h-84.3c-8.1 0-15.5-2.92-20.9-8.33-5.3-5.38-8.1-12.82-8.1-20.854v-8.6555h-23.6v8.6555c0 8.034-2.9 15.474-8.1 20.854-5.4 5.41-12.8 8.33-20.9 8.33h-84.28c-11.26 0-22.05 4.34-30.18 12.17-8.162 7.83-13.537 18.8-13.537 30.74v369.94" fill="#fff" fill-rule="evenodd" stroke="#231f20" stroke-width=".7502"/><path d="m0.3031 451h337.6v-369.94c0-11.94-5.4-22.91-13.5-30.74-8.2-7.83-19-12.17-30.2-12.17h-84.3c-8.1 0-15.5-2.92-20.9-8.33-5.3-5.38-8.1-12.82-8.1-20.854v-8.6555h-23.6v8.6555c0 8.034-2.9 15.474-8.1 20.854-5.4 5.41-12.8 8.33-20.9 8.33h-84.28c-11.26 0-22.05 4.34-30.18 12.17-8.162 7.83-13.537 18.8-13.537 30.74z" fill="none" stroke-miterlimit="2.6131" stroke-width=".679"/><path d="m8.739 320.6v-239.66c0.315-9.31 4.221-18.17 10.921-24.59 6.58-6.28 15.27-9.83 24.33-9.83h84.31c10 0.31 19.8-3.62 26.9-10.85 7-7.12 10.8-16.83 10.5-26.843h6.8c-0.4 10.013 3.5 19.723 10.5 26.843 7.1 7.23 16.8 11.13 26.9 10.85h84.2c9.1 0 17.8 3.55 24.3 9.83 6.9 6.42 10.7 15.28 11 24.59v239.66z" fill="#006a51" fill-rule="evenodd" stroke-width=".3143"/><path transform="matrix(.7502 0 0 -.7502 -.072 451.4)" d="m11.78 11.81v149.59h427.42v-149.59h-427.42zm86.04 24.66c1.09 1.2 2.18 2.54 3.28 3.74 1.2 1.33 2.3 2.52 3.5 4.26 1.3 1.2 2.4 2.94 3.4 4.54 0.9 1.73 1.7 3.32 2.3 5.45 0.8 2.54 1.1 5.49 0.9 8.82-0.4 2.93-1.2 6.26-2.7 8.79-1.5 2.93-2.9 5.85-4 8.39-1.1 2.93-2 5.88-2.7 8.81-0.5 2.54-0.9 5.07-1.1 8 0 2.54-0.4 5.13 0 7.53h4c0-3 0-6.34 0.5-9.27 0.4-2.93 1.2-5.87 2.2-8.8 0.9-2.93 2.4-5.45 4.4-7.45 2.1-2.54 4.9-4.28 8-5.08 3.4-0.8 7.1-0.39 10.3 0.81 3.8 1.73 6.9 5.06 8.2 9.19 1.1 3.33 1 7.21-0.5 10.54-1.7 3.73-4.9 6.66-8.8 8.46 0.5-2.6 0-4.74-1.1-6.74-1.1-2.13-3-3.87-5.2-4.67-2.1-0.4-4.3-0.39-6.3 0.41s-3.6 2.53-4.7 4.26c-0.6 1.2-1.1 2.41-1.5 4.14-0.4 1.2-0.6 3-0.5 4.7l10.6-0.5v8.4l-17.7-0.4h-0.2v0.4c0 2.5 1.7 5.4 4.2 6.8 1.9 1.2 4.2 1.6 6.4 1.2-0.4 2.1-2 4.1-4.2 4.6-1.9 0.8-4.1 0.4-5.7-0.9 0 2.5-0.5 5.1-1.5 7.2-1 2-2.4 3.7-4.07 4.9-1.63-1.6-2.94-3.3-3.9-4.9-1.09-2.1-1.64-4.7-1.64-7.2-1.66 1.3-3.77 1.7-5.69 0.9-2.23-0.5-3.85-2.5-4.28-4.6 2.23 0.4 4.57 0 6.55-1.2 2.46-1.4 4.01-4.3 4.1-7.2l-17.69 0.4v-8.4l10.65 0.5c0-1.7 0.01-3.5-0.5-4.7-0.43-1.73-0.88-2.94-1.6-4.14-1-1.73-2.55-2.93-4.44-4.26-2.01-0.8-4.32-0.81-6.41-0.41-2.18 0.8-4.01 2.55-5.19 4.15-1.17 2.13-1.56 4.66-1.09 7.26-4.03-1.8-7.29-4.73-8.89-8.46-1.34-3.33-1.47-7.21-0.41-10.54 1.34-4.13 4.31-7.46 8.21-9.19 3.22-1.6 6.87-1.61 10.26-0.81 3.07 0.8 5.83 2.54 8.01 5.08 2 2 3.52 4.52 4.35 7.45 0.97 2.93 1.68 5.87 2.1 8.8 0.46 2.93 0.63 6.27 0.5 9.27h4.16v-7.53c0-2.53-0.51-5.46-1.02-8-0.66-2.93-1.58-5.88-2.68-8.81-1.13-2.54-2.52-5.46-4.06-8.39-1.51-2.53-2.43-5.87-2.72-9.2-0.43-2.93 0-5.87 0.96-8.41 0.58-2.13 1.34-3.72 2.3-5.45 0.96-1.6 2.18-2.94 3.44-4.54 1.26-1.74 2.68-2.94 3.94-4.67 1.01-1.2 2.01-2.13 2.97-3.33zm127.78 0.02c1.2 1.2 2.3 2.53 3.4 3.73 1.2 1.33 2.4 2.53 3.4 4.27 1.4 1.2 2.6 2.94 3.5 4.54 0.9 1.73 1.7 3.32 2.3 5.45 0.9 2.54 1.2 5.48 0.9 8.81-0.4 2.93-1.2 6.27-2.7 8.8-1.6 2.93-2.9 5.85-4 8.39-1 2.93-2 5.87-2.8 8.8-0.5 2.54-0.8 5.07-1 8 0 2.54-0.4 5.12 0 7.52h4c0-3 0-6.33 0.5-9.26s1.2-5.86 2.3-8.79c0.8-2.93 2.2-5.46 4.4-7.46 2.1-2.54 4.9-4.28 8-5.08 3.4-0.8 7-0.39 10.2 0.81 3.9 1.73 7 5.06 8.3 9.19 1.1 3.33 0.8 7.21-0.5 10.54-1.8 3.73-5 6.65-9 8.45 0.6-2.6 0-4.73-0.9-6.73-1.2-2.13-3.1-3.86-5.2-4.66-2.1-0.4-4.4-0.4-6.4 0.4-1.9 0.8-3.6 2.53-4.7 4.26-0.6 1.2-1 2.41-1.4 4.13-0.4 1.2-0.6 3-0.6 4.7l10.7-0.5v8.4l-17.7-0.4h-0.3v0.4c0 2.5 1.7 5.4 4.1 6.8 2 1.2 4.3 1.6 6.6 1.2-0.6 2.1-2.2 4.1-4.3 4.6-1.9 0.8-4.1 0.4-5.7-0.9 0 2.5-0.4 5.1-1.5 7.2-0.9 2-2.4 3.7-4.1 4.9-1.6-1.6-2.8-3.3-3.9-4.9-1.1-2.1-1.6-4.7-1.6-7.2-1.6 1.3-3.9 1.7-5.7 0.9-2.2-0.5-3.9-2.5-4.3-4.6 2.3 0.4 4.7 0 6.5-1.2 2.6-1.4 4-4.3 4.2-7.2l-17.8 0.4v-8.4l10.7 0.5c0-1.7 0-3.5-0.4-4.7-0.5-1.72-0.9-2.93-1.6-4.13-1.1-1.73-2.7-2.93-4.5-4.26-2-0.8-4.3-0.8-6.4-0.4-2.2 0.8-4 2.54-5.2 4.14-1.2 2.13-1.6 4.65-1.1 7.25-4-1.8-7.3-4.72-8.9-8.45-1.4-3.33-1.5-7.21-0.4-10.54 1.3-4.13 4.4-7.46 8.2-9.19 3.2-1.6 6.8-1.61 10.3-0.81 3.1 0.8 5.9 2.54 8 5.08 2 2 3.5 4.53 4.4 7.46s1.6 5.86 2 8.79c0.5 2.93 0.7 6.26 0.5 9.26h4.2v-7.52c0-2.53-0.6-5.46-1.1-8-0.7-2.93-1.5-5.87-2.5-8.8-1.2-2.54-2.6-5.46-4.2-8.39-1.6-2.53-2.4-5.88-2.6-9.21 0-2.93 0-5.86 0.9-8.4 0.5-2.13 1.3-3.72 2.3-5.45 0.9-1.6 2.1-2.94 3.4-4.54 1.2-1.74 2.7-2.94 3.9-4.67 1.1-1.2 2.1-2.13 2.9-3.33zm128.3 0.02c1.2 1.2 2.2 2.53 3.3 3.73 1.2 1.33 2.4 2.53 3.5 4.27 1.3 1.2 2.4 2.93 3.4 4.53 1 1.73 1.8 3.33 2.3 5.46 0.9 2.54 1.2 5.47 0.9 8.8-0.4 2.93-1.2 6.27-2.6 8.8-1.6 2.93-3 5.86-4 8.4-1.2 2.93-2 5.86-2.8 8.79-0.6 2.54-0.8 5.07-1.1 8v7.51h4c0-3 0-6.31 0.5-9.24 0.4-2.93 1.2-5.87 2.3-8.8 0.8-2.93 2.3-5.46 4.4-7.46 2.1-2.54 4.9-4.27 7.9-5.07 3.4-0.8 7.2-0.4 10.4 0.8 3.8 1.73 6.9 5.07 8.2 9.2 1.1 3.33 0.8 7.2-0.5 10.53-1.7 3.73-4.9 6.64-8.9 8.44 0.5-2.6 0-4.71-1-6.71-1.2-2.13-3-3.86-5.3-4.66-2-0.4-4.3-0.4-6.3 0.4s-3.6 2.53-4.6 4.26c-0.7 1.2-1.1 2.4-1.5 4.11-0.4 1.2-0.5 3-0.5 4.7l10.5-0.5v8.4l-17.6-0.4h-0.3v0.4c0 2.5 1.8 5.4 4.2 6.8 2 1.2 4.2 1.6 6.4 1.2-0.4 2.1-2 4.1-4.2 4.6-1.8 0.8-4.1 0.4-5.7-0.9 0 2.5-0.4 5.1-1.5 7.2-1 2-2.4 3.7-4.1 4.9-1.6-1.6-2.9-3.3-3.9-4.9-1-2.1-1.6-4.7-1.6-7.2-1.7 1.3-3.8 1.7-5.7 0.9-2.1-0.5-3.9-2.5-4.3-4.6 2.3 0.4 4.6 0 6.6-1.2 2.4-1.4 4-4.3 4.1-7.2l-17.7 0.4v-8.4l10.6 0.5c0-1.7 0-3.5-0.5-4.7-0.4-1.71-0.8-2.91-1.6-4.11-0.9-1.73-2.5-2.93-4.4-4.26-2-0.8-4.3-0.8-6.4-0.4-2.3 0.8-4 2.53-5.2 4.13-1.2 2.13-1.6 4.64-1.1 7.24-4-1.8-7.3-4.71-8.9-8.44-1.3-3.33-1.4-7.2-0.4-10.53 1.3-4.13 4.3-7.47 8.3-9.2 3.2-1.6 6.8-1.6 10.2-0.8 3.1 0.8 5.8 2.53 8 5.07 2 2 3.5 4.53 4.3 7.46 1.1 2.93 1.7 5.87 2.1 8.8 0.6 2.93 0.7 6.24 0.6 9.24h4.1v-7.51c0-2.53-0.5-5.46-1.1-8-0.6-2.93-1.4-5.86-2.6-8.79-1.1-2.54-2.4-5.47-4-8.4-1.6-2.53-2.6-5.87-2.8-9.2-0.4-2.93 0-5.86 1-8.4 0.6-2.13 1.4-3.73 2.3-5.46 0.9-1.6 2.1-2.93 3.5-4.53 1.2-1.74 2.6-2.94 3.8-4.67 1.1-1.2 2-2.13 3-3.33z" fill="#006a51" fill-rule="evenodd" stroke-width=".419"/><g transform="scale(1,-1)" fill="#fff" stroke-width="5.6236" aria-label="105"><path d="m44.97-262.5h14.17v150h-20.92v-123.7h-8.99v-16.7q6.3-1.8 9.22-3.3 2.92-1.8 6.52-6.3z"/><path d="m147.9-265.5q11 0 19.8 5.7 8.7 5.6 13.7 15.5 9.9 20.2 9.9 56.9 0 40.3-11.7 60.1-4.7 8.3-13.3 13-8.5 4.7-18.6 4.7-11.1 0-19.8-5.6-8.8-5.6-13.8-15.5-9.9-20.5-9.9-57.6 0-39.4 11.7-59.4 4.8-8.3 13.3-13 8.8-4.8 18.7-4.8zm0 21.4q-11.7 0-16.2 10.6-6.8 16.6-6.8 45.4 0 30.4 6.8 46.6 4.5 10.6 16.2 10.6t15.9-10.6q6.8-17.1 6.8-45.9 0-30.1-6.8-46.1-4.5-10.6-15.9-10.6z"/><path d="m307.7-262.5v20.9h-49.7l-1.3 31.5q9.2-2.5 15.5-2.5 18.2 0 30.1 13 12 12.9 12 32.4 0 13.1-5 25.7-4.7 12.4-12.8 20.2-5.6 5.4-14.6 8.8-8.8 3.1-17.6 3.1-9.9 0-20.2-3.8-5.4-2.4-12.4-9l14.4-15.7q9.9 6.7 19.1 6.7 11.7 0 19.6-10.1 8.1-10.3 8.1-25.6 0-11.3-6.3-18-6.1-6.8-16.4-6.8-8.3 0-17.1 7.2h-18.5l3.2-78z"/></g></g></svg>
