<?xml version="1.0" encoding="UTF-8" standalone="no"?>
<!-- Created with Inkscape (http://www.inkscape.org/) -->

<svg
   xmlns:dc="http://purl.org/dc/elements/1.1/"
   xmlns:cc="http://creativecommons.org/ns#"
   xmlns:rdf="http://www.w3.org/1999/02/22-rdf-syntax-ns#"
   xmlns:svg="http://www.w3.org/2000/svg"
   xmlns="http://www.w3.org/2000/svg"
   xmlns:sodipodi="http://sodipodi.sourceforge.net/DTD/sodipodi-0.dtd"
   xmlns:inkscape="http://www.inkscape.org/namespaces/inkscape"
   width="606mm"
   height="906mm"
   viewBox="0 0 606 906"
   version="1.1"
   id="svg8"
   inkscape:version="0.92.4 (5da689c313, 2019-01-14)"
   sodipodi:docname="Ontario_Ra-4.svg">
  <defs
     id="defs2" />
  <sodipodi:namedview
     id="base"
     pagecolor="#ffffff"
     bordercolor="#666666"
     borderopacity="1.0"
     inkscape:pageopacity="0.0"
     inkscape:pageshadow="2"
     inkscape:zoom="0.175"
     inkscape:cx="2287.2241"
     inkscape:cy="1167.8414"
     inkscape:document-units="mm"
     inkscape:current-layer="layer1"
     showgrid="false"
     showguides="false"
     inkscape:window-width="1920"
     inkscape:window-height="1057"
     inkscape:window-x="-8"
     inkscape:window-y="-8"
     inkscape:window-maximized="1"
     inkscape:snap-global="false" />
  <metadata
     id="metadata5">
    <rdf:RDF>
      <cc:Work
         rdf:about="">
        <dc:format>image/svg+xml</dc:format>
        <dc:type
           rdf:resource="http://purl.org/dc/dcmitype/StillImage" />
        <dc:title></dc:title>
      </cc:Work>
    </rdf:RDF>
  </metadata>
  <g
     inkscape:label="Layer 1"
     inkscape:groupmode="layer"
     id="layer1"
     transform="translate(0,609)">
    <rect
       style="fill:#000000;fill-opacity:1;stroke:none;stroke-width:296.58029175;stroke-linecap:round;stroke-linejoin:round;stroke-miterlimit:1.41400003;stroke-dasharray:none;stroke-opacity:1"
       id="rect18"
       width="604"
       height="904"
       x="1"
       y="-608"
       rx="42"
       ry="42" />
    <rect
       ry="40"
       rx="40"
       y="-606"
       x="3"
       height="900"
       width="600"
       id="rect20"
       style="fill:#ffffff;fill-opacity:1;stroke:none;stroke-width:294.94192505;stroke-linecap:round;stroke-linejoin:round;stroke-miterlimit:1.41400003;stroke-dasharray:none;stroke-opacity:1" />
    <rect
       style="fill:#000000;fill-opacity:1;stroke:none;stroke-width:284.69351196;stroke-linecap:round;stroke-linejoin:round;stroke-miterlimit:1.41400003;stroke-dasharray:none;stroke-opacity:1"
       id="rect1284"
       width="575"
       height="875"
       x="15.5"
       y="-593.5"
       rx="27.5"
       ry="27.5" />
    <rect
       ry="15"
       rx="15"
       y="-581"
       x="28"
       height="735"
       width="550"
       id="rect1286"
       style="fill:#ffffff;fill-opacity:1;stroke:none;stroke-width:255.19058228;stroke-linecap:round;stroke-linejoin:round;stroke-miterlimit:1.41400003;stroke-dasharray:none;stroke-opacity:1" />
    <g
       aria-label="50"
       style="font-style:normal;font-variant:normal;font-weight:normal;font-stretch:normal;font-size:432.27664185px;line-height:1.25;font-family:'Roadgeek 2005 Series D';-inkscape-font-specification:'Roadgeek 2005 Series D';letter-spacing:0px;word-spacing:0px;fill:#000000;fill-opacity:1;stroke:none;stroke-width:10.80691528"
       id="text1400"
       transform="translate(3,-3)">
      <path
         d="m 267.11818,-84.959652 q 0,24.20749 -9.5101,44.524502 -9.0778,20.317 -25.9366,35.44668 -16.8588,15.12968 -40.2017,23.77522 Q 168.55908,27 140.89338,27 121.87318,27 103.28528,22.67724 85.129683,18.35447 69.999983,10.57349 l 22.4784,-40.634 q 9.077797,4.75504 23.775197,7.78098 14.6974,2.59366 30.6917,2.59366 15.5619,0 28.9625,-4.75505 13.8329,-5.18732 23.7752,-13.83285 10.3747,-8.64553 15.9943,-20.317002 5.6195,-12.10375 5.6195,-26.36888 0,-10.80691 -4.3227,-19.884718 -3.8905,-9.07781 -11.2392,-15.99424 -6.9164,-6.91642 -16.4265,-10.80691 -9.0778,-3.89049 -19.8847,-3.89049 -7.781,0 -13.8329,1.29683 -5.6196,1.29683 -10.8069,4.75504 -5.1873,3.45821 -10.3747,9.51008 -5.1873,5.6196 -11.6714,14.69741 l -45.821297,-12.9683 7.3487,-149.56772 H 250.69168 v 45.82133 h -121.902 l -3.026,47.55043 q 15.9943,-4.75504 25.0721,-6.48415 9.0778,-1.72911 19.8847,-1.72911 19.8847,0 37.1758,7.78098 17.7233,7.78098 30.6916,21.18156 13.4006,13.40057 20.7493,31.12391 7.781,17.72335 7.781,37.608068 z"
         style="font-style:normal;font-variant:normal;font-weight:normal;font-stretch:normal;font-family:'Roadgeek 2005 Series D';-inkscape-font-specification:'Roadgeek 2005 Series D';fill:#000000;fill-opacity:1;stroke:none;stroke-width:10.80691528"
         id="path1402"
         inkscape:connector-curvature="0" />
      <path
         d="m 530.00038,-122.56772 q 0,34.582138 -8.2132,66.138328 -8.2133,31.556202 -23.343,51.008642 Q 474.23668,27 428.41538,27 q -30.6916,0 -50.5763,-12.53602 -19.8848,-12.53602 -32.8531,-39.33717 -9.0778,-18.5879 -14.6974,-44.956772 -5.6196,-26.80116 -5.6196,-52.737758 0,-35.87896 8.2133,-66.5706 8.6455,-30.69164 23.3429,-51.44092 12.9683,-16.42651 30.6917,-24.20749 18.1556,-8.21326 43.2276,-8.21326 27.6657,0 47.1182,12.53603 19.4524,12.53602 33.2853,39.33717 9.0778,19.45245 14.2651,45.38905 5.1873,25.9366 5.1873,53.17002 z m -45.8213,0 q 0,-24.63976 -4.3228,-45.38904 -4.3227,-21.18156 -12.9683,-35.87896 -6.9164,-11.2392 -15.9942,-16.42652 -8.6455,-5.18732 -21.6138,-6.05187 -16.8588,-0.86455 -28.098,7.78098 -11.2392,8.64553 -18.5879,28.09798 -5.6196,12.9683 -8.6455,31.5562 -2.5937,18.15562 -2.5937,36.31123 0,23.342938 4.3228,44.956778 4.3227,21.61383 12.9683,35.446682 6.9164,11.23919 16.4265,16.85879 9.5101,5.6196 23.3429,5.6196 15.9943,0 26.3689,-8.64554 10.8069,-8.64553 18.1556,-28.097982 2.1614,-5.6196 4.3228,-13.40057 2.1614,-8.21326 3.4582,-16.85879 1.7291,-9.07781 2.5937,-18.155618 0.8645,-9.07781 0.8645,-17.72335 z"
         style="font-style:normal;font-variant:normal;font-weight:normal;font-stretch:normal;font-family:'Roadgeek 2005 Series D';-inkscape-font-specification:'Roadgeek 2005 Series D';fill:#000000;fill-opacity:1;stroke:none;stroke-width:10.80691528"
         id="path1404"
         inkscape:connector-curvature="0" />
      <g
         aria-label="MAXIMUM"
         style="font-style:normal;font-variant:normal;font-weight:normal;font-stretch:normal;font-size:146.62756348px;line-height:1.25;font-family:'Roadgeek 2005 Series C';-inkscape-font-specification:'Roadgeek 2005 Series C';letter-spacing:0px;word-spacing:0px;fill:#000000;fill-opacity:1;stroke:none;stroke-width:39.61479187"
         id="text1419">
        <path
           d="m 109.58648,-404.75953 v -55.13197 l -18.181797,55.13197 -18.3285,-55.13197 v 55.13197 h -14.0762 V -503 h 14.0762 l 18.3285,55.13196 L 109.58648,-503 h 14.2229 v 98.24047 z"
           style="font-style:normal;font-variant:normal;font-weight:normal;font-stretch:normal;font-family:'Roadgeek 2005 Series C';-inkscape-font-specification:'Roadgeek 2005 Series C';fill:#000000;fill-opacity:1;stroke:none;stroke-width:39.61479187"
           id="path1421"
           inkscape:connector-curvature="0" />
        <path
           d="m 186.25668,-404.75953 -6.8915,-26.83285 h -21.1144 l -6.4516,26.83285 h -14.2229 L 162.06308,-503 h 13.783 l 24.4868,98.24047 z m -17.5953,-68.91496 -6.8915,28.29912 h 14.0762 z"
           style="font-style:normal;font-variant:normal;font-weight:normal;font-stretch:normal;font-family:'Roadgeek 2005 Series C';-inkscape-font-specification:'Roadgeek 2005 Series C';fill:#000000;fill-opacity:1;stroke:none;stroke-width:39.61479187"
           id="path1423"
           inkscape:connector-curvature="0" />
        <path
           d="m 249.18838,-404.75953 -13.783,-33.43109 -13.783,33.43109 h -14.8094 l 21.4076,-51.02639 L 208.27928,-503 h 14.8094 l 12.3167,29.61877 L 247.86868,-503 h 14.8094 l -19.6481,47.21408 21.4076,51.02639 z"
           style="font-style:normal;font-variant:normal;font-weight:normal;font-stretch:normal;font-family:'Roadgeek 2005 Series C';-inkscape-font-specification:'Roadgeek 2005 Series C';fill:#000000;fill-opacity:1;stroke:none;stroke-width:39.61479187"
           id="path1425"
           inkscape:connector-curvature="0" />
        <path
           d="M 278.01438,-404.75953 V -503 h 13.783 v 98.24047 z"
           style="font-style:normal;font-variant:normal;font-weight:normal;font-stretch:normal;font-family:'Roadgeek 2005 Series C';-inkscape-font-specification:'Roadgeek 2005 Series C';fill:#000000;fill-opacity:1;stroke:none;stroke-width:39.61479187"
           id="path1427"
           inkscape:connector-curvature="0" />
        <path
           d="m 364.11228,-404.75953 v -55.13197 l -18.1818,55.13197 -18.3285,-55.13197 v 55.13197 h -14.0762 V -503 h 14.0762 l 18.3285,55.13196 L 364.11228,-503 h 14.2229 v 98.24047 z"
           style="font-style:normal;font-variant:normal;font-weight:normal;font-stretch:normal;font-family:'Roadgeek 2005 Series C';-inkscape-font-specification:'Roadgeek 2005 Series C';fill:#000000;fill-opacity:1;stroke:none;stroke-width:39.61479187"
           id="path1429"
           inkscape:connector-curvature="0" />
        <path
           d="m 454.85868,-434.08504 q 0,2.93255 -0.2932,5.27859 -0.1467,2.34604 -0.5865,4.39883 -0.4399,1.90615 -1.1731,3.81231 -0.7331,1.90616 -1.7595,3.81232 -3.6657,6.01173 -10.1173,9.97067 -6.305,3.81232 -13.3431,3.81232 -7.3314,0 -13.9296,-3.81232 -6.4516,-3.81231 -10.1173,-9.97067 -1.0264,-1.90616 -1.7596,-3.81232 -0.7331,-1.90616 -1.173,-3.81231 -0.4399,-2.05279 -0.7331,-4.39883 -0.1466,-2.34604 -0.1466,-5.27859 V -503 h 14.0762 v 70.67449 q 0,7.03812 3.8123,11.29032 3.8123,4.2522 9.9707,4.2522 5.7185,0 9.3842,-4.2522 3.8123,-4.2522 3.8123,-11.29032 V -503 h 14.0762 z"
           style="font-style:normal;font-variant:normal;font-weight:normal;font-stretch:normal;font-family:'Roadgeek 2005 Series C';-inkscape-font-specification:'Roadgeek 2005 Series C';fill:#000000;fill-opacity:1;stroke:none;stroke-width:39.61479187"
           id="path1431"
           inkscape:connector-curvature="0" />
        <path
           d="m 526.77728,-404.75953 v -55.13197 l -18.1819,55.13197 -18.3284,-55.13197 v 55.13197 h -14.0763 V -503 h 14.0763 l 18.3284,55.13196 L 526.77728,-503 h 14.2228 v 98.24047 z"
           style="font-style:normal;font-variant:normal;font-weight:normal;font-stretch:normal;font-family:'Roadgeek 2005 Series C';-inkscape-font-specification:'Roadgeek 2005 Series C';fill:#000000;fill-opacity:1;stroke:none;stroke-width:39.61479187"
           id="path1433"
           inkscape:connector-curvature="0" />
        <path
           inkscape:connector-curvature="0"
           id="path1966"
           style="fill:#ffffff;fill-opacity:1;fill-rule:nonzero;stroke:none;stroke-width:2.82929444"
           d="m 114.52335,217.43063 17.93744,-20.6853 h 27.24855 L 138.93696,220.90785 159.93,272 h -22.51801 l -13.93691,-32.95045 -8.95173,10.41483 V 272 H 94 V 179.4156 L 114.52335,172 Z" />
        <path
           inkscape:connector-curvature="0"
           id="path1968"
           style="fill:#ffffff;fill-opacity:1;fill-rule:nonzero;stroke:none;stroke-width:2.8295815"
           d="m 273.86795,271.99654 -0.01,-46.8399 c -0.26628,-3.65317 -2.76718,-7.01203 -6.02964,-8.72681 -3.0558,-1.47429 -7.29436,-1.60158 -10.44913,-0.22058 -3.46046,1.46579 -6.0127,5.034 -5.99576,8.81455 l 0.0561,46.9729 H 230.8834 l -0.0321,-47.42569 c -0.3537,-3.34186 -2.75304,-6.50541 -5.87955,-7.92027 -4.00092,-1.95532 -9.44476,-1.3583 -12.84858,1.35541 -2.30037,1.88458 -3.87361,4.26151 -3.67551,7.25532 l -0.016,46.73523 h -20.68124 v -75.23592 l 20.83623,-0.008 -0.0401,4.28982 c 3.74056,-3.31644 8.15736,-5.00288 13.02683,-5.63111 8.2054,-0.73554 15.09806,2.23263 21.17008,6.95261 l 1.57032,1.46859 c 3.05583,-2.37132 6.43707,-3.95597 9.84661,-5.49811 6.43417,-2.60898 15.18014,-3.59374 21.92842,-1.02431 2.70773,0.84598 5.09585,2.43345 7.43864,4.17373 4.22722,3.69841 7.44997,8.56549 9.26091,13.66745 0.77558,2.46468 1.16858,5.1727 1.54205,7.83821 l -0.01,49.01028 z" />
        <path
           inkscape:connector-curvature="0"
           id="path1970"
           style="fill:#ffffff;fill-opacity:1;fill-rule:nonzero;stroke:none;stroke-width:2.82933426"
           d="m 375.15,172 h 23.5 l -51.9,100 h -23.5 z"
           sodipodi:nodetypes="ccccc" />
        <path
           inkscape:connector-curvature="0"
           id="path1972"
           style="fill:#ffffff;fill-opacity:1;fill-rule:nonzero;stroke:none;stroke-width:2.82947731"
           d="m 461.28271,200.52537 c 6.1233,-4.17609 14.14806,-6.08873 21.8191,-4.2044 4.51049,1.04407 8.45781,3.4546 12.14764,6.50468 5.12439,4.86358 9.80461,11.14473 10.41862,16.85436 0.13876,1.25331 0.41308,5.93869 0.3088,8.17952 L 505.96687,272 h -21.59001 l -0.016,-48.21471 c -0.72991,-3.50265 -4.16798,-6.56971 -7.47864,-7.61932 -4.17931,-1.11199 -8.40677,0.27429 -11.71179,2.3257 -1.94398,1.40336 -3.22012,3.41497 -3.96145,5.48041 L 461.28918,272 H 440.69999 V 179.46661 L 461.15533,172 Z"
           sodipodi:nodetypes="cccccccccccccccc" />
      </g>
    </g>
  </g>
</svg>
