<?xml version="1.0" encoding="UTF-8"?>
<!DOCTYPE svg PUBLIC "-//W3C//DTD SVG 1.1//EN" "http://www.w3.org/Graphics/SVG/1.1/DTD/svg11.dtd">
<svg version="1.2" width="44.97mm" height="9.04mm" viewBox="8999 39998 4497 904" preserveAspectRatio="xMidYMid" fill-rule="evenodd" stroke-width="28.222" stroke-linejoin="round" xmlns="http://www.w3.org/2000/svg" xmlns:ooo="http://xml.openoffice.org/svg/export" xmlns:xlink="http://www.w3.org/1999/xlink" xmlns:presentation="http://sun.com/xmlns/staroffice/presentation" xmlns:smil="http://www.w3.org/2001/SMIL20/" xmlns:anim="urn:oasis:names:tc:opendocument:xmlns:animation:1.0" xml:space="preserve">
 <defs class="EmbeddedBulletChars">
  <g id="bullet-char-template-57356" transform="scale(0.00048828125,-0.00048828125)">
   <path d="M 580,1141 L 1163,571 580,0 -4,571 580,1141 Z"/>
  </g>
  <g id="bullet-char-template-57354" transform="scale(0.00048828125,-0.00048828125)">
   <path d="M 8,1128 L 1137,1128 1137,0 8,0 8,1128 Z"/>
  </g>
  <g id="bullet-char-template-10146" transform="scale(0.00048828125,-0.00048828125)">
   <path d="M 174,0 L 602,739 174,1481 1456,739 174,0 Z M 1358,739 L 309,1346 659,739 1358,739 Z"/>
  </g>
  <g id="bullet-char-template-10132" transform="scale(0.00048828125,-0.00048828125)">
   <path d="M 2015,739 L 1276,0 717,0 1260,543 174,543 174,936 1260,936 717,1481 1274,1481 2015,739 Z"/>
  </g>
  <g id="bullet-char-template-10007" transform="scale(0.00048828125,-0.00048828125)">
   <path d="M 0,-2 C -7,14 -16,27 -25,37 L 356,567 C 262,823 215,952 215,954 215,979 228,992 255,992 264,992 276,990 289,987 310,991 331,999 354,1012 L 381,999 492,748 772,1049 836,1024 860,1049 C 881,1039 901,1025 922,1006 886,937 835,863 770,784 769,783 710,716 594,584 L 774,223 C 774,196 753,168 711,139 L 727,119 C 717,90 699,76 672,76 641,76 570,178 457,381 L 164,-76 C 142,-110 111,-127 72,-127 30,-127 9,-110 8,-76 1,-67 -2,-52 -2,-32 -2,-23 -1,-13 0,-2 Z"/>
  </g>
  <g id="bullet-char-template-10004" transform="scale(0.00048828125,-0.00048828125)">
   <path d="M 285,-33 C 182,-33 111,30 74,156 52,228 41,333 41,471 41,549 55,616 82,672 116,743 169,778 240,778 293,778 328,747 346,684 L 369,508 C 377,444 397,411 428,410 L 1163,1116 C 1174,1127 1196,1133 1229,1133 1271,1133 1292,1118 1292,1087 L 1292,965 C 1292,929 1282,901 1262,881 L 442,47 C 390,-6 338,-33 285,-33 Z"/>
  </g>
  <g id="bullet-char-template-9679" transform="scale(0.00048828125,-0.00048828125)">
   <path d="M 813,0 C 632,0 489,54 383,161 276,268 223,411 223,592 223,773 276,916 383,1023 489,1130 632,1184 813,1184 992,1184 1136,1130 1245,1023 1353,916 1407,772 1407,592 1407,412 1353,268 1245,161 1136,54 992,0 813,0 Z"/>
  </g>
  <g id="bullet-char-template-8226" transform="scale(0.00048828125,-0.00048828125)">
   <path d="M 346,457 C 273,457 209,483 155,535 101,586 74,649 74,723 74,796 101,859 155,911 209,963 273,989 346,989 419,989 480,963 531,910 582,859 608,796 608,723 608,648 583,586 532,535 482,483 420,457 346,457 Z"/>
  </g>
  <g id="bullet-char-template-8211" transform="scale(0.00048828125,-0.00048828125)">
   <path d="M -4,459 L 1135,459 1135,606 -4,606 -4,459 Z"/>
  </g>
  <g id="bullet-char-template-61548" transform="scale(0.00048828125,-0.00048828125)">
   <path d="M 173,740 C 173,903 231,1043 346,1159 462,1274 601,1332 765,1332 928,1332 1067,1274 1183,1159 1299,1043 1357,903 1357,740 1357,577 1299,437 1183,322 1067,206 928,148 765,148 601,148 462,206 346,322 231,437 173,577 173,740 Z"/>
  </g>
 </defs>
 <g class="Page">
  <g class="com.sun.star.drawing.PolyPolygonShape">
   <g id="id3">
    <rect class="BoundingBox" stroke="none" fill="none" x="8999" y="39998" width="4497" height="904"/>
    <path fill="rgb(255,255,255)" stroke="none" d="M 13441,40542 L 13444,40540 13447,40538 13450,40536 13452,40534 13455,40532 13458,40530 13460,40527 13463,40525 13465,40522 13468,40520 13470,40517 13472,40515 13474,40512 13476,40509 13478,40506 13480,40503 13481,40500 13483,40497 13484,40494 13486,40491 13487,40488 13488,40484 13489,40481 13490,40478 13491,40474 13492,40471 13493,40468 13493,40464 13493,40461 13494,40457 13494,40454 13494,40451 13494,40447 13494,40443 13493,40440 13493,40437 13493,40433 13492,40430 13491,40426 13490,40423 13489,40420 13488,40416 13487,40413 13486,40410 13484,40407 13483,40404 13481,40400 13480,40398 13478,40395 13476,40392 13474,40389 13472,40386 13470,40384 13468,40381 13465,40378 13463,40376 13460,40373 13458,40371 13455,40369 13452,40367 13450,40365 13447,40363 13444,40361 13441,40359 12869,40034 12866,40032 12862,40030 12858,40028 12855,40026 12851,40024 12847,40023 12844,40021 12840,40019 12836,40018 12832,40016 12828,40015 12824,40014 12820,40012 12816,40011 12813,40010 12809,40009 12805,40008 12801,40007 12797,40005 12793,40004 12788,40004 12785,40003 12780,40002 12776,40002 12772,40001 12768,40001 12764,40000 12760,40000 12756,40000 12752,39999 12748,39999 12743,39999 9195,39999 9190,39999 9185,40000 9180,40000 9175,40000 9171,40001 9166,40002 9161,40002 9156,40003 9152,40004 9147,40005 9142,40008 9138,40009 9133,40010 9129,40012 9124,40014 9120,40015 9116,40017 9111,40019 9107,40021 9103,40024 9099,40026 9094,40028 9090,40031 9086,40034 9082,40036 9079,40039 9075,40042 9071,40045 9067,40048 9064,40051 9060,40054 9057,40058 9054,40061 9050,40065 9047,40068 9044,40072 9041,40075 9038,40079 9035,40083 9033,40087 9030,40091 9027,40095 9025,40099 9023,40104 9021,40108 9018,40112 9017,40116 9015,40121 9013,40125 9011,40130 9010,40134 9008,40139 9007,40143 9006,40148 9004,40153 9004,40157 9003,40162 9002,40167 9001,40172 9001,40176 9000,40181 9000,40186 9000,40191 9000,40196 9000,40705 9000,40710 9000,40715 9000,40720 9001,40725 9001,40729 9002,40734 9003,40739 9004,40743 9004,40748 9006,40753 9007,40757 9008,40762 9010,40766 9011,40771 9013,40776 9015,40780 9017,40784 9018,40789 9021,40793 9023,40797 9025,40801 9027,40805 9030,40810 9033,40814 9035,40818 9038,40821 9041,40825 9044,40829 9047,40833 9050,40836 9054,40840 9057,40843 9060,40846 9064,40850 9067,40853 9071,40856 9075,40859 9079,40862 9082,40865 9086,40867 9090,40870 9094,40872 9099,40875 9103,40877 9107,40879 9111,40882 9116,40884 9120,40885 9124,40887 9129,40889 9133,40890 9138,40892 9142,40893 9147,40894 9152,40896 9156,40896 9161,40898 9166,40898 9171,40899 9175,40899 9180,40900 9185,40900 9190,40900 9195,40900 12743,40900 12748,40900 12752,40900 12756,40900 12760,40900 12764,40899 12768,40899 12772,40899 12776,40898 12780,40898 12785,40897 12788,40896 12793,40896 12797,40895 12801,40894 12805,40893 12809,40892 12813,40891 12816,40889 12820,40888 12824,40887 12828,40886 12832,40884 12836,40883 12840,40881 12844,40880 12847,40878 12851,40876 12855,40875 12858,40873 12862,40871 12866,40869 12869,40867 13441,40542 Z"/>
    <path fill="none" stroke="rgb(0,0,0)" d="M 13441,40542 L 13444,40540 13447,40538 13450,40536 13452,40534 13455,40532 13458,40530 13460,40527 13463,40525 13465,40522 13468,40520 13470,40517 13472,40515 13474,40512 13476,40509 13478,40506 13480,40503 13481,40500 13483,40497 13484,40494 13486,40491 13487,40488 13488,40484 13489,40481 13490,40478 13491,40474 13492,40471 13493,40468 13493,40464 13493,40461 13494,40457 13494,40454 13494,40451 13494,40447 13494,40443 13493,40440 13493,40437 13493,40433 13492,40430 13491,40426 13490,40423 13489,40420 13488,40416 13487,40413 13486,40410 13484,40407 13483,40404 13481,40400 13480,40398 13478,40395 13476,40392 13474,40389 13472,40386 13470,40384 13468,40381 13465,40378 13463,40376 13460,40373 13458,40371 13455,40369 13452,40367 13450,40365 13447,40363 13444,40361 13441,40359 12869,40034 12866,40032 12862,40030 12858,40028 12855,40026 12851,40024 12847,40023 12844,40021 12840,40019 12836,40018 12832,40016 12828,40015 12824,40014 12820,40012 12816,40011 12813,40010 12809,40009 12805,40008 12801,40007 12797,40005 12793,40004 12788,40004 12785,40003 12780,40002 12776,40002 12772,40001 12768,40001 12764,40000 12760,40000 12756,40000 12752,39999 12748,39999 12743,39999 9195,39999 9190,39999 9185,40000 9180,40000 9175,40000 9171,40001 9166,40002 9161,40002 9156,40003 9152,40004 9147,40005 9142,40008 9138,40009 9133,40010 9129,40012 9124,40014 9120,40015 9116,40017 9111,40019 9107,40021 9103,40024 9099,40026 9094,40028 9090,40031 9086,40034 9082,40036 9079,40039 9075,40042 9071,40045 9067,40048 9064,40051 9060,40054 9057,40058 9054,40061 9050,40065 9047,40068 9044,40072 9041,40075 9038,40079 9035,40083 9033,40087 9030,40091 9027,40095 9025,40099 9023,40104 9021,40108 9018,40112 9017,40116 9015,40121 9013,40125 9011,40130 9010,40134 9008,40139 9007,40143 9006,40148 9004,40153 9004,40157 9003,40162 9002,40167 9001,40172 9001,40176 9000,40181 9000,40186 9000,40191 9000,40196 9000,40705 9000,40710 9000,40715 9000,40720 9001,40725 9001,40729 9002,40734 9003,40739 9004,40743 9004,40748 9006,40753 9007,40757 9008,40762 9010,40766 9011,40771 9013,40776 9015,40780 9017,40784 9018,40789 9021,40793 9023,40797 9025,40801 9027,40805 9030,40810 9033,40814 9035,40818 9038,40821 9041,40825 9044,40829 9047,40833 9050,40836 9054,40840 9057,40843 9060,40846 9064,40850 9067,40853 9071,40856 9075,40859 9079,40862 9082,40865 9086,40867 9090,40870 9094,40872 9099,40875 9103,40877 9107,40879 9111,40882 9116,40884 9120,40885 9124,40887 9129,40889 9133,40890 9138,40892 9142,40893 9147,40894 9152,40896 9156,40896 9161,40898 9166,40898 9171,40899 9175,40899 9180,40900 9185,40900 9190,40900 9195,40900 12743,40900 12748,40900 12752,40900 12756,40900 12760,40900 12764,40899 12768,40899 12772,40899 12776,40898 12780,40898 12785,40897 12788,40896 12793,40896 12797,40895 12801,40894 12805,40893 12809,40892 12813,40891 12816,40889 12820,40888 12824,40887 12828,40886 12832,40884 12836,40883 12840,40881 12844,40880 12847,40878 12851,40876 12855,40875 12858,40873 12862,40871 12866,40869 12869,40867 13441,40542 Z"/>
   </g>
  </g>
  <g class="com.sun.star.drawing.PolyPolygonShape">
   <g id="id4">
    <rect class="BoundingBox" stroke="none" fill="none" x="9044" y="40044" width="4407" height="813"/>
    <path fill="rgb(0,0,0)" stroke="none" d="M 13419,40502 L 13420,40502 13422,40500 13424,40499 13425,40498 13427,40497 13428,40496 13430,40494 13431,40493 13433,40492 13434,40490 13435,40489 13436,40487 13438,40485 13439,40484 13440,40482 13441,40481 13442,40479 13443,40477 13444,40475 13444,40474 13445,40472 13446,40470 13446,40468 13447,40466 13447,40464 13448,40462 13448,40460 13448,40458 13449,40456 13449,40454 13449,40452 13449,40451 13449,40448 13449,40446 13449,40444 13448,40443 13448,40441 13448,40439 13447,40437 13447,40435 13446,40433 13446,40431 13445,40429 13444,40427 13444,40426 13443,40424 13442,40422 13441,40420 13440,40419 13439,40417 13438,40415 13436,40414 13435,40412 13434,40411 13433,40409 13431,40408 13430,40406 13428,40405 13427,40404 13425,40403 13424,40401 13422,40400 13420,40399 13419,40398 12847,40073 12841,40070 12835,40067 12829,40064 12823,40061 12816,40059 12810,40056 12804,40054 12797,40052 12791,40051 12784,40049 12777,40048 12771,40047 12764,40045 12757,40045 12750,40045 12743,40045 9195,40045 9191,40045 9187,40045 9183,40045 9180,40045 9176,40047 9172,40047 9169,40048 9165,40048 9162,40049 9158,40050 9155,40051 9151,40052 9147,40053 9144,40054 9141,40055 9137,40057 9134,40058 9130,40060 9127,40062 9124,40063 9121,40065 9118,40067 9115,40069 9111,40071 9108,40073 9105,40075 9102,40077 9099,40080 9097,40082 9094,40084 9091,40087 9089,40090 9086,40092 9084,40095 9081,40098 9079,40100 9076,40103 9074,40106 9072,40109 9070,40112 9068,40115 9066,40118 9064,40122 9062,40125 9061,40128 9059,40131 9058,40135 9056,40138 9055,40142 9054,40145 9052,40148 9051,40152 9050,40155 9049,40159 9048,40163 9048,40166 9047,40170 9046,40173 9046,40177 9045,40181 9045,40184 9045,40188 9045,40192 9045,40196 9045,40705 9045,40709 9045,40713 9045,40716 9045,40720 9046,40724 9046,40727 9047,40731 9048,40735 9048,40738 9049,40742 9050,40745 9051,40749 9052,40752 9054,40756 9055,40759 9056,40763 9058,40766 9059,40770 9061,40773 9062,40776 9064,40779 9066,40782 9068,40785 9070,40789 9072,40792 9074,40795 9076,40797 9079,40801 9081,40803 9084,40806 9086,40809 9089,40811 9091,40814 9094,40816 9097,40819 9099,40821 9102,40824 9105,40826 9108,40828 9111,40830 9115,40832 9118,40834 9121,40836 9124,40838 9127,40839 9130,40841 9134,40842 9137,40844 9141,40845 9144,40846 9147,40848 9151,40849 9155,40850 9158,40851 9162,40852 9165,40853 9169,40853 9172,40854 9176,40854 9180,40855 9183,40855 9187,40855 9191,40855 9195,40855 12743,40855 12750,40855 12757,40855 12764,40854 12771,40854 12777,40853 12784,40851 12791,40850 12797,40848 12804,40846 12810,40845 12816,40842 12823,40840 12829,40837 12835,40834 12841,40831 12847,40828 13419,40502 Z"/>
    <path fill="none" stroke="rgb(0,0,0)" d="M 13419,40502 L 13420,40502 13422,40500 13424,40499 13425,40498 13427,40497 13428,40496 13430,40494 13431,40493 13433,40492 13434,40490 13435,40489 13436,40487 13438,40485 13439,40484 13440,40482 13441,40481 13442,40479 13443,40477 13444,40475 13444,40474 13445,40472 13446,40470 13446,40468 13447,40466 13447,40464 13448,40462 13448,40460 13448,40458 13449,40456 13449,40454 13449,40452 13449,40451 13449,40448 13449,40446 13449,40444 13448,40443 13448,40441 13448,40439 13447,40437 13447,40435 13446,40433 13446,40431 13445,40429 13444,40427 13444,40426 13443,40424 13442,40422 13441,40420 13440,40419 13439,40417 13438,40415 13436,40414 13435,40412 13434,40411 13433,40409 13431,40408 13430,40406 13428,40405 13427,40404 13425,40403 13424,40401 13422,40400 13420,40399 13419,40398 12847,40073 12841,40070 12835,40067 12829,40064 12823,40061 12816,40059 12810,40056 12804,40054 12797,40052 12791,40051 12784,40049 12777,40048 12771,40047 12764,40045 12757,40045 12750,40045 12743,40045 9195,40045 9191,40045 9187,40045 9183,40045 9180,40045 9176,40047 9172,40047 9169,40048 9165,40048 9162,40049 9158,40050 9155,40051 9151,40052 9147,40053 9144,40054 9141,40055 9137,40057 9134,40058 9130,40060 9127,40062 9124,40063 9121,40065 9118,40067 9115,40069 9111,40071 9108,40073 9105,40075 9102,40077 9099,40080 9097,40082 9094,40084 9091,40087 9089,40090 9086,40092 9084,40095 9081,40098 9079,40100 9076,40103 9074,40106 9072,40109 9070,40112 9068,40115 9066,40118 9064,40122 9062,40125 9061,40128 9059,40131 9058,40135 9056,40138 9055,40142 9054,40145 9052,40148 9051,40152 9050,40155 9049,40159 9048,40163 9048,40166 9047,40170 9046,40173 9046,40177 9045,40181 9045,40184 9045,40188 9045,40192 9045,40196 9045,40705 9045,40709 9045,40713 9045,40716 9045,40720 9046,40724 9046,40727 9047,40731 9048,40735 9048,40738 9049,40742 9050,40745 9051,40749 9052,40752 9054,40756 9055,40759 9056,40763 9058,40766 9059,40770 9061,40773 9062,40776 9064,40779 9066,40782 9068,40785 9070,40789 9072,40792 9074,40795 9076,40797 9079,40801 9081,40803 9084,40806 9086,40809 9089,40811 9091,40814 9094,40816 9097,40819 9099,40821 9102,40824 9105,40826 9108,40828 9111,40830 9115,40832 9118,40834 9121,40836 9124,40838 9127,40839 9130,40841 9134,40842 9137,40844 9141,40845 9144,40846 9147,40848 9151,40849 9155,40850 9158,40851 9162,40852 9165,40853 9169,40853 9172,40854 9176,40854 9180,40855 9183,40855 9187,40855 9191,40855 9195,40855 12743,40855 12750,40855 12757,40855 12764,40854 12771,40854 12777,40853 12784,40851 12791,40850 12797,40848 12804,40846 12810,40845 12816,40842 12823,40840 12829,40837 12835,40834 12841,40831 12847,40828 13419,40502 Z"/>
   </g>
  </g>
  <g class="com.sun.star.drawing.PolyPolygonShape">
   <g id="id5">
    <rect class="BoundingBox" stroke="none" fill="none" x="9088" y="40088" width="4020" height="724"/>
    <path fill="rgb(255,255,255)" stroke="none" d="M 13097,40474 L 13098,40473 13099,40472 13100,40470 13101,40469 13102,40467 13102,40466 13103,40464 13104,40462 13104,40461 13105,40459 13105,40458 13105,40456 13106,40455 13106,40453 13106,40451 13106,40450 13106,40448 13106,40446 13106,40444 13105,40443 13105,40441 13105,40439 13104,40438 13104,40436 13103,40435 13102,40433 13102,40432 13101,40430 13100,40429 13099,40427 13098,40426 13097,40425 12871,40150 12868,40146 12865,40143 12862,40139 12858,40136 12855,40133 12852,40130 12848,40127 12845,40124 12841,40121 12837,40119 12834,40116 12830,40114 12826,40112 12822,40109 12818,40107 12814,40105 12810,40103 12805,40102 12801,40100 12797,40098 12793,40097 12788,40096 12784,40095 12780,40093 12775,40093 12771,40092 12766,40091 12762,40090 12757,40090 12752,40090 12748,40090 12743,40089 9195,40089 9192,40090 9189,40090 9187,40090 9184,40090 9182,40090 9179,40091 9177,40091 9174,40092 9172,40092 9169,40093 9167,40093 9164,40094 9162,40095 9159,40096 9157,40097 9154,40098 9152,40098 9150,40100 9147,40101 9145,40102 9143,40103 9141,40105 9138,40106 9136,40107 9134,40109 9132,40110 9130,40112 9128,40113 9126,40115 9124,40117 9122,40119 9120,40120 9118,40122 9117,40124 9115,40126 9113,40128 9112,40130 9110,40132 9109,40134 9107,40136 9106,40138 9105,40141 9103,40143 9102,40145 9101,40147 9100,40150 9099,40152 9098,40154 9097,40157 9096,40159 9095,40162 9094,40164 9093,40167 9093,40169 9092,40172 9092,40174 9091,40177 9091,40179 9090,40182 9090,40184 9090,40187 9090,40189 9090,40192 9089,40195 9090,40705 9090,40708 9090,40710 9090,40713 9090,40716 9090,40718 9091,40721 9091,40723 9092,40726 9092,40728 9093,40731 9093,40733 9094,40736 9095,40738 9096,40741 9097,40743 9098,40746 9099,40748 9100,40750 9101,40752 9102,40755 9103,40757 9105,40759 9106,40761 9107,40764 9109,40766 9110,40768 9112,40770 9113,40772 9115,40774 9117,40776 9118,40778 9120,40780 9122,40781 9124,40783 9126,40785 9128,40787 9130,40788 9132,40790 9134,40791 9136,40793 9138,40794 9141,40795 9143,40797 9145,40798 9147,40799 9150,40800 9152,40801 9154,40802 9157,40803 9159,40804 9162,40805 9164,40806 9167,40807 9169,40807 9172,40808 9174,40808 9177,40809 9179,40809 9182,40810 9184,40810 9187,40810 9189,40810 9192,40810 9195,40810 12743,40810 12748,40810 12752,40810 12757,40810 12762,40809 12766,40809 12771,40808 12775,40807 12780,40806 12784,40805 12788,40804 12793,40803 12797,40801 12801,40800 12805,40798 12810,40796 12814,40795 12818,40793 12822,40790 12826,40788 12830,40786 12834,40783 12837,40781 12841,40778 12845,40776 12848,40773 12852,40770 12855,40767 12858,40764 12862,40760 12865,40757 12868,40754 12871,40750 13097,40474 Z"/>
    <path fill="none" stroke="rgb(255,255,255)" d="M 13097,40474 L 13098,40473 13099,40472 13100,40470 13101,40469 13102,40467 13102,40466 13103,40464 13104,40462 13104,40461 13105,40459 13105,40458 13105,40456 13106,40455 13106,40453 13106,40451 13106,40450 13106,40448 13106,40446 13106,40444 13105,40443 13105,40441 13105,40439 13104,40438 13104,40436 13103,40435 13102,40433 13102,40432 13101,40430 13100,40429 13099,40427 13098,40426 13097,40425 12871,40150 12868,40146 12865,40143 12862,40139 12858,40136 12855,40133 12852,40130 12848,40127 12845,40124 12841,40121 12837,40119 12834,40116 12830,40114 12826,40112 12822,40109 12818,40107 12814,40105 12810,40103 12805,40102 12801,40100 12797,40098 12793,40097 12788,40096 12784,40095 12780,40093 12775,40093 12771,40092 12766,40091 12762,40090 12757,40090 12752,40090 12748,40090 12743,40089 9195,40089 9192,40090 9189,40090 9187,40090 9184,40090 9182,40090 9179,40091 9177,40091 9174,40092 9172,40092 9169,40093 9167,40093 9164,40094 9162,40095 9159,40096 9157,40097 9154,40098 9152,40098 9150,40100 9147,40101 9145,40102 9143,40103 9141,40105 9138,40106 9136,40107 9134,40109 9132,40110 9130,40112 9128,40113 9126,40115 9124,40117 9122,40119 9120,40120 9118,40122 9117,40124 9115,40126 9113,40128 9112,40130 9110,40132 9109,40134 9107,40136 9106,40138 9105,40141 9103,40143 9102,40145 9101,40147 9100,40150 9099,40152 9098,40154 9097,40157 9096,40159 9095,40162 9094,40164 9093,40167 9093,40169 9092,40172 9092,40174 9091,40177 9091,40179 9090,40182 9090,40184 9090,40187 9090,40189 9090,40192 9089,40195 9090,40705 9090,40708 9090,40710 9090,40713 9090,40716 9090,40718 9091,40721 9091,40723 9092,40726 9092,40728 9093,40731 9093,40733 9094,40736 9095,40738 9096,40741 9097,40743 9098,40746 9099,40748 9100,40750 9101,40752 9102,40755 9103,40757 9105,40759 9106,40761 9107,40764 9109,40766 9110,40768 9112,40770 9113,40772 9115,40774 9117,40776 9118,40778 9120,40780 9122,40781 9124,40783 9126,40785 9128,40787 9130,40788 9132,40790 9134,40791 9136,40793 9138,40794 9141,40795 9143,40797 9145,40798 9147,40799 9150,40800 9152,40801 9154,40802 9157,40803 9159,40804 9162,40805 9164,40806 9167,40807 9169,40807 9172,40808 9174,40808 9177,40809 9179,40809 9182,40810 9184,40810 9187,40810 9189,40810 9192,40810 9195,40810 12743,40810 12748,40810 12752,40810 12757,40810 12762,40809 12766,40809 12771,40808 12775,40807 12780,40806 12784,40805 12788,40804 12793,40803 12797,40801 12801,40800 12805,40798 12810,40796 12814,40795 12818,40793 12822,40790 12826,40788 12830,40786 12834,40783 12837,40781 12841,40778 12845,40776 12848,40773 12852,40770 12855,40767 12858,40764 12862,40760 12865,40757 12868,40754 12871,40750 13097,40474 Z"/>
   </g>
  </g>
 </g>
</svg>