<svg xmlns="http://www.w3.org/2000/svg" width="660.179" height="580.218" viewBox="0 0 660.179 580.218"><defs><style>.a { fill: rgb(255, 255, 255); }.b { fill: rgb(218, 37, 29); }</style></defs><g><path class="a" d="M330,579.10938a30.68342,30.68342,0,0,1-26.84668-15.5L5.11475,47.39111a31,31,0,0,1,26.84668-46.5H628.03809a31,31,0,0,1,26.84765,46.5L356.84668,563.60938A30.68342,30.68342,0,0,1,330,579.10938Z" transform="translate(0.08956 0.10891)"/><path d="M628.03845,1.89109a30,30,0,0,1,25.98072,45L355.981,563.10889a30,30,0,0,1-51.96155,0L5.98073,46.89127a30,30,0,0,1,25.98082-45l596.0769-.00018m0-2L31.96155-.10873a31.67434,31.67434,0,0,0-27.71282,16,31.67415,31.67415,0,0,0-.00009,32L302.28735,564.10889a32.00011,32.00011,0,0,0,55.42575,0L655.75128,47.89109a31.67443,31.67443,0,0,0-.00012-32.00009A31.67415,31.67415,0,0,0,628.03845-.10891Z" transform="translate(0.08956 0.10891)"/></g><path class="b" d="M92.58248,56.78128l474.83481-.00016a10,10,0,0,1,8.66027,15L338.66037,483.001a10,10,0,0,1-17.32052,0L83.92223,71.78128A10,10,0,0,1,92.58248,56.78128ZM330.00014,568.00106A19.81284,19.81284,0,0,0,347.32073,558.001L645.35956,41.78109a20,20,0,0,0-17.32061-30l-596.078.00021a20.00012,20.00012,0,0,0-17.32061,30L312.67955,558.001a19.81281,19.81281,0,0,0,17.32059,10Z" transform="translate(0.08956 0.10891)"/></svg>