<svg id="Слой_1" data-name="Слой 1" xmlns="http://www.w3.org/2000/svg" width="1350" height="970" viewBox="0 0 1350 970">
  <defs>
    <style>
      .cls-1 {
        fill: #fff;
      }

      .cls-2 {
        fill: #005999;
      }

      .cls-3 {
        fill: #e30013;
      }

      .cls-3, .cls-4 {
        stroke: #fff;
        stroke-miterlimit: 3.52794;
        stroke-width: 10px;
      }

      .cls-4 {
        fill: #04ae67;
      }
    </style>
  </defs>
  <g>
    <rect class="cls-1" x="0.5" y="0.5" width="1349" height="969" rx="44.5"/>
    <path d="M1305,1a44.04982,44.04982,0,0,1,44,44V925a44.04982,44.04982,0,0,1-44,44H45A44.04985,44.04985,0,0,1,1,925V45A44.04985,44.04985,0,0,1,45,1H1305m0-1H45A45,45,0,0,0,0,45V925a45,45,0,0,0,45,45H1305a45,45,0,0,0,45-45V45a45,45,0,0,0-45-45Z"/>
  </g>
  <rect class="cls-2" x="20" y="20" width="1310" height="930" rx="25"/>
  <polygon class="cls-1" points="1165.833 756.778 1109.752 812.858 1109.753 708.709 954.729 863.729 913.871 822.87 1068.895 667.85 964.746 667.849 1020.827 611.769 1165.834 611.771 1165.833 756.778"/>
  <g>
    <path id="red_number" data-name="red number" class="cls-3" d="M865.55839,130h348.88326A20.29742,20.29742,0,0,1,1235,150.03089v149.945C1235,311.03365,1225.79756,320,1214.44165,320H865.55839C854.20244,320,845,311.03367,845,299.97585v-149.945A20.29743,20.29743,0,0,1,865.55839,130Z"/>
    <g>
      <path class="cls-1" d="M922.88379,250.95605l-25.74121-42.18652V275.2666H878.12305V175.16309h19.44824l28.74414,48.62109,28.74414-48.62109h19.44922V275.2666H955.48926V208.76953l-25.74121,42.18652Z"/>
      <path class="cls-1" d="M1034.1377,243.376H994.81055V226.78809h39.32715Z"/>
      <path class="cls-1" d="M1084.90039,173.44629c23.45313,0,34.75,17.01855,34.75,51.625,0,34.46484-11.29687,51.48242-34.75,51.48242s-34.75-17.01758-34.75-51.48242C1050.15039,190.46484,1061.44727,173.44629,1084.90039,173.44629Zm-16.58887,51.625c0,22.73828,5.86328,35.46582,16.58887,35.46582s16.58887-12.72754,16.58887-35.46582c0-22.88086-5.86328-35.60742-16.58887-35.60742S1068.31152,202.19043,1068.31152,225.07129Z"/>
      <path class="cls-1" d="M1152.39453,201.90527l-17.44629-2.28808c2.43067-15.01563,16.44531-25.74121,34.46387-25.74121,18.877,0,32.46289,11.44043,32.46289,27.74316,0,9.58106-4.71973,17.30371-13.01367,21.30762,9.43847,3.86133,15.01562,12.29883,15.01562,23.30957,0,17.876-14.30078,30.31738-34.60742,30.31738-19.16308,0-33.89258-11.1543-36.18066-26.88476l17.58984-2.86036c2.14551,8.4375,9.2959,13.72852,18.877,13.72852,9.72461,0,16.15918-5.43457,16.15918-14.44336,0-8.86621-6.292-14.87305-16.30273-14.87305h-5.86231V216.34863h5.86231c8.72363,0,14.30078-5.291,14.30078-13.44238,0-8.00879-5.71973-13.01367-14.58594-13.01367C1160.5459,189.89258,1153.96777,194.46875,1152.39453,201.90527Z"/>
    </g>
  </g>
  <g>
    <path id="red_number-2" data-name="red number" class="cls-4" d="M871.8204,340h336.35924A19.92417,19.92417,0,0,1,1228,360.03089v149.945A19.92268,19.92268,0,0,1,1208.17964,530H871.8204A19.92268,19.92268,0,0,1,852,509.97585v-149.945A19.92417,19.92417,0,0,1,871.8204,340Z"/>
    <g>
      <path class="cls-1" d="M974.5791,485.2666h-68.499V385.16309h67.78418v17.01757h-48.6211V426.0625h40.61329v17.01758H925.24316V468.249H974.5791Z"/>
      <path class="cls-1" d="M1061.95117,461.81348H1016.332V446.36914l41.47168-61.206h22.30859v61.20605h12.8711v15.44434h-12.8711V485.2666h-18.16113Zm-28.458-15.44434h28.458V404.61133Z"/>
      <path class="cls-1" d="M1139.16992,383.44629c23.45313,0,34.75,17.01855,34.75,51.625,0,34.46484-11.29687,51.48242-34.75,51.48242s-34.75-17.01758-34.75-51.48242C1104.41992,400.46484,1115.7168,383.44629,1139.16992,383.44629Zm-16.58887,51.625c0,22.73828,5.86329,35.46582,16.58887,35.46582s16.58887-12.72754,16.58887-35.46582c0-22.88086-5.86328-35.60742-16.58887-35.60742S1122.58105,412.19043,1122.58105,435.07129Z"/>
    </g>
  </g>
  <g>
    <path class="cls-1" d="M228.40967,230.25684h-29.792l-29.79151-49.78418L139.23,230.25684H109.438l44.1001-70.95166L112.77,93.05762h29.792l26.26416,45.66748,26.45947-45.66748h29.792l-40.76758,66.24756Z"/>
    <path class="cls-1" d="M239.97607,144.01709c11.95606-9.21191,24.5-13.52393,40.376-13.52393,26.26367,0,39.7876,11.564,39.7876,34.29981v39.20019c0,5.87989,3.13623,10.3877,8.624,12.15137l-7.44775,15.68067c-10.584,0-18.228-3.332-22.34424-9.9961-5.68359,6.46778-16.07178,10.19141-28.61572,10.19141-21.36377,0-33.71192-10.7793-33.71192-28.41992,0-18.81543,13.916-30.57569,37.23975-32.14356l21.56006-1.37207v-4.11572c0-9.01612-6.272-14.11182-17.63965-14.11182a39.62735,39.62735,0,0,0-25.08789,8.81983Zm35.86768,44.4917c-9.99561.58789-15.48389,5.292-15.48389,12.74023,0,7.64356,5.48828,11.95606,16.26807,11.95606,12.34814,0,18.81592-6.07617,18.81592-18.62012V187.333Z"/>
    <path class="cls-1" d="M397.75391,130.49316c25.67627,0,40.18017,18.228,40.18017,50.76368,0,32.53613-14.3081,50.76367-40.18017,50.76367-11.36768,0-20.1875-3.91992-26.26368-11.17188v44.68848h-24.6958V132.25732h23.32373V143.4292Q379.52613,130.49317,397.75391,130.49316Zm-5.292,21.95215c-13.91552,0-20.97168,9.604-20.97168,28.81153,0,19.208,7.05616,28.8125,20.97168,28.8125,13.72022,0,20.77637-9.6045,20.77637-28.61622C413.23828,162.04932,406.18213,152.44531,392.46191,152.44531Z"/>
    <path class="cls-1" d="M484.97314,191.05664v39.2002h-24.6958V132.25732h24.6958v36.25977h9.21192l24.5-36.25977h29.0083l-33.32031,47.43213,36.25976,50.56739H521.4292l-27.24414-39.2002Z"/>
    <path class="cls-1" d="M579.44434,87.96143a14.60238,14.60238,0,1,1-14.50391,14.70019A14.32175,14.32175,0,0,1,579.44434,87.96143ZM591.793,230.25684H567.09668V132.25732H591.793Z"/>
    <path class="cls-1" d="M700.96289,159.10938c0,9.21191-3.91992,16.26757-10.97656,20.97167,9.21191,4.50782,14.1123,12.15235,14.1123,22.54,0,17.63965-14.1123,27.63575-39.0039,27.63575H619.62305V132.25732h43.90332C687.43848,132.25732,700.96289,142.05713,700.96289,159.10938Zm-36.65234,12.93554c7.44824,0,11.75976-3.72363,11.75976-10.19189,0-6.272-4.31152-9.99561-11.75976-9.99561H644.31934v20.1875Zm2.15625,38.61231c8.03613,0,12.74023-3.91993,12.74023-10.78028,0-6.66406-4.7041-10.38769-12.74023-10.38769H644.31934v21.168Z"/>
  </g>
  <g>
    <path class="cls-1" d="M144.80371,608.75684c0,30.96777,10.584,47.04,30.772,47.04,13.72022,0,23.52-7.44825,28.41993-21.56055l25.67578,4.11621c-6.85987,26.26367-26.06787,40.76758-53.89942,40.76758-36.65185,0-57.42773-25.4795-57.42773-70.167,0-45.08007,20.97168-70.55957,57.42773-70.55957,27.63574,0,46.84375,14.50391,53.89942,40.57129l-25.67578,4.11621c-4.89991-14.1123-14.30811-21.36425-28.22364-21.36425C155.3877,561.7168,144.80371,577.78906,144.80371,608.75684Z"/>
    <path class="cls-1" d="M263.18555,714.40039c-5.4878,0-11.564-.78418-16.26807-3.13574l2.352-20.77637a23.40691,23.40691,0,0,0,9.604,1.96c8.03613,0,12.73974-4.11621,16.26806-15.4834l-37.24023-97.60742h26.46l22.54,64.09082,22.34375-64.09082h26.46L295.32959,685.78418C287.29346,707.14844,279.06152,714.40039,263.18555,714.40039Z"/>
    <path class="cls-1" d="M399.79639,661.08887l-24.6958-41.74805v58.01563H351.77686v-97.999h25.08789l28.02783,46.84375,27.832-46.84375H458.0083v97.999H434.68457V619.34082l-24.6958,41.74805Z"/>
    <path class="cls-1" d="M551.10791,579.35742h23.32422v97.999H549.73584V619.14453l-40.76758,58.21192H485.64453v-97.999h24.6958v58.21094Z"/>
  </g>
  <g>
    <path class="cls-1" d="M140.9165,389.35645H121.08545V285.75977H140.9165v46.61914l39.6626-46.61914h24.27149l-35.07471,40.84668,39.07031,62.75H185.61133l-29.59912-48.09766-15.09571,17.167Z"/>
    <path class="cls-1" d="M238.89258,389.35645h-18.647V285.75977h18.647v37.29492c5.32812-5.91992,12.43164-9.02735,21.31152-9.02735,16.13135,0,25.30713,10.21192,25.30713,28.11914v47.21H266.71582V343.92188c0-8.583-4.88379-13.31934-13.46728-13.31934-9.02784,0-14.356,5.17969-14.356,14.35547Z"/>
    <path class="cls-1" d="M303.125,324.23926c9.02783-6.95606,18.49951-10.21192,30.48682-10.21192,19.83154,0,30.043,8.73145,30.043,25.89942v29.59863a9.12058,9.12058,0,0,0,6.5122,9.17578L364.543,390.54c-7.9917,0-13.76367-2.51563-16.87158-7.54785-4.29151,4.88476-12.13526,7.69629-21.60694,7.69629-16.13183,0-25.45556-8.13965-25.45556-21.459,0-14.208,10.50781-23.08789,28.11914-24.27148l16.27978-1.03613v-3.10743c0-6.80761-4.73584-10.65625-13.31982-10.65625a29.924,29.924,0,0,0-18.94336,6.66016ZM330.208,357.834c-7.54785.44336-11.69141,3.99512-11.69141,9.61914,0,5.77149,4.14356,9.02735,12.28369,9.02735,9.32325,0,14.20752-4.58789,14.20752-14.05957v-5.47559Z"/>
    <path class="cls-1" d="M383.78467,315.35938H401.396v10.35937c5.32763-7.69531,12.43164-11.69141,22.05127-11.69141a28.10134,28.10134,0,0,1,10.35937,1.92383l-7.39941,17.01953a14.61542,14.61542,0,0,0-7.54785-1.92382c-10.50782,0-16.42774,7.84374-16.42774,21.60644v36.70313h-18.647Z"/>
    <path class="cls-1" d="M465.18311,389.35645h-18.647V285.75977h18.647v59.0498l25.75146-29.45019h22.939l-27.083,30.33886,29.15527,43.65821H494.19043l-20.42334-30.48731-8.584,9.76758Z"/>
    <path class="cls-1" d="M537.70264,281.91211a11.02613,11.02613,0,1,1-10.95118,11.09961A10.81375,10.81375,0,0,1,537.70264,281.91211Zm9.32422,107.44434H528.37939V315.35938h18.64747Z"/>
    <path class="cls-1" d="M605.63232,389.35645H586.39307l-27.23145-73.99707h19.97949l17.01953,50.61425,16.8711-50.61425h19.97949Z"/>
  </g>
  <g>
    <path class="cls-1" d="M161.7251,836.78516c-14.94727,0-29.74658-4.14356-40.10645-16.5752l13.91162-12.43164c6.65967,7.69531,16.72315,11.39551,27.52686,11.39551,12.13574,0,19.23926-4.58789,19.23926-12.28418,0-7.99121-7.54737-13.02344-22.49512-15.24317-22.791-3.40332-34.77881-14.207-34.77881-31.52246,0-18.35156,13.91162-29.59863,37.44287-29.59863,13.91162,0,27.67481,3.99512,36.70264,13.7627L185.1084,756.27637c-5.77149-5.91992-13.76319-8.13965-21.90332-8.13965-11.54346,0-18.20313,4.43945-18.20313,11.9873,0,7.10352,6.21582,11.24707,20.12744,13.31934,24.12305,3.70019,36.99854,14.7998,36.99854,32.55859C202.12793,825.09375,187.32861,836.78516,161.7251,836.78516Z"/>
    <path class="cls-1" d="M264.436,761.45605h18.79541v73.99707H265.916v-7.69531c-5.47608,5.91895-12.728,9.02735-21.90332,9.02735-16.57569,0-26.04737-10.21192-26.04737-28.11914v-47.21h18.64746v45.4336c0,8.584,5.03174,13.32031,13.61573,13.32031,8.87939,0,14.20752-5.17969,14.20752-14.50391Z"/>
    <path class="cls-1" d="M322.74805,835.45312h-18.647V761.45605H321.7124v7.54786c4.43994-5.47657,11.83936-8.87989,19.83106-8.87989,8.28808,0,15.83545,3.7002,20.12744,10.65528,5.624-6.80762,13.61572-10.65528,23.53125-10.65528,16.57568,0,26.19531,10.21192,26.19531,28.11914v47.21H392.75V790.01855c0-8.583-4.58789-13.31933-12.57959-13.31933-8.43555,0-13.02344,5.17969-13.02344,14.35547v44.39843H348.35156V790.01855c0-8.583-4.58789-13.31933-12.57959-13.31933-8.28808,0-13.02392,5.17969-13.02392,14.35547Z"/>
    <path class="cls-1" d="M440.55859,863.42383c-4.144,0-8.73144-.5918-12.28369-2.36719l1.77588-15.6875a17.688,17.688,0,0,0,7.252,1.47949c6.06788,0,9.61963-3.10742,12.2837-11.6914l-28.11914-73.70118h19.97949l17.019,48.39356,16.87158-48.39356h19.97949l-30.4873,80.36133C458.76221,857.94824,452.54639,863.42383,440.55859,863.42383Z"/>
  </g>
</svg>
