<svg xmlns="http://www.w3.org/2000/svg" width="604" height="904" viewBox="0 0 604 904"><defs><style>.a { fill: rgb(255, 255, 255); }.b { fill: rgb(218, 37, 29); }</style></defs><rect class="a" x="1" y="1" width="602" height="902" rx="46"/><path d="M557,2a45,45,0,0,1,45,45V857a45,45,0,0,1-45,45H47A45,45,0,0,1,2,857V47A45,45,0,0,1,47,2H557m0-2H47A47.05324,47.05324,0,0,0,0,47V857a47.05323,47.05323,0,0,0,47,47H557a47.05323,47.05323,0,0,0,47-47V47A47.05323,47.05323,0,0,0,557,0Z"/><path d="M557,22a25.02826,25.02826,0,0,1,25,25V857a25.02825,25.02825,0,0,1-25,25H47a25.02826,25.02826,0,0,1-25-25V47A25.02828,25.02828,0,0,1,47,22H557m0-10H47A35,35,0,0,0,12,47V857a34.99994,34.99994,0,0,0,35,35H557a34.99993,34.99993,0,0,0,35-35V47a34.99994,34.99994,0,0,0-35-35Z"/><path d="M87.87793,108.33276l-22.023-2.91211c2.73-19.83886,20.38477-32.76123,46.41162-32.76123,26.9375,0,45.31983,14.01465,45.31983,35.30957,0,12.37647-6.00635,22.02295-16.74463,27.30079,12.19433,5.09619,19.293,15.4707,19.293,29.66748,0,23.11474-18.565,38.40332-47.13965,38.40332-26.9375,0-46.04785-13.65039-48.59619-34.39942l22.3872-3.64013c2.002,10.01025,12.19434,16.38037,25.84473,16.38037,14.01465,0,22.93262-6.916,22.93262-18.01856,0-10.374-8.37207-17.47265-21.47657-17.47265H97.16016V125.98755h16.92675c11.83057,0,19.293-5.82422,19.293-15.28858,0-10.01025-8.55468-16.38085-22.023-16.38085C98.79834,94.31812,89.69824,99.77856,87.87793,108.33276Z"/><path d="M284.25977,137.99976c0,41.67968-19.83887,65.34082-54.42041,65.34082-34.58106,0-54.41993-23.66114-54.41993-65.34082,0-41.6792,19.83887-65.34034,54.41993-65.34034C264.4209,72.65942,284.25977,96.32056,284.25977,137.99976Zm-84.26954,0c0,28.75732,10.01075,43.68164,29.84913,43.68164,19.83886,0,29.84912-14.92432,29.84912-44.04541,0-28.75733-10.01026-43.31787-29.84912-43.31787C210.001,94.31812,199.99023,109.06079,199.99023,137.99976Z"/><path d="M332.30127,201.70239H307.9126V74.29761h24.38867v51.68994h51.50781V74.29761h24.38867V201.70239H383.80908V147.64624H332.30127Z"/><path d="M505.74756,176.76733h-46.957l-8.00879,24.93506H424.937L468.98193,74.29761h26.57325l44.04589,127.40478H513.75635Zm-6.73438-20.38476L482.269,104.32886l-16.92675,52.05371Z"/><path class="b" d="M302,243C162.82,243,50,355.82,50,495S162.82,747,302,747,554,634.18,554,495,441.18,243,302,243Zm0,454c-111.56,0-202-90.44-202-202s90.44-202,202-202,202,90.44,202,202S413.56,697,302,697Z"/><path d="M172.80664,501.38477l4.68018-98.53809H282.00488v28.85937h-76.959l-1.81983,41.33887c7.27979-6.75976,19.75977-10.91992,33.53907-10.91992,34.83935,0,56.6792,23.91992,56.6792,60.5791,0,39.7793-25.21973,64.47852-64.999,64.47852-32.75927,0-55.89843-17.41992-61.3584-46.53907l31.45948-5.71972c3.37988,14.2998,15.59961,23.13965,30.6792,23.13965,19.23974,0,31.19921-13.25977,31.19921-34.31934,0-20.7998-11.6997-33.79883-29.63916-33.79883-11.43994,0-21.31982,5.19922-27.2998,14.29883Z"/><path d="M383.4043,399.72656c42.63965,0,63.17871,30.93946,63.17871,93.85742,0,62.65918-20.53906,93.59864-63.17871,93.59864-42.63868,0-63.17871-30.93946-63.17871-93.59864C320.22559,430.666,340.76562,399.72656,383.4043,399.72656ZM353.24512,493.584c0,41.33985,10.66015,64.4795,30.15918,64.4795,19.5,0,30.15918-23.13965,30.15918-64.4795,0-41.59863-10.65918-64.73779-30.15918-64.73779C363.90527,428.84619,353.24512,451.98535,353.24512,493.584Z"/></svg>