<?xml version="1.0" encoding="UTF-8" standalone="no"?>
<svg
   width="169.45mm"
   height="121.63mm"
   version="1.1"
   viewBox="0 0 169.45 121.63"
   id="svg30"
   sodipodi:docname="Jkr-ft1b.svg"
   inkscape:version="1.1.1 (3bf5ae0d25, 2021-09-20)"
   xmlns:inkscape="http://www.inkscape.org/namespaces/inkscape"
   xmlns:sodipodi="http://sodipodi.sourceforge.net/DTD/sodipodi-0.dtd"
   xmlns="http://www.w3.org/2000/svg"
   xmlns:svg="http://www.w3.org/2000/svg"
   xmlns:rdf="http://www.w3.org/1999/02/22-rdf-syntax-ns#"
   xmlns:cc="http://creativecommons.org/ns#"
   xmlns:dc="http://purl.org/dc/elements/1.1/">
  <defs
     id="defs34" />
  <sodipodi:namedview
     id="namedview32"
     pagecolor="#ffffff"
     bordercolor="#666666"
     borderopacity="1.0"
     inkscape:pageshadow="2"
     inkscape:pageopacity="0.0"
     inkscape:pagecheckerboard="0"
     inkscape:document-units="mm"
     showgrid="false"
     inkscape:zoom="0.70915209"
     inkscape:cx="456.17859"
     inkscape:cy="103.6449"
     inkscape:window-width="1600"
     inkscape:window-height="837"
     inkscape:window-x="-8"
     inkscape:window-y="-8"
     inkscape:window-maximized="1"
     inkscape:current-layer="svg30" />
  <metadata
     id="metadata2">
    <rdf:RDF>
      <cc:Work
         rdf:about="">
        <dc:format>image/svg+xml</dc:format>
        <dc:type
           rdf:resource="http://purl.org/dc/dcmitype/StillImage" />
      </cc:Work>
    </rdf:RDF>
  </metadata>
  <g
     transform="translate(-25.788 -101.9)"
     id="g28">
    <g
       transform="matrix(.29836 0 0 .28538 25.937 -76.931)"
       id="g8">
      <path
         transform="translate(0 627.17)"
         d="m283.47 0c-13.948 4.2381e-7 -27.911 2.4064-41.219 7.25l-209.62 66.594c-19.597 7.1326-32.625 25.771-32.625 46.625v184.25c9.6786e-7 20.854 13.028 39.492 32.625 46.625l209.62 66.594c26.615 9.6872 55.791 9.6872 82.406 0 0 0 210.55-67.678 209.62-66.594 19.597-7.1326 32.656-25.771 32.656-46.625v-184.25c0-20.854-13.06-39.492-32.656-46.625-0.77931-0.62347-209.62-66.594-209.62-66.594-13.308-4.8436-27.239-7.25-41.188-7.25z"
         fill="#fed416"
         stroke="#999"
         stroke-width=".999"
         id="path4" />
      <path
         transform="translate(0 627.17)"
         d="m283.47 7.0938c-13.128 3e-7 -26.256 2.2851-38.781 6.8438l-209.62 66.594c-16.797 6.1137-27.969 22.062-27.969 39.938v184.25c8e-7 17.875 11.172 33.855 27.969 39.969 1.225 0.27432 209.62 66.594 209.62 66.594 25.05 9.1173 52.513 9.1173 77.562 0l209.62-66.594c16.797-6.1137 27.969-22.094 27.969-39.969v-184.25c0-17.875-11.172-33.824-27.969-39.938l-209.62-66.594c-12.525-4.5587-25.654-6.8438-38.781-6.8438zm0.125 7.0625c12.258 0.0189 24.523 2.1804 36.219 6.4375l209.62 66.594c13.998 5.0947 23.312 18.385 23.312 33.281v184.25c0 14.896-9.3148 28.218-23.312 33.312l-209.62 66.594c-23.484 8.5475-49.235 8.5475-72.719 0 0 0-208.42-66.326-209.59-66.594-13.998-5.0947-23.312-18.416-23.312-33.312v-184.25c1e-6 -14.896 9.3148-28.187 23.312-33.281l209.59-66.594c11.008-4.0066 22.527-6.1558 34.062-6.4062 0.81713-0.01774 1.6203-0.03255 2.4375-0.03125z"
         id="path6" />
    </g>
    <g
       font-family="sans-serif"
       stroke-width=".26458"
       id="g22">
      <text
         x="41.069355"
         y="181.78239"
         font-size="70px"
         style="inline-size:108.779;line-height:1.5;white-space:pre"
         xml:space="preserve"
         id="text10" />
      <text
         x="34.03381"
         y="183.1115"
         font-size="50.8px"
         style="line-height:1.25"
         xml:space="preserve"
         id="text16"><tspan
           x="34.03381"
           y="183.1115"
           id="tspan12" /><tspan
           x="34.03381"
           y="246.6115"
           id="tspan14" /></text>
      <text
         x="42.901779"
         y="183.35118"
         font-size="50.8px"
         style="line-height:1.25"
         xml:space="preserve"
         id="text20"><tspan
           x="42.901779"
           y="183.35118"
           stroke-width=".26458"
           id="tspan18" /></text>
    </g>
    <g
       aria-label="1"
       transform="scale(0.95037873,1.0522121)"
       id="text26"
       style="font-size:109.712px;line-height:0;font-family:'Highway Gothic';-inkscape-font-specification:'Highway Gothic';text-align:center;letter-spacing:1.32292px;word-spacing:0px;text-anchor:middle;stroke-width:0.462982">
      <path
         d="m 124.1997,190.90289 h -10.31292 v -60.45131 h -6.25359 v -8.33811 q 5.70503,-0.10971 8.88667,-4.71762 h 7.67984 z"
         style="line-height:0px;font-family:'Highway Gothic Narrow';-inkscape-font-specification:'Highway Gothic Narrow';baseline-shift:baseline"
         id="path174433" />
    </g>
  </g>
</svg>
