<svg id="Layer_1" data-name="Layer 1" xmlns="http://www.w3.org/2000/svg" width="200" height="220.2613" viewBox="0 0 200 220.2613"><defs><style>.cls-1{fill:#1f36c7;}</style></defs><path id="Logo" class="cls-1" d="M817.6073,600.2718c3.6673.023,6.06,2.0472,6.0433,4.6251a3.3113,3.3113,0,0,1-3.341,3.3484c-4.1285-.0256-3.0811-3.0491-4.7971-3.06-4.5932-.0288-7.9806,8.5729-11.4624,16.0592-1.3974,3.011-2.2088,3.5658-3.3532,3.5586-2.88-.0178-3.5067-7.7492-4.638-11.1156-2.44,5.0206-7.0689,11.0434-14.6454,10.9962-4.36-.0263-8.69-2.2946-8.6463-9.12.05-7.6122,5.1218-13.0739,10.2852-13.042,3.904.0239,6.5168,3.9653,6.4986,6.7606-.0486,7.5078-10.1542,7.6617-10.1645,9.2321-.0092,1.4562,2.6278,2.036,4.1161,2.0453,6.4329.0389,10.7994-8.404,12.2586-14.1518.2519-.9975,1.1671-3.1275,3.005-3.1164,2.07.0128,1.0691,12.6616,3.9395,12.68C804.4292,615.9826,806.8189,600.2053,817.6073,600.2718Zm-94.1517-9.1207c.7585,13.5316-3.8954,19.15-6.2385,24.007.3783,1.8914,3.641,5.1258,6.738,5.1452a4.5051,4.5051,0,0,0,2.88-.9962,10.8692,10.8692,0,0,1-.4438-3.2482c.0508-7.84,5.259-14.4167,9.7343-14.3886,3.5568.0215,5.5937,4.6254,5.5741,7.6547-.0238,3.5773-3.1432,6.4774-7.7478,9.2484a5.5823,5.5823,0,0,0,3.55,1.3668c6.5448.04,10.0209-7.6679,12.6014-14.7114.4665-1.3436,1.2865-3.2385,2.89-3.2284,2.7538.017,3.7909,17.7186,8.3678,17.7464,1.9573.0124,3.5859-3.9011,3.6054-6.9173.0146-2.2427-.7866-2.4726-.7656-5.7211.0231-3.5786,1.995-6.5879,4.64-6.5713,1.6048.0094,2.1733,1.5742,2.1619,3.4732-.0472,7.17-5.4181,20.4655-13.2107,20.4183-5.863-.037-5.3418-9.8894-7.4043-9.9019-2.3055-.0142-5.582,9.9318-16.9314,9.8628a7.3479,7.3479,0,0,1-5.3766-2.7253,13.4226,13.4226,0,0,1-7.7073,2.5332c-4.2418-.0264-6.0538-4.2939-7.7709-4.305-2.07-.0125-4.3861,4.3411-11.278,4.2988-5.5067-.034-6.3789-7.2-8.3255-7.2117-1.725-.0107-4.4092,7.133-7.2753,7.1156-4.8263-.03-5.77-12.4622-10.0224-12.4889-3.3263-.02-13.9221,12.5368-16.7744,12.23a1.6575,1.6575,0,0,1-1.4954-2.0815,77.71,77.71,0,0,1,2.1318-7.6464c.95-3.4,1.8258-7.1257,2.3094-8.3136a3.0454,3.0454,0,0,1,2.7812-1.948c.5155.051.6637.99.8186,1.7649.561,2.7728,1.3529,5.6,2.266,5.6063,1.612.01,7-9.9259,10.0956-9.9068,3.7931.0232,4.1455,15.7073,9.3051,15.7388,1.7249.01,3.0054-1.9944,4.1636-4.4572.145-4.149,1.3284-10.0639,4.7708-10.0424,2.4118.0149,3.5267,5.2814,1.77,9.8666-.0356,5.4808,3.6232,6.8483,6.0381,6.8625,1.7193.0108,4.6806-.5149,7.0319-4.1382-1.3124-2.8931-2.2244-8.7286-2.3431-10.8517-.6147-10.861,3.7366-21.0455,8.43-21.2983C720.4406,582.8074,723.1724,586.0015,723.4556,591.1511Zm-68.5437-1.8474c1.01,3.59,1.096,8.2876.7038,15.0066-.5113,9.1787-5.291,20.24-16.9914,19.9374-10.0985-.2778-14.5275-6.6895-14.9294-16.4347a43.7054,43.7054,0,0,1,2.1677-15.6615c1.0559-3.47,1.9861-4.7007,5.1982-5.3474,2.5244-.4344,2.281,2.1366,1.69,5.1667-1.3,6.7079-1.9058,9.9467-1.49,17.5668.3983,8.0671,4.1725,11.2265,8.3032,11.2521,6.1959.155,8.9792-4.8677,10.179-12.146.95-5.8133.2814-8.6173-.286-10.41a34.4462,34.4462,0,0,1-1.511-5.0048c-.55-3.744,1.4684-6.1957,3.3134-6.75C653.3287,585.9287,654.1281,586.9463,654.9119,589.3037Zm79.4653,17.735c-1.0438-.0062-3.4516,1.0946-3.4747,4.6791a6.8436,6.8436,0,0,0,1.4606,4.7211,5.8129,5.8129,0,0,0,4.2834-5.92C736.6589,608.6233,735.63,607.046,734.3772,607.0387ZM781.5279,607c-4.36-.0265-4.0582,6.91-3.3771,8.5981,3.2158-.5385,5.29-2.4375,5.8769-4.11C784.6139,609.8039,783.9406,607.0141,781.5279,607ZM717.05,589.7049c-2.2866.12-3.387,7.13-2.9681,14.5079.2665,4.8141.9955,5.56,1.68,5.5183,1.2641-.0659,4.3516-8.6437,3.959-15.58C719.5414,591.019,718.7739,589.6,717.05,589.7049Zm-19.4845-5.2871a3.3408,3.3408,0,0,1,3.5376,3.0413c.2136,2.5814-1.64,5.3692-4.1551,5.3544a3.3237,3.3237,0,0,1-3.4257-3.3887C693.3223,586.6207,695.3883,584.4044,697.5652,584.4178Zm22.7727-43.5233a14.554,14.554,0,0,1,6.3728,4.5029,11.0092,11.0092,0,0,1,3.675-.558,23.3527,23.3527,0,0,1,6.8012,1.1681c.1232-.8051.2447-1.7934,1.4711-1.7941,1.8373-.0015,1.3482,2.037,1.9623,3.203.3073.617,1.843.9868,1.8445,2.2208a1.5771,1.5771,0,0,1-1.5955,1.61,2.6671,2.6671,0,0,1-.7373-.1223c-1.2222.4332-1.2761,9.3148-6.4236,9.32-3.7986.0036-7.2928-3.14-8.83-7.0842a2.6294,2.6294,0,0,0-2.2074-1.9122c-.9785.0008-1.5293.1868-2.69,1.4862a21.24,21.24,0,0,1-15.6183,6.7939c-2.0852.0022-3.7381-.18-4.1676-.1795-.2461,0-.2461.0608-.2461.1209,0,.4338,2.0845,2.1,6.6194,2.0956,10.7826-.0093,13.4148-6.1225,15.1281-6.124a1.4223,1.4223,0,0,1,1.4079.9876,12.0169,12.0169,0,0,0,11.435,7.2644,28.87,28.87,0,0,0,3.7078-.2486c.9178-.0007.9806.553.9806.9246.0015,1.3585-3.0033,3.03-8.3294,3.035-3.1263.0029-5.0275-1.6646-5.5812-3.516a24.022,24.022,0,0,1-12.3113,3.7773c-12.5575.0114-15.7494-5.4822-19.6712-7.2623-3.0062-1.356-7.5968,1.3034-14.0372-5.91a15.4926,15.4926,0,0,0,2.9437.2436c5.6323-.0054,8.6324-2.78,8.6281-7.2278a16.221,16.221,0,0,0-.1236-1.72,12.2291,12.2291,0,0,1,6.5661,8.8729c.1229.617,2.6336,1.17,4.2255,1.1685,2.2078-.0014,5.0253-.9317,5.4505-4.5686C714.34,550.8385,719.3008,546.454,720.3379,540.8945Zm44.3049,5.0768c1.418-.0014,3.3867,1.3261,3.3895,4.5856.0058,5.7331-8.5914,12.8034-20.1,12.8132-3.5552.0036-5.4655-2.4047-5.4676-4.8208a13.4937,13.4937,0,0,1,3.363-8.2759c.6744-.7878,1.3517-1.3917,1.9673-1.3927a15.4655,15.4655,0,0,0,5.294,1.0229A18.3072,18.3072,0,0,0,764.6428,545.9713Zm-3.6882,5.3159a14.0717,14.0717,0,0,1-7.3065,1.8811h0l-.8006.0007a11.5889,11.5889,0,0,1,.1226,1.39,13.9924,13.9924,0,0,1-.8562,4.4h0l6.7074-1.9343a5.2874,5.2874,0,0,0,2.812-4.4686C761.6322,551.4664,761.2636,551.2872,760.9546,551.2872Zm-28.7273-2.195a2.47,2.47,0,1,0,2.4542,2.4691A2.4689,2.4689,0,0,0,732.2273,549.0922ZM675.02,525.9108c7.5149-.007,13.2936,6.326,13.3016,15.3548.0043,4.07-2.2255,10.1106-11.2931,10.1175-10.7447.0091-17.2774-9.0152-17.2825-14.8723-.005-4.9085,3.2867-8.0161,5.3344-8.4982-2.1636,8.7346,2.6861,17.3412,12.6272,17.3322,4.97-.0042,7.3871-2.4606,7.3827-6.7026-.0043-4.7275-3.2986-9.4457-8.8277-9.4412-2.7945.0028-4.72,1.56-4.7183,3.7076a5.9828,5.9828,0,0,0,6.2194,5.86c2.11-.0021,3.4775-.8405,3.4761-2.2175a1.3962,1.3962,0,0,0-.1872-.7179,3.4379,3.4379,0,0,1-1.3676.24c-2.5456.0021-4.5955-1.4335-4.5969-2.867a1.7869,1.7869,0,0,1,1.9213-1.8512c3.7273-.0035,6.2774,3.6981,6.28,6.3916.0022,2.7453-2.044,5.141-5.5222,5.1438a10.0833,10.0833,0,0,1-10.5064-9.8589C667.2567,528.79,670.9182,525.9143,675.02,525.9108Zm39.45,4.4951a1.9913,1.9913,0,0,1,1.872,1.9913,1.76,1.76,0,0,1,1.3246-.5649,1.8587,1.8587,0,0,1,1.9333,1.8766,1.9411,1.9411,0,0,1-.8439,1.5412,1.7256,1.7256,0,0,1,1.1491,1.5994,1.6089,1.6089,0,0,1-1.6888,1.6014c-.9048,0-1.45-1.03-2.4122-1.0289a1.8174,1.8174,0,0,0-1.3879.5732,5.6807,5.6807,0,0,1,.546,2.3346c.0036,4.4542-5.9651,8.0509-12.1767,8.0566s-8.4462-3.6416-8.4479-5.1266c0-.342.2408-.5146.6635-.5146a33.169,33.169,0,0,0,4.04.3393c6.6349-.0057,4.2755-8.5054,10.4856-8.51a4.5158,4.5158,0,0,1,3.3789,1.7089,2.5413,2.5413,0,0,0,.6635-1.6563c-.0007-.9691-.667-1.7139-.6677-2.62A1.5111,1.5111,0,0,1,714.47,530.4059Zm41.1948,8.99c3.6929-.0028,6.3883,1.0167,6.39,2.7682h0l.0015,1.3906a2.1765,2.1765,0,0,1-.6128,1.7533,10.3848,10.3848,0,0,1-6.6324,2.0012c-3.3222.0025-6.033-1.1437-6.0337-2.2931h0l-.0025-2.778C748.7738,541.39,751.1717,539.4,755.6648,539.3961Zm19.9645-20.9772c4.9432-.0045,10.4436,3.29,10.4507,10.721.0068,7.9125-11.4492,17.7464-13.1593,17.7481-1.4052.0007-2.9342-1.9724-2.9349-3.2921-.0007-.4176.1825-.96,1.4045-1.4379,5.847-2.2869,9.1971-7.5613,9.1943-10.2594a1.0687,1.0687,0,0,0-1.0992-1.1922c-1.0344.0007-5.47,9.9484-10.418,9.953-3.422.0031-6.9053-3.0451-6.9067-4.4865-.0021-2.3987,9.8885-6.84,9.8857-10.199-.0014-1.2607-.6113-1.319-1.1-1.3183-1.2828.0007-8.3616,9.2964-12.9284,9.3013-1.0991.0007-2.0161-2.0367-2.0176-3.59-.0014-.839.5459-1.4393,2.5026-1.862C768.9934,526.1567,766.6652,518.4266,775.6293,518.4189Zm-37.6161-11.987c2.692-.0022,4.9628.923,4.9635,2.1016.0014,1.6143-3.9815.6255-4.287,2.5452,2.82.37,3.497,1.3619,3.4977,2.17.0014,1.3644-1.2262,1.7968-2.3922,1.7979-.8567.0007-1.8359-.1844-2.8787-.1829a4.6092,4.6092,0,0,0-3.794,1.616,2.105,2.105,0,0,1,1.9623,1.922c.0029,3.5969-9.8592.6261-9.8506,9.8685.0039,4.8963,5.0306,10.2275,12.6226,10.2206,3.9219-.0032,6.4336-1.308,6.4322-2.799-.0015-1.1772-2.082-.3688-2.0827-1.3623-.0007-.4338.7318-1.244.7311-1.927-.0007-.3011-.2445-.8612-.7339-.86-1.1049.0007-3.1865,1.7968-7.4132,1.8-3.3071.0029-6.5535-1.9114-6.5556-4.5177-.0007-.5575.2445-.87.6108-.87.3687-.0007.8585.2491,1.2869.2484.3688,0,.4291-.25.4284-.9321s-.0022-2.6074,1.1587-2.6077c1.1645-.0015,3.3743,4.34,11.8294,4.3326,2.8056-.0025,8.2585-.5647,10.279-2.4291a16.017,16.017,0,0,1-16.3348,15.8259c-11.4492.0108-17.58-9.2861-17.588-17.8433A18.14,18.14,0,0,1,738.0132,506.4319ZM680.79,518.4189a7.6443,7.6443,0,0,1,7.1814,3.9076c1.83,2.7471,2.1382,7.3315,3.11,8.1882a2.9167,2.9167,0,0,0,1.8275.5489c.6091-.0011,1.1566-.0631,1.58-.0638,4.3818-.0036,7.3665,4.9429,7.3686,7.1462.0022,2.0179-1.76,2.7464-3.949,2.7485a10.5023,10.5023,0,0,1-7.1245-3.2293c-1.1559-1.2214-1.7665-3.6691-2.2568-6.66-.4892-3.12-2.9251-5.7484-7.793-6.9587-3.8954-.9773-4.4432-1.7093-4.4442-2.75C676.2885,519.5825,678.6626,518.4207,680.79,518.4189Zm13.8845,14.838a1.4765,1.4765,0,0,0-1.5174,1.4078c.0007,1.1023,2.7385,3.0579,4.5656,3.0557.91-.0007,1.2137-.5517,1.2137-.9811C698.9341,535.15,696.1966,533.2555,694.6743,533.2569ZM659.115,473.4676c.8079-.0007,1.1795.7948,1.1809,1.5891.0022,2.9321-3.7736,11.3674-3.7714,13.748,0,.3672.1233.6722.4341.6722,1.5525-.0015,4.6474-6.6,5.6366-9.9008.5572-1.712,1.3017-2.63,1.9852-2.63.62-.0007,1.18.6714,1.1816,2.0778.0029,3.2982-3.0952,11.0606-5.8192,16.2579-2.1053,4.0334-5.388,9.837-5.3851,13.0761.0014,1.6489.31,3.3577,2.7334,5.4348-3.9719-.24-5.5862-.6059-7.0769-3.6587-6.6271,13.02,12.2359,11.72,5.7907,23.2689-1.1816-2.0721-10.4894-4.2037-10.501-16.3006-.009-10.4457,9.2911-16.5649,9.2875-20.9022a2.7746,2.7746,0,0,0-1.1169-2.2588c-2.0514-1.71-2.1154-3.1123-3.7255-3.1109-1.1809.0015-2.6068,2.69-1.1147,5.069.4986.7941.9328,1.2828.9335,2.0166.0014,1.7091-2.7262,6.2919-4.6459,6.294-1.9256.0015-3.4162-4.696-3.4235-12.276-.0057-6.72,1.5363-13.5014,3.4611-13.5036.5575,0,.7439.3659.7446.8557.0007.7947-.2453,2.382-.2432,5.0675.0022,2.8747.6857,3.12,1.245,3.12,2.1075-.0022,1.6607-12.7117,5.0739-12.7146.8072-.0007,1.0565.7947,1.058,1.7719.0021,2.8718-1.4234,7.0887-1.4212,9.4084.0014,1.162.3126,1.5293.8712,1.5286C653.9792,487.4656,656.5711,473.4694,659.115,473.4676Zm47.1356,31.0915c.5482,3.0946,1.8155,4.703,4.5366,5.7139,5.3779,1.9587,6.1072,4.9342,6.11,8.0934.0056,5.3608-3.7957,12.0311-13.5826,12.0395-7.8564.0066-13.4833-6.8943-13.489-12.73-.0014-1.61.4207-3.3945,1.4484-3.3952.9075-.0007,1.2105.711,1.9337,1.4255,2.7237,2.6793,5.6837,3.3889,9.974,3.3851,3.8676-.0035,6.7054-1.5539,6.704-3.1623-.0018-2.678-5.6234-2.7318-5.627-6.7821A9.2218,9.2218,0,0,1,706.2506,504.5591Zm71.2745,16.3773c-.854.0007-1.7691.6625-1.7674,2.282a4.1657,4.1657,0,0,0,3.9665,3.7685c1.7738-.0014,3.1783-.4833,3.1768-1.9229C782.9,523.2118,780.1483,520.9333,777.5251,520.9364ZM712.6069,518.61c-.4848,0-1.0238.9505-2.4746,1.607-2.0722.9367-2.8991.7773-2.897,2.8634.0007.7738-.1807,1.7816-.1807,2.3173.0007.7151.1233,1.1331.9681,1.1324,2.1758-.002,5.6157-3.6351,5.6132-6.7331C713.6345,518.9614,713.1508,518.609,712.6069,518.61Zm24.62-.2706c3.5481-.0032,5.9459,2.2871,5.9481,4.6461a2.8718,2.8718,0,0,1-2.8816,2.9744,2.71,2.71,0,0,1-2.6949-2.7846c-.0007-1.0542.4277-2.0481.427-2.9776A2.5047,2.5047,0,0,0,737.2271,518.3391Zm53.8957-14.904c3.0427-.0028,5.4811,3.9441,5.4851,8.5629a19.0838,19.0838,0,0,1-6.4259,13.9128c-.0677-8.1991-10.1129-5.578-10.1179-11.5311a4.0338,4.0338,0,0,1,4.0155-4.2561,6.1674,6.1674,0,0,1,4.5665,1.6392,5.3811,5.3811,0,0,1-1.6476-3.887A4.1323,4.1323,0,0,1,791.1228,503.4351Zm-127.3039,6.0554a4.1271,4.1271,0,0,1,4.64,3.1169,3.804,3.804,0,0,1,2.0266-.8561,4.0108,4.0108,0,0,1,4.2849,3.68,4.1611,4.1611,0,0,1-3.513,4.456c-.226.0444-.5238.0759-.5238.0759a4.6571,4.6571,0,0,1,.3689,1.4468,3.96,3.96,0,0,1-3.5412,4.4575,3.7778,3.7778,0,0,1-4.3578-3.0026,4.9312,4.9312,0,0,1-2.0216.6314,4.0184,4.0184,0,0,1-4.4137-3.521,4.2129,4.2129,0,0,1,3.4294-4.566c.2474-.0363.6094-.0927.6094-.0927a4.2092,4.2092,0,0,1-.3081-1.2547A4.0445,4.0445,0,0,1,663.8189,509.4905Zm93.6735,4.8612c4.5854.3055,7.5291,3.0922,7.532,6.3775a4.2644,4.2644,0,0,1-4.2246,4.4657,3.6721,3.6721,0,0,1-3.8515-3.714c-.0014-1.799,1.16-3.41,1.1588-5.148A3.7075,3.7075,0,0,0,757.4924,514.3517Zm-12.1371-6.5637c6.4353,1.2347,9.9306,6.1306,9.9348,10.7189.0029,3.1645-1.953,6.0749-5.3854,6.0778-3.1254.0025-5.3823-2.1609-5.3858-5.6364-.0018-2.6034,2.003-5.3327,2.0009-8.0008A4.8359,4.8359,0,0,0,745.3553,507.788Zm-79.5066,7.5866-.2242.0161a2.38,2.38,0,0,0-2.042,2.6583,2.3422,2.3422,0,0,0,2.5854,2.0972,2.3754,2.3754,0,0,0,2.04-2.6538,2.3418,2.3418,0,0,0-2.5839-2.1017Zm83.4937-2.7536c-.4923,0-.3063.7455-.43,1.5514-.06.6193-.3645,1.3623-.3645,1.86a1.4771,1.4771,0,0,0,1.473,1.5492,1.7,1.7,0,0,0,1.5928-1.863C751.6125,514.4193,750.4459,512.62,749.3424,512.621ZM761.52,486.1318c.9261-.0014,2.2275,3.0223,2.8461,3.0216.9881-.0007,2.345-2.47,3.2744-2.4709.306-.0007.4306.185.4313.7407.0022,2.2816-1.1695,4.8748-1.1674,7.1009.0015,1.54.4991,3.33,2.0435,3.3289,1.2971-.0007,2.4087-1.9734,2.4072-4.1362-.0028-2.47-.4371-4.3831-.4378-5.3725,0-.43.1847-.6144.4321-.6144.9279.0608,1.7943,2.59,2.7842,2.5893,1.1131-.0008,2.7673-2.0422,3.4461-2.0429.1858,0,.2459.2472.2459.308.0015.9283-1.4177,2.9687-1.4169,3.7691.0007.6778,3.5858.798,3.5865,1.4163.0007.9268-3.7565.93-5.5476,1.7345-1.73.7411-2.7813,1.6682-2.7806,2.9038s1.2383,1.4786,2.97,1.4771c4.1285-.0036,7.0272-2.2272,7.953-2.2279a.2907.2907,0,0,1,.3082.3085c.0008.6176-2.0975,2.6555-2.0968,3.5812.0015,1.0491,3.835,2.2768,3.7741,2.8959-.0619.1854-.31.2469-.7425.2469-.6816.0007-1.73-.1825-2.535-.1818a1.4258,1.4258,0,0,0-1.113.3081c-.4264.4964.1278,3.7662-.7328,3.767-.8041.0007-2.9121-7.2791-7.657-7.2755-.6806.0007-1.1732.5561-1.1728,1.4833.0021,2.4665,2.4158,5.3038,4.7035,6.66,1.0367.68,2.7687,1.3573,2.7694,1.7284.0008.7378-3.9426.0651-3.9419,1.2978.0015,1.1126.4973,2.7811.4987,3.7655,0,.3092-.0615.6781-.4328.6781-.74.0007-2.539-3.39-3.4029-3.389-.7407.0007-2.346,2.0361-3.029,2.0368a.3452.3452,0,0,1-.3068-.3668c-.0015-1.4206,2.2826-4.6325,2.28-7.7807-.0015-1.4829-.19-4.6919-1.9845-4.69-1.4814.0015-3.15,2.3467-3.8893,4.6955-.43,1.3569-.116,6.6039-1.1062,6.6053-.9276.0007-.6839-3.5175-1.9208-3.5171-.9114.0014-2.8879,1.6675-3.5681,1.6682-.1239,0-.2481-.0616-.2481-.1843-.0007-.7389,1.79-3.15,1.7889-3.6435-.0007-.9242-4.08-1.043-4.08-1.7848-.0007-.4337,1.606-.7425,3.0882-.9923,3.14-.559,7.7736-2.8455,7.7711-6.0524-.0036-3.58-3.4673-5.1224-5.7417-6.6028-1.1753-.7407-2.4734-1.3533-2.4745-1.8467,0-.4956,1.4846-.4971,2.1011-.4971.9265-.0014,1.8422-.064,1.8415-.8044-.0007-.5575-.1271-1.665-.1278-2.53C761.2094,486.6264,761.2706,486.1318,761.52,486.1318Zm-62.3649-9.6674c3.2042,1.7236,5.5625,4.6422,5.5646,7.021.0036,4.109-4.3428,6.0166-4.3407,8.5794.0029,2.9762,4.6543,3.45,4.6578,7.141.0028,3.0332-4.4059,6.5513-4.4023,10.4808a5.9775,5.9775,0,0,0,5.505,5.9472,14.162,14.162,0,0,1-3.0809.4208c-6.1043.0049-12.3914-4.9286-12.3967-10.8259a10.0869,10.0869,0,0,1,3.1943-7.323c1.6949,1.4269,3.3859,2.3767,4.4749,2.376.9674-.0014,1.39-.4753,1.3891-1.19-.0017-2.2069-8.8875-4.22-8.8917-8.9252-.0035-3.8111,9.1817-5.842,9.1778-10.5471A7.7153,7.7153,0,0,0,699.1549,476.4644Zm-23.2525,0a14.4653,14.4653,0,0,0-1.5766,6.8518c.01,10.3972,12.4862,20.1117,12.4919,26.5323a5.4033,5.4033,0,0,1-5.3445,5.5736,4.5642,4.5642,0,0,1-4.6871-4.4616c-.0014-1.5924,1.0944-2.8174,1.4558-2.8181.1815,0,.2422.1227.2429.55a1.9916,1.9916,0,0,0,2.072,1.9583,2.0335,2.0335,0,0,0,2.1246-2.0828c-.0039-5.0757-10.29-13.9351-10.3008-26.1072a13.7787,13.7787,0,0,0-1.2124,5.63c.005,5.8707,4.2682,11.9849,4.2732,17.4858a4.1868,4.1868,0,0,1-3.9487,4.2858,3.299,3.299,0,0,1-3.47-3.299c-.0007-.8577.3642-1.6527.6068-1.6527.305-.0007.1837,1.285,1.5841,1.2836,1.4571-.0014,2.0043-1.0435,2.0029-2.9366-.0046-5.075-2.9263-8.6835-2.93-13.9447a11.0547,11.0547,0,0,1,.1787-2.4451c-1.5809,1.8995-1.7611,4.59-1.7589,6.9745h0l.0053,6.2405c.0042,4.2148-2.1214,6.1157-4.6778,6.1185a3.3436,3.3436,0,0,1-3.2878-3.5453c-.0007-.3053.1823-1.4056.5479-1.4063.4869-.0007.8533,1.2821,2.2523,1.2807,2.6763-.0018,2.8561-2.6291,2.8518-7.891C665.3928,488.5859,667.8784,481.6682,675.9024,476.4644Zm61.5276,0c.6853,5.2433,7.7287,2.5835,7.7351,8.94.0008.9272-.2455,2.2873-.2448,3.4571.0014,1.3608.1267,2.5335,1.1641,2.532,1.0494,0,1.2975-.7407,1.2967-1.7305s-.2509-2.2214-.2517-2.9a2.3885,2.3885,0,0,1,2.4717-2.6555c2.3492-.0025,4.1432,2.4025,7.6671,2.3992-.8,3.9512-8.9613,2.9078-8.9569,7.2308.0021,2.1628,2.1652,2.6505,3.5879,2.6505,1.2992-.0015,1.7313-.1879,1.7306-1.2961-.0007-.6187-.1268-1.2971-.1268-1.7305a.4894.4894,0,0,1,.4959-.4949c1.3608-.0014,8.025,5.0555,8.0264,6.6006.0015,1.417-7.03,2.8434-9.07,2.8448a.6575.6575,0,0,1-.7425-.677c-.0007-.4319,1.0482-1.7305,1.0475-2.47,0-.5553-.9265-.925-3.4007-.9232-1.1739.0015-2.04.1253-2.0388,1.0546.0014,1.6621,2.7255,3.6975,2.7269,5.2394.0008,1.2352-.7407,1.977-2.72,1.9788-1.6684.0014-4.1915-1.2943-4.1937-3.4534-.0014-1.7277,1.7785-3.4564,1.7778-4.5062a.8585.8585,0,0,0-.978-.8023c-2.287.0022-2.9,6.0492-10.9929,6.7355a6.1909,6.1909,0,0,0,2.4043-5.1209c-.0014-1.2972-.3089-2.3481-.31-3.7655-.0022-1.8525.86-2.7811,2.0953-2.7825,2.2841-.0022,3.3986,3.2069,4.8857,3.2054a1.7841,1.7841,0,0,0,1.6676-1.851c-.005-4.6931-9.0249-4.0052-9.0307-10.61C735.1506,481.7729,735.7639,479.5511,737.43,476.4644Zm24.7058-23.974a9.1555,9.1555,0,0,0,5.7016,1.5945c2.1222-.0014,4.0618-.5574,7.1548-.56,7.2575-.0064,10.4776,5.0962,14.9722,11.6055,2.7146,1.7171,9.2056,4.4795,9.2123,12.2876.0064,6.886-7.2067,10.7053-8.9446,18.0832,2.775-.3076,4.4088-5.3532,7.2576-5.3561,1.456-.0014,2.1243,1.168,2.1261,3.0138a13.4616,13.4616,0,0,1-4.4193,9.2868,4.1226,4.1226,0,0,0,.06-.9245c-.0014-1.72-.67-4.1749-2.6118-4.1742-3.0184.0029-3.9856,3.3224-5.6808,6.0884-1.7633-6.2666-4.1331-11.9237-8.3759-15.3623-4.2939-3.4995-11.6924-1.5888-11.6984-7.9812-.0014-1.7239,1.0883-4.1824,1.0862-6.15a2.9093,2.9093,0,0,0-.4885-1.7834c5.8252,2.2107,3.7662,6.144,7.35,10.1984,2.2318,2.5828,8.4148,5.0363,12.0019,15.6677a11.686,11.686,0,0,0,.1187-1.6579c-.0085-9.1-11.8832-18.0051-12.916-21.6942,6.894.7937,8.1085,2.5162,11.3918,11.7323.6676,1.9086,2.8562,6.6416,2.858,8.976a37.52,37.52,0,0,1,4.1625-8.55c-1.9869-1.041-7.266-3.2518-7.2688-6.88-.0032-4.2422,5.2063-7.5671,6.2865-7.5671.4843-.0008.6068.4294.6082,1.23.0015,2.2118-1.0264,5.7783-1.025,7.6862.001,1.7193,1.095,3.38,2.0643,3.3787,1.0314-.0008,3.8764-3.692,3.8735-7.32a8.23,8.23,0,0,0-7.3914-8.478c-1.6372.0021-4.6055,2.709-11.5751,2.7144-13.0213.0122-16.0051-13.0774-16.01-18.7969C762.0164,452.5524,762.0754,452.49,762.1358,452.49Zm-74.5181,7.4919c1.477-.0014,4.2431,2.5767,4.9841,5.2117a4.9028,4.9028,0,0,0-.9227-.1184c-1.9685.0014-3.0685,1.9194-4.6658,5.1569,3.5612-2.344,6.8777-4.2613,10.6274-4.2648,3.1939-.0028,5.7179,1.91,5.7207,4.8487A7.3529,7.3529,0,0,1,701.95,474.65c-.4948-2.6955-2.7693-3.8895-6.7017-3.886a22.2155,22.2155,0,0,0-7.1275,1.2024c6.9458.9547,7.9931,3.41,7.9949,5.6283.0036,3.7763-3.8665,5.6363-6.4481,6.8988a15.3727,15.3727,0,0,0,.4278-3.4167c-.0021-2.28-.8628-4.855-4.3706-7.3674-.5482,2.4561-2.5121,3.9576-2.5107,5.8729a.8594.8594,0,0,0,.8592.9592c.0015,1.0794-.4883,4.1358-.4876,4.9168.0014,1.6154.3715,1.9159,1.1709,2.0945.4934,1.3792.5117,3.691.8492,4.9312a1.1456,1.1456,0,0,0,1.1824.8819c.4924,1.1976,1.11,2.9961,2.28,3.8305a1.4182,1.4182,0,0,1,.5511.9592c.0007,1.08-1.6558,2.2811-2.7006,2.2825-.3074,0-.84-.1852-1.3125-1.2915-.3855-.9078-3.3605-2.72-3.5465-3.8a1.3894,1.3894,0,0,0,.3071-.96c-.0015-1.6773-2.7063-3.5939-2.7092-6.229a1.2621,1.2621,0,0,0,.6141-1.1412c-.0014-1.4966-1.6038-4.4343-1.6048-6.4093.6761-.0007,1.0455-.0618,1.1057-1.0217.1208-1.9764.5486-4.9165,2.4512-6.5935a11.9542,11.9542,0,0,0-1.72-.1188c-3.6873.0028-9.4009,2.1054-11.5468,6.7822a11.8529,11.8529,0,0,1-.1867-1.9757,6.9659,6.9659,0,0,1,7.43-7.7983,41.8123,41.8123,0,0,1,6.6975.8337c-2.09-2.6969-5.2872-4.6711-7.9308-4.6684-1.2272.0007-2.2119.4218-2.5178,1.4383a10.8593,10.8593,0,0,1-.1864-2.0368c-.0021-2.9335.98-4.6143,3.56-4.6164,3.81-.0035,7.07,4.43,9.04,8.5614v-.0029l0-.5283c.0032-5.7584.1794-8.7018,2.5353-8.8725Zm73.2667,19.4949a2.2409,2.2409,0,1,1-2.316,2.1808A2.2932,2.2932,0,0,1,760.8844,479.4772Zm-7.7225-4.1781a4.0695,4.0695,0,1,1-4.2309,4.0688A4.1635,4.1635,0,0,1,753.1619,475.2991Zm-7.5545-1.8781a2.3572,2.3572,0,1,1-2.4394,2.3584A2.4146,2.4146,0,0,1,745.6074,473.421ZM760.633,471.58a2.772,2.772,0,1,1-2.87,2.77A2.8262,2.8262,0,0,1,760.633,471.58ZM640.1945,469.67c1.9076,2.79,3.6839,3.6381,5.9678,3.6363a29.29,29.29,0,0,0,6.0908-.9157c-3.2325,2.6728-5.9612,4.0728-7.99,4.0742C641.661,476.4665,640.1989,474.2811,640.1945,469.67Zm98.2417-1.1932a3.3609,3.3609,0,1,1-3.4913,3.361A3.4692,3.4692,0,0,1,738.4362,468.4764Zm15.21.2226a2.36,2.36,0,1,1-2.4527,2.3585A2.4139,2.4139,0,0,1,753.6457,468.699Zm-95.6868-5.2985a7.8254,7.8254,0,0,0-.4426,2.7938,6.9274,6.9274,0,0,0,2.4158,5.2777,4.2729,4.2729,0,0,1-2.4731.61c-2.224.0021-4-1.3943-4.0014-3.5787C653.4546,465.4687,656.4965,463.7654,657.9589,463.4005Zm88.4384,1.0631A3.596,3.596,0,1,1,742.67,468.06,3.65,3.65,0,0,1,746.3973,464.4636ZM663.22,458.3589c3.1762.9058,7.0495,3.7577,7.054,7.8245.0022,2.6087-1.4555,5.1594-4.5654,5.1619-3.2361.0028-5.3347-2.7263-5.3377-6.0037A11.259,11.259,0,0,1,663.22,458.3589Zm-20.8082,5.9052c1.5232,2.0017,4.0625,2.6038,6.41,2.6017a14.0644,14.0644,0,0,0,2.2829-.1826c-1.6456,2.0056-3.4892,2.9188-5.072,2.92-2.0945.0021-3.6794-1.5766-3.6824-4.43A4.47,4.47,0,0,1,642.4118,464.2641Zm117.7217.1874a2.4763,2.4763,0,1,1-2.5617,2.4742A2.5434,2.5434,0,0,1,760.1335,464.4515Zm15.941-7.6074c-.2434,0-.5334.1843-.5327.9235.0007.6761.124,1.1073.1247,1.9039.0007.8-.183,1.3536-.9092,1.3543-1.638.0014-3.0968-3.87-4.4918-3.8691a.5519.5519,0,0,0-.6043.4926c.0006.7385,1.2133,2.0881,1.214,2.7653.0014,1.4766-3.94.6793-3.9389,1.91.0007.5542.544.7356,1.2716.7352,1.2756-.0014,3.2756-.5535,4.306-.5542.6068-.0007,1.5171.1212,1.5175.9181.0007.8611-2.1809,1.9684-2.18,2.7689a.6118.6118,0,0,0,.6666.5495c1.6379-.001,4.5327-2.89,6.5938-2.8925.3628,0,1.2695.1831,1.27.737.0007.7976-2.0562,2.2122-2.0555,3.38.0008.3083.1844.6772.5465.6772,1.0866-.0007,2.5383-2.89,4.6012-2.8922.7888-.0008,1.9418.305,2.549.3043.4846,0,.6665-.3072.6665-.4929-.0007-1.2905-3.2172-1.41-3.5224-5.037-.0618-.5528-.2438-1.535-.9124-1.5343-1.09.0014-.2392,3.3815-1.4518,3.3823C778.0183,462.3769,777.1045,456.8427,776.0745,456.8441ZM739.4693,461.17a2.3589,2.3589,0,1,1-2.4494,2.3591A2.4152,2.4152,0,0,1,739.4693,461.17Zm13.9207-2.9573a3.7734,3.7734,0,1,1-3.924,3.7754A3.8775,3.8775,0,0,1,753.39,458.2126ZM655.0862,448.53c.507-.0007,1.0136.02,1.3966.0591a5.7554,5.7554,0,0,1,2.348.4234c.5162.4934.2079,1.43,1.0184,2.487.81,1.0615,1.78.91,1.7818,2.0647a12.6592,12.6592,0,0,1-6.3416,8.5065,12.53,12.53,0,0,1-5.3285,1.4591c-2.4771.0021-4.19-1.0262-5.7114-1.0247-.2542,0-.571.1217-1.0805.1224a1.3247,1.3247,0,0,1-1.2042-1.1532,1.2681,1.2681,0,0,1,.19-.669c.8844-1.3978.0688-6.96,5.5711-10.3249A13.32,13.32,0,0,1,655.0862,448.53Zm141.5224-4.8085c1.6668.5869,1.4964,3.1134,1.5,6.3414.0047,5.6323-.562,12.7824-2.0584,12.9135-2.24.1793-10.5088-7.3281-11.263-12.9019C787.03,450.3064,793.9687,449.1856,796.6086,443.721Zm-51.3209,14.44a2.2409,2.2409,0,1,1-2.3163,2.2388A2.2848,2.2848,0,0,1,745.2877,458.1607ZM684.3,437.5066c4.6954-.0038,7.192,4.2228,7.1966,8.9359a12.033,12.033,0,0,1-.1774,2.0529c2.0162-3.3848,4.8083-5.9837,7.8373-5.9865,3.92-.0042,5.7044,3.4376,5.7086,7.3046.0014,1.689-.4693,4.17-1.2421,4.1706s-.655-1.39-.7762-2.6605c-.1188-1.63-.417-1.9923-.9529-1.9916-1.01.0007-1.6584,2.4174-1.657,4.6546.0014,1.3871.24,2.9588,1.3072,2.9581a2.1465,2.1465,0,0,0,1.4859-.6661,5.3607,5.3607,0,0,1-5.1045,5.202c-5.2274.005-7.1941-6.2175-7.7919-9.8425-3.1447,3.3862-6.0515,5.8678-11.281,5.8723a6.7474,6.7474,0,0,1-7.075-7.0615c-.0006-1.0292.3537-3.6855,1.6027-3.6869,1.4828-.0015.1822,4.9515,3.0924,4.9487.7142-.0007,2.018-.6073,2.73-2.5989a11.3667,11.3667,0,0,0,.6515-3.5655c-.0014-1.633-.36-2.6563-1.5448-2.6555a4.6341,4.6341,0,0,0-2.6754,1.2085A8.9689,8.9689,0,0,1,684.3,437.5066ZM648.49,453.21c-.6972.0007-1.6472,1.521-1.6457,2.7326.0022,2.2488,2.2888,4.7347,4.3811,4.7333,1.1431-.0014,2.35-.6109,2.3495-1.0364,0-.1211-.1266-.1819-.3179-.3023a6.9628,6.9628,0,0,1-4.3226-5.5187C648.8711,453.3927,648.7438,453.21,648.49,453.21Zm50.3121-6.775c-1.2476.0014-3.32,5.983-3.3175,9.2448.0014,1.27.3,1.8144.6567,1.8137,1.4828-.0014,3.1419-5.804,3.1385-9.4286C699.28,447.2787,699.16,446.4354,698.8025,446.4354Zm53.0664-3.9526a8.4984,8.4984,0,0,1,1.1237,3.9281c.0051,6.6908-4.7013,9.2723-9.0415,9.2763a12.2339,12.2339,0,0,1-4.596-.9783c-1.1141.0014-1.0531,2.3359-1.8186,2.2755-1.3537-.2442-2.5885-3.3744-2.5916-6.6887a10.0974,10.0974,0,0,1,1.5207-5.5893,6.1429,6.1429,0,0,0,4.5308,2.2053c.65-.0007,1.4158-.1843,1.8289-.1851.5272,0,.8807.2427.8807.6723a3.9065,3.9065,0,0,1-1.2917,2.3982,5.6717,5.6717,0,0,0,2.2954.4288C748.051,450.2224,751.8744,448.0052,751.8689,442.4828Zm4.524,10.0076a2.2417,2.2417,0,1,1-2.3307,2.2443A2.29,2.29,0,0,1,756.3929,452.49ZM654.8338,450.596c-.95.0007-1.6475.1225-1.6467,1.2736.0015,1.8226,1.78,5.0391,4.0029,5.0377,1.0158-.0015,1.5231-1.097,1.5224-1.9437,0-.4255-1.2134-1.1288-1.6527-1.7-.7005-.9108-.7013-2.1231-1.2722-2.4247A1.5784,1.5784,0,0,0,654.8338,450.596Zm11.236-.8a2.4312,2.4312,0,1,1-2.5382,2.43A2.4937,2.4937,0,0,1,666.07,449.796Zm19.2447-9.4517c-1.8413.0022-4.3854,10.5766-4.3834,12.9339,0,.4241.1189.9077.655.907,2.0183-.0014,4.3221-11.12,4.32-12.9948C685.9061,440.7068,685.7308,440.3443,685.3145,440.3443Zm8.7964,8.0281c-.5944.0007-1.2445.7271-2.1942,2.36.1212,2.1737.48,3.1406,1.072,3.14.6515-.0007,1.6012-2.118,1.5992-4.2308C694.5865,448.613,694.3485,448.3724,694.1109,448.3724Zm-5.704-3.68c-1.7845.0022-2.6688,4.8375-2.6674,6.107.0007.7207.355,1.3262.71,1.3262.6543-.0007,1.4863-.7271,3.0307-2.4795a15.6465,15.6465,0,0,0,.1171-2.4189C689.5963,446.0212,689.12,444.6914,688.4069,444.6921Zm77.89-10.1822c2.0751-.0018,1.5418,2.5057,3.4409,2.5042,1.4793-.0014,3.3756-1.3208,4.5035-1.3223,1.7641-.0014,4.316,5.8914,4.3188,8.65.0027,3.1981-4.545,5.1463-9.9385,5.1521-7.8684.0073-12.617-7.26-12.6212-11.9647a.668.668,0,0,1,.3553-.6274c.7512-.5334,4.0889.3093,8.4028-1.9544A3.0683,3.0683,0,0,1,766.297,434.51Zm-103.5359,9.823a2.4314,2.4314,0,1,1-2.5349,2.4328A2.4955,2.4955,0,0,1,662.7611,444.3329Zm-18.7884-5.7488a5.5355,5.5355,0,0,0-.0633,1.0329c.003,3.46,2.0365,6.068,5.7189,7.0981a7.838,7.838,0,0,1-4.1247,1.3362,4.6734,4.6734,0,0,1-4.89-4.6681A5.1123,5.1123,0,0,1,643.9727,438.5841ZM793.3822,434.51c2.3547.2923,3.278,1.9337,3.28,3.931.0037,4.2848-5.4529,9.16-11.419,9.1662-2.2379.0021-3.7912-.6988-3.7925-2.3443a2.2144,2.2144,0,0,1,2.4692-2.0552c5.2309-.0048,10.0408-3.59,10.0374-6.82A2.616,2.616,0,0,0,793.3822,434.51Zm-50.1568,0c3.7537-.0036,5.225,2.0807,5.7567,2.0807.5869-.0007,1.1748-.6163,1.6475-.6171.6462-.0007.6469,1.0438.6476,1.7826.002,2.4534-1.0524,6.6915-3.7009,8.23a6.1151,6.1151,0,0,0-2.9331-2.9438.9743.9743,0,0,1-.5886-.9195,2.4877,2.4877,0,0,1,1.2828-1.9079c-.4721-.7971-2.2272-1.2224-3.0486-1.2217a4.7961,4.7961,0,0,0-4.7064,3.6264,6.0048,6.0048,0,0,1-.4141-2.0883A5.8118,5.8118,0,0,1,743.2254,434.51Zm-91.77,0c4.3167-.0036,5.7181,4.4278,5.72,7.34a11.4457,11.4457,0,0,1-.5676,3.5223c-4.38.0036-9.3976-1.9334-9.402-6.73A4.1348,4.1348,0,0,1,651.4552,434.51Zm-3.82-29.9675c3.0346-.0029,10.9039.7829,10.9053,2.5576.0015,2.0165-6.6291,4.0412-6.6277,5.9963.0022,2.3263,9.2964.97,9.2986,2.9915.0022,2.0775-6.7455,6.7314-6.7447,8.1967.0007.2449.3106.3662.558.3662,1.6089-.0015,5.82-3.0618,7.7411-3.0639.7412-.0008.99.4887.9908,1.3465.0022,1.71-1.0468,4.5852-1.0454,6.356.0007.4289.1254.9184.6192.9177,1.3628-.0014,3.5284-5.812,5.4468-5.8141,1.7357-.0014.1944,8.7436,1.9925,8.7429,1.5464-.0015,1.8495-7.95,3.462-7.9514,1.5464-.0015,2.2949,4.46,3.9074,4.4582.6773,0,.74-.856.739-2.2614h0l-.0021-2.0788c-.0015-1.3462.06-2.2607.7412-2.2614,1.8607-.0014,7.1273,6.1046,8.2438,6.1032.2486,0,.31-.2449.31-.4285-.0011-1.6482-3.5382-7.2088-3.5411-10.1422-.0007-.9819.3717-1.6539,1.3632-1.6546,2.1667-.0022,6.7535,2.5031,8.8576,2.5017.6831-.0008,1.1173-.2464,1.1165-.9195-.0021-2.5063-7.5647-7.5756-7.5669-9.6563-.0014-2.0171,8.4227-4.1028,14.182-4.1077.7449-.0008,2.2324-.0022,2.2331.7911.0015,1.5269-7.1475,2.84-8.868,4.6322a1.0778,1.0778,0,0,0-.3584.759c.1124,2.8732,10.1707,9.5276,10.1743,13.1972.0007.7954-.6809,1.4072-1.7975,1.4079-3.3449.0028-10.41-3.2914-12.8281-3.2892-.6824.0007-.8648.1846-.8641.7961.0022,2.323,4.5894,9.6527,4.5919,12.8938.0007.857-.307,1.53-1.1718,1.5312-2.7894.0028-8.9908-7.3293-11.156-7.3271-1.9839.0014-1.1108,6.1752-2.97,6.1773-1.4843.0007-2.7908-3.5441-4.4026-3.5427-1.61.0014-2.6525,12.2318-5.19,12.2346-2.974.0021-1.809-11.3108-3.79-11.3091-1.5493.0007-3.6513,3.8551-5.9447,3.8572-1.2379.0014-1.61-.9765-1.611-2.3819-.0015-1.7747.5537-4.2183.5523-5.81-.0011-.8571-.0636-1.8329-.87-1.8314-2.2949.0014-10.65,6.0611-13.8713,6.064-.6784.0007-1.1758-.3056-1.1762-.979-.0029-2.9958,10.58-11.9922,10.5784-14.0685-.0014-1.8985-12.1414-.174-12.1429-2.009-.0021-2.0785,8.6058-5.6929,8.6044-7.04-.0015-1.4047-8.3027-1.8863-8.3042-3.4778C641.9979,404.9724,643.9778,404.546,647.6348,404.5424Zm114.7563,35.8651c-.2372,0-.356.1261-.356.3129.0014,1.6327,2.8482,4.1369,7.2346,4.1325,2.6082-.0029,4.5622-1.26,4.5615-2.0132-.0007-.2468-.3566-.4358-1.1275-.4351a30.7818,30.7818,0,0,1-5.215-.5586C764.9979,441.408,763.1022,440.4067,762.3911,440.4075Zm27.4423-5.7768a1.5033,1.5033,0,0,1,1.6541,1.64c.0026,2.5863-5.0971,4.7021-7.5117,4.7042a2.4719,2.4719,0,0,1-2.5877-1.2859c-.5192-1.0572-.3471-2.7615-1.324-3.5223a9.8174,9.8174,0,0,0,2.815.2888C785.4668,436.4535,787.9373,434.6321,789.8334,434.6307ZM695.0446,426.51c1.7361-.0014,9.61,6.1061,10.7277,7.6345a2.4731,2.4731,0,0,1,.37,1.3423c.0014,1.8371-.9229,3.9773-2.1637,3.9787-1.4876.0007-9.2412-10.4481-9.2427-12.5872A.3437.3437,0,0,1,695.0446,426.51ZM792.61,406.0408c2.0336-.0018,2.5125.9033,5.5021.9a4.6365,4.6365,0,0,0-2.2088,3.5779c.0028,2.5467,1.6192,4.3006,1.6241,9.5124.0087,9.5688-8.8255,12.9711-19.6425,12.98a61.1531,61.1531,0,0,1-9.2557-.7158c-.4767-.06-.5966-.1812-.5966-.4843-.0014-.7888,4.2442-1.2177,4.2414-5.093a30.5316,30.5316,0,0,0-.4834-3.5118.4764.4764,0,0,1,.4793-.4875c.8961-.0007,2.6943,3.5125,6.0287,3.509a2.86,2.86,0,0,0,3.1005-3.0929c-.0035-4.3013-10.1518-5.3837-10.1525-6.3513-.0007-.7874,5.6655-2.1277,8.5915-2.19-4.4849-5.8109-10.8682-5.2-10.8689-6.2288-.0007-.6083,4.7788-1.8253,9.1919-1.8292,3.7022-.0035,7.1694.8422,7.1715,3.69.0021,1.577-1.2511,3.2151-1.249,5.6371a2.2253,2.2253,0,0,0,2.3934,2.4813c1.8543-.0018,2.27-2.0005,2.2681-4.1236-.0014-1.7544-.3023-3.0893-.303-3.9372A4.0007,4.0007,0,0,1,792.61,406.0408ZM743.6955,404.62c.7436-.0007,2.2336,2.4068,3.21,2.346,1.612-.0014,4.6473-1.9925,8.7968-1.9967,8.7236-.0077,15.05,5.1111,15.058,13.8518.0083,9.0385-7.05,14.1706-14.536,14.1773-5.2649.0035-8.43-3.1889-9.605-3.1875-.7948.0007-1.9658,2.7749-2.7093,2.7756-.3119,0-.4361-.06-.5588-.7848-.1884-1.3834-.3772-3.7369-1.3716-3.7362-.8677.0007-4.3935,3.9238-5.5681,3.9245-.2465.0008-.3075.0008-.3082-.3022-.0008-1.2038,3.089-5.426,3.0876-6.6906s-4.2106-.5392-4.2113-1.5623c-.0014-1.2671,4.2073-2.5984,4.2058-4.2841-.0014-1.6888-4.025-1.9271-4.0264-3.2514-.0007-.7237,3.7738-1.7528,3.7727-2.8385-.0007-1.0822-3.8416-5.3-3.8427-6.6878-.0015-1.5046,5.7572,2.6466,7.2472,2.6452.6506-.0006.7308-1.6142.74-2.4624l.0011-.31C743.0765,405.22,743.3862,404.62,743.6955,404.62Zm11.949,3.1836c-3.78.0032-6.1954,1.5106-6.1939,2.8975.0007.8457.7442.9648,1.3654.9641,1.2385-.0014,4.2113-1.1486,4.7693-1.1493.4321,0,.6811.1188.6811.4211.0008.6642-1.3008,2.11-1.2994,2.9551.0007,1.1451,6.8044.2946,6.8058,1.5029.0007,1.1412-5.0046,2.2325-5.0039,2.9559.0007.7848,4.03,3.3727,4.0315,4.6991,0,.2426-.122.484-.5544.4847-1.3024.0014-3.7825-.6607-5.4541-.6593-.3714,0-.5573.18-.5573.4224.0008.9015,1.0551,2.7078,1.0562,3.7949,0,.362-.1855.48-.4328.48-.9926.0014-3.9676-2.0434-5.3295-2.0424a.8493.8493,0,0,0-.8674.9036c.0011,1.0875,2.8516,3.1932,7.19,3.189,3.3449-.0029,9.5887-2.1764,9.5808-10.8566C765.4256,411.8944,761.7656,407.7977,755.6445,407.8033Zm35.84,9.206c.0049,5.39-3.8638,9.5127-10.86,10.67.7791.059,1.4973.0583,2.2148.0576,8.1763-.0075,11.1638-3.7644,11.1611-6.9134A3.852,3.852,0,0,0,791.484,417.0093Zm-144.1458,2.9428c.8648-.0007,1.8564.179,1.8564.6678.0014,1.2246-4.701,5.3231-6.3724,5.3246-.6188.0007-.8059-.7316-.8066-1.4036a5.3954,5.3954,0,0,1,1.2365-3.4875A6.9951,6.9951,0,0,1,647.3382,419.9521Zm98.6454-7.74c-.6075.0007-.7266,3.3766-1.5341,3.3773-.93.0007-2.1072-.24-2.79-.2387-.1873,0-.31.0605-.31.1814.0008.7226,2.4217,1.9854,2.4224,2.649,0,.4218-2.48,2.111-2.479,2.5932,0,.12.1227.18.4338.18.4353,0,1.8615.0594,2.6058.0587a.43.43,0,0,1,.4324.4832h0l.1285,2.4087c.0007.3019.1223.544.3082.544.5577-.0007,1.6579-2.4733,2.34-2.474.5577,0,2.4787.8446,2.975.8436a.1631.1631,0,0,0,.1855-.1821c0-.5427-1.3041-2.2315-1.3041-2.65,0-.5427,3.5316-.4854,3.5316-1.0892-.0008-.4826-3.4721-1.1434-3.4728-1.6857,0-.484,1.5474-2.11,1.5467-2.532,0-.1219-.1227-.182-.2465-.1813-.6219,0-2.1055.9068-2.91.9075C747.161,415.4067,746.416,412.2125,745.9836,412.2125ZM667.2713,404.95c4.0883-.0036,3.2882,3.4243,6.51,3.4215,3.0971-.0025,2.5365-3.3074,6.5623-3.311,2.54-.0021,4.3976.3637,4.3983.7319.0007.8553-3.0325.8582-3.03,2.7556.0011,1.8945,5.5126,3.48,5.5141,4.9459.0007.4278-.371.55-.7431.55-1.05.0014-2.9721-.8542-4.3953-.8528-.9916.0014-1.735.4913-1.7343,1.5323.0015,1.7106,1.8636,4.34,1.8643,5.6223a.6961.6961,0,0,1-.68.7344c-1.4883.0014-3.1008-4.7057-5.2721-4.7035-2.6622.0021-1.8509,6.7909-3.7116,6.792-1.7931.0014.3667-6.91-2.9161-6.9068-1.9835.0021-4.0862,3.1234-5.327,3.1248-.3092,0-.6184-.1226-.6184-.4909-.0014-1.2232,3.3431-3.9776,3.3417-5.5067-.0007-.7961-.807-.9765-1.6754-.9751-1.5485.0014-3.7159.6132-5.08.6146-.6209,0-1.1133-.1836-1.1133-.6093-.0014-1.2845,6.2543-1.902,6.2521-4.04-.0022-2.0207-2.9122-1.7112-2.9129-2.4464C662.5035,405.3827,664.7936,404.9527,667.2713,404.95Zm36.68,5.7784c1.6132-.0014,2.4162.06,2.4177,1.8917.0014,1.4681-.3078,2.8771-1.3586,2.8774-1.7974.0015-5.7034-2.3818-5.7048-3.481C699.3053,411.2834,701.9093,410.7305,703.9517,410.7283Zm88.66-2.5082a1.5142,1.5142,0,1,0,1.4973,1.5158A1.49,1.49,0,0,0,792.6117,408.22Z" transform="translate(-623.6507 -404.5424)"/></svg>