<?xml version="1.0" encoding="UTF-8" standalone="no"?>
<svg
   xmlns:dc="http://purl.org/dc/elements/1.1/"
   xmlns:cc="http://creativecommons.org/ns#"
   xmlns:rdf="http://www.w3.org/1999/02/22-rdf-syntax-ns#"
   xmlns:svg="http://www.w3.org/2000/svg"
   xmlns="http://www.w3.org/2000/svg"
   xmlns:sodipodi="http://sodipodi.sourceforge.net/DTD/sodipodi-0.dtd"
   xmlns:inkscape="http://www.inkscape.org/namespaces/inkscape"
   sodipodi:docname="Israel_road_sign_304.svg"
   inkscape:version="1.0 (4035a4fb49, 2020-05-01)"
   xml:space="preserve"
   enable-background="new 0 0 610 600"
   viewBox="0 0 499.99994 500"
   height="500"
   width="499.99994"
   y="0px"
   x="0px"
   id="Layer_1"
   version="1.1"><metadata
   id="metadata25"><rdf:RDF><cc:Work
       rdf:about=""><dc:format>image/svg+xml</dc:format><dc:type
         rdf:resource="http://purl.org/dc/dcmitype/StillImage" /><dc:title /></cc:Work></rdf:RDF></metadata><defs
   id="defs23" /><sodipodi:namedview
   inkscape:document-rotation="0"
   inkscape:current-layer="g6078"
   inkscape:window-maximized="1"
   inkscape:window-y="-9"
   inkscape:window-x="-9"
   inkscape:cy="202.30952"
   inkscape:cx="110.7575"
   inkscape:zoom="1.638"
   fit-margin-bottom="0"
   fit-margin-right="0"
   fit-margin-left="0"
   fit-margin-top="0"
   showgrid="false"
   id="namedview21"
   inkscape:window-height="1001"
   inkscape:window-width="1920"
   inkscape:pageshadow="2"
   inkscape:pageopacity="0"
   guidetolerance="10"
   gridtolerance="10"
   objecttolerance="10"
   borderopacity="1"
   bordercolor="#666666"
   pagecolor="#ffffff" />



<path
   style="color:#000000;display:inline;overflow:visible;visibility:visible;opacity:1;fill:#ffffff;fill-opacity:1;stroke:#000000;stroke-width:1.2369;stroke-miterlimit:4;stroke-dasharray:none;stroke-opacity:1;marker:none;enable-background:accumulate"
   d="M 499.3815,250.00004 A 249.38156,249.38156 0 0 1 250.00004,499.38154 249.38156,249.38156 0 0 1 0.61844999,250.00004 249.38156,249.38156 0 0 1 250.00004,0.61844999 249.38156,249.38156 0 0 1 499.3815,250.00004 Z"
   id="path27072" /><g
   transform="matrix(0.81240485,0,0,0.81240485,8.1254736,8.0967076)"
   id="g3036"><path
     sodipodi:nodetypes="sssssssssssssss"
     transform="translate(1.0082397e-7,0.0354332)"
     d="M 297.74414,0 C 133.37404,0 0,133.37354 0,297.70898 c 0,164.3701 133.37404,297.74414 297.74414,297.74414 164.33544,0 297.70898,-133.37404 297.70898,-297.74414 C 595.45312,133.37354 462.07958,0 297.74414,0 Z m 0,12.96875 c 157.32596,0 284.74024,127.41427 284.74024,284.74023 0,157.36216 -127.41428,284.77539 -284.74024,284.7754 -157.36216,0 -284.77539,-127.41324 -284.77539,-284.7754 0,-157.32596 127.41323,-284.74023 284.77539,-284.74023 z m 0.63867,73.701172 c -117.53149,0 -212.777341,95.279328 -212.777341,212.775388 0,117.53149 95.245851,212.77539 212.777341,212.77539 117.49606,0 212.77539,-95.2439 212.77539,-212.77539 0,-117.49606 -95.27933,-212.775388 -212.77539,-212.775388 z"
     style="color:#000000;font-style:normal;font-variant:normal;font-weight:normal;font-stretch:normal;font-size:medium;line-height:normal;font-family:sans-serif;font-variant-ligatures:normal;font-variant-position:normal;font-variant-caps:normal;font-variant-numeric:normal;font-variant-alternates:normal;font-variant-east-asian:normal;font-feature-settings:normal;font-variation-settings:normal;text-indent:0;text-align:start;text-decoration:none;text-decoration-line:none;text-decoration-style:solid;text-decoration-color:#000000;letter-spacing:normal;word-spacing:normal;text-transform:none;writing-mode:lr-tb;direction:ltr;text-orientation:mixed;dominant-baseline:auto;baseline-shift:baseline;text-anchor:start;white-space:normal;shape-padding:0;shape-margin:0;inline-size:0;clip-rule:nonzero;display:inline;overflow:visible;visibility:visible;opacity:1;isolation:auto;mix-blend-mode:normal;color-interpolation:sRGB;color-interpolation-filters:linearRGB;solid-color:#000000;solid-opacity:1;vector-effect:none;fill:#01553b;fill-opacity:1;fill-rule:nonzero;stroke:none;stroke-width:12.9685px;stroke-linecap:butt;stroke-linejoin:miter;stroke-miterlimit:4;stroke-dasharray:none;stroke-dashoffset:0;stroke-opacity:1;color-rendering:auto;image-rendering:auto;shape-rendering:auto;text-rendering:auto;enable-background:accumulate;stop-color:#000000;stop-opacity:1"
     id="path5418" /><g
     transform="translate(195.00731,-1.8786873)"
     id="g6072"><g
       transform="translate(9.9182128e-7,-0.91776631)"
       id="g6078"><g
         style="font-style:normal;font-weight:normal;font-size:176.45px;line-height:1.25;font-family:sans-serif;fill:#ffffff;fill-opacity:1;stroke:none;stroke-width:4.41123"
         id="text6034"
         aria-label="GO"><path
           id="path6080"
           style="font-style:normal;font-variant:normal;font-weight:normal;font-stretch:normal;font-family:Triumvirate;-inkscape-font-specification:Triumvirate;stroke-width:4.41123;fill:#ffffff"
           d="m 71.861179,431.53898 q -2.64675,3.35255 -6.3522,6.52865 -3.70545,3.1761 -8.4696,5.82285 -4.764149,2.4703 -10.586999,4.05835 -5.82285,1.58805 -12.3515,1.58805 -13.58665,0 -24.5265498,-4.41125 -10.7634498,-4.5877 -18.5272496,-13.0573 -7.5873496,-8.4696 -11.8221496,-20.64465 -4.05835,-12.17505 -4.05835,-27.52619 0,-16.05695 4.41125,-28.5849 4.41125,-12.52795 12.3514996,-20.99755 8.11669981,-8.64605 19.4094994,-13.0573 11.2928,-4.41125 25.23235,-4.41125 15.1747,0 25.585249,4.5877 10.41055,4.5877 16.76275,11.2928 6.52865,6.52865 9.35185,14.116 2.99965,7.58735 2.99965,13.4102 h -26.1146 q -0.3529,-2.64675 -1.94095,-6.17575 -1.58805,-3.529 -4.9406,-6.7051 -3.35255,-3.1761 -8.998949,-5.2935 -5.46995,-2.29385 -13.7631,-2.29385 -7.058,0 -13.23375,2.64675 -5.9993,2.64675 -10.41055,8.1167 -4.4112497,5.46995 -7.0579997,13.7631 -2.4702999,8.29315 -2.4702999,19.58595 0,10.76344 2.4702999,18.88014 2.64675,7.94025 7.0579997,13.23375 4.5877,5.2935 10.76345,7.94025 6.3522,2.64675 13.93955,2.64675 8.99895,0 14.8218,-2.99965 5.999299,-2.99965 9.528299,-7.23445 3.529,-4.2348 5.11705,-8.8225 1.58805,-4.5877 1.94095,-7.7638 H 39.39438 v -21.52689 h 52.582099 v 68.46259 h -17.645 z" /><path
           id="path6082"
           style="font-style:normal;font-variant:normal;font-weight:normal;font-stretch:normal;font-family:Triumvirate;-inkscape-font-specification:Triumvirate;stroke-width:4.41123;fill:#ffffff"
           d="m 136.40052,383.19169 q 0,8.99895 1.94095,16.93919 1.94095,7.94025 5.9993,13.93955 4.05835,5.82285 10.2341,9.1754 6.3522,3.35255 15.1747,3.35255 8.8225,0 14.99825,-3.35255 6.3522,-3.35255 10.41055,-9.1754 4.05835,-5.9993 5.9993,-13.93955 1.94095,-7.94024 1.94095,-16.93919 0,-9.5283 -2.29385,-17.46855 -2.1174,-7.94025 -6.3522,-13.58665 -4.2348,-5.82285 -10.41055,-8.99895 -6.17575,-3.35255 -14.29245,-3.35255 -7.94025,0 -14.29245,3.35255 -6.17575,3.1761 -10.41055,8.99895 -4.2348,5.82285 -6.52865,13.7631 -2.1174,7.94025 -2.1174,17.2921 z m 33.34905,66.34519 q -13.93955,0 -25.23235,-4.76415 -11.11635,-4.76415 -19.0566,-13.4102 -7.7638,-8.64605 -11.9986,-20.8211 -4.2348,-12.3515 -4.2348,-27.34974 0,-15.8805 4.5877,-28.232 4.5877,-12.3515 12.52795,-20.8211 8.1167,-8.4696 19.23305,-12.88085 11.11635,-4.41125 24.17365,-4.41125 13.0573,0 24.17365,4.41125 11.11635,4.2348 19.0566,12.7044 8.1167,8.4696 12.7044,20.8211 4.5877,12.3515 4.5877,28.40845 0,14.99824 -4.2348,27.34974 -4.2348,12.17505 -12.17505,20.8211 -7.7638,8.64605 -19.0566,13.4102 -11.11635,4.76415 -25.0559,4.76415 z" /></g><g
         style="font-style:normal;font-weight:normal;font-size:176.45px;line-height:1.25;font-family:sans-serif;fill:#ffffff;fill-opacity:1;stroke:none;stroke-width:4.41123"
         id="text6038"
         aria-label="Gx"><path
           id="path6085"
           style="font-style:normal;font-variant:normal;font-weight:normal;font-stretch:normal;font-family:'Heb Tamrurim';-inkscape-font-specification:'Heb Tamrurim';stroke-width:4.41123;fill:#ffffff"
           d="m 0.23965419,152.08179 19.18576381,96.6077 -19.06769757,0.059 0.0590331,23.96744 H 56.498218 q 19.510446,-2.00712 23.672281,-21.16337 l 10.921128,-99.44129 -24.262613,-0.059 -10.330796,96.69626 -12.01324,-0.0295 -18.683983,-96.66674 -25.56134081,0.0295 z" /><path
           id="path6087"
           style="font-style:normal;font-variant:normal;font-weight:normal;font-stretch:normal;font-family:'Heb Tamrurim';-inkscape-font-specification:'Heb Tamrurim';stroke-width:4.41123;fill:#ffffff"
           d="m 108.79776,151.66856 0.0885,24.02648 h 8.2056 l 8.70739,96.6077 h 44.42242 q 18.30027,-1.15114 22.78679,-18.92011 l 12.19034,-101.80262 -96.40109,0.0886 z m 33.64888,24.08551 35.27229,-0.0886 -8.7369,72.58122 -20.1303,-0.0885 -6.40509,-72.40412 z m 0,0 h -0.23613 l 0.23613,-0.11806 v 0.11806 z" /></g></g></g></g></svg>
