<?xml version="1.0" encoding="UTF-8" standalone="no"?>
<svg
   xmlns:dc="http://purl.org/dc/elements/1.1/"
   xmlns:cc="http://creativecommons.org/ns#"
   xmlns:rdf="http://www.w3.org/1999/02/22-rdf-syntax-ns#"
   xmlns:svg="http://www.w3.org/2000/svg"
   xmlns="http://www.w3.org/2000/svg"
   xmlns:sodipodi="http://sodipodi.sourceforge.net/DTD/sodipodi-0.dtd"
   xmlns:inkscape="http://www.inkscape.org/namespaces/inkscape"
   sodipodi:docname="306.svg"
   inkscape:version="1.0 (4035a4fb49, 2020-05-01)"
   id="svg10841"
   version="1.1"
   viewBox="0 0 79.375 79.375244"
   height="79.375244mm"
   width="79.375mm">
  <defs
     id="defs10835" />
  <sodipodi:namedview
     inkscape:window-maximized="1"
     inkscape:window-y="-9"
     inkscape:window-x="-9"
     inkscape:window-height="1001"
     inkscape:window-width="1920"
     showgrid="false"
     inkscape:document-rotation="0"
     inkscape:current-layer="layer1"
     inkscape:document-units="mm"
     inkscape:cy="92.615633"
     inkscape:cx="27.137562"
     inkscape:zoom="2.6699918"
     inkscape:pageshadow="2"
     inkscape:pageopacity="0.0"
     borderopacity="1.0"
     bordercolor="#666666"
     pagecolor="#ffffff"
     id="base" />
  <metadata
     id="metadata10838">
    <rdf:RDF>
      <cc:Work
         rdf:about="">
        <dc:format>image/svg+xml</dc:format>
        <dc:type
           rdf:resource="http://purl.org/dc/dcmitype/StillImage" />
        <dc:title></dc:title>
      </cc:Work>
    </rdf:RDF>
  </metadata>
  <g
     transform="translate(-121.76519,60.744499)"
     id="layer1"
     inkscape:groupmode="layer"
     inkscape:label="Layer 1">
    <path
       id="path3323"
       style="opacity:1;fill:#070fdb;fill-opacity:1;stroke:none;stroke-width:4.75709;stroke-miterlimit:4;stroke-dasharray:none;stroke-opacity:1"
       d="m 201.14019,-60.744499 v 79.375247 h -79.375 v -79.375247 z"
       inkscape:connector-curvature="0"
       sodipodi:nodetypes="ccccc" />
    <path
       id="path3325"
       style="opacity:1;fill:#ffffff;fill-opacity:1;stroke:none;stroke-width:4.19913;stroke-miterlimit:4;stroke-dasharray:none;stroke-opacity:1"
       d="m 199.27348,-58.87819 v 75.64157 h -75.64157 v -75.64157 z m -2.19022,2.190214 h -71.26229 v 71.262294 h 71.26229 z" />
    <path
       sodipodi:nodetypes="cccc"
       d="M 161.4527,-53.546116 127.0448,6.7762551 h 68.81569 z"
       style="opacity:1;fill:#ffffff;stroke:none;stroke-width:0.127388;paint-order:stroke fill markers"
       id="rect11337" />
    <g
       style="opacity:1;fill:#000000"
       transform="matrix(0.85025458,0,0,0.85025458,-206.27033,-79.124417)"
       id="g1086">
      <path
         id="rect1078"
         style="opacity:1;fill:#000000;fill-opacity:1;stroke:none"
         d="m 408.76758,80.566406 -8.70117,19.357422 h 6.55273 l 8.09961,-19.357422 z m 9.90039,0 -3.42188,9.740235 c 0.74005,0.129021 1.57573,0.379689 1.92188,0.484375 l 4.19726,-10.22461 z m 8.51562,0 -2.07226,4.902344 -1.04492,14.455078 h 6.55273 l 0.80078,-19.357422 z m 7.11524,0 0.80078,19.357422 h 6.55078 l -0.97461,-13.480469 -5.1582,-5.876953 z m 9.13476,0 7.51368,8.908203 -3.12891,-8.908203 z m 7.63282,0 8.10156,19.357422 h 6.55078 l -8.69922,-19.357422 z m 0.52539,10.744141 c -0.0304,0.05745 -0.0611,0.117804 -0.0898,0.167969 -0.0882,0.153912 -0.17287,0.267632 -0.17578,0.271484 l -0.004,0.0039 -3.44141,4.75586 1.28711,3.414062 h 5.45117 z m -37.51172,2.314453 -2.21289,6.298828 h 5.95117 l 1.45703,-4.146484 z"
         sodipodi:nodetypes="ccccccccccccccccccccccccccccccccsccccccccccc" />
    </g>
    <g
       transform="matrix(2.2659752,0,0,2.2659752,-752.46752,-109.72799)"
       id="g1099"
       style="opacity:1;fill:#000000">
      <path
         style="color:#000000;font-style:normal;font-variant:normal;font-weight:normal;font-stretch:normal;font-size:medium;line-height:normal;font-family:sans-serif;font-variant-ligatures:normal;font-variant-position:normal;font-variant-caps:normal;font-variant-numeric:normal;font-variant-alternates:normal;font-variant-east-asian:normal;font-feature-settings:normal;font-variation-settings:normal;text-indent:0;text-align:start;text-decoration:none;text-decoration-line:none;text-decoration-style:solid;text-decoration-color:#000000;letter-spacing:normal;word-spacing:normal;text-transform:none;writing-mode:lr-tb;direction:ltr;text-orientation:mixed;dominant-baseline:auto;baseline-shift:baseline;text-anchor:start;white-space:normal;shape-padding:0;shape-margin:0;inline-size:0;clip-rule:nonzero;display:inline;overflow:visible;visibility:visible;opacity:1;isolation:auto;mix-blend-mode:normal;color-interpolation:sRGB;color-interpolation-filters:linearRGB;solid-color:#000000;solid-opacity:1;vector-effect:none;fill:#000000;fill-opacity:1;fill-rule:nonzero;stroke:none;stroke-width:0.337704;stroke-linecap:butt;stroke-linejoin:miter;stroke-miterlimit:4;stroke-dasharray:none;stroke-dashoffset:0;stroke-opacity:1;paint-order:stroke fill markers;color-rendering:auto;image-rendering:auto;shape-rendering:auto;text-rendering:auto;enable-background:accumulate;stop-color:#000000;stop-opacity:1"
         d="m 406.93019,39.410278 v -2.950481 l -0.45802,-0.777564 c -0.0292,-0.08518 -0.11441,-0.145022 -0.1953,-0.126994 -0.0687,0.01531 -0.1288,0.0826 -0.13489,0.169601 l -0.0959,4.931669 -0.032,1.661643 4.13281,4.899715 c 0,0 0.21134,0.232332 0.2181,0.377502 0.004,0.08704 -0.10914,0.237508 -0.10914,0.237508 l -1.67315,2.312322 c 0,0 -0.084,0.149106 -0.15765,0.178916 -0.0672,0.02718 -0.15666,0.02323 -0.21675,-0.0173 -0.079,-0.05327 -0.14922,-0.162801 -0.12782,-0.255637 0.12198,-0.52908 0.42773,-1.685306 0.42773,-1.685306 l 0.0533,-0.21303 -4.40076,-5.014523 -0.0426,-1.981189 c -0.0235,-0.119643 -0.04,-0.240613 -0.1334,-0.294037 -0.0759,-0.04338 -0.26071,0.02775 -0.26071,0.02775 l -2.10901,1.746855 -2.58833,6.124643 c 0,0 -0.13034,0.470197 -0.32566,0.566769 -0.0753,0.03725 -0.24999,-0.03291 -0.24999,-0.03291 l -2.52395,-1.045132 c 0,0 -0.26793,-0.182568 -0.28166,-0.325354 -0.0129,-0.133855 0.0959,-0.26598 0.20111,-0.349716 0.0977,-0.07773 0.2858,-0.106093 0.35826,-0.109041 0.17828,-0.0073 0.3698,0.04928 0.54743,0.0744 0.31447,0.04447 0.92445,0.230702 0.92445,0.230702 l 2.23409,-5.443254 1.21428,-2.300736 1.42731,-1.810764 0.0478,-2.460509 c 0,0 -0.0527,-0.09424 -0.0995,-0.101288 -0.0494,-0.0074 -0.13193,0.07128 -0.13193,0.07128 0,0 -0.6182,0.547373 -0.97747,0.743661 -1.16411,0.636001 -3.71137,1.412597 -3.71137,1.412597 0,0 -0.0795,0.157688 -0.23095,0.25198 -0.10682,0.0665 -0.21735,0.160633 -0.34029,0.133851 -0.1746,-0.03804 -0.32648,-0.190867 -0.40476,-0.351501 -0.12149,-0.249278 -0.18829,-0.594865 -0.0426,-0.830822 0.1161,-0.188038 0.20833,-0.16705 0.42675,-0.20069 0.13059,-0.02012 0.39411,0.04261 0.39411,0.04261 l 3.13155,-1.214277 c 0,0 0.38312,-1.176941 0.6661,-1.72426 0.26834,-0.518973 0.55151,-1.051762 0.96892,-1.460555 0.27478,-0.269114 0.97458,-0.617677 0.97458,-0.617677 V 31.65595 l -0.47537,-4.13e-4 c 0,0 -0.10838,-0.0091 -0.14469,-0.04408 -0.0374,-0.03602 -0.051,-0.147227 -0.051,-0.147227 l 0.0938,-0.284239 -0.0998,-0.322899 -0.2075,-0.117168 c 0,0 -0.0696,-0.06833 -0.0684,-0.112087 0.006,-0.223523 0.38052,-0.552455 0.38052,-0.552455 l 0.0128,-0.115484 c 0,0 0.005,-0.333282 0.079,-0.475708 0.0805,-0.153925 0.21448,-0.293742 0.37366,-0.363302 0.24761,-0.108195 0.54177,-0.07897 0.80952,-0.04261 0.26635,0.03618 0.5464,0.09894 0.7648,0.255637 0.22444,0.161034 0.42728,0.394075 0.50062,0.660396 0.077,0.279786 0.0144,0.597083 -0.0967,0.865216 -0.10386,0.250902 -0.50825,0.636654 -0.50825,0.636654 v 0.308895 c 0,0 0.88689,0.254004 1.23806,0.534627 0.46963,0.375285 1.06257,1.457214 1.06257,1.457214 l 1.10776,2.300735 0.0107,3.003739 -0.0746,0.61779 c 0,0 0.0408,0.175855 0.0107,0.255637 -0.0417,0.110408 -0.13705,0.20789 -0.24498,0.255638 -0.12343,0.0546 -0.27152,0.03217 -0.40476,0.01065 -0.0983,-0.01587 -0.19748,-0.04716 -0.28095,-0.101436 -0.0844,-0.0549 -0.18767,-0.119702 -0.20902,-0.21811 -0.0159,-0.07352 0.0746,-0.213032 0.0746,-0.213032 z"
         id="path1103"
         sodipodi:nodetypes="cccsccccsccsssccccscccsccsssscccccscscsssssccsscccsccccsccssssssccsccccaaaaacc" />
    </g>
  </g>
</svg>
