<?xml version="1.0" encoding="utf-8"?>
<!-- Generator: Adobe Illustrator 16.0.3, SVG Export Plug-In . SVG Version: 6.00 Build 0)  -->
<!DOCTYPE svg PUBLIC "-//W3C//DTD SVG 1.1//EN" "http://www.w3.org/Graphics/SVG/1.1/DTD/svg11.dtd">
<svg version="1.1" id="Ebene_1" xmlns="http://www.w3.org/2000/svg" xmlns:xlink="http://www.w3.org/1999/xlink" x="0px" y="0px"
	 width="179.801px" height="93.316px" viewBox="0 0 179.801 93.316" enable-background="new 0 0 179.801 93.316"
	 xml:space="preserve">
<g id="Logo">
	<g>
		<g>
			<path id="path4292" fill="#0F79BF" d="M71.238,54.025c0,1.978-0.245,5.045-4.21,5.045h-4.684c-3.947,0-4.192-3.067-4.192-5.045
				V35.868c0-1.979,0.245-5.046,4.192-5.046h4.684c3.965,0,4.21,3.067,4.21,5.046v3.994h-5.665v-4.605
				c0-0.483-0.359-0.927-0.887-0.927c-0.322,0-0.888,0.2-0.888,0.927V54.52c0,0.726,0.565,0.927,0.888,0.927
				c0.528,0,0.887-0.442,0.887-0.927v-6.184h-0.849v-3.108h6.514V54.025"/>
			<path id="path4294" fill="#0F79BF" d="M79.737,48.457L80.7,34.339h0.321l0.981,14.118H79.737z M73.485,59.07h5.533l0.51-7.505
				h2.664l0.529,7.505h5.532l-2.944-28.249h-8.876L73.485,59.07"/>
			<path id="path4296" fill="#0F79BF" d="M90.349,55.521l5.42-21.182h-4.853v-3.518h10.647v3.51l-5.396,21.117h5.739v3.622H90.349
				V55.521"/>
			<path id="path4298" fill="#0F79BF" d="M110.214,45.939V34.324h0.718c0.625,0,1.059,0.523,1.059,1.414v8.791
				c0,0.886-0.434,1.411-1.059,1.411L110.214,45.939L110.214,45.939z M104.55,59.07h5.664v-9.604h3.231
				c3.943,0,4.191-3.067,4.191-5.045v-8.554c0-1.979-0.248-5.046-4.191-5.046h-8.896L104.55,59.07"/>
			<path id="path4300" fill="#0F79BF" d="M126.193,45.096V34.326h0.734c0.604,0,1.038,0.524,1.038,1.412v7.946
				c0,0.888-0.434,1.412-1.038,1.412H126.193z M134.35,59.07l-2.775-11.018c2.001-0.807,2.041-2.664,2.041-3.431v-8.755
				c0-1.979-0.229-5.046-4.195-5.046h-8.874V59.07h5.647V48.617h0.412l1.927,10.453H134.35"/>
			<path id="path4302" fill="#0F79BF" d="M144.811,54.52c0,0.484-0.358,0.929-0.891,0.929c-0.318,0-0.886-0.203-0.886-0.929V35.256
				c0-0.728,0.567-0.927,0.886-0.927c0.531,0,0.891,0.443,0.891,0.927V54.52z M137.389,54.025c0,1.978,0.246,5.045,4.213,5.045
				h4.664c3.967,0,4.209-3.067,4.209-5.045V35.868c0-1.979-0.242-5.046-4.209-5.046h-4.664c-3.967,0-4.213,3.067-4.213,5.046V54.025
				"/>
			<path id="path4304" fill="#0F79BF" d="M168.208,30.821h7.347V59.07h-5.646V41.353H169.7l-2.907,17.717h-4.514l-2.908-17.717
				h-0.208V59.07h-5.646V30.821h7.344l3.664,19.854L168.208,30.821"/>
		</g>
		<g>
			<path id="path4288_1_" fill="#0F79BF" d="M51.058,19.576c-1.805-7.874-6.316-14.275-6.924-15.321
				c-0.98,1.471-4.57,7.121-6.414,13.396c-1.981,6.988-2.274,13.193-1.588,19.303c0.687,6.108,3.255,12.381,3.255,12.381
				c1.373,3.297,3.433,6.825,4.766,8.559c1.962-2.549,6.473-10.157,7.884-20.091C52.823,32.281,52.841,27.446,51.058,19.576z
				 M44.134,55.931c-0.882-1.666-2.255-4.838-2.394-9.735c-0.039-4.736,1.864-8.787,2.413-9.635
				c0.491,0.849,2.138,4.375,2.334,9.211C46.604,50.509,45.036,54.231,44.134,55.931z M50.528,32.934
				c-0.059,3.001-0.412,6.171-0.882,8.065c0.177-3.265-0.216-7.871-0.981-11.465c-0.744-3.591-2.863-9.602-4.568-12.378
				c-1.57,2.646-3.492,7.842-4.511,12.345c-1.001,4.513-1.04,9.963-1.04,11.602c-0.276-1.38-0.942-6.295-0.746-11.238
				c0.157-4.078,1.099-8.266,1.628-10.192c2-6.436,4.255-10.549,4.668-11.201c0.43,0.652,3.274,5.714,4.746,11.039
				C50.312,24.833,50.606,29.929,50.528,32.934"/>
			<path id="path4290" fill="#0F79BF" d="M47.174,59.726h-13.67v9.171c0.021-0.013,0.04-0.022,0.04-0.035
				c3.216-3.221,8.452-3.221,11.668,0c3.217,3.223,3.217,8.442,0,11.667c-0.02,0.012-0.02,0.021-0.038,0.034
				c0,0.003,0,0.003,0,0.007c-0.02,0.013-0.04,0.024-0.06,0.04c-3.196,3.19-7.413,4.786-11.61,4.786
				c-4.216,0-8.433-1.607-11.65-4.825c-5.667-5.668-6.334-14.438-2.02-20.845c0.588-0.865,1.254-1.689,2.02-2.453
				c3.217-3.222,7.434-4.828,11.65-4.828v-22.06c-16.199,0-29.34,13.138-29.34,29.341c0,16.2,13.141,29.337,29.34,29.337
				c8.454,0,16.063-3.573,21.417-9.284V59.726H47.174"/>
		</g>
		<g>
			<rect x="58.152" y="69.123" fill="#0F79BF" width="117.403" height="19.939"/>
			<g>
				<path fill="#FFFFFF" d="M64.213,72.273h0.16h4.24l1.376,13.439h-0.16h-2.624l-0.288-3.584H65.83l-0.256,3.584h-0.16h-2.608
					L64.213,72.273z M66.806,80.658l-0.448-6.48l-0.448,6.48H66.806z"/>
				<path fill="#FFFFFF" d="M97.537,72.273h0.16h2.703l0.769,8.145l0.656-8.145h0.159h2.736l-1.713,13.456h-0.16h-3.552
					L97.537,72.273z"/>
				<path fill="#FFFFFF" d="M132.716,72.273h0.159h2.688v13.439h-0.16h-2.688L132.716,72.273L132.716,72.273z"/>
				<path fill="#FFFFFF" d="M164.967,72.273h0.159h4.24l1.376,13.439h-0.16h-2.624l-0.288-3.584h-1.088l-0.256,3.584h-0.16h-2.607
					L164.967,72.273z M167.559,80.658l-0.447-6.48l-0.448,6.48H167.559z"/>
			</g>
		</g>
	</g>
</g>
</svg>
