<svg xmlns="http://www.w3.org/2000/svg" viewBox="0 0 2873.29 1037.68">
  <title>
    Element 1
  </title>
  <g id="Ebene_2">
    <g id="BASFw_wh100db_4c">
      <path class="cls-1" d="M0,15.4V530.09H514.7V15.4ZM356.33,371.72h-198v-198h198Z"/>
      <path class="cls-1" d="M673.06 173.76H871.02V371.72H673.06z"/>
      <path class="cls-1" d="M1029.38,15.4h286.76c105.26,0,153.34,70.18,153.34,134.32,0,46.2-17.76,76-65.42,103.77,60.11,22.22,92.79,62.3,92.79,124.13,0,73.94-53.69,152.41-180.33,152.41H1029.25ZM1186,413.85h103.76c37,0,53.59-26.44,53.59-49.8,0,10.81,4.76-42.64-48.33-42.64H1186Zm.37-195.82h83.39c38.12,0,53.31-17.75,53.31-43.78,0-6-1.86-39.62-42.37-39.62h-94.33Z"/>
      <path class="cls-1" d="M1659.93,15.4h165.8l188.84,514H1844.39l-24.91-77H1660.62L1639.5,529H1470.62ZM1736.09,168l-43.77,171.66h93.58Z"/>
      <path class="cls-1" d="M2279,168.27h158.12C2437.16,81,2371.48,0,2215.66,0c-170.92,0-223.84,94.33-223.84,163.37,0,111.32,136.23,140.92,140.46,142.24,20.35,6.41,104.91,29.06,126,36.61,18.3,6.53,35.8,21.18,35.8,40.75,0,30-35.8,44.49-65.6,44.49-19.14,0-83.44-6.34-83.44-74.5H1981.71c0,90.52,62.27,191.82,237,191.82,192.8,0,233.14-115,233.14-176.16,0-49.91-28.27-105.27-93.52-131.63-39.26-15.85-104.32-29.74-137-39.28-16.47-4.83-71.35-15.94-71.35-49.43,0-42.9,70.72-37.35,60.4-37.35C2242.32,110.93,2279,128.92,2279,168.27Z"/>
      <path class="cls-1" d="M2478.66 15.28L2873.29 15.28 2873.29 151.12 2636.35 151.12 2636.35 241.67 2847.63 241.67 2847.63 371.47 2635.61 371.47 2635.61 529.94 2477.89 529.94 2478.66 15.28z"/>
      <path class="cls-1" d="M205.38 937.28L205.21 936.64 155.87 751.21 124.92 751.21 74.81 937.28 72.83 937.28 72.68 936.62 28.98 751.21 0.38 751.21 57.27 973.15 86.96 973.15 138.66 785.21 140.58 785.21 140.75 785.84 191.63 973.15 221.34 973.15 280.72 751.21 252.74 751.21 207.32 937.28 205.38 937.28z"/>
      <path class="cls-1" d="M412.05,840.4A70.72,70.72,0,0,0,389.45,818c-9.34-5.83-21.24-8.81-35.41-8.81a73.48,73.48,0,0,0-30.2,6.2A71.6,71.6,0,0,0,300,832.69,80.37,80.37,0,0,0,284.35,859a96.93,96.93,0,0,0-5.59,33.52,130.36,130.36,0,0,0,5.43,33.89,73.88,73.88,0,0,0,14.42,26.64,65.23,65.23,0,0,0,23.67,17.31c9.35,4.12,20.57,6.23,33.3,6.23,18.11,0,33.34-4.62,45.24-13.63,11.66-8.86,19.37-22.13,23-39.5H399.2c-2.38,10.48-7.25,18.42-14.43,23.65s-16.81,8-28.23,8c-8.88,0-16.68-1.46-23.23-4.43a46.08,46.08,0,0,1-16.26-12,46.65,46.65,0,0,1-9.25-17.2A65.31,65.31,0,0,1,305.24,901l0-.84H426.51a130.4,130.4,0,0,0-2.66-30,89.91,89.91,0,0,0-11.8-29.8m-106.87,38,.06-.92a57.12,57.12,0,0,1,4.14-18A48.84,48.84,0,0,1,319,844.68a43.94,43.94,0,0,1,14.53-10,47.29,47.29,0,0,1,19-3.68,46.51,46.51,0,0,1,18.66,3.68,47.38,47.38,0,0,1,14.69,9.89,46.14,46.14,0,0,1,9.88,14.82A55.87,55.87,0,0,1,400,877.47l.07.92Z"/>
      <path class="cls-1" d="M613.55,955.12c-8.48,0-15.89-1.7-22-5.11a43.24,43.24,0,0,1-15-13.55,60.3,60.3,0,0,1-8.43-19.25,91.48,91.48,0,0,1-2.68-22.14,112.47,112.47,0,0,1,2.52-23.84,60.85,60.85,0,0,1,8.43-20.51,44.17,44.17,0,0,1,15.79-14.36c6.6-3.59,14.85-5.41,24.53-5.41,11.44,0,20.69,2.9,27.51,8.66,6.62,5.59,11.1,13.55,13.3,23.61h25.9a62.36,62.36,0,0,0-7.31-23.61,54.45,54.45,0,0,0-15-17.13,62.32,62.32,0,0,0-21-10.06,97.6,97.6,0,0,0-25.62-3.27c-12.55,0-23.7,2.24-33.14,6.68a66,66,0,0,0-23.66,18.24,78.57,78.57,0,0,0-14.12,27.24,119.39,119.39,0,0,0-4.65,33.76,108.34,108.34,0,0,0,4.81,33.1A72.27,72.27,0,0,0,558,954a62.83,62.83,0,0,0,23.49,16.71c9.33,3.91,20.25,5.86,32.4,5.86,20.35,0,36.65-5.38,48.45-16.05,11.61-10.48,19-25.58,22-44.85H658.78c-1.79,12.33-6.43,22-13.8,28.88-7.58,7-18.13,10.56-31.43,10.56"/>
      <path class="cls-1" d="M765.8,817.81a73.2,73.2,0,0,0-24.65,28.78l-.23.46h-.87V812.92H716.69V973.15h24.93V902A111.72,111.72,0,0,1,744.76,874,54,54,0,0,1,755,853.2a43.9,43.9,0,0,1,18.52-13.12c7.37-2.87,16.36-4.35,26.72-4.46V809.15c-.62,0-1.22,0-1.82,0-13,0-24,2.93-32.58,8.69"/>
      <path class="cls-1" d="M936.25,840.4A70.62,70.62,0,0,0,913.65,818c-9.33-5.83-21.24-8.81-35.41-8.81a73.4,73.4,0,0,0-30.19,6.2,71.64,71.64,0,0,0-23.83,17.34A80.35,80.35,0,0,0,808.56,859,96.93,96.93,0,0,0,803,892.56a130.37,130.37,0,0,0,5.42,33.89,74,74,0,0,0,14.43,26.64,65.2,65.2,0,0,0,23.66,17.31c9.35,4.12,20.57,6.23,33.31,6.23,18.1,0,33.33-4.62,45.24-13.63,11.65-8.86,19.37-22.13,23-39.5H923.4C921,934,916.16,941.92,909,947.15s-16.82,8-28.24,8c-8.88,0-16.68-1.46-23.22-4.43a46,46,0,0,1-16.26-12,46.65,46.65,0,0,1-9.25-17.2A65.61,65.61,0,0,1,829.44,901l0-.84H950.7a129.27,129.27,0,0,0-2.65-30,89.69,89.69,0,0,0-11.8-29.8m-106.87,38,.06-.92a57.4,57.4,0,0,1,4.15-18,48.44,48.44,0,0,1,9.58-14.83,43.94,43.94,0,0,1,14.53-10,47.3,47.3,0,0,1,19-3.68,46.43,46.43,0,0,1,18.65,3.68A47.14,47.14,0,0,1,910,844.52a46,46,0,0,1,9.89,14.82,56.39,56.39,0,0,1,4.29,18.13l.07.92Z"/>
      <path class="cls-1" d="M1112.28,950.08c-.73-2.93-1.09-7.51-1.09-14V852.81c0-9.19-1.76-16.74-5.23-22.45A36.66,36.66,0,0,0,1092.19,817a57.16,57.16,0,0,0-19.27-6.32c-16-2.31-32.51-2.14-47.15,1.22a62.64,62.64,0,0,0-21.33,9.14,47,47,0,0,0-14.77,16.44c-3.57,6.6-5.63,14.71-6.1,24.13h24.91c.79-11.72,5-19.88,12.59-24.18s17.25-6.52,28.62-6.52a88.8,88.8,0,0,1,12.81.95,35.15,35.15,0,0,1,11.89,3.85,23.52,23.52,0,0,1,8.77,8.43c2.27,3.68,3.42,8.59,3.42,14.57,0,5.22-1.57,9.31-4.68,12.06a29.44,29.44,0,0,1-12.25,6.12,115.9,115.9,0,0,1-17.5,3.2c-6.48.68-13.46,1.79-20.76,3.24-6.83,1.24-13.58,2.83-20.14,4.7A55.32,55.32,0,0,0,994,896.24a40.39,40.39,0,0,0-12.13,14c-3.05,5.69-4.61,13.18-4.61,22.15,0,8,1.41,14.86,4.16,20.48a37.13,37.13,0,0,0,11.34,13.76,46.06,46.06,0,0,0,16.75,7.7,86.93,86.93,0,0,0,20.47,2.3,84.15,84.15,0,0,0,31.17-5.7,63.44,63.44,0,0,0,25.18-18.69l1.51-1.85v2.38c0,8.47,2,14.65,5.84,18.32s9.24,5.54,15.86,5.54c7.7,0,13.85-1.23,18.27-3.69v-19a25.27,25.27,0,0,1-7.29,1.24c-4.64,0-7.38-1.66-8.22-5m-26-32.42a31.25,31.25,0,0,1-2.88,12.38,37,37,0,0,1-9,12.2,48.57,48.57,0,0,1-15.61,9.24c-6.35,2.4-14,3.64-22.87,3.64a54.82,54.82,0,0,1-11.93-1.27,29.19,29.19,0,0,1-10.31-4.19,23.26,23.26,0,0,1-7.16-7.63,22.74,22.74,0,0,1-2.79-11.56c0-6.81,1.59-12.33,4.73-16.32a30.07,30.07,0,0,1,12.09-9.18,66.66,66.66,0,0,1,16.5-4.62c5.72-.9,11.79-1.73,18-2.51,6-.73,11.69-1.69,17-2.8a32.8,32.8,0,0,0,12.81-5.33l1.37-1.06Z"/>
      <path class="cls-1" d="M1373.47,840.4A70.56,70.56,0,0,0,1350.86,818c-9.34-5.83-21.26-8.81-35.42-8.81a73.4,73.4,0,0,0-30.19,6.2,71.48,71.48,0,0,0-23.84,17.34A80.15,80.15,0,0,0,1245.76,859a97.41,97.41,0,0,0-5.57,33.52,128.75,128.75,0,0,0,5.42,33.89A73.83,73.83,0,0,0,1260,953.09a65.79,65.79,0,0,0,23.66,17.31c9.36,4.12,20.58,6.23,33.33,6.23,18.1,0,33.3-4.62,45.2-13.63,11.64-8.86,19.39-22.13,23-39.5h-24.58c-2.4,10.48-7.26,18.42-14.44,23.65s-16.8,8-28.23,8c-8.86,0-16.67-1.46-23.23-4.43a46.08,46.08,0,0,1-16.26-12,46.7,46.7,0,0,1-9.25-17.2,65.12,65.12,0,0,1-2.53-20.46v-.84h121.24a129.5,129.5,0,0,0-2.68-30,90.32,90.32,0,0,0-11.77-29.8m-106.31,38,.06-.92a55.47,55.47,0,0,1,4.15-18,47.52,47.52,0,0,1,9.55-14.83,44.05,44.05,0,0,1,14.54-10,47.34,47.34,0,0,1,19-3.68,46.12,46.12,0,0,1,43.23,28.39,55.87,55.87,0,0,1,4.31,18.13l.06.92Z"/>
      <path class="cls-1" d="M1575.31,955.12c-8.46,0-15.87-1.7-22-5.11a43.36,43.36,0,0,1-15-13.55,60.38,60.38,0,0,1-8.45-19.25,92.67,92.67,0,0,1-2.66-22.14,110.77,110.77,0,0,1,2.53-23.84,60.54,60.54,0,0,1,8.4-20.48,44.43,44.43,0,0,1,15.81-14.39c6.57-3.59,14.83-5.41,24.55-5.41,11.4,0,20.67,2.9,27.48,8.66,6.67,5.59,11.13,13.55,13.3,23.61h25.92a62.68,62.68,0,0,0-7.31-23.64,54.72,54.72,0,0,0-15-17.1,63.06,63.06,0,0,0-21-10.06,97.79,97.79,0,0,0-25.63-3.27c-12.54,0-23.71,2.24-33.13,6.68a65.63,65.63,0,0,0-23.65,18.24,78.07,78.07,0,0,0-14.12,27.24,119.81,119.81,0,0,0-4.65,33.76,108.88,108.88,0,0,0,4.8,33.1A72.93,72.93,0,0,0,1519.71,954a63.35,63.35,0,0,0,23.5,16.71c9.37,3.91,20.27,5.86,32.38,5.86,20.41,0,36.7-5.38,48.5-16.05,11.56-10.45,19-25.55,22-44.85h-25.49c-1.77,12.33-6.39,22-13.81,28.88-7.52,7-18.1,10.56-31.43,10.56"/>
      <path class="cls-1" d="M1799.81,825.49a42.79,42.79,0,0,0-16.89-12c-7-2.87-15.82-4.34-26.3-4.34a74.48,74.48,0,0,0-14.73,1.57,64.32,64.32,0,0,0-14.51,4.79,49,49,0,0,0-12.46,8.31c-3.65,3.33-7.42,7.5-9.45,12.38l-.2.53h-1.2V751.21h-24.92V973.15h24.92V882.56a66.68,66.68,0,0,1,3-20.49,47.31,47.31,0,0,1,9.09-16.42,41.28,41.28,0,0,1,15.18-10.9c6.05-2.53,13.28-3.8,21.49-3.8,10.4,0,18.74,3,24.73,9s9,14.17,9,24.41V973.15h25V867.54a101,101,0,0,0-2.64-23.79,44.31,44.31,0,0,0-9.08-18.26"/>
      <path class="cls-1" d="M1978.65,840.4a70.32,70.32,0,0,0-22.6-22.44c-9.33-5.83-21.25-8.81-35.42-8.81a73.41,73.41,0,0,0-30.2,6.2,71.78,71.78,0,0,0-23.84,17.34A81,81,0,0,0,1850.94,859a96.94,96.94,0,0,0-5.57,33.52,129.74,129.74,0,0,0,5.41,33.89,74.07,74.07,0,0,0,14.44,26.64,65.48,65.48,0,0,0,23.65,17.31c9.35,4.12,20.59,6.23,33.32,6.23,18.1,0,33.28-4.62,45.21-13.63,11.64-8.86,19.38-22.11,23-39.5h-24.56c-2.39,10.48-7.25,18.42-14.46,23.65s-16.81,8-28.21,8c-8.87,0-16.69-1.46-23.23-4.43a45.9,45.9,0,0,1-16.26-12,46.45,46.45,0,0,1-9.24-17.2,64.16,64.16,0,0,1-2.56-20.46l0-.84h121.24a129,129,0,0,0-2.69-30,89.89,89.89,0,0,0-11.77-29.8m-106.88,38,.08-.92a56.25,56.25,0,0,1,4.14-18,47.48,47.48,0,0,1,9.56-14.83,44.36,44.36,0,0,1,14.54-10,47.08,47.08,0,0,1,19-3.68,46.37,46.37,0,0,1,33.31,13.57,46.82,46.82,0,0,1,9.93,14.82,56.89,56.89,0,0,1,4.27,18.13l.08.92Z"/>
      <path class="cls-1" d="M2236,819.94a44.89,44.89,0,0,0-16.59-8.15,84.46,84.46,0,0,0-21.87-2.64,60.12,60.12,0,0,0-28.89,7.11,56.35,56.35,0,0,0-21.13,20l-1,1.57-.6-1.73c-3.22-9.76-8.89-16.75-16.78-20.82a58.5,58.5,0,0,0-26.88-6.17c-22.35,0-40.67,9.16-52.53,27.19l-.26.39h-1V812.92h-23.36V973.15h24.92v-100a39.68,39.68,0,0,1,2.38-12,46.81,46.81,0,0,1,7.65-13.89,46,46,0,0,1,13.75-11.51c5.61-3.19,12.44-4.8,20.3-4.8,6.14,0,11.27.91,15.23,2.75a23.09,23.09,0,0,1,9.59,7.81,31.45,31.45,0,0,1,5,11.72,69.76,69.76,0,0,1,1.41,14.6V973.15h24.95v-100c0-12.68,3.85-23,11.5-30.64s18.3-11.54,31.63-11.54c6.54,0,12,1,16.15,2.88a24.34,24.34,0,0,1,9.93,8,29.77,29.77,0,0,1,4.8,11.77,74.88,74.88,0,0,1,1.29,14.26V973.15h24.92V855.3c0-8.2-1.29-15.29-3.84-21.14A37.19,37.19,0,0,0,2236,819.94"/>
      <path class="cls-1" d="M2319.06,782.09h-24.92V751.21h24.92Zm0,30.83h-24.92V973.15h24.92Z"/>
      <path class="cls-1" d="M2468.07,966.08a47.37,47.37,0,0,0,15.68-15.39c4-6.29,6-14.36,6-24,0-7.47-1.49-13.86-4.42-19A40,40,0,0,0,2473.64,895a62.81,62.81,0,0,0-16.68-8.21,190.31,190.31,0,0,0-19.51-5.3c-6.26-1.46-12.51-2.86-18.8-4.23a112.57,112.57,0,0,1-17.05-5,39.91,39.91,0,0,1-12.62-7.68,16,16,0,0,1-5.13-12.09,16.78,16.78,0,0,1,3.31-10.71,22.94,22.94,0,0,1,8.45-6.48A41,41,0,0,1,2407,831.9a67.57,67.57,0,0,1,25.39.5,40.7,40.7,0,0,1,12,4.6,27.45,27.45,0,0,1,9,8.57,28.21,28.21,0,0,1,4.15,12.65h24.92c-.69-9.29-2.75-17.13-6.1-23.36a41.41,41.41,0,0,0-14-15.31,57.65,57.65,0,0,0-20.22-8,128.09,128.09,0,0,0-25.21-2.35,89.25,89.25,0,0,0-21.24,2.64,64.74,64.74,0,0,0-19.19,8.05,45.19,45.19,0,0,0-13.84,14c-3.53,5.67-5.33,12.59-5.33,20.53,0,10.19,2.56,18.2,7.63,23.84a51.31,51.31,0,0,0,19.27,13.44,131.17,131.17,0,0,0,25.37,7.47c9.08,1.74,17.68,3.74,25.58,6a66.59,66.59,0,0,1,19.82,8.71c5.44,3.72,8.21,9.22,8.21,16.37,0,5.2-1.32,9.53-4,12.91a24.44,24.44,0,0,1-9.87,7.63,49.72,49.72,0,0,1-12.91,3.51,86.91,86.91,0,0,1-29.25-.64,44.64,44.64,0,0,1-14-5.29,29.58,29.58,0,0,1-10.19-10,30.83,30.83,0,0,1-4.16-14.49H2354c.47,9.49,2.56,17.62,6.12,24.27a46.21,46.21,0,0,0,14.78,16.63,62.56,62.56,0,0,0,21.31,9.08c15.4,3.59,32.82,3.75,49.91.48a65.91,65.91,0,0,0,22-8.18"/>
      <path class="cls-1" d="M2557.24,764.38h-24.95v48.54h-26.57V834.7h26.57V938.62c0,7.39.74,13.44,2.18,17.9a21.25,21.25,0,0,0,6.48,10.24,24.88,24.88,0,0,0,11.51,5,92.7,92.7,0,0,0,17.53,1.4h19.52V951.37h-11.37a98.44,98.44,0,0,1-10.29-.45,14.1,14.1,0,0,1-6.49-2.21,8.38,8.38,0,0,1-3.3-4.83,29.09,29.09,0,0,1-.82-7.76V834.7h33.23V812.92h-33.23Z"/>
      <path class="cls-1" d="M1189.46,764.38h-25v48.54h-26.58V834.7h26.58V938.62c0,7.39.74,13.44,2.18,17.9a21.11,21.11,0,0,0,6.48,10.24,24.78,24.78,0,0,0,11.51,5,92.59,92.59,0,0,0,17.52,1.4h19.52V951.37h-11.37a98,98,0,0,1-10.28-.45,14.23,14.23,0,0,1-6.52-2.21,8.49,8.49,0,0,1-3.28-4.83,29.2,29.2,0,0,1-.8-7.76V834.7h33.22V812.92h-33.22Z"/>
      <path class="cls-1" d="M2652.29,848.53l-.23.45h-.88V812.92h-23.36V973.15h24.92V903.88a111.63,111.63,0,0,1,3.17-27.91,54.39,54.39,0,0,1,10.18-20.84A44.28,44.28,0,0,1,2684.6,842c7.38-2.88,16.37-4.33,26.72-4.43V811.07c-13.8-.26-25.37,2.66-34.37,8.66a73.6,73.6,0,0,0-24.66,28.8"/>
      <path class="cls-1" d="M2793.7,1015a168.36,168.36,0,0,0,9.16-20l70.06-182.07H2846.6l-45.46,132.51h-1.82l-.21-.6L2752,812.92h-28.16l63.85,160.18-.12.29-11,27.24a32.25,32.25,0,0,1-9,11.32c-3.49,2.64-8.11,3.95-13.7,3.95a27.22,27.22,0,0,1-8.28-1.31c-2.2-.68-4.37-1.42-6.53-2.14v22.65a42.13,42.13,0,0,0,8.35,2,72.17,72.17,0,0,0,9.28.6,46.44,46.44,0,0,0,15.36-2.29,33.47,33.47,0,0,0,11.78-7.34,54.54,54.54,0,0,0,9.87-13.09"/>
    </g>
  </g>
</svg>
