<?xml version="1.0" encoding="UTF-8" standalone="no"?>
<!DOCTYPE svg PUBLIC "-//W3C//DTD SVG 1.1//EN" "http://www.w3.org/Graphics/SVG/1.1/DTD/svg11.dtd">
<svg width="100%" height="100%" viewBox="0 0 555 222" version="1.1" xmlns="http://www.w3.org/2000/svg" xmlns:xlink="http://www.w3.org/1999/xlink" xml:space="preserve" xmlns:serif="http://www.serif.com/" style="fill-rule:evenodd;clip-rule:evenodd;stroke-linejoin:round;stroke-miterlimit:2;">
    <g transform="matrix(0.758791,0,0,0.80345,-676.416,-770.955)">
        <rect id="アートボード1" x="891.439" y="959.555" width="731.358" height="275.934" style="fill:none;"/>
        <g id="アートボード11" serif:id="アートボード1">
            <g transform="matrix(1.31789,0,0,1.24463,591.107,-1143.2)">
                <g transform="matrix(3.76389,0,0,3.76389,241.728,1810.33)">
                    <path d="M0,-29.546L6.69,-29.546L18.094,-11.38L18.094,-29.546L24.365,-29.546L24.365,0L18.129,0L6.27,-18.758L6.27,0L0,0L0,-29.546Z" style="fill:rgb(0,123,132);fill-rule:nonzero;"/>
                </g>
                <g transform="matrix(3.76389,0,0,3.76389,367.549,1807.85)">
                    <path d="M0,-18.716C-1.122,-18.716 -2.189,-18.951 -3.156,-19.373L-3.156,0.66L3.162,0.66L3.162,-19.376C2.194,-18.952 1.125,-18.716 0,-18.716" style="fill:rgb(0,123,132);fill-rule:nonzero;"/>
                </g>
                <g transform="matrix(0,-3.76389,-3.76389,0,367.55,1692.82)">
                    <path d="M-3.943,-3.943C-6.121,-3.943 -7.886,-2.178 -7.886,0.001C-7.886,2.177 -6.121,3.943 -3.943,3.943C-1.765,3.943 0.001,2.177 0.001,0.001C0.001,-2.178 -1.765,-3.943 -3.943,-3.943" style="fill:rgb(252,175,22);fill-rule:nonzero;"/>
                </g>
                <g transform="matrix(3.76389,0,0,3.76389,444.011,1772.07)">
                    <path d="M0,-9.212L0,-14.284L-5.215,-14.284L-5.215,-19.379L-11.371,-19.379L-11.371,0.993C-11.371,6.651 -7.57,10.167 -1.451,10.167L-0.008,10.167L-0.008,5.087L-0.903,5.087C-4.245,5.087 -5.215,3.157 -5.215,1.095L-5.215,-9.212L0,-9.212Z" style="fill:rgb(0,123,132);fill-rule:nonzero;"/>
                </g>
                <g transform="matrix(3.76389,0,0,3.76389,502.747,1772.95)">
                    <path d="M0,-4.583C2.118,-4.583 2.822,-6.169 2.822,-6.846L2.822,-7.194C2.822,-7.985 2.118,-9.445 0,-9.445L-4.595,-9.445L-4.595,-4.583L0,-4.583ZM0.706,-14.517C5.886,-14.517 8.978,-11.575 8.978,-7.164L8.978,-6.876C8.978,-2.533 5.805,0.499 0.713,0.499L-4.595,0.499L-4.595,0.89C-4.595,2.952 -3.624,4.854 -0.282,4.854L7.165,4.854L7.165,9.934L-0.831,9.934C-6.949,9.934 -10.751,6.448 -10.751,0.789L-10.751,-14.517L0.706,-14.517Z" style="fill:rgb(0,123,132);fill-rule:nonzero;"/>
                </g>
                <g transform="matrix(3.76389,0,0,3.76389,578.474,1718.31)">
                    <path d="M0,24.449L-6.156,24.449L-6.156,0L1.881,0C9.679,0 10.842,6.439 10.842,9.93L4.687,9.93C4.687,5.497 2.658,5.075 1.474,5.075L0,5.075L0,24.449Z" style="fill:rgb(0,123,132);fill-rule:nonzero;"/>
                </g>
                <g transform="matrix(3.76389,0,0,3.76389,654.57,1718.31)">
                    <path d="M0,24.449L-6.156,24.449L-6.156,0L1.881,0C9.679,0 10.842,6.439 10.842,9.93L4.687,9.93C4.687,5.497 2.658,5.075 1.474,5.075L0,5.075L0,24.449Z" style="fill:rgb(0,123,132);fill-rule:nonzero;"/>
                </g>
                <g transform="matrix(3.76389,0,0,3.76389,734.622,1755.69)">
                    <path d="M0,4.583C-2.119,4.583 -2.822,6.169 -2.822,6.846L-2.822,7.194C-2.822,7.985 -2.119,9.445 0,9.445L4.595,9.445L4.595,4.583L0,4.583ZM-0.706,14.517C-5.886,14.517 -8.978,11.575 -8.978,7.164L-8.978,6.876C-8.978,2.533 -5.805,-0.499 -0.713,-0.499L4.595,-0.499L4.595,-0.89C4.595,-2.952 3.624,-4.854 0.282,-4.854L-7.165,-4.854L-7.165,-9.934L0.831,-9.934C6.949,-9.934 10.751,-6.448 10.751,-0.789L10.751,14.517L-0.706,14.517Z" style="fill:rgb(0,123,132);fill-rule:nonzero;"/>
                </g>
                <g transform="matrix(3.76389,0,0,3.76389,359.057,1846.96)">
                    <path d="M0,10.738C0.076,10.738 0.14,10.675 0.14,10.599L0.14,6.273C0.14,6.197 0.076,6.133 0,6.133L-8.295,6.133C-8.371,6.133 -8.434,6.197 -8.434,6.273L-8.434,10.599C-8.434,10.675 -8.371,10.738 -8.295,10.738L0,10.738ZM-0.743,0L-8.295,0C-8.371,0 -8.434,0.063 -8.434,0.14L-8.434,4.511C-8.434,4.588 -8.371,4.651 -8.295,4.651L0,4.651C0.076,4.651 0.14,4.588 0.14,4.511L0.14,0.927C0.14,0.29 -0.126,0 -0.743,0M1.622,0.725L1.622,12.08C1.622,12.157 1.558,12.22 1.482,12.22L-9.777,12.22C-9.854,12.22 -9.917,12.157 -9.917,12.08L-9.917,-1.342C-9.917,-1.419 -9.854,-1.482 -9.777,-1.482L-0.562,-1.482C0.887,-1.482 1.622,-0.74 1.622,0.725" style="fill:rgb(99,100,102);fill-rule:nonzero;"/>
                </g>
                <g transform="matrix(3.76389,0,0,3.76389,433.143,1846.35)">
                    <path d="M0,11.142L-4.903,2.207C-4.939,2.141 -4.907,2.084 -4.831,2.084L-0.615,2.084C-0.538,2.084 -0.475,2.022 -0.475,1.945L-0.475,0.743C-0.475,0.666 -0.538,0.602 -0.615,0.602L-6.607,0.602C-6.683,0.602 -6.746,0.539 -6.746,0.463L-6.746,-1.539C-6.746,-1.615 -6.81,-1.678 -6.887,-1.678L-8.089,-1.678C-8.165,-1.678 -8.228,-1.615 -8.228,-1.539L-8.228,0.463C-8.228,0.539 -8.291,0.602 -8.368,0.602L-14.36,0.602C-14.436,0.602 -14.499,0.666 -14.499,0.743L-14.499,1.945C-14.499,2.022 -14.436,2.084 -14.36,2.084L-10.141,2.084C-10.067,2.086 -10.034,2.141 -10.07,2.207L-14.975,11.142C-15.013,11.209 -14.979,11.264 -14.902,11.264L-13.492,11.264C-13.416,11.264 -13.322,11.209 -13.286,11.142L-8.38,2.207C-8.343,2.141 -8.293,2.084 -8.27,2.084C-8.247,2.084 -8.228,2.147 -8.228,2.224L-8.228,9.076C-8.228,9.153 -8.291,9.216 -8.368,9.216L-10.507,9.216C-10.583,9.216 -10.645,9.28 -10.645,9.356L-10.645,10.559C-10.645,10.635 -10.583,10.698 -10.507,10.698L-8.368,10.698C-8.291,10.698 -8.228,10.761 -8.228,10.838L-8.228,12.68C-8.228,12.757 -8.165,12.82 -8.089,12.82L-6.887,12.82C-6.81,12.82 -6.746,12.757 -6.746,12.68L-6.746,10.838C-6.746,10.761 -6.683,10.698 -6.607,10.698L-4.467,10.698C-4.391,10.698 -4.328,10.635 -4.328,10.559L-4.328,9.356C-4.328,9.28 -4.391,9.216 -4.467,9.216L-6.607,9.216C-6.683,9.216 -6.746,9.153 -6.746,9.076L-6.746,2.224C-6.746,2.147 -6.726,2.084 -6.703,2.084C-6.681,2.084 -6.63,2.141 -6.593,2.207L-1.689,11.142C-1.652,11.209 -1.558,11.264 -1.482,11.264L-0.071,11.264C0.005,11.264 0.038,11.209 0,11.142" style="fill:rgb(99,100,102);fill-rule:nonzero;"/>
                </g>
                <g transform="matrix(3.76389,0,0,3.76389,496.667,1884.4)">
                    <path d="M0,-1.934C0.077,-1.934 0.14,-1.998 0.14,-2.074L0.14,-3.276C0.14,-3.353 0.077,-3.416 0,-3.416L-1.183,-3.416C-1.259,-3.416 -1.322,-3.479 -1.322,-3.556L-1.322,-4.347C-1.322,-4.424 -1.386,-4.487 -1.463,-4.487L-2.665,-4.487C-2.741,-4.487 -2.805,-4.424 -2.805,-4.347L-2.805,-3.556C-2.805,-3.479 -2.867,-3.416 -2.945,-3.416L-7.294,-3.416C-7.371,-3.416 -7.434,-3.353 -7.434,-3.276L-7.434,-2.074C-7.434,-1.998 -7.371,-1.934 -7.294,-1.934L-2.945,-1.934C-2.867,-1.934 -2.805,-1.871 -2.805,-1.794L-2.805,1.075C-2.805,1.152 -2.867,1.215 -2.945,1.215L-3.774,1.215C-3.851,1.215 -3.914,1.279 -3.914,1.355L-3.914,2.413C-3.914,2.49 -3.851,2.553 -3.774,2.553L-1.463,2.553C-1.386,2.553 -1.322,2.49 -1.322,2.413L-1.322,-1.794C-1.322,-1.871 -1.259,-1.934 -1.183,-1.934L0,-1.934Z" style="fill:rgb(99,100,102);fill-rule:nonzero;"/>
                </g>
                <g transform="matrix(3.76389,0,0,3.76389,472.973,1891.38)">
                    <path d="M0,-2.738C-0.076,-2.738 -0.161,-2.678 -0.188,-2.607L-1.104,-0.132C-1.131,-0.059 -1.088,0 -1.012,0L0.289,0C0.365,0 0.45,-0.059 0.477,-0.132L1.393,-2.607C1.42,-2.678 1.378,-2.738 1.301,-2.738L0,-2.738Z" style="fill:rgb(99,100,102);fill-rule:nonzero;"/>
                </g>
                <g transform="matrix(3.76389,0,0,3.76389,465.059,1877.8)">
                    <path d="M0,-5.572C0.077,-5.572 0.14,-5.636 0.14,-5.713L0.14,-6.915C0.14,-6.992 0.077,-7.054 0,-7.054L-1.142,-7.054C-1.218,-7.054 -1.281,-7.117 -1.281,-7.194L-1.281,-9.895C-1.281,-9.972 -1.345,-10.034 -1.421,-10.034L-2.624,-10.034C-2.699,-10.034 -2.764,-9.972 -2.764,-9.895L-2.764,-7.194C-2.764,-7.117 -2.827,-7.054 -2.903,-7.054L-3.844,-7.054C-3.92,-7.054 -3.977,-7.117 -3.968,-7.194L-3.67,-9.88C-3.663,-9.956 -3.718,-10.019 -3.796,-10.019L-5.007,-10.019C-5.084,-10.019 -5.154,-9.956 -5.162,-9.88L-5.947,-2.789C-5.955,-2.713 -5.899,-2.65 -5.822,-2.65L-4.61,-2.65C-4.534,-2.65 -4.464,-2.713 -4.456,-2.789L-4.162,-5.434C-4.155,-5.51 -4.085,-5.572 -4.008,-5.572L-2.903,-5.572C-2.827,-5.572 -2.764,-5.509 -2.764,-5.433L-2.764,-0.872C-2.764,-0.796 -2.818,-0.702 -2.885,-0.664L-5.727,0.963C-5.795,1.002 -5.849,1.096 -5.849,1.172L-5.849,2.6C-5.849,2.676 -5.795,2.709 -5.727,2.671L-2.885,1.043C-2.818,1.006 -2.764,1.037 -2.764,1.114L-2.764,4.322C-2.764,4.399 -2.699,4.462 -2.624,4.462L-1.421,4.462C-1.345,4.462 -1.281,4.399 -1.281,4.322L-1.281,0.266C-1.281,0.19 -1.228,0.095 -1.16,0.057L-0.002,-0.606C0.066,-0.644 0.119,-0.739 0.119,-0.816L0.119,-2.243C0.119,-2.32 0.066,-2.351 -0.002,-2.314L-1.16,-1.651C-1.228,-1.612 -1.281,-1.644 -1.281,-1.721L-1.281,-5.433C-1.281,-5.509 -1.218,-5.572 -1.142,-5.572L0,-5.572Z" style="fill:rgb(99,100,102);fill-rule:nonzero;"/>
                </g>
                <g transform="matrix(3.76389,0,0,3.76389,496.436,1853.2)">
                    <path d="M0,-0.438C0.077,-0.438 0.14,-0.501 0.14,-0.578L0.14,-1.78C0.14,-1.856 0.077,-1.919 0,-1.919L-2.521,-1.919C-2.598,-1.919 -2.661,-1.982 -2.661,-2.059L-2.661,-3.36C-2.661,-3.437 -2.724,-3.5 -2.8,-3.5L-4.002,-3.5C-4.079,-3.5 -4.144,-3.437 -4.144,-3.36L-4.144,-2.059C-4.144,-1.982 -4.206,-1.919 -4.283,-1.919L-7.151,-1.919C-7.227,-1.919 -7.29,-1.856 -7.29,-1.78L-7.29,-0.578C-7.29,-0.501 -7.227,-0.438 -7.151,-0.438L-4.283,-0.438C-4.206,-0.438 -4.144,-0.374 -4.144,-0.297L-4.144,1.44C-4.144,1.516 -4.206,1.58 -4.283,1.58L-7.151,1.58C-7.227,1.58 -7.29,1.644 -7.29,1.72L-7.29,2.922C-7.29,2.999 -7.227,3.062 -7.151,3.062L0,3.062C0.077,3.062 0.14,2.999 0.14,2.922L0.14,1.72C0.14,1.644 0.077,1.58 0,1.58L-2.521,1.58C-2.598,1.58 -2.661,1.516 -2.661,1.44L-2.661,-0.297C-2.661,-0.374 -2.598,-0.438 -2.521,-0.438L0,-0.438Z" style="fill:rgb(99,100,102);fill-rule:nonzero;"/>
                </g>
                <g transform="matrix(3.76389,0,0,3.76389,525.136,1877.05)">
                    <path d="M0,-5.558L-1.871,-5.558C-1.948,-5.558 -1.993,-5.618 -1.971,-5.692L-1.213,-8.223C-1.191,-8.297 -1.11,-8.357 -1.033,-8.357L1.061,-8.357C1.137,-8.357 1.201,-8.42 1.201,-8.497L1.201,-9.699C1.201,-9.776 1.137,-9.839 1.061,-9.839L-4.278,-9.839C-4.355,-9.839 -4.418,-9.776 -4.418,-9.699L-4.418,-8.497C-4.418,-8.42 -4.355,-8.357 -4.278,-8.357L-2.86,-8.357C-2.784,-8.357 -2.738,-8.297 -2.761,-8.223L-4.391,-2.769C-4.415,-2.696 -4.368,-2.635 -4.292,-2.635L-3.025,-2.635C-2.948,-2.635 -2.867,-2.696 -2.845,-2.769L-2.494,-3.942C-2.471,-4.015 -2.39,-4.076 -2.313,-4.076L-0.775,-4.076C-0.63,-4.076 -0.452,-4.007 -0.552,-3.712L-1.24,-1.411C-1.263,-1.338 -1.345,-1.277 -1.42,-1.277L-3.615,-1.277C-3.693,-1.277 -3.774,-1.216 -3.795,-1.143L-4.159,0.071C-4.181,0.145 -4.136,0.205 -4.059,0.205L-1.863,0.205C-1.787,0.205 -1.742,0.265 -1.765,0.339L-2.459,2.664C-2.482,2.738 -2.562,2.798 -2.639,2.798L-2.96,2.798C-3.036,2.798 -3.117,2.859 -3.139,2.933L-3.502,4.146C-3.525,4.22 -3.479,4.281 -3.402,4.281L-1.535,4.281C-1.459,4.281 -1.379,4.22 -1.356,4.146L1.077,-3.891C1.346,-4.879 0.768,-5.558 0,-5.558" style="fill:rgb(99,100,102);fill-rule:nonzero;"/>
                </g>
                <g transform="matrix(3.76389,0,0,3.76389,561.434,1870.2)">
                    <path d="M0,-1.536C0.077,-1.536 0.14,-1.599 0.14,-1.676L0.14,-2.878C0.14,-2.955 0.077,-3.018 0,-3.018L-2.753,-3.018C-2.829,-3.018 -2.893,-3.081 -2.893,-3.158L-2.893,-4.648C-2.893,-4.725 -2.829,-4.788 -2.753,-4.788L0,-4.788C0.077,-4.788 0.14,-4.852 0.14,-4.929L0.14,-6.13C0.14,-6.207 0.077,-6.27 0,-6.27L-2.753,-6.27C-2.829,-6.27 -2.893,-6.333 -2.893,-6.41L-2.893,-7.875C-2.893,-7.952 -2.956,-8.014 -3.032,-8.014L-4.234,-8.014C-4.312,-8.014 -4.375,-7.952 -4.375,-7.875L-4.375,-6.41C-4.375,-6.333 -4.439,-6.27 -4.514,-6.27L-5.693,-6.27C-5.771,-6.27 -5.817,-6.331 -5.798,-6.406L-5.412,-7.884C-5.392,-7.958 -5.438,-8.019 -5.515,-8.019L-6.768,-8.019C-6.845,-8.019 -6.924,-7.958 -6.943,-7.884L-7.972,-3.955C-7.992,-3.881 -7.944,-3.82 -7.868,-3.82L-6.616,-3.82C-6.539,-3.82 -6.459,-3.881 -6.44,-3.955L-6.257,-4.653C-6.237,-4.727 -6.158,-4.788 -6.081,-4.788L-4.514,-4.788C-4.439,-4.788 -4.375,-4.725 -4.375,-4.648L-4.375,-3.158C-4.375,-3.081 -4.439,-3.018 -4.514,-3.018L-7.068,-3.018C-7.144,-3.018 -7.208,-2.955 -7.208,-2.878L-7.208,-1.676C-7.208,-1.599 -7.144,-1.536 -7.068,-1.536L-6.004,-1.536C-5.926,-1.536 -5.88,-1.475 -5.899,-1.4L-7.677,5.39C-7.696,5.464 -7.65,5.526 -7.573,5.526L-6.321,5.526C-6.243,5.526 -6.164,5.464 -6.145,5.39L-4.375,-1.371L-4.375,6.344C-4.375,6.42 -4.312,6.483 -4.234,6.483L-3.032,6.483C-2.956,6.483 -2.893,6.42 -2.893,6.344L-2.893,-1.349L-1.127,5.39C-1.109,5.464 -1.029,5.526 -0.952,5.526L0.301,5.526C0.376,5.526 0.424,5.464 0.404,5.39L-1.375,-1.4C-1.394,-1.475 -1.347,-1.536 -1.271,-1.536L0,-1.536Z" style="fill:rgb(99,100,102);fill-rule:nonzero;"/>
                </g>
                <g transform="matrix(3.76389,0,0,3.76389,583.126,1867.64)">
                    <path d="M0,-0.137L-0.468,-0.137C-0.544,-0.137 -0.608,-0.073 -0.608,0.003L-0.608,3.881C-0.608,3.957 -0.544,4.021 -0.468,4.021L0.508,4.021C0.585,4.021 0.649,3.957 0.649,3.881L0.649,0.667C0.649,-0.012 0.389,-0.137 0,-0.137M0.649,-2.45L0.649,-5.401C0.649,-5.726 0.49,-5.838 0.227,-5.838L-0.468,-5.838C-0.544,-5.838 -0.608,-5.775 -0.608,-5.698L-0.608,-1.759C-0.608,-1.682 -0.544,-1.619 -0.468,-1.619L0,-1.619C0.375,-1.619 0.649,-1.927 0.649,-2.45M2.13,-5.401L2.13,-2.45C2.13,-1.532 1.952,-1.186 1.747,-0.898C1.994,-0.631 2.13,-0.157 2.13,0.296L2.13,5.363C2.13,5.44 2.067,5.503 1.99,5.503L-0.468,5.503C-0.544,5.503 -0.608,5.566 -0.608,5.642L-0.608,7.043C-0.608,7.119 -0.672,7.183 -0.747,7.183L-1.95,7.183C-2.026,7.183 -2.09,7.119 -2.09,7.043L-2.09,-7.18C-2.09,-7.256 -2.026,-7.32 -1.95,-7.32L0.227,-7.32C1.108,-7.32 2.13,-6.96 2.13,-5.401" style="fill:rgb(99,100,102);fill-rule:nonzero;"/>
                </g>
                <g transform="matrix(3.76389,0,0,3.76389,620.24,1890.37)">
                    <path d="M0,-12.453L-4.768,-12.453C-4.846,-12.453 -4.89,-12.513 -4.867,-12.586L-4.658,-13.245C-4.635,-13.319 -4.679,-13.379 -4.757,-13.379L-6.03,-13.379C-6.107,-13.379 -6.189,-13.319 -6.212,-13.245L-7.066,-10.528C-7.09,-10.455 -7.045,-10.394 -6.969,-10.394L-5.696,-10.394C-5.619,-10.394 -5.536,-10.455 -5.513,-10.528L-5.416,-10.837C-5.393,-10.91 -5.31,-10.971 -5.234,-10.971L-0.35,-10.971C0.242,-10.971 0.523,-10.682 0.523,-10.106L0.523,-0.613C0.523,-0.536 0.459,-0.473 0.383,-0.473L-0.173,-0.473C-0.251,-0.473 -0.314,-0.41 -0.314,-0.333L-0.314,0.786C-0.314,0.863 -0.251,0.926 -0.173,0.926L1.865,0.926C1.941,0.926 2.005,0.863 2.005,0.786L2.005,-10.563C2.005,-11.835 1.301,-12.453 0,-12.453" style="fill:rgb(99,100,102);fill-rule:nonzero;"/>
                </g>
                <g transform="matrix(3.76389,0,0,3.76389,617.359,1863.19)">
                    <path d="M0,3.964C0,3.887 -0.064,3.825 -0.142,3.825L-1.214,3.825C-1.289,3.825 -1.353,3.887 -1.353,3.964L-1.353,5.043C-1.353,5.119 -1.417,5.182 -1.493,5.182L-2.076,5.182C-2.154,5.182 -2.216,5.119 -2.216,5.043L-2.216,2.79C-2.216,2.713 -2.154,2.65 -2.076,2.65L-0.12,2.65C-0.044,2.65 0.019,2.587 0.019,2.51L0.019,1.308C0.019,1.231 -0.044,1.168 -0.12,1.168L-2.076,1.168C-2.154,1.168 -2.216,1.105 -2.216,1.028L-2.216,-0.235C-2.216,-0.312 -2.154,-0.376 -2.076,-0.376L-0.12,-0.376C-0.044,-0.376 0.019,-0.439 0.019,-0.516L0.019,-1.718C0.019,-1.794 -0.044,-1.858 -0.12,-1.858L-3.96,-1.858C-4.037,-1.858 -4.083,-1.918 -4.06,-1.992L-3.89,-2.567C-3.87,-2.641 -3.914,-2.701 -3.991,-2.701L-5.257,-2.701C-5.333,-2.701 -5.414,-2.641 -5.437,-2.567L-6.287,0.314C-6.309,0.388 -6.264,0.448 -6.187,0.448L-4.922,0.448C-4.846,0.448 -4.765,0.388 -4.743,0.314L-4.578,-0.242C-4.556,-0.315 -4.476,-0.376 -4.398,-0.376L-3.838,-0.376C-3.761,-0.376 -3.698,-0.312 -3.698,-0.235L-3.698,1.028C-3.698,1.105 -3.761,1.168 -3.838,1.168L-5.768,1.168C-5.846,1.168 -5.908,1.231 -5.908,1.308L-5.908,2.51C-5.908,2.587 -5.846,2.65 -5.768,2.65L-3.838,2.65C-3.761,2.65 -3.698,2.713 -3.698,2.79L-3.698,5.043C-3.698,5.119 -3.761,5.182 -3.838,5.182L-4.416,5.182C-4.493,5.182 -4.556,5.119 -4.556,5.043L-4.556,3.964C-4.556,3.887 -4.619,3.825 -4.695,3.825L-5.768,3.825C-5.846,3.825 -5.908,3.887 -5.908,3.964L-5.908,6.525C-5.908,6.601 -5.846,6.665 -5.768,6.665L-0.142,6.665C-0.064,6.665 0,6.601 0,6.525L0,3.964Z" style="fill:rgb(99,100,102);fill-rule:nonzero;"/>
                </g>
                <g transform="matrix(3.76389,0,0,3.76389,675.876,1876.36)">
                    <path d="M0,-4.808C0,-4.731 -0.064,-4.668 -0.14,-4.668L-4.26,-4.668C-4.336,-4.668 -4.399,-4.731 -4.399,-4.808L-4.399,-5.845C-4.399,-5.921 -4.336,-5.984 -4.26,-5.984L-0.14,-5.984C-0.064,-5.984 0,-5.921 0,-5.845L0,-4.808ZM4.963,-5.984C5.04,-5.984 5.103,-6.047 5.103,-6.124L5.103,-7.326C5.103,-7.403 5.04,-7.467 4.963,-7.467L3.467,-7.467C3.391,-7.467 3.364,-7.518 3.407,-7.582L4.75,-9.522C4.794,-9.585 4.766,-9.637 4.689,-9.637L3.168,-9.637C3.091,-9.637 2.992,-9.585 2.948,-9.522L1.605,-7.582C1.561,-7.518 1.463,-7.467 1.386,-7.467L0.222,-7.467C0.145,-7.467 0.082,-7.529 0.082,-7.606L0.082,-9.513C0.082,-9.59 0.019,-9.653 -0.058,-9.653L-1.26,-9.653C-1.337,-9.653 -1.4,-9.59 -1.4,-9.513L-1.4,-7.606C-1.4,-7.529 -1.463,-7.467 -1.54,-7.467L-2.859,-7.467C-2.935,-7.467 -2.999,-7.529 -2.999,-7.606L-2.999,-9.513C-2.999,-9.59 -3.062,-9.653 -3.138,-9.653L-4.341,-9.653C-4.417,-9.653 -4.481,-9.59 -4.481,-9.513L-4.481,-7.606C-4.481,-7.529 -4.545,-7.467 -4.621,-7.467L-5.785,-7.467C-5.861,-7.467 -5.961,-7.518 -6.005,-7.582L-7.346,-9.522C-7.39,-9.585 -7.489,-9.637 -7.566,-9.637L-9.089,-9.637C-9.165,-9.637 -9.193,-9.585 -9.148,-9.522L-7.806,-7.582C-7.762,-7.518 -7.79,-7.467 -7.867,-7.467L-9.354,-7.467C-9.43,-7.467 -9.493,-7.403 -9.493,-7.326L-9.493,-6.124C-9.493,-6.047 -9.43,-5.984 -9.354,-5.984L-6.021,-5.984C-5.943,-5.984 -5.881,-5.921 -5.881,-5.845L-5.881,-4.808C-5.881,-4.731 -5.943,-4.668 -6.021,-4.668L-8.55,-4.668C-8.627,-4.668 -8.69,-4.604 -8.69,-4.528L-8.69,-3.326C-8.69,-3.249 -8.627,-3.186 -8.55,-3.186L-3.076,-3.186C-3,-3.186 -2.937,-3.123 -2.937,-3.046L-2.937,-2.234C-2.937,-2.157 -3,-2.095 -3.076,-2.095L-8.55,-2.095C-8.627,-2.095 -8.69,-2.032 -8.69,-1.955L-8.69,-0.753C-8.69,-0.676 -8.627,-0.612 -8.55,-0.612L-3.076,-0.612C-3,-0.612 -2.937,-0.549 -2.937,-0.473L-2.937,0.256C-2.937,0.333 -3,0.396 -3.076,0.396L-8.55,0.396C-8.627,0.396 -8.69,0.46 -8.69,0.536L-8.69,1.738C-8.69,1.815 -8.627,1.878 -8.55,1.878L-6.732,1.878C-6.656,1.878 -6.636,1.923 -6.69,1.978L-9.237,4.569C-9.29,4.624 -9.271,4.669 -9.195,4.669L-7.397,4.669C-7.32,4.669 -7.213,4.624 -7.159,4.569L-4.612,1.978C-4.559,1.923 -4.451,1.878 -4.374,1.878L-3.076,1.878C-3,1.878 -2.937,1.942 -2.937,2.018L-2.937,4.706C-2.937,4.782 -2.873,4.845 -2.796,4.845L-1.594,4.845C-1.518,4.845 -1.455,4.782 -1.455,4.706L-1.455,2.018C-1.455,1.942 -1.392,1.878 -1.314,1.878L-0.025,1.878C0.052,1.878 0.16,1.923 0.214,1.978L2.761,4.569C2.814,4.624 2.922,4.669 2.999,4.669L4.796,4.669C4.872,4.669 4.891,4.624 4.838,4.569L2.29,1.978C2.237,1.923 2.256,1.878 2.333,1.878L4.159,1.878C4.236,1.878 4.299,1.815 4.299,1.738L4.299,0.536C4.299,0.46 4.236,0.396 4.159,0.396L-1.314,0.396C-1.392,0.396 -1.455,0.333 -1.455,0.256L-1.455,-0.473C-1.455,-0.549 -1.392,-0.612 -1.314,-0.612L4.159,-0.612C4.236,-0.612 4.299,-0.676 4.299,-0.753L4.299,-1.955C4.299,-2.032 4.236,-2.095 4.159,-2.095L-1.314,-2.095C-1.392,-2.095 -1.455,-2.157 -1.455,-2.234L-1.455,-3.046C-1.455,-3.123 -1.392,-3.186 -1.314,-3.186L4.159,-3.186C4.236,-3.186 4.299,-3.249 4.299,-3.326L4.299,-4.528C4.299,-4.604 4.236,-4.668 4.159,-4.668L1.622,-4.668C1.545,-4.668 1.482,-4.731 1.482,-4.808L1.482,-5.845C1.482,-5.921 1.545,-5.984 1.622,-5.984L4.963,-5.984Z" style="fill:rgb(99,100,102);fill-rule:nonzero;"/>
                </g>
            </g>
        </g>
    </g>
</svg>
