<?xml version="1.0" encoding="UTF-8" standalone="no"?>
<!-- Created with Inkscape (http://www.inkscape.org/) -->

<svg
   xmlns:dc="http://purl.org/dc/elements/1.1/"
   xmlns:cc="http://creativecommons.org/ns#"
   xmlns:rdf="http://www.w3.org/1999/02/22-rdf-syntax-ns#"
   xmlns:svg="http://www.w3.org/2000/svg"
   xmlns="http://www.w3.org/2000/svg"
   xmlns:sodipodi="http://sodipodi.sourceforge.net/DTD/sodipodi-0.dtd"
   xmlns:inkscape="http://www.inkscape.org/namespaces/inkscape"
   width="601.09491"
   height="88.832062"
   id="svg8622"
   version="1.1"
   inkscape:version="0.47 r22583"
   sodipodi:docname="F03.51.svg">
  <defs
     id="defs8624">
    <inkscape:perspective
       sodipodi:type="inkscape:persp3d"
       inkscape:vp_x="0 : 526.18109 : 1"
       inkscape:vp_y="0 : 1000 : 0"
       inkscape:vp_z="744.09448 : 526.18109 : 1"
       inkscape:persp3d-origin="372.04724 : 350.78739 : 1"
       id="perspective8630" />
    <inkscape:perspective
       id="perspective8640"
       inkscape:persp3d-origin="0.5 : 0.33333333 : 1"
       inkscape:vp_z="1 : 0.5 : 1"
       inkscape:vp_y="0 : 1000 : 0"
       inkscape:vp_x="0 : 0.5 : 1"
       sodipodi:type="inkscape:persp3d" />
    <inkscape:perspective
       sodipodi:type="inkscape:persp3d"
       inkscape:vp_x="0 : 526.18109 : 1"
       inkscape:vp_y="0 : 1000 : 0"
       inkscape:vp_z="744.09448 : 526.18109 : 1"
       inkscape:persp3d-origin="372.04724 : 350.78739 : 1"
       id="perspective9656" />
    <inkscape:perspective
       sodipodi:type="inkscape:persp3d"
       inkscape:vp_x="0 : 226.5 : 1"
       inkscape:vp_y="0 : 1000 : 0"
       inkscape:vp_z="510 : 226.5 : 1"
       inkscape:persp3d-origin="255 : 151 : 1"
       id="perspective18" />
    <inkscape:perspective
       sodipodi:type="inkscape:persp3d"
       inkscape:vp_x="0 : 0.5 : 1"
       inkscape:vp_y="0 : 1000 : 0"
       inkscape:vp_z="1 : 0.5 : 1"
       inkscape:persp3d-origin="0.5 : 0.33333333 : 1"
       id="perspective9680" />
    <inkscape:perspective
       id="perspective10256"
       inkscape:persp3d-origin="0.5 : 0.33333333 : 1"
       inkscape:vp_z="1 : 0.5 : 1"
       inkscape:vp_y="0 : 1000 : 0"
       inkscape:vp_x="0 : 0.5 : 1"
       sodipodi:type="inkscape:persp3d" />
  </defs>
  <sodipodi:namedview
     id="base"
     pagecolor="#ffffff"
     bordercolor="#666666"
     borderopacity="1.0"
     inkscape:pageopacity="0.0"
     inkscape:pageshadow="2"
     inkscape:zoom="0.83535156"
     inkscape:cx="135.80395"
     inkscape:cy="-9.9129832"
     inkscape:document-units="px"
     inkscape:current-layer="layer1-9"
     showgrid="false"
     inkscape:window-width="1600"
     inkscape:window-height="838"
     inkscape:window-x="-8"
     inkscape:window-y="-8"
     inkscape:window-maximized="1" />
  <metadata
     id="metadata8627">
    <rdf:RDF>
      <cc:Work
         rdf:about="">
        <dc:format>image/svg+xml</dc:format>
        <dc:type
           rdf:resource="http://purl.org/dc/dcmitype/StillImage" />
        <dc:title></dc:title>
      </cc:Work>
    </rdf:RDF>
  </metadata>
  <g
     inkscape:label="Livello 1"
     inkscape:groupmode="layer"
     id="layer1"
     transform="translate(-21.211983,-141.33394)">
    <g
       inkscape:label="Livello 1"
       inkscape:groupmode="layer"
       transform="translate(-22.332652,-16.466412)"
       id="layer1-9">
      <path
         d="m 601.95797,165.18617 35.32469,33.61915 0,2.7462 -36.87123,37.62282 -543.688009,0 c -3.208709,0 -5.810365,-2.60167 -5.810365,-5.82482 l 0,-62.35299 c 0,-3.22316 2.601656,-5.81036 5.810365,-5.81036 l 545.234549,0"
         style="fill:#ffffff;fill-opacity:1;fill-rule:nonzero;stroke:none"
         id="path3116" />
      <path
         d="m 104.62278,205.33838 -4.856422,0 0,-5.79592 4.856422,0 c 5.75255,0 10.43553,-4.68297 10.43553,-10.43553 0,-5.767 -4.68298,-10.43552 -10.43553,-10.43552 -5.767013,0 -10.435535,4.66852 -10.435535,10.43552 l 0,4.68299 -5.810364,0 0,-4.68299 c 0,-5.767 -4.668521,-10.43552 -10.421073,-10.43552 -5.767003,0 -10.449975,4.66852 -10.449975,10.43552 0,5.75256 4.682972,10.43553 10.449975,10.43553 l 4.841971,0 0,5.79592 -4.841971,0 c -5.767003,0 -10.449975,4.66852 -10.449975,10.43552 0,5.75254 4.682972,10.43552 10.449975,10.43552 5.752552,0 10.421073,-4.68298 10.421073,-10.43552 l 0,-4.68299 5.810364,0 0,4.68299 c 0,5.75254 4.668522,10.43552 10.435535,10.43552 5.75255,0 10.43553,-4.68298 10.43553,-10.43552 0,-5.767 -4.68298,-10.43552 -10.43553,-10.43552 z m -4.856422,-16.23145 c 0,-2.65946 2.153592,-4.7986 4.798612,-4.7986 2.64502,0 4.7986,2.13914 4.7986,4.7986 0,2.64502 -2.15358,4.68299 -4.7986,4.68299 l -4.798612,0 0,-4.68299 z m -17.301017,26.60916 c 0,2.65946 -2.13914,4.7986 -4.798609,4.7986 -2.645008,0 -4.798608,-2.13914 -4.798608,-4.7986 0,-2.64502 2.1536,-4.68299 4.798608,-4.68299 l 4.798609,0 0,4.68299 z m 0.333018,-21.92617 -4.798608,0 c -2.645017,0 -4.798608,-2.03797 -4.798608,-4.68299 0,-2.65946 2.153591,-4.7986 4.798608,-4.7986 2.659469,0 4.798608,2.13914 4.798608,4.7986 l 0,4.68299 z m 5.636916,5.75254 5.795904,0 0,5.79592 -5.795904,0 0,-5.79592 z m 16.130265,21.03004 c -2.64501,0 -4.798602,-2.13914 -4.798602,-4.7986 l 0,-4.68299 4.798602,0 c 2.64501,0 4.79861,2.03797 4.79861,4.68299 0,2.65946 -2.1536,4.7986 -4.7986,4.7986"
         style="fill:#000000;fill-opacity:1;fill-rule:nonzero;stroke:none"
         id="path3118" />
      <path
         d="m 177.59918,209.47212 -9.87183,0 4.94314,-16.57833 4.92869,16.57833 z m 1.7778,6.98109 1.87898,6.47523 8.7878,0 -12.06878,-38.25877 -10.62343,0 -12.09769,38.25877 8.81672,0 1.85006,-6.47523 13.45634,0 z m -10.40662,-35.28132 5.88263,0 4.71189,-7.76161 -7.99287,0 -2.60165,7.76161"
         style="fill:#d20000;fill-opacity:1;fill-rule:nonzero;stroke:none"
         id="path3120" />
      <path
         d="m 215.74234,202.12967 0,-6.86549 c -0.63597,-0.14453 -1.24302,-0.23126 -1.80672,-0.23126 -2.83291,0 -4.89978,0.8811 -7.08227,3.46888 l 0,-3.04972 -7.50145,0 0,27.47636 7.50145,0 0,-13.64423 c 0,-5.04432 3.23761,-7.15454 8.88898,-7.15454"
         style="fill:#d20000;fill-opacity:1;fill-rule:nonzero;stroke:none"
         id="path3122" />
      <path
         d="m 232.46519,197.83693 0,-13.16726 -7.45808,0 0,38.25877 7.45808,0 0,-2.3993 c 1.70552,1.8067 4.71188,2.78956 7.76161,2.78956 6.74985,0 11.69298,-5.8971 11.69298,-14.10676 0,-8.25302 -4.94313,-14.17902 -11.69298,-14.17902 -3.04972,0 -6.05608,1.02679 -7.76161,2.80401 z m 0,9.23588 c 0,-3.43997 2.86181,-5.62247 5.92598,-5.62247 5.50684,0 6.1428,5.20331 6.1428,7.7616 0,2.52939 -0.63596,7.7327 -6.1428,7.7327 -3.06417,0 -5.92598,-2.19695 -5.92598,-5.62247 l 0,-4.24936"
         style="fill:#d20000;fill-opacity:1;fill-rule:nonzero;stroke:none"
         id="path3124" />
      <path
         d="m 276.93902,210.80185 0,2.74619 c 0,2.97744 -2.34147,3.84466 -4.78414,3.84466 -2.38485,0 -4.00366,-1.12738 -4.00366,-3.0208 0,-2.06688 2.57274,-2.67393 6.04161,-3.16535 l 2.74619,-0.4047 z m 2.52939,7.5737 c 1.38755,1.8067 4.13375,4.94315 10.76798,4.94315 5.17439,0 8.55653,-1.9657 10.92694,-4.42282 l -4.06147,-4.33609 c -1.17075,0.98285 -3.72903,2.38485 -7.24128,2.38485 -4.29273,0 -5.767,-2.86182 -5.91154,-5.13104 l 17.89361,0 c 0.0809,-0.79437 0.12951,-1.57544 0.12951,-2.29813 0,-10.55115 -6.30179,-14.48255 -12.14106,-14.48255 -3.5845,0 -6.22951,0.98285 -8.18076,2.45713 -2.00905,-1.57545 -5.0154,-2.3704 -9.07689,-2.3704 -5.96935,0 -10.52224,2.93409 -11.76525,3.61341 l 3.61342,5.34784 c 1.17073,-0.75158 4.75524,-2.81845 8.55654,-2.81845 3.46886,0 3.87358,0.94006 3.87358,4.1771 -6.9233,0.76661 -16.23145,1.63326 -16.23145,9.3515 0,4.89978 4.24938,8.52765 9.64059,8.52765 6.22952,0 8.36866,-3.39662 9.20697,-4.94315 z m 4.29275,-12.0977 c 0,-1.73444 1.77779,-5.1744 5.57909,-5.1744 3.68567,0 5.34784,2.57275 5.65138,5.1744 l -11.23047,0"
         style="fill:#d20000;fill-opacity:1;fill-rule:nonzero;stroke:none"
         id="path3126" />
      <path
         d="m 309.90778,224.92305 -1.99459,5.96935 c 1.85005,0.4764 4.45171,0.67875 6.0416,0.67875 2.13914,0 4.74081,-0.41858 6.43187,-1.85008 1.32974,-1.17074 2.12469,-2.90518 2.12469,-5.99825 l 0,-28.27131 -7.47253,0 0,26.76813 c 0,2.25477 -0.67875,3.20871 -3.9892,2.81846 l -1.14126,-0.11563 z m 8.83116,-40.62918 c -2.34148,0 -4.19155,1.89343 -4.19155,4.23492 0,2.32704 1.85007,4.22046 4.19155,4.22046 2.32704,0 4.22047,-1.89342 4.22047,-4.22046 0,-2.34149 -1.89343,-4.23492 -4.22047,-4.23492"
         style="fill:#d20000;fill-opacity:1;fill-rule:nonzero;stroke:none"
         id="path3128" />
      <path
         d="m 350.16116,210.80185 0,2.74619 c 0,2.97744 -2.32705,3.84466 -4.78416,3.84466 -2.37041,0 -3.9892,-1.12738 -3.9892,-3.0208 0,-2.06688 2.55829,-2.67393 6.02717,-3.16535 l 2.74619,-0.4047 z m 7.50144,4.78414 0,-11.27383 c 0,-6.25842 -4.03258,-9.19251 -11.86644,-9.19251 -5.9549,0 -10.52225,2.93409 -11.7508,3.61341 l 3.59894,5.34784 c 1.17075,-0.75158 4.75526,-2.81845 8.57102,-2.81845 3.4544,0 3.87357,0.94006 3.87357,4.1771 -6.93774,0.76661 -16.24588,1.63326 -16.24588,9.3515 0,4.89978 4.2638,8.52765 9.65502,8.52765 4.365,0 6.07053,-0.98286 7.76161,-2.78956 0.91,1.57545 2.48602,2.78956 6.47523,2.78956 l 2.68837,-5.13105 c -1.70553,-0.34688 -2.76064,-0.6799 -2.76064,-2.60166"
         style="fill:#d20000;fill-opacity:1;fill-rule:nonzero;stroke:none"
         id="path3130" />
      <path
         d="m 386.75776,202.12967 0,-6.86549 c -0.63596,-0.14453 -1.24302,-0.23126 -1.80671,-0.23126 -2.81845,0 -4.89977,0.8811 -7.08228,3.46888 l 0,-3.04972 -7.50144,0 0,27.47636 7.50144,0 0,-13.64423 c 0,-5.04432 3.23761,-7.15454 8.88899,-7.15454"
         style="fill:#d20000;fill-opacity:1;fill-rule:nonzero;stroke:none"
         id="path3132" />
      <path
         d="m 417.06704,199.3401 c -3.5556,-3.32433 -6.79322,-4.36499 -10.52224,-4.36499 -6.82213,0 -11.27384,3.45443 -11.27384,9.00461 0,10.36327 14.39581,6.85103 14.39581,10.97031 0,1.76335 -1.57543,2.3704 -3.84466,2.3704 -2.25476,0 -6.07052,-2.06687 -7.27018,-3.5845 l -5.24667,4.78415 c 1.44536,2.08133 6.67758,4.87089 13.19616,4.87089 4.45173,0 10.59453,-2.90519 10.59453,-8.86009 0,-10.36325 -14.39583,-6.56195 -14.39583,-11.12929 0,-1.69108 1.17075,-2.29814 3.61342,-2.29814 2.48602,0 5.57911,1.9657 6.30178,2.87627 l 4.45172,-4.63962"
         style="fill:#d20000;fill-opacity:1;fill-rule:nonzero;stroke:none"
         id="path3134" />
      <path
         d="m 444.61567,210.80185 0,2.74619 c 0,2.97744 -2.3415,3.84466 -4.79861,3.84466 -2.37038,0 -3.98921,-1.12738 -3.98921,-3.0208 0,-2.06688 2.5583,-2.67393 6.02718,-3.16535 l 2.76064,-0.4047 z m 7.487,4.78414 0,-11.27383 c 0,-6.25842 -4.03259,-9.19251 -11.86646,-9.19251 -5.95488,0 -10.52223,2.93409 -11.76524,3.61341 l 3.62786,5.34784 c 1.15628,-0.75158 4.74079,-2.81845 8.55655,-2.81845 3.45441,0 3.87358,0.94006 3.87358,4.1771 -6.93775,0.76661 -16.2459,1.63326 -16.2459,9.3515 0,4.89978 4.26383,8.52765 9.65503,8.52765 4.365,0 6.07053,-0.98286 7.76161,-2.78956 0.91116,1.57545 2.48603,2.78956 6.48968,2.78956 l 2.67393,-5.13105 c -1.70554,-0.34688 -2.76064,-0.6799 -2.76064,-2.60166"
         style="fill:#d20000;fill-opacity:1;fill-rule:nonzero;stroke:none"
         id="path3136" />
      <path
         d="m 468.57981,195.45208 -4.22048,0 0,6.22952 4.22048,0 0,21.24684 7.50143,0 0,-21.24684 5.76701,0 0,-6.22952 -5.76701,0 0,-1.57544 c 0,-2.25477 0.7805,-3.20871 4.66852,-2.83292 l 1.61881,0.11562 1.32974,-5.767 c -1.51764,-0.333 -4.53845,-0.72267 -6.56197,-0.72267 -2.15358,0 -4.75523,0.46251 -6.40296,1.89342 -1.35863,1.17075 -2.15357,2.86182 -2.15357,5.95491 l 0,2.93408"
         style="fill:#d20000;fill-opacity:1;fill-rule:nonzero;stroke:none"
         id="path3138" />
      <path
         d="m 510.32191,206.69701 0,16.23143 7.47253,0 0,-17.70569 c 0,-7.08229 -4.89978,-10.18983 -9.6984,-10.18983 -3.04971,0 -6.07052,1.02679 -7.7616,2.80401 l 0,-2.38485 -7.48697,0 0,27.47636 7.48697,0 0,-14.98841 c 0,-4.26383 2.78956,-6.25843 5.43457,-6.25843 2.67392,0 4.5529,1.35864 4.5529,5.01541"
         style="fill:#d20000;fill-opacity:1;fill-rule:nonzero;stroke:none"
         id="path3140" />
      <path
         d="m 116.09897,170.12932 -49.127926,0 c -4.798608,0 -8.672185,3.90247 -8.672185,8.71554 l 0,47.43683 c 0,4.81306 3.902488,8.70109 8.715547,8.70109 l 49.431444,0 c 4.82751,0 8.33975,-3.88803 8.33975,-8.70109 l 0,-47.43683 c 0,-4.81307 -3.87357,-8.71554 -8.68664,-8.71554 z m 2.78955,56.12346 c 0,1.561 -1.25747,2.81846 -2.81846,2.81846 l -49.055654,0 c -1.560997,0 -2.818458,-1.25746 -2.818458,-2.81846 l 0,-47.53801 c 0,-1.561 1.185197,-2.81845 2.746194,-2.81845 l 49.156828,0 c 1.56099,0 2.78955,1.25745 2.78955,2.81845 l 0,47.53801"
         style="fill:#2163ad;fill-opacity:1;fill-rule:nonzero;stroke:none"
         id="path3142" />
      <path
         d="m 601.95797,165.18617 35.32469,33.61915 0,2.7462 -36.87123,37.62282 -543.688009,0 c -3.208709,0 -5.810365,-2.60167 -5.810365,-5.82482 l 0,-62.35299 c 0,-3.22316 2.601656,-5.81036 5.810365,-5.81036 l 545.234549,0 z m 42.68158,5.78145 c -10e-6,-7.27018 -5.89709,-13.16727 -13.16727,-13.16727 l -574.77777,0 c -7.270178,0 -13.138355,5.89709 -13.138355,13.16727 l -0.01152,62.54088 c 0,7.25573 5.89708,13.12391 13.167266,13.12391 l 574.777779,0 c 7.27016,0 13.13834,-5.89708 13.13834,-13.18172 l 0.0115,-62.48307"
         style="fill:#d20000;fill-opacity:1;fill-rule:nonzero;stroke:none"
         id="path3144" />
    </g>
  </g>
</svg>
