<?xml version="1.0" encoding="UTF-8" standalone="no"?>
<!-- Created with Inkscape (http://www.inkscape.org/) -->

<svg
   xmlns:dc="http://purl.org/dc/elements/1.1/"
   xmlns:cc="http://creativecommons.org/ns#"
   xmlns:rdf="http://www.w3.org/1999/02/22-rdf-syntax-ns#"
   xmlns:svg="http://www.w3.org/2000/svg"
   xmlns="http://www.w3.org/2000/svg"
   xmlns:sodipodi="http://sodipodi.sourceforge.net/DTD/sodipodi-0.dtd"
   xmlns:inkscape="http://www.inkscape.org/namespaces/inkscape"
   width="400"
   height="600"
   id="svg2"
   version="1.1"
   inkscape:version="0.47 r22583"
   sodipodi:docname="Albanian traffic sign - rruge kalimi.svg">
  <defs
     id="defs4">
    <inkscape:perspective
       sodipodi:type="inkscape:persp3d"
       inkscape:vp_x="0 : 526.18109 : 1"
       inkscape:vp_y="0 : 1000 : 0"
       inkscape:vp_z="744.09448 : 526.18109 : 1"
       inkscape:persp3d-origin="372.04724 : 350.78739 : 1"
       id="perspective10" />
    <inkscape:perspective
       id="perspective2846"
       inkscape:persp3d-origin="200 : 200 : 1"
       inkscape:vp_z="400 : 300 : 1"
       inkscape:vp_y="0 : 1000 : 0"
       inkscape:vp_x="0 : 300 : 1"
       sodipodi:type="inkscape:persp3d" />
  </defs>
  <sodipodi:namedview
     id="base"
     pagecolor="#ffffff"
     bordercolor="#666666"
     borderopacity="1.0"
     inkscape:pageopacity="0.0"
     inkscape:pageshadow="2"
     inkscape:zoom="0.83535156"
     inkscape:cx="107.70183"
     inkscape:cy="299.26117"
     inkscape:document-units="px"
     inkscape:current-layer="g2881"
     showgrid="false"
     inkscape:window-width="1600"
     inkscape:window-height="838"
     inkscape:window-x="-8"
     inkscape:window-y="-8"
     inkscape:window-maximized="1" />
  <metadata
     id="metadata7">
    <rdf:RDF>
      <cc:Work
         rdf:about="">
        <dc:format>image/svg+xml</dc:format>
        <dc:type
           rdf:resource="http://purl.org/dc/dcmitype/StillImage" />
        <dc:title></dc:title>
      </cc:Work>
    </rdf:RDF>
  </metadata>
  <g
     inkscape:label="Livello 1"
     inkscape:groupmode="layer"
     id="layer1"
     transform="translate(-27.449146,-231.62335)">
    <path
       style="fill:#ffffff;fill-opacity:1;stroke:#000000;stroke-width:3;stroke-miterlimit:4"
       d="m 28.949146,233.12335 397.000004,0 0,597 -397.000004,0 0,-597 z"
       id="rect2842" />
    <path
       style="fill:none;stroke:#000000;stroke-width:8;stroke-miterlimit:4"
       d="m 69.449146,243.62335 316.000004,0 c 16.62,0 30,13.38 30,30 l 0,516 c 0,16.62 -13.38,30 -30,30 l -316.000004,0 c -16.62,0 -30,-13.38 -30,-30 l 0,-516 c 0,-16.62 13.38,-30 30,-30 z"
       id="rect3732" />
    <g
       transform="matrix(0.466667,0,0,0.466667,87.449147,331.62335)"
       id="g3751">
      <g
         transform="matrix(3,0,0,3,-776.094,52.538)"
         id="g1882" />
      <g
         transform="matrix(3,0,0,3,-471.706,24.541)"
         id="g2461" />
      <path
         d="M 600,300 C 600.028,465.677 465.705,600 300,600 134.295,600 -0.0277257,465.677 4.29273e-6,300 -0.0277257,134.323 134.295,0 300,0 465.705,0 600.028,134.323 600,300 l 0,0 z"
         style="fill:#000000;fill-opacity:1;fill-rule:evenodd;stroke:none"
         id="path1873-1" />
      <path
         d="M 597,300 C 597,464.029 464.029,597 300,597 135.971,597 3.00007,464.029 3.00007,300 3.00007,135.971 135.971,3.00007 300,3.00007 464.029,3.00007 597,135.971 597,300 l 0,0 z"
         style="fill:#ffffff;fill-opacity:1;fill-rule:evenodd;stroke:none"
         id="path1875-7" />
      <path
         d="M 300,9.00008 C 139.285,9.00008 9.00009,139.285 9.00009,300 9.00009,460.715 139.285,591 300,591 460.715,591 591,460.715 591,300 591,139.285 460.715,9.00008 300,9.00008 z m 0,75 c 119.232,0 216,96.768 216,216 0,53.3734 -19.446,102.17 -51.5625,139.875 L 160.125,135.563 C 197.83,103.446 246.627,84.0001 300,84.0001 z M 133.5,162.469 437.531,466.594 C 400.166,497.493 352.236,516 300,516 180.768,516 84.0001,419.232 84.0001,300 c 0,-52.2585 18.5778,-100.16 49.5,-137.531 z"
         style="fill:#d40000;fill-opacity:1;fill-rule:evenodd;stroke:none"
         id="path1877-4" />
      <path
         sodipodi:nodetypes="cccsccsscc"
         d="m 300,93.0001 c -47.6258,0 -91.479,16.1535 -126.469,43.2187 L 463.781,426.469 C 490.846,391.479 507,347.626 507,300 507,185.736 414.264,93.0001 300,93.0001 z M 134.25,175.969 C 108.339,210.537 93.0001,253.506 93.0001,300 c 0,114.264 92.736,207 207,207 46.4939,0 89.4632,-15.3391 124.031,-41.25 L 134.25,175.969 z"
         style="fill:#00408b;fill-opacity:1;fill-rule:evenodd;stroke:none"
         id="path2770-0" />
    </g>
    <g
       transform="matrix(2.028,0,0,2.028,21.051437,214.41635)"
       style="font-stretch:normal;text-align:center;writing-mode:lr-tb;text-anchor:middle;fill:#000000;fill-opacity:1;stroke:none;-inkscape-font-specification:'Transport Heavy,'"
       id="text3059">
      <g
         style="font-size:28.36182976px;font-style:normal;font-variant:normal;font-weight:normal;line-height:100%;fill:#000000;font-family:Transport Heavy;-inkscape-font-specification:'Transport Heavy,'"
         id="text2875">
        <path
           d="m 62.432722,212.96571 0.443154,0 1.107884,0 0.166183,0 0.166182,0 1.71722,0 0.38776,0 0.166182,0 0.720125,0 0.941701,0 0.221577,0 0.221577,0 0.997095,0 0.775519,0 0.166183,0 0.166182,0 0.166183,0 0.387759,0 0.221577,0 0.166183,0 0.166182,0 c 0.267726,0.0462 0.489302,0.0647 0.664731,0.0554 l 0.66473,0.11079 0.110789,0.0554 0.166182,0 0.110789,0.0554 0.830913,0.27697 c 1.698738,0.89556 2.825085,2.1327 3.379046,3.71141 1.089399,3.89607 -0.184667,6.68425 -3.8222,8.36452 l 0.110788,0.0554 c 0.1754,0.36007 0.341582,0.65551 0.498548,0.88631 l 0.166183,0.33236 c 0.07384,0.12003 0.129237,0.23082 0.166182,0.33237 l 0.221577,0.33236 c 0.22156,0.33238 0.387743,0.62781 0.498548,0.88631 0.22156,0.27698 0.369277,0.53548 0.443154,0.77552 0.230791,0.29544 0.396973,0.55395 0.498547,0.77552 0.129235,0.21235 0.221559,0.39699 0.276971,0.55394 l 0.110789,0.16618 0.110788,0.22158 0.166183,0.16618 0.387759,0.72012 c 0.120002,0.19389 0.212325,0.36007 0.276971,0.49855 l 0.110788,0.16618 0.05539,0.11079 0.110788,0.11079 0.05539,0.16618 c 0.341578,0.50779 0.581619,0.95094 0.720125,1.32946 l -0.38776,0 -0.775518,0 -0.166183,0 -0.997095,0 -0.720125,0 -0.221577,0 -0.941701,0 -0.166183,0 -0.66473,0 -0.05539,-0.11078 -0.110789,-0.11079 -0.05539,-0.11079 -0.387759,-0.66473 -0.0554,-0.16618 c -0.175429,-0.21234 -0.286217,-0.41546 -0.332365,-0.60934 -0.221591,-0.2308 -0.369308,-0.47085 -0.443153,-0.72012 -0.221591,-0.27697 -0.369309,-0.53548 -0.443154,-0.77552 l -0.166183,-0.22158 -0.166182,-0.33237 -0.110789,-0.22157 c -0.230821,-0.27697 -0.397004,-0.51701 -0.498547,-0.72013 -0.129266,-0.28619 -0.258519,-0.52623 -0.38776,-0.72012 l -0.05539,-0.16618 c -0.212356,-0.2308 -0.360074,-0.47085 -0.443154,-0.72013 l -0.110788,-0.16618 -0.05539,-0.16618 -0.110789,-0.0554 -0.166182,-0.38776 c -0.04617,-0.0369 -0.06464,-0.0738 -0.05539,-0.11079 -0.276982,-0.36005 -0.480094,-0.69241 -0.609337,-0.99709 l -0.221576,0 -0.609336,0 -0.276971,0 -0.166183,0 -0.221577,0 -0.166182,0 -1.107884,0 0,8.25373 -0.720125,0 -0.221577,0 -0.997095,0 -0.221577,0 -0.221577,0 -0.221577,0 -0.941701,0 -0.166183,0 -0.66473,0 0,-0.22157 0,-0.9971 0,-0.44315 0,-0.44316 0,-0.16618 0,-0.22157 0,-0.9971 0,-0.16618 0,-1.10789 0,-0.44315 0,-0.22158 0,-0.99709 0,-0.16619 0,-0.16618 0,-1.71722 0,-0.38776 0,-0.16618 0,-0.22158 0,-0.99709 0,-0.77552 0,-0.16618 0,-0.27697 0,-0.16619 0,-0.22157 0,-0.16619 0,-1.10788 0,-0.9417 0,-0.16618 0,-0.66473 0,-0.72013 0,-0.22158 0,-0.9417 0,-0.16618 0,-0.66473 0,-0.60934 0,-0.27697 0,-0.72012 0,-0.22158 0,-0.9417 0,-0.16618 0,-0.66473 z m 3.932989,8.97386 0.276971,0 0.387759,0 0.775519,0 0.166182,0 0.997096,0 0.720124,0 0.221577,0 0.941702,0 0.166182,0 0.664731,0 0.66473,-0.16619 c 1.098637,-0.68318 1.578719,-1.60641 1.440249,-2.76971 -0.267753,-0.83089 -0.747836,-1.44023 -1.440249,-1.828 l -0.166183,0 -0.110788,-0.0554 -0.720125,-0.16618 -0.276971,0 -0.775518,0 -0.276971,0 -0.221577,0 -0.997096,0 -0.221576,0 -0.221577,0 -0.221577,0 -0.941701,0 -0.166183,0 -0.66473,0 z"
           style=""
           id="path2915" />
        <path
           d="m 90.517581,218.83749 0.166183,0 1.107884,0 0,3.98838 c -2.132686,-0.27695 -3.665257,0.40624 -4.597719,2.04959 l 0,0.16618 c -0.166188,0.43393 -0.240047,0.85862 -0.221576,1.27407 l 0,7.86597 -0.941702,0 -0.221577,0 -0.276971,0 -0.720124,0 -0.221577,0 -0.941701,0 -0.166183,0 -0.66473,0 0,-0.16618 0,-0.27697 0,-0.16618 0,-0.22158 0,-0.16618 0,-1.10789 0,-0.38775 0,-1.10789 0,-0.44315 0,-0.44316 0,-0.44315 0,-0.44315 0,-1.10789 0,-0.16618 0,-0.16618 0,-1.71722 0,-0.38776 0,-0.33237 0,-0.38776 0,-0.33236 0,-0.27697 0,-0.33237 0,-0.22157 0,-0.9971 0,-0.60934 0,-0.22157 0,-0.22158 0,-0.22158 0,-0.22157 0,-0.9417 0,-0.16619 0,-0.66473 0.941701,0 0.221577,0 0.276971,0 0.720124,0 0.221577,0 0.941702,0 0.166182,0 0.664731,0 0,1.44025 c 0.978623,-0.98784 2.086506,-1.56025 3.323651,-1.71722 z"
           style=""
           id="path2917" />
        <path
           d="m 95.669241,219.05907 0.276971,0 0.221577,0 0.276971,0 0.221577,0 0.276971,0 0.720125,0 0.221576,0 0.941702,0 0.443153,0 0.38776,0 0.05539,9.91556 c 0.969392,1.86494 2.372712,2.27117 4.209962,1.21867 0.55393,-0.44314 0.94169,-0.96016 1.16328,-1.55104 l 0,-0.16618 0,-1.10788 0,-0.38776 0,-0.38776 0,-0.22158 0,-0.27697 0,-0.72012 0,-0.22158 0,-0.9417 0,-0.16618 0,-0.66473 0,-0.22158 0,-0.22158 0,-0.16618 0,-0.9971 0,-0.72012 0,-0.22158 0,-0.9417 0,-0.16618 0,-0.66473 1.10788,0 0.27697,0 0.16618,0 0.22158,0 0.22158,0 0.22157,0 0.22158,0 0.9417,0 0.16618,0 0.66473,0 0,15.12261 -1.10788,0 -0.27697,0 -0.16618,0 -0.22158,0 -0.22158,0 -0.22157,0 -0.22158,0 -0.9417,0 -0.16618,0 -0.66473,0 0,-0.99709 c -2.19732,1.58797 -4.39462,1.77262 -6.591914,0.55394 -0.9971,-0.63703 -1.735688,-1.39408 -2.215768,-2.27116 l -0.110789,-0.0554 -0.05539,-0.16618 -0.05539,-0.16618 c -0.08309,-0.18464 -0.138488,-0.33236 -0.166183,-0.44315 l -0.05539,-0.16619 c -0.175417,-0.5724 -0.286205,-1.03401 -0.332365,-1.38485 l -0.05539,-1.21867 0,-0.38776 0,-0.33237 0,-0.9417 0,-0.16618 0,-0.66473 0,-0.72013 0,-0.22157 0,-0.94171 0,-0.16618 0,-0.66473 0,-0.60934 0,-0.27697 0,-0.72012 0,-0.22158 0,-0.9417 0,-0.16618 0,-0.66473 z"
           style=""
           id="path2919" />
        <path
           d="m 118.76862,218.83749 c 1.53257,-0.0923 2.86203,0.2216 3.98839,0.9417 0.0646,-0.27695 0.0831,-0.51699 0.0554,-0.72012 l 0.9417,0 0.22158,0 0.27697,0 0.72012,0 0.22158,0 0.9417,0 0.16619,0 0.66473,0 0,14.56867 -0.0554,0.16619 c -0.009,0.47085 -0.0831,0.87707 -0.22158,1.21867 -0.0554,0.25851 -0.1108,0.46162 -0.16618,0.60933 l -0.11079,0.11079 c -0.33238,0.77552 -0.77553,1.40332 -1.32946,1.8834 l -0.16618,0.11079 -0.16618,0.0554 c -0.0923,0.12002 -0.20313,0.21234 -0.33237,0.27697 l -0.16618,0.0554 c -0.0369,0.0462 -0.0739,0.0646 -0.11079,0.0554 l -0.11079,0.11079 -0.16618,0.0554 -0.66473,0.33236 c -3.84067,0.9417 -7.31204,0.51702 -10.41411,-1.27406 l 0.0554,-0.22158 0.49854,-0.77552 0.0554,-0.16618 0.0554,-0.11079 0.0554,-0.11079 0.11078,-0.22157 0.11079,-0.16619 c 0.20311,-0.30466 0.35083,-0.56317 0.44316,-0.77552 l 0.0554,-0.11078 0.11079,-0.11079 c 0.12002,-0.25851 0.2308,-0.46162 0.33236,-0.60934 0.3416,0.12003 0.61857,0.26774 0.83092,0.44316 2.04034,0.90477 4.053,1.16328 6.03796,0.77551 0.16618,-0.13848 0.33236,-0.2308 0.49855,-0.27697 0.12001,-0.17541 0.24927,-0.30466 0.38776,-0.38776 l 0.0554,-0.11078 0.22157,-0.38776 0.11079,-0.38776 0,-0.9971 c -2.5943,1.10789 -4.95779,1.01556 -7.09046,-0.27697 -1.96649,-1.27406 -3.00052,-3.02821 -3.10207,-5.26245 -0.20311,-4.95776 1.84647,-7.72747 6.14875,-8.30913 z m 0.49855,3.71141 c -1.52334,0.42471 -2.33579,1.40334 -2.43734,2.9359 -0.28621,1.53258 0.0831,2.75125 1.10788,3.65601 0.97862,0.58165 1.97572,0.72937 2.99129,0.44316 1.55102,-0.35083 2.17883,-1.93879 1.8834,-4.76391 -0.49856,-1.68027 -1.6803,-2.43733 -3.54523,-2.27116 z"
           style=""
           id="path2921" />
        <path
           d="m 136.43937,218.7267 c 4.51461,-0.0646 7.08121,2.1327 7.69979,6.59191 l 0.16618,0.72013 0,0.38776 c 0.0738,0.6555 0.0923,1.19098 0.0554,1.60643 l -0.16618,-0.0554 -0.16619,0 -1.10788,0 -0.16618,0 -0.16619,0 -1.71722,0 -0.38776,0 -0.33236,0 -0.38776,0 -0.33237,0 -0.27697,0 -0.33236,0 -0.22158,0 -0.99709,0 -0.60934,0 -0.22158,0 -0.22157,0 -0.22158,0 -0.22158,0 -0.9417,0 -0.16618,0 -0.66473,0 c 0.2031,1.60644 1.03402,2.56661 2.49274,2.8805 1.81876,0.27698 3.33287,-0.18464 4.54232,-1.38485 l 0.44315,0.49855 c 0.17541,0.12002 0.30466,0.24928 0.38776,0.38775 l 0.11079,0.0554 0.0554,0.11079 c 0.18463,0.13849 0.33235,0.26774 0.44315,0.38776 l 0.11079,0.16618 c 0.0646,0.0369 0.10154,0.0739 0.11079,0.11079 l 0.11079,0.0554 0.11078,0.11079 0.0554,0.11079 0.11079,0.0554 0.0554,0.11079 c 0.18463,0.13849 0.33235,0.26775 0.44315,0.38776 -1.74493,2.21577 -4.14534,3.04668 -7.20124,2.49274 -3.73911,-0.63703 -5.86256,-2.90819 -6.37033,-6.81349 -0.33237,-4.94853 1.69875,-7.93981 6.09336,-8.97386 z m 0.9417,3.43444 c -1.69876,0.26776 -2.69586,1.17253 -2.99129,2.71432 l 0.33237,0 0.38776,0 0.72012,0 1.71722,0 0.77552,0 0.16618,0 0.27697,0 0.16619,0 0.22157,0 0.16619,0 1.10788,0 c -0.41547,-1.66181 -1.43103,-2.56658 -3.04668,-2.71432 z"
           style=""
           id="path2923" />
        <path
           d="m 62.155751,241.43832 0.221577,0 0.276971,0 0.720125,0 0.221577,0 0.941701,0 0.443154,0 0.387759,0 0,11.24503 0.221577,-0.22158 0.221577,-0.22158 0.166182,-0.22157 0.110789,-0.11079 0.110788,-0.0554 c 0.138479,-0.18463 0.267732,-0.33235 0.387759,-0.44315 l 0.110789,-0.0554 c 0.18464,-0.2585 0.387751,-0.46161 0.609336,-0.60934 l 0.166183,-0.16618 c 0.184639,-0.25849 0.38775,-0.46161 0.609336,-0.60934 0.120012,-0.1754 0.249265,-0.30465 0.387759,-0.38776 0.120012,-0.1754 0.249265,-0.30465 0.387759,-0.38776 l 0.0554,-0.11079 0.110788,-0.0554 c 0.138476,-0.18463 0.267729,-0.33235 0.387759,-0.44315 l 0.166183,-0.11079 c 0.03692,-0.0646 0.07385,-0.10154 0.110788,-0.11079 l 0.0554,-0.11079 0.110788,-0.11079 0.110788,-0.0554 0.05539,-0.11079 0.110788,-0.0554 c 0.138475,-0.18463 0.267728,-0.33235 0.387759,-0.44316 l 0.332366,0 0.720124,0 0.221577,0 0.997096,0 0.609336,0 0.221577,0 0.221576,0 0.221577,0 0.221577,0 0.941701,0 0.443154,0 0.387759,0 -0.221576,0.33237 -0.276971,0.22157 -0.221577,0.27698 -0.720125,0.72012 -0.110788,0.0554 c -0.184662,0.24929 -0.36931,0.43394 -0.553942,0.55395 -0.184662,0.24929 -0.369309,0.43393 -0.553942,0.55394 l -0.05539,0.11079 -0.110789,0.11078 -0.110788,0.11079 -0.110789,0.0554 c -0.03694,0.0646 -0.07387,0.10157 -0.110788,0.11079 l -0.609336,0.66473 -0.553942,0.49854 -0.166183,0.22158 -0.166182,0.11079 -0.110789,0.16618 -0.166182,0.11079 c -0.120033,0.17543 -0.249286,0.30468 -0.38776,0.38776 -0.258517,0.36007 -0.517023,0.63704 -0.775519,0.83091 l 0.05539,0.16619 0.110788,0.0554 0.221577,0.38776 0.05539,0.11079 c 0.129242,0.16619 0.221566,0.31391 0.276971,0.44315 0.276959,0.36931 0.480071,0.68321 0.609336,0.9417 l 0.221577,0.33237 0.166183,0.33236 0.221576,0.22158 0.0554,0.11079 0.443153,0.77552 c 0.08308,0.0923 0.138473,0.18465 0.166183,0.27697 0.193866,0.22158 0.341584,0.42469 0.443153,0.60933 l 0.166183,0.27697 0.110788,0.16619 0.0554,0.11079 c 0.129239,0.17542 0.221562,0.32313 0.276971,0.44315 0.138471,0.16619 0.230794,0.33237 0.276971,0.49855 l 0.166182,0.16618 0.110789,0.16618 0.110788,0.22158 0.110788,0.11079 0.0554,0.16618 0.221576,0.38776 0.110789,0.0554 0.05539,0.16619 0.221577,0.38776 c 0.240025,0.25851 0.406208,0.51701 0.498548,0.77551 l -0.332366,0 -1.71722,0 -0.775519,0 -0.166182,0 -0.276971,0 -0.166183,0 -0.221577,0 -0.166182,0 -1.107884,0 -0.553942,-0.83091 -0.110789,-0.27697 c -0.267748,-0.29543 -0.452396,-0.5724 -0.553942,-0.83091 l -0.221576,-0.27697 -0.110789,-0.27697 -0.221577,-0.27698 -0.110788,-0.22157 c -0.184656,-0.23081 -0.313909,-0.45238 -0.387759,-0.66473 l -0.166183,-0.22158 -0.332365,-0.44315 -0.110788,-0.16619 -0.0554,-0.16618 -0.110788,-0.16618 -0.110788,-0.11079 c -0.175423,-0.36005 -0.36007,-0.65549 -0.553942,-0.88631 l -0.276971,0.27697 c -0.129261,0.17543 -0.240049,0.30468 -0.332366,0.38776 l -0.166182,0.16619 -0.110789,0.11078 -0.110788,0.0554 c -0.175421,0.24928 -0.360069,0.45239 -0.553942,0.60934 l 0,4.20995 -0.941701,0 -0.221577,0 -0.276971,0 -0.720125,0 -0.221577,0 -0.941701,0 -0.166183,0 -0.66473,0 0,-0.44315 0,-1.10788 0,-0.44316 0,-0.16618 0,-0.22158 0,-0.99709 0,-0.16618 0,-1.10789 0,-0.44315 0,-0.22158 0,-0.99709 0,-0.16619 0,-0.16618 0,-1.71722 0,-0.38776 0,-0.16618 0,-0.22158 0,-0.99709 0,-0.77552 0,-0.16619 0,-0.27697 0,-0.16618 0,-0.22158 0,-0.16618 0,-1.10788 0,-0.9417 0,-0.16619 0,-0.66473 0,-0.72012 0,-0.22158 0,-0.9417 0,-0.16618 0,-0.66473 0,-0.60934 0,-0.27697 0,-0.72012 0,-0.22158 0,-0.9417 0,-0.16619 0,-0.66473 z"
           style=""
           id="path2925" />
        <path
           d="m 83.427123,246.81156 c 2.529659,-0.16616 4.634637,0.46164 6.314939,1.8834 l 0.05539,0.11079 c 0.147705,0.18467 0.258493,0.36931 0.332365,0.55394 0.193866,0.28622 0.323119,0.54473 0.38776,0.77552 l 0,0.22158 c 0.110774,0.36008 0.166168,0.67398 0.166182,0.9417 l 0,5.42863 c -0.03694,0.91402 -1.4e-5,1.67107 0.110789,2.27117 0.452371,0.47085 0.969383,0.76629 1.551037,0.8863 l -0.110788,0.16619 -0.110788,0.27697 -0.110789,0.22157 -0.05539,0.16619 -0.05539,0.16618 -0.110789,0.16618 -0.221576,0.55394 -0.110789,0.16619 -0.05539,0.16618 -0.05539,0.16618 -0.05539,0.11079 -0.38776,0.83091 c -1.643374,0.009 -2.88051,-0.50778 -3.711411,-1.55104 -1.578744,1.56951 -3.536004,1.95727 -5.871785,1.16328 -2.151144,-0.59087 -3.406745,-1.90186 -3.766806,-3.93299 0.01846,-2.98204 1.421782,-4.71772 4.209959,-5.20705 0.147713,-0.0923 0.295431,-0.14771 0.443154,-0.16618 l 0.166183,0 c 0.05539,-0.0369 0.110782,-0.0554 0.166182,-0.0554 l 0.166183,-0.0554 0.997095,-0.16618 0.443154,-0.0554 0.166183,-0.0554 0.941701,-0.0554 c 0.498538,-0.0738 0.904762,-0.0923 1.218672,-0.0554 0.138476,-2.0588 -0.987872,-2.76046 -3.379046,-2.10498 l -0.166182,0.0554 -0.443154,0.0554 -0.387759,0.16618 -0.166183,0.0554 -0.553942,0.16618 c -0.286208,0.19389 -0.544714,0.32314 -0.775519,0.38776 -0.313904,0.24005 -0.627804,0.40623 -0.941701,0.49854 l -0.38776,-0.72012 -0.110788,-0.0554 -0.05539,-0.16619 -0.110789,-0.11078 -0.05539,-0.16619 c -0.240044,-0.27695 -0.406226,-0.53546 -0.498548,-0.77552 -0.147719,-0.13847 -0.240043,-0.28618 -0.276971,-0.44315 -0.240043,-0.23079 -0.38776,-0.47083 -0.443153,-0.72012 l 0.110788,-0.0554 0.166183,-0.11079 0.110788,-0.0554 c 0.249272,-0.16617 0.470849,-0.29542 0.664731,-0.38776 0.147715,-0.10154 0.295433,-0.15693 0.443153,-0.16618 l 0.110789,-0.11079 c 0.341594,-0.15693 0.637029,-0.26772 0.886307,-0.33237 l 0.110788,-0.11079 0.166183,0 c 0.175411,-0.11077 0.323128,-0.18462 0.443153,-0.22157 l 0.166183,0 c 0.249269,-0.12924 0.48931,-0.2031 0.720125,-0.22158 0.507774,-0.21232 0.987856,-0.32311 1.440249,-0.33236 l 0.166182,-0.0554 z m 2.658922,9.14004 -0.166183,0 c -0.221586,0.0646 -0.406233,0.10157 -0.553942,0.11079 l -0.166182,0 c -0.0554,0.0369 -0.110797,0.0554 -0.166183,0.0554 l -0.221577,0.0554 -0.166182,0 -0.221577,0.0554 -0.332365,0.0554 c -0.0554,0.0369 -0.110796,0.0554 -0.166183,0.0554 l -0.221577,0.0554 -0.166182,0.0554 c -0.517019,0.12926 -0.923243,0.25852 -1.218673,0.38776 -0.387764,0.51702 -0.498553,1.0525 -0.332365,1.60643 0.92323,1.29254 2.25269,1.51412 3.988383,0.66473 l 0.443153,-0.66473 0.05539,-0.22157 0,-0.22158 0,-0.16618 0,-0.27697 0,-0.16619 0,-0.22157 0,-0.16619 0,-1.10788 -0.166182,0 z"
           style=""
           id="path2927" />
        <path
           d="m 95.115302,241.43832 0.276971,0 0.221577,0 0.276971,0 0.221577,0 0.276971,0 0.720124,0 0.221577,0 0.941701,0 0.443154,0 0.387759,0 0,16.83984 c 0.5724,0.67397 1.384846,0.82169 2.437346,0.44315 l 0.0554,0.22158 0,0.27697 c 0.0462,0.20312 0.0646,0.40623 0.0554,0.60934 0.0646,0.23081 0.10154,0.43393 0.11079,0.60933 l 0.0554,0.49855 0,0.22158 c 0.0369,0.0554 0.0554,0.11079 0.0554,0.16618 l 0.11079,1.10789 -0.22157,0 -0.16619,0.0554 -0.22157,0.0554 -0.38776,0.0554 -0.16619,0 c -0.41546,0.10156 -0.76629,0.15695 -1.052485,0.16618 -2.465046,0.49855 -4.071477,-0.29543 -4.819296,-2.38195 -0.0092,-0.18464 -0.0277,-0.33236 -0.05539,-0.44315 l 0,-0.16619 0,-1.10788 0,-0.22158 0,-0.27697 0,-0.22157 0,-0.27698 0,-0.72012 0,-0.22158 0,-0.9417 0,-0.16618 0,-0.66473 0,-0.22158 0,-0.27697 0,-0.72012 0,-0.22158 0,-0.9417 0,-0.16618 0,-0.66473 0,-0.38776 0,-0.44316 0,-0.44315 0,-0.44315 0,-0.16619 0,-0.16618 0,-1.71722 0,-0.38776 0,-0.33236 0,-0.38776 0,-0.33237 0,-0.27697 0,-0.33237 0,-0.22157 0,-0.9971 0,-0.60933 0,-0.22158 0,-0.22158 0,-0.22157 0,-0.22158 0,-0.9417 0,-0.16619 0,-0.66473 z"
           style=""
           id="path2929" />
        <path
           d="m 105.97256,241.27214 c 1.52334,-0.0277 2.46504,0.63706 2.82511,1.99419 0.0277,1.04328 -0.32314,1.85573 -1.05249,2.43735 -1.67107,0.66475 -2.85281,0.25852 -3.54523,-1.21867 -0.3693,-1.66181 0.22157,-2.73276 1.77261,-3.21287 z m -0.66473,6.20415 0.22158,0 0.27697,0 0.72012,0 0.22158,0 0.9417,0 0.44316,0 0.38776,0 0,15.12262 -0.77552,0 -0.60934,0 -0.27697,0 -0.16618,0 -0.22158,0 -0.16618,0 -1.10789,0 -0.16618,0 -0.66473,0 0,-0.16618 0,-0.27698 0,-0.16618 0,-0.22157 0,-0.16619 0,-1.10788 0,-0.38776 0,-0.22158 0,-0.27697 0,-0.22158 0,-0.27697 0,-0.72012 0,-0.22158 0,-0.9417 0,-0.16618 0,-0.66473 0,-0.38776 0,-0.38776 0,-0.33237 0,-0.38776 0,-0.33236 0,-0.38776 0,-0.33236 0,-0.94171 0,-0.33236 0,-0.27697 0,-0.33237 0,-0.22157 0,-0.9971 0,-0.60934 0,-0.22157 0,-0.22158 0,-0.22158 0,-0.22157 0,-0.9417 0,-0.16619 0,-0.66473 z"
           style=""
           id="path2931" />
        <path
           d="m 119.87651,247.03314 c 2.01264,-0.1754 3.48982,0.48933 4.43153,1.99419 1.90185,-2.01264 4.04376,-2.51118 6.42573,-1.49564 1.45869,0.65551 2.52964,1.63414 3.21286,2.93589 l 0,0.16618 c 0.0461,0.037 0.0646,0.0739 0.0554,0.11079 0.0461,0.0369 0.0646,0.0739 0.0554,0.11079 l 0.33237,1.05249 0,0.16618 c 0.0738,0.4247 0.11076,0.794 0.11078,1.10788 l 0,9.36162 -0.9417,0 -0.22157,0 -0.27698,0 -0.72012,0 -0.22158,0 -0.9417,0 -0.16618,0 -0.66473,0 0,-0.27697 0,-0.72012 0,-0.22158 0,-0.22157 0,-0.22158 0,-0.9417 0,-0.16619 0,-0.66473 0,-0.77551 0,-0.38776 0,-0.77552 0,-0.16619 0,-0.99709 0,-0.72013 0,-0.22157 0,-0.9417 0,-0.16619 0,-0.66473 c -0.0739,-0.26772 -0.11081,-0.4893 -0.11079,-0.66473 -0.0554,-0.11077 -0.0923,-0.22156 -0.11079,-0.33236 -0.1385,-0.16617 -0.23083,-0.33235 -0.27697,-0.49855 l -0.11079,-0.0554 -0.0554,-0.11079 c -0.26776,-0.26773 -0.5078,-0.47084 -0.72013,-0.60934 -1.50489,-0.2031 -2.57584,0.38777 -3.21286,1.77262 l -0.0554,0.38775 -0.0554,0.38776 0,8.97386 -0.22157,0 -0.16619,0 -0.99709,0 -0.72013,0 -0.22157,0 -0.94171,0 -0.16618,0 -0.66473,0 0,-0.27697 0,-0.16618 0,-0.72012 0,-0.22158 0,-0.22158 0,-0.22157 0,-0.16619 0,-0.22157 0,-0.9971 0,-0.22158 0,-0.22157 0,-0.16619 0,-0.22157 0,-0.9971 0,-0.22157 0,-0.22158 0,-0.22158 0,-0.22158 0,-0.16618 0,-0.72012 0,-0.55394 0,-0.72013 0,-0.55394 0,-0.16618 -0.0554,-0.38776 -0.16619,-0.9971 c -0.397,-0.71088 -0.93247,-1.19096 -1.60643,-1.44025 -1.22791,0.10157 -2.13268,0.65551 -2.71431,1.66183 -0.1108,0.40624 -0.16619,0.75706 -0.16619,1.05249 l 0,8.91846 -0.9417,0 -0.22157,0 -0.27697,0 -0.72013,0 -0.22158,0 -0.9417,0 -0.16618,0 -0.66473,0 0,-0.16618 0,-0.27697 0,-0.16618 0,-0.22158 0,-0.16618 0,-1.10789 0,-0.38775 0,-0.22158 0,-0.27697 0,-0.22158 0,-0.27697 0,-0.72012 0,-0.22158 0,-0.9417 0,-0.16619 0,-0.66473 0,-0.38776 0,-0.38775 0,-0.33237 0,-0.38776 0,-0.33236 0,-0.38776 0,-0.33237 0,-0.9417 0,-0.33237 0,-0.27697 0,-0.33236 0,-0.22158 0,-0.99709 0,-0.60934 0,-0.22158 0,-0.22157 0,-0.22158 0,-0.22158 0,-0.9417 0,-0.16618 0,-0.66473 0.9417,0 0.22158,0 0.27697,0 0.72012,0 0.22158,0 0.9417,0 0.44315,0 0.38776,0 0,0.99709 c 0.95093,-0.75703 1.96649,-1.21865 3.04669,-1.38485 z"
           style=""
           id="path2933" />
        <path
           d="m 140.20618,241.27214 c 1.52333,-0.0277 2.46503,0.63706 2.8251,1.99419 0.0277,1.04328 -0.32314,1.85573 -1.05249,2.43735 -1.67106,0.66475 -2.8528,0.25852 -3.54523,-1.21867 -0.36929,-1.66181 0.22158,-2.73276 1.77262,-3.21287 z m -0.66473,6.20415 0.22157,0 0.27698,0 0.72012,0 0.22158,0 0.9417,0 0.44315,0 0.38776,0 0,15.12262 -0.77552,0 -0.60933,0 -0.27697,0 -0.16619,0 -0.22157,0 -0.16619,0 -1.10788,0 -0.16618,0 -0.66473,0 0,-0.16618 0,-0.27698 0,-0.16618 0,-0.22157 0,-0.16619 0,-1.10788 0,-0.38776 0,-0.22158 0,-0.27697 0,-0.22158 0,-0.27697 0,-0.72012 0,-0.22158 0,-0.9417 0,-0.16618 0,-0.66473 0,-0.38776 0,-0.38776 0,-0.33237 0,-0.38776 0,-0.33236 0,-0.38776 0,-0.33236 0,-0.94171 0,-0.33236 0,-0.27697 0,-0.33237 0,-0.22157 0,-0.9971 0,-0.60934 0,-0.22157 0,-0.22158 0,-0.22158 0,-0.22157 0,-0.9417 0,-0.16619 0,-0.66473 z"
           style=""
           id="path2935" />
      </g>
    </g>
    <g
       id="g2881"
       style="font-stretch:normal;text-align:center;writing-mode:lr-tb;text-anchor:middle;fill:#000000;fill-opacity:1;stroke:none;-inkscape-font-specification:'Transport Heavy,'"
       transform="matrix(2.028,0,0,2.028,-551.16273,-148.30518)">
      <g
         style="font-size:18.22735977px;font-style:normal;font-variant:normal;font-weight:normal;line-height:100%;fill:#000000;font-family:Transport Heavy;-inkscape-font-specification:'Transport Heavy,'"
         id="text2883">
        <path
           d="m 302.31961,209.4951 0.1424,0 0.64081,0 0.1424,0 0.1424,0 0.1424,0 0.60521,0 0.1068,0 0.4272,0 0,4.62804 0.21361,-0.178 0.0356,-0.1068 0.2492,-0.2136 c 0.0237,-0.0415 0.0475,-0.0653 0.0712,-0.0712 l 0.0356,-0.0712 0.4628,-0.53401 0.178,-0.1424 0.10681,-0.178 0.0712,-0.0712 0.0712,-0.0712 0.0712,-0.0712 0.0712,-0.0712 0.0712,-0.1068 0.0712,-0.0356 0.4628,-0.53401 0.1424,-0.1068 0.10681,-0.1424 0.1068,-0.1424 0.1424,-0.1068 0.1068,-0.1424 c 0.0237,-0.0415 0.0475,-0.0653 0.0712,-0.0712 l 0.1068,-0.10681 0.0356,-0.0712 c 0.0831,-0.10678 0.16613,-0.18985 0.2492,-0.2492 0.1602,-0.23139 0.32633,-0.40939 0.49841,-0.534 0.14239,-0.20766 0.27292,-0.37379 0.3916,-0.49841 l 0.178,0 0.1068,0 0.71201,0 0.4628,0 0.1424,0 0.64081,0 0.1424,0 0.1424,0 0.1424,0 0.60521,0 0.1068,0 0.4272,0 -0.0712,0.1068 -0.0712,0.1068 -0.1068,0.10681 -0.0712,0.0712 c -0.11868,0.14241 -0.22548,0.24921 -0.3204,0.3204 -0.0712,0.10681 -0.14242,0.18988 -0.2136,0.2492 l -0.0356,0.0712 -0.0712,0.0356 c -0.17208,0.23142 -0.32635,0.40942 -0.46281,0.53401 l -0.178,0.178 -0.4628,0.534 -0.14241,0.1424 -0.1068,0.14241 -0.178,0.1424 -0.0712,0.1424 -0.1068,0.1068 -0.3916,0.4272 -0.1424,0.1424 -0.10681,0.14241 -0.1424,0.1068 -0.0712,0.1068 c -0.089,0.12461 -0.18394,0.21954 -0.2848,0.2848 -0.0237,0.0415 -0.0475,0.0653 -0.0712,0.0712 l -0.0356,0.1068 -0.1068,0.1068 -0.0712,0.0712 -0.0712,0.0712 -0.0712,0.0712 -0.0712,0.1068 -0.56961,0.56961 c 0.0356,0.10088 0.0831,0.18394 0.1424,0.2492 l 0.1068,0.2492 0.1424,0.21361 c 0.0534,0.0593 0.089,0.11867 0.10681,0.178 0.0712,0.0593 0.13052,0.13054 0.178,0.2136 l 0.0356,0.1068 c 0.15426,0.19581 0.27292,0.37381 0.356,0.53401 l 0.1424,0.2136 0.0356,0.1068 0.0712,0.0356 0.32041,0.5696 0.0712,0.0712 0.1424,0.24921 c 0.10085,0.13647 0.17206,0.25514 0.2136,0.356 l 0.1424,0.178 0.64081,1.03241 c 0.13645,0.18394 0.23139,0.35007 0.2848,0.4984 0.0415,0.0237 0.0652,0.0475 0.0712,0.0712 l 0.3204,0.46281 0.2492,0.4272 0.1068,0.1424 0.0712,0.17801 c 0.0356,0.0297 0.0593,0.0653 0.0712,0.1068 l 0.0712,0.1068 c 0.14832,0.18394 0.25512,0.35007 0.3204,0.4984 l 0.1424,0.2492 0.0712,0.0356 0.0356,0.10681 c 0.0297,0.0237 0.0415,0.0475 0.0356,0.0712 0.20766,0.2314 0.35006,0.46874 0.42721,0.712 l -0.49841,0 -0.4628,0 -0.1424,0 -0.64081,0 -0.1424,0 -0.1424,0 -0.1424,0 -0.60521,0 -0.1068,0 -0.4272,0 -0.1068,-0.2136 c -0.0356,-0.0297 -0.0593,-0.0653 -0.0712,-0.1068 -0.0416,-0.0237 -0.0653,-0.0475 -0.0712,-0.0712 l -0.0356,-0.1068 c -0.0356,-0.0297 -0.0593,-0.0653 -0.0712,-0.1068 -0.0949,-0.089 -0.15427,-0.18394 -0.178,-0.28481 -0.0415,-0.0237 -0.0653,-0.0475 -0.0712,-0.0712 l -0.0356,-0.0712 -0.2848,-0.3916 -0.0356,-0.1068 -0.39161,-0.60521 c -0.0475,-0.0771 -0.0831,-0.14833 -0.1068,-0.2136 -0.0415,-0.0237 -0.0653,-0.0475 -0.0712,-0.0712 l -0.3204,-0.4628 -0.1068,-0.21361 -0.1068,-0.1424 -0.0356,-0.1068 c -0.15428,-0.17799 -0.26108,-0.34413 -0.3204,-0.4984 l -0.10681,-0.1068 -0.2492,-0.46281 c -0.0356,-0.0297 -0.0593,-0.0653 -0.0712,-0.1068 l -0.178,-0.2136 -0.0712,-0.1068 -0.0356,-0.1424 -0.0712,-0.0356 -0.0356,-0.1068 -0.1424,-0.24921 c -0.15428,-0.16612 -0.26108,-0.33226 -0.32041,-0.4984 l -0.1424,-0.1068 -0.0712,0.1424 -0.1068,0.0712 -0.0712,0.1068 -0.0712,0.0712 -0.0712,0.1068 -0.1068,0.0712 -0.0356,0.0712 c -0.13054,0.1246 -0.22548,0.2314 -0.2848,0.3204 l -0.28481,0.2848 0,4.73484 -0.4628,0 -0.1424,0 -0.64081,0 -0.1424,0 -0.1424,0 -0.1424,0 -0.60521,0 -0.1068,0 -0.4272,0 0,-0.1068 0,-0.1424 0,-0.1068 0,-0.1424 0,-0.64081 0,-0.2848 0,-0.2848 0,-0.1068 0,-0.71201 0,-0.1424 0,-0.178 0,-0.1424 0,-0.17801 0,-0.4628 0,-0.1424 0,-0.60521 0,-0.1068 0,-0.4272 0,-0.1424 0,-0.178 0,-0.46281 0,-0.1424 0,-0.6052 0,-0.10681 0,-0.4272 0,-0.2492 0,-0.2848 0,-0.28481 0,-0.2848 0,-0.1068 0,-0.1068 0,-1.10361 0,-0.2492 0,-0.2136 0,-0.24921 0,-0.2136 0,-0.178 0,-0.2136 0,-0.1424 0,-0.64081 0,-0.3916 0,-0.1424 0,-0.1424 0,-0.14241 0,-0.1424 0,-0.6052 0,-0.1068 0,-0.42721 z"
           style=""
           id="path2892" />
        <path
           d="m 320.40457,209.1035 c 4.02876,0.0297 6.33091,2.0945 6.90646,6.19445 0.25512,3.67871 -1.03835,6.19446 -3.88043,7.54727 -2.74717,0.99681 -5.08492,0.60521 -7.01326,-1.17481 -2.05296,-2.31402 -2.62256,-4.97217 -1.70882,-7.97447 0.99681,-2.85394 2.89549,-4.38476 5.69605,-4.59244 z m 0.0712,2.70562 c -2.27842,0.43315 -3.3227,2.0945 -3.13283,4.98405 0.089,1.70882 0.78914,2.91923 2.10042,3.63123 l 0.1068,0 c 0.11273,0.0653 0.21953,0.10087 0.32041,0.1068 l 0.0712,0.0356 0.4272,0.1068 c 2.50388,-0.0237 3.80922,-1.30534 3.91604,-3.84483 0.21952,-3.26335 -1.05022,-4.93657 -3.80924,-5.01965 z"
           style=""
           id="path2894" />
        <path
           d="m 330.72866,209.4595 0.1068,0 0.71201,0 0.1424,0 0.1068,0 0.64081,0 0.4628,0 0.1424,0 0.60521,0 0.1068,0 0.4272,0 0.1424,0.2136 0.0712,0.10681 0.0712,0.1068 0.14241,0.2136 c 0.18392,0.21361 0.31446,0.40348 0.3916,0.5696 0.0534,0.0594 0.089,0.11869 0.1068,0.178 l 0.1068,0.14241 0.1424,0.1424 0.0712,0.1424 0.1068,0.178 0.0712,0.0712 0.0356,0.1068 c 0.1246,0.11868 0.21953,0.23735 0.28481,0.356 l 0.0712,0.14241 0.1424,0.1424 0.1068,0.178 0.0356,0.1068 c 0.12459,0.13055 0.21953,0.24921 0.2848,0.356 l 0.0356,0.0712 c 0.0831,0.10682 0.1424,0.20175 0.178,0.28481 l 0.0712,0.0712 0.14241,0.2492 0.0712,0.0356 0.0356,0.1068 c 0.14832,0.17208 0.25512,0.32635 0.3204,0.4628 l 0.1068,-0.0356 0.0356,-0.1068 0.56961,-0.7832 0.1068,-0.17801 0.356,-0.534 c 0.13646,-0.16019 0.23139,-0.30259 0.2848,-0.4272 l 0.1068,-0.14241 0.1068,-0.1068 0.10681,-0.2136 0.1068,-0.0712 0.0712,-0.1424 c 0.0771,-0.14239 0.16019,-0.24919 0.2492,-0.3204 l 0.0712,-0.178 c 0.0949,-0.13052 0.17799,-0.22546 0.2492,-0.28481 l 0.0356,-0.1068 0.0712,-0.1068 0.0712,-0.0712 0.0356,-0.1068 c 0.0831,-0.0771 0.14239,-0.14832 0.17801,-0.2136 l 0.0712,-0.1068 0.3204,-0.49841 0.1068,0 0.71201,0 0.4628,0 0.1424,0 0.64081,0 0.1424,0 0.1424,0 0.1424,0 0.60521,0 0.1068,0 0.4272,0 0,13.59932 -0.6052,0 -0.14241,0 -0.178,0 -0.4628,0 -0.1424,0 -0.60521,0 -0.1068,0 -0.4272,0 c -0.14242,-0.0237 -0.18988,-0.1068 -0.1424,-0.2492 l 0,-0.1068 0,-0.1424 0,-0.60521 0,-0.1068 0,-0.4272 0,-0.71201 0,-0.2492 0,-0.2136 0,-0.1424 0,-0.10681 0,-0.178 0,-0.1068 0,-0.1424 0,-0.1068 0,-0.71201 0,-1.10361 0,-0.2136 0,-0.6052 0,-0.2136 0,-0.14241 0,-0.1068 0,-0.712 0,-0.1424 0,-0.60521 0,-0.4984 0,-0.10681 0,-0.1068 0,-0.2848 c 0.0119,-0.21952 -2e-5,-0.40939 -0.0356,-0.5696 l -0.17801,0.2136 c -0.0415,0.0831 -0.089,0.15428 -0.1424,0.2136 -0.12461,0.21955 -0.24328,0.39755 -0.356,0.534 l -0.1424,0.21361 -0.1424,0.2136 -0.1424,0.2136 -0.42721,0.60521 -0.3204,0.4984 -0.1068,0.1424 c -0.11868,0.17208 -0.22548,0.30261 -0.3204,0.3916 l -0.0712,0.14241 c -0.15427,0.25514 -0.29667,0.45687 -0.4272,0.6052 l -0.0712,0.1424 -0.1068,0.1068 -0.0356,0.1068 c -0.11868,0.17208 -0.22548,0.30261 -0.3204,0.39161 -0.0771,0.16614 -0.14835,0.29667 -0.21361,0.3916 -0.22547,0.32041 -0.41534,0.55775 -0.5696,0.71201 -0.0949,-0.15426 -0.17801,-0.27293 -0.2492,-0.35601 l -0.0356,-0.1068 -0.1068,-0.1068 -0.0712,-0.1068 -0.0356,-0.1068 -0.10681,-0.1424 -0.1424,-0.2136 c -0.0415,-0.0237 -0.0653,-0.0475 -0.0712,-0.0712 -0.0831,-0.13053 -0.16614,-0.23733 -0.2492,-0.32041 l -0.1068,-0.2136 -0.1424,-0.2136 c -0.0297,-0.0237 -0.0415,-0.0475 -0.0356,-0.0712 -0.12461,-0.11866 -0.21954,-0.23733 -0.2848,-0.356 -0.16615,-0.22546 -0.28481,-0.41533 -0.35601,-0.56961 l -0.1424,-0.178 -0.1068,-0.1424 -0.0712,-0.1424 c -0.12461,-0.12459 -0.21954,-0.25513 -0.2848,-0.39161 l -0.1068,-0.1068 -0.17801,-0.3204 -0.1068,-0.1068 c -0.0949,-0.15426 -0.178,-0.27293 -0.2492,-0.356 l -0.0356,-0.1068 -0.1068,-0.10681 -0.0356,-0.1068 c -0.0356,-0.0297 -0.0593,-0.0652 -0.0712,-0.1068 -0.0415,-0.0237 -0.0653,-0.0474 -0.0712,-0.0712 -0.0297,-0.0237 -0.0415,-0.0474 -0.0356,-0.0712 l -0.46281,-0.6052 0,9.75448 -0.0356,0 0.0356,0 -0.0712,0 0.0356,0 -0.0712,0 0.0356,0 -0.0712,0 0.0356,0 -0.0712,0 0.0356,0 -0.0712,0 0.0356,0 -0.0712,0 0.0356,0 -0.0712,0 0.0356,0 -0.0712,0 0.0356,0 -0.0712,0 0.0356,0 -0.0712,0 0.0356,0 -0.0712,0 0.0356,0 -0.0712,0 0.0356,0 -0.0712,0 0.0356,0 -0.0712,0 0.0356,0 -0.0712,0 0.0356,0 -0.0712,0 0.0356,0 -0.0712,0 0.0356,0 -0.0712,0 0.0356,0 -0.0712,0 0.0356,0 -0.0712,0 0.0356,0 -0.0712,0 0.0356,0 -0.0712,0 0.0356,0 -0.0712,0 0.0356,0 -0.0712,0 0.0356,0 -0.0712,0 0.0356,0 -0.0712,0 0.0356,0 -0.0712,0 0.0356,0 -0.0712,0 0.0356,0 -0.0712,0 0.0356,0 -0.0712,0 0.0356,0 -0.0712,0 0.0356,0 -0.0712,0 0.0356,0 -0.0712,0 0.0356,0 -0.0712,0 0.0356,0 -0.0712,0 0.0356,0 -0.0712,0 0.0356,0 -0.0712,0 0.0356,0 -0.0712,0 0.0356,0 -0.0712,0 0.0356,0 -0.0712,0 0.0356,0 -0.0712,0 0.0356,0 -0.0712,0 0.0356,0 -0.0712,0 0.0356,0 -0.0712,0 0.0356,0 -0.0712,0 0.0356,0 -0.0712,0 0.0356,0 -0.0712,0 0.0356,0 -0.0712,0 0.0356,0 -0.0712,0 0.0356,0 -0.0712,0 0.0356,0 -0.0712,0 0.0356,0 -0.0712,0 0.0356,0 -0.0712,0 0.0356,0 -0.0712,0 0.0356,0 -0.0712,0 0.0356,0 -0.0712,0 0.0356,0 -0.0712,0 0.0356,0 -0.0712,0 0.0356,0 -0.0712,0 0.0356,0 -0.0712,0 0.0356,0 -0.0712,0 0.0356,0 -0.0712,0 0.0356,0 -0.0712,0 0.0356,0 -0.0712,0 0.0356,0 -0.0712,0 0.0356,0 -0.0712,0 0.0356,0 -0.0712,0 0.0356,0 -0.0712,0 0.0356,0 -0.0712,0 0.0356,0 -0.0712,0 0.0356,0 -0.0712,0 0.0356,0 -0.0712,0 0.0356,0 -0.0712,0 0.0356,0 -0.0712,0 0.0356,0 -0.0712,0 0.0356,0 -0.0712,0 0.0356,0 -0.0712,0 0.0356,0 -0.0356,0 0,-0.1068 0,-0.1424 0,-0.1068 0,-0.1424 0,-0.64081 0,-0.2848 0,-0.2848 0,-0.1068 0,-0.71201 0,-0.1424 0,-0.178 0,-0.1424 0,-0.17801 0,-0.4628 0,-0.1424 0,-0.60521 0,-0.1068 0,-0.4272 0,-0.1424 0,-0.178 0,-0.46281 0,-0.1424 0,-0.6052 0,-0.10681 0,-0.4272 0,-0.2492 0,-0.2848 0,-0.28481 0,-0.2848 0,-0.1068 0,-0.1068 0,-1.10361 0,-0.2492 0,-0.2136 0,-0.24921 0,-0.2136 0,-0.178 0,-0.2136 0,-0.1424 0,-0.64081 0,-0.3916 0,-0.1424 0,-0.14241 0,-0.1424 0,-0.1424 0,-0.6052 0,-0.1068 0,-0.42721 z"
           style=""
           id="path2896" />
        <path
           d="m 348.56442,209.5307 0.178,0 0.1424,0 0.60521,0 0.3916,0 0.1424,0 0.60521,0 0.2848,0 0.2492,0 0.0356,8.57968 0.2136,0.78321 c 0.59927,1.05021 1.44181,1.60795 2.52763,1.67321 1.16886,-0.089 2.02327,-0.59927 2.56322,-1.53081 l 0,-0.1068 c 0.17799,-0.36193 0.27292,-0.71794 0.2848,-1.06801 0.0356,-0.27293 0.0475,-0.51027 0.0356,-0.71201 l 0,-0.2848 0,-0.28481 0,-0.4984 0,-0.1068 0,-0.178 0,-0.1068 0,-0.1424 0,-0.10681 0,-0.712 0,-0.60521 0,-0.1068 0,-0.4272 0,-0.46281 0,-0.1424 0,-0.6052 0,-0.1068 0,-0.42721 0,-0.3916 0,-0.178 0,-0.46281 0,-0.1424 0,-0.6052 0,-0.1068 0,-0.42721 0.1424,0 0.1424,0 0.1068,0 0.64081,0 0.4628,0 0.14241,0 0.6052,0 0.1068,0 0.42721,0 0,8.75768 c -0.0238,0.11274 -0.0356,0.20767 -0.0356,0.2848 l -0.0356,0.0712 c -0.0297,0.31448 -0.0771,0.57555 -0.14241,0.78321 -0.54588,1.48928 -1.43589,2.56916 -2.67002,3.23963 -1.51895,0.79507 -3.01417,0.93747 -4.48564,0.4272 -2.96076,-1.12734 -4.25424,-3.50069 -3.88043,-7.12006 l 0,-0.4984 0,-0.39161 0,-0.178 0,-0.1068 0,-0.1424 0,-0.1068 0,-0.71201 0,-0.2136 0,-0.2492 0,-0.21361 0,-0.2492 0,-0.4628 0,-1.10361 0,-0.49841 0,-0.1068 0,-0.178 0,-0.1068 0,-0.1424 0,-0.1068 0,-0.71201 z"
           style=""
           id="path2898" />
        <path
           d="m 363.90815,209.4239 0.49841,0 0.178,0 0.1424,0 0.64081,0 0.1424,0 0.1424,0 0.1424,0 0.60521,0 0.1068,0 0.4272,0 0.1424,0.2492 0.1424,0.21361 0.1424,0.2136 0.14241,0.2136 0.1424,0.2136 0.1068,0.1068 0.0356,0.1068 c 0.0297,0.0238 0.0415,0.0475 0.0356,0.0712 0.17206,0.18395 0.29073,0.36195 0.356,0.53401 0.17206,0.18395 0.29073,0.36195 0.356,0.534 l 0.14241,0.17801 0.1424,0.2136 c 0.0653,0.10681 0.12459,0.18988 0.178,0.2492 l 0.0356,0.1068 c 0.089,0.095 0.14833,0.18988 0.178,0.2848 0.23733,0.26702 0.40346,0.51622 0.4984,0.74761 l 0.14241,0.2136 c 0.0297,0.0238 0.0415,0.0475 0.0356,0.0712 0.17799,0.20175 0.30852,0.37975 0.3916,0.53401 l 0.1424,0.2136 0.1068,0.2136 0.1424,0.2136 0.1424,0.1424 0.10681,0.178 0.0712,0.17801 c 0.15425,0.15427 0.26106,0.30854 0.3204,0.4628 l 0.1068,0.1424 0.0712,0.1424 0.1068,0.1068 c 0.11273,0.16615 0.19579,0.30855 0.2492,0.42721 l 0.1068,0.1068 0.0712,0.1068 0.0356,0.1068 0.0712,0.0356 c 0.0771,0.17208 0.16019,0.30261 0.2492,0.3916 l 0.0356,0.10681 c 0.0297,0.0237 0.0415,0.0475 0.0356,0.0712 0.21952,0.24327 0.37379,0.46874 0.4628,0.6764 l 0.0356,-0.2492 0,-0.2492 0,-0.28481 0,-0.1424 0,-0.6408 0,-0.39161 0,-0.1424 0,-0.1424 0,-0.1424 0,-0.1424 0,-0.60521 0,-0.1068 0,-0.4272 0,-0.2136 0,-0.60521 0,-0.1068 0,-0.4272 0,-0.46281 0,-0.1424 0,-0.6052 0,-0.1068 0,-0.42721 0,-0.3916 0,-0.178 0,-0.46281 0,-0.1424 0,-0.6052 0,-0.1068 0,-0.42721 0.46281,0 0.1424,0 0.6408,0 0.14241,0 0.1424,0 0.1424,0 0.6052,0 0.1068,0 0.42721,0 0,13.59932 -0.1068,0 -0.42721,0 -0.356,0 -0.2492,0 -0.2136,0 -0.17801,0 -0.1424,0 -0.1424,0 -0.1424,0 -0.1068,0 -0.1068,0 -0.1068,0 -0.0712,0 0.0712,0 -0.0712,0 -0.28481,0 -0.1068,0 -0.4628,0 -0.0356,-0.0712 c -0.0831,-0.1068 -0.14241,-0.20173 -0.178,-0.2848 -0.0297,-0.0237 -0.0416,-0.0475 -0.0356,-0.0712 -0.21955,-0.24327 -0.37382,-0.46874 -0.46281,-0.67641 -0.0297,-0.0237 -0.0415,-0.0475 -0.0356,-0.0712 l -0.1424,-0.2136 c -0.12461,-0.1424 -0.21954,-0.2848 -0.2848,-0.4272 l -0.178,-0.21361 -0.1424,-0.2492 -0.1424,-0.2492 c -0.16022,-0.178 -0.27888,-0.34413 -0.35601,-0.49841 l -0.0712,-0.0712 c -0.0949,-0.20766 -0.20174,-0.37379 -0.3204,-0.4984 l -0.0356,-0.0712 -0.0712,-0.1068 -0.3204,-0.49841 c -0.0831,-0.10679 -0.14241,-0.20172 -0.17801,-0.2848 -0.0297,-0.0237 -0.0415,-0.0475 -0.0356,-0.0712 l -0.0712,-0.0356 -0.1424,-0.2492 -0.0356,-0.0712 c -0.0831,-0.1068 -0.14241,-0.20173 -0.178,-0.2848 -0.0534,-0.0593 -0.089,-0.11867 -0.1068,-0.17801 l -0.1424,-0.1424 -0.1424,-0.2136 -0.0712,-0.178 -0.0712,-0.0356 -0.1424,-0.2492 -0.3204,-0.46281 -0.0712,-0.1424 -0.0712,-0.1424 -0.1068,-0.1068 -0.0712,-0.1068 -0.0356,-0.1068 c -0.11868,-0.13053 -0.21361,-0.2492 -0.2848,-0.35601 l -0.0712,-0.1424 c -0.10087,-0.13646 -0.17207,-0.25512 -0.2136,-0.356 -0.0415,-0.0237 -0.0653,-0.0475 -0.0712,-0.0712 l -0.0712,-0.0712 -0.0356,-0.0712 -0.1424,-0.2492 -0.3204,-0.46281 0,9.11368 -0.46281,0 -0.1424,0 -0.6408,0 -0.14241,0 -0.1424,0 -0.1424,0 -0.6052,0 -0.1068,0 -0.42721,0 0,-0.1068 0,-0.1424 0,-0.1068 0,-0.1424 0,-0.64081 0,-0.2848 0,-0.2848 0,-0.1068 0,-0.71201 0,-0.1424 0,-0.178 0,-0.1424 0,-0.17801 0,-0.4628 0,-0.1424 0,-0.60521 0,-0.1068 0,-0.4272 0,-0.1424 0,-0.178 0,-0.46281 0,-0.1424 0,-0.60521 0,-0.1068 0,-0.4272 0,-0.2492 0,-0.2848 0,-0.28481 0,-0.2848 0,-0.1068 0,-0.1068 0,-1.10361 0,-0.2492 0,-0.21361 0,-0.2492 0,-0.2136 0,-0.178 0,-0.2136 0,-0.1424 0,-0.64081 0,-0.3916 0,-0.1424 0,-0.14241 0,-0.1424 0,-0.1424 0,-0.6052 0,-0.1068 0,-0.42721 z"
           style=""
           id="path2900" />
        <path
           d="m 383.13232,209.4595 0.4628,0 1.10361,0 0.49841,0 0.1068,0 0.178,0 0.1068,0 0.1424,0 0.1068,0 0.71201,0 0,0.1068 c 0.10086,0.21362 0.17206,0.40349 0.2136,0.56961 l 0.0712,0.2492 0.0356,0.1424 c 0.0237,0.0356 0.0356,0.0712 0.0356,0.1068 0.0237,0.0356 0.0356,0.0712 0.0356,0.1068 0.0237,0.0356 0.0356,0.0712 0.0356,0.1068 0.0593,0.0949 0.0949,0.18989 0.1068,0.28481 l 0.2136,0.5696 0,0.1068 c 0.11273,0.21955 0.18393,0.42129 0.21361,0.60521 0.11272,0.26108 0.18392,0.48655 0.2136,0.6764 0.0356,0.0712 0.0593,0.14242 0.0712,0.21361 l 0.0712,0.1424 c 0.0356,0.11868 0.0712,0.21361 0.1068,0.2848 l 0,0.1068 c 0.0237,0.0356 0.0356,0.0712 0.0356,0.1068 0.0593,0.0949 0.0949,0.18988 0.1068,0.2848 l 0.2136,0.56961 0.0356,0.1424 0.0356,0.0712 0.0712,0.3204 0.0712,0.14241 0.0712,0.178 0.0356,0.1068 0.0356,0.1424 0.0712,0.2136 c 0.0356,0.11868 0.0712,0.21361 0.1068,0.2848 l 0,0.1068 c 0.0237,0.0356 0.0356,0.0712 0.0356,0.10681 0.0593,0.0949 0.0949,0.18987 0.1068,0.2848 l 0.2136,0.5696 0.0356,0.2136 0.1068,0.21361 0.0712,0.2136 0,0.1068 0.0712,0.1068 0.0356,0.1424 0.0356,0.178 c 0.18393,0.42128 0.3026,0.77728 0.35601,1.06801 0.0237,0.0356 0.0356,0.0712 0.0356,0.1068 0.18392,0.42128 0.30259,0.77728 0.356,1.06801 l 0.0712,0.1068 0.0356,0.1424 0.0356,0.14241 0.0356,0.1068 0.0356,0.1424 c 0.0237,0.0356 0.0356,0.0712 0.0356,0.1068 0.0237,0.0356 0.0356,0.0712 0.0356,0.1068 0.0237,0.0356 0.0356,0.0712 0.0356,0.1068 l 0.0712,0.1068 0,0.1068 c 0.0237,0.0356 0.0356,0.0712 0.0356,0.1068 0.0593,0.0949 0.0949,0.18987 0.10681,0.28481 0.0771,0.178 0.12458,0.3204 0.1424,0.4272 l 0.0712,0.2136 -0.2136,0 -0.14241,0 -0.6408,0 -0.3916,0 -0.14241,0 -0.1424,0 -0.1424,0 -0.1424,0 -0.6052,0 -0.10681,0 -0.4272,0 -0.0712,-0.2136 0,-0.1424 -0.0712,-0.1068 0,-0.1068 c -0.0712,-0.13053 -0.10681,-0.2492 -0.1068,-0.35601 l -0.0712,-0.1068 0,-0.1068 -0.0356,-0.1424 -0.1068,-0.2492 -0.24921,-0.89001 -0.6408,0 -0.71201,0 -0.2492,0 -0.2136,0 -0.178,0 -0.21361,0 -0.1424,0 -0.6408,0 -0.39161,0 -0.1424,0 -0.1424,0 -0.1424,0 -0.1424,0 -0.60521,0 -0.1068,0 -0.4272,0 -0.0356,0.178 -0.0356,0.178 -0.0712,0.14241 c -0.0297,0.13053 -0.0653,0.2492 -0.1068,0.356 l -0.0356,0.178 -0.0356,0.0712 -0.1068,0.356 -0.0356,0.1424 -0.0356,0.10681 c -0.0415,0.1246 -0.0771,0.21953 -0.10681,0.2848 l -0.1068,0.4272 -0.1424,0 -0.1424,0 -0.1068,0 -0.71201,0 -0.1068,0 -0.6408,0 -0.1068,0 -1.10361,0 0.0712,-0.2848 0.1068,-0.356 0.0356,-0.1068 0.0356,-0.10681 0.0356,-0.1068 0.0356,-0.0712 0.178,-0.5696 0.0356,-0.1068 0.0356,-0.1068 0.0356,-0.14241 0.0712,-0.1424 0.1068,-0.3916 0.0356,-0.1068 0.0356,-0.1068 0.0356,-0.1068 0.0356,-0.0712 c 0.0712,-0.27293 0.1424,-0.48654 0.21361,-0.64081 l 0.0712,-0.2492 0.0356,-0.0712 c 0.0712,-0.27293 0.1424,-0.48653 0.2136,-0.64081 0.0297,-0.11866 0.0653,-0.21359 0.1068,-0.2848 l 0.0712,-0.2848 0.1068,-0.2492 0.0712,-0.28481 0.0356,-0.0712 c 0.0712,-0.27293 0.1424,-0.48653 0.2136,-0.6408 l 0.0712,-0.28481 0.2848,-0.7832 0.0712,-0.2492 0.0356,-0.10681 0.0356,-0.1068 c 0.0712,-0.22546 0.1424,-0.41532 0.2136,-0.5696 l 0.0712,-0.2136 0.0356,-0.1068 0,-0.10681 0.0356,-0.1068 0.2492,-0.6408 0.0356,-0.2136 0.0712,-0.17801 0.0712,-0.1424 c 0.0475,-0.22545 0.10679,-0.41532 0.178,-0.5696 l 0.0356,-0.178 0.0356,-0.1068 0.0356,-0.0712 c 0.0712,-0.27293 0.1424,-0.48653 0.2136,-0.64081 l 0.0356,-0.1424 0.0356,-0.1424 c 0.0653,-0.13646 0.11273,-0.26699 0.1424,-0.39161 l 0.1068,-0.356 0.0356,-0.1068 0.28481,-0.81881 z m 1.53081,3.13283 -0.1068,0.3916 -0.0356,0.0712 -0.178,0.64081 -0.2136,0.6052 -0.0356,0.0712 -0.21361,0.7832 -0.0356,0.1424 -0.2136,0.60521 -0.0712,0.178 c -0.0237,0.18988 -0.0712,0.35601 -0.1424,0.4984 -0.0178,0.13648 -0.0534,0.26702 -0.1068,0.39161 l -0.0356,0.1424 c -0.0475,0.14241 -0.0949,0.26108 -0.1424,0.356 l -0.2136,0.78321 0.1068,0 0.1424,0 0.1424,0 0.1424,0 0.1424,0 0.60521,0 0.1068,0 0.4272,0 0.1424,0 0.39161,0 0.178,0 0.1068,0 0.1424,0 0.1068,0 0.71201,0 -0.0712,-0.2848 -0.2136,-0.67641 -0.17801,-0.6052 c -0.089,-0.22546 -0.14834,-0.41533 -0.178,-0.56961 l -0.0356,-0.0712 c -0.0475,-0.17206 -0.0949,-0.31446 -0.1424,-0.4272 l -0.0356,-0.1424 -0.0356,-0.14241 -0.0712,-0.178 -0.0356,-0.2136 -0.0356,-0.1424 -0.0712,-0.1068 -0.0356,-0.2136 -0.0356,-0.1424 c -0.0356,-0.0712 -0.0593,-0.1424 -0.0712,-0.21361 l -0.0356,-0.1424 c -0.089,-0.17799 -0.14835,-0.34412 -0.17801,-0.4984 l -0.0356,-0.1068 -0.0356,-0.0712 -0.0712,-0.32041 -0.0356,-0.1068 -0.178,-0.4628 z"
           style=""
           id="path2902" />
        <path
           d="m 399.40167,209.4951 0.1424,0 0.6408,0 0.1424,0 0.14241,0 0.1424,0 0.6052,0 0.1068,0 0.42721,0 0,4.62804 0.2136,-0.178 0.0356,-0.1068 0.2492,-0.2136 c 0.0237,-0.0415 0.0475,-0.0653 0.0712,-0.0712 l 0.0356,-0.0712 0.46281,-0.53401 0.178,-0.1424 0.1068,-0.178 0.0712,-0.0712 0.0712,-0.0712 0.0712,-0.0712 0.0712,-0.0712 0.0712,-0.1068 0.0712,-0.0356 0.46281,-0.53401 0.1424,-0.1068 0.1068,-0.1424 0.1068,-0.1424 0.1424,-0.1068 0.1068,-0.1424 c 0.0237,-0.0415 0.0475,-0.0653 0.0712,-0.0712 l 0.1068,-0.10681 0.0356,-0.0712 c 0.0831,-0.10678 0.16613,-0.18985 0.24921,-0.2492 0.16019,-0.23139 0.32632,-0.40939 0.4984,-0.534 0.14239,-0.20766 0.27293,-0.37379 0.3916,-0.49841 l 0.17801,0 0.1068,0 0.712,0 0.46281,0 0.1424,0 0.6408,0 0.14241,0 0.1424,0 0.1424,0 0.6052,0 0.1068,0 0.42721,0 -0.0712,0.1068 -0.0712,0.1068 -0.1068,0.10681 -0.0712,0.0712 c -0.11868,0.14241 -0.22548,0.24921 -0.3204,0.3204 -0.0712,0.10681 -0.14241,0.18988 -0.2136,0.2492 l -0.0356,0.0712 -0.0712,0.0356 c -0.17208,0.23142 -0.32635,0.40942 -0.4628,0.53401 l -0.17801,0.178 -0.4628,0.534 -0.1424,0.1424 -0.1068,0.14241 -0.178,0.1424 -0.0712,0.1424 -0.10681,0.1068 -0.3916,0.4272 -0.1424,0.1424 -0.1068,0.14241 -0.1424,0.1068 -0.0712,0.1068 c -0.089,0.12461 -0.18395,0.21954 -0.28481,0.2848 -0.0237,0.0415 -0.0475,0.0653 -0.0712,0.0712 l -0.0356,0.1068 -0.1068,0.1068 -0.0712,0.0712 -0.0712,0.0712 -0.0712,0.0712 -0.0712,0.1068 -0.56961,0.56961 c 0.0356,0.10088 0.0831,0.18394 0.14241,0.2492 l 0.1068,0.2492 0.1424,0.21361 c 0.0534,0.0593 0.089,0.11867 0.1068,0.178 0.0712,0.0593 0.13053,0.13054 0.178,0.2136 l 0.0356,0.1068 c 0.15426,0.19581 0.27293,0.37381 0.356,0.53401 l 0.14241,0.2136 0.0356,0.1068 0.0712,0.0356 0.3204,0.5696 0.0712,0.0712 0.1424,0.24921 c 0.10086,0.13647 0.17206,0.25514 0.2136,0.356 l 0.1424,0.178 0.64081,1.03241 c 0.13646,0.18394 0.23139,0.35007 0.2848,0.4984 0.0415,0.0237 0.0653,0.0475 0.0712,0.0712 l 0.32041,0.46281 0.2492,0.4272 0.1068,0.1424 0.0712,0.17801 c 0.0356,0.0297 0.0593,0.0653 0.0712,0.1068 l 0.0712,0.1068 c 0.14832,0.18394 0.25512,0.35007 0.3204,0.4984 l 0.1424,0.2492 0.0712,0.0356 0.0356,0.10681 c 0.0297,0.0237 0.0415,0.0475 0.0356,0.0712 0.20765,0.2314 0.35005,0.46874 0.4272,0.712 l -0.4984,0 -0.46281,0 -0.1424,0 -0.64081,0 -0.1424,0 -0.1424,0 -0.1424,0 -0.6052,0 -0.10681,0 -0.4272,0 -0.1068,-0.2136 c -0.0356,-0.0297 -0.0593,-0.0653 -0.0712,-0.1068 -0.0415,-0.0237 -0.0653,-0.0475 -0.0712,-0.0712 l -0.0356,-0.1068 c -0.0356,-0.0297 -0.0593,-0.0653 -0.0712,-0.1068 -0.0949,-0.089 -0.15428,-0.18394 -0.178,-0.28481 -0.0415,-0.0237 -0.0653,-0.0475 -0.0712,-0.0712 l -0.0356,-0.0712 -0.28481,-0.3916 -0.0356,-0.1068 -0.3916,-0.60521 c -0.0475,-0.0771 -0.0831,-0.14833 -0.1068,-0.2136 -0.0415,-0.0237 -0.0653,-0.0475 -0.0712,-0.0712 l -0.32041,-0.4628 -0.1068,-0.21361 -0.1068,-0.1424 -0.0356,-0.1068 c -0.15427,-0.17799 -0.26107,-0.34413 -0.3204,-0.4984 l -0.1068,-0.1068 -0.2492,-0.46281 c -0.0356,-0.0297 -0.0593,-0.0653 -0.0712,-0.1068 l -0.17801,-0.2136 -0.0712,-0.1068 -0.0356,-0.1424 -0.0712,-0.0356 -0.0356,-0.1068 -0.1424,-0.24921 c -0.15427,-0.16612 -0.26107,-0.33226 -0.3204,-0.4984 l -0.1424,-0.1068 -0.0712,0.1424 -0.1068,0.0712 -0.0712,0.1068 -0.0712,0.0712 -0.0712,0.1068 -0.1068,0.0712 -0.0356,0.0712 c -0.13054,0.1246 -0.22547,0.2314 -0.2848,0.3204 l -0.2848,0.2848 0,4.73484 -0.46281,0 -0.1424,0 -0.6408,0 -0.1424,0 -0.14241,0 -0.1424,0 -0.6052,0 -0.1068,0 -0.42721,0 0,-0.1068 0,-0.1424 0,-0.1068 0,-0.1424 0,-0.64081 0,-0.2848 0,-0.2848 0,-0.1068 0,-0.71201 0,-0.1424 0,-0.178 0,-0.1424 0,-0.17801 0,-0.4628 0,-0.1424 0,-0.60521 0,-0.1068 0,-0.4272 0,-0.1424 0,-0.178 0,-0.46281 0,-0.1424 0,-0.6052 0,-0.10681 0,-0.4272 0,-0.2492 0,-0.2848 0,-0.28481 0,-0.2848 0,-0.1068 0,-0.1068 0,-1.10361 0,-0.2492 0,-0.2136 0,-0.24921 0,-0.2136 0,-0.178 0,-0.2136 0,-0.1424 0,-0.64081 0,-0.3916 0,-0.1424 0,-0.1424 0,-0.14241 0,-0.1424 0,-0.6052 0,-0.1068 0,-0.42721 z"
           style=""
           id="path2904" />
        <path
           d="m 415.5642,209.4595 0.46281,0 1.10361,0 0.4984,0 0.1068,0 0.178,0 0.1068,0 0.14241,0 0.1068,0 0.712,0 0,0.1068 c 0.10086,0.21362 0.17206,0.40349 0.2136,0.56961 l 0.0712,0.2492 0.0356,0.1424 c 0.0237,0.0356 0.0356,0.0712 0.0356,0.1068 0.0237,0.0356 0.0356,0.0712 0.0356,0.1068 0.0237,0.0356 0.0356,0.0712 0.0356,0.1068 0.0593,0.0949 0.0949,0.18989 0.1068,0.28481 l 0.2136,0.5696 0,0.1068 c 0.11272,0.21955 0.18392,0.42129 0.2136,0.60521 0.11273,0.26108 0.18393,0.48655 0.2136,0.6764 0.0356,0.0712 0.0593,0.14242 0.0712,0.21361 l 0.0712,0.1424 c 0.0356,0.11868 0.0712,0.21361 0.10681,0.2848 l 0,0.1068 c 0.0237,0.0356 0.0356,0.0712 0.0356,0.1068 0.0593,0.0949 0.0949,0.18988 0.1068,0.2848 l 0.2136,0.56961 0.0356,0.1424 0.0356,0.0712 0.0712,0.3204 0.0712,0.14241 0.0712,0.178 0.0356,0.1068 0.0356,0.1424 0.0712,0.2136 c 0.0356,0.11868 0.0712,0.21361 0.1068,0.2848 l 0,0.1068 c 0.0237,0.0356 0.0356,0.0712 0.0356,0.10681 0.0593,0.0949 0.0949,0.18987 0.1068,0.2848 l 0.21361,0.5696 0.0356,0.2136 0.1068,0.21361 0.0712,0.2136 0,0.1068 0.0712,0.1068 0.0356,0.1424 0.0356,0.178 c 0.18392,0.42128 0.30259,0.77728 0.356,1.06801 0.0237,0.0356 0.0356,0.0712 0.0356,0.1068 0.18393,0.42128 0.30259,0.77728 0.35601,1.06801 l 0.0712,0.1068 0.0356,0.1424 0.0356,0.14241 0.0356,0.1068 0.0356,0.1424 c 0.0237,0.0356 0.0356,0.0712 0.0356,0.1068 0.0237,0.0356 0.0356,0.0712 0.0356,0.1068 0.0237,0.0356 0.0356,0.0712 0.0356,0.1068 l 0.0712,0.1068 0,0.1068 c 0.0237,0.0356 0.0356,0.0712 0.0356,0.1068 0.0593,0.0949 0.0949,0.18987 0.1068,0.28481 0.0771,0.178 0.12459,0.3204 0.1424,0.4272 l 0.0712,0.2136 -0.2136,0 -0.1424,0 -0.64081,0 -0.3916,0 -0.1424,0 -0.1424,0 -0.1424,0 -0.1424,0 -0.60521,0 -0.1068,0 -0.4272,0 -0.0712,-0.2136 0,-0.1424 -0.0712,-0.1068 0,-0.1068 c -0.0712,-0.13053 -0.10681,-0.2492 -0.1068,-0.35601 l -0.0712,-0.1068 0,-0.1068 -0.0356,-0.1424 -0.1068,-0.2492 -0.2492,-0.89001 -0.64081,0 -0.712,0 -0.2492,0 -0.21361,0 -0.178,0 -0.2136,0 -0.1424,0 -0.64081,0 -0.3916,0 -0.1424,0 -0.1424,0 -0.1424,0 -0.14241,0 -0.6052,0 -0.1068,0 -0.42721,0 -0.0356,0.178 -0.0356,0.178 -0.0712,0.14241 c -0.0297,0.13053 -0.0653,0.2492 -0.1068,0.356 l -0.0356,0.178 -0.0356,0.0712 -0.1068,0.356 -0.0356,0.1424 -0.0356,0.10681 c -0.0415,0.1246 -0.0771,0.21953 -0.1068,0.2848 l -0.1068,0.4272 -0.1424,0 -0.1424,0 -0.10681,0 -0.712,0 -0.1068,0 -0.64081,0 -0.1068,0 -1.10361,0 0.0712,-0.2848 0.1068,-0.356 0.0356,-0.1068 0.0356,-0.10681 0.0356,-0.1068 0.0356,-0.0712 0.17801,-0.5696 0.0356,-0.1068 0.0356,-0.1068 0.0356,-0.14241 0.0712,-0.1424 0.1068,-0.3916 0.0356,-0.1068 0.0356,-0.1068 0.0356,-0.1068 0.0356,-0.0712 c 0.0712,-0.27293 0.1424,-0.48654 0.2136,-0.64081 l 0.0712,-0.2492 0.0356,-0.0712 c 0.0712,-0.27293 0.1424,-0.48653 0.2136,-0.64081 0.0297,-0.11866 0.0653,-0.21359 0.10681,-0.2848 l 0.0712,-0.2848 0.1068,-0.2492 0.0712,-0.28481 0.0356,-0.0712 c 0.0712,-0.27293 0.1424,-0.48653 0.2136,-0.6408 l 0.0712,-0.28481 0.2848,-0.7832 0.0712,-0.2492 0.0356,-0.10681 0.0356,-0.1068 c 0.0712,-0.22546 0.1424,-0.41532 0.21361,-0.5696 l 0.0712,-0.2136 0.0356,-0.1068 0,-0.10681 0.0356,-0.1068 0.2492,-0.6408 0.0356,-0.2136 0.0712,-0.17801 0.0712,-0.1424 c 0.0475,-0.22545 0.1068,-0.41532 0.178,-0.5696 l 0.0356,-0.178 0.0356,-0.1068 0.0356,-0.0712 c 0.0712,-0.27293 0.1424,-0.48653 0.21361,-0.64081 l 0.0356,-0.1424 0.0356,-0.1424 c 0.0653,-0.13646 0.11273,-0.26699 0.1424,-0.39161 l 0.1068,-0.356 0.0356,-0.1068 0.2848,-0.81881 z m 1.53082,3.13283 -0.1068,0.3916 -0.0356,0.0712 -0.17801,0.64081 -0.2136,0.6052 -0.0356,0.0712 -0.2136,0.7832 -0.0356,0.1424 -0.2136,0.60521 -0.0712,0.178 c -0.0237,0.18988 -0.0712,0.35601 -0.1424,0.4984 -0.0178,0.13648 -0.0534,0.26702 -0.10681,0.39161 l -0.0356,0.1424 c -0.0475,0.14241 -0.0949,0.26108 -0.1424,0.356 l -0.2136,0.78321 0.1068,0 0.1424,0 0.1424,0 0.14241,0 0.1424,0 0.6052,0 0.1068,0 0.42721,0 0.1424,0 0.3916,0 0.178,0 0.1068,0 0.14241,0 0.1068,0 0.712,0 -0.0712,-0.2848 -0.2136,-0.67641 -0.178,-0.6052 c -0.089,-0.22546 -0.14834,-0.41533 -0.178,-0.56961 l -0.0356,-0.0712 c -0.0475,-0.17206 -0.095,-0.31446 -0.1424,-0.4272 l -0.0356,-0.1424 -0.0356,-0.14241 -0.0712,-0.178 -0.0356,-0.2136 -0.0356,-0.1424 -0.0712,-0.1068 -0.0356,-0.2136 -0.0356,-0.1424 c -0.0356,-0.0712 -0.0593,-0.1424 -0.0712,-0.21361 l -0.0356,-0.1424 c -0.089,-0.17799 -0.14834,-0.34412 -0.178,-0.4984 l -0.0356,-0.1068 -0.0356,-0.0712 -0.0712,-0.32041 -0.0356,-0.1068 -0.178,-0.4628 z"
           style=""
           id="path2906" />
        <path
           d="m 426.2799,209.4595 0.1068,0 0.71201,0 0.1424,0 0.1068,0 0.64081,0 0.4628,0 0.1424,0 0.60521,0 0.1068,0 0.4272,0 0.1424,0.2136 0.0712,0.10681 0.0712,0.1068 0.1424,0.2136 c 0.18393,0.21361 0.31447,0.40348 0.39161,0.5696 0.0534,0.0594 0.089,0.11869 0.1068,0.178 l 0.1068,0.14241 0.1424,0.1424 0.0712,0.1424 0.1068,0.178 0.0712,0.0712 0.0356,0.1068 c 0.1246,0.11868 0.21953,0.23735 0.28481,0.356 l 0.0712,0.14241 0.1424,0.1424 0.1068,0.178 0.0356,0.1068 c 0.12459,0.13055 0.21953,0.24921 0.2848,0.356 l 0.0356,0.0712 c 0.0831,0.10682 0.14239,0.20175 0.178,0.28481 l 0.0712,0.0712 0.1424,0.2492 0.0712,0.0356 0.0356,0.1068 c 0.14832,0.17208 0.25512,0.32635 0.3204,0.4628 l 0.1068,-0.0356 0.0356,-0.1068 0.5696,-0.7832 0.10681,-0.17801 0.356,-0.534 c 0.13646,-0.16019 0.23139,-0.30259 0.2848,-0.4272 l 0.1068,-0.14241 0.1068,-0.1068 0.1068,-0.2136 0.10681,-0.0712 0.0712,-0.1424 c 0.0771,-0.14239 0.16019,-0.24919 0.2492,-0.3204 l 0.0712,-0.178 c 0.0949,-0.13052 0.17799,-0.22546 0.2492,-0.28481 l 0.0356,-0.1068 0.0712,-0.1068 0.0712,-0.0712 0.0356,-0.1068 c 0.0831,-0.0771 0.14239,-0.14832 0.178,-0.2136 l 0.0712,-0.1068 0.32041,-0.49841 0.1068,0 0.712,0 0.46281,0 0.1424,0 0.64081,0 0.1424,0 0.1424,0 0.1424,0 0.6052,0 0.10681,0 0.4272,0 0,13.59932 -0.60521,0 -0.1424,0 -0.178,0 -0.4628,0 -0.1424,0 -0.60521,0 -0.1068,0 -0.4272,0 c -0.14242,-0.0237 -0.18989,-0.1068 -0.14241,-0.2492 l 0,-0.1068 0,-0.1424 0,-0.60521 0,-0.1068 0,-0.4272 0,-0.71201 0,-0.2492 0,-0.2136 0,-0.1424 0,-0.10681 0,-0.178 0,-0.1068 0,-0.1424 0,-0.1068 0,-0.71201 0,-1.10361 0,-0.2136 0,-0.6052 0,-0.2136 0,-0.14241 0,-0.1068 0,-0.712 0,-0.1424 0,-0.60521 0,-0.4984 0,-0.10681 0,-0.1068 0,-0.2848 c 0.0119,-0.21952 -1e-5,-0.40939 -0.0356,-0.5696 l -0.178,0.2136 c -0.0415,0.0831 -0.089,0.15428 -0.1424,0.2136 -0.12461,0.21955 -0.24328,0.39755 -0.356,0.534 l -0.1424,0.21361 -0.1424,0.2136 -0.14241,0.2136 -0.4272,0.60521 -0.3204,0.4984 -0.1068,0.1424 c -0.11868,0.17208 -0.22548,0.30261 -0.32041,0.3916 l -0.0712,0.14241 c -0.15427,0.25514 -0.29668,0.45687 -0.4272,0.6052 l -0.0712,0.1424 -0.1068,0.1068 -0.0356,0.1068 c -0.11868,0.17208 -0.22548,0.30261 -0.3204,0.39161 -0.0772,0.16614 -0.14835,0.29667 -0.21361,0.3916 -0.22547,0.32041 -0.41534,0.55775 -0.5696,0.71201 -0.0949,-0.15426 -0.17801,-0.27293 -0.2492,-0.35601 l -0.0356,-0.1068 -0.1068,-0.1068 -0.0712,-0.1068 -0.0356,-0.1068 -0.1068,-0.1424 -0.1424,-0.2136 c -0.0415,-0.0237 -0.0653,-0.0475 -0.0712,-0.0712 -0.0831,-0.13053 -0.16614,-0.23733 -0.2492,-0.32041 l -0.1068,-0.2136 -0.1424,-0.2136 c -0.0297,-0.0237 -0.0415,-0.0475 -0.0356,-0.0712 -0.12461,-0.11866 -0.21955,-0.23733 -0.28481,-0.356 -0.16614,-0.22546 -0.28481,-0.41533 -0.356,-0.56961 l -0.1424,-0.178 -0.1068,-0.1424 -0.0712,-0.1424 c -0.12461,-0.12459 -0.21954,-0.25513 -0.2848,-0.39161 l -0.10681,-0.1068 -0.178,-0.3204 -0.1068,-0.1068 c -0.0949,-0.15426 -0.178,-0.27293 -0.2492,-0.356 l -0.0356,-0.1068 -0.1068,-0.10681 -0.0356,-0.1068 c -0.0356,-0.0297 -0.0593,-0.0652 -0.0712,-0.1068 -0.0415,-0.0237 -0.0653,-0.0474 -0.0712,-0.0712 -0.0297,-0.0237 -0.0415,-0.0474 -0.0356,-0.0712 l -0.46281,-0.6052 0,9.75448 -0.0356,0 0.0356,0 -0.0712,0 0.0356,0 -0.0712,0 0.0356,0 -0.0712,0 0.0356,0 -0.0712,0 0.0356,0 -0.0712,0 0.0356,0 -0.0712,0 0.0356,0 -0.0712,0 0.0356,0 -0.0712,0 0.0356,0 -0.0712,0 0.0356,0 -0.0712,0 0.0356,0 -0.0712,0 0.0356,0 -0.0712,0 0.0356,0 -0.0712,0 0.0356,0 -0.0712,0 0.0356,0 -0.0712,0 0.0356,0 -0.0712,0 0.0356,0 -0.0712,0 0.0356,0 -0.0712,0 0.0356,0 -0.0712,0 0.0356,0 -0.0712,0 0.0356,0 -0.0712,0 0.0356,0 -0.0712,0 0.0356,0 -0.0712,0 0.0356,0 -0.0712,0 0.0356,0 -0.0712,0 0.0356,0 -0.0712,0 0.0356,0 -0.0712,0 0.0356,0 -0.0712,0 0.0356,0 -0.0712,0 0.0356,0 -0.0712,0 0.0356,0 -0.0712,0 0.0356,0 -0.0712,0 0.0356,0 -0.0712,0 0.0356,0 -0.0712,0 0.0356,0 -0.0712,0 0.0356,0 -0.0712,0 0.0356,0 -0.0712,0 0.0356,0 -0.0712,0 0.0356,0 -0.0712,0 0.0356,0 -0.0712,0 0.0356,0 -0.0712,0 0.0356,0 -0.0712,0 0.0356,0 -0.0712,0 0.0356,0 -0.0712,0 0.0356,0 -0.0712,0 0.0356,0 -0.0712,0 0.0356,0 -0.0712,0 0.0356,0 -0.0712,0 0.0356,0 -0.0712,0 0.0356,0 -0.0712,0 0.0356,0 -0.0712,0 0.0356,0 -0.0712,0 0.0356,0 -0.0712,0 0.0356,0 -0.0712,0 0.0356,0 -0.0712,0 0.0356,0 -0.0712,0 0.0356,0 -0.0712,0 0.0356,0 -0.0712,0 0.0356,0 -0.0712,0 0.0356,0 -0.0712,0 0.0356,0 -0.0712,0 0.0356,0 -0.0712,0 0.0356,0 -0.0712,0 0.0356,0 -0.0712,0 0.0356,0 -0.0712,0 0.0356,0 -0.0712,0 0.0356,0 -0.0712,0 0.0356,0 -0.0712,0 0.0356,0 -0.0712,0 0.0356,0 -0.0712,0 0.0356,0 -0.0712,0 0.0356,0 -0.0712,0 0.0356,0 -0.0712,0 0.0356,0 -0.0712,0 0.0356,0 -0.0712,0 0.0356,0 -0.0712,0 0.0356,0 -0.0712,0 0.0356,0 -0.0356,0 0,-0.1068 0,-0.1424 0,-0.1068 0,-0.1424 0,-0.64081 0,-0.2848 0,-0.2848 0,-0.1068 0,-0.71201 0,-0.1424 0,-0.178 0,-0.1424 0,-0.17801 0,-0.4628 0,-0.1424 0,-0.60521 0,-0.1068 0,-0.4272 0,-0.1424 0,-0.178 0,-0.46281 0,-0.1424 0,-0.6052 0,-0.10681 0,-0.4272 0,-0.2492 0,-0.2848 0,-0.28481 0,-0.2848 0,-0.1068 0,-0.1068 0,-1.10361 0,-0.2492 0,-0.2136 0,-0.24921 0,-0.2136 0,-0.178 0,-0.2136 0,-0.1424 0,-0.64081 0,-0.3916 0,-0.1424 0,-0.14241 0,-0.1424 0,-0.1424 0,-0.6052 0,-0.1068 0,-0.42721 z"
           style=""
           id="path2908" />
        <path
           d="m 444.22246,209.4595 0.1424,0 0.60521,0 0.1068,0 0.4272,0 0.71201,0 0.1424,0 0.64081,0 0.1068,0 0.1068,0 1.10361,0 0.6052,0 0.28481,0 0.2492,0 0.1424,0 0.1068,0 0.71201,0 0.1424,0 0.1068,0 0.6408,0 0.46281,0 0.1424,0 0.60521,0 0.1068,0 0.4272,0 0,2.70563 -0.71201,0 -0.2136,0 -0.6052,0 -0.1068,0 -0.42721,0 -0.4628,0 -0.1424,0 -0.60521,0 -0.1068,0 -0.4272,0 -0.39161,0 -0.178,0 -0.4628,0 -0.1424,0 -0.60521,0 -0.1068,0 -0.4272,0 0,2.74122 0.1068,0 0.712,0 0.46281,0 0.1424,0 0.6408,0 0.14241,0 0.1424,0 0.1424,0 0.6052,0 0.28481,0 0.2492,0 0.178,0 0.4628,0 0.14241,0 0.6052,0 0.1068,0 0.42721,0 0,2.52762 -0.49841,0 -0.1068,0 -0.178,0 -0.1068,0 -0.1424,0 -0.1068,0 -0.71201,0 -0.46281,0 -0.2492,0 -0.4984,0 -0.1068,0 -0.64081,0 -0.4628,0 -0.1424,0 -0.60521,0 -0.1068,0 -0.4272,0 0,2.84803 c 0.0475,0.10087 0.13053,0.13647 0.2492,0.1068 l 0.2848,0 0.71201,0 0.2136,0 0.6052,0 0.10681,0 0.4272,0 0.4628,0 0.1424,0 0.60521,0 0.1068,0 0.4272,0 0.39161,0 0.178,0 0.4628,0 0.1424,0 0.60521,0 0.1068,0 0.4272,0 0,2.70562 -0.1068,0 -0.1424,0 -0.6052,0 -0.1068,0 -0.42721,0 -0.712,0 -0.28481,0 -0.2848,0 -0.2848,0 -0.2848,0 -0.71201,0 -0.1068,0 -0.1068,0 -1.10361,0 -0.2492,0 -0.21361,0 -0.2492,0 -0.2136,0 -0.178,0 -0.2136,0 -0.1424,0 -0.64081,0 -0.3916,0 -0.1424,0 -0.14241,0 -0.1424,0 -0.1424,0 -0.6052,0 -0.1068,0 -0.42721,0 0,-0.1424 0,-0.6408 0,-0.28481 0,-0.2848 0,-0.1068 0,-0.1424 0,-0.64081 0,-0.1068 0,-0.712 0,-0.28481 0,-0.1424 0,-0.6408 0,-0.10681 0,-0.1068 0,-1.10361 0,-0.2492 0,-0.1068 0,-0.1424 0,-0.64081 0,-0.4984 0,-0.1068 0,-0.178 0,-0.1068 0,-0.1424 0,-0.10681 0,-0.712 0,-0.60521 0,-0.1068 0,-0.4272 0,-0.46281 0,-0.1424 0,-0.6052 0,-0.1068 0,-0.42721 0,-0.3916 0,-0.178 0,-0.46281 0,-0.1424 0,-0.6052 0,-0.1068 0,-0.42721 z m 1.54862,-3.49773 c 0.979,-0.0178 1.5842,0.40942 1.81561,1.28161 0.0178,0.67049 -0.20767,1.19263 -0.6764,1.56642 -1.07395,0.42722 -1.83342,0.16615 -2.27842,-0.78321 -0.23734,-1.06799 0.14239,-1.75626 1.13921,-2.06482 z m 4.80604,0 c 0.979,-0.0178 1.5842,0.40942 1.81561,1.28161 0.0178,0.67049 -0.20767,1.19263 -0.6764,1.56642 -1.07395,0.42722 -1.83343,0.16615 -2.27842,-0.78321 -0.23734,-1.06799 0.14239,-1.75626 1.13921,-2.06482 z"
           style=""
           id="path2910" />
        <path
           d="m 456.14856,209.4951 0.712,0 0.21361,0 0.2492,0 0.712,0 0.28481,0 0.2848,0 0.2848,0 0.2848,0 0.71201,0 0.1068,0 0.1068,0 1.10361,0 0.2492,0 0.21361,0 0.2492,0 0.2136,0 0.178,0 0.2136,0 0.1424,0 0.64081,0 0.3916,0 0.1424,0 0.14241,0 0.1424,0 0.1424,0 0.6052,0 0.1068,0 0.42721,0 0,2.84803 -0.178,0.178 -0.1424,0.178 -0.14241,0.2492 -0.1424,0.178 -0.178,0.21361 c -0.0237,0.0415 -0.0475,0.0653 -0.0712,0.0712 l -0.0356,0.1068 -0.0712,0.0356 -0.0356,0.1068 -0.1068,0.0712 c -0.11868,0.22548 -0.26108,0.41535 -0.4272,0.5696 l -0.14241,0.24921 c -0.0831,0.0771 -0.14241,0.14834 -0.178,0.2136 l -0.178,0.2136 -0.1424,0.2136 -0.178,0.2136 c -0.13054,0.19582 -0.24921,0.35008 -0.35601,0.46281 l -0.0712,0.1424 -0.0712,0.0712 -0.0712,0.1068 -0.2848,0.3204 -0.0356,0.0712 -0.0356,0.0712 c -0.0949,0.10087 -0.16614,0.19581 -0.2136,0.2848 l -0.178,0.178 -0.1068,0.1424 -0.10681,0.178 -0.1068,0.1424 -0.1424,0.17801 -0.1068,0.1424 -0.2136,0.2848 c -0.0831,0.10681 -0.15427,0.18987 -0.2136,0.2492 l -0.1068,0.178 -0.1068,0.1068 -0.0712,0.1424 -0.14241,0.14241 -0.0712,0.1068 c -0.0831,0.13054 -0.16614,0.23734 -0.2492,0.3204 l -0.0712,0.1424 -0.0712,0.0356 -0.0356,0.1068 -0.0712,0.0356 -0.0356,0.0712 -0.356,0.46281 0.2848,0 0.1424,0 0.6408,0 0.60521,0 0.1068,0 0.4272,0 0.46281,0 0.1424,0 0.60521,0 0.1068,0 0.4272,0 0.3916,0 0.17801,0 0.4628,0 0.1424,0 0.60521,0 0.1068,0 0.4272,0 0,2.52762 c 0.0356,0.16614 -0.0119,0.26107 -0.1424,0.2848 l -0.2492,0 -0.24921,0 -0.2492,0 -0.1068,0 -0.1068,0 -0.4628,0 -0.1068,0 -0.17801,0 -0.1068,0 -0.1424,0 -0.1068,0 -0.71201,0 -0.2848,0 -0.4984,0 -0.1068,0 -0.178,0 -0.10681,0 -0.1424,0 -0.1068,0 -0.712,0 -0.60521,0 -0.1068,0 -0.4272,0 -0.14241,0 -0.1068,0 -0.712,0 -0.1424,0 -0.1068,0 -0.64081,0 -0.4628,0 -0.14241,0 -0.6052,0 -0.1068,0 -0.42721,0 0,-0.1068 0,-0.4628 0,-0.60521 0,-0.3916 0,-0.1424 0,-0.60521 0,-0.1068 0,-0.4272 0.17801,-0.178 0.1424,-0.24921 0.1068,-0.1424 0.0712,-0.1068 0.0712,-0.0356 0.0356,-0.1068 0.0712,-0.0712 0.0712,-0.0712 c 0.13647,-0.20766 0.267,-0.3738 0.3916,-0.49841 l 0.14241,-0.2492 0.0712,-0.0356 c 0.14833,-0.23733 0.29073,-0.4272 0.4272,-0.5696 l 0.0712,-0.1424 0.0712,-0.0712 0.0712,-0.1068 0.0712,-0.0712 c 0.0237,-0.0415 0.0475,-0.0653 0.0712,-0.0712 l 0.42721,-0.6052 0.178,-0.178 0.0356,-0.10681 0.1068,-0.0712 0.0356,-0.0712 0.1424,-0.2136 0.3916,-0.4984 0.14241,-0.2136 0.1068,-0.14241 0.356,-0.4272 0.0356,-0.1068 0.0712,-0.0356 0.0356,-0.0712 0.2848,-0.3916 c 0.0949,-0.10086 0.16613,-0.1958 0.21361,-0.28481 0.10679,-0.12459 0.18986,-0.23139 0.2492,-0.3204 l 0.0712,-0.1068 0.1068,-0.1424 0.1068,-0.0712 0.0356,-0.1068 0.0712,-0.0712 0.0712,-0.10681 0.0356,-0.0712 0.0712,-0.0356 0.0712,-0.1424 0.0712,-0.0712 0.0356,-0.0712 0.0712,-0.0356 c 0.089,-0.16612 0.17206,-0.29666 0.2492,-0.3916 l -0.2492,0 -0.49841,0 -0.1068,0 -0.178,0 -0.1068,0 -0.1424,0 -0.1068,0 -0.71201,0 -0.46281,0 -0.2492,0 -0.4984,0 -0.1068,0 -0.64081,0 -0.4628,0 -0.1424,0 -0.60521,0 -0.1068,0 -0.4272,0 0,-0.46281 0,-0.1424 0,-0.6408 0,-0.1424 0,-0.14241 0,-0.1424 0,-0.6052 0,-0.1068 0,-0.42721 z"
           style=""
           id="path2912" />
      </g>
    </g>
  </g>
</svg>
