<?xml version="1.0" encoding="UTF-8"?>
<svg id="Layer_1" data-name="Layer 1" xmlns="http://www.w3.org/2000/svg" xmlns:xlink="http://www.w3.org/1999/xlink" viewBox="0 0 1496.01 333.8">
  <defs>
    <style>
      .cls-1 {
        fill: #fff;
      }

      .cls-2 {
        fill: url(#linear-gradient);
        stroke: url(#linear-gradient-2);
      }

      .cls-2, .cls-3, .cls-4, .cls-5 {
        stroke-miterlimit: 10;
      }

      .cls-2, .cls-3, .cls-5 {
        stroke-width: .75px;
      }

      .cls-6 {
        fill: #1f3c89;
      }

      .cls-3 {
        fill: url(#linear-gradient-3);
        stroke: url(#linear-gradient-4);
      }

      .cls-7 {
        fill: #9d9d9c;
      }

      .cls-4 {
        stroke: #000;
        stroke-width: 5.05px;
      }

      .cls-4, .cls-8 {
        fill: none;
      }

      .cls-9 {
        fill: #da0e15;
      }

      .cls-5 {
        fill: url(#linear-gradient-5);
        stroke: url(#linear-gradient-6);
      }

      .cls-8 {
        stroke: #fff;
        stroke-width: .35px;
      }

      .cls-10 {
        fill: #239f40;
      }

      .cls-11 {
        fill: #1d1d1b;
      }

      .cls-12 {
        opacity: .3;
      }
    </style>
    <linearGradient id="linear-gradient" x1="1318.8" y1="201.62" x2="1341.97" y2="213.5" gradientUnits="userSpaceOnUse">
      <stop offset="0" stop-color="#b3b3b3"/>
      <stop offset="1" stop-color="#1f1f1f"/>
    </linearGradient>
    <linearGradient id="linear-gradient-2" x1="1318.85" y1="215.51" x2="1339.36" y2="198.29" xlink:href="#linear-gradient"/>
    <linearGradient id="linear-gradient-3" x1="170.8" x2="193.97" y2="213.5" xlink:href="#linear-gradient"/>
    <linearGradient id="linear-gradient-4" x1="170.85" y1="215.51" x2="191.36" y2="198.29" xlink:href="#linear-gradient"/>
    <linearGradient id="linear-gradient-5" x1="737.7" y1="31.15" x2="760.87" y2="43.04" xlink:href="#linear-gradient"/>
    <linearGradient id="linear-gradient-6" x1="737.75" y1="45.05" x2="758.26" y2="27.83" xlink:href="#linear-gradient"/>
  </defs>
  <g id="Border">
    <rect class="cls-1" x="11" y="11" width="1474.02" height="311.81" rx="22.68" ry="22.68"/>
    <path class="cls-1" d="M1462.33,3c16.91,0,30.67,13.76,30.67,30.67V300.13c0,16.91-13.76,30.67-30.67,30.67H33.67c-16.91,0-30.67-13.76-30.67-30.67V33.67C3,16.76,16.76,3,33.67,3H1462.33m0-3H33.67C15.11,0,0,15.11,0,33.67V300.13c0,18.57,15.11,33.67,33.67,33.67H1462.33c18.57,0,33.67-15.11,33.67-33.67V33.67c0-18.57-15.11-33.67-33.67-33.67h0Z"/>
  </g>
  <path class="cls-6" d="M27.75,11h103.7V322.81H27.75c-9.25,0-16.76-7.51-16.76-16.76V27.75c0-9.25,7.51-16.76,16.76-16.76Z"/>
  <g>
    <g id="Border-2" data-name="Border">
      <path class="cls-11" d="M1462.34,11c12.52,0,22.68,10.15,22.68,22.68V300.13c0,12.52-10.15,22.68-22.68,22.68H33.67c-12.52,0-22.68-10.15-22.68-22.68V33.67c0-12.52,10.15-22.68,22.68-22.68H1462.34m0-8H33.67C16.76,3,3,16.76,3,33.67V300.13c0,16.92,13.76,30.68,30.68,30.68H1462.34c16.92,0,30.68-13.76,30.68-30.68V33.67c0-16.92-13.76-30.68-30.68-30.68h0Z"/>
    </g>
    <line class="cls-4" x1="1173.2" y1="7.88" x2="1173.2" y2="325.92"/>
  </g>
  <g id="Flag">
    <rect class="cls-9" x="24.08" y="25.34" width="93.82" height="62.55"/>
    <rect class="cls-1" x="24.08" y="25.34" width="93.82" height="41.7"/>
    <rect class="cls-10" x="24.08" y="25.34" width="93.82" height="20.85"/>
    <g>
      <g id="e">
        <g id="c">
          <path id="b" class="cls-8" d="M25.51,43h5.4m-5.19,2.19v-1.22h1.66v.97h1.66v-.97h-1.04m-1.66,.97h.42m4.15,0h-1.04v-.97h1.66m0-1.22v2.19h1.66v-2.19m-.83,0v2.19"/>
          <path id="a" class="cls-8" d="M25.51,46.17h3.74m.42,0h3.74"/>
          <path id="a-2" data-name="a" class="cls-8" d="M25.51,67.05h3.74m.42,0h3.74"/>
          <path id="b-2" data-name="b" class="cls-8" d="M25.51,68.26h5.4m-5.19,2.19v-1.22h1.66v.97h1.66v-.97h-1.04m-1.66,.97h.42m4.15,0h-1.04v-.97h1.66m0-1.22v2.19h1.66v-2.19m-.83,0v2.19"/>
        </g>
        <g id="d">
          <g id="c-2" data-name="c">
            <path id="b-3" data-name="b" class="cls-8" d="M33.82,43h5.4m-5.19,2.19v-1.22h1.66v.97h1.66v-.97h-1.04m-1.66,.97h.42m4.15,0h-1.04v-.97h1.66m0-1.22v2.19h1.66v-2.19m-.83,0v2.19"/>
            <path id="a-3" data-name="a" class="cls-8" d="M33.82,46.17h3.74m.42,0h3.74"/>
            <path id="a-4" data-name="a" class="cls-8" d="M33.82,67.05h3.74m.42,0h3.74"/>
            <path id="b-4" data-name="b" class="cls-8" d="M33.82,68.26h5.4m-5.19,2.19v-1.22h1.66v.97h1.66v-.97h-1.04m-1.66,.97h.42m4.15,0h-1.04v-.97h1.66m0-1.22v2.19h1.66v-2.19m-.83,0v2.19"/>
          </g>
          <g id="c-3" data-name="c">
            <path id="b-5" data-name="b" class="cls-8" d="M42.12,43h5.4m-5.19,2.19v-1.22h1.66v.97h1.66v-.97h-1.04m-1.66,.97h.42m4.15,0h-1.04v-.97h1.66m0-1.22v2.19h1.66v-2.19m-.83,0v2.19"/>
            <path id="a-5" data-name="a" class="cls-8" d="M42.12,46.17h3.74m.42,0h3.74"/>
            <path id="a-6" data-name="a" class="cls-8" d="M42.12,67.05h3.74m.42,0h3.74"/>
            <path id="b-6" data-name="b" class="cls-8" d="M42.12,68.26h5.4m-5.19,2.19v-1.22h1.66v.97h1.66v-.97h-1.04m-1.66,.97h.42m4.15,0h-1.04v-.97h1.66m0-1.22v2.19h1.66v-2.19m-.83,0v2.19"/>
          </g>
          <g id="c-4" data-name="c">
            <path id="b-7" data-name="b" class="cls-8" d="M50.43,43h5.4m-5.19,2.19v-1.22h1.66v.97h1.66v-.97h-1.04m-1.66,.97h.42m4.15,0h-1.04v-.97h1.66m0-1.22v2.19h1.66v-2.19m-.83,0v2.19"/>
            <path id="a-7" data-name="a" class="cls-8" d="M50.43,46.17h3.74m.42,0h3.74"/>
            <path id="a-8" data-name="a" class="cls-8" d="M50.43,67.05h3.74m.42,0h3.74"/>
            <path id="b-8" data-name="b" class="cls-8" d="M50.43,68.26h5.4m-5.19,2.19v-1.22h1.66v.97h1.66v-.97h-1.04m-1.66,.97h.42m4.15,0h-1.04v-.97h1.66m0-1.22v2.19h1.66v-2.19m-.83,0v2.19"/>
          </g>
        </g>
      </g>
      <g id="d-2" data-name="d">
        <g id="c-5" data-name="c">
          <path id="b-9" data-name="b" class="cls-8" d="M58.74,43h5.4m-5.19,2.19v-1.22h1.66v.97h1.66v-.97h-1.04m-1.66,.97h.42m4.15,0h-1.04v-.97h1.66m0-1.22v2.19h1.66v-2.19m-.83,0v2.19"/>
          <path id="a-9" data-name="a" class="cls-8" d="M58.74,46.17h3.74m.42,0h3.74"/>
          <path id="a-10" data-name="a" class="cls-8" d="M58.74,67.05h3.74m.42,0h3.74"/>
          <path id="b-10" data-name="b" class="cls-8" d="M58.74,68.26h5.4m-5.19,2.19v-1.22h1.66v.97h1.66v-.97h-1.04m-1.66,.97h.42m4.15,0h-1.04v-.97h1.66m0-1.22v2.19h1.66v-2.19m-.83,0v2.19"/>
        </g>
        <g id="c-6" data-name="c">
          <path id="b-11" data-name="b" class="cls-8" d="M67.05,43h5.4m-5.19,2.19v-1.22h1.66v.97h1.66v-.97h-1.04m-1.66,.97h.42m4.15,0h-1.04v-.97h1.66m0-1.22v2.19h1.66v-2.19m-.83,0v2.19"/>
          <path id="a-11" data-name="a" class="cls-8" d="M67.05,46.17h3.74m.42,0h3.74"/>
          <path id="a-12" data-name="a" class="cls-8" d="M67.05,67.05h3.74m.42,0h3.74"/>
          <path id="b-12" data-name="b" class="cls-8" d="M67.05,68.26h5.4m-5.19,2.19v-1.22h1.66v.97h1.66v-.97h-1.04m-1.66,.97h.42m4.15,0h-1.04v-.97h1.66m0-1.22v2.19h1.66v-2.19m-.83,0v2.19"/>
        </g>
        <g id="c-7" data-name="c">
          <path id="b-13" data-name="b" class="cls-8" d="M75.36,43h5.4m-5.19,2.19v-1.22h1.66v.97h1.66v-.97h-1.04m-1.66,.97h.42m4.15,0h-1.04v-.97h1.66m0-1.22v2.19h1.66v-2.19m-.83,0v2.19"/>
          <path id="a-13" data-name="a" class="cls-8" d="M75.36,46.17h3.74m.42,0h3.74"/>
          <path id="a-14" data-name="a" class="cls-8" d="M75.36,67.05h3.74m.42,0h3.74"/>
          <path id="b-14" data-name="b" class="cls-8" d="M75.36,68.26h5.4m-5.19,2.19v-1.22h1.66v.97h1.66v-.97h-1.04m-1.66,.97h.42m4.15,0h-1.04v-.97h1.66m0-1.22v2.19h1.66v-2.19m-.83,0v2.19"/>
        </g>
      </g>
      <g id="e-2" data-name="e">
        <g id="c-8" data-name="c">
          <path id="b-15" data-name="b" class="cls-8" d="M83.66,43h5.4m-5.19,2.19v-1.22h1.66v.97h1.66v-.97h-1.04m-1.66,.97h.42m4.15,0h-1.04v-.97h1.66m0-1.22v2.19h1.66v-2.19m-.83,0v2.19"/>
          <path id="a-15" data-name="a" class="cls-8" d="M83.66,46.17h3.74m.42,0h3.74"/>
          <path id="a-16" data-name="a" class="cls-8" d="M83.66,67.05h3.74m.42,0h3.74"/>
          <path id="b-16" data-name="b" class="cls-8" d="M83.66,68.26h5.4m-5.19,2.19v-1.22h1.66v.97h1.66v-.97h-1.04m-1.66,.97h.42m4.15,0h-1.04v-.97h1.66m0-1.22v2.19h1.66v-2.19m-.83,0v2.19"/>
        </g>
        <g id="d-3" data-name="d">
          <g id="c-9" data-name="c">
            <path id="b-17" data-name="b" class="cls-8" d="M91.97,43h5.4m-5.19,2.19v-1.22h1.66v.97h1.66v-.97h-1.04m-1.66,.97h.42m4.15,0h-1.04v-.97h1.66m0-1.22v2.19h1.66v-2.19m-.83,0v2.19"/>
            <path id="a-17" data-name="a" class="cls-8" d="M91.97,46.17h3.74m.42,0h3.74"/>
            <path id="a-18" data-name="a" class="cls-8" d="M91.97,67.05h3.74m.42,0h3.74"/>
            <path id="b-18" data-name="b" class="cls-8" d="M91.97,68.26h5.4m-5.19,2.19v-1.22h1.66v.97h1.66v-.97h-1.04m-1.66,.97h.42m4.15,0h-1.04v-.97h1.66m0-1.22v2.19h1.66v-2.19m-.83,0v2.19"/>
          </g>
          <g id="c-10" data-name="c">
            <path id="b-19" data-name="b" class="cls-8" d="M100.28,43h5.4m-5.19,2.19v-1.22h1.66v.97h1.66v-.97h-1.04m-1.66,.97h.42m4.15,0h-1.04v-.97h1.66m0-1.22v2.19h1.66v-2.19m-.83,0v2.19"/>
            <path id="a-19" data-name="a" class="cls-8" d="M100.28,46.17h3.74m.42,0h3.74"/>
            <path id="a-20" data-name="a" class="cls-8" d="M100.28,67.05h3.74m.42,0h3.74"/>
            <path id="b-20" data-name="b" class="cls-8" d="M100.28,68.26h5.4m-5.19,2.19v-1.22h1.66v.97h1.66v-.97h-1.04m-1.66,.97h.42m4.15,0h-1.04v-.97h1.66m0-1.22v2.19h1.66v-2.19m-.83,0v2.19"/>
          </g>
          <g id="c-11" data-name="c">
            <path id="b-21" data-name="b" class="cls-8" d="M108.59,43h5.4m-5.19,2.19v-1.22h1.66v.97h1.66v-.97h-1.04m-1.66,.97h.42m4.15,0h-1.04v-.97h1.66m0-1.22v2.19h1.66v-2.19m-.83,0v2.19"/>
            <path id="a-21" data-name="a" class="cls-8" d="M108.59,46.17h3.74m.42,0h3.74"/>
            <path id="a-22" data-name="a" class="cls-8" d="M108.59,67.05h3.74m.42,0h3.74"/>
            <path id="b-22" data-name="b" class="cls-8" d="M108.59,68.26h5.4m-5.19,2.19v-1.22h1.66v.97h1.66v-.97h-1.04m-1.66,.97h.42m4.15,0h-1.04v-.97h1.66m0-1.22v2.19h1.66v-2.19m-.83,0v2.19"/>
          </g>
        </g>
      </g>
    </g>
    <g>
      <path class="cls-9" d="M75.69,58.57c.89-2.73,.05-5.73-2.13-7.61,2.37,3.5,1.51,8.22-1.88,10.69l.24-5.83v-4.6c-.37-.18-.69-.44-.92-.77-.24,.33-.55,.6-.92,.77v4.6l.24,5.83c-3.39-2.47-4.25-7.19-1.88-10.69-2.18,1.87-3.02,4.87-2.13,7.61,.6,1.83,1.87,3.26,3.45,4.1-.97,.35-1.99,.53-3.03,.48,1.23,.4,2.49,.44,3.67,.19v.25s.62,.84,.62,.84l.61-.84v-.25c1.19,.25,2.45,.21,3.68-.19-1.04,.05-2.07-.13-3.03-.48,1.58-.84,2.85-2.26,3.45-4.1Z"/>
      <path class="cls-9" d="M78.01,53.62c-.81-1.4-2.15-2.41-3.72-2.81,3.45,2.59,4.15,7.5,1.55,10.95,0,0,0,.01-.01,.02,2.86-1.65,3.83-5.3,2.18-8.16Z"/>
      <path class="cls-9" d="M69.42,50.38c.51,.36,1.21,.24,1.57-.27,.36,.51,1.06,.63,1.57,.27,.43-.3,.59-.86,.4-1.34-.11,.58-.67,.96-1.25,.85-.3-.06-.57-.24-.73-.51-.16,.27-.42,.46-.72,.51-.58,.11-1.14-.27-1.25-.85-.19,.49-.03,1.04,.4,1.34Z"/>
      <path class="cls-9" d="M67.7,50.81c-1.57,.39-2.91,1.4-3.72,2.81-1.65,2.86-.67,6.51,2.18,8.16,0,0,0-.01-.01-.02-2.59-3.45-1.9-8.35,1.55-10.95Z"/>
    </g>
  </g>
  <g>
    <path class="cls-1" d="M24.39,263.18v-28.63h5.78v28.63h-5.78Z"/>
    <path class="cls-1" d="M35.64,263.18v-5.49h5.49v5.49h-5.49Z"/>
    <path class="cls-1" d="M46.81,263.18v-28.63h12.17c3.06,0,5.28,.26,6.67,.77,1.39,.51,2.5,1.43,3.33,2.74,.83,1.32,1.25,2.82,1.25,4.51,0,2.15-.63,3.92-1.89,5.32-1.26,1.4-3.15,2.28-5.66,2.65,1.25,.73,2.28,1.53,3.1,2.4,.81,.87,1.91,2.42,3.29,4.65l3.5,5.59h-6.91l-4.18-6.23c-1.48-2.23-2.5-3.63-3.05-4.21-.55-.58-1.13-.98-1.74-1.19-.61-.21-1.58-.32-2.91-.32h-1.17v11.95h-5.78Zm5.78-16.52h4.28c2.77,0,4.5-.12,5.2-.35,.69-.23,1.23-.64,1.62-1.21,.39-.57,.59-1.29,.59-2.15,0-.96-.26-1.74-.77-2.33-.51-.59-1.24-.97-2.18-1.12-.47-.06-1.88-.1-4.22-.1h-4.51v7.27Z"/>
    <path class="cls-1" d="M75.64,263.18v-5.49h5.49v5.49h-5.49Z"/>
    <path class="cls-1" d="M24.39,303.18v-28.63h5.78v28.63h-5.78Z"/>
    <path class="cls-1" d="M35.7,303.18v-28.63h12.17c3.06,0,5.28,.26,6.67,.77s2.5,1.43,3.33,2.74c.83,1.32,1.25,2.82,1.25,4.51,0,2.15-.63,3.92-1.89,5.32-1.26,1.4-3.15,2.28-5.66,2.65,1.25,.73,2.28,1.53,3.1,2.4,.81,.87,1.91,2.42,3.29,4.65l3.5,5.59h-6.91l-4.18-6.23c-1.48-2.23-2.5-3.63-3.05-4.21s-1.13-.98-1.74-1.19c-.61-.21-1.58-.32-2.91-.32h-1.17v11.95h-5.78Zm5.78-16.52h4.28c2.77,0,4.5-.12,5.2-.35,.69-.23,1.23-.64,1.62-1.21s.59-1.29,.59-2.15c0-.96-.26-1.74-.77-2.33-.51-.59-1.24-.97-2.18-1.12-.47-.07-1.88-.1-4.22-.1h-4.51v7.27Z"/>
    <path class="cls-1" d="M90.39,303.18h-6.29l-2.5-6.5h-11.45l-2.36,6.5h-6.13l11.15-28.63h6.11l11.46,28.63Zm-10.64-11.33l-3.95-10.62-3.87,10.62h7.81Z"/>
    <path class="cls-1" d="M93.51,303.18v-28.63h5.62l11.72,19.12v-19.12h5.37v28.63h-5.8l-11.54-18.67v18.67h-5.37Z"/>
  </g>
  <g id="Iran">
    <rect class="cls-11" x="1425.98" y="31.31" width="10.25" height="41" rx="3.89" ry="3.89"/>
    <path class="cls-11" d="M1402.57,37.68c0,2.15-1.74,3.89-3.89,3.89h-33.23c-2.15,0-3.89-1.74-3.89-3.89v-2.48c0-2.15-1.74-3.89-3.89-3.89h-2.48c-2.15,0-3.89,1.74-3.89,3.89v22.98c0,2.15-1.74,3.89-3.89,3.89h-16.86c-2.15,0-3.89,1.74-3.89,3.89v2.48c0,2.15,1.74,3.89,3.89,3.89h27.11c2.15,0,3.89-1.74,3.89-3.89v-12.73c0-2.15,1.74-3.89,3.89-3.89h43.48c2.15,0,3.89-1.74,3.89-3.89v-12.73c0-2.15-1.74-3.89-3.89-3.89h-2.48c-2.15,0-3.89,1.74-3.89,3.89v2.48Z"/>
    <rect class="cls-11" x="1382.07" y="62.07" width="10.25" height="10.25" rx="3.89" ry="3.89"/>
    <rect class="cls-11" x="1399.02" y="62.07" width="10.25" height="10.25" rx="3.89" ry="3.89"/>
    <rect class="cls-11" x="1299.89" y="31.31" width="10.25" height="41" rx="3.89" ry="3.89"/>
    <path class="cls-11" d="M1273.24,58.18c0,2.15-1.74,3.89-3.89,3.89h-33.23c-2.15,0-3.89-1.74-3.89-3.89v-22.98c0-2.15-1.74-3.89-3.89-3.89h-2.48c-2.15,0-3.89,1.74-3.89,3.89v33.23c0,2.15,1.74,3.89,3.89,3.89h53.73c2.15,0,3.89-1.74,3.89-3.89V35.2c0-2.15-1.74-3.89-3.89-3.89h-2.48c-2.15,0-3.89,1.74-3.89,3.89v22.98Z"/>
    <rect class="cls-11" x="1247.61" y="31.31" width="10.25" height="10.25" rx="3.89" ry="3.89"/>
  </g>
  <g>
    <g>
      <path class="cls-11" d="M1266.88,295.32v-2c0-66-13.69-117.58-40.7-153.32l-.72-.95,22.05-48.31,2.04,2.41c17.95,21.28,30.89,50.06,38.44,85.55,6.39,29.98,9.62,68.54,9.62,114.61v2h-30.73Z"/>
      <path class="cls-11" d="M1248.02,94.45c17.82,21.12,30.49,49.35,38.01,84.68,6.39,29.98,9.58,68.04,9.58,114.19h-26.73c0-66.76-13.7-118.26-41.1-154.52l20.24-44.35m-1.02-7.41l-2.62,5.75-20.24,44.35-.99,2.17,1.44,1.9c26.74,35.38,40.3,86.56,40.3,152.11v4h34.73v-4c0-46.21-3.25-84.91-9.67-115.03-7.62-35.82-20.7-64.9-38.87-86.43l-4.07-4.83h0Z"/>
    </g>
    <g>
      <path class="cls-11" d="M1396.86,295.32v-2c0-66-13.69-117.58-40.7-153.32l-.72-.95,22.05-48.31,2.04,2.41c17.95,21.28,30.89,50.06,38.44,85.55,6.39,29.98,9.62,68.54,9.62,114.61v2h-30.73Z"/>
      <path class="cls-11" d="M1377.99,94.45c17.82,21.12,30.49,49.35,38.01,84.68,6.39,29.98,9.58,68.04,9.58,114.19h-26.73c0-66.76-13.7-118.26-41.1-154.52l20.24-44.35m-1.02-7.41l-2.62,5.75-20.24,44.35-.99,2.17,1.44,1.9c26.74,35.38,40.3,86.56,40.3,152.11v4h34.73v-4c0-46.21-3.25-84.91-9.67-115.03-7.62-35.82-20.7-64.9-38.87-86.43l-4.07-4.83h0Z"/>
    </g>
  </g>
  <g id="Screw" class="cls-12">
    <circle class="cls-2" cx="1329.11" cy="206.9" r="13.01"/>
    <g>
      <rect class="cls-7" x="1327.34" y="201.49" width="3.54" height="10.82" transform="translate(535.59 -879.22) rotate(45)"/>
      <rect class="cls-7" x="1327.34" y="201.49" width="3.54" height="10.82" transform="translate(2415.23 -586.62) rotate(135)"/>
    </g>
  </g>
  <path d="M1462.33,3H33.67C16.73,3,3,16.73,3,33.67V300.13c0,16.94,13.73,30.68,30.68,30.68H1462.34c16.94,0,30.68-13.73,30.68-30.68V33.67c0-16.94-13.73-30.68-30.68-30.68ZM11,300.13V33.67c0-12.52,10.15-22.68,22.68-22.68H1153.38c9.55,0,17.3,7.75,17.3,17.3V305.51c0,9.55-7.75,17.3-17.3,17.3H33.67c-12.52,0-22.68-10.15-22.68-22.68Zm1474.02,0c0,12.52-10.15,22.68-22.68,22.68h-269.31c-9.55,0-17.3-7.75-17.3-17.3V28.3c0-9.55,7.75-17.3,17.3-17.3h269.31c12.52,0,22.68,10.15,22.68,22.68V300.13Z"/>
  <g>
    <g>
      <path class="cls-11" d="M207.28,275.39v-2c0-73.9-13.72-131.66-40.79-171.69l-.6-.89,21.99-53.84,2.12,2.81c17.94,23.76,30.86,55.9,38.4,95.53,6.38,33.5,9.62,76.59,9.62,128.08v2h-30.75Z"/>
      <path class="cls-11" d="M188.41,50.98c17.83,23.62,30.51,55.19,38.04,94.7,6.39,33.52,9.59,76.1,9.59,127.7h-26.75c0-74.65-13.71-132.25-41.13-172.81l20.25-49.6m-1.04-8.02l-2.66,6.51-20.25,49.6-.81,1.98,1.2,1.77c26.84,39.69,40.44,97.08,40.44,170.57v4h34.75v-4c0-51.62-3.25-94.84-9.66-128.45-7.61-39.94-20.65-72.36-38.77-96.36l-4.24-5.61h0Z"/>
    </g>
    <g>
      <path class="cls-11" d="M304.09,275.39v-2c0-73.44-13.72-131.21-40.79-171.7l-.59-.88,21.98-54.65,2,3.9c10.07,19.68,17.83,32.56,23.04,38.27,5.42,5.96,12.02,8.85,20.17,8.85,10,0,16.66-3.44,20.34-10.5,2.93-5.57,4.41-14.73,4.41-27.24v-1.28l27.81-12.72v3.11c0,67.56-19.11,102.5-56.8,103.91,5.89,31.78,8.87,72.44,8.87,120.91v2h-30.44Z"/>
      <path class="cls-11" d="M380.46,48.56c0,67.97-19.07,101.96-57.21,101.96,6.18,32.14,9.28,73.1,9.28,122.87h-26.44c0-74.19-13.71-131.79-41.13-172.81l19.95-49.6c10.21,19.93,17.99,32.83,23.35,38.71,5.77,6.34,12.99,9.5,21.65,9.5,10.72,0,18.09-3.86,22.11-11.58,3.09-5.88,4.64-15.26,4.64-28.17l23.81-10.89m-95.99-7.21l-3.27,8.14-19.95,49.6-.79,1.96,1.17,1.76c26.84,40.16,40.45,97.55,40.45,170.58v4h34.44v-4c0-47.46-2.86-87.48-8.5-119.04,18.19-1.35,32.18-10.53,41.62-27.36,9.83-17.52,14.81-43.9,14.81-78.43v-6.23l-5.66,2.59-23.81,10.89-2.34,1.07v2.57c0,12.19-1.41,21.04-4.18,26.3-3.31,6.36-9.38,9.44-18.57,9.44-7.55,0-13.67-2.68-18.69-8.2-5.1-5.59-12.75-18.32-22.74-37.84l-4-7.81h0Z"/>
    </g>
    <g>
      <path class="cls-11" d="M487.13,240.55l22.67-33.78,31.27,23.36-22.67,33.79-31.27-23.37Zm9.6-55.6c-62.27,0-93.84-20.91-93.84-62.14,0-12.33,4.06-27.6,12.08-45.41l.75-1.67,27.07,9.42-.8,1.95c-4.41,10.76-6.65,18.47-6.65,22.92,0,9.19,3.01,15.78,9.2,20.14,9.6,6.75,27.74,10.18,53.89,10.18h19.17c22.37,0,43.7-3.11,63.42-9.24,23.85-7.4,26.43-12.85,26.43-14.85s-2-8.41-15.4-27.36l-.77-1.08,22.54-36.25,1.78,2.03c13.87,15.86,20.9,34.55,20.9,55.58,0,25.28-11.94,44.49-35.5,57.1-23.15,12.4-58.23,18.68-104.27,18.68Z"/>
      <path class="cls-11" d="M614.08,54.9c13.61,15.55,20.41,33.64,20.41,54.26,0,49.19-45.92,73.79-137.76,73.79-61.23,0-91.84-20.05-91.84-60.14,0-12.1,3.97-26.96,11.91-44.58l23.35,8.12c-4.54,11.06-6.8,18.95-6.8,23.67,0,9.79,3.35,17.05,10.05,21.77,10,7.03,28.35,10.54,55.04,10.54h19.17c22.68,0,44.01-3.11,64.01-9.33,18.55-5.76,27.83-11.35,27.83-16.76,0-4.15-5.26-13.65-15.77-28.51l20.41-32.83m-103.79,154.73l28.06,20.97-20.44,30.46-28.06-20.97,20.44-30.46m103.25-161.43l-2.85,4.59-20.41,32.83-1.4,2.25,1.53,2.17c13.95,19.72,15.04,25.04,15.04,26.2,0,.21-.28,5.27-25.02,12.94-19.52,6.07-40.66,9.15-62.83,9.15h-19.17c-25.74,0-43.48-3.3-52.74-9.81-5.62-3.96-8.35-10.01-8.35-18.5,0-2.88,1.13-9.05,6.5-22.16l1.6-3.91-3.99-1.39-23.35-8.12-3.46-1.2-1.5,3.34c-8.13,18.06-12.26,33.61-12.26,46.23,0,21.39,8.33,37.69,24.77,48.45,15.9,10.41,39.81,15.69,71.07,15.69,46.37,0,81.77-6.37,105.21-18.92,24.25-12.99,36.55-32.8,36.55-58.87,0-21.52-7.2-40.66-21.4-56.9l-3.56-4.07h0Zm-104.23,155.71l-2.34,3.49-20.44,30.46-2.12,3.16,3.05,2.28,28.06,20.97,3.37,2.52,2.34-3.49,20.44-30.46,2.12-3.16-3.05-2.28-28.06-20.97-3.37-2.52h0Z"/>
    </g>
    <g>
      <path class="cls-11" d="M703.37,275.39v-2c0-73.9-13.72-131.66-40.79-171.69l-.6-.89,22.31-54.63,1.98,3.9c10.62,20.88,17.78,33.8,21.3,38.4,4.39,5.87,9.48,8.72,15.57,8.72,6.86,0,11.13-3.74,13.06-11.45,.88-3.51,1.33-11.43,1.33-23.53v-1.13l21.94-13.1v3.52c0,10.28,1.02,19.66,3.03,27.86,2.93,11.83,7.32,17.83,13.06,17.83,3.18,0,12.84,0,12.84-24.96,0-4.05-.31-8.5-.91-13.23l-.18-1.41,25.59-12.67,.21,2.97c.42,5.82,.62,11.52,.62,16.93,0,18.98-2.96,36-8.8,50.6-7.93,19.79-19.89,29.82-35.56,29.82-7.04,0-13.5-2.57-19.23-7.66-7.21,9.14-15.62,14.11-25.07,14.83,6,32.77,9.04,73.44,9.04,120.96v2h-30.75Z"/>
      <path class="cls-11" d="M811.13,48.04c.41,5.77,.62,11.37,.62,16.79,0,18.81-2.89,35.43-8.66,49.86-7.63,19.04-18.86,28.56-33.71,28.56-7.22,0-13.71-2.88-19.48-8.64-7.73,10.6-16.8,15.9-27.21,15.9,6.29,33.18,9.43,74.13,9.43,122.87h-26.75c0-74.65-13.71-132.25-41.13-172.81l20.25-49.6c10.72,21.08,17.88,33.99,21.49,38.71,4.74,6.34,10.46,9.5,17.16,9.5,7.83,0,12.83-4.32,15-12.96,.93-3.69,1.39-11.69,1.39-24.02l17.94-10.71c0,10.48,1.03,19.93,3.09,28.34,3.2,12.9,8.2,19.35,15,19.35,9.9,0,14.84-8.99,14.84-26.96,0-4.15-.31-8.64-.93-13.48l21.65-10.71m-127.03-6.67l-3.31,8.09-20.25,49.6-.81,1.98,1.2,1.77c26.84,39.69,40.44,97.08,40.44,170.57v4h34.75v-4c0-46.62-2.92-86.68-8.69-119.2,8.57-1.23,16.28-5.83,22.99-13.75,5.7,4.53,12.06,6.82,18.97,6.82,16.57,0,29.16-10.46,37.42-31.08,5.94-14.84,8.95-32.11,8.95-51.35,0-5.45-.21-11.2-.63-17.08l-.42-5.95-5.34,2.64-21.65,10.71-2.55,1.26,.36,2.83c.59,4.65,.89,9.01,.89,12.97,0,22.96-8.16,22.96-10.84,22.96-5.85,0-9.27-8.87-11.12-16.32-1.97-8.04-2.97-17.25-2.97-27.38v-7.05l-6.05,3.61-17.94,10.71-1.95,1.16v2.27c0,14.87-.69,20.74-1.27,23.04-2.21,8.81-7.1,9.94-11.12,9.94-5.42,0-9.98-2.58-13.96-7.9-3.47-4.54-10.57-17.35-21.13-38.13l-3.96-7.79h0Z"/>
    </g>
    <g>
      <path class="cls-11" d="M878.7,275.39v-2c0-73.44-13.72-131.21-40.79-171.7l-.59-.88,21.67-53.88,2.13,2.85c7.93,10.61,14.79,21.48,20.47,32.38,1.39-7.76,4.68-15.41,9.83-22.82,8.6-12.38,20.18-18.66,34.42-18.66s25.88,6.11,33.97,18.17l.61,.9-8.78,20.43-1.98-1.25c-6.75-4.27-14.25-6.43-22.28-6.43-6.16,0-11.24,1.82-15.54,5.56-4.53,4.01-6.73,9.23-6.73,15.94,0,10.86,7.94,16.15,24.29,16.15,15.16,0,28.16-5.21,38.65-15.5l1.94-1.9,10.52,20.41-.45,.9c-13.29,27-34.91,40.69-64.26,40.69-5.11,0-10.28-.54-15.39-1.61,5.8,31.05,8.74,71.48,8.74,120.23v2h-30.44Z"/>
      <path class="cls-11" d="M925.85,42.69c13.81,0,24.58,5.76,32.32,17.28l-7.42,17.28c-7.11-4.49-14.9-6.74-23.35-6.74-6.6,0-12.22,2.02-16.85,6.05-4.95,4.38-7.42,10.2-7.42,17.45,0,12.1,8.76,18.14,26.28,18.14,15.77,0,29.12-5.36,40.05-16.07l8.81,17.11c-12.99,26.38-33.81,39.57-62.47,39.57-5.98,0-11.96-.75-17.94-2.25,6.18,31.45,9.28,72.41,9.28,122.87h-26.44c0-74.19-13.71-131.79-41.13-172.81l19.95-49.6c9.38,12.56,17.16,25.29,23.35,38.19,.31-9.79,3.71-19.35,10.21-28.69,8.25-11.86,19.17-17.8,32.78-17.8m0-4c-14.93,0-27.06,6.57-36.06,19.52-4.16,5.97-7.14,12.11-8.94,18.34-5.2-9.41-11.27-18.78-18.13-27.96l-4.26-5.7-2.66,6.61-19.95,49.6-.79,1.96,1.17,1.76c26.84,40.15,40.45,97.55,40.45,170.58v4h34.44v-4c0-47.39-2.77-86.95-8.25-117.72,4.3,.73,8.62,1.1,12.9,1.1,30.17,0,52.4-14.07,66.05-41.81l.89-1.81-.92-1.79-8.81-17.11-2.48-4.82-3.87,3.8c-10.24,10.04-22.43,14.93-37.25,14.93-22.28,0-22.28-10.28-22.28-14.14,0-6.11,1.99-10.84,6.07-14.46,3.9-3.39,8.55-5.04,14.2-5.04,7.64,0,14.78,2.06,21.21,6.12l3.96,2.5,1.85-4.31,7.42-17.28,.86-2-1.21-1.81c-8.49-12.64-20.48-19.05-35.64-19.05h0Z"/>
    </g>
    <g>
      <path class="cls-11" d="M1030.93,278.5c-14.01,0-24.64-6.21-31.58-18.47-5.71-9.93-8.61-23.05-8.61-39,0-32.99,14.9-71.41,44.29-114.23l-9.07-9.97,20.28-47.95,2.08,1.79c22.24,19.19,41.02,42.64,55.8,69.68,16.48,30.23,24.83,60.03,24.83,88.57,0,18.07-4.38,33.62-13.03,46.23-8.1,11.7-17.34,17.63-27.47,17.63-11.33,0-20.37-3.84-26.92-11.42-8.08,11.36-18.36,17.12-30.59,17.12Zm24.1-154.21c-23.39,34.79-35.24,61.51-35.24,79.45,0,5.83,1.41,11.12,4.2,15.73,2.94,4.93,6.63,7.33,11.28,7.33,9.72,0,17.1-4.64,22.54-14.2l2.26-3.97,1.38,4.36c1,3.16,3.4,6.2,7.12,9.04,3.69,2.82,7.11,4.25,10.15,4.25,13.93,0,20.42-6.17,20.42-19.43,0-11.91-5.32-26.97-15.8-44.78-8.48-14.43-17.99-27.13-28.29-37.78Z"/>
      <path class="cls-11" d="M1047.01,52.19c22.16,19.13,40.61,42.17,55.35,69.12,16.39,30.07,24.58,59.27,24.58,87.61,0,17.74-4.23,32.78-12.68,45.1-7.73,11.17-16.34,16.76-25.82,16.76-11.75,0-20.77-4.26-27.06-12.79-7.94,12.33-18.09,18.49-30.46,18.49-13.3,0-23.25-5.82-29.84-17.45-5.57-9.68-8.35-22.35-8.35-38.02,0-33.06,14.95-71.2,44.84-114.4l-9.28-10.2,18.71-44.24m-11.75,176.61c10.41,0,18.5-5.07,24.28-15.21,1.13,3.57,3.74,6.91,7.81,10.02,4.07,3.11,7.86,4.67,11.36,4.67,14.95,0,22.42-7.14,22.42-21.43,0-12.33-5.36-27.59-16.08-45.8-9.07-15.44-19.17-28.74-30.3-39.92-24.64,36.29-36.95,63.83-36.95,82.6,0,6.22,1.49,11.81,4.48,16.76,3.3,5.53,7.63,8.29,12.99,8.29m10.21-183.23l-2.14,5.06-18.71,44.24-1,2.36,1.72,1.89,7.14,7.85c-29.03,42.63-43.75,80.99-43.75,114.05,0,16.3,2.99,29.76,8.88,40.01,7.32,12.9,18.53,19.46,33.31,19.46,12.2,0,22.52-5.37,30.76-15.99,6.77,6.83,15.75,10.29,26.76,10.29s20.62-6.22,29.11-18.49c8.89-12.96,13.39-28.9,13.39-47.38,0-28.88-8.44-59.01-25.07-89.53-14.9-27.26-33.83-50.89-56.25-70.24l-4.16-3.59h0Zm-10.21,179.23c-2.48,0-6.16-.66-9.55-6.34-2.61-4.31-3.92-9.26-3.92-14.71,0-17.18,11.27-42.83,33.52-76.27,9.54,10.16,18.37,22.12,26.29,35.61,10.31,17.5,15.53,32.22,15.53,43.77s-5.68,17.43-18.42,17.43c-2.59,0-5.6-1.29-8.94-3.84-3.39-2.59-5.55-5.3-6.42-8.05l-2.76-8.71-4.52,7.94c-5.05,8.87-11.86,13.19-20.8,13.19h0Z"/>
    </g>
  </g>
  <g id="Screw-2" data-name="Screw" class="cls-12">
    <circle class="cls-3" cx="181.11" cy="206.9" r="13.01"/>
    <g>
      <rect class="cls-7" x="179.34" y="201.49" width="3.54" height="10.82" transform="translate(199.35 -67.46) rotate(45)"/>
      <rect class="cls-7" x="179.34" y="201.49" width="3.54" height="10.82" transform="translate(455.47 225.14) rotate(135)"/>
    </g>
  </g>
  <g id="Screw-3" data-name="Screw" class="cls-12">
    <circle class="cls-5" cx="748" cy="36.44" r="13.01"/>
    <g>
      <rect class="cls-7" x="746.24" y="31.03" width="3.54" height="10.82" transform="translate(244.85 -518.25) rotate(45)"/>
      <rect class="cls-7" x="746.24" y="31.03" width="3.54" height="10.82" transform="translate(1302.69 -466.71) rotate(135)"/>
    </g>
  </g>
</svg>