<?xml version="1.0" encoding="UTF-8" standalone="no"?>
<!-- Created with Inkscape (http://www.inkscape.org/) -->

<svg
   xmlns:dc="http://purl.org/dc/elements/1.1/"
   xmlns:cc="http://creativecommons.org/ns#"
   xmlns:rdf="http://www.w3.org/1999/02/22-rdf-syntax-ns#"
   xmlns:svg="http://www.w3.org/2000/svg"
   xmlns="http://www.w3.org/2000/svg"
   xmlns:sodipodi="http://sodipodi.sourceforge.net/DTD/sodipodi-0.dtd"
   xmlns:inkscape="http://www.inkscape.org/namespaces/inkscape"
   width="81.945999cm"
   height="81.945999cm"
   viewBox="0 0 819.45999 819.45995"
   version="1.1"
   id="svg8"
   inkscape:version="0.92.4 (5da689c313, 2019-01-14)"
   sodipodi:docname="Colombia_road_sign_SP-46A.svg">
  <defs
     id="defs2" />
  <sodipodi:namedview
     id="base"
     pagecolor="#ffffff"
     bordercolor="#666666"
     borderopacity="1.0"
     inkscape:pageopacity="0.0"
     inkscape:pageshadow="2"
     inkscape:zoom="0.22456646"
     inkscape:cx="2900.4513"
     inkscape:cy="1475.1112"
     inkscape:document-units="cm"
     inkscape:current-layer="layer1"
     showgrid="false"
     units="cm"
     inkscape:window-width="1920"
     inkscape:window-height="1057"
     inkscape:window-x="-8"
     inkscape:window-y="-8"
     inkscape:window-maximized="1"
     fit-margin-top="0"
     fit-margin-left="0"
     fit-margin-right="0"
     fit-margin-bottom="0" />
  <metadata
     id="metadata5">
    <rdf:RDF>
      <cc:Work
         rdf:about="">
        <dc:format>image/svg+xml</dc:format>
        <dc:type
           rdf:resource="http://purl.org/dc/dcmitype/StillImage" />
        <dc:title></dc:title>
      </cc:Work>
    </rdf:RDF>
  </metadata>
  <g
     inkscape:label="Layer 1"
     inkscape:groupmode="layer"
     id="layer1"
     transform="translate(-463.72993,964.45999)">
    <rect
       style="fill:#cdff00;fill-opacity:1;stroke:none;stroke-width:59.79019928;stroke-miterlimit:4;stroke-dasharray:none;stroke-opacity:1"
       id="rect815"
       width="600"
       height="600"
       x="709.8855"
       y="-74.623909"
       rx="40"
       ry="40"
       transform="rotate(-45)" />
    <rect
       y="-62.623962"
       x="721.8855"
       height="576"
       width="576"
       id="rect12551"
       style="fill:#000000;fill-opacity:1;stroke:none;stroke-width:57.39859009;stroke-miterlimit:4;stroke-dasharray:none;stroke-opacity:1"
       rx="28"
       ry="28"
       transform="rotate(-45)" />
    <rect
       y="-50.623962"
       x="733.88544"
       height="552"
       width="552"
       id="rect12553"
       style="fill:#cdff00;fill-opacity:1;stroke:none;stroke-width:55.00698471;stroke-miterlimit:4;stroke-dasharray:none;stroke-opacity:1"
       rx="16"
       ry="16"
       transform="rotate(-45)" />
    <path
       d="m 839.59962,-702.11587 -34.32101,69.31657 -51.81741,16.15263 c -15.44451,7.9424 -8.98128,27.95166 6.05436,22.88158 l 62.58766,-14.13198 26.91776,-34.99815 26.9204,69.31918 -51.82006,90.17725 -28.26407,102.96569 c -5.65857,17.1996 21.48321,30.90715 30.95661,8.74691 l 28.26406,-98.92684 51.81748,-53.83558 47.7838,158.14492 c 9.7781,15.27258 33.20389,3.88001 30.28474,-9.41876 l -31.63105,-176.99539 c 6.87467,-4.93201 9.32761,-18.06929 4.03627,-26.91778 l -42.39613,-99.59866 45.09126,19.51715 19.51457,51.82006 c 7.72095,15.17624 27.18604,6.22877 22.20714,-8.7496 l -20.86349,-63.26203 -88.15917,-39.70359 z"
       style="fill:#000000;fill-opacity:1;fill-rule:evenodd;stroke:none;stroke-width:2.6040225"
       id="path1755"
       inkscape:connector-curvature="0"
       sodipodi:nodetypes="ccccccccccccccccccccccc" />
    <circle
       style="fill:#000000;fill-opacity:1;stroke:none;stroke-width:17.46869278;stroke-miterlimit:4;stroke-dasharray:none;stroke-opacity:1"
       id="path2407"
       cx="848.62994"
       cy="-753.90002"
       r="34.299999" />
    <path
       d="m 989.45655,-434.00001 h 84.00715 v -20 h -87.60381 z m -129.19666,0 h 57.9 l -6,-20 h -46.1 z m -186.79999,0 h 121.6 l 5.5,-20 h -127.1 z"
       style="fill:#000000;fill-opacity:1;fill-rule:evenodd;stroke:none;stroke-width:2.99593306"
       id="path1751"
       inkscape:connector-curvature="0"
       sodipodi:nodetypes="ccccccccccccccc" />
    <path
       inkscape:connector-curvature="0"
       id="path2331"
       style="fill:#000000;fill-opacity:1;fill-rule:evenodd;stroke:none;stroke-width:2.99590993"
       d="m 748.4599,-314.00001 h 250 v -20 h -250 z"
       sodipodi:nodetypes="ccccc" />
  </g>
</svg>
