<?xml version="1.0" encoding="UTF-8" standalone="no"?>
<!-- Created with Inkscape (http://www.inkscape.org/) -->

<svg
   xmlns:dc="http://purl.org/dc/elements/1.1/"
   xmlns:cc="http://creativecommons.org/ns#"
   xmlns:rdf="http://www.w3.org/1999/02/22-rdf-syntax-ns#"
   xmlns:svg="http://www.w3.org/2000/svg"
   xmlns="http://www.w3.org/2000/svg"
   xmlns:sodipodi="http://sodipodi.sourceforge.net/DTD/sodipodi-0.dtd"
   xmlns:inkscape="http://www.inkscape.org/namespaces/inkscape"
   width="1499.9781"
   height="400.00388"
   id="svg8379"
   version="1.1"
   inkscape:version="0.48.5 r10040"
   sodipodi:docname="A1.svg">
  <defs
     id="defs8381" />
  <sodipodi:namedview
     id="base"
     pagecolor="#ffffff"
     bordercolor="#666666"
     borderopacity="1.0"
     inkscape:pageopacity="0.0"
     inkscape:pageshadow="2"
     inkscape:zoom="0.24748737"
     inkscape:cx="1164.1485"
     inkscape:cy="-24.17248"
     inkscape:document-units="px"
     inkscape:current-layer="layer1"
     showgrid="false"
     fit-margin-top="0"
     fit-margin-left="0"
     fit-margin-right="0"
     fit-margin-bottom="0"
     inkscape:window-width="1366"
     inkscape:window-height="705"
     inkscape:window-x="-8"
     inkscape:window-y="-8"
     inkscape:window-maximized="1" />
  <metadata
     id="metadata8384">
    <rdf:RDF>
      <cc:Work
         rdf:about="">
        <dc:format>image/svg+xml</dc:format>
        <dc:type
           rdf:resource="http://purl.org/dc/dcmitype/StillImage" />
        <dc:title />
      </cc:Work>
    </rdf:RDF>
  </metadata>
  <g
     inkscape:label="Livello 1"
     inkscape:groupmode="layer"
     id="layer1"
     transform="translate(0,-652.35831)">
    <path
       sodipodi:nodetypes="cccccccccc"
       inkscape:connector-curvature="0"
       id="path8803"
       d="m 0,1052.3544 0,-399.99609 1120.0625,0 c 23.4034,0 44.8824,5.10542 69.0781,18.34766 l 300.3906,164.04686 c 6.8932,3.9496 10.4469,10.2354 10.4469,17.4529 0,7.374 -3.406,13.5114 -10.146,17.5859 l -301.8794,164.97677 c -20.5792,11.2786 -43.9414,17.5938 -67.9529,17.5938 z"
       style="fill:#00408b;fill-opacity:1;stroke:none" />
    <path
       sodipodi:nodetypes="cccccccccccc"
       inkscape:connector-curvature="0"
       id="path8799"
       d="m 90.0569,1042.361 c -44.1852,0 -80.0738,-35.6998 -80.0737,-80.06382 L 9.9831,742.28407 c 0,-45.25859 36.9616,-79.93222 80.0682,-79.93222 l 1029.9176,0 c 23.9261,0 43.4222,5.57562 63.9062,16.88306 l 301.0002,164.37502 c 3.2602,1.8628 4.8197,4.9379 5.0874,8.1527 0.196,3.9945 -1.8549,7.4083 -5.1267,9.3028 l -302.6484,165.35687 c -18.396,9.9948 -39.3411,15.9939 -62.2629,15.9938 z"
       style="fill:#ffffff;fill-opacity:1;stroke:none" />
    <path
       sodipodi:nodetypes="cccccsccc"
       inkscape:connector-curvature="0"
       id="path8801"
       d="m 1201.3438,711.06823 c -35.8852,-35.88519 -81.2866,-33.70836 -81.2866,-33.70836 l -1029.9945,0 c -35.117,4e-5 -65.0625,28.23484 -65.0625,64.93363 l -10e-5,220.00398 c 10e-5,35.9625 28.8688,65.05952 65.0568,65.05952 l 1030.0092,0 c 0,0 44.0854,3.4808 81.2998,-33.73332 L 1342.634,852.35563 z"
       style="fill:#00408b;fill-opacity:1;stroke:none" />
    <g
       style="font-size:31.26556396px;font-style:normal;font-weight:normal;line-height:125%;letter-spacing:0px;word-spacing:0px;fill:#ffffff;fill-opacity:1;stroke:none;font-family:Sans"
       id="text8816">
      <path
         d="m 365.39731,793.54065 c 8.04479,1.2e-4 14.90157,3.06103 20.57037,9.18274 5.21213,5.77953 7.81823,12.06909 7.8183,18.86871 -7e-5,6.2326 -1.92654,11.84254 -5.77942,16.82984 -3.06098,4.08129 -6.68738,6.971 -10.87921,8.66912 5.55108,1.5876 10.31019,4.87505 14.27734,9.86237 4.7625,5.77948 7.14378,12.46506 7.14386,20.05676 -8e-5,10.19962 -3.68354,18.58686 -11.05041,25.16175 -6.68911,6.11837 -14.50913,9.17755 -23.46008,9.17755 l -31.28357,0 0.1712,-117.80884 z m -8.16071,43.01361 c 2.37952,0.56384 5.09975,0.0537 8.16071,-1.53046 3.96703,-2.15465 5.95057,-5.72572 5.95062,-10.71319 -5e-5,-3.62458 -1.55904,-6.59902 -4.67697,-8.92334 -3.11803,-2.32411 -6.26281,-3.25968 -9.43436,-2.8067 z m -0.3424,53.37921 c 2.04057,3e-5 4.0241,3e-5 5.95062,0 3.51395,-0.22824 6.29125,-1.24854 8.33191,-3.06091 2.71845,-2.37952 4.0777,-6.3466 4.07776,-11.90125 -6e-5,-8.04478 -2.03894,-13.37111 -6.11664,-15.979 -2.37961,-1.47333 -6.40375,-2.21002 -12.07245,-2.21008 z"
         style="font-size:170px;font-variant:normal;font-stretch:normal;fill:#ffffff;font-family:CodiceBiancoCondensed;-inkscape-font-specification:CodiceBiancoCondensed"
         id="path8906" />
      <path
         d="m 444.64902,791.67297 c 9.06509,1.3e-4 16.88511,4.19375 23.46008,12.58088 8.27304,10.7669 12.40959,26.63349 12.40967,47.59979 -8e-5,21.19125 -3.96716,37.2273 -11.90125,48.10821 -6.34669,8.95448 -14.22378,13.43171 -23.63128,13.4317 -9.85721,10e-6 -18.13032,-5.15684 -24.81934,-15.47058 -7.36695,-11.44812 -11.05042,-26.97576 -11.05041,-46.58294 -10e-6,-19.49292 3.62639,-34.62281 10.87921,-45.38971 6.46075,-9.51811 14.67851,-14.27722 24.65332,-14.27735 z m -11.05042,59.50104 c -3e-5,25.83968 3.79585,38.75949 11.38764,38.75946 7.36689,3e-5 11.05036,-12.91978 11.05041,-38.75946 -5e-5,-25.38646 -3.79593,-38.07973 -11.38763,-38.07983 -7.36698,10e-5 -11.05045,12.69337 -11.05042,38.07983 z"
         style="font-size:170px;font-variant:normal;font-stretch:normal;fill:#ffffff;font-family:CodiceBiancoCondensed;-inkscape-font-specification:CodiceBiancoCondensed"
         id="path8908" />
      <path
         d="m 528.71518,792.68982 c 8.50133,1.3e-4 16.15188,3.28758 22.95166,9.86237 7.36687,7.0281 11.05034,15.52774 11.05041,25.49896 -7e-5,13.26057 -5.61001,23.57428 -16.82983,30.94116 l 24.31091,52.35718 -24.31091,0 -18.7027,-45.72693 -5.43701,0 0,45.72693 -24.13971,0 0,-118.65967 z m -7.30988,18.7027 0,34.6817 c 4.30599,7e-5 8.216,-1.41798 11.73005,-4.25415 4.30597,-3.39978 6.45899,-8.04649 6.45904,-13.94013 -5e-5,-5.32623 -2.03893,-9.57519 -6.11664,-12.74688 -3.62818,-2.83254 -7.65232,-4.07938 -12.07245,-3.74054 z"
         style="font-size:170px;font-variant:normal;font-stretch:normal;fill:#ffffff;font-family:CodiceBiancoCondensed;-inkscape-font-specification:CodiceBiancoCondensed"
         id="path8910" />
      <path
         d="m 580.29935,852.87048 c -10e-6,-19.946 4.42015,-35.58604 13.26049,-46.92016 7.02797,-9.17916 14.84799,-13.7688 23.46009,-13.76892 8.50133,1.2e-4 16.09481,3.85307 22.78045,11.55883 4.53424,5.32645 7.65048,10.76691 9.34876,16.32142 l -18.69751,9.01153 c -6e-5,-2.15465 -0.73675,-4.87488 -2.21008,-8.1607 -2.1548,-4.75902 -5.15864,-7.13857 -9.01154,-7.13868 -4.53434,1.1e-4 -8.16074,3.28583 -10.87921,9.85718 -3.06094,7.14222 -4.5914,17.22939 -4.59137,30.26154 -3e-5,7.70595 0.62426,14.4486 1.87286,20.22796 2.37953,10.76684 6.57142,16.09317 12.57569,15.97901 4.1953,-0.11065 7.31328,-1.86592 9.35394,-5.26581 1.58401,-2.83606 2.43311,-6.97262 2.5473,-12.40967 -5e-5,-3.85635 -5e-5,-7.71102 0,-11.56402 l -11.90124,0 0,-19.03992 32.47162,0 0,69.52942 -18.01789,0 -2.55249,-6.45905 c -4.8733,5.55462 -10.2567,8.33192 -16.15021,8.33191 -8.84036,10e-6 -16.54624,-5.60993 -23.11767,-16.82983 -7.02801,-11.78708 -10.542,-26.29441 -10.54199,-43.52204 z"
         style="font-size:170px;font-variant:normal;font-stretch:normal;fill:#ffffff;font-family:CodiceBiancoCondensed;-inkscape-font-specification:CodiceBiancoCondensed"
         id="path8912" />
      <path
         d="m 702.96933,791.67297 c 9.06509,1.3e-4 16.88511,4.19375 23.46008,12.58088 8.27304,10.7669 12.40959,26.63349 12.40967,47.59979 -8e-5,21.19125 -3.96715,37.2273 -11.90124,48.10821 -6.3467,8.95448 -14.22379,13.43171 -23.63129,13.4317 -9.85721,10e-6 -18.13031,-5.15684 -24.81934,-15.47058 -7.36695,-11.44812 -11.05042,-26.97576 -11.05041,-46.58294 -10e-6,-19.49292 3.62639,-34.62281 10.87921,-45.38971 6.46075,-9.51811 14.67852,-14.27722 24.65332,-14.27735 z m -11.05042,59.50104 c -3e-5,25.83968 3.79585,38.75949 11.38764,38.75946 7.36689,3e-5 11.05036,-12.91978 11.05041,-38.75946 -5e-5,-25.38646 -3.79592,-38.07973 -11.38763,-38.07983 -7.36698,10e-5 -11.05045,12.69337 -11.05042,38.07983 z"
         style="font-size:170px;font-variant:normal;font-stretch:normal;fill:#ffffff;font-family:CodiceBiancoCondensed;-inkscape-font-specification:CodiceBiancoCondensed"
         id="path8914" />
      <path
         d="m 779.89682,790.99335 c 14.6197,0.33907 25.15995,7.81842 31.62079,22.43805 l -17.50946,11.05041 c -4.1954,-8.0482 -9.06865,-12.07234 -14.61975,-12.07245 -2.49373,1.1e-4 -4.61907,0.87861 -6.37604,2.6355 -1.75703,1.7571 -2.74966,4.05192 -2.97791,6.88446 -0.22484,2.26898 0.68306,4.59319 2.7237,6.97266 0.67787,0.79212 2.6614,2.60618 5.95062,5.4422 8.61202,6.68566 18.35851,14.95877 29.2395,24.81933 4.30596,5.44053 6.45898,12.07077 6.45905,19.89075 -7e-5,8.95104 -2.72031,16.65692 -8.16071,23.11768 -6.12188,7.13868 -14.22551,10.87921 -24.31091,11.22161 -14.95872,0.45309 -25.78259,-7.93415 -32.47162,-25.16174 l 18.19428,-10.37079 c 3.85291,9.40759 8.44255,14.11136 13.76892,14.11133 1.58748,3e-5 3.17327,-0.39599 4.75738,-1.18805 4.08117,-2.04058 6.12178,-5.4975 6.12183,-10.37079 -5e-5,-3.51395 -1.2469,-6.46073 -3.74054,-8.84033 -6.34668,-5.32628 -12.69331,-10.65261 -19.03992,-15.979 -9.40757,-7.81996 -15.07457,-13.48697 -17.00104,-17.00104 -2.94678,-5.10144 -4.42017,-10.42777 -4.42016,-15.979 -10e-6,-8.61542 3.23038,-16.09649 9.69116,-22.44324 6.46075,-6.34652 13.82769,-9.4057 22.10083,-9.17755 z"
         style="font-size:170px;font-variant:normal;font-stretch:normal;fill:#ffffff;font-family:CodiceBiancoCondensed;-inkscape-font-specification:CodiceBiancoCondensed"
         id="path8916" />
      <path
         d="m 861.34824,791.67297 c 9.06509,1.3e-4 16.88511,4.19375 23.46008,12.58088 8.27304,10.7669 12.40959,26.63349 12.40967,47.59979 -8e-5,21.19125 -3.96716,37.2273 -11.90125,48.10821 -6.3467,8.95448 -14.22378,13.43171 -23.63128,13.4317 -9.85721,10e-6 -18.13032,-5.15684 -24.81934,-15.47058 -7.36695,-11.44812 -11.05042,-26.97576 -11.05042,-46.58294 0,-19.49292 3.6264,-34.62281 10.87922,-45.38971 6.46075,-9.51811 14.67851,-14.27722 24.65332,-14.27735 z m -11.05042,59.50104 c -3e-5,25.83968 3.79585,38.75949 11.38764,38.75946 7.36689,3e-5 11.05036,-12.91978 11.05041,-38.75946 -5e-5,-25.38646 -3.79593,-38.07973 -11.38763,-38.07983 -7.36698,10e-5 -11.05045,12.69337 -11.05042,38.07983 z"
         style="font-size:170px;font-variant:normal;font-stretch:normal;fill:#ffffff;font-family:CodiceBiancoCondensed;-inkscape-font-specification:CodiceBiancoCondensed"
         id="path8918" />
      <path
         d="m 913.96481,792.68982 23.96851,0 0,100.13336 22.27203,0 0,19.21112 -46.24054,0 z"
         style="font-size:170px;font-variant:normal;font-stretch:normal;fill:#ffffff;font-family:CodiceBiancoCondensed;-inkscape-font-specification:CodiceBiancoCondensed"
         id="path8920" />
      <path
         d="m 1024.6661,792.68982 0,18.53149 -24.1397,0 0,29.23951 20.2332,0 0,19.03991 -20.4044,0 0,32.80884 28.9023,0 0,19.03992 -53.04202,0 0,-118.65967 z"
         style="font-size:170px;font-variant:normal;font-stretch:normal;fill:#ffffff;font-family:CodiceBiancoCondensed;-inkscape-font-specification:CodiceBiancoCondensed"
         id="path8922" />
    </g>
    <g
       style="font-size:24.05558586px;font-style:normal;font-weight:normal;line-height:125%;letter-spacing:0px;word-spacing:0px;fill:#ffffff;fill-opacity:1;stroke:none;font-family:Sans"
       id="text8831">
      <path
         d="m 1142.3087,806.6676 0,58.75946 6.6293,0 0,16.25 -6.6293,0 0,15.86121 -17.4203,0 0,-15.86121 -30.0284,0 0,-10.52917 26.6482,-64.48029 z m -17.6822,28.98896 -12.8698,30.16326 12.8698,0 z"
         style="font-size:130px;font-variant:normal;font-stretch:normal;fill:#ffffff;font-family:CodiceBiancoCondensed;-inkscape-font-specification:CodiceBiancoCondensed"
         id="path8925" />
      <path
         d="m 1159.1459,831.36792 c 0,-8.23336 2.4703,-14.77673 7.4109,-19.63013 4.4195,-4.41946 9.9658,-6.62923 16.6388,-6.62933 5.8927,10e-5 11.0488,2.08028 15.4684,6.24054 4.9405,4.76612 7.4108,11.09261 7.4109,18.97949 -10e-5,5.54633 -1.4732,10.31236 -4.4196,14.2981 -2.0815,2.86179 -4.2913,4.76873 -6.6293,5.72082 3.2055,0.43381 6.1955,2.55763 8.97,6.37146 3.0336,4.33232 4.5505,9.5321 4.5505,15.59937 0,7.7997 -2.4703,14.29943 -7.4109,19.4992 -4.9406,5.1998 -10.9643,7.79969 -18.071,7.79969 -6.2392,0 -11.7418,-1.94926 -16.5078,-5.84778 -6.0673,-4.94058 -9.101,-12.00366 -9.101,-21.18927 0,-11.44161 3.9858,-18.85249 11.9574,-22.23267 -6.8449,-3.20551 -10.2673,-9.532 -10.2673,-18.97949 z m 17.5473,-0.78156 c 0,8.14887 1.9505,12.22327 5.8517,12.22321 3.9858,6e-5 5.9787,-4.07434 5.9787,-12.22321 0,-7.01937 -1.9493,-10.52909 -5.8478,-10.52917 -1.5605,8e-5 -2.904,0.82396 -4.0307,2.47162 -1.3013,1.90702 -1.9519,4.59287 -1.9519,8.05755 z m -0.127,40.30365 c 0,8.23082 2.1661,12.34622 6.4984,12.3462 4.0731,2e-5 6.1096,-4.15902 6.1097,-12.47712 -10e-5,-8.75443 -2.1662,-13.13166 -6.4985,-13.13171 -1.8196,5e-5 -3.2928,1.21337 -4.4195,3.63998 -1.1267,2.4267 -1.6901,5.63425 -1.6901,9.62265 z"
         style="font-size:130px;font-variant:normal;font-stretch:normal;fill:#ffffff;font-family:CodiceBiancoCondensed;-inkscape-font-specification:CodiceBiancoCondensed"
         id="path8927" />
    </g>
    <g
       style="font-size:16.94802094px;font-style:normal;font-weight:normal;line-height:125%;letter-spacing:0px;word-spacing:0px;fill:#ffffff;fill-opacity:1;stroke:none;font-family:Sans"
       id="text8835">
      <path
         d="m 111.20189,820.97214 c 7.87655,0.18268 13.55524,4.21227 17.0361,12.08878 l -9.43344,5.95355 c -2.26033,-4.33606 -4.88585,-6.50412 -7.87658,-6.50418 -1.34353,6e-5 -2.48858,0.47336 -3.43517,1.41991 -0.94662,0.94666 -1.48142,2.18302 -1.60438,3.70909 -0.12114,1.22244 0.368,2.47464 1.46742,3.7566 0.36521,0.42677 1.43387,1.40412 3.20597,2.93206 4.63984,3.60198 9.89088,8.05922 15.75315,13.37173 2.31989,2.93115 3.47986,6.50328 3.4799,10.71639 -4e-5,4.82248 -1.4656,8.97413 -4.39669,12.45494 -3.29824,3.84605 -7.66417,5.86131 -13.09781,6.04579 -8.0592,0.2441 -13.890692,-4.27463 -17.494493,-13.55621 l 9.802393,-5.58739 c 2.07581,5.06845 4.54853,7.60267 7.41818,7.60265 0.85528,2e-5 1.70965,-0.21334 2.5631,-0.64007 2.19879,-1.09939 3.29819,-2.96185 3.29821,-5.5874 -2e-5,-1.89318 -0.67178,-3.4808 -2.01526,-4.76284 -3.41935,-2.8696 -6.83868,-5.73923 -10.25799,-8.60889 -5.06845,-4.2131 -8.121622,-7.26627 -9.159527,-9.15952 -1.587617,-2.74846 -2.381423,-5.61809 -2.381421,-8.60889 -2e-6,-4.64166 1.740408,-8.67219 5.221236,-12.09158 3.480812,-3.41926 7.449842,-5.06743 11.907102,-4.94452 z"
         style="font-size:91.58964539px;font-variant:normal;font-stretch:normal;word-spacing:-15px;fill:#ffffff;font-family:CodiceBiancoCondensed;-inkscape-font-specification:CodiceBiancoCondensed"
         id="path8897" />
      <path
         d="m 152.70345,820.97214 c 7.87654,0.18268 13.55524,4.21227 17.03609,12.08878 l -9.43344,5.95355 c -2.26032,-4.33606 -4.88585,-6.50412 -7.87657,-6.50418 -1.34353,6e-5 -2.48859,0.47336 -3.43517,1.41991 -0.94662,0.94666 -1.48142,2.18302 -1.60439,3.70909 -0.12113,1.22244 0.36801,2.47464 1.46743,3.7566 0.36521,0.42677 1.43386,1.40412 3.20597,2.93206 4.63983,3.60198 9.89088,8.05922 15.75315,13.37173 2.31989,2.93115 3.47985,6.50328 3.47989,10.71639 -4e-5,4.82248 -1.4656,8.97413 -4.39668,12.45494 -3.29824,3.84605 -7.66418,5.86131 -13.09781,6.04579 -8.0592,0.2441 -13.8907,-4.27463 -17.4945,-13.55621 l 9.8024,-5.58739 c 2.07581,5.06845 4.54853,7.60267 7.41818,7.60265 0.85528,2e-5 1.70964,-0.21334 2.5631,-0.64007 2.19878,-1.09939 3.29818,-2.96185 3.29821,-5.5874 -3e-5,-1.89318 -0.67178,-3.4808 -2.01526,-4.76284 -3.41935,-2.8696 -6.83868,-5.73923 -10.258,-8.60889 -5.06844,-4.2131 -8.12162,-7.26627 -9.15952,-9.15952 -1.58762,-2.74846 -2.38142,-5.61809 -2.38142,-8.60889 0,-4.64166 1.74041,-8.67219 5.22123,-12.09158 3.48082,-3.41926 7.44985,-5.06743 11.90711,-4.94452 z"
         style="font-size:91.58964539px;font-variant:normal;font-stretch:normal;word-spacing:-15px;fill:#ffffff;font-family:CodiceBiancoCondensed;-inkscape-font-specification:CodiceBiancoCondensed"
         id="path8899" />
      <path
         d="m 220.63389,821.70445 0,64.38779 -13.00557,0 0,-42.86556 -7.05202,0 0,-9.52568 c 5.98335,-0.42666 8.91447,-4.42551 8.79336,-11.99655 z"
         style="font-size:91.58964539px;font-variant:normal;font-stretch:normal;word-spacing:-15px;fill:#ffffff;font-family:CodiceBiancoCondensed;-inkscape-font-specification:CodiceBiancoCondensed"
         id="path8901" />
      <path
         d="m 248.67707,821.88614 c 5.43363,6e-5 9.99755,3.03786 13.69177,9.1134 3.69414,6.07566 5.54123,13.8148 5.54127,23.21745 -4e-5,9.22011 -2.04512,17.00537 -6.13523,23.35581 -3.84795,5.92374 -8.30519,8.8856 -13.37173,8.8856 -4.64174,0 -8.79431,-2.38141 -12.45774,-7.14426 -4.57837,-6.04484 -6.86755,-14.5326 -6.86754,-25.46331 -1e-5,-9.58526 2.13638,-17.46183 6.40915,-23.62972 3.8479,-5.55659 8.24458,-8.33491 13.19005,-8.33497 z m -7.41818,31.87525 c -2e-5,5.55668 0.67174,10.41082 2.01526,14.56244 1.34349,4.15166 2.99166,6.22749 4.94452,6.22747 2.19878,2e-5 3.99976,-2.56495 5.40292,-7.69489 1.16087,-4.21312 1.74131,-8.57812 1.74134,-13.09502 -3e-5,-3.84787 -0.42768,-7.60354 -1.28295,-11.26702 -1.22055,-5.31249 -3.08301,-7.96876 -5.58739,-7.96882 -2.25846,6e-5 -4.09017,2.47371 -5.49515,7.42098 -1.15905,3.96721 -1.73857,7.90549 -1.73855,11.81486 z"
         style="font-size:91.58964539px;font-variant:normal;font-stretch:normal;word-spacing:-15px;fill:#ffffff;font-family:CodiceBiancoCondensed;-inkscape-font-specification:CodiceBiancoCondensed"
         id="path8903" />
    </g>
    <rect
       style="fill:none;stroke:#ffffff;stroke-width:6;stroke-miterlimit:4;stroke-opacity:1;stroke-dasharray:none"
       id="rect8839"
       width="215.44893"
       height="108"
       x="73.258179"
       y="798.36224"
       ry="13" />
  </g>
</svg>
