<?xml version="1.0" encoding="UTF-8" standalone="no"?>
<!-- Generator: Adobe Illustrator 12.0.1, SVG Export Plug-In  -->

<svg
   xmlns:dc="http://purl.org/dc/elements/1.1/"
   xmlns:cc="http://creativecommons.org/ns#"
   xmlns:rdf="http://www.w3.org/1999/02/22-rdf-syntax-ns#"
   xmlns:svg="http://www.w3.org/2000/svg"
   xmlns="http://www.w3.org/2000/svg"
   xmlns:sodipodi="http://sodipodi.sourceforge.net/DTD/sodipodi-0.dtd"
   xmlns:inkscape="http://www.inkscape.org/namespaces/inkscape"
   version="1.1"
   width="287.6875"
   height="96.5625"
   viewBox="0 -0.558 287.6875 96.5625"
   enable-background="new 0 -0.558 288 98"
   xml:space="preserve"
   id="svg2"
   inkscape:version="0.48.2 r9819"
   sodipodi:docname="AJAX1.svg"><metadata
   id="metadata32"><rdf:RDF><cc:Work
       rdf:about=""><dc:format>image/svg+xml</dc:format><dc:type
         rdf:resource="http://purl.org/dc/dcmitype/StillImage" /></cc:Work></rdf:RDF></metadata><sodipodi:namedview
   pagecolor="#ffffff"
   bordercolor="#666666"
   borderopacity="1"
   objecttolerance="10"
   gridtolerance="10"
   guidetolerance="10"
   inkscape:pageopacity="0"
   inkscape:pageshadow="2"
   inkscape:window-width="1280"
   inkscape:window-height="1004"
   id="namedview30"
   showgrid="false"
   fit-margin-top="0"
   fit-margin-left="0"
   fit-margin-right="0"
   fit-margin-bottom="0"
   inkscape:zoom="2.2361111"
   inkscape:cx="138.18251"
   inkscape:cy="9.7483885"
   inkscape:window-x="-8"
   inkscape:window-y="-8"
   inkscape:window-maximized="1"
   inkscape:current-layer="svg2" />
<defs
   id="defs4">
</defs>
<path
   d="m 269.26275,-0.0635 h -250.839 c -9.867,0 -17.916,8.049 -17.916,17.917 v 59.723 c 0,9.866 8.049,17.917 17.916,17.917 h 250.839 c 9.869,0 17.917,-8.051 17.917,-17.917 v -59.723 c 0,-9.744 -8.173,-17.917 -17.917,-17.917"
   id="path6"
   style="fill:#ffffff;stroke:#000000;stroke-opacity:1"
   inkscape:connector-curvature="0" />

<path
   clip-rule="evenodd"
   d="m 269.21675,3.9175 h -250.743 c -7.655,0.034 -13.951,6.328 -13.985,13.985 v 59.62 c 0.031,7.651 6.33,13.964 13.985,13.989 h 250.743 c 7.646,-0.025 13.956,-6.338 13.981,-13.989 v -59.62 c -0.025,-7.657 -6.334,-13.951 -13.981,-13.985"
   id="path10"
   inkscape:connector-curvature="0"
   style="fill-rule:evenodd;stroke:none;fill:#000000;fill-opacity:1" />
<path
   clip-rule="evenodd"
   d="m 74.41175,86.8765 -57.947,-39.198 57.947,-39.258 c 2.554,-1.737 6.052,-1.073 7.789,1.482 1.157,1.708 0.947,3.476 0.418,5.573 l -3.352,11.369 h 184.037 v 41.671 h -184.036 l 3.228,11.063 c 0.646,2.315 0.919,4.031 -0.294,5.812 -1.738,2.552 -5.236,3.221 -7.79,1.486"
   id="path12"
   inkscape:connector-curvature="0"
   style="fill:#ffffff;fill-rule:evenodd;stroke:none" />
<path
   d="m 98.35375,36.0995 v 27.889 h -4.656 v -27.889 h -5.856 v -4.271 h 16.369 v 4.271 h -5.857 z"
   id="path14"
   inkscape:connector-curvature="0"
   style="stroke:none;fill:#000000" />
<path
   d="m 122.47975,63.9885 -4.271,-15.12 h -4.416 v 15.12 h -4.608 v -32.16 h 9.601 c 5.04,0 8.447,3.408 8.447,8.592 0,3.84 -1.584,6.624 -4.607,7.776 l 4.607,15.792 h -4.753 z m -3.936,-27.649 h -4.752 v 8.112 h 4.752 c 2.688,0 4.176,-1.44 4.176,-4.032 0,-2.496 -1.68,-4.08 -4.176,-4.08 z"
   id="path16"
   inkscape:connector-curvature="0"
   style="stroke:none;fill:#000000" />
<path
   d="m 146.09575,63.9885 -2.256,-8.784 h -6.912 l -2.112,8.784 h -4.656 l 8.017,-32.16 h 4.512 l 8.016,32.16 h -4.609 z m -5.761,-22.561 -2.256,9.265 h 4.608 l -2.352,-9.265 z"
   id="path18"
   inkscape:connector-curvature="0"
   style="stroke:none;fill:#000000" />
<path
   d="m 169.66275,63.9885 -9.936,-21.552 v 21.552 h -4.608 v -32.16 h 4.608 l 8.832,19.296 v -19.296 h 4.607 v 32.16 h -3.503 z"
   id="path20"
   inkscape:connector-curvature="0"
   style="stroke:none;fill:#000000" />
<path
   d="m 187.61475,64.5645 c -5.664,0 -9.024,-4.752 -9.024,-10.032 h 4.512 c 0,2.688 1.345,5.52 4.513,5.52 2.496,0 4.512,-2.256 4.512,-4.848 0,-1.824 -0.672,-3.168 -2.592,-4.656 -0.672,-0.672 1.151,0.576 -5.424,-3.84 -2.593,-1.775 -3.937,-4.271 -3.937,-7.104 0,-4.608 3.601,-8.353 8.208,-8.353 4.561,0 8.017,3.504 8.16,8.353 h -4.416 c -0.096,-2.257 -1.68,-3.696 -3.744,-3.696 -2.112,0 -3.792,1.584 -3.792,3.696 0,1.584 0.672,2.496 3.024,3.84 6.191,3.6 8.928,7.104 8.928,11.76 0,5.184 -3.984,9.36 -8.928,9.36 z"
   id="path22"
   inkscape:connector-curvature="0"
   style="stroke:none;fill:#000000" />
<path
   d="m 201.96575,63.9885 v -32.16 h 4.512 v 32.16 h -4.512 z"
   id="path24"
   inkscape:connector-curvature="0"
   style="stroke:none;fill:#000000" />
<path
   d="m 221.59875,36.0995 v 27.889 h -4.656 v -27.889 h -5.856 v -4.271 h 16.368 v 4.271 h -5.856 z"
   id="path26"
   inkscape:connector-curvature="0"
   style="stroke:none;fill:#000000" />
<path
   d="m 248.33375,59.0435 c -1.584,3.792 -3.936,5.521 -7.536,5.521 -3.84,0 -6.096,-1.729 -7.68,-5.521 -1.344,-3.168 -1.824,-6.24 -1.824,-11.184 0,-4.849 0.48,-8.112 1.824,-11.185 1.68,-3.84 3.937,-5.424 7.68,-5.424 3.696,0 5.952,1.584 7.536,5.521 1.345,3.168 1.824,6.239 1.824,11.088 0,4.944 -0.479,8.113 -1.824,11.184 z m -3.599,-19.2 c -0.816,-2.832 -2.016,-4.08 -3.937,-4.08 -2.063,0 -3.312,1.248 -4.08,3.984 -0.768,2.448 -1.008,4.608 -1.008,8.208 0,3.504 0.336,5.521 1.008,8.112 0.769,2.736 2.017,3.983 4.08,3.983 1.921,0 3.12,-1.247 3.937,-3.983 0.768,-2.592 1.008,-4.512 1.008,-8.208 -0.001,-3.6 -0.336,-5.663 -1.008,-8.016 z"
   id="path28"
   inkscape:connector-curvature="0"
   style="stroke:none;fill:#000000" />
</svg>