<?xml version="1.0" encoding="UTF-8" standalone="no"?>
<svg
   xmlns:dc="http://purl.org/dc/elements/1.1/"
   xmlns:cc="http://creativecommons.org/ns#"
   xmlns:rdf="http://www.w3.org/1999/02/22-rdf-syntax-ns#"
   xmlns:svg="http://www.w3.org/2000/svg"
   xmlns="http://www.w3.org/2000/svg"
   viewBox="0 0 151.56 107.72"
   height="107.72"
   width="151.56"
   xml:space="preserve"
   id="svg2"
   version="1.1"><metadata
     id="metadata8"><rdf:RDF><cc:Work
         rdf:about=""><dc:format>image/svg+xml</dc:format><dc:type
           rdf:resource="http://purl.org/dc/dcmitype/StillImage" /></cc:Work></rdf:RDF></metadata><defs
     id="defs6" /><g
     transform="matrix(1.3333333,0,0,-1.3333333,0,107.72)"
     id="g10"><g
       transform="scale(0.1)"
       id="g12"><path
         id="path14"
         style="fill:#ffffff;fill-opacity:1;fill-rule:nonzero;stroke:none"
         d="M 1.41797,1.41797 H 1135.278 v 805.043 H 1.41797 Z" /><path
         id="path16"
         style="fill:none;stroke:#231f20;stroke-width:2.83500004;stroke-linecap:butt;stroke-linejoin:miter;stroke-miterlimit:4;stroke-dasharray:none;stroke-opacity:1"
         d="M 1.41797,1.41797 H 1135.27 V 806.461 H 1.41797 V 1.41797" /><path
         id="path18"
         style="fill:#231f20;fill-opacity:1;fill-rule:nonzero;stroke:none"
         d="M 1112.6,256.387 V 80.6445 c -0.04,-31.2812 -25.38,-56.6211 -56.69,-56.6406 v 0 H 80.7578 v 0 C 49.4531,23.9961 24.0625,49.375 24.0859,80.6445 v 0 175.7425 H 1112.6 v 0" /><path
         id="path20"
         style="fill:#ffffff;fill-opacity:1;fill-rule:nonzero;stroke:none"
         d="M 80.7656,41.0156 C 58.8477,41.0352 41.1094,58.7695 41.0938,80.6641 v 0 158.5939 H 1095.59 v -158.5939 0 c -0.02,-21.9024 -17.77,-39.6407 -39.68,-39.6485 v 0 H 80.7656 v 0" /><path
         id="path22"
         style="fill:#231f20;fill-opacity:1;fill-rule:nonzero;stroke:none"
         d="m 1043.23,137.121 c 2.65,2.266 2.65,6.324 0.01,8.594 v 0 l -77.51,66.367 v 0 c -4.187,3.582 -10.515,-0.324 -9.179,-5.676 v 0 l 12.367,-49.426 -82.168,5.665 v -42.461 l 82.168,5.668 -12.367,-49.4262 v 0 c -1.336,-5.3516 4.992,-9.2578 9.179,-5.6719 v 0 l 77.5,66.3671 v 0" /><path
         id="path24"
         style="fill:#231f20;fill-opacity:1;fill-rule:nonzero;stroke:none"
         d="m 448.664,97.6172 h 13.969 v 0 c -0.133,2.1406 -0.274,4.4138 -0.422,6.8238 -0.141,2.278 -0.141,4.707 -0.141,7.129 v 0 59.133 h -14.836 v -42.883 0 c 0,-5.699 -1.136,-10.269 -3.265,-13.672 -2.149,-3.425 -5.688,-5.132 -10.395,-5.132 -3.863,0 -6.554,1.277 -8.414,3.836 -1.855,2.57 -2.851,6.718 -2.851,12.394 v 0 45.457 h -14.801 v -48.855 0 c 0,-7.7 1.703,-13.828 5.129,-18.391 3.41,-4.5703 8.824,-6.8242 16.226,-6.8242 5,0 8.985,1.1211 11.969,3.5352 2.863,2.293 5.141,5.145 6.981,8.555 v 0 h 0.289 l 0.562,-11.1058 v 0" /><path
         id="path26"
         style="fill:#231f20;fill-opacity:1;fill-rule:nonzero;stroke:none"
         d="m 480.273,97.6172 h 48.297 v 11.8238 h -33.047 l 32.184,48.305 v 12.957 h -46.43 v -11.824 h 31.481 l -32.485,-48.156 v -13.1058 0" /><path
         id="path28"
         style="fill:#231f20;fill-opacity:1;fill-rule:nonzero;stroke:none"
         d="m 556.418,129.953 h 41.734 v 4.988 c 0,6.414 -0.711,11.829 -1.988,16.536 -1.281,4.675 -3.125,8.543 -5.559,11.531 -2.421,2.988 -5.421,5.129 -8.679,6.551 -3.43,1.425 -7.129,2.129 -11.121,2.129 -4.567,0 -8.684,-0.848 -12.254,-2.704 -3.715,-1.855 -6.84,-4.55 -9.246,-7.832 -2.434,-3.406 -4.422,-7.402 -5.703,-12.109 -1.297,-4.695 -2,-9.824 -2,-15.379 0,-5.273 0.703,-10.266 2,-14.836 1.281,-4.551 3.125,-8.39 5.832,-11.66 2.562,-3.281 5.847,-5.852 9.82,-7.7032 4.004,-1.9765 8.715,-2.832 13.969,-2.832 4.558,0 8.703,0.4258 12.254,1.4063 3.554,0.9961 6.406,1.9879 8.839,2.9959 v 0 l -0.714,12.395 v 0 c -1.864,-1.289 -4.278,-2.578 -7.118,-3.84 -3.007,-1.289 -6.562,-2 -10.832,-2 -6.836,0 -11.687,1.851 -14.683,5.703 -2.981,3.699 -4.551,9.258 -4.551,16.66 v 0" /><path
         id="path30"
         style="fill:#231f20;fill-opacity:1;fill-rule:nonzero;stroke:none"
         d="m 615.676,97.6172 h 14.832 v 39.3168 c 0,3.703 0.418,6.836 1.269,9.55 0.86,2.704 2,4.844 3.407,6.543 1.449,1.575 3.148,2.852 5,3.723 1.847,0.703 3.703,1.133 5.832,1.133 0.859,0 1.707,0 2.422,-0.137 0.734,-0.148 1.582,-0.293 2.285,-0.441 v 0 14.25 0 c -0.285,0 -0.555,0 -0.703,0.133 -0.145,0 -0.43,0 -0.723,0 -2.703,0 -5.125,-0.27 -7.266,-0.985 -2.14,-0.715 -3.84,-1.719 -5.398,-2.996 -1.594,-1.281 -3,-2.707 -4.145,-4.262 -1.133,-1.59 -2.129,-3.289 -2.859,-5.144 v 0 h -0.274 v 0 c 0,0.578 0,1.426 0,2.57 -0.144,1.133 -0.144,2.43 -0.292,3.711 -0.137,1.277 -0.137,2.422 -0.137,3.555 -0.149,1.14 -0.149,2 -0.149,2.566 v 0 h -13.66 v 0 c 0.129,-2.148 0.274,-4.426 0.41,-6.699 0.149,-2.434 0.149,-4.832 0.149,-7.254 v 0 -59.1328 0" /><path
         id="path32"
         style="fill:#231f20;fill-opacity:1;fill-rule:nonzero;stroke:none"
         d="m 663.191,97.6172 h 14.817 v 43.3008 c 0,5.703 1.14,10.273 3.562,13.535 2.278,3.293 5.703,4.856 10.395,4.856 3.844,0 6.57,-1.282 8.406,-3.86 1.719,-2.558 2.567,-6.687 2.567,-12.39 v 0 -45.4418 h 14.816 v 48.8668 0 c 0,7.688 -1.707,13.821 -5.125,18.368 -3.43,4.574 -8.84,6.836 -16.242,6.836 -4.266,0 -7.981,-0.985 -11.258,-3.133 -3.274,-2.129 -5.852,-5.11 -7.699,-8.973 v 0 h -0.282 v 0 c 0,0.438 0,1.289 0,2.273 -0.144,0.997 -0.144,2.149 -0.273,3.29 -0.148,1.132 -0.148,2.277 -0.148,3.265 -0.145,1.016 -0.145,1.875 -0.145,2.293 v 0 h -13.945 v 0 c 0.125,-2.148 0.273,-4.426 0.41,-6.699 0.144,-2.434 0.144,-4.832 0.144,-7.254 v 0 -59.1328 0" /><path
         id="path34"
         style="fill:#231f20;fill-opacity:1;fill-rule:nonzero;stroke:none"
         d="m 352.875,97.6172 h 48.008 v 12.6758 h -32.629 v 86.758 h -15.379 v -99.4338 0" /><path
         id="path36"
         style="fill:#007f46;fill-opacity:1;fill-rule:nonzero;stroke:none"
         d="m 1112.6,256.395 h 22.6758 V 519.622 H 1112.6 Z" /><path
         id="path38"
         style="fill:#007f46;fill-opacity:1;fill-rule:nonzero;stroke:none"
         d="m 1.41016,256.395 h 22.6758 V 519.622 H 1.41016 Z" /><path
         id="path40"
         style="fill:#007f46;fill-opacity:1;fill-rule:nonzero;stroke:none"
         d="m 41.0938,273.242 h 1054.5 v 237.887 h -1054.5 z" /><path
         id="path42"
         style="fill:#ffffff;fill-opacity:1;fill-rule:nonzero;stroke:none"
         d="m 102.109,396.055 c -3.1676,-2.711 -3.1676,-7.61 -0.004,-10.317 v 0 l 93.04,-79.675 v 0 c 5.031,-4.313 12.644,0.382 11.027,6.808 v 0 l -14.844,59.332 98.641,-6.797 v 50.977 l -98.641,-6.797 14.844,59.332 v 0 c 1.617,6.426 -5.996,11.121 -11.027,6.809 v 0 l -93.036,-79.672 v 0" /><path
         id="path44"
         style="fill:#ffffff;fill-opacity:1;fill-rule:nonzero;stroke:none"
         d="m 352.875,341.184 h 32.473 v 0 c 5.992,0 11.289,0.847 15.91,2.546 4.605,1.555 8.367,3.946 11.625,6.856 3.234,2.894 5.64,6.496 7.34,10.582 1.539,3.949 2.39,8.398 2.39,13.164 v 0 0 0 c 0,4.625 -0.675,8.566 -1.871,12.137 -1.367,3.429 -3.082,6.34 -5.129,8.726 -2.215,2.219 -4.621,4.106 -7.187,5.489 -2.735,1.351 -5.465,2.203 -8.192,2.718 v 0 0.348 0 c 2.547,0.852 4.942,1.871 7.344,3.43 2.223,1.351 4.262,3.066 6.152,5.281 1.883,2.23 3.239,4.781 4.434,7.875 1.211,2.894 1.727,6.496 1.727,10.418 0,9.59 -2.746,16.93 -8.219,22.059 -5.633,5.14 -14.359,7.691 -26.324,7.691 v 0 h -32.473 v -119.32 0" /><path
         id="path46"
         style="fill:#ffffff;fill-opacity:1;fill-rule:nonzero;stroke:none"
         d="m 491.719,341.184 h 16.07 v 0 c -0.172,1.523 -0.504,3.757 -0.676,6.32 -0.175,2.551 -0.347,5.301 -0.347,8.195 v 0 41.891 0 c 0,5.812 -0.516,10.609 -1.711,14.351 -1.2,3.778 -3.082,6.844 -5.297,9.422 -1.891,2.215 -4.957,4.278 -9.059,6.149 -4.121,1.711 -9.406,2.562 -16.074,2.562 -5.645,0 -10.598,-0.695 -14.875,-2.047 -4.277,-1.367 -8.207,-2.922 -11.457,-4.797 v 0 l 1.379,-15.203 v 0 c 2.219,2.219 5.457,4.262 9.73,6.149 4.11,1.715 8.543,2.562 13.512,2.562 6.32,0 10.766,-1.715 13.492,-5.129 1.383,-1.711 2.403,-3.582 2.926,-5.64 0.504,-2.219 0.672,-4.614 0.672,-7.36 v 0 -3.57 h -6.324 v 0 c -14.176,0 -25.125,-2.406 -32.485,-7.012 -7.343,-4.797 -11.097,-12.312 -11.097,-22.582 0,-4.101 0.672,-7.687 2.039,-10.941 1.371,-3.242 3.258,-5.801 5.644,-8.024 2.235,-2.23 4.957,-3.773 8.039,-4.792 3.067,-1.18 6.325,-1.688 9.907,-1.688 6.496,0 11.636,1.34 15.566,4.07 3.762,2.586 6.84,5.653 9.059,9.078 v 0 h 0.347 v 0 c 0,-0.515 0,-1.367 0.156,-2.562 0,-1.211 0,-2.406 0.176,-3.598 0.168,-1.195 0.168,-2.386 0.34,-3.433 0.176,-1.192 0.176,-1.867 0.348,-2.371 v 0" /><path
         id="path48"
         style="fill:#ffffff;fill-opacity:1;fill-rule:nonzero;stroke:none"
         d="m 529.52,344.602 c 2.738,-1.211 6.148,-2.395 10.425,-3.262 4.102,-0.832 8.711,-1.34 13.68,-1.34 9.922,0 17.438,2.363 22.742,7.328 5.117,4.957 7.684,11.289 7.684,19.156 v 0 0 0 c 0,5.297 -1.543,9.575 -4.453,12.813 -3.067,3.258 -7.168,6.496 -12.477,9.406 v 0 l -7.691,4.262 v 0 c -3.918,2.23 -6.828,4.121 -9.043,5.992 -2.235,1.727 -3.258,4.102 -3.258,7.012 0,3.078 1.023,5.64 3.258,7.531 2.215,1.871 5.468,2.723 9.906,2.723 3.586,0 6.996,-0.332 9.922,-1.024 2.894,-0.847 5.625,-1.699 8.015,-2.738 v 0 l 0.872,14.371 v 0 c -1.883,0.68 -4.434,1.371 -7.868,2.223 -3.582,0.672 -7.687,1.019 -12.308,1.019 -4.453,0 -8.383,-0.695 -11.969,-2.047 -3.582,-1.367 -6.668,-3.254 -9.227,-5.468 -2.578,-2.391 -4.625,-5.141 -5.992,-8.039 -1.355,-3.079 -2.062,-6.321 -2.062,-9.575 0,-3.082 0.519,-5.82 1.383,-8.207 0.851,-2.39 2.046,-4.449 3.586,-6.324 1.527,-1.867 3.253,-3.426 5.472,-4.793 2.219,-1.527 4.625,-2.894 7.344,-4.277 v 0 l 9.242,-4.61 v 0 c 3.922,-1.886 6.672,-3.929 8.199,-5.972 1.368,-2.059 2.055,-4.278 2.055,-6.492 0,-3.43 -1.367,-5.993 -4.102,-7.707 -2.738,-1.891 -6.492,-2.739 -11.117,-2.739 -4.277,0 -8.363,0.68 -11.968,2.223 -3.598,1.379 -6.665,2.746 -9.215,3.93 v 0 l -1.035,-15.375 v 0" /><path
         id="path50"
         style="fill:#ffffff;fill-opacity:1;fill-rule:nonzero;stroke:none"
         d="m 620.008,379.977 h 50.097 v 5.992 c 0,7.687 -0.847,14.183 -2.39,19.828 -1.551,5.644 -3.77,10.266 -6.668,13.851 -2.902,3.582 -6.504,6.161 -10.422,7.864 -4.121,1.711 -8.574,2.562 -13.34,2.562 -5.469,0 -10.441,-1.019 -14.719,-3.242 -4.433,-2.23 -8.203,-5.469 -11.101,-9.414 -2.902,-4.094 -5.293,-8.887 -6.844,-14.531 -1.535,-5.629 -2.387,-11.793 -2.387,-18.461 0,-6.321 0.852,-12.313 2.387,-17.785 1.551,-5.473 3.766,-10.078 7.02,-14.008 3.066,-3.93 7.011,-7.02 11.777,-9.242 4.797,-2.368 10.437,-3.391 16.766,-3.391 5.468,0 10.441,0.508 14.718,1.688 4.258,1.195 7.688,2.382 10.586,3.597 v 0 l -0.851,14.86 v 0 c -2.223,-1.528 -5.125,-3.063 -8.543,-4.622 -3.594,-1.523 -7.871,-2.375 -13,-2.375 -8.211,0 -14.031,2.219 -17.617,6.829 -3.582,4.449 -5.469,11.113 -5.469,20 v 0" /><path
         id="path52"
         style="fill:#ffffff;fill-opacity:1;fill-rule:nonzero;stroke:none"
         d="m 691.57,341.184 h 17.774 V 469.398 H 691.57 v -128.214 0" /><path
         id="path54"
         style="fill:#ffffff;fill-opacity:1;fill-rule:nonzero;stroke:none"
         d="m 556.418,140.066 c 0.145,6.704 1.426,11.977 3.844,15.676 2.418,3.567 5.832,5.41 10.109,5.41 8.828,0 13.254,-6.98 13.254,-21.086 v 0 h -27.207 v 0" /><path
         id="path56"
         style="fill:#1a67bb;fill-opacity:1;fill-rule:nonzero;stroke:none"
         d="m 80.7813,766.012 c -21.918,-0.02 -39.668,-17.754 -39.6875,-39.649 v 0 -198.242 H 1095.59 v 198.242 0 c -0.02,21.895 -17.77,39.629 -39.68,39.649 v 0 H 80.7813 v 0" /><path
         id="path58"
         style="fill:#1a67bb;fill-opacity:1;fill-rule:nonzero;stroke:none"
         d="M 1.41016,519.621 V 805.66 H 1135.27 V 519.621 h -22.67 v 206.742 0 c -0.02,31.278 -25.38,56.614 -56.69,56.641 v 0 H 80.7813 v 0 C 49.4688,782.977 24.1094,757.641 24.0859,726.363 v 0 -206.742 H 1.41016 v 0" /><path
         id="path60"
         style="fill:#ffffff;fill-opacity:1;fill-rule:nonzero;stroke:none"
         d="m 91.1953,648.668 c -4.3164,-5.023 0.3867,-12.629 6.8125,-11.023 v 0 l 59.3942,14.835 -6.808,-98.55 h 51.027 l -6.801,98.55 59.383,-14.828 v 0 c 6.43,-1.617 11.141,5.985 6.817,11.016 v 0 l -79.747,92.949 v 0 c -2.71,3.168 -7.617,3.168 -10.332,0 v 0 L 91.1953,648.668 v 0" /><path
         id="path62"
         style="fill:#ffffff;fill-opacity:1;fill-rule:nonzero;stroke:none"
         d="m 448.719,700.16 h 15.066 v 17.953 h -15.066 v -17.953 0" /><path
         id="path64"
         style="fill:#ffffff;fill-opacity:1;fill-rule:nonzero;stroke:none"
         d="m 476.773,700.16 h 15.032 v 17.953 h -15.032 v -17.953 0" /><path
         id="path66"
         style="fill:#ffffff;fill-opacity:1;fill-rule:nonzero;stroke:none"
         d="m 486.863,596.051 h 16.735 v 0 c -0.157,2.547 -0.332,5.297 -0.504,8.191 -0.168,2.75 -0.168,5.645 -0.168,8.551 v 0 70.953 h -17.789 v -51.449 0 c 0,-6.844 -1.367,-12.317 -3.918,-16.418 -2.578,-4.106 -6.84,-6.168 -12.485,-6.168 -4.617,0 -7.875,1.543 -10.093,4.625 -2.215,3.066 -3.426,8.039 -3.426,14.859 v 0 54.551 h -17.754 v -58.641 0 c 0,-9.226 2.047,-16.585 6.148,-22.058 4.09,-5.473 10.586,-8.18 19.481,-8.18 5.992,0 10.758,1.34 14.359,4.25 3.426,2.735 6.164,6.149 8.383,10.254 v 0 h 0.332 l 0.699,-13.32 v 0" /><path
         id="path68"
         style="fill:#ffffff;fill-opacity:1;fill-rule:nonzero;stroke:none"
         d="m 528.77,596.051 h 17.781 v 47.187 c 0,4.434 0.508,8.192 1.531,11.43 1.035,3.258 2.402,5.82 4.113,7.883 1.7,1.867 3.762,3.41 5.981,4.429 2.215,0.868 4.453,1.383 7.015,1.383 1.02,0 2.039,0 2.903,-0.172 0.851,-0.171 1.875,-0.343 2.742,-0.519 v 0 17.094 0 c -0.348,0 -0.695,0 -0.867,0.172 -0.16,0 -0.504,0 -0.848,0 -3.258,0 -6.152,-0.344 -8.73,-1.192 -2.547,-0.851 -4.606,-2.047 -6.496,-3.59 -1.868,-1.539 -3.582,-3.254 -4.934,-5.129 -1.383,-1.882 -2.578,-3.941 -3.43,-6.16 v 0 h -0.347 v 0 c 0,0.692 0,1.715 0,3.082 -0.168,1.356 -0.168,2.91 -0.344,4.453 -0.172,1.524 -0.172,2.891 -0.172,4.278 -0.156,1.351 -0.156,2.386 -0.156,3.066 v 0 h -16.418 v 0 c 0.16,-2.562 0.328,-5.305 0.504,-8.039 0.172,-2.91 0.172,-5.812 0.172,-8.727 v 0 -70.929 0" /><path
         id="path70"
         style="fill:#ffffff;fill-opacity:1;fill-rule:nonzero;stroke:none"
         d="m 584.441,596.051 h 17.786 v 87.695 h -17.786 v -87.695 0" /><path
         id="path72"
         style="fill:#ffffff;fill-opacity:1;fill-rule:nonzero;stroke:none"
         d="m 583.934,701.352 h 18.789 v 18.98 h -18.789 v -18.98 0" /><path
         id="path74"
         style="fill:#ffffff;fill-opacity:1;fill-rule:nonzero;stroke:none"
         d="m 682.031,598.422 -1.023,15.062 v 0 c -1.887,-1.195 -4.457,-2.23 -7.344,-3.093 -2.91,-0.848 -5.988,-1.352 -8.898,-1.352 -7.696,0 -13.508,2.734 -17.618,8.191 -4.257,5.469 -6.316,12.829 -6.316,22.063 0,10.77 2.059,18.633 6.148,23.773 4.106,5.125 9.922,7.692 17.434,7.692 3.262,0 6.172,-0.348 8.719,-1.199 2.57,-0.848 4.797,-1.711 7.023,-2.922 v 0 l 0.852,14.89 v 0 c -2.231,0.852 -4.778,1.7 -8.039,2.391 -3.235,0.676 -6.504,1.02 -9.746,1.02 -6.672,0 -12.649,-1.02 -17.774,-3.239 -5.136,-2.23 -9.414,-5.472 -12.82,-9.418 -3.43,-4.09 -5.981,-8.883 -7.699,-14.527 -1.707,-5.633 -2.555,-11.621 -2.555,-18.289 0,-6.149 0.848,-11.969 2.391,-17.438 1.535,-5.472 4.101,-10.254 7.355,-14.183 3.238,-3.949 7.344,-7.192 12.469,-9.422 4.969,-2.371 10.949,-3.555 17.785,-3.555 3.758,0 7.359,0.332 10.926,1.024 3.601,0.832 6.512,1.683 8.73,2.531 v 0" /><path
         id="path76"
         style="fill:#ffffff;fill-opacity:1;fill-rule:nonzero;stroke:none"
         d="m 698.945,596.051 h 17.766 v 51.953 c 0,6.84 1.375,12.309 4.273,16.258 2.746,3.929 6.836,5.801 12.485,5.801 4.617,0 7.859,-1.528 10.094,-4.61 2.042,-3.078 3.07,-8.031 3.07,-14.871 v 0 -54.531 h 17.781 v 58.617 0 c 0,9.25 -2.051,16.594 -6.152,22.059 -4.121,5.476 -10.617,8.211 -19.492,8.211 -5.809,0 -10.43,-1.368 -13.672,-3.93 -3.426,-2.738 -6.164,-5.633 -8.039,-8.899 v 0 h -0.348 v 52.161 h -17.766 v -128.219 0" /><path
         id="path78"
         style="fill:#ffffff;fill-opacity:1;fill-rule:nonzero;stroke:none"
         d="m 352.875,596.051 h 70.43 v 15.203 h -49.75 l 48.886,88.559 v 15.554 H 354.398 V 700.16 h 46.344 l -47.867,-87.367 v -16.742 0" /><path
         id="path80"
         style="fill:#007f46;fill-opacity:1;fill-rule:nonzero;stroke:none"
         d="m 370.992,355.699 v 39.844 h 12.988 v 0 c 3.598,0 6.493,-0.504 9.059,-1.543 2.574,-1.035 4.617,-2.391 6.316,-4.273 1.559,-1.875 2.754,-3.934 3.606,-6.325 0.848,-2.406 1.195,-4.957 1.195,-7.859 v 0 0 0 c 0,-5.645 -1.699,-10.426 -5.129,-14.199 -3.414,-3.746 -8.554,-5.645 -15.55,-5.645 v 0 h -12.485 v 0" /><path
         id="path82"
         style="fill:#007f46;fill-opacity:1;fill-rule:nonzero;stroke:none"
         d="m 490.004,384.094 v -7.864 c 0,-7.011 -1.524,-12.656 -4.621,-16.933 -3.238,-4.449 -7.848,-6.664 -14.184,-6.664 -4.621,0 -8.019,1.367 -10.429,3.93 -2.387,2.562 -3.582,6.148 -3.582,10.425 0,5.817 2.214,10.094 6.839,12.989 4.625,2.921 11.289,4.277 20,4.277 1.028,0 2.047,0 3.258,0 1.195,0 2.219,0 2.719,-0.16 v 0" /><path
         id="path84"
         style="fill:#007f46;fill-opacity:1;fill-rule:nonzero;stroke:none"
         d="m 620.008,392.113 c 0.176,8.039 1.711,14.371 4.621,18.809 2.91,4.277 7.012,6.496 12.137,6.496 10.609,0 15.902,-8.371 15.902,-25.305 v 0 h -32.66 v 0" /><path
         id="path86"
         style="fill:#007f46;fill-opacity:1;fill-rule:nonzero;stroke:none"
         d="m 370.992,409.727 v 36.589 h 11.113 v 0 c 6.668,0 11.622,-1.543 14.864,-4.793 3.265,-3.242 4.793,-7.519 4.793,-12.644 v 0 0 0 c 0,-5.649 -1.699,-10.266 -5.125,-13.856 -3.598,-3.582 -8.711,-5.296 -15.551,-5.296 v 0 h -10.094 v 0" /></g></g></svg>