<?xml version="1.0" encoding="UTF-8" standalone="no"?>
<!DOCTYPE svg PUBLIC "-//W3C//DTD SVG 1.0//EN" "http://www.w3.org/TR/2001/REC-SVG-20010904/DTD/svg10.dtd">
<svg
   xmlns:svg="http://www.w3.org/2000/svg"
   xmlns="http://www.w3.org/2000/svg"
   version="1.0"
   width="180.71135"
   height="44.287216"
   id="svg1895">
  <defs
     id="defs1897" />
  <g
     transform="translate(-212.5015,-398.79)"
     id="layer1">
    <g
       transform="matrix(1.249992,0,0,-1.249992,-67.78424,951.9615)"
       style="font-style:normal;font-variant:normal;font-weight:normal;font-stretch:normal;letter-spacing:normal;word-spacing:normal;text-anchor:start;fill:none;fill-opacity:1;stroke:black;stroke-linecap:butt;stroke-linejoin:miter;stroke-miterlimit:10.43299961;stroke-dasharray:none;stroke-dashoffset:0;stroke-opacity:1"
       id="g10"
       xml:space="preserve">
<polygon
   points="224.23,407.11 337.62,407.11 368.8,424.82 337.62,442.54 224.23,442.54 224.23,407.11 "
   style="fill:black;fill-rule:nonzero;stroke-width:0"
   id="polygon12" />
<polygon
   points="226.36,409.23 337.05,409.23 353.21,424.82 337.05,440.41 226.36,440.41 226.36,409.23 "
   style="fill:white;fill-rule:nonzero;stroke:white;stroke-width:0"
   id="polygon14" />
<polygon
   points="254.44,416.32 257.51,416.32 257.51,425.25 263.59,425.25 263.59,427.78 257.51,427.78 257.51,433.64 263.88,433.64 263.88,436.16 254.44,436.16 254.44,416.32 "
   style="fill:black;fill-rule:nonzero;stroke-width:0"
   id="polygon16" />
<polygon
   points="266.59,416.32 269.55,416.32 269.55,437.64 266.59,437.64 266.59,416.32 "
   style="fill:black;fill-rule:nonzero;stroke-width:0"
   id="polygon18" />
<polygon
   points="273.67,416.32 276.62,416.32 276.62,430.9 273.67,430.9 273.67,416.32 "
   style="fill:black;fill-rule:nonzero;stroke-width:0"
   id="polygon20" />
<polygon
   points="273.58,433.83 276.71,433.83 276.71,436.99 273.58,436.99 273.58,433.83 "
   style="fill:black;fill-rule:nonzero;stroke-width:0"
   id="polygon22" />
<path
   d="M 280.76,416.32 L 283.71,416.32 L 283.71,425.25 L 283.71,425.25 C 283.71,426.33 283.94,427.15 284.37,427.75 C 284.79,428.35 285.45,428.63 286.27,428.63 C 287.63,428.63 288.32,427.72 288.32,425.93 L 288.32,425.93 L 288.32,416.32 L 291.27,416.32 L 291.27,425.25 L 291.27,425.25 C 291.27,426.33 291.5,427.15 291.93,427.75 C 292.36,428.35 293,428.63 293.83,428.63 C 295.2,428.63 295.88,427.72 295.88,425.93 L 295.88,425.93 L 295.88,416.32 L 298.83,416.32 L 298.83,425.88 L 298.83,425.88 C 298.83,427.58 298.49,428.89 297.81,429.77 C 297.1,430.65 296.05,431.11 294.63,431.11 C 293.69,431.11 292.92,430.88 292.32,430.42 C 291.73,429.94 291.27,429.4 290.9,428.8 C 290.76,429.09 290.59,429.37 290.39,429.66 C 290.2,429.91 289.94,430.16 289.65,430.39 C 289.37,430.59 289.03,430.76 288.66,430.9 C 288.29,431.05 287.83,431.11 287.35,431.11 C 286.44,431.11 285.7,430.88 285.1,430.42 C 284.5,429.94 284.02,429.37 283.71,428.66 L 283.71,428.66 L 283.65,428.66 L 283.65,428.66 C 283.65,428.74 283.65,428.92 283.65,429.14 C 283.63,429.34 283.63,429.57 283.63,429.79 C 283.6,430.02 283.6,430.25 283.6,430.45 C 283.57,430.65 283.57,430.82 283.57,430.9 L 283.57,430.9 L 280.64,430.9 L 280.64,430.9 C 280.67,430.51 280.7,430.08 280.73,429.62 C 280.76,429.17 280.76,428.69 280.76,428.14 L 280.76,428.14 L 280.76,416.32 z "
   style="fill:black;fill-rule:nonzero;stroke-width:0"
   id="path24" />
<path
   d="M 302.58,416.89 L 302.67,416.85 L 302.76,416.81 L 302.85,416.78 L 302.95,416.74 L 303.04,416.7 L 303.15,416.67 L 303.25,416.63 L 303.36,416.6 L 303.46,416.56 L 303.58,416.53 L 303.69,416.5 L 303.81,416.47 L 303.93,416.43 L 304.06,416.4 L 304.19,416.38 L 304.32,416.35 C 305,416.21 305.77,416.12 306.59,416.12 C 308.24,416.12 309.49,416.52 310.37,417.35 C 311.23,418.17 311.65,419.22 311.65,420.53 L 311.65,420.53 L 311.65,420.53 L 311.65,420.53 C 311.65,421.41 311.39,422.12 310.91,422.66 C 310.4,423.2 309.71,423.74 308.84,424.23 L 308.84,424.23 L 307.56,424.93 L 307.56,424.93 C 306.91,425.3 306.42,425.62 306.05,425.93 C 305.68,426.21 305.51,426.61 305.51,427.09 C 305.51,427.61 305.68,428.04 306.05,428.35 C 306.42,428.66 306.96,428.8 307.7,428.8 C 308.3,428.8 308.87,428.74 309.35,428.63 C 309.83,428.49 310.29,428.35 310.68,428.18 L 310.68,428.18 L 310.82,430.57 L 310.82,430.57 C 310.52,430.68 310.09,430.79 309.52,430.93 C 308.92,431.05 308.24,431.11 307.47,431.11 C 306.73,431.11 306.08,430.99 305.48,430.76 C 304.88,430.54 304.38,430.22 303.95,429.85 C 303.52,429.46 303.18,429 302.95,428.52 C 302.73,428 302.61,427.46 302.61,426.93 C 302.61,426.41 302.7,425.96 302.84,425.56 C 302.98,425.16 303.18,424.82 303.43,424.51 C 303.69,424.2 303.98,423.94 304.34,423.71 C 304.71,423.46 305.11,423.23 305.57,423 L 305.57,423 L 307.1,422.23 L 307.1,422.23 C 307.76,421.92 308.21,421.58 308.47,421.24 C 308.7,420.9 308.81,420.53 308.81,420.16 C 308.81,419.59 308.58,419.16 308.12,418.88 C 307.67,418.57 307.05,418.43 306.28,418.43 C 305.57,418.43 304.88,418.54 304.29,418.8 C 303.69,419.02 303.18,419.25 302.75,419.45 L 302.75,419.45 L 302.58,416.89 z "
   style="fill:black;fill-rule:nonzero;stroke-width:0"
   id="path26" />
</g>  </g>
</svg>
