<?xml version="1.0" encoding="UTF-8" standalone="no"?>
<!-- Created with Inkscape (http://www.inkscape.org/) -->

<svg
   xmlns:dc="http://purl.org/dc/elements/1.1/"
   xmlns:cc="http://creativecommons.org/ns#"
   xmlns:rdf="http://www.w3.org/1999/02/22-rdf-syntax-ns#"
   xmlns:svg="http://www.w3.org/2000/svg"
   xmlns="http://www.w3.org/2000/svg"
   xmlns:sodipodi="http://sodipodi.sourceforge.net/DTD/sodipodi-0.dtd"
   xmlns:inkscape="http://www.inkscape.org/namespaces/inkscape"
   width="165.58791"
   height="26.032909"
   viewBox="0 0 43.811801 6.8878739"
   version="1.1"
   id="svg17446"
   inkscape:version="0.92.0 r15299"
   sodipodi:docname="bulsatcom.svg">
  <defs
     id="defs17440" />
  <sodipodi:namedview
     id="base"
     pagecolor="#ffffff"
     bordercolor="#666666"
     borderopacity="1.0"
     inkscape:pageopacity="0.0"
     inkscape:pageshadow="2"
     inkscape:zoom="4.8727757"
     inkscape:cx="82.293959"
     inkscape:cy="12.516454"
     inkscape:document-units="mm"
     inkscape:current-layer="layer1"
     showgrid="false"
     fit-margin-top="0"
     fit-margin-left="0"
     fit-margin-right="0"
     fit-margin-bottom="0"
     units="px"
     inkscape:window-width="1280"
     inkscape:window-height="744"
     inkscape:window-x="-4"
     inkscape:window-y="-4"
     inkscape:window-maximized="1" />
  <metadata
     id="metadata17443">
    <rdf:RDF>
      <cc:Work
         rdf:about="">
        <dc:format>image/svg+xml</dc:format>
        <dc:type
           rdf:resource="http://purl.org/dc/dcmitype/StillImage" />
        <dc:title></dc:title>
      </cc:Work>
    </rdf:RDF>
  </metadata>
  <g
     inkscape:label="Layer 1"
     inkscape:groupmode="layer"
     id="layer1"
     transform="translate(-105.98234,-208.87882)">
    <g
       id="g17514"
       transform="translate(0.13229005,-0.13228835)">
      <path
         d="m 121.77885,214.16481 v 0 0 c 0,-0.92945 -0.68531,-1.26145 -1.74597,-1.49382 -0.62022,-0.1578 -0.86509,-0.25743 -0.86509,-0.53962 v -0.0247 c 0,-0.18288 0.14692,-0.36543 0.53871,-0.36543 0.42433,0 0.88942,0.15781 1.33807,0.46473 l 0.58736,-0.89635 c -0.51406,-0.41492 -1.13396,-0.62221 -1.90111,-0.62221 -1.08498,0 -1.80315,0.62221 -1.80315,1.54364 v 0.0247 c 0,1.01271 0.81579,1.29489 1.77883,1.52725 0.64455,0.14945 0.84044,0.28218 0.84044,0.51455 v 0.0251 c 0,0.23237 -0.22054,0.38182 -0.59557,0.38182 -0.56303,0 -1.08531,-0.20763 -1.5504,-0.56436 l -0.6692,0.8215 c 0.5466,0.51461 1.33807,0.80508 2.17063,0.80508 1.16649,0 1.87645,-0.62247 1.87645,-1.60184 z"
         style="fill:#ec1c24;fill-opacity:1;fill-rule:nonzero;stroke:none;stroke-width:0.331498"
         id="path10915"
         inkscape:connector-curvature="0" />
      <path
         d="m 116.20603,215.76665 v 0 h 1.1586 v -6.62325 h -1.1586 z"
         style="fill:#ec1c24;fill-opacity:1;fill-rule:nonzero;stroke:none;stroke-width:0.331498"
         id="path10917"
         inkscape:connector-curvature="0" />
      <path
         d="m 129.83224,215.76665 v 0 -1.21167 c -0.69352,-0.0251 -1.26477,-0.62253 -1.26477,-1.36944 v -1.26179 h 0.91407 v -1.16182 h -0.91407 v -1.61853 h -1.15861 v 4.04214 c 0,1.39418 1.08531,2.52301 2.42338,2.58111 z"
         style="fill:#ec1c24;fill-opacity:1;fill-rule:nonzero;stroke:none;stroke-width:0.331498"
         id="path10919"
         inkscape:connector-curvature="0" />
      <path
         d="m 124.47142,211.89901 v 0 c 0.69352,0 1.28121,0.5891 1.28121,1.31127 0,0.74691 -0.58769,1.3447 -1.28121,1.3447 -0.69352,0 -1.28088,-0.59779 -1.28088,-1.3447 0,-0.72217 0.58736,-1.31127 1.28088,-1.31127 z m 0,3.75975 v 0 c 0.40001,0 0.81612,-0.14941 1.20758,-0.46479 l 0.0736,-0.0747 v 0.58927 h 1.16683 v -4.94662 h -1.16683 v 0.59746 l -0.0736,-0.0746 c -0.39146,-0.34035 -0.80757,-0.5229 -1.20758,-0.5229 -1.3545,0 -2.41516,1.08726 -2.41516,2.44835 0,1.36944 1.06066,2.44848 2.41516,2.44848 z"
         style="fill:#ec1c24;fill-opacity:1;fill-rule:nonzero;stroke:none;stroke-width:0.331498"
         id="path10921"
         inkscape:connector-curvature="0" />
      <path
         d="m 137.20822,214.55498 v 0 c -0.70963,0 -1.28088,-0.59779 -1.28088,-1.3447 0,-0.72217 0.57125,-1.31127 1.28088,-1.31127 0.69352,0 1.26477,0.5891 1.26477,1.31127 0,0.74691 -0.57125,1.3447 -1.26477,1.3447 z m 0,-3.86761 v 0 c -1.32985,0 -2.43949,1.13675 -2.43949,2.52291 0,1.39452 1.10964,2.55637 2.43949,2.55637 1.3384,0 2.42469,-1.16185 2.42469,-2.55637 0,-1.38616 -1.08629,-2.52291 -2.42469,-2.52291 z"
         style="fill:#ec1c24;fill-opacity:1;fill-rule:nonzero;stroke:none;stroke-width:0.331498"
         id="path10923"
         inkscape:connector-curvature="0" />
      <path
         d="m 108.40569,214.55498 v 0 c -0.71804,0 -1.2892,-0.59779 -1.2892,-1.3447 0,-0.72217 0.57116,-1.31127 1.2892,-1.31127 0.68537,0 1.28091,0.5891 1.28091,1.31127 0,0.74691 -0.59554,1.3447 -1.28091,1.3447 z m 0,-3.86761 v 0 c -0.47324,0 -0.91387,0.13274 -1.2892,0.38984 v -1.93381 h -1.13415 v 4.12506 0 c 0.0245,1.36108 1.08521,2.49819 2.42335,2.49819 1.32988,0 2.41519,-1.16185 2.41519,-2.55637 0,-1.38616 -1.08531,-2.52291 -2.41519,-2.52291 z"
         style="fill:#ec1c24;fill-opacity:1;fill-rule:nonzero;stroke:none;stroke-width:0.331498"
         id="path10925"
         inkscape:connector-curvature="0" />
      <path
         d="m 115.7084,210.82011 v 0 h -1.15861 v 2.64761 c 0,0.59746 -0.4733,1.08726 -1.03634,1.08726 -0.57125,0 -1.03633,-0.4898 -1.03633,-1.08726 v -2.64761 h -1.15861 v 2.64761 c 0,1.26145 0.98736,2.29893 2.19494,2.29893 1.20759,0 2.19495,-1.03748 2.19495,-2.29893 z"
         style="fill:#ec1c24;fill-opacity:1;fill-rule:nonzero;stroke:none;stroke-width:0.331498"
         id="path10927"
         inkscape:connector-curvature="0" />
      <path
         d="m 146.51882,213.00299 v 0 2.73047 h 1.13396 v -2.73047 c 0,-1.26179 -0.98934,-2.29088 -2.19561,-2.29088 -0.59491,0 -1.13395,0.23237 -1.55795,0.67236 l -0.0263,0.0498 -0.046,-0.0498 c -0.41743,-0.43999 -0.96304,-0.67236 -1.55138,-0.67236 -1.21613,0 -2.20218,1.02909 -2.20218,2.29088 v 2.73047 h 1.15696 v -2.73047 c 0,-0.61418 0.47331,-1.10398 1.04522,-1.10398 0.46344,0 1.01234,0.35674 1.01234,0.84654 v 2.98791 h 1.15696 v -2.98791 c 0,-0.4898 0.53904,-0.84654 1.01235,-0.84654 0.58834,0 1.06164,0.4898 1.06164,1.10398 z"
         style="fill:#ec1c24;fill-opacity:1;fill-rule:nonzero;stroke:none;stroke-width:0.331498"
         id="path10929"
         inkscape:connector-curvature="0" />
      <path
         d="m 149.13843,211.38447 v 0 h -0.0263 l -0.22679,-0.39018 v 0.59746 h -0.17091 v -0.87964 h 0.19392 l 0.23008,0.3651 0.22022,-0.3651 h 0.17091 v 0.87964 h -0.17091 v -0.59746 z m -0.84143,0.20728 v 0 h -0.19721 v -0.69709 h -0.25309 v -0.18255 h 0.69352 v 0.18255 H 148.297 Z"
         style="fill:#ec1c24;fill-opacity:1;fill-rule:nonzero;stroke:none;stroke-width:0.331498"
         id="path10931"
         inkscape:connector-curvature="0" />
      <path
         d="m 133.61012,213.83282 v 0 c -0.20411,0.40655 -0.62022,0.69709 -1.11785,0.69709 -0.68563,0 -1.25655,-0.59746 -1.25655,-1.34437 0,-0.72217 0.57092,-1.3116 1.25655,-1.3116 0.49763,0 0.91374,0.28218 1.11785,0.69742 l 1.01169,-0.62253 c -0.42433,-0.77199 -1.2158,-1.28653 -2.12954,-1.28653 -1.33018,0 -2.41516,1.13708 -2.41516,2.52324 0,1.41926 1.08498,2.54792 2.41516,2.54792 0.91374,0 1.70521,-0.53949 2.12954,-1.31121 z"
         style="fill:#ec1c24;fill-opacity:1;fill-rule:nonzero;stroke:none;stroke-width:0.331498"
         id="path10933"
         inkscape:connector-curvature="0" />
    </g>
  </g>
</svg>
