<?xml version="1.0" encoding="UTF-8" standalone="no"?>
<svg
   xmlns:dc="http://purl.org/dc/elements/1.1/"
   xmlns:cc="http://creativecommons.org/ns#"
   xmlns:rdf="http://www.w3.org/1999/02/22-rdf-syntax-ns#"
   xmlns:svg="http://www.w3.org/2000/svg"
   xmlns="http://www.w3.org/2000/svg"
   xmlns:sodipodi="http://sodipodi.sourceforge.net/DTD/sodipodi-0.dtd"
   xmlns:inkscape="http://www.inkscape.org/namespaces/inkscape"
   inkscape:output_extension="org.inkscape.output.svg.inkscape"
   sodipodi:docname="Ethiopia Stop sign.svg"
   version="1.0"
   inkscape:version="1.0 (4035a4fb49, 2020-05-01)"
   sodipodi:version="0.32"
   id="svg2"
   height="1010.4"
   width="1010.4">
  <defs
     id="defs4">
    <inkscape:perspective
       id="perspective3380"
       inkscape:persp3d-origin="300.5 : 200.33333 : 1"
       inkscape:vp_z="601 : 300.5 : 1"
       inkscape:vp_y="0 : 1000 : 0"
       inkscape:vp_x="0 : 300.5 : 1"
       sodipodi:type="inkscape:persp3d" />
    <inkscape:perspective
       sodipodi:type="inkscape:persp3d"
       inkscape:vp_x="0 : 375 : 1"
       inkscape:vp_y="0 : 1000 : 0"
       inkscape:vp_z="750 : 375 : 1"
       inkscape:persp3d-origin="375 : 250 : 1"
       id="perspective3990" />
  </defs>
  <sodipodi:namedview
     inkscape:document-rotation="0"
     inkscape:guide-bbox="true"
     showguides="true"
     inkscape:window-maximized="1"
     fit-margin-bottom="0"
     fit-margin-right="0"
     fit-margin-left="0"
     fit-margin-top="0"
     showgrid="false"
     inkscape:window-y="-9"
     inkscape:window-x="-9"
     inkscape:window-height="1001"
     inkscape:window-width="1920"
     height="601px"
     width="601px"
     inkscape:current-layer="layer1"
     inkscape:document-units="px"
     inkscape:cy="-16.157173"
     inkscape:cx="627.3445"
     inkscape:zoom="0.4308926"
     inkscape:pageshadow="2"
     inkscape:pageopacity="0.0"
     objecttolerance="10"
     guidetolerance="10"
     gridtolerance="10000"
     borderopacity="1.0"
     bordercolor="#666666"
     pagecolor="#ffffff"
     id="base" />
  <metadata
     id="metadata7">
    <rdf:RDF>
      <cc:Work
         rdf:about="">
        <dc:format>image/svg+xml</dc:format>
        <dc:type
           rdf:resource="http://purl.org/dc/dcmitype/StillImage" />
        <dc:title></dc:title>
      </cc:Work>
    </rdf:RDF>
  </metadata>
  <g
     transform="translate(735.8664,5096.2693)"
     id="layer1"
     inkscape:groupmode="layer"
     inkscape:label="Layer 1">
    <rect
       ry="27.202072"
       rx="249.48199"
       y="298.1684"
       x="578.73834"
       height="27.202072"
       width="0"
       id="rect3653"
       style="color:#000000;display:inline;overflow:visible;visibility:visible;fill:#000000;fill-opacity:1;fill-rule:nonzero;stroke:none;stroke-width:0.8735441;marker:none" />
    <path
       style="fill:#c0111e;fill-opacity:1;stroke:none"
       d="m -21.4887,-4086.0694 295.8223,-295.8221 -10e-5,-418.3556 -295.822,-295.8224 -418.3557,3e-4 -295.8222,295.8221 2e-4,418.3558 295.822,295.822 z"
       id="path3940"
       inkscape:connector-curvature="0" />
    <path
       style="fill:#ffffff;fill-opacity:1;stroke:none"
       d="m -23.5597,-4091.0695 292.8933,-292.8932 -10e-5,-414.2135 -292.8931,-292.8935 -414.2135,3e-4 -292.8933,292.8932 2e-4,414.2136 292.8931,292.8932 z"
       id="path3942"
       inkscape:connector-curvature="0" />
    <path
       inkscape:connector-curvature="0"
       id="path3944"
       d="m -419.1337,-5046.0695 -266.5327,266.5326 10e-5,376.9346 266.5325,266.5329 376.93437,-4e-4 266.53303,-266.5324 -2.9e-4,-376.9347 -266.53264,-266.5327 z"
       style="fill:#c0111e;fill-opacity:1;stroke:none" />
    <g
       transform="matrix(1.6375787,0,0,1.6375787,-681.84251,3505.2736)"
       style="font-style:normal;font-weight:normal;font-size:234.066px;line-height:1.25;font-family:sans-serif;fill:#ffffff;fill-opacity:1;stroke:none;stroke-width:5.85164"
       id="text1876"
       aria-label="ቁም">
      <path
         id="path2509"
         style="stroke-width:5.85164;fill:#ffffff"
         d="m 215.58439,-4989.3786 q -0.22859,3.0858 -0.22859,4.9144 0,6.8574 1.2572,13.6005 1.37148,6.7432 4.34302,12.6862 l -17.37209,7.086 q -2.62867,-5.143 -4.22873,-10.5147 -1.48577,-5.3716 -2.40009,-11.3147 h -25.02952 v 20.6865 h -19.20072 v -55.3164 h -14.28626 q -21.94369,0 -32.34408,-8.2288 -10.286103,-8.2289 -10.286103,-24.9153 0,-17.8292 10.971843,-26.7438 11.08613,-8.9147 34.17272,-8.9147 h 11.77188 v -39.7729 h 19.20072 v 39.7729 h 14.28626 q 21.94368,0 32.22979,8.2289 10.40039,8.2289 10.40039,24.9153 0,17.8292 -11.08613,26.7438 -10.97185,8.9146 -34.05844,8.9146 h -11.77187 v 18.1722 z m -62.85952,-70.517 h -12.57191 q -13.7148,0 -19.77218,4.5716 -6.05737,4.4573 -6.05737,13.3719 0,9.3718 6.17166,13.7149 6.17167,4.2287 19.31502,4.2287 h 12.91478 z m 19.20072,35.8871 h 12.57191 q 13.7148,0 19.77217,-4.4573 6.05737,-4.5716 6.05737,-13.4863 0,-9.3717 -6.17166,-13.6005 -6.17166,-4.343 -19.31501,-4.343 h -12.91478 z" />
      <path
         id="path2511"
         style="stroke-width:5.85164;fill:#ffffff"
         d="m 340.50339,-5026.18 -51.77338,73.9456 H 267.0149 l 49.60187,-70.8598 H 256.7288 q -0.91432,-6.8574 -1.37148,-12.9148 -0.45717,-6.0573 -0.45717,-11.5433 0,-14.2862 2.74297,-24.5723 2.85725,-10.4004 7.77172,-17.4864 5.02876,-7.2003 11.77187,-11.6576 6.8574,-4.4573 14.85771,-6.8574 8.11459,-2.4001 17.02921,-3.2001 8.91462,-0.8 18.17212,-0.8 h 60.00227 q 8.91462,0 17.48637,0.8 8.68605,0.6857 16.34348,2.8572 7.65743,2.1716 14.05767,6.286 6.51453,4.1144 11.08614,10.8576 4.68589,6.6288 7.31456,16.3434 2.62867,9.7147 2.62867,23.2009 0,5.1431 -0.45716,10.629 -0.45716,5.3716 -1.37148,11.8861 h -80.91735 v -65.6024 h -32.91553 z m -18.40069,-13.9434 v -54.7449 q -9.82895,0.2285 -18.51499,1.7143 -8.68604,1.3715 -15.20057,5.9431 -6.40025,4.5716 -10.17182,13.2576 -3.65728,8.5718 -3.65728,23.0866 0,2.5144 0.11429,5.2574 0.11429,2.6286 0.45716,5.4859 z m 114.74719,-6.1717 q 0.22858,-4.9144 0.22858,-9.3718 0,-8.5717 -1.60006,-14.7434 -1.60006,-6.1716 -4.45731,-10.5147 -2.85725,-4.343 -6.97169,-6.9716 -4.00015,-2.6287 -8.91462,-4.1145 -4.91448,-1.6 -10.51469,-2.1715 -5.60021,-0.5715 -11.65758,-0.6857 v 48.5732 z" />
    </g>
    <path
       id="path3330"
       style="fill:#ffffff;fill-opacity:1;fill-rule:nonzero;stroke:none;stroke-width:1.16922"
       d="M 5.4208336,-4353.1249 H -32.881675 v 87.2617 h -34.208466 v -237.604 H 5.4208336 c 21.8111884,0 40.0922844,18.2977 40.0922844,40.109 v 70.1575 c 0,21.8112 -18.281096,40.0758 -40.0922844,40.0758 m -521.1344436,-83.1183 v -12.9774 c 0,-31.8219 25.93816,-57.7602 57.77685,-57.7602 31.8218,0 57.77669,25.9383 57.77669,57.7602 v 21.2312 h -34.78881 v -25.9383 c 0,-12.9773 -10.60715,-23.0046 -22.98788,-23.0046 -12.97744,0 -23.00476,10.0273 -23.00476,23.0046 v 22.9881 c 0,8.2539 4.14352,15.9276 11.20402,20.0545 l 40.68899,22.9715 c 17.6844,10.0272 28.88844,28.8883 28.88844,49.5229 v 18.2811 c 0,31.8385 -25.95489,57.7767 -57.77669,57.7767 -31.83869,0 -57.77685,-25.9382 -57.77685,-57.7767 v -33.0153 h 34.77209 v 37.7222 c 0,12.9775 10.02732,23.0047 23.00476,23.0047 12.38073,0 22.98788,-10.0272 22.98788,-23.0047 v -28.2916 c 0,-8.2539 -4.7235,-15.911 -11.78402,-20.0379 l -40.09227,-22.9881 c -17.6844,-10.0273 -28.88844,-29.4851 -28.88844,-49.5229 m 408.54754,116.1336 c 0,31.8385 -25.93815,57.7767 -57.77669,57.7767 -31.83852,0 -57.77666,-25.9382 -57.77666,-57.7767 v -129.111 c 0,-31.8219 25.93814,-57.7602 57.77666,-57.7602 31.83854,0 57.77669,25.9383 57.77669,57.7602 z m -267.63584,-183.3576 h 126.74087 v 30.0818 h -45.99268 v 207.5222 h -34.77207 v -207.5222 h -45.97612 z"
       inkscape:connector-curvature="0"
       sodipodi:nodetypes="cccccsssccsssccssssccssssccsssscccsssssssccccccccc" />
    <path
       sodipodi:nodetypes="sssssss"
       inkscape:connector-curvature="0"
       d="m -141.95469,-4315.4027 c 0,12.9775 -10.02734,23.0047 -22.98807,23.0047 -12.38072,0 -23.00459,-10.0272 -23.00459,-23.0047 v -138.525 c 0,-12.9773 10.62387,-23.0046 23.00459,-23.0046 12.96073,0 22.98807,10.0273 22.98807,23.0046 z"
       style="fill:#c0111e;fill-opacity:1;fill-rule:nonzero;stroke:none;stroke-width:1.16922"
       id="path4164" />
    <path
       sodipodi:nodetypes="ssssccsccc"
       inkscape:connector-curvature="0"
       d="m 4.2439645,-4473.3854 c 3.5468005,0 6.4805315,2.9502 6.4805315,6.4804 v 77.218 c 0,4.1434 -2.933731,7.0936 -6.4805315,7.0936 H -32.881675 v -90.792 z m -37.1256395,0 v 90.792 z"
       style="fill:#c0111e;fill-opacity:1;fill-rule:nonzero;stroke:none;stroke-width:1.16922"
       id="path4166" />
  </g>
</svg>
