<?xml version="1.0" encoding="utf-8"?>
<!-- Generator: Adobe Illustrator 14.0.0, SVG Export Plug-In . SVG Version: 6.00 Build 43363)  -->
<!DOCTYPE svg PUBLIC "-//W3C//DTD SVG 1.1//EN" "http://www.w3.org/Graphics/SVG/1.1/DTD/svg11.dtd">
<svg version="1.1" id="Layer_1" xmlns="http://www.w3.org/2000/svg" xmlns:xlink="http://www.w3.org/1999/xlink" x="0px" y="0px"
	 width="200px" height="80px" viewBox="-25 -10 200 80" enable-background="new -25 -10 200 80" xml:space="preserve">
<path fill="#939598" d="M111.391,6.434c-0.053,0.026-0.137,0.063-0.247,0.112c-0.113,0.049-0.247,0.098-0.403,0.148
	c-0.159,0.05-0.333,0.091-0.529,0.125c-0.196,0.033-0.411,0.05-0.643,0.05c-0.69,0-1.22-0.132-1.588-0.393
	c-0.37-0.261-0.592-0.602-0.665-1.024c0.179,0.007,0.348,0.013,0.504,0.019c0.156,0.004,0.322,0.006,0.501,0.006
	c0.771,0,1.404-0.048,1.904-0.143c0.503-0.096,0.898-0.229,1.192-0.398c0.296-0.169,0.503-0.374,0.618-0.611
	c0.116-0.236,0.174-0.501,0.174-0.79c0-0.281-0.063-0.547-0.186-0.796c-0.128-0.25-0.313-0.467-0.559-0.654
	c-0.246-0.188-0.547-0.337-0.905-0.448c-0.354-0.112-0.769-0.169-1.23-0.169c-0.527,0-1.014,0.082-1.456,0.245
	c-0.443,0.161-0.826,0.388-1.154,0.684c-0.326,0.294-0.579,0.646-0.762,1.058c-0.187,0.412-0.275,0.866-0.275,1.364
	c0,0.521,0.094,0.986,0.284,1.387c0.187,0.403,0.44,0.743,0.769,1.021c0.325,0.277,0.706,0.487,1.141,0.629
	c0.434,0.142,0.898,0.21,1.401,0.21c0.354,0,0.684-0.025,0.982-0.075c0.299-0.049,0.564-0.107,0.791-0.172
	c0.229-0.067,0.417-0.137,0.568-0.212c0.154-0.075,0.265-0.134,0.336-0.176L111.391,6.434z M107.403,3.771
	c0.094-0.232,0.225-0.436,0.397-0.616c0.168-0.179,0.378-0.323,0.626-0.428c0.252-0.107,0.542-0.163,0.876-0.163
	c0.401,0,0.736,0.08,1.009,0.237c0.272,0.159,0.408,0.394,0.408,0.709c0,0.124-0.025,0.245-0.078,0.36
	c-0.056,0.116-0.166,0.221-0.338,0.313c-0.168,0.09-0.405,0.165-0.712,0.225c-0.301,0.058-0.7,0.087-1.191,0.087h-0.563
	c-0.188,0-0.386-0.005-0.59-0.013C107.257,4.24,107.311,4.004,107.403,3.771 M122.099,4.12c0-0.482-0.086-0.893-0.26-1.232
	c-0.176-0.34-0.421-0.614-0.73-0.82c-0.315-0.209-0.688-0.36-1.122-0.457c-0.433-0.094-0.912-0.144-1.438-0.144
	c-0.439,0-0.801,0.026-1.087,0.076c-0.288,0.051-0.514,0.118-0.682,0.206c-0.173,0.086-0.289,0.187-0.354,0.298
	c-0.066,0.112-0.101,0.227-0.101,0.345c0,0.164,0.048,0.306,0.14,0.421c0.093,0.117,0.169,0.197,0.219,0.238
	c0.099-0.074,0.302-0.165,0.611-0.272c0.309-0.108,0.719-0.163,1.228-0.163c0.304,0,0.578,0.022,0.832,0.062
	c0.249,0.042,0.466,0.117,0.643,0.224c0.179,0.108,0.319,0.256,0.421,0.447c0.104,0.192,0.156,0.431,0.156,0.722
	c-0.151-0.017-0.381-0.035-0.686-0.056c-0.303-0.021-0.625-0.031-0.963-0.031c-0.59,0-1.091,0.044-1.502,0.13
	c-0.411,0.089-0.743,0.218-0.998,0.394c-0.255,0.175-0.438,0.389-0.55,0.647c-0.113,0.255-0.169,0.554-0.169,0.896
	c0,0.258,0.048,0.508,0.145,0.752c0.09,0.245,0.264,0.46,0.521,0.648c0.253,0.187,0.6,0.335,1.043,0.448
	c0.443,0.111,1.014,0.167,1.711,0.167c0.349,0,0.682-0.008,1.002-0.025c0.323-0.018,0.614-0.035,0.873-0.055
	c0.256-0.021,0.484-0.043,0.677-0.063c0.19-0.02,0.333-0.039,0.421-0.058L122.099,4.12L122.099,4.12z M120.584,6.921
	c-0.082,0.014-0.243,0.038-0.481,0.067c-0.243,0.028-0.567,0.043-0.978,0.043c-0.368,0-0.673-0.023-0.92-0.069
	c-0.244-0.047-0.439-0.111-0.582-0.197c-0.144-0.088-0.245-0.194-0.303-0.319c-0.058-0.124-0.088-0.261-0.088-0.41
	c0-0.366,0.141-0.632,0.418-0.803c0.274-0.169,0.719-0.256,1.326-0.256c0.491,0,0.859,0.019,1.105,0.051
	c0.244,0.033,0.412,0.057,0.502,0.075V6.921z M123.331,7.89h1.527V4.28c0-1.027,0.524-1.542,1.57-1.542
	c0.284,0,0.539,0.028,0.761,0.086c0.225,0.058,0.413,0.12,0.565,0.187c0.054-0.033,0.125-0.115,0.207-0.249
	c0.084-0.133,0.13-0.27,0.13-0.411c0-0.298-0.178-0.52-0.529-0.665c-0.353-0.145-0.812-0.219-1.373-0.219
	c-0.893,0-1.594,0.21-2.1,0.63c-0.502,0.42-0.756,1.009-0.756,1.773V7.89H123.331z M133.865,6.434
	c-0.053,0.026-0.136,0.063-0.249,0.112c-0.111,0.049-0.245,0.098-0.401,0.148c-0.158,0.05-0.332,0.091-0.529,0.125
	c-0.196,0.033-0.41,0.05-0.643,0.05c-0.688,0-1.217-0.132-1.587-0.393c-0.373-0.261-0.595-0.602-0.666-1.024
	c0.179,0.007,0.346,0.013,0.502,0.019c0.158,0.004,0.325,0.006,0.504,0.006c0.77,0,1.403-0.048,1.906-0.143
	c0.501-0.096,0.896-0.229,1.192-0.398c0.294-0.169,0.5-0.374,0.618-0.611c0.116-0.236,0.172-0.501,0.172-0.79
	c0-0.281-0.061-0.547-0.187-0.796c-0.127-0.25-0.31-0.467-0.559-0.654c-0.243-0.188-0.547-0.337-0.9-0.448
	c-0.36-0.112-0.772-0.169-1.235-0.169c-0.529,0-1.011,0.082-1.454,0.245c-0.444,0.161-0.83,0.388-1.152,0.684
	c-0.328,0.294-0.583,0.646-0.768,1.058c-0.182,0.412-0.275,0.866-0.275,1.364c0,0.521,0.096,0.986,0.282,1.387
	c0.189,0.403,0.448,0.743,0.772,1.021c0.325,0.277,0.706,0.487,1.141,0.629c0.434,0.142,0.898,0.21,1.401,0.21
	c0.356,0,0.685-0.025,0.983-0.075c0.302-0.049,0.564-0.107,0.791-0.172c0.227-0.067,0.417-0.137,0.568-0.212
	c0.151-0.075,0.265-0.134,0.335-0.176L133.865,6.434z M129.879,3.771c0.092-0.232,0.224-0.436,0.396-0.616
	c0.169-0.179,0.378-0.323,0.63-0.428c0.248-0.107,0.542-0.163,0.869-0.163c0.403,0,0.738,0.08,1.014,0.237
	c0.271,0.159,0.406,0.394,0.406,0.709c0,0.124-0.026,0.245-0.081,0.36c-0.054,0.116-0.167,0.221-0.336,0.313
	c-0.169,0.091-0.404,0.165-0.708,0.225c-0.308,0.058-0.703,0.087-1.194,0.087h-0.563c-0.188,0-0.385-0.005-0.592-0.013
	C129.732,4.24,129.785,4.004,129.879,3.771 M140.479,1.718c-0.451,0.166-0.842,0.396-1.17,0.692
	c-0.332,0.295-0.592,0.642-0.778,1.044c-0.188,0.404-0.283,0.842-0.283,1.313c0,0.464,0.093,0.898,0.283,1.301
	c0.187,0.401,0.446,0.75,0.778,1.046c0.328,0.294,0.719,0.525,1.17,0.696c0.451,0.168,0.938,0.253,1.454,0.253
	c0.52,0,1.003-0.085,1.454-0.253c0.451-0.171,0.845-0.404,1.175-0.696c0.33-0.295,0.59-0.645,0.776-1.046
	c0.186-0.404,0.282-0.837,0.282-1.301c0-0.472-0.097-0.911-0.282-1.313c-0.187-0.402-0.446-0.75-0.776-1.044
	c-0.33-0.296-0.725-0.526-1.175-0.692c-0.451-0.164-0.935-0.25-1.454-0.25C141.416,1.467,140.93,1.554,140.479,1.718 M141.083,6.651
	c-0.254-0.103-0.474-0.249-0.655-0.435c-0.187-0.187-0.327-0.402-0.431-0.646c-0.104-0.244-0.153-0.512-0.153-0.803
	c0-0.292,0.05-0.563,0.153-0.815c0.104-0.253,0.244-0.471,0.431-0.654c0.182-0.182,0.401-0.324,0.655-0.43
	c0.255-0.104,0.537-0.156,0.85-0.156c0.305,0,0.585,0.052,0.845,0.156c0.259,0.104,0.48,0.247,0.665,0.43
	c0.182,0.183,0.325,0.401,0.426,0.654c0.104,0.252,0.156,0.523,0.156,0.815c0,0.291-0.053,0.559-0.156,0.803
	c-0.101,0.244-0.244,0.459-0.426,0.646c-0.185,0.187-0.406,0.333-0.665,0.435c-0.26,0.104-0.54,0.157-0.845,0.157
	C141.62,6.808,141.338,6.755,141.083,6.651 M146.569,7.89h1.53V4.48c0-0.564,0.144-0.993,0.434-1.289
	c0.293-0.293,0.729-0.442,1.309-0.442c0.571,0,1.005,0.149,1.301,0.442c0.294,0.295,0.441,0.725,0.441,1.289v3.41h1.53V4.12
	c0-0.415-0.081-0.786-0.243-1.115c-0.161-0.328-0.388-0.604-0.674-0.833c-0.294-0.228-0.638-0.404-1.041-0.524
	c-0.401-0.117-0.839-0.181-1.314-0.181c-0.475,0-0.909,0.063-1.309,0.181c-0.396,0.122-0.741,0.296-1.031,0.524
	c-0.289,0.229-0.517,0.505-0.683,0.833c-0.166,0.329-0.248,0.7-0.248,1.115v3.77H146.569z M159.758,6.434
	c-0.053,0.026-0.135,0.063-0.249,0.112c-0.108,0.049-0.243,0.098-0.398,0.148c-0.159,0.05-0.335,0.091-0.529,0.125
	c-0.199,0.032-0.413,0.05-0.646,0.05c-0.688,0-1.216-0.132-1.586-0.393c-0.371-0.261-0.593-0.602-0.667-1.024
	c0.183,0.007,0.35,0.013,0.506,0.019c0.156,0.004,0.322,0.006,0.501,0.006c0.772,0,1.405-0.048,1.904-0.143
	c0.501-0.096,0.899-0.229,1.194-0.398c0.292-0.169,0.502-0.374,0.615-0.611c0.116-0.236,0.176-0.501,0.176-0.79
	c0-0.281-0.063-0.547-0.188-0.796c-0.127-0.25-0.309-0.467-0.555-0.654c-0.246-0.188-0.548-0.337-0.904-0.448
	c-0.356-0.112-0.77-0.169-1.232-0.169c-0.529,0-1.013,0.082-1.454,0.245c-0.447,0.161-0.828,0.388-1.155,0.684
	c-0.328,0.294-0.582,0.646-0.764,1.058c-0.185,0.412-0.275,0.866-0.275,1.364c0,0.521,0.094,0.986,0.282,1.387
	c0.188,0.403,0.444,0.743,0.77,1.021c0.328,0.277,0.709,0.487,1.143,0.629c0.431,0.141,0.896,0.21,1.398,0.21
	c0.356,0,0.685-0.025,0.987-0.075c0.298-0.049,0.562-0.107,0.79-0.172c0.227-0.067,0.415-0.137,0.568-0.212
	c0.15-0.075,0.262-0.134,0.336-0.176L159.758,6.434z M155.771,3.771c0.093-0.232,0.227-0.436,0.396-0.616
	c0.169-0.179,0.38-0.323,0.63-0.428c0.249-0.107,0.542-0.163,0.872-0.163c0.401,0,0.74,0.08,1.011,0.237
	c0.271,0.159,0.408,0.394,0.408,0.709c0,0.124-0.025,0.245-0.081,0.36c-0.053,0.116-0.168,0.221-0.334,0.313
	c-0.171,0.09-0.407,0.165-0.713,0.225c-0.303,0.058-0.701,0.087-1.191,0.087h-0.564c-0.188,0-0.383-0.005-0.592-0.013
	C155.625,4.24,155.678,4.004,155.771,3.771"/>
<path d="M34.251-2.475c0-2.176-1.736-3.94-3.876-3.94c-0.065,0-0.125,0.004-0.187,0.007H19.334v0.001
	C11.138-6.381,4.502,0.377,4.502,8.708c0,8.346,6.658,15.11,14.873,15.112v-0.002c2.136-0.006,3.866-1.768,3.866-3.938
	c0-2.17-1.73-3.932-3.866-3.937v-0.001c-3.931-0.003-7.115-3.242-7.115-7.233c0-3.993,3.184-7.231,7.115-7.232V1.471H30.38V1.46
	C32.519,1.457,34.251-0.303,34.251-2.475"/>
<path fill="#AA975D" d="M34.251,19.873c0-8.344-6.658-15.111-14.875-15.114v0.003c-2.134,0.006-3.864,1.768-3.864,3.938
	c0,2.172,1.73,3.932,3.864,3.939c3.934,0.003,7.119,3.241,7.119,7.233c0,3.993-3.186,7.23-7.119,7.233v0.001H9.25
	c0.948,0.983,1.537,2.327,1.537,3.81c0,1.628-0.718,3.072-1.829,4.069h10.459v-0.003C27.615,34.96,34.251,28.203,34.251,19.873"/>
<path d="M6.765,30.945c0-2.159-1.735-3.911-3.876-3.911c-0.064,0-0.125,0.001-0.186,0.005H-8.151v0.001
	c-8.194,0.026-14.831,6.737-14.831,15.011c0,8.289,6.658,15.008,14.871,15.01V57.06c2.136-0.008,3.866-1.757,3.866-3.911
	c0-2.158-1.729-3.904-3.866-3.912v-0.001c-3.928-0.004-7.117-3.217-7.117-7.184s3.189-7.183,7.118-7.186v-0.002H2.896v-0.008
	C5.034,34.852,6.765,33.103,6.765,30.945"/>
<path fill="#939598" d="M-22.999,63.806c0,2.12,1.736,3.841,3.876,3.841c0.065,0,0.127-0.002,0.186-0.005h10.854v-0.003
	c8.196-0.024,14.831-6.612,14.831-14.74c0-8.143-6.66-14.742-14.873-14.746v0.004c-2.137,0.007-3.866,1.723-3.866,3.84
	c0,2.123,1.729,3.838,3.866,3.845c3.931,0.005,7.118,3.163,7.118,7.061c0,3.894-3.187,7.051-7.118,7.056l0,0H-19.13v0.008
	C-21.268,59.968-22.999,61.687-22.999,63.806"/>
<path d="M151.864,66.951h6.362V55.563c0-1.358,0.35-2.331,1.05-2.919c0.698-0.584,1.546-0.877,2.548-0.877
	c0.764,0,1.462,0.092,2.095,0.28c0.633,0.185,1.172,0.386,1.62,0.597c0.078-0.079,0.197-0.211,0.355-0.399
	c0.159-0.188,0.322-0.412,0.494-0.677c0.169-0.267,0.314-0.573,0.434-0.92c0.118-0.348,0.179-0.721,0.179-1.118
	c0-0.399-0.065-0.746-0.196-1.039c-0.134-0.296-0.32-0.571-0.555-0.839c-0.396-0.4-1.033-0.773-1.915-1.119
	c-0.885-0.348-2.117-0.519-3.697-0.519c-1.288,0-2.475,0.179-3.554,0.539c-1.081,0.359-2.004,0.885-2.765,1.577
	c-0.767,0.693-1.366,1.545-1.8,2.559c-0.433,1.012-0.652,2.172-0.652,3.477v12.786H151.864z"/>
<path d="M9.346,60.333c0,2.21,0.698,3.975,2.093,5.295c1.397,1.318,3.333,1.979,5.809,1.979c0.869,0,1.698-0.088,2.49-0.261
	c0.789-0.173,1.501-0.38,2.133-0.619c0.631-0.242,1.171-0.494,1.618-0.759c0.449-0.267,0.79-0.506,1.03-0.721l-2.49-4.397
	c-0.264,0.164-0.7,0.355-1.304,0.582c-0.607,0.227-1.279,0.338-2.015,0.338c-0.37,0-0.733-0.033-1.088-0.099
	c-0.356-0.065-0.672-0.206-0.948-0.418c-0.276-0.214-0.508-0.502-0.69-0.859c-0.186-0.359-0.278-0.846-0.278-1.459v-6.818h7.034
	c0.105-0.188,0.263-0.582,0.475-1.181c0.209-0.601,0.315-1.245,0.315-1.938c0-0.96-0.249-1.68-0.751-2.161
	c-0.501-0.479-1.343-0.718-2.529-0.718h-4.543v-7.941c-0.158-0.053-0.527-0.166-1.104-0.341c-0.581-0.172-1.226-0.259-1.938-0.259
	c-1,0-1.801,0.212-2.409,0.637c-0.605,0.427-0.909,1.158-0.909,2.2V60.333z"/>
<path d="M137.146,37.817c0.527-1.433,0.792-4.438,0.792-6.469V14.337c-0.159-0.054-0.529-0.167-1.106-0.342
	c-0.58-0.174-1.228-0.26-1.936-0.26c-1.003,0-1.805,0.214-2.412,0.642c-0.607,0.427-0.91,1.164-0.91,2.207v7.463
	c0,1.444-0.327,2.514-0.985,3.209c-0.66,0.695-1.58,1.044-2.765,1.044c-1.265,0-2.194-0.282-2.787-0.843
	c-0.592-0.563-0.89-1.484-0.89-2.77v-10.35c-0.156-0.054-0.526-0.167-1.104-0.342c-0.582-0.174-1.228-0.26-1.936-0.26
	c-1.002,0-1.804,0.214-2.412,0.642c-0.607,0.427-0.909,1.164-0.909,2.207v9.428c0,1.337,0.216,2.494,0.653,3.469
	c0.434,0.979,1.041,1.787,1.818,2.429c0.775,0.642,1.685,1.115,2.725,1.425c1.038,0.307,2.165,0.46,3.377,0.46
	c1.028,0,2.054-0.18,3.08-0.542c1.027-0.361,1.794-0.849,2.293-1.465c0,2.033-0.005,4.894-0.902,5.777
	c-0.895,0.883-2.797,1.558-4.826,1.558c-0.711,0-1.401-0.047-2.073-0.14c-0.671-0.091-1.269-0.199-1.798-0.32
	c-0.526-0.121-0.968-0.241-1.321-0.36c-0.064-0.022-0.102-0.021-0.156-0.034v-0.024c-0.156-0.052-1.317-0.403-2.01-0.536
	c-0.579-0.174-1.24-0.228-1.951-0.228c-1,0-1.803,0.215-2.409,0.641c-0.607,0.429-0.91,1.163-0.91,2.208v20.048
	c0,2.22,0.698,3.994,2.095,5.317s3.332,1.984,5.809,1.984c0.867,0,1.699-0.087,2.491-0.258c0.788-0.175,1.5-0.383,2.131-0.623
	c0.633-0.241,1.172-0.496,1.618-0.763c0.45-0.268,0.791-1.066,1.032-1.283l-2.494-3.851c-0.262,0.158-0.698,0.355-1.303,0.582
	s-1.277,0.34-2.014,0.34c-0.37,0-0.73-0.035-1.089-0.101c-0.355-0.066-0.672-0.207-0.947-0.421c-0.274-0.214-0.507-0.502-0.69-0.862
	c-0.185-0.36-0.274-0.848-0.274-1.464v-6.848h7.031c0.105-0.187,0.262-0.579,0.471-1.182c0.212-0.603,0.32-1.25,0.32-1.947
	c0-0.961-0.252-1.685-0.754-2.166c-0.5-0.483-1.343-0.723-2.527-0.723h-4.543l0.004-2.646l0.174,0.051
	c0.355,0.105,0.751,0.214,1.23,0.328c0.738,0.174,1.593,0.327,2.567,0.46c0.973,0.134,2.029,0.159,3.186,0.159
	c1.661,0,3.176-0.408,4.519-0.825c1.344-0.415,2.589-1.079,3.562-1.975C135.927,40.706,136.617,39.246,137.146,37.817"/>
<path d="M55.622,27.862c-0.858-0.846-1.284-2.01-1.284-3.494c0-0.688,0.112-1.329,0.335-1.925c0.225-0.595,0.54-1.112,0.949-1.549
	c0.406-0.436,0.888-0.781,1.442-1.032c0.552-0.252,1.157-0.376,1.815-0.376c1.318,0,2.404,0.457,3.259,1.369
	c0.856,0.914,1.284,2.084,1.284,3.513c0,1.43-0.428,2.581-1.284,3.454c-0.855,0.874-1.943,1.312-3.259,1.312
	C57.563,29.134,56.477,28.71,55.622,27.862 M48.055,23.417c0,1.694,0.172,3.163,0.514,4.407c0.343,1.245,0.83,2.289,1.462,3.136
	c1,1.322,2.279,2.329,3.831,3.017c1.556,0.688,3.281,1.031,5.178,1.031c1.553,0,2.995-0.257,4.328-0.773
	c1.328-0.518,2.48-1.238,3.457-2.164c0.974-0.926,1.74-2.05,2.29-3.375c0.555-1.324,0.831-2.779,0.831-4.366
	c0-1.614-0.257-3.077-0.771-4.386c-0.513-1.31-1.21-2.427-2.093-3.354c-0.884-0.926-1.917-1.646-3.103-2.164
	c-1.185-0.516-2.448-0.772-3.793-0.772c-1.474,0-2.691,0.244-3.652,0.734c-0.961,0.49-1.68,0.972-2.155,1.449V5.248
	c-0.156-0.053-0.52-0.165-1.086-0.338c-0.565-0.173-1.204-0.258-1.915-0.258c-1.001,0-1.804,0.212-2.41,0.634
	c-0.607,0.423-0.91,1.698-0.91,2.729v15.401H48.055z"/>
<path d="M37.917,40.151c-0.002,0.013-0.004,0.021-0.004,0.027v26.774h6.362V37.931h-0.001l0.117-23.498
	c-0.16-0.054-0.703-0.237-1.283-0.412c-0.579-0.174-1.222-0.26-1.936-0.26c-1.001,0-1.804,0.214-2.411,0.642
	c-0.604,0.43-0.832,1.166-0.832,2.21L37.917,40.151z M44.57,8.252c0-1.018-0.343-1.876-1.026-2.572
	c-0.685-0.698-1.527-1.048-2.529-1.048c-1,0-1.837,0.35-2.507,1.048C37.835,6.375,37.5,7.234,37.5,8.252
	c0,1.02,0.336,1.869,1.008,2.552c0.671,0.683,1.507,1.024,2.507,1.024c1.001,0,1.844-0.342,2.529-1.024
	C44.227,10.121,44.57,9.271,44.57,8.252"/>
<path d="M94.714,34.279h6.362V23.603c0-2.72,1.24-4.083,3.713-4.083c1.187,0,2.097,0.334,2.726,1.001
	c0.635,0.667,0.947,1.694,0.947,3.081v10.676h6.361V22.151c0-1.361-0.263-2.573-0.788-3.631c-0.526-1.06-1.246-1.942-2.152-2.649
	c-0.909-0.707-1.976-1.242-3.199-1.61c-1.225-0.366-2.521-0.547-3.895-0.547c-1.396,0-2.701,0.182-3.909,0.547
	c-1.211,0.368-2.278,0.903-3.199,1.61c-0.923,0.708-1.646,1.59-2.174,2.649c-0.528,1.059-0.79,2.271-0.79,3.631v12.128H94.714z"/>
<path d="M154.453,20.693c0,0.265-0.056,0.527-0.159,0.791c-0.105,0.265-0.396,0.501-0.867,0.712c-0.476,0.21-1.203,0.38-2.176,0.514
	c-0.976,0.131-2.343,0.197-4.111,0.197c0.027-0.528,0.132-1.049,0.314-1.563c0.186-0.515,0.458-0.969,0.812-1.366
	c0.358-0.395,0.797-0.717,1.323-0.968c0.526-0.25,1.146-0.376,1.857-0.376c0.999,0,1.75,0.205,2.251,0.613
	C154.201,19.658,154.453,20.14,154.453,20.693 M160.577,20.733c0-0.896-0.207-1.766-0.614-2.609
	c-0.409-0.843-0.999-1.595-1.779-2.254c-0.777-0.659-1.73-1.181-2.866-1.563c-1.132-0.38-2.405-0.571-3.833-0.571
	c-1.527,0-2.949,0.255-4.265,0.771c-1.317,0.514-2.465,1.233-3.438,2.155c-0.976,0.922-1.738,2.042-2.293,3.36
	c-0.552,1.318-0.827,2.769-0.827,4.349c0,1.688,0.275,3.19,0.827,4.508c0.556,1.319,1.314,2.432,2.274,3.342
	c0.961,0.907,2.088,1.603,3.376,2.076c1.29,0.473,2.674,0.711,4.151,0.711c1.185,0,2.271-0.086,3.258-0.257
	c0.986-0.172,1.851-0.376,2.586-0.613c0.738-0.237,1.351-0.474,1.84-0.713c0.483-0.239,0.834-0.418,1.047-0.553l-2.213-4.43
	c-0.053,0.053-0.225,0.144-0.511,0.276c-0.293,0.132-0.661,0.265-1.108,0.396c-0.448,0.131-0.973,0.256-1.58,0.376
	c-0.605,0.119-1.25,0.178-1.936,0.178c-0.895,0-1.658-0.079-2.291-0.237s-1.154-0.369-1.56-0.632
	c-0.411-0.265-0.727-0.547-0.95-0.85c-0.225-0.303-0.363-0.613-0.416-0.929h1.386c2.344,0,4.273-0.143,5.786-0.435
	c1.515-0.289,2.715-0.706,3.594-1.246c0.885-0.539,1.497-1.2,1.84-1.978C160.405,22.585,160.577,21.707,160.577,20.733"/>
<path d="M85.377,30.299c-0.187,0.053-0.569,0.099-1.146,0.138c-0.582,0.04-1.213,0.06-1.896,0.06c-0.87,0-1.57-0.074-2.097-0.219
	c-0.525-0.143-0.923-0.323-1.185-0.534c-0.264-0.21-0.437-0.449-0.513-0.712c-0.082-0.265-0.116-0.515-0.116-0.752
	c0-0.317,0.05-0.619,0.156-0.91c0.104-0.291,0.296-0.548,0.57-0.773c0.277-0.223,0.667-0.403,1.163-0.535
	c0.503-0.131,1.15-0.198,1.936-0.198c0.927,0,1.616,0.021,2.077,0.059c0.461,0.038,0.809,0.085,1.05,0.138L85.377,30.299
	L85.377,30.299z M91.735,22.379c0-1.663-0.282-3.047-0.85-4.156c-0.565-1.108-1.343-1.999-2.328-2.672
	c-0.988-0.672-2.155-1.148-3.498-1.425c-1.346-0.276-2.78-0.414-4.308-0.414c-4.688,0-7.031,1.147-7.031,3.441
	c0,0.372,0.065,0.713,0.197,1.03c0.131,0.316,0.277,0.602,0.434,0.851c0.158,0.251,0.317,0.457,0.476,0.614
	c0.159,0.159,0.263,0.265,0.315,0.317c0.104-0.08,0.29-0.185,0.552-0.317c0.265-0.132,0.612-0.265,1.049-0.396
	c0.436-0.132,0.96-0.243,1.58-0.335c0.618-0.093,1.338-0.139,2.152-0.139c1.739,0,2.984,0.263,3.735,0.791
	c0.749,0.526,1.127,1.253,1.127,2.177c-0.37-0.053-0.838-0.092-1.403-0.119c-0.566-0.026-1.27-0.04-2.113-0.04
	c-3.374,0-5.833,0.522-7.39,1.564c-1.555,1.044-2.331,2.778-2.331,5.206c0,0.897,0.159,1.748,0.473,2.553
	c0.318,0.806,0.868,1.509,1.662,2.116c0.789,0.609,1.844,1.091,3.16,1.444c1.316,0.356,2.974,0.537,4.975,0.537
	c1.188,0,2.312-0.029,3.38-0.081c1.066-0.053,2.016-0.121,2.846-0.199c0.827-0.076,1.52-0.151,2.07-0.217
	c0.556-0.066,0.909-0.124,1.068-0.178L91.735,22.379L91.735,22.379z"/>
<path d="M103.835,62.888c-0.185,0.054-0.567,0.101-1.145,0.14c-0.582,0.04-1.215,0.061-1.897,0.061
	c-0.869,0-1.567-0.073-2.095-0.222c-0.526-0.146-0.922-0.328-1.185-0.545c-0.264-0.214-0.436-0.455-0.514-0.725
	c-0.078-0.267-0.118-0.522-0.118-0.765c0-0.322,0.053-0.631,0.158-0.928c0.104-0.295,0.295-0.557,0.572-0.785
	c0.277-0.227,0.665-0.409,1.163-0.543c0.503-0.133,1.148-0.201,1.938-0.201c0.92,0,1.61,0.02,2.07,0.061
	c0.464,0.04,0.812,0.088,1.05,0.141L103.835,62.888L103.835,62.888z M110.195,54.831c0-1.69-0.284-3.1-0.849-4.226
	c-0.566-1.13-1.344-2.033-2.331-2.72c-0.988-0.683-2.152-1.167-3.498-1.45c-1.341-0.282-2.777-0.42-4.305-0.42
	c-4.69,0-7.034,1.166-7.034,3.503c0,0.376,0.065,0.727,0.199,1.046c0.131,0.323,0.274,0.612,0.434,0.867
	c0.159,0.256,0.317,0.464,0.474,0.622c0.159,0.162,0.265,0.271,0.317,0.323c0.104-0.081,0.288-0.188,0.552-0.323
	c0.265-0.133,0.61-0.267,1.049-0.401c0.434-0.135,0.96-0.248,1.581-0.343c0.619-0.095,1.336-0.142,2.152-0.142
	c1.74,0,2.985,0.271,3.734,0.806c0.751,0.538,1.126,1.276,1.126,2.215c-0.368-0.053-0.837-0.093-1.401-0.121
	c-0.566-0.027-1.272-0.04-2.115-0.04c-3.371,0-5.833,0.532-7.391,1.592c-1.553,1.06-2.331,2.824-2.331,5.296
	c0,0.915,0.158,1.779,0.477,2.599c0.314,0.819,0.866,1.537,1.658,2.154c0.791,0.618,1.842,1.109,3.16,1.47
	c1.316,0.362,2.977,0.544,4.976,0.544c1.188,0,2.315-0.026,3.38-0.079c1.066-0.056,2.015-0.122,2.846-0.203
	c0.827-0.08,1.521-0.153,2.072-0.221c0.554-0.066,0.907-0.127,1.066-0.183V54.831H110.195z"/>
<path fill="#939598" d="M98.51,7.89c0.073-0.179,0.166-0.442,0.282-0.789c0.116-0.346,0.244-0.727,0.381-1.137
	c0.139-0.41,0.279-0.833,0.415-1.263c0.139-0.434,0.268-0.83,0.384-1.189c0.115,0.36,0.244,0.755,0.383,1.189
	c0.136,0.431,0.277,0.852,0.421,1.263c0.144,0.41,0.274,0.791,0.396,1.137c0.122,0.347,0.217,0.61,0.289,0.789h1.584
	c0.222-0.487,0.46-1.033,0.71-1.637c0.248-0.603,0.486-1.192,0.711-1.77c0.222-0.578,0.424-1.115,0.603-1.61
	c0.176-0.497,0.302-0.886,0.375-1.17c-0.018-0.015-0.103-0.063-0.254-0.141s-0.35-0.115-0.59-0.115
	c-0.268,0-0.467,0.062-0.598,0.186c-0.128,0.125-0.234,0.318-0.314,0.584c-0.207,0.701-0.432,1.402-0.677,2.105
	c-0.245,0.702-0.484,1.347-0.718,1.938c-0.108-0.292-0.224-0.625-0.354-1.002c-0.13-0.375-0.263-0.77-0.395-1.18
	c-0.135-0.411-0.27-0.828-0.403-1.251c-0.136-0.424-0.26-0.829-0.378-1.213c-0.035-0.017-0.123-0.049-0.268-0.096
	c-0.141-0.046-0.302-0.071-0.48-0.071c-0.285,0-0.494,0.058-0.625,0.171c-0.129,0.116-0.228,0.285-0.299,0.508
	c-0.099,0.333-0.204,0.686-0.323,1.058c-0.113,0.373-0.235,0.741-0.352,1.104c-0.124,0.364-0.24,0.716-0.35,1.059
	c-0.113,0.344-0.217,0.646-0.313,0.912c-0.108-0.299-0.232-0.64-0.371-1.022c-0.139-0.379-0.279-0.779-0.423-1.2
	c-0.144-0.419-0.28-0.84-0.413-1.263c-0.136-0.423-0.254-0.824-0.362-1.2c-0.035-0.018-0.108-0.043-0.223-0.077
	c-0.111-0.034-0.264-0.052-0.46-0.052c-0.259,0-0.452,0.068-0.576,0.205c-0.125,0.137-0.188,0.295-0.188,0.475
	c0,0.103,0.031,0.276,0.101,0.52c0.065,0.243,0.182,0.59,0.346,1.039c0.167,0.449,0.392,1.017,0.671,1.701
	c0.282,0.684,0.643,1.518,1.082,2.502h1.572V7.89z"/>
<path d="M136.32,53.766c0.186-0.524,0.455-0.987,0.809-1.392c0.355-0.4,0.797-0.729,1.323-0.985
	c0.529-0.254,1.146-0.383,1.857-0.383c0.999,0,1.75,0.209,2.253,0.625c0.499,0.416,0.749,0.907,0.749,1.469
	c0,0.269-0.054,0.537-0.156,0.807c-0.106,0.269-0.399,0.51-0.87,0.727c-0.474,0.214-1.2,0.389-2.174,0.521
	c-0.979,0.135-2.346,0.201-4.111,0.201C136.027,54.818,136.136,54.29,136.32,53.766 M137.701,59.544
	c2.344,0,4.274-0.146,5.789-0.443c1.515-0.296,2.712-0.718,3.596-1.269c0.883-0.549,1.492-1.222,1.835-2.013
	c0.346-0.793,0.513-1.686,0.513-2.679c0-0.912-0.202-1.8-0.612-2.656c-0.407-0.862-1-1.627-1.779-2.299
	c-0.777-0.672-1.729-1.202-2.864-1.59c-1.131-0.389-2.409-0.582-3.83-0.582c-1.527,0-2.949,0.261-4.267,0.783
	c-1.318,0.524-2.465,1.255-3.438,2.195c-0.976,0.94-1.739,2.082-2.291,3.423c-0.555,1.343-0.832,2.819-0.832,4.43
	c0,1.719,0.277,3.25,0.832,4.594c0.552,1.342,1.308,2.479,2.271,3.4c0.96,0.928,2.087,1.635,3.377,2.117
	c1.293,0.482,2.674,0.726,4.148,0.726c1.185,0,2.271-0.088,3.261-0.262c0.988-0.175,1.851-0.383,2.589-0.624
	c0.735-0.24,1.348-0.482,1.834-0.725c0.489-0.243,0.837-0.431,1.05-0.565l-2.213-4.512c-0.053,0.056-0.226,0.147-0.513,0.282
	c-0.291,0.136-0.659,0.271-1.106,0.402c-0.448,0.136-0.975,0.265-1.58,0.386c-0.608,0.121-1.251,0.18-1.936,0.18
	c-0.895,0-1.658-0.079-2.291-0.24c-0.632-0.161-1.155-0.378-1.56-0.646c-0.411-0.27-0.728-0.557-0.95-0.866
	c-0.223-0.308-0.36-0.623-0.413-0.945h1.381V59.544z"/>
<path d="M69.948,66.951c0.132-0.411,0.329-1.076,0.594-1.996c0.262-0.92,0.544-1.92,0.847-3.004c0.302-1.086,0.607-2.177,0.91-3.273
	c0.301-1.1,0.571-2.032,0.81-2.801c0.237,0.769,0.507,1.688,0.81,2.759c0.302,1.069,0.604,2.148,0.909,3.232
	c0.302,1.083,0.585,2.093,0.85,3.023c0.261,0.937,0.473,1.621,0.631,2.06h6.085c0.682-1.507,1.409-3.243,2.173-5.206
	c0.764-1.962,1.494-3.897,2.192-5.805c0.698-1.908,1.311-3.657,1.838-5.25c0.526-1.59,0.882-2.784,1.065-3.581
	c-0.05-0.026-0.164-0.104-0.336-0.227c-0.172-0.124-0.415-0.252-0.729-0.392c-0.315-0.135-0.684-0.259-1.106-0.369
	c-0.421-0.111-0.896-0.165-1.422-0.165c-1.159,0-2.018,0.296-2.568,0.886c-0.554,0.59-1.003,1.517-1.343,2.779
	c-0.237,0.903-0.481,1.809-0.731,2.716c-0.249,0.907-0.493,1.771-0.73,2.593c-0.237,0.826-0.46,1.582-0.672,2.265
	c-0.208,0.687-0.396,1.276-0.552,1.771c-0.158-0.576-0.362-1.311-0.613-2.203c-0.251-0.891-0.521-1.871-0.812-2.941
	c-0.29-1.071-0.598-2.216-0.928-3.438c-0.33-1.222-0.665-2.449-1.008-3.684c-0.131-0.081-0.486-0.226-1.066-0.433
	c-0.578-0.205-1.211-0.309-1.896-0.309c-1.131,0-1.916,0.247-2.35,0.741c-0.435,0.493-0.77,1.153-1.007,1.976
	c-0.133,0.494-0.329,1.215-0.592,2.161c-0.264,0.946-0.535,1.941-0.811,2.985c-0.276,1.042-0.546,2.038-0.809,2.983
	c-0.263,0.945-0.475,1.667-0.634,2.161c-0.183-0.576-0.405-1.316-0.671-2.223c-0.265-0.906-0.554-1.906-0.868-3.006
	c-0.317-1.099-0.64-2.257-0.969-3.478c-0.331-1.22-0.667-2.449-1.008-3.685c-0.158-0.083-0.473-0.205-0.948-0.37
	c-0.473-0.167-1.133-0.247-1.975-0.247c-1.054,0-1.836,0.287-2.351,0.864c-0.512,0.577-0.77,1.25-0.77,2.018
	c0,0.771,0.112,1.483,0.336,2.141c0.224,0.659,0.401,1.182,0.532,1.566c0.107,0.328,0.338,0.988,0.691,1.975
	c0.356,0.989,0.784,2.147,1.284,3.478c0.502,1.333,1.061,2.78,1.681,4.344c0.618,1.565,1.257,3.104,1.916,4.61h6.123V66.951z"/>
<path d="M27.828,66.951h6.36v-20.26c-0.158-0.056-0.526-0.172-1.106-0.348c-0.578-0.181-1.223-0.268-1.937-0.268
	c-0.999,0-1.804,0.22-2.409,0.655c-0.605,0.437-0.907,1.188-0.907,2.251v17.969H27.828z"/>
<path d="M48,66.951h6.361V38.1c-0.158-0.053-0.528-0.166-1.104-0.34c-0.581-0.172-1.226-0.26-1.938-0.26
	c-1,0-1.804,0.214-2.408,0.641C48.302,38.566,48,39.297,48,40.338L48,66.951L48,66.951z"/>
<path d="M30.987,37.5c-1,0-1.838,0.348-2.508,1.038c-0.672,0.693-1.007,1.547-1.007,2.559c0,1.013,0.335,1.857,1.007,2.537
	c0.671,0.681,1.508,1.019,2.508,1.019c1,0,1.843-0.338,2.528-1.019c0.684-0.678,1.029-1.524,1.029-2.537
	c0-1.012-0.345-1.865-1.029-2.559C32.83,37.848,31.989,37.5,30.987,37.5"/>
</svg>
