<?xml version="1.0" encoding="UTF-8" standalone="no"?>
<!-- Created with Inkscape (http://www.inkscape.org/) -->

<svg
   xmlns:dc="http://purl.org/dc/elements/1.1/"
   xmlns:cc="http://creativecommons.org/ns#"
   xmlns:rdf="http://www.w3.org/1999/02/22-rdf-syntax-ns#"
   xmlns:svg="http://www.w3.org/2000/svg"
   xmlns="http://www.w3.org/2000/svg"
   xmlns:sodipodi="http://sodipodi.sourceforge.net/DTD/sodipodi-0.dtd"
   xmlns:inkscape="http://www.inkscape.org/namespaces/inkscape"
   width="752.90002"
   height="1127.9"
   id="svg2"
   version="1.1"
   inkscape:version="0.92.3 (2405546, 2018-03-11)"
   sodipodi:docname="5.27 Mongolian road sign.svg">
  <defs
     id="defs4" />
  <sodipodi:namedview
     id="base"
     pagecolor="#ffffff"
     bordercolor="#666666"
     borderopacity="1.0"
     inkscape:pageopacity="0.0"
     inkscape:pageshadow="2"
     inkscape:zoom="0.5"
     inkscape:cx="52.126498"
     inkscape:cy="837.24733"
     inkscape:document-units="px"
     inkscape:current-layer="layer1"
     showgrid="false"
     inkscape:window-width="1920"
     inkscape:window-height="1027"
     inkscape:window-x="-8"
     inkscape:window-y="-8"
     inkscape:window-maximized="1"
     inkscape:snap-bbox="false"
     inkscape:bbox-paths="true"
     inkscape:bbox-nodes="true"
     inkscape:snap-bbox-edge-midpoints="true"
     inkscape:snap-bbox-midpoints="true"
     showguides="false" />
  <metadata
     id="metadata7">
    <rdf:RDF>
      <cc:Work
         rdf:about="">
        <dc:format>image/svg+xml</dc:format>
        <dc:type
           rdf:resource="http://purl.org/dc/dcmitype/StillImage" />
        <dc:title />
        <cc:license
           rdf:resource="http://creativecommons.org/licenses/by-sa/3.0/" />
        <dc:description>ГОСТ Р 52290-2004
Размеры и пропорции по типоразмеру IV</dc:description>
      </cc:Work>
      <cc:License
         rdf:about="http://creativecommons.org/licenses/by-sa/3.0/">
        <cc:permits
           rdf:resource="http://creativecommons.org/ns#Reproduction" />
        <cc:permits
           rdf:resource="http://creativecommons.org/ns#Distribution" />
        <cc:requires
           rdf:resource="http://creativecommons.org/ns#Notice" />
        <cc:requires
           rdf:resource="http://creativecommons.org/ns#Attribution" />
        <cc:permits
           rdf:resource="http://creativecommons.org/ns#DerivativeWorks" />
        <cc:requires
           rdf:resource="http://creativecommons.org/ns#ShareAlike" />
      </cc:License>
    </rdf:RDF>
  </metadata>
  <g
     inkscape:label="Layer 1"
     inkscape:groupmode="layer"
     id="layer1"
     transform="translate(1.45,74.0878)">
    <path
       id="rect10858"
       transform="translate(-0.5,-73.1378)"
       style="color:#000000;display:inline;overflow:visible;visibility:visible;opacity:1;fill:#ffffff;fill-opacity:1;fill-rule:nonzero;stroke:none;stroke-width:3.54299998;marker:none;enable-background:accumulate"
       d="M 23.580078,0.5 C 10.79393,0.5 0.5,10.79393 0.5,23.580078 V 1102.4199 c 0,12.7862 10.29393,23.0801 23.080078,23.0801 H 727.41992 c 12.78615,0 23.08008,-10.2939 23.08008,-23.0801 V 23.580078 C 750.5,10.79393 740.20607,0.5 727.41992,0.5 Z"
       inkscape:connector-curvature="0"
       sodipodi:nodetypes="sssssssss" />
    <path
       id="rect10868"
       style="color:#000000;display:inline;overflow:visible;visibility:visible;opacity:1;fill:none;stroke:#0d69e1;stroke-width:3.9000001;stroke-miterlimit:4;stroke-dasharray:none;stroke-opacity:1;marker:none;enable-background:accumulate"
       d="m 22.5,-72.1378 c -12.188,0 -22,9.812 -22,22 v 1080 c 0,12.188 9.812,22 22,22 h 705 c 12.188,0 22,-9.812 22,-22 v -1080 c 0,-12.188 -9.812,-22 -22,-22 z"
       inkscape:connector-curvature="0"
       sodipodi:nodetypes="sssssssss" />
    <path
       style="color:#000000;display:inline;overflow:visible;visibility:visible;opacity:1;fill:#0d69e1;fill-opacity:1;fill-rule:nonzero;stroke:none;stroke-width:3.54299998;marker:none;enable-background:accumulate"
       d="m 22.5,-62.6378 c -6.925,0 -12.5,5.575 -12.5,12.5 v 1080 c 0,6.925 5.575,12.5 12.5,12.5 h 705 c 6.925,0 12.5,-5.575 12.5,-12.5 v -1080 c 0,-6.925 -5.575,-12.5 -12.5,-12.5 z m 55.9375,241.71875 h 593.125 V 443.8153 H 78.4375 Z m 0,276.25 h 593.125 V 720.0653 H 78.4375 Z m 0,276.25 h 593.125 V 996.3153 H 78.4375 Z"
       id="rect9536"
       inkscape:connector-curvature="0"
       sodipodi:nodetypes="sssssssssccccccccccccccc" />
    <path
       inkscape:connector-curvature="0"
       style="color:#000000;display:inline;overflow:visible;visibility:visible;opacity:1;fill:#ff0000;fill-opacity:1;fill-rule:nonzero;stroke:none;stroke-width:1px;marker:none;enable-background:accumulate"
       d="m 186.79691,228.00033 c -45.6713,0 -82.69535,37.36211 -82.69535,83.45051 0,46.0884 37.02405,83.45052 82.69535,83.45052 45.6714,0 82.6953,-37.36212 82.6953,-83.45052 0,-46.0884 -37.0239,-83.45051 -82.6953,-83.45051 z m 0,14.10922 c 37.9494,0 68.71375,31.04533 68.71375,69.34129 0,38.29596 -30.76435,69.34128 -68.71375,69.34128 -37.9494,0 -68.71375,-31.04532 -68.71375,-69.34128 0,-38.29596 30.76435,-69.34129 68.71375,-69.34129 z"
       id="path4775-9" />
    <g
       transform="matrix(0.28515626,0,0,0.28776042,101.25001,94.950704)"
       style="font-style:normal;font-variant:normal;font-weight:normal;font-stretch:normal;font-size:380.18783569px;line-height:125%;font-family:Arial;-inkscape-font-specification:Arial;letter-spacing:-21.29032135px;word-spacing:0px;opacity:1;fill:#000000;fill-opacity:1;stroke:none;stroke-width:2"
       id="text9499">
      <path
         inkscape:connector-curvature="0"
         d="m 222.80979,642.48951 c -27.7772,1.14077 -48.06944,13.02147 -60.8768,35.64215 -12.80744,22.62104 -19.12798,49.13877 -18.96162,79.55328 0.27719,33.4324 7.04127,59.0472 20.29226,76.84447 13.2509,17.79732 31.32541,26.77914 54.2236,26.94547 17.90807,-0.55443 33.32131,-8.09472 46.23974,-22.62089 12.91814,-14.52613 19.68222,-32.71153 20.29227,-54.55625 -0.39443,-16.69276 -4.04137,-29.60488 -10.94082,-38.73642 -6.89977,-9.13131 -14.68648,-15.4536 -23.36014,-18.9669 -8.67393,-3.51304 -15.86923,-5.18866 -21.58593,-5.02686 -9.43339,0.28527 -18.51025,2.75645 -27.23061,7.41356 -8.72052,4.65736 -16.37169,9.78983 -22.95354,15.39741 -0.26759,-0.88697 0.52093,-7.09662 2.36558,-18.62896 1.84452,-11.53207 6.35039,-23.06428 13.51761,-34.59665 7.16707,-11.53203 18.60071,-17.74168 34.30096,-18.62896 12.36374,0.45957 22.89797,2.29711 31.60271,5.51264 8.70445,3.2159 13.2508,5.05345 13.63906,5.51266 l -5.32256,-32.31555 c -0.55458,-0.36413 -5.43359,-1.8215 -14.63705,-4.37211 -9.20373,-2.55018 -19.40529,-4.00754 -30.60472,-4.37209 z m 0,109.87287 c 5.76599,10e-5 11.53209,2.66138 17.29832,7.98384 5.76598,5.32265 8.8708,13.30649 9.31449,23.95152 -0.0635,9.92442 -3.26338,19.34978 -9.59963,28.2761 -6.3365,8.92642 -15.4292,13.69454 -27.27812,14.30439 -8.0778,-0.59136 -14.60661,-4.73113 -19.58646,-12.41932 -4.98001,-7.68809 -8.60817,-15.37623 -10.8845,-23.06443 -2.27647,-7.68807 -3.39824,-11.82783 -3.36532,-12.4193 0.67318,-1.10878 5.69476,-5.54424 15.06476,-13.3064 9.36984,-7.76198 19.04865,-12.19744 29.03646,-13.3064 z"
         style="font-family:'Russian Road Sign';-inkscape-font-specification:'Russian Road Sign';fill:#000000;stroke-width:4"
         id="path12011" />
      <path
         inkscape:connector-curvature="0"
         d="m 385.42358,643.24987 c -21.62298,0.55465 -38.92129,10.75621 -51.89498,30.60472 -12.97377,19.84888 -19.62697,46.01812 -19.9596,78.50779 0.33263,32.48987 6.98583,58.6591 19.9596,78.50777 12.97369,19.84872 30.272,30.05029 51.89498,30.60473 21.62278,-0.55443 38.92109,-10.756 51.89496,-30.60473 12.97359,-19.84868 19.62678,-46.01791 19.95961,-78.50777 -0.33283,-30.9927 -6.98602,-56.73423 -19.95961,-77.22467 -12.97387,-20.49007 -30.27218,-31.11934 -51.89496,-31.88784 z m 0,33.07592 c 10.42324,-0.15823 18.75557,5.86133 24.99703,18.05868 6.24121,12.19768 9.44108,31.52363 9.59962,57.97791 -0.15855,26.45447 -3.35842,45.78042 -9.59963,57.97789 -6.24145,12.19756 -14.57378,18.21712 -24.99702,18.05869 -10.42344,0.15844 -18.75578,-5.86112 -24.99704,-18.05869 -6.24139,-12.19748 -9.44126,-31.52342 -9.59961,-57.97789 0.15835,-26.45427 3.35822,-45.78022 9.59962,-57.97791 6.24126,-12.19736 14.5736,-18.21692 24.99703,-18.05868 z"
         style="font-family:'Russian Road Sign';-inkscape-font-specification:'Russian Road Sign';fill:#000000;stroke-width:4"
         id="path12013-5" />
    </g>
    <path
       inkscape:connector-curvature="0"
       style="color:#000000;display:inline;overflow:visible;visibility:visible;opacity:1;fill:#ff0000;fill-opacity:1;fill-rule:nonzero;stroke:none;stroke-width:1px;marker:none;enable-background:accumulate"
       d="m 186.79691,504.25031 c -45.6713,0 -82.69535,37.36212 -82.69535,83.45052 0,46.0884 37.02405,83.45052 82.69535,83.45052 45.6714,0 82.6953,-37.36212 82.6953,-83.45052 0,-46.0884 -37.0239,-83.45052 -82.6953,-83.45052 z m 0,14.10924 c 37.9494,0 68.71375,31.04532 68.71375,69.34128 0,38.29596 -30.76435,69.34128 -68.71375,69.34128 -37.9494,0 -68.71375,-31.04532 -68.71375,-69.34128 0,-38.29596 30.76435,-69.34128 68.71375,-69.34128 z"
       id="path4775-9-1" />
    <g
       transform="matrix(0.28515626,0,0,0.28776042,101.25001,371.20083)"
       style="font-style:normal;font-variant:normal;font-weight:normal;font-stretch:normal;font-size:380.18783569px;line-height:125%;font-family:Arial;-inkscape-font-specification:Arial;letter-spacing:-21.29032135px;word-spacing:0px;opacity:1;fill:#000000;fill-opacity:1;stroke:none;stroke-width:2"
       id="text9499-9">
      <path
         inkscape:connector-curvature="0"
         d="m 385.1444,643.24987 c -21.62298,0.55465 -38.92129,10.75621 -51.89497,30.60472 -12.97378,19.84888 -19.62697,46.01812 -19.9596,78.50779 0.33263,32.48987 6.98582,58.6591 19.9596,78.50777 12.97368,19.84872 30.27199,30.05029 51.89497,30.60473 21.62279,-0.55443 38.92109,-10.756 51.89497,-30.60473 12.97358,-19.84868 19.62678,-46.01791 19.95961,-78.50777 -0.33283,-30.9927 -6.98603,-56.73423 -19.95961,-77.22467 -12.97388,-20.49007 -30.27218,-31.11934 -51.89497,-31.88784 z m 0,33.07592 c 10.42324,-0.15823 18.75558,5.86133 24.99703,18.05868 6.24121,12.19768 9.44108,31.52363 9.59962,57.97791 -0.15854,26.45447 -3.35842,45.78042 -9.59962,57.97789 -6.24145,12.19756 -14.57379,18.21712 -24.99703,18.05869 -10.42344,0.15844 -18.75577,-5.86112 -24.99703,-18.05869 -6.2414,-12.19748 -9.44127,-31.52342 -9.59961,-57.97789 0.15834,-26.45427 3.35821,-45.78022 9.59962,-57.97791 6.24126,-12.19736 14.57359,-18.21692 24.99702,-18.05868 z"
         style="font-family:'Russian Road Sign';-inkscape-font-specification:'Russian Road Sign';fill:#000000;stroke-width:4"
         id="path11932" />
    </g>
    <path
       inkscape:connector-curvature="0"
       style="color:#000000;display:inline;overflow:visible;visibility:visible;opacity:1;fill:#ff0000;fill-opacity:1;fill-rule:nonzero;stroke:none;stroke-width:1px;marker:none;enable-background:accumulate"
       d="m 186.79691,780.50031 c -45.6713,0 -82.69535,37.36213 -82.69535,83.45052 0,46.08852 37.02405,83.45052 82.69535,83.45052 45.6714,0 82.6953,-37.362 82.6953,-83.45052 0,-46.08839 -37.0239,-83.45052 -82.6953,-83.45052 z m 0,14.10924 c 37.9494,0 68.71375,31.04532 68.71375,69.34128 0,38.29596 -30.76435,69.34128 -68.71375,69.34128 -37.9494,0 -68.71375,-31.04532 -68.71375,-69.34128 0,-38.29596 30.76435,-69.34128 68.71375,-69.34128 z"
       id="path4775-9-8" />
    <path
       inkscape:connector-curvature="0"
       id="path8308-9"
       d="M 295.15626,302.40699 V 351.7373 H 648.75 v -90.43896 l -23.7996,-8.22177 -23.7996,8.22177 v 57.55208 h -6.7998 v -16.44343 l -33.99945,-20.55439 -33.9994,20.55439 v 16.44343 h -6.7998 v -8.22177 l -16.9998,-16.44344 h -20.39959 v -4.11083 h -20.3996 v 4.11083 h -20.39965 l -16.99975,16.44344 v 8.22177 h -6.79985 v -12.33261 l -27.19955,-69.88466 -27.19945,69.88466 v 12.33261 h -6.79995 v -16.44343 l -30.59945,-12.33261 z"
       style="opacity:1;fill:#000000;fill-opacity:1;stroke:none;stroke-width:1"
       sodipodi:nodetypes="ccccccccccccccccccccccccccccccc" />
    <path
       inkscape:connector-curvature="0"
       style="opacity:1;fill:#000000;fill-opacity:1;stroke:none;stroke-width:1"
       d="m 390.36286,512.88312 -27.1968,69.88987 v 12.33768 h -6.80805 v -16.43826 l -30.61875,-12.33779 -30.583,12.33779 v 49.31488 h 87.5787 l 34.82465,-35.14268 v -10.07162 z m 234.57659,16.43837 -23.77495,8.23709 v 57.55209 h -6.80805 v -16.43826 l -34.0049,-20.57487 -34.00485,20.57487 v 16.43826 h -6.80815 v -8.23709 l -17.0024,-16.43837 h -4.70509 l -56.99565,57.55208 H 648.75 v -90.42871 z"
       id="path13762" />
    <path
       inkscape:connector-curvature="0"
       style="color:#000000;display:inline;overflow:visible;visibility:visible;opacity:1;fill:#00a500;fill-opacity:1;fill-rule:nonzero;stroke:none;stroke-width:3.54299998;marker:none;enable-background:accumulate"
       d="m 394.78281,753.45083 c -4.00215,0 -7.2359,3.26332 -7.2359,7.30198 v 204.09408 c 0,4.03854 3.23375,7.30186 7.2359,7.30186 H 524.8139 c 4.00215,0 7.2002,-3.26332 7.2002,-7.30186 V 760.75281 c 0,-4.03866 -3.19805,-7.30198 -7.2002,-7.30198 z m 57.0311,5.75521 h 6.6299 l -2.20995,50.2142 h -15.43405 z m 11.0498,0 h 6.5943 l 11.0141,50.2142 h -15.434 z m -69.6137,56.90462 h 134.77194 v 8.88466 h -18.8916 v 15.57498 h -8.80415 l -4.41994,-15.57498 h -70.54055 l -4.38425,15.57498 h -8.83985 v -15.57498 h -18.8916 z m 40.9555,15.53906 h 22.02835 l -4.41995,134.74382 h -52.89635 z m 30.8326,0 h 22.0639 l 35.25249,134.74382 h -52.89649 z"
       id="rect13824" />
    <path
       inkscape:connector-curvature="0"
       id="path14367"
       d="M 519.8594,497.91958 345.34376,674.02896 h 41.94035 L 561.7997,497.91958 Z"
       style="opacity:1;fill:#ff0000;fill-opacity:1;stroke:none;stroke-width:1"
       sodipodi:nodetypes="ccccc" />
    <path
       style="fill:#ffffff;fill-opacity:1;stroke-width:1"
       d="m 223.59144,152.0414 c -10.90851,-2.26409 -18.57623,-11.68869 -20.81853,-25.58863 -0.93327,-5.78529 -0.38031,-18.34083 1.01619,-23.07369 3.35896,-11.38381 10.59518,-18.891595 19.91104,-20.65832 11.17656,-2.119585 21.785,2.25129 27.15788,11.189565 7.72267,12.847335 7.67917,34.954345 -0.0924,46.972945 -2.09603,3.24148 -5.07244,6.32083 -7.77938,8.04844 -4.8822,3.1159 -13.05293,4.42596 -19.39478,3.10969 z m 10.85329,-11.46357 c 7.07317,-3.34965 10.6945,-11.25311 10.7144,-23.3838 0.0188,-11.47039 -3.74607,-19.82416 -10.28315,-22.816935 -12.26503,-5.615115 -22.80933,7.309365 -21.36198,26.184025 0.42012,5.47866 1.35502,8.91879 3.55096,13.06655 3.74557,7.07473 10.99505,9.9738 17.37977,6.95016 z m 132.88132,11.70625 c -9.40816,-1.68226 -16.36705,-7.6199 -20.53246,-17.5192 -2.53456,-6.02355 -3.71172,-15.93569 -2.76503,-23.28274 1.66574,-12.92755 7.22865,-22.14412 15.95935,-26.4413 10.61915,-5.22667 22.92492,-3.222495 30.01428,4.888275 2.543,2.90938 6.52864,10.078615 5.91545,10.640495 -0.46085,0.42228 -10.65953,4.20779 -10.79506,4.00685 -0.0561,-0.0832 -0.50885,-1.24984 -1.00615,-2.59263 -3.49955,-9.44921 -14.24996,-11.832615 -21.52082,-4.77124 -5.39222,5.23686 -7.89365,17.65408 -5.69885,28.28937 2.01909,9.7839 7.06703,15.52975 14.20675,16.17092 4.18979,0.37627 7.10029,-0.54613 9.93463,-3.14848 2.88976,-2.65323 4.29312,-5.53902 4.30847,-8.85972 l 0.0115,-2.4847 h -5.75404 -5.75406 v -4.70788 -4.70786 h 12.03122 12.03122 v 16.47754 16.47753 h -4.988 -4.98801 l -1.06048,-2.47398 c -0.58326,-1.3607 -1.16482,-2.57834 -1.29237,-2.70589 -0.12754,-0.12754 -1.06038,0.73602 -2.07298,1.91902 -3.49185,4.07943 -9.81456,5.96463 -16.18452,4.82562 z m 68.9509,-0.0454 c -11.77491,-1.96693 -19.49257,-11.09028 -21.93135,-25.92584 -1.08103,-6.57635 -0.74159,-15.96411 0.7914,-21.88752 2.53973,-9.81336 7.16092,-16.07791 14.56771,-19.748125 l 4.48404,-2.221925 6.57815,0.0252 c 5.96937,0.02285 6.90032,0.159315 10.05941,1.474275 7.0743,2.94463 12.62405,9.74348 15.42868,18.901275 1.34697,4.39822 1.44327,5.34438 1.46399,14.38516 0.0199,8.58153 -0.11398,10.14846 -1.18026,13.83848 -2.49371,8.62976 -7.44754,15.48421 -13.5493,18.74763 -2.76509,1.47885 -9.34377,3.03482 -12.35989,2.92331 -0.90972,-0.0336 -2.8684,-0.26401 -4.35258,-0.51194 z m 8.97801,-11.27829 c 3.08726,-1.05195 6.47661,-4.2953 8.3481,-7.98856 2.31271,-4.56385 3.10091,-8.56191 3.10133,-15.73064 4.8e-4,-9.77358 -2.21605,-16.2732 -7.03424,-20.626115 -2.85799,-2.58204 -5.03093,-3.437435 -8.71625,-3.43121 -9.73404,0.0164 -15.94215,9.488395 -15.91181,24.277235 0.035,17.02476 8.91513,27.34882 20.21287,23.49929 z m -324.97994,-23.58843 0.13465,-33.3474 h 6.71943 6.71944 l 8.79436,14.83376 c 4.83689,8.15857 9.00382,15.04323 9.25984,15.29925 0.40741,0.40741 3.75662,-4.99719 16.32312,-26.340565 l 2.38691,-4.054 h 6.67656 6.67658 v 33.478185 33.47818 h -5.42649 -5.42648 l -0.38838,-24.08882 c -0.21361,-13.24886 -0.5313,-23.9459 -0.70598,-23.77123 -0.17468,0.17468 -4.50701,7.6603 -9.62738,16.6347 -11.03149,19.3347 -10.20262,17.94027 -10.47387,17.62048 -0.11999,-0.14145 -4.55127,-7.89957 -9.8473,-17.24027 l -9.62914,-16.98308 -0.13604,23.91411 -0.13606,23.91411 h -6.01421 -6.0142 z m 154.70969,-0.1464 V 83.731705 l 6.57736,0.146395 6.57736,0.14641 1.43227,2.61548 c 0.78775,1.438515 2.97014,5.557905 4.84977,9.15419 1.87964,3.59629 6.80831,13.00336 10.95263,20.90462 l 7.53512,14.36591 0.13612,-23.66796 0.13612,-23.667955 5.87949,0.147855 5.87949,0.14786 0.13465,33.36261 0.13465,33.36262 -6.9349,-0.14598 -6.93491,-0.14599 -0.79589,-1.56929 c -0.43773,-0.86311 -3.5887,-6.98334 -7.00213,-13.60051 -3.41344,-6.61717 -8.44415,-16.386 -11.17934,-21.70851 -2.73519,-5.32251 -5.17482,-9.90091 -5.4214,-10.17422 -0.24975,-0.27683 -0.44833,10.0917 -0.44833,23.40857 v 23.90551 h -5.75406 -5.75406 z m 212.37721,0.0156 V 83.76298 h 5.75408 5.75405 v 28.50074 28.50074 l 15.039,0.13879 15.03905,0.1388 0.1504,4.83865 0.15035,4.83864 H 508.3054 487.36192 Z m 60.15608,0 V 83.76298 h 5.75405 5.75415 v 33.47818 33.47818 h -5.75415 -5.75405 z m 31.3858,33.0573 c 0,-0.4373 4.4074,-14.13226 17.70905,-55.027355 l 3.658,-11.246575 6.7247,-0.145155 6.72465,-0.14516 2.94345,9.0378 c 1.6188,4.970785 5.57385,17.158865 8.7889,27.084625 9.0306,27.88004 9.5605,29.51054 9.8172,30.20883 0.1839,0.50022 -1.24095,0.65387 -6.06365,0.65387 h -6.30405 l -1.8599,-5.95795 c -1.02295,-3.27689 -1.8599,-6.2193 -1.8599,-6.53871 0,-0.40873 -3.5545,-0.58076 -11.9996,-0.58076 h -11.9996 l -1.2977,4.31555 c -0.71375,2.37356 -1.58915,5.31597 -1.94535,6.53871 l -0.6475,2.22316 h -6.1944 c -3.40685,0 -6.1943,-0.1894 -6.1943,-0.42088 z m 36.44375,-23.338 c -0.4142,-1.07934 -4.94325,-16.50321 -6.46355,-22.01207 -0.7147,-2.58933 -1.474,-4.89088 -1.6875,-5.114565 -0.2909,-0.30486 -5.7252,17.359465 -8.2921,26.953845 -0.22585,0.84428 0.41465,0.91542 8.2416,0.91542 7.11525,0 8.44055,-0.11999 8.20155,-0.74263 z"
       id="path9059"
       inkscape:connector-curvature="0" />
    <path
       style="fill:#ffffff;fill-opacity:1;stroke-width:1"
       d="M 272.92881,52.734465 C 268.21254,51.97518 262.83657,49.02048 259.38187,45.28902 254.25165,39.74776 251.57192,33.0232 250.47923,22.9485 c -1.48786,-13.71815 1.98399,-26.66845 9.1412,-34.0974 7.47027,-7.75385 20.04057,-9.72885 30.22201,-4.7483 8.7688,4.2896 13.99345,13.5913 15.65299,27.86785 1.46699,12.6205 -2.07906,25.954485 -8.84631,33.263915 -3.58516,3.87244 -8.00802,6.29531 -13.36145,7.3196 -4.46704,0.85471 -6.00388,0.881455 -10.35886,0.1803 z M 283.92595,40.64154 c 4.03099,-2.056525 7.11111,-6.36186 9.0273,-12.61835 1.38766,-4.53069 1.40583,-16.78989 0.0314,-21.28889 -2.89258,-9.46975 -7.82964,-14.1184 -14.99446,-14.1184 -9.9127,0 -16.25017,9.71265 -16.25017,24.9046 0,12.582345 4.7265,21.51343 12.78356,24.15559 2.12094,0.69551 7.08064,0.149785 9.40223,-1.03455 z M 477.70259,52.74709 C 466.85479,50.935065 459.6097,43.5284 456.12394,30.687145 454.5203,24.7796 454.38563,10.8114 455.8748,4.84675 c 2.59521,-10.39455 7.45278,-17.10725 15.13373,-20.9133 l 4.56721,-2.26315 6.70001,0.0255 c 6.08,0.0235 7.02822,0.1623 10.24591,1.50165 7.20539,2.9992 12.85799,9.92405 15.71459,19.25155 1.37195,4.47975 1.47005,5.44345 1.4911,14.6518 0.02,8.7406 -0.11605,10.33652 -1.20215,14.094915 -2.5399,8.789755 -7.58555,15.77126 -13.80039,19.095135 -2.81629,1.50631 -9.51691,3.091095 -12.58894,2.97751 -0.92662,-0.0341 -2.92155,-0.2689 -4.43328,-0.521445 z m 9.14442,-11.48732 c 3.14446,-1.07143 6.59666,-4.37489 8.50286,-8.136565 2.35553,-4.648475 3.15833,-8.720655 3.15878,-16.022255 0,-9.902 -2.30219,-16.61555 -7.22447,-21.0625 -2.85127,-2.5759 -5.08375,-3.44705 -8.81796,-3.4407 -7.49047,0.013 -13.13826,5.62475 -15.37753,15.2803 -1.22667,5.289 -1.0707,14.8457 0.32428,19.878765 3.10843,11.2148 10.68981,16.48246 19.43404,13.502955 z m 39.96329,11.36526 c -0.1079,-0.344395 -0.45895,-2.304485 -0.78025,-4.35573 -0.32125,-2.051255 -0.70545,-4.33558 -0.8538,-5.076345 -0.2416,-1.206615 0.0512,-1.49523 2.81025,-2.771805 3.95335,-1.8291 6.72715,-4.154175 8.4373,-7.072255 1.956,-3.337685 2.34755,-8.489745 2.35865,-31.032895 l 0.01,-19.31375 h 21.31165 21.31165 v 34.0987 34.0987 h -5.8607 -5.8607 V 22.1502 -6.89925 l -9.45705,0.1455 -9.45705,0.1455 -0.3396,17.5821 c -0.37065,19.187065 -0.81045,22.36259 -3.9567,28.57151 -1.8904,3.730575 -7.20505,8.963745 -10.958,10.790105 -4.0453,1.96861 -8.45285,3.126525 -8.71505,2.289565 z M 164.77662,50.267265 c 0.003,-0.512815 0.84483,-8.36484 1.87181,-17.44893 1.02698,-9.084085 2.58265,-22.989985 3.45704,-30.901935 0.87439,-7.912 1.73873,-15.4119 1.92076,-16.66655 l 0.33095,-2.2813 5.89679,0.1501 5.89679,0.15005 3.49724,7.4811 c 1.92348,4.1146 4.20155,9.02965 5.06235,10.92225 4.39332,9.6593 6.73527,14.4987 6.92428,14.3083 0.11538,-0.11625 3.19796,-6.6848 6.85016,-14.59675 3.65221,-7.91195 7.0774,-15.29185 7.61156,-16.3998 l 0.97118,-2.01445 5.87691,0.14965 5.8769,0.1497 0.9027,7.99185 c 0.49649,4.3955 1.40403,12.4274 2.01675,17.8485 0.61273,5.4212 1.82728,16.45 2.699,24.50848 0.87171,8.05848 1.70113,15.311095 1.84314,16.116945 l 0.2582,1.465175 h -6.32786 -6.32787 L 221.57354,48.1361 C 221.40202,46.451145 220.89869,40.756915 220.45503,35.482295 218.85475,16.45665 217.51661,2.00335 217.33898,1.82575 c -0.0997,-0.09965 -3.72705,7.7919 -8.06087,17.53685 -4.33382,9.74492 -8.31056,18.557235 -8.8372,19.58285 l -0.95751,1.86476 -2.08114,-4.52872 C 196.25763,33.79069 192.22374,24.816 188.43806,16.3378 184.65237,7.8596 181.4954,1.38615 181.42258,1.9524 c -0.0728,0.56625 -0.47785,5.3452 -0.90005,10.6198 -0.4222,5.2747 -1.31014,16.12365 -1.9732,24.10887 l -1.20557,14.51858 h -6.28585 c -5.63308,0 -6.28538,-0.09681 -6.28129,-0.932385 z M 325.14234,17.10095 v -34.0987 h 5.85171 5.85176 l 0.14215,13.71945 0.1422,13.71935 12.64481,0.14285 12.64479,0.1428 0.1422,-13.729 0.1422,-13.729 5.99392,-0.1507 5.9939,-0.15065 v 34.1161 34.1162 h -6.1271 -6.12711 V 35.73904 20.27845 l -12.6538,0.1428 -12.65381,0.14285 -0.14134,15.31777 -0.14135,15.31778 h -5.85256 -5.85256 z m 71.92689,0 v -34.0987 h 21.31167 21.31168 v 5.06155 5.0615 h -15.45097 -15.45096 v 29.0372 29.03715 h -5.86071 -5.86071 z"
       id="path9079"
       inkscape:connector-curvature="0" />
    <g
       transform="matrix(0.28514149,0,0,0.28514149,101.18549,373.78497)"
       style="font-style:normal;font-variant:normal;font-weight:normal;font-stretch:normal;font-size:380.18783569px;line-height:125%;font-family:Arial;-inkscape-font-specification:Arial;letter-spacing:-21.29032135px;word-spacing:0px;fill:#000000;fill-opacity:1;stroke:none;stroke-width:3.50703096"
       id="text9499-6">
      <path
         inkscape:connector-curvature="0"
         d="m 215.1052,643.24987 c -17.90828,2.2e-4 -33.32152,4.65746 -46.23975,13.97173 -12.91834,9.31467 -19.68242,23.28638 -20.29226,41.91516 0.45995,12.32089 3.67977,21.98035 9.65947,28.97839 5.97962,6.99831 11.95927,11.9266 17.93899,14.78489 5.9796,2.85852 9.19942,4.23845 9.65947,4.13977 -0.52576,-0.0327 -4.20555,1.80716 -11.0394,5.51969 -6.83395,3.71275 -13.66785,9.49528 -20.50171,17.3476 -6.83394,7.85251 -10.51372,17.97194 -11.03938,30.35833 -0.33268,14.19354 4.98987,27.7217 15.96768,40.58452 10.97773,12.86287 29.60667,19.73783 55.88689,20.62493 26.28003,-0.8871 44.90898,-7.76207 55.8869,-20.62493 10.97761,-12.86283 16.30017,-26.39099 15.96768,-40.58452 -0.52586,-12.38639 -4.20565,-22.50582 -11.0394,-30.35832 -6.83405,-7.85232 -13.66795,-13.63485 -20.50171,-17.34761 -6.83403,-3.71254 -10.51382,-5.55243 -11.03938,-5.51969 0.45985,0.0987 3.67967,-1.28124 9.65947,-4.13977 5.97952,-2.8583 11.95918,-7.78659 17.93899,-14.78489 5.97951,-6.99805 9.19933,-16.6575 9.65947,-28.97839 -0.61004,-18.62879 -7.37412,-32.6005 -20.29227,-41.91518 -12.91843,-9.31427 -28.33167,-13.9715 -46.23975,-13.97171 z m 0,30.41464 c 8.20551,-0.10278 15.08048,1.81397 20.62492,5.75027 5.54422,3.93665 8.42727,10.51064 8.64917,19.72198 -1.21988,8.31666 -6.09889,15.63517 -14.63705,21.95557 -8.53838,6.32067 -13.41738,9.64727 -14.63704,9.9798 -1.21985,-0.33253 -6.09886,-3.65913 -14.63704,-9.97981 -8.53835,-6.3204 -13.41736,-13.63891 -14.63704,-21.95556 0.22171,-9.21134 3.10476,-15.78533 8.64917,-19.72199 5.54425,-3.9363 12.41922,-5.85305 20.62491,-5.75026 z m 0,89.34299 c 0.42703,0.0987 3.41686,1.97141 8.96951,5.61826 5.55243,3.64703 11.10498,8.47676 16.65764,14.48919 5.55242,6.01259 8.54225,12.6165 8.9695,19.81176 -0.44367,9.25908 -4.21382,16.02316 -11.31044,20.29225 -7.09686,4.26917 -14.85893,6.37602 -23.28621,6.32055 -8.42748,0.0555 -16.18954,-2.05137 -23.28621,-6.32054 -7.09682,-4.2691 -10.86696,-11.03318 -11.31043,-20.29226 0.42706,-6.35744 3.41689,-12.56709 8.9695,-18.62897 5.55247,-6.06172 11.10501,-11.08859 16.65764,-15.0806 5.55246,-3.99183 8.54229,-6.06171 8.9695,-6.20964 z"
         style="font-family:'Russian Road Sign';-inkscape-font-specification:'Russian Road Sign';fill:#000000;stroke-width:3.50703096"
         id="path11957" />
    </g>
    <g
       transform="matrix(0.28419859,0,0,0.28419859,99.86325,650.46584)"
       style="font-style:normal;font-variant:normal;font-weight:normal;font-stretch:normal;font-size:328.34405518px;line-height:125%;font-family:Arial;-inkscape-font-specification:Arial;letter-spacing:-21.29032135px;word-spacing:0px;fill:#000000;fill-opacity:1;stroke:none;stroke-width:3.51866627"
       id="text10566-3">
      <path
         inkscape:connector-curvature="0"
         d="m 115.06302,703.11136 10.83521,14.11861 24.62549,-15.43197 v 142.49949 h 32.1773 V 660.42718 h -27.58054 z"
         style="font-family:'Russian Road Sign';-inkscape-font-specification:'Russian Road Sign';fill:#000000;stroke-width:3.51866627"
         id="path11901" />
      <path
         inkscape:connector-curvature="0"
         d="m 278.7166,658.1288 c -18.6744,0.47902 -33.61385,9.28946 -44.81839,26.43135 -11.20463,17.14222 -16.95057,39.74293 -17.23784,67.80218 0.28727,28.05944 6.03321,50.66014 17.23784,67.80217 11.20454,17.14208 26.14399,25.95253 44.81839,26.43136 18.67422,-0.47882 33.61366,-9.28927 44.81838,-26.43136 11.20446,-17.14204 16.9504,-39.74274 17.23784,-67.80217 -0.28744,-26.76641 -6.03338,-48.99773 -17.23784,-66.69403 -11.20472,-17.69597 -26.14416,-26.8758 -44.81838,-27.5395 z m 0,28.56557 c 9.00189,-0.13665 16.19799,5.06206 21.58834,15.59613 5.39014,10.53437 8.15366,27.22496 8.29058,50.07183 -0.13692,22.84705 -2.90045,39.53764 -8.29058,50.07182 -5.39035,10.53426 -12.58645,15.73298 -21.58834,15.59615 -9.00207,0.13683 -16.19817,-5.06188 -21.58835,-15.59615 -5.3903,-10.53418 -8.15382,-27.22477 -8.29058,-50.07182 0.13676,-22.84686 2.90028,-39.53746 8.29058,-50.07183 5.39018,-10.53408 12.58629,-15.73279 21.58835,-15.59613 z"
         style="font-family:'Russian Road Sign';-inkscape-font-specification:'Russian Road Sign';fill:#000000;stroke-width:3.51866627"
         id="path11903" />
      <path
         inkscape:connector-curvature="0"
         d="m 422.8809,658.1288 c -18.67439,0.47902 -33.61384,9.28946 -44.81839,26.43135 -11.20462,17.14222 -16.95056,39.74293 -17.23783,67.80218 0.28727,28.05944 6.03321,50.66014 17.23783,67.80217 11.20455,17.14208 26.144,25.95253 44.81839,26.43136 18.67423,-0.47882 33.61367,-9.28927 44.81839,-26.43136 11.20445,-17.14204 16.9504,-39.74274 17.23784,-67.80217 -0.28744,-26.76641 -6.03339,-48.99773 -17.23784,-66.69403 -11.20472,-17.69597 -26.14416,-26.8758 -44.81839,-27.5395 z m 0,28.56557 c 9.00189,-0.13665 16.198,5.06206 21.58835,15.59613 5.39013,10.53437 8.15366,27.22496 8.29058,50.07183 -0.13693,22.84705 -2.90045,39.53764 -8.29059,50.07182 -5.39034,10.53426 -12.58645,15.73298 -21.58834,15.59615 -9.00206,0.13683 -16.19817,-5.06188 -21.58834,-15.59615 -5.3903,-10.53418 -8.15383,-27.22477 -8.29058,-50.07182 0.13675,-22.84686 2.90028,-39.53746 8.29058,-50.07183 5.39018,-10.53408 12.58629,-15.73279 21.58834,-15.59613 z"
         style="font-family:'Russian Road Sign';-inkscape-font-specification:'Russian Road Sign';fill:#000000;stroke-width:3.51866627"
         id="path11905" />
    </g>
  </g>
</svg>
