<?xml version="1.0" encoding="UTF-8" standalone="no"?>
<!-- Created with Inkscape (http://www.inkscape.org/) -->

<svg
   width="2000"
   height="1200"
   id="svg2"
   version="1.1"
   inkscape:version="1.2.2 (732a01da63, 2022-12-09)"
   sodipodi:docname="KZ_road_sign_5.20.1_D.svg"
   xml:space="preserve"
   xmlns:inkscape="http://www.inkscape.org/namespaces/inkscape"
   xmlns:sodipodi="http://sodipodi.sourceforge.net/DTD/sodipodi-0.dtd"
   xmlns="http://www.w3.org/2000/svg"
   xmlns:svg="http://www.w3.org/2000/svg"
   xmlns:rdf="http://www.w3.org/1999/02/22-rdf-syntax-ns#"
   xmlns:cc="http://creativecommons.org/ns#"
   xmlns:dc="http://purl.org/dc/elements/1.1/"><defs
     id="defs4" /><sodipodi:namedview
     id="base"
     pagecolor="#ffffff"
     bordercolor="#666666"
     borderopacity="1.0"
     inkscape:pageopacity="0.0"
     inkscape:pageshadow="2"
     inkscape:zoom="0.69013622"
     inkscape:cx="1555.49"
     inkscape:cy="519.46267"
     inkscape:document-units="px"
     inkscape:current-layer="layer1"
     showgrid="false"
     inkscape:window-width="1920"
     inkscape:window-height="991"
     inkscape:window-x="-9"
     inkscape:window-y="-9"
     inkscape:window-maximized="1"
     inkscape:snap-bbox="true"
     inkscape:bbox-paths="true"
     inkscape:bbox-nodes="true"
     inkscape:snap-bbox-edge-midpoints="true"
     inkscape:snap-bbox-midpoints="true"
     inkscape:object-paths="true"
     inkscape:snap-intersection-paths="true"
     inkscape:object-nodes="true"
     inkscape:snap-smooth-nodes="true"
     inkscape:snap-midpoints="true"
     inkscape:snap-object-midpoints="true"
     showguides="true"
     inkscape:guide-bbox="true"
     inkscape:showpageshadow="2"
     inkscape:pagecheckerboard="0"
     inkscape:deskcolor="#d1d1d1" /><metadata
     id="metadata7"><rdf:RDF><cc:Work
         rdf:about=""><dc:format>image/svg+xml</dc:format><dc:type
           rdf:resource="http://purl.org/dc/dcmitype/StillImage" /><cc:license
           rdf:resource="http://creativecommons.org/licenses/by-sa/3.0/" /><dc:description>ГОСТ Р 52290-2004</dc:description></cc:Work><cc:License
         rdf:about="http://creativecommons.org/licenses/by-sa/3.0/"><cc:permits
           rdf:resource="http://creativecommons.org/ns#Reproduction" /><cc:permits
           rdf:resource="http://creativecommons.org/ns#Distribution" /><cc:requires
           rdf:resource="http://creativecommons.org/ns#Notice" /><cc:requires
           rdf:resource="http://creativecommons.org/ns#Attribution" /><cc:permits
           rdf:resource="http://creativecommons.org/ns#DerivativeWorks" /><cc:requires
           rdf:resource="http://creativecommons.org/ns#ShareAlike" /></cc:License></rdf:RDF></metadata><g
     inkscape:label="Layer 1"
     inkscape:groupmode="layer"
     id="layer1"
     transform="translate(0,147.63782)"><path
       id="rect12587"
       style="display:inline;overflow:visible;opacity:1;fill:#ffffff;stroke-width:3.543;marker:none;enable-background:accumulate"
       d="m 45,-147.63782 h 1910 c 24.93,0 45,20.07 45,45 V 1007.3622 c 0,24.93 -20.07,45 -45,45 H 45 c -24.93,0 -45,-20.07 -45,-45 V -102.63782 c 0,-24.93 20.07,-45 45,-45 z"
       sodipodi:nodetypes="sssssssss" /><g
       id="g10097"
       transform="translate(0,-58.401815)"><path
         inkscape:connector-curvature="0"
         style="color:#000000;display:inline;overflow:visible;visibility:visible;opacity:1;fill:#000000;fill-opacity:1;fill-rule:nonzero;stroke:none;stroke-width:3.543;marker:none;enable-background:accumulate"
         d="m 76.99998,462.36217 c -16.620001,0 -30.000001,13.38 -30.000001,30 v 180 c 0,16.62 13.38,30 30.000001,30 H 992 c 16.62,0 30,-13.38 30,-30 v -180 c 0,-16.62 -13.38,-30 -30,-30 z m 0,5 H 992 c 13.85,0 25,11.15 25,25 v 180 c 0,13.85 -11.15,25 -25,25 H 76.99998 c -13.85,0 -25.000001,-11.15 -25.000001,-25 v -180 c 0,-13.85 11.150001,-25 25.000001,-25 z"
         id="rect12493"
         sodipodi:nodetypes="ssssssssssssssssss" /><path
         id="rect12503"
         style="color:#000000;display:inline;overflow:visible;visibility:visible;opacity:1;fill:#0d69e1;fill-opacity:1;fill-rule:nonzero;stroke:none;stroke-width:3.543;marker:none;enable-background:accumulate"
         d="M 77 477.36165 C 68.690024 477.36165 62 484.05168 62 492.36165 L 62 672.36165 C 62 680.67162 68.690024 687.36165 77 687.36165 L 992 687.36165 C 1000.31 687.36165 1007 680.67162 1007 672.36165 L 1007 492.36165 C 1007 484.05168 1000.31 477.36165 992 477.36165 L 77 477.36165 z M 224.625 501.0804 L 249.4375 501.86165 L 208.5 570.67415 L 230 570.7679 L 242.34375 555.92415 L 264.53125 553.8929 L 248.9375 582.36165 L 264.53125 610.8304 L 242.34375 608.79915 L 230 593.9554 L 208.5 594.04915 L 249.4375 662.86165 L 224.625 663.6429 L 166.90625 594.23665 L 115.6875 594.4554 L 115.5625 594.4554 C 115.5525 594.4553 115.54135 594.4554 115.53125 594.4554 C 108.92108 594.4038 103.50225 588.91239 103.53125 582.29915 C 103.56225 575.67662 109.06533 570.20845 115.6875 570.23665 L 166.90625 570.48665 L 224.625 501.0804 z M 383.69727 542.36165 C 392.01979 542.36165 398.22645 544.00873 402.31836 547.30306 C 406.47962 550.77077 408.56055 556.02336 408.56055 563.06282 L 408.56055 601.764 C 408.56055 609.25426 406.18632 614.61128 401.43555 617.83626 C 397.34364 620.85317 391.25752 622.36165 383.17773 622.36165 C 373.46813 622.36165 366.60068 620.59404 362.57812 617.05696 C 358.72896 613.76263 356.80469 608.66475 356.80469 601.764 L 356.80469 590.11165 L 369.18555 590.11165 L 369.18555 601.50423 C 369.18555 605.00662 370.22601 607.48529 372.30664 608.94173 C 374.24856 610.36349 377.68131 611.07454 382.60547 611.07454 C 386.17722 611.07454 389.00335 610.62263 391.08398 609.72103 C 394.48235 608.36862 396.18164 605.63081 396.18164 601.50423 L 396.18164 563.06282 C 396.18164 560.08059 395.36616 557.79274 393.73633 556.19759 C 391.72505 554.56776 388.39674 553.75228 383.75 553.75228 L 383.17773 553.75228 C 379.32857 553.75228 376.58881 554.5336 374.95898 556.09407 C 373.01706 557.82793 372.04492 560.51547 372.04492 564.15657 L 372.04492 566.86165 L 359.5625 566.86165 L 359.5625 561.50423 C 359.5625 556.02524 361.38233 551.55007 365.02344 548.08235 C 369.25405 544.30254 375.47878 542.39633 383.69727 542.36165 z M 542.74023 542.36165 C 546.41601 542.36165 549.676 543.10686 552.51953 544.59798 C 554.91226 546.01974 556.9068 547.98013 558.50195 550.47689 C 559.75033 548.3269 561.41546 546.55733 563.49609 545.17025 C 566.47833 543.29768 570.22244 542.36165 574.73047 542.36165 C 580.20946 542.36165 584.94377 543.57487 588.93164 546.00228 C 594.23725 549.1579 596.88867 553.66722 596.88867 559.52767 L 596.88867 621.37337 L 584.19727 621.37337 L 584.19727 563.16829 C 584.19727 560.25541 583.47011 557.96561 582.01367 556.3011 C 580.31449 554.67128 577.83387 553.85775 574.57422 553.85775 C 571.90408 553.85775 569.65039 554.49852 567.8125 555.78157 C 565.8359 557.34205 564.84766 559.70017 564.84766 562.85579 L 564.84766 590.16439 L 552.05273 590.16439 L 552.05273 563.16829 C 552.05273 559.94331 551.16697 557.51492 549.39844 555.88509 C 547.83796 554.53268 545.56622 553.85775 542.58398 553.85775 C 539.74046 553.85775 537.47067 554.49852 535.77148 555.78157 C 533.72553 557.27269 532.70117 559.73525 532.70117 563.16829 L 532.70117 621.37337 L 520.00977 621.37337 L 520.00977 560.3597 C 520.00977 555.36619 522.24735 551.08184 526.7207 547.51009 C 531.09003 544.07705 536.42899 542.36165 542.74023 542.36165 z M 702.09766 542.36165 C 705.77344 542.36165 709.03147 543.10686 711.875 544.59798 C 714.26772 546.01974 716.26227 547.98013 717.85742 550.47689 C 719.1058 548.3269 720.77093 546.55733 722.85156 545.17025 C 725.8338 543.29768 729.57791 542.36165 734.08594 542.36165 C 739.56493 542.36165 744.29923 543.57487 748.28711 546.00228 C 753.59272 549.1579 756.24609 553.66722 756.24609 559.52767 L 756.24609 621.37337 L 743.55273 621.37337 L 743.55273 563.16829 C 743.55273 560.25541 742.82558 557.96561 741.36914 556.3011 C 739.66996 554.67128 737.18934 553.85775 733.92969 553.85775 C 731.25955 553.85775 729.00586 554.49852 727.16797 555.78157 C 725.19137 557.34205 724.20312 559.70017 724.20312 562.85579 L 724.20312 590.16439 L 711.4082 590.16439 L 711.4082 563.16829 C 711.4082 559.94331 710.52244 557.51492 708.75391 555.88509 C 707.19343 554.53268 704.92364 553.85775 701.94141 553.85775 C 699.09788 553.85775 696.82613 554.49852 695.12695 555.78157 C 693.081 557.27269 692.05859 559.73525 692.05859 563.16829 L 692.05859 621.37337 L 679.36523 621.37337 L 679.36523 560.3597 C 679.36523 555.36619 681.60282 551.08184 686.07617 547.51009 C 690.4455 544.07705 695.78641 542.36165 702.09766 542.36165 z M 903.74219 542.36165 C 909.39457 542.36165 913.69307 543.54071 916.64062 545.89876 C 919.58818 548.36084 921.0625 552.45242 921.0625 558.17415 C 921.0625 560.84429 920.56033 563.18436 919.55469 565.19564 C 918.54905 567.20691 916.38174 569.56504 913.05273 572.26985 L 914.24805 573.0511 C 915.18433 573.74465 916.22479 574.62846 917.36914 575.70345 C 918.99897 577.7494 919.81445 579.88255 919.81445 582.10189 L 919.81445 601.60775 C 919.81445 609.54882 917.28357 615.14887 912.2207 618.40853 C 908.05944 621.04399 901.73028 622.36165 893.23438 622.36165 C 884.18363 622.36165 877.64755 620.54182 873.625 616.90071 C 869.60245 613.46767 867.58984 608.36979 867.58984 601.60775 L 867.58984 543.34993 L 880.12695 543.34993 L 880.12695 601.34798 C 880.12695 605.02376 881.46072 607.60686 884.13086 609.09798 C 886.24617 610.41571 889.50616 611.07454 893.91016 611.07454 C 898.73028 611.07454 902.16303 610.32933 904.20898 608.83821 C 906.28961 607.45113 907.33008 604.95441 907.33008 601.34798 L 907.33008 582.10189 C 907.33008 581.26963 907.08704 580.47221 906.60156 579.70931 C 906.28947 579.39721 905.96005 579.13612 905.61328 578.92806 L 905.09375 578.61556 L 894.79492 587.35579 L 886.73242 580.12532 L 895.88672 572.94759 C 892.10691 570.93631 889.50575 568.68067 888.08398 566.18392 C 886.97431 563.96458 886.41992 561.2951 886.41992 558.17415 C 886.41992 552.34839 887.94646 548.20459 890.99805 545.74251 C 893.77222 543.48849 898.02045 542.36165 903.74219 542.36165 z M 965.29297 542.36165 C 974.75984 542.36165 981.71171 544.12927 986.15039 547.66634 C 989.79149 550.64858 991.61133 554.55129 991.61133 559.37142 L 991.61133 621.37337 L 978.91992 621.37337 L 978.91992 561.19173 C 978.91992 559.24981 978.14055 557.61884 976.58008 556.3011 C 974.08332 554.39386 970.59836 553.44173 966.125 553.44173 L 965.39648 553.44173 C 959.91749 553.44173 956.13727 554.34164 954.05664 556.14485 C 952.66955 557.49726 951.97656 559.18045 951.97656 561.19173 L 951.97656 621.37337 L 938.45117 621.37337 L 938.45117 559.1097 C 938.45117 553.90812 940.58432 549.85266 944.84961 546.93978 C 949.35764 543.88819 956.17287 542.36165 965.29297 542.36165 z M 297.38672 543.34993 L 310.85938 543.34993 C 310.92873 546.02007 311.39674 548.04878 312.26367 549.43587 C 312.88786 550.99634 314.37828 552.60926 316.73633 554.27376 C 319.47582 556.45842 322.78803 558.65989 326.67188 560.87923 C 330.5904 563.06389 333.65957 565.49034 335.87891 568.16048 C 337.09261 569.82498 338.20335 571.59455 339.20898 573.46712 C 340.31865 576.06791 340.87305 579.13708 340.87305 582.67415 L 340.7168 605.45735 C 340.7168 607.46863 340.4396 609.32263 339.88477 611.02181 C 339.32993 612.68631 338.21919 614.35144 336.55469 616.01595 C 334.82083 617.78448 332.09913 619.29296 328.38867 620.54134 C 324.67821 621.75504 320.04835 622.36165 314.5 622.36165 C 302.88315 622.36165 295.04746 619.89909 290.99023 614.97493 C 288.84025 612.51285 287.76367 609.42758 287.76367 605.71712 L 287.76367 590.42415 L 301.23633 590.42415 L 301.23633 603.63704 C 301.23633 605.78703 301.94738 607.45021 303.36914 608.62923 C 305.38042 610.46712 309.12648 611.38704 314.60547 611.38704 C 315.12563 611.42172 315.6439 611.43782 316.16406 611.43782 C 319.70113 611.43782 322.59755 610.69261 324.85156 609.2015 C 327.10558 607.74505 328.23242 605.89106 328.23242 603.63704 L 328.23242 586.41829 C 328.23242 584.92717 328.1802 583.45481 328.07617 581.99837 C 328.00682 580.50725 327.55686 579.01488 326.72461 577.52376 C 325.61494 575.65119 323.81121 573.88358 321.31445 572.21907 L 306.69727 562.23079 C 303.16019 559.87274 300.69959 556.97828 299.3125 553.54525 C 298.51493 551.638 297.99469 549.81621 297.75195 548.08235 C 297.50921 546.31382 297.38672 544.73702 297.38672 543.34993 z M 481.24219 543.34993 L 495.70312 543.34993 C 495.11361 545.01444 494.24591 546.87039 493.10156 548.91634 C 491.95722 550.92761 490.4668 552.83383 488.62891 554.63704 C 485.54264 557.68863 482.02351 559.78762 478.07031 560.93196 L 447.48438 569.514 C 442.94167 570.7277 439.76806 572.49531 437.96484 574.81868 C 436.5084 576.72593 435.78125 579.27487 435.78125 582.46517 C 437.09898 580.24583 438.81438 578.61681 440.92969 577.5765 C 443.01032 576.57086 445.54315 576.06868 448.52539 576.06868 C 452.44391 576.06868 455.8586 576.95249 458.77148 578.72103 C 461.19889 580.2815 463.01872 582.13549 464.23242 584.28548 C 465.55015 582.13549 467.12891 580.4201 468.9668 579.13704 C 472.01839 577.09109 475.90305 576.06868 480.61914 576.06868 C 486.79168 576.06868 491.90566 577.5591 495.96289 580.54134 C 500.54028 583.9397 502.83008 588.20404 502.83008 593.33626 L 502.83008 621.37337 L 489.98047 621.37337 L 489.98047 596.97884 C 489.98047 593.61515 489.11472 591.18675 487.38086 589.69564 C 485.88974 588.23919 483.56578 587.51204 480.41016 587.51204 C 477.80937 587.51204 475.6079 588.13476 473.80469 589.38314 C 471.72406 591.08232 470.68359 593.47655 470.68359 596.56282 L 470.68359 604.05306 L 457.99219 604.05306 L 457.99219 596.97884 C 457.99219 593.82322 457.19476 591.44704 455.59961 589.85189 C 453.7964 588.29141 451.368 587.51204 448.31641 587.51204 C 445.16078 587.51204 442.75044 588.29141 441.08594 589.85189 C 439.3174 591.51639 438.43359 593.89257 438.43359 596.97884 L 438.43359 621.37337 L 425.79297 621.37337 L 425.79297 582.30892 C 425.79297 576.06703 426.90371 571.30051 429.12305 568.00618 C 431.55045 564.36508 436.4214 561.43451 443.73828 559.21517 L 473.80469 550.32064 C 476.23209 549.55774 477.96554 548.61976 479.00586 547.51009 C 479.94214 546.57381 480.68735 545.18782 481.24219 543.34993 z M 611.73047 543.34993 L 625.66992 543.34993 C 625.87798 545.01444 626.81401 546.24572 628.47852 547.04329 C 630.48979 548.32635 633.19539 549.15794 636.59375 549.53939 C 640.02679 549.92083 643.38926 550.38885 646.68359 550.94368 C 649.00696 551.39449 651.21039 551.93277 653.29102 552.55696 C 655.37165 553.18115 657.22564 554.1694 658.85547 555.52181 C 662.35786 558.36534 664.19575 562.90687 664.36914 569.14876 C 664.40382 569.63424 664.42188 570.12031 664.42188 570.60579 C 664.42188 573.44932 663.81526 575.9641 662.60156 578.14876 C 661.35318 580.61084 659.51529 582.31013 657.08789 583.24642 C 659.09917 584.46012 660.71208 585.7075 661.92578 586.99056 C 663.65964 589.10586 664.52539 591.6387 664.52539 594.58626 L 664.52539 601.60775 C 664.52539 607.12142 663.10329 611.59463 660.25977 615.02767 C 655.92512 619.91715 648.64383 622.36165 638.41406 622.36165 C 629.18994 622.36165 622.47914 620.74874 618.2832 617.52376 C 614.01791 614.19475 611.88477 608.88995 611.88477 601.60775 L 611.88477 592.40071 L 624.31836 592.40071 L 624.31836 601.34798 C 624.31836 604.60763 625.11579 606.91354 626.71094 608.26595 C 628.65286 610.10384 632.31059 611.02181 637.68555 611.02181 C 642.78309 611.02181 646.49304 610.10384 648.81641 608.26595 C 650.51559 606.77483 651.36523 604.46892 651.36523 601.34798 L 651.36523 596.82259 C 651.36523 594.60325 650.58586 592.69508 649.02539 591.09993 C 647.11815 589.53946 644.91668 588.76009 642.41992 588.76009 L 639.76562 588.76009 L 639.76562 577.5765 L 642.41992 577.5765 C 644.91668 577.5765 647.08398 576.84739 648.92188 575.39095 C 650.65573 574.00386 651.52148 572.13181 651.52148 569.77376 C 651.52148 566.79152 650.2902 564.55394 647.82812 563.06282 C 646.09427 562.16122 643.8928 561.52044 641.22266 561.139 C 638.58719 560.75755 635.89965 560.35981 633.16016 559.94368 C 630.03921 559.4582 626.9881 558.79937 624.00586 557.96712 C 621.02362 557.13487 618.44052 555.62639 616.25586 553.44173 C 613.82846 550.9103 612.31998 547.54587 611.73047 543.34993 z M 828.82227 543.34993 L 843.2832 543.34993 C 842.69369 545.01444 841.82794 546.87039 840.68359 548.91634 C 839.53925 550.92761 838.04687 552.83383 836.20898 554.63704 C 833.12272 557.68863 829.60359 559.78762 825.65039 560.93196 L 795.06445 569.514 C 790.52174 570.7277 787.34813 572.49531 785.54492 574.81868 C 784.08848 576.72593 783.36133 579.27487 783.36133 582.46517 C 784.67906 580.24583 786.39641 578.61681 788.51172 577.5765 C 790.59235 576.57086 793.12323 576.06868 796.10547 576.06868 C 800.02399 576.06868 803.43868 576.95249 806.35156 578.72103 C 808.77896 580.2815 810.60075 582.13549 811.81445 584.28548 C 813.13219 582.13549 814.70898 580.4201 816.54688 579.13704 C 819.59847 577.09109 823.48312 576.06868 828.19922 576.06868 C 834.37176 576.06868 839.48574 577.5591 843.54297 580.54134 C 848.12036 583.9397 850.41016 588.20404 850.41016 593.33626 L 850.41016 621.37337 L 837.5625 621.37337 L 837.5625 596.97884 C 837.5625 593.61515 836.6948 591.18675 834.96094 589.69564 C 833.46982 588.23919 831.14586 587.51204 827.99023 587.51204 C 825.38945 587.51204 823.18798 588.13476 821.38477 589.38314 C 819.30414 591.08232 818.26367 593.47655 818.26367 596.56282 L 818.26367 604.05306 L 805.57227 604.05306 L 805.57227 596.97884 C 805.57227 593.82322 804.77484 591.44704 803.17969 589.85189 C 801.37647 588.29141 798.94808 587.51204 795.89648 587.51204 C 792.74086 587.51204 790.33052 588.29141 788.66602 589.85189 C 786.89748 591.51639 786.01367 593.89257 786.01367 596.97884 L 786.01367 621.37337 L 773.375 621.37337 L 773.375 582.30892 C 773.375 576.06703 774.48379 571.30051 776.70312 568.00618 C 779.13053 564.36508 784.00343 561.43451 791.32031 559.21517 L 821.38477 550.32064 C 823.81217 549.55774 825.54562 548.61976 826.58594 547.51009 C 827.52222 546.57381 828.26743 545.18782 828.82227 543.34993 z M 903.74219 552.34798 C 901.80027 552.34798 900.32595 552.71351 899.32031 553.44173 C 898.10661 554.34334 897.5 555.92014 897.5 558.17415 C 897.5 560.35881 898.07245 562.00589 899.2168 563.11556 C 899.77163 563.98249 900.48268 564.60716 901.34961 564.9886 C 902.21654 565.37005 903.01397 565.76779 903.74219 566.18392 C 904.47041 565.62908 905.19756 565.12691 905.92578 564.6761 C 906.68868 564.19062 907.39973 563.61817 908.05859 562.95931 C 909.34165 561.67625 909.98438 560.0814 909.98438 558.17415 C 909.98438 556.30158 909.61885 554.89754 908.89062 553.96126 C 907.85031 552.88627 906.13491 552.34798 903.74219 552.34798 z " /></g><g
       style="font-style:normal;font-variant:normal;font-weight:normal;font-stretch:normal;font-size:133.93px;line-height:125%;font-family:Arial;-inkscape-font-specification:Arial;letter-spacing:0px;word-spacing:0px;fill:#000000;fill-opacity:1;stroke:none"
       id="text12508"><path
         d="m 706.47321,906.7729 4.41965,5.75892 10.04464,-6.29464 v 58.125 h 13.125 v -75 h -11.25 z"
         style="font-family:'Russian Road Sign';-inkscape-font-specification:'Russian Road Sign';fill:#000000"
         id="path13562" /><path
         d="m 797.84863,901.54968 3.75,-12.1875 h -43.125 v 36.5625 l 8.4375,4.6875 c 0.93748,-0.6445 2.34373,-1.69919 4.21875,-3.16406 1.87498,-1.46481 4.21873,-2.28512 7.03125,-2.46094 4.23825,0.17582 7.48043,1.69926 9.72656,4.57032 2.24605,2.87112 3.37887,6.03518 3.39844,9.49218 -0.23441,4.68752 -2.10941,8.20314 -5.625,10.54688 -3.51566,2.34376 -7.26565,3.51563 -11.25,3.51562 -3.15292,0.0363 -6.32256,-0.20367 -9.50893,-0.71986 -3.18639,-0.51618 -5.95425,-1.52622 -8.30357,-3.03014 l 1.875,12.1875 c 0.21484,0.15626 2.1289,0.78126 5.74219,1.875 3.61326,1.09375 7.6367,1.71875 12.07031,1.875 9.00387,-0.19531 16.07417,-2.85156 21.21094,-7.96875 5.13666,-5.11718 7.75385,-11.52342 7.85156,-19.21875 -0.29302,-7.53903 -2.75396,-13.32027 -7.38281,-17.34375 -4.62896,-4.02339 -9.66801,-6.05464 -15.11719,-6.09375 -2.20706,-0.039 -4.42246,0.27349 -6.6462,0.9375 -2.2238,0.66411 -4.0709,1.91411 -5.5413,3.75 v -17.8125 z"
         style="font-family:'Russian Road Sign';-inkscape-font-specification:'Russian Road Sign';fill:#000000"
         id="path13564" /><path
         d="m 847.82995,888.42468 c -7.61722,0.19539 -13.71096,3.78913 -18.28125,10.78125 -4.57033,6.99225 -6.91407,16.21099 -7.03125,27.65625 0.11718,11.44534 2.46092,20.66408 7.03125,27.65625 4.57029,6.99219 10.66403,10.58594 18.28125,10.78125 7.61714,-0.19531 13.71089,-3.78906 18.28125,-10.78125 4.57025,-6.99217 6.914,-16.21091 7.03125,-27.65625 -0.11725,-10.91792 -2.461,-19.98599 -7.03125,-27.20424 -4.57036,-7.21812 -10.66411,-10.96254 -18.28125,-11.23326 z m 0,11.65179 c 3.67184,-0.0557 6.6071,2.06479 8.8058,6.3616 2.19862,4.29693 3.32585,11.10496 3.3817,20.42411 -0.0559,9.31923 -1.18308,16.12726 -3.3817,20.42411 -2.1987,4.29688 -5.13396,6.41742 -8.8058,6.36161 -3.67191,0.0558 -6.60717,-2.06472 -8.80581,-6.36161 -2.19868,-4.29686 -3.32591,-11.10489 -3.38169,-20.42411 0.0558,-9.31915 1.18301,-16.12718 3.3817,-20.42411 2.19863,-4.29681 5.13389,-6.41734 8.8058,-6.3616 z"
         style="font-family:'Russian Road Sign';-inkscape-font-specification:'Russian Road Sign';fill:#000000"
         id="path13566" /></g><path
       style="color:#000000;display:inline;overflow:visible;visibility:visible;opacity:1;fill:#000000;fill-opacity:1;fill-rule:nonzero;stroke:none;stroke-width:3.543;marker:none;enable-background:accumulate"
       d="m 45,-188 c -18.282,0 -33,14.718 -33,33 V 955 c 0,18.282 14.718,33 33,33 h 1910 c 18.282,0 33,-14.718 33,-33 V -155 c 0,-18.282 -14.718,-33 -33,-33 z m 0,6 h 1910 c 14.958,0 27,12.042 27,27 V 955 c 0,14.958 -12.042,27 -27,27 H 1190.5 V 829 c 0,-29.82338 24.1766,-54 54,-54 H 1411 v 48 L 1540.9062,748 1411,673 v 48 h -166.5 c -19.677,0 -38.1116,5.27478 -54,14.46875 V 369.9375 h 48 l -75,-129.875 -75,129.875 h 48 V 735.46875 C 1120.6116,726.27478 1102.177,721 1082.5,721 H 406 V 673 L 276.09375,748 406,823 v -48 h 676.5 c 29.8234,0 54,24.17662 54,54 V 982 H 45 C 30.042,982 18,969.958 18,955 V -155 c 0,-14.958 12.042,-27 27,-27 z"
       transform="translate(0,52.36218)"
       id="rect12591"
       sodipodi:nodetypes="sssssssssssssscsscccccscccccccscccccsscssss" /><path
       id="rect12728"
       style="display:inline;overflow:visible;opacity:1;fill:none;stroke:#000000;stroke-width:2;marker:none;enable-background:accumulate"
       d="m 45,-146.63782 h 1910 c 24.376,0 44,19.624 44,44 V 1007.3622 c 0,24.376 -19.624,44 -44,44 H 45 c -24.376,0 -44,-19.624 -44,-44 V -102.63782 c 0,-24.376 19.624,-44 44,-44 z"
       sodipodi:nodetypes="sssssssss" /><g
       inkscape:label="Layer 1"
       id="layer1-2"
       transform="matrix(0.86956521,0,0,0.86956521,1750,137.26463)"><g
         id="g10039"
         transform="translate(538.62057,216.2)"
         style="fill:#000000"><g
           aria-label="CENTER"
           id="text6494"
           style="font-weight:bold;font-size:195.578px;line-height:1.1;font-family:'Russian Road Sign';-inkscape-font-specification:'Russian Road Sign Bold';fill-rule:evenodd;stroke-width:2.72636;stroke-linecap:round;stroke-linejoin:round;paint-order:stroke fill markers"><path
             d="m -928.49219,244.95527 c -30.11902,0 -44.59179,25.81629 -44.59179,57.49993 0,31.87921 14.47277,57.49993 44.59179,57.49993 20.73126,0 32.8571,-12.32141 39.70233,-30.11901 l -18.38433,-6.84523 c -4.10714,13.69046 -11.34353,19.16664 -21.318,19.16664 -15.05951,0 -26.01188,-15.0595 -26.01188,-39.70233 0,-24.64283 10.95237,-39.70233 26.01188,-39.70233 9.97447,0 17.21086,5.47618 21.318,19.16664 l 18.38433,-6.84523 c -6.84523,-17.7976 -18.97107,-30.11901 -39.70233,-30.11901 z"
             id="path6538" /><path
             d="m -858.67095,357.21704 h 69.82134 v -16.42855 h -50.6547 v -32.85711 h 39.70234 v -16.42855 h -39.70234 v -26.01187 h 49.28566 v -17.7976 h -68.4523 z"
             id="path6540" /><path
             d="m -754.62354,357.21704 h 19.16664 v -79.40467 l 41.07138,79.40467 h 21.90474 V 247.69336 h -19.16664 v 78.03562 l -41.07138,-78.03562 h -21.90474 z"
             id="path6542" /><path
             d="m -643.73095,247.69336 v 16.42855 h 30.11901 v 93.09513 h 19.16664 v -93.09513 h 30.11902 v -16.42855 z"
             id="path6544" /><path
             d="m -534.20735,357.21704 h 69.82135 v -16.42855 h -50.6547 v -32.85711 h 39.70233 v -16.42855 h -39.70233 v -26.01187 h 49.28566 v -17.7976 h -68.45231 z"
             id="path6546" /><path
             d="m -427.42186,247.69336 v 109.52368 h 19.16665 v -43.80947 h 10.95237 c 12.32141,0 15.0595,7.62754 19.94895,16.81971 5.08503,9.7789 8.60543,21.318 12.90815,26.98976 h 23.27378 c -12.32141,-5.47618 -17.7976,-46.54756 -35.59519,-50.6547 10.95236,-4.10714 20.53569,-13.69046 20.53569,-28.74997 0,-10.95237 -6.84523,-30.11901 -34.22615,-30.11901 z m 19.16665,16.42855 h 12.32141 c 10.95237,0 20.53569,4.69387 20.53569,16.42855 0,11.73468 -9.58332,16.42856 -20.53569,16.42856 h -12.32141 z"
             id="path6548" /></g></g></g><g
       aria-label="ცენტრი"
       id="text6490"
       style="font-weight:bold;font-size:130.169px;line-height:1.1;font-family:'IndorSoft RoadSign Letters';-inkscape-font-specification:'IndorSoft RoadSign Letters Bold';fill-rule:evenodd;stroke-width:1.81456;stroke-linecap:round;stroke-linejoin:round;paint-order:stroke fill markers"><path
         d="m 1359.0805,393.38697 h 15.5397 v 0.9753 q 0,2.60077 0.5851,4.94148 0.6502,2.79583 1.6255,5.33159 1.1054,3.316 2.2757,6.50195 1.2354,3.18596 1.2354,6.50195 0,4.42133 -2.7308,7.73732 -2.7959,2.92588 -6.9571,4.6814 3.8361,2.08063 5.6567,4.16125 2.4057,3.18595 2.7958,7.60728 l 0.1951,24.44732 q 0,13.6541 -8.1275,19.83095 -8.1274,6.04681 -25.2925,6.04681 -16.1249,0 -24.1873,-6.50195 -7.6723,-6.43693 -7.6723,-19.37581 v -72.88684 h 15.6047 v 72.49673 q 0,6.04681 4.0312,9.16774 4.0962,2.9909 13.0689,2.9909 8.7126,0 12.3537,-2.27568 4.5514,-2.73082 4.5514,-9.88296 v -19.70091 q 0,-4.0312 -2.7308,-6.56696 -3.121,-2.47074 -8.4526,-2.47074 h -3.446 V 423.1659 h 3.446 q 6.0468,0 8.9727,-2.40572 2.0806,-1.56047 3.1209,-5.20156 0.2601,-1.10533 0.2601,-2.01561 0,-1.88556 -0.9102,-3.38101 -1.3655,-2.21066 -2.7959,-5.52666 -2.0806,-4.42132 -2.0806,-9.3628 0,-0.97529 0.065,-1.88557 z"
         id="path6525" /><path
         d="m 1450.1729,492.15157 q -18.2054,0 -25.7477,-6.63199 -7.2172,-6.17685 -7.2172,-19.11573 v -14.56436 h 15.4747 v 14.23927 q 0,6.56696 3.9011,9.29778 3.6411,2.6658 12.8739,2.6658 6.697,0 10.5982,-1.69051 6.3719,-2.53576 6.3719,-10.27307 v -48.0494 q 0,-5.59168 -3.0559,-8.58257 -3.7712,-3.05592 -12.4838,-3.05592 h -0.7152 q -7.2171,0 -10.2731,2.92588 -3.6411,3.25097 -3.6411,10.07802 v 3.38101 h -15.6046 v -6.69701 q 0,-10.27308 6.827,-16.77502 7.9324,-7.08713 23.342,-7.15215 15.6047,0 23.277,6.17685 7.8023,6.50195 7.8023,19.70091 v 48.37449 q 0,14.04421 -8.9076,20.09102 -7.6723,5.6567 -22.8219,5.6567 z"
         id="path6527" /><path
         d="m 1550.2379,492.15157 q -17.7503,0 -25.1626,-6.24187 -7.6072,-5.91677 -7.6072,-19.83094 V 417.5092 q 0,-10.59817 7.0871,-17.3602 7.0871,-6.76203 17.2301,-6.76203 h 41.0273 v 15.47464 h -38.6215 q -5.1366,0 -8.0624,2.47074 -3.121,2.73082 -3.121,6.17685 v 17.75032 h 25.1626 q 2.3407,0 7.0871,0.97529 4.7464,0.91028 9.4928,4.03121 3.5761,2.60078 6.1769,6.89207 2.6008,4.29128 2.6008,11.05331 v 9.16775 q 0,13.39401 -7.8024,18.92067 -7.9324,5.85175 -25.4876,5.85175 z m -17.2302,-42.58776 v 16.18985 q 0,5.52665 3.251,8.38751 3.9662,3.64109 13.8491,3.64109 8.9077,0 12.7439,-2.53576 4.0962,-2.53576 4.0962,-9.49284 v -5.85175 q 0,-0.84526 -0.3251,-3.25098 -0.2601,-2.40572 -3.251,-4.48634 -3.7711,-2.60078 -11.8985,-2.60078 z"
         id="path6529" /><path
         d="m 1651.0831,492.15157 q -16.97,0 -24.5123,-6.82705 -7.5423,-6.43693 -7.5423,-19.11573 v -72.82182 h 15.6697 v 72.49673 q 0,6.89206 5.0065,9.6879 3.9662,2.47074 12.2237,2.47074 9.0377,0 12.8738,-2.79584 3.9012,-2.60078 3.9012,-9.3628 v -24.05721 q 0,-1.56047 -0.9103,-2.9909 -0.5851,-0.58517 -1.2353,-0.97529 l -0.6502,-0.39012 -12.8739,10.92328 -10.078,-9.03771 11.4434,-8.97269 q -7.0871,-3.77113 -9.7529,-8.45253 -2.0806,-4.16125 -2.0806,-10.013 0,-10.92328 5.7217,-15.53966 5.2016,-4.22627 15.9298,-4.22627 10.5981,0 16.1248,4.42133 5.5267,4.61638 5.5267,15.3446 0,5.0065 -1.8856,8.77763 -1.8856,3.77113 -8.1274,8.84265 l 1.4954,0.97529 q 1.7555,1.30039 3.9012,3.31599 3.0559,3.83615 3.0559,7.9974 v 24.3823 q 0,14.88947 -9.4929,21.0013 -7.8023,4.94148 -23.7321,4.94148 z m 13.134,-70.22104 q 1.3654,-1.04032 2.7308,-1.88557 1.4304,-0.91027 2.6658,-2.14564 2.4057,-2.40572 2.4057,-5.98179 0,-3.51106 -1.3654,-5.26658 -1.9506,-2.01561 -6.4369,-2.01561 -3.6411,0 -5.5267,1.36541 -2.2757,1.69051 -2.2757,5.91678 0,4.09622 2.1457,6.17685 1.0403,1.62548 2.6658,2.3407 1.6255,0.71521 2.9909,1.49545 z"
         id="path6531" /><path
         d="m 1750.6931,434.28423 q 7.3472,0 12.8088,3.31599 4.5514,2.92588 6.8271,6.95709 2.4707,-4.03121 5.9167,-6.43693 5.7218,-3.83615 14.5644,-3.83615 11.5735,0 19.1807,5.59167 8.5826,6.37191 8.5826,15.9948 v 35.0455 h -16.0598 v -30.49414 q 0,-6.30689 -3.251,-9.10273 -2.7958,-2.73082 -8.7126,-2.73082 -4.8764,0 -8.2575,2.34071 -3.9011,3.18595 -3.9011,8.97269 v 9.3628 h -15.8648 v -8.84265 q 0,-5.91677 -2.9909,-8.90767 -3.381,-2.92588 -9.1027,-2.92588 -5.9168,0 -9.0377,2.92588 -3.316,3.12094 -3.316,8.90767 v 30.49414 h -15.7997 v -48.82963 q 0,-11.70351 4.1612,-17.88036 4.5514,-6.82705 18.2705,-10.98829 l 37.5812,-11.11834 q 4.5514,-1.43042 6.502,-3.51105 1.7555,-1.75552 2.7958,-5.20156 h 18.0755 q -1.1054,3.12094 -3.251,6.95709 -2.1457,3.77113 -5.5917,7.15214 -5.7867,5.72172 -13.199,7.86736 l -38.2314,10.72821 q -8.5176,2.27569 -11.8986,6.63199 -2.7308,3.57607 -2.7308,9.55786 2.4707,-4.16124 6.4369,-6.11183 3.9012,-1.88556 9.4929,-1.88556 z"
         id="path6533" /><path
         d="m 1905.8297,490.9162 v -75.22754 q 0,-3.64109 -2.9259,-6.11184 -4.6814,-3.57607 -13.0689,-3.57607 h -0.9103 q -10.2731,0 -14.1742,3.38102 -2.6008,2.53576 -2.6008,6.30689 v 75.22754 h -16.9051 v -77.82832 q 0,-9.75293 7.9974,-15.21456 8.4526,-5.72172 25.5527,-5.72172 17.7503,0 26.0728,6.63199 6.827,5.59168 6.827,14.62938 v 77.50323 z"
         id="path6535" /></g><g
       id="g6510"
       transform="translate(-489.37686,-407.9997)"><g
         aria-label="TSAGERI"
         id="text6498"
         style="font-weight:bold;font-size:170.068px;line-height:1.1;font-family:'Russian Road Sign';-inkscape-font-specification:'Russian Road Sign Bold';fill-rule:evenodd;stroke-width:2.37075;stroke-linecap:round;stroke-linejoin:round;paint-order:stroke fill markers"><path
           d="m 1343.6955,540.65005 v 14.28571 h 26.1905 v 80.95236 h 16.6666 v -80.95236 h 26.1905 v -14.28571 z"
           id="path6564" /><path
           d="m 1438.4233,621.60241 c 0,0 15.9864,16.66666 37.4149,16.66666 23.8096,0 36.5647,-17.85713 36.5647,-29.76189 0,-14.28572 -10.3742,-23.80952 -27.0408,-27.38095 -13.0953,-2.72109 -25,-4.2517 -25,-13.43537 0,-4.59184 3.5714,-13.94558 17.8571,-13.94558 12.415,0 21.0884,9.52381 21.0884,9.52381 l 11.0545,-11.90476 c 0,0 -15.4762,-13.09524 -32.1429,-13.09524 -20.2381,0 -34.5238,13.09524 -34.5238,29.7619 0,7.31293 3.2313,22.78911 29.7619,26.70068 21.2585,3.06122 21.4286,11.05442 21.4286,14.79591 v 0.17007 c 0,3.57143 -4.0817,13.09524 -18.7075,13.09524 -16.6667,0 -26.0204,-11.22449 -26.0204,-11.22449 z"
           id="path6566" /><path
           d="m 1563.5934,602.5548 11.9048,-40.47619 11.9047,40.47619 z m 2.381,-61.90475 -30.9524,95.23807 h 17.8571 l 5.9524,-19.04761 h 33.3333 l 5.9524,19.04761 h 17.8571 l -30.9523,-95.23807 z"
           id="path6568" /><path
           d="m 1680.2599,538.26909 c -26.1905,0 -40.3061,22.44898 -40.3061,49.99999 0,27.55102 14.1156,49.99999 40.3061,49.99999 9.1837,0 14.966,-4.93197 19.0476,-10.71428 l 3.5715,8.33333 h 14.2857 v -47.61904 h -34.5238 v 14.28572 h 16.6666 c 0,8.33333 -1.1905,10.71428 -5.9524,15.47618 -3.5714,3.57143 -7.1428,4.76191 -13.0952,4.76191 -13.0952,0 -22.619,-13.09524 -22.619,-34.52381 0,-21.42856 9.5238,-34.5238 22.619,-34.5238 8.8435,0 14.966,4.76191 18.5374,16.66667 l 15.9864,-5.95238 c -5.9524,-15.47619 -16.4966,-26.19048 -34.5238,-26.19048 z"
           id="path6570" /><path
           d="m 1743.355,635.88812 h 60.7143 v -14.28571 h -44.0476 v -28.57142 h 34.5238 v -14.28571 h -34.5238 v -22.61905 h 42.8571 v -15.47618 h -59.5238 z"
           id="path6572" /><path
           d="m 1836.2121,540.65005 v 95.23807 h 16.6666 v -38.09523 h 9.5238 c 10.7143,0 13.0953,6.63265 17.347,14.62585 4.4217,8.5034 7.483,18.53741 11.2245,23.46938 h 20.2381 c -10.7143,-4.7619 -15.4762,-40.47618 -30.9524,-44.04761 9.5238,-3.57143 17.8571,-11.90476 17.8571,-24.99999 0,-9.52381 -5.9524,-26.19047 -29.7619,-26.19047 z m 16.6666,14.28571 h 10.7143 c 9.5238,0 17.8572,4.08163 17.8572,14.28571 0,10.20408 -8.3334,14.28571 -17.8572,14.28571 h -10.7143 z"
           id="path6574" /><path
           d="m 1939.7834,635.88812 h 16.6666 v -95.23807 h -16.6666 z"
           id="path6576" /></g><g
         aria-label="ცაგერი"
         id="text6502"
         style="font-weight:bold;font-size:130.169px;line-height:1.1;font-family:'IndorSoft RoadSign Letters';-inkscape-font-specification:'IndorSoft RoadSign Letters Bold';fill-rule:evenodd;stroke-width:1.81456;stroke-linecap:round;stroke-linejoin:round;paint-order:stroke fill markers"><path
           d="m 1395.6839,393.38697 h 15.5397 v 0.9753 q 0,2.60077 0.5851,4.94148 0.6502,2.79583 1.6255,5.33159 1.1054,3.316 2.2757,6.50195 1.2354,3.18596 1.2354,6.50195 0,4.42133 -2.7308,7.73732 -2.7959,2.92588 -6.9571,4.6814 3.8361,2.08063 5.6567,4.16125 2.4057,3.18595 2.7958,7.60728 l 0.1951,24.44732 q 0,13.6541 -8.1275,19.83095 -8.1274,6.04681 -25.2926,6.04681 -16.1248,0 -24.1872,-6.50195 -7.6723,-6.43693 -7.6723,-19.37581 v -72.88684 h 15.6047 v 72.49673 q 0,6.04681 4.0312,9.16774 4.0962,2.9909 13.0689,2.9909 8.7126,0 12.3537,-2.27568 4.5514,-2.73082 4.5514,-9.88296 v -19.70091 q 0,-4.0312 -2.7309,-6.56696 -3.1209,-2.47074 -8.4525,-2.47074 h -3.446 V 423.1659 h 3.446 q 6.0468,0 8.9727,-2.40572 2.0806,-1.56047 3.1209,-5.20156 0.2601,-1.10533 0.2601,-2.01561 0,-1.88556 -0.9103,-3.38101 -1.3654,-2.21066 -2.7958,-5.52666 -2.0806,-4.42132 -2.0806,-9.3628 0,-0.97529 0.065,-1.88557 z"
           id="path6551" /><path
           d="m 1464.0195,393.38697 h 16.84 q 0.1301,5.0065 1.7556,7.60728 1.1703,2.92588 5.5916,6.04681 5.1366,4.09623 12.4188,8.25748 7.3472,4.09623 11.5084,9.10273 2.2757,3.12093 4.1613,6.63198 2.0806,4.87647 2.0806,11.50845 l -0.1951,28.47854 q 0,3.77113 -1.0403,6.95708 -1.0403,3.12094 -4.1612,6.24187 -3.251,3.316 -10.2081,5.6567 -6.9571,2.27568 -17.3602,2.27568 -21.7815,0 -29.3888,-9.23277 -4.0312,-4.61638 -4.0312,-11.57347 v -19.11572 h 16.84 v 16.51494 q 0,4.03121 2.6658,6.24188 3.7712,3.44603 14.0442,3.44603 0.9753,0.065 1.9506,0.065 6.632,0 10.8583,-2.79584 4.2262,-2.73082 4.2262,-6.95709 v -21.52144 q 0,-2.79584 -0.195,-5.52666 -0.1301,-2.79584 -1.6905,-5.59168 -2.0806,-3.51105 -6.762,-6.63198 l -18.2705,-12.48374 q -6.632,-4.42133 -9.2328,-10.85826 -1.4954,-3.57607 -1.9506,-6.82704 -0.4551,-3.316 -0.4551,-5.91678 z"
           id="path6553" /><path
           d="m 1592.173,436.29983 q 11.7035,1.10533 17.4252,5.72172 4.6164,3.90117 5.5267,9.75292 0.9753,5.78673 0.9753,12.80884 0,6.17685 -0.7153,11.57347 -0.7152,5.33159 -4.6814,9.0377 -3.446,3.316 -10.143,5.13654 -6.632,1.82055 -18.1404,1.82055 -10.8583,0 -17.2302,-1.88557 -6.3719,-1.95058 -9.883,-5.26657 -4.6814,-4.16125 -5.3316,-9.62289 -0.5851,-5.52665 -0.5851,-10.79323 0,-6.82705 1.2353,-12.93888 1.2354,-6.11183 6.502,-10.07802 5.7867,-4.16125 15.7997,-5.07152 l 15.5397,-15.99479 q 3.1859,-3.05592 3.1859,-6.89207 0,-1.49545 -0.5201,-3.12093 -1.2354,-4.87646 -7.4773,-4.87646 -6.1768,0 -7.5422,3.77113 -0.9753,2.60078 -0.9753,7.73731 h -15.4747 q 0,-7.73731 0.6502,-10.92327 0.7153,-3.25097 2.9259,-6.37191 5.0715,-7.6723 20.9363,-7.6723 12.6788,0 18.2705,5.52666 4.8114,4.61638 4.8114,11.70351 0,1.62548 0,4.16124 0,2.47074 -0.7802,5.13654 -1.2354,3.70611 -3.4461,6.04681 z m -9.6229,13.84915 q -10.7932,0 -14.4993,3.38102 -3.316,2.99089 -3.316,10.72821 0,8.38751 2.6658,10.6632 3.2509,3.25097 15.1495,3.25097 10.8583,0 15.0845,-2.92588 3.121,-2.27568 3.121,-10.98829 0,-6.69701 -2.6658,-9.81794 -3.8362,-4.29129 -15.5397,-4.29129 z"
           id="path6555" /><path
           d="m 1681.8349,492.15157 q -18.2054,0 -25.7477,-6.63199 -7.2172,-6.17685 -7.2172,-19.11573 v -14.56436 h 15.4747 v 14.23927 q 0,6.56696 3.9011,9.29778 3.6411,2.6658 12.8739,2.6658 6.697,0 10.5982,-1.69051 6.3719,-2.53576 6.3719,-10.27307 v -48.0494 q 0,-5.59168 -3.0559,-8.58257 -3.7712,-3.05592 -12.4838,-3.05592 h -0.7152 q -7.2171,0 -10.2731,2.92588 -3.6411,3.25097 -3.6411,10.07802 v 3.38101 h -15.6046 v -6.69701 q 0,-10.27308 6.827,-16.77502 7.9324,-7.08713 23.342,-7.15215 15.6047,0 23.277,6.17685 7.8023,6.50195 7.8023,19.70091 v 48.37449 q 0,14.04421 -8.9076,20.09102 -7.6723,5.6567 -22.8219,5.6567 z"
           id="path6557" /><path
           d="m 1778.5189,434.28423 q 7.3472,0 12.8088,3.31599 4.5514,2.92588 6.827,6.95709 2.4708,-4.03121 5.9168,-6.43693 5.7217,-3.83615 14.5644,-3.83615 11.5734,0 19.1807,5.59167 8.5826,6.37191 8.5826,15.9948 v 35.0455 h -16.0598 v -30.49414 q 0,-6.30689 -3.251,-9.10273 -2.7958,-2.73082 -8.7126,-2.73082 -4.8765,0 -8.2575,2.34071 -3.9011,3.18595 -3.9011,8.97269 v 9.3628 h -15.8648 v -8.84265 q 0,-5.91677 -2.9909,-8.90767 -3.381,-2.92588 -9.1027,-2.92588 -5.9168,0 -9.0377,2.92588 -3.316,3.12094 -3.316,8.90767 v 30.49414 h -15.7998 v -48.82963 q 0,-11.70351 4.1613,-17.88036 4.5514,-6.82705 18.2705,-10.98829 l 37.5812,-11.11834 q 4.5514,-1.43042 6.502,-3.51105 1.7555,-1.75552 2.7958,-5.20156 h 18.0754 q -1.1053,3.12094 -3.2509,6.95709 -2.1457,3.77113 -5.5917,7.15214 -5.7868,5.72172 -13.199,7.86736 l -38.2314,10.72821 q -8.5176,2.27569 -11.8986,6.63199 -2.7308,3.57607 -2.7308,9.55786 2.4707,-4.16124 6.4369,-6.11183 3.9012,-1.88556 9.4929,-1.88556 z"
           id="path6559" /><path
           d="m 1933.6555,490.9162 v -75.22754 q 0,-3.64109 -2.9259,-6.11184 -4.6814,-3.57607 -13.0689,-3.57607 h -0.9103 q -10.2731,0 -14.1742,3.38102 -2.6008,2.53576 -2.6008,6.30689 v 75.22754 h -16.9051 v -77.82832 q 0,-9.75293 7.9974,-15.21456 8.4526,-5.72172 25.5527,-5.72172 17.7503,0 26.0728,6.63199 6.827,5.59168 6.827,14.62938 v 77.50323 z"
           id="path6561" /></g><g
         aria-label="150 მ"
         id="text6514"
         style="font-weight:bold;font-size:97.7787px;line-height:1.1;font-family:'IndorSoft RoadSign Letters';-inkscape-font-specification:'IndorSoft RoadSign Letters Bold';fill:#000080;fill-rule:evenodd;stroke-width:1.36304;stroke-linecap:round;stroke-linejoin:round;paint-order:stroke fill markers"><path
           d="m 1418.9921,1373.3577 q -10.0785,0 -13.9842,-3.4874 -3.6966,-2.9642 -3.6966,-9.6948 v -4.8823 q 0,-5.5797 3.592,-8.6835 2.4759,-2.2318 5.4402,-2.8595 2.9642,-0.6278 4.4289,-0.6278 h 13.3914 v -9.4507 q 0,-2.3017 -1.0114,-3.7663 -1.8831,-2.4761 -7.5325,-2.4761 h -0.3139 q -4.7777,0 -7.0793,2.1972 -1.9181,1.918 -1.9181,4.7427 v 1.8483 h -8.4394 v -3.5921 q 0,-5.5447 4.6731,-9.1367 4.8127,-3.6268 12.4498,-3.6268 h 0.558 q 9.2764,0 13.5657,4.115 3.3131,3.4524 3.3131,9.6948 v 25.8064 q 0,7.428 -4.0803,10.5317 -4.0104,3.3479 -13.3565,3.3479 z m 9.1717,-22.6329 h -9.7994 q -4.394,0 -6.347,1.36 -1.639,1.116 -1.7784,2.4064 -0.1047,1.2903 -0.1047,1.7087 v 3.1038 q 0,4.3592 3.1038,5.6495 1.8134,0.7672 5.754,0.7672 4.5336,0 6.6957,-1.36 2.476,-1.4648 2.476,-5.0567 z"
           id="path6522"
           style="stroke-width:0.973243;fill:#000000" /></g></g></g></svg>
