<?xml version="1.0" encoding="UTF-8" standalone="no"?>
<!-- Created with Inkscape (http://www.inkscape.org/) -->

<svg
   width="1070.1189"
   height="300.10004"
   id="svg2"
   version="1.1"
   inkscape:version="1.2.2 (732a01da63, 2022-12-09)"
   sodipodi:docname="KZ_road_sign_5.21.1_C.svg"
   xmlns:inkscape="http://www.inkscape.org/namespaces/inkscape"
   xmlns:sodipodi="http://sodipodi.sourceforge.net/DTD/sodipodi-0.dtd"
   xmlns="http://www.w3.org/2000/svg"
   xmlns:svg="http://www.w3.org/2000/svg"
   xmlns:rdf="http://www.w3.org/1999/02/22-rdf-syntax-ns#"
   xmlns:cc="http://creativecommons.org/ns#"
   xmlns:dc="http://purl.org/dc/elements/1.1/">
  <defs
     id="defs4" />
  <sodipodi:namedview
     id="base"
     pagecolor="#ffffff"
     bordercolor="#666666"
     borderopacity="1.0"
     inkscape:pageopacity="0.0"
     inkscape:pageshadow="2"
     inkscape:zoom="0.70710678"
     inkscape:cx="794.08092"
     inkscape:cy="249.60869"
     inkscape:document-units="px"
     inkscape:current-layer="layer1"
     showgrid="false"
     inkscape:window-width="1920"
     inkscape:window-height="991"
     inkscape:window-x="-9"
     inkscape:window-y="-9"
     inkscape:window-maximized="1"
     inkscape:snap-bbox="true"
     inkscape:bbox-paths="true"
     inkscape:bbox-nodes="true"
     inkscape:snap-bbox-edge-midpoints="true"
     inkscape:snap-bbox-midpoints="true"
     inkscape:object-paths="true"
     inkscape:snap-intersection-paths="true"
     inkscape:object-nodes="true"
     inkscape:snap-smooth-nodes="true"
     inkscape:snap-midpoints="true"
     inkscape:snap-object-midpoints="true"
     inkscape:showpageshadow="2"
     inkscape:pagecheckerboard="0"
     inkscape:deskcolor="#d1d1d1"
     showguides="true" />
  <metadata
     id="metadata7">
    <rdf:RDF>
      <cc:Work
         rdf:about="">
        <dc:format>image/svg+xml</dc:format>
        <dc:type
           rdf:resource="http://purl.org/dc/dcmitype/StillImage" />
        <cc:license
           rdf:resource="http://creativecommons.org/licenses/by-sa/3.0/" />
        <dc:description>ГОСТ Р 52290-2004</dc:description>
      </cc:Work>
      <cc:License
         rdf:about="http://creativecommons.org/licenses/by-sa/3.0/">
        <cc:permits
           rdf:resource="http://creativecommons.org/ns#Reproduction" />
        <cc:permits
           rdf:resource="http://creativecommons.org/ns#Distribution" />
        <cc:requires
           rdf:resource="http://creativecommons.org/ns#Notice" />
        <cc:requires
           rdf:resource="http://creativecommons.org/ns#Attribution" />
        <cc:permits
           rdf:resource="http://creativecommons.org/ns#DerivativeWorks" />
        <cc:requires
           rdf:resource="http://creativecommons.org/ns#ShareAlike" />
      </cc:License>
    </rdf:RDF>
  </metadata>
  <g
     inkscape:label="Layer 1"
     inkscape:groupmode="layer"
     id="layer1"
     transform="translate(0.06891089,-752.31215)">
    <path
       style="color:#000000;display:inline;overflow:visible;visibility:visible;opacity:1;fill:#ffffff;fill-opacity:1;fill-rule:nonzero;stroke:none;stroke-width:3.543;marker:none;enable-background:accumulate"
       d="m 1025,752.36215 c 24.93,0 45,20.07 45,45 v 210.00005 c 0,24.93 -20.07,45 -45,45 H 259.8438 L 0,902.36215 l 259.8438,-150 z"
       id="rect12447"
       inkscape:connector-curvature="0"
       sodipodi:nodetypes="sssscccs" />
    <path
       style="color:#000000;display:inline;overflow:visible;visibility:visible;opacity:1;fill:none;stroke:#000000;stroke-width:2;stroke-miterlimit:4;stroke-dasharray:none;stroke-opacity:1;marker:none;enable-background:accumulate"
       d="m 1025,753.36215 c 24.376,0 44,19.624 44,44 v 210.00005 c 0,24.376 -19.624,44 -44,44 H 260.125 L 2.0312,902.36215 l 258.0938,-149 z"
       id="rect12491"
       inkscape:connector-curvature="0"
       sodipodi:nodetypes="sssscccs" />
    <path
       id="rect12445"
       style="color:#000000;display:inline;overflow:visible;visibility:visible;opacity:1;fill:#00a500;fill-opacity:1;fill-rule:nonzero;stroke:none;stroke-width:3.543;marker:none;enable-background:accumulate"
       d="M 265.24945 761.36293 L 124.24945 902.36293 L 265.24945 1043.3629 L 1024.9994 1043.3629 C 1044.9434 1043.3629 1060.9994 1027.3069 1060.9994 1007.3629 L 1060.9994 797.36293 C 1060.9994 777.41903 1044.9434 761.36293 1024.9994 761.36293 L 265.24945 761.36293 z M 528.64007 818.14418 C 532.60626 818.14418 535.79103 818.69709 538.19671 819.80238 C 540.14729 820.74516 541.72432 821.93055 542.92718 823.36098 C 544.58517 821.73549 546.17852 820.55011 547.70648 819.80238 C 550.04718 818.69709 552.84222 818.14418 556.0932 818.14418 C 561.2622 818.14418 565.44044 819.11938 568.6264 821.06996 C 573.37282 824.15839 575.74554 829.26287 575.74554 836.38246 L 575.74554 841.11098 C 575.74554 845.07712 574.90086 848.10067 573.21039 850.18129 C 572.36513 851.35164 571.11248 852.34316 569.45453 853.1559 C 571.01499 853.90363 572.34919 854.84814 573.45453 855.98598 C 574.98249 857.67648 575.74554 859.98393 575.74554 862.90981 L 575.74554 873.83363 C 575.74554 880.36809 573.77883 885.2278 569.84515 888.41371 C 565.91152 891.56716 559.99497 893.14418 552.09515 893.14418 C 543.57764 893.14418 537.44896 891.73034 533.71039 888.90199 C 529.4191 885.7811 527.27484 880.7582 527.27484 873.83363 L 527.27484 864.47035 L 538.83148 864.47035 L 538.83148 873.58949 C 538.83148 876.41784 539.54559 878.5641 540.97601 880.02699 C 542.79656 881.7175 546.3077 882.56215 551.50921 882.56215 C 555.76799 882.56215 558.92204 881.89505 560.97015 880.56215 C 563.1483 879.19674 564.23773 876.87298 564.23773 873.58949 L 564.23773 864.95863 C 564.23773 863.20315 563.66854 861.75468 562.5307 860.61684 C 561.03525 859.05637 558.82372 858.27699 555.89789 858.27699 L 553.41156 858.27699 L 553.41156 847.89027 L 555.89789 847.89027 C 558.33608 847.89027 560.3681 846.93139 561.99359 845.01332 C 563.55405 843.22528 564.33539 840.93221 564.33539 838.13637 C 564.33539 835.60061 563.76619 833.47266 562.62835 831.74965 C 561.06793 829.79907 558.71149 828.82387 555.55804 828.82387 C 552.85973 828.82387 550.63193 829.42374 548.8764 830.6266 C 546.99084 832.05703 545.95037 833.92779 545.75531 836.23598 L 545.75531 837.55238 C 545.26767 842.10375 543.77223 845.27217 541.26898 847.0602 C 538.70071 848.88074 534.49182 849.79262 528.64007 849.79262 C 522.10566 849.79262 517.60301 848.71951 515.13226 846.57387 C 513.53929 845.30598 512.54777 843.59841 512.15765 841.45277 C 511.76754 839.30717 511.57171 836.80387 511.57171 833.94301 C 511.57171 827.60366 513.31197 823.23154 516.79046 820.82582 C 519.48877 819.03778 523.43856 818.14418 528.64007 818.14418 z M 618.04437 818.14418 C 621.4904 818.14418 624.54654 818.84198 627.21234 820.23988 C 629.45551 821.57278 631.32431 823.41091 632.81976 825.7516 C 633.99011 823.73601 635.55082 822.07739 637.5014 820.77699 C 640.29724 819.02148 643.80835 818.14418 648.0346 818.14418 C 653.17114 818.14418 657.60849 819.28257 661.3471 821.55824 C 666.32109 824.51663 668.80804 828.74184 668.80804 834.23598 L 668.80804 892.21645 L 656.9096 892.21645 L 656.9096 837.65004 C 656.9096 834.91922 656.22619 832.77301 654.86078 831.21254 C 653.2678 829.68459 650.94403 828.92152 647.88812 828.92152 C 645.38487 828.92152 643.27128 829.5214 641.54828 830.72426 C 639.69522 832.1872 638.76898 834.39869 638.76898 837.35707 L 638.76898 862.95863 L 626.77289 862.95863 L 626.77289 837.65004 C 626.77289 834.62664 625.94456 832.34986 624.28656 830.82192 C 622.82363 829.55404 620.69371 828.92152 617.89789 828.92152 C 615.23209 828.92152 613.10219 829.5214 611.50921 830.72426 C 609.59115 832.12218 608.63226 834.43158 608.63226 837.65004 L 608.63226 892.21645 L 596.73382 892.21645 L 596.73382 835.01723 C 596.73382 830.33583 598.83109 826.3208 603.02484 822.97231 C 607.12107 819.75384 612.12761 818.14418 618.04437 818.14418 z M 715.05609 818.14418 C 718.95726 818.14418 722.27255 818.97251 725.00335 820.63051 C 726.98645 822.02843 728.61243 823.73601 729.88031 825.7516 C 731.14819 823.57346 732.82312 821.81692 734.90375 820.48402 C 737.60205 818.92356 741.03157 818.14418 745.19281 818.14418 C 750.882 818.14418 755.57851 819.47643 759.2846 822.14223 C 763.73843 825.23065 765.96625 829.26199 765.96625 834.23598 L 765.96625 892.21645 L 753.97015 892.21645 L 753.97015 837.65004 C 753.97015 834.69166 753.2704 832.54545 751.8725 831.21254 C 750.37705 829.68459 748.11856 828.92152 745.09515 828.92152 C 742.26681 828.92152 740.08794 829.55404 738.56 830.82192 C 736.83698 832.1548 735.92705 834.33367 735.82953 837.35707 L 735.82953 877.29457 C 735.82953 882.65867 733.29362 886.82056 728.2221 889.77895 C 724.25593 892.02211 719.55942 893.14418 714.13031 893.14418 C 708.89624 893.14418 704.29571 891.71401 700.32953 888.85317 C 695.97322 885.63471 693.79437 881.73195 693.79437 877.14809 L 693.79437 835.01723 C 693.79437 829.68563 696.4445 825.2953 701.74359 821.84926 C 705.41719 819.37852 709.85453 818.14418 715.05609 818.14418 z M 816.31 818.14418 C 825.18514 818.14418 831.70345 819.80084 835.86468 823.11684 C 839.27821 825.91266 840.98578 829.57065 840.98578 834.08949 L 840.98578 892.21645 L 829.08734 892.21645 L 829.08734 835.79652 C 829.08734 833.97599 828.35497 832.44791 826.89203 831.21254 C 824.55132 829.42451 821.28498 828.5309 817.09125 828.5309 L 816.40765 828.5309 C 811.27113 828.5309 807.72738 829.37555 805.77679 831.06606 C 804.47641 832.33392 803.82562 833.91097 803.82562 835.79652 L 803.82562 892.21645 L 791.14789 892.21645 L 791.14789 833.84535 C 791.14789 828.9689 793.14725 825.166 797.14593 822.4352 C 801.3722 819.57434 807.75994 818.14418 816.31 818.14418 z M 528.64007 827.36098 C 526.10436 827.36098 524.29884 827.97718 523.22601 829.21254 C 522.28323 830.15533 521.81195 831.73235 521.81195 833.94301 C 521.81195 836.44626 522.28323 838.17015 523.22601 839.11293 C 524.2013 840.0232 526.00682 840.47817 528.64007 840.47817 C 530.72069 840.47817 532.26508 840.18444 533.27289 839.59926 C 534.76829 838.75401 535.51507 836.86889 535.51507 833.94301 C 535.51507 831.47227 534.76829 829.68506 533.27289 828.57973 C 532.26508 827.76699 530.72069 827.36098 528.64007 827.36098 z M 714.9096 828.92152 C 711.95123 828.92152 709.73973 829.61931 708.27679 831.01723 C 706.61879 832.57769 705.79046 834.78918 705.79046 837.65004 L 705.79046 873.44301 C 705.79046 876.33637 706.52284 878.51523 707.98578 879.97817 C 709.48123 881.63615 711.65813 882.46449 714.51898 882.46449 C 717.83498 882.46449 720.19333 881.78107 721.59125 880.41567 C 723.1517 878.82269 723.93109 876.49893 723.93109 873.44301 L 723.93109 837.65004 C 723.93109 834.78918 723.1824 832.64297 721.68695 831.21254 C 720.28904 829.68459 718.03054 828.92152 714.9096 828.92152 z M 950.37835 869.46645 L 961.0932 869.46645 L 961.0932 940.89418 L 948.5932 940.89418 L 948.5932 885.53676 L 939.02679 891.53285 L 934.81781 886.04848 L 950.37835 869.46645 z M 978.67132 869.46645 L 1019.7436 869.46645 L 1016.1713 881.07387 L 990.27875 881.07387 L 990.27875 898.03676 C 992.95729 894.46533 997.80449 893.57387 1001.8862 893.57387 C 1011.7076 893.57387 1023.3139 901.60853 1023.3139 915.89418 C 1023.3139 930.17986 1012.6004 941.78676 995.63617 941.78676 C 987.60048 941.78676 978.67132 938.21645 978.67132 938.21645 L 976.88617 926.60902 C 981.22287 929.5427 987.98172 930.18129 993.84906 930.18129 C 1000.992 930.18129 1009.9213 925.7153 1009.9213 916.78676 C 1009.9213 910.53679 1005.457 903.39418 997.42132 903.39418 C 992.06421 903.39418 988.49219 907.85875 986.70648 908.7516 L 978.67132 904.28676 L 978.67132 869.46645 z M 708.94867 919.00356 L 721.44867 919.00356 L 721.44867 990.43129 L 708.94867 990.43129 L 708.94867 919.00356 z " />
    <g
       id="g1169"
       style="fill:#ffffff"
       transform="translate(-40)">
      <g
         aria-label="POTI"
         id="text1151"
         style="font-weight:bold;font-size:127.551px;line-height:1.1;font-family:'IndorSoft RoadSign Letters';-inkscape-font-specification:'IndorSoft RoadSign Letters Bold';text-align:center;letter-spacing:-5.63633px;text-anchor:middle;fill-rule:evenodd;stroke-width:7.08616;stroke-linecap:round;stroke-linejoin:round;paint-order:stroke fill markers">
        <path
           d="m 551.57172,919.00296 v 71.42856 h 12.5 v -25 h 11.60714 c 16.96428,0 23.21428,-13.39285 23.21428,-23.21428 0,-9.82143 -6.25,-23.21428 -23.21428,-23.21428 z m 12.5,10.71428 h 8.03571 c 7.14286,0 14.28572,3.57143 14.28572,12.5 0,8.92857 -7.14286,12.5 -14.28572,12.5 h -8.03571 z"
           style="font-family:'Russian Road Sign';-inkscape-font-specification:'Russian Road Sign Bold'"
           id="path1283" />
        <path
           d="m 643.25674,917.21724 c -19.64286,0 -29.08163,16.83674 -29.08163,37.5 0,20.66326 9.43877,37.49999 29.08163,37.49999 19.64285,0 29.08162,-16.83673 29.08162,-37.49999 0,-20.66326 -9.43877,-37.5 -29.08162,-37.5 z m 0,11.60714 c 9.82142,0 16.96428,9.82143 16.96428,25.89286 0,16.07142 -7.14286,25.89285 -16.96428,25.89285 -9.82143,0 -16.96429,-9.82143 -16.96429,-25.89285 0,-16.07143 7.14286,-25.89286 16.96429,-25.89286 z"
           style="font-family:'Russian Road Sign';-inkscape-font-specification:'Russian Road Sign Bold'"
           id="path1285" />
        <path
           d="m 683.15603,919.00296 v 10.71428 h 19.64285 v 60.71428 h 12.5 v -60.71428 h 19.64285 v -10.71428 z"
           style="font-family:'Russian Road Sign';-inkscape-font-specification:'Russian Road Sign Bold'"
           id="path1287" />
      </g>
    </g>
    <path
       id="path12042"
       style="color:#000000;display:inline;overflow:visible;visibility:visible;fill:#ffffff;fill-opacity:1;fill-rule:nonzero;stroke:none;stroke-width:2.74647;marker:none;enable-background:accumulate"
       d="m 359.85918,817.94621 -9.27796,42.27164 h 13.00852 l 1.84106,-42.27164 z m 9.30219,0 1.81683,42.27164 h 13.00852 l -9.27796,-42.27164 z m -58.59892,47.91594 v 7.48535 h 15.89123 v 13.10542 h 7.46113 l 3.68212,-13.10542 h 59.37409 l 3.73056,13.10542 h 7.41269 V 873.3475 h 15.89123 v -7.48535 z m 34.47137,13.08119 -29.69916,113.41884 h 44.52452 l 3.73056,-113.41884 z m 25.94438,0 3.73056,113.41884 h 44.52453 L 389.55835,878.94334 Z"
       sodipodi:nodetypes="ccccccccccccccccccccccccccccccccc" />
    <g
       aria-label="15"
       id="text1163"
       style="font-weight:bold;font-size:127.551px;line-height:1.1;font-family:'IndorSoft RoadSign Letters';-inkscape-font-specification:'IndorSoft RoadSign Letters Bold';text-align:center;letter-spacing:-5.63633px;text-anchor:middle;fill:#ffffff;fill-rule:evenodd;stroke-width:7.08616;stroke-linecap:round;stroke-linejoin:round;paint-order:stroke fill markers" />
  </g>
</svg>
