<?xml version="1.0" encoding="UTF-8"?>
<svg xmlns="http://www.w3.org/2000/svg" xmlns:xlink="http://www.w3.org/1999/xlink" width="500" height="540" viewBox="0 0 500 540">
  <title>Coat of Arms of Žilina</title>
  <g id="coa_zilina">
    <path id="field_vert" d="M0,0C0,149,46,341.5,250,540,454,341.5,500,149,500,0Z" fill="#199441"/>
    <g id="coa">
      <polygon id="star" points="104.434 123.6 127.5 145.251 97.217 136.1 90 166.901 82.783 136.1 52.5 145.251 75.566 123.6 52.5 101.949 82.783 111.1 90 80.299 97.217 111.1 127.5 101.949 104.434 123.6" fill="#fdda2a"/>
      <use xlink:href="#star" transform="translate(500 0) scale(-1 1)"/>
      <path d="M386.6,207.53A120.094,120.094,0,0,1,352,212.6H270v-100h22a120.094,120.094,0,0,1,34.6,5.07,60.151,60.151,0,0,1,0-46.14A120.094,120.094,0,0,1,292,76.6H270v-17A120.094,120.094,0,0,1,275.07,25c-7.1,2.96-16.889,4.6-25.07,4.6s-17.97-1.64-25.07-4.6A120.094,120.094,0,0,1,230,59.6v17H208a120.094,120.094,0,0,1-34.6-5.07,60.151,60.151,0,0,1,0,46.14A120.094,120.094,0,0,1,208,112.6h22v100H148a120.094,120.094,0,0,1-34.6-5.07,60.151,60.151,0,0,1,0,46.14A120.094,120.094,0,0,1,148,248.6h82v115s.039,13,0,15.082c-.208,11.288-6.7,17.356-17.145,19.963-8.086,2.017-15.543,6.427-17.549,14.939-2.039,8.652.05,16.154,6.336,22.223,2.965,2.864,6.884,5.243,9.336,8.59,2.439,3.329,4.666,9.654,5.771,13.621,1.351-3.6,1.126-12,.022-15.718-1.511-5.088-4.724-9.423-5.924-14.668-1.425-6.227-1.174-14.25,6.258-15.766,5.284-1.077,11.24-.007,13.77,5.305,2.8,5.887-1.073,11.591-2.9,17-1.454,4.3-.87,8.811-.533,13.308.39,5.215.745,12.081,4.092,16.378,4.2,5.393,10.21,7.962,13.609,14.42,1.254-6.7-1.57-11.153-3.663-17.09-1.523-4.318-.135-8.59.536-12.989,1.464-9.595-1.252-28.6,14.543-25.715,14.934,2.724,3.829,21.12,3,30.05-.367,3.967.305,7.35.87,11.279,1.061,7.378-.154,13.83-1.521,21.08,3.857-3.821,7.5-7.034,9.63-12.066,2.366-5.595,3.236-11.118,3.765-17.186.58-6.657,3.42-11.186,5.07-17.509,1.688-6.471-1.8-14.35,1.472-20.394,2.72-5.025,10.556-6.066,15-2.51,4.778,3.826,4.306,10.511,1.518,15.338-1.711,2.964-3.078,4.244-3.3,7.853-.187,3,.015,5.742-.454,8.719-.829,5.265-3.587,8.377-5.309,13.18,2.916-2.661,5.919-4.447,8.629-7.359,2.956-3.177,5.553-6.546,8.538-9.731,3.721-3.968,2.8-8.277,4.532-13.152,1.565-4.406,3.81-8.35,3.1-13.259-1.474-10.251-12.824-14.979-21.141-18.792-8.893-4.078-16.359-8.473-19.152-18.345C270.177,377.445,270,363.6,270,363.6v-115h82a120.094,120.094,0,0,1,34.6,5.07,60.151,60.151,0,0,1,0-46.14Z" fill="#fdda2a"/>
    </g>
    <g id="border">
      <path d="M493.974,6a674.718,674.718,0,0,1-10.256,112.267,658.431,658.431,0,0,1-37.781,130.922c-19.285,47.722-44.776,94.913-75.766,140.261C336.992,438,296.578,485.807,250,531.607,203.422,485.807,163.008,438,129.829,389.45,98.839,344.1,73.348,296.911,54.063,249.189A658.431,658.431,0,0,1,16.282,118.267,674.718,674.718,0,0,1,6.026,6H493.974M500,0H0C0,149,46,341.5,250,540,454,341.5,500,149,500,0Z" fill="#111"/>
    </g>
  </g>
</svg>
