<?xml version="1.0" encoding="UTF-8"?>
<svg xmlns="http://www.w3.org/2000/svg" xmlns:xlink="http://www.w3.org/1999/xlink" width="500" height="580" viewBox="0 0 500 580">
  <title>Coat of Arms of Bratislava</title>
  <g id="coa_bratislava">
    <path id="field" d="M500,330V0H0V330C0,468.071,111.929,580,250,580S500,468.071,500,330Z" fill="#cc3026"/>
    <g id="coa">
      <g id="tower">
        <use xlink:href="#a2" x="-117.14" y="44.76"/>
        <g>
          <path d="M156.34,93.238H109.374l-.894,1.3L87.528,125.015l-3.231,4.7h7.317l5.572,5.572-2.641,2.64-2.121,2.122,2.121,2.121,3.884,3.883v56.562L94.545,206.5l-2.121,2.121,2.121,2.121,3.884,3.884v95.09h68.857v-95.09l3.883-3.884,2.121-2.121-2.121-2.121-3.883-3.884V146.052l3.883-3.883,2.121-2.121-2.121-2.122-2.65-2.65,5.51-5.562h7.388l-3.231-4.7L157.234,94.538l-.894-1.3Z" fill="#111"/>
          <polygon points="164.286 306.714 101.429 306.714 101.429 213.381 96.667 208.619 101.429 203.857 101.429 144.81 96.667 140.048 101.429 135.286 92.857 126.714 90 126.714 110.952 96.238 154.762 96.238 175.714 126.714 172.778 126.714 164.286 135.286 169.048 140.048 164.286 144.81 164.286 203.857 169.048 208.619 164.286 213.381 164.286 306.714" fill="#fafafa"/>
          <g fill="none" stroke="#111" stroke-linecap="square" stroke-width="2">
            <polyline points="134.762 126.714 143.333 135.286 138.571 140.048 143.333 144.81 143.333 203.857 138.571 208.619 143.333 213.381 143.333 306.714"/>
            <line x1="101.429" y1="203.857" x2="164.286" y2="203.857"/>
            <line x1="96.667" y1="208.619" x2="169.048" y2="208.619" stroke-width="1.5"/>
            <line x1="101.429" y1="213.381" x2="164.286" y2="213.381"/>
            <line x1="101.429" y1="135.286" x2="164.286" y2="135.286"/>
            <line x1="96.667" y1="140.048" x2="169.048" y2="140.048" stroke-width="1.5"/>
            <line x1="101.429" y1="144.81" x2="164.286" y2="144.81"/>
            <path d="M143.333,152.429h-2.381a3.81,3.81,0,1,0-7.619,0h-2.381a3.81,3.81,0,1,0-7.619,0h-2.381a3.81,3.81,0,1,0-7.619,0h-2.381a3.81,3.81,0,1,0-7.619,0h-1.9" stroke-width="1.5"/>
            <path d="M164.286,152.429H162.78c0-2.1-1.078-3.81-2.409-3.81s-2.409,1.706-2.409,3.81h-1.5c0-2.1-1.079-3.81-2.409-3.81s-2.409,1.706-2.409,3.81h-1.506c0-2.1-1.078-3.81-2.409-3.81s-2.409,1.706-2.409,3.81h-1.982" stroke-width="1.5"/>
          </g>
          <g>
            <rect x="114.762" y="225.762" width="15.238" height="38.095" fill="none" stroke="#111" stroke-width="1.5"/>
            <polygon points="126 260.857 130 263.857 114.762 263.857 118.762 260.857 118.762 228.762 114.762 225.762 130 225.762 126 228.762 126 260.857" fill="#111"/>
          </g>
          <g>
            <rect x="150.238" y="225.762" width="7.619" height="38.095" fill="none" stroke="#111" stroke-width="1.5"/>
            <polygon points="154.857 260.857 157.857 263.857 150.238 263.857 150.238 225.762 157.857 225.762 154.857 228.762 154.857 260.857" fill="#111"/>
          </g>
          <g id="win1">
            <path d="M113.81,162.19c-3.156,0-5.715,5.757-5.715,12.858V192.19h11.429V175.048C119.524,167.947,116.965,162.19,113.81,162.19Z" fill="none" stroke="#111" stroke-width="1.5"/>
            <path d="M110.476,189.571V175.645c0-6.485,2.477-9.883,3.334-9.883s3.333,3.4,3.333,9.883v13.926Z" fill="#111"/>
          </g>
          <use xlink:href="#win1" x="17.14"/>
          <g>
            <path d="M154.048,162.667c-2.1,0-3.81,5.756-3.81,12.857v17.143h7.619V175.524C157.857,168.423,156.152,162.667,154.048,162.667Z" fill="none" stroke="#111" stroke-width="1.5"/>
            <path d="M150.238,190.048V176.121c0-6.485.578-9.883,2.222-9.883.571,0,2.223,3.4,2.223,9.883v13.927Z" fill="#111"/>
          </g>
        </g>
        <g>
          <path d="M90,127.714a1,1,0,0,1-.824-1.566l20.952-30.476a1,1,0,0,1,.824-.434h43.81a1,1,0,0,1,.824.434l20.953,30.476a1,1,0,0,1-.825,1.566Z" fill="#a22921"/>
          <path d="M154.762,96.238l20.952,30.476H90l20.952-30.476h43.81m0-2h-43.81a2,2,0,0,0-1.648.867L88.352,125.581A2,2,0,0,0,90,128.714h85.714a2,2,0,0,0,1.648-3.133L156.41,95.105a2,2,0,0,0-1.648-.867Z" fill="#111"/>
        </g>
        <path d="M148.1,111.476a9.179,9.179,0,0,1,13.334,0m-13.334,0a8.131,8.131,0,0,0-2.5-1.909m18.331,0a8.112,8.112,0,0,0-2.5,1.908m0,15.238a9.179,9.179,0,0,0-13.334,0m0,0a9.178,9.178,0,0,0-13.333,0m40,0a9.178,9.178,0,0,0-13.333,0m0,0V105.935M148.1,126.714V105.935M133.81,126.714l20.952-30.476m-10.952,0-20.953,30.476m10-30.476-20.952,30.476m10-30.476-20.953,30.476m32.858,0a6.828,6.828,0,0,0-10.953,0m21.429-15.238a6.828,6.828,0,0,0-10.953,0m-10.476,15.238a6.827,6.827,0,0,0-10.952,0m21.428-15.238a6.827,6.827,0,0,0-10.952,0m-10.476,15.238a6.828,6.828,0,0,0-10.953,0m21.429-15.238a6.827,6.827,0,0,0-10.952,0m-10.477,15.238a6.827,6.827,0,0,0-10.952,0m21.429-15.238a6.828,6.828,0,0,0-10.953,0" fill="none" stroke="#111" stroke-linecap="round" stroke-linejoin="round" stroke-width="1.5"/>
      </g>
      <use xlink:href="#tower" transform="translate(500 0) scale(-1 1)"/>
      <g>
        <g id="a2" fill="#fdda2a" stroke="#111" stroke-linejoin="round" stroke-width="2">
          <path id="a1" d="M236.19,37.19a6.173,6.173,0,0,0-2.43-4.909L230,21l-3.76,11.281a6.183,6.183,0,0,0,1.855,10.8v7.445h3.81V43.079A6.191,6.191,0,0,0,236.19,37.19Z"/>
          <use xlink:href="#a1" x="40"/>
        </g>
        <g>
          <path d="M273.483,48.476H226.517l-.894,1.3L204.671,80.253l-3.231,4.7h7.317l5.572,5.572-2.641,2.64-2.121,2.122,2.121,2.121,3.883,3.883v72.753l-3.883,3.883-2.121,2.122,2.121,2.121,2.641,2.641-8.355,8.354-.879.879V309.714H294.9V194.043l-.879-.879-8.355-8.354,2.641-2.641,2.121-2.121-2.121-2.122-3.883-3.883V101.29l3.883-3.883,2.121-2.121-2.121-2.122-2.651-2.65,5.51-5.562h7.389l-3.231-4.7L274.377,49.777l-.894-1.3Z" fill="#111"/>
          <polygon points="291.905 306.714 208.095 306.714 208.095 195.286 218.571 184.81 213.81 180.048 218.571 175.286 218.571 100.048 213.81 95.286 218.571 90.524 210 81.952 207.143 81.952 228.095 51.476 271.905 51.476 292.857 81.952 289.921 81.952 281.429 90.524 286.19 95.286 281.429 100.048 281.429 175.286 286.19 180.048 281.429 184.81 291.905 195.286 291.905 306.714" fill="#fafafa"/>
          <g fill="none" stroke="#111" stroke-linecap="square" stroke-width="2">
            <polyline points="217.571 262.952 282.429 262.952 291.905 272.429 208.095 272.429 217.571 262.952 217.571 184.81 282.429 184.81 282.429 262.952" fill="none" stroke="#111" stroke-width="2"/>
            <line x1="218.571" y1="175.286" x2="281.429" y2="175.286"/>
            <line x1="213.81" y1="180.048" x2="286.19" y2="180.048" stroke-width="1.5"/>
            <line x1="218.571" y1="90.524" x2="281.429" y2="90.524"/>
            <line x1="213.81" y1="95.286" x2="286.19" y2="95.286" stroke-width="1.5"/>
            <line x1="218.571" y1="100.048" x2="281.429" y2="100.048"/>
          </g>
          <g>
            <path d="M250,197.19c-8.942,0-16.19,10.417-16.19,23.266v31.02h32.38v-31.02C266.19,207.607,258.942,197.19,250,197.19Z" fill="none" stroke="#111" stroke-width="1.5"/>
            <path d="M237.619,247.667V220.456C237.619,209.91,243.289,201,250,201s12.381,8.91,12.381,19.456v27.211Z" fill="none" stroke="#111" stroke-width="1.5"/>
            <path d="M249.048,219.1V244.81h-8.572V219.1c0-4.208,1.919-7.619,4.286-7.619S249.048,214.887,249.048,219.1Zm6.19-7.619c-2.367,0-4.286,3.411-4.286,7.619V244.81h8.572V219.1C259.524,214.887,257.605,211.476,255.238,211.476Zm-10.476-2c2.237,0,4.131,1.612,5.238,4.157,1.107-2.545,3-4.157,5.238-4.157a4.546,4.546,0,0,1,1.459.248c-1.721-3.084-4.086-5.549-6.7-5.549s-4.976,2.465-6.7,5.549A4.546,4.546,0,0,1,244.762,209.476Z" fill="#111"/>
          </g>
          <g id="win2">
            <path d="M250,119.571c-3.945,0-7.143,8.224-7.143,18.368v24.49h14.286v-24.49C257.143,127.8,253.945,119.571,250,119.571Z" fill="none" stroke="#111" stroke-width="1.5"/>
            <path d="M245.238,159.571v-21c0-9.865,3.38-15.187,4.762-15.187s4.762,5.322,4.762,15.187v21Z" fill="#111"/>
          </g>
          <path d="M281.429,107.667H278.81a3.81,3.81,0,1,0-7.62,0h-2.38a3.81,3.81,0,1,0-7.62,0h-2.38a3.81,3.81,0,1,0-7.62,0h-2.38a3.81,3.81,0,0,0-7.62,0h-2.38a3.81,3.81,0,0,0-7.62,0h-2.38a3.81,3.81,0,0,0-7.62,0h-2.619" fill="none" stroke="#111" stroke-width="1.5"/>
        </g>
        <g>
          <path d="M207.143,82.953a1,1,0,0,1-.824-1.567L227.271,50.91a1,1,0,0,1,.824-.434H271.9a1,1,0,0,1,.825.434l20.953,30.476a1,1,0,0,1-.825,1.567Z" fill="#a22921"/>
          <path d="M271.9,51.476l20.952,30.476H207.143L228.1,51.476H271.9m0-2H228.1a2,2,0,0,0-1.648.867L205.5,80.819a2,2,0,0,0,1.648,3.133h85.714a2,2,0,0,0,1.648-3.133L273.553,50.343a2,2,0,0,0-1.648-.867Z" fill="#111"/>
        </g>
        <use xlink:href="#win2" x="-19.05"/>
        <use xlink:href="#win2" x="19.05"/>
        <path d="M216.667,82.039a9.178,9.178,0,0,1,13.333,0M243.333,66.8A9.178,9.178,0,0,0,230,66.8m13.333,15.238a9.178,9.178,0,0,0-13.333,0m0,0V51.563M256.667,66.8a9.179,9.179,0,0,0-13.334,0m13.334,15.238a9.179,9.179,0,0,0-13.334,0m0,0V51.563M270,66.8a9.178,9.178,0,0,0-13.333,0M270,82.039a9.178,9.178,0,0,0-13.333,0m0,0V51.563m26.666,30.476a9.178,9.178,0,0,0-13.333,0m0,0V51.563M230,66.8a8.83,8.83,0,0,0-6.667-2.87,9.261,9.261,0,0,0-4.635,1.214m-2.031,16.894c-.027-.03-.058-.057-.085-.087m0,0A8.847,8.847,0,0,0,210,79.169c-.332,0-.658.02-.979.052M216.667,68.1V81.952M281.3,65.145a9.261,9.261,0,0,0-4.635-1.214A8.83,8.83,0,0,0,270,66.8m20.979,12.42c-.321-.032-.647-.052-.979-.052a8.847,8.847,0,0,0-6.582,2.783m0,0c-.027.03-.058.057-.085.087m0-.087V68.1" fill="none" stroke="#111" stroke-linecap="round" stroke-linejoin="round" stroke-width="1.5"/>
      </g>
      <g>
        <path d="M287.143,362.905V359.1H276.667V347.667h-3.81V359.1h-8.571V347.667h-3.81V359.1h-8.571V347.667H248.1V359.1h-8.571V347.667h-3.81V359.1h-8.571V347.667h-3.81V359.1H212.857v3.81h10.476v9.524H212.857v3.809h10.476v9.524H212.857v3.809h10.476V399.1h-1.9l3.809,9.524,3.81-9.524h-1.905v-9.524h8.571V399.1h-1.9l3.809,9.524,3.81-9.524h-1.905v-9.524H248.1V399.1H246.19l3.81,9.524,3.81-9.524h-1.905v-9.524h8.571V399.1h-1.9l3.81,9.524,3.809-9.524h-1.9v-9.524h8.571V399.1h-1.905l3.81,9.524,3.809-9.524h-1.9v-9.524h10.476v-3.809H276.667v-9.524h10.476v-3.809H276.667v-9.524Zm-60,0h8.571v9.524h-8.571Zm0,22.857v-9.524h8.571v9.524Zm12.381-22.857H248.1v9.524h-8.571Zm0,22.857v-9.524H248.1v9.524Zm12.381-22.857h8.571v9.524h-8.571Zm0,22.857v-9.524h8.571v9.524Zm12.381-22.857h8.571v9.524h-8.571Zm0,22.857v-9.524h8.571v9.524Z" fill="#fdda2a" stroke="#111" stroke-linecap="round" stroke-width="1.5"/>
        <g>
          <path d="M283.738,462.5V394.333c0-31.992-27.782-43.262-33.738-43.262s-33.738,11.27-33.738,43.262V462.5H63.522l13.549-13.55V283.31H91.024v21.9h17.952v-21.9h24.905v21.9h17.952v-21.9h24.905v21.9H194.69v-21.9H219.6v21.9h17.953v-21.9h24.9v21.9H280.4v-21.9H305.31v21.9h17.952v-21.9h24.9v21.9h17.952v-21.9h24.9v21.9h17.954v-21.9h13.952V448.95l13.55,13.55Z" fill="#fafafa"/>
          <path d="M421.429,284.809V449.571L432.857,461H285.238V394.333c0-33.1-29.028-44.762-35.238-44.762s-35.238,11.661-35.238,44.762V461H67.143l11.428-11.429V284.809H89.524v21.9h20.952v-21.9h21.905v21.9h20.952v-21.9h21.905v21.9H196.19v-21.9H218.1v21.9h20.953v-21.9h21.9v21.9H281.9v-21.9H303.81v21.9h20.952v-21.9h21.9v21.9h20.952v-21.9h21.9v21.9h20.952v-21.9h10.953m3-3H407.476v21.9H392.524v-21.9h-27.9v21.9H349.667v-21.9h-27.9v21.9H306.81v-21.9H278.9v21.9H263.952v-21.9h-27.9v21.9H221.1v-21.9h-27.9v21.9H178.238v-21.9h-27.9v21.9H135.381v-21.9h-27.9v21.9H92.524v-21.9H75.571v166.52l-10.549,10.55L59.9,464H217.762V394.333c0-16.54,7.76-26.824,14.27-32.539,7.918-6.952,16.055-9.223,17.968-9.223s10.05,2.271,17.968,9.223c6.51,5.715,14.27,16,14.27,32.539V464H440.1l-5.122-5.121-10.549-10.55V281.809Z" fill="#111"/>
        </g>
        <path id="bricks" d="M78.571,318.143H250M78.571,340.048H250m-171.429,21.9h138.1m-138.1,21.905H207.1m-128.524,21.9H207.1m-128.524,21.9H207.1m-129.524,21.9H207.1M185.714,318.143v21.905m42.857-21.905v21.905M100,318.143v21.905m42.857-21.905v21.905m42.857,21.9v21.905M100,361.952v21.905m42.857-21.905v21.905m42.857,21.9v21.9M100,405.762v21.9m42.857-21.9v21.9m-21.428-43.81v21.9m42.857-21.9v21.9m-42.857-65.714v21.9m85.714-21.9v21.9m-42.857-21.9v21.9m-42.857,65.715v21.9m42.857-21.9v21.9" fill="none" stroke="#111" stroke-width="2"/>
        <use xlink:href="#bricks" transform="translate(500 0) scale(-1 1)"/>
        <g>
          <path d="M290,462a1,1,0,0,1-1-1V394.333c0-35.858-31.062-48.523-39-48.523s-39,12.665-39,48.523V461a1,1,0,0,1-1,1h-4.762a1,1,0,0,1-1-1V394.333c0-38.285,33.159-55.285,45.762-55.285s45.762,17,45.762,55.285V461a1,1,0,0,1-1,1Z" fill="#fafafa"/>
          <path d="M250,340.048c11.369,0,44.762,15.833,44.762,54.285V461H290V394.333c0-36.6-31.87-49.523-40-49.523s-40,12.926-40,49.523V461h-4.762V394.333c0-38.452,33.393-54.285,44.762-54.285m0-2c-6.574,0-18.3,4.546-27.98,13.234-8.568,7.687-18.782,21.4-18.782,43.051V461a2,2,0,0,0,2,2H210a2,2,0,0,0,2-2V394.333c0-18.881,8.844-30.529,16.263-36.976,8.281-7.2,17.866-10.547,21.737-10.547s13.456,3.352,21.737,10.547C279.156,363.8,288,375.452,288,394.333V461a2,2,0,0,0,2,2h4.762a2,2,0,0,0,2-2V394.333c0-21.655-10.214-35.364-18.782-43.051-9.684-8.688-21.406-13.234-27.98-13.234Z" fill="#111"/>
        </g>
      </g>
    </g>
    <path id="border" d="M497,330V3H3V330C3,466.414,113.586,577,250,577S497,466.414,497,330Z" fill="none" stroke="#111" stroke-width="6"/>
  </g>
</svg>
