<?xml version="1.0" encoding="UTF-8" standalone="no"?>
<svg
   xmlns:dc="http://purl.org/dc/elements/1.1/"
   xmlns:cc="http://creativecommons.org/ns#"
   xmlns:rdf="http://www.w3.org/1999/02/22-rdf-syntax-ns#"
   xmlns:svg="http://www.w3.org/2000/svg"
   xmlns="http://www.w3.org/2000/svg"
   version="1.1"
   width="702"
   height="602"
   id="roadsign">
  <metadata
     id="metadata10">
    <rdf:RDF>
      <cc:Work
         rdf:about="">
        <dc:format>image/svg+xml</dc:format>
        <dc:type
           rdf:resource="http://purl.org/dc/dcmitype/StillImage" />
        <dc:title></dc:title>
      </cc:Work>
    </rdf:RDF>
  </metadata>
  <defs
     id="defs2989" />
  <path
     width="702"
     height="602"
     x="0"
     y="0"
     id="background"
     style="fill:#007b30;stroke:none"
     d="m 60,0 h 582 a 60,60 45 0 1 60,60 v 482 a 60,60 135 0 1 -60,60 H 60 A 60,60 45 0 1 0,542 V 60 A 60,60 135 0 1 60,0 Z" />
  <rect
     width="680"
     height="580"
     rx="50"
     ry="50"
     x="11"
     y="11"
     id="border"
     style="fill:none;stroke:#ffffff;stroke-width:20" />
  <path
     d="m 331.94373,86.307 0,34.068 25.718,0 c 12.52499,0 18.871,-8.35001 18.871,-17.869 0,-5.510994 -1.837,-9.853003 -5.511,-12.692 -3.33999,-2.337998 -7.515,-3.507 -12.525,-3.507 l -26.553,0 m -16.867,96.693 0,-111.723 43.587,0 c 9.51899,0 17.03401,2.505005 22.879,7.348 6.012,5.510994 11.022,13.86101 11.022,23.881 0,14.69599 -8.18301,26.386 -21.543,31.062 l 25.885,49.432 -20.207,0 -23.046,-47.595 -21.71,0 0,47.595 -16.867,0"
     id="prefix"
     style="fill:#ffe200;stroke:none" />
  <g
     id="number"
     style="fill:#ffe200;stroke:none">
    <path
       d="m 165.0335,519.35202 0,-234.428 -39.552,28.428 0,-41.612 39.552,-28.84 39.964,0 0,276.452 -39.964,0"
       id="path3123" />
    <path
       d="m 362.54887,439.42402 0,-117.008 c 0,-26.77998 -15.65602,-42.436 -38.728,-42.436 -24.71997,0 -38.728,15.65602 -38.728,42.436 l 0,117.008 c 0,26.77997 14.00803,42.436 38.728,42.436 23.07198,0 38.728,-15.65603 38.728,-42.436 m -117.008,2.472 0,-121.952 c 0,-25.13198 7.82802,-44.90802 23.484,-58.504 16.06799,-14.00799 34.19603,-21.012 54.796,-21.012 19.77599,0 37.90402,7.00401 53.972,21.012 16.06799,13.59598 24.308,33.37202 24.308,58.504 l 0,121.952 c 0,25.13197 -8.24001,44.90801 -24.308,58.504 -16.06798,13.59598 -34.19601,20.6 -53.972,20.6 -20.18797,0 -38.72801,-7.00402 -54.796,-20.6 -15.65598,-13.59599 -23.484,-32.96003 -23.484,-58.504"
       id="path3125" />
    <path
       d="m 428.95169,518.52802 0,-36.668 107.944,-135.136 c 8.23999,-11.12399 9.888,-19.36401 9.888,-27.604 0,-9.476 -3.29601,-18.54001 -10.3,-26.368 -7.004,-8.652 -16.06801,-12.772 -27.604,-12.772 -21.83598,0 -38.728,15.24402 -40.376,39.964 l -39.552,0 c 0,-22.65998 7.41601,-41.20002 22.66,-56.444 15.24398,-15.24399 33.37202,-23.072 53.972,-23.072 22.65997,0 42.02401,7.82801 57.268,23.072 15.24398,15.24398 23.072,34.19602 23.072,56.032 0,18.95198 -5.35601,35.02001 -16.068,48.616 l -88.992,111.24 105.06,0 0,39.14 -156.972,0"
       id="path3127" />
  </g>
</svg>
