<?xml version="1.0" encoding="UTF-8" standalone="no"?>
<!-- Created with Inkscape (http://www.inkscape.org/) -->

<svg
   xmlns:dc="http://purl.org/dc/elements/1.1/"
   xmlns:cc="http://creativecommons.org/ns#"
   xmlns:rdf="http://www.w3.org/1999/02/22-rdf-syntax-ns#"
   xmlns:svg="http://www.w3.org/2000/svg"
   xmlns="http://www.w3.org/2000/svg"
   xmlns:sodipodi="http://sodipodi.sourceforge.net/DTD/sodipodi-0.dtd"
   xmlns:inkscape="http://www.inkscape.org/namespaces/inkscape"
   width="195mm"
   height="195.36783mm"
   viewBox="0 0 195 195.36783"
   version="1.1"
   id="svg3845"
   inkscape:version="0.92.3 (2405546, 2018-03-11)"
   sodipodi:docname="Latvia_road_sign_201.svg">
  <defs
     id="defs3839" />
  <sodipodi:namedview
     id="base"
     pagecolor="#ffffff"
     bordercolor="#666666"
     borderopacity="1.0"
     inkscape:pageopacity="0.0"
     inkscape:pageshadow="2"
     inkscape:zoom="0.35"
     inkscape:cx="453.25485"
     inkscape:cy="79.858553"
     inkscape:document-units="mm"
     inkscape:current-layer="layer1"
     showgrid="false"
     inkscape:window-width="1920"
     inkscape:window-height="1027"
     inkscape:window-x="-8"
     inkscape:window-y="-8"
     inkscape:window-maximized="1" />
  <metadata
     id="metadata3842">
    <rdf:RDF>
      <cc:Work
         rdf:about="">
        <dc:format>image/svg+xml</dc:format>
        <dc:type
           rdf:resource="http://purl.org/dc/dcmitype/StillImage" />
        <dc:title></dc:title>
      </cc:Work>
    </rdf:RDF>
  </metadata>
  <g
     inkscape:label="Layer 1"
     inkscape:groupmode="layer"
     id="layer1"
     transform="translate(487.83523,667.8345)">
    <path
       d="m -394.44321,-665.8787 -90.80731,90.6757 c -2.43201,2.42752 -2.89163,5.91265 -0.18531,8.67039 l 90.07106,91.79351 c 2.43423,2.4811 6.18038,2.14646 8.46066,-0.13408 l 92.06794,-92.04789 c 2.06165,-2.06165 1.78944,-5.85017 -0.0253,-7.65971 l -91.53478,-91.36066 c -1.81169,-1.80948 -6.21605,-1.77153 -8.05013,0.0632 z"
       style="fill:#ffffff;fill-opacity:1;stroke:#000000;stroke-width:1.11559653;stroke-linecap:butt;stroke-linejoin:miter;stroke-miterlimit:22.9260006;stroke-dasharray:none;stroke-opacity:1"
       id="path9911"
       inkscape:connector-curvature="0"
       sodipodi:nodetypes="ccccccccc" />
    <path
       d="m -452.53005,-570.58443 62.29045,-62.63407 62.22126,62.3998 -62.28823,62.61396 z"
       style="fill:#fff200;fill-opacity:1;fill-rule:evenodd;stroke:#fff200;stroke-width:0.45739457;stroke-linecap:butt;stroke-linejoin:miter;stroke-miterlimit:22.9260006;stroke-dasharray:none;stroke-opacity:1"
       id="path9905"
       inkscape:connector-curvature="0" />
    <path
       d="m -454.11424,-570.79416 63.84783,-64.07545 63.85232,64.08216 -63.84783,64.07539 z m 1.53284,0.006 62.33953,-62.57386 62.33953,62.56715 -62.33953,62.56931 -62.33953,-62.5626"
       style="fill:#000000;fill-opacity:1;fill-rule:evenodd;stroke:none;stroke-width:2.23119307"
       id="path9907"
       inkscape:connector-curvature="0" />
    <path
       d="m -392.31237,-662.04995 -89.2567,89.26107 c -1.11561,1.10225 -1.11561,2.9586 -0.0632,4.02506 l 88.39541,90.13798 c 1.07987,1.0509 2.934,1.0509 3.95366,0.0443 l 90.2116,-90.14696 c 1.06652,-1.06203 1.0576,-2.95411 0.0379,-3.99161 l -89.31015,-89.33025 c -0.91479,-0.89918 -2.88271,-1.06653 -3.96928,0 z m 90.23835,90.28521 -87.23965,-87.23521 c -0.56226,-0.56669 -1.43689,-0.6381 -2.08618,0 l -87.23965,87.24635 c -0.66042,0.67382 -0.46612,1.59311 0,2.06607 l 86.37393,88.10093 c 0.62045,0.6116 1.49268,0.54898 2.0304,0 l 88.16785,-88.07633 c 0.52621,-0.57807 0.6448,-1.4369 -0.006,-2.10181"
       style="fill:#000000;fill-opacity:1;fill-rule:evenodd;stroke:none;stroke-width:2.23119307"
       id="path9909"
       inkscape:connector-curvature="0" />
  </g>
</svg>
