<?xml version="1.0" encoding="UTF-8" standalone="no"?>
<!-- Created with Inkscape (http://www.inkscape.org/) -->

<svg
   xmlns:dc="http://purl.org/dc/elements/1.1/"
   xmlns:cc="http://creativecommons.org/ns#"
   xmlns:rdf="http://www.w3.org/1999/02/22-rdf-syntax-ns#"
   xmlns:svg="http://www.w3.org/2000/svg"
   xmlns="http://www.w3.org/2000/svg"
   xmlns:sodipodi="http://sodipodi.sourceforge.net/DTD/sodipodi-0.dtd"
   xmlns:inkscape="http://www.inkscape.org/namespaces/inkscape"
   version="1.1"
   width="1064"
   height="1418.3125"
   id="svg2"
   inkscape:version="0.48.5 r10040"
   sodipodi:docname="Carretera_estatal_1D (Sinaloa).svg">
  <sodipodi:namedview
     pagecolor="#ffffff"
     bordercolor="#666666"
     borderopacity="1"
     objecttolerance="10"
     gridtolerance="10"
     guidetolerance="10"
     inkscape:pageopacity="0"
     inkscape:pageshadow="2"
     inkscape:window-width="1057"
     inkscape:window-height="636"
     id="namedview3080"
     showgrid="false"
     inkscape:zoom="0.28978098"
     inkscape:cx="532"
     inkscape:cy="709.15624"
     inkscape:window-x="372"
     inkscape:window-y="206"
     inkscape:window-maximized="0"
     inkscape:current-layer="layer1" />
  <defs
     id="defs4" />
  <metadata
     id="metadata7">
    <rdf:RDF>
      <cc:Work
         rdf:about="">
        <dc:format>image/svg+xml</dc:format>
        <dc:type
           rdf:resource="http://purl.org/dc/dcmitype/StillImage" />
        <dc:title></dc:title>
      </cc:Work>
    </rdf:RDF>
  </metadata>
  <g
     transform="translate(0.5,365.46193)"
     id="layer1">
    <path
       d="m 0,-364.96193 0,708.65625 c 0,254.53189 128.8733,478.99565 324.9375,611.65625 l 0,-0.0313 c 62.6697,42.4086 132.2075,75.39093 206.5937,97.03133 74.3674,-21.6363 143.9057,-54.60523 206.5625,-97.00003 l 0,-0.0313 C 934.1386,822.65557 1063,598.21125 1063,343.69432 l 0,-708.65625 -1063,0 z"
       id="path3765"
       style="fill:#ffffff;fill-opacity:1;fill-rule:nonzero;stroke:#000000;stroke-width:1;stroke-miterlimit:4;stroke-opacity:1;stroke-dasharray:none" />
    <path
       d="m 35.4375,35.4375 0,673.21875 c 0,233.63317 114.02925,440.62495 289.46875,568.37495 61.9749,45.1287 131.61145,80.3766 206.59375,103.4063 74.9685,-23.0255 144.5961,-58.2584 206.5625,-103.375 175.4586,-127.7482 289.5,-334.75804 289.5,-568.40625 l 0,-673.21875 z m 35.4375,35.4375 921.25,0 0,283.45341 -921.25,0 z m 0,318.89091 921.25,0 0,318.89034 c 0,212.47328 -99.3196,401.74955 -254.0625,523.93755 l 0,0.031 C 676.94801,1280.8819 607.20109,1318.6569 531.5,1343.281 455.7847,1318.6522 386.02897,1280.8635 324.90625,1232.5936 l 0,-0.031 C 170.18303,1110.3739 70.875,921.11378 70.875,708.65625 z"
       transform="translate(0,-364.96193)"
       id="path3794"
       style="fill:#000000;fill-opacity:1;fill-rule:nonzero;stroke:none" />
    <g
       style="font-size:264.42590332px;font-style:normal;font-variant:normal;font-weight:normal;font-stretch:normal;text-align:center;line-height:125%;letter-spacing:0px;word-spacing:0px;writing-mode:lr-tb;text-anchor:middle;fill:#000000;fill-opacity:1;stroke:none;font-family:Roadgeek 2005 Series C;-inkscape-font-specification:Roadgeek 2005 Series C"
       id="text3891">
      <path
         d="m 420.06326,-136.49803 c -1.4e-4,8.99054 -0.70527,16.83517 -2.1154,23.53391 -1.23413,6.69883 -3.43768,12.69248 -6.61065,17.980957 -5.64121,10.400773 -13.75027,18.774251 -24.32718,25.120461 -10.57714,6.169937 -22.12372,9.254903 -34.6398,9.254906 -10.5771,-3e-6 -20.53713,-2.20355 -29.88012,-6.610647 -9.1668,-4.583375 -17.01143,-10.92959 -23.53391,-19.038665 -2.99684,-3.349369 -5.55296,-6.786903 -7.66835,-10.312611 -1.93914,-3.701921 -3.9664,-8.549731 -6.0818,-14.543421 l 30.93783,-7.93278 c 1.58652,4.58343 3.26122,8.10911 5.0241,10.57704 1.76279,2.46801 4.05448,4.93599 6.87507,7.40392 3.52563,2.468011 7.31573,4.495274 11.37031,6.081797 4.23075,1.410301 8.5497,2.115436 12.95687,2.115407 6.69871,2.9e-5 12.86864,-1.674667 18.50982,-5.024092 5.81727,-3.525642 10.22436,-7.932732 13.22129,-13.221292 1.41017,-2.99678 2.46787,-6.34617 3.17311,-10.04819 0.70503,-3.7019 1.0576,-8.37342 1.05771,-14.01457 l 0,-105.77036 31.7311,0 0,104.44823 0,0"
         style="font-family:Roadgeek 2005 Series E;-inkscape-font-specification:Roadgeek 2005 Series E"
         id="path3364" />
      <path
         d="m 596.71215,-63.780907 -17.4521,-41.779293 -77.21237,0 -17.18768,41.779293 -34.90422,0 74.5681,-177.165353 32.25996,0 74.03926,177.165353 -34.11095,0 m -56.05829,-133.006233 -24.85603,59.76026 49.71207,0 -24.85604,-59.76026"
         style="font-family:Roadgeek 2005 Series E;-inkscape-font-specification:Roadgeek 2005 Series E"
         id="path3366" />
      <path
         d="m 661.30643,-63.780907 0,-177.165353 31.73111,0 0,149.929485 100.74627,0 0,27.235868 -132.47738,0"
         style="font-family:Roadgeek 2005 Series E;-inkscape-font-specification:Roadgeek 2005 Series E"
         id="path3368" />
    </g>
    <g
       style="font-size:790.91674805px;font-style:normal;font-variant:normal;font-weight:normal;font-stretch:normal;text-align:center;line-height:125%;letter-spacing:0px;word-spacing:0px;writing-mode:lr-tb;text-anchor:middle;fill:#000000;fill-opacity:1;stroke:none;font-family:Roadgeek 2005 Series B;-inkscape-font-specification:Roadgeek 2005 Series B"
       id="text3895">
      <path
         d="m 381.12758,245.78392 c -2.5e-4,10.54596 -0.79117,20.30059 -2.37275,29.26392 -1.58208,8.43682 -4.48211,17.66418 -8.70008,27.68209 -4.21846,10.01862 -10.01851,21.35509 -17.40017,34.00942 -7.38211,12.65498 -17.13674,27.68238 -29.26392,45.08225 -15.81852,25.30959 -31.10956,51.14618 -45.87317,77.50984 -14.23664,25.83679 -25.5731,49.03699 -34.00942,69.60068 -4.74562,10.54568 -8.17292,20.82758 -10.28192,30.84575 -2.10922,9.49109 -3.69105,20.82756 -4.7455,34.00942 l 143.15593,0 0,68.80976 -219.08394,0 c 0.52725,-32.6912 2.63636,-62.21873 6.32734,-88.58268 3.6909,-26.89105 9.75459,-52.464 18.19108,-76.71892 8.96366,-24.78187 20.56377,-49.30027 34.80034,-73.55526 14.2364,-24.25452 32.16383,-50.61838 53.78234,-79.09168 17.92729,-24.25443 30.05466,-43.50006 36.38217,-57.73692 6.85443,-14.23611 10.28173,-27.94532 10.28191,-41.12767 -1.8e-4,-17.39973 -3.95476,-30.84531 -11.86375,-40.33675 -7.90933,-10.01782 -18.71851,-15.02695 -32.42758,-15.02742 -13.18208,4.7e-4 -23.99126,4.21869 -32.42759,12.65467 -8.43655,7.90961 -13.18204,18.45516 -14.2365,31.63667 l -68.80976,0 c 2.10908,-32.69077 13.44555,-59.31827 34.00942,-79.8826 21.09103,-21.09058 48.24582,-31.63613 81.46443,-31.63667 16.34545,5.4e-4 31.37285,3.16421 45.08225,9.491 14.2363,5.80058 26.36368,14.23702 36.38217,25.30934 10.01805,10.54605 17.66357,23.46435 22.93659,38.75492 5.7998,14.76423 8.69983,31.10983 8.70008,49.03684"
         style="font-family:Roadgeek 2005 Series B;-inkscape-font-specification:Roadgeek 2005 Series B"
         id="path3371" />
      <path
         d="m 662.27376,245.78392 c -2.5e-4,10.54596 -0.79117,20.30059 -2.37275,29.26392 -1.58208,8.43682 -4.48211,17.66418 -8.70008,27.68209 -4.21847,10.01862 -10.01852,21.35509 -17.40017,34.00942 -7.38211,12.65498 -17.13674,27.68238 -29.26392,45.08225 -15.81852,25.30959 -31.10956,51.14618 -45.87317,77.50984 -14.23664,25.83679 -25.5731,49.03699 -34.00942,69.60068 -4.74562,10.54568 -8.17292,20.82758 -10.28192,30.84575 -2.10922,9.49109 -3.69105,20.82756 -4.7455,34.00942 l 143.15593,0 0,68.80976 -219.08394,0 c 0.52725,-32.6912 2.63636,-62.21873 6.32733,-88.58268 3.69091,-26.89105 9.7546,-52.464 18.19109,-76.71892 8.96366,-24.78187 20.56376,-49.30027 34.80034,-73.55526 14.2364,-24.25452 32.16383,-50.61838 53.78234,-79.09168 17.92729,-24.25443 30.05466,-43.50006 36.38217,-57.73692 6.85443,-14.23611 10.28173,-27.94532 10.28191,-41.12767 -1.8e-4,-17.39973 -3.95476,-30.84531 -11.86375,-40.33675 -7.90933,-10.01782 -18.71852,-15.02695 -32.42758,-15.02742 -13.18208,4.7e-4 -23.99126,4.21869 -32.42759,12.65467 -8.43655,7.90961 -13.18204,18.45516 -14.2365,31.63667 l -68.80976,0 c 2.10908,-32.69077 13.44555,-59.31827 34.00942,-79.8826 21.09103,-21.09058 48.24581,-31.63613 81.46443,-31.63667 16.34545,5.4e-4 31.37285,3.16421 45.08225,9.491 14.2363,5.80058 26.36368,14.23702 36.38217,25.30934 10.01805,10.54605 17.66357,23.46435 22.93659,38.75492 5.7998,14.76423 8.69983,31.10983 8.70008,49.03684"
         style="font-family:Roadgeek 2005 Series B;-inkscape-font-specification:Roadgeek 2005 Series B"
         id="path3373" />
      <path
         d="m 958.44736,452.21319 c -2.7e-4,25.30952 -2.9003,50.61883 -8.70009,75.92801 -5.27303,25.30944 -13.44583,49.03692 -24.51841,71.18251 -26.36411,48.50957 -64.32807,72.76433 -113.89202,72.76434 -27.41854,-10e-6 -54.04604,-8.17281 -79.88259,-24.51842 l 35.59126,-59.31876 c 8.96363,5.80013 16.60915,9.75471 22.93658,11.86375 6.8545,2.10917 13.97275,3.16373 21.35475,3.16367 13.18181,6e-5 23.991,-3.95452 32.42759,-11.86375 8.96356,-7.90909 16.87272,-20.82738 23.7275,-38.75492 6.32715,-14.76366 11.59992,-32.42745 15.81834,-52.99142 4.21802,-21.09093 6.32713,-40.60019 6.32733,-58.52784 -2e-4,-20.03632 -3.95478,-36.11828 -11.86375,-48.24593 -7.90935,-12.1271 -18.98217,-18.19079 -33.2185,-18.19108 -7.38204,2.9e-4 -13.70937,1.84576 -18.98201,5.53642 -5.27291,3.69122 -11.33659,9.22763 -18.19108,16.60925 l -68.80976,-7.90917 9.491,-256.25703 195.35644,0 0,68.80976 -129.71035,0 -2.37275,107.56468 c 7.38176,-1.0542 13.70909,-1.84512 18.98201,-2.37275 5.27263,-0.52692 10.80904,-0.79056 16.60925,-0.79092 20.56365,3.6e-4 37.43653,3.95494 50.61867,11.86375 13.709,7.38223 25.83638,19.50961 36.38217,36.38217 7.38164,12.12769 13.18169,26.89146 17.40017,44.29134 4.74523,17.40042 7.11798,35.32785 7.11825,53.78234"
         style="font-family:Roadgeek 2005 Series B;-inkscape-font-specification:Roadgeek 2005 Series B"
         id="path3375" />
    </g>
  </g>
</svg>
